<svg width="32" height="96" viewBox="0 0 32 96" fill="none" xmlns="http://www.w3.org/2000/svg"><g clip-path="url(#a)"><path d="M.134.086V32h31.877V.086H.134z" fill="#FBC631"/><path d="M.134 64v31.914h31.877V64H.134z" fill="#1938EF"/><path fill-rule="evenodd" clip-rule="evenodd" d="M31.987 86.393l3.081-3.5-2.824-2.777 2.845-3.016-3.071-4.051 5.355.278.468-3.571h2.598v-5.79L44.2 67.63l3.044-3.354 3.349 3.346 2.743-3.129v5.24l3.678-.256.405 4.02 5.056.044-1.88 3.406 3.393 2.997-3.609 3.006 2.181 3.73h-5.625v3.63h-3.211l.124 5.473-3.269-3.579-3.705 3.153-2.687-2.818-3.75 3.064V90.31h-3.392l-.067-3.87-4.992-.046zm1.404-12.628l2.562 3.38-2.788 2.954 2.809 2.763-2.553 2.9 4.218.04.067 3.862h3.403v4.544l3.137-2.563 2.678 2.809 3.716-3.162 2.498 2.735-.099-4.363h3.227v-3.63h5.15l-1.888-3.227 3.455-2.878-3.223-2.845 1.606-2.91-4.556-.04-.4-3.97-3.743.26v-4.167l-2.04 2.326-3.358-3.354-3.037 3.346-3.123-3.038V70.4h-2.677l-.471 3.602-4.57-.237z" fill="#FBC733"/><path d="M20.946 64.451v9.578l2.034-2.104 1.14.064.268 1.074-1.788 2.04h8.562l-3.689 4.08-1.81-.02V77.23h-3.644l-.47-.58h-2.257v-5.8h-1.7l-1.497-1.61 4.85-4.79zm-9.389.064l4.538 4.725-.67 1.611h-1.923v5.799h-1.163l-.536.58H7.869v1.932H4.963l-3.89-3.694h8.942L8.45 73.557l.223-1.353 1.342.043 1.542 1.61v-9.342z" fill="#003E89"/><path d="M16.095 69.24l1.498 1.61h1.699v5.821H13.48v-5.82h1.944l.671-1.61zm.894 3.415h-.983l-.537.687v1.46l.537.666h1.028l.537-.665v-1.46l-.582-.688z" fill="#1434EF"/><path d="M20.946 69.949l5.387.064v5.09H22.6l1.788-2.04-.268-1.074-1.14-.064-2.034 2.105v-4.081zm-14.419.171h5.03v3.738l-1.542-1.611-1.342-.043-.223 1.353 1.565 1.911H6.527v-5.347zm9.479 2.535h.983l.581.687v1.46l-.536.666h-1.028l-.537-.665v-1.46l.537-.688z" fill="#F25000"/><path d="M19.292 76.65h2.257l.47.58 1.654 1.954v.322h-2.37v-1.138h-8.852v1.138H9.948v-.322l1.855-1.954.536-.58h6.953z" fill="#003E89"/><path d="M23.673 79.506v-.322l-1.654-1.955h3.644v1.933l1.81.022.045 1.933h-1.855v1.997h-3.398l1.408-1.954v-1.654zM7.869 77.23h3.934l-1.855 1.954v1.976l1.654 1.954H7.869v-1.997H4.963v-1.955h2.906V77.23z" fill="#1434EF"/><path d="M17.883 78.368h3.42v1.138h2.37v1.654h-2.37v1.138h-3.42v-.58l1.006-.752v-1.331l-1.006-.709v-.558z" fill="#F25000"/><path d="M12.451 78.368h5.432v.558h-2.146l-1.006.709v1.374l1.006.71h2.146v.579h-5.432V81.16H9.948v-1.654h2.503v-1.138z" fill="#F25000"/><path d="M16.9 78.926h.983l1.006.709v1.331l-1.006.752H16.9v-.752c.044 0 .09-.021.111-.043l.492-.494a.164.164 0 0 0 0-.236l-.492-.494a.174.174 0 0 0-.111-.043v-.73z" fill="#1434EF"/><path d="M15.737 78.926h1.185v.709a.175.175 0 0 0-.112.043l-.491.494a.164.164 0 0 0 0 .236l.491.494a.174.174 0 0 0 .112.043v.752h-1.185l-.983-.71v-1.374l.983-.687z" fill="#1434EF"/><path d="M16.788 79.678a.175.175 0 0 1 .112-.043c.044 0 .09.021.112.043l.491.494a.164.164 0 0 1 0 .236l-.491.494a.124.124 0 0 1-.112.064.175.175 0 0 1-.112-.043l-.492-.494a.164.164 0 0 1 0-.236l.492-.515zm8.875 1.439h1.855l3.599 4.145H22.6l1.788 1.954-.536 1.052-.961-.064-1.945-1.976v8.977l-4.337-4.338 1.073-1.482h1.61v-5.39h2.324l.649-.881h3.398v-1.997zm-20.7 0h2.906v1.997h3.733l.737.88h1.364v5.391h1.654l1.252 1.482-5.052 4.338v-8.741l-1.475 2.02-1.364-.087-.268-1.181 1.565-1.954H1.073l3.89-4.145z" fill="#003E89"/><path d="M21.303 81.16h2.37l-1.408 1.954-.649.88H12.34l-.737-.88-1.654-1.954h2.503v1.138h8.852V81.16z" fill="#003E89"/><path d="M13.703 83.995h5.566l.023 5.39h-1.61l-1.073 1.482-1.23-1.482h-1.654v-5.39h-.022zm3.286 1.052h-.983l-.537.687v1.46l.537.666h1.028l.536-.665v-1.46l-.58-.688z" fill="#1434EF"/><path d="M16.006 85.047h.983l.581.687v1.46l-.536.666h-1.028l-.537-.665v-1.46l.537-.688zm6.594.215h3.6v4.96h-5.254v-3.994l1.945 1.976.961.064.537-1.052-1.789-1.954zm-16.073 0h3.488L8.45 87.216l.268 1.181 1.364.086 1.475-2.019v3.716h-5.03v-4.918z" fill="#F25000"/><path fill-rule="evenodd" clip-rule="evenodd" d="M.257 75.147h5.935v-5.348h5.03V63.69l4.88 5.081 5.18-5.114v5.973l5.386.064v5.086h5.229l-4.086 4.52.04 1.696 3.982 4.587h-5.299v4.961h-5.253v5.461l-4.69-4.691-5.37 4.61v-5.423H6.193v-4.918H.319l4.308-4.59v-1.697l-4.37-4.15zm1.57 9.793h5.036v4.918h5.03v4.628l4.734-4.066 3.983 3.985v-4.504h5.254V84.94H30.4l-3.216-3.703-.05-2.17 3.291-3.641h-4.428v-5.094l-5.388-.065v-5.023l-4.522 4.465-4.196-4.37v5.104h-5.03v5.348H1.89l3.409 3.237v2.213L1.827 84.94z" fill="#FEF1EB"/><path fill-rule="evenodd" clip-rule="evenodd" d="M6.527 84.94h4.169L8.81 87.293l.181.798.924.058 1.976-2.705v4.735h-.67v-2.696l-.974 1.332-1.804-.113-.355-1.565 1.245-1.554H6.527v-.645zm1.006-3.501h-2.57v-.644h3.24v1.997h3.399v.644H7.533V81.44zm-2.57-1.954v-.645h2.57v-1.933h4.27v.645h-3.6v1.933h-3.24zm1.564-3.695v-.644h2.797l-1.228-1.5.293-1.773 1.777.056 1.056 1.103V70.12h.67v4.563l-2.029-2.12-.905-.029-.154.934 1.901 2.322H6.527zM20.61 90.223v-4.804l2.434 2.472.606.04.339-.664-2.13-2.328h4.34v.645H23.34l1.447 1.58-.735 1.44-1.316-.087-1.456-1.48v3.186h-.67zm4.717-7.431h-3.062v.644h3.733V81.44h1.52v-.644h-2.19v1.997zm-3.308-5.885h3.979v1.937l1.48.018-.009.644-2.142-.025v-1.93H22.02v-.644zM20.61 74.85v-4.901h.671v3.26l1.56-1.615 1.547.088.366 1.464-1.433 1.635h3.012v.644h-4.454l2.144-2.445-.171-.683-.734-.042-2.508 2.595zm-5.253-.01v-1.534l.593-.758h1.093l.64.756v1.535l-.594.737H15.95l-.594-.737zm.224-.074l.48.595h.918l.48-.595V73.38l-.523-.618h-.874l-.481.616v1.388zm-.224 12.465v-1.533l.593-.758h1.093l.64.756v1.535l-.594.737H15.95l-.594-.737zm.224-.073l.48.595h.918l.48-.595v-1.386l-.523-.618h-.874l-.481.616v1.388zm.794-6.888a.06.06 0 0 0 0 .084l.002.001.49.492.003.002a.08.08 0 0 0 .01.005.057.057 0 0 0 .02.005.018.018 0 0 0 .009-.002l.001-.001.002-.002.007-.015.505-.507a.06.06 0 0 0 0-.084l-.002-.002-.49-.492-.002-.002a.073.073 0 0 0-.02-.009l-.002.001a.2.2 0 0 0-.04.03l-.493.495zm-.159-.152a.268.268 0 0 0 0 .386l.491.494.002.001c.042.04.114.075.19.075a.238.238 0 0 0 .203-.108l.481-.483a.268.268 0 0 0 0-.386l-.49-.493-.003-.002a.288.288 0 0 0-.19-.075.221.221 0 0 0-.103.03.421.421 0 0 0-.088.066l-.493.495z" fill="#FEF1EB"/><path fill-rule="evenodd" clip-rule="evenodd" d="M9.612 81.274V79.06l1.942-2.045.635-.686h9.524l.568.7 1.727 2.041v2.191L22.54 83.3l-.75 1.018h-9.611l-.838-1-1.729-2.043zm.67-.229l1.581 1.867.637.76h8.943l.547-.743 1.348-1.87v-1.76l-1.582-1.869-.37-.458H12.49l-.438.473-1.77 1.864v1.736z" fill="#FEF1EB"/><path fill-rule="evenodd" clip-rule="evenodd" d="M14.62 81.064V79.58l1.08-.761h2.22l1.08.761v1.439l-1.08.806H15.7l-1.081-.761zm.223-.11l.93.657h2.072l.933-.697v-1.225l-.931-.655h-2.073l-.93.655v1.266z" fill="#FEF1EB"/><path fill-rule="evenodd" clip-rule="evenodd" d="M12.228 81.374h-2.28v-.43h2.727v1.14h8.405v-1.14h2.705v.43h-2.258v1.139h-9.3v-1.139zm-2.28-1.654v-.429h2.28v-1.138h9.299v1.138h2.258v.43H21.08v-1.139h-8.405v1.139H9.948zm3.218-3.07v-6.121h2.031l.788-1.891 1.758 1.89h1.884v6.122h-.67v-5.477h-1.514l-1.238-1.33-.554 1.33h-1.814v5.477h-.67zm.202 13.057v-5.712h.67v5.068h1.479l1.072 1.268.918-1.268h1.45v-5.069h.67v5.713h-1.77l-1.227 1.696-1.432-1.696h-1.83z" fill="#FEF1EB"/><path d="M.134 32v31.914h31.877V32H.134z" fill="#FFFBF8"/><path d="M9.053 32.709l3.42 3.371 2.996-3.35 3.309 3.35 2.347-2.727V38.4l3.554-.344v3.759l5.276.043-1.722 3.157 3.286 2.92-3.487 2.943 1.99 3.479h-5.32v3.63h-3.197l.134 4.918-2.861-3.157-3.242 3.608-3.062-3.286-3.42 3.092v-5.197H5.7L5.633 54.1l-4.538-.064 2.772-3.2-2.772-2.77L3.867 45.1l-2.772-3.737 4.896.258.47-3.587h2.592v-5.326zm6.528 1.804l-2.526 2.405v4.725l-1.721-2.04-3.175-.408-.447 2.963 3.085 3.651H4.694l-2.079 2.255 2.08 2.277h5.588l-3.107 3.436.179 2.792 3.487-.3 2.19-2.427v5.068l2.527 2.212 2.324-2.212v-4.66l1.945 2.298h3.063l.268-2.298-2.772-3.888h6.058l2.437-2.47-2.437-2.061h-6.17l3.353-3.716-.2-2.877-3.421.343-2.124 2.363V36.96l-2.302-2.448zm-3.107 3.05l-1.431-1.483v2.406l1.43 1.525v-2.449zm7.69.472v-1.976l-1.387 1.697v2.233l1.386-1.954zm-12.9 4.918H3.867l1.766 2.148h3.42l-1.788-2.148zm19.918 0l-3.286.408-1.677 1.74h3.04l1.923-2.148zm-18.13 7.903h-3.42l-1.766 1.74h3.398l1.788-1.74zm16.52.344h-3.375l1.676 1.74h2.862l-1.163-1.74zm-13.1 7.087v-2.77l-1.43 1.567v2.32l1.43-1.117zm7.69-.837l-1.386-.902v1.89l1.811 1.653-.425-2.641z" fill="#fff"/><path d="M13.032 36.918l2.526-2.405 2.325 2.405v4.983l2.124-2.363 3.42-.343.201 2.877-3.353 3.716h6.148l2.436 2.062-2.437 2.47h-6.035l2.772 3.887-.268 2.298h-3.063l-1.945-2.298v4.66l-2.325 2.212-2.526-2.212V53.8l-2.19 2.426-3.465.366-.179-2.792 3.107-3.437h-5.61l-2.08-2.255 2.08-2.255h6.057l-3.085-3.65.447-2.964 3.175.408 1.721 2.04v-4.768h.022zm2.616-.064h-.224v.064l-1.43.86h1.43v.45l-1.274.924h1.274v.43l-1.274.858h1.274v.408l-1.319.88h1.32v2.299h.223v-2.32h1.296l-1.296-.837v-.451h1.341l-1.341-.86v-.429h1.341l-1.341-.923v-.43h1.185l-1.185-.816v-.107zm-5.566 3.801H9.053v1.224h.827v.945h.828v1.031h1.028v-1.224h-.85V41.6h-.827v-.945h.023zm11.244.322h-1.029v1.031h-.849v.945h-.827v1.224h1.05v-.945h.828v-1.03h.85v-1.225h-.023zm-4.74 4.231c-.066-.709-.692-1.246-1.385-1.181a1.308 1.308 0 0 0-1.185 1.396c.045.472.604 1.396 1.006 1.997l-.022.022c-.38-.645-1.051-1.718-1.498-1.933a1.293 1.293 0 0 0-1.721.601 1.274 1.274 0 0 0 .603 1.718c.402.194 1.408.194 2.124.15a.16.16 0 0 0 .045.086l.044.043c-.76-.021-1.945.022-2.347.28a1.27 1.27 0 0 0-.38 1.782c.38.602 1.185.773 1.788.387.447-.28 1.096-1.46 1.409-2.062l.022.022c-.358.665-.894 1.782-.85 2.255.068.665.626 1.16 1.275 1.16v1.975h-1.32l1.32.838v.45h-1.341l1.34.86v.43h-1.34l1.34.923v.43H14.33l1.341.923.112-.065 1.408-.837h-1.43v-.43l1.274-.923H15.76v-.43l1.274-.859H15.76v-.408l1.318-.859H15.76v-1.976h-.134.044a1.295 1.295 0 0 0 1.163-1.417c-.045-.473-.671-1.44-1.073-2.04l.022-.022c.38.623 1.095 1.761 1.565 1.976.648.3 1.408.021 1.721-.623a1.302 1.302 0 0 0-.626-1.718c-.402-.172-1.386-.172-2.101-.129 0-.043 0-.086-.023-.107.76 0 1.856-.065 2.236-.301.581-.387.76-1.203.358-1.783a1.294 1.294 0 0 0-1.789-.365c-.425.28-1.028 1.375-1.341 1.998l-.022-.022c.357-.709.871-1.74.827-2.212zm10.507 2.663l-1.185-1.181v1.117h-.58l-1.186-.988v.988h-.558l-1.096-.988v.988h-.536l-1.118-1.01v1.01h-3.241l-.023.086 3.242.043v1.073l1.14-1.052h.514v1.074l1.14-1.074h.514v1.052l1.207-1.052h.559v.924l1.207-1.01zM7.02 46.754l-1.207 1.053h-.559v-.924l-1.185 1.031 1.185 1.181v-1.117h.559l1.207.989v-.989h.559l1.095.989v-.989h.537l1.117 1.01v-1.01h2.392l-.178-.085-2.191-.022v-1.074l-1.14 1.074h-.514v-1.074l-1.14 1.074H7.04v-1.117h-.02zm12.653 5.305h-1.029v1.203h.805v.945h.827v1.03h1.028v-1.224h-.849v-1.03h-.782v-.924zm-8.584.3H10.06v1.032h-.827v.945h-.827v1.224h1.028v-.945h.828v-1.031h.827V52.36z" fill="#F25000"/><path d="M11.02 36.08l1.454 1.482v2.449l-1.453-1.547v-2.383zm9.143 0v1.955l-1.385 1.976v-2.234l1.386-1.697z" fill="#1938EF"/><path d="M15.514 36.854h.134v.107l-.134-.107zm-.09 0h.09l-.09.064v-.064z" fill="#3123B7"/><path d="M15.424 36.918l.09-.064.134.107v.816h-.224v-.859z" fill="#3123B7"/><path d="M13.994 37.777l1.43-.859v.86h-1.43zm1.654-.816l1.185.816h-1.185v-.816z" fill="#fff"/><path d="M15.424 37.777h.224v.43l-.112-.086-.112.086v-.43z" fill="#3123B7"/><path d="M15.424 38.207l.112-.086.112.086v.945h-.224v-.945z" fill="#3123B7"/><path d="M15.648 38.207l1.341.945h-1.341v-.945zm-1.52.945l1.296-.945v.945h-1.296z" fill="#fff"/><path d="M15.424 39.152h.224v.43l-.112-.087-.112.086v-.43z" fill="#3123B7"/><path d="M15.424 39.581l.112-.086.112.086v.838h-.224v-.838z" fill="#3123B7"/><path d="M15.648 39.581l1.341.838h-1.341v-.838zm-1.52.838l1.296-.838v.838h-1.296z" fill="#fff"/><path d="M15.424 40.419h.224v.45l-.134-.085-.09.064v-.43z" fill="#3123B7"/><path d="M9.031 40.655h1.05v.945l-.223.28h-.827v-1.225z" fill="#003E89"/><path d="M15.424 40.848l.09-.064.134.086v.837h-.224v-.859z" fill="#3123B7"/><path d="M15.424 40.848v.86h-1.319l1.32-.86zm.224.022l1.319.837h-1.32v-.837z" fill="#fff"/><path d="M20.297 40.977h1.029v1.203h-.85l-.178-.172v-1.03zm-10.215.623h.805v1.03l-.202.194h-.827v-.945l.224-.279z" fill="#003E89"/><path d="M15.424 41.707v2.32h.246v-2.32h-.246z" fill="#3123B7"/><path d="M19.448 42.008h.85l.178.172v1.03h-.804l-.224-.279v-.923zm-8.561.622h.85v1.203h-1.052v-1.009l.202-.193zm7.756.301h.805l.224.28v.945h-1.029v-1.224z" fill="#003E89"/><path d="M3.867 42.953h3.398l1.789 2.148h-3.42l-1.767-2.148zm20.007.408l3.309-.408-1.945 2.148h-3.04l1.676-1.74z" fill="#1938EF"/><path d="M15.2 44.027a1.272 1.272 0 0 1 1.387 1.181c.044.473-.47 1.503-.85 2.17l-.178-.151a.277.277 0 0 0-.313 0l-.224.193c-.402-.601-.961-1.546-1.006-1.997-.067-.709.47-1.332 1.185-1.396zm1.9 1.374a1.295 1.295 0 0 1 1.79.365 1.283 1.283 0 0 1-.358 1.783c-.38.258-1.476.3-2.236.3 0-.02-.022-.02-.045-.042l-.491-.408c.313-.623.916-1.718 1.34-1.998zm-5.32.709a1.275 1.275 0 0 1 1.722-.601c.447.214 1.118 1.288 1.498 1.932l-.447.366c-.068.043-.068.107-.045.171-.715.043-1.721.043-2.124-.15-.626-.3-.894-1.074-.603-1.718z" fill="#003E89"/><path d="M25.909 46.69l1.184 1.181-1.184 1.031v-.924h.804v-.193h-.804V46.69zM5.812 47.807l1.207-1.053v1.074l-1.207-.021zm1.721.021l1.14-1.074v1.096l-1.14-.022zm1.655.022l1.14-1.074v1.095l-1.14-.021zm11.646-1.074l1.118 1.01h-1.118v-1.01zm1.654.021l1.096.988h-1.096v-.988zm1.654 0l1.185.988h-1.185v-.988zM4.068 47.914l1.185-1.03v.923l-.805-.022v.194h.805v1.116l-1.185-1.18zm11.2-.666a.278.278 0 0 1 .313 0l.179.15c-.18.344-.335.602-.335.602s-.157-.215-.38-.558l.223-.194zm.492.151l.491.408.045.043c-.425 0-.76-.022-.76-.022l.224-.43zm-.738.043c.223.3.402.536.402.536s-.134.215-.29.537l-.023-.021a7.45 7.45 0 0 0 .18-.365s-.27-.022-.65-.022l-.044-.043c-.022-.021-.044-.043-.044-.086.447-.021.782-.043.782-.043s-.157-.193-.313-.493z" fill="#fff"/><path d="M14.575 47.807l.447-.365c.156.279.268.494.268.494s-.335.021-.782.043c-.022-.065 0-.13.067-.172zm9.567-.022h1.185l.134.108-.111.086-1.208-.022v-.172zm-3.308.129l1.118.022-1.118 1.052v-1.074zm1.654.021l1.14.022-1.14 1.052v-1.074z" fill="#fff"/><path d="M24.142 47.957l1.208.021-1.208 1.031v-1.052z" fill="#fff"/><path d="M16.319 47.957c.715-.043 1.698-.064 2.1.129.65.3.94 1.074.627 1.718-.29.644-1.073.923-1.722.623-.469-.215-1.184-1.332-1.564-1.976l.47-.408c.066 0 .088-.043.088-.086z" fill="#003E89"/><path d="M9.21 47.978h1.118v1.01l-1.118-1.01zm-1.632 0h1.095v.989l-1.095-.989zm-1.766 0h1.207v.989l-1.207-.989zm9.702.065s.335-.043.805-.064c0 .043-.023.064-.067.107l-.47.408c-.156-.28-.268-.451-.268-.451z" fill="#fff"/><path d="M12.272 48.386c.403-.257 1.588-.279 2.348-.279l.469.387c-.313.601-.961 1.782-1.408 2.062a1.296 1.296 0 0 1-1.789-.387c-.38-.601-.223-1.417.38-1.782z" fill="#003E89"/><path d="M15.09 48.494l-.47-.387c.38 0 .648.022.648.022s-.067.15-.179.365zm.312-.516s.157.194.358.494l-.18.15a.278.278 0 0 1-.312 0l-.157-.128c.157-.3.291-.516.291-.516z" fill="#fff"/><path d="M15.559 48.644l.178-.15c.403.58 1.029 1.568 1.073 2.04a1.295 1.295 0 0 1-1.162 1.418h-.157a1.286 1.286 0 0 1-1.274-1.16c-.045-.494.492-1.59.85-2.255l.156.129c.112.043.268.043.335-.022z" fill="#003E89"/><path d="M5.633 50.856h3.42l-1.788 1.74H3.867l1.766-1.74zm16.565.344h3.375l1.163 1.74h-2.862l-1.676-1.74z" fill="#1938EF"/><path d="M15.626 51.93h.134v1.976h-.246V51.93h.112z" fill="#3123B7"/><path d="M18.643 52.06h1.029v.923l-.224.279h-.805v-1.203zm-8.606.3h1.05v1.224h-.849l-.2-.193V52.36z" fill="#003E89"/><path d="M19.672 52.983h.804v1.03l-.178.194h-.85v-.945l.224-.28zM9.21 53.39h.827l.201.194v1.03h-.827l-.201-.278v-.945z" fill="#003E89"/><path d="M15.782 53.906h1.296l-1.296.88v-.88z" fill="#fff"/><path d="M15.536 53.906h.246v.88l-.112.065-.134-.107v-.838z" fill="#3123B7"/><path d="M14.217 53.906h1.32v.838l-1.32-.838z" fill="#fff"/><path d="M20.476 54.013h.85v1.224h-1.029v-1.03l.18-.194zm-12.093.323h.827l.201.279v.923H8.383v-1.202z" fill="#003E89"/><path d="M15.536 54.744l.134.107.112-.064v.408h-.246v-.451z" fill="#3123B7"/><path d="M15.782 55.195h1.274l-1.274.859v-.86z" fill="#fff"/><path d="M15.536 55.195h.246v.859l-.134.064-.112-.064v-.86z" fill="#3123B7"/><path d="M14.195 55.195h1.341v.859l-1.341-.86z" fill="#fff"/><path d="M12.474 55.495v2.792l-1.453 1.117v-2.32l1.453-1.589z" fill="#1938EF"/><path d="M15.648 56.118l.134-.064v.43h-.246v-.43l.112.064z" fill="#3123B7"/><path d="M15.782 56.483h1.274l-1.274.924v-.924z" fill="#fff"/><path d="M15.536 56.483h.246v.924l-.134.086-.112-.086v-.924z" fill="#3123B7"/><path d="M14.195 56.483h1.341v.924l-1.341-.924z" fill="#fff"/><path d="M18.778 56.548l1.386.902.424 2.641-1.81-1.653v-1.89z" fill="#1938EF"/><path d="M15.648 57.493l.134-.086v.43h-.246v-.43l.112.086z" fill="#3123B7"/><path d="M15.782 57.836h1.43l-1.408.86-.022-.044v-.816z" fill="#fff"/><path d="M15.536 57.836v.816h.246v-.816h-.246z" fill="#3123B7"/><path d="M14.351 57.836h1.185v.816h.246l.022.043-.134.065-1.319-.924z" fill="#fff"/><path fill-rule="evenodd" clip-rule="evenodd" d="M2.49 48.086l2.154-2.362h5.896L7.572 42.21l.47-3.115 3.328.428 1.55 1.837v-4.488l2.665-2.515 2.41 2.518v4.758l1.956-2.177 3.58-.36.235 3.034-3.246 3.593h5.967l2.556 2.162-2.55 2.562h-5.894l2.676 3.774-.284 2.433h-3.216l-1.78-2.103v4.403l-2.41 2.315-2.664-2.312V54.13l-2.024 2.262-3.624.315-.212-2.946 2.978-3.314H4.644l-2.155-2.362zm2.255 2.148h5.782L7.29 53.835l.19 2.639 3.307-.287 2.357-2.635v5.31l2.433 2.112 2.195-2.108v-4.919l2.11 2.493h2.909l.252-2.163-2.867-4.043h6.221l2.323-2.335-2.317-1.96H20.03l3.506-3.882-.212-2.723-3.261.328-2.291 2.549v-5.25l-2.195-2.294-2.433 2.296v5.005l-1.892-2.243-3.02-.388-.424 2.812 3.201 3.79H4.745l-1.959 2.147 1.96 2.148z" fill="#1938EF"/><path fill-rule="evenodd" clip-rule="evenodd" d="M3.636 42.846H7.32l1.967 2.362H5.579l-1.943-2.362zm2.051 2.147h3.134L7.21 43.06H4.098l1.59 1.933zm-2.085 7.71l1.984-1.954h3.735l-2.01 1.954H3.603zm.53-.214h3.086l1.568-1.525H5.68l-1.548 1.525zm6.778 7.138v-2.583l1.676-1.834v3.129l-1.677 1.288zm.223-.446l1.23-.945V55.78l-1.23 1.345v2.056zm7.533-.697v-2.139l1.6 1.042.483 2.999-2.083-1.902zm.223-.093l1.539 1.406-.368-2.285-1.17-.762v1.642zm3.053-7.298h3.692l1.306 1.954h-3.114l-1.884-1.954zm1.981 1.74h2.608l-1.019-1.526h-3.058l1.47 1.525zm-1.981-7.625l1.878-1.948 3.64-.45-2.171 2.398h-3.347zm.512-.215h2.733l1.719-1.898-2.977.368-1.475 1.53zm-3.788-4.631V37.74l1.61-1.97v2.298l-1.61 2.294zm.223-.703l1.163-1.657v-1.61l-1.163 1.422v1.845zm-7.979-1.153V35.81l1.676 1.71v2.77l-1.677-1.784zm.223-.083l1.23 1.309v-2.127l-1.23-1.254v2.072z" fill="#1938EF"/><path fill-rule="evenodd" clip-rule="evenodd" d="M.386 54.372l3.032-3.5-2.78-2.778 2.8-3.016-3.02-4.073 5.28.278.467-3.57h2.553v-5.797l3.74 3.686 2.999-3.376 3.303 3.367 2.7-3.162v5.61l3.554-.365v3.798l5.492.044-1.857 3.407 3.348 2.996-3.564 3.007 2.133 3.73h-5.552v3.629H21.85l.15 5.479-3.22-3.528-3.238 3.605-3.088-3.313-3.735 3.378v-5.621H5.371l-.068-3.869-4.917-.046zm1.387-12.65l2.523 3.4-2.744 2.956 2.765 2.763-2.512 2.9 4.158.039.067 3.863h3.36v4.774l3.105-2.808 3.037 3.259 3.245-3.611L21.279 62l-.119-4.357h3.184v-3.63h5.088l-1.846-3.228 3.411-2.878-3.18-2.846 1.586-2.907-5.06-.042v-3.719l-3.554.365v-4.526l-1.994 2.336-3.314-3.377-2.991 3.367-3.101-3.057v4.856H6.756l-.471 3.602-4.512-.237z" fill="#1938EF"/><path fill-rule="evenodd" clip-rule="evenodd" d="M5.521 47.893l.219-.168 1.391-1.213v2.687l-1.39-1.138-.22-.168zm.358 0l.004.003 1.024.838v-1.737l-1.022.892-.006.004z" fill="#1938EF"/><path fill-rule="evenodd" clip-rule="evenodd" d="M4.337 48.086v-.411l.918.024h.56l1.205.022h.516l1.139.021h.515l1.139.022h.001l2.238.022.625.3H4.337z" fill="#1938EF"/><path fill-rule="evenodd" clip-rule="evenodd" d="M3.908 47.909l1.457-1.268v2.72L3.908 47.91zm1.234.92v-1.704l-.913.794.913.91zm2.158-.928l.155-.15 1.33-1.252v2.716l-1.28-1.155-.206-.159zm.334-.017l.928-.874v1.708l-.91-.82-.018-.014zm1.316.042l.16-.153 1.33-1.253v2.716l-1.302-1.175-.188-.135zm.34-.023l.926.837v-1.71l-.926.873zm4.506-8.644l1.56-1.137.18-.139.18.138 1.615 1.138h-3.535zm.664-.215h2.188l-1.068-.752-.044-.034-.044.034-1.032.752zm-.856-1.159l1.757-1.055.156-.113.2.16 1.463 1.008h-3.576zm.78-.215h2.101l-.905-.624-.07-.055-.022.016-1.105.663zm-.623 2.856l1.597-1.031.178-.137.178.136 1.652 1.032h-3.605zm.733-.215h2.118l-1.03-.643-.046-.035-.045.035-.997.643zm-.752 1.504l1.617-1.054.151-.109.2.128 1.629 1.035h-3.597zm.727-.215h2.126l-1.01-.64-.067-.045-.029.02-1.02.665zm9.561 7.649v-2.687l1.37 1.142.238.19-.216.167-1.391 1.188zm.224-.479l1.024-.873.007-.006-.03-.025-1-.833v1.737z" fill="#1938EF"/><path fill-rule="evenodd" clip-rule="evenodd" d="M17.434 48l.067-.322h9.324v.408h-1.477l-1.207-.021h-.515l-1.139-.022h-.537l-1.117-.021-3.399-.023z" fill="#1938EF"/><path fill-rule="evenodd" clip-rule="evenodd" d="M25.797 49.144v-2.72l1.457 1.452-1.457 1.268zm.223-.484l.913-.794-.913-.91v1.704zm-3.643.601V46.55l1.285 1.16.192.184-.148.141-1.33 1.227zm.223-.504l.937-.865-.031-.03-.906-.817v1.712zm-1.878.486v-2.715l1.308 1.18.181.175-.186.134-1.303 1.226zm1.15-1.383l-.926.872v-1.708l.926.836zm-8.025 8.516h3.543l-1.543 1.118-.205.132-.173-.134-1.622-1.116zm.696.215l1.06.73.051.039.064-.04 1.005-.73h-2.18zm-.535 1.138h3.59l-1.738 1.06-.2.096-1.652-1.156zm1.673.905l.068-.032 1.08-.658h-2.134l.986.69zm-1.855-3.547h3.584l-1.57 1.06-.197.093-.167-.096-1.65-1.057zm1.77.876l.057.033.072-.035.977-.659h-2.138l1.032.66zm-1.751-2.164h3.585l-1.587 1.078-.183.105-.19-.152-1.625-1.031zm.744.214l1.014.644.078.063.04-.023 1.006-.684h-2.138zm-2.602-3.901a1.18 1.18 0 0 0 1.632.354c.096-.06.211-.174.338-.331.125-.155.255-.344.383-.545a16.098 16.098 0 0 0 .76-1.364 8.1 8.1 0 0 0-.48-.011c-.38 0-.862.005-1.298.042a4.957 4.957 0 0 0-.596.082 1.25 1.25 0 0 0-.39.136 1.204 1.204 0 0 0-.349 1.637zm3.28-1.983l.01-.107h-.003l-.01-.001-.036-.003A9.375 9.375 0 0 0 14.62 48c-.38 0-.871.005-1.318.043-.223.02-.438.047-.624.086-.184.04-.35.093-.468.168l-.001.001a1.414 1.414 0 0 0-.412 1.927l.001.002a1.41 1.41 0 0 0 1.944.418c.128-.08.261-.217.392-.379.132-.164.267-.36.397-.564a16.343 16.343 0 0 0 .827-1.503l.01-.02.002-.006v-.001l-.102-.043zm0 0l.104.042.06-.137-.154-.012-.01.107z" fill="#1938EF"/><path fill-rule="evenodd" clip-rule="evenodd" d="M11.882 46.156a1.169 1.169 0 0 0 .55 1.575l.002.001c.178.086.508.134.9.153.386.018.812.008 1.167-.014h.001c.223-.01.413-.021.547-.03.015 0 .029 0 .042-.002a20.96 20.96 0 0 0-.19-.346c-.189-.32-.449-.746-.717-1.118a5.133 5.133 0 0 0-.396-.492 1.272 1.272 0 0 0-.336-.278h-.001a1.161 1.161 0 0 0-1.569.55zm3.386 1.78l.008.107h-.015l-.041.003a37.386 37.386 0 0 1-.706.04c-.36.021-.794.032-1.19.013-.39-.018-.764-.067-.989-.174a1.38 1.38 0 0 1-.655-1.86 1.389 1.389 0 0 1 1.873-.652c.13.063.267.183.401.326.136.146.277.324.414.514.274.38.538.813.729 1.136l.001.002c.079.14.146.264.194.353l.056.105.015.029.004.007v.002l-.099.049zm0 0l.1-.049.075.144-.167.012-.008-.107z" fill="#1938EF"/><path fill-rule="evenodd" clip-rule="evenodd" d="M15.211 44.155a1.184 1.184 0 0 0-1.084 1.28c.01.097.05.23.113.388.063.157.148.333.245.515.193.363.431.746.63 1.045.112.161.208.3.275.4l.006.01.009-.017c.06-.106.144-.255.232-.425l.002-.002v-.002c.19-.33.41-.751.58-1.146.083-.198.153-.387.2-.554.046-.17.066-.308.057-.408v-.003a1.162 1.162 0 0 0-1.265-1.08zM15.402 48l-.094.058-.007-.01-.02-.032a37.071 37.071 0 0 0-.351-.515l-.002-.001a12.927 12.927 0 0 1-.642-1.065 5.734 5.734 0 0 1-.255-.534 1.73 1.73 0 0 1-.126-.447c-.073-.766.507-1.443 1.286-1.513a1.382 1.382 0 0 1 1.507 1.28 1.41 1.41 0 0 1-.063.48 4.82 4.82 0 0 1-.21.581c-.172.405-.398.832-.589 1.167a12.436 12.436 0 0 1-.33.593l-.005.009-.002.003-.097-.054zm0 0l.097.054-.093.152-.098-.148.094-.058z" fill="#1938EF"/><path fill-rule="evenodd" clip-rule="evenodd" d="M15.436 47.78l.1.048-.007.107-.168-.01.075-.145zm.223-.429l-.223.43.1.047-.007.107h.004l.011.001a7.13 7.13 0 0 0 .208.01c.138.006.33.011.544.011.382 0 .85-.01 1.272-.054.211-.022.413-.052.588-.094a1.37 1.37 0 0 0 .44-.172c.63-.42.822-1.279.387-1.929a1.409 1.409 0 0 0-1.945-.395 1.75 1.75 0 0 0-.37.365 5.963 5.963 0 0 0-.375.538c-.246.39-.476.822-.634 1.135zm.053.379a13.886 13.886 0 0 0 .584.013c.379 0 .838-.012 1.248-.054a4.3 4.3 0 0 0 .558-.089c.163-.039.287-.086.365-.139a1.178 1.178 0 0 0 .328-1.636 1.18 1.18 0 0 0-1.63-.335h-.001c-.091.06-.2.17-.32.319a5.77 5.77 0 0 0-.36.518 14.1 14.1 0 0 0-.624 1.118v.002l-.148.283z" fill="#1938EF"/><path fill-rule="evenodd" clip-rule="evenodd" d="M15.339 47.925l.167-.01.004-.001h.011l.044-.004a36.304 36.304 0 0 0 .743-.06h.004c.359-.022.788-.038 1.179-.025.384.014.753.056.978.164a1.389 1.389 0 0 1 .679 1.859c-.316.699-1.166 1.003-1.872.676a1.514 1.514 0 0 1-.423-.333 5.47 5.47 0 0 1-.436-.529c-.288-.39-.563-.834-.754-1.157a9.793 9.793 0 0 1-.245-.427l-.003-.006v-.002h-.001l.1-.049-.1.048-.075-.144zm.353.192c.04.072.096.167.164.28v.001c.19.32.462.758.744 1.14.14.191.283.367.417.507.137.143.258.24.355.285h.001c.59.274 1.305.02 1.57-.569l.001-.003a1.178 1.178 0 0 0-.573-1.576h-.001c-.177-.085-.501-.128-.887-.142-.38-.013-.8.003-1.156.024a37.004 37.004 0 0 1-.635.053z" fill="#1938EF"/><path fill-rule="evenodd" clip-rule="evenodd" d="M14.373 50.76a1.176 1.176 0 0 0 1.163 1.063h.129a1.187 1.187 0 0 0 1.056-1.3 1.495 1.495 0 0 0-.122-.406 5.569 5.569 0 0 0-.267-.533c-.21-.375-.465-.764-.665-1.052l-.001-.001c-.1-.149-.188-.27-.251-.356l-.001.002a7.059 7.059 0 0 0-.201.384l-.001.002-.001.002c-.178.331-.4.768-.571 1.182a5.01 5.01 0 0 0-.206.583 1.29 1.29 0 0 0-.06.43zm1.03-2.782l.087-.065h.001l.002.002.005.007a9.369 9.369 0 0 1 .098.128c.065.087.156.212.257.364.202.291.461.686.676 1.068.107.191.204.38.277.554.073.17.125.333.138.467a1.404 1.404 0 0 1-1.263 1.534h-.145a1.395 1.395 0 0 1-1.385-1.256v-.001a1.51 1.51 0 0 1 .066-.504c.052-.188.127-.397.215-.608.175-.423.4-.866.58-1.2a7.281 7.281 0 0 1 .288-.534l.005-.008v-.002h.001l.096.054zm0 0l-.097-.055.084-.134.1.124-.088.066z" fill="#1938EF"/><path fill-rule="evenodd" clip-rule="evenodd" d="M14.652 47.906c-.017.018-.023.04-.016.06l.006.017v.015a.243.243 0 0 0 .012.012l.042.04.47.387.021.021.15.124a.163.163 0 0 0 .174 0l.172-.145.022-.02.47-.409a1.013 1.013 0 0 0 .032-.033.154.154 0 0 0-.005-.043l-.027-.025-.491-.408-.023-.022-.172-.145a.163.163 0 0 0-.173 0l-.664.574zm-.233.112a.268.268 0 0 1 .077-.266l.002-.002.45-.388.227-.197.004-.003a.393.393 0 0 1 .447 0l.003.003.185.155.022.021.492.408.06.058.008.016a.33.33 0 0 1 .034.154v.002c0 .088-.054.14-.092.176l-.007.007-.002.002-.47.408-.023.022-.185.155-.003.003a.393.393 0 0 1-.447 0l-.003-.002-.162-.134-.023-.022-.47-.386-.047-.046-.002-.002a.219.219 0 0 1-.075-.142zm-6.148 7.628v-1.418h.827v-.945h.827v-1.03H11.2v1.438h-.849v1.031h-.827v.924H8.27zm.224-.215h.804v-.924h.828v-1.009h-.805v.945h-.827v.988zm1.654-1.954h.827v-1.01h-.827v1.01zM8.92 41.987v-1.44h1.274v.946h.804v1.03h.85v1.418h-1.275v-1.01h-.827v-.944H8.92zm.223-.215h.827v.945h.805v-1.01H9.97v-.945h-.827v1.01zm1.654.966v.988h.827v-.988h-.827zm7.735 10.632v-1.418h1.252v.923h.804v1.031h.85v1.439h-1.252v-1.03h-.85v-.946h-.804zm.223-.216h.805v.945h.805v-1.01h-.805v-.923h-.805v.988zm1.654.967v1.01h.805v-1.01h-.805zm-1.877-9.858v-1.439h.804v-.923h.85V40.87h1.252v1.417h-.85v1.031h-.805v.945h-1.251zm.223-.215h.805v-.945h.805v-.988h-.805v.924h-.805v1.01zm1.654-1.976h.805v-.987h-.805v.987z" fill="#1938EF"/><path d="M14.91 47.12a.529.529 0 0 1 .76 0l.358.365c.201.214.201.558 0 .751l-.357.365a.529.529 0 0 1-.76 0l-.358-.365c-.201-.214-.201-.558 0-.751l.357-.365z" fill="#F25000"/><path fill-rule="evenodd" clip-rule="evenodd" d="M14.635 48.164l.358.365a.414.414 0 0 0 .594 0l.002-.001.359-.367c.156-.15.162-.428-.002-.604l-.356-.363c-.182-.174-.442-.167-.597-.003l-.001.002-.36.366v.002c-.155.149-.161.426.003.603zm-.163-.754c-.245.237-.24.645-.002.898l.358.366a.644.644 0 0 0 .925 0l.355-.363c.246-.237.24-.645.003-.898l-.36-.368-.002-.002c-.264-.254-.673-.26-.921.004l-.356.363z" fill="#1938EF"/><path d="M20.901.773v9.471l2.057-2.083 1.14.065.29 1.073-1.832 1.998h8.651l-3.711 4.059-1.833-.043V13.4h-3.666l-.492-.558h-2.258l-.022-5.734h-1.721l-1.498-1.59L20.9.774zm-9.478.065l4.583 4.682-.693 1.589h-1.945v5.734h-1.185l-.536.558H7.69v1.912H4.762L.827 11.662h9.009l-1.542-1.89.2-1.332 1.342.043 1.587 1.59V.838z" fill="#1938EF"/><path d="M16.006 5.52l1.497 1.589h1.722l.022 5.734h-5.88V7.109h1.946l.693-1.59z" fill="#fff"/><path d="M20.901 6.207l5.432.064v5.026h-3.777l1.833-1.998-.291-1.073-1.14-.065-2.057 2.083V6.207zm-14.552.172h5.074v3.694l-1.587-1.59-1.341-.043-.201 1.332 1.542 1.89H6.35V6.379zm12.898 6.464h2.258l.492.558 1.676 1.933v1.933l-1.453 1.954-.648.86h-9.366l-.738-.86-1.654-1.954v-1.933l1.855-1.933.537-.558h7.041zm-2.28 2.341a.333.333 0 0 0-.47 0l-1.05 1.052a.328.328 0 0 0 0 .473l1.05 1.052a.333.333 0 0 0 .47 0l1.05-1.052a.328.328 0 0 0 0-.473l-1.05-1.052z" fill="#F25000"/><path d="M21.997 13.401h3.666v1.912l1.833.043.044 1.89h-1.877v1.976H22.22l1.453-1.933v-1.955l-1.676-1.933zm-14.307 0h3.957L9.79 15.334v1.955l1.654 1.932H7.69v-1.975H4.76v-1.933h2.93V13.4z" fill="#fff"/><path d="M16.498 15.184a.333.333 0 0 1 .47 0l1.05 1.052a.328.328 0 0 1 0 .473l-1.05 1.052a.333.333 0 0 1-.47 0l-1.051-1.052a.328.328 0 0 1 0-.473l1.05-1.052zm9.165 2.062h1.877l3.622 4.08h-8.607l1.834 1.955-.56 1.03-.96-.064-1.968-1.933v8.849l-4.404-4.274 1.096-1.482h1.632v-5.305h2.347l.648-.88h3.443v-1.976z" fill="#1938EF"/><path d="M4.762 17.246H7.69v1.976h3.755l.738.88h1.409v5.305h1.676l1.23 1.482-5.075 4.274v-8.634l-1.498 1.997-1.363-.086-.268-1.16 1.542-1.954H.827l3.935-4.08z" fill="#1938EF"/><path d="M13.591 20.102h5.634v5.305h-1.632l-1.096 1.482-1.23-1.482h-1.676v-5.305z" fill="#fff"/><path d="M22.556 21.326h3.643v4.918h-5.298v-3.93l1.968 1.933.96.064.56-1.03-1.833-1.955zm-16.207 0h3.487l-1.542 1.955.268 1.16 1.364.085 1.497-1.997V26.2H6.35v-4.875z" fill="#F25000"/><path fill-rule="evenodd" clip-rule="evenodd" d="M15.684 16.48l.002.003 1.046 1.048 1.046-1.048.002-.002s.003-.002.003-.009c0-.006-.003-.008-.003-.008l-.002-.002-1.032-1.034a.04.04 0 0 0-.014-.003.039.039 0 0 0-.014.003l-1.032 1.034-.002.002s-.003.002-.003.008c0 .007.003.009.003.009zm-.477-.469a.64.64 0 0 0 0 .923l1.05 1.052.003.003a.678.678 0 0 0 .944 0l.002-.003 1.051-1.052a.64.64 0 0 0 0-.923l-1.061-1.063-.015-.012a.728.728 0 0 0-.898 0l-.015.012-1.061 1.063z" fill="#FBC733"/><path fill-rule="evenodd" clip-rule="evenodd" d="M-.003 11.34h6.016V6.056h5.075V.025l4.924 5.03L21.236-.01v5.898l5.433.065v5.022h5.278l-4.113 4.499.039 1.65 4.015 4.524h-5.354v4.918h-5.297v5.38L16.48 27.33l-5.393 4.542v-5.35H6.013v-4.875H.06l4.367-4.529v-1.67l-4.429-4.11zm1.598 9.664h5.089v4.875h5.074v4.573l4.756-4.006 4.052 3.933v-4.457h5.298v-4.918h4.571l-3.227-3.637-.05-2.13 3.308-3.618h-4.468v-5.03l-5.432-.064v-4.97l-4.567 4.428-4.24-4.333V6.7H6.683v5.284H1.657l3.44 3.192v2.196l-3.502 3.632z" fill="#FBC733"/><path fill-rule="evenodd" clip-rule="evenodd" d="M6.349 21.004h4.162l-1.857 2.352.18.779.928.058 1.996-2.662v4.67h-.67v-2.674l-1 1.332-1.8-.113-.356-1.541 1.229-1.557H6.349v-.644zm1.006-3.436H4.762v-.645h3.263V18.9h3.42v.645h-4.09v-1.976zm-2.593-1.933v-.644h2.593v-1.912h4.292v.644H8.025v1.912H4.762zm1.587-3.651v-.644h2.798L7.94 9.862l.265-1.753 1.777.057 1.105 1.105V6.38h.67v4.495L9.688 8.8l-.905-.03-.137.91 1.879 2.303H6.349zm14.217 14.26v-4.72l2.453 2.41.615.041.35-.645-2.182-2.326h4.397v.644h-2.89l1.484 1.583-.767 1.416-1.308-.087-1.482-1.456v3.14h-.67zm4.761-7.344H22.22v.644h3.778v-1.976h1.542v-.645h-2.213V18.9zm-3.33-5.82h4v1.918l1.507.036-.017.644-2.16-.051v-1.904h-3.33v-.644zm-1.431-2.028V6.207h.67v3.23l1.586-1.606 1.539.087.397 1.466-1.46 1.59h3.035v.645h-4.52l2.206-2.404-.184-.682-.741-.042-2.528 2.561z" fill="#FBC733"/><path fill-rule="evenodd" clip-rule="evenodd" d="M9.456 17.404v-2.196l2.58-2.687h9.624l.594.674 1.754 2.023v2.175l-1.515 2.016-.748 1.015h-9.723l-.837-1-1.73-2.02zm.67-.23l1.58 1.844.637.762h9.055l.55-.746 1.39-1.85v-1.733L21.74 13.61l-.001-.002-.39-.443h-9.02l-.436.455-1.767 1.84v1.713z" fill="#FBC733"/><path fill-rule="evenodd" clip-rule="evenodd" d="M13.033 12.843V6.787h2.057l.81-1.86 1.752 1.86h1.907l.023 6.055-.67.002-.021-5.413h-1.536L16.11 6.11l-.575 1.32h-1.833v5.412h-.67zm.223 12.886v-5.627h.67v4.982h1.503l1.053 1.27.938-1.27h1.47v-4.982h.67v5.627h-1.794l-1.253 1.695-1.407-1.695h-1.85z" fill="#FBC733"/><path d="M16.028 14.132a1.042 1.042 0 0 1 1.408 0l1.81 1.675c.38.365.38.945 0 1.31l-1.81 1.675a1.042 1.042 0 0 1-1.408 0l-1.81-1.675a.895.895 0 0 1 0-1.31l1.81-1.675z" fill="#1938EF"/><path fill-rule="evenodd" clip-rule="evenodd" d="M14.452 16.887l1.81 1.675.003.002c.25.24.685.24.934 0l.002-.002 1.81-1.675a.582.582 0 0 0 0-.85l-1.806-1.672c-.277-.25-.695-.241-.94-.006l-.002.002-1.81 1.675a.582.582 0 0 0 0 .85zm-.472.457a1.208 1.208 0 0 1 0-1.765l.002-.002 1.811-1.676c.515-.492 1.347-.482 1.873-.004l.002.001 1.814 1.679.002.002c.511.49.511 1.275 0 1.765l-.002.003-1.811 1.675a1.387 1.387 0 0 1-1.878 0l-1.81-1.675-.003-.003z" fill="#FBC733"/><path d="M15.939 8.698a.542.542 0 0 1 .737 0l.94.88a.467.467 0 0 1 0 .688l-.94.88a.542.542 0 0 1-.737 0l-.94-.88a.467.467 0 0 1 0-.688l.94-.88z" fill="#F25000"/><path fill-rule="evenodd" clip-rule="evenodd" d="M15.157 10.113l.94.881a.31.31 0 0 0 .421 0l.002-.001.938-.88a.258.258 0 0 0 0-.382l-.94-.881a.312.312 0 0 0-.421 0l-.002.002-.938.88a.258.258 0 0 0 0 .381zm-.315.305a.675.675 0 0 1 0-.991l.002-.002.938-.88a.772.772 0 0 1 1.051 0l.94.882a.676.676 0 0 1 0 .99l-.002.002-.938.88a.772.772 0 0 1-1.051 0l-.94-.881z" fill="#FBC631"/><path d="M15.939 21.477a.542.542 0 0 1 .737 0l.94.88a.467.467 0 0 1 0 .687l-.94.88a.542.542 0 0 1-.737 0l-.94-.88a.467.467 0 0 1 0-.687l.94-.88z" fill="#F25000"/><path fill-rule="evenodd" clip-rule="evenodd" d="M15.157 22.892l.94.881a.31.31 0 0 0 .421 0l.002-.002.938-.88a.258.258 0 0 0 0-.381l-.94-.882a.312.312 0 0 0-.421 0l-.002.002-.938.88a.258.258 0 0 0 0 .382zm-.315.304a.676.676 0 0 1 0-.99l.002-.003.938-.88a.772.772 0 0 1 1.051 0l.94.882a.676.676 0 0 1 0 .991l-.002.002-.938.88a.772.772 0 0 1-1.051 0l-.94-.882z" fill="#FBC631"/><path fill-rule="evenodd" clip-rule="evenodd" d="M31.987 22.411l3.08-3.475-2.823-2.777 2.846-3.017-3.07-4.072 5.332.278.49-3.57h2.574v-5.79l3.762 3.661L47.2.294l3.326 3.346L53.209.551l.226 4.949 3.511.021.157 4.016 5.26.022-1.88 3.43 3.394 2.996-3.588 3.007 2.157 3.73h-5.6v3.63h-3.21l.15 5.451-3.272-3.558-3.685 3.133-2.665-2.818-3.748 3.063v-5.271h-3.392l-.067-3.87-4.97-.07zm1.401-12.625l2.564 3.402-2.788 2.954 2.81 2.764-2.553 2.881 4.196.06.067 3.86h3.403v4.522l3.137-2.564 2.656 2.81 3.692-3.14 2.495 2.714-.119-4.342h3.228v-3.63h5.13L59.44 18.85l3.431-2.877-3.222-2.845 1.606-2.928-4.799-.02-.156-4.017-3.508-.022-.177-3.9-2.055 2.367-3.336-3.355-3.014 3.346-3.123-3.04v4.863H38.43l-.494 3.603-4.548-.238z" fill="#fff"/></g><defs><clipPath id="a"><path fill="#fff" transform="rotate(-90 48 48)" d="M0 0h96v64H0z"/></clipPath></defs></svg>