<svg width="24" height="24" viewBox="0 0 24 24" fill="none" xmlns="http://www.w3.org/2000/svg"><path d="M23.063 15.328c.517 0 .937-.42.937-.937V8.297a3.754 3.754 0 0 0-3.75-3.75h-1.423a.937.937 0 0 1-.888-.636l-.283-.833a2.812 2.812 0 0 0-2.663-1.906h-5.99A2.82 2.82 0 0 0 6.36 3.029l-.325.899a.94.94 0 0 1-.882.619H3.75A3.754 3.754 0 0 0 0 8.297v10.781a3.754 3.754 0 0 0 3.75 3.75h16.5a3.754 3.754 0 0 0 3.75-3.75.937.937 0 1 0-1.875 0 1.877 1.877 0 0 1-1.875 1.875H3.75a1.877 1.877 0 0 1-1.875-1.875V8.297c0-1.034.841-1.875 1.875-1.875h1.402a2.82 2.82 0 0 0 2.646-1.857l.324-.9a.94.94 0 0 1 .882-.618h5.99c.4 0 .757.255.887.635l.283.834a2.812 2.812 0 0 0 2.663 1.906h1.423c1.034 0 1.875.841 1.875 1.875v6.094c0 .517.42.937.938.937z" fill="#fff"/><path d="M12.047 7.36a5.866 5.866 0 0 0-5.86 5.859c0 3.23 2.629 5.86 5.86 5.86 3.23 0 5.86-2.63 5.86-5.86 0-3.231-2.63-5.86-5.86-5.86zm0 9.843a3.989 3.989 0 0 1-3.985-3.984 3.989 3.989 0 0 1 3.985-3.985 3.989 3.989 0 0 1 3.984 3.985 3.989 3.989 0 0 1-3.984 3.984z" fill="#fff"/></svg>