<svg width="16" height="16" viewBox="0 0 16 16" fill="none" xmlns="http://www.w3.org/2000/svg"><path d="M15.958 6.125c-.122-.373-.482-.629-.99-.703l-4.142-.601-1.852-3.753C8.747.608 8.392.344 8 .344s-.747.264-.974.724L5.174 4.821l-4.141.601c-.509.074-.87.33-.99.703-.122.373.02.793.387 1.151l2.997 2.92-.708 4.125c-.09.528.064.844.21 1.016.17.202.418.313.7.313.21 0 .435-.061.667-.183L8 13.52l3.704 1.947c.232.122.457.183.668.183.28 0 .53-.11.7-.313.145-.172.3-.488.209-1.016l-.708-4.124 2.997-2.921c.367-.358.509-.778.388-1.15z" fill="#FF5F5F"/></svg>