<svg width="24" height="24" viewBox="0 0 24 24" fill="none" xmlns="http://www.w3.org/2000/svg"><path d="M23.146 19.924h-7.97c-.466 0-.854-.41-.854-.905 0-.495.388-.906.854-.906h7.97c.467 0 .854.41.854.906 0 .495-.387.905-.854.905zm-18.952 0H.839c-.459 0-.839-.41-.839-.905 0-.495.38-.906.839-.906h3.355c.458 0 .838.41.838.906 0 .495-.38.905-.838.905zm4.63-14.037H.854C.387 5.887 0 5.477 0 4.98c0-.495.387-.906.854-.906h7.97c.466 0 .853.411.853.906 0 .495-.387.906-.853.906z" fill="#013F96"/><path d="M13.203 24H6.54c-1.911 0-3.055-1.306-3.055-3.487v-2.536c0-2.18 1.144-3.486 3.055-3.486h6.664c1.911 0 3.055 1.306 3.055 3.486v2.536c0 2.181-1.144 3.487-3.055 3.487zM6.54 16.392c-.989 0-1.389.457-1.389 1.585v2.536c0 1.129.4 1.585 1.389 1.585h6.664c.989 0 1.389-.456 1.389-1.585v-2.536c0-1.128-.4-1.585-1.389-1.585H6.54zM17.461 9.51h-6.664c-1.91 0-3.055-1.307-3.055-3.487V3.487C7.742 1.306 8.886 0 10.797 0h6.664c1.911 0 3.055 1.306 3.055 3.487v2.536c0 2.18-1.144 3.486-3.055 3.486zm-6.664-7.608c-.989 0-1.389.456-1.389 1.585v2.536c0 1.128.4 1.585 1.389 1.585h6.664c.989 0 1.389-.457 1.389-1.585V3.487c0-1.129-.4-1.585-1.389-1.585h-6.664z" fill="#013F96"/></svg>