<svg width="15" height="16" viewBox="0 0 15 16" fill="none" xmlns="http://www.w3.org/2000/svg"><rect x=".111" y=".391" width="14.889" height="14.857" rx="7.429" fill="#fff" fill-opacity=".2"/><g clip-path="url(#a)" fill="#fff"><path d="M7.558 3.93L4.236 5.138v2.685c0 3.033 3.224 3.859 3.256 3.867l.066.016.066-.016c.032-.008 3.255-.834 3.255-3.867V5.138L7.558 3.93zm2.768 3.893c0 2.402-2.328 3.185-2.767 3.31-.424-.125-2.77-.929-2.77-3.31V5.525l2.77-1.005 2.768 1.006v2.298z"/><path d="M6.096 7.623l-.39.391 1.302 1.303 2.41-2.41-.391-.391-2.019 2.018-.912-.911z"/></g><defs><clipPath id="a"><path fill="#fff" transform="translate(4.111 3.39)" d="M0 0h6.889v8.857H0z"/></clipPath></defs></svg>