<svg width="16" height="17" viewBox="0 0 16 17" fill="none" xmlns="http://www.w3.org/2000/svg"><rect y=".391" width="16" height="16" rx="8" fill="#fff" fill-opacity=".2"/><path d="M10.265 10.578a5.529 5.529 0 0 0-.003.14c0 .266.213.266.213.665 0 .398-.319.398-.425.398-.106 0-.425-.133-.425-.93 0-.09.003-.182.009-.273m.192-1.094c.513-1.818 1.838-3.28 1.924-3.28-.25.415-1.018 1.805-1.342 3.28m-4.77 1.25c.008.25.212.258.212.649 0 .398-.319.398-.425.398-.106 0-.425-.133-.425-.93 0-.039 0-.078.002-.117m.199-1.25c.513-1.818 1.839-3.28 1.924-3.28-.25.415-1.018 1.805-1.342 3.28" stroke="#fff" stroke-width=".2" stroke-linecap="round" stroke-linejoin="round"/><path d="M11.75 10.422s-.875-.312-2.5-.312c-.056 0-.108.002-.155.005a.286.286 0 0 0-.147.055.377.377 0 0 0-.11.13.513.513 0 0 0-.036.369c.049.172.073.352.073.534 0 .183-.048 1.094-1 1.094-.346 0-1-.36-1-1.719a.481.481 0 0 0-.077-.265.326.326 0 0 0-.194-.142A2.678 2.678 0 0 0 6 10.11a5.958 5.958 0 0 0-1.75.312" stroke="#fff" stroke-width=".2" stroke-linecap="round" stroke-linejoin="round"/><path d="M7.375 10.578c0-3.281 2.625-6.094 2.75-6.094-.375.625-2 3.282-2 5.938 0 .312.25.312.25.781 0 .469-.375.469-.5.469s-.5-.156-.5-1.094z" stroke="#fff" stroke-width=".2" stroke-linecap="round" stroke-linejoin="round"/></svg>