<svg width="62" height="62" viewBox="0 0 62 62" fill="none" xmlns="http://www.w3.org/2000/svg"><g clip-path="url(#a)"><path d="M59.182 39.454H2.818A2.827 2.827 0 0 1 0 36.636v-31a2.827 2.827 0 0 1 2.818-2.818h56.364A2.827 2.827 0 0 1 62 5.636v31a2.827 2.827 0 0 1-2.818 2.818z" fill="#0E9347"/><path d="M52.136 28.182c-3.24 0-6.2 1.55-7.89 4.086-1.41-.704-2.96-1.268-4.791-1.268-4.932 0-9.018 3.663-9.723 8.454h29.45c1.409 0 2.536-.986 2.818-2.395-.563-4.932-4.79-8.877-9.864-8.877z" fill="#0D8944"/><path d="M53.546 36.637H8.455c0-3.1-2.537-5.637-5.637-5.637V11.273c3.1 0 5.637-2.536 5.637-5.636h45.09c0 3.1 2.537 5.636 5.637 5.636V31c-3.1 0-5.636 2.537-5.636 5.637z" fill="#3BB54A"/><path d="M52.137 28.182c-3.241 0-6.2 1.55-7.891 4.086-1.41-.704-2.96-1.268-4.791-1.268-3.946 0-7.327 2.254-8.877 5.636h22.968c0-3.1 2.395-5.495 5.495-5.636-1.832-1.691-4.227-2.818-6.904-2.818z" fill="#0E9347"/><path d="M31 33.818c6.226 0 11.273-5.678 11.273-12.682 0-7.004-5.047-12.681-11.273-12.681s-11.273 5.677-11.273 12.681S24.774 33.818 31 33.818zm-16.909-9.864a2.818 2.818 0 1 0 0-5.636 2.818 2.818 0 0 0 0 5.636zm33.818 0a2.818 2.818 0 1 0 0-5.636 2.818 2.818 0 0 0 0 5.636z" fill="#0E9347"/><path d="M32.41 19.727h-2.82c-.845 0-1.408-.563-1.408-1.409 0-.845.564-1.409 1.409-1.409h4.227c.846 0 1.41-.563 1.41-1.409 0-.845-.565-1.409-1.41-1.409H32.41c0-.845-.564-1.409-1.409-1.409-.845 0-1.409.564-1.409 1.41-2.395 0-4.227 1.831-4.227 4.226 0 2.396 1.832 4.228 4.227 4.228h2.818c.846 0 1.41.563 1.41 1.409 0 .845-.564 1.409-1.41 1.409h-4.227c-.845 0-1.41.563-1.41 1.409 0 .845.565 1.409 1.41 1.409h1.409c0 .845.564 1.409 1.41 1.409.845 0 1.408-.564 1.408-1.41 2.396 0 4.227-1.83 4.227-4.226s-1.831-4.228-4.227-4.228z" fill="#89C763"/><path d="M36.637 50.727c5.447 0 9.863-4.416 9.863-9.863 0-5.448-4.416-9.864-9.863-9.864-5.448 0-9.864 4.416-9.864 9.864 0 5.447 4.416 9.863 9.864 9.863z" fill="#FFCA5D"/><path d="M49.318 47.909c5.448 0 9.864-4.416 9.864-9.864 0-5.447-4.416-9.863-9.864-9.863-5.447 0-9.863 4.416-9.863 9.863 0 5.448 4.416 9.864 9.863 9.864z" fill="#F6B545"/><path d="M49.318 28.182a9.803 9.803 0 0 0-9.863 9.863 9.803 9.803 0 0 0 9.863 9.864 9.803 9.803 0 0 0 9.864-9.864 9.803 9.803 0 0 0-9.864-9.863zm0 16.909c-3.945 0-7.045-3.1-7.045-7.046 0-3.945 3.1-7.045 7.045-7.045 3.946 0 7.046 3.1 7.046 7.045 0 3.946-3.1 7.046-7.046 7.046z" fill="#FFCB5B"/><path d="M49.318 47.768c5.496.141 9.864-4.368 9.864-9.723h-.14c-.705 0-1.27.564-1.41 1.269-.282 1.972-1.268 3.804-2.677 5.072-1.127 1.128-2.677 1.832-4.368 2.114-.705 0-1.269.564-1.269 1.268z" fill="#F6B545"/><path d="M49.318 28.323c-5.495-.141-9.863 4.368-9.863 9.722h.14c.705 0 1.269-.563 1.41-1.268.281-1.973 1.268-3.804 2.677-5.073 1.127-1.127 2.677-1.831 4.368-2.113.705 0 1.268-.564 1.268-1.268z" fill="#FFE27A"/><path d="M43.26 39.032c0-3.946 3.1-7.046 7.045-7.046 1.69 0 3.24.564 4.509 1.691-1.41-1.69-3.241-2.677-5.496-2.677-3.945 0-7.045 3.1-7.045 7.045 0 2.255.986 4.087 2.536 5.355-.986-1.127-1.55-2.677-1.55-4.368z" fill="#F19920"/><path d="M53.545 42.414c-.14 0-.282 0-.422-.141a.681.681 0 0 1 0-.987c.845-.845 1.268-2.113 1.268-3.24 0-.423.282-.705.704-.705.423 0 .705.282.705.704 0 1.55-.564 3.1-1.55 4.228-.282.14-.564.14-.705.14z" fill="#FFCB5B"/><path d="M49.318 42.273c-.845 0-1.409-.564-1.409-1.41v-5.636c0-.845.564-1.409 1.41-1.409.845 0 1.408.564 1.408 1.41v5.636c0 .845-.563 1.409-1.409 1.409z" fill="#F19920"/><path d="M54.532 46.359c-.987-3.523-3.523-6.34-6.764-7.609-.564-3.241-2.677-6.059-5.355-7.75-1.69 1.832-2.818 4.227-2.818 6.904a9.803 9.803 0 0 0 9.864 9.864c1.832.141 3.523-.422 5.073-1.409z" fill="#F19920"/><path d="M44.81 43.4c-.987-1.268-1.692-2.818-1.692-4.509 0-1.973.846-3.804 2.255-5.073-.282-.422-.564-.704-.845-.986-1.41 1.268-2.255 3.1-2.255 5.214 0 2.254.986 4.086 2.536 5.354zm3.1-4.509v1.973c0 .845.563 1.409 1.409 1.409.845 0 1.409-.564 1.409-1.41v-.28c-.846-.706-1.832-1.27-2.818-1.692z" fill="#E78825"/><path d="M54.532 46.359c-.282-.986-.564-1.832-1.127-2.677-1.128.845-2.537 1.409-4.087 1.409-3.945 0-7.045-3.1-7.045-7.046 0-2.113.845-3.945 2.254-5.213-.704-.705-1.409-1.269-2.254-1.691-1.691 1.831-2.818 4.227-2.818 6.904a9.803 9.803 0 0 0 9.863 9.864c1.973 0 3.664-.564 5.214-1.55z" fill="#F6B545"/><path d="M54.109 45.09c-.986.705-2.255 1.128-3.523 1.41-.704.14-1.268.704-1.268 1.409 1.973 0 3.664-.564 5.214-1.55l-.423-1.268z" fill="#F19920"/><path d="M42.273 31.141c-1.691 1.832-2.818 4.227-2.818 6.905h.14c.705 0 1.269-.564 1.41-1.269.281-1.972 1.268-3.663 2.536-4.931-.423-.141-.845-.423-1.268-.705z" fill="#FFCB5B"/><path d="M36.637 50.727c5.447 0 9.863-4.416 9.863-9.863 0-5.448-4.416-9.864-9.863-9.864-5.448 0-9.864 4.416-9.864 9.864 0 5.447 4.416 9.863 9.864 9.863z" fill="#F6B545"/><path d="M35.227 47.91c0 .985.141 1.83.423 2.817h.986a9.803 9.803 0 0 0 9.864-9.863c0-.987-.141-1.832-.423-2.819h-.986a9.803 9.803 0 0 0-9.864 9.864z" fill="#F19920"/><path d="M36.637 31a9.803 9.803 0 0 0-9.864 9.864 9.803 9.803 0 0 0 9.864 9.863 9.803 9.803 0 0 0 9.863-9.863A9.803 9.803 0 0 0 36.637 31zm0 16.909c-3.946 0-7.046-3.1-7.046-7.045 0-3.946 3.1-7.046 7.046-7.046 3.945 0 7.045 3.1 7.045 7.046 0 3.945-3.1 7.045-7.045 7.045z" fill="#FFCB5B"/><path d="M36.636 50.586c5.496.141 9.864-4.368 9.864-9.722h-.141c-.705 0-1.268.564-1.41 1.268-.28 1.973-1.267 3.805-2.676 5.073-1.128 1.127-2.678 1.831-4.369 2.113-.704 0-1.268.564-1.268 1.268z" fill="#F6B545"/><path d="M36.637 31.14c-5.496-.14-9.864 4.37-9.864 9.724h.14c.705 0 1.27-.564 1.41-1.269.282-1.972 1.268-3.804 2.677-5.072 1.127-1.128 2.678-1.832 4.368-2.114.705 0 1.269-.564 1.269-1.268z" fill="#FFE27A"/><path d="M30.577 41.85c0-3.945 3.1-7.045 7.046-7.045 1.69 0 3.24.563 4.509 1.69-1.41-1.69-3.241-2.677-5.496-2.677-3.945 0-7.045 3.1-7.045 7.046 0 2.254.986 4.086 2.536 5.354-.986-1.127-1.55-2.677-1.55-4.368z" fill="#F19920"/><path d="M40.864 45.232c-.141 0-.282 0-.423-.141a.681.681 0 0 1 0-.986c.845-.846 1.268-2.114 1.268-3.241 0-.423.282-.705.705-.705.422 0 .704.282.704.705 0 1.55-.564 3.1-1.55 4.227-.282.14-.564.14-.704.14z" fill="#FFCB5B"/><path d="M36.636 45.091c-.845 0-1.409-.564-1.409-1.409v-5.636c0-.846.564-1.41 1.41-1.41.845 0 1.408.564 1.408 1.41v5.636c0 .845-.563 1.41-1.409 1.41z" fill="#F19920"/><path d="M43.118 38.186c.282.846.564 1.691.564 2.678 0 3.945-3.1 7.045-7.046 7.045-.423 0-.986 0-1.409-.14v.14c0 .986.141 1.832.423 2.818h.986a9.803 9.803 0 0 0 9.864-9.863c0-.987-.141-1.832-.423-2.819h-.986c-.705 0-1.269 0-1.973.141z" fill="#F6B545"/><path d="M43.682 59.182c5.447 0 9.863-4.416 9.863-9.864 0-5.447-4.416-9.863-9.863-9.863-5.448 0-9.864 4.416-9.864 9.863 0 5.448 4.416 9.864 9.864 9.864z" fill="#F6B545"/><path d="M43.682 39.455a9.803 9.803 0 0 0-9.864 9.863 9.803 9.803 0 0 0 9.864 9.864 9.803 9.803 0 0 0 9.863-9.864 9.803 9.803 0 0 0-9.863-9.863zm0 16.909c-3.946 0-7.046-3.1-7.046-7.046 0-3.945 3.1-7.045 7.046-7.045 3.945 0 7.045 3.1 7.045 7.045 0 3.946-3.1 7.046-7.045 7.046z" fill="#FFCB5B"/><path d="M43.682 59.041c5.495.141 9.863-4.368 9.863-9.723h-.14c-.705 0-1.269.564-1.41 1.269-.281 1.972-1.268 3.804-2.677 5.072-1.127 1.128-2.677 1.832-4.368 2.114-.705 0-1.268.563-1.268 1.268z" fill="#F6B545"/><path d="M43.682 39.596c-5.496-.141-9.864 4.368-9.864 9.722h.14c.705 0 1.269-.563 1.41-1.268.282-1.973 1.268-3.804 2.677-5.073 1.127-1.127 2.677-1.831 4.368-2.113.705 0 1.269-.564 1.269-1.268z" fill="#FFE27A"/><path d="M37.623 50.305c0-3.946 3.1-7.046 7.045-7.046 1.691 0 3.241.564 4.51 1.691-1.41-1.69-3.242-2.677-5.496-2.677-3.946 0-7.046 3.1-7.046 7.045 0 2.255.986 4.087 2.536 5.355-.986-1.127-1.55-2.677-1.55-4.368z" fill="#F19920"/><path d="M47.909 53.686c-.141 0-.282 0-.423-.14a.681.681 0 0 1 0-.987c.846-.846 1.269-2.114 1.269-3.241 0-.423.281-.705.704-.705.423 0 .704.282.704.705 0 1.55-.563 3.1-1.55 4.227-.281.141-.563.141-.704.141z" fill="#FFCB5B"/><path d="M43.682 53.545c-.846 0-1.41-.563-1.41-1.409V46.5c0-.846.565-1.41 1.41-1.41.846 0 1.409.564 1.409 1.41v5.636c0 .846-.563 1.41-1.409 1.41z" fill="#F19920"/></g><defs><clipPath id="a"><path fill="#fff" d="M0 0h62v62H0z"/></clipPath></defs></svg>