<svg width="87" height="15" viewBox="0 0 87 15" fill="none" xmlns="http://www.w3.org/2000/svg"><g style="mix-blend-mode:luminosity" opacity=".5"><path d="M34.125 1.322a1.322 1.322 0 1 1 2.645 0 1.323 1.323 0 0 1-2.645 0z" fill="#273B7D"/><path d="M54.988 10.14a1.323 1.323 0 1 1 2.645-.002 1.326 1.326 0 0 1-1.326 1.326c-.727 0-1.32-.594-1.32-1.326" fill="#499FDD"/><path d="M12.423 9.567c-1.138 0-1.93-.904-1.93-2.197 0-1.292.792-2.195 1.93-2.195 1.145 0 1.945.903 1.945 2.195 0 1.313-.782 2.197-1.945 2.197zm0-6.323c-2.41 0-4.158 1.735-4.158 4.126s1.75 4.126 4.158 4.126c2.419 0 4.174-1.735 4.174-4.125 0-2.392-1.755-4.127-4.173-4.127h-.001zm19.14 4.333a1.966 1.966 0 0 0-.315-.445l-.073-.076.077-.074a3.31 3.31 0 0 0 .332-.415l2.128-3.16H31.13l-1.598 2.472c-.09.133-.273.199-.546.199h-.364V1.404c0-.935-.583-1.062-1.212-1.062h-1.077l.003 11.032h2.287V8.066h.215c.26 0 .437.03.519.172l1.262 2.381c.352.647.703.756 1.364.756h1.753L32.43 9.216l-.866-1.639zm11.104-4.352c-1.164 0-1.906.518-2.323.955l-.138.14-.05-.19c-.121-.47-.533-.726-1.153-.726h-1.025l.006 7.968h2.272V7.699c0-.359.046-.67.142-.954.252-.861.957-1.396 1.839-1.396.709 0 .986.374.986 1.341v3.47c0 .826.382 1.212 1.208 1.212h1.081l-.004-5.069c0-2.012-.982-3.077-2.841-3.077zm-7.193.182h-1.076l.007 6.16v1.807h1.148l.04.002.537-.002h.532v-.002h.004l.004-6.755c0-.815-.39-1.21-1.195-1.21zm-14.13 6.16c-1.137 0-1.93-.904-1.93-2.197 0-1.292.793-2.195 1.932-2.195 1.142 0 1.945.903 1.945 2.195 0 1.313-.783 2.197-1.945 2.197h-.001zm0-6.323c-2.41 0-4.16 1.735-4.16 4.126s1.75 4.126 4.162 4.126c2.415 0 4.174-1.735 4.174-4.125 0-2.392-1.759-4.127-4.174-4.127" fill="#273B7D"/><path d="M70.034 9.567c-1.138 0-1.931-.904-1.931-2.197 0-1.292.793-2.195 1.931-2.195 1.144 0 1.946.903 1.946 2.195 0 1.313-.783 2.197-1.946 2.197zm0-6.323c-2.41 0-4.159 1.735-4.159 4.126s1.749 4.126 4.16 4.126c2.416 0 4.174-1.735 4.174-4.125 0-2.392-1.76-4.127-4.175-4.127z" fill="#499FDD"/><path d="M50.298 9.215c-1.242 0-1.684-1.082-1.684-2.098 0-.448.114-1.905 1.566-1.905.72 0 1.681.206 1.681 1.98 0 1.673-.85 2.023-1.563 2.023zm2.743-5.83c-.431 0-.763.172-.93.486l-.062.121-.105-.092c-.367-.316-1.024-.693-2.091-.693-2.125 0-3.555 1.596-3.555 3.969 0 2.372 1.48 4.03 3.597 4.03.723 0 1.295-.17 1.748-.513l.175-.131v.22c0 1.065-.688 1.653-1.936 1.653a4.587 4.587 0 0 1-1.528-.282c-.481-.146-.765-.025-.959.458l-.18.446-.256.652.158.084c.8.424 1.839.677 2.778.677 1.934 0 4.194-.99 4.194-3.777l.008-7.308H53.04zM3.964 9.476l-1.849-.002v-2.21c0-.473.183-.718.588-.775h1.261c.9 0 1.482.567 1.483 1.485-.001.943-.568 1.5-1.483 1.5v.002zM2.115 3.512V2.93c0-.509.216-.75.688-.782h.947c.81 0 1.297.485 1.297 1.298 0 .619-.333 1.342-1.268 1.342H2.115V3.512zm4.21 2.207l-.334-.188.292-.25c.34-.292.908-.948.908-2.08C7.19 1.464 5.846.345 3.764.345H1.118A1.16 1.16 0 0 0 0 1.49v9.844h3.811c2.314 0 3.808-1.26 3.808-3.211 0-1.05-.482-1.949-1.294-2.405z" fill="#273B7D"/><path d="M84.355 3.25a3.13 3.13 0 0 0-2.438 1.182l-.164.208-.13-.233c-.42-.767-1.145-1.156-2.151-1.156-1.056 0-1.764.59-2.093.939l-.216.233-.083-.307c-.12-.442-.512-.684-1.107-.684h-.955l-.01 7.938h2.17V7.866c0-.308.038-.61.114-.928.207-.847.776-1.758 1.733-1.667.59.057.879.513.879 1.393v4.706h2.184V7.866c0-.384.036-.671.123-.959.174-.808.77-1.637 1.692-1.637.668 0 .915.378.915 1.394v3.546c0 .8.358 1.16 1.16 1.16h1.02L87 6.302c0-2.025-.892-3.051-2.645-3.051zM64.618 8.615c-.007.008-.94.991-2.169.991-1.12 0-2.25-.687-2.25-2.22 0-1.324.876-2.25 2.132-2.25.407 0 .871.146.944.392l.01.041a.797.797 0 0 0 .774.587l1.188.002v-1.04c0-1.37-1.743-1.867-2.916-1.867-2.508 0-4.328 1.746-4.328 4.15 0 2.404 1.8 4.148 4.282 4.148 2.153 0 3.325-1.415 3.336-1.429l.062-.077-.94-1.561-.125.132z" fill="#499FDD"/></g></svg>