<svg width="226" height="116" viewBox="0 0 226 116" fill="none" xmlns="http://www.w3.org/2000/svg"><g opacity=".3" fill="#2C3647"><circle cx="69" cy="58" r="3" fill-opacity=".4"/><circle cx="91" cy="58" r="3" fill-opacity=".4"/><circle cx="102" cy="58" r="3" fill-opacity=".4"/><circle cx="113" cy="58" r="3" fill-opacity=".4"/><circle cx="135" cy="58" r="3" fill-opacity=".4"/><circle cx="146" cy="58" r="3" fill-opacity=".4"/><circle cx="157" cy="58" r="3" fill-opacity=".4"/><circle cx="179" cy="58" r="3" fill-opacity=".4"/><circle cx="190" cy="58" r="3" fill-opacity=".4"/><circle cx="201" cy="58" r="3" fill-opacity=".3"/><circle cx="212" cy="58" r="3" fill-opacity=".2"/><circle cx="69" cy="47" r="3" fill-opacity=".3"/><circle cx="80" cy="47" r="3" fill-opacity=".3"/><circle cx="91" cy="47" r="3" fill-opacity=".3"/><circle cx="102" cy="47" r="3" fill-opacity=".3"/><circle cx="113" cy="47" r="3" fill-opacity=".3"/><circle cx="124" cy="47" r="3" fill-opacity=".3"/><circle cx="135" cy="47" r="3" fill-opacity=".3"/><circle cx="146" cy="47" r="3" fill-opacity=".3"/><circle cx="157" cy="47" r="3" fill-opacity=".3"/><circle cx="168" cy="47" r="3" fill-opacity=".3"/><circle cx="179" cy="47" r="3" fill-opacity=".3"/><circle cx="190" cy="47" r="3" fill-opacity=".3"/><circle cx="201" cy="47" r="3" fill-opacity=".3"/><circle cx="223" cy="47" r="3" fill-opacity=".1"/><circle cx="80" cy="36" r="3" fill-opacity=".2"/><circle cx="102" cy="36" r="3" fill-opacity=".2"/><circle cx="124" cy="36" r="3" fill-opacity=".2"/><circle cx="146" cy="36" r="3" fill-opacity=".2"/><circle cx="168" cy="36" r="3" fill-opacity=".2"/><circle cx="190" cy="36" r="3" fill-opacity=".2"/><circle cx="212" cy="36" r="3" fill-opacity=".2"/><circle cx="69" cy="25" r="3" fill-opacity=".1"/><circle cx="91" cy="25" r="3" fill-opacity=".1"/><circle cx="113" cy="25" r="3" fill-opacity=".1"/><circle cx="135" cy="25" r="3" fill-opacity=".1"/><circle cx="125" cy="14" r="3" fill-opacity=".1"/><circle cx="157" cy="25" r="3" fill-opacity=".1"/><circle cx="147" cy="14" r="3" fill-opacity=".1"/><circle cx="160" cy="3" r="3" fill-opacity=".1"/><circle cx="179" cy="25" r="3" fill-opacity=".1"/><circle cx="169" cy="14" r="3" fill-opacity=".1"/><circle cx="182" cy="3" r="3" fill-opacity=".1"/><circle cx="201" cy="25" r="3" fill-opacity=".1"/><circle cx="191" cy="14" r="3" fill-opacity=".1"/><circle cx="223" cy="25" r="3" fill-opacity=".1"/><circle cx="58" cy="47" r="3" fill-opacity=".3"/><circle cx="58" cy="36" r="3" fill-opacity=".2"/><circle cx="47" cy="58" r="3" fill-opacity=".4"/><circle cx="47" cy="47" r="3" fill-opacity=".3"/><circle cx="47" cy="25" r="3" fill-opacity=".1"/><circle cx="36" cy="58" r="3" fill-opacity=".4"/><circle cx="36" cy="47" r="3" fill-opacity=".3"/><circle cx="36" cy="36" r="3" fill-opacity=".2"/><circle cx="69" cy="80" r="3" fill-opacity=".4"/><circle cx="80" cy="80" r="3" fill-opacity=".4"/><circle cx="91" cy="80" r="3" fill-opacity=".4"/><circle cx="102" cy="80" r="3" fill-opacity=".4"/><circle cx="113" cy="80" r="3" fill-opacity=".4"/><circle cx="124" cy="80" r="3" fill-opacity=".4"/><circle cx="135" cy="80" r="3" fill-opacity=".4"/><circle cx="146" cy="80" r="3" fill-opacity=".4"/><circle cx="157" cy="80" r="3" fill-opacity=".4"/><circle cx="168" cy="80" r="3" fill-opacity=".4"/><circle cx="179" cy="80" r="3" fill-opacity=".4"/><circle cx="190" cy="80" r="3" fill-opacity=".4"/><circle cx="201" cy="80" r="3" fill-opacity=".3"/><circle cx="212" cy="80" r="3" fill-opacity=".2"/><circle cx="58" cy="80" r="3" fill-opacity=".4"/><circle cx="47" cy="80" r="3" fill-opacity=".4"/><circle cx="36" cy="80" r="3" fill-opacity=".5"/><circle cx="80" cy="102" r="3" fill-opacity=".2"/><circle cx="102" cy="102" r="3" fill-opacity=".2"/><circle cx="124" cy="102" r="3" fill-opacity=".2"/><circle cx="146" cy="102" r="3" fill-opacity=".2"/><circle cx="168" cy="102" r="3" fill-opacity=".2"/><circle cx="190" cy="102" r="3" fill-opacity=".2"/><circle cx="212" cy="102" r="3" fill-opacity=".2"/><circle cx="58" cy="102" r="3" fill-opacity=".2"/><circle cx="36" cy="102" r="3" fill-opacity=".2"/><circle cx="69" cy="69" r="3" fill-opacity=".5"/><circle cx="80" cy="69" r="3" fill-opacity=".5"/><circle cx="91" cy="69" r="3" fill-opacity=".5"/><circle cx="102" cy="69" r="3" fill-opacity=".5"/><circle cx="124" cy="69" r="3" fill-opacity=".5"/><circle cx="135" cy="69" r="3" fill-opacity=".5"/><circle cx="146" cy="69" r="3" fill-opacity=".5"/><circle cx="157" cy="69" r="3" fill-opacity=".5"/><circle cx="168" cy="69" r="3" fill-opacity=".5"/><circle cx="190" cy="69" r="3" fill-opacity=".4"/><circle cx="201" cy="69" r="3" fill-opacity=".3"/><circle cx="223" cy="69" r="3" fill-opacity=".1"/><circle cx="58" cy="69" r="3" fill-opacity=".5"/><circle cx="36" cy="69" r="3" fill-opacity=".4"/><circle cx="69" cy="91" r="3" fill-opacity=".3"/><circle cx="91" cy="91" r="3" fill-opacity=".3"/><circle cx="113" cy="91" r="3" fill-opacity=".3"/><circle cx="124" cy="91" r="3" fill-opacity=".3"/><circle cx="135" cy="91" r="3" fill-opacity=".3"/><circle cx="157" cy="91" r="3" fill-opacity=".3"/><circle cx="168" cy="91" r="3" fill-opacity=".3"/><circle cx="190" cy="91" r="3" fill-opacity=".3"/><circle cx="201" cy="91" r="3" fill-opacity=".3"/><circle cx="223" cy="91" r="3" fill-opacity=".1"/><circle cx="47" cy="91" r="3" fill-opacity=".3"/><circle cx="69" cy="113" r="3" fill-opacity=".1"/><circle cx="91" cy="113" r="3" fill-opacity=".1"/><circle cx="113" cy="113" r="3" fill-opacity=".1"/><circle cx="135" cy="113" r="3" fill-opacity=".1"/><circle cx="157" cy="113" r="3" fill-opacity=".1"/><circle cx="179" cy="113" r="3" fill-opacity=".1"/><circle cx="201" cy="113" r="3" fill-opacity=".1"/><circle cx="223" cy="113" r="3" fill-opacity=".1"/><circle cx="47" cy="113" r="3" fill-opacity=".1"/><circle cx="25" cy="58" r="3" fill-opacity=".3"/><circle cx="25" cy="25" r="3" fill-opacity=".1"/><circle cx="14" cy="47" r="3" fill-opacity=".2"/><circle cx="25" cy="80" r="3" fill-opacity=".3"/><circle cx="14" cy="80" r="3" fill-opacity=".2"/><circle cx="14" cy="102" r="3" fill-opacity=".2"/><circle cx="25" cy="69" r="3" fill-opacity=".3"/><circle cx="14" cy="69" r="3" fill-opacity=".2"/><circle cx="25" cy="91" r="3" fill-opacity=".3"/><circle cx="25" cy="113" r="3" fill-opacity=".1"/><circle cx="3" cy="47" r="3" fill-opacity=".1"/><circle cx="3" cy="25" r="3" fill-opacity=".1"/><circle cx="3" cy="69" r="3" fill-opacity=".1"/><circle cx="3" cy="91" r="3" fill-opacity=".1"/><circle cx="3" cy="113" r="3" fill-opacity=".1"/></g></svg>