<svg width="63" height="63" viewBox="0 0 63 63" fill="none" xmlns="http://www.w3.org/2000/svg"><g clip-path="url(#a)" fill="#fff"><path d="M15.45 40.453c-.434 0-.87-.431-.87-.863v-8.522c0-.431.436-.863.87-.863.436 0 .871.432.871.863v8.522c.11.432-.326.863-.87.863zm-5.33-18.985c-2.72 0-4.897-2.158-4.897-4.855 0-2.697 2.176-4.854 4.896-4.854 2.72 0 4.897 2.157 4.897 4.854s-2.177 4.855-4.897 4.855zm0-7.983c-1.742 0-3.156 1.402-3.156 3.128 0 1.726 1.414 3.129 3.155 3.129 1.741 0 3.156-1.403 3.156-3.129s-1.415-3.128-3.156-3.128zM4.679 40.453c-.435 0-.87-.431-.87-.863v-8.522c0-.431.435-.863.87-.863s.87.432.87.863v8.522c0 .432-.435.863-.87.863z"/><path d="M15.45 41.64H4.57c-.435 0-.87-.431-.87-.863 0-.431.435-.863.87-.863h10.88c.436 0 .871.432.871.863.109.432-.326.863-.87.863z"/><path d="M15.45 63h-4.025c-.435 0-.87-.431-.87-.863V45.632c0-.108-.11-.216-.11-.323-.108 0-.217-.108-.326-.108-.217 0-.326.215-.326.539v16.505c0 .432-.435.863-.87.863H4.678c-.435 0-.87-.431-.87-.863V42.18c-.436.216-.98.216-1.524.108C.979 42.072 0 40.886 0 39.483V29.235c0-3.236 2.503-5.933 5.767-6.365.326 0 .544.108.761.324l3.591 3.883 3.59-3.883c.219-.216.436-.324.763-.324 3.264.324 5.766 3.128 5.766 6.365v10.248c0 1.403-.979 2.481-2.285 2.805-.544.108-1.088 0-1.523-.108v20.065c0 .432-.435.755-.98.755zm-3.155-1.726h2.285V39.591c0-.431.435-.863.87-.863.436 0 .871.431.871.863 0 .324.11.54.327.755.217.216.544.216.87.216.435-.108.762-.54.762-1.079V29.235c0-2.266-1.524-4.1-3.7-4.531l-3.917 4.315c-.326.324-.98.324-1.305 0L5.44 24.704c-2.176.431-3.7 2.373-3.7 4.53v10.25c0 .538.327.97.763 1.078a.85.85 0 0 0 .87-.216c.218-.216.326-.431.326-.755 0-.431.436-.863.871-.863s.87.431.87.863v21.683h2.285V45.632c0-1.079.762-2.05 1.85-2.265.653-.108 1.306.108 1.85.54.544.43.761 1.078.761 1.725v15.642h.11z"/><path d="M10.12 41.64c-.436 0-.871-.43-.871-.862V28.372c0-.432.435-.863.87-.863.436 0 .87.431.87.863v12.406c0 .431-.434.863-.87.863zm49.072 2.158h-35.69c-.435 0-.87-.432-.87-.863 0-.432.435-.863.87-.863h34.82V7.659H6.201v2.697c0 .431-.435.863-.87.863-.436 0-.87-.431-.87-.863V6.688c0-.431.434-.863.87-.863h53.86c.435 0 .87.432.87.863v36.139c0 .54-.326.97-.87.97z"/><path d="M61.477 7.66H3.047c-.762 0-1.524-.648-1.524-1.511V1.51C1.632.647 2.285 0 3.047 0h58.43C62.238 0 63 .647 63 1.51v4.747c0 .755-.653 1.402-1.523 1.402zM3.373 5.824h57.886V1.726H3.373v4.1zM52.12 36.031h-5.224c-.435 0-.87-.431-.87-.863V12.622c0-.432.435-.863.87-.863h5.223c.435 0 .87.431.87.863V35.06c0 .54-.326.971-.87.971zm-4.353-1.726h3.482v-20.82h-3.482v20.82zm-6.964 1.726H35.58c-.435 0-.87-.431-.87-.863V21.144c0-.431.435-.863.87-.863h5.223c.436 0 .87.432.87.863v14.024a.854.854 0 0 1-.87.863zm-4.352-1.726h3.482V22.007H36.45v12.298z"/><path d="M55.166 36.03H32.75c-.435 0-.87-.43-.87-.862s.435-.863.87-.863h22.524c.435 0 .87.431.87.863-.109.431-.435.863-.98.863z"/></g><defs><clipPath id="a"><path fill="#fff" d="M0 0h63v63H0z"/></clipPath></defs></svg>