<svg width="19" height="20" viewBox="0 0 19 20" fill="none" xmlns="http://www.w3.org/2000/svg"><path d="M3.884 9.297a.823.823 0 0 0-1.202 0 .899.899 0 0 0 0 1.228L6.8 14.837l.181-.172-.18.172a.829.829 0 0 0 1.202 0l8.823-9.312a.899.899 0 0 0 .091-1.115.04.04 0 0 0-.003-.017.538.538 0 0 0-.011-.015l-.004-.004-.001-.002-.003-.003-.001-.001-.002-.002-.066-.07-.066-.069-.002-.002-.001-.001-.003-.003-.002-.002-.004-.003a.433.433 0 0 0-.014-.013.04.04 0 0 0-.017-.003.822.822 0 0 0-1.094.097l-8.224 8.68-3.514-3.68zm12.941-5l-.057-.06-.005-.006-.002-.002.002.002.003.004.007.008a.09.09 0 0 1 .005.008l.047.046zm-.404.024a.573.573 0 0 0-.617.148l.617-.148z" fill="#369CB7" stroke="#369CB7" stroke-width=".5"/></svg>