<svg width="322" height="56" viewBox="0 0 322 56" fill="none" xmlns="http://www.w3.org/2000/svg">
<path d="M20.8621 11.0989C20.8621 11.0989 5.49889 12.0877 5.40119 26.1737C5.30349 40.2597 -1.60874 49.9946 15.4154 52.28C32.4395 54.5654 81.9243 52.7195 114.312 52.9393C146.699 53.159 231.966 54.8072 250.724 54.939C269.483 55.0709 298.451 56.3454 307.024 53.137C315.597 49.9287 322.485 40.2157 320.824 32.6124C319.163 25.009 315.792 21.7348 312.422 17.3617C309.051 12.9887 302.261 7.53892 211.889 6.92362C121.517 6.30832 89.0808 10.4396 70.3225 10.3078C51.5642 10.2199 29.4108 7.91249 20.8621 11.0989Z" fill="#003A23"/>
<path d="M17.0028 4.48437C17.0028 4.48437 1.63952 5.47324 1.54182 19.5592C1.44412 33.6452 -5.46812 43.3801 11.556 45.6655C28.5801 47.9509 78.0649 46.105 110.452 46.3248C142.84 46.5445 228.107 48.1926 246.865 48.3245C265.623 48.4563 294.591 49.7309 303.164 46.5225C311.713 43.3362 318.625 33.6012 316.964 25.9979C315.304 18.3945 311.933 15.1203 308.562 10.7472C305.192 6.37422 298.402 0.924415 208.03 0.309115C117.658 -0.306185 85.2214 3.82512 66.4631 3.69327C47.7048 3.56142 25.5515 1.29799 17.0028 4.48437Z" fill="#F7941D"/>
</svg>
