<svg width="51" height="54" viewBox="0 0 51 54" fill="none" xmlns="http://www.w3.org/2000/svg"><path d="M25.475 53.683C11.432 53.683 0 42.25 0 28.207S11.432 2.732 25.475 2.732c14.044 0 25.475 11.432 25.475 25.475.02 14.044-11.411 25.476-25.475 25.476z" fill="#9DD765"/><path d="M50.287 4.42C48.921 2.03 45.305 0 42.351 0c-1.687 0-3.174.643-4.178 1.808-1.728 2.01-3.316 4.26-4.782 6.57a21.483 21.483 0 0 0-7.896-1.507c-11.793 0-21.356 9.563-21.356 21.357 0 11.793 9.563 21.356 21.356 21.356 11.793 0 21.357-9.563 21.357-21.356 0-3.536-.864-6.851-2.371-9.805 1.225-2.15 2.531-4.32 4.058-6.87.583-.965 1.186-1.97 1.829-3.055.723-1.225.703-2.712-.08-4.078z" fill="#fff"/><path d="M10.748 21.758s9.805 18.082 11.513 21.055c.823 1.427 8.357-.06 8.98-1.607 7.333-18.825 9.804-22.24 16.856-34.074 1.226-2.05-5.565-6.308-7.895-3.596-8.6 10.045-14.285 27.243-14.285 27.243s-2.01-6.53-6.73-12.677c-1.748-2.27-10.006.422-8.439 3.656z" fill="#9DD765"/></svg>