<svg width="100" height="100" viewBox="0 0 100 100" fill="none" xmlns="http://www.w3.org/2000/svg"><path stroke="#E54B4C" d="M22.5 26.5h56m-56 46h56"/><path d="M37.444 58v-4.152H30.58v-1.104l4.776-10.968 1.152.48-4.488 10.368h5.424l.168-4.656h1.2v4.656h2.136v1.224h-2.136V58h-1.368zm5.935-.864c0-.32.104-.584.312-.792.224-.224.512-.336.864-.336.368 0 .648.112.84.336.208.208.312.472.312.792 0 .224-.032.416-.096.576-.048.16-.144.4-.288.72l-1.488 3.192h-.984l1.08-3.504c-.368-.208-.552-.536-.552-.984zM57.906 43.24h-6.504v5.328a6.314 6.314 0 0 1 1.296-.48 5.481 5.481 0 0 1 1.464-.192c.672 0 1.28.12 1.824.36.56.224 1.032.552 1.416.984.4.416.712.928.936 1.536.224.608.336 1.288.336 2.04 0 .8-.128 1.536-.384 2.208a4.965 4.965 0 0 1-1.032 1.704c-.448.48-.992.856-1.632 1.128-.64.272-1.352.408-2.136.408a6.47 6.47 0 0 1-2.448-.456c-.752-.32-1.432-.84-2.04-1.56l.96-.792c.512.576 1.056.992 1.632 1.248a4.616 4.616 0 0 0 1.896.384c.576 0 1.096-.096 1.56-.288a3.354 3.354 0 0 0 1.176-.864c.32-.384.568-.832.744-1.344a5.515 5.515 0 0 0 .264-1.752c0-.672-.088-1.248-.264-1.728-.16-.48-.392-.872-.696-1.176a2.677 2.677 0 0 0-1.08-.696 3.78 3.78 0 0 0-1.368-.24c-.512 0-.976.064-1.392.192-.416.112-.84.28-1.272.504h-1.08V42.04h8.016l-.192 1.2zM68.6 58l-.352-3.936c-.075-.768-.133-1.424-.176-1.968l-.112-1.44h-.032l-2.224 6.304h-.864l-2.288-6.272h-.032c-.021.373-.053.784-.096 1.232a58 58 0 0 1-.096 1.168l-.4 4.912h-.896l.752-8.368h1.232l2.256 6.256h.032l2.192-6.256h1.232L69.512 58H68.6z" fill="#E54B4C"/><rect x=".5" y=".5" width="99" height="99" rx="49.5" stroke="#E2E2E2"/></svg>