<svg width="170" height="24" viewBox="0 0 170 24" fill="none" xmlns="http://www.w3.org/2000/svg"><g clip-path="url(#a)"><path d="M71.2 15.7c-2 0-3.4-1.5-3.4-3.4s1.5-3.4 3.4-3.4c2 0 3.4 1.5 3.4 3.4s-1.4 3.4-3.4 3.4zm7.7-.2c-.7 0-1-.4-1-1V6.1h-3.2v1.6c-1-1.2-2.4-1.9-4.1-1.9-3.5 0-6.1 2.8-6.1 6.5s2.6 6.5 6.1 6.5c1.8 0 3.3-.9 4.3-2.2.5 1.3 1.6 2 3.3 2h.9v-3.1h-.2zm8.4 3.3c3.3 0 5.9-2.1 6.5-5.1h-3.4c-.5 1.2-1.7 2-3.1 2-2 0-3.4-1.5-3.4-3.4s1.5-3.4 3.4-3.4c1.4 0 2.6.8 3.1 2h3.4c-.6-3-3.2-5.1-6.5-5.1-3.8 0-6.7 2.8-6.7 6.5s2.9 6.5 6.7 6.5zM103.1 9V6.1h-2.9V2.8h-3v2.3c0 .7-.3 1-1 1h-1.1V9h2v5.6c0 2.6 1.5 3.9 4.3 3.9h1.7v-2.9h-1.2c-1 0-1.6-.6-1.6-1.6V9h2.8zm2.7 9.5h3.2V6.1h-3.2v12.4zm1.6-14.2c1.1 0 2-.9 2-2s-.9-2-2-2-2 .9-2 2 .8 2 2 2zM119.6 9V6.1h-2.9V2.8h-3v2.3c0 .7-.3 1-1 1h-1.1V9h2v5.6c0 2.6 1.5 3.9 4.3 3.9h1.7v-2.9h-1.2c-1 0-1.6-.6-1.6-1.6V9h2.8zm15.7 6.5c-.7 0-1-.4-1-1v-3.8c0-2.9-1.9-4.8-4.9-4.8-1.6 0-3 .7-4 1.9V1h-3.2v17.6h3.2v-6.8c0-1.7 1.2-2.8 2.9-2.8 1.6 0 2.7 1.1 2.7 2.8v3.4c0 2.3 1.2 3.4 3.6 3.4h.9v-3.1h-.2zm2.3 3h3.2V6.1h-3.2v12.4zm1.6-14.2c1.1 0 2-.9 2-2s-.9-2-2-2-2 .9-2 2 .9 2 2 2zm18 11.2c-.7 0-1-.4-1-1v-3.8c0-2.9-1.9-4.8-4.9-4.8-1.6 0-3 .6-4 1.8V6.1h-3.2v12.4h3.2v-6.8c0-1.7 1.2-2.8 2.9-2.8 1.6 0 2.7 1.1 2.7 2.8v3.4c0 2.3 1.2 3.4 3.6 3.4h.9v-3.1h-.2v.1z" fill="#065B5B"/><path fill-rule="evenodd" clip-rule="evenodd" d="M54.6 6.2V6c-.1-.3-.2-.7-.4-1.1-.2-.4-.7-1-1.5-1.1-.8-.1-1.5.3-2 .7-.5.4-.9 1-1 1.7-.1.8.2 1.3.6 1.7.3.3.7.5.9.6.1.1.2.1.3.1h.1l-2.2 10.5 2.7.6 2.3-10.9 5.3.2c-.2.3-.3.6-.5.9-.4.8-.8 1.6-1.1 2.4-.3.7-.6 1.7-.5 2.5.1 1 .4 2.1 1.3 3 .9.8 2.1 1.3 3.7 1.6l1.3.2.5-2.7-1.3-.2c-1.4-.3-2-.6-2.3-.9-.3-.2-.4-.6-.5-1.3v-.1c0-.1 0-.1.1-.2.1-.2.1-.5.3-.8.3-.7.6-1.4 1-2.1.5-1.4 1.3-2.7 1.3-2.7 0-.1.2-.3.2-.7 0-.2-.1-.5-.2-.8-.2-.3-.4-.4-.6-.5-.2-.1-.4-.1-.5-.1l-7.3-.3z" fill="#065B5B"/><path d="M9.7 17.8c-.4-.7-1.1-1.3-1.7-1.8-.7-.5-1.5-1.1-2.3-1.4-.8-.3-1.7-.2-2.5.1-.7.2-1.3.7-1.6 1.4-.3.8-.3 1.5.3 2.1.6.5 1.4.9 2.1 1 .2 0 .8.1 1-.1.2-.2.1-.9.1-1.1-.2-.7-.9-1.3-1.5-.7-.6.6-1.5-.5-.9-1.1.7-.7 1.8-.7 2.6-.2.8.5 1.2 1.5 1.2 2.5s-.3 1.9-1.3 2.1c-.9.3-2 .1-2.8-.3-.8-.4-1.6-1-2.1-1.8-.4-.9-.3-2 .1-2.9.8-1.9 2.8-2.6 4.7-2.5 1.2.1 2.3.8 3.2 1.4.9.7 1.9 1.4 2.5 2.4.4.8-.7 1.7-1.1.9zm17.1-7.9c.2 1.6-.5 3-1.5 3.1-1 .1-2-1.2-2.2-2.8-.2-1.6.5-3 1.5-3.1 1-.1 2 1.2 2.2 2.8z" fill="#065B5B"/><path d="M7.6 11.4c0 4.9 4.1 8.2 9 8.2s8.8-2.6 8.9-8.2c.1-4.9-4-8.9-8.9-8.9-5 0-9 3.9-9 8.9z" fill="#065B5B"/><path d="M19 3c0-.4-2.6-.5-3.3-2-.1-.2-.1-.4-.1-.4-.3.1-.8.3-1.3.8s-.6 1-.7 1.2c-.1 0-.4-.2-.6-.4-.2-.3-.2-.7-.2-.8-.2.2-.5.4-.7.8-.7 1.1-.4 2.2-.3 2.5C17.7 3.8 19 3.3 19 3z" fill="#065B5B"/><path d="M12.5 15.4c.5 2.3 3.5 3.6 6.6 2.8 3.2-.7 5.4-3.2 4.9-5.4-.5-2.3-3.5-3.6-6.7-2.8-3.1.7-5.2 3.1-4.8 5.4z" fill="#fff"/><path d="M11.5 11.2c.4 2 2.2 3.3 4 2.8 1.8-.5 3-2.5 2.6-4.5-.4-2-2.2-3.3-4-2.8-1.9.4-3 2.4-2.6 4.5z" fill="#fff"/><path d="M22.7 8.2c.4 2.1-.7 4.1-2.3 4.5-1.7.4-3.4-.9-3.7-2.9-.5-2.1.6-4.1 2.3-4.5 1.6-.5 3.3.8 3.7 2.9z" fill="#fff"/><path d="M9 16c-.6.1-1.2-.2-1.7-.8-.5-.6-1-1.5-1.2-2.5-.2-1-.1-2 .1-2.8.3-.8.8-1.3 1.4-1.4.6-.2 1.2.1 1.7.7s1 1.5 1.2 2.5c.2 1 .1 2-.1 2.8-.4.9-.8 1.4-1.4 1.5z" fill="#065B5B"/><path d="M10 14.5c-.3.7-.7 1.1-1.1 1.2l.1.6c.8-.2 1.3-.8 1.6-1.6l-.6-.2zm.1-2.6c.2 1 .1 1.9-.1 2.6l.7.2c.3-.8.4-1.9.2-3l-.8.2zM9 9.5c.5.5.9 1.4 1.1 2.4l.7-.1c-.2-1.1-.7-2.1-1.2-2.7l-.6.4zm-1.4-.7c.4-.1 1 .1 1.4.7l.5-.5c-.5-.6-1.2-1-2-.9l.1.7zm-1 1.2c.2-.7.6-1.1 1-1.2l-.1-.7c-.8.2-1.3.8-1.6 1.6l.7.3zm-.2 2.6c-.2-1-.1-1.9.1-2.6l-.6-.3c-.3.8-.4 1.9-.2 3l.7-.1zM7.5 15c-.5-.5-.9-1.4-1.1-2.4l-.7.1c.2 1.1.7 2.1 1.2 2.7l.6-.4zm1.4.7c-.4.1-.9-.1-1.4-.7l-.5.4c.6.7 1.3 1.1 2.1.9l-.2-.6zm1.4-1.1l.3.1-.3-.1zm.2-2.8l-.3.1.3-.1zM9.3 9.2l.3-.2-.3.2zm-1.7-.7l-.1-.4.1.4zM6.2 9.9l-.3-.2.3.2zm-.1 2.8l.3-.1-.3.1zm1.1 2.5l-.2.2.2-.2zM9 16l-.1-.3.1.3z" fill="#fff"/><path d="M7.7 12.6c1.2 2.5 1.4 4.4 2.3 4.2.9-.2 1.1-2.9.8-5.1-.3-2.1-2.1-3.6-2.4-3.3-.4.1-1 2.1-.7 4.2zm13.5 2.8c-.1.1-1.3 1.5-3.4 1.5-1.5 0-2.9-.8-3.7-1.9.3.2 1.6 1.3 3.6 1.4 1.9 0 3.1-.8 3.5-1zm-3.8-1.6c.1 0 .5.1 1 .1.5-.1.8-.2.9-.3-.3 0-.6.1-.9.1-.4.1-.8.1-1 .1z" fill="#065B5B"/><path d="M25.4 11.7c.1 0 .2 0 .2.1l.4 7.9c0 .1 0 .1-.1.2l-7 3.5h-.1l-7.5-2.5c-.1 0-.1-.1-.1-.1l-.4-7.9c0-.1 0-.1.1-.1h.1l7.4 2.6h.2l6.8-3.7z" fill="#065B5B"/><path d="M18.8 15.6l6.8-3.5-.4-.8-6.8 3.5.4.8zm-.5 0c.2.1.3 0 .5 0l-.4-.7h.1l-.2.7zm.2 0v-.8.8zM10.9 13l7.4 2.6.3-.8-7.4-2.5-.3.7zm.1.1v-.8.8zm.2-.1l-.1.1h-.2l.3-.8c-.2-.1-.4 0-.5.1l.5.6zm0-.2c0 .1 0 .1-.1.2l-.5-.6c-.1.1-.2.3-.2.5l.8-.1zm.5 7.9l-.4-7.9h-.8l.4 7.9h.8zm-.2-.3c.1 0 .2.2.2.2l-.8.1c0 .2.1.4.4.5l.2-.8zm-.1 0v.8-.8zM19 23l-7.5-2.5-.3.8 7.5 2.5.3-.8zm-.2-.1v.8-.8zm-.1.1h.2l-.3.7c.1.1.3 0 .4 0l-.3-.7zm-.1.1l.6.6-.6-.6zm7.2-3.6l-7 3.5.4.7 7-3.5-.4-.7zm-.2.2c0-.1 0-.2.1-.2l.3.7c.2-.1.3-.3.3-.5h-.7zm-.4-7.8l.4 7.9h.8l-.4-8-.8.1zm.4.2c-.1.1-.2 0-.3 0-.1 0-.1-.1-.1-.2h.8c0-.4-.4-.7-.8-.5l.4.7zm-7 3.1l-.2-.4.2.4zm-.1 0l.1-.4h-.2v.4h.1zm0 0l-.1.4h.2v-.4h-.1zM11 12.7l.1-.4H11v.4zm0 0l-.1.4h.1v-.4zm-.1 0l.3.3-.3-.3zm-.1.1h.4-.4zm.5 7.9h-.4.4zm.1.1l-.1.4h.2v-.4h-.1zm0 0l.1-.4h-.2v.4h.1zm7.4 2.5l-.1.4h.2v-.4h-.1zm0 0l.1-.4h-.2v.4h.1zm.1 0l.2.4h.1l-.3-.4zm0 0l-.2-.4h-.1l.3.4zm7-3.4l-.2-.4.2.4zm.1-.2h.4-.4zm-.4-7.9h.4-.4zm-.2-.1l.2.4-.2-.4z" fill="#fff"/><path d="M18.8 23.1l-.4-7.2.6-.1.3 7-.5.3z" fill="#fff"/><path d="M11.8 12.2l-.1.4V12l5.4 2.1-5.3-1.9z" fill="#065B5B"/><path d="M11.6 12.2l.4.1-.4-.1zm.3-.2l-.2.4.2-.4zm5.3 1.9L11.9 12l-.1.4 5.2 1.9.2-.4zm-5.6-1.8l5.4 2.2.1-.4-5.4-2.2-.1.4zm.3.1v-.3h-.4v.3h.4zm0 .3v-.3l-.4.1v.3l.4-.1zm0-.1l-.3.3.3-.3zm-.3-.2v.3h.4v-.3h-.4zm.2 0l.1-.2-.2-.1v.3h.1zm0 0l-.1.2.1-.2zm5.3 1.9l-.1.2.1-.4v.2zM11.7 12l.1-.2-.3-.1v.3h.2zm0 .2h-.2.2zm0 .3h-.2v.1l.2-.1zm0 .1l-.1.1.3.3v-.4h-.2zm.1-.4h-.2.2z" fill="#fff"/><path d="M25.5 11.9l-.2-.8-5.5 3.6 5.5-3.1v-.1.1l.2.3z" fill="#065B5B"/><path d="M25.7 11.9h-.4.4zm-.2.2v-.4.4zm-.4-.4l.2.3.3-.2-.2-.3-.3.2zm0-.1l.4-.2-.4.2zm.3.1l-.2-.4.2.4zm-5.5 3.1l5.5-3.1-.2-.3-5.5 3.1.2.3zm5.2-3.8l-5.5 3.5.2.3 5.5-3.5-.2-.3zm.6.8l-.2-.7-.4.1.2.7.4-.1zm-.2.1v.2h.2v-.2h-.2zm0 0l-.2.1.1.1h.1v-.2zm-.2-.3l-.2.1.2-.1zm0-.1l.2-.1-.1-.1-.2.1.1.1zm0 .1l-.1-.2.1.2zm-5.5 3.1l-.1-.2.2.3-.1-.1zm5.5-3.6l.2-.1-.1-.2-.2.1.1.2zm.2.8h.2-.2z" fill="#fff"/><path d="M11.721 20.299c1.05-.02 1.89-.573 1.877-1.235-.012-.663-.872-1.184-1.921-1.165-1.05.02-1.89.572-1.878 1.235.013.663.873 1.184 1.922 1.165z" fill="#065B5B"/><path d="M11.711 19.799c.608-.011 1.094-.334 1.087-.72-.007-.387-.505-.691-1.112-.68-.607.01-1.094.333-1.087.72.007.386.505.69 1.112.68z" fill="#fff"/><path d="M13.6 17.9c0 .8-.9 1.4-2 1.4s-2-.6-2.1-1.3c0-.7.9-1.4 2-1.4 1.1-.1 2 .5 2.1 1.3z" fill="#065B5B"/><path d="M12.7 17.6c0 .4-.5.8-1.1.8-.6 0-1.1-.3-1.1-.8 0-.4.5-.8 1.1-.8.6 0 1.1.4 1.1.8z" fill="#fff"/><path d="M13.3 16.5c0 .6-.8 1.1-1.9 1.1-1 0-1.9-.5-1.9-1.1v-.1c.1-.6.9-1 1.9-1 1 .1 1.9.5 1.9 1.1z" fill="#065B5B"/><path d="M12.5 16.5c0 .4-.5.8-1.1.8-.4 0-1-.3-1.1-.7v-.1c0-.4.6-.8 1.1-.8.6 0 1.1.4 1.1.8z" fill="#fff"/><path d="M10.8 14.7c-.2.1-.8.3-1.1.9-.2.4-.3.8-.3 1 .4-.3.9-.6 1.3-1 .1-.3.2-.6.1-.9z" fill="#065B5B"/><path d="M10.8 16.1c-.2.2-.3.5-.5.7 0-.1-.2-.6 0-1.2.1-.5.4-.7.5-.7-.2.4-.3.9-.2 1.1.1.1.2.1.2.1z" fill="#fff"/><path d="M23.9 17.4c0 .7.9 1.2 1.8 1.1 1-.1 1.7-.7 1.7-1.3 0-.7-.9-1.2-1.8-1.1-1 0-1.8.6-1.7 1.3z" fill="#065B5B"/><path d="M25.678 16.6c-.606.042-1.076.388-1.05.774.027.386.54.665 1.146.623.606-.041 1.076-.387 1.05-.773-.027-.386-.54-.665-1.146-.624z" fill="#fff"/><path d="M23.6 16.2c0 .7 1 1.3 2.1 1.2 1.1-.1 2-.8 1.9-1.5 0-.7-1-1.3-2.1-1.2-1.1.1-2 .7-1.9 1.5z" fill="#065B5B"/><path d="M25.424 14.916c-.772.052-1.373.45-1.344.892.03.44.679.756 1.45.705.772-.052 1.373-.451 1.344-.892-.03-.44-.679-.756-1.45-.705z" fill="#fff"/><path d="M23.9 14.8c0 .6.9 1 1.8 1 1-.1 1.7-.6 1.7-1.2v-.1c-.1-.6-.9-.9-1.8-.9-1 .1-1.8.6-1.7 1.2z" fill="#065B5B"/><path d="M24.7 14.8c0 .4.5.8 1.1.7.4 0 1-.4 1-.8v-.1c0-.4-.6-.8-1.1-.7-.6 0-1 .4-1 .9z" fill="#fff"/><path d="M25.8 12.8c.2.1.8.3 1.2.9.3.4.4.8.4 1l-1.5-.9c0-.2 0-.3-.1-.5v-.5z" fill="#065B5B"/><path d="M26.2 14.1l.6.6c0-.1.1-.6-.1-1.1-.2-.4-.6-.5-.6-.6.3.4.4.8.3.9-.1.1-.1.2-.2.2z" fill="#fff"/><path d="M16.3 11.4c.1.7-.3 1.3-.9 1.4-.6.1-1.1-.4-1.2-1.1-.2-.7.2-1.3.8-1.4.6 0 1.2.4 1.3 1.1z" fill="#065B5B"/><path d="M15.2 10.9c0 .4-.2.7-.5.8-.3 0-.6-.2-.6-.6 0-.4.2-.7.5-.8.3 0 .5.3.6.6z" fill="#fff"/><path d="M21.1 10.3c.1.7-.3 1.3-.8 1.4-.5.1-1-.4-1.1-1.1 0-.7.3-1.3.9-1.3.5-.1 1 .4 1 1z" fill="#065B5B"/><path d="M20.3 9.6c0 .2-.2.4-.5.5-.3 0-.6-.1-.6-.4 0-.2.2-.4.5-.5.3 0 .6.2.6.4zm-8.6 2.6v.4l.5.2-.2-.4-.3-.2z" fill="#fff"/><path d="M11.7 12.2l3.6 1.5 3.1 1.2-6.6-2.5-.1-.2z" fill="#065B5B"/><path d="M23.9 12.4l-4.1 2.3 3.1-1.5 2.6-1.2-.2-.3-1.4.7z" fill="#fff"/><path d="M24.9 11.7l-3.4 1.7-3.1 1.5 6.4-3.1.1-.1zm16.2-5.9c-1.7 0-3.1.7-4.1 1.9V6.1h-3.2v17.1H37v-6.3c1 1.2 2.4 1.9 4.1 1.9 3.5 0 6.1-2.8 6.1-6.5s-2.6-6.5-6.1-6.5zm-.6 10c-.5 0-.9-.1-1.4-.3-1.1-.4-1.9-1.5-2.1-2.7v-1c.2-1.3.9-2.3 2.1-2.7.4-.2.9-.3 1.4-.3 1.9 0 3.5 1.6 3.5 3.5s-1.5 3.5-3.5 3.5zm124.1-2.7c0-.4.1-.9.4-1.5.2-.6.6-1.2.9-1.8.3-.6.7-1.1.9-1.4.1-.2.2-.3.3-.4l.1-.1.8-1.1.3-.3-3-.6-.3.2-.1.1c-.1.1-.2.3-.3.5-.3.4-.7 1-1 1.6-.4.6-.8 1.4-1.1 2.2-.1.3-.3.7-.3 1.2V.8h-2.9v17.6h2.9v-3.7c.7 2.5 3.3 3.8 6.1 4.3l1.3.2.5-2.7-1.3-.2c-2.9-.5-4.2-1.8-4.2-3.2z" fill="#065B5B"/></g><defs><clipPath id="a"><path fill="#fff" transform="translate(0 .3)" d="M0 0h170v23.4H0z"/></clipPath></defs></svg>