<svg width="20" height="20" viewBox="0 0 20 20" fill="none" xmlns="http://www.w3.org/2000/svg"><g opacity=".3"><path d="M10 20c5.523 0 10-4.477 10-10S15.523 0 10 0 0 4.477 0 10s4.477 10 10 10z" fill="#000"/><path d="M4.4 15.627l.792-2.89a5.566 5.566 0 0 1-.745-2.788 5.584 5.584 0 0 1 5.577-5.576 5.54 5.54 0 0 1 3.945 1.636A5.542 5.542 0 0 1 15.6 9.954a5.585 5.585 0 0 1-5.576 5.576h-.003a5.57 5.57 0 0 1-2.664-.679l-2.957.776z" fill="#fff"/><path fill-rule="evenodd" clip-rule="evenodd" d="M12.834 11.28c-.035-.058-.128-.093-.267-.163-.14-.07-.825-.407-.953-.454-.127-.046-.22-.07-.313.07a8.08 8.08 0 0 1-.441.547c-.082.093-.163.104-.302.035-.14-.07-.588-.217-1.12-.692a4.194 4.194 0 0 1-.776-.965c-.081-.14-.009-.215.061-.285.063-.062.14-.162.21-.244.069-.081.092-.14.139-.232.046-.093.023-.175-.012-.244-.035-.07-.314-.756-.43-1.035-.113-.272-.228-.235-.313-.24a5.577 5.577 0 0 0-.267-.004.512.512 0 0 0-.372.174c-.128.14-.488.477-.488 1.163s.5 1.348.57 1.441c.069.093.982 1.5 2.38 2.104a8 8 0 0 0 .794.294c.334.106.638.09.878.055.268-.04.824-.337.94-.663.116-.325.116-.604.082-.662z" fill="#000"/></g></svg>