<svg id="line-4" width="204" height="322" viewBox="0 0 204 322" fill="none" xmlns="http://www.w3.org/2000/svg"><path data-async data-duration="40" d="M117.549 306.498H119.379V321.239H117.903V308.73L112.743 317.365H112.531L107.371 308.73V321.239H105.895V306.498H107.725L112.637 314.719L117.549 306.498Z" fill="#98CDED"/><path data-async data-duration="40" d="M129.946 316.231V310.715H131.339V321.251H129.946V319.609C129.155 320.873 127.986 321.499 126.404 321.499C125.141 321.499 124.137 321.109 123.393 320.329C122.649 319.55 122.271 318.499 122.271 317.176V310.703H123.665V317.176C123.665 318.121 123.913 318.853 124.409 319.361C124.905 319.869 125.613 320.14 126.522 320.14C127.573 320.14 128.411 319.81 129.013 319.148C129.639 318.499 129.946 317.53 129.946 316.231Z" fill="#98CDED"/><path data-async data-duration="40" d="M145.508 310.467C146.701 310.467 147.657 310.845 148.378 311.601C149.098 312.357 149.452 313.385 149.452 314.672V321.239H148.059V314.672C148.059 313.774 147.823 313.066 147.362 312.57C146.902 312.062 146.276 311.814 145.485 311.814C144.576 311.814 143.855 312.121 143.336 312.723C142.816 313.326 142.557 314.223 142.557 315.416V321.251H141.163V314.684C141.163 313.774 140.951 313.066 140.514 312.57C140.077 312.074 139.475 311.826 138.707 311.826C137.822 311.826 137.102 312.133 136.523 312.747C135.956 313.361 135.673 314.259 135.673 315.428V321.263H134.28V310.727H135.673V312.263C136.429 311.07 137.503 310.467 138.896 310.467C140.431 310.467 141.494 311.105 142.096 312.381C142.864 311.105 143.997 310.467 145.508 310.467Z" fill="#98CDED"/><path data-async data-duration="40" d="M157.788 310.467C159.288 310.467 160.563 310.998 161.625 312.073C162.688 313.136 163.231 314.447 163.231 315.995C163.231 317.542 162.7 318.841 161.625 319.916C160.575 320.979 159.299 321.522 157.788 321.522C155.922 321.522 154.505 320.755 153.537 319.207V321.274H152.144V306.534H153.537V312.806C154.505 311.235 155.922 310.467 157.788 310.467ZM154.742 318.947C155.545 319.751 156.525 320.152 157.694 320.152C158.862 320.152 159.842 319.751 160.645 318.947C161.448 318.121 161.85 317.128 161.85 315.983C161.85 314.813 161.448 313.833 160.645 313.03C159.842 312.215 158.862 311.813 157.694 311.813C156.525 311.813 155.545 312.215 154.742 313.03C153.939 313.833 153.537 314.813 153.537 315.983C153.537 317.14 153.939 318.121 154.742 318.947Z" fill="#98CDED"/><path data-async data-duration="40" d="M174.59 312.782V310.715H175.983V321.251H174.59V319.184C173.621 320.731 172.205 321.499 170.339 321.499C168.84 321.499 167.553 320.967 166.49 319.892C165.439 318.829 164.908 317.518 164.908 315.971C164.908 314.424 165.439 313.125 166.49 312.05C167.553 310.987 168.84 310.443 170.339 310.443C172.205 310.467 173.621 311.235 174.59 312.782ZM167.493 318.948C168.296 319.751 169.276 320.152 170.445 320.152C171.614 320.152 172.594 319.751 173.397 318.948C174.2 318.121 174.601 317.129 174.601 315.983C174.601 314.814 174.2 313.833 173.397 313.03C172.594 312.215 171.614 311.813 170.445 311.813C169.276 311.813 168.296 312.215 167.493 313.03C166.691 313.833 166.289 314.814 166.289 315.983C166.301 317.14 166.702 318.121 167.493 318.948Z" fill="#98CDED"/><path data-async data-duration="40" d="M180.635 307.467C180.635 307.75 180.54 307.987 180.34 308.187C180.139 308.388 179.903 308.483 179.619 308.483C179.336 308.483 179.1 308.388 178.899 308.187C178.698 307.987 178.604 307.75 178.604 307.467C178.604 307.183 178.698 306.947 178.899 306.746C179.1 306.546 179.336 306.451 179.619 306.451C179.903 306.451 180.139 306.546 180.34 306.746C180.54 306.947 180.635 307.195 180.635 307.467ZM180.328 321.251H178.935V310.715H180.328V321.251Z" fill="#98CDED"/><path data-async data-duration="40" d="M110.536 291.309C109.19 291.309 108.032 290.99 107.076 290.353C106.12 289.715 105.447 288.829 105.069 287.707L106.332 286.975C106.604 287.908 107.1 288.616 107.82 289.124C108.54 289.632 109.461 289.88 110.571 289.88C111.657 289.88 112.507 289.644 113.121 289.16C113.735 288.687 114.042 288.038 114.042 287.223C114.042 286.455 113.759 285.864 113.204 285.475C112.661 285.085 111.728 284.671 110.429 284.258C108.871 283.738 107.855 283.325 107.395 283.041C106.273 282.368 105.706 281.388 105.706 280.112C105.706 278.86 106.143 277.88 107.017 277.159C107.879 276.427 108.953 276.061 110.24 276.061C111.35 276.061 112.33 276.356 113.192 276.935C114.054 277.514 114.692 278.282 115.105 279.238L113.865 279.935C113.192 278.305 111.988 277.49 110.24 277.49C109.319 277.49 108.576 277.715 108.021 278.175C107.466 278.636 107.194 279.25 107.194 280.041C107.194 280.786 107.442 281.329 107.95 281.683C108.469 282.049 109.308 282.416 110.453 282.805L111.586 283.207C111.823 283.278 112.165 283.408 112.602 283.585C113.074 283.762 113.405 283.927 113.594 284.045C114.337 284.494 114.81 284.908 115.01 285.286C115.365 285.853 115.542 286.479 115.542 287.187C115.542 288.439 115.081 289.443 114.172 290.199C113.228 290.931 112.023 291.309 110.536 291.309Z" fill="#98CDED"/><path data-async data-duration="40" d="M119.533 277.266C119.533 277.549 119.438 277.785 119.238 277.986C119.037 278.187 118.801 278.282 118.517 278.282C118.234 278.282 117.998 278.187 117.797 277.986C117.596 277.785 117.502 277.549 117.502 277.266C117.502 276.982 117.596 276.746 117.797 276.545C117.998 276.344 118.234 276.25 118.517 276.25C118.801 276.25 119.037 276.344 119.238 276.545C119.426 276.758 119.533 276.994 119.533 277.266ZM119.214 291.05H117.821V280.514H119.214V291.05Z" fill="#98CDED"/><path data-async data-duration="40" d="M127.089 280.266C128.353 280.266 129.356 280.656 130.1 281.435C130.844 282.215 131.222 283.266 131.222 284.589V291.062H129.829V284.589C129.829 283.644 129.581 282.912 129.085 282.392C128.589 281.872 127.88 281.613 126.971 281.613C125.92 281.613 125.082 281.943 124.48 282.605C123.866 283.266 123.559 284.247 123.559 285.534V291.05H122.166V280.514H123.559V282.156C124.338 280.892 125.519 280.266 127.089 280.266Z" fill="#98CDED"/><path data-async data-duration="40" d="M142.97 282.581V280.514H144.363V290.624C144.363 292.136 143.844 293.341 142.805 294.203C141.766 295.065 140.526 295.514 139.074 295.514C136.618 295.514 134.953 294.652 134.079 292.939L135.295 292.242C135.933 293.518 137.185 294.156 139.062 294.156C140.266 294.156 141.223 293.837 141.919 293.211C142.616 292.573 142.958 291.711 142.958 290.624V288.983C141.99 290.53 140.573 291.298 138.708 291.298C137.208 291.298 135.921 290.766 134.858 289.691C133.808 288.628 133.276 287.317 133.276 285.77C133.276 284.223 133.808 282.923 134.858 281.849C135.921 280.786 137.208 280.242 138.708 280.242C140.585 280.266 142.002 281.034 142.97 282.581ZM135.874 288.758C136.677 289.561 137.657 289.963 138.826 289.963C139.995 289.963 140.975 289.561 141.778 288.758C142.581 287.931 142.982 286.939 142.982 285.782C142.982 284.612 142.581 283.632 141.778 282.829C140.975 282.014 139.995 281.612 138.826 281.612C137.657 281.612 136.677 282.026 135.874 282.829C135.071 283.632 134.67 284.612 134.67 285.782C134.67 286.939 135.071 287.931 135.874 288.758Z" fill="#98CDED"/><path data-async data-duration="40" d="M156.371 282.581V280.514H157.765V291.049H156.371V288.983C155.403 290.53 153.986 291.298 152.121 291.298C150.621 291.298 149.334 290.766 148.272 289.691C147.221 288.628 146.689 287.317 146.689 285.77C146.689 284.223 147.221 282.923 148.272 281.849C149.334 280.786 150.621 280.242 152.121 280.242C153.986 280.266 155.403 281.034 156.371 282.581ZM149.275 288.758C150.078 289.561 151.058 289.963 152.227 289.963C153.396 289.963 154.376 289.561 155.179 288.758C155.982 287.931 156.383 286.939 156.383 285.782C156.383 284.612 155.982 283.632 155.179 282.829C154.376 282.014 153.396 281.612 152.227 281.612C151.058 281.612 150.078 282.026 149.275 282.829C148.472 283.632 148.071 284.612 148.071 285.782C148.071 286.939 148.472 287.931 149.275 288.758Z" fill="#98CDED"/><path data-async data-duration="40" d="M166.349 280.266C167.848 280.266 169.123 280.798 170.186 281.872C171.249 282.935 171.792 284.247 171.792 285.794C171.792 287.341 171.26 288.64 170.186 289.715C169.135 290.778 167.86 291.321 166.349 291.321C164.483 291.321 163.066 290.554 162.098 289.006V295.29H160.705V280.538H162.098V282.605C163.066 281.034 164.483 280.266 166.349 280.266ZM163.302 288.758C164.105 289.562 165.085 289.963 166.254 289.963C167.423 289.963 168.403 289.562 169.206 288.758C170.009 287.932 170.41 286.939 170.41 285.782C170.41 284.613 170.009 283.632 169.206 282.829C168.403 282.014 167.423 281.613 166.254 281.613C165.085 281.613 164.105 282.026 163.302 282.829C162.499 283.632 162.098 284.613 162.098 285.782C162.098 286.939 162.499 287.932 163.302 288.758Z" fill="#98CDED"/><path data-async data-duration="40" d="M182.925 289.726C181.839 290.778 180.54 291.309 179.005 291.309C177.447 291.309 176.136 290.778 175.062 289.726C173.999 288.663 173.456 287.341 173.456 285.782C173.456 284.222 173.987 282.911 175.062 281.86C176.125 280.797 177.447 280.254 179.005 280.254C180.552 280.254 181.851 280.785 182.925 281.86C184.012 282.911 184.543 284.222 184.543 285.782C184.555 287.329 184.012 288.64 182.925 289.726ZM176.065 288.758C176.868 289.561 177.848 289.963 179.017 289.963C180.186 289.963 181.166 289.561 181.969 288.758C182.772 287.931 183.173 286.939 183.173 285.782C183.173 284.612 182.772 283.632 181.969 282.829C181.166 282.014 180.186 281.612 179.017 281.612C177.848 281.612 176.868 282.026 176.065 282.829C175.263 283.632 174.861 284.612 174.861 285.782C174.861 286.939 175.263 287.931 176.065 288.758Z" fill="#98CDED"/><path data-async data-duration="40" d="M188.263 280.514V282.262C188.912 280.986 190.022 280.349 191.592 280.349V281.695C190.577 281.695 189.774 281.99 189.172 282.569C188.57 283.148 188.263 284.022 188.263 285.191V291.05H186.87V280.514H188.263Z" fill="#98CDED"/><path data-async data-duration="40" d="M198.346 280.266C199.916 280.266 201.18 280.821 202.113 281.932C203.081 283.03 203.565 284.329 203.565 285.829C203.565 285.9 203.553 286.113 203.518 286.479H194.272C194.414 287.53 194.863 288.38 195.619 289.006C196.374 289.644 197.331 289.951 198.464 289.951C200.07 289.951 201.192 289.349 201.853 288.156L203.069 288.877C202.608 289.632 201.971 290.223 201.168 290.66C200.365 291.085 199.456 291.298 198.44 291.298C196.787 291.298 195.43 290.778 194.391 289.739C193.352 288.699 192.832 287.376 192.832 285.782C192.832 284.199 193.34 282.876 194.367 281.837C195.418 280.786 196.728 280.266 198.346 280.266ZM198.346 281.613C197.248 281.613 196.339 281.931 195.595 282.581C194.863 283.231 194.414 284.081 194.284 285.132H202.136C201.983 284.01 201.558 283.148 200.849 282.546C200.129 281.92 199.291 281.613 198.346 281.613Z" fill="#98CDED"/><path data-async data-duration="40" d="M120.17 75.2561C120.17 72.9293 118.293 71.0513 115.967 71.0513C113.641 71.0513 111.763 72.9293 111.763 75.2561C111.763 77.5829 113.641 79.4609 115.967 79.4609C118.281 79.4609 120.17 77.5711 120.17 75.2561Z" fill="#98CDED"/><path data-async data-duration="40" d="M120.17 75.2561C120.17 72.9293 118.293 71.0513 115.967 71.0513C113.641 71.0513 111.763 72.9293 111.763 75.2561C111.763 77.5829 113.641 79.4609 115.967 79.4609C118.281 79.4609 120.17 77.5711 120.17 75.2561Z" fill="#98CDED" stroke="white" stroke-width="0.2931" stroke-miterlimit="10"/><path data-async data-duration="40" d="M9.26465 4.41187C9.26465 2.08503 7.3873 0.207031 5.06128 0.207031C2.73526 0.207031 0.85791 2.08503 0.85791 4.41187C0.85791 6.73871 2.73526 8.61673 5.06128 8.61673C7.3873 8.61673 9.26465 6.73871 9.26465 4.41187Z" fill="#98CDED" stroke="white" stroke-width="0.2931" stroke-miterlimit="10"/><path data-async data-duration="40" d="M5.06152 4.62451V139.12V206.102H74.4999V315.204H95.8829" stroke="#98CDED" stroke-width="0.8375" stroke-miterlimit="10"/><path data-async data-duration="40" d="M115.884 78.0557L115.376 144.093L115.884 239.339H86.4248V283.549H95.3983" stroke="#98CDED" stroke-width="0.8375" stroke-miterlimit="10"/></svg>