<svg width="67" height="91" viewBox="0 0 67 91" fill="none" xmlns="http://www.w3.org/2000/svg">
<g clip-path="url(#clip0)">
<path d="M46.8401 23.7L51.0401 0.37C49.7101 0.19 48.3701 0.06 47.0101 0C47.0001 1.19 46.8401 23.7 46.8401 23.7Z" fill="white"/>
<path d="M38.93 24.4302L34.41 1.16016C33.11 1.47016 31.82 1.84016 30.53 2.27016C30.95 3.38016 38.93 24.4302 38.93 24.4302Z" fill="white"/>
<path d="M31.82 27.9684L19.2 7.89844C18.1 8.65844 17.03 9.46844 15.98 10.3384C16.77 11.2184 31.82 27.9684 31.82 27.9684Z" fill="white"/>
<path d="M26.4601 33.8397L7.45008 19.6797C6.70008 20.7797 5.99008 21.9297 5.33008 23.1197C6.39008 23.6497 26.4601 33.8397 26.4601 33.8397Z" fill="white"/>
<path d="M23.59 41.2402L0.75001 34.9102C0.45001 36.2102 0.20001 37.5302 0.0100098 38.8802C1.19001 39.0002 23.59 41.2402 23.59 41.2402Z" fill="white"/>
<path d="M23.59 49.1914L0 51.5414C0.19 52.8614 0.44 54.1914 0.75 55.5114C1.89 55.1914 23.59 49.1914 23.59 49.1914Z" fill="white"/>
<path d="M26.4601 56.6016L5.31006 67.3116C5.96006 68.4816 6.67006 69.6216 7.44006 70.7416C8.39006 70.0316 26.4601 56.6016 26.4601 56.6016Z" fill="white"/>
<path d="M31.81 62.4688L15.95 80.0887C16.98 80.9387 18.06 81.7487 19.18 82.5187C19.81 81.5187 31.81 62.4688 31.81 62.4688Z" fill="white"/>
<path d="M38.92 66.0117L30.5 88.1717C31.77 88.5917 33.06 88.9617 34.38 89.2717C34.61 88.1117 38.92 66.0117 38.92 66.0117Z" fill="white"/>
<path d="M46.8301 66.75L46.9901 90.46C48.3201 90.4 49.6701 90.27 51.0101 90.08C50.8001 88.9 46.8301 66.75 46.8301 66.75Z" fill="white"/>
<path d="M54.47 64.5703L63.18 86.6203C64.4 86.0803 65.6 85.4803 66.79 84.8203C66.17 83.8003 54.47 64.5703 54.47 64.5703Z" fill="white"/>
<path d="M54.48 25.8798L66.82 5.63984C65.65 4.98984 64.44 4.38984 63.2 3.83984C62.77 4.94984 54.48 25.8798 54.48 25.8798Z" fill="white"/>
<path d="M42.8499 23.7016L42.9799 7.10156C41.8799 7.15156 40.7799 7.26156 39.6699 7.41156C39.9699 8.95156 42.8499 23.7016 42.8499 23.7016Z" fill="white"/>
<path d="M42.8499 23.7016L42.9799 7.10156C41.8799 7.15156 40.7799 7.26156 39.6699 7.41156C39.9699 8.95156 42.8499 23.7016 42.8499 23.7016Z" fill="white"/>
<path d="M35.2101 25.8698L29.3401 10.3398C28.3401 10.7898 27.3401 11.2898 26.3701 11.8298C27.1901 13.1498 35.2101 25.8698 35.2101 25.8698Z" fill="white"/>
<path d="M35.2101 25.8698L29.3401 10.3398C28.3401 10.7898 27.3401 11.2898 26.3701 11.8298C27.1901 13.1498 35.2101 25.8698 35.2101 25.8698Z" fill="white"/>
<path d="M28.87 30.6608L17.78 18.3008C17.01 19.0808 16.26 19.9008 15.55 20.7608C16.8 21.6908 28.87 30.6608 28.87 30.6608Z" fill="white"/>
<path d="M28.87 30.6608L17.78 18.3008C17.01 19.0808 16.26 19.9008 15.55 20.7608C16.8 21.6908 28.87 30.6608 28.87 30.6608Z" fill="white"/>
<path d="M24.6799 37.4106L9.87994 29.8906C9.43994 30.9006 9.03994 31.9406 8.68994 33.0006C10.1899 33.4106 24.6799 37.4106 24.6799 37.4106Z" fill="white"/>
<path d="M24.6799 37.4106L9.87994 29.8906C9.43994 30.9006 9.03994 31.9406 8.68994 33.0006C10.1899 33.4106 24.6799 37.4106 24.6799 37.4106Z" fill="white"/>
<path d="M23.2201 45.2186L6.70011 43.5586C6.65011 44.6586 6.66011 45.7686 6.71011 46.8786C8.27011 46.7286 23.2201 45.2186 23.2201 45.2186Z" fill="white"/>
<path d="M23.2201 45.2186L6.70011 43.5586C6.65011 44.6586 6.66011 45.7686 6.71011 46.8786C8.27011 46.7286 23.2201 45.2186 23.2201 45.2186Z" fill="white"/>
<path d="M24.6799 53.0312L8.67993 57.4513C9.02993 58.4913 9.43993 59.5213 9.88993 60.5513C11.2799 59.8413 24.6799 53.0312 24.6799 53.0312Z" fill="white"/>
<path d="M24.6799 53.0312L8.67993 57.4513C9.02993 58.4913 9.43993 59.5213 9.88993 60.5513C11.2799 59.8413 24.6799 53.0312 24.6799 53.0312Z" fill="white"/>
<path d="M28.87 59.7891L15.54 69.6891C16.25 70.5291 17 71.3491 17.78 72.1391C18.83 70.9791 28.87 59.7891 28.87 59.7891Z" fill="white"/>
<path d="M28.87 59.7891L15.54 69.6891C16.25 70.5291 17 71.3491 17.78 72.1391C18.83 70.9791 28.87 59.7891 28.87 59.7891Z" fill="white"/>
<path d="M35.2101 64.5703L26.3601 78.6203C27.3201 79.1503 28.3201 79.6403 29.3401 80.0903C29.8901 78.6303 35.2101 64.5703 35.2101 64.5703Z" fill="white"/>
<path d="M35.2101 64.5703L26.3601 78.6203C27.3201 79.1503 28.3201 79.6403 29.3401 80.0903C29.8901 78.6303 35.2101 64.5703 35.2101 64.5703Z" fill="white"/>
<path d="M42.8499 66.75L39.6799 83.05C40.7699 83.2 41.8699 83.3 42.9899 83.35C42.9699 81.78 42.8499 66.75 42.8499 66.75Z" fill="white"/>
<path d="M42.8499 66.75L39.6799 83.05C40.7699 83.2 41.8699 83.3 42.9899 83.35C42.9699 81.78 42.8499 66.75 42.8499 66.75Z" fill="white"/>
<path d="M50.76 66.0117L53.69 82.3517C54.76 82.0917 55.82 81.7917 56.88 81.4317C56.31 79.9817 50.76 66.0117 50.76 66.0117Z" fill="white"/>
<path d="M50.76 66.0117L53.69 82.3517C54.76 82.0917 55.82 81.7917 56.88 81.4317C56.31 79.9817 50.76 66.0117 50.76 66.0117Z" fill="white"/>
<path d="M50.74 24.4298L56.85 8.98984C55.81 8.63984 54.74 8.34984 53.65 8.08984C53.37 9.62984 50.74 24.4298 50.74 24.4298Z" fill="white"/>
<path d="M50.74 24.4298L56.85 8.98984C55.81 8.63984 54.74 8.34984 53.65 8.08984C53.37 9.62984 50.74 24.4298 50.74 24.4298Z" fill="white"/>
<path d="M50.31 40.2191C49.06 38.3291 47.02 37.1291 44.52 37.1291C40.35 37.1291 37.47 40.4991 37.47 44.6391V44.7091C37.47 48.8391 40.42 52.2791 44.59 52.2791C47.15 52.2791 49.23 50.9691 50.46 49.0391L54.3 52.4791C52.11 55.1591 48.7 56.8691 44.46 56.8691C36.85 56.8491 32 51.4491 32 44.7591V44.6991C32 38.0191 36.9 32.5391 44.53 32.5391C48.68 32.5391 52.03 34.1591 54.2 36.7391L50.31 40.2191Z" fill="white"/>
</g>
<defs>
<clipPath id="clip0">
<rect width="66.82" height="90.45" fill="white"/>
</clipPath>
</defs>
</svg>
