<svg width="36" height="36" viewBox="0 0 36 36" fill="none" xmlns="http://www.w3.org/2000/svg"><path d="M7.187 33.188c-.38 0-.763-.082-1.127-.25a2.652 2.652 0 0 1-1.56-2.433v-2.943H3.234A3.238 3.238 0 0 1 0 24.327V6.047a3.238 3.238 0 0 1 3.234-3.235h29.532A3.238 3.238 0 0 1 36 6.046v18.281a3.238 3.238 0 0 1-3.234 3.235H13.962l-4.98 4.923a2.66 2.66 0 0 1-1.794.703zM3.234 5.062a.985.985 0 0 0-.984.984v18.281c0 .543.442.985.984.985h2.391c.621 0 1.125.503 1.125 1.125v4.068a.41.41 0 0 0 .25.39.41.41 0 0 0 .436-.046l5.273-5.212c.21-.209.495-.325.791-.325h19.266a.986.986 0 0 0 .984-.985V6.047a.985.985 0 0 0-.984-.985H3.234z" fill="#282A32"/><path d="M22.339 22.5c-.174 0-.348-.04-.507-.124L18 20.386l-3.832 1.99c-.363.19-.805.16-1.139-.076a1.044 1.044 0 0 1-.432-1.032l.734-4.23-3.11-2.993a1.038 1.038 0 0 1-.267-1.08c.127-.38.464-.658.869-.716l4.287-.615 1.92-3.842A1.08 1.08 0 0 1 18 7.2c.413 0 .79.23.97.592l1.92 3.842 4.287.615c.405.058.742.336.87.716.127.38.023.799-.269 1.08l-3.11 2.993.735 4.23c.07.397-.099.797-.432 1.032-.188.133-.41.2-.632.2zM18 18.137a1.1 1.1 0 0 1 .507.123l2.4 1.246-.462-2.657a1.04 1.04 0 0 1 .307-.928l1.965-1.892-2.705-.388a1.078 1.078 0 0 1-.813-.581L18 10.66l-1.199 2.4c-.156.313-.46.53-.813.58l-2.705.39 1.965 1.891c.251.242.366.588.307.928l-.461 2.657 2.4-1.246a1.1 1.1 0 0 1 .506-.123z" fill="#FF5F5F"/></svg>