<svg width="24" height="24" viewBox="0 0 24 24" fill="none" xmlns="http://www.w3.org/2000/svg"><g clip-path="url(#a)"><mask id="b" maskUnits="userSpaceOnUse" x="0" y="0" width="24" height="24" fill="#000"><path fill="#fff" d="M0 0h24v24H0z"/><path d="M21.75 10.373c-.339-.25-.76-.562-.816-.768-.06-.226.155-.723.329-1.122.297-.685.605-1.394.264-1.985-.345-.599-1.121-.686-1.87-.77-.428-.048-.96-.107-1.118-.267-.16-.159-.22-.69-.267-1.118-.084-.749-.171-1.524-.77-1.87-.52-.302-1.291-.038-1.985.264-.383.166-.783.325-1.123.329-.207-.054-.517-.477-.768-.817C13.195 1.664 12.706 1 12 1c-.705 0-1.195.664-1.626 1.248-.25.34-.562.763-.854.828-.258 0-.654-.173-1.037-.339-.696-.302-1.467-.563-1.984-.264-.6.346-.687 1.121-.771 1.87-.047.428-.107.958-.266 1.118-.16.16-.691.22-1.118.267-.75.084-1.526.172-1.871.77-.341.59-.034 1.299.264 1.985.174.399.39.896.33 1.122-.055.206-.478.518-.817.768C1.664 10.804 1 11.294 1 12s.664 1.196 1.25 1.627c.339.25.76.561.816.768.06.226-.155.723-.329 1.122-.297.685-.605 1.394-.264 1.985.345.599 1.121.686 1.87.77.428.048.96.107 1.118.267.16.159.22.69.267 1.118.084.749.171 1.524.77 1.87.519.301 1.29.038 1.985-.264.383-.167.776-.335 1.123-.33.206.055.517.478.768.818.431.585.92 1.249 1.626 1.249.705 0 1.195-.664 1.625-1.248.25-.34.562-.763.854-.828.259 0 .655.172 1.037.339.696.303 1.467.564 1.984.265.6-.346.687-1.121.771-1.871.047-.428.107-.959.266-1.118.16-.16.692-.22 1.118-.267.75-.084 1.526-.172 1.871-.77.342-.59.035-1.3-.264-1.985-.174-.399-.39-.895-.329-1.122.055-.207.478-.518.817-.768.586-.431 1.25-.921 1.25-1.627s-.664-1.196-1.25-1.627zm-.566 2.482c-.507.374-1.033.76-1.174 1.29-.146.55.12 1.16.377 1.752.164.379.413.95.314 1.124-.105.18-.733.251-1.15.298-.635.072-1.292.146-1.688.542-.396.396-.47 1.053-.54 1.688-.048.416-.119 1.045-.3 1.15a.235.235 0 0 1-.107.02c-.25 0-.64-.17-1.017-.334-.593-.257-1.242-.514-1.75-.376-.531.142-.918.667-1.293 1.175-.252.342-.634.86-.856.86-.222 0-.604-.518-.856-.86-.374-.507-.76-1.033-1.291-1.174a1.299 1.299 0 0 0-.334-.042c-.456 0-.945.212-1.418.419-.377.163-.767.334-1.016.334a.235.235 0 0 1-.108-.02c-.181-.106-.251-.734-.298-1.15-.072-.635-.145-1.292-.541-1.688-.395-.396-1.054-.47-1.689-.542-.415-.047-1.044-.118-1.148-.298-.1-.172.149-.745.313-1.124.258-.591.524-1.203.377-1.752-.142-.53-.668-.916-1.174-1.29-.343-.253-.86-.635-.86-.857 0-.222.517-.604.86-.857.507-.374 1.033-.76 1.174-1.29.147-.55-.12-1.16-.377-1.752-.163-.379-.413-.95-.313-1.124.105-.18.733-.251 1.15-.297.634-.072 1.292-.146 1.688-.542.396-.396.47-1.053.541-1.688.046-.416.117-1.044.298-1.15a.235.235 0 0 1 .108-.02c.248 0 .639.17 1.015.335.593.257 1.24.515 1.75.376.532-.142.918-.667 1.293-1.175.253-.342.634-.86.856-.86.222 0 .605.518.857.86.374.506.76 1.031 1.292 1.173.505.135 1.157-.118 1.75-.376.377-.163.767-.334 1.017-.334.033 0 .08.004.107.02.181.106.251.734.298 1.15.072.635.146 1.292.542 1.688.395.396 1.053.47 1.688.542.415.047 1.044.117 1.149.298.1.172-.15.745-.314 1.124-.257.591-.523 1.202-.377 1.752.143.53.668.916 1.175 1.29.342.253.86.635.86.857 0 .222-.518.604-.86.855z"/></mask><path d="M21.75 10.373c-.339-.25-.76-.562-.816-.768-.06-.226.155-.723.329-1.122.297-.685.605-1.394.264-1.985-.345-.599-1.121-.686-1.87-.77-.428-.048-.96-.107-1.118-.267-.16-.159-.22-.69-.267-1.118-.084-.749-.171-1.524-.77-1.87-.52-.302-1.291-.038-1.985.264-.383.166-.783.325-1.123.329-.207-.054-.517-.477-.768-.817C13.195 1.664 12.706 1 12 1c-.705 0-1.195.664-1.626 1.248-.25.34-.562.763-.854.828-.258 0-.654-.173-1.037-.339-.696-.302-1.467-.563-1.984-.264-.6.346-.687 1.121-.771 1.87-.047.428-.107.958-.266 1.118-.16.16-.691.22-1.118.267-.75.084-1.526.172-1.871.77-.341.59-.034 1.299.264 1.985.174.399.39.896.33 1.122-.055.206-.478.518-.817.768C1.664 10.804 1 11.294 1 12s.664 1.196 1.25 1.627c.339.25.76.561.816.768.06.226-.155.723-.329 1.122-.297.685-.605 1.394-.264 1.985.345.599 1.121.686 1.87.77.428.048.96.107 1.118.267.16.159.22.69.267 1.118.084.749.171 1.524.77 1.87.519.301 1.29.038 1.985-.264.383-.167.776-.335 1.123-.33.206.055.517.478.768.818.431.585.92 1.249 1.626 1.249.705 0 1.195-.664 1.625-1.248.25-.34.562-.763.854-.828.259 0 .655.172 1.037.339.696.303 1.467.564 1.984.265.6-.346.687-1.121.771-1.871.047-.428.107-.959.266-1.118.16-.16.692-.22 1.118-.267.75-.084 1.526-.172 1.871-.77.342-.59.035-1.3-.264-1.985-.174-.399-.39-.895-.329-1.122.055-.207.478-.518.817-.768.586-.431 1.25-.921 1.25-1.627s-.664-1.196-1.25-1.627zm-.566 2.482c-.507.374-1.033.76-1.174 1.29-.146.55.12 1.16.377 1.752.164.379.413.95.314 1.124-.105.18-.733.251-1.15.298-.635.072-1.292.146-1.688.542-.396.396-.47 1.053-.54 1.688-.048.416-.119 1.045-.3 1.15a.235.235 0 0 1-.107.02c-.25 0-.64-.17-1.017-.334-.593-.257-1.242-.514-1.75-.376-.531.142-.918.667-1.293 1.175-.252.342-.634.86-.856.86-.222 0-.604-.518-.856-.86-.374-.507-.76-1.033-1.291-1.174a1.299 1.299 0 0 0-.334-.042c-.456 0-.945.212-1.418.419-.377.163-.767.334-1.016.334a.235.235 0 0 1-.108-.02c-.181-.106-.251-.734-.298-1.15-.072-.635-.145-1.292-.541-1.688-.395-.396-1.054-.47-1.689-.542-.415-.047-1.044-.118-1.148-.298-.1-.172.149-.745.313-1.124.258-.591.524-1.203.377-1.752-.142-.53-.668-.916-1.174-1.29-.343-.253-.86-.635-.86-.857 0-.222.517-.604.86-.857.507-.374 1.033-.76 1.174-1.29.147-.55-.12-1.16-.377-1.752-.163-.379-.413-.95-.313-1.124.105-.18.733-.251 1.15-.297.634-.072 1.292-.146 1.688-.542.396-.396.47-1.053.541-1.688.046-.416.117-1.044.298-1.15a.235.235 0 0 1 .108-.02c.248 0 .639.17 1.015.335.593.257 1.24.515 1.75.376.532-.142.918-.667 1.293-1.175.253-.342.634-.86.856-.86.222 0 .605.518.857.86.374.506.76 1.031 1.292 1.173.505.135 1.157-.118 1.75-.376.377-.163.767-.334 1.017-.334.033 0 .08.004.107.02.181.106.251.734.298 1.15.072.635.146 1.292.542 1.688.395.396 1.053.47 1.688.542.415.047 1.044.117 1.149.298.1.172-.15.745-.314 1.124-.257.591-.523 1.202-.377 1.752.143.53.668.916 1.175 1.29.342.253.86.635.86.857 0 .222-.518.604-.86.855z" fill="#369CB7"/><path d="M21.75 10.373c-.339-.25-.76-.562-.816-.768-.06-.226.155-.723.329-1.122.297-.685.605-1.394.264-1.985-.345-.599-1.121-.686-1.87-.77-.428-.048-.96-.107-1.118-.267-.16-.159-.22-.69-.267-1.118-.084-.749-.171-1.524-.77-1.87-.52-.302-1.291-.038-1.985.264-.383.166-.783.325-1.123.329-.207-.054-.517-.477-.768-.817C13.195 1.664 12.706 1 12 1c-.705 0-1.195.664-1.626 1.248-.25.34-.562.763-.854.828-.258 0-.654-.173-1.037-.339-.696-.302-1.467-.563-1.984-.264-.6.346-.687 1.121-.771 1.87-.047.428-.107.958-.266 1.118-.16.16-.691.22-1.118.267-.75.084-1.526.172-1.871.77-.341.59-.034 1.299.264 1.985.174.399.39.896.33 1.122-.055.206-.478.518-.817.768C1.664 10.804 1 11.294 1 12s.664 1.196 1.25 1.627c.339.25.76.561.816.768.06.226-.155.723-.329 1.122-.297.685-.605 1.394-.264 1.985.345.599 1.121.686 1.87.77.428.048.96.107 1.118.267.16.159.22.69.267 1.118.084.749.171 1.524.77 1.87.519.301 1.29.038 1.985-.264.383-.167.776-.335 1.123-.33.206.055.517.478.768.818.431.585.92 1.249 1.626 1.249.705 0 1.195-.664 1.625-1.248.25-.34.562-.763.854-.828.259 0 .655.172 1.037.339.696.303 1.467.564 1.984.265.6-.346.687-1.121.771-1.871.047-.428.107-.959.266-1.118.16-.16.692-.22 1.118-.267.75-.084 1.526-.172 1.871-.77.342-.59.035-1.3-.264-1.985-.174-.399-.39-.895-.329-1.122.055-.207.478-.518.817-.768.586-.431 1.25-.921 1.25-1.627s-.664-1.196-1.25-1.627zm-.566 2.482c-.507.374-1.033.76-1.174 1.29-.146.55.12 1.16.377 1.752.164.379.413.95.314 1.124-.105.18-.733.251-1.15.298-.635.072-1.292.146-1.688.542-.396.396-.47 1.053-.54 1.688-.048.416-.119 1.045-.3 1.15a.235.235 0 0 1-.107.02c-.25 0-.64-.17-1.017-.334-.593-.257-1.242-.514-1.75-.376-.531.142-.918.667-1.293 1.175-.252.342-.634.86-.856.86-.222 0-.604-.518-.856-.86-.374-.507-.76-1.033-1.291-1.174a1.299 1.299 0 0 0-.334-.042c-.456 0-.945.212-1.418.419-.377.163-.767.334-1.016.334a.235.235 0 0 1-.108-.02c-.181-.106-.251-.734-.298-1.15-.072-.635-.145-1.292-.541-1.688-.395-.396-1.054-.47-1.689-.542-.415-.047-1.044-.118-1.148-.298-.1-.172.149-.745.313-1.124.258-.591.524-1.203.377-1.752-.142-.53-.668-.916-1.174-1.29-.343-.253-.86-.635-.86-.857 0-.222.517-.604.86-.857.507-.374 1.033-.76 1.174-1.29.147-.55-.12-1.16-.377-1.752-.163-.379-.413-.95-.313-1.124.105-.18.733-.251 1.15-.297.634-.072 1.292-.146 1.688-.542.396-.396.47-1.053.541-1.688.046-.416.117-1.044.298-1.15a.235.235 0 0 1 .108-.02c.248 0 .639.17 1.015.335.593.257 1.24.515 1.75.376.532-.142.918-.667 1.293-1.175.253-.342.634-.86.856-.86.222 0 .605.518.857.86.374.506.76 1.031 1.292 1.173.505.135 1.157-.118 1.75-.376.377-.163.767-.334 1.017-.334.033 0 .08.004.107.02.181.106.251.734.298 1.15.072.635.146 1.292.542 1.688.395.396 1.053.47 1.688.542.415.047 1.044.117 1.149.298.1.172-.15.745-.314 1.124-.257.591-.523 1.202-.377 1.752.143.53.668.916 1.175 1.29.342.253.86.635.86.857 0 .222-.518.604-.86.855z" stroke="#369CB7" mask="url(#b)"/><path d="M6.723 9.74a.577.577 0 0 0-.646-.201l.032.095-.031-.095a.578.578 0 0 0-.396.548v3.826a.578.578 0 0 0 1.157 0v-2.091l1.828 2.438a.58.58 0 0 0 1.041-.347v-3.826a.578.578 0 0 0-1.156 0v2.091L6.723 9.74zm6.234 3.595h-1.335v-2.67h1.335a.578.578 0 0 0 0-1.156h-1.913a.578.578 0 0 0-.579.578v3.826c0 .32.26.578.579.578h1.913a.578.578 0 0 0 0-1.156z" fill="#369CB7" stroke="#369CB7" stroke-width=".2"/><path d="M12.957 11.422h-1.913a.579.579 0 0 0 0 1.156h1.913a.578.578 0 0 0 0-1.156zm5.877-1.896a.577.577 0 0 1 .422.7v.001l-.957 3.826a.577.577 0 0 1-.534.437l-.025.001a.58.58 0 0 1-.55-.395l-.407-1.224-.408 1.224a.555.555 0 0 1-.57.394m3.03-4.964l-1.504 1.335c-.083-.248-.325-.361-.549-.361-.223 0-.465.113-.549.36l-.328.986-.474-1.899a.579.579 0 0 0-1.122.28l.956 3.826a.578.578 0 0 0 .54.437m3.03-4.964a.576.576 0 0 0-.701.421m.7-.421l-.7.421m-2.33 4.543l.004-.1-.004.1zm2.33-4.543l-.475 1.9-.328-.986.803-.914z" fill="#369CB7" stroke="#369CB7" stroke-width=".2"/></g><defs><clipPath id="a"><path fill="#fff" transform="translate(1 1)" d="M0 0h22v22H0z"/></clipPath></defs></svg>