<svg width="48" height="48" viewBox="0 0 48 48" fill="none" xmlns="http://www.w3.org/2000/svg"><rect width="48" height="48" rx="24" fill="#419FD9"/><path fill-rule="evenodd" clip-rule="evenodd" d="M29.335 35.884c1.678.734 2.307-.804 2.307-.804l4.438-22.297c-.035-1.502-2.062-.594-2.062-.594L9.17 21.94s-1.188.42-1.083 1.154c.104.734 1.048 1.083 1.048 1.083l6.256 2.097s1.887 6.186 2.271 7.374c.35 1.154.664 1.189.664 1.189.35.14.664-.105.664-.105l4.054-3.67 6.291 4.823zm1.084-19.151s.873-.525.838 0c0 0 .14.07-.314.559-.42.419-10.31 9.296-11.638 10.484a.367.367 0 0 0-.175.315l-.384 3.285c-.07.35-.524.384-.63.07l-1.642-5.382c-.07-.21 0-.455.21-.595l13.735-8.736z" fill="#fff"/></svg>