<svg width="48" height="48" viewBox="0 0 48 48" fill="none" xmlns="http://www.w3.org/2000/svg"><rect width="48" height="48" rx="24" fill="#675DA9"/><g fill="#fff"><path d="M35.754 12.184c-.794-.73-4.008-3.066-11.172-3.098 0 0-8.445-.512-12.562 3.265-2.292 2.292-3.098 5.64-3.181 9.802-.084 4.155-.193 11.947 7.317 14.06h.007l-.007 3.22s-.044 1.306.814 1.569c1.037.32 1.651-.673 2.644-1.742a95.934 95.934 0 0 0 1.863-2.106c5.134.429 9.085-.557 9.533-.705 1.037-.339 6.908-1.088 7.862-8.88.986-8.015-.48-13.092-3.118-15.384zm.87 14.822c-.806 6.505-5.563 6.914-6.44 7.196-.371.122-3.841.986-8.208.698 0 0-3.252 3.925-4.264 4.943-.16.16-.346.224-.467.192-.173-.045-.224-.25-.218-.55 0-.436.026-5.36.026-5.36-.007 0-.007 0 0 0-6.358-1.76-5.986-8.393-5.916-11.863.07-3.47.723-6.32 2.663-8.234 3.477-3.15 10.654-2.682 10.654-2.682 6.056.025 8.957 1.85 9.629 2.458 2.234 1.921 3.374 6.499 2.542 13.202z"/><path d="M27.533 22.384a.406.406 0 0 1-.403-.385c-.07-1.376-.717-2.048-2.036-2.119a.408.408 0 0 1 .045-.813c1.741.096 2.714 1.095 2.804 2.887a.398.398 0 0 1-.384.423c-.013.007-.02.007-.026.007z"/><path d="M29.608 23.075H29.6a.407.407 0 0 1-.397-.416c.032-1.383-.365-2.503-1.21-3.425-.838-.922-1.997-1.421-3.527-1.53a.403.403 0 0 1-.372-.436.403.403 0 0 1 .436-.371c1.728.128 3.092.73 4.065 1.793.98 1.069 1.453 2.407 1.421 3.988a.41.41 0 0 1-.41.397z"/><path d="M31.733 23.907a.402.402 0 0 1-.403-.403c-.02-2.478-.73-4.366-2.177-5.781-1.428-1.396-3.24-2.106-5.372-2.126a.407.407 0 0 1 0-.813c2.35.02 4.348.807 5.929 2.356 1.588 1.55 2.4 3.688 2.426 6.351a.4.4 0 0 1-.403.416c.006 0 .006 0 0 0zm-6.543 3.49s.57.05.877-.327l.595-.749c.288-.371.986-.608 1.665-.23a16.59 16.59 0 0 1 1.485.947 39.115 39.115 0 0 1 1.383 1.108c.442.371.544.915.243 1.498v.013a6.248 6.248 0 0 1-1.242 1.53c-.006 0-.006.006-.013.006-.428.359-.851.564-1.26.608-.052.013-.11.013-.186.013a1.73 1.73 0 0 1-.538-.083l-.013-.02c-.64-.178-1.703-.627-3.47-1.606a20.617 20.617 0 0 1-2.92-1.927 15.2 15.2 0 0 1-1.312-1.165l-.045-.045-.045-.045-.044-.045-.045-.045a16.06 16.06 0 0 1-1.165-1.312 20.232 20.232 0 0 1-1.928-2.92c-.98-1.773-1.427-2.836-1.607-3.47l-.019-.012a1.742 1.742 0 0 1-.07-.724c.051-.416.256-.832.608-1.261 0-.007.006-.007.006-.013a6.099 6.099 0 0 1 1.53-1.242h.013c.577-.301 1.12-.199 1.499.243 0 0 .774.928 1.107 1.383.314.429.736 1.108.948 1.485.377.68.14 1.377-.23 1.665l-.75.595c-.378.308-.326.878-.326.878s1.107 4.212 5.269 5.269z"/></g></svg>