<svg width="47" height="46" viewBox="0 0 47 46" fill="none" xmlns="http://www.w3.org/2000/svg"><g clip-path="url(#a)" fill="#fff"><path d="M10.044 8.005H1.382C.62 8.005 0 7.399 0 6.652s.619-1.353 1.382-1.353h8.662c.763 0 1.382.606 1.382 1.353s-.619 1.353-1.382 1.353z"/><path d="M14.992 12.848c-3.492 0-6.332-2.78-6.332-6.196 0-3.418 2.84-6.198 6.332-6.198 3.491 0 6.332 2.78 6.332 6.198 0 3.417-2.84 6.196-6.332 6.196zm0-9.688c-1.967 0-3.567 1.566-3.567 3.492 0 1.925 1.6 3.49 3.567 3.49s3.567-1.565 3.567-3.49c0-1.926-1.6-3.492-3.567-3.492zM45.62 8.005H24.96c-.763 0-1.382-.606-1.382-1.353s.619-1.353 1.383-1.353h20.66c.763 0 1.382.606 1.382 1.353s-.618 1.353-1.382 1.353zM33.554 29.197c-3.491 0-6.331-2.78-6.331-6.197 0-3.416 2.84-6.196 6.331-6.196 3.492 0 6.332 2.78 6.332 6.197 0 3.416-2.84 6.196-6.332 6.196zm0-9.687c-1.967 0-3.567 1.565-3.567 3.49 0 1.926 1.6 3.491 3.567 3.491s3.568-1.565 3.568-3.49c0-1.926-1.6-3.491-3.568-3.491zm-9.964 4.843H1.382C.62 24.353 0 23.747 0 23s.619-1.352 1.382-1.352H23.59c.763 0 1.382.605 1.382 1.352 0 .747-.619 1.353-1.382 1.353z"/><path d="M45.618 24.353h-7.115c-.763 0-1.382-.606-1.382-1.353s.619-1.352 1.382-1.352h7.115c.764 0 1.383.605 1.383 1.352 0 .747-.62 1.353-1.383 1.353zM13.449 45.547c-3.491 0-6.332-2.78-6.332-6.198 0-3.417 2.84-6.197 6.332-6.197s6.332 2.78 6.332 6.197c0 3.418-2.84 6.198-6.332 6.198zm0-9.689c-1.967 0-3.567 1.566-3.567 3.491s1.6 3.492 3.567 3.492 3.567-1.567 3.567-3.492-1.6-3.49-3.567-3.49zm32.168 4.844H23.41c-.764 0-1.383-.606-1.383-1.353s.62-1.353 1.383-1.353h22.207c.764 0 1.382.606 1.382 1.353s-.619 1.353-1.382 1.353z"/><path d="M8.497 40.702H1.382C.62 40.702 0 40.096 0 39.349s.619-1.353 1.382-1.353h7.115c.764 0 1.382.606 1.382 1.353s-.618 1.353-1.382 1.353z"/></g><defs><clipPath id="a"><path fill="#fff" d="M0 0h47v46H0z"/></clipPath></defs></svg>