<svg width="23" height="23" viewBox="0 0 23 23" fill="none" xmlns="http://www.w3.org/2000/svg"><g clip-path="url(#a)" fill="#69CCDB"><path d="M17.486 15.215c-.752-.742-1.69-.742-2.436 0-.57.565-1.14 1.13-1.7 1.704-.152.158-.282.191-.468.086-.369-.201-.761-.364-1.115-.584-1.652-1.039-3.035-2.374-4.26-3.877-.608-.747-1.149-1.546-1.527-2.446-.076-.181-.062-.301.086-.45.57-.55 1.125-1.115 1.685-1.68.78-.784.78-1.703-.005-2.493-.445-.45-.89-.89-1.335-1.34-.46-.46-.914-.924-1.379-1.378-.75-.733-1.689-.733-2.436.004-.574.565-1.124 1.144-1.708 1.7C.347 4.972.074 5.6.017 6.33c-.091 1.193.2 2.317.612 3.413.843 2.269 2.125 4.284 3.68 6.131 2.102 2.499 4.61 4.475 7.544 5.901 1.32.642 2.69 1.135 4.178 1.216 1.024.058 1.914-.2 2.628-1 .488-.546 1.038-1.044 1.555-1.565.766-.776.77-1.714.01-2.48-.91-.913-1.824-1.823-2.738-2.732zM16.57 11.4l1.767-.301a7.894 7.894 0 0 0-2.206-4.26 7.85 7.85 0 0 0-4.5-2.244l-.248 1.775a6.091 6.091 0 0 1 3.484 1.738 6.09 6.09 0 0 1 1.704 3.292zm2.762-7.676A13.022 13.022 0 0 0 11.866 0l-.249 1.776c2.46.344 4.69 1.46 6.452 3.216a11.282 11.282 0 0 1 3.163 6.102L23 10.793a13.119 13.119 0 0 0-3.667-7.07z"/></g><defs><clipPath id="a"><path fill="#fff" d="M0 0h23v23H0z"/></clipPath></defs></svg>