<svg width="47" height="47" viewBox="0 0 47 47" fill="none" xmlns="http://www.w3.org/2000/svg"><g clip-path="url(#a)" fill="#EF7E20"><path d="M37.377 18.537h-.066a3.624 3.624 0 0 0-2.443.929c-.543-1.503-1.922-2.582-3.538-2.582a3.67 3.67 0 0 0-2.622 1.128c-.63-1.277-1.896-2.144-3.351-2.144h-.07a3.44 3.44 0 0 0-2.158.72V7.482c0-2.2-1.713-3.99-3.797-3.99-2.08 0-3.785 1.789-3.786 3.987l-.017 18.064-1.022-1.242a5.156 5.156 0 0 0-3.644-1.914 5.073 5.073 0 0 0-3.8 1.345l-.89.737a.79.79 0 0 0-.197.974l8.648 16.623C16.205 45.105 19.214 47 22.475 47h9.746v-.009c4.942 0 8.948-4.288 8.953-9.553.002-2.355-.007-4.11-.005-5.534.005-3.807 0-5.212-.009-9.406-.005-2.195-1.705-3.961-3.783-3.961zm2.199 13.362l-.006 5.541c-.005 4.395-3.322 7.978-7.395 7.978h-9.7c-2.67 0-5.14-1.57-6.448-4.081L7.673 25.284l.413-.344.03-.027a3.51 3.51 0 0 1 2.635-.947c.994.076 1.91.562 2.531 1.34l2.42 2.945a.79.79 0 0 0 1.402-.5l.014-20.27c0-1.327 1.005-2.407 2.215-2.407 1.211 0 2.215 1.081 2.215 2.409v12.221l-.002.129.002.055v5.225a.79.79 0 0 0 1.581 0v-5.382c0-1.28.978-2.281 2.158-2.281h.07c1.211 0 2.22 1.056 2.22 2.384v4.78a.79.79 0 0 0 1.58 0v-3.75c0-1.329.96-2.41 2.178-2.41 1.211 0 2.171 1.08 2.171 2.41v3.538a.79.79 0 0 0 1.581 0v-1.916c0-1.328 1.012-2.368 2.224-2.368h.066c1.208 0 2.193 1.057 2.196 2.382.01 4.19.008 5.594.003 9.399z"/><path d="M13.035 7.824a.79.79 0 0 0 .79-.79 5.479 5.479 0 0 1 10.958 0 .79.79 0 0 0 1.581 0 7.06 7.06 0 0 0-14.12 0c0 .436.354.79.79.79z"/></g><defs><clipPath id="a"><path fill="#fff" d="M0 0h47v47H0z"/></clipPath></defs></svg>