<svg width="48" height="48" viewBox="0 0 48 48" fill="none" xmlns="http://www.w3.org/2000/svg"><path d="M27 21h-8v8h8v-8zm-8 4h8" stroke="#00266F" stroke-width="1.5" stroke-miterlimit="10" stroke-linejoin="round"/><path d="M23 29v2m16-20h4m-5.828 7L40 20M37.172 3L40 1.172M7 11H3m5.828 7L6 20M9 3L6.172 1.172M43 47v-5l-20-6-20 6v5" stroke="#00266F" stroke-width="1.5" stroke-miterlimit="10" stroke-linecap="round" stroke-linejoin="round"/><path d="M11.908 39.328L10 44l6 3m7 0l-6.094-9.172m17.328 1.542l1.89 4.63-6 3m-7 0l6.074-9.14" stroke="#00266F" stroke-width="1.5" stroke-miterlimit="10" stroke-linecap="round" stroke-linejoin="round"/><path d="M19.862 42.276L23 36l3.192 6.384" stroke="#00266F" stroke-width="1.5" stroke-miterlimit="10" stroke-linejoin="round"/><path d="M23 21v-8l3-3m-3 3l-3-3" stroke="#00266F" stroke-width="1.5" stroke-miterlimit="10" stroke-linecap="round" stroke-linejoin="round"/><path d="M19 21l-6-3.3V6.3L23 1l10 5.3v11.4L27 21" stroke="#00266F" stroke-width="1.5" stroke-miterlimit="10" stroke-linecap="round" stroke-linejoin="round"/></svg>