<svg width="46" height="46" viewBox="0 0 46 46" fill="none" xmlns="http://www.w3.org/2000/svg"><mask id="a" fill="#fff"><path d="M44.753 15.53A23 23 0 0 0 27.541.454l-.165.818a22.165 22.165 0 0 1 16.588 14.531l.79-.271z"/></mask><path d="M44.753 15.53A23 23 0 0 0 27.541.454l-.165.818a22.165 22.165 0 0 1 16.588 14.531l.79-.271z" stroke="#FF842F" stroke-width="2" mask="url(#a)"/><mask id="b" fill="#fff"><path d="M2.817 34.03a23 23 0 0 0 10.384 9.778l.356-.755A22.165 22.165 0 0 1 3.55 33.629l-.733.4z"/></mask><path d="M2.817 34.03a23 23 0 0 0 10.384 9.778l.356-.755A22.165 22.165 0 0 1 3.55 33.629l-.733.4z" stroke="#FF842F" stroke-width="2" mask="url(#b)"/></svg>