<svg width="311" height="176" viewBox="0 0 311 176" fill="none" xmlns="http://www.w3.org/2000/svg"><path d="M3.962 65.603h2.67l3.046 8.386c.11.334.375.723.792 1.168.417.417.78.723 1.085.918.973.64 2.016 1.223 3.129 1.752 1.112.5 2.239.945 3.38 1.335a34.34 34.34 0 0 0 3.295.876c1.057.195 2.016.292 2.878.292 1.836 0 3.491-.25 4.965-.75 1.474-.502 2.74-1.225 3.796-2.17 1.057-.946 1.864-2.114 2.42-3.505.556-1.39.834-2.976.834-4.756 0-2.53-.709-4.603-2.127-6.216-1.39-1.64-3.282-2.976-5.674-4.005a31.667 31.667 0 0 0-3.212-1.126l-3.17-.918-3.171-.918a35.594 35.594 0 0 1-3.171-1.084c-3.143-1.28-5.59-3.101-7.343-5.466-1.752-2.391-2.628-5.27-2.628-8.635 0-2.364.473-4.575 1.419-6.634a16.836 16.836 0 0 1 3.88-5.423c1.668-1.558 3.629-2.767 5.882-3.63 2.28-.862 4.742-1.293 7.384-1.293 1.446 0 2.878.084 4.297.25a49.58 49.58 0 0 1 4.214.585c1.362.25 2.67.556 3.921.917 1.28.334 2.517.682 3.713 1.043V40.49h-2.67l-2.67-7.802c-.139-.417-.403-.792-.793-1.126a8.641 8.641 0 0 0-1-.876c-.64-.473-1.391-.876-2.254-1.21a19.51 19.51 0 0 0-2.628-.918 18.19 18.19 0 0 0-2.67-.542 15.596 15.596 0 0 0-2.378-.209c-1.724 0-3.254.223-4.589.668-1.335.445-2.461 1.07-3.38 1.877a8.253 8.253 0 0 0-2.127 2.92c-.5 1.113-.75 2.323-.75 3.63 0 1.168.11 2.308.333 3.42a10.6 10.6 0 0 0 1.252 3.088c.612.946 1.432 1.836 2.461 2.67 1.03.806 2.336 1.488 3.921 2.044 1.002.362 2.003.696 3.004 1.001a172.3 172.3 0 0 1 3.046.877 80.93 80.93 0 0 1 3.129 1c1.056.335 2.169.738 3.337 1.21 1.28.557 2.545 1.21 3.797 1.961a13.634 13.634 0 0 1 3.379 2.796c1.001 1.084 1.794 2.391 2.378 3.921.612 1.53.918 3.338.918 5.423 0 2.198-.404 4.381-1.21 6.55-.807 2.142-2.086 4.061-3.838 5.758-1.725 1.696-3.95 3.073-6.675 4.13-2.698 1.057-5.952 1.585-9.763 1.585a25.07 25.07 0 0 1-3.963-.334A70.617 70.617 0 0 1 9.303 82c-1.503-.445-2.99-.904-4.465-1.377l-.876-15.019zm44.256 15.311l4.59-1.126c.583-.167 1.028-.431 1.334-.793.334-.39.5-.89.5-1.502V28.432c0-.723-.18-1.307-.542-1.752-.361-.473-.987-.876-1.877-1.21l-4.088-1.544v-1.418l13.767-2.795v28.076c1.168-1.585 2.308-2.837 3.42-3.754 1.141-.946 2.24-1.669 3.297-2.17 1.084-.5 2.155-.834 3.212-1a20.563 20.563 0 0 1 3.212-.251c1.808 0 3.518.278 5.132.834a11.152 11.152 0 0 1 4.213 2.587c1.224 1.168 2.183 2.67 2.879 4.505.695 1.836 1.043 4.033 1.043 6.592v22.152c0 .696.167 1.252.5 1.67.362.389.807.667 1.335.834l4.089 1.126V83H74.71v-2.086l4.589-1.126c.472-.14.876-.417 1.21-.835.361-.417.542-.973.542-1.669V57.927c0-1.891-.112-3.588-.334-5.09-.222-1.53-.668-2.823-1.335-3.88-.668-1.084-1.6-1.919-2.795-2.503-1.196-.584-2.767-.876-4.714-.876-.835 0-1.71.084-2.629.25a13.74 13.74 0 0 0-2.711.793c-.863.334-1.697.779-2.504 1.335a9.682 9.682 0 0 0-2.127 2.003V77.45c0 .64.167 1.155.5 1.544.334.362.78.626 1.335.793l3.964 1.126V83H48.218v-2.086zm69.36 3.212c-2.976 0-5.674-.5-8.094-1.502-2.392-1.028-4.436-2.489-6.132-4.38-1.697-1.891-3.004-4.172-3.922-6.842-.918-2.67-1.377-5.646-1.377-8.928 0-3.059.445-5.91 1.335-8.552.918-2.642 2.225-4.95 3.922-6.925 1.724-1.975 3.81-3.532 6.258-4.673 2.475-1.14 5.284-1.71 8.427-1.71 3.337 0 6.23.612 8.677 1.835 2.448 1.196 4.464 2.796 6.049 4.798 1.614 1.975 2.81 4.27 3.588 6.884.807 2.614 1.21 5.34 1.21 8.176 0 3.004-.459 5.827-1.377 8.47-.89 2.642-2.197 4.964-3.921 6.966-1.697 1.975-3.783 3.533-6.258 4.673-2.447 1.14-5.243 1.71-8.385 1.71zm.584-3.087c2.252 0 4.116-.57 5.59-1.71 1.474-1.168 2.642-2.628 3.504-4.38.863-1.78 1.46-3.714 1.794-5.8a38 38 0 0 0 .501-6.007c0-2.336-.223-4.659-.668-6.967-.417-2.336-1.112-4.422-2.086-6.258-.945-1.863-2.197-3.365-3.754-4.506-1.558-1.168-3.449-1.752-5.674-1.752-1.474 0-2.781.264-3.922.793a9.651 9.651 0 0 0-3.003 2.17c-.835.89-1.544 1.932-2.128 3.128a22.29 22.29 0 0 0-1.377 3.755 27.417 27.417 0 0 0-.709 4.047 38.682 38.682 0 0 0-.208 3.921c0 1.419.069 2.893.208 4.422.167 1.502.431 2.976.793 4.422.389 1.419.89 2.782 1.502 4.089.612 1.307 1.362 2.447 2.252 3.42a10.899 10.899 0 0 0 3.171 2.337c1.224.584 2.628.876 4.214.876zm23.49 19.691l4.714-1.168c.557-.139 1.002-.403 1.335-.792.334-.39.501-.89.501-1.502V49.625c0-.695-.195-1.28-.584-1.752-.362-.473-.974-.876-1.836-1.21l-4.005-1.46v-1.46l13.309-2.754v6.8h.125c1.14-1.64 2.322-2.934 3.546-3.88 1.251-.945 2.461-1.654 3.629-2.127 1.196-.5 2.323-.82 3.38-.96a22.92 22.92 0 0 1 2.878-.208c2.559 0 4.84.514 6.842 1.543a14.276 14.276 0 0 1 5.09 4.172c1.39 1.78 2.447 3.894 3.17 6.341.751 2.42 1.127 5.076 1.127 7.969 0 3.198-.445 6.202-1.335 9.011-.89 2.781-2.17 5.215-3.838 7.3-1.641 2.087-3.672 3.742-6.091 4.965-2.392 1.196-5.118 1.794-8.177 1.794-1.196 0-2.295-.111-3.296-.334a13.544 13.544 0 0 1-2.712-.917c-.806-.39-1.543-.82-2.211-1.294a16.816 16.816 0 0 1-1.794-1.543v17.647c0 .612.167 1.112.501 1.502.362.417.82.681 1.377.792l5.882 1.168v2.086h-21.527v-2.086zm13.767-23.32c.501.417 1.155.792 1.961 1.126.834.306 1.683.57 2.545.793.89.222 1.738.39 2.545.5.834.112 1.516.167 2.044.167 2.197 0 4.088-.445 5.674-1.335a11.821 11.821 0 0 0 3.963-3.63c1.057-1.501 1.836-3.24 2.336-5.214a25.52 25.52 0 0 0 .751-6.216c0-2.587-.236-4.965-.709-7.134-.473-2.197-1.224-4.102-2.253-5.716-1.029-1.64-2.336-2.92-3.921-3.838-1.586-.917-3.491-1.376-5.716-1.376-.64 0-1.377.083-2.211.25-.806.139-1.627.375-2.461.71a10.56 10.56 0 0 0-2.462 1.418 9.716 9.716 0 0 0-2.086 2.169V77.41z" fill="#1B2832"/><path d="M111.96 143.695l4.682-1.454c.496-.142.886-.39 1.17-.745.284-.355.425-.792.425-1.312v-37.629c0-.52-.141-.946-.425-1.277-.284-.354-.674-.602-1.17-.744l-4.682-1.419v-2.34h21.705c2.601 0 5.036.26 7.306.78 2.293.496 4.291 1.288 5.993 2.376 1.726 1.087 3.086 2.482 4.079 4.185 1.016 1.678 1.525 3.712 1.525 6.1 0 2.53-.426 4.811-1.277 6.844-.851 2.01-2.022 3.724-3.511 5.143-1.466 1.419-3.204 2.506-5.213 3.263-2.01.756-4.185 1.135-6.526 1.135a8.69 8.69 0 0 1-1.809-.213c-.638-.142-1.3-.319-1.986-.532a28.49 28.49 0 0 1-1.95-.78 14.184 14.184 0 0 1-1.703-.958v16.066c0 .544.154.993.461 1.347.331.355.733.591 1.206.71l5.178 1.454V146H111.96v-2.305zm21.74-21.634c1.112 0 2.081-.177 2.908-.532.828-.378 1.525-.863 2.093-1.454a7.598 7.598 0 0 0 1.418-2.057 13.26 13.26 0 0 0 .887-2.234c.213-.757.355-1.478.426-2.164.071-.685.106-1.253.106-1.702 0-1.442-.154-2.825-.461-4.149-.284-1.324-.792-2.483-1.525-3.476-.709-1.017-1.667-1.821-2.873-2.412-1.205-.614-2.719-.922-4.539-.922h-3.547v20.535c.284.094.627.177 1.029.248.425.071.863.13 1.312.177a27.783 27.783 0 0 0 2.766.142zm38.612 24.897c-2.766 0-5.261-.426-7.483-1.277-2.199-.875-4.079-2.104-5.639-3.689-1.537-1.607-2.731-3.546-3.582-5.816-.828-2.27-1.241-4.811-1.241-7.625 0-2.601.413-5.024 1.241-7.27.827-2.27 2.021-4.244 3.582-5.923 1.584-1.679 3.511-2.991 5.781-3.937 2.269-.969 4.858-1.454 7.766-1.454 3.121 0 5.817.509 8.087 1.525 2.269 1.017 4.125 2.377 5.568 4.079 1.465 1.679 2.553 3.641 3.262 5.887a22.706 22.706 0 0 1 1.064 6.951c0 2.554-.413 4.965-1.241 7.235-.804 2.246-1.998 4.209-3.582 5.887-1.56 1.679-3.487 3.003-5.781 3.972-2.27.97-4.87 1.455-7.802 1.455zm.496-3.831c1.537 0 2.779-.449 3.724-1.347.97-.899 1.726-2.034 2.27-3.405s.91-2.885 1.099-4.54c.19-1.655.284-3.239.284-4.752 0-1.891-.13-3.747-.39-5.568-.26-1.82-.697-3.452-1.312-4.894-.615-1.442-1.431-2.601-2.447-3.476-.993-.898-2.246-1.347-3.76-1.347-1.513 0-2.754.437-3.723 1.312-.946.875-1.691 1.998-2.235 3.369-.52 1.371-.886 2.885-1.099 4.54a40.996 40.996 0 0 0-.284 4.716c0 1.679.107 3.429.319 5.249.213 1.821.603 3.488 1.171 5.001.591 1.489 1.395 2.719 2.411 3.688 1.017.97 2.341 1.454 3.972 1.454zm20.882.639l3.795-1.277c.52-.189.91-.437 1.17-.745.26-.331.39-.745.39-1.241v-39.934c0-.615-.154-1.123-.461-1.525-.307-.402-.839-.733-1.596-.993l-3.653-1.277V94.86l15.498-2.66v48.304c0 .544.142.969.426 1.277.307.283.686.52 1.135.709l3.405 1.277V146H193.69v-2.234zm32.94-40.04a5.996 5.996 0 0 1-2.34-.461 6.604 6.604 0 0 1-1.915-1.206 6.085 6.085 0 0 1-1.313-1.844 5.387 5.387 0 0 1-.496-2.306c0-.78.153-1.513.461-2.199a5.651 5.651 0 0 1 1.312-1.808 5.732 5.732 0 0 1 1.915-1.206 6.526 6.526 0 0 1 2.376-.426 6.91 6.91 0 0 1 2.447.426 5.957 5.957 0 0 1 1.951 1.17 5.105 5.105 0 0 1 1.312 1.773c.331.686.497 1.43.497 2.235 0 .827-.166 1.596-.497 2.305a5.372 5.372 0 0 1-1.312 1.844 6.572 6.572 0 0 1-1.986 1.242 6.353 6.353 0 0 1-2.412.461zm-9.965 40.04l3.936-1.277c.473-.142.851-.378 1.135-.709.284-.331.426-.757.426-1.277v-21.882c0-.591-.154-1.076-.461-1.454-.308-.402-.851-.745-1.632-1.029l-3.263-1.205v-1.951l15.18-2.518v30.039c0 .544.141.969.425 1.277.284.307.662.543 1.135.709l3.653 1.277V146h-20.534v-2.234zm39.266 3.014c-2.577 0-4.858-.449-6.844-1.347-1.963-.923-3.618-2.176-4.965-3.76-1.348-1.584-2.377-3.416-3.086-5.497-.686-2.104-1.028-4.338-1.028-6.703 0-1.726.189-3.404.567-5.036a18.627 18.627 0 0 1 1.702-4.575 18.437 18.437 0 0 1 2.767-3.936 16.748 16.748 0 0 1 3.83-3.086c1.466-.851 3.097-1.513 4.894-1.986 1.797-.496 3.759-.745 5.887-.745 1.277 0 2.436.095 3.476.284 1.064.189 2.01.426 2.837.709.828.284 1.549.58 2.163.887.639.307 1.183.579 1.632.816l-1.277 7.412h-1.383a56.946 56.946 0 0 0-2.802-1.915 29.625 29.625 0 0 0-3.014-1.703 17.686 17.686 0 0 0-2.979-1.241c-.97-.331-1.88-.496-2.731-.496-.544 0-1.052.165-1.525.496-.449.331-.958.875-1.525 1.632-.284.354-.568.851-.851 1.489a16.26 16.26 0 0 0-.71 2.27 27.493 27.493 0 0 0-.744 6.49c0 2.199.2 4.149.602 5.852.402 1.702 1.029 3.144 1.88 4.326a8.325 8.325 0 0 0 3.263 2.66c1.348.591 2.955.887 4.823.887.946 0 1.844-.106 2.695-.319a12.945 12.945 0 0 0 2.341-.816 15.6 15.6 0 0 0 1.986-1.064c.615-.378 1.159-.709 1.632-.993h.957v3.015a25.01 25.01 0 0 1-2.731 2.128 24.154 24.154 0 0 1-3.369 1.95 21.355 21.355 0 0 1-3.936 1.383 17.92 17.92 0 0 1-4.434.532zm24.012 16.066c-.804 0-1.585-.047-2.341-.142a22.879 22.879 0 0 1-2.057-.355 10.768 10.768 0 0 1-1.738-.461 9.07 9.07 0 0 1-1.277-.496l1.49-7.661h1.17c.26.166.579.32.958.461.378.142.78.284 1.206.426.449.142.898.272 1.347.39.473.142.922.248 1.348.319.426.095.804.166 1.135.213.354.071.638.107.851.107a10.687 10.687 0 0 0 1.631-.142c.284-.048.544-.107.781-.178.26-.071.472-.177.638-.319.615-.425 1.099-.851 1.454-1.277.378-.402.721-.91 1.029-1.525.331-.614.673-1.383 1.028-2.305l1.348-3.511-3.689-5.107-10.887-25.074a2.416 2.416 0 0 0-.923-1.135c-.401-.283-.91-.555-1.525-.815l-2.518-1.029v-2.234h19.471v2.234l-4.823 1.419 7.376 17.981 1.49 3.617h.106l7.59-21.244-4.717-1.773v-2.234h13.831v2.234l-2.589 1.348a18.87 18.87 0 0 0-1.489.887c-.426.26-.733.614-.922 1.063l-13.583 35.927c-.852 2.269-1.75 4.078-2.696 5.426-.946 1.371-1.939 2.423-2.979 3.156-1.017.733-2.08 1.218-3.192 1.454a15.607 15.607 0 0 1-3.333.355z" fill="#1B2832"/><path stroke="#7A9F74" stroke-width="3" stroke-linecap="round" d="M99.5 129.5h-91"/><path d="M283.977 104.192L294.493 84m.001 0l9.47 20.192m.356 0h-20.752m-.101-.051L279 89.582m0-.125l19.476 14.735m-8.449-.277l19.476-14.207m-.052.151l-4.849 14.333" stroke="#1B2832" stroke-width="1.689" stroke-miterlimit="10" stroke-linecap="round" stroke-linejoin="round"/></svg>