<svg width="340" height="176" viewBox="0 0 340 176" fill="none" xmlns="http://www.w3.org/2000/svg"><path d="M.04 80.83l3.712-1.168a3.674 3.674 0 0 0 1.419-.959 4.77 4.77 0 0 0 .96-1.502l16.645-43.304 5.006-9.679h2.17l20.567 53.025a5.49 5.49 0 0 0 .96 1.502c.417.445.89.75 1.418.917l3.713 1.169V83H36v-2.17l7.218-1.543-6.758-17.564H15.934L9.593 79.12l7.092 1.71V83H.039v-2.17zm35-22.735l-6.883-17.522-2.003-5.632h-.125l-8.678 23.154h17.69zm21.003 22.82l4.839-1.126c.528-.14.96-.404 1.293-.793.362-.417.543-.932.543-1.544v-49.02c0-.722-.195-1.32-.584-1.793-.362-.473-.974-.862-1.836-1.168l-4.297-1.544v-1.418l13.934-2.795V77.45c0 .64.167 1.155.5 1.544.362.39.807.654 1.335.793l4.381 1.126V83H56.044v-2.086zm23.1 0l4.84-1.126c.528-.14.959-.404 1.292-.793.362-.417.543-.932.543-1.544v-49.02c0-.722-.195-1.32-.584-1.793-.362-.473-.974-.862-1.836-1.168l-4.297-1.544v-1.418l13.934-2.795V77.45c0 .64.167 1.155.5 1.544.362.39.807.654 1.336.793l4.38 1.126V83H79.144v-2.086zm1.848 62.851l3.724-1.242a2.591 2.591 0 0 0 1.1-.709c.307-.331.46-.756.46-1.277v-21.704a3.96 3.96 0 0 0-.106-.958 1.98 1.98 0 0 0-.355-.745 2.496 2.496 0 0 0-.638-.567c-.237-.189-.556-.355-.958-.497l-3.51-1.205v-1.916l14.93-2.659v7.802h.071a49.336 49.336 0 0 1 1.95-2.979 16.033 16.033 0 0 1 2.27-2.589 11.49 11.49 0 0 1 2.802-1.844c1.017-.473 2.175-.71 3.476-.71.662 0 1.253.036 1.773.107.52.047.993.13 1.419.248.449.095.874.225 1.276.39.402.142.816.296 1.242.461v10.782h-3.618l-1.454-2.66c-.095-.213-.284-.414-.567-.603a4.562 4.562 0 0 0-.887-.497 4.048 4.048 0 0 0-1.064-.354 4.506 4.506 0 0 0-1.099-.142c-.686 0-1.336.047-1.951.142a6.99 6.99 0 0 0-1.809.461 7.583 7.583 0 0 0-1.737.993c-.544.425-1.1.993-1.667 1.702v19.541c0 .544.142.982.425 1.313.284.331.662.555 1.135.673l4.469 1.242V146H80.991v-2.234zm50.476 3.014c-2.624 0-5.024-.39-7.199-1.17-2.152-.78-4.02-1.939-5.604-3.476-1.56-1.537-2.778-3.428-3.653-5.674-.851-2.27-1.277-4.882-1.277-7.838 0-2.482.414-4.847 1.242-7.093.827-2.27 2.009-4.256 3.546-5.958 1.561-1.702 3.452-3.062 5.675-4.079 2.246-1.016 4.776-1.525 7.589-1.525 2.436 0 4.587.402 6.455 1.206 1.868.78 3.428 1.809 4.681 3.086a12.965 12.965 0 0 1 2.908 4.397c.662 1.655.993 3.334.993 5.036 0 .213-.011.509-.035.887 0 .378-.012.768-.035 1.17l-.071 1.1c-.024.354-.048.615-.071.78h-22.698c.024 4.374.969 7.708 2.837 10.001 1.868 2.27 4.753 3.405 8.654 3.405 1.276 0 2.435-.107 3.475-.319a20.215 20.215 0 0 0 2.837-.851 16.993 16.993 0 0 0 2.27-1.064c.686-.379 1.289-.71 1.809-.993h.958v2.979c-.804.685-1.762 1.383-2.873 2.092a29.05 29.05 0 0 1-3.618 1.951 24.877 24.877 0 0 1-4.184 1.383c-1.49.378-3.027.567-4.611.567zm5.355-22.485c0-1.513-.082-2.908-.248-4.185-.165-1.3-.473-2.411-.922-3.333-.426-.946-1.017-1.679-1.773-2.199-.733-.544-1.655-.816-2.767-.816-1.087 0-2.057.248-2.908.745-.851.473-1.572 1.158-2.163 2.057-.568.898-1.017 2.01-1.348 3.334-.331 1.3-.544 2.766-.638 4.397h12.767zm15.687-7.873a4.148 4.148 0 0 0-.39-.638 1.668 1.668 0 0 0-.461-.532 3.343 3.343 0 0 0-.709-.461 7.942 7.942 0 0 0-1.029-.532l-2.482-1.029v-2.234h19.718v2.234l-5.142 1.419 6.809 16.668 1.773 4.611h.107l7.909-20.925-5.001-1.773v-2.234h14.08v2.234l-2.518 1.348c-.639.331-1.159.65-1.561.957-.378.284-.674.698-.886 1.242l-9.15 21.917-3.866 7.554h-4.469l-12.732-29.826zm45.88-12.696a5.997 5.997 0 0 1-2.341-.461 6.617 6.617 0 0 1-1.915-1.206 6.082 6.082 0 0 1-1.312-1.844 5.387 5.387 0 0 1-.497-2.306c0-.78.154-1.513.461-2.199a5.651 5.651 0 0 1 1.312-1.808 5.732 5.732 0 0 1 1.915-1.206 6.528 6.528 0 0 1 2.377-.426c.874 0 1.69.142 2.447.426a5.963 5.963 0 0 1 1.95 1.17 5.093 5.093 0 0 1 1.312 1.773c.331.686.497 1.43.497 2.235 0 .827-.166 1.596-.497 2.305a5.359 5.359 0 0 1-1.312 1.844 6.572 6.572 0 0 1-1.986 1.242 6.348 6.348 0 0 1-2.411.461zm-9.966 40.04l3.937-1.277c.472-.142.851-.378 1.134-.709.284-.331.426-.757.426-1.277v-21.882c0-.591-.154-1.076-.461-1.454-.307-.402-.851-.745-1.631-1.029l-3.263-1.205v-1.951l15.179-2.518v30.039c0 .544.142.969.425 1.277.284.307.662.543 1.135.709l3.653 1.277V146h-20.534v-2.234zm41.075 3.014c-2.624 0-5.024-.39-7.199-1.17-2.152-.78-4.019-1.939-5.604-3.476-1.56-1.537-2.778-3.428-3.652-5.674-.852-2.27-1.277-4.882-1.277-7.838 0-2.482.414-4.847 1.241-7.093.828-2.27 2.01-4.256 3.547-5.958 1.56-1.702 3.452-3.062 5.674-4.079 2.246-1.016 4.776-1.525 7.59-1.525 2.435 0 4.586.402 6.454 1.206 1.868.78 3.428 1.809 4.682 3.086a12.98 12.98 0 0 1 2.908 4.397c.662 1.655.993 3.334.993 5.036 0 .213-.012.509-.036.887 0 .378-.012.768-.035 1.17-.024.379-.047.745-.071 1.1a11.55 11.55 0 0 1-.071.78h-22.698c.024 4.374.97 7.708 2.837 10.001 1.868 2.27 4.753 3.405 8.654 3.405 1.277 0 2.435-.107 3.476-.319 1.04-.237 1.986-.52 2.837-.851a17.052 17.052 0 0 0 2.27-1.064c.685-.379 1.288-.71 1.808-.993h.958v2.979c-.804.685-1.762 1.383-2.873 2.092a29.106 29.106 0 0 1-3.617 1.951 24.919 24.919 0 0 1-4.185 1.383c-1.49.378-3.027.567-4.611.567zm5.356-22.485a32.58 32.58 0 0 0-.249-4.185c-.165-1.3-.473-2.411-.922-3.333-.425-.946-1.016-1.679-1.773-2.199-.733-.544-1.655-.816-2.766-.816-1.088 0-2.057.248-2.908.745-.852.473-1.573 1.158-2.164 2.057-.567.898-1.016 2.01-1.347 3.334-.331 1.3-.544 2.766-.639 4.397h12.768zm16.289-7.908a2.498 2.498 0 0 0-.958-1.242c-.425-.331-.957-.626-1.596-.886l-2.447-1.029v-2.234h19.577v2.234l-5.107 1.419 5.497 16.456 1.454 4.823h.107l5.674-16.74 3.44-8.192h4.859l6.987 20.109 1.454 4.823.106-.036 7.022-20.889-5-1.773v-2.234h14.115v2.234l-2.483 1.348c-.615.331-1.147.65-1.596.957-.425.308-.745.745-.957 1.313l-8.086 21.846-3.618 7.554h-5.142l-6.561-18.903-1.419-5.461h-.071l-5.639 16.81-3.724 7.554h-5.142l-10.746-29.861zm70.24 30.641c-1.443 0-2.778-.082-4.008-.248a28.285 28.285 0 0 1-3.405-.603 51.56 51.56 0 0 1-2.908-.744 98.323 98.323 0 0 0-2.589-.781v-10.214h3.299l1.312 3.831a3 3 0 0 0 .39.78c.189.236.402.461.638.674.237.189.473.366.71.532.236.142.472.272.709.39.402.236.91.484 1.525.745a22.54 22.54 0 0 0 4.185 1.241c.756.142 1.477.213 2.163.213.757 0 1.454-.083 2.093-.249a4.492 4.492 0 0 0 1.702-.886c.473-.402.839-.922 1.099-1.561.284-.638.426-1.43.426-2.376 0-.804-.177-1.466-.532-1.986-.355-.52-.839-.969-1.454-1.348a7.582 7.582 0 0 0-2.022-.957 53.704 53.704 0 0 0-2.34-.745c-1.183-.331-2.235-.627-3.157-.887-.922-.26-1.844-.532-2.766-.815-1.182-.379-2.234-.863-3.156-1.454a10.398 10.398 0 0 1-2.377-2.164 8.953 8.953 0 0 1-1.454-2.837c-.331-1.088-.496-2.258-.496-3.511 0-1.655.402-3.168 1.206-4.54.804-1.371 1.903-2.541 3.298-3.511 1.395-.993 3.026-1.761 4.894-2.305 1.892-.544 3.901-.816 6.029-.816 1.301 0 2.447.048 3.44.142 1.017.071 1.951.178 2.802.32a22.27 22.27 0 0 1 2.447.461c.78.165 1.584.342 2.412.532l.496 10.214h-3.404l-1.49-3.795a3.558 3.558 0 0 0-.887-1.277 5.468 5.468 0 0 0-1.312-.922 12.03 12.03 0 0 0-1.347-.603 12.153 12.153 0 0 0-1.561-.497 14.391 14.391 0 0 0-1.738-.39 10.396 10.396 0 0 0-1.702-.141c-.473 0-.981.094-1.525.283a4.526 4.526 0 0 0-1.49.78 4.4 4.4 0 0 0-1.134 1.384c-.284.567-.426 1.253-.426 2.057 0 .827.142 1.536.426 2.128a4.348 4.348 0 0 0 1.17 1.454 7.65 7.65 0 0 0 1.667.957c.638.26 1.3.485 1.986.674 1.04.331 2.033.65 2.979.958.969.307 1.797.567 2.482.78 1.324.402 2.53.886 3.618 1.454 1.111.544 2.057 1.194 2.837 1.95a7.693 7.693 0 0 1 1.844 2.66c.45.993.674 2.164.674 3.511 0 2.081-.461 3.89-1.383 5.427a11.436 11.436 0 0 1-3.617 3.759c-1.514.969-3.251 1.69-5.214 2.163a25.787 25.787 0 0 1-6.064.709z" fill="#1B2832"/><path stroke="#7A9F74" stroke-width="3" stroke-linecap="round" d="M73.5 129.5h-70"/><path d="M267.978 105.192L278.494 85m0 0l9.469 20.192m.358 0h-20.752m-.102-.051L263 90.582m0-.125l19.476 14.735m-8.449-.277l19.475-14.207m-.051.151l-4.849 14.333" stroke="#1B2832" stroke-width="1.689" stroke-miterlimit="10" stroke-linecap="round" stroke-linejoin="round"/></svg>