<svg width="57" height="56" viewBox="0 0 57 56" fill="none" xmlns="http://www.w3.org/2000/svg"><g clip-path="url(#a)"><path d="M50.913 9.067a13.95 13.95 0 0 0-4.525-3.01 14.005 14.005 0 0 0-10.676 0 13.95 13.95 0 0 0-4.525 3.01l-2.688 2.674-2.687-2.674A13.984 13.984 0 0 0 15.949 5c-3.7 0-7.248 1.463-9.864 4.066A13.846 13.846 0 0 0 2 18.88c0 3.682 1.47 7.212 4.085 9.815l2.688 2.675L28.5 51l19.727-19.63 2.687-2.674a13.872 13.872 0 0 0 3.025-4.503 13.817 13.817 0 0 0 0-10.624 13.873 13.873 0 0 0-3.025-4.502z" stroke="#898989" stroke-width="3" stroke-linecap="round" stroke-linejoin="round"/></g><defs><clipPath id="a"><path fill="#fff" transform="translate(.5)" d="M0 0h56v56H0z"/></clipPath></defs></svg>