<svg width="24" height="24" viewBox="0 0 24 24" fill="none" xmlns="http://www.w3.org/2000/svg"><mask id="a" style="mask-type:alpha" maskUnits="userSpaceOnUse" x="0" y="0" width="24" height="24"><path fill="#686868" d="M0 0h24v24H0z"/></mask><g mask="url(#a)"><path d="M4.07 9.732l-.375.65.376-.65zm.473.273l.375-.65-.375.65zm0 3.99l-.375-.65.375.65zm-.473.273l-.375-.65.375.65zm2 3.464l.375.65-.375-.65zm-1.366-.366l-.65.375.65-.375zm3.053.203l-.455.596.455-.596zm-1.213-.11l-.375-.65.375.65zm2.753 1l-.29.692.29-.692zm5.404 0l.29.692-.29-.692zm4.592-1.093l-.65-.375.65.375zm-1.366.366l.375-.65-.375.65zm2-3.464l-.375.65.375-.65zm.366 1.366l-.65-.375.65.375zm-.838-1.639l.375-.65-.375.65zm0-3.99l-.375-.65.375.65zm-.512 1.104l-.744.095.744-.095zm1.35-2.743l-.65.375.65-.375zm-.366 1.366l-.375-.65.375.65zm-2-3.464l-.375-.65.375.65zm1.366.366l.65-.375-.65.375zm-1.84-.093l-.374-.65.375.65zm-10.91 0l-.374.65.375-.65zm1.214-.11l-.455-.596.455.596zm9.697 11.028l-.375.65.375-.65zm-1.213.11l-.455-.596.455.596zM4.704 6.634l-.649-.375.65.375zM13 2.25h-2v1.5h2v-1.5zm1.75 2.294V4h-1.5v.544h1.5zm1.946 1.29a7.742 7.742 0 0 0-1.705-.985l-.579 1.383c.493.207.955.475 1.375.795l.91-1.192zm.857-.216l-.473.274.75 1.299.473-.274-.75-1.299zm3.39 2.373l-1-1.732-1.299.75 1 1.732 1.3-.75zm-1.112 2.663l.472-.272-.75-1.3-.472.273.75 1.3zM19.749 12c0-.333-.021-.662-.062-.985l-1.488.189c.033.26.05.526.05.796h1.5zm-.062.985c.04-.323.062-.652.062-.985h-1.5c0 .27-.017.536-.05.796l1.488.189zm.615.633l-.472-.272-.75 1.299.472.273.75-1.3zm-.36 4.123l1-1.732-1.299-.75-1 1.732 1.3.75zm-2.863.367l.473.274.75-1.3-.473-.273-.75 1.3zm-2.089 1.043a7.748 7.748 0 0 0 1.705-.986l-.91-1.192c-.42.32-.88.588-1.374.795l.58 1.383zm-.24.849v-.544h-1.5V20h1.5zM11 21.75h2v-1.5h-2v1.5zm-1.75-2.294V20h1.5v-.544h-1.5zm-1.947-1.29c.52.396 1.093.729 1.705.985l.58-1.383a6.243 6.243 0 0 1-1.375-.796l-.91 1.193zm-.857.216l.474-.274-.75-1.299-.474.273.75 1.3zm-3.39-2.373l1 1.732 1.299-.75-1-1.732-1.3.75zm1.113-2.663l-.473.272.75 1.3.473-.273-.75-1.3zM4.248 12c0 .333.022.662.063.985l1.488-.189a6.319 6.319 0 0 1-.05-.796h-1.5zm.063-.985a7.819 7.819 0 0 0-.062.985h1.5c0-.27.017-.536.05-.796l-1.488-.189zm-.615-.633l.472.272.75-1.299-.473-.272-.75 1.299zm.359-4.123l-1 1.732 1.299.75 1-1.732-1.3-.75zm2.864-.367l-.473-.274-.75 1.3.473.273.75-1.3zm2.088-1.043a7.743 7.743 0 0 0-1.705.986l.91 1.192c.42-.32.881-.588 1.374-.795L9.007 4.85zM9.249 4v.544h1.5V4h-1.5zm6 8a3.25 3.25 0 0 1-3.25 3.25v1.5a4.75 4.75 0 0 0 4.75-4.75h-1.5zm-3.25-3.25a3.25 3.25 0 0 1 3.25 3.25h1.5a4.75 4.75 0 0 0-4.75-4.75v1.5zM8.749 12a3.25 3.25 0 0 1 3.25-3.25v-1.5A4.75 4.75 0 0 0 7.249 12h1.5zm3.25 3.25A3.25 3.25 0 0 1 8.749 12h-1.5a4.75 4.75 0 0 0 4.75 4.75v-1.5zM9.586 6.232c.644-.27 1.163-.899 1.163-1.688h-1.5c0 .096-.07.232-.242.305l.58 1.383zm-5.14 2.85a.25.25 0 0 1-.092-.341l-1.3-.75a1.75 1.75 0 0 0 .642 2.39l.75-1.298zm1.353 2.122c.088-.692-.198-1.455-.881-1.849l-.75 1.3c.083.047.166.175.143.36l1.488.189zm-.881 3.44c.683-.393.969-1.156.88-1.848l-1.487.189c.023.185-.06.313-.143.36l.75 1.3zm-.564.615a.25.25 0 0 1 .091-.341l-.75-1.3a1.75 1.75 0 0 0-.64 2.391l1.299-.75zm1.341 1.823a.25.25 0 0 1-.341-.091l-1.3.75a1.75 1.75 0 0 0 2.391.64l-.75-1.299zm2.517-.11c-.555-.423-1.36-.557-2.043-.163l.75 1.3c.082-.048.235-.057.383.056l.91-1.192zm2.537 2.484c0-.79-.52-1.419-1.163-1.688l-.579 1.383c.173.073.242.21.242.305h1.5zm.25.794a.25.25 0 0 1-.25-.25h-1.5c0 .966.783 1.75 1.75 1.75v-1.5zm2.25-.25a.25.25 0 0 1-.25.25v1.5a1.75 1.75 0 0 0 1.75-1.75h-1.5zm1.162-2.232c-.643.27-1.162.899-1.162 1.688h1.5c0-.096.069-.232.241-.305l-.579-1.383zm4.232-.777a.25.25 0 0 1-.341.091l-.75 1.3a1.75 1.75 0 0 0 2.39-.641l-1.299-.75zm.909-2.073a.25.25 0 0 1 .091.341l1.3.75a1.75 1.75 0 0 0-.641-2.39l-.75 1.299zm-1.353-2.122c-.088.692.198 1.455.88 1.849l.75-1.3c-.082-.047-.166-.175-.142-.36l-1.488-.189zm.88-3.44c-.682.393-.968 1.156-.88 1.848l1.488-.189c-.024-.185.06-.313.143-.36l-.75-1.3zm.564-.615a.25.25 0 0 1-.091.342l.75 1.299a1.75 1.75 0 0 0 .64-2.391l-1.299.75zm-1.341-1.824a.25.25 0 0 1 .341.092l1.3-.75a1.75 1.75 0 0 0-2.391-.64l.75 1.298zm-2.516.11c.555.424 1.36.558 2.043.164l-.75-1.3c-.083.048-.235.057-.384-.056l-.91 1.192zm-2.537-2.483c0 .79.519 1.419 1.162 1.688l.58-1.383c-.173-.073-.242-.21-.242-.305h-1.5zm-7.08 2.647c.683.394 1.488.26 2.043-.164l-.91-1.192c-.148.113-.3.104-.383.057l-.75 1.299zm4.83-4.941A1.75 1.75 0 0 0 9.249 4h1.5a.25.25 0 0 1 .25-.25v-1.5zm6.83 14.56c-.683-.395-1.488-.261-2.043.163l.91 1.192c.148-.113.3-.104.383-.057l.75-1.299zM5.354 7.008a.25.25 0 0 1 .341-.092l.75-1.299a1.75 1.75 0 0 0-2.39.641l1.299.75zm7.645-3.259a.25.25 0 0 1 .25.25h1.5a1.75 1.75 0 0 0-1.75-1.75v1.5z" fill="#fff"/></g></svg>