<svg width="24" height="24" viewBox="0 0 24 24" fill="none" xmlns="http://www.w3.org/2000/svg"><mask id="a" style="mask-type:alpha" maskUnits="userSpaceOnUse" x="0" y="0" width="24" height="24"><path fill="#686868" d="M0 0h24v24H0z"/></mask><g mask="url(#a)"><path d="M6 5a1 1 0 0 1 1-1h10a1 1 0 0 1 1 1v15H6V5zM3 20h18" stroke="#00266F" stroke-width="1.5"/><path d="M10 14.5a.5.5 0 0 1 .5-.5h3a.5.5 0 0 1 .5.5V20h-4v-5.5z" stroke="#00266F" stroke-width="1.5"/><path fill="#00266F" d="M9 7h2v2H9zm0 3h2v2H9zm4-3h2v2h-2zm0 3h2v2h-2z"/></g></svg>