<svg width="120" height="120" viewBox="0 0 120 120" fill="none" xmlns="http://www.w3.org/2000/svg"><rect opacity=".1" width="120" height="120" rx="48" fill="#5136A8"/><path d="M81 62.739v-5.478l-4.965-.828a16.319 16.319 0 0 0-2.178-5.245l2.929-4.1-3.874-3.874-4.1 2.929a16.315 16.315 0 0 0-5.246-2.178L62.74 39h-5.48l-.828 4.965a16.317 16.317 0 0 0-5.245 2.178l-4.1-2.93-3.874 3.875 2.929 4.1a16.32 16.32 0 0 0-2.179 5.245L39 57.261v5.478l4.964.828a16.315 16.315 0 0 0 2.179 5.245l-2.93 4.1 3.874 3.874 4.101-2.929a16.32 16.32 0 0 0 5.245 2.178L57.261 81h5.478l.827-4.965a16.318 16.318 0 0 0 5.245-2.178l4.101 2.93 3.874-3.875-2.93-4.1a16.313 16.313 0 0 0 2.18-5.245L81 62.739z" stroke="#5136A8" stroke-width="2" stroke-miterlimit="10"/><path d="M60 70.956c6.05 0 10.956-4.905 10.956-10.956 0-6.051-4.905-10.957-10.956-10.957-6.051 0-10.957 4.906-10.957 10.957 0 6.05 4.906 10.956 10.957 10.956z" stroke="#5136A8" stroke-width="2" stroke-miterlimit="10"/><path d="M60 51.782V60h5.478" stroke="#5136A8" stroke-width="2" stroke-miterlimit="10"/></svg>