<svg width="30" height="30" viewBox="0 0 30 30" fill="none" xmlns="http://www.w3.org/2000/svg"><path d="M8.175 6.25c.075 1.112.262 2.2.563 3.238l-1.5 1.5a18.532 18.532 0 0 1-.95-4.738h1.887zM20.5 21.275c1.063.3 2.15.488 3.25.563V23.7a19.283 19.283 0 0 1-4.75-.938l1.5-1.487zM9.375 3.75H5c-.688 0-1.25.563-1.25 1.25 0 11.738 9.512 21.25 21.25 21.25.688 0 1.25-.563 1.25-1.25v-4.363c0-.687-.563-1.25-1.25-1.25-1.55 0-3.063-.25-4.462-.712a1.05 1.05 0 0 0-.388-.063 1.28 1.28 0 0 0-.887.363l-2.75 2.75a18.936 18.936 0 0 1-8.238-8.238l2.75-2.75c.35-.35.45-.837.313-1.274A14.2 14.2 0 0 1 10.625 5c0-.688-.563-1.25-1.25-1.25z" fill="#5E6752"/></svg>