<svg width="320" height="4138" viewBox="0 0 320 4138" fill="none" xmlns="http://www.w3.org/2000/svg"><g opacity=".7"><mask id="a" style="mask-type:alpha" maskUnits="userSpaceOnUse" x="-21" y="1703" width="366" height="2435"><path fill="#fff" d="M-21 1703h366v2435H-21z"/></mask><g mask="url(#a)"><path d="M-25.713 2255.13l12.463-1016.62s348.759 770.14 194.456 927.26c-145.993 148.66-206.919 89.36-206.919 89.36z" fill="#085ED0" fill-opacity=".06" filter="url(#b)"/><path d="M345.001 2209.39V2911s-217.298-514.64-124.861-630.25c87.46-109.38 124.861-71.36 124.861-71.36z" fill="#FF1212" fill-opacity=".05" filter="url(#c)"/><path d="M-21 2840.73V3689s395.601-622.22 227.314-761.99C47.09 2794.76-21 2840.73-21 2840.73z" fill="#085ED0" fill-opacity=".06" filter="url(#d)"/></g><path d="M284.678 76.22L-172 366.85S113.853 155.278-67.303-31.897L284.678 76.22z" fill="#FF1212" fill-opacity=".05" filter="url(#e)"/><path d="M108.856 264.464l509.699-219.86S294.066 212.958 440.676 439.22l-331.82-174.756z" fill="#0FF" fill-opacity=".06" filter="url(#f)"/><path d="M-86.078 638.965l949.27-156.603s-621.39 165.845-522.307 795.448L-86.078 638.965z" fill="#0FF" fill-opacity=".04" filter="url(#g)"/><path d="M322 1424.76V1728s-233.83-222.43-134.361-272.39C281.753 1408.33 322 1424.76 322 1424.76z" fill="#FF1212" fill-opacity=".05" filter="url(#h)"/><g opacity=".25"><path d="M-207 351.946c22.862-20.173 115.502-126.602 281.962-126.602 208.075 0 324.372 247.986 638.142 43.128" stroke="url(#i)"/><path d="M-207 344.769c22.862-20.172 115.502-126.601 281.962-126.601 208.075 0 324.372 247.986 638.142 43.128" stroke="url(#j)"/><path d="M-207 337.593c22.862-20.172 115.502-126.601 281.962-126.601 208.075 0 324.372 247.985 638.142 43.128" stroke="url(#k)"/><path d="M-207 330.417c22.862-20.172 115.502-126.601 281.962-126.601 208.075 0 324.372 247.986 638.142 43.128" stroke="url(#l)"/><path d="M-207 323.241C-184.138 303.069-91.498 196.64 74.962 196.64c208.075 0 324.372 247.986 638.142 43.128" stroke="url(#m)"/><path d="M-207 316.065c22.862-20.172 115.502-126.601 281.962-126.601 208.075 0 324.372 247.985 638.142 43.128" stroke="url(#n)"/><path d="M-207 308.889c22.862-20.172 115.502-126.601 281.962-126.601 208.075 0 324.372 247.985 638.142 43.128" stroke="url(#o)"/><path d="M-207 301.713c22.862-20.172 115.502-126.601 281.962-126.601 208.075 0 324.372 247.985 638.142 43.128" stroke="url(#p)"/><path d="M-207 294.537c22.862-20.172 115.502-126.601 281.962-126.601 208.075 0 324.372 247.986 638.142 43.128" stroke="url(#q)"/><path d="M-207 287.361C-184.138 267.189-91.498 160.76 74.962 160.76c208.075 0 324.372 247.985 638.142 43.128" stroke="url(#r)"/><path d="M-207 280.185c22.862-20.173 115.502-126.601 281.962-126.601 208.075 0 324.372 247.985 638.142 43.128" stroke="url(#s)"/><path d="M-207 273.009c22.862-20.172 115.502-126.601 281.962-126.601 208.075 0 324.372 247.986 638.142 43.128" stroke="url(#t)"/><path d="M-207 265.833c22.862-20.172 115.502-126.601 281.962-126.601 208.075 0 324.372 247.985 638.142 43.128" stroke="url(#u)"/><path d="M-207 258.657c22.862-20.173 115.502-126.601 281.962-126.601 208.075 0 324.372 247.985 638.142 43.128" stroke="url(#v)"/><path d="M-207 251.481C-184.138 231.308-91.498 124.88 74.962 124.88c208.075 0 324.372 247.985 638.142 43.128" stroke="url(#w)"/><path d="M-207 244.305c22.862-20.172 115.502-126.601 281.962-126.601 208.075 0 324.372 247.985 638.142 43.128" stroke="url(#x)"/><path d="M-207 237.129c22.862-20.172 115.502-126.601 281.962-126.601 208.075 0 324.372 247.985 638.142 43.128" stroke="url(#y)"/><path d="M-207 229.953c22.862-20.173 115.502-126.601 281.962-126.601 208.075 0 324.372 247.985 638.142 43.128" stroke="url(#z)"/><path d="M-207 222.777C-184.138 202.604-91.498 96.176 74.962 96.176c208.075 0 324.372 247.985 638.142 43.128" stroke="url(#A)"/><path d="M-207 215.601C-184.138 195.429-91.498 89 74.962 89c208.075 0 324.372 247.985 638.142 43.128" stroke="url(#B)"/></g></g><defs><filter id="b" x="-195.713" y="1068.51" width="586.314" height="1368.31" filterUnits="userSpaceOnUse" color-interpolation-filters="sRGB"><feFlood flood-opacity="0" result="BackgroundImageFix"/><feBlend in="SourceGraphic" in2="BackgroundImageFix" result="shape"/><feGaussianBlur stdDeviation="85" result="effect1_foregroundBlur_1741_25503"/></filter><filter id="c" x="27.243" y="2033" width="487.758" height="1048" filterUnits="userSpaceOnUse" color-interpolation-filters="sRGB"><feFlood flood-opacity="0" result="BackgroundImageFix"/><feBlend in="SourceGraphic" in2="BackgroundImageFix" result="shape"/><feGaussianBlur stdDeviation="85" result="effect1_foregroundBlur_1741_25503"/></filter><filter id="d" x="-191" y="2663" width="609" height="1196" filterUnits="userSpaceOnUse" color-interpolation-filters="sRGB"><feFlood flood-opacity="0" result="BackgroundImageFix"/><feBlend in="SourceGraphic" in2="BackgroundImageFix" result="shape"/><feGaussianBlur stdDeviation="85" result="effect1_foregroundBlur_1741_25503"/></filter><filter id="e" x="-342" y="-201.897" width="796.679" height="738.748" filterUnits="userSpaceOnUse" color-interpolation-filters="sRGB"><feFlood flood-opacity="0" result="BackgroundImageFix"/><feBlend in="SourceGraphic" in2="BackgroundImageFix" result="shape"/><feGaussianBlur stdDeviation="85" result="effect1_foregroundBlur_1741_25503"/></filter><filter id="f" x="-61.144" y="-125.396" width="849.699" height="734.616" filterUnits="userSpaceOnUse" color-interpolation-filters="sRGB"><feFlood flood-opacity="0" result="BackgroundImageFix"/><feBlend in="SourceGraphic" in2="BackgroundImageFix" result="shape"/><feGaussianBlur stdDeviation="85" result="effect1_foregroundBlur_1741_25503"/></filter><filter id="g" x="-256.078" y="312.361" width="1289.27" height="1135.44" filterUnits="userSpaceOnUse" color-interpolation-filters="sRGB"><feFlood flood-opacity="0" result="BackgroundImageFix"/><feBlend in="SourceGraphic" in2="BackgroundImageFix" result="shape"/><feGaussianBlur stdDeviation="85" result="effect1_foregroundBlur_1741_25503"/></filter><filter id="h" x="-7" y="1252" width="499" height="646" filterUnits="userSpaceOnUse" color-interpolation-filters="sRGB"><feFlood flood-opacity="0" result="BackgroundImageFix"/><feBlend in="SourceGraphic" in2="BackgroundImageFix" result="shape"/><feGaussianBlur stdDeviation="85" result="effect1_foregroundBlur_1741_25503"/></filter><linearGradient id="i" x1="253.052" y1="225.344" x2="253.052" y2="351.946" gradientUnits="userSpaceOnUse"><stop stop-color="#0FF" stop-opacity=".69"/><stop offset="1" stop-color="#0FF" stop-opacity=".19"/></linearGradient><linearGradient id="j" x1="253.052" y1="218.168" x2="253.052" y2="344.769" gradientUnits="userSpaceOnUse"><stop stop-color="#0FF" stop-opacity=".69"/><stop offset="1" stop-color="#0FF" stop-opacity=".19"/></linearGradient><linearGradient id="k" x1="253.052" y1="210.992" x2="253.052" y2="337.593" gradientUnits="userSpaceOnUse"><stop stop-color="#0FF" stop-opacity=".69"/><stop offset="1" stop-color="#0FF" stop-opacity=".19"/></linearGradient><linearGradient id="l" x1="253.052" y1="203.816" x2="253.052" y2="330.417" gradientUnits="userSpaceOnUse"><stop stop-color="#0FF" stop-opacity=".69"/><stop offset="1" stop-color="#0FF" stop-opacity=".19"/></linearGradient><linearGradient id="m" x1="253.052" y1="196.64" x2="253.052" y2="323.241" gradientUnits="userSpaceOnUse"><stop stop-color="#0FF" stop-opacity=".69"/><stop offset="1" stop-color="#0FF" stop-opacity=".19"/></linearGradient><linearGradient id="n" x1="253.052" y1="189.464" x2="253.052" y2="316.065" gradientUnits="userSpaceOnUse"><stop stop-color="#0FF" stop-opacity=".69"/><stop offset="1" stop-color="#0FF" stop-opacity=".19"/></linearGradient><linearGradient id="o" x1="253.052" y1="182.288" x2="253.052" y2="308.889" gradientUnits="userSpaceOnUse"><stop stop-color="#0FF" stop-opacity=".69"/><stop offset="1" stop-color="#0FF" stop-opacity=".19"/></linearGradient><linearGradient id="p" x1="253.052" y1="175.112" x2="253.052" y2="301.713" gradientUnits="userSpaceOnUse"><stop stop-color="#0FF" stop-opacity=".69"/><stop offset="1" stop-color="#0FF" stop-opacity=".19"/></linearGradient><linearGradient id="q" x1="253.052" y1="167.936" x2="253.052" y2="294.537" gradientUnits="userSpaceOnUse"><stop stop-color="#0FF" stop-opacity=".69"/><stop offset="1" stop-color="#0FF" stop-opacity=".19"/></linearGradient><linearGradient id="r" x1="253.052" y1="160.76" x2="253.052" y2="287.361" gradientUnits="userSpaceOnUse"><stop stop-color="#0FF" stop-opacity=".69"/><stop offset="1" stop-color="#0FF" stop-opacity=".19"/></linearGradient><linearGradient id="s" x1="253.052" y1="153.584" x2="253.052" y2="280.185" gradientUnits="userSpaceOnUse"><stop stop-color="#0FF" stop-opacity=".69"/><stop offset="1" stop-color="#0FF" stop-opacity=".19"/></linearGradient><linearGradient id="t" x1="253.052" y1="146.408" x2="253.052" y2="273.009" gradientUnits="userSpaceOnUse"><stop stop-color="#0FF" stop-opacity=".69"/><stop offset="1" stop-color="#0FF" stop-opacity=".19"/></linearGradient><linearGradient id="u" x1="253.052" y1="139.232" x2="253.052" y2="265.833" gradientUnits="userSpaceOnUse"><stop stop-color="#0FF" stop-opacity=".69"/><stop offset="1" stop-color="#0FF" stop-opacity=".19"/></linearGradient><linearGradient id="v" x1="253.052" y1="132.056" x2="253.052" y2="258.657" gradientUnits="userSpaceOnUse"><stop stop-color="#0FF" stop-opacity=".69"/><stop offset="1" stop-color="#0FF" stop-opacity=".19"/></linearGradient><linearGradient id="w" x1="253.052" y1="124.88" x2="253.052" y2="251.481" gradientUnits="userSpaceOnUse"><stop stop-color="#0FF" stop-opacity=".69"/><stop offset="1" stop-color="#0FF" stop-opacity=".19"/></linearGradient><linearGradient id="x" x1="253.052" y1="117.704" x2="253.052" y2="244.305" gradientUnits="userSpaceOnUse"><stop stop-color="#0FF" stop-opacity=".69"/><stop offset="1" stop-color="#0FF" stop-opacity=".19"/></linearGradient><linearGradient id="y" x1="253.052" y1="110.528" x2="253.052" y2="237.129" gradientUnits="userSpaceOnUse"><stop stop-color="#0FF" stop-opacity=".69"/><stop offset="1" stop-color="#0FF" stop-opacity=".19"/></linearGradient><linearGradient id="z" x1="253.052" y1="103.352" x2="253.052" y2="229.953" gradientUnits="userSpaceOnUse"><stop stop-color="#0FF" stop-opacity=".69"/><stop offset="1" stop-color="#0FF" stop-opacity=".19"/></linearGradient><linearGradient id="A" x1="253.052" y1="96.176" x2="253.052" y2="222.777" gradientUnits="userSpaceOnUse"><stop stop-color="#0FF" stop-opacity=".69"/><stop offset="1" stop-color="#0FF" stop-opacity=".19"/></linearGradient><linearGradient id="B" x1="253.052" y1="89" x2="253.052" y2="215.601" gradientUnits="userSpaceOnUse"><stop stop-color="#0FF" stop-opacity=".69"/><stop offset="1" stop-color="#0FF" stop-opacity=".19"/></linearGradient></defs></svg>