<svg width="320" height="1234" viewBox="0 0 320 1234" fill="none" xmlns="http://www.w3.org/2000/svg"><path fill="url(#a)" fill-opacity=".8" d="M0 66h320v1080H0z" filter="url(#b)"/><path d="M496 105.735V1064S53.339 361.096 241.645 203.197C419.81 53.802 496 105.735 496 105.735z" fill="#0FF" fill-opacity=".05" filter="url(#c)"/><path d="M-300 362.28c30.822-20.199 155.716-126.762 380.133-126.762 280.521 0 437.31 248.3 860.325 43.182" stroke="url(#d)" stroke-opacity=".15"/><path d="M-300 355.094c30.822-20.198 155.716-126.762 380.133-126.762 280.521 0 437.31 248.301 860.325 43.183" stroke="url(#e)" stroke-opacity=".15"/><path d="M-300 347.909c30.822-20.198 155.716-126.762 380.133-126.762 280.521 0 437.31 248.301 860.325 43.183" stroke="url(#f)" stroke-opacity=".15"/><path d="M-300 340.724c30.822-20.198 155.716-126.762 380.133-126.762 280.521 0 437.31 248.301 860.325 43.183" stroke="url(#g)" stroke-opacity=".15"/><path d="M-300 333.539c30.822-20.198 155.716-126.762 380.133-126.762 280.521 0 437.31 248.301 860.325 43.183" stroke="url(#h)" stroke-opacity=".15"/><path d="M-300 326.354c30.822-20.198 155.716-126.762 380.133-126.762 280.521 0 437.31 248.3 860.325 43.182" stroke="url(#i)" stroke-opacity=".15"/><path d="M-300 319.169c30.822-20.199 155.716-126.763 380.133-126.763 280.521 0 437.31 248.301 860.325 43.183" stroke="url(#j)" stroke-opacity=".15"/><path d="M-300 311.984c30.822-20.199 155.716-126.763 380.133-126.763 280.521 0 437.31 248.301 860.325 43.183" stroke="url(#k)" stroke-opacity=".15"/><path d="M-300 304.799c30.822-20.199 155.716-126.763 380.133-126.763 280.521 0 437.31 248.301 860.325 43.183" stroke="url(#l)" stroke-opacity=".15"/><path d="M-300 297.613c30.822-20.198 155.716-126.762 380.133-126.762 280.521 0 437.31 248.301 860.325 43.183" stroke="url(#m)" stroke-opacity=".15"/><path d="M-300 290.428c30.822-20.198 155.716-126.762 380.133-126.762 280.521 0 437.31 248.301 860.325 43.183" stroke="url(#n)" stroke-opacity=".15"/><path d="M-300 283.243c30.822-20.198 155.716-126.762 380.133-126.762 280.521 0 437.31 248.301 860.325 43.183" stroke="url(#o)" stroke-opacity=".15"/><path d="M-300 276.058c30.822-20.198 155.716-126.762 380.133-126.762 280.521 0 437.31 248.3 860.325 43.183" stroke="url(#p)" stroke-opacity=".15"/><path d="M-300 268.873c30.822-20.199 155.716-126.762 380.133-126.762 280.521 0 437.31 248.3 860.325 43.182" stroke="url(#q)" stroke-opacity=".15"/><path d="M-300 261.688c30.822-20.199 155.716-126.762 380.133-126.762 280.521 0 437.31 248.3 860.325 43.182" stroke="url(#r)" stroke-opacity=".15"/><path d="M-300 254.503c30.822-20.199 155.716-126.762 380.133-126.762 280.521 0 437.31 248.3 860.325 43.182" stroke="url(#s)" stroke-opacity=".15"/><path d="M-300 247.317c30.822-20.198 155.716-126.762 380.133-126.762 280.521 0 437.31 248.301 860.325 43.183" stroke="url(#t)" stroke-opacity=".15"/><path d="M-300 240.132c30.822-20.198 155.716-126.762 380.133-126.762 280.521 0 437.31 248.301 860.325 43.183" stroke="url(#u)" stroke-opacity=".15"/><path d="M-300 232.947c30.822-20.198 155.716-126.762 380.133-126.762 280.521 0 437.31 248.3 860.325 43.182" stroke="url(#v)" stroke-opacity=".15"/><path d="M-300 225.762C-269.178 205.564-144.284 99 80.133 99c280.521 0 437.31 248.301 860.325 43.183" stroke="url(#w)" stroke-opacity=".15"/><defs><filter id="b" x="-10" y="56" width="340" height="1100" filterUnits="userSpaceOnUse" color-interpolation-filters="sRGB"><feFlood flood-opacity="0" result="BackgroundImageFix"/><feGaussianBlur in="BackgroundImageFix" stdDeviation="5"/><feComposite in2="SourceAlpha" operator="in" result="effect1_backgroundBlur_1741_29632"/><feBlend in="SourceGraphic" in2="effect1_backgroundBlur_1741_29632" result="shape"/></filter><filter id="c" x="25" y="-73" width="641" height="1307" filterUnits="userSpaceOnUse" color-interpolation-filters="sRGB"><feFlood flood-opacity="0" result="BackgroundImageFix"/><feBlend in="SourceGraphic" in2="BackgroundImageFix" result="shape"/><feGaussianBlur stdDeviation="85" result="effect1_foregroundBlur_1741_29632"/></filter><linearGradient id="a" x1="160" y1="66" x2="216.713" y2="1155.05" gradientUnits="userSpaceOnUse"><stop stop-color="#EFF6FF" stop-opacity=".49"/><stop offset=".528" stop-color="#EFF6FF" stop-opacity=".6"/><stop offset="1" stop-color="#EFF6FF" stop-opacity=".28"/></linearGradient><linearGradient id="d" x1="320.229" y1="235.518" x2="320.229" y2="362.28" gradientUnits="userSpaceOnUse"><stop stop-color="#FF1212" stop-opacity=".4"/><stop offset="1" stop-color="#FF1212" stop-opacity=".27"/></linearGradient><linearGradient id="e" x1="320.229" y1="228.332" x2="320.229" y2="355.094" gradientUnits="userSpaceOnUse"><stop stop-color="#FF1212" stop-opacity=".4"/><stop offset="1" stop-color="#FF1212" stop-opacity=".27"/></linearGradient><linearGradient id="f" x1="320.229" y1="221.147" x2="320.229" y2="347.909" gradientUnits="userSpaceOnUse"><stop stop-color="#FF1212" stop-opacity=".4"/><stop offset="1" stop-color="#FF1212" stop-opacity=".27"/></linearGradient><linearGradient id="g" x1="320.229" y1="213.962" x2="320.229" y2="340.724" gradientUnits="userSpaceOnUse"><stop stop-color="#FF1212" stop-opacity=".4"/><stop offset="1" stop-color="#FF1212" stop-opacity=".27"/></linearGradient><linearGradient id="h" x1="320.229" y1="206.777" x2="320.229" y2="333.539" gradientUnits="userSpaceOnUse"><stop stop-color="#FF1212" stop-opacity=".4"/><stop offset="1" stop-color="#FF1212" stop-opacity=".27"/></linearGradient><linearGradient id="i" x1="320.229" y1="199.592" x2="320.229" y2="326.354" gradientUnits="userSpaceOnUse"><stop stop-color="#FF1212" stop-opacity=".4"/><stop offset="1" stop-color="#FF1212" stop-opacity=".27"/></linearGradient><linearGradient id="j" x1="320.229" y1="192.406" x2="320.229" y2="319.169" gradientUnits="userSpaceOnUse"><stop stop-color="#FF1212" stop-opacity=".4"/><stop offset="1" stop-color="#FF1212" stop-opacity=".27"/></linearGradient><linearGradient id="k" x1="320.229" y1="185.221" x2="320.229" y2="311.984" gradientUnits="userSpaceOnUse"><stop stop-color="#FF1212" stop-opacity=".4"/><stop offset="1" stop-color="#FF1212" stop-opacity=".27"/></linearGradient><linearGradient id="l" x1="320.229" y1="178.036" x2="320.229" y2="304.799" gradientUnits="userSpaceOnUse"><stop stop-color="#FF1212" stop-opacity=".4"/><stop offset="1" stop-color="#FF1212" stop-opacity=".27"/></linearGradient><linearGradient id="m" x1="320.229" y1="170.851" x2="320.229" y2="297.613" gradientUnits="userSpaceOnUse"><stop stop-color="#FF1212" stop-opacity=".4"/><stop offset="1" stop-color="#FF1212" stop-opacity=".27"/></linearGradient><linearGradient id="n" x1="320.229" y1="163.666" x2="320.229" y2="290.428" gradientUnits="userSpaceOnUse"><stop stop-color="#FF1212" stop-opacity=".4"/><stop offset="1" stop-color="#FF1212" stop-opacity=".27"/></linearGradient><linearGradient id="o" x1="320.229" y1="156.481" x2="320.229" y2="283.243" gradientUnits="userSpaceOnUse"><stop stop-color="#FF1212" stop-opacity=".4"/><stop offset="1" stop-color="#FF1212" stop-opacity=".27"/></linearGradient><linearGradient id="p" x1="320.229" y1="149.296" x2="320.229" y2="276.058" gradientUnits="userSpaceOnUse"><stop stop-color="#FF1212" stop-opacity=".4"/><stop offset="1" stop-color="#FF1212" stop-opacity=".27"/></linearGradient><linearGradient id="q" x1="320.229" y1="142.111" x2="320.229" y2="268.873" gradientUnits="userSpaceOnUse"><stop stop-color="#FF1212" stop-opacity=".4"/><stop offset="1" stop-color="#FF1212" stop-opacity=".27"/></linearGradient><linearGradient id="r" x1="320.229" y1="134.926" x2="320.229" y2="261.688" gradientUnits="userSpaceOnUse"><stop stop-color="#FF1212" stop-opacity=".4"/><stop offset="1" stop-color="#FF1212" stop-opacity=".27"/></linearGradient><linearGradient id="s" x1="320.229" y1="127.741" x2="320.229" y2="254.503" gradientUnits="userSpaceOnUse"><stop stop-color="#FF1212" stop-opacity=".4"/><stop offset="1" stop-color="#FF1212" stop-opacity=".27"/></linearGradient><linearGradient id="t" x1="320.229" y1="120.555" x2="320.229" y2="247.317" gradientUnits="userSpaceOnUse"><stop stop-color="#FF1212" stop-opacity=".4"/><stop offset="1" stop-color="#FF1212" stop-opacity=".27"/></linearGradient><linearGradient id="u" x1="320.229" y1="113.37" x2="320.229" y2="240.132" gradientUnits="userSpaceOnUse"><stop stop-color="#FF1212" stop-opacity=".4"/><stop offset="1" stop-color="#FF1212" stop-opacity=".27"/></linearGradient><linearGradient id="v" x1="320.229" y1="106.185" x2="320.229" y2="232.947" gradientUnits="userSpaceOnUse"><stop stop-color="#FF1212" stop-opacity=".4"/><stop offset="1" stop-color="#FF1212" stop-opacity=".27"/></linearGradient><linearGradient id="w" x1="320.229" y1="99" x2="320.229" y2="225.762" gradientUnits="userSpaceOnUse"><stop stop-color="#FF1212" stop-opacity=".4"/><stop offset="1" stop-color="#FF1212" stop-opacity=".27"/></linearGradient></defs></svg>