<svg width="42" height="42" viewBox="0 0 42 42" fill="none" xmlns="http://www.w3.org/2000/svg"><path d="M34.286 24.657a.567.567 0 0 1-.567-.568v-1.685a.567.567 0 1 1 1.135 0v1.685a.567.567 0 0 1-.568.568z" fill="#D7F98F"/><path d="M16.165 40.865a.568.568 0 0 1-.567-.567V1.703a.568.568 0 0 1 .624-.567l18.122 1.833a.567.567 0 0 1 .511.567v9.269a.568.568 0 0 1-1.135 0V4.05L16.733 2.33v37.317l16.987-2.302V28.06a.568.568 0 0 1 1.135 0v9.78a.568.568 0 0 1-.49.562L16.241 40.86a.578.578 0 0 1-.077.005z" fill="#D7F98F"/><path d="M34.286 18.998a.568.568 0 0 1-.567-.568v-1.65a.567.567 0 1 1 1.135 0v1.651a.568.568 0 0 1-.568.568zM7.755 38.77a.568.568 0 0 1-.567-.568V3.522a.568.568 0 0 1 .567-.568h8.411a.567.567 0 1 1 0 1.135H8.323v34.114a.567.567 0 0 1-.568.568z" fill="#D7F98F"/><path d="M10.958 38.767a.567.567 0 0 1-.567-.567V6.833a.567.567 0 0 1 .567-.567h5.202a.568.568 0 0 1 0 1.135h-4.634V38.2a.567.567 0 0 1-.568.567z" fill="#D7F98F"/><path d="M16.16 38.768H1.733a.567.567 0 1 1 0-1.135H16.16a.568.568 0 0 1 0 1.135zm24.112 0h-8.689a.567.567 0 1 1 0-1.135h8.689a.568.568 0 0 1 0 1.135zM20.106 23.055a2.051 2.051 0 1 1 0-4.102 2.051 2.051 0 0 1 0 4.102zm0-2.967a.917.917 0 1 0 0 1.834.917.917 0 0 0 0-1.834z" fill="#D7F98F"/></svg>