<svg width="154" height="154" viewBox="0 0 154 154" fill="none" xmlns="http://www.w3.org/2000/svg"><g clip-path="url(#a)"><path d="M66.934 126.781v-8.118c0-4.949-4.005-8.96-8.945-8.96h-5.91v-3.846c-1.635 1.135-3.326 1.804-4.968 1.804-1.574 0-3.235-.676-4.863-1.824h-.1v3.866h-5.914c-4.941 0-8.946 4.011-8.946 8.96v8.118h39.646z" fill="#369CB7"/><path d="M66.934 127.444H27.288a.662.662 0 0 1-.662-.663v-8.118c0-5.306 4.31-9.622 9.608-9.622h5.251v-3.204c0-.367.297-.663.663-.663h.1c.137 0 .27.042.382.121 1.601 1.13 3.11 1.704 4.48 1.704 1.435 0 2.98-.568 4.592-1.687a.662.662 0 0 1 1.039.545v3.184h5.249c5.297 0 9.607 4.316 9.607 9.622v8.118a.662.662 0 0 1-.663.663zm-38.983-1.326h38.321v-7.455c0-4.575-3.716-8.296-8.283-8.296h-5.91a.662.662 0 0 1-.663-.663v-2.645c-1.475.841-2.92 1.266-4.305 1.266-1.365 0-2.807-.447-4.301-1.333v2.712a.662.662 0 0 1-.663.663h-5.913c-4.568 0-8.284 3.721-8.284 8.296v7.455z" fill="#fff"/><path d="M66.934 127.445H27.29a.663.663 0 0 1-.662-.663v-8.123c0-5.305 4.31-9.621 9.607-9.621h1.775a.66.66 0 0 1 .63.459l.008.025 5.603 7.442 2.644-1.994a.66.66 0 0 1 .796 0l2.644 1.994 5.604-7.443.008-.026a.661.661 0 0 1 .63-.457h1.414c5.297 0 9.607 4.316 9.607 9.622v8.122a.663.663 0 0 1-.662.663zm-38.983-1.326h38.321v-7.46c0-4.574-3.716-8.295-8.283-8.295h-1.027l-5.97 7.928a.66.66 0 0 1-.926.131l-2.774-2.093-2.774 2.093a.662.662 0 0 1-.927-.131l-5.969-7.928h-1.388c-4.568 0-8.283 3.721-8.283 8.295v7.46z" fill="#fff"/><path fill-rule="evenodd" clip-rule="evenodd" d="M63.235 84.056a3.52 3.52 0 0 0-4.196 2.682 3.52 3.52 0 1 0 6.874 1.52 3.525 3.525 0 0 0-2.678-4.202z" fill="#369CB7"/><path d="M62.473 91.683a4.19 4.19 0 0 1-4.182-4.188 4.19 4.19 0 0 1 4.182-4.188 4.19 4.19 0 0 1 4.182 4.188 4.19 4.19 0 0 1-4.182 4.188zm0-7.05a2.864 2.864 0 0 0-2.858 2.862 2.863 2.863 0 0 0 2.858 2.862 2.863 2.863 0 0 0 2.858-2.862 2.863 2.863 0 0 0-2.858-2.862z" fill="#fff"/><path d="M62.716 85.784c0 8.63-8.3 21.878-15.604 21.878-6.972 0-15.604-13.247-15.604-21.878 0-8.63 6.987-15.627 15.604-15.627 8.618 0 15.604 6.996 15.604 15.627z" fill="#369CB7"/><path d="M47.111 108.325c-3.463 0-7.458-2.911-10.96-7.988-3.273-4.743-5.305-10.319-5.305-14.553 0-8.982 7.297-16.29 16.265-16.29 8.97 0 16.268 7.308 16.268 16.29 0 4.282-1.985 9.856-5.178 14.549-3.458 5.08-7.5 7.992-11.09 7.992zm0-37.505c-8.238 0-14.941 6.714-14.941 14.965 0 8.061 8.347 21.215 14.94 21.215 3.1 0 6.836-2.772 9.995-7.413 3.052-4.486 4.947-9.773 4.947-13.802 0-8.251-6.702-14.965-14.941-14.965z" fill="#fff"/><path d="M43.126 85.608a1.524 1.524 0 1 1-1.523-1.525c.841 0 1.523.683 1.523 1.525zm11.019 0a1.524 1.524 0 0 1-3.046 0 1.524 1.524 0 1 1 3.046 0z" fill="#fff"/><path d="M47.292 66.708c-8.92 0-16.15 6.923-16.15 15.464 0 .904.163 1.577.467 2.419.143.396 2.455-.871 2.653-1.01.984-.695 1.789-1.635 2.39-2.675.249-.434.456-.873.623-1.314.532-1.404 1.979-5.313 3.448-5.007 1.969.411 4.2.644 6.57.644 2.367 0 4.6-.233 6.569-.644 1.468-.306 2.915 3.603 3.447 5.008.167.44.375.88.623 1.313.994 1.72 2.672 3.36 4.713 3.657.005-.098.13-.132.223-.165.668-.244.574-1.69.574-2.226 0-8.54-7.23-15.464-16.15-15.464z" fill="#369CB7"/><path d="M31.734 85.321a.767.767 0 0 1-.747-.506c-.304-.84-.507-1.613-.507-2.644 0-8.892 7.543-16.126 16.813-16.126 9.271 0 16.813 7.234 16.813 16.126l.002.172c.011.79.033 2.251-.965 2.66a.664.664 0 0 1-.592.218c-1.977-.29-3.918-1.779-5.191-3.983a9.83 9.83 0 0 1-.67-1.41l-.033-.09c-1.689-4.461-2.511-4.536-2.659-4.503-2.09.436-4.347.657-6.705.657-2.359 0-4.615-.222-6.704-.657-.148-.03-.971.042-2.66 4.504l-.034.089c-.182.48-.406.953-.668 1.41-.68 1.176-1.574 2.174-2.584 2.886-.02.013-1.933 1.197-2.909 1.197zm15.558-17.95c-8.54 0-15.487 6.639-15.487 14.8 0 .672.099 1.188.275 1.748.565-.206 1.568-.726 1.806-.883.85-.599 1.609-1.452 2.193-2.462.226-.393.42-.802.578-1.217l.033-.088c1.13-2.985 2.409-5.702 4.168-5.332 2.001.418 4.167.63 6.434.63 2.269 0 4.434-.212 6.435-.63 1.752-.37 3.039 2.347 4.168 5.331l.034.09c.157.414.35.823.577 1.217 1.006 1.741 2.464 2.948 3.946 3.28.051-.028.107-.052.17-.073.075-.077.176-.4.162-1.42l-.003-.19c0-8.162-6.948-14.801-15.489-14.801z" fill="#fff"/><path d="M37.978 109.725l3.186-2.404 6.145 8.167-3.185 2.405-6.146-8.168z" fill="#369CB7"/><path d="M44.12 118.557a.66.66 0 0 1-.53-.265l-6.144-8.166a.66.66 0 0 1 .13-.928l3.185-2.405a.662.662 0 0 1 .928.13l6.146 8.167a.664.664 0 0 1-.131.929l-3.185 2.404a.664.664 0 0 1-.398.134zm-5.218-8.7l5.349 7.107 2.127-1.606-5.348-7.108-2.128 1.607z" fill="#fff"/><path d="M50.469 117.892l-3.187-2.404 6.147-8.167 3.185 2.404-6.145 8.167z" fill="#369CB7"/><path d="M50.465 118.557a.653.653 0 0 1-.398-.134l-3.186-2.404a.657.657 0 0 1-.257-.437.658.658 0 0 1 .127-.491l6.145-8.167a.66.66 0 0 1 .927-.13l3.186 2.405a.66.66 0 0 1 .13.928l-6.145 8.166a.665.665 0 0 1-.529.264zm-2.258-3.199l2.128 1.607 5.348-7.108-2.128-1.606-5.348 7.107zm-13.493 12.087a.663.663 0 0 1-.662-.663v-6.418a.663.663 0 1 1 1.325 0v6.418a.663.663 0 0 1-.663.663zm25.156 0a.663.663 0 0 1-.662-.663v-6.418a.663.663 0 1 1 1.324 0v6.418a.663.663 0 0 1-.662.663z" fill="#fff"/><path d="M33.913 69.743c2.648 3.34 5.817 6.901 9.644 7.99 6.163 1.756 17.072-.433 17.072-9.318 0-5.681-4.754-12.548-13.628-7.32-11 6.481-17.384-5.977-17.384-.295 0 1.796.723 3.586 1.671 5.216l2.625 3.727z" fill="#369CB7"/><path d="M47.869 78.953c-1.627 0-3.175-.207-4.494-.581-3.934-1.121-7.122-4.611-9.982-8.217a2.507 2.507 0 0 0-.022-.03l-2.624-3.727a.591.591 0 0 1-.031-.048c-1.186-2.036-1.76-3.852-1.76-5.55 0-.746.085-1.652.762-2.036.8-.454 1.735.108 3.15.959 2.807 1.686 7.506 4.507 13.797.801 4.768-2.809 8.077-2.076 10.013-.967 3.188 1.826 4.614 5.765 4.614 8.858 0 3.137-1.309 5.785-3.787 7.659-2.674 2.022-6.318 2.879-9.636 2.879zm-13.426-9.608c2.718 3.426 5.726 6.735 9.294 7.75 3.69 1.051 9.33.673 12.97-2.08 2.163-1.637 3.26-3.858 3.26-6.6 0-2.711-1.22-6.145-3.947-7.707-2.341-1.342-5.344-1.01-8.683.959-6.97 4.105-12.292.91-15.15-.808-.669-.401-1.491-.895-1.805-.925-.035.084-.103.316-.103.866 0 1.45.513 3.04 1.567 4.857l2.597 3.688zm12.669 29.777c-2.29 0-3.943-1.03-4.91-3.066a.663.663 0 0 1 1.196-.57c.749 1.576 1.929 2.31 3.714 2.31 2.252 0 3.4-1.476 3.69-2.257a.662.662 0 1 1 1.241.465c-.561 1.502-2.344 3.118-4.931 3.118z" fill="#fff"/><path d="M125.496 118.663v8.118H85.851v-8.118c0-4.949 4.004-8.96 8.945-8.96h5.913v-3.866h.101c1.628 1.148 3.289 1.824 4.863 1.824 1.642 0 3.334-.669 4.968-1.804v3.846h5.91c4.94 0 8.945 4.011 8.945 8.96z" fill="#369CB7"/><path d="M125.497 127.444H85.851a.662.662 0 0 1-.662-.663v-8.118c0-5.306 4.31-9.622 9.607-9.622h5.251v-3.204c0-.367.297-.663.662-.663h.1a.66.66 0 0 1 .382.121c1.602 1.13 3.11 1.704 4.482 1.704 1.434 0 2.979-.568 4.59-1.687a.663.663 0 0 1 1.04.545v3.184h5.248c5.298 0 9.607 4.316 9.607 9.622v8.118a.66.66 0 0 1-.661.663zm-38.984-1.326h38.321v-7.455c0-4.575-3.716-8.296-8.283-8.296h-5.91a.663.663 0 0 1-.663-.663v-2.645c-1.476.841-2.919 1.266-4.304 1.266-1.366 0-2.808-.447-4.302-1.333v2.712a.663.663 0 0 1-.663.663h-5.913c-4.567 0-8.283 3.721-8.283 8.296v7.455z" fill="#fff"/><path d="M125.497 127.445H85.851a.663.663 0 0 1-.662-.663v-8.123c0-5.305 4.31-9.621 9.607-9.621h1.775a.663.663 0 0 1 .637.483l5.604 7.443 2.644-1.995a.66.66 0 0 1 .796 0l2.644 1.995 5.603-7.442.007-.026a.664.664 0 0 1 .631-.459h1.414c5.298 0 9.607 4.316 9.607 9.622v8.122a.661.661 0 0 1-.661.664zm-38.984-1.326h38.321v-7.46c0-4.573-3.716-8.295-8.283-8.295h-1.027l-5.969 7.928a.661.661 0 0 1-.927.131l-2.774-2.093-2.774 2.093a.66.66 0 0 1-.926-.131l-5.97-7.928h-1.388c-4.568 0-8.284 3.722-8.284 8.295v7.46h.001z" fill="#fff"/><path fill-rule="evenodd" clip-rule="evenodd" d="M93.637 86.35a3.52 3.52 0 1 0-6.657 2.293 3.518 3.518 0 0 0 4.473 2.186 3.526 3.526 0 0 0 2.184-4.48z" fill="#369CB7"/><path d="M90.314 91.683a4.19 4.19 0 0 1-4.183-4.188 4.19 4.19 0 0 1 4.183-4.188 4.19 4.19 0 0 1 4.182 4.188 4.191 4.191 0 0 1-4.182 4.188zm0-7.05a2.863 2.863 0 0 0 0 5.724 2.864 2.864 0 0 0 2.858-2.862 2.864 2.864 0 0 0-2.858-2.862z" fill="#fff"/><path d="M121.277 85.784c0 8.63-8.3 21.878-15.604 21.878-6.972 0-15.603-13.247-15.603-21.878 0-8.63 6.986-15.627 15.603-15.627 8.618 0 15.604 6.996 15.604 15.627z" fill="#369CB7"/><path d="M105.674 108.325c-3.463 0-7.458-2.911-10.961-7.988-3.272-4.743-5.305-10.319-5.305-14.553 0-8.982 7.297-16.29 16.266-16.29 8.969 0 16.267 7.308 16.267 16.29 0 4.282-1.984 9.856-5.178 14.549-3.458 5.08-7.499 7.992-11.089 7.992zm0-37.505c-8.238 0-14.942 6.714-14.942 14.965 0 8.061 8.348 21.215 14.942 21.215 3.099 0 6.836-2.772 9.994-7.413 3.052-4.486 4.948-9.773 4.948-13.802 0-8.251-6.704-14.965-14.942-14.965z" fill="#fff"/><path d="M101.689 85.608a1.524 1.524 0 0 1-3.046 0 1.524 1.524 0 1 1 3.046 0zm11.017 0a1.524 1.524 0 1 1-1.522-1.525c.84 0 1.522.683 1.522 1.525z" fill="#fff"/><path d="M105.853 66.708c-8.918 0-16.15 6.923-16.15 15.464 0 .904.164 1.577.467 2.419.143.396 2.455-.871 2.653-1.01.985-.695 1.789-1.635 2.39-2.675.249-.434.456-.873.623-1.314.532-1.404 1.979-5.313 3.448-5.007 1.969.411 4.201.644 6.569.644 2.369 0 4.601-.233 6.57-.644 1.468-.306 2.915 3.603 3.448 5.008.166.44.374.88.622 1.313.994 1.72 2.672 3.36 4.714 3.657.005-.098.129-.132.222-.165.668-.244.574-1.69.574-2.226.001-8.54-7.23-15.464-16.15-15.464z" fill="#369CB7"/><path d="M90.295 85.322a.77.77 0 0 1-.748-.506c-.303-.842-.505-1.614-.505-2.644 0-8.892 7.542-16.127 16.813-16.127 9.269 0 16.812 7.234 16.812 16.127l.001.172c.012.79.034 2.25-.964 2.659a.662.662 0 0 1-.592.218c-1.978-.29-3.918-1.779-5.191-3.982a10.062 10.062 0 0 1-.669-1.41l-.034-.09c-1.689-4.462-2.514-4.536-2.658-4.503-2.091.436-4.347.657-6.705.657-2.359 0-4.616-.22-6.705-.657-.148-.031-.97.04-2.66 4.503l-.034.09a9.78 9.78 0 0 1-.668 1.409c-.68 1.178-1.573 2.175-2.584 2.887-.02.012-1.933 1.197-2.909 1.197zm15.56-17.951c-8.54 0-15.489 6.639-15.489 14.8 0 .672.1 1.188.276 1.748.565-.206 1.568-.726 1.805-.883.85-.599 1.61-1.452 2.194-2.462.226-.393.42-.802.577-1.217l.034-.089c1.13-2.984 2.409-5.702 4.168-5.331 2.001.418 4.166.629 6.435.629 2.268 0 4.433-.212 6.434-.63 1.754-.367 3.038 2.347 4.168 5.333l.033.088c.157.415.352.824.579 1.218 1.005 1.742 2.462 2.948 3.945 3.28.05-.028.106-.05.168-.073.076-.077.178-.4.163-1.419l-.003-.192c0-8.161-6.948-14.8-15.487-14.8z" fill="#fff"/><path d="M96.54 109.723l3.185-2.405 6.146 8.167-3.186 2.404-6.145-8.166z" fill="#369CB7"/><path d="M102.682 118.557a.658.658 0 0 1-.529-.265l-6.146-8.166a.664.664 0 0 1 .131-.928l3.186-2.405a.661.661 0 0 1 .927.13l6.145 8.167a.666.666 0 0 1-.131.929l-3.186 2.404a.653.653 0 0 1-.397.134zm-5.219-8.7l5.349 7.107 2.128-1.606-5.348-7.107-2.129 1.606z" fill="#fff"/><path d="M109.03 117.89l-3.185-2.404 6.146-8.167 3.185 2.405-6.146 8.166z" fill="#369CB7"/><path d="M109.026 118.557a.649.649 0 0 1-.397-.134l-3.186-2.404a.662.662 0 0 1-.131-.928l6.146-8.166a.66.66 0 0 1 .927-.131l3.186 2.405a.664.664 0 0 1 .131.928l-6.146 8.167a.666.666 0 0 1-.53.263zm-2.258-3.198l2.129 1.606 5.348-7.107-2.128-1.606-5.349 7.107zm-13.492 12.086a.663.663 0 0 1-.662-.663v-6.417a.663.663 0 1 1 1.325 0v6.417a.663.663 0 0 1-.663.663zm25.155 0a.663.663 0 0 1-.662-.663v-6.417a.663.663 0 1 1 1.324 0v6.417a.662.662 0 0 1-.662.663zm-12.758-28.322c-2.29 0-3.943-1.03-4.909-3.066a.663.663 0 0 1 1.196-.57c.748 1.576 1.928 2.31 3.713 2.31 2.253 0 3.399-1.477 3.692-2.257a.66.66 0 1 1 1.239.465c-.561 1.502-2.344 3.118-4.931 3.118z" fill="#fff"/><path fill-rule="evenodd" clip-rule="evenodd" d="M92.36 87.99a3.52 3.52 0 0 0-4 2.97 3.52 3.52 0 1 0 6.963 1.037 3.524 3.524 0 0 0-2.963-4.006zm30.616-18.724s-7.542 7.93-16.846 7.93-12.655-3.55-12.655-7.93 3.35-7.932 12.655-7.932c9.304.001 16.846 7.932 16.846 7.932z" fill="#369CB7"/><path d="M106.13 77.86c-11.587 0-13.316-5.385-13.316-8.594 0-3.21 1.729-8.594 13.316-8.594 9.479 0 17.011 7.805 17.326 8.137a.663.663 0 0 1 0 .914c-.315.333-7.847 8.137-17.326 8.137zm0-15.862c-7.845 0-11.992 2.514-11.992 7.268s4.147 7.266 11.992 7.266c7.635 0 14.14-5.606 15.9-7.266-1.761-1.66-8.277-7.268-15.9-7.268z" fill="#fff"/><path d="M59.523 82.921h33.49v38.389h-33.49V82.921z" fill="#369CB7"/><path d="M93.013 121.973h-33.49a.663.663 0 0 1-.661-.663V82.921c0-.367.296-.663.662-.663h33.49c.365 0 .661.296.661.663v38.389a.663.663 0 0 1-.662.663zm-32.827-1.327H92.35V83.585H60.186v37.061z" fill="#fff"/><path d="M96.312 126.782v-4.063c0-4.948-4.004-8.959-8.944-8.959h-5.91v-3.847c-1.635 1.135-3.327 1.805-4.968 1.805-1.575 0-3.236-.676-4.864-1.826h-.1v3.868h-5.914c-4.94 0-8.946 4.011-8.946 8.959v4.063h39.646z" fill="#369CB7"/><path d="M96.312 127.445H56.667a.663.663 0 0 1-.662-.663v-4.064c0-5.305 4.31-9.622 9.607-9.622h5.251v-3.203c0-.367.297-.663.662-.663h.1c.137 0 .27.042.382.12 1.602 1.131 3.11 1.704 4.483 1.704 1.433 0 2.978-.567 4.59-1.686a.662.662 0 0 1 1.04.545v3.183h5.247c5.298 0 9.608 4.317 9.608 9.622v4.064a.664.664 0 0 1-.663.663zm-38.983-1.326H95.65v-3.401c0-4.574-3.716-8.296-8.284-8.296h-5.91a.662.662 0 0 1-.662-.663v-2.644c-1.476.84-2.92 1.265-4.305 1.265-1.365 0-2.808-.447-4.302-1.333v2.712a.662.662 0 0 1-.662.663h-5.913c-4.568 0-8.284 3.722-8.284 8.296v3.401h.001z" fill="#fff"/><path d="M96.312 127.445H56.667a.663.663 0 0 1-.662-.664v-4.066c0-5.305 4.31-9.622 9.607-9.622h1.775a.663.663 0 0 1 .638.484l5.603 7.443 2.644-1.995a.66.66 0 0 1 .796 0l2.644 1.995 5.603-7.443a.662.662 0 0 1 .637-.484h1.415c5.297 0 9.607 4.317 9.607 9.622v4.066a.662.662 0 0 1-.662.664zm-38.983-1.327H95.65v-3.403c0-4.574-3.716-8.296-8.284-8.296H86.34l-5.969 7.929a.662.662 0 0 1-.927.131l-2.774-2.094-2.774 2.094a.663.663 0 0 1-.927-.131L67 114.419h-1.39c-4.567 0-8.283 3.722-8.283 8.296v3.403h.001z" fill="#fff"/><path d="M92.094 89.84c0 8.631-8.3 21.878-15.604 21.878-6.972 0-15.604-13.248-15.604-21.878 0-8.631 6.986-15.627 15.604-15.627 8.618 0 15.604 6.997 15.604 15.627z" fill="#369CB7"/><path d="M76.49 112.382c-3.463 0-7.458-2.912-10.96-7.989-3.273-4.742-5.306-10.318-5.306-14.553 0-8.982 7.297-16.29 16.267-16.29 8.969 0 16.265 7.308 16.265 16.29 0 4.281-1.984 9.857-5.177 14.55-3.457 5.078-7.498 7.992-11.088 7.992zm0-37.506c-8.238 0-14.941 6.713-14.941 14.964 0 8.062 8.347 21.215 14.942 21.215 3.098 0 6.834-2.771 9.993-7.412 3.052-4.486 4.948-9.774 4.948-13.803 0-8.25-6.703-14.964-14.941-14.964z" fill="#fff"/><path d="M72.504 89.664a1.523 1.523 0 1 1-3.046 0c0-.843.682-1.526 1.523-1.526.84 0 1.523.683 1.523 1.526zm11.018 0a1.524 1.524 0 1 1-1.524-1.526c.842 0 1.524.683 1.524 1.526z" fill="#fff"/><path d="M67.356 113.779l3.186-2.404 6.146 8.166-3.185 2.405-6.147-8.167z" fill="#369CB7"/><path d="M73.498 122.613a.66.66 0 0 1-.53-.264l-6.145-8.167a.659.659 0 0 1-.127-.491.658.658 0 0 1 .257-.437l3.186-2.404a.66.66 0 0 1 .928.13l6.146 8.167a.666.666 0 0 1-.131.928l-3.186 2.405a.665.665 0 0 1-.398.133zm-5.219-8.7l5.35 7.108 2.127-1.606-5.349-7.108-2.128 1.606z" fill="#fff"/><path d="M79.846 121.947l-3.186-2.405 6.146-8.166 3.185 2.404-6.145 8.167z" fill="#369CB7"/><path d="M79.843 122.613a.665.665 0 0 1-.399-.133l-3.185-2.405a.658.658 0 0 1-.257-.437.659.659 0 0 1 .127-.491l6.145-8.167a.661.661 0 0 1 .928-.13l3.185 2.404a.663.663 0 0 1 .131.928l-6.146 8.167a.66.66 0 0 1-.53.264zm-2.258-3.198l2.128 1.606 5.348-7.108-2.128-1.606-5.348 7.108zM76.49 103.18c-2.29 0-3.943-1.032-4.91-3.067a.662.662 0 1 1 1.196-.57c.749 1.576 1.93 2.31 3.714 2.31 2.253 0 3.4-1.476 3.69-2.257a.662.662 0 1 1 1.241.466c-.56 1.501-2.344 3.118-4.931 3.118z" fill="#fff"/><path d="M94.248 84.112c0 1.601-.207 3.154-.601 4.631-3.997-1.93-7.799-4.299-11.32-6.977a49.64 49.64 0 0 1-3.022-2.467 30.536 30.536 0 0 1-3.338-3.4c-2.212-2.668-3.836-5.734-5.211-8.927a17.854 17.854 0 0 1 5.51-.865A17.92 17.92 0 0 1 89.33 71.74a17.94 17.94 0 0 1 4.92 12.373z" fill="#369CB7"/><path d="M93.647 89.407a.67.67 0 0 1-.287-.066c-3.94-1.903-7.786-4.273-11.433-7.047a49.86 49.86 0 0 1-3.062-2.5 31.355 31.355 0 0 1-3.406-3.47c-1.984-2.394-3.672-5.281-5.31-9.088a.664.664 0 0 1 .403-.894 18.498 18.498 0 0 1 5.715-.898c5.174 0 9.984 2.074 13.543 5.84a18.59 18.59 0 0 1 5.1 12.829c0 1.63-.209 3.247-.623 4.8a.664.664 0 0 1-.64.494zM71.663 67.393c1.493 3.352 3.033 5.934 4.815 8.083a29.94 29.94 0 0 0 3.264 3.326 48.97 48.97 0 0 0 2.986 2.436 66.337 66.337 0 0 0 10.47 6.546 17.43 17.43 0 0 0 .389-3.67 17.27 17.27 0 0 0-4.737-11.917c-3.307-3.499-7.776-5.426-12.582-5.426-1.569 0-3.115.208-4.605.622z" fill="#fff"/><path d="M89.329 71.74c-3.094 2.825-6.46 5.323-10.024 7.559-6.32 3.967-13.251 7.097-20.344 9.704a17.98 17.98 0 0 1-.672-4.89c0-8.02 5.234-14.814 12.467-17.14a17.844 17.844 0 0 1 5.51-.866c5.144 0 9.784 2.165 13.063 5.633z" fill="#369CB7"/><path d="M58.961 89.666a.66.66 0 0 1-.637-.483 18.677 18.677 0 0 1-.698-5.07c0-8.142 5.195-15.284 12.927-17.77a18.48 18.48 0 0 1 5.714-.899c5.173 0 9.982 2.075 13.543 5.84a.666.666 0 0 1-.035.947c-2.982 2.723-6.387 5.29-10.12 7.631-5.8 3.641-12.495 6.835-20.466 9.764a.644.644 0 0 1-.228.04zM76.267 66.77c-1.816 0-3.602.28-5.307.834-7.183 2.31-12.009 8.945-12.009 16.509 0 1.359.156 2.706.467 4.015 7.583-2.828 13.98-5.903 19.536-9.39 3.453-2.167 6.618-4.528 9.419-7.027-3.254-3.191-7.527-4.94-12.106-4.94z" fill="#fff"/><path d="M61.234 46.529v9.691a2.695 2.695 0 0 0 2.692 2.697h59.228a2.694 2.694 0 0 0 2.692-2.697V30.907a2.695 2.695 0 0 0-2.692-2.696H63.926a2.695 2.695 0 0 0-2.692 2.696V46.53z" fill="#369CB7"/><path d="M123.154 59.58H63.926a3.361 3.361 0 0 1-3.355-3.359V46.53a.663.663 0 1 1 1.324 0v9.691c0 1.121.911 2.034 2.031 2.034h59.228c1.119 0 2.03-.913 2.03-2.034V30.908c0-1.12-.911-2.033-2.03-2.033H63.926c-1.12 0-2.03.913-2.03 2.033v9.77a.663.663 0 1 1-1.325 0v-9.77a3.362 3.362 0 0 1 3.355-3.36h59.228a3.361 3.361 0 0 1 3.354 3.36v25.313a3.361 3.361 0 0 1-3.354 3.36z" fill="#fff"/><path d="M90.328 32.864H68.196c-1.06 0-1.92.86-1.92 1.922v17.558a1.92 1.92 0 0 0 1.92 1.921h50.688a1.92 1.92 0 0 0 1.918-1.921V34.786a1.92 1.92 0 0 0-1.918-1.92H90.328v-.002z" fill="#369CB7"/><path d="M118.883 54.93H68.197a2.586 2.586 0 0 1-2.582-2.585V34.787a2.586 2.586 0 0 1 2.582-2.585h22.132a.663.663 0 0 1 0 1.326H68.197a1.26 1.26 0 0 0-1.258 1.259v17.558a1.26 1.26 0 0 0 1.258 1.258h50.686a1.26 1.26 0 0 0 1.257-1.258V34.787a1.26 1.26 0 0 0-1.257-1.26H95.978a.663.663 0 0 1 0-1.325h22.905a2.586 2.586 0 0 1 2.582 2.585v17.558a2.586 2.586 0 0 1-2.582 2.584z" fill="#fff"/><path d="M84.649 50.282h-.042a.661.661 0 0 1-.52-.311l-6.92-11.083-4.406 9.286a.663.663 0 0 1-1.196-.569l4.924-10.38a.662.662 0 0 1 1.16-.067l7.07 11.323 4.34-5.336a.661.661 0 0 1 .798-.18l5.876 2.805 5.012-6.087a.66.66 0 0 1 .999-.026l6.382 6.988 6.718-3.245a.662.662 0 1 1 .575 1.194l-7.162 3.46a.66.66 0 0 1-.776-.15l-6.199-6.789-4.857 5.898a.661.661 0 0 1-.796.176l-5.872-2.802-4.595 5.65a.66.66 0 0 1-.513.245z" fill="#fff"/></g><path d="M152.008 77.444c0 41.73-33.777 75.556-75.44 75.556-41.664 0-75.441-33.826-75.441-75.556S34.904 1.89 76.567 1.89c41.664 0 75.441 33.826 75.441 75.555z" stroke="#fff" stroke-width="2"/><defs><clipPath id="a"><path fill="#fff" transform="translate(26.626 27.428)" d="M0 0h99.882v100.033H0z"/></clipPath></defs></svg>