<svg width="176" height="128" viewBox="0 0 176 128" fill="none" xmlns="http://www.w3.org/2000/svg"><path d="M60.216 19.444H43.922a6.5 6.5 0 0 1-6.5-6.503V8.39a6.5 6.5 0 0 1 6.5-6.502h16.285a6.5 6.5 0 0 1 6.5 6.503v4.549a6.482 6.482 0 0 1-6.491 6.503z" stroke="#fff" stroke-width="3.679" stroke-miterlimit="10"/><path d="M103.935 92.474H4.918a3.32 3.32 0 0 1-3.323-3.325V16.63a3.32 3.32 0 0 1 3.323-3.324h99.017a3.321 3.321 0 0 1 3.323 3.324v72.52a3.321 3.321 0 0 1-3.323 3.324z" fill="#369CB7" stroke="#fff"/><path d="M106.091 58.973H3.116a2.49 2.49 0 0 1-2.489-2.49V14.548a2.49 2.49 0 0 1 2.49-2.49H106.09a2.49 2.49 0 0 1 2.489 2.49v41.933a2.49 2.49 0 0 1-2.489 2.49z" fill="#369CB7" stroke="#fff"/><path d="M25.549 62.46a3.957 3.957 0 0 1-3.955-3.956v-46.37h7.91v46.37a3.957 3.957 0 0 1-3.955 3.956z" fill="#369CB7" stroke="#fff"/><path d="M29.422 54.323H22.45a2.406 2.406 0 0 1 0-4.813h6.972a2.406 2.406 0 0 1 0 4.813zm49.041 8.137a3.957 3.957 0 0 1-3.954-3.956v-46.37h7.909v46.37a3.957 3.957 0 0 1-3.955 3.956z" fill="#369CB7" stroke="#fff"/><path d="M82.337 54.323h-6.972a2.406 2.406 0 0 1 0-4.813h6.972a2.406 2.406 0 0 1 0 4.813zm74.63 45.872l-.223.486a17.204 17.204 0 0 0 .383 15.046l-34.978 10.128-.495-16.259 35.313-9.401z" fill="#369CB7" stroke="#fff"/><path d="M157.29 116.444l-33.375 10.407-1.784-.912 35.159-10.553v1.058zm-2.746-16.504l-30.75 9.479H46.711l32.17-9.48h75.663z" fill="#369CB7" stroke="#fff"/><path d="M123.125 110.428a22.675 22.675 0 0 0 .004 16.469H43.544a17.617 17.617 0 0 1-.002-16.469h79.583zm11.709 1.199a126.1 126.1 0 0 1-4.23 1.16 116.863 116.863 0 0 1 4.107-1.579l.694-.252a64.575 64.575 0 0 1 1.865-.659l.004-.001.896-.304c.586-.199 1.176-.398 1.769-.602.336-.106.67-.212 1.003-.319.561-.178 1.118-.356 1.674-.528l.009-.003c.547-.181 1.082-.336 1.619-.492.325-.094.651-.189.981-.29 1.52-.449 2.961-.839 4.231-1.159a118.976 118.976 0 0 1-4.802 1.831c-.613.224-1.231.449-1.865.659l-.004.001-.896.304c-.586.198-1.176.398-1.769.601l-1.062.337c-.544.173-1.084.345-1.617.512l-.004.001c-.536.172-1.062.326-1.587.48-.338.099-.675.198-1.016.302zm5.791 6.024c-.972.274-1.897.508-2.712.692.758-.35 1.635-.724 2.579-1.099a69.298 69.298 0 0 1 3.317-1.222 60.902 60.902 0 0 1 3.37-1.036l.003-.001a53.932 53.932 0 0 1 2.712-.693c-.758.35-1.635.724-2.579 1.099l-.001.001a65.13 65.13 0 0 1-3.316 1.222 68.91 68.91 0 0 1-3.373 1.037z" fill="#369CB7" stroke="#fff"/><g opacity=".2" fill="#fff"><g opacity=".2"><mask id="a"><path d="M46.36 115.986a890.905 890.905 0 0 0 64.096 1.563c3.172-.041 6.691-.235 8.907-2.503-2.062-.785-4.344-.721-6.56-.656a347.25 347.25 0 0 1-38.071-1.02c-9.894-.81-19.942-2.033-29.658-.033-.42.089-.906.235-1.043.64-.26.745.833 1.174 1.626 1.199 12.717.364 25.434.721 38.151 1.085"/></mask><path d="M46.36 115.986a890.905 890.905 0 0 0 64.096 1.563c3.172-.041 6.691-.235 8.907-2.503-2.062-.785-4.344-.721-6.56-.656a347.25 347.25 0 0 1-38.071-1.02c-9.894-.81-19.942-2.033-29.658-.033-.42.089-.906.235-1.043.64-.26.745.833 1.174 1.626 1.199 12.717.364 25.434.721 38.151 1.085"/><path d="M110.456 117.549l.012 1h.001l-.013-1zm8.907-2.503l.716.699 1.066-1.091-1.426-.542-.356.934zm-6.56-.656l.028 1h.001l-.029-1zm-38.071-1.02l.081-.997-.081.997zm-29.658-.033l-.202-.979-.005.001.207.978zm-1.043.64l.944.328.002-.006-.946-.322zm1.626 1.199l-.031.999h.002l.029-.999zm.643 1.808a891.748 891.748 0 0 0 64.168 1.565l-.023-2a888.925 888.925 0 0 1-64.024-1.562l-.12 1.997zm64.169 1.565c1.588-.021 3.35-.079 5.011-.439 1.67-.362 3.308-1.045 4.599-2.365l-1.431-1.398c-.926.948-2.155 1.497-3.592 1.808-1.446.314-3.029.374-4.612.394l.025 2zm9.25-4.437c-2.281-.869-4.769-.785-6.946-.721l.059 1.999c2.256-.066 4.331-.112 6.176.591l.711-1.869zm-6.945-.721a346.238 346.238 0 0 1-37.96-1.018l-.164 1.993a348.256 348.256 0 0 0 38.181 1.024l-.057-1.999zm-37.96-1.018c-9.826-.804-20.05-2.052-29.942-.015l.404 1.959c9.54-1.965 19.411-.766 29.374.049l.163-1.993zm-29.947-.014a3.536 3.536 0 0 0-.878.29c-.325.167-.724.472-.905 1.007l1.893.643a.314.314 0 0 1-.075.124c-.02.021-.026.019.001.005a.81.81 0 0 1 .141-.053c.068-.021.146-.04.237-.059l-.414-1.957zm-1.781 1.29c-.157.451-.114.908.098 1.301.193.358.49.598.751.755.517.309 1.164.454 1.69.47l.062-1.999a1.787 1.787 0 0 1-.4-.06 1.304 1.304 0 0 1-.324-.127c-.078-.047-.055-.055-.019.012a.412.412 0 0 1 .031.304l-1.89-.656zm2.542 2.526c6.359.183 12.718.363 19.076.543 6.359.18 12.717.36 19.076.543l.057-2c-6.359-.182-12.718-.362-19.076-.542-6.359-.18-12.717-.361-19.076-.543l-.057 1.999z" mask="url(#a)"/></g><path opacity=".2" d="M107.24 118.418h.001l.004.5-.005-.5zm0 0c-6.944.056-13.881.016-20.827-.097a883.74 883.74 0 0 0-7.33-.078l28.157.175zm12.215-2.435l.053.202.083.321c.23-.169.456-.35.678-.544.753-.657.316-1.904-.566-2.155a18.877 18.877 0 0 0-.879-.227l.117.449.026.1m.488 1.854c.164-.126.326-.259.485-.398h.001c.201-.176.26-.435.178-.711-.084-.287-.301-.514-.553-.586-.199-.057-.398-.11-.599-.159m.488 1.854c-.14.108-.283.211-.426.309l-.062-2.163m.488 1.854a411.737 411.737 0 0 0-.488-1.854m-32.377-.924c5.824.292 11.649.454 17.481.479h.001a92.538 92.538 0 0 0 3.915-.096l.286-.011c1.223-.048 2.448-.096 3.668-.107 2.058-.018 4.083.071 6.023.44-.68.528-1.463.935-2.325 1.245-1.202-.111-2.423-.126-3.638-.097-1.148.027-2.299.095-3.427.161l-.209.012c-1.198.07-2.367.136-3.497.15-4.758.056-9.516.024-14.263-.138a227.712 227.712 0 0 1-5.678-.265 1.896 1.896 0 0 0-1.05-.46c-6.31-.781-12.758-.897-19.151-.976l-.927-.056c-3.138-.185-6.307-.286-9.47-.169l-.631-.039c-.414-.026-.831-.053-1.255-.075-1.212-.066-2.445-.1-3.64.001H48.8c-.06.005-.162.009-.291.015-.401.018-1.075.047-1.661.152-.398.071-.824.185-1.166.387-.35.207-.674.551-.687 1.069l41.596-1.622zm0 0c-3.916-.195-7.86-.559-11.798-.923-1.965-.181-3.93-.362-5.889-.523-5.898-.482-11.776-.775-17.61-.32l35.297 1.766zm31.873.295c-3.285-.695-6.785-.557-10.208-.423-1.414.056-2.815.111-4.182.107a382.091 382.091 0 0 1-17.458-.478c-3.905-.195-7.83-.557-11.762-.92-7.869-.727-15.766-1.456-23.598-.846l67.208 2.56zm-68.505-2.003c.51-.016.975-.03 1.335-.058l-6.298 3.405.413.004a1.732 1.732 0 0 0-.556 1.154 5.19 5.19 0 0 1-.745-.24c-.473-.197-.812-.449-1-.756-.177-.29-.26-.697-.091-1.309.146-.529.531-.94 1.138-1.263.613-.327 1.413-.54 2.296-.678.877-.137 1.804-.196 2.656-.23.292-.011.579-.02.852-.029zm50.887 4.305a946.44 946.44 0 0 1-9.533-.035l-.724-.024 10.257.059zm-44.86-1.527l-.004.121c2.559.072 5.126.103 7.695.134l1.021.012c3.16.196 6.323.439 9.492.681 1.273.098 2.546.195 3.82.29-3.212-.12-6.434-.293-9.662-.466-1.312-.07-2.625-.141-3.94-.207-4.03-.206-8.066-.378-12.091-.415l3.669-.15zm-10.132 1.905a.62.62 0 0 1 .005-.182c.053-.313.273-.515.514-.516l.011-.001c5.953-.181 11.955.051 17.974.357 1.308.067 2.617.137 3.927.207 4.71.253 9.426.506 14.115.595l2.03.037a.677.677 0 0 1-.071.099c-.104.116-.28.223-.574.242-9.439.628-19.145.133-28.732-.355-2.605-.133-5.201-.266-7.78-.375h-.002a16.799 16.799 0 0 1-1.417-.108zm71.64-.766c.23-.128.453-.265.67-.412l.051.193.106.4c-.274-.068-.55-.128-.827-.181z" stroke="#fff"/></g><path d="M125.8 110.985l-.28-.119a.3.3 0 0 0-.184-.018c-.048.012-.111.044-.174.135-.434.624-.959 1.832-1.403 3.333-.441 1.49-.789 3.22-.891 4.866-.103 1.656.046 3.171.549 4.265.249.541.577.966.993 1.263.413.295.938.484 1.615.511l-.225-14.236zm0 0l.234-.196m-.234.196l.234-.196m0 0c1.124-.938 2.456-1.398 4.032-1.398.347 0 .609.359.516.669l-.001.002c-.234.799-.615 1.537-1.032 2.315l-.098.183c-.383.711-.787 1.462-1.077 2.278a14.405 14.405 0 0 0-.746 6.418c.038.354.119.698.196 1.011l.03.121c.067.274.128.52.167.763.086.535.047.954-.271 1.35v.001m-1.716-13.713l1.716 13.713m0 0c-.392.492-1.05.747-1.725.719l1.725-.719z" fill="#369CB7" stroke="#fff"/><path d="M123.388 126.781l-.001-.001c-2.123-3.949-2.125-7.908-1.564-10.942.561-3.037 1.682-5.117 1.763-5.262l.001-.002a.538.538 0 0 1 .31-.258l.003-.001 33.638-10.788h.002a.55.55 0 0 1 .331 1.048l-33.216 10.65-.208.067-.092.198c-.716 1.531-3.263 7.763-.398 13.979l.183.395.416-.126 33.226-10.092.002-.001a.542.542 0 0 1 .675.36l.002.007a.545.545 0 0 1-.359.677l-.004.001-34.075 10.35-.013.004-.013.005a.54.54 0 0 1-.609-.268z" fill="#369CB7" stroke="#fff"/><path opacity=".2" d="M96.252 101.094c-1.437.017-2.89.059-4.347.101-4.75.138-9.558.277-14.12-.434a.21.21 0 0 1-.022-.099.2.2 0 0 1 .022-.098c4.56-.711 9.364-.572 14.114-.435 1.459.043 2.913.085 4.353.102 5.566.067 11.121.242 16.683.43-5.565.185-11.124.365-16.683.433zm0 0l.006.5m-.006-.5l.006.5m0 0c5.797-.071 11.593-.264 17.39-.457l2.608-.086-38.556.203c4.614.72 9.49.578 14.252.44 1.45-.042 2.888-.083 4.306-.1z" fill="#fff" stroke="#fff"/><g opacity=".2" fill="#fff"><g opacity=".2"><mask id="b"><path d="M44.984 125.486h37.343-37.343z"/></mask><path d="M44.984 125.486h37.343-37.343z"/><path d="M44.984 126.486h37.343v-2H44.984v2z" mask="url(#b)"/></g><path opacity=".2" d="M59.547 125.576c-4.054.056-8.117.113-12.135-.093 3.962-.199 7.972-.146 11.974-.093 1.424.019 2.847.038 4.267.045 1.52.008 3.045.005 4.572.002 2.71-.006 5.425-.012 8.126.045-2.7.057-5.416.051-8.125.045-1.528-.003-3.053-.006-4.573.002-1.367.009-2.736.028-4.106.047z" stroke="#fff"/></g><g opacity=".2" fill="#fff"><g opacity=".2"><mask id="c"><path d="M86.689 126.531h2.095-2.096z"/></mask><path d="M86.689 126.531h2.095-2.096z"/><path d="M86.689 127.531h2.095v-2H86.69v2z" mask="url(#c)"/></g><g opacity=".2"><mask id="d"><path d="M86.688 126.911c.712-.008 1.465.057 2.152-.17a.22.22 0 0 0 0-.421c-.688-.227-1.44-.162-2.152-.17-.485 0-.485.769 0 .761z"/></mask><path d="M86.688 126.911c.712-.008 1.465.057 2.152-.17a.22.22 0 0 0 0-.421c-.688-.227-1.44-.162-2.152-.17-.485 0-.485.769 0 .761z"/><path d="M86.688 126.911l-.011-1h-.005l.016 1zm2.152-.17l-.294-.956-.01.003-.009.003.313.95zm0-.421l-.313.95.01.003.009.003.294-.956zm-2.152-.17l.012-1h-.012v1zm.012 1.761c.569-.006 1.572.07 2.453-.22l-.626-1.9c-.494.163-.996.111-1.85.12l.023 2zm2.435-.214c1.15-.355 1.15-1.978 0-2.333l-.59 1.912c-.73-.225-.73-1.266 0-1.491l.59 1.912zm.018-2.327c-.88-.29-1.884-.214-2.453-.22l-.023 2c.854.01 1.356-.043 1.85.12l.626-1.9zm-2.465-.22c-.412 0-.784.175-1.038.476a1.409 1.409 0 0 0-.326.908c0 .295.092.632.331.911.259.303.637.473 1.05.466l-.033-2a.666.666 0 0 1 .503.235.598.598 0 0 1 .15.388.589.589 0 0 1-.145.38.656.656 0 0 1-.492.236v-2z" mask="url(#d)"/></g></g><g opacity=".2" fill="#fff"><g opacity=".2"><mask id="e"><path d="M94.374 126.531h24.431-24.431z"/></mask><path d="M94.374 126.531h24.431-24.431z"/><path d="M94.374 127.531h24.431v-2H94.374v2z" mask="url(#e)"/></g><path opacity=".2" d="M107.352 126.52c-.72.003-1.44.007-2.16.013.72.007 1.44.012 2.16.016h.001l-.003.5c1.096.005 2.206.042 3.321.078 2.762.092 5.554.185 8.239-.208l-11.558-.399zm0 0c1.129-.004 2.258-.042 3.383-.079 2.443-.081 4.869-.162 7.234.094l-10.617-.015z" stroke="#fff"/></g><path d="M140.392 119.948l-3.548 4.779v-9.744l7.284-2.144v9.385l-3.026-2.372-.404-.316-.306.412z" fill="#369CB7" stroke="#fff"/><path d="M135.569 115.472c-.972.274-1.897.509-2.711.693.758-.35 1.635-.724 2.579-1.099a67.158 67.158 0 0 1 3.316-1.222 61.196 61.196 0 0 1 3.37-1.037l.003-.001a54.13 54.13 0 0 1 2.712-.692c-.758.35-1.635.724-2.579 1.099h-.001a65.13 65.13 0 0 1-3.316 1.222 68.576 68.576 0 0 1-3.373 1.037zm37.317-35.105l-.222.486a17.202 17.202 0 0 0 .383 15.046l-34.971 10.128-.494-16.259 35.304-9.4z" fill="#369CB7" stroke="#fff"/><path d="M173.209 96.624l-33.375 10.399-1.784-.912 35.159-10.545v1.058zm-2.746-16.513l-30.75 9.48H62.63l32.17-9.48h75.663z" fill="#369CB7" stroke="#fff"/><path d="M59.462 90.6h79.582a22.68 22.68 0 0 0 .14 16.81l-79.552.048c-2.734-5.16-2.89-11.707-.17-16.858zm91.29 1.2a128.37 128.37 0 0 1-4.23 1.159 118.552 118.552 0 0 1 4.8-1.831c.614-.224 1.232-.45 1.866-.659l.004-.001.895-.304c.586-.198 1.176-.398 1.77-.602.336-.106.67-.212 1.003-.319a198.58 198.58 0 0 1 1.674-.528l.009-.003c.547-.181 1.082-.336 1.619-.492.325-.094.651-.19.981-.29a109.8 109.8 0 0 1 4.231-1.16 118.107 118.107 0 0 1-4.108 1.58l-.694.252c-.614.224-1.232.449-1.865.658l-.004.002-.897.304c-.586.198-1.176.398-1.768.601l-1.063.337c-.543.173-1.083.345-1.616.511l-.004.002c-.536.172-1.062.326-1.587.48-.338.1-.675.198-1.016.302zm-2.929 5.018a54.01 54.01 0 0 1-2.712.693c.759-.35 1.636-.724 2.579-1.1a69.049 69.049 0 0 1 3.317-1.221 61.085 61.085 0 0 1 3.37-1.037h.003a54.01 54.01 0 0 1 2.712-.693 52.55 52.55 0 0 1-2.579 1.1h-.001a65.42 65.42 0 0 1-3.316 1.221 68.364 68.364 0 0 1-3.373 1.037zm8.721 1.005a54.01 54.01 0 0 1-2.712.692 52.55 52.55 0 0 1 2.579-1.099 68.655 68.655 0 0 1 3.317-1.222c1.14-.386 2.288-.74 3.37-1.036l.003-.001a54.01 54.01 0 0 1 2.712-.693 52.55 52.55 0 0 1-2.579 1.1h-.001a65.876 65.876 0 0 1-3.316 1.222 68.804 68.804 0 0 1-3.373 1.037z" fill="#369CB7" stroke="#fff"/><g opacity=".2" fill="#fff"><g opacity=".2"><mask id="f"><path d="M62.28 96.158a885.788 885.788 0 0 0 64.096 1.563c3.171-.04 6.69-.235 8.907-2.503-2.063-.785-4.344-.72-6.561-.656-12.693.357-25.41.017-38.071-1.02-9.894-.81-19.941-2.033-29.657-.033-.421.09-.907.235-1.044.64-.259.745.833 1.175 1.626 1.199 12.717.364 25.435.72 38.152 1.085"/></mask><path d="M62.28 96.158a885.788 885.788 0 0 0 64.096 1.563c3.171-.04 6.69-.235 8.907-2.503-2.063-.785-4.344-.72-6.561-.656-12.693.357-25.41.017-38.071-1.02-9.894-.81-19.941-2.033-29.657-.033-.421.09-.907.235-1.044.64-.259.745.833 1.175 1.626 1.199 12.717.364 25.435.72 38.152 1.085"/><path d="M126.376 97.72l.012 1h.001l-.013-1zm8.907-2.502l.715.7 1.066-1.091-1.425-.543-.356.934zm-6.561-.656l.028 1h.001l-.029-1zm-38.071-1.02l.082-.997-.082.997zm-29.657-.033l-.202-.98-.006.002.207.978zm-1.044.64l.945.328.002-.006-.947-.322zm1.626 1.199l-.03 1h.001l.029-1zm.643 1.808a886.768 886.768 0 0 0 64.169 1.565l-.024-2A884.762 884.762 0 0 1 62.34 95.16l-.12 1.996zm64.17 1.565c1.588-.02 3.35-.079 5.01-.439 1.67-.362 3.309-1.045 4.599-2.365l-1.43-1.398c-.927.948-2.156 1.497-3.593 1.809-1.445.313-3.029.373-4.612.393l.026 2zm9.25-4.437c-2.281-.869-4.769-.785-6.946-.721l.058 1.999c2.256-.066 4.331-.112 6.176.59l.712-1.868zm-6.945-.721a346.244 346.244 0 0 1-37.961-1.018l-.164 1.993a348.251 348.251 0 0 0 38.181 1.024l-.056-2zm-37.961-1.018c-9.826-.804-20.05-2.052-29.941-.015l.403 1.959c9.54-1.965 19.412-.766 29.374.05l.164-1.994zm-29.947-.014a3.528 3.528 0 0 0-.878.29c-.325.168-.723.472-.905 1.007l1.894.643c-.02.057-.05.1-.075.124-.02.02-.027.02 0 .005a.881.881 0 0 1 .142-.053 3 3 0 0 1 .237-.06l-.415-1.956zm-1.78 1.29c-.157.45-.114.908.097 1.3a2 2 0 0 0 .752.756c.517.31 1.163.454 1.69.47l.062-1.999a1.841 1.841 0 0 1-.401-.06 1.295 1.295 0 0 1-.324-.127c-.078-.047-.055-.055-.018.012a.413.413 0 0 1 .03.304l-1.889-.656zm2.541 2.526c6.36.183 12.718.363 19.077.543 6.358.18 12.717.36 19.075.543l.058-2c-6.36-.182-12.718-.362-19.077-.542-6.358-.18-12.717-.36-19.075-.543l-.058 2z" mask="url(#f)"/></g><path opacity=".2" d="M61.771 96.35a.625.625 0 0 1 .006-.177c.054-.311.274-.516.518-.52h.008c5.953-.181 11.955.05 17.973.357 1.308.067 2.618.137 3.927.207 4.71.253 9.426.506 14.116.595.677.013 1.353.026 2.03.037a.632.632 0 0 1-.072.099c-.104.116-.28.223-.573.242h-.001c-9.438.628-19.145.133-28.732-.355a928.95 928.95 0 0 0-7.78-.375m-1.42-.11l1.405.46.016-.35m-1.42-.11c.506.063 1.002.092 1.42.11m-1.42-.11l1.42.11m-2.42-.29a5.124 5.124 0 0 1-.745-.239c-.474-.197-.812-.448-1-.754-.177-.29-.261-.696-.092-1.307.146-.53.531-.94 1.139-1.264.613-.327 1.413-.54 2.295-.678.877-.137 1.804-.195 2.657-.23.291-.011.578-.02.852-.029.51-.016.974-.03 1.335-.058l-6.441 4.56zm0 0a1.723 1.723 0 0 1 .56-1.15l-.418-.004v-.017m-.142 1.171l.142-1.17m7.32-.403c4.027.037 8.063.21 12.093.415 1.314.067 2.628.137 3.94.207 3.228.174 6.45.346 9.66.466-1.273-.094-2.546-.192-3.819-.29-3.168-.242-6.333-.485-9.491-.68l-1.022-.013c-2.568-.031-5.136-.062-7.694-.134l.003-.121c-.556.008-1.112.022-1.668.043m-2.001.107c-.86-.008-1.718-.01-2.576-.004a144.637 144.637 0 0 0-3.22.056c.146-.047.315-.088.504-.122a10.605 10.605 0 0 1 1.428-.13c.168-.008.316-.015.435-.025.27-.022.545-.038.822-.047v.01-.01l.132-.004a31.61 31.61 0 0 1 2.55.052c.402.022.81.048 1.22.073l.706.044m-2.001.107a62.938 62.938 0 0 1 2.001-.107m-2.001.107l2.001-.107m-9.322.51c.014-.52.338-.863.688-1.07.341-.202.768-.316 1.165-.387.587-.105 1.26-.134 1.661-.152.13-.005.23-.01.292-.015h.002c1.195-.1 2.428-.066 3.64-.001.424.022.842.049 1.255.075l.63.039c3.164-.117 6.334-.015 9.471.17.31.017.618.036.927.055 6.393.08 12.841.195 19.152.976a1.9 1.9 0 0 1 1.05.46c1.889.11 3.78.202 5.677.265 4.748.162 9.505.194 14.264.138a76.903 76.903 0 0 0 3.497-.15l.208-.012a99.461 99.461 0 0 1 3.427-.161 31.07 31.07 0 0 1 3.639.098c.861-.31 1.645-.718 2.325-1.246-1.94-.369-3.965-.458-6.023-.44-1.221.01-2.445.059-3.669.107l-.286.011c-1.315.052-2.629.1-3.915.096a380.92 380.92 0 0 1-17.481-.479c-3.916-.195-7.86-.559-11.798-.922a545.07 545.07 0 0 0-5.89-.523c-5.898-.483-11.776-.776-17.609-.321l-6.299 3.388zm40.488 1.867c5.122.081 10.24.114 15.364.107 1.072-.002 2.276.058 3.562.121l.75.037c1.561.075 3.218.14 4.85.093 1.989-.058 3.984-.281 5.752-.88.922.094 1.821.25 2.688.489-2.933 1.725-6.418 1.737-10.048 1.75-.385.001-.772.002-1.16.006m-21.758-1.723l21.758 1.723m-21.758-1.723a1.64 1.64 0 0 1-.379.746c-.296.332-.727.54-1.255.575l-.032-.5 1.666-.821zm21.758 1.723l.004.5-.004-.5zm0 0a855.61 855.61 0 0 1-20.827-.097h-.001c-2.43-.039-4.875-.059-7.33-.078l28.158.175zm11.939-3.484l-.213-.805c.201.05.401.102.599.16h.001c.251.07.468.299.553.585.081.276.022.535-.179.71v.001c-.16.14-.322.272-.485.398-.091-.35-.184-.7-.276-1.049zm-18.335.868c-3.179.004-6.356-.007-9.533-.035l-.724-.024a227.024 227.024 0 0 1-5.259-.24l15.516.299zm17.37-.605l.105.398a16.116 16.116 0 0 0-.827-.181 8.62 8.62 0 0 0 .67-.412l.052.195z" stroke="#fff"/></g><path d="M141.719 91.157l-.28-.119a.295.295 0 0 0-.184-.018c-.048.012-.111.043-.174.134-.434.625-.959 1.833-1.403 3.334-.441 1.49-.789 3.22-.891 4.865-.103 1.657.046 3.171.549 4.266.248.541.577.966.993 1.263.413.295.938.483 1.615.511l-.225-14.236zm0 0l.234-.196m-.234.196l.234-.196m0 0c1.124-.939 2.456-1.398 4.032-1.398.347 0 .609.358.516.668l-.001.003c-.234.8-.615 1.537-1.032 2.315-.033.06-.066.121-.098.183-.383.71-.788 1.462-1.077 2.278a14.403 14.403 0 0 0-.747 6.417c.039.355.12.699.197 1.012l.03.121c.067.274.128.52.167.762.086.536.047.955-.271 1.351v.001m-1.716-13.713l1.716 13.713m0 0c-.392.492-1.05.747-1.725.719l1.725-.719z" fill="#369CB7" stroke="#fff"/><path d="M173.401 79.537h.002a.707.707 0 0 1 .898.46.719.719 0 0 1-.459.903h-.002l-33.144 10.635-.21.067-.092.2c-.74 1.606-3.121 7.607-.431 13.623l.18.402.422-.128 33.088-10.05v-.001a.724.724 0 0 1 .896.476.722.722 0 0 1-.475.9l-34.075 10.35-.011.004-.012.004a.554.554 0 0 1-.187.028.721.721 0 0 1-.636-.378l-.44.238.44-.237c-2.147-3.989-2.15-7.99-1.583-11.054.567-3.065 1.699-5.165 1.781-5.312a.726.726 0 0 1 .413-.343h.001l33.636-10.787z" fill="#369CB7" stroke="#fff"/><path opacity=".2" d="M132.176 81.231l-2.608.087c-5.797.193-11.594.386-17.39.456m19.998-.543l-38.468-.29m38.468.29c.501-.016.501-.761 0-.777v.777zm-19.998.543l-.006-.5m.006.5l-.006-.5m.006.5c-1.418.017-2.857.059-4.307.1-4.761.139-9.637.28-14.251-.44m18.552-.16c-1.438.017-2.89.06-4.347.101-4.749.138-9.557.277-14.118-.434m18.465.333c5.559-.068 11.118-.248 16.683-.433-5.563-.188-11.118-.362-16.683-.43-1.441-.017-2.895-.06-4.354-.102-4.751-.137-9.555-.276-14.117.436a.207.207 0 0 0-.018.091c0 .053.014.09.024.105m-.087.493l.082-.493a.031.031 0 0 1 .01.005l-.004-.004m-.088.492c-.583-.097-.583-1.102 0-1.183v1.183z" fill="#fff" stroke="#fff"/></svg>