<svg width="151" height="145" viewBox="0 0 151 145" fill="none" xmlns="http://www.w3.org/2000/svg"><path d="M120.054 71.118h-10.319a4.117 4.117 0 0 1-4.117-4.119v-2.88A4.117 4.117 0 0 1 109.735 60h10.314a4.117 4.117 0 0 1 4.117 4.118V67a4.106 4.106 0 0 1-4.112 4.119z" stroke="#fff" stroke-width="3.679" stroke-miterlimit="10"/><path d="M147.741 117.185H85.034a1.92 1.92 0 0 1-1.921-1.922V69.336a1.92 1.92 0 0 1 1.921-1.922h62.707a1.92 1.92 0 0 1 1.922 1.922v45.927a1.92 1.92 0 0 1-1.922 1.922z" fill="#369CB7" stroke="#fff"/><path d="M149.107 95.968H83.893a1.394 1.394 0 0 1-1.393-1.394V68.018c0-.77.624-1.394 1.393-1.394h65.214c.769 0 1.393.624 1.393 1.394v26.556c0 .77-.624 1.394-1.393 1.394z" fill="#369CB7" stroke="#fff"/><path d="M98.1 98.176a2.323 2.323 0 0 1-2.321-2.322V66.672h4.642v29.182a2.323 2.323 0 0 1-2.321 2.322z" fill="#369CB7" stroke="#fff"/><path d="M100.553 93.023h-4.416a1.34 1.34 0 0 1 0-2.681h4.416a1.34 1.34 0 0 1 0 2.68zm31.058 5.153a2.322 2.322 0 0 1-2.321-2.322V66.672h4.642v29.182a2.323 2.323 0 0 1-2.321 2.322z" fill="#369CB7" stroke="#fff"/><path d="M134.064 93.023h-4.416a1.34 1.34 0 0 1 0-2.681h4.416a1.34 1.34 0 0 1 0 2.68z" fill="#369CB7" stroke="#fff"/><path d="M2.29 55.688L.853 10.883l26.432-.958 1.438 44.807-26.431.957z" fill="#389DB8" stroke="#fff" stroke-width=".601"/><path d="M49.703 43.212l-21.407.973-.491-34.242 22.264-.037-.366 33.306zm58.382-31.161l20.75-.78 1.005 26.779-20.75.78z" fill="#369CB7" stroke="#fff" stroke-width=".601"/><path d="M88.703 43.2H68.38V9.792l20.76.113-.437 33.295z" fill="#389DB8" stroke="#fff" stroke-width=".601"/><path fill="#369CB7" stroke="#fff" stroke-width=".601" d="M49.754 9.792l18.62.1-.188 34.731-18.62-.1z"/><path d="M130.904 10.995l18.622.1v31.407l-18.777-2.865.155-28.642z" fill="#389DB8" stroke="#fff" stroke-width=".601"/><path d="M88.803 44.725l.33-34.93 18.615.297-.576 36.218-18.369-1.585z" fill="#369CB7" stroke="#fff" stroke-width=".601"/><path d="M25.755 23.763l-4.086 13.92-2.713.094-3.753-10.067-3.109 10.304-2.733.094-5.037-13.604 2.655-.092 3.782 10.341 3.197-10.582 2.36-.082 3.843 10.398 3.156-10.64 2.438-.084zm19.896 2.365c-.008.206-.035.499-.082.879l-9.976-.389c.139.943.562 1.707 1.27 2.29.725.57 1.635.875 2.73.918 1.397.054 2.566-.361 3.506-1.247l1.524 1.896a5.378 5.378 0 0 1-2.227 1.463c-.886.315-1.877.451-2.972.409-1.397-.055-2.616-.38-3.658-.977-1.042-.597-1.837-1.4-2.386-2.406-.532-1.022-.774-2.16-.725-3.414.048-1.238.369-2.338.963-3.3a6.06 6.06 0 0 1 2.448-2.242c1.021-.517 2.159-.75 3.413-.702 1.238.048 2.33.37 3.277.962a5.625 5.625 0 0 1 2.195 2.399c.517 1.005.75 2.16.7 3.46zm-6.265-4.441c-.952-.037-1.773.217-2.462.762-.672.53-1.098 1.261-1.277 2.192l7.214.281c-.092-.925-.451-1.687-1.08-2.283-.628-.597-1.427-.914-2.395-.952zm107.252 5.043c-.008.206-.036.498-.082.878l-9.976-.388c.138.943.562 1.706 1.27 2.29.725.57 1.635.875 2.73.917 1.397.055 2.566-.36 3.506-1.246l1.524 1.895a5.377 5.377 0 0 1-2.227 1.463c-.886.316-1.877.452-2.972.41-1.397-.055-2.616-.38-3.658-.978-1.042-.597-1.837-1.399-2.386-2.406-.533-1.022-.775-2.16-.726-3.414.049-1.238.37-2.338.963-3.3a6.068 6.068 0 0 1 2.448-2.242c1.022-.516 2.16-.75 3.413-.701 1.238.048 2.331.369 3.277.962a5.629 5.629 0 0 1 2.196 2.398c.517 1.006.75 2.16.7 3.461zm-6.265-4.442c-.953-.037-1.773.218-2.462.763-.672.53-1.098 1.26-1.278 2.192l7.214.28c-.091-.925-.451-1.686-1.079-2.283-.629-.596-1.427-.914-2.395-.951zm-61.509 14.75c-1.318-.03-2.495-.336-3.53-.916a6.149 6.149 0 0 1-2.4-2.367c-.564-1.014-.832-2.148-.803-3.403.029-1.254.349-2.367.959-3.338a6.19 6.19 0 0 1 2.483-2.254c1.06-.532 2.258-.782 3.592-.751 1.255.029 2.344.308 3.27.838a4.932 4.932 0 0 1 2.093 2.24L82.21 28.37c-.351-.596-.802-1.044-1.351-1.342a3.6 3.6 0 0 0-1.776-.494c-1.112-.026-2.041.318-2.788 1.032-.747.697-1.135 1.65-1.163 2.857-.028 1.206.307 2.183 1.005 2.93.714.732 1.635 1.11 2.762 1.137a3.76 3.76 0 0 0 1.796-.388c.563-.289 1.034-.723 1.413-1.302l2.256 1.387a5.209 5.209 0 0 1-2.219 2.165c-.949.487-2.042.715-3.28.687zm19.718-3.609c-1.287-.03-2.44-.335-3.459-.914a6.19 6.19 0 0 1-2.376-2.367c-.549-1.014-.808-2.148-.78-3.402.03-1.255.341-2.368.936-3.339a6.19 6.19 0 0 1 2.483-2.254c1.045-.532 2.21-.783 3.497-.754 1.302.03 2.463.335 3.482.915a6.024 6.024 0 0 1 2.352 2.366c.565.998.833 2.125.804 3.379-.029 1.255-.349 2.375-.959 3.362a6.028 6.028 0 0 1-2.46 2.255c-1.045.532-2.218.783-3.52.753zm.059-2.549c1.095.025 2.009-.319 2.74-1.033.732-.714 1.111-1.666 1.139-2.857.027-1.191-.308-2.16-1.005-2.907-.698-.747-1.595-1.133-2.69-1.159-1.096-.025-2.01.32-2.741 1.033-.716.715-1.088 1.667-1.115 2.858-.027 1.191.3 2.16.981 2.906.698.747 1.595 1.134 2.69 1.159zm24.113-7.832c1.231-.06 2.223.252 2.978.936.753.672 1.165 1.721 1.235 3.148l.272 5.595-2.285.111-.259-5.302c-.041-.854-.262-1.484-.66-1.893-.4-.42-.953-.613-1.66-.579-.768.038-1.371.324-1.809.858-.439.523-.636 1.253-.59 2.192l.242 4.955-2.286.112-.258-5.303c-.042-.854-.262-1.484-.661-1.893-.399-.42-.952-.613-1.659-.578-.78.038-1.39.318-1.829.84-.426.522-.617 1.258-.57 2.21l.241 4.954-2.285.112-.476-9.765 2.176-.106.06 1.244a3.559 3.559 0 0 1 1.323-1.073 4.659 4.659 0 0 1 1.811-.436c.732-.036 1.384.073 1.959.326.586.24 1.057.62 1.412 1.14a3.993 3.993 0 0 1 1.496-1.264 4.968 4.968 0 0 1 2.082-.54zm-68.282-4.961l2.761.108-.488 12.532 7.774.303-.09 2.337-10.537-.41.58-14.87z" fill="#fff"/><circle cx="14.733" cy="14.599" r=".601" stroke="#fff" stroke-width=".601"/><circle cx="14.733" cy="14.6" r="2.404" stroke="#fff" stroke-width=".601"/><circle cx="59.216" cy="13.397" r=".601" stroke="#fff" stroke-width=".601"/><circle cx="59.216" cy="13.397" r="2.404" stroke="#fff" stroke-width=".601"/><circle cx="98.889" cy="13.998" r=".601" stroke="#fff" stroke-width=".601"/><circle cx="98.889" cy="13.998" r="2.404" stroke="#fff" stroke-width=".601"/><circle cx="118.726" cy="15.801" r=".601" stroke="#fff" stroke-width=".601"/><circle cx="118.726" cy="15.802" r="2.404" stroke="#fff" stroke-width=".601"/><circle cx="141.568" cy="15.2" r=".601" stroke="#fff" stroke-width=".601"/><circle cx="141.568" cy="15.2" r="2.404" stroke="#fff" stroke-width=".601"/><circle cx="40.882" cy="13.698" r=".301" stroke="#fff" stroke-width=".601"/><circle cx="40.882" cy="13.697" r="2.104" stroke="#fff" stroke-width=".601"/><circle cx="78.752" cy="13.698" r=".301" stroke="#fff" stroke-width=".601"/><circle cx="78.752" cy="13.697" r="2.104" stroke="#fff" stroke-width=".601"/><path d="M6.774 99.427l.206.41a14.807 14.807 0 0 1 .148 12.954l30.41 7.602-.092-14.001-30.672-6.965z" fill="#369CB7" stroke="#fff" stroke-width=".861"/><path d="M7.011 113.414l29.039 7.892 1.505-.841-30.577-7.961.033.91zM8.85 99.13l26.75 7.178 66.304-2.445-27.971-7.134-65.083 2.4zm95.812 5.5v-.001.001zm0 0a15.165 15.165 0 0 1 .521 14.166l-.521-14.166zm-78.488 3.928c1.323.332 2.575.627 3.675.863a101.894 101.894 0 0 0-4.187-1.423 55.193 55.193 0 0 0-1.625-.507l-.003-.001-.781-.233c-.51-.152-1.024-.305-1.54-.461l-.874-.243c-.487-.136-.972-.271-1.456-.401l-.008-.003c-.476-.138-.941-.254-1.408-.371-.283-.071-.566-.142-.853-.218a92.958 92.958 0 0 0-3.676-.864c1.06.388 2.28.807 3.583 1.229l.605.194c.535.173 1.074.347 1.626.508l.003.001.78.232c.51.153 1.025.306 1.541.462l.924.256c.473.132.943.262 1.407.388l.004.001c.466.132.923.248 1.38.363.294.075.587.149.883.228zm-4.79 5.365c.845.205 1.648.377 2.355.509-.663-.276-1.43-.57-2.253-.863a58.45 58.45 0 0 0-2.892-.946 52.28 52.28 0 0 0-2.932-.785h-.003a46.938 46.938 0 0 0-2.354-.51c.663.277 1.43.571 2.253.864h.001c.91.326 1.898.65 2.891.946.991.295 1.99.556 2.934.785z" fill="#369CB7" stroke="#fff" stroke-width=".861"/><g opacity=".2" fill="#fff"><g opacity=".2"><mask id="a"><path d="M102.415 109.499a766.671 766.671 0 0 1-55.084 3.379c-2.729.065-5.762.01-7.74-1.87 1.749-.742 3.713-.758 5.622-.773a298.69 298.69 0 0 0 32.715-2.086c8.484-1.01 17.088-2.381 25.509-.969.365.064.787.174.918.518.246.632-.68 1.036-1.361 1.082-10.927.717-21.855 1.427-32.782 2.144"/></mask><path d="M102.415 109.499a766.671 766.671 0 0 1-55.084 3.379c-2.729.065-5.762.01-7.74-1.87 1.749-.742 3.713-.758 5.622-.773a298.69 298.69 0 0 0 32.715-2.086c8.484-1.01 17.088-2.381 25.509-.969.365.064.787.174.918.518.246.632-.68 1.036-1.361 1.082-10.927.717-21.855 1.427-32.782 2.144"/><path d="M47.331 112.878l.022.86h-.001l-.02-.86zm-7.74-1.87l-.593.624-.952-.905 1.209-.512.335.793zm5.622-.773l.008.861h-.001l-.007-.861zm32.715-2.086l-.102-.854.102.854zm25.509-.969l.142-.848h.005l-.147.848zm.918.518l-.802.312-.002-.006.804-.306zm-1.361 1.082l.058.859h-.001l-.057-.859zm-.496 1.576a767.189 767.189 0 0 1-55.145 3.382l-.043-1.721a766.088 766.088 0 0 0 55.021-3.374l.167 1.713zm-55.146 3.382c-1.367.033-2.884.039-4.324-.218-1.448-.259-2.879-.794-4.03-1.888l1.185-1.248c.827.785 1.902 1.218 3.148 1.441 1.253.224 2.617.225 3.98.192l.041 1.721zm-8.097-3.523c1.934-.82 4.077-.826 5.951-.841l.014 1.722c-1.943.015-3.73.041-5.294.704l-.671-1.585zm5.95-.841a298.208 298.208 0 0 0 32.62-2.079l.205 1.709a299.91 299.91 0 0 1-32.81 2.092l-.015-1.722zm32.621-2.079c8.426-1.004 17.18-2.401 25.753-.963l-.284 1.697c-8.27-1.387-16.722-.043-25.265.975l-.204-1.709zm25.758-.963c.196.034.488.093.764.222.286.134.638.383.811.837l-1.608.613a.272.272 0 0 0 .068.105c.018.017.024.016 0 .004a.851.851 0 0 0-.123-.041 2.157 2.157 0 0 0-.206-.043l.294-1.697zm1.573 1.053c.149.383.127.778-.043 1.122a1.736 1.736 0 0 1-.622.674c-.435.282-.987.427-1.44.458l-.116-1.717c.103-.007.224-.029.343-.065.121-.037.214-.081.274-.12.066-.043.046-.049.017.01a.362.362 0 0 0-.035.14c-.002.057.009.1.018.123l1.604-.625zm-2.106 2.254c-5.464.359-10.928.716-16.392 1.072l-16.39 1.072-.113-1.717c5.463-.359 10.927-.716 16.391-1.073 5.464-.356 10.927-.713 16.391-1.072l.113 1.718z" mask="url(#a)"/></g><path opacity=".2" d="M97.243 108.345c-3.462.16-6.928.436-10.388.741-1.129.099-2.256.201-3.382.303-2.772.252-5.537.502-8.296.708 1.093-.122 2.185-.247 3.276-.371 2.718-.309 5.432-.618 8.143-.887l.878-.043c2.209-.108 4.416-.216 6.615-.359m3.154-.092a136.86 136.86 0 0 1 2.216-.085 123.004 123.004 0 0 1 2.77-.054 3.255 3.255 0 0 0-.437-.089 9.288 9.288 0 0 0-1.232-.067 9.694 9.694 0 0 1-.375-.007c-.234-.011-.47-.015-.708-.015v.01-.01l-.114.001a27.53 27.53 0 0 0-2.191.126c-.346.032-.696.067-1.047.102l-.607.06m1.725.028a52.178 52.178 0 0 0-1.725-.028m1.725.028l-1.725-.028m-1.43.12l-.006-.104c.479-.011.957-.017 1.436-.016m-1.43.12c.47-.031.949-.074 1.43-.12m-1.43.12l-.006-.104 1.436-.016m-.042-.861l.541-.054c.355-.035.714-.071 1.077-.104 1.04-.095 2.1-.163 3.132-.115h.002c.052.003.139.004.251.004.345.003.925.006 1.433.078.344.048.715.133 1.015.296.308.167.597.453.625.898a.07.07 0 0 1 .001.014l-8.077-1.017zm0 0c-2.725 0-5.448.188-8.14.446l-.796.078c-5.496.271-11.04.575-16.443 1.447l25.38-1.971zm-26.267 2.4a197.25 197.25 0 0 1-4.875.408c-4.079.29-8.17.469-12.265.571-.972.024-1.98.004-3.013-.018l-.18-.004a87.653 87.653 0 0 0-2.952-.03 27.12 27.12 0 0 0-3.127.2c-.75-.24-1.438-.565-2.04-.997 1.658-.38 3.397-.52 5.168-.57 1.05-.03 2.105-.027 3.158-.025l.247.001c1.133.003 2.264.002 3.37-.042 5.017-.206 10.022-.53 15.022-.966 3.362-.292 6.743-.731 10.12-1.168a473.65 473.65 0 0 1 5.048-.637c5.058-.602 10.105-1.041 15.137-.835l-28.818 4.112zm0 0a1.63 1.63 0 0 1 .888-.429l-.888.429zm33.649-.206a.547.547 0 0 0-.011-.157c-.056-.267-.251-.434-.458-.427h-.01c-5.127.032-10.282.422-15.45.877-1.122.099-2.246.201-3.37.303-4.044.366-8.092.734-12.123.959l-1.745.097a.51.51 0 0 0 .065.082c.093.097.248.183.5.19h.002c8.138.241 16.47-.492 24.702-1.217 2.237-.197 4.465-.393 6.681-.569h.001c.357-.028.782-.067 1.216-.138zm.855-.185c.222-.064.436-.139.632-.23.401-.185.685-.412.836-.682.144-.255.203-.608.038-1.129-.143-.45-.487-.792-1.019-1.05-.538-.262-1.233-.42-1.996-.51-.759-.091-1.558-.111-2.293-.114-.251-.001-.498.001-.733.002-.44.003-.84.005-1.15-.008l5.685 3.721zm-63.81.74c-.172.049-.342.101-.51.156h-.001c-.214.07-.394.273-.457.522-.062.24-.003.461.176.606.142.115.285.223.43.327.067-.304.136-.608.204-.911l.157-.7zm.68.895l-.077.346.116-.515-.038.169zm14.96-.031c2.735-.097 5.468-.207 8.2-.332l-8.2.332z" stroke="#fff" stroke-width=".861"/></g><path d="M33.924 107.718l.238-.11a.25.25 0 0 1 .158-.022c.041.009.096.034.154.11l-.55.022zm0 0l-.207-.16m.207.16l-.207-.16m0 0c-.997-.772-2.157-1.125-3.512-1.075-.299.011-.513.328-.423.591v.003c.228.679.579 1.302.962 1.958l.09.154c.352.599.724 1.233 1 1.925.7 1.747.978 3.63.845 5.497-.022.306-.08.605-.137.876l-.022.105c-.05.238-.094.452-.12.661-.057.463-.01.823.276 1.154v.001m1.04-11.85l-1.04 11.85m0 0c.353.41.927.608 1.506.563l-1.506-.563zm1.506.563c.582-.045 1.028-.224 1.374-.491.348-.269.617-.645.814-1.118.398-.957.478-2.264.337-3.686-.14-1.412-.494-2.889-.92-4.157-.43-1.277-.92-2.299-1.313-2.823l-.292 12.275z" fill="#369CB7" stroke="#fff" stroke-width=".861"/><path d="M36.5 121.23l.001-.001c1.7-3.464 1.577-6.87.999-9.462-.58-2.595-1.61-4.348-1.684-4.47l-.001-.002a.462.462 0 0 0-.275-.212l-.003-.001L6.261 98.87H6.26a.474.474 0 0 0-.252.912l28.91 8.107.18.051.086.167c.664 1.294 3.053 6.575.785 12.012l-.144.346-.363-.096-28.899-7.626h-.002a.466.466 0 0 0-.57.33v.006a.468.468 0 0 0 .33.571l.003.001 29.638 7.822.012.003.01.003a.464.464 0 0 0 .516-.249z" fill="#369CB7" stroke="#fff" stroke-width=".861"/><path opacity=".2" d="M62.769 98.222c4.09-.032 8.23-.065 12.132-.821a.177.177 0 0 0 .015-.086.177.177 0 0 0-.021-.084c-3.946-.466-8.073-.194-12.155.074a222.43 222.43 0 0 1-3.74.226c-4.786.235-9.559.561-14.337.9 4.792-.018 9.58-.04 14.363-.158 1.237-.03 2.488-.04 3.743-.05z" fill="#fff" stroke="#fff" stroke-width=".861"/><g opacity=".2" fill="#fff"><g opacity=".2"><mask id="b"><path d="M103.899 117.627l-32.12 1.185 32.12-1.185z"/></mask><path d="M103.899 117.627l-32.12 1.185 32.12-1.185z"/><path d="M103.931 118.487l-.063.002-.063.003-.063.002-.062.002-.063.003-.063.002-.063.002-.062.003-.063.002-.063.002-.063.003-.062.002-.063.002-.063.003-.063.002-.062.002a1.325 1.325 0 0 1-.063.002l-.063.003-.063.002-.062.002-.063.003-.063.002-.063.002-.062.003-.063.002a1.325 1.325 0 0 1-.063.002l-.063.003-.062.002-.063.002-.063.003-.063.002-.062.002-.063.003-.063.002-.063.002-.062.002-.063.003-.063.002-.063.002-.062.003-.063.002-.063.002-.063.003-.062.002a1.325 1.325 0 0 1-.063.002l-.063.003-.063.002-.062.002-.063.003-.063.002-.063.002-.062.002-.063.003-.063.002-.063.002-.062.003-.063.002a1.325 1.325 0 0 1-.063.002l-.063.003-.062.002-.063.002-.063.003-.063.002-.062.002-.063.003-.063.002-.063.002-.062.003-.063.002-.063.002-.063.002-.062.003-.063.002-.063.002-.063.003-.062.002-.063.002-.063.003-.063.002-.062.002-.063.003-.063.002-.063.002-.062.003-.063.002-.063.002-.063.002-.062.003-.063.002-.063.002-.063.003-.062.002-.063.002-.063.003-.063.002-.062.002-.063.003-.063.002-.063.002-.062.003-.063.002-.063.002-.063.003-.062.002-.063.002-.063.002-.063.003-.062.002-.063.002-.063.003-.063.002-.062.002-.063.003-.063.002-.063.002-.062.003-.063.002-.063.002-.063.003-.062.002-.063.002-.063.003-.063.002-.062.002-.063.002-.063.003-.062.002-.063.002-.063.003-.063.002-.062.002-.063.003-.063.002-.063.002-.062.003-.063.002-.063.002-.063.003-.062.002-.063.002-.063.002-.063.003-.062.002-.063.002-.063.003-.063.002-.062.002-.063.003-.063.002-.063.002-.062.003-.063.002-.063.002-.063.003-.062.002-.063.002-.063.003-.063.002-.062.002-.063.002-.063.003-.063.002-.062.002-.063.003-.063.002-.063.002-.062.003-.063.002-.063.002-.063.003-.062.002-.063.002-.063.003-.063.002-.062.002-.063.003-.063.002-.063.002-.062.002-.063.003-.063.002-.063.002-.062.003-.063.002-.063.002-.062.003-.063.002-.063.002-.063.003-.062.002-.063.002-.063.003-.063.002-.062.002-.063.002-.063.003-.063.002-.062.002-.063.003-.063.002-.063.002-.062.003-.063.002-.063.002-.063.003-.062.002-.063.002-.063.003-.063.002-.062.002-.063.003-.063.002-.063.002-.062.002-.063.003-.063.002-.063.002-.062.003-.063.002-.063.002-.063.003-.062.002-.063.002-.063.003-.062.002-.063.002-.063.003-.063.002-.062.002-.063.002-.063.003-.063.002-.062.002-.063.003-.063.002-.063.002-.062.003-.063.002-.063.002-.063.003-.062.002-.063.002-.063.003-.063.002-.062.002-.063.003-.063.002-.063.002-.062.002-.063.003-.063.002-.062.002-.063.003-.063.002-.063.002-.062.003-.063.002-.063.002-.063.003-.062.002-.063.002-.063.003-.063.002-.062.002-.063.002-.063.003-.063.002-.062.002-.063.003-.063.002-.063.002-.062.003-.063.002-.063.002-.062.003-.063.002-.063.002-.063.003-.062.002-.063.002-.063.003-.063.002-.062.002-.063.002-.063.003-.063.002-.062.002-.063.003-.063.002-.063.002-.062.003-.063.002-.063.002-.062.003-.063.002-.063.002-.063.003-.062.002-.063.002-.063.002-.063.003-.062.002-.063.002-.063.003-.063.002-.062.002-.063.003-.063.002-.063.002-.062.003-.063.002-.063.002-.062.003-.063.002-.063.002-.063.003-.062.002-.063.002-.063.002-.063.003-.062.002-.063.002-.063.003-.063.002-.062.002-.063.003-.063.002-.062.002a88306028133.164 88306028133.164 0 0 1-.126.005l-.063.002-.062.003-.063.002-.063.002-.063.002-.062.003-.063.002-.063.002-.063.003-.062.002-.063.002a88306028133.164 88306028133.164 0 0 1-.125.005l-.063.002-.063.003-.063.002-.062.002-.063.003-.063.002-.063.002-.062.003-.063.002-.063.002-.062.002-.063.003-.063.002-.063.002-.062.003-.063.002-.063.002-.063.003-.062.002-.063.002-.063.003-.062.002-.063.002-.063.003-.063.002-.062.002-.063.002-.063.003-.063.002-.062.002-.063.003-.063.002-.063.002-.062.003-.063.002-.063.002-.062.003-.063.002-.063.002-.063.003-.062.002-.063.002-.063.003-.063.002-.062.002-.063.002-.063.003-.062.002-.063.002-.063.003-.063.002-.062.002-.063.003-.063.002-.062.002-.063.003-.063.002-.063.002-.062.003-.063.002-.063.002-.063.002-.062.003-.063.002-.063.002-.062.003-.063.002-.063.002-.063.003-.062.002-.063.002-.063.003-.063.002-.062.002-.063.003-.063.002-.062.002-.063.002-.063.003-.063.002-.062.002-.063.003-.063.002-.062.002-.063.003-.063.002-.063.002-.062.003-.063.002-.063.002-.062.003-.063.002-.063.002-.063.003-.062.002-.063.002-.063.002-.063.003-.062.002-.063.002-.063.003-.062.002-.063.002-.063.003-.063.002-.062.002-.063.003-.063.002-.062.002-.063.003-.063.002-.063.002-.062.002-.063.003-.063.002-.062.002-.063.003-.063.002-.063.002-.062.003-.063.002-.063.002-.062.003-.063.002-.063.002-.063.003-.062.002-.063.002-.063.002-.062.003-.063.002-.063.002-.063.003-.062.002-.063.002-.063.003-.062.002-.063.002-.063.003-.063.002-.062.002-.063.003-.063.002-.062.002-.063.002-.063.003-.063.002-.062.002-.063.003-.063.002-.062.002-.063.003-.063.002-.063.002-.062.003-.063.002-.063.002-.062.003-.063.002-.063.002-.063.003-.062.002-.063.002-.063.002-.062.003-.063.002-.063.002-.063.003-.062.002-.064-1.72.063-.003.063-.002.063-.002.062-.003.063-.002.063-.002.062-.002.063-.003.063-.002.062-.002.063-.003.063-.002.063-.002.062-.003.063-.002.063-.002.062-.003.063-.002.063-.002.063-.003.062-.002.063-.002.063-.003.062-.002.063-.002.063-.002.063-.003.062-.002.063-.002.063-.003.062-.002.063-.002.063-.003.063-.002.062-.002.063-.003.063-.002.062-.002.063-.003.063-.002.063-.002.062-.002.063-.003.063-.002.062-.002.063-.003.063-.002.063-.002.062-.003.063-.002.063-.002.062-.003.063-.002.063-.002.063-.003.062-.002.063-.002.063-.002.062-.003.063-.002.063-.002.063-.003.062-.002.063-.002.063-.003.063-.002.062-.002.063-.003.063-.002.062-.002.063-.003.063-.002.063-.002.062-.003.063-.002.063-.002.062-.002.063-.003.063-.002.063-.002.062-.003.063-.002.063-.002.062-.003.063-.002.063-.002.063-.003.062-.002.063-.002.063-.003.063-.002.062-.002.063-.002.063-.003.062-.002.063-.002.063-.003.063-.002.062-.002.063-.003.063-.002.062-.002.063-.003.063-.002.063-.002.062-.003.063-.002.063-.002.063-.002.062-.003.063-.002.063-.002.062-.003.063-.002.063-.002.063-.003.062-.002.063-.002.063-.003.063-.002.062-.002.063-.003.063-.002.062-.002.063-.003.063-.002.063-.002.062-.002.063-.003.063-.002.063-.002.062-.003.063-.002.063-.002.062-.003.063-.002.063-.002.063-.003.062-.002.063-.002.063-.003.063-.002.062-.002.063-.002.063-.003.062-.002.063-.002.063-.003.063-.002.062-.002.063-.003.063-.002.063-.002.062-.003.063-.002.063-.002.062-.003.063-.002.063-.002.063-.002.062-.003.063-.002.063-.002.063-.003.062-.002.063-.002.063-.003.062-.002.063-.002.063-.003.063-.002.062-.002.063-.003.063-.002.063-.002.062-.003.063-.002.063-.002.063-.002.062-.003.063-.002.063-.002.062-.003.063-.002.063-.002.063-.003.062-.002.063-.002.063-.003.063-.002.062-.002.063-.003.063-.002.063-.002.062-.002.063-.003.063-.002.062-.002.063-.003.063-.002.063-.002.062-.003.063-.002.063-.002.063-.003.062-.002.063-.002.063-.003.063-.002.062-.002.063-.003.063-.002.062-.002.063-.002.063-.003.063-.002.062-.002.063-.003.063-.002.063-.002.062-.003.063-.002.063-.002.063-.003.062-.002.063-.002.063-.003.063-.002.062-.002.063-.002.063-.003.062-.002.063-.002.063-.003.063-.002.062-.002.063-.003.063-.002.063-.002.062-.003.063-.002.063-.002.063-.003.062-.002.063-.002.063-.003.063-.002.062-.002.063-.002.063-.003.063-.002.062-.002.063-.003.063-.002.062-.002.063-.003.063-.002.063-.002.062-.003.063-.002.063-.002.063-.003.062-.002.063-.002.063-.002.063-.003.062-.002.063-.002.063-.003.063-.002.062-.002.063-.003.063-.002.063-.002.062-.003.063-.002.063-.002.062-.003.063-.002.063-.002.063-.003.062-.002.063-.002.063-.002.063-.003.062-.002.063-.002.063-.003.063-.002.062-.002.063-.003.063-.002.063-.002.062-.003.063-.002.063-.002.063-.003.062-.002.063-.002.063-.002.063-.003.062-.002.063-.002.063-.003.063-.002.062-.002.063-.003.063-.002.063-.002.062-.003.063-.002.063-.002.062-.003.063-.002.063-.002.063-.003.062-.002.063-.002.063-.002.063-.003.062-.002.063-.002.063-.003.063-.002.062-.002.063-.003.063-.002.063-.002.062-.003.063-.002.063-.002.063-.003.062-.002.063-.002.063-.003.063-.002.062-.002.063-.002.063-.003.063-.002.062-.002.063-.003.063-.002.063-.002.062-.003.063-.002.063-.002.063-.003.062-.002.063-.002.063-.003.063-.002.062-.002.063-.002.063-.003.062-.002.063-.002.063-.003.063-.002.062-.002.063-.003.063-.002.063-.002.062-.003.063-.002.063-.002.063-.003.062-.002.063-.002.063-.003.063-.002.062-.002.063-.002.063-.003.063-.002.062-.002.063-.003.063-.002.063-.002.062-.003.063-.002.063-.002.063-.003.062-.002.063-.002.063-.003.063-.002.062-.002.063-.002.063-.003.063-.002.062-.002.063-.003.063-.002.063-.002.062-.003.063-.002.063-.002.063-.003.062-.002.063-.002.063-.003.063-.002.062-.002.063-.003.063-.002.063-.002.062-.002.063-.003.063-.002.063-.002.062-.003.063-.002.063-.002.063-.003.062-.002.063-.002.063-.003.063-.002.062-.002.063-.003.063-.002.063-.002.062-.003.063-.002.063-.002.063-.002.062-.003.063-.002.063-.002.063-.003.062-.002.063-.002.063-.003.063-.002.062-.002.063-.003.063-.002.063-.002.062-.003.063-.002.063-.002.063-.002.062-.003.063-.002.063-.002.063-.003.062-.002.063-.002.063-.003.062-.002.063-.002.063-.003.063-.002.062-.002.063-.003.063-.002.063-.002a26.57 26.57 0 0 0 .125-.005l.063-.002.063-.002.062-.003.063-.002.063-.002a89169444779.562 89169444779.562 0 0 1 .125-.005l.063-.002.063-.003.063-.002.062-.002.063-.003.063-.002.063-.002.062-.003.063-.002.063-.002.063-.003.062-.002.063-.002.063-.002.063-.003.062-.002.063-.002.063-.003.063-.002.062-.002.063-.003.063-.002.063-.002.062-.003.063-.002.063-.002.063-.003.062-.002.063-.002.063-.002.063-.003.062-.002.063-.002.063-.003.063-.002.062-.002.063-.003.063-.002.063-.002.062-.003.063-.002.063-.002.063-.003.062-.002.063-.002.064 1.72z" mask="url(#b)"/></g><path opacity=".2" d="M91.376 118.166c3.489-.08 6.985-.16 10.435-.464-3.414-.046-6.862.127-10.303.3-1.224.061-2.448.122-3.669.174-1.306.055-2.618.101-3.932.146-2.33.081-4.667.162-6.989.297 2.325-.037 4.66-.128 6.99-.219 1.315-.051 2.627-.103 3.934-.144 1.176-.036 2.355-.063 3.534-.09z" stroke="#fff" stroke-width=".861"/></g><g opacity=".2" fill="#fff"><g opacity=".2"><mask id="c"><path d="M68.06 119.849l-1.802.066 1.803-.066z"/></mask><path d="M68.06 119.849l-1.802.066 1.803-.066z"/><path d="M68.092 120.709h-.017l-.004.001h-.024l-.004.001h-.021l-.003.001h-.025l-.004.001h-.024l-.004.001h-.024l-.004.001h-.021l-.003.001h-.025l-.003.001h-.025l-.004.001h-.021l-.003.001h-.025l-.003.001h-.025l-.003.001h-.025l-.004.001h-.021l-.003.001h-.025l-.003.001h-.025l-.004.001h-.021l-.003.001h-.025l-.003.001h-.025l-.004.001h-.021l-.003.001h-.025l-.003.001h-.025l-.004.001h-.024l-.004.001h-.021l-.003.001h-.025l-.004.001h-.024l-.004.001h-.021l-.003.001h-.025l-.004.001h-.024l-.004.001h-.021l-.004.001h-.024l-.004.001h-.024l-.004.001h-.021l-.004.001h-.024l-.004.001h-.025l-.003.001h-.021l-.004.001h-.025l-.003.001h-.025l-.003.001h-.025l-.004.001h-.021l-.003.001h-.025l-.003.001h-.025l-.004.001h-.021l-.003.001h-.025l-.004.001h-.024l-.004.001h-.021l-.003.001h-.025l-.004.001H66.8l-.004.001h-.021l-.003.001h-.025l-.004.001h-.024l-.004.001h-.024l-.004.001h-.021l-.004.001h-.024l-.004.001h-.024l-.004.001h-.021l-.003.001h-.025l-.004.001h-.024l-.004.001h-.021l-.003.001h-.025l-.004.001h-.024l-.004.001h-.024l-.004.001h-.021l-.003.001h-.025l-.003.001h-.025l-.003.001h-.021l-.004.001h-.021l-.064-1.72h.011l.004-.001h.024l.004-.001h.021l.003-.001h.025l.003-.001h.025l.003-.001h.025l.004-.001h.021l.003-.001h.025l.003-.001h.025l.003-.001h.022l.004-.001h.024l.004-.001h.024l.003-.001h.025l.003-.001h.021l.004-.001h.025l.003-.001h.025l.003-.001h.022l.004-.001h.025l.003-.001h.024l.003-.001h.025l.003-.001h.022l.003-.001h.025l.003-.001h.025l.004-.001h.021l.003-.001h.025l.003-.001h.025l.004-.001h.021l.003-.001h.026l.004-.001h.024l.004-.001h.021l.003-.001h.024l.004-.001h.024l.004-.001h.021l.004-.001h.024l.004-.001h.024l.004-.001h.025l.003-.001h.021l.004-.001h.025l.003-.001h.026l.003-.001h.02l.004-.001h.025l.003-.001h.025l.003-.001h.022l.003-.001h.025l.003-.001h.025l.003-.001h.022l.003-.001h.025l.003-.001h.025l.004-.001h.021l.003-.001h.025l.003-.001h.025l.004-.001h.024l.004-.001h.021l.003-.001h.025l.003-.001h.026l.004-.001h.021l.003-.001h.024l.003-.001h.025l.004-.001h.024l.004-.001h.021l.003-.001h.025l.003-.001h.025l.004-.001h.021l.003-.001h.025l.003-.001h.025l.003-.001h.025l.003-.001h.021l.004-.001.063 1.721z" mask="url(#c)"/></g><g opacity=".2"><mask id="d"><path d="M68.073 120.177c-.613.015-1.258.095-1.857-.078a.19.19 0 0 1-.013-.363c.584-.217 1.233-.185 1.846-.214.417-.016.441.646.024.655z"/></mask><path d="M68.073 120.177c-.613.015-1.258.095-1.857-.078a.19.19 0 0 1-.013-.363c.584-.217 1.233-.185 1.846-.214.417-.016.441.646.024.655z"/><path d="M68.073 120.177l-.022-.861h.004l.018.861zm-1.857-.078l.223-.832.008.002.009.003-.24.827zm-.013-.363l.3.807-.008.003-.008.003-.284-.813zm1.846-.214l-.042-.86h.01l.032.86zm.046 1.515c-.49.012-1.35.11-2.118-.112l.479-1.653c.43.124.86.063 1.595.044l.044 1.721zm-2.102-.107c-1.001-.269-1.052-1.665-.074-2.006l.568 1.625c.62-.217.588-1.111-.048-1.282l-.446 1.663zm-.09-2.001c.75-.278 1.615-.243 2.104-.267l.083 1.719c-.735.036-1.168.006-1.588.162l-.599-1.614zm2.114-.267c.355-.014.68.125.907.376.21.232.3.516.31.77.01.254-.059.547-.256.795a1.15 1.15 0 0 1-.888.434l-.035-1.721a.57.57 0 0 0-.426.218.514.514 0 0 0-.115.338.51.51 0 0 0 .136.323c.118.13.284.192.43.187l-.063-1.72z" mask="url(#d)"/></g></g><g opacity=".2" fill="#fff"><g opacity=".2"><mask id="e"><path d="M61.45 120.093l-21.015.775 21.015-.775z"/></mask><path d="M61.45 120.093l-21.015.775 21.015-.775z"/><path d="M61.481 120.953l-.04.001-.042.002-.04.001-.042.002a.565.565 0 0 0-.04.002l-.042.001-.041.002-.041.001-.041.002-.041.001-.041.002-.041.001-.041.002-.041.001-.041.002-.041.001-.042.002-.04.001-.042.002-.04.001-.042.002-.04.001-.042.002-.04.001-.042.002-.041.001-.041.002-.041.001-.041.002-.041.001-.041.002-.041.001-.041.002-.041.001-.041.002-.042.001-.04.002-.042.001-.04.002-.042.002-.04.001-.042.002-.04.001-.042.002-.041.001-.041.002-.041.001-.041.002-.041.001-.041.002-.041.001-.041.002-.041.001-.041.002-.042.001-.04.002-.042.001-.04.002-.042.001-.04.002-.042.001-.04.002-.042.001-.041.002-.041.001-.041.002-.041.001-.041.002-.041.001-.041.002-.041.001-.041.002-.041.001-.041.002-.041.002-.042.001-.04.002-.042.001-.04.002-.042.001-.04.002-.042.001-.04.002-.042.001-.041.002-.041.001-.041.002-.041.001-.041.002-.041.001-.041.002-.041.001-.041.002-.041.001-.041.002-.041.001-.042.002-.04.001-.042.002-.04.001-.042.002-.04.001-.042.002-.04.001-.042.002-.041.001-.041.002-.041.001-.041.002-.041.002-.041.001-.041.002-.041.001-.041.002-.041.001-.041.002-.041.001-.041.002-.042.001-.04.002-.042.001-.04.002-.042.001-.04.002-.042.001-.04.002-.042.001-.041.002-.041.001-.041.002-.041.001-.041.002-.041.001-.041.002-.041.001-.041.002-.041.001-.041.002-.041.001-.042.002-.04.001-.041.002-.042.001-.04.002a.565.565 0 0 0-.042.002l-.04.001-.042.002-.04.001-.042.002-.04.001-.042.002-.041.001-.041.002-.041.001-.041.002-.041.001-.041.002-.041.001-.041.002-.041.001-.041.002-.041.001-.041.002-.041.001-.041.002-.042.001-.04.002-.042.001-.04.002-.042.001-.04.002-.042.001-.04.002-.042.001-.04.002-.042.001-.041.002-.041.001-.041.002-.041.001-.041.002-.041.002-.041.001-.041.002-.041.001-.041.002-.041.001-.041.002-.041.001-.041.002-.041.001-.042.002-.04.001-.042.002-.04.001-.042.002-.04.001-.042.002-.04.001-.042.002-.04.001-.042.002-.041.001-.041.002-.041.001-.041.002-.041.001-.041.002-.041.001-.041.002-.041.001-.041.002-.041.001-.041.002-.041.001-.041.002a.56.56 0 0 0-.041.002l-.042.001-.04.002-.042.001-.04.002-.042.001-.04.002-.042.001-.04.002-.042.001-.04.002-.042.001-.041.002-.041.001-.041.002-.041.001-.041.002-.041.001-.041.002-.041.001-.041.002-.041.001-.041.002-.041.001-.041.002-.042.001-.04.002-.042.001-.04.002-.042.001-.04.002-.042.001-.04.002-.042.001-.04.002-.042.001-.04.002-.042.002-.041.001-.041.002-.041.001-.041.002-.041.001-.041.002-.041.001-.041.002-.041.001-.041.002-.041.001-.041.002-.041.001-.042.002-.04.001-.042.002-.04.001-.042.002-.04.001-.042.002-.04.001-.042.002-.04.001-.042.002-.04.001-.042.002-.041.001-.041.002-.041.001-.041.002-.041.001-.041.002-.041.001-.041.002-.041.001a.565.565 0 0 1-.041.002l-.041.002-.041.001-.041.002-.042.001-.04.002-.042.001-.04.002-.042.001-.04.002-.042.001-.04.002-.042.001-.04.002-.042.001-.04.002-.042.001-.041.002-.041.001-.041.002-.041.001-.041.002-.041.001-.041.002-.041.001-.041.002-.041.001-.041.002-.041.001-.041.002-.042.001-.04.002-.042.001-.04.002-.042.001-.04.002-.042.002-.04.001-.042.002-.04.001-.042.002-.04.001-.042.002-.041.001-.041.002-.041.001-.041.002-.041.001-.041.002-.041.001-.041.002-.041.001-.041.002-.041.001-.041.002-.041.001-.041.002-.042.001-.04.002-.042.001-.04.002-.042.001-.04.002-.042.001-.04.002-.042.001-.04.002-.042.001-.041.002-.041.001-.041.002a.56.56 0 0 0-.041.002l-.041.001-.041.002-.041.001-.041.002-.041.001-.041.002-.041.001-.041.002-.042.001-.04.002-.042.001-.04.002-.042.001-.04.002-.042.001-.04.002-.042.001-.04.002-.042.001-.041.002-.041.001-.041.002-.041.001-.041.002-.041.001-.041.002-.041.001-.041.002-.041.001-.041.002-.041.001-.041.002-.042.001-.04.002-.042.001-.04.002-.042.002-.04.001-.042.002-.04.001-.042.002-.041.001-.041.002-.041.001-.041.002-.041.001-.041.002-.041.001-.041.002-.041.001-.041.002-.041.001-.041.002-.041.001-.041.002-.042.001-.04.002-.042.001-.04.002-.042.001-.04.002-.042.001-.04.002-.042.001-.041.002-.041.001-.041.002-.041.001-.041.002-.041.001-.041.002-.041.002-.041.001-.041.002-.041.001-.042.002-.04.001-.042.002-.04.001-.042.002-.04.001-.042.002-.04.001-.042.002-.041.001-.041.002-.041.001-.041.002-.041.001-.041.002-.041.001-.041.002-.041.001-.041.002-.041.001-.041.002-.042.001-.04.002-.042.001-.04.002-.042.001-.04.002-.042.001-.04.002-.042.001-.041.002-.041.002-.041.001-.041.002-.041.001-.041.002-.041.001-.041.002-.041.001-.041.002-.042.001-.04.002-.042.001-.04.002-.042.001-.04.002-.042.001-.04.002-.042.001-.041.002-.041.001-.041.002-.041.001-.041.002-.041.001-.041.002-.041.001-.041.002-.042.001-.04.002-.042.001-.04.002-.042.001-.04.002-.042.001-.04.002-.042.002-.041.001-.041.002-.041.001-.041.002-.041.001-.041.002-.041.001-.041.002-.041.001-.064-1.72.041-.002.041-.001.041-.002.041-.001.041-.002.041-.001.041-.002.041-.001.042-.002.04-.001.042-.002.04-.001.042-.002.04-.001.042-.002.04-.001.042-.002.041-.001.041-.002.041-.001.041-.002.041-.001.041-.002.041-.002.041-.001.041-.002.042-.001.04-.002.042-.001.04-.002.042-.001.04-.002.042-.001.04-.002.042-.001.041-.002.041-.001.041-.002.041-.001.041-.002.041-.001.041-.002.041-.001.041-.002.041-.001.042-.002.04-.001.042-.002.04-.001.042-.002.04-.001.042-.002.04-.001.042-.002.041-.001.041-.002.041-.001.041-.002.041-.002.041-.001.041-.002.041-.001.041-.002.042-.001.04-.002.042-.001.04-.002.042-.001.04-.002.042-.001.04-.002.042-.001.04-.002.042-.001.041-.002.041-.001.041-.002.041-.001.041-.002.041-.001.041-.002.041-.001.041-.002.041-.001.041-.002.041-.001.042-.002.04-.001.042-.002.04-.001.042-.002.04-.001a.565.565 0 0 1 .042-.002l.04-.002.042-.001.041-.002.041-.001.041-.002.041-.001.041-.002.041-.001.041-.002.041-.001.041-.002.041-.001.041-.002.041-.001.041-.002.042-.001.04-.002.042-.001.04-.002.042-.001.04-.002.042-.001.04-.002.042-.001.041-.002.041-.001.041-.002.041-.001.041-.002.041-.001.041-.002.041-.001.041-.002.041-.001.041-.002.042-.002.04-.001.042-.002.04-.001.042-.002.04-.001.042-.002.04-.001.042-.002.04-.001.042-.002.04-.001.042-.002.041-.001.041-.002.041-.001.041-.002.041-.001.041-.002.041-.001.041-.002.041-.001.041-.002.041-.001.041-.002.041-.001.042-.002.04-.001.042-.002.04-.001.042-.002.04-.001.042-.002.04-.001.042-.002.04-.002.042-.001.041-.002.041-.001.041-.002.041-.001.041-.002.041-.001.041-.002.041-.001.041-.002.041-.001.041-.002.041-.001.041-.002.041-.001.042-.002.04-.001.042-.002.04-.001.042-.002.04-.001.042-.002.04-.001.042-.002.04-.001.042-.002.041-.001.041-.002.041-.001.041-.002.041-.001.041-.002.041-.001.041-.002.041-.001.041-.002.041-.002.041-.001.041-.002.041-.001.042-.002.04-.001.042-.002.04-.001.042-.002.04-.001.042-.002.04-.001.042-.002.04-.001.042-.002.041-.001.041-.002.041-.001.041-.002.041-.001.041-.002.041-.001.041-.002.041-.001.041-.002.041-.001.041-.002.041-.001.041-.002.041-.001.042-.002.04-.001.042-.002.04-.001.042-.002a.56.56 0 0 0 .04-.002l.042-.001.04-.002.042-.001.04-.002.042-.001.041-.002.041-.001.041-.002.041-.001.041-.002.041-.001.041-.002.041-.001.041-.002.041-.001.041-.002.041-.001.041-.002.041-.001.041-.002.042-.001.04-.002.042-.001.04-.002.042-.001.04-.002.042-.001.04-.002.042-.001.04-.002.042-.001.041-.002.041-.001.041-.002.041-.001.041-.002.041-.002.041-.001.041-.002.041-.001.041-.002.041-.001.041-.002.041-.001.041-.002.041-.001.042-.002.04-.001.042-.002.04-.001.042-.002.04-.001.042-.002.04-.001.042-.002.04-.001.042-.002.041-.001.041-.002.041-.001.041-.002.041-.001.041-.002.041-.001.041-.002.041-.001.041-.002.041-.001.041-.002.041-.001.041-.002.041-.001a.565.565 0 0 1 .042-.002l.04-.002.042-.001.04-.002.042-.001.04-.002.042-.001.04-.002.042-.001.04-.002.042-.001.041-.002.041-.001.041-.002.041-.001.041-.002.041-.001.041-.002.041-.001.041-.002.041-.001.041-.002.041-.001.041-.002.041-.001.041-.002.042-.001.04-.002.042-.001.04-.002.042-.001.04-.002.042-.001.04-.002.042-.001.04-.002.042-.002.041-.001.041-.002.041-.001.041-.002.041-.001.041-.002.041-.001.041-.002.041-.001.041-.002.041-.001.041-.002.041-.001.042-.002.04-.001.042-.002.04-.001.042-.002.04-.001.042-.002.04-.001.042-.002.04-.001.042-.002.041-.001.041-.002.041-.001.041-.002.041-.001.041-.002.041-.001.041-.002.041-.001.041-.002.041-.002.041-.001.041-.002.041-.001.042-.002.04-.001.042-.002.04-.001.042-.002.04-.001.042-.002.04-.001.042-.002.041-.001.041-.002.041-.001.041-.002.041-.001.041-.002.041-.001.041-.002.041-.001.041-.002.041-.001.041-.002.041-.001.042-.002.04-.001.042-.002.04-.001.042-.002.04-.001.042-.002.04-.001.042-.002.041-.001a.56.56 0 0 1 .041-.002l.041-.002.041-.001.041-.002.041-.001.041-.002.041-.001.041-.002.041-.001.041-.002.042-.001.04-.002.042-.001.04-.002.042-.001.04-.002.042-.001.04-.002.042-.001.04-.002.042-.001.041-.002.041-.001.041-.002.041-.001.041-.002.041-.001.041-.002.041-.001.041-.002.041-.001.041-.002.041-.001.042-.002.04-.001a.565.565 0 0 1 .042-.002l.04-.002.042-.001.04-.002.042-.001.04-.002.042-.001.041-.002.041-.001.041-.002.041-.001.041-.002.041-.001.041-.002.041-.001.041-.002.041-.001.042-.002.04-.001.042-.002.04-.001.042-.002.04-.001.042-.002.04-.001.042-.002.041-.001.041-.002.041-.001.041-.002.041-.001.041-.002.041-.001.041-.002.041-.001a.56.56 0 0 1 .041-.002l.042-.002.04-.001.042-.002.04-.001.042-.002.04-.001.042-.002.041-.001.041-.002.041-.001.041-.002.041-.001.041-.002.041-.001.041-.002.041-.001.041-.002.041-.001.042-.002.04-.001.042-.002.04-.001.042-.002.04-.001.042-.002.041-.001.063 1.72z" mask="url(#e)"/></g><path opacity=".2" d="M50.286 120.496c.62-.021 1.239-.04 1.858-.058a382.8 382.8 0 0 1-1.857.082l-.001-.024zm0 0c-.97.031-1.943.035-2.913.039-2.103.007-4.192.015-6.219.31l9.132-.349z" stroke="#fff" stroke-width=".861"/></g><path d="M21.658 115.891l3.203 3.998-.309-8.381-6.333-1.613.298 8.072 2.527-2.136.338-.285.276.345z" fill="#369CB7" stroke="#fff" stroke-width=".861"/><path d="M17.585 109.294c.663.277 1.43.571 2.253.864h.001c.91.326 1.897.65 2.89.946.992.295 1.99.556 2.935.785.845.204 1.648.377 2.354.509a44.624 44.624 0 0 0-2.253-.863 57.769 57.769 0 0 0-2.892-.946 52.304 52.304 0 0 0-2.93-.785h-.004a45.871 45.871 0 0 0-2.354-.51zm31.219 5.842l.189.375v.001a14.391 14.391 0 0 1 .15 12.576l29.5 7.375-.089-13.571-29.75-6.756z" fill="#369CB7" stroke="#fff" stroke-width=".861"/><path d="M49.024 128.692l28.185 7.661 1.43-.8-29.647-7.719.032.858zm1.856-13.852l25.896 6.949 64.298-2.372-27.078-6.905-63.116 2.328z" fill="#369CB7" stroke="#fff" stroke-width=".861"/><path d="M77.383 122.635a18.967 18.967 0 0 1 .503 13.732l66.451-2.451a14.712 14.712 0 0 0-.506-13.733l-66.448 2.452zm-9.759 1.339c1.213.304 2.366.577 3.39.799a99.921 99.921 0 0 0-3.895-1.319 52.648 52.648 0 0 0-1.577-.492l-.004-.001-.758-.227a292.23 292.23 0 0 1-1.496-.448l-.848-.235c-.473-.132-.944-.263-1.414-.39l-.008-.002c-.462-.134-.913-.247-1.366-.361-.275-.069-.55-.138-.83-.212a92.41 92.41 0 0 0-3.392-.8 102.032 102.032 0 0 0 3.898 1.32 52.13 52.13 0 0 0 1.578.492l.003.001.757.226c.496.148.995.297 1.497.449l.897.248c.46.128.916.255 1.366.377l.004.001c.453.128.896.24 1.34.353.285.072.57.144.858.221zm-4.652 5.21c.773.187 1.511.347 2.168.472a44.995 44.995 0 0 0-2.077-.792 57.305 57.305 0 0 0-2.807-.919 50.623 50.623 0 0 0-2.846-.761l-.003-.001a45.787 45.787 0 0 0-2.168-.472 54.338 54.338 0 0 0 7.733 2.473z" fill="#369CB7" stroke="#fff" stroke-width=".861"/><g opacity=".2" fill="#fff"><g opacity=".2"><mask id="f"><path d="M141.656 124.9a744.333 744.333 0 0 1-53.49 3.281c-2.65.064-5.596.01-7.517-1.816 1.699-.72 3.606-.736 5.46-.75a290.407 290.407 0 0 0 31.769-2.026c8.239-.981 16.594-2.312 24.771-.94.354.061.764.168.892.502.239.614-.66 1.006-1.322 1.051-10.611.696-21.223 1.386-31.834 2.082"/></mask><path d="M141.656 124.9a744.333 744.333 0 0 1-53.49 3.281c-2.65.064-5.596.01-7.517-1.816 1.699-.72 3.606-.736 5.46-.75a290.407 290.407 0 0 0 31.769-2.026c8.239-.981 16.594-2.312 24.771-.94.354.061.764.168.892.502.239.614-.66 1.006-1.322 1.051-10.611.696-21.223 1.386-31.834 2.082"/><path d="M88.166 128.181l.021.86-.021-.86zm-7.517-1.816l-.593.624-.952-.904 1.209-.513.336.793zm5.46-.75l.007.861-.007-.861zm31.769-2.026l-.102-.854.102.854zm24.771-.94l.143-.849h.004l-.147.849zm.892.502l-.803.312-.002-.006.805-.306zm-1.322 1.051l.058.859h-.001l-.057-.859zm-.479 1.555a744.9 744.9 0 0 1-53.553 3.284l-.043-1.72a743.793 743.793 0 0 0 53.429-3.277l.167 1.713zm-53.554 3.284c-1.327.032-2.802.038-4.204-.212-1.408-.252-2.803-.773-3.926-1.84l1.186-1.248c.798.759 1.837 1.178 3.043 1.393 1.215.217 2.537.218 3.86.186l.041 1.721zm-7.873-3.469c1.884-.798 3.97-.804 5.79-.818l.012 1.722c-1.887.014-3.617.04-5.13.682l-.672-1.586zm5.788-.818a289.42 289.42 0 0 0 31.675-2.019l.203 1.709a291.097 291.097 0 0 1-31.863 2.032l-.015-1.722zm31.675-2.019c8.18-.975 16.686-2.332 25.016-.935l-.285 1.697c-8.025-1.346-16.229-.041-24.528.947l-.203-1.709zm25.02-.935c.191.034.477.091.749.218.28.131.629.377.8.826l-1.609.613c.02.052.049.089.073.111.02.019.028.019.006.009a.686.686 0 0 0-.115-.039 2.336 2.336 0 0 0-.198-.041l.294-1.697zm1.547 1.039c.147.378.125.769-.043 1.109a1.7 1.7 0 0 1-.613.664c-.427.277-.967.419-1.41.449l-.116-1.718a1.51 1.51 0 0 0 .328-.061 1.01 1.01 0 0 0 .259-.114c.062-.04.039-.043.008.02a.355.355 0 0 0-.036.146.333.333 0 0 0 .018.129l1.605-.624zm-2.067 2.222l-15.918 1.041-15.917 1.041-.112-1.718c5.305-.348 10.611-.694 15.917-1.041 5.306-.346 10.611-.693 15.917-1.041l.113 1.718z" mask="url(#f)"/></g><path opacity=".2" d="M142.075 125.037a.49.49 0 0 0-.011-.139c-.053-.257-.239-.412-.433-.406h-.009c-4.978.032-9.984.41-15.001.852-1.091.096-2.182.195-3.274.294-3.926.356-7.858.713-11.772.931l30.5-1.532zm0 0c-.417.067-.826.105-1.17.131h-.001c-2.152.171-4.316.362-6.488.553-7.993.704-16.085 1.416-23.986 1.182h-.001c-.243-.007-.39-.089-.478-.181a.482.482 0 0 1-.05-.06l1.674-.093 30.5-1.532zm.853-.186c.21-.061.412-.132.598-.218.388-.179.661-.398.806-.657.137-.245.195-.584.036-1.086-.137-.434-.469-.763-.984-1.013-.52-.253-1.193-.407-1.934-.495a20.002 20.002 0 0 0-2.225-.11l-.712.002c-.427.003-.815.005-1.118-.007l5.533 3.584zm0 0a1.462 1.462 0 0 0-.493-.931l.339-.016v-.014c-.028-.439-.313-.719-.614-.882-.293-.16-.655-.242-.99-.289-.494-.07-1.059-.074-1.395-.076-.107-.001-.191-.001-.242-.004h-.001c-1.003-.047-2.033.02-3.044.112-.353.032-.701.066-1.046.101l-.524.052 8.01 1.947zm-6.619-1.068c-3.254.157-6.512.417-9.764.704-1.096.096-2.19.195-3.284.294-2.46.224-4.915.446-7.365.635l2.494-.283c2.639-.3 5.274-.6 7.906-.861l.852-.042c2.145-.105 4.289-.21 6.424-.349m2.737-.098a126.448 126.448 0 0 1 5.074-.15 3.561 3.561 0 0 0-.333-.062c-.43-.061-.859-.063-1.193-.065a9.234 9.234 0 0 1-.366-.007c-.214-.01-.43-.015-.648-.014h-.04a25.65 25.65 0 0 0-2.237.123c-.335.03-.675.064-1.016.098l-.59.059m1.349.018c-.45-.012-.899-.018-1.349-.018m1.349.018l-1.349-.018m-1.388.116l-.007-.101c.465-.01.93-.016 1.395-.015m-1.388.116c.455-.029.92-.071 1.388-.116m-1.388.116l-.007-.101 1.395-.015m-53.148 1.614c1.6-.364 3.278-.499 4.988-.547 1.02-.029 2.044-.026 3.067-.024l.24.001c1.1.002 2.199.002 3.273-.041 4.872-.2 9.732-.515 14.588-.938 3.265-.284 6.549-.71 9.827-1.135 1.637-.212 3.272-.424 4.903-.618 4.912-.585 9.812-1.01 14.697-.81l-55.583 4.112zm0 0a7.04 7.04 0 0 0 1.952.95c1-.13 2.02-.181 3.035-.194.96-.012 1.923.009 2.867.029l.175.004c1.003.021 1.982.04 2.925.017l-10.954-.806zm28.459-.561c5.248-.847 10.631-1.142 15.969-1.405l-33.474 2.772c3.977-.099 7.949-.273 11.91-.554a189.9 189.9 0 0 0 4.729-.396c.216-.207.506-.359.866-.417zm-28.085 1.792a7.367 7.367 0 0 1-.528-.299l.528.299zm-1.593.519l.194-.867.148-.658c-.16.046-.317.094-.475.146-.204.066-.375.259-.436.497-.058.23-.002.439.167.576.133.107.266.209.402.306z" stroke="#fff" stroke-width=".861"/></g><path d="M75.145 123.185l.238-.11a.232.232 0 0 1 .145-.02c.037.008.088.03.142.102.38.507.856 1.498 1.273 2.738.414 1.23.757 2.664.893 4.034.138 1.379.06 2.646-.326 3.573-.19.458-.45.821-.787 1.081-.333.257-.764.43-1.327.474l-.251-11.872zm0 0l-.207-.16m.207.16l-.207-.16m0 0c-.966-.748-2.09-1.09-3.403-1.041-.282.01-.484.31-.4.558l.001.002c.22.659.56 1.262.933 1.899l.088.15c.341.582.703 1.198.97 1.871.681 1.698.952 3.528.822 5.343a6.467 6.467 0 0 1-.133.853l-.02.102c-.05.231-.092.438-.117.641-.055.448-.01.793.265 1.11v.001m.993-11.489l-.993 11.489m0 0c.34.395.893.586 1.452.543l-1.452-.543z" fill="#369CB7" stroke="#fff" stroke-width=".861"/><path d="M77.637 136.285v-.001c1.65-3.36 1.53-6.665.97-9.18-.563-2.518-1.562-4.219-1.634-4.337l-.001-.002a.437.437 0 0 0-.26-.2l-.003-.001-28.43-7.975a.447.447 0 0 0-.238.863l28.073 7.872.181.05.086.168c.645 1.257 2.967 6.389.763 11.674l-.145.346-.362-.095-28.064-7.406h-.002a.44.44 0 0 0-.537.312l-.002.006a.442.442 0 0 0 .312.539l.004.001 28.78 7.595.012.003.011.004a.44.44 0 0 0 .486-.236z" fill="#369CB7" stroke="#fff" stroke-width=".861"/><path opacity=".2" d="M99.497 113.289c-4.523.222-9.034.529-13.55.847 4.529-.016 9.054-.039 13.576-.151 1.201-.03 2.416-.039 3.635-.049 3.969-.031 7.986-.063 11.772-.796a.188.188 0 0 0 .011-.072.17.17 0 0 0-.016-.07c-3.829-.452-7.833-.189-11.794.072-1.217.081-2.431.161-3.634.219zm0 0l-.021-.429m.021.429l-.021-.429m0 0c1.186-.058 2.388-.138 3.599-.218 3.974-.262 8.037-.529 11.913-.07l.036.988c-3.832.743-7.909.776-11.891.807-1.212.01-2.415.019-3.6.049-4.844.119-9.692.137-14.54.154l-2.18.008c-.42.002-.443-.62-.025-.649l.858-.061c5.275-.375 10.544-.749 15.83-1.008z" fill="#fff" stroke="#fff" stroke-width=".861"/><g opacity=".2" fill="#fff"><g opacity=".2"><mask id="g"><path d="M143.098 132.792l-31.192 1.151 31.192-1.151z"/></mask><path d="M143.098 132.792l-31.192 1.151 31.192-1.151z"/><path d="M143.13 133.652l-.061.002-.061.003-.061.002-.061.002-.061.002-.061.003-.061.002-.061.002-.061.002-.06.003-.061.002-.061.002-.061.002-.061.003-.061.002-.061.002-.061.002-.061.003-.061.002-.061.002-.061.002-.061.003-.061.002-.061.002-.061.002-.06.003-.061.002-.061.002-.061.002-.061.003-.061.002-.061.002-.061.002-.061.003-.061.002-.061.002-.061.002-.061.003-.061.002-.061.002-.06.002-.061.003-.061.002-.061.002-.061.002-.061.003-.061.002-.061.002-.061.002-.061.003-.061.002-.061.002-.061.002-.061.003-.061.002-.06.002-.061.002-.061.003-.061.002-.061.002-.061.002-.061.003-.061.002-.061.002-.061.002-.061.003-.061.002-.061.002-.061.002-.061.003-.061.002-.06.002-.061.002-.061.002-.061.003-.061.002-.061.002-.061.002-.061.003-.061.002-.061.002-.061.002-.061.003-.061.002-.061.002-.061.002-.06.003-.061.002-.061.002-.061.002-.061.003-.061.002-.061.002-.061.002-.061.003-.061.002-.061.002-.061.002-.061.003-.061.002-.061.002-.06.002-.061.003-.061.002-.061.002-.061.002a25.308 25.308 0 0 0-.122.005l-.061.002-.061.002-.061.003-.061.002-.061.002-.061.002-.061.003-.061.002-.06.002-.061.002-.061.003-.061.002-.061.002-.061.002-.061.003-.061.002-.061.002-.061.002-.061.003-.061.002-.061.002-.061.002-.061.003-.06.002-.061.002-.061.002-.061.003-.061.002-.061.002-.061.002-.061.003-.061.002-.061.002-.061.002-.061.003-.061.002-.061.002-.061.002-.06.003-.061.002-.061.002-.061.002-.061.003-.061.002-.061.002-.061.002-.061.003-.061.002-.061.002-.061.002-.061.003-.061.002-.06.002-.061.002-.061.003-.061.002-.061.002-.061.002-.061.003-.061.002-.061.002-.061.002-.061.003-.061.002-.061.002-.061.002a25.308 25.308 0 0 1-.121.005l-.061.002-.061.002-.061.003-.061.002-.061.002-.061.002-.061.002-.061.003-.061.002-.061.002-.061.002-.061.003-.061.002-.06.002-.061.002a25.308 25.308 0 0 0-.122.005l-.061.002-.061.002-.061.003-.061.002-.061.002-.061.002-.061.003-.061.002-.061.002-.061.002a40361363972.49 40361363972.49 0 0 1-.121.005l-.061.002-.061.002a25.308 25.308 0 0 0-.122.005l-.061.002-.061.002-.061.003-.061.002-.061.002-.061.002-.061.003-.061.002-.06.002-.061.002a25.308 25.308 0 0 0-.122.005l-.061.002-.061.002-.061.003-.061.002-.061.002-.061.002-.061.003-.061.002-.061.002-.061.002-.06.003-.061.002-.061.002-.061.002a25.308 25.308 0 0 0-.122.005l-.061.002-.061.002-.061.003-.061.002-.061.002-.061.002-.061.003-.061.002-.06.002-.061.002-.061.003-.061.002-.061.002-.061.002-.061.003-.061.002-.061.002-.061.002-.061.003-.061.002-.061.002-.06.002a25.308 25.308 0 0 0-.122.005l-.061.002-.061.002-.061.003-.061.002-.061.002-.061.002-.061.003-.061.002-.061.002-.061.002-.06.003-.061.002-.061.002-.061.002-.061.003-.061.002-.061.002-.061.002-.061.003-.061.002-.061.002-.061.002-.061.002-.061.003-.06.002-.061.002-.061.002-.061.003-.061.002-.061.002-.061.002-.061.003-.061.002-.061.002-.061.002a25.308 25.308 0 0 1-.121.005l-.061.002-.061.002-.061.003-.061.002-.061.002-.061.002-.061.003-.061.002-.061.002-.061.002-.061.003-.061.002-.06.002-.061.002a25.308 25.308 0 0 0-.122.005l-.061.002-.061.002-.061.003-.061.002-.061.002-.061.002-.061.003-.061.002-.061.002-.06.002a25.308 25.308 0 0 0-.122.005l-.061.002-.061.002-.061.003-.061.002-.061.002-.061.002-.061.003-.061.002-.061.002-.06.002-.061.003-.061.002-.061.002-.061.002-.061.003-.061.002-.061.002-.061.002-.061.003-.061.002-.061.002-.06.002a25.308 25.308 0 0 0-.122.005l-.061.002-.061.002-.061.003-.061.002-.061.002-.061.002-.061.003-.061.002-.061.002-.06.002a25.308 25.308 0 0 0-.122.005l-.061.002-.061.002-.061.003-.061.002-.061.002-.061.002-.061.003-.061.002-.061.002-.06.002-.061.002-.061.003-.061.002-.061.002-.061.002-.061.003-.061.002-.061.002-.061.002-.061.003-.06.002-.061.002-.061.002-.061.003-.061.002-.061.002-.061.002-.061.003-.061.002-.061.002-.061.002a25.308 25.308 0 0 1-.121.005l-.061.002-.061.002a25.308 25.308 0 0 0-.122.005l-.061.002-.061.002-.061.003-.061.002-.061.002-.061.002-.06.003-.061.002-.061.002-.061.002-.061.003-.061.002-.061.002-.061.002-.061.003-.061.002-.061.002-.06.002-.061.003-.061.002-.061.002-.061.002-.061.003-.061.002-.061.002-.061.002-.061.003-.061.002-.06.002-.061.002-.061.003-.061.002-.061.002-.061.002-.061.003-.061.002-.061.002-.061.002-.061.003-.06.002-.061.002-.061.002-.061.003-.061.002-.061.002-.061.002-.061.003-.061.002-.061.002-.06.002-.061.003-.061.002-.061.002-.061.002-.061.002-.061.003-.061.002-.061.002-.061.002-.061.003-.06.002-.061.002-.061.002a25.308 25.308 0 0 0-.122.005l-.061.002-.061.002-.061.003-.061.002-.061.002-.06.002a25.308 25.308 0 0 0-.122.005l-.061.002-.061.002-.061.003-.061.002-.061.002-.061.002-.061.003-.06.002-.061.002-.061.002-.061.003-.061.002-.061.002-.061.002-.061.003-.061.002-.061.002-.06.002a25.308 25.308 0 0 0-.122.005l-.061.002-.061.002-.061.003-.061.002-.061.002-.061.002-.061.003-.06.002-.061.002-.061.002-.061.003-.061.002-.061.002-.061.002-.061.003-.061.002-.061.002-.06.002-.061.003-.061.002-.064-1.721.061-.002.061-.002.061-.002.061-.003.061-.002.061-.002.061-.002.061-.002.06-.003.061-.002.061-.002.061-.002.061-.003.061-.002.061-.002.061-.002.061-.003.06-.002.061-.002.061-.002.061-.003.061-.002.061-.002.061-.002.061-.003.061-.002.061-.002.06-.002a25.308 25.308 0 0 0 .122-.005l.061-.002.061-.002.061-.003.061-.002.061-.002.061-.002.061-.003.06-.002.061-.002.061-.002a25.308 25.308 0 0 0 .122-.005l.061-.002.061-.002.061-.003.061-.002.061-.002.06-.002a25.308 25.308 0 0 0 .122-.005l.061-.002.061-.002.061-.003.061-.002.061-.002.061-.002.061-.003.061-.002.06-.002.061-.002.061-.003.061-.002.061-.002.061-.002.061-.003.061-.002.061-.002.061-.002.06-.003.061-.002.061-.002.061-.002.061-.003.061-.002.061-.002.061-.002.061-.003.061-.002.061-.002.06-.002a25.308 25.308 0 0 0 .183-.007l.061-.002.061-.002.061-.003.061-.002.061-.002.061-.002.061-.003.06-.002.061-.002.061-.002a25.308 25.308 0 0 0 .122-.005l.061-.002.061-.002.061-.003.061-.002.061-.002.061-.002.06-.003.061-.002.061-.002.061-.002.061-.003.061-.002.061-.002.061-.002.061-.003.061-.002.061-.002.06-.002.061-.003.061-.002.061-.002.061-.002.061-.003.061-.002.061-.002.061-.002.061-.003.061-.002.06-.002.061-.002a25.308 25.308 0 0 0 .122-.005l.061-.002.061-.002.061-.003.061-.002.061-.002.061-.002.061-.003.061-.002.06-.002.061-.002.061-.003.061-.002.061-.002.061-.002.061-.003.061-.002.061-.002.061-.002.061-.003.06-.002.061-.002.061-.002.061-.003.061-.002.061-.002.061-.002.061-.003.061-.002.061-.002.061-.002.061-.003.06-.002.061-.002.061-.002a25.308 25.308 0 0 0 .122-.005l.061-.002.061-.002.061-.002.061-.003.061-.002.061-.002.061-.002.06-.003.061-.002.061-.002.061-.002a25.308 25.308 0 0 0 .122-.005l.061-.002.061-.002.061-.003.061-.002.061-.002.061-.002.061-.003.06-.002.061-.002.061-.002a25.308 25.308 0 0 0 .122-.005l.061-.002.061-.002.061-.003.061-.002.061-.002.061-.002.061-.003.06-.002.061-.002.061-.002.061-.003.061-.002.061-.002.061-.002.061-.003.061-.002.061-.002.061-.002.061-.003.061-.002.06-.002.061-.002.061-.003.061-.002.061-.002.061-.002.061-.003.061-.002.061-.002.061-.002.061-.003.061-.002.061-.002.06-.002a25.308 25.308 0 0 0 .122-.005l.061-.002.061-.002.061-.003.061-.002.061-.002.061-.002.061-.003.061-.002.061-.002.06-.002a25.308 25.308 0 0 0 .122-.005l.061-.002.061-.002a25.308 25.308 0 0 0 .122-.005l.061-.002.061-.002.061-.003.061-.002.061-.002.061-.002.061-.003.06-.002.061-.002.061-.002.061-.003.061-.002.061-.002.061-.002.061-.003.061-.002.061-.002.061-.002.061-.002.061-.003.06-.002.061-.002.061-.002a25.308 25.308 0 0 0 .122-.005l.061-.002.061-.002.061-.003.061-.002.061-.002.061-.002.061-.003.061-.002.061-.002.06-.002a25.308 25.308 0 0 0 .122-.005l.061-.002.061-.002.061-.003.061-.002.061-.002.061-.002.061-.003.061-.002.061-.002.061-.002.06-.003.061-.002.061-.002.061-.002.061-.003.061-.002.061-.002.061-.002.061-.003.061-.002.061-.002.061-.002.061-.003.061-.002.06-.002.061-.002.061-.003.061-.002.061-.002.061-.002.061-.003.061-.002.061-.002.061-.002.061-.003.061-.002.061-.002.061-.002.06-.003.061-.002.061-.002.061-.002.061-.003.061-.002.061-.002.061-.002.061-.003.061-.002.061-.002.061-.002.061-.003.061-.002.061-.002.06-.002.061-.003.061-.002.061-.002.061-.002.061-.003.061-.002.061-.002.061-.002.061-.003.061-.002.061-.002.061-.002a25.308 25.308 0 0 1 .121-.005l.061-.002.061-.002.061-.003.061-.002.061-.002.061-.002.061-.003.061-.002.061-.002.061-.002.061-.003.061-.002.061-.002.061-.002.06-.003.061-.002.061-.002.061-.002.061-.002.061-.003.061-.002.061-.002.061-.002.061-.003.061-.002.061-.002.061-.002.061-.003.06-.002.061-.002.061-.002.061-.003.061-.002.061-.002.061-.002.061-.003.061-.002.061-.002.061-.002.061-.003.061-.002.061-.002.061-.002.06-.003.061-.002.061-.002.061-.002.061-.003.061-.002.061-.002.061-.002.061-.003.061-.002.061-.002.061-.002.061-.003.061-.002.061-.002.06-.002.061-.003.061-.002.061-.002.061-.002.061-.003.061-.002.061-.002.061-.002.061-.003.061-.002.061-.002.061-.002.061-.003.061-.002.06-.002.061-.002a25.308 25.308 0 0 0 .122-.005l.061-.002.061-.002.061-.003.061-.002.061-.002.061-.002.061-.003.061-.002.061-.002.061-.002a25.308 25.308 0 0 1 .121-.005l.061-.002.061-.002.061-.003.061-.002.061-.002.061-.002.061-.003.061-.002.061-.002.061-.002.061-.003.061-.002.061-.002.061-.002.061-.003.06-.002.061-.002.061-.002.061-.003.061-.002.061-.002.061-.002.061-.003.061-.002.061-.002.061-.002.061-.003.061-.002.061-.002.061-.002.06-.003.061-.002.061-.002.061-.002.061-.003.061-.002.061-.002.061-.002.061-.003.061-.002.061-.002.061-.002.061-.002.061-.003.061-.002.06-.002.061-.002.061-.003.061-.002.061-.002.061-.002.061-.003.061-.002.061-.002.061-.002.061-.003.061-.002.061-.002.061-.002.061-.003.061-.002.06-.002.061-.002.061-.003.061-.002.061-.002.061-.002.061-.003.061-.002.061-.002.061-.002.061-.003.061-.002.061-.002.061-.002a25.308 25.308 0 0 1 .121-.005l.061-.002.064 1.72z" mask="url(#g)"/></g><path opacity=".2" d="M130.937 133.305c3.303-.076 6.612-.152 9.88-.43-3.233-.032-6.495.131-9.75.295-1.19.059-2.378.119-3.564.169-1.269.053-2.543.097-3.819.142-2.042.071-4.088.142-6.124.251 2.038-.041 4.084-.121 6.125-.201 1.276-.049 2.55-.099 3.82-.139h.001a431.55 431.55 0 0 1 3.431-.087z" stroke="#fff" stroke-width=".861"/></g><g opacity=".2" fill="#fff"><g opacity=".2"><mask id="h"><path d="M108.296 134.95l-1.75.065 1.75-.065z"/></mask><path d="M108.296 134.95l-1.75.065 1.75-.065z"/><path d="M108.328 135.81h-.004l-.003.001h-.024l-.003.001h-.024l-.004.001h-.024l-.003.001h-.02l-.004.001h-.024l-.003.001h-.024l-.003.001h-.024l-.004.001h-.024l-.003.001h-.024l-.003.001h-.024l-.004.001h-.024l-.003.001H108l-.003.001h-.024l-.004.001h-.024l-.003.001h-.024l-.003.001h-.024l-.004.001h-.024l-.003.001h-.024l-.003.001h-.021l-.003.001h-.024l-.004.001h-.024l-.003.001h-.024l-.004.001h-.023l-.004.001h-.024l-.003.001h-.024l-.004.001h-.024l-.003.001h-.024l-.003.001h-.024l-.004.001h-.024l-.003.001h-.024l-.004.001h-.024l-.003.001h-.021l-.003.001h-.024l-.003.001h-.024l-.004.001h-.024l-.003.001h-.024l-.004.001h-.024l-.003.001h-.024l-.003.001h-.024l-.004.001h-.024l-.003.001h-.024l-.004.001h-.024l-.003.001h-.024l-.003.001h-.021l-.003.001h-.024l-.004.001h-.024l-.003.001h-.024l-.003.001h-.024l-.004.001h-.024l-.003.001h-.024l-.003.001h-.024l-.004.001h-.024l-.003.001h-.024l-.004.001h-.023l-.004.001h-.024l-.003.001h-.024l-.003.001h-.024l-.004.001h-.02l-.004.001h-.024l-.003.001h-.024l-.003.001h-.024l-.004.001h-.023l-.004.001h-.024l-.003.001h-.024l-.003.001h-.011l-.063-1.72.003-.001h.024l.004-.001h.024l.003-.001h.024l.003-.001h.024l.003-.001h.024l.004-.001h.024l.003-.001h.024l.003-.001h.024l.004-.001h.024l.003-.001h.024l.003-.001h.024l.004-.001h.024l.003-.001h.024l.003-.001h.021l.003-.001h.024l.004-.001h.023l.004-.001h.024l.003-.001h.024l.004-.001h.024l.003-.001h.024l.003-.001h.024l.004-.001h.024l.003-.001h.024l.004-.001h.023l.004-.001h.024l.003-.001h.024l.004-.001h.02l.004-.001h.024l.003-.001h.024l.003-.001h.024l.004-.001h.024l.003-.001h.024l.004-.001h.024l.003-.001h.024l.003-.001h.024l.004-.001h.024l.003-.001h.024l.004-.001h.024l.003-.001h.021l.003-.001h.024l.003-.001h.024l.004-.001h.024l.003-.001h.024l.004-.001h.024l.003-.001h.024l.003-.001h.024l.004-.001h.024l.003-.001h.024l.003-.001h.024l.004-.001h.024l.003-.001h.024l.003-.001h.021l.003-.001h.024l.004-.001h.024l.003-.001h.024l.003-.001h.024l.004-.001h.024l.003-.001h.024l.003-.001h.024l.004-.001h.023l.004-.001h.024l.003-.001h.024l.003-.001h.024l.004-.001h.024l.003-.001h.01l.064 1.72z" mask="url(#h)"/></g><g opacity=".2"><mask id="i"><path d="M108.307 135.269c-.595.015-1.221.092-1.802-.076a.183.183 0 0 1-.013-.352c.567-.211 1.197-.18 1.792-.208.405-.015.429.627.023.636z"/></mask><path d="M108.307 135.269c-.595.015-1.221.092-1.802-.076a.183.183 0 0 1-.013-.352c.567-.211 1.197-.18 1.792-.208.405-.015.429.627.023.636z"/><path d="M108.307 135.269l-.022-.861h.005l.017.861zm-1.802-.076l.223-.832.008.003.008.002-.239.827zm-.013-.352l.299.807-.008.003-.008.003-.283-.813zm1.792-.208l-.042-.86.01-.001.032.861zm.045 1.496c-.472.012-1.314.108-2.064-.109l.479-1.654c.413.119.824.06 1.541.042l.044 1.721zm-2.047-.105c-.996-.267-1.048-1.656-.074-1.996l.567 1.626c.627-.219.593-1.121-.047-1.293l-.446 1.663zm-.09-1.99c.732-.272 1.579-.238 2.05-.261l.083 1.719c-.717.035-1.131.006-1.534.156l-.599-1.614zm2.06-.262c.352-.013.675.125.901.374a1.2 1.2 0 0 1 .307.764c.009.252-.058.542-.254.788a1.14 1.14 0 0 1-.881.431l-.035-1.721a.579.579 0 0 0-.433.221.52.52 0 0 0-.117.345.513.513 0 0 0 .138.329c.12.132.289.195.438.19l-.064-1.721z" mask="url(#i)"/></g></g><g opacity=".2" fill="#fff"><g opacity=".2"><mask id="j"><path d="M101.876 135.187l-20.407.752 20.407-.752z"/></mask><path d="M101.876 135.187l-20.407.752 20.407-.752z"/><path d="M101.908 136.047l-.04.001-.04.002-.039.001-.04.002-.04.001-.04.002-.04.001-.04.001-.04.002-.04.001-.039.002-.04.001-.04.002-.04.001-.04.002-.04.001-.04.002-.039.001-.04.002-.04.001-.04.002-.04.001-.04.002-.04.001-.04.001-.039.002-.04.001-.04.002-.04.001-.04.002-.04.001-.04.002-.039.001-.04.002-.04.001-.04.002-.04.001-.04.002-.04.001-.04.002-.039.001-.04.001-.04.002-.04.001-.04.002-.04.001-.04.002-.04.001-.04.002-.04.001-.039.002-.04.001-.04.002-.04.001-.04.002-.04.001-.04.002-.04.001-.039.001-.04.002-.04.001-.04.002-.04.001-.04.002-.04.001-.039.002-.04.001-.04.002-.04.001-.04.002-.04.001-.04.002-.039.001-.04.002-.04.001-.04.001-.04.002-.04.001-.04.002-.04.001-.039.002-.04.001-.04.002-.04.001-.04.002-.04.001-.04.002-.039.001-.04.002-.04.001-.04.002-.04.001-.04.001-.04.002-.039.001-.04.002-.04.001-.04.002-.04.001-.04.002-.04.001-.039.002-.04.001-.04.002-.04.001-.04.002-.04.001-.04.002-.039.001-.04.001-.04.002-.04.001-.04.002-.04.001-.04.002-.039.001-.04.002-.04.001-.04.002-.04.001-.04.002-.04.001-.039.002-.04.001-.04.001-.04.002-.04.001-.04.002-.04.001-.039.002-.04.001-.04.002-.04.001-.04.002-.04.001-.04.002-.039.001-.04.002-.04.001-.04.002-.04.001-.04.001-.04.002-.039.001-.04.002-.04.001-.04.002-.04.001-.04.002-.04.001-.039.002-.04.001-.04.002-.04.001-.04.002-.04.001-.04.002-.039.001-.04.001-.04.002-.04.001-.04.002-.04.001-.039.002-.04.001-.04.002-.04.001-.04.002-.04.001-.04.002-.039.001-.04.002-.04.001-.04.002-.04.001-.04.001-.04.002-.039.001-.04.002-.04.001-.04.002-.04.001-.04.002-.04.001-.039.002-.04.001-.04.002-.04.001-.04.002-.04.001-.04.002-.039.001-.04.001-.04.002-.04.001-.04.002-.04.001-.04.002-.039.001-.04.002-.04.001-.04.002-.04.001-.04.002-.039.001-.04.002-.04.001-.04.002-.04.001-.04.001-.04.002-.039.001-.04.002-.04.001-.04.002-.04.001-.04.002-.04.001-.039.002-.04.001-.04.002-.04.001-.04.002-.04.001-.04.002-.039.001-.04.001-.04.002-.04.001-.04.002-.04.001-.039.002-.04.001-.04.002-.04.001-.04.002-.04.001-.04.002-.039.001-.04.002-.04.001-.04.002-.04.001-.04.001-.04.002-.039.001-.04.002-.04.001-.04.002-.04.001-.04.002-.039.001-.04.002-.04.001-.04.002-.04.001-.04.002-.04.001-.039.001-.04.002-.04.001-.04.002-.04.001-.04.002-.04.001-.039.002-.04.001-.04.002-.04.001-.04.002-.04.001-.04.002-.039.001-.04.002-.04.001-.04.001-.04.002-.04.001-.039.002-.04.001-.04.002-.04.001-.04.002-.04.001-.04.002-.039.001-.04.002-.04.001-.04.002-.04.001-.04.002-.04.001-.039.001-.04.002-.04.001-.04.002-.04.001-.04.002-.04.001-.039.002-.04.001-.04.002-.04.001-.04.002-.04.001-.039.002-.04.001-.04.002-.04.001-.04.001-.04.002-.04.001-.039.002-.04.001-.04.002-.04.001-.04.002-.04.001-.04.002-.039.001-.04.002-.04.001-.04.002-.04.001-.04.002-.04.001-.039.001-.04.002-.04.001-.04.002-.04.001-.04.002-.04.001-.039.002-.04.001-.04.002-.04.001-.04.002-.04.001-.039.002-.04.001-.04.002-.04.001-.04.001-.04.002-.04.001-.039.002-.04.001-.04.002-.04.001-.04.002-.04.001-.04.002-.039.001-.04.002-.04.001-.04.002-.04.001-.04.002-.04.001-.039.001-.04.002-.04.001-.04.002-.04.001-.04.002-.04.001-.039.002-.04.001-.04.002-.04.001-.04.002-.04.001-.04.002-.039.001-.04.001-.04.002-.04.001-.04.002-.04.001-.04.002-.039.001-.04.002-.04.001-.04.002-.04.001-.04.002-.04.001-.039.002-.04.001-.04.002-.04.001-.04.001-.04.002-.04.001-.039.002-.04.001-.04.002-.04.001-.04.002-.04.001-.04.002-.039.001-.04.002-.04.001-.04.002-.04.001-.04.002-.04.001-.039.001-.04.002-.04.001-.04.002-.04.001-.04.002-.04.001-.039.002-.04.001-.04.002-.04.001-.04.002-.04.001-.04.002-.039.001-.04.002-.04.001-.04.001-.04.002-.04.001-.04.002-.039.001-.04.002-.04.001-.04.002-.04.001-.04.002-.04.001-.039.002-.04.001-.04.002-.04.001-.04.002-.04.001-.04.001-.039.002-.04.001-.04.002-.04.001-.04.002-.04.001-.04.002-.04.001-.039.002-.04.001-.04.002-.04.001-.04.002-.04.001-.04.002-.039.001-.04.001-.04.002-.04.001-.04.002-.04.001-.04.002-.039.001-.04.002-.04.001-.04.002-.04.001-.04.002-.04.001-.04.002-.039.001-.04.002-.04.001-.04.001-.04.002-.04.001-.04.002-.039.001-.04.002-.04.001-.04.002-.04.001-.04.002-.04.001-.04.002-.039.001-.04.002-.04.001-.04.002-.04.001-.04.001-.04.002-.04.001-.039.002-.04.001-.04.002-.04.001-.04.002-.04.001-.04.002-.039.001-.04.002-.04.001-.04.002-.04.001-.04.002-.04.001-.04.001-.063-1.72.04-.001.04-.002.04-.001.04-.002.04-.001.04-.002.04-.001.04-.002.04-.001.04-.002.039-.001.04-.001.04-.002.04-.001.04-.002.04-.001.04-.002.04-.001.039-.002.04-.001.04-.002.04-.001.04-.002.04-.001.04-.002.039-.001.04-.002.04-.001.04-.001.04-.002.04-.001.04-.002.04-.001.039-.002.04-.001.04-.002.04-.001.04-.002.04-.001.04-.002.039-.001.04-.002.04-.001.04-.002.04-.001.04-.001.04-.002.04-.001.039-.002.04-.001.04-.002.04-.001.04-.002.04-.001.04-.002.039-.001.04-.002.04-.001.04-.002.04-.001.04-.002.04-.001.039-.001.04-.002.04-.001.04-.002.04-.001.04-.002.04-.001.04-.002.039-.001.04-.002.04-.001.04-.002.04-.001.04-.002.04-.001.039-.002.04-.001.04-.001.04-.002.04-.001.04-.002.04-.001.039-.002.04-.001.04-.002.04-.001.04-.002.04-.001.04-.002.039-.001.04-.002.04-.001.04-.002.04-.001.04-.001.04-.002.039-.001.04-.002.04-.001.04-.002.04-.001.04-.002.04-.001.039-.002.04-.001.04-.002.04-.001.04-.002.04-.001.04-.002.039-.001.04-.001.04-.002.04-.001.04-.002.04-.001.04-.002.039-.001.04-.002.04-.001.04-.002.04-.001.04-.002.04-.001.039-.002.04-.001.04-.002.04-.001.04-.001.04-.002.04-.001.039-.002.04-.001.04-.002.04-.001.04-.002.04-.001.04-.002.039-.001.04-.002.04-.001.04-.002.04-.001.04-.002.04-.001.039-.001.04-.002.04-.001.04-.002.04-.001.04-.002.04-.001.039-.002.04-.001.04-.002.04-.001.04-.002.04-.001.04-.002.039-.001.04-.002.04-.001.04-.001.04-.002.04-.001.04-.002.039-.001.04-.002.04-.001.04-.002.04-.001.04-.002.04-.001.039-.002.04-.001.04-.002.04-.001.04-.002.04-.001.039-.001.04-.002.04-.001.04-.002.04-.001.04-.002.04-.001.039-.002.04-.001.04-.002.04-.001.04-.002.04-.001.04-.002.039-.001.04-.002.04-.001.04-.001.04-.002.04-.001.04-.002.039-.001.04-.002.04-.001.04-.002.04-.001.04-.002.04-.001.039-.002.04-.001.04-.002.04-.001.04-.001.04-.002.039-.001.04-.002.04-.001.04-.002.04-.001.04-.002.04-.001.039-.002.04-.001.04-.002.04-.001.04-.002.04-.001.04-.002.039-.001.04-.001.04-.002.04-.001.04-.002.04-.001.04-.002.039-.001.04-.002.04-.001.04-.002.04-.001.04-.002.039-.001.04-.002.04-.001.04-.002.04-.001.04-.001.04-.002.039-.001.04-.002.04-.001.04-.002.04-.001.04-.002.04-.001.039-.002.04-.001.04-.002.04-.001.04-.002.04-.001.039-.002.04-.001.04-.001.04-.002.04-.001.04-.002.04-.001.039-.002.04-.001.04-.002.04-.001.04-.002.04-.001.04-.002.039-.001.04-.002.04-.001.04-.002.04-.001.04-.001.04-.002.039-.001.04-.002.04-.001.04-.002.04-.001.04-.002.039-.001.04-.002.04-.001.04-.002.04-.001.04-.002.04-.001.039-.002.04-.001.04-.001.04-.002.04-.001.04-.002.04-.001.039-.002.04-.001.04-.002.04-.001.04-.002.04-.001.04-.002.039-.001.04-.002.04-.001.04-.002.04-.001.04-.001.039-.002.04-.001.04-.002.04-.001.04-.002.04-.001.04-.002.039-.001.04-.002.04-.001.04-.002.04-.001.04-.002.04-.001.039-.001.04-.002.04-.001.04-.002.04-.001.04-.002.04-.001.039-.002.04-.001.04-.002.04-.001.04-.002.04-.001.04-.002.039-.001.04-.002.04-.001.04-.001.04-.002.04-.001.04-.002.039-.001.04-.002.04-.001.04-.002.04-.001.04-.002.039-.001.04-.002.04-.001.04-.002.04-.001.04-.002.04-.001.039-.001.04-.002.04-.001.04-.002.04-.001.04-.002.04-.001.039-.002.04-.001.04-.002.04-.001.04-.002.04-.001.04-.002.039-.001.04-.002.04-.001.04-.001.04-.002.04-.001.04-.002.039-.001.04-.002.04-.001.04-.002.04-.001.04-.002.04-.001.039-.002.04-.001.04-.002.04-.001.04-.002.04-.001.04-.001.039-.002.04-.001.04-.002.04-.001.04-.002.04-.001.04-.002.039-.001.04-.002.04-.001.04-.002.04-.001.04-.002.04-.001.039-.002.04-.001.04-.001.04-.002.04-.001.04-.002.04-.001.039-.002.04-.001.04-.002.04-.001.04-.002.04-.001.04-.002.039-.001.04-.002.04-.001.04-.002.04-.001.04-.001.04-.002.04-.001.039-.002.04-.001.04-.002.04-.001.04-.002.04-.001.04-.002.039-.001.04-.002.04-.001.04-.002.04-.001.04-.002.04-.001.039-.001.04-.002.04-.001.04-.002.04-.001.04-.002.04-.001.039-.002.04-.001.04-.002.04-.001.04-.002.04-.001.04-.002.04-.001.039-.002.04-.001.04-.001.04-.002.039-.001.04-.002.04-.001.04-.002.04-.001.04-.002.04-.001.039-.002.04-.001.04-.002.04-.001.04-.002.04-.001.04-.002.04-.001.039-.001.04-.002.04-.001.04-.002.04-.001.04-.002.04-.001.039-.002.04-.001.04-.002.04-.001.04-.002.04-.001.04-.002.04-.001.039-.002.04-.001.04-.001.04-.002.04-.001.04-.002.04-.001.04-.002.039-.001.04-.002.04-.001.04-.002.04-.001.04-.002.063 1.721z" mask="url(#j)"/></g><path opacity=".2" d="M90.94 135.594c-.911.028-1.824.031-2.734.035-2.002.007-3.99.014-5.92.284 1.945.127 3.927-.012 5.925-.152a98.98 98.98 0 0 1 2.73-.167z" stroke="#fff" stroke-width=".861"/></g><path d="M63.245 131.099l3.087 3.853-.299-8.092-6.125-1.559.288 7.796 2.435-2.058.337-.285.277.345z" fill="#369CB7" stroke="#fff" stroke-width=".861"/><path d="M59.395 124.735c.618.255 1.322.524 2.076.792l.002.001a55.32 55.32 0 0 0 2.806.918 56.884 56.884 0 0 0 5.017 1.235 43.822 43.822 0 0 0-2.077-.793 57.314 57.314 0 0 0-2.807-.918 51.523 51.523 0 0 0-2.846-.762h-.003a44.647 44.647 0 0 0-2.168-.473zM11.93 79.853l.207.41v.001a14.807 14.807 0 0 1 .148 12.954l30.402 7.602-.091-14-30.666-6.967z" fill="#369CB7" stroke="#fff" stroke-width=".861"/><path d="M12.169 93.847l29.037 7.886 1.506-.841-30.577-7.955.034.91zm1.838-14.291l26.75 7.18 66.304-2.447-27.972-7.133-65.082 2.4z" fill="#369CB7" stroke="#fff" stroke-width=".861"/><path d="M110.206 99.562c2.189-4.525 2.115-10.161-.387-14.505h-.001L41.365 87.58a19.52 19.52 0 0 1 .413 14.464l68.428-2.483zM31.332 88.985c1.322.332 2.574.627 3.675.863a101.11 101.11 0 0 0-4.187-1.423 56.239 56.239 0 0 0-1.625-.507l-.004-.001-.78-.233c-.51-.152-1.024-.305-1.541-.462-.293-.08-.584-.161-.873-.242-.488-.136-.973-.271-1.457-.402l-.008-.002a39.09 39.09 0 0 0-1.408-.372c-.282-.07-.566-.141-.853-.218a94.313 94.313 0 0 0-3.676-.863c1.061.388 2.28.807 3.584 1.228l.605.195c.535.173 1.073.347 1.625.507l.004.001.78.233c.51.153 1.024.306 1.54.462l.925.256c.473.131.943.262 1.406.388l.004.001c.466.131.924.247 1.38.363.294.075.588.15.884.228zm2.678 4.224c.845.205 1.648.377 2.355.51a45.326 45.326 0 0 0-2.253-.864c-.919-.327-1.9-.65-2.892-.946a52.462 52.462 0 0 0-2.931-.784l-.003-.001a46.669 46.669 0 0 0-2.355-.51c.663.277 1.43.571 2.253.864h.002c.91.326 1.897.65 2.89.946a59.2 59.2 0 0 0 2.934.785zm-7.469 1.141c.845.204 1.648.377 2.355.51a43.503 43.503 0 0 0-2.254-.864 58.771 58.771 0 0 0-2.891-.946 52.459 52.459 0 0 0-2.932-.785h-.003a46.598 46.598 0 0 0-2.354-.51c.663.277 1.43.57 2.253.864h.001a56.076 56.076 0 0 0 5.825 1.731z" fill="#369CB7" stroke="#fff" stroke-width=".861"/><g opacity=".2" fill="#fff"><g opacity=".2"><mask id="k"><path d="M107.571 89.926a762.456 762.456 0 0 1-55.084 3.378c-2.729.066-5.762.01-7.74-1.87 1.75-.74 3.714-.757 5.622-.772a298.886 298.886 0 0 0 32.715-2.086c8.485-1.01 17.088-2.381 25.509-.969.365.064.787.174.918.517.246.633-.679 1.037-1.361 1.083-10.927.717-21.854 1.427-32.782 2.144"/></mask><path d="M107.571 89.926a762.456 762.456 0 0 1-55.084 3.378c-2.729.066-5.762.01-7.74-1.87 1.75-.74 3.714-.757 5.622-.772a298.886 298.886 0 0 0 32.715-2.086c8.485-1.01 17.088-2.381 25.509-.969.365.064.787.174.918.517.246.633-.679 1.037-1.361 1.083-10.927.717-21.854 1.427-32.782 2.144"/><path d="M52.487 93.304l.022.86-.022-.86zm-7.74-1.87l-.593.624-.952-.904 1.209-.512.336.792zm5.622-.772l.008.86h-.001l-.007-.86zm32.715-2.086l-.102-.855.102.855zm25.509-.969l.143-.849.004.001-.147.848zm.918.517l-.802.313-.002-.006.804-.307zm-1.361 1.083l.059.859h-.002l-.057-.859zm-.495 1.576a763.337 763.337 0 0 1-55.146 3.382l-.043-1.721a761.571 761.571 0 0 0 55.021-3.375l.168 1.714zm-55.147 3.382c-1.367.033-2.884.039-4.324-.219-1.447-.258-2.878-.793-4.03-1.888l1.186-1.248c.826.786 1.901 1.22 3.147 1.442 1.253.224 2.617.225 3.98.192l.041 1.72zm-8.097-3.523c1.934-.82 4.077-.826 5.952-.84l.013 1.72c-1.943.015-3.73.042-5.294.705l-.671-1.585zm5.95-.84a298.037 298.037 0 0 0 32.621-2.08l.204 1.709a299.735 299.735 0 0 1-32.81 2.092l-.014-1.722zm32.621-2.08c8.426-1.004 17.181-2.402 25.754-.964l-.285 1.698c-8.269-1.387-16.721-.043-25.265.975l-.204-1.71zm25.758-.963c.196.034.488.093.765.222.285.134.637.383.81.837l-1.608.613a.288.288 0 0 0 .068.105c.018.017.024.015 0 .004a.761.761 0 0 0-.123-.041 2.426 2.426 0 0 0-.206-.044l.294-1.696zm1.573 1.053c.149.383.127.778-.043 1.122-.154.314-.402.53-.622.673-.435.283-.987.428-1.439.459l-.117-1.718c.103-.007.224-.028.343-.064a1.09 1.09 0 0 0 .274-.12c.066-.043.046-.049.017.01a.363.363 0 0 0-.035.14c-.002.057.009.1.018.123l1.604-.625zm-2.106 2.254l-16.392 1.072-16.39 1.072-.113-1.718 16.391-1.072c5.464-.357 10.928-.713 16.391-1.072l.113 1.718z" mask="url(#k)"/></g><path opacity=".2" d="M108.014 90.074a.505.505 0 0 0-.011-.151c-.055-.266-.251-.435-.461-.43h-.007c-5.126.032-10.282.422-15.449.877-1.123.099-2.247.2-3.37.303-4.044.366-8.093.733-12.123.959l-1.746.096c.02.03.04.058.065.083.093.097.248.183.501.19h.001c8.138.241 16.471-.493 24.702-1.217 2.237-.197 4.465-.394 6.68-.57m1.218-.14l-1.193.442-.025-.301m1.218-.14c-.434.07-.859.11-1.218.14m1.218-.14l-1.218.14m2.072-.327c.223-.063.437-.138.634-.229.401-.184.684-.41.835-.68.144-.255.203-.607.038-1.128-.142-.45-.487-.792-1.019-1.05-.538-.262-1.233-.42-1.996-.51a20.28 20.28 0 0 0-2.293-.114c-.251 0-.498 0-.733.002-.44.002-.84.005-1.151-.008l5.685 3.717zm0 0a1.492 1.492 0 0 0-.518-.971l.359-.017v-.014c-.028-.446-.318-.731-.626-.898-.3-.163-.67-.248-1.014-.296-.508-.072-1.088-.076-1.434-.078a7.18 7.18 0 0 1-.251-.004h-.002c-1.032-.048-2.091.02-3.132.115-.363.033-.722.069-1.077.104l-.541.054m8.236 2.005l-8.236-2.005m1.767.889c-3.462.16-6.928.436-10.388.74-1.129.1-2.256.202-3.382.304-2.771.251-5.537.502-8.296.707 1.093-.121 2.185-.246 3.277-.37 2.717-.31 5.431-.619 8.142-.887l.879-.043c2.208-.108 4.415-.216 6.614-.36m3.154-.091a125.164 125.164 0 0 1 4.987-.139 3.308 3.308 0 0 0-.437-.089 9.224 9.224 0 0 0-1.233-.067 9.735 9.735 0 0 1-.375-.007c-.234-.011-.47-.016-.708-.015l-.001.01.001-.01h-.114c-.715.008-1.448.06-2.191.127-.346.031-.696.066-1.047.102l-.607.06m1.725.028a54.475 54.475 0 0 0-1.725-.029m1.725.029l-1.725-.029m-1.43.12l-.006-.104c.479-.01.958-.016 1.436-.016m-1.43.12c.47-.03.949-.073 1.43-.12m-1.43.12l-.006-.104 1.436-.016m-.042-.86c-2.724 0-5.447.188-8.14.446-.266.026-.531.051-.796.078l8.936-.524zm-56.217 2.496c-.75.244-1.086 1.33-.419 1.871l.42-1.871zm0 0c.248-.08.498-.155.75-.223l-.75.223zm10.866 3.57a728.41 728.41 0 0 0 17.912-.744c2.089-.11 4.192-.205 6.303-.3-1.373.01-2.743-.004-4.107-.044l.012-.43-.013.43-20.107 1.088zm27.716-6.307c-3.376.438-6.757.877-10.119 1.168l30.305-2.64c-5.032-.205-10.078.234-15.137.836-1.68.2-3.364.418-5.049.636zm-25.771 3.62c4.095-.103 8.186-.281 12.264-.571a201.38 201.38 0 0 0 4.875-.408c.221-.213.519-.37.888-.43l-18.027 1.409z" stroke="#fff" stroke-width=".861"/></g><path d="M39.081 88.145l.238-.11a.253.253 0 0 1 .158-.022c.041.009.096.034.153.11.393.523.883 1.546 1.313 2.823.427 1.267.78 2.745.92 4.157.142 1.422.062 2.729-.336 3.686-.197.473-.466.849-.814 1.118-.346.267-.792.446-1.374.491l-.258-12.253zm0 0l-.207-.16m.207.16l-.207-.16m0 0c-.997-.772-2.157-1.125-3.513-1.075-.298.01-.512.327-.422.591v.002c.227.68.578 1.303.962 1.959l.09.154c.352.6.724 1.233.999 1.925.7 1.747.978 3.63.846 5.497-.022.306-.08.605-.137.876l-.022.105a8.09 8.09 0 0 0-.12.661c-.057.463-.01.823.276 1.153v.001m1.04-11.85l-1.04 11.85m0 0c.353.411.927.609 1.506.564l-1.506-.564z" fill="#369CB7" stroke="#fff" stroke-width=".861"/><path d="M11.461 79.155h-.001a.618.618 0 0 0-.334 1.187h.001l28.847 8.096.182.05.086.17c.688 1.358 2.926 6.444.803 11.704l-.142.352-.367-.097-28.78-7.596a.623.623 0 0 0-.756.438.622.622 0 0 0 .438.759l29.638 7.822.01.003.01.003a.62.62 0 0 0 .697-.327c1.72-3.5 1.595-6.94 1.01-9.558-.584-2.619-1.625-4.389-1.7-4.513a.623.623 0 0 0-.366-.281L11.46 79.154z" fill="#369CB7" stroke="#fff" stroke-width=".861"/><path opacity=".2" d="M80.147 78.255c-3.947.766-8.145.8-12.245.832-1.249.01-2.488.02-3.708.05-4.988.123-9.98.141-14.972.16l-2.247.008-.002-.43m33.174-.62l-.087-.421a.024.024 0 0 0-.005.003l-.003.002.003-.004m.092.42l-.082-.422-.01.002m.092.42c.497-.102.466-.965-.038-1.017-3.991-.473-8.175-.197-12.267.073-1.247.082-2.485.164-3.707.224-5.443.267-10.87.652-16.3 1.038l32.22-.908m0 .17c-3.9.756-8.04.789-12.13.821-1.254.01-2.504.02-3.741.05-4.784.119-9.572.14-14.364.158m30.235-1.03a.175.175 0 0 0 .018-.09.177.177 0 0 0-.019-.079M49.82 78.864l-1.956.138-.883.063.007-.001a.127.127 0 0 0 .06-.04.086.086 0 0 0 .022-.058c0-.009-.004-.03-.026-.054a.126.126 0 0 0-.063-.037h-.007m2.846-.011c4.778-.338 9.551-.665 14.336-.9a222.43 222.43 0 0 0 3.741-.225c4.083-.269 8.21-.541 12.157-.074M49.82 78.864l-.6.002-2.246.008m0 0l33.08-1.209m0 0a.056.056 0 0 0-.005-.007l.006.004.004.002a.041.041 0 0 0 .007.002h-.012z" fill="#fff" stroke="#fff" stroke-width=".861"/></svg>