<svg width="32" height="32" viewBox="0 0 32 32" fill="none" xmlns="http://www.w3.org/2000/svg"><rect width="32" height="32" rx="16" fill="#6DACDE"/><path d="M20.666 12.667h-2V12a2 2 0 0 0-2-2h-1.333a2 2 0 0 0-2 2v.667h-2a2 2 0 0 0-2 2V20a2 2 0 0 0 2 2h9.333a2 2 0 0 0 2-2v-5.333a2 2 0 0 0-2-2zm-6-.667a.667.667 0 0 1 .667-.667h1.333a.667.667 0 0 1 .667.667v.667h-2.667V12zm-4 2.667a.667.667 0 0 1 .667-.667H12a1.333 1.333 0 0 1-1.334 1.333v-.666zm.667 6a.667.667 0 0 1-.667-.667v-.667A1.333 1.333 0 0 1 12 20.667h-.667zm10-.667a.666.666 0 0 1-.667.667H20a1.333 1.333 0 0 1 1.333-1.334V20zm0-2a2.667 2.667 0 0 0-2.667 2.667h-5.333A2.667 2.667 0 0 0 10.666 18v-1.333A2.667 2.667 0 0 0 13.333 14h5.333a2.667 2.667 0 0 0 2.667 2.667V18zm0-2.667A1.333 1.333 0 0 1 20 14h.666a.666.666 0 0 1 .667.667v.666zm-5.333 0a2 2 0 1 0 0 4 2 2 0 0 0 0-4zM16 18a.666.666 0 1 1 0-1.332A.666.666 0 0 1 16 18z" fill="#003274"/></svg>