<svg width="437" height="337" viewBox="0 0 437 337" fill="none" xmlns="http://www.w3.org/2000/svg"><path d="M0 253.506l46.239-.176 46.239-.088 92.478-.176 92.478.176 46.327.088 46.239.176-46.239.264-46.327.088-92.478.088-92.478-.088-46.239-.088L0 253.506z" fill="#263238"/><circle cx="160.5" cy="165.566" r="147.5" stroke="#FFC01E" stroke-opacity=".2" stroke-width="2"/><path d="M267.08 165.565c0 58.864-47.718 106.582-106.581 106.582S53.918 224.429 53.918 165.565c0-58.863 47.718-106.58 106.581-106.58s106.581 47.717 106.581 106.58z" fill="#FEF8EA"/><path d="M266.08 165.565c0 58.311-47.27 105.582-105.581 105.582S54.918 223.876 54.918 165.565c0-58.31 47.27-105.58 105.581-105.58s105.581 47.27 105.581 105.58z" stroke="#AA7D0B" stroke-opacity=".2" stroke-width="2"/><path opacity=".18" d="M264.351 336.336c50.75 1.246 97.144-19.677 123.452-54.312 52.972-69.626 62.748-139.163 27.197-175.757-7.377-7.657-28.53-25.91-59.904-32.498-50.483-10.596-72.436 20.923-114.209 12.82-55.193-10.773-61.059-74.522-98.21-76.481-35.463-1.78-74.214 54.045-79.902 106.754-9.865 91.262 75.636 207.276 187.8 218.673 4.711.445 9.243.712 13.776.801z" fill="#F5F5F5"/><path d="M110.05 10.813L57.816 29.234l11.662 33.104 52.234-18.422-11.662-33.103z" fill="#E7EBFF"/><path d="M110.048 10.79c-1.402 2.772-2.86 5.456-4.29 8.184a1105.595 1105.595 0 0 1-4.419 8.078c-1.562 2.813-3.108 5.553-4.67 8.366-.06.101-.076.174-.136.275-1.367 2.437-2.778 4.903-4.189 7.37l-.224.33-.39-.123c-2.618-1.061-5.251-2.05-7.868-3.112-.073-.016-.174-.076-.275-.136-2.936-1.169-5.944-2.353-8.864-3.595-2.819-1.181-5.682-2.334-8.501-3.516-2.848-1.226-5.667-2.407-8.47-3.661 2.838.92 5.689 1.956 8.511 2.949 2.85 1.036 5.673 2.028 8.552 3.109 3.17 1.144 6.323 2.36 9.476 3.576 2.387.898 4.73 1.824 7.117 2.722 1.275-2.192 2.522-4.428 3.825-6.575 1.74-2.926 3.434-5.824 5.173-8.75a585.161 585.161 0 0 1 4.69-7.755c1.749-2.62 3.292-5.172 4.952-7.735z" fill="#fff"/><path d="M84.745 39.59c-.044.028-.016.072-.016.072-.18.303-.376.678-.556.981-.915 1.586-1.887 3.084-2.903 4.61-1.24 1.858-2.509 3.671-3.778 5.484a219.566 219.566 0 0 1-4.007 5.32 128.043 128.043 0 0 1-4.238 5.157 90.682 90.682 0 0 1 3.519-5.692c1.24-1.858 2.509-3.671 3.777-5.484 1.297-1.77 2.61-3.611 4.008-5.32 1.101-1.394 2.203-2.788 3.376-4.166.297-.316.55-.603.818-.962-.089.057-.044.028 0 0zm36.46 3.319c-2.207-.328-4.412-.844-6.543-1.345-2.132-.5-4.321-1.09-6.437-1.663-2.144-.617-4.289-1.234-6.389-1.88-1.737-.567-3.402-1.118-5.124-1.758-.347-.15-.738-.274-1.085-.425l-.072-.016.072.016c.407.05.842.145 1.205.224a84.61 84.61 0 0 1 5.194 1.089c2.132.5 4.32 1.09 6.436 1.663 2.145.617 4.289 1.234 6.389 1.88a79.995 79.995 0 0 1 6.354 2.215z" fill="#fff"/><path d="M393.196 190.027l-75.818-17.929L306 220.138l75.817 17.929 11.379-48.04z" fill="#E7EBFF"/><path d="M393.21 189.998c-3.767 2.214-7.533 4.28-11.3 6.42a1540.875 1540.875 0 0 1-11.373 6.199c-3.988 2.14-7.902 4.206-11.89 6.346-.148.074-.222.148-.369.222-3.471 1.845-7.016 3.69-10.561 5.534l-.517.222-.369-.443c-2.29-3.247-4.653-6.42-6.942-9.667-.074-.074-.148-.221-.222-.369-2.585-3.616-5.243-7.306-7.754-10.995-2.437-3.542-4.948-7.085-7.385-10.627-2.438-3.616-4.875-7.158-7.238-10.774 2.659 3.247 5.244 6.642 7.828 9.963 2.585 3.394 5.17 6.715 7.755 10.183 2.88 3.764 5.686 7.601 8.493 11.438 2.141 2.878 4.209 5.756 6.351 8.634 3.176-1.623 6.351-3.321 9.527-4.87 4.283-2.14 8.493-4.28 12.776-6.42a815.115 815.115 0 0 1 11.447-5.609c4.062-1.771 7.828-3.616 11.743-5.387z" fill="#fff"/><path d="M341.365 204.83c-.074 0-.074.074-.074.074-.443.221-.96.516-1.403.738-2.289 1.181-4.579 2.214-6.942 3.247-2.88 1.254-5.76 2.435-8.641 3.616a310.857 310.857 0 0 1-8.788 3.247 180.7 180.7 0 0 1-8.936 2.878 127.236 127.236 0 0 1 8.493-4.059c2.88-1.255 5.76-2.435 8.641-3.616 2.88-1.107 5.834-2.288 8.788-3.247 2.363-.812 4.727-1.623 7.164-2.361.59-.148 1.107-.296 1.698-.517-.148 0-.074 0 0 0zm40.618 31.658c-2.363-2.066-4.578-4.354-6.72-6.568-2.142-2.214-4.284-4.575-6.351-6.863-2.068-2.361-4.136-4.722-6.13-7.084-1.625-1.992-3.176-3.911-4.727-5.977-.295-.443-.664-.886-.96-1.328l-.074-.074.074.074c.443.369.887.811 1.256 1.18a119.195 119.195 0 0 1 5.317 5.24c2.142 2.213 4.284 4.575 6.351 6.862 2.068 2.362 4.136 4.723 6.13 7.085a112.293 112.293 0 0 1 5.834 7.453z" fill="#fff"/><path d="M147.786 147.133l-9.275 117.74s-.977 7.135 4.005 7.149c8.188.015 40.719 0 40.719 0s-6.151-1.482-6.082-4.83c.082-3.934 10.843-121.174 10.843-121.174l-40.21 1.115z" fill="#273238"/><path d="M185.878 269.879c-1.61 0-32.697.103-40.665 0-3.467-.044-4.087-3.289-4.114-5.403-.014-1.013.11-1.747.11-1.747l.248-3.053.619-7.796.536-6.885.702-8.852.592-7.473 6.592-83.666 40.21-1.115s-4.528 49.063-7.734 84.766c-.358 3.979-.702 7.796-1.018 11.363-.097 1.131-.207 2.246-.289 3.333-.303 3.376-.564 6.489-.812 9.219-.124 1.439-.234 2.79-.344 4.008-.413 4.815-.647 7.898-.647 8.471 0 .338.028.661.083.954.646 3.758 5.325 3.876 5.931 3.876z" fill="#334C88"/><path d="M50.137 83.066l22.61 96.879 3.096 13.271 10.527 45.129h195.629l-38.82-155.279H50.137z" fill="#334C88"/><path d="M50.138 83.066L47 84.182l35.201 157.525 4.17-3.362L50.138 83.066z" fill="#334C88"/><path d="M82.2 241.708h194.432l5.367-3.362H86.369l-4.169 3.362z" fill="#273238"/><path d="M192.58 269.938h-42.096v2.128h42.096v-2.128zm79.939-60.206l-31.747-124.61H49.822v-2.056H243.18l31.637 126.387-2.298.279z" fill="#4B66A9"/><path opacity=".4" d="M172.309 206.914L86.37 238.345l-10.527-45.128 96.466 13.697z" fill="#273238"/><path d="M50.137 83.066h193.042l31.334 124.787H78.265L50.137 83.066z" fill="#334C88"/><path d="M189.373 223.634c-.564-3.053-3.33-5.534-6.206-5.534-2.862 0-4.748 2.481-4.183 5.534.564 3.054 3.33 5.535 6.206 5.535 2.862 0 4.734-2.481 4.183-5.535z" fill="#273238"/><path d="M265.405 202.45H84.652l-20.477-86.998-1.569-6.665-1.335-5.696-1.073-4.551-2.064-8.794h178.152l.124.485 2.147 8.309 1.17 4.551 1.472 5.696 1.72 6.665 22.486 86.998z" fill="#E9F3FE"/><path d="M265.405 202.744H84.652l-20.477-86.983-1.569-6.68-1.335-5.696-1.073-4.551-2.064-8.78h178.152l.124.485 2.147 8.295 1.17 4.551 1.472 5.696 1.72 6.68 22.486 86.983z" fill="#FAFAFA"/><path d="M238.557 98.54H60.198l-2.064-8.794h178.083l.193.485 2.147 8.309z" fill="#AFCDFB"/><path d="M63.088 94.15c-.22-.925.316-1.673 1.17-1.673.853 0 1.733.748 1.953 1.673.22.925-.316 1.674-1.17 1.674-.852 0-1.733-.764-1.953-1.674zm5.188 0c-.22-.925.317-1.673 1.17-1.673.867 0 1.734.748 1.954 1.673.22.925-.317 1.674-1.17 1.674-.853-.015-1.734-.764-1.954-1.674zm5.602 0c-.22-.925.316-1.673 1.17-1.673.852 0 1.733.748 1.953 1.673.22.925-.316 1.674-1.17 1.674-.866-.015-1.733-.764-1.953-1.674z" fill="#E9F3FE"/><path d="M240.868 133.524l-18.77.074-6.082-24.855 18.77-.073 6.082 24.854z" fill="#fff"/><path d="M230.135 111.93l-7.872.029-.096-.367 7.871-.03.097.368zm1.252 1.027l-9.881.044-.096-.367 9.881-.044.096.367zm2.711 5.064l-12.826.044-.096-.367 12.839-.044.083.367zm.302 1.203l-12.839.059-.082-.367 12.825-.059.096.367zm.302 1.219l-12.839.044-.096-.367 12.839-.044.096.367zm.29 1.205l-12.839.059-.083-.367 12.84-.059.082.367zm.302 1.217l-12.839.044-.097-.367 12.84-.044.096.367zm.718 2.953l-12.84.044-.082-.367 12.839-.044.083.367zm.301 1.203l-12.839.059-.096-.367 12.839-.059.096.367zm.289 1.219l-12.825.044-.096-.367 12.839-.044.082.367zm.304 1.219l-12.839.044-.083-.367 12.826-.044.096.367zm.288 1.203l-12.825.059-.097-.367 12.84-.059.082.367z" fill="#AFB6E5"/><path d="M248.436 164.428l-18.77.073-6.097-24.869 18.784-.073 6.083 24.869z" fill="#fff"/><path d="M237.688 142.832l-7.871.029-.083-.367 7.872-.029.082.367zm1.265 1.014l-9.88.044-.096-.367 9.88-.044.096.367zm2.711 5.064l-12.839.059-.083-.367 12.839-.059.083.367zm.302 1.219l-12.839.044-.097-.367 12.839-.044.097.367zm.289 1.203l-12.839.059-.083-.367 12.839-.059.083.367zm.305 1.219l-12.84.044-.096-.367 12.839-.044.097.367zm.287 1.203l-12.826.058-.096-.367 12.839-.058.083.367zm.731 2.951l-12.839.059-.083-.367 12.826-.059.096.367zm.288 1.219l-12.825.044-.097-.367 12.84-.044.082.367zm.303 1.218l-12.839.044-.083-.367 12.839-.044.083.367zm.305 1.204l-12.84.058-.096-.367 12.839-.058.097.367zm.287 1.218l-12.84.044-.082-.367 12.839-.044.083.367z" fill="#AFB6E5"/><path d="M256.06 195.535l-18.784.074-6.083-24.87 18.771-.073 6.096 24.869z" fill="#fff"/><path d="M245.312 173.94l-7.871.03-.096-.367 7.871-.044.096.381zm1.253 1.013l-9.881.044-.096-.367 9.894-.044.083.367zm2.724 5.064l-12.839.045-.096-.368 12.839-.044.096.367zm.289 1.204l-12.839.058-.083-.367 12.839-.058.083.367zm.302 1.218l-12.839.044-.097-.367 12.839-.044.097.367zm.29 1.219l-12.839.044-.083-.367 12.839-.044.083.367zm.302 1.203l-12.84.059-.096-.367 12.839-.059.097.367zm.717 2.953l-12.825.059-.096-.367 12.839-.059.082.367zm.304 1.219l-12.839.044-.083-.367 12.826-.044.096.367zm.288 1.203l-12.825.059-.097-.367 12.84-.059.082.367zm.303 1.219l-12.839.044-.083-.367 12.839-.044.083.367zm.302 1.203l-12.839.059-.097-.367 12.839-.059.097.367z" fill="#AFB6E5"/><path d="M231.372 195.74l-65.668.265-18.894-77.192 8.559-9.821 54.701-.221 21.302 86.969z" fill="#fff"/><path d="M191.988 121.823l-23.133.088-.275-1.087 23.146-.088.262 1.087zm3.7 2.995l-29.063.117-.262-1.071 29.05-.118.275 1.072zm7.981 14.886l-37.733.146-.261-1.086 37.733-.147.261 1.087zm.88 3.553l-37.747.162-.261-1.087 37.733-.146.275 1.071zm.868 3.567l-37.734.146-.275-1.071 37.747-.147.262 1.072zm.867 3.567l-37.733.147-.262-1.087 37.733-.146.262 1.086zm.881 3.568l-37.747.147-.262-1.086 37.747-.147.262 1.086zm2.122 8.662l-37.734.161-.261-1.086 37.733-.147.262 1.072zm.866 3.568l-37.733.147-.262-1.072 37.733-.147.262 1.072zm.881 3.567l-37.733.147-.276-1.086 37.747-.147.262 1.086zm.867 3.567l-37.733.147-.262-1.087 37.733-.147.262 1.087zm.88 3.568l-37.747.147-.262-1.087 37.734-.146.275 1.086z" fill="#AFB6E5"/><path d="M146.81 118.814l10.953-.044-2.394-9.778-8.559 9.822z" fill="#fff"/><path d="M223.706 283.618h74.353v-26.345h-74.582c-5.799 0-10.507 4.724-10.507 10.542v5.031c0 5.952 4.823 10.772 10.736 10.772z" fill="#FCECDB"/><path d="M149.525 268.122v3.956c0 2.112.575 4.109 1.57 5.799a11.484 11.484 0 0 0 9.952 5.741h139.288c.919 0 1.665-.749 1.665-1.671v-.595c0-.922-.746-1.67-1.665-1.67h-84.917a9.471 9.471 0 0 1-1.186-1.805 10.639 10.639 0 0 1-1.244-5.031v-5.031c0-.922.115-1.824.344-2.688a10.368 10.368 0 0 1 1.972-3.917h85.031c.919 0 1.665-.749 1.665-1.671v-.595c0-.922-.746-1.671-1.665-1.671H160.338c-4.937 0-9.09 3.322-10.392 7.854-.268.96-.421 1.958-.421 2.995z" fill="#AFB6E5"/><path d="M149.946 265.127h63.367a10.38 10.38 0 0 1 1.971-3.917h85.051c.919 0 1.665-.749 1.665-1.671v-.595c0-.922-.746-1.671-1.665-1.671H160.338c-4.937 0-9.109 3.322-10.392 7.854z" fill="#9BA3DE"/><path d="M298.059 270.445l-10.316.442 10.316.269v-.711zm0 4.149l-24.536.441 24.536.269v-.71z" fill="#F4D2B8"/><path d="M280.315 304.068h-79.137v-20.507h79.788c5.454 0 9.894 4.435 9.894 9.927 0 5.837-4.727 10.58-10.545 10.58z" fill="#2B478B"/><path d="M205.734 304.068H115.67v-20.507h90.294c5.55 0 10.048 4.512 10.048 10.08v.077c0 5.722-4.593 10.35-10.278 10.35z" fill="#FCECDB"/><path d="M222.02 304.068H112.53a1.538 1.538 0 0 1-1.531-1.536c0-.845.689-1.536 1.531-1.536h109.49c.842 0 1.531.691 1.531 1.536 0 .845-.689 1.536-1.531 1.536zm0-17.435H112.53a1.538 1.538 0 0 1-1.531-1.536c0-.845.689-1.536 1.531-1.536h109.49c.842 0 1.531.691 1.531 1.536 0 .845-.689 1.536-1.531 1.536z" fill="#2B478B"/><path d="M115.667 293.814l12.153.346-12.153.211v-.557zm0-4.724l28.937.345-28.937.212v-.557z" fill="#F4D2B8"/><path d="M144.3 289.377s-1.244.883-1.646 2.323c-.077.25-.115.519-.134.807-.077 1.92 0 6.279 0 6.279l-3.655-2.17-3.656 2.17v-5.895c0-1.114.306-2.208.9-2.919.287-.345.631-.595 1.014-.595h7.177z" fill="#699DEE"/><path d="M144.3 289.379s-1.244.883-1.646 2.323l-7.33.077s.287-2.074 1.799-2.42h7.177v.02z" fill="#568CDB"/><path d="M214.943 257.331h-80.86v-30.089h81.128c6.468 0 11.731 5.261 11.731 11.771v6.298c-.019 6.644-5.377 12.02-11.999 12.02z" fill="#FCECDB"/><path d="M225.027 238.917v6.471c-.019 2.765-1.55 5.165-3.789 6.451a7.476 7.476 0 0 1-3.732.999H129.7a1.861 1.861 0 0 0-1.857 1.862v.768c0 1.037.842 1.863 1.857 1.863h151.69c4.344 0 8.191-2.17 10.526-5.492 1.473-2.093 2.315-4.646 2.315-7.392v-5.108c0-1.882-.421-3.667-1.205-5.261-1.952-4.052-6.086-6.836-10.871-6.836H129.681a1.862 1.862 0 0 0-1.857 1.863v.768a1.86 1.86 0 0 0 1.857 1.862h88.093c2.105 0 4.019.903 5.34 2.343a7.216 7.216 0 0 1 1.913 4.839z" fill="#5793DB"/><path d="M134.083 242.277l11.253.519-11.253.307v-.826zm-.002-6.912l26.774.499-26.774.308v-.807z" fill="#F4D2B8"/><path d="M160.59 235.768s-1.761.96-2.354 2.515a3.32 3.32 0 0 0-.192.883c-.095 2.093 0 6.798 0 6.798l-5.224-2.362-5.206 2.362v-6.395c0-1.209.44-2.381 1.282-3.149.402-.364.881-.652 1.436-.652h10.258z" fill="#FFB800"/><path d="M160.59 235.768s-1.761.96-2.354 2.515l-10.45.096s.402-2.247 2.565-2.611h10.239z" fill="#F8B300"/><path d="M213.541 216.067c-4.631 8.084-10.449 11.194-10.449 11.194h-24.21c-.019.02 38.181-17.358 34.659-11.194z" fill="#233862"/><path d="M194.939 278.605c-.632.73-.708 1.536-.402 2.4v.02c.574 1.593 2.488 3.398 4.708 5.184.287.23.536.442.747.634.057.057.114.096.172.153.038.039.095.077.134.116 2.067 1.92 1.282 2.342 4.995 6.221 4.229 4.416 7.158 4.493 7.98 4.09.709-.346-.727-2.688-2.296-5.319-.077-.134-.153-.25-.23-.384-.21-.346-.421-.711-.631-1.056-1.857-3.168-1.378-4.666-.938-9.371.364-3.84 5.952-21.428 5.952-21.428l-8.115-1.402s-2.449 13.998-5.129 16.168c-1.435 1.152-3.043 1.171-4.44 2.016a2.393 2.393 0 0 0-.287.192c-.785.499-1.588 1.037-2.22 1.766z" fill="#FFB27D"/><path d="M194.94 278.607c-.632.729-.708 1.536-.402 2.4v.019c.708 1.594 2.564 3.38 4.708 5.165.287.231.536.442.746.653.058.058.115.096.172.154.039.038.096.077.134.115 2.067 1.92 1.283 2.343 4.996 6.221 4.229 4.417 7.157 4.493 7.98 4.09.708-.345-.727-2.688-2.296-5.319-.823-.307-4.651-1.862-7.541-5.587-2.545-3.265-4.249-7.451-5.99-9.889-.096.058-.192.115-.287.192-.785.518-1.589 1.056-2.22 1.786z" fill="#233862"/><path d="M260.356 273.517c.497 2.515 4.076 2.093 8.057 1.114 3.981-.98 3.043.192 8.727-.442s7.387-2.746 7.579-3.61c.153-.749-2.641-1.018-5.665-1.363-.383-.039-.766-.096-1.129-.135-3.388-.422-5.876-2.63-8.976-4.435-2.929-1.709-7.292-8.679-7.292-8.679l-7.789.614s4.076 6.222 5.665 8.929c.937 1.594.88 3.706.765 5.319-.057.902-.115 1.805.058 2.688z" fill="#FFB27D"/><path d="M268.43 274.632c3.981-.98 3.043.192 8.727-.442s7.388-2.746 7.579-3.61c.153-.749-2.641-1.018-5.665-1.363l-.019.057s-3.407 2.42-8.134 2.535c-3.846.096-7.923-1.018-10.583-.979-.058.883-.115 1.785.057 2.669.479 2.534 4.038 2.112 8.038 1.133zm-37.912-51.058l-7.273 19.643-9.493 25.653s-2.583.25-5.052-.461c-2.278-.652-4.88-2.381-4.88-2.381s2.641-27.554 7.559-43.357c1.263-4.051 2.68-7.335 4.23-9.197 7.636-9.044 14.909 10.1 14.909 10.1z" fill="#233862"/><path d="M223.131 192.373c-4.766-1.537-18.373.441-32.019 3.129l-2.851-4.723-29.511-2.304s-9.742 21.659-4.402 35.465c.784 2.035 2.335 3.322 4.995 3.379h.44s17.569-.019 23.272-.019c14.679 0 31.062-10.119 33.167-10.542 3.464-.691 4.861 6.26 8.325 13.576 3.464 7.316 32.612 32.354 32.612 32.354s4.478.039 6.334-.652c1.991-.749 2.718-1.729 2.718-1.729s-32.325-64.459-43.08-67.934z" fill="#2B478B"/><path d="M188.069 149.975c-10.507 5.799-31.827 17.838-31.942 17.761 0 0-7.828 2.957-12.287 0-7.407-4.934-11.387-18.222 2.163-29.647 6.755-5.703 11.559-7.085 12.286-16.187.421-4.934 7.139-21.237 18.316-19.739.937.135 6.679.403 10.468 2.381 9.646 5.089 16.746 43.184.996 45.431z" fill="#233862"/><path d="M179.267 145.04c.038.038-5.168 1.824-8.651.268-3.272-1.459-5.76-6.874-5.722-6.874 1.493-.076 3.139-1.382 4.402-9.965l.631.23 10.679 3.86s-.765 3.437-1.282 6.72c-.421 2.746-.651 5.377-.057 5.761z" fill="#FFB27D"/><path d="M180.606 132.559s-.765 3.437-1.282 6.72c-6.143-1.113-8.555-7.239-9.416-10.58l10.698 3.86z" fill="#ED975D"/><path d="M182.192 135.978S167.57 134 168.929 124.899c1.359-9.121.402-15.515 9.779-14.632 9.397.864 10.68 4.628 10.967 7.777.287 3.129-3.656 18.203-7.483 17.934z" fill="#FFB27D"/><path d="M176.624 122.181l-.101-.016c-.086-.118-.171-.237-.037-.424.555-.851 1.5-1.535 2.551-1.575.102.016.289.151.273.253-.016.101-.151.289-.253.272a2.705 2.705 0 0 0-2.094 1.336c-.135.187-.237.17-.339.154zm10.617-2.37l-.102-.016c-.766-.436-1.683-.583-2.461-.29-.118.085-.322.052-.391-.168-.085-.118-.053-.322.167-.391.999-.362 2.135-.284 2.987.271.085.118.171.236.154.338-.134.187-.253.273-.354.256z" fill="#233561"/><path d="M179.059 123.932c.122.541.464 1.014.803.86.321-.053.607-.53.501-1.173-.122-.542-.464-1.015-.802-.861-.338.155-.623.632-.502 1.174zm6.335-1.073c.122.542.464 1.015.803.86.321-.052.607-.529.501-1.173-.122-.542-.464-1.014-.802-.86-.338.155-.624.631-.502 1.173z" fill="#233862"/><path d="M185.762 121.873l1.251-.635s-.502 1.173-1.251.635zm-6.316.971l1.251-.635c-.016.102-.518 1.275-1.251.635z" fill="#233862"/><path d="M179.219 131.373c-.391-.167-.68-.318-.953-.57-.102-.017-.069-.22-.053-.322.017-.102.22-.069.22-.069 1.414.958 3.161 1.134 4.803.666.119-.085.204.033.29.151.085.118-.033.204-.151.289-1.337.517-2.779.39-4.156-.145z" fill="#86522F"/><path d="M189.141 113.031s-9.359 8.083-15.732 8.736c-6.373.653-8.785-1.401-8.785-1.401s3.771-3.13 6.029-8.161c.67-1.498 2.067-2.515 3.694-2.65 4.555-.403 13.167-.576 14.794 3.476z" fill="#233862"/><path d="M183.302 112.301s3.139 3.034 4.115 5.3c.957 2.169 1.244 7.373.479 9.447 0 0 4.88-9.524 2.124-14.133-2.947-4.934-6.718-.614-6.718-.614z" fill="#233862"/><path d="M191.57 166.661c-.441 29.686-.115 23.484-3.35 26.306-.784.672-2.966 1.076-5.856 1.268-9.071.595-25.033-.903-25.626-2.573-2.086-5.819-.612-7.623-2.354-16.552a86.24 86.24 0 0 0-.67-3.092c-1.454-6.125-2.871-8.199 2.297-18.049 4.689-8.91 9.55-16.149 9.99-15.88 12.363 7.354 13.358 1.172 13.358 1.172s12.421 12.903 12.211 27.4z" fill="#91BDF1"/><path d="M223.245 243.217l-9.492 25.654s-2.584.249-5.053-.461c-2.277-.653-4.88-2.381-4.88-2.381s2.641-27.554 7.559-43.357l11.866 20.545z" fill="#2B478B"/><path d="M179.323 139.26s12.727 2.17 14.22 7.661l10.277 37.789s-6.468 1.171-9.454-1.824c-2.986-2.996-10.392-27.804-10.392-27.804l-4.651-15.822z" fill="#91BDF1"/><path d="M182.346 194.235c-9.072.595-25.033-.903-25.626-2.573-2.087-5.818-.613-7.623-2.354-16.552l4.363-12.366s-.727 13.768 3.33 17.397c4.038 3.629 16.574 6.989 18.545 10.023.938 1.44 1.569 2.899 1.742 4.071z" fill="#83AFE3"/><path d="M171.953 188.436s8.957-1.997 10.392-1.209c1.436.806 4.976 3.706 5.416 4.704.44 1.018-3.215-.768-4.402-1.094-.765-.212-2.794.499-3.808.845-4.23 1.42-6.813.691-6.813.691l-.785-3.937z" fill="#FFB27D"/><path d="M165.963 138.09s-12.018.749-16.191 6.567c-5.856 8.199-17.473 43.126-10.813 47.792 7.503 5.242 34.143 1.364 34.143 1.364s.88-4.148-.344-6.164c-1.225-2.016-21.282-5.261-22.201-6.183-.918-.922 11.56-18.088 11.56-20.872 0-2.784 3.846-22.504 3.846-22.504z" fill="#91BDF1"/><path d="M182.785 189.742s1.875 2.42 2.488 2.727c.612.288 1.014.211 1.014.211l-1.263-2.285-2.239-.653zm-.439-2.496l5.455 2.65s-.23.384-.9.346c-.67-.039-2.373-.653-2.373-.653l-2.182-2.343z" fill="#FFB27D"/><path d="M185.273 196.175h43.137l12.995-32.374h-43.08l-13.052 32.374z" fill="#FFB800"/><path d="M228.927 194.908h-56.975v1.267h56.458l.517-1.267z" fill="#F8B300"/><path d="M217.521 179.988c.325-1.133-.326-2.054-1.474-2.054-1.129 0-2.316.921-2.641 2.054-.325 1.133.325 2.055 1.474 2.055 1.148 0 2.315-.922 2.641-2.055z" fill="#fff"/></svg>