<svg width="70" height="70" viewBox="0 0 70 70" fill="none" xmlns="http://www.w3.org/2000/svg"><g clip-path="url(#a)"><ellipse cx="35" cy="34.417" rx="33.833" ry="33.25" fill="#fff"/><path d="M35 68.833c-19.33 0-35-15.408-35-34.416C0 15.409 15.67 0 35 0s35 15.409 35 34.417c0 19.008-15.67 34.416-35 34.416zm0-1.706c18.371 0 33.264-14.645 33.264-32.71 0-18.066-14.892-32.71-33.264-32.71-18.372 0-33.264 14.644-33.264 32.71 0 18.065 14.892 32.71 33.264 32.71z" fill="#055D77"/><path d="M60.641 42.691h-.215c.56-.753.816-1.61.72-2.498-.213-1.994-2.205-3.987-4.018-5.413l.015-.035a1.518 1.518 0 0 0-.326-1.65 11.171 11.171 0 0 0-1.15-1.014.798.798 0 0 0-1.104.128.756.756 0 0 0 .13 1.079c.362.278.695.571.994.877-.063.152-.144.34-.238.557-.718 1.64-2.583 5.617-4.747 7.97h-2.593c.377-.91.8-2.465 1.273-5.233.4-2.328.706-4.782.894-6.436.505.17 1.091.39 1.706.67a.8.8 0 0 0 .33.07.788.788 0 0 0 .714-.445.76.76 0 0 0-.383-1.02 20.251 20.251 0 0 0-2.225-.849 1.536 1.536 0 0 0-.898-1.255c-1.115-.51-3.554-1.368-7.38-1.375-1.285.003-2.412.1-3.386.25v-2.418c0-2.005-1.67-3.636-3.721-3.636h-3.636v-2.747a.777.777 0 0 0-.786-.768H19.448a.777.777 0 0 0-.786.768c0 .424.352.768.786.768h10.377v12.218a12.305 12.305 0 0 0-2.361 1.842 1.518 1.518 0 0 0-.325 1.649l.015.036c-1.64 1.289-3.424 3.041-3.909 4.838H13.63a.467.467 0 0 1-.471-.46V19.035h2.882a.777.777 0 0 0 .787-.768.777.777 0 0 0-.787-.768h-3.668a.777.777 0 0 0-.786.768v20.89c0 .979.724 1.794 1.677 1.963v1.57H11.69c-1.3 0-2.358 1.034-2.358 2.304 0 1.27 1.058 2.304 2.358 2.304h.734v.256c0 1.44 1.199 2.612 2.673 2.612h42.137c1.474 0 2.673-1.172 2.673-2.612V47.3h.733c1.3 0 2.359-1.033 2.359-2.304 0-1.27-1.058-2.304-2.359-2.304zm-4.161-6.443c1.867 1.53 2.985 3 3.103 4.105.09.853-.431 1.696-1.437 2.338h-5.412c1.565-2.022 2.888-4.586 3.746-6.443zm-7.628-6.663l-.036.342c-.162 1.511-.504 4.46-.976 7.228-.78 4.566-1.379 5.408-1.5 5.536h-8.399c-.123-.131-.722-.979-1.5-5.536-.472-2.768-.814-5.717-.975-7.229l-.006-.059v-.005l-.03-.277c.802-.368 3.062-1.223 6.71-1.23 3.65.007 5.91.862 6.712 1.23zM31.416 22.55h3.616c1.185 0 2.149.942 2.149 2.1v2.727c-.616.15-1.14.314-1.572.471V25.06a.986.986 0 0 0-.996-.973h-3.197v-1.536zm2.62 3.073v3.25c-.056.106-.1.218-.13.334h-2.509v-3.584h2.64zm-3.065 6.745a.686.686 0 0 0 .08-.046l.01-.005a17.202 17.202 0 0 1 2.945-1.296c.188 1.654.495 4.11.894 6.437.474 2.768.896 4.323 1.273 5.232h-2.59c-2.171-2.356-4.034-6.33-4.75-7.968a14.936 14.936 0 0 1-.235-.563c.707-.718 1.534-1.309 2.373-1.791zm-3.17 3.88c.857 1.855 2.179 4.418 3.748 6.442h-5.453c-.947-.618-1.456-1.432-1.403-2.261l.006-.077c.118-1.105 1.236-2.574 3.103-4.105zm-12.965 4.906h8.334c.097.541.327 1.06.674 1.536h-9.008v-1.536zm45.805 4.608H19.41a.777.777 0 0 0-.787.768c0 .424.352.768.787.768h38.926v.256a1.09 1.09 0 0 1-1.1 1.076H15.098a1.09 1.09 0 0 1-1.1-1.076V47.3h2.043a.777.777 0 0 0 .787-.768.777.777 0 0 0-.787-.768h-4.35a.778.778 0 0 1-.786-.768c0-.423.353-.768.786-.768h48.95c.434 0 .786.345.786.768a.778.778 0 0 1-.786.768z" fill="#055D77"/></g><defs><clipPath id="a"><path fill="#fff" d="M0 0h70v68.833H0z"/></clipPath></defs></svg>