<svg width="20" height="20" viewBox="0 0 20 20" fill="none" xmlns="http://www.w3.org/2000/svg"><path d="M17.402 14.263a.8.8 0 0 1 1.06-.284l.31.167a.8.8 0 0 1 .304 1.123 9.985 9.985 0 0 1-1.585 1.97.801.801 0 0 1-1.163-.056l-.23-.268a.8.8 0 0 1 .052-1.096c.48-.464.9-.987 1.252-1.556zm-6.261 3.785a8.18 8.18 0 0 0 1.962-.387.8.8 0 0 1 .993.464l.131.328a.801.801 0 0 1-.491 1.056 10.07 10.07 0 0 1-2.533.49.8.8 0 0 1-.8-.79l-.004-.354a.8.8 0 0 1 .742-.807zm-6.355-1.369a.8.8 0 0 1 1.088-.14 8.03 8.03 0 0 0 1.749.963.8.8 0 0 1 .464.995l-.11.335a.8.8 0 0 1-1.055.494 9.969 9.969 0 0 1-2.214-1.22.8.8 0 0 1-.147-1.154l.225-.273zM1.531 11.45l.347-.064a.8.8 0 0 1 .924.595c.162.656.405 1.287.724 1.877a.8.8 0 0 1-.282 1.06l-.3.187a.801.801 0 0 1-1.126-.299 9.937 9.937 0 0 1-.917-2.38.8.8 0 0 1 .63-.976zm.435-2.334h-.359a.8.8 0 0 1-.779-.989A9.986 9.986 0 0 1 9.034.129a9.974 9.974 0 0 1 5.593.707l.624-.624a.52.52 0 0 1 .864.213l1.291 4.117a.52.52 0 0 1-.652.652l-4.117-1.29a.52.52 0 0 1-.212-.865l.694-.695a7.908 7.908 0 0 0-2.491-.398A7.979 7.979 0 0 0 4.37 4.962a8.034 8.034 0 0 0-1.618 3.503.8.8 0 0 1-.786.651z" fill="#fff"/></svg>