<svg width="40" height="40" viewBox="0 0 40 40" fill="none" xmlns="http://www.w3.org/2000/svg"><path d="M38 0H9.333a2.002 2.002 0 0 0-2 2v.667h-.666a2.002 2.002 0 0 0-2 2v.021C2.252 4.828 0 5.73 0 7.333c0 .883.682 1.552 1.698 2C.682 9.781 0 10.451 0 11.333c0 .883.682 1.553 1.698 2-1.016.448-1.698 1.118-1.698 2 0 .883.682 1.553 1.698 2-1.016.448-1.698 1.118-1.698 2 0 .883.682 1.553 1.698 2-1.016.448-1.698 1.118-1.698 2 0 .883.682 1.553 1.698 2-1.016.448-1.698 1.118-1.698 2 0 .883.682 1.553 1.698 2-1.016.448-1.698 1.118-1.698 2 0 .883.682 1.553 1.698 2-1.016.448-1.698 1.118-1.698 2 0 1.604 2.252 2.505 4.667 2.645V38a2.002 2.002 0 0 0 2 2h28.666a2.002 2.002 0 0 0 2-2v-.667H38a2.002 2.002 0 0 0 2-2V2a2.002 2.002 0 0 0-2-2zM4.667 36.638c-2.08-.137-3.334-.879-3.334-1.305 0-.425 1.255-1.167 3.334-1.304v2.609zm0-4c-2.08-.137-3.334-.879-3.334-1.305 0-.425 1.255-1.167 3.334-1.304v2.609zm0-4c-2.08-.137-3.334-.879-3.334-1.305 0-.425 1.255-1.167 3.334-1.304v2.609zm0-4c-2.08-.137-3.334-.879-3.334-1.305 0-.425 1.255-1.167 3.334-1.304v2.609zm0-4c-2.08-.137-3.334-.879-3.334-1.305 0-.425 1.255-1.167 3.334-1.304v2.609zm0-4c-2.08-.137-3.334-.879-3.334-1.305 0-.425 1.255-1.167 3.334-1.304v2.609zm0-4c-2.08-.137-3.334-.879-3.334-1.305 0-.425 1.255-1.167 3.334-1.304v2.609zm0-4c-2.08-.137-3.334-.879-3.334-1.305 0-.426 1.255-1.167 3.334-1.304v2.609zM36 38a.667.667 0 0 1-.667.667H6.667A.667.667 0 0 1 6 38v-.022c2.415-.14 4.667-1.041 4.667-2.645a.667.667 0 1 0-1.334 0c0 .426-1.254 1.168-3.333 1.305v-2.66c2.415-.14 4.667-1.041 4.667-2.645a.667.667 0 1 0-1.334 0c0 .426-1.254 1.168-3.333 1.305v-2.66c2.415-.14 4.667-1.041 4.667-2.645a.667.667 0 1 0-1.334 0c0 .426-1.254 1.168-3.333 1.305v-2.66c2.415-.14 4.667-1.04 4.667-2.644a.667.667 0 1 0-1.334 0c0 .425-1.254 1.167-3.333 1.304v-2.66c2.415-.14 4.667-1.04 4.667-2.644a.667.667 0 1 0-1.334 0c0 .425-1.254 1.167-3.333 1.304v-2.66c2.415-.14 4.667-1.04 4.667-2.644a.667.667 0 1 0-1.334 0c0 .425-1.254 1.167-3.333 1.304v-2.66c2.415-.14 4.667-1.04 4.667-2.644a.667.667 0 1 0-1.334 0c0 .425-1.254 1.167-3.333 1.304v-2.66c2.415-.14 4.667-1.04 4.667-2.644a.667.667 0 1 0-1.334 0C9.333 7.759 8.08 8.5 6 8.638V4.667C6 4.299 6.299 4 6.667 4H36v34zm2.667-2.667A.667.667 0 0 1 38 36h-.667V3.333a.667.667 0 0 0-.666-.666h-28V2c0-.368.298-.666.666-.667H38c.368 0 .666.299.667.667v33.333zM16 26.667a1.335 1.335 0 0 1-1.333-1.334V6.667c0-.736.597-1.333 1.333-1.334h17.333a1.336 1.336 0 0 1 1.334 1.334v18.666a1.336 1.336 0 0 1-1.334 1.334H16zm0-20v11.278l3.665-3.745a.688.688 0 0 1 .953 0l3.626 3.705 2.944-3.036a.687.687 0 0 1 .957 0l5.19 5.347-.002-13.55H16zm0 13.184v5.482h17.334v-3.202l-5.667-5.84-2.49 2.567 1.966 2.009a.667.667 0 1 1-.953.933l-6.049-6.18L16 19.85zm13.333-6.518a2.667 2.667 0 1 1 0-5.333 2.667 2.667 0 0 1 0 5.333zm0-4a1.333 1.333 0 1 0 0 2.667 1.333 1.333 0 0 0 0-2.667zm4 19.334a.667.667 0 0 1 0 1.333H16a.667.667 0 0 1 0-1.333h17.333zm0 2.666a.667.667 0 1 1 0 1.334H16a.667.667 0 1 1 0-1.334h17.333zm0 2.667a.667.667 0 1 1 0 1.333H16A.667.667 0 1 1 16 34h17.333z" fill="#369CB7"/></svg>