<svg width="32" height="32" viewBox="0 0 32 32" fill="none" xmlns="http://www.w3.org/2000/svg"><path d="M4.858 11.928v.011c0 .358.184.598.43.598.354 0 .591-.184.594-.427.492-5.58 5.063-9.684 10.783-9.684 5.223 0 9.961 4.267 10.453 9.684a.435.435 0 0 0 .133.293.43.43 0 0 0 .297.133.289.289 0 0 0 .187-.078.65.65 0 0 0 .126-.157.785.785 0 0 0 .117-.362v-.008c-.5-6.02-5.49-10.534-11.478-10.534-5.988 0-10.977 4.515-11.642 10.531z" fill="#369CB7" stroke="#369CB7" stroke-width=".2"/><path d="M22.2 1.734l.01.01.013.007c3.597 1.971 6.052 5.752 6.544 9.863a.436.436 0 0 0 .132.292.43.43 0 0 0 .298.133h.073v-.002c.316-.024.522-.201.522-.43v-.01c-.5-4.674-3.157-8.515-7.143-10.685L22.627.9h-.029c-.081 0-.213 0-.326.023a.455.455 0 0 0-.168.065.218.218 0 0 0-.093.134.3.3 0 0 0-.07.156.316.316 0 0 0 .035.18 1.142 1.142 0 0 0 .225.276zM10.399.9h-.026l-.022.012C6.369 3.08 3.714 7.08 3.21 11.58c-.082.173-.096.337-.003.46.09.122.255.165.43.165.115 0 .22-.057.308-.124.088-.066.174-.153.255-.234l.003-.003.026-.026.003-.037c.326-4.267 2.771-7.878 6.524-9.854a.289.289 0 0 0 .158-.08.47.47 0 0 0 .113-.168c.049-.123.058-.296-.064-.418l-.003-.003a2.525 2.525 0 0 0-.255-.234A.524.524 0 0 0 10.4.9zm9.234 1.095s.165 0 .165.165c1.649 2.155 2.803 5.801 2.968 9.78l-3.133-9.945zm0 0a10.645 10.645 0 0 0-6.43 0h6.43zm0 0v-.1h.018m-.018.1l.03-.096-.012-.004m0 0a10.744 10.744 0 0 0-6.479.004l-.023.007-.018.018-.165.166-.008.01c-1.665 2.175-2.823 5.844-2.989 9.67v.004c0 .357.185.597.43.597.356 0 .593-.185.595-.43M19.65 1.896a.298.298 0 0 1 .11.03.245.245 0 0 1 .135.199m-8.902 9.818L19.877 2.1l.019.024m-8.902 9.818c.164-3.621 1.143-7.062 2.76-9.03 1.779-.482 3.875-.482 5.654-.001 1.456 1.97 2.434 5.413 2.598 9.196.001.115.057.22.133.296a.43.43 0 0 0 .297.133c.245 0 .43-.24.43-.597v-.004c-.165-3.976-1.315-7.632-2.97-9.811m-8.902 9.818l8.902-9.818" fill="#369CB7" stroke="#369CB7" stroke-width=".2"/><path d="M12.966 2.09l-.008.01c-1.666 2.176-2.824 5.845-2.824 9.84 0 .357.184.597.43.597.244 0 .429-.239.43-.595.163-3.619 1.142-7.06 2.597-9.031 1.779-.48 3.874-.48 5.652 0 1.457 1.97 2.435 5.25 2.598 8.867l.002.039.027.027.003.003c.08.08.167.168.255.234a.523.523 0 0 0 .308.124h.042l.029-.03.003-.002c.08-.081.167-.168.233-.257a.528.528 0 0 0 .123-.308v-.009c-.33-3.805-1.316-7.297-2.97-9.475a.245.245 0 0 0-.136-.198.301.301 0 0 0-.11-.03 10.744 10.744 0 0 0-6.478.003l-.023.007-.018.018-.165.166z" fill="#369CB7" stroke="#369CB7" stroke-width=".2"/><path d="M16.07 12.105c0 .115.057.222.133.298a.43.43 0 0 0 .297.134.43.43 0 0 0 .298-.134.433.433 0 0 0 .132-.298V1.995a.433.433 0 0 0-.132-.299.43.43 0 0 0-.298-.133.43.43 0 0 0-.297.133.433.433 0 0 0-.133.299v10.11z" fill="#369CB7" stroke="#369CB7" stroke-width=".2"/><path d="M5.521 9.742a.316.316 0 0 0-.002.02c-.325.819-.493 1.485-.496 2.154-.08.171-.093.333-.001.456.09.121.255.164.43.164a.43.43 0 0 0 .298-.133.437.437 0 0 0 .132-.285c.044-.18.076-.355.109-.532.09-.488.18-.98.527-1.568 2.122-1.631 6.045-2.62 10.147-2.62 4.27 0 8.201 1.156 10.322 2.793a.45.45 0 0 0 .314.15.45.45 0 0 0 .318-.155.457.457 0 0 0 .153-.319.457.457 0 0 0-.153-.319l-.009-.008c-2.333-1.842-6.48-3.005-10.945-3.005-4.449 0-8.583 1.155-10.92 2.986a.245.245 0 0 0-.197.136.304.304 0 0 0-.027.085zm10.755 19.35l.027.019h.197v-.097.097h.008c.004 0 .008 0 .012-.002a.37.37 0 0 0 .138-.057.796.796 0 0 0 .25-.305l1.133-.814c.97-.65 2.268-.977 3.405-.977h8.575a.43.43 0 0 0 .297-.133.433.433 0 0 0 .133-.298V13.43a.433.433 0 0 0-.133-.299.43.43 0 0 0-.297-.133h-8.575c-1.5 0-2.84.336-4.015 1.18l-.005.003-.767.617-.928-.622-.003-.002c-1.335-.84-2.673-1.176-4.01-1.176H3.143a.43.43 0 0 0-.297.133.433.433 0 0 0-.133.299v13.425c0 .115.057.222.133.299a.43.43 0 0 0 .297.133h8.575c1.3 0 2.435.326 3.405.976l1.153.828zm-.71-1.656l-.003-.001c-1.335-.84-2.673-1.176-4.01-1.176h-7.98v-12.23h7.98c1.3 0 2.435.326 3.406.976l1.146.823a.45.45 0 0 0 .312.148.448.448 0 0 0 .31-.146l1.31-.823.002-.001c.97-.65 2.27-.978 3.407-.978h7.98V26.26h-7.98c-1.499 0-2.84.335-4.014 1.178l-.932.625-.934-.626z" fill="#369CB7" stroke="#369CB7" stroke-width=".2"/><path d="M16.282 31.085l.024.015h.194V31v.1h.015a.294.294 0 0 0 .112-.031.245.245 0 0 0 .132-.173l1.11-.638.009-.005c1.132-.814 2.594-1.142 3.899-1.142h9.563a.43.43 0 0 0 .298-.133.433.433 0 0 0 .132-.298v-6.3a.433.433 0 0 0-.132-.298.43.43 0 0 0-.298-.133.43.43 0 0 0-.297.133.433.433 0 0 0-.132.298v5.867h-9.134c-1.507 0-3.009.505-4.34 1.341l-.006.004-1.096.787-1.096-.787-.005-.004c-1.332-.836-2.834-1.34-4.34-1.34H1.76V22.38a.433.433 0 0 0-.133-.298.43.43 0 0 0-.297-.133.43.43 0 0 0-.298.133.433.433 0 0 0-.132.298v6.299c0 .115.056.222.132.298a.43.43 0 0 0 .298.133h9.729c1.468 0 2.765.328 3.899 1.142l.005.003 1.319.829z" fill="#369CB7" stroke="#369CB7" stroke-width=".2"/><path d="M16.07 28.68c0 .115.057.222.133.298a.43.43 0 0 0 .297.133.43.43 0 0 0 .298-.133.433.433 0 0 0 .132-.299v-6.96a.433.433 0 0 0-.132-.3.43.43 0 0 0-.298-.132.43.43 0 0 0-.297.133.433.433 0 0 0-.133.298v6.962zm0-9.614c0 .116.057.223.133.299a.43.43 0 0 0 .297.133.43.43 0 0 0 .298-.133.433.433 0 0 0 .132-.299V15.42a.433.433 0 0 0-.132-.299.43.43 0 0 0-.298-.133.43.43 0 0 0-.297.133.433.433 0 0 0-.133.299v3.646zM5.288 16.68h6.1c.358 0 .595-.186.595-.431a.433.433 0 0 0-.132-.299.43.43 0 0 0-.298-.133H5.288a.43.43 0 0 0-.298.133.433.433 0 0 0-.132.299c0 .115.056.222.132.298a.43.43 0 0 0 .298.133zm0 2.486h6.1c.358 0 .595-.186.595-.431a.433.433 0 0 0-.132-.299.43.43 0 0 0-.298-.133H5.288a.43.43 0 0 0-.298.133.433.433 0 0 0-.132.299c0 .115.056.222.132.298a.43.43 0 0 0 .298.133zm6.595 2.054l.09.045.01-.02v-.024a.433.433 0 0 0-.132-.299.43.43 0 0 0-.298-.133H5.288a.43.43 0 0 0-.298.133.433.433 0 0 0-.132.299c0 .115.056.222.132.298a.43.43 0 0 0 .298.133h6.1a.621.621 0 0 0 .443-.195.86.86 0 0 0 .132-.172l.007-.014.002-.004v-.001l-.089-.045zm-6.595 2.753h6.1c.358 0 .595-.186.595-.431a.433.433 0 0 0-.132-.299.43.43 0 0 0-.298-.133H5.288a.43.43 0 0 0-.298.133.433.433 0 0 0-.132.299c0 .115.056.222.132.298a.43.43 0 0 0 .298.133zm16.159-7.293h6.266c.106 0 .25-.05.349-.123a.31.31 0 0 0 .119-.16.213.213 0 0 0-.04-.188.445.445 0 0 0-.13-.259.43.43 0 0 0-.298-.133h-6.266a.43.43 0 0 0-.298.133.433.433 0 0 0-.132.299c0 .115.056.222.132.298a.43.43 0 0 0 .298.133zm0 2.486h6.266a.43.43 0 0 0 .298-.133.433.433 0 0 0 .132-.298.433.433 0 0 0-.132-.299.43.43 0 0 0-.298-.133h-6.266a.43.43 0 0 0-.298.133.433.433 0 0 0-.132.299c0 .115.056.222.132.298a.43.43 0 0 0 .298.133zm0 2.486h6.266a.4.4 0 0 0 .196-.066.882.882 0 0 0 .163-.129.435.435 0 0 0 .107-.153.14.14 0 0 0-.015-.127.125.125 0 0 0-.029-.029.455.455 0 0 0-.124-.226.43.43 0 0 0-.298-.133h-6.266a.43.43 0 0 0-.298.133.433.433 0 0 0-.132.299c0 .115.056.222.132.298a.43.43 0 0 0 .298.133zm0 2.321h6.266c.106 0 .25-.05.349-.124a.31.31 0 0 0 .119-.16.213.213 0 0 0-.04-.187.445.445 0 0 0-.13-.259.43.43 0 0 0-.298-.133h-6.266a.43.43 0 0 0-.298.133.433.433 0 0 0-.132.299c0 .115.056.222.132.298a.43.43 0 0 0 .298.133z" fill="#369CB7" stroke="#369CB7" stroke-width=".2"/></svg>