<svg width="543" height="814" viewBox="0 0 543 814" fill="none" xmlns="http://www.w3.org/2000/svg"><path fill-rule="evenodd" clip-rule="evenodd" d="M436.5 522.763c79.674 0 144.263-64.589 144.263-144.263S516.174 234.237 436.5 234.237 292.237 298.826 292.237 378.5 356.826 522.763 436.5 522.763zm0 149.237C598.596 672 730 540.596 730 378.5S598.596 85 436.5 85 143 216.404 143 378.5 274.404 672 436.5 672z" fill="#fff" opacity=".8" filter="url(#a)"/><path d="M549.085 466.561c-48.431 63.264-138.536 75.628-201.255 27.614-62.719-48.013-74.302-138.222-25.871-201.487" stroke="url(#b)"/><defs><filter id="a" x=".73" y=".71" width="813" height="813" filterUnits="userSpaceOnUse" color-interpolation-filters="sRGB"><feFlood flood-opacity="0" result="BackgroundImageFix"/><feColorMatrix in="SourceAlpha" values="0 0 0 0 0 0 0 0 0 0 0 0 0 0 0 0 0 0 127 0" result="hardAlpha"/><feOffset dx="-1.281" dy="1.256"/><feGaussianBlur stdDeviation="3.266"/><feColorMatrix values="0 0 0 0 0 0 0 0 0 0 0 0 0 0 0 0 0 0 0.013 0"/><feBlend in2="BackgroundImageFix" result="effect1_dropShadow"/><feColorMatrix in="SourceAlpha" values="0 0 0 0 0 0 0 0 0 0 0 0 0 0 0 0 0 0 127 0" result="hardAlpha"/><feOffset dx="-5.854" dy="5.742"/><feGaussianBlur stdDeviation="9.181"/><feColorMatrix values="0 0 0 0 0 0 0 0 0 0 0 0 0 0 0 0 0 0 0.02 0"/><feBlend in2="effect1_dropShadow" result="effect2_dropShadow"/><feColorMatrix in="SourceAlpha" values="0 0 0 0 0 0 0 0 0 0 0 0 0 0 0 0 0 0 127 0" result="hardAlpha"/><feOffset dx="-14.818" dy="14.534"/><feGaussianBlur stdDeviation="24.631"/><feColorMatrix values="0 0 0 0 0 0 0 0 0 0 0 0 0 0 0 0 0 0 0.027 0"/><feBlend in2="effect2_dropShadow" result="effect3_dropShadow"/><feColorMatrix in="SourceAlpha" values="0 0 0 0 0 0 0 0 0 0 0 0 0 0 0 0 0 0 127 0" result="hardAlpha"/><feOffset dx="-29.27" dy="28.71"/><feGaussianBlur stdDeviation="56.5"/><feColorMatrix values="0 0 0 0 0 0 0 0 0 0 0 0 0 0 0 0 0 0 0.03 0"/><feBlend in2="effect3_dropShadow" result="effect4_dropShadow"/><feBlend in="SourceGraphic" in2="effect4_dropShadow" result="shape"/></filter><linearGradient id="b" x1="234.921" y1="407.74" x2="436.528" y2="562.077" gradientUnits="userSpaceOnUse"><stop stop-color="#7211D2"/><stop stop-color="#8000FF"/><stop offset="0" stop-color="#8000FF"/><stop offset=".206" stop-color="#431DD9"/><stop offset=".394" stop-color="#2B9AD9"/><stop offset=".556" stop-color="#3FD283"/><stop offset=".71" stop-color="#EAC400"/><stop offset=".91" stop-color="#EA1C00"/></linearGradient></defs></svg>