<svg width="431" height="43" viewBox="0 0 431 43" fill="none" xmlns="http://www.w3.org/2000/svg"><path d="M.5 1h14.25c4.867 0 8.45 1.067 10.75 3.2 2.333 2.1 3.5 5.017 3.5 8.75 0 3.733-1.167 6.667-3.5 8.8-2.3 2.1-5.883 3.15-10.75 3.15H9.5V36h-9V1zm13.25 16.5c2.3 0 3.917-.383 4.85-1.15.933-.767 1.4-1.9 1.4-3.4s-.467-2.633-1.4-3.4c-.933-.767-2.55-1.15-4.85-1.15H9.5v9.1h4.25zm36.575 11.8h-11.7l-2.4 6.7h-8.5l12.75-35h9l12.75 35h-9.5l-2.4-6.7zm-9.15-6.9h6.6l-3.3-10.4-3.3 10.4zm23.567 6.2h4c.433-1.133.783-2.433 1.05-3.9.3-1.5.534-3.083.7-4.75.167-1.7.283-3.433.35-5.2.1-1.8.15-3.55.15-5.25V1h25.7v27.6h3.55v13.9h-7.8V36h-19.9v6.5h-7.8V28.6zm22.95 0V8.4h-8.3v2.1c0 4.067-.166 7.583-.5 10.55-.3 2.933-.8 5.45-1.5 7.55h10.3zm23.324 8.05c-.367 0-.734-.017-1.1-.05a6.281 6.281 0 0 1-.9-.15V29l.8.1c.266.033.583.05.95.05.733 0 1.333-.033 1.8-.1.466-.1.85-.25 1.15-.45.3-.2.55-.467.75-.8.2-.333.383-.75.55-1.25l-14-25.55h9.1l9.3 17.75 7.3-17.75h8.8l-11.7 26.5c-.767 1.7-1.517 3.133-2.25 4.3-.734 1.133-1.584 2.067-2.55 2.8-.967.733-2.1 1.25-3.4 1.55-1.267.333-2.8.5-4.6.5zM139.514 1h23.5v7.4h-14.5V36h-9V1zm43.33 28.3h-11.7l-2.4 6.7h-8.5l12.75-35h9l12.75 35h-9.5l-2.4-6.7zm-9.15-6.9h6.6l-3.3-10.4-3.3 10.4zm62.021 14.25c-2.4 0-4.6-.317-6.6-.95-2-.667-3.717-1.717-5.15-3.15-1.4-1.433-2.5-3.283-3.3-5.55-.8-2.267-1.2-5.033-1.2-8.3v-.95c0-3.067.417-5.7 1.25-7.9s1.983-4 3.45-5.4a13.757 13.757 0 0 1 5.15-3.1c2-.667 4.133-1 6.4-1 2.033 0 3.933.233 5.7.7 1.8.467 3.367 1.2 4.7 2.2 1.367 1 2.467 2.3 3.3 3.9.867 1.6 1.383 3.55 1.55 5.85h-9.3c-.167-.933-.433-1.717-.8-2.35-.367-.667-.817-1.2-1.35-1.6a4.58 4.58 0 0 0-1.8-.9 6.6 6.6 0 0 0-2-.3c-1 0-1.933.183-2.8.55-.833.333-1.567.9-2.2 1.7-.6.767-1.083 1.783-1.45 3.05-.333 1.267-.5 2.8-.5 4.6v1.05c0 1.933.183 3.567.55 4.9.4 1.3.917 2.367 1.55 3.2.633.8 1.367 1.383 2.2 1.75a7.07 7.07 0 0 0 2.65.5c1.7 0 3.05-.4 4.05-1.2 1.033-.833 1.667-2.15 1.9-3.95h9.3c-.133 2.333-.617 4.3-1.45 5.9-.8 1.6-1.883 2.9-3.25 3.9-1.333 1-2.9 1.733-4.7 2.2-1.8.433-3.75.65-5.85.65zM256.213 1h9v21l13.75-21h8.25v35h-9V15l-13.75 21h-8.25V1zm37.988 0h25.75v7.4h-16.75v5.2h5.75c2.434 0 4.534.267 6.3.8 1.8.5 3.284 1.233 4.45 2.2 1.2.933 2.084 2.083 2.65 3.45.567 1.333.85 2.833.85 4.5 0 3.6-1.166 6.417-3.5 8.45-2.3 2-5.883 3-10.75 3h-14.75V1zm13.75 27.6c2.167 0 3.7-.35 4.6-1.05.9-.733 1.35-1.733 1.35-3s-.45-2.25-1.35-2.95c-.9-.733-2.433-1.1-4.6-1.1h-4.75v8.1h4.75zM328.186 1h9v21l13.75-21h8.25v35h-9V15l-13.75 21h-8.25V1zm37.988 0h14.25c4.866 0 8.45 1.067 10.75 3.2 2.333 2.1 3.5 5.017 3.5 8.75 0 3.733-1.167 6.667-3.5 8.8-2.3 2.1-5.884 3.15-10.75 3.15h-5.25V36h-9V1zm13.25 16.5c2.3 0 3.916-.383 4.85-1.15.933-.767 1.4-1.9 1.4-3.4s-.467-2.633-1.4-3.4c-.934-.767-2.55-1.15-4.85-1.15h-4.25v9.1h4.25zM399.67 1h9v21l13.75-21h8.25v35h-9V15l-13.75 21h-8.25V1z" fill="url(#a)"/><defs><linearGradient id="a" x1="-2.99" y1="17.001" x2="499.984" y2="17.001" gradientUnits="userSpaceOnUse"><stop offset=".003" stop-color="#2CB0CF"/><stop offset=".196" stop-color="#4D5ECA"/><stop offset=".477" stop-color="#B43CC8"/><stop offset=".67" stop-color="#EF4B5E"/><stop offset=".92" stop-color="#FF6841"/></linearGradient></defs></svg>