<svg width="18" height="18" viewBox="0 0 18 18" fill="none" xmlns="http://www.w3.org/2000/svg"><path d="M9 0C6.558 0 6.25.01 5.29.054 4.332.098 3.678.25 3.105.473A4.407 4.407 0 0 0 1.511 1.51c-.5.5-.808 1.003-1.039 1.594C.25 3.677.097 4.331.054 5.29.011 6.249 0 6.556 0 9s.01 2.75.054 3.71c.044.958.196 1.612.419 2.185a4.41 4.41 0 0 0 1.038 1.594c.5.5 1.002.809 1.593 1.039.573.222 1.227.374 2.185.418.96.043 1.267.054 3.71.054 2.445 0 2.751-.01 3.711-.054.958-.044 1.613-.196 2.185-.418a4.402 4.402 0 0 0 1.594-1.04c.5-.5.808-1.002 1.038-1.593.222-.573.374-1.227.419-2.185.043-.96.054-1.266.054-3.71s-.011-2.75-.054-3.711c-.045-.958-.197-1.612-.419-2.184A4.416 4.416 0 0 0 16.49 1.51c-.5-.5-1.002-.808-1.594-1.037C14.322.25 13.668.098 12.71.054 11.749.011 11.443 0 8.998 0h.003zm-.807 1.622h.808c2.403 0 2.688.009 3.637.052.877.04 1.353.186 1.67.31.42.163.72.358 1.035.673.315.315.51.615.673 1.035.124.317.27.793.31 1.67.043.95.053 1.234.053 3.636s-.01 2.687-.053 3.636c-.04.877-.186 1.354-.31 1.67-.163.42-.358.72-.673 1.034-.315.315-.614.51-1.034.673-.317.124-.794.27-1.671.31-.95.044-1.234.053-3.637.053s-2.688-.01-3.637-.052c-.877-.041-1.354-.188-1.671-.31a2.789 2.789 0 0 1-1.035-.674 2.79 2.79 0 0 1-.674-1.034c-.123-.317-.27-.793-.31-1.671-.043-.949-.051-1.234-.051-3.637 0-2.404.008-2.687.051-3.636.04-.877.187-1.354.31-1.67a2.8 2.8 0 0 1 .674-1.036c.315-.315.615-.51 1.035-.673.317-.124.794-.27 1.671-.31.83-.038 1.152-.05 2.83-.051v.002zm5.612 1.494a1.08 1.08 0 1 0 0 2.16 1.08 1.08 0 0 0 0-2.16zM9.001 4.378a4.622 4.622 0 1 0 0 9.244 4.622 4.622 0 0 0 0-9.244zM9 6a3 3 0 1 1 0 6 3 3 0 0 1 0-6z" fill="#000"/></svg>