<svg width="329" height="281" viewBox="0 0 329 281" fill="none" xmlns="http://www.w3.org/2000/svg"><path d="M328.8 280.279c0 .105-73.613.195-164.392.195-90.81 0-164.408-.09-164.408-.195 0-.105 73.598-.195 164.408-.195 90.779 0 164.392.09 164.392.195z" fill="#263238"/><path d="M204.393 126.929h-58.251l-11.128 16.515-10.857-16.515H66.939a6.626 6.626 0 0 1-6.624-6.624V6.814A6.626 6.626 0 0 1 66.939.19h137.447a6.626 6.626 0 0 1 6.624 6.624v113.491a6.615 6.615 0 0 1-6.617 6.624z" fill="#FAFAFA"/><path d="M204.393 126.935s.12-.015.367-.03c.24-.007.599-.052 1.071-.149a6.606 6.606 0 0 0 3.56-2.159 6.436 6.436 0 0 0 1.393-2.75c.083-.277.098-.569.15-.861.008-.3.038-.6.03-.922 0-.629 0-1.289-.007-1.971-.008-2.735-.008-5.889-.015-9.433-.015-14.207-.038-34.746-.06-60.133L210.859 7c.045-1.829-.704-3.672-2.083-4.923a6.546 6.546 0 0 0-2.383-1.401c-.891-.315-1.821-.338-2.795-.315-3.859 0-7.778 0-11.749.007-7.95 0-16.133.008-24.525.008-16.785 0-34.401.007-52.669.015H67.163c-.307-.008-.585.022-.877.037-.285.053-.584.068-.862.158a6.487 6.487 0 0 0-3.02 1.693c-.816.84-1.43 1.888-1.693 3.035-.277 1.019-.165 2.12-.187 3.214v47.934c0 16.597-.008 32.678-.008 48.099v14.252c.015.936-.06 1.873.128 2.757a6.451 6.451 0 0 0 3.035 4.279 6.467 6.467 0 0 0 2.51.862c.876.089 1.806.037 2.712.052h5.41c3.582 0 7.119 0 10.61.008 13.945.007 27.081.014 39.265.022h.082l.045.067c3.792 5.77 7.411 11.285 10.843 16.523h-.225c3.964-5.875 7.681-11.375 11.142-16.5l.038-.053h.06c18.425.023 32.985.045 42.943.053 4.976.015 8.797.022 11.382.03 1.289.007 2.263.015 2.93.015.629 0 .967.007.967.007s-.338.008-.989.015c-.66 0-1.641.008-2.93.015-2.585.008-6.414.015-11.382.03-9.959.015-24.518.03-42.944.053l.098-.053c-3.455 5.133-7.156 10.641-11.113 16.523l-.112.165-.112-.173c-3.447-5.23-7.067-10.737-10.866-16.507l.12.067-39.264.023c-3.484 0-7.02 0-10.61.007h-5.41c-.914-.015-1.806.045-2.75-.052a6.745 6.745 0 0 1-2.653-.907c-1.626-.959-2.84-2.63-3.2-4.518-.194-.952-.112-1.904-.134-2.825v-14.252c0-15.414-.008-31.494-.008-48.099V6.887c.008-.554.053-1.124.195-1.67.285-1.214.93-2.33 1.798-3.215.885-.87 1.994-1.514 3.208-1.799.3-.09.607-.112.914-.164.307-.015.622-.045.921-.038h47.492c18.261.008 35.885.008 52.669.015 8.393 0 16.575.008 24.526.008 3.978 0 7.89 0 11.749.007.951-.022 1.971.008 2.9.337a6.87 6.87 0 0 1 4.158 3.83c.375.891.532 1.858.525 2.81l-.023 41.526c-.022 25.387-.045 45.934-.059 60.133-.008 3.552-.015 6.699-.015 9.434 0 .682 0 1.341-.008 1.971.008.314-.022.629-.037.929-.053.299-.075.599-.158.876a6.49 6.49 0 0 1-1.431 2.773 6.614 6.614 0 0 1-3.612 2.143c-.472.09-.831.135-1.079.135-.254.007-.374.007-.374.007z" fill="#263238"/><path d="M118.867 69.978c0 1.468-1.102 2.383-2.863 2.383h-1.326v1.82h-1.536v-6.594h2.855c1.768-.007 2.87.907 2.87 2.39zm-1.544 0c0-.727-.472-1.147-1.401-1.147h-1.244v2.293h1.244c.929-.007 1.401-.434 1.401-1.146zm6.961 1.319v2.893h-1.379v-.63c-.269.465-.801.705-1.543.705-1.184 0-1.896-.66-1.896-1.537 0-.891.629-1.513 2.181-1.513h1.169c0-.63-.375-.997-1.169-.997-.54 0-1.094.18-1.462.472l-.524-1.026c.554-.397 1.379-.615 2.188-.615 1.543-.007 2.435.712 2.435 2.248zm-1.468 1.29v-.518h-1.012c-.689 0-.907.255-.907.592 0 .367.315.614.832.614.495 0 .914-.232 1.087-.689zm2.309 1.126l.487-1.057c.45.292 1.139.487 1.761.487.682 0 .937-.18.937-.465 0-.831-3.065.023-3.065-2.008 0-.959.869-1.64 2.345-1.64.697 0 1.469.157 1.948.441l-.487 1.05a2.887 2.887 0 0 0-1.461-.375c-.659 0-.944.21-.944.472 0 .87 3.065.03 3.065 2.023 0 .944-.877 1.611-2.391 1.611-.854.008-1.723-.232-2.195-.54zm5.005 0l.487-1.057c.449.292 1.139.487 1.761.487.681 0 .936-.18.936-.465 0-.831-3.064.023-3.064-2.008 0-.959.869-1.64 2.345-1.64.697 0 1.469.157 1.948.441l-.487 1.05a2.89 2.89 0 0 0-1.461-.375c-.66 0-.944.21-.944.472 0 .87 3.064.03 3.064 2.023 0 .944-.876 1.611-2.39 1.611-.854.008-1.723-.232-2.195-.54zm13.54-4.605l-1.835 5.073h-1.417l-1.139-3.147-1.176 3.147h-1.416l-1.829-5.073h1.387l1.199 3.432 1.243-3.432h1.244l1.207 3.432 1.236-3.432h1.296zm.172 2.532c0-1.528 1.176-2.607 2.787-2.607s2.78 1.086 2.78 2.607c0 1.529-1.169 2.608-2.78 2.608-1.611.007-2.787-1.08-2.787-2.608zm4.084 0c0-.876-.555-1.4-1.289-1.4-.735 0-1.304.524-1.304 1.4 0 .877.562 1.402 1.304 1.402.727.007 1.289-.525 1.289-1.402zm5.616-2.607v1.356c-.12-.007-.217-.022-.33-.022-.809 0-1.348.442-1.348 1.416v2.39h-1.469V69.1h1.401v.667c.36-.48.967-.734 1.746-.734zm5.995-1.848v6.99h-1.401v-.584c-.367.442-.906.66-1.581.66-1.431 0-2.533-1.02-2.533-2.608 0-1.596 1.102-2.608 2.533-2.608.622 0 1.147.195 1.521.615v-2.458h1.461v-.007zm-1.438 4.458c0-.877-.562-1.401-1.289-1.401-.734 0-1.304.524-1.304 1.401s.562 1.401 1.304 1.401c.719.008 1.289-.524 1.289-1.401z" fill="#263238"/><path d="M98.725 110.134H89.17a4.108 4.108 0 0 1-4.107-4.107V89.662a4.108 4.108 0 0 1 4.107-4.106h9.553a4.108 4.108 0 0 1 4.107 4.106v16.365a4.114 4.114 0 0 1-4.106 4.107zm41.904-.002h-9.074a4.108 4.108 0 0 1-4.106-4.106V89.66a4.108 4.108 0 0 1 4.106-4.106h9.074a4.107 4.107 0 0 1 4.106 4.106v16.366a4.102 4.102 0 0 1-4.106 4.106zm-20.767 0h-9.074a4.108 4.108 0 0 1-4.106-4.106V89.66a4.108 4.108 0 0 1 4.106-4.106h9.074a4.108 4.108 0 0 1 4.107 4.106v16.366a4.114 4.114 0 0 1-4.107 4.106zm41.927 0h-9.561a4.108 4.108 0 0 1-4.107-4.106V89.66a4.108 4.108 0 0 1 4.107-4.106h9.561a4.107 4.107 0 0 1 4.106 4.106v16.366a4.103 4.103 0 0 1-4.106 4.106zm20.379 0h-9.561a4.108 4.108 0 0 1-4.107-4.106V89.66a4.108 4.108 0 0 1 4.107-4.106h9.561a4.107 4.107 0 0 1 4.106 4.106v16.366a4.112 4.112 0 0 1-4.106 4.106z" fill="#EBEBEB"/><path d="M96.236 97.197l1.903 1.027-.855 1.43-1.918-1.13.038 2.105h-1.641l.015-2.128-1.919 1.154-.839-1.431 1.904-1.027-1.904-1.049.84-1.431 1.918 1.154-.015-2.128h1.64l-.037 2.128 1.918-1.154.855 1.431-1.903 1.049zm20.699-.119l1.903 1.026-.854 1.432-1.918-1.132.037 2.106h-1.641l.015-2.128-1.918 1.154-.839-1.432 1.903-1.026-1.903-1.05.839-1.43 1.918 1.154-.015-2.128h1.641l-.037 2.128 1.918-1.154.854 1.43-1.903 1.05zm21.197 0l1.896 1.026-.854 1.432-1.919-1.132.038 2.106h-1.641l.015-2.128-1.918 1.154-.84-1.432 1.896-1.026-1.896-1.05.84-1.43 1.918 1.154-.015-2.128h1.641l-.038 2.128 1.919-1.154.854 1.43-1.896 1.05zm20.538 0l1.895 1.026-.854 1.432-1.918-1.132.037 2.106h-1.641l.015-2.128-1.918 1.154-.839-1.432 1.896-1.026-1.896-1.05.839-1.43 1.918 1.154-.015-2.128h1.641l-.037 2.128 1.918-1.154.854 1.43-1.895 1.05z" fill="#195EFB"/><path d="M98.537 110.289H89.35a4.29 4.29 0 0 1-4.285-4.286V89.698a4.29 4.29 0 0 1 4.285-4.286h9.187a4.29 4.29 0 0 1 4.286 4.286v16.305a4.29 4.29 0 0 1-4.286 4.286zM89.35 85.712a3.981 3.981 0 0 0-3.978 3.979v16.305a3.982 3.982 0 0 0 3.978 3.979h9.187a3.982 3.982 0 0 0 3.979-3.979V89.691a3.981 3.981 0 0 0-3.979-3.98H89.35zm30.528 24.577h-9.187a4.29 4.29 0 0 1-4.286-4.286V89.698a4.29 4.29 0 0 1 4.286-4.286h9.187a4.29 4.29 0 0 1 4.286 4.286v16.305c-.008 2.361-1.926 4.286-4.286 4.286zm-9.194-24.577a3.981 3.981 0 0 0-3.979 3.979v16.305a3.982 3.982 0 0 0 3.979 3.979h9.186a3.982 3.982 0 0 0 3.979-3.979V89.691a3.981 3.981 0 0 0-3.979-3.98h-9.186zm29.944 24.577h-9.187a4.29 4.29 0 0 1-4.286-4.286V89.698a4.29 4.29 0 0 1 4.286-4.286h9.187a4.29 4.29 0 0 1 4.286 4.286v16.305c-.008 2.361-1.926 4.286-4.286 4.286zm-9.194-24.577a3.981 3.981 0 0 0-3.979 3.979v16.305a3.982 3.982 0 0 0 3.979 3.979h9.186a3.982 3.982 0 0 0 3.979-3.979V89.691a3.981 3.981 0 0 0-3.979-3.98h-9.186zm30.179 24.577h-9.186a4.29 4.29 0 0 1-4.286-4.286V89.698a4.29 4.29 0 0 1 4.286-4.286h9.186a4.29 4.29 0 0 1 4.286 4.286v16.305a4.294 4.294 0 0 1-4.286 4.286zm-9.186-24.577a3.981 3.981 0 0 0-3.979 3.979v16.305a3.982 3.982 0 0 0 3.979 3.979h9.186a3.982 3.982 0 0 0 3.979-3.979V89.691a3.981 3.981 0 0 0-3.979-3.98h-9.186zm29.557 24.577h-9.186a4.29 4.29 0 0 1-4.286-4.286V89.698a4.29 4.29 0 0 1 4.286-4.286h9.186a4.29 4.29 0 0 1 4.287 4.286v16.305a4.295 4.295 0 0 1-4.287 4.286zm-9.186-24.577a3.981 3.981 0 0 0-3.979 3.979v16.305a3.982 3.982 0 0 0 3.979 3.979h9.186a3.982 3.982 0 0 0 3.979-3.979V89.691a3.981 3.981 0 0 0-3.979-3.98h-9.186z" fill="#263238"/><path d="M182.311 103.771c0 .104-2.203.194-4.923.194s-4.923-.09-4.923-.194c0-.105 2.203-.195 4.923-.195s4.923.09 4.923.195zm-45.833-43.68c10.963 0 19.849-8.886 19.849-19.849 0-10.962-8.886-19.85-19.849-19.85-10.962 0-19.849 8.887-19.849 19.85 0 10.963 8.887 19.85 19.849 19.85z" fill="#195EFB"/><path d="M132.986 36.64h-.33v-1.85a3.88 3.88 0 0 1 3.874-3.874 3.879 3.879 0 0 1 3.874 3.874v1.506h-.329V34.79a3.547 3.547 0 0 0-3.545-3.544 3.547 3.547 0 0 0-3.544 3.544v1.85z" fill="#fff"/><path d="M141.402 49.583h-9.839a1.637 1.637 0 0 1-1.633-1.634v-9.838c0-.9.734-1.634 1.633-1.634h9.839c.899 0 1.633.734 1.633 1.634v9.846c0 .891-.734 1.626-1.633 1.626zm-9.839-12.776c-.719 0-1.303.584-1.303 1.304v9.846c0 .719.584 1.303 1.303 1.303h9.839c.719 0 1.304-.584 1.304-1.303V38.11c0-.72-.585-1.304-1.304-1.304h-9.839z" fill="#fff"/><path d="M136.536 43.354a1.542 1.542 0 1 1 0-3.087 1.54 1.54 0 0 1 1.543 1.543 1.55 1.55 0 0 1-1.543 1.544zm0-2.765c-.667 0-1.214.547-1.214 1.214 0 .667.547 1.214 1.214 1.214.667 0 1.214-.547 1.214-1.214 0-.667-.547-1.214-1.214-1.214z" fill="#fff"/><path d="M136.645 43.114h-.33V45.9h.33v-2.787z" fill="#fff"/><path d="M203.704 12.776a6.129 6.129 0 1 0-11.971-2.636 6.129 6.129 0 0 0 11.971 2.636z" fill="#E0E0E0"/><path d="M195.725 13.623a.192.192 0 0 1-.135-.052.181.181 0 0 1 0-.263l3.971-3.971a.182.182 0 0 1 .263 0c.074.075.074.195 0 .262l-3.972 3.972a.174.174 0 0 1-.127.052z" fill="#fff"/><path d="M199.688 13.623a.193.193 0 0 1-.135-.052l-3.971-3.972a.18.18 0 0 1 0-.262c.075-.075.195-.075.262 0l3.972 3.971a.181.181 0 0 1 0 .263c-.03.037-.075.052-.128.052z" fill="#fff"/><path d="M40.063 242.696s-19.797-22.786-27.268-45.573c-7.47-22.787-3.919-20.172-3.919-20.172s10.086 22.135 17.744 32.828c7.658 10.693 21.296 26.383 21.296 26.383l-7.853 6.534z" fill="#455A64"/><path d="M44.005 180.503c-.637-1.109-2.338-.532-2.15.734 1.206 8.003 3.813 26.788 3.716 38.972-.135 15.825.008 21.94.008 21.94h8.242s-1.461-32.715-3.327-42.689c-1.304-6.991-4.076-14.754-6.49-18.957z" fill="#455A64"/><path d="M48.499 239.492s5.185-10.902 6.781-24.6c.682-5.822-.532-13.697-2.33-24.202-.87-5.088-1.072-8.962-1.042-11.645.023-2.031 2.698-2.69 3.694-.922.997 1.776 3.875 7.838 4.601 11.637 1.993 10.371 4.257 15.556 2.525 25.402-1.73 9.839-8.115 25.005-8.115 25.005l-6.114-.675zm7.421.669s21.737-46.713 23.243-53.644c1.506-6.931 6.632-22.899 7.231-21.992.6.907 1.506 9.344-2.413 18.98-3.919 9.644-20.643 58.08-20.643 58.08h-7.426" fill="#455A64"/><path d="M46.115 238.059c-.007.015-.217-.134-.607-.419-.382-.292-.974-.705-1.686-1.289-1.446-1.139-3.476-2.862-5.844-5.155-4.743-4.556-10.648-11.585-15.773-20.239-5.126-8.655-8.572-17.122-10.76-23.319a147.393 147.393 0 0 1-2.406-7.403c-.262-.877-.45-1.574-.577-2.038-.127-.465-.187-.712-.165-.72.015-.007.105.233.255.69.165.502.382 1.169.66 2.008a215.78 215.78 0 0 0 2.547 7.351c2.256 6.159 5.747 14.574 10.858 23.191 5.095 8.625 10.932 15.646 15.6 20.246a88.945 88.945 0 0 0 5.725 5.253c.697.6 1.26 1.034 1.626 1.349.367.315.555.479.547.494zm2.389-22.411c-.03 0-.097-.488-.194-1.372a787.4 787.4 0 0 1-.398-3.746 254.182 254.182 0 0 0-1.648-12.304 246.02 246.02 0 0 0-2.293-12.206c-.322-1.492-.592-2.728-.794-3.68-.188-.869-.277-1.356-.248-1.363.03-.008.18.464.42 1.318.247.855.562 2.106.937 3.65.75 3.094 1.656 7.403 2.428 12.206a166.049 166.049 0 0 1 1.52 12.349 92.74 92.74 0 0 1 .255 3.761c.038.892.045 1.387.015 1.387zm5.083-37.899c.015-.007.105.203.255.592l.652 1.739c.284.749.622 1.678.929 2.78.322 1.094.742 2.33 1.056 3.739l.54 2.195c.18.764.315 1.574.48 2.405.352 1.656.576 3.455.839 5.343a86.12 86.12 0 0 1 .517 12.379 88.251 88.251 0 0 1-1.402 12.311c-.397 1.866-.749 3.642-1.22 5.275-.226.817-.413 1.611-.653 2.361-.24.749-.472 1.468-.697 2.15-.412 1.379-.921 2.585-1.319 3.657a31.198 31.198 0 0 1-1.131 2.705c-.322.697-.577 1.259-.772 1.686-.18.382-.285.577-.3.577-.014-.008.06-.218.21-.615.173-.434.405-1.004.69-1.716.314-.741.682-1.648 1.056-2.727.375-1.079.862-2.286 1.252-3.664.21-.69.434-1.402.659-2.151.225-.749.405-1.543.622-2.36.457-1.626.787-3.395 1.169-5.253a91.17 91.17 0 0 0 1.364-12.251 91.1 91.1 0 0 0-.48-12.311c-.247-1.881-.457-3.672-.794-5.328-.158-.832-.278-1.634-.45-2.398-.172-.764-.344-1.491-.51-2.195-.292-1.409-.689-2.646-.989-3.747a39.29 39.29 0 0 0-.854-2.795c-.232-.727-.427-1.319-.57-1.761-.104-.404-.164-.622-.149-.622zm32.557-12.289c.007 0 0 .075-.015.21-.023.165-.06.367-.098.607-.097.532-.217 1.319-.427 2.323a93.067 93.067 0 0 1-2.203 8.407c-1.079 3.507-2.57 7.621-4.331 12.147-1.753 4.526-3.791 9.449-5.725 14.694-1.963 5.238-3.47 10.348-4.885 14.986-1.409 4.639-2.743 8.805-4.032 12.244-1.273 3.447-2.502 6.159-3.431 7.988-.443.929-.847 1.618-1.102 2.09-.12.218-.225.39-.307.532-.068.12-.113.18-.12.173-.008-.008.022-.068.075-.195.075-.15.157-.33.262-.555.232-.487.607-1.191 1.027-2.128.876-1.85 2.053-4.57 3.29-8.025 1.243-3.447 2.547-7.613 3.926-12.259 1.393-4.638 2.9-9.771 4.863-15.023 1.933-5.261 3.986-10.184 5.762-14.694 1.783-4.504 3.297-8.603 4.413-12.087a109.55 109.55 0 0 0 2.346-8.347c.24-.997.39-1.776.51-2.301.06-.24.104-.434.142-.599.03-.12.052-.195.06-.188z" fill="#263238"/><path d="M19.114 155.145c-1.37-1.363-3.649.06-3.08 1.911a53.034 53.034 0 0 0 2.736 7.021c2.99 6.347 11.764 29.134 15.878 41.647 4.106 12.514 9.898 35.862 9.898 35.862l8.775-1.423s-8.026-38.358-15.87-52.183c-6.31-11.105-12.62-27.155-18.337-32.835z" fill="#455A64"/><path d="M37.039 213.546c.03-.008.187.367.45 1.049a57.46 57.46 0 0 1 1.01 2.944c.81 2.503 1.8 6.002 2.796 9.884a353.83 353.83 0 0 1 2.398 9.981c.262 1.214.487 2.233.66 3.042.149.719.209 1.124.179 1.131-.03.008-.157-.382-.36-1.086-.217-.802-.48-1.806-.801-3.005-.675-2.637-1.552-6.107-2.533-9.943-.997-3.882-1.934-7.381-2.66-9.906a805.771 805.771 0 0 0-.87-2.982c-.194-.705-.3-1.102-.27-1.109zm11.909 27.329c-.008 0-.023-.075-.053-.232-.03-.18-.06-.412-.097-.689-.09-.607-.173-1.507-.36-2.66-.322-2.308-.9-5.628-1.836-9.682-.936-4.053-2.3-8.819-4.106-14.019-1.798-5.201-4.054-10.813-6.617-16.628-5.162-11.614-10.318-21.91-13.704-29.53-1.716-3.799-3.043-6.901-3.912-9.059-.442-1.08-.764-1.926-.989-2.496-.098-.269-.18-.479-.24-.652-.052-.149-.075-.224-.067-.232.007 0 .045.068.112.21.075.165.172.375.285.637.255.592.614 1.416 1.064 2.458a386.53 386.53 0 0 0 4.046 8.999c3.462 7.575 8.662 17.849 13.833 29.478 2.562 5.822 4.81 11.457 6.594 16.68 1.783 5.215 3.124 10.011 4.023 14.087.907 4.076 1.432 7.411 1.701 9.726.158 1.154.21 2.061.27 2.668.023.284.038.509.053.696.007.158.007.24 0 .24zm4.365-.718c-.03.008-.135-.524-.292-1.476-.173-1.034-.405-2.39-.682-4.031-.607-3.402-1.529-8.085-2.855-13.181-1.311-5.103-2.795-9.636-3.934-12.895-.562-1.574-1.02-2.87-1.371-3.852-.33-.907-.495-1.416-.465-1.431.03-.015.255.472.637 1.364.375.891.907 2.188 1.514 3.806a127.401 127.401 0 0 1 4.076 12.896 133.749 133.749 0 0 1 2.727 13.24c.248 1.716.443 3.102.54 4.062.09.959.135 1.491.105 1.498z" fill="#263238"/><path d="M71.33 238.904H37.08v41.73h34.25v-41.73z" fill="#195EFB"/><path opacity=".3" d="M71.33 238.904H37.08v41.73h34.25v-41.73z" fill="#000"/><path d="M60.395 238.903H30.01v41.729h30.385v-41.729z" fill="#195EFB"/><path d="M271.485 146.057l-18.007-2.615-36.019 5.336-10.108 3.574 1.79 22.105 34.634 6.376 23.364-6.923 8.834-13.001-4.488-14.852z" fill="#FFBE9D"/><path d="M282.836 148.162l-15.068-3.552s-10.656 32.932-36.949 31.516c-21.431-1.154-21.678-25.08-21.678-25.08l-15.443 4.946s-5.905 39.616.629 67.678c1.529 6.557 3.574 15.399 3.574 15.399l-2.09 41.01 114.226.18-27.201-132.097z" fill="#AAC4FF"/><path opacity=".3" d="M238.057 272.127c5.56-.135 10.685.33 16.245.195 6.669-.165 13.391-.33 19.977.757 4.938.816 9.734 2.315 14.679 3.094 6.729 1.064 13.922.682 19.917-2.562l-.967-5.598-22.756-5.477-47.095 9.591z" fill="#000"/><path d="M180.802 165.231c5.223-6.752 13.908-9.554 13.908-9.554l5.844 50.878-11.067 74.07-36.252-.172s19.992-105.444 27.567-115.222zm100.276-17.441s24.398 1.955 33.15 41.924c3.956 18.081 8.961 39.271 10.408 53.508 1.049 10.326-4.571 26.504-14.867 27.823l-12.948 1.738c-2.54.345-5.125.292-7.628-.285-8.175-1.881-9.007-7.485-10.453-13.45l-3.777-11.929c-2.068-11.345 8.505-13.458 14.342-13.338l-4.353-51.778-3.874-34.213z" fill="#AAC4FF"/><path d="M191.688 183.963c-.015 0-.053.187-.113.554-.06.405-.142.945-.247 1.611-.052.353-.105.742-.165 1.169-.045.435-.09.9-.142 1.394-.097 1.004-.225 2.143-.277 3.402-.188 2.525-.18 5.545-.06 8.894.142 3.35.524 7.014 1.079 10.835.562 3.822 1.266 7.441 1.978 10.708.704 3.275 1.424 6.197 2.031 8.647a438.553 438.553 0 0 0 1.506 5.793c.18.651.329 1.176.434 1.566.105.359.165.547.18.539.015 0-.022-.195-.105-.562-.09-.397-.21-.929-.367-1.588l-1.386-5.823c-.57-2.457-1.266-5.387-1.948-8.662a170.083 170.083 0 0 1-1.949-10.685c-.554-3.807-.944-7.463-1.109-10.798-.142-3.334-.172-6.339-.022-8.857.037-1.258.135-2.397.217-3.401.038-.495.075-.96.113-1.394.045-.42.09-.809.135-1.169.074-.674.127-1.214.172-1.619.045-.352.06-.547.045-.554zm116.749 63.833c.023-.008-.03-.368-.194-1.005-.158-.636-.457-1.551-.945-2.63-.951-2.15-2.839-4.96-5.784-7.103s-6.197-3.072-8.535-3.32a15.878 15.878 0 0 0-2.795-.09c-.659.045-1.019.105-1.019.128 0 .082 1.461-.09 3.769.24 2.293.314 5.463 1.266 8.34 3.364s4.758 4.818 5.762 6.901c1.042 2.091 1.327 3.537 1.401 3.515zm-5.632-19.908c0-.03-.209-.045-.592-.053-.382-.014-.929.008-1.611.075-1.356.128-3.214.502-5.147 1.297-1.926.794-3.522 1.836-4.571 2.697-.525.427-.937.802-1.192 1.079-.262.278-.397.435-.382.457.045.045.66-.524 1.739-1.318a22.327 22.327 0 0 1 4.548-2.563 22.294 22.294 0 0 1 5.035-1.386c1.334-.188 2.173-.218 2.173-.285zm-25.256-51.747c.03 0 .045-.382.06-1.071.007-.69.045-1.679.127-2.9a47.504 47.504 0 0 1 1.626-9.419 48.121 48.121 0 0 1 3.514-8.887 49.829 49.829 0 0 1 1.402-2.548c.344-.592.524-.929.502-.944-.023-.015-.248.292-.637.862-.397.569-.914 1.416-1.514 2.495-1.199 2.151-2.622 5.275-3.649 8.909-1.012 3.635-1.431 7.044-1.521 9.502a31.55 31.55 0 0 0-.008 2.922c.038.704.068 1.087.098 1.079zm-46.726 36.288c-.015.007.022.149.112.419s.202.682.405 1.177c.374 1.019 1.026 2.45 2.03 4.113 1.004 1.664 2.413 3.515 4.264 5.305a26.755 26.755 0 0 0 6.834 4.774 26.807 26.807 0 0 0 7.995 2.352c2.555.33 4.885.27 6.804.015 1.925-.254 3.454-.644 4.481-.981.517-.15.906-.322 1.176-.42.262-.105.405-.165.397-.18-.015-.03-.577.158-1.611.457a27.65 27.65 0 0 1-4.466.855c-3.791.449-9.291.105-14.604-2.436-5.305-2.555-9.014-6.631-11.03-9.868a27.98 27.98 0 0 1-2.128-4.024c-.427-1.011-.629-1.573-.659-1.558zm51.415 56.226c.038-.037.427.51 1.334 1.259.914.734 2.428 1.589 4.466 2.128 2.031.555 4.563.787 7.351.645 2.787-.203 5.859-.525 9.059-1.004 3.185-.495 6.242-1.072 8.842-2.039 1.274-.532 2.338-1.341 3.244-2.165a17.195 17.195 0 0 0 2.271-2.578 24.449 24.449 0 0 0 2.495-4.331c.232-.547.412-.966.525-1.259.112-.292.179-.442.194-.434.015.007-.03.165-.119.464-.083.3-.248.735-.458 1.289a22.296 22.296 0 0 1-2.405 4.429 16.746 16.746 0 0 1-2.278 2.652c-.921.862-2.008 1.701-3.327 2.263-2.667 1.019-5.717 1.589-8.924 2.091-3.215.479-6.279.794-9.097.974-2.817.127-5.38-.135-7.441-.742-2.06-.584-3.589-1.491-4.488-2.278-.435-.412-.772-.734-.952-.989-.202-.24-.299-.367-.292-.375z" fill="#263238"/><path d="M278.215 188.873c.105-.023 2.675 9.966 5.747 22.307 3.072 12.348 5.47 22.374 5.365 22.404-.105.023-2.675-9.958-5.747-22.307-3.072-12.349-5.47-22.382-5.365-22.404zm-3.111 56.366c-.022 0-.075-.292-.127-.824-.045-.532-.12-1.304-.053-2.27.053-.96.383-2.128 1.094-3.2.353-.532.75-1.079 1.252-1.574a8.537 8.537 0 0 1 1.731-1.288c2.6-1.417 5.215-2.001 7.103-2.293a20.32 20.32 0 0 1 2.256-.203c.532-.015.831.008.831.03 0 .068-1.176.113-3.042.442-1.843.353-4.436.99-6.953 2.361-.615.359-1.184.764-1.664 1.229-.48.457-.869.989-1.221 1.498a6.534 6.534 0 0 0-1.124 3.028c-.098.929-.068 1.7-.068 2.233.015.539.015.831-.015.831z" fill="#263238"/><path opacity=".3" d="M192.815 217.526c-6.227-10.543-6.355-24.241-.929-35.211-1.619 11.682-1.492 23.664 1.109 35.166" fill="#000"/><path d="M225.761 243.851zm.266.124zm-.221-.11c.09.045.165.075.224.105a1.606 1.606 0 0 1-.224-.105zm-.142-.073c.038.016.069.031.099.046-.061-.023-.099-.046-.099-.046z" fill="#FFBE9D"/><path d="M202.744 264.851c1.956-3.702 17.264-13.473 17.264-13.473l-4.144-.959-4.57 1.933s-.285 1.889-1.971 4.286c-1.686 2.398-4.541-.082-4.541-.082l1.933-9.269 9.052-5.448s8.52 1.304 9.891 1.956l3.634 3.32c1.596 1.251 6.197 6.174 7.448 6.324 1.259.15 40.771-8.737 40.771-8.737 5.417 4.286 8.272 12.813 9.134 18.957 0 0 .967 3.02-.083 4.661l-48.503 3.807-10.28 2.84s-5.688 2.322-8.445 2.899c-3.417.72-5.725-.382-5.815-2.277-.09-1.896 2.563-2.099 2.563-2.099s4.316-1.558 6.609-2.907 3.731-4.091 3.731-4.091l-3.664.434s-7.793 5.411-10.715 6.992c-2.93 1.588-3.507-1.327-3.739-2.211-.24-.884 8.752-9.674 8.752-9.674s-8.542 5.268-10.078 6.594c-1.537 1.327-3.814 1.724-4.301.832-.503-.877-1.889-.907.067-4.608z" fill="#FFBE9D"/><path d="M226.128 244.014c.038.015.068.031.084.038-.023-.007-.054-.023-.084-.038zm.137.067c.008.008.008.008 0 0zm-.057-.017a.128.128 0 0 1 .046.023c-.008 0-.023-.008-.046-.023z" fill="#FFBE9D"/><path d="M244.898 265.709c.023 0 .038-.21.045-.6a3.43 3.43 0 0 0-.045-.704 6 6 0 0 0-.165-.922c-.307-1.364-1.184-3.117-2.48-4.788-1.296-1.671-2.698-2.982-3.739-3.882-1.042-.899-1.731-1.401-1.761-1.363-.037.045.599.607 1.589 1.551.989.944 2.345 2.27 3.626 3.919 1.282 1.641 2.166 3.319 2.525 4.631.368 1.296.33 2.158.405 2.158zm-24.533-14.626c-.015.09 1.206.247 2.615-.232 1.409-.465 2.293-1.327 2.225-1.387-.067-.089-1.004.607-2.337 1.049-1.342.45-2.503.458-2.503.57zm-2.55 10.152c.038.09 1.783-.539 3.897-1.408 2.113-.87 3.799-1.649 3.761-1.739-.037-.09-1.783.54-3.896 1.409s-3.799 1.648-3.762 1.738zm8.217 5.182c.045.089.914-.285 2-.705 1.079-.427 1.971-.734 1.948-.839-.022-.09-.974.067-2.075.502-1.109.427-1.918.952-1.873 1.042zm-6.946-4.507c-.037.098.847.428 1.514 1.319.682.877.764 1.821.869 1.806.045 0 .09-.24.03-.629a3.162 3.162 0 0 0-.615-1.394 3.158 3.158 0 0 0-1.183-.959c-.36-.165-.607-.188-.615-.143zm-3.601-5.667c-.045.097.622.457 1.064 1.236.457.765.449 1.529.554 1.537.09.029.285-.832-.24-1.716-.517-.892-1.363-1.147-1.378-1.057zm1.223-10.116c.037.023.18-.149.284-.479.105-.33.158-.824.03-1.349-.127-.524-.397-.944-.644-1.184-.247-.247-.45-.33-.472-.3-.067.075.554.63.772 1.567.232.929-.068 1.7.03 1.745z" fill="#EB996E"/><path d="M286.989 269.706c-.03 0-.053-.397-.068-1.116-.007-.36-.015-.794-.052-1.304-.03-.509-.045-1.086-.12-1.723-.217-2.54-.787-6.055-2.121-9.719a34.872 34.872 0 0 0-2.3-4.975c-.442-.712-.839-1.417-1.281-2.024-.218-.307-.42-.599-.622-.891-.218-.27-.42-.532-.622-.787-1.611-1.986-2.848-2.997-2.788-3.057.015-.023.322.232.869.697a9.8 9.8 0 0 1 .952.899c.352.367.779.772 1.177 1.281.209.247.427.51.651.779.218.278.428.577.652.885.465.599.87 1.303 1.327 2.023a32.46 32.46 0 0 1 2.352 5.02 35.419 35.419 0 0 1 2.024 9.831c.06.645.052 1.222.06 1.739.015.509 0 .951-.015 1.311-.015.734-.045 1.131-.075 1.131z" fill="#263238"/><path opacity=".3" d="M303.638 235.049c-4.474-1.866-9.697-2.346-14.372-1.304 8.392-.517 16.492 4.856 19.392 12.544.352.929 1.041 2.03 2.023 1.888.914-.135 1.259-1.281 1.259-2.211.007-4.855-3.837-9.044-8.302-10.917z" fill="#000"/><path d="M191.401 180.539c-.007.022-.24-.052-.644-.217-.412-.158-.989-.42-1.694-.772a35.445 35.445 0 0 1-5.222-3.215c-1.926-1.431-3.522-2.907-4.601-4.053a27.91 27.91 0 0 1-1.237-1.387c-.277-.344-.419-.539-.397-.554.045-.038.705.667 1.829 1.746a48.607 48.607 0 0 0 4.638 3.934 48.315 48.315 0 0 0 5.118 3.282c1.363.756 2.233 1.176 2.21 1.236zm86.498 2.824c0 .008-.06.053-.187.128l-.577.344c-.502.308-1.266.727-2.256 1.244-1.985 1.034-4.938 2.383-8.729 3.672-3.792 1.289-8.43 2.465-13.66 3.282-5.23.824-11.045 1.274-17.145 1.424-6.106.142-11.921.03-17.204-.09-5.283-.128-10.048-.457-14.012-1.057-3.964-.592-7.104-1.423-9.224-2.143-1.064-.359-1.873-.659-2.413-.891-.255-.105-.457-.195-.614-.255a1.625 1.625 0 0 1-.203-.098c.008 0 .075.015.218.06.164.06.367.128.629.225.547.21 1.371.487 2.435.824 2.128.667 5.268 1.461 9.217 2.016 3.949.562 8.699.862 13.982.974 5.283.097 11.09.202 17.182.06 6.092-.15 11.884-.584 17.099-1.386 5.216-.794 9.839-1.941 13.63-3.192 3.792-1.252 6.752-2.555 8.752-3.545a80.828 80.828 0 0 0 2.286-1.176c.247-.127.442-.232.592-.307.127-.09.195-.12.202-.113zm-86.236 26.677c-.007.022-.337-.045-.929-.203-.667-.18-1.499-.412-2.495-.682a504.44 504.44 0 0 1-8.183-2.39 540.254 540.254 0 0 1-8.152-2.495c-.982-.322-1.799-.585-2.458-.802-.577-.195-.892-.315-.884-.345.007-.022.337.045.929.203.667.179 1.498.412 2.495.682a504.44 504.44 0 0 1 8.183 2.39c3.192.951 6.069 1.836 8.152 2.495.982.322 1.798.585 2.458.802.577.195.892.315.884.345zm2.178 41.435c-.03.105-7.515-2.045-16.709-4.795-9.202-2.75-16.628-5.066-16.598-5.17.03-.105 7.508 2.045 16.71 4.795 9.194 2.758 16.627 5.073 16.597 5.17zm108.296-89.592c.015.023-.277.255-.824.652-.547.405-1.349.952-2.361 1.611a80.1 80.1 0 0 1-8.22 4.653 79.65 79.65 0 0 1-8.707 3.657 54.375 54.375 0 0 1-2.72.884c-.652.188-1.011.277-1.019.255-.007-.023.337-.165.974-.397.705-.262 1.596-.6 2.675-.997a106.805 106.805 0 0 0 8.633-3.746 105.055 105.055 0 0 0 8.242-4.534c.974-.607 1.791-1.109 2.428-1.506.562-.367.884-.554.899-.532zm14.933 42.569c.007.023-.42.233-1.214.577-.794.352-1.956.817-3.409 1.357-2.908 1.071-7.014 2.33-11.652 3.259-4.646.922-8.917 1.326-12.012 1.446-1.551.06-2.802.075-3.664.053-.869-.015-1.341-.038-1.341-.068 0-.03.479-.052 1.341-.082.862-.023 2.113-.083 3.657-.18a93.265 93.265 0 0 0 11.951-1.551 92.204 92.204 0 0 0 11.637-3.14 99.545 99.545 0 0 0 3.447-1.236c.802-.3 1.251-.457 1.259-.435zm-21.573 68.105c-.015 0 0-.15.037-.419.053-.315.112-.705.187-1.184.09-.51.195-1.139.263-1.866.075-.734.202-1.559.239-2.488.03-.464.06-.944.09-1.446s.015-1.034.023-1.574c.037-1.086-.045-2.247-.105-3.469a52.105 52.105 0 0 0-1.206-7.853 51.484 51.484 0 0 0-2.511-7.538c-.509-1.109-.966-2.18-1.491-3.132-.255-.48-.479-.952-.734-1.394-.255-.434-.502-.854-.742-1.251-.45-.809-.944-1.484-1.349-2.106a22.234 22.234 0 0 0-1.086-1.543c-.285-.39-.517-.712-.705-.967-.157-.225-.232-.345-.224-.352.007-.008.105.097.284.307.203.247.457.547.765.922.337.397.727.899 1.146 1.513.42.607.929 1.282 1.401 2.084.248.397.502.816.765 1.243.262.435.494.907.764 1.387.539.951 1.019 2.023 1.536 3.139a48.957 48.957 0 0 1 2.563 7.591 49.134 49.134 0 0 1 1.184 7.92c.045 1.229.112 2.398.067 3.499-.015.547-.007 1.079-.045 1.582-.037.502-.075.989-.112 1.461-.053.929-.203 1.761-.3 2.495-.09.734-.217 1.356-.33 1.866-.105.472-.187.861-.254 1.169-.068.269-.113.404-.12.404zm28.944-22.97c-.045 0-.06-.607-.232-1.693-.157-1.079-.585-2.623-1.469-4.369-.877-1.746-2.308-3.626-4.233-5.335a22.261 22.261 0 0 0-7.201-4.211c-2.818-.974-5.665-1.364-8.25-1.454-2.593-.09-4.931.075-6.879.255-1.956.187-3.537.382-4.631.502-.509.053-.929.097-1.259.135-.292.03-.442.037-.442.022s.15-.045.435-.097c.33-.052.742-.127 1.251-.21a108.46 108.46 0 0 1 4.623-.629c1.956-.218 4.309-.412 6.924-.345 2.608.068 5.5.457 8.37 1.446a22.047 22.047 0 0 1 7.306 4.309c1.948 1.761 3.387 3.686 4.241 5.477.869 1.784 1.259 3.365 1.371 4.466.098.547.068.982.09 1.267 0 .307 0 .457-.015.464zm-80.614-21.69c0 .015-.142.037-.427.075-.322.03-.727.075-1.221.127-1.117.09-2.638.225-4.496.375a602 602 0 0 1-14.852.951c-5.807.308-11.067.487-14.874.525-1.903.015-3.446.022-4.51-.015-.495-.015-.9-.03-1.229-.038-.278-.014-.427-.029-.427-.037 0-.015.149-.03.427-.037.322-.008.726-.023 1.229-.038 1.116-.03 2.645-.067 4.503-.112 3.806-.113 9.059-.337 14.859-.645 5.777-.329 11-.622 14.851-.839 1.859-.105 3.387-.187 4.504-.255.494-.022.899-.037 1.229-.052.284 0 .434 0 .434.015z" fill="#fff"/><path opacity=".3" d="M248.183 229.456c4.72 1.387 11.262 1.731 15.863-.022-3.604 5.11-10.551 6.969-16.575 5.298-6.025-1.664-11.585-7.696-12.049-13.93 2.922 3.956 8.04 7.261 12.761 8.654z" fill="#000"/><path d="M286.461 224.516c0 .014-.128.052-.375.104-.292.06-.652.135-1.094.233-.951.195-2.323.449-4.031.749-3.41.599-8.138 1.334-13.375 1.978a271.426 271.426 0 0 1-13.466 1.304c-1.723.12-3.124.202-4.091.24-.45.015-.817.03-1.116.037-.255.008-.39 0-.39-.015s.135-.037.382-.067l1.109-.113c1.019-.089 2.398-.217 4.076-.367 3.447-.307 8.198-.779 13.436-1.416a457.74 457.74 0 0 0 13.382-1.858c1.664-.255 3.035-.472 4.047-.63.442-.067.809-.12 1.101-.157.262-.022.397-.03.405-.022z" fill="#fff"/><path opacity=".3" d="M278.612 191.15c-1.184 13.563 2.51 27.028 6.174 40.133.225.802.465 1.634 1.004 2.263.547.63 1.492.997 2.233.622 1.147-.577.989-2.233.667-3.469l-10.183-38.995" fill="#000"/><path d="M88.887 204.671l15.398 75.606h133.671a2.668 2.668 0 0 0 0-5.335h-26.908l-14.282-70.316a2.923 2.923 0 0 0-2.832-2.337l-102.17-1.117c-1.843-.022-3.252 1.679-2.877 3.499z" fill="#E0E0E0"/><path d="M88.89 204.682l-.044-.225a2.762 2.762 0 0 1-.015-.689 2.926 2.926 0 0 1 1.416-2.211c.255-.157.554-.27.884-.352.33-.075.69-.068 1.05-.068.733.008 1.535.015 2.404.015 1.739.015 3.747.03 6.017.053 9.067.082 22.233.21 38.628.367l26.93.27c4.856.052 9.891.105 15.084.157 2.6.03 5.238.053 7.913.083l4.046.044c.345.008.667-.007 1.034.023.36.037.712.142 1.034.3a3.119 3.119 0 0 1 1.469 1.536c.15.337.209.697.277 1.026l.21 1.019c.135.682.277 1.364.419 2.046.278 1.364.562 2.743.84 4.129.562 2.772 1.131 5.575 1.708 8.407l3.544 17.407c2.413 11.854 4.916 24.188 7.501 36.889l-.18-.15h26.466c.322 0 .682-.015 1.041.06a2.852 2.852 0 0 1 2.226 3.222c-.12.876-.689 1.663-1.461 2.083-.39.21-.817.322-1.259.337l-1.236.008h-33.6c-12.483 0-24.585-.008-36.192-.008-23.206-.015-44.419-.022-62.762-.03h-.113l-.022-.112-11.188-55.247c-1.319-6.549-2.338-11.637-3.034-15.107a571.353 571.353 0 0 1-.78-3.941 40.079 40.079 0 0 1-.254-1.341s.105.449.292 1.341c.187.892.464 2.21.824 3.934.712 3.462 1.76 8.55 3.11 15.091 2.682 13.098 6.556 31.988 11.314 55.217l-.135-.112c18.344-.008 39.557-.023 62.763-.03 11.6 0 23.701-.008 36.192-.008h33.6l1.221-.007a2.545 2.545 0 0 0 1.094-.292c.667-.368 1.161-1.049 1.266-1.814a2.49 2.49 0 0 0-1.933-2.81c-.3-.067-.622-.052-.967-.052h-26.615l-.03-.15-7.486-36.889c-1.199-5.927-2.375-11.734-3.529-17.414-.577-2.84-1.147-5.642-1.701-8.415-.277-1.386-.562-2.757-.839-4.128-.135-.682-.278-1.364-.412-2.046l-.203-1.019c-.067-.345-.127-.667-.262-.967a2.768 2.768 0 0 0-1.311-1.379 2.895 2.895 0 0 0-.922-.269c-.315-.03-.667-.015-1.004-.023a32713.712 32713.712 0 0 1-11.959-.135c-5.193-.06-10.228-.12-15.084-.172-9.711-.112-18.725-.217-26.93-.315-16.403-.202-29.561-.367-38.628-.479-2.263-.03-4.27-.06-6.017-.083-.869-.015-1.67-.022-2.405-.037-.367-.008-.712-.015-1.034.052a2.84 2.84 0 0 0-.862.337 2.935 2.935 0 0 0-1.416 2.159c-.075.606.023.914.008.914z" fill="#263238"/><path d="M150.481 239.28a4.416 4.416 0 0 1-4.413 4.413 4.416 4.416 0 0 1-4.413-4.413 4.416 4.416 0 0 1 4.413-4.414 4.406 4.406 0 0 1 4.413 4.414z" fill="#fff"/><path d="M89.004 205.283s.157-.015.457-.015c.315 0 .764-.007 1.349-.007 1.199 0 2.952 0 5.2.007 4.526.023 11.052.053 19.115.09l63.055.442c3.08.023 6.122.053 9.119.075.75.008 1.499.015 2.241.015.359.008.749-.015 1.146.068a3.2 3.2 0 0 1 2.443 2.285c.165.742.292 1.439.442 2.158 1.131 5.695 2.218 11.187 3.26 16.425 2.068 10.468 3.933 19.894 5.499 27.815 1.552 7.912 2.803 14.312 3.672 18.755.427 2.203.757 3.926.982 5.103.105.577.187 1.019.247 1.326.052.3.075.457.075.457s-.045-.15-.105-.449c-.067-.308-.157-.75-.285-1.319-.239-1.177-.592-2.885-1.049-5.088-.899-4.436-2.188-10.835-3.791-18.733-1.589-7.913-3.477-17.339-5.575-27.799-1.042-5.231-2.143-10.723-3.282-16.418-.143-.704-.277-1.439-.435-2.128a2.833 2.833 0 0 0-2.158-2.016c-.337-.075-.697-.052-1.071-.06-.742-.007-1.491-.015-2.241-.015-2.997-.022-6.039-.045-9.119-.075l-63.055-.554c-8.063-.09-14.589-.157-19.115-.21-2.248-.03-3.994-.06-5.193-.075-.584-.015-1.034-.022-1.348-.03-.323-.015-.48-.03-.48-.03zM267.527 90.45c.397 13.945-5.515 27.942-15.796 37.369l-7.058-20.457" fill="#263238"/><path d="M214.295 49.758c6.062-3.312 13.383-3.791 20.156-2.435 6.774 1.356 13.083 4.42 19.063 7.883 3.357 1.94 6.699 4.076 9.112 7.11 4.398 5.538 8.752 14.635 9.171 21.693.345 5.71-1.843 20-4.256 25.185-2.21 4.758-12.581 8.377-17.691 9.554L202.913 64.16c1.663-6.07 5.867-11.39 11.382-14.402z" fill="#263238"/><path d="M206.199 57.12l11.255-2.015c-6.152 14.649-7.815 48.143-11.337 63.639-4.151-6.017-13.78-24.345-13.263-31.636.517-7.291-.022-31.232 13.345-29.988z" fill="#263238"/><path d="M259.554 81.496c-.607-8.557-6.144-15.579-14.462-17.7l-25.911-6.608c-11.195-1.207-18.673 12.566-19.407 23.806-.817 12.483-1.319 25.664.142 34.985 2.937 18.741 17.287 21.161 17.287 21.161 0-.03 0 8.917.015 14.387l8.669 35.892 27.942-38.597 5.785-67.102c.008-.314-.03.203-.06-.224z" fill="#FFBE9D"/><path d="M205.398 95.159c-.045 1.266.989 2.352 2.316 2.427 1.319.075 2.435-.891 2.48-2.158.045-1.266-.989-2.36-2.308-2.427-1.326-.075-2.443.891-2.488 2.158zm-2.819-6.819c.3.314 2.121-1.027 4.706-1.02 2.585-.022 4.481 1.312 4.758.997.135-.142-.165-.704-.989-1.311-.809-.6-2.195-1.184-3.806-1.184-1.611.007-2.968.592-3.747 1.199-.794.607-1.064 1.176-.922 1.319zm25.386 6.819c-.045 1.266.989 2.352 2.315 2.427 1.319.075 2.435-.891 2.48-2.158.045-1.266-.989-2.36-2.307-2.427-1.327-.075-2.436.891-2.488 2.158zm-.822-6.819c.3.314 2.121-1.027 4.706-1.02 2.585-.022 4.481 1.312 4.758.997.135-.142-.165-.704-.989-1.311-.809-.6-2.195-1.184-3.807-1.184-1.611.007-2.967.592-3.746 1.199-.794.607-1.064 1.176-.922 1.319zm-8.08 20.336c.015-.149-1.596-.427-4.196-.764-.659-.067-1.281-.202-1.394-.652-.157-.479.12-1.191.442-1.955.622-1.597 1.282-3.268 1.963-5.021 2.728-7.156 4.706-13.038 4.414-13.143-.292-.105-2.735 5.605-5.463 12.753-.659 1.761-1.281 3.447-1.88 5.051-.255.749-.682 1.603-.345 2.592.18.495.659.855 1.086.967.42.127.795.135 1.124.157 2.608.15 4.234.165 4.249.015z" fill="#263238"/><path d="M242.057 130.497s-6.099 12.873-24.847 11.074l-.008-4.405s12.349.809 24.855-6.669z" fill="#EB996E"/><path d="M227.965 79.021c.255.705 2.832.375 5.867.75 3.042.314 5.485 1.206 5.89.576.179-.3-.248-.966-1.229-1.648-.982-.682-2.54-1.334-4.361-1.536-1.821-.202-3.492.082-4.594.532-1.124.442-1.686.99-1.573 1.326zm-24.534 1.411c.457.585 2.233-.015 4.376-.045 2.143-.097 3.957.405 4.376-.21.188-.3-.097-.884-.891-1.446-.78-.554-2.083-1.011-3.56-.974-1.468.045-2.75.57-3.491 1.176-.765.607-1.012 1.214-.81 1.5z" fill="#263238"/><path d="M204.857 63.868c1.146-2.818 4.241-4.511 7.276-4.668 3.042-.158 6.009.996 8.639 2.517 11.158 6.452 16.897 22.03 27.92 28.707 2.712 1.64 6.242.134 8.55 2.315 2.307 2.173 3.799 5.65 2.525 8.55 1.483-2.031 2.982-4.1 3.829-6.474.839-2.368.951-5.126-.307-7.306-.952-1.656-2.638-2.915-3.103-4.766-.404-1.626.233-3.334.165-5.013-.075-1.708-.876-3.29-1.716-4.78-4.316-7.636-10.258-14.545-17.908-18.846-4.998-2.81-10.716-4.45-16.448-4.256-5.732.195-11.449 2.3-15.646 6.212-2.465 2.308-5.057 4.69-3.776 7.808z" fill="#263238"/><path d="M256.965 95.052c.195-.54 9.974-4.06 10.101 6.325.128 10.093-10.056 8.107-10.078 7.815-.023-.292-.023-14.14-.023-14.14z" fill="#FFBE9D"/><path d="M260.108 105.337c.045-.03.179.12.472.255.292.127.786.217 1.311.015 1.064-.405 1.941-2.106 1.978-3.919a5.741 5.741 0 0 0-.517-2.51c-.315-.734-.794-1.244-1.334-1.334a.898.898 0 0 0-1.034.495c-.135.284-.067.487-.12.502-.03.022-.217-.165-.142-.585.038-.202.157-.442.39-.637.239-.202.592-.3.966-.27.78.045 1.484.757 1.851 1.552a6.06 6.06 0 0 1 .637 2.81c-.045 2.03-1.071 3.948-2.525 4.383-.712.195-1.304-.015-1.611-.255-.3-.262-.36-.487-.322-.502z" fill="#EB996E"/><path d="M260.991 89.916c-.007.016-.217-.104-.607-.337-.389-.247-.981-.57-1.693-1.079-1.409-1.019-3.365-2.637-5.448-4.96-2.098-2.308-4.286-5.313-6.661-8.655-2.383-3.342-4.998-7.036-8.333-10.37-1.701-1.634-3.484-3.095-5.372-4.249-1.889-1.161-3.867-2.016-5.807-2.637a28.758 28.758 0 0 0-10.693-1.312c-3.087.195-5.53.847-7.164 1.401-.831.255-1.446.532-1.865.69-.428.165-.652.247-.66.232-.007-.015.21-.12.622-.315.42-.187 1.019-.494 1.851-.779 1.626-.614 4.076-1.319 7.201-1.559a28.467 28.467 0 0 1 10.842 1.237 26.439 26.439 0 0 1 5.913 2.653c1.933 1.168 3.746 2.652 5.462 4.3 3.372 3.38 5.987 7.104 8.355 10.453 2.36 3.357 4.511 6.362 6.564 8.685a37.079 37.079 0 0 0 5.313 5.028c.689.525 1.266.87 1.633 1.139.36.277.555.42.547.434z" fill="#455A64"/><path d="M261.227 107.155c.981-.18 2.046.502 2.293 1.468.247.967-.375 2.076-1.326 2.376-.952.307-2.099-.24-2.458-1.177-.36-.929.112-2.105 1.019-2.525" fill="#fff"/><path d="M260.755 107.289c.06.06-.66.352-.907 1.356-.12.48-.052 1.116.397 1.581.427.465 1.192.757 1.881.54.689-.225 1.146-.907 1.221-1.529.098-.637-.224-1.199-.592-1.521-.786-.675-1.536-.502-1.528-.585-.008-.022.157-.105.472-.112.315-.008.794.09 1.259.442.457.33.899 1.012.809 1.821-.075.779-.599 1.618-1.506 1.918-.907.277-1.828-.105-2.338-.697-.539-.607-.577-1.416-.39-1.955.173-.555.51-.915.772-1.087.262-.165.442-.195.45-.172zm-2.295-14.536c.157 2.757.285 5.665-.989 8.115s-4.488 4.114-6.886 2.743c-1.956-1.117-2.54-3.62-2.87-5.853-.959-6.429-1.394-12.925-2.405-19.347l13.15 14.342z" fill="#263238"/><path d="M207.35 59.09c.008.06.892-.165 2.51-.218 1.612-.044 3.987.173 6.677 1.222a21.627 21.627 0 0 1 4.181 2.158c1.416.936 2.862 2.053 4.316 3.297 2.893 2.503 5.897 5.515 8.452 9.112 1.282 1.798 2.421 3.649 3.65 5.365 1.221 1.716 2.577 3.274 4.046 4.548 2.937 2.548 5.957 4.339 8.527 5.702 2.585 1.364 4.743 2.323 6.227 2.983.704.3 1.274.54 1.723.734.398.165.607.24.622.217.008-.015-.187-.127-.569-.322-.442-.217-.997-.495-1.679-.832-1.461-.72-3.589-1.73-6.129-3.132-2.533-1.409-5.508-3.214-8.377-5.747-1.432-1.259-2.743-2.78-3.942-4.481-1.206-1.694-2.338-3.552-3.634-5.373-2.593-3.649-5.635-6.676-8.572-9.179-1.484-1.244-2.945-2.36-4.399-3.29a22.015 22.015 0 0 0-4.301-2.135c-2.765-1.026-5.2-1.176-6.826-1.064-.817.053-1.446.165-1.866.262-.427.098-.644.158-.637.173zm51.387 27.426c-.015.03.3.24.892.6l2.555 1.498c.277.157.562.322.862.495.322.172.674.33 1.101.367.21.015.465-.008.682-.158a.872.872 0 0 0 .375-.666c.022-.532-.262-.922-.48-1.274-.906-1.454-1.91-3.058-2.967-4.751l-.397.375a10.463 10.463 0 0 0 3.244 1.618c1.199.36 2.436.495 3.612.427.292-.007.615-.052.914-.157.293-.105.637-.307.787-.682.15-.367.008-.78-.172-1.019-.18-.262-.397-.45-.577-.63a21.552 21.552 0 0 1-3.44-4.338c-1.618-2.728-2.083-4.683-2.188-4.646-.03.008.053.502.315 1.356.27.855.734 2.084 1.521 3.492a20.459 20.459 0 0 0 3.417 4.511c.375.36.749.764.607 1.087-.12.314-.697.472-1.221.48a10.13 10.13 0 0 1-3.417-.413 9.971 9.971 0 0 1-3.072-1.521l-1.207-.884.802 1.251c1.079 1.686 2.098 3.267 3.027 4.713.233.353.442.697.427.982-.015.285-.254.457-.584.427-.652-.03-1.244-.48-1.813-.75-1.042-.539-1.926-.988-2.638-1.355-.6-.315-.944-.465-.967-.435z" fill="#455A64"/><path d="M228.893 113.423c-.345-1.536-1.918-2.72-3.484-2.563-1.154.113-2.188.899-2.713 1.926-.524 1.027-.547 2.285-.15 3.372l.053.24c1.056 1.169 2.892 1.581 4.323.921 1.431-.652 2.316-2.36 1.971-3.896z" fill="#EB996E"/><path d="M220.73 116.434c0-.389 2.615-.269 4.578-2.412 1.971-2.143 1.821-4.946 2.188-4.946.165-.03.479.645.449 1.821-.015 1.154-.472 2.825-1.678 4.136-1.206 1.312-2.758 1.821-3.829 1.859-1.102.044-1.738-.278-1.708-.458z" fill="#263238"/><path d="M308.806 275.282c0 .008-.06.015-.18.03-.142.015-.314.03-.517.053-.487.037-1.161.097-2.001.164-1.738.135-4.256.308-7.373.495a604.75 604.75 0 0 1-24.36.907c-9.524.157-18.141.067-24.383-.09a385.202 385.202 0 0 1-7.381-.248 219.3 219.3 0 0 0-2.008-.097c-.21-.015-.382-.023-.524-.038a1.088 1.088 0 0 1-.18-.022c0-.007.06-.015.18-.015h.524c.495.008 1.162.015 2.008.023 1.776.029 4.294.067 7.389.119 6.234.09 14.851.135 24.367-.022a787.038 787.038 0 0 0 24.353-.794c3.087-.158 5.598-.278 7.374-.368l2.008-.089c.209-.008.382-.008.524-.015.12-.008.18 0 .18.007z" fill="#fff"/></svg>