<svg width="36" height="36" viewBox="0 0 36 36" fill="none" xmlns="http://www.w3.org/2000/svg"><g clip-path="url(#a)"><path d="M6.109 16.648a.716.716 0 0 0 1.123.067l2.166-2.51a.703.703 0 1 0-1.065-.92l-.946 1.097a6.87 6.87 0 0 0-.769-2.832 5.514 5.514 0 0 1 0-5.058 6.868 6.868 0 0 0 .785-3.232.703.703 0 0 0-.703-.697h-.006a.703.703 0 0 0-.698.708 5.447 5.447 0 0 1-.623 2.567 6.94 6.94 0 0 0 0 6.366c.346.66.553 1.4.604 2.157l-.944-1.08a.703.703 0 1 0-1.058.927l2.134 2.44z" fill="url(#b)"/><path d="M29.183 16.648a.716.716 0 0 0 1.123.067l2.166-2.51a.703.703 0 1 0-1.065-.92l-.946 1.097a6.869 6.869 0 0 0-.768-2.832 5.515 5.515 0 0 1 0-5.058 6.879 6.879 0 0 0 .784-3.232.703.703 0 0 0-.703-.697h-.006a.703.703 0 0 0-.697.708 5.448 5.448 0 0 1-.623 2.567 6.94 6.94 0 0 0 0 6.366c.346.66.552 1.4.603 2.157l-.944-1.079a.703.703 0 1 0-1.058.926l2.134 2.44z" fill="url(#c)"/><path d="M5.499 27.8a.703.703 0 0 0 0 .994l.895.895a.7.7 0 0 0 .994 0 .703.703 0 0 0 0-.994l-.895-.895a.703.703 0 0 0-.994 0z" fill="url(#d)"/><path d="M22.273 28.554a.7.7 0 0 0 .952-.288.703.703 0 0 0-.288-.951l-1.117-.599a.703.703 0 0 0-.664 1.24l1.117.598z" fill="url(#e)"/><path d="M14.245 28.264l-1.071.67a.703.703 0 1 0 .746 1.192l1.071-.67a.703.703 0 1 0-.746-1.192z" fill="url(#f)"/><path d="M29.895 30.095l.896-.894a.703.703 0 1 0-.994-.995l-.895.894a.703.703 0 1 0 .993.995z" fill="url(#g)"/><path d="M17.555 33.12c.368.551 1.252.305 1.286-.356.032-.614-.727-.968-1.178-.553a.71.71 0 0 0-.108.909z" fill="url(#h)"/><path d="M35.333 18.476a6.878 6.878 0 0 0-3.494.777 5.51 5.51 0 0 1-5.058 0 6.763 6.763 0 0 0-2.13-.694 6.796 6.796 0 0 0-.788-3.058l-5.374-9.998a.703.703 0 0 0-1.239 0l-5.319 9.9a6.789 6.789 0 0 0-.843 3.162 6.765 6.765 0 0 0-2.1.688 5.515 5.515 0 0 1-5.059 0 6.859 6.859 0 0 0-3.231-.785.703.703 0 0 0-.698.704v13.563c0 .389.315.703.703.703h14.235a.703.703 0 1 0 0-1.406H1.406v-7.928a5.45 5.45 0 0 1 1.87.583 6.94 6.94 0 0 0 6.366 0 5.51 5.51 0 0 1 5.059 0 6.935 6.935 0 0 0 6.367 0 5.513 5.513 0 0 1 5.059 0 6.937 6.937 0 0 0 6.366 0 5.503 5.503 0 0 1 2.1-.608v7.953H21.2a.703.703 0 0 0 0 1.406h14.097a.703.703 0 0 0 .703-.703V19.177a.703.703 0 0 0-.667-.701zM21.52 22.63c-2.03 1.878-5.27 1.88-7.302 0a5.36 5.36 0 0 1-1.587-2.727 5.43 5.43 0 0 1 2.069.595c1.836.963 4.101 1.026 5.994.18.797-.355 1.527-.695 2.412-.773a5.363 5.363 0 0 1-1.586 2.725zm-8.355-6.553a.628.628 0 0 0 .018-.035l4.686-8.72 4.74 8.82a5.383 5.383 0 0 1 .633 2.343 6.947 6.947 0 0 0-2.852.78 5.525 5.525 0 0 1-5.037-.012 6.846 6.846 0 0 0-2.857-.77 5.374 5.374 0 0 1 .67-2.406zm-4.178 7.365a5.515 5.515 0 0 1-5.059 0 6.86 6.86 0 0 0-2.523-.752v-2.775c.651.08 1.287.277 1.87.583a6.94 6.94 0 0 0 6.366 0 5.364 5.364 0 0 1 1.568-.531 6.75 6.75 0 0 0 1.174 2.705 6.881 6.881 0 0 0-3.396.77zm22.851 0c-1.56.82-3.498.82-5.058 0a6.877 6.877 0 0 0-3.426-.769 6.745 6.745 0 0 0 1.175-2.71 5.363 5.363 0 0 1 1.597.535 6.937 6.937 0 0 0 6.366 0 5.5 5.5 0 0 1 2.1-.608v2.78a6.93 6.93 0 0 0-2.754.772z" fill="url(#i)"/></g><defs><linearGradient id="b" x1="4.879" y1="4.774" x2="11.49" y2="6.822" gradientUnits="userSpaceOnUse"><stop stop-color="#FC92C3"/><stop offset=".5" stop-color="#D9A3A3"/><stop offset="1" stop-color="#DFA56C"/></linearGradient><linearGradient id="c" x1="27.953" y1="4.774" x2="34.564" y2="6.822" gradientUnits="userSpaceOnUse"><stop stop-color="#FC92C3"/><stop offset=".5" stop-color="#D9A3A3"/><stop offset="1" stop-color="#DFA56C"/></linearGradient><linearGradient id="d" x1="5.723" y1="27.947" x2="7.533" y2="29.346" gradientUnits="userSpaceOnUse"><stop stop-color="#FC92C3"/><stop offset=".5" stop-color="#D9A3A3"/><stop offset="1" stop-color="#DFA56C"/></linearGradient><linearGradient id="e" x1="21.257" y1="26.941" x2="22.886" y2="28.525" gradientUnits="userSpaceOnUse"><stop stop-color="#FC92C3"/><stop offset=".5" stop-color="#D9A3A3"/><stop offset="1" stop-color="#DFA56C"/></linearGradient><linearGradient id="f" x1="13.307" y1="28.476" x2="14.99" y2="30.026" gradientUnits="userSpaceOnUse"><stop stop-color="#FC92C3"/><stop offset=".5" stop-color="#D9A3A3"/><stop offset="1" stop-color="#DFA56C"/></linearGradient><linearGradient id="g" x1="29.126" y1="28.354" x2="30.936" y2="29.753" gradientUnits="userSpaceOnUse"><stop stop-color="#FC92C3"/><stop offset=".5" stop-color="#D9A3A3"/><stop offset="1" stop-color="#DFA56C"/></linearGradient><linearGradient id="h" x1="17.7" y1="32.245" x2="18.798" y2="33.101" gradientUnits="userSpaceOnUse"><stop stop-color="#FC92C3"/><stop offset=".5" stop-color="#D9A3A3"/><stop offset="1" stop-color="#DFA56C"/></linearGradient><linearGradient id="i" x1="6.73" y1="9.483" x2="29.733" y2="32.091" gradientUnits="userSpaceOnUse"><stop stop-color="#FC92C3"/><stop offset=".5" stop-color="#D9A3A3"/><stop offset="1" stop-color="#DFA56C"/></linearGradient><clipPath id="a"><path fill="#fff" d="M0 0h36v36H0z"/></clipPath></defs></svg>