<svg width="38" height="38" viewBox="0 0 38 38" fill="none" xmlns="http://www.w3.org/2000/svg"><path d="M11.02 10.973a.745.745 0 1 0-1.422.448 1.957 1.957 0 1 1-3.823.588 1.958 1.958 0 0 1 2.527-1.872.745.745 0 0 0 .433-1.426 3.448 3.448 0 0 0-4.45 3.298 3.45 3.45 0 0 0 3.447 3.446 3.45 3.45 0 0 0 3.288-4.482z" fill="url(#a)"/><path d="M37.257 28.164a.745.745 0 0 0-.745.745v.596a.745.745 0 0 0 1.49 0v-.596a.745.745 0 0 0-.745-.745z" fill="url(#b)"/><path d="M37.255 27.416A.745.745 0 0 0 38 26.67v-7.675a.745.745 0 0 0-.745-.745H12.287a7.725 7.725 0 0 0 3.173-6.24c0-4.262-3.467-7.73-7.73-7.73C3.468 4.281 0 7.75 0 12.011v13.97c0 4.262 3.468 7.73 7.73 7.73h29.525a.745.745 0 0 0 .745-.745v-1.229a.745.745 0 0 0-1.49 0v.484h-5.961V19.74h5.96v6.93c0 .411.334.745.746.745zM7.73 5.77c3.44 0 6.24 2.8 6.24 6.24 0 3.44-2.8 6.24-6.24 6.24-3.44 0-6.24-2.8-6.24-6.24 0-3.44 2.8-6.24 6.24-6.24zm21.329 26.45h-2.683v-1.99a.745.745 0 0 0-1.49 0v1.99h-2.583v-.622a.745.745 0 0 0-1.49 0v.622H18.23v-1.99a.745.745 0 0 0-1.49 0v1.99h-2.583v-.622a.745.745 0 0 0-1.49 0v.622h-2.583v-1.99a.745.745 0 0 0-1.49 0v1.99H7.73a6.215 6.215 0 0 1-1.72-.243v-.875a.745.745 0 0 0-1.49 0v.227a6.241 6.241 0 0 1-3.03-5.349v-9.413a7.724 7.724 0 0 0 6.24 3.173h.862v1.99a.745.745 0 0 0 1.49 0v-1.99h6.657v1.99a.745.745 0 0 0 1.49 0v-1.99h6.656v1.99a.745.745 0 0 0 1.49 0v-1.99h2.683v12.48z" fill="url(#c)"/><path d="M33.531 23.969a2.013 2.013 0 0 0-2.011 2.011c0 1.11.902 2.012 2.011 2.012 1.11 0 2.012-.902 2.012-2.012a2.013 2.013 0 0 0-2.012-2.011zm0 2.533a.522.522 0 1 1 .002-1.044.522.522 0 0 1-.002 1.044z" fill="url(#d)"/><defs><linearGradient id="a" x1="5.574" y1="9.622" x2="10.995" y2="13.811" gradientUnits="userSpaceOnUse"><stop stop-color="#FC92C3"/><stop offset=".5" stop-color="#D9A3A3"/><stop offset="1" stop-color="#DFA56C"/></linearGradient><linearGradient id="b" x1="36.79" y1="28.485" x2="38.225" y2="29.277" gradientUnits="userSpaceOnUse"><stop stop-color="#FC92C3"/><stop offset=".5" stop-color="#D9A3A3"/><stop offset="1" stop-color="#DFA56C"/></linearGradient><linearGradient id="c" x1="7.104" y1="8.804" x2="31.024" y2="32.671" gradientUnits="userSpaceOnUse"><stop stop-color="#FC92C3"/><stop offset=".5" stop-color="#D9A3A3"/><stop offset="1" stop-color="#DFA56C"/></linearGradient><linearGradient id="d" x1="32.272" y1="24.587" x2="35.436" y2="27.032" gradientUnits="userSpaceOnUse"><stop stop-color="#FC92C3"/><stop offset=".5" stop-color="#D9A3A3"/><stop offset="1" stop-color="#DFA56C"/></linearGradient></defs></svg>