<svg width="1440" height="549" viewBox="0 0 1440 549" fill="none" xmlns="http://www.w3.org/2000/svg"><path d="M-14.998 204.534C11.17 156.372 95.703 57.148 224.505 45.55c161.001-14.5 246.002 211.979 432.004 220.478C842.511 274.527 828.011-3.446 1071.51 1.054c39.34.667 151.1 32.097 283.51 152.485 165.5 150.485 228.5-87.491 133.5-122.488-93.28-34.36-125.5 306.97-291.01 298.47-165.5-8.499-217.498-56.494-359.499-47.995-142.002 8.499-275.003 221.978-393.504 164.484-118.501-57.494-220.002-64.494-342.504-45.995C-81.03 427.653-187.333 484.506-224 548" stroke="#318959" stroke-opacity=".4" stroke-dasharray="10 10"/></svg>