<svg width="171" height="40" viewBox="0 0 171 40" fill="none" xmlns="http://www.w3.org/2000/svg"><g clip-path="url(#a)" fill="#fff"><path fill-rule="evenodd" clip-rule="evenodd" d="M16.952 39.9L16.9 20.544h-4.233v-4.36h12.698v4.36h-4.232L20.93 39.9h-3.978z"/><path fill-rule="evenodd" clip-rule="evenodd" d="M-.027 3.106l38.706.079v4.254l-28.125.026L10.53 39.9H6.4L6.321 7.465h-6.35V3.106z"/><path d="M38.514 16.175l-4.08.02.02 4.36 4.08-.02-.02-4.36zm-34.309.009H-.027v4.36h4.232v-4.36zm0-6.539H-.027v4.36h4.232v-4.36z"/><path fill-rule="evenodd" clip-rule="evenodd" d="M27.508 39.9l-.025-25.895H12.668v-4.36h26.008v4.412l-6.961-.052-.076 25.895h-4.131z"/></g><path d="M44.876 4.48h3.189v6.233h5.525V4.48h3.179V21H53.59v-7.244h-5.525V21h-3.19V4.48zm27.57 11.298h-9.849c.142.868.52 1.56 1.134 2.077.622.51 1.412.764 2.37.764 1.146 0 2.13-.4 2.954-1.201l2.583 1.212c-.644.914-1.415 1.591-2.314 2.033-.898.434-1.965.651-3.2.651-1.917 0-3.478-.602-4.684-1.808-1.205-1.212-1.808-2.729-1.808-4.548 0-1.864.6-3.41 1.797-4.638 1.206-1.236 2.714-1.853 4.526-1.853 1.924 0 3.489.617 4.694 1.853 1.206 1.228 1.808 2.852 1.808 4.874l-.01.584zm-3.077-2.415a3.067 3.067 0 0 0-1.201-1.662c-.592-.427-1.28-.64-2.067-.64-.853 0-1.602.24-2.246.719-.404.3-.779.827-1.123 1.583h6.637zm14.6-4.582h3.054V21H83.97v-1.291c-.6.569-1.202.98-1.808 1.235-.6.247-1.25.37-1.954.37-1.58 0-2.947-.61-4.1-1.83-1.153-1.228-1.73-2.752-1.73-4.57 0-1.888.559-3.434 1.674-4.64 1.116-1.204 2.471-1.807 4.066-1.807.733 0 1.422.138 2.066.415.644.277 1.24.693 1.786 1.247V8.78zm-3.223 2.516c-.951 0-1.741.337-2.37 1.01-.629.667-.943 1.524-.943 2.572 0 1.056.318 1.925.954 2.606a3.134 3.134 0 0 0 2.37 1.022c.966 0 1.767-.333 2.403-1 .636-.674.955-1.553.955-2.639 0-1.063-.319-1.924-.955-2.583-.636-.659-1.441-.988-2.414-.988zm9.051-7.233h3.066V21h-3.066V4.064zm6.222.214h3.055V8.78h1.819v2.64h-1.82V21H96.02v-9.58h-1.572V8.781h1.572V4.278zm6.536-.214h3.044v5.953c.599-.517 1.201-.903 1.808-1.157a4.602 4.602 0 0 1 1.842-.393c1.212 0 2.234.42 3.065 1.258.712.726 1.067 1.793 1.067 3.2V21h-3.021v-5.357c0-1.415-.067-2.373-.202-2.875-.135-.502-.367-.876-.696-1.123-.322-.247-.723-.37-1.202-.37-.621 0-1.156.205-1.606.617-.441.412-.748.973-.921 1.685-.089.367-.134 1.205-.134 2.515V21h-3.044V4.064zm29.323 3.325l-2.201 2.1c-1.498-1.58-3.182-2.37-5.054-2.37-1.58 0-2.912.54-3.998 1.617-1.078 1.078-1.617 2.407-1.617 3.987 0 1.1.239 2.078.719 2.931a5.145 5.145 0 0 0 2.032 2.01c.876.487 1.85.73 2.92.73.914 0 1.748-.168 2.505-.505.756-.344 1.587-.966 2.493-1.864l2.134 2.224c-1.221 1.19-2.374 2.017-3.459 2.482-1.086.456-2.325.684-3.718.684-2.568 0-4.672-.812-6.311-2.436-1.632-1.633-2.448-3.721-2.448-6.267 0-1.647.37-3.11 1.111-4.391.749-1.28 1.816-2.31 3.201-3.089a9.058 9.058 0 0 1 4.492-1.168 9.34 9.34 0 0 1 3.931.865 9.399 9.399 0 0 1 3.268 2.46zm11.455 1.392h3.055V21h-3.055v-1.291c-.599.569-1.202.98-1.808 1.235-.599.247-1.25.37-1.954.37-1.58 0-2.946-.61-4.099-1.83-1.153-1.228-1.73-2.752-1.73-4.57 0-1.888.558-3.434 1.674-4.64 1.115-1.204 2.47-1.807 4.065-1.807a5.17 5.17 0 0 1 2.066.415 5.643 5.643 0 0 1 1.786 1.247V8.78zm-3.223 2.516c-.951 0-1.741.337-2.37 1.01-.629.667-.943 1.524-.943 2.572 0 1.056.318 1.925.954 2.606a3.135 3.135 0 0 0 2.37 1.022c.966 0 1.767-.333 2.403-1 .637-.674.955-1.553.955-2.639 0-1.063-.318-1.924-.955-2.583-.636-.659-1.441-.988-2.414-.988zm8.659-2.516h2.627v1.539c.285-.607.663-1.067 1.135-1.382a2.734 2.734 0 0 1 1.55-.471c.396 0 .812.105 1.246.314l-.954 2.64c-.36-.18-.656-.27-.888-.27-.471 0-.872.292-1.201.876-.322.584-.483 1.73-.483 3.436l.011.596V21h-3.043V8.781zm20.327 6.997h-9.849c.142.868.52 1.56 1.134 2.077.621.51 1.411.764 2.369.764 1.146 0 2.131-.4 2.954-1.201l2.583 1.212c-.644.914-1.415 1.591-2.313 2.033-.899.434-1.966.651-3.201.651-1.917 0-3.478-.602-4.683-1.808-1.206-1.212-1.808-2.729-1.808-4.548 0-1.864.599-3.41 1.797-4.638 1.205-1.236 2.714-1.853 4.525-1.853 1.925 0 3.489.617 4.695 1.853 1.205 1.228 1.808 2.852 1.808 4.874l-.011.584zm-3.077-2.415a3.071 3.071 0 0 0-1.202-1.662c-.592-.427-1.28-.64-2.067-.64-.853 0-1.602.24-2.246.719-.404.3-.778.827-1.123 1.583h6.638z" fill="#fff"/><defs><clipPath id="a"><path fill="#fff" transform="translate(0 4)" d="M0 0h38v36H0z"/></clipPath></defs></svg>