<svg width="133" height="510" viewBox="0 0 133 510" fill="none" xmlns="http://www.w3.org/2000/svg"><path d="M37.671 4.947a4.21 4.21 0 0 0-3.66-4.689 4.21 4.21 0 0 0-4.687 3.662 4.21 4.21 0 0 0 3.66 4.689 4.18 4.18 0 0 0 4.687-3.662zm23.65 29.399a4.198 4.198 0 0 0-4.203-4.205 4.198 4.198 0 0 0-4.203 4.205 4.198 4.198 0 0 0 4.203 4.205 4.206 4.206 0 0 0 4.203-4.205z" fill="#98CDED" stroke="#fff" stroke-width=".293" stroke-miterlimit="10"/><path d="M59.125 448.05v-14.741h1.476v14.741h-1.476zm5.739-7.772c0 .815.72 1.417 2.172 1.795.401.094.673.165.803.201.13.035.378.118.744.236s.637.224.779.307c.142.083.354.213.626.39.271.177.46.354.567.531.106.177.212.402.318.674.095.271.142.566.142.874 0 .897-.354 1.629-1.074 2.185-.685.567-1.606.838-2.74.838-.98 0-1.83-.224-2.55-.661a3.582 3.582 0 0 1-1.511-1.76l1.18-.697c.201.543.555.98 1.063 1.299.508.319 1.122.473 1.818.473.72 0 1.3-.142 1.748-.425.448-.284.673-.697.673-1.264 0-.815-.72-1.406-2.173-1.796-.413-.094-.673-.165-.803-.2-.13-.036-.377-.107-.743-.237-.378-.118-.638-.224-.78-.307a14.628 14.628 0 0 1-.626-.389c-.271-.178-.46-.355-.566-.532-.118-.177-.213-.402-.319-.673a2.66 2.66 0 0 1-.142-.874c0-.862.343-1.571 1.016-2.15.696-.579 1.57-.862 2.585-.862.839 0 1.594.189 2.244.567a3.46 3.46 0 0 1 1.44 1.583l-1.157.673c-.39-.981-1.24-1.477-2.526-1.477-.638 0-1.158.142-1.583.437-.425.319-.626.721-.626 1.241zm14.038-2.752v1.346h-3.034v6.378c0 .579.106.992.342 1.229.225.248.567.366 1.016.378.448.011 1.015 0 1.688-.036v1.217c-1.5.224-2.61.118-3.341-.331-.72-.437-1.087-1.264-1.087-2.48v-6.379h-2.208v-1.346h2.208v-2.528l1.394-.425v2.953h3.022v.024zm11.371 2.055v-2.067h1.393v10.535h-1.393v-2.066c-.968 1.547-2.385 2.315-4.25 2.315-1.5 0-2.787-.532-3.85-1.607-1.05-1.063-1.582-2.374-1.582-3.921 0-1.547.531-2.847 1.582-3.921 1.063-1.063 2.35-1.607 3.85-1.607 1.865.024 3.282.803 4.25 2.339zm-7.096 6.177c.802.803 1.782 1.205 2.951 1.205 1.17 0 2.15-.402 2.952-1.205a4.114 4.114 0 0 0 1.204-2.965c0-1.169-.4-2.149-1.204-2.952-.803-.815-1.783-1.217-2.952-1.217-1.168 0-2.148.402-2.951 1.217-.803.803-1.205 1.783-1.205 2.952.012 1.146.402 2.138 1.205 2.965zm16.364-8.492c1.264 0 2.267.39 3.011 1.169.744.78 1.122 1.831 1.122 3.154v6.472h-1.393v-6.472c0-.945-.248-1.677-.744-2.185-.496-.52-1.205-.78-2.114-.78-1.05 0-1.889.331-2.491.992-.614.662-.921 1.642-.921 2.93v5.515h-1.393v-10.535h1.393v1.641c.78-1.263 1.96-1.901 3.53-1.901zm12.469 0c1.499 0 2.774.531 3.837 1.606 1.063 1.063 1.606 2.374 1.606 3.921 0 1.548-.532 2.847-1.606 3.922-1.051 1.063-2.326 1.606-3.837 1.606-1.866 0-3.283-.768-4.251-2.315v2.067h-1.393v-14.74h1.393v6.271c.968-1.559 2.385-2.338 4.251-2.338zm-3.058 8.492c.802.803 1.782 1.205 2.951 1.205s2.149-.402 2.952-1.205a4.113 4.113 0 0 0 1.204-2.965c0-1.169-.401-2.149-1.204-2.952-.803-.815-1.783-1.217-2.952-1.217s-2.149.402-2.951 1.217c-.803.803-1.205 1.783-1.205 2.952.012 1.146.413 2.138 1.205 2.965zm18.218-2.716v-5.516h1.394v10.535h-1.394v-1.641c-.791 1.263-1.96 1.889-3.542 1.889-1.263 0-2.267-.389-3.011-1.169-.744-.779-1.121-1.831-1.121-3.154v-6.472h1.393v6.472c0 .945.248 1.678.744 2.186.496.507 1.204.779 2.113.779 1.051 0 1.889-.331 2.492-.992.625-.65.932-1.63.932-2.917zm5.727 5.007h-1.394v-15.378h1.394v15.378zm-62.72 57.38h-1.724l-3.542-6.048h-4.227v6.048h-1.512v-15.107h6.046c1.24 0 2.302.449 3.188 1.335.897.897 1.334 1.96 1.334 3.189 0 1.039-.307 1.949-.933 2.74a4.419 4.419 0 0 1-2.326 1.595l3.696 6.248zm-4.96-13.69h-4.533v6.213h4.534c.838 0 1.546-.307 2.137-.909.59-.638.885-1.37.885-2.197a3.06 3.06 0 0 0-.885-2.197c-.602-.603-1.31-.91-2.137-.91zm8.643-.424c0 .283-.106.531-.307.732-.2.201-.448.307-.732.307a.966.966 0 0 1-.732-.307 1.01 1.01 0 0 1-.307-.732c0-.284.095-.532.307-.733.2-.201.449-.307.732-.307.284 0 .532.095.732.307a.965.965 0 0 1 .307.733zm-.319 14.114h-1.428v-10.795h1.428v10.795zm12.292-8.681v-2.115h1.429v10.359c0 1.559-.532 2.776-1.594 3.673-1.063.886-2.338 1.335-3.814 1.335-2.515 0-4.227-.874-5.112-2.634l1.251-.709c.65 1.312 1.936 1.961 3.861 1.961 1.24 0 2.208-.319 2.928-.968.72-.65 1.063-1.536 1.063-2.658v-1.689c-.992 1.583-2.444 2.374-4.357 2.374-1.535 0-2.857-.543-3.944-1.642-1.074-1.098-1.617-2.433-1.617-4.016 0-1.582.543-2.917 1.617-4.015 1.098-1.099 2.409-1.642 3.944-1.642 1.9.012 3.353.803 4.345 2.386zm-7.261 6.331c.814.815 1.83 1.228 3.022 1.228 1.193 0 2.196-.413 3.023-1.228.815-.851 1.228-1.867 1.228-3.048 0-1.193-.413-2.197-1.228-3.023-.815-.839-1.83-1.252-3.023-1.252-1.192 0-2.196.413-3.022 1.252-.815.815-1.228 1.83-1.228 3.023-.012 1.181.401 2.197 1.228 3.048zm20.993-6.331v-2.115h1.428v10.796h-1.428v-2.114c-.992 1.582-2.444 2.374-4.357 2.374-1.535 0-2.858-.544-3.944-1.642-1.074-1.098-1.617-2.433-1.617-4.016 0-1.583.543-2.917 1.617-4.016 1.098-1.098 2.409-1.641 3.944-1.641 1.913 0 3.365.791 4.357 2.374zm-7.274 6.33c.815.815 1.83 1.229 3.023 1.229s2.196-.414 3.023-1.229c.814-.85 1.228-1.866 1.228-3.047 0-1.193-.414-2.197-1.228-3.024-.815-.838-1.83-1.252-3.023-1.252s-2.196.414-3.023 1.252c-.814.815-1.228 1.831-1.228 3.024 0 1.181.402 2.197 1.228 3.047zm-30.013-32.717l7.462 7.772h-1.984l-7.072-7.311v7.311h-1.512v-15.107h1.512v6.91l6.86-6.91h1.983l-7.25 7.335zm10.945-6.342c0 .283-.106.531-.307.732-.2.201-.448.307-.732.307a.963.963 0 0 1-.732-.307 1.01 1.01 0 0 1-.307-.732c0-.284.095-.532.307-.733.2-.2.449-.307.732-.307.284 0 .531.095.732.307.2.189.307.437.307.733zm-.33 14.114h-1.43v-10.795h1.43v10.795zm8.005-11.055c1.605 0 2.892.567 3.86 1.7.992 1.123 1.488 2.457 1.488 3.993 0 .071-.011.295-.047.673h-9.47c.142 1.075.603 1.937 1.382 2.587.78.649 1.748.968 2.916.968 1.642 0 2.799-.614 3.472-1.831l1.251.733a4.908 4.908 0 0 1-1.948 1.819c-.826.437-1.76.661-2.798.661-1.7 0-3.082-.531-4.144-1.594-1.063-1.063-1.594-2.422-1.594-4.064 0-1.63.52-2.976 1.57-4.039 1.05-1.063 2.409-1.606 4.062-1.606zm0 1.382c-1.122 0-2.067.33-2.81.992-.756.661-1.205 1.535-1.346 2.61h8.052c-.153-1.146-.602-2.032-1.31-2.658-.768-.626-1.618-.944-2.586-.944zm11.606 8.185l3.778-9.307h1.512l-4.428 10.795h-1.724l-4.428-10.795h1.512l3.778 9.307z" fill="#98CDED"/><path d="M58.64 74.859v320.217H30.588v47.458h17.227" stroke="#98CDED" stroke-width=".838" stroke-miterlimit="10"/><path d="M33.432 6.483v356.619H1.07v135.134h47.453" stroke="#99CDED" stroke-width=".838" stroke-miterlimit="10"/><path d="M54.685 34.346H44.531l.756 344.867h-30.12v91.325H48.05" stroke="#A0C9E9" stroke-width=".838" stroke-miterlimit="10"/><path d="M63.08 71.776a4.198 4.198 0 0 0-4.203-4.205 4.198 4.198 0 0 0-4.203 4.205 4.198 4.198 0 0 0 4.203 4.205 4.198 4.198 0 0 0 4.203-4.205z" fill="#98CDED" stroke="#fff" stroke-width=".293" stroke-miterlimit="10"/></svg>