<svg width="192" height="481" viewBox="0 0 192 481" fill="none" xmlns="http://www.w3.org/2000/svg"><path d="M9.503 4.783A4.198 4.198 0 0 0 5.3.578a4.198 4.198 0 0 0-4.204 4.205A4.198 4.198 0 0 0 5.3 8.988a4.213 4.213 0 0 0 4.203-4.205zM70.31 142.279a4.198 4.198 0 0 0-4.203-4.205 4.198 4.198 0 0 0-4.203 4.205 4.198 4.198 0 0 0 4.203 4.205 4.198 4.198 0 0 0 4.204-4.205z" fill="#98CDED" stroke="#fff" stroke-width=".293" stroke-miterlimit="10"/><path d="M124.163 465.012h1.877v15.106h-1.511v-12.815l-5.289 8.847h-.213l-5.29-8.847v12.815h-1.511v-15.106h1.877l5.03 8.421 5.03-8.421zm14.157 13.748c-1.11 1.074-2.444 1.618-4.014 1.618-1.594 0-2.94-.544-4.038-1.618-1.098-1.099-1.642-2.434-1.642-4.04 0-1.594.544-2.941 1.642-4.016 1.098-1.098 2.432-1.642 4.038-1.642 1.582 0 2.916.544 4.014 1.642 1.11 1.075 1.665 2.422 1.665 4.016 0 1.595-.555 2.941-1.665 4.04zm-7.037-.993c.815.815 1.83 1.229 3.023 1.229 1.192 0 2.196-.414 3.022-1.229.815-.85 1.228-1.866 1.228-3.047 0-1.193-.413-2.197-1.228-3.024-.814-.838-1.83-1.252-3.022-1.252-1.193 0-2.196.414-3.023 1.252-.815.815-1.228 1.831-1.228 3.024s.413 2.197 1.228 3.047zm12.197-5.61c0 .839.744 1.441 2.219 1.831.414.106.685.165.815.201.13.035.39.118.768.236.377.118.649.224.802.319.154.094.366.224.638.401.272.178.472.355.579.544.118.177.224.413.318.685a2.5 2.5 0 0 1 .154.897c0 .922-.366 1.666-1.098 2.245-.709.578-1.641.862-2.81.862-1.004 0-1.878-.225-2.61-.685-.732-.461-1.251-1.051-1.558-1.807l1.204-.709a2.498 2.498 0 0 0 1.086 1.323c.52.319 1.146.484 1.866.484.732 0 1.334-.142 1.795-.437.46-.283.684-.72.684-1.299 0-.839-.743-1.441-2.219-1.831-.414-.106-.685-.165-.815-.201-.13-.035-.39-.118-.767-.236-.378-.118-.65-.224-.803-.319a24.789 24.789 0 0 1-.638-.401c-.271-.178-.472-.355-.579-.544a3.072 3.072 0 0 1-.318-.685 2.5 2.5 0 0 1-.154-.897c0-.875.343-1.607 1.039-2.197.72-.591 1.606-.886 2.657-.886.862 0 1.629.189 2.302.579a3.554 3.554 0 0 1 1.476 1.618l-1.192.685c-.402-1.004-1.264-1.512-2.586-1.512-.65 0-1.193.153-1.618.449-.425.342-.637.756-.637 1.287zm13.696 8.221c-1.629 0-2.975-.544-4.061-1.618-1.075-1.111-1.618-2.457-1.618-4.04 0-1.594.543-2.941 1.618-4.016 1.074-1.098 2.432-1.642 4.061-1.642 1.063 0 2.019.26 2.869.768.851.508 1.465 1.193 1.854 2.067l-1.169.673c-.283-.649-.755-1.157-1.393-1.547-.638-.378-1.358-.567-2.172-.567-1.193 0-2.197.414-3.023 1.252-.815.815-1.228 1.831-1.228 3.024 0 1.181.413 2.197 1.228 3.047.815.815 1.83 1.229 3.023 1.229.791 0 1.511-.189 2.148-.567a3.967 3.967 0 0 0 1.5-1.559l1.192.685a5.044 5.044 0 0 1-1.96 2.055c-.861.508-1.818.756-2.869.756zm15.928-1.618c-1.11 1.074-2.444 1.618-4.015 1.618-1.594 0-2.94-.544-4.038-1.618-1.098-1.099-1.641-2.434-1.641-4.04 0-1.594.543-2.941 1.641-4.016 1.098-1.098 2.433-1.642 4.038-1.642 1.583 0 2.917.544 4.015 1.642 1.11 1.075 1.665 2.422 1.665 4.016 0 1.595-.555 2.941-1.665 4.04zm-7.037-.993c.814.815 1.83 1.229 3.022 1.229 1.193 0 2.197-.414 3.023-1.229.815-.85 1.228-1.866 1.228-3.047 0-1.193-.413-2.197-1.228-3.024-.815-.838-1.83-1.252-3.023-1.252-1.192 0-2.196.414-3.022 1.252-.815.815-1.228 1.831-1.228 3.024s.413 2.197 1.228 3.047zm21.407.522l2.656-8.953h1.464l-3.317 10.795h-1.559l-2.787-8.693-2.786 8.693h-1.559l-3.317-10.795h1.464l2.656 8.953 2.822-8.953h1.429l2.834 8.953zm-75.283-42.98h5.691c2.007 0 3.66.72 4.971 2.149 1.322 1.406 1.983 3.142 1.983 5.221s-.661 3.827-1.983 5.244c-1.311 1.418-2.964 2.126-4.971 2.126h-5.691v-14.74zm1.476 13.358h4.215c1.618 0 2.94-.578 3.955-1.724 1.04-1.17 1.559-2.587 1.559-4.252 0-1.666-.519-3.095-1.559-4.252-1.027-1.158-2.349-1.725-3.955-1.725h-4.215v11.953zm20.887-3.624v-5.516h1.393v10.536h-1.393v-1.642c-.791 1.264-1.96 1.89-3.542 1.89-1.263 0-2.267-.39-3.011-1.169-.744-.78-1.122-1.831-1.122-3.154v-6.472h1.394v6.472c0 .945.248 1.677.743 2.185.496.508 1.205.78 2.114.78 1.051 0 1.889-.331 2.491-.992.638-.65.933-1.63.933-2.918zm9.989-5.778c1.499 0 2.775.532 3.837 1.607 1.063 1.063 1.606 2.374 1.606 3.921 0 1.547-.531 2.846-1.606 3.921-1.051 1.063-2.326 1.607-3.837 1.607-1.866 0-3.283-.768-4.251-2.315v2.067h-1.393v-14.741h1.393v6.272c.968-1.559 2.385-2.339 4.251-2.339zm-3.058 8.493c.803.803 1.783 1.204 2.952 1.204 1.168 0 2.148-.401 2.951-1.204.803-.827 1.205-1.819 1.205-2.965 0-1.169-.402-2.15-1.205-2.953-.803-.815-1.783-1.216-2.951-1.216-1.169 0-2.149.401-2.952 1.216-.803.803-1.205 1.784-1.205 2.953a4.214 4.214 0 0 0 1.205 2.965zm19.86-6.177v-2.067h1.393v10.535h-1.393v-2.066c-.969 1.547-2.385 2.315-4.251 2.315-1.5 0-2.787-.532-3.849-1.607-1.051-1.063-1.582-2.374-1.582-3.921 0-1.547.531-2.847 1.582-3.921 1.062-1.063 2.349-1.607 3.849-1.607 1.866.024 3.282.803 4.251 2.339zm-7.097 6.177c.803.803 1.783 1.205 2.952 1.205s2.149-.402 2.952-1.205a4.113 4.113 0 0 0 1.204-2.965c0-1.169-.401-2.149-1.204-2.952-.803-.815-1.783-1.217-2.952-1.217s-2.149.402-2.952 1.217c-.803.803-1.204 1.783-1.204 2.952 0 1.146.401 2.138 1.204 2.965zm13.142-11.48a.974.974 0 0 1-.295.72.971.971 0 0 1-.721.295.97.97 0 0 1-.72-.295.97.97 0 0 1-.295-.72c0-.284.094-.52.295-.721a.97.97 0 0 1 .72-.295c.284 0 .52.094.721.295.2.201.295.437.295.721zm-.319 13.771h-1.393v-10.535h1.393v10.535z" fill="#98CDED"/><path d="M66.001 143.273v221.829h22.753v79.431h13.141" stroke="#98CDED" stroke-width=".838" stroke-miterlimit="10"/><path d="M5.3 7.715V380.22h67.726v93.983H101.6" stroke="#98CDED" stroke-width=".838" stroke-miterlimit="10"/></svg>