<svg width="31" height="22" viewBox="0 0 31 22" fill="none" xmlns="http://www.w3.org/2000/svg"><path d="M2.094 20.738h27.044c.605 0 1.095-.448 1.095-1.001V2c0-.553-.49-1.001-1.095-1.001H2.094C1.49 1 1 1.448 1 2.001v17.736c0 .553.49 1 1.094 1z" stroke="#369CB7" stroke-width="1.4" stroke-miterlimit="10" stroke-linecap="round" stroke-linejoin="round"/><path d="M10.74 15.298V6.44c0-.34.32-.566.601-.426l8.902 4.43c.333.165.333.684 0 .85l-8.902 4.43c-.282.14-.602-.086-.602-.426zm4.875 5.332v-6.909m0-5.731V1.096" stroke="#369CB7" stroke-width="1.4" stroke-miterlimit="10" stroke-linecap="round" stroke-linejoin="round"/><path d="M10.578 7.03H3.78V4.91h8.864v1.75m-2.066 5.27H3.78V9.81h6.766m2.097 5.26v1.76H3.779V14.7h6.745M27.46 4.91h-8.865v2.125h8.864V4.909zm-8.399 4.9h8.402v2.12h-8.396m8.393 2.773h-8.865v2.126h8.864v-2.126z" stroke="#369CB7" stroke-width="1.4" stroke-miterlimit="10" stroke-linecap="round" stroke-linejoin="round"/></svg>