<svg width="48" height="48" viewBox="0 0 48 48" fill="none" xmlns="http://www.w3.org/2000/svg"><g clip-path="url(#a)" fill="#fff"><path d="M36.97 41.523c-.51 0-1.02-.17-1.445-.427l-8.328-5.47c-.255-.172-.34-.6-.17-.856s.594-.342.85-.17l8.328 5.47c.34.171.68.256 1.104.171.34-.085.68-.342.85-.684.34-.684.17-1.453-.51-1.88L26.092 30.41a3.052 3.052 0 0 0-1.7-.513h-5.439v1.453a2.473 2.473 0 0 1-2.464 2.48 2.474 2.474 0 0 1-2.465-2.48v-4.188c0-.599.34-1.197.935-1.539l4.76-2.222c.084 0 .17-.086.254-.086H32.89c.34 0 .595.257.595.599a.583.583 0 0 1-.595.598H20.143l-4.589 2.222a.47.47 0 0 0-.255.428v4.188c0 .684.595 1.282 1.275 1.282.68 0 1.275-.598 1.275-1.282V29.3c0-.342.255-.599.594-.599h6.034c.85 0 1.7.257 2.38.684l11.472 7.351c1.19.77 1.53 2.223.85 3.505-.34.598-.935 1.111-1.615 1.282h-.595z"/><path d="M32.125 43.404c-.51 0-1.02-.171-1.53-.428l-5.863-3.932c-.255-.17-.34-.598-.17-.854.17-.257.595-.342.85-.171l5.864 3.931c.34.257.764.342 1.104.257.425-.086.765-.342.935-.684.425-.684.255-1.624-.425-2.051l-5.354-3.505c-.255-.17-.34-.598-.17-.855.17-.256.595-.342.85-.17l5.354 3.504c1.275.855 1.615 2.479.765 3.761-.425.598-1.02 1.026-1.7 1.197h-.51z"/><path d="M28.13 45.797c-.51 0-1.019-.17-1.444-.427l-3.994-2.65c-.255-.171-.34-.599-.17-.855s.595-.342.85-.17l3.994 2.649c.68.427 1.53.256 1.954-.342.256-.342.34-.77.256-1.111-.085-.428-.256-.77-.595-1.026l-2.635-1.795c-.255-.171-.34-.598-.17-.855.17-.256.595-.342.85-.17l2.634 1.794a2.948 2.948 0 0 1 1.19 1.795c.085.77-.085 1.453-.51 2.052-.595.684-1.36 1.111-2.21 1.111z"/><path d="M23.202 47.421c-.51 0-.935-.085-1.36-.427l-.424-.257c-.255-.17-.34-.513-.17-.854.17-.257.51-.342.85-.171l.424.256c.595.427 1.445.256 1.87-.342.255-.342.34-.684.255-1.111-.085-.342-.255-.684-.595-.94l-1.02-.599c-.255-.17-.34-.598-.17-.855.17-.256.595-.341.85-.17l1.02.598c.595.427 1.02 1.026 1.19 1.71.17.683 0 1.453-.425 2.05-.68.685-1.445 1.112-2.295 1.112z"/><path d="M19.548 48.02c-.51 0-1.105-.171-1.53-.513a2.644 2.644 0 0 1-.934-1.71c-.085-.684.17-1.282.595-1.795l.17-.256c.85-.94 2.294-1.112 3.314-.257.51.428.85 1.026.935 1.71a2.215 2.215 0 0 1-.595 1.795l-.17.256c-.51.513-1.19.77-1.785.77zm.17-3.933c-.34 0-.68.171-.935.428l-.17.256c-.255.257-.34.599-.34.94 0 .343.17.599.425.855.51.428 1.19.342 1.615-.085l.17-.257c.255-.256.34-.598.34-.94 0-.342-.17-.598-.425-.855-.17-.256-.425-.342-.68-.342z"/><path d="M16.149 46.31c-.51 0-1.105-.171-1.53-.598-.51-.428-.85-1.026-.85-1.71-.085-.684.17-1.282.595-1.795l2.55-2.906c.85-1.026 2.379-1.111 3.399-.257l-.34.513.425-.427c.51.427.85 1.026.85 1.71.085.683-.17 1.281-.595 1.794l-2.55 2.907c-.68.513-1.36.769-1.954.769zm2.55-6.582c-.34 0-.68.171-.936.428l-2.55 2.906c-.254.256-.339.598-.339.94 0 .342.17.598.425.855.51.427 1.275.342 1.7-.086l2.549-2.906c.255-.256.34-.598.34-.94 0-.342-.17-.684-.425-.855-.255-.256-.51-.342-.765-.342z"/><path d="M13.599 43.575c-.51 0-1.105-.171-1.53-.513a2.645 2.645 0 0 1-.935-1.71c-.085-.684.085-1.282.51-1.88l.85-1.112c.85-1.025 2.38-1.196 3.485-.427.51.427.934 1.026.934 1.795.085.684-.17 1.368-.595 1.88l-.85 1.112c-.51.598-1.19.855-1.869.855zm.935-4.787c-.34 0-.765.17-1.02.513l-.85 1.11c-.255.257-.34.6-.255.941 0 .342.17.684.51.855.51.427 1.275.342 1.7-.171l.935-1.026c.255-.256.34-.598.34-.94 0-.342-.17-.684-.51-.94-.34-.257-.595-.342-.85-.342z"/><path d="M11.05 40.84c-.51 0-.935-.172-1.36-.428-.51-.428-.85-.94-.934-1.624-.085-.684.085-1.282.51-1.795l.424-.428c.765-.94 2.21-1.11 3.145-.341.51.341.85.94.934 1.538.085.598-.085 1.282-.51 1.71l-.34.512a2.4 2.4 0 0 1-1.869.855zm.425-3.933c-.34 0-.595.171-.85.428l-.425.427a1.45 1.45 0 0 0-.255.855c0 .342.17.598.425.77.51.341 1.19.256 1.53-.172l.34-.513a1.45 1.45 0 0 0 .255-.855.899.899 0 0 0-.425-.769c-.17-.085-.425-.17-.595-.17z"/><path d="M10.115 37.591a.648.648 0 0 1-.425-.17l-3.4-3.591c-.17-.17-.254-.513-.084-.77l6.119-8.718c.085-.171.255-.256.51-.256h5.948c.34 0 .595.256.595.598a.583.583 0 0 1-.595.598H13.09l-5.608 8.035 3.059 3.163c.255.256.255.598 0 .855a.467.467 0 0 1-.425.256zm31.018-1.881c-.68 0-1.36-.341-1.784-.94-1.53-2.308-4.844-7.35-6.714-10.172-.595-.94-.425-2.222.51-2.82l5.439-4.189c.255-.17.68-.17.85.086.17.256.17.683-.085.854l-5.44 4.189c-.34.256-.424.855-.17 1.197 1.87 2.82 5.185 7.864 6.714 10.172.255.427.85.512 1.19.256l4.42-2.82c.254-.172.679-.086.849.17.17.256.085.684-.17.855l-4.419 2.82c-.425.172-.85.343-1.19.343z"/><path d="M5.526 34.6c-.34 0-.68-.086-1.02-.257L.342 31.949c-.255-.17-.425-.512-.255-.854.17-.257.51-.428.85-.257l4.164 2.48c.425.256.935.085 1.19-.257l6.288-8.976c.255-.427.17-.94-.17-1.196L6.376 17.93c-.255-.17-.255-.598-.085-.855a.651.651 0 0 1 .85-.085l6.033 4.957c.85.684 1.02 1.966.34 2.821l-6.289 8.976c-.424.512-1.02.854-1.7.854zm31.103 2.393a.647.647 0 0 1-.425-.171c-.255-.257-.255-.599 0-.855l2.72-2.82c.254-.257.594-.257.85 0 .254.256.254.598 0 .854l-2.72 2.735c-.17.171-.34.257-.425.257z"/><path d="M3.487 31.437c-.085 0-.255 0-.34-.086-.255-.17-.34-.598-.17-.855l3.23-4.7c.17-.257.594-.343.85-.172.254.171.34.598.17.855l-3.23 4.701c-.085.086-.34.257-.51.257zm38.836.598c-.17 0-.425-.085-.51-.256l-3.06-4.873c-.17-.256-.084-.683.17-.854.255-.171.68-.086.85.17l3.06 4.873c.17.256.085.684-.17.855-.085.085-.17.085-.34.085zM23.457 20.837c-5.694 0-10.368-4.701-10.368-10.428 0-5.727 4.674-10.429 10.368-10.429 2.804 0 5.353 1.112 7.308 3.078.255.256.255.598 0 .855-.255.256-.595.256-.85 0-1.7-1.71-3.994-2.736-6.458-2.736-5.014 0-9.178 4.103-9.178 9.232s4.164 9.232 9.178 9.232c5.014 0 9.178-4.103 9.178-9.232 0-.513-.085-1.026-.17-1.539-.085-.342.17-.684.51-.684.34-.085.68.171.68.513.084.599.17 1.197.17 1.795 0 5.642-4.675 10.343-10.368 10.343z"/><path d="M16.489 9.212h-.17c-.34-.085-.51-.427-.425-.77.85-3.504 3.994-5.897 7.563-5.897 2.04 0 3.994.855 5.524 2.308.255.256.255.598 0 .855-.255.256-.595.256-.85 0-1.275-1.283-2.89-1.966-4.674-1.966-3.06 0-5.609 2.051-6.373 5.043a.64.64 0 0 1-.595.427z"/><path d="M23.457 17.247c-.17 0-.255-.085-.425-.17l-6.458-5.728a.66.66 0 0 1-.085-.855.65.65 0 0 1 .85-.085l5.948 5.3 9.348-11.882c.17-.256.595-.342.85-.085.255.17.34.598.085.854l-9.603 12.395c-.085.17-.255.256-.51.256.085 0 .085 0 0 0z"/></g><defs><clipPath id="a"><path fill="#fff" d="M0 0h48v48H0z"/></clipPath></defs></svg>