<svg width="142" height="142" viewBox="0 0 142 142" fill="none" xmlns="http://www.w3.org/2000/svg"><circle cx="71" cy="71" r="21" fill="#A81C4E" filter="url(#a)"/><circle cx="71" cy="71" r="21" fill="#EA286D"/><path d="M66.875 71.375c-1.25 0-2.267-.383-3.05-1.15-.783-.783-1.175-1.767-1.175-2.95 0-1.2.392-2.2 1.175-3 .783-.8 1.8-1.2 3.05-1.2 1.267 0 2.292.4 3.075 1.2.783.8 1.175 1.8 1.175 3 0 1.183-.392 2.167-1.175 2.95-.783.767-1.808 1.15-3.075 1.15zm.25 8.625H65.25L75.9 63.325h1.9L67.125 80zm11.975-.875c-.783.783-1.8 1.175-3.05 1.175-1.25 0-2.267-.392-3.05-1.175-.783-.783-1.175-1.767-1.175-2.95 0-1.2.392-2.2 1.175-3 .783-.8 1.8-1.2 3.05-1.2 1.25 0 2.267.4 3.05 1.2.8.8 1.2 1.8 1.2 3 0 1.183-.4 2.167-1.2 2.95zm-12.225-9.7c.583 0 1.058-.192 1.425-.575.367-.4.55-.925.55-1.575 0-.683-.183-1.225-.55-1.625-.367-.4-.842-.6-1.425-.6-.583 0-1.058.2-1.425.6-.367.4-.55.942-.55 1.625 0 .633.183 1.15.55 1.55.383.4.858.6 1.425.6zm7.75 8.35c.367.383.842.575 1.425.575.583 0 1.058-.192 1.425-.575.383-.4.575-.933.575-1.6 0-.683-.192-1.225-.575-1.625-.367-.4-.842-.6-1.425-.6-.583 0-1.058.2-1.425.6-.367.4-.55.942-.55 1.625 0 .667.183 1.2.55 1.6z" fill="#fff"/><defs><filter id="a" x="0" y="0" width="142" height="142" filterUnits="userSpaceOnUse" color-interpolation-filters="sRGB"><feFlood flood-opacity="0" result="BackgroundImageFix"/><feBlend in="SourceGraphic" in2="BackgroundImageFix" result="shape"/><feGaussianBlur stdDeviation="25" result="effect1_foregroundBlur_1933_26516"/></filter></defs></svg>