<svg width="45" height="45" viewBox="0 0 45 45" fill="none" xmlns="http://www.w3.org/2000/svg"><g clip-path="url(#a)"><path fill-rule="evenodd" clip-rule="evenodd" d="M31.884 9.393c3.831.89 5.297 3.13 7.135 6.214h-7.135V9.393zM9.49 15.866c.75 0 1.295.362 1.295 1.208 0 .714-.577 1.293-1.29 1.295H1.671a1.295 1.295 0 0 0 0 2.59h11.653a1.294 1.294 0 1 1 .005 2.59H1.672a1.295 1.295 0 1 0 0 2.589H4.52v3.884c0 .715.58 1.295 1.295 1.295h2.603a4.965 4.965 0 0 0 9.728 0h13.146a4.965 4.965 0 0 0 9.728 0h2.258c.715 0 1.294-.58 1.294-1.295v-7.769c0-3.799-4.007-4.05-4.01-4.057h-9.973c-.715 0-1.295-.58-1.295-1.295V9.133H5.815c-.715 0-1.295.58-1.295 1.295v2.848H2.967a1.295 1.295 0 1 0 0 2.59H9.49zm28.345 12.78c.927.927.927 2.43 0 3.357-1.491 1.491-4.053.43-4.053-1.679s2.562-3.17 4.053-1.678zm-22.875 0c.927.927.927 2.43 0 3.357-1.49 1.491-4.052.43-4.052-1.679s2.561-3.17 4.052-1.678z" fill="#FFF5F0"/></g><defs><clipPath id="a"><path fill="#fff" transform="translate(.377 .156)" d="M0 0h44.196v44.196H0z"/></clipPath></defs></svg>