<svg width="103" height="103" viewBox="0 0 103 103" fill="none" xmlns="http://www.w3.org/2000/svg"><g clip-path="url(#a)" fill="#EF7E20"><path d="M103 17.664l-.002-.034a1.458 1.458 0 0 0-.009-.133l-.008-.048a1.532 1.532 0 0 0-.022-.12l-.012-.046a1.768 1.768 0 0 0-.04-.125l-.008-.024-4.093-10.477a2.717 2.717 0 0 0-2.545-1.738h-7.453a1.47 1.47 0 1 0 0 2.941h7.31l3.257 8.339H68.581l-1.93-8.339h11.374a1.47 1.47 0 1 0 0-2.941H18.523a2.716 2.716 0 0 0-2.545 1.738l-4.093 10.477-.008.024a1.495 1.495 0 0 0-.075.29l-.007.049a1.494 1.494 0 0 0-.01.133v.034l-.001.005v21.608a1.47 1.47 0 1 0 2.941 0V19.14h31.176v22.356a2.229 2.229 0 0 0 2.224 2.225c.534 0 1.063-.192 1.477-.559l7.79-6.9 7.79 6.9c.653.58 1.591.723 2.389.364a2.23 2.23 0 0 0 1.312-2.03V19.14h31.175v65.97a1.916 1.916 0 0 1-1.914 1.913H71.177l-.003-.05a5.39 5.39 0 0 0-.017-.394 5.3 5.3 0 0 0 6.252-3.119 5.257 5.257 0 0 0-.19-4.41c-.012-.02-.023-.042-.034-.064a5.292 5.292 0 0 0-.188-.327c-.012-.021-.026-.041-.039-.062a5.288 5.288 0 0 0-.22-.32l-.004-.005a5.211 5.211 0 0 0-.242-.296l-.046-.053a5.204 5.204 0 0 0-.259-.268l-.053-.05a5.197 5.197 0 0 0-.289-.254l-.01-.008a5.202 5.202 0 0 0-.304-.226l-.057-.039a5.355 5.355 0 0 0-.32-.199l-.026-.017a5.269 5.269 0 0 0 1.431-2.002 5.257 5.257 0 0 0-.022-4.05 5.252 5.252 0 0 0-2.88-2.848l-22.89-9.334 10.655-3.298a4.832 4.832 0 0 0 3.183-6.026 4.723 4.723 0 0 0-1.614-2.331 4.952 4.952 0 0 0-4.063-.953l-.02.005c-.082.018-8.25 1.855-16.782 3.518a475.179 475.179 0 0 1-1.97.38l-.242.046a375.796 375.796 0 0 1-2.005.375c-10.714 1.974-13.723 2.009-14.558 1.896-.004 0-.007 0-.01-.002a3.175 3.175 0 0 1-.037-.005l-.024-.004a1.147 1.147 0 0 1-.141-.032l-.241-.098.3-.736a2.907 2.907 0 0 0-.012-2.241 2.907 2.907 0 0 0-1.593-1.576l-7.9-3.221a2.908 2.908 0 0 0-2.24.012 2.912 2.912 0 0 0-1.577 1.593L.216 69.62a2.931 2.931 0 0 0 1.607 3.818l7.9 3.22c.36.148.733.217 1.1.217a2.933 2.933 0 0 0 2.716-1.822l.072-.178 1.822.742.003.002a16.156 16.156 0 0 1 6.49 4.843 19.11 19.11 0 0 0 7.675 5.726l2.049.835H16.64a1.916 1.916 0 0 1-1.914-1.914v-3.722a1.47 1.47 0 1 0-2.942 0v3.722a4.861 4.861 0 0 0 4.856 4.856h22.224L57.81 97.69a5.26 5.26 0 0 0 1.992.392 5.301 5.301 0 0 0 4.907-3.294 5.26 5.26 0 0 0 .36-2.564 5.462 5.462 0 0 0 2.934-.389 5.244 5.244 0 0 0 2.275-1.87h27.866A4.86 4.86 0 0 0 103 85.108V17.663zM51.151 7.86h12.481l1.93 8.339h-16.34l1.93-8.339zm-4.948 8.34H15.408l3.258-8.339h29.466l-1.93 8.339zm19.739 23.706l-7.074-6.266a2.22 2.22 0 0 0-1.476-.56c-.527 0-1.055.187-1.476.56l-7.073 6.266V19.14h17.099v20.765zM10.82 73.93l-7.874-3.211 9.649-23.665 7.874 3.211L10.82 73.93zm58.76 8.875l-1.689-.688h-.002l-.002-.002-17.58-7.168a1.47 1.47 0 0 0-1.11 2.724l17.58 7.168c.073.03.144.064.212.1.02.01.038.023.056.033.049.028.097.055.143.085.022.015.042.032.063.047.04.03.082.058.12.09.023.018.044.04.067.059.034.03.069.06.101.092.022.022.042.046.064.07.03.031.06.062.087.096.021.025.04.052.06.079.025.033.051.065.074.1.02.028.037.058.055.087.02.034.043.067.062.102.017.031.032.064.048.096.016.035.035.068.05.104.015.033.027.068.04.103.013.035.028.069.04.104l.03.108.029.107c.008.036.013.073.02.11.007.036.014.073.019.11.005.037.007.074.01.111.003.038.007.075.008.112.002.037 0 .074 0 .111-.001.039 0 .077-.003.115-.002.037-.008.073-.012.11-.004.039-.007.078-.013.117-.006.036-.015.072-.023.107-.008.04-.015.08-.026.119-.01.035-.022.07-.033.104-.012.04-.024.079-.038.118a2.239 2.239 0 0 0-.037.08l-.006.02c-.23.53-.654.951-1.208 1.19a2.49 2.49 0 0 1-1.915.025l-3.114-1.27-.044-.016-.044-.02-14.298-5.83a1.47 1.47 0 1 0-1.11 2.724l14.298 5.83.046.016.041.02a2.353 2.353 0 0 1 1.29 3.063 2.352 2.352 0 0 1-3.065 1.29l-19.21-7.834h-.003l-8.996-3.67a16.147 16.147 0 0 1-6.49-4.842 19.114 19.114 0 0 0-7.674-5.726h-.001l-1.824-.744 3.632-8.909 3.433-8.419.253.104c.239.097.579.235 1.494.27 1.143.051 3.034-.068 6.421-.547 2.305-.325 5.132-.796 8.431-1.403l.244-.045.467-.087.367-.068.424-.08.456-.086.37-.07.567-.109.295-.056.889-.172a681.236 681.236 0 0 0 17.076-3.577c.037-.008.074-.012.11-.017.945-.14 1.871.406 2.142 1.288a1.882 1.882 0 0 1-1.24 2.352l-14.582 4.513a1.47 1.47 0 0 0-.12 2.767l26.696 10.886a2.334 2.334 0 0 1 1.279 1.265c.243.579.247 1.218.01 1.799a2.353 2.353 0 0 1-2.163 1.464h-.014c-.072 0-.143-.004-.215-.01-.02-.002-.041-.007-.063-.01-.054-.006-.109-.012-.163-.023-.034-.006-.068-.016-.102-.024-.04-.01-.081-.018-.121-.03-.042-.012-.083-.029-.124-.043-.033-.012-.066-.022-.098-.035L53.192 67.87a1.47 1.47 0 1 0-1.11 2.724l21.315 8.692a2.331 2.331 0 0 1 1.279 1.265 2.332 2.332 0 0 1-.402 2.46 2.247 2.247 0 0 1-.235.233c-.013.01-.025.024-.039.035a2.357 2.357 0 0 1-2.378.36l-2.043-.834z"/><path d="M21 49l-9-3.5L4.5 63l-3 8.5 3 1.5 7.5 3 1.5-3 2.5 1.5 6 3.5 5.5 5 22 9.5L56 96h5.5l1.5-2v-3h4l2-3v-3h5l1.5-2v-4L74 76l1.5-3-1.5-3.5L47.5 58l11-2.5 4.5-3V49l-4.5-1.5-21.5 5L25 54l-2.5-1.5L21 49z" fill-opacity=".29"/></g><defs><clipPath id="a"><path fill="#fff" d="M0 0h103v103H0z"/></clipPath></defs></svg>