<svg width="101" height="101" viewBox="0 0 101 101" fill="none" xmlns="http://www.w3.org/2000/svg"><path d="M54.887 49.67a1.479 1.479 0 0 0-1.225-.65h-4.14l2.351-5.877a1.48 1.48 0 1 0-2.747-1.099l-3.163 7.907a1.479 1.479 0 0 0 1.374 2.029h4.14l-2.351 5.877a1.48 1.48 0 1 0 2.747 1.1l3.163-7.907a1.48 1.48 0 0 0-.149-1.38z" fill="#EF7E20"/><path d="M10.207 51.038H2.15L1.074 65.543v7.521L2.15 81.66l3.76 5.91 4.298 5.372 6.984 4.298 8.059 2.686 9.133-1.075 6.984-2.686 6.447-5.372 5.372-8.059 2.149-10.744.537-6.984h5.91l2.686-2.15.537-24.175-4.298-2.686H38.681l-2.687 3.76v22.027l2.15 2.687 7.52.537v10.207l-1.611 5.373-5.91 6.446-5.91 2.687H25.25l-9.67-5.373-4.836-9.133V54.798l-.537-3.76z" fill="#EF7E20" fill-opacity=".29"/><path d="M92.842 8.475C87.588 3.137 80.584.129 73.12.004c-7.447-.127-14.557 2.764-20.018 8.134-5.608 5.516-8.825 13.146-8.825 20.935v5.715h-4.846a4.647 4.647 0 0 0-4.642 4.643v22.138a4.647 4.647 0 0 0 4.642 4.642h4.846v6.427c0 4.463-1.9 8.753-5.213 11.768-3.355 3.055-7.703 4.501-12.24 4.074-8.062-.758-14.377-7.941-14.377-16.352a1.48 1.48 0 0 0-2.959 0 19.73 19.73 0 0 0 4.843 12.961c3.174 3.644 7.512 5.895 12.216 6.337.618.058 1.232.087 1.842.087 4.703 0 9.145-1.713 12.667-4.919a18.918 18.918 0 0 0 6.18-13.956v-6.427h6.53v5.715c0 7.001-2.895 13.863-7.941 18.825-4.891 4.81-11.243 7.397-17.894 7.286-6.684-.112-12.957-2.807-17.663-7.588C5.555 85.662 2.96 79.337 2.96 72.638V52.08c0-.056.046-.102.102-.102h6.325c.056 0 .102.046.102.102v13.64a1.48 1.48 0 0 0 2.959 0V52.08a3.064 3.064 0 0 0-3.06-3.06H7.703v-8.01a1.48 1.48 0 0 0-2.96 0v8.01h-1.68A3.064 3.064 0 0 0 0 52.08v20.557c0 7.48 2.897 14.543 8.158 19.886 5.255 5.338 12.259 8.346 19.722 8.471.155.003.308.004.463.004 7.279 0 14.208-2.88 19.555-8.138 5.609-5.515 8.825-13.146 8.825-20.935V66.21h4.846a4.647 4.647 0 0 0 4.642-4.642V39.43a4.647 4.647 0 0 0-4.642-4.642h-4.846v-6.427c0-4.464 1.9-8.753 5.213-11.769 3.355-3.054 7.703-4.5 12.24-4.074 8.062.759 14.377 7.942 14.377 16.352a1.48 1.48 0 0 0 2.959 0 19.73 19.73 0 0 0-4.843-12.96c-3.173-3.644-7.512-5.895-12.216-6.338-5.378-.506-10.53 1.21-14.51 4.832a18.918 18.918 0 0 0-6.18 13.957v6.427h-6.528v-5.716c0-7 2.894-13.862 7.94-18.825 4.891-4.81 11.244-7.395 17.894-7.285 6.683.112 12.957 2.807 17.663 7.588 4.713 4.787 7.308 11.112 7.308 17.81v20.56a.102.102 0 0 1-.102.101h-6.325a.102.102 0 0 1-.102-.102V35.28a1.48 1.48 0 0 0-2.959 0v13.639a3.064 3.064 0 0 0 3.06 3.06h1.684v8.009a1.48 1.48 0 0 0 2.959 0v-8.009h1.683A3.064 3.064 0 0 0 101 48.92V28.362c0-7.48-2.897-14.543-8.158-19.887zM61.57 37.748c.928 0 1.683.755 1.683 1.683v22.138c0 .928-.755 1.683-1.683 1.683H39.43a1.685 1.685 0 0 1-1.683-1.683V39.431c0-.928.756-1.683 1.684-1.683H61.57zM4.384 35.607l-1.58-3.163a1.48 1.48 0 1 0-2.647 1.323l1.58 3.163a1.48 1.48 0 1 0 2.647-1.323z" fill="#EF7E20"/><path d="M11.628 31.783a1.48 1.48 0 0 0-1.985.661l-1.581 3.163a1.48 1.48 0 1 0 2.646 1.323l1.582-3.163a1.48 1.48 0 0 0-.662-1.984zm89.215 35.45l-1.58-3.163a1.48 1.48 0 1 0-2.647 1.324l1.58 3.162a1.48 1.48 0 1 0 2.647-1.323zm-8.568-3.823a1.48 1.48 0 0 0-1.984.661l-1.582 3.163a1.48 1.48 0 1 0 2.647 1.323l1.581-3.163a1.48 1.48 0 0 0-.662-1.984z" fill="#EF7E20"/></svg>