<svg width="101" height="101" viewBox="0 0 101 101" fill="none" xmlns="http://www.w3.org/2000/svg"><g clip-path="url(#a)" fill="#EF7E20"><path d="M47.586 74.742a1.708 1.708 0 0 0-2.387.366l-.211.287a1.708 1.708 0 0 0 2.75 2.025l.213-.29a1.708 1.708 0 0 0-.365-2.388z"/><path d="M48.031 90.987l-4.392-7.986 4.1-5.584a1.707 1.707 0 1 0-2.752-2.021l-4.746 6.463a1.708 1.708 0 0 0-.12 1.834l4.918 8.94a1.708 1.708 0 1 0 2.992-1.646zm12.726-9.127l-4.726-6.438a1.708 1.708 0 1 0-2.753 2.022l4.08 5.558-4.362 7.931a1.708 1.708 0 0 0 2.993 1.647l4.888-8.886a1.708 1.708 0 0 0-.12-1.834zm2.708-26.836a1.708 1.708 0 0 0-1.763.106 27.191 27.191 0 0 0-2.801 2.203c-4.596 4.154-8.962 3.592-9.133 3.567a1.668 1.668 0 0 0-.311-.02c-1.817.047-5.091-1.613-8.556-4.334a27.853 27.853 0 0 0-1.615-1.178 1.707 1.707 0 0 0-2.663 1.415v5.858a1.708 1.708 0 0 0 .788 1.439l12.109 8.09.006.005.032.021a1.708 1.708 0 0 0 1.905-.012l.017-.012.02-.013 12.08-8.072a1.707 1.707 0 0 0 .798-1.445v-6.106c0-.635-.351-1.217-.913-1.512zm-2.502 6.704L50.5 68.718l-10.463-6.99v-1.554c2.548 1.852 6.295 4.122 9.35 4.122h.02c1.025.114 6.256.422 11.555-4.227v1.659z"/><path d="M52.184 70.491a1.707 1.707 0 0 0-3.06-.73l-3.925 5.347a1.707 1.707 0 1 0 2.753 2.02l3.904-5.317a1.705 1.705 0 0 0 .328-1.32zM76.516 15.44c-.034-.267-.834-6.04-6.268-8.318.158-1.014.141-2.317-.502-3.585-.866-1.704-2.573-2.814-5.075-3.3a1.701 1.701 0 0 0-.326-.032h-22.92c-9.306 0-16.878 7.572-16.878 16.879v8.993c0 2.343.799 4.628 2.248 6.433.72.896 1.605 2.46 1.738 4.823a1.708 1.708 0 0 0 3.412-.097V25.511c1.16-4.796 5.118-5.729 5.798-5.855h7.414a8.34 8.34 0 0 0 2.549-.396c1.41-.452 3.646-1.284 5.274-1.903a4.95 4.95 0 0 1 3.396-.042l7.937 2.786c3.967 1.464 4.675 4.947 4.763 5.494v14.073a1.706 1.706 0 0 0 3.397.252c.007-.044.688-4.449 2.887-7.975a7.652 7.652 0 0 0 1.17-4.048V15.656a1.71 1.71 0 0 0-.014-.216zm-3.402 12.457c0 .762-.215 1.519-.623 2.192v-4.61c0-.062-.003-.124-.01-.185-.026-.248-.732-6.1-7.002-8.403a2.134 2.134 0 0 1-.023-.009l-7.95-2.79a8.366 8.366 0 0 0-5.739.073c-2.28.866-4.045 1.503-5.104 1.843a4.93 4.93 0 0 1-1.507.233h-7.551c-.073 0-.147.005-.22.014-.288.037-7.1 1.006-8.813 8.688a1.71 1.71 0 0 0-.041.372v3.515a6.938 6.938 0 0 1-.57-2.753v-8.993c0-7.424 6.04-13.463 13.464-13.463h22.748c.941.2 2.086.612 2.52 1.45.532 1.025-.074 2.436-.075 2.438a1.708 1.708 0 0 0 1.146 2.386c4.348 1.046 5.234 5.216 5.35 5.89v12.111z"/><path d="M72.48 25.294c-.026-.248-.732-6.1-7.002-8.404l-.023-.008-7.95-2.79a8.374 8.374 0 0 0-5.739.072c-2.28.866-4.045 1.504-5.104 1.844a4.926 4.926 0 0 1-1.507.232h-7.551c-.073 0-.147.005-.22.014-.289.038-7.1 1.006-8.814 8.689a1.71 1.71 0 0 0-.04.372v14.717c.01.51.372 12.553 8.692 18.06l.043.03a24.639 24.639 0 0 1 1.526 1.11c2.424 1.904 6.992 5.064 10.596 5.064h.02c.195.021.545.05 1.018.05 2.043 0 6.4-.535 10.764-4.48a23.803 23.803 0 0 1 2.45-1.925l.127-.089c.041-.03.083-.059.126-.088 2.776-1.864 7.583-6.674 8.592-17.945a1.91 1.91 0 0 0 .007-.152V25.478a1.81 1.81 0 0 0-.01-.184zM69.075 39.59c-.93 10.171-5.264 14.114-7.087 15.339a8.27 8.27 0 0 0-.193.133l-.095.067a27.202 27.202 0 0 0-2.801 2.203c-4.578 4.139-8.93 3.596-9.144 3.566a1.673 1.673 0 0 0-.3-.018c-1.816.046-5.09-1.613-8.555-4.334a27.728 27.728 0 0 0-1.615-1.178l-.042-.03a4.563 4.563 0 0 0-.13-.09C32.4 50.804 31.96 40.404 31.945 39.97V25.51c1.163-4.813 5.145-5.735 5.794-5.854h7.417c.872 0 1.73-.134 2.549-.396 1.41-.453 3.646-1.285 5.274-1.903a4.95 4.95 0 0 1 3.396-.043l7.936 2.787c3.968 1.463 4.676 4.947 4.764 5.494V39.59zM52.027 70.01a1.708 1.708 0 0 0-2.904-.248l-4.09 5.572a1.708 1.708 0 0 0 2.75 2.023l4.091-5.55c.216-.294.333-.669.333-1.034a1.71 1.71 0 0 0-.18-.764zm.11 27.494a1.707 1.707 0 0 0-2.387-.08l-.39.357a1.707 1.707 0 0 0-.339 2.093l.012.021a1.71 1.71 0 0 0 2.7.375l.377-.379a1.707 1.707 0 0 0 .027-2.387z"/><path d="M51.641 97.781l-.39-.357a1.708 1.708 0 0 0-2.36 2.468l.379.378a1.705 1.705 0 0 0 2.704-.386l.012-.021c.379-.69.236-1.55-.345-2.082z"/><path d="M51.67 97.807l-.002-.002a1.706 1.706 0 0 0-2.33-.003l-.006.005a1.707 1.707 0 0 0-.053 2.473l.018.018a1.706 1.706 0 0 0 2.411-.003l.018-.018a1.71 1.71 0 0 0-.056-2.47zm-.615-28.687a1.714 1.714 0 0 0-1.914.641 1.706 1.706 0 0 0 1.395 2.694 1.708 1.708 0 0 0 1.71-1.708v-.004c0-.744-.483-1.397-1.191-1.623z"/><path d="M51.886 69.747l-.014-.02a1.707 1.707 0 0 0-3.081 1.016v.029a1.707 1.707 0 0 0 1.711 1.7 1.708 1.708 0 0 0 1.384-2.725z"/><path d="M70.815 64.383a1.706 1.706 0 0 0-1.02-1.003l-6.548-2.347a1.706 1.706 0 0 0-1.526.187l-12.132 8.107-.01.007.953 1.416-.974-1.402a1.707 1.707 0 0 0-.434 2.436l8.882 12.096a1.707 1.707 0 0 0 2.873-.188l9.835-17.882c.241-.438.278-.96.1-1.427zm-11.64 15.32L52.934 71.2l9.97-6.662 3.853 1.381-7.58 13.783z"/><path d="M52.183 70.478a1.707 1.707 0 0 0-.73-1.123L39.28 61.22a1.709 1.709 0 0 0-1.526-.187l-6.548 2.347a1.707 1.707 0 0 0-.92 2.43l9.836 17.882a1.708 1.708 0 0 0 2.872.187l4.746-6.463.011-.016 4.125-5.618c.276-.375.386-.846.306-1.305zm-7.194 4.917l-.013.017-3.15 4.291-7.581-13.783 3.853-1.381 9.97 6.662-3.08 4.194zm55.926 18.14l-2.203-13.302a11.775 11.775 0 0 0-7.603-9.14l-21.311-7.71a1.708 1.708 0 0 0-2.11 2.368l4.45 8.923-4.366.067a1.707 1.707 0 0 0-1.486 2.5l1.79 3.42L49.75 97.424a1.82 1.82 0 0 0-.055.053l-.379.378a1.707 1.707 0 0 0-.29 2.027l.013.024c.3.548.874.888 1.499.888h44.22a6.228 6.228 0 0 0 4.76-2.204 6.228 6.228 0 0 0 1.397-5.056zm-4 2.847a2.821 2.821 0 0 1-2.156.998h-39.9l16.494-15.087c.572-.523.72-1.366.36-2.053l-1.114-2.127 4.305-.066a1.708 1.708 0 0 0 1.502-2.47l-3.755-7.53 17.297 6.258a8.357 8.357 0 0 1 5.396 6.486l2.203 13.302a2.82 2.82 0 0 1-.633 2.29z"/><path d="M51.684 97.82l-.02-.017a1.708 1.708 0 0 0-2.357.062l-.017.018a1.708 1.708 0 0 0 1.21 2.911h.038a1.707 1.707 0 0 0 1.146-2.973z"/><path d="M51.63 97.771a1.705 1.705 0 0 0-2.64.448l-.012.022a1.71 1.71 0 0 0 .27 2.009l.006.006a1.705 1.705 0 0 0 2.378.074l.018-.016a1.72 1.72 0 0 0 .377-.499 1.726 1.726 0 0 0-.398-2.044z"/><path d="M51.704 97.876l-.007-.007-.014-.014-.379-.378a1.342 1.342 0 0 0-.054-.052L32.923 80.66l1.791-3.42a1.708 1.708 0 0 0-1.486-2.5l-4.367-.066 4.45-8.924a1.708 1.708 0 0 0-2.109-2.368l-21.311 7.71a11.775 11.775 0 0 0-7.604 9.14L.084 93.535a6.23 6.23 0 0 0 1.398 5.055 6.231 6.231 0 0 0 4.76 2.205H50.5a1.708 1.708 0 0 0 1.204-2.919zM6.24 97.38a2.82 2.82 0 0 1-2.155-.999 2.821 2.821 0 0 1-.632-2.289L5.657 80.79a8.356 8.356 0 0 1 5.396-6.486l17.297-6.258-3.755 7.53a1.707 1.707 0 0 0 1.502 2.47l4.305.066-1.114 2.128a1.707 1.707 0 0 0 .36 2.052L46.142 97.38h-39.9z"/><path d="M56.312 76.847a1.708 1.708 0 0 0-.28-1.425l-4.156-5.66a1.702 1.702 0 0 0-1.908-.601c-.378.124-.69.375-.898.695l-4.08 5.535a1.709 1.709 0 0 0-.028 1.991l1.738 2.495-1.851 11.666c-.06.375.008.758.19 1.09l3.965 7.209a1.706 1.706 0 0 0 2.992 0l3.995-7.262a1.71 1.71 0 0 0 .211-.823c0-.09-.007-.18-.021-.269l-1.842-11.61 1.718-2.468c.118-.17.205-.362.255-.563zM50.5 95.476L48.313 91.5l1.867-11.767a1.706 1.706 0 0 0-.285-1.243l-1.43-2.055 2.04-2.77 2.052 2.795-1.414 2.03a1.707 1.707 0 0 0-.285 1.243l1.858 11.713-2.216 4.03z"/><path d="M63 62.5v-5l6.5-9.5 1-13V24.5l-4-5.5L55 15l-9.5 2.5H38L31.5 21l-1 7 1 21 6.5 8.5v5L50 71l13-8.5z" fill-opacity=".29"/></g><defs><clipPath id="a"><path fill="#fff" d="M0 0h101v101H0z"/></clipPath></defs></svg>