<svg width="400" height="126" viewBox="0 0 400 126" fill="none" xmlns="http://www.w3.org/2000/svg"><path d="M341.994 220l-63.005-46.681-65.3-35.241-56.756 32.7c-3.45 1.998-11.491 2.753-11.491 2.753l19.774 28.209-12.093 9.087-36.556-24.612-1.928-.865-1.267.29a604.893 604.893 0 0 1-8.803 1.949l-.441.095a5.052 5.052 0 0 1-3.984-.806l-1.053-.736 2.545-3.874 2.303-3.636-41.365-20.479 10.721-4.893 47.747 11.156 5.81 1.416 1.505-1.269c4.067-3.429 4.195-2.954 9.352-4.971 4.707-1.841 8.11-3.171 10.045-5.078.842-.83 2.61-2.173 5.013-3.864a68.95 68.95 0 0 0 3.013-.921 288.226 288.226 0 0 0 8.933-3.132 191.226 191.226 0 0 0 4.094-1.572c2.601-1.037 5.136-2.127 7.471-3.255a67.27 67.27 0 0 0 3.243-1.664c.358-.197.708-.394 1.049-.593a6309526 6309526 0 0 1 135.272-78.539c2.627-1.56 9.407-5.668 15.57-11.305 2.968-.89 5.171-1.477 6.163-1.615.992.217 1.645.443 2.038.606.381 1.356.766 5.275-4.026 12.177-2.952 4.265-9.117 10.918-21.726 18.416l-58.316 34.523 1.906 9.986 43.483 32.246 49.712 57.179-8.652 6.813zM165.471 109.003l-40.128-24.391L48 49.817l12.045-5.098 93.625 28.757 33.524 20.707c-7.103 4.559-15.731 10.272-21.723 14.82z" fill="#000015"/><path d="M313.35 63.38c0-1.737 1.225-3.851 2.737-4.725.801-.461 1.52-.484 2.022-.145l1.713.99-1.161 1.892c-.303 1.127-.995 2.262-1.855 3.025l-1.02 1.664-1.505-.877-.272-.159c-.411-.313-.659-.884-.659-1.665z" fill="#8B8B8B"/><path d="M315.043 64.357c0 1.737 1.225 2.435 2.74 1.561 1.512-.873 2.738-2.988 2.738-4.724 0-1.736-1.226-2.435-2.738-1.56-1.515.872-2.74 2.988-2.74 4.723z" fill="#8B8B8B"/><path d="M315.314 64.325c0 1.67 1.18 2.343 2.635 1.503 1.455-.841 2.636-2.875 2.636-4.545s-1.181-2.343-2.636-1.503c-1.455.841-2.635 2.876-2.635 4.545z" fill="#8B8B8B"/><path d="M315.93 63.913c0 1.205.851 1.691 1.903 1.084 1.05-.607 1.902-2.076 1.902-3.281 0-1.208-.852-1.693-1.902-1.086-1.052.607-1.903 2.077-1.903 3.283z" fill="#B0B0B0"/><path d="M316.057 63.772c0 1.093.771 1.532 1.724.982s1.723-1.882 1.723-2.975c0-1.093-.77-1.532-1.723-.982-.953.55-1.724 1.882-1.724 2.975z" fill="#B0B0B0"/><path d="M316.229 63.671c0 .982.694 1.38 1.551.884.857-.495 1.551-1.692 1.551-2.676 0-.982-.694-1.378-1.551-.884l-.231.154c-.668.499-1.197 1.41-1.301 2.236l-.019.286z" fill="#E8E8E8"/><path d="M317.218 64.155c.81-.468 1.469-1.602 1.469-2.532 0-.375-.108-.66-.289-.837.548-.042.931.364.931 1.094 0 .983-.694 2.18-1.551 2.676-.624.359-1.161.247-1.409-.22.241.055.533.003.849-.18z" fill="#B7B4A9"/><path d="M316.248 63.385c.162.236.472.282.827.076.525-.304.951-1.038.951-1.64 0-.407-.192-.65-.477-.671-.668.498-1.197 1.409-1.301 2.235z" fill="#F9F9F9"/><path d="M317.78 61.228l.713.413-1.406 2.282-.704-.405.481-1.148.916-1.142z" fill="#F9F9F9"/><path d="M316.828 63.324c0 .604.426.847.952.543.526-.303.951-1.038.951-1.642 0-.602-.425-.845-.951-.542-.526.304-.952 1.039-.952 1.641z" fill="#D5D2C9"/><path d="M319.384 62.106c-.004.13-.083.258-.251.361-.35.212-.928.226-1.292.028-.174-.096-.263-.224-.272-.354h-.004v-.013l-.588-24.86 1.808-.12.604 24.94v.017h-.005z" fill="#E8E8E8"/><path d="M316.215 65.052c0-1.737 1.226-3.852 2.738-4.726.8-.46 1.52-.483 2.02-.145l1.713.99-1.158 1.892c-.304 1.126-.996 2.261-1.857 3.026l-1.02 1.663-1.504-.877-.271-.159c-.412-.312-.661-.884-.661-1.664z" fill="#646464"/><path d="M317.906 66.028c0 1.736 1.226 2.436 2.739 1.562 1.513-.873 2.74-2.989 2.74-4.724 0-1.737-1.227-2.435-2.74-1.563-1.513.873-2.739 2.99-2.739 4.725z" fill="#646464"/><path d="M318.184 65.997c0 1.67 1.178 2.341 2.634 1.501 1.455-.84 2.635-2.874 2.635-4.543 0-1.67-1.18-2.343-2.635-1.504-1.456.842-2.634 2.875-2.634 4.546z" fill="#8B8B8B"/><path d="M318.793 65.584c0 1.206.851 1.692 1.902 1.085 1.051-.608 1.903-2.077 1.903-3.283s-.852-1.692-1.903-1.085c-1.051.607-1.902 2.076-1.902 3.283z" fill="#B0B0B0"/><path d="M318.922 65.442c0 1.092.77 1.533 1.723.984.952-.551 1.724-1.882 1.724-2.975 0-1.093-.772-1.532-1.724-.982-.953.549-1.723 1.88-1.723 2.973z" fill="#B0B0B0"/><path d="M319.094 65.341c0 .984.694 1.379 1.55.885.857-.495 1.552-1.693 1.552-2.675 0-.984-.695-1.38-1.552-.885l-.23.153c-.669.5-1.198 1.41-1.301 2.237l-.019.285z" fill="#E8E8E8"/><path d="M320.085 65.826c.81-.468 1.468-1.602 1.468-2.532 0-.376-.108-.662-.289-.837.549-.043.932.364.932 1.094 0 .982-.695 2.18-1.552 2.675-.624.36-1.161.248-1.408-.22.24.056.533.002.849-.18z" fill="#D3D3D3"/><path d="M319.115 65.056c.162.236.473.28.828.075.524-.303.95-1.038.95-1.642 0-.404-.192-.647-.477-.67-.669.5-1.198 1.41-1.301 2.237z" fill="#F9F9F9"/><path d="M320.646 62.9l.713.413-1.406 2.282-.703-.406.48-1.148.916-1.141z" fill="#F9F9F9"/><path d="M319.693 64.996c0 .602.426.845.952.542.525-.303.952-1.039.952-1.641 0-.603-.427-.846-.952-.543-.526.304-.952 1.038-.952 1.642z" fill="#BFBFBF"/><path d="M268.033 139.959c-.005.129-.084.257-.251.36-.351.212-.928.226-1.292.028-.175-.096-.264-.224-.273-.354h-.003v-.013l-.589-24.86 1.809-.12.603 24.939v.02h-.004zm-11-6c-.005.129-.084.257-.251.36-.351.212-.928.226-1.292.028-.175-.096-.264-.224-.273-.354h-.003v-.013l-.589-24.86 1.809-.12.603 24.939v.02h-.004z" fill="#E8E8E8"/><path d="M172 90.232c0-1.736 1.226-3.851 2.737-4.725.801-.461 1.52-.484 2.022-.145l1.713.99-1.16 1.892c-.304 1.127-.995 2.262-1.856 3.025l-1.02 1.664-1.505-.877-.271-.159c-.411-.313-.66-.884-.66-1.665z" fill="#8B8B8B"/><path d="M173.693 91.21c0 1.736 1.226 2.434 2.74 1.56 1.512-.873 2.739-2.988 2.739-4.724 0-1.735-1.227-2.435-2.739-1.56-1.514.872-2.74 2.988-2.74 4.723z" fill="#8B8B8B"/><path d="M173.965 91.177c0 1.67 1.18 2.343 2.635 1.503 1.454-.841 2.635-2.875 2.635-4.545s-1.181-2.343-2.635-1.503c-1.455.841-2.635 2.876-2.635 4.545z" fill="#8B8B8B"/><path d="M174.58 90.765c0 1.205.851 1.691 1.903 1.084 1.05-.607 1.903-2.076 1.903-3.281 0-1.208-.853-1.693-1.903-1.085-1.052.606-1.903 2.076-1.903 3.282z" fill="#B0B0B0"/><path d="M174.707 90.624c0 1.093.771 1.532 1.724.982s1.723-1.881 1.723-2.975c0-1.093-.77-1.532-1.723-.982-.953.55-1.724 1.882-1.724 2.975z" fill="#B0B0B0"/><path d="M174.879 90.523c0 .983.695 1.38 1.552.884.857-.495 1.55-1.692 1.55-2.675 0-.983-.693-1.379-1.55-.885l-.232.154c-.667.499-1.197 1.41-1.301 2.236l-.019.286z" fill="#E8E8E8"/><path d="M175.868 91.007c.811-.468 1.469-1.602 1.469-2.532 0-.375-.107-.66-.289-.837.548-.042.931.363.931 1.094 0 .983-.693 2.18-1.55 2.676-.624.36-1.162.247-1.409-.22.24.055.532.003.848-.18z" fill="#B7B4A9"/><path d="M174.898 90.237c.162.236.473.282.828.076.525-.304.95-1.038.95-1.64 0-.407-.191-.65-.477-.672-.667.5-1.197 1.41-1.301 2.236z" fill="#F9F9F9"/><path d="M176.43 88.08l.713.413-1.406 2.282-.704-.405.482-1.148.915-1.142z" fill="#F9F9F9"/><path d="M175.479 90.176c0 .604.425.847.951.543.526-.303.952-1.038.952-1.642 0-.602-.426-.845-.952-.542-.526.304-.951 1.039-.951 1.641z" fill="#D5D2C9"/><path d="M178.035 88.959c-.005.129-.084.257-.251.36-.351.212-.928.226-1.292.028-.175-.096-.264-.224-.273-.354h-.003v-.013l-.589-24.86 1.809-.12.603 24.94v.019h-.004z" fill="#E8E8E8"/><path d="M174.865 91.904c0-1.737 1.227-3.852 2.739-4.726.8-.46 1.52-.483 2.02-.144l1.712.99-1.158 1.89c-.303 1.127-.996 2.262-1.856 3.027l-1.021 1.663-1.503-.877-.272-.159c-.412-.312-.661-.884-.661-1.664z" fill="#646464"/><path d="M176.557 92.88c0 1.736 1.225 2.436 2.738 1.562 1.513-.873 2.74-2.989 2.74-4.724 0-1.737-1.227-2.435-2.74-1.564-1.513.875-2.738 2.991-2.738 4.726z" fill="#646464"/><path d="M176.834 92.849c0 1.67 1.179 2.341 2.635 1.501 1.455-.84 2.634-2.874 2.634-4.543 0-1.67-1.179-2.343-2.634-1.504-1.456.842-2.635 2.875-2.635 4.546z" fill="#8B8B8B"/><path d="M177.443 92.436c0 1.206.852 1.692 1.903 1.085 1.05-.608 1.903-2.077 1.903-3.283s-.853-1.692-1.903-1.085c-1.051.607-1.903 2.076-1.903 3.283z" fill="#B0B0B0"/><path d="M177.572 92.294c0 1.092.771 1.533 1.723.984.952-.551 1.725-1.882 1.725-2.975 0-1.093-.773-1.532-1.725-.982-.952.549-1.723 1.88-1.723 2.973z" fill="#B0B0B0"/><path d="M177.744 92.193c0 .984.694 1.379 1.551.885.857-.495 1.552-1.693 1.552-2.675 0-.984-.695-1.38-1.552-.884l-.231.152c-.668.5-1.198 1.41-1.3 2.237l-.02.285z" fill="#E8E8E8"/><path d="M178.736 92.678c.81-.468 1.467-1.602 1.467-2.532 0-.376-.107-.662-.289-.837.549-.043.933.364.933 1.094 0 .982-.695 2.18-1.552 2.675-.624.36-1.162.248-1.408-.22.239.056.533.002.849-.18z" fill="#D3D3D3"/><path d="M177.766 91.908c.162.236.472.28.827.075.525-.303.95-1.038.95-1.642 0-.404-.191-.647-.477-.67-.668.5-1.198 1.41-1.3 2.237z" fill="#F9F9F9"/><path d="M179.296 89.752l.713.413-1.406 2.282-.703-.406.481-1.148.915-1.141z" fill="#F9F9F9"/><path d="M178.344 91.848c0 .602.425.845.951.542.525-.303.952-1.039.952-1.641 0-.603-.427-.846-.952-.543-.526.304-.951 1.038-.951 1.642z" fill="#BFBFBF"/><path d="M162 83.232c0-1.736 1.226-3.851 2.737-4.725.801-.461 1.52-.484 2.022-.145l1.713.99-1.16 1.892c-.304 1.127-.995 2.262-1.856 3.025l-1.02 1.664-1.505-.877-.271-.159c-.411-.313-.66-.884-.66-1.665z" fill="#8B8B8B"/><path d="M163.693 84.21c0 1.736 1.226 2.434 2.74 1.56 1.512-.873 2.739-2.988 2.739-4.724 0-1.735-1.227-2.435-2.739-1.56-1.514.872-2.74 2.988-2.74 4.723z" fill="#8B8B8B"/><path d="M163.965 84.177c0 1.67 1.18 2.343 2.635 1.503 1.454-.841 2.635-2.875 2.635-4.545s-1.181-2.343-2.635-1.503c-1.455.841-2.635 2.876-2.635 4.545z" fill="#8B8B8B"/><path d="M164.58 83.765c0 1.205.851 1.691 1.903 1.084 1.05-.607 1.903-2.076 1.903-3.281 0-1.208-.853-1.693-1.903-1.085-1.052.606-1.903 2.076-1.903 3.282z" fill="#B0B0B0"/><path d="M164.707 83.624c0 1.093.771 1.532 1.724.982s1.723-1.881 1.723-2.975c0-1.093-.77-1.532-1.723-.982-.953.55-1.724 1.882-1.724 2.975z" fill="#B0B0B0"/><path d="M164.879 83.523c0 .983.695 1.38 1.552.884.857-.495 1.55-1.692 1.55-2.675 0-.983-.693-1.379-1.55-.885l-.232.154c-.667.499-1.197 1.41-1.301 2.236l-.019.286z" fill="#E8E8E8"/><path d="M165.868 84.007c.811-.468 1.469-1.602 1.469-2.532 0-.375-.107-.66-.289-.837.548-.042.931.363.931 1.094 0 .983-.693 2.18-1.55 2.676-.624.36-1.162.247-1.409-.22.24.055.532.003.848-.18z" fill="#B7B4A9"/><path d="M164.898 83.237c.162.236.473.282.828.076.525-.304.95-1.038.95-1.64 0-.407-.191-.65-.477-.672-.667.5-1.197 1.41-1.301 2.236z" fill="#F9F9F9"/><path d="M166.43 81.08l.713.413-1.406 2.282-.704-.405.482-1.148.915-1.142z" fill="#F9F9F9"/><path d="M165.479 83.176c0 .604.425.847.951.543.526-.303.952-1.038.952-1.642 0-.602-.426-.845-.952-.542-.526.304-.951 1.039-.951 1.641z" fill="#D5D2C9"/><path d="M168.035 81.959c-.005.129-.084.257-.251.36-.351.212-.928.226-1.292.028-.175-.096-.264-.224-.273-.354h-.003v-.013l-.589-24.86 1.809-.12.603 24.94v.019h-.004z" fill="#E8E8E8"/><path d="M164.865 84.904c0-1.737 1.227-3.852 2.739-4.726.8-.46 1.52-.483 2.02-.144l1.712.99-1.158 1.89c-.303 1.127-.996 2.262-1.856 3.027l-1.021 1.663-1.503-.877-.272-.159c-.412-.312-.661-.884-.661-1.664z" fill="#646464"/><path d="M166.557 85.88c0 1.736 1.225 2.436 2.738 1.562 1.513-.873 2.74-2.989 2.74-4.724 0-1.737-1.227-2.435-2.74-1.564-1.513.875-2.738 2.991-2.738 4.726z" fill="#646464"/><path d="M166.834 85.849c0 1.67 1.179 2.341 2.635 1.501 1.455-.84 2.634-2.874 2.634-4.543 0-1.67-1.179-2.343-2.634-1.504-1.456.842-2.635 2.875-2.635 4.546z" fill="#8B8B8B"/><path d="M167.443 85.436c0 1.206.852 1.692 1.903 1.085 1.05-.608 1.903-2.077 1.903-3.283s-.853-1.692-1.903-1.085c-1.051.607-1.903 2.076-1.903 3.283z" fill="#B0B0B0"/><path d="M167.572 85.294c0 1.092.771 1.533 1.723.984.952-.551 1.725-1.882 1.725-2.975 0-1.093-.773-1.532-1.725-.982-.952.549-1.723 1.88-1.723 2.973z" fill="#B0B0B0"/><path d="M167.744 85.193c0 .984.694 1.379 1.551.885.857-.495 1.552-1.693 1.552-2.675 0-.984-.695-1.38-1.552-.884l-.231.152c-.668.5-1.198 1.41-1.3 2.237l-.02.285z" fill="#E8E8E8"/><path d="M168.736 85.678c.81-.468 1.467-1.602 1.467-2.532 0-.376-.107-.662-.289-.837.549-.043.933.364.933 1.094 0 .982-.695 2.18-1.552 2.675-.624.36-1.162.248-1.408-.22.239.056.533.002.849-.18z" fill="#D3D3D3"/><path d="M167.766 84.908c.162.236.472.28.827.075.525-.303.95-1.038.95-1.642 0-.404-.191-.647-.477-.67-.668.5-1.198 1.41-1.3 2.237z" fill="#F9F9F9"/><path d="M169.296 82.752l.713.413-1.406 2.282-.703-.406.481-1.148.915-1.141z" fill="#F9F9F9"/><path d="M168.344 84.848c0 .602.425.845.951.542.525-.303.952-1.039.952-1.641 0-.603-.427-.846-.952-.543-.526.304-.951 1.038-.951 1.642z" fill="#BFBFBF"/><path d="M145.35 132.013l-8.954 5.175-16.341 9.44-15.196-7.521-29.403-14.557-.427-1.259 50.803 5.524 11.494 1.24 6.9 1.686 1.124.272z" fill="#D4D4D4"/><path d="M145.361 130.967l-8.035-1.957-48.99-11.449-13.303 5.733 45.017 22.287 25.311-14.614z" fill="#919396"/><path d="M81.469 126.481l10.613-4.063 47.954 10.871-19.986 12.292-38.581-19.1z" fill="#808285"/><path d="M197.157 58.775c0 5.052-3.57 7.088-7.975 4.546-4.405-2.544-7.975-8.701-7.975-13.756 0-5.053 3.57-7.09 7.975-4.545 4.405 2.541 7.975 8.7 7.975 13.755z" fill="#B2B2B2"/><path d="M196.372 59.425c0-5.399-3.544-11.151-8.249-13.866-2.302-1.329-3.608-2.057-5.14-1.24l-.023.011-.953.578s-3.127.424-10.177 5.414c-4.901 3.47 6.366 22.923 11.987 20.812 7.344-2.759 9.23-5.638 9.257-5.654 0 0 1.361-.74 2.09-1.729.9-1.223 1.208-2.86 1.208-4.326z" fill="#B2B2B2"/><path d="M186.332 65.652c0-5.4-3.814-11.977-8.518-14.692-2.961-1.71-5.568-1.482-7.095.267l-6.362 6.593 9.315 15.99 9.065-2.256c2.175-.514 3.595-2.608 3.595-5.902z" fill="#F3F1EE"/><path d="M176.395 69.225c0-4.212-2.973-9.343-6.644-11.462-2.22-1.282-4.186-1.167-5.393.056l-2.579 2.56 1.413 2.455c.453 3.459 2.639 7.252 5.417 9.407l1.466 2.549 3.598-.981c1.651-.434 2.722-2.055 2.722-4.584z" fill="#677E93"/><path d="M172.444 70.707c0-3.772-2.664-8.367-5.95-10.265-2.071-1.196-3.894-1.035-4.96.192v-.002l-1.93 2.141.963 1.697c.252 3.352 2.436 7.18 5.206 9.164l1.059 1.862 3.042-.654c1.553-.336 2.57-1.806 2.57-4.135z" fill="#8694A1"/><path d="M169.178 71.813c0 3.345-2.363 4.692-5.277 3.008-2.916-1.682-5.278-5.757-5.278-9.1 0-3.346 2.362-4.692 5.278-3.01 2.914 1.682 5.277 5.758 5.277 9.102z" fill="#CCC9C6"/><path d="M168.567 71.462c0 2.958-2.091 4.149-4.668 2.66-2.579-1.489-4.669-5.092-4.669-8.05 0-2.959 2.09-4.15 4.669-2.662 2.577 1.49 4.668 5.093 4.668 8.052z" fill="#BFBCB9"/><path d="M168.124 71.205v.055l-.009.272a4.471 4.471 0 0 1-.063.528l-.043.21a3.32 3.32 0 0 1-.18.552l-.066.14a2.434 2.434 0 0 1-.202.339c-.731 1.028-2.097 1.216-3.661.313-2.333-1.347-4.224-4.61-4.224-7.286 0-1.68.744-2.73 1.876-2.948.182-.035.376-.047.577-.038l.148.01a3.2 3.2 0 0 1 .487.088l.186.052c.136.044.277.096.419.158l.216.1c.105.051.209.107.315.168l.033.02.237.147.281.194.249.189.222.184.255.229.172.168.255.264.135.15.25.296.109.135c.082.105.163.212.241.32l.09.128c.077.112.155.228.229.343l.078.127c.075.118.145.24.214.361l.074.135c.069.124.134.25.195.375l.076.156c.059.127.116.256.171.385l.078.19c.05.13.099.259.143.389l.081.244c.04.126.077.252.109.38l.076.306c.026.12.05.24.071.36.023.127.042.255.056.383a6.255 6.255 0 0 1 .044.73z" fill="#A19E9C"/><path d="M190.077 50.559l-3.983-1.792c1.023-.513 2.01-.973 2.826-1.292l2.303 2.552s-.445.203-1.146.532z" fill="#B2B2B2"/><path d="M197.158 58.774c0 .414-.025.808-.072 1.18v.001c-.119.961-.389 1.78-.781 2.446-.4 1.007-1.016 1.768-1.799 2.252l-.017.011-.169.097-1.109.64-.121.07-.015.01c-.028.015-1.915 2.894-9.259 5.653l-.006.004a4.14 4.14 0 0 1-1.073.415l-9.065 2.256-3.56.971-.238.062-2.308.495-.074-.06c.543-.266.98-.724 1.273-1.352.126-.269.224-.569.295-.9.076-.367.118-.772.118-1.212 0-.26-.015-.525-.043-.792a10.013 10.013 0 0 0-.562-2.372c5.096-1.632 12.746-4.258 17.245-6.648 6.297-3.343 9.27-6.214 10.531-7.713.371 1.082.625 2.176.739 3.239.046.421.07.838.07 1.247z" fill="#EBE7E3"/><path d="M197.159 58.774c0 .414-.025.808-.072 1.18v.001c-.119.96-.389 1.78-.78 2.445-.401 1.008-1.017 1.769-1.8 2.253l-.017.011-.169.097-1.109.64-.121.07-.015.01c-.028.015-1.914 2.894-9.258 5.653l-.007.004a4.13 4.13 0 0 1-1.073.415l-9.065 2.256-3.56.97-.238.063-2.307.495-.652.14c.202-.044.395-.11.577-.2.544-.267.981-.724 1.273-1.352.126-.27.224-.57.295-.9.077-.368.118-.773.118-1.212 0-.26-.015-.525-.042-.792 4.316-1.212 10.145-3.083 17.185-5.905 4.785-1.917 8.464-5.137 10.767-7.59.046.422.07.838.07 1.248z" fill="#DED8D1"/><path d="M197.087 59.955c-.119.96-.389 1.78-.78 2.445-.401 1.008-1.017 1.769-1.8 2.253l-.017.011-.169.097-1.109.64-.121.07-.015.01c-.028.015-1.914 2.894-9.258 5.653l-.007.004a4.13 4.13 0 0 1-1.073.415l-9.065 2.256-3.56.97-.238.063-2.307.495-.652.14c.202-.044.395-.11.577-.2.544-.267.981-.724 1.273-1.352 4.918-1.188 13.597-3.355 16.764-4.59.365-.142 5.256-2.611 8.1-5.309 1.768-1.677 2.828-3.068 3.457-4.071z" fill="#CDC6BC"/><path d="M185.503 43.925a5.776 5.776 0 0 1 1.708.238c-.334-.088-2.257-.452-6.352 1.457-2.833 1.32-6.642 3.261-8.639 5.079-2.137 1.947-7.621 7.449-11.541 11.41a2.503 2.503 0 0 0-1.046.632l1.901-2.109.246-.252 2.578-2.56 6.361-6.593a4.107 4.107 0 0 1 1.102-.897l.009-.008c5.585-3.953 8.708-5.04 9.766-5.322l.978-.566.001.002c.822-.48 1.818-.661 2.928-.51z" fill="#DED8D1"/><path d="M187.265 44.18h-.001v-.001h.001z" fill="#D1177E"/><path d="M167.865 57.02s1.7 1.13 1.906.992c1.446-.975 5.863-6.218 8.735-7.956 4.296-2.602 11.678-3.03 11.678-3.03l-1.647-1.268c.064-.231-4.745-2.16-6.653-1.371-1.911.792-11.836 8.425-12.654 9.416-.429.519-.921 1.826-1.292 2.953l-.002.006a8.94 8.94 0 0 0-.071.258z" fill="#B2B2B2"/><path d="M169.771 58.013s7.363-4.979 10.641-6.963c4.296-2.602 10.324-3.938 10.324-3.938l-.293-.36c.064-.231-4.744-2.16-6.651-1.371-1.913.792-11.836 8.425-12.656 9.416-.429.518-.919 1.826-1.291 2.953l-.002.004-.072.259z" fill="#C9C9C9"/><path d="M196.821 59.38c0-5.278-3.728-11.708-8.326-14.363-2.315-1.337-4.41-1.46-5.921-.582l-1.359.785v.001c1.504-.834 3.569-.694 5.848.623 4.598 2.655 8.326 9.084 8.326 14.362 0 2.566-.882 4.386-2.316 5.275l1.247-.719.168-.097.017-.011c1.434-.888 2.316-2.71 2.316-5.274z" fill="#F9FAFB"/><path d="M168.567 71.462c0 2.958-2.091 4.149-4.668 2.66-2.579-1.489-4.669-5.092-4.669-8.05 0-2.959 2.09-4.15 4.669-2.662 2.577 1.49 4.668 5.093 4.668 8.052z" fill="#BFBCB9"/><path d="M168.124 71.205v.055l-.009.272a4.471 4.471 0 0 1-.063.528l-.043.21a3.32 3.32 0 0 1-.18.552l-.066.14a2.434 2.434 0 0 1-.202.339c-.731 1.028-2.097 1.216-3.661.313-2.333-1.347-4.224-4.61-4.224-7.286 0-1.68.744-2.73 1.876-2.948.182-.035.376-.047.577-.038l.148.01a3.2 3.2 0 0 1 .487.088l.186.052c.136.044.277.096.419.158l.216.1c.105.051.209.107.315.168l.033.02.237.147.281.194.249.189.222.184.255.229.172.168.255.264.135.15.25.296.109.135c.082.105.163.212.241.32l.09.128c.077.112.155.228.229.343l.078.127c.075.118.145.24.214.361l.074.135c.069.124.134.25.195.375l.076.156c.059.127.116.256.171.385l.078.19c.05.13.099.259.143.389l.081.244c.04.126.077.252.109.38l.076.306c.026.12.05.24.071.36.023.127.042.255.056.383a6.255 6.255 0 0 1 .044.73z" fill="#A19E9C"/><path d="M313.936 122.396c0 5.054-3.57 7.09-7.974 4.547s-7.974-8.701-7.974-13.754c0-5.055 3.57-7.09 7.974-4.547 4.404 2.542 7.974 8.701 7.974 13.754z" fill="#B2B2B2"/><path d="M313.151 123.047c0-5.398-3.544-11.15-8.248-13.866-2.302-1.329-3.607-2.056-5.14-1.239v-.001l-.023.013-.952.577s-3.129.424-10.179 5.414c-4.901 3.469 6.366 22.924 11.987 20.812 7.344-2.759 9.23-5.638 9.259-5.655 0 0 1.359-.739 2.087-1.727.901-1.224 1.209-2.861 1.209-4.328z" fill="#B2B2B2"/><path d="M303.112 129.274c0-5.398-3.814-11.976-8.519-14.692-2.961-1.709-5.568-1.482-7.095.268v-.001l-6.361 6.593 9.314 15.99 9.065-2.256c2.176-.515 3.596-2.607 3.596-5.902z" fill="#F3F1EE"/><path d="M293.179 132.85c0-4.213-2.975-9.344-6.646-11.463-2.22-1.282-4.186-1.168-5.392.055h-.001l-2.578 2.561 1.412 2.455c.453 3.458 2.638 7.252 5.417 9.408l1.466 2.548 3.598-.982c1.652-.435 2.724-2.055 2.724-4.582z" fill="#677E93"/><path d="M289.223 134.328c0-3.77-2.664-8.367-5.95-10.263-2.07-1.195-3.894-1.035-4.959.19v-.001l-1.931 2.142.964 1.697c.252 3.352 2.436 7.182 5.207 9.163l1.058 1.863 3.043-.654h-.001c1.553-.337 2.569-1.806 2.569-4.137z" fill="#8694A1"/><path d="M285.958 135.436c0 3.345-2.362 4.693-5.277 3.009-2.915-1.683-5.277-5.757-5.277-9.102 0-3.345 2.362-4.692 5.277-3.009 2.915 1.683 5.277 5.758 5.277 9.102z" fill="#CCC9C6"/><path d="M285.349 135.085c0 2.957-2.089 4.149-4.668 2.661-2.578-1.489-4.667-5.093-4.667-8.052 0-2.957 2.089-4.148 4.667-2.661 2.579 1.49 4.668 5.093 4.668 8.052z" fill="#BFBCB9"/><path d="M298.817 118.299a17.697 17.697 0 0 0-2.292-2.353c1.055-.7 6.231-3.702 9.176-4.848l2.304 2.551s-6.98 3.196-9.188 4.652" fill="#B2B2B2"/><path d="M290.084 123.973c-.239-.191-1.729-1.615-1.729-1.615s3.524-3.324 8.168-6.412a17.697 17.697 0 0 1 2.292 2.353v.002c-2.21 1.453-8.731 5.672-8.731 5.672z" fill="#F8F7F5"/><path d="M313.935 122.396c0 .415-.023.808-.069 1.181v.002c-.121.959-.39 1.779-.783 2.445-.398 1.007-1.016 1.768-1.797 2.252v.001l-.019.011-.169.096-1.11.641-.118.07-.016.008h-.002c-.027.016-1.913 2.895-9.256 5.655l-.008.002c-.332.187-.69.326-1.073.416l-9.064 2.256-3.559.97-.239.063-2.308.495-.075-.06c.544-.266.981-.724 1.274-1.351.126-.27.225-.57.293-.901.078-.368.119-.772.119-1.212 0-.26-.014-.524-.042-.791a10.043 10.043 0 0 0-.562-2.374c5.094-1.63 12.745-4.257 17.245-6.647 6.296-3.343 9.269-6.215 10.53-7.713.371 1.084.624 2.176.74 3.239.045.421.068.838.068 1.246z" fill="#B2B2B2"/><path d="M313.939 122.396c0 .415-.023.808-.069 1.181v.001c-.121.96-.39 1.78-.783 2.446-.398 1.007-1.016 1.768-1.797 2.252v.001l-.019.011-.169.096-1.11.641-.119.07-.015.007h-.002c-.027.017-1.913 2.896-9.256 5.655l-.008.003c-.332.187-.69.326-1.073.416l-9.064 2.256-3.559.97-.239.063-2.308.495-.652.14c.202-.044.396-.111.577-.201.544-.266.981-.723 1.274-1.351.126-.269.225-.569.293-.9.078-.369.119-.772.119-1.212 0-.26-.014-.524-.042-.791 4.316-1.214 10.145-3.084 17.184-5.906 4.786-1.918 8.464-5.137 10.769-7.589.045.421.068.838.068 1.246z" fill="#B2B2B2"/><path d="M313.87 123.578c-.121.96-.39 1.78-.783 2.446-.398 1.007-1.016 1.768-1.797 2.252v.001l-.019.011-.169.096-1.11.641-.119.07-.015.007h-.002c-.027.017-1.913 2.896-9.256 5.655l-.008.003c-.332.187-.69.326-1.073.416l-9.064 2.256-3.559.97-.239.063-2.308.495-.652.14c.202-.044.396-.111.577-.201.544-.266.981-.723 1.274-1.351 4.918-1.187 13.596-3.355 16.764-4.589.365-.142 5.254-2.612 8.1-5.309 1.766-1.678 2.829-3.069 3.458-4.072z" fill="#CDC6BC"/><path d="M302.286 107.548a5.74 5.74 0 0 1 1.708.238c-.336-.089-2.258-.453-6.353 1.456-2.834 1.32-6.643 3.262-8.64 5.079-2.137 1.946-7.621 7.449-11.541 11.411-.397.123-.75.336-1.046.631l1.901-2.11.247-.251 2.577-2.561 6.362-6.591a4.119 4.119 0 0 1 1.1-.897l.01-.008c5.586-3.954 8.71-5.041 9.766-5.322l.979-.566.002.001c.821-.48 1.817-.659 2.928-.51z" fill="#B2B2B2"/><path d="M284.646 120.641s1.701 1.133 1.906.993c1.446-.973 5.863-6.216 8.735-7.955 4.296-2.602 11.678-3.03 11.678-3.03l-1.647-1.268c.064-.231-4.744-2.16-6.652-1.371-1.912.791-11.835 8.425-12.655 9.416-.429.519-.921 1.826-1.291 2.953l-.003.007-.071.255z" fill="#B2B2B2"/><path d="M286.551 121.634s7.363-4.976 10.64-6.962c4.296-2.602 10.325-3.939 10.325-3.939l-.294-.358c.064-.232-4.744-2.161-6.651-1.372-1.912.792-11.837 8.425-12.655 9.417-.428.518-.92 1.825-1.291 2.953l-.002.005c-.047.161-.072.256-.072.256z" fill="#C9C9C9"/><path d="M313.603 123.002c0-5.277-3.728-11.708-8.327-14.363-2.316-1.337-4.411-1.46-5.921-.581v-.001l-1.359.785h.001c1.503-.833 3.568-.692 5.847.623 4.599 2.656 8.328 9.085 8.328 14.363 0 2.566-.882 4.386-2.317 5.274v.001l1.246-.72.167-.096.019-.01v-.001c1.435-.889 2.316-2.709 2.316-5.274z" fill="#F9FAFB"/><path d="M285.349 135.085c0 2.957-2.089 4.149-4.668 2.661-2.578-1.489-4.667-5.093-4.667-8.052 0-2.957 2.089-4.148 4.667-2.661 2.579 1.49 4.668 5.093 4.668 8.052z" fill="#BFBCB9"/><path d="M246.645 71.991l-16.631-1.059-54.867-24.66L59.145 25.337l1.255 2.989 74.263 33.41 62.684 38.718 49.298-28.462z" fill="#D4D4D4"/><path d="M246.645 69.568l-16.631-1.059-54.867-24.66-100.113-25.24-15.89 6.727 75.519 33.976 62.684 38.718 49.298-28.462z" fill="#A1A2A4"/><path d="M75.033 18.61L65.843 0l-10.52 4.479 3.82 20.857 15.89-6.726z" fill="#696C70"/><path d="M181.114 87.798l-.484-.839 4.652-2.687-40.701-24.192-4.303 2.484-.485-.839 4.795-2.767 42.61 25.326-6.084 3.514zm-63.72-35.945l-.485-.838 3.643-2.102-44.987-19.335-3.366 1.943-.484-.84 3.785-2.186.223.095 46.986 20.196-5.315 3.067z" fill="#F3F1EE"/><path d="M75.032 18.61l-3.225 1.367 97.826 27.476 53.884 25.207 23.126-3.092-16.631-1.06-54.866-24.66L75.032 18.61z" fill="#B4B4B4"/><path d="M338.774 41.437c-6.766 9.769-19.151 17.29-22.931 19.537 0 0-128.566 74.643-135.272 78.539-1.842 1.067-3.915 2.113-6.144 3.122-5.853 2.675-12.677 5.097-18.646 7.094-8.239 2.771-32.97 7.947-32.97 7.947l-1.687-2.442-.969-1.397-2.792-4.011s34.638-28.377 42.623-36.246c7.986-7.87 39.774-27.291 39.774-27.291l47.45-27.543.058-.019 50.898-29.56s9.285-4.575 21.787-6.57c.891-.146 1.894-.049 2.91.048 1.015.098 2.042.195 2.983.048 5.583-.833 9.478-.62 12.113-.135 0 0 .233.04.6.135 1.882.408 3.025.951 3.587 1.3a4.9 4.9 0 0 1 .465.329s4.206 5.524-3.837 17.115z" fill="#686A6C"/><path d="M338.775 41.437c-6.766 9.768-19.151 17.29-22.931 19.537 0 0-128.566 74.643-135.272 78.539-6.726 3.897-16.553 7.463-24.79 10.216-8.239 2.771-32.97 7.947-32.97 7.947l-1.687-2.442-.969-1.397c7.908-3.139 49.542-19.634 57.47-23.801 8.76-4.595 116.587-66.87 140.816-81.485 24.228-14.615 21.922-19.752 23.143-22.407.93-2.073-1.783-3.101-3.025-3.45 1.882.407 3.025.95 3.587 1.3.329.212.465.328.465.328s4.206 5.524-3.837 17.115z" fill="#686A6C"/><path d="M338.771 41.437c-6.766 9.768-19.151 17.29-22.931 19.537 0 0-128.566 74.643-135.272 78.539-6.726 3.897-16.553 7.463-24.79 10.216-8.239 2.771-32.97 7.947-32.97 7.947l-1.687-2.442c.078-.447.116-.718.116-.718s49.256-16.518 57.65-21.208c8.391-4.691 136.278-77.803 151.496-88.714C345.598 33.7 342.046 24.11 342.046 24.11l.097-.116c.329.213.465.329.465.329s4.206 5.524-3.837 17.115z" fill="#626568"/><path d="M323.286 23.543s6.663 3.304-7.876 10.462c-14.536 7.156-144.565 83.331-151.206 89.319-6.642 5.989-40.346 26.956-42.23 26.668-1.883-.289 2.476-5.495 5.869-8.888 3.391-3.392 32.664-27.214 36.361-29.517 3.696-2.304 128.867-77.25 134.93-80.642 6.06-3.393 12.749-7.722 24.152-7.402z" fill="#707275"/><path d="M343.725 28.078c-.139 2-.394 6.712-4.933 13.366-6.421 9.408-19.19 17.287-22.937 19.544 0 0-128.571 74.624-135.296 78.531-6.701 3.888-16.544 7.448-24.781 10.215-8.238 2.748-32.972 7.936-32.972 7.936l-1.419-2.048c.372.117.628.372.628.372s54.157-17.098 57.601-19.332c3.466-2.257 116.081-65.242 136.859-79.041 20.242-12.93 24.013-18.196 26.97-28.729.144-.511.186-.79.186-.79l.094-.024z" fill="#515558"/><path d="M274.575 82.276c-.057.079-.135.194-.232.311-4.091 5.699-5.564 11.57-18.317 19.556-13.18 8.219-29.229 15.856-40.82 21.187-4.593 2.111-16.106 5.426-16.106 5.426s2.17-4.4 4.128-6.785v-.018c.252-.31.503-.582.755-.813 3.76-3.452 17-11.359 17-11.359l47.7-27.505h5.892z" fill="#fff"/><path d="M274.343 82.587c-4.091 5.699-5.564 11.57-18.317 19.556-13.18 8.219-29.229 15.856-40.82 21.187-4.593 2.111-16.106 5.426-16.106 5.426s2.17-4.4 4.128-6.785c-.059.254-.407 2.521 3.023 2.424 3.644-.097 16.921-7.559 16.921-7.559l-2.189-5.156s28.163-7.171 33.377-9.943c5-2.675 17.734-16.145 19.983-19.15z" fill="#D4D4D4"/><path d="M270.274 85.635l1.834 9.602 42.713 31.676 42.176 55.769 1.537-.393v2.424l-11.65 9.174-58.848-43.6-65.718-35.466-1.332-3.14 49.288-26.046z" fill="#D4D4D4"/><path d="M320.781 22.52s3.641.023 5.129 1.363c1.569 1.416.275 4.68-2.88 7.864-.68.687 1.953 2.669 2.775 2.182 3.747-2.217 4.29-3.95 4.536-5.667.281-1.943-.27-3.129-.815-3.759-1.235-1.428-3.423-1.855-3.423-1.855l-.768.097-4.554-.225z" fill="#C6C8C9"/><path d="M270.271 83.21l1.834 9.602 42.714 31.676 43.712 57.801-11.649 9.173-58.849-43.6-67.058-36.191 49.296-28.461z" fill="#A1A2A4"/><path d="M283.371 145.177l-.483-.839 3.807-2.198-41.899-23.499-5.129 2.961-.485-.838 5.606-3.239.241.135 43.627 24.466-5.285 3.051z" fill="#F3F1EE"/><path d="M358.531 182.289l-2.365 1.863-47.591-56.481-43.661-31.11 5.357-13.352 1.834 9.602 42.714 31.677 43.712 57.801z" fill="#B4B4B4"/><path d="M118.168 101.027l10.74-4.705c4.933-2.161 9.288-1.333 11.715 2.243 4.416 6.504 11.784 16.236 16.5 16.5 7.099.397 6.374-.325 6.374-.325l.686.445-43.828 33.153-.685-.445 9.419-13.029-5.642-14.586-5.279-19.251z" fill="#FCFBFA"/><path d="M204.083 121.961c-.728 2.85 5.026.822 7.45-.224 2.422-1.046 10.236-5.891 10.236-5.891l-1.453-4.603s-14.901 8.655-16.233 10.718z" fill="#fff"/><path d="M204.805 109.872c-.408 0-.772-.285-.931-.726l-.869-2.41c-.216-.601.003-1.297.499-1.584l1.647-.95a.88.88 0 0 1 .45-.124c.407 0 .773.284.931.725l.87 2.411c.217.601-.003 1.297-.499 1.583l-1.646.95a.881.881 0 0 1-.452.125z" fill="#DEDEDE"/><path d="M203.633 105.373l1.646-.951c.388-.225.843-.015 1.017.468l.869 2.41c.175.483 0 1.055-.388 1.278l-1.645.95c-.388.225-.843.015-1.018-.467l-.868-2.41c-.175-.482-.001-1.055.387-1.278z" fill="#686A6C"/><path d="M196.643 114.585c-.407 0-.772-.285-.93-.726l-.87-2.41c-.217-.602.003-1.297.499-1.584l1.646-.951a.903.903 0 0 1 .451-.123c.408 0 .773.285.931.724l.871 2.412c.216.601-.003 1.296-.5 1.583l-1.646.951a.887.887 0 0 1-.452.124z" fill="#DEDEDE"/><path d="M195.468 110.084l1.648-.951c.387-.223.842-.013 1.017.469l.868 2.41c.174.483.001 1.056-.387 1.279l-1.646.951c-.388.224-.843.015-1.017-.468l-.869-2.41c-.175-.483-.001-1.055.386-1.28z" fill="#686A6C"/><path d="M187.773 115.587l-3.698 2.028c-.224.13-.285 1.029.124 2.19.015.034 1.472 3.37 2.195 6.793.119.558.079 1.634.046 2.584-.023.642-.049 1.425.002 1.674l4.162-2.296c.279-.194.864-3.064.5-4.659-.903-3.957-2.164-6.718-2.182-6.755-.328-.937-.756-1.467-1.011-1.561l-.073-.015-.065.017zm-1.407 15.311l.002-.001-.002.001zm-.052.221c-.17-.101-.179-.484-.127-1.947.034-.934.07-1.994-.04-2.521-.72-3.397-2.165-6.711-2.183-6.753-.355-1.012-.485-2.234-.016-2.502l3.702-2.031a.397.397 0 0 1 .349-.016c.391.143.846.817 1.159 1.701.013.028 1.285 2.81 2.193 6.794.356 1.564-.186 4.684-.623 4.936l-4.238 2.338-.091.026-.085-.025zm109.5-78.911l-3.57 2.156c-.217.14-.256 1.063.17 2.241.015.034 1.51 3.409 2.29 6.889.127.566.114 1.663.102 2.635-.008.655-.018 1.452.036 1.71l4.01-2.438c.269-.205.778-3.155.39-4.775-.969-4.023-2.26-6.814-2.277-6.85-.332-.917-.766-1.486-1.025-1.575l-.065-.012-.061.019zm-1.092 15.903c-.17-.095-.188-.486-.17-1.986.012-.956.026-2.038-.095-2.576-.775-3.454-2.257-6.807-2.277-6.85-.37-1.021-.52-2.264-.071-2.55l3.571-2.157a.386.386 0 0 1 .341-.03c.387.132.85.81 1.178 1.716.013.028 1.315 2.84 2.29 6.889.38 1.588-.082 4.782-.503 5.05l-4.088 2.486-.096.03-.08-.022z" fill="#D6D6D6"/><path d="M310.924 48.603c-.408 0-.773-.284-.933-.726l-.868-2.41c-.218-.602.003-1.297.499-1.584l1.647-.95a.887.887 0 0 1 .45-.124c.408 0 .772.284.931.725l.869 2.41c.218.602-.003 1.298-.498 1.584l-1.647.95a.89.89 0 0 1-.45.125z" fill="#B3B3B3"/><path d="M309.749 44.101l1.645-.95c.388-.223.843-.014 1.018.468l.868 2.412c.175.482.001 1.053-.388 1.278l-1.645.95c-.388.224-.843.014-1.018-.468l-.868-2.41c-.175-.482 0-1.055.388-1.28z" fill="#C6C8C9"/><path d="M302.76 53.315c-.408 0-.773-.285-.932-.724l-.87-2.411c-.216-.602.003-1.297.5-1.584l1.646-.95a.887.887 0 0 1 .452-.125c.406 0 .773.284.93.726l.87 2.41c.216.602-.003 1.297-.499 1.585l-1.647.95a.9.9 0 0 1-.45.123z" fill="#B3B3B3"/><path d="M301.585 48.815l1.648-.95c.386-.224.842-.015 1.016.467l.869 2.411c.174.482.001 1.055-.387 1.28l-1.647.95c-.386.223-.843.014-1.016-.469l-.87-2.41c-.173-.483 0-1.055.387-1.28z" fill="#C6C8C9"/><path d="M122.688 151.692l-1.433-1.103a.298.298 0 0 0-.019-.018l.739-.579h.001c.012.003.027.003.042.003.95 0 7.181-3.531 14.635-8.098-8.023 5.637-13.965 9.795-13.965 9.795zM325.487 28.674c-.329-.092-.612-.15-.806-.15a.671.671 0 0 0-.112.009c-.163.026-.527.042-1.061.075 1.251-1.41 1.441-2.515 1.227-3.327.358.012.554.028.554.028h.001c.025 0 .519.003 1.285.104.033.915-.352 2.044-1.088 3.261z" fill="#7F8182"/><path d="M122.016 149.995a.267.267 0 0 1-.042-.003h-.001c6.195-4.852 49.32-38.579 57.526-43.829 8.845-5.661 124.468-74.94 128.542-77.04 4.073-2.098 5.791-2.51 9.895-3.297a31.826 31.826 0 0 1 5.894-.562c.365 0 .668.007.904.016.213.813.024 1.918-1.228 3.328a33.85 33.85 0 0 0-13.628 3.72c-6.064 3.14-124.921 74.683-131.624 79.928-4.365 3.417-26.615 19.11-41.603 29.641-7.454 4.566-13.684 8.098-14.635 8.098z" fill="#7F8182"/><path d="M342.604 24.317c-.002-.002-.006-.004-.01-.009l.012.006-.002.003z" fill="#D0DDFF"/><path d="M329.854 30.08c.279-.62.401-1.22.487-1.818.1-.688.094-1.282.023-1.789.082.037.163.074.245.113a1.915 1.915 0 0 1-.25-.144 4.447 4.447 0 0 0-.192-.796c.7-1.009 4.452-2.103 8.023-2.103.939 0 1.865.075 2.719.248.473.374.823.844.863 1.424-1.003.943-2.951 2.432-6.077 3.488a32.777 32.777 0 0 1-5.841 1.377z" fill="#7F8182"/><path d="M341.769 25.214c-.04-.58-.39-1.05-.863-1.424a9.02 9.02 0 0 1 1.149.308l-.009.012s.085.228.172.655c-.12.129-.27.28-.449.45z" fill="#7F8182"/><path d="M342.221 24.764c-.088-.427-.172-.655-.172-.655l.009-.011c.185.064.364.133.537.21l.011.009a5.636 5.636 0 0 1-.385.447z" fill="#7F8182"/><path d="M329.246 30.153s-2.33-1.075-3.76-1.479c.736-1.218 1.121-2.346 1.088-3.261.962.128 2.355.415 3.788 1.06a6.25 6.25 0 0 1-.023 1.79c-.085.597-.207 1.196-.487 1.817-.387.052-.606.073-.606.073zm1.112-3.71c-.346-.243-.386-.517-.192-.797.081.237.148.502.192.796z" fill="#DFDFDF"/><path d="M118.855 101.472l10.74-4.705c4.934-2.162 9.287-1.333 11.715 2.242 4.415 6.505 11.783 16.243 16.499 16.5 5.968.325 6.375-.324 6.375-.324l-9.77 8.898-34.058 24.255 9.421-13.029-5.643-14.588-5.279-19.249z" fill="#5D37FF"/><path d="M128.737 97.142l11.299 14.101 6.503 11.175 7.875 1.665-34.058 24.255 9.421-13.029-5.643-14.588-5.279-19.249 9.882-4.33z" fill="#707275"/><path d="M225.654 91.161l-.186 3.673-.121 2.903a10.47 10.47 0 0 1-.178 1.58 5.47 5.47 0 0 1-.285.927 5.702 5.702 0 0 1-.428.801 7.524 7.524 0 0 1-.752.981c-.315.351-.66.674-1.031.966-.487.388-1.004.739-1.545 1.048-.482.285-.99.522-1.517.709a3.19 3.19 0 0 1-1.108.18 1.416 1.416 0 0 1-.801-.232 1.157 1.157 0 0 1-.384-.556 3.049 3.049 0 0 1-.165-1.059v-.579c0-.24.024-.549.044-.933l.057-1.071c.02-.338.041-.83.064-1.474l.062-1.64c.016-.449.028-.94.041-1.48.497-.277.832-.467 1.007-.568.219-.127.541-.317.974-.577l-.286 6.133v.224c0 .664.086 1.117.258 1.357a.735.735 0 0 0 .729.312 2.881 2.881 0 0 0 1.097-.404 4.44 4.44 0 0 0 1.26-1.082c.124-.164.238-.336.34-.515.115-.211.21-.432.286-.66.082-.236.142-.479.177-.726.057-.382.107-1.019.15-1.912l.162-2.653c.031-.772.051-1.604.067-2.514.484-.271.843-.474 1.077-.608l.935-.553v.002zm1.651-2.658l-11.169 6.44-.603 13.827 11.172-6.247.6-14.017" fill="#CE242A"/><path d="M225.654 91.161l-.935.554c-.235.134-.594.337-1.077.608-.015.91-.036 1.746-.067 2.514l-.129 2.648c-.044.894-.094 1.532-.149 1.911a3.85 3.85 0 0 1-.178.726 3.94 3.94 0 0 1-.286.66 4.492 4.492 0 0 1-.34.515 4.432 4.432 0 0 1-.515.546c-.23.202-.48.382-.744.536a2.863 2.863 0 0 1-1.098.404.736.736 0 0 1-.729-.311c-.171-.241-.257-.693-.257-1.358v-.224l.286-6.133c-.433.258-.755.45-.974.577a56.55 56.55 0 0 1-1.007.57c-.013.538-.026 1.03-.041 1.478l-.062 1.64a61.343 61.343 0 0 1-.065 1.474l-.056 1.072c-.021.383-.036.692-.044.932-.008.24 0 .433 0 .58-.008.359.048.718.165 1.058.069.216.199.407.376.549.238.156.517.236.801.232.377.005.752-.056 1.108-.181a8.756 8.756 0 0 0 1.517-.708c.541-.31 1.058-.66 1.545-1.048a8.195 8.195 0 0 0 1.031-.966c.277-.306.528-.634.752-.982a5.49 5.49 0 0 0 .688-1.71 10.6 10.6 0 0 0 .177-1.579l.121-2.91.186-3.671m11.014-6.252l-1.858 1.08-1.231.72a571.242 571.242 0 0 1-3.31 1.896v1.002l-.074 3.027-.127 3.349-.177 2.933 1.275-.736 2.114-1.229c.893-.515 1.897-1.09 3.012-1.723a40.7 40.7 0 0 1 .085-1.667l-.93.588-1.396.834c-.737.435-1.208.712-1.415.832l-.705.402.095-2.833a83.894 83.894 0 0 1 1.888-1.134c.168-.098.824-.469 1.965-1.112.026-.641.055-1.195.088-1.662a155.26 155.26 0 0 1-2.084 1.247c-.595.342-1.187.677-1.772 1.002l.098-2.682c.391-.242.688-.422.881-.535.193-.114.628-.366 1.288-.75.309-.18.61-.35.906-.515.297-.165.516-.291.693-.379l.611-.314.072-1.64m9.054-5.222a61.547 61.547 0 0 1-2.133 1.231 47.739 47.739 0 0 1-1.141 2.37c-.487.96-.86 1.72-1.126 2.287a14.71 14.71 0 0 0-.69-1.138 16.63 16.63 0 0 1-.801-1.35c-.399.24-.752.45-1.059.629-.386.221-.79.449-1.211.682l1.922 2.285.796 1.03-.549 1.172-1.738 3.576a52.79 52.79 0 0 1-.773 1.545l-.477.948c.472-.28.84-.5 1.111-.657.27-.157.6-.34 1.069-.6a79.45 79.45 0 0 1 1.249-2.576 73.58 73.58 0 0 0 1.082-2.215c.233.306.553.688.958 1.146.344.383.666.785.966 1.203.422-.254.818-.487 1.187-.7.227-.132.59-.335 1.09-.616-1.374-1.607-2.359-2.81-2.955-3.606.562-1.192 1.154-2.42 1.775-3.686a656.913 656.913 0 0 0 1.448-2.962m4.632-2.7c-.286.165-.675.394-1.165.693-.489.299-.868.515-1.141.682-.343.196-.789.448-1.337.755v1.633l-.069 2.86-.15 3.966-.113 1.816.966-.572.932-.515v-.773c0-.466 0-1.208.031-2.223l.08-2.856c.021-.893.057-1.838.108-2.834.186-.108.402-.24.644-.388.243-.15.487-.297.727-.433.2-.123.411-.227.631-.31a.689.689 0 0 1 .404-.023.43.43 0 0 1 .278.258c.071.162.105.338.101.515-.005.37-.082.735-.229 1.074a3.15 3.15 0 0 1-.621.961c-.27.282-.58.524-.92.716a4.17 4.17 0 0 1-.79.36c.121.38.229.8.327 1.253.322-.117.633-.262.93-.433a6.748 6.748 0 0 0 1.625-1.322 6.132 6.132 0 0 0 1.144-1.823 5.173 5.173 0 0 0 .409-1.97 2.643 2.643 0 0 0-.198-1.062 1.035 1.035 0 0 0-.515-.543 1.214 1.214 0 0 0-.773-.06 5.41 5.41 0 0 0-1.304.606m7.254-4.204c-.396.23-.774.455-1.133.675a59.774 59.774 0 0 1-2.383 1.386c0 1.442-.027 3.134-.082 5.074a95.81 95.81 0 0 1-.276 5.224l.969-.574.997-.562.108-5.605.103-3.091c.327-.188.6-.35.824-.484l.515-.312a6.68 6.68 0 0 1 .696-.348 1.1 1.1 0 0 1 .597-.108.453.453 0 0 1 .358.245c.077.16.114.337.109.515-.008.373-.09.741-.243 1.082a3.374 3.374 0 0 1-.7 1.03 4.662 4.662 0 0 1-1.007.791 5.148 5.148 0 0 1-.778.36c.139.258.244.446.324.567l.773 1.347c.175.31.327.575.451.804l.716 1.546c.515-.31.883-.516 1.09-.644l1.03-.582a14.846 14.846 0 0 0-.309-.495l-.647-.92a42.038 42.038 0 0 1-.806-1.203l-.44-.723c.316-.28.568-.51.757-.688.183-.169.355-.35.515-.541a5.554 5.554 0 0 0 .832-1.448c.111-.273.197-.556.258-.845a4.4 4.4 0 0 0 .082-.834 1.994 1.994 0 0 0-.227-1.03.953.953 0 0 0-.68-.451 1.863 1.863 0 0 0-1.045.16c-.458.196-.903.422-1.332.674m11.187-6.432l-1.857 1.08-1.231.718a427.115 427.115 0 0 1-3.31 1.896v1.005l-.075 3.024-.123 3.349-.186 2.933 1.288-.742 2.115-1.228a712.4 712.4 0 0 1 3.011-1.726c.016-.515.046-1.072.088-1.666l-.933.59-1.396.834c-.737.435-1.205.713-1.411.832l-.709.4.098-2.834a72.168 72.168 0 0 1 1.888-1.136l1.965-1.113c.024-.639.055-1.195.085-1.661-.977.596-1.67 1.012-2.081 1.249-.597.343-1.187.675-1.775 1l.085-2.67c.395-.239.688-.42.881-.532.194-.114.629-.366 1.288-.753.309-.177.611-.35.907-.515.296-.165.515-.293.693-.378l.61-.315.073-1.64m4.284-2.646c-.628.353-1.198.8-1.692 1.324a5.253 5.253 0 0 0-1.007 1.533c-.21.471-.323.98-.332 1.496-.005.223.027.444.092.657.06.187.161.358.297.5.174.168.374.308.592.414.116.062.322.157.623.284.629.257 1.069.45 1.314.58a.91.91 0 0 1 .412.332.895.895 0 0 1 .083.404 1.631 1.631 0 0 1-.17.685 2.487 2.487 0 0 1-.516.709 3.814 3.814 0 0 1-.772.587c-.7.4-1.485.628-2.29.664.056.44.103 1.024.139 1.752a19.73 19.73 0 0 0 1.44-.515 8.432 8.432 0 0 0 2.14-1.288 6.201 6.201 0 0 0 1.031-1.084 5.12 5.12 0 0 0 .718-1.322c.161-.42.248-.864.258-1.314a2.461 2.461 0 0 0-.049-.476 1.468 1.468 0 0 0-.147-.384 1.212 1.212 0 0 0-.258-.327 2.414 2.414 0 0 0-.407-.291 3.916 3.916 0 0 0-.54-.258l-.796-.37a4.562 4.562 0 0 1-.474-.153 1.535 1.535 0 0 1-.441-.213.912.912 0 0 1-.201-.201.877.877 0 0 1-.085-.204.984.984 0 0 1-.028-.23c.029-.364.168-.712.399-.996a3.21 3.21 0 0 1 1.031-.925 5.006 5.006 0 0 1 1.846-.62 27.87 27.87 0 0 1-.134-1.685c-.713.249-1.403.562-2.06.935m6.728-3.892a7.01 7.01 0 0 0-1.689 1.319 5.32 5.32 0 0 0-1.008 1.545c-.21.472-.323.98-.332 1.497a2.18 2.18 0 0 0 .09.657c.061.186.163.357.299.5.173.17.373.31.593.414.115.062.322.157.623.283.628.258 1.066.451 1.314.58a.888.888 0 0 1 .409.332c.06.127.089.265.085.405a1.602 1.602 0 0 1-.17.685 2.554 2.554 0 0 1-.515.71 3.973 3.973 0 0 1-.773.588 5.08 5.08 0 0 1-2.3.652c.057.44.103 1.023.139 1.751.594-.19 1.074-.362 1.44-.515a8.455 8.455 0 0 0 2.141-1.288 6.283 6.283 0 0 0 1.03-1.084c.304-.4.546-.844.719-1.316a3.89 3.89 0 0 0 .257-1.314c0-.165-.02-.33-.059-.49a1.358 1.358 0 0 0-.405-.71 2.471 2.471 0 0 0-.409-.292 3.73 3.73 0 0 0-.538-.257l-.796-.371a3.993 3.993 0 0 1-.474-.152 1.519 1.519 0 0 1-.42-.217.91.91 0 0 1-.201-.2.751.751 0 0 1-.085-.204.932.932 0 0 1-.028-.23c.029-.356.166-.695.391-.973a3.2 3.2 0 0 1 1.03-.922 4.985 4.985 0 0 1 1.845-.623 31.399 31.399 0 0 1-.132-1.685 12.18 12.18 0 0 0-2.06.938" fill="#fff"/><path d="M282.638 68.754l-52.745 30.451.002.57 52.743-30.452v-.57z" fill="#CE242A"/></svg>