<svg width="660" height="817" viewBox="0 0 660 817" fill="none" xmlns="http://www.w3.org/2000/svg"><path d="M816.165 408.5c0 224.502-182.185 406.5-406.926 406.5C184.498 815 2.313 633.002 2.313 408.5S184.498 2 409.239 2C633.98 2 816.165 183.998 816.165 408.5z" stroke="#fff" stroke-width="4"/><path d="M736.081 408.5c0 180.319-146.33 326.5-326.842 326.5-180.512 0-326.843-146.181-326.843-326.5S228.727 82 409.24 82c180.512 0 326.842 146.181 326.842 326.5z" stroke="#fff" stroke-width="4"/><circle cx="504.5" cy="714.5" r="14.5" fill="#fff"/><circle cx="87.5" cy="355.5" r="14.5" fill="#fff"/><circle cx="28.5" cy="550.5" r="14.5" fill="#fff"/><circle cx="645.5" cy="743.5" r="14.5" fill="#fff"/></svg>