<svg width="92" height="84" viewBox="0 0 92 84" fill="none" xmlns="http://www.w3.org/2000/svg"><path d="M2.88 48.765l4.438 2.333a12.347 12.347 0 0 0 5.74 1.402h12.817c1.588 0 2.875 1.175 2.875 2.625v21.683c0 2.522 2.24 4.567 5.003 4.567h.017c2.152 0 4.064-1.258 4.745-3.123l5.52-13.183c1.279-3.053 3.566-5.668 6.544-7.481l12.671-7.713V10.5h-2.565a12.34 12.34 0 0 1-5.917-1.496L45.857 4.12a12.34 12.34 0 0 0-5.917-1.496H15.334c-2.49 0-4.91.737-6.9 2.1l-6.135 4.2C.852 9.916 0 11.473 0 13.125v31.09c0 1.878 1.098 3.612 2.88 4.55zm71.87 6.36H92V5.25H74.75C71.575 5.25 69 7.6 69 10.5v39.375c0 2.9 2.575 5.25 5.75 5.25zM80.5 10.5c3.175 0 5.75 2.35 5.75 5.25S83.675 21 80.5 21s-5.75-2.35-5.75-5.25 2.575-5.25 5.75-5.25z" fill="#EEF0F5"/></svg>