<svg width="24" height="24" viewBox="0 0 24 24" fill="none" xmlns="http://www.w3.org/2000/svg"><path fill-rule="evenodd" clip-rule="evenodd" d="M12.09 6.008c0 .005-.043.008-.112.008a.385.385 0 0 0-.111.007c0 .005-.03.008-.074.008-.045 0-.074.003-.074.008 0 .004-.025.008-.06.008-.034 0-.059.003-.059.007 0 .005-.025.008-.06.008-.034 0-.059.003-.059.008 0 .004-.02.008-.044.008-.025 0-.044.003-.044.008 0 .004-.02.007-.045.007-.025 0-.045.004-.045.008s-.016.008-.037.008c-.02 0-.037.003-.037.008 0 .004-.016.008-.037.008-.02 0-.037.003-.037.007 0 .005-.013.008-.03.008-.016 0-.03.004-.03.008s-.016.008-.036.008c-.02 0-.037.003-.037.007 0 .005-.014.008-.03.008s-.03.004-.03.008-.013.008-.03.008c-.016 0-.029.003-.029.008 0 .004-.013.007-.03.007-.016 0-.03.004-.03.008s-.01.008-.021.008c-.013 0-.023.003-.023.008 0 .004-.013.007-.03.007-.016 0-.029.004-.029.008 0 .005-.01.008-.022.008-.012 0-.022.004-.022.008s-.014.008-.03.008-.03.003-.03.007c0 .005-.01.008-.022.008-.012 0-.022.004-.022.008s-.01.008-.022.008c-.013 0-.023.003-.023.007 0 .005-.01.008-.022.008-.012 0-.022.004-.022.008s-.01.008-.022.008c-.013 0-.023.003-.023.008 0 .004-.01.007-.022.007-.012 0-.022.004-.022.008s-.01.008-.022.008c-.013 0-.023.003-.023.008 0 .004-.006.008-.014.008s-.015.003-.015.007c0 .005-.01.008-.022.008-.013 0-.023.004-.023.008s-.006.008-.014.008c-.009 0-.015.003-.015.007 0 .005-.01.008-.023.008-.012 0-.022.004-.022.008s-.007.008-.015.008-.014.003-.014.008c0 .004-.01.007-.023.007-.012 0-.022.004-.022.008s-.007.008-.015.008-.015.003-.015.008c0 .004-.01.007-.022.007-.012 0-.022.004-.022.008 0 .005-.007.008-.015.008s-.015.004-.015.008-.006.008-.015.008c-.008 0-.014.003-.014.007 0 .005-.007.008-.015.008s-.015.004-.015.008-.01.008-.022.008c-.013 0-.023.003-.023.008 0 .004-.006.007-.014.007-.009 0-.015.004-.015.008s-.007.008-.015.008-.015.003-.015.008c0 .004-.007.007-.015.007s-.014.004-.014.008c0 .005-.007.008-.015.008s-.015.004-.015.008-.007.008-.015.008-.015.003-.015.007c0 .005-.006.008-.015.008-.008 0-.014.004-.014.008s-.007.008-.015.008-.015.003-.015.007c0 .005-.007.008-.015.008s-.015.004-.015.008-.006.008-.015.008c-.008 0-.014.003-.014.008 0 .004-.007.007-.015.007s-.015.004-.015.008-.007.008-.015.008-.015.003-.015.008c0 .004-.006.008-.013.008-.007 0-.018.007-.024.015-.006.009-.016.016-.024.016-.007 0-.013.003-.013.007 0 .005-.007.008-.015.008s-.014.004-.014.008-.006.008-.014.008c-.007 0-.018.007-.024.015-.005.009-.016.016-.023.016-.008 0-.014.003-.014.008 0 .004-.006.007-.014.007-.009 0-.015.004-.015.008 0 .005-.006.008-.013.008-.008 0-.018.007-.024.016-.006.008-.016.015-.023.015-.006 0-.016.007-.022.016-.006.008-.016.015-.024.015-.007 0-.013.004-.013.008s-.006.008-.013.008c-.007 0-.018.007-.024.015-.006.009-.016.016-.022.016-.007 0-.017.007-.022.016-.006.008-.016.015-.023.015-.006 0-.016.007-.022.016-.006.008-.016.015-.022.015-.007 0-.017.007-.022.016-.006.008-.016.015-.023.015-.006 0-.016.007-.022.016-.006.008-.015.015-.02.015-.006 0-.02.011-.032.024-.011.013-.025.023-.03.023-.006 0-.016.007-.022.016-.006.008-.015.015-.02.015-.006 0-.02.01-.032.024-.011.013-.024.023-.03.023a.135.135 0 0 0-.036.031.133.133 0 0 1-.037.031c-.005 0-.019.01-.03.024-.011.012-.025.023-.03.023a.17.17 0 0 0-.044.039.174.174 0 0 1-.045.039.237.237 0 0 0-.051.046.242.242 0 0 1-.052.047.599.599 0 0 0-.082.078.622.622 0 0 1-.081.078c-.01 0-.238.238-.238.249a.632.632 0 0 1-.074.085.613.613 0 0 0-.074.086.325.325 0 0 1-.052.062.312.312 0 0 0-.052.063c0 .005-.01.019-.022.03-.012.013-.022.027-.022.032a.139.139 0 0 1-.03.039.123.123 0 0 0-.03.039.123.123 0 0 1-.03.039c-.016.016-.029.034-.029.04 0 .006-.007.016-.015.022-.008.006-.015.016-.015.022 0 .006-.01.02-.022.032-.012.012-.022.027-.022.033 0 .006-.007.016-.015.022-.008.006-.015.016-.015.022 0 .006-.01.02-.022.032-.012.012-.022.027-.022.033 0 .006-.007.016-.015.022-.008.006-.015.016-.015.023 0 .007-.006.017-.015.023-.008.007-.014.017-.014.024 0 .006-.007.017-.015.023-.008.006-.015.018-.015.025 0 .008-.003.014-.007.014-.005 0-.008.006-.008.014 0 .007-.007.019-.015.025-.008.006-.015.017-.015.023 0 .007-.006.017-.014.024a.034.034 0 0 0-.015.025c0 .007-.004.014-.008.014s-.007.006-.007.013c0 .008-.007.02-.015.025-.008.007-.015.018-.015.025 0 .008-.003.014-.007.014s-.008.007-.008.016c0 .008-.003.015-.007.015s-.007.007-.007.014c0 .008-.007.02-.015.025-.008.007-.015.018-.015.025 0 .008-.003.014-.007.014s-.008.007-.008.016c0 .008-.003.015-.007.015s-.008.007-.008.016c0 .009-.003.016-.007.016s-.007.006-.007.013c0 .008-.007.02-.015.025-.008.007-.015.018-.015.026 0 .007-.003.013-.008.013-.004 0-.007.007-.007.016 0 .008-.003.015-.007.015s-.008.007-.008.016c0 .009-.003.016-.007.016s-.008.007-.008.015c0 .009-.003.016-.007.016s-.007.007-.007.015c0 .009-.004.016-.008.016s-.007.007-.007.015c0 .009-.004.016-.008.016s-.007.007-.007.016c0 .008-.003.015-.007.015-.005 0-.008.007-.008.016 0 .008-.003.015-.007.015s-.008.01-.008.024c0 .012-.003.023-.007.023s-.008.007-.008.016c0 .008-.003.015-.007.015s-.007.007-.007.016c0 .008-.004.015-.008.015s-.007.007-.007.016c0 .008-.004.015-.008.015s-.007.01-.007.024c0 .013-.003.023-.007.023-.005 0-.008.007-.008.016 0 .008-.003.015-.007.015s-.008.007-.008.016c0 .008-.003.015-.007.015s-.008.01-.008.024c0 .012-.003.023-.007.023s-.007.007-.007.016c0 .008-.004.015-.008.015s-.007.01-.007.023-.004.024-.008.024-.007.007-.007.015c0 .009-.003.016-.007.016s-.008.01-.008.023-.003.024-.007.024-.008.007-.008.015c0 .009-.003.016-.007.016s-.007.01-.007.023-.004.023-.008.023-.007.01-.007.024c0 .013-.004.023-.008.023s-.007.01-.007.024c0 .012-.003.023-.008.023-.004 0-.007.01-.007.023s-.003.023-.007.023-.008.011-.008.024c0 .013-.003.023-.007.023s-.008.01-.008.024c0 .012-.003.023-.007.023s-.007.01-.007.023-.004.024-.008.024-.007.014-.007.03c0 .018-.004.032-.008.032s-.007.014-.007.031-.003.031-.007.031c-.005 0-.008.01-.008.024 0 .012-.003.023-.007.023s-.008.014-.008.03c0 .018-.003.032-.007.032s-.008.014-.008.031-.003.031-.007.031-.007.014-.007.031c0 .018-.004.032-.008.032s-.007.014-.007.03c0 .018-.004.032-.008.032s-.007.017-.007.039c0 .021-.003.039-.007.039-.005 0-.008.014-.008.03 0 .018-.003.032-.007.032s-.008.02-.008.047c0 .026-.003.046-.007.046s-.008.021-.008.047-.003.047-.007.047-.007.017-.007.039c0 .021-.004.038-.008.038s-.007.026-.007.063c0 .036-.003.062-.008.062-.004 0-.007.026-.007.062 0 .037-.003.063-.007.063-.005 0-.008.033-.008.085 0 .052-.003.086-.007.086a.345.345 0 0 0-.008.109.345.345 0 0 1-.007.109c-.005 0-.007.098-.007.28 0 .181.002.28.007.28s.007.041.007.109c0 .067.003.109.008.109.004 0 .007.031.007.078 0 .046.003.078.008.078.004 0 .007.025.007.062 0 .036.003.062.007.062.005 0 .008.026.008.062 0 .037.003.063.007.063s.008.02.008.046.003.047.007.047.007.02.007.047c0 .025.004.046.008.046s.007.018.007.04c0 .02.004.038.008.038s.007.018.007.039.003.039.008.039c.004 0 .007.014.007.031s.003.031.007.031.008.018.008.04c0 .02.003.038.007.038s.008.014.008.031.003.031.007.031.007.014.007.031c0 .018.004.031.008.031s.007.011.007.024c0 .013.004.023.008.023s.007.014.007.031c0 .018.003.031.008.031.004 0 .007.011.007.024 0 .013.003.023.007.023s.008.014.008.031.003.031.007.031.008.01.008.024c0 .013.003.023.007.023s.007.01.007.023.004.024.008.024.007.01.007.023.004.024.008.024.007.01.007.023.003.023.007.023c.005 0 .008.01.008.023s.003.024.007.024.008.01.008.023.003.024.007.024.008.01.008.023.003.023.007.023.007.01.007.024c0 .012.004.023.008.023s.007.007.007.015c0 .01.004.016.008.016s.007.01.007.023.003.024.007.024.008.007.008.015c0 .009.003.016.007.016s.008.01.008.023.003.024.007.024.007.007.007.015c0 .009.004.016.008.016s.007.01.007.023.004.023.008.023.007.007.007.016c0 .008.003.015.008.015.004 0 .007.008.007.016 0 .009.003.016.007.016s.008.007.008.015c0 .009.003.016.007.016s.008.01.008.023.003.024.007.024.007.006.007.015.004.016.008.016.007.007.007.015c0 .009.004.016.008.016s.007.007.007.015c0 .009.003.016.008.016.004 0 .007.007.007.015 0 .009.003.016.007.016s.008.007.008.016c0 .008.003.015.007.015s.008.007.008.016c0 .008.003.015.007.015s.007.007.007.016c0 .008.004.015.008.015s.007.007.007.016c0 .009.004.016.008.016s.007.007.007.015c0 .009.003.016.007.016.005 0 .008.007.008.015 0 .009.003.016.007.016s.008.007.008.015c0 .009.003.016.007.016s.008.007.008.016c0 .008.003.015.007.015s.007.006.007.014.007.019.015.025c.008.006.015.017.015.025s.003.014.007.014c.005 0 .008.007.008.015 0 .009.003.016.007.016s.008.006.008.014c0 .007.006.019.014.025.009.006.015.017.015.025s.004.014.008.014.007.007.007.015c0 .009.003.016.008.016.004 0 .007.006.007.014 0 .007.007.019.015.025.008.006.015.017.015.023 0 .007.006.017.014.024.009.006.015.016.015.023 0 .007.007.017.015.023.008.006.015.018.015.025 0 .008.003.014.007.014s.008.006.008.014.006.019.015.025c.008.006.014.017.014.023 0 .007.007.018.015.024.008.006.015.016.015.023 0 .007.007.017.015.023.008.007.015.016.015.022 0 .006.01.02.022.033.012.012.022.027.022.032 0 .006.007.016.015.022.008.007.015.016.015.022 0 .006.01.02.022.033.012.012.022.026.022.031 0 .005.01.02.023.031.012.012.022.026.022.031a.12.12 0 0 0 .03.04c.016.016.03.033.03.038 0 .005.012.023.029.039.016.016.03.034.03.039 0 .005.016.026.036.047a.18.18 0 0 1 .038.046c0 .005.023.033.051.063a9.35 9.35 0 0 0 .497.53c.005-.001.028.02.052.045a.236.236 0 0 0 .052.047c.005 0 .025.018.044.039.02.021.04.039.045.039.005 0 .021.014.037.031.016.017.032.031.037.031.005 0 .021.014.037.031.016.017.032.031.037.031.005 0 .018.01.03.024.011.013.025.023.03.023.006 0 .016.007.022.016.006.008.015.015.02.015.006 0 .02.01.032.024.011.012.025.023.03.023.006 0 .016.007.021.015.006.01.016.016.021.016.006 0 .02.01.031.023.012.013.026.024.031.024.006 0 .015.007.021.015.006.009.017.016.024.016.007 0 .013.003.013.008 0 .004.006.008.014.008.007 0 .018.006.023.015.006.009.016.016.023.016.006 0 .016.007.022.015.006.009.016.016.022.016.006 0 .016.007.022.015.006.009.017.016.024.016.007 0 .013.003.013.008 0 .004.006.007.014.007.007 0 .018.007.023.016.006.009.017.016.024.016.008 0 .014.003.014.007 0 .005.005.008.013.008.007 0 .018.007.024.016.005.008.016.015.023.015.008 0 .014.004.014.008s.006.008.014.008c.009 0 .015.003.015.008 0 .004.006.007.014.007.007 0 .018.007.023.016.006.009.017.015.024.015.008 0 .013.004.013.008 0 .005.007.008.015.008s.015.004.015.008.007.008.015.008.015.003.015.007c0 .005.006.008.015.008.008 0 .014.004.014.008s.007.008.015.008.015.003.015.008c0 .004.007.007.015.007s.015.004.015.008.006.008.015.008c.008 0 .014.003.014.008 0 .004.007.007.015.007s.015.004.015.008c0 .005.007.008.015.008s.015.003.015.008c0 .004.006.008.015.008.008 0 .014.003.014.007 0 .005.007.008.015.008s.015.004.015.008.007.008.015.008.015.003.015.008c0 .004.01.007.022.007.012 0 .022.004.022.008s.007.008.015.008.015.003.015.008c0 .004.006.007.015.007.008 0 .014.004.014.008s.007.008.015.008.015.003.015.008c0 .004.007.007.015.007s.015.004.015.008c0 .005.01.008.022.008.012 0 .022.004.022.008s.007.008.015.008.015.003.015.007c0 .005.01.008.022.008.012 0 .022.004.022.008s.007.008.015.008.015.003.015.008c0 .004.01.007.022.007.013 0 .023.004.023.008s.01.008.022.008c.012 0 .022.003.022.008 0 .004.007.008.015.008s.015.003.015.007c0 .005.01.008.022.008.012 0 .022.003.022.008 0 .004.01.008.022.008.013 0 .023.003.023.007 0 .005.01.008.022.008.012 0 .022.004.022.008s.01.008.022.008c.013 0 .023.003.023.008 0 .004.01.007.022.007.012 0 .022.004.022.008s.01.008.022.008c.012 0 .022.003.022.008 0 .004.01.007.023.007.012 0 .022.004.022.008 0 .005.01.008.022.008.012 0 .022.003.022.008 0 .004.014.008.03.008s.03.003.03.007c0 .005.013.008.03.008.016 0 .03.004.03.008s.01.008.021.008c.012 0 .022.003.022.007 0 .005.014.008.03.008s.03.004.03.008.013.008.03.008c.016 0 .03.003.03.008 0 .004.012.007.029.007.016 0 .03.004.03.008s.016.008.037.008c.02 0 .037.003.037.008 0 .004.013.008.03.008.015 0 .029.003.029.007 0 .005.02.008.044.008.025 0 .045.004.045.008s.017.008.037.008c.02 0 .037.003.037.007 0 .005.02.008.044.008.025 0 .045.004.045.008s.022.008.052.008.052.003.052.008c0 .004.024.007.059.007.035 0 .06.004.06.008 0 .005.024.008.059.008.034 0 .059.003.059.008 0 .004.037.007.096.007.06 0 .097.003.097.008s.133.008.385.008.386-.003.386-.008.034-.008.089-.008c.054 0 .089-.003.089-.007 0-.005.027-.008.066-.008.04 0 .067-.003.067-.008 0-.004.025-.008.06-.008.034 0 .059-.003.059-.008 0-.004.02-.007.044-.007.025 0 .045-.004.045-.008s.02-.008.044-.008c.025 0 .045-.003.045-.008 0-.004.02-.007.044-.007.025 0 .044-.004.044-.008s.017-.008.038-.008c.02 0 .037-.003.037-.008 0-.004.016-.008.037-.008h.037v-.638c0-.42-.003-.638-.008-.638a.008.008 0 0 0-.007.008c0 .004-.013.008-.03.008-.016 0-.03.003-.03.008 0 .004-.013.007-.029.007s-.03.004-.03.008-.013.008-.03.008c-.016 0-.029.003-.029.008 0 .004-.017.008-.037.008-.02 0-.037.003-.037.007 0 .005-.017.008-.037.008-.02 0-.037.003-.037.008 0 .004-.017.008-.037.008-.02 0-.037.003-.037.007 0 .005-.02.008-.045.008-.025 0-.044.004-.044.008s-.02.008-.045.008c-.024 0-.044.003-.044.008 0 .004-.027.007-.067.007-.04 0-.067.003-.067.008s-.03.008-.074.008-.074.003-.074.008-.121.007-.348.007c-.228 0-.349-.002-.349-.007s-.034-.008-.089-.008c-.054 0-.089-.003-.089-.008s-.024-.008-.06-.008c-.034 0-.058-.003-.058-.008 0-.004-.02-.007-.045-.007-.024 0-.044-.004-.044-.008s-.02-.008-.045-.008c-.025 0-.044-.003-.044-.008 0-.004-.02-.007-.045-.007-.024 0-.044-.004-.044-.008 0-.005-.014-.008-.03-.008s-.03-.003-.03-.008c0-.004-.016-.008-.037-.008-.02 0-.037-.003-.037-.007 0-.005-.013-.008-.03-.008-.016 0-.029-.004-.029-.008s-.013-.008-.03-.008c-.016 0-.03-.003-.03-.007 0-.005-.013-.008-.029-.008s-.03-.004-.03-.008-.013-.008-.03-.008c-.016 0-.029-.003-.029-.008 0-.004-.01-.007-.022-.007-.012 0-.022-.004-.022-.008s-.01-.008-.023-.008c-.012 0-.022-.003-.022-.008 0-.004-.01-.008-.022-.008-.012 0-.022-.003-.022-.007 0-.005-.01-.008-.023-.008-.012 0-.022-.003-.022-.008 0-.004-.01-.008-.022-.008-.012 0-.022-.003-.022-.007 0-.005-.01-.008-.023-.008-.012 0-.022-.004-.022-.008s-.01-.008-.022-.008c-.012 0-.022-.003-.022-.007 0-.005-.01-.008-.022-.008-.013 0-.023-.004-.023-.008s-.006-.008-.015-.008c-.008 0-.014-.003-.014-.008 0-.004-.01-.007-.023-.007-.012 0-.022-.004-.022-.008 0-.005-.01-.008-.022-.008-.012 0-.022-.004-.022-.008s-.007-.008-.015-.008-.015-.003-.015-.007c0-.005-.007-.008-.015-.008s-.015-.004-.015-.008-.006-.008-.014-.008c-.009 0-.015-.003-.015-.008 0-.004-.01-.007-.023-.007-.012 0-.022-.004-.022-.008s-.007-.008-.015-.008-.014-.003-.014-.008c0-.004-.007-.007-.015-.007s-.015-.004-.015-.008-.007-.008-.015-.008-.015-.003-.015-.008c0-.004-.006-.008-.015-.008-.008 0-.014-.003-.014-.007 0-.005-.007-.008-.015-.008s-.015-.004-.015-.008-.007-.008-.015-.008-.015-.003-.015-.007c0-.005-.006-.008-.014-.008-.009 0-.015-.004-.015-.008s-.007-.008-.015-.008-.015-.003-.015-.008c0-.004-.007-.007-.015-.007s-.015-.004-.015-.008-.006-.008-.014-.008c-.009 0-.015-.003-.015-.008 0-.004-.007-.007-.015-.007s-.015-.004-.015-.008c0-.005-.006-.008-.013-.008-.007 0-.018-.007-.024-.016-.006-.008-.017-.015-.024-.015-.007 0-.013-.004-.013-.008s-.007-.008-.015-.008-.015-.003-.015-.008c0-.004-.006-.007-.013-.007-.007 0-.018-.007-.024-.016-.006-.008-.016-.015-.022-.015-.006 0-.016-.007-.022-.016-.006-.009-.017-.015-.024-.015-.007 0-.013-.004-.013-.008 0-.005-.006-.008-.014-.008-.007 0-.018-.007-.023-.016-.006-.008-.016-.015-.023-.015-.006 0-.016-.007-.022-.016-.006-.008-.016-.015-.022-.015-.006 0-.017-.007-.022-.016-.006-.008-.016-.016-.023-.016-.006 0-.016-.007-.022-.015-.006-.009-.015-.016-.02-.016-.006 0-.02-.01-.032-.023-.011-.013-.025-.023-.03-.023-.006 0-.016-.007-.022-.016-.006-.008-.015-.015-.02-.015-.006 0-.023-.014-.039-.032-.016-.017-.032-.03-.037-.03-.005 0-.018-.011-.03-.024-.011-.013-.024-.023-.03-.023a.17.17 0 0 1-.044-.04.174.174 0 0 0-.044-.038.236.236 0 0 1-.052-.047.245.245 0 0 0-.052-.047c-.01 0-.37-.378-.37-.39a.253.253 0 0 0-.045-.053.243.243 0 0 1-.045-.055.179.179 0 0 0-.037-.046.176.176 0 0 1-.037-.047c0-.005-.01-.02-.022-.031-.012-.012-.022-.026-.022-.031a.138.138 0 0 0-.03-.04c-.016-.016-.03-.034-.03-.04 0-.005-.006-.015-.014-.021-.009-.007-.015-.017-.015-.024 0-.007-.007-.017-.015-.023-.008-.006-.015-.016-.015-.022 0-.006-.01-.02-.022-.033-.012-.012-.022-.026-.022-.032 0-.006-.007-.016-.015-.022-.008-.006-.015-.017-.015-.023 0-.007-.007-.018-.015-.024-.008-.006-.015-.017-.015-.025s-.003-.014-.007-.014-.008-.006-.008-.014c0-.007-.006-.018-.014-.025-.009-.006-.015-.016-.015-.023 0-.007-.007-.017-.015-.023-.008-.006-.015-.018-.015-.025 0-.008-.003-.014-.007-.014s-.008-.006-.008-.014-.006-.019-.014-.025a.036.036 0 0 1-.015-.025c0-.008-.004-.014-.008-.014s-.007-.007-.007-.016c0-.008-.003-.015-.008-.015-.004 0-.007-.006-.007-.014s-.007-.019-.015-.025c-.008-.006-.015-.018-.015-.025 0-.008-.003-.014-.007-.014s-.007-.007-.007-.016c0-.008-.004-.015-.008-.015s-.007-.007-.007-.016c0-.008-.004-.015-.008-.015s-.007-.007-.007-.016c0-.008-.003-.015-.008-.015-.004 0-.007-.007-.007-.016 0-.008-.003-.016-.007-.016s-.008-.007-.008-.015c0-.009-.003-.016-.007-.016s-.008-.007-.008-.015c0-.009-.003-.016-.007-.016s-.007-.007-.007-.015c0-.009-.004-.016-.008-.016s-.007-.007-.007-.015c0-.009-.004-.016-.008-.016s-.007-.01-.007-.023-.003-.024-.007-.024c-.005 0-.008-.007-.008-.015 0-.009-.003-.016-.007-.016s-.008-.007-.008-.015c0-.009-.003-.016-.007-.016s-.008-.007-.008-.015c0-.01-.003-.016-.007-.016s-.007-.01-.007-.023-.004-.024-.008-.024-.007-.007-.007-.015c0-.009-.004-.016-.008-.016s-.007-.01-.007-.023-.003-.024-.007-.024c-.005 0-.008-.007-.008-.015 0-.009-.003-.016-.007-.016s-.008-.01-.008-.023-.003-.023-.007-.023-.007-.01-.007-.024c0-.013-.004-.023-.008-.023s-.007-.01-.007-.023-.004-.024-.008-.024-.007-.01-.007-.023-.003-.024-.008-.024c-.004 0-.007-.01-.007-.023s-.003-.023-.007-.023-.008-.01-.008-.024c0-.012-.003-.023-.007-.023s-.008-.01-.008-.023-.003-.024-.007-.024-.007-.01-.007-.023-.004-.023-.008-.023-.007-.014-.007-.031c0-.018-.004-.032-.008-.032s-.007-.014-.007-.03c0-.018-.003-.032-.008-.032-.004 0-.007-.01-.007-.023s-.003-.024-.007-.024-.008-.017-.008-.038c0-.022-.003-.04-.007-.04s-.008-.013-.008-.03c0-.018-.003-.031-.007-.031s-.007-.018-.007-.04c0-.02-.004-.038-.008-.038s-.007-.018-.007-.04c0-.02-.004-.038-.008-.038s-.007-.02-.007-.047c0-.026-.003-.047-.007-.047-.005 0-.008-.023-.008-.054s-.003-.054-.007-.054c-.005 0-.008-.027-.008-.063 0-.036-.003-.062-.007-.062-.005 0-.008-.034-.008-.086 0-.052-.002-.085-.007-.085S7.79 12.239 7.79 12s.002-.366.007-.366.007-.034.007-.085c0-.052.003-.086.008-.086.004 0 .007-.026.007-.062 0-.037.003-.063.008-.063.004 0 .007-.02.007-.046s.003-.047.008-.047c.004 0 .007-.02.007-.047 0-.026.003-.046.007-.046s.008-.021.008-.047.003-.047.007-.047.008-.014.008-.03c0-.018.003-.032.007-.032s.007-.017.007-.039c0-.021.004-.039.008-.039s.007-.014.007-.03c0-.018.004-.032.008-.032s.007-.014.007-.031.003-.031.007-.031c.005 0 .008-.014.008-.031 0-.018.003-.031.007-.031s.008-.011.008-.024c0-.013.003-.023.007-.023s.008-.014.008-.031.003-.031.007-.031.007-.01.007-.024c0-.013.004-.023.008-.023s.007-.01.007-.024c0-.012.004-.023.008-.023s.007-.01.007-.023.003-.024.007-.024c.005 0 .008-.01.008-.023s.003-.023.007-.023.008-.01.008-.024c0-.012.003-.023.007-.023s.008-.01.008-.023.003-.024.007-.024.007-.007.007-.015c0-.009.004-.016.008-.016s.007-.01.007-.023.003-.023.008-.023c.004 0 .007-.007.007-.016 0-.008.003-.016.007-.016s.008-.01.008-.023.003-.023.007-.023.008-.007.008-.016c0-.008.003-.015.007-.015s.007-.007.007-.016c0-.008.004-.016.008-.016s.007-.01.007-.023.004-.023.008-.023.007-.007.007-.016c0-.008.003-.015.008-.015.004 0 .007-.007.007-.016 0-.008.003-.015.007-.015s.008-.007.008-.016c0-.009.003-.016.007-.016s.008-.01.008-.023.003-.023.007-.023.007-.006.007-.014.007-.019.015-.025c.008-.006.015-.018.015-.025 0-.008.003-.014.007-.014.005 0 .008-.007.008-.016 0-.008.003-.015.007-.015s.008-.007.008-.016c0-.008.003-.015.007-.015s.008-.007.008-.016c0-.008.003-.015.007-.015s.007-.007.007-.016c0-.009.004-.016.008-.016s.007-.007.007-.015c0-.009.004-.016.008-.016s.007-.006.007-.014c0-.007.007-.018.015-.025.008-.006.015-.017.015-.025 0-.007.003-.014.007-.014s.008-.007.008-.015c0-.009.003-.016.007-.016s.007-.006.007-.014c0-.007.007-.018.015-.025.008-.006.015-.017.015-.025 0-.007.003-.013.007-.013s.008-.007.008-.014c0-.008.006-.02.015-.025.008-.007.014-.017.014-.024 0-.006.007-.017.015-.023.008-.006.015-.017.015-.023 0-.007.007-.018.015-.024.008-.006.015-.016.015-.023 0-.007.006-.017.015-.023.008-.007.014-.017.014-.024 0-.006.007-.017.015-.023.008-.006.015-.016.015-.022 0-.006.01-.02.022-.033.013-.012.023-.026.023-.03 0-.006.01-.02.022-.032.012-.012.022-.026.022-.031 0-.005.01-.02.022-.031.013-.012.023-.026.023-.031a.12.12 0 0 1 .03-.04.124.124 0 0 0 .029-.038c0-.005.02-.03.044-.055a.247.247 0 0 0 .045-.054c0-.005.026-.036.06-.07a.42.42 0 0 0 .058-.07c0-.01.198-.218.208-.218a.51.51 0 0 0 .074-.07.494.494 0 0 1 .074-.07.24.24 0 0 0 .052-.047.235.235 0 0 1 .052-.046c.005 0 .021-.015.037-.032.016-.017.032-.03.037-.03.005 0 .018-.011.03-.024.011-.013.025-.023.03-.023.004 0 .018-.011.03-.024.01-.013.024-.023.03-.023.006 0 .015-.007.021-.016.006-.008.015-.015.02-.015.007 0 .02-.01.032-.024.011-.012.025-.023.03-.023.006 0 .016-.007.022-.016.006-.008.016-.015.022-.015.006 0 .016-.007.022-.016.006-.008.016-.015.023-.015.006 0 .016-.007.022-.016.006-.008.016-.015.024-.015.007 0 .013-.004.013-.008s.006-.008.013-.008c.007 0 .018-.007.024-.015.006-.009.016-.016.022-.016.006 0 .016-.007.022-.016.006-.008.017-.015.024-.015.008 0 .013-.004.013-.008s.007-.008.015-.008.015-.003.015-.008c0-.004.006-.007.013-.007.008 0 .018-.007.024-.016.006-.008.017-.015.024-.015.007 0 .013-.004.013-.008s.007-.008.015-.008.015-.003.015-.008c0-.004.006-.008.015-.008.008 0 .014-.003.014-.007 0-.005.007-.008.015-.008s.015-.004.015-.008.007-.008.015-.008.015-.003.015-.007c0-.005.007-.008.015-.008s.014-.004.014-.008.007-.008.015-.008.015-.003.015-.008c0-.004.007-.007.015-.007s.015-.004.015-.008.007-.008.015-.008.014-.003.014-.008c0-.004.007-.007.015-.007s.015-.004.015-.008c0-.005.007-.008.015-.008s.015-.004.015-.008.006-.008.015-.008c.008 0 .014-.003.014-.007 0-.005.007-.008.015-.008s.015-.004.015-.008.01-.008.022-.008c.013 0 .023-.003.023-.008 0-.004.006-.007.014-.007s.015-.004.015-.008.007-.008.015-.008.015-.003.015-.008c0-.004.01-.007.022-.007.012 0 .022-.004.022-.008 0-.005.007-.008.015-.008s.015-.004.015-.008.01-.008.022-.008c.012 0 .022-.003.022-.007 0-.005.007-.008.015-.008s.015-.004.015-.008.01-.008.022-.008c.013 0 .023-.003.023-.007 0-.005.01-.008.022-.008.012 0 .022-.004.022-.008s.01-.008.022-.008c.012 0 .022-.003.022-.008 0-.004.01-.007.023-.007.012 0 .022-.004.022-.008s.01-.008.022-.008c.013 0 .023-.003.023-.008 0-.004.01-.008.022-.008.012 0 .022-.003.022-.007 0-.005.01-.008.022-.008.012 0 .022-.004.022-.008s.014-.008.03-.008.03-.003.03-.007c0-.005.013-.008.03-.008.016 0 .03-.004.03-.008s.01-.008.021-.008c.012 0 .022-.003.022-.008 0-.004.017-.007.038-.007.02 0 .037-.004.037-.008s.013-.008.03-.008c.016 0 .029-.003.029-.008 0-.004.017-.007.037-.007.02 0 .037-.004.037-.008 0-.005.017-.008.037-.008.02 0 .037-.004.037-.008s.02-.008.045-.008c.024 0 .044-.003.044-.007 0-.005.017-.008.037-.008.02 0 .037-.004.037-.008s.025-.008.06-.008c.034 0 .059-.003.059-.008 0-.004.027-.007.067-.007.04 0 .066-.003.066-.008s.037-.008.097-.008c.06 0 .096-.003.096-.008s.084-.007.237-.007c.154 0 .238.002.238.007s.034.008.088.008c.055 0 .09.003.09.008 0 .004.024.008.059.008.034 0 .06.003.06.007 0 .005.021.008.051.008.03 0 .052.004.052.008s.02.008.044.008c.025 0 .045.003.045.008 0 .004.017.007.037.007.02 0 .037.004.037.008s.013.008.03.008c.016 0 .03.003.03.008 0 .004.016.008.036.008.02 0 .037.003.037.007 0 .005.014.008.03.008s.03.004.03.008.01.008.022.008c.012 0 .022.003.022.007 0 .005.014.008.03.008s.03.004.03.008.013.008.03.008c.016 0 .029.003.029.008 0 .004.01.007.022.007.012 0 .022.004.022.008s.01.008.023.008c.012 0 .022.003.022.008 0 .004.01.007.022.007.012 0 .022.004.022.008 0 .005.01.008.022.008.013 0 .023.004.023.008s.006.008.015.008c.008 0 .014.003.014.007 0 .005.01.008.023.008.012 0 .022.004.022.008s.007.008.015.008.014.003.014.008c0 .004.01.007.023.007.012 0 .022.004.022.008s.007.008.015.008.015.003.015.008c0 .004.01.007.022.007.012 0 .022.004.022.008s.007.008.015.008.015.003.015.008c0 .004.006.008.015.008.008 0 .014.003.014.007 0 .005.007.008.015.008s.015.004.015.008.01.008.022.008c.013 0 .023.003.023.007 0 .005.006.008.014.008.009 0 .015.004.015.008s.006.008.013.008c.008 0 .018.007.024.015.006.009.017.016.024.016.007 0 .013.003.013.008 0 .004.007.008.015.008s.015.003.015.007c0 .005.007.008.015.008s.015.004.015.008.006.008.014.008c.009 0 .015.003.015.007 0 .005.007.008.015.008s.015.004.015.008.006.008.013.008c.007 0 .018.007.024.015.006.009.017.016.024.016.007 0 .013.003.013.008 0 .004.006.007.013.007.008 0 .018.007.024.016.006.009.017.016.024.016.007 0 .013.003.013.007 0 .005.006.008.013.008.008 0 .018.007.024.016.006.008.016.015.022.015.007 0 .017.007.023.016.006.008.016.015.022.015.006 0 .016.007.022.016.006.009.015.016.021.016.006 0 .02.01.031.023.012.013.025.023.031.023.006 0 .015.007.021.016.006.008.015.015.02.015.007 0 .02.01.032.024.011.013.025.023.03.023.004 0 .021.014.037.031.015.017.032.031.037.031a.19.19 0 0 1 .044.04c.02.02.04.038.044.038.005 0 .038.032.075.07.036.039.07.07.074.07.01 0 .133.13.133.14 0 .005.034.043.075.086.04.042.074.081.074.086 0 .004.016.025.037.046.02.021.037.042.037.047 0 .005.01.019.022.031.012.012.022.026.022.031 0 .005.01.02.022.031.013.012.023.026.023.031 0 .006.01.02.022.032.012.011.022.026.022.032 0 .006.007.016.015.022.008.006.015.017.015.023 0 .007.006.018.015.024.008.006.014.016.014.023 0 .007.007.017.015.023.009.007.015.017.015.024 0 .006.007.017.015.023.008.006.015.017.015.023 0 .007.007.018.015.024a.036.036 0 0 1 .014.025c0 .007.004.014.008.014s.007.006.007.014c0 .007.007.018.015.025.008.006.015.017.015.025 0 .007.003.013.007.013s.008.007.008.016c0 .009.003.016.007.016s.008.006.008.013c0 .008.006.02.014.026a.034.034 0 0 1 .015.025c0 .007.004.013.008.013s.007.007.007.016c0 .009.003.016.008.016.004 0 .007.007.007.015 0 .009.003.016.007.016s.008.007.008.015c0 .009.003.016.007.016s.008.007.008.015c0 .009.003.016.007.016s.007.007.007.016c0 .008.004.015.008.015s.007.007.007.016c0 .008.004.015.008.015s.007.007.007.016c0 .008.003.015.008.015.004 0 .007.01.007.024 0 .013.003.023.007.023s.008.007.008.016c0 .008.003.015.007.015s.008.007.008.016c0 .008.003.015.007.015s.007.01.007.024c0 .012.004.023.008.023s.007.007.007.016c0 .008.003.015.008.015.004 0 .007.01.007.023s.003.024.007.024c.005 0 .008.007.008.015 0 .009.003.016.007.016s.008.01.008.023.003.024.007.024.007.01.007.023.004.023.008.023.007.01.007.024c0 .012.004.023.008.023s.007.01.007.023.003.024.008.024c.004 0 .007.01.007.023s.003.023.007.023c.005 0 .008.01.008.024 0 .013.003.023.007.023s.008.014.008.031.003.031.007.031.007.01.007.024c0 .012.004.023.008.023s.007.018.007.039.004.039.008.039.007.014.007.031.003.031.008.031c.004 0 .007.014.007.031s.003.031.007.031c.005 0 .008.021.008.047s.003.047.007.047.008.017.008.039c0 .021.003.039.007.039s.007.023.007.054.004.055.008.055.007.026.007.062c0 .036.003.062.008.062a.33.33 0 0 1 .007.101c0 .063.003.101.008.101.004 0 .007.078.007.218s-.003.218-.008.218a.335.335 0 0 0-.007.101.324.324 0 0 1-.007.101c-.005 0-.008.026-.008.063 0 .036-.003.062-.007.062s-.008.023-.008.055c0 .03-.003.054-.007.054s-.007.02-.007.047c0 .026-.004.046-.008.046s-.007.018-.007.04c0 .02-.004.038-.008.038s-.007.014-.007.031-.003.031-.008.031c-.004 0-.007.014-.007.032 0 .017-.003.03-.007.03s-.008.015-.008.032-.003.03-.007.03-.008.015-.008.032-.003.031-.007.031-.007.014-.007.031-.004.031-.008.031-.007.011-.007.024c0 .013-.003.023-.008.023-.004 0-.007.01-.007.024 0 .012-.003.023-.007.023-.005 0-.008.01-.008.023s-.003.024-.007.024-.008.01-.008.023-.003.023-.007.023-.008.01-.008.024c0 .012-.003.023-.007.023s-.007.01-.007.023-.004.024-.008.024-.007.007-.007.015c0 .009-.004.016-.008.016s-.007.01-.007.023-.003.023-.007.023c-.005 0-.008.007-.008.016 0 .009-.003.016-.007.016s-.008.01-.008.023-.003.023-.007.023-.008.007-.008.016c0 .008-.003.015-.007.015s-.007.007-.007.016c0 .008-.004.016-.008.016s-.007.01-.007.023-.003.023-.008.023c-.004 0-.007.007-.007.016 0 .008-.003.015-.007.015s-.008.007-.008.016c0 .008-.003.016-.007.016s-.008.007-.008.015c0 .009-.003.016-.007.016s-.007.007-.007.015c0 .009-.004.016-.008.016s-.007.007-.007.015c0 .009-.004.016-.008.016s-.007.007-.007.015c0 .009-.003.016-.007.016-.005 0-.008.006-.008.014 0 .007-.007.019-.015.025-.008.006-.015.017-.015.025s-.003.014-.007.014-.007.007-.007.015c0 .009-.004.016-.008.016s-.007.007-.007.015c0 .009-.004.016-.008.016s-.007.006-.007.014-.007.019-.015.025c-.008.006-.015.017-.015.025s-.003.014-.007.014-.008.006-.008.014a.038.038 0 0 1-.014.025c-.008.006-.015.017-.015.023 0 .007-.007.017-.015.024-.008.006-.015.015-.015.021 0 .01-.017.033-.025.033-.003 0-.005-.007-.005-.016 0-.008-.003-.015-.007-.015s-.007-.01-.007-.024c0-.012-.004-.023-.008-.023s-.007-.007-.007-.015c0-.009-.004-.016-.008-.016s-.007-.01-.007-.023-.003-.024-.007-.024c-.005 0-.008-.007-.008-.015 0-.009-.003-.016-.007-.016s-.008-.007-.008-.015c0-.009-.003-.016-.007-.016s-.007-.01-.007-.023-.004-.024-.008-.024-.007-.007-.007-.015c0-.009-.004-.016-.008-.016s-.007-.01-.007-.023-.003-.024-.008-.024c-.004 0-.007-.007-.007-.015 0-.009-.003-.016-.007-.016s-.008-.01-.008-.023-.003-.023-.007-.023-.008-.007-.008-.016c0-.008-.003-.015-.007-.015s-.007-.01-.007-.024c0-.013-.004-.023-.008-.023s-.007-.007-.007-.016c0-.008-.004-.015-.008-.015s-.007-.007-.007-.016c0-.008-.003-.015-.008-.015-.004 0-.007-.01-.007-.024 0-.013-.003-.023-.007-.023s-.008-.007-.008-.016c0-.008-.003-.015-.007-.015s-.008-.01-.008-.024c0-.012-.003-.023-.007-.023s-.007-.007-.007-.015c0-.009-.004-.016-.008-.016s-.007-.01-.007-.023-.003-.024-.008-.024c-.004 0-.007-.007-.007-.015 0-.009-.003-.016-.007-.016-.005 0-.008-.01-.008-.023s-.003-.024-.007-.024-.008-.006-.008-.015-.003-.016-.007-.016-.008-.007-.008-.015c0-.009-.003-.016-.007-.016s-.007-.01-.007-.023-.004-.024-.008-.024-.007-.006-.007-.015-.003-.016-.008-.016c-.004 0-.007-.01-.007-.023s-.003-.023-.007-.023-.008-.007-.008-.016c0-.008-.003-.015-.007-.015s-.008-.01-.008-.024c0-.013-.003-.023-.007-.023s-.008-.007-.008-.016c0-.008-.003-.015-.007-.015s-.007-.01-.007-.024c0-.012-.004-.023-.008-.023s-.007-.007-.007-.016c0-.008-.003-.015-.008-.015-.004 0-.007-.007-.007-.016 0-.008-.003-.015-.007-.015s-.008-.01-.008-.024c0-.012-.003-.023-.007-.023s-.008-.007-.008-.015c0-.009-.003-.016-.007-.016s-.007-.01-.007-.023-.004-.024-.008-.024-.007-.007-.007-.015c0-.009-.004-.016-.008-.016s-.007-.01-.007-.023-.003-.023-.008-.023c-.004 0-.007-.008-.007-.016 0-.009-.003-.016-.007-.016s-.008-.01-.008-.023-.003-.023-.007-.023-.008-.007-.008-.016c0-.008-.003-.016-.007-.016s-.007-.007-.007-.015c0-.009-.004-.016-.008-.016s-.007-.01-.007-.023-.004-.023-.008-.023-.007-.007-.007-.016c0-.008-.003-.015-.007-.015-.005 0-.008-.01-.008-.024 0-.013-.003-.023-.007-.023s-.008-.007-.008-.016c0-.008-.003-.015-.007-.015s-.007-.01-.007-.024c0-.012-.004-.023-.008-.023s-.007-.007-.007-.015c0-.01-.004-.016-.008-.016s-.007-.01-.007-.023-.004-.024-.008-.024-.007-.007-.007-.015c0-.009-.003-.016-.007-.016-.005 0-.008-.007-.008-.015 0-.009-.003-.016-.007-.016s-.008-.01-.008-.023-.003-.024-.007-.024-.008-.007-.008-.015c0-.009-.003-.016-.007-.016s-.007-.01-.007-.023-.004-.024-.008-.024-.007-.006-.007-.015-.003-.016-.008-.016c-.004 0-.007-.01-.007-.023s-.003-.023-.007-.023-.008-.007-.008-.016c0-.008-.003-.015-.007-.015s-.008-.011-.008-.024c0-.013-.003-.023-.007-.023s-.007-.007-.007-.016c0-.008-.004-.015-.008-.015s-.007-.007-.007-.016c0-.008-.004-.015-.008-.015s-.007-.01-.007-.024c0-.013-.003-.023-.007-.023-.005 0-.008-.007-.008-.016 0-.008-.003-.015-.007-.015s-.008-.01-.008-.024c0-.012-.003-.023-.007-.023s-.008-.007-.008-.016c0-.008-.003-.015-.007-.015s-.007-.01-.007-.023-.004-.024-.008-.024-.007-.007-.007-.015c0-.009-.003-.016-.008-.016-.004 0-.007-.01-.007-.023s-.003-.024-.007-.024-.008-.007-.008-.015c0-.009-.003-.016-.007-.016s-.008-.007-.008-.015c0-.009-.003-.016-.007-.016s-.008-.01-.008-.023-.003-.024-.007-.024-.007-.006-.007-.015-.004-.016-.008-.016-.007-.01-.007-.023-.004-.023-.008-.023-.007-.007-.007-.016c0-.008-.003-.015-.007-.015-.005 0-.008-.007-.008-.016 0-.009-.003-.016-.007-.016s-.008-.01-.008-.023-.003-.023-.007-.023-.008-.007-.008-.016c0-.008-.003-.015-.007-.015s-.007-.007-.007-.016c0-.009-.004-.016-.008-.016s-.007-.007-.007-.015c0-.009-.004-.016-.008-.016s-.007-.007-.007-.015c0-.009-.003-.016-.007-.016s-.008-.007-.008-.015c0-.009-.003-.016-.007-.016s-.008-.006-.008-.014a.038.038 0 0 0-.014-.025.034.034 0 0 1-.015-.025c0-.007-.004-.014-.008-.014s-.007-.005-.007-.012-.01-.022-.022-.034c-.013-.013-.023-.026-.023-.031a.12.12 0 0 0-.03-.04.126.126 0 0 1-.029-.038.253.253 0 0 0-.075-.078c-.004 0-.017-.01-.029-.024-.011-.012-.025-.023-.03-.023-.006 0-.016-.007-.021-.016-.006-.008-.016-.015-.023-.015-.006 0-.016-.007-.022-.016-.006-.008-.017-.015-.024-.015-.007 0-.013-.004-.013-.008s-.007-.008-.015-.008-.015-.003-.015-.007c0-.005-.01-.008-.022-.008-.012 0-.022-.004-.022-.008s-.007-.008-.015-.008-.015-.003-.015-.008c0-.004-.013-.007-.03-.007-.016 0-.03-.004-.03-.008S13.823 10 13.803 10c-.02 0-.037-.004-.037-.008s-.027-.008-.067-.008c-.04 0-.067-.003-.067-.007 0-.005-.02-.008-.044-.008-.025 0-.045.003-.045.008 0 .004-.03.007-.074.007s-.074.004-.074.008-.013.008-.03.008c-.016 0-.03.004-.03.008s-.013.008-.029.008-.03.003-.03.007c0 .005-.01.008-.022.008-.012 0-.022.004-.022.008s-.007.008-.015.008-.015.003-.015.008c0 .004-.006.007-.014.007-.009 0-.015.004-.015.008s-.007.008-.015.008-.015.003-.015.008c0 .004-.007.007-.015.007s-.015.004-.015.008-.005.008-.011.008c-.007 0-.022.01-.033.023a1.003 1.003 0 0 0-.237.265c-.008.006-.015.017-.015.025s-.004.014-.008.014-.007.006-.007.014c0 .007-.007.019-.015.025-.008.006-.015.017-.015.025 0 .007-.003.014-.007.014s-.007.007-.007.015c0 .009-.004.016-.008.016s-.007.007-.007.015c0 .009-.004.016-.008.016s-.007.007-.007.015c0 .009-.004.016-.008.016s-.007.007-.007.016c0 .008-.003.015-.007.015-.005 0-.008.01-.008.024 0 .012-.003.023-.007.023s-.008.007-.008.015c0 .009-.003.016-.007.016s-.008.007-.008.016c0 .008-.003.015-.007.015s-.007.01-.007.023-.004.024-.008.024-.007.007-.007.015c0 .009-.004.016-.008.016s-.007.01-.007.023-.003.024-.007.024-.008.007-.008.015c0 .009-.003.016-.007.016s-.008.01-.008.023-.003.023-.007.023-.007.007-.007.016c0 .008-.004.015-.008.015s-.007.011-.007.024c0 .013-.004.023-.008.023s-.007.007-.007.016c0 .008-.003.015-.008.015-.004 0-.007.01-.007.024 0 .013-.003.023-.007.023s-.008.007-.008.016c0 .008-.003.015-.007.015s-.008.007-.008.016c0 .008-.003.015-.007.015s-.007.01-.007.024c0 .012-.004.023-.008.023s-.007.007-.007.016c0 .008-.003.015-.008.015-.004 0-.007.01-.007.024 0 .012-.003.023-.008.023-.004 0-.007.007-.007.015 0 .009-.003.016-.007.016s-.008.01-.008.023-.003.024-.007.024-.008.007-.008.015c0 .009-.003.016-.007.016s-.007.01-.007.023-.004.024-.008.024-.007.006-.007.015-.003.016-.008.016c-.004 0-.007.01-.007.023s-.003.023-.007.023c-.005 0-.008.007-.008.016 0 .008-.003.015-.007.015s-.008.007-.008.016c0 .009-.003.016-.007.016s-.008.01-.008.023-.003.023-.007.023-.007.007-.007.016c0 .008-.004.015-.008.015s-.007.01-.007.024c0 .013-.004.023-.008.023s-.007.007-.007.016c0 .008-.003.015-.007.015s-.008.01-.008.024c0 .012-.003.023-.007.023s-.008.007-.008.015c0 .009-.003.016-.007.016s-.007.01-.007.023-.004.024-.008.024-.007.007-.007.015c0 .009-.004.016-.008.016s-.007.01-.007.023-.003.023-.008.023c-.004 0-.007.008-.007.016 0 .009-.003.016-.007.016s-.008.007-.008.015c0 .009-.003.016-.007.016s-.008.01-.008.023-.003.024-.007.024-.007.007-.007.015c0 .009-.004.016-.008.016s-.007.01-.007.023-.004.023-.008.023-.007.007-.007.016c0 .008-.003.015-.008.015-.004 0-.007.01-.007.024 0 .013-.003.023-.007.023s-.008.007-.008.016c0 .008-.003.015-.007.015s-.008.01-.008.024c0 .012-.003.023-.007.023s-.007.007-.007.015c0 .01-.004.016-.008.016s-.007.01-.007.023-.004.024-.008.024-.007.007-.007.015c0 .009-.003.016-.007.016-.005 0-.008.007-.008.015 0 .009-.003.016-.007.016s-.008.01-.008.023-.003.024-.007.024-.008.007-.008.015c0 .009-.003.016-.007.016s-.007.01-.007.023-.004.024-.008.024-.007.006-.007.015-.003.016-.008.016c-.004 0-.007.01-.007.023s-.003.023-.007.023-.008.007-.008.016c0 .008-.003.015-.007.015s-.008.011-.008.024c0 .013-.003.023-.007.023s-.007.007-.007.016c0 .008-.004.015-.008.015s-.007.01-.007.024c0 .012-.004.023-.008.023s-.007.007-.007.016c0 .008-.003.015-.008.015-.004 0-.007.01-.007.024 0 .012-.003.023-.007.023s-.008.007-.008.015c0 .009-.003.016-.007.016s-.008.007-.008.016c0 .008-.003.015-.007.015s-.007.01-.007.023-.004.024-.008.024-.007.007-.007.015c0 .009-.004.016-.008.016s-.007.01-.007.023-.003.024-.008.024c-.003 0-.007.007-.007.015 0 .009-.003.016-.007.016s-.008.01-.008.023-.003.023-.007.023-.008.007-.008.016c0 .008-.003.015-.007.015s-.007.011-.007.024c0 .013-.004.023-.008.023s-.007.007-.007.016c0 .008-.004.015-.008.015s-.007.01-.007.02c0 .018-.015.043-.025.043-.003 0-.005-.007-.005-.016 0-.009-.003-.016-.007-.016s-.007-.01-.007-.023-.004-.023-.008-.023-.007-.007-.007-.016c0-.008-.004-.015-.008-.015s-.007-.01-.007-.024c0-.012-.004-.023-.008-.023s-.007-.007-.007-.016c0-.008-.003-.015-.007-.015-.005 0-.008-.01-.008-.024 0-.012-.003-.023-.007-.023s-.008-.007-.008-.015c0-.009-.003-.016-.007-.016s-.008-.01-.008-.023-.003-.024-.007-.024-.007-.007-.007-.015c0-.009-.004-.016-.008-.016s-.007-.01-.007-.023-.003-.023-.008-.023c-.004 0-.007-.008-.007-.016 0-.009-.003-.016-.007-.016s-.008-.01-.008-.023-.003-.023-.007-.023-.008-.007-.008-.016c0-.008-.003-.015-.007-.015s-.007-.01-.007-.024c0-.013-.004-.023-.008-.023s-.007-.007-.007-.016c0-.008-.004-.015-.008-.015s-.007-.01-.007-.024c0-.012-.003-.023-.007-.023-.005 0-.008-.007-.008-.015 0-.01-.003-.016-.007-.016s-.008-.01-.008-.023-.003-.024-.007-.024-.008-.007-.008-.015c0-.009-.003-.016-.007-.016s-.007-.01-.007-.023-.004-.024-.008-.024-.007-.007-.007-.015c0-.009-.003-.016-.008-.016-.004 0-.007-.01-.007-.023s-.003-.023-.007-.023c-.005 0-.008-.007-.008-.016 0-.009-.003-.016-.007-.016s-.008-.01-.008-.023-.003-.023-.007-.023-.008-.007-.008-.016c0-.008-.003-.015-.007-.015s-.007-.01-.007-.024c0-.013-.004-.023-.008-.023s-.007-.007-.007-.016c0-.008-.003-.015-.008-.015-.004 0-.007-.01-.007-.024 0-.012-.003-.023-.007-.023-.005 0-.008-.007-.008-.015 0-.009-.003-.016-.007-.016s-.008-.01-.008-.023-.003-.024-.007-.024-.008-.007-.008-.015c0-.009-.003-.016-.007-.016s-.007-.01-.007-.023-.004-.023-.008-.023-.007-.008-.007-.016c0-.009-.003-.016-.008-.016-.004 0-.007-.01-.007-.023s-.003-.023-.007-.023-.008-.01-.008-.024c0-.012-.003-.023-.007-.023s-.008-.007-.008-.016c0-.008-.003-.015-.007-.015s-.007-.01-.007-.023-.004-.024-.008-.024-.007-.007-.007-.015c0-.009-.004-.016-.008-.016s-.007-.01-.007-.023-.003-.024-.008-.024c-.004 0-.007-.007-.007-.015 0-.009-.003-.016-.007-.016s-.008-.01-.008-.023-.003-.024-.007-.024-.008-.006-.008-.015-.003-.016-.007-.016-.007-.01-.007-.023-.004-.023-.008-.023-.007-.007-.007-.016c0-.008-.004-.015-.008-.015s-.007-.011-.007-.024c0-.013-.003-.023-.007-.023-.005 0-.008-.007-.008-.016 0-.008-.003-.015-.007-.015s-.008-.01-.008-.024c0-.013-.003-.023-.007-.023s-.008-.007-.008-.015c0-.01-.003-.016-.007-.016s-.007-.01-.007-.023-.004-.024-.008-.024-.007-.007-.007-.015c0-.009-.003-.016-.008-.016-.004 0-.007-.01-.007-.023s-.003-.024-.007-.024c-.005 0-.008-.007-.008-.015 0-.009-.003-.016-.007-.016s-.008-.01-.008-.023-.003-.023-.007-.023-.008-.007-.008-.016c0-.009-.003-.016-.007-.016s-.007-.01-.007-.023-.004-.023-.008-.023-.007-.007-.007-.016c0-.008-.003-.015-.008-.015-.004 0-.007-.01-.007-.024 0-.013-.003-.023-.007-.023s-.008-.007-.008-.016c0-.008-.003-.015-.007-.015s-.008-.01-.008-.023-.003-.024-.007-.024-.007-.007-.007-.016c0-.008-.004-.015-.008-.015s-.007-.01-.007-.023-.004-.024-.008-.024-.007-.007-.007-.015c0-.009-.003-.016-.008-.016-.004 0-.007-.01-.007-.023s-.003-.024-.007-.024-.008-.006-.008-.015-.003-.016-.007-.016-.008-.01-.008-.023-.003-.023-.007-.023-.007-.007-.007-.016c0-.008-.004-.015-.008-.015s-.007-.011-.007-.024c0-.013-.003-.023-.008-.023-.004 0-.007-.007-.007-.016 0-.008-.003-.015-.008-.015-.003 0-.007-.01-.007-.024 0-.013-.003-.023-.007-.023s-.008-.007-.008-.016c0-.008-.003-.015-.007-.015s-.008-.01-.008-.024c0-.012-.003-.023-.007-.023s-.007-.007-.007-.015c0-.009-.004-.016-.008-.016s-.007-.01-.007-.023-.004-.024-.008-.024-.007-.01-.007-.023-.003-.023-.007-.023c-.005 0-.008-.007-.008-.016 0-.008-.003-.015-.007-.015s-.008-.011-.008-.024c0-.013-.003-.023-.007-.023s-.007-.007-.007-.016c0-.008-.004-.015-.008-.015s-.007-.01-.007-.024c0-.013-.004-.023-.008-.023s-.007-.007-.007-.016c0-.008-.004-.015-.008-.015s-.007-.01-.007-.023-.003-.024-.007-.024-.008-.007-.008-.015c0-.009-.003-.016-.007-.016s-.008-.01-.008-.023-.003-.024-.007-.024-.007-.007-.007-.015c0-.009-.004-.016-.008-.016s-.007-.007-.007-.015c0-.016-.005-.016-.653-.016-.647 0-.652 0-.652.016 0 .008.003.015.007.015.005 0 .008.007.008.016 0 .008.003.015.007.015s.008.007.008.016c0 .008.003.015.007.015s.007.011.007.024c0 .013.004.023.008.023s.007.007.007.016c0 .008.004.015.008.015s.007.01.007.024c0 .012.003.023.008.023.004 0 .007.007.007.016 0 .008.003.015.007.015s.008.01.008.024c0 .012.003.023.007.023s.008.007.008.015c0 .009.003.016.007.016s.007.01.007.023.004.024.008.024.007.007.007.015c0 .009.004.016.008.016s.007.007.007.015c0 .009.003.016.008.016.004 0 .007.01.007.023s.003.024.007.024.008.007.008.015c0 .009.003.016.007.016s.008.01.008.023.003.023.007.023.007.007.007.016c0 .009.004.016.008.016s.007.01.007.023.004.023.008.023.007.007.007.016c0 .008.003.015.007.015.005 0 .008.01.008.024 0 .013.003.023.007.023s.008.007.008.016c0 .008.003.015.007.015s.008.01.008.024c0 .012.003.023.007.023s.007.007.007.016c0 .008.004.015.008.015s.007.007.007.016c0 .008.004.015.008.015s.007.01.007.024c0 .012.003.023.007.023.005 0 .008.007.008.015 0 .009.003.016.007.016s.008.01.008.023.003.024.007.024.007.007.007.015c0 .009.004.016.008.016s.007.01.007.023.004.023.008.023.007.008.007.016c0 .009.003.016.008.016.004 0 .007.01.007.023s.003.023.007.023.008.007.008.016c0 .008.003.015.007.015s.008.007.008.016c0 .009.003.016.007.016s.007.01.007.023.004.023.008.023.007.007.007.016c0 .008.004.015.008.015s.007.01.007.024c0 .013.003.023.008.023.004 0 .007.007.007.016 0 .008.003.015.007.015s.008.01.008.024c0 .012.003.023.007.023s.008.007.008.015c0 .009.003.016.007.016s.007.01.007.023.004.024.008.024.007.007.007.015c0 .009.004.016.008.016s.007.01.007.023.003.024.007.024c.005 0 .008.007.008.015 0 .009.003.016.007.016s.008.007.008.015c0 .009.003.016.007.016s.008.01.008.023.003.024.007.024.007.007.007.015c0 .009.004.016.008.016s.007.01.007.023.004.023.008.023.007.007.007.016c0 .008.003.015.007.015.005 0 .008.011.008.024 0 .013.003.023.007.023s.008.007.008.016c0 .008.003.015.007.015s.008.01.008.024c0 .012.003.023.007.023s.007.007.007.015c0 .01.004.016.008.016s.007.007.007.016c0 .008.003.015.008.015.004 0 .007.01.007.024 0 .012.003.023.007.023s.008.007.008.016c0 .008.003.015.007.015s.008.01.008.023.003.024.007.024.007.007.007.015c0 .009.004.016.008.016s.007.01.007.023.004.024.008.024.007.007.007.015c0 .009.003.016.008.016.004 0 .007.01.007.023s.003.023.007.023.008.007.008.016c0 .008.003.015.007.015s.008.011.008.024c0 .013.003.023.007.023s.007.007.007.016c0 .008.004.015.008.015s.007.007.007.016c0 .008.004.015.008.015s.007.011.007.024c0 .013.003.023.008.023.004 0 .007.007.007.016 0 .008.003.015.007.015s.008.01.008.024c0 .013.003.023.007.023s.008.007.008.015c0 .01.003.016.007.016s.007.01.007.023.004.024.008.024.007.007.007.015c0 .009.004.016.008.016s.007.01.007.023.003.024.007.024c.005 0 .008.007.008.015 0 .009.003.016.007.016s.008.007.008.015c0 .009.003.016.007.016s.008.01.008.023.003.024.007.024.007.007.007.015c0 .009.004.016.008.016s.007.01.007.023.004.023.008.023.007.007.007.016c0 .008.003.016.007.016.005 0 .008.01.008.023s.003.023.007.023.008.007.008.016c0 .008.003.015.007.015s.008.01.008.024c0 .012.003.023.007.023s.007.007.007.016c0 .008.004.015.008.015s.007.007.007.016c0 .008.003.015.008.015.004 0 .007.01.007.024 0 .012.003.023.007.023s.008.007.008.015c0 .01.003.016.007.016s.008.01.008.023.003.024.007.024.007.007.007.015c0 .009.004.016.008.016s.007.01.007.023.004.024.008.024.007.007.007.015c0 .009.003.016.008.016.004 0 .007.01.007.023s.003.023.007.023.008.007.008.016c0 .009.003.016.007.016s.008.01.008.023.003.023.007.023.007.007.007.016c0 .008.004.015.008.015s.007.007.007.016c0 .008.004.015.008.015s.007.011.007.024c0 .013.003.023.008.023.003 0 .007.007.007.016 0 .008.003.015.007.015s.008.01.008.024c0 .013.003.023.007.023s.008.007.008.016c0 .008.003.015.007.015s.007.01.007.024c0 .012.004.023.008.023s.007.007.007.015c0 .009.004.016.008.016s.007.01.007.023.003.024.007.024c.005 0 .008.007.008.015 0 .009.003.016.007.016s.008.007.008.015c0 .009.003.016.007.016s.007.01.007.023.004.024.008.024.007.007.007.015c0 .009.004.016.008.016s.007.01.007.023.004.023.008.023.007.007.007.016c0 .009.003.016.007.016.005 0 .008.01.008.023s.003.023.007.023.008.007.008.016c0 .008.003.015.007.015s.007.01.007.024c0 .013.004.023.008.023s.007.007.007.016c0 .008.004.015.008.015s.007.007.007.016c0 .008.003.015.008.015.004 0 .007.01.007.024 0 .012.003.023.007.023s.008.007.008.016c0 .008.003.015.007.015s.008.007.008.016c0 .008.003.015.007.015s.007.007.007.016c0 .008.004.015.008.015s.007.007.007.016c0 .008.004.015.008.015s.007.008.007.016c0 .009.003.016.007.016.005 0 .008.007.008.015 0 .009.003.016.007.016s.008.007.008.015c0 .009.003.016.007.016s.008.006.008.014c0 .007.006.019.014.025.008.006.015.017.015.023 0 .007.007.017.015.024.008.006.015.016.015.021 0 .006.01.021.022.033a.643.643 0 0 0 .17.179c.012.013.026.023.032.023.005 0 .015.007.02.016.006.009.017.016.024.016.008 0 .013.003.013.007s.007.008.015.008c.009 0 .015.004.015.008s.007.008.015.008.015.003.015.007c0 .005.01.008.022.008.012 0 .022.004.022.008s.007.008.015.008.015.003.015.008c0 .004.013.007.03.007.016 0 .03.004.03.008s.016.008.036.008c.02 0 .037.003.037.008 0 .004.028.007.067.007.04 0 .067.004.067.008 0 .005.022.008.052.008s.052-.003.052-.008.03-.008.074-.008.074-.003.074-.007c0-.005.013-.008.03-.008.016 0 .03-.004.03-.008s.013-.008.029-.008.03-.003.03-.007c0-.005.01-.008.022-.008.012 0 .022-.004.022-.008s.007-.008.015-.008.015-.003.015-.008c0-.004.006-.007.014-.007.009 0 .015-.004.015-.008 0-.005.007-.008.015-.008s.015-.004.015-.008.007-.008.015-.008.015-.003.015-.007c0-.005.005-.008.012-.008.006 0 .02-.01.032-.023.011-.013.025-.024.03-.024a.998.998 0 0 0 .207-.241c.008-.006.015-.018.015-.025 0-.008.003-.014.008-.014.004 0 .007-.006.007-.014 0-.007.007-.019.015-.025.008-.006.015-.017.015-.025 0-.007.003-.014.007-.014s.007-.007.007-.015c0-.009.004-.016.008-.016s.007-.007.007-.015c0-.009.004-.016.008-.016s.007-.007.007-.016c0-.008.003-.015.007-.015.005 0 .008-.01.008-.024 0-.012.003-.023.007-.023s.008-.007.008-.015c0-.009.003-.016.007-.016s.008-.007.008-.016c0-.008.003-.015.007-.015s.007-.007.007-.016c0-.008.004-.015.008-.015s.007-.01.007-.024c0-.012.004-.023.008-.023s.007-.007.007-.016c0-.008.003-.015.008-.015.003 0 .007-.01.007-.023s.003-.024.007-.024.008-.007.008-.015c0-.009.003-.016.007-.016s.008-.01.008-.023.003-.024.007-.024.007-.007.007-.015c0-.009.004-.016.008-.016s.007-.01.007-.023.004-.023.008-.023.007-.007.007-.016c0-.008.003-.015.007-.015.005 0 .008-.011.008-.024 0-.013.003-.023.007-.023s.008-.007.008-.016c0-.008.003-.015.007-.015s.008-.007.008-.016c0-.008.003-.015.007-.015s.007-.011.007-.024c0-.013.004-.023.008-.023s.007-.007.007-.016c0-.008.004-.015.008-.015s.007-.01.007-.024c0-.012.003-.023.007-.023.005 0 .008-.007.008-.015 0-.01.003-.016.007-.016s.008-.01.008-.023.003-.024.007-.024.007-.007.007-.015c0-.009.004-.016.008-.016s.007-.01.007-.023.004-.024.008-.024.007-.007.007-.015c0-.009.003-.016.008-.016.004 0 .007-.01.007-.023s.003-.023.007-.023.008-.007.008-.016c0-.009.003-.016.007-.016s.008-.01.008-.023.003-.023.007-.023.007-.007.007-.016c0-.008.004-.015.008-.015s.007-.007.007-.016c0-.009.004-.016.008-.016s.007-.01.007-.023.003-.023.008-.023c.004 0 .007-.007.007-.016 0-.008.003-.015.007-.015s.008-.01.008-.024c0-.012.003-.023.007-.023s.008-.007.008-.016c0-.008.003-.015.007-.015s.007-.01.007-.024c0-.012.004-.023.008-.023s.007-.007.007-.015c0-.009.003-.016.008-.016.004 0 .007-.01.007-.023s.003-.024.007-.024c.005 0 .008-.007.008-.015 0-.009.003-.016.007-.016s.008-.01.008-.023.003-.023.007-.023.008-.008.008-.016c0-.009.003-.016.007-.016s.007-.007.007-.015c0-.009.004-.016.008-.016s.007-.01.007-.023.003-.023.008-.023c.004 0 .007-.007.007-.016 0-.009.003-.016.007-.016.005 0 .008-.01.008-.023s.003-.023.007-.023.008-.007.008-.016c0-.008.003-.015.007-.015s.008-.01.008-.024c0-.013.003-.023.007-.023s.007-.007.007-.016c0-.008.004-.015.008-.015s.007-.01.007-.024c0-.012.003-.023.008-.023.004 0 .007-.007.007-.015 0-.009.003-.016.007-.016s.008-.01.008-.023.003-.024.007-.024.008-.007.008-.015c0-.009.003-.016.007-.016s.007-.007.007-.015c0-.009.004-.016.008-.016s.007-.01.007-.023.004-.024.008-.024.007-.007.007-.015c0-.009.003-.016.008-.016.004 0 .007-.01.007-.023s.003-.024.007-.024.008-.007.008-.015c0-.009.003-.016.007-.016s.008-.01.008-.023.003-.023.007-.023.007-.007.007-.016c0-.008.004-.015.008-.015s.007-.011.007-.024c0-.013.004-.023.008-.023s.007-.007.007-.016c0-.008.003-.015.007-.015.005 0 .008-.01.008-.024 0-.012.003-.023.007-.023s.008-.007.008-.015c0-.01.003-.016.007-.016s.008-.007.008-.016c0-.008.003-.015.007-.015s.007-.01.007-.024c0-.012.004-.023.008-.023s.007-.007.007-.016c0-.008.004-.015.008-.015s.007-.01.007-.023.003-.024.007-.024c.005 0 .008-.007.008-.015 0-.009.003-.016.007-.016s.008-.01.008-.023.003-.024.007-.024.008-.007.008-.015c0-.009.003-.016.007-.016s.007-.01.007-.023.004-.023.008-.023.007-.007.007-.016c0-.008.003-.015.008-.015.004 0 .007-.011.007-.024 0-.013.002-.023.004-.023.011 0 .026.024.026.042 0 .011.003.02.007.02s.007.007.007.016c0 .008.004.015.008.015s.007.01.007.024c0 .012.004.023.008.023s.007.007.007.015c0 .009.003.016.007.016.005 0 .008.007.008.016 0 .008.003.015.007.015s.008.01.008.024c0 .012.003.023.007.023s.008.007.008.015c0 .009.003.016.007.016s.007.01.007.023.004.024.008.024.007.007.007.015c0 .009.003.016.008.016.004 0 .007.01.007.023s.003.024.007.024.008.007.008.015c0 .009.003.016.007.016s.008.01.008.023.003.023.007.023.008.007.008.016c0 .008.003.015.007.015s.007.007.007.016c0 .008.004.016.008.016s.007.01.007.023.004.023.008.023.007.007.007.016c0 .008.003.015.007.015.005 0 .008.01.008.024 0 .013.003.023.007.023s.008.007.008.016c0 .008.003.015.007.015s.007.01.007.024c0 .012.004.023.008.023s.007.007.007.015c0 .009.004.016.008.016s.007.01.007.023.004.024.008.024.007.007.007.015c0 .009.003.016.007.016s.008.007.008.015c0 .009.003.016.007.016s.008.01.008.023.003.024.007.024.007.007.007.015c0 .009.004.016.008.016s.007.01.007.023.004.024.008.024.007.006.007.015.003.016.008.016c.004 0 .007.01.007.023s.003.023.007.023.008.007.008.016c0 .008.003.015.007.015s.008.01.008.024c0 .013.003.023.007.023s.007.007.007.016c0 .008.004.015.008.015s.007.007.007.016c0 .008.004.015.008.015s.007.01.007.024c0 .013.003.023.008.023.004 0 .007.007.007.016 0 .008.003.015.007.015s.008.01.008.023.003.024.007.024.008.007.008.016c0 .008.003.015.007.015s.007.01.007.023.004.024.008.024.007.007.007.015c0 .009.003.016.008.016.004 0 .007.01.007.023s.003.024.007.024c.005 0 .008.006.008.015s.003.016.007.016.008.007.008.015c0 .009.003.016.007.016s.008.01.008.023.003.024.007.024.007.006.007.015.004.016.008.016.007.01.007.023.003.023.007.023c.005 0 .008.007.008.016 0 .008.003.015.007.015.005 0 .008.01.008.024 0 .013.003.023.007.023s.008.007.008.016c0 .008.003.015.007.015s.007.01.007.024c0 .012.004.023.008.023s.007.007.007.015c0 .01.004.016.008.016s.007.007.007.016c0 .008.003.015.008.015.004 0 .007.01.007.024 0 .012.003.023.007.023s.008.007.008.015c0 .009.003.016.007.016s.008.01.008.023.003.024.007.024.007.007.007.015c0 .009.004.016.008.016s.007.01.007.023.004.024.008.024.007.007.007.015c0 .009.003.016.008.016.003 0 .007.01.007.023s.003.023.007.023.008.007.008.016c0 .008.003.016.007.016s.007.007.007.015c0 .009.004.016.008.016s.007.01.007.023.004.023.008.023.007.007.007.016c0 .008.004.015.008.015s.007.01.007.024c0 .013.003.023.007.023.005 0 .008.007.008.016 0 .008.003.015.007.015s.008.01.008.024c0 .012.003.023.007.023s.008.007.008.015c0 .01.003.016.007.016s.007.007.007.016c0 .008.004.015.008.015s.007.01.007.024c0 .012.004.023.008.023s.007.007.007.015c0 .009.003.016.007.016.005 0 .008.007.008.016 0 .008.003.015.007.015s.008.007.008.016c0 .008.003.015.007.015s.008.007.008.016c0 .008.003.015.007.015s.007.007.007.016c0 .008.004.015.008.015s.007.008.007.016c0 .009.003.016.008.016.004 0 .007.007.007.015 0 .009.003.016.007.016s.008.006.008.014c0 .007.006.019.015.025a.036.036 0 0 1 .014.025c0 .007.004.014.008.014s.007.005.007.012.01.022.022.034c.013.012.023.026.023.031a.12.12 0 0 0 .03.04c.016.016.029.033.029.038 0 .011.064.078.075.078.004 0 .017.01.029.023.011.013.025.024.03.024.004 0 .018.01.03.023.01.013.025.024.032.024.006 0 .012.003.012.007s.006.008.014.008c.009 0 .015.004.015.008s.007.008.015.008.015.003.015.007c0 .005.01.008.022.008.012 0 .022.004.022.008s.007.008.015.008.015.003.015.008c0 .004.013.007.03.007.016 0 .03.004.03.008s.016.008.036.008c.02 0 .037.003.037.008 0 .004.033.007.082.007.05 0 .082.004.082.008s.01.008.022.008c.012 0 .022-.004.022-.008 0-.005.03-.008.074-.008.045 0 .074-.003.074-.007 0-.005.017-.008.037-.008.02 0 .037-.004.037-.008s.01-.008.023-.008c.012 0 .022-.003.022-.007 0-.005.01-.008.022-.008.012 0 .022-.004.022-.008s.007-.008.015-.008.015-.003.015-.008c0-.004.01-.007.022-.007.013 0 .023-.004.023-.008 0-.005.006-.008.014-.008s.015-.004.015-.008.006-.008.013-.008c.008 0 .018-.006.024-.015.006-.009.017-.016.024-.016.007 0 .013-.003.013-.007 0-.005.006-.008.014-.008.007 0 .017-.007.023-.016.006-.008.016-.015.021-.015.006 0 .02-.01.031-.024.012-.013.025-.023.03-.023.01 0 .222-.223.222-.234 0-.005.01-.019.023-.03.012-.013.022-.027.022-.032 0-.005.01-.019.022-.03.012-.013.022-.027.022-.032 0-.005.01-.02.023-.031.012-.012.022-.027.022-.033 0-.006.006-.016.015-.022.008-.006.014-.016.014-.023 0-.007.007-.017.015-.023.008-.007.015-.017.015-.024 0-.006.007-.017.015-.023.008-.006.015-.017.015-.023 0-.007.006-.018.014-.024.009-.006.015-.016.015-.023 0-.007.007-.017.015-.023.008-.007.015-.018.015-.026 0-.007.003-.013.007-.013.005 0 .008-.007.008-.014 0-.008.007-.019.015-.025.008-.006.015-.018.015-.025 0-.008.003-.014.007-.014s.007-.006.007-.014.007-.019.015-.025c.008-.006.015-.018.015-.025 0-.008.003-.014.007-.014.005 0 .008-.007.008-.015 0-.01.003-.016.007-.016s.008-.006.008-.014.006-.019.014-.025c.009-.006.015-.017.015-.025s.004-.014.008-.014.007-.007.007-.015c0-.009.003-.016.008-.016.004 0 .007-.007.007-.016 0-.008.003-.015.007-.015s.008-.007.008-.016c0-.008.003-.015.007-.015s.008-.007.008-.016c0-.008.003-.015.007-.015s.007-.007.007-.016c0-.008.004-.015.008-.015s.007-.008.007-.016c0-.009.004-.016.008-.016s.007-.007.007-.015c0-.009.003-.016.008-.016.004 0 .007-.007.007-.015 0-.009.003-.016.007-.016s.008-.007.008-.015c0-.009.003-.016.007-.016s.008-.007.008-.016c0-.008.003-.015.007-.015s.007-.007.007-.016c0-.008.004-.015.008-.015s.007-.01.007-.024c0-.013.004-.023.008-.023s.007-.007.007-.016c0-.008.003-.015.007-.015.005 0 .008-.007.008-.016 0-.008.003-.015.007-.015s.008-.01.008-.024c0-.012.003-.023.007-.023s.008-.007.008-.016c0-.008.003-.015.007-.015s.007-.007.007-.016c0-.008.004-.015.008-.015s.007-.01.007-.024c0-.012.003-.023.008-.023.004 0 .007-.01.007-.023s.003-.024.007-.024c.005 0 .008-.007.008-.015 0-.009.003-.016.007-.016s.008-.01.008-.023.003-.023.007-.023.008-.01.008-.024c0-.013.003-.023.007-.023s.007-.01.007-.024c0-.012.004-.023.008-.023s.007-.01.007-.023.003-.023.008-.023c.004 0 .007-.011.007-.024 0-.013.003-.023.007-.023s.008-.01.008-.024c0-.012.003-.023.007-.023s.008-.01.008-.023.003-.024.007-.024.007-.014.007-.03c0-.018.004-.032.008-.032s.007-.014.007-.031.004-.031.008-.031.007-.01.007-.023.003-.024.007-.024c.005 0 .008-.014.008-.03 0-.018.003-.032.007-.032s.008-.018.008-.039.003-.039.007-.039.008-.014.008-.031.003-.031.007-.031.007-.018.007-.039.004-.039.008-.039.007-.017.007-.039c0-.021.003-.039.008-.039.004 0 .007-.017.007-.039 0-.021.003-.039.008-.039.004 0 .007-.023.007-.054s.003-.054.007-.054c.005 0 .008-.024.008-.055s.003-.055.007-.055c.005 0 .008-.028.008-.07 0-.041.003-.07.007-.07.005 0 .007-.036.007-.093s.003-.093.008-.093.007-.12.007-.343c0-.223-.002-.342-.007-.342s-.008-.04-.008-.101c0-.063-.003-.101-.007-.101s-.008-.026-.008-.063c0-.036-.003-.062-.007-.062s-.007-.026-.007-.062c0-.037-.003-.063-.008-.063-.004 0-.007-.017-.007-.038 0-.022-.004-.04-.008-.04s-.007-.02-.007-.046-.003-.047-.007-.047c-.005 0-.008-.02-.008-.046s-.003-.047-.007-.047-.008-.014-.008-.031-.003-.031-.007-.031-.007-.014-.007-.032c0-.017-.004-.03-.008-.03s-.007-.018-.007-.04c0-.02-.004-.038-.008-.038s-.007-.014-.007-.032c0-.017-.003-.03-.008-.03-.004 0-.007-.011-.007-.024 0-.013-.003-.023-.007-.023s-.008-.014-.008-.032c0-.017-.003-.03-.007-.03s-.008-.011-.008-.024c0-.013-.003-.023-.007-.023s-.007-.014-.007-.031c0-.018-.004-.032-.008-.032s-.007-.01-.007-.023-.004-.023-.008-.023-.007-.01-.007-.024c0-.012-.003-.023-.008-.023-.004 0-.007-.01-.007-.023s-.003-.024-.007-.024-.008-.01-.008-.023-.003-.023-.007-.023-.008-.01-.008-.024c0-.013-.003-.023-.007-.023s-.007-.01-.007-.023-.004-.024-.008-.024-.007-.007-.007-.015c0-.009-.003-.016-.008-.016-.004 0-.007-.01-.007-.023s-.003-.024-.007-.024c-.005 0-.008-.007-.008-.015 0-.009-.003-.016-.007-.016s-.008-.01-.008-.023-.003-.023-.007-.023-.008-.01-.008-.024c0-.013-.003-.023-.007-.023s-.007-.007-.007-.016c0-.008-.004-.015-.008-.015s-.007-.007-.007-.016c0-.008-.003-.015-.008-.015-.004 0-.007-.007-.007-.016 0-.008-.003-.015-.007-.015-.005 0-.008-.011-.008-.024 0-.013-.003-.023-.007-.023s-.008-.007-.008-.016c0-.008-.003-.015-.007-.015s-.008-.007-.008-.016c0-.008-.003-.015-.007-.015s-.007-.007-.007-.016c0-.009-.004-.016-.008-.016s-.007-.007-.007-.015c0-.009-.003-.016-.008-.016-.004 0-.007-.007-.007-.015 0-.009-.003-.016-.007-.016s-.008-.007-.008-.015c0-.009-.003-.016-.007-.016s-.008-.007-.008-.015c0-.01-.003-.016-.007-.016s-.007-.007-.007-.016c0-.008-.004-.015-.008-.015s-.007-.007-.007-.016c0-.008-.004-.015-.008-.015s-.007-.007-.007-.016c0-.008-.003-.015-.008-.015-.004 0-.007-.007-.007-.016 0-.009-.003-.016-.007-.016s-.008-.007-.008-.015c0-.009-.003-.016-.007-.016s-.008-.006-.008-.014c0-.007-.006-.018-.014-.025a.034.034 0 0 1-.015-.025c0-.007-.004-.014-.008-.014s-.007-.006-.007-.013a.035.035 0 0 0-.015-.025c-.008-.007-.015-.018-.015-.025 0-.008-.003-.014-.007-.014s-.008-.007-.008-.016c0-.008-.003-.015-.007-.015s-.007-.007-.007-.014a.035.035 0 0 0-.015-.025c-.008-.007-.015-.017-.015-.024 0-.006-.007-.017-.015-.023-.008-.006-.015-.017-.015-.023 0-.007-.006-.018-.015-.024-.008-.006-.014-.016-.014-.023 0-.007-.007-.017-.015-.023-.008-.007-.015-.017-.015-.024 0-.006-.007-.017-.015-.023-.008-.006-.015-.017-.015-.024 0-.006-.006-.017-.014-.023-.009-.006-.015-.016-.015-.022 0-.006-.01-.02-.022-.032-.013-.012-.023-.027-.023-.033 0-.006-.006-.016-.015-.022-.008-.006-.014-.016-.014-.022 0-.006-.01-.02-.023-.032-.012-.012-.022-.026-.022-.031a.12.12 0 0 0-.03-.04.124.124 0 0 1-.03-.038.123.123 0 0 0-.029-.04.125.125 0 0 1-.03-.038c0-.005-.02-.03-.044-.055a.248.248 0 0 1-.044-.054.726.726 0 0 0-.082-.093.753.753 0 0 1-.082-.094c0-.01-.138-.155-.148-.155a.737.737 0 0 1-.089-.086.708.708 0 0 0-.089-.086.243.243 0 0 1-.052-.046.233.233 0 0 0-.052-.047.15.15 0 0 1-.037-.031c-.015-.017-.032-.031-.037-.031-.005 0-.018-.01-.03-.024-.01-.012-.024-.023-.029-.023-.005 0-.021-.014-.037-.031-.016-.017-.033-.031-.039-.031-.005 0-.014-.007-.02-.016-.006-.008-.016-.015-.021-.015-.006 0-.02-.01-.031-.024-.012-.013-.026-.023-.031-.023-.006 0-.015-.007-.021-.016-.006-.008-.016-.015-.022-.015-.007 0-.017-.007-.023-.016-.005-.008-.015-.015-.022-.015-.006 0-.016-.007-.022-.016-.006-.008-.016-.015-.022-.015-.007 0-.017-.007-.022-.016-.006-.009-.016-.016-.023-.016-.006 0-.016-.007-.022-.015-.006-.009-.017-.016-.024-.016-.007 0-.013-.003-.013-.007 0-.005-.006-.008-.013-.008-.008 0-.018-.007-.024-.016-.006-.008-.017-.015-.024-.015-.007 0-.013-.004-.013-.008s-.006-.008-.013-.008c-.008 0-.018-.007-.024-.015-.006-.009-.017-.016-.024-.016-.007 0-.013-.004-.013-.008s-.007-.008-.015-.008-.015-.003-.015-.007c0-.005-.006-.008-.013-.008-.007 0-.018-.007-.024-.016-.006-.008-.017-.015-.024-.015-.007 0-.013-.004-.013-.008s-.007-.008-.015-.008-.015-.003-.015-.008c0-.004-.006-.007-.015-.007-.008 0-.014-.004-.014-.008s-.007-.008-.015-.008-.015-.003-.015-.008c0-.004-.007-.008-.015-.008s-.015-.003-.015-.007c0-.005-.006-.008-.014-.008-.009 0-.015-.004-.015-.008s-.007-.008-.015-.008-.015-.003-.015-.007c0-.005-.007-.008-.015-.008s-.015-.004-.015-.008-.006-.008-.014-.008c-.009 0-.015-.003-.015-.008 0-.004-.007-.007-.015-.007s-.015-.004-.015-.008-.007-.008-.015-.008-.015-.003-.015-.008c0-.004-.006-.008-.015-.008-.008 0-.014-.003-.014-.007 0-.005-.01-.008-.022-.008-.013 0-.023-.004-.023-.008s-.006-.008-.015-.008c-.008 0-.014-.003-.014-.007 0-.005-.007-.008-.015-.008s-.015-.004-.015-.008-.007-.008-.015-.008-.015-.003-.015-.008c0-.004-.01-.007-.022-.007-.012 0-.022-.004-.022-.008s-.007-.008-.015-.008-.015-.003-.015-.008c0-.004-.01-.007-.022-.007-.012 0-.022-.004-.022-.008 0-.005-.007-.008-.015-.008s-.015-.004-.015-.008-.01-.008-.022-.008c-.013 0-.023-.003-.023-.007 0-.005-.01-.008-.022-.008-.012 0-.022-.004-.022-.008s-.01-.008-.022-.008c-.012 0-.022-.003-.022-.008 0-.004-.01-.007-.023-.007-.012 0-.022-.004-.022-.008s-.01-.008-.022-.008c-.012 0-.022-.003-.022-.008 0-.004-.007-.007-.015-.007s-.015-.004-.015-.008-.01-.008-.022-.008c-.012 0-.023-.003-.023-.008 0-.004-.013-.008-.03-.008-.015 0-.029-.003-.029-.007 0-.005-.01-.008-.022-.008-.012 0-.022-.004-.022-.008s-.014-.008-.03-.008-.03-.003-.03-.007c0-.005-.013-.008-.03-.008-.016 0-.029-.004-.029-.008s-.01-.008-.022-.008c-.012 0-.022-.003-.022-.008 0-.004-.017-.007-.037-.007-.02 0-.037-.004-.037-.008s-.014-.008-.03-.008-.03-.003-.03-.008c0-.004-.013-.007-.03-.007-.016 0-.03-.004-.03-.008 0-.005-.016-.008-.036-.008-.02 0-.037-.004-.037-.008s-.02-.008-.045-.008c-.024 0-.044-.003-.044-.007 0-.005-.02-.008-.045-.008-.024 0-.044-.004-.044-.008s-.02-.008-.045-.008c-.024 0-.044-.003-.044-.008 0-.004-.025-.007-.06-.007-.034 0-.059-.004-.059-.008 0-.005-.03-.008-.074-.008s-.074-.003-.074-.008c0-.004-.04-.007-.104-.007s-.104-.003-.104-.008S12.504 6 12.341 6s-.252.003-.252.008z" fill="#fff"/><circle cx="12" cy="12" r="11.5" stroke="#fff"/></svg>