<svg width="433" height="410" viewBox="0 0 433 410" fill="none" xmlns="http://www.w3.org/2000/svg"><path d="M290.741 175.307c-69.482 1.252-97.204-26.407-75.882-66.24 38.868-72.615-116.242-160.442-117.72-4.079-.644 68.144-20.958 111.772-5.071 151.878 21.731 54.858 98.322 123.519 196.92 97.718 98.599-25.8 122.823-181.459 1.753-179.277z" fill="#008200" fill-opacity=".2"/><path d="M258.494 161.319c-66.101 10.279-76.271-12.345-93.704-29.773C131.578 98.345 63.138 90.153 57.284 189.64c-7.99 135.793 154.721 209.862 254.236 66.807 29.282-42.093 19.896-106.468-53.026-95.128z" fill="url(#a)" fill-opacity=".3"/><path d="M257.662 113.775c-28.039 14.594-13.66 52.536 24.445 37.943 35.229-17.512 21.568-56.184-24.445-37.943z" fill="url(#b)" fill-opacity=".4"/><path d="M315.26 110.142c-71.066-30.457-4.351-77.592 32.633-33.358 19.493 23.316 36.983 69.617 19.58 73.968-21.031 5.257-28.94-30.636-52.213-40.61z" fill="url(#c)" fill-opacity=".4"/><circle cx="299" cy="165" r="5.5" stroke="#008200"/><circle cx="125" cy="386" r="5.5" stroke="#008200"/><circle cx="346" cy="243" r="5.5" stroke="#fff"/><circle cx="213" cy="113" r="10" fill="url(#d)" fill-opacity=".6"/><circle cx="78" cy="90" r="5.5" stroke="#008200"/><path d="M58 101.8h2.8V99h1.4v2.8H65v1.4h-2.8v2.8h-1.4v-2.8H58v-1.4z" fill="#FFDD40"/><path d="M307 153.8h2.8V151h1.4v2.8h2.8v1.4h-2.8v2.8h-1.4v-2.8H307v-1.4zm-103-71h2.8V80h1.4v2.8h2.8v1.4h-2.8V87h-1.4v-2.8H204v-1.4zm-65 286h2.8V366h1.4v2.8h2.8v1.4h-2.8v2.8h-1.4v-2.8H139v-1.4z" fill="#97BA1E"/><path d="M354 254.8h2.8V252h1.4v2.8h2.8v1.4h-2.8v2.8h-1.4v-2.8H354v-1.4z" fill="#fff"/><path d="M280 55.8h2.8V53h1.4v2.8h2.8v1.4h-2.8V60h-1.4v-2.8H280v-1.4z" fill="#FFDD40"/><path d="M54.358 337.712c0 .688-.136 1.352-.408 1.992a9.248 9.248 0 0 1-1.104 1.896 14.762 14.762 0 0 1-1.56 1.824 63.222 63.222 0 0 1-1.8 1.776c-.416.4-.832.792-1.248 1.176-.4.368-.776.72-1.128 1.056h6.36c.24 0 .416.048.528.144.112.08.168.232.168.456v1.272c0 .464-.232.696-.696.696h-9.408c-.288 0-.488-.056-.6-.168-.096-.112-.144-.304-.144-.576v-1.152c0-.24.024-.424.072-.552.064-.128.184-.28.36-.456a49.677 49.677 0 0 1 2.304-2.208 46.507 46.507 0 0 0 2.184-2.136c.912-.96 1.632-1.832 2.16-2.616.544-.784.816-1.528.816-2.232 0-.752-.232-1.304-.696-1.656-.464-.368-1.056-.552-1.776-.552-.544 0-1.088.088-1.632.264-.544.16-1.152.424-1.824.792a.813.813 0 0 1-.456.096c-.128-.016-.24-.128-.336-.336l-.552-1.2c-.08-.176-.104-.328-.072-.456s.144-.248.336-.36c.72-.432 1.496-.776 2.328-1.032a8.845 8.845 0 0 1 2.616-.384 6.64 6.64 0 0 1 2.064.312c.64.192 1.192.488 1.656.888.464.384.824.864 1.08 1.44.272.576.408 1.24.408 1.992zm13.861 3.936c0 1.136-.112 2.224-.336 3.264-.208 1.04-.552 1.96-1.032 2.76a5.527 5.527 0 0 1-1.824 1.92c-.752.464-1.664.696-2.736.696-1.072 0-1.984-.232-2.736-.696a5.666 5.666 0 0 1-1.848-1.848c-.48-.784-.832-1.688-1.056-2.712a16.612 16.612 0 0 1-.312-3.264c0-1.12.112-2.2.336-3.24.24-1.056.6-1.984 1.08-2.784a5.892 5.892 0 0 1 1.872-1.944c.752-.48 1.656-.72 2.712-.72 1.072 0 1.976.24 2.712.72a5.38 5.38 0 0 1 1.824 1.872c.464.784.8 1.696 1.008 2.736.224 1.04.336 2.12.336 3.24zm-3.216 0c0-1.824-.216-3.264-.648-4.32-.416-1.056-1.088-1.584-2.016-1.584-.496 0-.92.144-1.272.432-.352.288-.64.696-.864 1.224-.224.512-.392 1.128-.504 1.848-.096.72-.144 1.52-.144 2.4 0 .896.048 1.712.144 2.448.096.72.248 1.344.456 1.872.224.512.504.912.84 1.2.352.288.784.432 1.296.432s.944-.144 1.296-.432c.352-.288.632-.688.84-1.2.208-.528.352-1.152.432-1.872.096-.736.144-1.552.144-2.448zm16.261-3.936c0 .688-.136 1.352-.408 1.992a9.248 9.248 0 0 1-1.104 1.896 14.762 14.762 0 0 1-1.56 1.824 63.222 63.222 0 0 1-1.8 1.776c-.416.4-.832.792-1.248 1.176-.4.368-.776.72-1.128 1.056h6.36c.24 0 .416.048.528.144.112.08.168.232.168.456v1.272c0 .464-.232.696-.696.696h-9.408c-.288 0-.488-.056-.6-.168-.096-.112-.144-.304-.144-.576v-1.152c0-.24.024-.424.072-.552.064-.128.184-.28.36-.456a49.677 49.677 0 0 1 2.304-2.208 46.507 46.507 0 0 0 2.184-2.136c.912-.96 1.632-1.832 2.16-2.616.544-.784.816-1.528.816-2.232 0-.752-.232-1.304-.696-1.656-.464-.368-1.056-.552-1.776-.552-.544 0-1.088.088-1.632.264-.544.16-1.152.424-1.824.792a.813.813 0 0 1-.456.096c-.128-.016-.24-.128-.336-.336l-.552-1.2c-.08-.176-.104-.328-.072-.456s.144-.248.336-.36c.72-.432 1.496-.776 2.328-1.032a8.845 8.845 0 0 1 2.616-.384 6.64 6.64 0 0 1 2.064.312c.64.192 1.192.488 1.656.888.464.384.824.864 1.08 1.44.272.576.408 1.24.408 1.992zm13.861 3.936c0 1.136-.112 2.224-.336 3.264-.208 1.04-.552 1.96-1.032 2.76a5.527 5.527 0 0 1-1.824 1.92c-.752.464-1.664.696-2.736.696-1.072 0-1.984-.232-2.736-.696a5.666 5.666 0 0 1-1.848-1.848c-.48-.784-.832-1.688-1.056-2.712a16.612 16.612 0 0 1-.312-3.264c0-1.12.112-2.2.336-3.24.24-1.056.6-1.984 1.08-2.784a5.892 5.892 0 0 1 1.872-1.944c.752-.48 1.656-.72 2.712-.72 1.072 0 1.976.24 2.712.72a5.38 5.38 0 0 1 1.824 1.872c.464.784.8 1.696 1.008 2.736.224 1.04.336 2.12.336 3.24zm-3.216 0c0-1.824-.216-3.264-.648-4.32-.416-1.056-1.088-1.584-2.016-1.584-.496 0-.92.144-1.272.432-.352.288-.64.696-.864 1.224-.224.512-.392 1.128-.504 1.848-.096.72-.144 1.52-.144 2.4 0 .896.048 1.712.144 2.448.096.72.248 1.344.456 1.872.224.512.504.912.84 1.2.352.288.784.432 1.296.432s.944-.144 1.296-.432c.352-.288.632-.688.84-1.2.208-.528.352-1.152.432-1.872.096-.736.144-1.552.144-2.448z" fill="#205527"/><g filter="url(#e)"><path d="M46.967 235.64c0 .56-.12.933-.36 1.12-.214.16-.587.24-1.12.24h-3.32c-.64 0-1.067-.067-1.28-.2-.187-.133-.28-.507-.28-1.12v-19.44l-5.32 2.84c-.827.427-1.454.2-1.88-.68l-1.08-2.2c-.32-.693-.107-1.253.64-1.68l8.32-4.76c.373-.213.706-.347 1-.4.293-.08.666-.12 1.12-.12h2.44c.373 0 .653.08.84.24.186.133.28.413.28.84v25.32zM73.5 228c0 1.52-.294 2.88-.88 4.08a8.832 8.832 0 0 1-2.32 3c-.987.8-2.147 1.413-3.48 1.84-1.334.4-2.76.6-4.28.6-1.468 0-2.894-.173-4.28-.52a15.425 15.425 0 0 1-3.92-1.48 1.748 1.748 0 0 1-.68-.64c-.134-.267-.107-.613.08-1.04l1.2-2.64c.16-.373.373-.573.64-.6.292-.053.613 0 .96.16 1.2.587 2.28 1 3.24 1.24.96.24 1.946.36 2.96.36 1.306 0 2.386-.373 3.24-1.12.852-.747 1.28-1.72 1.28-2.92 0-.64-.12-1.24-.36-1.8a3.58 3.58 0 0 0-1.04-1.44 4.794 4.794 0 0 0-2.04-1.04c-.748-.213-1.614-.32-2.6-.32H57.3c-.56 0-.96-.147-1.2-.44-.214-.32-.32-.773-.32-1.36v-11c0-.667.133-1.107.4-1.32.266-.24.666-.36 1.2-.36h13.6c.906 0 1.36.44 1.36 1.32v2.64c0 .453-.108.8-.32 1.04-.188.24-.534.36-1.04.36H62.1v4.44h.28c1.466 0 2.866.173 4.2.52 1.36.32 2.546.84 3.56 1.56a8.006 8.006 0 0 1 2.44 2.8c.612 1.12.92 2.48.92 4.08zm28.972-18.8c0 .213-.094.453-.28.72l-16.56 26.8c-.187.293-.387.493-.6.6-.214.133-.507.2-.88.2h-3.4c-.187 0-.36-.04-.52-.12-.134-.08-.2-.213-.2-.4 0-.133.053-.293.16-.48l16.88-26.92c.213-.373.426-.627.64-.76.24-.133.586-.2 1.04-.2h2.88c.56 0 .84.187.84.56zm4.36 20.72c0 2.293-.574 4.08-1.72 5.36-1.12 1.28-2.64 1.92-4.56 1.92-1.92 0-3.454-.64-4.6-1.92-1.12-1.28-1.68-3.067-1.68-5.36s.56-4.067 1.68-5.32c1.146-1.28 2.68-1.92 4.6-1.92 1.92 0 3.44.64 4.56 1.92 1.146 1.253 1.72 3.027 1.72 5.32zm-4.6 0c0-1.467-.174-2.48-.52-3.04-.32-.56-.707-.84-1.16-.84-.454 0-.854.28-1.2.84-.32.56-.48 1.573-.48 3.04s.16 2.493.48 3.08c.346.56.746.84 1.2.84.453 0 .84-.28 1.16-.84.346-.587.52-1.613.52-3.08zm-13.88-13.64c0 2.293-.574 4.08-1.72 5.36-1.12 1.28-2.64 1.92-4.56 1.92-1.92 0-3.454-.64-4.6-1.92-1.12-1.28-1.68-3.067-1.68-5.36s.56-4.067 1.68-5.32c1.146-1.28 2.68-1.92 4.6-1.92 1.92 0 3.44.64 4.56 1.92 1.146 1.253 1.72 3.027 1.72 5.32zm-4.6 0c0-1.467-.174-2.48-.52-3.04-.32-.56-.707-.84-1.16-.84-.454 0-.854.28-1.2.84-.32.56-.48 1.573-.48 3.04s.16 2.493.48 3.08c.346.56.746.84 1.2.84.453 0 .84-.28 1.16-.84.346-.587.52-1.613.52-3.08z" fill="#FF2B00"/><path d="M46.907 237.16l.007-.005c.433-.337.553-.923.553-1.515v-25.32c0-.449-.09-.947-.471-1.233-.312-.259-.724-.347-1.15-.347h-2.44c-.468 0-.883.04-1.23.132-.362.069-.743.228-1.138.454l-8.32 4.76c-.43.246-.776.57-.939.996-.166.438-.107.894.094 1.328l.005.01 1.079 2.198v.001c.244.503.587.907 1.07 1.081.489.177 1.002.076 1.489-.176l.006-.003 4.585-2.447v18.606c0 .327.024.619.084.861.058.23.168.497.405.666l.013.009.013.008c.19.119.428.183.667.22.248.039.543.056.878.056h3.32c.55 0 1.068-.076 1.42-.34zm23.707-1.691l.006-.006a9.32 9.32 0 0 0 2.45-3.165c.623-1.277.93-2.713.93-4.298 0-1.662-.32-3.108-.981-4.318a8.501 8.501 0 0 0-2.59-2.969c-1.071-.761-2.317-1.305-3.73-1.638a17.052 17.052 0 0 0-4.1-.534V215.1h8.38c.554 0 1.094-.126 1.424-.54.315-.361.436-.84.436-1.36v-2.64c0-.521-.135-1.002-.492-1.349-.354-.343-.841-.471-1.368-.471h-13.6c-.593 0-1.13.131-1.524.479-.45.37-.576 1.02-.576 1.701v11c0 .637.114 1.203.404 1.637l.014.021.015.019c.373.456.95.623 1.587.623h3.92c.952 0 1.77.103 2.463.301l.01.003.01.002a4.293 4.293 0 0 1 1.83.933l.01.007c.384.317.683.727.894 1.243l.003.008c.213.495.32 1.027.32 1.603 0 1.066-.371 1.898-1.11 2.544-.748.655-1.705.996-2.91.996-.973 0-1.92-.115-2.839-.345-.916-.229-1.963-.628-3.141-1.204l-.01-.005c-.408-.188-.827-.272-1.24-.201-.517.061-.838.454-1.027.893l-1.198 2.635-.003.007c-.213.486-.299 1.004-.07 1.464l.01.017.01.016c.209.349.503.623.869.822a15.935 15.935 0 0 0 4.042 1.527c1.426.356 2.892.534 4.397.534 1.564 0 3.04-.206 4.424-.621l.009-.003c1.386-.443 2.602-1.085 3.642-1.927zm15.44 1.52l.003-.006 16.553-26.788c.212-.306.362-.643.362-.995a.971.971 0 0 0-.433-.836c-.26-.173-.588-.224-.907-.224h-2.88c-.49 0-.935.07-1.283.263l-.011.006-.011.007c-.315.197-.577.53-.804.927l-16.875 26.912-.005.008-.006.009c-.126.221-.225.47-.225.728 0 .321.126.639.442.829l.017.01.017.008c.233.117.483.173.744.173h3.4c.415 0 .806-.071 1.124-.263.314-.164.568-.439.777-.768zm9.521-1.38l.004.005c1.253 1.399 2.929 2.086 4.973 2.086 2.042 0 3.706-.687 4.934-2.088 1.252-1.399 1.846-3.318 1.846-5.692 0-2.371-.593-4.28-1.848-5.653-1.227-1.401-2.891-2.087-4.932-2.087-2.044 0-3.72.688-4.973 2.087-1.228 1.374-1.807 3.282-1.807 5.653 0 2.372.58 4.291 1.803 5.689zm5.702-8.481l.005.008.004.007c.266.43.446 1.315.446 2.777 0 1.459-.178 2.365-.451 2.826l-.004.006c-.272.478-.522.588-.725.588-.208 0-.47-.116-.768-.591-.25-.47-.412-1.38-.412-2.829 0-1.456.163-2.347.41-2.784.298-.479.561-.596.77-.596.203 0 .453.111.725.588zm-24.182-5.159l.004.005c1.253 1.399 2.929 2.086 4.973 2.086 2.042 0 3.706-.687 4.934-2.088 1.252-1.399 1.846-3.319 1.846-5.692 0-2.371-.594-4.28-1.848-5.653-1.227-1.401-2.89-2.087-4.932-2.087-2.044 0-3.72.688-4.973 2.087-1.228 1.374-1.807 3.282-1.807 5.653 0 2.372.58 4.291 1.803 5.689zm5.703-8.481l.004.008.004.007c.266.43.446 1.315.446 2.777 0 1.459-.178 2.365-.45 2.826l-.005.006c-.272.478-.522.588-.725.588-.208 0-.47-.116-.768-.591-.25-.47-.412-1.38-.412-2.829 0-1.456.163-2.347.41-2.784.298-.479.561-.596.77-.596.203 0 .453.111.725.588z" stroke="#fff"/></g><g filter="url(#f)"><mask id="g" maskUnits="userSpaceOnUse" x="199.229" y="170.64" width="78" height="31" fill="#000"><path fill="#fff" d="M199.229 170.64h78v31h-78z"/><path d="M216.013 198.64c0 .56-.12.933-.36 1.12-.213.16-.586.24-1.12.24h-3.32c-.64 0-1.066-.067-1.28-.2-.186-.133-.28-.507-.28-1.12v-19.44l-5.32 2.84c-.826.427-1.453.2-1.88-.68l-1.08-2.2c-.32-.693-.106-1.253.64-1.68l8.32-4.76c.374-.213.707-.347 1-.4.294-.08.667-.12 1.12-.12h2.44c.374 0 .654.08.84.24.187.133.28.413.28.84v25.32zm26.693-7.04c0 1.413-.293 2.68-.88 3.8a8.58 8.58 0 0 1-2.28 2.8c-.96.747-2.08 1.32-3.36 1.72-1.253.4-2.56.6-3.92.6-1.36 0-2.667-.173-3.92-.52-1.227-.347-2.307-.867-3.24-1.56a8.223 8.223 0 0 1-2.24-2.64c-.56-1.067-.84-2.32-.84-3.76 0-1.6.427-2.973 1.28-4.12.88-1.147 2.027-2.107 3.44-2.88-.96-.533-1.787-1.32-2.48-2.36a6.074 6.074 0 0 1-1.04-3.44c0-1.227.24-2.307.72-3.24a7.302 7.302 0 0 1 2-2.4c.853-.64 1.84-1.12 2.96-1.44 1.12-.347 2.307-.52 3.56-.52 1.227 0 2.373.16 3.44.48 1.093.32 2.04.8 2.84 1.44a6.235 6.235 0 0 1 1.92 2.32c.48.933.72 2.027.72 3.28 0 .64-.107 1.253-.32 1.84a7.624 7.624 0 0 1-.84 1.6 7.209 7.209 0 0 1-2.52 2.4c.64.267 1.253.627 1.84 1.08a7.22 7.22 0 0 1 1.6 1.52c.48.56.853 1.187 1.12 1.88.293.667.44 1.373.44 2.12zm-7.44-12.16c0-.8-.28-1.467-.84-2-.56-.56-1.293-.84-2.2-.84-.853 0-1.56.253-2.12.76-.533.507-.8 1.12-.8 1.84 0 .773.253 1.453.76 2.04.533.56 1.36 1.147 2.48 1.76.667-.427 1.28-.907 1.84-1.44.587-.533.88-1.24.88-2.12zm1.16 12.32c0-.533-.133-1.027-.4-1.48a3.736 3.736 0 0 0-1-1.24 6.819 6.819 0 0 0-1.44-.96 9.929 9.929 0 0 0-1.64-.72c-1.147.507-2.053 1.133-2.72 1.88-.64.747-.96 1.6-.96 2.56 0 1.093.387 2 1.16 2.72.773.693 1.76 1.04 2.96 1.04s2.173-.333 2.92-1c.747-.667 1.12-1.6 1.12-2.8zm35.092-19.56c0 .213-.093.453-.28.72l-16.56 26.8c-.186.293-.386.493-.6.6-.213.133-.506.2-.88.2h-3.4c-.186 0-.36-.04-.52-.12-.133-.08-.2-.213-.2-.4 0-.133.054-.293.16-.48l16.88-26.92c.214-.373.427-.627.64-.76.24-.133.587-.2 1.04-.2h2.88c.56 0 .84.187.84.56zm4.36 20.72c0 2.293-.573 4.08-1.72 5.36-1.12 1.28-2.64 1.92-4.56 1.92-1.92 0-3.453-.64-4.6-1.92-1.12-1.28-1.68-3.067-1.68-5.36s.56-4.067 1.68-5.32c1.147-1.28 2.68-1.92 4.6-1.92 1.92 0 3.44.64 4.56 1.92 1.147 1.253 1.72 3.027 1.72 5.32zm-4.6 0c0-1.467-.173-2.48-.52-3.04-.32-.56-.706-.84-1.16-.84-.453 0-.853.28-1.2.84-.32.56-.48 1.573-.48 3.04s.16 2.493.48 3.08c.347.56.747.84 1.2.84.454 0 .84-.28 1.16-.84.347-.587.52-1.613.52-3.08zm-13.88-13.64c0 2.293-.573 4.08-1.72 5.36-1.12 1.28-2.64 1.92-4.56 1.92-1.92 0-3.453-.64-4.6-1.92-1.12-1.28-1.68-3.067-1.68-5.36s.56-4.067 1.68-5.32c1.147-1.28 2.68-1.92 4.6-1.92 1.92 0 3.44.64 4.56 1.92 1.147 1.253 1.72 3.027 1.72 5.32zm-4.6 0c0-1.467-.173-2.48-.52-3.04-.32-.56-.706-.84-1.16-.84-.453 0-.853.28-1.2.84-.32.56-.48 1.573-.48 3.04s.16 2.493.48 3.08c.347.56.747.84 1.2.84.454 0 .84-.28 1.16-.84.347-.587.52-1.613.52-3.08z"/></mask><path d="M216.013 198.64c0 .56-.12.933-.36 1.12-.213.16-.586.24-1.12.24h-3.32c-.64 0-1.066-.067-1.28-.2-.186-.133-.28-.507-.28-1.12v-19.44l-5.32 2.84c-.826.427-1.453.2-1.88-.68l-1.08-2.2c-.32-.693-.106-1.253.64-1.68l8.32-4.76c.374-.213.707-.347 1-.4.294-.08.667-.12 1.12-.12h2.44c.374 0 .654.08.84.24.187.133.28.413.28.84v25.32zm26.693-7.04c0 1.413-.293 2.68-.88 3.8a8.58 8.58 0 0 1-2.28 2.8c-.96.747-2.08 1.32-3.36 1.72-1.253.4-2.56.6-3.92.6-1.36 0-2.667-.173-3.92-.52-1.227-.347-2.307-.867-3.24-1.56a8.223 8.223 0 0 1-2.24-2.64c-.56-1.067-.84-2.32-.84-3.76 0-1.6.427-2.973 1.28-4.12.88-1.147 2.027-2.107 3.44-2.88-.96-.533-1.787-1.32-2.48-2.36a6.074 6.074 0 0 1-1.04-3.44c0-1.227.24-2.307.72-3.24a7.302 7.302 0 0 1 2-2.4c.853-.64 1.84-1.12 2.96-1.44 1.12-.347 2.307-.52 3.56-.52 1.227 0 2.373.16 3.44.48 1.093.32 2.04.8 2.84 1.44a6.235 6.235 0 0 1 1.92 2.32c.48.933.72 2.027.72 3.28 0 .64-.107 1.253-.32 1.84a7.624 7.624 0 0 1-.84 1.6 7.209 7.209 0 0 1-2.52 2.4c.64.267 1.253.627 1.84 1.08a7.22 7.22 0 0 1 1.6 1.52c.48.56.853 1.187 1.12 1.88.293.667.44 1.373.44 2.12zm-7.44-12.16c0-.8-.28-1.467-.84-2-.56-.56-1.293-.84-2.2-.84-.853 0-1.56.253-2.12.76-.533.507-.8 1.12-.8 1.84 0 .773.253 1.453.76 2.04.533.56 1.36 1.147 2.48 1.76.667-.427 1.28-.907 1.84-1.44.587-.533.88-1.24.88-2.12zm1.16 12.32c0-.533-.133-1.027-.4-1.48a3.736 3.736 0 0 0-1-1.24 6.819 6.819 0 0 0-1.44-.96 9.929 9.929 0 0 0-1.64-.72c-1.147.507-2.053 1.133-2.72 1.88-.64.747-.96 1.6-.96 2.56 0 1.093.387 2 1.16 2.72.773.693 1.76 1.04 2.96 1.04s2.173-.333 2.92-1c.747-.667 1.12-1.6 1.12-2.8zm35.092-19.56c0 .213-.093.453-.28.72l-16.56 26.8c-.186.293-.386.493-.6.6-.213.133-.506.2-.88.2h-3.4c-.186 0-.36-.04-.52-.12-.133-.08-.2-.213-.2-.4 0-.133.054-.293.16-.48l16.88-26.92c.214-.373.427-.627.64-.76.24-.133.587-.2 1.04-.2h2.88c.56 0 .84.187.84.56zm4.36 20.72c0 2.293-.573 4.08-1.72 5.36-1.12 1.28-2.64 1.92-4.56 1.92-1.92 0-3.453-.64-4.6-1.92-1.12-1.28-1.68-3.067-1.68-5.36s.56-4.067 1.68-5.32c1.147-1.28 2.68-1.92 4.6-1.92 1.92 0 3.44.64 4.56 1.92 1.147 1.253 1.72 3.027 1.72 5.32zm-4.6 0c0-1.467-.173-2.48-.52-3.04-.32-.56-.706-.84-1.16-.84-.453 0-.853.28-1.2.84-.32.56-.48 1.573-.48 3.04s.16 2.493.48 3.08c.347.56.747.84 1.2.84.454 0 .84-.28 1.16-.84.347-.587.52-1.613.52-3.08zm-13.88-13.64c0 2.293-.573 4.08-1.72 5.36-1.12 1.28-2.64 1.92-4.56 1.92-1.92 0-3.453-.64-4.6-1.92-1.12-1.28-1.68-3.067-1.68-5.36s.56-4.067 1.68-5.32c1.147-1.28 2.68-1.92 4.6-1.92 1.92 0 3.44.64 4.56 1.92 1.147 1.253 1.72 3.027 1.72 5.32zm-4.6 0c0-1.467-.173-2.48-.52-3.04-.32-.56-.706-.84-1.16-.84-.453 0-.853.28-1.2.84-.32.56-.48 1.573-.48 3.04s.16 2.493.48 3.08c.347.56.747.84 1.2.84.454 0 .84-.28 1.16-.84.347-.587.52-1.613.52-3.08z" fill="#FF2B00"/><path d="M216.013 198.64c0 .56-.12.933-.36 1.12-.213.16-.586.24-1.12.24h-3.32c-.64 0-1.066-.067-1.28-.2-.186-.133-.28-.507-.28-1.12v-19.44l-5.32 2.84c-.826.427-1.453.2-1.88-.68l-1.08-2.2c-.32-.693-.106-1.253.64-1.68l8.32-4.76c.374-.213.707-.347 1-.4.294-.08.667-.12 1.12-.12h2.44c.374 0 .654.08.84.24.187.133.28.413.28.84v25.32zm26.693-7.04c0 1.413-.293 2.68-.88 3.8a8.58 8.58 0 0 1-2.28 2.8c-.96.747-2.08 1.32-3.36 1.72-1.253.4-2.56.6-3.92.6-1.36 0-2.667-.173-3.92-.52-1.227-.347-2.307-.867-3.24-1.56a8.223 8.223 0 0 1-2.24-2.64c-.56-1.067-.84-2.32-.84-3.76 0-1.6.427-2.973 1.28-4.12.88-1.147 2.027-2.107 3.44-2.88-.96-.533-1.787-1.32-2.48-2.36a6.074 6.074 0 0 1-1.04-3.44c0-1.227.24-2.307.72-3.24a7.302 7.302 0 0 1 2-2.4c.853-.64 1.84-1.12 2.96-1.44 1.12-.347 2.307-.52 3.56-.52 1.227 0 2.373.16 3.44.48 1.093.32 2.04.8 2.84 1.44a6.235 6.235 0 0 1 1.92 2.32c.48.933.72 2.027.72 3.28 0 .64-.107 1.253-.32 1.84a7.624 7.624 0 0 1-.84 1.6 7.209 7.209 0 0 1-2.52 2.4c.64.267 1.253.627 1.84 1.08a7.22 7.22 0 0 1 1.6 1.52c.48.56.853 1.187 1.12 1.88.293.667.44 1.373.44 2.12zm-7.44-12.16c0-.8-.28-1.467-.84-2-.56-.56-1.293-.84-2.2-.84-.853 0-1.56.253-2.12.76-.533.507-.8 1.12-.8 1.84 0 .773.253 1.453.76 2.04.533.56 1.36 1.147 2.48 1.76.667-.427 1.28-.907 1.84-1.44.587-.533.88-1.24.88-2.12zm1.16 12.32c0-.533-.133-1.027-.4-1.48a3.736 3.736 0 0 0-1-1.24 6.819 6.819 0 0 0-1.44-.96 9.929 9.929 0 0 0-1.64-.72c-1.147.507-2.053 1.133-2.72 1.88-.64.747-.96 1.6-.96 2.56 0 1.093.387 2 1.16 2.72.773.693 1.76 1.04 2.96 1.04s2.173-.333 2.92-1c.747-.667 1.12-1.6 1.12-2.8zm35.092-19.56c0 .213-.093.453-.28.72l-16.56 26.8c-.186.293-.386.493-.6.6-.213.133-.506.2-.88.2h-3.4c-.186 0-.36-.04-.52-.12-.133-.08-.2-.213-.2-.4 0-.133.054-.293.16-.48l16.88-26.92c.214-.373.427-.627.64-.76.24-.133.587-.2 1.04-.2h2.88c.56 0 .84.187.84.56zm4.36 20.72c0 2.293-.573 4.08-1.72 5.36-1.12 1.28-2.64 1.92-4.56 1.92-1.92 0-3.453-.64-4.6-1.92-1.12-1.28-1.68-3.067-1.68-5.36s.56-4.067 1.68-5.32c1.147-1.28 2.68-1.92 4.6-1.92 1.92 0 3.44.64 4.56 1.92 1.147 1.253 1.72 3.027 1.72 5.32zm-4.6 0c0-1.467-.173-2.48-.52-3.04-.32-.56-.706-.84-1.16-.84-.453 0-.853.28-1.2.84-.32.56-.48 1.573-.48 3.04s.16 2.493.48 3.08c.347.56.747.84 1.2.84.454 0 .84-.28 1.16-.84.347-.587.52-1.613.52-3.08zm-13.88-13.64c0 2.293-.573 4.08-1.72 5.36-1.12 1.28-2.64 1.92-4.56 1.92-1.92 0-3.453-.64-4.6-1.92-1.12-1.28-1.68-3.067-1.68-5.36s.56-4.067 1.68-5.32c1.147-1.28 2.68-1.92 4.6-1.92 1.92 0 3.44.64 4.56 1.92 1.147 1.253 1.72 3.027 1.72 5.32zm-4.6 0c0-1.467-.173-2.48-.52-3.04-.32-.56-.706-.84-1.16-.84-.453 0-.853.28-1.2.84-.32.56-.48 1.573-.48 3.04s.16 2.493.48 3.08c.347.56.747.84 1.2.84.454 0 .84-.28 1.16-.84.347-.587.52-1.613.52-3.08z" stroke="#fff" stroke-width="2" mask="url(#g)"/></g><path d="M224.452 337.712c0 .688-.136 1.352-.408 1.992a9.248 9.248 0 0 1-1.104 1.896 14.762 14.762 0 0 1-1.56 1.824 63.222 63.222 0 0 1-1.8 1.776c-.416.4-.832.792-1.248 1.176-.4.368-.776.72-1.128 1.056h6.36c.24 0 .416.048.528.144.112.08.168.232.168.456v1.272c0 .464-.232.696-.696.696h-9.408c-.288 0-.488-.056-.6-.168-.096-.112-.144-.304-.144-.576v-1.152c0-.24.024-.424.072-.552.064-.128.184-.28.36-.456a49.677 49.677 0 0 1 2.304-2.208 46.507 46.507 0 0 0 2.184-2.136c.912-.96 1.632-1.832 2.16-2.616.544-.784.816-1.528.816-2.232 0-.752-.232-1.304-.696-1.656-.464-.368-1.056-.552-1.776-.552-.544 0-1.088.088-1.632.264-.544.16-1.152.424-1.824.792a.813.813 0 0 1-.456.096c-.128-.016-.24-.128-.336-.336l-.552-1.2c-.08-.176-.104-.328-.072-.456s.144-.248.336-.36c.72-.432 1.496-.776 2.328-1.032a8.845 8.845 0 0 1 2.616-.384 6.64 6.64 0 0 1 2.064.312c.64.192 1.192.488 1.656.888.464.384.824.864 1.08 1.44.272.576.408 1.24.408 1.992zm13.861 3.936c0 1.136-.112 2.224-.336 3.264-.208 1.04-.552 1.96-1.032 2.76a5.527 5.527 0 0 1-1.824 1.92c-.752.464-1.664.696-2.736.696-1.072 0-1.984-.232-2.736-.696a5.666 5.666 0 0 1-1.848-1.848c-.48-.784-.832-1.688-1.056-2.712a16.612 16.612 0 0 1-.312-3.264c0-1.12.112-2.2.336-3.24.24-1.056.6-1.984 1.08-2.784a5.892 5.892 0 0 1 1.872-1.944c.752-.48 1.656-.72 2.712-.72 1.072 0 1.976.24 2.712.72a5.38 5.38 0 0 1 1.824 1.872c.464.784.8 1.696 1.008 2.736.224 1.04.336 2.12.336 3.24zm-3.216 0c0-1.824-.216-3.264-.648-4.32-.416-1.056-1.088-1.584-2.016-1.584-.496 0-.92.144-1.272.432-.352.288-.64.696-.864 1.224-.224.512-.392 1.128-.504 1.848-.096.72-.144 1.52-.144 2.4 0 .896.048 1.712.144 2.448.096.72.248 1.344.456 1.872.224.512.504.912.84 1.2.352.288.784.432 1.296.432s.944-.144 1.296-.432c.352-.288.632-.688.84-1.2.208-.528.352-1.152.432-1.872.096-.736.144-1.552.144-2.448zm16.261-3.936c0 .688-.136 1.352-.408 1.992a9.248 9.248 0 0 1-1.104 1.896 14.762 14.762 0 0 1-1.56 1.824 63.222 63.222 0 0 1-1.8 1.776c-.416.4-.832.792-1.248 1.176-.4.368-.776.72-1.128 1.056h6.36c.24 0 .416.048.528.144.112.08.168.232.168.456v1.272c0 .464-.232.696-.696.696h-9.408c-.288 0-.488-.056-.6-.168-.096-.112-.144-.304-.144-.576v-1.152c0-.24.024-.424.072-.552.064-.128.184-.28.36-.456a49.677 49.677 0 0 1 2.304-2.208 46.507 46.507 0 0 0 2.184-2.136c.912-.96 1.632-1.832 2.16-2.616.544-.784.816-1.528.816-2.232 0-.752-.232-1.304-.696-1.656-.464-.368-1.056-.552-1.776-.552-.544 0-1.088.088-1.632.264-.544.16-1.152.424-1.824.792a.813.813 0 0 1-.456.096c-.128-.016-.24-.128-.336-.336l-.552-1.2c-.08-.176-.104-.328-.072-.456s.144-.248.336-.36c.72-.432 1.496-.776 2.328-1.032a8.845 8.845 0 0 1 2.616-.384 6.64 6.64 0 0 1 2.064.312c.64.192 1.192.488 1.656.888.464.384.824.864 1.08 1.44.272.576.408 1.24.408 1.992zm10.933 11.568c0 .272-.056.464-.168.576-.112.096-.304.144-.576.144h-1.56c-.32 0-.528-.04-.624-.12-.096-.096-.144-.288-.144-.576v-12.528l-3.336 1.896c-.176.112-.344.16-.504.144-.144-.016-.272-.136-.384-.36l-.576-1.128c-.176-.352-.096-.624.24-.816l4.8-2.856c.176-.112.336-.184.48-.216.16-.032.36-.048.6-.048h1.152c.4 0 .6.2.6.6v15.288z" fill="#205527"/><path d="M68 280.5L240 244v68H68v-31.5z" fill="url(#h)"/><path d="M320.5 220L240 244v68h80l.5-92z" fill="url(#i)"/><path d="M63 282.5l175.5-37 81.5-28" stroke="#7AB800" stroke-width="6"/><g filter="url(#j)"><circle cx="68.999" cy="281" r="10" fill="url(#k)"/><circle cx="68.999" cy="281" r="9" stroke="#fff" stroke-width="2"/></g><g filter="url(#l)"><circle cx="239" cy="244" r="10" fill="url(#m)"/><circle cx="239" cy="244" r="9" stroke="#fff" stroke-width="2"/></g><path fill="#B4D0B4" d="M66.999 312h2v10h-2zM238 312h2v10h-2z"/><path fill="#B4D0B4" d="M34.999 312h300v2h-300z"/><defs><filter id="e" x="21.183" y="203.64" width="96.649" height="50.88" filterUnits="userSpaceOnUse" color-interpolation-filters="sRGB"><feFlood flood-opacity="0" result="BackgroundImageFix"/><feColorMatrix in="SourceAlpha" values="0 0 0 0 0 0 0 0 0 0 0 0 0 0 0 0 0 0 127 0"/><feOffset dy="6"/><feGaussianBlur stdDeviation="5"/><feColorMatrix values="0 0 0 0 0.12549 0 0 0 0 0.333333 0 0 0 0 0.152941 0 0 0 0.45 0"/><feBlend in2="BackgroundImageFix" result="effect1_dropShadow"/><feBlend in="SourceGraphic" in2="effect1_dropShadow" result="shape"/></filter><filter id="f" x="190.229" y="166.64" width="96.649" height="50.88" filterUnits="userSpaceOnUse" color-interpolation-filters="sRGB"><feFlood flood-opacity="0" result="BackgroundImageFix"/><feColorMatrix in="SourceAlpha" values="0 0 0 0 0 0 0 0 0 0 0 0 0 0 0 0 0 0 127 0"/><feOffset dy="6"/><feGaussianBlur stdDeviation="5"/><feColorMatrix values="0 0 0 0 0.12549 0 0 0 0 0.333333 0 0 0 0 0.152941 0 0 0 0.45 0"/><feBlend in2="BackgroundImageFix" result="effect1_dropShadow"/><feBlend in="SourceGraphic" in2="effect1_dropShadow" result="shape"/></filter><filter id="j" x="48.999" y="264" width="40" height="40" filterUnits="userSpaceOnUse" color-interpolation-filters="sRGB"><feFlood flood-opacity="0" result="BackgroundImageFix"/><feColorMatrix in="SourceAlpha" values="0 0 0 0 0 0 0 0 0 0 0 0 0 0 0 0 0 0 127 0"/><feOffset dy="3"/><feGaussianBlur stdDeviation="5"/><feColorMatrix values="0 0 0 0 0.0119792 0 0 0 0 0.125 0 0 0 0 0.0269065 0 0 0 0.4 0"/><feBlend in2="BackgroundImageFix" result="effect1_dropShadow"/><feBlend in="SourceGraphic" in2="effect1_dropShadow" result="shape"/></filter><filter id="l" x="219" y="227" width="40" height="40" filterUnits="userSpaceOnUse" color-interpolation-filters="sRGB"><feFlood flood-opacity="0" result="BackgroundImageFix"/><feColorMatrix in="SourceAlpha" values="0 0 0 0 0 0 0 0 0 0 0 0 0 0 0 0 0 0 127 0"/><feOffset dy="3"/><feGaussianBlur stdDeviation="5"/><feColorMatrix values="0 0 0 0 0.0119792 0 0 0 0 0.125 0 0 0 0 0.0269065 0 0 0 0.4 0"/><feBlend in2="BackgroundImageFix" result="effect1_dropShadow"/><feBlend in="SourceGraphic" in2="effect1_dropShadow" result="shape"/></filter><linearGradient id="a" x1="192" y1="109" x2="192" y2="334" gradientUnits="userSpaceOnUse"><stop stop-color="#75BA1E"/><stop offset="1" stop-color="#FFDD40"/></linearGradient><linearGradient id="b" x1="272.5" y1="109" x2="272.5" y2="155" gradientUnits="userSpaceOnUse"><stop stop-color="#97BA1E"/><stop offset="1" stop-color="#008200"/></linearGradient><linearGradient id="c" x1="359.149" y1="92.661" x2="303.133" y2="121.255" gradientUnits="userSpaceOnUse"><stop stop-color="#97BA1E"/><stop offset="1" stop-color="#008200"/></linearGradient><radialGradient id="d" cx="0" cy="0" r="1" gradientUnits="userSpaceOnUse" gradientTransform="matrix(0 14 -14 0 213 109)"><stop stop-color="#97BA1E"/><stop offset="1" stop-color="#008200"/></radialGradient><linearGradient id="h" x1="163.5" y1="244" x2="154" y2="312" gradientUnits="userSpaceOnUse"><stop stop-color="#7AB800" stop-opacity=".4"/><stop offset="1" stop-color="#FFDD40" stop-opacity="0"/></linearGradient><linearGradient id="i" x1="267.5" y1="238" x2="286" y2="299" gradientUnits="userSpaceOnUse"><stop stop-color="#7AB800" stop-opacity=".4"/><stop offset="1" stop-color="#FFDD40" stop-opacity="0"/></linearGradient><radialGradient id="k" cx="0" cy="0" r="1" gradientUnits="userSpaceOnUse" gradientTransform="matrix(0 16.4545 -16.4545 0 69 274.545)"><stop stop-color="#319311"/><stop offset="1" stop-color="#205527"/></radialGradient><radialGradient id="m" cx="0" cy="0" r="1" gradientUnits="userSpaceOnUse" gradientTransform="rotate(90 .727 238.273) scale(16.4545)"><stop stop-color="#319311"/><stop offset="1" stop-color="#205527"/></radialGradient></defs></svg>