<svg width="20" height="21" viewBox="0 0 20 21" fill="none" xmlns="http://www.w3.org/2000/svg"><g clip-path="url(#a)" fill="#fff"><path d="M.417 4.217c2.745 2.325 7.562 6.414 8.977 7.69.19.172.394.26.606.26.211 0 .415-.087.604-.259 1.417-1.276 6.233-5.366 8.979-7.691a.416.416 0 0 0 .058-.575A1.655 1.655 0 0 0 18.333 3H1.667c-.511 0-.988.234-1.308.642a.416.416 0 0 0 .058.575z"/><path d="M19.758 5.476a.415.415 0 0 0-.444.06c-3.044 2.581-6.93 5.889-8.152 6.99-.686.62-1.638.62-2.325 0C7.534 11.351 3.17 7.642.686 5.535a.417.417 0 0 0-.686.32v10.479C0 17.253.747 18 1.667 18h16.666c.92 0 1.667-.748 1.667-1.667V5.854a.416.416 0 0 0-.242-.378z"/></g><defs><clipPath id="a"><path fill="#fff" transform="translate(0 .5)" d="M0 0h20v20H0z"/></clipPath></defs></svg>