<svg width="169" height="30" viewBox="0 0 169 30" fill="none" xmlns="http://www.w3.org/2000/svg"><path d="M65.253 3.45h-4.459c-.517 0-.7.166-.801.684L58.139 14.62c-.083.518.05.685.568.685h1.353c.5 0 .701-.167.785-.685l.567-3.172h2.455c2.505 0 4.291-1.27 4.742-3.774.434-2.505-.851-4.225-3.356-4.225zm-1.236 5.51h-2.17l.534-3.04h2.17c.97 0 1.453.585 1.286 1.537-.167.951-.851 1.502-1.82 1.502z" fill="#fff"/><path d="M65.253 3.45h-4.459c-.517 0-.7.166-.801.684L58.139 14.62c-.083.518.05.685.568.685h1.353c.5 0 .701-.167.785-.685l.567-3.172h2.455c2.505 0 4.291-1.27 4.742-3.774.434-2.505-.851-4.225-3.356-4.225zm-1.236 5.51h-2.17l.534-3.04h2.17c.97 0 1.453.585 1.286 1.537-.167.951-.851 1.502-1.82 1.502zM78.69 3.45h-6.714c-.517 0-.7.166-.801.684L69.32 14.62c-.083.518.05.685.568.685h6.88c.5 0 .701-.167.785-.685l.2-1.119c.1-.5-.05-.684-.551-.684h-4.86l.401-2.271h3.858c.5 0 .718-.167.801-.685l.2-1.119c.084-.5-.05-.668-.55-.668h-3.858l.368-2.154h4.692c.518 0 .718-.167.801-.667l.2-1.12c.101-.517-.05-.684-.567-.684z" fill="#fff"/><path d="M78.69 3.45h-6.714c-.517 0-.7.166-.801.684L69.32 14.62c-.083.518.05.685.568.685h6.88c.5 0 .701-.167.785-.685l.2-1.119c.1-.5-.05-.684-.551-.684h-4.86l.401-2.271h3.858c.5 0 .718-.167.801-.685l.2-1.119c.084-.5-.05-.668-.55-.668h-3.858l.368-2.154h4.692c.518 0 .718-.167.801-.667l.2-1.12c.101-.517-.05-.684-.567-.684zm7.897-.802c1.32 0 2.438-.618 3.022-1.687.15-.317.1-.434-.183-.568l-.902-.35c-.267-.084-.4-.05-.584.217-.234.417-.618.651-1.052.651-.434 0-.735-.234-.835-.651-.084-.267-.2-.318-.551-.2l-.952.333c-.317.117-.418.25-.35.568.183 1.069 1.085 1.687 2.387 1.687zm3.974.801h-1.42c-.35 0-.534.1-.717.317L84.567 8.56c-1.07 1.352-1.453 1.953-2.238 3.406h-.083c.684-1.62.901-2.137 1.235-4.04l.651-3.791c.1-.518-.05-.685-.55-.685h-1.353c-.518 0-.701.167-.802.685L79.574 14.62c-.084.518.05.685.568.685h1.419c.334 0 .517-.084.718-.317l3.907-4.876c1.086-1.353 1.42-1.87 2.188-3.323h.1c-.685 1.636-.902 2.104-1.236 4.04l-.684 3.791c-.084.518.05.685.567.685h1.353c.5 0 .701-.167.801-.685l1.837-10.486c.1-.518-.05-.685-.55-.685z" fill="#fff"/><path d="M86.587 2.648c1.32 0 2.438-.618 3.022-1.687.15-.317.1-.434-.183-.568l-.902-.35c-.267-.084-.4-.05-.584.217-.234.417-.618.651-1.052.651-.434 0-.735-.234-.835-.651-.084-.267-.2-.318-.551-.2l-.952.333c-.317.117-.418.25-.35.568.183 1.069 1.085 1.687 2.387 1.687zm3.974.801h-1.42c-.35 0-.534.1-.717.317L84.567 8.56c-1.07 1.352-1.453 1.953-2.238 3.406h-.083c.684-1.62.901-2.137 1.235-4.04l.651-3.791c.1-.518-.05-.685-.55-.685h-1.353c-.518 0-.701.167-.802.685L79.574 14.62c-.084.518.05.685.568.685h1.419c.334 0 .517-.084.718-.317l3.907-4.876c1.086-1.353 1.42-1.87 2.188-3.323h.1c-.685 1.636-.902 2.104-1.236 4.04l-.684 3.791c-.084.518.05.685.567.685h1.353c.5 0 .701-.167.801-.685l1.837-10.486c.1-.518-.05-.685-.55-.685zm11.039.001h-7.948c-.501 0-.702.166-.802.684l-.183 1.119c-.1.5.05.667.55.667h2.622l-1.536 8.7c-.084.518.05.685.55.685h1.354c.517 0 .718-.167.801-.685l1.536-8.7h2.622c.501 0 .701-.167.801-.667l.184-1.12c.1-.517-.05-.684-.551-.684z" fill="#fff"/><path d="M101.6 3.45h-7.948c-.501 0-.702.166-.802.684l-.183 1.119c-.1.5.05.667.55.667h2.622l-1.536 8.7c-.084.518.05.685.55.685h1.354c.517 0 .718-.167.801-.685l1.536-8.7h2.622c.501 0 .701-.167.801-.667l.184-1.12c.1-.517-.05-.684-.551-.684zm11.439 0h-1.419c-.351 0-.535.1-.718.316l-3.857 4.793c-1.069 1.352-1.453 1.953-2.238 3.406h-.084c.685-1.62.902-2.137 1.236-4.04l.651-3.791c.101-.518-.05-.685-.551-.685h-1.352c-.518 0-.702.167-.802.685l-1.853 10.486c-.084.518.05.685.567.685h1.42c.334 0 .517-.084.718-.317l3.907-4.876c1.086-1.353 1.42-1.87 2.188-3.323h.1c-.685 1.636-.902 2.104-1.236 4.04l-.684 3.791c-.084.518.05.685.567.685h1.353c.501 0 .701-.167.801-.685l1.837-10.486c.1-.518-.05-.685-.551-.685z" fill="#fff"/><path d="M113.039 3.45h-1.419c-.351 0-.535.1-.718.316l-3.857 4.793c-1.069 1.352-1.453 1.953-2.238 3.406h-.084c.685-1.62.902-2.137 1.236-4.04l.651-3.791c.101-.518-.05-.685-.551-.685h-1.352c-.518 0-.702.167-.802.685l-1.853 10.486c-.084.518.05.685.567.685h1.42c.334 0 .517-.084.718-.317l3.907-4.876c1.086-1.353 1.42-1.87 2.188-3.323h.1c-.685 1.636-.902 2.104-1.236 4.04l-.684 3.791c-.084.518.05.685.567.685h1.353c.501 0 .701-.167.801-.685l1.837-10.486c.1-.518-.05-.685-.551-.685zm12.041 0h-1.353c-.517 0-.701.166-.801.684l-.685 3.924H118.2l.685-3.924c.1-.518-.05-.685-.551-.685h-1.353c-.501 0-.701.167-.801.685l-1.854 10.486c-.083.518.05.685.568.685h1.352c.501 0 .702-.167.802-.685l.718-4.074h4.024l-.718 4.074c-.083.518.05.685.568.685h1.353c.5 0 .701-.167.784-.685l1.854-10.486c.1-.518-.05-.685-.551-.685z" fill="#fff"/><path d="M125.08 3.45h-1.353c-.517 0-.701.166-.801.684l-.685 3.924H118.2l.685-3.924c.1-.518-.05-.685-.551-.685h-1.353c-.501 0-.701.167-.801.685l-1.854 10.486c-.083.518.05.685.568.685h1.352c.501 0 .702-.167.802-.685l.718-4.074h4.024l-.718 4.074c-.083.518.05.685.568.685h1.353c.5 0 .701-.167.784-.685l1.854-10.486c.1-.518-.05-.685-.551-.685zm10.109 0h-6.162c-.517 0-.701.166-.801.684l-1.854 10.486c-.083.518.05.685.568.685h1.353c.501 0 .701-.167.784-.685l1.537-8.7h4.141c.517 0 .718-.167.801-.667l.201-1.12c.1-.517-.05-.684-.568-.684z" fill="#fff"/><path d="M135.189 3.45h-6.162c-.517 0-.701.166-.801.684l-1.854 10.486c-.083.518.05.685.568.685h1.353c.501 0 .701-.167.784-.685l1.537-8.7h4.141c.517 0 .718-.167.801-.667l.201-1.12c.1-.517-.05-.684-.568-.684zM65.31 17.894h-7.063c-.501 0-.701.167-.802.684l-1.853 10.52c-.084.501.067.652.55.652h4.827c2.304 0 3.957-1.303 4.358-3.607.434-2.338-.935-3.89-3.256-3.89h-2.572l.35-1.938h5.027c.518 0 .718-.184.802-.685l.183-1.052c.1-.517-.05-.684-.55-.684zm-2.755 8.115c-.134.785-.735 1.32-1.62 1.32h-2.32l.467-2.656h2.32c.886 0 1.303.535 1.153 1.336z" fill="#fff"/><path d="M65.31 17.894h-7.063c-.501 0-.701.167-.802.684l-1.853 10.52c-.084.501.067.652.55.652h4.827c2.304 0 3.957-1.303 4.358-3.607.434-2.338-.935-3.89-3.256-3.89h-2.572l.35-1.938h5.027c.518 0 .718-.184.802-.685l.183-1.052c.1-.517-.05-.684-.55-.684zm-2.755 8.115c-.134.785-.735 1.32-1.62 1.32h-2.32l.467-2.656h2.32c.886 0 1.303.535 1.153 1.336zm14.957-8.115h-1.486c-.768 0-.885.017-1.22.601l-2.805 4.659-1.419-4.659c-.167-.585-.367-.601-1.152-.601h-1.403c-.484 0-.6.267-.467.684l2.488 7.648-1.87 2.839c-.25.4-.268.684.217.684h1.603c.718 0 .918-.1 1.219-.6l6.529-10.57c.233-.418.25-.685-.234-.685z" fill="#fff"/><path d="M77.512 17.894h-1.486c-.768 0-.885.017-1.22.601l-2.805 4.659-1.419-4.659c-.167-.585-.367-.601-1.152-.601h-1.403c-.484 0-.6.267-.467.684l2.488 7.648-1.87 2.839c-.25.4-.268.684.217.684h1.603c.718 0 .918-.1 1.219-.6l6.529-10.57c.233-.418.25-.685-.234-.685zm9.535 11.138l-1.419-4.075c-.284-.818-.618-1.319-1.27-1.686l4.36-4.71c.3-.35.233-.667-.235-.667h-1.47c-.8 0-.984.083-1.418.568l-3.657 4.057h-.451l.701-3.94c.1-.518-.05-.685-.55-.685h-1.354c-.517 0-.7.167-.801.684l-1.854 10.487c-.083.517.05.684.568.684h1.353c.5 0 .701-.166.785-.684l.734-4.108h.434c.952 0 1.22.234 1.47 1.002l1.002 3.173c.167.517.4.617 1.252.617h1.336c.501 0 .635-.317.484-.717z" fill="#fff"/><path d="M87.047 29.032l-1.419-4.075c-.284-.818-.618-1.319-1.27-1.686l4.36-4.71c.3-.35.233-.667-.235-.667h-1.47c-.8 0-.984.083-1.418.568l-3.657 4.057h-.451l.701-3.94c.1-.518-.05-.685-.55-.685h-1.354c-.517 0-.7.167-.801.684l-1.854 10.487c-.083.517.05.684.568.684h1.353c.5 0 .701-.166.785-.684l.734-4.108h.434c.952 0 1.22.234 1.47 1.002l1.002 3.173c.167.517.4.617 1.252.617h1.336c.501 0 .635-.317.484-.717zm14.688-11.138h-1.202c-.534 0-.684.083-.985.518l-4.074 5.643-2.071-5.66c-.15-.401-.3-.501-.868-.501h-1.052c-.501 0-.702.167-.802.668l-1.853 10.52c-.084.5.05.668.567.668h1.27c.517 0 .718-.168.801-.668l.668-3.774c.2-1.119.25-2.07.15-3.774h.134c.15 1.219.35 2.204.701 3.106l.835 2.12c.134.385.267.485.668.485h.685c.417 0 .6-.134.851-.484l1.537-2.121a19.926 19.926 0 0 0 1.886-3.106h.134c-.701 1.637-1.035 2.739-1.202 3.757l-.668 3.79c-.1.502.05.669.55.669h1.253c.501 0 .718-.168.802-.668l1.853-10.52c.1-.501-.05-.668-.568-.668z" fill="#fff"/><path d="M101.735 17.894h-1.202c-.534 0-.684.083-.985.518l-4.074 5.643-2.071-5.66c-.15-.401-.3-.501-.868-.501h-1.052c-.501 0-.702.167-.802.668l-1.853 10.52c-.084.5.05.668.567.668h1.27c.517 0 .718-.168.801-.668l.668-3.774c.2-1.119.25-2.07.15-3.774h.134c.15 1.219.35 2.204.701 3.106l.835 2.12c.134.385.267.485.668.485h.685c.417 0 .6-.134.851-.484l1.537-2.121a19.926 19.926 0 0 0 1.886-3.106h.134c-.701 1.637-1.035 2.739-1.202 3.757l-.668 3.79c-.1.502.05.669.55.669h1.253c.501 0 .718-.168.802-.668l1.853-10.52c.1-.501-.05-.668-.568-.668zm10.659 0h-6.713c-.517 0-.701.167-.801.684l-1.854 10.487c-.083.517.05.684.568.684h6.88c.501 0 .701-.166.785-.684l.2-1.119c.1-.5-.05-.684-.551-.684h-4.859l.401-2.271h3.857c.501 0 .718-.167.801-.685l.201-1.119c.083-.5-.05-.668-.551-.668H106.9l.368-2.154h4.692c.518 0 .718-.167.801-.668l.201-1.119c.1-.517-.05-.684-.568-.684z" fill="#fff"/><path d="M112.394 17.894h-6.713c-.517 0-.701.167-.801.684l-1.854 10.487c-.083.517.05.684.568.684h6.88c.501 0 .701-.166.785-.684l.2-1.119c.1-.5-.05-.684-.551-.684h-4.859l.401-2.271h3.857c.501 0 .718-.167.801-.685l.201-1.119c.083-.5-.05-.668-.551-.668H106.9l.368-2.154h4.692c.518 0 .718-.167.801-.668l.201-1.119c.1-.517-.05-.684-.568-.684zm10.303 11.138l-1.42-4.075c-.284-.818-.618-1.319-1.269-1.686l4.358-4.71c.301-.35.234-.667-.233-.667h-1.47c-.801 0-.985.083-1.419.568l-3.657 4.057h-.451l.701-3.94c.101-.518-.05-.685-.551-.685h-1.352c-.518 0-.702.167-.802.684l-1.853 10.487c-.084.517.05.684.568.684h1.352c.501 0 .701-.166.785-.684l.735-4.108h.434c.952 0 1.219.234 1.469 1.002l1.002 3.173c.167.517.401.617 1.252.617h1.336c.501 0 .635-.317.485-.717z" fill="#fff"/><path d="M122.697 29.032l-1.42-4.075c-.284-.818-.618-1.319-1.269-1.686l4.358-4.71c.301-.35.234-.667-.233-.667h-1.47c-.801 0-.985.083-1.419.568l-3.657 4.057h-.451l.701-3.94c.101-.518-.05-.685-.551-.685h-1.352c-.518 0-.702.167-.802.684l-1.853 10.487c-.084.517.05.684.568.684h1.352c.501 0 .701-.166.785-.684l.735-4.108h.434c.952 0 1.219.234 1.469 1.002l1.002 3.173c.167.517.401.617 1.252.617h1.336c.501 0 .635-.317.485-.717zm11.148-11.138h-6.713c-.518 0-.701.167-.802.684l-1.853 10.487c-.083.517.05.684.568.684h6.879c.501 0 .702-.166.785-.684l.201-1.119c.1-.5-.051-.684-.551-.684h-4.86l.401-2.271h3.857c.501 0 .718-.167.802-.685l.2-1.119c.084-.5-.05-.668-.551-.668h-3.857l.367-2.154h4.693c.517 0 .718-.167.801-.668l.2-1.119c.101-.517-.05-.684-.567-.684z" fill="#fff"/><path d="M133.845 17.894h-6.713c-.518 0-.701.167-.802.684l-1.853 10.487c-.083.517.05.684.568.684h6.879c.501 0 .702-.166.785-.684l.201-1.119c.1-.5-.051-.684-.551-.684h-4.86l.401-2.271h3.857c.501 0 .718-.167.802-.685l.2-1.119c.084-.5-.05-.668-.551-.668h-3.857l.367-2.154h4.693c.517 0 .718-.167.801-.668l.2-1.119c.101-.517-.05-.684-.567-.684zm7.998 0h-4.459c-.517 0-.701.167-.801.684l-1.854 10.487c-.083.517.05.684.568.684h1.353c.501 0 .701-.166.785-.684l.567-3.173h2.455c2.505 0 4.291-1.269 4.742-3.773.434-2.505-.851-4.225-3.356-4.225zm-1.236 5.51h-2.171l.535-3.039h2.17c.969 0 1.453.585 1.286 1.536-.167.952-.851 1.503-1.82 1.503z" fill="#fff"/><path d="M141.843 17.894h-4.459c-.517 0-.701.167-.801.684l-1.854 10.487c-.083.517.05.684.568.684h1.353c.501 0 .701-.166.785-.684l.567-3.173h2.455c2.505 0 4.291-1.269 4.742-3.773.434-2.505-.851-4.225-3.356-4.225zm-1.236 5.51h-2.171l.535-3.039h2.17c.969 0 1.453.585 1.286 1.536-.167.952-.851 1.503-1.82 1.503zm6.239-1.419l-.601 3.39c-.467 2.771 1.019 4.625 4.175 4.625 3.172 0 5.143-1.52 5.627-4.291l.601-3.39c.468-2.772-1.002-4.676-4.174-4.676-3.156 0-5.143 1.57-5.628 4.342zm7.147.1l-.618 3.473c-.233 1.303-1.152 1.954-2.571 1.954-1.403 0-2.104-.651-1.87-1.954l.618-3.473c.217-1.302 1.152-1.954 2.554-1.954 1.42 0 2.104.652 1.887 1.954z" fill="#fff"/><path d="M146.846 21.985l-.601 3.39c-.467 2.771 1.019 4.625 4.175 4.625 3.172 0 5.143-1.52 5.627-4.291l.601-3.39c.468-2.772-1.002-4.676-4.174-4.676-3.156 0-5.143 1.57-5.628 4.342zm7.147.1l-.618 3.473c-.233 1.303-1.152 1.954-2.571 1.954-1.403 0-2.104-.651-1.87-1.954l.618-3.473c.217-1.302 1.152-1.954 2.554-1.954 1.42 0 2.104.652 1.887 1.954zm11.034-4.191h-4.692c-.517 0-.701.167-.801.684l-1.854 10.487c-.083.517.05.684.568.684h4.776c2.254 0 4.107-1.035 4.491-3.172.251-1.47-.15-2.555-1.102-2.99l.017-.066c.918-.568 1.369-1.219 1.586-2.354.351-1.904-.768-3.273-2.989-3.273zm.167 3.54c-.133.785-.617 1.135-1.402 1.135h-2.254l.4-2.27h2.255c.784 0 1.135.367 1.001 1.135zm-.467 4.709c-.15.818-.635 1.202-1.47 1.202h-2.554l.434-2.421h2.555c.818 0 1.168.417 1.035 1.219z" fill="#fff"/><path d="M165.027 17.894h-4.692c-.517 0-.701.167-.801.684l-1.854 10.487c-.083.517.05.684.568.684h4.776c2.254 0 4.107-1.035 4.491-3.172.251-1.47-.15-2.555-1.102-2.99l.017-.066c.918-.568 1.369-1.219 1.586-2.354.351-1.904-.768-3.273-2.989-3.273zm.167 3.54c-.133.785-.617 1.135-1.402 1.135h-2.254l.4-2.27h2.255c.784 0 1.135.367 1.001 1.135zm-.467 4.709c-.15.818-.635 1.202-1.47 1.202h-2.554l.434-2.421h2.555c.818 0 1.168.417 1.035 1.219z" fill="#fff"/><path fill-rule="evenodd" clip-rule="evenodd" d="M16.266 3.449H6.036c-1.186 0-1.63.408-1.853 1.557L1.41 20.784a.927.927 0 0 0 .913 1.087H13.08c5.782 0 9.97-2.743 11.008-8.6 1.001-5.893-2.038-9.822-7.82-9.822zm-6.56 11.935h3.632c1.742 0 2.966-1.075 3.262-2.706.296-1.63-.519-2.743-2.298-2.743h-3.633l-.963 5.45z" fill="#0169D3"/><path d="M.55 25.643a1.483 1.483 0 0 1 1.46-1.224h5.022a.927.927 0 0 1 .913 1.089l-.536 3.018a1.483 1.483 0 0 1-1.46 1.224H.927a.927.927 0 0 1-.912-1.09l.535-3.017zm27.651-20.97a1.483 1.483 0 0 1 1.46-1.224h16.42c.577 0 1.013.52.913 1.089l-.536 3.018a1.483 1.483 0 0 1-1.46 1.223h-16.42a.927.927 0 0 1-.912-1.088l.535-3.018z" fill="#0169D3"/><path fill-rule="evenodd" clip-rule="evenodd" d="M38.84 11.328H28.61c-1.187 0-1.632.407-1.854 1.556l-2.773 15.778a.927.927 0 0 0 .913 1.087h10.756c5.782 0 9.97-2.742 11.008-8.599 1.001-5.893-2.038-9.822-7.82-9.822zm-6.58 11.935h3.633c1.742 0 2.965-1.075 3.261-2.706.297-1.63-.519-2.743-2.298-2.743h-3.632l-.964 5.449z" fill="#0169D3"/></svg>