<svg width="60" height="60" viewBox="0 0 60 60" fill="none" xmlns="http://www.w3.org/2000/svg"><rect width="60" height="60" rx="8" fill="#FAFAFA"/><path d="M25.723 40.005s.49-.196.534-.337l-.067-.158c-.046-.104-.04-.217.05-.278l.526-.357.88.166s-.159-.195-.143-.455l-.84-.174-.793.472a.752.752 0 0 0-.284.405.736.736 0 0 0 .032.49l.105.227v-.002zm6.227 2.247c.157-.007.332-.009.522-.009 0 0 .453-1.296.479-1.337a11.129 11.129 0 0 1-.984-.509c.134.198.46.422.396.596l-.413 1.259zm.27-15.122c-.673.653-1.318.895-1.895.952a3.122 3.122 0 0 1-.317.017h-.015c-.212 0-.423-.022-.63-.065-.038.146-.086.453.05.744.123.264.37.46.732.591l.123.047v.128c0 .038.03.869.956 1.1.15-.152.289-.29.389-.406-.19-.435-.09-.88.185-1.098-.011.047-.133 1.137.76 1.543l.148.068-.044.153c-.014.047-.312 1.102.77 1.495l.192.071-.086.181c-.019.04-.443.998.557 1.543h2.166v-1.685c-.77-.092-1.096-.698-1.18-1.128-.359-.06-.636-.21-.825-.456-.456-.586-.065-1.123-.06-1.152 0 .004 0 .575.36.928.18.17.39.302.711.331l.157.014.013.157c.004.034.09.807.824.929v-3.439c0-.533.158-1.07.35-1.564H32.22v.002zm-5.834 1.576l-.058 2.19.256.038.622-2.1-.317-.647-.502.52zm1.349 8.107a.127.127 0 0 1-.09-.041.121.121 0 0 1-.032-.092.12.12 0 0 1 .044-.086.128.128 0 0 1 .093-.03.128.128 0 0 1 .122.132.125.125 0 0 1-.044.086.132.132 0 0 1-.093.031zm5.51 1.938c.019 0 .041.003.061.008.389.109.485 1.473 1.164 1.594a.873.873 0 0 0 .182.018c.197 0 .313-.082.44-.228 0 0-.342-.524-.598-.879-.338-.464-.602-1.025-1.233-1.025-.016 0-.034 0-.05.003a.64.64 0 0 0-.336.11 1.328 1.328 0 0 0-.71-.211c-.395 0-.704.178-.858.178h-.006l-1.41-.137c-.221-.022-.395-.239-.459-.323l-.024-.037c0-.038 0-.076-.002-.11-.048-1.129-.941-1.611-1.26-1.62 0 0 .038-.215-.047-.296l-.311.369-1.022-.502.728.834-.616.677c-.078.077-.068.182-.036.226l.267.23.338-.2c.016-.013.047-.017.085-.017.093 0 .233.024.359.024.139 0 .258-.028.272-.155-.042.419-.44 1.146-.179 1.718l.193.432-1.247-.176-.584.964c-.18.321-.209.668-.035.857l.218.268s.307-.318.375-.527l-.1-.106c-.083-.09-.078-.17-.027-.267l.366-.595 1.472.34.078-.13c.1-.163.244-.21.402-.21a1.3 1.3 0 0 1 .2.018c.274.053.724.123 1.173.123.495 0 .985-.087 1.245-.372.533.774 1.615.896 1.53 1.29l-.285 1.325c.19-.008.37-.02.542-.043l.271-1.379a7.77 7.77 0 0 0 .058-.352c-.104-.104-.356-.322-.5-.588-.19-.36-.086-.547-.264-1.013 0 0 .056-.109.18-.109v.002zm13.061-4.512c-1.143-.553-1.865-2.017-2.04-2.544-.19 2.904-1.639 4.92-3.332 6.859-.88 1.006-1.187 1.985-1.187 1.985s.17-1.109.93-2.011c1.58-1.857 3.082-4.17 3.194-6.845.077-1.865-.413-3.378-1.18-4.625.43 1.298.368 2.89-1.086 4.374 0 0 2.896-3.393-1.151-6.873-1.62-1.323-3.392-2.14-4.304-2.72 3.295 1.052 4.905-.106 4.905-.106-1.053.892-2.415.877-3.26.748.23.11.468.225.724.358 2.78 1.477 5.276 3.908 5.703 7.273v-.026c.645 3.305 2.084 4.153 2.084 4.153zm.847-3.85a.855.855 0 0 0 .073.002c1.55 0 2.074-1.624 2.074-1.624h-.03c-.285 0-2.588-.065-4.216-2.09-1.071-1.331-1.95-2.501-3.684-2.961l-.171-.03-.037-.171c-.048-.26.133-.502.546-.764 2.394-1.533.767-3.49.767-3.49s-.682 1.564-2.212 1.564l-.114-.002c-.173-.009-.34-.014-.51-.05l-.282-.054s.437-1.16-.616-2.225c-.792-.805-1.757-.941-2.313-.941a2.56 2.56 0 0 0-.46.035c.53.676.911 1.799.3 2.49-.527.595-1.815.625-1.815 1.512 0 .375.359.813 1.003 1.207 1.937 1.193 3.859 2.777 4.658 4.9 1 2.646-.126 4.403-1.732 5.41 0 0 .504.454 1.234.513.149.014.294.02.43.02 1.542 0 2.34-.708 2.34-.708s-.133.978-.933 1.886c-.742.837-1.714 1.332-3.197 1.353 0 0-.046.672.61 1.256.421.367 1.39.488 1.39.488s-1.816.359-2.017 2.985c-.11 1.423-.48 1.916-.48 1.916h.032c4.216 0 4.108-3.538 4.108-3.538s.293 1.048 1.47 1.321c.142.037.294.051.438.051.378 0 .707-.087.707-.087s-.616-1.27-.005-3.049c.508-1.476.425-2.569.425-2.569s.568.84 1.977.848h.015c.332.005.661-.072.956-.224a1.96 1.96 0 0 0 .727-.646c-2.81-1.142-2.533-4.827-2.533-4.827s.364.267 1.076.293zm-28.086 8.165c-1.694-1.94-3.143-3.955-3.334-6.86-.174.53-.895 1.993-2.038 2.546 0 0 1.437-.849 2.083-4.153v.026c.427-3.365 2.924-5.796 5.704-7.272.255-.135.495-.25.723-.358-.845.128-2.208.143-3.26-.748 0 0 1.61 1.157 4.904.105-.91.58-2.683 1.397-4.302 2.72-4.048 3.48-1.152 6.873-1.152 6.873-1.455-1.486-1.515-3.075-1.087-4.374-.766 1.247-1.257 2.76-1.177 4.627.11 2.674 1.61 4.986 3.188 6.844.764.9.936 2.01.936 2.01s-.311-.978-1.188-1.985v-.001zm.678-.64s.97-.12 1.39-.488c.655-.583.61-1.255.61-1.255-1.484-.02-2.455-.515-3.2-1.352-.797-.908-.93-1.887-.93-1.887s.797.709 2.337.709c.14 0 .283-.007.431-.021a2.302 2.302 0 0 0 1.237-.512c-1.608-1.008-2.734-2.765-1.736-5.413.8-2.12 2.721-3.705 4.66-4.899.644-.392 1.001-.83 1.001-1.206 0-.887-1.286-.916-1.813-1.51-.61-.693-.228-1.815.3-2.491 0 0-.177-.036-.459-.036-.555 0-1.52.137-2.313.941-1.055 1.066-.617 2.226-.617 2.226l-.282.054c-.167.034-.337.04-.51.05l-.112.001c-1.532 0-2.213-1.563-2.213-1.563s-1.625 1.956.768 3.49c.411.261.592.505.545.763l-.037.17-.174.03c-1.732.46-2.61 1.631-3.683 2.962-1.628 2.025-3.929 2.09-4.215 2.09h-.03s.525 1.624 2.075 1.624c.024 0 .046 0 .073-.002.712-.025 1.077-.292 1.077-.292s.276 3.684-2.534 4.827c0 0 .512.87 1.685.87h.013c1.41-.008 1.977-.848 1.977-.848s-.082 1.094.423 2.57c.611 1.778-.002 3.047-.002 3.047s.328.087.706.087c.147 0 .297-.013.438-.05 1.175-.273 1.47-1.321 1.47-1.321s-.109 3.538 4.108 3.538h.031s-.37-.493-.477-1.917c-.2-2.624-2.02-2.986-2.02-2.986h.002zm9.303-13.038h1.988v.667c-.233-.28-.689-.222-.689-.222v.962s.016.473.187.678h-.984c.172-.205.187-.678.187-.678v-.962s-.453-.058-.689.222v-.667zm-2.166.1c.07.073.137.152.202.231l.046.056c.061.079.122.163.181.248l.04.057c.07.104.137.212.203.323.609 1.028 1.582 1.642 2.445 1.643.865-.001 1.837-.615 2.446-1.642a5.145 5.145 0 0 1 .467-.682c.068-.082.138-.162.209-.236.012-.011.022-.023.034-.033a2.54 2.54 0 0 1 1.163-.678l-.216-.122h-.01l-.858-.486-.879-.494-2.35 1.252-.006-.005-.004.005-2.35-1.252-.88.494-.857.486h-.01l-.216.122c.483.13.852.365 1.163.676.013.011.022.026.037.037zM30 17.154c-1.455 0-2.547.467-2.784 1.017L30 19.245l2.785-1.074c-.235-.55-1.327-1.016-2.785-1.017zm.03 28.46h-.056c-.882.005-2.098-.171-2.682-.34l-.704 1.865c.464.162 2.037.472 3.415.472 1.376 0 2.95-.31 3.413-.472l-.703-1.864c-.588.168-1.802.344-2.683.339zm5.327-1.855c-.524.29-1.694.727-2.375.928l.571 1.54c1.053-.281 1.923-.61 2.64-.962l-1.186-.386.35-1.12zm-10.712 0l.351 1.12-1.187.386c.716.352 1.59.68 2.639.962l.572-1.54c-.68-.202-1.851-.637-2.374-.928zm5.354-28.388c1.099 0 2.174.258 3.002.708.076-.248.181-.55.325-.865l-.314.037-.327.033-.139-.292-.42-.865-.762.389-.297.147-.238-.228-.83-.802-.827.803-.236.227-.297-.147-.766-.389-.415.865-.14.293-.33-.034-.31-.037c.143.316.247.617.324.865.83-.45 1.906-.708 2.999-.708h-.002zm16.753 9.998c.144.048.288.07.431.07.622 0 1.222-.394 1.427-.843 0 0-1.138-.068-2.362-1.284-.388-.392-.802-.51-1.155-.51-.55 0-.963.283-.963.283 1.48.77 1.78 2.006 2.622 2.284zm-33.933.068c.144 0 .289-.02.427-.07.844-.277 1.149-1.512 2.625-2.281 0 0-.413-.284-.96-.284-.355 0-.767.117-1.158.512-1.223 1.214-2.36 1.283-2.36 1.283.204.448.805.841 1.426.841zm16.433-4.801v.629l-.123-.056c-.006-.005-.188-.044-.502-.29-.521-.394-.531-.758-.531-.758l1.155.475h.001zm.544 2.947v-3.907l-2.54-.844.67 3.785 1.871.966zm.955-2.947l1.155-.475s-.009.364-.532.759c-.314.244-.495.284-.5.288l-.123.056v-.628zm1.325 1.983l.668-3.786-2.54.843v3.907l1.872-.965zm-5.874 10.02c.248.087.548.106.702.106.006-.018.015-.041.022-.07.013-.043.026-.088.036-.136.043-.217.058-.461.062-.62a.878.878 0 0 1-.334-.344c-.095-.194-.229-.286-.425-.286-.256 0-.53.152-.65.222-.092.54.315 1.03.587 1.128zm5.622-2.072c-.471.502-1.396 1.378-1.44 1.42l-.056.055-2.921-.044c-.002.236-.034.47-.093.7l-.024.09 3.473.611c.361-.247 1.355-.958 1.742-1.236-.281-.402-.308-.878-.245-1.212a1.724 1.724 0 0 1-.436-.384z" fill="#FFFFFE"/><path d="M36.264 34.567H23.742v4.609c0 1.885 1.394 3.064 3.451 3.064 1.719 0 2.172.065 2.81.686.441-.43.805-.59 1.555-.65l.017-.07.394-1.195c-.022-.027-.666-.744-.666-.744-.256.083-.471.098-.833.098a7.07 7.07 0 0 1-1.243-.126.586.586 0 0 0-.13-.015c-.056 0-.059.004-.074.031l-.078.127-.145.232-.27-.062-1.201-.276-.166.265.026.03.145.157-.064.206c-.089.268-.375.581-.463.668l-.3.315-.274-.338-.206-.252c-.216-.237-.266-.6-.144-.979a.023.023 0 0 1-.012.005l-.339.137-.152-.325-.108-.229a1.097 1.097 0 0 1-.053-.742c.07-.245.223-.46.434-.61l.966-.535.922.177c.022-.087.056-.395.081-.474-.018-.003-.034-.006-.052-.006l-.53.193-.512-.345s-.2-.188-.019-.377l.495-.734-1.255-1.54 1.929.774.129-.155.26-.306.295.275a.546.546 0 0 1 .155.273c.531.202 1.484.8 1.569 1.772l-.298.116v.008c.068.079.124.111.142.114l1.377.133c.036-.007.078-.022.127-.035.172-.057.428-.14.733-.14.248 0 .488.056.718.162a1.06 1.06 0 0 1 .311-.063l.067-.002c.736 0 1.103.539 1.397.97a5 5 0 0 0 .149.213c.257.356.594.875.607.898l.152.231-.186.213c-.142.163-.359.352-.728.352-.083 0-.166-.009-.248-.025a1.076 1.076 0 0 1-.22-.066 5.413 5.413 0 0 1-.04.23l-.24 1.232c1.444-.347 2.361-1.414 2.361-2.941l-.003-4.609zm-12.522-.37h9.74c-.487-.493-.479-1.115-.356-1.52a1.608 1.608 0 0 1-.363-.234 190.61 190.61 0 0 1-1.846 1.31l-.065.044-3.823-.677h-.078a2.93 2.93 0 0 1-.372-.022.362.362 0 0 1-.102.18.376.376 0 0 1-.564-.048.359.359 0 0 1-.067-.275l.015-.081c-.393-.271-.759-.879-.596-1.519l.015-.067.056-.039c.056-.037.113-.072.173-.104l-.278-.043a.193.193 0 0 1-.123-.075.184.184 0 0 1-.035-.137.189.189 0 0 1 .218-.155l.66.102.062-2.279.984-1.02.615 1.266-.648 2.193.584.09a.19.19 0 0 1 .124.076.183.183 0 0 1-.153.292h-.03l-.477-.077c.007.015.016.023.023.038.053.09.133.162.229.206l2.913.047c.123-.118.428-.411.744-.721a1.572 1.572 0 0 1-.696-.495 1.517 1.517 0 0 1-.326-.778c-.4-.167-.678-.416-.83-.742-.187-.403-.12-.807-.07-1.003-.39-.138-.798-.392-1.216-.797h-4.389c.19.494.348 1.03.348 1.563v5.5z" fill="#FFE52B"/><path d="M30.002 19.248l-2.784-1.076c.236-.549 1.328-1.015 2.784-1.016 1.457 0 2.549.467 2.785 1.016l-2.785 1.076zm2.076 3.372l-1.872.966v-3.91l2.54-.843-.668 3.785v.002zm1.16 1.037l.854.486h.013l.215.123a2.53 2.53 0 0 0-1.163.678l-.033.032a4.05 4.05 0 0 0-.21.236l-.039.05c-.066.084-.13.17-.189.259l-.032.044c-.072.107-.14.217-.205.329-.611 1.027-1.583 1.64-2.447 1.643-.864-.002-1.837-.616-2.445-1.643a6.863 6.863 0 0 0-.204-.323l-.04-.058a6.575 6.575 0 0 0-.18-.247c-.015-.022-.03-.038-.045-.057a4.784 4.784 0 0 0-.203-.23c-.015-.012-.025-.026-.038-.038a2.534 2.534 0 0 0-1.163-.675l.218-.123h.009l.858-.486.879-.493 2.35 1.251.004-.004.007.004 2.349-1.251.88.493zm3.375 3.475c-.192.495-.35 1.03-.35 1.563l.002 3.439c-.734-.12-.822-.894-.824-.928l-.014-.157-.158-.014a1.131 1.131 0 0 1-.71-.33c-.36-.353-.36-.924-.36-.93-.005.03-.395.565.058 1.15.19.248.468.4.826.46.084.429.41 1.035 1.182 1.128v1.682h-2.167c-1-.544-.576-1.5-.556-1.542l.084-.182-.191-.07c-1.083-.393-.784-1.45-.77-1.495l.045-.154-.15-.067c-.892-.406-.77-1.497-.759-1.543-.275.218-.374.662-.185 1.1-.102.114-.24.252-.39.404a1.222 1.222 0 0 1-.668-.393 1.172 1.172 0 0 1-.287-.708l-.001-.128-.122-.046c-.361-.13-.609-.327-.732-.591-.137-.292-.09-.597-.051-.745.207.042.419.064.63.065h.015a3.7 3.7 0 0 0 .318-.016c.577-.057 1.221-.299 1.894-.952h4.391zm-2.707 14.985l.242-1.233.039-.228c.15.057.308.088.468.09.37 0 .585-.19.728-.353l.184-.211-.15-.232c-.014-.023-.35-.543-.608-.898-.051-.07-.1-.142-.148-.215-.294-.43-.662-.969-1.4-.969l-.065.002a1.107 1.107 0 0 0-.31.062 1.713 1.713 0 0 0-.72-.16 2.28 2.28 0 0 0-.731.139c-.05.014-.094.029-.128.035l-1.377-.132a.392.392 0 0 1-.142-.115v-.007l.297-.117c-.083-.971-1.037-1.569-1.568-1.772a.544.544 0 0 0-.155-.273l-.296-.275-.26.305-.127.156-1.93-.775 1.255 1.541-.495.735c-.182.187.02.377.02.377l.51.345.53-.194c.019 0 .034.004.053.006-.026.08-.059.389-.081.474l-.92-.177-.967.535a1.102 1.102 0 0 0-.38 1.353l.106.23.152.324.339-.137c.005-.002.01-.003.013-.006-.122.38-.072.742.144.98l.206.252.273.338.3-.315c.089-.087.375-.4.463-.67l.064-.204-.145-.158-.024-.029.164-.266 1.201.278.271.06.145-.233.078-.125c.014-.028.017-.032.073-.032a.55.55 0 0 1 .13.015c.41.08.827.121 1.245.125.358 0 .575-.013.83-.096 0 0 .646.715.668.744l-.395 1.193-.018.071c-.748.06-1.112.22-1.553.651-.64-.62-1.091-.686-2.81-.686-2.057 0-3.452-1.18-3.452-3.066v-4.607h12.522l.003 4.607c0 1.529-.918 2.595-2.361 2.943zm-7.713-2.605l.065.16c-.044.138-.533.335-.533.335l-.104-.226a.736.736 0 0 1-.033-.49.752.752 0 0 1 .285-.406l.792-.472.84.173a.715.715 0 0 0 .144.457l-.88-.165-.527.356c-.09.06-.096.173-.05.278zm7.58 1.301l-.27 1.379a5.354 5.354 0 0 1-.542.043l.284-1.323c.084-.395-.995-.517-1.53-1.29-.26.285-.75.371-1.243.371-.451 0-.9-.07-1.174-.123a1.324 1.324 0 0 0-.2-.019c-.159 0-.302.048-.402.212l-.078.13-1.473-.34-.366.594c-.051.096-.055.176.028.267l.1.106c-.07.21-.376.527-.376.527l-.218-.268c-.174-.189-.145-.536.035-.857l.584-.965 1.248.177-.194-.433c-.26-.572.137-1.299.179-1.717-.014.127-.133.155-.27.155-.128 0-.267-.023-.36-.023-.037 0-.07.003-.086.015l-.338.2-.266-.229c-.033-.043-.043-.149.035-.227l.618-.676-.729-.834 1.02.503.312-.37c.085.082.047.296.047.296.32.009 1.213.491 1.26 1.62.003.034.003.072.003.11l.023.037c.064.086.238.303.46.323l1.41.137h.005c.156 0 .463-.178.857-.178.217 0 .456.054.711.211 0 0 .13-.1.337-.11.015-.002.033-.002.047-.002.633 0 .897.56 1.237 1.025.255.353.596.878.596.878-.126.146-.243.228-.44.228a.928.928 0 0 1-.182-.017c-.677-.123-.776-1.486-1.163-1.595a.237.237 0 0 0-.062-.008c-.124 0-.179.109-.179.109.178.465.074.653.265 1.012.142.266.394.484.498.588 0 0-.028.202-.059.352zm-1.299 1.432c-.189 0-.364.002-.522.009l.413-1.26c.065-.174-.262-.399-.396-.596.203.126.73.401.985.51-.165.444-.325.89-.48 1.337zM26.33 30.897l.059-2.189.502-.52.315.647-.622 2.101-.255-.038h.001zm.361.68a.876.876 0 0 0 .333.343 3.928 3.928 0 0 1-.06.62 1.663 1.663 0 0 1-.037.137c-.007.028-.016.051-.021.07a2.27 2.27 0 0 1-.701-.107c-.273-.097-.681-.588-.587-1.128.118-.07.391-.221.648-.221.196 0 .33.091.425.285zm5.815.587c-.385.279-1.38.99-1.741 1.237l-3.474-.612.024-.09c.045-.177.092-.418.095-.7l2.92.045.055-.055c.044-.043.97-.918 1.44-1.42.113.137.253.268.437.383-.062.336-.037.81.244 1.212zm-4.723-5.031c.419.405.826.658 1.215.797-.05.195-.117.6.07 1.003.153.326.43.575.832.742a1.543 1.543 0 0 0 1.022 1.272c-.316.31-.623.604-.745.72l-2.914-.044a.517.517 0 0 1-.229-.208c-.005-.014-.015-.022-.022-.037l.477.076.03.001a.19.19 0 0 0 .122-.043.182.182 0 0 0 .031-.25.192.192 0 0 0-.123-.075l-.586-.09.649-2.193-.614-1.266-.985 1.02-.06 2.279-.662-.103a.191.191 0 0 0-.219.155.185.185 0 0 0 .035.138c.03.04.074.067.124.075l.277.042c-.1.055-.165.1-.173.105l-.055.039-.016.067c-.16.64.203 1.248.596 1.519l-.014.081a.357.357 0 0 0 .067.275.366.366 0 0 0 .305.154.384.384 0 0 0 .231-.081.363.363 0 0 0 .13-.204c.147.017.281.021.372.021h.079l3.822.676.065-.043c.304-.208 1.466-1.035 1.846-1.31.105.088.222.168.363.234-.123.405-.131 1.026.355 1.519h-9.74v-5.5c0-.533-.158-1.069-.347-1.563h4.389zm-.527-8.298l2.543.843v3.907l-1.872-.965-.67-3.786v.001zm6.202-.472c0-.953-1.64-1.811-3.45-1.811h-.012c-1.81 0-3.45.858-3.45 1.811l.036.234.723 4.06-.726.413-1.878 1.073h.007s-.422.213-.619.343c-.715.486-.867 1.195-.452 1.488.102-.578.57-1.182 1.444-1.182.63 0 1.11.319 1.499.795.1.12.194.25.282.387.109.175.219.329.327.476h-4.84c.355.7.694 1.44.694 2.246v10.48c0 2.536 1.993 3.746 4.15 3.746 1.667 0 1.891-.074 2.811.822.915-.896 1.14-.822 2.809-.822 2.157 0 4.148-1.21 4.148-3.746v-10.48c0-.805.339-1.546.696-2.246h-4.842c.109-.147.218-.301.327-.476a4.38 4.38 0 0 1 .28-.387c.391-.478.871-.795 1.502-.795.874 0 1.34.604 1.444 1.182.415-.293.265-1.002-.456-1.488a7.484 7.484 0 0 0-.615-.343h.008l-1.883-1.073-.721-.413.721-4.06.036-.234zm-19.704 4.953c.39-.394.803-.513 1.158-.513.547 0 .96.285.96.285-1.476.77-1.78 2.004-2.624 2.283a1.3 1.3 0 0 1-.428.069c-.621 0-1.222-.393-1.426-.841 0 0 1.137-.069 2.36-1.283zm-.934 2.618c.203 0 .402-.03.59-.093.53-.172.867-.583 1.222-1.012.364-.437.772-.933 1.48-1.302l.73-.383-.678-.466c-.056-.034-.563-.369-1.252-.369-.564 0-1.088.225-1.52.656-1.052 1.051-1.995 1.136-2.03 1.137l-.732.042.3.659c.304.656 1.1 1.131 1.89 1.131zm3.313 5.753c-.078-1.867.41-3.38 1.177-4.628-.426 1.3-.369 2.89 1.088 4.376 0 0-2.896-3.395 1.152-6.872 1.62-1.325 3.39-2.142 4.302-2.722-3.294 1.052-4.904-.106-4.904-.106 1.052.893 2.415.879 3.26.748-.229.11-.469.224-.724.36-2.78 1.476-5.275 3.907-5.704 7.27v-.024c-.645 3.304-2.082 4.152-2.082 4.152 1.143-.553 1.863-2.017 2.038-2.544.191 2.904 1.64 4.92 3.332 6.86.88 1.005 1.189 1.983 1.189 1.983s-.171-1.108-.934-2.01c-1.577-1.857-3.079-4.17-3.19-6.844zm12.917-6.809v.668c.235-.28.688-.223.688-.223v.962s-.014.473-.186.678h.984c-.171-.205-.188-.678-.188-.678v-.962s.455-.058.689.223v-.668h-1.988zm-.422-3.956c.314.244.496.285.502.288l.122.055v-.628l-1.155-.475s.01.365.53.76zm2.747 0c.522-.395.533-.76.533-.76l-1.156.476v.629l.122-.057c.006-.003.187-.044.501-.288zm13.72 1.881c.353 0 .766.119 1.154.512 1.224 1.215 2.363 1.284 2.363 1.284-.207.448-.806.841-1.427.841a1.3 1.3 0 0 1-.43-.07c-.843-.278-1.144-1.513-2.622-2.282 0 0 .41-.285.961-.285zm-1.203.723c.707.369 1.12.864 1.482 1.303.356.428.692.84 1.222 1.012.187.063.385.093.589.093.791 0 1.588-.475 1.89-1.133l.303-.657-.734-.043c-.035 0-.98-.086-2.03-1.136-.433-.431-.956-.657-1.52-.657-.688 0-1.199.336-1.255.37l-.675.466.728.382zm.332 6.563v.025c-.427-3.364-2.923-5.794-5.703-7.271a18.1 18.1 0 0 0-.724-.358c.845.128 2.207.143 3.26-.749 0 0-1.61 1.158-4.905.105.91.58 2.684 1.398 4.304 2.72 4.045 3.48 1.151 6.873 1.151 6.873 1.455-1.485 1.515-3.075 1.086-4.374.767 1.248 1.255 2.76 1.18 4.628-.111 2.673-1.614 4.985-3.194 6.844-.76.9-.929 2.009-.929 2.009s.307-.978 1.185-1.983c1.694-1.942 3.143-3.956 3.332-6.86.176.528.897 1.992 2.041 2.544 0 0-1.438-.848-2.084-4.152zM22.212 42.82c-4.217 0-4.109-3.538-4.109-3.538s-.295 1.048-1.47 1.32c-.142.036-.29.053-.438.052-.377 0-.706-.087-.706-.087s.614-1.272.002-3.05c-.504-1.474-.422-2.569-.422-2.569s-.567.84-1.977.85h-.014c-1.172 0-1.684-.871-1.684-.871 2.81-1.143 2.534-4.827 2.534-4.827s-.366.267-1.077.293h-.074c-1.55 0-2.076-1.623-2.076-1.623h.032c.287 0 2.587-.065 4.214-2.09 1.072-1.331 1.951-2.502 3.683-2.961l.174-.03.037-.171c.048-.258-.134-.502-.545-.764-2.393-1.533-.768-3.489-.768-3.489s.68 1.563 2.213 1.563l.111-.001c.174-.009.343-.016.511-.051l.282-.053s-.437-1.16.618-2.226c.793-.805 1.756-.941 2.312-.941.283 0 .457.035.457.035-.526.676-.908 1.799-.3 2.49.53.596 1.816.625 1.816 1.51 0 .377-.358.815-1.001 1.209-1.938 1.193-3.86 2.777-4.66 4.9-.998 2.646.128 4.403 1.735 5.412 0 0-.505.453-1.236.51a4.76 4.76 0 0 1-.43.021c-1.542 0-2.34-.707-2.34-.707s.134.977.931 1.886c.744.837 1.716 1.331 3.198 1.352 0 0 .048.672-.608 1.256-.42.368-1.39.488-1.39.488s1.817.36 2.017 2.985c.11 1.423.478 1.916.478 1.916h-.03zm.448-.282c-.002-.006-.296-.456-.39-1.67-.111-1.456-.673-2.307-1.23-2.795.161-.074.311-.166.436-.276.816-.718.782-1.562.776-1.656l-.031-.455-.468-.007c-1.246-.02-2.115-.384-2.82-1.184a3.717 3.717 0 0 1-.405-.558c.389.116.864.202 1.427.202.15 0 .308-.009.474-.02a2.826 2.826 0 0 0 1.535-.64l.486-.437-.553-.347c-1.24-.775-2.507-2.245-1.533-4.823.63-1.676 2.086-3.193 4.453-4.65.8-.493 1.238-1.075 1.238-1.63 0-.858-.733-1.197-1.271-1.439-.262-.122-.535-.244-.667-.395-.417-.471-.067-1.375.32-1.865l.496-.635-.803-.155c-.022-.003-.233-.041-.555-.041-.599 0-1.744.142-2.677 1.089-.778.788-.88 1.626-.84 2.167-.076.007-.152.01-.232.013h-.085c-1.173 0-1.726-1.215-1.747-1.261l-.33-.76-.533.64c-.03.04-.81.99-.62 2.182.126.791.634 1.475 1.507 2.037.096.06.161.11.21.153-1.649.523-2.567 1.672-3.538 2.88l-.14.17c-1.484 1.848-3.584 1.903-3.835 1.903L10 28.253l.218.666c.025.08.658 1.97 2.559 1.97l.09-.003c.201-.005.383-.032.542-.063-.077 1.03-.466 2.936-2.212 3.645l-.533.217.289.491c.027.044.675 1.115 2.143 1.115a3.323 3.323 0 0 0 1.513-.347c.057.466.174 1.064.403 1.733.53 1.547.037 2.633.018 2.676l-.262.54.592.153c.04.011.404.1.835.1a2.513 2.513 0 0 0 1.617-.581c.16.484.437 1.032.916 1.517.815.819 1.987 1.232 3.517 1.232l.928-.012-.513-.765zm5.091-5.971a.13.13 0 0 0-.093.03.126.126 0 0 0-.037.136.12.12 0 0 0 .066.072.13.13 0 0 0 .049.011.132.132 0 0 0 .093-.03.126.126 0 0 0 .045-.086.125.125 0 0 0-.033-.091.131.131 0 0 0-.09-.042zm5.804 9.664l-.572-1.54c.681-.203 1.85-.64 2.376-.929l-.35 1.12 1.185.386c-.717.351-1.586.68-2.639.962zm-3.551 1.383c-1.378 0-2.951-.31-3.415-.472l.704-1.863c.584.166 1.799.343 2.682.338h.055c.882.005 2.096-.173 2.684-.338l.703 1.863c-.465.163-2.037.472-3.413.472zm-6.193-2.346l1.186-.385-.35-1.12c.523.289 1.695.726 2.374.928l-.572 1.54a14.632 14.632 0 0 1-2.638-.963zm12.437-.342l-.722-.271.2-.729.218-.795s-1.277.679-3.08 1.188c-.51.143-.897.209-.897.209v.541s-.963.163-1.936.163h-.056c-.975 0-1.937-.163-1.937-.163v-.542s-.387-.065-.898-.208c-1.8-.51-3.078-1.188-3.078-1.188l.216.795.204.729-.724.271-.803.293c.92.435 2.195 1.067 3.36 1.38l-.274.735s1.48.66 3.944.666h.034v-.001c2.467-.007 3.947-.666 3.947-.666l-.278-.735c1.167-.313 2.444-.944 3.36-1.38l-.8-.293zM26.99 15.252l.327.034.141-.292.413-.865.767.389.297.148L30 13.633l.83.803.238.23.297-.149.762-.388.42.865.139.293.327-.035.314-.036a7.254 7.254 0 0 0-.326.865c-.827-.452-1.902-.708-3-.708-1.092 0-2.167.256-2.998.708a7.308 7.308 0 0 0-.324-.865l.31.036h.002zm3.01.571c1.469 0 2.643.478 3.292.984 0 0 .194-1.135.851-2.137l-1.183.13-.618-1.285-1.189.6L30 13l-1.149 1.115-1.19-.6-.618 1.287-1.183-.133c.659 1.002.85 2.137.85 2.137.654-.507 1.824-.983 3.29-.983zm18.61 19.102s-.51.871-1.683.871h-.014c-1.409-.009-1.977-.85-1.977-.85s.082 1.094-.424 2.57c-.611 1.78.004 3.048.004 3.048s-.329.088-.707.088a2.02 2.02 0 0 1-1.908-1.37s.108 3.536-4.108 3.536h-.034s.372-.493.482-1.916c.2-2.625 2.017-2.986 2.017-2.986s-.97-.12-1.39-.488c-.657-.582-.611-1.256-.611-1.256 1.484-.02 2.456-.514 3.197-1.352.478-.537.8-1.188.933-1.886 0 0-.797.708-2.34.708-.135 0-.28-.007-.428-.02a2.283 2.283 0 0 1-1.235-.513c1.605-1.007 2.732-2.766 1.733-5.412-.8-2.12-2.723-3.705-4.659-4.899-.644-.393-1.004-.831-1.004-1.208 0-.886 1.289-.914 1.817-1.51.611-.692.228-1.814-.3-2.49 0 0 .177-.036.458-.036.557 0 1.522.137 2.315.942 1.051 1.065.615 2.225.615 2.225l.282.055c.169.033.336.04.51.05h.114c1.53 0 2.212-1.564 2.212-1.564s1.626 1.957-.767 3.49c-.412.262-.594.506-.547.764l.038.17.17.03c1.735.461 2.613 1.632 3.685 2.962 1.628 2.025 3.932 2.09 4.215 2.09h.031s-.525 1.624-2.075 1.624c-.025 0-.047 0-.073-.002-.71-.025-1.077-.292-1.077-.292s-.277 3.685 2.534 4.827zm-1.383-4.036c1.9 0 2.534-1.89 2.561-1.971l.211-.667-.71.022h-.003c-.252 0-2.346-.055-3.831-1.902l-.141-.171c-.971-1.207-1.892-2.356-3.538-2.88a1.67 1.67 0 0 1 .21-.153c.873-.562 1.382-1.244 1.508-2.037.188-1.192-.59-2.142-.624-2.181l-.528-.64-.331.76c-.023.046-.578 1.26-1.746 1.26h-.087a5.243 5.243 0 0 1-.232-.012c.041-.543-.06-1.38-.837-2.168-.934-.946-2.08-1.088-2.68-1.088-.32 0-.533.039-.556.04l-.799.156.492.634c.386.49.737 1.394.322 1.866-.133.152-.406.272-.667.395-.538.242-1.273.58-1.273 1.438 0 .555.44 1.138 1.24 1.631 2.364 1.455 3.823 2.974 4.453 4.65.975 2.577-.297 4.048-1.533 4.822l-.553.348.486.436c.065.056.657.567 1.533.641.167.01.326.02.474.02.561 0 1.04-.087 1.429-.202a3.573 3.573 0 0 1-.405.557c-.705.8-1.573 1.165-2.823 1.185l-.464.006-.035.456c-.005.092-.04.937.777 1.655.125.11.276.203.435.277-.555.488-1.117 1.338-1.226 2.794-.092 1.215-.389 1.665-.392 1.67l-.513.766.927.012c1.532 0 2.705-.412 3.516-1.232.42-.431.735-.95.918-1.518a2.526 2.526 0 0 0 1.617.581c.433 0 .795-.09.835-.098l.592-.154-.261-.54c-.02-.044-.513-1.128.018-2.676.228-.67.345-1.268.402-1.736.373.191.871.347 1.517.35 1.466 0 2.111-1.071 2.14-1.115l.289-.493-.536-.215c-1.745-.709-2.132-2.614-2.21-3.644.16.03.339.056.542.062l.09.003z" fill="#000"/></svg>