<svg width="180" height="40" viewBox="0 0 180 40" fill="none" xmlns="http://www.w3.org/2000/svg"><path d="M81.441 15.193l3.334-2.412H73.613v14.447h11.162v-2.412h-7.973v-3.688h6.813v-2.412h-6.813v-3.523h4.64zm-16.257 3.216h-3.866v-3.216h6.185l3.335-2.412h-12.71v14.447h6.645c3.72 0 5.871-1.655 5.871-4.54 0-2.766-1.933-4.28-5.46-4.28zm-.532 6.407h-3.334V20.82h3.334c2.03 0 2.972.662 2.972 2.01 0 1.348-1.015 1.986-2.972 1.986zM93.81 12.781h-6.064v14.447h3.19v-4.09h2.899c3.865 0 6.281-1.987 6.281-5.179s-2.416-5.178-6.306-5.178zm-.072 7.945H90.91v-5.533h2.827c2.054 0 3.165.993 3.165 2.766 0 1.774-1.111 2.767-3.165 2.767zM52.67 24.1a5.862 5.862 0 0 1-2.754.686c-2.875 0-4.952-2.01-4.952-4.776s2.077-4.776 4.953-4.776a4.887 4.887 0 0 1 2.899.899l2.295-1.655-.145-.142c-1.329-1.159-3.117-1.75-5.146-1.75-2.199 0-4.204.733-5.654 2.057-1.45 1.371-2.271 3.287-2.223 5.273a7.382 7.382 0 0 0 2.223 5.367 8.1 8.1 0 0 0 5.63 2.128c2.295 0 4.3-.78 5.653-2.2l-2.053-1.489-.725.378zm85.79-11.295V27.25h3.189v-5.91h6.789v5.91h3.19V12.805h-3.19v5.934h-6.789v-5.934h-3.189zm-5.484 14.446h3.358L130.1 12.805h-3.237l-6.354 14.446h3.213l1.28-2.908h6.765l1.209 2.908zm-7.007-5.32l2.464-5.792 2.32 5.793h-4.784zm32.81-.52h1.981l4.881 5.817h4.108l-6.524-7.472 5.702-6.975h-3.648l-4.736 6.195h-1.764V12.78h-3.189v14.447h3.189V21.41zm-48.805-2.979v-3.215h8.336v-2.412h-11.525V27.25h6.644c3.721 0 5.871-1.655 5.871-4.54 0-2.765-1.932-4.279-5.46-4.279h-3.866zm0 6.408v-3.996h3.335c2.029 0 2.971.662 2.971 2.01 0 1.347-.99 2.01-2.971 2.01h-3.335v-.024zM31.962 12.68c.58.733 1.063 1.537 1.473 2.388L22.273 23.13l-4.687-2.884v-3.452l4.663 2.86 9.713-6.974z" fill="#21A038"/><path d="M12.827 20.013c0-.165 0-.307.024-.473l-2.827-.142c0 .19-.024.402-.024.592 0 3.31 1.377 6.312 3.6 8.488l2.005-1.963c-1.715-1.655-2.778-3.948-2.778-6.502z" fill="url(#a)"/><path d="M22.25 10.79c.17 0 .315 0 .484.023l.145-2.766c-.194 0-.41-.024-.604-.024a12.37 12.37 0 0 0-8.673 3.524l2.005 1.962a9.43 9.43 0 0 1 6.644-2.72z" fill="url(#b)"/><path d="M22.25 29.235c-.17 0-.315 0-.484-.024l-.145 2.766c.193 0 .41.024.604.024a12.37 12.37 0 0 0 8.673-3.523l-2.005-1.962c-1.691 1.702-4.035 2.719-6.644 2.719z" fill="url(#c)"/><path d="M27.569 12.398l2.392-1.726A12.439 12.439 0 0 0 22.254 8v2.766c1.981.024 3.817.615 5.315 1.632z" fill="url(#d)"/><path d="M34.525 20.011c0-.733-.072-1.442-.193-2.152l-2.634 1.916v.236c0 2.72-1.207 5.155-3.116 6.833l1.909 2.057c2.464-2.175 4.034-5.367 4.034-8.89z" fill="#21A038"/><path d="M22.248 29.23a9.451 9.451 0 0 1-6.982-3.05l-2.102 1.867c2.247 2.436 5.484 3.95 9.084 3.95V29.23z" fill="url(#e)"/><path d="M15.943 13.182l-1.908-2.057C11.546 13.324 10 16.492 10 20.015h2.827c0-2.695 1.208-5.154 3.116-6.833z" fill="url(#f)"/><defs><linearGradient id="a" x1="13.307" y1="28.141" x2="10.524" y2="19.946" gradientUnits="userSpaceOnUse"><stop offset=".144" stop-color="#F2E913"/><stop offset=".304" stop-color="#E7E518"/><stop offset=".582" stop-color="#CADB26"/><stop offset=".891" stop-color="#A3CD39"/></linearGradient><linearGradient id="b" x1="14.407" y1="11.226" x2="21.7" y2="8.395" gradientUnits="userSpaceOnUse"><stop offset=".059" stop-color="#0FA8E0"/><stop offset=".538" stop-color="#0099F9"/><stop offset=".923" stop-color="#0291EB"/></linearGradient><linearGradient id="c" x1="21.455" y1="29.641" x2="30.175" y2="27.634" gradientUnits="userSpaceOnUse"><stop offset=".123" stop-color="#A3CD39"/><stop offset=".285" stop-color="#86C339"/><stop offset=".869" stop-color="#21A038"/></linearGradient><linearGradient id="d" x1="21.673" y1="9.77" x2="28.913" y2="12.045" gradientUnits="userSpaceOnUse"><stop offset=".057" stop-color="#0291EB"/><stop offset=".79" stop-color="#0C8ACB"/></linearGradient><linearGradient id="e" x1="13.883" y1="28.497" x2="21.646" y2="31.451" gradientUnits="userSpaceOnUse"><stop offset=".132" stop-color="#F2E913"/><stop offset=".298" stop-color="#EBE716"/><stop offset=".531" stop-color="#D9E01F"/><stop offset=".802" stop-color="#BBD62D"/><stop offset=".983" stop-color="#A3CD39"/></linearGradient><linearGradient id="f" x1="12.151" y1="20.349" x2="15.164" y2="12.367" gradientUnits="userSpaceOnUse"><stop offset=".07" stop-color="#A3CD39"/><stop offset=".26" stop-color="#81C55F"/><stop offset=".922" stop-color="#0FA8E0"/></linearGradient></defs></svg>