<svg width="240" height="32" viewBox="0 0 240 32" fill="none" xmlns="http://www.w3.org/2000/svg"><path d="M66.996 29.42a11.27 11.27 0 0 1-2.848-1.196 8.53 8.53 0 0 1-2.487-2.466c-.142-.296-.22-.322-.593-.206-.736.08-1.476.114-2.216.103h-1.778l-.954.86a7.733 7.733 0 0 1-5.876 2.21 8.148 8.148 0 0 1-5.257-1.49l-.657-.488-.786.526a6.08 6.08 0 0 1-3.866 1.183c-1.288 0-1.391 0-1.752-.347-1.289-1.144-1.52-3.855-.773-7.645.36-1.965.373-3.199 0-3.494-.683-.566-1.56-.347-2.346.604a13.81 13.81 0 0 0-1.958 3.7 5.393 5.393 0 0 0 .142 3.546 6.52 6.52 0 0 1 .283 1.58 1.151 1.151 0 0 1-.502 1.092 9.274 9.274 0 0 1-3.016 1.529 1.73 1.73 0 0 1-.889-.077c-.992-.398-1.288-1.953-.992-6.218.103-1.684.232-3.61.296-4.292.22-1.888.18-2.377-.141-2.698a1.123 1.123 0 0 0-.735-.282c-.966 0-2.809 2.57-3.66 5.062a4.215 4.215 0 0 0-.231 2.107c.064.737.19 1.467.373 2.184a7.31 7.31 0 0 1 .284 1.593 1.152 1.152 0 0 1-.516 1.092 9.336 9.336 0 0 1-2.938 1.529 1.447 1.447 0 0 1-1.531-.666 1.435 1.435 0 0 1-.195-.555c0-.527-.245-.578-.864-.218a7.13 7.13 0 0 1-3.376.938c-.85 0-1.056 0-1.443-.36a4.082 4.082 0 0 1-1.134-1.979l-.193-.526-.773.848c-.428.46-.889.89-1.379 1.284a7.98 7.98 0 0 1-7.242.36A5.734 5.734 0 0 1 .3 25.577c-.4-1.754-.4-3.576 0-5.331a11.343 11.343 0 0 1 2.284-4.87A11.386 11.386 0 0 1 6.858 12.1a9.847 9.847 0 0 1 5.541-.244c.451.193.477.193.85-.282a.964.964 0 0 1 .916-.476 3.125 3.125 0 0 1 2.242 1.054 2.932 2.932 0 0 1 1.185 1.94 6.932 6.932 0 0 1-.721 1.721c-.5.77-.798 1.655-.864 2.57-.245 2.57-.103 5.357.322 5.859.207.27.8 0 1.611-.694l.683-.604.116-2.056c.01-2.68.65-5.32 1.868-7.708.774-1.53 1.573-2.39 2.242-2.39.336.02.662.117.954.283a5.896 5.896 0 0 1 1.585 2.21c0 .128.296 0 .709-.425a4.111 4.111 0 0 1 3.337-1.284 3.41 3.41 0 0 1 1.997.372 3.642 3.642 0 0 1 2.062 2.955c0 .27.09.231.786-.411a8.225 8.225 0 0 1 1.727-1.182 4.677 4.677 0 0 1 2.32-.501 3.875 3.875 0 0 1 3.362.976c1.289 1.285 1.289 3.071.155 7.71-.773 3.044-.76 3.147.245 2.646l.567-.283-.078-1.709a10.74 10.74 0 0 1 .722-4.702 9.867 9.867 0 0 1 2.307-3.372 9.9 9.9 0 0 1 3.479-2.152 8.785 8.785 0 0 1 3.324-.347 6.241 6.241 0 0 1 3.157.385c1.65.681 2.41 1.362 1.959 1.876-.13.192-.619.27-2.358.424-2.977.257-3.97.63-5.322 2.068a6.05 6.05 0 0 0-1.881 4.947c-.072.698.096 1.4.476 1.991.293.446.674.826 1.121 1.118.562.37 1.241.52 1.907.424a5.311 5.311 0 0 0 1.907-.27l.684-.257-.632-.604a5.135 5.135 0 0 1-1.598-2.89 4.674 4.674 0 0 1 1.147-4.613 4.006 4.006 0 0 1 3.337-1.285 3.01 3.01 0 0 1 3.132 1.632 7.455 7.455 0 0 1 0 4.87c-.284.809-.271.86.116.86.927 0 .902 0 .992-2.428a20.36 20.36 0 0 1 3.53-11.216 14.278 14.278 0 0 1 5.992-5.14 7.207 7.207 0 0 1 3.789-.937 3.685 3.685 0 0 1 3.066.989 3.517 3.517 0 0 1 .76 2.865v1.13l.374-.552a11.6 11.6 0 0 1 5.966-3.944c2.85-.7 5.838-.62 8.647.231a9.775 9.775 0 0 1 3.04 1.568c.13.154.284.077.8-.399a6.567 6.567 0 0 1 4.754-1.747c1.663 0 2.203.18 2.977.964a3.912 3.912 0 0 1 1.108 2.749v.81l.786-1.131c1.753-2.57 3.866-3.662 6.443-3.469a4.34 4.34 0 0 1 2.249.593 4.31 4.31 0 0 1 1.616 1.668c.473 1.162.743 2.396.799 3.649v.72l.953-.938a6.083 6.083 0 0 1 5.4-1.901c2.346.384 3.415 1.798 3.582 4.804a30.237 30.237 0 0 1-1.289 8.287 19.202 19.202 0 0 0-.811 4.42c0 .706.347 1.066.811 1.066.464 0 1.56-.874 3.389-2.57a12.937 12.937 0 0 1 2.14-1.734c.425 0 .592.437.592 1.529a3.3 3.3 0 0 1-.566 2.107 10.534 10.534 0 0 1-5.465 4.522 6.344 6.344 0 0 1-4.059 0 4.387 4.387 0 0 1-.953-.732c-1.146-1.35-1.081-2.968.245-7.799 2.126-7.708 2.152-9.25.154-8.89-.487.19-.926.483-1.288.86a19.355 19.355 0 0 0-5.154 12c0 3.238.077 3.032-.374 3.7-.339.422-.75.782-1.211 1.067a2.581 2.581 0 0 1-1.636.45 4.997 4.997 0 0 1-1.122-.09c-.36-.142-.785-1.092-.863-1.979-.129-1.182.104-2.48 1.212-6.5 1.713-6.27 2.126-8.236 2.126-10.28 0-2.363-.438-3.134-1.752-3.134-2.179 0-4.382 2.865-6.031 7.773a39.888 39.888 0 0 0-1.572 6.103c.058.668.153 1.333.284 1.991a7.224 7.224 0 0 1 0 4.317c-.284.514-.517.706-1.508 1.22a3.682 3.682 0 0 1-2.126.591c-.735 0-1.018 0-1.199-.257a3.267 3.267 0 0 1-.657-1.644c0-.437 0-.437-.619 0-.93.628-1.95 1.109-3.028 1.426-2.474.642-4.29-.218-4.986-2.338a21.116 21.116 0 0 1-.8-4.343 86.399 86.399 0 0 0-.45-2.942l-.206-1.208-.8-.23c-1.7-.605-2.267-2.378-1.004-3.11a4.664 4.664 0 0 1 3.015-.18l.528.218.58-.655a5.76 5.76 0 0 0 1.417-3.032 4.075 4.075 0 0 0-.927-3.739c-1.031-1.156-2.204-1.477-4.897-1.361a12.15 12.15 0 0 0-5.799 1.58c-.65.42-1.393.68-2.164.758-.541 0-.67 0-.773-.308-.103-.309-.13-.257-.13 0a3.443 3.443 0 0 1-1.094 1.785 1.122 1.122 0 0 1-1.147.373c-.567 0-.812-.193-2.165-1.144-1.044-.757-2.912-.27-3.982 1.067a10.523 10.523 0 0 0-1.894 3.764 18.477 18.477 0 0 0-.94 5.14 5.398 5.398 0 0 0 1.022 3.167 5.425 5.425 0 0 0 2.688 1.972c.563.13 1.15.107 1.701-.065 1.933-.424 2.745-1.066 5.747-4.535 2.307-2.647 2.346-2.71 2.938-4.471a22.756 22.756 0 0 1 2.99-5.961c1.082-1.131 2.216-1.49 2.486-.771.4 1.028 0 3.546-1.146 8.21l-.915 3.378v3.65a20.617 20.617 0 0 1-.258 3.93 4.984 4.984 0 0 1-3.762 1.902c-1.289 0-1.56-.45-1.791-2.57l-.078-.796-.773.617a13.439 13.439 0 0 1-4.059 2.197 8.738 8.738 0 0 1-3.53.488c-.829.051-1.66.051-2.487 0l-.013-.026zm29.302-4.82a13.23 13.23 0 0 0 1.443-1.284l.81-.836.324-1.965c.154-1.067.683-4.034 1.147-6.591.901-4.947.966-5.807.476-6.835a1.5 1.5 0 0 0-.644-.681c-.36-.142-.515-.129-1.044.128a4.03 4.03 0 0 0-.928.63c-.296.308-.296.385-.141 1.349a8.97 8.97 0 0 1-.825 5.139 10.145 10.145 0 0 1-3.608 3.366l-1.07.552.207.489c.116.282.49 1.503.824 2.736.683 2.429 1.044 3.367 1.508 3.855.464.488.786.41 1.546-.09l-.025.038zM8.79 24.447a5.817 5.817 0 0 0 2.036-2.004 7.69 7.69 0 0 0 .864-4.034c.035-1.016.134-2.029.296-3.032a4.23 4.23 0 0 0 .142-1.105 5.307 5.307 0 0 0-2.126.706 7.905 7.905 0 0 0-3.366 2.863 7.87 7.87 0 0 0-1.299 4.216c0 1.452.284 2.185 1.044 2.57a2.857 2.857 0 0 0 2.41-.193v.013zm48.296-4.278c.412-1.465 0-2.685-.658-2.326a1.863 1.863 0 0 0-.476 1.658c.116.59.592 1.58.76 1.58.167 0 .245-.411.374-.912zm79.078 8.377a3.594 3.594 0 0 1-2.19-2.262 3.008 3.008 0 0 1 0-2.197 3.464 3.464 0 0 1 3.478-2.44 3.406 3.406 0 0 1 2.536.968 3.379 3.379 0 0 1 1.008 2.513 3.303 3.303 0 0 1-1.842 3.096 3.637 3.637 0 0 1-2.99.322z" fill="#87D6F7"/><path d="M19.59 28.902a1.598 1.598 0 0 1-.722-1.08c0-.552-.232-.603-.863-.244a7.13 7.13 0 0 1-3.376.938c-.85 0-1.057 0-1.444-.36a4.082 4.082 0 0 1-1.133-1.978l-.181-.527-.773.848c-.428.46-.889.89-1.379 1.285a7.982 7.982 0 0 1-7.242.36A5.734 5.734 0 0 1 .3 25.574c-.4-1.755-.4-3.577 0-5.332a11.343 11.343 0 0 1 2.284-4.869 11.386 11.386 0 0 1 4.274-3.276 9.847 9.847 0 0 1 5.541-.244c.451.18.477.18.85-.283a.965.965 0 0 1 .916-.475 3.125 3.125 0 0 1 2.242 1.053 2.935 2.935 0 0 1 1.185 1.94 6.932 6.932 0 0 1-.721 1.722c-.5.77-.798 1.654-.864 2.57-.245 2.492-.103 5.357.322 5.858.207.27.8 0 1.611-.694l.683-.604.116-2.068c.01-2.68.65-5.32 1.868-7.709.774-1.529 1.573-2.39 2.242-2.39.336.02.662.118.954.283a5.808 5.808 0 0 1 1.585 2.21c0 .128.296-.064.709-.424a4.125 4.125 0 0 1 3.337-1.285 3.397 3.397 0 0 1 1.997.386 3.644 3.644 0 0 1 2.062 2.942c0 .282.09.244.786-.399a8.229 8.229 0 0 1 1.727-1.182 4.677 4.677 0 0 1 2.32-.5 3.876 3.876 0 0 1 3.362.976c1.289 1.285 1.289 3.07.155 7.708-.773 3.045-.76 3.148.245 2.647l.567-.282-.078-1.71a10.74 10.74 0 0 1 .722-4.702 9.869 9.869 0 0 1 5.786-5.524 8.783 8.783 0 0 1 3.324-.347 6.241 6.241 0 0 1 3.157.385c1.65.681 2.41 1.362 1.959 1.876-.13.193-.619.27-2.358.424-2.977.257-3.97.63-5.322 2.069a6.05 6.05 0 0 0-1.881 4.946c-.072.698.096 1.4.476 1.992.293.445.674.826 1.121 1.117.562.37 1.241.521 1.907.424a5.307 5.307 0 0 0 1.907-.27l.684-.257-.632-.603a5.135 5.135 0 0 1-1.598-2.891 4.675 4.675 0 0 1 1.147-4.613 4.006 4.006 0 0 1 3.337-1.284 3.035 3.035 0 0 1 3.17 1.696 7.688 7.688 0 0 1 0 4.805c-.309.886-.296.9.49.81l.67-.09.09.744c.086.537.215 1.065.387 1.58.115.302.21.611.283.926 0 .257-1.52.45-2.886.346l-1.405-.077-.953.887a7.82 7.82 0 0 1-5.915 2.21 8.148 8.148 0 0 1-5.257-1.49l-.657-.502-.786.54a6.08 6.08 0 0 1-3.866 1.182c-1.288 0-1.392 0-1.752-.347-1.289-1.143-1.52-3.854-.773-7.644.36-1.979.373-3.2 0-3.495-.683-.578-1.56-.347-2.346.604a13.809 13.809 0 0 0-1.958 3.7 5.394 5.394 0 0 0 .142 3.546 6.53 6.53 0 0 1 .283 1.58 1.114 1.114 0 0 1-.502 1.08 9.027 9.027 0 0 1-3.016 1.541 1.73 1.73 0 0 1-.889-.077c-.992-.41-1.288-1.953-.992-6.218.103-1.696.232-3.61.296-4.291.22-1.902.18-2.377-.141-2.698a1.123 1.123 0 0 0-.735-.283c-.966 0-2.809 2.57-3.66 5.062a4.215 4.215 0 0 0-.231 2.107c.065.737.19 1.467.373 2.184a7.32 7.32 0 0 1 .284 1.593 1.127 1.127 0 0 1-.516 1.08 8.192 8.192 0 0 1-3.105 1.541 1.628 1.628 0 0 1-.902-.115h.051zm-10.8-4.459a5.816 5.816 0 0 0 2.036-2.004 7.69 7.69 0 0 0 .864-4.034 24.23 24.23 0 0 1 .296-3.032c.096-.36.143-.732.142-1.105a5.307 5.307 0 0 0-2.126.707 7.905 7.905 0 0 0-3.366 2.862 7.87 7.87 0 0 0-1.299 4.217c0 1.452.284 2.184 1.044 2.57a2.854 2.854 0 0 0 2.41-.193v.012zm48.296-4.278c.412-1.464 0-2.685-.658-2.325a1.862 1.862 0 0 0-.476 1.657c.116.591.592 1.58.76 1.58.167 0 .245-.41.373-.912z" fill="#C7C8CA"/></svg>