<svg width="98" height="19" viewBox="0 0 98 19" fill="none" xmlns="http://www.w3.org/2000/svg"><path d="M9 1l2.328 5.796 6.232.423-4.794 4.005 1.524 6.057L9 13.96l-5.29 3.321 1.524-6.057L.44 7.219l6.232-.423L9 1z" fill="#EDBD41"/><path d="M29 1l2.328 5.796 6.232.423-4.794 4.005 1.524 6.057L29 13.96l-5.29 3.321 1.524-6.057-4.794-4.005 6.232-.423L29 1zm20 0l2.328 5.796 6.231.423-4.793 4.005 1.524 6.057L49 13.96l-5.29 3.321 1.524-6.057-4.794-4.005 6.232-.423L49 1zm20 0l2.328 5.796 6.231.423-4.793 4.005 1.524 6.057L69 13.96l-5.29 3.321 1.524-6.057-4.793-4.005 6.231-.423L69 1z" fill="#F6BB06"/><path d="M89 2.342l1.864 4.64.117.292.313.021 4.99.338-3.838 3.207-.241.201.076.305 1.22 4.85-4.235-2.66L89 13.37l-.266.167-4.235 2.659 1.22-4.85.076-.305-.24-.201-3.838-3.207 4.99-.338.312-.021.117-.291L89 2.342z" stroke="#F6BB06"/><path d="M88.897 2v11.216l-4.578 2.874 1.319-5.242-4.149-3.466 5.393-.366L88.897 2z" fill="#F6BB06"/></svg>