<svg width="144" height="393" viewBox="0 0 144 393" fill="none" xmlns="http://www.w3.org/2000/svg"><path d="M123 393s-65.582-35.587-33.613-138.837c31.861-103.327 50.226-117.815 8.58-166.212C56.42 39.546-63 15-63 15v378h186z" fill="#D3F1FF"/><path d="M-147.181 391.1c-.4 0-.8-.3-1-.7-.2-.5.1-1.1.7-1.2 3.8-1.1 7.6-2.3 11.4-3.6.5-.2 1.1.1 1.3.6.2.5-.1 1.1-.6 1.3-3.8 1.3-7.7 2.5-11.5 3.6h-.3zm22.8-7.5c-.4 0-.8-.3-.9-.7-.2-.5.1-1.1.6-1.3 3.7-1.4 7.5-2.8 11.2-4.3.5-.2 1.1 0 1.3.6.2.5 0 1.1-.6 1.3-3.7 1.5-7.5 2.9-11.2 4.3-.2.1-.3.1-.4.1zm22.3-8.9c-.4 0-.8-.2-.9-.6-.2-.5 0-1.1.5-1.3 3.6-1.6 7.3-3.2 10.9-4.9.5-.2 1.1 0 1.3.5.2.5 0 1.1-.5 1.3-3.6 1.7-7.3 3.4-11 4.9 0 .1-.2.1-.3.1zm21.8-10.1c-.4 0-.7-.2-.9-.6-.2-.5 0-1.1.4-1.3 3.6-1.8 7.1-3.7 10.6-5.5.5-.3 1.1-.1 1.4.4.3.5.1 1.1-.4 1.4-3.5 1.9-7.1 3.8-10.7 5.6-.1-.1-.3 0-.4 0zm21.1-11.5c-.3 0-.7-.2-.9-.5-.3-.5-.1-1.1.4-1.4 3.5-2 6.9-4.1 10.3-6.2.5-.3 1.1-.2 1.4.3.3.5.2 1.1-.3 1.4-3.4 2.1-6.8 4.2-10.3 6.2-.3.2-.4.2-.6.2zm20.4-12.7c-.3 0-.6-.2-.8-.4-.3-.5-.2-1.1.3-1.4 3.3-2.2 6.6-4.5 9.8-6.8.4-.3 1.1-.2 1.4.2.3.4.2 1.1-.2 1.4-3.2 2.3-6.5 4.6-9.9 6.9-.3 0-.5.1-.6.1zm19.4-14.1c-.3 0-.6-.1-.8-.4-.3-.4-.3-1.1.2-1.4 3.2-2.5 6.3-5 9.3-7.6.4-.4 1.1-.3 1.4.1.4.4.3 1.1-.1 1.4-3 2.6-6.2 5.1-9.3 7.6-.3.2-.5.3-.7.3zm18.3-15.5c-.3 0-.5-.1-.7-.3-.4-.4-.4-1 .1-1.4 3-2.7 5.8-5.5 8.6-8.3.4-.4 1-.4 1.4 0 .4.4.4 1 0 1.4-2.8 2.8-5.7 5.6-8.7 8.4-.2.1-.5.2-.7.2zm16.8-17.1c-.2 0-.5-.1-.7-.3-.4-.4-.4-1-.1-1.4 2.7-3 5.3-6.1 7.7-9.1.3-.4 1-.5 1.4-.2.4.3.5 1 .2 1.4-2.5 3.1-5.1 6.2-7.8 9.2-.1.3-.4.4-.7.4zm15-18.7c-.2 0-.4-.1-.6-.2-.5-.3-.6-.9-.2-1.4 2.3-3.3 4.5-6.6 6.6-9.9.3-.5.9-.6 1.4-.3.5.3.6.9.3 1.4-2.1 3.4-4.3 6.7-6.7 10.1-.2.1-.5.3-.8.3zm12.6-20.5c-.2 0-.3 0-.5-.1-.5-.3-.7-.9-.4-1.4 1.9-3.5 3.6-7.2 5.1-10.7.2-.5.8-.7 1.3-.5.5.2.7.8.5 1.3-1.6 3.6-3.3 7.3-5.2 10.9-.1.3-.5.5-.8.5zm9.4-21.9c-.1 0-.2 0-.3-.1-.5-.2-.8-.7-.6-1.3 1.3-3.8 2.4-7.6 3.4-11.4.1-.5.7-.9 1.2-.7.5.1.9.7.7 1.2-1 3.9-2.1 7.8-3.4 11.6-.2.4-.5.7-1 .7zm5.8-23.3h-.2c-.5-.1-.9-.6-.8-1.1.6-3.9 1.1-7.9 1.3-11.8 0-.6.5-1 1.1-.9.6 0 1 .5.9 1.1-.3 4-.7 8-1.3 12-.1.3-.5.7-1 .7zm1.6-23.9c-.5 0-1-.4-1-1-.1-3.9-.4-7.9-.8-11.9-.1-.5.3-1 .9-1.1.5-.1 1 .3 1.1.9.4 4 .7 8.1.8 12.1 0 .5-.4 1-1 1zm-2.6-23.8c-.5 0-.9-.3-1-.8-.2-.8-.3-1.6-.5-2.3-.7-3.1-1.5-6.2-2.4-9.2-.2-.5.1-1.1.6-1.3.5-.2 1.1.1 1.3.6 1 3 1.8 6.2 2.5 9.4.2.8.3 1.6.5 2.4.1.5-.2 1.1-.8 1.2h-.2zm-7.3-22.8c-.4 0-.7-.2-.9-.6-1.7-3.6-3.7-7-5.8-10.3-.3-.5-.2-1.1.3-1.4.5-.3 1.1-.2 1.4.3 2.2 3.3 4.2 6.9 6 10.5.2.5 0 1.1-.5 1.3-.2.2-.4.2-.5.2zm-13.2-19.9c-.3 0-.5-.1-.7-.3-2.6-2.9-5.4-5.7-8.5-8.3-.4-.4-.5-1-.1-1.4.4-.4 1-.5 1.4-.1 3.1 2.7 6 5.5 8.6 8.5.4.4.3 1-.1 1.4-.1.1-.4.2-.6.2zm-18.1-15.6c-.2 0-.4-.1-.6-.2-3.2-2.2-6.6-4.2-10.2-6.1-.5-.3-.7-.9-.4-1.4.3-.5.9-.7 1.4-.4 3.6 1.9 7.1 4 10.4 6.2.5.3.6.9.3 1.4-.3.3-.6.5-.9.5zM-2.181 92c-.1 0-.3 0-.4-.1-3.6-1.5-7.3-2.9-11.2-4.2-.5-.2-.8-.7-.6-1.3.2-.5.7-.8 1.3-.6 3.9 1.3 7.7 2.7 11.3 4.3.5.2.7.8.5 1.3-.2.4-.5.6-.9.6zm-22.8-7.7h-.3c-3.8-1-7.7-1.9-11.6-2.7-.5-.1-.9-.6-.8-1.2.1-.5.6-.9 1.2-.8 4 .8 8 1.7 11.7 2.7.5.1.9.7.7 1.2 0 .5-.4.8-.9.8zm-155-1.1c-.5 0-.9-.3-1-.8-.1-.5.2-1.1.8-1.2 0 0 4.5-.9 11.9-2 .5-.1 1.1.3 1.1.8.1.5-.3 1.1-.8 1.1-7.4 1.1-11.8 2-11.8 2 0 .1-.1.1-.2.1zm23.8-3.6c-.5 0-.9-.4-1-.9-.1-.5.3-1 .9-1.1 3.9-.5 8-.9 12-1.3.5 0 1 .3 1.1.9.1.5-.3 1-.9 1.1-4 .4-8 .8-11.9 1.3h-.2zm107.7-.1h-.2c-3.8-.6-7.8-1.1-11.9-1.6-.5-.1-.9-.6-.9-1.1.1-.5.6-.9 1.1-.9 4.1.4 8.1 1 11.9 1.6.5.1.9.6.8 1.1.1.6-.3.9-.8.9zm-83.8-2.2c-.5 0-1-.4-1-.9 0-.6.4-1 .9-1.1 4-.3 8-.5 12-.7.5 0 1 .4 1 .9 0 .6-.4 1-.9 1-3.9.2-8 .5-12 .8zm60-.4c-.1 0-.1 0 0 0-4-.3-8-.5-12-.6-.6 0-1-.5-1-1 0-.6.5-1 1-1 4.1.1 8.1.4 12 .6.6 0 1 .5.9 1.1 0 .5-.4.9-.9.9zm-36-.8c-.5 0-1-.4-1-1s.4-1 1-1c4-.1 8.1-.1 12-.1.6 0 1 .5 1 1 0 .6-.5 1-1 1-4 0-8 0-12 .1z" fill="#B5DFF2"/></svg>