<svg width="627" height="589" viewBox="0 0 627 589" fill="none" xmlns="http://www.w3.org/2000/svg"><g clip-path="url(#a)"><path d="M463 232h149s-6.394-44.616-38.362-15.894c0 0 1.112-32.347-22.795-34.02-23.906-1.952-26.13 29.837-26.13 29.837s-6.116-14.5-20.015-12.548c-13.899 1.952-13.621 22.029-13.621 22.029s-3.614-5.856-12.232-3.068C465.224 222.519 463 232 463 232z" fill="#F5F7FA"/><path d="M531.997 292.999c0 39.788-32.21 71.998-71.998 71.998-39.789 0-71.999-32.21-71.999-71.998C388 253.21 420.21 221 459.999 221c39.788 0 71.998 32.21 71.998 71.999z" fill="#C4E9FA"/><path d="M135.368 242.656c15.473 51.472-.631 97.577-10.894 147.313-10.263 51.472 24.631 98.05 69.156 127.102 41.21 25.737 90.946 1.737 133.892 32.526 41.21 29.21 94.42 63.473 140.682 15.473 42.946-44.525 29.21-102.945 13.736-154.418-15.473-49.736-18.947-94.419 0-144.155 20.526-53.209 54.473-115.103 16.105-163.733-50.841-64.42-307.573-54.789-346.572-29.21-53.367 35.209-35.052 103.892-16.105 169.102z" fill="#ECF9FF"/><path d="M109.481 162.369c-.16-.093-.388-.44-.201-.761s.44-.388.855-.362c1.377.587 2.848 1.013 4.318 1.438.321.187.388.441.455.695-.186.321-.44.388-.694.455-1.725-.359-3.102-.945-4.733-1.465.161.094.161.094 0 0zm8.891 2.81c-.161-.093-.388-.44-.295-.601.187-.321.441-.388.695-.455l4.411 1.278c.321.187.482.28.456.694-.187.321-.28.482-.695.456a172.31 172.31 0 0 0-4.572-1.372zm8.756 2.302c-.16-.093-.227-.347-.294-.601.026-.414.28-.481.694-.455 1.564.265 3.035.691 4.438.864.415.026.482.28.456.694-.027.414-.281.482-.695.455-1.31-.332-2.874-.598-4.599-.957.161.094 0 0 0 0zm9.063 1.407c-.16-.094-.227-.348-.294-.602.026-.414.28-.481.694-.455 1.404.172 3.061.277 4.464.45.415.026.482.28.549.534-.026.414-.28.481-.534.548-1.497-.012-3.061-.277-4.464-.449-.254.067-.415-.026-.415-.026zm9.116.577c-.161-.093-.228-.347-.295-.601-.067-.254.28-.481.534-.549l4.491.035c.254-.067.481.281.548.534.067.254-.28.482-.534.549-1.497-.012-3.087.137-4.584.125l-.16-.093zm9.168-.251c-.161-.093-.321-.187-.388-.441-.067-.253.119-.574.534-.548 1.59-.149 2.926-.231 4.517-.38.253-.067.574.12.548.534.067.254-.119.575-.534.549-1.43.242-3.02.391-4.61.54.093-.161.093-.161-.067-.254zm9.06-1.173c-.161-.093-.321-.187-.228-.347-.067-.254.12-.575.374-.642 1.429-.242 2.953-.645 4.382-.887.254-.067.575.119.642.373.067.254-.119.575-.373.642-1.523.403-2.953.645-4.476 1.048l-.321-.187zm8.952-2.095c-.161-.094-.321-.187-.228-.348-.067-.253.12-.574.374-.641 1.523-.403 2.885-.899 4.248-1.395.254-.067.575.119.642.373.067.254-.12.575-.373.642-1.363.496-2.886.899-4.409 1.302-.094.16-.254.067-.254.067zm8.59-2.95c-.161-.094-.161-.094-.228-.348-.067-.253-.041-.668.213-.735a26.53 26.53 0 0 0 4.115-1.902c.253-.068.668-.041.735.213.067.253.041.668-.213.735-1.456.656-2.912 1.313-4.275 1.809-.026.414-.187.321-.347.228zm8.228-3.805l-.321-.187c-.067-.254-.041-.668.213-.735l3.887-2.25c.254-.067.668-.041.735.213.067.254.041.668-.213.735-1.295.75-2.591 1.5-4.047 2.156.161.094-.093.161-.254.068zm7.867-4.66l-.161-.094c-.227-.347-.041-.668.213-.735 1.296-.75 2.524-1.754 3.659-2.597.348-.228.668-.041.829.053.228.347.041.668-.053.828-1.228 1.004-2.524 1.754-3.819 2.504-.254.067-.508.134-.668.041zm7.411-5.355l-.16-.093c-.228-.347-.135-.508.052-.829 1.229-1.004 2.364-1.847 3.592-2.851.347-.227.508-.134.829.053.227.347.134.508-.053.829-1.228 1.003-2.457 2.007-3.592 2.85-.254.067-.507.135-.668.041zm6.956-6.049c-.388-.44-.294-.601-.108-.922 1.068-1.097 2.297-2.101 3.365-3.198.186-.321.601-.294.828.053.321.187.295.601-.052.828-1.068 1.098-2.136 2.195-3.365 3.198-.093.161-.507.135-.668.041zm6.408-6.582c-.321-.187-.295-.602-.108-.923 1.068-1.097 1.975-2.287 3.043-3.384.187-.321.601-.295.829.052.321.187.294.601-.053.829-.907 1.19-1.975 2.288-3.043 3.385-.093.16-.347.227-.668.041zm5.926-6.863c-.321-.187-.295-.601-.108-.922l2.722-3.572c.187-.321.601-.295.762-.201.321.186.294.601.201.761-.907 1.191-1.815 2.381-2.816 3.732-.186.321-.44.388-.761.202zm5.377-7.397c-.321-.187-.294-.601-.201-.762.747-1.284 1.654-2.474 2.495-3.919.186-.321.44-.388.761-.201s.388.441.202.762c-.747 1.283-1.748 2.634-2.495 3.918-.093.161-.601.295-.762.202zm4.829-7.931c-.321-.187-.388-.441-.201-.762.747-1.284 1.494-2.567 2.174-4.105.186-.321.44-.388.761-.202.321.187.388.441.202.762-.747 1.284-1.334 2.661-2.174 4.106-.187.32-.441.388-.762.201zm4.094-8.144c-.321-.187-.388-.441-.201-.762l1.759-4.131c.187-.321.441-.388.762-.202.321.187.388.441.201.762-.587 1.377-1.173 2.754-1.853 4.292-.093.161-.347.228-.668.041zm3.452-8.517c-.161-.094-.388-.441-.295-.602.4-1.056.639-2.205 1.039-3.262 0 0-.161-.093-.254.067a19.585 19.585 0 0 1-4.412-1.278c-.321-.186-.388-.44-.201-.761.186-.321.44-.388.761-.201 1.377.586 2.848 1.012 4.252 1.184l.321.187.093-.16c.187-.322.44-.389.694-.456.321.187.388.44.456.695l-1.278 4.412c-.508.134-.855.361-1.176.175zm-8.028-7.248c-1.444-.84-2.634-1.748-3.825-2.655-.321-.187-.295-.602-.108-.922.187-.322.601-.295.922-.108 1.03.813 2.381 1.814 3.665 2.561.321.187.388.44.201.762-.28.481-.694.455-.855.362zm-7.116-5.86l-.161-.093c-1.164-1.321-1.914-2.617-2.41-3.98-.067-.253-.041-.668.213-.735.254-.067.668-.04.735.213.59 1.202 1.34 2.498 2.343 3.726.228.347.135.508-.052.829-.093.16-.347.227-.668.04zm20.031 9.507c-.16-.093-.321-.187-.388-.44-.067-.255.12-.576.534-.55 1.336-.081 2.766-.323 4.45-.633.254-.067.575.12.642.374.067.254-.12.575-.374.642-1.523.403-3.113.551-4.703.7l-.161-.093zm-2.585-5.156c-.161-.093-.228-.347-.295-.601.266-1.564.531-3.128.61-4.371.026-.414.28-.481.534-.549.414.027.481.28.548.534-.172 1.404-.277 3.061-.703 4.532-.026.414-.28.481-.694.455.16.093.16.093 0 0zm-20.583-12.62c-.161-.093-.228-.347-.295-.6a8.629 8.629 0 0 1 1.185-4.252l.186-.32c.187-.322.602-.296.762-.202.321.187.295.6.201.761l-.186.321c-.654 1.124-.987 2.434-1.065 3.677-.027.414-.28.481-.534.548-.094.16-.254.068-.254.068zm32.12 15.68c-.16-.093-.16-.093-.228-.346-.067-.254.12-.575.374-.643 1.269-.335 2.565-1.085 4.181-1.648.254-.067.668-.041.736.213.067.254.04.668-.213.735-1.71.724-3.073 1.22-4.275 1.81-.414-.027-.575-.12-.575-.12zm-10.96-12.175c-.16-.094-.321-.187-.227-.348-.149-1.59-.552-3.113-1.235-4.155-.067-.254-.04-.668.213-.735.254-.067.669-.04.736.213.589 1.202 1.152 2.819 1.208 4.57.067.253-.12.574-.534.548l-.161-.094zm-16.451-10.86c-.16-.094-.16-.094-.227-.348-.068-.254-.041-.668.213-.735 1.456-.656 2.979-1.06 4.636-.954.414.026.482.28.549.534.067.254-.28.481-.534.548-1.497-.011-2.927.23-4.129.82-.187.321-.347.228-.508.135zm35.707 19.484c-.161-.093-.161-.093-.228-.347s-.041-.668.213-.735c1.363-.496 2.658-1.246 4.114-1.903.254-.067.668-.04.735.213.067.254.041.669-.213.736-1.456.656-2.912 1.313-4.114 1.902a.399.399 0 0 1-.507.134zm-23.247-16.532c-1.258-1.161-2.449-2.069-3.572-2.722-.321-.187-.388-.44-.201-.762.186-.32.44-.388.761-.201a10.011 10.011 0 0 1 3.732 2.816c.321.186.295.6-.052.828-.094.16-.347.228-.668.041zm31.635 12.82c-.16-.093-.16-.093-.227-.346-.067-.254-.041-.669.213-.736a27.15 27.15 0 0 1 4.341-1.555c.254-.067.575.12.642.373.068.254-.119.575-.373.642-1.363.496-2.725.992-4.181 1.65-.094.16-.254.066-.415-.027zm8.591-2.95c-.161-.093-.321-.186-.228-.347-.067-.253.12-.574.373-.641 1.524-.403 2.886-.9 4.409-1.302.254-.067.575.12.642.374.067.254-.119.574-.373.641l-4.316 1.142a.398.398 0 0 1-.507.134zm145.299 79.595l-.16-.093-2.504-3.82c-.228-.347-.041-.668.213-.735.347-.228.668-.041.735.213l2.504 3.819c.067.254.041.669-.213.736-.254.067-.414-.026-.575-.12zM289.623 79.435c-.16-.094-.321-.187-.227-.347-.067-.254.119-.575.373-.642 1.43-.243 3.114-.552 4.543-.794.254-.067.575.12.549.534.067.254-.12.575-.534.548-1.43.243-3.02.391-4.543.794l-.161-.093zm131.247 74.211l-.16-.094c-.843-1.135-1.593-2.43-2.597-3.658-.228-.348-.041-.669.053-.829.347-.228.668-.041.828.052.911 1.389 1.914 2.618 2.758 3.753.227.347.04.668-.213.735-.348.228-.508.134-.669.041zm-5.354-7.411l-.16-.094c-.844-1.135-1.847-2.363-2.851-3.592-.228-.347-.135-.507.052-.828.347-.228.508-.135.829.052 1.004 1.229 2.007 2.457 2.757 3.753.228.347.135.507-.052.828-.254.067-.414-.026-.575-.119zM298.683 78.262c-.16-.094-.321-.187-.388-.441s.12-.575.534-.549c1.59-.148 3.087-.137 4.517-.379.254-.067.575.12.549.534.067.254-.12.575-.534.548a26.54 26.54 0 0 0-4.517.38l-.161-.093zm111.131 60.789l-.16-.094c-.843-1.135-1.847-2.363-2.851-3.591-.227-.348-.134-.508.053-.829.347-.228.507-.134.828.052 1.004 1.229 2.008 2.457 2.851 3.592.228.348.134.508-.052.829-.094.16-.348.228-.669.041zm-102.03-61.294c-.16-.094-.227-.348-.295-.601-.067-.254.281-.482.534-.549 1.497.012 2.994.023 4.652.128.253-.067.481.28.548.534.067.254-.28.482-.534.549l-4.49-.035c-.254.067-.254.067-.415-.026zm96.329 54.11l-.161-.093c-1.003-1.229-1.94-2.203-2.944-3.432-.228-.347-.134-.507.053-.828.347-.228.601-.295.828.052 1.004 1.229 2.101 2.297 2.944 3.432.228.347.135.507-.052.828-.187.321-.508.134-.668.041zm-87.12-53.693c-.16-.094-.228-.348-.295-.601.027-.415.28-.482.534-.549 1.497.012 3.061.277 4.465.45.414.026.481.28.455.694-.026.414-.28.481-.695.455-1.564-.266-3.06-.277-4.464-.45.16.094 0 0 0 0zm80.978 46.898c-1.165-1.322-2.262-2.39-3.198-3.365-.321-.186-.295-.601.052-.828.187-.321.601-.295.829.052 1.097 1.068 2.101 2.296 3.198 3.364.227.348.294.601-.053.829-.254.067-.507.134-.828-.052zm-6.236-6.636s-.161-.093 0 0a172.703 172.703 0 0 1-3.452-3.297c-.321-.187-.295-.601.053-.828.186-.321.601-.295.828.052l3.292 3.204c.321.187.294.601-.053.829-.093.16-.508.134-.668.04zm-65.653-39.27c-.16-.094-.227-.347-.295-.601.027-.415.281-.482.695-.456 1.564.266 3.128.531 4.438.864.321.187.481.28.455.695-.026.414-.28.48-.694.455-1.471-.426-3.035-.692-4.438-.864l-.161-.093zm59.07 32.863c-1.257-1.161-2.355-2.229-3.545-3.137-.321-.187-.295-.601.052-.829.187-.32.601-.294.829.053 1.097 1.068 2.288 1.975 3.385 3.043.321.187.295.601-.053.829-.093.16-.347.228-.668.041zm-50.126-30.882c-.161-.094-.389-.44-.295-.601.187-.321.44-.388.694-.456 1.471.426 2.941.852 4.319 1.439.321.187.388.44.455.694-.187.321-.441.388-.695.456-1.537-.68-3.008-1.106-4.478-1.532zm43.357 24.795s-.161-.093 0 0c-1.351-1.001-2.449-2.069-3.639-2.976-.321-.187-.295-.601-.108-.922.187-.321.601-.295.922-.108 1.191.908 2.288 1.975 3.478 2.883.321.187.295.601-.052.829-.027.414-.441.388-.601.294zm-7.211-5.698c-1.351-1.001-2.541-1.909-3.732-2.816-.321-.187-.294-.601-.201-.762.187-.32.601-.294.762-.2 1.19.907 2.381 1.814 3.732 2.815.321.186.294.6.201.761-.187.321-.441.389-.762.202zm-27.51-16.22c-.321-.187-.388-.44-.201-.762.187-.32.441-.388.762-.201a336.87 336.87 0 0 1 4.292 1.852c.321.187.388.441.201.762-.186.321-.44.388-.761.201-1.378-.586-2.915-1.266-4.293-1.852zm20.114 10.842c-1.191-.907-2.635-1.748-3.919-2.495-.321-.186-.388-.44-.202-.761.187-.321.602-.295.762-.201 1.284.746 2.474 1.654 3.919 2.494.321.187.294.601.201.762-.187.32-.441.388-.761.201zm-11.876-6.91c-.321-.186-.388-.44-.202-.76.187-.322.441-.389.762-.202 1.284.747 2.661 1.333 4.105 2.174.321.186.388.44.202.761-.187.321-.441.388-.762.202-1.444-.84-2.728-1.588-4.105-2.174z" fill="#5BABCD"/><path d="M363.512 487.725l3.877 11.166 7.754-8.839-11.631-2.327zm-.002.001l-11.476-2.327 7.754-8.839 3.722 11.166z" fill="#EDC461"/><path d="M325.825 514.555l-2.171 11.631 11.166-4.032-8.995-7.599zm.001 0l-9.15-7.599 11.166-4.032-2.016 11.631z" fill="#A1CFE9"/><path d="M273.407 531.614l-3.257 11.321 11.477-2.791-8.22-8.53zm.001 0l-8.064-8.53 11.476-2.791-3.412 11.321z" fill="#91C5C8"/><path d="M223.937 555.497l1.705 11.631 9.15-7.289-10.855-4.342zm0 0l-11.011-4.342 9.305-7.289 1.706 11.631z" fill="#EDC461"/><path d="M375.298 466.479c-8.375 28.225-37.376 44.974-65.291 54.279-27.915 9.305-58.156 14.268-82.039 31.637-10.08 7.289-18.455 16.749-24.968 27.605" stroke="#343435" stroke-width=".791" stroke-miterlimit="10"/><path d="M415.93 310l-66.066 25.744 55.52 14.578L415.93 310z" fill="#E2B656"/><path d="M405.384 350.322l-30.861 118.483-24.659-133.061 55.52 14.578z" fill="#89C1DB"/><path d="M415.93 310l44.974 54.744-55.52-14.422L415.93 310z" fill="#84BCBC"/><path d="M405.385 350.322l-30.862 118.483 86.382-104.061-55.52-14.422zM415.929 310l-13.182 5.118c3.257 3.722 6.203 7.909 8.685 12.251L415.929 310z" fill="#E2B656"/><path d="M415.93 310l-4.497 17.369c4.807 8.22 7.909 17.525 9.46 26.83l40.011 10.39L415.93 310z" fill="#84BCBC"/><path d="M420.893 354.354c2.171 12.872 1.086 26.209-3.567 38.46-6.048 15.974-18.144 29.156-32.877 37.841l-9.926 38.305 86.382-104.061-40.012-10.545z" fill="#E2B656"/><path d="M384.449 430.655c-4.963 2.946-10.236 5.273-15.664 7.134l5.738 31.172 9.926-38.306z" fill="#89C1DB"/><path d="M379.951 331.402l-19.386 7.599 8.84 48.076" stroke="#fff" stroke-width="1.292" stroke-miterlimit="10" stroke-linecap="round" stroke-linejoin="round"/><path d="M439.813 164l-5.385 14.482-19.866.186 7.426 8.912-10.583 5.57 46.046 26.179L439.813 164z" fill="#E27365"/><path d="M433.872 178.484c0-.186.185-.372.371-.557.186-.186.557 0 .743.185l22.094 39.919c.186.186 0 .557-.185.743-.186.185-.557 0-.743-.186l-22.095-39.919c-.185 0-.185 0-.185-.185zm-19.867.185v-.186c.186-.371.557-.371.743-.185l14.11 6.869c.372.186.372.557.186.743-.186.371-.557.371-.743.186l-14.11-6.87c0-.186-.186-.371-.186-.557z" fill="#2E2427"/><path d="M428.301 185.538c0-.186 0-.371.185-.371.186-.186.557-.186.743 0l27.85 32.863c.186.186.186.557 0 .743-.185.186-.557.186-.742 0l-27.851-32.864c-.185-.185-.185-.371-.185-.371z" fill="#2E2427"/><path d="M421.431 187.58c0-.186.186-.557.372-.557l6.684-2.043c.371-.185.557 0 .742.372 0 .371.001.557-.371.742l-6.684 2.043c-.371.185-.557 0-.743-.557 0 0 0 .185 0 0z" fill="#2E2427"/><path d="M5 553h149s-6.394-44.616-38.362-15.894c0 0 1.112-32.347-22.795-34.02-23.906-1.952-26.13 29.837-26.13 29.837s-6.116-14.5-20.015-12.548c-13.9 1.952-13.621 22.029-13.621 22.029s-3.614-5.856-12.232-3.068C7.224 543.519 5 553 5 553z" fill="#F5F7FA"/><path d="M345.429 106.991l2.484-5.991 3.215 6.429 6.136.438-5.26 3.799 1.608 6.137-5.553-3.36-6.283 3.068 2.484-6.429-5.26-2.922 6.429-1.169z" fill="#F0B3C5"/><path d="M325.922 156.798l7.16 3.799-1.9 3.653-8.182-5.699 2.922-1.753zM391.383 89l7.16 3.945-2.046 3.653-8.183-5.698 3.069-1.9z" fill="#5BABCD"/><path d="M379.693 134.588l-6.722 4.384-2.484-3.361 8.913-4.53.293 3.507z" fill="#E9B833"/><path d="M187.741 287.325l-1.336 18.484c-.289 3.972 4.529 7.562 10.759 8.015 6.231.451 11.516-2.41 11.802-6.382l1.339-18.484-22.564-1.633z" fill="#ECC0A0"/><path d="M258.117 263.607c-.05-1.201-.479-4.98-2.853-6.301 0 0-4.331 6.652-4.339 6.64-.819 3.861-2.517 8.107-4.1 11.744a.487.487 0 0 0 .11.554.5.5 0 0 0 .265.13c.1.014.202-.002.293-.047.625-.305 2.27-.676 3.382-1.328 1.254-.73 2.362-1.401 4.771-4.289 1.896-2.278 2.529-5.91 2.471-7.103z" fill="#EACBA7"/><path d="M253.037 269.683c-.992 1.884-2.884 2.837-4.227 2.127-1.344-.71-1.626-2.807-.633-4.686.992-1.88 2.883-2.838 4.227-2.132 1.343.707 1.625 2.807.633 4.691z" fill="#D3B08C"/><path d="M273.18 279.99a31.542 31.542 0 0 0 2.633-7.797 49.467 49.467 0 0 0 .95-10.513c-.081-7.334-1.641-15.055-4.714-21.293-1.803-3.661-3.984-5.791-6.176-7.007a11.99 11.99 0 0 0-3.984-1.359 14.542 14.542 0 0 0-3.78-.082c-.351.035-.683.086-1.003.135l-1.498.248.957 1.158a15.76 15.76 0 0 1 1.421 2.081 17.335 17.335 0 0 1 2.246 7.03 12.896 12.896 0 0 1-1.466 7.4 9.529 9.529 0 0 1-2.405 2.899 6.699 6.699 0 0 1-1.66.942l-.503.198-.057.532c-.039.347-.062.675-.101.973l-.069.552.471.301a9.341 9.341 0 0 1 3.385 3.651 8.946 8.946 0 0 1 .773 5.382 13.54 13.54 0 0 1-1.213 3.826c-.195.419-.4.818-.614 1.193a14.847 14.847 0 0 1-3.23 4.069 9.709 9.709 0 0 1-3.22 1.872c-.4.134-.809.236-1.224.305l-.849.147.127.853c1.456 9.62 4.918 14.828 6.798 17.051l.552.657.672-.533a34.32 34.32 0 0 0 8.775-10.149 24.442 24.442 0 0 0 2.779-7.439c.029-.159.082-.313.159-.456a1.438 1.438 0 0 1 .891-.683 1.412 1.412 0 0 1 1.051.139c.308.187.538.481.644.826l1.402 4.907 1.08-2.016zm-120.334-21.391a8.773 8.773 0 0 1-3.779-4.207 11.21 11.21 0 0 1-.741-5.984 12.647 12.647 0 0 1 1.459-4.482 10.159 10.159 0 0 1 3.771-3.93c.358-.203.729-.38 1.112-.529l.44-.173.089-.463c.051-.287.128-.595.201-.939l.089-.443-.313-.321-.208-.224a6.567 6.567 0 0 1-.861-1.332 10.316 10.316 0 0 1-.934-3.39 13.955 13.955 0 0 1 1.671-8.218 21.568 21.568 0 0 1 2.042-3.038l1.224-1.545-1.953.14c-.232 0-.467.03-.738.058-3.447.324-7.875 1.312-11.855 3.86a20.904 20.904 0 0 0-7.026 7.536 26.952 26.952 0 0 0-2.555 6.647c-2.646 10.736-1.703 20.982-.07 28.568a68.774 68.774 0 0 0 3.475 11.388l.239.575.617-.047c.452-.035.901-.1 1.343-.192a13.988 13.988 0 0 0 6.433-3.425 24.33 24.33 0 0 0 4.945-6.408c1.173-2.123 2.181-9.316 1.883-9.482z" fill="#E9CB3B"/><path d="M280.623 272.918a44.546 44.546 0 0 0 1.586-15.55 54.156 54.156 0 0 0-.153-1.625c-.653-5.841-2.17-11.644-4.668-16.724-2.03-4.146-4.702-6.86-7.555-8.435a15.458 15.458 0 0 0-5.868-1.849 19.525 19.525 0 0 0-7.215.641c-.672.182-1.247.386-1.718.548-4.343-13.608-13.457-24.969-25.425-31.621a50.042 50.042 0 0 0-49.487.487 55.188 55.188 0 0 0-17.244 15.685 6.494 6.494 0 0 0-2.757.532l-.135.066a35.206 35.206 0 0 0-10.574.691 28.951 28.951 0 0 0-9.431 3.833 24.783 24.783 0 0 0-8.327 8.926 30.886 30.886 0 0 0-2.941 7.64c-2.887 11.732-1.818 22.777-.058 30.903 1.76 8.126 4.246 13.345 4.292 13.453l.495 1.042 1.158.178c.258.039 2.857.405 6.381-.965a18.92 18.92 0 0 0 5.714-3.571 28.16 28.16 0 0 0 5.744-7.443c.502-.9.981-1.88 1.452-2.911.328-4.42.656-12.808-.105-25.115l2.834.644c.024-.213.047-.425.073-.637.159 0 .309 0 .471.023l.073-.529c2.135-.266 5.637-.772 9.54-1.544a80.574 80.574 0 0 0 9.84-2.629 39.46 39.46 0 0 0 5.251-2.204c.004.836-.059 1.672-.19 2.497a6.797 6.797 0 0 1-.691 2.189 2.51 2.51 0 0 1-.648.796l-2.232 1.741a.555.555 0 0 0-.179.233.553.553 0 0 0 .078.564.561.561 0 0 0 .236.175l2.629 1.043c.221.085 3.123 1.212 7.362.637a18.848 18.848 0 0 0 7.069-2.502 24.764 24.764 0 0 0 5.694-4.701c2.555 3.284 8.061 9.287 17.418 14.488a74.032 74.032 0 0 0 21.267 7.721l2.68.173a.51.51 0 0 0 .536-.386l.895-4.03c1.34 2.011 3.583 4.709 7.405 8.33 0 0 4.59-6.141 5.13-8.685.541-2.545 8.212 14.202-8.349 20.433 1.81 8.57 5.191 18.986 7.184 21.233a4.089 4.089 0 0 0 5.601.513 37.495 37.495 0 0 0 9.767-11.23c.367-.664.679-1.294.969-1.931a2.875 2.875 0 0 0 4.91.529c.598-.783 3.166-7.967 4.216-11.77zm-128.61-13.296a43.802 43.802 0 0 1-3.371 8.022 23.903 23.903 0 0 1-4.86 6.308c-2.381 2.128-4.575 2.954-6.177 3.29a9.99 9.99 0 0 1-1.255.185 69.7 69.7 0 0 1-3.474-11.466c-1.644-7.667-2.586-17.986.069-28.756a26.461 26.461 0 0 1 2.522-6.563 20.383 20.383 0 0 1 6.871-7.377c3.896-2.513 8.281-3.498 11.705-3.818.251-.027.487-.038.729-.058a23.14 23.14 0 0 0-2.165 3.219 15.125 15.125 0 0 0-1.807 8.879c.129 1.3.48 2.569 1.038 3.749a7.423 7.423 0 0 0 1 1.544c.078.093.159.182.244.267-.066.328-.147.644-.209.972-.43.168-.847.368-1.247.599a11.163 11.163 0 0 0-4.176 4.328 13.802 13.802 0 0 0-1.591 4.879 12.354 12.354 0 0 0 .818 6.563 9.833 9.833 0 0 0 5.336 5.234zm.077-5.018a5.615 5.615 0 0 1-1.405-1.93 8.018 8.018 0 0 1-.499-4.247 9.497 9.497 0 0 1 1.085-3.339c.237-.422.516-.82.831-1.189-.023.243-.059.482-.078.729a60.749 60.749 0 0 0 .05 9.976h.016zm94.55-2.845a3.268 3.268 0 0 0-1.185-1.257 3.25 3.25 0 0 0-4.536 1.203l-1.9 3.42a69.31 69.31 0 0 1-18.476-6.914 55.695 55.695 0 0 1-13.562-10.377 39.089 39.089 0 0 1-3.064-3.648c-.329-.44-.56-.772-.712-1.012l-.158-.247-.034-.053-1.645-2.787-1.965 2.582c-2.161 2.841-4.316 4.663-6.311 5.841a14.064 14.064 0 0 1-7.633 2.026h-.142a12.45 12.45 0 0 0 .667-2.509 22.4 22.4 0 0 0 .189-4.957 22.513 22.513 0 0 0-.25-2.316l-.611-3.609-2.879 2.254c-1.664 1.313-4.282 2.552-7.234 3.563-4.433 1.545-9.609 2.591-13.64 3.251a123.64 123.64 0 0 1-3.968.59 54.837 54.837 0 0 1 5.52-14.557 51.419 51.419 0 0 1 19.191-19.669 45.687 45.687 0 0 1 22.54-6.207 45.684 45.684 0 0 1 22.661 5.751c16.643 9.238 27.433 28.633 25.784 50.217a56.9 56.9 0 0 1-.896 6.563c-3.516-3.544-5.099-5.865-5.767-7.142h.016zm27.204 24.857a2.32 2.32 0 0 0-1.084-1.371 2.267 2.267 0 0 0-1.66-.219 2.302 2.302 0 0 0-.841.401 2.242 2.242 0 0 0-.866 1.444 23.19 23.19 0 0 1-2.656 7.1 33.048 33.048 0 0 1-8.458 9.77c-1.765-2.092-5.107-7.068-6.524-16.422.453-.075.9-.186 1.336-.332a10.415 10.415 0 0 0 3.474-2.015 15.453 15.453 0 0 0 3.377-4.282c.213-.385.425-.795.63-1.227a14.139 14.139 0 0 0 1.27-4.031 9.733 9.733 0 0 0-.842-5.836 10.056 10.056 0 0 0-3.659-3.957c.042-.325.066-.653.1-.977a7.422 7.422 0 0 0 1.861-1.058 10.235 10.235 0 0 0 2.591-3.088 13.684 13.684 0 0 0 1.543-7.817 18.094 18.094 0 0 0-2.335-7.309 16.424 16.424 0 0 0-1.483-2.169c.306-.05.614-.096.939-.127a13.474 13.474 0 0 1 3.509.073 10.89 10.89 0 0 1 3.652 1.247c2.019 1.127 4.037 3.061 5.763 6.562 2.969 6.023 4.494 13.531 4.571 20.674a48.323 48.323 0 0 1-.926 10.202 30.076 30.076 0 0 1-2.526 7.497l-.756-2.733z" fill="#E9CB3B"/><path d="M163.053 251.165c-.483 5.404-3.903 9.488-7.647 9.152-3.745-.336-6.39-4.971-5.907-10.357.483-5.385 3.903-9.489 7.643-9.153 3.741.336 6.39 4.968 5.911 10.358z" fill="#EACBA7"/><path d="M159.733 251.226c-.162 2.12-1.521 3.745-3.034 3.629-1.514-.116-2.606-1.93-2.444-4.049.163-2.12 1.522-3.749 3.034-3.633 1.514.116 2.618 1.93 2.444 4.053z" fill="#D3B08C"/><path d="M245.281 254.125l-3.502-4.574-1.748 6.114c-8.729-1.782-14.242-4.269-17.623-5.933-10.845-5.335-17.991-10.5-20.596-13.828a25.177 25.177 0 0 1-5.791 4.776 19.222 19.222 0 0 1-7.176 2.54c-4.305.583-7.254-.564-7.478-.649l.83-.633c2.081-1.586 2.922-4.443 1.772-6.794-.957-1.958-13.686 2.277-16.916 2.938-3.965.81-7.517 1.312-9.687 1.583l-.072.535c-.167-.018-.317 0-.479-.023a58.662 58.662 0 0 0-.344 3.252c-1.671 21.919 9.265 41.615 26.185 50.999a46.425 46.425 0 0 0 45.901-.463 52.213 52.213 0 0 0 19.488-19.978 54.193 54.193 0 0 0 3.088-6.562 7.73 7.73 0 0 0-1.617-8.108 40.564 40.564 0 0 1-4.235-5.192z" fill="#EACBA7"/><path d="M251.921 251.199c1.625-21.336-9.025-40.534-25.529-49.703a45.357 45.357 0 0 0-44.862.437 50.948 50.948 0 0 0-19.005 19.471 54.13 54.13 0 0 0-5.463 14.4l-.267 1.189 1.205-.162a124.9 124.9 0 0 0 3.892-.576c3.957-.652 9.026-1.69 13.419-3.204 2.929-1.007 5.539-2.227 7.291-3.601 0 0 5.405 7.334 1.727 12.021-.175.217.96.533.96.533.171-1.483 5.344-.151 8.409-1.957 2.046-1.205 3.274-2.761 5.439-5.606l2.251-1.861.035.059.169.262c.151.232.386.579.714 1.023a39.86 39.86 0 0 0 3.05 3.629 55.26 55.26 0 0 0 13.408 10.319 68.17 68.17 0 0 0 18.213 6.817l2.146.985 1.437-1.703a2.585 2.585 0 0 1 3.474-.463 41.803 41.803 0 0 1 5.575 4.632l1.13 1.135.306-1.57c.418-2.15.711-4.322.876-6.506z" fill="#E9CB3B"/><path d="M205.638 283.176l-21.542-3.626a1.544 1.544 0 0 0-1.663 2.155c1.22 2.701 1.614 4.451 5.208 7.458 2.999 2.509 6.987 2.444 10.365 2.258 3.644-.2 6.833-3.513 8.589-5.771a1.54 1.54 0 0 0 .225-1.509 1.564 1.564 0 0 0-.463-.64 1.55 1.55 0 0 0-.719-.325z" fill="#CE394D"/><path d="M183.831 269.923c-.336 1.86-3.626 2.825-7.335 2.154-3.71-.672-6.466-2.729-6.13-4.59.335-1.861 3.624-2.822 7.334-2.15 3.71.672 6.47 2.725 6.131 4.586zm37.145 6.605c-.336 1.86-3.629 2.826-7.335 2.154-3.706-.672-6.466-2.725-6.13-4.59.335-1.865 3.628-2.822 7.334-2.151 3.706.672 6.466 2.726 6.131 4.587z" fill="#DF9E94"/><path d="M182.156 256.724c.432-3.606-1.282-6.775-3.834-7.08-2.551-.305-4.965 2.366-5.405 5.968-.439 3.602 1.282 6.775 3.83 7.08 2.548.305 4.992-2.363 5.409-5.968zm-4.379-1.429a2.595 2.595 0 0 1-2.186-1.872 2.593 2.593 0 0 1 2.297-3.282 2.595 2.595 0 0 1 2.508 1.411 2.591 2.591 0 0 1-.711 3.208 2.597 2.597 0 0 1-1.908.535zm43.905 9.037c1.031-3.474-.127-6.891-2.587-7.621-2.459-.729-5.292 1.499-6.327 4.977-1.034 3.479.127 6.895 2.591 7.624 2.463.73 5.292-1.498 6.323-4.98zm-4.077-2.142a2.586 2.586 0 0 1-1.836-2.215 2.595 2.595 0 0 1 1.343-2.546 2.594 2.594 0 0 1 3.708 1.512 2.595 2.595 0 0 1-1.24 3.046 2.6 2.6 0 0 1-1.975.203z" fill="#3C3C3E"/><path d="M180.279 254.099a2.583 2.583 0 0 1-2.627 1.175 2.584 2.584 0 0 1-2.092-1.978 2.584 2.584 0 0 1 .106-1.499 2.58 2.58 0 0 1 2.347-1.665 2.579 2.579 0 0 1 1.451.396 2.583 2.583 0 0 1 .815 3.571zm40.261 6.987a2.59 2.59 0 0 1-4.718-.801 2.587 2.587 0 0 1 2.449-3.168 2.596 2.596 0 0 1 1.45.394 2.597 2.597 0 0 1 .819 3.575z" fill="#fff"/><path d="M163.825 219.81a5.636 5.636 0 0 1-5.045 3.702 5.627 5.627 0 0 1-5.351-3.245 5.623 5.623 0 0 1-.464-3.236 5.632 5.632 0 1 1 10.86 2.779z" fill="#CC2C76"/><path d="M162.05 231.708a6.34 6.34 0 1 1-11.925-4.307 6.34 6.34 0 0 1 11.925 4.307zm102.772 2.826a5.636 5.636 0 1 1-11.267-.313 5.636 5.636 0 0 1 11.267.313z" fill="#CC2C76"/><path d="M265.352 245.556a6.334 6.334 0 0 1-1.165 3.488 6.331 6.331 0 0 1-6.574 2.517 6.337 6.337 0 0 1-1.984-11.54 6.354 6.354 0 0 1 3.546-.979 6.367 6.367 0 0 1 4.438 1.976 6.348 6.348 0 0 1 1.739 4.538z" fill="#CC2C76"/><path d="M210.436 200.855s-28.845 1.158-39.955 27.448c0 0 3.625-31.532 39.955-27.448zm-.022 8.385s-8.879 21.526 19.422 37.945c0 0-17.681-12.477-19.422-37.945zm14.804.104s23.41 17.933 20.117 41.091c0 0-.819-15.994-20.117-41.091zm-67.627 27.452s21.444-5.756 29.165-11.651c0 0-8.462 10.821-29.165 11.651zm-9.995-7.497s-16.461 7.2-9.77 34.558c0 0-1.167-23.146 9.77-34.558zm-1.698 11.331s5.373 18.144-6.212 30.416c0-.012 15.183-4.008 6.212-30.416zm121.704 2.829s5.268 10.076 5.188 26.047c0-.016 3.227-16.967-5.188-26.047zm-1.752 10.149s5.018 19.094-7.301 34.169c.012 0 6.648-7.42 7.301-34.169z" fill="#D2B839"/><path d="M165.586 406.891c0-6.212 1.61-29.22 4.034-43.7.386-2.425 20.283 1.903 22.978 6.794-1.128 5.269-4.838 34.265-5.505 37.384-.448 2.1 7.57 19.303 12.971 32.177-1.282.56-12.74 4.968-15.322 5.552-11.683-21.619-19.16-33.575-19.156-38.207z" fill="#EACBA7"/><path d="M202.585 441.55c.111.281-18.627 10.099-18.84 9.801-1.848-2.586-5.369-9.319-6.388-10.847l20.684-9.462c1.27 3.192 3.744 8.485 4.544 10.508z" fill="#FBF7C4"/><path d="M180.166 449.387c-.3-1.07-.486-2.545-.725-3.861-.178-.965 7.613-5.497 8.779-3.613.268.43.514.875.733 1.331a96.487 96.487 0 0 0 4.227-2.629 85.362 85.362 0 0 0 7.86-5.705c1.93 2.915 4.814 8.262 6.949 11.523 0 0-30.528 27.216-38.964 25.48-2.374-.468 2.494-11.933 11.141-22.526z" fill="#CC2D76"/><path d="M206.703 444.368c.447.741.884 1.451 1.289 2.073 0 0-30.528 27.216-38.963 25.479-.336-.066-.525-.355-.583-.83 10.739-3.66 30.571-20.125 38.257-26.722z" fill="#9B2A52"/><path d="M184.179 450.893a.564.564 0 0 0 .729-.313.562.562 0 0 0-.313-.73c-2.405-.965-5.292-.486-7.03 1.158a.567.567 0 0 0 .378.949.57.57 0 0 0 .394-.13c1.425-1.367 3.83-1.741 5.842-.934zm-1.727 2.644a.573.573 0 0 0 .46-.07.562.562 0 0 0 .113-.847.573.573 0 0 0-.271-.169 7.897 7.897 0 0 0-7.011 1.294.55.55 0 0 0-.145.166.552.552 0 0 0 .045.626.576.576 0 0 0 .161.142.538.538 0 0 0 .419.053.54.54 0 0 0 .192-.095 6.676 6.676 0 0 1 6.037-1.1zm-8.755 4.03a.547.547 0 0 0 .173.137.543.543 0 0 0 .432.032.56.56 0 0 0 .19-.111c1.421-1.266 4.008-1.752 6.235-1.232a.555.555 0 0 0 .644-.325.57.57 0 0 0-.109-.61.566.566 0 0 0-.28-.161c-2.556-.599-5.524 0-7.227 1.479a.566.566 0 0 0-.194.383.577.577 0 0 0 .136.408z" fill="#D4D9E4"/><path d="M248.991 386.377c2.448 3.57 7.879 8.187 10.897 12.268-12.542 9.238-20.896 14.376-27.215 17.967-5.513 3.134-13.802 2.759-16.77-2.907-2.124-4.046-11.844-24.422-18.7-37.976-5.378-10.627 15.306-13.276 26.664-10.056 2.47 8.995 6.995 31.158 7.848 31.235 1.262.116 4.389-1.896 17.276-10.531z" fill="#EACBA7"/><path d="M253.361 381.505c.293-.205 12.26 14.669 11.967 14.986-2.653 2.664-8.59 7.335-10.161 8.837l-12.82-15.89c3.362-2.301 8.879-6.482 11.014-7.933z" fill="#FCF7B7"/><path d="M264.417 401.989c-.965.555-2.351 1.087-3.559 1.636-.896.41-7.184-6.049-5.64-7.636.352-.365.725-.71 1.115-1.034a123.085 123.085 0 0 0-3.578-3.475 85.19 85.19 0 0 0-7.466-6.238c2.358-2.595 6.848-6.679 9.492-9.54 0 0 33.818 23.005 34.2 31.606.108 2.436-12.199.498-24.564-5.319z" fill="#CC2D76"/><path d="M253.086 377.47a69.951 69.951 0 0 0 1.695-1.756s33.818 23.005 34.2 31.605c0 .344-.22.595-.664.773-6.169-9.532-26.958-24.769-35.231-30.622z" fill="#9B2A52"/><path d="M264.892 397.734a.564.564 0 0 0-.699-.618.559.559 0 0 0-.413.468c-.351 2.566.815 5.253 2.83 6.539a.57.57 0 0 0 .772-.174.573.573 0 0 0-.173-.772c-1.664-1.053-2.61-3.293-2.317-5.443zm2.984 1.031a.57.57 0 0 0-.178-.429.566.566 0 0 0-.945.386 7.87 7.87 0 0 0 2.957 6.486.562.562 0 0 0 .889-.284.534.534 0 0 0 .016-.214.537.537 0 0 0-.206-.367 6.688 6.688 0 0 1-2.533-5.578zm6.038 7.512a.558.558 0 0 0-.139-.772c-1.571-1.07-2.672-3.475-2.702-5.745a.564.564 0 0 0-.182-.385.55.55 0 0 0-.178-.115.566.566 0 0 0-.763.535c.041 2.625 1.343 5.363 3.188 6.652a.562.562 0 0 0 .776-.17z" fill="#D4D9E4"/><path d="M124.125 289.981c-1.158-1.328 10.739-8.311 11.866-7.245 14.717 13.897 21.086 17.534 44.218 25.362-3.088 4.633-5.791 11.93-8.914 16.519-21.985-11.404-34.362-20.047-47.17-34.636z" fill="#EACBA7"/><path d="M150.982 320.417c6.844 2.545 19.024 7.451 26.282 9.57 3.729-7.767 8.334-25.344 8.439-25.8-10.056.155-22.777-4.099-26.409-5.481-2.297 4.976-6.123 14.905-8.312 21.711z" fill="#4374B8"/><path d="M277.048 300.235c1.394-1.089-9.025-10.146-10.33-9.304-17.024 10.963-23.934 13.35-48.132 16.781 2.181 5.112 3.501 12.794 5.718 17.882 23.699-7.161 37.469-13.376 52.744-25.359z" fill="#EACBA7"/><path d="M246.327 326.239c-7.18 1.332-19.888 4.312-27.408 5.154-2.34-8.293-4.22-24.707-4.247-25.166 9.443-.097 23.224-2.742 27.023-3.475 1.425 5.3 3.656 16.418 4.632 23.487z" fill="#4374B8"/><path d="M226.245 358.964c-15.075 5.636-44.508 9.739-61.331 1.053 1.47-20.75 2.702-35.832 8.45-54.293 12.381-1.583 38.883.116 49.843 2.768-.363 17.16 1.096 28.22 3.038 50.472z" fill="#4374B8"/><path d="M182.425 305.778c.026-.745.168-1.48.421-2.181 8.018-.309 20.989.664 29.876 2.05.079.348.13.702.155 1.058-.19 6.307-7.161 11.214-15.574 10.959-8.411-.254-15.071-5.593-14.878-11.886z" fill="#ECC0A0"/><path d="M158.652 396.572c1.602-14.036 7.061-55.142 8.053-61.381 3.436-2.286 5.343-6.895 7.161-16.025 10.787.498 29.799.796 43.137 2.402 2.254 11.064 5.296 18.321 9.833 18.576 3.115 24.795 7.573 57.578 7.573 57.578-30.717 9.13-68.554 2.39-75.757-1.15z" fill="#CC2C76"/><path d="M212.031 329.4l4.679.502 1.575-24.486-4.718.069-1.536 23.915zm-39.277-2.999l5.486.98 1.869-24.105-4.521-.436-2.834 23.561z" fill="#CC2C76"/><path d="M287.016 294.969c1.275.386 8.879-.22 11.138.243 1.451.294 1.47 2.683-1.023 3.328-3.412.884-15.627 2.818-20.171 3.32-6.767.104-12.353-5.822-12.211-12.25.193-9.65.657-14.001.988-19.919.081-1.455 3.089-.869 4.633 2.173 1.128 2.223.367 6.011 1.031 7.667.795 1.984 2.208 1.679 3.926.544 4.945-5.79 8.265-10.037 10.361-12.056 1.626-1.579 4.328.321 3.532 1.869-1.331 2.59-4.817 8.307-7.55 13.078 4.945-3.022 12.156-7.06 14.774-8.334 2.405-1.158 4.632 1.857 2.296 3.567-2.825 2.081-8.326 6.848-13.106 10.292 4.586-.672 11.921-2.559 14.755-2.899 2.953-.351 2.799 2.424.73 3.42-7.736 3.726-12.639 5.316-14.103 5.957zM116.798 284.75c-1.321.127-8.652-1.93-10.976-1.903-1.482 0-1.957 2.351.363 3.475 3.181 1.543 14.794 5.771 19.159 7.138 6.621 1.405 13.227-3.34 14.338-9.652 1.664-9.492 2.05-13.87 2.865-19.738.201-1.448-2.861-1.448-4.965 1.243-1.544 1.961-1.513 5.825-2.482 7.335-1.158 1.795-2.494 1.227-3.961-.216-3.737-6.629-6.177-11.428-7.844-13.828-1.293-1.861-4.312-.518-3.83 1.158.807 2.799 3.131 9.079 4.896 14.283-4.274-3.957-10.567-9.308-12.883-11.064-2.131-1.613-4.884.934-2.938 3.057 2.374 2.587 6.852 8.324 10.883 12.624-4.37-1.544-11.196-4.806-13.921-5.682-2.83-.916-3.216 1.837-1.378 3.216 6.856 5.149 11.365 7.651 12.674 8.554z" fill="#EACBA7"/><path d="M175.561 339.002s-2.957-8.737 2.22-8.448c4.768.267 8.493 3.733 8.844 7.96.552-1.621 1.931-2.759 3.522-2.67 1.899.104 3.319 1.883 3.316 4.014.304-4.683 4.69-8.238 9.843-7.948 5.154.289 1.27 8.639 1.27 8.639s2.962 8.737-2.219 8.447c-5.077-.282-8.98-4.189-8.879-8.783-.178 2.181-1.834 3.861-3.772 3.749-1.622-.092-2.869-1.417-3.212-3.123-.884 4.095-4.933 7.065-9.651 6.802-5.196-.29-1.282-8.639-1.282-8.639z" fill="#E8B5B4"/></g><defs><clipPath id="a"><path fill="#fff" d="M0 0h627v589H0z"/></clipPath></defs></svg>