<svg width="1218" height="352" viewBox="0 0 1218 352" fill="none" xmlns="http://www.w3.org/2000/svg"><path d="M0 273h251s-10.77-74.954-64.623-26.702c0 0 1.873-54.342-38.399-57.153-40.273-3.279-44.019 50.126-44.019 50.126S93.657 214.91 70.243 218.19c-23.415 3.279-22.946 37.008-22.946 37.008s-6.088-9.837-20.605-5.153C3.746 257.072 0 273 0 273zM1218 89h-208s8.79-61.969 53.9-22.215c0 0-1.46-44.723 31.64-47.646 33.11-2.923 36.62 41.215 36.62 41.215s8.5-20.17 28.13-17.538c19.63 2.63 19.04 30.692 19.04 30.692s4.98-8.185 16.99-4.385C1215.36 75.846 1218 89 1218 89z" fill="#fff"/><path d="M44.43 17.99L46.912 12l3.215 6.43 6.136.438-5.26 3.799 1.608 6.136-5.553-3.36-6.283 3.068 2.484-6.429L38 19.16l6.43-1.17z" fill="#E9B833"/><path d="M24.922 67.798l7.16 3.799-1.9 3.653L22 69.55l2.922-1.753z" fill="#F0B3C5"/><path d="M90.383 0l7.16 3.945-2.046 3.653-8.183-5.699L90.383 0zM78.694 45.588l-6.722 4.384-2.484-3.361 8.913-4.53.293 3.507z" fill="#78BAC9"/><path d="M1156.43 326.137l2.48-6.137 3.22 6.575 6.13.292-5.26 3.799 1.76 6.137-5.7-3.36-6.28 3.214 2.48-6.575-5.26-2.922 6.43-1.023z" fill="#E9B833"/><path d="M1131.09 323.58l-1.31-4.822 3.65 3.653 3.8-3.069-1.61 4.384 4.82.73-4.09 1.315 2.05 4.091-3.66-1.753-1.75 3.215-1.02-3.507-4.09 2.045 2.63-3.36-3.51-1.9 4.09-1.022z" fill="#fff"/><path d="M1185.59 306.046l7.75-2.046 1.17 4.091-9.94 1.315 1.02-3.36z" fill="#78BAC9"/><path d="M1200.79 346.958l-6.72 4.53-2.34-3.507 8.91-4.53.15 3.507z" fill="#F0B3C5"/></svg>