<svg width="290" height="340" viewBox="0 0 290 340" fill="none" xmlns="http://www.w3.org/2000/svg"><path opacity=".06" d="M98.283 329.855c0 4.802 29.67 8.685 66.267 8.685 36.597 0 66.271-3.896 66.271-8.685 0-4.789-29.67-8.685-66.271-8.685s-66.267 3.883-66.267 8.685z" fill="#040706"/><path d="M228.97 84.774c1.473-.988 8.063 10.967 6.656 12.06-20.266 15.726-45.5 34.987-53.92 38.643l-11.148-16.312c14.207-8.791 37.767-20.552 58.412-34.39z" fill="#EACBA7"/><path d="M250.06 80.926c8.097-2.377 15.017-3.028 17.025-.132-4.183 1.884-22.63 9.04-34.003 12.695-1.384.445-4.288-6.625-2.776-8.292 1.14-4.818 9.889-7.008 16.912-15.404 2.012-2.4 2.648.104 2.474 1.55-.318 2.578-2.834 4.54-4.923 8.707-1.477 2.938 3.015 1.55 5.291.876z" fill="#D3B08C"/><path d="M268.94 86.945c-4.926 1.28-12.276 3.229-26.207 7.214-4.125 1.163-5.733-5.133-4.125-5.633 8.319-2.581 27.332-8.163 30.332-1.581z" fill="#D3B08C"/><path d="M267.914 90.903c-4.857 1.52-18.036 2.256-31.735 5.9-6.904 1.837-16.637-10.365-5.815-15.118 5.772-2.546 14.126 2.256 17.87 5.233 8.4-.279 18.037.206 19.68 3.985zm-87.131 228.338c.586 2.09 12.695-.042 12.688-2.229-.121-28.37 0-95.241-.179-102.334l-28.165 3.147s12.803 91.249 15.656 101.416z" fill="#EACBA7"/><path d="M176.291 316.209c.05.551 18.672.485 18.789-.17.969-5.477 2.209-18.091 2.632-20.514h-22.615c.407 5.757.861 17.184 1.194 20.684z" fill="#AFCDED"/><path d="M203.417 310.496c-.329-1.202-1.011-2.714-1.55-4.113-.388-1.031-10.493-.868-10.52 1.616-.011.568.013 1.137.069 1.702-1.728 0-3.605 0-5.581-.074a95.97 95.97 0 0 1-10.854-.938c-.175 3.923.167 10.718 0 15.083 0 0 45.066 8.435 52.171 1.899 2-1.841-9.311-10.028-23.735-15.175z" fill="#4374B8"/><path d="M175.038 321.036c0 .969 0 1.904-.039 2.737 0 0 45.066 8.435 52.171 1.899.279-.259.295-.647.074-1.132-12.424 2.698-41-1.616-52.206-3.504z" fill="#3C5B6C"/><path d="M206.576 311.768a.64.64 0 0 0 .752-.481.635.635 0 0 0-.481-.752c-2.617-.57-5.667.644-7.419 2.962a.626.626 0 0 0-.047.704.622.622 0 0 0 .385.297.63.63 0 0 0 .67-.226c1.465-1.954 3.988-2.989 6.14-2.504zm3.465 1.593a.605.605 0 0 0 .469-.127.604.604 0 0 0 .229-.427.634.634 0 0 0-.554-.698 8.828 8.828 0 0 0-7.482 2.822.63.63 0 0 0 .052.865.632.632 0 0 0 .867-.001 7.503 7.503 0 0 1 6.419-2.434zm3.803.504c-2.485-.434-5.683.713-7.792 2.771a.64.64 0 0 0-.145.679.63.63 0 0 0 1.029.221c1.834-1.791 4.597-2.818 6.695-2.431a.625.625 0 0 0 .642-.28.622.622 0 0 0 .086-.231.622.622 0 0 0-.285-.642.613.613 0 0 0-.23-.087z" fill="#D4D9E4"/><path d="M151.564 321.276c-.264 2.151-12.56 1.88-12.881-.287-4.171-28.06-14.381-94.144-15.296-101.171l28.32-1.163s1.14 92.14-.143 102.621z" fill="#EACBA7"/><path d="M193.035 188.644s7.431 38.317 11.908 56.924c-7.113 3.74-27.979 9.691-38.701 6.248-.519-2.182-2.523-23.773-8.202-22.657-2.024.388-1.237 18.556-1.655 22.673-9.835 2.38-26.681 3.454-36.271-1.326.202-9.082-1.004-50.698-.116-61.846l73.037-.016z" fill="#2B465F"/><path d="M154.556 316.237c-.027.55-18.629 1.329-18.776.682-1.218-5.427-3.028-17.889-3.559-20.289l22.584-1.197c-.144 5.767-.082 17.292-.249 20.804z" fill="#AFCDED"/><path d="M127.207 311.763c.271-1.217.883-2.767 1.345-4.182.345-1.051 10.443-1.341 10.582 1.136.033.568.033 1.137 0 1.705 1.729-.062 3.597-.167 5.574-.329a95.45 95.45 0 0 0 10.811-1.431c.357 3.915.322 10.718.679 15.067 0 0-44.636 10.466-52.028 4.264-2.074-1.744 8.857-10.435 23.037-16.23z" fill="#4374B8"/><path d="M156.041 321c.042.966.097 1.9.163 2.714 0 0-44.636 10.466-52.028 4.264-.295-.248-.326-.632-.128-1.128 12.544 2.151 40.883-3.458 51.993-5.85z" fill="#3C5B6C"/><path d="M130.359 315.38a.623.623 0 0 0 .535.229.657.657 0 0 0 .353-.144.621.621 0 0 0 .225-.427.617.617 0 0 0-.144-.461c-1.853-2.24-4.954-3.31-7.543-2.624a.629.629 0 0 0-.418.284.623.623 0 0 0-.076.501.625.625 0 0 0 .315.395.62.62 0 0 0 .505.037c2.128-.577 4.694.338 6.248 2.21zm-3.101 1.682a.636.636 0 0 0 .71.158.628.628 0 0 0 .324-.863.633.633 0 0 0-.158-.202 8.834 8.834 0 0 0-7.597-2.477.64.64 0 0 0-.515.478.642.642 0 0 0 .243.662.616.616 0 0 0 .473.104 7.485 7.485 0 0 1 6.505 2.14h.015zm-10.78-.713a.63.63 0 0 0 .274.4.62.62 0 0 0 .478.081c2.078-.485 4.884.414 6.799 2.124a.631.631 0 0 0 .841-.942c-2.201-1.962-5.446-2.958-7.911-2.415a.62.62 0 0 0-.406.272.621.621 0 0 0-.09.48h.015z" fill="#D4D9E4"/><path d="M176.484 183.299c4.675 4.128 10.854 9.88 17.684 16.342-.155.171-.271.365-.434.527a12.064 12.064 0 1 1-17.25-16.869z" fill="#172229"/><path opacity=".23" d="M196.856 203.479c-4.505-4.31-10.125-9.132-13.517-12.792-5.729-.666-53.172.458-61.87-.635-.64 2.93-1.027 13.26-1.225 24.889 22.739 6.346 52.365-.845 76.612-11.462z" fill="#040706"/><path d="M59.187 99.737c-1.644-.67-5.683 12.37-4.086 13.156 23.025 11.311 51.629 25.084 60.614 26.96l7.625-18.219c-15.692-5.748-41.136-12.512-64.153-21.897z" fill="#EACBA7"/><path d="M95.341 140.376c4.175 2.055 28.844 10.974 35.383 12.246 3.454-13.641 8.075-30.236 7.156-31.309-13.311-2.21-24.983-6.47-34.476-8.714-2.644 8.675-6.958 19.819-8.063 27.777z" fill="#4374B8"/><path d="M38.277 101.094c-8.408-.694-15.316.066-16.7 3.306 4.478 1 23.991 4.264 35.868 5.57 1.446.155 2.86-7.365 1.043-8.683-2.09-4.488-11.098-4.868-19.676-11.671-2.45-1.938-2.57.64-2.105 2.016.83 2.461 3.69 3.876 6.59 7.531 2.027 2.594-2.656 2.124-5.02 1.931z" fill="#D3B08C"/><path d="M21 110.796c5.086.264 12.675.686 27.134 1.776 4.264.325 4.578-6.203 2.904-6.346-8.676-.849-28.425-2.481-30.038 4.57z" fill="#D3B08C"/><path d="M22.79 114.471c5.066.507 18.121-1.435 32.274-.628 7.132.387 14.199-13.513 2.651-15.998-6.167-1.326-13.377 5.063-16.447 8.737-8.284 1.435-17.622 3.853-18.478 7.889z" fill="#EACBA7"/><path d="M206.936 130.019c-3.675 2.853-26.038 16.567-32.174 19.134-6.14-12.66-14.013-27.968-13.33-29.22 12.59-4.849 23.161-11.377 32.006-15.505 4.322 7.973 10.807 18.021 13.498 25.591z" fill="#4374B8"/><path d="M199.457 199.052c-31.89 16.203-51.372 17.017-82.282 10.133 0 0 1.768-60.168-2.434-84.892 19.839-5.814 43.693-5.55 63.684-5.996 7.113 25.777 11.419 44.093 14.02 63.533.217 1.628-1.225 6.423 2 8.089 2.121 1.109 1.845 7.28 5.012 9.133z" fill="#4374B8"/><path d="M164.761 121.363a9.581 9.581 0 0 0-.527-2.779c-9.915-.039-24.762.686-35.274 2.198-.097.411-.163.83-.198 1.252.136 7.458 8.311 13.354 18.254 13.179 9.942-.174 17.885-6.392 17.745-13.85z" fill="#CC2C76"/><path d="M158.019 98.427l4.369 21.471c.938 4.613-4.443 9.609-12.017 11.152-7.574 1.543-14.486-.95-15.424-5.566l-4.368-21.467 27.44-5.59z" fill="#EACBA7"/><path opacity=".19" d="M159.623 109.122a7.769 7.769 0 0 0-.124-2.287c-7.958-1.105-19.955-2.132-28.568-2.054-.122.32-.221.649-.295.984-.694 6.001 5.229 11.629 13.234 12.548 8.005.918 15.056-3.179 15.753-9.191z" fill="#532115"/><path d="M157.005 154.701l-.005-.005.005.005zm11.822-10.758a4.706 4.706 0 0 0-1.648-.977 5.733 5.733 0 0 0-2.504-.256 9.183 9.183 0 0 0-2.105.5c-.678.247-1.333.553-1.957.915a19.05 19.05 0 0 0-1.396.446 16.112 16.112 0 0 0-4.461 2.368c-.444.35-.855.739-1.229 1.163a5.858 5.858 0 0 0-.799-.837 4.591 4.591 0 0 0-1.48-.826 3.766 3.766 0 0 0-2.497.027 4.078 4.078 0 0 0-1.597 1.066 5.16 5.16 0 0 0-.953 1.477 8.44 8.44 0 0 0-2.179-1.19 15.397 15.397 0 0 0-4.551-.868 17.69 17.69 0 0 0-1.969 0 11.98 11.98 0 0 0-1.496-.217 8.744 8.744 0 0 0-3.652.387 5.62 5.62 0 0 0-.93.435c-.345.2-.665.44-.953.717a4.798 4.798 0 0 0-1.055 1.527 6.545 6.545 0 0 0-.477 2.973v.167a15.37 15.37 0 0 0 .946 4.105c.051.139.101.279.155.418a12.98 12.98 0 0 0 1.904 3.489 7.129 7.129 0 0 0 1.717 1.593 5.411 5.411 0 0 0 2.733.88c.751.026 1.5-.094 2.205-.353a6.848 6.848 0 0 0 1.163-.546c.508-.31.988-.609 1.45-.872 1.163-.659 2.209-1.217 3.163-1.772.687-.386 1.346-.82 1.973-1.298a7.26 7.26 0 0 0 1.217-1.198c.058-.074.109-.159.167-.237.097.093.19.194.294.283.438.366.94.646 1.481.826.566.19 1.169.244 1.76.159.251-.038.497-.1.736-.186a4.068 4.068 0 0 0 1.594-1.066c.1-.105.182-.221.271-.333.497.4 1.051.724 1.643.961.919.349 1.868.615 2.834.795 1.023.209 2.136.387 3.353.651.519.104 1.066.24 1.647.387.46.103.929.156 1.4.159a5.84 5.84 0 0 0 2.012-.329 5.387 5.387 0 0 0 1.55-.88 6.42 6.42 0 0 0 1.857-2.605c.509-1.345.786-2.768.818-4.206.101-2.26-.105-4.008-.605-5.427a5.923 5.923 0 0 0-1.55-2.395zm-31.298 16.172a2.771 2.771 0 0 1-.891.17 2.008 2.008 0 0 1-.725-.116 3.096 3.096 0 0 1-1.322-.961 9.365 9.365 0 0 1-1.597-2.869c-.047-.128-.093-.248-.136-.387a13.057 13.057 0 0 1-.74-2.958 5.073 5.073 0 0 1 .023-1.376c.05-.379.209-.736.458-1.027.163-.173.357-.312.573-.411a3.013 3.013 0 0 0-.174.605c-.078.486-.087.98-.027 1.469.125 1.001.369 1.983.728 2.926.043.117.086.233.132.353a9.447 9.447 0 0 0 1.617 2.896c.398.484.917.854 1.504 1.073.284.097.583.145.884.14.226-.005.451-.035.67-.089l-.388.236a3.222 3.222 0 0 1-.589.326zm29.406-4.718a2.83 2.83 0 0 1-.624.741 2.183 2.183 0 0 1-.628.356 2.609 2.609 0 0 1-.919.144 3.398 3.398 0 0 1-.717-.082c-.543-.124-1.116-.267-1.721-.387-2.26-.458-4.066-.729-5.214-1.124a3.756 3.756 0 0 1-1.228-.621 1.784 1.784 0 0 1-.497-.666c.079.087.163.169.252.244.402.314.86.55 1.349.694 1.186.387 2.884.651 5.005 1.081.558.117 1.093.248 1.612.388.265.059.535.09.806.093.359.005.715-.051 1.055-.167h.023c.282-.099.544-.246.775-.434a3.26 3.26 0 0 0 .725-.853 6.734 6.734 0 0 0 .795-2.469 7.308 7.308 0 0 1-.849 3.062z" fill="#B0CEEE"/><path d="M176.339 49.272c.45 6.938 1.992 13.59 1.775 19.587a10.126 10.126 0 0 0 6.671-9.722 10.71 10.71 0 0 0-.492-3.129 10.206 10.206 0 0 0-3.543-5.039c-.888-.674-3.345-1.368-4.411-1.697zM93.041 66.676a13.133 13.133 0 0 0 5.466 17.219 11.942 11.942 0 0 0 6.721 1.418c3.059-9.078-2.872-17.83-5.64-25.382-1.298 1.078-5.783 5.21-6.547 6.745z" fill="#EACBA7"/><path d="M102.921 74.483c.845 1.938.415 3.989-.961 4.59-1.376.6-3.182-.473-4.027-2.408-.845-1.934-.415-3.988.965-4.59 1.38-.6 3.178.478 4.023 2.408zm78.556-15.366c-.078 2.109-1.357 3.776-2.861 3.718-1.504-.059-2.659-1.807-2.582-3.916.078-2.108 1.361-3.771 2.861-3.717 1.5.054 2.667 1.806 2.582 3.915z" fill="#D3B08C"/><path d="M172.413 51.535c-2.589-1.938-14.73-14.423-14.73-14.423-2.461.093-12.086 1.302-13.419-.877-.625 1.361-1.702 4.493-2.578 5.578-1.496 1.853-2.686 2.237-4.396 3.4-3.423 2.326-6.171 5.09-7.152 5.407l-.287.086-2.663.775-.228-3.644a30.272 30.272 0 0 1-5.105 4.822 47.658 47.658 0 0 1-9.032 5.33l-2.799 1.19-1.097-11.373-.26.291c-1.527 1.768-3.349 4.12-5.12 6.516a308.371 308.371 0 0 0-7.098 10.079c3.877 10.884 8.916 22.242 14.067 31.347a31.48 31.48 0 0 0 31.247 15.626l11.207-1.377a27.213 27.213 0 0 0 4.868-1.089 26.57 26.57 0 0 0 16.924-16.063c3.249-8.772 5.544-21.068 4.757-37.72a25.786 25.786 0 0 1-7.106-3.88z" fill="#EACBA7"/><path d="M172.124 22.827a21.805 21.805 0 0 0-7.384-10.656 28.375 28.375 0 0 0-10.21-4.996 27.308 27.308 0 0 0-5.966-.938 13.63 13.63 0 0 0-2.357.1c-4.485.683-12.927 2.183-20.986 3.656a3501.935 3501.935 0 0 0-18.765 3.489l-1.206.228h-.101c-4.17 1.338-7.136 3.442-9.303 5.935a21.057 21.057 0 0 0-4.264 8.415c-1.585 5.958-.945 12.071-.469 14.882a123.044 123.044 0 0 0 4.102 16.203c.147.457.298.922.45 1.376l.522 1.608.962-1.391c1.802-2.609 4.361-6.233 6.822-9.44 1.492-1.937 2.942-3.72 4.198-5.065.725-.776.973-1.745 1.411-1.892l1.252 11.45c.388-.213 4.927-1.752 5.373-2.011 2.271-1.33 5.093-3.268 7.283-5.625a14.16 14.16 0 0 0 3.225-5.14 8.923 8.923 0 0 0 .435-2.407l.577 8.509 3.574-1.276a25.2 25.2 0 0 0 1.861-.915c2.3-1.2 4.344-2.837 6.02-4.818a12.249 12.249 0 0 0 2.473-4.996 1.988 1.988 0 0 1 1.345-1.466 2.045 2.045 0 0 1 2.43.988 46.776 46.776 0 0 0 4.035 6.277c1.756 2.279 3.877 4.438 6.125 5.721.575.326 1.18.598 1.806.81l1.33.458-2.473-14.855a1.465 1.465 0 0 1 .217-1.015c.205-.302 3.834 6.411 6.032 9.45 2.197 3.04 4.515 7.21 7.779 9.672 1.287.969 3.706 1.132 5.102 1.783l1.705-1.66-.116-1.437a187.267 187.267 0 0 0-4.342-27.135l-.818.187.818-.187a21.54 21.54 0 0 0-.504-1.876z" fill="#3C3C3E"/><path d="M121.998 47.702l-.005.005.005-.005z" fill="#6D6D6D"/><path d="M148.718 89.376a9.157 9.157 0 0 1-4.047 2.512c-2.237.717-4.749.713-6.679.492a21.783 21.783 0 0 1-2.349-.388c-.283-.066-.5-.12-.644-.159l-.155-.042h-.031a2.161 2.161 0 0 0-1.279 4.128c1.299.373 2.629.633 3.973.775a20.71 20.71 0 0 0 8.47-.666 13.471 13.471 0 0 0 5.915-3.698 2.152 2.152 0 0 0 .571-1.552 2.152 2.152 0 0 0-.693-1.501 2.157 2.157 0 0 0-3.052.122v-.023z" fill="#CE394D"/><path d="M128.45 82.906c.268 1.303-1.632 2.791-4.237 3.322-2.605.531-4.934-.089-5.198-1.395-.263-1.306 1.628-2.787 4.237-3.322 2.609-.535 4.935.089 5.198 1.395zm35.412-5.031c.073 1.236-1.869 2.36-4.338 2.507-2.469.148-4.535-.728-4.609-1.965-.074-1.236 1.868-2.357 4.338-2.508 2.469-.15 4.531.733 4.609 1.966z" fill="#DF9E94"/><path d="M124.018 70.281c.904 3.489-.36 6.826-2.825 7.466-2.466.64-5.191-1.667-6.098-5.152-.907-3.485.364-6.822 2.826-7.462 2.461-.64 5.194 1.663 6.097 5.148z" fill="#3C3C3E"/><path d="M121.3 67.416a2.57 2.57 0 1 1-4.973 1.294 2.57 2.57 0 0 1 4.973-1.294z" fill="#fff"/><path d="M163.092 65.564c.357 3.581-1.403 6.69-3.934 6.942-2.531.252-4.88-2.442-5.237-6.02-.357-3.578 1.403-6.69 3.934-6.946 2.532-.256 4.877 2.446 5.237 6.024z" fill="#3C3C3E"/><path d="M160.857 62.315a2.572 2.572 0 0 1-4.182 2.249 2.571 2.571 0 0 1 1.368-4.547 2.569 2.569 0 0 1 2.814 2.298z" fill="#fff"/><path d="M92.506 68.587l3.396-3.314c1.225-1.81 3.989-5.846 6.884-9.768 1.814-2.454 3.683-4.865 5.218-6.59l1.066 11.032 2.713-1.163a45.985 45.985 0 0 0 8.761-5.167 29.577 29.577 0 0 0 4.954-4.679l.22 3.535 2.582-.736.283-.086a30.278 30.278 0 0 0 7.443-3.647 22.11 22.11 0 0 0 4.81-4.35 16.878 16.878 0 0 0 2.21-3.562 43.213 43.213 0 0 0 5.097 6.819 22.511 22.511 0 0 0 5.194 4.264 12.22 12.22 0 0 0 6.559 1.752l2.45-.093-1.586-9.532c.69.93 1.431 1.88 2.225 2.826a41.587 41.587 0 0 0 6.613 6.4 25.157 25.157 0 0 0 6.9 3.76 26.644 26.644 0 0 0 2.76-16.15c-.775-5.426-1.876-11.24-3.306-17.415a29.174 29.174 0 0 0-.597-2.194 25.807 25.807 0 0 0-6.175-10.32c-3.954-4.034-8.811-6.45-13.242-7.794a33.651 33.651 0 0 0-6.221-1.268 20.125 20.125 0 0 0-4.857 0c-5.385.818-15.967 2.713-25.243 4.427-9.276 1.713-17.215 3.233-17.215 3.233l-.12.023-.116.039-.074.023c-4.888 1.55-8.566 4.109-11.187 7.171a24.15 24.15 0 0 0-4.31 7.439 34.608 34.608 0 0 0-1.966 11.264 44.96 44.96 0 0 0 .597 8.106 129.267 129.267 0 0 0 4.342 17.18c.454 1.422.93 2.864 1.43 4.314l1.508 4.221zm-3.008-26.433c-.48-2.81-1.12-9.016.47-14.95a20.753 20.753 0 0 1 4.224-8.323c2.113-2.454 5.009-4.52 9.168-5.853l1.244-.237c3.101-.585 11.021-2.073 19.316-3.589 8.295-1.516 16.99-3.062 21.587-3.76a12.75 12.75 0 0 1 2.264-.093c2.012.09 4.007.403 5.95.934a28.349 28.349 0 0 1 10.199 5.004 21.561 21.561 0 0 1 7.314 10.556c.191.597.362 1.217.512 1.86a191.328 191.328 0 0 1 4.45 27.817 22.498 22.498 0 0 1-3.993-2.435c-3.264-2.453-6.136-5.783-8.361-8.869a63.237 63.237 0 0 1-4.578-7.365 2.347 2.347 0 0 0-4.093-.114 2.35 2.35 0 0 0-.303 1.595l2.307 13.862a9.9 9.9 0 0 1-1.714-.776c-2.159-1.224-4.283-3.38-6.043-5.667a47.392 47.392 0 0 1-4.082-6.345 2.95 2.95 0 0 0-3.511-1.411 2.908 2.908 0 0 0-1.974 2.147c-.41 1.76-1.223 3.4-2.376 4.791a19.722 19.722 0 0 1-5.934 4.745c-.663.357-1.287.66-1.857.911l-.485-7.753-4.31.272a8.177 8.177 0 0 1-.388 3.027 13.723 13.723 0 0 1-3.143 4.966c-2.163 2.325-5.012 4.29-7.303 5.632-.45.264-.869.496-1.268.713l-1.163-11.854-2.543.807a4.743 4.743 0 0 0-1.345.717c-.781.6-1.506 1.27-2.167 2-1.325 1.419-2.829 3.272-4.376 5.283-2.547 3.322-5.186 7.06-7.047 9.753-.155-.477-.314-.953-.461-1.422a125.915 125.915 0 0 1-4.187-16.575z" fill="#3C3C3E"/><path d="M108.712 20.765s-16.203 7.125-11.079 27.1c0 .011-10.62-22.782 11.079-27.1zm4.066 32.697s10.113-5.62 17.893-20.785c.019 0-3.469 15.9-17.893 20.785zm26.828-23.615s2.466 15.048 19.126 20.068c-.011 0-9.028-3.787-19.126-20.068zm2.087-19.571s30.646-.702 33.611 34.36c0 .015-6.357-30.608-33.611-34.36z" fill="#3C5B6C"/><path d="M129.585 14.152s15.149-1.787 26.215 10.567c0-.016-11.586-8.319-26.215-10.567z" fill="#3C5B6C"/></svg>