<svg width="276" height="322" viewBox="0 0 276 322" fill="none" xmlns="http://www.w3.org/2000/svg"><path d="M136.183 247.799s-8.684 35.264 20.91 49.795c24.455 12.05 52.985 7.088 52.985 7.088s-1.063 16.835.355 12.937c1.417-3.899-1.063-24.987-1.063-24.987s-44.834-5.493-41.822-41.112l-31.365-3.721z" fill="#E7B880"/><path d="M203.522 291.746l-2.126 15.594 3.367.355s.886 11.696 6.202 13.999l4.607-27.644-12.05-2.304z" fill="#84AE9F"/><path d="M202.812 308.404h-.354c-.178-.177-.355-.532-.178-.709l2.659-4.076c.177-.177.531-.354.708-.177.178.177.355.532.178.709l-2.659 4.076s-.177.177-.354.177zm1.419 1.418c-.177 0-.354-.001-.354-.178-.177-.177-.177-.531 0-.709l3.899-3.721c.177-.177.531-.177.708 0 .178.177.178.532 0 .709l-3.898 3.721c-.177 0-.177.178-.355.178zm1.063 2.303c-.177 0-.354-.177-.531-.354-.177-.355 0-.532.177-.709l3.721-1.949c.355-.178.532 0 .709.177.177.354 0 .531-.177.709l-3.721 1.949c0 .177 0 .177-.178.177z" fill="#2E252E"/><path d="M171.979 220.331s12.936 17.544 38.099 27.822c25.164 10.278 60.074 5.671 60.074 5.671s-1.95 16.657-.177 12.936c1.594-3.721 5.139-20.911 5.139-20.911s-59.188-21.442-71.061-37.036l-32.074 11.518z" fill="#E7B880"/><path d="M202.814 196.231s21.087 25.164 28.707 28.353c0 0-15.239 24.81-23.745 30.303 0 0-17.898-.532-32.252-19.138 0 0 3.898 16.657 8.683 36.859 0 0-29.062 5.848-46.783 10.987 0 0-12.759-35.442-9.038-48.733 0 0 47.669-18.784 74.428-38.631z" fill="#E9B833"/><path d="M102.69 152.992s9.215 69.466 22.329 100.832c0 0 61.136-2.658 91.971-48.024 0 0-23.746-31.188-52.986-84.351-.177.178-20.024 7.975-61.314 31.543z" fill="#D18888"/><path d="M237.722 136.158s3.721 10.455 5.139 10.278c1.418-.178-.354-9.392-.354-9.392s9.392 12.05 10.987 10.455c1.594-1.595-4.431-10.81-4.431-10.81s12.05 8.861 12.05 6.557c0-2.127-8.86-10.455-8.86-10.455s9.924 5.139 10.633 1.949c.708-3.19-12.582-6.025-12.582-6.025s7.265.709 7.265-2.127c0-2.835-13.113-1.417-13.113-1.417s-29.239-37.037-82.225-2.658l12.759 27.29c0 .177 42.53-28.531 62.732-13.645z" fill="#E7B880"/><path d="M264.127 240.533l-2.835 15.594 3.367.532s.354 11.696 5.493 14.177L276 243.368l-11.873-2.835z" fill="#84AE9F"/><path d="M262.532 257.191c-.177 0-.177 0-.355-.178-.177-.177-.354-.531-.177-.708l2.835-3.899c.178-.177.532-.354.709-.177.178.177.355.531.178.709l-2.836 3.898c0 .177-.177.355-.354.355zm1.417 1.417c-.177 0-.354 0-.354-.177-.177-.177-.177-.532 0-.709l4.076-3.367c.177-.177.531-.177.708 0 .178.178.178.532 0 .709l-4.075 3.367s-.178.177-.355.177zm1.064 2.481c-.177 0-.354-.177-.531-.354-.178-.355 0-.532.354-.709l3.899-1.772c.354-.177.531 0 .708.354.178.355 0 .532-.354.709l-3.899 1.772c0-.177-.177 0-.177 0z" fill="#2E252E"/><path d="M25.073 157.245s-1.772-10.987-3.19-11.164c-1.417 0-1.417 9.215-1.417 9.215s-6.911-13.645-8.86-12.405c-1.95 1.241 2.48 11.342 2.48 11.342s-10.1-10.987-10.632-8.683c-.354 2.126 6.734 11.873 6.734 11.873s-8.86-6.912-10.1-3.899c-1.241 3.013 11.163 8.152 11.163 8.152s-7.088-2.127-7.442.708c-.532 2.836 12.581 3.899 12.581 3.899s21.797 41.821 80.276 18.075l-7.443-29.239c0 .354-47.137 20.556-64.15 2.126z" fill="#E7B880"/><path d="M19.756 161.321c-.177 0-.354 0-.354-.177s-1.95-2.481.531-6.025c.178-.177.532-.355.71-.177.176.177.354.531.177.708-1.95 3.013-.71 4.785-.71 4.785.178.177.178.532 0 .709 0 .177-.177.177-.354.177z" fill="#2E252E"/><path d="M150.005 127.652s31.366-16.658 42.353-18.076c0 0 10.987 25.518 11.518 34.556 0 0-24.809 15.771-31.188 19.67 0 0-22.86-27.113-22.683-36.15zm-21.443 57.415s-32.429 8.152-43.416 7.088c0 0-5.139-27.29-3.72-36.327 0 0 30.302-9.747 37.39-12.05-.177 0 11.873 32.429 9.746 41.289z" fill="#D18888"/><path d="M124.665 229.369s53.162-6.911 65.035-47.669l21.974 24.809s-32.252 39.872-85.237 39.872l-1.772-17.012z" fill="#B85B63"/><path d="M142.579 38.87s-18.43-19.847-6.734-30.48c11.695-10.455 15.417 2.482 15.417 2.482s-8.683-12.76 6.379-10.633c15.063 1.95 10.101 11.696 10.101 11.696s-2.835-15.595 12.228-6.38c15.062 9.038 5.493 20.202 5.493 20.202s3.544-10.987 10.455 3.367c6.734 14.177-12.759 14.531-12.759 14.531s17.544-1.24 5.494 15.594c-12.05 16.835-18.43-3.544-18.43-3.544s14.708 6.734-5.139 13.468-18.607-14.177-18.607-14.177 1.241 20.025-13.29 5.848c-14.531-14.176-4.785-33.67 9.392-21.974zm-81 33.67s7.974 26.05-7.266 30.303-12.759-8.86-12.759-8.86 2.304 15.239-10.455 6.91c-12.582-8.329-4.076-14.885-4.076-14.885s-4.253 15.24-13.822.354c-9.57-14.708 3.898-20.556 3.898-20.556s-7.974 8.152-7.974-7.443c.177-15.771 17.898-7.62 17.898-7.62s-16.303-6.556 1.772-16.48 15.063 11.164 15.063 11.164-10.455-12.404 10.455-9.746c20.91 2.658 10.455 20.91 10.455 20.91s7.62-18.43 14.531.532c7.089 18.961-10.1 32.075-17.72 15.417z" fill="#F3D68A"/><path d="M82.135 42.592s0 5.316 13.29 18.43c10.987 10.81 41.467 14.53 49.619 7.974 4.075-3.19-10.101-55.82-62.91-26.404z" fill="#2E2427"/><path d="M182.434 153.878c-.177 0-.531-.177-.531-.354-4.253-13.468-17.544-24.986-17.721-25.164-.177-.177-.177-.531 0-.708.177-.178.531-.178.709 0 .177.177 13.822 12.05 18.075 25.695 0 0-.177.354-.532.531zm-50.68 2.481c-6.911 0-12.05-3.189-12.05-3.189-.177-.178-.355-.532-.177-.709.177-.177.531-.355.708-.177.178 0 9.924 6.202 20.911.886 10.987-5.494 11.164-18.43 11.164-18.607 0-.355.177-.532.532-.532.354 0 .531.177.531.532 0 .177-.177 13.822-11.695 19.67a23.892 23.892 0 0 1-9.924 2.126zm-23.215 29.771c-.177 0-.532-.177-.532-.531-3.721-22.683.355-35.088.355-35.265.177-.354.354-.354.709-.354.354.177.354.354.354.709 0 .177-3.899 12.227-.354 34.732.177.355-.001.709-.532.709.177 0 .177 0 0 0z" fill="#2E252E"/><path d="M55.457 85.925s-13.822-34.733 24.1-58.833c37.923-24.1 68.403-6.025 81.339 26.404 15.949 39.694-11.873 71.06-52.631 76.199-40.758 5.139-52.808-43.77-52.808-43.77z" fill="#F3D78A"/><path d="M146.816 60.49S117.222 22.745 77.35 49.68c-25.695 17.366-27.82 73.72 18.784 84.528 36.505 8.506 73.187-40.403 50.682-73.718z" fill="#E7B880"/><path d="M133.348 112.057l9.924 18.43 6.733-3.013s.709 20.734-16.657 22.683c-13.822 1.418-14.708-6.379-14.708-6.379l6.202-3.19-4.607-18.43 13.113-10.101z" fill="#E7B880"/><path d="M102.513 114.893c-6.556 0-10.455-6.557-10.632-6.734-.177-.177 0-.532.177-.709.177-.177.532 0 .71.177 0 0 4.075 6.911 10.632 6.202 1.24-.177 2.303-.708 3.012-1.594 2.658-3.367 1.772-10.456 1.772-10.633 0-.354.177-.532.532-.532.354 0 .531.178.531.532 0 .354.886 7.62-2.126 11.341-.886 1.241-2.304 1.95-3.721 2.127-.178-.177-.532-.177-.887-.177z" fill="#2E252E"/><path d="M118.108 95.931c0 5.317 4.253 9.747 9.57 9.747 5.316 0 9.746-4.253 9.746-9.57 0-5.316-4.253-9.746-9.569-9.746-5.316 0-9.747 4.253-9.747 9.57zm-47.846 14.177c0 5.316 4.253 9.746 9.569 9.746 5.316 0 9.746-4.253 9.746-9.569 0-5.316-4.253-9.746-9.569-9.746-5.316-.177-9.746 4.076-9.746 9.569z" fill="#DA9A7A"/><path d="M108.361 84.413c0 2.658 2.127 4.962 4.785 4.962 2.658 0 4.962-2.127 4.962-4.785 0-2.658-2.127-4.962-4.785-4.962-2.658-.177-4.962 1.95-4.962 4.785zm-33.137 8.86c0 2.658 2.126 4.962 4.784 4.962s4.962-2.126 4.962-4.784c0-2.659-2.126-4.962-4.785-4.962-2.658-.178-4.961 1.949-4.961 4.784z" fill="#2E2427"/><path d="M122.538 131.019s9.392-4.785 15.417-11.165l3.19 7.089-17.366 9.392-1.241-5.316z" fill="#CE7D67"/><path d="M143.98 94.337s3.367-21.974 15.063-11.519c14.531 12.759-.532 23.746-8.506 24.632-7.974.886-6.557-13.114-6.557-13.114z" fill="#E7B880"/><path d="M99.147 105.678h-.355l-9.038-5.494c-.177-.177-.354-.354-.177-.531 0-.177.177-.355.532-.355l7.797-.709-1.595-8.683c0-.354.177-.531.355-.709.354 0 .531.178.709.355l1.594 9.215c0 .177 0 .354-.177.354-.177.177-.177.177-.354.177l-6.734.709 7.62 4.608c.177.177.354.531.177.708 0 .355-.177.355-.355.355z" fill="#2E252E"/><path d="M133.525 59.426s12.405 11.342 15.418 31.544c.708 5.139 11.872-29.417 3.366-35.974-7.442-6.202-17.189-11.341-18.784 4.43z" fill="#F3D78A"/><path d="M83 36.974s0 5.316 13.29 18.43c10.987 10.81 41.467 14.53 49.619 7.974C149.807 60.188 135.808 7.38 83 36.974z" fill="#F3D68A"/><path d="M83.198 37.098s4.784 1.418 2.48 16.126C83.375 67.933 65.831 88.49 58.743 89.73 51.3 90.792 44.566 44.364 83.198 37.1z" fill="#F3D68A"/><path d="M149.119 100.539h-.177c-.354-.177-.354-.355-.354-.709 4.962-12.405 9.392-11.696 9.746-11.519.355 0 .532.355.355.71 0 .354-.355.53-.709.354-.177 0-3.899-.532-8.506 10.809a.381.381 0 0 1-.355.355zm77.972 127.767h-.178c-9.746-4.43-17.012-13.114-17.012-13.114-.177-.177-.177-.531 0-.708.178-.178.532-.178.709 0 0 0 7.089 8.506 16.658 12.936.354.177.354.531.354.709-.177 0-.354.177-.531.177z" fill="#2E252E"/><path d="M206.18 253.115c-.177 0-.178 0-.355-.177-.177-.178-.177-.532 0-.709.177-.177 11.519-12.936 20.734-27.467.177-.178.531-.355.708-.178.178.178.355.532.178.709-9.392 14.531-20.734 27.467-20.911 27.645 0 .177-.177.177-.354.177zm-68.048 24.455c-.354 0-.531-.178-.531-.532 0-.354.177-.532.531-.532.177 0 24.455-3.367 41.29-9.569.354-.177.531 0 .709.355.177.354 0 .531-.355.708-17.012 6.38-41.289 9.57-41.644 9.57z" fill="#2E252E"/><path d="M143.095 282.531c-.177 0-.354 0-.531-.177-3.722-5.67-7.975-28.53-8.152-29.594 0-.354.177-.531.355-.708.354 0 .531.177.708.354 0 .177 4.431 23.746 8.152 29.239.177.178.177.532-.177.709 0 .177-.178.177-.355.177z" fill="#2E252E"/><path d="M134.689 59.565c-.163.329-.655.496-.985.333-23.464-9.747-35.04-24.892-35.123-25.138-.248-.327-.25-.738.078-.986.327-.248.738-.25.986.078.165.08 11.492 14.898 34.545 24.647.413.409.661.736.499 1.066zm15.599-11.251l-.093.188c-.35.295-.773.32-1.009-.03-11.625-14.63-23.806-19.01-32.096-20.066-8.878-1.111-15.132 1.179-15.225 1.367-.257.106-.751-.138-.823-.407-.072-.27.207-.834.464-.94.258-.107 26.047-9.585 48.731 19.161.165.082.144.539.051.727zM48.503 76.038c-.137.122-.397.106-.656.09-.381-.154-.624-.43-.47-.81.339-1.28 7.384-31.043 27.039-37.378.397-.105.778.048.883.445.106.397-.048.778-.445.884-18.86 6.124-25.922 36.145-26.075 36.526l-.276.243zm19.778 2.134c-.138.122-.275.244-.535.228-.259-.016-.624-.43-.608-.689.08-1.296 2.441-31.087 10.702-38.386.275-.244.794-.212 1.037.064.243.275.211.794-.064 1.037-7.847 6.934-10.103 37.122-10.257 37.503-.121-.138-.137.122-.275.243z" fill="#D3B667"/></svg>