<svg width="415" height="421" viewBox="0 0 415 421" fill="none" xmlns="http://www.w3.org/2000/svg"><path opacity=".67" d="M415 420.875V292s-109.933 26.112-162 129l162-.125z" fill="#D3F1FF"/><path d="M283.223 276.618c3.113 3.253 15.562-12.379 11.813-14.642-3.749-2.264-14.501 11.883-11.813 14.642zm-6.72-32.821c2.476 2.617 12.662-6.366 9.62-9.549-3.041-3.183-12.378 6.649-9.62 9.549zm23.907 1.061c3.961 4.173 14.854-10.893 11.954-13.935-2.9-3.041-14.925 10.823-11.954 13.935zm25.323-23.484c4.244 4.456 15.137-11.035 12.449-13.935-2.758-2.9-16.764 9.337-12.449 13.935zm2.761 25.181c2.83 2.901 12.449-8.063 9.479-11.176-2.971-3.112-13.086 7.428-9.479 11.176zm-18.535 20.796c3.325 3.466 12.237-6.719 9.691-9.337-2.546-2.617-13.298 5.518-9.691 9.337z" fill="#AAD6E9"/><path d="M281 70H73s8.789-61.969 53.904-22.215c0 0-1.465-44.723 31.64-47.646 33.104-2.923 36.619 41.215 36.619 41.215s8.496-20.17 28.124-17.538c19.628 2.63 19.043 30.692 19.043 30.692s4.98-8.185 16.991-4.385C278.363 56.846 281 70 281 70z" fill="#fff"/><path d="M29.43 244.137L31.912 238l3.215 6.575 6.136.292-5.26 3.799 1.754 6.137-5.699-3.36-6.283 3.214 2.484-6.575L23 245.16l6.43-1.023z" fill="#E9B833"/><path d="M4.091 241.58l-1.315-4.822 3.653 3.653 3.8-3.069-1.608 4.384 4.822.73-4.092 1.315 2.046 4.091-3.653-1.753-1.753 3.215-1.023-3.507-4.091 2.045 2.63-3.36-3.507-1.9 4.091-1.022z" fill="#fff"/><path d="M58.593 224.046L66.337 222l1.17 4.091-9.937 1.315 1.023-3.36z" fill="#F0B3C5"/><path d="M73.79 264.958l-6.722 4.53-2.337-3.507 8.913-4.53.146 3.507z" fill="#78BAC9"/></svg>