<svg width="978" height="643" viewBox="0 0 978 643" fill="none" xmlns="http://www.w3.org/2000/svg"><path d="M922.016 193.639l14.482 5.384.185 19.867 8.913-7.427 5.57 10.583L977.345 176l-55.329 17.639z" fill="#E2B656"/><path d="M936.499 199.58c-.185 0-.371-.186-.557-.371-.186-.186 0-.557.186-.743l39.919-22.095c.185-.185.557 0 .742.186.186.186 0 .557-.185.743l-39.919 22.094c0 .186 0 .186-.186.186zm.186 19.867h-.186c-.371-.186-.371-.557-.186-.743l6.87-14.111c.186-.371.557-.371.743-.186.371.186.371.557.185.743l-6.869 14.111c-.186 0-.372.186-.557.186z" fill="#2E2427"/><path d="M943.554 205.15c-.186 0-.372 0-.372-.186-.185-.185-.185-.557 0-.742l32.864-27.851c.185-.185.557-.185.742 0 .186.186.186.557 0 .743l-32.863 27.85c-.186.186-.371.186-.371.186z" fill="#2E2427"/><path d="M945.596 212.02c-.186 0-.557-.186-.557-.371l-2.042-6.685c-.186-.371 0-.557.371-.742.371 0 .557 0 .743.371l2.042 6.684c.186.372 0 .557-.557.743.186 0 0 0 0 0z" fill="#2E2427"/><path d="M179.329 17.824l-14.482 5.199V42.89l-9.098-7.427-5.57 10.769L124 0l55.329 17.824z" fill="#E27365"/><path d="M164.848 23.58h-.186L124.743 1.485c-.186-.185-.371-.557-.186-.742.186-.186.557-.372.743-.186l39.919 22.095c.186.185.371.557.186.742-.186.186-.372.186-.557.186zm-.001 19.867c-.185 0-.371-.186-.557-.372l-6.869-14.11c-.186-.372 0-.558.185-.743.372-.186.557 0 .743.185l6.87 14.111c.185.372 0 .557-.186.743l-.186.186z" fill="#2E2427"/><path d="M157.978 29.336c-.186 0-.186 0-.372-.186L124.743 1.3c-.186-.186-.186-.557 0-.743.185-.186.557-.186.742 0l32.864 27.85c.186.186.186.557 0 .743-.186 0-.186.186-.371.186z" fill="#2E2427"/><path d="M155.748 36.02c-.557-.186-.557-.372-.557-.743l2.043-6.684c.185-.371.371-.557.742-.371.372.185.557.371.372.742l-2.043 6.684c0 .186-.185.372-.557.372z" fill="#2E2427"/><path d="M468.922 462.664l-13.241 9.275 3.29 19.74-10.165-4.833-3.504 12.056-33.761-38.079 57.381 1.841z" fill="#50C6B3"/><path d="M411.787 461.496c-.158-.09-.37-.443-.267-.617.207-.347.468-.431.729-.515l43.754 10.96c.316.18.37.443.424.707-.206.347-.468.431-.729.514l-43.911-11.049zm47.826 31.245l-.157-.089-9.292-12.152c-.21-.349-.108-.521.098-.864.361-.254.518-.165.831.012l9.292 12.153c.21.349.108.52-.097.863-.259.083-.519.166-.675.077z" fill="#2E2427"/><path d="M411.793 460.95c-.319-.184-.374-.454-.165-.81.209-.356.474-.442.793-.258l38.29 19.221c.32.184.375.454.166.81-.21.356-.474.442-.793.257l-38.291-19.22z" fill="#2E2427"/><path d="M449.251 487.506c-.151-.085-.203-.336-.255-.586l.796-7.061c.047-.416.297-.496.546-.575.401.006.453.256.505.506l-.796 7.062c-.047.415-.297.495-.546.574-.099.165-.099.165-.25.08z" fill="#2E2427"/><path d="M899.841 262.642c-1.486 0-3.157 0-4.642-.186-.371 0-.557-.371-.557-.557 0-.371.371-.557.557-.557 1.485.186 2.971.186 4.456.186l.186 1.114s.185 0 0 0zm4.641-.186c-.371 0-.557-.185-.557-.557 0-.371.186-.557.557-.557 1.486 0 2.971-.185 4.456-.371.372 0 .557.186.557.557 0 .371-.185.557-.557.557-1.299.186-2.97.186-4.456.371zm-13.739-.557c-1.671-.185-3.157-.557-4.642-.742-.371 0-.557-.372-.371-.743 0-.371.371-.557.742-.371 1.486.371 2.971.557 4.457.742.371 0 .557.372.557.557-.186.372-.372.557-.743.557zm22.837-.557c-.185 0-.557-.185-.557-.557 0-.371.186-.557.557-.742 1.486-.186 2.971-.557 4.456-.929.372 0 .557.186.743.372 0 .371-.186.557-.371.742-1.671.557-3.157.929-4.828 1.114zm-31.749-1.299c-1.671-.372-3.157-.929-4.456-1.486-.372-.185-.372-.371-.372-.742.186-.372.372-.372.743-.372 1.485.557 2.785 1.114 4.27 1.486.372 0 .557.371.372.742 0 .186-.186.372-.557.372zm40.661-.929c-.185 0-.557-.185-.557-.371-.185-.371 0-.557.372-.743 1.485-.371 2.97-.928 4.27-1.485.371-.186.557 0 .743.371.185.372 0 .557-.372.743-1.299.557-2.785 1.114-4.456 1.485 0 0 .186 0 0 0zm-49.016-2.413h-.186c-1.3-.743-2.785-1.486-4.085-2.228-.185-.186-.371-.557-.185-.743.185-.186.557-.371.742-.186 1.3.743 2.6 1.486 3.899 2.043.372.185.372.557.186.742 0 .372-.186.372-.371.372zm57.371-.929c-.185 0-.371-.185-.557-.371-.185-.371 0-.557.186-.743l3.899-2.228c.186-.185.557 0 .743.186.185.186 0 .557-.186.743-1.299.742-2.599 1.485-4.085 2.228.186.185.186.185 0 .185zm-65.355-3.527c-.186 0-.186 0-.371-.186-1.3-.928-2.414-1.857-3.714-2.785-.186-.186-.371-.557 0-.743.186-.186.557-.371.743 0 1.114.929 2.413 1.857 3.528 2.785.185.186.371.557.185.743 0 0-.186.186-.371.186zm73.154-1.3c-.186 0-.372 0-.372-.186-.185-.185-.185-.557.186-.742 1.3-.929 2.414-1.857 3.528-2.785.185-.186.557-.186.742 0 .186.185.186.556 0 .742-1.114 1.114-2.413 2.043-3.527 2.971h-.557zm-80.21-4.642c-.185 0-.371 0-.371-.186-1.114-1.114-2.228-2.228-3.156-3.342-.186-.185-.186-.557 0-.742.185-.186.557-.186.742 0 1.114 1.114 2.043 2.228 3.157 3.156.185.186.185.557 0 .743 0 .371-.186.371-.372.371zm87.079-1.485c-.185 0-.371 0-.371-.186-.186-.186-.186-.557 0-.743a27.243 27.243 0 0 0 2.971-3.527c.185-.186.557-.372.742-.186.186.186.372.557.186.743a27.163 27.163 0 0 1-2.971 3.527c-.185.372-.371.372-.557.372zm-93.206-5.199c-.185 0-.371 0-.371-.186-.928-1.114-1.857-2.413-2.785-3.713-.186-.186-.186-.557.186-.743.185-.185.557-.185.742.186.929 1.3 1.857 2.414 2.785 3.528.186.185.186.557 0 .742-.371.186-.557.186-.557.186zm98.776-2.042h-.371c-.186-.186-.371-.557-.186-.743l2.228-3.899c.186-.371.557-.371.743-.186.371.186.371.557.186.743-.743 1.3-1.486 2.785-2.228 4.085h-.372zm-104.16-5.385c-.186 0-.371 0-.557-.185-.743-1.3-1.671-2.6-2.414-3.899-.185-.186 0-.557.186-.743.186-.186.557 0 .743.186.742 1.299 1.671 2.599 2.413 3.899.186.185.186.557-.185.742h-.186zm108.431-2.599h-.186c-.371-.186-.371-.371-.371-.743.928-2.228 1.299-3.899 1.485-4.27 0-.372.371-.557.743-.372.371 0 .557.372.371.743-.186.372-.557 2.043-1.485 4.456-.186 0-.372.186-.557.186zm-113.073-5.199c-.186 0-.371-.185-.557-.371a41.811 41.811 0 0 1-2.042-4.085c-.186-.371 0-.557.185-.743.372-.185.557 0 .743.186.743 1.3 1.3 2.785 2.043 4.085.185.371 0 .557-.186.742 0 .186-.186.186-.186.186zm-4.085-8.355c-.185 0-.371-.186-.557-.371-.557-1.486-1.299-2.785-1.856-4.271-.186-.371 0-.557.371-.742.371-.186.557 0 .743.371a42.615 42.615 0 0 0 1.856 4.27c.186.372 0 .557-.371.743h-.186zm-3.342-8.355c-.185 0-.371-.186-.557-.371-.557-1.486-1.114-2.971-1.485-4.271-.186-.371 0-.557.371-.743.372-.185.557 0 .743.372.557 1.485.928 2.785 1.485 4.27.186.372 0 .557-.371.743h-.186zm-2.97-8.727c-.186 0-.557-.185-.557-.371-.372-1.485-.929-2.971-1.3-4.456 0-.371 0-.557.371-.743.372 0 .557 0 .743.372.371 1.485.928 2.97 1.3 4.456 0 .371 0 .557-.557.742 0 0 .185 0 0 0zm-2.6-8.726c-.185 0-.557-.186-.557-.371l-1.114-4.456c0-.372.186-.557.372-.743.371 0 .557.186.742.371l1.114 4.456c.186.186 0 .557-.557.743.186 0 .186 0 0 0zm-2.228-8.912c-.185 0-.557-.186-.557-.371-.371-1.486-.742-2.971-.928-4.457 0-.371.186-.557.371-.742.372 0 .557.185.743.371.371 1.485.743 2.971.928 4.456.186.372 0 .557-.557.743.186 0 .186 0 0 0zm-1.856-9.098c-.186 0-.557-.186-.557-.371-.372-1.486-.557-2.971-.929-4.456 0-.372.186-.557.372-.743.371 0 .557.186.742.371.372 1.486.557 2.971.929 4.456 0 .372-.186.743-.557.743zm-1.857-8.912c-.186 0-.557-.186-.557-.371-.371-1.671-.743-3.157-.928-4.456 0-.372.185-.557.371-.743.371 0 .557.186.743.371.371 1.3.557 2.785.928 4.456 0 .372-.186.743-.557.743zm-25.251-2.785c-.371 0-.557-.186-.557-.557 0-.371.186-.557.557-.557 1.114-.186 2.228-.928 3.156-2.228.186-.186.557-.371.743-.186.186.186.371.557.186.743-1.3 2.042-2.971 2.599-4.085 2.785zm-4.085-1.857c-.186 0-.371 0-.371-.185-1.114-1.3-1.671-2.971-1.671-4.457h1.114c0 1.3.557 2.786 1.485 3.714.186.186.186.557 0 .743-.185.185-.371.185-.557.185zm27.108-4.27c-.186 0-.371-.186-.557-.372 0-.185-.186-.371-.186-.557-.557-1.299-1.299-2.228-2.042-3.342-.186-.185-.186-.557 0-.742.186-.186.557-.186.742 0 .929 1.114 1.672 2.228 2.229 3.527 0 .186.185.372.185.557.186.372 0 .557-.371.743v.186zm-17.639-.557c-.371-.186-.557-.372-.557-.743.372-1.3.743-2.785.929-4.456 0-.371.371-.557.557-.557.371 0 .557.371.557.557-.186 1.671-.557 3.156-.929 4.642 0 .371-.185.557-.557.557zm-9.283-3.528c-.186 0-.186 0-.371-.186-.186-.185-.186-.557 0-.742.928-1.114 2.228-2.228 3.713-2.971.186-.186.557 0 .743.186.185.185 0 .557-.186.742a12.156 12.156 0 0 0-3.342 2.785c-.186.186-.372.186-.557.186zm20.98-2.785h-.371c-1.3-.743-2.599-1.3-4.085-1.671-.371 0-.557-.371-.371-.743 0-.371.371-.557.743-.371 1.485.371 2.97 1.114 4.27 1.857.186.185.371.557.186.742.185 0 0 .186-.372.186zm-13.182-1.671c-.186 0-.557-.186-.557-.371 0-.372.186-.557.371-.743a49.049 49.049 0 0 1 2.414-.557v-4.456c0-.371.186-.557.557-.557.371 0 .557.186.557.557v4.456h1.114c.371 0 .557.186.557.557 0 .371-.186.557-.557.557-1.3-.186-2.785 0-4.456.557 0 0 .186 0 0 0zm2.599-10.212c-.371 0-.557-.185-.557-.557 0-1.485-.185-2.971-.371-4.456 0-.371.186-.557.557-.557.371 0 .557.186.557.557.186 1.671.371 3.157.371 4.642 0 0-.185.371-.557.371zm-.928-9.098c-.371 0-.557-.185-.557-.557l-.557-4.456c0-.371.186-.557.557-.742.371 0 .557.185.557.557.186 1.485.371 3.156.557 4.456.186.371 0 .742-.557.742.186 0 .186 0 0 0zm-1.3-9.097c-.185 0-.557-.186-.557-.557-.185-.557-.185-1.3-.371-1.857-.186-.928-.371-1.857-.557-2.599 0-.372.186-.557.371-.743.372 0 .557.186.743.371.186.929.371 1.857.557 2.6.186.557.186 1.299.371 1.856.186.557-.185.929-.557.929 0 0 .186 0 0 0zm-1.856-8.913c-.186 0-.557-.185-.557-.371-.372-1.485-.743-2.971-1.3-4.456-.186-.371 0-.557.371-.743.372-.185.557 0 .743.372.371 1.485.928 2.97 1.3 4.456.185.371 0 .742-.557.742 0 0 .185 0 0 0zm-2.785-8.726c-.186 0-.372-.186-.557-.371-.557-1.486-1.114-2.785-1.671-4.085-.186-.371-.001-.557.371-.743.371-.185.557 0 .743.372.557 1.3 1.299 2.785 1.856 4.27.186.371 0 .557-.371.743-.186-.186-.186-.186-.371-.186zm-3.714-8.355c-.186 0-.371-.186-.557-.371-.743-1.3-1.485-2.6-2.414-3.9-.185-.185-.185-.556.186-.742.186-.186.557-.186.743.186.742 1.3 1.671 2.599 2.414 3.899.185.185-.001.557-.186.742 0 .186-.186.186-.186.186zm-5.013-7.612c-.186 0-.371 0-.371-.186-.929-1.114-1.857-2.414-2.971-3.528-.186-.186-.186-.557 0-.743.186-.185.557-.185.743 0a27.116 27.116 0 0 1 2.97 3.528c.186.186.186.557-.185.743 0 .186-.186.186-.186.186zm-6.127-6.685c-.186 0-.186 0-.371-.185-1.114-.929-2.228-2.043-3.528-2.971-.186-.186-.371-.557-.186-.743.186-.185.557-.371.743-.185 1.3.928 2.414 2.042 3.528 2.97.185.186.185.557 0 .743 0 .371-.186.371-.186.371zm-7.241-5.57h-.371c-1.3-.742-2.6-1.67-3.899-2.228-.186-.185-.372-.557-.186-.742.186-.372.557-.372.743-.186 1.299.743 2.785 1.485 3.899 2.414.185.185.371.557.185.742 0-.185-.185 0-.371 0zm-8.17-4.456h-.185c-1.3-.557-2.785-1.114-4.271-1.67-.371-.187-.371-.372-.371-.743.186-.372.371-.372.743-.372 1.485.557 2.97 1.114 4.27 1.671.371.186.371.557.371.743 0 .371-.185.371-.557.371zm-8.54-2.97s-.186 0 0 0a174.881 174.881 0 0 1-4.642-1.115c-.371 0-.557-.37-.371-.742 0-.371.371-.557.742-.371 1.486.37 2.971.742 4.456 1.114.372 0 .557.37.372.742 0 .186-.372.372-.557.372zm-8.912-1.857s-.186 0 0 0a327.055 327.055 0 0 1-4.642-.557c-.372 0-.557-.371-.557-.557 0-.372.185-.557.557-.557 1.485.185 3.156.185 4.642.557.371 0 .557.371.557.557 0 .371-.372.557-.557.557zm-13.74-.371c-.371 0-.557-.186-.557-.557 0-.372.186-.558.557-.558 0 0 1.671-.185 4.642-.185.371 0 .557.185.557.557 0 .371-.186.557-.557.557-2.971 0-4.642.186-4.642.186zM455.464 504.369c-.161-.093-.389-.44-.202-.761s.441-.388.855-.362c1.377.587 2.848 1.013 4.319 1.438.321.187.388.441.455.695-.187.321-.441.388-.695.455-1.724-.359-3.101-.945-4.732-1.465.16.094.16.094 0 0zm8.89 2.81c-.16-.093-.388-.44-.294-.601.186-.321.44-.388.694-.455l4.412 1.278c.321.187.481.28.455.694-.187.321-.28.482-.694.456-1.631-.52-3.102-.946-4.573-1.372zm8.757 2.302c-.161-.093-.228-.347-.295-.601.026-.414.28-.481.695-.455 1.564.265 3.034.691 4.438.864.414.026.481.28.455.694-.026.414-.28.482-.695.455-1.31-.332-2.874-.598-4.598-.957 0 0 .16.094 0 0zm9.063 1.407c-.161-.094-.228-.348-.295-.602.026-.414.28-.481.695-.455 1.403.172 3.06.277 4.464.45.414.026.481.28.548.534-.026.414-.28.481-.533.548-1.497-.012-3.061-.277-4.465-.449-.254.067-.414-.026-.414-.026zm9.115.577c-.16-.093-.227-.347-.294-.601-.068-.254.28-.481.534-.549l4.49.035c.254-.067.482.281.549.534.067.254-.28.482-.534.549-1.497-.012-3.087.137-4.584.125l-.161-.093zm9.168-.251c-.16-.093-.321-.187-.388-.441-.067-.253.12-.574.534-.548 1.59-.149 2.927-.231 4.517-.38.254-.067.575.12.549.534.067.254-.12.575-.534.549-1.43.242-3.02.391-4.611.54.094-.161.094-.161-.067-.254zm9.06-1.173c-.16-.093-.321-.187-.227-.347-.068-.254.119-.575.373-.642 1.43-.242 2.953-.645 4.383-.887.254-.067.575.119.642.373.067.254-.12.575-.374.642-1.523.403-2.953.645-4.476 1.048l-.321-.187zm8.952-2.095c-.16-.094-.321-.187-.227-.348-.067-.253.119-.574.373-.641 1.523-.403 2.886-.899 4.248-1.395.254-.067.575.119.642.373.068.254-.119.575-.373.642-1.363.496-2.886.899-4.409 1.302-.093.16-.254.067-.254.067zm8.59-2.95c-.16-.094-.16-.094-.227-.348-.067-.253-.041-.668.213-.735a26.562 26.562 0 0 0 4.114-1.902c.254-.068.668-.041.735.213.067.253.041.668-.213.735-1.456.656-2.912 1.313-4.274 1.809-.027.414-.187.321-.348.228zm8.229-3.805l-.321-.187c-.067-.254-.041-.668.213-.735l3.886-2.25c.254-.067.668-.041.736.213.067.254.04.668-.213.735-1.296.75-2.591 1.5-4.047 2.156.16.094-.094.161-.254.068zm7.866-4.66l-.16-.094c-.228-.347-.041-.668.213-.735 1.295-.75 2.524-1.754 3.659-2.597.347-.228.668-.041.828.053.228.347.041.668-.052.828-1.229 1.004-2.524 1.754-3.82 2.504-.253.067-.507.134-.668.041zm7.412-5.355l-.161-.093c-.228-.347-.134-.508.053-.829 1.228-1.004 2.363-1.847 3.591-2.851.348-.227.508-.134.829.053.228.347.134.508-.052.829-1.229 1.003-2.457 2.007-3.592 2.85-.254.067-.508.135-.668.041zm6.956-6.049c-.388-.44-.295-.601-.108-.922 1.068-1.097 2.296-2.101 3.364-3.198.187-.321.601-.294.829.053.321.187.294.601-.053.828-1.068 1.098-2.136 2.195-3.364 3.198-.094.161-.508.135-.668.041zm6.407-6.582c-.321-.187-.295-.602-.108-.923 1.068-1.097 1.976-2.287 3.044-3.384.186-.321.601-.295.828.052.321.187.295.601-.052.829-.908 1.19-1.976 2.288-3.044 3.385-.093.16-.347.227-.668.041zm5.926-6.863c-.321-.187-.294-.601-.108-.922l2.723-3.572c.186-.321.601-.295.761-.201.321.186.295.601.202.761a328.882 328.882 0 0 0-2.816 3.732c-.187.321-.441.388-.762.202zm5.378-7.397c-.321-.187-.295-.601-.202-.762.747-1.284 1.655-2.474 2.495-3.919.187-.321.441-.388.762-.201s.388.441.201.762c-.747 1.283-1.748 2.634-2.495 3.918-.093.161-.601.295-.761.202zm4.829-7.931c-.321-.187-.388-.441-.202-.762.747-1.284 1.494-2.567 2.174-4.105.187-.321.441-.388.762-.202.321.187.388.441.201.762-.747 1.284-1.333 2.661-2.174 4.106-.186.32-.44.388-.761.201zm4.093-8.144c-.321-.187-.388-.441-.201-.762l1.759-4.131c.187-.321.441-.388.762-.202.321.187.388.441.201.762a336.87 336.87 0 0 1-1.852 4.292c-.094.161-.348.228-.669.041zm3.452-8.517c-.16-.094-.388-.441-.295-.601.4-1.057.639-2.206 1.039-3.263 0 0-.16-.093-.254.068a19.647 19.647 0 0 1-4.412-1.278c-.321-.187-.388-.441-.201-.762s.441-.388.762-.201c1.377.586 2.847 1.012 4.251 1.184l.321.187.093-.161c.187-.32.441-.388.695-.455.321.187.388.441.455.695l-1.278 4.412c-.508.134-.855.361-1.176.175zm-8.027-7.248c-1.444-.84-2.635-1.748-3.825-2.655-.321-.187-.295-.601-.108-.922.186-.321.601-.295.922-.108 1.03.814 2.381 1.814 3.665 2.561.32.187.388.441.201.762-.28.481-.695.455-.855.362zm-7.117-5.859l-.16-.094c-1.165-1.321-1.915-2.617-2.411-3.979-.067-.254-.04-.669.213-.736.254-.067.669-.041.736.213.589 1.202 1.339 2.498 2.343 3.726.227.348.134.508-.053.829-.093.16-.347.228-.668.041zm20.031 9.506c-.16-.093-.32-.187-.388-.441-.067-.254.12-.574.534-.548 1.337-.082 2.766-.324 4.45-.633.254-.068.575.119.642.373.067.254-.12.575-.373.642-1.524.403-3.114.551-4.704.7l-.161-.093zm-2.585-5.156c-.16-.093-.227-.347-.295-.601.266-1.564.531-3.128.61-4.371.026-.414.28-.481.534-.549.415.027.482.281.549.534-.172 1.404-.277 3.061-.703 4.532-.027.414-.28.481-.695.455.161.094.161.094 0 0zm-20.583-12.619c-.16-.094-.227-.348-.294-.601a8.62 8.62 0 0 1 1.184-4.252l.187-.321c.187-.321.601-.294.761-.201.321.187.295.601.202.761l-.187.321c-.654 1.124-.986 2.434-1.065 3.677-.026.414-.28.481-.534.549-.093.16-.254.067-.254.067zm32.12 15.68c-.16-.094-.16-.094-.227-.347-.067-.254.12-.575.373-.642 1.27-.336 2.565-1.086 4.182-1.649.254-.067.668-.041.735.213.067.254.041.668-.213.735-1.71.724-3.073 1.22-4.275 1.809-.414-.026-.575-.119-.575-.119zm-10.959-12.176c-.161-.094-.321-.187-.228-.348-.149-1.59-.551-3.113-1.234-4.155-.067-.253-.041-.668.213-.735.254-.067.668-.041.735.213.59 1.202 1.153 2.819 1.208 4.569.067.254-.119.575-.534.549l-.16-.093zm-16.451-10.86c-.161-.094-.161-.094-.228-.348-.067-.253-.041-.668.213-.735 1.456-.656 2.979-1.059 4.636-.954.415.026.482.28.549.534.067.254-.28.481-.534.548-1.497-.011-2.927.231-4.129.82-.186.321-.347.228-.507.135zm35.706 19.485c-.161-.094-.161-.094-.228-.348-.067-.253-.041-.668.213-.735 1.363-.496 2.658-1.246 4.114-1.902.254-.068.669-.041.736.213.067.253.041.668-.213.735-1.456.656-2.912 1.313-4.114 1.902-.094.161-.348.228-.508.135zm-23.247-16.533c-1.258-1.161-2.448-2.068-3.572-2.722-.32-.187-.388-.441-.201-.762s.441-.388.762-.201a10.02 10.02 0 0 1 3.732 2.816c.321.187.294.601-.053.828-.093.161-.347.228-.668.041zm31.636 12.821c-.161-.093-.161-.093-.228-.347s-.041-.668.213-.736a27.238 27.238 0 0 1 4.342-1.555c.254-.067.575.12.642.374.067.253-.12.574-.374.642-1.362.496-2.725.992-4.181 1.648-.093.161-.254.067-.414-.026zm8.59-2.95c-.161-.094-.321-.187-.228-.347-.067-.254.12-.575.374-.642 1.523-.403 2.886-.899 4.409-1.302.254-.067.575.12.642.374.067.254-.12.575-.374.642l-4.315 1.141c-.094.16-.348.227-.508.134zm145.3 79.594l-.161-.093-2.503-3.82c-.228-.347-.041-.668.212-.735.348-.228.669-.041.736.213l2.503 3.819c.068.254.041.669-.213.736-.253.067-.414-.026-.574-.12zm-136.415-81.943c-.161-.094-.321-.187-.228-.347-.067-.254.12-.575.374-.642 1.429-.243 3.113-.552 4.543-.794.254-.067.575.12.548.534.067.254-.119.575-.534.548-1.429.243-3.02.391-4.543.794l-.16-.093zm131.247 74.211l-.161-.094c-.843-1.135-1.593-2.43-2.597-3.658-.227-.348-.04-.669.053-.829.347-.228.668-.041.829.052.91 1.389 1.914 2.618 2.757 3.753.228.347.041.668-.213.735-.347.228-.508.134-.668.041zm-5.355-7.411l-.16-.094c-.843-1.135-1.847-2.363-2.851-3.592-.227-.347-.134-.507.053-.828.347-.228.507-.135.828.052 1.004 1.229 2.008 2.457 2.758 3.753.227.347.134.507-.053.828-.254.067-.414-.026-.575-.119zm-116.832-67.973c-.161-.094-.321-.187-.388-.441s.119-.575.534-.549c1.59-.148 3.087-.137 4.517-.379.253-.067.574.12.548.534.067.254-.12.575-.534.549a26.52 26.52 0 0 0-4.517.379l-.16-.093zm111.131 60.789l-.161-.094c-.843-1.135-1.847-2.363-2.85-3.591-.228-.348-.135-.508.052-.829.347-.228.508-.134.829.052 1.004 1.229 2.007 2.457 2.851 3.592.227.348.134.508-.053.829-.093.16-.347.228-.668.041zm-102.03-61.294c-.161-.094-.228-.347-.295-.601-.067-.254.28-.482.534-.549 1.497.012 2.994.023 4.651.128.254-.067.481.281.549.534.067.254-.281.482-.534.549l-4.491-.035c-.254.067-.254.067-.414-.026zm96.328 54.11l-.16-.093c-1.004-1.229-1.941-2.203-2.944-3.432-.228-.347-.135-.507.052-.828.347-.228.601-.295.829.052 1.003 1.229 2.101 2.297 2.944 3.432.227.347.134.507-.053.828-.186.321-.507.134-.668.041zm-87.12-53.693c-.16-.094-.227-.347-.294-.601.026-.415.28-.482.534-.549 1.497.012 3.061.277 4.464.449.414.027.481.281.455.695-.026.414-.28.481-.694.455-1.564-.265-3.061-.277-4.465-.449 0 0 .161.093 0 0zm80.978 46.898c-1.164-1.322-2.261-2.39-3.198-3.365-.321-.186-.295-.601.052-.828.187-.321.602-.295.829.052 1.097 1.068 2.101 2.296 3.198 3.364.228.348.295.601-.052.829-.254.067-.508.134-.829-.052zm-6.236-6.636s-.16-.093 0 0c-1.257-1.161-2.354-2.229-3.452-3.297-.32-.187-.294-.601.053-.828.187-.321.601-.295.829.052l3.291 3.204c.321.187.295.601-.052.829-.094.16-.508.134-.669.04zm-65.652-39.27c-.161-.094-.228-.347-.295-.601.026-.415.28-.482.694-.456 1.564.266 3.128.531 4.438.864.321.187.482.28.456.695-.027.414-.28.481-.695.455-1.47-.426-3.034-.692-4.438-.864l-.16-.093zm59.07 32.863c-1.258-1.161-2.355-2.229-3.546-3.137-.321-.187-.294-.601.053-.829.187-.32.601-.294.828.053 1.098 1.068 2.288 1.975 3.385 3.043.321.187.295.601-.052.829-.094.16-.347.228-.668.041zm-50.127-30.882c-.161-.094-.388-.441-.295-.601.187-.321.441-.388.695-.455 1.47.426 2.941.852 4.318 1.438.321.187.388.441.455.694-.186.321-.44.389-.694.456-1.538-.68-3.008-1.106-4.479-1.532zm43.357 24.795s-.161-.093 0 0c-1.351-1.001-2.448-2.069-3.639-2.976-.321-.187-.294-.601-.108-.922.187-.321.601-.295.922-.108 1.191.908 2.288 1.975 3.479 2.883.321.187.294.601-.053.829-.026.414-.441.388-.601.294zm-7.21-5.698a320.167 320.167 0 0 1-3.732-2.816c-.321-.187-.295-.601-.201-.761.186-.321.601-.295.761-.202 1.191.908 2.381 1.815 3.732 2.816.321.187.295.601.201.761-.186.321-.44.389-.761.202zm-27.51-16.22c-.321-.187-.388-.441-.201-.762.186-.321.44-.388.761-.201 1.377.586 2.755 1.173 4.292 1.853.321.186.388.44.202.761-.187.321-.441.388-.762.202-1.377-.587-2.915-1.267-4.292-1.853zm20.113 10.842c-1.191-.907-2.635-1.748-3.919-2.494-.321-.187-.388-.441-.201-.762s.601-.295.761-.201c1.284.747 2.475 1.654 3.919 2.494.321.187.295.601.201.762-.186.321-.44.388-.761.201zm-11.876-6.909c-.321-.187-.388-.441-.201-.762.186-.321.44-.388.761-.201 1.284.747 2.661 1.333 4.106 2.174.321.186.388.44.201.761s-.44.388-.761.202c-1.445-.841-2.729-1.588-4.106-2.174zM187.197 289.953c-.881.292-3.631-3.297-3.689-3.474-.293-.294-.175-.529.119-.821.295-.293.529-.175.822.119 1.639 2.001 2.752 3.002 2.986 3.12.058.176.235.118.293.294-.118.235-.178.646-.531.762zm-5.676-7.119c-.176.058-.587-.002-.703-.355a314.57 314.57 0 0 1-1.985-4.232c-.117-.353.001-.587.354-.704.353-.116.587.002.704.354.465 1.411 1.108 2.763 1.75 4.115.527.412.409.647-.12.822.177-.059.177-.059 0 0zm-3.03-8.581c-.352.117-.645-.178-.703-.354-.29-1.469-.58-2.937-.751-4.64-.117-.353.178-.646.589-.586.352-.116.645.178.585.589.113 1.527.403 2.995.693 4.464.058.176-.236.469-.413.527zm-1.032-9.044s-.177.058 0 0c-.587-.002-.646-.178-.762-.531-.113-1.527-.05-3.112.247-4.579.06-.411.236-.469.589-.586.411.06.469.237.585.589-.063 1.585-.184 2.994-.07 4.521-.295.293-.413.527-.589.586zm.729-9.04l-.177.058c-.41-.06-.527-.413-.409-.647.298-1.467.537-3.111.834-4.578.119-.234.413-.527.647-.409.235.118.528.413.41.647l-.893 4.401c-.118.235-.236.469-.412.528zm1.903-9.037c-.176.058-.176.058-.411-.06-.234-.118-.527-.413-.409-.647.474-1.525.829-2.816 1.303-4.341.118-.235.413-.528.647-.41.235.118.527.413.409.647-.473 1.526-1.005 2.875-1.303 4.342.116.352-.06.41-.236.469zm2.841-8.565c-.176.058-.176.058-.411-.06-.234-.118-.351-.47-.233-.705.533-1.349 1.183-2.932 1.715-4.281.118-.235.47-.351.705-.233.234.118.351.47.233.705a27.005 27.005 0 0 0-1.714 4.281c.058.177-.118.235-.295.293zm3.663-8.445c-.176.058-.352.117-.411-.06-.234-.118-.351-.47-.233-.705.709-1.407 1.241-2.756 1.949-4.163.118-.235.471-.351.705-.233.235.118.351.47.233.705l-2.007 3.987c.117.353-.059.411-.236.469zm4.191-8.032c-.177.058-.353.116-.411-.06-.235-.118-.351-.471-.233-.705.766-1.231 1.475-2.639 2.241-3.869.118-.235.471-.351.706-.233.234.118.351.47.233.705-.709 1.407-1.475 2.638-2.242 3.869.058.176-.118.234-.294.293zm4.835-7.855c-.176.058-.352.116-.411-.06-.234-.118-.351-.471-.232-.705.766-1.231 1.709-2.52 2.417-3.927.118-.235.471-.351.706-.233.234.118.351.47.233.705-.943 1.289-1.71 2.52-2.477 3.751l-.236.469zm4.894-7.678c-.176.058-.352.116-.411-.06-.234-.118-.351-.471-.056-.764.766-1.231 1.709-2.52 2.652-3.809.118-.234.471-.351.764-.057.234.119.351.471.056.764-.943 1.289-1.709 2.52-2.652 3.809l-.353.117zm5.363-7.443c-.176.059-.352.117-.587-.001-.234-.118-.351-.471-.056-.764.942-1.289 1.767-2.343 2.71-3.633.118-.234.471-.351.764-.056.234.118.351.47.056.763-.943 1.289-1.944 2.402-2.71 3.633l-.177.058zm5.598-7.324c-.176.058-.353.117-.587-.001-.235-.118-.351-.471-.057-.764 1.001-1.113 1.944-2.402 2.945-3.515.118-.234.529-.174.764-.056.234.118.351.47.056.763-1.001 1.113-1.944 2.402-2.945 3.515l-.176.058zm5.656-7.148c-.177.059-.411-.059-.587-.001-.235-.118-.175-.529-.057-.764 1.001-1.113 1.944-2.402 2.945-3.515.118-.234.529-.174.763-.056.235.118.175.529.057.763-1.001 1.113-1.944 2.402-2.945 3.515l-.176.058zm5.948-6.853c-.176.058-.411-.06-.587-.002-.234-.118-.175-.529-.057-.763 1.002-1.113 1.944-2.402 2.946-3.515.118-.235.529-.175.763-.057.235.118.175.529.057.764-1.001 1.113-1.944 2.402-2.945 3.515l-.177.058zm5.891-7.03c-.177.058-.353.117-.588-.002-.234-.118-.351-.47-.056-.763.943-1.289 1.944-2.402 2.71-3.633.118-.234.471-.351.764-.057.234.118.351.471.057.764a71.11 71.11 0 0 1-2.887 3.691s.118-.235 0 0zm5.421-7.266c-.176.058-.353.117-.411-.06-.235-.118-.351-.47-.057-.763.943-1.289 1.71-2.52 2.653-3.809.118-.235.47-.351.763-.057.235.118.351.471.057.763-.767 1.231-1.71 2.52-2.653 3.81-.058-.177-.176.058-.352.116zm5.07-7.736c-.176.058-.352.116-.411-.06-.234-.118-.351-.471-.233-.705.767-1.231 1.652-2.697 2.418-3.928.118-.234.471-.351.705-.233.235.118.351.471.233.705-.766 1.231-1.475 2.639-2.418 3.928.059.176-.118.234-.294.293zm4.66-7.797c-.177.058-.353.117-.411-.06-.235-.118-.351-.47-.233-.705l2.007-3.987c.118-.235.47-.351.705-.233.234.118.351.471.233.705-.708 1.407-1.241 2.756-2.125 4.222l-.176.058zm3.897-8.327c-.176.058-.176.058-.411-.06-.234-.118-.351-.47-.233-.705.532-1.349 1.182-2.932 1.538-4.223.118-.235.413-.527.647-.409.235.118.528.412.409.647-.532 1.349-1.005 2.874-1.537 4.223-.06.411-.237.469-.413.527zm2.783-8.741l-.352.117c-.235-.118-.528-.413-.41-.647l.893-4.401c.06-.411.412-.528.647-.41.411.06.527.413.409.647-.121 1.409-.36 3.053-.834 4.578l-.353.116zm1.14-8.98c-.587-.001-.645-.178-.762-.53a20.76 20.76 0 0 0-.282-4.405c-.116-.352.178-.645.531-.761.352-.117.645.177.762.53.289 1.469.403 2.996.34 4.581-.118.234-.236.469-.589.585zm-1.385-8.928c-.353.116-.587-.002-.704-.354a18.329 18.329 0 0 0-1.926-4.057c-.117-.352.001-.587.119-.821.353-.117.587.001.822.119a19.87 19.87 0 0 1 1.985 4.233c.116.353.056.763-.296.88zm-4.559-7.88c-.176.058-.41-.06-.645-.178-.937-1.059-2.049-2.06-3.339-3.003-.234-.118-.351-.471-.056-.764.118-.234.47-.351.763-.056 1.289.942 2.402 1.944 3.397 3.179.293.295.175.529-.12.822zm-7.324-5.598c-.176.059-.352.117-.411-.06-1.23-.766-2.58-1.298-4.105-1.772-.234-.118-.527-.412-.233-.705.118-.235.413-.527.705-.233 1.526.474 2.933 1.182 4.164 1.949.234.118.351.47.233.705l-.353.116zm-19.682 4.938c-.353.117-.587-.002-.704-.354-.116-.353.002-.587.354-.704 1.411-.466 2.705-1.284 3.764-2.221.294-.293.529-.174.822.12.292.294.174.529-.12.822-1.412 1.053-2.764 1.695-4.116 2.337zm-4.582.927c-2.114.112-3.816-.304-4.929-1.305-.234-.118-.175-.529-.057-.763.118-.235.529-.175.764-.057.82.707 2.287 1.004 3.872 1.067.353-.116.646.178.586.589.234.118.116.353-.236.469zm11.818-6.25c-.176.058-.411-.06-.645-.178-.235-.118-.175-.53-.057-.764.707-.82 1.237-1.582 1.768-2.344-.646-.177-1.233-.179-2.055-.299-.41-.06-.527-.412-.409-.647.06-.41.413-.527.647-.409l2.465.36.118-.236c.118-.234.471-.35.705-.232.235.118.351.47.233.705.235.118.646.178.88.296.235.118.528.412.41.647-.119.234-.413.527-.647.409l-1.233-.18c-.648.997-1.297 1.993-2.18 2.872.176-.059.176-.059 0 0zm-17.088.952c-.177.058-.177.058-.411-.06-.235-.118-.528-.413-.41-.647.06-.411.355-.704.414-1.115.473-.938 1.356-1.816 2.708-2.458.353-.117.587.001.704.354.116.352-.002.587-.355.703-1.175.585-1.94 1.228-2.295 1.932l-.472.938c.469.236.293.294.117.353zm11.873-4.9c-1.761-.005-3.288.108-4.581.34-.352.116-.645-.178-.761-.53-.117-.354.177-.646.53-.763a19.59 19.59 0 0 1 4.581-.34c.41.06.469.237.585.59.175.528-.001.586-.354.703zm9.816-4.025c-.176.058-.176.058-.411-.06-.234-.118-.527-.412-.233-.705.532-1.35.83-2.816 1.304-4.341.118-.235.412-.528.647-.41.234.118.527.413.409.647-.298 1.467-.771 2.993-1.245 4.518-.118.234-.295.293-.471.35zm1.962-8.86l-.177.058c-.411-.06-.527-.413-.585-.59.119-.82.063-1.584.182-2.406-.056-.763-.055-1.35-.111-2.114-.117-.353.177-.645.588-.586.353-.116.646.178.586.59.057.763.113 1.526-.065 2.172-.119.821-.063 1.585-.182 2.406a.4.4 0 0 1-.236.47zm-.622-8.986c-.353.117-.645-.178-.704-.354l-.291-.881c-.349-1.058-.933-2.234-1.459-3.233-.117-.353.002-.588.296-.88.352-.117.587.001.88.296.584 1.175 1.11 2.175 1.517 3.41l.291.88c-.118.235-.177.646-.53.762zm-4.088-8.23c-.176.058-.411-.06-.645-.178-.761-1.118-1.932-2.296-2.868-3.355-.293-.294-.175-.529-.057-.763.294-.293.529-.175.764-.057 1.171 1.178 2.165 2.413 3.102 3.473.117.352.057.763-.296.88 0 0 .176-.059 0 0zm-6.441-6.477c-.176.059-.411-.06-.587-.001-1.113-1.001-2.344-1.768-3.633-2.71-.235-.119-.351-.471-.057-.764.118-.235.471-.351.764-.057 1.289.943 2.578 1.886 3.633 2.71.234.119.174.53.056.764l-.176.059zm-7.384-5.186c-.176.058-.353.116-.411-.06-1.231-.767-2.638-1.475-4.045-2.183-.235-.118-.351-.471-.233-.705.118-.235.471-.352.705-.233 1.407.708 2.814 1.416 4.045 2.183.235.118.351.47.233.705-.118.235-.294.293-.294.293zm-8.267-4.309c-.176.059-.353.117-.411-.06-1.349-.532-2.756-1.24-4.105-1.772-.235-.118-.351-.47-.233-.705.118-.235.471-.351.705-.233 1.407.708 2.933 1.182 4.164 1.949.234.118.351.47.233.705l-.353.116zm-8.387-3.486c-.176.058-.176.058-.411-.06-1.525-.474-2.874-1.006-4.223-1.538-.234-.118-.527-.413-.409-.647.118-.235.412-.527.647-.41 1.349.533 2.874 1.007 4.399 1.48.235.118.528.413.233.706.117.352-.059.41-.236.469zm-8.799-2.96c-.176.058-.176.058-.411-.06-1.525-.473-3.05-.947-4.341-1.303-.235-.118-.527-.412-.409-.647.118-.234.412-.527.647-.41 1.29.357 2.816.83 4.341 1.304.235.118.527.413.409.647.117.353-.06.411-.236.47zm-8.801-2.372l-.352.117c-2.758-.654-4.46-1.07-4.46-1.07-.234-.117-.527-.412-.409-.646.118-.235.413-.528.647-.41 0 0 1.702.416 4.46 1.07.234.117.527.412.409.646 0 0-.118.235-.295.293z" fill="#D5BB6E"/><path d="M22.43 146.991L24.912 141l3.215 6.429 6.136.438-5.26 3.799 1.608 6.137-5.553-3.36-6.283 3.068 2.484-6.429L16 148.16l6.43-1.169z" fill="#78BAC9"/><path d="M2.922 196.798l7.16 3.799-1.9 3.653L0 198.551l2.922-1.753zM68.383 129l7.16 3.945-2.046 3.653-8.183-5.699L68.383 129z" fill="#E9B833"/><path d="M56.694 174.588l-6.722 4.384-2.484-3.361 8.913-4.53.293 3.507z" fill="#F0B3C5"/><path d="M850.429 364.137l2.484-6.137 3.215 6.575 6.136.292-5.26 3.799 1.754 6.137-5.699-3.36-6.283 3.214 2.484-6.575-5.26-2.922 6.429-1.023z" fill="#E9B833"/><path d="M825.091 361.58l-1.315-4.822 3.653 3.653 3.799-3.069-1.607 4.384 4.822.73-4.092 1.315 2.046 4.091-3.653-1.753-1.753 3.215-1.023-3.507-4.091 2.045 2.63-3.36-3.507-1.9 4.091-1.022z" fill="#fff"/><path d="M879.593 344.046l7.744-2.046 1.169 4.091-9.936 1.315 1.023-3.36z" fill="#78BAC9"/><path d="M894.79 384.958l-6.722 4.53-2.338-3.507 8.914-4.53.146 3.507z" fill="#F0B3C5"/></svg>