<svg width="40" height="40" viewBox="0 0 40 40" fill="none" xmlns="http://www.w3.org/2000/svg"><g clip-path="url(#a)"><path d="M38.438 36.874H28.203V26.249a1.562 1.562 0 1 0-3.125 0v10.625h-3.203V5.562h1.64c.864 0 1.563.699 1.563 1.562v6.625a1.563 1.563 0 0 0 3.125 0V7.124a4.688 4.688 0 0 0-4.687-4.687H21.42a4.372 4.372 0 0 0-4.57-2.39L3.992 1.978A4.69 4.69 0 0 0 0 6.612v31.824C0 39.3.7 40 1.563 40h36.874a1.563 1.563 0 0 0 0-3.125zm-19.688 0H3.125V6.612c0-.78.56-1.43 1.33-1.545l12.86-1.929c.493-.074.838.15 1 .29.163.139.435.448.435.946v32.5zm14.683-20.92a1.563 1.563 0 0 1 2.197-2.223l2.98 2.947a4.638 4.638 0 0 1 1.39 3.32 4.637 4.637 0 0 1-1.39 3.321l-2.98 2.947a1.558 1.558 0 0 1-2.21-.013 1.562 1.562 0 0 1 .013-2.21l2.51-2.482h-9.302a1.563 1.563 0 0 1 0-3.125h9.303l-2.511-2.482zm-17.73 2.404v3.438a1.562 1.562 0 1 1-3.125 0v-3.438a1.562 1.562 0 1 1 3.125 0z" fill="#000"/></g><defs><clipPath id="a"><path fill="#fff" d="M0 0h40v40H0z"/></clipPath></defs></svg>