<svg width="40" height="40" viewBox="0 0 40 40" fill="none" xmlns="http://www.w3.org/2000/svg"><g clip-path="url(#a)"><path d="M37.399 25.36a1.002 1.002 0 0 0-.019-.018l-4.369-4.096 3.886-8.698a1.563 1.563 0 0 0-.793-2.066L24.67 5.414c.15-.533.243-1.014.243-1.39C24.914 1.803 23.127 0 20.93 0a1.562 1.562 0 0 0 0 3.125c.482 0 .86.394.86.894-.008.228-.16.735-.405 1.392-.04.064-.079.13-.11.201l-6.323 14.151a8.534 8.534 0 0 0 1.853 9.581l.01.011 8.673 8.237a8.56 8.56 0 0 0 8.765 1.932 1.563 1.563 0 0 0-1.023-2.953 5.442 5.442 0 0 1-5.574-1.229l-.011-.01-8.672-8.237a5.4 5.4 0 0 1-1.168-6.057l1.585-3.548.05-.016 2.969-1.094 1.094 2.97c.143.388.435.704.812.878l.046.021c.376.174.806.191 1.195.048l2.986-1.1 1.1 2.985c.123.334.348.6.627.777l4.965 4.653a5.407 5.407 0 0 1 1.337 5.624 1.562 1.562 0 1 0 2.953 1.022 8.542 8.542 0 0 0-2.125-8.899zm-8.488-9.63l-3.004 1.107-1.106-3.003a1.561 1.561 0 0 0-2.007-.926l-1.624.598 1.324-2.963c.055-.073.104-.152.147-.237.235-.47.577-1.177.925-1.964l9.84 4.362-2.152 4.815-.314-.852a1.562 1.562 0 0 0-.81-.879l-.024-.01a1.563 1.563 0 0 0-1.195-.048zm-7.272 21.36c.37.78.037 1.711-.743 2.081a8.57 8.57 0 0 1-9.626-1.58l-8.672-8.237-.01-.01a8.534 8.534 0 0 1-1.853-9.582l1.892-4.236a1.59 1.59 0 0 1 .14-.312l4.29-9.603c.031-.07.07-.137.11-.2.245-.657.397-1.165.405-1.393 0-.5-.377-.894-.86-.894a1.562 1.562 0 1 1 0-3.125c2.197 0 3.985 1.805 3.985 4.023 0 .378-.094.863-.246 1.398l5.105 2.294a1.562 1.562 0 0 1-1.281 2.85L9.345 8.35a47.521 47.521 0 0 1-.922 1.956 1.558 1.558 0 0 1-.147.237l-1.211 2.712.943-.347a1.563 1.563 0 0 1 2.006.926l1.114 3.023.143-.05a1.562 1.562 0 1 1 1.039 2.946l-1.562.55a1.56 1.56 0 0 1-1.174-.054l-.046-.021a1.564 1.564 0 0 1-.812-.879L7.622 16.38l-2.338.862-1.696 3.796a5.4 5.4 0 0 0 1.168 6.057l8.671 8.236.011.01a5.448 5.448 0 0 0 6.12 1.007 1.562 1.562 0 0 1 2.08.743z" fill="#fff"/></g><defs><clipPath id="a"><path fill="#fff" d="M0 0h40v40H0z"/></clipPath></defs></svg>