<svg width="40" height="40" viewBox="0 0 40 40" fill="none" xmlns="http://www.w3.org/2000/svg"><path d="M14.922 9.375c.863 0 1.562-.7 1.562-1.563 0-.351.606-.89 1.192-1.413 1.146-1.02 2.715-2.418 2.715-4.837a1.562 1.562 0 1 0-3.125 0c0 .969-.634 1.582-1.668 2.504-.998.888-2.239 1.993-2.239 3.747 0 .862.7 1.562 1.563 1.562zm7.031 0c.863 0 1.563-.7 1.563-1.563 0-.351.605-.89 1.191-1.413 1.146-1.02 2.715-2.418 2.715-4.837a1.563 1.563 0 0 0-3.125 0c0 .969-.634 1.582-1.668 2.504-.997.888-2.238 1.993-2.238 3.747 0 .862.7 1.562 1.562 1.562zm-14.063 0c.864 0 1.563-.7 1.563-1.563 0-.351.606-.89 1.192-1.413 1.145-1.02 2.714-2.418 2.714-4.837a1.563 1.563 0 0 0-3.125 0c0 .969-.634 1.582-1.668 2.504-.997.888-2.238 1.993-2.238 3.747 0 .862.7 1.562 1.563 1.562zm31.66 8.277a1.563 1.563 0 0 0-1.112-.465h-5.214l.625-2.783a1.563 1.563 0 0 0-1.525-1.904H1.563a1.562 1.562 0 0 0-1.524 1.91l3.36 14.762a13.968 13.968 0 0 0 4.783 7.703h-6.62a1.562 1.562 0 1 0 0 3.125h30.782a1.562 1.562 0 0 0 0-3.125h-6.588c.353-.29.695-.597 1.023-.923a1.562 1.562 0 1 0-2.203-2.216 10.727 10.727 0 0 1-7.609 3.139c-5.07 0-9.396-3.453-10.521-8.396L3.52 15.625h26.851l-2.876 12.822-.002.01c-.007.03-.011.062-.016.093-.004.023-.008.045-.01.067-.003.022-.003.044-.005.065-.002.033-.005.065-.005.097v.01l.002.04c0 .036.002.072.005.108l.008.056c.004.032.008.063.014.094l.016.07c.006.025.012.05.02.076l.026.078.023.063c.011.027.024.053.036.08.009.019.017.038.027.056.013.026.028.05.043.075a1.551 1.551 0 0 0 .08.122l.043.058.047.055.054.06.047.044c.021.02.042.04.064.058l.05.04c.022.017.045.035.07.052.018.013.037.024.056.036.023.015.046.03.07.043.023.013.046.024.07.036l.064.03c.03.013.06.024.089.035l.054.02c.034.011.069.02.104.029.013.003.025.008.038.01l.01.002a.97.97 0 0 0 .094.016.72.72 0 0 0 .067.01c.02.003.042.003.064.005.033.002.066.005.098.005h.01c2.42 0 5.125-1.144 7.235-3.062 2.408-2.187 3.736-5.077 3.739-8.138l.005-.38a1.562 1.562 0 0 0-.45-1.119zm-8.492 9.192l1.465-6.532h4.253c-.528 3.276-3.205 5.647-5.718 6.532z" fill="#000"/></svg>