<svg width="162" height="182" viewBox="0 0 162 182" fill="none" xmlns="http://www.w3.org/2000/svg"><path opacity=".67" d="M0 .125V129S109.933 102.888 162 0L0 .125z" fill="#D3F1FF"/><path d="M55.548 181.466c2.977 2.976 13.53-10.771 10.445-12.827-3.084-2.057-13.476 9.85-10.445 12.827zm23.056.162c2.815 2.814 13.423-11.203 10.067-13.152-3.41-1.894-12.448 10.771-10.067 13.152zm-6.874-25.437c2.22 2.219 10.988-5.846 8.227-8.606-2.76-2.76-10.716 6.116-8.226 8.606zm19.809-.758c3.572 3.572 12.827-9.904 10.229-12.502-2.598-2.598-12.881 9.85-10.23 12.502zm.271-23.435c2.923 2.922 11.745-7.469 8.768-10.446-2.977-2.976-12.123 7.09-8.768 10.446zm19.809.866c3.842 3.843 13.097-10.013 10.608-12.502-2.49-2.49-14.505 8.551-10.608 12.502zm1.623 19.267c2.544 2.544 10.77-7.306 8.118-10.012-2.706-2.652-11.366 6.765-8.118 10.012zm-12.936 20.405c2.977 2.976 10.608-6.116 8.335-8.444-2.273-2.273-11.582 5.142-8.335 8.444z" fill="#AAD6E9"/></svg>