<svg width="99" height="130" viewBox="0 0 99 130" fill="none" xmlns="http://www.w3.org/2000/svg"><path fill-rule="evenodd" clip-rule="evenodd" d="M70.342 1.766A6 6 0 0 0 66.09 0H6a6 6 0 0 0-6 6v118a6 6 0 0 0 6 6h84a6 6 0 0 0 6-6V30.01a6 6 0 0 0-1.748-4.233l-23.91-24.01z" fill="#5367F2"/><path d="M94.99 28.438L67.704 1.015v25.422a2 2 0 0 0 2 2H94.99z" fill="#5367F2" filter="url(#a)"/><path d="M22.534 45.457h-2.182v-1.43h2.182c.337 0 .612-.057.824-.171a1.08 1.08 0 0 0 .464-.489c.098-.208.147-.442.147-.703 0-.264-.049-.51-.147-.739a1.221 1.221 0 0 0-.464-.55c-.212-.138-.487-.208-.824-.208h-1.57v7.46h-1.765v-8.895h3.335c.67 0 1.245.126 1.723.378a2.64 2.64 0 0 1 1.106 1.033c.255.44.382.943.382 1.51 0 .574-.127 1.07-.382 1.49a2.51 2.51 0 0 1-1.106.971c-.478.229-1.053.343-1.723.343zm6.934-4.204l-2.329 7.375h-1.876l3.182-8.896h1.194l-.17 1.521zm1.935 7.375l-2.335-7.375-.188-1.521h1.206l3.2 8.896h-1.883zm-.105-3.312v1.436h-4.523v-1.436h4.523zm7.24.984c0-.159-.024-.302-.07-.428a.807.807 0 0 0-.248-.354 2.177 2.177 0 0 0-.512-.324 7.061 7.061 0 0 0-.852-.33c-.389-.13-.757-.277-1.106-.44a4.514 4.514 0 0 1-.918-.568 2.539 2.539 0 0 1-.623-.764 2.172 2.172 0 0 1-.224-1.008c0-.37.079-.707.236-1.008.157-.306.376-.566.658-.782a3.07 3.07 0 0 1 1-.507 4.366 4.366 0 0 1 1.277-.178c.63 0 1.182.118 1.652.355.47.236.835.56 1.094.971.263.412.394.882.394 1.412h-1.752c0-.261-.053-.49-.16-.685a1.094 1.094 0 0 0-.47-.47c-.208-.114-.47-.171-.788-.171-.306 0-.56.049-.764.146a1.028 1.028 0 0 0-.46.385.974.974 0 0 0-.152.538c0 .15.035.287.106.41.074.122.184.236.33.342a2.9 2.9 0 0 0 .534.299c.212.094.457.185.736.275.466.147.876.312 1.229.495.356.183.654.389.894.617.239.228.42.487.54.776.122.29.183.617.183.984 0 .387-.072.733-.218 1.038a2.115 2.115 0 0 1-.629.776 2.915 2.915 0 0 1-.982.483 4.59 4.59 0 0 1-1.276.165 4.67 4.67 0 0 1-1.253-.171 3.737 3.737 0 0 1-1.123-.532 2.642 2.642 0 0 1-.8-.904c-.2-.367-.3-.8-.3-1.301h1.77c0 .277.041.51.124.702.082.192.198.347.347.465.152.118.333.203.54.256.212.053.444.08.695.08.305 0 .556-.045.752-.135.2-.09.348-.214.442-.372.098-.16.147-.339.147-.538zm7.422 0a1.22 1.22 0 0 0-.07-.428.807.807 0 0 0-.247-.354 2.177 2.177 0 0 0-.512-.324 7.061 7.061 0 0 0-.853-.33c-.388-.13-.757-.277-1.106-.44a4.514 4.514 0 0 1-.917-.568 2.539 2.539 0 0 1-.624-.764 2.172 2.172 0 0 1-.223-1.008c0-.37.078-.707.235-1.008.157-.306.377-.566.659-.782a3.05 3.05 0 0 1 1-.507 4.366 4.366 0 0 1 1.276-.178c.631 0 1.182.118 1.653.355.47.236.835.56 1.094.971.262.412.394.882.394 1.412h-1.753c0-.261-.053-.49-.159-.685a1.094 1.094 0 0 0-.47-.47c-.208-.114-.47-.171-.788-.171-.306 0-.561.049-.765.146a1.029 1.029 0 0 0-.459.385.974.974 0 0 0-.153.538c0 .15.036.287.106.41.075.122.184.236.33.342.145.105.323.205.535.299.212.094.457.185.735.275.467.147.876.312 1.23.495.356.183.654.389.893.617.24.228.42.487.541.776.122.29.183.617.183.984 0 .387-.073.733-.218 1.038a2.115 2.115 0 0 1-.63.776 2.915 2.915 0 0 1-.982.483 4.59 4.59 0 0 1-1.276.165 4.67 4.67 0 0 1-1.253-.171 3.739 3.739 0 0 1-1.123-.532 2.643 2.643 0 0 1-.8-.904c-.2-.367-.3-.8-.3-1.301h1.77c0 .277.042.51.124.702.082.192.198.347.347.465.153.118.333.203.541.256.212.053.443.08.694.08.306 0 .557-.045.753-.135.2-.09.347-.214.441-.372.098-.16.147-.339.147-.538zm6.3-.843h-2.183v-1.43h2.182c.337 0 .612-.057.824-.171a1.08 1.08 0 0 0 .464-.489c.098-.208.147-.442.147-.703 0-.264-.049-.51-.147-.739a1.221 1.221 0 0 0-.464-.55c-.212-.138-.486-.208-.824-.208h-1.57v7.46h-1.764v-8.895h3.334c.67 0 1.245.126 1.724.378.482.249.85.593 1.105 1.033.255.44.383.943.383 1.51 0 .574-.128 1.07-.383 1.49a2.51 2.51 0 0 1-1.105.971c-.479.229-1.053.343-1.724.343zm11.462-1.485v.422c0 .676-.088 1.283-.264 1.82a4.046 4.046 0 0 1-.747 1.375 3.247 3.247 0 0 1-1.153.862c-.443.2-.935.299-1.476.299-.538 0-1.03-.1-1.477-.3a3.316 3.316 0 0 1-1.152-.86 4.065 4.065 0 0 1-.759-1.376c-.177-.537-.265-1.144-.265-1.82v-.422c0-.68.088-1.287.265-1.82.176-.538.425-.997.747-1.376.325-.378.71-.668 1.153-.867.447-.2.939-.3 1.476-.3.541 0 1.033.1 1.476.3.447.2.831.489 1.153.867.325.38.576.837.753 1.375.18.534.27 1.14.27 1.82zm-1.782.422v-.434c0-.473-.04-.888-.123-1.247a2.759 2.759 0 0 0-.365-.904 1.596 1.596 0 0 0-.588-.55 1.63 1.63 0 0 0-.794-.19 1.63 1.63 0 0 0-.794.19 1.61 1.61 0 0 0-.582.55 2.842 2.842 0 0 0-.36.904 5.609 5.609 0 0 0-.123 1.247v.434c0 .468.042.884.124 1.246.082.358.204.662.365.91.16.245.356.43.588.556.231.127.496.19.794.19.298 0 .562-.063.794-.19a1.6 1.6 0 0 0 .582-.556c.157-.248.276-.552.359-.91.082-.362.123-.778.123-1.246zm3.053-4.662h3.194c.654 0 1.217.101 1.688.305.474.204.839.505 1.093.904.255.4.383.89.383 1.473 0 .477-.079.886-.236 1.228-.152.338-.37.621-.652.85a3.347 3.347 0 0 1-.983.537l-.558.305h-2.776l-.012-1.43h2.064c.31 0 .567-.056.77-.17.205-.114.358-.273.46-.477.105-.204.158-.44.158-.709a1.66 1.66 0 0 0-.153-.739 1.052 1.052 0 0 0-.464-.477c-.208-.11-.469-.165-.782-.165h-1.43v7.46h-1.764v-8.895zm4.787 8.896l-1.952-3.966 1.864-.012 1.976 3.892v.086H69.78zm6.405-8.896v8.896h-1.758v-8.896h1.758zm2.635 0v1.435h-6.987v-1.435h6.987z" fill="#A2D9F6"/><path fill-rule="evenodd" clip-rule="evenodd" d="M51.543 60.017c1.543 2.826 2.337 5.913 2.995 9.046.096.465.182.935.27 1.414v.001c.065.358.131.72.203 1.088h-12.88c.12-.554.237-1.104.352-1.651.235-1.108.466-2.205.732-3.294.642-2.58 1.452-5.114 2.857-7.402.413-.691.963-1.32 1.544-1.89.626-.613 1.33-.644 1.925 0 .764.815 1.467 1.72 2.002 2.688zm4.078 16.525H41.594a83.763 83.763 0 0 0 0 14.65h14.012c.352-4.883.49-9.751.015-14.65zm-18.93.015H22.8c-1.39 4.914-1.39 9.782 0 14.65h13.905c-.352-4.898-.49-9.751-.016-14.65zm23.79-.015h13.905c1.39 4.883 1.39 9.751 0 14.666h-13.89c.474-4.884.337-9.752-.015-14.666zM42.42 97.519c.596 3.225 1.39 6.389 2.766 9.368.596 1.306 1.268 2.58 2.399 3.517.718.584 1.33.63 2.001 0a9.58 9.58 0 0 0 1.574-1.935c1.528-2.534 2.353-5.329 3.026-8.185.208-.879.384-1.763.562-2.655.096-.48.192-.962.293-1.446H42.205c.061.476.138.906.214 1.336zm-1.128-39.56c-7.456 2.32-12.911 6.804-16.579 13.622h12.56a45.991 45.991 0 0 1 4.02-13.622zm14.606 0c7.456 2.304 12.896 6.788 16.578 13.622h-12.56a45.81 45.81 0 0 0-4.018-13.622zm0 51.846c7.456-2.319 12.911-6.803 16.578-13.622h-12.56c-.626 4.7-1.94 9.199-4.018 13.622zm-14.621 0c-7.441-2.319-12.881-6.788-16.564-13.606h12.56a45.866 45.866 0 0 0 4.004 13.606z" fill="#A2D9F6"/><defs><filter id="a" x="63.705" y="1.016" width="35.285" height="35.422" filterUnits="userSpaceOnUse" color-interpolation-filters="sRGB"><feFlood flood-opacity="0" result="BackgroundImageFix"/><feColorMatrix in="SourceAlpha" values="0 0 0 0 0 0 0 0 0 0 0 0 0 0 0 0 0 0 127 0" result="hardAlpha"/><feOffset dy="4"/><feGaussianBlur stdDeviation="2"/><feComposite in2="hardAlpha" operator="out"/><feColorMatrix values="0 0 0 0 0.25099 0 0 0 0 0.315331 0 0 0 0 0.7625 0 0 0 1 0"/><feBlend in2="BackgroundImageFix" result="effect1_dropShadow_247_3849"/><feBlend in="SourceGraphic" in2="effect1_dropShadow_247_3849" result="shape"/></filter></defs></svg>