<svg width="70" height="70" viewBox="0 0 70 70" fill="none" xmlns="http://www.w3.org/2000/svg"><g filter="url(#a)"><rect width="70" height="70" rx="13" fill="#F5F5FA" fill-opacity=".2"/><rect x=".5" y=".5" width="69" height="69" rx="12.5" stroke="url(#b)"/></g><rect x="10" y="10" width="50" height="50" rx="10" fill="#F5F5FA"/><path fill-rule="evenodd" clip-rule="evenodd" d="M34.18 26.301a1 1 0 0 1 1.393-.035l4.036 3.727H45v6.109h-3.398l-5.718-5.718-1.414-1.414-3.182 3.182a1 1 0 0 1-1.414 0l-.715-.715 5.02-5.136zm.29 5.498l-1.768 1.767a3 3 0 0 1-4.243 0l-.715-.715a2 2 0 0 1-.016-2.812l.045-.046H25v6.582l8.395 8.284a.497.497 0 0 0 .701-.706l-1.04-1.04 1.414-1.415 1.767 1.768a.5.5 0 0 0 .708-.707l-1.768-1.768 1.414-1.414 1.768 1.767.707.708a.5.5 0 0 0 .707-.708l-2.475-2.474 1.414-1.415 2.475 2.475.707.707a.5.5 0 1 0 .707-.707L34.47 31.8zm-4.742-3.806l3.021-3.09a3 3 0 0 1 4.181-.107l3.461 3.197h6.61v10.109h-3.4l.415.414a2.5 2.5 0 0 1-2.316 4.207 2.498 2.498 0 0 1-2.828 1.414 2.498 2.498 0 0 1-2.856 1.408 2.497 2.497 0 0 1-4.025.737L23 37.413v-9.419h6.728z" fill="#5367F2"/><defs><filter id="a" x="-10" y="-10" width="90" height="90" filterUnits="userSpaceOnUse" color-interpolation-filters="sRGB"><feFlood flood-opacity="0" result="BackgroundImageFix"/><feGaussianBlur in="BackgroundImageFix" stdDeviation="5"/><feComposite in2="SourceAlpha" operator="in" result="effect1_backgroundBlur_76_729"/><feBlend in="SourceGraphic" in2="effect1_backgroundBlur_76_729" result="shape"/></filter><linearGradient id="b" x1="35" x2="35" y2="70" gradientUnits="userSpaceOnUse"><stop stop-color="#EBEBF9"/><stop offset="1" stop-color="#C3C4D2"/></linearGradient></defs></svg>