<svg width="132" height="95" viewBox="0 0 132 95" fill="none" xmlns="http://www.w3.org/2000/svg"><ellipse cx="66.516" cy="42.932" rx="35.547" ry="35.795" fill="#5367F2"/><path d="M69.033 28.614v4.441h-2.726v-4.441h2.726zM68.701 53.2v4.05h-2.726V53.2H68.7zm1.922-4.938c0-.572-.122-1.06-.367-1.46-.233-.402-.617-.759-1.153-1.07-.524-.31-1.235-.612-2.132-.903-1.514-.502-2.849-1.034-4.002-1.596-1.142-.572-2.033-1.28-2.674-2.123-.64-.853-.96-1.932-.96-3.237 0-1.245.343-2.324 1.03-3.237.688-.913 1.637-1.616 2.849-2.108 1.223-.502 2.644-.753 4.264-.753 1.235 0 2.353.161 3.355.482 1.002.311 1.864.773 2.586 1.385a5.976 5.976 0 0 1 1.66 2.213c.385.874.577 1.873.577 2.997h-5.015c0-.603-.076-1.135-.227-1.596a3.069 3.069 0 0 0-.664-1.16 2.57 2.57 0 0 0-1.014-.692 3.457 3.457 0 0 0-1.31-.241c-.711 0-1.294.12-1.748.361-.454.241-.787.567-.996.979-.198.401-.297.863-.297 1.385 0 .512.105.959.314 1.34.222.381.6.733 1.136 1.054.536.311 1.27.632 2.202.964 1.514.501 2.843 1.043 3.984 1.626 1.142.582 2.033 1.294 2.674 2.138.64.843.961 1.917.961 3.221 0 1.295-.35 2.4-1.048 3.313-.7.903-1.678 1.596-2.936 2.078-1.258.471-2.715.707-4.369.707-1.072 0-2.138-.12-3.198-.361a9.252 9.252 0 0 1-2.883-1.205 6.124 6.124 0 0 1-2.063-2.198c-.512-.923-.768-2.057-.768-3.402h5.032c0 .732.111 1.345.333 1.836.22.482.512.869.873 1.16a3.54 3.54 0 0 0 1.258.602c.466.12.938.18 1.416.18.746 0 1.357-.115 1.835-.346.49-.23.856-.547 1.1-.948.257-.412.385-.873.385-1.385z" fill="#A2D9F6"/><path d="M99.031 42.932c0 18.094-14.564 32.75-32.515 32.75C48.564 75.682 34 61.026 34 42.932s14.564-32.75 32.516-32.75c17.951 0 32.515 14.656 32.515 32.75z" stroke="#8BBAD2" stroke-width="2"/><path d="M24.875 42.829c0 23.158 18.643 41.932 41.64 41.932 19.091 0 35.181-12.937 40.097-30.58" stroke="#5367F2" stroke-width="2"/><path d="M19.797 46.971l5.027-5.062 5.027 5.062m78.794-4.039C108.645 19.773 90.001 1 67.004 1c-19.09 0-35.18 12.937-40.097 30.579" stroke="#5367F2" stroke-width="2"/><path d="M113.723 38.79l-5.027 5.062-5.028-5.063" stroke="#5367F2" stroke-width="2"/><g opacity=".3" filter="url(#a)"><path d="M73.492 59.964c-.763-5.352-4.902-9.75-10.224-10.82-.496-.095-.706-.305-.8-.802-1.45-7.093-8.622-11.623-15.622-9.826-1.278.325-2.48.898-3.757 1.376a3.559 3.559 0 0 1-.23-.344c-3.165-4.76-7.59-7.398-13.255-7.819-9.575-.726-18.005 6.997-18.215 16.65-.019.479-.114.689-.63.785C4.428 50.54-.054 56.561.557 62.794c.667 6.652 6.16 11.795 12.779 11.814a9884.6 9884.6 0 0 0 47.473 0c5.664-.02 10.662-3.843 12.283-9.291.229-.745.362-1.53.534-2.294v-2.58c-.057-.173-.114-.326-.133-.479z" fill="#F25199"/><path d="M46.97 39c-.847.215-1.639.536-2.479.876-.395.16-.8.325-1.227.484l-.351.132-.224-.3a4.075 4.075 0 0 1-.254-.38c-3.083-4.627-7.366-7.176-12.868-7.584-9.285-.705-17.474 6.791-17.678 16.163v.009c-.01.242-.037.553-.225.81-.2.275-.504.387-.805.444-6.091 1.327-10.39 7.124-9.806 13.09.643 6.408 5.931 11.345 12.283 11.364l-.001.5a9884.6 9884.6 0 0 0 47.473 0L46.97 39zm0 0c6.72-1.725 13.613 2.625 15.007 9.439l-15.006-9.44z" stroke="#F5F5FA"/></g><g filter="url(#b)" shape-rendering="crispEdges"><path d="M44.33 73.533c.9-6.372 5.786-11.606 12.069-12.88.585-.114.833-.365.945-.956 1.712-8.444 10.178-13.837 18.442-11.698 1.508.387 2.927 1.07 4.436 1.639a4.2 4.2 0 0 0 .27-.41c3.738-5.667 8.962-8.807 15.649-9.308 11.304-.865 21.256 8.33 21.504 19.822.022.57.135.82.743.933 7.475 1.639 12.767 8.808 12.046 16.227-.788 7.92-7.273 14.041-15.086 14.064-18.69.045-37.356.045-56.045 0-6.687-.023-12.587-4.575-14.5-11.06-.27-.888-.428-1.821-.631-2.731v-3.073c.067-.205.135-.387.158-.569z" fill="#F5F5FA" fill-opacity=".4"/><path d="M75.66 48.483h.002c1.004.258 1.948.644 2.943 1.05.465.19.941.384 1.44.572l.353.134.225-.303a4.79 4.79 0 0 0 .295-.446c3.655-5.533 8.737-8.583 15.26-9.071h.001c11.009-.843 20.724 8.12 20.966 19.334v.009c.012.287.044.63.247.91.217.3.548.427.896.493 7.232 1.59 12.344 8.53 11.649 15.688-.765 7.677-7.047 13.59-14.59 13.613l.001.5c-18.69.045-37.356.045-56.045 0L75.66 48.483zm0 0c-7.978-2.065-16.168 3.143-17.825 11.31l17.825-11.31z" stroke="#F5F5FA"/></g><defs><filter id="a" x=".5" y="27.682" width="83.125" height="50.955" filterUnits="userSpaceOnUse" color-interpolation-filters="sRGB"><feFlood flood-opacity="0" result="BackgroundImageFix"/><feColorMatrix in="SourceAlpha" values="0 0 0 0 0 0 0 0 0 0 0 0 0 0 0 0 0 0 127 0" result="hardAlpha"/><feOffset dx="6"/><feGaussianBlur stdDeviation="2"/><feComposite in2="hardAlpha" operator="out"/><feColorMatrix values="0 0 0 0 0 0 0 0 0 0 0 0 0 0 0 0 0 0 0.8 0"/><feBlend in2="BackgroundImageFix" result="effect1_dropShadow_247_3850"/><feBlend in="SourceGraphic" in2="effect1_dropShadow_247_3850" result="shape"/></filter><filter id="b" x="37.172" y="35.864" width="97.328" height="59.136" filterUnits="userSpaceOnUse" color-interpolation-filters="sRGB"><feFlood flood-opacity="0" result="BackgroundImageFix"/><feGaussianBlur in="BackgroundImageFix" stdDeviation="2"/><feComposite in2="SourceAlpha" operator="in" result="effect1_backgroundBlur_247_3850"/><feColorMatrix in="SourceAlpha" values="0 0 0 0 0 0 0 0 0 0 0 0 0 0 0 0 0 0 127 0" result="hardAlpha"/><feOffset dx="-3"/><feGaussianBlur stdDeviation="2"/><feComposite in2="hardAlpha" operator="out"/><feColorMatrix values="0 0 0 0 0 0 0 0 0 0 0 0 0 0 0 0 0 0 0.1 0"/><feBlend in2="effect1_backgroundBlur_247_3850" result="effect2_dropShadow_247_3850"/><feBlend in="SourceGraphic" in2="effect2_dropShadow_247_3850" result="shape"/></filter></defs></svg>