<svg width="60" height="60" viewBox="0 0 60 60" fill="none" xmlns="http://www.w3.org/2000/svg"><path d="M30 5C16.192 5.001 5.001 16.191 5 29.998c.001 13.809 11.192 25 25 25.002 13.807-.002 24.999-11.193 25-25.002C54.997 16.191 43.807 5.001 30 5zm0 42.5c-9.665 0-17.501-7.836-17.5-17.502C12.5 20.334 20.335 12.5 30 12.5c9.664 0 17.498 7.834 17.5 17.498C47.5 39.664 39.664 47.5 30 47.5zm0-28.75c-6.214 0-11.25 5.037-11.25 11.25S23.786 41.25 30 41.25c6.212 0 11.25-5.037 11.25-11.25S36.211 18.75 30 18.75z" fill="#EFC3E6"/></svg>