<svg width="1440" height="3738" viewBox="0 0 1440 3738" fill="none" xmlns="http://www.w3.org/2000/svg"><g opacity=".2" clip-path="url(#a)" fill="#fff"><path opacity=".5" d="M1018.09 1717.52c1.73 0 3.12 1.4 3.12 3.12a3.115 3.115 0 0 1-6.23 0c0-1.72 1.39-3.12 3.11-3.12zm3.12-193.87a3.11 3.11 0 0 1 3.12 3.11c0 1.73-1.39 3.12-3.12 3.12a3.115 3.115 0 0 1 0-6.23zm282.15 248.54c1.73 0 3.12 1.4 3.12 3.12a3.115 3.115 0 0 1-6.23 0c0-1.72 1.39-3.12 3.11-3.12zm-231.75-681.96c1.73 0 3.12 1.4 3.12 3.12 0 1.72-1.39 3.12-3.12 3.12-1.72 0-3.12-1.4-3.12-3.12 0-1.72 1.4-3.12 3.12-3.12zm135.19 258.87c1.72 0 3.12 1.4 3.12 3.12 0 1.72-1.4 3.12-3.12 3.12-1.73 0-3.12-1.4-3.12-3.12 0-1.72 1.39-3.12 3.12-3.12zm187.24 139.14c1.72 0 3.12 1.4 3.12 3.12 0 1.72-1.4 3.12-3.12 3.12-1.72 0-3.12-1.4-3.12-3.12 0-1.72 1.4-3.12 3.12-3.12zm-486.934-173.3c1.723 0 3.12 1.4 3.12 3.12 0 1.72-1.397 3.12-3.12 3.12a3.121 3.121 0 0 1 0-6.24zM1127.63 61.756c1.72 0 3.12 1.396 3.12 3.118a3.121 3.121 0 0 1-6.24 0 3.115 3.115 0 0 1 3.12-3.118zM884.299 242.951a3.118 3.118 0 1 1 0 6.236 3.12 3.12 0 1 1 0-6.236zM1086.95 1780.02a4.991 4.991 0 1 1-.002 9.982 4.991 4.991 0 0 1 .002-9.982zm277.84-1558.826c1.72 0 3.12 1.396 3.12 3.118a3.121 3.121 0 0 1-6.24 0 3.115 3.115 0 0 1 3.12-3.118zm-234.04 142.46c1.72 0 3.12 1.396 3.12 3.119a3.121 3.121 0 0 1-6.24 0 3.115 3.115 0 0 1 3.12-3.119zm-45.14 254.932c1.72 0 3.12 1.396 3.12 3.118a3.121 3.121 0 0 1-6.24 0c0-1.722 1.4-3.118 3.12-3.118zm240.77 384.184c1.73 0 3.12 1.39 3.12 3.12a3.11 3.11 0 0 1-3.12 3.11 3.115 3.115 0 1 1 0-6.23zm-198.61 298.09c2.76 0 4.99 2.23 4.99 4.99 0 2.75-2.23 4.98-4.99 4.98-2.76 0-4.99-2.23-4.99-4.98 0-2.76 2.23-4.99 4.99-4.99zm208.11 24.25a3.115 3.115 0 0 1 0 6.23 3.115 3.115 0 1 1 0-6.23zm-104.46-741.7c2.75 0 4.99 2.234 4.99 4.989a4.996 4.996 0 0 1-9.99 0 4.996 4.996 0 0 1 5-4.989zm-194.19 1105.91c1.72 0 3.12 1.4 3.12 3.12 0 1.72-1.4 3.12-3.12 3.12-1.72 0-3.12-1.4-3.12-3.12 0-1.72 1.4-3.12 3.12-3.12zm35.08-874.03c1.72 0 3.12 1.396 3.12 3.118a3.121 3.121 0 0 1-6.24 0c0-1.722 1.4-3.118 3.12-3.118zm150.09 175.998c2.75 0 4.99 2.234 4.99 4.989a4.997 4.997 0 0 1-4.99 4.993 4.99 4.99 0 0 1-4.99-4.993 4.987 4.987 0 0 1 4.99-4.989zm-188.29 288.872a4.991 4.991 0 1 1-.002 9.978 4.991 4.991 0 0 1 .002-9.978zm108.84 168.38c2.76 0 4.99 2.23 4.99 4.98 0 2.76-2.23 4.99-4.99 4.99-2.76 0-4.99-2.23-4.99-4.99 0-2.75 2.23-4.98 4.99-4.98zm-83.45-130.55c1.73 0 3.12 1.4 3.12 3.12 0 1.72-1.39 3.12-3.12 3.12-1.72 0-3.12-1.4-3.12-3.12 0-1.72 1.4-3.12 3.12-3.12zm20.59-1197.338c1.73 0 3.12 1.396 3.12 3.119a3.121 3.121 0 0 1-6.24 0c0-1.723 1.4-3.119 3.12-3.119zm-28.7 1591.948a4.991 4.991 0 1 1-.002 9.982 4.991 4.991 0 0 1 .002-9.982zm-941.855 71.59c-1.723 0-3.12 1.4-3.12 3.12 0 1.72 1.397 3.12 3.12 3.12a3.121 3.121 0 0 0 0-6.24zm-36.744-685.07a3.115 3.115 0 1 0 0 6.23 3.115 3.115 0 0 0 0-6.23zm84.577-257.002a4.99 4.99 0 0 0-4.992 4.989 4.99 4.99 0 0 0 4.992 4.989 4.99 4.99 0 0 0 4.991-4.989 4.99 4.99 0 0 0-4.991-4.989zm-38.336 619.732c-1.723 0-3.12 1.4-3.12 3.12 0 1.72 1.397 3.12 3.12 3.12a3.121 3.121 0 0 0 0-6.24zm-5.824 103.59a4.994 4.994 0 0 0-4.991 4.99c0 2.76 2.234 4.99 4.991 4.99a4.988 4.988 0 0 0 4.991-4.99c0-2.75-2.234-4.99-4.991-4.99zm8.943-1062.291a3.12 3.12 0 1 0 3.12 3.118 3.12 3.12 0 0 0-3.12-3.118zM45.96 1314.73a3.115 3.115 0 1 0 0 6.23 3.115 3.115 0 0 0 0-6.23zm80.687-455.254a4.99 4.99 0 0 0 0 9.978 4.99 4.99 0 1 0 0-9.978zm0-426.067a4.99 4.99 0 0 0-4.991 4.989 4.99 4.99 0 0 0 4.991 4.989 4.99 4.99 0 0 0 4.992-4.989 4.99 4.99 0 0 0-4.992-4.989zM460.454 72.478a3.119 3.119 0 1 0 0-6.237 3.119 3.119 0 0 0 0 6.237zm3.12 193.875a3.118 3.118 0 1 0 0-6.236 3.12 3.12 0 1 0 0 6.236zM215.184 17.807a3.12 3.12 0 1 0-3.12-3.118 3.12 3.12 0 0 0 3.12 3.118zm530.54 0a3.12 3.12 0 1 0-3.12-3.118 3.12 3.12 0 0 0 3.12 3.118zM513.972 699.765a3.12 3.12 0 1 0 .002-6.238 3.12 3.12 0 0 0-.002 6.238zm-262.046 3.118a3.12 3.12 0 1 0 .002-6.238 3.12 3.12 0 0 0-.002 6.238zm-84.575 256.999a4.99 4.99 0 0 0 4.991-4.989 4.99 4.99 0 0 0-4.991-4.989 4.99 4.99 0 0 0-4.992 4.989 4.99 4.99 0 0 0 4.992 4.989zm481.804-518.986a3.118 3.118 0 1 0 0-6.236 3.12 3.12 0 1 0 0 6.236zM836.4 301.761a3.12 3.12 0 1 0 .001-6.239 3.12 3.12 0 0 0-.001 6.239zM349.465 475.055a3.12 3.12 0 1 0 .002-6.238 3.12 3.12 0 0 0-.002 6.238zM569.987 1728.24a3.115 3.115 0 1 0 0-6.23 3.116 3.116 0 1 0 0 6.23zm-243.329-181.19a3.121 3.121 0 0 0 0-6.24c-1.723 0-3.12 1.4-3.12 3.12 0 1.72 1.397 3.12 3.12 3.12zM205.687 340.147a3.12 3.12 0 1 0-3.12-3.118 3.12 3.12 0 0 0 3.12 3.118zM529.309 9.978a4.99 4.99 0 0 0 4.991-4.99A4.99 4.99 0 0 0 529.309 0a4.99 4.99 0 0 0-4.992 4.989 4.99 4.99 0 0 0 4.992 4.989zM211.51 236.558a4.99 4.99 0 0 0 4.992-4.989 4.99 4.99 0 0 0-4.992-4.989 4.99 4.99 0 0 0-4.991 4.989 4.99 4.99 0 0 0 4.991 4.989zM807.145 1568.81c1.723 0 3.12-1.4 3.12-3.12 0-1.72-1.397-3.12-3.12-3.12s-3.12 1.4-3.12 3.12c0 1.72 1.397 3.12 3.12 3.12zm-604.578-269.96a3.115 3.115 0 1 0 0-6.23 3.116 3.116 0 0 0 0 6.23zm370.539 127.5c1.723 0 3.12-1.4 3.12-3.12 0-1.72-1.397-3.12-3.12-3.12s-3.12 1.4-3.12 3.12c0 1.72 1.397 3.12 3.12 3.12zm-45.135-254.94a3.115 3.115 0 1 0 0-6.23 3.116 3.116 0 1 0 0 6.23zM278.759 487.273a3.118 3.118 0 1 0 0-6.236 3.12 3.12 0 1 0 0 6.236zm489.985 299.958a3.118 3.118 0 1 0 0-6.236 3.12 3.12 0 1 0 0 6.236zM570.129 489.144a4.99 4.99 0 1 0 0-9.978 4.99 4.99 0 1 0 0 9.978zm208.111-24.252a3.118 3.118 0 1 0 0-6.236 3.12 3.12 0 1 0 0 6.236zM673.774 1206.59a4.988 4.988 0 0 0 4.991-4.99c0-2.76-2.235-4.99-4.991-4.99a4.988 4.988 0 0 0-4.992 4.99c0 2.76 2.235 4.99 4.992 4.99zM198.07 942.524a4.99 4.99 0 0 0 0-9.978 4.99 4.99 0 1 0 0 9.978zm0 426.066a4.988 4.988 0 0 0 4.992-4.99c0-2.75-2.235-4.99-4.992-4.99a4.995 4.995 0 0 0-4.991 4.99c0 2.76 2.235 4.99 4.991 4.99zM479.591 100.68a3.12 3.12 0 1 0 0-6.24 3.12 3.12 0 0 0 0 6.24zm35.077 874.03a3.12 3.12 0 1 0 .002-6.238 3.12 3.12 0 0 0-.002 6.238zm150.088-175.998a4.99 4.99 0 1 0 0-9.978 4.99 4.99 0 1 0 0 9.978zM476.471 509.839a4.99 4.99 0 1 0 0-9.978 4.99 4.99 0 0 0 0 9.978zm108.84-168.375a4.99 4.99 0 1 0 0-9.978 4.99 4.99 0 0 0 0 9.978zm-83.449 130.544a3.118 3.118 0 1 0 0-6.237 3.12 3.12 0 1 0 0 6.237zm20.59 1197.342a3.121 3.121 0 0 0 0-6.24c-1.723 0-3.12 1.4-3.12 3.12 0 1.72 1.397 3.12 3.12 3.12zM493.75 77.398a4.99 4.99 0 0 0 4.992-4.99 4.99 4.99 0 0 0-4.992-4.988 4.99 4.99 0 1 0 0 9.978z"/></g><g opacity=".2" clip-path="url(#b)" fill="#fff"><path opacity=".5" d="M1018.09 3507.52c1.73 0 3.12 1.4 3.12 3.12a3.115 3.115 0 0 1-6.23 0c0-1.72 1.39-3.12 3.11-3.12zm3.12-193.87a3.11 3.11 0 0 1 3.12 3.11c0 1.73-1.39 3.12-3.12 3.12a3.115 3.115 0 0 1 0-6.23zm282.15 248.54c1.73 0 3.12 1.4 3.12 3.12a3.115 3.115 0 0 1-6.23 0c0-1.72 1.39-3.12 3.11-3.12zm-231.75-681.96c1.73 0 3.12 1.4 3.12 3.12 0 1.72-1.39 3.12-3.12 3.12-1.72 0-3.12-1.4-3.12-3.12 0-1.72 1.4-3.12 3.12-3.12zm135.19 258.87c1.72 0 3.12 1.4 3.12 3.12 0 1.72-1.4 3.12-3.12 3.12-1.73 0-3.12-1.4-3.12-3.12 0-1.72 1.39-3.12 3.12-3.12zm187.24 139.14c1.72 0 3.12 1.4 3.12 3.12 0 1.72-1.4 3.12-3.12 3.12-1.72 0-3.12-1.4-3.12-3.12 0-1.72 1.4-3.12 3.12-3.12zm-486.934-173.3c1.723 0 3.12 1.4 3.12 3.12 0 1.72-1.397 3.12-3.12 3.12a3.121 3.121 0 0 1 0-6.24zm220.524-1253.18a3.115 3.115 0 1 1 0 6.23c-1.73 0-3.12-1.39-3.12-3.12a3.11 3.11 0 0 1 3.12-3.11zm-243.331 181.19a3.121 3.121 0 0 1 0 6.24c-1.723 0-3.12-1.4-3.12-3.12 0-1.72 1.397-3.12 3.12-3.12zm202.651 1537.07a4.991 4.991 0 1 1-.002 9.982 4.991 4.991 0 0 1 .002-9.982zm277.84-1558.83c1.72 0 3.12 1.4 3.12 3.12 0 1.72-1.4 3.12-3.12 3.12-1.73 0-3.12-1.4-3.12-3.12 0-1.72 1.39-3.12 3.12-3.12zm-234.04 142.46c1.72 0 3.12 1.4 3.12 3.12 0 1.72-1.4 3.12-3.12 3.12-1.73 0-3.12-1.4-3.12-3.12 0-1.72 1.39-3.12 3.12-3.12zm-45.14 254.94a3.115 3.115 0 1 1 0 6.23 3.115 3.115 0 0 1 0-6.23zm240.77 384.18c1.73 0 3.12 1.39 3.12 3.12a3.11 3.11 0 0 1-3.12 3.11 3.115 3.115 0 1 1 0-6.23zm-198.61 298.09c2.76 0 4.99 2.23 4.99 4.99 0 2.75-2.23 4.98-4.99 4.98-2.76 0-4.99-2.23-4.99-4.98 0-2.76 2.23-4.99 4.99-4.99zm208.11 24.25a3.115 3.115 0 0 1 0 6.23 3.115 3.115 0 1 1 0-6.23zm-104.46-741.7c2.75 0 4.99 2.23 4.99 4.99 0 2.75-2.24 4.99-4.99 4.99a5 5 0 0 1-5-4.99c0-2.76 2.24-4.99 5-4.99zm-194.19 1105.91c1.72 0 3.12 1.4 3.12 3.12 0 1.72-1.4 3.12-3.12 3.12-1.72 0-3.12-1.4-3.12-3.12 0-1.72 1.4-3.12 3.12-3.12zm35.08-874.03c1.72 0 3.12 1.4 3.12 3.12 0 1.72-1.4 3.12-3.12 3.12-1.72 0-3.12-1.4-3.12-3.12 0-1.72 1.4-3.12 3.12-3.12zm150.09 176c2.75 0 4.99 2.23 4.99 4.99 0 2.75-2.24 4.99-4.99 4.99a4.991 4.991 0 0 1 0-9.98zm-188.29 288.87a4.991 4.991 0 1 1-.002 9.978 4.991 4.991 0 0 1 .002-9.978zm108.84 168.38c2.76 0 4.99 2.23 4.99 4.98 0 2.76-2.23 4.99-4.99 4.99-2.76 0-4.99-2.23-4.99-4.99 0-2.75 2.23-4.98 4.99-4.98zm-83.45-130.55c1.73 0 3.12 1.4 3.12 3.12 0 1.72-1.39 3.12-3.12 3.12-1.72 0-3.12-1.4-3.12-3.12 0-1.72 1.4-3.12 3.12-3.12zm20.59-1197.34c1.73 0 3.12 1.4 3.12 3.12 0 1.72-1.39 3.12-3.12 3.12-1.72 0-3.12-1.4-3.12-3.12 0-1.72 1.4-3.12 3.12-3.12zm-28.7 1591.95a4.991 4.991 0 1 1-.002 9.982 4.991 4.991 0 0 1 .002-9.982zm-941.855 71.59c-1.723 0-3.12 1.4-3.12 3.12 0 1.72 1.397 3.12 3.12 3.12a3.121 3.121 0 0 0 0-6.24zm-36.744-685.07a3.115 3.115 0 1 0 0 6.23 3.115 3.115 0 0 0 0-6.23zm84.577-257a4.988 4.988 0 0 0-4.992 4.99c0 2.75 2.235 4.99 4.992 4.99a4.995 4.995 0 0 0 4.991-4.99c0-2.76-2.235-4.99-4.991-4.99zm-38.336 619.73c-1.723 0-3.12 1.4-3.12 3.12 0 1.72 1.397 3.12 3.12 3.12a3.121 3.121 0 0 0 0-6.24zm-5.824 103.59a4.994 4.994 0 0 0-4.991 4.99c0 2.76 2.234 4.99 4.991 4.99a4.988 4.988 0 0 0 4.991-4.99c0-2.75-2.234-4.99-4.991-4.99zm8.943-1062.29a3.116 3.116 0 1 0 0 6.23 3.116 3.116 0 0 0 0-6.23zM45.96 3104.73a3.115 3.115 0 1 0 0 6.23 3.115 3.115 0 0 0 0-6.23zm80.687-455.25a4.986 4.986 0 0 0 0 9.97 4.986 4.986 0 0 0 4.992-4.98c0-2.76-2.235-4.99-4.992-4.99zm0-426.07a4.988 4.988 0 0 0-4.991 4.99c0 2.75 2.235 4.99 4.991 4.99a4.995 4.995 0 0 0 4.992-4.99c0-2.76-2.235-4.99-4.992-4.99zm333.807-360.93c1.722 0 3.119-1.4 3.119-3.12 0-1.72-1.397-3.12-3.119-3.12-1.723 0-3.12 1.4-3.12 3.12 0 1.72 1.397 3.12 3.12 3.12zm3.12 193.87a3.115 3.115 0 1 0 0-6.23 3.116 3.116 0 1 0 0 6.23zm-248.39-248.54c1.723 0 3.12-1.4 3.12-3.12 0-1.72-1.397-3.12-3.12-3.12s-3.12 1.4-3.12 3.12c0 1.72 1.397 3.12 3.12 3.12zm530.54 0c1.723 0 3.12-1.4 3.12-3.12 0-1.72-1.397-3.12-3.12-3.12s-3.12 1.4-3.12 3.12c0 1.72 1.397 3.12 3.12 3.12zm-231.752 681.96c1.723 0 3.12-1.4 3.12-3.12 0-1.72-1.397-3.12-3.12-3.12a3.121 3.121 0 0 0 0 6.24zm-262.046 3.11a3.116 3.116 0 1 0 0-6.23 3.115 3.115 0 1 0 0 6.23zm-84.575 257a4.988 4.988 0 0 0 4.991-4.99c0-2.75-2.235-4.99-4.991-4.99a4.995 4.995 0 0 0-4.992 4.99c0 2.76 2.235 4.99 4.992 4.99zm481.804-518.98a3.121 3.121 0 0 0 0-6.24c-1.723 0-3.12 1.4-3.12 3.12 0 1.72 1.397 3.12 3.12 3.12zM836.4 2091.76c1.723 0 3.12-1.4 3.12-3.12 0-1.72-1.397-3.12-3.12-3.12s-3.12 1.4-3.12 3.12c0 1.72 1.397 3.12 3.12 3.12zm-486.935 173.3c1.723 0 3.12-1.4 3.12-3.12 0-1.72-1.397-3.12-3.12-3.12a3.121 3.121 0 0 0 0 6.24zm220.522 1253.18a3.115 3.115 0 1 0 0-6.23 3.116 3.116 0 1 0 0 6.23zm-243.329-181.19a3.121 3.121 0 0 0 0-6.24c-1.723 0-3.12 1.4-3.12 3.12 0 1.72 1.397 3.12 3.12 3.12zm-120.971-1206.9c1.723 0 3.12-1.4 3.12-3.12 0-1.72-1.397-3.12-3.12-3.12s-3.12 1.4-3.12 3.12c0 1.72 1.397 3.12 3.12 3.12zm323.622-330.17a4.995 4.995 0 0 0 4.991-4.99c0-2.76-2.235-4.99-4.991-4.99a4.988 4.988 0 0 0-4.992 4.99c0 2.75 2.235 4.99 4.992 4.99zM211.51 2026.56a4.995 4.995 0 0 0 4.992-4.99c0-2.76-2.235-4.99-4.992-4.99a4.988 4.988 0 0 0-4.991 4.99c0 2.75 2.235 4.99 4.991 4.99zm595.635 1332.25c1.723 0 3.12-1.4 3.12-3.12 0-1.72-1.397-3.12-3.12-3.12s-3.12 1.4-3.12 3.12c0 1.72 1.397 3.12 3.12 3.12zm-604.578-269.96a3.115 3.115 0 1 0 0-6.23 3.116 3.116 0 0 0 0 6.23zm370.539 127.5c1.723 0 3.12-1.4 3.12-3.12 0-1.72-1.397-3.12-3.12-3.12s-3.12 1.4-3.12 3.12c0 1.72 1.397 3.12 3.12 3.12zm-45.135-254.94a3.115 3.115 0 1 0 0-6.23 3.116 3.116 0 1 0 0 6.23zm-249.212-684.14a3.115 3.115 0 1 0 0-6.23 3.116 3.116 0 1 0 0 6.23zm489.985 299.96a3.115 3.115 0 1 0 0-6.23 3.116 3.116 0 0 0 0 6.23zm-198.615-298.09a4.985 4.985 0 0 0 0-9.97 4.985 4.985 0 1 0 0 9.97zm208.111-24.25a3.115 3.115 0 1 0 0-6.23 3.116 3.116 0 0 0 0 6.23zm-104.466 741.7a4.988 4.988 0 0 0 4.991-4.99c0-2.76-2.235-4.99-4.991-4.99a4.988 4.988 0 0 0-4.992 4.99c0 2.76 2.235 4.99 4.992 4.99zM198.07 2732.52a4.988 4.988 0 0 0 4.992-4.99c0-2.75-2.235-4.98-4.992-4.98a4.986 4.986 0 1 0 0 9.97zm0 426.07a4.988 4.988 0 0 0 4.992-4.99c0-2.75-2.235-4.99-4.992-4.99a4.995 4.995 0 0 0-4.991 4.99c0 2.76 2.235 4.99 4.991 4.99zm281.521-1267.91c1.723 0 3.12-1.4 3.12-3.12 0-1.72-1.397-3.12-3.12-3.12a3.121 3.121 0 0 0 0 6.24zm35.077 874.03c1.723 0 3.12-1.4 3.12-3.12 0-1.72-1.397-3.12-3.12-3.12a3.122 3.122 0 0 0-3.119 3.12c0 1.72 1.397 3.12 3.119 3.12zm150.088-176a4.988 4.988 0 0 0 4.991-4.99c0-2.75-2.234-4.99-4.991-4.99a4.994 4.994 0 0 0-4.991 4.99c0 2.76 2.234 4.99 4.991 4.99zm-188.285-288.87a4.988 4.988 0 0 0 4.991-4.99c0-2.76-2.235-4.99-4.991-4.99a4.988 4.988 0 0 0-4.992 4.99c0 2.76 2.235 4.99 4.992 4.99zm108.84-168.38a4.986 4.986 0 1 0 0-9.97 4.988 4.988 0 0 0-4.992 4.99c0 2.75 2.235 4.98 4.992 4.98zm-83.449 130.55a3.121 3.121 0 0 0 0-6.24c-1.723 0-3.12 1.4-3.12 3.12 0 1.72 1.397 3.12 3.12 3.12zm20.59 1197.34a3.121 3.121 0 0 0 0-6.24c-1.723 0-3.12 1.4-3.12 3.12 0 1.72 1.397 3.12 3.12 3.12zM493.75 1867.4a4.995 4.995 0 0 0 4.992-4.99c0-2.76-2.235-4.99-4.992-4.99a4.988 4.988 0 0 0-4.991 4.99c0 2.75 2.234 4.99 4.991 4.99z"/></g><g opacity=".2" clip-path="url(#c)" fill="#fff"><path opacity=".5" d="M1127.63 3641.76a3.115 3.115 0 1 1 0 6.23c-1.73 0-3.12-1.39-3.12-3.12a3.11 3.11 0 0 1 3.12-3.11zm-47.54 58.89c1.73 0 3.12 1.4 3.12 3.12 0 1.72-1.39 3.12-3.12 3.12-1.72 0-3.12-1.4-3.12-3.12 0-1.72 1.4-3.12 3.12-3.12zm-619.636-48.17c1.722 0 3.119-1.4 3.119-3.12 0-1.72-1.397-3.12-3.119-3.12-1.723 0-3.12 1.4-3.12 3.12 0 1.72 1.397 3.12 3.12 3.12zm-245.27-54.67c1.723 0 3.12-1.4 3.12-3.12 0-1.72-1.397-3.12-3.12-3.12s-3.12 1.4-3.12 3.12c0 1.72 1.397 3.12 3.12 3.12zm530.54 0c1.723 0 3.12-1.4 3.12-3.12 0-1.72-1.397-3.12-3.12-3.12s-3.12 1.4-3.12 3.12c0 1.72 1.397 3.12 3.12 3.12zm-216.415-7.83a4.995 4.995 0 0 0 4.991-4.99c0-2.76-2.235-4.99-4.991-4.99a4.988 4.988 0 0 0-4.992 4.99c0 2.75 2.235 4.99 4.992 4.99zm-49.718 90.7c1.723 0 3.12-1.4 3.12-3.12 0-1.72-1.397-3.12-3.12-3.12a3.121 3.121 0 0 0 0 6.24zm14.159-23.28a4.995 4.995 0 0 0 4.992-4.99c0-2.76-2.235-4.99-4.992-4.99a4.988 4.988 0 0 0-4.991 4.99c0 2.75 2.234 4.99 4.991 4.99z"/></g><defs><clipPath id="a"><path fill="#fff" d="M0 0h1440v1790H0z"/></clipPath><clipPath id="b"><path fill="#fff" transform="translate(0 1790)" d="M0 0h1440v1790H0z"/></clipPath><clipPath id="c"><path fill="#fff" transform="translate(0 3580)" d="M0 0h1440v1790H0z"/></clipPath></defs></svg>