<svg width="1440" height="1231" viewBox="0 0 1440 1231" fill="none" xmlns="http://www.w3.org/2000/svg"><g opacity=".2" clip-path="url(#a)" fill="#fff"><path opacity=".5" d="M1071.61 1090.24a3.11 3.11 0 0 1 3.12 3.11c0 1.73-1.39 3.12-3.12 3.12a3.115 3.115 0 0 1 0-6.23zm56.02-1028.484a3.12 3.12 0 0 1 3.12 3.118 3.12 3.12 0 0 1-6.24 0 3.115 3.115 0 0 1 3.12-3.118zM884.299 242.951a3.118 3.118 0 1 1 0 6.236 3.12 3.12 0 1 1 0-6.236zm480.491-21.757c1.72 0 3.12 1.396 3.12 3.118a3.121 3.121 0 0 1-6.24 0 3.115 3.115 0 0 1 3.12-3.118zm-234.04 142.461c1.72 0 3.12 1.396 3.12 3.118a3.121 3.121 0 0 1-6.24 0 3.115 3.115 0 0 1 3.12-3.118zm-45.14 254.931c1.72 0 3.12 1.396 3.12 3.118s-1.4 3.119-3.12 3.119a3.122 3.122 0 0 1-3.12-3.119c0-1.722 1.4-3.118 3.12-3.118zm240.77 384.184c1.73 0 3.12 1.39 3.12 3.12a3.11 3.11 0 0 1-3.12 3.11 3.115 3.115 0 1 1 0-6.23zm-94.96-419.36c2.75 0 4.99 2.234 4.99 4.989a4.996 4.996 0 0 1-9.99 0 4.996 4.996 0 0 1 5-4.989zm-159.11 231.88c1.72 0 3.12 1.396 3.12 3.118a3.121 3.121 0 0 1-6.24 0c0-1.722 1.4-3.118 3.12-3.118zm150.09 175.998c2.75 0 4.99 2.234 4.99 4.989a4.99 4.99 0 1 1-9.98 0 4.987 4.987 0 0 1 4.99-4.989zm-142.31-870.635c1.73 0 3.12 1.396 3.12 3.118a3.121 3.121 0 0 1-6.24 0c0-1.722 1.4-3.118 3.12-3.118zM72.792 1099.12a3.115 3.115 0 0 0 0 6.23 3.115 3.115 0 1 0 0-6.23zm84.576-257.002a4.99 4.99 0 0 0 0 9.978 4.99 4.99 0 1 0 0-9.978zm-35.217-338.969a3.12 3.12 0 1 0 3.12 3.118 3.12 3.12 0 0 0-3.12-3.118zm4.497 356.327a4.99 4.99 0 0 0-4.992 4.989 4.99 4.99 0 0 0 4.992 4.989 4.99 4.99 0 0 0 4.991-4.989 4.99 4.99 0 0 0-4.991-4.989zm0-426.067a4.99 4.99 0 0 0-4.992 4.989 4.99 4.99 0 0 0 4.992 4.988 4.99 4.99 0 1 0 0-9.977zM460.454 72.478a3.118 3.118 0 1 0 0-6.236 3.12 3.12 0 1 0 0 6.236zm3.119 193.875a3.12 3.12 0 1 0 .002-6.238 3.12 3.12 0 0 0-.002 6.238zM215.184 17.808a3.12 3.12 0 1 0-3.12-3.118 3.12 3.12 0 0 0 3.12 3.118zm530.54 0a3.12 3.12 0 1 0-3.12-3.118 3.12 3.12 0 0 0 3.12 3.118zM513.972 699.765a3.12 3.12 0 1 0 .002-6.238 3.12 3.12 0 0 0-.002 6.238zm-262.046 3.118a3.12 3.12 0 1 0 .002-6.238 3.12 3.12 0 0 0-.002 6.238zM167.35 959.882a4.99 4.99 0 0 0 0-9.978 4.99 4.99 0 1 0 0 9.978zm481.805-518.986a3.118 3.118 0 1 0 0-6.236 3.12 3.12 0 1 0 0 6.236zM836.4 301.76a3.118 3.118 0 1 0 0-6.236 3.12 3.12 0 1 0 0 6.236zM349.466 475.056a3.119 3.119 0 1 0 0-6.238 3.119 3.119 0 0 0 0 6.238zM205.687 340.147a3.118 3.118 0 1 0 0-6.236 3.12 3.12 0 1 0 0 6.236zM529.309 9.978a4.99 4.99 0 1 0 0-9.978 4.99 4.99 0 1 0 0 9.978zM211.51 236.558a4.99 4.99 0 0 0 4.992-4.989 4.99 4.99 0 0 0-4.992-4.989 4.99 4.99 0 0 0-4.991 4.989 4.99 4.99 0 0 0 4.991 4.989zm316.461 934.852a3.115 3.115 0 1 0 0-6.23 3.116 3.116 0 1 0 0 6.23zM278.759 487.273a3.118 3.118 0 1 0 0-6.236 3.12 3.12 0 1 0 0 6.236zm489.984 299.959a3.12 3.12 0 1 0 .001-6.239 3.12 3.12 0 0 0-.001 6.239zM570.129 489.144a4.99 4.99 0 0 0 4.991-4.989 4.99 4.99 0 0 0-4.991-4.989 4.99 4.99 0 0 0-4.992 4.989 4.99 4.99 0 0 0 4.992 4.989zm208.111-24.252a3.12 3.12 0 1 0-3.12-3.118 3.12 3.12 0 0 0 3.12 3.118zM673.774 1206.59a4.988 4.988 0 0 0 4.991-4.99c0-2.75-2.235-4.99-4.991-4.99a4.995 4.995 0 0 0-4.992 4.99c0 2.76 2.235 4.99 4.992 4.99zM198.07 942.524a4.99 4.99 0 0 0 0-9.978 4.99 4.99 0 1 0 0 9.978zm281.521-841.845a3.119 3.119 0 1 0-3.12-3.118 3.119 3.119 0 0 0 3.12 3.118zm35.077 874.031a3.12 3.12 0 1 0 .002-6.238 3.12 3.12 0 0 0-.002 6.238zm150.088-175.998a4.99 4.99 0 1 0 0-9.978 4.99 4.99 0 1 0 0 9.978zM476.471 509.839a4.99 4.99 0 0 0 0-9.977 4.99 4.99 0 0 0-4.992 4.988 4.99 4.99 0 0 0 4.992 4.989zM585.31 341.464a4.99 4.99 0 0 0 0-9.978 4.99 4.99 0 1 0 0 9.978zm-83.448 130.543a3.12 3.12 0 1 0-3.12-3.118 3.12 3.12 0 0 0 3.12 3.118zm-8.112-394.61a4.99 4.99 0 0 0 4.992-4.988 4.99 4.99 0 0 0-4.992-4.99 4.99 4.99 0 0 0-4.991 4.99 4.99 4.99 0 0 0 4.991 4.988z"/></g><defs><clipPath id="a"><path fill="#fff" d="M0 0h1440v1790H0z"/></clipPath></defs></svg>