<svg width="1085" height="490" viewBox="0 0 1085 490" fill="none" xmlns="http://www.w3.org/2000/svg"><path d="M85 320c1.384 46.359 38.641 83.616 85 85-46.359 1.384-83.616 38.641-85 85-1.384-46.359-38.641-83.616-85-85 46.359-1.384 83.616-38.641 85-85zM1035 0c.81 27.27 22.73 49.186 50 50-27.27.814-49.19 22.73-50 50-.81-27.27-22.73-49.186-50-50 27.27-.814 49.19-22.73 50-50zM120 250c.57 19.089 15.911 34.43 35 35-19.089.57-34.43 15.911-35 35-.57-19.089-15.911-34.43-35-35 19.089-.57 34.43-15.911 35-35z" fill="#3B3643"/></svg>