<svg viewBox="0 0 24 24" width="24" height="24" xmlns="http://www.w3.org/2000/svg"><title>Asset 9</title><g data-name="Layer 2"><g data-name="Layer 1"><path d="M6.67 22.74a11.9 11.9 0 0 0 10.66 0V1.26a11.9 11.9 0 0 0-10.66 0z" fill="#fff"/><path d="M6.67 1.26a12 12 0 0 0 0 21.48zm10.66 0v21.48a12 12 0 0 0 0-21.48z" fill="#ff3130"/><path d="M15.3 12l.52-1a.08.08 0 0 0-.1-.1l-1 .51-.25-.24a.42.42 0 0 0-.6 0 .28.28 0 0 1-.33 0 .27.27 0 0 1-.14-.3l.31-1.54a.11.11 0 0 0 0-.07.11.11 0 0 0-.08 0l-1 .5-.51-1.53a.08.08 0 0 0-.14 0l-.51 1.53-1-.5a.09.09 0 0 0-.07 0v.07l.31 1.54a.27.27 0 0 1-.14.3.26.26 0 0 1-.33 0 .43.43 0 0 0-.61 0l-.24.24-1-.51a.08.08 0 0 0-.08 0 .06.06 0 0 0 0 .08l.52 1-.23.22a.44.44 0 0 0-.13.33.42.42 0 0 0 .13.32l1.2 1.35h1.6l.26 1.54a.08.08 0 0 0 .07.07h.54a.08.08 0 0 0 .07-.07l.26-1.54h1.6l1.33-1.34a.42.42 0 0 0 .13-.32.44.44 0 0 0-.13-.33z" fill="#ff3131"/></g></g></svg>