<svg width="17" height="11" viewBox="0 0 17 11" fill="none" xmlns="http://www.w3.org/2000/svg"><path d="M16.984 10.796a.288.288 0 0 0 .016-.09V.294a.286.286 0 0 0-.016-.09L16.98.19a.291.291 0 0 0-.054-.09c-.002-.001-.002-.004-.003-.005L16.92.093a.296.296 0 0 0-.088-.063l-.007-.004a.294.294 0 0 0-.1-.024l-.01-.001-.01-.001H.295l-.01.001-.01.001a.297.297 0 0 0-.101.024L.169.03a.292.292 0 0 0-.088.064L.078.096.074.1A.294.294 0 0 0 .02.19L.016.203A.287.287 0 0 0 0 .294v10.412c0 .032.007.063.016.092l.004.011a.293.293 0 0 0 .055.091l.003.005.004.004c.01.01.02.018.032.027l.014.012a.279.279 0 0 0 .041.023l.01.005A.298.298 0 0 0 .297 11h16.408c.041 0 .08-.008.116-.024l.016-.008a.303.303 0 0 0 .036-.02l.017-.014a.226.226 0 0 0 .028-.025l.005-.005.004-.006a.295.295 0 0 0 .054-.09l.004-.012zM.592.96L5.57 5.48.59 10.035V.96zm10.204 4.298c-.02.013-.042.024-.059.043-.007.007-.009.016-.014.024L8.5 7.343 1.058.588h14.884l-5.146 4.67zm-4.787.62l2.292 2.08a.296.296 0 0 0 .398 0l2.263-2.055 4.978 4.508H1.054L6.01 5.878zm5.392-.373L16.408.96v9.08l-5.007-4.535z" fill="#FF7F27"/></svg>