<svg width="15" height="15" viewBox="0 0 15 15" fill="none" xmlns="http://www.w3.org/2000/svg"><path d="M9.54.75c1.35 0 2.025 0 2.76.225a2.838 2.838 0 0 1 1.71 1.71c.24.75.24 1.425.24 2.775v4.08c0 1.35 0 2.025-.225 2.76a2.838 2.838 0 0 1-1.71 1.71c-.735.24-1.41.24-2.775.24H5.46c-1.35 0-2.025 0-2.76-.225A2.862 2.862 0 0 1 .99 12.3c-.24-.72-.24-1.395-.24-2.76V5.46c0-1.35 0-2.025.225-2.76A2.9 2.9 0 0 1 2.7.99C3.435.75 4.11.75 5.46.75h4.08z" fill="#3E8FC1"/><path d="M3.855 6.645c-.495-.9-.69-1.635-.69-2.13 0-.495.12-.63.24-.75s.675-.45.78-.525c.09-.06.45-.195.675.135.225.33.645.975.945 1.41.465.615.09.885-.03 1.05-.225.3-.345.375-.345.735s1.02 1.41 1.26 1.665c.24.255 1.26 1.14 1.575 1.2.315.045.75-.285.84-.375.465-.36.72-.09.93.03.21.12 1.17.72 1.47.915.285.195.255.51.255.51s-.195.585-.645 1.02c-.105.105-.3.24-.765.24s-.975-.09-2.175-.75c-.975-.54-1.905-1.38-2.4-1.875-.495-.48-1.35-1.47-1.92-2.505z" fill="#fff"/></svg>