<svg width="65" height="65" viewBox="0 0 65 65" fill="none" xmlns="http://www.w3.org/2000/svg"><mask id="a" maskUnits="userSpaceOnUse" x="0" y="0" width="65" height="65"><path fill="#C4C4C4" d="M0 0h65v65H0z"/></mask><g mask="url(#a)"><mask id="b" maskUnits="userSpaceOnUse" x="11" y="5" width="46" height="56"><path d="M23.554 48.441V36.016L36.803 53.52a18.087 18.087 0 0 0 14.421 7.17h5.298L34.064 31.712l21.399-26.06h-6.465c-4.133 0-8.04 1.884-10.614 5.118l-14.83 18.635V5.729c-6.765 0-12.25 5.484-12.25 12.25V60.69c6.765 0 12.25-5.485 12.25-12.25z" fill="#fff"/></mask><g mask="url(#b)"><path d="M23.554 48.441V36.016L36.803 53.52a18.087 18.087 0 0 0 14.421 7.17h5.298L34.064 31.712l21.399-26.06h-6.465c-4.133 0-8.04 1.884-10.614 5.118l-14.83 18.635V5.729c-6.765 0-12.25 5.484-12.25 12.25V60.69c6.765 0 12.25-5.485 12.25-12.25z" fill="url(#c)"/><path d="M23.554 60.69V36.017L36.803 53.52a18.087 18.087 0 0 0 14.421 7.17h5.298L34.064 31.712l21.399-26.06h-6.465c-4.133 0-8.04 1.884-10.614 5.118l-14.83 18.635V5.729h-12.25v54.962h12.25z" fill="url(#d)"/><path d="M5.42 37.983l32.35 27.012h34.118L34.064 31.711c-4.342-4.869-5.185-8.994-2.53-12.375.775-.986-7.93 5.23-26.114 18.647z" fill="url(#e)"/><path d="M23.512-4.296h-20.8v84.557h20.8V-4.296z" fill="url(#f)"/></g></g><defs><linearGradient id="c" x1="18.653" y1="32.882" x2="45.233" y2="14.365" gradientUnits="userSpaceOnUse"><stop stop-color="#48EDF1"/><stop offset="1" stop-color="#0C9DF1"/></linearGradient><linearGradient id="d" x1="18.653" y1="32.882" x2="45.233" y2="14.365" gradientUnits="userSpaceOnUse"><stop stop-color="#48EDF1"/><stop offset="1" stop-color="#0C9DF1"/></linearGradient><linearGradient id="e" x1="40.637" y1="32.148" x2="56.068" y2="49.837" gradientUnits="userSpaceOnUse"><stop stop-color="#48EDF1"/><stop offset="1" stop-color="#0C9DF1"/></linearGradient><linearGradient id="f" x1="13.15" y1="-.876" x2="19.897" y2="44.8" gradientUnits="userSpaceOnUse"><stop stop-color="#48EDF1"/><stop offset="1" stop-color="#0C9DF1"/></linearGradient></defs></svg>