<svg width="46" height="46" viewBox="0 0 46 46" fill="none" xmlns="http://www.w3.org/2000/svg"><mask id="a" maskUnits="userSpaceOnUse" x="0" y="0" width="46" height="46"><path fill="#C4C4C4" d="M0 0h46v46H0z"/></mask><g mask="url(#a)"><path d="M32.944 41.938c5.531 0 10.012-4.49 10-10.021l-.006-2.928H3.842l-.027 12.949h29.13z" fill="url(#b)"/><path d="M13.822 2.794c-5.526-.004-10.008 4.474-10.008 10v2.97H42.91l.028-12.95-29.117-.02z" fill="url(#c)"/><path d="M3.814 15.764h12.977l-.027 26.146-12.95.028V15.763z" fill="url(#d)"/><path d="M42.938 28.989H30.016L29.99 2.842l12.949-.027v26.174z" fill="url(#e)"/></g><defs><linearGradient id="b" x1="16.626" y1="35.312" x2="43.96" y2="35.312" gradientUnits="userSpaceOnUse"><stop stop-color="#D43FB6"/><stop offset="1" stop-color="#3523FF"/></linearGradient><linearGradient id="c" x1="4.063" y1="9.496" x2="30.707" y2="10.463" gradientUnits="userSpaceOnUse"><stop stop-color="#3523FF"/><stop offset="1" stop-color="#D43FB6"/></linearGradient><linearGradient id="d" x1="10.827" y1="15.984" x2="9.408" y2="43.316" gradientUnits="userSpaceOnUse"><stop stop-color="#D43FB6"/><stop offset="1" stop-color="#3523FF"/></linearGradient><linearGradient id="e" x1="37.006" y1="3.059" x2="35.569" y2="30.368" gradientUnits="userSpaceOnUse"><stop stop-color="#3523FF"/><stop offset="1" stop-color="#D43FB6"/></linearGradient></defs></svg>