<svg width="533" height="461" viewBox="0 0 533 461" fill="none" xmlns="http://www.w3.org/2000/svg"><g filter="url(#a)"><rect x="45.214" y="6" width="266.361" height="102.047" rx="8.648" fill="#fff"/><path d="M72.088 26.526c-.886 0-1.573.334-2.06 1.003-.486.664-.73 1.591-.73 2.782 0 2.478.93 3.717 2.79 3.717.78 0 1.726-.195 2.836-.585v1.976c-.913.38-1.931.57-3.056.57-1.617 0-2.853-.49-3.71-1.467-.856-.983-1.284-2.392-1.284-4.226 0-1.155.21-2.166.631-3.033.42-.871 1.024-1.538 1.81-1.999.79-.466 1.714-.7 2.773-.7 1.08 0 2.164.262 3.254.784l-.76 1.915c-.416-.198-.834-.37-1.255-.517a3.742 3.742 0 0 0-1.239-.22zm12.869 3.04a1.7 1.7 0 0 1-.434 1.17c-.283.32-.704.525-1.261.616v.061c.603.071 1.079.279 1.429.623.354.34.532.76.532 1.262 0 .826-.325 1.457-.973 1.893-.649.43-1.576.646-2.782.646h-4.355v-8.498h4.355c1.165 0 2.037.19 2.614.57.583.375.875.928.875 1.657zm-2.136 3.61c0-.334-.13-.575-.388-.721-.258-.152-.646-.228-1.163-.228h-1.84v2.006h1.886c.491 0 .864-.091 1.117-.273a.912.912 0 0 0 .388-.783zm-.213-3.427c0-.517-.41-.776-1.231-.776H79.43v1.68h1.68c.491 0 .864-.07 1.117-.213.253-.142.38-.372.38-.691zm6.309 1.824c0 .841.136 1.477.41 1.908.279.43.73.646 1.353.646.618 0 1.062-.213 1.33-.639.274-.43.41-1.069.41-1.915 0-.841-.136-1.472-.41-1.893-.273-.42-.722-.63-1.345-.63-.618 0-1.064.21-1.338.63-.273.416-.41 1.047-.41 1.893zm5.875 0c0 1.383-.365 2.465-1.094 3.245-.73.78-1.746 1.17-3.048 1.17-.816 0-1.536-.176-2.159-.531a3.589 3.589 0 0 1-1.436-1.543c-.335-.669-.502-1.45-.502-2.341 0-1.389.362-2.468 1.087-3.238.724-.77 1.743-1.155 3.055-1.155.816 0 1.536.177 2.159.532a3.552 3.552 0 0 1 1.436 1.527c.335.664.502 1.442.502 2.334zm1.399-.829c0-1.95.37-3.43 1.11-4.439.744-1.013 1.905-1.654 3.481-1.923a99.312 99.312 0 0 1 3.428-.501l.266 2.022c-.659.076-1.827.238-3.504.486-.639.101-1.115.253-1.43.456a1.85 1.85 0 0 0-.706.867c-.152.375-.246.874-.281 1.497h.113a2.692 2.692 0 0 1 1.065-.958 3.105 3.105 0 0 1 1.421-.334c1.049 0 1.865.322 2.447.965.583.639.875 1.556.875 2.752 0 1.378-.37 2.45-1.11 3.215-.735.76-1.751 1.14-3.048 1.14-1.297 0-2.31-.464-3.04-1.391-.725-.932-1.087-2.217-1.087-3.854zm4.264 3.367c1.099 0 1.649-.757 1.649-2.272 0-1.475-.496-2.212-1.49-2.212a1.94 1.94 0 0 0-.82.19 3.006 3.006 0 0 0-.745.502 2.215 2.215 0 0 0-.495.615c0 1.029.165 1.817.495 2.364.329.542.798.813 1.406.813zm7.783-2.538c0 .841.137 1.477.41 1.908.279.43.73.646 1.353.646.619 0 1.062-.213 1.331-.639.273-.43.41-1.069.41-1.915 0-.841-.137-1.472-.41-1.893-.274-.42-.723-.63-1.346-.63-.618 0-1.064.21-1.338.63-.273.416-.41 1.047-.41 1.893zm5.875 0c0 1.383-.364 2.465-1.094 3.245-.73.78-1.746 1.17-3.048 1.17-.816 0-1.535-.176-2.159-.531a3.587 3.587 0 0 1-1.436-1.543c-.335-.669-.502-1.45-.502-2.341 0-1.389.362-2.468 1.087-3.238s1.743-1.155 3.056-1.155c.815 0 1.535.177 2.158.532a3.551 3.551 0 0 1 1.437 1.527c.334.664.501 1.442.501 2.334zm7.236 2.569V29.08h-1.74a22.122 22.122 0 0 1-.525 2.683c-.217.846-.522 1.64-.912 2.379h3.177zm3.565 4.743h-2.082v-3.048h-5.716v3.048h-2.083v-4.743h.715c.486-.755.894-1.708 1.223-2.858.33-1.15.56-2.465.692-3.945h6.005v6.803h1.246v4.743zm3.77-11.546v3.269h3.238v-3.269h2.318v8.498h-2.318v-3.504h-3.238v3.504h-2.318v-8.498h2.318zm13.385 8.498l-.448-1.155h-.061c-.39.491-.793.833-1.208 1.026-.411.187-.948.28-1.612.28-.816 0-1.459-.232-1.93-.698-.467-.466-.7-1.13-.7-1.992 0-.902.314-1.566.943-1.991.633-.43 1.586-.67 2.858-.715l1.474-.045v-.373c0-.861-.441-1.292-1.322-1.292-.679 0-1.477.205-2.395.616l-.767-1.566c.978-.512 2.062-.768 3.253-.768 1.14 0 2.014.249 2.622.745.608.497.912 1.252.912 2.265v5.663h-1.619zm-.684-3.937l-.897.03c-.674.02-1.175.142-1.505.365-.329.223-.494.562-.494 1.018 0 .654.375.98 1.125.98.537 0 .966-.154 1.285-.463.324-.309.486-.72.486-1.231v-.7zm5.99 3.937h-2.509l2.288-3.36c-.547-.228-.962-.557-1.246-.988-.279-.43-.418-.937-.418-1.52 0-.82.306-1.464.919-1.93.619-.467 1.46-.7 2.524-.7h3.952v8.498h-2.318v-3.162h-1.277l-1.915 3.162zm.387-5.853c0 .355.14.634.418.836.279.198.644.297 1.095.297h1.292v-2.144h-1.588c-.381 0-.679.094-.897.282a.913.913 0 0 0-.32.73zm17.802-2.69c1.418.116 2.531.554 3.336 1.314.806.76 1.209 1.754 1.209 2.98 0 1.252-.398 2.255-1.193 3.01-.796.75-1.913 1.183-3.352 1.3v3.678h-2.151v-3.678c-1.435-.132-2.557-.58-3.368-1.346-.805-.77-1.208-1.758-1.208-2.964 0-1.282.39-2.293 1.17-3.033.781-.745 1.916-1.165 3.406-1.261V24.01h2.151v3.284zm-4.341 4.294c0 .715.196 1.297.586 1.748.39.446.925.715 1.604.806v-5.108c-.654.086-1.184.363-1.589.829-.4.466-.601 1.041-.601 1.725zm6.507 0c0-.669-.19-1.231-.57-1.687-.38-.462-.912-.74-1.596-.836v5.077c.673-.091 1.203-.362 1.588-.813.385-.451.578-1.032.578-1.741zm6.149-.015c0 .841.137 1.477.41 1.908.279.43.73.646 1.353.646.618 0 1.062-.213 1.33-.639.274-.43.411-1.069.411-1.915 0-.841-.137-1.472-.411-1.893-.273-.42-.722-.63-1.345-.63-.618 0-1.064.21-1.338.63-.273.416-.41 1.047-.41 1.893zm5.875 0c0 1.383-.365 2.465-1.094 3.245-.73.78-1.746 1.17-3.048 1.17-.816 0-1.536-.176-2.159-.531a3.587 3.587 0 0 1-1.436-1.543c-.335-.669-.502-1.45-.502-2.341 0-1.389.362-2.468 1.087-3.238s1.743-1.155 3.055-1.155c.816 0 1.536.177 2.159.532a3.557 3.557 0 0 1 1.437 1.527c.334.664.501 1.442.501 2.334zm6.583 4.416c-.999 0-1.781-.362-2.349-1.087h-.122c.081.71.122 1.12.122 1.231v3.444h-2.318V27.339h1.885l.327 1.102h.106c.542-.84 1.345-1.261 2.409-1.261 1.004 0 1.789.387 2.357 1.163.567.775.851 1.852.851 3.23 0 .907-.134 1.695-.403 2.364-.263.669-.641 1.178-1.132 1.528-.492.35-1.07.524-1.733.524zm-.684-6.955c-.573 0-.991.178-1.255.532-.263.35-.4.93-.41 1.74v.252c0 .912.134 1.565.403 1.96.273.396.704.593 1.292.593 1.039 0 1.558-.856 1.558-2.569 0-.836-.129-1.462-.387-1.877-.254-.42-.654-.63-1.201-.63zm16.577 6.803h-2.166V29.14l-.122.47c-.273 1.07-.519 1.878-.737 2.425l-1.505 3.8h-1.649l-1.528-3.83c-.218-.557-.451-1.34-.7-2.349l-.144-.516v6.696h-2.159v-8.498h3.193l1.459 3.626c.152.39.291.838.418 1.345.132.507.221.94.266 1.3.167-.76.297-1.305.388-1.634.096-.335.2-.641.311-.92.112-.279.616-1.518 1.513-3.717h3.162v8.498zm7.836 0l-.448-1.155h-.061c-.39.491-.793.833-1.208 1.026-.411.187-.948.28-1.612.28-.816 0-1.459-.232-1.93-.698-.466-.466-.7-1.13-.7-1.992 0-.902.315-1.566.943-1.991.633-.43 1.586-.67 2.858-.715l1.474-.045v-.373c0-.861-.44-1.292-1.322-1.292-.679 0-1.477.205-2.394.616l-.768-1.566c.978-.512 2.062-.768 3.253-.768 1.14 0 2.014.249 2.622.745.608.497.912 1.252.912 2.265v5.663h-1.619zm-.684-3.937l-.897.03c-.673.02-1.175.142-1.504.365-.33.223-.495.562-.495 1.018 0 .654.375.98 1.125.98.538 0 .966-.154 1.285-.463.324-.309.486-.72.486-1.231v-.7z" fill="#001843"/><path opacity=".5" d="M73.138 68.7h-6.493v-.967l2.602-2.614c.792-.802 1.315-1.374 1.567-1.716a4.38 4.38 0 0 0 .568-1c.126-.325.189-.674.189-1.047 0-.528-.16-.944-.48-1.25-.32-.311-.763-.467-1.331-.467-.41 0-.8.068-1.169.203-.365.135-.772.38-1.223.736l-.594-.763c.91-.757 1.9-1.135 2.972-1.135.928 0 1.656.239 2.183.716.527.473.79 1.11.79 1.912 0 .626-.175 1.246-.527 1.858-.351.613-1.009 1.388-1.973 2.324l-2.162 2.115v.054h5.081v1.04zm7.919 0h-6.493v-.967l2.6-2.614c.794-.802 1.316-1.374 1.568-1.716a4.38 4.38 0 0 0 .568-1c.126-.325.19-.674.19-1.047 0-.528-.16-.944-.48-1.25-.32-.311-.764-.467-1.332-.467-.41 0-.8.068-1.168.203-.365.135-.773.38-1.223.736l-.595-.763c.91-.757 1.9-1.135 2.973-1.135.928 0 1.655.239 2.182.716.527.473.79 1.11.79 1.912 0 .626-.175 1.246-.526 1.858-.352.613-1.01 1.388-1.973 2.324l-2.162 2.115v.054h5.08v1.04zm2.675 0l4.094-8.844h-5.384v-1.034h6.574v.898l-4.04 8.98h-1.244zm17.168-3.71c0 1.208-.304 2.151-.912 2.831-.608.676-1.448 1.014-2.52 1.014-.663 0-1.25-.156-1.764-.466a3.077 3.077 0 0 1-1.189-1.338c-.28-.581-.419-1.261-.419-2.04 0-1.208.302-2.147.906-2.818.603-.676 1.44-1.013 2.513-1.013 1.036 0 1.858.344 2.466 1.033.613.69.919 1.622.919 2.797zm-5.642 0c0 .946.19 1.667.568 2.162.378.496.934.744 1.669.744.734 0 1.29-.246 1.668-.737.383-.495.575-1.218.575-2.169 0-.941-.192-1.655-.575-2.141-.378-.491-.939-.737-1.682-.737-.734 0-1.288.241-1.662.723-.374.482-.56 1.2-.56 2.155zm12.608-2.736h-2.406V68.7h-1.121v-6.446h-2.378v-.96h5.905v.96zm7.472.899c0 .482-.14.849-.419 1.1-.275.249-.662.415-1.162.5v.062c.631.085 1.09.27 1.378.554.293.284.44.675.44 1.175 0 .69-.255 1.221-.764 1.595-.504.374-1.243.56-2.216.56h-3.263v-7.404h3.249c1.838 0 2.757.619 2.757 1.858zm-.885 3.317c0-.4-.153-.691-.459-.872-.302-.184-.804-.277-1.507-.277h-2.034v2.44h2.061c1.293 0 1.939-.43 1.939-1.291zm-.209-3.21c0-.36-.14-.614-.419-.763-.275-.153-.694-.23-1.257-.23h-2.115v2.088h1.899c.693 0 1.182-.085 1.466-.257.284-.17.426-.45.426-.837zm6.094 5.575c-1.095 0-1.96-.334-2.595-1-.63-.667-.946-1.592-.946-2.777 0-1.194.293-2.142.879-2.845.59-.702 1.38-1.053 2.371-1.053.928 0 1.662.306 2.203.918.54.608.81 1.412.81 2.412v.71h-5.101c.023.87.241 1.529.656 1.98.419.45 1.007.675 1.763.675.797 0 1.586-.167 2.365-.5v1a5.74 5.74 0 0 1-1.128.365 6.102 6.102 0 0 1-1.277.115zm-.304-6.736c-.595 0-1.07.193-1.426.58-.351.388-.558.924-.621 1.609h3.871c0-.707-.158-1.248-.473-1.622-.315-.378-.766-.567-1.351-.567zm9.938.155h-2.405V68.7h-1.122v-6.446h-2.378v-.96h5.905v.96zm7.858 2.736c0 1.208-.304 2.151-.912 2.831-.608.676-1.448 1.014-2.52 1.014-.663 0-1.25-.156-1.764-.466a3.078 3.078 0 0 1-1.189-1.338c-.279-.581-.419-1.261-.419-2.04 0-1.208.302-2.147.906-2.818.603-.676 1.441-1.013 2.513-1.013 1.036 0 1.858.344 2.466 1.033.612.69.919 1.622.919 2.797zm-5.642 0c0 .946.189 1.667.568 2.162.378.496.934.744 1.669.744.734 0 1.29-.246 1.668-.737.383-.495.575-1.218.575-2.169 0-.941-.192-1.655-.575-2.141-.378-.491-.939-.737-1.682-.737-.734 0-1.288.241-1.662.723-.374.482-.561 1.2-.561 2.155zm13.621-1.837c0 .482-.14.849-.419 1.1-.275.249-.662.415-1.162.5v.062c.631.085 1.09.27 1.378.554.293.284.439.675.439 1.175 0 .69-.254 1.221-.763 1.595-.504.374-1.243.56-2.216.56h-3.263v-7.404h3.249c1.838 0 2.757.619 2.757 1.858zm-.885 3.317c0-.4-.153-.691-.46-.872-.301-.184-.804-.277-1.506-.277h-2.034v2.44h2.061c1.293 0 1.939-.43 1.939-1.291zm-.21-3.21c0-.36-.139-.614-.418-.763-.275-.153-.694-.23-1.257-.23h-2.115v2.088h1.899c.693 0 1.182-.085 1.466-.257.284-.17.425-.45.425-.837zm12.952 1.73c0 1.208-.304 2.151-.912 2.831-.608.676-1.448 1.014-2.52 1.014-.662 0-1.25-.156-1.763-.466a3.072 3.072 0 0 1-1.189-1.338c-.28-.581-.419-1.261-.419-2.04 0-1.208.301-2.147.905-2.818.604-.676 1.441-1.013 2.513-1.013 1.036 0 1.858.344 2.466 1.033.613.69.919 1.622.919 2.797zm-5.641 0c0 .946.189 1.667.567 2.162.379.496.935.744 1.669.744s1.291-.246 1.669-.737c.383-.495.574-1.218.574-2.169 0-.941-.191-1.655-.574-2.141-.378-.491-.939-.737-1.682-.737-.735 0-1.289.241-1.662.723-.374.482-.561 1.2-.561 2.155zm12.607-2.736h-2.405V68.7h-1.122v-6.446h-2.378v-.96h5.905v.96zm10.668-1.108c0 .63-.178 1.146-.534 1.547-.351.401-.851.67-1.499.804v.054c.792.1 1.38.352 1.763.757s.574.937.574 1.594c0 .942-.326 1.667-.979 2.176-.654.504-1.581.757-2.784.757-.522 0-1.002-.04-1.439-.122a4.839 4.839 0 0 1-1.264-.412v-1.067a6.3 6.3 0 0 0 2.744.648c1.707 0 2.56-.669 2.56-2.007 0-1.198-.941-1.797-2.824-1.797h-.973v-.966h.987c.77 0 1.38-.169 1.831-.507.45-.342.675-.815.675-1.418 0-.482-.167-.86-.5-1.136-.329-.274-.777-.412-1.344-.412-.433 0-.84.059-1.223.176-.383.117-.82.333-1.311.649l-.567-.757c.405-.32.871-.57 1.398-.75a5.07 5.07 0 0 1 1.676-.277c.959 0 1.704.22 2.236.662.531.437.797 1.038.797 1.804zm8.29 7.554h-6.493v-.967l2.602-2.614c.792-.802 1.315-1.374 1.567-1.716.252-.343.441-.676.568-1 .126-.325.189-.674.189-1.047 0-.528-.16-.944-.48-1.25-.32-.311-.763-.467-1.331-.467-.41 0-.799.068-1.169.203-.365.135-.772.38-1.223.736l-.594-.763c.91-.757 1.901-1.135 2.973-1.135.927 0 1.655.239 2.182.716.527.473.79 1.11.79 1.912 0 .626-.175 1.246-.527 1.858-.351.613-1.009 1.388-1.973 2.324l-2.162 2.115v.054h5.081v1.04zm7.973-4.953c0 1.707-.271 2.982-.811 3.824-.536.843-1.358 1.264-2.466 1.264-1.063 0-1.872-.43-2.426-1.29-.554-.865-.831-2.131-.831-3.798 0-1.72.268-2.997.804-3.83.536-.834 1.354-1.25 2.453-1.25 1.072 0 1.885.434 2.439 1.303.558.87.838 2.129.838 3.777zm-5.399 0c0 1.437.169 2.484.507 3.142.338.653.876.98 1.615.98.748 0 1.288-.332 1.621-.994.338-.666.507-1.709.507-3.128s-.169-2.457-.507-3.114c-.333-.663-.873-.994-1.621-.994-.739 0-1.277.327-1.615.98-.338.649-.507 1.691-.507 3.128zm15.195-2.452h1.23l-3.196 3.574 3.459 3.83h-1.31l-3.378-3.75v3.75h-1.122v-7.404h1.122v3.6l3.195-3.6zm8.392 7.405h-1.135v-6.446h-2.223c-.122 1.604-.291 2.876-.507 3.817-.216.942-.498 1.63-.845 2.068-.342.437-.779.655-1.31.655-.243 0-.437-.027-.581-.08v-.832c.099.027.211.04.338.04.518 0 .93-.547 1.236-1.641.306-1.095.538-2.757.696-4.986h4.331V68.7zm3.439-7.405v4.695l-.048 1.23-.02.385 4.007-6.31h1.398V68.7h-1.047v-4.527l.02-.892.034-.878-4 6.297h-1.398v-7.405h1.054zm10.843 7.54c-1.094 0-1.959-.334-2.594-1-.631-.667-.946-1.592-.946-2.777 0-1.194.293-2.142.878-2.845.591-.702 1.381-1.053 2.372-1.053.928 0 1.662.306 2.202.918.541.608.811 1.412.811 2.412v.71h-5.101c.023.87.241 1.529.656 1.98.418.45 1.006.675 1.763.675a5.97 5.97 0 0 0 2.365-.5v1a5.749 5.749 0 0 1-1.129.365 6.095 6.095 0 0 1-1.277.115zm-.304-6.736c-.594 0-1.069.193-1.425.58-.351.388-.559.924-.622 1.609h3.872c0-.707-.158-1.248-.473-1.622-.316-.378-.766-.567-1.352-.567zm6.068-.804v3.1h4.148v-3.1h1.121V68.7h-1.121v-3.338h-4.148V68.7h-1.122v-7.405h1.122zm12.641.96h-2.406V68.7h-1.121v-6.446h-2.378v-.96h5.905v.96zm7.857 2.735c0 1.208-.304 2.151-.912 2.831-.608.676-1.448 1.014-2.52 1.014-.662 0-1.25-.156-1.763-.466-.514-.311-.91-.757-1.19-1.338-.279-.581-.418-1.261-.418-2.04 0-1.208.301-2.147.905-2.818.603-.676 1.441-1.013 2.513-1.013 1.036 0 1.858.344 2.466 1.033.613.69.919 1.622.919 2.797zm-5.641 0c0 .946.189 1.667.567 2.162.379.496.935.744 1.669.744s1.29-.246 1.669-.737c.383-.495.574-1.218.574-2.169 0-.941-.191-1.655-.574-2.141-.379-.491-.939-.737-1.683-.737-.734 0-1.288.241-1.662.723-.373.482-.56 1.2-.56 2.155zm13.62-1.837c0 .482-.139.849-.419 1.1-.274.249-.662.415-1.162.5v.062c.631.085 1.09.27 1.379.554.292.284.439.675.439 1.175 0 .69-.255 1.221-.764 1.595-.504.374-1.243.56-2.216.56h-3.263v-7.404h3.25c1.838 0 2.756.619 2.756 1.858zm-.885 3.317c0-.4-.153-.691-.459-.872-.302-.184-.804-.277-1.507-.277h-2.033v2.44h2.06c1.293 0 1.939-.43 1.939-1.291zm-.209-3.21c0-.36-.14-.614-.419-.763-.275-.153-.694-.23-1.257-.23h-2.114v2.088h1.898c.694 0 1.182-.085 1.466-.257.284-.17.426-.45.426-.837z" fill="#000"/><path d="M71.557 80.462c-1.085 0-1.943.363-2.574 1.088-.626.72-.94 1.71-.94 2.966 0 1.293.303 2.293.906 3 .608.703 1.473 1.054 2.595 1.054.689 0 1.475-.124 2.358-.372v1.007c-.685.257-1.53.385-2.534.385-1.455 0-2.579-.441-3.371-1.324-.789-.883-1.183-2.137-1.183-3.763 0-1.018.19-1.91.568-2.676a4.126 4.126 0 0 1 1.648-1.77c.721-.414 1.568-.622 2.54-.622 1.037 0 1.942.19 2.717.568l-.487.986c-.747-.351-1.495-.527-2.243-.527zm10.337 3.446c0 .482-.14.85-.419 1.101-.274.248-.662.415-1.162.5v.061c.63.086 1.09.27 1.379.554.292.284.439.676.439 1.176 0 .689-.255 1.22-.764 1.594-.504.374-1.243.561-2.216.561h-3.263V82.05h3.25c1.837 0 2.756.62 2.756 1.858zm-.885 3.317c0-.4-.153-.691-.46-.871-.301-.185-.803-.277-1.506-.277H77.01v2.439h2.061c1.293 0 1.94-.43 1.94-1.29zm-.21-3.209c0-.36-.139-.615-.418-.763-.275-.153-.694-.23-1.257-.23H77.01v2.088h1.898c.694 0 1.182-.086 1.466-.257.284-.171.426-.45.426-.838zm9.358 1.73c0 1.207-.304 2.15-.912 2.83-.608.676-1.448 1.014-2.52 1.014-.662 0-1.25-.155-1.763-.466a3.076 3.076 0 0 1-1.19-1.338c-.279-.58-.418-1.261-.418-2.04 0-1.207.302-2.146.905-2.818.604-.675 1.441-1.013 2.513-1.013 1.036 0 1.858.344 2.466 1.034.613.689.92 1.621.92 2.797zm-5.641 0c0 .946.189 1.666.567 2.162.379.495.935.743 1.67.743.733 0 1.29-.245 1.668-.736.383-.496.574-1.219.574-2.17 0-.94-.191-1.654-.574-2.141-.378-.491-.94-.736-1.682-.736-.735 0-1.289.24-1.662.723-.374.481-.561 1.2-.561 2.155zm7.229-.73c0-1.621.239-2.885.716-3.79.478-.91 1.234-1.478 2.27-1.703a93.749 93.749 0 0 1 3.406-.669l.209.987c-1.563.261-2.68.468-3.351.621-.653.149-1.144.5-1.473 1.054-.324.554-.502 1.309-.534 2.264h.081a2.91 2.91 0 0 1 1.081-.892 3.11 3.11 0 0 1 1.385-.325c.91 0 1.62.296 2.129.886.508.59.763 1.407.763 2.452 0 1.158-.295 2.063-.885 2.716-.59.649-1.412.973-2.466.973-1.04 0-1.856-.398-2.446-1.196-.59-.797-.885-1.923-.885-3.378zm3.432 3.635c1.374 0 2.06-.876 2.06-2.628 0-1.671-.623-2.507-1.87-2.507-.343 0-.674.072-.994.216-.315.14-.606.327-.871.561a3.034 3.034 0 0 0-.608.723c0 1.185.186 2.088.56 2.71.374.616.949.925 1.723.925zm11.601-2.905c0 1.207-.304 2.15-.912 2.83-.608.676-1.448 1.014-2.52 1.014-.663 0-1.25-.155-1.764-.466a3.078 3.078 0 0 1-1.189-1.338c-.279-.58-.419-1.261-.419-2.04 0-1.207.302-2.146.906-2.818.603-.675 1.441-1.013 2.513-1.013 1.036 0 1.858.344 2.466 1.034.613.689.919 1.621.919 2.797zm-5.642 0c0 .946.189 1.666.568 2.162.378.495.934.743 1.669.743.734 0 1.29-.245 1.668-.736.383-.496.575-1.219.575-2.17 0-.94-.192-1.654-.575-2.141-.378-.491-.939-.736-1.682-.736-.734 0-1.288.24-1.662.723-.374.481-.561 1.2-.561 2.155zm14.047 6.27h-1.088v-2.561h-5.175v2.56h-1.081V88.49h.581c.603-.82 1.076-1.782 1.418-2.885.343-1.104.521-2.288.534-3.554h3.75v6.439h1.061v3.527zm-2.142-3.527v-5.554h-1.662a12.32 12.32 0 0 1-.581 3.04c-.325 1.023-.73 1.86-1.216 2.514h3.459zm4.75-6.439v3.101h4.148V82.05h1.121v7.405h-1.121v-3.338h-4.148v3.338h-1.122V82.05h1.122zm12.201 7.405l-.223-1.054h-.054c-.369.464-.738.78-1.108.946-.364.162-.822.243-1.371.243-.734 0-1.311-.19-1.73-.567-.414-.379-.621-.917-.621-1.615 0-1.496 1.196-2.28 3.587-2.351l1.257-.04v-.46c0-.581-.126-1.01-.378-1.284-.248-.28-.647-.419-1.196-.419-.617 0-1.315.19-2.095.568l-.344-.858a5.276 5.276 0 0 1 1.196-.467 5.222 5.222 0 0 1 1.31-.169c.883 0 1.536.196 1.96.588.428.392.641 1.02.641 1.885v5.054h-.831zm-2.533-.79c.698 0 1.245-.192 1.642-.575.4-.383.601-.919.601-1.608v-.669l-1.122.048c-.891.031-1.536.17-1.932.418-.392.244-.588.624-.588 1.142 0 .406.122.714.365.926.248.212.592.318 1.034.318zm6.053.79h-1.31l2.128-3.128c-.572-.126-1.011-.37-1.317-.73-.302-.365-.453-.822-.453-1.371 0-.676.227-1.207.682-1.595.455-.387 1.09-.581 1.906-.581h3.297v7.405h-1.122v-2.96h-1.871l-1.94 2.96zm.142-5.216c0 .856.622 1.284 1.865 1.284h1.804v-2.5h-2.034c-1.09 0-1.635.405-1.635 1.216zm18.702 1.507c0 1.121-.32 2.015-.96 2.682-.635.662-1.524 1.04-2.668 1.135v3.216h-1.108v-3.216c-1.117-.085-2-.468-2.649-1.148-.648-.68-.973-1.57-.973-2.67 0-1.12.322-2.013.966-2.675.649-.662 1.548-1.038 2.696-1.128v-3h1.068v3c1.13.104 2.018.493 2.662 1.169.644.675.966 1.554.966 2.635zm-7.182 0c0 .865.198 1.542.594 2.033.397.491 1.027.777 1.892.858v-5.756c-.833.077-1.457.35-1.871.818-.41.463-.615 1.146-.615 2.047zm6.02 0c0-1.725-.822-2.676-2.466-2.851v5.742c.855-.085 1.479-.373 1.871-.864.397-.491.595-1.167.595-2.027zm9.513 0c0 1.207-.304 2.15-.912 2.83-.609.676-1.449 1.014-2.521 1.014-.662 0-1.25-.155-1.763-.466a3.078 3.078 0 0 1-1.189-1.338c-.279-.58-.419-1.261-.419-2.04 0-1.207.302-2.146.905-2.818.604-.675 1.442-1.013 2.514-1.013 1.036 0 1.858.344 2.466 1.034.612.689.919 1.621.919 2.797zm-5.642 0c0 .946.189 1.666.568 2.162.378.495.934.743 1.668.743.735 0 1.291-.245 1.669-.736.383-.496.575-1.219.575-2.17 0-.94-.192-1.654-.575-2.141-.378-.491-.939-.736-1.682-.736-.734 0-1.288.24-1.662.723-.374.481-.561 1.2-.561 2.155zm11.06 3.844c-.482 0-.923-.088-1.324-.263a2.518 2.518 0 0 1-1-.825h-.081c.054.433.081.843.081 1.23v3.047h-1.122V82.05h.913l.155 1.014h.054c.288-.406.624-.699 1.007-.879a3.06 3.06 0 0 1 1.317-.27c.982 0 1.739.335 2.27 1.007.536.67.804 1.612.804 2.824 0 1.216-.272 2.162-.817 2.837-.541.671-1.293 1.007-2.257 1.007zm-.162-6.722c-.757 0-1.304.209-1.642.628-.338.419-.511 1.085-.52 2v.25c0 1.04.173 1.786.52 2.236.347.446.903.669 1.669.669.64 0 1.14-.259 1.5-.777.365-.518.547-1.232.547-2.142 0-.923-.182-1.63-.547-2.121-.36-.496-.869-.743-1.527-.743zm9.047 5.506l.209-.628.291-.798 2.006-4.884h1.426v7.391h-.993v-6.114l-.135.391-.392 1.034-1.912 4.689h-.939l-1.912-4.702a13.8 13.8 0 0 1-.494-1.412v6.114h-1v-7.391h1.372l1.939 4.695c.194.496.372 1.034.534 1.615zm10.884 1.081l-.223-1.054h-.054c-.369.464-.739.78-1.108.946-.365.162-.822.243-1.371.243-.735 0-1.311-.19-1.73-.567-.414-.379-.622-.917-.622-1.615 0-1.496 1.196-2.28 3.588-2.351l1.257-.04v-.46c0-.581-.127-1.01-.379-1.284-.247-.28-.646-.419-1.196-.419-.617 0-1.315.19-2.094.568l-.345-.858a5.295 5.295 0 0 1 1.196-.467 5.236 5.236 0 0 1 1.311-.169c.883 0 1.536.196 1.959.588.428.392.642 1.02.642 1.885v5.054h-.831zm-2.534-.79c.699 0 1.246-.192 1.642-.575.401-.383.602-.919.602-1.608v-.669l-1.122.048c-.892.031-1.536.17-1.932.418-.392.244-.588.624-.588 1.142 0 .406.122.714.365.926.248.212.592.318 1.033.318z" fill="#000"/></g><g filter="url(#b)"><rect x="245.85" y="40.592" width="266.361" height="212.742" rx="8.648" fill="#fff"/><path opacity=".5" d="M271.436 213.987h-1.095v-7.04c0-.586.018-1.14.054-1.662-.094.095-.2.194-.317.297a99.81 99.81 0 0 1-1.608 1.318l-.595-.771 2.615-2.02h.946v9.878zm10.256 0h-6.493v-.966l2.601-2.615c.793-.802 1.315-1.374 1.568-1.716a4.38 4.38 0 0 0 .567-1c.126-.324.189-.673.189-1.047 0-.527-.16-.944-.479-1.25-.32-.311-.764-.466-1.331-.466-.41 0-.8.067-1.169.203-.365.135-.773.38-1.223.736l-.595-.763c.91-.757 1.901-1.136 2.973-1.136.928 0 1.655.239 2.182.717.527.473.791 1.11.791 1.912 0 .626-.176 1.245-.527 1.858-.351.612-1.009 1.387-1.973 2.324l-2.162 2.115v.054h5.081v1.04zm11.925-3.709c0 1.207-.304 2.151-.912 2.831-.608.675-1.449 1.013-2.521 1.013-.662 0-1.249-.155-1.763-.466a3.08 3.08 0 0 1-1.189-1.338c-.279-.581-.419-1.261-.419-2.04 0-1.207.302-2.146.905-2.818.604-.675 1.442-1.013 2.514-1.013 1.036 0 1.858.345 2.466 1.034.612.689.919 1.621.919 2.797zm-5.642 0c0 .946.189 1.666.568 2.162.378.495.934.743 1.669.743.734 0 1.29-.245 1.668-.736.383-.496.575-1.219.575-2.169 0-.942-.192-1.655-.575-2.142-.378-.491-.939-.736-1.682-.736-.734 0-1.288.241-1.662.723-.374.482-.561 1.2-.561 2.155zm12.607-2.736h-2.405v6.445h-1.121v-6.445h-2.379v-.96h5.905v.96zm7.473.898c0 .482-.14.849-.419 1.101-.275.248-.662.415-1.162.5v.061c.631.086 1.09.27 1.378.554.293.284.439.676.439 1.176 0 .689-.254 1.22-.763 1.594-.505.374-1.243.561-2.216.561h-3.263v-7.405h3.249c1.838 0 2.757.619 2.757 1.858zm-.885 3.317c0-.4-.153-.691-.46-.871-.301-.185-.804-.277-1.506-.277h-2.034v2.439h2.061c1.292 0 1.939-.43 1.939-1.291zm-.21-3.209c0-.36-.139-.615-.419-.763-.274-.153-.693-.23-1.256-.23h-2.115v2.088h1.899c.693 0 1.182-.086 1.466-.257.283-.171.425-.45.425-.838zm6.095 5.574c-1.095 0-1.96-.333-2.595-1-.63-.666-.946-1.592-.946-2.777 0-1.193.293-2.141.879-2.844.59-.703 1.38-1.054 2.371-1.054.928 0 1.662.306 2.203.919.54.608.81 1.412.81 2.412v.709h-5.101c.023.87.241 1.529.656 1.98.419.45 1.006.676 1.763.676.797 0 1.586-.167 2.365-.5v.999a5.703 5.703 0 0 1-1.128.365 6.067 6.067 0 0 1-1.277.115zm-.304-6.736c-.595 0-1.07.194-1.426.581-.351.388-.559.924-.622 1.608h3.872c0-.707-.158-1.247-.473-1.621-.315-.379-.766-.568-1.351-.568zm9.938.156h-2.405v6.445h-1.122v-6.445h-2.378v-.96h5.905v.96zm7.858 2.736c0 1.207-.304 2.151-.912 2.831-.609.675-1.449 1.013-2.521 1.013-.662 0-1.249-.155-1.763-.466a3.08 3.08 0 0 1-1.189-1.338c-.279-.581-.419-1.261-.419-2.04 0-1.207.302-2.146.905-2.818.604-.675 1.442-1.013 2.514-1.013 1.036 0 1.858.345 2.466 1.034.612.689.919 1.621.919 2.797zm-5.642 0c0 .946.189 1.666.568 2.162.378.495.934.743 1.668.743.735 0 1.291-.245 1.669-.736.383-.496.575-1.219.575-2.169 0-.942-.192-1.655-.575-2.142-.378-.491-.939-.736-1.682-.736-.734 0-1.288.241-1.662.723-.374.482-.561 1.2-.561 2.155zm13.621-1.838c0 .482-.14.849-.419 1.101-.275.248-.662.415-1.162.5v.061c.63.086 1.09.27 1.378.554.293.284.439.676.439 1.176 0 .689-.254 1.22-.763 1.594-.505.374-1.243.561-2.216.561h-3.264v-7.405h3.25c1.838 0 2.757.619 2.757 1.858zm-.885 3.317c0-.4-.153-.691-.46-.871-.301-.185-.804-.277-1.506-.277h-2.034v2.439h2.061c1.292 0 1.939-.43 1.939-1.291zm-.21-3.209c0-.36-.139-.615-.419-.763-.274-.153-.693-.23-1.256-.23h-2.115v2.088h1.899c.693 0 1.182-.086 1.466-.257.283-.171.425-.45.425-.838zm12.952 1.73c0 1.207-.304 2.151-.912 2.831-.608.675-1.448 1.013-2.52 1.013-.662 0-1.25-.155-1.763-.466-.514-.311-.91-.757-1.19-1.338-.279-.581-.418-1.261-.418-2.04 0-1.207.301-2.146.905-2.818.603-.675 1.441-1.013 2.513-1.013 1.036 0 1.858.345 2.466 1.034.613.689.919 1.621.919 2.797zm-5.641 0c0 .946.189 1.666.567 2.162.379.495.935.743 1.669.743s1.29-.245 1.669-.736c.383-.496.574-1.219.574-2.169 0-.942-.191-1.655-.574-2.142-.379-.491-.939-.736-1.683-.736-.734 0-1.288.241-1.662.723-.373.482-.56 1.2-.56 2.155zm12.607-2.736h-2.405v6.445h-1.122v-6.445h-2.378v-.96h5.905v.96zm8.702 6.445h-1.095v-7.04c0-.586.019-1.14.055-1.662a6.875 6.875 0 0 1-.318.297 99.81 99.81 0 0 1-1.608 1.318l-.595-.771 2.615-2.02h.946v9.878zm10.256 0h-6.493v-.966l2.601-2.615c.793-.802 1.316-1.374 1.568-1.716a4.38 4.38 0 0 0 .567-1c.127-.324.19-.673.19-1.047 0-.527-.16-.944-.48-1.25-.32-.311-.764-.466-1.331-.466-.41 0-.8.067-1.169.203-.365.135-.772.38-1.223.736l-.594-.763c.909-.757 1.9-1.136 2.972-1.136.928 0 1.656.239 2.183.717.527.473.79 1.11.79 1.912 0 .626-.175 1.245-.527 1.858-.351.612-1.009 1.387-1.973 2.324l-2.162 2.115v.054h5.081v1.04zm9.851-7.405h1.229l-3.195 3.574 3.459 3.831h-1.311l-3.378-3.75v3.75h-1.122v-7.405h1.122v3.601l3.196-3.601zm8.391 7.405h-1.135v-6.445h-2.223c-.121 1.603-.29 2.875-.507 3.817-.216.941-.497 1.63-.844 2.067-.342.437-.779.656-1.311.656-.243 0-.437-.027-.581-.081v-.831c.099.027.212.04.338.04.518 0 .93-.547 1.236-1.642.307-1.094.539-2.756.696-4.986h4.331v7.405zm3.439-7.405v4.696l-.047 1.229-.021.386 4.007-6.311h1.399v7.405h-1.048v-4.527l.021-.891.033-.879-3.999 6.297h-1.399v-7.405h1.054zm10.844 7.54c-1.095 0-1.959-.333-2.594-1-.631-.666-.946-1.592-.946-2.777 0-1.193.292-2.141.878-2.844.59-.703 1.38-1.054 2.371-1.054.928 0 1.662.306 2.203.919.54.608.811 1.412.811 2.412v.709h-5.101c.022.87.241 1.529.655 1.98.419.45 1.007.676 1.763.676.798 0 1.586-.167 2.365-.5v.999a5.662 5.662 0 0 1-1.128.365 6.06 6.06 0 0 1-1.277.115zm-.304-6.736c-.595 0-1.07.194-1.426.581-.351.388-.558.924-.621 1.608h3.871c0-.707-.158-1.247-.473-1.621-.315-.379-.766-.568-1.351-.568zm6.067-.804v3.101h4.148v-3.101h1.122v7.405h-1.122v-3.338h-4.148v3.338h-1.121v-7.405h1.121zm12.641.96h-2.405v6.445h-1.122v-6.445h-2.378v-.96h5.905v.96zm7.858 2.736c0 1.207-.304 2.151-.912 2.831-.608.675-1.449 1.013-2.521 1.013-.662 0-1.249-.155-1.763-.466a3.08 3.08 0 0 1-1.189-1.338c-.279-.581-.419-1.261-.419-2.04 0-1.207.302-2.146.905-2.818.604-.675 1.442-1.013 2.514-1.013 1.036 0 1.858.345 2.466 1.034.612.689.919 1.621.919 2.797zm-5.642 0c0 .946.189 1.666.568 2.162.378.495.934.743 1.669.743.734 0 1.29-.245 1.668-.736.383-.496.575-1.219.575-2.169 0-.942-.192-1.655-.575-2.142-.378-.491-.939-.736-1.682-.736-.734 0-1.288.241-1.662.723-.374.482-.561 1.2-.561 2.155zm13.621-1.838c0 .482-.14.849-.419 1.101-.275.248-.662.415-1.162.5v.061c.63.086 1.09.27 1.378.554.293.284.439.676.439 1.176 0 .689-.254 1.22-.763 1.594-.505.374-1.243.561-2.216.561h-3.263v-7.405h3.249c1.838 0 2.757.619 2.757 1.858zm-.885 3.317c0-.4-.153-.691-.46-.871-.301-.185-.804-.277-1.506-.277h-2.034v2.439h2.061c1.292 0 1.939-.43 1.939-1.291zm-.21-3.209c0-.36-.139-.615-.419-.763-.274-.153-.693-.23-1.256-.23h-2.115v2.088h1.899c.693 0 1.182-.086 1.466-.257.283-.171.425-.45.425-.838zm-165.441 21.487c0 1.581-.401 2.824-1.203 3.729-.797.906-1.907 1.358-3.331 1.358-1.455 0-2.578-.443-3.371-1.331-.788-.892-1.182-2.148-1.182-3.77 0-1.608.396-2.853 1.189-3.736.792-.887 1.918-1.331 3.378-1.331 1.419 0 2.527.45 3.324 1.351.797.901 1.196 2.144 1.196 3.73zm-7.871 0c0 1.337.283 2.353.851 3.047.572.689 1.401 1.033 2.486 1.033 1.095 0 1.921-.344 2.48-1.033.558-.689.838-1.705.838-3.047 0-1.329-.28-2.336-.838-3.02-.554-.69-1.376-1.034-2.466-1.034-1.095 0-1.928.347-2.5 1.04-.568.69-.851 1.694-.851 3.014zm16.343 7.513h-1.088v-2.561h-5.175v2.561h-1.081v-3.527h.581c.604-.82 1.077-1.782 1.419-2.885.342-1.104.52-2.288.534-3.554h3.749v6.439h1.061v3.527zm-2.142-3.527v-5.554h-1.662a12.28 12.28 0 0 1-.581 3.041c-.324 1.022-.729 1.86-1.216 2.513h3.459zm4.683-6.439v4.696l-.048 1.229-.02.386 4.006-6.311h1.399v7.405h-1.047v-4.527l.02-.891.034-.879-4 6.297h-1.398v-7.405h1.054zm8.837 0v3.101h4.148v-3.101h1.122v7.405h-1.122v-3.338h-4.148v3.338h-1.122v-7.405h1.122zm14.039 3.696c0 1.207-.304 2.151-.912 2.831-.608.675-1.448 1.013-2.52 1.013-.662 0-1.25-.155-1.763-.466a3.074 3.074 0 0 1-1.189-1.338c-.28-.581-.419-1.261-.419-2.04 0-1.207.302-2.146.905-2.818.604-.675 1.441-1.013 2.513-1.013 1.036 0 1.858.345 2.467 1.034.612.689.918 1.621.918 2.797zm-5.641 0c0 .946.189 1.666.567 2.162.379.495.935.743 1.669.743s1.291-.245 1.669-.736c.383-.496.574-1.219.574-2.169 0-.942-.191-1.655-.574-2.142-.378-.491-.939-.736-1.682-.736-.735 0-1.289.241-1.662.723-.374.482-.561 1.2-.561 2.155zm8.601-3.696v2.703c0 .864.493 1.297 1.479 1.297.41 0 .802-.063 1.176-.189.374-.126.797-.34 1.27-.642v-3.169h1.122v7.405h-1.122v-3.351c-.473.324-.912.554-1.317.689a4.388 4.388 0 0 1-1.365.196c-.739 0-1.318-.194-1.737-.581-.418-.387-.628-.912-.628-1.574v-2.784h1.122zm8.553 0v3.101h4.148v-3.101h1.122v7.405h-1.122v-3.338h-4.148v3.338h-1.121v-7.405h1.121zm8.77 3.061h2.02c.941 0 1.637.175 2.088.527.455.347.682.867.682 1.56 0 .744-.241 1.307-.723 1.69-.477.378-1.182.567-2.115.567h-3.074v-7.405h1.122v3.061zm7.155 4.344h-1.122v-7.405h1.122v7.405zm-7.155-3.378v2.439h1.898c1.189 0 1.784-.417 1.784-1.25 0-.414-.137-.716-.412-.905-.275-.19-.743-.284-1.405-.284h-1.865zm10.594-4.027v4.696l-.048 1.229-.02.386 4.007-6.311h1.398v7.405h-1.047v-4.527l.02-.891.034-.879-4 6.297h-1.398v-7.405h1.054zm2.114-.98c-.833 0-1.441-.159-1.824-.479-.383-.325-.597-.856-.642-1.595h1.054c.041.469.162.795.365.98.207.185.565.277 1.074.277.464 0 .807-.099 1.027-.297.226-.198.363-.518.413-.96h1.06c-.054.712-.281 1.237-.682 1.575-.401.333-1.016.499-1.845.499zm15.202 2.838c0 .482-.14.849-.419 1.101-.275.248-.662.415-1.162.5v.061c.631.086 1.09.27 1.378.554.293.284.44.676.44 1.176 0 .689-.255 1.22-.764 1.594-.504.374-1.243.561-2.216.561h-3.263v-7.405h3.25c1.837 0 2.756.619 2.756 1.858zm-.885 3.317c0-.4-.153-.691-.459-.871-.302-.185-.804-.277-1.507-.277h-2.034v2.439h2.061c1.293 0 1.939-.43 1.939-1.291zm-.209-3.209c0-.36-.14-.615-.419-.763-.275-.153-.694-.23-1.257-.23h-2.115v2.088h1.899c.693 0 1.182-.086 1.466-.257.284-.171.426-.45.426-.838zm4.087 1.095h2.02c.942 0 1.638.175 2.088.527.455.347.682.867.682 1.56 0 .744-.241 1.307-.723 1.69-.477.378-1.182.567-2.114.567h-3.074v-7.405h1.121v3.061zm7.155 4.344h-1.122v-7.405h1.122v7.405zm-7.155-3.378v2.439h1.899c1.189 0 1.783-.417 1.783-1.25 0-.414-.137-.716-.412-.905-.275-.19-.743-.284-1.405-.284h-1.865zm9.155-1.061c0-1.621.239-2.885.716-3.79.478-.91 1.234-1.477 2.27-1.703a97.219 97.219 0 0 1 3.405-.669l.21.987c-1.563.261-2.68.468-3.351.621-.653.149-1.144.5-1.473 1.054-.324.554-.502 1.309-.534 2.264h.081c.279-.379.64-.676 1.081-.892a3.114 3.114 0 0 1 1.385-.324c.91 0 1.619.295 2.128.885.509.59.764 1.407.764 2.452 0 1.158-.295 2.063-.885 2.716-.59.649-1.412.973-2.466.973-1.041 0-1.856-.398-2.446-1.196-.59-.797-.885-1.923-.885-3.378zm3.432 3.635c1.374 0 2.061-.876 2.061-2.628 0-1.671-.624-2.507-1.872-2.507-.342 0-.673.072-.993.216-.315.14-.606.327-.871.561a3.035 3.035 0 0 0-.609.723c0 1.185.187 2.088.561 2.709.374.618.948.926 1.723.926zm11.601-2.905c0 1.207-.304 2.151-.912 2.831-.608.675-1.449 1.013-2.521 1.013-.662 0-1.249-.155-1.763-.466a3.08 3.08 0 0 1-1.189-1.338c-.279-.581-.419-1.261-.419-2.04 0-1.207.302-2.146.905-2.818.604-.675 1.442-1.013 2.514-1.013 1.036 0 1.858.345 2.466 1.034.612.689.919 1.621.919 2.797zm-5.642 0c0 .946.189 1.666.568 2.162.378.495.934.743 1.669.743.734 0 1.29-.245 1.668-.736.383-.496.575-1.219.575-2.169 0-.942-.192-1.655-.575-2.142-.378-.491-.939-.736-1.682-.736-.734 0-1.288.241-1.662.723-.374.482-.561 1.2-.561 2.155zm11.06 3.844c-.482 0-.923-.088-1.324-.263a2.513 2.513 0 0 1-1-.825h-.081c.054.433.081.843.081 1.23v3.047h-1.121v-10.729h.912l.155 1.014h.054c.288-.406.624-.699 1.007-.879.383-.18.822-.27 1.317-.27.982 0 1.739.336 2.27 1.007.536.671.804 1.612.804 2.824 0 1.216-.272 2.162-.817 2.837-.541.672-1.293 1.007-2.257 1.007zm-.162-6.722c-.757 0-1.304.209-1.642.628-.338.419-.511 1.086-.52 2v.25c0 1.04.173 1.786.52 2.236.347.446.903.669 1.669.669.64 0 1.14-.259 1.5-.777.365-.518.547-1.232.547-2.142 0-.923-.182-1.63-.547-2.121-.36-.496-.869-.743-1.527-.743z" fill="#000"/><path d="M278.09 64.858c0 1.84-.456 3.253-1.368 4.241-.912.988-2.22 1.482-3.922 1.482-1.703 0-3.01-.494-3.922-1.482-.912-.988-1.369-2.407-1.369-4.256 0-1.85.457-3.261 1.369-4.234.917-.978 2.229-1.467 3.937-1.467 1.708 0 3.012.491 3.914 1.474.907.984 1.361 2.397 1.361 4.242zm-8.11 0c0 1.241.235 2.176.707 2.804.471.629 1.175.943 2.113.943 1.88 0 2.82-1.25 2.82-3.747 0-2.503-.935-3.755-2.805-3.755-.938 0-1.644.317-2.121.95-.476.628-.714 1.563-.714 2.805zm15.551 3.876v-5.062h-1.741a21.928 21.928 0 0 1-.524 2.683c-.218.846-.522 1.64-.912 2.38h3.177zm3.565 4.743h-2.083V70.43h-5.716v3.048h-2.082v-4.743h.714c.487-.755.895-1.707 1.224-2.858.329-1.15.56-2.465.692-3.945h6.004v6.803h1.247v4.743zm3.694-11.546v3.36c0 .355-.058 1.221-.175 2.6l3.922-5.96h2.79v8.498h-2.243v-3.39c0-.603.051-1.454.152-2.554l-3.906 5.944h-2.782v-8.498h2.242zm11.295 0V65.2h3.238v-3.27h2.318v8.498h-2.318v-3.504h-3.238v3.504h-2.319V61.93h2.319zm9.835 4.234c0 .841.137 1.477.411 1.908.278.43.729.646 1.353.646.618 0 1.061-.213 1.33-.638.273-.431.41-1.07.41-1.916 0-.841-.137-1.472-.41-1.893-.274-.42-.722-.63-1.346-.63-.618 0-1.064.21-1.337.63-.274.416-.411 1.047-.411 1.893zm5.876 0c0 1.383-.365 2.465-1.095 3.246-.73.78-1.746 1.17-3.048 1.17-.816 0-1.535-.177-2.158-.532a3.583 3.583 0 0 1-1.437-1.543c-.334-.669-.502-1.449-.502-2.34 0-1.39.363-2.469 1.087-3.239.725-.77 1.743-1.155 3.056-1.155.816 0 1.535.177 2.158.532a3.546 3.546 0 0 1 1.437 1.528c.334.664.502 1.441.502 2.333zm3.952-4.234v3.11c0 .739.342 1.109 1.026 1.109.446 0 .859-.05 1.239-.152a8.996 8.996 0 0 0 1.163-.395v-3.671h2.318v8.497h-2.318v-3.375a6.832 6.832 0 0 1-1.497.6 5.454 5.454 0 0 1-1.338.176c-.927 0-1.644-.236-2.151-.707-.507-.477-.76-1.153-.76-2.03v-3.162h2.318zm10.497 0V65.2h3.238v-3.27h2.318v8.498h-2.318v-3.504h-3.238v3.504h-2.318V61.93h2.318zm10.307 3.284h1.117c1.297 0 2.257.208 2.881.623.623.416.935 1.044.935 1.885 0 .897-.312 1.574-.935 2.03-.624.45-1.556.676-2.797.676h-3.52v-8.498h2.319v3.284zm2.614 2.539c0-.33-.131-.568-.395-.715-.263-.147-.656-.22-1.178-.22h-1.041v2.006h1.071c1.029 0 1.543-.357 1.543-1.071zm5.868 2.675h-2.318v-8.498h2.318v8.498zm4.682-8.498v3.36c0 .355-.058 1.221-.175 2.6l3.922-5.96h2.79v8.498h-2.242v-3.39c0-.603.05-1.454.152-2.554l-3.907 5.944h-2.782v-8.498h2.242zm5.853-3.655c-.096.947-.454 1.639-1.072 2.074-.618.431-1.51.647-2.675.647-1.201 0-2.091-.208-2.668-.624-.573-.415-.895-1.114-.966-2.097h2.076c.035.521.164.889.387 1.102.228.207.634.311 1.216.311.512 0 .892-.114 1.14-.342.254-.233.408-.59.464-1.072h2.098zm15.012 5.883c0 .456-.145.846-.434 1.17-.283.32-.704.525-1.261.616v.06c.603.072 1.079.28 1.429.624.354.34.532.76.532 1.261 0 .826-.325 1.457-.973 1.893-.649.43-1.576.646-2.782.646h-4.355v-8.498h4.355c1.165 0 2.037.19 2.614.57.583.376.875.928.875 1.658zm-2.136 3.61c0-.335-.129-.575-.388-.722-.258-.152-.646-.228-1.163-.228h-1.839v2.006h1.885c.491 0 .864-.09 1.117-.273a.912.912 0 0 0 .388-.783zm-.213-3.428c0-.517-.411-.775-1.231-.775h-1.946v1.68h1.68c.491 0 .864-.072 1.117-.213.253-.142.38-.373.38-.692zm6.78.874h1.117c1.297 0 2.258.208 2.881.623.623.416.935 1.044.935 1.885 0 .897-.312 1.574-.935 2.03-.623.45-1.556.676-2.797.676h-3.519v-8.498h2.318v3.284zm2.615 2.539c0-.33-.132-.568-.396-.715-.263-.147-.656-.22-1.178-.22h-1.041v2.006h1.072c1.028 0 1.543-.357 1.543-1.071zm5.867 2.675h-2.318v-8.498h2.318v8.498zm1.923-5.092c0-1.951.37-3.43 1.11-4.44.745-1.013 1.905-1.654 3.481-1.922a99.687 99.687 0 0 1 3.428-.502l.266 2.022c-.658.076-1.826.238-3.504.486-.638.102-1.114.254-1.429.456a1.849 1.849 0 0 0-.706.867c-.153.375-.246.874-.282 1.497h.114a2.7 2.7 0 0 1 1.064-.957 3.107 3.107 0 0 1 1.422-.335c1.049 0 1.865.322 2.447.965.583.639.874 1.556.874 2.752 0 1.378-.37 2.45-1.109 3.215-.735.76-1.751 1.14-3.048 1.14-1.298 0-2.311-.463-3.041-1.39-.724-.933-1.087-2.218-1.087-3.854zm4.264 3.367c1.1 0 1.65-.758 1.65-2.273 0-1.474-.497-2.212-1.49-2.212a1.95 1.95 0 0 0-.821.19 3.017 3.017 0 0 0-.745.502 2.226 2.226 0 0 0-.494.616c0 1.028.165 1.816.494 2.364.33.542.798.813 1.406.813zm7.784-2.539c0 .841.137 1.477.41 1.908.279.43.73.646 1.353.646.618 0 1.062-.213 1.33-.638.274-.431.411-1.07.411-1.916 0-.841-.137-1.472-.411-1.893-.273-.42-.722-.63-1.345-.63-.618 0-1.064.21-1.338.63-.273.416-.41 1.047-.41 1.893zm5.875 0c0 1.383-.365 2.465-1.094 3.246-.73.78-1.746 1.17-3.048 1.17-.816 0-1.536-.177-2.159-.532a3.587 3.587 0 0 1-1.436-1.543c-.335-.669-.502-1.449-.502-2.34 0-1.39.362-2.469 1.087-3.239.724-.77 1.743-1.155 3.055-1.155.816 0 1.536.177 2.159.532a3.557 3.557 0 0 1 1.437 1.528c.334.664.501 1.441.501 2.333zm6.583 4.416c-.999 0-1.782-.362-2.349-1.087h-.122c.081.71.122 1.12.122 1.232v3.443h-2.318V61.932h1.885l.326 1.102h.107c.542-.842 1.345-1.262 2.409-1.262 1.004 0 1.789.388 2.357 1.163.567.775.851 1.852.851 3.23 0 .907-.134 1.695-.403 2.364-.263.669-.641 1.178-1.132 1.528-.492.35-1.07.524-1.733.524zm-.685-6.955c-.572 0-.99.178-1.254.533-.263.35-.4.93-.41 1.74v.25c0 .913.134 1.567.403 1.962.273.395.704.593 1.292.593 1.039 0 1.558-.857 1.558-2.57 0-.835-.129-1.461-.388-1.877-.253-.42-.653-.63-1.201-.63z" fill="#001843"/><g clip-path="url(#c)"><path d="M271.436 103.292h-1.095v-7.04c0-.586.018-1.14.054-1.662-.094.094-.2.193-.317.297-.117.104-.653.543-1.608 1.317l-.595-.77 2.615-2.02h.946v9.878zm194.737 0h-2.088v-5.716l.02-.94.034-1.026c-.347.347-.588.574-.723.682l-1.135.912-1.007-1.256 3.183-2.534h1.716v9.878zm9.594-4.939c0 1.725-.284 3.002-.852 3.831-.563.829-1.432 1.243-2.608 1.243-1.139 0-1.999-.428-2.58-1.284-.577-.855-.865-2.119-.865-3.79 0-1.743.281-3.027.844-3.851.563-.829 1.43-1.243 2.601-1.243 1.14 0 2 .432 2.581 1.297.586.865.879 2.13.879 3.797zm-4.831 0c0 1.212.104 2.081.311 2.608.211.522.565.784 1.06.784.487 0 .838-.266 1.054-.798.217-.531.325-1.396.325-2.594 0-1.212-.111-2.08-.331-2.608-.217-.531-.566-.797-1.048-.797-.49 0-.842.266-1.054.797-.211.527-.317 1.396-.317 2.608zm12.736 0c0 1.725-.284 3.002-.852 3.831-.563.829-1.432 1.243-2.608 1.243-1.139 0-2-.428-2.581-1.284-.576-.855-.864-2.119-.864-3.79 0-1.743.281-3.027.844-3.851.563-.829 1.43-1.243 2.601-1.243 1.14 0 2 .432 2.581 1.297.586.865.879 2.13.879 3.797zm-4.831 0c0 1.212.103 2.081.311 2.608.211.522.565.784 1.06.784.487 0 .838-.266 1.054-.798.217-.531.325-1.396.325-2.594 0-1.212-.111-2.08-.331-2.608-.217-.531-.566-.797-1.048-.797-.491 0-.842.266-1.054.797-.211.527-.317 1.396-.317 2.608zm7.459-1.98c0 .572.049 1 .148 1.284.104.28.268.419.494.419.432 0 .648-.567.648-1.703 0-1.126-.216-1.689-.648-1.689-.226 0-.39.14-.494.42-.099.274-.148.697-.148 1.27zm2.993-.013c0 1.036-.201 1.815-.602 2.338-.4.518-.988.777-1.763.777-.743 0-1.317-.266-1.723-.798-.405-.536-.608-1.308-.608-2.317 0-2.058.777-3.088 2.331-3.088.761 0 1.345.268 1.75.804.41.532.615 1.293.615 2.284zm4.648-2.946l-5.479 9.878h-1.622l5.48-9.878h1.621zm-.723 6.905c0 .572.05 1 .149 1.284.103.279.268.419.493.419.432 0 .649-.568.649-1.703 0-1.126-.217-1.689-.649-1.689-.225 0-.39.14-.493.419-.099.275-.149.698-.149 1.27zm2.993-.013c0 1.031-.2 1.808-.601 2.331-.401.517-.989.776-1.763.776-.744 0-1.318-.265-1.723-.797-.406-.536-.608-1.306-.608-2.31 0-2.059.777-3.088 2.331-3.088.761 0 1.344.268 1.749.804.41.531.615 1.293.615 2.284z" fill="#000"/><path fill="#C9E55A" d="M342.708 92.481h112.425v10.378H342.708z"/><path d="M273.773 130.966h-6.492V130l2.601-2.615c.793-.802 1.315-1.374 1.567-1.716.252-.343.442-.676.568-1 .126-.324.189-.674.189-1.047 0-.527-.16-.944-.48-1.25-.32-.311-.763-.467-1.331-.467-.41 0-.799.068-1.169.203-.364.135-.772.381-1.222.737l-.595-.764c.91-.757 1.901-1.135 2.973-1.135.928 0 1.655.239 2.182.716.527.473.791 1.111.791 1.912 0 .626-.176 1.246-.527 1.858-.352.613-1.009 1.388-1.973 2.324l-2.162 2.115v.054h5.08v1.041zm209.898-4.939c0 1.725-.283 3.002-.851 3.831-.563.828-1.432 1.243-2.608 1.243-1.139 0-2-.428-2.581-1.284-.576-.856-.864-2.119-.864-3.79 0-1.743.281-3.027.844-3.851.563-.829 1.43-1.243 2.601-1.243 1.14 0 2 .432 2.581 1.297.586.865.878 2.13.878 3.797zm-4.83 0c0 1.211.103 2.081.31 2.608.212.522.566.784 1.061.784.487 0 .838-.266 1.054-.798.216-.531.325-1.396.325-2.594 0-1.212-.111-2.081-.332-2.608-.216-.532-.565-.797-1.047-.797-.491 0-.842.265-1.054.797-.211.527-.317 1.396-.317 2.608zm7.459-1.98c0 .572.049 1 .148 1.284.104.279.268.419.493.419.433 0 .649-.568.649-1.703 0-1.126-.216-1.689-.649-1.689-.225 0-.389.14-.493.419-.099.275-.148.698-.148 1.27zm2.993-.013c0 1.036-.201 1.815-.602 2.337-.4.518-.988.777-1.763.777-.743 0-1.317-.265-1.723-.797-.405-.536-.608-1.308-.608-2.317 0-2.059.777-3.088 2.331-3.088.761 0 1.344.268 1.75.804.41.532.615 1.293.615 2.284zm4.648-2.946l-5.479 9.878h-1.622l5.48-9.878h1.621zm-.723 6.905c0 .572.05 1 .149 1.284.103.279.268.419.493.419.432 0 .649-.568.649-1.703 0-1.126-.217-1.689-.649-1.689-.225 0-.39.139-.493.419-.099.274-.149.698-.149 1.27zm2.993-.014c0 1.032-.2 1.809-.601 2.331-.401.518-.989.777-1.764.777-.743 0-1.317-.265-1.722-.797-.406-.536-.608-1.306-.608-2.311 0-2.058.776-3.087 2.33-3.087.762 0 1.345.268 1.75.804.41.531.615 1.292.615 2.283zm-222.809 23.107c0 .631-.178 1.146-.534 1.547-.351.401-.851.669-1.5.804v.054c.793.099 1.381.352 1.764.757.382.405.574.937.574 1.594 0 .942-.327 1.667-.98 2.176-.653.504-1.581.757-2.783.757a7.898 7.898 0 0 1-1.439-.122 4.845 4.845 0 0 1-1.264-.412v-1.068a6.306 6.306 0 0 0 2.743.649c1.707 0 2.561-.669 2.561-2.007 0-1.198-.942-1.797-2.824-1.797h-.973v-.966h.986c.77 0 1.381-.169 1.831-.507.451-.342.676-.815.676-1.418 0-.482-.167-.861-.5-1.136-.329-.274-.777-.412-1.345-.412-.432 0-.84.059-1.223.176-.382.117-.819.333-1.31.649l-.568-.757c.406-.32.872-.57 1.399-.75a5.057 5.057 0 0 1 1.675-.277c.96 0 1.705.221 2.237.662.531.437.797 1.038.797 1.804zm210.269 2.615c0 1.725-.283 3.002-.851 3.83-.563.829-1.432 1.244-2.608 1.244-1.139 0-2-.428-2.581-1.284-.576-.856-.864-2.119-.864-3.79 0-1.743.281-3.027.844-3.851.563-.829 1.43-1.244 2.601-1.244 1.14 0 2 .433 2.581 1.298.586.864.878 2.13.878 3.797zm-4.83 0c0 1.211.103 2.081.31 2.608.212.522.566.783 1.061.783.487 0 .838-.265 1.054-.797.216-.531.325-1.396.325-2.594 0-1.212-.111-2.081-.332-2.608-.216-.532-.565-.798-1.047-.798-.491 0-.842.266-1.054.798-.211.527-.317 1.396-.317 2.608zm7.459-1.98c0 .572.049 1 .148 1.284.104.279.268.419.493.419.433 0 .649-.568.649-1.703 0-1.126-.216-1.689-.649-1.689-.225 0-.389.14-.493.419-.099.275-.148.698-.148 1.27zm2.993-.013c0 1.036-.201 1.815-.602 2.337-.4.518-.988.777-1.763.777-.743 0-1.317-.266-1.723-.797-.405-.536-.608-1.308-.608-2.317 0-2.059.777-3.088 2.331-3.088.761 0 1.344.268 1.75.804.41.531.615 1.293.615 2.284zm4.648-2.946l-5.479 9.878h-1.622l5.48-9.878h1.621zm-.723 6.905c0 .572.05 1 .149 1.283.103.28.268.419.493.419.432 0 .649-.567.649-1.702 0-1.126-.217-1.689-.649-1.689-.225 0-.39.139-.493.419-.099.274-.149.698-.149 1.27zm2.993-.014c0 1.032-.2 1.809-.601 2.331-.401.518-.989.777-1.764.777-.743 0-1.317-.266-1.722-.797-.406-.536-.608-1.306-.608-2.311 0-2.058.776-3.087 2.33-3.087.762 0 1.345.268 1.75.804.41.531.615 1.292.615 2.283zm-221.971 28.39h-1.467v2.27h-1.074v-2.27h-4.803v-.979l4.688-6.682h1.189v6.641h1.467v1.02zm-2.541-1.02v-3.283c0-.645.023-1.372.068-2.183h-.054c-.216.433-.419.791-.608 1.075l-3.088 4.391h3.682zm211.972-1.648c0 1.725-.283 3.002-.851 3.83-.563.829-1.432 1.244-2.608 1.244-1.139 0-2-.428-2.581-1.284-.576-.856-.864-2.119-.864-3.79 0-1.744.281-3.027.844-3.851.563-.829 1.43-1.244 2.601-1.244 1.14 0 2 .433 2.581 1.298.586.864.878 2.13.878 3.797zm-4.83 0c0 1.211.103 2.081.31 2.608.212.522.566.783 1.061.783.487 0 .838-.265 1.054-.797.216-.531.325-1.396.325-2.594 0-1.212-.111-2.081-.332-2.608-.216-.532-.565-.798-1.047-.798-.491 0-.842.266-1.054.798-.211.527-.317 1.396-.317 2.608zm7.459-1.98c0 .572.049 1 .148 1.284.104.279.268.419.493.419.433 0 .649-.568.649-1.703 0-1.126-.216-1.689-.649-1.689-.225 0-.389.14-.493.419-.099.275-.148.698-.148 1.27zm2.993-.013c0 1.035-.201 1.815-.602 2.337-.4.518-.988.777-1.763.777-.743 0-1.317-.266-1.723-.797-.405-.536-.608-1.309-.608-2.317 0-2.059.777-3.088 2.331-3.088.761 0 1.344.268 1.75.804.41.531.615 1.293.615 2.284zm4.648-2.946l-5.479 9.877h-1.622l5.48-9.877h1.621zm-.723 6.905c0 .572.05 1 .149 1.283.103.28.268.419.493.419.432 0 .649-.567.649-1.702 0-1.126-.217-1.689-.649-1.689-.225 0-.39.139-.493.419-.099.274-.149.698-.149 1.27zm2.993-.014c0 1.032-.2 1.809-.601 2.331-.401.518-.989.777-1.764.777-.743 0-1.317-.266-1.722-.797-.406-.536-.608-1.306-.608-2.311 0-2.058.776-3.087 2.33-3.087.762 0 1.345.268 1.75.804.41.531.615 1.292.615 2.283z" fill="#000"/></g></g><g filter="url(#d)"><rect x="21" y="140.91" width="266.361" height="268.09" rx="8.648" fill="#fff"/><path opacity=".5" d="M42.546 365.43c0-1.942.376-3.392 1.128-4.351.757-.964 1.874-1.446 3.351-1.446.51 0 .91.043 1.203.128v.966a3.865 3.865 0 0 0-1.19-.169c-1.058 0-1.866.331-2.425.994-.558.657-.864 1.693-.919 3.107h.081c.496-.774 1.28-1.162 2.352-1.162.887 0 1.585.268 2.094.804.514.536.77 1.264.77 2.183 0 1.027-.281 1.835-.844 2.425-.559.586-1.315.878-2.27.878-1.023 0-1.834-.382-2.433-1.148-.599-.77-.898-1.84-.898-3.209zm3.317 3.405c.64 0 1.135-.201 1.487-.601.355-.406.533-.989.533-1.75 0-.653-.164-1.167-.493-1.541-.329-.374-.82-.561-1.473-.561-.405 0-.777.084-1.114.25a2.092 2.092 0 0 0-.811.69 1.601 1.601 0 0 0-.298.912c0 .464.09.896.27 1.297a2.3 2.3 0 0 0 .764.953 1.93 1.93 0 0 0 1.135.351zm14.986-2.892c0 1.207-.304 2.151-.912 2.831-.608.676-1.448 1.013-2.52 1.013-.663 0-1.25-.155-1.764-.466a3.076 3.076 0 0 1-1.189-1.337c-.28-.582-.419-1.262-.419-2.041 0-1.207.302-2.146.905-2.817.604-.676 1.442-1.014 2.514-1.014 1.036 0 1.858.345 2.466 1.034.612.689.919 1.622.919 2.797zm-5.642 0c0 .946.19 1.667.568 2.162.378.496.934.743 1.669.743.734 0 1.29-.245 1.668-.736.383-.496.575-1.218.575-2.169 0-.941-.192-1.655-.575-2.142-.378-.491-.939-.736-1.682-.736-.734 0-1.288.241-1.662.723-.374.482-.56 1.2-.56 2.155zm12.607-2.736H65.41v6.445h-1.121v-6.445H61.91v-.96h5.905v.96zm7.473.898c0 .482-.14.849-.419 1.102-.275.247-.662.414-1.162.5v.06c.63.086 1.09.271 1.378.554.293.284.44.676.44 1.176 0 .689-.255 1.221-.764 1.595-.505.373-1.243.56-2.216.56H69.28v-7.405h3.25c1.837 0 2.756.62 2.756 1.858zm-.885 3.318c0-.401-.153-.692-.46-.872-.301-.184-.804-.277-1.506-.277h-2.034v2.439h2.06c1.293 0 1.94-.43 1.94-1.29zm-.21-3.209c0-.361-.14-.615-.418-.764-.275-.153-.694-.23-1.257-.23h-2.115v2.088h1.899c.693 0 1.182-.086 1.466-.257.284-.171.425-.45.425-.837zm6.095 5.573c-1.095 0-1.96-.333-2.595-.999-.63-.667-.946-1.593-.946-2.777 0-1.194.293-2.142.879-2.845.59-.702 1.38-1.054 2.371-1.054.928 0 1.662.307 2.203.919.54.608.81 1.412.81 2.412v.71h-5.1c.022.869.24 1.529.655 1.979.419.451 1.006.676 1.763.676a5.97 5.97 0 0 0 2.365-.5v1a5.742 5.742 0 0 1-1.128.365 6.136 6.136 0 0 1-1.277.114zm-.305-6.736c-.594 0-1.07.194-1.425.581-.351.388-.559.924-.622 1.608h3.872c0-.707-.158-1.247-.473-1.621-.316-.378-.766-.568-1.352-.568zm9.94.156h-2.406v6.445h-1.122v-6.445h-2.378v-.96h5.905v.96zm7.857 2.736c0 1.207-.304 2.151-.912 2.831-.609.676-1.449 1.013-2.52 1.013-.663 0-1.25-.155-1.764-.466a3.077 3.077 0 0 1-1.19-1.337c-.278-.582-.418-1.262-.418-2.041 0-1.207.302-2.146.905-2.817.604-.676 1.442-1.014 2.514-1.014 1.036 0 1.858.345 2.466 1.034.612.689.919 1.622.919 2.797zm-5.642 0c0 .946.19 1.667.568 2.162.378.496.934.743 1.669.743.734 0 1.29-.245 1.668-.736.383-.496.575-1.218.575-2.169 0-.941-.192-1.655-.575-2.142-.378-.491-.939-.736-1.682-.736-.734 0-1.288.241-1.662.723-.374.482-.56 1.2-.56 2.155zm13.621-1.838c0 .482-.14.849-.419 1.102-.275.247-.662.414-1.162.5v.06c.63.086 1.09.271 1.378.554.293.284.439.676.439 1.176 0 .689-.254 1.221-.763 1.595-.505.373-1.243.56-2.216.56h-3.264v-7.405h3.25c1.838 0 2.757.62 2.757 1.858zm-.885 3.318c0-.401-.153-.692-.46-.872-.301-.184-.804-.277-1.506-.277h-2.034v2.439h2.061c1.292 0 1.939-.43 1.939-1.29zm-.21-3.209c0-.361-.139-.615-.419-.764-.274-.153-.693-.23-1.256-.23h-2.115v2.088h1.899c.693 0 1.182-.086 1.466-.257.283-.171.425-.45.425-.837zm12.952 1.729c0 1.207-.304 2.151-.912 2.831-.608.676-1.448 1.013-2.52 1.013-.662 0-1.25-.155-1.763-.466a3.08 3.08 0 0 1-1.19-1.337c-.279-.582-.418-1.262-.418-2.041 0-1.207.301-2.146.905-2.817.603-.676 1.441-1.014 2.513-1.014 1.036 0 1.858.345 2.466 1.034.613.689.919 1.622.919 2.797zm-5.641 0c0 .946.189 1.667.567 2.162.379.496.935.743 1.669.743s1.29-.245 1.669-.736c.383-.496.574-1.218.574-2.169 0-.941-.191-1.655-.574-2.142-.379-.491-.939-.736-1.683-.736-.734 0-1.288.241-1.662.723-.373.482-.56 1.2-.56 2.155zm12.607-2.736h-2.405v6.445h-1.122v-6.445h-2.378v-.96h5.905v.96zm8.702 6.445h-1.095v-7.04c0-.585.019-1.139.055-1.662a7.46 7.46 0 0 1-.318.298c-.117.103-.653.542-1.608 1.317l-.595-.77 2.615-2.02h.946v9.877zm10.256 0h-6.493v-.966l2.601-2.614c.793-.802 1.316-1.374 1.568-1.717a4.36 4.36 0 0 0 .567-1c.127-.324.19-.673.19-1.047 0-.527-.16-.943-.48-1.25-.32-.31-.764-.466-1.331-.466-.41 0-.8.068-1.169.203-.365.135-.772.38-1.223.736l-.594-.763c.909-.757 1.9-1.135 2.972-1.135.928 0 1.656.238 2.183.716.527.473.79 1.11.79 1.912 0 .626-.175 1.245-.527 1.858-.351.613-1.009 1.387-1.973 2.324l-2.162 2.115v.054h5.081v1.04zm9.851-7.405h1.229l-3.195 3.575 3.459 3.83h-1.311l-3.378-3.749v3.749h-1.122v-7.405h1.122v3.602l3.196-3.602zm8.391 7.405h-1.135v-6.445h-2.223c-.121 1.603-.29 2.876-.507 3.817-.216.942-.497 1.631-.844 2.068-.342.436-.779.655-1.311.655-.243 0-.437-.027-.581-.081v-.831c.099.027.212.04.338.04.518 0 .93-.547 1.236-1.641.307-1.095.539-2.757.696-4.987h4.331v7.405zm3.439-7.405v4.696l-.047 1.23-.021.385 4.007-6.311h1.399v7.405h-1.048v-4.526l.021-.892.033-.879-3.999 6.297h-1.399v-7.405h1.054zm10.844 7.54c-1.095 0-1.959-.333-2.594-.999-.631-.667-.946-1.593-.946-2.777 0-1.194.292-2.142.878-2.845.59-.702 1.38-1.054 2.371-1.054.928 0 1.662.307 2.203.919.54.608.811 1.412.811 2.412v.71h-5.101c.022.869.241 1.529.655 1.979.419.451 1.007.676 1.763.676.798 0 1.586-.167 2.365-.5v1a5.727 5.727 0 0 1-1.128.365 6.134 6.134 0 0 1-1.277.114zm-.304-6.736c-.595 0-1.07.194-1.426.581-.351.388-.558.924-.621 1.608h3.871c0-.707-.158-1.247-.473-1.621-.315-.378-.766-.568-1.351-.568zm6.067-.804v3.102h4.148v-3.102h1.122v7.405h-1.122v-3.337h-4.148v3.337h-1.122v-7.405h1.122zm12.641.96h-2.405v6.445h-1.122v-6.445h-2.378v-.96h5.905v.96zm7.858 2.736c0 1.207-.304 2.151-.912 2.831-.608.676-1.449 1.013-2.521 1.013-.662 0-1.249-.155-1.763-.466a3.077 3.077 0 0 1-1.189-1.337c-.279-.582-.419-1.262-.419-2.041 0-1.207.302-2.146.905-2.817.604-.676 1.442-1.014 2.514-1.014 1.036 0 1.858.345 2.466 1.034.612.689.919 1.622.919 2.797zm-5.642 0c0 .946.189 1.667.568 2.162.378.496.934.743 1.668.743.735 0 1.291-.245 1.669-.736.383-.496.575-1.218.575-2.169 0-.941-.192-1.655-.575-2.142-.378-.491-.939-.736-1.682-.736-.734 0-1.288.241-1.662.723-.374.482-.561 1.2-.561 2.155zm13.621-1.838c0 .482-.14.849-.419 1.102-.275.247-.662.414-1.162.5v.06c.63.086 1.09.271 1.378.554.293.284.439.676.439 1.176 0 .689-.254 1.221-.763 1.595-.505.373-1.243.56-2.216.56h-3.263v-7.405h3.249c1.838 0 2.757.62 2.757 1.858zm-.885 3.318c0-.401-.153-.692-.46-.872-.301-.184-.804-.277-1.506-.277h-2.034v2.439h2.061c1.292 0 1.939-.43 1.939-1.29zm-.21-3.209c0-.361-.139-.615-.419-.764-.274-.153-.693-.23-1.256-.23h-2.115v2.088h1.899c.693 0 1.182-.086 1.466-.257.283-.171.425-.45.425-.837zM47.485 390.652l-3.351-8.756h-.054c.063.694.094 1.518.094 2.473v6.283h-1.06v-9.877h1.729l3.128 8.148h.054l3.155-8.148h1.717v9.877h-1.15v-6.364c0-.73.032-1.523.096-2.378h-.055l-3.378 8.742h-.925zm9.08-7.405v3.102h4.149v-3.102h1.121v7.405h-1.121v-3.337h-4.149v3.337h-1.121v-7.405h1.121zm14.04 3.696c0 1.207-.304 2.151-.912 2.831-.608.676-1.448 1.013-2.52 1.013-.663 0-1.25-.155-1.764-.466a3.076 3.076 0 0 1-1.189-1.337c-.28-.582-.419-1.262-.419-2.041 0-1.207.302-2.146.906-2.817.603-.676 1.44-1.014 2.513-1.014 1.036 0 1.858.345 2.466 1.034.612.689.919 1.622.919 2.797zm-5.642 0c0 .946.19 1.667.568 2.162.378.496.934.743 1.669.743.734 0 1.29-.245 1.668-.736.383-.496.575-1.218.575-2.169 0-.941-.192-1.655-.575-2.142-.378-.491-.939-.736-1.682-.736-.734 0-1.288.241-1.662.723-.374.482-.56 1.2-.56 2.155zm10.993-3.682h1.034v3.588l3.06-3.588h1.23l-3.095 3.588 3.358 3.803h-1.297l-3.256-3.749v3.749h-1.034v-3.749l-3.25 3.749h-1.29l3.35-3.803-3.087-3.588h1.23l3.047 3.588v-3.588zm9.938 7.526c-1.094 0-1.959-.333-2.594-.999-.63-.667-.946-1.593-.946-2.777 0-1.194.293-2.142.878-2.845.59-.702 1.38-1.054 2.372-1.054.928 0 1.662.307 2.202.919.54.608.811 1.412.811 2.412v.71h-5.1c.022.869.24 1.529.654 1.979.42.451 1.007.676 1.764.676a5.97 5.97 0 0 0 2.364-.5v1a5.738 5.738 0 0 1-1.128.365 6.135 6.135 0 0 1-1.277.114zm-.304-6.736c-.594 0-1.07.194-1.425.581-.352.388-.559.924-.622 1.608h3.871c0-.707-.157-1.247-.472-1.621-.316-.378-.766-.568-1.352-.568zm7.905 6.736c-1.072 0-1.903-.328-2.493-.986-.585-.662-.878-1.597-.878-2.804 0-1.238.297-2.196.892-2.871.599-.676 1.45-1.014 2.553-1.014a5.1 5.1 0 0 1 1.068.115c.356.077.635.167.838.27l-.345.953a5.043 5.043 0 0 0-.81-.243 3.485 3.485 0 0 0-.778-.102c-1.504 0-2.256.96-2.256 2.879 0 .91.182 1.608.547 2.094.37.487.914.73 1.635.73.617 0 1.25-.133 1.899-.399v.993c-.496.257-1.12.385-1.872.385zm8.628-6.58h-2.405v6.445h-1.122v-6.445h-2.378v-.96h5.905v.96zm7.472.898c0 .482-.139.849-.418 1.102-.275.247-.663.414-1.163.5v.06c.631.086 1.09.271 1.379.554.292.284.439.676.439 1.176 0 .689-.255 1.221-.764 1.595-.504.373-1.243.56-2.216.56h-3.263v-7.405h3.25c1.838 0 2.756.62 2.756 1.858zm-.885 3.318c0-.401-.153-.692-.459-.872-.302-.184-.804-.277-1.507-.277h-2.033v2.439h2.06c1.293 0 1.939-.43 1.939-1.29zm-.209-3.209c0-.361-.14-.615-.419-.764-.275-.153-.694-.23-1.257-.23h-2.114v2.088h1.898c.694 0 1.182-.086 1.466-.257.284-.171.426-.45.426-.837zm6.094 5.573c-1.094 0-1.959-.333-2.594-.999-.631-.667-.946-1.593-.946-2.777 0-1.194.293-2.142.878-2.845.59-.702 1.381-1.054 2.372-1.054.927 0 1.662.307 2.202.919.541.608.811 1.412.811 2.412v.71h-5.101c.022.869.241 1.529.655 1.979.419.451 1.007.676 1.764.676.797 0 1.585-.167 2.364-.5v1a5.727 5.727 0 0 1-1.128.365 6.134 6.134 0 0 1-1.277.114zm-.304-6.736c-.595 0-1.07.194-1.426.581-.351.388-.558.924-.621 1.608h3.871c0-.707-.157-1.247-.473-1.621-.315-.378-.765-.568-1.351-.568zm6.067-.804v3.102h4.149v-3.102h1.121v7.405h-1.121v-3.337h-4.149v3.337h-1.121v-7.405h1.121zm8.77 0v3.102h4.148v-3.102h1.122v7.405h-1.122v-3.337h-4.148v3.337h-1.122v-7.405h1.122zm8.77 3.061h2.02c.941 0 1.637.176 2.087.527.455.347.683.867.683 1.561 0 .743-.241 1.306-.723 1.689-.478.378-1.182.567-2.115.567h-3.074v-7.405h1.122v3.061zm7.154 4.344h-1.121v-7.405h1.121v7.405zm-7.154-3.378v2.439h1.898c1.189 0 1.784-.416 1.784-1.25 0-.414-.138-.716-.412-.905-.275-.189-.744-.284-1.406-.284h-1.864zm10.593-4.027v4.696l-.047 1.23-.02.385 4.006-6.311h1.399v7.405h-1.047v-4.526l.02-.892.034-.879-4 6.297h-1.399v-7.405h1.054zm2.115-.979c-.833 0-1.441-.16-1.824-.48-.383-.324-.597-.856-.642-1.594h1.054c.041.468.162.795.365.979.207.185.565.277 1.074.277.464 0 .806-.099 1.027-.297.225-.198.363-.518.412-.959h1.061c-.054.711-.281 1.236-.682 1.574-.401.333-1.016.5-1.845.5zm15.202 2.837c0 .482-.14.849-.419 1.102-.275.247-.662.414-1.162.5v.06c.63.086 1.09.271 1.378.554.293.284.439.676.439 1.176 0 .689-.254 1.221-.763 1.595-.505.373-1.243.56-2.216.56h-3.263v-7.405h3.249c1.838 0 2.757.62 2.757 1.858zm-.885 3.318c0-.401-.153-.692-.46-.872-.301-.184-.804-.277-1.506-.277h-2.034v2.439h2.061c1.292 0 1.939-.43 1.939-1.29zm-.21-3.209c0-.361-.139-.615-.419-.764-.274-.153-.693-.23-1.256-.23h-2.115v2.088h1.899c.693 0 1.182-.086 1.466-.257.283-.171.425-.45.425-.837zm4.088 1.094h2.02c.941 0 1.637.176 2.088.527.455.347.682.867.682 1.561 0 .743-.241 1.306-.723 1.689-.477.378-1.182.567-2.115.567h-3.074v-7.405h1.122v3.061zm7.155 4.344h-1.122v-7.405h1.122v7.405zm-7.155-3.378v2.439h1.898c1.19 0 1.784-.416 1.784-1.25 0-.414-.137-.716-.412-.905-.275-.189-.743-.284-1.405-.284h-1.865zm9.155-1.061c0-1.621.238-2.884.716-3.79.477-.91 1.234-1.477 2.27-1.702a92.787 92.787 0 0 1 3.405-.669l.21.986c-1.563.261-2.68.469-3.352.622-.653.148-1.144.5-1.472 1.054-.325.554-.503 1.308-.534 2.263h.081c.279-.378.64-.676 1.081-.892a3.111 3.111 0 0 1 1.385-.324c.91 0 1.619.295 2.128.885.509.59.764 1.408.764 2.453 0 1.157-.295 2.062-.885 2.716-.59.648-1.412.972-2.466.972-1.041 0-1.856-.398-2.446-1.195-.59-.798-.885-1.924-.885-3.379zm3.432 3.635c1.374 0 2.061-.876 2.061-2.628 0-1.671-.624-2.506-1.872-2.506-.342 0-.673.072-.993.216a3.361 3.361 0 0 0-.872.561 3.045 3.045 0 0 0-.608.722c0 1.185.187 2.088.561 2.71.374.617.948.925 1.723.925zm11.6-2.905c0 1.207-.304 2.151-.912 2.831-.608.676-1.448 1.013-2.52 1.013-.662 0-1.25-.155-1.763-.466a3.071 3.071 0 0 1-1.189-1.337c-.279-.582-.419-1.262-.419-2.041 0-1.207.302-2.146.905-2.817.604-.676 1.442-1.014 2.514-1.014 1.036 0 1.858.345 2.466 1.034.612.689.918 1.622.918 2.797zm-5.641 0c0 .946.189 1.667.567 2.162.379.496.935.743 1.669.743s1.291-.245 1.669-.736c.383-.496.574-1.218.574-2.169 0-.941-.191-1.655-.574-2.142-.378-.491-.939-.736-1.682-.736-.734 0-1.288.241-1.662.723-.374.482-.561 1.2-.561 2.155zm11.06 3.844c-.482 0-.923-.087-1.324-.263a2.512 2.512 0 0 1-1-.824h-.081c.054.432.081.842.081 1.229v3.047h-1.122v-10.729h.912l.156 1.014h.054c.288-.405.624-.698 1.007-.878.382-.181.822-.271 1.317-.271.982 0 1.739.336 2.27 1.007.536.671.804 1.613.804 2.824 0 1.216-.272 2.162-.817 2.838-.541.671-1.293 1.006-2.257 1.006zm-.162-6.722c-.757 0-1.304.209-1.642.628-.338.419-.511 1.086-.52 2v.25c0 1.041.173 1.786.52 2.236.347.446.903.669 1.669.669.639 0 1.139-.259 1.5-.777.365-.518.547-1.232.547-2.141 0-.924-.182-1.631-.547-2.122-.361-.495-.87-.743-1.527-.743z" fill="#000"/><path d="M47.859 170.747l-2.676-8.718h-.068c.096 1.773.144 2.956.144 3.549v5.169h-2.105v-11.113h3.207l2.63 8.498h.046l2.79-8.498h3.207v11.113h-2.197v-5.26c0-.248.003-.535.008-.859.01-.324.046-1.186.106-2.584h-.068l-2.866 8.703H47.86zm12.116-8.498v3.268h3.237v-3.268h2.319v8.498h-2.319v-3.504h-3.237v3.504h-2.319v-8.498h2.319zm9.835 4.234c0 .841.137 1.477.41 1.908.28.43.73.646 1.353.646.619 0 1.062-.213 1.33-.639.274-.431.411-1.069.411-1.915 0-.841-.137-1.472-.41-1.893-.274-.42-.722-.631-1.346-.631-.618 0-1.064.211-1.338.631-.273.416-.41 1.047-.41 1.893zm5.876 0c0 1.383-.365 2.465-1.095 3.245-.73.781-1.746 1.171-3.048 1.171-.816 0-1.535-.178-2.159-.532a3.59 3.59 0 0 1-1.436-1.543c-.335-.669-.502-1.449-.502-2.341 0-1.389.362-2.468 1.087-3.238s1.743-1.156 3.056-1.156c.816 0 1.535.178 2.158.533a3.545 3.545 0 0 1 1.437 1.527c.334.664.502 1.442.502 2.334zm6.415-.107v-4.127h2.158v4.127l3.025-4.127h2.395l-3.132 4.074 3.428 4.424h-2.478l-3.238-4.31v4.31h-2.158v-4.31l-3.238 4.31h-2.478l3.428-4.424-3.132-4.074h2.395l3.025 4.127zm12.61-2.637c-.492 0-.877.157-1.156.471-.279.309-.438.75-.479 1.323h3.253c-.01-.573-.16-1.014-.448-1.323-.289-.314-.679-.471-1.17-.471zm.326 7.16c-1.368 0-2.437-.378-3.207-1.133s-1.156-1.824-1.156-3.207c0-1.424.355-2.524 1.064-3.299.715-.78 1.7-1.171 2.957-1.171 1.201 0 2.136.343 2.805 1.027.669.684 1.003 1.629 1.003 2.835v1.125h-5.48c.025.658.22 1.173.585 1.543.365.369.877.554 1.536.554.511 0 .995-.053 1.451-.159a7.306 7.306 0 0 0 1.43-.509v1.793a5.304 5.304 0 0 1-1.3.449c-.462.101-1.024.152-1.688.152zm8.802 0c-2.645 0-3.968-1.452-3.968-4.355 0-1.445.36-2.547 1.08-3.307.719-.765 1.75-1.148 3.093-1.148.983 0 1.865.193 2.645.578l-.684 1.794a10.77 10.77 0 0 0-1.018-.357 3.182 3.182 0 0 0-.943-.145c-1.206 0-1.809.857-1.809 2.569 0 1.662.603 2.493 1.809 2.493.446 0 .859-.058 1.239-.174a4.57 4.57 0 0 0 1.14-.563v1.984a3.728 3.728 0 0 1-1.14.494c-.38.091-.861.137-1.444.137zm11.591-8.65v1.741h-2.782v6.757h-2.318v-6.757h-2.789v-1.741h7.889zm9.433 2.227a1.7 1.7 0 0 1-.433 1.171c-.284.319-.705.524-1.262.615v.061c.603.071 1.079.279 1.429.623.355.34.532.76.532 1.262 0 .826-.324 1.457-.973 1.893-.649.43-1.576.646-2.782.646h-4.355v-8.498h4.355c1.166 0 2.037.19 2.615.57.583.375.874.927.874 1.657zm-2.136 3.611c0-.335-.129-.576-.388-.723-.258-.152-.646-.228-1.162-.228h-1.84v2.007h1.885c.492 0 .864-.091 1.117-.274a.91.91 0 0 0 .388-.782zm-.213-3.428c0-.517-.41-.776-1.231-.776h-1.946v1.68h1.68c.491 0 .864-.071 1.117-.213.254-.142.38-.372.38-.691zm7.981-.92c-.491 0-.876.157-1.155.471-.279.309-.438.75-.479 1.323h3.253c-.01-.573-.159-1.014-.448-1.323-.289-.314-.679-.471-1.171-.471zm.327 7.16c-1.368 0-2.437-.378-3.208-1.133-.77-.755-1.155-1.824-1.155-3.207 0-1.424.355-2.524 1.064-3.299.715-.78 1.7-1.171 2.957-1.171 1.201 0 2.136.343 2.805 1.027.669.684 1.003 1.629 1.003 2.835v1.125h-5.48c.025.658.22 1.173.585 1.543.365.369.877.554 1.535.554.512 0 .996-.053 1.452-.159a7.295 7.295 0 0 0 1.429-.509v1.793a5.287 5.287 0 0 1-1.3.449c-.461.101-1.023.152-1.687.152zm7.669-8.65v3.268h3.238v-3.268h2.318v8.498h-2.318v-3.504h-3.238v3.504h-2.318v-8.498h2.318zm10.307 0v3.268h3.238v-3.268h2.318v8.498h-2.318v-3.504h-3.238v3.504h-2.318v-8.498h2.318zm10.307 3.284h1.117c1.297 0 2.258.207 2.881.623.623.415.935 1.044.935 1.885 0 .897-.312 1.573-.935 2.029-.623.451-1.556.677-2.797.677h-3.519v-8.498h2.318v3.284zm2.614 2.538c0-.329-.131-.567-.395-.714-.263-.147-.656-.221-1.178-.221h-1.041v2.007h1.071c1.029 0 1.543-.357 1.543-1.072zm5.868 2.676h-2.318v-8.498h2.318v8.498zm4.682-8.498v3.36c0 .354-.058 1.221-.174 2.599l3.922-5.959h2.789v8.498h-2.242v-3.39c0-.603.051-1.454.152-2.554l-3.907 5.944h-2.782v-8.498h2.242zm5.853-3.656c-.096.948-.453 1.639-1.072 2.075-.618.431-1.51.646-2.675.646-1.201 0-2.09-.208-2.668-.623-.573-.416-.894-1.115-.965-2.098h2.075c.035.522.164.889.387 1.102.228.208.634.312 1.216.312.512 0 .892-.114 1.141-.342.253-.233.407-.591.463-1.072h2.098zm15.012 5.883c0 .456-.145.846-.434 1.171-.283.319-.704.524-1.261.615v.061c.603.071 1.079.279 1.429.623.354.34.532.76.532 1.262 0 .826-.325 1.457-.973 1.893-.649.43-1.576.646-2.782.646h-4.355v-8.498h4.355c1.165 0 2.037.19 2.615.57.582.375.874.927.874 1.657zm-2.136 3.611c0-.335-.129-.576-.388-.723-.258-.152-.646-.228-1.163-.228h-1.839v2.007h1.885c.491 0 .864-.091 1.117-.274a.91.91 0 0 0 .388-.782zm-.213-3.428c0-.517-.41-.776-1.231-.776h-1.946v1.68h1.68c.491 0 .864-.071 1.117-.213.253-.142.38-.372.38-.691zm6.78.874h1.117c1.298 0 2.258.207 2.881.623.623.415.935 1.044.935 1.885 0 .897-.312 1.573-.935 2.029-.623.451-1.556.677-2.797.677h-3.519v-8.498h2.318v3.284zm2.615 2.538c0-.329-.132-.567-.396-.714-.263-.147-.656-.221-1.178-.221h-1.041v2.007h1.072c1.028 0 1.543-.357 1.543-1.072zm5.868 2.676h-2.319v-8.498h2.319v8.498zm1.923-5.093c0-1.951.369-3.43 1.109-4.439.745-1.013 1.906-1.654 3.481-1.923.766-.131 1.908-.299 3.428-.501l.266 2.022c-.658.076-1.826.238-3.504.486-.638.101-1.114.253-1.428.456-.315.203-.55.492-.707.867-.152.375-.246.874-.282 1.497h.114a2.694 2.694 0 0 1 1.065-.958 3.1 3.1 0 0 1 1.421-.334c1.049 0 1.865.322 2.447.965.583.639.874 1.556.874 2.752 0 1.378-.369 2.45-1.109 3.215-.735.76-1.751 1.14-3.048 1.14-1.297 0-2.311-.464-3.041-1.391-.724-.932-1.086-2.217-1.086-3.854zm4.264 3.367c1.099 0 1.649-.757 1.649-2.272 0-1.475-.497-2.212-1.49-2.212-.273 0-.547.063-.821.19a3.04 3.04 0 0 0-.745.502 2.244 2.244 0 0 0-.494.615c0 1.029.165 1.817.494 2.364.33.542.799.813 1.407.813zm7.783-2.538c0 .841.137 1.477.41 1.908.279.43.73.646 1.353.646.618 0 1.062-.213 1.33-.639.274-.431.411-1.069.411-1.915 0-.841-.137-1.472-.411-1.893-.273-.42-.722-.631-1.345-.631-.618 0-1.064.211-1.338.631-.273.416-.41 1.047-.41 1.893zm5.875 0c0 1.383-.364 2.465-1.094 3.245-.73.781-1.746 1.171-3.048 1.171-.816 0-1.535-.178-2.159-.532a3.588 3.588 0 0 1-1.436-1.543c-.335-.669-.502-1.449-.502-2.341 0-1.389.362-2.468 1.087-3.238s1.743-1.156 3.055-1.156c.816 0 1.536.178 2.159.533a3.55 3.55 0 0 1 1.437 1.527c.334.664.501 1.442.501 2.334zm6.583 4.416c-.999 0-1.781-.362-2.349-1.087h-.122c.081.709.122 1.12.122 1.231v3.443h-2.318v-12.237h1.885l.327 1.102h.106c.542-.841 1.345-1.262 2.409-1.262 1.004 0 1.789.388 2.357 1.163.567.776.851 1.852.851 3.231 0 .907-.134 1.695-.403 2.364-.263.668-.641 1.178-1.132 1.527-.492.35-1.07.525-1.733.525zm-.684-6.955c-.573 0-.991.177-1.255.532-.263.35-.4.93-.41 1.741v.251c0 .912.134 1.565.403 1.961.273.395.704.592 1.292.592 1.039 0 1.558-.856 1.558-2.569 0-.836-.129-1.462-.387-1.877-.254-.421-.654-.631-1.201-.631z" fill="#001843"/><g clip-path="url(#e)"><path d="M46.586 203.609h-1.094v-7.04c0-.585.018-1.139.054-1.662a7.15 7.15 0 0 1-.318.298c-.117.103-.653.542-1.608 1.317l-.594-.77 2.614-2.02h.946v9.877zm201.074-6.31c.955 0 1.714.268 2.277.804.568.536.852 1.27.852 2.203 0 1.103-.34 1.952-1.021 2.547-.68.594-1.653.892-2.918.892-1.099 0-1.987-.178-2.662-.534v-1.804c.356.189.77.345 1.243.466.473.117.921.176 1.344.176 1.275 0 1.912-.523 1.912-1.568 0-.995-.659-1.493-1.979-1.493-.239 0-.502.025-.791.075a5.46 5.46 0 0 0-.702.148l-.831-.446.371-5.033h5.358v1.77h-3.527l-.182 1.939.236-.047a4.654 4.654 0 0 1 1.02-.095zm11.162 1.372c0 1.725-.284 3.002-.851 3.83-.563.829-1.433 1.244-2.608 1.244-1.14 0-2-.428-2.581-1.284-.577-.856-.865-2.119-.865-3.79 0-1.743.281-3.027.844-3.851.564-.829 1.431-1.244 2.602-1.244 1.139 0 2 .433 2.581 1.298.585.864.878 2.13.878 3.797zm-4.831 0c0 1.211.104 2.081.311 2.608.212.522.565.783 1.061.783.486 0 .837-.265 1.054-.797.216-.531.324-1.396.324-2.594 0-1.212-.11-2.081-.331-2.608-.216-.532-.565-.798-1.047-.798-.491 0-.843.266-1.054.798-.212.527-.318 1.396-.318 2.608zm7.459-1.98c0 .572.05 1 .149 1.284.103.279.268.419.493.419.432 0 .649-.568.649-1.703 0-1.126-.217-1.689-.649-1.689-.225 0-.39.14-.493.419-.099.275-.149.698-.149 1.27zm2.993-.013c0 1.035-.2 1.815-.601 2.337-.401.518-.989.777-1.764.777-.743 0-1.317-.266-1.722-.797-.406-.536-.608-1.309-.608-2.317 0-2.059.776-3.088 2.33-3.088.762 0 1.345.268 1.75.804.41.531.615 1.293.615 2.284zm4.648-2.946l-5.479 9.877h-1.621l5.479-9.877h1.621zm-.722 6.905c0 .572.049 1 .148 1.283.104.28.268.419.493.419.433 0 .649-.567.649-1.702 0-1.126-.216-1.689-.649-1.689-.225 0-.389.139-.493.419-.099.274-.148.698-.148 1.27zm2.993-.014c0 1.032-.201 1.809-.602 2.331-.401.518-.988.777-1.763.777-.743 0-1.318-.266-1.723-.797-.405-.536-.608-1.306-.608-2.311 0-2.058.777-3.087 2.331-3.087.761 0 1.344.268 1.75.804.41.531.615 1.292.615 2.283z" fill="#000"/><path fill="#C9E55A" d="M181.854 192.798h48.429v10.378h-48.429z"/><path d="M48.924 231.283H42.43v-.966l2.601-2.615c.793-.801 1.315-1.373 1.568-1.716a4.36 4.36 0 0 0 .567-1c.126-.324.19-.673.19-1.047 0-.527-.16-.944-.48-1.25-.32-.311-.764-.466-1.331-.466-.41 0-.8.068-1.17.203-.364.135-.772.38-1.222.736l-.595-.763c.91-.757 1.901-1.135 2.973-1.135.928 0 1.655.238 2.182.716.527.473.79 1.11.79 1.912 0 .626-.175 1.245-.526 1.858-.351.612-1.009 1.387-1.973 2.324l-2.162 2.115v.054h5.08v1.04zm209.898-4.939c0 1.725-.284 3.002-.851 3.831-.563.829-1.433 1.243-2.608 1.243-1.14 0-2-.428-2.581-1.283-.577-.856-.865-2.12-.865-3.791 0-1.743.281-3.026.844-3.851.563-.829 1.431-1.243 2.602-1.243 1.139 0 1.999.432 2.581 1.297.585.865.878 2.131.878 3.797zm-4.831 0c0 1.212.104 2.081.311 2.608.212.523.565.784 1.061.784.486 0 .837-.266 1.054-.797.216-.532.324-1.397.324-2.595 0-1.211-.11-2.081-.331-2.608-.216-.531-.565-.797-1.047-.797-.491 0-.843.266-1.054.797-.212.527-.318 1.397-.318 2.608zm7.459-1.979c0 .572.05 1 .149 1.283.103.28.268.419.493.419.432 0 .648-.567.648-1.702 0-1.126-.216-1.689-.648-1.689-.225 0-.39.139-.493.419-.099.274-.149.698-.149 1.27zm2.993-.014c0 1.036-.2 1.815-.601 2.338-.401.518-.989.777-1.764.777-.743 0-1.317-.266-1.722-.797-.406-.536-.609-1.309-.609-2.318 0-2.058.777-3.087 2.331-3.087.762 0 1.345.268 1.75.804.41.531.615 1.292.615 2.283zm4.648-2.946l-5.479 9.878h-1.621l5.479-9.878h1.621zm-.723 6.905c0 .572.05 1 .149 1.284.104.279.268.419.493.419.433 0 .649-.568.649-1.703 0-1.126-.216-1.689-.649-1.689-.225 0-.389.14-.493.419-.099.275-.149.698-.149 1.27zm2.994-.013c0 1.031-.201 1.808-.602 2.331-.401.518-.988.777-1.763.777-.743 0-1.318-.266-1.723-.797-.405-.536-.608-1.307-.608-2.311 0-2.059.777-3.088 2.331-3.088.761 0 1.344.268 1.75.804.41.532.615 1.293.615 2.284zm-222.81 23.106c0 .631-.178 1.147-.533 1.548-.352.401-.852.669-1.5.804v.054c.792.099 1.38.351 1.763.756.383.406.574.937.574 1.595 0 .941-.326 1.666-.98 2.175-.652.505-1.58.757-2.783.757-.523 0-1.002-.04-1.44-.121a4.811 4.811 0 0 1-1.262-.413v-1.067a6.374 6.374 0 0 0 2.743.649c1.707 0 2.56-.669 2.56-2.007 0-1.198-.941-1.797-2.824-1.797h-.973v-.966h.986c.77 0 1.381-.169 1.831-.507.45-.342.676-.815.676-1.419 0-.482-.166-.86-.5-1.135-.329-.275-.777-.412-1.344-.412-.433 0-.84.058-1.223.175-.383.118-.82.334-1.311.649l-.568-.757a4.72 4.72 0 0 1 1.4-.75 5.086 5.086 0 0 1 1.675-.277c.959 0 1.705.221 2.236.663.531.436.797 1.038.797 1.803zm192.771 7.554h-2.088v-5.716l.021-.939.033-1.027c-.346.347-.587.574-.722.683l-1.136.912-1.006-1.257 3.182-2.534h1.716v9.878zm9.594-4.939c0 1.725-.284 3.002-.851 3.831-.563.829-1.433 1.243-2.608 1.243-1.14 0-2-.428-2.581-1.284-.577-.855-.865-2.119-.865-3.79 0-1.743.282-3.027.845-3.851.563-.829 1.43-1.243 2.601-1.243 1.139 0 2 .432 2.581 1.297.585.865.878 2.131.878 3.797zm-4.831 0c0 1.212.104 2.081.311 2.608.212.523.565.784 1.061.784.486 0 .838-.266 1.054-.797.216-.532.324-1.397.324-2.595 0-1.211-.11-2.081-.331-2.608-.216-.531-.565-.797-1.047-.797-.491 0-.842.266-1.054.797-.212.527-.318 1.397-.318 2.608zm12.736 0c0 1.725-.284 3.002-.851 3.831-.563.829-1.433 1.243-2.608 1.243-1.14 0-2-.428-2.581-1.284-.577-.855-.865-2.119-.865-3.79 0-1.743.282-3.027.845-3.851.563-.829 1.43-1.243 2.601-1.243 1.139 0 2 .432 2.581 1.297.585.865.878 2.131.878 3.797zm-4.831 0c0 1.212.104 2.081.311 2.608.212.523.565.784 1.061.784.486 0 .838-.266 1.054-.797.216-.532.324-1.397.324-2.595 0-1.211-.11-2.081-.331-2.608-.216-.531-.565-.797-1.047-.797-.491 0-.843.266-1.054.797-.212.527-.318 1.397-.318 2.608zm7.459-1.979c0 .572.05 1 .149 1.283.103.28.268.419.493.419.432 0 .649-.567.649-1.702 0-1.126-.217-1.689-.649-1.689-.225 0-.39.139-.493.418-.099.275-.149.699-.149 1.271zm2.993-.014c0 1.036-.2 1.815-.601 2.338-.401.518-.989.777-1.764.777-.743 0-1.317-.266-1.722-.798-.406-.536-.608-1.308-.608-2.317 0-2.058.777-3.088 2.33-3.088.762 0 1.345.268 1.75.804.41.532.615 1.293.615 2.284zm4.649-2.946l-5.48 9.878h-1.621l5.479-9.878h1.622zm-.723 6.905c0 .572.049 1 .148 1.284.104.279.268.419.493.419.433 0 .649-.568.649-1.703 0-1.126-.216-1.689-.649-1.689-.225 0-.389.14-.493.419-.099.275-.148.698-.148 1.27zm2.993-.013c0 1.031-.201 1.808-.602 2.331-.401.518-.988.777-1.763.777-.743 0-1.318-.266-1.723-.798-.405-.536-.608-1.306-.608-2.31 0-2.059.777-3.088 2.331-3.088.761 0 1.344.268 1.75.804.41.532.615 1.293.615 2.284z" fill="#000"/><path fill="#C9E55A" d="M130.831 248.146h99.453v10.378h-99.453z"/><path d="M49.39 284.361h-1.466v2.27H46.85v-2.27h-4.804v-.98l4.689-6.682h1.189v6.642h1.466v1.02zm-2.54-1.02v-3.284c0-.644.022-1.372.067-2.182h-.054c-.216.432-.419.79-.608 1.074l-3.088 4.392h3.683zm200.81-3.021c.955 0 1.714.268 2.277.804.568.536.852 1.271.852 2.203 0 1.104-.34 1.953-1.021 2.547-.68.595-1.653.892-2.918.892-1.099 0-1.987-.178-2.662-.534v-1.804c.356.189.77.345 1.243.466.473.118.921.176 1.344.176 1.275 0 1.912-.522 1.912-1.567 0-.996-.659-1.493-1.979-1.493-.239 0-.502.024-.791.074a5.274 5.274 0 0 0-.702.149l-.831-.446.371-5.034h5.358v1.77h-3.527l-.182 1.939.236-.047a4.654 4.654 0 0 1 1.02-.095zm11.162 1.372c0 1.725-.284 3.002-.851 3.831-.563.829-1.433 1.243-2.608 1.243-1.14 0-2-.428-2.581-1.284-.577-.856-.865-2.119-.865-3.79 0-1.743.281-3.027.844-3.851.564-.829 1.431-1.243 2.602-1.243 1.139 0 2 .432 2.581 1.297.585.865.878 2.13.878 3.797zm-4.831 0c0 1.212.104 2.081.311 2.608.212.522.565.784 1.061.784.486 0 .837-.266 1.054-.798.216-.531.324-1.396.324-2.594 0-1.212-.11-2.081-.331-2.608-.216-.531-.565-.797-1.047-.797-.491 0-.843.266-1.054.797-.212.527-.318 1.396-.318 2.608zm7.459-1.98c0 .572.05 1 .149 1.284.103.279.268.419.493.419.432 0 .649-.568.649-1.703 0-1.126-.217-1.689-.649-1.689-.225 0-.39.14-.493.419-.099.275-.149.698-.149 1.27zm2.993-.013c0 1.036-.2 1.815-.601 2.338-.401.518-.989.777-1.764.777-.743 0-1.317-.266-1.722-.798-.406-.536-.608-1.308-.608-2.317 0-2.059.776-3.088 2.33-3.088.762 0 1.345.268 1.75.804.41.532.615 1.293.615 2.284zm4.648-2.946l-5.479 9.878h-1.621l5.479-9.878h1.621zm-.722 6.905c0 .572.049 1 .148 1.284.104.279.268.419.493.419.433 0 .649-.568.649-1.703 0-1.126-.216-1.689-.649-1.689-.225 0-.389.14-.493.419-.099.275-.148.698-.148 1.27zm2.993-.013c0 1.031-.201 1.808-.602 2.33-.401.518-.988.777-1.763.777-.743 0-1.318-.265-1.723-.797-.405-.536-.608-1.306-.608-2.31 0-2.059.777-3.088 2.331-3.088.761 0 1.344.268 1.75.804.41.531.615 1.293.615 2.284z" fill="#000"/><path fill="#C9E55A" d="M181.854 275.82h48.429v10.378h-48.429z"/><path d="M45.519 308.271c1.04 0 1.858.259 2.452.777.6.514.899 1.219.899 2.115 0 1.022-.327 1.824-.98 2.405-.648.581-1.545.872-2.689.872-1.112 0-1.962-.178-2.547-.534v-1.081c.315.203.707.363 1.176.48.468.112.93.169 1.385.169.792 0 1.407-.187 1.844-.561.442-.374.662-.914.662-1.622 0-1.378-.844-2.067-2.533-2.067-.428 0-1 .065-1.717.196l-.58-.372.371-4.621h4.912v1.034H44.22l-.25 2.966a7.844 7.844 0 0 1 1.548-.156zm202.141-.277c.955 0 1.714.268 2.277.804.568.536.852 1.27.852 2.203 0 1.103-.34 1.952-1.021 2.547-.68.595-1.653.892-2.918.892-1.099 0-1.987-.178-2.662-.534v-1.804c.356.189.77.345 1.243.466.473.117.921.176 1.344.176 1.275 0 1.912-.523 1.912-1.567 0-.996-.659-1.494-1.979-1.494-.239 0-.502.025-.791.075a5.46 5.46 0 0 0-.702.148l-.831-.446.371-5.033h5.358v1.77h-3.527l-.182 1.939.236-.047a4.654 4.654 0 0 1 1.02-.095zm11.162 1.372c0 1.725-.284 3.002-.851 3.831-.563.828-1.433 1.243-2.608 1.243-1.14 0-2-.428-2.581-1.284-.577-.856-.865-2.119-.865-3.79 0-1.743.281-3.027.844-3.851.564-.829 1.431-1.243 2.602-1.243 1.139 0 2 .432 2.581 1.297.585.865.878 2.13.878 3.797zm-4.831 0c0 1.211.104 2.081.311 2.608.212.522.565.783 1.061.783.486 0 .837-.265 1.054-.797.216-.531.324-1.396.324-2.594 0-1.212-.11-2.081-.331-2.608-.216-.532-.565-.797-1.047-.797-.491 0-.843.265-1.054.797-.212.527-.318 1.396-.318 2.608zm7.459-1.98c0 .572.05 1 .149 1.284.103.279.268.419.493.419.432 0 .649-.568.649-1.703 0-1.126-.217-1.689-.649-1.689-.225 0-.39.14-.493.419-.099.275-.149.698-.149 1.27zm2.993-.013c0 1.036-.2 1.815-.601 2.337-.401.518-.989.777-1.764.777-.743 0-1.317-.265-1.722-.797-.406-.536-.608-1.308-.608-2.317 0-2.059.776-3.088 2.33-3.088.762 0 1.345.268 1.75.804.41.532.615 1.293.615 2.284zm4.648-2.946l-5.479 9.878h-1.621l5.479-9.878h1.621zm-.722 6.905c0 .572.049 1 .148 1.284.104.279.268.419.493.419.433 0 .649-.568.649-1.703 0-1.126-.216-1.689-.649-1.689-.225 0-.389.139-.493.419-.099.274-.148.698-.148 1.27zm2.993-.014c0 1.032-.201 1.809-.602 2.331-.401.518-.988.777-1.763.777-.743 0-1.318-.265-1.723-.797-.405-.536-.608-1.306-.608-2.311 0-2.058.777-3.087 2.331-3.087.761 0 1.344.268 1.75.804.41.531.615 1.292.615 2.283z" fill="#000"/><path fill="#C9E55A" d="M181.854 303.494h48.429v10.378h-48.429z"/><path d="M42.546 337.756c0-1.941.376-3.392 1.128-4.351.757-.964 1.874-1.446 3.351-1.446.51 0 .91.043 1.203.128v.967a3.835 3.835 0 0 0-1.19-.169c-1.058 0-1.866.331-2.425.993-.558.657-.864 1.693-.919 3.108h.081c.496-.775 1.28-1.162 2.352-1.162.887 0 1.585.268 2.094.804.514.536.77 1.263.77 2.182 0 1.027-.281 1.835-.844 2.425-.559.586-1.315.879-2.27.879-1.023 0-1.834-.383-2.433-1.149-.599-.77-.898-1.84-.898-3.209zm3.317 3.405c.64 0 1.135-.2 1.487-.601.355-.406.533-.989.533-1.75 0-.653-.164-1.167-.493-1.541-.329-.373-.82-.56-1.473-.56a2.48 2.48 0 0 0-1.114.25 2.081 2.081 0 0 0-.811.689 1.606 1.606 0 0 0-.298.912c0 .464.09.896.27 1.297.18.401.435.719.764.953a1.93 1.93 0 0 0 1.135.351zm205.108.818h-6.905v-1.453l2.48-2.507c.734-.752 1.214-1.272 1.439-1.56a3.5 3.5 0 0 0 .486-.811 2.06 2.06 0 0 0 .149-.77c0-.397-.11-.692-.331-.885-.216-.194-.507-.291-.872-.291-.383 0-.754.088-1.115.264-.36.175-.736.425-1.128.749l-1.135-1.344c.487-.414.89-.707 1.209-.878a4.34 4.34 0 0 1 1.048-.392 5.216 5.216 0 0 1 1.27-.142c.617 0 1.162.113 1.635.338a2.6 2.6 0 0 1 1.101.946c.261.405.392.869.392 1.391 0 .455-.081.883-.243 1.284a4.85 4.85 0 0 1-.743 1.223c-.334.419-.924 1.016-1.771 1.79l-1.27 1.196v.095h4.304v1.757zm7.851-4.939c0 1.725-.284 3.002-.851 3.83-.563.829-1.433 1.244-2.608 1.244-1.14 0-2-.428-2.581-1.284-.577-.856-.865-2.119-.865-3.79 0-1.743.281-3.027.844-3.851.564-.829 1.431-1.244 2.602-1.244 1.139 0 2 .433 2.581 1.298.585.864.878 2.13.878 3.797zm-4.831 0c0 1.211.104 2.081.311 2.608.212.522.565.783 1.061.783.486 0 .837-.265 1.054-.797.216-.531.324-1.396.324-2.594 0-1.212-.11-2.081-.331-2.608-.216-.532-.565-.798-1.047-.798-.491 0-.843.266-1.054.798-.212.527-.318 1.396-.318 2.608zm7.459-1.98c0 .572.05 1 .149 1.284.103.279.268.419.493.419.432 0 .649-.568.649-1.703 0-1.126-.217-1.689-.649-1.689-.225 0-.39.14-.493.419-.099.275-.149.698-.149 1.27zm2.993-.013c0 1.036-.2 1.815-.601 2.337-.401.518-.989.777-1.764.777-.743 0-1.317-.266-1.722-.797-.406-.536-.608-1.309-.608-2.317 0-2.059.776-3.088 2.33-3.088.762 0 1.345.268 1.75.804.41.531.615 1.293.615 2.284zm4.648-2.946l-5.479 9.878h-1.621l5.479-9.878h1.621zm-.722 6.905c0 .572.049 1 .148 1.283.104.28.268.419.493.419.433 0 .649-.567.649-1.702 0-1.126-.216-1.689-.649-1.689-.225 0-.389.139-.493.419-.099.274-.148.698-.148 1.27zm2.993-.014c0 1.032-.201 1.809-.602 2.331-.401.518-.988.777-1.763.777-.743 0-1.318-.266-1.723-.797-.405-.536-.608-1.306-.608-2.311 0-2.058.777-3.087 2.331-3.087.761 0 1.344.268 1.75.804.41.531.615 1.292.615 2.283z" fill="#000"/><path fill="#C9E55A" d="M210.393 331.167h19.891v10.378h-19.891z"/></g></g><g filter="url(#f)"><rect x="243" y="376" width="226" height="57" rx="10" fill="#479E38"/><path d="M302.602 401.43c-.912 0-1.618.343-2.118 1.031-.5.682-.75 1.635-.75 2.859 0 2.547.956 3.821 2.868 3.821.802 0 1.773-.201 2.914-.602v2.031c-.938.391-1.985.586-3.141.586-1.661 0-2.932-.502-3.813-1.508-.88-1.01-1.32-2.458-1.32-4.343 0-1.188.216-2.227.649-3.117.432-.896 1.052-1.581 1.859-2.055.812-.479 1.763-.719 2.852-.719 1.109 0 2.224.268 3.343.805l-.781 1.969a12.743 12.743 0 0 0-1.289-.532 3.845 3.845 0 0 0-1.273-.226zm10.89.836h2.625l-3.461 4.187 3.766 4.547h-2.703l-3.571-4.43V411h-2.382v-8.734h2.382v4.242l3.344-4.242zm9.727 8.734l-.461-1.188h-.063c-.401.506-.815.857-1.242 1.055-.422.193-.974.289-1.656.289-.839 0-1.5-.239-1.985-.718-.479-.48-.718-1.162-.718-2.047 0-.927.323-1.61.968-2.047.652-.443 1.631-.688 2.938-.735l1.516-.047v-.382c0-.886-.454-1.328-1.36-1.328-.698 0-1.518.21-2.461.632l-.789-1.609c1.005-.526 2.12-.789 3.344-.789 1.172 0 2.07.255 2.695.766.625.51.938 1.286.938 2.328V411h-1.664zm-.703-4.047l-.922.031c-.693.021-1.209.146-1.547.375-.339.23-.508.579-.508 1.047 0 .672.385 1.008 1.156 1.008.552 0 .993-.159 1.321-.476.333-.318.5-.74.5-1.266v-.719zm6.922-4.687v3.195c0 .76.351 1.141 1.054 1.141a4.94 4.94 0 0 0 1.274-.157 9.207 9.207 0 0 0 1.195-.406v-3.773h2.383V411h-2.383v-3.469a6.964 6.964 0 0 1-1.539.617c-.474.12-.932.18-1.375.18-.953 0-1.69-.242-2.211-.726-.521-.49-.781-1.185-.781-2.086v-3.25h2.383zM343.391 411l-.461-1.188h-.063c-.401.506-.815.857-1.242 1.055-.422.193-.974.289-1.656.289-.839 0-1.5-.239-1.985-.718-.479-.48-.718-1.162-.718-2.047 0-.927.323-1.61.968-2.047.651-.443 1.631-.688 2.938-.735l1.516-.047v-.382c0-.886-.454-1.328-1.36-1.328-.698 0-1.518.21-2.461.632l-.789-1.609c1.005-.526 2.12-.789 3.344-.789 1.172 0 2.07.255 2.695.766.625.51.938 1.286.938 2.328V411h-1.664zm-.703-4.047l-.922.031c-.693.021-1.209.146-1.547.375-.339.23-.508.579-.508 1.047 0 .672.385 1.008 1.156 1.008.552 0 .992-.159 1.321-.476.333-.318.5-.74.5-1.266v-.719zm12.054-4.687v1.789h-2.859V411H349.5v-6.945h-2.867v-1.789h8.109zm4.016 3.375h1.68c1.343 0 2.338.213 2.984.64.646.427.969 1.073.969 1.938 0 1.854-1.287 2.781-3.86 2.781h-4.156v-8.734h2.383v3.375zm3.25 2.609c0-.339-.136-.583-.406-.734-.271-.151-.675-.227-1.211-.227h-1.633v2.063h1.664c1.057 0 1.586-.368 1.586-1.102zm10.25-1.633c0 .865.14 1.518.422 1.961.286.443.75.664 1.39.664.636 0 1.091-.219 1.368-.656.281-.443.421-1.099.421-1.969 0-.864-.14-1.513-.421-1.945-.282-.432-.743-.649-1.383-.649-.636 0-1.094.217-1.375.649-.282.427-.422 1.075-.422 1.945zm6.039 0c0 1.422-.375 2.534-1.125 3.336s-1.794 1.203-3.133 1.203c-.838 0-1.578-.182-2.219-.547a3.686 3.686 0 0 1-1.476-1.586c-.344-.687-.516-1.489-.516-2.406 0-1.427.373-2.536 1.117-3.328.745-.792 1.792-1.187 3.141-1.187.838 0 1.578.182 2.219.546.64.365 1.133.888 1.476 1.571.344.682.516 1.482.516 2.398zm9.195-4.351v1.789h-2.859V411h-2.383v-6.945h-2.867v-1.789h8.109zm3.727 0v3.195c0 .76.351 1.141 1.054 1.141a4.94 4.94 0 0 0 1.274-.157 9.156 9.156 0 0 0 1.195-.406v-3.773h2.383V411h-2.383v-3.469a6.964 6.964 0 0 1-1.539.617c-.474.12-.932.18-1.375.18-.953 0-1.69-.242-2.211-.726-.521-.49-.781-1.185-.781-2.086v-3.25h2.383zm12.023 1.531c-.505 0-.901.161-1.187.484-.287.318-.451.771-.493 1.36h3.344c-.01-.589-.164-1.042-.461-1.36-.297-.323-.698-.484-1.203-.484zm.336 7.359c-1.406 0-2.505-.388-3.297-1.164-.791-.776-1.187-1.875-1.187-3.297 0-1.463.364-2.593 1.094-3.39.734-.802 1.747-1.203 3.039-1.203 1.234 0 2.195.351 2.882 1.054.688.703 1.032 1.675 1.032 2.914v1.157h-5.633c.026.677.226 1.205.601 1.585.375.381.901.571 1.579.571.526 0 1.023-.055 1.492-.164.468-.11.958-.284 1.468-.524v1.844a5.482 5.482 0 0 1-1.336.461c-.473.104-1.052.156-1.734.156zm12.727-8.89v1.789h-2.86V411h-2.383v-6.945h-2.867v-1.789h8.11z" fill="#fff"/></g><defs><filter id="a" x="24.459" y=".811" width="307.871" height="143.558" filterUnits="userSpaceOnUse" color-interpolation-filters="sRGB"><feFlood flood-opacity="0" result="BackgroundImageFix"/><feColorMatrix in="SourceAlpha" values="0 0 0 0 0 0 0 0 0 0 0 0 0 0 0 0 0 0 127 0"/><feOffset dy="15.566"/><feGaussianBlur stdDeviation="10.378"/><feColorMatrix values="0 0 0 0 0 0 0 0 0 0.0922297 0 0 0 0 0.2625 0 0 0 0.12 0"/><feBlend in2="BackgroundImageFix" result="effect1_dropShadow"/><feBlend in="SourceGraphic" in2="effect1_dropShadow" result="shape"/></filter><filter id="b" x="225.094" y="35.403" width="307.871" height="254.253" filterUnits="userSpaceOnUse" color-interpolation-filters="sRGB"><feFlood flood-opacity="0" result="BackgroundImageFix"/><feColorMatrix in="SourceAlpha" values="0 0 0 0 0 0 0 0 0 0 0 0 0 0 0 0 0 0 127 0"/><feOffset dy="15.566"/><feGaussianBlur stdDeviation="10.378"/><feColorMatrix values="0 0 0 0 0 0 0 0 0 0.0922297 0 0 0 0 0.2625 0 0 0 0.12 0"/><feBlend in2="BackgroundImageFix" result="effect1_dropShadow"/><feBlend in="SourceGraphic" in2="effect1_dropShadow" result="shape"/></filter><filter id="d" x=".245" y="135.721" width="307.871" height="309.601" filterUnits="userSpaceOnUse" color-interpolation-filters="sRGB"><feFlood flood-opacity="0" result="BackgroundImageFix"/><feColorMatrix in="SourceAlpha" values="0 0 0 0 0 0 0 0 0 0 0 0 0 0 0 0 0 0 127 0"/><feOffset dy="15.566"/><feGaussianBlur stdDeviation="10.378"/><feColorMatrix values="0 0 0 0 0 0 0 0 0 0.0922297 0 0 0 0 0.2625 0 0 0 0.12 0"/><feBlend in2="BackgroundImageFix" result="effect1_dropShadow"/><feBlend in="SourceGraphic" in2="effect1_dropShadow" result="shape"/></filter><filter id="f" x="229" y="376" width="254" height="85" filterUnits="userSpaceOnUse" color-interpolation-filters="sRGB"><feFlood flood-opacity="0" result="BackgroundImageFix"/><feColorMatrix in="SourceAlpha" values="0 0 0 0 0 0 0 0 0 0 0 0 0 0 0 0 0 0 127 0"/><feOffset dy="14"/><feGaussianBlur stdDeviation="7"/><feColorMatrix values="0 0 0 0 0 0 0 0 0 0.0922297 0 0 0 0 0.2625 0 0 0 0.1 0"/><feBlend in2="BackgroundImageFix" result="effect1_dropShadow"/><feBlend in="SourceGraphic" in2="effect1_dropShadow" result="shape"/></filter><clipPath id="c"><path fill="#fff" transform="translate(266.605 87.292)" d="M0 0h230.039v103.777H0z"/></clipPath><clipPath id="e"><path fill="#fff" transform="translate(41.755 187.609)" d="M0 0h230.039v159.124H0z"/></clipPath></defs></svg>