<svg width="318" height="240" viewBox="0 0 318 240" fill="none" xmlns="http://www.w3.org/2000/svg"><path opacity=".07" d="M200 0C89.4 0 0 89.4 0 200c0 110.599 89.4 200 200 200 110.599 0 200-89.401 200-200C399.078 89.4 309.677 0 200 0zm-28.571 284.793l-14.747 43.318c-55.3-18.434-92.166-70.968-92.166-129.954 0-58.986 36.866-110.6 93.088-129.954l14.746 43.318c-36.866 11.981-60.829 47.004-60.829 85.714-.922 41.475 23.041 75.576 59.908 87.558zm68.202 45.161l-13.825-44.24c37.788-11.981 62.673-47.004 62.673-86.636 0-39.631-24.885-73.732-61.751-85.714l14.747-44.24c56.221 18.434 94.009 70.968 94.009 129.954 0 59.908-38.71 112.443-95.853 130.876z" fill="#08C2F5"/></svg>