<svg width="299" height="285" viewBox="0 0 299 285" fill="none" xmlns="http://www.w3.org/2000/svg">
<path d="M96.3594 169.8C84.9935 171.187 73.6276 172.575 62.2913 173.962C61.14 174.11 59.8115 174.346 59.1915 175.32C58.3059 176.678 59.2506 178.42 60.1953 179.719C73.3324 198.259 86.8239 216.562 100.64 234.6" stroke="#D2A16A" stroke-width="1.0543" stroke-miterlimit="10" stroke-linecap="round"/>
<path d="M247.333 13.3051C244.853 9.23109 241.517 5.45231 237.059 3.68101C231.923 1.64401 226.786 -0.215858 221.147 0.0203155C193.899 1.0831 193.604 55.964 188.91 74.5627C187.522 80.1423 185.633 85.7809 181.854 90.1206C174.385 98.741 161.484 100.128 150.148 98.8295C130.486 96.5859 113.482 93.3975 94.0563 99.7152C87.7682 101.752 81.6572 104.498 75.2214 106.033C67.4572 107.893 59.4273 107.981 51.486 108.572C50.4822 108.631 49.4195 108.749 48.5633 109.251C47.0577 110.166 46.4968 112.144 46.7625 113.886C47.0577 115.775 49.508 118.078 48.1795 119.642C47.2348 120.735 41.8619 120.144 40.5039 120.233C33.212 120.705 25.9202 121.384 18.6283 121.975C12.783 122.447 6.5244 123.067 1.97805 126.757C4.60549 129.739 7.91192 132.13 11.6021 133.636C9.44705 134.049 7.23292 133.783 5.07784 134.137C2.92275 134.492 0.649577 135.702 0.118186 137.828C-0.50177 140.249 1.41714 142.581 3.54271 143.88C5.66827 145.179 8.17762 145.917 10.008 147.599C8.00049 147.452 5.13688 148.16 5.49114 150.138C5.63875 150.876 6.22918 151.408 6.81962 151.851C11.0707 155.098 16.4142 156.485 21.61 157.666C33.9501 160.471 46.9396 160.943 59.1616 163.836C64.1213 165.017 68.8743 167.231 73.9225 168.501C80.5058 170.154 87.0892 171.719 93.702 173.136C118.618 178.066 145.454 174.11 167.27 160.855C171.167 158.493 174.916 155.836 178.105 152.589C181.411 149.194 184.009 145.179 186.43 141.105C201.752 115.126 208.689 85.7809 218.313 57.4991C218.933 55.6688 219.612 53.7498 221.147 52.569C226.579 48.3179 235.2 46.9303 241.458 43.7125C251.141 38.7233 253.385 24.8186 248.396 15.1059C248.042 14.5155 247.717 13.925 247.333 13.3051Z" fill="white"/>
<path d="M224.158 26.767C221.353 25.9404 220.143 20.5379 223.361 19.5637C224.187 19.3275 225.073 19.5342 225.87 19.8589C228.054 20.8036 229.56 22.1911 228.497 24.5233C227.7 26.2946 226.106 27.3574 224.158 26.767Z" fill="black"/>
<path d="M298.169 46.0445C295.483 46.4578 292.737 46.1921 290.169 45.336C291.438 46.2807 292.708 47.2254 294.007 48.1701C294.213 48.3177 294.449 48.5243 294.449 48.79C294.449 48.9671 294.331 49.1148 294.213 49.2624C293.446 50.0595 292.176 50.0595 291.054 49.9709C284.678 49.4395 279.009 46.8121 272.869 45.395C266.02 43.8008 259.2 41.9705 252.41 40.1106C248.514 39.0478 242.757 38.8117 242.727 33.3797C242.698 29.3942 243.554 21.7776 249.34 23.9622C253.65 25.5859 257.901 27.4753 262.182 29.2466C269.799 32.3759 277.386 35.6233 285.061 38.6345C289.726 40.4944 294.656 42.2657 298.169 46.0445Z" fill="#680C00"/>
<path d="M162.665 103.228C158.502 115.155 153.927 127.672 144.302 135.879C137.778 141.459 129.424 144.5 120.951 145.976C95.3259 150.434 67.6641 140.101 51.25 119.967" stroke="#D2A16A" stroke-width="1.0543" stroke-miterlimit="10" stroke-linecap="round"/>
<path d="M110.824 166.346C95.325 197.609 81.2136 229.581 68.5488 262.114" stroke="#D2A16A" stroke-width="1.0543" stroke-miterlimit="10" stroke-linecap="round"/>
<path d="M100.906 234.364C110.265 237.788 119.21 242.305 127.505 247.766" stroke="#D2A16A" stroke-width="1.0543" stroke-miterlimit="10" stroke-linecap="round"/>
<path d="M102.174 235.397C106.986 243.427 109.849 252.608 110.41 261.937" stroke="#D2A16A" stroke-width="1.0543" stroke-miterlimit="10" stroke-linecap="round"/>
<path d="M103.385 235.84C112.773 241.065 120.744 248.829 126.205 258.099" stroke="#D2A16A" stroke-width="1.0543" stroke-miterlimit="10" stroke-linecap="round"/>
<path d="M70.8223 263.561C79.7969 268.314 88.0629 274.366 95.3253 281.51" stroke="#D2A16A" stroke-width="1.0543" stroke-miterlimit="10" stroke-linecap="round"/>
<path d="M84.3143 284.167C81.0964 275.546 75.9891 267.605 69.4648 261.11" stroke="#D2A16A" stroke-width="1.0543" stroke-miterlimit="10" stroke-linecap="round"/>
<path d="M68.9629 279.886C71.0294 273.834 71.2065 267.162 69.4057 261.051" stroke="#D2A16A" stroke-width="1.0543" stroke-miterlimit="10" stroke-linecap="round"/>
<path d="M118.235 125.665C116.965 127.613 114.663 128.587 112.478 129.355C101.88 132.957 90.071 132.957 79.4727 129.355" stroke="#D2A16A" stroke-width="1.0543" stroke-miterlimit="10" stroke-linecap="round"/>
<path d="M109.083 114.181C101.083 117.989 92.4034 120.38 83.5469 121.119" stroke="#D2A16A" stroke-width="1.0543" stroke-miterlimit="10" stroke-linecap="round"/>
<path d="M42.659 136.086C32.8873 137.591 22.7023 136.381 13.5801 132.602" stroke="#D2A16A" stroke-width="1.0543" stroke-miterlimit="10" stroke-linecap="round"/>
<path d="M42.955 148.691C32.4748 151.171 21.2861 150.551 11.1602 146.95" stroke="#D2A16A" stroke-width="1.0543" stroke-miterlimit="10" stroke-linecap="round"/>
</svg>
