<svg width="28" height="28" viewBox="0 0 28 28" fill="none" xmlns="http://www.w3.org/2000/svg"><mask id="a" maskUnits="userSpaceOnUse" x=".752" y="1.931" width="26" height="24" fill="#000"><path fill="#fff" d="M.752 1.931h26v24h-26z"/><path d="M15.149 21.475a.584.584 0 0 0 .825.825l7.817-7.818c3.697-3.696 2.665-7.362.467-9.559-1.303-1.303-2.835-1.992-4.428-1.992h-.011c-1.767.003-3.49.83-5.118 2.459L3.54 16.55c-1.195 1.195-1.797 2.46-1.789 3.764.007 1.17.522 2.3 1.488 3.267.966.967 2.096 1.481 3.267 1.488h.025c1.293 0 2.551-.602 3.738-1.788l8.017-8.017c1.747-1.747 1.24-3.498.184-4.554-.622-.624-1.359-.956-2.126-.958h-.01c-.833 0-1.668.396-2.416 1.143l-7.065 7.066a.584.584 0 0 0 .825.825l7.065-7.066c.532-.533 1.068-.802 1.59-.802h.006c.573.002 1.027.336 1.307.616.28.28.615.735.617 1.307.002.524-.267 1.062-.803 1.597l-8.017 8.017c-.96.96-1.94 1.447-2.914 1.447h-.018c-.857-.005-1.704-.402-2.45-1.147-.745-.745-1.142-1.592-1.146-2.45-.005-.978.481-1.965 1.447-2.931l11.16-11.16c1.403-1.403 2.848-2.116 4.298-2.118h.008c1.278 0 2.524.57 3.604 1.651 2.364 2.365 2.195 5.248-.466 7.909l-7.818 7.819z"/></mask><path d="M15.149 21.475a.584.584 0 0 0 .825.825l7.817-7.818c3.697-3.696 2.665-7.362.467-9.559-1.303-1.303-2.835-1.992-4.428-1.992h-.011c-1.767.003-3.49.83-5.118 2.459L3.54 16.55c-1.195 1.195-1.797 2.46-1.789 3.764.007 1.17.522 2.3 1.488 3.267.966.967 2.096 1.481 3.267 1.488h.025c1.293 0 2.551-.602 3.738-1.788l8.017-8.017c1.747-1.747 1.24-3.498.184-4.554-.622-.624-1.359-.956-2.126-.958h-.01c-.833 0-1.668.396-2.416 1.143l-7.065 7.066a.584.584 0 0 0 .825.825l7.065-7.066c.532-.533 1.068-.802 1.59-.802h.006c.573.002 1.027.336 1.307.616.28.28.615.735.617 1.307.002.524-.267 1.062-.803 1.597l-8.017 8.017c-.96.96-1.94 1.447-2.914 1.447h-.018c-.857-.005-1.704-.402-2.45-1.147-.745-.745-1.142-1.592-1.146-2.45-.005-.978.481-1.965 1.447-2.931l11.16-11.16c1.403-1.403 2.848-2.116 4.298-2.118h.008c1.278 0 2.524.57 3.604 1.651 2.364 2.365 2.195 5.248-.466 7.909l-7.818 7.819z" fill="#969283"/><path d="M15.149 21.475l.283.283-.283-.283zm9.11-16.552l-.284.283.283-.283zm-4.44-1.992v-.4.4zM14.701 5.39l.283.283-.283-.283zM3.54 16.55l-.283-.283.283.283zm-1.789 3.764l.4-.002-.4.002zm1.488 3.267l.283-.283-.283.283zm3.267 1.488l-.002.4h.002v-.4zm3.763-1.788l.283.283-.283-.283zm8.017-8.017l-.283-.283.283.283zm.184-4.554l-.283.283.284-.283zm-2.126-.958v-.4.4zm-2.426 1.143l-.283-.282.283.283zm-7.065 7.066l.283.283-.283-.283zm.825.825l-.283-.283.283.283zm7.065-7.066l.283.283-.283-.283zm1.596-.802l.002-.4h-.002v.4zm1.307.616l-.283.282.283-.282zm.617 1.307l-.4.002.4-.002zm-.803 1.597l-.282-.284.282.284zm-8.017 8.017l.283.283-.283-.283zm-2.932 1.447l-.002.4h.002v-.4zm-2.45-1.147l.283-.283-.283.283zm-1.146-2.45h.4v-.002l-.4.003zm1.447-2.931l-.283-.283.283.283zm11.16-11.16l.283.283-.283-.283zm4.298-2.118v-.4.4zm3.612 1.651l.283-.283-.283.283zm-.466 7.909l-.283-.283.283.283zm-8.101 7.536a.984.984 0 0 0 0 1.39l.566-.565a.184.184 0 0 1 0-.26l-.566-.565zm0 1.39a.984.984 0 0 0 1.39 0l-.565-.565a.184.184 0 0 1-.26 0l-.565.566zm1.39 0l7.818-7.817-.565-.566-7.818 7.818.565.566zm7.818-7.817c1.912-1.912 2.637-3.856 2.56-5.642-.075-1.775-.94-3.331-2.093-4.483l-.566.566c1.046 1.045 1.795 2.421 1.86 3.951.065 1.52-.541 3.257-2.326 5.042l.565.566zM24.54 4.64c-1.365-1.365-2.995-2.11-4.712-2.11v.8c1.471 0 2.905.635 4.146 1.876l.566-.566zm-4.712-2.11h-.01v.8h.012v-.8zm-.01 0c-1.903.004-3.722.897-5.401 2.577l.566.566c1.576-1.577 3.203-2.34 4.836-2.342l-.002-.8zm-5.401 2.577l-11.16 11.16.565.566 11.16-11.16-.565-.566zm-11.16 11.16c-1.247 1.247-1.915 2.61-1.906 4.05l.8-.006c-.007-1.166.529-2.335 1.671-3.478l-.565-.566zm-1.906 4.05c.008 1.292.578 2.52 1.605 3.546l.565-.565c-.905-.905-1.364-1.939-1.37-2.986l-.8.004zm1.605 3.546c1.027 1.029 2.254 1.599 3.548 1.606l.005-.8c-1.049-.006-2.083-.465-2.987-1.371l-.566.565zm3.55 1.606h.026v-.8h-.023v.8zm.025 0c1.428 0 2.782-.667 4.02-1.905l-.565-.566c-1.135 1.135-2.297 1.671-3.455 1.671v.8zm4.02-1.905l8.018-8.018-.566-.565-8.017 8.017.566.566zm8.018-8.018c.938-.938 1.307-1.918 1.26-2.839-.047-.91-.496-1.7-1.076-2.28l-.565.566c.476.476.808 1.089.842 1.755.033.655-.218 1.424-1.027 2.233l.566.565zm.185-5.119c-.686-.687-1.52-1.072-2.41-1.075l-.002.8c.646.002 1.285.28 1.845.84l.567-.565zm-2.41-1.075h-.01v.8h.011v-.8zm-.01 0c-.966 0-1.897.46-2.699 1.26l.566.566c.694-.694 1.433-1.026 2.132-1.026v-.8zm-2.699 1.26L6.57 17.678l.566.566 7.065-7.066-.566-.565zM6.57 17.678a.984.984 0 0 0 0 1.39l.566-.565a.184.184 0 0 1 0-.26l-.566-.565zm0 1.39a.984.984 0 0 0 1.39 0l-.565-.565a.184.184 0 0 1-.26 0l-.565.566zm1.39 0l7.066-7.065-.566-.566-7.065 7.066.566.566zm7.066-7.065c.49-.491.93-.685 1.307-.685v-.8c-.668 0-1.299.344-1.873.92l.566.565zm1.307-.685h.006v-.8h-.005v.8zm.004 0c.417.001.775.248 1.026.498l.566-.565c-.31-.31-.86-.73-1.588-.733l-.004.8zm1.026.498c.251.252.498.61.5 1.027l.8-.003c-.003-.73-.426-1.28-.735-1.59l-.565.566zm.5 1.027c.002.378-.192.82-.685 1.311l.565.567c.578-.577.923-1.211.92-1.881l-.8.003zm-.686 1.312L9.16 22.172l.566.566 8.017-8.018-.566-.565zM9.16 22.172c-.915.915-1.8 1.33-2.631 1.33v.8c1.116 0 2.192-.56 3.197-1.564l-.566-.566zm-2.631 1.33h-.018v.8h.019v-.8zm-.016 0c-.729-.005-1.48-.341-2.17-1.03l-.565.566c.802.801 1.745 1.258 2.73 1.264l.005-.8zm-2.17-1.03c-.688-.688-1.025-1.44-1.028-2.168l-.8.004c.004.986.461 1.929 1.263 2.73l.566-.566zm-1.028-2.169c-.005-.835.41-1.726 1.33-2.646l-.566-.566c-1.011 1.011-1.57 2.095-1.564 3.217l.8-.005zm1.33-2.646l11.16-11.16-.565-.566L4.08 17.09l.565.566zm11.16-11.16c1.356-1.356 2.706-1.999 4.016-2l-.001-.8c-1.59.002-3.132.785-4.58 2.234l.565.566zm4.015-2h.008v-.8h-.007v.8zm.008 0c1.152 0 2.3.512 3.322 1.533l.565-.566c-1.14-1.14-2.483-1.768-3.887-1.768v.8zM23.15 6.03c1.118 1.119 1.605 2.324 1.534 3.537-.072 1.221-.716 2.52-2.001 3.806l.566.566c1.375-1.376 2.147-2.849 2.234-4.325.087-1.486-.523-2.904-1.768-4.15l-.566.566zm-.467 7.343l-7.818 7.819.566.566 7.818-7.82-.566-.565z" fill="#969283" mask="url(#a)"/></svg>