<svg width="34" height="34" viewBox="0 0 34 34" fill="none" xmlns="http://www.w3.org/2000/svg"><path d="M17 32.406c8.509 0 15.406-6.897 15.406-15.406S25.51 1.594 17 1.594 1.594 8.49 1.594 17 8.49 32.406 17 32.406z" fill="#F8DC25"/><path opacity=".7" d="M14.078 28.422a19.032 19.032 0 0 1-9.762-2.68A15.406 15.406 0 0 0 32.29 15.14a19.125 19.125 0 0 1-18.21 13.28z" fill="#F2BC0F"/><path d="M28.48 15.22a4.588 4.588 0 0 0-8.168 0c1.244-.414 6.928-.414 8.168 0zm-14.792 0a4.587 4.587 0 0 0-8.168 0c1.24-.414 6.924-.414 8.168 0zm10.298 5.233a.877.877 0 0 1 .87.983 7.905 7.905 0 0 1-15.71 0 .876.876 0 0 1 .868-.983h13.972z" fill="#393C54"/><path d="M17 23.667a8.787 8.787 0 0 0-5.82 2.21 7.852 7.852 0 0 0 11.637 0A8.787 8.787 0 0 0 17 23.667z" fill="#F85565"/><path d="M29.888 18.594a1.465 1.465 0 1 1-2.922 0c0-.797.656-2.922 1.466-2.922.81 0 1.456 2.125 1.456 2.922zm-22.843 0a1.466 1.466 0 0 1-2.922 0c0-.797.656-2.922 1.466-2.922.81 0 1.456 2.125 1.456 2.922z" fill="#00ADFE"/></svg>