<svg width="34" height="34" viewBox="0 0 34 34" fill="none" xmlns="http://www.w3.org/2000/svg"><path d="M17 32.406c8.509 0 15.406-6.897 15.406-15.406S25.51 1.594 17 1.594 1.594 8.49 1.594 17 8.49 32.406 17 32.406z" fill="#F8DC25"/><path opacity=".7" d="M14.078 28.422a19.032 19.032 0 0 1-9.762-2.68A15.406 15.406 0 0 0 32.29 15.14a19.125 19.125 0 0 1-18.21 13.28z" fill="#F2BC0F"/><path d="M10.596 15.86c.652 0 1.18-.85 1.18-1.899 0-1.048-.528-1.897-1.18-1.897-.652 0-1.18.85-1.18 1.897 0 1.048.528 1.898 1.18 1.898zm11.766 0c.652 0 1.18-.85 1.18-1.899 0-1.048-.528-1.897-1.18-1.897-.652 0-1.18.85-1.18 1.897 0 1.048.528 1.898 1.18 1.898z" fill="#303030"/><path d="M25.921 10.757c-.168-.054-.337-.09-.505-.143-.356-.09-.694-.18-1.03-.287a9.093 9.093 0 0 1-1.35-.555 7.563 7.563 0 0 1-1.217-.752c-.412-.304-.787-.662-1.143-1.002C20.657 8 20.62 8 20.582 8c-.018.018-.037.036-.037.072.019.519.243 1.056.618 1.557a4.14 4.14 0 0 0 1.349 1.092c.506.25 1.068.412 1.63.448h.075a3.75 3.75 0 0 0 1.704-.287c.02-.018.038-.035.038-.071 0-.018-.019-.036-.038-.054zm-18.865 0c.169-.054.337-.09.506-.143.356-.09.693-.18 1.03-.287.487-.16.937-.34 1.35-.555.43-.214.842-.465 1.217-.752.393-.304.787-.662 1.143-1.002C12.32 8 12.339 8 12.376 8c.02.018.038.036.038.072-.019.519-.244 1.056-.618 1.557a4.138 4.138 0 0 1-1.35 1.092 4.328 4.328 0 0 1-1.629.448h-.075a3.75 3.75 0 0 1-1.705-.287c-.018 0-.037-.035-.037-.053 0-.036.019-.054.056-.072z" fill="#414042"/><path d="M19.85 19.977a5.142 5.142 0 0 0-3.372-1.146c-1.217 0-2.435.43-3.353 1.164a4.534 4.534 0 0 0-1.124 1.325c-.28.537-.43 1.074-.43 1.611 0 .125.074.233.205.287.132.035.263 0 .338-.09.337-.412.636-.734.955-.985a5.39 5.39 0 0 1 3.41-1.217c.824 0 1.61.18 2.322.52.75.357 1.424.93 2.024 1.682.056.072.15.107.243.107.038 0 .075 0 .094-.017a.291.291 0 0 0 .206-.287c0-1.074-.562-2.184-1.518-2.954z" fill="#5E4939"/><path d="M23.766 16.843c-4.72 5.174-4.196 8.128-4.196 8.128 0 2.22 1.892 4.01 4.196 4.01 2.323 0 4.197-1.808 4.197-4.01.018 0 .543-2.954-4.197-8.128z" fill="#7CC4E8"/><path d="M27.064 21.445c-.843 5.21-4.252 6.159-6.425 6.213z" fill="#62BBE8"/></svg>