<svg width="34" height="34" viewBox="0 0 34 34" fill="none" xmlns="http://www.w3.org/2000/svg"><path d="M17 32.406c8.509 0 15.406-6.897 15.406-15.406S25.51 1.594 17 1.594 1.594 8.49 1.594 17 8.49 32.406 17 32.406z" fill="#F8DC25"/><path opacity=".7" d="M14.078 28.422a19.032 19.032 0 0 1-9.762-2.68A15.406 15.406 0 0 0 32.29 15.14a19.125 19.125 0 0 1-18.21 13.28z" fill="#F2BC0F"/><path d="M6.625 18.453a2.64 2.64 0 1 1 5.28 0m10.191 0a2.64 2.64 0 0 1 5.28 0" stroke="#393C54" stroke-miterlimit="10" stroke-linecap="round"/><path opacity=".5" d="M22.047 11.688l4.25 1.062m-18.594 0l4.25-1.063" stroke="#F2BC0F" stroke-linecap="round" stroke-linejoin="round"/><path opacity=".7" d="M7.605 23.576c1.76 0 3.188-.8 3.188-1.787C10.793 20.8 9.366 20 7.605 20c-1.76 0-3.187.8-3.187 1.788 0 .987 1.427 1.787 3.187 1.787zm18.87 0c1.76 0 3.187-.8 3.187-1.787 0-.988-1.427-1.788-3.187-1.788-1.76 0-3.188.8-3.188 1.788 0 .987 1.427 1.787 3.188 1.787z" fill="#F85565"/><path d="M22.047 24.23a10.094 10.094 0 0 1-10.094 0m9.961-.59a2.6 2.6 0 0 0 1.328 1.329M12.086 23.64a2.6 2.6 0 0 1-1.328 1.329" stroke="#393C54" stroke-miterlimit="10" stroke-linecap="round"/></svg>