<svg width="34" height="34" viewBox="0 0 34 34" fill="none" xmlns="http://www.w3.org/2000/svg"><path d="M17 0C7.61 0 0 7.61 0 17c0 9.389 7.611 17 17 17s17-7.612 17-17c0-9.39-7.612-17-17-17z" fill="#3265B1"/><path d="M17.056 23.319c-.347 0-.593-.268-.678-.32-.271-.167-.205-.213-.695-.36l-1.373.004a.308.308 0 0 1-.31-.307v-6.534c0-.17.139-.306.31-.306h1.816c.043-.024.176-.137.412-.404.418-.47.787-1.11 1.143-1.675.29-.458.561-.89.85-1.247.393-.49.64-.668.878-.842.245-.178.195-.218.683-.842.782-.999.888-1.634.992-2.249.018-.109.037-.221.06-.333.087-.445.477-.904.977-.904.18 0 .356.06.523.176.638.449.974 1.754.847 2.62-.13.891-.536 2.043-.911 2.459-.326.362-.48.721-.412 1.274.032.262.436.273.453.274l2.53.01c.73.005 2.112.234 2.112 1.646 0 .644-.262 1.044-.566 1.277.29.258.515.592.434 1.227-.078.616-.383.984-.739 1.173.197.262.33.64.242 1.155-.083.494-.385.84-.696 1.006.147.224.238.567.16.976-.18.96-1.011 1.015-1.366 1.039l-.11.007h-7.566zm-4.246.481H9.049a.788.788 0 0 1-.786-.788L7.14 15.743c0-.435.352-.788.785-.788h4.887c.433 0 .786.353.786.788v7.27a.788.788 0 0 1-.786.787z" fill="#fff"/><path d="M11.558 20.742a.68.68 0 1 1 0 1.36.68.68 0 0 1 0-1.36z" fill="#fff"/><path d="M13.49 23.12H9.729a.788.788 0 0 1-.786-.788l-1.123-7.27.01-.097a.785.785 0 0 0-.69.778l1.123 7.27c0 .433.353.787.786.787h3.763c.4 0 .727-.302.776-.69l-.096.01z" fill="#fff"/><path d="M11.558 22.1a.68.68 0 0 1-.62-.957.678.678 0 0 0 .28 1.297.68.68 0 0 0 .62-.401.677.677 0 0 1-.28.061z" fill="#fff"/></svg>