<svg width="49" height="48" viewBox="0 0 49 48" fill="none" xmlns="http://www.w3.org/2000/svg"><path opacity=".35" d="M29.25 4c-2.004 0-3.718 1.186-4.516 2.886A3.965 3.965 0 0 0 22.25 6c-.944 0-1.8.34-2.484.886C18.968 5.186 17.254 4 15.25 4s-3.718 1.186-4.516 2.886A3.965 3.965 0 0 0 8.25 6c-2.21 0-4 1.79-4 4s1.79 4 4 4a3.992 3.992 0 0 0 3.268-1.704 4.975 4.975 0 0 0 2.094 1.406c-.82 1.714-1.362 4.246-1.362 5.298a3.001 3.001 0 0 0 6 0c0-1.052-.542-3.584-1.36-5.298a4.975 4.975 0 0 0 2.094-1.406A3.985 3.985 0 0 0 22.25 14a3.992 3.992 0 0 0 3.268-1.704C26.434 13.334 27.758 14 29.25 14a5 5 0 0 0 5-5 5 5 0 0 0-5-5z" fill="#F28713"/><path d="M35.25 16c-.696 0-1.364.097-2.014.247l-.422-3.744A4.98 4.98 0 0 1 29.25 14c-1.492 0-2.816-.666-3.732-1.704A3.992 3.992 0 0 1 22.25 14a3.992 3.992 0 0 1-3.268-1.704 4.95 4.95 0 0 1-2.092 1.406c.818 1.714 1.36 4.246 1.36 5.298a3.001 3.001 0 0 1-6 0c0-1.052.542-3.584 1.36-5.298a4.95 4.95 0 0 1-2.092-1.406A3.992 3.992 0 0 1 8.25 14c-.254 0-.5-.03-.74-.074L5.374 33.009C4.778 37.783 8.5 42 13.312 42h13.876c4.476 0 7.962-3.658 7.954-8.01.038 0 .072.01.108.01 4.962 0 9-4.038 9-9s-4.038-9-9-9zm0 12c-.242 0-.474-.035-.7-.09l-.63-5.585c.402-.2.85-.324 1.33-.324a3.001 3.001 0 0 1 0 6z" fill="#F28713"/></svg>