<svg width="48" height="48" viewBox="0 0 48 48" fill="none" xmlns="http://www.w3.org/2000/svg"><path opacity=".35" d="M42.94 11.29A4.006 4.006 0 0 0 39.998 10H8.55l-.22-1.662A5.016 5.016 0 0 0 3.374 4H2C.894 4 0 4.894 0 6c0 1.106.894 2 2 2h1.374c.5 0 .926.374.992.868L7.44 31.924A7.018 7.018 0 0 0 14.376 38H35.57c3.612 0 6.676-2.818 6.976-6.418l1.44-17.252a4.017 4.017 0 0 0-1.046-3.04z" fill="#F28713"/><path d="M16 42a4 4 0 1 0 0-8 4 4 0 0 0 0 8zm18 0a4 4 0 1 0 0-8 4 4 0 0 0 0 8zm-4-26H20a2 2 0 0 0 0 4h10a2 2 0 0 0 0-4z" fill="#F28713"/></svg>