<svg width="48" height="48" viewBox="0 0 48 48" fill="none" xmlns="http://www.w3.org/2000/svg"><path opacity=".35" d="M38 11.764V10h-8v1.764A9.47 9.47 0 0 1 29 16a9.47 9.47 0 0 0-1 4.236V26h12v-5.764A9.47 9.47 0 0 0 39 16a9.47 9.47 0 0 1-1-4.236z" fill="#F28713"/><path opacity=".35" d="M35.186 42H12.814a6 6 0 0 1-5.858-4.698L4 24h40l-2.956 13.302A6 6 0 0 1 35.186 42z" fill="#F28713"/><path d="M37 12h-6c-1.658 0-3-1.342-3-3s1.342-3 3-3h6c1.658 0 3 1.342 3 3s-1.342 3-3 3z" fill="#F28713"/><path opacity=".35" d="M16.828 26.657c-2.734 2.734-5.436 1.636-7.778-.708-2.342-2.344-3.44-5.044-.708-7.778s7.778-4.95 10.606-2.122c2.828 2.828.614 7.876-2.12 10.608z" fill="#F28713"/><path d="M42 21.999H31.5l-5.002-4a4.002 4.002 0 0 0-4.998 0l-5 4H6c-1.658 0-3 1.342-3 3s1.342 3 3 3h4v3c0 1.658 1.342 3 3 3s3-1.342 3-3v-3h5v3c0 1.658 1.342 3 3 3s3-1.342 3-3v-3h5v3c0 1.658 1.342 3 3 3s3-1.342 3-3v-3h4c1.658 0 3-1.342 3-3s-1.342-3-3-3z" fill="#F28713"/></svg>