<svg width="424" height="485" viewBox="0 0 424 485" fill="none" xmlns="http://www.w3.org/2000/svg"><path d="M78.842 463.2V480h-2.568l-9.264-11.376V480h-3.096v-16.8h2.568l9.264 11.376V463.2h3.096zm9.974 16.968c-1.296 0-2.464-.28-3.504-.84A6.235 6.235 0 0 1 82.864 477c-.576-1.008-.864-2.144-.864-3.408 0-1.264.288-2.392.864-3.384a6.235 6.235 0 0 1 2.448-2.328c1.04-.56 2.208-.84 3.504-.84 1.312 0 2.488.28 3.528.84a6.067 6.067 0 0 1 2.424 2.328c.592.992.888 2.12.888 3.384 0 1.264-.296 2.4-.888 3.408a6.067 6.067 0 0 1-2.424 2.328c-1.04.56-2.216.84-3.528.84zm0-2.568c1.104 0 2.016-.368 2.736-1.104.72-.736 1.08-1.704 1.08-2.904s-.36-2.168-1.08-2.904c-.72-.736-1.632-1.104-2.736-1.104-1.104 0-2.016.368-2.736 1.104-.704.736-1.056 1.704-1.056 2.904s.352 2.168 1.056 2.904c.72.736 1.632 1.104 2.736 1.104zm16.557-10.32h2.304V480h-2.304v-12.72zm1.152-2.448c-.448 0-.824-.144-1.128-.432a1.436 1.436 0 0 1-.432-1.056c0-.416.144-.768.432-1.056.304-.304.68-.456 1.128-.456.448 0 .816.144 1.104.432.304.272.456.616.456 1.032 0 .432-.152.8-.456 1.104-.288.288-.656.432-1.104.432zm12.344 2.328c1.616 0 2.896.472 3.84 1.416.96.928 1.44 2.296 1.44 4.104V480h-2.304v-7.056c0-1.232-.296-2.16-.888-2.784-.592-.624-1.44-.936-2.544-.936-1.248 0-2.232.368-2.952 1.104-.72.72-1.08 1.76-1.08 3.12V480h-2.304v-12.72h2.208v1.92c.464-.656 1.088-1.16 1.872-1.512.8-.352 1.704-.528 2.712-.528zm13.192 12.984c-1.04 0-2.04-.136-3-.408-.96-.288-1.712-.648-2.256-1.08l.96-1.824c.56.4 1.24.72 2.04.96s1.608.36 2.424.36c2.016 0 3.024-.576 3.024-1.728 0-.384-.136-.688-.408-.912-.272-.224-.616-.384-1.032-.48a18.11 18.11 0 0 0-1.728-.36c-1.024-.16-1.864-.344-2.52-.552a3.874 3.874 0 0 1-1.656-1.056c-.464-.496-.696-1.192-.696-2.088 0-1.152.48-2.072 1.44-2.76.96-.704 2.248-1.056 3.864-1.056.848 0 1.696.104 2.544.312.848.208 1.544.488 2.088.84l-.984 1.824c-1.04-.672-2.264-1.008-3.672-1.008-.976 0-1.72.16-2.232.48-.512.32-.768.744-.768 1.272 0 .416.144.744.432.984.288.24.64.416 1.056.528.432.112 1.032.24 1.8.384 1.024.176 1.848.368 2.472.576a3.61 3.61 0 0 1 1.632 1.008c.448.48.672 1.152.672 2.016 0 1.152-.496 2.072-1.488 2.76-.976.672-2.312 1.008-4.008 1.008zm15.527-.888a3.58 3.58 0 0 1-1.248.672 5.481 5.481 0 0 1-1.536.216c-1.28 0-2.272-.344-2.976-1.032-.704-.688-1.056-1.672-1.056-2.952v-6.984h-2.16v-1.896h2.16v-2.784h2.304v2.784h3.648v1.896h-3.648v6.888c0 .688.168 1.216.504 1.584.352.368.848.552 1.488.552.704 0 1.304-.2 1.8-.6l.72 1.656zm7.417-12.096c1.76 0 3.104.432 4.032 1.296.944.864 1.416 2.152 1.416 3.864V480h-2.184v-1.68c-.384.592-.936 1.048-1.656 1.368-.704.304-1.544.456-2.52.456-1.424 0-2.568-.344-3.432-1.032-.848-.688-1.272-1.592-1.272-2.712s.408-2.016 1.224-2.688c.816-.688 2.112-1.032 3.888-1.032h3.648v-.456c0-.992-.288-1.752-.864-2.28-.576-.528-1.424-.792-2.544-.792-.752 0-1.488.128-2.208.384-.72.24-1.328.568-1.824.984l-.96-1.728c.656-.528 1.44-.928 2.352-1.2a9.588 9.588 0 0 1 2.904-.432zm-.528 11.208c.88 0 1.64-.192 2.28-.576.64-.4 1.104-.96 1.392-1.68v-1.776h-3.552c-1.952 0-2.928.656-2.928 1.968 0 .64.248 1.144.744 1.512.496.368 1.184.552 2.064.552zm10.24-16.176h2.304V480h-2.304v-17.808zm6.703 0h2.304V480h-2.304v-17.808zm11.335 4.968c1.76 0 3.104.432 4.032 1.296.944.864 1.416 2.152 1.416 3.864V480h-2.184v-1.68c-.384.592-.936 1.048-1.656 1.368-.704.304-1.544.456-2.52.456-1.424 0-2.568-.344-3.432-1.032-.848-.688-1.272-1.592-1.272-2.712s.408-2.016 1.224-2.688c.816-.688 2.112-1.032 3.888-1.032h3.648v-.456c0-.992-.288-1.752-.864-2.28-.576-.528-1.424-.792-2.544-.792-.752 0-1.488.128-2.208.384-.72.24-1.328.568-1.824.984l-.96-1.728c.656-.528 1.44-.928 2.352-1.2a9.588 9.588 0 0 1 2.904-.432zm-.528 11.208c.88 0 1.64-.192 2.28-.576.64-.4 1.104-.96 1.392-1.68v-1.776h-3.552c-1.952 0-2.928.656-2.928 1.968 0 .64.248 1.144.744 1.512.496.368 1.184.552 2.064.552zm17.392.888a3.58 3.58 0 0 1-1.248.672 5.481 5.481 0 0 1-1.536.216c-1.28 0-2.272-.344-2.976-1.032-.704-.688-1.056-1.672-1.056-2.952v-6.984h-2.16v-1.896h2.16v-2.784h2.304v2.784h3.648v1.896h-3.648v6.888c0 .688.168 1.216.504 1.584.352.368.848.552 1.488.552.704 0 1.304-.2 1.8-.6l.72 1.656zm2.786-11.976h2.304V480h-2.304v-12.72zm1.152-2.448c-.448 0-.824-.144-1.128-.432a1.436 1.436 0 0 1-.432-1.056c0-.416.144-.768.432-1.056.304-.304.68-.456 1.128-.456.448 0 .816.144 1.104.432.304.272.456.616.456 1.032 0 .432-.152.8-.456 1.104-.288.288-.656.432-1.104.432zm10.999 15.312c-1.264 0-2.4-.28-3.408-.84a6.204 6.204 0 0 1-2.376-2.304c-.56-.992-.84-2.112-.84-3.36 0-1.248.28-2.36.84-3.336a5.984 5.984 0 0 1 2.376-2.304c1.008-.56 2.144-.84 3.408-.84 1.264 0 2.392.28 3.384.84a5.822 5.822 0 0 1 2.352 2.304c.576.976.864 2.088.864 3.336 0 1.248-.288 2.368-.864 3.36a6.031 6.031 0 0 1-2.352 2.304c-.992.56-2.12.84-3.384.84zm0-2.016c.816 0 1.544-.184 2.184-.552a4.061 4.061 0 0 0 1.536-1.584c.368-.688.552-1.472.552-2.352 0-.88-.184-1.656-.552-2.328a3.858 3.858 0 0 0-1.536-1.584c-.64-.368-1.368-.552-2.184-.552-.816 0-1.552.184-2.208.552-.64.368-1.152.896-1.536 1.584-.368.672-.552 1.448-.552 2.328 0 .88.184 1.664.552 2.352.384.672.896 1.2 1.536 1.584.656.368 1.392.552 2.208.552zm16.578-10.968c1.616 0 2.896.472 3.84 1.416.96.928 1.44 2.296 1.44 4.104V480h-2.304v-7.056c0-1.232-.296-2.16-.888-2.784-.592-.624-1.44-.936-2.544-.936-1.248 0-2.232.368-2.952 1.104-.72.72-1.08 1.76-1.08 3.12V480h-2.304v-12.72h2.208v1.92c.464-.656 1.088-1.16 1.872-1.512.8-.352 1.704-.528 2.712-.528zm18.197 2.256c.4-.736.992-1.296 1.776-1.68.784-.384 1.736-.576 2.856-.576v2.232a4.498 4.498 0 0 0-.528-.024c-1.248 0-2.232.376-2.952 1.128-.704.736-1.056 1.792-1.056 3.168V480h-2.304v-12.72h2.208v2.136zm18.851 4.296c0 .176-.016.408-.048.696h-10.32c.144 1.12.632 2.024 1.464 2.712.848.672 1.896 1.008 3.144 1.008 1.52 0 2.744-.512 3.672-1.536l1.272 1.488a5.554 5.554 0 0 1-2.16 1.536c-.848.352-1.8.528-2.856.528-1.344 0-2.536-.272-3.576-.816A6.067 6.067 0 0 1 256.35 477c-.56-.992-.84-2.112-.84-3.36 0-1.232.272-2.344.816-3.336a5.955 5.955 0 0 1 2.28-2.304c.976-.56 2.072-.84 3.288-.84 1.216 0 2.296.28 3.24.84a5.631 5.631 0 0 1 2.232 2.304c.544.992.816 2.128.816 3.408zm-6.288-4.608c-1.104 0-2.032.336-2.784 1.008-.736.672-1.168 1.552-1.296 2.64h8.16c-.128-1.072-.568-1.944-1.32-2.616-.736-.688-1.656-1.032-2.76-1.032zm21.487-1.824v17.376h-2.304v-6.576a5.192 5.192 0 0 1-1.944 1.536c-.752.352-1.584.528-2.496.528-1.232 0-2.336-.272-3.312-.816a5.953 5.953 0 0 1-2.304-2.28c-.544-.992-.816-2.128-.816-3.408 0-1.28.272-2.408.816-3.384a5.953 5.953 0 0 1 2.304-2.28c.976-.544 2.08-.816 3.312-.816.944 0 1.808.184 2.592.552.784.352 1.432.88 1.944 1.584v-2.016h2.208zm-6.552 10.848c.8 0 1.528-.184 2.184-.552a4.061 4.061 0 0 0 1.536-1.584c.368-.688.552-1.472.552-2.352 0-.88-.192-1.656-.576-2.328a3.896 3.896 0 0 0-1.536-1.56c-.64-.384-1.36-.576-2.16-.576-.816 0-1.552.184-2.208.552-.64.368-1.152.896-1.536 1.584-.368.672-.552 1.448-.552 2.328 0 .88.184 1.664.552 2.352.384.672.896 1.2 1.536 1.584.656.368 1.392.552 2.208.552zm22.768-10.848V480h-2.184v-1.92a4.706 4.706 0 0 1-1.848 1.536 5.758 5.758 0 0 1-2.472.528c-1.696 0-3.032-.464-4.008-1.392-.976-.944-1.464-2.328-1.464-4.152v-7.32h2.304v7.056c0 1.232.296 2.168.888 2.808.592.624 1.44.936 2.544.936 1.216 0 2.176-.368 2.88-1.104.704-.736 1.056-1.776 1.056-3.12v-6.576h2.304zm4.386 0h2.304V480h-2.304v-12.72zm1.152-2.448c-.448 0-.824-.144-1.128-.432a1.436 1.436 0 0 1-.432-1.056c0-.416.144-.768.432-1.056.304-.304.68-.456 1.128-.456.448 0 .816.144 1.104.432.304.272.456.616.456 1.032 0 .432-.152.8-.456 1.104-.288.288-.656.432-1.104.432zm7.759 4.584c.4-.736.992-1.296 1.776-1.68.784-.384 1.736-.576 2.856-.576v2.232a4.498 4.498 0 0 0-.528-.024c-1.248 0-2.232.376-2.952 1.128-.704.736-1.056 1.792-1.056 3.168V480h-2.304v-12.72h2.208v2.136zm18.85 4.296c0 .176-.016.408-.048.696h-10.32c.144 1.12.632 2.024 1.464 2.712.848.672 1.896 1.008 3.144 1.008 1.52 0 2.744-.512 3.672-1.536l1.272 1.488a5.554 5.554 0 0 1-2.16 1.536c-.848.352-1.8.528-2.856.528-1.344 0-2.536-.272-3.576-.816a6.067 6.067 0 0 1-2.424-2.328c-.56-.992-.84-2.112-.84-3.36 0-1.232.272-2.344.816-3.336a5.955 5.955 0 0 1 2.28-2.304c.976-.56 2.072-.84 3.288-.84 1.216 0 2.296.28 3.24.84a5.631 5.631 0 0 1 2.232 2.304c.544.992.816 2.128.816 3.408zm-6.288-4.608c-1.104 0-2.032.336-2.784 1.008-.736.672-1.168 1.552-1.296 2.64h8.16c-.128-1.072-.568-1.944-1.32-2.616-.736-.688-1.656-1.032-2.76-1.032zm21.488-6.912V480h-2.208v-2.016a4.99 4.99 0 0 1-1.944 1.608c-.784.368-1.648.552-2.592.552-1.232 0-2.336-.272-3.312-.816a5.953 5.953 0 0 1-2.304-2.28c-.544-.992-.816-2.128-.816-3.408 0-1.28.272-2.408.816-3.384a5.953 5.953 0 0 1 2.304-2.28c.976-.544 2.08-.816 3.312-.816.912 0 1.752.176 2.52.528.768.336 1.408.84 1.92 1.512v-7.008h2.304zm-6.552 15.936c.8 0 1.528-.184 2.184-.552a4.061 4.061 0 0 0 1.536-1.584c.368-.688.552-1.472.552-2.352 0-.88-.184-1.656-.552-2.328a3.858 3.858 0 0 0-1.536-1.584 4.387 4.387 0 0 0-2.184-.552c-.816 0-1.552.184-2.208.552-.64.368-1.152.896-1.536 1.584-.368.672-.552 1.448-.552 2.328 0 .88.184 1.664.552 2.352.384.672.896 1.2 1.536 1.584.656.368 1.392.552 2.208.552z" fill="#FCCC53"/><path d="M304.517 8.573C237.115-12.776 182.022 6.01 165.355 61.987c-16.704 56.146-2.968 113.36-63.482 136.459C52.273 216.849-5.933 249.298 2.895 340.2c8.388 86.248 53.921 102.131 112.238 105.632 62.053 3.758 128.576-57.214 186.343-27.454 53.629 27.625 114.144 33.773 122.093-46.07 4.652-46.753-29.708-62.38-36.229-98.801-9.048-50.467 9.048-69.382 14.506-103.113C415.363 86.58 369.134 32.355 304.517 8.573z" fill="#FAFAFA"/><path d="M253.93 436.568H109.339c-15.958 0-28.946-12.668-28.946-28.333V64.333C80.393 48.668 93.38 36 109.339 36h144.544c15.958 0 28.947 12.668 28.947 28.333v343.902c0 15.665-12.943 28.333-28.9 28.333z" fill="#616C7D"/><path d="M109.339 431.119c-12.896 0-23.333-10.261-23.333-22.839V64.333c0-12.623 10.484-22.839 23.333-22.839h144.545c12.896 0 23.333 10.262 23.333 22.84v343.901c0 12.623-10.484 22.839-23.333 22.839H109.339v.045z" fill="#A8B1C2"/><path d="M271.232 64.56v340.088c0 10.942-9.045 19.797-20.225 19.797h-138.7c-11.179 0-20.225-8.855-20.225-19.797V64.56c0-10.943 9.046-19.797 20.225-19.797h15.494c3.061 0 5.566 2.452 5.566 5.449 0 5.948 4.917 10.761 10.994 10.761h74.592c6.077 0 10.994-4.813 10.994-10.761 0-2.997 2.505-5.449 5.567-5.449h15.493c11.133 0 20.225 8.854 20.225 19.797z" fill="#fff"/><path d="M80.067 125.04h-1.855c-.604 0-1.068-.454-1.068-1.044v-11.579c0-.59.464-1.044 1.067-1.044h1.856v13.667zm-.045 37.187h-1.856c-.602 0-1.066-.454-1.066-1.044v-24.156c0-.59.464-1.044 1.067-1.044h1.855v26.244zm0 44.044h-1.856c-.602 0-1.066-.454-1.066-1.044v-24.156c0-.59.464-1.045 1.067-1.045h1.855v26.245z" fill="#EEEEF2"/><path d="M214.64 54.434c1.563 0 2.83-1.24 2.83-2.77 0-1.529-1.267-2.769-2.83-2.769-1.563 0-2.829 1.24-2.829 2.77s1.266 2.77 2.829 2.77zm-15.03-.59h-42.352c-1.113 0-2.041-.908-2.041-1.998 0-1.09.928-1.997 2.041-1.997h42.352c1.113 0 2.041.908 2.041 1.998 0 1.09-.928 1.997-2.041 1.997z" fill="#616C7D"/><path opacity=".2" d="M271.232 64.56v340.088c0 10.942-9.045 19.797-20.225 19.797h-138.7c-11.179 0-20.225-8.855-20.225-19.797V64.56c0-10.943 9.046-19.797 20.225-19.797h15.494c3.061 0 5.566 2.452 5.566 5.449 0 5.948 4.917 10.761 10.994 10.761h74.592c6.077 0 10.994-4.813 10.994-10.761 0-2.997 2.505-5.449 5.567-5.449h15.493c11.133 0 20.225 8.854 20.225 19.797z" stroke="url(#a)" stroke-width=".925" stroke-miterlimit="10"/><path d="M256.667 97.479H102.195v16.8h154.472v-16.8zm0 27.062H102.195v100.392h154.472V124.541z" fill="#EEEEF2"/><path d="M244.143 403.513H114.767c-6.912 0-12.525-5.494-12.525-12.26v-.227c0-6.765 5.613-12.259 12.525-12.259h129.376c6.912 0 12.525 5.494 12.525 12.259v.227c0 6.811-5.613 12.26-12.525 12.26z" fill="#9CA3AD"/><path d="M256.667 233.514H102.195v14.348h154.472v-14.348zm0 22.748H102.195v16.8h154.472v-16.8z" fill="#EEEEF2"/><path d="M209.258 329.411c-1.949 16.573-16.932 28.378-33.4 26.426-16.467-1.953-28.25-17.027-26.302-33.555 1.949-16.573 16.932-28.378 33.4-26.426 16.514 1.953 28.296 16.982 26.302 33.555z" fill="#FCCC53"/><path d="M175.163 336.585h-.093c-.603-.091-1.159-.454-1.53-.953l-7.005-10.217c-.696-1.044-.464-2.497.603-3.178 1.021-.727 2.459-.454 3.201.59l5.659 8.219 17.442-13.486c1.021-.772 2.459-.59 3.201.409a2.274 2.274 0 0 1-.418 3.224l-19.343 14.983a2.844 2.844 0 0 1-1.717.409z" fill="#fff"/><path d="M84.985 119.138c18.164 0 32.889-14.414 32.889-32.193 0-17.78-14.725-32.193-32.89-32.193-18.163 0-32.888 14.413-32.888 32.193 0 17.779 14.725 32.193 32.889 32.193z" fill="#EEEEF2"/><path d="M91.388 84.085c2.644-1.907 4.36-4.995 4.36-8.491 0-5.858-4.824-10.58-10.808-10.58s-10.81 4.722-10.81 10.58c0 3.496 1.717 6.538 4.36 8.49-4.638 2.316-7.839 7.038-7.839 12.487v8.9H99.18v-8.9c.093-5.494-3.108-10.17-7.793-12.486z" fill="#fff"/><g filter="url(#b)"><path d="M369.9 201.413v235.791c0 4.722-3.897 8.536-8.721 8.536H241.08c-4.824 0-8.721-3.814-8.721-8.536V201.413c0-4.722 3.897-8.537 8.721-8.537h120.099c4.824 0 8.721 3.815 8.721 8.537z" fill="#FFFEFE" stroke="#606B7B" stroke-width="3" stroke-miterlimit="10"/><path d="M368.645 202.412v48.493H233.564v-48.493c-.51-5.676 3.664-8.628 8.582-8.4h117.918c4.87-.273 9.324 2.86 8.581 8.4z" fill="#D7DCE6"/><path d="M265.665 238.509c10.325 0 18.694-8.192 18.694-18.298 0-10.106-8.369-18.299-18.694-18.299s-18.694 8.193-18.694 18.299 8.369 18.298 18.694 18.298z" fill="#fff"/><path d="M269.33 218.576c1.485-1.09 2.505-2.86 2.505-4.813 0-3.315-2.737-5.993-6.123-5.993s-6.123 2.678-6.123 5.993c0 1.998.974 3.723 2.505 4.813-2.644 1.317-4.453 3.996-4.453 7.083v5.04h16.235v-5.04c.093-3.632-1.577-6.72-4.546-7.083z" fill="#EEEEF2"/><path d="M302.451 225.387h39.384m-39.384 3.269h39.384m-39.384 3.269h19.715" stroke="#fff" stroke-miterlimit="10" stroke-linecap="round" stroke-linejoin="round"/><path d="M254.115 280.555h39.337m-39.337 3.269h39.337m-39.337 3.269h19.669m-19.669 77.235h97.6m-97.6 3.269h97.6m-97.6 3.269h48.8m-48.8 6.766h97.6m-97.6 3.269h97.6m-97.6 3.314h48.8" stroke="#616C7D" stroke-miterlimit="10"/><path d="M346.704 344.032h-87.488c-3.386 0-6.169-2.679-6.169-6.039v-28.788c0-3.314 2.737-6.038 6.169-6.038h87.535c3.386 0 6.169 2.678 6.169 6.038v28.788c-.046 3.314-2.83 6.039-6.216 6.039z" fill="#EEEEF2"/><path d="M322.815 405.465h-39.801c-3.062 0-5.567-2.452-5.567-5.448 0-2.997 2.505-5.449 5.567-5.449h39.801c3.061 0 5.566 2.452 5.566 5.449 0 2.996-2.505 5.448-5.566 5.448z" fill="#9CA3AD"/></g><path d="M27.047 322.784c.232 1.68.742 3.314 1.438 4.858l-4.546 2.634c1.623 3.451 4.082 6.447 7.144 8.808l3.618-3.768c1.392.999 2.876 1.861 4.546 2.452l-1.392 4.994a25.23 25.23 0 0 0 5.613 1.317c1.948.227 3.897.182 5.799 0l-.186-5.131c1.716-.227 3.386-.726 4.964-1.407l2.644 4.449c3.525-1.589 6.587-3.995 8.999-6.992l-3.85-3.542c1.02-1.362 1.902-2.815 2.505-4.449l5.056 1.316a23.849 23.849 0 0 0 1.345-5.494c.232-1.907.186-3.814 0-5.675l-5.242.181a17.326 17.326 0 0 0-1.438-4.858l4.546-2.588c-1.16-3.27-2.876-6.039-7.143-8.809l-3.619 3.769c-1.391-.999-2.876-1.862-4.546-2.452l1.346-4.949a25.227 25.227 0 0 0-5.613-1.317c-1.949-.227-3.897-.182-5.799 0l.186 5.131a18.293 18.293 0 0 0-4.964 1.407l-2.644-4.45c-3.525 1.59-6.587 3.996-9 6.993l3.851 3.542c-1.02 1.362-1.902 2.815-2.505 4.449l-5.056-1.317a23.86 23.86 0 0 0-1.345 5.495c-.232 1.907-.186 3.814 0 5.675l5.288-.272zm7.422-4.041c.742-6.402 6.633-10.988 13.174-10.217 6.54.727 11.226 6.493 10.437 12.896-.742 6.402-6.633 10.988-13.174 10.216-6.494-.772-11.18-6.538-10.437-12.895z" fill="#fff"/><path d="M46.297 327.687c4.304 0 7.793-3.415 7.793-7.628s-3.489-7.628-7.793-7.628-7.793 3.415-7.793 7.628 3.489 7.628 7.793 7.628zm290.295-221.808c.139.953.418 1.907.835 2.77l-2.597 1.498a13.916 13.916 0 0 0 4.082 5.04l2.041-2.134c.788.59 1.67 1.044 2.597 1.408l-.788 2.86c1.02.363 2.087.636 3.201.727 1.113.136 2.226.136 3.293 0l-.093-2.952a10.083 10.083 0 0 0 2.83-.817l1.531 2.543a14.14 14.14 0 0 0 5.149-3.996l-2.18-1.998c.603-.772 1.067-1.634 1.438-2.543l2.922.772c.371-.999.65-2.043.742-3.133.14-1.089.14-2.179 0-3.223l-3.015.09a9.558 9.558 0 0 0-.835-2.769l2.598-1.499c-.65-1.861-1.67-3.45-4.082-5.04l-2.041 2.134c-.789-.59-1.67-1.044-2.598-1.407l.789-2.86c-1.021-.364-2.088-.636-3.201-.727a13.327 13.327 0 0 0-3.294 0l.093 2.951c-.974.136-1.948.409-2.83.817l-1.53-2.542a14.139 14.139 0 0 0-5.15 3.995l2.181 1.998c-.603.772-1.067 1.635-1.438 2.543l-2.923-.772c-.371.999-.649 2.043-.742 3.133a12.514 12.514 0 0 0 0 3.224l3.015-.091zm4.222-2.316c.417-3.632 3.803-6.266 7.514-5.857 3.711.409 6.402 3.723 5.984 7.356-.417 3.632-3.803 6.266-7.514 5.857-3.711-.409-6.402-3.678-5.984-7.356z" fill="#fff"/><path d="M347.586 108.694c2.46 0 4.453-1.952 4.453-4.359s-1.993-4.359-4.453-4.359c-2.459 0-4.453 1.952-4.453 4.359s1.994 4.359 4.453 4.359z" fill="#fff"/><g filter="url(#c)"><path d="M265.063 135.983h63.829c3.433 0 6.263 2.77 6.263 6.13v30.649c0 3.36-2.83 6.13-6.263 6.13h-22.127l-9.834 9.626-9.834-9.626h-22.081c-3.432 0-6.262-2.77-6.262-6.13v-30.649c.046-3.36 2.83-6.13 6.309-6.13z" fill="#4B6FB5"/><path d="M265.063 135.983h63.829c3.433 0 6.263 2.77 6.263 6.13v30.649c0 3.36-2.83 6.13-6.263 6.13h-22.127l-9.834 9.626-9.834-9.626h-22.081c-3.432 0-6.262-2.77-6.262-6.13v-30.649c.046-3.36 2.83-6.13 6.309-6.13z" fill="#9CA3AD"/><path d="M269.145 146.608v21.659c0 1.77 1.438 3.223 3.2 3.223h49.264c1.763 0 3.201-1.453 3.201-3.223v-21.659c0-.409-.093-.817-.232-1.18a3.175 3.175 0 0 0-2.969-1.998h-49.264a3.176 3.176 0 0 0-2.969 1.998 3.345 3.345 0 0 0-.231 1.18z" fill="#fff"/><path d="M269.375 145.427l23.797 10.171a9.51 9.51 0 0 0 7.561 0l23.797-10.125a3.175 3.175 0 0 0-2.969-1.998h-49.217a3.074 3.074 0 0 0-2.969 1.952z" fill="#EEEEF2"/><path d="M263.717 148.016c5.252 0 9.509-4.168 9.509-9.308 0-5.141-4.257-9.309-9.509-9.309-5.252 0-9.51 4.168-9.51 9.309 0 5.14 4.258 9.308 9.51 9.308z" fill="#F3995C"/><path d="M265.527 144.383H263.3v-8.173c-.789.727-1.763 1.271-2.876 1.635v-1.953c.556-.181 1.206-.545 1.902-1.044.696-.5 1.159-1.135 1.391-1.816h1.81v11.351z" fill="#fff"/></g><path d="M344.016 168.539c0 .454-.603.817-1.392.817-.789 0-1.392-.363-1.392-.817v-24.973c0-.454.603-.817 1.392-.817.789 0 1.392.363 1.392.817v24.973zm6.028-2.634c0 .318-.464.636-1.067.636s-1.067-.273-1.067-.636v-19.297c0-.318.464-.636 1.067-.636s1.067.273 1.067.636v19.297z" fill="#fff"/><path d="M358.163 216.351l-6.633-4.45c-.604-.409-1.439-.136-1.624.545-.603 2.089.185 4.404 2.087 5.721a5.38 5.38 0 0 0 6.216-.136c.603-.409.557-1.272-.046-1.68z" fill="#363B45"/><path d="M374.91 220.256l-1.995-6.63 7.283-10.397c3.897-5.54 3.247-12.896-1.206-17.709l.881-1.271c1.067-1.498.65-3.632-.881-4.631-1.531-1.045-3.711-.636-4.732.862l-.881 1.226c-6.17-2.315-13.453-.317-17.396 5.267l-7.282 10.353-6.68.999c-1.717.59-1.856 2.815-.232 3.905l4.639 3.133 19.668 13.213 5.149 3.45c1.716 1.09 3.85.046 3.665-1.77z" fill="#616C7D"/><g filter="url(#d)"><g opacity=".5" fill="#FCCC53"><path d="M20.55 225.977c0 5.812 4.825 10.534 10.763 10.534h68.144c5.937 0 10.762-4.722 10.762-10.534v-27.561c0-5.812-4.825-10.534-10.762-10.534H31.313c-5.938 0-10.762 4.722-10.762 10.534v27.561z"/><path d="M80.393 234.468l18.323.136 1.484 15.71-19.807-15.846z"/></g><path d="M74.78 212.174c0 2.179 1.808 3.95 4.035 3.95 2.227 0 4.036-1.771 4.036-3.95 0-2.18-1.81-3.95-4.036-3.95-2.227 0-4.036 1.77-4.036 3.95zm-13.454 0c0 2.179 1.81 3.95 4.036 3.95 2.227 0 4.036-1.771 4.036-3.95 0-2.18-1.81-3.95-4.036-3.95-2.227 0-4.036 1.77-4.036 3.95zm-13.453 0c0 2.179 1.81 3.95 4.036 3.95 2.226 0 4.035-1.771 4.035-3.95 0-2.18-1.809-3.95-4.035-3.95-2.227 0-4.036 1.77-4.036 3.95z" fill="#fff"/></g><defs><filter id="b" x="210.859" y="171.376" width="180.54" height="295.864" filterUnits="userSpaceOnUse" color-interpolation-filters="sRGB"><feFlood flood-opacity="0" result="BackgroundImageFix"/><feColorMatrix in="SourceAlpha" values="0 0 0 0 0 0 0 0 0 0 0 0 0 0 0 0 0 0 127 0"/><feOffset/><feGaussianBlur stdDeviation="10"/><feColorMatrix values="0 0 0 0 0 0 0 0 0 0 0 0 0 0 0 0 0 0 0.1 0"/><feBlend in2="BackgroundImageFix" result="effect1_dropShadow"/><feBlend in="SourceGraphic" in2="effect1_dropShadow" result="shape"/></filter><filter id="c" x="234.207" y="124.399" width="120.948" height="99.118" filterUnits="userSpaceOnUse" color-interpolation-filters="sRGB"><feFlood flood-opacity="0" result="BackgroundImageFix"/><feColorMatrix in="SourceAlpha" values="0 0 0 0 0 0 0 0 0 0 0 0 0 0 0 0 0 0 127 0"/><feOffset dy="15"/><feGaussianBlur stdDeviation="10"/><feColorMatrix values="0 0 0 0 0 0 0 0 0 0 0 0 0 0 0 0 0 0 0.05 0"/><feBlend in2="BackgroundImageFix" result="effect1_dropShadow"/><feBlend in="SourceGraphic" in2="effect1_dropShadow" result="shape"/></filter><filter id="d" x=".551" y="182.882" width="129.668" height="102.432" filterUnits="userSpaceOnUse" color-interpolation-filters="sRGB"><feFlood flood-opacity="0" result="BackgroundImageFix"/><feColorMatrix in="SourceAlpha" values="0 0 0 0 0 0 0 0 0 0 0 0 0 0 0 0 0 0 127 0"/><feOffset dy="15"/><feGaussianBlur stdDeviation="10"/><feColorMatrix values="0 0 0 0 0 0 0 0 0 0 0 0 0 0 0 0 0 0 0.05 0"/><feBlend in2="BackgroundImageFix" result="effect1_dropShadow"/><feBlend in="SourceGraphic" in2="effect1_dropShadow" result="shape"/></filter><linearGradient id="a" x1="91.821" y1="234.597" x2="271.424" y2="234.597" gradientUnits="userSpaceOnUse"><stop stop-color="#D1D3D4"/><stop offset=".155" stop-color="#DDDEDF"/><stop offset=".422" stop-color="#ECEDED"/><stop offset=".618" stop-color="#F1F2F2"/></linearGradient></defs></svg>