<svg width="80" height="80" viewBox="0 0 80 80" fill="none" xmlns="http://www.w3.org/2000/svg"><g filter="url(#a)"><path opacity=".3" d="M75.5 40c0 19.607-15.893 35.5-35.5 35.5S4.5 59.607 4.5 40 20.393 4.5 40 4.5 75.5 20.393 75.5 40z" stroke="#fff"/><path fill-rule="evenodd" clip-rule="evenodd" d="M31 21c-5.523 0-10 4.477-10 10v18c0 5.523 4.477 10 10 10h18c5.523 0 10-4.477 10-10V31c0-5.523-4.477-10-10-10H31zm14.64 19L40 32.281 34.36 40l-5.641 7.719H51.28L45.641 40zm0 0L40 47.719 34.36 40h11.28z" fill="#6CCB93"/></g><defs><filter id="a" x="0" y="0" width="80" height="80" filterUnits="userSpaceOnUse" color-interpolation-filters="sRGB"><feFlood flood-opacity="0" result="BackgroundImageFix"/><feBlend in="SourceGraphic" in2="BackgroundImageFix" result="shape"/><feGaussianBlur stdDeviation="2" result="effect1_foregroundBlur"/></filter></defs></svg>