<svg width="470" height="317" viewBox="0 0 470 317" fill="none" xmlns="http://www.w3.org/2000/svg"><g clip-path="url(#a)"><path fill="#F8F8F8" d="M0 0h470v317H0z"/><g clip-path="url(#b)"><path d="M433.461 291.43l-20.64-46.87c-14.47-48.23-26.64-64.12-47.79-55.17-27.29 11.56-35.12 31.65-34.52 56-1.54 3.33-3.79 8.48-4 10.78-.21 2.3 3.29 4.89 5.59 6.37l.24 1.59c5.12 32.61 19 37.75 38.82 22.86 0 0-.54-1.3-1.17-2.67l1.56 3.63 11.45 27.49" fill="#fff"/><path d="M433.461 291.43l-20.64-46.87c-14.47-48.23-26.64-64.12-47.79-55.17-27.29 11.56-35.12 31.65-34.52 56-1.54 3.33-3.79 8.48-4 10.78-.21 2.3 3.29 4.89 5.59 6.37l.24 1.59c5.12 32.61 19 37.75 38.82 22.86 0 0-.54-1.3-1.17-2.67l1.56 3.63 11.45 27.49" stroke="#002633" stroke-linejoin="round"/><path d="M332.064 244.848c4.252-1.22 7.156-4.103 6.486-6.438-.671-2.336-4.661-3.241-8.913-2.021-4.252 1.221-7.156 4.103-6.486 6.439.67 2.336 4.661 3.24 8.913 2.02z" stroke="#002633" stroke-miterlimit="10"/><path d="M331.082 244.66a2.84 2.84 0 1 0 .001-5.679 2.84 2.84 0 0 0-.001 5.679z" fill="#002633"/><path d="M327.502 228.581s10.75-5.42 15.88-1.5" stroke="#002633" stroke-miterlimit="10"/><path d="M341.791 401.11c14.41-57.65 26.07-107.61 70.45-128.11 41.63-19.21 83.14 48.1 96.07 75.26" fill="#fff"/><path d="M341.791 401.11c14.41-57.65 26.07-107.61 70.45-128.11 41.63-19.21 83.14 48.1 96.07 75.26" stroke="#002633" stroke-linejoin="round"/><path d="M347.251 308.75c-.79-4.24-2.05-6.12-5.19-10.83 0 0-.79-4.24-2.37-16.8-.83-6.55-4.25-7.37-5.19-2.66-.94 4.71-9.64 33.29-13.92 45.39-5.65 15.94-16.32 39.78-26.3 65.34" fill="#fff"/><path d="M347.251 308.75c-.79-4.24-2.05-6.12-5.19-10.83 0 0-.79-4.24-2.37-16.8-.83-6.55-4.25-7.37-5.19-2.66-.94 4.71-9.64 33.29-13.92 45.39-5.65 15.94-16.32 39.78-26.3 65.34" stroke="#002633" stroke-linejoin="round"/><path d="M337.92 211.371s17.88 24 37.9 24a119.875 119.875 0 0 1-1.6 31.62c-4.81 26.42-14.41 36-14.41 36 3.6 6.81 17.38 16.7 29.62 18l4-14.41 2 14.41s15.61 4.4 30.82-11.21c11.88-12.19 10.41-25.62 10.41-25.62a313.957 313.957 0 0 1-29.09-56c-11.47-29.35-18.41-40.56-32.55-41.63-14.14-1.07-30.16 13.36-37.1 24.84z" fill="#fff" stroke="#002633" stroke-miterlimit="10"/><path d="M358.48 230.61s1.59-12.77 9-16.1c7.41-3.33 16.86 16.84 8.26 27.18" fill="#fff"/><path d="M358.48 230.61s1.59-12.77 9-16.1c7.41-3.33 16.86 16.84 8.26 27.18m-7.929-19.91s-4.08 3.58-3.29 14.87" stroke="#002633" stroke-miterlimit="10"/><path d="M338.191 261.801c-1.87 4.13-4.66 4.7-4.66 4.7l4.66-4.7z" fill="#fff"/><path d="M338.191 261.801c-1.87 4.13-4.66 4.7-4.66 4.7" stroke="#002633" stroke-miterlimit="10"/><path d="M376.33 238.101a2 2 0 1 0-4 0v3.21a2 2 0 0 0 4 0v-3.21z" fill="#fff" stroke="#002633" stroke-miterlimit="10"/><path d="M225.91 375.09c53.39 0 96.67-43.281 96.67-96.67s-43.28-96.67-96.67-96.67c-53.389 0-96.67 43.281-96.67 96.67s43.281 96.67 96.67 96.67z" fill="#3C67FF"/><path d="M30.31 253.4L51 206.53c14.47-48.23 26.65-64.12 47.79-55.16 27.291 11.55 35.121 31.64 34.521 56 1.55 3.33 3.79 8.48 4 10.78.21 2.3-3.3 4.89-5.6 6.37l-.24 1.59c-5.11 32.61-18.95 37.65-38.73 22.76a21.92 21.92 0 0 0 1-2.4l-1.48 3.46L82 277.42" fill="#fff"/><path d="M30.31 253.4L51 206.53c14.47-48.23 26.65-64.12 47.79-55.16 27.291 11.55 35.121 31.64 34.521 56 1.55 3.33 3.79 8.48 4 10.78.21 2.3-3.3 4.89-5.6 6.37l-.24 1.59c-5.11 32.61-18.95 37.65-38.73 22.76a21.92 21.92 0 0 0 1-2.4l-1.48 3.46L82 277.42" stroke="#002633" stroke-linejoin="round"/><path d="M139.403 203.558c.67-2.336-2.233-5.218-6.486-6.438-4.252-1.22-8.242-.316-8.912 2.02-.671 2.336 2.233 5.218 6.485 6.438 4.253 1.22 8.243.316 8.913-2.02z" stroke="#002633" stroke-miterlimit="10"/><path d="M131.49 205.43a2.84 2.84 0 1 0 0-5.68 2.84 2.84 0 0 0 0 5.68z" fill="#002633"/><path d="M136.271 190.56s-10.75-5.42-15.88-1.51" stroke="#002633" stroke-miterlimit="10"/><path d="M128 225a29.42 29.42 0 0 0 2.26 3.49L128 225z" fill="#fff"/><path d="M128 225a29.42 29.42 0 0 0 2.26 3.49" stroke="#002633" stroke-miterlimit="10"/><path d="M37.49 237.33s25.7 2.46 50.52 24.07l-50.52-24.07z" fill="#fff"/><path d="M37.49 237.33s25.7 2.46 50.52 24.07" stroke="#002633" stroke-miterlimit="10"/><path d="M-45.69 289c10.68-8.54 50.84-53 86.06-40.16 35.22 12.84 53.42 21 72.061 42.57 20.28 23.48 11.8 54.09 12.81 81.25" fill="#fff"/><path d="M-45.69 289c10.68-8.54 50.84-53 86.06-40.16 35.22 12.84 53.42 21 72.061 42.57 20.28 23.48 11.8 54.09 12.81 81.25" stroke="#002633" stroke-miterlimit="10"/><path d="M56 209.371s9.47 4.53 13.21-2.4c0 0 14 5.2 17.74-8.54l9.07-8s10.64 2.63 19.62-4.27c5.2-4 7.6-12.81 7.6-12.81s5.61 4.9 6.11 6.71c0 0 2.9-1.31 1.6-5.51a11.083 11.083 0 0 0-4.3-6s1.8-6.41-2.61-8.91a17.067 17.067 0 0 0-9.2-2s-.1-4.4-5.31-7.51c-5.21-3.11-18.61-6.9-23.41-1.3 0 0-6.41-3-14.31 3.71s-7.21 12.91-7.21 12.91-5.6 2.1-6.1 8.1.5 7.41.5 7.41a10.757 10.757 0 0 0-4.71 6.3 22 22 0 0 0-.7 8.91s-4.36 2.88-2.4 7.2a13.422 13.422 0 0 0 4.81 6z" fill="#fff" stroke="#002633" stroke-miterlimit="10"/><path d="M105.301 192.59s-1.6-12.77-9-16.11-16.86 16.84-8.25 27.19" fill="#fff"/><path d="M105.301 192.59s-1.6-12.77-9-16.11-16.86 16.84-8.25 27.19M96 183.75s4.08 3.59 3.3 14.88" stroke="#002633" stroke-miterlimit="10"/><path d="M199.12 232s-4.26-6.64-10-1.7c-5.74 4.94-3.75 28.12 7.69 28.78V299h64.5l-.55-39.88c11.45-.66 13.41-23.85 7.69-28.78s-10 1.7-10 1.7" fill="#fff"/><path d="M199.12 232s-4.26-6.64-10-1.7c-5.74 4.94-3.75 28.12 7.69 28.78V299h64.5l-.55-39.88c11.45-.66 13.41-23.85 7.69-28.78s-10 1.7-10 1.7" stroke="#002633" stroke-miterlimit="10"/><path d="M228.91 276.52A33.998 33.998 0 0 1 195 242.59v-27.22a15.523 15.523 0 0 1 15.51-15.51h36.82a15.529 15.529 0 0 1 15.52 15.51v27.22a34.002 34.002 0 0 1-33.94 33.93z" fill="#002633"/><path d="M247.32 200.36a14.998 14.998 0 0 1 15 15v27.22a33.435 33.435 0 0 1-9.583 24.012 33.433 33.433 0 0 1-47.684 0 33.435 33.435 0 0 1-9.583-24.012v-27.21a14.995 14.995 0 0 1 9.26-13.858 14.995 14.995 0 0 1 5.74-1.142h36.82l.03-.01zm-.03-.99H210.5a16.004 16.004 0 0 0-11.314 4.686 16.004 16.004 0 0 0-4.686 11.314v27.22A34.428 34.428 0 0 0 228.91 277a34.442 34.442 0 0 0 34.43-34.43v-27.2c0-4.243-1.686-8.313-4.686-11.314a16.004 16.004 0 0 0-11.314-4.686h-.05z" fill="#002633"/><path d="M261.13 311.44s-5.28-11.21-32.12-11.21c-26 0-32.18 11.21-32.18 11.21v-21.62s6.16-11.2 32.18-11.2c26.84 0 32.12 11.2 32.12 11.2v21.62z" fill="#fff" stroke="#002633" stroke-miterlimit="10"/><path d="M96 391.5c27.62-84.06 82.46-101.68 132.9-101.68 50.44 0 110.89 30.43 124.9 114.09" fill="#fff"/><path d="M96 391.5c27.62-84.06 82.46-101.68 132.9-101.68 50.44 0 110.89 30.43 124.9 114.09" stroke="#002633" stroke-miterlimit="10"/><path d="M309.231 206.211c18.016 0 32.62-14.605 32.62-32.62 0-18.016-14.604-32.62-32.62-32.62-18.015 0-32.62 14.604-32.62 32.62 0 18.015 14.605 32.62 32.62 32.62z" fill="#3C67FF" style="mix-blend-mode:multiply"/><path d="M191.281 199.36a8.81 8.81 0 1 0 0-17.62 8.81 8.81 0 0 0 0 17.62zm134.369-55.099a18.87 18.87 0 1 0-31.81 13.74 11.11 11.11 0 0 1 3.47 8.09v5.82h18.92v-5.82c.003-1.521.316-3.025.92-4.421a11.186 11.186 0 0 1 2.59-3.699 18.77 18.77 0 0 0 5.91-13.71z" stroke="#002633" stroke-linejoin="round"/><path d="M297.43 167.53h18.92v5.82a3.5 3.5 0 0 1-1.023 2.468 3.494 3.494 0 0 1-2.467 1.022h-11.94a3.498 3.498 0 0 1-2.468-1.022 3.498 3.498 0 0 1-1.022-2.468v-5.82z" stroke="#002633" stroke-linejoin="round"/><path d="M304.121 179.25a.997.997 0 0 1-.703-.955.998.998 0 0 1 .703-.955h5.53a.996.996 0 0 1 .89.15.993.993 0 0 1 .407.805.996.996 0 0 1-.407.805.996.996 0 0 1-.89.15h-5.53z" fill="#002633"/><path d="M309.651 177.84a.459.459 0 0 1 .368.803.464.464 0 0 1-.368.107h-5.53a.459.459 0 0 1 0-.91h5.53zm0-1h-5.53a1.46 1.46 0 0 0 0 2.91h5.53a1.461 1.461 0 0 0 1.109-2.529 1.468 1.468 0 0 0-1.109-.381z" fill="#002633"/><path d="M216.31 60.57c10.676 0 19.33-8.654 19.33-19.33 0-10.676-8.654-19.33-19.33-19.33-10.675 0-19.33 8.654-19.33 19.33 0 10.676 8.655 19.33 19.33 19.33z" fill="#53D991"/><path d="M223.2 44.275c0-1.451-.512-2.674-1.538-3.668-1.01-.994-2.722-1.893-5.136-2.698-3.36-1.026-5.814-2.359-7.36-4-1.531-1.657-2.296-3.755-2.296-6.295 0-2.588.75-4.71 2.248-6.367 1.515-1.656 3.59-2.642 6.225-2.958v-5.183h3.526v5.207c2.651.363 4.71 1.475 6.177 3.337 1.484 1.861 2.225 4.41 2.225 7.644h-4.355c0-2.225-.528-3.992-1.585-5.301-1.057-1.31-2.485-1.965-4.284-1.965-1.878 0-3.313.49-4.307 1.468-.994.962-1.491 2.311-1.491 4.047 0 1.61.52 2.895 1.562 3.857 1.057.947 2.784 1.815 5.183 2.604 2.414.773 4.291 1.633 5.632 2.58 1.357.93 2.351 2.02 2.982 3.265.647 1.247.971 2.707.971 4.379 0 2.666-.805 4.812-2.414 6.437-1.594 1.626-3.834 2.588-6.722 2.888v4.52h-3.502v-4.52c-2.935-.268-5.239-1.31-6.911-3.124-1.657-1.83-2.485-4.308-2.485-7.432h4.378c0 2.193.576 3.882 1.728 5.065 1.152 1.183 2.785 1.775 4.899 1.775 2.067 0 3.692-.497 4.875-1.491 1.184-.994 1.775-2.35 1.775-4.07z" fill="#fff"/><path d="M230.65 154.751c16.751 0 30.33-13.579 30.33-30.33 0-16.751-13.579-30.33-30.33-30.33-16.75 0-30.33 13.579-30.33 30.33 0 16.751 13.58 30.33 30.33 30.33z" fill="#53D991"/><g style="mix-blend-mode:multiply"><g style="mix-blend-mode:multiply"><path d="M197.93 130.541h-8.78v28.2h8.78v-28.2z" fill="#fff"/><path d="M197.93 130.541h-8.78v28.2h8.78v-28.2z" stroke="#002633" stroke-miterlimit="10"/></g><g style="mix-blend-mode:multiply"><path d="M210.411 130.541h-8.78v28.2h8.78v-28.2z" fill="#fff"/><path d="M210.411 130.541h-8.78v28.2h8.78v-28.2z" stroke="#002633" stroke-miterlimit="10"/></g><g style="mix-blend-mode:multiply"><path d="M238.481 130.541h-8.78v28.2h8.78v-28.2z" fill="#fff"/><path d="M238.481 130.541h-8.78v28.2h8.78v-28.2z" stroke="#002633" stroke-miterlimit="10"/></g><g style="mix-blend-mode:multiply"><path d="M250.962 130.541h-8.78v28.2h8.78v-28.2z" fill="#fff"/><path d="M250.962 130.541h-8.78v28.2h8.78v-28.2z" stroke="#002633" stroke-miterlimit="10"/></g><path d="M197.93 130.541h-8.78v5.55h8.78v-5.55zm12.481 0h-8.78v5.55h8.78v-5.55zm28.07 0h-8.78v5.55h8.78v-5.55zm12.481 0h-8.78v5.55h8.78v-5.55z" fill="#002633" style="mix-blend-mode:multiply"/><g style="mix-blend-mode:multiply"><path d="M218.001 99.16l-32.31 26.121a3.348 3.348 0 0 0 2.11 5.95h64.62a3.352 3.352 0 0 0 2.1-5.95l-32.36-26.12a3.362 3.362 0 0 0-4.16 0z" fill="#fff"/><path d="M218.001 99.16l-32.31 26.121a3.348 3.348 0 0 0 2.11 5.95h64.62a3.352 3.352 0 0 0 2.1-5.95l-32.36-26.12a3.362 3.362 0 0 0-4.16 0z" stroke="#002633" stroke-miterlimit="10"/></g><g style="mix-blend-mode:multiply"><path d="M254.721 157.061h-69.33v3.93h69.33v-3.93z" fill="#fff"/><path d="M254.721 157.061h-69.33v3.93h69.33v-3.93z" stroke="#002633" stroke-miterlimit="10"/></g><g style="mix-blend-mode:multiply"><path d="M260.731 160.99h-81.35v4.39h81.35v-4.39z" fill="#fff"/><path d="M260.731 160.99h-81.35v4.39h81.35v-4.39z" stroke="#002633" stroke-miterlimit="10"/></g><g style="mix-blend-mode:multiply"><path d="M220.06 119.35a6.31 6.31 0 1 0 0-12.62 6.31 6.31 0 0 0 0 12.62z" fill="#fff"/><path d="M220.06 119.35a6.31 6.31 0 1 0 0-12.62 6.31 6.31 0 0 0 0 12.62z" stroke="#002633" stroke-miterlimit="10"/></g><path d="M187.711 123.961h65" stroke="#002633" stroke-miterlimit="10" style="mix-blend-mode:multiply"/></g><path d="M127.71 88.54c7-7.26 14.25-7 14.25-7l-.5 28.12a30.325 30.325 0 0 0-14.63 24.79" fill="#fff"/><path d="M127.71 88.54c7-7.26 14.25-7 14.25-7l-.5 28.12a30.325 30.325 0 0 0-14.63 24.79" stroke="#002633" stroke-miterlimit="10"/><path d="M146.68 158.92c-3.68-2.18-21-13.24-22.92-28.78-3.35-27.36.29-37.07 3-40.49a9.006 9.006 0 0 0-.94 6.27c2.12 10.4 20.89 19.33 23.69 20.61l-2.83 42.39z" fill="#fff"/><path d="M125.131 93.9a9.742 9.742 0 0 0 .21 2.12c2.1 10.3 20 19.1 23.66 20.82l-2.77 41.23c-4.73-2.92-20.2-13.5-22-28-2.49-20.34-1.07-30.81.88-36.18l.02.01zm3.98-6.58s-10.9 1.68-5.85 42.88c2.18 17.78 23.86 29.56 23.86 29.56l2.88-43.54s-33.91-15-21-28.89l.11-.01z" fill="#002633"/><path d="M300.65 59.42v26s-3 13-18 12l-2-25s10 0 20-13z" fill="#fff" stroke="#002633" stroke-miterlimit="10"/><path d="M269.15 36.92l3 26s21.5 1.5 28.5 20.5v-26c0-7-15.5-22.5-31.5-20.5z" fill="#fff" stroke="#002633" stroke-miterlimit="10"/><path d="M184.501 90.89c6.523 0 11.81-5.287 11.81-11.81 0-6.522-5.287-11.81-11.81-11.81-6.522 0-11.81 5.288-11.81 11.81 0 6.523 5.288 11.81 11.81 11.81z" fill="#3C67FF" style="mix-blend-mode:multiply"/><path d="M13.65 228.42a4.92 4.92 0 1 0 0-9.84 4.92 4.92 0 0 0 0 9.84zm438.661 4c5.892 0 10.67-4.777 10.67-10.67s-4.778-10.67-10.67-10.67c-5.893 0-10.67 4.777-10.67 10.67s4.777 10.67 10.67 10.67z" stroke="#002633" stroke-linejoin="round"/></g></g><defs><clipPath id="a"><path fill="#fff" d="M0 0h470v317H0z"/></clipPath><clipPath id="b"><path fill="#fff" transform="translate(-46)" d="M0 0h554.76v403.99H0z"/></clipPath></defs></svg>