<svg width="70" height="70" viewBox="0 0 70 70" fill="none" xmlns="http://www.w3.org/2000/svg"><path d="M48.05 2.37c.292 0 .53-.233.53-.52a.525.525 0 0 0-.53-.52.525.525 0 0 0-.53.52c0 .287.237.52.53.52zm0 5.11c.292 0 .53-.232.53-.52a.525.525 0 0 0-.53-.52.525.525 0 0 0-.53.52c0 .288.237.52.53.52zm0 5.12c.292 0 .53-.233.53-.52a.525.525 0 0 0-.53-.52.525.525 0 0 0-.53.52c0 .287.237.52.53.52zm0 5.11c.292 0 .53-.233.53-.52a.525.525 0 0 0-.53-.52.525.525 0 0 0-.53.52c0 .287.237.52.53.52zm0 5.12c.292 0 .53-.233.53-.52a.525.525 0 0 0-.53-.52.525.525 0 0 0-.53.52c0 .287.237.52.53.52zm0 5.11c.292 0 .53-.232.53-.52a.525.525 0 0 0-.53-.52.525.525 0 0 0-.53.52c0 .288.237.52.53.52zm0 5.12c.292 0 .53-.233.53-.52a.525.525 0 0 0-.53-.52.525.525 0 0 0-.53.52c0 .287.237.52.53.52zm0 5.11c.292 0 .53-.233.53-.52a.525.525 0 0 0-.53-.52.525.525 0 0 0-.53.52c0 .287.237.52.53.52zm0 5.12c.292 0 .53-.233.53-.52a.525.525 0 0 0-.53-.52.525.525 0 0 0-.53.52c0 .287.237.52.53.52zM42.9 2.37c.293 0 .53-.233.53-.52a.525.525 0 0 0-.53-.52.525.525 0 0 0-.53.52c0 .287.237.52.53.52zm0 5.11c.293 0 .53-.232.53-.52a.525.525 0 0 0-.53-.52.525.525 0 0 0-.53.52c0 .288.237.52.53.52zm0 5.12c.293 0 .53-.233.53-.52a.525.525 0 0 0-.53-.52.525.525 0 0 0-.53.52c0 .287.237.52.53.52zm0 5.11c.293 0 .53-.233.53-.52a.525.525 0 0 0-.53-.52.525.525 0 0 0-.53.52c0 .287.237.52.53.52zm0 5.12c.293 0 .53-.233.53-.52a.525.525 0 0 0-.53-.52.525.525 0 0 0-.53.52c0 .287.237.52.53.52zm0 5.11c.293 0 .53-.232.53-.52a.525.525 0 0 0-.53-.52.525.525 0 0 0-.53.52c0 .288.237.52.53.52zm0 5.12c.293 0 .53-.233.53-.52a.525.525 0 0 0-.53-.52.525.525 0 0 0-.53.52c0 .287.237.52.53.52zm0 5.11c.293 0 .53-.233.53-.52a.525.525 0 0 0-.53-.52.525.525 0 0 0-.53.52c0 .287.237.52.53.52zm0 5.12c.293 0 .53-.233.53-.52a.525.525 0 0 0-.53-.52.525.525 0 0 0-.53.52c0 .287.237.52.53.52zM37.74 2.37c.293 0 .53-.233.53-.52a.525.525 0 0 0-.53-.52.525.525 0 0 0-.53.52c0 .287.237.52.53.52zm0 5.11c.293 0 .53-.232.53-.52a.525.525 0 0 0-.53-.52.525.525 0 0 0-.53.52c0 .288.237.52.53.52zm0 5.12c.293 0 .53-.233.53-.52a.525.525 0 0 0-.53-.52.525.525 0 0 0-.53.52c0 .287.237.52.53.52zm0 5.11c.293 0 .53-.233.53-.52a.525.525 0 0 0-.53-.52.525.525 0 0 0-.53.52c0 .287.237.52.53.52zm0 5.12c.293 0 .53-.233.53-.52a.525.525 0 0 0-.53-.52.525.525 0 0 0-.53.52c0 .287.237.52.53.52zm0 5.11c.293 0 .53-.232.53-.52a.525.525 0 0 0-.53-.52.525.525 0 0 0-.53.52c0 .288.237.52.53.52zm0 5.12c.293 0 .53-.233.53-.52a.525.525 0 0 0-.53-.52.525.525 0 0 0-.53.52c0 .287.237.52.53.52zm0 5.11c.293 0 .53-.233.53-.52a.525.525 0 0 0-.53-.52.525.525 0 0 0-.53.52c0 .287.237.52.53.52zm0 5.12c.293 0 .53-.233.53-.52a.525.525 0 0 0-.53-.52.525.525 0 0 0-.53.52c0 .287.237.52.53.52zM32.59 2.37c.292 0 .53-.233.53-.52a.525.525 0 0 0-.53-.52.525.525 0 0 0-.53.52c0 .287.237.52.53.52zm0 5.11c.292 0 .53-.232.53-.52a.525.525 0 0 0-.53-.52.525.525 0 0 0-.53.52c0 .288.237.52.53.52zm0 5.12c.292 0 .53-.233.53-.52a.525.525 0 0 0-.53-.52.525.525 0 0 0-.53.52c0 .287.237.52.53.52zm0 5.11c.292 0 .53-.233.53-.52a.525.525 0 0 0-.53-.52.525.525 0 0 0-.53.52c0 .287.237.52.53.52zm0 5.12c.292 0 .53-.233.53-.52a.525.525 0 0 0-.53-.52.525.525 0 0 0-.53.52c0 .287.237.52.53.52zm0 5.11c.292 0 .53-.232.53-.52a.525.525 0 0 0-.53-.52.525.525 0 0 0-.53.52c0 .288.237.52.53.52zm0 5.12c.292 0 .53-.233.53-.52a.525.525 0 0 0-.53-.52.525.525 0 0 0-.53.52c0 .287.237.52.53.52zm0 5.11c.292 0 .53-.233.53-.52a.525.525 0 0 0-.53-.52.525.525 0 0 0-.53.52c0 .287.237.52.53.52zm0 5.12c.292 0 .53-.233.53-.52a.525.525 0 0 0-.53-.52.525.525 0 0 0-.53.52c0 .287.237.52.53.52zM27.43 2.37c.293 0 .53-.233.53-.52a.525.525 0 0 0-.53-.52.525.525 0 0 0-.53.52c0 .287.238.52.53.52zm0 5.11c.293 0 .53-.232.53-.52a.525.525 0 0 0-.53-.52.525.525 0 0 0-.53.52c0 .288.238.52.53.52zm0 5.12c.293 0 .53-.233.53-.52a.525.525 0 0 0-.53-.52.525.525 0 0 0-.53.52c0 .287.238.52.53.52zm0 5.11c.293 0 .53-.233.53-.52a.525.525 0 0 0-.53-.52.525.525 0 0 0-.53.52c0 .287.238.52.53.52zm0 5.12c.293 0 .53-.233.53-.52a.525.525 0 0 0-.53-.52.525.525 0 0 0-.53.52c0 .287.238.52.53.52zm0 5.11c.293 0 .53-.232.53-.52a.525.525 0 0 0-.53-.52.525.525 0 0 0-.53.52c0 .288.238.52.53.52zm0 5.12c.293 0 .53-.233.53-.52a.525.525 0 0 0-.53-.52.525.525 0 0 0-.53.52c0 .287.238.52.53.52zm0 5.11c.293 0 .53-.233.53-.52a.525.525 0 0 0-.53-.52.525.525 0 0 0-.53.52c0 .287.238.52.53.52zm0 5.12c.293 0 .53-.233.53-.52a.525.525 0 0 0-.53-.52.525.525 0 0 0-.53.52c0 .287.238.52.53.52zM22.28 2.37c.293 0 .53-.233.53-.52a.525.525 0 0 0-.53-.52.525.525 0 0 0-.53.52c0 .287.237.52.53.52zm0 5.11c.293 0 .53-.232.53-.52a.525.525 0 0 0-.53-.52.525.525 0 0 0-.53.52c0 .288.237.52.53.52zm0 5.12c.293 0 .53-.233.53-.52a.525.525 0 0 0-.53-.52.525.525 0 0 0-.53.52c0 .287.237.52.53.52zm0 5.11c.293 0 .53-.233.53-.52a.525.525 0 0 0-.53-.52.525.525 0 0 0-.53.52c0 .287.237.52.53.52zm0 5.12c.293 0 .53-.233.53-.52a.525.525 0 0 0-.53-.52.525.525 0 0 0-.53.52c0 .287.237.52.53.52zm0 5.11c.293 0 .53-.232.53-.52a.525.525 0 0 0-.53-.52.525.525 0 0 0-.53.52c0 .288.237.52.53.52zm0 5.12c.293 0 .53-.233.53-.52a.525.525 0 0 0-.53-.52.525.525 0 0 0-.53.52c0 .287.237.52.53.52zm0 5.11c.293 0 .53-.233.53-.52a.525.525 0 0 0-.53-.52.525.525 0 0 0-.53.52c0 .287.237.52.53.52zm0 5.12c.293 0 .53-.233.53-.52a.525.525 0 0 0-.53-.52.525.525 0 0 0-.53.52c0 .287.237.52.53.52zM17.12 2.37c.293 0 .53-.233.53-.52a.525.525 0 0 0-.53-.52.525.525 0 0 0-.53.52c0 .287.237.52.53.52zm0 5.11c.293 0 .53-.232.53-.52a.525.525 0 0 0-.53-.52.525.525 0 0 0-.53.52c0 .288.237.52.53.52zm0 5.12c.293 0 .53-.233.53-.52a.525.525 0 0 0-.53-.52.525.525 0 0 0-.53.52c0 .287.237.52.53.52zm0 5.11c.293 0 .53-.233.53-.52a.525.525 0 0 0-.53-.52.525.525 0 0 0-.53.52c0 .287.237.52.53.52zm0 5.12c.293 0 .53-.233.53-.52a.525.525 0 0 0-.53-.52.525.525 0 0 0-.53.52c0 .287.237.52.53.52zm0 5.11c.293 0 .53-.232.53-.52a.525.525 0 0 0-.53-.52.525.525 0 0 0-.53.52c0 .288.237.52.53.52zm0 5.12c.293 0 .53-.233.53-.52a.525.525 0 0 0-.53-.52.525.525 0 0 0-.53.52c0 .287.237.52.53.52zm0 5.11c.293 0 .53-.233.53-.52a.525.525 0 0 0-.53-.52.525.525 0 0 0-.53.52c0 .287.237.52.53.52zm0 5.12c.293 0 .53-.233.53-.52a.525.525 0 0 0-.53-.52.525.525 0 0 0-.53.52c0 .287.237.52.53.52zM11.97 2.37c.293 0 .53-.233.53-.52a.525.525 0 0 0-.53-.52.525.525 0 0 0-.53.52c0 .287.238.52.53.52zm0 5.11c.293 0 .53-.232.53-.52a.525.525 0 0 0-.53-.52.525.525 0 0 0-.53.52c0 .288.238.52.53.52zm0 5.12c.293 0 .53-.233.53-.52a.525.525 0 0 0-.53-.52.525.525 0 0 0-.53.52c0 .287.238.52.53.52zm0 5.11c.293 0 .53-.233.53-.52a.525.525 0 0 0-.53-.52.525.525 0 0 0-.53.52c0 .287.238.52.53.52zm0 5.12c.293 0 .53-.233.53-.52a.525.525 0 0 0-.53-.52.525.525 0 0 0-.53.52c0 .287.238.52.53.52zm0 5.11c.293 0 .53-.232.53-.52a.525.525 0 0 0-.53-.52.525.525 0 0 0-.53.52c0 .288.238.52.53.52zm0 5.12c.293 0 .53-.233.53-.52a.525.525 0 0 0-.53-.52.525.525 0 0 0-.53.52c0 .287.238.52.53.52zm0 5.11c.293 0 .53-.233.53-.52a.525.525 0 0 0-.53-.52.525.525 0 0 0-.53.52c0 .287.238.52.53.52zm0 5.12c.293 0 .53-.233.53-.52a.525.525 0 0 0-.53-.52.525.525 0 0 0-.53.52c0 .287.238.52.53.52zM6.81 2.37c.293 0 .53-.233.53-.52a.525.525 0 0 0-.53-.52.525.525 0 0 0-.53.52c0 .287.238.52.53.52zm0 5.11c.293 0 .53-.232.53-.52a.525.525 0 0 0-.53-.52.525.525 0 0 0-.53.52c0 .288.238.52.53.52zm0 5.12c.293 0 .53-.233.53-.52a.525.525 0 0 0-.53-.52.525.525 0 0 0-.53.52c0 .287.238.52.53.52zm0 5.11c.293 0 .53-.233.53-.52a.525.525 0 0 0-.53-.52.525.525 0 0 0-.53.52c0 .287.238.52.53.52zm0 5.12c.293 0 .53-.233.53-.52a.525.525 0 0 0-.53-.52.525.525 0 0 0-.53.52c0 .287.238.52.53.52zm0 5.11c.293 0 .53-.232.53-.52a.525.525 0 0 0-.53-.52.525.525 0 0 0-.53.52c0 .288.238.52.53.52zm0 5.12c.293 0 .53-.233.53-.52a.525.525 0 0 0-.53-.52.525.525 0 0 0-.53.52c0 .287.238.52.53.52zm0 5.11c.293 0 .53-.233.53-.52a.525.525 0 0 0-.53-.52.525.525 0 0 0-.53.52c0 .287.238.52.53.52zm0 5.12c.293 0 .53-.233.53-.52a.525.525 0 0 0-.53-.52.525.525 0 0 0-.53.52c0 .287.238.52.53.52z" fill="#010101"/><path d="M21.75 47.22V16.39h30.84l7.08-6.6H14.59v44.28l7.16-6.85z" fill="#F47E5A"/><path d="M59.67 9.79l-7.08 6.6v30.83H21.75l-7.16 6.85h45.08V9.79z" fill="#CFCFCE"/><path d="M52.58 16.39H21.75v30.83h30.83V16.39z" fill="#fff"/><path d="M37.66 31.93L37.65 69l10.44-10.86 15.05.72-25.48-26.93z" fill="#231F20"/></svg>