<svg width="301" height="366" viewBox="0 0 301 366" fill="none" xmlns="http://www.w3.org/2000/svg"><g clip-path="url(#a)"><path opacity=".5" fill-rule="evenodd" clip-rule="evenodd" d="M2 430a1 1 0 1 0-2 0 1 1 0 0 0 2 0zm-1-14a1 1 0 1 1 0 2 1 1 0 0 1 0-2zm1-12a1 1 0 1 0-2 0 1 1 0 0 0 2 0zm-1-14a1 1 0 1 1 0 2 1 1 0 0 1 0-2zm1-12a1 1 0 1 0-2 0 1 1 0 0 0 2 0zm-1-14a1 1 0 1 1 0 2 1 1 0 0 1 0-2zm1-12a1 1 0 1 0-2 0 1 1 0 0 0 2 0zm-1-14a1 1 0 1 1 0 2 1 1 0 0 1 0-2zm1-12a1 1 0 1 0-2 0 1 1 0 0 0 2 0zm-1-14a1 1 0 1 1 0 2 1 1 0 0 1 0-2zm1-12a1 1 0 1 0-2 0 1 1 0 0 0 2 0zm-1-14a1 1 0 1 1 0 2 1 1 0 0 1 0-2zm1-12a1 1 0 1 0-2 0 1 1 0 0 0 2 0zm-1-14a1 1 0 1 1 0 2 1 1 0 0 1 0-2zm1-12a1 1 0 1 0-2 0 1 1 0 0 0 2 0zm-1-14a1 1 0 1 1 0 2 1 1 0 0 1 0-2zm0-13a1 1 0 1 1 0 2 1 1 0 0 1 0-2zm13 0a1 1 0 1 1 0 2 1 1 0 0 1 0-2zm14 1a1 1 0 1 0-2 0 1 1 0 0 0 2 0zm-13 13a1 1 0 1 0-2 0 1 1 0 0 0 2 0zm12-1a1 1 0 1 1 0 2 1 1 0 0 1 0-2zm-13 13a1 1 0 1 1 0 2 1 1 0 0 1 0-2zm14 1a1 1 0 1 0-2 0 1 1 0 0 0 2 0zm-13 13a1 1 0 1 0-2 0 1 1 0 0 0 2 0zm12-1a1 1 0 1 1 0 2 1 1 0 0 1 0-2zm-13 13a1 1 0 1 1 0 2 1 1 0 0 1 0-2zm14 1a1 1 0 1 0-2 0 1 1 0 0 0 2 0zm-13 13a1 1 0 1 0-2 0 1 1 0 0 0 2 0zm12-1a1 1 0 1 1 0 2 1 1 0 0 1 0-2zm-13 13a1 1 0 1 1 0 2 1 1 0 0 1 0-2zm14 1a1 1 0 1 0-2 0 1 1 0 0 0 2 0zm-13 13a1 1 0 1 0-2 0 1 1 0 0 0 2 0zm12-1a1 1 0 1 1 0 2 1 1 0 0 1 0-2zm-13 13a1 1 0 1 1 0 2 1 1 0 0 1 0-2zm14 1a1 1 0 1 0-2 0 1 1 0 0 0 2 0zm-13 13a1 1 0 1 0-2 0 1 1 0 0 0 2 0zm12-1a1 1 0 1 1 0 2 1 1 0 0 1 0-2zm-13 13a1 1 0 1 1 0 2 1 1 0 0 1 0-2zm14 1a1 1 0 1 0-2 0 1 1 0 0 0 2 0zm-13 13a1 1 0 1 0-2 0 1 1 0 0 0 2 0zm12-1a1 1 0 1 1 0 2 1 1 0 0 1 0-2zm-13 13a1 1 0 1 1 0 2 1 1 0 0 1 0-2zm14 1a1 1 0 1 0-2 0 1 1 0 0 0 2 0zm-13 13a1 1 0 1 0-2 0 1 1 0 0 0 2 0zm12-1a1 1 0 1 1 0 2 1 1 0 0 1 0-2zm-13 13a1 1 0 1 1 0 2 1 1 0 0 1 0-2zm14 1a1 1 0 1 0-2 0 1 1 0 0 0 2 0zm-13 13a1 1 0 1 0-2 0 1 1 0 0 0 2 0zm12-1a1 1 0 1 1 0 2 1 1 0 0 1 0-2zm-13 13a1 1 0 1 1 0 2 1 1 0 0 1 0-2zm14 1a1 1 0 1 0-2 0 1 1 0 0 0 2 0zm12-209a1 1 0 1 1 0 2 1 1 0 0 1 0-2zm1 14a1 1 0 1 0-2 0 1 1 0 0 0 2 0zm-1 12a1 1 0 1 1 0 2 1 1 0 0 1 0-2zm1 14a1 1 0 1 0-2 0 1 1 0 0 0 2 0zm-1 12a1 1 0 1 1 0 2 1 1 0 0 1 0-2zm1 14a1 1 0 1 0-2 0 1 1 0 0 0 2 0zm-1 12a1 1 0 1 1 0 2 1 1 0 0 1 0-2zm1 14a1 1 0 1 0-2 0 1 1 0 0 0 2 0zm-1 12a1 1 0 1 1 0 2 1 1 0 0 1 0-2zm1 14a1 1 0 1 0-2 0 1 1 0 0 0 2 0zm-1 12a1 1 0 1 1 0 2 1 1 0 0 1 0-2zm1 14a1 1 0 1 0-2 0 1 1 0 0 0 2 0zm-1 12a1 1 0 1 1 0 2 1 1 0 0 1 0-2zm1 14a1 1 0 1 0-2 0 1 1 0 0 0 2 0zm-1 12a1 1 0 1 1 0 2 1 1 0 0 1 0-2zm1 14a1 1 0 1 0-2 0 1 1 0 0 0 2 0zm-1 12a1 1 0 1 1 0 2 1 1 0 0 1 0-2zm14 1a1 1 0 1 0-2 0 1 1 0 0 0 2 0zm-1-14a1 1 0 1 1 0 2 1 1 0 0 1 0-2zm1-12a1 1 0 1 0-2 0 1 1 0 0 0 2 0zm-1-14a1 1 0 1 1 0 2 1 1 0 0 1 0-2zm1-12a1 1 0 1 0-2 0 1 1 0 0 0 2 0zm-1-14a1 1 0 1 1 0 2 1 1 0 0 1 0-2zm1-12a1 1 0 1 0-2 0 1 1 0 0 0 2 0zm-1-14a1 1 0 1 1 0 2 1 1 0 0 1 0-2zm1-12a1 1 0 1 0-2 0 1 1 0 0 0 2 0zm-1-14a1 1 0 1 1 0 2 1 1 0 0 1 0-2zm1-12a1 1 0 1 0-2 0 1 1 0 0 0 2 0zm-1-14a1 1 0 1 1 0 2 1 1 0 0 1 0-2zm1-12a1 1 0 1 0-2 0 1 1 0 0 0 2 0zm-1-14a1 1 0 1 1 0 2 1 1 0 0 1 0-2zm1-12a1 1 0 1 0-2 0 1 1 0 0 0 2 0zm-1-14a1 1 0 1 1 0 2 1 1 0 0 1 0-2zm0-13a1 1 0 1 1 0 2 1 1 0 0 1 0-2zm13 0a1 1 0 1 1 0 2 1 1 0 0 1 0-2zm14 1a1 1 0 1 0-2 0 1 1 0 0 0 2 0zm-13 13a1 1 0 1 0-2 0 1 1 0 0 0 2 0zm12-1a1 1 0 1 1 0 2 1 1 0 0 1 0-2zm-13 13a1 1 0 1 1 0 2 1 1 0 0 1 0-2zm14 1a1 1 0 1 0-2 0 1 1 0 0 0 2 0zm-13 13a1 1 0 1 0-2 0 1 1 0 0 0 2 0zm12-1a1 1 0 1 1 0 2 1 1 0 0 1 0-2zm-13 13a1 1 0 1 1 0 2 1 1 0 0 1 0-2zm14 1a1 1 0 1 0-2 0 1 1 0 0 0 2 0zm-13 13a1 1 0 1 0-2 0 1 1 0 0 0 2 0zm12-1a1 1 0 1 1 0 2 1 1 0 0 1 0-2zm-13 13a1 1 0 1 1 0 2 1 1 0 0 1 0-2zm14 1a1 1 0 1 0-2 0 1 1 0 0 0 2 0zm-13 13a1 1 0 1 0-2 0 1 1 0 0 0 2 0zm12-1a1 1 0 1 1 0 2 1 1 0 0 1 0-2zm-13 13a1 1 0 1 1 0 2 1 1 0 0 1 0-2zm14 1a1 1 0 1 0-2 0 1 1 0 0 0 2 0zm-13 13a1 1 0 1 0-2 0 1 1 0 0 0 2 0zm12-1a1 1 0 1 1 0 2 1 1 0 0 1 0-2zm-13 13a1 1 0 1 1 0 2 1 1 0 0 1 0-2zm14 1a1 1 0 1 0-2 0 1 1 0 0 0 2 0zm-13 13a1 1 0 1 0-2 0 1 1 0 0 0 2 0zm12-1a1 1 0 1 1 0 2 1 1 0 0 1 0-2zm-13 13a1 1 0 1 1 0 2 1 1 0 0 1 0-2zm14 1a1 1 0 1 0-2 0 1 1 0 0 0 2 0zm-13 13a1 1 0 1 0-2 0 1 1 0 0 0 2 0zm12-1a1 1 0 1 1 0 2 1 1 0 0 1 0-2zm-13 13a1 1 0 1 1 0 2 1 1 0 0 1 0-2zm14 1a1 1 0 1 0-2 0 1 1 0 0 0 2 0zm-13 13a1 1 0 1 0-2 0 1 1 0 0 0 2 0zm12-1a1 1 0 1 1 0 2 1 1 0 0 1 0-2zm-13 13a1 1 0 1 1 0 2 1 1 0 0 1 0-2zm14 1a1 1 0 1 0-2 0 1 1 0 0 0 2 0zm12-209a1 1 0 1 1 0 2 1 1 0 0 1 0-2zm1 14a1 1 0 1 0-2 0 1 1 0 0 0 2 0zm-1 12a1 1 0 1 1 0 2 1 1 0 0 1 0-2zm1 14a1 1 0 1 0-2 0 1 1 0 0 0 2 0zm-1 12a1 1 0 1 1 0 2 1 1 0 0 1 0-2zm1 14a1 1 0 1 0-2 0 1 1 0 0 0 2 0zm-1 12a1 1 0 1 1 0 2 1 1 0 0 1 0-2zm1 14a1 1 0 1 0-2 0 1 1 0 0 0 2 0zm-1 12a1 1 0 1 1 0 2 1 1 0 0 1 0-2zm1 14a1 1 0 1 0-2 0 1 1 0 0 0 2 0zm-1 12a1 1 0 1 1 0 2 1 1 0 0 1 0-2zm1 14a1 1 0 1 0-2 0 1 1 0 0 0 2 0zm-1 12a1 1 0 1 1 0 2 1 1 0 0 1 0-2zm1 14a1 1 0 1 0-2 0 1 1 0 0 0 2 0zm-1 12a1 1 0 1 1 0 2 1 1 0 0 1 0-2zm1 14a1 1 0 1 0-2 0 1 1 0 0 0 2 0zm-1 12a1 1 0 1 1 0 2 1 1 0 0 1 0-2zm14 1a1 1 0 1 0-2 0 1 1 0 0 0 2 0zm-1-14a1 1 0 1 1 0 2 1 1 0 0 1 0-2zm1-12a1 1 0 1 0-2 0 1 1 0 0 0 2 0zm-1-14a1 1 0 1 1 0 2 1 1 0 0 1 0-2zm1-12a1 1 0 1 0-2 0 1 1 0 0 0 2 0zm-1-14a1 1 0 1 1 0 2 1 1 0 0 1 0-2zm1-12a1 1 0 1 0-2 0 1 1 0 0 0 2 0zm-1-14a1 1 0 1 1 0 2 1 1 0 0 1 0-2zm1-12a1 1 0 1 0-2 0 1 1 0 0 0 2 0zm-1-14a1 1 0 1 1 0 2 1 1 0 0 1 0-2zm1-12a1 1 0 1 0-2 0 1 1 0 0 0 2 0zm-1-14a1 1 0 1 1 0 2 1 1 0 0 1 0-2zm1-12a1 1 0 1 0-2 0 1 1 0 0 0 2 0zm-1-14a1 1 0 1 1 0 2 1 1 0 0 1 0-2zm1-12a1 1 0 1 0-2 0 1 1 0 0 0 2 0zm-1-14a1 1 0 1 1 0 2 1 1 0 0 1 0-2zm0-13a1 1 0 1 1 0 2 1 1 0 0 1 0-2zm13 0a1 1 0 1 1 0 2 1 1 0 0 1 0-2zm14 1a1 1 0 1 0-2 0 1 1 0 0 0 2 0zm-13 13a1 1 0 1 0-2 0 1 1 0 0 0 2 0zm12-1a1 1 0 1 1 0 2 1 1 0 0 1 0-2zm-13 13a1 1 0 1 1 0 2 1 1 0 0 1 0-2zm14 1a1 1 0 1 0-2 0 1 1 0 0 0 2 0zm-13 13a1 1 0 1 0-2 0 1 1 0 0 0 2 0zm12-1a1 1 0 1 1 0 2 1 1 0 0 1 0-2zm-13 13a1 1 0 1 1 0 2 1 1 0 0 1 0-2zm14 1a1 1 0 1 0-2 0 1 1 0 0 0 2 0zm-13 13a1 1 0 1 0-2 0 1 1 0 0 0 2 0zm12-1a1 1 0 1 1 0 2 1 1 0 0 1 0-2zm-13 13a1 1 0 1 1 0 2 1 1 0 0 1 0-2zm14 1a1 1 0 1 0-2 0 1 1 0 0 0 2 0zm-13 13a1 1 0 1 0-2 0 1 1 0 0 0 2 0zm12-1a1 1 0 1 1 0 2 1 1 0 0 1 0-2zm-13 13a1 1 0 1 1 0 2 1 1 0 0 1 0-2zm14 1a1 1 0 1 0-2 0 1 1 0 0 0 2 0zm-13 13a1 1 0 1 0-2 0 1 1 0 0 0 2 0zm12-1a1 1 0 1 1 0 2 1 1 0 0 1 0-2zm-13 13a1 1 0 1 1 0 2 1 1 0 0 1 0-2zm14 1a1 1 0 1 0-2 0 1 1 0 0 0 2 0zm-13 13a1 1 0 1 0-2 0 1 1 0 0 0 2 0zm12-1a1 1 0 1 1 0 2 1 1 0 0 1 0-2zm-13 13a1 1 0 1 1 0 2 1 1 0 0 1 0-2zm14 1a1 1 0 1 0-2 0 1 1 0 0 0 2 0zm-13 13a1 1 0 1 0-2 0 1 1 0 0 0 2 0zm12-1a1 1 0 1 1 0 2 1 1 0 0 1 0-2zm-13 13a1 1 0 1 1 0 2 1 1 0 0 1 0-2zm14 1a1 1 0 1 0-2 0 1 1 0 0 0 2 0zm-13 13a1 1 0 1 0-2 0 1 1 0 0 0 2 0zm12-1a1 1 0 1 1 0 2 1 1 0 0 1 0-2zm-13 13a1 1 0 1 1 0 2 1 1 0 0 1 0-2zm14 1a1 1 0 1 0-2 0 1 1 0 0 0 2 0zm12-209a1 1 0 1 1 0 2 1 1 0 0 1 0-2zm1 14a1 1 0 1 0-2 0 1 1 0 0 0 2 0zm-1 12a1 1 0 1 1 0 2 1 1 0 0 1 0-2zm1 14a1 1 0 1 0-2 0 1 1 0 0 0 2 0zm-1 12a1 1 0 1 1 0 2 1 1 0 0 1 0-2zm1 14a1 1 0 1 0-2 0 1 1 0 0 0 2 0zm-1 12a1 1 0 1 1 0 2 1 1 0 0 1 0-2zm1 14a1 1 0 1 0-2 0 1 1 0 0 0 2 0zm-1 12a1 1 0 1 1 0 2 1 1 0 0 1 0-2zm1 14a1 1 0 1 0-2 0 1 1 0 0 0 2 0zm-1 12a1 1 0 1 1 0 2 1 1 0 0 1 0-2zm1 14a1 1 0 1 0-2 0 1 1 0 0 0 2 0zm-1 12a1 1 0 1 1 0 2 1 1 0 0 1 0-2zm1 14a1 1 0 1 0-2 0 1 1 0 0 0 2 0zm-1 12a1 1 0 1 1 0 2 1 1 0 0 1 0-2zm1 14a1 1 0 1 0-2 0 1 1 0 0 0 2 0zm-1 12a1 1 0 1 1 0 2 1 1 0 0 1 0-2zm14 1a1 1 0 1 0-2 0 1 1 0 0 0 2 0zm-1-14a1 1 0 1 1 0 2 1 1 0 0 1 0-2zm1-12a1 1 0 1 0-2 0 1 1 0 0 0 2 0zm-1-14a1 1 0 1 1 0 2 1 1 0 0 1 0-2zm1-12a1 1 0 1 0-2 0 1 1 0 0 0 2 0zm-1-14a1 1 0 1 1 0 2 1 1 0 0 1 0-2zm1-12a1 1 0 1 0-2 0 1 1 0 0 0 2 0zm-1-14a1 1 0 1 1 0 2 1 1 0 0 1 0-2zm1-12a1 1 0 1 0-2 0 1 1 0 0 0 2 0zm-1-14a1 1 0 1 1 0 2 1 1 0 0 1 0-2zm1-12a1 1 0 1 0-2 0 1 1 0 0 0 2 0zm-1-14a1 1 0 1 1 0 2 1 1 0 0 1 0-2zm1-12a1 1 0 1 0-2 0 1 1 0 0 0 2 0zm-1-14a1 1 0 1 1 0 2 1 1 0 0 1 0-2zm1-12a1 1 0 1 0-2 0 1 1 0 0 0 2 0zm-1-14a1 1 0 1 1 0 2 1 1 0 0 1 0-2zm0-13a1 1 0 1 1 0 2 1 1 0 0 1 0-2zm13 0a1 1 0 1 1 0 2 1 1 0 0 1 0-2zm14 1a1 1 0 1 0-2 0 1 1 0 0 0 2 0zm-13 13a1 1 0 1 0-2 0 1 1 0 0 0 2 0zm12-1a1 1 0 1 1 0 2 1 1 0 0 1 0-2zm-13 13a1 1 0 1 1 0 2 1 1 0 0 1 0-2zm14 1a1 1 0 1 0-2 0 1 1 0 0 0 2 0zm-13 13a1 1 0 1 0-2 0 1 1 0 0 0 2 0zm12-1a1 1 0 1 1 0 2 1 1 0 0 1 0-2zm-13 13a1 1 0 1 1 0 2 1 1 0 0 1 0-2zm14 1a1 1 0 1 0-2 0 1 1 0 0 0 2 0zm-13 13a1 1 0 1 0-2 0 1 1 0 0 0 2 0zm12-1a1 1 0 1 1 0 2 1 1 0 0 1 0-2zm-13 13a1 1 0 1 1 0 2 1 1 0 0 1 0-2zm14 1a1 1 0 1 0-2 0 1 1 0 0 0 2 0zm-13 13a1 1 0 1 0-2 0 1 1 0 0 0 2 0zm12-1a1 1 0 1 1 0 2 1 1 0 0 1 0-2zm-13 13a1 1 0 1 1 0 2 1 1 0 0 1 0-2zm14 1a1 1 0 1 0-2 0 1 1 0 0 0 2 0zm-13 13a1 1 0 1 0-2 0 1 1 0 0 0 2 0zm12-1a1 1 0 1 1 0 2 1 1 0 0 1 0-2zm-13 13a1 1 0 1 1 0 2 1 1 0 0 1 0-2zm14 1a1 1 0 1 0-2 0 1 1 0 0 0 2 0zm-13 13a1 1 0 1 0-2 0 1 1 0 0 0 2 0zm12-1a1 1 0 1 1 0 2 1 1 0 0 1 0-2zm-13 13a1 1 0 1 1 0 2 1 1 0 0 1 0-2zm14 1a1 1 0 1 0-2 0 1 1 0 0 0 2 0zm-13 13a1 1 0 1 0-2 0 1 1 0 0 0 2 0zm12-1a1 1 0 1 1 0 2 1 1 0 0 1 0-2zm-13 13a1 1 0 1 1 0 2 1 1 0 0 1 0-2zm14 1a1 1 0 1 0-2 0 1 1 0 0 0 2 0zm-13 13a1 1 0 1 0-2 0 1 1 0 0 0 2 0zm12-1a1 1 0 1 1 0 2 1 1 0 0 1 0-2zm-13 13a1 1 0 1 1 0 2 1 1 0 0 1 0-2zm14 1a1 1 0 1 0-2 0 1 1 0 0 0 2 0zm12-209a1 1 0 1 1 0 2 1 1 0 0 1 0-2zm1 14a1 1 0 1 0-2 0 1 1 0 0 0 2 0zm-1 12a1 1 0 1 1 0 2 1 1 0 0 1 0-2zm1 14a1 1 0 1 0-2 0 1 1 0 0 0 2 0zm-1 12a1 1 0 1 1 0 2 1 1 0 0 1 0-2zm1 14a1 1 0 1 0-2 0 1 1 0 0 0 2 0zm-1 12a1 1 0 1 1 0 2 1 1 0 0 1 0-2zm1 14a1 1 0 1 0-2 0 1 1 0 0 0 2 0zm-1 12a1 1 0 1 1 0 2 1 1 0 0 1 0-2zm1 14a1 1 0 1 0-2 0 1 1 0 0 0 2 0zm-1 12a1 1 0 1 1 0 2 1 1 0 0 1 0-2zm1 14a1 1 0 1 0-2 0 1 1 0 0 0 2 0zm-1 12a1 1 0 1 1 0 2 1 1 0 0 1 0-2zm1 14a1 1 0 1 0-2 0 1 1 0 0 0 2 0zm-1 12a1 1 0 1 1 0 2 1 1 0 0 1 0-2zm1 14a1 1 0 1 0-2 0 1 1 0 0 0 2 0zm-1 12a1 1 0 1 1 0 2 1 1 0 0 1 0-2zm-91-221a1 1 0 1 1 0 2 1 1 0 0 1 0-2zm1-12a1 1 0 1 0-2 0 1 1 0 0 0 2 0zm-1-14a1 1 0 1 1 0 2 1 1 0 0 1 0-2zm1-12a1 1 0 1 0-2 0 1 1 0 0 0 2 0zm-1-14a1 1 0 1 1 0 2 1 1 0 0 1 0-2zm1-12a1 1 0 1 0-2 0 1 1 0 0 0 2 0zm-1-14a1 1 0 1 1 0 2 1 1 0 0 1 0-2zm1-12a1 1 0 1 0-2 0 1 1 0 0 0 2 0zm-1-14a1 1 0 1 1 0 2 1 1 0 0 1 0-2zm1-12a1 1 0 1 0-2 0 1 1 0 0 0 2 0zm-1-14a1 1 0 1 1 0 2 1 1 0 0 1 0-2zm1-12a1 1 0 1 0-2 0 1 1 0 0 0 2 0zm-1-14a1 1 0 1 1 0 2 1 1 0 0 1 0-2zm1-12a1 1 0 1 0-2 0 1 1 0 0 0 2 0zm-1-14a1 1 0 1 1 0 2 1 1 0 0 1 0-2zm1-12a1 1 0 1 0-2 0 1 1 0 0 0 2 0zm0-13a1 1 0 1 0-2 0 1 1 0 0 0 2 0zm13 0a1 1 0 1 0-2 0 1 1 0 0 0 2 0zm12-1a1 1 0 1 1 0 2 1 1 0 0 1 0-2zm-13 13a1 1 0 1 1 0 2 1 1 0 0 1 0-2zm14 1a1 1 0 1 0-2 0 1 1 0 0 0 2 0zm-13 13a1 1 0 1 0-2 0 1 1 0 0 0 2 0zm12-1a1 1 0 1 1 0 2 1 1 0 0 1 0-2zm-13 13a1 1 0 1 1 0 2 1 1 0 0 1 0-2zm14 1a1 1 0 1 0-2 0 1 1 0 0 0 2 0zm-13 13a1 1 0 1 0-2 0 1 1 0 0 0 2 0zm12-1a1 1 0 1 1 0 2 1 1 0 0 1 0-2zm-13 13a1 1 0 1 1 0 2 1 1 0 0 1 0-2zm14 1a1 1 0 1 0-2 0 1 1 0 0 0 2 0zm-13 13a1 1 0 1 0-2 0 1 1 0 0 0 2 0zm12-1a1 1 0 1 1 0 2 1 1 0 0 1 0-2zm-13 13a1 1 0 1 1 0 2 1 1 0 0 1 0-2zm14 1a1 1 0 1 0-2 0 1 1 0 0 0 2 0zm-13 13a1 1 0 1 0-2 0 1 1 0 0 0 2 0zm12-1a1 1 0 1 1 0 2 1 1 0 0 1 0-2zm-13 13a1 1 0 1 1 0 2 1 1 0 0 1 0-2zm14 1a1 1 0 1 0-2 0 1 1 0 0 0 2 0zm-13 13a1 1 0 1 0-2 0 1 1 0 0 0 2 0zm12-1a1 1 0 1 1 0 2 1 1 0 0 1 0-2zm-13 13a1 1 0 1 1 0 2 1 1 0 0 1 0-2zm14 1a1 1 0 1 0-2 0 1 1 0 0 0 2 0zm-13 13a1 1 0 1 0-2 0 1 1 0 0 0 2 0zm12-1a1 1 0 1 1 0 2 1 1 0 0 1 0-2zm-13 13a1 1 0 1 1 0 2 1 1 0 0 1 0-2zm14 1a1 1 0 1 0-2 0 1 1 0 0 0 2 0zm-13 13a1 1 0 1 0-2 0 1 1 0 0 0 2 0zm12-1a1 1 0 1 1 0 2 1 1 0 0 1 0-2zm-13 13a1 1 0 1 1 0 2 1 1 0 0 1 0-2zm14 1a1 1 0 1 0-2 0 1 1 0 0 0 2 0zm-13 13a1 1 0 1 0-2 0 1 1 0 0 0 2 0zm12-1a1 1 0 1 1 0 2 1 1 0 0 1 0-2zM145 1a1 1 0 1 0-2 0 1 1 0 0 0 2 0zm-1 12a1 1 0 1 1 0 2 1 1 0 0 1 0-2zm1 14a1 1 0 1 0-2 0 1 1 0 0 0 2 0zm-1 12a1 1 0 1 1 0 2 1 1 0 0 1 0-2zm1 14a1 1 0 1 0-2 0 1 1 0 0 0 2 0zm-1 12a1 1 0 1 1 0 2 1 1 0 0 1 0-2zm1 14a1 1 0 1 0-2 0 1 1 0 0 0 2 0zm-1 12a1 1 0 1 1 0 2 1 1 0 0 1 0-2zm1 14a1 1 0 1 0-2 0 1 1 0 0 0 2 0zm-1 12a1 1 0 1 1 0 2 1 1 0 0 1 0-2zm1 14a1 1 0 1 0-2 0 1 1 0 0 0 2 0zm-1 12a1 1 0 1 1 0 2 1 1 0 0 1 0-2zm1 14a1 1 0 1 0-2 0 1 1 0 0 0 2 0zm-1 12a1 1 0 1 1 0 2 1 1 0 0 1 0-2zm1 14a1 1 0 1 0-2 0 1 1 0 0 0 2 0zm-1 12a1 1 0 1 1 0 2 1 1 0 0 1 0-2zm1 14a1 1 0 1 0-2 0 1 1 0 0 0 2 0zm12-1a1 1 0 1 1 0 2 1 1 0 0 1 0-2zm1-12a1 1 0 1 0-2 0 1 1 0 0 0 2 0zm-1-14a1 1 0 1 1 0 2 1 1 0 0 1 0-2zm1-12a1 1 0 1 0-2 0 1 1 0 0 0 2 0zm-1-14a1 1 0 1 1 0 2 1 1 0 0 1 0-2zm1-12a1 1 0 1 0-2 0 1 1 0 0 0 2 0zm-1-14a1 1 0 1 1 0 2 1 1 0 0 1 0-2zm1-12a1 1 0 1 0-2 0 1 1 0 0 0 2 0zm-1-14a1 1 0 1 1 0 2 1 1 0 0 1 0-2zm1-12a1 1 0 1 0-2 0 1 1 0 0 0 2 0zm-1-14a1 1 0 1 1 0 2 1 1 0 0 1 0-2zm1-12a1 1 0 1 0-2 0 1 1 0 0 0 2 0zm-1-14a1 1 0 1 1 0 2 1 1 0 0 1 0-2zm1-12a1 1 0 1 0-2 0 1 1 0 0 0 2 0zm-1-14a1 1 0 1 1 0 2 1 1 0 0 1 0-2zm1-12a1 1 0 1 0-2 0 1 1 0 0 0 2 0zm0-13a1 1 0 1 0-2 0 1 1 0 0 0 2 0zm13 0a1 1 0 1 0-2 0 1 1 0 0 0 2 0zm12-1a1 1 0 1 1 0 2 1 1 0 0 1 0-2zm-13 13a1 1 0 1 1 0 2 1 1 0 0 1 0-2zm14 1a1 1 0 1 0-2 0 1 1 0 0 0 2 0zm-13 13a1 1 0 1 0-2 0 1 1 0 0 0 2 0zm12-1a1 1 0 1 1 0 2 1 1 0 0 1 0-2zm-13 13a1 1 0 1 1 0 2 1 1 0 0 1 0-2zm14 1a1 1 0 1 0-2 0 1 1 0 0 0 2 0zm-13 13a1 1 0 1 0-2 0 1 1 0 0 0 2 0zm12-1a1 1 0 1 1 0 2 1 1 0 0 1 0-2zm-13 13a1 1 0 1 1 0 2 1 1 0 0 1 0-2zm14 1a1 1 0 1 0-2 0 1 1 0 0 0 2 0zm-13 13a1 1 0 1 0-2 0 1 1 0 0 0 2 0zm12-1a1 1 0 1 1 0 2 1 1 0 0 1 0-2zm-13 13a1 1 0 1 1 0 2 1 1 0 0 1 0-2zm14 1a1 1 0 1 0-2 0 1 1 0 0 0 2 0zm-13 13a1 1 0 1 0-2 0 1 1 0 0 0 2 0zm12-1a1 1 0 1 1 0 2 1 1 0 0 1 0-2zm-13 13a1 1 0 1 1 0 2 1 1 0 0 1 0-2zm14 1a1 1 0 1 0-2 0 1 1 0 0 0 2 0zm-13 13a1 1 0 1 0-2 0 1 1 0 0 0 2 0zm12-1a1 1 0 1 1 0 2 1 1 0 0 1 0-2zm-13 13a1 1 0 1 1 0 2 1 1 0 0 1 0-2zm14 1a1 1 0 1 0-2 0 1 1 0 0 0 2 0zm-13 13a1 1 0 1 0-2 0 1 1 0 0 0 2 0zm12-1a1 1 0 1 1 0 2 1 1 0 0 1 0-2zm-13 13a1 1 0 1 1 0 2 1 1 0 0 1 0-2zm14 1a1 1 0 1 0-2 0 1 1 0 0 0 2 0zm-13 13a1 1 0 1 0-2 0 1 1 0 0 0 2 0zm12-1a1 1 0 1 1 0 2 1 1 0 0 1 0-2zm-13 13a1 1 0 1 1 0 2 1 1 0 0 1 0-2zm14 1a1 1 0 1 0-2 0 1 1 0 0 0 2 0zm-13 13a1 1 0 1 0-2 0 1 1 0 0 0 2 0zm12-1a1 1 0 1 1 0 2 1 1 0 0 1 0-2zM197 1a1 1 0 1 0-2 0 1 1 0 0 0 2 0zm-1 12a1 1 0 1 1 0 2 1 1 0 0 1 0-2zm1 14a1 1 0 1 0-2 0 1 1 0 0 0 2 0zm-1 12a1 1 0 1 1 0 2 1 1 0 0 1 0-2zm1 14a1 1 0 1 0-2 0 1 1 0 0 0 2 0zm-1 12a1 1 0 1 1 0 2 1 1 0 0 1 0-2zm1 14a1 1 0 1 0-2 0 1 1 0 0 0 2 0zm-1 12a1 1 0 1 1 0 2 1 1 0 0 1 0-2zm1 14a1 1 0 1 0-2 0 1 1 0 0 0 2 0zm-1 12a1 1 0 1 1 0 2 1 1 0 0 1 0-2zm1 14a1 1 0 1 0-2 0 1 1 0 0 0 2 0zm-1 12a1 1 0 1 1 0 2 1 1 0 0 1 0-2zm1 14a1 1 0 1 0-2 0 1 1 0 0 0 2 0zm-1 12a1 1 0 1 1 0 2 1 1 0 0 1 0-2zm1 14a1 1 0 1 0-2 0 1 1 0 0 0 2 0zm-1 12a1 1 0 1 1 0 2 1 1 0 0 1 0-2zm1 14a1 1 0 1 0-2 0 1 1 0 0 0 2 0zM2 209a1 1 0 1 0-2 0 1 1 0 0 0 2 0zm-1-14a1 1 0 1 1 0 2 1 1 0 0 1 0-2zm1-12a1 1 0 1 0-2 0 1 1 0 0 0 2 0zm-1-14a1 1 0 1 1 0 2 1 1 0 0 1 0-2zm1-12a1 1 0 1 0-2 0 1 1 0 0 0 2 0zm-1-14a1 1 0 1 1 0 2 1 1 0 0 1 0-2zm1-12a1 1 0 1 0-2 0 1 1 0 0 0 2 0zm-1-14a1 1 0 1 1 0 2 1 1 0 0 1 0-2zm1-12a1 1 0 1 0-2 0 1 1 0 0 0 2 0zM1 91a1 1 0 1 1 0 2 1 1 0 0 1 0-2zm1-12a1 1 0 1 0-2 0 1 1 0 0 0 2 0zM1 65a1 1 0 1 1 0 2 1 1 0 0 1 0-2zm1-12a1 1 0 1 0-2 0 1 1 0 0 0 2 0zM1 39a1 1 0 1 1 0 2 1 1 0 0 1 0-2zm1-12a1 1 0 1 0-2 0 1 1 0 0 0 2 0zM1 13a1 1 0 1 1 0 2 1 1 0 0 1 0-2zM1 0a1 1 0 1 1 0 2 1 1 0 0 1 0-2zm13 0a1 1 0 1 1 0 2 1 1 0 0 1 0-2zm14 1a1 1 0 1 0-2 0 1 1 0 0 0 2 0zM15 14a1 1 0 1 0-2 0 1 1 0 0 0 2 0zm12-1a1 1 0 1 1 0 2 1 1 0 0 1 0-2zM14 26a1 1 0 1 1 0 2 1 1 0 0 1 0-2zm14 1a1 1 0 1 0-2 0 1 1 0 0 0 2 0zM15 40a1 1 0 1 0-2 0 1 1 0 0 0 2 0zm12-1a1 1 0 1 1 0 2 1 1 0 0 1 0-2zM14 52a1 1 0 1 1 0 2 1 1 0 0 1 0-2zm14 1a1 1 0 1 0-2 0 1 1 0 0 0 2 0zM15 66a1 1 0 1 0-2 0 1 1 0 0 0 2 0zm12-1a1 1 0 1 1 0 2 1 1 0 0 1 0-2zM14 78a1 1 0 1 1 0 2 1 1 0 0 1 0-2zm14 1a1 1 0 1 0-2 0 1 1 0 0 0 2 0zM15 92a1 1 0 1 0-2 0 1 1 0 0 0 2 0zm12-1a1 1 0 1 1 0 2 1 1 0 0 1 0-2zm-13 13a1 1 0 1 1 0 2 1 1 0 0 1 0-2zm14 1a1 1 0 1 0-2 0 1 1 0 0 0 2 0zm-13 13a1 1 0 1 0-2 0 1 1 0 0 0 2 0zm12-1a1 1 0 1 1 0 2 1 1 0 0 1 0-2zm-13 13a1 1 0 1 1 0 2 1 1 0 0 1 0-2zm14 1a1 1 0 1 0-2 0 1 1 0 0 0 2 0zm-13 13a1 1 0 1 0-2 0 1 1 0 0 0 2 0zm12-1a1 1 0 1 1 0 2 1 1 0 0 1 0-2zm-13 13a1 1 0 1 1 0 2 1 1 0 0 1 0-2zm14 1a1 1 0 1 0-2 0 1 1 0 0 0 2 0zm-13 13a1 1 0 1 0-2 0 1 1 0 0 0 2 0zm12-1a1 1 0 1 1 0 2 1 1 0 0 1 0-2zm-13 13a1 1 0 1 1 0 2 1 1 0 0 1 0-2zm14 1a1 1 0 1 0-2 0 1 1 0 0 0 2 0zm-13 13a1 1 0 1 0-2 0 1 1 0 0 0 2 0zm12-1a1 1 0 1 1 0 2 1 1 0 0 1 0-2zm-13 13a1 1 0 1 1 0 2 1 1 0 0 1 0-2zm14 1a1 1 0 1 0-2 0 1 1 0 0 0 2 0zM40 0a1 1 0 1 1 0 2 1 1 0 0 1 0-2zm1 14a1 1 0 1 0-2 0 1 1 0 0 0 2 0zm-1 12a1 1 0 1 1 0 2 1 1 0 0 1 0-2zm1 14a1 1 0 1 0-2 0 1 1 0 0 0 2 0zm-1 12a1 1 0 1 1 0 2 1 1 0 0 1 0-2zm1 14a1 1 0 1 0-2 0 1 1 0 0 0 2 0zm-1 12a1 1 0 1 1 0 2 1 1 0 0 1 0-2zm1 14a1 1 0 1 0-2 0 1 1 0 0 0 2 0zm-1 12a1 1 0 1 1 0 2 1 1 0 0 1 0-2zm1 14a1 1 0 1 0-2 0 1 1 0 0 0 2 0zm-1 12a1 1 0 1 1 0 2 1 1 0 0 1 0-2zm1 14a1 1 0 1 0-2 0 1 1 0 0 0 2 0zm-1 12a1 1 0 1 1 0 2 1 1 0 0 1 0-2zm1 14a1 1 0 1 0-2 0 1 1 0 0 0 2 0zm-1 12a1 1 0 1 1 0 2 1 1 0 0 1 0-2zm1 14a1 1 0 1 0-2 0 1 1 0 0 0 2 0zm-1 12a1 1 0 1 1 0 2 1 1 0 0 1 0-2zm14 1a1 1 0 1 0-2 0 1 1 0 0 0 2 0zm-1-14a1 1 0 1 1 0 2 1 1 0 0 1 0-2zm1-12a1 1 0 1 0-2 0 1 1 0 0 0 2 0zm-1-14a1 1 0 1 1 0 2 1 1 0 0 1 0-2zm1-12a1 1 0 1 0-2 0 1 1 0 0 0 2 0zm-1-14a1 1 0 1 1 0 2 1 1 0 0 1 0-2zm1-12a1 1 0 1 0-2 0 1 1 0 0 0 2 0zm-1-14a1 1 0 1 1 0 2 1 1 0 0 1 0-2zm1-12a1 1 0 1 0-2 0 1 1 0 0 0 2 0zm-1-14a1 1 0 1 1 0 2 1 1 0 0 1 0-2zm1-12a1 1 0 1 0-2 0 1 1 0 0 0 2 0zm-1-14a1 1 0 1 1 0 2 1 1 0 0 1 0-2zm1-12a1 1 0 1 0-2 0 1 1 0 0 0 2 0zm-1-14a1 1 0 1 1 0 2 1 1 0 0 1 0-2zm1-12a1 1 0 1 0-2 0 1 1 0 0 0 2 0zm-1-14a1 1 0 1 1 0 2 1 1 0 0 1 0-2zm0-13a1 1 0 1 1 0 2 1 1 0 0 1 0-2zm13 0a1 1 0 1 1 0 2 1 1 0 0 1 0-2zm14 1a1 1 0 1 0-2 0 1 1 0 0 0 2 0zM67 14a1 1 0 1 0-2 0 1 1 0 0 0 2 0zm12-1a1 1 0 1 1 0 2 1 1 0 0 1 0-2zM66 26a1 1 0 1 1 0 2 1 1 0 0 1 0-2zm14 1a1 1 0 1 0-2 0 1 1 0 0 0 2 0zM67 40a1 1 0 1 0-2 0 1 1 0 0 0 2 0zm12-1a1 1 0 1 1 0 2 1 1 0 0 1 0-2zM66 52a1 1 0 1 1 0 2 1 1 0 0 1 0-2zm14 1a1 1 0 1 0-2 0 1 1 0 0 0 2 0zM67 66a1 1 0 1 0-2 0 1 1 0 0 0 2 0zm12-1a1 1 0 1 1 0 2 1 1 0 0 1 0-2zM66 78a1 1 0 1 1 0 2 1 1 0 0 1 0-2zm14 1a1 1 0 1 0-2 0 1 1 0 0 0 2 0zM67 92a1 1 0 1 0-2 0 1 1 0 0 0 2 0zm12-1a1 1 0 1 1 0 2 1 1 0 0 1 0-2zm-13 13a1 1 0 1 1 0 2 1 1 0 0 1 0-2zm14 1a1 1 0 1 0-2 0 1 1 0 0 0 2 0zm-13 13a1 1 0 1 0-2 0 1 1 0 0 0 2 0zm12-1a1 1 0 1 1 0 2 1 1 0 0 1 0-2zm-13 13a1 1 0 1 1 0 2 1 1 0 0 1 0-2zm14 1a1 1 0 1 0-2 0 1 1 0 0 0 2 0zm-13 13a1 1 0 1 0-2 0 1 1 0 0 0 2 0zm12-1a1 1 0 1 1 0 2 1 1 0 0 1 0-2zm-13 13a1 1 0 1 1 0 2 1 1 0 0 1 0-2zm14 1a1 1 0 1 0-2 0 1 1 0 0 0 2 0zm-13 13a1 1 0 1 0-2 0 1 1 0 0 0 2 0zm12-1a1 1 0 1 1 0 2 1 1 0 0 1 0-2zm-13 13a1 1 0 1 1 0 2 1 1 0 0 1 0-2zm14 1a1 1 0 1 0-2 0 1 1 0 0 0 2 0zm-13 13a1 1 0 1 0-2 0 1 1 0 0 0 2 0zm12-1a1 1 0 1 1 0 2 1 1 0 0 1 0-2zm-13 13a1 1 0 1 1 0 2 1 1 0 0 1 0-2zm14 1a1 1 0 1 0-2 0 1 1 0 0 0 2 0zM92 0a1 1 0 1 1 0 2 1 1 0 0 1 0-2zm1 14a1 1 0 1 0-2 0 1 1 0 0 0 2 0zm-1 12a1 1 0 1 1 0 2 1 1 0 0 1 0-2zm1 14a1 1 0 1 0-2 0 1 1 0 0 0 2 0zm-1 12a1 1 0 1 1 0 2 1 1 0 0 1 0-2zm1 14a1 1 0 1 0-2 0 1 1 0 0 0 2 0zm-1 12a1 1 0 1 1 0 2 1 1 0 0 1 0-2zm1 14a1 1 0 1 0-2 0 1 1 0 0 0 2 0zm-1 12a1 1 0 1 1 0 2 1 1 0 0 1 0-2zm1 14a1 1 0 1 0-2 0 1 1 0 0 0 2 0zm-1 12a1 1 0 1 1 0 2 1 1 0 0 1 0-2zm1 14a1 1 0 1 0-2 0 1 1 0 0 0 2 0zm-1 12a1 1 0 1 1 0 2 1 1 0 0 1 0-2zm1 14a1 1 0 1 0-2 0 1 1 0 0 0 2 0zm-1 12a1 1 0 1 1 0 2 1 1 0 0 1 0-2zm1 14a1 1 0 1 0-2 0 1 1 0 0 0 2 0zm-1 12a1 1 0 1 1 0 2 1 1 0 0 1 0-2zm13 351a1 1 0 1 1 0 2 1 1 0 0 1 0-2zm1-12a1 1 0 1 0-2 0 1 1 0 0 0 2 0zm-1-14a1 1 0 1 1 0 2 1 1 0 0 1 0-2zm1-12a1 1 0 1 0-2 0 1 1 0 0 0 2 0zm-1-14a1 1 0 1 1 0 2 1 1 0 0 1 0-2zm1-12a1 1 0 1 0-2 0 1 1 0 0 0 2 0zm-1-14a1 1 0 1 1 0 2 1 1 0 0 1 0-2zm1-12a1 1 0 1 0-2 0 1 1 0 0 0 2 0zm-1-14a1 1 0 1 1 0 2 1 1 0 0 1 0-2zm1-12a1 1 0 1 0-2 0 1 1 0 0 0 2 0zm12-1a1 1 0 1 1 0 2 1 1 0 0 1 0-2zm14 1a1 1 0 1 0-2 0 1 1 0 0 0 2 0zm-13 13a1 1 0 1 0-2 0 1 1 0 0 0 2 0zm12-1a1 1 0 1 1 0 2 1 1 0 0 1 0-2zm-13 13a1 1 0 1 1 0 2 1 1 0 0 1 0-2zm14 1a1 1 0 1 0-2 0 1 1 0 0 0 2 0zm-13 13a1 1 0 1 0-2 0 1 1 0 0 0 2 0zm12-1a1 1 0 1 1 0 2 1 1 0 0 1 0-2zm-13 13a1 1 0 1 1 0 2 1 1 0 0 1 0-2zm14 1a1 1 0 1 0-2 0 1 1 0 0 0 2 0zm-13 13a1 1 0 1 0-2 0 1 1 0 0 0 2 0zm12-1a1 1 0 1 1 0 2 1 1 0 0 1 0-2zm-13 13a1 1 0 1 1 0 2 1 1 0 0 1 0-2zm14 1a1 1 0 1 0-2 0 1 1 0 0 0 2 0zm-13 13a1 1 0 1 0-2 0 1 1 0 0 0 2 0zm12-1a1 1 0 1 1 0 2 1 1 0 0 1 0-2zm-13 13a1 1 0 1 1 0 2 1 1 0 0 1 0-2zm14 1a1 1 0 1 0-2 0 1 1 0 0 0 2 0zm-13 13a1 1 0 1 0-2 0 1 1 0 0 0 2 0zm12-1a1 1 0 1 1 0 2 1 1 0 0 1 0-2zm13-117a1 1 0 1 1 0 2 1 1 0 0 1 0-2zm1 14a1 1 0 1 0-2 0 1 1 0 0 0 2 0zm-1 12a1 1 0 1 1 0 2 1 1 0 0 1 0-2zm1 14a1 1 0 1 0-2 0 1 1 0 0 0 2 0zm-1 12a1 1 0 1 1 0 2 1 1 0 0 1 0-2zm1 14a1 1 0 1 0-2 0 1 1 0 0 0 2 0zm-1 12a1 1 0 1 1 0 2 1 1 0 0 1 0-2zm1 14a1 1 0 1 0-2 0 1 1 0 0 0 2 0zm-1 12a1 1 0 1 1 0 2 1 1 0 0 1 0-2zm1 14a1 1 0 1 0-2 0 1 1 0 0 0 2 0zm12-1a1 1 0 1 1 0 2 1 1 0 0 1 0-2zm1-12a1 1 0 1 0-2 0 1 1 0 0 0 2 0zm-1-14a1 1 0 1 1 0 2 1 1 0 0 1 0-2zm1-12a1 1 0 1 0-2 0 1 1 0 0 0 2 0zm-1-14a1 1 0 1 1 0 2 1 1 0 0 1 0-2zm1-12a1 1 0 1 0-2 0 1 1 0 0 0 2 0zm-1-14a1 1 0 1 1 0 2 1 1 0 0 1 0-2zm1-12a1 1 0 1 0-2 0 1 1 0 0 0 2 0zm-1-14a1 1 0 1 1 0 2 1 1 0 0 1 0-2zm1-12a1 1 0 1 0-2 0 1 1 0 0 0 2 0zm12-1a1 1 0 1 1 0 2 1 1 0 0 1 0-2zm14 1a1 1 0 1 0-2 0 1 1 0 0 0 2 0zm-13 13a1 1 0 1 0-2 0 1 1 0 0 0 2 0zm12-1a1 1 0 1 1 0 2 1 1 0 0 1 0-2zm-13 13a1 1 0 1 1 0 2 1 1 0 0 1 0-2zm14 1a1 1 0 1 0-2 0 1 1 0 0 0 2 0zm-13 13a1 1 0 1 0-2 0 1 1 0 0 0 2 0zm12-1a1 1 0 1 1 0 2 1 1 0 0 1 0-2zm-13 13a1 1 0 1 1 0 2 1 1 0 0 1 0-2zm14 1a1 1 0 1 0-2 0 1 1 0 0 0 2 0zm-13 13a1 1 0 1 0-2 0 1 1 0 0 0 2 0zm12-1a1 1 0 1 1 0 2 1 1 0 0 1 0-2zm-13 13a1 1 0 1 1 0 2 1 1 0 0 1 0-2zm14 1a1 1 0 1 0-2 0 1 1 0 0 0 2 0zm-13 13a1 1 0 1 0-2 0 1 1 0 0 0 2 0zm12-1a1 1 0 1 1 0 2 1 1 0 0 1 0-2zm-13 13a1 1 0 1 1 0 2 1 1 0 0 1 0-2zm14 1a1 1 0 1 0-2 0 1 1 0 0 0 2 0zm-13 13a1 1 0 1 0-2 0 1 1 0 0 0 2 0zm12-1a1 1 0 1 1 0 2 1 1 0 0 1 0-2zm13-117a1 1 0 1 1 0 2 1 1 0 0 1 0-2zm1 14a1 1 0 1 0-2 0 1 1 0 0 0 2 0zm-1 12a1 1 0 1 1 0 2 1 1 0 0 1 0-2zm1 14a1 1 0 1 0-2 0 1 1 0 0 0 2 0zm-1 12a1 1 0 1 1 0 2 1 1 0 0 1 0-2zm1 14a1 1 0 1 0-2 0 1 1 0 0 0 2 0zm-1 12a1 1 0 1 1 0 2 1 1 0 0 1 0-2zm1 14a1 1 0 1 0-2 0 1 1 0 0 0 2 0zm-1 12a1 1 0 1 1 0 2 1 1 0 0 1 0-2zm1 14a1 1 0 1 0-2 0 1 1 0 0 0 2 0zM2 560a1 1 0 1 0-2 0 1 1 0 0 0 2 0zm-1-14a1 1 0 1 1 0 2 1 1 0 0 1 0-2zm1-12a1 1 0 1 0-2 0 1 1 0 0 0 2 0zm-1-14a1 1 0 1 1 0 2 1 1 0 0 1 0-2zm1-12a1 1 0 1 0-2 0 1 1 0 0 0 2 0zm-1-14a1 1 0 1 1 0 2 1 1 0 0 1 0-2zm1-12a1 1 0 1 0-2 0 1 1 0 0 0 2 0zm-1-14a1 1 0 1 1 0 2 1 1 0 0 1 0-2zm1-12a1 1 0 1 0-2 0 1 1 0 0 0 2 0zm-1-14a1 1 0 1 1 0 2 1 1 0 0 1 0-2zm14 1a1 1 0 1 0-2 0 1 1 0 0 0 2 0zm12-1a1 1 0 1 1 0 2 1 1 0 0 1 0-2zm-13 13a1 1 0 1 1 0 2 1 1 0 0 1 0-2zm14 1a1 1 0 1 0-2 0 1 1 0 0 0 2 0zm-13 13a1 1 0 1 0-2 0 1 1 0 0 0 2 0zm12-1a1 1 0 1 1 0 2 1 1 0 0 1 0-2zm-13 13a1 1 0 1 1 0 2 1 1 0 0 1 0-2zm14 1a1 1 0 1 0-2 0 1 1 0 0 0 2 0zm-13 13a1 1 0 1 0-2 0 1 1 0 0 0 2 0zm12-1a1 1 0 1 1 0 2 1 1 0 0 1 0-2zm-13 13a1 1 0 1 1 0 2 1 1 0 0 1 0-2zm14 1a1 1 0 1 0-2 0 1 1 0 0 0 2 0zm-13 13a1 1 0 1 0-2 0 1 1 0 0 0 2 0zm12-1a1 1 0 1 1 0 2 1 1 0 0 1 0-2zm-13 13a1 1 0 1 1 0 2 1 1 0 0 1 0-2zm14 1a1 1 0 1 0-2 0 1 1 0 0 0 2 0zm-13 13a1 1 0 1 0-2 0 1 1 0 0 0 2 0zm12-1a1 1 0 1 1 0 2 1 1 0 0 1 0-2zm-13 13a1 1 0 1 1 0 2 1 1 0 0 1 0-2zm14 1a1 1 0 1 0-2 0 1 1 0 0 0 2 0zm13-117a1 1 0 1 0-2 0 1 1 0 0 0 2 0zm-1 12a1 1 0 1 1 0 2 1 1 0 0 1 0-2zm1 14a1 1 0 1 0-2 0 1 1 0 0 0 2 0zm-1 12a1 1 0 1 1 0 2 1 1 0 0 1 0-2zm1 14a1 1 0 1 0-2 0 1 1 0 0 0 2 0zm-1 12a1 1 0 1 1 0 2 1 1 0 0 1 0-2zm1 14a1 1 0 1 0-2 0 1 1 0 0 0 2 0zm-1 12a1 1 0 1 1 0 2 1 1 0 0 1 0-2zm1 14a1 1 0 1 0-2 0 1 1 0 0 0 2 0zm-1 12a1 1 0 1 1 0 2 1 1 0 0 1 0-2zm14 1a1 1 0 1 0-2 0 1 1 0 0 0 2 0zm-1-14a1 1 0 1 1 0 2 1 1 0 0 1 0-2zm1-12a1 1 0 1 0-2 0 1 1 0 0 0 2 0zm-1-14a1 1 0 1 1 0 2 1 1 0 0 1 0-2zm1-12a1 1 0 1 0-2 0 1 1 0 0 0 2 0zm-1-14a1 1 0 1 1 0 2 1 1 0 0 1 0-2zm1-12a1 1 0 1 0-2 0 1 1 0 0 0 2 0zm-1-14a1 1 0 1 1 0 2 1 1 0 0 1 0-2zm1-12a1 1 0 1 0-2 0 1 1 0 0 0 2 0zm-1-14a1 1 0 1 1 0 2 1 1 0 0 1 0-2zm14 1a1 1 0 1 0-2 0 1 1 0 0 0 2 0zm12-1a1 1 0 1 1 0 2 1 1 0 0 1 0-2zm-13 13a1 1 0 1 1 0 2 1 1 0 0 1 0-2zm14 1a1 1 0 1 0-2 0 1 1 0 0 0 2 0zm-13 13a1 1 0 1 0-2 0 1 1 0 0 0 2 0zm12-1a1 1 0 1 1 0 2 1 1 0 0 1 0-2zm-13 13a1 1 0 1 1 0 2 1 1 0 0 1 0-2zm14 1a1 1 0 1 0-2 0 1 1 0 0 0 2 0zm-13 13a1 1 0 1 0-2 0 1 1 0 0 0 2 0zm12-1a1 1 0 1 1 0 2 1 1 0 0 1 0-2zm-13 13a1 1 0 1 1 0 2 1 1 0 0 1 0-2zm14 1a1 1 0 1 0-2 0 1 1 0 0 0 2 0zm-13 13a1 1 0 1 0-2 0 1 1 0 0 0 2 0zm12-1a1 1 0 1 1 0 2 1 1 0 0 1 0-2zm-13 13a1 1 0 1 1 0 2 1 1 0 0 1 0-2zm14 1a1 1 0 1 0-2 0 1 1 0 0 0 2 0zm-13 13a1 1 0 1 0-2 0 1 1 0 0 0 2 0zm12-1a1 1 0 1 1 0 2 1 1 0 0 1 0-2zm-13 13a1 1 0 1 1 0 2 1 1 0 0 1 0-2zm14 1a1 1 0 1 0-2 0 1 1 0 0 0 2 0zm13-117a1 1 0 1 0-2 0 1 1 0 0 0 2 0zm-1 12a1 1 0 1 1 0 2 1 1 0 0 1 0-2zm1 14a1 1 0 1 0-2 0 1 1 0 0 0 2 0zm-1 12a1 1 0 1 1 0 2 1 1 0 0 1 0-2zm1 14a1 1 0 1 0-2 0 1 1 0 0 0 2 0zm-1 12a1 1 0 1 1 0 2 1 1 0 0 1 0-2zm1 14a1 1 0 1 0-2 0 1 1 0 0 0 2 0zm-1 12a1 1 0 1 1 0 2 1 1 0 0 1 0-2zm1 14a1 1 0 1 0-2 0 1 1 0 0 0 2 0zm-1 12a1 1 0 1 1 0 2 1 1 0 0 1 0-2zm117 0a1 1 0 1 1 0 2 1 1 0 0 1 0-2zm1-12a1 1 0 1 0-2 0 1 1 0 0 0 2 0zm-1-14a1 1 0 1 1 0 2 1 1 0 0 1 0-2zm1-12a1 1 0 1 0-2 0 1 1 0 0 0 2 0zm-1-14a1 1 0 1 1 0 2 1 1 0 0 1 0-2zm1-12a1 1 0 1 0-2 0 1 1 0 0 0 2 0zm-1-14a1 1 0 1 1 0 2 1 1 0 0 1 0-2zm1-12a1 1 0 1 0-2 0 1 1 0 0 0 2 0zm-1-14a1 1 0 1 1 0 2 1 1 0 0 1 0-2zm1-12a1 1 0 1 0-2 0 1 1 0 0 0 2 0zm12-1a1 1 0 1 1 0 2 1 1 0 0 1 0-2zm14 1a1 1 0 1 0-2 0 1 1 0 0 0 2 0zm-13 13a1 1 0 1 0-2 0 1 1 0 0 0 2 0zm12-1a1 1 0 1 1 0 2 1 1 0 0 1 0-2zm-13 13a1 1 0 1 1 0 2 1 1 0 0 1 0-2zm14 1a1 1 0 1 0-2 0 1 1 0 0 0 2 0zm-13 13a1 1 0 1 0-2 0 1 1 0 0 0 2 0zm12-1a1 1 0 1 1 0 2 1 1 0 0 1 0-2zm-13 13a1 1 0 1 1 0 2 1 1 0 0 1 0-2zm14 1a1 1 0 1 0-2 0 1 1 0 0 0 2 0zm-13 13a1 1 0 1 0-2 0 1 1 0 0 0 2 0zm12-1a1 1 0 1 1 0 2 1 1 0 0 1 0-2zm-13 13a1 1 0 1 1 0 2 1 1 0 0 1 0-2zm14 1a1 1 0 1 0-2 0 1 1 0 0 0 2 0zm-13 13a1 1 0 1 0-2 0 1 1 0 0 0 2 0zm12-1a1 1 0 1 1 0 2 1 1 0 0 1 0-2zm-13 13a1 1 0 1 1 0 2 1 1 0 0 1 0-2zm14 1a1 1 0 1 0-2 0 1 1 0 0 0 2 0zm-13 13a1 1 0 1 0-2 0 1 1 0 0 0 2 0zm12-1a1 1 0 1 1 0 2 1 1 0 0 1 0-2zm13-117a1 1 0 1 1 0 2 1 1 0 0 1 0-2zm1 14a1 1 0 1 0-2 0 1 1 0 0 0 2 0zm-1 12a1 1 0 1 1 0 2 1 1 0 0 1 0-2zm1 14a1 1 0 1 0-2 0 1 1 0 0 0 2 0zm-1 12a1 1 0 1 1 0 2 1 1 0 0 1 0-2zm1 14a1 1 0 1 0-2 0 1 1 0 0 0 2 0zm-1 12a1 1 0 1 1 0 2 1 1 0 0 1 0-2zm1 14a1 1 0 1 0-2 0 1 1 0 0 0 2 0zm-1 12a1 1 0 1 1 0 2 1 1 0 0 1 0-2zm1 14a1 1 0 1 0-2 0 1 1 0 0 0 2 0zm12-1a1 1 0 1 1 0 2 1 1 0 0 1 0-2zm1-12a1 1 0 1 0-2 0 1 1 0 0 0 2 0zm-1-14a1 1 0 1 1 0 2 1 1 0 0 1 0-2zm1-12a1 1 0 1 0-2 0 1 1 0 0 0 2 0zm-1-14a1 1 0 1 1 0 2 1 1 0 0 1 0-2zm1-12a1 1 0 1 0-2 0 1 1 0 0 0 2 0zm-1-14a1 1 0 1 1 0 2 1 1 0 0 1 0-2zm1-12a1 1 0 1 0-2 0 1 1 0 0 0 2 0zm-1-14a1 1 0 1 1 0 2 1 1 0 0 1 0-2zm1-12a1 1 0 1 0-2 0 1 1 0 0 0 2 0zm12-1a1 1 0 1 1 0 2 1 1 0 0 1 0-2zm14 1a1 1 0 1 0-2 0 1 1 0 0 0 2 0zm-13 13a1 1 0 1 0-2 0 1 1 0 0 0 2 0zm12-1a1 1 0 1 1 0 2 1 1 0 0 1 0-2zm-13 13a1 1 0 1 1 0 2 1 1 0 0 1 0-2zm14 1a1 1 0 1 0-2 0 1 1 0 0 0 2 0zm-13 13a1 1 0 1 0-2 0 1 1 0 0 0 2 0zm12-1a1 1 0 1 1 0 2 1 1 0 0 1 0-2zm-13 13a1 1 0 1 1 0 2 1 1 0 0 1 0-2zm14 1a1 1 0 1 0-2 0 1 1 0 0 0 2 0zm-13 13a1 1 0 1 0-2 0 1 1 0 0 0 2 0zm12-1a1 1 0 1 1 0 2 1 1 0 0 1 0-2zm-13 13a1 1 0 1 1 0 2 1 1 0 0 1 0-2zm14 1a1 1 0 1 0-2 0 1 1 0 0 0 2 0zm-13 13a1 1 0 1 0-2 0 1 1 0 0 0 2 0zm12-1a1 1 0 1 1 0 2 1 1 0 0 1 0-2zm-13 13a1 1 0 1 1 0 2 1 1 0 0 1 0-2zm14 1a1 1 0 1 0-2 0 1 1 0 0 0 2 0zm-13 13a1 1 0 1 0-2 0 1 1 0 0 0 2 0zm12-1a1 1 0 1 1 0 2 1 1 0 0 1 0-2zm13-117a1 1 0 1 1 0 2 1 1 0 0 1 0-2zm1 14a1 1 0 1 0-2 0 1 1 0 0 0 2 0zm-1 12a1 1 0 1 1 0 2 1 1 0 0 1 0-2zm1 14a1 1 0 1 0-2 0 1 1 0 0 0 2 0zm-1 12a1 1 0 1 1 0 2 1 1 0 0 1 0-2zm1 14a1 1 0 1 0-2 0 1 1 0 0 0 2 0zm-1 12a1 1 0 1 1 0 2 1 1 0 0 1 0-2zm1 14a1 1 0 1 0-2 0 1 1 0 0 0 2 0zm-1 12a1 1 0 1 1 0 2 1 1 0 0 1 0-2zm1 14a1 1 0 1 0-2 0 1 1 0 0 0 2 0zm-92-339a1 1 0 1 1 0 2 1 1 0 0 1 0-2zm14 1a1 1 0 1 0-2 0 1 1 0 0 0 2 0zm-13 13a1 1 0 1 0-2 0 1 1 0 0 0 2 0zm12-1a1 1 0 1 1 0 2 1 1 0 0 1 0-2zm-13 13a1 1 0 1 1 0 2 1 1 0 0 1 0-2zm14 1a1 1 0 1 0-2 0 1 1 0 0 0 2 0zm-13 13a1 1 0 1 0-2 0 1 1 0 0 0 2 0zm12-1a1 1 0 1 1 0 2 1 1 0 0 1 0-2zm-13 13a1 1 0 1 1 0 2 1 1 0 0 1 0-2zm14 1a1 1 0 1 0-2 0 1 1 0 0 0 2 0zm-13 13a1 1 0 1 0-2 0 1 1 0 0 0 2 0zm12-1a1 1 0 1 1 0 2 1 1 0 0 1 0-2zm-13 13a1 1 0 1 1 0 2 1 1 0 0 1 0-2zm14 1a1 1 0 1 0-2 0 1 1 0 0 0 2 0zm-13 13a1 1 0 1 0-2 0 1 1 0 0 0 2 0zm12-1a1 1 0 1 1 0 2 1 1 0 0 1 0-2zm-13 13a1 1 0 1 1 0 2 1 1 0 0 1 0-2zm14 1a1 1 0 1 0-2 0 1 1 0 0 0 2 0zm-13 13a1 1 0 1 0-2 0 1 1 0 0 0 2 0zm12-1a1 1 0 1 1 0 2 1 1 0 0 1 0-2zm-13 13a1 1 0 1 1 0 2 1 1 0 0 1 0-2zm14 1a1 1 0 1 0-2 0 1 1 0 0 0 2 0zm-13 13a1 1 0 1 0-2 0 1 1 0 0 0 2 0zm12-1a1 1 0 1 1 0 2 1 1 0 0 1 0-2zm-13 13a1 1 0 1 1 0 2 1 1 0 0 1 0-2zm14 1a1 1 0 1 0-2 0 1 1 0 0 0 2 0zm-13 13a1 1 0 1 0-2 0 1 1 0 0 0 2 0zm12-1a1 1 0 1 1 0 2 1 1 0 0 1 0-2zm-13 13a1 1 0 1 1 0 2 1 1 0 0 1 0-2zm14 1a1 1 0 1 0-2 0 1 1 0 0 0 2 0zm-13 13a1 1 0 1 0-2 0 1 1 0 0 0 2 0zm12-1a1 1 0 1 1 0 2 1 1 0 0 1 0-2zm-13 13a1 1 0 1 1 0 2 1 1 0 0 1 0-2zm14 1a1 1 0 1 0-2 0 1 1 0 0 0 2 0zm12-209a1 1 0 1 1 0 2 1 1 0 0 1 0-2zm1 14a1 1 0 1 0-2 0 1 1 0 0 0 2 0zm-1 12a1 1 0 1 1 0 2 1 1 0 0 1 0-2zm1 14a1 1 0 1 0-2 0 1 1 0 0 0 2 0zm-1 12a1 1 0 1 1 0 2 1 1 0 0 1 0-2zm1 14a1 1 0 1 0-2 0 1 1 0 0 0 2 0zm-1 12a1 1 0 1 1 0 2 1 1 0 0 1 0-2zm1 14a1 1 0 1 0-2 0 1 1 0 0 0 2 0zm-1 12a1 1 0 1 1 0 2 1 1 0 0 1 0-2zm1 14a1 1 0 1 0-2 0 1 1 0 0 0 2 0zm-1 12a1 1 0 1 1 0 2 1 1 0 0 1 0-2zm1 14a1 1 0 1 0-2 0 1 1 0 0 0 2 0zm-1 12a1 1 0 1 1 0 2 1 1 0 0 1 0-2zm1 14a1 1 0 1 0-2 0 1 1 0 0 0 2 0zm-1 12a1 1 0 1 1 0 2 1 1 0 0 1 0-2zm1 14a1 1 0 1 0-2 0 1 1 0 0 0 2 0zm-1 12a1 1 0 1 1 0 2 1 1 0 0 1 0-2zm14 1a1 1 0 1 0-2 0 1 1 0 0 0 2 0zm-1-14a1 1 0 1 1 0 2 1 1 0 0 1 0-2zm1-12a1 1 0 1 0-2 0 1 1 0 0 0 2 0zm-1-14a1 1 0 1 1 0 2 1 1 0 0 1 0-2zm1-12a1 1 0 1 0-2 0 1 1 0 0 0 2 0zm-1-14a1 1 0 1 1 0 2 1 1 0 0 1 0-2zm1-12a1 1 0 1 0-2 0 1 1 0 0 0 2 0zm-1-14a1 1 0 1 1 0 2 1 1 0 0 1 0-2zm1-12a1 1 0 1 0-2 0 1 1 0 0 0 2 0zm-1-14a1 1 0 1 1 0 2 1 1 0 0 1 0-2zm1-12a1 1 0 1 0-2 0 1 1 0 0 0 2 0zm-1-14a1 1 0 1 1 0 2 1 1 0 0 1 0-2zm1-12a1 1 0 1 0-2 0 1 1 0 0 0 2 0zm-1-14a1 1 0 1 1 0 2 1 1 0 0 1 0-2zm1-12a1 1 0 1 0-2 0 1 1 0 0 0 2 0zm-1-14a1 1 0 1 1 0 2 1 1 0 0 1 0-2zm0-13a1 1 0 1 1 0 2 1 1 0 0 1 0-2zm13 0a1 1 0 1 1 0 2 1 1 0 0 1 0-2zm14 1a1 1 0 1 0-2 0 1 1 0 0 0 2 0zm-13 13a1 1 0 1 0-2 0 1 1 0 0 0 2 0zm12-1a1 1 0 1 1 0 2 1 1 0 0 1 0-2zm-13 13a1 1 0 1 1 0 2 1 1 0 0 1 0-2zm14 1a1 1 0 1 0-2 0 1 1 0 0 0 2 0zm-13 13a1 1 0 1 0-2 0 1 1 0 0 0 2 0zm12-1a1 1 0 1 1 0 2 1 1 0 0 1 0-2zm-13 13a1 1 0 1 1 0 2 1 1 0 0 1 0-2zm14 1a1 1 0 1 0-2 0 1 1 0 0 0 2 0zm-13 13a1 1 0 1 0-2 0 1 1 0 0 0 2 0zm12-1a1 1 0 1 1 0 2 1 1 0 0 1 0-2zm-13 13a1 1 0 1 1 0 2 1 1 0 0 1 0-2zm14 1a1 1 0 1 0-2 0 1 1 0 0 0 2 0zm-13 13a1 1 0 1 0-2 0 1 1 0 0 0 2 0zm12-1a1 1 0 1 1 0 2 1 1 0 0 1 0-2zm-13 13a1 1 0 1 1 0 2 1 1 0 0 1 0-2zm14 1a1 1 0 1 0-2 0 1 1 0 0 0 2 0zm-13 13a1 1 0 1 0-2 0 1 1 0 0 0 2 0zm12-1a1 1 0 1 1 0 2 1 1 0 0 1 0-2zm-13 13a1 1 0 1 1 0 2 1 1 0 0 1 0-2zm14 1a1 1 0 1 0-2 0 1 1 0 0 0 2 0zm-13 13a1 1 0 1 0-2 0 1 1 0 0 0 2 0zm12-1a1 1 0 1 1 0 2 1 1 0 0 1 0-2zm-13 13a1 1 0 1 1 0 2 1 1 0 0 1 0-2zm14 1a1 1 0 1 0-2 0 1 1 0 0 0 2 0zm-13 13a1 1 0 1 0-2 0 1 1 0 0 0 2 0zm12-1a1 1 0 1 1 0 2 1 1 0 0 1 0-2zm-13 13a1 1 0 1 1 0 2 1 1 0 0 1 0-2zm14 1a1 1 0 1 0-2 0 1 1 0 0 0 2 0zm-13 13a1 1 0 1 0-2 0 1 1 0 0 0 2 0zm12-1a1 1 0 1 1 0 2 1 1 0 0 1 0-2zm-13 13a1 1 0 1 1 0 2 1 1 0 0 1 0-2zm14 1a1 1 0 1 0-2 0 1 1 0 0 0 2 0zm12-209a1 1 0 1 1 0 2 1 1 0 0 1 0-2zm1 14a1 1 0 1 0-2 0 1 1 0 0 0 2 0zm-1 12a1 1 0 1 1 0 2 1 1 0 0 1 0-2zm1 14a1 1 0 1 0-2 0 1 1 0 0 0 2 0zm-1 12a1 1 0 1 1 0 2 1 1 0 0 1 0-2zm1 14a1 1 0 1 0-2 0 1 1 0 0 0 2 0zm-1 12a1 1 0 1 1 0 2 1 1 0 0 1 0-2zm1 14a1 1 0 1 0-2 0 1 1 0 0 0 2 0zm-1 12a1 1 0 1 1 0 2 1 1 0 0 1 0-2zm1 14a1 1 0 1 0-2 0 1 1 0 0 0 2 0zm-1 12a1 1 0 1 1 0 2 1 1 0 0 1 0-2zm1 14a1 1 0 1 0-2 0 1 1 0 0 0 2 0zm-1 12a1 1 0 1 1 0 2 1 1 0 0 1 0-2zm1 14a1 1 0 1 0-2 0 1 1 0 0 0 2 0zm-1 12a1 1 0 1 1 0 2 1 1 0 0 1 0-2zm1 14a1 1 0 1 0-2 0 1 1 0 0 0 2 0zm-1 12a1 1 0 1 1 0 2 1 1 0 0 1 0-2zm14 1a1 1 0 1 0-2 0 1 1 0 0 0 2 0zm-1-14a1 1 0 1 1 0 2 1 1 0 0 1 0-2zm1-12a1 1 0 1 0-2 0 1 1 0 0 0 2 0zm-1-14a1 1 0 1 1 0 2 1 1 0 0 1 0-2zm1-12a1 1 0 1 0-2 0 1 1 0 0 0 2 0zm-1-14a1 1 0 1 1 0 2 1 1 0 0 1 0-2zm1-12a1 1 0 1 0-2 0 1 1 0 0 0 2 0zm-1-14a1 1 0 1 1 0 2 1 1 0 0 1 0-2zm1-12a1 1 0 1 0-2 0 1 1 0 0 0 2 0zm-1-14a1 1 0 1 1 0 2 1 1 0 0 1 0-2zm1-12a1 1 0 1 0-2 0 1 1 0 0 0 2 0zm-1-14a1 1 0 1 1 0 2 1 1 0 0 1 0-2zm1-12a1 1 0 1 0-2 0 1 1 0 0 0 2 0zm-1-14a1 1 0 1 1 0 2 1 1 0 0 1 0-2zm1-12a1 1 0 1 0-2 0 1 1 0 0 0 2 0zm-1-14a1 1 0 1 1 0 2 1 1 0 0 1 0-2zm0-13a1 1 0 1 1 0 2 1 1 0 0 1 0-2zm0-13a1 1 0 1 1 0 2 1 1 0 0 1 0-2zm1-12a1 1 0 1 0-2 0 1 1 0 0 0 2 0zm-1-14a1 1 0 1 1 0 2 1 1 0 0 1 0-2zm1-12a1 1 0 1 0-2 0 1 1 0 0 0 2 0zm-1-14a1 1 0 1 1 0 2 1 1 0 0 1 0-2zm1-12a1 1 0 1 0-2 0 1 1 0 0 0 2 0zm-1-14a1 1 0 1 1 0 2 1 1 0 0 1 0-2zm1-12a1 1 0 1 0-2 0 1 1 0 0 0 2 0zm-1-14a1 1 0 1 1 0 2 1 1 0 0 1 0-2zm1-12a1 1 0 1 0-2 0 1 1 0 0 0 2 0zm-1-14a1 1 0 1 1 0 2 1 1 0 0 1 0-2zm1-12a1 1 0 1 0-2 0 1 1 0 0 0 2 0zm-1-14a1 1 0 1 1 0 2 1 1 0 0 1 0-2zm1-12a1 1 0 1 0-2 0 1 1 0 0 0 2 0zm-1-14a1 1 0 1 1 0 2 1 1 0 0 1 0-2zm1-12a1 1 0 1 0-2 0 1 1 0 0 0 2 0zm0-13a1 1 0 1 0-2 0 1 1 0 0 0 2 0zm-92-1a1 1 0 1 1 0 2 1 1 0 0 1 0-2zm14 1a1 1 0 1 0-2 0 1 1 0 0 0 2 0zm-13 13a1 1 0 1 0-2 0 1 1 0 0 0 2 0zm12-1a1 1 0 1 1 0 2 1 1 0 0 1 0-2zm-13 13a1 1 0 1 1 0 2 1 1 0 0 1 0-2zm14 1a1 1 0 1 0-2 0 1 1 0 0 0 2 0zm-13 13a1 1 0 1 0-2 0 1 1 0 0 0 2 0zm12-1a1 1 0 1 1 0 2 1 1 0 0 1 0-2zm-13 13a1 1 0 1 1 0 2 1 1 0 0 1 0-2zm14 1a1 1 0 1 0-2 0 1 1 0 0 0 2 0zm-13 13a1 1 0 1 0-2 0 1 1 0 0 0 2 0zm12-1a1 1 0 1 1 0 2 1 1 0 0 1 0-2zm-13 13a1 1 0 1 1 0 2 1 1 0 0 1 0-2zm14 1a1 1 0 1 0-2 0 1 1 0 0 0 2 0zm-13 13a1 1 0 1 0-2 0 1 1 0 0 0 2 0zm12-1a1 1 0 1 1 0 2 1 1 0 0 1 0-2zm-13 13a1 1 0 1 1 0 2 1 1 0 0 1 0-2zm14 1a1 1 0 1 0-2 0 1 1 0 0 0 2 0zm-13 13a1 1 0 1 0-2 0 1 1 0 0 0 2 0zm12-1a1 1 0 1 1 0 2 1 1 0 0 1 0-2zm-13 13a1 1 0 1 1 0 2 1 1 0 0 1 0-2zm14 1a1 1 0 1 0-2 0 1 1 0 0 0 2 0zm-13 13a1 1 0 1 0-2 0 1 1 0 0 0 2 0zm12-1a1 1 0 1 1 0 2 1 1 0 0 1 0-2zm-13 13a1 1 0 1 1 0 2 1 1 0 0 1 0-2zm14 1a1 1 0 1 0-2 0 1 1 0 0 0 2 0zm-13 13a1 1 0 1 0-2 0 1 1 0 0 0 2 0zm12-1a1 1 0 1 1 0 2 1 1 0 0 1 0-2zm-13 13a1 1 0 1 1 0 2 1 1 0 0 1 0-2zm14 1a1 1 0 1 0-2 0 1 1 0 0 0 2 0zm-13 13a1 1 0 1 0-2 0 1 1 0 0 0 2 0zm12-1a1 1 0 1 1 0 2 1 1 0 0 1 0-2zm-13 13a1 1 0 1 1 0 2 1 1 0 0 1 0-2zm14 1a1 1 0 1 0-2 0 1 1 0 0 0 2 0zM235 0a1 1 0 1 1 0 2 1 1 0 0 1 0-2zm1 14a1 1 0 1 0-2 0 1 1 0 0 0 2 0zm-1 12a1 1 0 1 1 0 2 1 1 0 0 1 0-2zm1 14a1 1 0 1 0-2 0 1 1 0 0 0 2 0zm-1 12a1 1 0 1 1 0 2 1 1 0 0 1 0-2zm1 14a1 1 0 1 0-2 0 1 1 0 0 0 2 0zm-1 12a1 1 0 1 1 0 2 1 1 0 0 1 0-2zm1 14a1 1 0 1 0-2 0 1 1 0 0 0 2 0zm-1 12a1 1 0 1 1 0 2 1 1 0 0 1 0-2zm1 14a1 1 0 1 0-2 0 1 1 0 0 0 2 0zm-1 12a1 1 0 1 1 0 2 1 1 0 0 1 0-2zm1 14a1 1 0 1 0-2 0 1 1 0 0 0 2 0zm-1 12a1 1 0 1 1 0 2 1 1 0 0 1 0-2zm1 14a1 1 0 1 0-2 0 1 1 0 0 0 2 0zm-1 12a1 1 0 1 1 0 2 1 1 0 0 1 0-2zm1 14a1 1 0 1 0-2 0 1 1 0 0 0 2 0zm-1 12a1 1 0 1 1 0 2 1 1 0 0 1 0-2zm14 1a1 1 0 1 0-2 0 1 1 0 0 0 2 0zm-1-14a1 1 0 1 1 0 2 1 1 0 0 1 0-2zm1-12a1 1 0 1 0-2 0 1 1 0 0 0 2 0zm-1-14a1 1 0 1 1 0 2 1 1 0 0 1 0-2zm1-12a1 1 0 1 0-2 0 1 1 0 0 0 2 0zm-1-14a1 1 0 1 1 0 2 1 1 0 0 1 0-2zm1-12a1 1 0 1 0-2 0 1 1 0 0 0 2 0zm-1-14a1 1 0 1 1 0 2 1 1 0 0 1 0-2zm1-12a1 1 0 1 0-2 0 1 1 0 0 0 2 0zm-1-14a1 1 0 1 1 0 2 1 1 0 0 1 0-2zm1-12a1 1 0 1 0-2 0 1 1 0 0 0 2 0zm-1-14a1 1 0 1 1 0 2 1 1 0 0 1 0-2zm1-12a1 1 0 1 0-2 0 1 1 0 0 0 2 0zm-1-14a1 1 0 1 1 0 2 1 1 0 0 1 0-2zm1-12a1 1 0 1 0-2 0 1 1 0 0 0 2 0zm-1-14a1 1 0 1 1 0 2 1 1 0 0 1 0-2zm0-13a1 1 0 1 1 0 2 1 1 0 0 1 0-2zm13 0a1 1 0 1 1 0 2 1 1 0 0 1 0-2zm14 1a1 1 0 1 0-2 0 1 1 0 0 0 2 0zm-13 13a1 1 0 1 0-2 0 1 1 0 0 0 2 0zm12-1a1 1 0 1 1 0 2 1 1 0 0 1 0-2zm-13 13a1 1 0 1 1 0 2 1 1 0 0 1 0-2zm14 1a1 1 0 1 0-2 0 1 1 0 0 0 2 0zm-13 13a1 1 0 1 0-2 0 1 1 0 0 0 2 0zm12-1a1 1 0 1 1 0 2 1 1 0 0 1 0-2zm-13 13a1 1 0 1 1 0 2 1 1 0 0 1 0-2zm14 1a1 1 0 1 0-2 0 1 1 0 0 0 2 0zm-13 13a1 1 0 1 0-2 0 1 1 0 0 0 2 0zm12-1a1 1 0 1 1 0 2 1 1 0 0 1 0-2zm-13 13a1 1 0 1 1 0 2 1 1 0 0 1 0-2zm14 1a1 1 0 1 0-2 0 1 1 0 0 0 2 0zm-13 13a1 1 0 1 0-2 0 1 1 0 0 0 2 0zm12-1a1 1 0 1 1 0 2 1 1 0 0 1 0-2zm-13 13a1 1 0 1 1 0 2 1 1 0 0 1 0-2zm14 1a1 1 0 1 0-2 0 1 1 0 0 0 2 0zm-13 13a1 1 0 1 0-2 0 1 1 0 0 0 2 0zm12-1a1 1 0 1 1 0 2 1 1 0 0 1 0-2zm-13 13a1 1 0 1 1 0 2 1 1 0 0 1 0-2zm14 1a1 1 0 1 0-2 0 1 1 0 0 0 2 0zm-13 13a1 1 0 1 0-2 0 1 1 0 0 0 2 0zm12-1a1 1 0 1 1 0 2 1 1 0 0 1 0-2zm-13 13a1 1 0 1 1 0 2 1 1 0 0 1 0-2zm14 1a1 1 0 1 0-2 0 1 1 0 0 0 2 0zm-13 13a1 1 0 1 0-2 0 1 1 0 0 0 2 0zm12-1a1 1 0 1 1 0 2 1 1 0 0 1 0-2zm-13 13a1 1 0 1 1 0 2 1 1 0 0 1 0-2zm14 1a1 1 0 1 0-2 0 1 1 0 0 0 2 0zm-13 13a1 1 0 1 0-2 0 1 1 0 0 0 2 0zm12-1a1 1 0 1 1 0 2 1 1 0 0 1 0-2zm-13 13a1 1 0 1 1 0 2 1 1 0 0 1 0-2zm14 1a1 1 0 1 0-2 0 1 1 0 0 0 2 0zM287 0a1 1 0 1 1 0 2 1 1 0 0 1 0-2zm1 14a1 1 0 1 0-2 0 1 1 0 0 0 2 0zm-1 12a1 1 0 1 1 0 2 1 1 0 0 1 0-2zm1 14a1 1 0 1 0-2 0 1 1 0 0 0 2 0zm-1 12a1 1 0 1 1 0 2 1 1 0 0 1 0-2zm1 14a1 1 0 1 0-2 0 1 1 0 0 0 2 0zm-1 12a1 1 0 1 1 0 2 1 1 0 0 1 0-2zm1 14a1 1 0 1 0-2 0 1 1 0 0 0 2 0zm-1 12a1 1 0 1 1 0 2 1 1 0 0 1 0-2zm1 14a1 1 0 1 0-2 0 1 1 0 0 0 2 0zm-1 12a1 1 0 1 1 0 2 1 1 0 0 1 0-2zm1 14a1 1 0 1 0-2 0 1 1 0 0 0 2 0zm-1 12a1 1 0 1 1 0 2 1 1 0 0 1 0-2zm1 14a1 1 0 1 0-2 0 1 1 0 0 0 2 0zm-1 12a1 1 0 1 1 0 2 1 1 0 0 1 0-2zm1 14a1 1 0 1 0-2 0 1 1 0 0 0 2 0zm-1 12a1 1 0 1 1 0 2 1 1 0 0 1 0-2z" fill="#000"/></g><defs><clipPath id="a"><path fill="#fff" d="M0 0h301v366H0z"/></clipPath></defs></svg>