<svg width="200" height="200" viewBox="0 0 200 200" fill="none" xmlns="http://www.w3.org/2000/svg"><path d="M99.49 19.94h76.88v98.17H94.49V24.94a5 5 0 0 1 5-5z" fill="#fff"/><path d="M176.87 118.62H94V24.94a5.51 5.51 0 0 1 5.5-5.5h77.38l-.01 99.18zm-81.88-1h80.88V20.44H99.49a4.51 4.51 0 0 0-4.5 4.5v92.68z" fill="#FF7F57"/><path d="M130.031 100.82h-18.23v17.3h18.23v-17.3z" fill="#FF7F57"/><path d="M130.001 118.62h-18.2l-.5-.5v-17.3l.5-.5h18.2l.5.5v17.3l-.5.5zm-17.72-1h17.22v-16.3h-17.2l-.02 16.3z" fill="#FF7F57"/><path d="M76.29 112.31l-61.15 44.21V58.35l53.24-38.49a5.001 5.001 0 0 1 7.91 4v88.45z" fill="#fff"/><path d="M14.64 157.5V58.09l53.44-38.64a5.49 5.49 0 0 1 8.71 4.45v88.66L14.64 157.5zm1-98.9v96.94l60.15-43.49V23.9a4.49 4.49 0 0 0-7.12-3.64L15.64 58.6z" fill="#FF7F57"/><path d="M83.37 142.13l-68.23 14.39V58.35l62.2-13.13a5 5 0 0 1 6 4.89l.03 92.02z" fill="#FF7F57"/><path d="M15.25 157l-.61-.49V58.35l.4-.49 62.2-13.13a5.502 5.502 0 0 1 6.63 5.38v92l-.4.49L15.25 157zm.39-98.26v97.16l67.23-14.19v-91.6a4.508 4.508 0 0 0-5.42-4.4L15.64 58.74z" fill="#FF7F57"/><path d="M108.461 157.35h-93.32V59.18h93.42a8.219 8.219 0 0 0 8.22-8.18v98a8.326 8.326 0 0 1-5.13 7.714 8.315 8.315 0 0 1-3.19.636z" fill="#fff"/><path d="M108.461 157.85h-93.82V58.68h93.92a7.718 7.718 0 0 0 7.72-7.68h1v98a8.843 8.843 0 0 1-2.576 6.253 8.83 8.83 0 0 1-6.244 2.597zm-92.82-1h92.82a7.83 7.83 0 0 0 7.82-7.82V55a8.737 8.737 0 0 1-7.72 4.67h-92.92v97.18z" fill="#FF7F57"/><path d="M158.421 87.46h-19.12v30.66h19.12V87.46z" fill="#fff"/><path d="M158.921 118.62h-20.12V87h20.12v31.62zm-19.12-1h18.12V88h-18.12v29.62z" fill="#FF7F57"/><path d="M185.49 75.73h-18.23v42.38h18.23V75.73z" fill="#fff"/><path d="M186 118.62h-19.24V75.23H186v43.39zm-18.22-1H185V76.23h-17.24l.02 41.39z" fill="#FF7F57"/><path d="M94.49 28.26c0 8 11.109 11.28 19.549 17.73 5.78 4.42 1.74 13-5.6 13.19h-14l.05-30.92z" fill="#fff"/><path d="M94.49 59.68H94V28.26h1c0 5.33 5.32 8.52 11.48 12.2a84.035 84.035 0 0 1 7.87 5.13 6.999 6.999 0 0 1 2.58 8 9.068 9.068 0 0 1-8.46 6.11l-13.98-.02zm.5-1h13.45a8.069 8.069 0 0 0 7.56-5.41 6.058 6.058 0 0 0-2.24-6.88 81.33 81.33 0 0 0-7.76-5.07c-4.62-2.76-9-5.41-11-9.06l-.01 26.42z" fill="#FF7F57"/><path d="M67.2 73.96c.41 0 .74-.336.74-.75a.745.745 0 0 0-.74-.75.745.745 0 0 0-.74.75c0 .414.332.75.74.75z" fill="#CECECE"/><path d="M67.2 74.21a1 1 0 1 1 0-2 1 1 0 0 1 0 2zm0-1.51a.498.498 0 0 0-.5.51.5.5 0 0 0 1 0 .502.502 0 0 0-.5-.51zm0 8.66c.41 0 .74-.335.74-.75a.745.745 0 0 0-.74-.75.745.745 0 0 0-.74.75c0 .415.332.75.74.75z" fill="#CECECE"/><path d="M67.2 81.61a1 1 0 1 1 0-1.999 1 1 0 0 1 0 2zm0-1.5a.5.5 0 1 0-.021 1 .5.5 0 0 0 .02-1zm0 8.65c.41 0 .74-.336.74-.75a.745.745 0 0 0-.74-.75.745.745 0 0 0-.74.75c0 .414.332.75.74.75z" fill="#CECECE"/><path d="M67.2 89a1 1 0 1 1 0-2 1 1 0 0 1 0 2zm0-1.51a.5.5 0 1 0 .5.5.489.489 0 0 0-.5-.48v-.02zm0 8.68c.41 0 .74-.336.74-.75a.745.745 0 0 0-.74-.75.745.745 0 0 0-.74.75c0 .414.332.75.74.75z" fill="#CECECE"/><path d="M67.2 96.42a1 1 0 1 1-.001-1.999 1 1 0 0 1 0 1.999zm0-1.51a.51.51 0 1 0 .49.51.5.5 0 0 0-.49-.51zm0 8.66c.41 0 .74-.335.74-.75a.745.745 0 0 0-.74-.75.745.745 0 0 0-.74.75c0 .415.332.75.74.75z" fill="#CECECE"/><path d="M67.2 103.82a.998.998 0 0 1-.708-1.707 1.002 1.002 0 0 1 1.539.152.999.999 0 0 1-.832 1.555zm0-1.51a.515.515 0 0 0-.358.15.504.504 0 0 0-.143.36.5.5 0 1 0 .965-.194.507.507 0 0 0-.271-.277.514.514 0 0 0-.194-.039zm7.34-28.35c.41 0 .74-.336.74-.75a.745.745 0 0 0-.74-.75.745.745 0 0 0-.74.75c0 .414.332.75.74.75z" fill="#CECECE"/><path d="M74.54 74.21a1 1 0 1 1 0-2 1 1 0 0 1 0 2zm0-1.51a.5.5 0 0 0-.49.51.5.5 0 1 0 1 0 .5.5 0 0 0-.51-.51zm7.35 1.26c.41 0 .74-.336.74-.75a.745.745 0 0 0-.74-.75.745.745 0 0 0-.74.75c0 .414.332.75.74.75z" fill="#CECECE"/><path d="M81.89 74.21a1 1 0 1 1 0-2 1 1 0 0 1 0 2zm0-1.51a.498.498 0 0 0-.5.51.5.5 0 0 0 1 0 .5.5 0 0 0-.5-.51zm7.34 1.26c.409 0 .74-.336.74-.75a.745.745 0 0 0-.74-.75.745.745 0 0 0-.74.75c0 .414.332.75.74.75z" fill="#CECECE"/><path d="M89.23 74.21a1 1 0 1 1 0-2 1 1 0 0 1 0 2zm0-1.51a.5.5 0 0 0-.49.51.5.5 0 1 0 1 0 .5.5 0 0 0-.51-.51zm7.35 1.26c.409 0 .74-.336.74-.75a.745.745 0 0 0-.74-.75.745.745 0 0 0-.74.75c0 .414.331.75.74.75z" fill="#CECECE"/><path d="M96.58 74.21a1 1 0 1 1 0-2 1 1 0 0 1 0 2zm0-1.51a.498.498 0 0 0-.5.51.5.5 0 0 0 1 0 .5.5 0 0 0-.5-.51zm7.34 1.26c.408 0 .74-.336.74-.75a.745.745 0 0 0-.74-.75.745.745 0 0 0-.74.75c0 .414.331.75.74.75z" fill="#CECECE"/><path d="M103.92 74.21a1 1 0 1 1 0-1.999 1 1 0 0 1 0 1.999zm0-1.51a.5.5 0 0 0-.49.51.503.503 0 0 0 .5.5.5.5 0 0 0 .5-.5.51.51 0 0 0-.146-.364.51.51 0 0 0-.364-.146zm-29.38 8.66c.41 0 .74-.335.74-.75a.745.745 0 0 0-.74-.75.745.745 0 0 0-.74.75c0 .415.332.75.74.75z" fill="#CECECE"/><path d="M74.54 81.61a1 1 0 1 1 0-2 1 1 0 0 1 0 2zm0-1.5a.5.5 0 1 0 .5.5.492.492 0 0 0-.5-.5zm7.35 1.25c.41 0 .74-.335.74-.75a.745.745 0 0 0-.74-.75.745.745 0 0 0-.74.75c0 .415.332.75.74.75z" fill="#CECECE"/><path d="M81.89 81.61a1 1 0 1 1 0-1.999 1 1 0 0 1 0 2zm0-1.5a.5.5 0 1 0-.02 1 .5.5 0 0 0 .02-1zm7.34 1.25c.409 0 .74-.335.74-.75a.745.745 0 0 0-.74-.75.745.745 0 0 0-.74.75c0 .415.332.75.74.75z" fill="#CECECE"/><path d="M89.23 81.61a1 1 0 1 1 0-2 1 1 0 0 1 0 2zm0-1.5a.5.5 0 1 0 .5.5.492.492 0 0 0-.5-.5zm7.35 1.25c.409 0 .74-.335.74-.75a.745.745 0 0 0-.74-.75.745.745 0 0 0-.74.75c0 .415.331.75.74.75z" fill="#CECECE"/><path d="M96.58 81.61a1 1 0 1 1 0-2 1 1 0 0 1 0 2zm0-1.5a.5.5 0 1 0-.02 1 .5.5 0 0 0 .02-1zm7.34 1.25c.408 0 .74-.335.74-.75a.745.745 0 0 0-.74-.75.745.745 0 0 0-.74.75c0 .415.331.75.74.75z" fill="#CECECE"/><path d="M103.92 81.61a1.002 1.002 0 0 1-.981-1.195 1.003 1.003 0 0 1 1.364-.729.997.997 0 0 1 .617.924.998.998 0 0 1-1 1zm0-1.5a.5.5 0 1 0 .5.5.509.509 0 0 0-.035-.193.498.498 0 0 0-.465-.307zm-29.38 8.65c.41 0 .74-.336.74-.75a.745.745 0 0 0-.74-.75.745.745 0 0 0-.74.75c0 .414.332.75.74.75z" fill="#CECECE"/><path d="M74.54 89a1 1 0 1 1 0-2.001 1 1 0 0 1 0 2.001zm0-1.51a.491.491 0 0 0-.49.5.5.5 0 1 0 1 0 .5.5 0 0 0-.51-.48v-.02zm7.35 1.27c.41 0 .74-.336.74-.75a.745.745 0 0 0-.74-.75.745.745 0 0 0-.74.75c0 .414.332.75.74.75z" fill="#CECECE"/><path d="M81.89 89a1 1 0 1 1 0-2 1 1 0 0 1 0 2zm0-1.51a.5.5 0 1 0 .5.5.489.489 0 0 0-.5-.48v-.02zm7.34 1.27c.409 0 .74-.336.74-.75a.745.745 0 0 0-.74-.75.745.745 0 0 0-.74.75c0 .414.332.75.74.75z" fill="#CECECE"/><path d="M89.23 89a1 1 0 1 1 0-2.001 1 1 0 0 1 0 2.001zm0-1.51a.491.491 0 0 0-.49.5.5.5 0 1 0 1 0 .5.5 0 0 0-.51-.48v-.02zm7.35 1.27c.409 0 .74-.336.74-.75a.745.745 0 0 0-.74-.75.745.745 0 0 0-.74.75c0 .414.331.75.74.75z" fill="#CECECE"/><path d="M96.58 89a1 1 0 1 1 0-2 1 1 0 0 1 0 2zm0-1.51a.5.5 0 1 0 .5.5.49.49 0 0 0-.5-.48v-.02zm7.34 1.27c.408 0 .74-.336.74-.75a.746.746 0 0 0-.74-.75.745.745 0 0 0-.74.75c0 .414.331.75.74.75z" fill="#CECECE"/><path d="M103.92 89a1.003 1.003 0 0 1-.924-.617 1.002 1.002 0 0 1 .729-1.364A1 1 0 1 1 103.92 89zm0-1.51a.492.492 0 0 0-.49.5.503.503 0 0 0 .5.5.5.5 0 0 0 .5-.5.5.5 0 0 0-.51-.48v-.02zm-29.38 8.68c.41 0 .74-.336.74-.75a.745.745 0 0 0-.74-.75.745.745 0 0 0-.74.75c0 .414.332.75.74.75z" fill="#CECECE"/><path d="M74.54 96.42a1 1 0 1 1-.001-2 1 1 0 0 1 0 2zm0-1.51a.51.51 0 1 0 .5.51.501.501 0 0 0-.5-.51zm7.35 1.26c.41 0 .74-.336.74-.75a.745.745 0 0 0-.74-.75.745.745 0 0 0-.74.75c0 .414.332.75.74.75z" fill="#CECECE"/><path d="M81.89 96.42a1 1 0 1 1 0-1.999 1 1 0 0 1 0 1.999zm0-1.51a.51.51 0 1 0 .49.51.5.5 0 0 0-.49-.51zm7.34 1.26c.409 0 .74-.336.74-.75a.745.745 0 0 0-.74-.75.745.745 0 0 0-.74.75c0 .414.332.75.74.75z" fill="#CECECE"/><path d="M89.23 96.42a1 1 0 1 1 0-2 1 1 0 0 1 0 2zm0-1.51a.51.51 0 1 0 .5.51.501.501 0 0 0-.5-.51zm7.35 1.26c.409 0 .74-.336.74-.75a.745.745 0 0 0-.74-.75.745.745 0 0 0-.74.75c0 .414.331.75.74.75z" fill="#CECECE"/><path d="M96.58 96.42a1 1 0 1 1 0-2 1 1 0 0 1 0 2zm0-1.51a.51.51 0 1 0 .49.51.5.5 0 0 0-.49-.51zm7.34 1.26c.408 0 .74-.336.74-.75a.746.746 0 0 0-.74-.75.745.745 0 0 0-.74.75c0 .414.331.75.74.75z" fill="#CECECE"/><path d="M103.92 96.42a.999.999 0 1 1 0-1.998.999.999 0 0 1 0 1.998zm0-1.51a.51.51 0 1 0 .5.51.501.501 0 0 0-.5-.51zm-29.38 8.66c.41 0 .74-.335.74-.75a.745.745 0 0 0-.74-.75.745.745 0 0 0-.74.75c0 .415.332.75.74.75z" fill="#CECECE"/><path d="M74.54 103.82a.998.998 0 0 1-1-1 1 1 0 1 1 1 1zm0-1.51a.501.501 0 0 0-.49.51.5.5 0 1 0 1 0 .496.496 0 0 0-.147-.363.509.509 0 0 0-.364-.147zm7.35 1.26c.41 0 .74-.335.74-.75a.745.745 0 0 0-.74-.75.745.745 0 0 0-.74.75c0 .415.332.75.74.75z" fill="#CECECE"/><path d="M81.89 103.82a.998.998 0 0 1-.707-1.707 1.002 1.002 0 0 1 1.539.152.999.999 0 0 1-.831 1.555zm0-1.51a.515.515 0 0 0-.356.15.504.504 0 0 0-.143.36.5.5 0 1 0 .965-.194.507.507 0 0 0-.272-.277.514.514 0 0 0-.193-.039zm7.34 1.26c.409 0 .74-.335.74-.75a.745.745 0 0 0-.74-.75.745.745 0 0 0-.74.75c0 .415.332.75.74.75z" fill="#CECECE"/><path d="M89.23 103.82a.998.998 0 0 1-1-1 1 1 0 1 1 1 1zm0-1.51a.501.501 0 0 0-.49.51.5.5 0 1 0 1 0 .496.496 0 0 0-.146-.363.509.509 0 0 0-.363-.147zm7.35 1.26c.409 0 .74-.335.74-.75a.745.745 0 0 0-.74-.75.745.745 0 0 0-.74.75c0 .415.331.75.74.75z" fill="#CECECE"/><path d="M96.58 103.82a.999.999 0 0 1-.195-1.98 1.002 1.002 0 0 1 1.026.425.999.999 0 0 1-.83 1.555zm0-1.51a.514.514 0 0 0-.357.15.507.507 0 0 0 .357.86.498.498 0 0 0 .5-.5.5.5 0 0 0-.5-.51zm7.34 1.26c.408 0 .74-.335.74-.75a.746.746 0 0 0-.74-.75.745.745 0 0 0-.74.75c0 .415.331.75.74.75z" fill="#CECECE"/><path d="M103.92 103.82a.997.997 0 0 1-1-1 1 1 0 1 1 1 1zm0-1.51a.509.509 0 0 0-.456.318.505.505 0 0 0-.034.192.5.5 0 1 0 1 0 .505.505 0 0 0-.313-.474.513.513 0 0 0-.197-.036zm-36.72 8.66c.41 0 .74-.336.74-.75a.745.745 0 0 0-.74-.75.745.745 0 0 0-.74.75c0 .414.332.75.74.75z" fill="#CECECE"/><path d="M67.2 111.22a1 1 0 1 1 0-1.998 1 1 0 0 1 0 1.998zm0-1.5a.497.497 0 0 0-.502.591.5.5 0 1 0 .501-.591zm0 8.65c.41 0 .74-.336.74-.75a.745.745 0 0 0-.74-.75.745.745 0 0 0-.74.75c0 .414.332.75.74.75z" fill="#CECECE"/><path d="M67.2 118.63a.998.998 0 0 1-1-1 1 1 0 1 1 1 1zm0-1.51a.51.51 0 1 0 .49.5.499.499 0 0 0-.49-.5zm0 8.66c.41 0 .74-.336.74-.75a.745.745 0 0 0-.74-.75.745.745 0 0 0-.74.75c0 .414.332.75.74.75z" fill="#CECECE"/><path d="M67.2 126a1 1 0 1 1 0-1.998 1 1 0 0 1 0 1.998zm0-1.51a.515.515 0 0 0-.486.301.508.508 0 0 0 .358.707.504.504 0 0 0 .53-.213.508.508 0 0 0 .087-.285.5.5 0 0 0-.49-.48v-.03zm0 8.69c.41 0 .74-.336.74-.75a.745.745 0 0 0-.74-.75.745.745 0 0 0-.74.75c0 .414.332.75.74.75z" fill="#CECECE"/><path d="M67.2 133.43a1 1 0 1 1 0-1.998 1 1 0 0 1 0 1.998zm0-1.51a.496.496 0 0 0-.466.315.501.501 0 0 0-.035.195.5.5 0 0 0 1 0 .503.503 0 0 0-.306-.471.496.496 0 0 0-.194-.039zm0 8.66c.41 0 .74-.336.74-.75a.745.745 0 0 0-.74-.75.745.745 0 0 0-.74.75c0 .414.332.75.74.75z" fill="#CECECE"/><path d="M67.2 140.83a1.005 1.005 0 0 1-.98-1.195 1.001 1.001 0 1 1 .98 1.195zm0-1.5a.505.505 0 0 0-.47.302.499.499 0 0 0 .648.661.506.506 0 0 0 .311-.463.499.499 0 0 0-.49-.5zm0 8.65c.41 0 .74-.335.74-.75a.745.745 0 0 0-.74-.75.745.745 0 0 0-.74.75c0 .415.332.75.74.75z" fill="#CECECE"/><path d="M67.2 148.24a.998.998 0 0 1-1-1 1.001 1.001 0 1 1 1 1zm0-1.51a.51.51 0 1 0 .49.5.5.5 0 0 0-.49-.5zm7.34-35.76c.41 0 .74-.336.74-.75a.745.745 0 0 0-.74-.75.745.745 0 0 0-.74.75c0 .414.332.75.74.75z" fill="#CECECE"/><path d="M74.54 111.22a1 1 0 1 1 0-1.999 1 1 0 0 1 0 1.999zm0-1.5a.5.5 0 1 0 .5.5.491.491 0 0 0-.5-.5zm7.35 1.25c.41 0 .74-.336.74-.75a.745.745 0 0 0-.74-.75.745.745 0 0 0-.74.75c0 .414.332.75.74.75z" fill="#CECECE"/><path d="M81.89 111.22a1 1 0 1 1 .002-1.998 1 1 0 0 1-.001 1.998zm0-1.5a.497.497 0 0 0-.501.591.5.5 0 1 0 .502-.591zm7.34 1.25c.409 0 .74-.336.74-.75a.745.745 0 0 0-.74-.75.745.745 0 0 0-.74.75c0 .414.332.75.74.75z" fill="#CECECE"/><path d="M89.23 111.22a1 1 0 1 1 .002-1.999 1 1 0 0 1-.001 1.999zm0-1.5a.5.5 0 1 0 .5.5.491.491 0 0 0-.5-.5zm7.35 1.25c.409 0 .74-.336.74-.75a.745.745 0 0 0-.74-.75.745.745 0 0 0-.74.75c0 .414.331.75.74.75z" fill="#CECECE"/><path d="M96.58 111.22a1 1 0 1 1 .001-2 1 1 0 0 1 0 2zm0-1.5a.498.498 0 0 0-.501.591.5.5 0 1 0 .501-.591zm7.34 1.25c.408 0 .74-.336.74-.75a.746.746 0 0 0-.74-.75.745.745 0 0 0-.74.75c0 .414.331.75.74.75z" fill="#CECECE"/><path d="M103.92 111.22a1.002 1.002 0 0 1-.981-1.195.999.999 0 1 1 .981 1.195zm0-1.5a.5.5 0 1 0 .5.5.508.508 0 0 0-.035-.193.498.498 0 0 0-.465-.307zm-29.38 8.65c.41 0 .74-.336.74-.75a.745.745 0 0 0-.74-.75.745.745 0 0 0-.74.75c0 .414.332.75.74.75z" fill="#CECECE"/><path d="M74.54 118.63a1 1 0 1 1 0-1.999 1 1 0 0 1 0 1.999zm0-1.51a.505.505 0 0 0-.48.31.51.51 0 1 0 .98.19.5.5 0 0 0-.5-.5zm7.35 1.25c.41 0 .74-.336.74-.75a.745.745 0 0 0-.74-.75.745.745 0 0 0-.74.75c0 .414.332.75.74.75z" fill="#CECECE"/><path d="M81.89 118.63a.998.998 0 0 1-.707-1.707.998.998 0 0 1 1.708.707 1 1 0 0 1-1 1zm0-1.51a.51.51 0 1 0 .49.5.499.499 0 0 0-.49-.5zm7.34 1.25c.409 0 .74-.336.74-.75a.745.745 0 0 0-.74-.75.745.745 0 0 0-.74.75c0 .414.332.75.74.75z" fill="#CECECE"/><path d="M89.23 118.63a1 1 0 1 1 .002-1.999 1 1 0 0 1-.001 1.999zm0-1.51a.505.505 0 0 0-.479.31.51.51 0 1 0 .98.19.5.5 0 0 0-.5-.5zm7.35 1.25c.409 0 .74-.336.74-.75a.745.745 0 0 0-.74-.75.745.745 0 0 0-.74.75c0 .414.331.75.74.75z" fill="#CECECE"/><path d="M96.58 118.63a.998.998 0 0 1-1-1 .999.999 0 1 1 1 1zm0-1.51a.51.51 0 1 0 .49.5.499.499 0 0 0-.49-.5zm7.34 1.25c.408 0 .74-.336.74-.75a.746.746 0 0 0-.74-.75.745.745 0 0 0-.74.75c0 .414.331.75.74.75z" fill="#CECECE"/><path d="M103.92 118.63a1.002 1.002 0 0 1-.981-1.195 1.003 1.003 0 0 1 1.364-.729 1.001 1.001 0 0 1-.383 1.924zm0-1.51a.509.509 0 1 0 .19.979.514.514 0 0 0 .163-.833.5.5 0 0 0-.353-.146zm-29.38 8.66c.41 0 .74-.336.74-.75a.745.745 0 0 0-.74-.75.745.745 0 0 0-.74.75c0 .414.332.75.74.75z" fill="#CECECE"/><path d="M74.54 126a.998.998 0 0 1-1-1 .999.999 0 1 1 1 1zm0-1.51a.508.508 0 0 0-.512.603.508.508 0 0 0 .694.379.51.51 0 0 0 .317-.472.502.502 0 0 0-.5-.48v-.03zm7.35 1.29c.41 0 .74-.336.74-.75a.745.745 0 0 0-.74-.75.745.745 0 0 0-.74.75c0 .414.332.75.74.75z" fill="#CECECE"/><path d="M81.89 126a1 1 0 1 1 .002-1.998A1 1 0 0 1 81.89 126zm0-1.51a.515.515 0 0 0-.485.301.508.508 0 0 0 .358.707.504.504 0 0 0 .53-.213.508.508 0 0 0 .088-.285.5.5 0 0 0-.49-.48v-.03zm7.34 1.29c.409 0 .74-.336.74-.75a.745.745 0 0 0-.74-.75.745.745 0 0 0-.74.75c0 .414.332.75.74.75z" fill="#CECECE"/><path d="M89.23 126a.998.998 0 0 1-1-1 .999.999 0 1 1 1 1zm0-1.51a.508.508 0 0 0-.51.603.508.508 0 0 0 .693.379.51.51 0 0 0 .318-.472.502.502 0 0 0-.5-.48v-.03zm7.35 1.29c.409 0 .74-.336.74-.75a.745.745 0 0 0-.74-.75.745.745 0 0 0-.74.75c0 .414.331.75.74.75z" fill="#CECECE"/><path d="M96.58 126a1 1 0 1 1 .001-2 1 1 0 0 1 0 2zm0-1.51a.515.515 0 0 0-.485.301.508.508 0 0 0 .358.707.504.504 0 0 0 .53-.213.508.508 0 0 0 .087-.285.5.5 0 0 0-.49-.48v-.03zm7.34 1.29c.408 0 .74-.336.74-.75a.746.746 0 0 0-.74-.75.745.745 0 0 0-.74.75c0 .414.331.75.74.75z" fill="#CECECE"/><path d="M103.92 126a.997.997 0 0 1-1-1 .997.997 0 0 1 1-1 1 1 0 1 1 0 2zm0-1.51a.509.509 0 0 0-.113 1.009.508.508 0 0 0 .613-.499.502.502 0 0 0-.5-.48v-.03zm-29.38 8.69c.41 0 .74-.336.74-.75a.745.745 0 0 0-.74-.75.745.745 0 0 0-.74.75c0 .414.332.75.74.75z" fill="#CECECE"/><path d="M74.54 133.43a1.002 1.002 0 0 1-1-1 .997.997 0 0 1 1-1 .998.998 0 0 1 .706 1.707 1.002 1.002 0 0 1-.707.293zm0-1.51a.498.498 0 0 0-.49.51.5.5 0 0 0 1 0 .498.498 0 0 0-.51-.51zm7.35 1.26c.41 0 .74-.336.74-.75a.745.745 0 0 0-.74-.75.745.745 0 0 0-.74.75c0 .414.332.75.74.75z" fill="#CECECE"/><path d="M81.89 133.43a1 1 0 1 1 .002-1.998 1 1 0 0 1-.001 1.998zm0-1.51a.496.496 0 0 0-.464.315.501.501 0 0 0-.035.195.5.5 0 0 0 1 0 .501.501 0 0 0-.5-.51zm7.34 1.26c.409 0 .74-.336.74-.75a.745.745 0 0 0-.74-.75.745.745 0 0 0-.74.75c0 .414.332.75.74.75z" fill="#CECECE"/><path d="M89.23 133.43a1.002 1.002 0 0 1-1-1 .997.997 0 0 1 1-1 .998.998 0 0 1 .708 1.707 1.002 1.002 0 0 1-.707.293zm0-1.51a.498.498 0 0 0-.49.51.5.5 0 0 0 1 0 .498.498 0 0 0-.51-.51zm7.35 1.26c.409 0 .74-.336.74-.75a.745.745 0 0 0-.74-.75.745.745 0 0 0-.74.75c0 .414.331.75.74.75z" fill="#CECECE"/><path d="M96.58 133.43a1 1 0 1 1 .001-2 1 1 0 0 1 0 2zm0-1.51a.496.496 0 0 0-.465.315.503.503 0 0 0-.035.195.5.5 0 0 0 1 0 .501.501 0 0 0-.5-.51zm7.34 1.26c.408 0 .74-.336.74-.75a.745.745 0 0 0-.74-.75.744.744 0 0 0-.74.75c0 .414.331.75.74.75z" fill="#CECECE"/><path d="M103.92 133.43a1.002 1.002 0 0 1-.707-1.707.997.997 0 0 1 1.414 0 .996.996 0 0 1 0 1.414 1.003 1.003 0 0 1-.707.293zm0-1.51a.506.506 0 0 0-.456.318.502.502 0 0 0-.034.192.503.503 0 0 0 .5.5.5.5 0 0 0 .5-.5.507.507 0 0 0-.146-.364.5.5 0 0 0-.364-.146zm-29.38 8.66c.41 0 .74-.336.74-.75a.745.745 0 0 0-.74-.75.745.745 0 0 0-.74.75c0 .414.332.75.74.75z" fill="#CECECE"/><path d="M74.54 140.83a1.005 1.005 0 0 1-.98-1.195 1 1 0 1 1 .98 1.195zm0-1.5a.5.5 0 1 0 .5.5.491.491 0 0 0-.5-.5zm7.35 1.25c.41 0 .74-.336.74-.75a.745.745 0 0 0-.74-.75.745.745 0 0 0-.74.75c0 .414.332.75.74.75z" fill="#CECECE"/><path d="M81.89 140.83a1.005 1.005 0 0 1-.98-1.195 1.001 1.001 0 1 1 .98 1.195zm0-1.5a.505.505 0 0 0-.468.302.499.499 0 0 0 .648.661.506.506 0 0 0 .31-.463.499.499 0 0 0-.49-.5zm7.34 1.25c.409 0 .74-.336.74-.75a.745.745 0 0 0-.74-.75.745.745 0 0 0-.74.75c0 .414.332.75.74.75z" fill="#CECECE"/><path d="M89.23 140.83a1.005 1.005 0 0 1-.98-1.195 1 1 0 1 1 .98 1.195zm0-1.5a.5.5 0 1 0 .5.5.491.491 0 0 0-.5-.5zm7.35 1.25c.409 0 .74-.336.74-.75a.745.745 0 0 0-.74-.75.745.745 0 0 0-.74.75c0 .414.331.75.74.75z" fill="#CECECE"/><path d="M96.58 140.83a1.005 1.005 0 0 1-.98-1.195 1 1 0 1 1 .98 1.195zm0-1.5a.505.505 0 0 0-.502.591.5.5 0 1 0 .502-.591zm7.34 1.25c.408 0 .74-.336.74-.75a.746.746 0 0 0-.74-.75.745.745 0 0 0-.74.75c0 .414.331.75.74.75z" fill="#CECECE"/><path d="M103.92 140.83c-.198 0-.391-.059-.556-.168a1.003 1.003 0 0 1-.151-1.539 1.003 1.003 0 0 1 1.09-.217.997.997 0 0 1 .617.924.997.997 0 0 1-1 1zm0-1.5a.5.5 0 1 0 .5.5.508.508 0 0 0-.035-.193.514.514 0 0 0-.108-.164.514.514 0 0 0-.164-.108.508.508 0 0 0-.193-.035zm-29.38 8.65c.41 0 .74-.335.74-.75a.745.745 0 0 0-.74-.75.745.745 0 0 0-.74.75c0 .415.332.75.74.75z" fill="#CECECE"/><path d="M74.54 148.24a.998.998 0 0 1-.708-1.707 1.002 1.002 0 0 1 1.09-.217 1 1 0 0 1-.383 1.924zm0-1.51a.512.512 0 0 0-.512.607.51.51 0 0 0 1.011-.107.498.498 0 0 0-.5-.5zm7.35 1.25c.41 0 .74-.335.74-.75a.745.745 0 0 0-.74-.75.745.745 0 0 0-.74.75c0 .415.332.75.74.75z" fill="#CECECE"/><path d="M81.89 148.24a.998.998 0 0 1-.707-1.707 1.002 1.002 0 0 1 1.415 0 1 1 0 0 1-.707 1.707zm0-1.51a.51.51 0 1 0 .49.5.5.5 0 0 0-.49-.5zm7.34 1.25c.409 0 .74-.335.74-.75a.745.745 0 0 0-.74-.75.745.745 0 0 0-.74.75c0 .415.332.75.74.75z" fill="#CECECE"/><path d="M89.23 148.24a.998.998 0 0 1-.707-1.707 1.002 1.002 0 0 1 1.09-.217 1 1 0 0 1-.382 1.924zm0-1.51a.512.512 0 0 0-.51.607.51.51 0 0 0 1.01-.107.498.498 0 0 0-.5-.5zm7.35 1.25c.409 0 .74-.335.74-.75a.745.745 0 0 0-.74-.75.745.745 0 0 0-.74.75c0 .415.331.75.74.75z" fill="#CECECE"/><path d="M96.58 148.24a.998.998 0 0 1-1-1 1 1 0 1 1 1 1zm0-1.51a.51.51 0 1 0 .49.5.5.5 0 0 0-.49-.5zm7.34 1.25c.408 0 .74-.335.74-.75a.746.746 0 0 0-.74-.75.745.745 0 0 0-.74.75c0 .415.331.75.74.75z" fill="#CECECE"/><path d="M103.92 148.24a1 1 0 1 1-.002-2.001 1 1 0 0 1 .002 2.001zm0-1.51a.51.51 0 1 0 .5.5.498.498 0 0 0-.5-.5z" fill="#CECECE"/><path d="M68.49 193.65l-53.35-36.3V59.18l56.79 38.63a10 10 0 0 1 4.36 8.25v83.46a4.998 4.998 0 0 1-5.268 4.98 5.01 5.01 0 0 1-2.531-.85z" fill="#fff"/><path d="M71.29 195a5.477 5.477 0 0 1-3.08-1l-53.57-36.38V58.23l57.57 39.16a10.491 10.491 0 0 1 4.58 8.67v83.46a5.521 5.521 0 0 1-5.5 5.5V195zm-2.51-1.79a4.477 4.477 0 0 0 7-3.71v-83.44a9.48 9.48 0 0 0-4.15-7.84l-56-38.1v97l53.15 36.09z" fill="#FF7F57"/><path d="M151.14 31.57c.409 0 .74-.335.74-.75a.745.745 0 0 0-.74-.75.746.746 0 0 0-.74.75c0 .415.332.75.74.75z" fill="#CECECE"/><path d="M151.141 31.81a1.002 1.002 0 0 1-.981-1.195.995.995 0 0 1 .786-.786.997.997 0 0 1 1.026.425 1 1 0 0 1-.831 1.556zm0-1.49a.501.501 0 1 0 .455.309.499.499 0 0 0-.266-.271.487.487 0 0 0-.189-.038zm-.001 8.58c.409 0 .74-.335.74-.75a.745.745 0 0 0-.74-.75.746.746 0 0 0-.74.75c0 .415.332.75.74.75z" fill="#CECECE"/><path d="M151.141 39.15a.998.998 0 0 1-1-1 .998.998 0 0 1 1-1 1 1 0 0 1 0 2zm0-1.49a.501.501 0 1 0 .452.303.479.479 0 0 0-.452-.302zm-.001 8.58c.409 0 .74-.336.74-.75a.745.745 0 0 0-.74-.75.746.746 0 0 0-.74.75c0 .414.332.75.74.75z" fill="#CECECE"/><path d="M151.141 46.49a1.002 1.002 0 0 1-.981-1.195.996.996 0 0 1 .786-.785.997.997 0 0 1 1.026.425 1 1 0 0 1-.831 1.555zm0-1.5a.487.487 0 0 0-.456.31.479.479 0 0 0-.034.19.499.499 0 1 0 .849-.354.492.492 0 0 0-.359-.136v-.01zm7.279-13.42c.408 0 .74-.335.74-.75a.746.746 0 0 0-.74-.75.745.745 0 0 0-.74.75c0 .415.331.75.74.75z" fill="#CECECE"/><path d="M158.42 31.81a1.002 1.002 0 0 1-.981-1.195 1.002 1.002 0 0 1 1.364-.73.998.998 0 0 1 .617.925.998.998 0 0 1-1 1zm0-1.49a.503.503 0 0 0-.469.301.504.504 0 0 0 .102.548.495.495 0 0 0 .546.113.498.498 0 0 0 .311-.462.496.496 0 0 0-.14-.353.494.494 0 0 0-.35-.147zm7.281 1.25c.409 0 .74-.335.74-.75a.745.745 0 0 0-.74-.75.745.745 0 0 0-.74.75c0 .415.331.75.74.75z" fill="#CECECE"/><path d="M165.699 31.81a.996.996 0 0 1-.924-.618 1.002 1.002 0 0 1 1.756-.938.998.998 0 0 1-.125 1.263 1 1 0 0 1-.707.293zm0-1.49a.498.498 0 0 0-.501.59.502.502 0 0 0 .68.372.498.498 0 0 0 .311-.462.478.478 0 0 0-.14-.353.484.484 0 0 0-.35-.147zm-7.279 8.58c.408 0 .74-.335.74-.75a.746.746 0 0 0-.74-.75.745.745 0 0 0-.74.75c0 .415.331.75.74.75z" fill="#CECECE"/><path d="M158.42 39.15a1 1 0 1 1 0-1.998 1 1 0 0 1 0 1.998zm0-1.49a.501.501 0 1 0 .49.49.49.49 0 0 0-.49-.49zm7.281 1.24c.409 0 .74-.335.74-.75a.745.745 0 0 0-.74-.75.745.745 0 0 0-.74.75c0 .415.331.75.74.75z" fill="#CECECE"/><path d="M165.699 39.15a1.001 1.001 0 1 1 .001-2.002 1.001 1.001 0 0 1-.001 2.002zm0-1.49a.498.498 0 0 0-.47.304.5.5 0 1 0 .96.186.489.489 0 0 0-.49-.49zm-7.279 8.58c.408 0 .74-.336.74-.75a.746.746 0 0 0-.74-.75.745.745 0 0 0-.74.75c0 .414.331.75.74.75z" fill="#CECECE"/><path d="M158.42 46.49a1.002 1.002 0 0 1-.981-1.195 1.003 1.003 0 0 1 1.364-.729.996.996 0 0 1 .617.924.998.998 0 0 1-1 1zm0-1.5a.49.49 0 0 0-.49.5.503.503 0 0 0 .5.5.5.5 0 0 0 .461-.692.489.489 0 0 0-.471-.298v-.01zm7.281 1.25c.409 0 .74-.336.74-.75a.745.745 0 0 0-.74-.75.745.745 0 0 0-.74.75c0 .414.331.75.74.75z" fill="#CECECE"/><path d="M165.699 46.49a.996.996 0 0 1-.924-.617 1.003 1.003 0 0 1 1.307-1.306.999.999 0 0 1-.383 1.923zm0-1.5a.49.49 0 0 0-.49.5.5.5 0 1 0 .85-.354.492.492 0 0 0-.36-.136v-.01z" fill="#CECECE"/></svg>