<svg width="200" height="200" viewBox="0 0 200 200" fill="none" xmlns="http://www.w3.org/2000/svg"><path d="M72.18 113.36H14.84v57.34h57.34v-57.34z" fill="#fff"/><path d="M72.68 171.2H14.34v-58.34h58.34v58.34zm-57.34-1h56.34v-56.34H15.34v56.34z" fill="#FF7F57"/><path d="M81.51 104.48H24.17v57.34h57.34v-57.34z" fill="#FF7F57"/><path d="M192.34 67.34c.408 0 .74-.336.74-.75a.746.746 0 0 0-.74-.75.745.745 0 0 0-.74.75c0 .414.331.75.74.75z" fill="#CECECE"/><path d="M192.34 67.59a1.002 1.002 0 0 1-.981-1.195 1.003 1.003 0 0 1 1.364-.729 1.002 1.002 0 0 1 .324 1.63 1 1 0 0 1-.707.294zm0-1.5a.5.5 0 1 0 .5.5.493.493 0 0 0-.5-.5zm-7.321 1.25c.409 0 .74-.336.74-.75a.745.745 0 0 0-.74-.75.746.746 0 0 0-.74.75c0 .414.332.75.74.75z" fill="#CECECE"/><path d="M185 67.59a1.002 1.002 0 0 1-.981-1.195 1.003 1.003 0 0 1 1.364-.729.997.997 0 0 1 .617.924.998.998 0 0 1-1 1zm0-1.5a.5.5 0 1 0 .5.5.508.508 0 0 0-.035-.193.498.498 0 0 0-.465-.307zm-7.311 1.25c.409 0 .74-.336.74-.75a.745.745 0 0 0-.74-.75.746.746 0 0 0-.74.75c0 .414.332.75.74.75z" fill="#CECECE"/><path d="M177.689 67.59a.999.999 0 1 1 0-1.998.999.999 0 0 1 0 1.998zm0-1.5a.501.501 0 1 0-.018 1.002.501.501 0 0 0 .018-1.002zm-7.33 1.25c.409 0 .74-.336.74-.75a.745.745 0 0 0-.74-.75.745.745 0 0 0-.74.75c0 .414.331.75.74.75z" fill="#CECECE"/><path d="M170.359 67.59a.999.999 0 1 1 0-1.998.999.999 0 0 1 0 1.998zm0-1.5a.499.499 0 1 0-.02.997.499.499 0 0 0 .02-.997zm-7.33 1.25c.409 0 .74-.336.74-.75a.745.745 0 0 0-.74-.75.745.745 0 0 0-.74.75c0 .414.331.75.74.75z" fill="#CECECE"/><path d="M163 67.59a1.002 1.002 0 0 1-.981-1.195 1.003 1.003 0 0 1 1.364-.729.997.997 0 0 1 .617.924.998.998 0 0 1-1 1zm0-1.5a.499.499 0 1 0 .49.5.496.496 0 0 0-.14-.353.493.493 0 0 0-.35-.147zm-7.299 1.25c.409 0 .74-.336.74-.75a.745.745 0 0 0-.74-.75.745.745 0 0 0-.74.75c0 .414.331.75.74.75z" fill="#CECECE"/><path d="M155.699 67.59a.996.996 0 0 1-.924-.618 1.003 1.003 0 0 1 1.307-1.306 1 1 0 0 1-.383 1.924zm0-1.5a.499.499 0 1 0 .49.5.478.478 0 0 0-.14-.353.482.482 0 0 0-.35-.147zm36.641-6.14c.408 0 .74-.336.74-.75a.746.746 0 0 0-.74-.75.745.745 0 0 0-.74.75c0 .414.331.75.74.75z" fill="#CECECE"/><path d="M192.34 60.2a1.003 1.003 0 0 1-.924-.617.994.994 0 0 1 .217-1.09 1 1 0 1 1 .707 1.707zm0-1.5a.5.5 0 1 0 .5.5.493.493 0 0 0-.5-.5zm-7.321 1.25c.409 0 .74-.336.74-.75a.745.745 0 0 0-.74-.75.746.746 0 0 0-.74.75c0 .414.332.75.74.75z" fill="#CECECE"/><path d="M185 60.2a1.003 1.003 0 0 1-.924-.617 1.002 1.002 0 0 1 .729-1.364A1 1 0 1 1 185 60.2zm0-1.5a.5.5 0 1 0 .5.5.508.508 0 0 0-.035-.193.497.497 0 0 0-.465-.307zm-7.311 1.25c.409 0 .74-.336.74-.75a.745.745 0 0 0-.74-.75.746.746 0 0 0-.74.75c0 .414.332.75.74.75z" fill="#CECECE"/><path d="M177.689 60.2a1 1 0 1 1 0-1.999 1 1 0 0 1 0 2zm0-1.5a.5.5 0 1 0-.02 1 .5.5 0 0 0 .02-1zm-7.33 1.25c.409 0 .74-.336.74-.75a.745.745 0 0 0-.74-.75.745.745 0 0 0-.74.75c0 .414.331.75.74.75z" fill="#CECECE"/><path d="M170.359 60.2a1 1 0 1 1 0-1.999 1 1 0 0 1 0 2zm0-1.5a.497.497 0 0 0-.501.591.502.502 0 0 0 .39.399.5.5 0 1 0 .111-.99zm-7.33 1.25c.409 0 .74-.336.74-.75a.745.745 0 0 0-.74-.75.745.745 0 0 0-.74.75c0 .414.331.75.74.75z" fill="#CECECE"/><path d="M163 60.2a1.003 1.003 0 0 1-.924-.617 1.002 1.002 0 0 1 .729-1.364A1 1 0 1 1 163 60.2zm0-1.5a.497.497 0 0 0-.469.302.505.505 0 0 0 .102.548.496.496 0 0 0 .546.113.498.498 0 0 0 .311-.463.496.496 0 0 0-.14-.353.496.496 0 0 0-.35-.147zm-7.299 1.25c.409 0 .74-.336.74-.75a.745.745 0 0 0-.74-.75.745.745 0 0 0-.74.75c0 .414.331.75.74.75z" fill="#CECECE"/><path d="M155.699 60.2a.997.997 0 0 1-.924-.617 1.002 1.002 0 0 1 1.756-.938.999.999 0 0 1-.125 1.262 1 1 0 0 1-.707.293zm0-1.5a.497.497 0 0 0-.501.591.502.502 0 0 0 .39.399.5.5 0 0 0 .601-.49.478.478 0 0 0-.14-.353.485.485 0 0 0-.35-.147zm36.641-6.13c.408 0 .74-.336.74-.75a.746.746 0 0 0-.74-.75.745.745 0 0 0-.74.75c0 .414.331.75.74.75z" fill="#CECECE"/><path d="M192.34 52.82a1.002 1.002 0 0 1-.981-1.195 1.003 1.003 0 0 1 1.364-.729 1.003 1.003 0 0 1 .324 1.631 1 1 0 0 1-.707.293zm0-1.51a.508.508 0 0 0-.511.607.514.514 0 0 0 .404.404.51.51 0 1 0 .107-1.01zm-7.321 1.26c.409 0 .74-.336.74-.75a.745.745 0 0 0-.74-.75.746.746 0 0 0-.74.75c0 .414.332.75.74.75z" fill="#CECECE"/><path d="M185 52.82a1.002 1.002 0 0 1-.981-1.195 1.003 1.003 0 0 1 1.364-.729.998.998 0 0 1 .617.924.998.998 0 0 1-1 1zm0-1.51a.508.508 0 0 0-.511.607.51.51 0 0 0 1.011-.107.503.503 0 0 0-.5-.5zm-7.311 1.26c.409 0 .74-.336.74-.75a.745.745 0 0 0-.74-.75.746.746 0 0 0-.74.75c0 .414.332.75.74.75z" fill="#CECECE"/><path d="M177.689 52.82a.999.999 0 1 1 0-1.997.999.999 0 0 1 0 1.997zm0-1.51a.509.509 0 1 0 .49.5.502.502 0 0 0-.49-.5zm-7.33 1.26c.409 0 .74-.336.74-.75a.745.745 0 0 0-.74-.75.745.745 0 0 0-.74.75c0 .414.331.75.74.75z" fill="#CECECE"/><path d="M170.359 52.82a.999.999 0 1 1 0-1.997.999.999 0 0 1 0 1.997zm0-1.51a.507.507 0 0 0-.486.303.506.506 0 0 0 .102.564.51.51 0 1 0 .384-.867zm-7.33 1.26c.409 0 .74-.336.74-.75a.745.745 0 0 0-.74-.75.745.745 0 0 0-.74.75c0 .414.331.75.74.75z" fill="#CECECE"/><path d="M163 52.82a1.002 1.002 0 0 1-.981-1.195 1.003 1.003 0 0 1 1.364-.729.998.998 0 0 1 .617.924.998.998 0 0 1-1 1zm0-1.51a.512.512 0 0 0-.522.6.506.506 0 0 0 .401.41.51.51 0 0 0 .611-.51.499.499 0 0 0-.49-.5zm-7.299 1.26c.409 0 .74-.336.74-.75a.745.745 0 0 0-.74-.75.745.745 0 0 0-.74.75c0 .414.331.75.74.75z" fill="#CECECE"/><path d="M155.699 52.82a.996.996 0 0 1-.924-.617 1.003 1.003 0 0 1 1.307-1.307 1 1 0 0 1-.383 1.924zm0-1.51a.507.507 0 0 0-.486.303.515.515 0 0 0 .102.564.512.512 0 0 0 .792-.079.515.515 0 0 0 .082-.288.499.499 0 0 0-.49-.5zm36.641-6.13c.408 0 .74-.336.74-.75a.746.746 0 0 0-.74-.75.745.745 0 0 0-.74.75c0 .414.331.75.74.75z" fill="#CECECE"/><path d="M192.34 45.43a1.003 1.003 0 0 1-.924-.618.994.994 0 0 1 .217-1.09 1 1 0 1 1 .707 1.708zm0-1.5a.5.5 0 1 0 .5.5.494.494 0 0 0-.5-.5zm-7.321 1.25c.409 0 .74-.336.74-.75a.745.745 0 0 0-.74-.75.746.746 0 0 0-.74.75c0 .414.332.75.74.75z" fill="#CECECE"/><path d="M185 45.43a1.003 1.003 0 0 1-.924-.618 1.002 1.002 0 0 1 .729-1.363 1 1 0 1 1 .195 1.98zm0-1.5a.5.5 0 1 0 .5.5.509.509 0 0 0-.035-.193.497.497 0 0 0-.465-.307zm-7.311 1.25c.409 0 .74-.336.74-.75a.745.745 0 0 0-.74-.75.746.746 0 0 0-.74.75c0 .414.332.75.74.75z" fill="#CECECE"/><path d="M177.689 45.43a1 1 0 1 1 0-2 1 1 0 0 1 0 2zm0-1.5a.5.5 0 1 0-.02 1 .5.5 0 0 0 .02-1zm-7.33 1.25c.409 0 .74-.336.74-.75a.745.745 0 0 0-.74-.75.745.745 0 0 0-.74.75c0 .414.331.75.74.75z" fill="#CECECE"/><path d="M170.359 45.43a1 1 0 1 1 0-2 1 1 0 0 1 0 2zm0-1.5a.498.498 0 0 0-.501.591.502.502 0 0 0 .39.398.5.5 0 1 0 .111-.99zm-7.33 1.25c.409 0 .74-.336.74-.75a.745.745 0 0 0-.74-.75.745.745 0 0 0-.74.75c0 .414.331.75.74.75z" fill="#CECECE"/><path d="M163 45.43a1.003 1.003 0 0 1-.924-.618 1.002 1.002 0 0 1 .729-1.363 1 1 0 1 1 .195 1.98zm0-1.5a.498.498 0 0 0-.469.301.505.505 0 0 0 .102.549.496.496 0 0 0 .546.112.498.498 0 0 0 .311-.462.496.496 0 0 0-.14-.353.496.496 0 0 0-.35-.147zm-7.299 1.25c.409 0 .74-.336.74-.75a.745.745 0 0 0-.74-.75.745.745 0 0 0-.74.75c0 .414.331.75.74.75z" fill="#CECECE"/><path d="M155.699 45.43a.997.997 0 0 1-.924-.618 1.002 1.002 0 0 1 1.756-.938.999.999 0 0 1-.125 1.263 1 1 0 0 1-.707.293zm0-1.5a.498.498 0 0 0-.501.591.502.502 0 0 0 .39.398.5.5 0 0 0 .601-.49.478.478 0 0 0-.14-.352.485.485 0 0 0-.35-.147zm-7.328 23.41c.409 0 .74-.336.74-.75a.745.745 0 0 0-.74-.75.745.745 0 0 0-.74.75c0 .414.331.75.74.75z" fill="#CECECE"/><path d="M148.369 67.59a.996.996 0 0 1-.924-.618 1.003 1.003 0 0 1 1.307-1.306 1 1 0 0 1-.383 1.924zm0-1.5a.499.499 0 1 0 .49.5.496.496 0 0 0-.14-.353.482.482 0 0 0-.35-.147zm-7.328 1.25c.408 0 .74-.336.74-.75a.746.746 0 0 0-.74-.75.745.745 0 0 0-.74.75c0 .414.331.75.74.75z" fill="#CECECE"/><path d="M141 67.59a1.002 1.002 0 0 1-.981-1.195 1.003 1.003 0 0 1 1.364-.729.997.997 0 0 1 .617.924.998.998 0 0 1-1 1zm0-1.5a.499.499 0 1 0 .49.5.496.496 0 0 0-.14-.353.493.493 0 0 0-.35-.147zm7.371-6.14c.409 0 .74-.336.74-.75a.745.745 0 0 0-.74-.75.745.745 0 0 0-.74.75c0 .414.331.75.74.75z" fill="#CECECE"/><path d="M148.369 60.2a.997.997 0 0 1-.924-.617 1.002 1.002 0 0 1 1.756-.938.998.998 0 0 1-.832 1.556zm0-1.5a.497.497 0 0 0-.501.591.502.502 0 0 0 .39.399.5.5 0 0 0 .601-.49.496.496 0 0 0-.14-.353.485.485 0 0 0-.35-.147zm-7.328 1.25c.408 0 .74-.336.74-.75a.746.746 0 0 0-.74-.75.745.745 0 0 0-.74.75c0 .414.331.75.74.75z" fill="#CECECE"/><path d="M141 60.2a1.003 1.003 0 0 1-.924-.617 1.002 1.002 0 0 1 .729-1.364A1 1 0 1 1 141 60.2zm0-1.5a.497.497 0 0 0-.469.302.505.505 0 0 0 .102.548.496.496 0 0 0 .546.113.498.498 0 0 0 .311-.463.496.496 0 0 0-.14-.353.496.496 0 0 0-.35-.147zm7.371-6.13c.409 0 .74-.336.74-.75a.745.745 0 0 0-.74-.75.745.745 0 0 0-.74.75c0 .414.331.75.74.75z" fill="#CECECE"/><path d="M148.369 52.82a.996.996 0 0 1-.924-.617 1.003 1.003 0 0 1 1.307-1.307 1 1 0 0 1-.383 1.924zm0-1.51a.507.507 0 0 0-.486.303.515.515 0 0 0 .102.564.508.508 0 0 0 .792-.079.515.515 0 0 0 .082-.288.499.499 0 0 0-.49-.5zm-7.328 1.26c.408 0 .74-.336.74-.75a.746.746 0 0 0-.74-.75.745.745 0 0 0-.74.75c0 .414.331.75.74.75z" fill="#CECECE"/><path d="M141 52.82a1.002 1.002 0 0 1-.981-1.195 1.003 1.003 0 0 1 1.364-.729.998.998 0 0 1 .617.924.998.998 0 0 1-1 1zm0-1.51a.512.512 0 0 0-.522.6.506.506 0 0 0 .401.41.51.51 0 0 0 .611-.51.499.499 0 0 0-.49-.5zm7.371-6.13c.409 0 .74-.336.74-.75a.745.745 0 0 0-.74-.75.745.745 0 0 0-.74.75c0 .414.331.75.74.75z" fill="#CECECE"/><path d="M148.369 45.43a.997.997 0 0 1-.924-.618 1.002 1.002 0 0 1 1.756-.938.998.998 0 0 1-.832 1.556zm0-1.5a.498.498 0 0 0-.501.591.502.502 0 0 0 .39.398.5.5 0 0 0 .601-.49.496.496 0 0 0-.14-.352.485.485 0 0 0-.35-.147zm-7.328 1.25c.408 0 .74-.336.74-.75a.746.746 0 0 0-.74-.75.745.745 0 0 0-.74.75c0 .414.331.75.74.75z" fill="#CECECE"/><path d="M141 45.43a1.003 1.003 0 0 1-.924-.618 1.002 1.002 0 0 1 .729-1.363 1 1 0 1 1 .195 1.98zm0-1.5a.498.498 0 0 0-.469.301.505.505 0 0 0 .102.549.496.496 0 0 0 .546.112.498.498 0 0 0 .311-.462.496.496 0 0 0-.14-.353.496.496 0 0 0-.35-.147zm51.34-6.14c.408 0 .74-.336.74-.75a.746.746 0 0 0-.74-.75.745.745 0 0 0-.74.75c0 .414.331.75.74.75z" fill="#CECECE"/><path d="M192.34 38a1.002 1.002 0 0 1-.981-1.195 1.002 1.002 0 0 1 1.364-.729 1.003 1.003 0 0 1 .324 1.631 1.001 1.001 0 0 1-.707.293zm0-1.5a.499.499 0 0 0-.344.854.501.501 0 0 0 .854-.354.499.499 0 0 0-.51-.46v-.04zm-7.321 1.29c.409 0 .74-.336.74-.75a.745.745 0 0 0-.74-.75.746.746 0 0 0-.74.75c0 .414.332.75.74.75z" fill="#CECECE"/><path d="M185 38a1.002 1.002 0 0 1-.981-1.195 1.002 1.002 0 0 1 1.364-.729A.998.998 0 0 1 186 37a.998.998 0 0 1-1 1zm0-1.5a.5.5 0 1 0 .51.5.499.499 0 0 0-.51-.46v-.04zm-7.311 1.29c.409 0 .74-.336.74-.75a.745.745 0 0 0-.74-.75.746.746 0 0 0-.74.75c0 .414.332.75.74.75z" fill="#CECECE"/><path d="M177.689 38a.999.999 0 1 1 0-1.998.999.999 0 0 1 0 1.998zm0-1.5a.5.5 0 1 0 .001 1 .5.5 0 0 0-.001-1zm-7.33 1.29c.409 0 .74-.336.74-.75a.745.745 0 0 0-.74-.75.745.745 0 0 0-.74.75c0 .414.331.75.74.75z" fill="#CECECE"/><path d="M170.359 38a.999.999 0 1 1 0-1.998.999.999 0 0 1 0 1.998zm0-1.5a.5.5 0 1 0 .001 1 .5.5 0 0 0-.001-1zm-7.33 1.29c.409 0 .74-.336.74-.75a.745.745 0 0 0-.74-.75.745.745 0 0 0-.74.75c0 .414.331.75.74.75z" fill="#CECECE"/><path d="M163 38a1.002 1.002 0 0 1-.981-1.195 1.002 1.002 0 0 1 1.364-.729A.998.998 0 0 1 164 37a.998.998 0 0 1-1 1zm0-1.5a.5.5 0 1 0 .51.5.499.499 0 0 0-.51-.46v-.04zm-7.299 1.29c.409 0 .74-.336.74-.75a.745.745 0 0 0-.74-.75.745.745 0 0 0-.74.75c0 .414.331.75.74.75z" fill="#CECECE"/><path d="M155.699 38a.996.996 0 0 1-.924-.617 1.002 1.002 0 0 1 1.756-.938.999.999 0 0 1-.125 1.262 1 1 0 0 1-.707.293zm0-1.5a.5.5 0 1 0 .51.5.498.498 0 0 0-.51-.46v-.04zm36.641-6.09c.408 0 .74-.336.74-.75a.745.745 0 0 0-.74-.75.745.745 0 0 0-.74.75c0 .414.331.75.74.75z" fill="#CECECE"/><path d="M192.34 30.66a1.002 1.002 0 0 1-.981-1.195 1.003 1.003 0 0 1 1.364-.729 1.002 1.002 0 0 1 .324 1.631 1.001 1.001 0 0 1-.707.293zm0-1.51a.51.51 0 1 0 .5.51.501.501 0 0 0-.5-.51zm-7.321 1.26c.409 0 .74-.336.74-.75a.745.745 0 0 0-.74-.75.745.745 0 0 0-.74.75c0 .414.332.75.74.75z" fill="#CECECE"/><path d="M185 30.66a1.002 1.002 0 0 1-.981-1.195 1.003 1.003 0 0 1 1.364-.729.997.997 0 0 1 .617.924.998.998 0 0 1-1 1zm0-1.51a.51.51 0 1 0 .5.51.501.501 0 0 0-.5-.51zm-7.311 1.26c.409 0 .74-.336.74-.75a.745.745 0 0 0-.74-.75.745.745 0 0 0-.74.75c0 .414.332.75.74.75z" fill="#CECECE"/><path d="M177.689 30.66a.999.999 0 1 1 0-1.998.999.999 0 0 1 0 1.998zm0-1.51a.509.509 0 1 0 .49.51.486.486 0 0 0-.139-.356.498.498 0 0 0-.351-.154zm-7.33 1.26c.409 0 .74-.336.74-.75a.745.745 0 0 0-.74-.75.745.745 0 0 0-.74.75c0 .414.331.75.74.75z" fill="#CECECE"/><path d="M170.359 30.66a.999.999 0 1 1 0-1.998.999.999 0 0 1 0 1.998zm0-1.51a.509.509 0 1 0 .49.51.486.486 0 0 0-.139-.356.498.498 0 0 0-.351-.154zm-7.33 1.26c.409 0 .74-.336.74-.75a.745.745 0 0 0-.74-.75.745.745 0 0 0-.74.75c0 .414.331.75.74.75z" fill="#CECECE"/><path d="M163 30.66a1.002 1.002 0 0 1-.981-1.195 1.003 1.003 0 0 1 1.364-.729.997.997 0 0 1 .617.924.998.998 0 0 1-1 1zm0-1.51a.512.512 0 0 0-.523.597.511.511 0 1 0 .714-.555.505.505 0 0 0-.191-.042zm-7.299 1.26c.409 0 .74-.336.74-.75a.745.745 0 0 0-.74-.75.745.745 0 0 0-.74.75c0 .414.331.75.74.75z" fill="#CECECE"/><path d="M155.699 30.66a.996.996 0 0 1-.924-.617 1.003 1.003 0 0 1 1.307-1.306 1 1 0 0 1-.383 1.923zm0-1.51a.509.509 0 1 0 .49.51.486.486 0 0 0-.139-.356.51.51 0 0 0-.351-.154zm-7.328 8.64c.409 0 .74-.336.74-.75a.745.745 0 0 0-.74-.75.745.745 0 0 0-.74.75c0 .414.331.75.74.75z" fill="#CECECE"/><path d="M148.369 38a.996.996 0 0 1-.924-.617 1.002 1.002 0 0 1 1.756-.938.998.998 0 0 1-.832 1.556zm0-1.5a.5.5 0 1 0 .51.5.502.502 0 0 0-.51-.46v-.04zm-7.328 1.29c.408 0 .74-.336.74-.75a.746.746 0 0 0-.74-.75.745.745 0 0 0-.74.75c0 .414.331.75.74.75z" fill="#CECECE"/><path d="M141 38a1.002 1.002 0 0 1-.981-1.195 1.002 1.002 0 0 1 1.364-.729A.998.998 0 0 1 142 37a.998.998 0 0 1-1 1zm0-1.5a.5.5 0 1 0 .51.5.499.499 0 0 0-.51-.46v-.04zm7.371-6.09c.409 0 .74-.336.74-.75a.745.745 0 0 0-.74-.75.745.745 0 0 0-.74.75c0 .414.331.75.74.75z" fill="#CECECE"/><path d="M148.369 30.66a.996.996 0 0 1-.924-.617 1.003 1.003 0 0 1 1.307-1.306 1 1 0 0 1-.383 1.923zm0-1.51a.509.509 0 1 0 .49.51.505.505 0 0 0-.299-.468.5.5 0 0 0-.191-.042zm-7.328 1.26c.408 0 .74-.336.74-.75a.745.745 0 0 0-.74-.75.745.745 0 0 0-.74.75c0 .414.331.75.74.75z" fill="#CECECE"/><path d="M141 30.66a1.002 1.002 0 0 1-.981-1.195 1.003 1.003 0 0 1 1.364-.729.997.997 0 0 1 .617.924.998.998 0 0 1-1 1zm0-1.51a.512.512 0 0 0-.523.597.511.511 0 1 0 .714-.555.505.505 0 0 0-.191-.042zm-7.289 38.19c.408 0 .74-.336.74-.75a.746.746 0 0 0-.74-.75.745.745 0 0 0-.74.75c0 .414.331.75.74.75z" fill="#CECECE"/><path d="M133.711 67.59a1.002 1.002 0 0 1-.981-1.195 1.003 1.003 0 0 1 1.364-.729.997.997 0 0 1 .617.924.998.998 0 0 1-1 1zm0-1.5a.504.504 0 0 0-.469.301.504.504 0 0 0 .102.549.496.496 0 0 0 .546.113.498.498 0 0 0 .311-.463.496.496 0 0 0-.14-.353.493.493 0 0 0-.35-.147zm0-6.14c.408 0 .74-.336.74-.75a.746.746 0 0 0-.74-.75.745.745 0 0 0-.74.75c0 .414.331.75.74.75z" fill="#CECECE"/><path d="M133.711 60.2a1.003 1.003 0 0 1-.924-.617 1.002 1.002 0 0 1 .729-1.364 1 1 0 1 1 .195 1.981zm0-1.5a.503.503 0 0 0-.469.302.505.505 0 0 0 .102.548.496.496 0 0 0 .546.113.498.498 0 0 0 .311-.463.496.496 0 0 0-.14-.353.496.496 0 0 0-.35-.147zm0-6.13c.408 0 .74-.336.74-.75a.746.746 0 0 0-.74-.75.745.745 0 0 0-.74.75c0 .414.331.75.74.75z" fill="#CECECE"/><path d="M133.711 52.82a1.002 1.002 0 0 1-.981-1.195 1.003 1.003 0 0 1 1.364-.729.998.998 0 0 1 .617.924.998.998 0 0 1-1 1zm0-1.51a.512.512 0 0 0-.522.6.506.506 0 0 0 .401.41.51.51 0 0 0 .611-.51.499.499 0 0 0-.49-.5zm0-6.13c.408 0 .74-.336.74-.75a.746.746 0 0 0-.74-.75.745.745 0 0 0-.74.75c0 .414.331.75.74.75z" fill="#CECECE"/><path d="M133.711 45.43a1.003 1.003 0 0 1-.924-.618 1.002 1.002 0 0 1 .729-1.363 1 1 0 1 1 .195 1.98zm0-1.5a.503.503 0 0 0-.469.301.505.505 0 0 0 .102.549.496.496 0 0 0 .546.112.498.498 0 0 0 .311-.462.496.496 0 0 0-.14-.353.496.496 0 0 0-.35-.147zm-7.33 23.41c.408 0 .74-.336.74-.75a.746.746 0 0 0-.74-.75.745.745 0 0 0-.74.75c0 .414.331.75.74.75z" fill="#CECECE"/><path d="M126.381 67.59a1.002 1.002 0 0 1-.981-1.195 1.003 1.003 0 0 1 1.364-.729 1.002 1.002 0 0 1 .324 1.63 1 1 0 0 1-.707.294zm0-1.5a.5.5 0 1 0 0 1.001.5.5 0 0 0 0-1.001zm-7.33 1.25c.408 0 .74-.336.74-.75a.746.746 0 0 0-.74-.75.745.745 0 0 0-.74.75c0 .414.331.75.74.75z" fill="#CECECE"/><path d="M119.051 67.59a1.002 1.002 0 0 1-.981-1.195 1.003 1.003 0 0 1 1.363-.729 1 1 0 0 1-.382 1.924zm0-1.5a.5.5 0 1 0 0 1.001.5.5 0 0 0 0-1.001zm7.33-6.14c.408 0 .74-.336.74-.75a.746.746 0 0 0-.74-.75.745.745 0 0 0-.74.75c0 .414.331.75.74.75z" fill="#CECECE"/><path d="M126.381 60.2a1.003 1.003 0 0 1-.924-.617.994.994 0 0 1 .217-1.09 1 1 0 1 1 .707 1.707zm0-1.5a.501.501 0 1 0 0 1.002.501.501 0 0 0 0-1.002zm-7.33 1.25c.408 0 .74-.336.74-.75a.746.746 0 0 0-.74-.75.745.745 0 0 0-.74.75c0 .414.331.75.74.75z" fill="#CECECE"/><path d="M119.051 60.2a1.003 1.003 0 0 1-.924-.617.994.994 0 0 1 .217-1.09 1 1 0 1 1 .707 1.707zm0-1.5a.501.501 0 1 0 0 1.002.501.501 0 0 0 0-1.002zm7.33-6.13c.408 0 .74-.336.74-.75a.746.746 0 0 0-.74-.75.745.745 0 0 0-.74.75c0 .414.331.75.74.75z" fill="#CECECE"/><path d="M126.381 52.82a1.002 1.002 0 0 1-.981-1.195 1.003 1.003 0 0 1 1.364-.729 1.003 1.003 0 0 1 .324 1.631 1 1 0 0 1-.707.293zm0-1.51a.506.506 0 0 0-.41.5.509.509 0 0 0 .41.5.513.513 0 0 0 .409-.5.507.507 0 0 0-.409-.5zm-7.33 1.26c.408 0 .74-.336.74-.75a.746.746 0 0 0-.74-.75.745.745 0 0 0-.74.75c0 .414.331.75.74.75z" fill="#CECECE"/><path d="M119.051 52.82a1.002 1.002 0 0 1-.981-1.195 1.003 1.003 0 0 1 1.363-.729 1 1 0 0 1-.382 1.924zm0-1.51a.506.506 0 0 0-.41.5.509.509 0 0 0 .41.5.513.513 0 0 0 .409-.5.513.513 0 0 0-.409-.5zm7.33-6.13c.408 0 .74-.336.74-.75a.746.746 0 0 0-.74-.75.745.745 0 0 0-.74.75c0 .414.331.75.74.75z" fill="#CECECE"/><path d="M126.381 45.43a1.003 1.003 0 0 1-.924-.618.994.994 0 0 1 .217-1.09 1 1 0 1 1 .707 1.708zm0-1.5a.501.501 0 1 0 0 1.002.501.501 0 0 0 0-1.002zm-7.33 1.25c.408 0 .74-.336.74-.75a.746.746 0 0 0-.74-.75.745.745 0 0 0-.74.75c0 .414.331.75.74.75z" fill="#CECECE"/><path d="M119.051 45.43a1.003 1.003 0 0 1-.924-.618.994.994 0 0 1 .217-1.09 1 1 0 1 1 .707 1.708zm0-1.5a.501.501 0 1 0 0 1.002.501.501 0 0 0 0-1.002zm73.289 38.18c.408 0 .74-.335.74-.75a.745.745 0 0 0-.74-.75.745.745 0 0 0-.74.75c0 .415.331.75.74.75z" fill="#CECECE"/><path d="M192.34 82.36a1.002 1.002 0 0 1-.981-1.195 1.003 1.003 0 0 1 1.364-.729 1.002 1.002 0 0 1 .324 1.631 1.001 1.001 0 0 1-.707.293zm0-1.5a.5.5 0 1 0 .5.5.493.493 0 0 0-.5-.5zm-7.321 1.25c.409 0 .74-.335.74-.75a.745.745 0 0 0-.74-.75.745.745 0 0 0-.74.75c0 .415.332.75.74.75z" fill="#CECECE"/><path d="M185 82.36a1.002 1.002 0 0 1-.981-1.195 1.003 1.003 0 0 1 1.364-.729.997.997 0 0 1 .617.924.998.998 0 0 1-1 1zm0-1.5a.5.5 0 1 0 .5.5.509.509 0 0 0-.035-.193.498.498 0 0 0-.465-.307zm-7.311 1.25c.409 0 .74-.335.74-.75a.745.745 0 0 0-.74-.75.745.745 0 0 0-.74.75c0 .415.332.75.74.75z" fill="#CECECE"/><path d="M177.689 82.36a.999.999 0 1 1 0-1.997.999.999 0 0 1 0 1.997zm0-1.5a.5.5 0 1 0-.02 1 .5.5 0 0 0 .02-1zm-7.33 1.25c.409 0 .74-.335.74-.75a.745.745 0 0 0-.74-.75.745.745 0 0 0-.74.75c0 .415.331.75.74.75z" fill="#CECECE"/><path d="M170.359 82.36a.999.999 0 1 1 0-1.997.999.999 0 0 1 0 1.997zm0-1.5a.498.498 0 0 0-.501.592.502.502 0 0 0 .68.371.498.498 0 0 0 .311-.463.499.499 0 0 0-.49-.5zm-7.33 1.25c.409 0 .74-.335.74-.75a.745.745 0 0 0-.74-.75.745.745 0 0 0-.74.75c0 .415.331.75.74.75z" fill="#CECECE"/><path d="M163 82.36a1.002 1.002 0 0 1-.981-1.195 1.003 1.003 0 0 1 1.364-.729.997.997 0 0 1 .617.924.998.998 0 0 1-1 1zm0-1.5a.498.498 0 0 0-.469.302.504.504 0 0 0 .102.548.496.496 0 0 0 .546.113.498.498 0 0 0 .311-.463.496.496 0 0 0-.14-.353.493.493 0 0 0-.35-.147zm-7.299 1.25c.409 0 .74-.335.74-.75a.745.745 0 0 0-.74-.75.745.745 0 0 0-.74.75c0 .415.331.75.74.75z" fill="#CECECE"/><path d="M155.699 82.36a.996.996 0 0 1-.924-.617 1.003 1.003 0 0 1 1.307-1.306 1 1 0 0 1-.383 1.923zm0-1.5a.498.498 0 0 0-.501.592.502.502 0 0 0 .68.371.498.498 0 0 0 .311-.463.478.478 0 0 0-.14-.353.482.482 0 0 0-.35-.147zm36.641-6.14c.408 0 .74-.336.74-.75a.746.746 0 0 0-.74-.75.745.745 0 0 0-.74.75c0 .414.331.75.74.75z" fill="#CECECE"/><path d="M192.34 75a1.003 1.003 0 0 1-.924-.617.994.994 0 0 1 .217-1.09A1 1 0 1 1 192.34 75zm0-1.51a.51.51 0 1 0 .5.51.507.507 0 0 0-.136-.373.488.488 0 0 0-.364-.157v.02zm-7.321 1.23c.409 0 .74-.336.74-.75a.745.745 0 0 0-.74-.75.746.746 0 0 0-.74.75c0 .414.332.75.74.75z" fill="#CECECE"/><path d="M185 75a1.003 1.003 0 0 1-.924-.617 1.002 1.002 0 0 1 .729-1.364A1 1 0 1 1 185 75zm0-1.51a.51.51 0 1 0 .5.51.507.507 0 0 0-.135-.373.508.508 0 0 0-.365-.157v.02zm-7.311 1.23c.409 0 .74-.336.74-.75a.745.745 0 0 0-.74-.75.746.746 0 0 0-.74.75c0 .414.332.75.74.75z" fill="#CECECE"/><path d="M177.689 75a1 1 0 1 1 0-2 1 1 0 0 1 0 2zm0-1.51a.508.508 0 0 0-.522.597.507.507 0 0 0 .925.199.509.509 0 0 0 .087-.286.487.487 0 0 0-.132-.37.494.494 0 0 0-.358-.16v.02zm-7.33 1.23c.409 0 .74-.336.74-.75a.745.745 0 0 0-.74-.75.745.745 0 0 0-.74.75c0 .414.331.75.74.75z" fill="#CECECE"/><path d="M170.359 75a1 1 0 1 1 0-2 1 1 0 0 1 0 2zm0-1.51a.508.508 0 0 0-.522.597.507.507 0 0 0 .925.199.509.509 0 0 0 .087-.286.495.495 0 0 0-.294-.486.502.502 0 0 0-.196-.044v.02zm-7.33 1.23c.409 0 .74-.336.74-.75a.745.745 0 0 0-.74-.75.745.745 0 0 0-.74.75c0 .414.331.75.74.75z" fill="#CECECE"/><path d="M163 75a1.003 1.003 0 0 1-.924-.617 1.002 1.002 0 0 1 .729-1.364A1 1 0 1 1 163 75zm0-1.51a.511.511 0 0 0-.388.863.51.51 0 0 0 .878-.353.513.513 0 0 0-.132-.37.498.498 0 0 0-.358-.16v.02zm-7.299 1.23c.409 0 .74-.336.74-.75a.745.745 0 0 0-.74-.75.745.745 0 0 0-.74.75c0 .414.331.75.74.75z" fill="#CECECE"/><path d="M155.699 75a.997.997 0 0 1-.924-.617 1.002 1.002 0 0 1 1.756-.938.999.999 0 0 1-.125 1.262 1 1 0 0 1-.707.293zm0-1.51a.508.508 0 0 0-.522.597.51.51 0 0 0 1.012-.087.495.495 0 0 0-.294-.486.502.502 0 0 0-.196-.044v.02zm-7.328 8.62c.409 0 .74-.335.74-.75a.745.745 0 0 0-.74-.75.745.745 0 0 0-.74.75c0 .415.331.75.74.75z" fill="#CECECE"/><path d="M148.369 82.36a.996.996 0 0 1-.924-.617 1.003 1.003 0 0 1 1.307-1.306 1 1 0 0 1-.383 1.923zm0-1.5a.498.498 0 0 0-.501.592.502.502 0 0 0 .68.371.498.498 0 0 0 .311-.463.496.496 0 0 0-.14-.353.482.482 0 0 0-.35-.147zm-7.328 1.25c.408 0 .74-.335.74-.75a.745.745 0 0 0-.74-.75.745.745 0 0 0-.74.75c0 .415.331.75.74.75z" fill="#CECECE"/><path d="M141 82.36a1.002 1.002 0 0 1-.981-1.195 1.003 1.003 0 0 1 1.364-.729.997.997 0 0 1 .617.924.998.998 0 0 1-1 1zm0-1.5a.498.498 0 0 0-.469.302.504.504 0 0 0 .102.548.496.496 0 0 0 .546.113.498.498 0 0 0 .311-.463.496.496 0 0 0-.14-.353.493.493 0 0 0-.35-.147zm7.371-6.14c.409 0 .74-.336.74-.75a.745.745 0 0 0-.74-.75.745.745 0 0 0-.74.75c0 .414.331.75.74.75z" fill="#CECECE"/><path d="M148.369 75a.997.997 0 0 1-.924-.617 1.002 1.002 0 0 1 1.756-.938.998.998 0 0 1-.832 1.556zm0-1.51a.508.508 0 0 0-.522.597.51.51 0 0 0 1.012-.087.495.495 0 0 0-.294-.486.502.502 0 0 0-.196-.044v.02zm-7.328 1.23c.408 0 .74-.336.74-.75a.746.746 0 0 0-.74-.75.745.745 0 0 0-.74.75c0 .414.331.75.74.75z" fill="#CECECE"/><path d="M141 75a1.003 1.003 0 0 1-.924-.617 1.002 1.002 0 0 1 .729-1.364A1 1 0 1 1 141 75zm0-1.51a.511.511 0 0 0-.388.863.51.51 0 0 0 .878-.353.513.513 0 0 0-.132-.37.498.498 0 0 0-.358-.16v.02zm-7.289 1.23c.408 0 .74-.336.74-.75a.746.746 0 0 0-.74-.75.745.745 0 0 0-.74.75c0 .414.331.75.74.75z" fill="#CECECE"/><path d="M133.711 75a1.003 1.003 0 0 1-.924-.617 1.002 1.002 0 0 1 .729-1.364 1 1 0 1 1 .195 1.981zm0-1.51a.511.511 0 0 0-.388.863.51.51 0 0 0 .878-.353.513.513 0 0 0-.132-.37.498.498 0 0 0-.358-.16v.02zm0 8.62c.408 0 .74-.335.74-.75a.745.745 0 0 0-.74-.75.745.745 0 0 0-.74.75c0 .415.331.75.74.75z" fill="#CECECE"/><path d="M133.711 82.36a1.002 1.002 0 0 1-.981-1.195 1.003 1.003 0 0 1 1.364-.729.997.997 0 0 1 .617.924.998.998 0 0 1-1 1zm0-1.5a.503.503 0 0 0-.469.302.504.504 0 0 0 .102.548.496.496 0 0 0 .546.113.498.498 0 0 0 .311-.463.496.496 0 0 0-.14-.353.493.493 0 0 0-.35-.147zm-7.33 1.25c.408 0 .74-.335.74-.75a.745.745 0 0 0-.74-.75.745.745 0 0 0-.74.75c0 .415.331.75.74.75z" fill="#CECECE"/><path d="M126.381 82.36a1.002 1.002 0 0 1-.981-1.195 1.003 1.003 0 0 1 1.364-.729 1.002 1.002 0 0 1 .324 1.631 1.001 1.001 0 0 1-.707.293zm0-1.5a.5.5 0 1 0 0 1.002.5.5 0 0 0 0-1.002zm-7.33 1.25c.408 0 .74-.335.74-.75a.745.745 0 0 0-.74-.75.745.745 0 0 0-.74.75c0 .415.331.75.74.75z" fill="#CECECE"/><path d="M119.051 82.36a1.002 1.002 0 0 1-.981-1.195 1.003 1.003 0 0 1 1.363-.729 1 1 0 0 1-.382 1.924zm0-1.5a.5.5 0 1 0 0 1.002.5.5 0 0 0 0-1.002zm7.33-6.14c.408 0 .74-.336.74-.75a.746.746 0 0 0-.74-.75.745.745 0 0 0-.74.75c0 .414.331.75.74.75z" fill="#CECECE"/><path d="M126.381 75a1 1 0 1 1 0-1.999 1 1 0 0 1 0 1.999zm0-1.51a.506.506 0 0 0-.41.5.508.508 0 0 0 .41.5.512.512 0 0 0 .409-.5.507.507 0 0 0-.409-.5zm-7.33 1.23c.408 0 .74-.336.74-.75a.746.746 0 0 0-.74-.75.745.745 0 0 0-.74.75c0 .414.331.75.74.75z" fill="#CECECE"/><path d="M119.051 75a1.003 1.003 0 0 1-.924-.617.994.994 0 0 1 .217-1.09 1 1 0 1 1 .707 1.707zm0-1.51a.506.506 0 0 0-.41.5.508.508 0 0 0 .41.5.512.512 0 0 0 .409-.5.513.513 0 0 0-.409-.5zm14.66-35.7c.408 0 .74-.336.74-.75a.746.746 0 0 0-.74-.75.745.745 0 0 0-.74.75c0 .414.331.75.74.75z" fill="#CECECE"/><path d="M133.711 38a1.002 1.002 0 0 1-.981-1.195 1.002 1.002 0 0 1 1.364-.729.998.998 0 0 1 .617.924.998.998 0 0 1-1 1zm0-1.5a.499.499 0 0 0-.344.854.501.501 0 0 0 .854-.354.499.499 0 0 0-.51-.46v-.04zm0-6.09c.408 0 .74-.336.74-.75a.745.745 0 0 0-.74-.75.745.745 0 0 0-.74.75c0 .414.331.75.74.75z" fill="#CECECE"/><path d="M133.711 30.66a1.002 1.002 0 0 1-.981-1.195 1.003 1.003 0 0 1 1.364-.729.997.997 0 0 1 .617.924.998.998 0 0 1-1 1zm0-1.51a.512.512 0 0 0-.523.597.511.511 0 1 0 .714-.555.505.505 0 0 0-.191-.042zm-7.33 8.64c.408 0 .74-.336.74-.75a.746.746 0 0 0-.74-.75.745.745 0 0 0-.74.75c0 .414.331.75.74.75z" fill="#CECECE"/><path d="M126.381 38a1.002 1.002 0 0 1-.981-1.195 1.002 1.002 0 0 1 1.364-.729 1.003 1.003 0 0 1 .324 1.631 1.001 1.001 0 0 1-.707.293zm0-1.5a.499.499 0 0 0-.49.5.496.496 0 0 0 .14.353.485.485 0 0 0 .35.147.499.499 0 0 0 .5-.5.51.51 0 0 0-.5-.46v-.04zm-7.33 1.29c.408 0 .74-.336.74-.75a.746.746 0 0 0-.74-.75.745.745 0 0 0-.74.75c0 .414.331.75.74.75z" fill="#CECECE"/><path d="M119.051 38a1.002 1.002 0 0 1-.981-1.195 1.002 1.002 0 0 1 1.363-.729 1 1 0 0 1-.382 1.924zm0-1.5a.499.499 0 0 0-.49.5.478.478 0 0 0 .14.353.485.485 0 0 0 .35.147.499.499 0 0 0 .5-.5.51.51 0 0 0-.5-.46v-.04zm7.33-6.09c.408 0 .74-.336.74-.75a.745.745 0 0 0-.74-.75.745.745 0 0 0-.74.75c0 .414.331.75.74.75z" fill="#CECECE"/><path d="M126.381 30.66a1 1 0 1 1 0-1.999 1 1 0 0 1 0 2zm0-1.51a.506.506 0 0 0-.41.5.508.508 0 0 0 .41.5.513.513 0 0 0 .409-.5.508.508 0 0 0-.409-.5zm-7.33 1.26c.408 0 .74-.336.74-.75a.745.745 0 0 0-.74-.75.745.745 0 0 0-.74.75c0 .414.331.75.74.75z" fill="#CECECE"/><path d="M119.051 30.66a1.002 1.002 0 0 1-.981-1.195 1.003 1.003 0 0 1 1.363-.729 1 1 0 0 1-.382 1.924zm0-1.51a.506.506 0 0 0-.41.5.508.508 0 0 0 .41.5.513.513 0 0 0 .409-.5.513.513 0 0 0-.409-.5z" fill="#CECECE"/><path d="M159.059 49.07H40.449a6 6 0 0 0-6 6v91.72a6 6 0 0 0 6 6h118.61a6 6 0 0 0 6-6V55.07a6 6 0 0 0-6-6z" fill="#fff"/><path d="M159.059 153.28H40.449a6.509 6.509 0 0 1-6.5-6.5V55.07a6.51 6.51 0 0 1 6.5-6.5h118.61a6.51 6.51 0 0 1 6.5 6.5v91.71a6.508 6.508 0 0 1-6.5 6.5zM40.449 49.57a5.5 5.5 0 0 0-5.5 5.5v91.71a5.499 5.499 0 0 0 5.5 5.5h118.61a5.496 5.496 0 0 0 5.5-5.5V55.07a5.498 5.498 0 0 0-5.5-5.5H40.449z" fill="#FF7F57"/><path d="M155.24 101.42h-111A10.319 10.319 0 0 1 34 91.11v-22.2h1v22.2a9.34 9.34 0 0 0 9.32 9.32h111a9.337 9.337 0 0 0 9.32-9.32v-22.2h1v22.2a10.318 10.318 0 0 1-10.4 10.31z" fill="#FF7F57"/><path d="M120.47 171.76a5.99 5.99 0 1 0 0-11.98 5.99 5.99 0 0 0 0 11.98z" fill="#fff"/><path d="M120.479 172.25a6.48 6.48 0 0 1-6.171-4.43 6.48 6.48 0 0 1-.299-2.67 6.412 6.412 0 0 1 2.33-4.38 6.491 6.491 0 0 1 9.13.87 6.485 6.485 0 0 1 .869 6.893 6.487 6.487 0 0 1-5.869 3.717h.01zm0-12a5.483 5.483 0 0 0-4.915 7.889 5.479 5.479 0 0 0 10.402-2.481 5.483 5.483 0 0 0-1.247-3.408 5.49 5.49 0 0 0-4.26-1.96l.02-.04z" fill="#CECECE"/><path d="M30.38 42.33a4.07 4.07 0 1 0 0-8.14 4.07 4.07 0 0 0 0 8.14z" fill="#fff"/><path d="M30.38 42.83a4.56 4.56 0 0 1-4.55-5 4.459 4.459 0 0 1 1.64-3.09 4.57 4.57 0 0 1 6.43.61 4.56 4.56 0 0 1-3.52 7.48zm0-8.14a3.57 3.57 0 1 0 1.518.344c-.478-.226-1-.344-1.528-.344h.01z" fill="#CECECE"/><path d="M99.75 113.61c7.009 0 12.691-5.677 12.691-12.68s-5.682-12.68-12.69-12.68c-7.009 0-12.69 5.677-12.69 12.68s5.681 12.68 12.69 12.68z" fill="#fff"/><path d="M99.77 114.1a13.18 13.18 0 1 1 10.149-21.56 13.165 13.165 0 0 1 1.764 14 13.17 13.17 0 0 1-11.914 7.56zm0-25.35a12.17 12.17 0 1 0 9.409 4.42 12.11 12.11 0 0 0-9.44-4.42h.03z" fill="#CECECE"/><path d="M130.84 118.6l10.82 65.21 12.81-29.84 30.51-5.07-54.14-30.3z" fill="#fff"/><path d="M142.121 184l-1-.11-10.81-65.22.73-.52 54.14 30.31-.16.93-30.24 5-12.66 29.61zm-10.62-64.46l10.37 62.51 12.13-28.28.38-.29 29.1-4.84-51.98-29.1z" fill="#FF7F57"/><path d="M131.257 118.323l-.831.556 23.628 35.375.831-.556-23.628-35.375zm5.464 34.187h-6.58V118.6l1.12 2.53 5.46 31.38z" fill="#FF7F57"/><path d="M94.74 98.91c-.261 0-.522-.02-.78-.06a2.65 2.65 0 0 1-2.11-1.51 3.06 3.06 0 0 1 .55-2.93 6.69 6.69 0 0 1 6.06-2.68 2.62 2.62 0 0 1 2.11 1.52 3.002 3.002 0 0 1-.55 2.92 6.84 6.84 0 0 1-5.28 2.74zm3-6.24A6 6 0 0 0 93.21 95a2.13 2.13 0 0 0-.44 2 1.69 1.69 0 0 0 1.36.91 5.771 5.771 0 0 0 5.08-2.27 2.12 2.12 0 0 0 .44-2 1.68 1.68 0 0 0-1.36-.91 2.874 2.874 0 0 0-.59-.06h.04z" fill="#CECECE"/></svg>