<svg width="198" height="168" viewBox="0 0 198 168" fill="none" xmlns="http://www.w3.org/2000/svg"><path d="M131.639 90.74a.63.63 0 0 1-.62-.62 32.46 32.46 0 0 0-64.54-5 .63.63 0 0 1-1.24-.19 33.71 33.71 0 0 1 67 5.2.627.627 0 0 1-.6.61z" fill="#C1C1C1"/><path d="M150.869 79.35a.619.619 0 0 1-.61-.49 53.18 53.18 0 0 0-51.71-41.66 52.64 52.64 0 0 0-49.22 33.46.624.624 0 0 1-1.16-.46A53.88 53.88 0 0 1 98.549 36a54.43 54.43 0 0 1 52.93 42.64.618.618 0 0 1-.48.74l-.13-.03z" fill="#C1C1C1"/><path d="M172.169 90.74a.629.629 0 0 1-.62-.62 73.001 73.001 0 0 0-143-20.73.625.625 0 1 1-1.2-.35A74.26 74.26 0 0 1 172.8 90.11a.63.63 0 0 1-.63.63zm-91.681 5.79h-4.16a.63.63 0 0 1 0-1.25h4.16a.63.63 0 0 1 0 1.25zM24 96.53H9.42a.63.63 0 1 1 0-1.25H24a.63.63 0 0 1 0 1.25zm165.649 0h-22.52a.633.633 0 0 1-.551-.626.631.631 0 0 1 .551-.625h22.53a.628.628 0 0 1 .393 1.042.628.628 0 0 1-.393.208h-.01zm-45.02 0h-4.75a.633.633 0 0 1-.551-.626.631.631 0 0 1 .551-.625h4.75a.628.628 0 0 1 .393 1.042.628.628 0 0 1-.393.208zm-21.881 0h-4.17a.628.628 0 0 1-.393-1.042.628.628 0 0 1 .393-.209h4.17a.633.633 0 0 1 .551.625.631.631 0 0 1-.551.625z" fill="#C1C1C1"/><path d="M102.069 76c-.1-.2-.1-.4-.2-.5a9.134 9.134 0 0 0-.5-1 5.855 5.855 0 0 0-1.3-1.7 4.519 4.519 0 0 0-1.7-1.1 3.19 3.19 0 0 0-1.4-.3c.27.377.505.779.7 1.2a4.14 4.14 0 0 1 .2 1.6 7.725 7.725 0 0 1-.2 1.5c-.1.3-.1.3-.3.4-15.1 1.1-15.2 13.8-12.6 14h29.5c2.6-.5 2.6-12.9-12.2-14.1zm12.1 12.8h-29.3c-.3-.3-.7-1.6-.1-3.6 1.9-7 10.2-8.1 12.7-8.3h.2l.2-.1a1.191 1.191 0 0 0 .8-1c.209-.578.32-1.186.33-1.8.017-.37-.017-.74-.1-1.1.2.1.3.3.5.4.448.46.85.962 1.2 1.5.2.3.3.6.5.9.2.3.1.3.2.5l.2.6.6.1c6.6.6 11.2 3.7 12.4 8.3.4 1.9 0 3.3-.3 3.5l-.03.1zM85.47 91s-2.4 14.8 12 17.3c.6.6 1.7 1.8 2.1 1.8.4 0 1.5-1.3 2.1-1.8 14.3-2.7 12-17.3 12-17.3h-28.2zm26.6 7.3c-1.5 4.9-5 7.9-10.6 9h-.3l-.2.2-.8.8-.7.7-.7-.7-.8-.8-.2-.2h-.3c-5.5-.9-9.1-3.9-10.6-8.8a18.72 18.72 0 0 1-.7-6.5h26.3a12.93 12.93 0 0 1-.4 6.3zm-28.4 19.14h-.16a.627.627 0 0 1-.382-.293.617.617 0 0 1-.058-.477 4.8 4.8 0 0 0-2.15-5.57 3.198 3.198 0 0 0-4.46.56c-.16.21-.3.44-.44.66-.244.4-.518.781-.82 1.14a2.25 2.25 0 0 1-2.11.91 1.525 1.525 0 0 1-1-.71c-.55-.92-.11-2.36.21-3.4.08-.25.14-.47.18-.63.36-1.82.62-3.47.77-5 .33-3.31.47-7.54-1.37-10.86A7.5 7.5 0 0 0 69.33 91a3.21 3.21 0 0 0-2.33-.12 5.81 5.81 0 0 0-2.54 1.68 7.14 7.14 0 0 0-.83 1.17 4.84 4.84 0 0 1-2.17 2.21 2.22 2.22 0 0 1-2.19-.24 2.66 2.66 0 0 1-.8-1.18 16.084 16.084 0 0 1-.7-2.76c-.12-.65-.24-1.27-.41-1.86a28.563 28.563 0 0 0-1.73-4.64A17.17 17.17 0 0 0 49.54 78c-.26-.17-.539-.31-.83-.42-1.85-.7-3.67.2-4.53 2.22a.634.634 0 0 1-1.18-.46 4.72 4.72 0 0 1 6.11-2.9c.372.142.727.323 1.06.54a18.39 18.39 0 0 1 6.52 7.72 29.821 29.821 0 0 1 1.8 4.84c.19.65.31 1.32.44 2 .135.867.345 1.72.63 2.55.074.245.212.466.4.64a1 1 0 0 0 1 .07 3.8 3.8 0 0 0 1.57-1.7c.285-.49.62-.95 1-1.37a6.999 6.999 0 0 1 3.1-2A4.39 4.39 0 0 1 70 90a8.74 8.74 0 0 1 2.92 3.17c2 3.63 1.86 8.1 1.52 11.59-.16 1.6-.42 3.28-.79 5.14 0 .18-.11.44-.21.74-.19.63-.59 2-.33 2.4 0 0 .06.1.22.13s.67-.22.92-.51c.261-.316.498-.65.71-1 .16-.24.31-.49.48-.72a4.432 4.432 0 0 1 6.15-.88 6.06 6.06 0 0 1 2.69 6.94.622.622 0 0 1-.61.44z" fill="#FF7F57"/><path d="M59.36 139.2a.617.617 0 0 1-.35-.11 3.006 3.006 0 0 1-1.31-2 2.803 2.803 0 0 1 .58-2.17 6.098 6.098 0 0 1 1-.85 17.674 17.674 0 0 0 2.16-1.77 6.581 6.581 0 0 0-2.16.75l-.45.22a25.248 25.248 0 0 1-5 1.63 41.014 41.014 0 0 1-10 .89c-2.79-.06-5.28-.24-7.57-1.72a5.719 5.719 0 0 1-2.56-2.76c-1.57-5.07 4.46-7.57 7.35-8.77 1-.41 1.75-1.06 1.84-1.58 0-.1.07-.39-.42-.82a3.847 3.847 0 0 0-1.31-.66 30.134 30.134 0 0 0-6-1.19c-1.36-.18-2.77-.36-4.15-.67-6.33-1.43-14.01-4.39-14.01-10.39a5.913 5.913 0 0 1 1.85-4.23 8.427 8.427 0 0 1 4-2.07c.45-.1.9-.18 1.36-.25a9.771 9.771 0 0 0 2.41-.6 5.49 5.49 0 0 0 .9-.5 2.24 2.24 0 0 0 1.11-1.85c0-3.41-7-8.54-9.6-10.47l-.84-.62a11.711 11.711 0 0 1-3.65-4.11 7 7 0 0 1-.17-5.53 8.827 8.827 0 0 1 1-1.91c4.1-5.94 13.69.57 14.1.85 1.23.84 2.41 1.77 3.56 2.66a39.315 39.315 0 0 0 6.62 4.48c.458.272 1 .361 1.52.25a1.46 1.46 0 0 0 .79-.83c.226-.526.413-1.067.56-1.62.133-.521.294-1.035.48-1.54a.625.625 0 0 1 1.15.49c-.185.474-.346.958-.48 1.45-.166.611-.376 1.21-.63 1.79a2.657 2.657 0 0 1-1.51 1.47 3.188 3.188 0 0 1-2.48-.31 40.282 40.282 0 0 1-6.83-4.61c-1.13-.88-2.3-1.79-3.5-2.62-.09-.06-9-6.08-12.36-1.17-.347.5-.633 1.04-.85 1.61a5.772 5.772 0 0 0 .15 4.56 10.541 10.541 0 0 0 3.28 3.66l.82.61c3 2.23 10.15 7.44 10.11 11.49a3.45 3.45 0 0 1-1.64 2.86 6.78 6.78 0 0 1-1.1.61c-.869.347-1.78.578-2.71.69-.43.07-.86.14-1.28.24a7.176 7.176 0 0 0-3.4 1.75 4.649 4.649 0 0 0-1.48 3.29c0 5.44 8.25 8.08 13.16 9.17 1.33.3 2.71.48 4 .65a31.56 31.56 0 0 1 6.23 1.25 4.903 4.903 0 0 1 1.74.92 2.09 2.09 0 0 1 .81 2c-.25 1.44-2.05 2.29-2.6 2.52-4.08 1.69-7.71 3.74-6.63 7.25A4.792 4.792 0 0 0 37 133c2 1.31 4.24 1.46 6.92 1.52a39.71 39.71 0 0 0 9.67-.86 24.014 24.014 0 0 0 4.71-1.55l.43-.2c1-.46 2.27-1.1 3.32-.82a1.002 1.002 0 0 1 .81.78c.17.91-1 1.85-2.84 3.19-.32.24-.72.53-.81.62a1.533 1.533 0 0 0-.32 1.19 1.76 1.76 0 0 0 .78 1.17.621.621 0 0 1-.35 1.14l.04.02zm98.141 4.8a.62.62 0 0 1-.43-1.08 7.479 7.479 0 0 0 2-3.09 3.223 3.223 0 0 0-.46-2.32 5.83 5.83 0 0 0-2.25-2 7.058 7.058 0 0 0-1.33-.52 4.837 4.837 0 0 1-2.67-1.56 2.216 2.216 0 0 1-.31-2.18 2.65 2.65 0 0 1 .94-1.07 16.095 16.095 0 0 1 2.51-1.36c.6-.28 1.17-.54 1.7-.85a28.629 28.629 0 0 0 4.07-2.82 17.164 17.164 0 0 0 5.49-7.65c.098-.292.165-.594.2-.9a3.48 3.48 0 0 0-3.26-3.84.627.627 0 0 1-.571-.465.629.629 0 0 1 .761-.775 4.719 4.719 0 0 1 4.32 5.21 5.612 5.612 0 0 1-.26 1.16 18.382 18.382 0 0 1-5.85 8.11 29.826 29.826 0 0 1-4.25 2.94c-.58.34-1.2.63-1.8.91-.805.344-1.578.759-2.31 1.24a1.453 1.453 0 0 0-.52.55.998.998 0 0 0 .17.94 3.788 3.788 0 0 0 2 1.11c.543.152 1.069.36 1.57.62a6.996 6.996 0 0 1 2.72 2.51 4.405 4.405 0 0 1 .56 3.34 8.727 8.727 0 0 1-2.36 3.61.619.619 0 0 1-.38.23z" fill="#FF7F57"/><path d="M113.309 136a.623.623 0 0 1-.56-.34 40.87 40.87 0 0 1-3.32-9.45c-.63-2.72-1.08-5.18-.2-7.76a5.73 5.73 0 0 1 2-3.16c4.53-2.77 8.44 2.45 10.31 5 .65.86 1.44 1.46 2 1.4.1 0 .39 0 .69-.6a3.79 3.79 0 0 0 .32-1.43 30.006 30.006 0 0 0-.32-6.1c-.16-1.36-.33-2.77-.37-4.19-.2-6.59.78-14.77 6.58-16.26a5.9 5.9 0 0 1 4.52.77 8.415 8.415 0 0 1 3 3.36c.21.41.4.83.58 1.26a9.754 9.754 0 0 0 1.18 2.18c.21.272.444.523.7.75a2.235 2.235 0 0 0 2.07.62c3.31-.8 6.56-8.85 7.78-11.88l.4-1c.651-1.74 1.707-3.3 3.08-4.55a7.006 7.006 0 0 1 5.33-1.53c.715.08 1.417.248 2.09.5 6.76 2.51 2.82 13.41 2.65 13.87-.52 1.4-1.12 2.77-1.7 4.1a39.384 39.384 0 0 0-2.71 7.52 2.132 2.132 0 0 0 .13 1.53 1.48 1.48 0 0 0 1 .56c.563.09 1.131.141 1.7.15.556.013 1.11.057 1.66.13a.632.632 0 0 1 .495.968.636.636 0 0 1-.685.272 14.03 14.03 0 0 0-1.52-.11 12.877 12.877 0 0 1-1.89-.17 2.659 2.659 0 0 1-1.8-1.1 3.217 3.217 0 0 1-.408-1.208 3.214 3.214 0 0 1 .098-1.272 40.311 40.311 0 0 1 2.81-7.83c.58-1.31 1.17-2.67 1.68-4 0-.1 3.68-10.19-1.92-12.27a7.462 7.462 0 0 0-1.77-.42 5.781 5.781 0 0 0-4.41 1.24 10.537 10.537 0 0 0-2.74 4.08c-.1.24-.23.56-.39.95-1.41 3.49-4.71 11.67-8.65 12.62a3.446 3.446 0 0 1-3.18-.89 6.821 6.821 0 0 1-.87-.92 10.853 10.853 0 0 1-1.34-2.46c-.17-.4-.35-.8-.55-1.18a7.163 7.163 0 0 0-2.53-2.87 4.647 4.647 0 0 0-3.55-.63c-5.27 1.36-5.8 10-5.64 15 0 1.36.21 2.74.37 4.08.324 2.1.435 4.228.33 6.35a4.86 4.86 0 0 1-.46 1.91 2.086 2.086 0 0 1-1.7 1.27c-1.44.14-2.73-1.42-3.08-1.9-2.65-3.54-5.53-6.55-8.66-4.64a4.795 4.795 0 0 0-1.51 2.5c-.77 2.28-.37 4.46.24 7.08a39.672 39.672 0 0 0 3.22 9.16.626.626 0 0 1 .041.477.614.614 0 0 1-.311.363.6.6 0 0 1-.31.1z" fill="#FF7F57"/><path d="M134.498 138.38a.62.62 0 0 1-.52-1c18-26.83 23.36-47.6 23.41-47.81a.627.627 0 0 1 1.143-.163.627.627 0 0 1 .067.473c-.05.21-5.49 21.17-23.59 48.19a.626.626 0 0 1-.51.31zm-61.248-9a.626.626 0 0 1-.53-.29C61.66 111.88 23 81.5 22.61 81.19a.631.631 0 1 1 .77-1c.39.31 39.21 30.82 50.39 48.2a.628.628 0 0 1-.194.915.639.639 0 0 1-.337.085l.01-.01z" fill="#FF7F57"/></svg>