<svg width="200" height="200" viewBox="0 0 200 200" fill="none" xmlns="http://www.w3.org/2000/svg"><g clip-path="url(#a)"><path fill="#fff" d="M0 0h200v200H0z"/><path d="M176.484 17.174C113.767-21.056 16.128 13.81 4.767 41.373-10.43 78.245 15.15 84.548 19.901 114.76c3.813 24.242-19.993 47.459-6.403 68.86 14.798 23.306 63.853 17.454 82.499 6.425 34.131-20.189 16.917-43.755 33.079-73.164 15.394-28.01 45.408-16.65 62.876-39.059 16.601-21.297 5.59-47.813-15.468-60.65z" fill="url(#b)"/><path d="M67.39 186.491h67.356c6.188 0 11.141-5.47 11.141-12.138V25.65c0-6.667-4.953-12.137-11.141-12.137H67.39c-6.188 0-11.141 5.47-11.141 12.137v148.703c0 6.668 4.953 12.138 11.14 12.138z" fill="#3C67FF" stroke="#000" stroke-width=".838"/><path d="M56.668 30.693h88.799v138.618H56.668V30.693zm50.643-6.071H94.814c-.986 0-1.787-.875-1.787-1.953 0-1.079.8-1.953 1.787-1.953h12.497c.987 0 1.787.874 1.787 1.953 0 1.078-.8 1.953-1.787 1.953zm8.344.002c.987 0 1.788-.875 1.788-1.954 0-1.08-.801-1.954-1.788-1.954s-1.788.875-1.788 1.954.801 1.954 1.788 1.954z" fill="#fff"/><path d="M117.561 130.26H84.574c-3.128 0-5.664-2.772-5.664-6.191s2.536-6.191 5.665-6.191h32.986c3.128 0 5.664 2.772 5.664 6.191s-2.536 6.191-5.664 6.191z" fill="#53D991"/><path d="M117.561 149.348H84.574c-3.128 0-5.664-2.772-5.664-6.191s2.536-6.191 5.665-6.191h32.986c3.128 0 5.664 2.772 5.664 6.191s-2.536 6.191-5.664 6.191zm-34.454-53.75h35.926c.987 0 1.787.874 1.787 1.953 0 1.078-.8 1.953-1.787 1.953H83.107c-.987 0-1.787-.875-1.787-1.953 0-1.079.8-1.953 1.787-1.953zm0-8.561h35.926c.987 0 1.787.875 1.787 1.953 0 1.079-.8 1.953-1.787 1.953H83.107c-.987 0-1.787-.874-1.787-1.953 0-1.078.8-1.953 1.787-1.953z" fill="#3C67FF"/><path d="M114.148 60.55c0 6.82-5.528 12.347-12.347 12.347S89.454 67.369 89.454 60.55s5.528-12.347 12.347-12.347 12.347 5.528 12.347 12.347z" stroke="#000" stroke-width=".838"/><path d="M121.436 158.445c.987 0 1.788-.875 1.788-1.954s-.801-1.954-1.788-1.954-1.788.875-1.788 1.954.801 1.954 1.788 1.954z" fill="#FF7EB8"/><path d="M128.533 37.993h6.976c.988 0 1.787.875 1.787 1.953 0 1.079-.799 1.953-1.787 1.953h-6.976c-.987 0-1.787-.874-1.787-1.953 0-1.078.8-1.953 1.787-1.953zm0 6.665h6.976c.988 0 1.787.875 1.787 1.953 0 1.079-.799 1.954-1.787 1.954h-6.976c-.987 0-1.787-.875-1.787-1.954 0-1.078.8-1.953 1.787-1.953zm45.614 36.619a7.128 7.128 0 1 0 0-14.257 7.128 7.128 0 0 0 0 14.257z" fill="#3C67FF"/><path d="M175.53 137.234a8.51 8.51 0 1 0 0-17.021 8.51 8.51 0 0 0 0 17.021z" fill="#fff" stroke="#002633" stroke-width=".838" stroke-miterlimit="10"/><path d="M30.957 103.829h.212c-3.085 0-5.638-2.553-5.638-5.638s2.553-5.638 5.639-5.638h-.213c3.085 0 5.638 2.553 5.638 5.638.107 3.085-2.447 5.638-5.638 5.638z" fill="#53D991"/><path d="M38.408 54.255H21.166c-1.104 0-2.018-.963-2.018-2.127 0-1.164.914-2.128 2.018-2.128h17.242c1.103 0 2.017.964 2.017 2.128 0 1.164-.913 2.127-2.017 2.127z" fill="#fff" stroke="#002633" stroke-width=".838" stroke-miterlimit="10"/></g><defs><linearGradient id="b" x1="-4.669" y1="143.677" x2="118.042" y2="72.83" gradientUnits="userSpaceOnUse"><stop stop-color="#DCFDEE" stop-opacity="0"/><stop offset=".629" stop-color="#D2F3E4"/></linearGradient><clipPath id="a"><path fill="#fff" d="M0 0h200v200H0z"/></clipPath></defs></svg>