<svg width="493" height="397" viewBox="0 0 493 397" fill="none" xmlns="http://www.w3.org/2000/svg"><path d="M207.561 384.086h-10.588V148.061a5.345 5.345 0 0 1 5.351-5.351 5.345 5.345 0 0 1 5.351 5.351v236.025h-.114z" fill="#53D991"/><path d="M184.788 384.086h-10.589V179.941a5.345 5.345 0 0 1 5.351-5.351 5.345 5.345 0 0 1 5.352 5.351v204.145h-.114z" fill="#002633"/><path d="M162.018 384.086H151.43V199.638a5.345 5.345 0 0 1 5.351-5.351 5.345 5.345 0 0 1 5.351 5.351v184.448h-.114zm68.313 0h-10.589V163.204a5.345 5.345 0 0 1 5.351-5.351 5.345 5.345 0 0 1 5.352 5.351v220.882h-.114z" fill="#53D991"/><path d="M171.129 329.436s1.138-34.157 5.693-78.561c4.554-44.405 45.542-61.483 76.853-86.076h60.913c23.91 13.207 72.869 28.009 91.086 62.166s13.663 155.983 13.663 155.983" stroke="#002633" stroke-width="1.139" stroke-miterlimit="10"/><path d="M313.22 165.823V72.688h-59.775v93.135l15.826 19.014 43.949-19.014z" fill="#fff" stroke="#002633" stroke-width="1.139" stroke-miterlimit="10"/><path d="M279.52 110.375s-49.755 40.419-52.032-19.47c-1.936-53.285 10.361-68.883 59.774-68.086 22.316.341 29.831 21.177 25.96 64.101" fill="#fff"/><path d="M279.52 110.375s-49.755 40.419-52.032-19.47c-1.936-53.285 10.361-68.883 59.774-68.086 22.316.341 29.831 21.177 25.96 64.101" stroke="#002633" stroke-width="1.139" stroke-miterlimit="10"/><path d="M241.036 63.58c-1.253 10.361-7.629 15.826-.57 19.014l.57-19.014z" fill="#fff"/><path d="M241.036 63.58c-1.253 10.361-7.629 15.826-.57 19.014m2.503 4.896s8.539.796 13.321-4.441" stroke="#002633" stroke-width="1.139" stroke-miterlimit="10"/><path d="M266.309 67.451a3.074 3.074 0 1 0-.001-6.149 3.074 3.074 0 0 0 .001 6.149z" fill="#002633"/><path d="M263.575 67.907c4.779 0 8.653-2.141 8.653-4.782s-3.874-4.782-8.653-4.782-8.653 2.14-8.653 4.782c0 2.64 3.874 4.782 8.653 4.782z" stroke="#002633" stroke-width="1.139" stroke-miterlimit="10"/><path d="M312.65 68.362c15.029-46.795-3.075-40.76-3.075-40.76-3.415-12.183-30.741-6.035-30.741-6.035-16.054-14.687-16.851.911-16.851.911-29.489-23.455-26.87 6.49-26.87 6.49s-16.851 8.653-4.327 19.925l8.198-12.98s3.871 11.272 17.306 6.945c0 0 11.272 11.728 25.163 5.238 0 0-1.139 8.767 19.014 18.217 6.604 2.96 12.183 2.05 12.183 2.05z" fill="#fff" stroke="#002633" stroke-width="1.139" stroke-miterlimit="10"/><path d="M294.664 64.377s7.287-11.955 17.42-11.613c10.133.342 12.752 25.162-1.708 31.197" fill="#fff"/><path d="M294.664 64.377s7.287-11.955 17.42-11.613c10.133.342 12.752 25.162-1.708 31.197m-.915-23.797s-6.262 1.594-10.133 13.207" stroke="#002633" stroke-width="1.139" stroke-miterlimit="10"/><path d="M253.561 135.993s11.955 4.212 21.974-11.842c9.792-15.598 8.767-19.81-3.415-8.994-9.451 8.425-19.015 7.856-19.015 7.856l.456 12.98zM235.91 67.452a3.074 3.074 0 1 0 0-6.148 3.074 3.074 0 0 0 0 6.148z" fill="#002633"/><path d="M232.497 67.907c4.778 0 8.653-2.141 8.653-4.782s-3.875-4.782-8.653-4.782c-4.779 0-8.653 2.14-8.653 4.782 0 2.64 3.874 4.782 8.653 4.782zm24.702-18.217s12.98-.91 16.509 5.238m-33.81-5.239s-4.668-.342-9.222.797m41.668 22.204h-16.51a8.163 8.163 0 0 1-8.197-8.198 8.163 8.163 0 0 1 8.197-8.198h16.51a8.163 8.163 0 0 1 8.197 8.198c.114 4.554-3.643 8.197-8.197 8.197z" stroke="#002633" stroke-width="1.139" stroke-miterlimit="10"/><path d="M233.406 72.69h-3.415a8.163 8.163 0 0 1-8.198-8.198 8.163 8.163 0 0 1 8.198-8.198h3.415a8.163 8.163 0 0 1 8.198 8.198 8.163 8.163 0 0 1-8.198 8.197zm8.196-8.199h6.034m33.02 0h14.688" stroke="#002633" stroke-width="1.139" stroke-miterlimit="10"/><path d="M310.034 349.247c-13.094-4.896-20.267-12.297-24.48-4.668-4.212 7.514-5.465 17.192-9.905 25.276-6.035 10.93 5.237 11.613 12.41-4.213 3.757-8.197 4.668-9.905 4.668-9.905s12.069 5.806 16.851 7.4" fill="#fff"/><path d="M310.034 349.247c-13.094-4.896-20.267-12.297-24.48-4.668-4.212 7.514-5.465 17.192-9.905 25.276-6.035 10.93 5.237 11.613 12.41-4.213 3.757-8.197 4.668-9.905 4.668-9.905s12.069 5.806 16.851 7.4" stroke="#002633" stroke-width="1.139" stroke-miterlimit="10"/><path d="M325.974 352.206c-12.183-6.831-18.217-15.143-23.569-8.311-5.351 6.831-7.97 16.168-13.662 23.568-7.629 9.906 4.554 12.866 12.865-2.277 5.238-9.564 11.386-9.108 11.386-9.108" fill="#fff"/><path d="M325.974 352.206c-12.183-6.831-18.217-15.143-23.569-8.311-5.351 6.831-7.97 16.168-13.662 23.568-7.629 9.906 4.554 12.866 12.865-2.277 5.238-9.564 11.386-9.108 11.386-9.108" stroke="#002633" stroke-width="1.139" stroke-miterlimit="10"/><path d="M331.326 351.409c-12.183-12.182-18.787-9.905-23.341 0-4.554 9.906-6.035 13.663-7.629 19.015-1.48 5.351 3.644 8.311 8.881-.797" fill="#fff"/><path d="M331.326 351.409c-12.183-12.182-18.787-9.905-23.341 0-4.554 9.906-6.035 13.663-7.629 19.015-1.48 5.351 3.644 8.311 8.881-.797" stroke="#002633" stroke-width="1.139" stroke-miterlimit="10"/><path d="M330.983 366.667c-3.416-5.352-4.554-9.906-4.554-9.906s-4.896 7.628-10.02 14.004c-5.237 6.604-11.613 7.97-7.059-3.415 4.099-10.134 8.312-19.014 15.143-19.698 9.45-1.024 11.841 2.391 21.974 14.005 10.02 11.385 15.94 15.598 28.123 22.43" fill="#fff"/><path d="M330.983 366.667c-3.416-5.352-4.554-9.906-4.554-9.906s-4.896 7.628-10.02 14.004c-5.237 6.604-11.613 7.97-7.059-3.415 4.099-10.134 8.312-19.014 15.143-19.698 9.45-1.024 11.841 2.391 21.974 14.005 10.02 11.385 15.94 15.598 28.123 22.43m-12.184-108.506v107.367M247.867 173.11s9.336 64.557 76.626-3.074" stroke="#002633" stroke-width="1.139" stroke-miterlimit="10"/><path d="M37.004 254.973c24.707-27.553 60.572-44.86 100.422-44.86 74.462 0 134.806 60.344 134.806 134.807 0 13.549-2.049 26.642-5.693 38.939" fill="#3C67FF" style="mix-blend-mode:multiply"/><path d="M196.973 255.087v111.58" stroke="#002633" stroke-width="1.139" stroke-miterlimit="10"/><path d="M38.143 259.869c-2.163-4.099.797-8.995 5.465-8.995h148.583a23.7 23.7 0 0 1 21.064 12.752l56.928 109.189c2.163 4.099-.797 8.994-5.465 8.994" stroke="#fff" stroke-width="1.139" stroke-miterlimit="10"/><path d="M371.516 375.547H207.562v7.97h163.954v-7.97z" fill="#fff" stroke="#002633" stroke-width="1.139" stroke-miterlimit="10"/><path d="M262.327 384.087h-148.47a23.699 23.699 0 0 1-21.063-12.752L35.866 262.146c-2.164-4.099.797-8.995 5.465-8.995h148.583a23.698 23.698 0 0 1 21.063 12.752l56.929 109.189c2.049 4.099-.911 8.995-5.579 8.995z" fill="#fff" stroke="#002633" stroke-width="1.139" stroke-miterlimit="10"/><path d="M269.27 184.837c17.306-4.212 14.232.342 21.063 17.876 19.014-15.94 33.929-32.677 33.929-32.677s-5.351-12.866-11.385-14.46v5.351l-43.607 23.91z" fill="#fff" stroke="#002633" stroke-width="1.139" stroke-miterlimit="10" stroke-linejoin="round"/><path d="M269.272 184.837c-6.262-2.618-11.614-3.415-15.371 14.005 0 0-6.831-19.014-10.589-28.123 2.278-8.311 9.906-15.143 9.906-15.143l.797 6.832c-.114 0 8.653 12.979 15.257 22.429z" fill="#fff" stroke="#002633" stroke-width="1.139" stroke-miterlimit="10" stroke-linejoin="round"/><path d="M269.27 184.837v15.712m7.06-7.059a2.618 2.618 0 1 0 0-5.236 2.618 2.618 0 0 0 0 5.236z" stroke="#002633" stroke-width="1.139" stroke-miterlimit="10"/><path d="M288.854 279.338c8.803 0 15.94-7.137 15.94-15.94s-7.137-15.94-15.94-15.94-15.94 7.137-15.94 15.94 7.137 15.94 15.94 15.94zM186.382 91.134a7.629 7.629 0 1 0 0-15.258 7.629 7.629 0 0 0 0 15.258zm205.513 51.463c0 14.118-11.386 25.504-25.504 25.504-14.119 0-25.504-11.386-25.504-25.504 0-14.119 11.385-25.504 25.504-25.504v25.504h25.504z" fill="#3C67FF"/><path d="M172.722 162.408a9.11 9.11 0 1 0-.002-18.218 9.11 9.11 0 0 0 .002 18.218zM336.218 9.84a3.756 3.756 0 1 0 0-7.515 3.757 3.757 0 0 0 0 7.515zm77.992 373.336h-17.42a11.71 11.71 0 0 1-11.728-11.727v-47.478h40.989v47.478c0 6.376-5.351 11.727-11.841 11.727z" fill="#fff" stroke="#002633" stroke-width="1.139" stroke-miterlimit="10"/><path d="M370.262 107.757c17.078 0 30.855 13.776 30.855 30.855h-30.855v-30.855z" fill="#53D991"/><path d="M119.209 154.438H67.632c-3.302 0-6.034-2.733-6.034-6.034 0-3.302 2.732-6.035 6.034-6.035h51.577c3.302 0 6.034 2.733 6.034 6.035 0 3.301-2.732 6.034-6.034 6.034z" fill="#fff" stroke="#002633" stroke-width="1.139" stroke-miterlimit="10"/><path d="M49.299 154.438h.228c-3.302 0-6.035-2.733-6.035-6.034 0-3.302 2.733-6.035 6.035-6.035h-.228c3.302 0 6.034 2.733 6.034 6.035.114 3.301-2.618 6.034-6.034 6.034z" fill="#53D991"/><path d="M67.52 165.823h57.383m-57.383 5.693h34.612" stroke="#002633" stroke-width="1.139" stroke-miterlimit="10"/><path d="M5.125 394.675a4.554 4.554 0 1 0 0-9.108 4.554 4.554 0 0 0 0 9.108z" fill="#fff" stroke="#002633" stroke-width="1.139" stroke-miterlimit="10"/><path d="M474.785 384.428h-85.051v9.108h85.051v-9.108z" fill="#002633"/><path d="M389.73 384.428h-88.011v9.108h88.011v-9.108z" fill="#3C67FF"/><path d="M301.72 384.428h-34.954v9.108h34.954v-9.108z" fill="#53D991"/><path d="M266.881 384.428H154.504v9.108h112.377v-9.108zm-112.377 0h-39.508v9.108h39.508v-9.108z" fill="#53D991"/><path d="M114.995 384.428H98.258v9.108h16.737v-9.108z" fill="#3C67FF"/><path d="M98.258 384.428H16.281v9.108h81.977v-9.108z" fill="#3C67FF"/><path d="M486.964 394.675a4.554 4.554 0 1 0 .001-9.109 4.554 4.554 0 0 0-.001 9.109z" fill="#fff" stroke="#002633" stroke-width="1.139" stroke-miterlimit="10"/></svg>