<svg width="42" height="42" viewBox="0 0 42 42" fill="none" xmlns="http://www.w3.org/2000/svg"><path d="M36.389 3.61C34.925 2.297 26.545.328 26.545.328c0 1.313-1.312 3.938-5.578 3.938-4.265 0-5.578-2.625-5.578-3.938 0 0-8.38 1.969-9.843 3.282C4.404 4.633 1.85 10.848.78 13.532l.02.007 6.582 3.91 1.444-3.34v26.907c0 .36.295.656.656.656h22.969c.36 0 .656-.296.656-.656V14.11l1.444 3.34 6.601-3.918c-1.07-2.684-3.622-8.899-4.764-9.922z" fill="#62514B"/><path d="M9.483 41.015V14.11h-.656v26.906c0 .361.295.657.656.657h.656a.658.658 0 0 1-.656-.657zm22.969 0V14.11h.656v26.906a.66.66 0 0 1-.656.657h-.657a.66.66 0 0 0 .657-.657zM1.438 14.188c1.07-2.684 3.622-8.898 4.764-9.922 1.242-1.114 7.462-2.7 9.318-3.155a2.733 2.733 0 0 1-.13-.783S7.01 2.298 5.545 3.61C4.404 4.633 1.85 10.848.78 13.532c-.301.755-.485 1.234-.485 1.234l.74.44c.082-.21.22-.563.402-1.018z" fill="#fff"/><path d="M7.383 17.45l-.525 1.214-6.562-3.898s.184-.48.485-1.234l.02.007 6.582 3.91z" fill="#fff"/><path d="M1.438 14.188l.087-.219-.724-.43-.02-.007c-.301.755-.485 1.234-.485 1.234l.74.44c.082-.21.22-.563.402-1.018z" fill="#fff"/><path d="M15.39.328h11.155c0 1.313-1.312 3.938-5.578 3.938-4.265 0-5.578-2.625-5.578-3.938z" fill="#FFCE54"/><path d="M15.39.328h11.155c0 1.313-1.312 3.938-5.578 3.938-4.265 0-5.578-2.625-5.578-3.938zm26.25 14.438l-6.563 3.898-.525-1.214 6.601-3.918c.302.755.486 1.234.486 1.234z" fill="#fff"/><path opacity=".3" d="M1.438 14.188l.087-.219-.724-.43-.02-.007c-.301.755-.485 1.234-.485 1.234l.74.44c.082-.21.22-.563.402-1.018z" fill="#fff"/><path d="M20.639 23.953a5.906 5.906 0 1 0 0-11.812 5.906 5.906 0 0 0 0 11.812zm19.924-9.765c-1.07-2.684-3.623-8.899-4.765-9.922-1.242-1.114-7.462-2.7-9.318-3.155.088-.286.13-.555.13-.783 0 0 8.381 1.97 9.845 3.282 1.142 1.023 3.694 7.238 4.764 9.922.302.755.486 1.234.486 1.234l-.74.44c-.083-.21-.22-.563-.403-1.018z" fill="#fff"/><path d="M25.266.657h-8.532a.328.328 0 1 1 0-.657h8.532a.328.328 0 1 1 0 .657z" fill="url(#a)"/><path d="M21 4.594c-4.303 0-5.906-2.616-5.906-4.266a.328.328 0 1 1 .656 0c0 .937.965 3.61 5.25 3.61s5.25-2.673 5.25-3.61a.328.328 0 1 1 .656 0c0 1.65-1.603 4.266-5.906 4.266z" fill="url(#b)"/><path d="M33.14 41.344a.328.328 0 0 1-.328-.329V14.11a.328.328 0 1 1 .657 0v26.906a.328.328 0 0 1-.328.329z" fill="url(#c)"/><path d="M41.672 15.094a.328.328 0 0 1-.307-.21c-1.045-2.718-4.01-9.997-5.162-11.03-1.149-1.031-7.391-2.664-9.7-3.206a.328.328 0 0 1 .15-.64c.346.082 8.48 2.004 9.988 3.357 1.504 1.35 5.181 10.878 5.337 11.283a.329.329 0 0 1-.306.446z" fill="url(#d)"/><path d="M35.11 18.99a.328.328 0 0 1-.168-.61l6.562-3.896a.327.327 0 1 1 .335.564l-6.562 3.896a.325.325 0 0 1-.168.047z" fill="url(#e)"/><path d="M35.11 18.99a.328.328 0 0 1-.302-.198L32.84 14.24a.328.328 0 0 1 .603-.26l1.968 4.553a.328.328 0 0 1-.3.458z" fill="url(#f)"/><path d="M32.484 42a.328.328 0 1 1 0-.657.328.328 0 0 0 .328-.328.328.328 0 1 1 .657 0 .985.985 0 0 1-.985.985z" fill="url(#g)"/><path d="M8.86 41.344a.328.328 0 0 1-.329-.329V14.11a.328.328 0 1 1 .657 0v26.906a.328.328 0 0 1-.328.329z" fill="url(#h)"/><path d="M.329 15.094a.329.329 0 0 1-.306-.446c.155-.404 3.832-9.932 5.336-11.282C6.867 2.013 15.002.09 15.347.009a.328.328 0 0 1 .15.64c-2.308.542-8.55 2.175-9.7 3.205-1.15 1.034-4.117 8.313-5.162 11.03a.328.328 0 0 1-.306.21z" fill="url(#i)"/><path d="M6.89 18.99a.325.325 0 0 1-.167-.046L.161 15.048a.327.327 0 1 1 .335-.564l6.562 3.896a.327.327 0 0 1-.167.61z" fill="url(#j)"/><path d="M6.89 18.99a.329.329 0 0 1-.3-.458l1.968-4.553a.328.328 0 0 1 .603.26l-1.969 4.553a.328.328 0 0 1-.301.198z" fill="url(#k)"/><path d="M9.516 42a.985.985 0 0 1-.985-.985.328.328 0 1 1 .657 0c0 .181.147.328.328.328a.328.328 0 1 1 0 .657z" fill="url(#l)"/><path d="M32.484 42H9.516a.328.328 0 1 1 0-.657h22.968a.328.328 0 1 1 0 .657z" fill="url(#m)"/><path d="M31.828 40.687H10.172a.328.328 0 1 1 0-.656h21.656a.328.328 0 1 1 0 .656z" fill="url(#n)"/><path d="M7.416 17.776a.325.325 0 0 1-.167-.046L.667 13.822a.327.327 0 1 1 .335-.564l6.582 3.908a.327.327 0 0 1-.168.61z" fill="url(#o)"/><path d="M34.584 17.776a.328.328 0 0 1-.168-.61l6.6-3.918a.328.328 0 0 1 .335.564l-6.6 3.918a.327.327 0 0 1-.167.046z" fill="url(#p)"/><path d="M16.75 22.79a.325.325 0 0 1-.218-.082 6.24 6.24 0 0 1-2.094-4.661 6.241 6.241 0 0 1 7.614-6.082c.177.04.287.216.247.393a.325.325 0 0 1-.392.247 5.585 5.585 0 0 0-6.813 5.441 5.58 5.58 0 0 0 1.874 4.17.328.328 0 0 1-.218.575z" fill="url(#q)"/><path d="M20.672 24.281c-.47 0-.936-.052-1.386-.154a.328.328 0 0 1-.247-.393c.04-.176.21-.29.393-.247a5.584 5.584 0 0 0 6.818-5.44 5.588 5.588 0 0 0-1.858-4.157.328.328 0 0 1 .438-.489 6.247 6.247 0 0 1 2.076 4.646 6.241 6.241 0 0 1-6.234 6.234z" fill="url(#r)"/><path d="M21.985 19.688a.327.327 0 0 1-.232-.096l-2.625-2.625a.328.328 0 1 1 .463-.464l2.625 2.625a.328.328 0 0 1-.232.56z" fill="url(#s)"/><path d="M19.36 17.063a.328.328 0 0 1-.232-.56L25.69 9.94a.328.328 0 1 1 .464.464l-6.563 6.563a.328.328 0 0 1-.232.096z" fill="url(#t)"/><path d="M16.078 25.594a.327.327 0 0 1-.232-.56l5.906-5.907a.328.328 0 1 1 .464.464l-5.906 5.906a.327.327 0 0 1-.232.097z" fill="url(#u)"/><path d="M21.984 1.969h-1.969a.328.328 0 1 1 0-.657h1.97a.328.328 0 1 1 0 .657z" fill="url(#v)"/><defs><linearGradient id="a" x1="16.406" x2="25.594" gradientUnits="userSpaceOnUse"><stop stop-color="#F96D8C"/><stop offset="1" stop-color="#FBD862"/></linearGradient><linearGradient id="b" x1="15.094" x2="26.906" gradientUnits="userSpaceOnUse"><stop stop-color="#F96D8C"/><stop offset="1" stop-color="#FBD862"/></linearGradient><linearGradient id="c" x1="32.813" y1="13.781" x2="33.469" y2="13.781" gradientUnits="userSpaceOnUse"><stop stop-color="#F96D8C"/><stop offset="1" stop-color="#FBD862"/></linearGradient><linearGradient id="d" x1="26.25" x2="42" gradientUnits="userSpaceOnUse"><stop stop-color="#F96D8C"/><stop offset="1" stop-color="#FBD862"/></linearGradient><linearGradient id="e" x1="34.781" y1="14.438" x2="42" y2="14.438" gradientUnits="userSpaceOnUse"><stop stop-color="#F96D8C"/><stop offset="1" stop-color="#FBD862"/></linearGradient><linearGradient id="f" x1="32.812" y1="13.781" x2="35.438" y2="13.781" gradientUnits="userSpaceOnUse"><stop stop-color="#F96D8C"/><stop offset="1" stop-color="#FBD862"/></linearGradient><linearGradient id="g" x1="32.156" y1="40.687" x2="33.469" y2="40.687" gradientUnits="userSpaceOnUse"><stop stop-color="#F96D8C"/><stop offset="1" stop-color="#FBD862"/></linearGradient><linearGradient id="h" x1="8.531" y1="13.781" x2="9.188" y2="13.781" gradientUnits="userSpaceOnUse"><stop stop-color="#F96D8C"/><stop offset="1" stop-color="#FBD862"/></linearGradient><linearGradient id="i" y1=".001" x2="15.75" y2=".001" gradientUnits="userSpaceOnUse"><stop stop-color="#F96D8C"/><stop offset="1" stop-color="#FBD862"/></linearGradient><linearGradient id="j" y1="14.438" x2="7.219" y2="14.438" gradientUnits="userSpaceOnUse"><stop stop-color="#F96D8C"/><stop offset="1" stop-color="#FBD862"/></linearGradient><linearGradient id="k" x1="6.563" y1="13.781" x2="9.188" y2="13.781" gradientUnits="userSpaceOnUse"><stop stop-color="#F96D8C"/><stop offset="1" stop-color="#FBD862"/></linearGradient><linearGradient id="l" x1="8.531" y1="40.687" x2="9.844" y2="40.687" gradientUnits="userSpaceOnUse"><stop stop-color="#F96D8C"/><stop offset="1" stop-color="#FBD862"/></linearGradient><linearGradient id="m" x1="9.188" y1="41.343" x2="32.813" y2="41.343" gradientUnits="userSpaceOnUse"><stop stop-color="#F96D8C"/><stop offset="1" stop-color="#FBD862"/></linearGradient><linearGradient id="n" x1="9.844" y1="40.031" x2="32.156" y2="40.031" gradientUnits="userSpaceOnUse"><stop stop-color="#F96D8C"/><stop offset="1" stop-color="#FBD862"/></linearGradient><linearGradient id="o" x1=".506" y1="13.212" x2="7.745" y2="13.212" gradientUnits="userSpaceOnUse"><stop stop-color="#F96D8C"/><stop offset="1" stop-color="#FBD862"/></linearGradient><linearGradient id="p" x1="34.255" y1="13.202" x2="41.512" y2="13.202" gradientUnits="userSpaceOnUse"><stop stop-color="#F96D8C"/><stop offset="1" stop-color="#FBD862"/></linearGradient><linearGradient id="q" x1="14.438" y1="11.813" x2="22.307" y2="11.813" gradientUnits="userSpaceOnUse"><stop stop-color="#F96D8C"/><stop offset="1" stop-color="#FBD862"/></linearGradient><linearGradient id="r" x1="19.031" y1="13.317" x2="26.906" y2="13.317" gradientUnits="userSpaceOnUse"><stop stop-color="#F96D8C"/><stop offset="1" stop-color="#FBD862"/></linearGradient><linearGradient id="s" x1="19.031" y1="16.407" x2="22.313" y2="16.407" gradientUnits="userSpaceOnUse"><stop stop-color="#F96D8C"/><stop offset="1" stop-color="#FBD862"/></linearGradient><linearGradient id="t" x1="19.031" y1="9.844" x2="26.25" y2="9.844" gradientUnits="userSpaceOnUse"><stop stop-color="#F96D8C"/><stop offset="1" stop-color="#FBD862"/></linearGradient><linearGradient id="u" x1="15.75" y1="19.031" x2="22.312" y2="19.031" gradientUnits="userSpaceOnUse"><stop stop-color="#F96D8C"/><stop offset="1" stop-color="#FBD862"/></linearGradient><linearGradient id="v" x1="19.687" y1="1.313" x2="22.313" y2="1.313" gradientUnits="userSpaceOnUse"><stop stop-color="#F96D8C"/><stop offset="1" stop-color="#FBD862"/></linearGradient></defs></svg>