<svg width="46" height="46" viewBox="0 0 46 46" fill="none" xmlns="http://www.w3.org/2000/svg"><g clip-path="url(#a)"><path d="M8.454 15.16C8.454 7.162 14.939.677 22.938.677c8 0 14.485 6.485 14.485 14.485 0 10.77-6.486 18.94-14.485 18.94-8 0-14.484-8.789-14.484-18.94z" fill="#fff"/><path d="M8.445 16.322c0-7.526 6.054-13.627 13.522-13.627s13.521 6.101 13.521 13.627c0 10.132-6.053 17.819-13.521 17.819-7.468 0-13.522-8.27-13.522-17.82z" fill="url(#b)"/><path d="M28.08 32.117c-8 0-14.485-8.79-14.485-18.94C13.595 8 16.309 3.46 20.391.9 13.606 2.103 8.454 8.03 8.454 15.16c0 10.152 6.485 18.942 14.484 18.942 2.42 0 4.702-.75 6.707-2.091-.514.07-1.037.106-1.566.106zm-7.89 4.208h5.373a1.111 1.111 0 1 0 0-2.223H20.19a1.111 1.111 0 1 0 0 2.223z" fill="#62514B"/><path d="M29.855 13.295a2.796 2.796 0 1 0 0-5.592 2.796 2.796 0 0 0 0 5.592z" fill="#fff"/><path d="M22.822 1.353c7.78-.062 14.032 6.388 13.922 14.168-.073 5.107-1.688 9.863-4.476 13.203a.677.677 0 0 0 1.043.863c1.421-1.7 2.555-3.717 3.375-6.004.886-2.47 1.36-5.138 1.409-7.934C38.245 7.175 31.513.054 23.038 0c-3.25-.02-6.325.96-8.934 2.838a.677.677 0 0 0-.136.97c.223.282.63.342.921.132a13.647 13.647 0 0 1 7.933-2.587z" fill="url(#c)"/><path d="M38.165 45.05c-.066-.148-1.632-3.62-4.383-4.46-1.762-.538-2.603-.45-3.876-.317-.705.073-1.581.164-2.883.164-1.337 0-2.285-.452-2.897-1.384-.417-.634-.611-1.39-.697-2.052h2.094c.943 0 1.754-.714 1.823-1.654a1.778 1.778 0 0 0-.384-1.244 13.532 13.532 0 0 0 3.998-2.213.678.678 0 0 0 .092-.977.675.675 0 0 0-.928-.087c-2.148 1.703-4.62 2.599-7.186 2.599-3.625 0-7.071-1.916-9.702-5.395-2.61-3.45-4.106-8.142-4.106-12.87a13.72 13.72 0 0 1 3.53-9.22.677.677 0 0 0-1.011-.899 15.064 15.064 0 0 0-3.872 10.12c0 5.09 1.556 9.95 4.38 13.685 1.893 2.504 4.189 4.272 6.687 5.194a1.78 1.78 0 0 0-.44 1.264c.049.96.87 1.697 1.83 1.697h1.834c.093.863.339 1.9.927 2.796.858 1.304 2.25 1.994 4.028 1.994 1.372 0 2.288-.096 3.023-.172 1.187-.124 1.841-.193 3.342.266 2.156.658 3.527 3.683 3.54 3.713a.677.677 0 1 0 1.237-.549zm-18.41-9.837c0-.24.195-.435.435-.435h5.373a.436.436 0 0 1 0 .87H20.19a.436.436 0 0 1-.435-.435z" fill="url(#d)"/></g><defs><linearGradient id="b" x1="8.445" y1="2.695" x2="35.488" y2="2.695" gradientUnits="userSpaceOnUse"><stop stop-color="#F96D8C"/><stop offset="1" stop-color="#FBD862"/></linearGradient><linearGradient id="c" x1="13.822" x2="38.097" gradientUnits="userSpaceOnUse"><stop stop-color="#F96D8C"/><stop offset="1" stop-color="#FBD862"/></linearGradient><linearGradient id="d" x1="7.777" y1="4.816" x2="38.223" y2="4.816" gradientUnits="userSpaceOnUse"><stop stop-color="#F96D8C"/><stop offset="1" stop-color="#FBD862"/></linearGradient><clipPath id="a"><path fill="#fff" d="M0 0h46v46H0z"/></clipPath></defs></svg>