<svg width="24" height="24" viewBox="0 0 24 24" fill="none" xmlns="http://www.w3.org/2000/svg"><path d="M11.775 0C5.269 0 0 5.269 0 11.775S5.287 23.55 11.775 23.55c6.487 0 11.775-5.288 11.775-11.775C23.55 5.287 18.281 0 11.775 0zm0 1.425c2.55 0 4.875.919 6.675 2.456L15.6 6.713a6.354 6.354 0 0 0-3.825-1.294A6.313 6.313 0 0 0 7.95 6.713L5.1 3.88a10.324 10.324 0 0 1 6.675-2.456zm4.912 10.35c0 2.7-2.193 4.912-4.912 4.912a4.917 4.917 0 0 1-4.913-4.912c0-2.7 2.213-4.913 4.913-4.913s4.912 2.213 4.912 4.913zm-15.262 0c0-2.644.994-5.063 2.644-6.881L6.9 7.725a6.304 6.304 0 0 0-1.463 4.05c0 1.444.488 2.775 1.294 3.825l-2.85 2.85a10.324 10.324 0 0 1-2.456-6.675zm10.35 10.35c-2.644 0-5.063-.994-6.881-2.644l2.831-2.831a6.303 6.303 0 0 0 4.05 1.463 6.266 6.266 0 0 0 4.05-1.463l2.831 2.831a10.298 10.298 0 0 1-6.881 2.644zm7.894-3.675l-2.832-2.85a6.354 6.354 0 0 0 1.294-3.825 6.266 6.266 0 0 0-1.462-4.05L19.5 4.894c1.631 1.837 2.644 4.237 2.644 6.881a10.443 10.443 0 0 1-2.475 6.675z" fill="#369CB7"/></svg>