<svg width="371" height="372" viewBox="0 0 371 372" fill="none" xmlns="http://www.w3.org/2000/svg"><path d="M370.001 148.008L261.059 87.812l-58.125 105.195 108.942 60.196 58.125-105.195z" fill="#fff" stroke="#D9D9FC" stroke-miterlimit="10"/><path d="M264.175 98.828a2.519 2.519 0 0 0 3.422-.99 2.52 2.52 0 0 0-.983-3.425 2.52 2.52 0 0 0-3.423.99 2.52 2.52 0 0 0 .984 3.425z" fill="#E7EBFF"/><path d="M273.261 103.847a2.519 2.519 0 0 0 3.423-.99 2.519 2.519 0 0 0-.983-3.425 2.52 2.52 0 0 0-3.423.99 2.52 2.52 0 0 0 .983 3.425z" fill="#D9D9FC"/><path d="M282.349 108.871a2.52 2.52 0 0 0 3.423-.99 2.519 2.519 0 0 0-.983-3.425 2.52 2.52 0 0 0-3.423.99 2.52 2.52 0 0 0 .983 3.425z" fill="#FFC727"/><path d="M255.631 97.637l108.942 60.195" stroke="#D9D9FC" stroke-miterlimit="10"/><path d="M261.018 204.208l42.629 23.555c1.983 1.095 4.55.353 5.648-1.634l13.967-25.278c1.098-1.987.36-4.555-1.622-5.651l-42.63-23.555c-1.983-1.095-4.55-.353-5.648 1.634l-13.967 25.278a4.154 4.154 0 0 0 1.623 5.651z" fill="#E7EBFF"/><path d="M310.573 223.812l-.21 11.051c-.016 1.72-2.217 2.449-3.313 1.051l-8.197-10.797 11.72-1.305z" fill="#E7EBFF"/><path d="M316.269 199.584l-38.058-21.029-.336.607 38.059 21.029.335-.607zm-20.917-7.163l-19.001-10.499-.336.607 19.002 10.499.335-.607zm7.822 13.036l-30.513-16.859-.335.607 30.512 16.859.336-.607zm5.715 7.482l-38.058-21.029-.335.607 38.058 21.029.335-.607zm-1.859 3.367l-38.058-21.029-.336.607 38.058 21.029.336-.607zm-27.221-10.717l-12.667-6.999-.336.607 12.668 6.999.335-.607z" fill="#fff"/><path d="M294.718 167.931l-42.629-23.554c-1.983-1.096-2.72-3.665-1.623-5.652l11.162-20.2c1.098-1.986 3.665-2.729 5.648-1.634l42.629 23.555c1.983 1.096 2.72 3.664 1.622 5.651l-11.161 20.2c-1.128 2.042-3.61 2.76-5.648 1.634z" fill="#D9D9FC"/><path d="M251.718 136.463l-9.244 6.059c-1.447.929-.894 3.18.874 3.364l13.503 1.194-5.133-10.617z" fill="#D9D9FC"/><path d="M289.642 135.877l-22.746-12.568-.336.607 22.747 12.568.335-.607zm13.451 11.828l-38.058-21.029-.335.607 38.058 21.029.335-.607zm-1.83 3.312l-38.058-21.029-.335.607 38.058 21.029.335-.607zm-9.129-.65l-30.788-17.012-.336.608 30.788 17.011.336-.607zm5.407 7.381l-38.058-21.029-.335.607 38.058 21.029.335-.607zm-25.786-9.926l-14.1-7.791-.335.607 14.099 7.791.336-.607z" fill="#fff"/><path d="M300.414 35.648h-2.491v27.656h2.491V35.648zm-3.643 0v27.656l-12.745-3.265-3.641-.96V39.874l9.583-2.497 6.803-1.729z" fill="#E7EBFF"/><path d="M289.969 37.375l-5.942 22.663-3.641-.96V39.871l9.583-2.497z" fill="#D1CFE8"/><path d="M273.39 71.563h-35.36a6.878 6.878 0 0 1-6.9-6.914V34.305a6.878 6.878 0 0 1 6.9-6.914h35.36c3.833 0 6.9 3.073 6.9 6.914v30.344c.096 3.841-3.067 6.914-6.9 6.914z" fill="#E7EBFF"/><path d="M85.802 133.82H37.097c-2.265 0-4.153-1.892-4.153-4.162v-50.57c0-2.27 1.888-4.162 4.153-4.162h48.705c2.265 0 4.153 1.891 4.153 4.162v50.57c.063 2.27-1.825 4.162-4.153 4.162z" fill="#D9D9FC"/><path d="M74.097 81.863H53.709v.694h20.388v-.694zm6.67 3.785H53.709v.694h27.058v-.694zm-33.225-3.785h-6.984v7h6.984v-7zM83.599 94.54h-29.89v.693h29.89v-.694zm-14.348 3.784H53.71v.694h15.542v-.694zM47.542 94.54h-6.984v6.998h6.984v-6.999zm29.386 12.671H53.71v.694h23.22v-.694zm7.866 3.848H53.71v.693h31.085v-.693zm-37.252-3.848h-6.984v6.999h6.984v-6.999zm32.407 12.676h-26.24v.693h26.24v-.693zm-12.019 3.847H53.71v.694h14.22v-.694zm-20.388-3.847h-6.984v6.999h6.984v-6.999z" fill="#fff"/><path d="M42.446 85.08l1.888 2.522 5.663-7.567m-7.551 17.591l1.888 2.523 5.663-7.567" stroke="#E7EBFF" stroke-miterlimit="10" stroke-linecap="round" stroke-linejoin="round"/><path d="M206.927 242.683l-16.078 58.747 56.57 9.807 4.961-60.674-45.453-7.88z" fill="#FFC627"/><path d="M215.776 249.936c.169-.979 1.292-1.625 2.436-1.427 1.145.198 1.984 1.185 1.815 2.164-.17.979-1.293 1.625-2.437 1.427-1.145-.198-1.984-1.185-1.814-2.164zm2.323-.774c-.817-.142-1.556.235-1.669.887-.114.653.456 1.256 1.273 1.398.818.142 1.556-.234 1.67-.887.113-.653-.456-1.256-1.274-1.398zm18.795 4.266l.327.057-.327-.057c.085-.489.305-.788.688-1.057.384-.27 1.095-.483 1.749-.37 1.144.199 1.984 1.185 1.814 2.164-.085.49-.333.951-.881 1.193-.383.269-1.065.319-1.556.234-1.144-.198-1.984-1.184-1.814-2.164zm2.295-.611c-.49-.085-.846.022-1.229.292-.192.135-.384.269-.44.596-.114.653.455 1.256 1.273 1.397.327.057.846-.021 1.038-.156.355-.106.411-.433.468-.759.277-.625-.292-1.228-1.11-1.37z" fill="#5793DB"/><path d="M225.61 265.087l.654.114c3.953.517 7.094-.116 9.48-2.224 3.949-3.35 4.065-8.878 4.094-9.042.056-.326-.214-.709-.705-.794-.327-.057-.71.213-.795.703 0 0-.223 5.173-3.569 7.955-1.974 1.676-4.788 2.365-8.413 1.904-3.462-.432-5.745-1.836-7.069-3.915-2.512-3.966-.761-9.211-.732-9.374.056-.326-.051-.681-.513-.929-.327-.057-.682.049-.93.511-.057.326-1.893 6.06.861 10.573 1.623 2.299 4.204 3.923 7.637 4.518z" fill="#5793DB"/><g opacity=".8"><path d="M144.451 39.757c3.423-4.34 5.293-9.614 5.298-15.199.013-13.652-10.855-24.522-24.53-24.535-13.676-.013-24.564 10.837-24.577 24.489-.013 13.652 10.855 24.522 24.53 24.535 4.973.005 9.637-1.542 13.68-4.02l9.63 4.973-4.031-10.243z" fill="#E9E9FF"/><path d="M114.944 17.698c2.488-2.17 6.218-2.166 8.391.008l1.553 1.553 1.555-1.55c2.489-2.48 6.218-2.166 8.392.008 2.173 2.484 2.17 6.207-.008 8.377l-5.911 5.89c-.933.93-2.177 1.549-3.42 1.548-1.865.308-3.729-.314-5.282-1.867l-5.588-5.9c-2.174-1.864-2.171-5.587.318-8.067z" fill="#fff"/></g><path d="M135.043 232.609a1.166 1.166 0 0 1-1.633 0 1.16 1.16 0 0 1 0-1.63c2.079-2.075 4.009-4.446 5.643-6.817l.148-.296c.297-.593 1.04-.741 1.634-.445.594.296.742 1.037.445 1.63l-.148.297a42.828 42.828 0 0 1-4.455 5.779c-.594.445-1.04 1.038-1.634 1.482zm-7.87 5.928a36.937 36.937 0 0 1-9.207 3.557c-.594.148-1.336-.296-1.485-.889-.148-.593.297-1.334.891-1.482 2.97-.741 5.792-1.779 8.613-3.409.594-.296 1.337-.148 1.634.445.297.444.148 1.037-.149 1.334 0 .296-.148.296-.297.444zm16.78-21.637c-.594-.148-.891-.889-.742-1.482 1.039-2.816 1.633-5.928 2.078-9.04.149-.593.743-1.185 1.337-1.037.594.148 1.188.741 1.039 1.333-.445 3.261-1.188 6.521-2.227 9.485 0 .148-.149.297-.297.445a1.157 1.157 0 0 1-1.188.296zm-35.787 26.083c-3.267-.148-6.682-.593-9.652-1.037-.594-.148-1.04-.741-1.04-1.334.149-.593.743-1.037 1.337-1.037 2.821.444 6.088.889 9.355 1.037.594 0 1.188.593 1.188 1.186 0 .296-.149.592-.297.741-.149.296-.446.444-.891.444zm38.608-44.904c-.594 0-1.188-.445-1.188-1.186 0-1.037-.148-2.074-.297-3.112-.148-.593.446-1.185 1.04-1.334.594-.148 1.188.445 1.336 1.038.149 1.037.149 2.075.297 3.26 0 .297-.148.593-.297.889-.297.297-.594.445-.891.445zM37.482 297.965a1.168 1.168 0 0 1-1.633 0 1.161 1.161 0 0 1 0-1.63c2.079-1.927 3.86-4.446 5.049-7.41.297-.593 1.04-.889 1.633-.593.594.296.891 1.037.594 1.63-1.188 2.668-2.673 5.187-4.455 7.114-.297 0-.742.444-1.188.889zm51.825-57.501c-3.416-.297-6.385-.297-9.058 0H80.1c-.594.148-1.188-.297-1.336-1.038-.149-.592.297-1.185 1.04-1.333h.296c2.822-.297 5.94-.297 9.504 0 .594 0 1.188.592 1.04 1.333 0 .297-.15.445-.298.741-.297.149-.742.297-1.04.297zm-61.032 61.65c-3.266.297-6.533-.592-9.8-2.371-.594-.296-.743-1.037-.446-1.63s1.04-.741 1.634-.445c2.821 1.631 5.643 2.223 8.464 2.075.594 0 1.188.445 1.337 1.038 0 .296-.149.741-.297.889-.298.296-.595.444-.892.444zm16.335-20.896c-.594-.148-1.04-.741-.891-1.482l.445-1.778c.446-1.63.743-3.26 1.188-4.742.297-.89.594-1.779.891-2.816.149-.593.891-1.037 1.485-.741.594.148 1.04.889.743 1.482-.297.889-.594 1.778-.743 2.667-.445 1.631-.742 3.113-1.188 4.743l-.445 1.778c0 .148-.149.445-.297.593a1.155 1.155 0 0 1-1.188.296zm26.58-38.087c-2.672 1.334-5.345 2.964-7.721 5.039-.446.445-1.188.297-1.634-.148-.445-.445-.297-1.186.149-1.63a33.061 33.061 0 0 1 8.316-5.335c.594-.297 1.336 0 1.633.592.148.445.148 1.038-.149 1.334-.297 0-.445 0-.593.148zm-20.64 20.007c-.594-.296-.743-1.037-.446-1.63 1.485-2.964 3.267-5.632 5.198-8.151.445-.593 1.188-.593 1.633-.148.594.444.594 1.185.148 1.63-1.781 2.371-3.563 5.039-5.048 7.855 0 .148-.149.148-.149.296-.297.296-.89.445-1.336.148zm-38.015 30.381c-.445.444-1.188.296-1.633-.148-1.337-1.631-2.525-3.261-3.416-5.039-.594-1.037-1.188-2.223-1.633-3.409-.297-.592 0-1.333.594-1.63.594-.296 1.336 0 1.633.593.446 1.037 1.04 2.223 1.634 3.112.89 1.63 1.93 3.261 3.267 4.594.148.593.148 1.334-.446 1.927.149-.148 0-.148 0 0zm104.54-116.484c-.445-.445-.594-1.186-.148-1.63a59.17 59.17 0 0 0 5.346-7.707c.297-.593 1.039-.741 1.633-.444.594.296.743 1.037.446 1.63-1.634 2.816-3.416 5.483-5.495 8.003-.594.444-1.336.444-1.782.148zm-5.197 6.669a56.322 56.322 0 0 1-8.316 5.335c-.594.296-1.336 0-1.633-.593-.297-.593 0-1.334.594-1.63 2.673-1.334 5.346-2.964 7.722-4.891.445-.444 1.336-.296 1.633.149.446.444.446 1.037 0 1.63zm-17.82 8.151c-.89.148-1.93.296-2.97.296-2.227.148-4.454 0-6.978-.445-.594-.148-1.04-.741-1.04-1.333.149-.593.743-1.038 1.337-1.038 2.227.297 4.454.445 6.533.445.891 0 1.782-.148 2.673-.297.594-.148 1.188.297 1.337 1.038 0 .296 0 .741-.297 1.037 0 .148-.297.297-.594.297zM3.923 276.624c-.594.148-1.336-.148-1.485-.889a82.997 82.997 0 0 1-1.782-9.485c-.148-.592.446-1.185 1.04-1.333.594-.149 1.188.444 1.336 1.037.446 3.26 1.04 6.372 1.782 9.188.149.445 0 .889-.297 1.038-.148.296-.297.296-.594.444zm70.832-87.141c-1.93-.592-3.86-1.333-5.79-1.926-1.04-.445-2.228-.741-3.268-1.186-.594-.148-.89-.889-.742-1.482.148-.592.89-.889 1.485-.741 1.04.297 2.227.741 3.267 1.186 1.93.593 3.86 1.334 5.79 1.926.595.149 1.04.89.743 1.482 0 .149-.148.297-.297.445-.148.296-.742.445-1.188.296zM1.25 257.803c-.594 0-1.187-.445-1.187-1.186-.149-3.26 0-6.52.148-9.632 0-.593.594-1.186 1.336-1.038.594 0 1.188.593 1.04 1.334-.297 3.112-.297 6.224-.149 9.336 0 .297-.148.593-.297.89-.297.148-.594.296-.89.296zm55.39-73.951c-3.268-.741-6.386-.889-9.208-.741-.594 0-1.188-.445-1.336-1.186 0-.592.445-1.185 1.188-1.333 2.97-.149 6.237.148 9.8.889.595.148 1.04.741.892 1.482 0 .148-.149.444-.297.593-.149.296-.594.444-1.04.296zM2.29 238.834c-.594-.149-1.04-.741-1.04-1.334a172.227 172.227 0 0 1 2.08-9.337c.148-.593.89-1.037 1.484-.889.594.148 1.04.889.891 1.482-.89 2.964-1.485 6.076-2.079 9.188 0 .297-.148.445-.297.593-.148.148-.594.297-1.04.297zm5.049-18.377c-.594-.296-.891-.889-.594-1.482 1.188-2.964 2.673-5.928 4.158-8.744.297-.593 1.04-.741 1.633-.444.594.296.743 1.037.446 1.63-1.485 2.667-2.822 5.631-4.01 8.447a.32.32 0 0 1-.297.297c-.445.296-.89.444-1.336.296zm31.332-35.271c-2.673 1.037-5.346 2.667-8.019 4.594-.593.444-1.336.296-1.633-.297-.445-.592-.297-1.333.297-1.63 2.821-2.075 5.643-3.705 8.464-4.89.594-.297 1.337 0 1.485.593.149.444.149.889-.297 1.333 0 .148-.148.149-.297.297zM16.1 203.562a1.204 1.204 0 0 1-.297-1.63c1.188-1.63 2.376-3.112 3.564-4.594.742-.889 1.485-1.778 2.376-2.668l.148-.148a1.168 1.168 0 0 1 1.634 0 1.161 1.161 0 0 1 0 1.63l-.149.149c-.742.889-1.485 1.63-2.227 2.519-1.188 1.482-2.376 2.964-3.416 4.446 0 0 0 .148-.148.148-.297.445-.891.445-1.485.148z" fill="#D9D9FC"/><path d="M139.647 231.423c-.297 5.78 1.633 11.56 5.346 16.154l36.975 45.793c5.049 6.225 14.553 5.928 19.304-.444l5.346-7.558c5.346-7.41 4.604-17.784-1.782-24.305l-44.697-45.645-20.492 16.005z" fill="#455A64"/><path d="M134.152 220.16l.446-.296 21.086-16.598 5.197 5.928c1.634 1.778 1.337 4.594-.594 6.076l-18.413 14.375-6.385 5.039c-1.782 1.334-4.307 1.185-5.792-.593l-5.494-6.224 9.949-7.707zm96.67-49.204c-12.77-3.853-29.402-16.153-43.806-32.752-14.404-16.598-24.353-34.53-26.58-47.72l-4.604 12.301c-5.048 13.486-10.394 24.601-16.631 34.382-5.494 8.595-11.583 16.005-18.562 22.971-.445.296-1.485 1.334-1.485 1.334l-4.752 4.445-.891.89-16.78 16.005c.149 1.778.446 3.557 1.04 5.187 1.782 5.483 5.049 10.374 8.464 14.82 4.603 6.076 9.652 12.152 16.483 15.857 2.227 1.186 4.603 2.075 7.573 2.964l3.564-2.816 14.85-11.856c20.195-16.153 44.103-27.564 69.347-33.196l12.77-2.816z" fill="#D9D9FC"/><path d="M97.919 183.256l3.415-3.26 1.04-1.038 11.879-11.263c.149-.148.297-.296.594-.444l.297-.297 4.752-4.446c.149-.148 1.188-1.037 1.485-1.482 7.128-6.965 13.216-14.523 18.71-23.119 6.237-9.781 11.732-21.192 16.78-34.678l3.267-8.744c3.267 12.893 12.771 29.344 25.987 44.46 13.216 15.116 28.214 26.676 40.687 31.714l-9.058 2.075c-25.392 5.632-49.449 17.191-69.792 33.493l-14.85 11.856-.297.296-2.673 2.075a40.875 40.875 0 0 1-6.83-2.668c-6.683-3.556-11.732-9.484-16.186-15.412-3.267-4.446-6.683-9.189-8.316-14.524-.446-1.63-.743-3.112-.891-4.594zm-2.376-.889c.148 2.075.594 4.001 1.188 5.928 1.782 5.631 5.049 10.522 8.613 15.264 4.751 6.225 9.949 12.449 16.928 16.154 2.673 1.482 5.494 2.371 8.316 3.26l3.564-2.815.445-.297 14.85-11.856c19.898-16.153 43.509-27.416 68.753-33.048l17.819-4.001c-12.622-1.631-31.332-14.227-48.112-33.493-16.78-19.118-26.729-39.57-26.729-52.166l-6.386 17.043c-4.603 12.3-9.8 23.711-16.483 34.234-5.197 8.151-11.137 15.709-18.413 22.674-.297.296-1.485 1.334-1.485 1.334l-4.9 4.742-.891.889-11.88 11.263-1.04 1.038-4.157 3.853z" fill="#D9D9FC"/><path d="M90.495 187.258l5.049-4.742c.148 2.074.594 4.001 1.188 5.928 1.782 5.631 5.049 10.522 8.612 15.264 4.752 6.224 9.95 12.449 16.929 16.154 2.673 1.482 5.494 2.371 8.316 3.26l-6.534 5.187c-10.989 7.41-25.987 5.632-34.897-4.594-9.206-10.819-8.612-26.676 1.337-36.457z" fill="#FFC01E"/><path d="M159.099 87.373c0-4.298 1.188-7.707 3.712-9.93 9.801-8.595 35.936 5.484 58.507 31.122 22.571 25.787 32.817 53.5 23.017 62.095-2.525 2.223-6.089 2.816-10.395 2.371-12.622-1.63-31.332-14.227-48.112-33.492-16.78-19.266-26.729-39.57-26.729-52.166z" fill="#455A64"/><path d="M203.499 123.977c-4.158-4.743-11.286-5.78-16.631-2.372l-8.316 5.335c-9.801-13.782-15.444-27.12-15.444-36.16 0-4.001 1.04-7.114 3.416-9.04 8.909-7.706 32.669 4.89 53.161 28.306 20.492 23.415 29.847 48.757 20.938 56.464-2.228 1.926-5.495 2.667-9.355 2.074-9.059-1.185-21.681-8.743-34.154-20.451l6.385-7.114c4.306-4.742 4.306-12.152 0-17.042z" fill="#D9D9FC"/><path d="M178.553 126.941l8.315-5.336c5.346-3.408 12.474-2.371 16.632 2.372 4.306 4.89 4.306 12.152-.149 17.042l-6.385 7.114c-3.267-3.112-6.534-6.373-9.652-10.078-3.118-3.705-6.088-7.41-8.761-11.114z" fill="#FEC86A"/><path d="M203.606 216.31l13.819 91.08-121.003 19.073-15.586-89.559 122.77-20.594z" fill="#fff" stroke="#5793DB"/><path d="M80.929 237.437l67.944 37.632.342.19.266-.286 54.204-58.143 13.74 90.56-121.003 19.073-15.493-89.026z" fill="#fff" stroke="#5793DB"/></svg>