<svg width="20" height="20" viewBox="0 0 20 20" fill="none" xmlns="http://www.w3.org/2000/svg"><g opacity=".3"><path d="M10 20c5.523 0 10-4.477 10-10S15.523 0 10 0 0 4.477 0 10s4.477 10 10 10z" fill="#000"/><path fill-rule="evenodd" clip-rule="evenodd" d="M10 4.538a5.6 5.6 0 0 0-1.77 10.914c.28.052.383-.121.383-.27 0-.133-.005-.574-.008-1.042-1.558.339-1.887-.66-1.887-.66-.254-.648-.621-.82-.621-.82-.509-.348.038-.34.038-.34.562.039.858.577.858.577.5.856 1.31.608 1.63.465.05-.362.195-.609.355-.749-1.243-.141-2.55-.621-2.55-2.767 0-.612.218-1.111.576-1.503-.058-.141-.25-.711.054-1.482 0 0 .47-.15 1.54.574A5.37 5.37 0 0 1 10 7.246c.476.002.956.065 1.403.189 1.07-.725 1.539-.574 1.539-.574.304.771.113 1.34.055 1.482.359.392.576.891.576 1.503 0 2.15-1.31 2.624-2.557 2.763.2.174.38.514.38 1.037 0 .75-.007 1.352-.007 1.537 0 .149.101.323.385.268A5.6 5.6 0 0 0 10 4.538z" fill="#fff"/><path d="M6.521 12.579c-.012.027-.056.036-.096.017-.04-.018-.063-.056-.05-.084.012-.03.056-.037.096-.018.041.018.064.057.05.085zm.227.253c-.027.024-.079.013-.114-.026-.037-.04-.044-.091-.017-.117.028-.024.078-.013.115.026.037.04.044.092.016.117zm.222.322c-.035.024-.091.002-.126-.048-.034-.05-.034-.11 0-.134.036-.024.09-.002.126.047.034.05.034.11 0 .135zm.301.312c-.03.034-.096.024-.144-.022-.049-.045-.062-.11-.032-.143.032-.034.097-.024.146.022.048.045.063.11.03.143zm.417.181c-.013.043-.076.063-.14.045-.063-.02-.104-.07-.092-.115.014-.044.077-.065.14-.045.064.02.105.07.092.115zm.459.033c.001.046-.052.085-.119.086-.067.001-.121-.037-.122-.082 0-.046.053-.084.12-.085.066-.002.12.035.12.081zm.427-.072c.008.045-.039.091-.105.103-.065.012-.125-.016-.133-.06-.008-.047.039-.093.104-.105.066-.011.125.016.134.062z" fill="#fff"/></g></svg>