<svg width="20" height="20" viewBox="0 0 20 20" fill="none" xmlns="http://www.w3.org/2000/svg"><g opacity=".3"><path d="M10 20c5.523 0 10-4.477 10-10S15.523 0 10 0 0 4.477 0 10s4.477 10 10 10z" fill="#000"/><path d="M9.177 7.893a.699.699 0 0 0-1.396 0 .699.699 0 0 0 1.396 0zm2.341-.698a.699.699 0 1 0 .002 1.398.699.699 0 0 0-.002-1.398zm-.166 2.406c-.263.263-.71.391-1.353.391s-1.09-.128-1.353-.39a.194.194 0 1 0-.274.273c.34.34.876.505 1.627.505s1.287-.165 1.627-.505a.194.194 0 0 0-.274-.274z" fill="#fff"/><path d="M15.04 7.133a1.147 1.147 0 0 0-1.906-.856c-.777-.501-1.783-.794-2.86-.837l.592-1.868 1.606.378a.945.945 0 1 0 .078-.38l-1.77-.416a.194.194 0 0 0-.23.13l-.68 2.152c-1.131.021-2.193.317-3.005.84a1.147 1.147 0 0 0-1.906.856c0 .418.225.784.56.985a2.068 2.068 0 0 0-.026.325c0 .82.48 1.584 1.35 2.153.278.18.585.335.914.46-.642.307-1.097 1.052-1.097 1.921 0 .982.58 1.806 1.356 2.017.06.19.128.37.201.539a1.487 1.487 0 0 0-.108-.005c-.697 0-1.264.477-1.264 1.062a.89.89 0 0 0 .047.277c.026.08.1.134.184.134h5.818c.085 0 .16-.055.185-.136a.91.91 0 0 0 .046-.275c0-.585-.567-1.061-1.265-1.061-.026 0-.052 0-.078.002.073-.17.14-.348.2-.536.777-.212 1.357-1.036 1.357-2.018 0-.869-.455-1.614-1.098-1.92.33-.126.637-.28.914-.461.871-.569 1.351-1.333 1.351-2.153 0-.11-.009-.218-.026-.325.335-.2.56-.567.56-.984zm-1.067-3.188a.558.558 0 1 1-1.115-.002.558.558 0 0 1 1.115.002zm-1.235 12.644v.023h-1.643a3.17 3.17 0 0 0 .479-.66 1.11 1.11 0 0 1 .286-.037c.484 0 .878.303.878.674zm-4.629-.674c.114 0 .222.017.321.047.143.253.301.472.474.65H7.233a.46.46 0 0 1 0-.023c0-.371.393-.674.876-.674zm2.37.697h-.96c-.861-.493-1.482-2.213-1.482-4.126 0-.452.034-.89.098-1.302.578.175 1.21.267 1.864.267.654 0 1.287-.093 1.865-.267.064.412.098.85.098 1.302 0 1.913-.621 3.633-1.483 4.126zm-2.783-5.068c-.03.304-.047.618-.047.942 0 .727.084 1.422.236 2.043-.491-.254-.837-.854-.837-1.553 0-.605.26-1.135.648-1.432zm4.418 2.985a8.655 8.655 0 0 0 .236-2.043 9.43 9.43 0 0 0-.047-.942c.389.297.648.827.648 1.432 0 .7-.346 1.3-.838 1.553zm-2.115-3.466c-2.27 0-4.119-1.176-4.119-2.62C5.88 6.996 7.728 5.82 10 5.82c2.27 0 4.119 1.176 4.119 2.621s-1.848 2.621-4.12 2.621zM6.105 6.374c.16 0 .31.05.433.136-.443.353-.754.764-.915 1.207a.757.757 0 0 1 .482-1.343zm7.356.136a.76.76 0 0 1 .915 1.206c-.162-.442-.472-.853-.915-1.206z" fill="#fff"/></g></svg>