<svg width="473" height="311" viewBox="0 0 473 311" fill="none" xmlns="http://www.w3.org/2000/svg"><path d="M27 190.5l46.239-.2 46.239-.1 92.478-.2 92.478.2 46.327.1 46.239.2-46.239.3-46.327.1-92.478.1-92.478-.1-46.239-.1L27 190.5z" fill="#263238"/><path d="M0 301c0 5.556 24.404 10 54.5 10s54.5-4.444 54.5-10-24.404-10-54.5-10S0 295.444 0 301z" fill="#D5D2FF"/><path d="M274 248V119.344l8.629 2.493 15.229-2.493 8.122-9.973 4.568-6.982 9.137-13.962 14.721-20.446L374 61v187H274z" fill="url(#a)"/><path d="M84.486 210.597c2.395-8.435 3.957-16.947 6.239-25.372 1.297-4.792 2.279-9.878 4.115-14.468 1.682-4.205 4.379-7.914 5.714-12.319 1.223-4.037 4.741-8.542 7.732-11.533 6.467-6.467 19.057-10.028 27.39-5.19 4.627 2.687 9.116 5.845 12.503 10.013 3.484 4.288 6.728 8.93 10.641 12.843 3.008 3.008 7.703 6.255 11.821 7.549 4.708 1.479 9.881-.236 14.233-2.202 4.209-1.901 6.361-7.594 7.391-11.716 1.281-5.121 2.15-10.226 3.355-15.333.999-4.229.604-8.659 1.258-12.949.843-5.523 1.499-11.057 2.49-16.565 1.817-10.093 3.02-20.278 4.745-30.378 1.504-8.811 2.032-17.33 5.504-25.608 2.66-6.343 7.369-14.343 15.228-13.76 8.54.632 13.367 6.595 18.741 12.344 2.284 2.444 4.413 6.207 5.321 9.436 1.645 5.85 2.577 11.736 4.482 17.562 1.914 5.85 3.359 11.699 5.871 17.351 1.925 4.331 3.097 9.864 6.448 13.368 8.493 8.878 22.642 11.692 33.157 4.482 6.543-4.487 8.733-12.837 13.498-18.793 3.009-3.762 5.632-7.123 7.995-11.376 1.27-2.286 3.642-4.609 4.272-7.13" stroke="#FFC72B" stroke-width="2" stroke-linecap="round"/><path d="M28.843 297.458c-1.953-1.204-6.28-5.018-2.93-9.435 1.256-1.606 3.768-2.409 6.14-3.112 2.373-.702 4.886-1.305 6.84-2.509 3.628-2.208 4.745-6.023 7.118-9.034 2.791-3.413 8.095-6.023 13.538-5.822 6.28.201 11.584 3.915 13.957 8.131 2.373 4.215 2.512 8.933 2.512 13.55 0 2.51-.14 5.421-2.651 7.127-2.373 1.606-6.002 1.606-9.212 1.506-11.584-.301-23.03-.502-34.614-.803" fill="#F2F1FF"/><path d="M95 229H4l16.33 70.264c.698 3.112 3.768 5.42 7.816 6.223.14 0 .279 0 .279.101.279 0 .558.1.837.1.558.1 1.256.101 1.815.201v.1l.418-.1H72.11c.698 0 1.536-.101 2.234-.201 4.745-.502 8.653-3.312 9.211-6.826l7.956-48.482.419-1.907L95 229.301V229zm-17.167 44.869h-9.351l.977-20.377h10.886l-2.512 20.377zm3.35-20.477h8.932l-3.35 20.376H78.67l2.513-20.376zm-26.659 43.061l-.558-17.766h13.399l-.837 17.766H54.524zM40.01 278.787h13.12l.558 17.767H41.963l-1.954-17.767zm.977 17.666H29.96c-.977-4.818-2.373-11.041-3.908-17.766h12.84l2.094 17.766zm-1.535-22.584l-2.233-20.377h14.934l.698 20.377h-13.4zm14.376 0l-.698-20.377h15.353l-.977 20.377H53.827zm-.838-25.295l-.558-18.871h17.307l-.838 18.871H52.99zm-.977 0H36.66l-2.094-18.871h16.748l.698 18.871zm-16.19 0h-16.19c-.558-2.61-1.117-5.12-1.675-7.328-1.675-7.629-2.373-10.54-2.652-11.644h18.563l1.954 18.972zm.419 4.818l2.233 20.376h-13.4c-.419-2.108-.977-4.115-1.396-6.223-1.116-4.818-2.093-9.636-3.07-14.153H36.24zm-12.143 20.477h-8.793l-4.745-20.377h9.072a2533.93 2533.93 0 0 1 4.466 20.377zm1.117 4.918c1.395 6.123 2.652 12.146 3.908 17.767h-8.375l-4.187-17.767h8.654zm42.29 17.666l.837-17.766h8.933l-2.094 17.766h-7.676zm2.233-47.879l.837-18.871h12.561l-2.233 18.871H69.738zm-55.41-18.972c.419 1.406 1.954 8.833 4.187 18.871H9.443l-4.466-18.871h9.351zm68.809 66.851h-6.979l2.093-17.766h7.816l-2.93 17.766zm7.816-47.879H81.74l2.233-18.871h10.049l-3.07 18.871z" fill="#5793DB"/><path d="M92.5 179.5l-9 38.5-3 31H274V120l-11-10-10.5-28-4-18-7.5-11c-2.333-2.167-7.3-6.5-8.5-6.5-1.2 0-6.167-1.333-8.5-2l-7.5 2-5 6.5-6 21-5 34.5-5 33-6 25-7.5 5-7.5 2-6.5-2-12.5-10.5-12-15.5-10.5-4-11-2-12 6-9 13-8.5 21z" fill="url(#b)"/><path d="M112.499 39.247L64.167 75.141l22.734 30.635 48.332-35.894-22.734-30.635z" fill="#E7EBFF"/><path d="M112.49 39.224c-.566 3.328-1.219 6.583-1.829 9.874-.653 3.255-1.306 6.51-1.996 9.808-.72 3.422-1.447 6.764-2.166 10.187-.03.124-.023.204-.053.328a1053.16 1053.16 0 0 1-1.985 8.997l-.126.416-.446-.002c-3.058-.263-6.11-.445-9.169-.708-.08.007-.204-.023-.328-.052-3.424-.272-6.928-.537-10.36-.89-3.306-.321-6.65-.6-9.956-.922-3.35-.36-6.657-.682-9.97-1.084 3.242.044 6.535.206 9.784.33 3.293.162 6.543.287 9.88.485 3.657.17 7.322.422 10.987.672 2.767.167 5.498.377 8.265.543.621-2.685 1.198-5.407 1.862-8.055.867-3.597 1.697-7.15 2.564-10.748a627.15 627.15 0 0 1 2.382-9.557c.975-3.283 1.759-6.427 2.66-9.622z" fill="#fff"/><path d="M95.454 77.251c-.036.044.007.08.007.08-.09.373-.172.825-.262 1.197-.441 1.941-.97 3.809-1.536 5.72-.691 2.327-1.427 4.617-2.163 6.907a238.526 238.526 0 0 1-2.454 6.81 139.724 139.724 0 0 1-2.746 6.715 98.62 98.62 0 0 1 1.827-7.04 332.57 332.57 0 0 1 2.163-6.907c.78-2.253 1.552-4.587 2.455-6.81.696-1.802 1.393-3.603 2.17-5.41.206-.423.376-.802.54-1.262-.074.088-.037.044 0 0zm38.929-8.252c-2.398.368-4.853.54-7.227.704-2.375.164-4.837.254-7.218.338-2.425.047-4.85.094-7.238.098-1.987-.031-3.893-.07-5.886-.181-.409-.046-.854-.048-1.263-.094l-.08.007.08-.007c.439-.078.921-.12 1.323-.154a91.837 91.837 0 0 1 5.743-.536c2.375-.164 4.837-.255 7.218-.339 2.425-.047 4.85-.094 7.238-.097 2.469-.01 4.864.067 7.31.26z" fill="#fff"/><path d="M187.25 248.674l-30.647 22.76 14.415 19.425 30.647-22.76-14.415-19.425z" fill="#E7EBFF"/><path d="M187.243 248.656c-.359 2.11-.773 4.174-1.16 6.261a782.512 782.512 0 0 1-1.265 6.219c-.457 2.171-.918 4.29-1.374 6.46-.019.078-.015.129-.034.208a692.372 692.372 0 0 1-1.258 5.705l-.08.264-.283-.002c-1.939-.166-3.874-.282-5.814-.448-.051.004-.129-.015-.208-.034-2.171-.172-4.393-.34-6.569-.563-2.096-.204-4.216-.381-6.313-.586-2.125-.227-4.221-.432-6.323-.687 2.057.028 4.145.131 6.205.21 2.088.102 4.149.181 6.264.307 2.32.108 4.644.267 6.968.426 1.754.106 3.486.239 5.24.345.394-1.703.76-3.429 1.181-5.108.55-2.281 1.076-4.534 1.626-6.815a409.5 409.5 0 0 1 1.51-6.061c.618-2.081 1.115-4.075 1.687-6.101z" fill="#fff"/><path d="M176.44 272.771c-.023.027.005.051.005.051-.057.236-.11.523-.167.759a58.743 58.743 0 0 1-.973 3.626c-.439 1.476-.906 2.928-1.372 4.38a150.675 150.675 0 0 1-1.556 4.319 88.276 88.276 0 0 1-1.742 4.258c.333-1.518.72-2.989 1.159-4.465a210.91 210.91 0 0 1 1.372-4.38c.494-1.428.984-2.908 1.556-4.318.442-1.142.883-2.284 1.376-3.431.131-.268.239-.508.342-.799-.046.055-.023.027 0 0zm24.685-5.234c-1.52.233-3.077.342-4.583.446-1.505.104-3.066.162-4.576.215-1.538.03-3.076.059-4.59.062a91.391 91.391 0 0 1-3.732-.115c-.259-.029-.542-.031-.801-.06l-.051.005.051-.005c.278-.049.584-.076.839-.098a58.767 58.767 0 0 1 3.642-.339c1.505-.104 3.066-.162 4.576-.215 1.538-.03 3.076-.06 4.59-.062a55.428 55.428 0 0 1 4.635.166z" fill="#fff"/><path d="M276.126 59.376l28.155-52.077 77.783 42.073-28.155 52.077-77.783-42.073z" fill="#fff" stroke="#5793DB"/><path d="M382.781 49.153s-.341.196-1.071.344c-.73.148-1.947.396-3.26.79-2.921.593-6.911 1.53-11.876 2.666-10.221 2.078-24.093 4.897-39.522 8.16l-.243.05-.196-.34c-.05-.244-.246-.584-.296-.828-6.15-14.588-11.662-27.913-15.794-37.59-1.969-4.668-3.544-8.656-4.724-11.33-.542-1.411-.984-2.335-1.28-3.162-.296-.826-.346-1.07-.346-1.07l.589 1.02c.296.828.738 1.752 1.377 3.016 1.18 2.674 2.852 6.516 4.967 11.28 4.133 9.678 9.741 22.856 16.038 37.542.05.243.246.583.296.827l-.44-.291c15.332-3.117 29.35-5.839 39.572-7.916 5.014-.893 9.004-1.83 11.974-2.18 1.364-.151 2.434-.495 3.311-.547.534-.489.924-.441.924-.441z" fill="#5793DB"/><g clip-path="url(#c)"><path d="M417.545 150.938h-14.456v112.85h14.456v-112.85z" fill="#FFC330"/><path opacity=".2" d="M417.545 178.595v-27.657h-14.456v31.104c4.819-1.149 9.637-2.375 14.456-3.447z" fill="#2F3F5C"/><path d="M385.038 152.775c0 4.98 4.054 9.04 9.026 9.04h32.507c4.972 0 9.026-4.06 9.026-9.04V150.4c0-4.98-4.054-9.041-9.026-9.041h-32.507c-4.972 0-9.026 4.061-9.026 9.041v2.375zm58.973 115.226v-2.375c0-4.98-4.054-9.04-9.026-9.04H385.65c-4.972 0-9.026 4.06-9.026 9.04v2.375h67.387z" fill="#FFC330"/><path d="M444.011 268.001v-2.375c0-4.98-4.054-9.04-9.026-9.04H385.65c-4.972 0-9.026 4.06-9.026 9.04v2.375h67.387z" fill="#FFC330"/><path opacity=".2" d="M444.087 265.551h-67.463v2.375h67.463v-2.375z" fill="#2F3F5C"/><path d="M372.8 77.999c11.396-1.15 23.252-1.303 36.561-1.15 13.233-.23 28.148 0 39.545 1.15 26.389 2.681 23.023 34.935 23.023 34.935v38H349.777v-38S346.335 80.68 372.8 77.999z" fill="#D5D2FF"/><path d="M472.847 151.931H348.706v-38.92c-.153-1.226-1.453-16.855 6.961-27.274 4.054-5.056 9.79-7.968 16.98-8.734 7.802-.766 15.068-1.226 27.46-1.226 3.136 0 6.195 0 9.178.077 2.983-.077 6.043-.077 9.179-.077 12.391 0 22.64.383 30.442 1.226 7.19.766 12.927 3.678 16.981 8.734 8.414 10.42 7.037 26.048 6.96 27.274v38.92zm-122.076-2.069h120.088v-37.081c0-.153 1.529-15.935-6.502-25.818-3.748-4.597-8.949-7.278-15.604-7.968-7.725-.766-17.898-1.226-30.213-1.226-3.136 0-6.195 0-9.178.077-3.06-.077-6.119-.077-9.179-.077-12.315 0-19.505.383-27.23 1.226-6.654.69-11.856 3.371-15.604 7.968-8.184 9.96-6.578 25.665-6.578 25.895v37.004z" fill="#5793DB"/><path d="M372.723 217.97c2.447.23 2.141.459 4.895.613a208.84 208.84 0 0 0 7.878-.613c26.389-2.682 23.023-34.936 23.023-34.936v-30.722H349.7v30.722s-3.366 32.254 23.023 34.936z" fill="#D5D2FF"/><path d="M377.619 219.655c-2.983-.153-2.6-.383-4.971-.613-7.19-.766-12.927-3.677-16.981-8.734-8.414-10.419-7.037-26.048-6.96-27.274v-31.718h60.808v31.718c.153 1.226 1.453 16.855-6.96 27.274-4.054 5.057-9.791 7.968-16.981 8.734-2.371.23-5.048.383-7.955.613zm-26.924-66.347v29.803c0 .153-1.53 15.935 6.502 25.818 3.748 4.597 8.949 7.279 15.604 7.968 2.294.23 1.912.46 4.742.613 2.83-.153 5.43-.383 7.802-.613 6.654-.689 11.855-3.371 15.603-7.968 8.032-9.959 6.502-25.665 6.502-25.818v-29.803h-56.755z" fill="#5793DB"/><path opacity=".2" d="M409.515 183.034v-31.718h-60.809v31.718c-.153 1.226-1.453 16.855 6.961 27.274 4.054 5.057 9.79 7.968 16.98 8.734 2.371.23 1.989.46 4.895.613h.153c2.907-.153 5.584-.383 7.955-.613 7.19-.766 12.927-3.677 16.981-8.734 8.337-10.419 6.96-26.048 6.884-27.274z" fill="#2F3F5C"/><path d="M417.715 108.574l-24.877 51.04-68.178-32.745 23.448-50.886 69.607 32.591z" fill="#fff" stroke="#5793DB"/><path d="M347.881 76.475l21.258 42.81.174.35.382-.084 47.79-10.504-24.647 50.567-68.178-32.745 23.221-50.394z" fill="#fff" stroke="#5793DB"/><path d="M385.497 77.999c-2.447-.23-5.124-.46-7.878-.613 9.944-.613 21.264-.69 31.666-.536 13.233-.23 28.148 0 39.545 1.149 26.389 2.681 23.023 34.935 23.023 34.935v38h-63.332v-38s3.442-32.254-23.024-34.935z" fill="#5793DB"/><path d="M419.534 117.683a6.43 6.43 0 0 0 6.425-6.435c0-3.554-2.876-6.436-6.425-6.436-3.548 0-6.425 2.882-6.425 6.436s2.877 6.435 6.425 6.435z" fill="#D5D2FF"/><path d="M419.535 118.679c-4.131 0-7.42-3.371-7.42-7.431 0-4.137 3.366-7.432 7.42-7.432 4.13 0 7.419 3.371 7.419 7.432.077 4.06-3.289 7.431-7.419 7.431zm0-12.871c-2.983 0-5.431 2.452-5.431 5.44 0 2.988 2.448 5.439 5.431 5.439s5.43-2.451 5.43-5.439-2.447-5.44-5.43-5.44z" fill="#5793DB"/><path d="M419.305 39.999l18.587 4.06v3.371l-15.451 4.597v59.298c0 1.609-1.3 2.912-2.906 2.912a2.908 2.908 0 0 1-2.907-2.912V42.91c.076-1.532.918-3.141 2.677-2.911z" fill="#FFC330"/></g><defs><linearGradient id="a" x1="319" y1="104" x2="324" y2="248" gradientUnits="userSpaceOnUse"><stop stop-color="#fff"/><stop offset="1" stop-color="#fff" stop-opacity="0"/></linearGradient><linearGradient id="b" x1="185.5" y1="50" x2="177" y2="256" gradientUnits="userSpaceOnUse"><stop stop-color="#FFC627"/><stop offset="1" stop-color="#FFC627" stop-opacity="0"/></linearGradient><clipPath id="c"><path fill="#fff" transform="translate(324 40)" d="M0 0h149v228H0z"/></clipPath></defs></svg>