<svg width="807" height="373" viewBox="0 0 807 373" fill="none" xmlns="http://www.w3.org/2000/svg"><circle opacity=".2" cx="273.5" cy="13.5" r="13.5" fill="#fff"/><circle opacity=".6" cx="403.5" cy="406.5" r="403.5" fill="#2346E1" fill-opacity=".04"/><ellipse opacity=".5" cx="403.5" cy="406.5" rx="308.796" ry="309.803" fill="#2346E1" fill-opacity=".04"/><circle opacity=".7" cx="403.5" cy="406.5" r="211.069" fill="#2346E1" fill-opacity=".04"/><g clip-path="url(#a)" fill-rule="evenodd" clip-rule="evenodd" fill="#E0E4F8"><path d="M482.077 381.179v2.641c-12.644 8.127-25.943 16.037-38.306 24.381l-14.621 9.102a17.53 17.53 0 0 1-4.513 2.045 15.715 15.715 0 0 1-10.174-.474 14.73 14.73 0 0 1-7.236-6.027 12.917 12.917 0 0 1-1.416-3.21 14.364 14.364 0 0 1-.455-6.038 14.298 14.298 0 0 1 2.071-5.679c2.003-3.372 5.487-6.772 10.868-10.063l37.973-23.663 2.39 1.355a630.066 630.066 0 0 0 10.054 5.621 578.5 578.5 0 0 0 10.801 5.729l2.537 1.355v2.885l.027.04zm-43.153 18.963l29.2-18.583-3.792-1.964c-2.67-1.436-5.22-2.885-7.837-4.375l-33.38 20.777c-4.005 2.506-6.502 4.768-7.73 6.854a5.27 5.27 0 0 0-.641 4.293c.095.312.225.612.387.894a5.47 5.47 0 0 0 2.67 2.14 6.588 6.588 0 0 0 4.286.136 9.273 9.273 0 0 0 2.23-1.003l14.607-9.169z"/><path d="M482.011 366.891l-43.087-27.089-14.58-9.075a8.733 8.733 0 0 0-2.23-1.002 6.588 6.588 0 0 0-4.286.135 5.357 5.357 0 0 0-2.67 2.14 4.426 4.426 0 0 0-.387.894 5.292 5.292 0 0 0 .641 4.294c1.228 2.086 3.698 4.348 7.73 6.854l.868.541c19.948 12.434 34.862 21.672 55.517 32.399l-4.219 8.411c-20.802-10.754-35.916-20.168-56.078-32.764l-.854-.542c-5.341-3.345-8.866-6.691-10.869-10.064a14.303 14.303 0 0 1-2.071-5.678 14.379 14.379 0 0 1 .456-6.038 12.878 12.878 0 0 1 1.362-3.21 14.734 14.734 0 0 1 7.21-6.027 15.71 15.71 0 0 1 10.2-.42 17.915 17.915 0 0 1 4.487 2.059l14.687 9.061 38.453 24.218h-.214v10.836l-.066.067zM321 358.82v-2.641c12.644-8.059 25.943-16.037 38.32-24.381l14.58-9.088a18.154 18.154 0 0 1 4.513-2.059 15.705 15.705 0 0 1 10.174.42 14.897 14.897 0 0 1 7.25 6.027 13.396 13.396 0 0 1 1.402 3.21c.579 1.956.734 4.015.455 6.038a14.282 14.282 0 0 1-2.071 5.679c-2.002 3.372-5.487 6.772-10.855 10.063l-37.986 23.649-2.39-1.354a460.922 460.922 0 0 0-10.04-5.621 678.336 678.336 0 0 0-10.802-5.73l-2.55-1.327v-2.885zm43.153-18.963L334.966 358.4l3.779 2.045c2.67 1.436 5.22 2.885 7.837 4.375l33.38-20.777c4.005-2.506 6.489-4.768 7.717-6.854a5.228 5.228 0 0 0 .641-4.294 3.792 3.792 0 0 0-.387-.894 5.356 5.356 0 0 0-2.671-2.14 6.588 6.588 0 0 0-4.286-.135 8.727 8.727 0 0 0-2.229 1.002l-14.594 9.129z"/><path d="M321 373.068l43.153 27.09 14.58 9.088a9.232 9.232 0 0 0 2.23 1.002 6.581 6.581 0 0 0 4.286-.135 5.471 5.471 0 0 0 2.67-2.14c.167-.28.298-.58.388-.894a5.228 5.228 0 0 0-.641-4.294c-1.229-2.085-3.699-4.347-7.718-6.853l-.868-.542c-20.027-12.434-34.875-21.671-55.516-32.399l4.219-8.411c20.789 10.755 35.903 20.168 56.077 32.765l.868.541c5.341 3.346 8.853 6.691 10.855 10.064a14.292 14.292 0 0 1 2.071 5.679 14.359 14.359 0 0 1-.455 6.037 13.379 13.379 0 0 1-1.402 3.21 14.893 14.893 0 0 1-7.21 6 15.698 15.698 0 0 1-10.174.42 17.712 17.712 0 0 1-4.513-2.045l-14.58-9.021L321 384.148v-11.08zm66.184 4.551c1.487 0 2.94-.447 4.176-1.285a7.607 7.607 0 0 0 2.769-3.422 7.728 7.728 0 0 0 .428-4.406 7.653 7.653 0 0 0-2.058-3.904 7.476 7.476 0 0 0-3.848-2.087 7.407 7.407 0 0 0-4.344.434 7.54 7.54 0 0 0-3.373 2.808 7.706 7.706 0 0 0-1.267 4.237c0 2.022.792 3.962 2.202 5.392a7.46 7.46 0 0 0 5.315 2.233zm27.588 0c1.487 0 2.94-.447 4.176-1.285a7.607 7.607 0 0 0 2.769-3.422 7.728 7.728 0 0 0 .428-4.406 7.653 7.653 0 0 0-2.058-3.904 7.475 7.475 0 0 0-3.849-2.087 7.405 7.405 0 0 0-4.343.434 7.54 7.54 0 0 0-3.373 2.808 7.696 7.696 0 0 0 .938 9.625 7.476 7.476 0 0 0 5.312 2.237z"/></g><rect x="399" y="231" width="70" height="70" rx="35" fill="#fff" filter="url(#b)"/><rect x="466" y="27" width="58" height="58" rx="29" fill="#fff" filter="url(#c)"/><circle opacity=".4" cx="171.5" cy="282.5" r="12.5" fill="#fff"/><circle opacity=".4" cx="602.5" cy="109.5" r="12.5" fill="#fff"/><circle opacity=".4" cx="532.5" cy="322.5" r="11.5" fill="#fff"/><rect x="26" y="269" width="70" height="70" rx="35" fill="#fff" filter="url(#d)"/><circle cx="434" cy="266" r="22" fill="#F2F6FF"/><path d="M444.084 272.875h-6.417v-.687c0-.884-.719-1.605-1.605-1.605h-1.145v-3.208a.918.918 0 0 0-1.834 0v3.208h-1.145c-.885 0-1.605.719-1.605 1.605v.687h-6.417a.917.917 0 0 0 .001 1.834h6.417v.688c0 .884.719 1.604 1.605 1.604h4.125c.884 0 1.604-.719 1.604-1.604v-.688h6.418a.918.918 0 1 0-.002-1.834z" fill="#AEC5FF"/><path d="M439.601 258.106c-1.114-1.899-3.27-3.106-5.601-3.106-2.963 0-5.538 1.946-6.22 4.61-2.171.237-3.863 1.984-3.863 4.098 0 2.274 1.958 4.125 4.365 4.125h10.622c2.857 0 5.181-2.193 5.181-4.89 0-2.464-1.941-4.522-4.484-4.837zm-.699 7.894H428.28c-1.395 0-2.53-1.029-2.53-2.292 0-1.159.957-2.138 2.228-2.276l1.262-.137.315-1.231c.48-1.873 2.35-3.233 4.445-3.233 1.657 0 3.234.864 4.019 2.2l.458.781.898.112c1.639.205 2.875 1.503 2.875 3.021 0 1.684-1.501 3.055-3.348 3.055z" fill="#094DFD"/><circle cx="495" cy="56" r="18" fill="#F2F6FF"/><path d="M493.5 61.999a.75.75 0 0 1-.75-.75v-7.5a.75.75 0 1 1 1.501 0v7.5a.751.751 0 0 1-.751.75zm3 0a.75.75 0 0 1-.75-.75v-7.5a.75.75 0 1 1 1.5 0v7.5c0 .415-.335.75-.75.75z" fill="#AEC5FF"/><path d="M498.75 56.75h-7.501a.75.75 0 0 1 .001-1.501h7.501a.75.75 0 0 1-.001 1.5zm0 3h-7.501a.75.75 0 1 1 .002-1.5h7.5a.75.75 0 0 1-.001 1.5z" fill="#AEC5FF"/><path d="M501.75 47.751h-13.5a2.252 2.252 0 0 0-2.25 2.25v12a2.252 2.252 0 0 0 2.25 2.25h13.5a2.252 2.252 0 0 0 2.25-2.25v-12c0-1.24-1.009-2.25-2.25-2.25zm0 15h-13.5a.75.75 0 0 1-.75-.75V51.5h15V62a.75.75 0 0 1-.75.75z" fill="#094DFD"/><circle cx="61" cy="304" r="22" fill="#F2F6FF"/><path d="M70.167 303.083H60.083a1.833 1.833 0 0 0-1.833 1.833v8.25c0 1.013.82 1.834 1.833 1.834h10.084A1.833 1.833 0 0 0 72 313.167v-8.25c0-1.013-.82-1.834-1.833-1.834zm-.458 10.084h-9.167a.458.458 0 0 1-.458-.458v-5.959h10.084v5.958a.46.46 0 0 1-.459.459z" fill="#AEC5FF"/><path d="M55.728 309.5H52.75a2.753 2.753 0 0 1-2.75-2.75v-11a2.753 2.753 0 0 1 2.75-2.75h4.355c.243 0 .475.096.647.268l1.565 1.565h9.933a2.753 2.753 0 0 1 2.75 2.75v3.217a.918.918 0 1 1-1.834 0v-3.217a.918.918 0 0 0-.917-.917H58.936a.918.918 0 0 1-.648-.268l-1.564-1.565H52.75a.918.918 0 0 0-.917.917v11c0 .506.411.917.917.917h2.98a.917.917 0 1 1-.002 1.833z" fill="#094DFD"/><rect x="202" y="128" width="58" height="58" rx="29" fill="#fff" filter="url(#e)"/><circle cx="231" cy="157" r="18" fill="#F2F6FF"/><path d="M238.5 157.75c-.627 0-1.165.389-1.388.938H235.5v-3.376h1.612c.223.549.761.938 1.388.938.827 0 1.5-.673 1.5-1.5s-.673-1.5-1.5-1.5c-.627 0-1.165.389-1.388.938h-1.692a2.249 2.249 0 0 0-1.608-1.608v-1.692c.549-.223.938-.761.938-1.388 0-.827-.673-1.5-1.5-1.5s-1.5.673-1.5 1.5c0 .627.39 1.165.938 1.388v1.612h-3.376v-1.612c.549-.223.938-.761.938-1.388 0-.827-.673-1.5-1.5-1.5s-1.5.673-1.5 1.5c0 .627.39 1.165.938 1.388v1.692a2.249 2.249 0 0 0-1.608 1.608h-1.692a1.501 1.501 0 0 0-1.388-.938c-.827 0-1.5.673-1.5 1.5s.673 1.5 1.5 1.5c.627 0 1.165-.389 1.388-.938h1.612v3.376h-1.612a1.501 1.501 0 0 0-1.388-.938c-.827 0-1.5.673-1.5 1.5s.673 1.5 1.5 1.5c.627 0 1.165-.389 1.388-.938h1.692a2.249 2.249 0 0 0 1.608 1.608v1.692a1.501 1.501 0 0 0-.938 1.388c0 .827.673 1.5 1.5 1.5s1.5-.673 1.5-1.5c0-.627-.39-1.165-.938-1.388V161.5h3.376v1.612a1.501 1.501 0 0 0-.938 1.388c0 .827.673 1.5 1.5 1.5s1.5-.673 1.5-1.5c0-.627-.39-1.165-.938-1.388v-1.692a2.249 2.249 0 0 0 1.608-1.608h1.692c.223.549.761.938 1.388.938.827 0 1.5-.673 1.5-1.5s-.673-1.5-1.5-1.5zm-4.5 1.5a.75.75 0 0 1-.75.75h-4.5a.75.75 0 0 1-.75-.75v-4.5a.75.75 0 0 1 .75-.75h4.5a.75.75 0 0 1 .75.75v4.5z" fill="#094DFD"/><path fill-rule="evenodd" clip-rule="evenodd" d="M237.112 158.688a1.501 1.501 0 0 1 1.388-.938c.827 0 1.5.673 1.5 1.5s-.673 1.5-1.5 1.5a1.501 1.501 0 0 1-1.388-.938h-1.672c.039-.164.06-.336.06-.512v-.612h1.612zm-1.612-3.376v-.612c0-.176-.021-.348-.06-.512h1.672a1.501 1.501 0 0 1 1.388-.938c.827 0 1.5.673 1.5 1.5s-.673 1.5-1.5 1.5a1.501 1.501 0 0 1-1.388-.938H235.5zm-1.688-2.752v-1.672c.549-.223.938-.761.938-1.388 0-.827-.673-1.5-1.5-1.5s-1.5.673-1.5 1.5c0 .627.39 1.165.938 1.388v1.612h.612c.176 0 .348.021.512.06zm-4.5-.06v-1.612c.549-.223.938-.761.938-1.388 0-.827-.673-1.5-1.5-1.5s-1.5.673-1.5 1.5c0 .627.39 1.165.938 1.388v1.672c.164-.039.336-.06.512-.06h.612zm-2.752 1.688h-1.672a1.501 1.501 0 0 0-1.388-.938c-.827 0-1.5.673-1.5 1.5s.673 1.5 1.5 1.5c.627 0 1.165-.389 1.388-.938h1.612v-.612c0-.176.021-.348.06-.512zm-.06 4.5h-1.612a1.501 1.501 0 0 0-1.388-.938c-.827 0-1.5.673-1.5 1.5s.673 1.5 1.5 1.5c.627 0 1.165-.389 1.388-.938h1.672a2.215 2.215 0 0 1-.06-.512v-.612zm1.688 2.752v1.672a1.501 1.501 0 0 0-.938 1.388c0 .827.673 1.5 1.5 1.5s1.5-.673 1.5-1.5c0-.627-.39-1.165-.938-1.388V161.5h-.612c-.176 0-.348-.021-.512-.06zm4.5.06v1.612a1.501 1.501 0 0 0-.938 1.388c0 .827.673 1.5 1.5 1.5s1.5-.673 1.5-1.5c0-.627-.39-1.165-.938-1.388v-1.672c-.164.039-.336.06-.512.06h-.612z" fill="#AEC5FF"/><circle cx="126" cy="197" r="2" fill="#fff"/><circle cx="361" cy="159" r="2" fill="#fff"/><circle cx="604" cy="253" r="2" fill="#fff"/><circle cx="323" cy="46" r="2" fill="#fff"/><defs><filter id="b" x="388" y="224" width="92" height="92" filterUnits="userSpaceOnUse" color-interpolation-filters="sRGB"><feFlood flood-opacity="0" result="BackgroundImageFix"/><feColorMatrix in="SourceAlpha" values="0 0 0 0 0 0 0 0 0 0 0 0 0 0 0 0 0 0 127 0" result="hardAlpha"/><feOffset dy="4"/><feGaussianBlur stdDeviation="5.5"/><feColorMatrix values="0 0 0 0 0.225464 0 0 0 0 0.292994 0 0 0 0 0.647526 0 0 0 0.1 0"/><feBlend in2="BackgroundImageFix" result="effect1_dropShadow"/><feBlend in="SourceGraphic" in2="effect1_dropShadow" result="shape"/></filter><filter id="c" x="455" y="20" width="80" height="80" filterUnits="userSpaceOnUse" color-interpolation-filters="sRGB"><feFlood flood-opacity="0" result="BackgroundImageFix"/><feColorMatrix in="SourceAlpha" values="0 0 0 0 0 0 0 0 0 0 0 0 0 0 0 0 0 0 127 0" result="hardAlpha"/><feOffset dy="4"/><feGaussianBlur stdDeviation="5.5"/><feColorMatrix values="0 0 0 0 0.225464 0 0 0 0 0.292994 0 0 0 0 0.647526 0 0 0 0.1 0"/><feBlend in2="BackgroundImageFix" result="effect1_dropShadow"/><feBlend in="SourceGraphic" in2="effect1_dropShadow" result="shape"/></filter><filter id="d" x="15" y="262" width="92" height="92" filterUnits="userSpaceOnUse" color-interpolation-filters="sRGB"><feFlood flood-opacity="0" result="BackgroundImageFix"/><feColorMatrix in="SourceAlpha" values="0 0 0 0 0 0 0 0 0 0 0 0 0 0 0 0 0 0 127 0" result="hardAlpha"/><feOffset dy="4"/><feGaussianBlur stdDeviation="5.5"/><feColorMatrix values="0 0 0 0 0.225464 0 0 0 0 0.292994 0 0 0 0 0.647526 0 0 0 0.1 0"/><feBlend in2="BackgroundImageFix" result="effect1_dropShadow"/><feBlend in="SourceGraphic" in2="effect1_dropShadow" result="shape"/></filter><filter id="e" x="191" y="121" width="80" height="80" filterUnits="userSpaceOnUse" color-interpolation-filters="sRGB"><feFlood flood-opacity="0" result="BackgroundImageFix"/><feColorMatrix in="SourceAlpha" values="0 0 0 0 0 0 0 0 0 0 0 0 0 0 0 0 0 0 127 0" result="hardAlpha"/><feOffset dy="4"/><feGaussianBlur stdDeviation="5.5"/><feColorMatrix values="0 0 0 0 0.225464 0 0 0 0 0.292994 0 0 0 0 0.647526 0 0 0 0.1 0"/><feBlend in2="BackgroundImageFix" result="effect1_dropShadow"/><feBlend in="SourceGraphic" in2="effect1_dropShadow" result="shape"/></filter><clipPath id="a"><path fill="#fff" transform="translate(321 320)" d="M0 0h165v100H0z"/></clipPath></defs></svg>