<svg width="42" height="42" viewBox="0 0 42 42" fill="none" xmlns="http://www.w3.org/2000/svg"><rect opacity=".1" width="42" height="42" rx="21" fill="#B9C1D6"/><path opacity=".25" d="M22.172 24.472a2.683 2.683 0 0 1 2.3-2.3c.689-.094 1.436-.172 2.028-.172.592 0 1.34.078 2.028.172 1.2.164 2.136 1.1 2.3 2.3.094.689.172 1.436.172 2.028 0 .592-.078 1.34-.172 2.028a2.683 2.683 0 0 1-2.3 2.3c-.689.094-1.436.172-2.028.172-.592 0-1.34-.078-2.028-.172a2.683 2.683 0 0 1-2.3-2.3C22.078 27.839 22 27.092 22 26.5c0-.592.078-1.34.172-2.028zm-11 0a2.683 2.683 0 0 1 2.3-2.3c.689-.094 1.436-.172 2.028-.172.592 0 1.34.078 2.028.172 1.2.164 2.136 1.1 2.3 2.3.094.689.172 1.436.172 2.028 0 .592-.078 1.34-.172 2.028a2.683 2.683 0 0 1-2.3 2.3c-.689.094-1.436.172-2.028.172-.592 0-1.34-.078-2.028-.172a2.683 2.683 0 0 1-2.3-2.3C11.078 27.839 11 27.092 11 26.5c0-.592.078-1.34.172-2.028zm11-11a2.683 2.683 0 0 1 2.3-2.3c.689-.094 1.436-.172 2.028-.172.592 0 1.34.078 2.028.172 1.2.164 2.136 1.1 2.3 2.3.094.689.172 1.436.172 2.028 0 .592-.078 1.34-.172 2.028a2.683 2.683 0 0 1-2.3 2.3c-.689.094-1.436.172-2.028.172-.592 0-1.34-.078-2.028-.172a2.683 2.683 0 0 1-2.3-2.3C22.078 16.839 22 16.092 22 15.5c0-.592.078-1.34.172-2.028z" fill="#094DFD"/><path d="M11.172 13.472a2.683 2.683 0 0 1 2.3-2.3c.689-.094 1.436-.172 2.028-.172.592 0 1.34.078 2.028.172 1.2.164 2.136 1.1 2.3 2.3.094.689.172 1.436.172 2.028 0 .592-.078 1.34-.172 2.028a2.683 2.683 0 0 1-2.3 2.3c-.689.094-1.436.172-2.028.172-.592 0-1.34-.078-2.028-.172a2.683 2.683 0 0 1-2.3-2.3C11.078 16.839 11 16.092 11 15.5c0-.592.078-1.34.172-2.028z" fill="#094DFD"/></svg>