<svg width="42" height="42" viewBox="0 0 42 42" fill="none" xmlns="http://www.w3.org/2000/svg"><rect opacity=".1" width="42" height="42" rx="21" fill="#B9C1D6"/><path opacity=".25" fill-rule="evenodd" clip-rule="evenodd" d="M20 13.258c0-1.182-1.034-2.122-2.156-1.75C13.868 12.83 11 16.58 11 21c0 1.61.38 3.132 1.057 4.48.53 1.057 1.926 1.123 2.763.287l.093-.094c.69-.69.743-1.771.421-2.693a6 6 0 0 1 3.058-7.385c.88-.425 1.608-1.227 1.608-2.204v-.133zm5.479 16.686c1.057-.53 1.124-1.927.287-2.763l-.093-.094c-.69-.69-1.772-.743-2.694-.42A5.991 5.991 0 0 1 21 27c-.693 0-1.36-.117-1.979-.334-.922-.322-2.003-.27-2.694.421l-.093.094c-.837.836-.77 2.232.287 2.763A9.958 9.958 0 0 0 21 31c1.61 0 3.131-.38 4.479-1.056z" fill="#094DFD"/><path fill-rule="evenodd" clip-rule="evenodd" d="M22 13.39c0 .978.728 1.78 1.608 2.205a6 6 0 0 1 3.058 7.385c-.322.922-.27 2.003.421 2.693l.093.094c.837.836 2.233.77 2.763-.288A9.958 9.958 0 0 0 31 21c0-4.42-2.868-8.17-6.844-9.491-1.122-.373-2.156.566-2.156 1.75v.132z" fill="#094DFD"/></svg>