<svg width="42" height="42" viewBox="0 0 42 42" fill="none" xmlns="http://www.w3.org/2000/svg"><rect width="42" height="42" rx="5" fill="url(#a)"/><path opacity=".25" fill-rule="evenodd" clip-rule="evenodd" d="M21 31c5.523 0 10-4.477 10-10s-4.477-10-10-10-10 4.477-10 10 4.477 10 10 10z" fill="#fff"/><path fill-rule="evenodd" clip-rule="evenodd" d="M18.922 13.04c-1.01 1.573-1.966 4.13-1.966 7.96s.956 6.387 1.966 7.96c.508.79 1.029 1.33 1.45 1.66.211.167.387.273.512.333.042.02.073.032.094.04.021-.008.052-.02.094-.04a2.83 2.83 0 0 0 .512-.332c.421-.332.942-.872 1.45-1.662C24.044 27.387 25 24.83 25 21s-.956-6.387-1.966-7.96c-.508-.79-1.029-1.33-1.45-1.66a2.83 2.83 0 0 0-.512-.333 1.068 1.068 0 0 0-.094-.04c-.021.008-.052.02-.094.04a2.83 2.83 0 0 0-.512.332c-.421.332-.942.872-1.45 1.662zM20.978 11h-.022a9.99 9.99 0 0 0-3.494.627 9.574 9.574 0 0 0-.222.332C16 13.887 14.956 16.83 14.956 21S16 28.113 17.24 30.04c.073.115.147.226.222.333a9.98 9.98 0 0 0 3.494.627H21a9.98 9.98 0 0 0 3.494-.627c.075-.108.149-.218.222-.332C25.956 28.113 27 25.17 27 21s-1.044-7.113-2.284-9.04a10.683 10.683 0 0 0-.222-.333A9.978 9.978 0 0 0 21 11h-.022z" fill="#fff"/><path fill-rule="evenodd" clip-rule="evenodd" d="M30.95 22a10.106 10.106 0 0 0 0-2h-19.9a10.106 10.106 0 0 0 0 2h19.9z" fill="#fff"/><defs><linearGradient id="a" x1="21" x2="21" y2="42" gradientUnits="userSpaceOnUse"><stop stop-color="#09B4FD"/><stop offset="1" stop-color="#094DFD"/></linearGradient></defs></svg>