<svg width="42" height="42" viewBox="0 0 42 42" fill="none" xmlns="http://www.w3.org/2000/svg"><rect width="42" height="42" rx="5" fill="url(#a)"/><path opacity=".25" d="M11.213 19.2a3 3 0 0 1 2.994-3.2h13.586a3 3 0 0 1 2.994 3.2l-.6 9a3 3 0 0 1-2.994 2.8H14.807a3 3 0 0 1-2.994-2.8l-.6-9z" fill="#fff"/><path fill-rule="evenodd" clip-rule="evenodd" d="M16 16a5 5 0 0 1 10 0v2a1 1 0 1 1-2 0v-2a3 3 0 1 0-6 0v2a1 1 0 1 1-2 0v-2z" fill="#fff"/><defs><linearGradient id="a" x1="21" x2="21" y2="42" gradientUnits="userSpaceOnUse"><stop stop-color="#09B4FD"/><stop offset="1" stop-color="#094DFD"/></linearGradient></defs></svg>