<svg width="1440" height="754" viewBox="0 0 1440 754" fill="none" xmlns="http://www.w3.org/2000/svg"><circle cx="1320" cy="444" r="309.5" stroke="#2346E1" stroke-opacity=".09"/><circle cx="1324.5" cy="443.5" r="201" stroke="#2346E1" stroke-opacity=".09"/><circle cx="983" cy="597" r="35" fill="#231F20" filter="url(#a)"/><g clip-path="url(#b)" fill="#fff"><path d="M957.012 594.127h.987v4.448c0 .258.054.525.342.525.274 0 .365-.251.365-.525v-4.448h.835v4.311c0 1.13-.471 1.55-1.261 1.55-.759 0-1.268-.42-1.268-1.55v-4.311zm4.686 2.437h.198c.364 0 .501-.388.501-.799 0-.622-.213-.799-.547-.799h-.152v1.598zm-.987-2.438h1.109c.942 0 1.565.42 1.565 1.631 0 .484-.137 1.13-.578 1.404l.585 2.713h-.995l-.463-2.471h-.236v2.471h-.987v-5.748zm4.651 4.909c.592 0 .683-.25.683-.848 0-.524-.122-.823-.683-.815v1.663zm0-2.551c.493 0 .622-.242.622-.759 0-.654-.129-.767-.622-.758v1.517zm-.988-2.357h1.215c.608 0 1.337.355 1.337 1.453 0 .646-.273 1.146-.881 1.284v.016c.676.169.987.67.987 1.396 0 1.05-.668 1.599-1.397 1.599h-1.261v-5.748zm4.778.888h-.015l-.312 2.745h.615l-.288-2.745zm-.631-.888h1.428l.669 5.748h-.95l-.144-1.276h-.797l-.137 1.276h-.828l.759-5.748zm2.994 0h.964l.904 3.035h.015v-3.035h.79v5.748h-.767l-1.056-3.48h-.015v3.48h-.835v-5.748zm6.821 3.479c0 1.243.137 1.494.365 1.494.227 0 .364-.251.364-1.494v-1.211c0-1.243-.137-1.493-.364-1.493-.228 0-.365.25-.365 1.493v1.211zm.365-3.592c.873 0 1.443.718 1.443 2.987 0 2.268-.57 2.987-1.443 2.987-.874 0-1.444-.719-1.444-2.987 0-2.269.57-2.987 1.444-2.987zm2.469.113h.987v4.448c0 .258.054.525.342.525.274 0 .365-.251.365-.525v-4.448h.835v4.311c0 1.13-.471 1.55-1.26 1.55-.76 0-1.269-.42-1.269-1.55v-4.311zm4.155.888h-.85v-.888h2.688v.888h-.85v4.86h-.988v-4.86zm2.652-.888h2.21v.888h-1.223v1.534h.904v.936h-.904v2.39h-.987v-5.748z"/><path fill-rule="evenodd" clip-rule="evenodd" d="M991.038 594.127h.988v5.748h-.988v-5.748z"/><path d="M993.65 595.015h-.85v-.888h2.689v.888h-.851v4.86h-.988v-4.86zm3.108 0h-.85v-.888h2.689v.888h-.851v4.86h-.988v-4.86zm2.651-.888h2.231v.888h-1.24v1.469h.92v.937h-.92v1.566h1.3v.888h-2.291v-5.748zm4.231 2.437h.2c.36 0 .5-.388.5-.799 0-.622-.21-.799-.55-.799h-.15v1.598zm-.99-2.438h1.11c.94 0 1.57.42 1.57 1.631 0 .484-.14 1.13-.58 1.404l.58 2.713h-.99l-.46-2.471h-.24v2.471h-.99v-5.748zm4.34 4.086c0 .323 0 .888.43.888.32 0 .44-.323.44-.557 0-1.026-1.8-1.26-1.8-2.963 0-.864.44-1.566 1.28-1.566.89 0 1.23.718 1.25 1.751h-.88c0-.322 0-.863-.39-.863-.24 0-.37.21-.37.525 0 .976 1.79 1.307 1.79 2.978 0 .88-.47 1.583-1.36 1.583-1.06 0-1.27-.985-1.27-1.776h.88z"/></g><circle cx="1001" cy="221" r="45" fill="#fff" filter="url(#c)"/><path d="M1000.59 176.002c-7.304.06-14.55 1.759-20.383 5.094-14.402 7.323-23.082 22.204-24.207 37.596l.406.818c5.414 2.896 8.922-3.473 14.202-2.756 1.19.545-.238 1.462-.203 2.246-.412 1.02-1.845.543-2.763.818-3.612 1.565-7.321 4.598-11.544 2.96 0 0 .03.316.063.77h-.007c.088 1.161.252 3.219.252 3.219 4.734 1.501 7.796-3.444 12.257-2.862-.105.986-.17 2.043-.713 2.757-4.087.207-6.645 4.054-10.936 3.785l.819 3.268c3.71.376 6.098-3.44 9.809-3.065l-.098 2.449c-3.27.306-5.381 3.371-8.683 3.576.441 7.559 5.679-1.159 8.984.308.135.815.616 1.6.308 2.456-2.657-.037-4.326 2.282-6.64 3.064.408.953.682 2.314 1.735 2.652 1.977-.817 3.578-2.548 5.926-2.449-.271-.887-.509-2.08-.406-2.862 2.961.783 4.667-1.536 6.745-2.861.474-4.193 3.4-7.391 5.205-11.035a9.542 9.542 0 0 0 .245-2.4c-.092-4.431-2.759-8.715-.651-13.337.648-1.805 1.773-4.183 3.68-4.695-3.508 4.19-2.859 10.59-1.021 15.324.371.963.504 1.858.468 2.708-.157 3.736-3.633 6.584-4.967 9.964-1.665 3.373-.139 7.224 1.735 10.013-2.689 2.078-5.175 4.732-8.682 4.8-.986-.481-1.021-1.836-1.532-2.757-2.076-.411-3.74 1.022-5.409 2.043l1.938 2.449c1.43-.682 3.069-2.14 4.702-1.119 2.419 2.861-2.355 1.423-2.967 3.163.679.919 1.5 1.6 2.351 2.351.987-.307 1.772-1.092 2.967-.924.476.579 1.019 1.158 1.224 1.84l-1.84 1.127c1.329 1.362 2.999 2.658 4.597 3.274.955-3.206 3.507-5.688 4.701-8.788.239-1.193.304-2.626.609-3.681 3.438 5.347-3.778 8.516-3.778 13.589.751.68 1.669 1.052 2.553 1.427-.136-3.983 3.202-6.536 4.597-9.908 2.555-5.347-3.338-8.685-5.212-12.972-1.771-3.887.716-7.535 3.169-10.426 1.708-1.845 2.152-3.651 2.001-5.465-.34-4.111-3.728-8.238-2.309-12.826.819-2.86 2.042-6.269 5.002-7.459-2.146 2.484-3.269 5.38-3.47 8.683-.597 4.489 3 7.609 3.205 11.602a6.928 6.928 0 0 1-.343 2.505c-1.669 3.61-5.447 6.329-5.415 10.622-.444 5.649 6.947 7.8 6.128 13.595-.067 5.041-5.854 7.827-4.596 13.274l3.169 1.029c-1.805-6.13 4.563-9.542 4.597-15.023.305-4.634-4.665-7.049-5.926-11.035-1.326-3.952 1.566-7.116 3.778-10.118 1.087-1.694 1.343-3.291 1.168-4.849-.443-3.863-3.561-7.479-3.414-11.7-.069-3.882 1.631-7.698 5.002-9.502-1.017 1.462-2.176 2.858-2.756 4.492-2.112 5.725 1.432 10.63 3.169 15.534.134.406.228.795.28 1.176.653 4.545-4.002 7.446-4.883 11.594-1.193 5.041 4.225 7.355 5.415 11.546 2.555 6.842-5.718 10.829-3.778 17.675-.034 2.01 2.316 1.229 3.575 1.637-3.064-5.652 1.877-10.319 3.372-15.219 1.67-5.248-3.33-8.212-5.408-12.266-2.183-4.563 2.786-7.391 3.876-11.238.917-2.624 3.273-.202 4.806-.51 2.08.379 3.88-1.67 5.62-.203.85 3.474 4.86 5.618 4.9 9.397-.14 5.854-8.61 8.92-5.92 15.324 2.21 4.463 5.99 9.57 3.47 14.715l3.16-.714c2.11-5.28-1.8-9.337-3.67-13.595-1.7-4.868 2.55-8.511 5.1-12.252 2.43-4.532-1.46-8.25-3.67-11.756-.76-1.443-.92-2.813-.73-4.135.39-2.804 2.3-5.41 3.18-8.026 1.87-4.459.82-10.007-2.66-13.379l.11-.105c1.73 1.024 3.3 2.828 4.08 4.598 2.98 5.994-1.28 11.303-2.34 16.912l-.11.665c-.1 3.954 3.14 5.826 4.7 8.991 2.62 5.108-2 8.719-4.59 12.567-4.19 7.186 5.82 11.407 3.78 18.592l3.06-1.022c.78-3.852-2.11-6.978-3.99-10.111-2.58-5.246 2.05-9.298 4.7-13.281 2.35-4.972-1.73-9.163-4.08-12.98-.75-1.098-.99-2.256-.93-3.421h.01c.12-2.231 1.35-4.491 2.25-6.389 1.77-4.77.54-10.554-2.56-14.099 2.08.853 3.61 3.171 4.29 5.213 2.45 5.075-.54 10.149-1.53 14.918l-.01.357c-.03 4.573 4.3 7.101 5.52 11.181 1.2 4.225-2.17 7.153-4.18 10.223-6.03 6.269 3.37 10.968 3.27 17.165.88-.374 2.04-.551 2.55-1.435-.44-3.437-3.37-5.858-4.6-8.991-.06-1.497-.41-3.339.62-4.493l.2.203c-.37 5.004 3.99 8.038 5.31 12.364 1.54-.924 3.14-1.8 4.4-3.162-.48-.479-1.19-.851-1.84-1.127-.34-.749.65-1.466 1.12-2.148l2.86 1.022c.85-.785 1.77-1.426 2.25-2.449-1.02-.717-2.15-1.233-3.37-1.435-.04-.782.4-1.394.91-1.938 1.74-.067 3.11.748 4.5 1.427.75-.678 1.57-1.561 1.84-2.547l-3.68-1.84c-2.52-1.601-1.84 1.87-3.06 2.652-3.44-.136-5.89-2.556-8.48-4.702.31-1.564 1.53-2.753 1.94-4.289 1.5-5.004-2.48-8.781-4.7-12.77a5.671 5.671 0 0 1-.75-2.911c.01-2.712 1.68-5.415 1.77-8.229.85-3.643-.85-7.146-2.25-10.111.96.58 1.98 1.358 2.56 2.344 1.91 3.747 2.45 8.963.72 12.98-.43 1.076-.58 2.078-.52 3.016.28 4.705 5.56 7.999 5.62 13.022 2.04 1.535 3.89 4.093 6.64 3.274.21.987-.34 2.037-.31 2.96 2.46-.136 4.09 1.707 6.24 2.351.51-.885 1.39-1.772 1.33-2.764-2.42-.713-4.16-3.093-6.85-3.162l.51-2.351c2.83-.069 4.9 2.319 7.56 2.966.92-.685 1.23-1.941 1.53-3.064-3.26-.511-5.61-3.274-8.88-3.786.06-.812-.17-1.763.2-2.449 3.1 0 5.14 2.49 7.97 3.17 2.72 1.294 1.83-1.942 2.45-3.17-4.33.173-6.94-3.844-11.13-3.981l-.51-2.561c4.52-.746 7.59 4.195 12.25 2.869.45-1.181.35-2.172.31-3.324v-.77c-5.28 2.081-8.75-3.198-13.79-3.163-.66-.749-.82-1.667-1.13-2.554 5.69-1.835 9.43 6.363 15.02 2.142-.44-6.916-1.91-13.412-5.11-19.201-3.34-6.608-9.5-13.117-15.93-17.066-6.63-4.694-15.55-7.007-24.37-6.934zm.36 2.848c1.12 1.532 1.5 3.539 2.45 5.205l5.52.308-.11.511-4.08 3.884c.71 1.738 1.43 3.479 2.15 5.213 3.1-1.802 6.06-4.055 9.81-4.297-.35 1.979-1.84 4.06-1.64 6.032 2.32-.647 4.43-2.079 6.95-1.945-1.57 2.897-3.86 5.796-3.99 9.404-3.44-1.291-6.98-2.859-10.83-3.471-8.202-1.398-16.108.402-22.887 3.674-.577-3.44-2.245-6.432-4.289-9.292 1.226-.41 2.725.263 3.988.608 1.056.303 1.94 1.024 3.064 1.232.201-2.044-.99-4.06-1.84-5.934.579-.443 1.501-.104 2.148.105 2.688 1.02 5.104 2.618 7.556 4.086 1.26-1.468 1.734-3.579 2.246-5.52l-4.184-3.779v-.406l5.513-.308c.919-1.735 1.535-3.573 2.455-5.31zm-35.659 18.486c.317.02.669.286.924.413 2.625 2.044 3.883 4.87 4.19 7.97 3.302-1.262 7.792-3.443 11.334-1.127-.751 1.055-2.207 1.637-3.267 2.554-1.734 1.703-3.848 3.782-5.107 5.927-4.257-.853-7.662 1.635-11.236 3.065-1.362.27-3.166.407-4.289-.511 3.371-5.554 8.13-10.662 6.94-17.983.141-.243.321-.32.511-.308zm71.729.105c.44.067.74.548.61 1.022-1.33 6.947 3.43 11.852 6.63 17.164-3.67 2.453-7.15-1.328-10.62-2.246-1.53-.238-3.33-.442-4.8-.203-2.11-3.267-4.94-6.335-8.38-8.173.21-1.122 1.77-1.193 2.87-1.329 3.03-.303 5.68.951 8.17 2.246.47-1.122.67-2.386 1.01-3.576.82-2.01 2.43-4.056 4.51-4.905zm-36.44 3.674c.19-.004.37-.002.56 0 1 .009 2 .091 2.97.21 1.98.51 4.16 1.365 5.11 3.477.11.579.68 1.089.31 1.736-2.01-.616-4.29-.273-6.24.51-1.73 1.294-1.46 3.951-1.02 5.822l.52.413c.85-.206.88-1.298 1.63-1.539 1.26.308 3 .753 4.19 0 1.06.035 1.02 1.501 1.12 2.253-.75 3.95-2.41 8.238-6.43 10.111-1.67.818-3.82.269-5.42-.308-3.949-2.35-6.16-7.009-5.716-11.231.307-.647.782-1.164 1.532-.721 1.596 1.089 3.333-.847 4.799.511 1.765-.783.714-2.961.714-4.597-1.43-1.841-3.879-1.572-6.024-1.434-.955-.582.073-1.493.308-2.141 1.629-2.298 4.296-3.015 7.087-3.072zm-6.478 6.934c1.326-.049 2.632.452 3.267 1.448v.413c-1.157-.103-3.028-1.261-4.086.203-.679.304-.782-.483-.714-.923-.136-.511.173-.917.616-1.015.3-.07.611-.115.917-.126zm13.068.112c.95-.02 1.94.053 2.36.826-.03.412.07.887-.41 1.126-1.29-.51-3.1-1.228-4.39-.203-.75-1.602 1.33-1.26 2.04-1.735.13-.005.27-.011.4-.014zm-6.03 6.675c-.73 0-1.483.213-2.029.588.067.273-.168.681.203.819 1.086-.236 3.066.58 3.676-.714-.43-.476-1.12-.692-1.85-.693zm-3.869 3.345l.098.616c1.33.885 1.74 2.388 3.581 2.253 1.63.097 2.86-1.434 3.67-2.659-2.21-.306-4.896.167-7.349-.21z" fill="#1F622E"/><circle cx="1360" cy="403" r="60" fill="#fff" filter="url(#d)"/><path d="M1359.46 343.002c-9.74.081-19.41 2.346-27.18 6.792-19.21 9.765-30.78 29.606-32.28 50.128l.54 1.092c7.22 3.861 11.9-4.631 18.94-3.676 1.58.728-.32 1.951-.27 2.995-.55 1.361-2.46.724-3.69 1.091-4.81 2.087-9.76 6.13-15.39 3.947 0 0 .04.421.08 1.026.11 1.548.33 4.292.33 4.292 6.31 2.001 10.4-4.591 16.34-3.816-.14 1.315-.22 2.724-.95 3.676-5.45.276-8.86 5.406-14.58 5.047l1.09 4.357c4.95.502 8.13-4.587 13.08-4.086l-.13 3.265c-4.36.408-7.17 4.495-11.57 4.768.58 10.079 7.57-1.546 11.97.41.18 1.088.82 2.134.41 3.275-3.54-.049-5.76 3.044-8.85 4.086.54 1.27.91 3.085 2.31 3.536 2.64-1.09 4.77-3.398 7.91-3.265-.37-1.183-.68-2.774-.55-3.816 3.95 1.043 6.23-2.049 9-3.816.63-5.591 4.53-9.853 6.94-14.713.25-1.072.34-2.138.32-3.2-.12-5.907-3.67-11.619-.86-17.782.86-2.407 2.36-5.578 4.9-6.26-4.67 5.587-3.81 14.12-1.36 20.432a8.92 8.92 0 0 1 .63 3.61c-.21 4.982-4.85 8.779-6.63 13.286-2.22 4.497-.18 9.631 2.32 13.35-3.59 2.771-6.9 6.309-11.58 6.4-1.31-.642-1.36-2.448-2.04-3.676-2.77-.547-4.99 1.364-7.21 2.725l2.58 3.265c1.91-.91 4.09-2.854 6.27-1.493 3.22 3.816-3.14 1.898-3.96 4.217.91 1.227 2 2.134 3.14 3.135 1.31-.409 2.36-1.455 3.95-1.231.64.771 1.36 1.544 1.64 2.453l-2.46 1.502c1.77 1.816 4 3.544 6.13 4.367 1.27-4.276 4.68-7.585 6.27-11.718.32-1.59.41-3.501.81-4.908 4.59 7.129-5.04 11.354-5.04 18.118 1.01.906 2.23 1.403 3.41 1.904-.18-5.311 4.27-8.715 6.13-13.211 3.4-7.13-4.45-11.581-6.95-17.297-2.36-5.182.95-10.046 4.22-13.901 2.28-2.46 2.87-4.867 2.67-7.287-.45-5.481-4.97-10.984-3.08-17.101 1.09-3.814 2.72-8.359 6.67-9.946-2.86 3.312-4.36 7.174-4.62 11.579-.8 5.984 4 10.145 4.27 15.468a9.284 9.284 0 0 1-.46 3.34c-2.22 4.814-7.26 8.439-7.22 14.163-.59 7.532 9.26 10.4 8.17 18.127-.09 6.721-7.8 10.435-6.13 17.698l4.23 1.372c-2.41-8.173 6.08-12.723 6.13-20.031.41-6.178-6.22-9.398-7.9-14.713-1.77-5.269 2.09-9.488 5.03-13.49 1.45-2.259 1.79-4.388 1.56-6.466-.59-5.15-4.75-9.971-4.55-15.599-.09-5.176 2.17-10.264 6.67-12.67-1.36 1.949-2.9 3.81-3.68 5.99-2.81 7.632 1.91 14.173 4.23 20.712.18.54.3 1.06.37 1.567.87 6.06-5.33 9.928-6.51 15.459-1.59 6.721 5.64 9.807 7.22 15.394 3.41 9.123-7.62 14.439-5.04 23.567-.04 2.68 3.09 1.639 4.77 2.183-4.08-7.536 2.5-13.758 4.5-20.292 2.22-6.997-4.44-10.95-7.21-16.355-2.91-6.084 3.71-9.854 5.17-14.983 1.22-3.499 4.36-.27 6.4-.681 2.77.505 5.18-2.227 7.49-.271 1.14 4.632 6.49 7.492 6.53 12.53-.18 7.805-11.48 11.893-7.89 20.432 2.95 5.951 7.99 12.759 4.63 19.62l4.22-.952c2.81-7.041-2.4-12.449-4.9-18.127-2.27-6.49 3.41-11.347 6.81-16.336 3.23-6.042-1.95-11-4.9-15.674-1.02-1.924-1.23-3.751-.98-5.514.52-3.738 3.08-7.213 4.25-10.701 2.49-5.946 1.08-13.342-3.55-17.838l.14-.14c2.32 1.364 4.4 3.77 5.45 6.129 3.97 7.993-1.71 15.072-3.12 22.55l-.15.886c-.13 5.273 4.18 7.77 6.27 11.989 3.5 6.81-2.68 11.625-6.13 16.756-5.58 9.581 7.77 15.21 5.04 24.789l4.09-1.362c1.04-5.136-2.82-9.304-5.32-13.482-3.45-6.995 2.73-12.396 6.27-17.707 3.13-6.63-2.32-12.218-5.45-17.307-1-1.464-1.32-3.009-1.23-4.562h.01c.16-2.974 1.8-5.988 2.99-8.518 2.36-6.36.73-14.072-3.4-18.799 2.77 1.137 4.8 4.229 5.72 6.951 3.27 6.766-.73 13.532-2.05 19.89l-.01.476c-.05 6.098 5.73 9.468 7.36 14.909 1.6 5.633-2.89 9.537-5.57 13.63-8.04 8.359 4.49 14.624 4.35 22.886 1.18-.498 2.72-.734 3.41-1.913-.59-4.583-4.5-7.811-6.13-11.988-.09-1.996-.55-4.452.82-5.99l.27.271c-.5 6.672 5.31 10.716 7.08 16.485 2.05-1.233 4.18-2.401 5.86-4.217-.64-.638-1.59-1.135-2.45-1.502-.46-.999.86-1.954 1.5-2.864l3.8 1.362c1.14-1.046 2.37-1.901 3.01-3.265-1.37-.955-2.87-1.643-4.5-1.913-.05-1.042.54-1.858 1.22-2.584 2.32-.089 4.14.997 6 1.903 1-.904 2.09-2.082 2.45-3.396l-4.9-2.454c-3.36-2.134-2.46 2.494-4.09 3.536-4.58-.181-7.85-3.407-11.31-6.269.41-2.085 2.05-3.671 2.6-5.719 2-6.672-3.32-11.707-6.27-17.027a7.542 7.542 0 0 1-1.01-3.881c.03-3.616 2.24-7.219 2.37-10.972 1.13-4.857-1.14-9.527-3-13.481 1.27.773 2.64 1.81 3.41 3.126 2.54 4.995 3.27 11.95.95 17.306-.57 1.435-.76 2.77-.69 4.021.38 6.273 7.42 10.666 7.5 17.363 2.72 2.046 5.18 5.457 8.86 4.366.27 1.315-.46 2.715-.41 3.946 3.26-.182 5.45 2.276 8.31 3.135.68-1.181 1.86-2.363 1.77-3.685-3.22-.952-5.54-4.124-9.12-4.217l.67-3.135c3.77-.091 6.54 3.093 10.08 3.956 1.23-.913 1.63-2.589 2.04-4.087-4.35-.68-7.49-4.365-11.84-5.047.09-1.083-.23-2.351.27-3.265 4.13 0 6.85 3.32 10.62 4.226 3.63 1.725 2.45-2.589 3.27-4.226-5.77.231-9.26-5.125-14.84-5.309l-.68-3.414c6.03-.994 10.12 5.593 16.34 3.825.6-1.575.45-2.896.41-4.432l-.01-1.026c-7.04 2.774-11.66-4.264-18.39-4.217-.86-.999-1.09-2.223-1.5-3.405 7.59-2.448 12.58 8.484 20.03 2.854-.59-9.22-2.55-17.882-6.81-25.6-4.45-8.811-12.67-17.49-21.25-22.755-8.84-6.258-20.72-9.343-32.48-9.246zm.47 3.797c1.5 2.043 2 4.72 3.27 6.942l7.36.41-.14.681-5.45 5.178c.95 2.318 1.91 4.64 2.87 6.951 4.13-2.402 8.08-5.407 13.07-5.729-.45 2.638-2.45 5.413-2.18 8.042 3.09-.862 5.9-2.772 9.26-2.593-2.09 3.862-5.13 7.728-5.31 12.539-4.59-1.722-9.31-3.812-14.43-4.628-10.95-1.864-21.49.535-30.53 4.898-.77-4.586-2.99-8.576-5.71-12.389 1.63-.546 3.63.351 5.31.811 1.41.405 2.59 1.366 4.09 1.642.27-2.725-1.32-5.413-2.45-7.911.77-.591 2-.138 2.86.14 3.58 1.359 6.8 3.491 10.07 5.448 1.68-1.957 2.32-4.772 3-7.361l-5.58-5.038v-.541l7.35-.41c1.22-2.315 2.05-4.765 3.27-7.082zm-47.54 24.649c.42.027.89.381 1.23.551 3.5 2.725 5.18 6.492 5.59 10.626 4.4-1.683 10.39-4.591 15.11-1.502-1 1.407-2.94 2.183-4.36 3.405-2.31 2.271-5.13 5.043-6.81 7.903-5.67-1.138-10.21 2.179-14.98 4.086-1.81.36-4.22.543-5.72-.681 4.5-7.405 10.84-14.216 9.26-23.977.18-.324.42-.427.68-.411zm95.63.14c.59.09 1 .731.81 1.362-1.76 9.263 4.59 15.803 8.86 22.886-4.9 3.271-9.55-1.77-14.17-2.995-2.05-.317-4.45-.589-6.4-.27-2.81-4.356-6.58-8.447-11.17-10.897.27-1.496 2.36-1.591 3.82-1.773 4.04-.404 7.58 1.268 10.89 2.995.64-1.496.9-3.181 1.35-4.768 1.1-2.68 3.24-5.408 6.01-6.54zm-48.58 4.898c.25-.005.5-.002.75 0 1.33.013 2.67.122 3.96.28 2.64.681 5.54 1.821 6.81 4.637.14.771.91 1.451.41 2.314-2.68-.821-5.72-.363-8.31.681-2.32 1.725-1.95 5.267-1.36 7.762l.69.551c1.13-.275 1.18-1.731 2.17-2.053 1.68.411 4 1.004 5.59 0 1.41.047 1.36 2.002 1.49 3.004-1 5.267-3.21 10.985-8.57 13.481-2.23 1.092-5.1.36-7.23-.41-5.27-3.133-8.21-9.345-7.62-14.974.41-.863 1.04-1.552 2.04-.961 2.13 1.452 4.45-1.13 6.4.681 2.36-1.044.95-3.948.95-6.13-1.9-2.454-5.17-2.096-8.03-1.912-1.27-.775.1-1.991.41-2.855 2.17-3.064 5.73-4.02 9.45-4.096zm-8.64 9.246c1.77-.065 3.51.602 4.36 1.931v.551c-1.54-.139-4.04-1.682-5.45.27-.91.406-1.04-.644-.95-1.231-.18-.681.23-1.222.82-1.353.4-.094.81-.153 1.22-.168zm17.43.149c1.26-.026 2.59.071 3.14 1.101-.04.549.1 1.184-.54 1.502-1.73-.68-4.13-1.637-5.86-.27-1-2.136 1.77-1.681 2.73-2.314.17-.006.35-.015.53-.019zm-8.04 8.901c-.97-.001-1.98.283-2.71.783.09.364-.22.908.27 1.092 1.46-.315 4.09.773 4.9-.952-.57-.635-1.49-.923-2.46-.923zm-5.16 4.459l.13.821c1.77 1.181 2.32 3.185 4.77 3.004 2.18.13 3.82-1.911 4.9-3.545-2.95-.408-6.53.222-9.8-.28z" fill="#1F622E"/><circle cx="841" cy="360" r="45" fill="#231F20" filter="url(#e)"/><path d="M825 346h5.075v22.01c0 1.278.274 2.597 1.757 2.597 1.407 0 1.874-1.239 1.874-2.597V346H838v21.33c0 5.593-2.421 7.67-6.48 7.67-3.904 0-6.52-2.077-6.52-7.67V346zm24.232 17.041c0 6.243.663 7.5 1.768 7.5s1.768-1.257 1.768-7.5v-6.081c0-6.243-.663-7.5-1.768-7.5s-1.768 1.257-1.768 7.5v6.081zM851 345c4.237 0 7 3.608 7 15s-2.763 15-7 15-7-3.608-7-15 2.763-15 7-15z" fill="#fff"/><circle cx="1265.5" cy="570.5" r="42.5" fill="#004691" filter="url(#f)"/><g clip-path="url(#g)" fill-rule="evenodd" clip-rule="evenodd"><path d="M1243.64 573.838h-6.41a.874.874 0 0 0-.87.885v1.52a.869.869 0 0 0 .87.884h6.41v-3.289zm11.01.262a.88.88 0 0 0-.62-.262h-6.41v3.289h6.41a.871.871 0 0 0 .87-.884v-1.52a.87.87 0 0 0-.25-.623zm0-5.919a.871.871 0 0 0-.62-.262h-6.41v3.288h6.41a.875.875 0 0 0 .87-.884v-1.52a.87.87 0 0 0-.25-.622zm-11.01-.262h-6.41a.871.871 0 0 0-.87.884v1.52a.871.871 0 0 0 .87.884h6.41v-3.288zm10.37-2.631h-16.76c-.25 0-.47-.1-.63-.262a.876.876 0 0 1-.26-.623v-1.52c0-.244.1-.464.26-.624a.88.88 0 0 1 .63-.26h16.76c.25 0 .47.1.63.262.16.16.26.38.26.622v1.52a.88.88 0 0 1-.26.623.877.877 0 0 1-.63.262z" fill="#EB0028"/><path d="M1292.81 562h-1c-1.28 0-1.37.141-1.46.363l-1.99 4.801c-.66 1.593-1.35 3.308-1.61 4.195-.24-.887-.68-2.078-1.6-4.276l-1.99-4.72c-.12-.282-.62-.363-1.71-.363h-1.12c-1.1 0-1.32.101-1.32.323v14.482c0 .263.22.323 1.36.323h.62c1.13 0 1.45-.06 1.45-.323v-8.592h.08s.1.403.26.766l2.29 5.385c.1.243.22.344 1.28.344h.68c1.09 0 1.17-.081 1.27-.344l2.08-5.183c.21-.485.35-.968.35-.968h.08v8.592c0 .263.22.323 1.4.323h.6c1.11 0 1.43-.06 1.43-.323v-14.482c0-.222-.32-.323-1.43-.323zm-17.12.323c0-.222-.31-.323-1.37-.323h-.62c-1.13 0-1.32.101-1.32.323v14.482c0 .263.19.323 1.32.323h.62c1.06 0 1.37-.06 1.37-.323v-14.482zm-5.67-.323c.31 0 .37.041.37 1.109v.989c0 1.029-.08 1.149-.37 1.149h-3.5v11.558c0 .263-.32.323-1.5.323h-.62c-1.19 0-1.39-.06-1.39-.323v-11.558h-3.5c-.29 0-.37-.08-.37-1.149v-.989c0-1.109.06-1.109.37-1.109h10.51z" fill="#fff"/></g><circle cx="1144.5" cy="469.5" r="53.5" fill="#fff" filter="url(#h)"/><g clip-path="url(#i)"><path d="M1104.08 463.169h2.25c1.14 0 1.68-.591 1.68-1.42 0-.675-.36-1.125-1.09-1.266.65-.155.94-.548.94-1.125 0-.731-.53-1.322-1.67-1.322h-2.1v5.133h-.01zm1.95-2.18c.43 0 .72.211.72.633 0 .45-.28.633-.72.633h-.73v-1.28h.73v.014zm-.14-2.053c.43 0 .72.183.72.605s-.28.605-.72.605h-.59v-1.21h.59zm6.66-.914h-1.26l-1.93 5.147h1.28l.35-1.069h1.86l.35 1.069h1.3l-1.95-5.147zm-.63 1.238l.61 1.898h-1.24l.63-1.898zm9-1.238h-1.17v3.445l-2.2-3.445h-1.31v5.147h1.17v-3.431l2.2 3.431h1.31v-5.147zm5.39 5.147l-1.69-2.616v2.616h-1.25v-5.147h1.25v2.475l1.61-2.475h1.39l-1.69 2.475 1.84 2.672h-1.46zm5.9-2.573c0 1.026.62 1.659 1.42 1.659.8 0 1.42-.633 1.42-1.659 0-1.027-.62-1.66-1.42-1.66-.8 0-1.42.633-1.42 1.66zm-1.32 0c.01-1.505 1.07-2.686 2.74-2.686 1.68 0 2.73 1.181 2.75 2.686-.02 1.504-1.07 2.686-2.75 2.686-1.67 0-2.73-1.182-2.74-2.686zm7.2 2.573h1.26v-2.025h1.63v-.984h-1.63v-1.154h1.97l.22-.984h-3.45v5.147zm9.3-5.147h-1.27l-1.93 5.147h1.28l.35-1.069h1.86l.36 1.069h1.29l-1.94-5.147zm-.64 1.238l.61 1.898h-1.24l.63-1.898zm10.01-1.238h-1.46l-1.34 2.785-1.33-2.785h-1.47v5.147h1.13v-3.445l1.66 3.445 1.66-3.445v3.445h1.17l-.02-5.147zm2.44 5.147h3.52v-.984h-2.27v-1.153h1.79v-.957h-1.79v-1.069h2.07l.23-.984h-3.55v5.147zm8.29 0h1.37l-1.28-2.18c.7-.197 1.04-.689 1.04-1.406 0-.928-.56-1.547-1.83-1.547h-1.99v5.147h1.23v-2.025h.34l1.12 2.011zm-.94-4.191c.52 0 .79.225.79.661 0 .436-.27.661-.79.661h-.53v-1.322h.53zm4.18 4.191h1.26v-5.133h-1.26v5.133zm7.42-1.378c-.48.337-.9.45-1.34.45-.95 0-1.63-.661-1.63-1.645 0-.985.66-1.646 1.59-1.646.42 0 .85.113 1.31.45v-1.167c-.42-.239-.91-.337-1.46-.337-1.71 0-2.78 1.181-2.79 2.686.01 1.518 1.06 2.686 2.79 2.686.57 0 1.07-.099 1.52-.338v-1.139h.01zm4.59-3.769h-1.26l-1.93 5.147h1.28l.35-1.069h1.86l.35 1.069h1.3l-1.95-5.147zm-.63 1.238l.6 1.898h-1.23l.63-1.898z" fill="#012169"/></g><path d="M1144.19 497.82c8.23-7.049 19.79-13.901 26.15-16.368-.98-.626-2.51-1.527-4.24-2.506-8.19 2.702-17.76 8.693-26.3 15.467 1.45 1.096 2.97 2.232 4.39 3.407z" fill="#E31837"/><path d="M1140.42 478.673c-1.21-.588-2.55-1.136-3.57-1.606-3.09 1.527-7.13 3.838-12.23 7.479 1.1.588 2.28 1.292 3.53 1.997 3.92-2.897 7.88-5.638 12.27-7.87z" fill="#012169"/><path d="M1147.75 475.305c-1.49-.822-6.66-2.741-10.23-3.563-1.06.392-2.55.979-3.57 1.41 1.3.352 6.12 1.644 10.24 3.72 1.05-.509 2.54-1.136 3.56-1.567z" fill="#E31837"/><path d="M1130.23 474.797c-4.59 2.114-9.41 5.012-12.04 6.696.94.43 1.89.783 3.18 1.409 5.8-3.915 10.35-6.304 12.15-7.087-1.29-.47-2.51-.783-3.29-1.018z" fill="#012169"/><path d="M1151.2 474.092c1.06-.353 2.28-.666 3.33-.979-3.05-1.292-6.9-2.663-10.34-3.524-.55.156-2.2.587-3.34.94 1.18.352 5.06 1.253 10.35 3.563zm-19.32 14.723c1.25.744 2.58 1.762 3.88 2.623 8.58-6.656 17.05-11.786 26.34-14.684-1.29-.665-2.43-1.253-3.88-1.957-5.57 1.409-15.09 5.207-26.34 14.018z" fill="#E31837"/><circle cx="1179" cy="263" r="39" fill="#fff" filter="url(#j)"/><g clip-path="url(#k)"><path d="M1205.44 255.013c-3.87-4.27-28.8-.429-39.4 1.885l-.24.053c-.05.009-.09.058-.08.109.01.051.06.085.11.076l.25-.048c8.78-1.563 27.04-3.729 30.97.165 1.2 1.188.91 2.719-.48 4.524.75.482 1.28 1.238 1.52 2.186 5.43-3.609 9.08-7.048 7.35-8.95zm-16.13 13.049c0 .002 0 .004-.01.006-2.45 1.738-5.36 3.564-8.5 5.481l-.12.072a.094.094 0 0 0-.02.13c.03.042.09.053.13.023l.1-.055c2.66-1.386 5.71-3.03 8.78-4.717.02-.009.03-.019.05-.027-.17-.277-.31-.58-.41-.913" fill="#D22F2F"/><path d="M1189.61 266.862c-.09-2.564 1.92-5.186 4.84-5.186 1.95 0 3.23 1.3 3.3 3.292.1 2.704-1.78 5.186-4.84 5.186-1.95 0-3.23-1.298-3.3-3.292zm1.27.08c.05 1.503 1 2.733 2.24 2.733 2.41 0 3.43-2.95 3.36-4.921-.05-1.506-1.03-2.734-2.27-2.734-2.07 0-3.4 2.937-3.33 4.922zm-26.39-2.336c-.01.236-.05.442-.11.802l-.43 2.409c-.04.214.04.382.24.497l-.01.094-2.46-.004-.02-.613c-.36.217-.79.398-1.18.505-.39.1-.71.144-1.18.144-.8 0-1.25-.082-1.57-.357-.31-.284-.47-.472-.45-.862.01-.225.13-.513.29-.715.17-.205.41-.339.66-.457.25-.121.55-.208.98-.277.44-.07 1.05-.141 1.86-.208.42-.036.68-.134.8-.183.17-.066.24-.139.26-.276.05-.248-.03-.389-.36-.455-.88-.174-2.54.113-3.4.327l.47-1.253c1.12-.165 2.18-.271 3.29-.271 1.77 0 2.34.505 2.32 1.153zm-2.53 1.578c-.11.039-.24.078-.41.113-.17.037-.47.092-.91.161-.31.048-.52.112-.64.198a.452.452 0 0 0-.2.311c-.03.132.02.238.13.321.12.081.31.123.59.123.21 0 .41-.033.61-.096.19-.065.36-.154.49-.263.1-.082.16-.186.21-.311.03-.082.08-.266.13-.557zm10.64-3.705c.07-.396.7-.717 1.4-.717s1.21.321 1.14.717c-.08.396-.7.716-1.4.716s-1.21-.32-1.14-.716zm-.98 5.927l.85-4.812h2.36l-.86 4.812h-2.35zm14.1-3.79c-.01.236-.05.444-.11.801l-.43 2.412c-.04.212.04.379.24.498l-.01.083-2.46.005-.02-.613c-.36.217-.79.398-1.18.503-.39.103-.71.145-1.19.145-.79 0-1.24-.079-1.56-.356-.32-.285-.47-.472-.45-.861.01-.226.12-.517.29-.715.17-.208.41-.339.66-.458.25-.119.55-.207.98-.28.44-.067 1.05-.14 1.86-.208.42-.035.68-.132.8-.178.17-.067.24-.14.26-.279.05-.243-.03-.388-.36-.454-.89-.175-2.54.113-3.4.325l.47-1.253c1.13-.165 2.18-.27 3.29-.27 1.77 0 2.34.506 2.32 1.153zm-2.53 1.58a5.76 5.76 0 0 1-.41.113c-.17.039-.47.088-.92.161-.3.048-.51.111-.63.198a.535.535 0 0 0-.21.309c-.02.133.03.24.14.32.12.082.32.122.59.122.21 0 .41-.031.61-.093.2-.067.36-.152.49-.263a.838.838 0 0 0 .21-.313c.03-.08.07-.266.13-.554zm-26.2.482c-.76.151-1.19.21-1.95.21-1.13 0-2.02-.558-1.97-1.581.03-.681.84-2.119 2.89-2.119.65 0 1.15.114 1.83.501l.3-1.672c-.92-.348-1.53-.401-2.33-.392-2.69.029-5.27 1.251-5.59 3.736-.33 2.524 2.76 3.16 4.13 3.154.79-.002 1.61-.035 2.38-.114l.31-1.723zm19.13-3.111l.17-.98 2.46-.535-.26 1.515h1.21l-.23.97-1.17-.003-.71 3.87s-2.37-.015-2.38 0l.71-3.86h-.9l.18-.977h.92zm11.99 4.838l-2.4.003 1.21-6.714 2.34.065-1.15 6.646zm-23.89 1.664l1.14-6.45h2.07l-.16.823c.18-.245.47-.448.86-.612.4-.163.85-.284 1.34-.284.54 0 .87.029 1.27.238.41.21.69.515.84.913.15.392.18.832.1 1.311-.14.795-.53 1.422-1.16 1.882-.63.46-1.2.582-2.01.585-.29 0-.53-.03-.73-.079a1.766 1.766 0 0 1-.47-.188 2.51 2.51 0 0 1-.39-.35l-.38 2.211h-2.32zm4.28-5.346c-.3 0-.58.093-.83.28-.25.188-.4.46-.47.824-.07.42-.03.722.14.908.17.185.41.278.73.278.21 0 .43-.038.6-.119.2-.106.34-.219.46-.396.13-.187.21-.394.25-.635.07-.38.02-.665-.16-.852-.17-.193-.41-.288-.72-.288zm38.66 3.553l.19.127c-.47.958-1.43 1.73-2.56 1.73-.92 0-1.68-.613-1.72-1.764-.07-2.063 1.86-3.98 3.45-3.98.68 0 1.31.297 1.33 1.028.06 1.64-2.24 2.142-3.76 2.176-.05.171-.07.344-.06.606.03.68.44 1.253 1.29 1.253.73 0 1.47-.592 1.84-1.176zm-.21-2.962c-.01-.388-.2-.649-.6-.649-.97 0-2 1.891-2.17 2.653 1.58 0 2.81-.943 2.77-2.004z" fill="#004879"/><path d="M1197.72 265.259c.16-.022.42-.05.54-.05.17 0 .33.032.34.204 0 .102-.18.832-.22 1.002l-.37 1.618c-.14.662-.3 1.355-.45 1.903h.95l.53-2.563c1.61-1.684 2.24-2.233 2.62-2.233.17 0 .29.09.3.295.01.297-.18.97-.24 1.162l-.54 1.87c-.13.42-.22.799-.21 1.07.02.411.27.593.64.593.69 0 1.18-.718 1.62-1.424l-.13-.231c-.17.284-.58.903-.9.903-.11 0-.2-.068-.21-.239 0-.219.09-.545.15-.762l.6-2.19c.16-.603.24-.992.24-1.199-.02-.408-.26-.6-.62-.6-.62 0-1.45.453-3.19 2.46h-.03l.22-.979c.12-.535.24-1.094.35-1.481-.6.218-1.47.461-2 .564l.01.307z" fill="#004879"/></g><circle cx="986" cy="420" r="35" fill="#016FD0" filter="url(#l)"/><path d="M971.294 429.448v-7.536h7.96l.854 1.116.882-1.116h29.51V429s-1.38.441-2.25.448h-15.996l-.963-1.188v1.188h-3.155v-2.028s-.431.283-1.363.283h-1.074v1.745h-4.777l-.852-1.14-.866 1.14h-7.91zm-10.619-9.875l3.12-7.536h3.104l1.019 2.35v-2.35h3.858l.607 1.698.587-1.698h17.322v.854s.91-.854 2.407-.854l5.62.02 1.001 2.319v-2.339h3.23l.89 1.332v-1.332h3.26v7.536h-3.26l-.85-1.336v1.336h-4.748l-.478-1.188h-1.275l-.469 1.188h-3.218c-1.287 0-2.11-.836-2.11-.836v.836h-4.851l-.963-1.188v1.188h-18.039l-.477-1.188h-1.271l-.473 1.188h-3.543z" fill="#fff"/><path d="M964.431 412.967l-2.421 5.642h1.576l.447-1.129h2.596l.445 1.129h1.611l-2.419-5.642h-1.835zm.895 1.313l.792 1.975h-1.586l.794-1.975zm3.525 4.329v-5.643l2.239.008 1.303 3.638 1.272-3.646h2.221v5.643h-1.407v-4.158l-1.491 4.158h-1.234l-1.496-4.158v4.158h-1.407zm7.998 0v-5.643h4.592v1.262h-3.17v.965h3.096v1.188h-3.096v1.002h3.17v1.226h-4.592zm5.407-5.642v5.642h1.407v-2.004h.593l1.687 2.004h1.719l-1.851-2.078a1.718 1.718 0 0 0 1.544-1.734c0-1.187-.93-1.83-1.968-1.83h-3.131zm1.407 1.262h1.609c.385 0 .666.303.666.594 0 .375-.364.594-.646.594h-1.629v-1.188zm5.703 4.38h-1.437v-5.643h1.437v5.643zm3.406 0h-.31c-1.501 0-2.412-1.186-2.412-2.799 0-1.652.901-2.844 2.796-2.844h1.555v1.336h-1.612c-.769 0-1.313.602-1.313 1.522 0 1.093.622 1.552 1.518 1.552h.371l-.593 1.233zm3.063-5.642l-2.421 5.642h1.576l.447-1.129h2.597l.444 1.129h1.612l-2.42-5.642h-1.835zm.896 1.313l.791 1.975h-1.585l.794-1.975zm3.519 4.329v-5.643h1.79l2.29 3.545v-3.545h1.4v5.643H1004l-2.34-3.639v3.639h-1.41zm-27.993 9.874v-5.643h4.592v1.262h-3.17v.965h3.096v1.188h-3.096v1.002h3.17v1.226h-4.592zm22.5 0v-5.643h4.592v1.262h-3.17v.965h3.081v1.188h-3.081v1.002h3.17v1.226h-4.592zm-17.729 0l2.236-2.787-2.289-2.856h1.772l1.364 1.766 1.367-1.766h1.704l-2.259 2.821 2.24 2.822h-1.773l-1.323-1.738-1.292 1.738h-1.747zm6.302-5.642v5.643h1.444v-1.782h1.482c1.253 0 2.203-.667 2.203-1.963 0-1.074-.745-1.898-2.021-1.898h-3.108zm1.444 1.276h1.56c.405 0 .695.249.695.65 0 .376-.288.649-.699.649h-1.556v-1.299zm4.295-1.277v5.643h1.408v-2.005h.592l1.687 2.005h1.72l-1.852-2.079a1.718 1.718 0 0 0 1.544-1.734c0-1.187-.93-1.83-1.967-1.83h-3.132zm1.408 1.262h1.608c.386 0 .667.303.667.594 0 .375-.364.594-.646.594h-1.629v-1.188zm9.523 4.381v-1.226h2.82c.41 0 .59-.225.59-.473 0-.237-.18-.477-.59-.477h-1.28c-1.1 0-1.718-.676-1.718-1.69 0-.905.568-1.777 2.208-1.777h2.74l-.59 1.269h-2.37c-.45 0-.59.239-.59.466 0 .234.17.492.51.492h1.34c1.23 0 1.77.701 1.77 1.62 0 .987-.6 1.796-1.84 1.796h-3zm5.17 0v-1.226h2.81c.42 0 .6-.225.6-.473 0-.237-.18-.477-.6-.477h-1.27c-1.11 0-1.72-.676-1.72-1.69 0-.905.56-1.777 2.2-1.777h2.75l-.6 1.269h-2.37c-.45 0-.59.239-.59.466 0 .234.17.492.52.492h1.33c1.23 0 1.77.701 1.77 1.62 0 .987-.6 1.796-1.84 1.796h-2.99z" fill="#016FD0"/><circle cx="1335" cy="215" r="35" fill="#016FD0" filter="url(#m)"/><path d="M1320.29 224.448v-7.536h7.96l.86 1.116.88-1.116h29.51V224s-1.38.441-2.25.448h-16l-.96-1.188v1.188h-3.15v-2.028s-.43.283-1.37.283h-1.07v1.745h-4.78l-.85-1.14-.87 1.14h-7.91zm-10.62-9.875l3.12-7.536h3.11l1.02 2.35v-2.35h3.86l.6 1.698.59-1.698h17.32v.854s.91-.854 2.41-.854l5.62.02 1 2.319v-2.339h3.23l.89 1.332v-1.332h3.26v7.536h-3.26l-.85-1.336v1.336h-4.75l-.48-1.188h-1.27l-.47 1.188h-3.22c-1.29 0-2.11-.836-2.11-.836v.836h-4.85l-.96-1.188v1.188h-18.04l-.48-1.188h-1.27l-.47 1.188h-3.55z" fill="#fff"/><path d="M1313.43 207.967l-2.42 5.642h1.58l.44-1.129h2.6l.44 1.129h1.61l-2.41-5.642h-1.84zm.9 1.313l.79 1.975h-1.59l.8-1.975zm3.52 4.329v-5.643l2.24.008 1.3 3.638 1.27-3.646h2.23v5.643h-1.41v-4.158l-1.49 4.158h-1.24l-1.49-4.158v4.158h-1.41zm8 0v-5.643h4.59v1.262h-3.17v.965h3.1v1.188h-3.1v1.002h3.17v1.226h-4.59zm5.41-5.642v5.642h1.4v-2.004h.6l1.68 2.004h1.72l-1.85-2.078a1.714 1.714 0 0 0 1.54-1.734c0-1.187-.93-1.83-1.96-1.83h-3.13zm1.4 1.262h1.61c.39 0 .67.303.67.594 0 .375-.37.594-.65.594h-1.63v-1.188zm5.71 4.38h-1.44v-5.643h1.44v5.643zm3.4 0h-.31c-1.5 0-2.41-1.186-2.41-2.799 0-1.652.9-2.844 2.8-2.844h1.55v1.336h-1.61c-.77 0-1.31.602-1.31 1.522 0 1.093.62 1.552 1.51 1.552h.37l-.59 1.233zm3.06-5.642l-2.42 5.642h1.58l.45-1.129h2.59l.45 1.129h1.61l-2.42-5.642h-1.84zm.9 1.313l.79 1.975h-1.58l.79-1.975zm3.52 4.329v-5.643h1.79l2.29 3.545v-3.545h1.4v5.643H1353l-2.34-3.639v3.639h-1.41zm-27.99 9.874v-5.643h4.59v1.262h-3.17v.965h3.1v1.188h-3.1v1.002h3.17v1.226h-4.59zm22.5 0v-5.643h4.59v1.262h-3.17v.965h3.08v1.188h-3.08v1.002h3.17v1.226h-4.59zm-17.73 0l2.23-2.787-2.29-2.856h1.78l1.36 1.766 1.37-1.766h1.7l-2.26 2.821 2.24 2.822h-1.77l-1.32-1.738-1.29 1.738h-1.75zm6.3-5.642v5.643h1.44v-1.782h1.49c1.25 0 2.2-.667 2.2-1.963 0-1.074-.75-1.898-2.02-1.898h-3.11zm1.44 1.276h1.56c.41 0 .7.249.7.65 0 .376-.29.649-.7.649h-1.56v-1.299zm4.3-1.277v5.643h1.41v-2.005h.59l1.69 2.005h1.72l-1.86-2.079a1.722 1.722 0 0 0 1.55-1.734c0-1.187-.93-1.83-1.97-1.83h-3.13zm1.41 1.262h1.61c.38 0 .66.303.66.594 0 .375-.36.594-.64.594h-1.63v-1.188zm9.52 4.381v-1.226h2.82c.41 0 .59-.225.59-.473 0-.237-.18-.477-.59-.477h-1.28c-1.1 0-1.72-.676-1.72-1.69 0-.905.57-1.777 2.21-1.777h2.74l-.59 1.269h-2.37c-.45 0-.59.239-.59.466 0 .234.17.492.51.492h1.34c1.23 0 1.77.701 1.77 1.62 0 .987-.6 1.796-1.84 1.796h-3zm5.17 0v-1.226h2.81c.42 0 .6-.225.6-.473 0-.237-.18-.477-.6-.477h-1.27c-1.11 0-1.72-.676-1.72-1.69 0-.905.56-1.777 2.2-1.777h2.75l-.6 1.269h-2.37c-.45 0-.59.239-.59.466 0 .234.17.492.52.492h1.33c1.23 0 1.77.701 1.77 1.62 0 .987-.6 1.796-1.84 1.796h-2.99z" fill="#016FD0"/><defs><filter id="a" x="933" y="553" width="100" height="100" filterUnits="userSpaceOnUse" color-interpolation-filters="sRGB"><feFlood flood-opacity="0" result="BackgroundImageFix"/><feColorMatrix in="SourceAlpha" values="0 0 0 0 0 0 0 0 0 0 0 0 0 0 0 0 0 0 127 0" result="hardAlpha"/><feOffset dy="6"/><feGaussianBlur stdDeviation="7.5"/><feColorMatrix values="0 0 0 0 0.542581 0 0 0 0 0.57937 0 0 0 0 0.772512 0 0 0 0.15 0"/><feBlend in2="BackgroundImageFix" result="effect1_dropShadow"/><feBlend in="SourceGraphic" in2="effect1_dropShadow" result="shape"/></filter><filter id="c" x="941" y="167" width="120" height="120" filterUnits="userSpaceOnUse" color-interpolation-filters="sRGB"><feFlood flood-opacity="0" result="BackgroundImageFix"/><feColorMatrix in="SourceAlpha" values="0 0 0 0 0 0 0 0 0 0 0 0 0 0 0 0 0 0 127 0" result="hardAlpha"/><feOffset dy="6"/><feGaussianBlur stdDeviation="7.5"/><feColorMatrix values="0 0 0 0 0.542581 0 0 0 0 0.57937 0 0 0 0 0.772512 0 0 0 0.15 0"/><feBlend in2="BackgroundImageFix" result="effect1_dropShadow"/><feBlend in="SourceGraphic" in2="effect1_dropShadow" result="shape"/></filter><filter id="d" x="1280" y="331" width="160" height="160" filterUnits="userSpaceOnUse" color-interpolation-filters="sRGB"><feFlood flood-opacity="0" result="BackgroundImageFix"/><feColorMatrix in="SourceAlpha" values="0 0 0 0 0 0 0 0 0 0 0 0 0 0 0 0 0 0 127 0" result="hardAlpha"/><feOffset dy="8"/><feGaussianBlur stdDeviation="10"/><feColorMatrix values="0 0 0 0 0.542581 0 0 0 0 0.57937 0 0 0 0 0.772512 0 0 0 0.15 0"/><feBlend in2="BackgroundImageFix" result="effect1_dropShadow"/><feBlend in="SourceGraphic" in2="effect1_dropShadow" result="shape"/></filter><filter id="e" x="781" y="306" width="120" height="120" filterUnits="userSpaceOnUse" color-interpolation-filters="sRGB"><feFlood flood-opacity="0" result="BackgroundImageFix"/><feColorMatrix in="SourceAlpha" values="0 0 0 0 0 0 0 0 0 0 0 0 0 0 0 0 0 0 127 0" result="hardAlpha"/><feOffset dy="6"/><feGaussianBlur stdDeviation="7.5"/><feColorMatrix values="0 0 0 0 0.542581 0 0 0 0 0.57937 0 0 0 0 0.772512 0 0 0 0.15 0"/><feBlend in2="BackgroundImageFix" result="effect1_dropShadow"/><feBlend in="SourceGraphic" in2="effect1_dropShadow" result="shape"/></filter><filter id="f" x="1204.79" y="517.071" width="121.429" height="121.429" filterUnits="userSpaceOnUse" color-interpolation-filters="sRGB"><feFlood flood-opacity="0" result="BackgroundImageFix"/><feColorMatrix in="SourceAlpha" values="0 0 0 0 0 0 0 0 0 0 0 0 0 0 0 0 0 0 127 0" result="hardAlpha"/><feOffset dy="7.286"/><feGaussianBlur stdDeviation="9.107"/><feColorMatrix values="0 0 0 0 0.542581 0 0 0 0 0.57937 0 0 0 0 0.772512 0 0 0 0.15 0"/><feBlend in2="BackgroundImageFix" result="effect1_dropShadow"/><feBlend in="SourceGraphic" in2="effect1_dropShadow" result="shape"/></filter><filter id="h" x="1073.17" y="405.3" width="142.667" height="142.667" filterUnits="userSpaceOnUse" color-interpolation-filters="sRGB"><feFlood flood-opacity="0" result="BackgroundImageFix"/><feColorMatrix in="SourceAlpha" values="0 0 0 0 0 0 0 0 0 0 0 0 0 0 0 0 0 0 127 0" result="hardAlpha"/><feOffset dy="7.133"/><feGaussianBlur stdDeviation="8.917"/><feColorMatrix values="0 0 0 0 0.542581 0 0 0 0 0.57937 0 0 0 0 0.772512 0 0 0 0.15 0"/><feBlend in2="BackgroundImageFix" result="effect1_dropShadow"/><feBlend in="SourceGraphic" in2="effect1_dropShadow" result="shape"/></filter><filter id="j" x="1123.29" y="213.971" width="111.429" height="111.429" filterUnits="userSpaceOnUse" color-interpolation-filters="sRGB"><feFlood flood-opacity="0" result="BackgroundImageFix"/><feColorMatrix in="SourceAlpha" values="0 0 0 0 0 0 0 0 0 0 0 0 0 0 0 0 0 0 127 0" result="hardAlpha"/><feOffset dy="6.686"/><feGaussianBlur stdDeviation="8.357"/><feColorMatrix values="0 0 0 0 0.542581 0 0 0 0 0.57937 0 0 0 0 0.772512 0 0 0 0.15 0"/><feBlend in2="BackgroundImageFix" result="effect1_dropShadow"/><feBlend in="SourceGraphic" in2="effect1_dropShadow" result="shape"/></filter><filter id="l" x="936" y="376" width="100" height="100" filterUnits="userSpaceOnUse" color-interpolation-filters="sRGB"><feFlood flood-opacity="0" result="BackgroundImageFix"/><feColorMatrix in="SourceAlpha" values="0 0 0 0 0 0 0 0 0 0 0 0 0 0 0 0 0 0 127 0" result="hardAlpha"/><feOffset dy="6"/><feGaussianBlur stdDeviation="7.5"/><feColorMatrix values="0 0 0 0 0.542581 0 0 0 0 0.57937 0 0 0 0 0.772512 0 0 0 0.15 0"/><feBlend in2="BackgroundImageFix" result="effect1_dropShadow"/><feBlend in="SourceGraphic" in2="effect1_dropShadow" result="shape"/></filter><filter id="m" x="1285" y="171" width="100" height="100" filterUnits="userSpaceOnUse" color-interpolation-filters="sRGB"><feFlood flood-opacity="0" result="BackgroundImageFix"/><feColorMatrix in="SourceAlpha" values="0 0 0 0 0 0 0 0 0 0 0 0 0 0 0 0 0 0 127 0" result="hardAlpha"/><feOffset dy="6"/><feGaussianBlur stdDeviation="7.5"/><feColorMatrix values="0 0 0 0 0.542581 0 0 0 0 0.57937 0 0 0 0 0.772512 0 0 0 0.15 0"/><feBlend in2="BackgroundImageFix" result="effect1_dropShadow"/><feBlend in="SourceGraphic" in2="effect1_dropShadow" result="shape"/></filter><clipPath id="b"><path fill="#fff" transform="translate(957 594)" d="M0 0h51.75v6H0z"/></clipPath><clipPath id="g"><path fill="#fff" transform="translate(1236.36 562)" d="M0 0h58.286v15.786H0z"/></clipPath><clipPath id="i"><path fill="#fff" transform="translate(1104.08 457.611)" d="M0 0h80.844v5.988H0z"/></clipPath><clipPath id="k"><path fill="#fff" transform="translate(1150.03 252.972)" d="M0 0h57.943v20.937H0z"/></clipPath></defs></svg>