<svg width="18" height="18" viewBox="0 0 18 18" fill="none" xmlns="http://www.w3.org/2000/svg"><mask id="a" style="mask-type:alpha" maskUnits="userSpaceOnUse" x="0" y="0" width="18" height="18"><path fill="#fff" d="M.6.602h16.8v16.8H.6z"/></mask><g mask="url(#a)"><path fill-rule="evenodd" clip-rule="evenodd" d="M17.367 3.798a7 7 0 0 1-1.98.54 3.47 3.47 0 0 0 1.515-1.906 7.115 7.115 0 0 1-2.19.829A3.443 3.443 0 0 0 8.849 6.4a9.754 9.754 0 0 1-7.1-3.588 3.376 3.376 0 0 0-.467 1.732 3.445 3.445 0 0 0 1.532 2.868 3.433 3.433 0 0 1-1.56-.432v.043a3.446 3.446 0 0 0 2.76 3.38 3.475 3.475 0 0 1-1.549.06 3.455 3.455 0 0 0 3.223 2.39A6.907 6.907 0 0 1 .6 14.282a9.796 9.796 0 0 0 5.29 1.544c6.337 0 9.798-5.247 9.798-9.79 0-.147 0-.294-.01-.441A6.955 6.955 0 0 0 17.4 3.812l-.033-.014z" fill="#AAB0B7"/></g></svg>