<svg width="198" height="189" viewBox="0 0 198 189" fill="none" xmlns="http://www.w3.org/2000/svg">
<path d="M63.8066 112.436C56.2804 113.355 48.7543 114.274 41.2477 115.193C40.4853 115.29 39.6056 115.447 39.1951 116.092C38.6087 116.991 39.2342 118.144 39.8598 119.005C48.5588 131.281 57.4924 143.401 66.6411 155.345" stroke="#D2A16A" stroke-width="1.0543" stroke-miterlimit="10" stroke-linecap="round"/>
<path d="M163.777 8.81024C162.135 6.11256 159.926 3.61036 156.974 2.43746C153.572 1.08861 150.171 -0.142935 146.437 0.0134523C128.394 0.717195 128.199 37.0577 125.09 49.3732C124.172 53.0678 122.92 56.8016 120.418 59.6752C115.473 65.3833 106.93 66.3021 99.4233 65.442C86.404 63.9563 75.1442 61.8451 62.2813 66.0284C58.1175 67.3773 54.071 69.1953 49.8094 70.2118C44.6682 71.4433 39.351 71.502 34.0925 71.893C33.4278 71.9321 32.7241 72.0103 32.1572 72.3426C31.1602 72.9486 30.7888 74.2583 30.9647 75.4117C31.1602 76.6628 32.7827 78.1876 31.9031 79.2236C31.2775 79.9469 27.7197 79.5559 26.8205 79.6146C21.992 79.9274 17.1636 80.377 12.3351 80.7679C8.46453 81.0807 4.32026 81.4912 1.30981 83.9348C3.04962 85.9092 5.23904 87.4926 7.68259 88.4896C6.25556 88.7632 4.78943 88.5873 3.36239 88.8219C1.93536 89.0565 0.430131 89.8579 0.0782595 91.2654C-0.332257 92.8684 0.93839 94.4127 2.34588 95.2729C3.75336 96.133 5.41498 96.6217 6.62698 97.736C5.29769 97.6382 3.40149 98.1074 3.63607 99.4171C3.73381 99.9058 4.12478 100.258 4.51575 100.551C7.33072 102.701 10.869 103.62 14.3095 104.402C22.4807 106.259 31.082 106.572 39.1751 108.488C42.4592 109.27 45.6065 110.736 48.9493 111.576C53.3086 112.671 57.6679 113.707 62.0467 114.645C78.5456 117.91 96.3151 115.29 110.761 106.513C113.342 104.949 115.824 103.19 117.936 101.04C120.125 98.7916 121.845 96.133 123.448 93.4353C133.594 76.2327 138.188 56.8016 144.561 38.0742C144.971 36.8622 145.421 35.5916 146.437 34.8096C150.034 31.9947 155.742 31.0759 159.887 28.9451C166.298 25.6414 167.784 16.4341 164.48 10.0027C164.246 9.61172 164.031 9.22075 163.777 8.81024Z" fill="white"/>
<path d="M148.431 17.7243C146.574 17.1769 145.772 13.5996 147.903 12.9545C148.45 12.7981 149.037 12.9349 149.565 13.15C151.011 13.7755 152.008 14.6943 151.304 16.2386C150.777 17.4115 149.721 18.1152 148.431 17.7243Z" fill="black"/>
<path d="M197.439 30.4893C195.66 30.763 193.842 30.5871 192.141 30.0202C192.982 30.6457 193.823 31.2713 194.683 31.8968C194.819 31.9946 194.976 32.1314 194.976 32.3074C194.976 32.4246 194.898 32.5224 194.819 32.6201C194.311 33.1479 193.471 33.1479 192.728 33.0893C188.505 32.7374 184.752 30.9976 180.686 30.0593C176.151 29.0037 171.635 27.7917 167.139 26.5601C164.559 25.8564 160.747 25.7 160.727 22.1031C160.707 19.464 161.274 14.4206 165.106 15.8671C167.96 16.9423 170.775 18.1934 173.609 19.3663C178.653 21.4384 183.677 23.5888 188.759 25.5827C191.848 26.8142 195.113 27.9872 197.439 30.4893Z" fill="#680C00"/>
<path d="M107.711 68.3547C104.955 76.2523 101.925 84.5408 95.5521 89.9753C91.2319 93.6699 85.6997 95.6834 80.0893 96.6608C63.1213 99.6126 44.8045 92.7707 33.9355 79.4387" stroke="#D2A16A" stroke-width="1.0543" stroke-miterlimit="10" stroke-linecap="round"/>
<path d="M73.3859 110.149C63.123 130.851 53.7788 152.022 45.3926 173.564" stroke="#D2A16A" stroke-width="1.0543" stroke-miterlimit="10" stroke-linecap="round"/>
<path d="M66.8164 155.189C73.0133 157.456 78.9364 160.447 84.4295 164.064" stroke="#D2A16A" stroke-width="1.0543" stroke-miterlimit="10" stroke-linecap="round"/>
<path d="M67.6562 155.873C70.8426 161.19 72.7388 167.27 73.1103 173.447" stroke="#D2A16A" stroke-width="1.0543" stroke-miterlimit="10" stroke-linecap="round"/>
<path d="M68.459 156.166C74.6754 159.626 79.9535 164.767 83.5699 170.906" stroke="#D2A16A" stroke-width="1.0543" stroke-miterlimit="10" stroke-linecap="round"/>
<path d="M46.8965 174.522C52.8392 177.669 58.3128 181.677 63.1217 186.407" stroke="#D2A16A" stroke-width="1.0543" stroke-miterlimit="10" stroke-linecap="round"/>
<path d="M55.8309 188.167C53.7001 182.459 50.3182 177.2 45.998 172.9" stroke="#D2A16A" stroke-width="1.0543" stroke-miterlimit="10" stroke-linecap="round"/>
<path d="M45.666 185.332C47.0344 181.325 47.1517 176.907 45.9592 172.861" stroke="#D2A16A" stroke-width="1.0543" stroke-miterlimit="10" stroke-linecap="round"/>
<path d="M78.2921 83.2115C77.4515 84.5017 75.9267 85.1468 74.4801 85.6551C67.4622 88.04 59.6429 88.04 52.625 85.6551" stroke="#D2A16A" stroke-width="1.0543" stroke-miterlimit="10" stroke-linecap="round"/>
<path d="M72.2316 75.6072C66.934 78.1289 61.1868 79.7123 55.3223 80.2011" stroke="#D2A16A" stroke-width="1.0543" stroke-miterlimit="10" stroke-linecap="round"/>
<path d="M28.2474 90.112C21.7768 91.109 15.0326 90.3075 8.99219 87.8053" stroke="#D2A16A" stroke-width="1.0543" stroke-miterlimit="10" stroke-linecap="round"/>
<path d="M28.4423 98.4591C21.5026 100.101 14.0938 99.6907 7.38867 97.3058" stroke="#D2A16A" stroke-width="1.0543" stroke-miterlimit="10" stroke-linecap="round"/>
</svg>
