<svg width="633" height="112" viewBox="0 0 633 112" fill="none" xmlns="http://www.w3.org/2000/svg"><path d="M61.367 109.246a47.232 47.232 0 0 1-6.518.452c-15.087 0-28-5.371-38.739-16.11C5.367 82.849 0 69.936 0 54.849c0-15.087 5.367-28 16.11-38.739C26.85 5.371 39.762 0 54.85 0c2.195 0 4.37.15 6.517.448a72.61 72.61 0 0 1 3.25.536 3.037 3.037 0 0 1 2.38 3.698l-6.073 25.022a3.118 3.118 0 0 1-3.378 2.367c-.9-.1-1.752-.15-2.547-.15-6.097 0-11.49 2.197-16.186 6.594-4.7 4.396-7.045 9.838-7.045 16.334 0 6.593 2.346 12.114 7.045 16.558 4.696 4.445 10.09 6.62 16.186 6.518h1.348c.4 0 .848-.048 1.348-.149.4 0 .826-.048 1.274-.15.448-.1.874-.197 1.274-.302l6.733 27.736c.417 1.726-.733 3.426-2.49 3.711-1.033.172-2.074.33-3.119.475zm174.221 0a47.236 47.236 0 0 1-6.518.452c-15.087 0-28-5.371-38.739-16.11-10.743-10.739-16.11-23.652-16.11-38.739 0-15.087 5.367-28 16.11-38.739C201.07 5.371 213.983 0 229.07 0c2.196 0 4.37.15 6.518.448a72.65 72.65 0 0 1 3.25.536 3.037 3.037 0 0 1 2.381 3.698l-6.075 25.022a3.117 3.117 0 0 1-3.377 2.367 22.943 22.943 0 0 0-2.548-.15c-6.096 0-11.49 2.197-16.185 6.594-4.699 4.396-7.045 9.838-7.045 16.334 0 6.593 2.346 12.114 7.045 16.558 4.695 4.445 10.089 6.62 16.185 6.518h1.349c.399 0 .847-.048 1.348-.149.4 0 .826-.048 1.274-.15.452-.1.874-.197 1.273-.302l6.734 27.736c.417 1.726-.734 3.426-2.491 3.711-1.032.172-2.073.33-3.118.475zM378.569 65.44v32.603a3.02 3.02 0 0 1-3.018 3.017h-24.293a3.02 3.02 0 0 1-3.022-3.017V3.058c0-2.526 2.912-3.936 4.893-2.372l57.999 45.815c1.981 1.563 4.893.153 4.893-2.368V6.536a3.02 3.02 0 0 1 3.017-3.021h24.293a3.022 3.022 0 0 1 3.022 3.021v100.102c0 2.526-2.917 3.935-4.897 2.363l-57.995-45.929c-1.976-1.568-4.892-.158-4.892 2.368zm151.865 26.205c-8.429 8.482-18.61 12.72-30.535 12.72-11.823 0-22-4.238-30.534-12.72-8.534-8.48-12.799-18.631-12.799-30.455V10.948a3.12 3.12 0 0 1 3.119-3.118h26.458a3.115 3.115 0 0 1 3.114 3.118V61.19c0 3.391 1.133 5.934 3.395 7.634 2.262 1.695 4.731 2.543 7.401 2.543 2.57 0 4.911-.821 7.019-2.468 2.104-1.643 3.158-4.213 3.158-7.709V10.948a3.119 3.119 0 0 1 3.118-3.118h26.612a3.117 3.117 0 0 1 3.119 3.118V61.19c0 11.824-4.217 21.974-12.645 30.456zm76.542-49.281v64.328a3.005 3.005 0 0 1-3.004 3.004h-25.514a3.009 3.009 0 0 1-3.009-3.004V42.365a3.007 3.007 0 0 0-3.004-3.01h-16.146a3.003 3.003 0 0 1-3.004-3.003V10.838a3.003 3.003 0 0 1 3.004-3.005h69.831a3.003 3.003 0 0 1 3.004 3.005v25.514a3.003 3.003 0 0 1-3.004 3.004h-16.146a3.01 3.01 0 0 0-3.008 3.008zm-281.869-11.34a4.816 4.816 0 0 1-6.381 2.371 4.822 4.822 0 0 1-2.372-6.386 4.814 4.814 0 1 1 8.753 4.015zm-11.995-10.796a4.813 4.813 0 0 1-6.381 2.367 4.82 4.82 0 0 1-2.372-6.386 4.82 4.82 0 0 1 6.386-2.367 4.817 4.817 0 0 1 2.367 6.386zm-1.423 12.131a4.81 4.81 0 0 1-6.382 2.367 4.811 4.811 0 0 1-2.367-6.381 4.81 4.81 0 0 1 6.382-2.368 4.81 4.81 0 0 1 2.367 6.382zm21.214-1.335c-5.578-11.35-14.055-18.583-25.43-21.697-11.007-3.018-21.627-1.323-31.857 5.081-10.91 6.83-19.114 18.412-22.465 31.703-3.145 12.465-2.038 24.183 3.324 35.155 5.535 11.34 13.989 18.57 25.361 21.684 11.375 3.114 22.356 1.208 32.937-5.719 10.585-6.922 17.647-16.853 21.187-29.783 3.54-12.93 2.521-25.075-3.057-36.424zM92.64 24.605a4.816 4.816 0 0 1 6.386 2.372 4.81 4.81 0 0 1-2.367 6.381 4.82 4.82 0 0 1-6.39-2.367 4.82 4.82 0 0 1 2.371-6.386zm12-10.805a4.816 4.816 0 0 1 6.386 2.372 4.817 4.817 0 0 1-2.368 6.386 4.82 4.82 0 0 1-6.386-2.372 4.814 4.814 0 0 1 2.368-6.386zm1.423 12.14a4.814 4.814 0 0 1 6.386 2.368 4.815 4.815 0 0 1-2.368 6.386 4.815 4.815 0 1 1-4.018-8.754zM79.411 67.428c3.54 12.94 10.607 22.875 21.197 29.801 10.589 6.931 21.574 8.837 32.949 5.719 11.385-3.114 19.84-10.344 25.378-21.693 5.363-10.976 6.47-22.703 3.325-35.172-3.351-13.295-11.56-24.882-22.474-31.716-10.234-6.408-20.859-8.104-31.874-5.086-11.38 3.114-19.857 10.352-25.44 21.71-5.582 11.358-6.601 23.503-3.061 36.438z" fill="#FAA629"/></svg>