<svg width="642" height="121" viewBox="0 0 642 121" fill="none" xmlns="http://www.w3.org/2000/svg"><g clip-path="url(#a)"><path d="M62.532 87.16s-8.065 1.652-14.074-.902c-6.854-2.93-11.789-10.114-11.789-10.114s-3.061-4.922-3.347-14.261c-.194-8.086 7.22-15.117 7.22-15.117a28.813 28.813 0 0 1 8.967-5.965 25.023 25.023 0 0 1 10.201-1.079h1.234l.708-.363.88-.715.525-.902.354-1.816L65.697 26l1.93-7.395 1.234-5.824.526-2.707v-.726l-.343-.715-.537-.727-.88-.539s-2.193-.469-4.569-.727c-2.776-.28-5.803-.351-5.803-.351a44.17 44.17 0 0 0-10.03.539 69.289 69.289 0 0 0-11.617 3.422 75.266 75.266 0 0 0-15.65 10.289 62.136 62.136 0 0 0-10.91 13.535 66.806 66.806 0 0 0-6.34 15.164 61.888 61.888 0 0 0-1.565 15.715 67.699 67.699 0 0 0 2.982 17.508c4.29 12.054 12.249 22.371 22.698 29.426a70.082 70.082 0 0 0 20.014 8.121 88.13 88.13 0 0 0 10.201.714 59.86 59.86 0 0 0 8.796-.714s2.388-.387 3.176-1.442a3.294 3.294 0 0 0 .171-2.894L62.532 87.16zm37.994-67.688s-10.052 6.903-15.307 17.32C80.193 46.755 79.94 60.23 79.94 60.23a73.2 73.2 0 0 0 .88 9.739 64.96 64.96 0 0 0 2.285 9.035S87.4 91.66 95.774 100.472c27.245 26.954 65.217 10.688 71.077-22.37 8.385-38.684-29.45-80.778-66.325-58.63zm19.706 67.864c-13.343-2.274-22.607-19.348-18.129-32.485 6.431-23.66 36.783-18.035 40.473 4.688 3.724 13.758-7.162 30.586-22.333 27.797h-.011zm99.384-42.059c1.908-2.472 12.075-6.187 15.308-5.953.605 0 5.711.527 5.803-1.617l6.157-25.64s.606-2.438-.171-3.61c-.96-1.418-3.347-1.442-3.347-1.442l-3.347-.539-4.97-.093-4.877-.082a38.622 38.622 0 0 0-7.037.902 69.519 69.519 0 0 0-8.625 2.707 44.542 44.542 0 0 0-7.037 3.246C194.302 21.7 189.298 28.144 182.49 42.22a61.25 61.25 0 0 0-2.993 10.828 49.638 49.638 0 0 0-.708 10.465c.334 5.27.983 10.514 1.942 15.703 5.449 15.632 9.207 21.093 25.131 33.574a44.486 44.486 0 0 0 15.753 6.492 70.3 70.3 0 0 0 10.738 1.441c3.349.11 6.7-.07 10.019-.539 0 0 2.696 0 3.872-1.078.364-.41.631-.899.784-1.431a3.766 3.766 0 0 0 .096-1.639L240.27 87.16c-24.104 5.836-39.697-26.05-20.619-41.883h-.035zm98.871-38.262a5.21 5.21 0 0 0-2.044.61 5.34 5.34 0 0 0-1.646 1.383c-1.325 1.957-1.405 5.59-1.405 5.59l-2.993 13.535s-5.324-.352-10.738-.176c-5.415.176-11.252.902-11.252.902l-1.942-6.14v-.715s.297.164 1.233-.188c1.223-.445 3.165-1.441 3.165-1.441a13.252 13.252 0 0 0 3.347-.727 14.202 14.202 0 0 0 3.164-1.804l1.942 1.453.343-.551-1.508-1.277v-.352c.909-.2 1.794-.503 2.639-.902a7.56 7.56 0 0 0 1.93-1.442 12.616 12.616 0 0 0 2.468-1.617 8.6 8.6 0 0 0 1.587-1.992l1.223.187v-.363l-.88-.363a3.934 3.934 0 0 0-.697-2.883 6.279 6.279 0 0 0-2.467-1.441 9.374 9.374 0 0 0-1.234-.364l-21.636-2.343-1.211-3.61a2.667 2.667 0 0 0-1.588-.187 3.314 3.314 0 0 0-1.405 1.09l.88 3.609-17.421 17.32a5.898 5.898 0 0 0-.697 2.532 3.56 3.56 0 0 0 .88 1.98v.516l-1.063 1.265.355.188 1.233-1.266s1.325.504 2.114.715c.388.117.525 0 .525 0l.526-.54s1.005.13 1.942.188h1.405l-.526 1.442h.697l1.062-1.442a6.016 6.016 0 0 0 2.811-.363 14.45 14.45 0 0 0 3.518-2.531c.876.108 1.757.171 2.639.187a6.426 6.426 0 0 0 1.588-.187c.625-.288 1.27-.526 1.93-.715.868-.237 1.75-.42 2.639-.55l2.113 5.6a1.2 1.2 0 0 1 0 .54c-.091.2-.354.176-.354.176l-.879.187a72.448 72.448 0 0 0-10.03 3.246 27.837 27.837 0 0 0-5.975 3.61 36.192 36.192 0 0 0-2.821 2.343c-1.794 1.653-3.873 3.797-3.873 3.797a36.51 36.51 0 0 0-4.398 7.395 35.676 35.676 0 0 0-2.102 7.945s-.571 4.465-.708 9.023a98.755 98.755 0 0 0 .171 8.848c.136 3.04.549 6.062 1.234 9.024a62.449 62.449 0 0 0 3.347 9.562 46.759 46.759 0 0 0 4.924 8.66 56.972 56.972 0 0 0 7.219 7.77 45.317 45.317 0 0 0 9.322 5.414 53.338 53.338 0 0 0 10.727 2.883c4.172.298 8.364.118 12.497-.539a33.383 33.383 0 0 0 10.03-3.797 44.887 44.887 0 0 0 7.562-4.688 73.839 73.839 0 0 0 7.916-7.394 48.992 48.992 0 0 0 5.461-7.582 61.145 61.145 0 0 0 4.215-9.75 48.584 48.584 0 0 0 2.468-9.375 110.35 110.35 0 0 0 1.051-12.633 46.475 46.475 0 0 0-1.817-12.047 50.103 50.103 0 0 0-5.449-11.367 18.943 18.943 0 0 0-7.391-6.867c-6.043-3.118-14.782-4.325-14.782-4.325v-1.09l2.993-13.347c.259-.88.612-1.73 1.051-2.531a3.029 3.029 0 0 1 1.417-1.266s7.551.21 14.428.54a413.5 413.5 0 0 1 11.252.726c.281-.434.464-.926.537-1.442a3.703 3.703 0 0 0-.354-1.629l-26.434-1.84zM284.89 59a40.285 40.285 0 0 1-6.694-1.078 25.022 25.022 0 0 1-6.854-2.344 15.188 15.188 0 0 1-4.227-3.61 6.736 6.736 0 0 1-.171-4.511 11.894 11.894 0 0 1 3.518-4.149 26.706 26.706 0 0 1 4.044-2.707 42.533 42.533 0 0 1 5.449-2.343s2.525-.844 4.752-1.454c1.76-.468 3.347-.714 3.347-.714l6.854 23.097s-5.437.153-9.984-.187h-.034zm16.187-.363a39.175 39.175 0 0 1-3.347.187l-7.037-23.285a63.72 63.72 0 0 1 8.088-1.09c4.627-.281 9.504 0 9.504 0l-3.872 23.648s-1.622.387-3.302.54h-.034zm13.891-23.286c1.428.258 2.468.54 2.468.54s1.667.503 3.164 1.09a51.498 51.498 0 0 1 3.347 1.44 19.83 19.83 0 0 1 2.285 1.993c.393.448.749.93 1.062 1.441a3.03 3.03 0 0 1 .697 2.344 5.984 5.984 0 0 1-.697 2.707 15.553 15.553 0 0 1-1.725 2.203 14.504 14.504 0 0 1-4.398 3.422s-3.347 1.617-6.854 2.895c-3.507 1.277-7.037 2.168-7.037 2.168l4.044-22.747s2.045.2 3.678.504h-.034zM449.08 10.086h-25.52a4.16 4.16 0 0 0-1.931.902 3.164 3.164 0 0 0-.708 1.805v40.254a4.873 4.873 0 0 1-1.759 2.344c-.909.33-1.901.33-2.81 0L356.71 7.203s-2.114-1.172-3.348-.55c-1.233.62-1.587 2.894-1.587 2.894v99.984c.012.533.202 1.046.537 1.453a5.2 5.2 0 0 0 1.759 1.078h25.863a4.7 4.7 0 0 0 1.93-1.078 3.33 3.33 0 0 0 .708-1.804V74.34c.122-.586.359-1.14.697-1.63a3.681 3.681 0 0 1 1.417-.902 3.199 3.199 0 0 1 2.638.364l59.814 48.55c.979.194 1.988.15 2.947-.128.359-.208.671-.492.913-.833.243-.342.411-.734.492-1.148l.183-105.95a4.603 4.603 0 0 0-.88-1.804 2.91 2.91 0 0 0-1.713-.773zm98.345 4.687h-28.502a3.947 3.947 0 0 0-1.931.903 4.277 4.277 0 0 0-.879 2.168v53.25s0 .925-.183 1.804c-.086.545-.2 1.085-.343 1.618a9.474 9.474 0 0 1-2.113 3.62 12.203 12.203 0 0 1-4.055 2.344 13.293 13.293 0 0 1-4.57.715 12.038 12.038 0 0 1-4.398-1.254 17.386 17.386 0 0 1-4.226-3.433 7.04 7.04 0 0 1-1.405-3.797l-.183-55.406a3.19 3.19 0 0 0-.709-1.63 4.32 4.32 0 0 0-1.93-.902h-27.611a3.296 3.296 0 0 0-1.942.727 5.274 5.274 0 0 0-1.051 2.168v3.07l.172 53.238c.12 1.881.357 3.752.708 5.602a83.598 83.598 0 0 0 1.405 5.777 23.068 23.068 0 0 0 2.285 5.227c.982 1.723 2.045 3.773 3.164 5.414a36.6 36.6 0 0 0 2.993 3.797 44.362 44.362 0 0 0 6.34 6.316 63.978 63.978 0 0 0 8.613 5.59 73.312 73.312 0 0 0 7.928 2.707c2.31.574 4.665.939 7.037 1.09 3.64.144 7.286.023 10.91-.363a29.434 29.434 0 0 0 7.916-2.168 39.899 39.899 0 0 0 7.38-3.61 54.674 54.674 0 0 0 7.745-6.34 42.573 42.573 0 0 0 4.398-4.874A51.96 51.96 0 0 0 544.26 92s1.143-2.203 2.114-4.512c.971-2.308 1.759-4.687 1.759-4.687a27.28 27.28 0 0 0 .697-3.61c.411-3.129.708-7.219.708-7.219V17.47a3.43 3.43 0 0 0-.525-1.618 3.896 3.896 0 0 0-1.588-1.078zm92.53-7.394a4.077 4.077 0 0 0-1.942-.903h-77.394a4.14 4.14 0 0 0-1.759.903 3.949 3.949 0 0 0-.88 1.804v30.329c.131.527.373 1.019.708 1.441.399.402.878.71 1.405.902h19.706c.66.214 1.263.583 1.759 1.079.394.522.639 1.147.708 1.804v73.641c.154.61.457 1.171.88 1.629.457.372 1 .618 1.576.714h29.564a4.166 4.166 0 0 0 1.588-.902 3.064 3.064 0 0 0 .697-1.617V44.738a3.972 3.972 0 0 1 .708-1.804 4.115 4.115 0 0 1 1.76-1.079h18.997a3.738 3.738 0 0 0 1.759-.726 3.842 3.842 0 0 0 1.062-1.805V9.184a4.02 4.02 0 0 0-.879-1.805h-.023z" fill="#FAA629"/></g><defs><clipPath id="a"><path fill="#fff" d="M0 0h642v121H0z"/></clipPath></defs></svg>