<svg width="96" height="96" viewBox="0 0 96 96" fill="none" xmlns="http://www.w3.org/2000/svg"><path d="M65.694 39.658c0 9.035-7.323 16.355-16.356 16.355a16.356 16.356 0 0 1-16.356-16.355c0-9.03 7.323-16.356 16.356-16.356 9.033 0 16.355 7.326 16.355 16.356z" fill="#F9A529"/><path d="M64.25 54.966l-13.098 8.538v.004l-.002.001.002-.005 1.348-2.791-18.491-5.4-15.77 29.53 13.417-4.203 4.836 13.292 13.02-27.015 12.438 27.16 4.73-13.522 13.817 4.603L64.25 54.966z" fill="#FBD87E"/><path d="M78.42 40.165l5.897-6.381-7.682-4.065 3.2-8.083-8.635-1.014.056-8.685-8.411 2.167-3.084-8.126-7.06 5.066-5.815-6.46-4.753 7.272-7.754-3.924-1.804 8.5-8.647-.863 1.382 8.578-8.371 2.321 4.395 7.5-6.971 5.192 6.803 5.407-4.623 7.353 8.297 2.585-1.653 8.533 8.67-.59 1.536 8.556 7.872-3.681 4.526 7.417 6.012-6.275 6.897 5.282 3.337-8.022 8.343 2.437.212-8.686 8.66-.742-2.94-8.178 7.806-3.822-5.697-6.569zM48.487 55.994c-8.308-.423-15.057-7.174-15.481-15.481-.495-9.702 7.477-17.677 17.184-17.187 8.31.42 15.065 7.174 15.483 15.485.49 9.706-7.484 17.677-17.186 17.183z" fill="#F9A529"/><path d="M63.477 35.195c-.387-.085-.785-.189-1.096-.434-1.107-.871-.413-2.667-.839-4.01-.524-1.652-2.746-2.212-4.355-1.568-1.61.645-2.726 2.096-3.764 3.485l-2.006 2.687c.724-1.543 2.948-6.823 3.26-7.85.366-1.208.622-2.494.36-3.729-.26-1.235-1.15-2.405-2.383-2.672-2.609-.564-4.741 2.91-7.378 2.525-1.622-.237-3.122-1.912-4.611-1.226-1.258.579-1.327 2.282-1.343 3.466-.021 1.549.228 3.037.365 4.571.084.933.113 2.103-.437 2.917-.667.984-1.758.5-2.681.244-.733-.203-1.534-.451-2.303-.355-.688.088-1.288.477-1.778.948-.924.889-1.541 2.123-1.571 3.404-.03 1.282.565 2.59 1.623 3.314-1.067.857-3.08.214-3.69 1.438-.286.572-.038 1.3.43 1.736.469.435 1.106.635 1.732.77 2.465.533 5.023.25 7.529-.034l5.63-.635a28.537 28.537 0 0 0-5.13 6.68c-.73 1.319-1.375 2.822-1.05 4.293.326 1.471 2.05 2.678 3.37 1.956.633-.347 1.008-1.023 1.558-1.49.55-.468 1.521-.64 1.906-.03.184.291.164.661.166 1.006.005.85.18 1.69.514 2.473.423.988 1.297 1.96 2.368 1.866.57-.051 1.073-.404 1.477-.81 1.852-1.86 2.084-4.792 1.739-7.393-.345-2.6-1.155-5.175-.966-7.793a18.983 18.983 0 0 0 7.182 11.022c.533.394 1.164.776 1.816.658.951-.18 1.4-1.336 1.324-2.297-.078-.96-.497-1.88-.534-2.844.808.009 1.575.336 2.367.5.79.163 1.716.123 2.273-.462.472-.496.551-1.244.509-1.928-.146-2.32-1.407-4.473-3.124-6.04-1.716-1.565-3.858-2.595-6.052-3.355a7.35 7.35 0 0 0-1.007-.288c-.35-.082-.99-.14-2.045-.15-.267 0 .826-.751 2.925-.644.211.025.423.055.632.089 1.328.221 2.625.599 3.865 1.124.534.225 1.063.48 1.636.526.501.042 1.002-.08 1.483-.226a14.602 14.602 0 0 0 4.238-2.078c.292-.209.603-.474.622-.834.013-.255-.13-.491-.291-.689-1.045-1.268-2.86-1.484-4.464-1.834z" fill="#EF4A52"/><path d="M48.147 37.582c-.03.385-.41.755-.237 1.1.095.192.34.274.549.228a.928.928 0 0 0 .513-.362 1.705 1.705 0 0 0 .242-1.618.29.29 0 0 0-.445-.185 1.32 1.32 0 0 0-.711.622m1.022-3.161a.154.154 0 0 0 .066-.192c-.233.338-.428.7-.582 1.081-.075.183-.122.43.038.544.16.114.384-.016.533-.147a11.6 11.6 0 0 0 .88-.852.866.866 0 0 0-.933-.8m.874-2.71l.32-.463c-.399.405-.83.916-.703 1.47.04.171.17.35.344.338a.46.46 0 0 0 .28-.178c.353-.377.64-.81.85-1.283.12-.267.168-.667-.102-.786-.197-.088-.416.055-.563.212-.146.156-.284.347-.493.393m3.158-2.473a2.696 2.696 0 0 0-1.313.818.224.224 0 0 0-.072.152c.01.156.247.123.395.074.336-.112.704-.04 1.053-.094.35-.053.728-.33.666-.679a.428.428 0 0 0-.8-.131m3.344-1.397a1.6 1.6 0 0 0-.873.668.203.203 0 0 0-.036.205.206.206 0 0 0 .178.072 2.356 2.356 0 0 0 1.566-.492.313.313 0 0 0 .136-.178c.03-.166-.177-.267-.347-.285a1.792 1.792 0 0 0-.832.115m3.664-.906c-.312.08-.588.263-.784.519a.178.178 0 0 0 .105.319 1.593 1.593 0 0 0 1.274-.267.7.7 0 0 0 .287-.377c.038-.157-.037-.348-.19-.396a.513.513 0 0 0-.29.024l-.888.25" fill="#fff"/></svg>