<svg width="360" height="360" viewBox="0 0 360 360" fill="none" xmlns="http://www.w3.org/2000/svg"><path d="M134.113 51.83c-13.493 3.64-26.976 8.3-38.636 16.527C74.81 82.933 61.81 107.293 52.81 132.05c-12.933 35.593-19.147 75.247-10 112 9.727 39.157 37.333 72.513 72.333 87.357 21.134 8.97 44.49 11.37 67.117 8.38 16.687-2.21 33.187-7.36 47.793-16.417 13.73-8.513 25.514-20.28 36.204-32.893 43.133-50.907 70.26-123.237 52.856-189.144-2.893-10.946-7.033-21.666-13.666-30.496-11.667-15.45-32.667-23.92-50.69-26.82-25.057-4.027-51.19-3.667-76.37-.707a306.883 306.883 0 0 0-44.274 8.52z" fill="#7B513C"/><path d="M98.58 93.493c-5.787-1.42-11.61 2.164-16.283 6.154-2.197 1.876-4.487 4.306-4.4 7.313.076 2.63 2.103 4.837 4.423 5.633 2.32.797 4.863.427 7.223-.28A28.332 28.332 0 0 0 100 106.51c1.077-.94 2.127-2 2.617-3.41.98-2.77-.98-6.23-3.707-6.54m36.057 13.04c.6-1.373-.547-3.03-1.91-3.37-1.364-.34-2.784.223-4.074.833a58.472 58.472 0 0 0-16.833 12.024c-1.363 1.393-2.773 3.35-2.113 5.23.41 1.176 1.516 1.873 2.593 2.353 7.933 3.527 16.963-.17 24.797-4.073 1.74-.867 3.52-1.78 4.83-3.294 1.31-1.513 2.043-3.783 1.31-5.666-1.027-2.667-4.177-3.314-6.84-3.6m8.956-48.394c-8.743.31-17.296 5.087-22.596 12.63 3.18 4.62 9.756 3.914 14.883 2.18 4.667-1.573 9.553-3.966 11.76-8.666l-2.063-2.69" fill="#C69C6D"/><path d="M71.273 117.82c1.534.333 1.687 2.43 1.474 4-1.778 12.98-3.563 25.961-5.354 38.943-.31 2.244-.403 5 1.484 6.25 1.473.977 3.43.507 5.116-.016a204.779 204.779 0 0 0 20.667-7.667c6-2.6 12.143-5.553 18.667-5.333 1.333.043 2.803.293 3.666 1.333 1.807 2.193-.63 5.313-2.963 6.937-11.887 8.266-26.063 12.41-39.4 18.046-1.04.437-2.163.974-2.62 2-.667 1.467.363 3.1 1.333 4.37A208.237 208.237 0 0 0 90.61 206.44c3.767 3.8 7.843 7.73 9.21 12.903.143.537.247 1.14-.027 1.627-.53.94-1.923.73-2.94.367a72.72 72.72 0 0 1-32.256-23.027c-1.96-2.46-4.38-5.333-7.507-5-1.503.173-2.8 1.097-4 2a171.46 171.46 0 0 0-19.063 16.667c-4.424 4.456-8.877 9.356-14.87 11.226-1.667.517-3.907.53-4.63-1.046-.464-1-.037-2.18.426-3.19a48.38 48.38 0 0 1 12-16.137c3.117-2.737 6.617-5.107 9.117-8.413 2.5-3.307 3.823-7.944 1.923-11.627-.97-1.873-2.636-3.27-4.226-4.667a112.25 112.25 0 0 1-18.357-20.576c-1.173-1.694-2.163-4.334-.48-5.524.963-.666 2.283-.4 3.4-.026 6.027 2 11.18 5.883 15.81 10.136 3.7 3.4 8.587 8.394 14.16 7.537 4.287-.667 6.453-5.287 7.91-8.863 2.597-6.354 4.617-12.984 6.87-19.467l7.28-20.923.913-2.597zm117.157 0c1.537.333 1.69 2.43 1.477 4a35310 35310 0 0 1-5.357 38.943c-.307 2.244-.403 5 1.487 6.25 1.47.977 3.43.507 5.116-.016a204.258 204.258 0 0 0 20.667-7.667c6-2.6 12.147-5.553 18.667-5.333 1.333.043 2.806.293 3.666 1.333 1.807 2.193-.63 5.313-2.963 6.937-11.887 8.266-26.063 12.41-39.4 18.046-1.04.437-2.167.974-2.62 2-.667 1.467.363 3.1 1.333 4.37a208.704 208.704 0 0 0 17.264 19.757c3.766 3.8 7.846 7.73 9.213 12.903.14.537.243 1.14-.03 1.627-.527.94-1.92.73-2.937.367a72.723 72.723 0 0 1-32.256-23.027c-1.96-2.46-4.384-5.333-7.507-5-1.507.173-2.803 1.097-4 2a171.067 171.067 0 0 0-19.06 16.667c-4.427 4.456-8.88 9.356-14.857 11.226-1.666.517-3.906.53-4.633-1.046-.46-1-.033-2.18.427-3.19a48.387 48.387 0 0 1 12-16.137c3.113-2.737 6.616-5.107 9.116-8.413 2.5-3.307 3.824-7.944 1.92-11.627-.966-1.873-2.636-3.27-4.223-4.667a112.255 112.255 0 0 1-18.357-20.576c-1.176-1.694-2.166-4.334-.48-5.524.964-.666 2.284-.4 3.4-.026 6.027 2 11.18 5.883 15.81 10.136 3.687 3.407 8.58 8.4 14.154 7.534 4.286-.667 6.45-5.287 7.91-8.864 2.596-6.353 4.613-12.983 6.87-19.466l7.28-20.924.903-2.593zm115.16 0c1.533.333 1.687 2.43 1.473 4-1.777 12.98-3.562 25.961-5.353 38.943-.31 2.244-.403 5 1.483 6.25 1.474.977 3.43.507 5.117-.016a204.258 204.258 0 0 0 20.667-7.667c6-2.6 12.143-5.553 18.666-5.333 1.334.043 2.804.293 3.667 1.333 1.807 2.193-.63 5.313-2.96 6.937-11.89 8.266-26.063 12.41-39.403 18.046-1.04.437-2.164.974-2.62 2-.647 1.467.363 3.1 1.333 4.37a208.55 208.55 0 0 0 17.263 19.757c3.767 3.8 7.844 7.73 9.21 12.903.144.537.247 1.14-.026 1.627-.527.94-1.924.73-2.94.367a72.712 72.712 0 0 1-32.254-23.027c-1.963-2.46-4.383-5.333-7.51-5-1.503.173-2.8 1.097-4 2a171.157 171.157 0 0 0-19.06 16.667c-4.423 4.456-8.876 9.356-14.87 11.226-1.666.517-3.906.53-4.63-1.046-.463-1-.033-2.18.427-3.19a48.327 48.327 0 0 1 12-16.137c3.113-2.737 6.617-5.107 9.117-8.413 2.5-3.307 3.82-7.944 1.92-11.627-.967-1.873-2.637-3.27-4.224-4.667a112.307 112.307 0 0 1-18.36-20.576c-1.173-1.694-2.163-4.334-.476-5.524.96-.666 2.28-.4 3.4-.026 6.026 2 11.176 5.883 15.806 10.136 3.704 3.4 8.587 8.394 14.16 7.537 4.29-.667 6.454-5.287 7.914-8.863 2.593-6.354 4.613-12.984 6.866-19.467l7.28-20.923.917-2.597zm-182.817 99.103c1.537.334 1.687 2.43 1.474 4-1.778 12.98-3.563 25.961-5.354 38.944-.306 2.243-.403 5 1.487 6.25 1.47.976 3.43.506 5.117 0a204.33 204.33 0 0 0 20.666-7.667c6-2.6 12.147-5.553 18.667-5.333 1.333.046 2.807.296 3.667 1.333 1.806 2.193-.63 5.313-2.964 6.937-11.886 8.266-26.063 12.41-39.403 18.043-1.037.44-2.163.973-2.62 2-.647 1.467.367 3.1 1.333 4.37a208.686 208.686 0 0 0 17.264 19.757c3.766 3.8 7.846 7.73 9.213 12.903.14.537.243 1.14-.03 1.627-.527.94-1.923.73-2.937.366a72.702 72.702 0 0 1-32.256-23.026c-1.964-2.46-4.384-5.334-7.51-4.984-1.504.174-2.8 1.097-4 2a171.259 171.259 0 0 0-19.06 16.667c-4.424 4.427-8.86 9.327-14.86 11.197-1.667.513-3.91.53-4.634-1.047-.463-1-.033-2.18.427-3.19a48.332 48.332 0 0 1 12-16.137c3.113-2.736 6.617-5.106 9.117-8.413 2.5-3.307 3.823-7.943 1.92-11.627-.967-1.873-2.637-3.27-4.224-4.666a112.302 112.302 0 0 1-18.356-20.56c-1.174-1.697-2.164-4.334-.477-5.524.963-.666 2.283-.4 3.4-.026 6.027 2 11.18 5.883 15.81 10.136 3.7 3.4 8.587 8.394 14.16 7.537 4.287-.667 6.45-5.29 7.91-8.863 2.593-6.354 4.613-13 6.87-19.467l7.277-20.923.906-2.614zm115.16 0c1.534.334 1.687 2.43 1.474 4-1.778 12.98-3.563 25.961-5.354 38.944-.31 2.243-.403 5 1.484 6.25 1.473.976 3.43.506 5.116 0a204.258 204.258 0 0 0 20.667-7.667c6-2.6 12.143-5.553 18.667-5.333 1.333.046 2.803.296 3.666 1.333 1.807 2.193-.63 5.313-2.96 6.937-11.89 8.266-26.066 12.41-39.403 18.043-1.04.44-2.163.973-2.62 2-.667 1.467.363 3.1 1.333 4.37a209.396 209.396 0 0 0 17.267 19.757c3.767 3.8 7.843 7.73 9.21 12.903.143.537.247 1.14-.027 1.627-.526.94-1.923.73-2.94.366a72.721 72.721 0 0 1-32.256-23.026c-1.96-2.46-4.38-5.334-7.507-4.984-1.503.174-2.8 1.097-4 2a171.587 171.587 0 0 0-19.063 16.667c-4.407 4.47-8.86 9.37-14.854 11.24-1.666.513-3.906.53-4.63-1.047-.463-1-.036-2.18.427-3.19a48.383 48.383 0 0 1 12-16.136c3.117-2.737 6.62-5.107 9.117-8.414 2.496-3.306 3.823-7.943 1.923-11.626-.97-1.874-2.637-3.27-4.223-4.667a112.101 112.101 0 0 1-18.37-20.603c-1.174-1.697-2.164-4.334-.48-5.524.963-.666 2.283-.4 3.4-.026 6.026 2 11.18 5.883 15.81 10.136 3.7 3.4 8.586 8.394 14.16 7.537 4.29-.667 6.453-5.29 7.91-8.863 2.596-6.354 4.616-13 6.87-19.467l7.28-20.923.906-2.614z" fill="#FBD87E"/></svg>