<svg width="72" height="72" viewBox="0 0 72 72" fill="none" xmlns="http://www.w3.org/2000/svg"><path d="M49.27 29.743c0 6.776-5.492 12.267-12.267 12.267a12.266 12.266 0 0 1-12.266-12.267c0-6.772 5.492-12.266 12.266-12.266 6.775 0 12.267 5.494 12.267 12.266z" fill="#F9A529"/><path d="M48.187 41.225l-9.823 6.403v.003l-.002.001.002-.004 1.01-2.093-13.867-4.05-11.828 22.147 10.063-3.152 3.627 9.969 9.764-20.261 9.329 20.37 3.548-10.142 10.363 3.453-12.186-22.644z" fill="#FBD87E"/><path d="M58.815 30.124l4.423-4.786-5.762-3.049 2.4-6.062-6.476-.76.042-6.514-6.309 1.625-2.312-6.095-5.295 3.8-4.361-4.845L31.6 8.892 25.784 5.95l-1.353 6.374-6.485-.646 1.037 6.433-6.279 1.741L16 25.476l-5.228 3.894 5.102 4.055-3.467 5.515 6.223 1.939-1.24 6.4 6.503-.442 1.152 6.416 5.904-2.76 3.394 5.562 4.509-4.706 5.173 3.961 2.502-6.016 6.258 1.827.159-6.514 6.495-.556-2.205-6.134 5.854-2.866-4.273-4.927zM36.364 41.995c-6.23-.317-11.293-5.38-11.61-11.61-.371-7.277 5.607-13.258 12.887-12.89 6.234.314 11.299 5.38 11.613 11.613.367 7.28-5.613 13.258-12.89 12.887z" fill="#F9A529"/><path d="M47.608 26.396c-.29-.063-.59-.141-.823-.325-.83-.654-.309-2-.628-3.008-.394-1.239-2.06-1.659-3.267-1.176-1.207.484-2.045 1.572-2.823 2.614l-1.504 2.015c.543-1.157 2.211-5.117 2.444-5.887.275-.906.467-1.871.271-2.797-.196-.926-.863-1.804-1.788-2.004-1.956-.423-3.555 2.182-5.533 1.893-1.216-.177-2.342-1.433-3.458-.919-.944.434-.996 1.711-1.008 2.6-.016 1.161.172 2.277.274 3.428.063.7.085 1.577-.328 2.187-.5.738-1.318.376-2.01.184-.55-.152-1.151-.339-1.728-.267-.516.067-.966.358-1.333.711-.693.667-1.156 1.592-1.179 2.554-.022.961.424 1.942 1.218 2.485-.8.643-2.31.16-2.768 1.078-.214.43-.028.975.323 1.302.351.327.83.477 1.299.577 1.848.4 3.767.188 5.646-.024l4.223-.477a21.401 21.401 0 0 0-3.848 5.01c-.547.99-1.03 2.117-.787 3.22.244 1.103 1.537 2.009 2.528 1.467.474-.26.756-.767 1.168-1.118.413-.35 1.141-.48 1.43-.022.138.218.122.496.124.754.004.638.135 1.269.386 1.855.317.741.972 1.47 1.776 1.4.428-.039.804-.303 1.108-.608 1.388-1.395 1.562-3.594 1.304-5.545-.259-1.95-.867-3.881-.725-5.844a14.236 14.236 0 0 0 5.387 8.266c.4.296.872.582 1.362.494.713-.136 1.05-1.002.992-1.723-.058-.72-.372-1.41-.4-2.133.606.006 1.182.252 1.775.374.593.123 1.287.093 1.705-.346.354-.372.414-.933.382-1.446-.11-1.739-1.056-3.354-2.343-4.529-1.287-1.175-2.893-1.947-4.54-2.517a5.535 5.535 0 0 0-.755-.216c-.262-.062-.742-.104-1.533-.112-.2 0 .62-.564 2.193-.484.159.019.318.042.474.067.997.166 1.97.45 2.9.843.4.169.796.36 1.226.395.376.031.752-.06 1.112-.17a10.947 10.947 0 0 0 3.179-1.558c.22-.157.453-.356.467-.625.01-.192-.098-.369-.219-.517-.783-.951-2.144-1.113-3.348-1.376z" fill="#EF4A52"/><path d="M36.11 28.187c-.023.288-.307.566-.178.825.071.143.255.205.412.17a.696.696 0 0 0 .385-.271 1.278 1.278 0 0 0 .181-1.214.216.216 0 0 0-.333-.138.99.99 0 0 0-.534.466m.767-2.37a.115.115 0 0 0 .05-.144 4.23 4.23 0 0 0-.437.81c-.056.138-.092.323.028.408.12.086.288-.012.4-.11.232-.201.452-.415.66-.64a.652.652 0 0 0-.7-.6m.656-2.031l.24-.348c-.299.304-.622.687-.527 1.103.03.128.127.262.258.253a.346.346 0 0 0 .21-.133c.265-.283.48-.608.637-.962.09-.2.126-.501-.076-.59-.148-.066-.312.042-.422.159-.11.117-.214.26-.37.295m2.368-1.855a2.021 2.021 0 0 0-.984.613.168.168 0 0 0-.055.114c.008.118.185.093.297.056.252-.084.528-.03.79-.07.262-.04.545-.248.5-.51a.323.323 0 0 0-.46-.235.321.321 0 0 0-.141.137m2.508-1.048a1.2 1.2 0 0 0-.655.501.153.153 0 0 0-.026.154.155.155 0 0 0 .133.054c.423.022.84-.11 1.175-.37a.235.235 0 0 0 .102-.133c.022-.124-.134-.2-.261-.213a1.345 1.345 0 0 0-.624.086m2.748-.68c-.234.06-.44.198-.588.39a.133.133 0 0 0-.046.147.133.133 0 0 0 .125.092 1.197 1.197 0 0 0 .956-.2.524.524 0 0 0 .215-.283c.028-.118-.028-.261-.143-.297a.385.385 0 0 0-.217.018l-.667.187" fill="#fff"/></svg>