<svg width="72" height="72" viewBox="0 0 72 72" fill="none" xmlns="http://www.w3.org/2000/svg"><path d="M33.66 12.01c.337-1.455.055-2.989.287-4.466a6.534 6.534 0 0 1 2.741-4.327 4.12 4.12 0 0 0-.671 3.81c.272.809.788 1.507 1.221 2.242a11.887 11.887 0 0 1 1.262 8.839c.857-1.91 3.303-2.553 4.542-4.24.578-.788.853-1.75 1.238-2.647a11.23 11.23 0 0 1 4.295-5.03c-1.407 1.016-1.775 2.962-1.679 4.694.096 1.732.54 3.467.295 5.184-.267 1.857-1.304 3.499-2.32 5.076a7.448 7.448 0 0 1 4.2-1.773c.7-.06 1.421-.023 2.088-.243 1.92-.636 2.564-3 3.992-4.431 1.228-1.23 3.134-1.733 4.808-1.267-2.076.443-3.2 2.712-3.622 4.791-.184.9-.299 1.83-.68 2.667-1.236 2.718-4.856 3.7-6.128 6.4a12.081 12.081 0 0 0 5.507-1.21c1.608-.783 3.046-1.925 4.744-2.486 1.698-.56 3.86-.35 4.867 1.128-2.128.35-3.3 2.568-4.684 4.22a11.512 11.512 0 0 1-7.456 4.005c2.617-.677 5.025 2.91 7.591 2.058.74-.245 1.329-.837 2.072-1.076 1.855-.596 3.567 1.152 4.738 2.71-2.78-.279-5.117 1.91-7.68 3.021a10.475 10.475 0 0 1-6.885.48c-.008 1.289 1.107 2.333 2.304 2.813 1.198.48 2.511.56 3.753.915 3.028.866 5.474 3.512 6.1 6.6-1.63-2.082-4.781-1.742-7.411-2.02a12.851 12.851 0 0 1-7.168-3.185c-.579 1.873.694 3.81 2.129 5.145 1.435 1.336 3.163 2.503 3.92 4.31.744 1.782.383 3.81.01 5.704.487-2.568-2.055-4.66-4.434-5.742-2.38-1.084-5.185-2.08-6.167-4.503-1.209 1.494-.655 3.755.37 5.38 1.024 1.624 2.466 3.027 3.066 4.853.88 2.694-.343 5.698-2.261 7.784.854-2.8-1.46-5.492-3.64-7.442-2.18-1.95-4.647-4.39-4.171-7.276-4.13 3.58-1.208 11.096-4.691 15.307a8.223 8.223 0 0 0-.757-6.382c-.56-.967-1.319-1.819-1.775-2.839-.977-2.186-.4-4.751.524-6.959-2.4 1.149-3.454 3.911-4.6 6.312-1.146 2.4-3.1 4.95-5.758 4.835 1.568-.442 2.467-2.16 2.6-3.783.133-1.624-.317-3.23-.523-4.846-.206-1.615-.126-3.4.892-4.667-2.378.128-4.26 1.96-5.994 3.593s-3.887 3.283-6.242 2.92c2.238-.859 3.36-3.298 4.325-5.491.965-2.194 2.267-4.6 4.583-5.205-2.4-1.286-5.319-.157-7.813.93-2.494 1.086-5.503 2.093-7.795.627 2.688-.37 4.68-2.58 6.541-4.554 1.861-1.974 4.194-3.983 6.897-3.758-3.2 1.134-6.507-1.066-9.788-1.94-2.298-.613-5.186-.885-6.129-3.067 2.146 1.46 5.055.7 7.454-.291 2.4-.992 4.996-2.192 7.483-1.45a9.433 9.433 0 0 1-3.35-3.1c-.517-.79-.944-1.69-1.728-2.217-.979-.659-2.28-.575-3.362-1.047-1.441-.631-2.326-2.334-2.016-3.873a16.182 16.182 0 0 0 8.079 2.527c1.94.071 4.255-.045 5.384 1.533-.937-2.74-1.906-5.543-3.717-7.806-.586-.733-1.257-1.404-1.71-2.223-.778-1.405-.834-3.124-.452-4.683-.015 1.226.92 2.28 1.986 2.885 1.066.605 2.283.885 3.406 1.376a9.83 9.83 0 0 1 4.907 4.776c.955-5.222-2.193-10.694-.676-15.782-.19 2.003 1.174 3.806 2.61 5.215 1.182 1.158 2.503 2.247 3.329 3.707.206.365.375.75.501 1.15.125.4.152.906.382 1.257.28.426.283-.155.35-.404.121-.43.274-.85.458-1.258.397-.916.875-1.81 1.102-2.79z" fill="#F7AF4E"/><path d="M20.777 32.578c-.03.62 0 1.242.094 1.857.409-.01.817.033 1.214.13-.222 1.604.992 3.423 2.11 4.523 1.652 1.179 4.185 1.345 6.104.746 1.76-1.062 3.365-3.226 3.415-5.293 1.05 0 2.1-.041 3.147-.125-.297 4.5 6.427 7.175 9.346 3.795a6.953 6.953 0 0 0 1.43-4.63c-.01-.152-.01-.333.116-.42.44-.338 1.622-.175 1.622-.175l-.356-1.467s-1.367.24-2.056-.04c-5.64-2.973-9.178.17-10.11.77-1.242-.252-2.528-.03-3.434.102-1.519-1.736-5.886-3.278-10.404.324-1.366-.148-.781-.066-2.238-.097zm17 1.026c1.128-3.683 8.044-3.562 9.054.186.394 7.053-9.925 6.776-9.056-.186h.002zm-5.596-.527c2.547 4.951-4.836 9.012-8.088 4.811-3.472-5.033 5.022-9.088 8.086-4.81h.002z" fill="#EF4A52"/><path opacity=".86" d="M46.829 33.79c.4 7.053-9.923 6.776-9.054-.186 1.128-3.683 8.044-3.562 9.054.186zm-14.65-.713c2.547 4.951-4.836 9.012-8.088 4.811-3.47-5.033 5.024-9.088 8.088-4.81z" fill="#EF4A52"/></svg>