<svg width="72" height="72" viewBox="0 0 72 72" fill="none" xmlns="http://www.w3.org/2000/svg"><g clip-path="url(#a)"><path d="M64.784 33.084c-.933-4.506-4.933-7.903-9.715-7.903H19.467c-4.781 0-8.78 3.4-9.714 7.903a9.945 9.945 0 0 0-.205 2.015v21.656c0 5.466 4.449 9.918 9.919 9.918h35.6c5.47 0 9.92-4.451 9.92-9.918V35.099a9.953 9.953 0 0 0-.203-2.015z" fill="#FAEEE5"/><path d="M53.361 43.56c-.776-1-1.683-2.079-2.939-2.243 1.09.5 1.165 2.138.467 3.114-.698.977-1.867 1.473-2.944 2-1.078.528-2.2 1.22-2.606 2.35-.126.353-.181.743-.409 1.043-.228.299-.73.436-.97.147-.24-.29-.045-.705.148-1.016.915-1.49 1.83-2.979 2.747-4.467.676-1.101 1.365-2.233 1.616-3.5.06-.305.089-.64-.067-.91s-.437-.403-.708-.533l-5.138-2.435c.977 3.008.333 6.49-1.65 8.953-.362-.66-.075-1.467.158-2.184.517-1.598.725-3.28.612-4.957-.027-.4-.087-.833-.369-1.12-.2-.2-.476-.3-.744-.391l-5.009-1.7c1.64 1.362 1.71 3.822 1.51 5.942a49.927 49.927 0 0 1-.71 4.888c-.373.18-.63-.4-.63-.815-.004-1.822.177-3.64.54-5.425.231-1.134.448-2.534-.46-3.254-.411-.324-.958-.409-1.48-.45a12.753 12.753 0 0 0-4.867.56c.946.503 1.229 1.698 1.414 2.753.325 1.856.65 3.711.977 5.566.113.646.172 1.44-.355 1.83-.788-1.186-1.087-2.619-1.373-4.011-.286-1.393-.595-2.828-1.389-4.006-.793-1.178-2.205-2.062-3.604-1.8-.698.133-1.318.523-1.876.962-.928.734-1.738 1.605-2.703 2.285-.965.68-2.15 1.163-3.31.957.04.007.075.582.08.645a9.506 9.506 0 0 1-.618 4.302c-.15.386-.333.755-.512 1.129-.149.31-.323.651-.33 1-.013.767 1.035 1.033 1.615 1.21a8.856 8.856 0 0 0 2.442.363c1.805.025 3.583-.39 5.352-.752.308-.067.649-.12.921.038.272.159.352.63.067.765a.621.621 0 0 1-.218.047c-2.693.27-5.385.539-8.078.807-1.021.102-2.17.167-2.948-.502l1.926 5.129c.333.89.672 1.8.681 2.752.005.585-.113 1.19.085 1.74s.906.975 1.374.624c-.329.377.014 1.02.495 1.159.48.139.99-.055 1.449-.254a48.729 48.729 0 0 0 9.244-5.245c.411-.298.843-.612 1.347-.672.504-.06 1.09.241 1.145.746.081.734-.842 1.08-1.525 1.355-2.477.993-3.65 3.867-5.875 5.34a6.148 6.148 0 0 1-5.426.627 33.887 33.887 0 0 0 5.949 4.313c.224.128.477.257.729.2.251-.058.414-.28.56-.489l2.99-4.261c1.116-1.591 2.316-3.255 4.082-4.067.455-.21 1.187-.22 1.259.276.034.227-.112.438-.25.621a7333.67 7333.67 0 0 1-3.977 5.308c-1.279 1.704-2.985 3.6-5.096 3.311a23.514 23.514 0 0 0 5.866 2.326c.22.053.462.102.664 0 .216-.11.318-.355.404-.579a65.304 65.304 0 0 1 3.73-8.012c.173-.315.437-.676.792-.627.549.076.483.892.263 1.4l-2.635 6.075c-.462 1.067-1.057 2.25-2.084 2.701a12.088 12.088 0 0 1 3.792-.571c.564.005 1.143.048 1.684-.118 1.446-.444 2.059-2.181 2.074-3.694.014-1.513-.348-3.059.046-4.52.07-.26.211-.557.48-.6a.576.576 0 0 1 .351.081c.623.334.832 1.145.741 1.844-.09.7-.404 1.35-.56 2.038-.237 1.048-.1 2.145-.243 3.21-.143 1.064-.69 2.203-1.718 2.517 1.637.17 3.2-.76 4.383-1.906 1.182-1.147 2.111-2.533 3.328-3.643.544-.494 1.162-.955 1.462-1.625.573-1.276-.234-2.768-1.266-3.714-1.032-.946-2.318-1.64-3.127-2.783a38.113 38.113 0 0 1 12.91 9.959c.266.319.543.654.928.81.385.157.908.058 1.08-.32a31.606 31.606 0 0 0-13.873-11.258c-.678-.28-1.467-.66-1.573-1.386l4 2.085c.867.453 1.817.92 2.783.758 1.678-.283 2.451-2.2 2.922-3.835.476-1.65.957-3.348.805-5.059-.058-.65-.207-1.3-.137-1.947.07-.648.363-1.276.408-1.934.084-1.257-.726-2.376-1.498-3.37zM29.474 53.854a5.095 5.095 0 0 1-.8.82c-.577.466-1.292.794-2.047.747-.338-.02-.675-.114-1.008-.062-.393.06-.726.312-1.036.562-.31.249-.628.51-1.014.6-.387.089-.861-.051-1.011-.419a.959.959 0 0 1-.05-.44 2.08 2.08 0 0 1 1.28-1.733c.871-.344 1.905-.067 2.754-.462.362-.167.66-.446.99-.666.33-.221.73-.4 1.12-.321.392.08.663.373.88.677.201.284.144.438-.058.697zm-1.703-8.786c.082.248.032.561-.186.706a.674.674 0 0 1-.44.086c-.353-.032-.667-.24-.965-.416-.321-.19-.55-.566-.68-.907a2.098 2.098 0 0 1-.133-.74c0-.24.039-.501-.092-.702-.123-.189-.394-.347-.32-.56.047-.133.224-.185.36-.143.137.042.24.152.337.255l1.674 1.782c.178.19.362.389.445.639zm24.362 5.455c-.059.138-.18.238-.297.333-.417.338-.843.678-1.342.879-.224.089-.46.148-.68.248-.384.176-.703.474-1.086.651-.257.12-.988.291-1.067-.133-.072-.388.272-.849.542-1.083.338-.295.759-.471 1.174-.644.778-.324 1.574-.653 2.416-.692a.436.436 0 0 1 .245.038c.13.077.155.264.095.403z" fill="#34D186"/><path d="M64.99 26.737v2.082c0 1.017-.553 1.925-1.414 2.516a4.108 4.108 0 0 1-2.027.697c-.11.008-.222.013-.334.013H13.323c-.112 0-.226-.005-.333-.013a4.106 4.106 0 0 1-2.029-.699c-.863-.591-1.413-1.499-1.413-2.516v-2.08c0-1.784 1.69-3.228 3.775-3.228h47.891c2.084 0 3.775 1.444 3.775 3.228z" fill="#0A8385"/><path d="M46.148 22.757c4.101-1.226 8.022-2.83 11.333-5.134 3.24-2.253 6.304-5.606 4.356-9.122-2.15-3.88-8.36-2.908-12.196-1.39a27.56 27.56 0 0 0-7.722 4.653 6.253 6.253 0 0 0-.807-2.635c-.86-1.502-2.501-2.772-4.372-3.496-4.26-1.65-9.445-.666-12.674 2-1.66 1.373-2.71 3.087-2.904 4.984-.179 1.755.489 3.546 1.55 5.075 1.85 2.667 4.937 4.413 8.26 5.815.437.186.878.364 1.32.54a7.427 7.427 0 0 0-1.48 1.133 5.22 5.22 0 0 0-1.07 1.533 3.669 3.669 0 0 0-.239.706c-.374 1.562.24 3.2.986 4.644.316.61.69 1.243 1 1.892.423.888.722 1.803.574 2.718-.2 1.22-1.41 1.834-2.904 2.096a4.76 4.76 0 0 1-.949.098c-.46.02-.92.013-1.379-.02-1.045-.08-2.074-.306-3.088-.505-2.144-.423-4.313-.805-6.53-.592a16.81 16.81 0 0 0-5.428 1.454c-.783.361-1.532.793-2.237 1.29a12.29 12.29 0 0 0-2.157 1.923c-.56.634-.974 1.315-1.345 2.03-.327.63.356 1.386 1.119 1.552.914.2 1.634-.244 1.966-.874.028-.044.171-.288.2-.339a5.34 5.34 0 0 1 .21-.313c.042-.06.085-.122.13-.18a12.1 12.1 0 0 1 .65-.788 9.733 9.733 0 0 1 1.456-1.22c.183-.126.37-.248.561-.362a14.03 14.03 0 0 1 2.263-1.043c.19-.067.114-.04.358-.114a14.567 14.567 0 0 1 2.057-.451 7.579 7.579 0 0 1 1.075-.092 14.452 14.452 0 0 1 1.54.028c1.1.084 2.184.322 3.253.534 2.245.445 4.467.8 6.78.477 1.95-.272 3.873-1.14 4.84-2.543 1.023-1.48.895-3.187.318-4.76a10.15 10.15 0 0 0-.289-.7c-.72-1.58-1.986-3.188-1.946-4.904a2.342 2.342 0 0 1 .273-1.048c.022-.024.148-.22.173-.252.052-.073.112-.142.168-.212.018-.024.134-.133.134-.144.14-.126.329-.274.484-.39l.284.03c.247.002.491-.043.72-.133.2-.019.395-.037.592-.057a2.28 2.28 0 0 0 .2-.026c.067-.012.141-.013.212-.017a49.384 49.384 0 0 1 10.606.273c1.66.223 3.676.486 5.44 1.047 1.612.51 3.013 1.267 3.726 2.475.244.41.387.933.283 1.44-.12.59-.55 1.172-1.017 1.666-.324.34-.672.659-1.04.952a17.947 17.947 0 0 1-2.457 1.612c-2.849 1.588-6.173 2.706-8.813 4.522-1.693 1.163-2.641 2.875-1.693 4.585s3.194 2.418 5.303 2.939c.825.203 1.746-.242 1.968-.883.238-.68-.289-1.35-1.118-1.553-.85-.21-1.718-.409-2.458-.818a3.735 3.735 0 0 1-.58-.437 1.39 1.39 0 0 1-.32-.6s.015-.177 0-.133l.019-.084c.012-.04.12-.284.087-.234.173-.302.338-.44.584-.642.594-.488 1.118-.756 1.84-1.134 3-1.555 6.253-2.808 8.971-4.684 1.035-.714 2.013-1.534 2.745-2.458a6.71 6.71 0 0 0 .697-1.038c.8-1.506.616-3.15-.4-4.566a5.143 5.143 0 0 0-.315-.4c-1.112-1.316-2.764-2.174-4.6-2.772-1.629-.533-3.404-.856-5.067-1.112a52.817 52.817 0 0 0-4.925-.525l.134-.035c.912-.234 1.82-.482 2.721-.752zm-5.015-6.186c2.06-2.379 4.559-4.494 7.57-6.094 1.747-.929 3.626-1.722 5.702-2.066.872-.145 1.861-.218 2.688-.062.37.067.808.22 1.015.34 0 0 .242.177.33.248.011.008.09.08.11.092.066.073.127.148.184.224.246.32.259.361.366.666.033.088.1.326.122.4.004.033.019.124.019.124a3.638 3.638 0 0 1-.002.752c-.006.035-.015.096-.019.11a5.404 5.404 0 0 1-.087.312 4.02 4.02 0 0 1-.484 1.024c-.907 1.39-2.383 2.512-3.888 3.508-2.987 1.98-6.666 3.384-10.319 4.422a89.64 89.64 0 0 1-5.895 1.44l-.179.04a22.158 22.158 0 0 0 2.767-5.48zm-14.556 1.162c-2.196-2.116-3.082-5.034-1.159-7.405 1.873-2.31 5.68-3.565 8.927-2.757 1.425.354 2.81 1.18 3.594 2.21.43.564.662 1.056.776 1.777.133.834.034 1.7-.153 2.526-.114.502-.252 1-.41 1.494a36.822 36.822 0 0 0-4.2 6.316c-2.749-1.055-5.433-2.283-7.375-4.16z" fill="#EF4A52"/><path d="M40.872 66.565a.298.298 0 0 1-.015.108c-.219.667-2.767.667-3.044 0a.342.342 0 0 1-.024-.108l-.102-2.128-.347-7.188a210729.231 210729.231 0 0 1-1.438-29.83c-.022-.439-.043-.88-.067-1.32l-.042-.916c-.011-.222-.023-.444-.033-.667-.039-.813 3.044-.81 3.083 0l.032.667.036.76.072 1.476c.104 2.139.207 4.277.309 6.416l.006.12 1.467 30.484.107 2.126z" fill="#EF4A52"/></g><defs><clipPath id="a"><path fill="#fff" d="M0 0h72v72H0z"/></clipPath></defs></svg>