<svg width="84" height="84" viewBox="0 0 84 84" fill="none" xmlns="http://www.w3.org/2000/svg"><path d="M42 0l6.522 17.659L63 5.627 59.82 24.18 78.372 21 66.341 35.478 84 42l-17.659 6.522L78.373 63 59.82 59.82 63 78.372 48.522 66.341 42 84l-6.522-17.659L21 78.373l3.18-18.554L5.628 63 17.66 48.522 0 42l17.659-6.522L5.627 21l18.554 3.18L21 5.628 35.478 17.66 42 0z" fill="#000"/><path d="M42.32 48.91v-1.151c0-.874.185-1.677.554-2.408a4.39 4.39 0 0 1 1.63-1.769c.718-.447 1.591-.67 2.621-.67 1.044 0 1.921.22 2.631.66a4.224 4.224 0 0 1 1.62 1.768c.369.732.554 1.538.554 2.418v1.151a5.33 5.33 0 0 1-.554 2.418 4.311 4.311 0 0 1-1.63 1.758c-.718.448-1.591.671-2.621.671-1.044 0-1.921-.223-2.631-.67a4.334 4.334 0 0 1-1.62-1.759 5.331 5.331 0 0 1-.554-2.418zm3.1-1.151v1.15c0 .504.121.98.363 1.428.248.447.696.67 1.342.67.646 0 1.087-.22 1.321-.66.242-.44.362-.92.362-1.438v-1.15c0-.519-.113-1.002-.34-1.45-.228-.447-.675-.67-1.343-.67-.64 0-1.083.223-1.332.67a2.946 2.946 0 0 0-.373 1.45zM31.124 36.422v-1.15c0-.881.188-1.687.564-2.419a4.392 4.392 0 0 1 1.63-1.768c.718-.44 1.584-.66 2.6-.66 1.05 0 1.931.22 2.642.66.71.44 1.25 1.03 1.619 1.768.37.732.554 1.538.554 2.419v1.15c0 .881-.188 1.687-.565 2.419a4.31 4.31 0 0 1-1.63 1.757c-.71.434-1.583.65-2.62.65-1.037 0-1.914-.22-2.632-.66a4.426 4.426 0 0 1-1.62-1.758 5.351 5.351 0 0 1-.542-2.408zm3.121-1.15v1.15c0 .519.12.998.362 1.438.249.44.686.661 1.31.661.654 0 1.098-.22 1.332-.66.242-.44.362-.92.362-1.439v-1.15c0-.519-.113-1.002-.34-1.45-.228-.447-.679-.67-1.353-.67-.633 0-1.07.227-1.31.681a3.024 3.024 0 0 0-.363 1.439zM32.53 53l15-21.818h2.791L35.321 53H32.53z" fill="#fff"/></svg>