<svg width="40" height="30" viewBox="0 0 40 30" fill="none" xmlns="http://www.w3.org/2000/svg"><path d="M29.383 19.328c.111.06.204.148.269.254a.68.68 0 0 1 .1.353v5.684a.674.674 0 0 1-.204.512.726.726 0 0 1-.522.212.751.751 0 0 1-.522-.212.694.694 0 0 1-.157-.237l.14-.055-.14.055a.674.674 0 0 1-.048-.275v-5.273l-4.441-2.418-3.392 5.065-.006.008a.743.743 0 0 1-.267.217.776.776 0 0 1-.945-.218l-.005-.007-3.392-5.065-4.444 2.418v5.269a.674.674 0 0 1-.204.512.728.728 0 0 1-.522.213.753.753 0 0 1-.522-.213m19.224-6.8l-19.224 6.8m19.224-6.8l-5.407-2.941 5.407 2.942zm-19.224 6.8a.696.696 0 0 1-.204-.512v-5.68c0-.125.035-.247.1-.354a.714.714 0 0 1 .268-.254l5.407-2.942a.753.753 0 0 1 .53-.07c.18.041.337.148.439.299l3.153 4.707 3.156-4.706-12.849 9.512zm0 0l.106-.106-.106.106zm13.817-9.741a.752.752 0 0 0-.53-.071.725.725 0 0 0-.438.3l.968-.23zm-5.226-1.184h2.206a3.273 3.273 0 0 0 2.278-.918 3.096 3.096 0 0 0 .947-2.218V8.288a3.097 3.097 0 0 0-.947-2.218 3.276 3.276 0 0 0-2.278-.919H18.75a3.276 3.276 0 0 0-2.278.919 3.097 3.097 0 0 0-.947 2.217v3.777c0 .834.342 1.631.947 2.219a3.275 3.275 0 0 0 2.278.918zm-1.825-6.913c0-.468.192-.917.534-1.248a1.85 1.85 0 0 1 1.291-.52h2.206c.485 0 .95.188 1.292.52.342.331.533.78.533 1.248v3.776c0 .468-.191.917-.533 1.248-.342.333-.807.52-1.292.52H18.75c-.485 0-.95-.188-1.291-.52a1.742 1.742 0 0 1-.534-1.248V8.29z" fill="#fff" stroke="#fff" stroke-width=".3"/><path d="M3.142 28.614h34.464c.77 0 1.394-.625 1.394-1.395V2.52c0-.77-.624-1.395-1.394-1.395H3.142c-.77 0-1.394.625-1.394 1.395v24.7c0 .77.624 1.395 1.394 1.395z" stroke="#fff" stroke-width="1.5" stroke-miterlimit="10" stroke-linecap="round" stroke-linejoin="round"/></svg>