<svg width="56" height="56" viewBox="0 0 56 56" fill="none" xmlns="http://www.w3.org/2000/svg"><path d="M27.774 4.258l2.292 2.101a.91.91 0 0 0 1.036.136L33.86 5.06l1.67 2.623a.91.91 0 0 0 .965.4l3.035-.674.935 2.965a.91.91 0 0 0 .829.637l3.106.134.135 3.107a.91.91 0 0 0 .636.829l2.965.934-.673 3.035a.91.91 0 0 0 .4.966l2.623 1.67-1.437 2.757a.91.91 0 0 0 .136 1.036l2.101 2.292-2.1 2.292a.91.91 0 0 0-.137 1.036l1.437 2.758-2.623 1.67a.91.91 0 0 0-.4.965l.673 3.035-2.965.935a.91.91 0 0 0-.636.829l-.135 3.106-3.106.135a.91.91 0 0 0-.83.636l-.934 2.965-3.035-.673a.91.91 0 0 0-.965.4l-1.67 2.623-2.758-1.437a.91.91 0 0 0-1.036.136l-2.292 2.102-2.292-2.102a.91.91 0 0 0-1.036-.136l-2.757 1.437-1.67-2.623a.91.91 0 0 0-.966-.4l-3.035.673-.934-2.965a.91.91 0 0 0-.83-.636l-3.106-.135-.134-3.106a.91.91 0 0 0-.637-.83l-2.965-.934.674-3.035a.91.91 0 0 0-.4-.965l-2.623-1.67 1.436-2.758a.91.91 0 0 0-.136-1.036L4.262 27.77l2.1-2.292a.91.91 0 0 0 .137-1.036l-1.436-2.757 2.623-1.67a.91.91 0 0 0 .4-.966l-.674-3.035 2.965-.934a.91.91 0 0 0 .636-.83l.135-3.106 3.107-.134a.91.91 0 0 0 .829-.636l.934-2.966 3.035.674a.91.91 0 0 0 .966-.4l1.67-2.623 2.757 1.436a.91.91 0 0 0 1.036-.136l2.292-2.101z" fill="#F4B000" stroke="#F4B000" stroke-width="2"/><path d="M41.908 13.966c7.715 7.715 7.715 20.224 0 27.938-7.715 7.715-20.223 7.715-27.938 0s-7.715-20.223 0-27.938 20.223-7.715 27.938 0z" fill="#fff"/><path d="M27.772 38.248c5.784 0 10.472-4.688 10.472-10.472 0-5.783-4.688-10.471-10.472-10.471-5.783 0-10.471 4.688-10.471 10.471 0 5.784 4.688 10.472 10.471 10.472z" fill="#000"/><path d="M25.977 23.083c0-.305-.052-.51-.156-.614a.506.506 0 0 0-.4-.166.554.554 0 0 0-.41.156c-.097.098-.145.27-.145.517v.439h-1.014v-.37c0-.553.133-.976.4-1.268.272-.3.672-.449 1.199-.449.526 0 .923.15 1.19.449.272.292.409.715.409 1.267v.176c0 .728-.25 1.196-.751 1.404.273.117.465.299.575.546.117.24.176.536.176.887v.536c0 .553-.137.979-.41 1.277-.266.293-.663.44-1.19.44-.526 0-.926-.147-1.199-.44-.266-.299-.4-.724-.4-1.277v-.565h1.015v.634c0 .247.048.422.146.526.104.098.24.146.41.146a.522.522 0 0 0 .4-.156c.103-.104.155-.309.155-.614v-.536c0-.319-.055-.543-.166-.673-.11-.13-.289-.195-.536-.195h-.36v-.975h.419c.201 0 .357-.052.468-.156.117-.104.175-.293.175-.566v-.38zm3.49 3.579c0 .247.048.422.145.526.104.098.24.146.41.146a.54.54 0 0 0 .4-.146c.104-.104.156-.28.156-.526v-3.686c0-.247-.052-.42-.156-.517a.522.522 0 0 0-.4-.156.554.554 0 0 0-.41.156c-.097.098-.146.27-.146.517v3.686zm-1.073-3.618c0-.552.14-.975.419-1.267.28-.3.682-.449 1.209-.449.526 0 .93.15 1.209.449.28.292.42.715.42 1.267v3.55c0 .552-.14.977-.42 1.276-.28.293-.683.44-1.21.44-.526 0-.929-.147-1.208-.44-.28-.299-.42-.724-.42-1.277v-3.549zm-3.937 6.823h.95c.303 0 .527.08.673.24.149.16.224.396.224.705v1.934c0 .31-.075.545-.224.705-.146.16-.37.24-.672.24h-.951v-3.824zm.601.546v2.732h.339c.094 0 .17-.027.224-.082.054-.054.082-.15.082-.29v-1.988c0-.138-.028-.235-.082-.29a.302.302 0 0 0-.224-.082h-.339zm3.569 3.279h-.607l-.103-.694h-.738l-.104.694h-.552l.612-3.825h.88l.612 3.825zm-1.371-1.213h.579l-.29-1.934-.29 1.934zm2.213-.055l-.759-2.557h.628l.46 1.743.458-1.743h.574l-.76 2.557v1.268h-.6v-1.268z" fill="#fff"/><path d="M15.785 19.971c4.616-6.59 13.7-8.192 20.291-3.577 6.59 4.616 8.192 13.7 3.577 20.291-4.616 6.591-13.7 8.192-20.291 3.577-6.591-4.616-8.193-13.7-3.577-20.291z" stroke="#fff"/><path d="M17.097 18.76l-2.081-2.52.663-.74 3.39 3.036-.451.503-2.431-2.177 2.101 2.545-.45.504-2.753-1.75 2.396 2.147-.416.465-3.39-3.036.664-.74 2.758 1.762zm2.139-1.608c.096.133.19.21.284.228a.383.383 0 0 0 .279-.08.36.36 0 0 0 .159-.235c.016-.097-.024-.212-.12-.346l-1.435-1.995c-.096-.133-.191-.206-.286-.219a.348.348 0 0 0-.277.072.37.37 0 0 0-.16.243c-.015.091.025.203.121.337l1.435 1.995zm-1.989-1.54c-.215-.3-.303-.583-.266-.85.035-.27.195-.508.48-.713.285-.205.561-.281.829-.228.265.05.505.224.72.523l1.381 1.92c.216.3.306.585.27.855-.037.267-.198.503-.483.708-.285.205-.56.283-.825.233-.268-.053-.51-.229-.724-.528l-1.382-1.92zm3.351-1.926l1.351 3.005-.587.264-1.866-4.15.818-.367 1.787 2.182-1.117-2.484.581-.261 1.866 4.15-.67.301-2.163-2.64zm3.474-.536l.958-.216.143.634-.958.216.293 1.3 1.205-.272.143.635-1.902.428-1-4.438 1.901-.43.143.635-1.204.272.278 1.236zm2.748.712l-1.023-3.004.747-.03.628 2.05.463-2.093.682-.027-.782 3.076.06 1.506-.714.029-.06-1.507zm5.593-2.429c.36.098.596.253.709.464.117.211.13.486.037.825l-.043.157a1.322 1.322 0 0 1-.26.529.702.702 0 0 1-.427.233.699.699 0 0 1 .3.46c.035.18.021.387-.043.621l-.098.358c-.092.338-.251.573-.476.705-.223.128-.509.144-.855.049l-1.085-.297 1.2-4.389 1.041.285zm-1.011 2.318l-.369 1.348.395.108c.117.032.213.025.29-.022.079-.046.141-.15.186-.313l.104-.382c.056-.205.06-.355.009-.45-.047-.093-.15-.161-.308-.205l-.307-.084zm.488-1.787l-.317 1.16.27.074c.13.035.239.03.328-.018.094-.047.165-.157.213-.333l.066-.245c.044-.158.046-.281.007-.368-.035-.086-.113-.146-.234-.179l-.332-.09zm2.665 5.256l-.649-.316.25-.797-.789-.384-.472.688-.59-.287 2.646-3.772.94.458-1.336 4.41zm-.836-2.012l.62.301.697-2.22-1.317 1.919zm3.674 2.027l-.362.484c-.22.295-.463.468-.729.519-.259.05-.529-.03-.81-.24s-.436-.448-.465-.713c-.023-.266.075-.547.296-.842l1.416-1.895c.22-.295.46-.468.72-.518.265-.05.538.03.82.24.28.21.432.448.455.714.03.265-.066.545-.287.84l-.264.354-.542-.405.292-.39c.099-.132.14-.245.123-.338a.348.348 0 0 0-.151-.243.369.369 0 0 0-.281-.08c-.091.013-.186.085-.285.217l-1.47 1.968c-.1.132-.142.244-.129.335.017.093.07.174.16.241a.36.36 0 0 0 .273.082c.094-.01.19-.082.29-.214l.388-.52.542.404zm1.126.98l-.456.12-1.028.946-.484-.525 3.346-3.084.484.526-1.458 1.343 2.093-.655.484.526-2.165.643-1.18 2.44-.498-.54.862-1.74z" fill="#000"/><path d="M42.797 28.227a14.797 14.797 0 1 1-29.594 0" stroke="#fff"/><path d="M18.266 38.406l.72.695-1.001 1.038c-.256.265-.519.406-.788.423-.263.017-.521-.096-.774-.34-.252-.244-.376-.499-.372-.766.01-.267.144-.532.4-.798l1.642-1.702c.256-.265.516-.406.779-.423.27-.017.53.096.783.34.252.244.373.499.363.766-.005.267-.135.532-.39.797l-.307.319-.487-.47.339-.35c.114-.12.169-.226.164-.32a.347.347 0 0 0-.12-.26.369.369 0 0 0-.268-.115c-.092.001-.195.061-.31.18l-1.706 1.768c-.114.118-.17.223-.169.315a.383.383 0 0 0 .129.26.36.36 0 0 0 .26.115c.095.001.2-.057.314-.176l.582-.603-.234-.226.451-.467zm2.784-.309l-1.933 2.93c-.091.137-.127.25-.109.34.022.093.08.17.174.232a.36.36 0 0 0 .276.066c.094-.016.186-.093.277-.23l1.934-2.93.564.373-1.909 2.891c-.203.308-.435.494-.697.56-.255.065-.53.001-.823-.192-.293-.194-.461-.422-.506-.685-.038-.264.044-.55.247-.858l1.909-2.89.596.393zm1.655 5.933l-.665-.28.206-.808-.808-.34-.434.713-.606-.255 2.436-3.912.965.406-1.094 4.477zm-.944-1.962l.635.267.575-2.255-1.21 1.988zm3.153 2.492a1.937 1.937 0 0 0-.007-.088 1.018 1.018 0 0 1-.005-.1c.004-.04.01-.09.019-.15l.048-.222.151-.699c.045-.207.04-.361-.013-.461-.053-.1-.16-.168-.322-.203l-.241-.052-.392 1.81-.699-.151.963-4.447 1.054.228c.364.079.609.22.733.425.129.205.156.479.081.822l-.075.35c-.1.457-.317.725-.653.803.162.11.258.255.285.434.033.175.024.38-.026.613l-.149.686c-.023.11-.04.208-.05.295a.947.947 0 0 0 .01.261l-.712-.154zm.063-3.977l-.296 1.366.274.06c.13.028.24.016.327-.036.09-.051.155-.166.194-.344l.095-.438c.034-.161.03-.284-.014-.369-.04-.084-.12-.14-.243-.166l-.337-.073zm3.802 4.289l-.721-.02-.1-.83-.878-.024-.146.822-.657-.019.856-4.528 1.046.03.6 4.569zm-1.59-1.489l.688.02-.28-2.31-.408 2.29zm2.597-1.947l.565 3.247-.634.11-.78-4.483.884-.153 1.19 2.557-.466-2.683.627-.11.78 4.484-.724.126-1.442-3.095zm1.558-1.562l2.059-.804.236.606-.697.272 1.418 3.633-.666.26-1.418-3.633-.696.271-.236-.605zm3.872.336l.832-.52.345.552-.833.52.706 1.13 1.048-.654.344.551-1.654 1.033-2.41-3.86 1.654-1.032.344.551-1.047.654.67 1.075zm2.068-1.517l.723-.663.44.479-.724.663.901.982.91-.835.44.48-1.437 1.318-3.076-3.353 1.437-1.319.44.48-.91.834.856.934zm-24.31-8.643a1.138 1.138 0 1 0 0-2.277 1.138 1.138 0 0 0 0 2.277zm29.594 0a1.138 1.138 0 1 0 0-2.277 1.138 1.138 0 0 0 0 2.277z" fill="#000"/></svg>