<svg width="19" height="14" viewBox="0 0 19 14" fill="none" xmlns="http://www.w3.org/2000/svg"><path d="M18.612 2.766a2.358 2.358 0 0 0-1.62-1.654C15.544.715 9.709.715 9.709.715s-5.82-.008-7.284.397c-.786.224-1.4.851-1.619 1.654a25.289 25.289 0 0 0-.404 4.6 25.23 25.23 0 0 0 .404 4.582c.22.803.833 1.43 1.619 1.654C3.872 14 9.708 14 9.708 14s5.82 0 7.285-.398a2.358 2.358 0 0 0 1.619-1.654c.268-1.512.398-3.046.387-4.582a25.284 25.284 0 0 0-.387-4.6zM7.846 10.211v-5.7l4.857 2.855-4.857 2.845z" fill="#fff"/></svg>