<svg width="20" height="20" viewBox="0 0 20 20" fill="none" xmlns="http://www.w3.org/2000/svg"><g clip-path="url(#a)"><path d="M-.625.667A.667.667 0 0 1 .042 0h2a.667.667 0 0 1 .646.505l.54 2.162h15.48a.667.667 0 0 1 .655.789l-2 10.667a.667.667 0 0 1-.655.544h-12a.667.667 0 0 1-.654-.544L2.055 3.476l-.533-2.143H.042A.667.667 0 0 1-.625.667zM3.511 4l1.75 9.333h10.894L17.905 4H3.512zm2.53 10.667a2.667 2.667 0 1 0 0 5.333 2.667 2.667 0 0 0 0-5.333zm9.334 0a2.667 2.667 0 1 0 0 5.333 2.667 2.667 0 0 0 0-5.333zM6.042 16a1.334 1.334 0 1 1 0 2.667 1.334 1.334 0 0 1 0-2.667zm9.333 0a1.333 1.333 0 1 1 0 2.667 1.333 1.333 0 0 1 0-2.667z" fill="#B86A3F" stroke="#B86A3F" stroke-width=".3"/></g><defs><clipPath id="a"><path fill="#fff" d="M0 0h20v20H0z"/></clipPath></defs></svg>