<svg width="25" height="25" viewBox="0 0 25 25" fill="none" xmlns="http://www.w3.org/2000/svg"><g clip-path="url(#a)"><path fill-rule="evenodd" clip-rule="evenodd" d="M4.313 2.98a2.14 2.14 0 0 1 3.2.2l2.202 2.828a2.14 2.14 0 0 1 .387 1.832l-.671 2.687a.832.832 0 0 0 .218.788l3.014 3.014a.832.832 0 0 0 .79.218l2.684-.67a2.14 2.14 0 0 1 1.833.385l2.828 2.2a2.14 2.14 0 0 1 .2 3.203l-1.268 1.268c-.908.908-2.264 1.307-3.529.861a22.855 22.855 0 0 1-8.598-5.42 22.855 22.855 0 0 1-5.42-8.597c-.445-1.264-.046-2.621.861-3.529L4.313 2.98z" fill="#B86A3F"/></g><defs><clipPath id="a"><path fill="#fff" transform="translate(2 2.353)" d="M0 0h19.624v19.624H0z"/></clipPath></defs></svg>