<svg width="41" height="42" viewBox="0 0 41 42" fill="none" xmlns="http://www.w3.org/2000/svg"><g clip-path="url(#a)"><path d="M31.232 27.71c-1.322-1.304-2.97-1.304-4.283 0a251.08 251.08 0 0 0-2.987 2.996c-.27.278-.497.337-.825.152-.648-.354-1.338-.64-1.96-1.027-2.903-1.826-5.335-4.174-7.49-6.816-1.068-1.312-2.019-2.717-2.683-4.3-.135-.319-.11-.53.151-.79 1.001-.968 1.978-1.96 2.962-2.954 1.371-1.38 1.371-2.995-.008-4.383-.783-.791-1.566-1.566-2.348-2.356-.808-.808-1.607-1.624-2.423-2.424-1.321-1.287-2.97-1.287-4.283.009-1.01.993-1.978 2.01-3.004 2.987-.95.9-1.43 2.002-1.531 3.29-.16 2.095.353 4.072 1.077 5.999 1.48 3.988 3.735 7.53 6.47 10.779 3.694 4.392 8.103 7.867 13.261 10.374 2.322 1.128 4.729 1.995 7.346 2.138 1.8.1 3.365-.354 4.619-1.759.858-.96 1.826-1.834 2.735-2.751 1.346-1.364 1.354-3.013.017-4.359a1290.032 1290.032 0 0 0-4.813-4.805z" fill="url(#b)"/><path d="M29.625 21.004l3.105-.53a13.877 13.877 0 0 0-3.88-7.489 13.802 13.802 0 0 0-7.909-3.946l-.437 3.122c2.33.328 4.451 1.38 6.125 3.054a10.708 10.708 0 0 1 2.996 5.79z" fill="url(#c)"/><path d="M34.48 7.507C30.895 3.923 26.36 1.66 21.354.961l-.438 3.122c4.325.605 8.246 2.566 11.342 5.654a19.835 19.835 0 0 1 5.562 10.728l3.105-.53A23.062 23.062 0 0 0 34.48 7.507z" fill="url(#d)"/></g><defs><linearGradient id="b" x1="4.467" y1="-.257" x2="40.843" y2="1.291" gradientUnits="userSpaceOnUse"><stop stop-color="#B026BC"/><stop offset="1" stop-color="#2A4AD0"/><stop offset="1" stop-color="#EEFC34"/><stop offset="1" stop-color="#11156B"/><stop offset="1" stop-color="#fff"/></linearGradient><linearGradient id="c" x1="21.834" y1="7.37" x2="34" y2="7.898" gradientUnits="userSpaceOnUse"><stop stop-color="#B026BC"/><stop offset="1" stop-color="#2A4AD0"/><stop offset="1" stop-color="#EEFC34"/><stop offset="1" stop-color="#11156B"/><stop offset="1" stop-color="#fff"/></linearGradient><linearGradient id="d" x1="23.093" y1="-1.761" x2="43.004" y2="-.892" gradientUnits="userSpaceOnUse"><stop stop-color="#B026BC"/><stop offset="1" stop-color="#2A4AD0"/><stop offset="1" stop-color="#EEFC34"/><stop offset="1" stop-color="#11156B"/><stop offset="1" stop-color="#fff"/></linearGradient><clipPath id="a"><path fill="#fff" transform="translate(.49 .96)" d="M0 0h40.435v40.435H0z"/></clipPath></defs></svg>