<svg width="89" height="89" viewBox="0 0 89 89" fill="none" xmlns="http://www.w3.org/2000/svg"><circle cx="44.5" cy="44.5" r="44.5" fill="url(#a)"/><path d="M63.646 52.22H24.131V28.252h39.515m0-10.894h-2.065V13H57.45v4.358H30.328V13h-4.131v4.358H24.13a4.025 4.025 0 0 0-2.921 1.276A4.482 4.482 0 0 0 20 21.716V52.22c0 1.156.435 2.264 1.21 3.081a4.025 4.025 0 0 0 2.921 1.277h39.515c1.096 0 2.147-.46 2.921-1.277a4.482 4.482 0 0 0 1.21-3.081V21.716a4.482 4.482 0 0 0-1.21-3.082 4.025 4.025 0 0 0-2.92-1.276z" fill="#fff"/><path d="M42.101 42.788l7.868-8.3a1.23 1.23 0 0 1 .933-.386c.378 0 .69.129.934.386.244.258.366.587.366.985 0 .399-.122.727-.366.985l-8.801 9.284c-.267.28-.578.422-.934.422-.355 0-.666-.141-.933-.422L37.7 42.084c-.245-.258-.367-.586-.367-.984 0-.399.122-.727.367-.985a1.23 1.23 0 0 1 .933-.387c.378 0 .69.13.934.387l2.533 2.673zM33.44 67.227c0 .61-.108 1.202-.325 1.774a8.196 8.196 0 0 1-.796 1.602c-.325.497-.693.967-1.103 1.412-.398.433-.796.827-1.194 1.183-.385.343-.747.649-1.085.916-.337.254-.596.457-.777.61h4.593c.072 0 .139.02.199.057.06.038.09.108.09.21l-.072 1.126c-.024.381-.127.693-.307.934-.17.23-.525.344-1.067.344h-5.932c-.615 0-1.049-.102-1.302-.305-.241-.217-.361-.58-.361-1.088v-1.144a.87.87 0 0 1 .036-.23c.036-.088.066-.158.09-.21.109-.215.332-.483.67-.8.349-.318.74-.662 1.175-1.03.446-.37.91-.764 1.392-1.183.494-.42.94-.846 1.338-1.278a8.45 8.45 0 0 0 1.013-1.278c.265-.433.398-.846.398-1.24a1.12 1.12 0 0 0-.308-.802c-.204-.229-.536-.343-.994-.343-.29 0-.53.083-.724.248a2 2 0 0 0-.452.63 3.795 3.795 0 0 0-.253.82c-.048.292-.084.566-.108.82-.024.127-.067.216-.127.267-.048.051-.199.076-.452.076-1.338 0-2.007-.68-2.007-2.04 0-.662.132-1.222.398-1.68a3.493 3.493 0 0 1 1.085-1.125c.446-.293.94-.502 1.482-.63a6.85 6.85 0 0 1 1.682-.21c.808 0 1.477.115 2.008.344.53.216.952.502 1.265.858.314.344.53.732.652 1.164.12.42.18.827.18 1.221zm4.005 6.505c-.47 0-.85-.083-1.14-.248-.277-.178-.416-.47-.416-.877 0-.153.019-.325.055-.516l.18-.763.308-1.163a83.216 83.216 0 0 0 .778-2.9c.096-.369.174-.706.235-1.01.06-.306.102-.586.126-.84.037-.267.055-.528.055-.782 0-.153.012-.318.036-.496.036-.191.12-.287.253-.287h.814c.687 0 1.157.128 1.41.382.265.254.398.687.398 1.297 0 .23-.018.49-.054.782a11.85 11.85 0 0 1-.2 1.088c-.084.432-.198.947-.343 1.545-.132.598-.301 1.316-.506 2.156h2.423c.036-.446.072-.935.109-1.47a94.194 94.194 0 0 0 .217-2.956c.036-.42.06-.725.072-.916.024-.445.036-.795.036-1.05a6.6 6.6 0 0 1 .018-.571c.024-.128.055-.204.09-.23a.357.357 0 0 1 .218-.056h.994c.386 0 .694.044.923.133.24.076.428.19.56.343.133.153.223.344.271.573.049.216.073.47.073.763 0 .292-.018.77-.055 1.43a63.039 63.039 0 0 1-.126 2.213c-.048.814-.102 1.66-.163 2.538a97.104 97.104 0 0 1-.163 2.441c-.048.75-.09 1.386-.126 1.908-.036.521-.06.827-.072.916a.5.5 0 0 1-.073.229c-.036.038-.108.057-.217.057h-.994c-.663 0-1.146-.14-1.447-.42-.29-.28-.434-.68-.434-1.202 0-.102.006-.305.018-.61.012-.305.036-.782.072-1.43h-4.213zm11.935 3.853c-.17 0-.326-.006-.47-.019a.877.877 0 0 1-.399-.133.752.752 0 0 1-.27-.286c-.061-.127-.091-.306-.091-.534 0-.166.018-.37.054-.61.048-.255.12-.58.217-.974.096-.407.23-.903.398-1.488.169-.597.38-1.322.633-2.174.253-.853.548-1.845.886-2.976.35-1.145.753-2.474 1.212-3.987.084-.267.18-.426.289-.477.12-.051.253-.077.398-.077.301 0 .542.026.723.077.193.038.332.101.416.19a.493.493 0 0 1 .18.306c.037.114.055.248.055.4 0 .166-.018.357-.054.573a7.959 7.959 0 0 1-.163.839c-.084.343-.205.788-.362 1.335-.144.547-.343 1.24-.596 2.08-.242.826-.543 1.831-.904 3.014-.35 1.183-.766 2.581-1.248 4.197-.109.343-.223.546-.344.61-.12.076-.307.114-.56.114zm9.755-.476c-.085.19-.211.286-.38.286h-.651c-.603 0-1.097-.102-1.483-.305-.374-.204-.56-.51-.56-.916 0-.127.023-.274.072-.439.06-.178.15-.407.27-.687.133-.28.308-.63.525-1.049.217-.432.489-.966.814-1.602.446-.878.826-1.622 1.14-2.232.313-.61.566-1.12.759-1.526.205-.42.368-.75.488-.992.12-.255.211-.452.271-.592.073-.152.121-.26.145-.324.024-.076.054-.146.09-.21h-4.303c-.097 0-.157-.019-.181-.057a.81.81 0 0 1-.018-.21l.054-1.068a5.75 5.75 0 0 1 .054-.477c.036-.165.097-.312.181-.439.096-.127.23-.229.398-.305.169-.076.392-.115.669-.115h6.727a.37.37 0 0 1 .2.058c.06.038.09.108.09.21l-.073 1.03a2.753 2.753 0 0 1-.09.496 2.539 2.539 0 0 1-.127.324c-.578 1.22-1.073 2.27-1.483 3.148-.41.877-.771 1.64-1.085 2.289-.301.648-.56 1.214-.777 1.698l-.615 1.335-.543 1.259c-.169.42-.361.89-.578 1.412z" fill="#fff"/><defs><linearGradient id="a" x1="44.5" y1="-5.868" x2="44.5" y2="96.335" gradientUnits="userSpaceOnUse"><stop stop-color="#07E879"/><stop offset="1" stop-color="#5215F2"/></linearGradient></defs></svg>