<svg width="89" height="89" viewBox="0 0 89 89" fill="none" xmlns="http://www.w3.org/2000/svg"><circle cx="44.5" cy="44.5" r="44.5" fill="url(#a)"/><path d="M37.905 73.444l-.536.437.538-.435h-.002v-.002zm-1.066-.884l-.467.38.47-.378h-.002v-.002zm-9.118-7.564l-.534-.442-.536.437-.537.438.532.444.534.44.537-.438.536-.437-.532-.442zm10.184 8.448l-.532-.442h-.002l-.53-.44h-.002l-.467.378-.066.06h-.003l-.52.45.062.05.468.39.054.046.477.394.045.036a2.46 2.46 0 0 1 .354-.383l.123-.102.54-.435h-.003l.002-.002zm28.2-10.563a4.384 4.384 0 0 0-.259-1.017 4.08 4.08 0 0 0-1.142-1.646l-1.967-1.676c-.088-.097-.187-.206-.294-.328l-.007-.007-3.541-2.882-.007-.007-3.582-2.913c1.042 1.136 2.096 2.29 3.119 3.414l.007.007a975.192 975.192 0 0 1 3.33 3.662c.019.022.04.043.061.06l1.999 1.703c.643.556.975 1.39.975 2.241a3.21 3.21 0 0 1-.6 1.877c-.454.628-1.092 1.017-1.797 1.098a2.319 2.319 0 0 1-1.8-.567l-.012-.01a.676.676 0 0 0-.945.081l-.012.015a.678.678 0 0 0 .08.943l.013.012.01.007c1.12.99 1.279 2.823.356 4.101-.454.625-1.092 1.015-1.797 1.096a2.318 2.318 0 0 1-1.802-.568l-1.443-1.248a.679.679 0 1 0-.887 1.03c.598.517.954 1.309.975 2.166a3.218 3.218 0 0 1-.598 1.951c-.453.628-1.091 1.017-1.796 1.098a2.319 2.319 0 0 1-1.802-.568l-2.584-2.233-.033-.031a.678.678 0 0 0-.926.035.683.683 0 0 0-.017.94l.022.023s.021.021.033.03c.6.518.954 1.31.975 2.168.015.686-.104 1.064-.51 1.613-.334.454-.94.974-1.63 1.072-.487.071-.954-.072-1.434-.43l-2.048-1.7-1.073-.888-1.091.86.536.445.534.444 2.288 1.896.023.02c.637.481 1.332.73 2.034.73.143 0 .283-.011.425-.03 1.389-.2 2.286-1.283 2.528-1.611.588-.796.797-1.461.776-2.452-.003-.04-.003-.083-.005-.124l.29.252a3.655 3.655 0 0 0 2.845.889c1.087-.126 2.06-.71 2.74-1.65a4.605 4.605 0 0 0 .837-3.1 3.63 3.63 0 0 0 1.975.323c1.087-.128 2.06-.713 2.738-1.652.855-1.178 1.054-2.697.65-4.013.238.019.478.014.72-.012a3.78 3.78 0 0 0 1.521-.523 4.094 4.094 0 0 0 1.218-1.128c.7-.968.96-2.163.809-3.287zM36.839 72.56l-.467.38.47-.378h-.002v-.002zm1.066.884l-.536.437.538-.435h-.002v-.002zm7.628-32.84a10.383 10.383 0 0 0-1.075-.382c-2.559-.768-6.622-1.15-12.296-1.165-.261 0-.527 0-.795.003h-.2a4.873 4.873 0 0 1-.968-.095l.382.254c.178.14.316.319.406.518.1.212.15.447.145.682h.042l.636-.002c.228 0 .451 0 .674.002 4.116.022 7.358.245 9.698.663.425.074.821.157 1.186.247.406.098.774.204 1.104.319.34-.122.674-.229 1.006-.324.323-.095.646-.18.964-.254a6.22 6.22 0 0 0-.91-.466zm-23.218 19.91l-2.018-1.675-.524-.434-.524-.435a1.311 1.311 0 0 1-.63.358h-.002a1.26 1.26 0 0 1-1.082-.23l-2.186-1.68a.715.715 0 0 0 .18.233l2.886 2.393.68.563 2.138 1.775.531.442.537.442.54-.432.544-.433-.536-.444-.534-.442zm15.59 12.93l-.536.437.538-.435h-.002v-.002zm-1.066-.884l-.467.38.47-.378h-.002v-.002zM32.547 69l-.532-.442-.531.442-.534.44.531.442.534.442.534-.44.532-.442-.534-.442z" fill="#fff"/><path d="M37.905 73.444l-.536.437.538-.435h-.002m0-.002v.002m0-.002l-.532-.442h-.002l-.53-.44m1.064.882l-.002.002h.002m0 0l-.539.435-.123.102a2.46 2.46 0 0 0-.354.383l-.045-.036-.477-.394-.054-.046-.468-.39-.062-.05.52-.45h.003l.066-.06m0 0l.468-.38v.002m-.468.378l.47-.378m-.47.378l.468-.378m.002 0h-.002m8.695-31.958h-.002m0 0a10.383 10.383 0 0 0-1.075-.382c-2.559-.768-6.622-1.15-12.296-1.165-.261 0-.527 0-.795.003h-.2a4.873 4.873 0 0 1-.968-.095l.382.254c.178.14.316.319.406.518.1.212.15.447.145.682h.042l.636-.002c.228 0 .451 0 .674.002 4.116.022 7.358.245 9.698.663.425.074.821.157 1.186.247.406.098.774.204 1.104.319.34-.122.674-.229 1.006-.324.323-.095.646-.18.964-.254a6.22 6.22 0 0 0-.91-.466zM27.72 64.996l-.534-.442-.536.437-.537.438.532.444.534.44.537-.438.536-.437-.532-.442zm38.384-2.115a4.384 4.384 0 0 0-.259-1.017 4.08 4.08 0 0 0-1.142-1.646l-1.967-1.676c-.088-.097-.187-.206-.294-.328l-.007-.007-3.541-2.882-.007-.007-3.582-2.913c1.042 1.136 2.096 2.29 3.119 3.414l.007.007a975.192 975.192 0 0 1 3.33 3.662c.019.022.04.043.061.06l1.999 1.703c.643.556.975 1.39.975 2.241a3.21 3.21 0 0 1-.6 1.877c-.454.628-1.092 1.017-1.797 1.098A2.319 2.319 0 0 1 60.6 65.9l-.012-.01a.676.676 0 0 0-.945.081l-.012.015a.678.678 0 0 0 .08.943l.013.012.01.007c1.12.99 1.279 2.823.356 4.101-.454.625-1.092 1.015-1.797 1.096a2.318 2.318 0 0 1-1.802-.568l-1.443-1.248a.679.679 0 1 0-.887 1.03c.598.517.954 1.309.975 2.166a3.218 3.218 0 0 1-.598 1.951c-.453.628-1.091 1.017-1.796 1.098a2.319 2.319 0 0 1-1.802-.568l-2.584-2.233-.033-.031a.678.678 0 0 0-.926.035.683.683 0 0 0-.017.94l.022.023s.021.021.033.03c.6.518.954 1.31.975 2.168.015.686-.104 1.064-.51 1.613-.334.454-.94.974-1.63 1.072-.487.071-.954-.072-1.434-.43l-2.048-1.7-1.073-.888-1.091.86.536.445.534.444 2.288 1.896.023.02c.637.481 1.332.73 2.034.73.143 0 .283-.011.425-.03 1.389-.2 2.286-1.283 2.528-1.611.588-.796.797-1.461.776-2.452-.003-.04-.003-.083-.005-.124l.29.252a3.655 3.655 0 0 0 2.845.889c1.087-.126 2.06-.71 2.74-1.65a4.605 4.605 0 0 0 .837-3.1 3.63 3.63 0 0 0 1.975.323c1.087-.128 2.06-.713 2.738-1.652.855-1.178 1.054-2.697.65-4.013.238.019.478.014.72-.012a3.78 3.78 0 0 0 1.521-.523 4.094 4.094 0 0 0 1.218-1.128c.7-.968.96-2.163.809-3.287zm-43.79-2.366l-2.018-1.676-.524-.434-.524-.435a1.311 1.311 0 0 1-.63.358h-.002a1.26 1.26 0 0 1-1.082-.23l-2.186-1.68a.715.715 0 0 0 .18.233l2.886 2.393.68.563 2.138 1.775.531.442.537.442.54-.432.544-.433-.536-.444-.534-.442zM32.546 69l-.532-.442-.531.442-.534.44.531.442.534.442.534-.44.532-.442-.534-.442zm27.609-2.589l-5.59-4.602" stroke="#fff"/><path d="M60.712 66.797a.566.566 0 0 1-.094.11.663.663 0 0 1-.463.185.692.692 0 0 1-.423-.147c0-.003-.007-.005-.01-.007l-.011-.012-5.577-4.591a.678.678 0 1 1 .861-1.05l5.592 4.602s.01.007.012.01a.68.68 0 0 1 .114.9z" fill="#fff" stroke="#fff"/><path d="M54.603 70.841l-4.29-3.704" stroke="#fff"/><path d="M55.118 71.284c-.016.02-.033.036-.05.052a.677.677 0 0 1-.908.02l-4.291-3.703a.682.682 0 0 1-.072-.96.677.677 0 0 1 .957-.071l4.293 3.704a.679.679 0 0 1 .072.958z" fill="#fff" stroke="#fff"/><path d="M47.878 74.254l-.962-.953" stroke="#fff"/><path d="M48.392 74.697a.41.41 0 0 1-.05.052.673.673 0 0 1-.941-.012l-.022-.021-.94-.932a.678.678 0 1 1 .954-.967l.928.922.034.031a.68.68 0 0 1 .038.927zM32.409 39.738a2.793 2.793 0 0 0-.247-.682 2.723 2.723 0 0 0-.77-.929.404.404 0 0 0-.04-.028l-7.767-5.15a.675.675 0 0 0-.93.179L9.121 52.529a.678.678 0 0 0 .144.927l7.443 5.72a2.607 2.607 0 0 0 2.385.43 2.694 2.694 0 0 0 1.203-.768 2.68 2.68 0 0 0 .235-.294L31.97 42.062a2.925 2.925 0 0 0 .439-2.324zm-13.16 18.23a1.312 1.312 0 0 1-.63.36h-.002a1.26 1.26 0 0 1-1.082-.23l-2.186-1.681-4.742-3.643 12.78-18.325 6.81 4.515.382.254c.178.14.315.318.406.518a1.567 1.567 0 0 1-.133 1.55l-11.437 16.48c-.05.074-.107.143-.169.203h.003zm51.676 2.402a.667.667 0 0 1-.363.494l-.918.456h-.003l-.854.428-2.186 1.09a.685.685 0 0 1-.731-.08l-.589-.48-3.78-3.078-13.495-10.987-11.503 5.639a4.579 4.579 0 0 1-6.238-1.654l-.009-.017a4.591 4.591 0 0 1 1.645-6.254c.019-.01.035-.02.054-.029l10.02-4.728c.07-.031.138-.06.207-.088.382-.166.76-.319 1.13-.456.387-.15.766-.283 1.144-.404 2.767-.899 5.323-1.146 8.34-.858 1.186.114 2.95.392 3.98.584.291.057.526.105.669.138.007.003.014.003.019.005.365.09.586.459.496.822a.678.678 0 0 1-.822.5 7.863 7.863 0 0 0-.443-.096c-.91-.176-2.765-.48-4.028-.599-2.271-.216-4.22-.121-6.225.352-.318.074-.64.16-.964.254a16.37 16.37 0 0 0-1.006.323 26.19 26.19 0 0 0-1.939.76l-9.973 4.708a3.228 3.228 0 0 0-1.127 4.391l.01.017a3.219 3.219 0 0 0 4.395 1.14c.014-.007.029-.016.045-.023l11.914-5.84a.678.678 0 0 1 .729.081l6.776 5.518v.004l3.583 2.914.007.007 3.541 2.882.008.007 3.944 3.213 1.27-.632.62-.31.623-.313c.188.205.418.35.667.428a1.4 1.4 0 0 0 1.147-.11l.21-.12h.003zM44.102 71.429a3.66 3.66 0 0 0-2.546-1.371 3.604 3.604 0 0 0-2.708.881l-2.006 1.623-.47.378-.066.06h-.003c-.17.156-.322.32-.458.501a3.79 3.79 0 0 0-.669 1.376c-.085.325-.13.663-.128 1.01v.028c.01.88.316 1.737.861 2.414a3.7 3.7 0 0 0 2.877 1.381 3.61 3.61 0 0 0 1.728-.44.671.671 0 0 0 .095-.064l1.084-.853.546-.43.548-.43.829-.653s.016-.015.026-.022c1.559-1.354 1.765-3.773.46-5.39zm-1.34 4.35l-1.047.825-1.092.86-.807.637c-.961.497-2.153.238-2.85-.627a2.54 2.54 0 0 1-.56-1.573 2.558 2.558 0 0 1 .484-1.535c.104-.14.223-.269.353-.383l.124-.102.538-.435 1.802-1.456.019-.017a2.29 2.29 0 0 1 1.504-.57 2.318 2.318 0 0 1 1.813.882c.848 1.047.72 2.613-.284 3.495h.002zM29.843 59.128c-1.12-1.39-3.057-1.784-4.604-.94a.564.564 0 0 0-.1.066l-2.824 2.26-.541.432-.541.435-.314.25s-.014.009-.021.016c-1.56 1.355-1.768 3.774-.463 5.392a3.674 3.674 0 0 0 3.188 1.368c.258-.021.515-.07.759-.15a3.608 3.608 0 0 0 1.3-.724l1.498-1.222.537-.437.536-.437 1.113-.908s.01-.01.014-.011c.017-.017.029-.027.04-.04a3.81 3.81 0 0 0 1.156-1.9c.086-.325.13-.663.128-1.01v-.028a3.91 3.91 0 0 0-.863-2.412h.002zm-1.305 4.32l-.029.026-.007.01-1.312 1.07-.537.436-.536.438h-.003l-1.286 1.05-.016.014a2.282 2.282 0 0 1-1.71.56 2.333 2.333 0 0 1-1.608-.869c-.848-1.05-.72-2.618.287-3.5l.522-.418.541-.433.544-.432 2.553-2.044c.962-.496 2.153-.237 2.848.625.356.442.556 1 .563 1.573a2.514 2.514 0 0 1-.812 1.894h-.002z" fill="#fff" stroke="#fff"/><path d="M41.406 65.57a3.675 3.675 0 0 0-2.547-1.368 3.595 3.595 0 0 0-1.837.319 3.557 3.557 0 0 0-.883.567l-1.315 1.143-2.81 2.324-.531.442-.534.44-.9.746a3.835 3.835 0 0 0-1.186 1.898 4.052 4.052 0 0 0-.133.851c-.005.074-.005.152-.005.228.01.88.316 1.735.864 2.412a3.667 3.667 0 0 0 2.87 1.385 3.64 3.64 0 0 0 2.392-.902l.197-.172.74-.641 1.056-.915.399-.347.123-.102.537-.437 3.038-2.479c.09-.078.173-.159.251-.242.195-.2.36-.418.498-.649.834-1.368.767-3.196-.287-4.5h.003zm-5.1 7.426h-.003l-.52.452-1.82 1.58a2.292 2.292 0 0 1-3.32-.311 2.568 2.568 0 0 1-.56-1.57 2.512 2.512 0 0 1 .845-1.926l1.086-.9.534-.44.532-.442 2.623-2.17 1.326-1.152a2.29 2.29 0 0 1 1.71-.56 2.315 2.315 0 0 1 1.61.87c.85 1.054.717 2.627-.28 3.495l-3.23 2.635-.467.38-.066.06z" fill="#fff" stroke="#fff"/><path d="M36.165 61.88a3.675 3.675 0 0 0-2.546-1.369 3.618 3.618 0 0 0-2.718.889l-.194.169-.74.641-1.43 1.238-.028.026-.007.007-1.313 1.072-.536.437-.536.438h-.003l-1.286 1.05-.017.014c-.018.017-.038.033-.054.052a3.734 3.734 0 0 0-.862 1.139 3.937 3.937 0 0 0 .456 4.199 3.672 3.672 0 0 0 2.872 1.385c.524 0 1.037-.114 1.51-.333a3.684 3.684 0 0 0 .882-.57l1.315-1.14 1.087-.901.534-.44.531-.442 2.623-2.17a3.812 3.812 0 0 0 1.187-1.898c.075-.273.12-.559.133-.85.004-.077.004-.153.004-.229a3.935 3.935 0 0 0-.861-2.414h-.003zm-7.442 9.457a2.289 2.289 0 0 1-3.318-.311c-.852-1.053-.72-2.626.277-3.493l1.498-1.222.536-.437.537-.437 1.113-.908s.01-.01.014-.012l2.407-2.09a2.295 2.295 0 0 1 1.71-.561c.63.057 1.202.365 1.61.87.356.441.555 1 .56 1.572a2.507 2.507 0 0 1-.845 1.925l-2.81 2.324-.532.442-.534.44-.899.746-1.327 1.152h.003z" fill="#fff" stroke="#fff"/><path d="M28.936 64.004l-3.68 3.003" stroke="#fff"/><path d="M29.423 64.478c-.012.015-.024.024-.04.04l-.015.013-1.113.907-.536.438-.537.437-1.497 1.221a.677.677 0 0 1-.987-.142.684.684 0 0 1 .059-.846c.017-.02.036-.036.055-.053a.102.102 0 0 1 .016-.014l1.287-1.05h.002l.536-.437.537-.438 1.312-1.069.007-.007a.675.675 0 0 1 .94.083c.007.005.01.01.014.014a.68.68 0 0 1-.04.903zm50.617-8.547l-12.623-22.54a.692.692 0 0 0-.422-.326.673.673 0 0 0-.527.08l-8.423 5.212a2.746 2.746 0 0 0-1.31 1.744 2.978 2.978 0 0 0-.08.518c-.015.233-.003.468.042.699.057.335.173.66.349.964L67.5 60.551a2.916 2.916 0 0 0 2.526 1.482 2.75 2.75 0 0 0 1.364-.36l8.397-4.82a.68.68 0 0 0 .254-.922zm-9.326 4.56a1.4 1.4 0 0 1-1.147.11 1.528 1.528 0 0 1-.667-.428 1.577 1.577 0 0 1-.22-.3L60.418 45.44l-2.195-3.835a1.577 1.577 0 0 1-.169-1.176c.095-.385.333-.701.684-.906l7.841-4.85L78.527 56.01l-7.602 4.36-.211.121zm-26.618-25.35c-7.483 0-13.57-6.088-13.57-13.57C30.525 14.087 36.612 8 44.095 8c7.483 0 13.57 6.088 13.57 13.57 0 7.483-6.087 13.571-13.57 13.571zm0-26.004c-6.856 0-12.435 5.578-12.435 12.436 0 6.857 5.577 12.435 12.435 12.435 6.858 0 12.435-5.578 12.435-12.436 0-6.857-5.58-12.437-12.435-12.437v.002z" fill="#fff" stroke="#fff"/><path d="M42.585 27.653c-.612 0-1.2-.261-1.61-.72l-4.278-4.769c-.8-.892-.729-2.27.16-3.076a2.15 2.15 0 0 1 1.563-.557c.578.03 1.11.286 1.498.716l2.608 2.907 5.697-6.826a2.163 2.163 0 0 1 3.054-.27 2.187 2.187 0 0 1 .268 3.069l-7.298 8.745a2.155 2.155 0 0 1-1.622.777h-.04v.004zm-4.28-7.988c-.256 0-.501.094-.693.268a1.05 1.05 0 0 0-.077 1.474l4.278 4.769c.198.218.478.345.772.345h.018c.302-.006.584-.14.778-.373l7.298-8.745c.367-.44.31-1.099-.129-1.47a1.037 1.037 0 0 0-1.462.13l-6.532 7.824-3.479-3.877a1.03 1.03 0 0 0-.716-.343h-.056v-.002z" fill="#fff" stroke="#fff"/><defs><linearGradient id="a" x1="44.5" y1="-5.868" x2="44.5" y2="96.335" gradientUnits="userSpaceOnUse"><stop stop-color="#07E879"/><stop offset="1" stop-color="#5215F2"/></linearGradient></defs></svg>