<svg width="89" height="89" viewBox="0 0 89 89" fill="none" xmlns="http://www.w3.org/2000/svg"><circle cx="44.5" cy="44.5" r="44.5" fill="url(#a)"/><path d="M69.804 65.802l-6.907-12.934c3.799-4.384 5.9-9.91 5.9-15.707C68.802 23.844 57.904 13 44.505 13c-13.4 0-24.298 10.844-24.298 24.16 0 5.798 2.099 11.324 5.891 15.708l-6.903 12.934a1.637 1.637 0 0 0 .102 1.713c.35.511.949.777 1.572.697l8.964-1.141 4.069 8.021c.28.547.845.902 1.462.908h.02c.61 0 1.179-.336 1.468-.873l7.38-13.812c.09 0 .176.006.273.006.09 0 .18-.006.273-.006l7.379 13.813c.283.533.845.872 1.462.872h.02a1.666 1.666 0 0 0 1.462-.908l4.069-8.021 8.96 1.14a1.622 1.622 0 0 0 1.572-.696 1.623 1.623 0 0 0 .103-1.713zm-25.3-49.494c11.57 0 20.977 9.35 20.977 20.853 0 5.353-2.05 10.444-5.788 14.35-3.69 3.872-8.672 6.157-14.042 6.452l-.399.028a12.23 12.23 0 0 1-1.507-.006l-.405-.026c-5.358-.294-10.346-2.579-14.035-6.452-3.725-3.902-5.782-8.996-5.782-14.35.003-11.498 9.41-20.85 20.98-20.85zm-9.083 54.45l-3.143-6.225a1.668 1.668 0 0 0-1.482-.901c-.077 0-.145 0-.219.013l-6.942.888 4.898-9.181s.02.012.026.019c.029.019.061.035.077.06a21.4 21.4 0 0 0 1.543 1.209c.164.12.328.226.495.341.424.3.858.582 1.308.847.157.09.315.192.472.288.588.33 1.193.649 1.803.933.097.035.18.074.267.109.537.24 1.09.463 1.646.668.186.067.385.124.575.198.501.163 1.003.313 1.517.444.164.048.331.096.495.137.623.144 1.247.282 1.887.378l-5.22 9.773-.003.003zm23.005-7.113a1.671 1.671 0 0 0-1.693.888l-3.15 6.226-5.213-9.773c.63-.096 1.263-.233 1.88-.377.17-.042.331-.09.501-.131.508-.131 1.01-.288 1.511-.45.193-.074.382-.126.582-.2a25.952 25.952 0 0 0 1.632-.66c.097-.042.18-.077.267-.116a21.9 21.9 0 0 0 1.81-.933c.164-.096.321-.198.472-.288.44-.265.884-.546 1.311-.846.164-.109.328-.224.489-.342a21.11 21.11 0 0 0 1.536-1.202c.026-.026.061-.048.084-.067l.019-.02 4.91 9.182-6.948-.888v-.003z" fill="#fff"/><path d="M53.66 51.997c-.27 0-.539-.06-.79-.192l-8.37-4.322-8.382 4.322a1.686 1.686 0 0 1-1.762-.124 1.626 1.626 0 0 1-.673-1.61l1.603-9.166-6.78-6.491a1.625 1.625 0 0 1-.422-1.69 1.665 1.665 0 0 1 1.352-1.118l9.368-1.342 4.185-8.338A1.7 1.7 0 0 1 44.5 21c.644 0 1.223.361 1.499.926l4.191 8.338 9.368 1.342c.638.09 1.164.524 1.36 1.118.195.6.035 1.256-.43 1.69l-6.773 6.491 1.597 9.166a1.632 1.632 0 0 1-.667 1.61 1.69 1.69 0 0 1-.985.319v-.003zM33.294 34.385l4.968 4.76c.397.377.582.926.491 1.46l-1.174 6.721 6.142-3.172a1.717 1.717 0 0 1 1.568 0l6.142 3.172-1.174-6.721a1.627 1.627 0 0 1 .485-1.46l4.975-4.76-6.87-.98a1.713 1.713 0 0 1-1.266-.901l-3.073-6.124-3.076 6.124a1.699 1.699 0 0 1-1.261.9l-6.87.981h-.007z" fill="#fff"/><defs><linearGradient id="a" x1="44.5" y1="-5.868" x2="44.5" y2="96.335" gradientUnits="userSpaceOnUse"><stop stop-color="#07E879"/><stop offset="1" stop-color="#5215F2"/></linearGradient></defs></svg>