<svg width="81" height="90" viewBox="0 0 81 90" fill="none" xmlns="http://www.w3.org/2000/svg"><g clip-path="url(#a)"><path d="M11.653 15.35c-.611.299-1.845.665-3.676.665C2.91 16.015 0 12.534 0 8.09 0 2.8 3.706 0 8.314 0c1.786 0 2.73.342 3.338.664l-.563 3.164c-.677-.3-1.395-.572-2.636-.572-2.194 0-4.522 1.303-4.522 4.775 0 3.105 1.856 4.748 4.54 4.748 1.064 0 1.785-.209 2.618-.59l.564 3.162zm8.416-11.428c-1.366 0-2.687.619-3.36 1.612h-.041V.054l-3.435 1.189v14.295h3.435V8.861c0-.965.627-2.002 1.83-2.002 1.288 0 1.784 1.013 1.784 2.485v6.195h3.438V8.87c0-3.404-1.462-4.949-3.651-4.949zm8.831 7.106c.127 1.448 1.33 2.217 3.187 2.234 1.12.009 2.42-.317 3.288-.827l.518 2.67c-1.305.655-2.796.91-4.313.91-4.088 0-6.28-2.457-6.28-6.22 0-3.641 2.357-5.99 5.887-5.99 3.64 0 5.27 2.676 5.27 6.03 0 .354-.043.93-.082 1.193H28.9zm4.127-2.442c0-.84-.41-2.311-2-2.311-1.395 0-2.052 1.199-2.15 2.311h4.15zm7.468 6.954L36.7 4.286h3.79l2.061 7.962h.07l2.062-7.962h3.79L44.68 15.541h-4.184zm8.952-7.555c0-1.656-.052-2.737-.123-3.702h3.236l.098 2.092h.087c.566-1.656 1.653-2.285 2.77-2.348.532-.031.82.006 1.148.07v3.29c-.314-.06-.94-.133-1.378-.093-1.322.122-2.122 1.082-2.346 2.188a4.03 4.03 0 0 0-.069.781v5.275h-3.422V7.985h-.001zM68.734 9.91c0 3.688-2.225 6.104-5.83 6.104-3.606 0-5.832-2.415-5.832-6.104 0-3.69 2.226-6.105 5.832-6.105 3.605 0 5.83 2.415 5.83 6.105zm-3.56 0c0-1.832-.631-3.426-2.27-3.426-1.64 0-2.268 1.594-2.268 3.426 0 1.833.627 3.425 2.268 3.425 1.64 0 2.27-1.592 2.27-3.425zm5.087-2.04c0-1.404-.051-2.603-.124-3.588h3.236l.074 1.575h.07c.447-.732 1.633-1.935 3.483-1.935 2.265 0 3.743 1.544 3.743 4.858v6.758H77.31V9.297c0-1.448-.497-2.439-1.739-2.439-.952 0-1.543.67-1.763 1.31-.081.236-.114.555-.114.877v6.493H70.26V7.87z" fill="#979797"/><path d="M.123 45.376V18.53l40.314 13.423L.123 45.376z" fill="url(#b)"/><path d="M.133 45.378L40.437 58.8 80.74 45.378V18.535l-40.303 13.42L.133 45.378z" fill="url(#c)"/><path d="M.125 76.58L.122 49.726l40.312 13.422L.125 76.579z" fill="url(#d)"/><path d="M80.742 49.727L40.425 63.145.129 76.575l40.304 13.424L80.742 76.57V49.727z" fill="url(#e)"/></g><defs><linearGradient id="b" x1="40.437" y1="31.953" x2="15.669" y2="-5.243" gradientUnits="userSpaceOnUse"><stop stop-color="#979797"/><stop offset=".55" stop-color="#D9D9D9"/><stop offset=".9" stop-color="#D9D9D9"/></linearGradient><linearGradient id="c" x1=".133" y1="42.694" x2="27.53" y2="-31.351" gradientUnits="userSpaceOnUse"><stop stop-color="#979797"/><stop offset=".05" stop-color="#D9D9D9"/><stop offset=".45" stop-color="#D9D9D9"/><stop offset=".6" stop-color="#979797"/></linearGradient><linearGradient id="d" x1="40.434" y1="63.153" x2="10.166" y2="35.89" gradientUnits="userSpaceOnUse"><stop stop-color="#979797"/><stop offset=".4" stop-color="#979797"/><stop offset=".6" stop-color="#D9D9D9"/></linearGradient><linearGradient id="e" x1=".129" y1="73.89" x2="27.536" y2="-.168" gradientUnits="userSpaceOnUse"><stop stop-color="#979797"/><stop offset=".13" stop-color="#D9D9D9"/><stop offset=".45" stop-color="#D9D9D9"/><stop offset=".6" stop-color="#979797"/></linearGradient><clipPath id="a"><path fill="#fff" d="M0 0h80.743v90H0z"/></clipPath></defs></svg>