<svg width="19" height="22" viewBox="0 0 19 22" fill="none" xmlns="http://www.w3.org/2000/svg"><path d="M17.636 1.33h-5.42c0-.729-.608-1.33-1.353-1.33H8.147C7.397 0 6.79.601 6.79 1.33H1.357C.609 1.33 0 1.928 0 2.668 0 3.397.61 4 1.357 4h16.279C18.386 4 19 3.397 19 2.667c0-.74-.614-1.336-1.364-1.336zm-2.612 16.774c0 .465-.403.85-.898.85-.487 0-.887-.385-.887-.85v-8.04c0-.462.4-.844.887-.844.495 0 .898.382.898.843v8.041zm-4.621 0c0 .465-.414.85-.898.85-.492 0-.898-.385-.898-.85v-8.04c0-.462.406-.844.898-.844.484 0 .898.382.898.843v8.041zm-4.639 0c0 .465-.396.85-.9.85-.49 0-.88-.385-.88-.85v-8.04c0-.462.39-.844.88-.844.504 0 .9.382.9.843v8.041zM1 6v12.993C1 20.658 2.429 22 4.192 22h10.623C16.573 22 18 20.658 18 18.993V6H1z" fill="#CECECE"/></svg>