<svg width="16" height="21" viewBox="0 0 16 21" fill="none" xmlns="http://www.w3.org/2000/svg"><path d="M14.39 1.427L12.663.44c-1.513-.855-3.44-.426-4.293.962L5 6.908 12.228 11l3.374-5.51c.842-1.387.306-3.211-1.213-4.063zM5.65 16.572a1.138 1.138 0 0 0-.408-1.501c-.523-.325-1.17-.163-1.453.36-.2.338-.182.757.01 1.081l-2.252 3.83L.028 14.29c-.104-.379.088-.79.424-.939l2.878-1.266c.328-.14.86-.102 1.182.095l3.492 2.159c.323.192.616.665.656 1.033l.335 3.251a.802.802 0 0 1-.575.847L2.62 21l2.112-3.909a1 1 0 0 0 .919-.52z" fill="#CECECE"/></svg>