<svg width="23" height="23" viewBox="0 0 23 23" fill="none" xmlns="http://www.w3.org/2000/svg"><path d="M22.93 8.898a1.436 1.436 0 0 0-1.143-.973l-6.085-.966L12.795.824A1.415 1.415 0 0 0 11.5 0c-.554 0-1.069.317-1.303.824L7.29 6.96l-6.075.966a1.42 1.42 0 0 0-1.144.973A1.21 1.21 0 0 0 0 9.34c0 .383.149.751.419 1.016l4.486 4.49-1.289 6.443a1.451 1.451 0 0 0 .567 1.437c.248.181.545.275.845.275.245 0 .482-.058.704-.181l5.77-3.21 5.761 3.21a1.456 1.456 0 0 0 1.556-.094 1.43 1.43 0 0 0 .555-1.437l-1.284-6.442 4.494-4.49a1.441 1.441 0 0 0 .345-1.458z" fill="#2E2D2D"/><path d="M15.624 7.452l-.26-.041-.114-.238-2.907-6.135-.002-.004a.915.915 0 0 0-.84-.534c-.366 0-.7.21-.85.534l-.002.004-2.907 6.135-.113.238-.26.041-6.074.966a.922.922 0 0 0-.748.63l-.004.014-.005.014a.731.731 0 0 0-.038.263c0 .255.1.493.269.66l.003.003 4.486 4.49.19.19-.053.262-1.288 6.44a.952.952 0 0 0 .372.938.929.929 0 0 0 .55.178.933.933 0 0 0 .46-.119l5.77-3.21.242-.135.244.136 5.762 3.21.003.002a.956.956 0 0 0 1.015-.063.929.929 0 0 0 .36-.926l-.002-.01-1.283-6.442-.052-.262.189-.189 4.493-4.49a.941.941 0 0 0 .223-.951.936.936 0 0 0-.745-.633h-.002l-6.082-.966z" stroke="#FFC702" stroke-opacity=".43"/></svg>