<svg width="22" height="22" viewBox="0 0 22 22" fill="none" xmlns="http://www.w3.org/2000/svg"><path d="M21.371 3.008a.829.829 0 0 0-1.172-.002l-9.947 9.921-3.59-3.898a.83.83 0 0 0-1.22 1.123l4.174 4.533a.828.828 0 0 0 .592.267h.018a.83.83 0 0 0 .585-.242L21.37 4.18a.83.83 0 0 0 .002-1.172z" fill="#FFC702"/><path d="M21.17 10.17a.83.83 0 0 0-.828.83c0 5.151-4.19 9.342-9.342 9.342-5.15 0-9.342-4.19-9.342-9.342 0-5.15 4.191-9.342 9.342-9.342A.83.83 0 1 0 11 0C4.935 0 0 4.935 0 11s4.935 11 11 11 11-4.935 11-11a.83.83 0 0 0-.83-.83z" fill="#FFC702"/></svg>