<svg width="25" height="24" viewBox="0 0 25 24" fill="none" xmlns="http://www.w3.org/2000/svg"><path d="M12.14 3.757a1.231 1.231 0 0 0 .963-1.487c-.148-.667-.835-1.09-1.533-.934-.672.159-1.109.829-.952 1.495.16.662.859 1.099 1.522.926zM10.656.337l1.252-.284c1.158-.258 2.307.449 2.572 1.567l.474 4.012c.221.934-.378 1.868-1.336 2.089l-1.041.233c-.966.22-1.924-.372-2.145-1.297L9.06 2.848C8.782 1.725 9.507.607 10.656.337z" fill="#FFC700"/><path d="M1.562 18.27c0 .46.349.812.782.812h7.81c.444 0 .784-.352.784-.811 0-.445-.34-.815-.785-.815h-7.81c-.432 0-.78.37-.78.815zm0-3.265c0 .45.349.811.782.811h7.81c.444 0 .784-.361.784-.811 0-.436-.34-.815-.785-.815h-7.81c-.432 0-.78.379-.78.815zM5.63 10.92h4.367c.518 0 .94-.447.94-.992 0-.539-.422-.98-.94-.98H5.63c-.515 0-.956.441-.956.98 0 .545.441.992.956.992zm6.58 9.655h9.967V8.421h-9.968v12.155zM4.1 5h16.796C23.166 5 25 6.918 25 9.284v10.42C25 22.07 23.166 24 20.896 24H4.101C1.837 24 0 22.07 0 19.704V9.284C0 6.918 1.837 5 4.1 5z" fill="#FFC700"/><path d="M14.232 18.311l-.217-2.826c-.146-.81.807-1.485 1.83-1.485h.998c-.014.076-.017.456.248.616 0 0-.436 1.917-.248 2.54.075.249.351.906.69.9.311 0 .554-.651.62-.9.165-.629-.36-2.54-.36-2.54.082-.024.21-.145.26-.616h1.106c1.006 0 1.953.68 1.83 1.516l-.23 2.795c-.793.72-2.062.689-3.263.689-1.2 0-2.56-.016-3.264-.689zM16.994 13C15.89 13 15 12.321 15 11.507c0-.84.89-1.507 1.994-1.507S19 10.667 19 11.507C19 12.32 18.098 13 16.994 13z" fill="#FFC700"/></svg>