<svg width="31" height="31" viewBox="0 0 31 31" fill="none" xmlns="http://www.w3.org/2000/svg"><mask id="a" maskUnits="userSpaceOnUse" x="0" y="0" width="31" height="31"><path d="M24.219 0H6.78A6.781 6.781 0 0 0 0 6.781V24.22A6.781 6.781 0 0 0 6.781 31H24.22A6.781 6.781 0 0 0 31 24.219V6.78A6.781 6.781 0 0 0 24.219 0z" fill="#fff"/></mask><g mask="url(#a)"><path d="M24.219 0H6.78A6.781 6.781 0 0 0 0 6.781V24.22A6.781 6.781 0 0 0 6.781 31H24.22A6.781 6.781 0 0 0 31 24.219V6.78A6.781 6.781 0 0 0 24.219 0z" fill="#00AA87"/><path fill-rule="evenodd" clip-rule="evenodd" d="M25.036 6.833c-.538-.539-.626-1.197-.217-1.607.399-.397 1.056-.31 1.594.23.527.526.62 1.189.223 1.588-.41.409-1.074.315-1.6-.211zm-3.369-2.004l4.177 4.178.677-.679-.283-.282a1.54 1.54 0 0 0 1.174-.465c.603-.604.737-1.767-.316-2.82-.947-.947-2.142-.959-2.803-.299a1.6 1.6 0 0 0-.476 1.151L22.35 4.146l-.683.683zm.175 5.202c-.472-.472-.658-1.16-.16-1.66.501-.5 1.188-.314 1.662.159.479.48.671 1.172.171 1.673-.5.5-1.193.307-1.673-.172zm2.212-2.211c-1.07-1.07-2.328-.793-3.021-.1-.699.7-.97 1.952.1 3.022 1.069 1.069 2.333.81 3.032.11.699-.699.959-1.963-.111-3.032zm-6.665 1.284l2.742 2.742c.432.431.751.796.172 1.376-.114.114-.205.182-.457.339l.75.75c.275-.168.423-.316.52-.412 1.153-1.154.552-1.994-.057-2.603l-2.93-2.93-.739.738h-.001zm-.328 2.764l.42.42a1.33 1.33 0 0 1 .362-1.331l.058-.058.726.727c-.141.142-.688.688-.309 1.398.114.216.262.364.434.536l1.265 1.265-.682.682-2.956-2.956.682-.683zm-1.944 4.181c-.095-.14-.443-.773.108-1.324.511-.51 1.097-.174 1.256-.039l-1.364 1.363zm2.611-1.57c-.821-.821-2.037-1.412-3.122-.327-.711.71-.872 1.969.138 2.98 1.028 1.027 2.236.906 2.974.168.604-.603.826-1.369.607-2.224l-.887.295c.044.157.212.71-.278 1.2-.682.681-1.387.157-1.546.022l2.114-2.114zm-5.34 5.026c-.54-.539-.61-1.18-.2-1.589.399-.398 1.038-.328 1.577.21.527.527.603 1.172.204 1.572-.41.41-1.056.333-1.582-.194zm-2.167-.806l3.925 3.924.683-.683-1.208-1.208c.604-.01.935-.271 1.106-.442.217-.216.625-.73.469-1.558-.123-.67-.556-1.125-.715-1.285-.593-.592-1.211-.744-1.542-.779a1.602 1.602 0 0 0-1.327.462 1.526 1.526 0 0 0-.441 1.152l-.267-.266-.683.683zm2.477 3.445l-2.956-2.956-.682.681 1.356 1.356c.223.223.494.505.597.814a.86.86 0 0 1-.223.88c-.488.488-.894.219-1.206-.093l-1.74-1.74-.688.688 1.764 1.763c.518.517.808.66 1.18.701.38.042.76-.114 1.06-.415.301-.3.543-.708.604-1.25l.252.253.682-.682zm-6.307-.453a2.524 2.524 0 0 0-2.468.667c-1.009 1.008-.934 2.12-.27 2.783.668.67 1.376.613 2.272.097l.649-.377c.643-.371 1.002-.48 1.286-.196.398.398.13.95-.219 1.297-.575.576-1.172.651-1.738.507l-.288 1.057c1.046.329 1.986-.054 2.658-.727.718-.717 1.339-1.966.302-3.003-.806-.806-1.681-.451-2.474.022l-.529.315c-.534.32-.914.441-1.182.174-.443-.444.022-1.027.192-1.198.633-.633 1.253-.435 1.556-.347l.252-1.07z" fill="#fff"/></g></svg>