<svg width="145" height="154" viewBox="0 0 145 154" fill="none" xmlns="http://www.w3.org/2000/svg"><path d="M-23.487 42.474c-.745 22.353 16.771 41.078 39.124 41.824 22.354.745 41.079-16.772 41.824-39.125C58.206 22.82 40.69 4.095 18.337 3.35c-22.353-.746-41.078 16.77-41.824 39.124z" stroke="#F0F0F1" stroke-width="3" stroke-miterlimit="10"/><path d="M10.799 119.312c-.312 9.338 7.006 17.161 16.345 17.473 9.338.311 17.16-7.007 17.472-16.345.312-9.339-7.006-17.162-16.345-17.473-9.338-.312-17.16 7.006-17.472 16.345z" fill="#F0F0F1"/><path d="M69.008 120.114c9.044 12.757 26.717 15.766 39.474 6.722 12.756-9.044 15.766-26.717 6.721-39.474-9.044-12.757-26.717-15.766-39.474-6.722-12.756 9.044-15.765 26.717-6.721 39.474z" fill="#00C8D2"/><path d="M77.32 126.096c6.663 14.147 23.532 20.215 37.679 13.552 14.147-6.662 20.215-23.532 13.552-37.679-6.662-14.147-23.532-20.214-37.679-13.552-14.147 6.663-20.214 23.532-13.552 37.679z" stroke="#354456" stroke-linecap="round" stroke-linejoin="round" stroke-dasharray="5 7"/></svg>