<svg width="25" height="25" viewBox="0 0 25 25" fill="none" xmlns="http://www.w3.org/2000/svg"><circle cx="12.5" cy="12.5" r="11.5" stroke="url(#a)"/><path d="M11.808 10.338c1.66-.138 2.767-.864 3.113-1.21 1.522.484 2.018 1.758 2.075 2.335.03.201.07 1.28 0 3.977-.069 2.698-2.334 3.949-3.458 4.237 0 0-.52.519-1.081.519-.562 0-1.08-.52-1.08-.52-.52-.172-.26-.082-1.039-.518-1.729-.968-2.334-2.248-2.334-3.718v-3.2c.432-1.729 1.73-1.729 3.804-1.902z" stroke="url(#b)"/><path d="M16.996 13.797c.52-1.153 1.574-3.908.951-5.707-.622-1.798-1.93-1.902-2.507-1.73-.115-.547-.865-1.66-2.94-1.729-2.594-.086-4.41 1.211-5.36 3.632-.952 2.421.69 5.102.864 5.534" stroke="url(#c)"/><path d="M7.225 12.414c-.317.028-.83.345-.346 1.383.606 1.297.779 1.902 1.125 1.643" stroke="url(#d)"/><path d="M17.662 12.414c.317.028.83.345.346 1.383-.605 1.297-.778 1.902-1.124 1.643" stroke="url(#e)"/><defs><linearGradient id="a" x1="22.13" y1="-25.45" x2="-18.83" y2="-17.031" gradientUnits="userSpaceOnUse"><stop stop-color="#39AE4B"/><stop offset="1" stop-color="#6AEA86"/></linearGradient><linearGradient id="b" x1="16.3" y1="-3.6" x2="-.003" y2="-.866" gradientUnits="userSpaceOnUse"><stop stop-color="#39AE4B"/><stop offset="1" stop-color="#6AEA86"/></linearGradient><linearGradient id="c" x1="17.22" y1="-5.917" x2="-2.48" y2="-.93" gradientUnits="userSpaceOnUse"><stop stop-color="#39AE4B"/><stop offset="1" stop-color="#6AEA86"/></linearGradient><linearGradient id="d" x1="7.896" y1="8.866" x2="5.459" y2="9.08" gradientUnits="userSpaceOnUse"><stop stop-color="#39AE4B"/><stop offset="1" stop-color="#6AEA86"/></linearGradient><linearGradient id="e" x1="16.992" y1="8.866" x2="19.428" y2="9.08" gradientUnits="userSpaceOnUse"><stop stop-color="#39AE4B"/><stop offset="1" stop-color="#6AEA86"/></linearGradient></defs></svg>