<svg width="318" height="230" viewBox="0 0 318 230" fill="none" xmlns="http://www.w3.org/2000/svg"><path fill-rule="evenodd" clip-rule="evenodd" d="M367.656 9.113c6.916 34.14-9.456 131.085-130.269 245.739-2.446 16.559-8.264 52.143-11.965 62.003-4.627 12.324-53.167 55.475-57.786 51.626-3.695-3.078-17.179-46.201-23.459-67.377-6.675 2.057-23.723 4.94-38.507.017l-25.042 25.042-37.791-37.791 25.041-25.042c-4.922-14.785-2.039-31.832.018-38.508-21.176-6.28-64.299-19.763-67.378-23.458-3.848-4.62 39.303-53.159 51.627-57.786 9.86-3.701 45.444-9.519 62.003-11.965C228.802 10.8 325.747-5.572 359.887 1.344c2.254.199 6.962 2.031 7.769 7.769zm-86.667 105.24c-7.343 7.342-19.319 7.272-26.749-.159-7.431-7.43-7.502-19.406-.159-26.75 7.343-7.342 19.319-7.271 26.75.16 7.43 7.43 7.501 19.406.158 26.749zm-41.786 41.786c-7.343 7.343-19.319 7.272-26.75-.159-7.43-7.43-7.501-19.406-.158-26.749s19.319-7.272 26.75.158c7.43 7.431 7.501 19.407.158 26.75zM173.2 195.234c7.43 7.43 19.406 7.501 26.749.158s7.272-19.319-.158-26.749c-7.43-7.431-19.406-7.501-26.749-.158-7.343 7.342-7.273 19.319.158 26.749z" fill="#F8F8F8"/></svg>