<svg width="295" height="194" viewBox="0 0 295 194" fill="none" xmlns="http://www.w3.org/2000/svg"><path d="M327.211 222.281v-111.14h-92.88l38.345 52.097-29.824 21.707c-36.357-50.361-56.807-78.725-61.352-85.092-4.545 6.367-24.995 34.731-61.352 85.092l-29.824-21.707 38.345-52.097h-92.88v111.14H327.21zm0 92.039v-36.468H35.789v36.468H327.21zM139.746 42.546c-3.408-4.052-7.669-6.078-12.781-6.078-5.113 0-9.373 2.026-12.782 6.078-3.408 3.473-5.113 7.815-5.113 13.024 0 5.21 1.705 9.551 5.113 13.025 3.409 3.473 7.669 5.21 12.782 5.21 5.112 0 9.373-1.737 12.781-5.21 3.409-3.474 5.113-7.815 5.113-13.025s-1.704-9.55-5.113-13.024zm109.071 0c-3.409-4.052-7.669-6.078-12.782-6.078-5.112 0-9.373 2.026-12.781 6.078-3.409 3.473-5.113 7.815-5.113 13.024 0 5.21 1.704 9.551 5.113 13.025 3.408 3.473 7.669 5.21 12.781 5.21 5.113 0 9.373-1.737 12.782-5.21 3.408-3.474 5.113-7.815 5.113-13.025s-1.705-9.55-5.113-13.024zm78.394 31.258c10.226 0 18.747 3.763 25.564 11.288C359.592 92.038 363 100.721 363 111.141V314.32c0 10.419-3.408 19.392-10.225 26.917-6.817 6.946-15.338 10.419-25.564 10.419H35.789c-10.226 0-18.747-3.473-25.564-10.419C3.408 333.712 0 324.739 0 314.32V111.141c0-10.42 3.408-19.103 10.225-26.049 6.817-7.525 15.338-11.288 25.564-11.288h40.049C73.566 65.7 72.43 59.622 72.43 55.57c0-15.05 5.396-28.074 16.19-39.073C99.413 5.5 112.195 0 126.965 0c18.746 0 33.8 8.104 45.162 24.312l9.373 13.024 9.373-13.024c3.977-6.946 10.51-12.735 19.599-17.366C219.561 2.316 228.082 0 236.035 0c14.77 0 27.552 5.5 38.345 16.497 10.794 10.999 16.19 24.023 16.19 39.073 0 4.052-1.136 10.13-3.408 18.234h40.049z" fill="#F8F8F8"/></svg>