<svg width="173" height="154" viewBox="0 0 173 154" fill="none" xmlns="http://www.w3.org/2000/svg"><path d="M4.376 42.474c-.745 22.353 16.771 41.078 39.125 41.824 22.353.745 41.078-16.772 41.823-39.125C86.07 22.82 68.553 4.095 46.2 3.35 23.847 2.604 5.122 20.12 4.376 42.474z" stroke="#F0F0F1" stroke-width="3" stroke-miterlimit="10"/><path d="M38.661 119.312c-.31 9.338 7.007 17.161 16.346 17.473 9.338.311 17.16-7.007 17.472-16.345.311-9.339-7.006-17.162-16.345-17.473-9.338-.312-17.161 7.006-17.473 16.345z" fill="#F0F0F1"/><path d="M96.87 120.114c9.045 12.757 26.718 15.766 39.475 6.722 12.756-9.044 15.766-26.717 6.721-39.474-9.044-12.757-26.717-15.766-39.473-6.722-12.757 9.044-15.767 26.717-6.722 39.474z" fill="#00C8D2"/><path d="M105.183 126.096c6.663 14.147 23.532 20.215 37.679 13.552 14.147-6.662 20.215-23.532 13.552-37.679-6.662-14.147-23.532-20.214-37.679-13.552-14.147 6.663-20.214 23.532-13.552 37.679z" stroke="#354456" stroke-linecap="round" stroke-linejoin="round" stroke-dasharray="5 7"/></svg>