<svg width="314" height="156" viewBox="0 0 314 156" fill="none" xmlns="http://www.w3.org/2000/svg"><path d="M416.354 32.459c0 17.926-46.503 32.458-103.868 32.458-57.364 0-103.867-14.532-103.867-32.458C208.619 14.532 255.122 0 312.486 0c57.365 0 103.868 14.532 103.868 32.459z" fill="#F8F8F8"/><path d="M312.486 77.9c57.364 0 103.867-14.531 103.867-32.458V71.41c0 17.926-46.503 32.459-103.867 32.459-57.365 0-103.868-14.532-103.868-32.459V45.442c0 17.927 46.503 32.459 103.868 32.459z" fill="#F8F8F8"/><path d="M312.486 116.851c57.364 0 103.867-14.532 103.867-32.459v25.967c0 17.927-46.503 32.459-103.867 32.459-57.365 0-103.868-14.532-103.868-32.459V84.392c0 17.927 46.503 32.459 103.868 32.459z" fill="#F8F8F8"/><path d="M312.486 155.801c57.364 0 103.867-14.532 103.867-32.458v25.967c0 17.926-46.503 32.458-103.867 32.458-57.365 0-103.868-14.532-103.868-32.458v-25.967c0 17.926 46.503 32.458 103.868 32.458z" fill="#F8F8F8"/><path d="M312.486 194.752c57.364 0 103.867-14.532 103.867-32.459v25.967c0 17.927-46.503 32.459-103.867 32.459-57.365 0-103.868-14.532-103.868-32.459v-25.967c0 17.927 46.503 32.459 103.868 32.459zm-103.868-84.393c0 17.927-46.503 32.459-103.868 32.459-57.364 0-103.867-14.533-103.867-32.459C.883 92.433 47.386 77.9 104.75 77.9c57.365 0 103.868 14.533 103.868 32.459z" fill="#F8F8F8"/><path d="M104.75 155.801c57.365 0 103.868-14.532 103.868-32.458v25.967c0 17.926-46.503 32.458-103.868 32.458-57.364 0-103.867-14.532-103.867-32.459v-25.967c0 17.927 46.503 32.459 103.867 32.459z" fill="#F8F8F8"/><path d="M104.75 194.751c57.365 0 103.868-14.531 103.868-32.458v25.967c0 17.927-46.503 32.458-103.868 32.458C47.386 220.718.883 206.186.883 188.26v-25.967c0 17.926 46.503 32.458 103.867 32.458z" fill="#F8F8F8"/></svg>