<svg width="52" height="20" viewBox="0 0 52 20" fill="none" xmlns="http://www.w3.org/2000/svg"><g opacity=".5" fill-rule="evenodd" clip-rule="evenodd" fill="#fff"><path d="M46.65 9.093c-.244-.118-.542-.177-.894-.177-.974 0-1.46.782-1.46 2.347v2.057h-1.75V7.427h1.75v1.427c.142-.514.371-.9.686-1.162.314-.26.64-.39.975-.39.386 0 .722.071 1.007.213l-.315 1.578zm-4.651 1.868h-4.304a.95.95 0 0 0 .496.731c.29.169.607.253.951.253.57 0 .998-.185 1.284-.555l1.271.87c-.537.8-1.431 1.198-2.681 1.198-.864 0-1.591-.288-2.184-.864-.591-.576-.888-1.318-.888-2.226 0-.91.297-1.646.888-2.209.593-.563 1.32-.844 2.184-.844.856 0 1.571.287 2.147.863.574.576.862 1.324.862 2.24 0 .16-.008.34-.026.543zm-7.614 2.37l-1.964-2.333v2.334h-1.738V4.235h1.738v4.82l1.397-1.615h2.228l-2.443 2.6 2.933 3.292h-2.151zm-5.344-.75c-.592.568-1.316.853-2.172.853-.856 0-1.578-.285-2.165-.852-.587-.568-.881-1.306-.881-2.214 0-.91.294-1.645.881-2.21.587-.561 1.31-.843 2.165-.843.856 0 1.58.282 2.172.844.59.564.887 1.3.887 2.209 0 .908-.296 1.646-.887 2.213zM22.954 5.99c-.21.202-.466.303-.768.303-.301 0-.56-.1-.774-.303a.967.967 0 0 1-.32-.732c0-.285.106-.527.32-.726.214-.196.473-.295.774-.295.302 0 .558.1.768.295.21.199.315.441.315.726 0 .287-.105.53-.315.732zm.114 7.748c0 .824-.173 1.456-.517 1.898-.344.442-.915.662-1.711.662h-1.07v-1.59h.768c.528 0 .784-.31.767-.933V7.44h1.763v6.297zM19 13.333h-1.737V5.182H19V7.44h1.343v1.52H19v4.373zm-2.67-4.227c-.243-.118-.54-.177-.893-.177-.973 0-1.46.783-1.46 2.347v2.057h-1.749V7.44h1.75v1.427c.141-.514.37-.9.685-1.162.315-.26.64-.39.975-.39.386 0 .723.07 1.008.214l-.316 1.577zm-5.014 4.226H9.579v-.67c-.168.254-.426.447-.774.582-.348.135-.66.203-.937.203-.79 0-1.486-.284-2.09-.853-.604-.568-.907-1.307-.907-2.214 0-.908.303-1.646.906-2.214.605-.569 1.301-.852 2.09-.852.278 0 .581.059.913.177.33.117.597.319.799.606V7.44h1.738v5.891zM0 19.952h51.925V0H0v19.952z"/><path d="M26.87 9.03c-.37 0-.683.126-.939.378-.256.253-.383.572-.383.96 0 .403.127.73.383.977.256.248.569.372.938.372.378 0 .695-.124.95-.372.256-.247.384-.574.384-.977 0-.388-.13-.707-.39-.96a1.307 1.307 0 0 0-.944-.379zm12.958.082a1.375 1.375 0 0 0-.8-.26c-.285 0-.557.085-.818.253-.26.169-.423.42-.49.757h2.543c-.042-.328-.188-.579-.435-.75zM8.155 8.979a1.5 1.5 0 0 0-1.025.397 1.284 1.284 0 0 0-.447 1.003c0 .404.149.739.447 1.003.298.265.64.398 1.025.398.378 0 .71-.129.995-.386.285-.255.428-.594.428-1.015 0-.42-.143-.76-.428-1.015a1.443 1.443 0 0 0-.995-.385z"/></g></svg>