<svg width="40" height="40" viewBox="0 0 40 40" fill="none" xmlns="http://www.w3.org/2000/svg"><path fill-rule="evenodd" clip-rule="evenodd" d="M20 40c11.046 0 20-8.954 20-20S31.046 0 20 0 0 8.954 0 20s8.954 20 20 20zm-3.667-10.833c.487 0 .71-.217.978-.478l.022-.022 2.403-2.336 4.997 3.692c.92.508 1.584.245 1.813-.854l3.28-15.46c.337-1.347-.512-1.958-1.392-1.558L9.169 19.579c-1.315.528-1.308 1.261-.24 1.588l4.944 1.543 11.445-7.22c.54-.328 1.037-.152.63.21l-9.274 8.368-.34 5.099z" fill="#3C3C3C"/></svg>