<svg width="468" height="352" viewBox="0 0 468 352" fill="none" xmlns="http://www.w3.org/2000/svg"><mask id="a" style="mask-type:alpha" maskUnits="userSpaceOnUse" x="0" y="0" width="468" height="352"><path fill="#F1F3F2" stroke="#CECFD2" d="M.5.5h467v351H.5z"/></mask><g mask="url(#a)"><path d="M-14 146.957C-7.336 116.45.018 66.787 54.475 10.927c79.47-81.518 208.923 5.501 308.886 36.508 99.963 31.007 69.474 15.003 142.447 6.501 72.973-8.502 92.966 14.503 129.952 41.01 36.987 26.505 48.482 60.513 56.979 95.52 8.497 35.008-191.929 147.032-405.35 146.532-58.479-18.504 64.976-146.532 11.995-146.532-52.98 0-72.973 70.516-132.951 82.518-47.982 9.602-133.284-7.001-169.937-16.503" stroke="#318959" stroke-opacity=".4" stroke-dasharray="10 10"/></g></svg>