<svg width="146" height="38" viewBox="0 0 146 38" fill="none" xmlns="http://www.w3.org/2000/svg"><g clip-path="url(#a)" fill="#fff"><path d="M34.283 22.59c0 5.872 3.617 9.387 8.992 9.387 2.68 0 4.935-.747 6.194-2.71v2.71h4.906V4.006H49.28v11.891c-1.157-1.962-3.295-2.84-5.975-2.84-5.243-.016-9.02 3.572-9.02 9.533zm15.157 0c0 3.353-2.284 5.447-5.023 5.447-2.84 0-5.023-2.094-5.023-5.447 0-3.413 2.197-5.55 5.023-5.55 2.739 0 5.023 2.167 5.023 5.55zm20.794 2.168c-.585 2.167-2.065 3.25-4.393 3.25-2.71 0-4.935-1.64-4.994-4.54H73.69a10.49 10.49 0 0 0 .235-2.313c0-5.199-3.544-8.128-8.772-8.128-5.58 0-9.417 3.969-9.417 9.358 0 6.004 4.233 9.607 10.09 9.607 4.423 0 7.425-1.845 8.743-5.521l-4.335-1.713zm-9.387-4.687c.483-2.094 2.226-3.324 4.32-3.324 2.285 0 3.837 1.23 3.837 3.163l-.03.161h-8.127zm28.293 4.687c-.585 2.167-2.064 3.25-4.393 3.25-2.709 0-4.935-1.64-4.993-4.54h12.843c.16-.717.234-1.478.234-2.313 0-5.199-3.544-8.128-8.772-8.128-5.58 0-9.416 3.969-9.416 9.358 0 6.004 4.232 9.607 10.09 9.607 4.422 0 7.424-1.845 8.742-5.521l-4.334-1.713zm-9.386-4.687c.483-2.094 2.225-3.324 4.32-3.324 2.284 0 3.836 1.23 3.836 3.163l-.029.161h-8.127zm31.061 11.934v-4.613H100.11l10.412-10.133V13.04H94.047v4.393h10.06L93.725 27.612v4.393h17.09zm14.892-7.247c-.586 2.167-2.065 3.25-4.393 3.25-2.71 0-4.936-1.64-4.994-4.54h12.843c.161-.717.234-1.478.234-2.313 0-5.199-3.544-8.128-8.772-8.128-5.579 0-9.416 3.969-9.416 9.358 0 6.004 4.232 9.607 10.09 9.607 4.423 0 7.425-1.845 8.743-5.521l-4.335-1.713zm-9.387-4.687c.483-2.094 2.226-3.324 4.32-3.324 2.284 0 3.837 1.23 3.837 3.163l-.03.161h-8.127zm-87.266-7.03h-6.282v3.676h6.282V13.04zm0 5.096h-6.282v3.675h6.282v-3.675zm0 5.097h-6.282v3.676h6.282v-3.676zM6.282 28.33H0v3.676h6.282V28.33zm7.586 0H7.586v3.676h6.282V28.33zm7.6 0h-6.283v3.676h6.283V28.33zm7.586 0h-6.282v3.676h6.282V28.33zm-7.586-5.096h-6.283v3.676h6.283v-3.676zm-7.6 0H7.586v3.676h6.282v-3.676zm0-5.097H7.586v3.675h6.282v-3.675zm127.612 1.45v.542h4.964v-1.45c0-3.25-2.036-5.609-5.448-5.609-2.196 0-3.749 1.07-4.554 2.841v-2.84h-5.126v18.934h5.126V19.807c0-1.933 1.04-3.002 2.636-3.002 1.464.014 2.402 1.39 2.402 2.782z"/></g><defs><clipPath id="a"><path fill="#fff" d="M0 0h146v38H0z"/></clipPath></defs></svg>