<svg width="196" height="57" viewBox="0 0 196 57" fill="none" xmlns="http://www.w3.org/2000/svg"><g clip-path="url(#a)" fill="#fff"><path d="M20.807 17.21c-14.085 8.534-4.103 30.432 11.447 25.146 13.058-3.692 12.218-23.88-.872-25.89 3.831 1.594 6.788 4.102 8.807 7.94-4.9-1.835-6.955.46-11.137-4.627a26.716 26.716 0 0 1-3.29-5.313c-.339-.718-.297-.785.506-.736 1.752.084 3.472-.228 5.204-.39 4.753-.684 10.001 2.19 10.29 7.356.1 1.892.867 3.476 1.431 5.308 1.32-3.246 1.47-6.66 4.427-9.143-2.014 1.07-3.342 3.923-3.996 6.13-.086.708-.517.664-.68 0-2.297-5.134 2.728-9.476 7.807-9.111.427 0 .686.049.439.571-.49 1.035-.66 2.158-.867 3.266-.67 5.242-5.312 5.394-6.696 10.233.27 20.401-28.42 23.046-31.233 2.727-.698-5.149 3.288-12.259 8.423-13.485"/><path d="M12.653 14.12a.613.613 0 0 1 .245.518.61.61 0 0 1 .392-.385.614.614 0 0 1 .603.13 1.576 1.576 0 0 1 .49 1.47c-.061.491-.245 2.03-.41 3.247 2.997-4.43 8.216-7.473 15.57-7.034.966.125 1.941.147 2.911.066 3.795-.059 7.524 1.697 9.242 5.127a7.43 7.43 0 0 1 2.222-2.634A20.968 20.968 0 0 0 28.2 7.761a22.515 22.515 0 0 0-15.548 6.36z"/><path d="M48.735 22.99c-1.257 1.226-2.795 2.013-3.618 3.732 1.825 9.949-6.914 19.567-16.967 19.415-11.586-.275-17.189-8.67-17.162-17.064.127-.114.24-.244.333-.387 1.755-2.476 1.333-6.151 1.928-9.072l.54-4.297a.98.98 0 0 0-.314-.932c-.765 3.678-1.47 7.299-2.205 10.979-.05.613-.75.473-.571-.108.478-3.68 1.325-7.41 1.595-11.092-1.206 3.457-1.715 7.275-2.695 10.852-.054.23-.11.465-.431.39-.321-.077-.265-.292-.223-.518.536-3.678 1.511-7.37 1.81-11.033-1.225 3.494-1.879 7.262-2.91 10.847-.062.556-.748.424-.566-.11.764-3.678 1.529-7.334 2.29-11.009a.898.898 0 0 0-.61.638c-.896 3.086-1.78 6.185-2.677 9.28-.525 1.662-.939 3.777.208 5.246-.64 15.446 17.086 26.567 30.843 19.56 9.381-4.217 14.494-15.485 11.402-25.317zm.23 21.468l.14.309a1.406 1.406 0 0 0-.825.49c-.307.36-.297.635-.116.79.512.431 1.26-1.109 2.036-.452.324.273.385.758-.078 1.307-.196.241-.459.42-.755.515l-.154-.3c.254-.08.48-.229.654-.43.301-.356.28-.633.098-.788-.51-.431-1.262 1.106-2.029.456-.32-.272-.377-.76.089-1.314.236-.297.569-.503.94-.583zm-3.05 6.47l-1.773-2.09.298-.244.792.931 1.198-1.02-.789-.931.297-.245 1.773 2.088-.299.246-.762-.9-1.198 1.008.762.897-.299.26zm-4.788.689l1.255-.736-.086-.735.348-.204.316 2.991-.333.199-2.45-1.733.355-.209.595.427zm.277.198l1.188.86-.169-1.458-1.019.598zm-4.358 2.79c-.21-.556.064-1.047.735-1.297l.632-.245-.291-.775.365-.14.958 2.565-.998.378c-.661.252-1.19.073-1.4-.486zm.365-.14c.14.366.463.49.931.305l.62-.246-.434-1.15-.622.246c-.468.179-.634.48-.495.846zm-4.827-.255l-.068-.33 1.945-.4.546 2.697-1.891.385-.069-.334 1.497-.328-.169-.824-1.342.275-.067-.324 1.343-.275-.176-.867-1.549.326zm-7.222-.188l-.147 1.99 1.113-1.583.178.012.863 1.716.15-1.98.374.029-.208 2.74-.319-.024-.994-2.003-1.267 1.837-.32-.025.203-2.734.374.025zm-4.606-.628l.086-.328 1.923.502-.693 2.653-1.87-.49.086-.329 1.492.39.213-.814-1.33-.348.086-.321 1.328.345.222-.855-1.543-.405zm-1.811-.757a.261.261 0 0 1-.483-.004.263.263 0 1 1 .506-.099.26.26 0 0 1-.023.103zm-2.246-.905l-.275.196a1.417 1.417 0 0 0-.634-.718c-.414-.23-.681-.167-.796.041-.326.584 1.328 1.023.833 1.913-.206.367-.667.522-1.296.171a1.622 1.622 0 0 1-.652-.64l.267-.21c.128.234.32.427.554.556.406.226.676.152.791-.056.326-.586-1.325-1.027-.838-1.905.204-.365.674-.517 1.306-.164.335.177.596.466.74.816zm-5.949-.952l1.61-2.206.316.23-.718.981 1.271.924.718-.98.316.23-1.612 2.207-.313-.23.688-.94-1.267-.936-.69.951-.319-.23zm-.985-3.64l1.056 1 .693-.29.294.278-2.783 1.133-.282-.265.98-2.844.3.282-.258.706zm-.115.319l-.49 1.38 1.352-.566-.862-.814zm-3.18-2.406c.458-.38 1.01-.277 1.47.273l.426.522.64-.53.245.302-2.11 1.748-.681-.824c-.45-.55-.448-1.11.01-1.49zm.245.302c-.302.245-.306.593.012.98l.426.516.946-.785-.424-.512c-.326-.39-.654-.442-.955-.197l-.005-.002zm-.745-3.651l.287-.186 1.078 1.67-2.298 1.488-1.049-1.623.287-.186.835 1.294.706-.456-.735-1.152.28-.182.734 1.153.735-.49-.86-1.33zm-2.094-2.861l.87-.375.152.355-.875.38-1.208 1.717-.167-.385.98-1.378-1.668-.248-.154-.355 2.07.29zm-1.013-1.331a1.391 1.391 0 0 1-1.754-1.005 1.406 1.406 0 0 1 .953-1.743 1.403 1.403 0 0 1 1.742.953 1.391 1.391 0 0 1-.94 1.795zm-.71-2.417a1.064 1.064 0 1 0 .6 2.04 1.064 1.064 0 0 0-.6-2.04zm-.128-1.442l-1.534.23-.056-.387 1.526-.228c.598-.09.828-.405.755-.892-.074-.488-.385-.736-.98-.635l-1.524.227-.057-.375 1.539-.245c.786-.117 1.264.245 1.372.966.108.721-.257 1.221-1.041 1.339zm.695-5.409l-.829.61v.173l.015.674.833-.017v.39l-2.715.06L0 29.069c-.015-.71.335-1.15.928-1.162a.862.862 0 0 1 .877.581l.904-.67.01.427zm-1.782.052c-.392 0-.608.274-.598.777l.015.665 1.225-.027-.015-.667c-.005-.5-.238-.758-.627-.748zm-.763-3.163l.054-.387 2.374.34.21-1.47.339.046-.268 1.856-2.71-.385zm1.733-2.309a1.393 1.393 0 0 1-.98-1.775 1.388 1.388 0 0 1 1.715-1.04 1.385 1.385 0 0 1 .98 1.765 1.395 1.395 0 0 1-1.715 1.05zm.652-2.435a1.063 1.063 0 0 0-1.197 1.56 1.064 1.064 0 1 0 1.197-1.56zm.38-1.189a1.395 1.395 0 0 1-.713-1.893A1.4 1.4 0 1 1 2.94 19.2zm.98-2.317a1.063 1.063 0 0 0-1.03 1.852 1.063 1.063 0 0 0 1.581-.464 1.03 1.03 0 0 0-.536-1.388H3.92zm1.269-2.01l.184.691.607.373-.198.336-2.352-1.407.198-.336 1.316.78-.561-2.07.228-.385.463 1.635 1.928-.301-.233.392-1.58.292zM6.8 10.519l-.605.718-.26-.218 1.458-1.734.26.219-.605.718 1.835 1.547-.245.297L6.8 10.519zm2.061-.824a1.398 1.398 0 0 1 .108-2.023 1.401 1.401 0 1 1 1.916 2.047 1.393 1.393 0 0 1-2.024-.024zm1.84-1.716a1.063 1.063 0 0 0-1.687 1.28 1.063 1.063 0 0 0 1.633.213 1.028 1.028 0 0 0 .054-1.5v.007zm3.445-2.026l.514.797-.325.211-.52-.802-1.881-.91.352-.225 1.52.736-.045-1.692.326-.208.059 2.093zm1.139-1.213a1.392 1.392 0 0 1 .698-1.9 1.4 1.4 0 0 1 1.977 1.72 1.403 1.403 0 0 1-.752.8 1.39 1.39 0 0 1-1.923-.62zm2.264-1.106a1.066 1.066 0 0 0-1.913.934 1.066 1.066 0 0 0 1.913-.934zm1.396-.365l-.49-1.471.37-.12.478 1.47c.188.577.539.751 1.007.6.468-.153.649-.504.46-1.08l-.49-1.47.36-.118.49 1.47c.245.756-.036 1.288-.735 1.513-.698.226-1.205-.039-1.45-.794zm5.449-.211l-.735-.716c-.054.015-.11.03-.167.04l-.666.127.157.819-.385.073-.512-2.697 1.051-.198c.698-.133 1.188.14 1.299.735a.866.866 0 0 1-.427.966l.809.782-.424.069zm-.343-1.75c-.074-.385-.373-.557-.865-.464l-.647.137.23 1.212.655-.123c.482-.108.698-.378.627-.763zM27.599.37l-.939.02V.05L28.91 0v.342l-.937.02.052 2.397h-.385L27.6.37zm3.773 1.854l-1.45-.12-.356.657-.412-.034 1.47-2.626.385.032 1.012 2.832-.417-.022-.232-.719zm-.11-.323L30.783.516l-.699 1.287 1.176.098zm1.298.849l.2-.27c.209.254.5.428.824.49.463.093.698-.047.735-.28.132-.654-1.576-.569-1.375-1.566.084-.412.49-.702 1.181-.557.31.055.597.199.826.414l-.189.282a1.435 1.435 0 0 0-.69-.367c-.457-.091-.692.06-.736.294-.132.654 1.573.573 1.375 1.56-.081.409-.49.693-1.191.55a1.612 1.612 0 0 1-.96-.55zm4.062-1.178l-.897-.28.101-.325 2.163.676-.103.32-.891-.273-.716 2.29-.37-.118.713-2.29zm3.192 3.44l-.124.311-1.82-.794 1.085-2.513 1.77.772-.136.314-1.412-.618-.338.773 1.26.549-.133.304-1.257-.55-.352.812 1.457.64zm23.381 25.371l1.343-2.982a10.04 10.04 0 0 0 5.635 1.785c2.345 0 3.295-.782 3.295-1.834 0-3.187-9.937-1.003-9.937-7.355 0-2.905 2.345-5.325 7.203-5.325 2.149 0 4.346.512 5.934 1.515l-1.225 3.006a9.63 9.63 0 0 0-4.736-1.344c-2.345 0-3.246.878-3.246 1.962 0 3.15 9.937.98 9.937 7.257 0 2.858-2.37 5.3-7.252 5.3-2.702-.005-5.437-.814-6.95-1.986zm32.599-15.427v17.101H91.83v-7.012h-7.76v7.012h-3.955v-17.1h3.957v6.741h7.762v-6.742h3.961zm15.299 13.448h-7.936l-1.511 3.663h-4.055l7.617-17.11h3.908l7.641 17.1h-4.15l-1.514-3.653zm-1.245-3.006l-2.71-6.548-2.709 6.548h5.419zm23.51-4.227c0 3.813-2.857 6.181-7.423 6.181H122.5v4.715h-3.962v-17.11h7.392c4.571 0 7.428 2.377 7.428 6.214zm-4.006 0c0-1.883-1.225-2.98-3.635-2.98H122.5v5.937h3.224c2.411 0 3.636-1.1 3.636-2.957h-.008zm20.044 7.721v3.175h-13.23v-17.11h12.916v3.186h-8.989v3.712h7.936v3.08h-7.936v3.957h9.303zm25.61 3.175l-.025-10.26-5.03 8.453h-1.783l-4.998-8.233v10.04h-3.717v-17.11h3.271l6.397 10.627 6.299-10.628h3.248l.049 17.101-3.711.01zM196 28.892v3.175h-13.23v-17.11h12.911v3.186h-8.991v3.712h7.935v3.08h-7.935v3.957H196zM64.19 41.268l.377-.839c.466.32 1.018.49 1.583.49.658 0 .926-.22.926-.514 0-.9-2.791-.282-2.791-2.067 0-.816.66-1.495 2.024-1.495a3.213 3.213 0 0 1 1.666.424l-.343.845a2.693 2.693 0 0 0-1.33-.377c-.66 0-.912.245-.912.55 0 .884 2.79.274 2.79 2.037 0 .804-.666 1.488-2.035 1.488a3.429 3.429 0 0 1-1.956-.542zm9.153-4.332v4.805h-1.112V39.78h-2.18v1.961h-1.11v-4.805h1.11v1.895h2.18v-1.895h1.112zm4.297 3.775h-2.23l-.423 1.03h-1.14l2.14-4.805h1.097l2.146 4.805h-1.166l-.424-1.03zm-.35-.843l-.762-1.841-.762 1.841h1.524zm6.602-1.189c0 1.071-.803 1.738-2.084 1.738h-.98v1.324h-1.11v-4.805h2.077c1.294 0 2.097.667 2.097 1.743zm-1.124 0c0-.527-.343-.836-1.024-.836h-.894v1.667h.904c.67 0 1.014-.309 1.014-.831zm5.627 2.17v.892H84.68v-4.805h3.626v.892H85.78v1.045h2.23v.865h-2.23v1.11h2.614zm5.126-.809v1.701h-1.11v-1.716l-1.86-3.09h1.182l1.281 2.136 1.281-2.135h1.093l-1.867 3.104zm1.823-.702c0-1.427 1.11-2.483 2.626-2.483 1.517 0 2.627 1.05 2.627 2.483 0 1.435-1.118 2.484-2.627 2.484-1.509 0-2.626-1.057-2.626-2.484zm4.128 0a1.503 1.503 0 0 0-2.575-1.016 1.503 1.503 0 0 0 1.073 2.554 1.47 1.47 0 0 0 1.5-1.538h.002zm1.919.29V36.93h1.109v2.65c0 .912.397 1.29 1.071 1.29.674 0 1.071-.378 1.071-1.29v-2.645h1.095v2.697c0 1.412-.809 2.206-2.173 2.206-1.365 0-2.173-.799-2.173-2.211zm8.501 2.113l-.926-1.338h-1.022v1.338h-1.112v-4.805h2.078c1.283 0 2.085.667 2.085 1.743a1.56 1.56 0 0 1-.98 1.518l1.078 1.544h-1.201zm-1.044-3.898h-.904v1.674h.904c.679 0 1.022-.316 1.022-.838s-.343-.836-1.022-.836zm4.962-.907h1.112v3.898h2.408v.907h-3.52v-4.805zm3.757 2.403c0-1.427 1.11-2.484 2.627-2.484 1.516 0 2.626 1.05 2.626 2.484s-1.119 2.483-2.626 2.483-2.627-1.056-2.627-2.483zm4.129 0a1.506 1.506 0 0 0-.951-1.364 1.502 1.502 0 1 0-.551 2.9 1.47 1.47 0 0 0 1.502-1.536zm1.657 0c0-1.427 1.109-2.484 2.626-2.484s2.626 1.05 2.626 2.484-1.117 2.483-2.626 2.483-2.626-1.056-2.626-2.483zm4.128 0a1.506 1.506 0 0 0-.951-1.364 1.498 1.498 0 0 0-1.625.347 1.505 1.505 0 0 0 .243 2.303 1.5 1.5 0 0 0 .831.25 1.467 1.467 0 0 0 1.407-.946 1.47 1.47 0 0 0 .095-.59zm3.707.514l-.645.672v1.226h-1.105v-4.805h1.105v2.245l2.127-2.245h1.225l-1.989 2.142 2.109 2.653h-1.296l-1.531-1.888zm6.257-2.01h-1.534v-.907h4.182v.907h-1.536v3.898h-1.112v-3.898zm2.873 1.496c0-1.427 1.11-2.484 2.627-2.484 1.516 0 2.626 1.05 2.626 2.484s-1.119 2.483-2.626 2.483-2.627-1.056-2.627-2.483zm4.129 0a1.506 1.506 0 0 0-.951-1.364 1.502 1.502 0 1 0-.551 2.9 1.47 1.47 0 0 0 1.502-1.536zm6.201.701v1.701h-1.11v-1.716l-1.859-3.09h1.181l1.281 2.136 1.284-2.135h1.09l-1.867 3.104zm1.823-.701c0-1.427 1.11-2.484 2.626-2.484 1.517 0 2.626 1.05 2.626 2.484s-1.117 2.483-2.626 2.483-2.626-1.056-2.626-2.483zm4.128 0a1.506 1.506 0 0 0-.951-1.364 1.498 1.498 0 0 0-1.624.347 1.5 1.5 0 0 0-.311 1.634 1.506 1.506 0 0 0 1.384.92 1.467 1.467 0 0 0 1.407-.947 1.47 1.47 0 0 0 .095-.59zm1.916.289V36.93h1.11v2.65c0 .912.399 1.29 1.07 1.29s1.071-.378 1.071-1.29v-2.645h1.097v2.697c0 1.412-.811 2.206-2.175 2.206-1.365 0-2.173-.799-2.173-2.211zm8.503 2.113l-.926-1.338h-1.022v1.338h-1.112v-4.805h2.078c1.283 0 2.087.667 2.087 1.743a1.559 1.559 0 0 1-.98 1.518l1.076 1.544h-1.201zm-1.044-3.898h-.904v1.674h.904c.681 0 1.024-.316 1.024-.838s-.343-.836-1.024-.836zm5.957 0h-1.537v-.907h4.185v.907h-1.536v3.898h-1.112v-3.898zm6.164 2.868h-2.229l-.424 1.03h-1.139l2.141-4.805h1.095l2.149 4.805h-1.166l-.427-1.03zm-.35-.843l-.76-1.841-.761 1.841h1.521zm2.063 1.4l.377-.839c.467.32 1.019.49 1.585.49.657 0 .926-.22.926-.514 0-.9-2.793-.282-2.793-2.067 0-.816.659-1.495 2.024-1.495a3.215 3.215 0 0 1 1.666.424l-.333.858a2.696 2.696 0 0 0-1.331-.378c-.659 0-.911.245-.911.55 0 .885 2.79.274 2.79 2.037 0 .804-.664 1.488-2.035 1.488a3.427 3.427 0 0 1-1.965-.554zm5.676-3.425h-1.536v-.907h4.182v.907h-1.536v3.898h-1.11v-3.898zm6.958 3.006v.892h-3.716v-4.805h3.628v.892h-2.523v1.045h2.227v.865h-2.227v1.11h2.611z"/></g><defs><clipPath id="a"><path fill="#fff" d="M0 0h196v56.946H0z"/></clipPath></defs></svg>