<svg width="380" height="341" viewBox="0 0 380 341" fill="none" xmlns="http://www.w3.org/2000/svg"><path d="M50.042 124.371c16.316-40.52 46.14-60.56 78.045-48.471 31.998 12.133 52.727 39.471 86.606 18.347 27.527-17.504 64.771-34.13 102.723 2.977 36.004 35.214 25.648 63.114 4.72 92.768-22.254 31.566-75.686 41.945-84.453 80.81-8.141 36.079-28.712 67.759-68.112 42.811-23.069-14.61-16.911-36.978-30.965-53.298-19.469-22.62-35.064-20.637-52.52-30.155-43.355-23.67-50.176-65.747-36.044-105.789z" fill="#91DFEB"/><g clip-path="url(#a)"><path d="M171.538 295.602c-.134-.537-.269-1.073-.537-1.743-.941-2.28-2.554-4.559-4.571-5.9-2.285-1.609-4.301-1.073-6.855-.67-2.958.402-5.915 1.474-8.738 2.413-.134-.268-.537-.134-.537.134v.268c.537 2.548.537 5.23-.404 7.777-.806 2.414-2.285 4.425-4.032 6.302-3.092 3.352-6.452 6.704-10.351 9.118-1.075-.671-2.688-.537-3.629 0-1.21.67-2.016 2.011-2.016 3.486 0 1.073.672 1.743 1.613 2.011 0 .402.134.805.269 1.207.403 1.073 1.344 2.011 2.554 2.145.403.939 1.209 1.743 2.016 1.877.672 1.207 2.016 2.146 3.495 2.146h.403v.134c.807 2.279 3.495 2.816 5.511 2.145 1.882-.67 3.361-2.145 4.571-3.888 1.075-.939 2.285-1.743 3.495-2.548 3.091-2.011 6.049-4.425 8.199-7.374 2.285-3.084 2.285-6.571 3.899-9.789.94-2.011 3.494-2.681 4.704-4.558 1.076-1.475 1.21-3.084.941-4.693z" fill="#fff"/><path d="M144.116 329.257c-1.882 0-3.495-.939-4.167-2.548-1.613-.134-3.091-.938-3.763-2.279-.807-.268-1.614-.939-2.017-1.877-1.21-.269-2.151-1.207-2.688-2.548-.135-.268-.135-.67-.269-.939-.941-.402-1.613-1.34-1.613-2.413 0-1.609.941-3.218 2.285-4.023 1.075-.67 2.823-.804 4.033-.268 3.763-2.279 6.855-5.631 9.812-8.715 1.882-2.145 3.227-4.023 3.899-6.034.806-2.145.941-4.559.403-7.24a.407.407 0 0 1 0-.537c0-.268.134-.402.269-.536a1.047 1.047 0 0 1 1.075-.268l.941-.268c2.42-.805 4.974-1.609 7.528-2.012l.672-.134c.941-.134 1.882-.268 2.823-.268 1.478 0 2.688.402 3.898 1.207 2.016 1.341 3.764 3.62 4.839 6.168.269.67.403 1.206.538 1.743.403 1.877.134 3.62-.807 5.095-.672.939-1.613 1.609-2.419 2.279-.941.671-1.748 1.207-2.151 2.146-.672 1.341-1.076 2.681-1.479 4.022-.538 2.011-1.21 4.023-2.554 5.9-2.016 2.816-4.839 5.363-8.334 7.509l-.538.268a23.803 23.803 0 0 0-2.957 2.145c-1.479 2.011-3.092 3.352-4.839 4.023-1.075.268-1.748.402-2.42.402zm-3.36-3.889l.134.537c.404 1.341 1.613 2.011 3.092 2.011.538 0 1.075-.134 1.613-.268 1.479-.537 2.957-1.743 4.301-3.62a25.15 25.15 0 0 1 3.227-2.414l.537-.268c3.361-2.145 6.049-4.559 8.066-7.241 1.209-1.743 1.747-3.486 2.419-5.497.403-1.341.807-2.816 1.613-4.291.538-1.206 1.613-1.877 2.554-2.681.807-.537 1.613-1.207 2.151-1.878.806-1.206.941-2.547.672-4.156-.134-.536-.269-1.073-.538-1.609-.941-2.28-2.554-4.425-4.301-5.632-1.613-1.206-3.361-1.072-5.646-.67l-.672.134c-2.42.402-4.974 1.207-7.393 2.011l-1.21.403c.538 2.815.403 5.363-.403 7.776-.807 2.146-2.151 4.291-4.167 6.436-3.092 3.352-6.452 6.839-10.485 9.252l-.403.268-.404-.268c-.672-.536-2.15-.402-2.957.134-1.075.671-1.613 1.743-1.613 2.816 0 .804.538 1.207 1.075 1.341l.404.134v.402c0 .402.134.671.269 1.073.403.938 1.075 1.609 2.016 1.743h.403l.135.402c.268.805.941 1.341 1.613 1.475l.268.134.135.268c.538 1.073 1.613 1.743 2.957 1.743h.538z" fill="#0E80A4"/><path d="M144.116 328.989c-1.882 0-3.361-.939-4.033-2.548h-.134c-1.613-.134-2.958-.939-3.764-2.145-.807-.268-1.613-.939-2.016-1.877-1.076-.269-2.151-1.073-2.554-2.414-.135-.402-.269-.67-.269-1.073-.941-.402-1.613-1.206-1.613-2.279 0-1.475.806-2.95 2.15-3.754.538-.403 1.345-.537 2.151-.537.672 0 1.21.134 1.748.403 3.629-2.146 6.586-5.096 10.081-8.984 1.882-2.145 3.226-4.157 3.898-6.168.807-2.279.941-4.693.404-7.509-.135-.134-.135-.268 0-.402 0-.134.134-.268.134-.402.269-.268.538-.268.807-.134.403-.134.672-.268 1.075-.402 2.42-.805 4.974-1.609 7.528-2.012.268 0 .403-.134.672-.134.941-.134 1.882-.268 2.688-.268 1.344 0 2.554.402 3.764 1.207 1.882 1.341 3.629 3.62 4.705 6.034.268.536.403 1.206.537 1.743.404 1.877.135 3.486-.806 4.961-.538.938-1.479 1.609-2.42 2.279-.941.671-1.747 1.341-2.285 2.28-.672 1.34-1.075 2.681-1.479 4.022-.537 1.877-1.209 3.889-2.554 5.766-2.016 2.681-4.839 5.229-8.334 7.508l-.537.269a23.638 23.638 0 0 0-2.958 2.145c-1.478 2.011-3.091 3.352-4.704 4.022-.672.269-1.345.403-1.882.403zm-3.63-3.352l.135.402c.537 1.341 1.747 2.145 3.36 2.145.538 0 1.21-.134 1.748-.268 1.478-.536 2.957-1.877 4.436-3.754.941-.939 2.016-1.609 3.091-2.28l.538-.268c3.361-2.145 6.183-4.693 8.065-7.24 1.345-1.744 1.882-3.621 2.42-5.498.403-1.341.806-2.816 1.479-4.156.537-1.073 1.613-1.878 2.554-2.548.806-.67 1.613-1.207 2.15-2.011.807-1.207 1.076-2.682.672-4.425-.134-.536-.268-1.073-.537-1.609-.941-2.414-2.689-4.425-4.436-5.766-1.076-.67-2.017-1.072-3.361-1.072-.806 0-1.613.134-2.554.268-.269 0-.403.134-.672.134-2.419.402-4.973 1.207-7.393 2.011a17.01 17.01 0 0 1-1.344.402h-.135c.538 2.95.404 5.498-.403 7.777-.672 2.146-2.016 4.157-4.033 6.436-3.091 3.352-6.452 6.839-10.35 9.118l-.134.134-.135-.134c-.403-.268-.941-.402-1.478-.402-.673 0-1.345.134-1.748.402-1.075.67-1.747 1.877-1.747 3.084 0 1.073.806 1.475 1.344 1.609l.269.134v.268c0 .402.134.671.269 1.073.403 1.072 1.209 1.877 2.285 1.877h.269l.134.134c.403.805 1.075 1.475 1.747 1.743h.135l.134.134c.538 1.073 1.748 1.877 3.226 2.011h.269l-.269.135z" fill="#0E80A4"/><path d="M141.428 327.513c-.403-.536-.672-1.206-.807-1.877a5.16 5.16 0 0 1 .672-3.754c1.479-2.145 4.302-2.682 6.587-2.145.134 0 .134-.134.134-.134-.941-.805-2.419-.671-3.495-.403-1.478.403-2.688 1.073-3.629 2.28-1.21 1.609-1.344 4.29-.269 6.033h.807z" fill="#0E80A4"/><path d="M142.772 318.262c-2.151-1.341-4.705.402-5.78 2.413-1.075 2.011-.403 5.229 2.151 5.363.269 0 .403-.268.134-.402-.806-.536-1.747-.804-2.016-1.877-.269-.939-.135-1.877.269-2.816.941-2.145 2.957-2.815 5.108-2.413.134 0 .269-.268.134-.268z" fill="#0E80A4"/><path d="M139.008 316.921c-1.478-1.475-3.629.134-4.301 1.609-.807 1.475-.807 4.425 1.344 4.961.269 0 .403-.268.134-.402-.537-.536-1.075-.939-1.344-1.877-.134-.805 0-1.609.269-2.28.269-.67.807-1.34 1.479-1.743.806-.402 1.478-.134 2.285 0 .134.134.134-.134.134-.268zm-3.091-1.743c-1.21-.805-2.554.134-3.361 1.073-.941 1.206-.941 2.949 0 4.29.134.134.538 0 .403-.268-.403-1.073-.672-2.145-.134-3.218.538-1.207 1.747-1.877 2.957-1.609.135 0 .269-.134.135-.268zm63.581-86.886c-.134.536-5.242 25.476 11.963 34.057 17.206 8.581 40.327 3.352 54.441-18.37 14.114-21.721 2.957-37.811-5.242-38.616-8.2-.804-11.561 8.448-10.754 11.8.672 3.352 2.554 5.899 5.377 5.497 2.957-.402 3.091-3.754.941-3.62-2.017.134-1.345-3.084 1.075-2.95 2.42 0 3.898 2.816 3.092 6.034-.807 3.352-7.528 6.302-12.233 1.743-4.704-4.559-4.301-12.604.673-17.699 4.973-4.961 16.668-8.179 23.254-.134 6.587 8.045 6.184 18.503 5.78 22.794-.403 4.157-3.36 21.856-20.028 33.521-16.265 11.263-41.402 18.369-57.801-2.682-14.921-19.04-3.226-34.057-3.226-34.057l2.688 2.682zm-24.061 4.961c0-.134-.135-.134-.135-.134-.134-.134-.403-.134-.538-.269 0-.134 0-.134-.134-.268a67.68 67.68 0 0 1-8.872-6.436c-2.688-2.279-5.108-4.961-7.796-7.24h-.135c-.134 0-.134.134 0 .268 0 0 0 .134.135.134-3.226 3.084-5.915 6.838-8.469 10.459a161.013 161.013 0 0 0-7.258 11.263c-2.286 3.754-4.302 7.776-5.243 12.201-.806 3.352-.269 6.838 2.285 9.118 1.076 1.877 1.882 4.022 2.554 6.168.941 3.084 1.882 6.167 2.554 9.251 1.613 6.705 3.898 13.677 3.092 20.649 0 .268.134.402.403.268 2.017-1.877 2.957-4.424 3.495-7.106.403 1.877.403 3.754.807 5.497 0 .134.134.135.269.135 1.209-.537 2.016-2.146 2.688-3.353.134-.268.269-.536.403-.938 1.076 1.341 2.823 2.145 4.033 3.084.134.134.403 0 .403-.268 0-.537-.134-1.073-.403-1.475-.269-.805-.269-1.609-.269-2.414v-1.475c.538.537 1.075.939 1.613 1.475 1.613 1.207 3.226 2.011 4.839 3.084.269.134.403-.134.269-.402-.806-1.475-1.479-2.816-1.882-4.291 0-.134-.134-.402-.134-.536 1.075.536 2.15.938 3.091 1.341 1.076.402 2.151.804 3.227.67.134 0 .268-.268.134-.402-1.21-1.341-2.151-2.816-3.092-4.291-.941-1.341-2.016-2.816-2.957-4.156-2.016-2.95-3.898-5.9-5.646-8.984-1.747-3.084-3.495-6.436-4.704-9.788-.673-1.743-1.21-3.486-1.345-5.363v-1.341c1.345-3.486 3.63-6.436 6.184-9.118 4.973-5.363 11.022-9.386 16.265-14.347h.134c.269 0 .538-.536.135-.67z" fill="#0E80A4"/><path d="M213.478 140.735c-1.076.134-16.937 1.475-18.013 1.609-1.882.268-3.629.805-5.511 1.073-1.075.134-2.016 0-3.092-.268-.269-.134-13.173-4.157-21.104.402-3.898 2.279-22.179 25.744-25.137 25.208-2.285-6.302 3.361-24.001 6.587-29.499 0-.134-4.033 3.755-4.033 3.755s-2.688-1.609-2.285-4.559c-.269.402-1.344 4.156-1.344 4.156s-2.688-2.413-2.285-4.29c0-.268-1.613 3.486-1.613 3.486s-3.361-1.207-3.361-3.486c0-.134-2.554 34.325-3.226 41.968-.269 2.682 3.898 6.302 6.587 7.106 2.688 1.073 20.163-15.017 25.809-19.71.941-.804.672 1.341.134 2.414-.269.536-2.554 4.29-3.092 5.363-4.435 8.179-4.973 18.906-5.108 28.157-.134 7.509 1.748 16.493 6.318 22.392 9.813 12.872 26.481 13.811 40.864 9.386 4.839-1.475 10.351-4.022 14.383-7.374 3.092-2.548 2.151.938 3.899-2.816 3.091-6.57 2.554-11.263 2.822-18.37.269-7.24-2.15-22.794-4.704-29.096-1.479-3.62-.538-5.899-.941-9.922-.135-1.072 3.091-28.023-2.554-27.085z" fill="#0E80A4"/><path d="M191.433 141.272c.268-.134 13.173-4.157 21.104.402 3.898 2.279 22.045 24.939 25.002 24.403-.403-3.352-2.554-14.213-4.436-20.381-.941-3.218-2.957-6.436-3.629-8.045 0 0 0-.134-.135-.134 0-.134 2.151.805 5.512 3.352.537.403 1.344-3.084 1.344-4.156 0-.402.537.536.806.804s.941 1.743 1.344 2.548c.135.268.269.402.269.536l.135.134c.134-.134.269-.536.537-1.072.135-.939.135-2.414.404-3.218 0-.134 2.016 2.547 2.957 3.352.134 0 .269-.134.403-.268v-.135c.807-2.815 2.42-3.352 2.42-3.218-.941 4.559 5.108 36.605 3.898 43.175.269 2.682-3.898 6.302-6.587 7.107-3.226 1.341-23.658-15.956-27.018-17.297-1.748-.67-2.285-4.023-4.033-5.095-2.151 1.877-2.285 10.19-.538 13.274 4.705 8.313-20.7-35.8-19.759-36.068z" fill="#0E80A4"/><path d="M171.27 166.345c-2.958 3.62-5.243 8.447-6.453 13.274-1.747 6.704-2.688 14.213-2.016 21.32.806 7.776 3.629 17.296 9.006 22.123 3.092 2.816 6.99 3.621 10.754 3.889 8.872.938 17.609-3.218 22.179-12.738 3.63-7.375 4.302-15.822 3.361-24.135-.672-6.302-2.151-12.872-4.974-18.37-4.032-7.777-11.022-14.078-18.819-12.738-2.15.403-4.704 1.073-6.721 2.146-2.285 1.206-4.436 3.084-6.317 5.229z" fill="#fff"/><path d="M184.846 227.755c-.807 0-1.613 0-2.42-.134-3.629-.402-7.662-1.207-11.022-4.156-5.646-5.096-8.469-15.018-9.275-22.526-.807-8.314.672-16.359 2.016-21.454 1.344-5.095 3.764-9.922 6.587-13.542 2.016-2.414 4.167-4.291 6.586-5.498 1.882-.938 4.302-1.743 6.856-2.145.672-.134 1.344-.134 2.151-.134 7.796 0 14.114 6.838 17.474 13.274 2.554 4.827 4.167 11.129 5.108 18.504 1.076 9.252-.134 17.699-3.495 24.537-4.032 8.313-11.694 13.274-20.566 13.274zm1.479-68.248c-.673 0-1.21 0-1.882.134-2.42.402-4.705 1.073-6.453 2.011-2.15 1.207-4.301 2.816-6.048 5.095-2.823 3.487-5.109 8.045-6.453 13.006-1.344 5.096-2.823 12.872-2.016 21.052.672 7.374 3.495 16.894 8.872 21.721 3.091 2.682 6.99 3.486 10.35 3.754.807.134 1.479.134 2.285.134 8.334 0 15.459-4.558 19.223-12.469 3.226-6.57 4.301-14.884 3.36-23.733-.806-7.241-2.554-13.408-4.973-18.101-3.092-6.168-9.007-12.604-16.265-12.604zm-38.983-61.678s-2.822-23.733 11.157-35.264c-5.78-2.548-5.242-7.777-5.242-7.777s2.688 2.682 7.393 2.682c-4.301-3.084-1.747-10.19-1.747-10.19s1.209 6.033 6.183 7.374c4.033-6.168 25.943-14.347 47.854-6.436 21.911 7.91 35.487 34.593 26.615 56.583-.134 0-63.178 8.045-92.213-6.972z" fill="#0E80A4"/><path d="M136.589 107.214c0 .135-4.436-3.62-4.705-3.888-2.957-3.218-5.108-7.509-5.242-11.8-.135-5.363 1.747-11.396 6.586-14.078 4.033-2.145 9.275-2.011 13.174.536 5.108 3.218 8.737 13.14 8.871 19.979 0-.134-14.92-2.012-18.684 9.251z" fill="#0E80A4"/><path d="M136.589 107.483c-.404 0-4.974-3.889-4.974-4.023-3.36-3.62-5.242-8.045-5.377-12.067-.134-5.096 1.613-11.532 6.856-14.481 1.613-.939 3.495-1.475 5.377-1.475 2.957-.134 5.78.536 8.065 2.01 5.108 3.353 9.006 13.275 9.141 20.248v.402h-.404s-1.613-.134-3.898 0c-4.301.268-11.829 1.743-14.383 9.117l-.134.269h-.269zm1.882-31.242c-1.882.134-3.63.67-5.108 1.475-4.974 2.816-6.587 8.984-6.453 13.81.135 3.89 2.017 8.046 5.243 11.532.269.268 3.092 2.682 4.167 3.486 2.823-7.374 10.485-8.983 14.921-9.252 1.613-.134 2.957 0 3.629 0-.269-6.704-3.898-16.09-8.737-19.174-2.151-1.34-4.84-2.01-7.662-1.877zm99.202 34.057c9.544 2.146 17.475-10.19 19.491-18.101 1.21-4.425 2.42-9.654-3.36-14.213-.672-.536-2.285-1.475-3.495-1.877-8.065-3.084-14.249 2.682-18.012 8.85-3.764 6.167-5.915 12.872-2.42 18.771 1.344 2.414 2.957 5.095 7.662 6.57h.134z" fill="#0E80A4"/><path d="M240.496 110.969c-.941 0-1.882 0-2.957-.268l-.269-.134c-4.839-1.475-6.452-4.291-7.796-6.705v-.134c-3.092-5.229-2.285-11.53 2.419-19.174 2.689-4.29 7.125-9.52 13.174-9.922 1.747-.134 3.495.134 5.242.805 1.344.536 2.957 1.34 3.629 2.01 6.049 4.828 4.705 10.191 3.495 14.616-1.747 7.375-8.468 18.369-16.937 18.906zm4.705-35.398c-5.78.402-10.082 5.363-12.636 9.52-4.57 7.374-5.376 13.408-2.419 18.369v.134c1.344 2.414 2.823 4.961 7.393 6.302h.269c.806.268 1.747.268 2.688.268 4.839-.268 13.308-6.302 16.4-18.101 1.075-4.425 2.419-9.252-3.226-13.81-.673-.537-2.151-1.341-3.495-1.878-1.748-.67-3.361-.938-4.974-.804z" fill="#0E80A4"/><path d="M240.496 87.906c-2.688 2.816-3.36 5.766-2.554 6.838-.672-1.072-.134-4.022 2.554-6.838z" fill="#D46E43"/><path d="M177.453 65.649h.269c13.442-.268 14.114 18.101 14.114 18.101s5.78-17.297 16.13-17.833h1.21c15.19 1.877 16.803 32.716 16.803 32.716.403 0 .806-.134 1.21-.134 7.796-.536 16.802 6.705 15.189 16.09-4.57 26.281-24.599 29.499-43.149 31.108-7.796.67-17.071.402-30.245-2.012a50.736 50.736 0 0 1-11.291-3.486c-21.911-9.788-25.54-28.023-20.835-37.409 2.419-4.693 6.183-6.436 9.947-6.57 5.914-.402 11.56 2.816 11.56 2.816 1.479-16.895 9.006-32.85 19.088-33.387z" fill="#fff"/><path d="M191.567 146.769c-6.721 0-14.249-.804-22.717-2.413a56.95 56.95 0 0 1-11.426-3.487c-10.754-4.827-18.416-12.335-21.507-21.185-2.151-6.033-2.017-12.335.403-17.028 2.151-4.291 5.78-6.705 10.485-6.973 4.704-.268 9.14 1.475 11.022 2.414 1.613-15.688 8.872-32.448 19.626-32.985h.537c10.351 0 13.308 10.861 14.115 16.09 2.15-4.96 7.527-15.285 15.861-15.822h1.21c14.518 1.878 17.072 27.89 17.475 32.717h.538c4.57-.268 9.678 2.011 12.77 5.765 2.688 3.218 3.763 7.107 3.091 11.129-4.839 28.158-28.228 30.303-43.687 31.644-2.554 0-5.108.134-7.796.134zM147.746 96.89h-.941c-4.302.268-7.393 2.414-9.41 6.302-2.15 4.291-2.285 10.324-.269 15.956 2.958 8.581 10.351 15.822 20.836 20.381 3.36 1.475 7.124 2.681 11.157 3.352 8.468 1.609 15.861 2.279 22.448 2.279 2.554 0 5.108-.134 7.528-.402 20.028-1.877 38.175-5.498 42.611-30.571.672-3.62-.403-7.107-2.823-10.056-2.957-3.487-7.527-5.498-11.694-5.23-.404 0-.807 0-1.21.134l-.672.135v-.805c0-.268-1.748-30.303-16.265-32.046h-1.076c-9.678.805-15.593 17.43-15.593 17.565l-1.209 3.352-.135-3.486c0-.134-.806-17.43-13.173-17.43h-.403c-10.082.67-17.072 17.43-18.416 32.85l-.134 1.072-.941-.536c0-.134-4.974-2.816-10.216-2.816z" fill="#0E80A4"/><path d="M180.679 93.27c0 4.425-2.957 8.447-6.587 8.983-3.495.537-6.318-2.681-6.318-7.106.135-4.425 2.958-8.447 6.587-8.984 3.495-.536 6.318 2.682 6.318 7.107z" fill="#0E80A4"/><path d="M174.764 92.331c-.806 1.61-2.419 2.28-3.495 1.341-1.075-.938-1.344-3.084-.403-4.693.807-1.609 2.42-2.28 3.495-1.207 1.075.805 1.21 2.816.403 4.56z" fill="#fff"/><path d="M213.209 91.795c1.075 4.022-.538 8.179-3.63 9.386-3.091 1.072-6.317-1.207-7.393-5.23-1.075-4.022.538-8.179 3.63-9.385 3.091-1.207 6.317 1.206 7.393 5.229zm-19.626 18.504l-1.478.536a7.482 7.482 0 0 1-4.839 0l-1.076-.402c-.403-.134-.672.536-.403.804l3.226 2.414a2.448 2.448 0 0 0 2.688 0l2.554-2.012c.538-.536.135-1.474-.672-1.34z" fill="#0E80A4"/><path d="M198.692 301.904c1.209 1.877 3.629 2.548 4.704 4.559 1.613 3.218 1.748 6.704 3.899 9.788 2.15 2.95 5.108 5.363 8.199 7.375 1.21.804 2.42 1.474 3.495 2.547 1.21 1.743 2.823 3.218 4.571 3.889 2.016.804 4.704.268 5.511-2.146v-.134h.403c1.479 0 2.823-.938 3.495-2.145.807-.268 1.613-.939 2.016-1.877 1.21-.134 2.151-1.073 2.554-2.146.135-.402.269-.804.269-1.206.807-.269 1.479-.939 1.613-2.012 0-1.475-.806-2.681-2.016-3.486-.941-.67-2.688-.67-3.629 0-3.899-2.413-7.259-5.765-10.351-9.118-1.613-1.877-3.226-3.888-4.033-6.302-.94-2.547-.94-5.095-.403-7.776v-.269c0-.268-.403-.536-.537-.134-2.823-.938-5.781-2.011-8.738-2.413-2.688-.402-4.57-.939-6.855.67-2.017 1.341-3.63 3.621-4.571 5.9-.268.536-.403 1.073-.537 1.743-.135 1.609 0 3.352.941 4.693z" fill="#fff"/><path d="M225.441 331a5.412 5.412 0 0 1-2.017-.402c-1.747-.671-3.36-2.012-4.839-4.157-.806-.67-1.882-1.341-2.823-2.011l-.537-.268c-3.495-2.28-6.318-4.827-8.334-7.509-1.345-1.877-2.017-3.888-2.554-5.9-.404-1.34-.807-2.681-1.479-4.022-.403-.939-1.344-1.475-2.151-2.145-.941-.671-1.747-1.341-2.419-2.28-.941-1.475-1.21-3.218-.807-5.095.134-.536.269-1.207.538-1.743 1.075-2.548 2.823-4.827 4.839-6.168 1.21-.804 2.419-1.207 3.898-1.207.941 0 1.748.134 2.823.268l.672.135c2.554.402 5.108 1.206 7.528 2.011l.941.268c.268-.134.806 0 1.075.268.134.134.269.402.269.536v.537c-.538 2.681-.403 5.095.403 7.24.672 2.012 2.016 3.889 3.898 6.034 2.958 3.218 6.184 6.436 9.813 8.715 1.21-.536 2.957-.402 4.033.269 1.344.938 2.285 2.413 2.285 4.022 0 1.073-.538 2.011-1.613 2.414 0 .268-.135.67-.269.938-.538 1.341-1.479 2.28-2.689 2.548-.403.938-1.209 1.609-2.016 1.877-.806 1.341-2.285 2.145-3.764 2.279-1.209 1.609-2.822 2.548-4.704 2.548zm-18.954-41.7c-1.21 0-2.151.268-3.091.939-1.748 1.206-3.361 3.352-4.302 5.631-.269.536-.403 1.073-.538 1.609-.268 1.609-.134 2.95.672 4.157.538.804 1.21 1.341 2.151 1.877.941.67 2.017 1.475 2.554 2.682.672 1.474 1.076 2.815 1.613 4.29.538 1.877 1.076 3.755 2.42 5.498 1.882 2.681 4.57 5.095 8.065 7.24l.538.268c1.075.671 2.151 1.341 3.092 2.28 1.478 2.011 2.822 3.218 4.301 3.754.538.134 1.075.268 1.613.268 1.479 0 2.688-.804 3.092-2.011l.134-.536.538-.134h.134c1.344 0 2.554-.805 2.958-1.744l.134-.268.269-.134c.672-.134 1.21-.804 1.613-1.475l.134-.402h.404c.806-.134 1.613-.804 2.016-1.743.134-.268.269-.67.269-1.073v-.402l.403-.134c.538-.134 1.075-.536 1.075-1.341 0-1.073-.672-2.279-1.613-2.816-.806-.536-2.15-.536-2.957 0l-.403.269-.404-.269c-4.032-2.413-7.393-5.899-10.484-9.251-2.017-2.28-3.361-4.291-4.167-6.436-.807-2.414-.941-4.961-.404-7.777l-1.209-.402c-2.42-.805-4.84-1.609-7.394-2.012l-.672-.134c-.941-.134-1.747-.268-2.554-.268z" fill="#0E80A4"/><path d="M223.425 330.463c-1.613-.671-3.226-2.011-4.705-4.023-.806-.804-1.882-1.475-2.957-2.145l-.538-.268c-3.495-2.28-6.318-4.693-8.334-7.509-1.344-1.877-2.016-3.888-2.554-5.765-.403-1.341-.806-2.816-1.478-4.023-.538-.938-1.345-1.609-2.286-2.279-.806-.671-1.747-1.341-2.419-2.28-.941-1.475-1.21-3.084-.807-4.961.135-.536.269-1.207.538-1.743 1.075-2.413 2.823-4.693 4.705-6.034 1.209-.804 2.285-1.206 3.763-1.206.807 0 1.748.134 2.689.268.269 0 .403.134.672.134 2.554.402 5.108 1.207 7.528 2.011.403.134.672.268 1.075.402.269-.134.538-.134.806.134.135.134.135.269.135.403v.402c-.538 2.816-.403 5.229.403 7.509.672 2.011 2.016 4.022 3.898 6.167 3.495 3.755 6.453 6.705 10.082 8.984a3.73 3.73 0 0 1 1.747-.402c.807 0 1.613.268 2.151.536 1.344.805 2.151 2.28 2.151 3.754 0 1.073-.538 1.878-1.613 2.28 0 .402-.135.67-.269 1.073-.403 1.206-1.479 2.145-2.554 2.413-.403.939-1.21 1.609-2.016 1.877-.672 1.341-2.151 2.146-3.764 2.146h-.135c-.672 1.609-2.15 2.547-4.032 2.547a43.994 43.994 0 0 0-1.882-.402zm5.78-3.084h.269c1.344 0 2.554-.805 3.226-2.011l.134-.134h.135c.672-.134 1.478-.805 1.747-1.743l.135-.135h.269c.941-.134 1.881-.804 2.285-1.877.134-.402.269-.67.269-1.072v-.269l.268-.134c.538-.134 1.21-.536 1.345-1.609 0-1.206-.672-2.413-1.748-3.084-.403-.268-1.075-.402-1.747-.402-.538 0-1.076.134-1.479.402l-.134.135-.135-.135c-3.898-2.413-7.393-5.765-10.35-9.117-2.017-2.146-3.361-4.291-4.033-6.436-.806-2.414-.941-4.961-.403-7.777h-.135a16.883 16.883 0 0 0-1.344-.402c-2.419-.805-4.839-1.609-7.393-2.012-.269 0-.403-.134-.672-.134-.941-.134-1.747-.268-2.554-.268-1.21 0-2.285.268-3.361 1.073-1.747 1.207-3.494 3.352-4.435 5.765-.269.537-.404 1.073-.538 1.609-.403 1.609-.135 3.084.672 4.425.538.805 1.344 1.341 2.151 2.011.941.671 2.016 1.475 2.554 2.548.672 1.341 1.075 2.816 1.478 4.157.538 2.011 1.076 3.754 2.42 5.497 1.882 2.682 4.705 5.095 8.065 7.241l.538.268c1.075.67 2.151 1.341 3.092 2.279 1.344 1.877 2.822 3.218 4.435 3.754.538.135 1.076.269 1.748.269 1.613 0 2.957-.805 3.36-2.146l.135-.402-.269-.134z" fill="#0E80A4"/><path d="M227.995 329.257c.404-.537.672-1.207.807-1.878.269-1.34 0-2.681-.672-3.754-1.479-2.145-4.302-2.682-6.587-2.145-.134 0-.134-.134-.134-.134.941-.805 2.419-.671 3.495-.403 1.478.403 2.688 1.073 3.629 2.28 1.21 1.609 1.344 4.291.269 6.034h-.807z" fill="#0E80A4"/><path d="M226.786 320.005c2.15-1.341 4.704.402 5.78 2.413 1.075 2.012.403 5.23-2.151 5.364-.269 0-.403-.269-.134-.403.806-.536 1.747-.804 2.016-1.877.269-.938.134-1.877-.269-2.816-.941-2.145-2.957-2.815-5.108-2.413-.269 0-.269-.268-.134-.268z" fill="#0E80A4"/><path d="M230.549 318.664c1.479-1.475 3.63.134 4.302 1.609.806 1.475.806 4.425-1.345 4.961-.268 0-.403-.268-.134-.402.538-.537 1.075-.939 1.344-1.878.135-.804 0-1.609-.269-2.279a3.705 3.705 0 0 0-1.478-1.743c-.807-.402-1.479-.134-2.285 0-.269.134-.269-.134-.135-.268zm2.958-1.743c1.209-.804 2.554.134 3.36 1.073.941 1.206.941 2.95 0 4.29-.134.134-.538 0-.403-.268.403-1.072.672-2.145.134-3.218-.537-1.207-1.747-1.877-2.957-1.609-.134 0-.134-.134-.134-.268zm-39.252-81.388s0-.135 0 0c5.377 4.961 11.426 8.983 16.265 14.346 2.42 2.682 4.84 5.632 6.184 9.118v1.341c-.135 1.877-.672 3.62-1.344 5.363-1.21 3.352-2.958 6.704-4.705 9.788-1.748 3.084-3.63 6.034-5.646 8.984-.941 1.475-2.016 2.816-2.957 4.157-1.075 1.474-2.016 2.949-3.092 4.29-.134.134 0 .402.135.402 1.075.135 2.285-.268 3.226-.67 1.075-.402 2.15-.804 3.091-1.341 0 .134-.134.402-.134.537-.403 1.609-1.075 2.949-1.882 4.29-.134.134.135.537.269.402 1.613-1.072 3.36-1.877 4.839-3.083.538-.403 1.075-.939 1.613-1.475v1.475c0 .804-.134 1.743-.269 2.413-.134.536-.269.939-.403 1.475 0 .268.269.402.403.268 1.21-.938 2.958-1.743 4.033-3.084.134.268.269.671.403.939.672 1.207 1.344 2.816 2.689 3.352.134 0 .268 0 .268-.134.404-1.877.538-3.755.807-5.498.538 2.682 1.479 5.364 3.495 7.107.134.134.403 0 .403-.268-.672-6.973 1.479-13.945 3.092-20.649.806-3.084 1.613-6.168 2.554-9.252.672-2.011 1.479-4.157 2.554-6.168 2.554-2.279 3.092-5.765 2.285-9.117-1.075-4.291-3.092-8.448-5.242-12.202a161.624 161.624 0 0 0-7.259-11.263c-2.554-3.62-5.243-7.375-8.469-10.459 0 0 0-.134.135-.134.134-.134 0-.268 0-.268s-.135-.134-.135 0c-2.688 2.28-5.108 4.961-7.796 7.241-2.823 2.413-5.646 4.559-8.872 6.436-.134 0-.134.134-.134.268-.135.134-.404.134-.538.268-.134 0-.134 0-.134.134-.269.268 0 .805.268.671z" fill="#0E80A4"/><path d="M142.772 115.662c.269-1.341.941-3.486-.537-4.559-1.076-.67-2.689.268-3.63.939-1.478 1.206-2.151 3.084-2.285 4.961-.134 1.207-.269 4.425-.403 4.827-.807-.268-1.479-.805-2.151-1.341-1.21-.805-2.554-1.475-3.898-2.145-2.554-1.341-4.839-2.95-7.124-4.559-1.882-1.341-3.899-2.682-6.184-3.352-1.344-.403-2.823 0-3.495 1.072-.941-.536-2.016-1.072-3.091-1.206-.673-.135-1.882-.135-2.42.536-.134.134-.134.134-.134.268-.404-.134-.941-.134-1.345.134-.672.402-.537 1.207-.269 1.877a8.57 8.57 0 0 0 1.076 1.878c-3.63 1.474 13.039 17.699 14.921 18.637 3.36 1.609 7.258 1.743 10.753 3.084 2.823 1.207 1.21 9.654 4.033 10.19.538-.402 6.049 2.012 7.259-.804 1.882-4.425-.269-11.934-.404-11.934-.403-1.072-.941-2.011-1.209-3.083-.269-1.341-.135-2.548.537-3.621.404-.67.672-4.156.269-4.961-.269-1.341-.538-5.765-.269-6.838z" fill="#fff"/><path d="M141.159 148.11c-1.075 0-2.285-.268-3.091-.402-.404-.134-.941-.134-1.076-.134l-.134.134h-.269c-1.882-.402-2.151-2.95-2.554-5.498-.269-2.011-.538-4.29-1.613-4.692-1.613-.671-3.226-1.073-4.974-1.341-2.016-.403-4.032-.939-5.914-1.743-1.479-.939-15.862-14.481-15.728-18.772 0-.402.135-.67.269-.939-.403-.536-.672-1.072-.806-1.475-.538-1.206-.269-2.145.537-2.547.404-.268.807-.268 1.345-.268.403-.537 1.075-.805 2.016-.805.403 0 .672 0 .941.134.941.134 1.882.537 2.823.939.806-.939 2.419-1.341 3.898-.939 2.42.671 4.57 2.28 6.318 3.486 2.419 1.744 4.704 3.218 7.124 4.559l.403.268c1.21.671 2.42 1.207 3.495 2.012l1.21.804c0-.804.135-1.877.135-2.547 0-.537 0-1.073.134-1.341.134-2.28 1.075-4.157 2.554-5.364.538-.402 1.747-1.34 3.092-1.34.403 0 .941.134 1.209.402 1.748 1.207 1.21 3.486.807 4.961v.268c-.269.939 0 5.229.403 6.302.403 1.073.135 4.693-.269 5.632-.537 1.072-.672 2.011-.403 3.218.269.938.672 1.877 1.075 2.815l.135.268c.269.939 2.285 8.045.403 12.47-.538.939-1.747 1.475-3.495 1.475zm-4.167-1.877c.403 0 .807.134 1.479.268.806.134 1.882.402 2.823.402 1.478 0 1.882-.536 2.15-1.072 1.613-3.889 0-10.593-.403-11.397l-.134-.269c-.404-.938-.941-2.011-1.21-3.083-.403-1.475-.135-2.816.672-4.157.269-.536.538-3.754.269-4.425-.538-1.341-.807-5.765-.538-6.972v-.268c.269-1.475.538-2.95-.269-3.486-.537-.403-1.882.268-2.688.938-1.21.939-1.882 2.548-2.016 4.425 0 .268 0 .804-.135 1.341-.134 2.279-.269 3.352-.403 3.62l-.269.67-.672-.268c-.941-.268-1.613-.804-2.285-1.341-1.076-.67-2.151-1.34-3.361-1.877l-.403-.268c-2.554-1.341-4.839-2.95-7.259-4.693-1.613-1.207-3.764-2.682-5.914-3.218-1.076-.268-2.285 0-2.689.805l-.403.67-.538-.402c-.941-.537-1.882-.939-2.823-1.073h-.806c-.538 0-.941.134-1.075.268 0 0 0 .134-.135.134l-.269.537-.537-.134c-.404-.134-.672-.134-.941 0-.135.134-.135.67 0 1.072.134.537.537 1.073.941 1.609l.537.671-.806.402s-.135 0-.135.268c-.134 3.218 13.442 16.358 15.056 17.163 1.747.804 3.629 1.207 5.645 1.743 1.748.402 3.495.804 5.108 1.475 1.748.67 2.151 3.352 2.42 5.765.269 1.878.538 4.023 1.344 4.291.538-.134.538-.134.672-.134z" fill="#0E80A4"/><path d="M125.029 127.059c.134 0 .268-.134.134-.268-.269-.268-.672-.402-.941-.536.941-2.012 2.42-3.218 4.436-4.023 2.016-.67 2.151-1.341.403-.804-1.075-.671-2.016-1.475-2.957-2.28-1.21-1.073-2.554-2.011-3.898-2.95-1.21-.804-2.285-1.743-3.63-2.413-1.344-.805-1.747-.671-.403.134 1.344.804 2.554 1.743 3.764 2.682 1.344.938 2.688 2.011 3.898 2.949.807.671 1.748 1.609 2.689 2.146-.135 0-.135 0-.269.134-1.21.536-2.554 1.207-3.361 2.279-1.21-1.072-2.688-2.011-3.898-2.95-1.613-1.206-2.957-2.547-4.167-4.022a17.619 17.619 0 0 0-7.931-5.632c-.134 0-.134.134-.134.134 1.344.805 2.823 1.609 4.167 2.548 1.478 1.073 2.688 2.279 3.898 3.754 1.075 1.341 2.285 2.414 3.629 3.487.672.536 1.479 1.072 2.151 1.609.672.536 1.344 1.072 2.016 1.474-.403.537-.537 1.073-.672 1.744-1.478-.537-3.226-.537-4.57-1.609-1.613-1.207-2.554-2.95-3.629-4.559-1.479-2.28-4.436-6.436-7.662-4.961v.134c3.898-.403 6.049 3.352 7.93 6.168.941 1.474 2.017 2.949 3.495 3.888m90.062 2.95h-37.772v1.34h37.772v-1.34z" fill="#0E80A4"/><path d="M235.523 115.661c-.269-1.34-.941-3.486.538-4.558 1.075-.671 2.688.268 3.629.938 1.479 1.207 2.151 3.084 2.285 4.961.135 1.207.269 4.425.404 4.827.806-.268 1.478-.804 2.15-1.341 1.21-.804 2.554-1.474 3.898-2.145 2.554-1.341 4.84-2.95 7.125-4.559 1.882-1.341 3.898-2.681 6.183-3.352 1.344-.402 2.823 0 3.495 1.073.941-.536 2.016-1.073 3.092-1.207.672-.134 1.882-.134 2.419.536.135.135.135.135.135.269.403-.134.941-.134 1.344.134.672.402.538 1.206.269 1.877a8.56 8.56 0 0 1-1.075 1.877c5.242 3.754-13.039 17.699-14.921 18.638-3.361 1.609-7.259 1.743-10.754 3.084-2.823 1.206-1.21 9.654-4.033 10.19-.537-.402-6.049 2.011-7.258-.805-1.882-4.424.269-11.933.403-11.933.403-1.073.941-2.011 1.21-3.084.269-1.341.134-2.548-.538-3.62-.403-.671-.672-4.157-.269-4.961.135-1.341.403-5.766.269-6.839z" fill="#fff"/><path d="M237.002 148.11c-1.748 0-2.823-.671-3.361-1.877-1.882-4.425 0-11.666.403-12.47l.135-.134c.403-.939.806-1.877 1.075-2.816.269-1.207.135-2.145-.403-3.218-.538-.939-.672-4.559-.269-5.632.403-1.072.672-5.363.403-6.301v-.269c-.269-1.475-.806-3.754.807-4.961.403-.268.806-.402 1.21-.402 1.344 0 2.554.939 3.091 1.341 1.479 1.207 2.42 3.084 2.554 5.363 0 .268 0 .805.135 1.341 0 .67.134 1.743.134 2.548l1.21-.805c1.075-.804 2.285-1.475 3.495-2.011l.403-.268c2.42-1.341 4.705-2.816 7.124-4.559 1.748-1.207 3.899-2.816 6.318-3.486 1.479-.403 2.957 0 3.898.938.941-.536 1.882-.804 2.823-.938.269 0 .672-.134.941-.134.941 0 1.613.268 2.151.804.538 0 .941 0 1.344.268.807.403 1.076 1.341.672 2.682-.134.536-.403 1.073-.806 1.609.537.67.806 1.341.672 2.279-.538 5.9-14.921 16.359-16.265 17.029-1.882.939-3.898 1.341-5.915 1.743-1.613.402-3.36.805-4.973 1.341-1.076.402-1.344 2.682-1.613 4.693-.404 2.681-.672 5.095-2.554 5.497h-.269l-.135-.134c-.268 0-.672.134-1.075.134-1.075.671-2.285.805-3.36.805zm-1.748-13.677c-.269.805-2.016 7.509-.403 11.397.134.403.538 1.073 2.151 1.073.941 0 2.016-.268 2.822-.402.807-.134 1.345-.268 1.613-.268.807-.403 1.076-2.414 1.345-4.291.403-2.548.672-5.095 2.419-5.766 1.613-.67 3.495-1.072 5.108-1.475 2.017-.402 3.898-.804 5.646-1.743 1.613-.804 15.055-10.995 15.458-15.956 0-.67-.134-1.206-.672-1.609l-.537-.402.403-.536c.403-.537.806-1.073.941-1.609.134-.402.134-.939 0-1.073-.269-.134-.538-.134-.941 0l-.538.134-.269-.536s0-.134-.134-.134c-.135-.268-.538-.268-1.075-.268h-.807c-.941.134-1.882.536-2.823 1.072l-.538.403-.403-.671c-.403-.804-1.613-1.073-2.688-.804-2.151.67-4.302 2.145-5.915 3.218-2.419 1.743-4.704 3.352-7.258 4.693l-.404.268a41.91 41.91 0 0 0-3.36 1.877c-.672.536-1.479 1.073-2.285 1.341l-.673.268-.268-.671c-.135-.402-.269-1.34-.404-3.754 0-.536 0-.938-.134-1.341-.134-1.877-.807-3.486-2.016-4.424-.807-.671-2.151-1.341-2.823-.939-.807.536-.672 2.011-.269 3.486v.268c.269 1.207 0 5.766-.538 6.973-.269.67 0 3.888.269 4.424.807 1.341.941 2.682.672 4.157-.269 1.073-.672 2.145-1.21 3.084l.538.536z" fill="#0E80A4"/><path d="M253.132 127.059c-.134 0-.269-.135-.134-.269.269-.268.672-.402.941-.536-.941-2.011-2.42-3.218-4.436-4.022-2.016-.671-2.151-1.341-.403-.805 1.075-.67 2.016-1.475 2.957-2.279 1.21-1.073 2.554-2.012 3.898-2.95 1.21-.805 2.285-1.743 3.629-2.414 1.345-.804 1.748-.67.404.134-1.345.805-2.554 1.743-3.764 2.682-1.344.939-2.689 1.877-3.898 2.95-.807.67-1.748 1.609-2.689 2.145.135 0 .135 0 .269.134 1.21.537 2.554 1.207 3.361 2.28 1.209-1.073 2.688-2.012 3.898-2.95 1.613-1.207 2.957-2.548 4.167-4.023a17.624 17.624 0 0 1 7.931-5.631c.134 0 .134.134.134.134-1.344.804-2.823 1.609-4.167 2.548-1.479 1.072-2.688 2.279-3.898 3.754-1.075 1.341-2.285 2.413-3.629 3.486-.673.536-1.479 1.073-2.151 1.609-.672.536-1.344 1.073-2.017 1.475.404.536.538 1.073.673 1.743 1.478-.536 3.226-.536 4.57-1.609 1.613-1.073 2.554-2.95 3.629-4.559 1.479-2.279 4.436-6.436 7.662-4.961v.134c-3.898-.402-6.049 3.352-7.931 6.168-.941 1.475-2.016 2.95-3.495 3.888" fill="#0E80A4"/></g><defs><clipPath id="a"><path fill="#fff" transform="translate(105 45)" d="M0 0h173v286H0z"/></clipPath></defs></svg>