<svg width="24" height="24" viewBox="0 0 24 24" fill="none" xmlns="http://www.w3.org/2000/svg">
<path d="M12 8C11.2089 8 10.4355 8.2346 9.77772 8.67412C9.11992 9.11365 8.60723 9.73836 8.30448 10.4693C8.00173 11.2002 7.92252 12.0044 8.07686 12.7804C8.2312 13.5563 8.61216 14.269 9.17157 14.8284C9.73098 15.3878 10.4437 15.7688 11.2196 15.9231C11.9956 16.0775 12.7998 15.9983 13.5307 15.6955C14.2616 15.3928 14.8864 14.8801 15.3259 14.2223C15.7654 13.5645 16 12.7911 16 12C15.9987 10.9395 15.5768 9.92288 14.827 9.17302C14.0771 8.42315 13.0605 8.00131 12 8Z" fill="white"/>
<path d="M17.542 0H6.45796C4.74581 0.00197797 3.10435 0.683004 1.89368 1.89368C0.683004 3.10435 0.00197797 4.74581 0 6.45796V17.542C0.00197797 19.2542 0.683004 20.8956 1.89368 22.1063C3.10435 23.317 4.74581 23.998 6.45796 24H17.542C19.2542 23.998 20.8956 23.317 22.1063 22.1063C23.317 20.8956 23.998 19.2542 24 17.542V6.45796C23.998 4.74581 23.317 3.10435 22.1063 1.89368C20.8956 0.683004 19.2542 0.00197797 17.542 0ZM12 19.1995C10.5761 19.1995 9.18412 18.7773 8.00017 17.9862C6.81622 17.1951 5.89344 16.0707 5.34853 14.7551C4.80361 13.4396 4.66104 11.992 4.93883 10.5954C5.21663 9.19888 5.90232 7.91605 6.90918 6.90918C7.91605 5.90232 9.19888 5.21663 10.5954 4.93883C11.992 4.66104 13.4396 4.80361 14.7551 5.34853C16.0707 5.89344 17.1951 6.81622 17.9862 8.00017C18.7773 9.18412 19.1995 10.5761 19.1995 12C19.1973 13.9088 18.4381 15.7387 17.0884 17.0884C15.7387 18.4381 13.9088 19.1973 12 19.1995ZM19.9111 5.89163C19.5596 5.89163 19.216 5.78743 18.9237 5.59218C18.6314 5.39694 18.4035 5.11942 18.2688 4.7947C18.1342 4.46998 18.0989 4.11264 18.1673 3.76783C18.2357 3.42303 18.4047 3.10624 18.6531 2.8575C18.9015 2.60876 19.2181 2.43924 19.5628 2.37036C19.9075 2.30148 20.2649 2.33633 20.5898 2.47051C20.9147 2.60469 21.1925 2.83218 21.3882 3.12422C21.5838 3.41626 21.6885 3.75975 21.689 4.11127C21.6895 4.34503 21.6438 4.57657 21.5546 4.79265C21.4655 5.00874 21.3346 5.20512 21.1695 5.37056C21.0043 5.53601 20.8082 5.66726 20.5923 5.75681C20.3764 5.84637 20.1449 5.89246 19.9111 5.89246V5.89163Z" fill="white"/>
</svg>
