<svg width="1400" height="630" viewBox="0 0 1400 630" fill="none" xmlns="http://www.w3.org/2000/svg"><g opacity=".1" clip-path="url(#a)"><path d="M2126.3-1046.34c-748.29 116.997-1156.019-435.82-1156.019-435.82-366.75 307.37 128.769 1101.444-468.357 1789.511M2126.3-1046.34c-629.26 195.226-1021.2-200.64-1021.2-200.64-383.706 340.638-45.97 1001.023-603.176 1554.331M2126.3-1046.34c-534.01 257.807-913.32-12.51-913.32-12.51-397.357 367.215-185.77 920.633-711.056 1366.201M2126.3-1046.34c-510.23 273.397-886.36 34.48-886.36 34.48-400.742 373.954-220.73 900.603-738.016 1319.211M2126.3-1046.34c-414.98 336.037-778.5 222.666-778.5 222.666C933.428-423.198 987.288-3.458 501.924 307.351M2126.3-1046.34c-391.2 351.626-751.54 269.663-751.54 269.663C957.018-369.528 979.303 23.443 501.924 307.351M2126.3-1046.34c-296 414.191-643.67 457.786-643.67 457.786-431.4 433.792-535.253 719.797-980.706 895.905M2126.3-1046.34c-272.18 429.855-616.72 504.842-616.72 504.842-434.76 440.406-570.203 699.701-1007.656 848.849M2126.3-1046.34c-176.98 492.421-508.85 692.965-508.85 692.965-448.34 467.007-709.984 619.318-1115.526 660.726M2126.3-1046.34c-57.96 570.65-374.03 928.144-374.03 928.144-465.35 500.264-884.731 518.899-1250.346 425.547m0 0C1091.05-353.756 627.106-1121.07 997.286-1435.08c0 0 404.614 521.417 1129.074 388.75M501.924 307.351C1083.11-326.78 650.697-1067.4 1024.25-1388.09c0 0 401.43 490.016 1102.11 341.76M501.924 307.351C1075.13-299.878 674.228-1013.74 1051.19-1341.03c0 0 398.31 458.62 1075.17 294.7M501.924 307.351C1067.13-272.918 697.803-960.012 1078.16-1294.03c0 0 395.11 427.268 1048.2 247.7M501.924 307.351C1051.14-219.056 744.926-852.688 1132.12-1199.96c0 0 388.82 364.467 994.24 153.63M501.924 307.351C1043.2-192.079 768.501-798.959 1159.07-1152.91c0 0 385.63 333.066 967.29 106.58M501.924 307.351C1035.2-165.119 792.092-745.289 1186.03-1105.91c0 0 382.45 301.655 940.33 59.58M501.924 307.351C1011.21-84.296 862.73-584.252 1266.94-964.784c0 0 373.02 207.521 859.42-81.546M501.924 307.351C1003.29-57.379 886.321-530.581 1293.89-917.728c0 0 369.83 176.113 832.47-128.602M501.924 307.351C995.288-30.419 909.896-476.852 1320.85-870.73c0 0 366.66 144.704 805.51-175.6M501.924 307.351C971.303 50.404 980.593-315.799 1401.76-729.605c0 0 357.16 50.555 724.6-316.725M501.924 307.351c461.438-229.97 502.206-569.496 926.796-989.958 0 0 354.04 19.162 697.64-363.723M501.924 307.351c453.453-203.069 525.796-515.826 953.746-942.902 0 0 350.86-12.245 670.69-410.779M501.924 307.351C931.392 185.105 1098.41-47.422 1536.6-494.485c0 0 341.36-106.394 589.76-551.845M501.924 307.351c421.527-95.27 620.006-301.06 1061.616-754.779 0 0 338.25-137.787 562.82-598.902M501.924 307.351C915.45 239.042 1145.52 59.961 1590.49-400.372c0 0 335.06-169.195 535.87-645.958M501.924 307.351c397.542-14.447 690.706-140.006 1142.536-613.654 0 0 328.74-231.936 481.9-740.027M501.924 307.351c389.541 12.513 714.296-86.336 1169.496-566.656 0 0 325.56-263.345 454.94-787.025M501.924 307.351c381.6 39.489 737.826-32.682 1196.436-519.6 0 0 322.39-294.753 428-834.081M501.924 307.351c373.615 66.391 761.396 21.047 1223.406-472.603 0 0 319.26-326.145 401.03-881.078M501.924 307.351C859.539 427.663 1310.45 435.722 1779.29-71.183c0 0 312.89-388.902 347.07-975.147-10.35 601.909-320.12 1022.204-320.12 1022.204-472.22 513.577-954.627 478.707-1304.317 331.478m.001-.001c349.63 147.214 832.096 182.1 1304.256-331.493M501.924 307.35c-46.305-19.414-90.268-40.726-131.524-62.954C134.695 116.596-14.593-41.461-14.593-41.461-124.066-20.097-221.382 12.416-308.39 51.92c-5.607 2.538-11.028 4.621-16.698 7.395-5.088 2.488-9.764 5.086-14.868 7.633-189.599 95.415-415.075 271.496-555.717 597.14-4.841 11.204-9.364 22.871-14.048 34.432m-.061-.017c53.198 28.774 107.273 56.394 163.798 81.008C200.287 1185.51 1282.1 825.86 1806.18-24.143m0 0c-253.49 403.05-626.51 683.669-1044.796 828.229-43.082 14.657-86.5 28.214-130.531 39.586-147.237 38.077-297.107 57.519-443.962 66.91-96.687 6.67-193.917 7.135-290.942.962-5.72-.333-11.423-.724-17.185-1.132-5.201-.383-10.417-.708-15.661-1.166-205.502-16.487-412.828-60.735-611.663-138-45.051-17.5-88.314-37.425-130.798-57.899-10.166-4.933-20.331-9.867-30.406-14.902M1806.18-24.142C1545.39 382.57 1168.76 652.687 752.753 787.569c-43.21 13.486-86.6 26.229-130.562 36.168-149.943 33.817-300.028 46.067-441.995 55.126-97.14 7.181-194.328 8.666-291.011 4.038-5.735-.274-11.395-.591-17.13-.865-5.233-.266-10.406-.516-15.622-.84-204.032-12.558-410.89-50.557-607.527-118.142-44.454-15.257-87.014-33.099-128.783-51.298-9.998-4.384-19.921-8.81-29.903-13.252M1806.18-24.142c-289.95 421.5-681.22 649.5-1088.026 745.432-43.634 8.953-87.021 18.162-130.678 22.501-161.704 16.018-311.715.258-434.104 8.123-98.86 9.119-196.044 14.583-291.418 16.365-5.712.111-11.35.179-17.062.29-5.209.12-10.301.271-15.553.316-198.005 1.431-402.149-9.768-590.658-38.747-41.842-6.413-81.781-15.915-120.766-24.971-9.267-2.168-18.443-4.437-27.695-6.663M1806.18-24.142C1508.93 401.02 1114.04 618.519 709.463 704.757c-43.719 7.857-87.147 16.045-130.707 19.083-164.803 11.337-314.636-11.194-432.138-3.66-99.238 9.585-196.514 16.098-291.487 19.44-5.669.186-11.322.312-17.066.541-5.166.194-10.289.463-15.499.583-196.482 4.932-399.708.419-586.404-18.857-41.154-4.272-80.464-11.648-118.751-18.37-9.174-1.575-18.107-3.337-27.191-5.013M1806.18-24.142C1501.63 404.685 1103.12 611.68 700.846 688.18c-43.846 6.687-87.331 13.912-130.735 15.667-167.961 6.64-317.574-22.587-430.188-15.386-99.691 10.096-196.926 17.63-291.615 22.5-5.7.304-11.31.505-17.086.851-5.198.312-10.278.656-15.46.909-194.913 8.257-397.22 10.429-582.193.958-40.424-2.056-79.09-7.365-116.736-11.77-8.931-1.067-17.772-2.236-26.613-3.405M1806.18-24.142c-319.1 436.228-724.9 622.203-1122.641 679.212-44.058 4.421-87.685 9.588-130.794 8.833-174.433-3.112-323.476-45.507-426.272-38.895-100.521 11.073-197.807 20.676-291.825 28.693-5.69.496-11.289.89-17.053 1.429-5.186.505-10.27 1.099-15.425 1.486-191.732 14.981-391.945 30.277-573.714 40.605-38.915 2.199-76.414 1.243-112.689 1.372-8.596.033-17.026-.079-25.547-.089M1806.18-24.142c-333.7 443.555-746.8 608.509-1139.949 646.102-44.269 2.155-88.065 5.13-130.911 1.984-180.928-13.249-329.318-68.412-422.339-62.464-101.411 12.034-198.705 23.782-291.963 34.844-5.678.688-11.249 1.216-17.017 2.006-5.175.697-10.19 1.5-15.392 2.063-188.609 21.689-386.457 49.804-565.265 80.369-37.391 6.397-73.707 9.734-108.66 14.574-8.201 1.149-16.295 2.137-24.405 3.184M1806.18-24.142C1443.32 434.2 1015.58 557.038 631.617 555.74c-44.693-2.379-88.807-4.097-131.028-11.684-193.821-34.822-341.02-114.162-414.448-109.466a6020.103 6020.103 0 0 0-292.37 47.172c-5.655 1.073-11.188 1.926-16.933 3.102-5.152 1.081-10.085 2.285-15.264 3.233-182.473 34.571-375.6 87.183-548.514 159.733-34.305 14.419-68.218 26.672-100.583 40.917-7.455 3.306-14.877 6.494-22.257 9.757M1806.18-24.142c-370.1 462.022-801.51 574.341-1183.179 563.306-44.821-3.549-88.987-6.481-131.057-15.101-197.052-40.423-343.943-125.614-412.482-121.25-103.526 14.497-200.852 31.54-292.439 50.246-5.67 1.132-11.176 2.12-16.953 3.413-5.109 1.156-10.073 2.478-15.226 3.559-180.989 37.746-373.094 96.188-544.318 179.607-33.63 16.369-66.887 30.88-98.553 47.459a4758.074 4758.074 0 0 0-21.694 11.423M1806.18-24.142C1428.72 441.527 993.736 543.419 614.31 522.63c-44.906-4.646-89.109-8.85-131.086-18.519C283.048 457.928 136.36 367.046 72.692 371.137c-103.919 15.023-201.279 33.13-292.566 53.306-5.702 1.25-11.165 2.312-16.899 3.679-5.141 1.274-10.046 2.612-15.23 3.811-179.372 40.894-370.514 105.15-540.049 199.438-32.895 18.333-65.555 35.088-96.538 54.06-7.102 4.347-14.13 8.651-21.19 13.073M1806.18-24.142c-384.7 469.349-823.419 560.706-1200.487 530.196-45.033-5.816-89.288-11.234-131.115-21.935-203.285-52.005-349.844-148.534-408.565-144.76-104.356 15.475-201.766 34.705-292.651 56.44-5.675 1.384-11.153 2.505-16.919 3.99-5.098 1.349-10.034 2.804-15.191 4.137-177.917 43.935-368.138 113.931-535.839 219.253-32.202 20.224-64.223 39.296-94.522 60.661-6.919 4.838-13.795 9.751-20.671 14.664M1806.18-24.142C1414.17 448.929 971.844 529.725 597.018 489.462c-45.117-6.912-89.394-13.661-131.144-25.353-206.303-57.926-352.782-159.927-406.615-156.484-104.81 15.985-202.193 36.295-292.778 59.5-5.691 1.442-11.126 2.637-16.865 4.256-5.129 1.467-10.023 2.997-15.136 4.405-176.434 47.11-365.852 122.813-531.644 239.127-31.511 22.113-62.891 43.504-92.508 67.261-6.751 5.388-13.4 10.867-20.049 16.346M1806.18-24.142C1406.87 452.593 960.928 522.886 588.386 472.944c-45.245-8.082-89.559-16.104-131.173-28.769-209.305-63.908-355.704-171.379-404.65-168.269-105.202 16.511-202.619 37.885-292.846 62.575-5.663 1.576-11.115 2.83-16.885 4.567-5.086 1.541-9.952 3.205-15.156 4.714-174.919 50.168-363.653 131.547-527.45 259.002-30.803 23.944-61.527 47.594-90.461 73.744-6.583 5.938-13.064 11.967-19.545 17.996M1806.18-24.142c-413.85 484.077-867.086 533.35-1235.102 463.976-45.457-10.348-89.77-20.959-131.231-35.603C224.734 328.097 78.3 209.948 39.114 212.453c-106.093 17.472-203.475 41.065-293.058 68.768-5.653 1.769-11.092 3.215-16.851 5.145-5.133 1.718-9.929 3.589-15.122 5.292-172.007 56.251-359.622 148.978-519.044 298.691-29.628 27.794-58.997 56.037-86.506 86.988-6.231 6.98-12.318 14.124-18.404 21.269M1806.18-24.142c-421.16 487.8-878.076 526.553-1243.776 447.384-45.542-11.445-89.876-23.386-131.32-39.036C213.166 301.828 66.616 178.47 32.317 180.644c-106.47 17.939-203.901 42.655-293.126 71.843-5.668 1.828-11.081 3.408-16.796 5.412-5.107 1.852-9.919 3.782-15.068 5.559-170.552 59.293-357.733 157.691-514.775 318.522-28.951 29.744-57.665 60.245-84.432 93.605-6.063 7.529-11.922 15.24-17.9 22.919M1806.18-24.142C1377.72 467.32 917.187 495.572 553.771 406.724c-45.668-12.615-89.965-25.872-131.348-42.453C201.715 275.59 55.033 147.083 25.606 148.984c-106.923 18.449-204.27 44.261-293.254 74.903-5.641 1.961-11.053 3.541-16.816 5.722-5.122 1.91-9.907 3.974-15.029 5.885-168.989 62.173-355.871 166.271-510.489 338.294-28.453 31.645-56.393 64.438-82.46 100.131-5.88 8.021-11.587 16.34-17.338 24.585M1806.18-24.142C1363.19 474.664 895.295 481.879 536.539 373.57c-45.881-14.881-90.161-30.786-131.407-49.287C179.128 222.884 31.825 84.236 12.29 85.504c-107.753 19.426-205.053 47.65-293.39 81.053-5.63 2.154-11.09 3.91-16.767 6.24-5.11 2.103-9.884 4.36-14.994 6.463-166.255 68.209-352.658 183.925-502.175 378.086-27.32 35.42-53.846 72.822-78.43 113.332-5.544 9.121-10.841 18.497-16.255 27.842M1806.18-24.142c-450.31 502.528-921.817 499.24-1278.332 381.18-46.024-15.993-90.192-33.257-131.436-52.704C167.843 196.501 20.183 52.833 5.536 53.77c-108.206 19.935-205.54 49.224-293.534 84.171-5.661 2.271-11.077 4.103-16.786 6.55-5.068 2.178-9.857 4.493-14.94 6.73-164.912 70.968-351.02 192.634-497.89 397.858-26.777 37.397-52.573 77.014-76.414 119.933-5.36 9.612-10.505 19.597-15.752 29.492M1806.18-24.142C1348.57 482.049 873.388 468.243 519.173 340.445c-46.093-17.147-90.223-35.726-131.466-56.12C156.605 169.942 8.557 21.371-1.203 21.976c-108.642 20.387-205.95 50.755-293.601 87.247-5.618 2.345-11.051 4.236-16.732 6.817-5.099 2.296-9.845 4.686-14.961 7.04-163.401 74.277-349.504 201.564-493.71 417.791-26.219 39.315-51.316 81.265-74.384 126.475-5.192 10.162-10.11 20.713-15.189 31.158M1806.18-24.142c-464.92 509.914-943.709 485.546-1295.64 348.07-46.236-18.259-90.253-38.197-131.494-59.538C145.527 143.489-3.026-10.015-7.914-9.683-116.95 11.229-214.29 42.662-301.583 80.638c-5.65 2.464-11.039 4.429-16.752 7.128-5.056 2.37-9.834 4.878-14.906 7.307-162.177 77.004-348.09 210.402-489.5 437.607-25.661 41.231-50.102 85.441-72.368 133.074-5.025 10.713-9.759 21.755-14.611 32.766m2715.9-722.663c-268.1 410.435-648.4 669.975-1062.102 795.119-43.295 12.39-86.639 24.262-130.59 32.751-152.753 29.466-302.95 34.615-440.046 43.401-97.576 7.632-194.755 10.256-291.138 7.097-5.708-.14-11.384-.399-17.151-.555-5.189-.191-10.394-.323-15.626-.588-202.393-9.025-408.716-40.316-603.139-98.279-43.841-13.073-85.714-28.774-126.827-44.714-9.846-3.774-19.585-7.71-29.341-11.586M1806.18-24.143c-275.4 414.099-659.33 663.195-1070.735 778.601-43.422 11.22-86.737 22.279-130.619 29.335-155.663 25.024-305.872 23.162-438.079 31.616-97.97 8.158-195.163 11.537-291.223 10.231-5.723-.081-11.372-.206-17.096-.287-5.221-.073-10.382-.13-15.587-.262-201.005-5.497-406.662-30.106-599.063-78.437-43.17-10.872-84.398-24.507-124.812-38.113a2357.764 2357.764 0 0 1-28.762-9.979c7.79-2.206 15.49-4.31 23.34-6.5 33.613-9.491 68.72-17.257 104.613-27.716 175.915-51.29 371.304-91.87 556.919-120.043 5.132-.772 10.135-1.767 15.298-2.656 5.757-.983 11.317-1.703 16.984-2.584a11847.416 11847.416 0 0 1 292.174-41.037c83.246-5.285 230.993 62.143 418.423 85.973 42.555 5.404 86.488 4.738 130.97 4.85C1037.49 570.672 1457.93 426.814 1806.18-24.143zm0 0c-282.64 417.778-670.25 656.355-1079.41 762.009-43.506 10.124-86.879 20.22-130.648 25.917-158.633 20.567-308.793 11.711-436.07 19.908-98.408 8.608-195.633 13.051-291.35 13.29a2224.46 2224.46 0 0 0-17.116.023c-5.178.001-10.371.062-15.533.004-199.452-2.112-404.398-19.965-594.778-58.664-42.514-8.613-83.081-20.24-122.781-31.571a2346.604 2346.604 0 0 1-28.258-8.329M1806.18-24.143c-311.85 432.491-714.05 629.026-1114.025 695.789-43.914 5.532-87.515 11.779-130.765 12.249-171.204 1.794-320.495-34.039-428.221-27.17C33.025 667.331-64.227 675.87-158.53 682.359c-5.716.363-11.299.698-17.032 1.119-5.154.386-10.266.848-15.464 1.16-193.301 11.656-394.599 20.412-577.983 20.773-39.677.102-77.773-3.098-114.705-5.227-8.763-.518-17.436-1.137-26.05-1.74M1806.18-24.143C1479.78 415.75 1070.3 591.205 674.848 638.536c-44.185 3.25-87.853 7.396-130.823 5.416-177.689-8.151-326.397-56.96-424.305-50.68C18.745 604.855-78.5 615.48-172.175 625.041c-5.705.555-11.261 1.023-16.997 1.696-5.144.579-10.201 1.307-15.388 1.812-190.221 18.289-389.259 40.025-569.561 60.404-38.153 4.298-75.083 5.452-110.675 7.973-8.428.583-16.69 1.021-24.968 1.518M1806.18-24.143c-341.01 447.278-757.77 601.654-1148.565 629.526-44.397.983-88.277 2.863-130.94-1.434-184.195-18.48-332.24-79.864-420.389-74.189-101.805 12.56-199.116 25.314-292.09 37.904-5.694.747-11.238 1.408-16.963 2.273-5.132.771-10.178 1.692-15.353 2.389-187.142 24.923-383.709 59.316-561.113 100.168-36.613 8.436-72.333 14.017-106.629 21.116-8.033 1.699-15.96 3.237-23.902 4.834M1806.18-24.143c-355.55 454.621-779.62 588.035-1165.872 596.416-44.609-1.283-88.61-1.772-130.998-8.268-190.633-29.296-338.099-102.709-416.414-97.682a7952.82 7952.82 0 0 0-292.302 44.097c-5.682.939-11.215 1.793-16.929 2.85-5.12.964-10.155 2.078-15.318 2.967-184.074 31.364-378.31 77.997-552.724 139.917-35.1 12.439-69.61 22.448-102.599 34.317-7.622 2.756-15.213 5.394-22.76 8.106M1806.18-24.143C1399.57 456.255 949.953 516.03 579.711 456.351c-45.329-9.178-89.664-18.532-131.202-32.187-212.217-69.991-358.625-182.831-402.7-179.993-105.639 16.961-203.046 39.475-292.914 65.65-5.679 1.635-11.103 3.022-16.83 4.834-5.118 1.659-9.942 3.397-15.103 4.981-173.463 53.21-361.57 140.249-523.238 278.817-30.261 25.921-60.286 51.904-88.462 80.404-6.4 6.429-12.654 13.024-18.967 19.603M1806.18-24.143c-435.75 495.127-899.968 512.859-1261.025 414.29-45.812-13.727-90.071-28.3-131.378-45.87-223.363-95.011-370.31-228.64-394.792-227.055-107.375 18.958-204.712 45.91-293.322 77.977-5.656 2.02-11.1 3.718-16.761 5.989-5.095 2.044-9.896 4.167-15.034 6.137-167.667 65.242-354.28 175.157-506.369 358.211-27.878 33.504-55.119 68.63-80.445 106.732-5.712 8.57-11.176 17.397-16.818 26.176" stroke="#fff" stroke-width="2" stroke-miterlimit="10" stroke-linecap="round"/></g><defs><clipPath id="a"><path fill="#fff" d="M0 0h1400v630H0z"/></clipPath></defs></svg>