<svg width="138" height="60" viewBox="0 0 138 60" fill="none" xmlns="http://www.w3.org/2000/svg"><g clip-path="url(#a)" fill="#fff"><path d="M85.608 26.258a3.569 3.569 0 0 1-.884.28 5.869 5.869 0 0 1-1.105.1c-.71 0-1.347-.107-1.906-.318a3.893 3.893 0 0 1-1.424-.917 4.036 4.036 0 0 1-.897-1.438c-.208-.56-.312-1.188-.312-1.89 0-.772.104-1.456.312-2.054a4.09 4.09 0 0 1 .897-1.508c.39-.408.86-.715 1.411-.923a5.164 5.164 0 0 1 1.838-.312c.52 0 .941.037 1.269.11.325.072.595.153.811.239l-.221 1.027a4.505 4.505 0 0 0-.87-.221 5.853 5.853 0 0 0-.872-.065c-1.084 0-1.908.304-2.475.91-.567.605-.853 1.5-.853 2.677 0 .564.081 1.069.242 1.516.161.447.388.824.681 1.13.294.308.656.542 1.08.703.423.161.904.239 1.442.239.286 0 .575-.026.866-.078a2.88 2.88 0 0 0 .775-.247l.195 1.04zM92.9 22.54h-4.03v-1.027h4.03v1.027zm10.282 3.965h-1.17v-8.008h-4.303v8.008h-1.17v-9.1h6.643v9.1zm10.295 0h-1.17v-8.008h-3.119a77.404 77.404 0 0 1-.091 3.466c-.052 1.009-.162 1.859-.331 2.548-.169.689-.418 1.211-.748 1.565-.33.356-.772.533-1.326.533-.122 0-.216-.008-.286-.021a1.74 1.74 0 0 1-.234-.06V25.4a1.802 1.802 0 0 0 .379.039c.234 0 .44-.094.619-.281.177-.187.325-.536.442-1.048.117-.512.208-1.219.273-2.124.065-.905.107-2.082.122-3.53l.013-1.053h5.46v9.102h-.003zm10.334.13c-.58 0-1.11-.097-1.586-.286a3.396 3.396 0 0 1-1.229-.832 3.894 3.894 0 0 1-.812-1.352c-.2-.538-.312-1.152-.338-1.846h-1.559v4.186h-1.17v-9.1h1.17v3.848h1.585a5.5 5.5 0 0 1 .416-1.677 3.98 3.98 0 0 1 .838-1.248 3.581 3.581 0 0 1 1.19-.78c.45-.181.936-.272 1.456-.272 1.282 0 2.283.397 2.998 1.19.715.793 1.071 1.955 1.071 3.49 0 .76-.099 1.437-.291 2.022a4.128 4.128 0 0 1-.819 1.468 3.305 3.305 0 0 1-1.269.89 4.414 4.414 0 0 1-1.651.299zm.104-1.092c.814 0 1.464-.291 1.95-.871.486-.58.728-1.487.728-2.717 0-.676-.07-1.243-.208-1.703-.138-.46-.33-.83-.58-1.112a2.037 2.037 0 0 0-.889-.598 3.557 3.557 0 0 0-1.144-.175c-.372 0-.725.07-1.061.216a2.4 2.4 0 0 0-.878.655c-.252.294-.45.668-.598 1.118-.148.45-.221.983-.221 1.6 0 .623.07 1.161.208 1.61.138.45.335.822.592 1.111.255.291.562.507.916.65a3.16 3.16 0 0 0 1.185.216zm13.311.715a3.57 3.57 0 0 1-.884.28 5.86 5.86 0 0 1-1.105.1c-.709 0-1.346-.107-1.905-.318a3.893 3.893 0 0 1-1.425-.918 4.036 4.036 0 0 1-.897-1.437c-.208-.56-.312-1.188-.312-1.89 0-.773.104-1.456.312-2.054.208-.598.507-1.1.897-1.508a3.76 3.76 0 0 1 1.412-.923 5.165 5.165 0 0 1 1.838-.312c.52 0 .941.037 1.269.11.324.072.595.153.811.238l-.221 1.027a4.51 4.51 0 0 0-.871-.22 5.856 5.856 0 0 0-.871-.066c-1.084 0-1.908.305-2.475.91-.567.606-.853 1.5-.853 2.678 0 .564.081 1.069.242 1.516.161.447.387.824.681 1.13.294.307.655.541 1.079.703.424.16.905.239 1.443.239.286 0 .574-.026.866-.078a2.88 2.88 0 0 0 .774-.247l.195 1.04zM69.86 4.911h-.623v50.27h.624V4.91zm10.16 38.638h-.935V36.26h2.145c.416 0 .79.045 1.12.13.33.086.614.224.848.411.236.188.416.424.54.707.125.286.188.624.188 1.02 0 .756-.245 1.333-.733 1.734-.49.4-1.17.598-2.046.598H80.02v2.688zm0-3.56h1.127c.582 0 1.026-.116 1.328-.353.302-.236.452-.598.452-1.084 0-.5-.15-.86-.452-1.084-.301-.221-.743-.333-1.328-.333H80.02v2.855zm9.183 3.664c-.507 0-.964-.086-1.37-.26a2.934 2.934 0 0 1-1.043-.744 3.253 3.253 0 0 1-.66-1.183 4.974 4.974 0 0 1-.229-1.562c0-.583.081-1.105.24-1.568.158-.463.384-.853.67-1.178a2.905 2.905 0 0 1 1.038-.743c.402-.174.842-.26 1.323-.26.54 0 1.019.09 1.432.276.414.184.76.442 1.043.769.28.33.494.725.64 1.185.145.463.218.968.218 1.516 0 .619-.083 1.162-.25 1.63a3.353 3.353 0 0 1-.686 1.173c-.291.312-.64.548-1.043.707a3.483 3.483 0 0 1-1.323.242zm.094-.874c.686 0 1.227-.242 1.62-.723.392-.483.587-1.198.587-2.15 0-.499-.055-.93-.161-1.292a2.407 2.407 0 0 0-.463-.894c-.2-.237-.447-.41-.733-.52a2.68 2.68 0 0 0-.973-.166c-.32 0-.618.06-.894.176a1.917 1.917 0 0 0-.717.53c-.2.237-.362.536-.479.898a4.13 4.13 0 0 0-.177 1.268c0 .479.058.9.172 1.261.114.362.276.66.484.9.208.239.46.418.754.535.29.117.618.177.98.177zm10.62.572c-.2.099-.437.172-.707.224a4.7 4.7 0 0 1-.884.078c-.57 0-1.076-.086-1.526-.255a3.162 3.162 0 0 1-1.141-.733 3.227 3.227 0 0 1-.718-1.152 4.32 4.32 0 0 1-.25-1.516c0-.618.084-1.167.25-1.645.166-.479.406-.882.718-1.21a3 3 0 0 1 1.128-.738c.442-.166.93-.25 1.474-.25.416 0 .754.03 1.014.09s.478.121.65.192l-.177.821a3.517 3.517 0 0 0-.697-.176 4.918 4.918 0 0 0-.697-.053c-.868 0-1.528.242-1.983.728-.455.487-.681 1.202-.681 2.145 0 .453.065.855.192 1.214.127.356.31.66.546.905.237.247.525.434.863.562.34.127.725.192 1.157.192.229 0 .46-.02.692-.063a2.24 2.24 0 0 0 .618-.197l.159.837zm6.549-1.749h-3.112l-.707 1.947h-.946l2.779-7.288h.936l2.727 7.288h-.978l-.699-1.947zm-2.813-.853h2.509l-1.219-3.424h-.042l-1.248 3.424zm8.309 2.8h-.936v-6.414h-2.155v-.873h5.246v.873h-2.155v6.414zm7.019.104a3.44 3.44 0 0 1-1.37-.26 2.936 2.936 0 0 1-1.043-.744 3.264 3.264 0 0 1-.66-1.183 4.983 4.983 0 0 1-.229-1.562c0-.583.081-1.105.239-1.568a3.46 3.46 0 0 1 .671-1.178 2.907 2.907 0 0 1 1.037-.743 3.3 3.3 0 0 1 1.324-.26c.54 0 1.019.09 1.432.276a2.95 2.95 0 0 1 1.043.769c.28.33.494.725.639 1.185.146.463.219.968.219 1.516 0 .619-.084 1.162-.25 1.63a3.35 3.35 0 0 1-.686 1.173c-.291.312-.64.548-1.043.707a3.49 3.49 0 0 1-1.323.242zm.093-.874c.687 0 1.228-.242 1.62-.723.393-.483.588-1.198.588-2.15 0-.499-.055-.93-.161-1.292a2.416 2.416 0 0 0-.463-.894 1.78 1.78 0 0 0-.733-.52 2.684 2.684 0 0 0-.973-.166c-.319 0-.618.06-.894.176a1.925 1.925 0 0 0-.718.53c-.2.237-.361.536-.478.898a4.13 4.13 0 0 0-.177 1.268c0 .479.058.9.172 1.261.114.362.275.66.483.9.208.239.461.418.754.535.292.117.619.177.98.177zm12.828.77h-.936l-.447-5.696-1.843 5.696h-.978l-1.833-5.676-.457 5.676h-.939l.624-7.288h1.144l1.968 6.269 1.927-6.269h1.143l.627 7.288zm-96.997-9.274a6.267 6.267 0 0 1-8.87.44 6.316 6.316 0 0 1-.445-8.9 6.272 6.272 0 0 1 8.873-.439 6.318 6.318 0 0 1 .442 8.9zM31.88 8.499a21.897 21.897 0 0 1 1.457 1.575c2.527 3.029 3.71 6.003 3.71 6.003 1.611.299 3.12.382 4.523.312.091-.005.174-.005.268-.01.083-.008.161-.019.244-.024 3.11-.28 7.15-1.471 10.841-5.173.128-.128.255-.263.38-.396a31.568 31.568 0 0 0-1.8-1.996C40.778-1.906 24.036-2.836 12.25 5.974c9.247-4.48 15.653-1.388 19.63 2.525zM10.584 39.054c.184-.715.4-1.402.637-2.049 1.36-3.702 3.346-6.213 3.346-6.213a19.352 19.352 0 0 0-1.992-4.074c-.05-.076-.09-.151-.143-.226-.047-.068-.096-.133-.143-.2-1.801-2.556-4.854-5.457-9.905-6.804-.174-.047-.354-.088-.533-.13a31.535 31.535 0 0 0-.832 2.555C-2.875 36.55 4.687 51.517 18.21 57.315c-8.499-5.766-9.024-12.858-7.625-18.26zm37.182 3.2a22.36 22.36 0 0 1-2.093.473c-3.887.674-7.053.21-7.053.21a19.375 19.375 0 0 0-2.532 3.763c-.04.08-.084.156-.123.239-.036.075-.065.148-.101.223-1.313 2.834-2.298 6.929-.939 11.977.047.172.102.351.154.528a30.523 30.523 0 0 0 2.628-.561c14.624-3.944 23.804-17.978 22.062-32.588-.746 10.245-6.624 14.249-12.003 15.736z"/><path d="M12.25 5.974S5.722 10.061 2.312 18.27c.894.155 9.998 1.991 13.39 12.11.83-.531 3.378-2.54 5.089-8.083 2.07-6.7 5.997-11.645 11.09-13.797 0 0-6.45-9.196-19.63-2.525zm20.684 48.244c-.003-3.398.941-7.893 4.713-12.128l.042-.065c-.616-.657-2.771-2.28-8.317-1.016-6.837 1.56-14.38 1.378-18.79-1.958 0 0-4.738 10.186 7.63 18.264 0 0 6.795 3.603 15.595 2.461-.156-.436-.873-2.576-.873-5.558zm21.157-42.451c-.972 1.18-5.595 6.023-13.308 6.028-1.243 0-2.561-.124-3.955-.413l-.064-.016c-.255.934-.466 3.578 3.301 7.636 4.766 5.142 8.382 11.767 7.7 17.252 0 0 11.19-.99 12.001-15.739-.002 0-.278-7.693-5.675-14.748z"/></g><defs><clipPath id="a"><path fill="#fff" d="M0 0h137.239v60H0z"/></clipPath></defs></svg>