<svg width="44" height="44" viewBox="0 0 44 44" fill="none" xmlns="http://www.w3.org/2000/svg"><path d="M38.293 31.082c-1.905-2.582-4.395-4.508-7.02-6.22-2.132-1.385-4.56-1.09-6.818-.186-1.387.555-2.755.621-4.087.219-1.775-.537-3.56-.595-5.372-.6-.777-.003-1.422.268-1.884.878-.258.34 1.857 1.757 3.672 1.757-.336.671-6.202-.75-6.984-.693l-4.437-.568c-1.577-.128-1.575-.724-3.126.152-.053.032-.13.032-.193.028-.862-.05-1.35.224-1.829.795-.277.33-.255.734-.108 1.12.156.402.552.297.876.426 1.985.785 2.626 1.17 5.315 1.833 1.915.474 3.78 1.052 5.69 1.483.79.179 1.593.314 2.306.714 1.513.852 3.123 1.11 4.852 1.032 1.963-.089 3.932-.01 5.898-.022 3.453-.016 6.075 1.366 7.851 4.406L44 37.614c-2.424-2.835-3.49-3.523-5.707-6.532zM20.212 20.623a4.858 4.858 0 0 0 4.858-4.858c0-2.685-4.858-9.4-4.858-9.4s-4.86 6.715-4.86 9.4a4.86 4.86 0 0 0 4.86 4.858zm-3.148-6.9s-.12 2.368 2.436 5.497c0 .001-3.958-1.775-2.436-5.497z" fill="#fff"/></svg>