<svg width="1060" height="643" viewBox="0 0 1060 643" fill="none" xmlns="http://www.w3.org/2000/svg"><path opacity=".5" fill-rule="evenodd" clip-rule="evenodd" d="M2 1a1 1 0 1 1-2 0 1 1 0 0 1 2 0zm12 1a1 1 0 1 0 0-2 1 1 0 0 0 0 2zm14-1a1 1 0 1 1-2 0 1 1 0 0 1 2 0zm12 1a1 1 0 1 0 0-2 1 1 0 0 0 0 2zm14-1a1 1 0 1 1-2 0 1 1 0 0 1 2 0zm12 1a1 1 0 1 0 0-2 1 1 0 0 0 0 2zm14-1a1 1 0 1 1-2 0 1 1 0 0 1 2 0zm12 1a1 1 0 1 0 0-2 1 1 0 0 0 0 2zm14-1a1 1 0 1 1-2 0 1 1 0 0 1 2 0zm12 1a1 1 0 1 0 0-2 1 1 0 0 0 0 2zm14-1a1 1 0 1 1-2 0 1 1 0 0 1 2 0zm12 1a1 1 0 1 0 0-2 1 1 0 0 0 0 2zm14-1a1 1 0 1 1-2 0 1 1 0 0 1 2 0zm12 1a1 1 0 1 0 0-2 1 1 0 0 0 0 2zm14-1a1 1 0 1 1-2 0 1 1 0 0 1 2 0zm12 1a1 1 0 1 0 0-2 1 1 0 0 0 0 2zm13 0a1 1 0 1 0 0-2 1 1 0 0 0 0 2zm0 13a1 1 0 1 0 0-2 1 1 0 0 0 0 2zm1 12a1 1 0 1 1-2 0 1 1 0 0 1 2 0zm-13-13a1 1 0 1 1-2 0 1 1 0 0 1 2 0zm-1 14a1 1 0 1 0 0-2 1 1 0 0 0 0 2zm-13-13a1 1 0 1 0 0-2 1 1 0 0 0 0 2zm1 12a1 1 0 1 1-2 0 1 1 0 0 1 2 0zm-13-13a1 1 0 1 1-2 0 1 1 0 0 1 2 0zm-1 14a1 1 0 1 0 0-2 1 1 0 0 0 0 2zm-13-13a1 1 0 1 0 0-2 1 1 0 0 0 0 2zm1 12a1 1 0 1 1-2 0 1 1 0 0 1 2 0zm-13-13a1 1 0 1 1-2 0 1 1 0 0 1 2 0zm-1 14a1 1 0 1 0 0-2 1 1 0 0 0 0 2zm-13-13a1 1 0 1 0 0-2 1 1 0 0 0 0 2zm1 12a1 1 0 1 1-2 0 1 1 0 0 1 2 0zm-13-13a1 1 0 1 1-2 0 1 1 0 0 1 2 0zm-1 14a1 1 0 1 0 0-2 1 1 0 0 0 0 2zm-13-13a1 1 0 1 0 0-2 1 1 0 0 0 0 2zm1 12a1 1 0 1 1-2 0 1 1 0 0 1 2 0zM93 14a1 1 0 1 1-2 0 1 1 0 0 1 2 0zm-1 14a1 1 0 1 0 0-2 1 1 0 0 0 0 2zM79 15a1 1 0 1 0 0-2 1 1 0 0 0 0 2zm1 12a1 1 0 1 1-2 0 1 1 0 0 1 2 0zM67 14a1 1 0 1 1-2 0 1 1 0 0 1 2 0zm-1 14a1 1 0 1 0 0-2 1 1 0 0 0 0 2zM53 15a1 1 0 1 0 0-2 1 1 0 0 0 0 2zm1 12a1 1 0 1 1-2 0 1 1 0 0 1 2 0zM41 14a1 1 0 1 1-2 0 1 1 0 0 1 2 0zm-1 14a1 1 0 1 0 0-2 1 1 0 0 0 0 2zM27 15a1 1 0 1 0 0-2 1 1 0 0 0 0 2zm1 12a1 1 0 1 1-2 0 1 1 0 0 1 2 0zM15 14a1 1 0 1 1-2 0 1 1 0 0 1 2 0zm-1 14a1 1 0 1 0 0-2 1 1 0 0 0 0 2zM1 15a1 1 0 1 0 0-2 1 1 0 0 0 0 2zm1 12a1 1 0 1 1-2 0 1 1 0 0 1 2 0zm207 14a1 1 0 1 0 0-2 1 1 0 0 0 0 2zm-12-1a1 1 0 1 1-2 0 1 1 0 0 1 2 0zm-14 1a1 1 0 1 0 0-2 1 1 0 0 0 0 2zm-12-1a1 1 0 1 1-2 0 1 1 0 0 1 2 0zm-14 1a1 1 0 1 0 0-2 1 1 0 0 0 0 2zm-12-1a1 1 0 1 1-2 0 1 1 0 0 1 2 0zm-14 1a1 1 0 1 0 0-2 1 1 0 0 0 0 2zm-12-1a1 1 0 1 1-2 0 1 1 0 0 1 2 0zm-14 1a1 1 0 1 0 0-2 1 1 0 0 0 0 2zm-12-1a1 1 0 1 1-2 0 1 1 0 0 1 2 0zm-14 1a1 1 0 1 0 0-2 1 1 0 0 0 0 2zm-12-1a1 1 0 1 1-2 0 1 1 0 0 1 2 0zm-14 1a1 1 0 1 0 0-2 1 1 0 0 0 0 2zm-12-1a1 1 0 1 1-2 0 1 1 0 0 1 2 0zm-14 1a1 1 0 1 0 0-2 1 1 0 0 0 0 2zm-12-1a1 1 0 1 1-2 0 1 1 0 0 1 2 0zM1 41a1 1 0 1 0 0-2 1 1 0 0 0 0 2zm1 12a1 1 0 1 1-2 0 1 1 0 0 1 2 0zm12 1a1 1 0 1 0 0-2 1 1 0 0 0 0 2zm14-1a1 1 0 1 1-2 0 1 1 0 0 1 2 0zm12 1a1 1 0 1 0 0-2 1 1 0 0 0 0 2zm14-1a1 1 0 1 1-2 0 1 1 0 0 1 2 0zm12 1a1 1 0 1 0 0-2 1 1 0 0 0 0 2zm14-1a1 1 0 1 1-2 0 1 1 0 0 1 2 0zm12 1a1 1 0 1 0 0-2 1 1 0 0 0 0 2zm14-1a1 1 0 1 1-2 0 1 1 0 0 1 2 0zm12 1a1 1 0 1 0 0-2 1 1 0 0 0 0 2zm14-1a1 1 0 1 1-2 0 1 1 0 0 1 2 0zm12 1a1 1 0 1 0 0-2 1 1 0 0 0 0 2zm14-1a1 1 0 1 1-2 0 1 1 0 0 1 2 0zm12 1a1 1 0 1 0 0-2 1 1 0 0 0 0 2zm14-1a1 1 0 1 1-2 0 1 1 0 0 1 2 0zm12 1a1 1 0 1 0 0-2 1 1 0 0 0 0 2zm13 0a1 1 0 1 0 0-2 1 1 0 0 0 0 2zm0 13a1 1 0 1 0 0-2 1 1 0 0 0 0 2zm1 12a1 1 0 1 1-2 0 1 1 0 0 1 2 0zm-13-13a1 1 0 1 1-2 0 1 1 0 0 1 2 0zm-1 14a1 1 0 1 0 0-2 1 1 0 0 0 0 2zm-13-13a1 1 0 1 0 0-2 1 1 0 0 0 0 2zm1 12a1 1 0 1 1-2 0 1 1 0 0 1 2 0zm-13-13a1 1 0 1 1-2 0 1 1 0 0 1 2 0zm-1 14a1 1 0 1 0 0-2 1 1 0 0 0 0 2zm-13-13a1 1 0 1 0 0-2 1 1 0 0 0 0 2zm1 12a1 1 0 1 1-2 0 1 1 0 0 1 2 0zm-13-13a1 1 0 1 1-2 0 1 1 0 0 1 2 0zm-1 14a1 1 0 1 0 0-2 1 1 0 0 0 0 2zm-13-13a1 1 0 1 0 0-2 1 1 0 0 0 0 2zm1 12a1 1 0 1 1-2 0 1 1 0 0 1 2 0zm-13-13a1 1 0 1 1-2 0 1 1 0 0 1 2 0zm-1 14a1 1 0 1 0 0-2 1 1 0 0 0 0 2zm-13-13a1 1 0 1 0 0-2 1 1 0 0 0 0 2zm1 12a1 1 0 1 1-2 0 1 1 0 0 1 2 0zM93 66a1 1 0 1 1-2 0 1 1 0 0 1 2 0zm-1 14a1 1 0 1 0 0-2 1 1 0 0 0 0 2zM79 67a1 1 0 1 0 0-2 1 1 0 0 0 0 2zm1 12a1 1 0 1 1-2 0 1 1 0 0 1 2 0zM67 66a1 1 0 1 1-2 0 1 1 0 0 1 2 0zm-1 14a1 1 0 1 0 0-2 1 1 0 0 0 0 2zM53 67a1 1 0 1 0 0-2 1 1 0 0 0 0 2zm1 12a1 1 0 1 1-2 0 1 1 0 0 1 2 0zM41 66a1 1 0 1 1-2 0 1 1 0 0 1 2 0zm-1 14a1 1 0 1 0 0-2 1 1 0 0 0 0 2zM27 67a1 1 0 1 0 0-2 1 1 0 0 0 0 2zm1 12a1 1 0 1 1-2 0 1 1 0 0 1 2 0zM15 66a1 1 0 1 1-2 0 1 1 0 0 1 2 0zm-1 14a1 1 0 1 0 0-2 1 1 0 0 0 0 2zM1 67a1 1 0 1 0 0-2 1 1 0 0 0 0 2zm1 12a1 1 0 1 1-2 0 1 1 0 0 1 2 0zm207 14a1 1 0 1 0 0-2 1 1 0 0 0 0 2zm-12-1a1 1 0 1 1-2 0 1 1 0 0 1 2 0zm-14 1a1 1 0 1 0 0-2 1 1 0 0 0 0 2zm-12-1a1 1 0 1 1-2 0 1 1 0 0 1 2 0zm-14 1a1 1 0 1 0 0-2 1 1 0 0 0 0 2zm-12-1a1 1 0 1 1-2 0 1 1 0 0 1 2 0zm-14 1a1 1 0 1 0 0-2 1 1 0 0 0 0 2zm-12-1a1 1 0 1 1-2 0 1 1 0 0 1 2 0zm-14 1a1 1 0 1 0 0-2 1 1 0 0 0 0 2zm-12-1a1 1 0 1 1-2 0 1 1 0 0 1 2 0zm-14 1a1 1 0 1 0 0-2 1 1 0 0 0 0 2zm-12-1a1 1 0 1 1-2 0 1 1 0 0 1 2 0zm-14 1a1 1 0 1 0 0-2 1 1 0 0 0 0 2zm-12-1a1 1 0 1 1-2 0 1 1 0 0 1 2 0zm-14 1a1 1 0 1 0 0-2 1 1 0 0 0 0 2zm-12-1a1 1 0 1 1-2 0 1 1 0 0 1 2 0zM1 93a1 1 0 1 0 0-2 1 1 0 0 0 0 2zm1 12a1 1 0 1 1-2 0 1 1 0 0 1 2 0zm12 1a1 1 0 1 0 0-2 1 1 0 0 0 0 2zm14-1a1 1 0 1 1-2 0 1 1 0 0 1 2 0zm12 1a1 1 0 1 0 0-2 1 1 0 0 0 0 2zm14-1a1 1 0 1 1-2 0 1 1 0 0 1 2 0zm12 1a1 1 0 1 0 0-2 1 1 0 0 0 0 2zm14-1a1 1 0 1 1-2 0 1 1 0 0 1 2 0zm12 1a1 1 0 1 0 0-2 1 1 0 0 0 0 2zm14-1a1 1 0 1 1-2 0 1 1 0 0 1 2 0zm12 1a1 1 0 1 0 0-2 1 1 0 0 0 0 2zm14-1a1 1 0 1 1-2 0 1 1 0 0 1 2 0zm12 1a1 1 0 1 0 0-2 1 1 0 0 0 0 2zm14-1a1 1 0 1 1-2 0 1 1 0 0 1 2 0zm12 1a1 1 0 1 0 0-2 1 1 0 0 0 0 2zm14-1a1 1 0 1 1-2 0 1 1 0 0 1 2 0zm12 1a1 1 0 1 0 0-2 1 1 0 0 0 0 2zm13 0a1 1 0 1 0 0-2 1 1 0 0 0 0 2zm0 13a1 1 0 1 0 0-2 1 1 0 0 0 0 2zm1 12a1 1 0 1 1-2 0 1 1 0 0 1 2 0zm-13-13a1 1 0 1 1-2 0 1 1 0 0 1 2 0zm-1 14a1 1 0 1 0 0-2 1 1 0 0 0 0 2zm-13-13a1 1 0 1 0 0-2 1 1 0 0 0 0 2zm1 12a1 1 0 1 1-2 0 1 1 0 0 1 2 0zm-13-13a1 1 0 1 1-2 0 1 1 0 0 1 2 0zm-1 14a1 1 0 1 0 0-2 1 1 0 0 0 0 2zm-13-13a1 1 0 1 0 0-2 1 1 0 0 0 0 2zm1 12a1 1 0 1 1-2 0 1 1 0 0 1 2 0zm-13-13a1 1 0 1 1-2 0 1 1 0 0 1 2 0zm-1 14a1 1 0 1 0 0-2 1 1 0 0 0 0 2zm-13-13a1 1 0 1 0 0-2 1 1 0 0 0 0 2zm1 12a1 1 0 1 1-2 0 1 1 0 0 1 2 0zm-13-13a1 1 0 1 1-2 0 1 1 0 0 1 2 0zm-1 14a1 1 0 1 0 0-2 1 1 0 0 0 0 2zm-13-13a1 1 0 1 0 0-2 1 1 0 0 0 0 2zm1 12a1 1 0 1 1-2 0 1 1 0 0 1 2 0zm-13-13a1 1 0 1 1-2 0 1 1 0 0 1 2 0zm-1 14a1 1 0 1 0 0-2 1 1 0 0 0 0 2zm-13-13a1 1 0 1 0 0-2 1 1 0 0 0 0 2zm1 12a1 1 0 1 1-2 0 1 1 0 0 1 2 0zm-13-13a1 1 0 1 1-2 0 1 1 0 0 1 2 0zm-1 14a1 1 0 1 0 0-2 1 1 0 0 0 0 2zm-13-13a1 1 0 1 0 0-2 1 1 0 0 0 0 2zm1 12a1 1 0 1 1-2 0 1 1 0 0 1 2 0zm-13-13a1 1 0 1 1-2 0 1 1 0 0 1 2 0zm-1 14a1 1 0 1 0 0-2 1 1 0 0 0 0 2zm-13-13a1 1 0 1 0 0-2 1 1 0 0 0 0 2zm1 12a1 1 0 1 1-2 0 1 1 0 0 1 2 0zm-13-13a1 1 0 1 1-2 0 1 1 0 0 1 2 0zm-1 14a1 1 0 1 0 0-2 1 1 0 0 0 0 2zM1 119a1 1 0 1 0 0-2 1 1 0 0 0 0 2zm1 12a1 1 0 1 1-2 0 1 1 0 0 1 2 0zm207 14a1 1 0 1 0 0-2 1 1 0 0 0 0 2zm-12-1a1 1 0 1 1-2 0 1 1 0 0 1 2 0zm-14 1a1 1 0 1 0 0-2 1 1 0 0 0 0 2zm-12-1a1 1 0 1 1-2 0 1 1 0 0 1 2 0zm-14 1a1 1 0 1 0 0-2 1 1 0 0 0 0 2zm-12-1a1 1 0 1 1-2 0 1 1 0 0 1 2 0zm-14 1a1 1 0 1 0 0-2 1 1 0 0 0 0 2zm-12-1a1 1 0 1 1-2 0 1 1 0 0 1 2 0zm-14 1a1 1 0 1 0 0-2 1 1 0 0 0 0 2zm-12-1a1 1 0 1 1-2 0 1 1 0 0 1 2 0zm-14 1a1 1 0 1 0 0-2 1 1 0 0 0 0 2zm-12-1a1 1 0 1 1-2 0 1 1 0 0 1 2 0zm-14 1a1 1 0 1 0 0-2 1 1 0 0 0 0 2zm-12-1a1 1 0 1 1-2 0 1 1 0 0 1 2 0zm-14 1a1 1 0 1 0 0-2 1 1 0 0 0 0 2zm-12-1a1 1 0 1 1-2 0 1 1 0 0 1 2 0zm-14 1a1 1 0 1 0 0-2 1 1 0 0 0 0 2zm1 12a1 1 0 1 1-2 0 1 1 0 0 1 2 0zm12 1a1 1 0 1 0 0-2 1 1 0 0 0 0 2zm14-1a1 1 0 1 1-2 0 1 1 0 0 1 2 0zm12 1a1 1 0 1 0 0-2 1 1 0 0 0 0 2zm14-1a1 1 0 1 1-2 0 1 1 0 0 1 2 0zm12 1a1 1 0 1 0 0-2 1 1 0 0 0 0 2zm14-1a1 1 0 1 1-2 0 1 1 0 0 1 2 0zm12 1a1 1 0 1 0 0-2 1 1 0 0 0 0 2zm14-1a1 1 0 1 1-2 0 1 1 0 0 1 2 0zm12 1a1 1 0 1 0 0-2 1 1 0 0 0 0 2zm14-1a1 1 0 1 1-2 0 1 1 0 0 1 2 0zm12 1a1 1 0 1 0 0-2 1 1 0 0 0 0 2zm14-1a1 1 0 1 1-2 0 1 1 0 0 1 2 0zm12 1a1 1 0 1 0 0-2 1 1 0 0 0 0 2zm14-1a1 1 0 1 1-2 0 1 1 0 0 1 2 0zm12 1a1 1 0 1 0 0-2 1 1 0 0 0 0 2zm13 0a1 1 0 1 0 0-2 1 1 0 0 0 0 2zm0 13a1 1 0 1 0 0-2 1 1 0 0 0 0 2zm1 12a1 1 0 1 1-2 0 1 1 0 0 1 2 0zm-13-13a1 1 0 1 1-2 0 1 1 0 0 1 2 0zm-1 14a1 1 0 1 0 0-2 1 1 0 0 0 0 2zm-13-13a1 1 0 1 0 0-2 1 1 0 0 0 0 2zm1 12a1 1 0 1 1-2 0 1 1 0 0 1 2 0zm-13-13a1 1 0 1 1-2 0 1 1 0 0 1 2 0zm-1 14a1 1 0 1 0 0-2 1 1 0 0 0 0 2zm-13-13a1 1 0 1 0 0-2 1 1 0 0 0 0 2zm1 12a1 1 0 1 1-2 0 1 1 0 0 1 2 0zm-13-13a1 1 0 1 1-2 0 1 1 0 0 1 2 0zm-1 14a1 1 0 1 0 0-2 1 1 0 0 0 0 2zm-13-13a1 1 0 1 0 0-2 1 1 0 0 0 0 2zm1 12a1 1 0 1 1-2 0 1 1 0 0 1 2 0zm-13-13a1 1 0 1 1-2 0 1 1 0 0 1 2 0zm-1 14a1 1 0 1 0 0-2 1 1 0 0 0 0 2zm-13-13a1 1 0 1 0 0-2 1 1 0 0 0 0 2zm1 12a1 1 0 1 1-2 0 1 1 0 0 1 2 0zm-13-13a1 1 0 1 1-2 0 1 1 0 0 1 2 0zm-1 14a1 1 0 1 0 0-2 1 1 0 0 0 0 2zm-13-13a1 1 0 1 0 0-2 1 1 0 0 0 0 2zm1 12a1 1 0 1 1-2 0 1 1 0 0 1 2 0zm-13-13a1 1 0 1 1-2 0 1 1 0 0 1 2 0zm-1 14a1 1 0 1 0 0-2 1 1 0 0 0 0 2zm-13-13a1 1 0 1 0 0-2 1 1 0 0 0 0 2zm1 12a1 1 0 1 1-2 0 1 1 0 0 1 2 0zm-13-13a1 1 0 1 1-2 0 1 1 0 0 1 2 0zm-1 14a1 1 0 1 0 0-2 1 1 0 0 0 0 2zm-13-13a1 1 0 1 0 0-2 1 1 0 0 0 0 2zm1 12a1 1 0 1 1-2 0 1 1 0 0 1 2 0zm-13-13a1 1 0 1 1-2 0 1 1 0 0 1 2 0zm-1 14a1 1 0 1 0 0-2 1 1 0 0 0 0 2zM1 171a1 1 0 1 0 0-2 1 1 0 0 0 0 2zm1 12a1 1 0 1 1-2 0 1 1 0 0 1 2 0zm207 14a1 1 0 1 0 0-2 1 1 0 0 0 0 2zm-12-1a1 1 0 1 1-2 0 1 1 0 0 1 2 0zm-14 1a1 1 0 1 0 0-2 1 1 0 0 0 0 2zm-12-1a1 1 0 1 1-2 0 1 1 0 0 1 2 0zm-14 1a1 1 0 1 0 0-2 1 1 0 0 0 0 2zm-12-1a1 1 0 1 1-2 0 1 1 0 0 1 2 0zm-14 1a1 1 0 1 0 0-2 1 1 0 0 0 0 2zm-12-1a1 1 0 1 1-2 0 1 1 0 0 1 2 0zm-14 1a1 1 0 1 0 0-2 1 1 0 0 0 0 2zm-12-1a1 1 0 1 1-2 0 1 1 0 0 1 2 0zm-14 1a1 1 0 1 0 0-2 1 1 0 0 0 0 2zm-12-1a1 1 0 1 1-2 0 1 1 0 0 1 2 0zm-14 1a1 1 0 1 0 0-2 1 1 0 0 0 0 2zm-12-1a1 1 0 1 1-2 0 1 1 0 0 1 2 0zm-14 1a1 1 0 1 0 0-2 1 1 0 0 0 0 2zm-12-1a1 1 0 1 1-2 0 1 1 0 0 1 2 0zm-14 1a1 1 0 1 0 0-2 1 1 0 0 0 0 2zm221-91a1 1 0 1 0 0-2 1 1 0 0 0 0 2zm14-1a1 1 0 1 1-2 0 1 1 0 0 1 2 0zm12 1a1 1 0 1 0 0-2 1 1 0 0 0 0 2zm14-1a1 1 0 1 1-2 0 1 1 0 0 1 2 0zm12 1a1 1 0 1 0 0-2 1 1 0 0 0 0 2zm14-1a1 1 0 1 1-2 0 1 1 0 0 1 2 0zm12 1a1 1 0 1 0 0-2 1 1 0 0 0 0 2zm14-1a1 1 0 1 1-2 0 1 1 0 0 1 2 0zm12 1a1 1 0 1 0 0-2 1 1 0 0 0 0 2zm14-1a1 1 0 1 1-2 0 1 1 0 0 1 2 0zm12 1a1 1 0 1 0 0-2 1 1 0 0 0 0 2zm14-1a1 1 0 1 1-2 0 1 1 0 0 1 2 0zm12 1a1 1 0 1 0 0-2 1 1 0 0 0 0 2zm14-1a1 1 0 1 1-2 0 1 1 0 0 1 2 0zm12 1a1 1 0 1 0 0-2 1 1 0 0 0 0 2zm14-1a1 1 0 1 1-2 0 1 1 0 0 1 2 0zm13 0a1 1 0 1 1-2 0 1 1 0 0 1 2 0zm0 13a1 1 0 1 1-2 0 1 1 0 0 1 2 0zm-1 14a1 1 0 1 0 0-2 1 1 0 0 0 0 2zm-13-13a1 1 0 1 0 0-2 1 1 0 0 0 0 2zm1 12a1 1 0 1 1-2 0 1 1 0 0 1 2 0zm-13-13a1 1 0 1 1-2 0 1 1 0 0 1 2 0zm-1 14a1 1 0 1 0 0-2 1 1 0 0 0 0 2zm-13-13a1 1 0 1 0 0-2 1 1 0 0 0 0 2zm1 12a1 1 0 1 1-2 0 1 1 0 0 1 2 0zm-13-13a1 1 0 1 1-2 0 1 1 0 0 1 2 0zm-1 14a1 1 0 1 0 0-2 1 1 0 0 0 0 2zm-13-13a1 1 0 1 0 0-2 1 1 0 0 0 0 2zm1 12a1 1 0 1 1-2 0 1 1 0 0 1 2 0zm-13-13a1 1 0 1 1-2 0 1 1 0 0 1 2 0zm-1 14a1 1 0 1 0 0-2 1 1 0 0 0 0 2zm-13-13a1 1 0 1 0 0-2 1 1 0 0 0 0 2zm1 12a1 1 0 1 1-2 0 1 1 0 0 1 2 0zm-13-13a1 1 0 1 1-2 0 1 1 0 0 1 2 0zm-1 14a1 1 0 1 0 0-2 1 1 0 0 0 0 2zm-13-13a1 1 0 1 0 0-2 1 1 0 0 0 0 2zm1 12a1 1 0 1 1-2 0 1 1 0 0 1 2 0zm-13-13a1 1 0 1 1-2 0 1 1 0 0 1 2 0zm-1 14a1 1 0 1 0 0-2 1 1 0 0 0 0 2zm-13-13a1 1 0 1 0 0-2 1 1 0 0 0 0 2zm1 12a1 1 0 1 1-2 0 1 1 0 0 1 2 0zm-13-13a1 1 0 1 1-2 0 1 1 0 0 1 2 0zm-1 14a1 1 0 1 0 0-2 1 1 0 0 0 0 2zm-13-13a1 1 0 1 0 0-2 1 1 0 0 0 0 2zm1 12a1 1 0 1 1-2 0 1 1 0 0 1 2 0zm-13-13a1 1 0 1 1-2 0 1 1 0 0 1 2 0zm-1 14a1 1 0 1 0 0-2 1 1 0 0 0 0 2zm-13-13a1 1 0 1 0 0-2 1 1 0 0 0 0 2zm1 12a1 1 0 1 1-2 0 1 1 0 0 1 2 0zm-13-13a1 1 0 1 1-2 0 1 1 0 0 1 2 0zm-1 14a1 1 0 1 0 0-2 1 1 0 0 0 0 2zm209 12a1 1 0 1 1-2 0 1 1 0 0 1 2 0zm-14 1a1 1 0 1 0 0-2 1 1 0 0 0 0 2zm-12-1a1 1 0 1 1-2 0 1 1 0 0 1 2 0zm-14 1a1 1 0 1 0 0-2 1 1 0 0 0 0 2zm-12-1a1 1 0 1 1-2 0 1 1 0 0 1 2 0zm-14 1a1 1 0 1 0 0-2 1 1 0 0 0 0 2zm-12-1a1 1 0 1 1-2 0 1 1 0 0 1 2 0zm-14 1a1 1 0 1 0 0-2 1 1 0 0 0 0 2zm-12-1a1 1 0 1 1-2 0 1 1 0 0 1 2 0zm-14 1a1 1 0 1 0 0-2 1 1 0 0 0 0 2zm-12-1a1 1 0 1 1-2 0 1 1 0 0 1 2 0zm-14 1a1 1 0 1 0 0-2 1 1 0 0 0 0 2zm-12-1a1 1 0 1 1-2 0 1 1 0 0 1 2 0zm-14 1a1 1 0 1 0 0-2 1 1 0 0 0 0 2zm-12-1a1 1 0 1 1-2 0 1 1 0 0 1 2 0zm-14 1a1 1 0 1 0 0-2 1 1 0 0 0 0 2zm-12-1a1 1 0 1 1-2 0 1 1 0 0 1 2 0zm-1 14a1 1 0 1 0 0-2 1 1 0 0 0 0 2zm14-1a1 1 0 1 1-2 0 1 1 0 0 1 2 0zm12 1a1 1 0 1 0 0-2 1 1 0 0 0 0 2zm14-1a1 1 0 1 1-2 0 1 1 0 0 1 2 0zm12 1a1 1 0 1 0 0-2 1 1 0 0 0 0 2zm14-1a1 1 0 1 1-2 0 1 1 0 0 1 2 0zm12 1a1 1 0 1 0 0-2 1 1 0 0 0 0 2zm14-1a1 1 0 1 1-2 0 1 1 0 0 1 2 0zm12 1a1 1 0 1 0 0-2 1 1 0 0 0 0 2zm14-1a1 1 0 1 1-2 0 1 1 0 0 1 2 0zm12 1a1 1 0 1 0 0-2 1 1 0 0 0 0 2zm14-1a1 1 0 1 1-2 0 1 1 0 0 1 2 0zm12 1a1 1 0 1 0 0-2 1 1 0 0 0 0 2zm14-1a1 1 0 1 1-2 0 1 1 0 0 1 2 0zm12 1a1 1 0 1 0 0-2 1 1 0 0 0 0 2zm14-1a1 1 0 1 1-2 0 1 1 0 0 1 2 0zm13 0a1 1 0 1 1-2 0 1 1 0 0 1 2 0zm0 13a1 1 0 1 1-2 0 1 1 0 0 1 2 0zm-1 14a1 1 0 1 0 0-2 1 1 0 0 0 0 2zm-13-13a1 1 0 1 0 0-2 1 1 0 0 0 0 2zm1 12a1 1 0 1 1-2 0 1 1 0 0 1 2 0zm-13-13a1 1 0 1 1-2 0 1 1 0 0 1 2 0zm-1 14a1 1 0 1 0 0-2 1 1 0 0 0 0 2zm-13-13a1 1 0 1 0 0-2 1 1 0 0 0 0 2zm1 12a1 1 0 1 1-2 0 1 1 0 0 1 2 0zm-13-13a1 1 0 1 1-2 0 1 1 0 0 1 2 0zm-1 14a1 1 0 1 0 0-2 1 1 0 0 0 0 2zm-13-13a1 1 0 1 0 0-2 1 1 0 0 0 0 2zm1 12a1 1 0 1 1-2 0 1 1 0 0 1 2 0zm-13-13a1 1 0 1 1-2 0 1 1 0 0 1 2 0zm-1 14a1 1 0 1 0 0-2 1 1 0 0 0 0 2zm-13-13a1 1 0 1 0 0-2 1 1 0 0 0 0 2zm1 12a1 1 0 1 1-2 0 1 1 0 0 1 2 0zm-13-13a1 1 0 1 1-2 0 1 1 0 0 1 2 0zm-1 14a1 1 0 1 0 0-2 1 1 0 0 0 0 2zm-13-13a1 1 0 1 0 0-2 1 1 0 0 0 0 2zm1 12a1 1 0 1 1-2 0 1 1 0 0 1 2 0zm-13-13a1 1 0 1 1-2 0 1 1 0 0 1 2 0zm-1 14a1 1 0 1 0 0-2 1 1 0 0 0 0 2zm-13-13a1 1 0 1 0 0-2 1 1 0 0 0 0 2zm1 12a1 1 0 1 1-2 0 1 1 0 0 1 2 0zm-13-13a1 1 0 1 1-2 0 1 1 0 0 1 2 0zm-1 14a1 1 0 1 0 0-2 1 1 0 0 0 0 2zm-13-13a1 1 0 1 0 0-2 1 1 0 0 0 0 2zm1 12a1 1 0 1 1-2 0 1 1 0 0 1 2 0zm-13-13a1 1 0 1 1-2 0 1 1 0 0 1 2 0zm-1 14a1 1 0 1 0 0-2 1 1 0 0 0 0 2zm-13-13a1 1 0 1 0 0-2 1 1 0 0 0 0 2zm1 12a1 1 0 1 1-2 0 1 1 0 0 1 2 0zm-13-13a1 1 0 1 1-2 0 1 1 0 0 1 2 0zm-1 14a1 1 0 1 0 0-2 1 1 0 0 0 0 2zm209 12a1 1 0 1 1-2 0 1 1 0 0 1 2 0zm-14 1a1 1 0 1 0 0-2 1 1 0 0 0 0 2zm-12-1a1 1 0 1 1-2 0 1 1 0 0 1 2 0zm-14 1a1 1 0 1 0 0-2 1 1 0 0 0 0 2zm-12-1a1 1 0 1 1-2 0 1 1 0 0 1 2 0zm-14 1a1 1 0 1 0 0-2 1 1 0 0 0 0 2zm-12-1a1 1 0 1 1-2 0 1 1 0 0 1 2 0zm-14 1a1 1 0 1 0 0-2 1 1 0 0 0 0 2zm-12-1a1 1 0 1 1-2 0 1 1 0 0 1 2 0zm-14 1a1 1 0 1 0 0-2 1 1 0 0 0 0 2zm-12-1a1 1 0 1 1-2 0 1 1 0 0 1 2 0zm-14 1a1 1 0 1 0 0-2 1 1 0 0 0 0 2zm-12-1a1 1 0 1 1-2 0 1 1 0 0 1 2 0zm-14 1a1 1 0 1 0 0-2 1 1 0 0 0 0 2zm-12-1a1 1 0 1 1-2 0 1 1 0 0 1 2 0zm-14 1a1 1 0 1 0 0-2 1 1 0 0 0 0 2zm-12-1a1 1 0 1 1-2 0 1 1 0 0 1 2 0zm0-195a1 1 0 1 1-2 0 1 1 0 0 1 2 0zm12 1a1 1 0 1 0 0-2 1 1 0 0 0 0 2zm14-1a1 1 0 1 1-2 0 1 1 0 0 1 2 0zm12 1a1 1 0 1 0 0-2 1 1 0 0 0 0 2zm14-1a1 1 0 1 1-2 0 1 1 0 0 1 2 0zm12 1a1 1 0 1 0 0-2 1 1 0 0 0 0 2zm14-1a1 1 0 1 1-2 0 1 1 0 0 1 2 0zm12 1a1 1 0 1 0 0-2 1 1 0 0 0 0 2zm14-1a1 1 0 1 1-2 0 1 1 0 0 1 2 0zm12 1a1 1 0 1 0 0-2 1 1 0 0 0 0 2zm14-1a1 1 0 1 1-2 0 1 1 0 0 1 2 0zm12 1a1 1 0 1 0 0-2 1 1 0 0 0 0 2zm14-1a1 1 0 1 1-2 0 1 1 0 0 1 2 0zm12 1a1 1 0 1 0 0-2 1 1 0 0 0 0 2zm14-1a1 1 0 1 1-2 0 1 1 0 0 1 2 0zm12 1a1 1 0 1 0 0-2 1 1 0 0 0 0 2zm13 0a1 1 0 1 0 0-2 1 1 0 0 0 0 2zm0 13a1 1 0 1 0 0-2 1 1 0 0 0 0 2zm1 12a1 1 0 1 1-2 0 1 1 0 0 1 2 0zm-13-13a1 1 0 1 1-2 0 1 1 0 0 1 2 0zm-1 14a1 1 0 1 0 0-2 1 1 0 0 0 0 2zm-13-13a1 1 0 1 0 0-2 1 1 0 0 0 0 2zm1 12a1 1 0 1 1-2 0 1 1 0 0 1 2 0zm-13-13a1 1 0 1 1-2 0 1 1 0 0 1 2 0zm-1 14a1 1 0 1 0 0-2 1 1 0 0 0 0 2zm-13-13a1 1 0 1 0 0-2 1 1 0 0 0 0 2zm1 12a1 1 0 1 1-2 0 1 1 0 0 1 2 0zm-13-13a1 1 0 1 1-2 0 1 1 0 0 1 2 0zm-1 14a1 1 0 1 0 0-2 1 1 0 0 0 0 2zm-13-13a1 1 0 1 0 0-2 1 1 0 0 0 0 2zm1 12a1 1 0 1 1-2 0 1 1 0 0 1 2 0zm-13-13a1 1 0 1 1-2 0 1 1 0 0 1 2 0zm-1 14a1 1 0 1 0 0-2 1 1 0 0 0 0 2zm-13-13a1 1 0 1 0 0-2 1 1 0 0 0 0 2zm1 12a1 1 0 1 1-2 0 1 1 0 0 1 2 0zm-13-13a1 1 0 1 1-2 0 1 1 0 0 1 2 0zm-1 14a1 1 0 1 0 0-2 1 1 0 0 0 0 2zm-13-13a1 1 0 1 0 0-2 1 1 0 0 0 0 2zm1 12a1 1 0 1 1-2 0 1 1 0 0 1 2 0zm-13-13a1 1 0 1 1-2 0 1 1 0 0 1 2 0zm-1 14a1 1 0 1 0 0-2 1 1 0 0 0 0 2zm-13-13a1 1 0 1 0 0-2 1 1 0 0 0 0 2zm1 12a1 1 0 1 1-2 0 1 1 0 0 1 2 0zm-13-13a1 1 0 1 1-2 0 1 1 0 0 1 2 0zm-1 14a1 1 0 1 0 0-2 1 1 0 0 0 0 2zm-13-13a1 1 0 1 0 0-2 1 1 0 0 0 0 2zm1 12a1 1 0 1 1-2 0 1 1 0 0 1 2 0zm-13-13a1 1 0 1 1-2 0 1 1 0 0 1 2 0zm-1 14a1 1 0 1 0 0-2 1 1 0 0 0 0 2zm-13-13a1 1 0 1 0 0-2 1 1 0 0 0 0 2zm1 12a1 1 0 1 1-2 0 1 1 0 0 1 2 0zm207 14a1 1 0 1 0 0-2 1 1 0 0 0 0 2zm-12-1a1 1 0 1 1-2 0 1 1 0 0 1 2 0zm-14 1a1 1 0 1 0 0-2 1 1 0 0 0 0 2zm-12-1a1 1 0 1 1-2 0 1 1 0 0 1 2 0zm-14 1a1 1 0 1 0 0-2 1 1 0 0 0 0 2zm-12-1a1 1 0 1 1-2 0 1 1 0 0 1 2 0zm-14 1a1 1 0 1 0 0-2 1 1 0 0 0 0 2zm-12-1a1 1 0 1 1-2 0 1 1 0 0 1 2 0zm-14 1a1 1 0 1 0 0-2 1 1 0 0 0 0 2zm-12-1a1 1 0 1 1-2 0 1 1 0 0 1 2 0zm-14 1a1 1 0 1 0 0-2 1 1 0 0 0 0 2zm-12-1a1 1 0 1 1-2 0 1 1 0 0 1 2 0zm-14 1a1 1 0 1 0 0-2 1 1 0 0 0 0 2zm-12-1a1 1 0 1 1-2 0 1 1 0 0 1 2 0zm-14 1a1 1 0 1 0 0-2 1 1 0 0 0 0 2zm-12-1a1 1 0 1 1-2 0 1 1 0 0 1 2 0zm-14 1a1 1 0 1 0 0-2 1 1 0 0 0 0 2zm1 12a1 1 0 1 1-2 0 1 1 0 0 1 2 0zm12 1a1 1 0 1 0 0-2 1 1 0 0 0 0 2zm14-1a1 1 0 1 1-2 0 1 1 0 0 1 2 0zm12 1a1 1 0 1 0 0-2 1 1 0 0 0 0 2zm14-1a1 1 0 1 1-2 0 1 1 0 0 1 2 0zm12 1a1 1 0 1 0 0-2 1 1 0 0 0 0 2zm14-1a1 1 0 1 1-2 0 1 1 0 0 1 2 0zm12 1a1 1 0 1 0 0-2 1 1 0 0 0 0 2zm14-1a1 1 0 1 1-2 0 1 1 0 0 1 2 0zm12 1a1 1 0 1 0 0-2 1 1 0 0 0 0 2zm14-1a1 1 0 1 1-2 0 1 1 0 0 1 2 0zm12 1a1 1 0 1 0 0-2 1 1 0 0 0 0 2zm14-1a1 1 0 1 1-2 0 1 1 0 0 1 2 0zm12 1a1 1 0 1 0 0-2 1 1 0 0 0 0 2zm14-1a1 1 0 1 1-2 0 1 1 0 0 1 2 0zm12 1a1 1 0 1 0 0-2 1 1 0 0 0 0 2zm13 0a1 1 0 1 0 0-2 1 1 0 0 0 0 2zm0 13a1 1 0 1 0 0-2 1 1 0 0 0 0 2zm1 12a1 1 0 1 1-2 0 1 1 0 0 1 2 0zm-13-13a1 1 0 1 1-2 0 1 1 0 0 1 2 0zm-1 14a1 1 0 1 0 0-2 1 1 0 0 0 0 2zm-13-13a1 1 0 1 0 0-2 1 1 0 0 0 0 2zm1 12a1 1 0 1 1-2 0 1 1 0 0 1 2 0zm-13-13a1 1 0 1 1-2 0 1 1 0 0 1 2 0zm-1 14a1 1 0 1 0 0-2 1 1 0 0 0 0 2zm-13-13a1 1 0 1 0 0-2 1 1 0 0 0 0 2zm1 12a1 1 0 1 1-2 0 1 1 0 0 1 2 0zm-13-13a1 1 0 1 1-2 0 1 1 0 0 1 2 0zm-1 14a1 1 0 1 0 0-2 1 1 0 0 0 0 2zm-13-13a1 1 0 1 0 0-2 1 1 0 0 0 0 2zm1 12a1 1 0 1 1-2 0 1 1 0 0 1 2 0zm-13-13a1 1 0 1 1-2 0 1 1 0 0 1 2 0zm-1 14a1 1 0 1 0 0-2 1 1 0 0 0 0 2zm-13-13a1 1 0 1 0 0-2 1 1 0 0 0 0 2zm1 12a1 1 0 1 1-2 0 1 1 0 0 1 2 0zm-13-13a1 1 0 1 1-2 0 1 1 0 0 1 2 0zm-1 14a1 1 0 1 0 0-2 1 1 0 0 0 0 2zm-13-13a1 1 0 1 0 0-2 1 1 0 0 0 0 2zm1 12a1 1 0 1 1-2 0 1 1 0 0 1 2 0zm-13-13a1 1 0 1 1-2 0 1 1 0 0 1 2 0zm-1 14a1 1 0 1 0 0-2 1 1 0 0 0 0 2zm-13-13a1 1 0 1 0 0-2 1 1 0 0 0 0 2zm1 12a1 1 0 1 1-2 0 1 1 0 0 1 2 0zm-13-13a1 1 0 1 1-2 0 1 1 0 0 1 2 0zm-1 14a1 1 0 1 0 0-2 1 1 0 0 0 0 2zm-13-13a1 1 0 1 0 0-2 1 1 0 0 0 0 2zm1 12a1 1 0 1 1-2 0 1 1 0 0 1 2 0zm-13-13a1 1 0 1 1-2 0 1 1 0 0 1 2 0zm-1 14a1 1 0 1 0 0-2 1 1 0 0 0 0 2zm-13-13a1 1 0 1 0 0-2 1 1 0 0 0 0 2zm1 12a1 1 0 1 1-2 0 1 1 0 0 1 2 0zm207 14a1 1 0 1 0 0-2 1 1 0 0 0 0 2zm-12-1a1 1 0 1 1-2 0 1 1 0 0 1 2 0zm-14 1a1 1 0 1 0 0-2 1 1 0 0 0 0 2zm-12-1a1 1 0 1 1-2 0 1 1 0 0 1 2 0zm-14 1a1 1 0 1 0 0-2 1 1 0 0 0 0 2zm-12-1a1 1 0 1 1-2 0 1 1 0 0 1 2 0zm-14 1a1 1 0 1 0 0-2 1 1 0 0 0 0 2zm-12-1a1 1 0 1 1-2 0 1 1 0 0 1 2 0zm-14 1a1 1 0 1 0 0-2 1 1 0 0 0 0 2zm-12-1a1 1 0 1 1-2 0 1 1 0 0 1 2 0zm-14 1a1 1 0 1 0 0-2 1 1 0 0 0 0 2zm-12-1a1 1 0 1 1-2 0 1 1 0 0 1 2 0zm-14 1a1 1 0 1 0 0-2 1 1 0 0 0 0 2zm-12-1a1 1 0 1 1-2 0 1 1 0 0 1 2 0zm-14 1a1 1 0 1 0 0-2 1 1 0 0 0 0 2zm-12-1a1 1 0 1 1-2 0 1 1 0 0 1 2 0zm-14 1a1 1 0 1 0 0-2 1 1 0 0 0 0 2zm409 354a1 1 0 1 1-2 0 1 1 0 0 1 2 0zm12 1a1 1 0 1 0 0-2 1 1 0 0 0 0 2zm14-1a1 1 0 1 1-2 0 1 1 0 0 1 2 0zm12 1a1 1 0 1 0 0-2 1 1 0 0 0 0 2zm14-1a1 1 0 1 1-2 0 1 1 0 0 1 2 0zm12 1a1 1 0 1 0 0-2 1 1 0 0 0 0 2zm14-1a1 1 0 1 1-2 0 1 1 0 0 1 2 0zm12 1a1 1 0 1 0 0-2 1 1 0 0 0 0 2zm14-1a1 1 0 1 1-2 0 1 1 0 0 1 2 0zm12 1a1 1 0 1 0 0-2 1 1 0 0 0 0 2zm14-1a1 1 0 1 1-2 0 1 1 0 0 1 2 0zm12 1a1 1 0 1 0 0-2 1 1 0 0 0 0 2zm14-1a1 1 0 1 1-2 0 1 1 0 0 1 2 0zm12 1a1 1 0 1 0 0-2 1 1 0 0 0 0 2zm14-1a1 1 0 1 1-2 0 1 1 0 0 1 2 0zm12 1a1 1 0 1 0 0-2 1 1 0 0 0 0 2zm13 0a1 1 0 1 0 0-2 1 1 0 0 0 0 2zm0 13a1 1 0 1 0 0-2 1 1 0 0 0 0 2zm1 12a1 1 0 1 1-2 0 1 1 0 0 1 2 0zm-13-13a1 1 0 1 1-2 0 1 1 0 0 1 2 0zm-1 14a1 1 0 1 0 0-2 1 1 0 0 0 0 2zm-13-13a1 1 0 1 0 0-2 1 1 0 0 0 0 2zm1 12a1 1 0 1 1-2 0 1 1 0 0 1 2 0zm-13-13a1 1 0 1 1-2 0 1 1 0 0 1 2 0zm-1 14a1 1 0 1 0 0-2 1 1 0 0 0 0 2zm-13-13a1 1 0 1 0 0-2 1 1 0 0 0 0 2zm1 12a1 1 0 1 1-2 0 1 1 0 0 1 2 0zm-13-13a1 1 0 1 1-2 0 1 1 0 0 1 2 0zm-1 14a1 1 0 1 0 0-2 1 1 0 0 0 0 2zm-13-13a1 1 0 1 0 0-2 1 1 0 0 0 0 2zm1 12a1 1 0 1 1-2 0 1 1 0 0 1 2 0zm-13-13a1 1 0 1 1-2 0 1 1 0 0 1 2 0zm-1 14a1 1 0 1 0 0-2 1 1 0 0 0 0 2zm-13-13a1 1 0 1 0 0-2 1 1 0 0 0 0 2zm1 12a1 1 0 1 1-2 0 1 1 0 0 1 2 0zm-13-13a1 1 0 1 1-2 0 1 1 0 0 1 2 0zm-1 14a1 1 0 1 0 0-2 1 1 0 0 0 0 2zm-13-13a1 1 0 1 0 0-2 1 1 0 0 0 0 2zm1 12a1 1 0 1 1-2 0 1 1 0 0 1 2 0zm-13-13a1 1 0 1 1-2 0 1 1 0 0 1 2 0zm-1 14a1 1 0 1 0 0-2 1 1 0 0 0 0 2zm-13-13a1 1 0 1 0 0-2 1 1 0 0 0 0 2zm1 12a1 1 0 1 1-2 0 1 1 0 0 1 2 0zm-13-13a1 1 0 1 1-2 0 1 1 0 0 1 2 0zm-1 14a1 1 0 1 0 0-2 1 1 0 0 0 0 2zm-13-13a1 1 0 1 0 0-2 1 1 0 0 0 0 2zm1 12a1 1 0 1 1-2 0 1 1 0 0 1 2 0zm-13-13a1 1 0 1 1-2 0 1 1 0 0 1 2 0zm-1 14a1 1 0 1 0 0-2 1 1 0 0 0 0 2zm-13-13a1 1 0 1 0 0-2 1 1 0 0 0 0 2zm1 12a1 1 0 1 1-2 0 1 1 0 0 1 2 0zm207 14a1 1 0 1 0 0-2 1 1 0 0 0 0 2zm-12-1a1 1 0 1 1-2 0 1 1 0 0 1 2 0zm-14 1a1 1 0 1 0 0-2 1 1 0 0 0 0 2zm-12-1a1 1 0 1 1-2 0 1 1 0 0 1 2 0zm-14 1a1 1 0 1 0 0-2 1 1 0 0 0 0 2zm-12-1a1 1 0 1 1-2 0 1 1 0 0 1 2 0zm-14 1a1 1 0 1 0 0-2 1 1 0 0 0 0 2zm-12-1a1 1 0 1 1-2 0 1 1 0 0 1 2 0zm-14 1a1 1 0 1 0 0-2 1 1 0 0 0 0 2zm-12-1a1 1 0 1 1-2 0 1 1 0 0 1 2 0zm-14 1a1 1 0 1 0 0-2 1 1 0 0 0 0 2zm-12-1a1 1 0 1 1-2 0 1 1 0 0 1 2 0zm-14 1a1 1 0 1 0 0-2 1 1 0 0 0 0 2zm-12-1a1 1 0 1 1-2 0 1 1 0 0 1 2 0zm-14 1a1 1 0 1 0 0-2 1 1 0 0 0 0 2zm-12-1a1 1 0 1 1-2 0 1 1 0 0 1 2 0zm-14 1a1 1 0 1 0 0-2 1 1 0 0 0 0 2zm1 12a1 1 0 1 1-2 0 1 1 0 0 1 2 0zm12 1a1 1 0 1 0 0-2 1 1 0 0 0 0 2zm14-1a1 1 0 1 1-2 0 1 1 0 0 1 2 0zm12 1a1 1 0 1 0 0-2 1 1 0 0 0 0 2zm14-1a1 1 0 1 1-2 0 1 1 0 0 1 2 0zm12 1a1 1 0 1 0 0-2 1 1 0 0 0 0 2zm14-1a1 1 0 1 1-2 0 1 1 0 0 1 2 0zm12 1a1 1 0 1 0 0-2 1 1 0 0 0 0 2zm14-1a1 1 0 1 1-2 0 1 1 0 0 1 2 0zm12 1a1 1 0 1 0 0-2 1 1 0 0 0 0 2zm14-1a1 1 0 1 1-2 0 1 1 0 0 1 2 0zm12 1a1 1 0 1 0 0-2 1 1 0 0 0 0 2zm14-1a1 1 0 1 1-2 0 1 1 0 0 1 2 0zm12 1a1 1 0 1 0 0-2 1 1 0 0 0 0 2zm14-1a1 1 0 1 1-2 0 1 1 0 0 1 2 0zm12 1a1 1 0 1 0 0-2 1 1 0 0 0 0 2zm13 0a1 1 0 1 0 0-2 1 1 0 0 0 0 2zm0 13a1 1 0 1 0 0-2 1 1 0 0 0 0 2zm1 12a1 1 0 1 1-2 0 1 1 0 0 1 2 0zm-13-13a1 1 0 1 1-2 0 1 1 0 0 1 2 0zm-1 14a1 1 0 1 0 0-2 1 1 0 0 0 0 2zm-13-13a1 1 0 1 0 0-2 1 1 0 0 0 0 2zm1 12a1 1 0 1 1-2 0 1 1 0 0 1 2 0zm-13-13a1 1 0 1 1-2 0 1 1 0 0 1 2 0zm-1 14a1 1 0 1 0 0-2 1 1 0 0 0 0 2zm-13-13a1 1 0 1 0 0-2 1 1 0 0 0 0 2zm1 12a1 1 0 1 1-2 0 1 1 0 0 1 2 0zm-13-13a1 1 0 1 1-2 0 1 1 0 0 1 2 0zm-1 14a1 1 0 1 0 0-2 1 1 0 0 0 0 2zm-13-13a1 1 0 1 0 0-2 1 1 0 0 0 0 2zm1 12a1 1 0 1 1-2 0 1 1 0 0 1 2 0zm-13-13a1 1 0 1 1-2 0 1 1 0 0 1 2 0zm-1 14a1 1 0 1 0 0-2 1 1 0 0 0 0 2zm-13-13a1 1 0 1 0 0-2 1 1 0 0 0 0 2zm1 12a1 1 0 1 1-2 0 1 1 0 0 1 2 0zm-13-13a1 1 0 1 1-2 0 1 1 0 0 1 2 0zm-1 14a1 1 0 1 0 0-2 1 1 0 0 0 0 2zm-13-13a1 1 0 1 0 0-2 1 1 0 0 0 0 2zm1 12a1 1 0 1 1-2 0 1 1 0 0 1 2 0zm-13-13a1 1 0 1 1-2 0 1 1 0 0 1 2 0zm-1 14a1 1 0 1 0 0-2 1 1 0 0 0 0 2zm-13-13a1 1 0 1 0 0-2 1 1 0 0 0 0 2zm1 12a1 1 0 1 1-2 0 1 1 0 0 1 2 0zm-13-13a1 1 0 1 1-2 0 1 1 0 0 1 2 0zm-1 14a1 1 0 1 0 0-2 1 1 0 0 0 0 2zm-13-13a1 1 0 1 0 0-2 1 1 0 0 0 0 2zm1 12a1 1 0 1 1-2 0 1 1 0 0 1 2 0zm-13-13a1 1 0 1 1-2 0 1 1 0 0 1 2 0zm-1 14a1 1 0 1 0 0-2 1 1 0 0 0 0 2zm-13-13a1 1 0 1 0 0-2 1 1 0 0 0 0 2zm1 12a1 1 0 1 1-2 0 1 1 0 0 1 2 0zm207 14a1 1 0 1 0 0-2 1 1 0 0 0 0 2zm-12-1a1 1 0 1 1-2 0 1 1 0 0 1 2 0zm-14 1a1 1 0 1 0 0-2 1 1 0 0 0 0 2zm-12-1a1 1 0 1 1-2 0 1 1 0 0 1 2 0zm-14 1a1 1 0 1 0 0-2 1 1 0 0 0 0 2zm-12-1a1 1 0 1 1-2 0 1 1 0 0 1 2 0zm-14 1a1 1 0 1 0 0-2 1 1 0 0 0 0 2zm-12-1a1 1 0 1 1-2 0 1 1 0 0 1 2 0zm-14 1a1 1 0 1 0 0-2 1 1 0 0 0 0 2zm-12-1a1 1 0 1 1-2 0 1 1 0 0 1 2 0zm-14 1a1 1 0 1 0 0-2 1 1 0 0 0 0 2zm-12-1a1 1 0 1 1-2 0 1 1 0 0 1 2 0zm-14 1a1 1 0 1 0 0-2 1 1 0 0 0 0 2zm-12-1a1 1 0 1 1-2 0 1 1 0 0 1 2 0zm-14 1a1 1 0 1 0 0-2 1 1 0 0 0 0 2zm-12-1a1 1 0 1 1-2 0 1 1 0 0 1 2 0zm-14 1a1 1 0 1 0 0-2 1 1 0 0 0 0 2zm1 12a1 1 0 1 1-2 0 1 1 0 0 1 2 0zm12 1a1 1 0 1 0 0-2 1 1 0 0 0 0 2zm14-1a1 1 0 1 1-2 0 1 1 0 0 1 2 0zm12 1a1 1 0 1 0 0-2 1 1 0 0 0 0 2zm14-1a1 1 0 1 1-2 0 1 1 0 0 1 2 0zm12 1a1 1 0 1 0 0-2 1 1 0 0 0 0 2zm14-1a1 1 0 1 1-2 0 1 1 0 0 1 2 0zm12 1a1 1 0 1 0 0-2 1 1 0 0 0 0 2zm14-1a1 1 0 1 1-2 0 1 1 0 0 1 2 0zm12 1a1 1 0 1 0 0-2 1 1 0 0 0 0 2zm14-1a1 1 0 1 1-2 0 1 1 0 0 1 2 0zm12 1a1 1 0 1 0 0-2 1 1 0 0 0 0 2zm14-1a1 1 0 1 1-2 0 1 1 0 0 1 2 0zm12 1a1 1 0 1 0 0-2 1 1 0 0 0 0 2zm14-1a1 1 0 1 1-2 0 1 1 0 0 1 2 0zm12 1a1 1 0 1 0 0-2 1 1 0 0 0 0 2zm13 0a1 1 0 1 0 0-2 1 1 0 0 0 0 2zm0 13a1 1 0 1 0 0-2 1 1 0 0 0 0 2zm1 12a1 1 0 1 1-2 0 1 1 0 0 1 2 0zm-13-13a1 1 0 1 1-2 0 1 1 0 0 1 2 0zm-1 14a1 1 0 1 0 0-2 1 1 0 0 0 0 2zm-13-13a1 1 0 1 0 0-2 1 1 0 0 0 0 2zm1 12a1 1 0 1 1-2 0 1 1 0 0 1 2 0zm-13-13a1 1 0 1 1-2 0 1 1 0 0 1 2 0zm-1 14a1 1 0 1 0 0-2 1 1 0 0 0 0 2zm-13-13a1 1 0 1 0 0-2 1 1 0 0 0 0 2zm1 12a1 1 0 1 1-2 0 1 1 0 0 1 2 0zm-13-13a1 1 0 1 1-2 0 1 1 0 0 1 2 0zm-1 14a1 1 0 1 0 0-2 1 1 0 0 0 0 2zm-13-13a1 1 0 1 0 0-2 1 1 0 0 0 0 2zm1 12a1 1 0 1 1-2 0 1 1 0 0 1 2 0zm-13-13a1 1 0 1 1-2 0 1 1 0 0 1 2 0zm-1 14a1 1 0 1 0 0-2 1 1 0 0 0 0 2zm-13-13a1 1 0 1 0 0-2 1 1 0 0 0 0 2zm1 12a1 1 0 1 1-2 0 1 1 0 0 1 2 0zm-13-13a1 1 0 1 1-2 0 1 1 0 0 1 2 0zm-1 14a1 1 0 1 0 0-2 1 1 0 0 0 0 2zm-13-13a1 1 0 1 0 0-2 1 1 0 0 0 0 2zm1 12a1 1 0 1 1-2 0 1 1 0 0 1 2 0zm-13-13a1 1 0 1 1-2 0 1 1 0 0 1 2 0zm-1 14a1 1 0 1 0 0-2 1 1 0 0 0 0 2zm-13-13a1 1 0 1 0 0-2 1 1 0 0 0 0 2zm1 12a1 1 0 1 1-2 0 1 1 0 0 1 2 0zm-13-13a1 1 0 1 1-2 0 1 1 0 0 1 2 0zm-1 14a1 1 0 1 0 0-2 1 1 0 0 0 0 2zm-13-13a1 1 0 1 0 0-2 1 1 0 0 0 0 2zm1 12a1 1 0 1 1-2 0 1 1 0 0 1 2 0zm-13-13a1 1 0 1 1-2 0 1 1 0 0 1 2 0zm-1 14a1 1 0 1 0 0-2 1 1 0 0 0 0 2zm-13-13a1 1 0 1 0 0-2 1 1 0 0 0 0 2zm1 12a1 1 0 1 1-2 0 1 1 0 0 1 2 0zm207 14a1 1 0 1 0 0-2 1 1 0 0 0 0 2zm-12-1a1 1 0 1 1-2 0 1 1 0 0 1 2 0zm-14 1a1 1 0 1 0 0-2 1 1 0 0 0 0 2zm-12-1a1 1 0 1 1-2 0 1 1 0 0 1 2 0zm-14 1a1 1 0 1 0 0-2 1 1 0 0 0 0 2zm-12-1a1 1 0 1 1-2 0 1 1 0 0 1 2 0zm-14 1a1 1 0 1 0 0-2 1 1 0 0 0 0 2zm-12-1a1 1 0 1 1-2 0 1 1 0 0 1 2 0zm-14 1a1 1 0 1 0 0-2 1 1 0 0 0 0 2zm-12-1a1 1 0 1 1-2 0 1 1 0 0 1 2 0zm-14 1a1 1 0 1 0 0-2 1 1 0 0 0 0 2zm-12-1a1 1 0 1 1-2 0 1 1 0 0 1 2 0zm-14 1a1 1 0 1 0 0-2 1 1 0 0 0 0 2zm-12-1a1 1 0 1 1-2 0 1 1 0 0 1 2 0zm-14 1a1 1 0 1 0 0-2 1 1 0 0 0 0 2zm-12-1a1 1 0 1 1-2 0 1 1 0 0 1 2 0zm-14 1a1 1 0 1 0 0-2 1 1 0 0 0 0 2zm1 12a1 1 0 1 1-2 0 1 1 0 0 1 2 0zm12 1a1 1 0 1 0 0-2 1 1 0 0 0 0 2zm14-1a1 1 0 1 1-2 0 1 1 0 0 1 2 0zm12 1a1 1 0 1 0 0-2 1 1 0 0 0 0 2zm14-1a1 1 0 1 1-2 0 1 1 0 0 1 2 0zm12 1a1 1 0 1 0 0-2 1 1 0 0 0 0 2zm14-1a1 1 0 1 1-2 0 1 1 0 0 1 2 0zm12 1a1 1 0 1 0 0-2 1 1 0 0 0 0 2zm14-1a1 1 0 1 1-2 0 1 1 0 0 1 2 0zm12 1a1 1 0 1 0 0-2 1 1 0 0 0 0 2zm14-1a1 1 0 1 1-2 0 1 1 0 0 1 2 0zm12 1a1 1 0 1 0 0-2 1 1 0 0 0 0 2zm14-1a1 1 0 1 1-2 0 1 1 0 0 1 2 0zm12 1a1 1 0 1 0 0-2 1 1 0 0 0 0 2zm14-1a1 1 0 1 1-2 0 1 1 0 0 1 2 0zm12 1a1 1 0 1 0 0-2 1 1 0 0 0 0 2zm13 0a1 1 0 1 0 0-2 1 1 0 0 0 0 2zm0 13a1 1 0 1 0 0-2 1 1 0 0 0 0 2zm1 12a1 1 0 1 1-2 0 1 1 0 0 1 2 0zm-13-13a1 1 0 1 1-2 0 1 1 0 0 1 2 0zm-1 14a1 1 0 1 0 0-2 1 1 0 0 0 0 2zm-13-13a1 1 0 1 0 0-2 1 1 0 0 0 0 2zm1 12a1 1 0 1 1-2 0 1 1 0 0 1 2 0zm-13-13a1 1 0 1 1-2 0 1 1 0 0 1 2 0zm-1 14a1 1 0 1 0 0-2 1 1 0 0 0 0 2zm-13-13a1 1 0 1 0 0-2 1 1 0 0 0 0 2zm1 12a1 1 0 1 1-2 0 1 1 0 0 1 2 0zm-13-13a1 1 0 1 1-2 0 1 1 0 0 1 2 0zm-1 14a1 1 0 1 0 0-2 1 1 0 0 0 0 2zm-13-13a1 1 0 1 0 0-2 1 1 0 0 0 0 2zm1 12a1 1 0 1 1-2 0 1 1 0 0 1 2 0zm-13-13a1 1 0 1 1-2 0 1 1 0 0 1 2 0zm-1 14a1 1 0 1 0 0-2 1 1 0 0 0 0 2zm-13-13a1 1 0 1 0 0-2 1 1 0 0 0 0 2zm1 12a1 1 0 1 1-2 0 1 1 0 0 1 2 0zm-13-13a1 1 0 1 1-2 0 1 1 0 0 1 2 0zm-1 14a1 1 0 1 0 0-2 1 1 0 0 0 0 2zm-13-13a1 1 0 1 0 0-2 1 1 0 0 0 0 2zm1 12a1 1 0 1 1-2 0 1 1 0 0 1 2 0zm-13-13a1 1 0 1 1-2 0 1 1 0 0 1 2 0zm-1 14a1 1 0 1 0 0-2 1 1 0 0 0 0 2zm-13-13a1 1 0 1 0 0-2 1 1 0 0 0 0 2zm1 12a1 1 0 1 1-2 0 1 1 0 0 1 2 0zm-13-13a1 1 0 1 1-2 0 1 1 0 0 1 2 0zm-1 14a1 1 0 1 0 0-2 1 1 0 0 0 0 2zm-13-13a1 1 0 1 0 0-2 1 1 0 0 0 0 2zm1 12a1 1 0 1 1-2 0 1 1 0 0 1 2 0zm-13-13a1 1 0 1 1-2 0 1 1 0 0 1 2 0zm-1 14a1 1 0 1 0 0-2 1 1 0 0 0 0 2zm-13-13a1 1 0 1 0 0-2 1 1 0 0 0 0 2zm1 12a1 1 0 1 1-2 0 1 1 0 0 1 2 0zm207 14a1 1 0 1 0 0-2 1 1 0 0 0 0 2zm-12-1a1 1 0 1 1-2 0 1 1 0 0 1 2 0zm-14 1a1 1 0 1 0 0-2 1 1 0 0 0 0 2zm-12-1a1 1 0 1 1-2 0 1 1 0 0 1 2 0zm-14 1a1 1 0 1 0 0-2 1 1 0 0 0 0 2zm-12-1a1 1 0 1 1-2 0 1 1 0 0 1 2 0zm-14 1a1 1 0 1 0 0-2 1 1 0 0 0 0 2zm-12-1a1 1 0 1 1-2 0 1 1 0 0 1 2 0zm-14 1a1 1 0 1 0 0-2 1 1 0 0 0 0 2zm-12-1a1 1 0 1 1-2 0 1 1 0 0 1 2 0zm-14 1a1 1 0 1 0 0-2 1 1 0 0 0 0 2zm-12-1a1 1 0 1 1-2 0 1 1 0 0 1 2 0zm-14 1a1 1 0 1 0 0-2 1 1 0 0 0 0 2zm-12-1a1 1 0 1 1-2 0 1 1 0 0 1 2 0zm-14 1a1 1 0 1 0 0-2 1 1 0 0 0 0 2zm-12-1a1 1 0 1 1-2 0 1 1 0 0 1 2 0zm-14 1a1 1 0 1 0 0-2 1 1 0 0 0 0 2zm221-91a1 1 0 1 0 0-2 1 1 0 0 0 0 2zm14-1a1 1 0 1 1-2 0 1 1 0 0 1 2 0zm12 1a1 1 0 1 0 0-2 1 1 0 0 0 0 2zm14-1a1 1 0 1 1-2 0 1 1 0 0 1 2 0zm12 1a1 1 0 1 0 0-2 1 1 0 0 0 0 2zm14-1a1 1 0 1 1-2 0 1 1 0 0 1 2 0zm12 1a1 1 0 1 0 0-2 1 1 0 0 0 0 2zm14-1a1 1 0 1 1-2 0 1 1 0 0 1 2 0zm12 1a1 1 0 1 0 0-2 1 1 0 0 0 0 2zm14-1a1 1 0 1 1-2 0 1 1 0 0 1 2 0zm12 1a1 1 0 1 0 0-2 1 1 0 0 0 0 2zm14-1a1 1 0 1 1-2 0 1 1 0 0 1 2 0zm12 1c.55 0 1-.448 1-1s-.45-1-1-1-1 .448-1 1 .45 1 1 1zm14-1c0 .552-.45 1-1 1s-1-.448-1-1 .45-1 1-1 1 .448 1 1zm12 1c.55 0 1-.448 1-1s-.45-1-1-1-1 .448-1 1 .45 1 1 1zm14-1c0 .552-.45 1-1 1s-1-.448-1-1 .45-1 1-1 1 .448 1 1zm13 0c0 .552-.45 1-1 1s-1-.448-1-1 .45-1 1-1 1 .448 1 1zm0 13c0 .552-.45 1-1 1s-1-.448-1-1 .45-1 1-1 1 .448 1 1zm-1 14c.55 0 1-.448 1-1s-.45-1-1-1-1 .448-1 1 .45 1 1 1zm-13-13c.55 0 1-.448 1-1s-.45-1-1-1-1 .448-1 1 .45 1 1 1zm1 12c0 .552-.45 1-1 1s-1-.448-1-1 .45-1 1-1 1 .448 1 1zm-13-13c0 .552-.45 1-1 1s-1-.448-1-1 .45-1 1-1 1 .448 1 1zm-1 14c.55 0 1-.448 1-1s-.45-1-1-1-1 .448-1 1 .45 1 1 1zm-13-13c.55 0 1-.448 1-1s-.45-1-1-1-1 .448-1 1 .45 1 1 1zm1 12c0 .552-.45 1-1 1s-1-.448-1-1 .45-1 1-1 1 .448 1 1zm-13-13c0 .552-.45 1-1 1s-1-.448-1-1 .45-1 1-1 1 .448 1 1zm-1 14c.55 0 1-.448 1-1s-.45-1-1-1-1 .448-1 1 .45 1 1 1zm-13-13a1 1 0 1 0 0-2 1 1 0 0 0 0 2zm1 12a1 1 0 1 1-2 0 1 1 0 0 1 2 0zm-13-13a1 1 0 1 1-2 0 1 1 0 0 1 2 0zm-1 14a1 1 0 1 0 0-2 1 1 0 0 0 0 2zm-13-13a1 1 0 1 0 0-2 1 1 0 0 0 0 2zm1 12a1 1 0 1 1-2 0 1 1 0 0 1 2 0zm-13-13a1 1 0 1 1-2 0 1 1 0 0 1 2 0zm-1 14a1 1 0 1 0 0-2 1 1 0 0 0 0 2zm-13-13a1 1 0 1 0 0-2 1 1 0 0 0 0 2zm1 12a1 1 0 1 1-2 0 1 1 0 0 1 2 0zm-13-13a1 1 0 1 1-2 0 1 1 0 0 1 2 0zm-1 14a1 1 0 1 0 0-2 1 1 0 0 0 0 2zm-13-13a1 1 0 1 0 0-2 1 1 0 0 0 0 2zm1 12a1 1 0 1 1-2 0 1 1 0 0 1 2 0zm-13-13a1 1 0 1 1-2 0 1 1 0 0 1 2 0zm-1 14a1 1 0 1 0 0-2 1 1 0 0 0 0 2zm-13-13a1 1 0 1 0 0-2 1 1 0 0 0 0 2zm1 12a1 1 0 1 1-2 0 1 1 0 0 1 2 0zm-13-13a1 1 0 1 1-2 0 1 1 0 0 1 2 0zm-1 14a1 1 0 1 0 0-2 1 1 0 0 0 0 2zm-13-13a1 1 0 1 0 0-2 1 1 0 0 0 0 2zm1 12a1 1 0 1 1-2 0 1 1 0 0 1 2 0zm-13-13a1 1 0 1 1-2 0 1 1 0 0 1 2 0zm-1 14a1 1 0 1 0 0-2 1 1 0 0 0 0 2zm209 12c0 .552-.45 1-1 1s-1-.448-1-1 .45-1 1-1 1 .448 1 1zm-14 1c.55 0 1-.448 1-1s-.45-1-1-1-1 .448-1 1 .45 1 1 1zm-12-1c0 .552-.45 1-1 1s-1-.448-1-1 .45-1 1-1 1 .448 1 1zm-14 1c.55 0 1-.448 1-1s-.45-1-1-1-1 .448-1 1 .45 1 1 1zm-12-1c0 .552-.45 1-1 1s-1-.448-1-1 .45-1 1-1 1 .448 1 1zm-14 1a1 1 0 1 0 0-2 1 1 0 0 0 0 2zm-12-1a1 1 0 1 1-2 0 1 1 0 0 1 2 0zm-14 1a1 1 0 1 0 0-2 1 1 0 0 0 0 2zm-12-1a1 1 0 1 1-2 0 1 1 0 0 1 2 0zm-14 1a1 1 0 1 0 0-2 1 1 0 0 0 0 2zm-12-1a1 1 0 1 1-2 0 1 1 0 0 1 2 0zm-14 1a1 1 0 1 0 0-2 1 1 0 0 0 0 2zm-12-1a1 1 0 1 1-2 0 1 1 0 0 1 2 0zm-14 1a1 1 0 1 0 0-2 1 1 0 0 0 0 2zm-12-1a1 1 0 1 1-2 0 1 1 0 0 1 2 0zm-14 1a1 1 0 1 0 0-2 1 1 0 0 0 0 2zm-12-1a1 1 0 1 1-2 0 1 1 0 0 1 2 0zm-1 14a1 1 0 1 0 0-2 1 1 0 0 0 0 2zm14-1a1 1 0 1 1-2 0 1 1 0 0 1 2 0zm12 1a1 1 0 1 0 0-2 1 1 0 0 0 0 2zm14-1a1 1 0 1 1-2 0 1 1 0 0 1 2 0zm12 1a1 1 0 1 0 0-2 1 1 0 0 0 0 2zm14-1a1 1 0 1 1-2 0 1 1 0 0 1 2 0zm12 1a1 1 0 1 0 0-2 1 1 0 0 0 0 2zm14-1a1 1 0 1 1-2 0 1 1 0 0 1 2 0zm12 1a1 1 0 1 0 0-2 1 1 0 0 0 0 2zm14-1a1 1 0 1 1-2 0 1 1 0 0 1 2 0zm12 1a1 1 0 1 0 0-2 1 1 0 0 0 0 2zm14-1a1 1 0 1 1-2 0 1 1 0 0 1 2 0zm12 1c.55 0 1-.448 1-1s-.45-1-1-1-1 .448-1 1 .45 1 1 1zm14-1c0 .552-.45 1-1 1s-1-.448-1-1 .45-1 1-1 1 .448 1 1zm12 1c.55 0 1-.448 1-1s-.45-1-1-1-1 .448-1 1 .45 1 1 1zm14-1c0 .552-.45 1-1 1s-1-.448-1-1 .45-1 1-1 1 .448 1 1zm13 0c0 .552-.45 1-1 1s-1-.448-1-1 .45-1 1-1 1 .448 1 1zm0 13c0 .552-.45 1-1 1s-1-.448-1-1 .45-1 1-1 1 .448 1 1zm-1 14c.55 0 1-.448 1-1s-.45-1-1-1-1 .448-1 1 .45 1 1 1zm-13-13c.55 0 1-.448 1-1s-.45-1-1-1-1 .448-1 1 .45 1 1 1zm1 12c0 .552-.45 1-1 1s-1-.448-1-1 .45-1 1-1 1 .448 1 1zm-13-13c0 .552-.45 1-1 1s-1-.448-1-1 .45-1 1-1 1 .448 1 1zm-1 14c.55 0 1-.448 1-1s-.45-1-1-1-1 .448-1 1 .45 1 1 1zm-13-13c.55 0 1-.448 1-1s-.45-1-1-1-1 .448-1 1 .45 1 1 1zm1 12c0 .552-.45 1-1 1s-1-.448-1-1 .45-1 1-1 1 .448 1 1zm-13-13c0 .552-.45 1-1 1s-1-.448-1-1 .45-1 1-1 1 .448 1 1zm-1 14c.55 0 1-.448 1-1s-.45-1-1-1-1 .448-1 1 .45 1 1 1zm-13-13a1 1 0 1 0 0-2 1 1 0 0 0 0 2zm1 12a1 1 0 1 1-2 0 1 1 0 0 1 2 0zm-13-13a1 1 0 1 1-2 0 1 1 0 0 1 2 0zm-1 14a1 1 0 1 0 0-2 1 1 0 0 0 0 2zm-13-13a1 1 0 1 0 0-2 1 1 0 0 0 0 2zm1 12a1 1 0 1 1-2 0 1 1 0 0 1 2 0zm-13-13a1 1 0 1 1-2 0 1 1 0 0 1 2 0zm-1 14a1 1 0 1 0 0-2 1 1 0 0 0 0 2zm-13-13a1 1 0 1 0 0-2 1 1 0 0 0 0 2zm1 12a1 1 0 1 1-2 0 1 1 0 0 1 2 0zm-13-13a1 1 0 1 1-2 0 1 1 0 0 1 2 0zm-1 14a1 1 0 1 0 0-2 1 1 0 0 0 0 2zm-13-13a1 1 0 1 0 0-2 1 1 0 0 0 0 2zm1 12a1 1 0 1 1-2 0 1 1 0 0 1 2 0zm-13-13a1 1 0 1 1-2 0 1 1 0 0 1 2 0zm-1 14a1 1 0 1 0 0-2 1 1 0 0 0 0 2zm-13-13a1 1 0 1 0 0-2 1 1 0 0 0 0 2zm1 12a1 1 0 1 1-2 0 1 1 0 0 1 2 0zm-13-13a1 1 0 1 1-2 0 1 1 0 0 1 2 0zm-1 14a1 1 0 1 0 0-2 1 1 0 0 0 0 2zm-13-13a1 1 0 1 0 0-2 1 1 0 0 0 0 2zm1 12a1 1 0 1 1-2 0 1 1 0 0 1 2 0zm-13-13a1 1 0 1 1-2 0 1 1 0 0 1 2 0zm-1 14a1 1 0 1 0 0-2 1 1 0 0 0 0 2zm209 12c0 .552-.45 1-1 1s-1-.448-1-1 .45-1 1-1 1 .448 1 1zm-14 1c.55 0 1-.448 1-1s-.45-1-1-1-1 .448-1 1 .45 1 1 1zm-12-1c0 .552-.45 1-1 1s-1-.448-1-1 .45-1 1-1 1 .448 1 1zm-14 1c.55 0 1-.448 1-1s-.45-1-1-1-1 .448-1 1 .45 1 1 1zm-12-1c0 .552-.45 1-1 1s-1-.448-1-1 .45-1 1-1 1 .448 1 1zm-14 1a1 1 0 1 0 0-2 1 1 0 0 0 0 2zm-12-1a1 1 0 1 1-2 0 1 1 0 0 1 2 0zm-14 1a1 1 0 1 0 0-2 1 1 0 0 0 0 2zm-12-1a1 1 0 1 1-2 0 1 1 0 0 1 2 0zm-14 1a1 1 0 1 0 0-2 1 1 0 0 0 0 2zm-12-1a1 1 0 1 1-2 0 1 1 0 0 1 2 0zm-14 1a1 1 0 1 0 0-2 1 1 0 0 0 0 2zm-12-1a1 1 0 1 1-2 0 1 1 0 0 1 2 0zm-14 1a1 1 0 1 0 0-2 1 1 0 0 0 0 2zm-12-1a1 1 0 1 1-2 0 1 1 0 0 1 2 0zm-14 1a1 1 0 1 0 0-2 1 1 0 0 0 0 2zm-12-1a1 1 0 1 1-2 0 1 1 0 0 1 2 0zm0-195a1 1 0 1 1-2 0 1 1 0 0 1 2 0zm12 1a1 1 0 1 0 0-2 1 1 0 0 0 0 2zm14-1a1 1 0 1 1-2 0 1 1 0 0 1 2 0zm12 1a1 1 0 1 0 0-2 1 1 0 0 0 0 2zm14-1a1 1 0 1 1-2 0 1 1 0 0 1 2 0zm12 1a1 1 0 1 0 0-2 1 1 0 0 0 0 2zm14-1a1 1 0 1 1-2 0 1 1 0 0 1 2 0zm12 1a1 1 0 1 0 0-2 1 1 0 0 0 0 2zm14-1a1 1 0 1 1-2 0 1 1 0 0 1 2 0zm12 1a1 1 0 1 0 0-2 1 1 0 0 0 0 2zm14-1a1 1 0 1 1-2 0 1 1 0 0 1 2 0zm12 1a1 1 0 1 0 0-2 1 1 0 0 0 0 2zm14-1c0 .552-.45 1-1 1s-1-.448-1-1 .45-1 1-1 1 .448 1 1zm12 1c.55 0 1-.448 1-1s-.45-1-1-1-1 .448-1 1 .45 1 1 1zm14-1c0 .552-.45 1-1 1s-1-.448-1-1 .45-1 1-1 1 .448 1 1zm12 1c.55 0 1-.448 1-1s-.45-1-1-1-1 .448-1 1 .45 1 1 1zm13 0c.55 0 1-.448 1-1s-.45-1-1-1-1 .448-1 1 .45 1 1 1zm0 13c.55 0 1-.448 1-1s-.45-1-1-1-1 .448-1 1 .45 1 1 1zm1 12c0 .552-.45 1-1 1s-1-.448-1-1 .45-1 1-1 1 .448 1 1zm-13-13c0 .552-.45 1-1 1s-1-.448-1-1 .45-1 1-1 1 .448 1 1zm-1 14c.55 0 1-.448 1-1s-.45-1-1-1-1 .448-1 1 .45 1 1 1zm-13-13c.55 0 1-.448 1-1s-.45-1-1-1-1 .448-1 1 .45 1 1 1zm1 12c0 .552-.45 1-1 1s-1-.448-1-1 .45-1 1-1 1 .448 1 1zm-13-13c0 .552-.45 1-1 1s-1-.448-1-1 .45-1 1-1 1 .448 1 1zm-1 14c.55 0 1-.448 1-1s-.45-1-1-1-1 .448-1 1 .45 1 1 1zm-13-13c.55 0 1-.448 1-1s-.45-1-1-1-1 .448-1 1 .45 1 1 1zm1 12c0 .552-.45 1-1 1s-1-.448-1-1 .45-1 1-1 1 .448 1 1zm-13-13a1 1 0 1 1-2 0 1 1 0 0 1 2 0zm-1 14a1 1 0 1 0 0-2 1 1 0 0 0 0 2zm-13-13a1 1 0 1 0 0-2 1 1 0 0 0 0 2zm1 12a1 1 0 1 1-2 0 1 1 0 0 1 2 0zm-13-13a1 1 0 1 1-2 0 1 1 0 0 1 2 0zm-1 14a1 1 0 1 0 0-2 1 1 0 0 0 0 2zm-13-13a1 1 0 1 0 0-2 1 1 0 0 0 0 2zm1 12a1 1 0 1 1-2 0 1 1 0 0 1 2 0zm-13-13a1 1 0 1 1-2 0 1 1 0 0 1 2 0zm-1 14a1 1 0 1 0 0-2 1 1 0 0 0 0 2zm-13-13a1 1 0 1 0 0-2 1 1 0 0 0 0 2zm1 12a1 1 0 1 1-2 0 1 1 0 0 1 2 0zm-13-13a1 1 0 1 1-2 0 1 1 0 0 1 2 0zm-1 14a1 1 0 1 0 0-2 1 1 0 0 0 0 2zm-13-13a1 1 0 1 0 0-2 1 1 0 0 0 0 2zm1 12a1 1 0 1 1-2 0 1 1 0 0 1 2 0zm-13-13a1 1 0 1 1-2 0 1 1 0 0 1 2 0zm-1 14a1 1 0 1 0 0-2 1 1 0 0 0 0 2zm-13-13a1 1 0 1 0 0-2 1 1 0 0 0 0 2zm1 12a1 1 0 1 1-2 0 1 1 0 0 1 2 0zm-13-13a1 1 0 1 1-2 0 1 1 0 0 1 2 0zm-1 14a1 1 0 1 0 0-2 1 1 0 0 0 0 2zm-13-13a1 1 0 1 0 0-2 1 1 0 0 0 0 2zm1 12a1 1 0 1 1-2 0 1 1 0 0 1 2 0zm207 14c.55 0 1-.448 1-1s-.45-1-1-1-1 .448-1 1 .45 1 1 1zm-12-1c0 .552-.45 1-1 1s-1-.448-1-1 .45-1 1-1 1 .448 1 1zm-14 1c.55 0 1-.448 1-1s-.45-1-1-1-1 .448-1 1 .45 1 1 1zm-12-1c0 .552-.45 1-1 1s-1-.448-1-1 .45-1 1-1 1 .448 1 1zm-14 1c.55 0 1-.448 1-1s-.45-1-1-1-1 .448-1 1 .45 1 1 1zm-12-1a1 1 0 1 1-2 0 1 1 0 0 1 2 0zm-14 1a1 1 0 1 0 0-2 1 1 0 0 0 0 2zm-12-1a1 1 0 1 1-2 0 1 1 0 0 1 2 0zm-14 1a1 1 0 1 0 0-2 1 1 0 0 0 0 2zm-12-1a1 1 0 1 1-2 0 1 1 0 0 1 2 0zm-14 1a1 1 0 1 0 0-2 1 1 0 0 0 0 2zm-12-1a1 1 0 1 1-2 0 1 1 0 0 1 2 0zm-14 1a1 1 0 1 0 0-2 1 1 0 0 0 0 2zm-12-1a1 1 0 1 1-2 0 1 1 0 0 1 2 0zm-14 1a1 1 0 1 0 0-2 1 1 0 0 0 0 2zm-12-1a1 1 0 1 1-2 0 1 1 0 0 1 2 0zm-14 1a1 1 0 1 0 0-2 1 1 0 0 0 0 2zm1 12a1 1 0 1 1-2 0 1 1 0 0 1 2 0zm12 1a1 1 0 1 0 0-2 1 1 0 0 0 0 2zm14-1a1 1 0 1 1-2 0 1 1 0 0 1 2 0zm12 1a1 1 0 1 0 0-2 1 1 0 0 0 0 2zm14-1a1 1 0 1 1-2 0 1 1 0 0 1 2 0zm12 1a1 1 0 1 0 0-2 1 1 0 0 0 0 2zm14-1a1 1 0 1 1-2 0 1 1 0 0 1 2 0zm12 1a1 1 0 1 0 0-2 1 1 0 0 0 0 2zm14-1a1 1 0 1 1-2 0 1 1 0 0 1 2 0zm12 1a1 1 0 1 0 0-2 1 1 0 0 0 0 2zm14-1a1 1 0 1 1-2 0 1 1 0 0 1 2 0zm12 1a1 1 0 1 0 0-2 1 1 0 0 0 0 2zm14-1c0 .552-.45 1-1 1s-1-.448-1-1 .45-1 1-1 1 .448 1 1zm12 1c.55 0 1-.448 1-1s-.45-1-1-1-1 .448-1 1 .45 1 1 1zm14-1c0 .552-.45 1-1 1s-1-.448-1-1 .45-1 1-1 1 .448 1 1zm12 1c.55 0 1-.448 1-1s-.45-1-1-1-1 .448-1 1 .45 1 1 1zm13 0c.55 0 1-.448 1-1s-.45-1-1-1-1 .448-1 1 .45 1 1 1zm0 13c.55 0 1-.448 1-1s-.45-1-1-1-1 .448-1 1 .45 1 1 1zm1 12c0 .552-.45 1-1 1s-1-.448-1-1 .45-1 1-1 1 .448 1 1zm-13-13c0 .552-.45 1-1 1s-1-.448-1-1 .45-1 1-1 1 .448 1 1zm-1 14c.55 0 1-.448 1-1s-.45-1-1-1-1 .448-1 1 .45 1 1 1zm-13-13c.55 0 1-.448 1-1s-.45-1-1-1-1 .448-1 1 .45 1 1 1zm1 12c0 .552-.45 1-1 1s-1-.448-1-1 .45-1 1-1 1 .448 1 1zm-13-13c0 .552-.45 1-1 1s-1-.448-1-1 .45-1 1-1 1 .448 1 1zm-1 14c.55 0 1-.448 1-1s-.45-1-1-1-1 .448-1 1 .45 1 1 1zm-13-13c.55 0 1-.448 1-1s-.45-1-1-1-1 .448-1 1 .45 1 1 1zm1 12c0 .552-.45 1-1 1s-1-.448-1-1 .45-1 1-1 1 .448 1 1zm-13-13a1 1 0 1 1-2 0 1 1 0 0 1 2 0zm-1 14a1 1 0 1 0 0-2 1 1 0 0 0 0 2zm-13-13a1 1 0 1 0 0-2 1 1 0 0 0 0 2zm1 12a1 1 0 1 1-2 0 1 1 0 0 1 2 0zm-13-13a1 1 0 1 1-2 0 1 1 0 0 1 2 0zm-1 14a1 1 0 1 0 0-2 1 1 0 0 0 0 2zm-13-13a1 1 0 1 0 0-2 1 1 0 0 0 0 2zm1 12a1 1 0 1 1-2 0 1 1 0 0 1 2 0zm-13-13a1 1 0 1 1-2 0 1 1 0 0 1 2 0zm-1 14a1 1 0 1 0 0-2 1 1 0 0 0 0 2zm-13-13a1 1 0 1 0 0-2 1 1 0 0 0 0 2zm1 12a1 1 0 1 1-2 0 1 1 0 0 1 2 0zm-13-13a1 1 0 1 1-2 0 1 1 0 0 1 2 0zm-1 14a1 1 0 1 0 0-2 1 1 0 0 0 0 2zm-13-13a1 1 0 1 0 0-2 1 1 0 0 0 0 2zm1 12a1 1 0 1 1-2 0 1 1 0 0 1 2 0zm-13-13a1 1 0 1 1-2 0 1 1 0 0 1 2 0zm-1 14a1 1 0 1 0 0-2 1 1 0 0 0 0 2zm-13-13a1 1 0 1 0 0-2 1 1 0 0 0 0 2zm1 12a1 1 0 1 1-2 0 1 1 0 0 1 2 0zm-13-13a1 1 0 1 1-2 0 1 1 0 0 1 2 0zm-1 14a1 1 0 1 0 0-2 1 1 0 0 0 0 2zm-13-13a1 1 0 1 0 0-2 1 1 0 0 0 0 2zm1 12a1 1 0 1 1-2 0 1 1 0 0 1 2 0zm207 14c.55 0 1-.448 1-1s-.45-1-1-1-1 .448-1 1 .45 1 1 1zm-12-1c0 .552-.45 1-1 1s-1-.448-1-1 .45-1 1-1 1 .448 1 1zm-14 1c.55 0 1-.448 1-1s-.45-1-1-1-1 .448-1 1 .45 1 1 1zm-12-1c0 .552-.45 1-1 1s-1-.448-1-1 .45-1 1-1 1 .448 1 1zm-14 1c.55 0 1-.448 1-1s-.45-1-1-1-1 .448-1 1 .45 1 1 1zm-12-1a1 1 0 1 1-2 0 1 1 0 0 1 2 0zm-14 1a1 1 0 1 0 0-2 1 1 0 0 0 0 2zm-12-1a1 1 0 1 1-2 0 1 1 0 0 1 2 0zm-14 1a1 1 0 1 0 0-2 1 1 0 0 0 0 2zm-12-1a1 1 0 1 1-2 0 1 1 0 0 1 2 0zm-14 1a1 1 0 1 0 0-2 1 1 0 0 0 0 2zm-12-1a1 1 0 1 1-2 0 1 1 0 0 1 2 0zm-14 1a1 1 0 1 0 0-2 1 1 0 0 0 0 2zm-12-1a1 1 0 1 1-2 0 1 1 0 0 1 2 0zm-14 1a1 1 0 1 0 0-2 1 1 0 0 0 0 2zm-12-1a1 1 0 1 1-2 0 1 1 0 0 1 2 0zm-14 1a1 1 0 1 0 0-2 1 1 0 0 0 0 2z" fill="#000"/></svg>