<svg width="193" height="243" viewBox="0 0 193 243" fill="none" xmlns="http://www.w3.org/2000/svg"><path d="M135.155 230.577c-.443-.8-.665-1.279-.887-1.719 1.996-.639 3.859-1.238 5.9-1.878-1.73-1.398-1.642-2.637.044-3.516 3.46 1.039 3.814-1.359 5.677-1.239-1.951-1.438-4.701-1.279-7.895-.999 2.44-1.438 2.307-1.678-.532-2.397-.932 1.398.355 3.636-4.79 3.436.354.639.621 1.159.887 1.559 1.552-.32 2.705-.56 3.859-.76.221.16.443.32.665.52-.932.639-1.907 1.278-3.016 2.038.133.319.399.959.709 1.638-.31.12-.621.2-.975.32-.178-.24-.4-.48-.577-.76-.177-.239-.133-.559-.399-.759-1.419-.919-4.125-.2-3.992.999 3.593.12 3.992.4 2.927 2.318-1.508-.44-2.838-.919-4.213-1.239-.399-.08-1.109.24-1.686.36-1.419.24-2.838.559-4.258.639-.976.04-1.996-.24-2.972-.399l-.133.359c2.75.48 5.456.999 8.383 1.519.045-.48.089-.84.133-1.119 2.351.439 4.525.719 7.141 1.079z" fill="#F5F5F5"/><path d="M152.675 225.822c-.399-.64-1.419-1.159-2.173-1.719-.843.4-1.641.799-2.484 1.199-.355.16-.709.32-1.109.48-1.33.439-2.617.879-4.258 1.398.976.12 1.597.24 2.174.32 0 .2 0 .439-.045.639-1.862-.08-3.681-.2-5.943-.32.488.64.71.999.931 1.279-.621.28-1.242.56-1.818.839l.399.36c.843-.12 1.641-.28 1.996-.32a978.727 978.727 0 0 0 6.609 2.997c.976-.759 1.774-1.438 2.661-2.158-.71-.479-1.464-.879-1.996-1.358-.399-.36-.843-1.119-.577-1.239 1.287-.639 2.75-1.119 4.17-1.678.088.24.177.519.266.759.222.04.488.04.71.08.177-.52.754-1.119.487-1.558zm-18.85-5.715v-2.917c-1.686-.439-2.883-.839-4.169-.999-1.242-.159-2.573-.08-3.859 0-.311 0-.799.56-.666.76.666 1.079 1.331 2.157 2.351 3.156.355.36 1.597.44 2.44.64.133-.12.266-.28.443-.4l-1.73-.479c.133-.12.266-.24.4-.32 1.596.16 3.149.36 4.79.559zm-68.528-58.66a688.213 688.213 0 0 0-4.79-7.912 148.395 148.395 0 0 1-3.77-1.518l-.532.239c.931 1.039 1.597 2.198 2.839 3.117 1.33.999 2.35 1.958 2.75 3.237.31 1.079 1.685 2.038 2.616 3.077.267-.08.577-.16.888-.24zm67.862 71.248c-.798.079-1.596.159-2.439.159-.488 0-1.375-.319-1.464-.239-.576.479-.976.999-1.419 1.518.621.16 1.242.28 1.774.48a28.01 28.01 0 0 1 2.262.879c.621.279 1.109.599 1.686.879.266-.08.576-.16.842-.28-.354-.719-.709-1.438-1.242-2.477h6.343c-2.262-1.079-4.214-1.199-6.343-.919zm-13.394-13.067c-2.617-1.559-7.984-1.878-10.379-.48-.488.28.044 1.119.266 1.719.044.079 1.286.159 1.597 0 .842-.48 1.463-1.079 2.084-1.559 2.218.759 4.169 1.359 6.432.32zM24.89 8.882c-2.66-.52-5.277-1.119-7.983-1.519-1.685-.24-3.548-.16-5.323-.32-1.774-.16-3.548-.479-5.278-.679-1.73-.2-3.504-.4-5.234-.599-.044.2-.133.4-.177.6 7.94.918 15.923 1.877 23.863 2.797.044-.08.088-.16.133-.28zm129.471 219.177c.887-.599 1.552-1.039 2.173-1.478-.399-.2-.754-.36-1.153-.56-1.109.68-2.218 1.359-3.948 2.398 2.839.839 5.19 1.519 7.541 2.238.221-.16.488-.32.709-.44-.754-.519-1.375-1.119-2.35-1.478-.843-.4-2.085-.52-2.972-.68zm-64.669-58.3c-.399 1.038.843 1.878 2.573 1.918.665-1.159 1.153-1.998 1.64-2.838a8.706 8.706 0 0 0-.842-.439c-1.197.439-3.149.799-3.37 1.359zm2.041-4.636c.532.28 1.774.04 2.75.04-.222-.16-.488-.359-.71-.519.4-.64.754-1.319 1.153-1.958-.177-.12-.355-.28-.532-.4-1.065.44-2.395.759-3.105 1.319-.444.319-.133 1.239.444 1.518zm29.628 52.427c.089.759.355 1.598.976 2.278.222.239 1.73.04 2.573.04-.799-.959-1.42-1.719-2.307-2.837-.222.079-1.286.319-1.242.519zM6.617 120.728c-.355-.759-.621-1.319-1.02-2.158-1.553.56-2.795.999-4.081 1.439.133.16.266.28.4.439 1.463.08 2.882.16 4.7.28zm112.926 95.823c-.311-.759-.488-1.199-.799-1.998-1.508.959-2.75 1.798-4.036 2.637.133.08.266.2.444.28 1.596-.32 3.193-.679 4.391-.919zm34.064 18.181c.399.04.798.08 1.153.12.444-1.159.932-2.317 1.419-3.556-.931-.08-1.641-.12-1.951-.16-.222 1.279-.444 2.438-.621 3.596zm-86.58-12.627c-.62-.24-1.508-.439-2.217-.399-.488.04-1.287.719-1.154.879.31.359 1.065.759 1.73.799 1.065.04 2.174-.16 3.105-.24-.577-.439-.931-.839-1.464-1.039zm53.758 11.628c.754.36 1.375.64 2.173.999.887-.399 1.597-.679 2.44-1.078-1.775-1.079-3.15-.8-4.613.079zm-51.54-13.506c1.42.2 2.306.36 3.194.48.221-.72.399-1.279.62-1.878-.177-.08-.399-.16-.576-.24-.976.519-1.996.999-3.238 1.638zm104.942 7.792c-.443-.2-1.242-.199-1.907-.239-.044 0-.399.599-.266.679 1.02.399 2.085.719 3.149 1.079.133-.12.222-.24.355-.36-.444-.439-.754-.879-1.331-1.159zM.54 112.736c-.133.2-.222.36-.355.56 2.262-.64 3.06 1.838 5.722.439-1.774-.359-3.593-.679-5.367-.999zm177.196 111.447c-.488.16-.976.28-1.642.48 1.775.279 3.15.519 4.525.759.133-.12.221-.24.354-.36-.621-.439-1.241-.879-1.951-1.358-.532.199-.887.359-1.286.479zM58.378 157.371c-.488.879-.843 1.519-1.375 2.398 3.371-.919 3.416-1.039 1.375-2.398zm108.668-16.943c1.02.64 1.686 1.079 2.351 1.519h.798c-.221-.6-.443-1.239-.665-1.838-.798.08-1.552.199-2.484.319zm-88.841 80.479c-1.242.439-2.529.719-2.484.879.177.519.798.959 1.286 1.438.266-.08.532-.119.843-.199.088-.52.177-1.079.355-2.118zm-12.952-57.182l2.35 2.118c.311-.12.622-.2.932-.32-.71-.759-1.463-1.479-2.173-2.238-.355.16-.754.32-1.109.44zM25.157 227.14c-1.819-.28-3.238-.519-4.657-.719-.045.16-.134.28-.178.439 2.528 1.079 2.528 1.079 4.835.28zm-12.687 9.47c0-.039-.043-.039-.043-.039 0 .039 0 .039.044.039 0 .04-.044.04 0 0z" fill="#F5F5F5"/><path d="M-12.145 15.595c.133-1.319.31-2.637.443-3.956.267.6.4 1.159.533 1.718.177.76 1.286 1.479.044 2.278-.089.04.31.4.488.64-1.065.958-1.109 1.438.355 2.197.177-.919.177-1.718.532-2.437.355-.72-.71-1.599.887-2.158 1.641-.56 1.686-.88.798-2.078 1.242-.44 1.597-1.998 3.948-1.039.31-.72.577-1.319.931-2.118 1.819-.76-.221-1.598-.842-2.677.665.24.975.36 1.552.56 0-.52-.044-.88 0-1.28.089-.399.177-1.038.488-1.118 1.198-.24.843-.88 1.109-1.359.222-.36.576-.72.798-1.079.133-.24.31-.56.266-.839C.052.01-.17-.788-.347-1.627c0-.04-.133-.08-.266-.16-.266.08-.532.2-.887.32.222-2.558.488-5.075.71-7.633.044-.2-.4-.44-.4-.68.045-.838.31-1.638.444-2.477.089-.599.177-1.198.133-1.758-.044-.879-.266-1.758-.355-2.637-.044-.56.133-1.199-.089-1.718-.665-1.559.222-3.157-.487-4.716-.311-.679 0-1.438 0-2.157 0-.56.177-1.12-.045-1.599-.355-.799-.222-1.318.976-1.678-.222-.32-.444-.6-.621-.88-.887.16-1.641.32-2.04.4-.887.96-1.641 1.838-2.395 2.678.088 0 .399.08.798.12-.133.32-.222.599-.355.919.266.08.665.12.665.16-.133 1.038 1.287 1.598 1.73 2.397.488.84.488 2.078-.133 2.877-.532.72-.044 1.239-.133 1.838a158.452 158.452 0 0 0-.31 4.835c.088.16.31.48.31.8.044.998-.133 1.997 0 2.957.222 1.558.532 3.076-.577 4.555-.133.16.178.44.311.68.133.199.4.399.4.599 0 .639-.09 1.238-.178 1.878-.045.24-.178.44-.355.639-.31.4-.665.8-1.02 1.159.31.12.62.28.798.36-.31.36-.71.599-.71.839 0 .2.444.44.71.679-.266.04-.843.12-.887.08C-5.048 1.489-5.403.93-5.758.37c-.577.12-1.109.36-1.553.36C-8.464.65-9.66-1.668-8.73-2.508c-.754.12-1.197.24-1.818.32.177-.28.31-.48.443-.76h-1.375c.355-.558.621-1.038.976-1.637.577.36 1.109.679 1.73 1.078.044-.4.044-.599.088-.879.621.08 1.154.12 1.952.2.31-.08-.089-1.239 1.641-.36-.443-.559-.71-.879-.887-1.198-.31-.64-.577-1.279-.843-1.878 0 0 0-.04-.044-.04l-.044.04c.088-.64.177-1.279.31-2.038-.355.12-.665.28-1.197.48.177-.44.266-.8.443-1.24-1.375.4-1.02 1-.754 1.479.843 1.518.754 1.878-1.42 3.277.666-1.04-1.02-2.038.666-2.797-.266-.24-.71-.48-.71-.68-.088-1.159-.044-2.357-.088-3.516-.045-.88-.045-1.798-.133-2.678-.178-1.278.177-1.638 2.129-1.798-.133-.24-.488-.52-.4-.679.976-1.479-.665-.48-1.286-.56.444-.958.799-1.838-.222-2.797-.354-.32.267-1.038.267-1.558.044-.88.133-1.758 1.02-2.477.177-.12.177-.32.266-.44-.754-.2-1.375-.36-1.996-.52a66.618 66.618 0 0 1 1.818-2.477c-.931-.12-1.108-.64-1.108-1.319.044-1.119-.311-1.678-1.242-2.038.443-.48.399-.519-.533-.919.178.36.266.6.4.84-.178-.04-.355-.12-.577-.16-.089 1.638.887 3.316-.665 5.154 0-2.437.044-4.715 0-6.992.044.08.133.12.221.2.444-.4 0-.6-.266-.84v-.16c.178-.32.31-.599.488-.919-.266-.44-.355-.919-.044-1.438.443.48.266 1.079 1.42 1.119.043-.36.088-.76.043-1.12.267 0 .488.04.71.04.444-.359.887-.679 1.153-.878-.665-.2-1.33-.36-1.996-.52.666-.68.577-1.638 1.952-2.038.089-.04-.133-.44-.177-.68-.09-.519-.267-1.078 1.108-.998-.177-.32-.354-.52-.487-.8.443-.08.842-.16 1.241-.239.09-.76-.443-1.638 1.287-1.718-.266-.36-.488-.68-.887-1.239.887.2 1.33.32 1.774.4a.84.84 0 0 1 .177-.24c-.355-.16-.71-.36-1.197-.64.266-.16.532-.32.754-.479.221 0 .443-.04.71-.08-.134-.04-.222-.12-.311-.16.71-.44 1.464-.879 2.306-1.398-.399-.4-.975-.96-.842-1.519 2.66.56 5.544.2 8.338 0 .089-.959.133-1.758.222-2.597.222-.08.488-.16.71-.24.576.44 1.02 1.079 1.818 1.279.887.24 2.13.04 3.46.04v1.119c2.75-.36 5.278-.64 7.806-.96.31.28.665.56.932.76.931-.84 1.818-1.599 2.705-2.358.666.2 1.242.36 2.573.76-1.996-2.078-3.637-3.717-5.766-5.915 2.927 1.2 5.012.92 7.008-.04.31-.16 1.33-.16 1.596 0 2.529 1.479 5.19.76 7.851.28-.754-.28-1.552-.56-2.306-.839.088-.12.133-.2.221-.32.666-.04 1.331-.04 1.553-.04.532-.759.976-1.398 1.464-2.038.221.08.443.16.71.2.753 1.16 1.552 2.278 2.439 3.676 3.637-.28 1.197 1.679 1.818 2.278-1.419 1-2.617 1.878-3.681 2.637.355.6.931 1.16.976 1.759 0 .2-1.375.64-2.085.6-.71-.04-1.375-.52-2.04-.8-1.597-.64-3.194-1.319-4.746-1.958-.266.2-.532.4-.799.64 1.73.718 3.416 1.478 5.145 2.197-2.75-.32-5.233-.8-7.451-1.518-1.375-.48-1.952-.36-3.105.2-2.35 1.118-4.834 2.237-8.338 1.478-.71-.16-1.686.08-2.573.12v.48c1.774.12 3.548.279 5.278.279 1.686 0 2.972.08 3.416 1.239.133.36 1.02.64 1.596.959-.843-2.638-.843-2.638 1.02-2.957-.088.24-.044.52.045.799-.045 0-.045.04-.089.04.044.04.044.12.133.12h.044c.533 1.039 2.13 2.078 3.194 1.758 3.238-1.039 5.012.32 7.629 1.079-.976.24-1.774.28-1.952.48-1.286 1.638-2.971 1.598-5.322.679-.932-.36-2.218-.4-3.948-.72 1.11 1 1.73 1.559 2.395 2.118.444-.2.976-.4 1.775-.759.221.76.399 1.319.62 2.118 1.73-.52 3.505-.8 4.658-1.439 1.73-.959 3.105-1.718 5.1-.28 2.351-.918 4.525-1.758 6.742-2.637-.133-.12-.31-.24-.443-.36-2.13-.16-4.303-.359-7.097-.599 1.863-.839 2.928-1.638 4.214-1.838 1.464-.24 3.726-.36 4.701.12 3.06 1.439 5.678 3.237 8.472 4.835.222.12.71.12 1.064.2l-.044.04.044.04v-.08c2.085-.32 4.17-.68 5.59-.92-.134.96-.223 1.8-.356 2.638 1.242.04 2.529.2 3.726.08 1.153-.12 2.218-.64 3.371-.76 1.242-.119 2.794-.239 3.726.08 2.572.92 4.968.64 6.254-.958.044-.08.177-.12.31-.2.222.2.444.36.71.52.133.08.31.08.443.08.09.599.178 1.118.267 1.638.62-.36 1.774-.8 1.64-1.04-1.197-2.157 1.642-1.877 3.638-1.957.177-.6.31-1.12.443-1.639.31-.04.577-.08.887-.12l1.863 2.398c.4-.04.799-.12 1.153-.16-.221-1.039-.399-2.078-.62-3.157a553.762 553.762 0 0 1 6.165-1.438c1.64.64 2.75 1.319 3.903 1.398.621.04 1.464-.998 2.129-1.598.266-.28.133-.68.443-.919.621-.52 1.375-1.319 2.129-1.319 1.952-.04 3.948.24 6.121.44-.754 1.319-.044 1.838 2.839 1.478-1.508-.959-2.75-1.758-4.391-2.757-.044.08-.044.08 0 0s.089-.24.133-.36c-1.286-.28-2.439-.559-4.391-.998 2.661-.8 7.984.959 5.589-2.438h5.987c1.42-1.319 2.617-2.477 3.549-3.356 4.125.44 1.818 3.276 6.032 3.716-.488-1.12-.798-1.918-1.153-2.718.754-.28 2.04-.759 3.415-1.278.931.48 1.907 1.039 2.573 1.358-.799.96-1.375 1.639-1.952 2.358.31.12.577.24.887.4 1.508-.76 3.016-1.559 4.347-2.198-1.065-.8-1.73-1.279-2.75-2.038h3.326c.355-.92.621-1.718.932-2.517h-.665v-.16h-2.573c.089.04.222.12.31.16h-2.395a.598.598 0 0 0-.177-.12h-26.347c.178.04.4.08.577.12h-6.92v-.16h-.265c-.045.04-.045.08-.09.16h-1.108l.133-.12H81.176c.31.04.666.08 1.02.12H71.02c.044-.04.044-.08.089-.12h-4.17c.045.04.134.08.178.12h-.887c.133-.04.266-.08.444-.12H47.688c.843.04 1.685.08 2.572.12H36.068c.044-.04.044-.08.089-.12h-6.52c0 .04.044.08.044.12h-2.04c.355-.04.754-.08 1.109-.12h-6.831c.089.04.133.08.222.12h-.754l.266-.12H-12.19v44.355c.09-1.559.222-3.117.31-4.716.045-.719 0-1.438.09-2.197 1.02 1.838.31 3.676.399 5.514.044.84.355 1.718.798 2.517.533.96.178 1.759-.931 1.839-.222-.92-.444-1.879-.666-2.798v4.276c.222.6.577 1.199.666 1.838.088.8-.133 1.639 1.42 1.958-.888.92-1.553 1.798-.977 2.877.222.4-.044.92-.088 1.399h-.533c-.044-.48-.133-.96-.177-1.439.266-.28.222-.4-.089-.6l-.133-.958c.133.08.266.2.4.32.088-.6.177-1.12.266-1.679l-.799-.839V5.645c.089 3.197.089 6.554.089 9.95zM-2.61 4.327c-1.109.919-2.794.4-3.903.959h-.045c.267-.8.932-.96 3.948-.96zm118.16-67.172c0 .04 0 .04 0 0 0 .04-.044.04 0 0-.044.04-.044.04 0 0zM82.152-47.341v1.918c-1.197-.2-2.218-.32-3.77-.56 1.375-.519 2.306-.879 3.77-1.358zm-21.024-.76c1.952-1.598 2.794-1.638 4.79 0h-4.79zm8.206 3.317c-2.395 1.998-3.238 2.078-5.81.76 1.995-.24 3.636-.48 5.81-.76zm-8.516-8.83c.576-.44 3.504.958 2.883-1.08 1.02.24 1.774.4 2.971.68-1.153.799-2.084 1.478-3.104 2.198.133.12.488.36.887.639-1.42.72-2.795.64-3.549-.2-.487-.48-.088-1.239-.088-2.238zm-1.996 2.157c.532.4 1.109.84 2.262 1.758-2.44-.16-4.214-.24-5.944-.44-.266-.04-.221-.798-.31-1.198 1.597-.04 2.75-.08 3.992-.12zM18.947-62.725l.045.04h-.045c-.044 0 0-.04 0-.04zm-30.56 9.91c.044-.64.089-1.24.222-1.879 0 .04.044.08.044.08.178.28 0 .68-.044 1.04-.044.24-.089.519-.089.759-.044.04-.089 0-.133 0zM-.17-51.737c-.754 0-1.508.04-2.306.04-.488-.16-.887-.32-1.242-.48.178-.239.355-.519.488-.758 1.02.12 2.085.24 3.105.4 0 .279 0 .559-.045.798zm-2.395-3.396c.045.04-.443.2-.931.32l-.665-.48c.443-.16.842-.4 1.33-.52.045.24.133.48.266.68zm-4.258-6.753c.799.4 1.42.24 2.262 0 .31-.08.621-.16.932-.2-.532.32-1.065.64-1.553.999-1.33.999-1.862 1.798.488 2.837.666.28 1.065.84 1.375 1.399-.044.04-.044.08-.088.12.044 0 .088.04.177.04.044.12.089.2.133.32-.4-.2-.754-.4-1.109-.56-.754.24-1.463.48-2.173.719.089.32.133.68.177.96l1.464.718c-.4 0-.887-.12-1.286-.16.133.32.177.72.443 1 .31.32.754.599 1.242.679.133.12.355.28.666.44-1.287.16-2.218.28-3.194.359.976-.8-.089-1.239-.488-1.798-.177.04-.355.08-.532.08.222.48.399.919.62 1.398-.443-.12-.842-.24-1.197-.16v-.16h-.266c0 .08-.044.16-.044.24-.133.08-.266.16-.355.32-.4-.08-.843-.16-1.242-.24.044-.2.133-.4.222-.6.133-.199.798-.319 1.286-.479.089-.839.177-1.718.222-2.597.355-.16.71-.32 1.153-.56-.444-.04-.754-.16-1.064-.28.044-.239.088-.479.177-.678.089-.36.31-.68.089-1.08-.178-.319.088-.838.354-1.158.178-.2.311-.4.355-.64.222-.08.4-.2.621-.24.178-.04.31-.279.488-.439-.355-.04-.665-.04-.976-.08 0-.16-.044-.32-.088-.44.31-.12.576-.16.71-.08zM102.2 241.326c0-.04.044-.04.044-.08-.044.04-.044.04-.044.08-.044 0-.044 0 0 0z" fill="#F5F5F5"/><path d="M100.116 239.887a86.509 86.509 0 0 1-2.529 1.838c-.088-.04-.221-.12-.31-.16.133-.279.177-.639.4-.879.576-.679 1.241-1.318 1.773-1.998.355-.479.71-.999.799-1.518.133-.6.044-1.239.044-1.519-1.508.44-3.327.959-5.1 1.479-.178.04-.356.16-.533.28l-.044.04c.975.479.842 1.238-.31 1.918-1.42-.76-.356-1.319.31-1.918 0 0 .044 0 .044-.04-.931.239-1.863.519-3.105.839.4-.56.665-.879.932-1.199a4.339 4.339 0 0 0-1.508.919c-.222.2-.222.48-.355.679-.178.28-.4.52-.621.76.088.039.222.04.31.079a14.93 14.93 0 0 1 1.02-.399v2.118c-.665-.24-.975-.36-1.286-.44-.843-.28-1.863.08-1.552.6.576 1.039-.666 2.517 1.863 2.957-.178.519-.31.919-.533 1.518-.355-.36-.532-.559-.754-.799-.355.28-.62.519-.887.719-1.508-.4-2.661 0-3.326 1.119h16.012c0-.32-.178-.719.044-.999.665-.799.222-1.239-.931-1.518-.222.759-.4 1.478-.621 2.237-.355-.799-.843-1.638.576-2.237.133-.16.266-.28.399-.44-.399-.04-1.153-.08-1.197-.2-.178-.359-.045-.799-.045-1.199.267 0 .488-.04.754-.04.133.48.267.959.444 1.439.31-.12.621-.24 1.198-.48-.4 1.399 1.508.92 2.084 1.439.133-.599.266-1.119.355-1.558l-1.73.119c.089-.319.222-.639.222-.959 0-.359-.133-.719-.177-1.118-.222.279-.4.519-.577.719a72.45 72.45 0 0 1-1.552-2.198zm-9.581 3.357c-.177.199-.754.239-.931.279-.222-.879-.4-1.558-.621-2.397 1.73.519 2.217 1.279 1.552 2.118zm2.528 1.119c.754.199 1.375.359 2.218.599-.798.399-1.33.679-1.996.999-.044-.56-.133-.999-.222-1.598zM-12.145 60.47c.133-1.24.31-2.518.399-3.757.089-1.199.133-1.239 2.262-1.159-2.085-.04-1.065.76-1.109 1.24-.089.479.089.958.133 1.478h.4c.132-.68.266-1.399.443-2.198.222-.08.665-.16 1.464-.4-1.11-.56-2.04-.999-2.972-1.478.71-.24 1.641-.6 2.661-.96-.488-.159-.798-.239-1.375-.439.932-.24 1.553-.36 2.307-.56-.045.36-.09.6-.09.84h.267c.177-.4.355-.76.444-.92.887.16 1.64.28 2.395.4.044-.12.133-.24.177-.36-.443-.119-.887-.199-1.42-.319.666-.52 1.287-.999 2.13-1.678-1.774-.12-1.774-.56-1.065-1.279.222.32.355.6.488.84.133-.08.31-.16.444-.24v-1.639c-.577.12-1.065.2-1.597.32-.089-.08-.222-.16-.31-.24.576-.32 1.153-.68 1.951-1.119-.931-.2-1.73-.4-2.572-.6.221-.359 1.064-.958-.577-.838v.04h-.044c-.178.24-.4.48-.666.799-.665-.24-2.04.08-1.685-.8h2.306v-.04h.045c.133-.199.266-.439.443-.639h.798c0-.16.045-.36.045-.52h-.532c.221-.319.443-.678.665-.998-.222-.04-.621-.12-.843-.16.266-.44.577-.839.843-1.239 3.238.08 6.476.24 9.713.2 3.549-.04 7.097-1.319 10.601 0 .178.08.444-.12.666-.12 2.705-.08 5.41-.24 8.116-.24 1.42 0 2.972-.12 4.17.68 1.508 1.039 2.173-.24 3.104-1.119-.532-.04-.975.24-1.463.24-.621 0-1.73-.16-1.73-.4-.133-2.118-1.33-1.758-2.262-1.798-1.774-.12-3.593-.08-5.367-.08-4.835-.04-9.67-.32-14.504-.08-4.568.24-9.093.72-13.661 1.199-.044-.12-.044-.28-.089-.4-.266 0-.532.04-.798.04 0 .16.044.28.044.44-.266.04-.532.04-.798.08l-.089-.08c-.089-.24-.31-.52-.576-.8-.045.04-.045.12-.09.16-.132-.12-.22-.24-.354-.36.976-.279 1.685-.519 2.129-.798l-.133.24c.266.04.488.08.754.12.089-.44.222-.88.31-1.28h.444l.532 1.559c.089 0 .178 0 .222-.04 0-.36.044-.68 0-1.039-.089-.76-.976-1.159-1.508-.68a.72.72 0 0 0-.177.2c-.09-.32-.444-.719-1.02-1.158-.799-.6-1.642-1.199-2.484-1.798v5.674c-.09-.44-.178-.88-.267-1.279v1.519h-.044v1.438h.044c-.088 6.154-.088 12.268-.088 18.381zm5.721-18.622h.4c0 .04-.045.04-.045.08-.088-.04-.221-.04-.355-.08zm-2.528 1.879c.045-.04.045-.08.045-.12v.16s-.045 0-.045-.04zm-1.73-1.799c.666-.08 1.331-.16 2.04-.16h.178c-.266.12-.532.2-.798.32 2.04.92 2.04.92 1.463 1.399-.354-.2-.71-.4-1.241-.72 0 .08 0 .16.044.24-.266-.28-.843-.36-1.42-.44-.177-.16-.354-.28-.532-.439.089-.04.178-.12.266-.2zm-1.463 35.764c.133-1.039.399-2.078.399-3.117v-6.633c.355.08.754.16 1.109.24.577-.76 1.33-1.679 1.907-1.519 1.863.48 3.903.92 5.411 2.318 1.154 1.079 2.262 1.358 3.238.919 1.641-.76 3.15-.28 4.702-.04 1.73.28 3.326-1.399 3.46-3.676-1.509 0-2.972.04-4.48 0-1.553-.04-3.15-.2-4.702-.32-.798-.08-1.73.08-2.395-.36-2.794-1.718-5.544-3.596-8.65-4.395 0-.16-.043-.28-.043-.44v.4h-.045v6.793h.044c.045 3.317.045 6.553.045 9.83zm69.858 166.071v-.959c-.577.16-.976.24-1.375.36a1.21 1.21 0 0 1-.222-.28c.222-.2.577-.36.665-.599.09-.24 0-.48-.044-.76-.355.12-.843.2-.976.36-.222.32-.266.719-.355 1.119-.044.24-.044.479-.088.719-.133-.12-.267-.2-.4-.319-2.306-1.839-4.346-3.837-6.741-5.635 0-.08-.045-.12-.045-.2h-.177c-.4-.279-.754-.559-1.153-.839-2.662-1.838-6.033-3.077-7.496-5.714-1.375-2.397-5.101-4.515-8.472-6.393-2.129-1.199-5.9-1.479-5.278-3.876.044-.08-.4-.2-.577-.36-1.996-1.439-3.947-2.917-5.943-4.356L6.528 207.04c-.4-.279-.754-.639-1.109-.919 1.996-.759-.133-.999-.577-1.398-1.02-.919-2.173-1.798-3.237-2.677-.666-.56-1.464-.959-2.351-1.279-.31-.4-.577-.799-.843-1.199-.177.04-.31.12-.488.16.089.12.222.24.266.36.045.119.089.239.089.359a22.2 22.2 0 0 0-1.774-.399c.177-.12.31-.28.355-.4.177-1.079.221-2.158.266-3.277 0-.199 0-.479-.133-.559-1.242-.4-.178-1.239-.799-1.798-.221-.2.266-.76.045-.879-.31-.2-.976-.12-1.42-.2a52.38 52.38 0 0 1 1.863-.919c.045.2.133.399.178.559.399-.24.798-.439 1.197-.679.089-.04.178-.04.266-.08 0 .12-.044.24-.044.36.976.279 1.952.599 2.927.879.045-.2.09-.36.133-.52-.532-.479-1.02-.999-1.596-1.398-.621-.4-1.287-.879-1.952-.959-.4-.04-.887.559-1.197 1.039-.045.079-.045.279.044.479a16.36 16.36 0 0 0-1.286-.16c.399-.2.665-.319.887-.439-.4-.52-1.287-1.119-1.065-1.399.754-.999-.133-1.638-.887-2.557.976.08 1.686.16 2.839.279 0-1.318-.045-2.597 0-3.876.044-.839-.666-.999-1.686-.919-.532.04-1.064.24-1.818.44-.666-.999.443-1.678.887-2.478a52.488 52.488 0 0 1 4.968-.479c8.87-.32 17.786-.52 26.657-.799 2.66-.08 5.366-.24 8.028-.4.576-.04 1.153-.28 1.73-.4-.045-.199-.045-.439-.09-.679-1.773.24-3.592.6-5.366.759-2.528.2-5.056.28-7.63.36-1.418.04-2.838-.08-4.213-.16-1.153-.08-2.306-.28-3.504-.24-3.06.08-6.12.24-9.181.32-.754.04-1.508-.24-2.218-.24-3.46.12-6.919.28-10.379.44 0-.08 0-.2-.044-.28.488-.04 1.153-.04 2.218-.08-.222-.959-.488-1.918-.666-2.757.178-.599.4-1.079.533-1.638.088-.4-.045-.839 0-1.239.133-.639.177-1.199-.71-1.638-.488-.24-.798-.64-1.109-.879.887.079 1.73.159 2.617.239l.222.6c.488-.68 1.508-1.439-.045-1.838-1.197-.32-1.596-.64-.71-1.399-.665.08-1.108.16-1.552.24-.133-.839-.221-1.599-.354-2.558-.71.44-1.065.68-1.42.879-.488-.239-.843-.479-1.242-.559-1.552-.36-2.084-2.038-.976-2.837a1.14 1.14 0 0 0 .4-1.119c-.133-.559-.4-1.119-.666-1.718.133.04.266.08.444.08.4.04.843-.56 1.286-.879-.31-.44-.532-.959-.887-1.319-.4-.44-.887-.719-1.33-1.079-.355-.28-.71-.599-1.11-.879 0-2.238 0-4.476-.044-6.673 0-.879-.177-1.719-.266-2.598v9.031l-.044-.04v3.557h.044v19.66h-.044v6.433l.044-.04v61.018h.266v.12H4.221l-.266-.12h8.56c.09.04.223.08.311.12h1.153l-.133-.12h19.161c-.044-.599 0-1.199-.133-1.798-.31-1.279-.71-2.517-1.153-4.036 1.153.08 1.996.16 2.795.2.133-.12.354-.28.354-.36-.576-1.478 1.641-1.798 2.573-2.677 1.02.4.976.36.266.719-.355.16-.488.48-.754.759 3.37-.159 2.129-1.958 2.44-3.236-1.02.439-2.263.839-2.662 1.478-.576.919-1.33.999-2.617.839.222-.439 1.464-.759.133-1.158a18.33 18.33 0 0 1-.887.999c-.266-.2-.488-.36-.798-.64-.222.52-.444.959-.621 1.359l-.931-.24h-.045c-.31.44-.62.839-.976 1.359-.798-.12-.798-.12-.532-1.239l1.464-.12v-.04h.044c.4-.559.799-1.159 1.242-1.758-.444.12-.843.24-1.464.399-.532-.799-1.064-1.558-1.596-2.397-1.952.959-3.904 1.918-5.944 2.917-.177-.36-.31-.599-.443-.839h-.355c-.133.359-.31.759-.488 1.199-.266-.12-.71-.28-.71-.36.532-.919-.443-1.119-1.508-1.399.621-.08 1.242-.199 1.952-.279-.045-.2.088-.56-.178-.72-.443-.359-1.242-.919-1.596-.839-1.331.32-2.529.839-3.815 1.319-.222-.759 1.02-1.319 2.927-1.519-.487-.279-.931-.599-1.419-.879-1.02 1.119-2.04 1.359-2.883.76a14.98 14.98 0 0 1-.443.839c-.4-.2-.666-.32-.932-.44l-.4.24a63.26 63.26 0 0 0 1.775 1.199c-.754.04-1.508.04-2.262.08v1.198c-1.375-.119-2.661-.199-3.859-.279.133-.879.222-1.719.444-2.558.044-.2.62-.319.976-.479 0 0 .044 0 .044.04v-.04c.71-.24 1.464-.48 2.306-.799-.532-.36-.887-.72-1.419-.88-.976-.319-1.065-.639-.222-1.038.31-.16.666-.28 1.198-.52-1.11-.559-2.573-.599-2.262-1.558 0-.04-.266-.12-.355-.12-.799.08-1.597.2-2.484.359.31.32.488.48.665.68-.798.12-1.463.199-2.129.279a.854.854 0 0 1 .133-.199c-.443-.16-.931-.36-1.375-.52.488-.24.976-.479 1.508-.759-.088-.12-.133-.24-.221-.36-.355-.04-1.02-.16-1.065-.08-.266.4-1.42.68-.443 1.239-1.242-.479-1.242-1.119-.754-1.878.488.04.931.08 1.33.12.266-.32.488-.599.71-.879.532.16.887.319 1.33.439v-1.998c-.975-.08-1.995-.199-3.46-.319a36 36 0 0 0 1.243.999c-.976.599-1.375.519-1.996-.4-.444.04-.932.2-1.286.08-.533-.16-1.198-.44-1.375-.799-.355-.679-.488-1.399-.621-2.078-.045-.28 0-.679.266-.879.266-.2.976-.44 1.286-.32.4.08.754.48.843.799.133.36.044.76.044 1.159.089 0 .178.04.266.04.444-.519.887-.999 1.287-1.478-.932-.44-1.819-.84-2.529-1.199a55.11 55.11 0 0 1 2.395-1.678c.621.239 1.287.439 1.908.679.044.04.044.08.044.12 0-.04.044-.04.044-.08 3.593 1.279 7.141 2.557 10.69 3.836 2.395.879 4.746 1.319 7.984 1.079-1.908-.919-3.327-1.599-4.79-2.238-.311-.12-.976 0-1.464-.04-.533 0-1.154.08-1.508-.04-3.016-1.199-5.944-2.437-8.96-3.636-.62-.24-1.242-.48-1.907-.719.133-.12.31-.24.576-.32-.221-.24-.354-.599-.665-.679-.4-.12-.798-.28-1.197-.4l2.262-.24-.045-.04a7.377 7.377 0 0 0-4.125-.959c.133-.239.266-.479.444-.719.443.32.665.48 1.064.759.31-.399.577-.759.887-1.119.09.08.222.12.31.2a8.116 8.116 0 0 0-.487-.719c-1.375.36-2.661.719-3.948 1.039.355-.44.888-.839 1.509-1.159.532-.28 1.33-.36 1.818-.639.532-.32.931-.76 1.375-1.159-1.198.799-1.863.479-2.44.08 1.11-.16 2.263-.28 3.416-.28.71 0 1.375 1.758 1.907 2.717.133.24-.4.56-.798 1.159a256.49 256.49 0 0 0 5.145-.879c-1.33 1.199-1.42 1.239-6.032 1.598 0 0 .044 0 .044.04h-.044c.62.56 1.064 1.239 1.907 1.679 1.508.759 4.923.719 5.722-.12.487-.52.088-1.319.088-1.998.533-1.079.222-2.078-1.42-2.278-2.793-.36-3.858-.879-3.459-2.038.488-.24.976-.479 1.464-.759l.4-.24c.31.2.576.36.842.56 1.597 1.079 3.326 2.078 4.746 3.236 2.572 2.038 5.145 4.116 7.407 6.314 1.33 1.279 2.35 2.477 5.056 3.117 1.553.359 2.573 1.478 3.815 2.277-.178.08-.355.2-.532.28l-6.654-2.997c1.11 2.598 3.416 4.516 6.787 6.154 3.016 1.478 5.721 3.117 8.56 4.755 1.065.6 1.863 1.399 3.016 1.918l.532.24c-.576.12-1.153.24-1.73.4.045-.28.045-.48.09-.76-.755.2-1.376.36-1.997.48.754.919 1.42.999 4.214.16 4.968 2.557 7.629 5.954 9.891 9.47h5.145c-.577-.44-1.197-.879-1.774-1.319a1.27 1.27 0 0 0 .222-.479c.71.08 1.375.16 2.084.24.09-.12.133-.24.222-.36-1.375-.04-.665-1.718-2.794-1.199zM-8.11 182.026c.222-.32.444-.759.665-.959.089-.04.178-.12.266-.16.133 0 .267-.04.4-.04.133.12.266.2.399.32l-1.73.839c0 .04 0 .04 0 0zm36.725 58.86c.267.32.666.639.754.959.133.759.577 1.119 2.085.879v1.439c-.488-.28-.976-.52-1.464-.799-.088.04-.133.119-.221.159-.488-.839-1.02-1.638-1.508-2.477.044-.08.221-.12.354-.16zm-12.774-4.076c.4.16.799.36 1.287.56.133-.28.266-.52.399-.76.222.08.443.12.488.24.399.68.71 1.399.976 1.918-1.11-.04-1.952-.08-3.061-.12-.133-.479-.355-1.118-.532-1.718.177-.08.31-.12.443-.12zm-5.721-2.357h-.045c0 .04.045 0 .045 0zm-12.908-33.007c.045.04.09.04.134.08h-.134v-.08zm4.037 11.948l-1.464.959c-.044-.32-.089-.679-.133-1.039.4-.08.843-.12 1.286-.2.089.04.222.08.31.12 0 .04.045.12 0 .16zm-1.153-2.637c.266-.04.532-.08.842-.16-.177.08-.399.16-.62.24-.09-.04-.134-.08-.222-.08zm3.237 1.398c-.798-.04-1.552-.12-2.35-.16.71-.079 1.419-.159 2.173-.239-.355-.2-.754-.4-.887-.48 0-.319.044-.679.044-.959 1.153-.32 2.174-.679 2.351-1.039-.488-.16-1.02-.359-1.109-.399-.488.159-.931.319-1.375.519-.133-.24-.31-.479-.71-.719l.045.04c-.444-.12-.887-.2-1.33-.32-.489-.12-.977-.2-1.154-.24.31-.559.532-.879.71-1.238a2.32 2.32 0 0 1-.488-.16c-.444.399-.843.799-1.198 1.119-.266-.16-.576-.28-.754-.4.045-.519.089-1.039.133-1.598.355.16.71.279.932.399 2.04-1.278.133-2.717.532-4.116a775.79 775.79 0 0 0 5.855 2.558c-1.597.519-1.952.639-2.13.679a1030.03 1030.03 0 0 1 6.476 5.035c-5.1-.08-5.1-.08-5.766 1.718zm5.678-.239c.177-.32.443-.64.754-.999a9.5 9.5 0 0 0 .443.279l-1.197.72z" fill="#F5F5F5"/><path d="M34.382 241.286c.046-.04.046-.04 0 0z" fill="#F5F5F5"/><path d="M34.427 241.286c.044.16.089.36.133.599-.444-.08-.754-.16-1.286-.279.088.559.133.999.221 1.518.577-.2.976-.32 1.553-.519-.045.879.798.599 1.463.519.045.599.31.919 1.242.559v.04c0-.04.045-.08.045-.08l-.045.04c-.088-.639-.355-1.278-.177-1.838.044-.199 1.242-.279 1.952-.399-.755-.36-1.553-.76-2.396-1.159-.133.28-.221.519-.354.799-.178-.04-.31-.08-.488-.08.177-.399.31-.799.488-1.199-.4.04-.799.08-1.198.08-.488.44.355 1.319-1.153 1.399zm2.306-1.56c.044 0 .044 0 0 0 .044 0 .044-.038.089-.038 0 0-.045-.001-.089.038.044 0 .044-.039 0 0zm65.866-.398c.71-.12 1.198-.24 1.775-.32a59.893 59.893 0 0 1-1.331-1.039c-.222.24-.488.44-.71.68-.222-.2-.399-.32-.576-.48-.843.4-1.154.839-.621 1.439.443.519.754 1.118 1.109 1.678.177-.08.354-.2.487-.28.754.6 1.287.04 1.597-.24.444-.399.665-.959 1.02-1.478-.975.36-1.818.679-3.016 1.119.178-.64.222-.919.266-1.079zm-16.589 3.916c.09-1.159-.886-2.478 1.332-3.317-1.819.16-1.908.24-2.04 1.239-.045.599-.533.799-1.553.4-.089.479-.133.839-.222 1.438.4-.2.532-.24.621-.28.044-.04.089-.04.133-.079.089-.04.089-.04 0 0 .488.279.887.519 1.33.759.178-.08.311-.12.4-.16z" fill="#F5F5F5"/><path d="M40.104 243.643c-.576-1.398 1.819-.279 1.819-1.158-1.11-.72-2.351-.879-3.15-.28-.487.36-.665.879-.975 1.359.665-.52 1.42-.4 2.306.079zm-19.649-12.667c-.798.28-1.463.52-1.685-.319-.045-.12-.355-.16-.666-.36-.088 1.039 1.242 1.678 2.706 1.438.444-.08.798-.399 1.153-.639.045-.04-.133-.32-.133-.32-.488.04-1.02.04-1.375.2zm-6.121.32c-.133.16-.266.32-.443.479.843.24 1.685.52 2.395.72 1.02-1.399.976-1.679-.577-1.719.533.999-.31.879-1.375.52zm87.378 5.554c.311-.519.488-.839.754-1.358.266-.24.799-.6 1.464-1.159-2.395.519-3.238 1.399-2.218 2.517zm-67.596.76c0-.041 0-.041 0 0-.044-.041 0 0 0 0zm-.044-.041c-.133-.759-.222-1.518-.355-2.397-1.597 1.039-1.33 1.958.355 2.397zm8.472 1.16c.133.799.088 1.638 1.552 1.958-.887-.52.444-1.759-1.552-1.958zm21.156-.48v2.757c.489-.319.8-.559.932-.639-.222-.799-.443-1.439-.62-2.118H63.7zm54.557 5.115c-.444-.24-.888-.44-1.42-.719-.399.199-.71.359-1.02.519 0 .12 0 .24.044.32.754.08 1.464.12 2.218.199.044-.079.133-.199.178-.319zm-91.947-10.11c.754-.4.754-.4.133-1.678-.355.199-.754.359-.931.479.354.48.576.839.798 1.199zm-13.883 3.357c-.089-.2-.177-.56-.222-.56-1.242 0-1.197-.639-1.508-1.159-.088-.159-.354-.239-.532-.359-.044 1.039.444 1.878 2.262 2.078zm150.494 2.037a93.31 93.31 0 0 1 .533-1.718c-.843.44-1.952.879-.533 1.718zm-56.507-206.75c-1.73-.4-3.415-.759-5.145-.959-1.508-.16-3.016-.12-4.524-.16-1.02-.04-2.13-.319-3.105.04-1.33.52-2.528.88-3.948.28-.798-.36-1.907-1.318-2.705.36-.089.2-.621.16-.843 0-1.42-1.159-2.839-.4-4.258-.2-.4.04-.754.2-1.153.24l-4.746.12c-.222 0-.444.04-.665-.08-2.307-1.199-4.569-.56-6.831.08-.355.08-.621.64-1.109 1.199 1.641.559 2.794 1.798 4.347 1.119.62-.28 1.375-.08 2.085-.04 2.129.12 4.258.28 6.387.36 1.197.04 2.439-.08 3.637-.08 4.346 0 8.649 0 12.995-.04 2.795-.04 5.589-.72 8.428.04.443.12 1.109-.72 1.596-1.2 0-.08-.266-1.038-.443-1.078zM18.725 186.022c-2.04.08-4.08-.799-6.12.439-.666.4-1.597.08-2.396.16-.399.04-1.109.2-1.153.44-.133.799-.222 1.918.089 2.477.665 1.159 2.75.959 3.681.04.266-.279.665-.319 1.02-.319.71 0 1.42.199 2.085.159.931-.079 1.819-.279 2.75-.439l.133.36c.444-.32.887-.6 1.33-.92-.399-.759-.753-1.478-1.153-2.197-.088-.2-.177-.2-.266-.2zm-17.83-1.998c-.133-.28-.621-.36-.887-.32-.355.04-.665.32-.887.44 0 .959-.045 1.718 0 2.397.088 1.119 0 2.638.488 3.197 1.02 1.159 2.129 2.837 3.77 1.239.31-.28.843-.12 1.286-.12 2.528-.04 2.573-.04 1.863-3.277-.133-.679-.577-1.199-.887-1.798-.488.599-.932 1.239-1.42 1.758a44.264 44.264 0 0 1-2.439 2.398c-.044.04-.266-.08-.355-.2-.488-.839-1.109-1.598-1.375-2.557-.133-.48.532-1.239.754-1.958.089-.32.222-.919.089-1.199zM121.14 32.018c-.444-.559-.799-1.238-1.331-1.678-.266-.24-.754-.08-1.153-.08l-5.988.36v-.12c-.621.2-1.286.32-1.907.6-.355.16-.887.559-.887.759.088.559.31 1.478.621 1.558.887.24 1.774.32 2.661.2 2.173-.24 4.302-.64 6.475-1 .533-.08 1.021-.399 1.509-.599zm59.523.2c.089-.2.133-.4.222-.6-.532-.599-1.02-1.438-1.641-1.757-1.641-.84-3.371-.52-4.968.4-.488.279-.754 1.158-1.153 1.757.443.24.887.68 1.33.68 1.642 0 3.238-.16 4.879-.28.4 0 .843-.12 1.331-.2zm-19.871-3.396c-.842.08-1.685.36-2.705.599 0-1.518-1.02-1.958-1.42-1.239-.798 1.479-1.153 3.357-1.685 5.075 0 .04.177.2.488.6.488-1.16.976-2.198 1.508-3.397 1.419.48 2.927 1.079 4.435 1.478.222.04.799-.719.799-1.118 0-1.12-.444-2.118-1.42-1.998zm-22.62 2.158c-3.105-.16-6.254-1.08-9.182 1.238 3.061-.6 6.254 1.638 9.182-1.239zm-78.108 2.796c.62-.04 1.286-.12 1.907-.04.887.12 1.818.56 2.705.48.577-.08 1.154-.839 1.686-1.398.089-.08.089-.6-.044-.8-.09-.16-.355-.24-.577-.24-1.109-.04-2.218.12-3.282-.08-1.33-.24-2.529-.16-3.504 1.24-.089.08-.178.12-.266.2v.04c.088-.08.177-.12.266-.2-.089.2-.178.359-.266.559v.36c.443-.04.887-.08 1.375-.12zM43.386 175.872c-.044-.199-.044-.439-.088-.639-1.952-.759-2.573-.759-4.391-.04-.31.12-.621.2-.887.4-.444.359-.888.799-1.331 1.198.044.2.133.4.177.6 2.218-.48 4.347-.999 6.52-1.519zM12.516 73.057c0 .36.177.879.355.959 1.286.56 2.617 1.039 4.169 1.638-.931-2.717-2.794-2.198-4.036-3.197-.045-.04-.488.4-.488.6zm27.943-38.761c-1.33.84-3.593-1.358-4.125 2.717 1.597-.799 2.927-1.518 4.302-2.197-.088-.16-.133-.36-.177-.52zm101.616-2.198c-.222-.32-.399-.959-.621-.959-.799 0-1.597.2-2.44.32v.76c.754.199 1.508.439 2.262.518.266.04.533-.4.799-.639zm-110.354 157.4h2.839v-.639h-2.84v.639zm114.213-156.8c0-.28.044-.52.044-.8-.932-.12-1.819-.24-2.75-.36 0 .32-.044.6-.044.92.887.08 1.818.16 2.75.24zm38.277-2.198c-.266.2-.266 1.039-.399 1.598.133.08.266.16.355.24l1.464-1.199c0-.24-.045-.48-.045-.719-.488 0-1.02-.2-1.375.08zm-35.705 1.878c.044.2.089.4.133.56.665-.24 1.331-.48 2.218-.84-1.153-1.278-1.73-.52-2.351.28zm-99.708 2.358c-.178-.56-.444-1.439-.71-2.278 0 2.158.177 2.398.71 2.278zm9.58-.68l.044-.12v-.32c-.089.16-.133.32-.221.48.044-.08.088-.08.177-.04zm.044-.519h.222v-.32c-.045.12-.133.2-.221.32zm97.935 51.547c-.266.2-.444.36-.799.68-.177-.4-.31-.68-.354-.92-.089-.319-.045-.639-.178-.958-.177-.36-.532-.64-1.375-.48.399.72-.443 1.119-.931 1.678-.887-.16-1.73-.44-2.617-.04.044.76 1.153.68 2.085.96-.666.2-1.109.36-1.73.559.621.16 1.109.24 1.419.4.311.16.444.479.798.879.311-.32.488-.48.621-.68.843-.999 1.597-1.119 3.105-.56.089.04.178 0 .133 0 .311-.279.577-.479.887-.758-.354-.24-.709-.48-1.064-.76zM62.06 29.62c.754.32 1.419.64 2.306 1.04.931 0 1.153-.56 1.597-1.079-1.641-.6-1.641-.6-1.198-1.518-1.818.08-2.528.559-2.705 1.558zM130.188.25c.044-.24.044-.479-.045-.679-.177-.48-.931-.799-1.552-.759-.754.08-.887.48-.976.88-.044.08 0 .159 0 .199 0 .76.222.999.932 1.039.887.08 1.508-.16 1.641-.68zm44.576 54.066c-.754.32-.532.839-.222 1.278.089.12.133.2.266.44.444-.04.932-.04 1.242-.16.488-.2.843-.48 1.242-.72.399-.279.311-.599-.222-.718-.709-.24-1.552-.4-2.306-.12zM60.33 29.9c-.178-.24-.577-.439-.799-.599-.71.08-1.197.08-1.64.16-.311.08-.755.28-.755.4 0 .32.222.679.887.679.488 0 1.065-.04 1.508-.16.31-.12.843-.4.799-.48zm85.382 45.914c.133-.08.177-.2.355-.36-1.553-.6-2.484-.839-3.194-.759.178.28.355.6.577.88.621.758 1.242.838 2.262.239zm20.713 5.434c-.532-.32-1.153-.56-1.774-.839-.576.64.798 1.08.399 1.678.577.08 1.02.16 1.597.24.311-.48.266-.799-.222-1.079zm2.218-1.558c.798.12 1.197.04 1.109-.36-.089-.28-.222-.559-.355-.839.443-.08.843-.12 1.552-.24a43.388 43.388 0 0 1-2.04-.719c-.931.76.488 1.439-.266 2.158zm-27.721 6.593c.044-.28-.045-.6-.577-.56-.532.04-1.286.04-1.508.56.31.16.665.28.976.48.31.2.621.4.976.68.044-.48.088-.84.133-1.16zm32.334 140.937c.044-.12.089-.24.133-.44-.133-.12-.355-.279-.532-.479-.266.12-.533.24-.799.399-.088.04-.133.16-.177.24-.266.32-.133.6.443.679.533.08.799-.159.932-.399zm-26.48-144.053c.046-.04.046-.04 0 0zm.045-.001c0 .64 0 .64-1.375.88.221.24.399.48.532.639.798-.44 1.464-.84 2.306-1.319-.621-.08-1.064-.16-1.463-.2zm-51.629 42.757c.045.16.444.32.666.36.266 0 .62-.12.798-.24.089-.04-.089-.32-.222-.44-.266-.159-.62-.319-1.109-.519-.044.36-.222.599-.133.839zM67.648 237.37c-.399-.16-.71-.08-.931.16-.444.479.088.679.754.879.71-.56.754-.799.177-1.039zM190.288 1.61c.044.04.488-.04.71-.08-.045-.16-.045-.44-.222-.52-.399-.16-.932-.24-1.508-.36-.399.72.798.6 1.02.96zm-35.661 87.51c.532-.08.798-.24.577-.68-.666.08-1.287.12-1.996.2.31.52.842.56 1.419.48zm-12.463-1.118c-.71-.12-1.287-.2-1.863-.32-.089.04-.133.12-.222.16.443.24.399.759 1.375.759.222-.16.443-.36.71-.6zm13.173-22.298c-.532.36-.045.72.532 1.079.311-.24.532-.44.931-.84-.665-.04-.887-.638-1.463-.239zm31.624 8.871c-.754.52-.754.52-.177 1.159.976-.44 1.02-.68.177-1.159zM146.51 86.963c-1.597-.68-1.597-.68-2.262-.12.71.32 1.508.08 2.262.12zM45.072 138.47c-.31 0-.621.12-1.109.24.355.24.577.44.71.44.31-.04.576-.2.887-.32-.178-.12-.31-.36-.488-.36zm47.459-40.079c.532-.2.4-.48.222-.76a.752.752 0 0 0-.266-.119c-.621.12-.754.36-.488.72.044.08.443.199.532.16zm57.927-95.982c.488-.44-.399-.72-.311-1.12-.709.6-.709.68.311 1.12zm6.165 80.677c.089.36.177.64.266.92.798-.64.798-.68-.266-.92zM52.301 19.431c-.044.08.178.2.355.44.31-.2.577-.32.666-.48.044-.08-.267-.24-.444-.36-.222.12-.443.24-.577.4zm86.713 68.011c-.31 1-.266 1.04.976 1.159-.31-.36-.576-.68-.976-1.159zm5.234-4.635c.177-.12.532-.24.488-.32-.044-.16-.311-.28-.577-.48-.221.2-.488.32-.443.36.133.16.355.32.532.44zm-9.98 55.903c.355-.52.355-.52-.221-.879-.4.399-.4.399.221.879zm30.161 100.138c.355-.279.621-.479.887-.679-1.153-.04-1.153-.04-.887.679zM123.18 4.087c.443-.56.443-.56.177-1.159 0 .36-.621.68-.177 1.159zm-18.141 171.705s-.311-.12-.355-.08c-.177.16-.355.28-.532.44-.045.08 0 .16 0 .24.177 0 .399 0 .443-.04.222-.16.311-.36.444-.56zM86.454 99.03c0-.12-.177-.24-.31-.36-.178.08-.488.12-.488.2 0 .12.133.28.31.52.267-.16.488-.24.488-.36zm8.606-29.97c-.223.2-.444.36-.4.48.044.12.31.24.488.32.177-.12.443-.24.443-.36s-.266-.24-.532-.44zm18.983 82.956c.177-.159.399-.279.399-.399-.044-.12-.266-.2-.444-.28-.133.08-.399.2-.399.28.045.12.266.24.444.399zm34.951-69.369c.222-.12.399-.24.843-.44-.577-.04-.887-.04-1.153-.04-.045.04-.089.12-.133.16.088.08.266.2.443.32zm-45.951 13.187c-.222.16-.399.32-.621.479.133.04.31.12.444.16.177-.2.31-.36.487-.56-.133 0-.221-.04-.31-.08zm39.209-22.058c-.443-.04-.887-.04-1.02.52.488-.12.843-.2 1.153-.28l-.133-.24zm-10.601 11.269c.533-.12.799-.16 1.065-.2a6.11 6.11 0 0 1-.444-.68c-.221.28-.354.48-.621.88zM20.854 139.589c.045.04.267.12.355.08.444-.12.444-.32.178-.56-.444.08-.666.2-.533.48zM171.615 22.828c-.089.04-.178.04-.311.08.045.24-.044.519.754.559-.133-.24-.31-.44-.443-.64zM46.98 215.951c0 .12.132.24.265.44.222-.16.4-.28.4-.32-.045-.12-.267-.2-.4-.279-.088.039-.266.119-.266.159zm12.551 15.824c.045.12.178.2.4.4.177-.16.354-.28.31-.36-.044-.12-.266-.199-.4-.279-.088.08-.31.159-.31.239zm83.387-155.721c-.134.04-.267.12-.444.2.133.12.222.24.266.2.178-.04.311-.08.444-.16a63.85 63.85 0 0 1-.266-.24zM9.677 77.972a.601.601 0 0 0-.444-.24c-.133-.04-.354.08-.665.16.488.2.665.32.843.32.044 0 .31-.2.266-.24zm107.958-51.428c-.133.36-.221.6-.266.84.089 0 .222.04.311.04.31-.24.355-.48-.045-.88zM10.742 99.55c-.045 0-.355.16-.31.2.043.12.22.279.398.479.222-.16.488-.32.444-.36-.089-.12-.31-.24-.532-.32zm104.232-19.62c-.133-.08-.266-.16-.443-.2-.045 0-.266.12-.222.16.089.08.222.16.355.28.177-.12.222-.2.31-.24zm45.242.24c-.355.16-.488.32-.222.559.044.04.31.08.355.04.399-.2.221-.4-.133-.6zm-12.242 2.597c-.178-.12-.355-.28-.532-.4-.178.2-.222.36-.133.48.044.08.31.08.443.12l.222-.2zM58.467 238.768c.089 0 .266-.12.266-.16-.044-.08-.133-.16-.222-.279-.133.04-.266.119-.488.199.178.16.31.24.444.24zM151.3 89.4c.178.12.4.24.577.32.089-.04.133-.08.222-.16l-.532-.36c-.089.08-.178.16-.267.2zm-11.044-5.315c.089-.16.222-.28.355-.44-.089-.04-.177-.04-.266-.08-.089.16-.222.28-.311.44.045 0 .133.04.222.08zm18.452-5.395c-.178.08-.4.2-.577.28.089.04.133.12.222.16.177-.12.355-.2.532-.32a.612.612 0 0 0-.177-.12zm-23.641 13.467c.133 0 .222-.12.31-.2-.133-.04-.266-.16-.399-.16s-.266.08-.488.2c.311.08.444.16.577.16zM60.95 237.05c-.044 0-.265.08-.265.12 0 .08.133.16.221.28.178-.08.355-.16.355-.2a.798.798 0 0 0-.31-.2zM8.746 48.162c-.089-.04-.222-.08-.31-.12-.178.24-.4.44-.71.84.71-.2 1.108-.36 1.02-.72zM153.075 80.61a5.068 5.068 0 0 0-.754-.16c-.045.04-.089.12-.089.16.222.039.355.279.843 0zm9.004-2.558c-.089.04-.222.08-.267.16 0 .04.133.12.222.16.133-.08.222-.16.311-.2-.089-.04-.222-.12-.266-.12zm-7.363.159c.088.12.088.2.177.24.089.04.222 0 .355 0-.044-.08-.044-.2-.133-.24 0-.04-.178 0-.399 0zm26.391-64.894c.133.08.31.12.443.2l.133-.12c-.133-.08-.31-.12-.443-.2l-.133.12zm4.08-2.157c0-.16.045-.32.045-.48h-.222c-.045.16-.089.32-.133.44.133 0 .221 0 .31.04zM156.49 76.134c0-.04-.133-.08-.177-.12-.089.04-.178.12-.178.16 0 .08.089.16.266.36.045-.24.089-.32.089-.4zm-10.512 7.073c.266 0 .532-.04.798-.08-.31-.04-.621-.12-1.153-.2.222.2.266.28.355.28z" fill="#F5F5F5"/><path d="M146.777 83.167s.044-.04 0 0c0-.04 0-.04 0 0 0-.04-.045-.04 0 0zm-7.585.639c.132-.04.221-.04.221-.08 0-.08-.044-.12-.044-.2-.089.04-.177.04-.177.08-.045.04-.045.12 0 .2zm-14.77 11.988c-.089-.08-.178-.16-.222-.16-.133 0-.266.08-.399.16.088.04.177.12.31.16a.742.742 0 0 0 .311-.16zM66.45 136.472c-.088.04-.221.12-.221.16 0 .04.133.12.222.24.133-.08.266-.16.266-.2-.045-.08-.222-.16-.266-.2zm21.956 42.637c0-.04-.133-.04-.222-.08-.044.08-.133.12-.133.2l.266.08c.045-.08.089-.16.089-.2zm48.346 18.102c.089 0 .133 0 .222-.04-.044-.12-.089-.28-.133-.4-.089 0-.178 0-.222.04.044.12.089.24.133.4zM85.834 21.31l.266.12.177-.16a.89.89 0 0 0-.31-.08s-.133.08-.133.12zm65.378 61.137h.532v-.12h-.532v.12zm-9.847 1.798a.35.35 0 0 0-.177.08l.133.12c.089-.04.177-.08.222-.12-.089 0-.133-.04-.178-.08zm-8.294-69.649c0-.04-.089-.08-.133-.12-.089.04-.178.12-.266.16.133.04.221.08.266.08.044 0 .133-.08.133-.12zm11.044 70.848c.222-.12.444-.2.798-.36-1.774-.32-1.862-.28-2.129.24.4 0 .976.04 1.331.12zm0 .04c-.044.16-.044.28-.089.44h.266c-.044-.16-.089-.32-.177-.44zM34.693 233.973c.044.08.089.12.266.48.089-.24.133-.32.133-.4 0-.04-.088-.12-.133-.12-.044-.04-.177 0-.266.04zm108.89-145.931l.133.12c.133-.08.266-.12.443-.2l-.133-.12c-.133.04-.31.12-.443.2zm-2.573 3.916l.178.08c.088-.04.177-.12.266-.16-.089-.04-.178-.08-.222-.12-.089.08-.177.12-.222.2zm-2.484 1.238c.089.08.178.16.311.24 0 0 .133-.04.177-.08l-.266-.24c-.089.04-.177.08-.222.08zm47.637-83.994c-.089 0-.177.08-.355.16.133.04.266.12.311.12.088 0 .177-.12.266-.16-.045-.04-.133-.12-.222-.12zm-72.652 86.032c-.045.08-.134.12-.178.2 0 .04.089.08.178.12.088-.08.133-.16.177-.2 0-.04-.133-.08-.177-.12zM78.204 1.889c.089-.04.221-.04.221-.08 0-.08-.088-.16-.088-.2-.088 0-.177.04-.177.04-.044.12 0 .16.044.24zm40.141 95.862a.675.675 0 0 1-.266.08l.133.12c.089-.04.178-.04.222-.08 0-.04-.044-.08-.089-.12zm34.464-19.779a.728.728 0 0 0-.178-.2c-.044.04-.133.08-.177.12.044.04.044.12.133.12.044.04.133 0 .222-.04z" fill="#F5F5F5"/><path d="M50.14 10.264c-1.6-6.6-5-13-10.7-16.8-5.5-3.7-12.3-4.6-18.4-1.9-4.7 2.1-8.6 5.7-13.1 8.2-6.1 1.6-12.7 3.3-17.4 7.5-5.2 4.7-6.4 12.2-5 18.8.8 3.5 2.3 6.9 4.2 10 1.9 3.2 4.3 6.2 7.3 8.5 5.7 4.4 12.9 6.8 20 7.2 13.3.7 26.6-6.7 31.8-19.2 3-7 3.1-15 1.3-22.3zm-1.2 15.3c-2.1 12.9-13 22.8-25.8 24.4-6.8.8-13.9-.5-20-3.6-3.1-1.6-6.1-3.6-8.4-6.3-2.3-2.6-4.2-5.8-5.6-9-2.7-6-3.4-13.2-.1-19.2 1.5-2.7 3.9-4.8 6.7-6.3 3.1-1.7 6.7-2.3 10.1-3.3 2.6-.8 4.8-2.3 7-3.8.1-.4 2.3-1.4 2.6-1.7 1-.6 1.9-1.3 2.9-1.9 1.7-1.1 3.5-2 5.4-2.7 3-.9 6.2-.9 9.2-.1 13.7 4 18.1 21 16 33.5z" fill="#C4C4C4"/><path d="M20.74 30.864c-1.6-3-5.1-5-5.9-8.5-1-4.1 1.2-8.4-.9-12.3-1.6-2.9-5-4.6-8.1-3.9-2.7-.1-5.2 1-7.2 2.9-2.9 2.6-4.3 6.6-4.9 10.4-1.1 7.3.9 15.6 6 21.1 2.8 3 7.2 4.5 11.2 4.8 3.7.3 7.3-1.2 9.4-4.3 1.9-3 2.1-7 .4-10.2zm-.8 6.5c-.6 3.1-3.2 5.5-6.2 6.2-1.9.4-3.9.1-5.8-.4-1.8-.4-3.6-1-5.1-2-2.8-1.9-4.7-5.2-6-8.3-1.3-3.1-1.9-6.4-1.9-9.8 0-3.8.9-7.9 3.1-11 1.7-2.5 4.5-4.5 7.5-4.9 3-.1 6 1.2 7.2 4.2 1.2 3.1 0 6.5.1 9.7.2 3.1 2 5.3 4 7.5 2.2 2.6 3.8 5.4 3.1 8.8z" fill="#C4C4C4"/><path d="M10.34 17.664c0-1.7-2.1-3.2-3.5-3.8-1.3-.6-3.7-1.2-4.7.4-1.1 1.7 1 3.3 2.3 4 1 .5 2.1.7 3.2.9.9.1 2 .4 2.8-.1.7-.4.4-1.2-.1-1.4zm-2.6 0c-.6-.1-1.3-.2-1.9-.4-.6-.2-3.6-1.7-1.9-2.3 1.1-.4 2.7.3 3.6.9.9.5 1.4 1.4 2.2 2-.5.1-1.6-.2-2-.2zm2.5 7.8c.1-.1.1-.4-.1-.4-1.3-.4-2.6-.4-3.9-.4-1 0-2 0-2.9.4-1.4.6-3.4 2.2-2.6 4 .8 1.9 3.5 1.1 4.8.5 1-.4 1.9-1 2.7-1.6.7-.6 1.7-1.1 2.1-2 0-.3 0-.4-.1-.5zm-2.2.7c-.6.5-1.2.9-1.8 1.3-.8.5-3.4 1.9-4.1.9-.4-.6.5-1.4 1-1.8.6-.5 1.4-.7 2.2-.8 1.1-.1 2.1 0 3.2-.1-.2.3-.4.4-.5.5zm6.7 8.2c0-1 0-2.4-.6-3.2-.1-.2-.3-.2-.5-.2 0-.2-.2-.4-.4-.3-2.5 1.3-7.4 8.3-3.1 10.2 1.9.8 3.2-1.2 3.8-2.7.5-1.3.8-2.6.8-3.8zm-1.6 2.2c-.3.9-1.4 4.2-2.8 2.6-1.1-1.2.2-3.3.9-4.5.6-1 1.3-1.9 1.9-2.8.6 1.3.3 3.4 0 4.7zm29.2-28.4c-.9-2.1-2.2-4-4-5.4-1.9-1.4-4-2.7-6.2-3.8-3-1.4-6.1-1.9-9.3-.5-2.8 1.2-5.5 3.9-6.3 6.9-.4 1.6-.3 3.4.6 4.9.9 1.6 2.4 2.7 3.8 3.7 3.2 2.4 6.9 5.5 6.2 10-.3 2.1-1.3 4-1.6 6.1-.2 1.7.1 3.2.9 4.7 1.6 2.9 4.9 4.8 8.2 4.3 3.8-.5 6.8-3.3 8.5-6.7 3.6-7.4 2.4-16.8-.8-24.2zm.3 20.7c-.9 3.3-2.9 6.8-6.3 8.1-3 1.2-6.3.1-8-2.6-2.1-3.2-.2-6.4.5-9.8.6-3.3-.7-6.3-3-8.6-1.4-1.5-3.1-2.6-4.7-3.8-1.5-1.1-2.9-2.4-3.2-4.3-1.2-7 8-9.9 13.3-7.6 1.8.8 3.4 1.9 5 3 1.5 1.1 2.8 2.4 3.7 4.1 1.6 3.1 2.6 6.9 3.2 10.3.5 3.8.5 7.6-.5 11.2z" fill="#C4C4C4"/><path d="M31.64 5.564c-1-1.2-2.8-.4-3.6.6-.6.7-.9 1.6-1.1 2.6-.2 1-.4 2.1-.2 3.1v.1c0 .1-.1.2-.1.3 0 .1 0 .2.1.2.7.2 1.2-.3 1.7-.7.7-.5 1.4-1.2 2-1.9.8-1 2.2-3.1 1.2-4.3zm-.9 1.6c-.3 1.2-1 2.2-1.9 3.1-.3.3-.7.6-1.1.9.2-.8.3-1.6.5-2.4.2-.6.4-1.2.7-1.7.2-.3.5-.6.9-.8.7-.3 1 .2.9.9zm8.4 8.6c-.8-1.5-2.8-.9-4-.4-1.6.7-3 1.6-3.9 3.2v.1c-.2.2-.1.5.2.6.8.3 1.9.2 2.7.2.9 0 1.8-.2 2.7-.5 1.2-.4 3.2-1.5 2.3-3.2zm-1.3 1.5c-.8.8-2.6 1.1-3.7 1.1-.6 0-1.2-.1-1.8-.1.7-.6 1.5-1 2.3-1.4.5-.2 1-.5 1.5-.6.4-.1 1.1-.4 1.5-.3.5.2.6.8.2 1.3zm-1.9 10.1c-1.1-.6-3.5-1.5-4.7-.7-.2.1-.1.4 0 .5.4 1.5 1.5 3.1 2.8 3.9 1.2.7 3.1.6 3.8-.8.7-1.3-.9-2.3-1.9-2.9zm-.4 3c-.6-.1-1.2-.5-1.7-.9-.6-.6-1.2-1.3-1.7-1.9.6.1 1.2.1 1.8.2 1 .3 2.1.7 2.8 1.5.7.8-.6 1.2-1.2 1.1zm-.1-20.6c-2 1.2-3.7 3.1-5.3 4.8-.1.1.1.3.2.2 1.8-1.5 3.9-2.9 5.3-4.8.1-.1-.1-.3-.2-.2zm2.9 11.9c-1.6-.3-3.4.1-5 .4-.3 0-.2.4.1.4 1.6-.2 3.4-.1 4.9-.5.2-.1.1-.3 0-.3zm-3.2 11.7c-.7-.9-2-1.4-3-1.8-.3-.1-.5.3-.2.4.6.2 1.2.5 1.7.8.4.3.8.6 1.3.8.1.1.3-.1.2-.2zm-11.5-27.9c.2-.8.5-1.6.6-2.4 0-.2-.2-.3-.4-.2-1.3 1.5-1.2 4.1-1 5.9 0 .3.4.2.4-.1 0-1 .1-2.1.4-3.2zm-12.8 7.6c-1.4-.9-2.9-2.2-4.5-2.7-.2 0-.4.1-.2.3 1.1 1.2 2.9 2 4.4 2.9.3.1.6-.3.3-.5zm-1.2 8.5c-1.7-.2-4-.5-5.5.3-.2.1-.2.4 0 .4.8.1 1.5-.1 2.3-.2 1.1-.1 2.1-.1 3.2 0 .3 0 .4-.5 0-.5zm2.9 6.7c-1.6 1.2-3.2 2.4-4.4 4-.1.2.1.3.2.2 1.8-1 3.2-2.5 4.6-3.9.2-.2-.2-.5-.4-.3zm3.8 3.9c0-.3-.5-.4-.5-.1-.2 1.9-.5 4.2 0 6.1 0 .2.3.2.3 0 .2-1.9 0-4 .2-6zm2.9-6.1c-1.1-2.1-2-4.1-2.3-6.5 0-.3-.4-.2-.4 0 .2 2.3.8 4.8 2.5 6.6.1.1.3 0 .2-.1zm2.1-8.5c-.3-.2-.7.3-.4.5 2.8 2.1 2.9 5.7 2.8 9 0 .1.2.2.3 0 1.1-3.3.3-7.3-2.7-9.5zM67.99 46.78c-1.3.7-2.4 1.9-2.8 3.3-.2.8-.3 1.8 0 2.6.1.7.4 1.4.7 1.9.7 1.2 1.8 2.1 3 2.6 2.5 1 5.7.4 7.2-2.1 1.3-2.2.7-5.3-.8-7.2-1.8-2.1-4.9-2.4-7.3-1.1zm6.9 4.5c.3 1.2.2 2.6-.6 3.6-.9 1-2.4 1.4-3.7 1.3-1.3-.1-2.6-.8-3.4-1.8-.3-.4-.5-.9-.7-1.3 0-.9 0-1.8.4-2.7.5-1.2 1.6-2 2.8-2.3 2.6-.8 4.7.7 5.2 3.2zm26.099 120.499c-1.3.7-2.4 1.9-2.8 3.3-.2.8-.3 1.8 0 2.6.1.7.4 1.4.7 1.9.7 1.2 1.8 2.1 3 2.6 2.5 1 5.7.4 7.2-2.1 1.3-2.2.7-5.3-.8-7.2-1.8-2.1-4.9-2.4-7.3-1.1zm6.9 4.5c.3 1.2.2 2.6-.6 3.6-.9 1-2.4 1.4-3.7 1.3-1.3-.1-2.6-.8-3.4-1.8-.3-.4-.5-.9-.7-1.3 0-.9 0-1.8.4-2.7.5-1.2 1.6-2 2.8-2.3 2.6-.8 4.7.7 5.2 3.2zM40.99 87.78c-1.3.7-2.4 1.9-2.8 3.3-.2.8-.3 1.8 0 2.6.1.7.4 1.4.7 1.9.7 1.2 1.8 2.1 3 2.6 2.5 1 5.7.4 7.2-2.1 1.3-2.2.7-5.3-.8-7.2-1.8-2.1-4.9-2.4-7.3-1.1zm6.9 4.5c.3 1.2.2 2.6-.6 3.6-.9 1-2.4 1.4-3.7 1.3-1.3-.1-2.6-.8-3.4-1.8-.3-.4-.5-.9-.7-1.3 0-.9 0-1.8.4-2.7.5-1.2 1.6-2 2.8-2.3 2.6-.8 4.7.7 5.2 3.2zm55.336 8.508c-1.1 1-1.8 2.4-2.6 3.6-.4.7-.8 1.4-1.3 2.1-.4.6-1 1.2-1.3 1.9-.1.3.1.6.4.5.1 0 .2-.1.3-.1 0 .1.1.2.3.2 2.9-.8 5.8.3 8.7-.1 2.1-.3 4.3-1.5 4.8-3.7.5-2.3-1.2-4.7-3.2-5.7-2.1-1.1-4.5-.2-6.1 1.3zm6.5 4.6c.6-.4 1.4-1 1.8-1.6.1.7 0 1.5-.4 2.2-.8 1.2-2.1 1.8-3.4 2-1.8.3-3.6.1-5.3.1.1 0 .2 0 .3-.1 1.3-.2 2.7-.5 3.9-1 1-.5 2.1-1 3.1-1.6zm1.5-2.5c-.9.6-1.5 1.4-2.4 1.9-1 .6-2.2 1.1-3.3 1.5-1.1.4-2.3.6-3.5.8-.6.1-1.2.2-1.9.3l.1-.1c1.8-.6 3.4-2 4.9-3 .8-.6 1.7-1.1 2.6-1.6.9-.4 1.8-.7 2.8-.9 0 .1.1.1.1.2.3.3.5.6.6.9zm-4.5-2.7c1.3-.3 2.5.2 3.4 1.1-1.6 0-3.3.9-4.6 1.7-1 .6-2 1.4-2.9 2.1-.5.3-.9.6-1.4.9.7-1.2 1.3-2.4 2.2-3.5.8-1.1 1.9-2 3.3-2.3z" fill="#C4C4C4"/></svg>