<svg width="64" height="64" viewBox="0 0 64 64" fill="none" xmlns="http://www.w3.org/2000/svg"><path d="M37.115 24.158l-2.557-.371-1.144-2.317c-.581-1.179-2.259-1.173-2.838 0l-1.143 2.317-2.557.371c-1.298.189-1.816 1.785-.877 2.7l1.85 1.803-.437 2.547c-.222 1.292 1.136 2.278 2.297 1.668l2.286-1.202 2.287 1.202c1.16.61 2.519-.374 2.297-1.668l-.437-2.547 1.85-1.803c.939-.916.42-2.511-.877-2.7zm-2.392 3.268a1.583 1.583 0 0 0-.455 1.4l.362 2.114-1.898-.998a1.583 1.583 0 0 0-1.473 0l-1.899.998.363-2.114a1.582 1.582 0 0 0-.455-1.4l-1.536-1.497 2.122-.309a1.582 1.582 0 0 0 1.192-.866l.95-1.923.948 1.923c.231.467.676.791 1.192.866l2.122.308-1.535 1.498z" fill="#8A8A8A"/><path d="M45.426 46.57l-5.261-9.738c.143-.334.362-.889.59-1.117.56-.56 2.26-.721 2.986-1.977.718-1.24.016-2.8.223-3.576.197-.737 1.593-1.737 1.593-3.207 0-1.464-1.398-2.478-1.593-3.206-.209-.783.497-2.333-.222-3.576-.727-1.256-2.429-1.418-2.987-1.977-.56-.56-.721-2.26-1.977-2.986-1.241-.718-2.796-.014-3.575-.223-.738-.197-1.738-1.593-3.207-1.593-1.464 0-2.479 1.399-3.207 1.593-.774.207-2.337-.494-3.576.223-.553.32-.866.817-1.053 1.164a.938.938 0 0 0 1.649.892c.122-.226.238-.372.343-.433.485-.28 1.951.278 3.121-.034 1.165-.312 2.105-1.53 2.723-1.53.609 0 1.569 1.221 2.723 1.53 1.183.316 2.627-.252 3.12.034.505.292.735 1.834 1.59 2.69.847.846 2.4 1.088 2.69 1.589.278.482-.276 1.96.034 3.121.312 1.169 1.53 2.104 1.53 2.723 0 .609-1.222 1.568-1.53 2.722-.317 1.184.252 2.627-.035 3.122-.293.506-1.832.732-2.689 1.59-.807.807-1.04 2.2-1.515 2.632l-.006.006c-.443.392-1.953-.245-3.19.085-1.121.3-2.13 1.53-2.722 1.53-.61 0-1.555-1.218-2.723-1.53-.63-.169-1.289-.09-1.87-.021-1.172.139-1.3.088-1.577-.414-.36-.646-.597-1.622-1.264-2.289-.84-.84-2.4-1.091-2.689-1.59-.28-.484.277-1.956-.034-3.12-.311-1.166-1.53-2.106-1.53-2.723 0-.616 1.219-1.56 1.53-2.723.316-1.183-.252-2.627.034-3.121.064-.111.216-.229.464-.36a.938.938 0 0 0-.875-1.658c-.363.191-.884.512-1.212 1.079-.717 1.24-.015 2.8-.223 3.576-.197.738-1.593 1.737-1.593 3.207 0 1.465 1.398 2.476 1.594 3.206.209.783-.497 2.333.222 3.576.726 1.256 2.428 1.418 2.986 1.977.228.227.44.763.59 1.117l-5.248 9.715c-.5.926.257 2.033 1.305 1.899l3.127-.404 1.295 2.609c.46.927 1.776.95 2.268.039l5.423-10.037 5.364 9.927c.517.958 1.899.933 2.382-.041l1.24-2.497 3.153.407c1.035.134 1.788-.962 1.291-1.88zm-19.955 2.213l-.864-1.74a1.615 1.615 0 0 0-1.653-.884l-2.188.282 4.25-7.867c.779.566 1.665.492 2.608.38 1.496-.177 1.17-.053 2.648.945l-4.8 8.884zm15.501-2.633a1.522 1.522 0 0 0-1.558.833l-.894 1.8-4.8-8.884c1.038-.701 1.18-1.018 1.86-1.013.946.007 2.303.48 3.395-.313l4.251 7.868-2.254-.29z" fill="#8A8A8A"/><path d="M57.233 38.763c.655-2.448 3.626-4.545 3.626-6.763 0-2.229-2.968-4.3-3.626-6.763-.674-2.52.827-5.832-.236-7.67-1.084-1.872-4.704-2.209-6.53-4.034-1.82-1.82-2.165-5.448-4.035-6.53-1.836-1.062-5.151.437-7.67-.236C36.299 6.107 34.23 3.14 32 3.14c-2.23 0-4.298 2.967-6.763 3.626-2.52.673-5.833-.826-7.67.236-1.87 1.083-2.21 4.706-4.034 6.53-1.822 1.821-5.448 2.166-6.53 4.035-1.062 1.834.437 5.15-.236 7.669C6.107 27.705 3.14 29.77 3.14 32c0 2.23 2.967 4.298 3.626 6.763.672 2.516-.826 5.833.236 7.67 1.08 1.865 4.711 2.216 6.53 4.034 1.828 1.828 2.163 5.447 4.035 6.53 1.835 1.062 5.15-.437 7.67.236 2.467.66 4.53 3.626 6.762 3.626 2.229 0 4.3-2.967 6.763-3.626 2.518-.673 5.832.827 7.67-.236 1.86-1.078 2.222-4.718 4.034-6.53 1.817-1.816 5.45-2.169 6.53-4.035 1.062-1.835-.437-5.15.236-7.67zm-1.811-.484c-.735 2.75.515 6.24-.048 7.214-.584 1.008-4.24 1.656-6.232 3.648-2.019 2.019-2.628 5.642-3.649 6.233-.978.566-4.452-.69-7.214.048-2.75.735-5.022 3.562-6.279 3.562-1.255 0-3.532-2.828-6.279-3.562-2.743-.733-6.25.51-7.214-.048-1.009-.584-1.656-4.24-3.649-6.233-2.016-2.015-5.643-2.63-6.232-3.648-.566-.978.692-4.447-.048-7.214-.734-2.75-3.562-5.022-3.562-6.28 0-1.253 2.828-3.53 3.562-6.278.743-2.78-.524-6.226.048-7.214.586-1.013 4.228-1.644 6.232-3.648 2.018-2.019 2.628-5.642 3.649-6.233.979-.566 4.452.69 7.214-.048 2.75-.735 5.022-3.562 6.279-3.562 1.255 0 3.532 2.828 6.278 3.562 2.741.733 6.243-.515 7.215.048 1.008.583 1.656 4.24 3.648 6.232 2.016 2.016 5.644 2.63 6.233 3.649.568.983-.692 4.446.048 7.214.735 2.75 3.562 5.022 3.562 6.279 0 1.273-2.824 3.516-3.562 6.279z" fill="#8A8A8A"/><path d="M60.268 39.574c.428-1.6 3.733-4.047 3.733-7.574 0-3.528-3.305-5.973-3.733-7.574-.456-1.706 1.176-5.443-.552-8.431-1.2-2.074-3.415-2.882-5.342-3.725a.937.937 0 1 0-.751 1.717c1.672.732 3.571 1.393 4.47 2.947 1.358 2.347-.239 5.724.364 7.976.579 2.167 3.669 4.292 3.669 7.09 0 2.806-3.087 4.912-3.67 7.09-.602 2.253.995 5.629-.363 7.976-1.375 2.377-5.109 2.675-6.73 4.296-1.631 1.631-1.913 5.351-4.296 6.73-2.346 1.358-5.725-.238-7.977.364-2.172.58-4.288 3.67-7.09 3.67-2.801 0-4.918-3.09-7.09-3.67-2.255-.603-5.628.995-7.975-.364-1.554-.899-2.213-2.792-2.947-4.47a.937.937 0 1 0-1.718.752c.827 1.888 1.63 4.13 3.726 5.341 2.986 1.728 6.727.097 8.43.552 1.6.428 4.048 3.733 7.575 3.733 3.528 0 5.973-3.305 7.574-3.733 1.694-.454 5.448 1.175 8.43-.552 3.018-1.746 3.468-5.812 4.684-7.027 1.21-1.211 5.285-1.672 7.027-4.683 1.73-2.99.096-6.724.552-8.431zM51.75 9.67c-.864-1.965-1.652-4.174-3.745-5.385-2.985-1.728-6.727-.097-8.431-.552C37.974 3.305 35.527 0 32 0c-3.529 0-5.973 3.305-7.574 3.733-1.705.455-5.446-1.176-8.431.552-3.017 1.746-3.468 5.813-4.683 7.027-1.21 1.21-5.285 1.672-7.028 4.683-1.727 2.987-.096 6.727-.551 8.431C3.305 26.026 0 28.473 0 32c0 3.528 3.305 5.974 3.733 7.574.456 1.706-1.177 5.444.552 8.431 1.11 1.918 3.144 2.786 4.779 3.484.683.291.739.34.983.34a.937.937 0 0 0 .378-1.795c-1.687-.742-3.61-1.399-4.517-2.968-1.361-2.351.24-5.717-.364-7.976-.58-2.169-3.669-4.292-3.669-7.09 0-2.8 3.09-4.92 3.669-7.09.603-2.253-.995-5.628.363-7.976 1.375-2.376 5.111-2.677 6.73-4.296 1.625-1.624 1.917-5.353 4.297-6.73 2.346-1.358 5.725.238 7.976-.364 2.168-.58 4.291-3.669 7.09-3.669 2.803 0 4.918 3.088 7.09 3.669 2.254.603 5.627-.995 7.976.364 1.57.908 2.225 2.828 2.968 4.517a.938.938 0 0 0 1.716-.755z" fill="#8A8A8A"/></svg>