<svg width="44" height="44" viewBox="0 0 44 44" fill="none" xmlns="http://www.w3.org/2000/svg"><g clip-path="url(#a)"><path d="M41.647 28.994c.28-.088.523-.276.68-.538a1.21 1.21 0 0 0 .037-1.185 6.485 6.485 0 0 0-.116-.213l-.036-.062-.086-.144-.05-.079c-.026-.04-.052-.081-.079-.12l-.06-.085-.076-.11a5.372 5.372 0 0 0-.066-.086c-.026-.034-.05-.068-.077-.1a4.321 4.321 0 0 0-.149-.182 4.888 4.888 0 0 0-.077-.087l-.079-.088a6.4 6.4 0 0 0-.08-.085l-.08-.082a4.832 4.832 0 0 0-.087-.084l-.081-.078a9.778 9.778 0 0 0-.267-.234 9.54 9.54 0 0 0-.085-.07l-.097-.075c-.028-.023-.058-.044-.087-.066a5.275 5.275 0 0 0-.188-.134l-.104-.07-.09-.057-.107-.067-.09-.053-.112-.064-.091-.048a6.95 6.95 0 0 0-.115-.061l-.092-.045c-.039-.019-.078-.039-.118-.057l-.09-.04c-.04-.018-.082-.037-.124-.054l-.044-.018a6.942 6.942 0 0 0-.285-.108l-.105-.038-.113-.035c-.037-.012-.075-.025-.113-.036a5.8 5.8 0 0 0-.23-.064c-.036-.01-.074-.018-.11-.027-.041-.01-.081-.02-.122-.028l-.11-.023a7.286 7.286 0 0 0-.126-.024l-.11-.02a8.532 8.532 0 0 0-.128-.02l-.111-.014-.13-.016a5.879 5.879 0 0 0-.355-.03 5.947 5.947 0 0 0-.134-.006c-.037 0-.074-.002-.11-.003l-.137-.001h-.112l-.137.004-.112.005c-.017 0-.034 0-.051.002l-1.147-2.018a.625.625 0 1 0-1.088.62l1.098 1.933c-1.11 1.072-4.173 4.439-4.046 8.824-.396.1-.81.12-1.167.12H18.767v-.983c0-3.87-3.142-7.018-7.003-7.018H7.722c-.797 0-1.584.12-2.337.357a.628.628 0 0 0 .374 1.198 6.548 6.548 0 0 1 1.963-.3h4.042c3.17 0 5.75 2.585 5.75 5.762v.985H1.345a.178.178 0 0 1-.177-.179c0-1.908.827-3.72 2.27-4.97a.626.626 0 1 0-.82-.95 7.8 7.8 0 0 0-.937.967c1.343-4.066 5.171-7.007 9.673-7.007h9.8l-1.278 3.49a5.525 5.525 0 0 0 .603 4.967c.974 1.45 2.524 2.315 4.252 2.373a5.9 5.9 0 0 0 .193.004h3.414a2.638 2.638 0 0 0 2.581-2.116c1.166-4.333-.494-10.116-1.398-12.738h1.486l1.533 2.698a.626.626 0 1 0 1.088-.621l-1.18-2.077h1.335a1.11 1.11 0 0 0 1.107-1.11v-2.948c0-.345-.155-.663-.426-.875a1.1 1.1 0 0 0-.952-.202l-5.295 1.334.14-.036-.205-.249a.689.689 0 0 0 .046-.931l-1.322-1.607a1.09 1.09 0 0 0-.854-.398l-2.744.028a.979.979 0 0 0-.973.978v.655c0 .832.676 1.51 1.512 1.51l2.863-.022.636.773c-.109.202-.17.432-.17.674V15.9l-2.665.503a.637.637 0 0 0 .235 1.251l2.988-.563c.146.077.311.12.487.12h.002c.814 2.266 2.664 8.186 1.512 12.431a.714.714 0 0 0-.01.046 1.384 1.384 0 0 1-1.357 1.123h-3.414l-.15-.003a4.053 4.053 0 0 1-3.256-1.82 4.209 4.209 0 0 1-.466-3.834l1.404-3.833h.29a.69.69 0 0 0 .677-.83 6.17 6.17 0 0 0-.83-2.045c-.74-1.134-1.797-1.733-3.055-1.733H15.43c-.436 0-.81.267-.969.647a6.416 6.416 0 0 0-5.704-5.445v-.66a.627.627 0 1 0-1.252 0v.66a6.415 6.415 0 0 0-5.765 6.107 1.268 1.268 0 0 0-1.11 1.257v.685c0 .7.567 1.268 1.265 1.268h2.007v1.518a11.447 11.447 0 0 0-3.987 8.688v1.754c0 .79.642 1.434 1.43 1.434H3.56a6.148 6.148 0 0 0 6.107 5.331 6.148 6.148 0 0 0 6.108-5.331h14.119c.65 0 1.223-.08 1.72-.235.308 3.12 2.941 5.566 6.135 5.566 3.4 0 6.166-2.772 6.166-6.178a6.195 6.195 0 0 0-2.267-4.785zM32.525 13.62l1.112-.28v2.617h-1.112v-2.338zm-8.714-1.514a.255.255 0 0 1-.255-.255v-.382l2.401-.023.527.64-2.673.02zm4.586 3.85v-1.17c0-.075.05-.14.124-.159l2.751-.692v2.022h-2.875zm-12.766 4.008v-1.996h3.905c1.417 0 2.115 1.167 2.434 2.009h-6.34v-.013zM5.154 21.81v-.578h.998c-.343.176-.676.37-.998.578zm2.976-8.67c2.743 0 4.991 2.16 5.138 4.872H2.991C3.139 15.3 5.387 13.14 8.13 13.14zm-6.236 6.838a.013.013 0 0 1-.013-.013v-.685c0-.008.006-.013.013-.013h12.472c.007 0 .013.006.013.013v.685a.013.013 0 0 1-.013.013H1.894zm10.144 14.649a2.528 2.528 0 0 1-2.372 1.677 2.528 2.528 0 0 1-2.372-1.677h4.744zm-2.372 4.076a4.898 4.898 0 0 1-4.84-4.076h1.166a3.786 3.786 0 0 0 3.674 2.931 3.786 3.786 0 0 0 3.674-2.931h1.167a4.898 4.898 0 0 1-4.84 4.076zm22.843-6.655a2.452 2.452 0 0 1-.071.164l-.006.012-.014.028a1.933 1.933 0 0 1-.071.126l-.014.022c.287-3.745 3.161-6.623 3.83-7.245h.007l.078-.006.126-.008.077-.002.126-.004h.077c.041 0 .082 0 .123.002.027 0 .053.002.08.003l.119.005.082.006.115.009.085.01a3.469 3.469 0 0 1 .303.041l.088.016c.034.006.069.012.102.02a3.542 3.542 0 0 1 .189.04l.09.024.095.025.092.027a7.882 7.882 0 0 1 .27.089l.094.034.083.032a8.016 8.016 0 0 1 .268.116 4.155 4.155 0 0 1 .17.084l.074.038a5.084 5.084 0 0 1 .413.246l.067.045c.03.02.059.04.087.061l.065.048c.029.02.058.042.086.064l.062.05.083.067.061.053.08.07.06.055.077.073a4.441 4.441 0 0 1 .132.134l.056.06.071.078.054.063.068.081.052.066.064.083.05.07.062.084.047.072c.02.03.04.058.058.087l.044.072.056.092.033.06c.02.035.041.071.06.108a15.84 15.84 0 0 0-.173.004l-.067.002-.113.004a21.272 21.272 0 0 0-.189.009l-.159.009-.037.002a11.15 11.15 0 0 0-.383.03l-.032.003-.196.02-.02.002-.205.024a14.294 14.294 0 0 0-.229.03c-.006 0-.01 0-.016.002-.073.01-.146.02-.22.032l-.013.002a14.49 14.49 0 0 0-.227.037l-.01.002a14.402 14.402 0 0 0-.467.089l-.021.004-.225.05-.024.005c-.075.017-.15.036-.224.054l-.028.007c-.073.018-.147.038-.221.058l-.034.009c-.072.02-.145.04-.217.062l-.04.01-.21.066-.047.014-.207.07-.053.017a8.176 8.176 0 0 0-.202.073l-.058.021-.197.076-.063.025-.19.08a6.984 6.984 0 0 0-.254.111l-.076.035c-.06.027-.118.056-.177.085l-.082.04-.17.088-.087.046-.163.09c-.03.018-.062.034-.093.052-.052.03-.104.062-.156.094l-.096.058c-.05.03-.1.064-.15.096a8.391 8.391 0 0 0-.1.064l-.144.099c-.034.024-.069.047-.103.072l-.124.09-.058.044-.061.046-.07.054-.101.081-.068.055-.034.028a7.899 7.899 0 0 0-.183.157l-.013.011-.026.023a4.187 4.187 0 0 0-1.11 1.627zm6.821.568l-.606-1.163a2.524 2.524 0 0 1-.976 4.85 2.524 2.524 0 0 1-2.438-3.162l.646 1.24a1.913 1.913 0 0 0 1.69 1.025c.303 0 .603-.073.879-.217a1.91 1.91 0 0 0 .805-2.574zm-1.385 1.46a.647.647 0 0 1-.878-.276l-1.2-2.301a.075.075 0 0 0-.003-.004l-.45-.863a8.016 8.016 0 0 1 .528-.31l.06-.031c.075-.04.151-.08.228-.117l.091-.043a8.86 8.86 0 0 1 .242-.112l.46.882c.004.01.01.018.014.026l1.183 2.27a.654.654 0 0 1-.275.88zm-.197 4.627a4.923 4.923 0 0 1-4.913-4.923v-.052a2.88 2.88 0 0 0 .37-.389l.022-.029a2.897 2.897 0 0 0 .185-.269l.05-.083.047-.088.02-.038.03-.06.025-.052.005-.013.02-.042a4.83 4.83 0 0 0 .069-.166l.001-.004.015-.034a2.949 2.949 0 0 1 .71-1.056l.174.332a3.78 3.78 0 0 0 3.17 5.821 3.78 3.78 0 0 0 .222-7.55l-.222-.426a12.193 12.193 0 0 1 1.78-.392 4.933 4.933 0 0 1 3.134 4.59 4.924 4.924 0 0 1-4.914 4.923z" fill="#8A8A8A"/></g><defs><clipPath id="a"><path fill="#fff" d="M0 0h44v44H0z"/></clipPath></defs></svg>