<svg width="46" height="46" viewBox="0 0 46 46" fill="none" xmlns="http://www.w3.org/2000/svg"><path d="M22.633 41.867a18.798 18.798 0 0 1-12.482-5.178l-2.53 2.531c3.923 3.753 9.197 6.1 15.013 6.228v-3.581z" fill="#D63135"/><path d="M22.631 24.208L10.855 35.983a17.81 17.81 0 0 0 11.776 4.884V24.208zM18.69 35.829a.498.498 0 0 1-.675-.209l-1.558-2.953a.5.5 0 0 1 .884-.467l1.558 2.953a.501.501 0 0 1-.21.676zm1.817-2.403a1.569 1.569 0 0 1-1.566-1.568c0-.863.703-1.566 1.566-1.566a1.568 1.568 0 0 1 0 3.134z" fill="#D63135"/><path d="M20.508 32.425a.567.567 0 1 0 0-1.134.567.567 0 0 0 0 1.134zm1.419-8.925H5.266a17.805 17.805 0 0 0 4.885 11.776L21.927 23.5zm-6.791 1.051a1.69 1.69 0 0 1 1.689 1.689c0 .931-.758 1.689-1.69 1.689a1.69 1.69 0 0 1 0-3.378zm-6.767 4.773a.5.5 0 0 1-.5-.5v-3.445a.5.5 0 0 1 1 0v3.445c0 .277-.223.5-.5.5z" fill="#D63135"/><path d="M4.265 23.5H.684c.128 5.815 2.475 11.09 6.229 15.014l2.53-2.531A18.8 18.8 0 0 1 4.265 23.5zm10.869 3.429a.689.689 0 1 0 0-1.378.689.689 0 0 0 0 1.378zm6.793-4.429L10.15 10.724A17.813 17.813 0 0 0 5.266 22.5h16.66zm-8.161-4.887a.496.496 0 0 1 .647.283l1.188 3.035a.497.497 0 0 1-.465.681.5.5 0 0 1-.466-.317l-1.188-3.035a.5.5 0 0 1 .284-.647zm-4.33-1.592c.864 0 1.567.702 1.567 1.566 0 .863-.703 1.566-1.566 1.566a1.566 1.566 0 0 1 0-3.132z" fill="#D63135"/><path d="M4.265 22.5a18.796 18.796 0 0 1 5.178-12.482l-2.53-2.53A22.364 22.364 0 0 0 .683 22.5h3.582zm5.168-4.347a.566.566 0 1 0 0-1.132.566.566 0 0 0 0 1.132zm7.957-7.776c-.268 0-.566.418-.566.977 0 .559.3.977.566.977.267 0 .565-.418.565-.977 0-.559-.299-.977-.565-.977z" fill="#D63135"/><path d="M10.855 10.017l11.776 11.776V5.133a17.812 17.812 0 0 0-11.776 4.884zm4.97 1.337c0-1.108.688-1.977 1.566-1.977.878 0 1.565.868 1.565 1.977 0 1.11-.689 1.977-1.566 1.977-.877 0-1.566-.869-1.566-1.977zm5.776 4.354l-3.117.163-.027.001a.5.5 0 0 1-.026-1l3.117-.163a.491.491 0 0 1 .527.473.503.503 0 0 1-.474.526z" fill="#D63135"/><path d="M10.148 9.311A18.8 18.8 0 0 1 22.63 4.133V.552A22.373 22.373 0 0 0 7.617 6.781l2.531 2.53z" fill="#D63135"/><g clip-path="url(#a)" fill="#D63135"><path d="M23.367 4.133c4.83.127 9.207 2.07 12.482 5.178l2.53-2.531C34.456 3.027 29.182.68 23.366.552v3.581z"/><path d="M23.369 21.792l11.776-11.775a17.81 17.81 0 0 0-11.776-4.884v16.659zm3.942-11.621a.498.498 0 0 1 .675.209l1.558 2.953a.5.5 0 0 1-.884.467l-1.558-2.953a.501.501 0 0 1 .21-.676zm-1.817 2.403c.863 0 1.566.703 1.566 1.568 0 .863-.703 1.566-1.566 1.566a1.568 1.568 0 0 1 0-3.134z"/><path d="M25.492 13.575a.567.567 0 1 0 0 1.134.567.567 0 0 0 0-1.134zM24.073 22.5h16.661a17.805 17.805 0 0 0-4.885-11.776L24.073 22.5zm6.791-1.051a1.69 1.69 0 0 1-1.689-1.689c0-.931.758-1.689 1.69-1.689a1.69 1.69 0 0 1 0 3.378zm6.767-4.773a.5.5 0 0 1 .5.5v3.445a.5.5 0 0 1-1 0v-3.445c0-.277.223-.5.5-.5z"/><path d="M41.735 22.5h3.581c-.128-5.815-2.475-11.09-6.229-15.014l-2.53 2.531A18.8 18.8 0 0 1 41.735 22.5zm-10.869-3.429a.689.689 0 1 0 0 1.378.689.689 0 0 0 0-1.378zM24.073 23.5L35.85 35.276A17.813 17.813 0 0 0 40.734 23.5h-16.66zm8.161 4.887a.496.496 0 0 1-.647-.283L30.4 25.069a.497.497 0 0 1 .465-.681.5.5 0 0 1 .466.317l1.188 3.035a.5.5 0 0 1-.284.647zm4.33 1.592a1.568 1.568 0 0 1-1.567-1.566c0-.863.703-1.566 1.566-1.566a1.566 1.566 0 0 1 0 3.132z"/><path d="M41.735 23.5a18.796 18.796 0 0 1-5.178 12.482l2.53 2.53a22.364 22.364 0 0 0 6.23-15.012h-3.582zm-5.168 4.347a.566.566 0 1 0 0 1.132.566.566 0 0 0 0-1.132zm-7.957 7.776c.268 0 .566-.418.566-.977 0-.559-.3-.977-.566-.977-.267 0-.565.418-.565.977 0 .559.299.977.565.977z"/><path d="M35.145 35.983L23.367 24.207v16.66a17.813 17.813 0 0 0 11.777-4.884zm-4.97-1.337c0 1.108-.688 1.977-1.566 1.977-.878 0-1.565-.868-1.565-1.977 0-1.11.689-1.977 1.566-1.977.877 0 1.566.869 1.566 1.977zM24.4 30.292l3.117-.163.027-.001a.5.5 0 0 1 .026 1l-3.117.163a.491.491 0 0 1-.527-.473.503.503 0 0 1 .474-.526z"/><path d="M35.852 36.689a18.8 18.8 0 0 1-12.482 5.178v3.581a22.373 22.373 0 0 0 15.013-6.229l-2.531-2.53z"/></g><defs><clipPath id="a"><path fill="#fff" transform="rotate(-180 23 23)" d="M0 0h24v46H0z"/></clipPath></defs></svg>