<svg width="67" height="58" viewBox="0 0 67 58" fill="none" xmlns="http://www.w3.org/2000/svg"><path d="M65.522 10.74H44.338V1.612c0-.427-.156-.837-.433-1.14A1.419 1.419 0 0 0 42.86 0H23.154c-.392 0-.767.17-1.045.472a1.688 1.688 0 0 0-.433 1.14v9.129H1.479c-.392 0-.768.17-1.045.472A1.688 1.688 0 0 0 0 12.352v44.037c0 .427.156.837.433 1.14.277.301.653.471 1.045.471h64.044c.392 0 .768-.17 1.045-.472.277-.302.433-.712.433-1.14V12.353c0-.427-.156-.837-.433-1.14a1.419 1.419 0 0 0-1.045-.471zm-40.89-7.518h16.75v7.519h-16.75V3.222zm39.412 10.741v17.185H41.116c-.392 0-.768.17-1.045.472a1.688 1.688 0 0 0-.433 1.14c0 1.84-.67 3.604-1.864 4.906-1.194 1.3-2.813 2.032-4.5 2.032-1.689 0-3.308-.731-4.501-2.032-1.194-1.302-1.865-3.066-1.865-4.907 0-.427-.155-.837-.433-1.139a1.419 1.419 0 0 0-1.045-.472H2.956V13.963h61.088zM2.956 54.778V34.37H24.07c.351 2.385 1.47 4.555 3.157 6.121 1.687 1.567 3.83 2.427 6.045 2.427 2.216 0 4.359-.86 6.045-2.427 1.687-1.566 2.806-3.736 3.158-6.12h21.568v20.407H2.956z" fill="#fff"/></svg>