<svg width="91" height="91" viewBox="0 0 91 91" fill="none" xmlns="http://www.w3.org/2000/svg"><path d="M82.102 29.935L44.865 5.111a1.36 1.36 0 0 0-1.509 0L6.12 29.935a1.361 1.361 0 0 0 0 2.264l5.656 3.77v19.87c0 .464.236.896.626 1.146l31.193 19.998a1.36 1.36 0 0 0 1.5-.022L61.37 65.858V73.6l-6.063 12.126a1.362 1.362 0 0 0 1.216 1.969h12.413a1.362 1.362 0 0 0 1.216-1.969L64.088 73.6v-9.598l10.317-7.039a1.36 1.36 0 0 0 .593-1.123V36.934l7.103-4.735a1.361 1.361 0 0 0 0-2.264zm-23.378 55.04l4.005-8.011 4.005 8.01h-8.01zm-14.42-10.768l-29.809-19.11V37.782l28.861 19.241a1.359 1.359 0 0 0 1.51 0L61.369 46.02v16.544L44.305 74.207zM72.28 55.122l-8.19 5.587V44.207l8.19-5.46v16.375zm.887-20.236a1.35 1.35 0 0 0-.52.348l-9.917 6.611-17.864-11.91a1.36 1.36 0 1 0-1.509 2.264l16.921 11.28-16.166 10.779-34.785-23.19L44.11 7.877l34.785 23.19-5.73 3.818z" fill="#fff"/></svg>