<svg width="138" height="134" viewBox="0 0 138 134" fill="none" xmlns="http://www.w3.org/2000/svg"><path d="M138 109.483C138 117.832 79.868 134 68.975 134 58.082 134 0 118.126 0 108.601 0 99.077.096-52 .096-52h137.793S138 101.194 138 109.483z" fill="#EB2316"/><path d="M38.001 59.435c0-4.912 1.92-9.536 5.413-13.025C46.9 42.92 51.524 41 56.436 41H99v9.368H56.436c-2.406 0-4.68.947-6.4 2.664-1.72 1.724-2.667 3.997-2.667 6.403l-.055 15.725c-.437 4.175-3.583 7.547-7.654 8.168L38 83.58V59.435zM38 101.876v-9.368h42.564a8.988 8.988 0 0 0 6.396-2.667 8.988 8.988 0 0 0 2.668-6.396l.01-14.927c0-4.443 3.31-8.3 7.702-8.967l1.656-.252v24.146c0 4.911-1.921 9.535-5.413 13.021-3.49 3.49-8.113 5.41-13.022 5.41H38z" fill="#fff"/><path d="M73.88 83.699V71.505l-5.378 6.675-5.378-6.675v12.194H56v-24h6.748l5.754 7.716 5.75-7.716H81v24h-7.12z" fill="#fff"/></svg>