<svg width="57" height="63" viewBox="0 0 57 63" fill="none" xmlns="http://www.w3.org/2000/svg"><g filter="url(#a)"><path d="M52.784 42.579v-.101c-.013-.189-.025-.39-.05-.579l-.013-.063V41.8c0-.038-.012-.076-.012-.113v-.013a4.754 4.754 0 0 0-.063-.365v-.025.013c0-.038-.013-.063-.013-.088a2.871 2.871 0 0 0-.062-.29l-.013-.038c-.012-.075-.037-.163-.05-.239-.013-.037-.013-.075-.025-.113l-.013-.037c-.025-.101-.062-.214-.087-.34l-.013-.038-.012-.025c-.013-.038-.025-.088-.038-.126v-.012l-.013-.038a.238.238 0 0 1-.025-.1l-.012-.026v-.012c0-.013-.013-.038-.013-.05-.037-.101-.062-.202-.1-.303-.012-.025-.012-.037-.025-.05l-.012-.025-.026-.05c-.025-.088-.062-.164-.1-.252v-.012c-.012-.013-.012-.038-.025-.05a1.67 1.67 0 0 0-.1-.227l-.025-.063-.013-.025v-.013l-.012-.038v-.012c-.05-.1-.088-.201-.138-.302l-.025-.038-.012-.012v-.013l-.013-.025-.038-.076c-.012-.012-.012-.037-.025-.05-.012-.038-.037-.063-.05-.1l-.012-.038-.038-.063-.15-.264c0-.013-.013-.013-.013-.026 0-.012-.012-.012-.012-.025-.013-.012-.013-.025-.025-.037-.05-.088-.1-.176-.163-.277l-.025-.038-.013-.012c-.063-.101-.113-.19-.175-.277l-.025-.038-.013-.013a5.266 5.266 0 0 0-.188-.276l-.037-.05-.013-.013v-.013c0-.012-.013-.012-.013-.012l-.012-.025a3.05 3.05 0 0 0-.15-.214l-.038-.05-.012-.013c-.063-.088-.138-.176-.201-.264l-.038-.05c-.062-.089-.137-.164-.2-.252-.013-.013-.025-.038-.038-.05-.025-.038-.05-.063-.075-.101l-.012-.013s0-.012-.013-.012c-.038-.05-.075-.101-.125-.139-.013-.012-.025-.037-.038-.05-.075-.088-.15-.163-.225-.252l-.013-.012-.025-.025v-.013l-.012-.013c-.076-.075-.15-.163-.226-.239l-.012-.012-.013-.013-.263-.264s0-.012-.013-.012l-.012-.013a4.79 4.79 0 0 0-.364-.34l-.012-.012-.013-.013-.025-.012a19.017 19.017 0 0 0-2.48-1.9c-.013-.012-.038-.025-.05-.037-.101-.063-.189-.126-.289-.177h-.012l-.013-.012-.05-.025a6.8 6.8 0 0 0-.276-.164l-.025-.012c-.025-.013-.05-.025-.075-.05-.075-.051-.163-.089-.238-.14l-.025-.012h-.038c-.025-.012-.062-.037-.087-.05-.088-.05-.163-.088-.251-.138l-.025-.013c-.038-.025-.075-.038-.113-.063l-.225-.113-.026-.013-.05-.025c-.037-.012-.062-.038-.1-.05a1.426 1.426 0 0 1-.238-.126l-.05-.025c-.038-.013-.075-.038-.113-.05l-.15-.076c.087-.692.062-1.434-.2-2.176-.05-.138-.1-.277-.164-.428-.012-.037-.037-.075-.05-.113l-.012-.012c-.038-.088-.075-.177-.125-.277-.026-.038-.038-.076-.063-.113l-.013-.026a4.64 4.64 0 0 0-.125-.238v-.013c-.025-.038-.038-.075-.063-.1l-.012-.013c-.05-.088-.1-.164-.138-.227l-.075-.113c-.05-.075-.113-.163-.163-.239-.013-.025-.038-.05-.063-.088a3.924 3.924 0 0 0-.188-.239l-.012-.012c-.013-.026-.038-.038-.05-.05-.075-.076-.138-.164-.213-.24l-.038-.038a5.225 5.225 0 0 0-.877-.717c.012-.075.025-.15.038-.213v-.026c0-.037.012-.075.012-.113.013-.113.025-.226.038-.327v-.063c.012-.113.012-.239.012-.377v-.503c0-.1-.012-.201-.025-.302 0-.025 0-.05-.012-.076a3.941 3.941 0 0 0-.05-.352c0-.025-.013-.063-.013-.088v-.012c-.013-.088-.038-.177-.05-.252v-.013c-.013-.025-.013-.063-.025-.088a8.36 8.36 0 0 0-.075-.276c-.013-.025-.013-.038-.026-.063-.037-.113-.075-.214-.112-.327a.178.178 0 0 1-.025-.076v-.012c-.038-.076-.063-.164-.1-.227l-.013-.012-.038-.076c-.037-.088-.087-.163-.125-.251-.013-.026-.013-.038-.025-.05-.05-.089-.1-.177-.163-.277-.012-.026-.025-.038-.038-.063v-.013c-.05-.075-.087-.138-.137-.201v-.013c-.013-.012-.025-.038-.038-.05v-.013a2.76 2.76 0 0 0-.15-.2c-.013-.014-.025-.026-.025-.039l-.2-.239s0-.012-.013-.012l-.038-.038a2.171 2.171 0 0 0-.163-.176l-.012-.013c-.013-.025-.038-.037-.05-.05a2.426 2.426 0 0 0-.188-.176l-.026-.025-.225-.189c-.013-.012-.025-.012-.025-.025l-.188-.151-.013-.013-.025-.025c-.137-.1-.288-.214-.45-.314h-.038a1.897 1.897 0 0 0-.213-.126l-.025-.013a7.92 7.92 0 0 0-.652-.34s-.012 0-.012-.012a8.205 8.205 0 0 0-1.454-.515c-.037-.026-.063-.063-.1-.089l-.013-.012c-.037-.038-.075-.063-.112-.1-.038-.026-.063-.051-.1-.076l-.013-.013a6.548 6.548 0 0 0-1.68-.956c-.012-.012-.024-.038-.037-.05-.025-.038-.05-.063-.063-.1-.012-.026-.037-.051-.05-.076a.546.546 0 0 0-.075-.088l-.012-.013v-.012c-.013-.013-.025-.038-.038-.05-.025-.026-.05-.064-.075-.089-.013-.025-.038-.037-.05-.063-.025-.025-.05-.063-.088-.088l-.05-.05a36.381 36.381 0 0 1-.088-.088l-.05-.05a.713.713 0 0 0-.1-.088l-.038-.026c-.037-.037-.075-.063-.1-.1l-.013-.013h-.012l-.013-.012a.628.628 0 0 1-.1-.088l-.037-.026a.723.723 0 0 0-.113-.088l-.013-.012-.012-.013a.667.667 0 0 1-.113-.088l-.025-.013s-.013 0-.013-.012a73.9 73.9 0 0 0-.112-.075c-.013-.013-.025-.013-.038-.026l-.113-.075c-.012 0-.012-.013-.025-.013a1.104 1.104 0 0 0-.125-.075c-.013 0-.013-.013-.025-.013-.05-.025-.088-.05-.138-.075a9.57 9.57 0 0 0-.952-.466 8.477 8.477 0 0 0-.99-2.264 2.057 2.057 0 0 0-1.717-.93 1.99 1.99 0 0 0-.538.075c-1.09.29-2.043.78-2.832 1.434a9.439 9.439 0 0 0-3.396-.642h-.163l-5.062-7.987-1.09-1.711a2.052 2.052 0 0 0-2.644-.792 2.068 2.068 0 0 0-1.065 2.528l2.444 7.32a5.686 5.686 0 0 0-.464-.024h-.1c-.088 0-.15.012-.213.012h-.013c-.037 0-.063 0-.1.013-.063.012-.125.012-.188.025-.05.012-.1.012-.138.025-.05.013-.113.025-.175.038l-.15.037h-.026c-.05.013-.1.026-.163.038-.1.025-.2.063-.313.1-.038.014-.088.039-.125.051-.063.025-.126.05-.2.088-.038.013-.076.038-.113.05h-.026a1.427 1.427 0 0 0-.187.101c-.038.025-.088.05-.126.076l-.188.113c-.037.025-.075.05-.125.075-.088.063-.15.114-.2.151-.038.025-.063.05-.1.076-.1.075-.201.163-.289.239-1.428 1.295-2.092 3.409-1.754 5.51a6.64 6.64 0 0 0 1.867 3.647 874.49 874.49 0 0 1-4.01 5.17c-.463.377-1.503 1.27-2.393 2.503-1.767 2.403-2.092 4.931-.94 7.082.025.038.05.088.075.126.038.088.088.176.138.264 1.153 1.9 2.857 3.031 4.937 3.27l.063.013c.113.013.238.025.35.025.05 0 .113 0 .164.013h.526c.05 0 .1 0 .15-.013.125 0 .25-.012.376-.025h.025c.35-.038.714-.1 1.09-.176-.037.126-.075.239-.1.365-.025.1-.05.214-.075.314-.013.038-.013.063-.025.1v.026c-.013.088-.038.163-.05.252-.013.05-.013.088-.026.125v.026l-.037.226c-.013.05-.013.1-.025.15a1.36 1.36 0 0 0-.025.227v.013c0 .05-.013.1-.013.15-.012.076-.012.152-.025.24v.025c0 .038-.012.088-.012.126-.013.088-.013.176-.013.264v.125c0 .139-.012.265-.012.39v.34c0 .088 0 .164.012.252v.062c.188 3.083 1.654 5.988 4.273 8.403l.037.038c.113.1.226.201.351.315.013.012.025.012.025.025.502.44 1.053.855 1.63 1.258l.024.012c.126.088.263.176.401.277l.038.025c.576.377 1.203.73 1.83 1.057l.037.012.012.013c.138.075.289.138.426.214h.013l.012.012.038.025c.175.076.326.151.476.227h.013c.325.15.664.29 1.015.428l.05.012h.012c.15.063.288.113.439.176l.113.038.413.15.025.013.075.026c.163.063.326.113.489.163h.013l.025.013c.188.063.375.113.55.176h.014l.526.15.087.026.038.012.413.114c.05.012.1.025.163.037.126.038.264.063.401.101l.05.013.088.025c.163.037.326.075.489.1h.062c.176.038.376.076.564.114.025 0 .05.012.088.012h.025l.451.076c.038.012.075.012.126.025l.05.012c.137.026.263.038.388.063h.013c.062.013.125.013.188.026.125.025.263.037.4.05l.063.012c.038 0 .075.013.113.013.163.025.338.038.501.063h.063c.188.025.376.038.576.05.038 0 .075.013.113.013h.05c.138.012.276.025.413.025.063 0 .113.013.176.013h.025c.125.012.25.012.388.025.076 0 .15 0 .213.012.138 0 .264.013.401.013h.778c5.55 0 10.813-1.46 14.785-4.126 2.017-1.346 3.608-2.93 4.736-4.704 1.215-1.925 1.842-3.988 1.842-6.126 0-.19 0-.378-.013-.592l-.062-.037z" fill="#fff"/><path d="M31.447 30.3c-10.65 0-19.296 5.774-19.296 12.894s8.633 12.893 19.296 12.893 19.296-5.773 19.296-12.893c0-7.12-8.633-12.893-19.296-12.893zm0 12.73c-5.689 0-10.3-1.685-10.3-3.773s4.611-3.774 10.3-3.774c5.688 0 10.3 1.686 10.3 3.774s-4.612 3.774-10.3 3.774z" fill="#E2A466" stroke="#302B26" stroke-width=".412" stroke-miterlimit="10" stroke-linecap="round" stroke-linejoin="round"/><path d="M49.739 39.068c-.338 1.359-.902 2.742-1.692 3.9-.814 1.195-1.729 2.528-2.844 3.522-1.128 1.006-2.318 1.95-3.584 2.767-1.691 1.095-3.62 1.837-5.475 2.591-.89.365-1.804.68-2.744.894-1.479.34-2.995.503-4.498.641-.69.063-1.391.1-2.08.063-1.654-.076-3.308-.315-4.937-.604a16.127 16.127 0 0 1-1.867-.453 32.751 32.751 0 0 1-4.198-1.66c3.509 3.233 9.21 5.346 15.65 5.346 10.663 0 19.296-5.774 19.296-12.893a9.462 9.462 0 0 0-1.027-4.114z" fill="#E2A466"/><path d="M31.447 30.3c-10.65 0-19.296 5.774-19.296 12.894 0 .163 0 .327.012.49.326.718.576 1.598 1.591 1.837 1.93.453 2.043-1.296 4.937-.138 1.942.78.063 3.9 3.27 4.654 3.446.818 3.233-2.855 6.09-2.566 2.857.277 2.544 3.132 4.561 3.245 2.017.113 3.183-3.748 4.912-3.862 2.87-.176 3.759 2.453 6.227 1.61 2.469-.842-.062-3.408 1.905-4.817 1.641-1.183 3.358 1.497 5.05-1.044-.452-6.856-8.897-12.302-19.26-12.302zm0 12.73c-5.689 0-10.3-1.685-10.3-3.773s4.611-3.774 10.3-3.774c5.688 0 10.3 1.686 10.3 3.774s-4.612 3.774-10.3 3.774z" fill="#CF639D" stroke="#302B26" stroke-width=".412" stroke-miterlimit="10" stroke-linecap="round" stroke-linejoin="round"/><path d="M46.619 35.219c.539 1.22.626 2.591.338 3.975-.45 2.088-1.904 3.773-3.91 4.49-1.69.617-3.345.088-4.999-.34l-.3-.075a7.844 7.844 0 0 0-.464.466c-.877.968-1.666 2-2.794 2.704-1.754 1.107-3.734.855-5.376-.302-.313-.214-.614-.44-.952-.616l-.564.302c-.94.503-1.954.98-3.044.968-1.178-.012-2.381-.427-3.145-1.358-.652-.805-.89-1.648-1.166-2.604-.012-.025-.012-.038-.025-.063-.025-.038-.062-.075-.087-.113-.038-.038-.076-.063-.1-.1a.403.403 0 0 0-.113-.076c-.038-.025-.088-.05-.126-.076-.012 0-.025-.012-.05-.012-.012 0-.025 0-.038-.013-.062 0-.137.013-.2.025-.088.025-.163.038-.25.063-.815.252-1.554.503-2.419.604-1.641.189-3.583-.692-4.385-2.176-.2.742-.301 1.51-.301 2.29 0 .163 0 .326.013.49.325.717.576 1.597 1.59 1.836 1.93.453 2.043-1.295 4.938-.138 1.942.78.062 3.9 3.27 4.654 3.446.818 3.233-2.855 6.09-2.566 2.856.277 2.543 3.132 4.56 3.245 2.018.113 3.183-3.748 4.912-3.861 2.87-.177 3.76 2.452 6.227 1.61 2.469-.843-.062-3.41 1.905-4.818 1.641-1.182 3.358 1.497 5.05-1.044-.163-2.78-1.68-5.32-4.085-7.371z" fill="#CF639D"/><path d="M45.617 40.025l1.453-.34m-5.388 3.51l-.389.994M37.26 45.32l-1.905-.289m-4.887-.843l-1.504 1.132m-4.486.893l-1.128-.893m-3.809-1.636l.163-1.409m-3.634.291l-.851-.906m1.291-3.548l1.465-.843m2.795-2.087l1.29-.955m2.418-1.912l1.29 1.132m3.196 0l1.228-.566m3.032-.844l.777 1.12m2.08 1.07h1.178m3.759-.442l.276 1.686m2.13 2.226h1.629m-1.63 8.076l-.839.893m-4.097-2.477l-.501-.504m-5.163 3.27l-1.378.44m-5.4-2.64l-.276-1.07m-7.794-3.824h1.065m2.632 7.309l.388.629M37.986 32.88l-1.316-.277" stroke="#fff" stroke-width=".412" stroke-miterlimit="10" stroke-linecap="round" stroke-linejoin="round"/><path d="M20.833 36.301l2.48 5.27s3.283 1.095 4.424 1.208C41.294 44.19 42.572 38.1 42.572 38.1S34.077 26.062 28.69 18.804c-3.596-4.843-11.052-3.346-13.983.415-2.732 3.497-7.23 9.246-7.23 9.246s-4.862 3.61-2.982 7.132c1.879 3.522 5.851 3.597 10.9-.327 0 0 7.656 3.61 10.375-2.415" fill="#fff"/><path d="M20.833 36.301l2.48 5.27s3.283 1.095 4.424 1.208C41.294 44.19 42.572 38.1 42.572 38.1S34.077 26.062 28.69 18.804c-3.596-4.843-11.052-3.346-13.983.415-2.732 3.497-7.23 9.246-7.23 9.246s-4.862 3.61-2.982 7.132c1.879 3.522 5.851 3.597 10.9-.327 0 0 7.656 3.61 10.375-2.415" stroke="#302B26" stroke-width=".412" stroke-miterlimit="10" stroke-linecap="round" stroke-linejoin="round"/><path d="M25.757 32.842s-1.93 1.799-5.163 1.799c-4.16 0-5.538-1.082-5.538-1.082s-2.293 2.478-5.1 3.082c-3.37.73-5.162-.654-5.312-.755 1.942 3.22 5.826 3.182 10.726-.63 0 0 2.556 1.057 5.25 1.057 3.809 0 5.137-3.471 5.137-3.471z" fill="#D9D9D9"/><path d="M37.71 46.564s-3.633.315-2.768-4.29c.864-4.616 2.318-8.628 4.686-9.408 2.368-.78 5.087 2.742 2.957 5.572-2.143 2.818-7.882 5.422-4.874 8.126z" fill="#B184B6" stroke="#302B26" stroke-width=".412" stroke-miterlimit="10" stroke-linecap="round" stroke-linejoin="round"/><path d="M41.708 33.193c-.15 1.585-.627 3.133-1.454 4.504-.501.817-1.09 1.584-1.717 2.327a52.12 52.12 0 0 1-.801.905c-.163.176-.326.352-.49.541a.48.48 0 0 1-.062.076c-.263.377-.526.767-.74 1.182-.112.201-.212.415-.312.629 0 .013-.013.025-.013.025-.25.68-.451 1.384-.576 2.1-.013.076-.025.177-.038.278.865.93 2.193.805 2.193.805-3.007-2.692 2.731-5.296 4.861-8.126 1.517-1.988.627-4.302-.851-5.246z" fill="#B184B6"/><path d="M37.397 26.604s2.656-.705 3.884 2.691c1.228 3.397-7.505 12.126-5.25 15.397 0 0-3.345 1.409-5.801-1.46-2.456-2.842 2.995-14.025 7.167-16.628z" fill="#DC99BF" stroke="#302B26" stroke-width=".412" stroke-miterlimit="10" stroke-linecap="round" stroke-linejoin="round"/><path d="M38.173 31.797c-1.328 1.824-2.518 3.773-3.67 5.71a35.94 35.94 0 0 0-.54.931c-.075.139-.15.277-.213.415-.012.013-.012.038-.025.063-.1.29-.188.591-.25.893-.013.05-.025.139-.025.227 0 .05-.013.113-.013.163a6.9 6.9 0 0 0 .013.88v.051c.012.1.037.201.062.315.113.515.276 1.031.464 1.534v.013c0 .012.013.025.025.05.05.113.1.227.15.327.138.277.276.554.426.818.15.264.301.528.464.792.589-.1.965-.264.965-.264-2.256-3.27 6.478-12 5.25-15.396-.338-.931-.79-1.56-1.253-1.975.012 1.572-.89 3.182-1.83 4.453z" fill="#DC99BF"/><path d="M34.54 19.697s6.88.893 3.195 8.214c-3.684 7.334-9.961 14.453-4.022 15.548 0 0-2.932 2.805-4.987 0-2.042-2.806-.689-10.277 1.905-14.592 2.593-4.314 4.811-7.673 3.91-9.17z" fill="#A1D1F4" stroke="#302B26" stroke-width=".412" stroke-miterlimit="10" stroke-linecap="round" stroke-linejoin="round"/><path d="M36.207 20.2c.125.515.213 1.056.238 1.622.15 3.132-1.216 6.239-2.757 8.88-1.34 2.302-2.994 4.428-4.085 6.881-.037.088-.15.39-.188.465-.062.164-.125.34-.175.504-.1.34-.2.679-.276 1.019-.037.163-.062.327-.1.477v.038c-.025.34-.037.68-.025 1.02 0 .075.013.15.013.226.025.15.062.289.1.44l.113.377c.012.038.037.076.05.1.138.29.288.567.45.831.089.138.502.68.414.579.163.188.339.377.514.553.1.1.476.403.526.453 1.429-.05 2.682-1.245 2.682-1.245-5.94-1.095.338-8.214 4.022-15.548 2.456-4.83.238-6.855-1.516-7.673z" fill="#A1D1F4"/><path d="M31.708 18.213s3.86.365 3.408 4.012c-.45 3.648-6.828 11.938-4.824 15.384 0 0-6.277-3.836-3.458-10.78 1.692-4.15 4.874-8.616 4.874-8.616z" fill="#B184B6" stroke="#302B26" stroke-width=".412" stroke-miterlimit="10" stroke-linecap="round" stroke-linejoin="round"/><path d="M33.913 19.068a11.98 11.98 0 0 1-.363 2.818c-.539 2.126-1.554 4.1-2.48 6.088l-.34.755c-.024.075-.062.15-.1.214-.012.025-.024.075-.05.125-.2.516-.4 1.02-.576 1.548-.338 1.031-.639 2.088-.814 3.17-.026.113-.038.239-.063.352l-.075.78c-.038.54-.05 1.081-.025 1.622v.088c.701.654 1.24.981 1.24.981-2.005-3.446 4.373-11.736 4.824-15.383.226-1.598-.413-2.579-1.178-3.158z" fill="#B184B6"/><path d="M28.125 15.734s5.125.692 3.984 4.34c-1.14 3.648-4.736 6.076-3.37 9.22 0 0-2.544-.59-2.681-3.61-.138-3.019.952-4.29.676-6l1.391-3.95z" fill="#DC99BF" stroke="#302B26" stroke-width=".412" stroke-miterlimit="10" stroke-linecap="round" stroke-linejoin="round"/><path d="M30.618 16.578c.276.906.239 1.937.013 2.83-.326 1.334-.99 2.592-1.591 3.812-.301.604-.602 1.22-.89 1.836a4.87 4.87 0 0 0-.163.378 9.625 9.625 0 0 0-.539 1.71c-.012.114-.012.227-.012.327v.063c0 .013.012.038.012.05l.113.19c.238.351.35.754.363 1.17.451.263.802.339.802.339-1.365-3.145 2.23-5.573 3.37-9.22.577-1.774-.375-2.856-1.478-3.485z" fill="#DC99BF"/><path d="M15.883 25.672a1.26 1.26 0 0 1-1.253 1.258 1.26 1.26 0 0 1 0-2.516c.69.013 1.253.566 1.253 1.258z" fill="#302B26"/><path d="M14.167 25.621a.402.402 0 1 0-.002-.803.402.402 0 0 0 .002.803z" fill="#fff" stroke="#302B26" stroke-width=".412" stroke-miterlimit="10"/><path d="M16.31 30.289c1.411 0 2.555-.626 2.555-1.397 0-.77-1.144-1.396-2.556-1.396-1.411 0-2.556.625-2.556 1.396 0 .771 1.145 1.397 2.556 1.397z" fill="#DC99BF"/><path d="M7.138 33.56a1.08 1.08 0 0 1-1.078 1.082 1.08 1.08 0 0 1-1.078-1.082 1.08 1.08 0 0 1 1.078-1.082 1.08 1.08 0 0 1 1.078 1.082z" fill="#302B26"/><path d="M25.18 15.233s-2.168-1.573-5.125-1.095c-3.458.566-4.911 4.743-6.59 2.88-1.14-1.27 1.178-3.194 2.067-2.44 0 0-2.042-2.352-4.235-.364-2.443 2.226-1.39 8.767 6.528 7.597 2.143-.314 4.649.227 6.215-2.855l1.14-3.723z" fill="#B184B6" stroke="#302B26" stroke-width=".412" stroke-miterlimit="10" stroke-linecap="round" stroke-linejoin="round"/><path d="M24.366 17.71c-.401.2-.802.427-1.203.64-.89.479-1.792.944-2.744 1.271-.664.227-1.354.365-2.03.504-1.892.402-4.41.817-5.864-.856-1.028-1.17-1.404-2.855-.439-4.214a4.979 4.979 0 0 1 1.767-1.547c-.727-.201-1.616-.138-2.544.704-2.443 2.227-1.39 8.768 6.529 7.598 2.142-.314 4.648.226 6.214-2.855l.376-1.283a.259.259 0 0 0-.062.037z" fill="#B184B6"/><path d="M22.185 17.659L13.138 3.395l5.376 16.1s1.39.202 2.142-.276c.777-.516 1.529-1.56 1.529-1.56z" fill="#EEC783" stroke="#302B26" stroke-width=".412" stroke-miterlimit="10" stroke-linecap="round" stroke-linejoin="round"/><path d="M19.379 15.911c-.69-.742-1.403-1.522-1.88-2.415a38.498 38.498 0 0 1-1.428-3.094c-.113-.252-.213-.516-.313-.78 0-.013 0-.013-.013-.025a.29.29 0 0 1-.037-.063c-.188-.39-.401-.767-.59-1.17-.488-1.044-.864-2.025-.901-3.195v-.075l-1.09-1.711 5.375 16.1s1.39.202 2.143-.276c.363-.24.726-.604 1.014-.906-.827-.704-1.503-1.572-2.28-2.39z" fill="#EEC783"/><path d="M18.64 19.307l1.967-3.924m-3.095 1.119l1.754-3.459m-2.656.377l1.253-2.566m-2.331-.277l.94-1.925m-1.929-1.043l.513-1.195" stroke="#302B26" stroke-width=".412" stroke-miterlimit="10" stroke-linecap="round" stroke-linejoin="round"/><path d="M23.915 19.157s-.376-4.78 4.047-5.975c0 0 2.782 4.188-1.215 7.207" fill="#fff"/><path d="M23.915 19.157s-.376-4.78 4.047-5.975c0 0 2.782 4.188-1.215 7.207" stroke="#302B26" stroke-width=".412" stroke-miterlimit="10" stroke-linecap="round" stroke-linejoin="round"/><path d="M25.118 17.986s.113-2.088 2.168-2.855c0 0 1.027 1.924-.138 3.648l-2.03-.793z" fill="#DC99BF" stroke="#302B26" stroke-width=".412" stroke-miterlimit="10" stroke-linecap="round" stroke-linejoin="round"/></g><defs><filter id="a" x=".353" y=".497" width="55.8" height="61.785" filterUnits="userSpaceOnUse" color-interpolation-filters="sRGB"><feFlood flood-opacity="0" result="BackgroundImageFix"/><feColorMatrix in="SourceAlpha" values="0 0 0 0 0 0 0 0 0 0 0 0 0 0 0 0 0 0 127 0"/><feOffset dx=".824" dy="1.647"/><feGaussianBlur stdDeviation="1.235"/><feColorMatrix values="0 0 0 0 0 0 0 0 0 0 0 0 0 0 0 0 0 0 0.06 0"/><feBlend in2="BackgroundImageFix" result="effect1_dropShadow"/><feBlend in="SourceGraphic" in2="effect1_dropShadow" result="shape"/></filter></defs></svg>