<svg width="872" height="475" viewBox="0 0 872 475" fill="none" xmlns="http://www.w3.org/2000/svg"><path d="M835.136 347.982c58.888-52.974 18-119.011-31.697-125.047-70.129-8.491-56.605-8.898-98.546-63.941-7.631-26.044-34.094-37.259-69.486-47.746-25.467-7.657-56.27-7.102-81.344 2.321-14.009 5.317-25.89 12.991-39.103 19.148-13.214 6.157-29.01 10.863-44.405 8.848-14.637-1.877-26.069-9.564-34.788-18.099-20.622-20.427-28.502-46.458-51.809-65.511-19.641-16.072-50.885-28.715-81.983-29.026-40.635-.516-77.257 18.15-107.138 36.286-53.846 55.82 20.349 82.373 11.541 138.118-32.26 79.863-119.783-11.906-172.426 56.839-21.478 37.54-32.173 46.809 1.996 113.438 63.08 61.982 20.533 39.155 135.534 50.586 115 11.43 150.466-52.192 224.999-2.679 44.663 29.57 143.562 56.123 200.284-28.647 56.722-84.77 153.385 31.49 238.371-44.888z" fill="url(#a)" fill-opacity=".3"/><defs><linearGradient id="a" x1="455.28" y1="452.149" x2="432.742" y2="21.804" gradientUnits="userSpaceOnUse"><stop stop-color="#A3B1CA" stop-opacity=".33"/><stop offset=".977" stop-color="#B7C1D1" stop-opacity=".67"/></linearGradient></defs></svg>