<svg width="46" height="45" viewBox="0 0 46 45" fill="none" xmlns="http://www.w3.org/2000/svg"><g clip-path="url(#a)"><path d="M40.722 11.838a4.783 4.783 0 0 1 4.778 4.777 4.784 4.784 0 0 1-4.778 4.778 4.744 4.744 0 0 1-2.605-.776l-5.162 5.162c.49.75.776 1.645.776 2.606a4.783 4.783 0 0 1-4.779 4.777 4.783 4.783 0 0 1-4.778-4.777c0-.926.266-1.79.723-2.523l-5.243-5.245a4.75 4.75 0 0 1-2.606.776 4.75 4.75 0 0 1-2.606-.776L9.28 25.78c.49.75.777 1.645.777 2.606a4.783 4.783 0 0 1-4.779 4.777A4.783 4.783 0 0 1 .5 28.386a4.784 4.784 0 0 1 4.778-4.778c.961 0 1.856.286 2.605.776l5.163-5.162a4.752 4.752 0 0 1-.777-2.606 4.783 4.783 0 0 1 4.779-4.777 4.783 4.783 0 0 1 4.778 4.777c0 .96-.287 1.855-.776 2.606l5.214 5.215a4.75 4.75 0 0 1 2.688-.829 4.75 4.75 0 0 1 2.606.776l5.163-5.162a4.742 4.742 0 0 1-.778-2.606 4.783 4.783 0 0 1 4.779-4.777zm2.803 4.777a2.806 2.806 0 0 0-2.803-2.802 2.806 2.806 0 0 0-2.804 2.802 2.806 2.806 0 0 0 2.804 2.803 2.806 2.806 0 0 0 2.803-2.803zm-11.77 11.77a2.806 2.806 0 0 0-2.803-2.803 2.806 2.806 0 0 0-2.803 2.803 2.806 2.806 0 0 0 2.803 2.803 2.806 2.806 0 0 0 2.804-2.803zm-11.904-11.77a2.806 2.806 0 0 0-2.803-2.802 2.806 2.806 0 0 0-2.804 2.802 2.806 2.806 0 0 0 2.804 2.803 2.806 2.806 0 0 0 2.803-2.803zm-11.77 11.77a2.806 2.806 0 0 0-2.803-2.803 2.806 2.806 0 0 0-2.803 2.803 2.806 2.806 0 0 0 2.803 2.803 2.806 2.806 0 0 0 2.804-2.803z" fill="#08757A"/><path d="M40.722 13.813a2.806 2.806 0 0 1 2.803 2.802 2.806 2.806 0 0 1-2.803 2.803 2.806 2.806 0 0 1-2.803-2.803 2.806 2.806 0 0 1 2.803-2.802z" fill="#fff"/><path d="M33.368 17.66a.988.988 0 0 1 0 1.397l-2.01 2.01a.984.984 0 0 1-.698.288.99.99 0 0 1-.698-1.686l2.009-2.008a.99.99 0 0 1 1.397 0z" fill="#08757A"/><path d="M28.952 25.582a2.806 2.806 0 0 1 2.804 2.803 2.806 2.806 0 0 1-2.804 2.803 2.806 2.806 0 0 1-2.803-2.803 2.807 2.807 0 0 1 2.803-2.803zM17.048 13.813a2.806 2.806 0 0 1 2.803 2.802 2.806 2.806 0 0 1-2.803 2.803 2.806 2.806 0 0 1-2.804-2.803 2.806 2.806 0 0 1 2.804-2.802z" fill="#fff"/><path d="M16.037 23.97a.986.986 0 0 1 0 1.396l-2.009 2.008a.98.98 0 0 1-.698.29.986.986 0 0 1-.698-1.686l2.008-2.009a.986.986 0 0 1 1.397 0z" fill="#08757A"/><path d="M5.278 25.582a2.806 2.806 0 0 1 2.804 2.803 2.806 2.806 0 0 1-2.804 2.803 2.806 2.806 0 0 1-2.803-2.803 2.806 2.806 0 0 1 2.803-2.803z" fill="#fff"/></g><defs><clipPath id="a"><path fill="#fff" transform="translate(.5)" d="M0 0h45v45H0z"/></clipPath></defs></svg>