<svg width="61" height="60" viewBox="0 0 61 60" fill="none" xmlns="http://www.w3.org/2000/svg"><path d="M21.386 56.006a.91.91 0 0 1-.455-.119l-8.199-4.554a.91.91 0 0 1 0-1.585l8.199-4.555a.91.91 0 0 1 1.302.447c.638 1.555.97 3.22.975 4.9a13.117 13.117 0 0 1-.966 4.9.91.91 0 0 1-.856.566zM15.01 50.54l5.83 3.243c.342-1.048.526-2.14.546-3.243 0-1.1-.166-2.193-.492-3.242L15.01 50.54z" fill="#087378"/><path d="M55.089 56.006H21.386a.91.91 0 0 1-.91-.818.91.91 0 0 1 .063-.44c.55-1.334.838-2.763.847-4.207a11.048 11.048 0 0 0-.838-4.209.91.91 0 0 1 .415-1.149.912.912 0 0 1 .423-.108h33.703a.91.91 0 0 1 .91.911v9.109a.91.91 0 0 1-.91.91zm-32.41-1.822h31.499v-7.287H22.679c.353 1.182.531 2.41.529 3.644a12.996 12.996 0 0 1-.529 3.643z" fill="#087378"/><path d="M44.158 52.362h-20.95a.91.91 0 0 1 0-1.822h20.95a.91.91 0 0 1 0 1.822zm4.554 2.733a.91.91 0 0 1-.91-.911v-7.287a.911.911 0 0 1 1.821 0v7.287a.911.911 0 0 1-.91.91z" fill="#087378"/><path d="M16.166 45.63a.91.91 0 0 1-.829-.537L5.5 23.06a4.554 4.554 0 0 1 2.295-6.012L26.168 8.85a.91.91 0 0 1 .747 1.612L8.542 18.66a2.733 2.733 0 0 0-1.384 3.644l9.837 22.043a.91.91 0 0 1-.829 1.285z" fill="#999"/><path d="M16.595 22.011a.911.911 0 0 1-.916-.893.91.91 0 0 1 .542-.856l7.488-3.343a.91.91 0 1 1 .738 1.667l-7.488 3.343a.91.91 0 0 1-.364.082zm-.274 6.103a.91.91 0 0 1-.4-1.74l6.175-2.732a.911.911 0 0 1 .747 1.658l-6.176 2.732a.911.911 0 0 1-.346.082zm2.232 4.983a.91.91 0 0 1-.373-1.74l2.086-.91a.91.91 0 0 1 .747 1.657l-2.086.91a.91.91 0 0 1-.374.083z" fill="#666"/><path d="M47.802 43.253a.683.683 0 0 1-.237 0 .91.91 0 0 1-.638-1.111l7.16-26.115a2.732 2.732 0 0 0-.273-2.077 2.642 2.642 0 0 0-1.65-1.275L31.088 6.89a2.733 2.733 0 0 0-3.325 1.931l-7.497 27.227a2.732 2.732 0 0 0 .264 2.077c.358.63.951 1.092 1.65 1.284l7.514 2.022a.942.942 0 0 1-.474 1.822l-7.514-2.095a4.555 4.555 0 0 1-3.295-3.814 4.492 4.492 0 0 1 .134-1.77L25.94 8.34a4.554 4.554 0 0 1 5.593-3.198l21.105 5.775a4.555 4.555 0 0 1 3.198 5.584l-7.123 26.08a.911.911 0 0 1-.911.673z" fill="#999"/><path d="M44.577 17.165a1.124 1.124 0 0 1-.246 0l-7.906-2.15a.938.938 0 1 1 .446-1.821l7.907 2.168a.918.918 0 1 1-.237 1.822l.036-.019zm1.193 5.995a1.124 1.124 0 0 1-.246 0l-13.208-3.59a.946.946 0 1 1 .51-1.822l13.154 3.644a.919.919 0 1 1-.237 1.822l.027-.055zm-1.448 5.273a.713.713 0 0 1-.237 0l-13.18-3.644a.91.91 0 1 1 .5-1.749l13.181 3.644a.911.911 0 0 1 .638 1.111.91.91 0 0 1-.902.638zm-1.439 5.274a.769.769 0 0 1-.246 0l-13.18-3.643a.912.912 0 1 1 .482-1.759l13.18 3.644a.911.911 0 0 1 .638 1.12.91.91 0 0 1-.874.638z" fill="#666"/></svg>