<svg width="24" height="24" viewBox="0 0 24 24" fill="none" xmlns="http://www.w3.org/2000/svg"><rect width="24" height="24" rx="12" fill="#000"/><path d="M6.666 17.334c-.366 0-.68-.131-.942-.392A1.282 1.282 0 0 1 5.333 16V8c0-.366.13-.68.392-.942.261-.261.575-.391.941-.391h10.667c.367 0 .68.13.942.392.261.261.392.575.391.941v8c0 .367-.13.681-.392.942a1.281 1.281 0 0 1-.941.392H6.666zM12 12.667L6.666 9.334V16h10.667V9.334L12 12.667zm0-1.333L17.333 8H6.666L12 11.334zm-5.334-2V8v8-6.666z" fill="#fff"/></svg>