<svg width="813" height="957" viewBox="0 0 813 957" fill="none" xmlns="http://www.w3.org/2000/svg"><g opacity=".2" stroke="#fff" stroke-width="6.022"><path opacity=".053" d="M89.203 742.412c24.225 32.229 101.651 86.162 217.555 44.054C451.637 733.832 507.67 594.312 636.977 521.97c95.438-53.395 351.884-133.542 499.343-44.978"/><path opacity=".105" d="M65.307 674.845c20.724 34.586 92.088 96.316 211.758 66.554 149.588-37.202 219.897-170.1 356.058-228.53 100.496-43.126 363.916-96.029 501.307 7.464"/><path opacity=".158" d="M47.256 606.369c16.995 36.561 81.516 105.413 203.641 88.323C403.554 673.33 487.37 548.51 628.892 504.632c104.454-32.385 371.958-57.463 497.788 59.825"/><path opacity=".211" d="M35.112 537.595c13.08 38.138 70.051 113.356 193.294 109.126 154.053-5.288 250.457-120.664 395.791-149.508 107.267-21.289 375.933-18.268 488.803 111.53"/><path opacity=".263" d="M28.87 469.145c9.022 39.296 57.818 120.058 180.828 128.733 153.762 10.844 261.698-93.823 409.25-107.318 108.905-9.959 375.779 21.128 474.472 162.013"/><path opacity=".316" d="M28.467 401.634c4.865 40.024 44.952 125.444 166.381 146.929 151.787 26.857 270.072-65.954 418.227-63.951 109.349 1.479 371.512 60.292 454.935 210.721"/><path opacity=".368" d="M33.775 335.666c.654 40.313 31.593 129.455 150.111 163.516 148.147 42.575 275.486-37.363 422.62-19.884 108.595 12.9 363.175 98.794 430.414 257.12"/><path opacity=".421" d="M44.597 271.83c-3.563 40.161 17.888 132.049 132.196 178.312 142.886 57.828 277.883-8.362 422.384 24.4 106.652 24.181 350.858 136.216 401.183 300.703"/><path opacity=".474" d="M60.682 210.692c-7.742 39.568 3.987 133.195 112.834 191.153 136.058 72.447 277.234 20.731 417.519 68.418 103.54 35.196 334.698 172.144 367.552 340.99"/><path opacity=".526" d="M81.72 152.786c-11.835 38.542-9.957 132.882 92.235 201.9 127.74 86.272 273.549 49.596 408.08 111.686 99.294 45.826 314.87 206.186 329.895 377.541"/><path opacity=".579" d="M107.345 98.61c-15.799 37.095-23.792 131.114 70.625 210.436 118.023 99.152 266.867 77.918 394.171 153.73 93.96 55.955 291.593 237.97 288.624 409.957"/><path opacity=".632" d="M137.141 48.628c-19.59 35.24-37.368 127.908 48.242 216.665 107.011 110.945 257.259 105.386 375.942 194.09 87.596 65.47 265.121 267.146 244.191 437.88"/><path opacity=".684" d="M170.648 3.25c-23.166 33-50.533 123.302 25.33 220.521 94.828 121.523 244.834 131.7 353.594 232.323 80.273 74.267 235.745 293.395 197.083 461.007"/><path opacity=".737" d="M207.364-37.162c-26.488 30.397-63.144 117.344 2.141 221.96 81.606 130.77 229.727 156.571 327.373 268.012 72.07 82.251 203.785 316.43 147.814 479.081"/><path opacity=".789" d="M246.753-72.297c-29.52 27.46-75.064 110.1-21.072 220.967 67.49 138.584 212.102 179.727 297.565 300.763 63.078 89.334 169.592 335.998 96.927 491.909"/><path opacity=".842" d="M288.249-101.908c-32.23 24.225-86.162 101.651-44.054 217.555 52.634 144.879 192.153 200.912 264.496 330.219 53.394 95.438 133.542 351.885 44.978 499.345"/><path opacity=".895" d="M331.26-125.803c-34.585 20.724-96.315 92.088-66.553 211.758 37.202 149.588 170.1 219.898 228.53 356.058 43.126 100.497 96.029 363.916-7.464 501.311"/><path opacity=".947" d="M375.186-143.855c-36.562 16.995-105.413 81.516-88.324 203.642 21.362 152.656 146.183 236.473 190.06 377.995 32.385 104.454 57.463 371.96-59.825 497.785"/><path d="M419.406-156C381.268-142.92 306.049-85.95 310.28 37.293c5.288 154.054 120.663 250.458 149.507 395.791 21.289 107.267 18.268 375.929-111.53 488.805"/></g></svg>