<svg width="452" height="343" viewBox="0 0 452 343" fill="none" xmlns="http://www.w3.org/2000/svg"><g opacity=".3" stroke="#fff" stroke-width="2.216"><path d="M249.641-27.6c-16.677-41.694-99.179-62.283-85.565 20.733 2.233 13.612 2.457 37.05 0 65.58-2.25 26.135-46.31 40.435-59.835 74.204-21.211 52.959 58.095 89.873 45.475 117.712-16.53 36.464-67.143 52.284-95.138 72.233-26.355 18.78-43.142 48.913-49.588 79.893-11.308 54.351 9.213 111.309 65.743 114.143 28.299 1.418 65.621-10.726 112.49-43.551 20.956-14.676 39.434-26.77 55.857-36.55 42.269-25.171 30.905 34.368 81.166 36.55 28.639 1.243 58.551-50.157 81.194-22.74 16.101 19.495 34.577 43.15 60.963 67.469 46.338 42.709 104.273 48.997 112.468-11.957 3.868-28.773-3.348-72.531-28.1-134.515-15.84-39.666 23.56-38.268 28.1-89.098 4.54-50.83-32.583-74.272-5.71-95.31l.538-.421c20.483-16.034 42.329-33.134 54.259-65.979 10.277-28.292 9.295-56.314 0-77.846-9.947-23.044-29.417-38.655-54.797-39.209-25.466-.555-56.882 14.048-90.602 51.51-22.233 24.7-37.289-32.772-77.119-26.897s-45.366 61.33-69.227 45.245C290.765 45.66 269.172 21.231 249.641-27.6z"/><path d="M330.092 199.832c-2.538-6.401-14.366-4.72-14.965 2.216-.681 7.899 3.473 18.191 2.993 26.108-.927 15.286-6.547 19.637-17.737 27.694-4.01 2.883-6.565 7.509-7.546 12.265-1.721 8.344 1.402 17.088 10.005 17.523 4.307.218 9.987-1.647 17.119-6.686 3.19-2.253 6.002-4.11 8.501-5.611 10.88-7.059 21.006-1.528 24.709 2.12 2.45 2.993 5.262 6.624 9.278 10.358 7.051 6.556 17.731 5.697 17.115-1.836-.868-10.642-19.776-50.366 0-57.293 9.187-3.217 8.885-10.506 7.471-13.811-1.514-3.538-4.477-5.934-8.339-6.019-3.876-.085-10.296 6.019-13.789 7.908-12.893 6.971-24.398 10.575-34.815-14.936z"/><path d="M177.871 11.296c-12.083-75.574 63.311-56.735 78.6-18.512 18.718 46.73 39.412 68.63 78.297 93.42 21.87 14.549 27.132-36.085 63.602-41.588s50.404 46.65 70.808 24.182c31.033-34.077 59.888-47.147 83.196-46.322 23.157.653 40.911 15.095 49.881 36.299 8.375 19.828 9.067 45.56-.702 71.446-12.749 30.77-31.16 49.922-49.858 65.582-24.423 19.48 9.124 40.997 4.678 87.274-4.447 46.277-40.699 44.876-26.608 80.669 22.157 56.057 28.467 95.541 24.724 121.45-7.624 55.292-60.653 49.364-103.211 10.42-24.403-22.212-41.692-43.699-56.837-61.118-20.83-24.809-48.301 22.124-74.649 21.196-46.056-1.758-36.008-55.772-74.726-32.774-15.202 8.994-32.242 20.035-51.505 33.377-43.428 29.825-77.671 40.086-103.262 38.042-51.39-2.793-69.982-54.825-59.579-104.465 5.98-28.377 21.404-55.962 45.566-73.178 26.49-18.877 73.052-33.664 88.177-68.218 11.505-25.686-60.738-59.681-41.52-108.276 12.225-31.134 52.235-44.555 54.314-68.689 2.262-26.27 2.341-47.789.614-60.217z"/><path d="M192.284 30.224c-10.534-67.883 57.641-50.857 71.52-16.23 17.879 44.469 37.643 63.77 73.909 85.332 19.846 12.965 24.827-32.681 57.884-37.795 33.057-5.113 45.847 41.552 64.395 21.388 28.299-30.579 54.55-42.073 75.667-40.983 20.9.75 36.912 13.975 44.89 33.269 7.445 18.059 7.844 41.416-1.401 64.811-13.446 28.304-28.115 49.428-44.848 64.537-21.937 17.859 7.987 37.38 3.64 78.951-4.347 41.572-37.399 40.174-25.076 71.977 19.528 49.947 24.922 85.029 21.311 107.988-7.043 49.45-55.087 43.901-93.803 8.851-22.386-20.032-38.462-39.281-52.628-54.567-18.987-22.12-43.978 20.191-67.997 19.581-41.783-1.328-33.065-49.641-68.177-28.893-13.958 8.179-29.535 18.131-47.077 30.096-39.923 26.728-71.036 35.072-93.883 32.412-46.176-2.742-62.81-49.679-53.326-94.445 5.504-25.68 19.542-50.626 41.476-66.222 24.946-17.742 67.39-31.445 81.087-63.974 10.373-23.448-54.7-54.413-37.503-98.481 10.906-28.396 46.808-40.893 48.712-62.947 2.065-23.923 2.446-43.452 1.228-54.656z"/><path d="M206.075 48.388c-9-60.44 52.06-45.164 64.551-14.01 17.067 42.367 35.932 59.14 69.636 77.554 17.852 11.429 22.56-29.397 52.255-34.138 29.695-4.741 41.362 36.604 58.081 18.672 25.61-27.192 49.297-37.154 68.255-35.794 18.676.849 32.971 12.905 39.97 30.358 6.525 16.355 6.633 37.422-2.105 58.41-14.163 25.942-25.113 49.105-39.904 63.717-19.486 16.301 6.861 33.898 2.606 70.916-4.254 37.017-34.156 35.617-23.584 63.547 16.929 44.021 21.417 74.829 17.931 94.923-6.473 43.788-49.607 38.6-84.54 7.315-20.403-17.925-35.292-35.006-48.502-48.216-17.172-19.512-39.722 18.331-61.448 18.036-37.575-.904-30.174-43.691-61.733-25.117-12.737 7.394-26.875 16.292-42.723 26.924-36.481 23.728-64.512 30.188-84.65 26.903-41.032-2.701-55.735-44.712-47.155-84.767 5.038-23.077 17.711-45.475 37.451-59.507 23.441-16.669 61.833-29.338 74.123-59.958 9.256-21.294-48.747-49.34-33.545-89.043 9.606-25.762 41.454-37.379 43.186-57.432 1.871-21.663 2.555-39.273 1.844-49.293z"/><path d="M220.48 66.551c-7.451-52.995 46.388-39.47 57.468-11.788 16.225 40.268 34.158 54.512 65.239 69.775 15.828 9.893 20.255-26.111 46.535-30.48 26.279-4.37 36.802 31.655 51.663 15.954 22.876-23.805 43.957-32.232 60.723-30.603 16.418.948 28.97 11.836 34.978 27.449 5.593 14.651 5.41 33.427-2.804 52.008-14.856 23.579-22.067 48.79-34.891 62.906-16.999 14.744 5.723 30.415 1.568 62.878-4.154 32.463-30.854 31.06-22.05 55.115 14.3 38.092 17.872 64.624 14.518 81.852-5.892 38.124-44.038 33.296-75.127 5.778-18.385-15.819-32.059-30.731-44.289-41.863-15.327-16.903-35.396 16.471-54.791 16.492-33.3-.48-27.23-37.74-55.18-21.339-11.493 6.608-24.167 14.451-38.294 23.75-32.972 20.728-57.872 25.302-75.265 21.391-35.816-2.661-48.561-39.746-40.901-75.089 4.563-20.472 15.849-40.322 33.359-52.79 21.896-15.598 56.167-27.233 67.029-55.945 8.123-19.141-42.708-44.268-29.527-79.605 8.287-23.126 36.025-33.865 37.582-51.917 1.673-19.403 2.66-35.093 2.457-43.929z"/><path d="M234.882 85.57c-5.902-45.432 40.713-33.688 50.382-9.54 15.38 38.078 32.38 49.761 60.835 61.839 13.803 8.334 17.947-22.767 40.811-26.755 22.864-3.988 32.242 26.636 45.244 13.203 20.14-20.365 38.615-27.24 53.187-25.345 14.16 1.046 24.97 10.74 29.987 24.478 4.661 12.914 4.187 29.357-3.502 45.49-15.545 21.163-19.02 48.362-29.878 61.952-14.512 13.153 4.586 26.864.532 54.699-4.053 27.835-27.549 26.432-20.514 46.56 11.672 32.078 14.33 54.275 11.108 68.598-5.309 32.376-38.468 27.918-65.711 4.228-16.364-13.675-28.823-26.386-40.073-35.415-13.481-14.257-31.067 14.573-48.131 14.91-29.024-.054-24.283-31.704-48.624-17.514-10.248 5.807-21.457 12.58-33.861 20.523-29.463 17.682-51.23 20.36-65.878 15.832-30.599-2.614-41.387-34.69-34.648-65.241 4.088-17.823 13.987-35.079 29.267-45.956 20.347-14.492 50.495-25.066 59.929-51.806 6.99-16.944-36.668-39.097-25.509-69.988 6.969-20.439 30.597-30.274 31.979-46.286 1.476-17.099 2.764-30.834 3.068-38.466z"/><path d="M248.66 103.733c-4.365-37.983 35.123-27.99 43.401-7.315 14.568 35.982 30.668 45.133 56.557 54.058 11.806 6.797 15.677-19.48 35.173-23.097 19.496-3.616 27.749 21.684 38.919 10.484 17.446-16.976 33.353-22.315 45.763-20.15 11.93 1.146 21.021 9.671 25.057 21.567 3.739 11.21 2.973 25.362-4.208 39.088-16.265 18.799-16.012 48.055-24.925 61.15-12.056 11.596 3.457 23.381-.504 46.659s-24.302 21.872-19.021 38.122c9.069 26.145 10.817 44.063 7.72 55.518-4.738 26.709-32.977 22.611-56.431 2.689-14.378-11.567-25.648-22.108-35.94-29.058-11.664-11.645-26.804 12.713-41.571 13.367-24.809.371-21.388-25.749-42.169-13.734-9.026 5.022-18.793 10.74-29.5 17.349-26.014 14.679-44.695 15.469-56.628 10.312-25.447-2.573-34.299-29.721-28.466-55.558 3.621-15.218 12.152-29.924 25.235-39.237 18.84-13.42 44.929-22.962 52.954-47.795 5.871-14.79-30.704-34.024-21.543-60.547 5.664-17.804 25.232-26.761 26.442-40.771 1.281-14.838 2.873-26.653 3.685-33.101z"/><path d="M263.042 121.894c-2.818-30.528 29.439-22.288 36.304-5.088 13.717 33.895 28.874 40.511 52.128 46.276 9.778 5.259 13.365-16.191 29.441-19.436 16.076-3.245 23.182 16.726 32.491 7.761 14.706-13.584 28.003-17.386 38.217-14.948 9.67 1.246 17.017 8.602 20.061 18.657 2.808 9.505 1.753 21.365-4.901 32.681-16.942 16.437-12.962 47.764-19.908 60.37-9.568 10.038 2.32 19.897-1.537 38.613-3.858 18.717-20.99 17.308-17.476 29.677 6.441 20.205 7.275 33.84 4.312 42.423-4.153 21.037-27.399 17.298-47.002 1.147-12.354-9.458-22.404-17.827-31.711-22.694-9.815-9.033-22.47 10.852-34.901 11.823-20.528.798-18.435-19.786-35.603-9.948a884.922 884.922 0 0 0-25.06 14.172c-22.496 11.674-38.04 10.571-47.228 4.783-20.226-2.534-27.12-24.75-22.209-45.87 3.144-12.612 10.287-24.767 21.136-32.514 17.283-12.353 39.243-20.861 45.838-43.793 4.738-12.635-24.659-28.949-17.521-51.103 4.346-15.168 19.802-23.247 20.836-35.256 1.083-12.577 2.976-22.47 4.293-27.733z"/><path d="M277.022 140.055c-1.282-23.064 23.917-16.578 29.407-2.855 12.945 31.817 27.248 35.892 47.999 38.492 7.804 3.717 11.127-12.9 23.871-15.775 12.743-2.874 18.742 11.76 26.24 5.034 12.046-10.188 22.806-12.449 30.88-9.737 7.462 1.347 13.104 7.534 15.172 15.747 1.891 7.799.539 17.365-5.625 26.269-17.722 14.076-9.983 47.499-14.997 59.619-7.13 8.481 1.194 16.412-2.583 30.562-3.777 14.149-17.794 12.736-16.032 21.216 3.845 14.256 3.768 23.6.922 29.306-3.593 15.356-21.971 11.976-37.83-.4-10.398-7.346-19.286-13.541-27.661-16.32-8.021-6.415-18.258 8.991-28.423 10.281-16.358 1.226-15.584-13.814-29.232-6.155l-.378.199c-6.459 3.388-13.214 6.932-20.38 10.793-19.104 8.665-31.597 5.661-38.086-.764-15.113-2.496-20.085-19.775-16.069-36.172 2.685-10.003 8.477-19.605 17.153-25.786 15.825-11.287 33.777-18.763 38.978-39.799 3.629-10.48-18.746-23.873-13.593-41.653 3.05-12.531 14.475-19.733 15.339-29.741.891-10.314 3.096-18.285 4.928-22.361z"/><path d="M291.37 159.097c.264-15.498 18.21-10.794 22.282-.611 12.077 29.596 25.418 31.114 43.508 30.537 5.769 2.159 8.804-9.552 18.116-12.043 9.312-2.49 14.157 6.743 19.786 2.285 9.295-6.747 17.434-7.458 23.305-4.484 5.195 1.442 9.088 6.433 10.164 12.766.957 6.059-.682 13.289-6.309 19.742-18.372 11.652-6.925 47.017-9.968 58.597-4.637 6.885.057 12.853-3.611 22.374-3.669 9.52-14.463 8.109-14.467 12.664 1.217 8.245.228 13.257-2.48 16.062-3.006 9.608-16.373 6.601-28.365-1.945-8.362-5.201-16.02-9.194-23.4-9.875-6.164-3.769-13.906 7.089-21.725 8.692-12.061 1.649-12.615-7.781-22.635-2.334-5.32 2.646-10.724 5.181-16.297 7.762-15.566 5.619-24.91.729-28.649-6.304-9.882-2.446-12.891-14.712-9.801-26.314 2.206-7.35 6.602-14.356 13.037-18.943 14.249-10.171 28.053-16.582 31.819-35.626 2.492-8.279-12.685-18.69-9.558-32.019 1.729-9.838 9.033-16.131 9.721-24.092.692-8.006 3.193-14.019 5.527-16.891z"/><path d="M305.931 177.282c1.804-7.986 12.553-5.05 15.219 1.626 11.227 27.442 23.629 26.414 39.093 22.668 3.751.61 6.503-6.233 12.412-8.346 5.908-2.114 9.611 1.754 13.388-.453 6.567-3.329 12.108-2.496 15.794.744 2.946 1.541 5.103 5.348 5.193 9.822.031 4.335-1.896 9.251-6.998 13.274-19.041 9.258-3.89 46.632-4.975 57.696-2.16 5.309-1.074 9.332-4.639 14.257-3.565 4.925-11.165 3.513-12.927 4.164-1.397 2.269-3.294 2.973-5.869 2.89-2.424 3.897-10.821 1.256-18.98-3.489-6.347-3.073-12.791-4.879-19.19-3.469-4.323-1.139-9.591 5.208-15.086 7.126-7.799 2.074-9.675-1.783-16.099 1.469a108.547 108.547 0 0 1-11.877 4.56c-12.063 2.592-18.286-4.188-19.293-11.841-4.687-2.401-5.748-9.695-3.575-16.54 1.731-4.72 4.745-9.152 8.957-12.159 12.697-9.079 22.392-14.44 24.735-31.539 1.363-6.1-6.67-13.561-5.556-22.478.417-7.173 3.63-12.573 4.143-18.51.495-5.721 3.294-9.795 6.13-11.472z"/></g></svg>