<svg width="375" height="738" viewBox="0 0 375 738" fill="none" xmlns="http://www.w3.org/2000/svg"><g opacity=".2" stroke-width="4.147"><path d="M64.605 49.137C66.24-137.65 248.173-104.816 360.927-16.114c66.817 48.136 139.588-21.537 222.344 38.157 82.757 59.695-57.849 133.272 67.954 227.5 125.803 94.228-11.984 315.975-136.182 283.557-124.198-32.418-101.872 17.859-251.773 75.552C113.369 666.345-57.72 477.997 32.847 356.464c90.568-121.533 29.986-105.129 31.758-307.327z" stroke="url(#a)"/><path d="M291.76 259.657c-.805-18.064 32.593-37.31 50.106-20.035 16.038 15.818 37.39 14.325 48.853 22.608 30.178 21.804 15.955 24.733 26.867 43.518 13.278 22.86 8.842 71.537-33.251 59.531-34.619-9.875-29.059 9.905-57.109 9.966-28.049.061-53.828-21.015-44.299-54.424 3.579-12.547 10.175-31.077 8.833-61.164z" stroke="url(#b)"/><path d="M85.492 67.432C86.906-104.016 255.334-75.917 359.43 6.292c62.202 45.198 130.298-18.278 206.573 36.743 77.977 56.25-51.14 123.404 64.218 210.774C745.795 341.55 620.131 547.563 503.397 517c-116.055-30.368-95.253 17.137-234.076 69.59C130.497 639.043-27.383 465.903 55.818 352.381c82.66-111.625 28.185-98.397 29.674-284.95z" stroke="url(#c)"/><path d="M106.379 85.73C107.571-70.38 262.497-47.015 357.934 28.7c57.585 42.26 121.007-15.017 190.801 35.33 73.196 52.806-44.431 113.537 60.483 194.049 105.344 81.252-8.197 271.532-117.467 242.825-107.911-28.319-88.633 16.413-216.379 63.627-127.747 47.214-272.416-110.72-196.583-216.23 74.752-101.718 26.384-91.666 27.59-262.571z" stroke="url(#d)"/><path d="M127.266 104.026c.971-140.77 142.394-122.14 229.173-52.919 52.969 39.323 111.716-11.756 175.029 33.917 68.416 49.361-37.722 103.67 56.748 177.323 95.114 74.764-6.304 249.31-108.11 222.459-99.768-26.27-82.014 15.69-198.683 57.665S33.295 441.718 101.761 344.218c66.844-91.809 24.583-84.933 25.505-240.192z" stroke="url(#e)"/><path d="M148.151 122.324C148.9-3.109 276.82 10.787 354.94 73.514c48.353 36.386 102.426-8.495 159.257 32.504 63.637 45.916-31.012 93.803 53.013 160.598 84.885 68.276-4.411 227.088-98.752 202.092-91.624-24.22-75.395 14.967-180.986 51.703C181.88 557.147 63.631 429.626 124.73 340.137c58.936-81.901 22.782-78.201 23.421-217.813z" stroke="url(#f)"/><path d="M168.877 141.201c.526-110.094 114.943-100.933 184.405-44.698 43.736 33.446 93.135-5.236 143.485 31.089 58.857 42.472-24.302 83.936 49.278 143.872 74.656 61.788-2.518 204.867-89.395 181.727-83.481-22.171-68.775 14.244-163.289 45.74-94.514 31.497-199.554-80.818-145.821-162.295 51.027-71.993 20.98-71.469 21.337-195.435z" stroke="url(#g)"/><path d="M189.405 160.762c.305-94.756 101.218-90.33 162.023-40.588 39.119 30.509 83.844-1.976 127.713 29.676 54.077 39.027-17.593 74.069 45.542 127.146 64.426 55.301-.624 182.645-80.037 161.361-75.337-20.121-62.157 13.521-145.593 39.778-83.437 26.257-175.266-70.851-128.901-144.317 43.12-62.085 19.18-64.736 19.253-173.056z" stroke="url(#h)"/><path d="M209.923 180.36c.082-79.417 87.493-79.725 139.639-36.477 34.503 27.57 74.553 1.284 111.941 28.262 49.297 35.583-10.884 64.201 41.807 110.421 54.197 48.812 1.269 160.423-70.68 140.995-67.193-18.073-55.537 12.797-127.896 33.815-72.359 21.018-150.978-60.884-111.98-126.338 35.211-52.178 17.379-58.005 17.169-150.678z" stroke="url(#i)"/><path d="M230.424 200.013c-.14-64.079 73.767-69.122 117.255-32.367 29.887 24.632 65.263 4.545 96.169 26.849 44.518 32.138-4.174 54.334 38.072 93.695 43.967 42.324 3.162 138.202-61.322 120.628-59.05-16.022-48.918 12.075-110.2 27.854-61.281 15.778-126.69-50.917-95.059-108.36 27.302-42.27 15.577-51.273 15.085-128.299z" stroke="url(#j)"/><path d="M250.907 219.749c-.362-48.741 60.042-58.518 94.873-28.256 25.27 21.694 55.971 7.805 80.396 25.435 39.738 28.693 2.536 44.467 34.337 76.97 33.738 35.836 5.056 115.98-51.965 100.262-50.906-13.973-42.298 11.352-92.503 21.891-50.204 10.539-102.403-40.949-78.139-90.381 19.395-32.362 13.777-44.541 13.001-105.921z" stroke="url(#k)"/><path d="M271.355 239.607c-.584-33.403 46.317-47.914 72.489-24.146 20.655 18.756 46.681 11.065 64.625 24.021 34.958 25.249 9.245 34.6 30.602 60.245 23.508 29.348 6.948 93.758-42.608 79.896-42.763-11.924-35.679 10.628-74.806 15.928-39.127 5.301-78.116-30.981-61.219-72.402 11.487-22.454 11.976-37.809 10.917-83.542z" stroke="url(#l)"/></g><defs><linearGradient id="a" x1="446.016" y1="-25.752" x2="255.941" y2="640.631" gradientUnits="userSpaceOnUse"><stop stop-color="#fff"/><stop offset="1" stop-color="#fff" stop-opacity="0"/></linearGradient><linearGradient id="b" x1="373.072" y1="245.563" x2="334.827" y2="379.646" gradientUnits="userSpaceOnUse"><stop stop-color="#fff"/><stop offset="1" stop-color="#fff" stop-opacity="0"/></linearGradient><linearGradient id="c" x1="439.358" y1="-1.096" x2="263.33" y2="616.041" gradientUnits="userSpaceOnUse"><stop stop-color="#fff"/><stop offset="1" stop-color="#fff" stop-opacity="0"/></linearGradient><linearGradient id="d" x1="432.702" y1="23.564" x2="270.721" y2="591.455" gradientUnits="userSpaceOnUse"><stop stop-color="#fff"/><stop offset="1" stop-color="#fff" stop-opacity="0"/></linearGradient><linearGradient id="e" x1="426.049" y1="48.222" x2="278.114" y2="566.868" gradientUnits="userSpaceOnUse"><stop stop-color="#fff"/><stop offset="1" stop-color="#fff" stop-opacity="0"/></linearGradient><linearGradient id="f" x1="419.394" y1="72.88" x2="285.505" y2="542.283" gradientUnits="userSpaceOnUse"><stop stop-color="#fff"/><stop offset="1" stop-color="#fff" stop-opacity="0"/></linearGradient><linearGradient id="g" x1="412.747" y1="97.541" x2="292.738" y2="518.28" gradientUnits="userSpaceOnUse"><stop stop-color="#fff"/><stop offset="1" stop-color="#fff" stop-opacity="0"/></linearGradient><linearGradient id="h" x1="406.101" y1="122.202" x2="299.777" y2="494.962" gradientUnits="userSpaceOnUse"><stop stop-color="#fff"/><stop offset="1" stop-color="#fff" stop-opacity="0"/></linearGradient><linearGradient id="i" x1="399.46" y1="146.864" x2="306.81" y2="471.686" gradientUnits="userSpaceOnUse"><stop stop-color="#fff"/><stop offset="1" stop-color="#fff" stop-opacity="0"/></linearGradient><linearGradient id="j" x1="392.825" y1="171.527" x2="313.831" y2="448.47" gradientUnits="userSpaceOnUse"><stop stop-color="#fff"/><stop offset="1" stop-color="#fff" stop-opacity="0"/></linearGradient><linearGradient id="k" x1="386.207" y1="196.198" x2="320.846" y2="425.348" gradientUnits="userSpaceOnUse"><stop stop-color="#fff"/><stop offset="1" stop-color="#fff" stop-opacity="0"/></linearGradient><linearGradient id="l" x1="379.611" y1="220.873" x2="327.842" y2="402.37" gradientUnits="userSpaceOnUse"><stop stop-color="#fff"/><stop offset="1" stop-color="#fff" stop-opacity="0"/></linearGradient></defs></svg>