<svg width="165" height="38" viewBox="0 0 165 38" fill="none" xmlns="http://www.w3.org/2000/svg"><g clip-path="url(#a)" fill="#0C0C0D" fill-opacity=".68"><path d="M25.206 16.794a5.229 5.229 0 0 0-1.022 1.87 5.794 5.794 0 0 0-.236 2.192l-.022-.025a6.88 6.88 0 0 1-.3 2.576 6.201 6.201 0 0 1-1.211 2.19 5.198 5.198 0 0 1-1.9 1.399 4.586 4.586 0 0 1-2.233.345l.021.025a3.945 3.945 0 0 0-2.605.651c-.79.52-1.421 1.31-1.808 2.26a5.81 5.81 0 0 0-.353 3.048c.157 1.033.587 1.986 1.23 2.728.644.741 1.47 1.236 2.367 1.416.896.18 1.82.037 2.642-.41.824-.446 1.508-1.175 1.959-2.086a5.754 5.754 0 0 0 .562-3.006l.023.025a6.883 6.883 0 0 1 .299-2.576 6.202 6.202 0 0 1 1.212-2.19 5.198 5.198 0 0 1 1.9-1.398 4.587 4.587 0 0 1 2.233-.345l-.023-.025a3.896 3.896 0 0 0 2.166-.407 4.573 4.573 0 0 0 1.728-1.56 5.52 5.52 0 0 0 .864-2.325 5.831 5.831 0 0 0-.214-2.519 5.18 5.18 0 0 0-1.239-2.088 4.231 4.231 0 0 0-1.957-1.143 3.848 3.848 0 0 0-2.194.086 4.34 4.34 0 0 0-1.886 1.292h-.003zm-8.872 7.302l-.023-.025a3.826 3.826 0 0 0 1.904-.267 4.338 4.338 0 0 0 1.62-1.181 5.191 5.191 0 0 0 1.026-1.869 5.758 5.758 0 0 0 .233-2.194l.023.025a6.88 6.88 0 0 1 .299-2.576 6.203 6.203 0 0 1 1.212-2.19 5.201 5.201 0 0 1 1.9-1.399 4.586 4.586 0 0 1 2.233-.345l-.023-.025a3.946 3.946 0 0 0 2.607-.649c.79-.52 1.422-1.309 1.81-2.259a5.81 5.81 0 0 0 .354-3.048c-.157-1.034-.586-1.987-1.23-2.729-.643-.742-1.47-1.237-2.366-1.418a3.897 3.897 0 0 0-2.643.41c-.824.446-1.508 1.174-1.959 2.086a5.753 5.753 0 0 0-.563 3.006l-.021-.027a6.88 6.88 0 0 1-.3 2.576 6.2 6.2 0 0 1-1.211 2.191 5.198 5.198 0 0 1-1.9 1.398 4.586 4.586 0 0 1-2.234.345l.022.026a3.829 3.829 0 0 0-1.903.267c-.61.25-1.163.654-1.621 1.181a5.192 5.192 0 0 0-1.026 1.869 5.758 5.758 0 0 0-.232 2.194l-.022-.024a6.887 6.887 0 0 1-.3 2.575 6.204 6.204 0 0 1-1.212 2.19 5.198 5.198 0 0 1-1.9 1.398 4.585 4.585 0 0 1-2.233.346l.022.025a3.946 3.946 0 0 0-2.606.649c-.79.52-1.423 1.31-1.81 2.259a5.81 5.81 0 0 0-.354 3.048c.156 1.034.586 1.987 1.23 2.729.643.742 1.469 1.237 2.366 1.418.896.18 1.819.038 2.642-.409.824-.447 1.508-1.175 1.96-2.087a5.754 5.754 0 0 0 .562-3.006l.023.025a6.884 6.884 0 0 1 .299-2.576 6.203 6.203 0 0 1 1.212-2.19 5.201 5.201 0 0 1 1.9-1.398 4.586 4.586 0 0 1 2.233-.345zm-8.058-2.784a5.223 5.223 0 0 0 1.022-1.869c.217-.702.297-1.45.234-2.192l.023.024a6.88 6.88 0 0 1 .3-2.576 6.2 6.2 0 0 1 1.213-2.191 5.198 5.198 0 0 1 1.9-1.398 4.586 4.586 0 0 1 2.234-.344l-.023-.025a3.945 3.945 0 0 0 2.606-.65c.79-.52 1.421-1.308 1.808-2.258s.51-2.013.354-3.047c-.156-1.033-.585-1.986-1.229-2.728-.643-.741-1.47-1.236-2.365-1.417a3.896 3.896 0 0 0-2.642.408c-.824.447-1.507 1.175-1.959 2.086a5.752 5.752 0 0 0-.563 3.005l-.021-.025a6.882 6.882 0 0 1-.3 2.576 6.201 6.201 0 0 1-1.212 2.19 5.198 5.198 0 0 1-1.9 1.398 4.585 4.585 0 0 1-2.233.345l.022.025a3.895 3.895 0 0 0-2.165.408 4.57 4.57 0 0 0-1.728 1.56 5.515 5.515 0 0 0-.864 2.325 5.828 5.828 0 0 0 .214 2.518c.254.806.68 1.524 1.24 2.089a4.23 4.23 0 0 0 1.957 1.142 3.85 3.85 0 0 0 2.193-.086 4.34 4.34 0 0 0 1.886-1.293h-.002zM45.525 7.481h3.572v20.043h-3.572V7.481zm5.593 13.179a8.099 8.099 0 0 1 1.051-4.05c.69-1.2 1.674-2.137 2.827-2.692a5.537 5.537 0 0 1 3.647-.426c1.226.277 2.352.968 3.237 1.984.885 1.016 1.489 2.313 1.734 3.725a8.318 8.318 0 0 1-.355 4.208c-.477 1.332-1.285 2.47-2.323 3.27-1.038.802-2.26 1.229-3.508 1.229a5.518 5.518 0 0 1-2.42-.529 6.25 6.25 0 0 1-2.054-1.568 7.35 7.35 0 0 1-1.367-2.362 8.167 8.167 0 0 1-.469-2.788zm9.048 0a3.493 3.493 0 0 0-.498-1.73c-.31-.508-.743-.9-1.245-1.125a2.399 2.399 0 0 0-1.576-.144 2.665 2.665 0 0 0-1.383.884 3.349 3.349 0 0 0-.728 1.62c-.1.61-.041 1.24.168 1.812a3.1 3.1 0 0 0 1.01 1.404c.449.343.975.526 1.514.526.369.012.736-.065 1.077-.226.342-.16.651-.4.908-.705.258-.305.458-.668.587-1.067.13-.398.186-.823.166-1.248zm17.806-6.864v13.036c0 4.612-3.12 6.562-6.285 6.562a5.41 5.41 0 0 1-3.227-.75c-.995-.588-1.83-1.48-2.415-2.578l3.047-2.032a2.99 2.99 0 0 0 1.122 1.354c.485.31 1.04.44 1.592.375.352.057.71.02 1.05-.104a2.33 2.33 0 0 0 .906-.619c.259-.282.459-.627.586-1.01.127-.384.177-.795.148-1.204v-1.255a4.356 4.356 0 0 1-1.555 1.37 3.744 3.744 0 0 1-1.922.415c-1.57-.057-3.06-.817-4.154-2.119-1.093-1.301-1.705-3.042-1.705-4.854 0-1.813.612-3.554 1.705-4.855 1.094-1.302 2.584-2.062 4.154-2.119a3.742 3.742 0 0 1 1.922.416c.604.31 1.136.779 1.555 1.369v-1.4l3.476.002zm-3.475 6.589a3.73 3.73 0 0 0-.427-1.887 3.06 3.06 0 0 0-1.27-1.286 2.539 2.539 0 0 0-1.677-.246 2.77 2.77 0 0 0-1.509.88 3.494 3.494 0 0 0-.823 1.702c-.12.65-.07 1.326.146 1.942A3.28 3.28 0 0 0 70 23.006c.478.371 1.04.57 1.617.568.375.03.752-.03 1.105-.178.354-.148.677-.38.948-.68.271-.3.485-.663.628-1.065.142-.401.21-.833.199-1.266zm5.497.275a8.098 8.098 0 0 1 1.051-4.05c.69-1.2 1.674-2.137 2.827-2.692a5.537 5.537 0 0 1 3.647-.426c1.226.277 2.352.968 3.237 1.984.885 1.016 1.489 2.313 1.734 3.725a8.318 8.318 0 0 1-.355 4.208c-.476 1.332-1.285 2.47-2.323 3.27-1.038.802-2.26 1.229-3.508 1.229a5.517 5.517 0 0 1-2.42-.529 6.25 6.25 0 0 1-2.054-1.568 7.355 7.355 0 0 1-1.367-2.362 8.171 8.171 0 0 1-.469-2.788zm9.048 0a3.495 3.495 0 0 0-.498-1.73c-.31-.508-.743-.9-1.245-1.125a2.4 2.4 0 0 0-1.576-.144 2.665 2.665 0 0 0-1.383.884 3.35 3.35 0 0 0-.728 1.62c-.1.61-.041 1.24.168 1.812a3.1 3.1 0 0 0 1.01 1.404c.449.343.975.526 1.514.526.369.012.736-.065 1.077-.226.342-.16.651-.4.909-.705.257-.305.456-.668.586-1.067.13-.398.186-.823.166-1.248zm5.236-10.543c0-.489.126-.966.361-1.373a2.24 2.24 0 0 1 .962-.91 1.88 1.88 0 0 1 1.238-.14c.416.095.798.33 1.097.676.3.345.504.786.587 1.265.083.48.04.976-.122 1.428a2.429 2.429 0 0 1-.79 1.109 1.947 1.947 0 0 1-1.19.416c-.566-.006-1.108-.268-1.509-.73a2.7 2.7 0 0 1-.634-1.74zm.361 3.68h3.573v13.728h-3.578l.005-13.729zm18.994 6.863a7.853 7.853 0 0 1-.338 2.672 7.148 7.148 0 0 1-1.2 2.317 6.124 6.124 0 0 1-1.881 1.608 5.344 5.344 0 0 1-2.271.651 3.942 3.942 0 0 1-1.937-.377 4.522 4.522 0 0 1-1.609-1.298v6.783h-3.572v-19.22h3.572v1.29a4.522 4.522 0 0 1 1.609-1.297 3.945 3.945 0 0 1 1.937-.377 5.34 5.34 0 0 1 2.271.652 6.11 6.11 0 0 1 1.882 1.607 7.17 7.17 0 0 1 1.2 2.318c.264.856.379 1.764.337 2.672zm-3.572 0a3.602 3.602 0 0 0-.511-1.792 2.938 2.938 0 0 0-1.286-1.167 2.48 2.48 0 0 0-1.63-.152 2.752 2.752 0 0 0-1.433.913 3.455 3.455 0 0 0-.755 1.674 3.722 3.722 0 0 0 .173 1.876c.216.592.58 1.098 1.044 1.453a2.57 2.57 0 0 0 1.567.545 2.4 2.4 0 0 0 1.121-.217 2.73 2.73 0 0 0 .945-.726c.268-.316.474-.694.606-1.109.132-.414.186-.856.159-1.297zm14.592 2.745c0 3.158-2.38 4.503-4.95 4.503a4.646 4.646 0 0 1-2.995-.727c-.912-.583-1.652-1.468-2.124-2.54l3.094-2.032c.125.496.394.927.762 1.222.368.295.811.435 1.258.398.856 0 1.285-.302 1.285-.85 0-1.512-5.857-.715-5.857-5.464 0-2.994 2.191-4.503 4.667-4.503a4.66 4.66 0 0 1 2.669.737c.816.517 1.498 1.277 1.972 2.2l-3.047 1.895a1.942 1.942 0 0 0-.639-.881 1.564 1.564 0 0 0-.955-.327c-.62 0-1 .277-1 .768.004 1.566 5.86.521 5.86 5.601zm13.047-9.609v13.73h-3.571v-1.292a4.174 4.174 0 0 1-1.527 1.31 3.586 3.586 0 0 1-1.876.365c-2.406 0-4.45-1.976-4.45-5.685v-8.428h3.572v7.824c-.03.327.003.658.094.969.092.311.243.596.44.833.196.238.436.423.702.543.265.12.55.172.835.152 1.309 0 2.213-.878 2.213-2.828V13.8l3.568-.004zm20.478 5.299v8.429h-3.572V19.45c0-1.373-.57-2.25-1.713-2.25-1.191 0-1.858.96-1.858 2.58v7.743h-3.57V19.45c0-1.373-.572-2.25-1.715-2.25-1.19 0-1.857.96-1.857 2.58v7.743h-3.571v-13.73h3.571v1.263c.37-.56.856-1.004 1.414-1.292a3.23 3.23 0 0 1 1.777-.354c.61-.035 1.22.114 1.766.431a3.766 3.766 0 0 1 1.352 1.38 4.08 4.08 0 0 1 1.523-1.42 3.473 3.473 0 0 1 1.929-.391c2.733.001 4.524 2.252 4.524 5.684zm3.021-5.384c1.463 0 2.65-1.368 2.65-3.056s-1.187-3.056-2.65-3.056c-1.464 0-2.651 1.368-2.651 3.056s1.187 3.056 2.651 3.056z"/></g><defs><clipPath id="a"><path fill="#fff" transform="translate(.736 .565)" d="M0 0h163.38v37.435H0z"/></clipPath></defs></svg>