<svg width="343" height="300" viewBox="0 0 343 300" fill="none" xmlns="http://www.w3.org/2000/svg"><rect width="343" height="300" rx="12" fill="#fff"/><rect x="19" y="19" width="305" height="39" rx="9" fill="#E4E4E4"/><rect x="19" y="74" width="105" height="68" rx="9" fill="#E4E4E4"/><rect x="139" y="74" width="106" height="68" rx="9" fill="#E4E4E4"/><rect x="19" y="157" width="105" height="68" rx="9" fill="#E4E4E4"/><rect x="139" y="157" width="106" height="68" rx="9" fill="#E4E4E4"/><path d="M272 82a8 8 0 0 1 8-8h44v150h-44a8 8 0 0 1-8-8V82z" fill="#9ACD90"/><path fill-rule="evenodd" clip-rule="evenodd" d="M287.265 98.853a.75.75 0 0 1 .882-.588l1.05.21a2.751 2.751 0 0 1 2.197 2.423l.085.852h13.575a3.05 3.05 0 0 1 2.959 3.79l-1.122 4.491a4.25 4.25 0 0 1-4.124 3.219h-8.993a2.75 2.75 0 0 1-2.73-2.422l-.989-8.246-.154-1.535a1.25 1.25 0 0 0-.999-1.102l-1.049-.21a.75.75 0 0 1-.588-.882zM295 108.75a.75.75 0 0 0 0 1.5h4a.75.75 0 0 0 0-1.5h-4z" fill="#212121"/><circle cx="294.5" cy="116" r="1.5" fill="#212121"/><circle cx="303.5" cy="116" r="1.5" fill="#212121"/><path d="M298.199 141.574v-2.292H293v-2.255h12.337v2.255h-5.164v2.362l5.164 3.543v2.432l-5.975-4.212-6.362 4.37v-2.59l5.199-3.613zm4.212 16.274l-10.169-4.406c-1.022-.411-1.739-.911-2.15-1.498-.423-.588-.635-1.298-.635-2.133 0-.47.077-.934.23-1.392.152-.458.364-.834.634-1.128l1.622.881c-.2.212-.359.459-.476.741a2.344 2.344 0 0 0-.177.881c0 .387.1.705.3.951.2.259.535.494 1.005.705l.37.159 9.446-4.106v2.291l-6.961 2.961 6.961 2.978v2.115zm0 10.554H293v-2.185h7.543v-4.636H293v-2.203h9.411v9.024zm0 2.973v2.203h-6.203l6.203 5.199v2.009H293v-2.203h6.204L293 173.401v-2.026h9.411zm-1.868 19.83v-3.296H293v-2.203h7.543v-3.314h1.868v8.813h-1.868zm-1.233 6.321c0 1.198-.271 2.115-.811 2.749-.541.647-1.304.97-2.291.97-1.034 0-1.833-.353-2.397-1.058-.564-.705-.84-1.698-.829-2.978l.018-4.406h9.411v2.203h-3.084l-.017 2.52zm-4.706-.511c-.012.646.123 1.14.405 1.48.282.341.693.511 1.234.511.529 0 .916-.164 1.163-.493.247-.329.376-.828.388-1.498l.017-2.009h-3.19l-.017 2.009z" fill="#212121"/><rect x="19" y="241" width="305" height="40" rx="9" fill="#E4E4E4"/><g clip-path="url(#a)"><path d="M318.583 211.625V210m-4.267 3.316l-1.149-1.149m1.149 9.75l-1.149 1.149m9.75-9.75l1.149-1.149m-11.441 5.416H311m7.042-.541l4.453 13.842 3.13-3.129 3.912 3.912 3.13-3.13-3.912-3.912 3.129-3.13-13.842-4.453z" stroke="#212121" stroke-width="2.167" stroke-linecap="round" stroke-linejoin="round"/></g><defs><clipPath id="a"><path fill="#fff" transform="translate(307 206)" d="M0 0h26v26H0z"/></clipPath></defs></svg>