<svg width="170" height="64" viewBox="0 0 170 64" fill="none" xmlns="http://www.w3.org/2000/svg"><path d="M8.172 0h15.53v52.233L8.171 63.011V0z" fill="#FFC01E"/><path d="M18.085 52.48v-1.865a6.385 6.385 0 0 1-.623.777 3.622 3.622 0 0 1-.832.632 5.107 5.107 0 0 1-1.052.437c-.383.114-.787.17-1.21.17-.816 0-1.505-.145-2.067-.437a3.998 3.998 0 0 1-1.37-1.13 4.444 4.444 0 0 1-.758-1.58 7.116 7.116 0 0 1-.233-1.81v-2.249c0-.57-9.94 7.055-9.94 7.055v-5.173l9.94-7.055h4.036v6.498c0 .34.025.665.073.973.05.307.143.583.282.826.138.243.322.433.55.571.228.138.53.207.905.207.701 0 1.235-.26 1.602-.778a3.11 3.11 0 0 0 .6-1.823v-6.474h3.786V52.48h-3.689zm20.546-6.288a7.59 7.59 0 0 1-.392 2.43 6.237 6.237 0 0 1-1.137 2.053 5.612 5.612 0 0 1-1.822 1.422c-.718.356-1.533.535-2.446.535-.75 0-1.46-.15-2.128-.45-.668-.3-1.19-.709-1.565-1.227h-.05v7.169h-4.01V40.189h3.815v1.483h.073c.375-.487.893-.912 1.554-1.276.66-.365 1.439-.547 2.335-.547.881 0 1.68.17 2.398.51.717.34 1.324.802 1.822 1.385.497.584.88 1.26 1.15 2.03a7.3 7.3 0 0 1 .403 2.418zm-3.89 0c0-.39-.06-.77-.183-1.143a2.962 2.962 0 0 0-.538-.984 2.72 2.72 0 0 0-.893-.692c-.358-.179-.774-.268-1.247-.268-.456 0-.864.09-1.223.268a2.914 2.914 0 0 0-.917.704 3.223 3.223 0 0 0-.587.997 3.252 3.252 0 0 0 0 2.284c.139.373.334.705.587.997.253.291.558.526.917.704.359.178.767.268 1.223.268.473 0 .889-.09 1.247-.268.36-.178.657-.413.893-.704a3.08 3.08 0 0 0 .538-1.01c.123-.38.184-.765.184-1.153zm19.96 0a7.59 7.59 0 0 1-.392 2.43 6.238 6.238 0 0 1-1.137 2.053 5.614 5.614 0 0 1-1.822 1.422c-.718.356-1.533.535-2.446.535-.75 0-1.46-.15-2.128-.45-.669-.3-1.19-.709-1.566-1.227h-.049v7.169h-4.01V40.189h3.815v1.483h.073c.375-.487.893-.912 1.553-1.276.66-.365 1.44-.547 2.336-.547.88 0 1.68.17 2.397.51.717.34 1.325.802 1.822 1.385.498.584.88 1.26 1.15 2.03.269.77.403 1.575.403 2.418zm-3.89 0c0-.39-.06-.77-.183-1.143a2.96 2.96 0 0 0-.538-.984 2.719 2.719 0 0 0-.893-.692c-.359-.179-.774-.268-1.247-.268-.457 0-.864.09-1.223.268a2.916 2.916 0 0 0-.917.704 3.225 3.225 0 0 0-.588.997 3.252 3.252 0 0 0 0 2.284c.14.373.335.705.587.997.253.291.559.526.918.704.359.178.766.268 1.223.268.473 0 .888-.09 1.247-.268.359-.178.656-.413.893-.704a3.08 3.08 0 0 0 .538-1.01c.122-.38.183-.765.183-1.153zm19.323 0c0 .988-.18 1.883-.538 2.685a6.023 6.023 0 0 1-1.468 2.041 6.725 6.725 0 0 1-2.152 1.3 7.346 7.346 0 0 1-2.617.462 7.376 7.376 0 0 1-2.605-.462 6.553 6.553 0 0 1-2.152-1.3 6.103 6.103 0 0 1-1.456-2.041c-.358-.802-.538-1.697-.538-2.685 0-.989.18-1.88.538-2.674a6.002 6.002 0 0 1 1.456-2.017 6.334 6.334 0 0 1 2.152-1.263 7.745 7.745 0 0 1 2.605-.438 7.7 7.7 0 0 1 2.617.438 6.494 6.494 0 0 1 2.152 1.263 5.924 5.924 0 0 1 1.468 2.017c.359.794.538 1.685.538 2.674zm-3.865 0c0-.39-.065-.77-.195-1.143-.13-.372-.318-.7-.563-.984a2.857 2.857 0 0 0-.905-.692c-.358-.179-.774-.268-1.247-.268-.473 0-.889.09-1.248.268a2.722 2.722 0 0 0-.892.692 2.96 2.96 0 0 0-.538.984 3.64 3.64 0 0 0 0 2.285c.122.372.305.709.55 1.008.244.3.546.539.905.717.359.178.774.268 1.247.268.473 0 .889-.09 1.248-.268.358-.178.66-.417.905-.717.244-.3.428-.636.55-1.008a3.64 3.64 0 0 0 .183-1.142zm10.762-9.867c0 .308-.06.595-.183.863a2.226 2.226 0 0 1-.49.692 2.395 2.395 0 0 1-1.627.632c-.651 0-1.197-.214-1.637-.644a2.08 2.08 0 0 1-.66-1.543c0-.292.056-.571.17-.838.115-.268.278-.498.49-.693a2.65 2.65 0 0 1 .733-.474 2.393 2.393 0 0 1 2.532.45c.204.194.367.425.489.692.122.268.183.555.183.863zm-4.304 15.966V40.19h4.01v12.102h-4.01zm15.189 0v-6.61c0-.34-.029-.664-.086-.972a2.667 2.667 0 0 0-.281-.814 1.455 1.455 0 0 0-.55-.559c-.237-.138-.535-.206-.893-.206a2.04 2.04 0 0 0-.942.206 1.904 1.904 0 0 0-.673.571 2.582 2.582 0 0 0-.403.839c-.09.316-.135.644-.135.984v6.561h-4.035V40.19h3.888v1.677h.05c.146-.26.338-.514.574-.766a3.45 3.45 0 0 1 .832-.644 5.193 5.193 0 0 1 1.04-.437 4.12 4.12 0 0 1 1.198-.17c.815 0 1.508.146 2.079.437a3.99 3.99 0 0 1 1.382 1.13c.35.462.603.993.758 1.592.155.6.232 1.199.232 1.798v7.485h-4.035zm11.422-9.113v4.617c0 .568.11.993.33 1.276.22.284.616.426 1.186.426.196 0 .404-.017.624-.049.22-.032.404-.081.55-.146l.049 2.916a6.639 6.639 0 0 1-1.051.256 7.483 7.483 0 0 1-1.272.109c-.816 0-1.5-.101-2.055-.304-.554-.202-.998-.494-1.333-.875a3.424 3.424 0 0 1-.721-1.36 6.556 6.556 0 0 1-.22-1.762v-5.104h-1.957V40.19H95.4v-3.184h3.938v3.184h2.862v2.99h-2.862zm20.301 9.113v-6.61c0-.34-.025-.668-.073-.984a2.35 2.35 0 0 0-.269-.814 1.548 1.548 0 0 0-.526-.547c-.22-.138-.51-.206-.869-.206-.342 0-.64.072-.892.218a1.97 1.97 0 0 0-.636.584 2.519 2.519 0 0 0-.379.838 3.902 3.902 0 0 0-.123.984v6.537h-4.011V45.39c0-.697-.139-1.248-.416-1.653-.277-.405-.717-.607-1.321-.607-.636 0-1.129.25-1.479.753-.351.502-.526 1.118-.526 1.847v6.561h-4.036V40.19h3.889v1.677c.196-.26.379-.51.599-.754.22-.242.485-.457.795-.644a4.422 4.422 0 0 1 2.299-.62c.881 0 1.627.18 2.238.535a3.668 3.668 0 0 1 1.431 1.531 4.628 4.628 0 0 1 1.566-1.506c.635-.373 1.41-.56 2.323-.56.832 0 1.529.15 2.091.45a3.89 3.89 0 0 1 1.358 1.167c.342.478.591 1.012.746 1.604a6.83 6.83 0 0 1 .232 1.737v7.485h-4.011zm15.434-7.436c0-.632-.2-1.175-.6-1.628-.399-.454-.998-.68-1.797-.68-.392 0-.75.06-1.077.182a2.798 2.798 0 0 0-.856.498 2.48 2.48 0 0 0-.587.741c-.146.283-.228.58-.244.887h5.161zm3.693 1.531v.486a4 4 0 0 1-.025.462h-8.829c.032.34.134.648.305.923.172.276.392.515.661.717.269.203.571.36.905.474.334.113.681.17 1.039.17.636 0 1.174-.117 1.615-.352a3.19 3.19 0 0 0 1.076-.911l2.788 1.75a5.638 5.638 0 0 1-2.262 1.907c-.938.445-2.026.668-3.266.668a7.833 7.833 0 0 1-2.592-.425 6.293 6.293 0 0 1-2.14-1.24 5.726 5.726 0 0 1-1.443-2.004c-.351-.794-.526-1.702-.526-2.722 0-.989.171-1.884.513-2.686a6.078 6.078 0 0 1 1.394-2.04 6.22 6.22 0 0 1 2.079-1.301 7.155 7.155 0 0 1 2.593-.462c.897 0 1.72.15 2.47.45.751.3 1.395.733 1.933 1.3.538.567.958 1.256 1.259 2.066.302.81.453 1.733.453 2.77zm10.493 5.905v-6.61c0-.34-.029-.664-.086-.972a2.678 2.678 0 0 0-.281-.814 1.46 1.46 0 0 0-.55-.559c-.237-.138-.534-.206-.893-.206a2.04 2.04 0 0 0-.942.206 1.899 1.899 0 0 0-.672.571c-.18.243-.314.523-.404.839-.09.316-.135.644-.135.984v6.561h-4.035V40.19h3.889v1.677h.049c.146-.26.338-.514.574-.766a3.46 3.46 0 0 1 .832-.644 5.19 5.19 0 0 1 1.039-.437c.376-.113.775-.17 1.199-.17.815 0 1.508.146 2.079.437a3.969 3.969 0 0 1 1.382 1.13c.35.462.603.993.758 1.592.155.6.233 1.199.233 1.798v7.485h-4.036zm11.422-9.113v4.617c0 .568.11.993.33 1.276.22.284.616.426 1.187.426.195 0 .403-.017.623-.049a2.16 2.16 0 0 0 .551-.146l.049 2.916a6.682 6.682 0 0 1-1.052.256 7.483 7.483 0 0 1-1.272.109c-.815 0-1.5-.101-2.055-.304-.554-.202-.998-.494-1.333-.875a3.428 3.428 0 0 1-.721-1.36 6.548 6.548 0 0 1-.22-1.762v-5.104h-1.957V40.19h1.932v-3.184h3.938v3.184h2.862v2.99h-2.862zM170 50.153c0 .68-.241 1.247-.722 1.7a2.424 2.424 0 0 1-1.724.681 2.577 2.577 0 0 1-1.761-.68 2.312 2.312 0 0 1-.538-.741 2.218 2.218 0 0 1-.196-.936c0-.324.066-.632.196-.923.13-.292.31-.547.538-.766.228-.219.493-.393.795-.522.302-.13.624-.195.966-.195.669 0 1.243.227 1.724.68.481.454.722 1.021.722 1.702z" fill="#2C3647"/></svg>