<svg width="70" height="71" viewBox="0 0 70 71" fill="none" xmlns="http://www.w3.org/2000/svg"><g clip-path="url(#a)"><path fill="#fff" d="M0 .5h70v70H0z"/><path d="M54.977 52.47l-.002.004-.01.013-.002.002a1.008 1.008 0 0 1-.063.07L44.594 62.865l-.002.002-.008.008-.002.001a.911.911 0 0 1-.06.055h-.001a.361.361 0 0 1-.016.012l-.004.003 10.476-10.475zm0 0a.938.938 0 0 0 .042-.056l-.042.057zm.02-.355v-.004l.002-.005a.8.8 0 0 0 .017-.068l-.046.152.002-.008a.835.835 0 0 0 .024-.067zm0 0l.142.046v-.002h.001l-.144-.044zm-10.85 10.85l.044.143-.01.003h-.002a.847.847 0 0 1-.08.02h-.002a.332.332 0 0 1-.017.003h-.005a.96.96 0 0 1-.166.015H16.783a.964.964 0 0 1-.964-.963V12.814c0-.533.432-.964.964-.964h37.436c.532 0 .964.431.964.964v39.064a.951.951 0 0 1-.005.096L44.5 62.947l-.092-.118a.798.798 0 0 1-.046.033m-.215.103a.773.773 0 0 0 .066-.024l.005-.002.004-.001a.818.818 0 0 0 .072-.034m-.147.06l-.005.002-.004.001.009-.002zm.147-.06l.07.132h.001a.956.956 0 0 0 .06-.036l.001-.001.004-.002.016-.01-.084-.125m-.068.042a.52.52 0 0 0 .052-.032m-.052.032l.052-.032m.016-.01l-.016.01m.016-.01l-.016.01m10.558-10.318h.001zm.171-.237zm-37.33-38.54h35.51v37.137h-9.346a.964.964 0 0 0-.963.964v9.344h-25.2V13.778zm27.128 39.065h7.018l-7.018 7.017v-7.017z" fill="#369CB7" stroke="#369CB7" stroke-width=".3"/><path d="M32.105 22.459h15.603a.964.964 0 1 0 0-1.928H32.105a.964.964 0 0 0 0 1.928zm-1.62-2.453a.964.964 0 0 0-1.363-1.363l-3.66 3.659-.945-.946a.964.964 0 0 0-1.363 1.363l1.627 1.627a.96.96 0 0 0 1.363 0l4.34-4.34zm-.561 9.084c0 .533.432.964.964.964h16.82a.964.964 0 1 0 0-1.927h-16.82a.964.964 0 0 0-.964.963zm-2.291-3.134h-4.34a.964.964 0 0 0-.965.964v4.34c0 .533.432.964.964.964h4.34a.964.964 0 0 0 .965-.963v-4.34a.964.964 0 0 0-.964-.965zm-.964 4.34h-2.413v-2.412h2.413v2.413zm21.038 5.426H30.888a.964.964 0 0 0 0 1.928h16.82a.964.964 0 1 0 0-1.928zm-20.074-2.17h-4.34a.964.964 0 0 0-.965.964v4.34c0 .533.432.964.964.964h4.34a.964.964 0 0 0 .965-.964v-4.34a.964.964 0 0 0-.964-.964zm-.964 4.34h-2.413V35.48h2.413v2.413zm21.038 5.426H30.888a.964.964 0 1 0 0 1.928h16.82a.964.964 0 1 0 0-1.928zm-20.074-2.17h-4.34a.964.964 0 0 0-.965.964v4.34c0 .533.432.964.964.964h4.34a.964.964 0 0 0 .965-.964v-4.34a.964.964 0 0 0-.964-.964zm-.964 4.34h-2.413v-2.413h2.413v2.413zm13.985 5.426h-9.766a.964.964 0 0 0 0 1.928h9.766a.964.964 0 1 0 0-1.928zm-13.021-2.17h-4.34a.964.964 0 0 0-.965.963v4.34c0 .533.432.965.964.965h4.34a.964.964 0 0 0 .965-.964v-4.34a.964.964 0 0 0-.964-.964zm-.964 4.34h-2.413v-2.413h2.413v2.413z" fill="#369CB7" stroke="#369CB7" stroke-width=".3"/></g><defs><clipPath id="a"><path fill="#fff" transform="translate(0 .5)" d="M0 0h70v70H0z"/></clipPath></defs></svg>