<svg width="24" height="24" viewBox="0 0 24 24" fill="none" xmlns="http://www.w3.org/2000/svg"><rect y="4" width="24" height="17" rx="2" fill="#fff"/><mask id="a" style="mask-type:luminance" maskUnits="userSpaceOnUse" x="0" y="4" width="24" height="17"><rect y="4" width="24" height="17" rx="2" fill="#fff"/></mask><g mask="url(#a)"><path fill-rule="evenodd" clip-rule="evenodd" d="M24 4H0v1.133h24V4zm0 2.267H0V7.4h24V6.267zM0 8.533h24v1.134H0V8.533zM24 10.8H0v1.133h24V10.8zM0 13.067h24V14.2H0v-1.133zm24 2.266H0v1.134h24v-1.134zM0 17.6h24v1.133H0V17.6zm24 2.267H0V21h24v-1.133z" fill="#D02F44"/><path fill="#46467F" d="M0 4h10.286v7.933H0z"/><path fill-rule="evenodd" clip-rule="evenodd" d="M2.285 5.7a.57.57 0 0 1-.571.566.57.57 0 0 1-.571-.567.57.57 0 0 1 .571-.566.57.57 0 0 1 .571.566zm2.286 0A.57.57 0 0 1 4 6.265a.57.57 0 0 1-.572-.567A.57.57 0 0 1 4 5.133a.57.57 0 0 1 .571.566zm1.714.566a.57.57 0 0 0 .572-.567.57.57 0 0 0-.572-.566.57.57 0 0 0-.571.566.57.57 0 0 0 .571.567zM9.143 5.7a.57.57 0 0 1-.572.567A.57.57 0 0 1 8 5.7a.57.57 0 0 1 .571-.566.57.57 0 0 1 .572.566zM2.857 7.4a.57.57 0 0 0 .571-.566.57.57 0 0 0-.571-.567.57.57 0 0 0-.572.567.57.57 0 0 0 .572.566zm2.857-.566a.57.57 0 0 1-.571.566.57.57 0 0 1-.572-.566.57.57 0 0 1 .572-.567.57.57 0 0 1 .571.567zm1.714.566A.57.57 0 0 0 8 6.833a.57.57 0 0 0-.572-.567.57.57 0 0 0-.571.567.57.57 0 0 0 .571.566zm1.715.567a.57.57 0 0 1-.572.567A.57.57 0 0 1 8 7.966a.57.57 0 0 1 .57-.566.57.57 0 0 1 .572.567zm-2.858.567a.57.57 0 0 0 .572-.567.57.57 0 0 0-.572-.567.57.57 0 0 0-.571.567.57.57 0 0 0 .571.567zm-1.714-.567A.57.57 0 0 1 4 8.533a.57.57 0 0 1-.572-.567A.57.57 0 0 1 4 7.4a.57.57 0 0 1 .571.567zm-2.857.567a.57.57 0 0 0 .571-.567.57.57 0 0 0-.571-.567.57.57 0 0 0-.571.567.57.57 0 0 0 .571.567zm1.714.566a.57.57 0 0 1-.571.567.57.57 0 0 1-.572-.567.57.57 0 0 1 .572-.566.57.57 0 0 1 .571.566zm1.715.567a.57.57 0 0 0 .571-.567.57.57 0 0 0-.571-.566.57.57 0 0 0-.572.566.57.57 0 0 0 .572.567zM8 9.1a.57.57 0 0 1-.572.567.57.57 0 0 1-.571-.567.57.57 0 0 1 .571-.566A.57.57 0 0 1 8 9.1zm.571 1.7a.57.57 0 0 0 .572-.566.57.57 0 0 0-.572-.567.57.57 0 0 0-.571.567.57.57 0 0 0 .571.566zm-1.714-.566a.57.57 0 0 1-.572.566.57.57 0 0 1-.571-.566.57.57 0 0 1 .571-.567.57.57 0 0 1 .572.567zM4 10.799a.57.57 0 0 0 .571-.566A.57.57 0 0 0 4 9.666a.57.57 0 0 0-.572.567.57.57 0 0 0 .572.566zm-1.715-.566a.57.57 0 0 1-.571.566.57.57 0 0 1-.571-.566.57.57 0 0 1 .571-.567.57.57 0 0 1 .571.567z" fill="url(#b)" filter="url(#c)"/></g><defs><filter id="c" x="1.143" y="5.133" width="8" height="6.664" filterUnits="userSpaceOnUse" color-interpolation-filters="sRGB"><feFlood flood-opacity="0" result="BackgroundImageFix"/><feColorMatrix in="SourceAlpha" values="0 0 0 0 0 0 0 0 0 0 0 0 0 0 0 0 0 0 127 0" result="hardAlpha"/><feOffset dy="1"/><feColorMatrix values="0 0 0 0 0 0 0 0 0 0 0 0 0 0 0 0 0 0 0.06 0"/><feBlend in2="BackgroundImageFix" result="effect1_dropShadow_2408_22602"/><feBlend in="SourceGraphic" in2="effect1_dropShadow_2408_22602" result="shape"/></filter><linearGradient id="b" x1="1.143" y1="5.133" x2="1.143" y2="10.8" gradientUnits="userSpaceOnUse"><stop stop-color="#fff"/><stop offset="1" stop-color="#F0F0F0"/></linearGradient></defs></svg>