<svg width="30" height="30" viewBox="0 0 30 30" fill="none" xmlns="http://www.w3.org/2000/svg"><path d="M12.954 17.974L18.181 15l-5.227-2.974v5.948z" fill="#fff"/><path d="M15 0C6.716 0 0 6.716 0 15c0 8.284 6.716 15 15 15 8.284 0 15-6.716 15-15 0-8.284-6.716-15-15-15zm9.582 19.845a2.512 2.512 0 0 1-1.768 1.78c-1.56.42-7.814.42-7.814.42s-6.254 0-7.814-.42a2.513 2.513 0 0 1-1.768-1.78C5 18.275 5 15 5 15s0-3.275.418-4.845a2.513 2.513 0 0 1 1.768-1.78c1.56-.42 7.814-.42 7.814-.42s6.254 0 7.814.42a2.513 2.513 0 0 1 1.768 1.78C25 11.725 25 15 25 15s0 3.275-.418 4.845z" fill="#fff"/></svg>