<svg width="30" height="30" viewBox="0 0 30 30" fill="none" xmlns="http://www.w3.org/2000/svg"><path fill-rule="evenodd" clip-rule="evenodd" d="M0 15C0 6.716 6.716 0 15 0c8.284 0 15 6.716 15 15 0 8.284-6.716 15-15 15-8.284 0-15-6.716-15-15zm12.513 5.478l.248-3.49 6.392-5.739c.278-.246-.06-.383-.432-.136l-7.902 4.944L7.417 15c-.74-.23-.754-.736.154-1.088l13.307-5.095c.616-.229 1.155.137.954 1.072l-2.264 10.608c-.171.749-.617.934-1.25.582l-3.448-2.526-1.664 1.59c-.185.184-.338.336-.693.336z" fill="#fff"/></svg>