<svg width="32" height="32" viewBox="0 0 32 32" fill="none" xmlns="http://www.w3.org/2000/svg"><path opacity=".3" fill-rule="evenodd" clip-rule="evenodd" d="M11.988 5.196c.761-1.456 2.504-2.546 4.468-2.546s3.708 1.088 4.468 2.546c1.568-.492 3.57-.03 4.96 1.36 1.39 1.39 1.852 3.39 1.36 4.96 1.456.761 2.545 2.504 2.545 4.468s-1.088 3.706-2.545 4.468c.492 1.568.03 3.57-1.36 4.96-1.39 1.39-3.39 1.852-4.96 1.36-.761 1.456-2.504 2.545-4.468 2.545s-3.707-1.088-4.468-2.545c-1.568.492-3.57.03-4.96-1.36-1.39-1.39-1.852-3.392-1.36-4.96-1.456-.762-2.545-2.504-2.545-4.468s1.088-3.708 2.545-4.468c-.492-1.568-.03-3.57 1.36-4.96 1.39-1.39 3.392-1.85 4.96-1.36z" fill="#F28713"/><path fill-rule="evenodd" clip-rule="evenodd" d="M11.999 22.666a1.33 1.33 0 0 1-1.065-2.132l8-10.667a1.332 1.332 0 1 1 2.131 1.599l-8 10.667c-.26.349-.66.533-1.066.533z" fill="#F28713"/><path d="M20.667 21.334a2 2 0 1 0 0-4 2 2 0 0 0 0 4zm-9.334-6.668a2 2 0 1 0 0-4 2 2 0 0 0 0 4z" fill="#F28713"/></svg>