<svg width="40" height="40" viewBox="0 0 40 40" fill="none" xmlns="http://www.w3.org/2000/svg"><path opacity=".35" fill-rule="evenodd" clip-rule="evenodd" d="M14.985 6.494c.952-1.82 3.13-3.181 5.585-3.181s4.635 1.36 5.585 3.181c1.96-.615 4.462-.037 6.2 1.7 1.737 1.737 2.315 4.238 1.7 6.2 1.82.952 3.182 3.13 3.182 5.585s-1.36 4.634-3.182 5.585c.615 1.96.037 4.462-1.7 6.2-1.737 1.737-4.238 2.315-6.2 1.7-.952 1.82-3.13 3.182-5.585 3.182s-4.633-1.36-5.585-3.182c-1.96.615-4.463.037-6.2-1.7-1.737-1.736-2.315-4.24-1.7-6.2-1.82-.951-3.182-3.13-3.182-5.585s1.36-4.635 3.182-5.585c-.615-1.96-.037-4.462 1.7-6.2 1.737-1.737 4.24-2.313 6.2-1.7z" fill="#F28713"/><path fill-rule="evenodd" clip-rule="evenodd" d="M14.999 28.333a1.664 1.664 0 0 1-1.332-2.665l10-13.333a1.665 1.665 0 1 1 2.665 1.998l-10 13.333a1.656 1.656 0 0 1-1.333.667z" fill="#F28713"/><path d="M25.833 26.666a2.5 2.5 0 1 0 0-5 2.5 2.5 0 0 0 0 5zm-11.666-8.332a2.5 2.5 0 1 0 0-5 2.5 2.5 0 0 0 0 5z" fill="#F28713"/></svg>