<svg width="46" height="46" viewBox="0 0 46 46" fill="none" xmlns="http://www.w3.org/2000/svg"><path d="M37.08 30.383v-4.789l-2.02.787-.006-.014-.049-.087a5.201 5.201 0 0 0-3.437-2.3l-4.862-.885v-.384a7.423 7.423 0 0 0 3.565-4.987 2.969 2.969 0 0 0 2.363-2.903v-7.32a4.647 4.647 0 0 0-3.32-4.458l-.37-.37A9.064 9.064 0 0 0 22.49 0c-5.03 0-9.124 4.093-9.124 9.125v5.696a2.969 2.969 0 0 0 2.363 2.903 7.425 7.425 0 0 0 3.565 4.987v.384l-4.862.884a5.204 5.204 0 0 0-3.435 2.298l-.045.108-2.033-.79v4.788a2.226 2.226 0 0 0-2.223 2.223v2.964c0 1.226.998 2.224 2.223 2.224v2.73L23 46l14.08-5.476v-2.73a2.226 2.226 0 0 0 2.224-2.224v-2.964a2.226 2.226 0 0 0-2.224-2.223zm-8.986-5.529l3.21.583a3.712 3.712 0 0 1 2.339 1.494l-7.17 2.788 1.621-4.865zm-7.254-1.463a7.38 7.38 0 0 0 4.32 0L23 25.01l-2.16-1.62zm1.032 2.626l-1.512 1.512-.981-2.943.472-.085 2.021 1.516zM26.15 24.5l.472.086-.981 2.942-1.513-1.511L26.15 24.5zm4.26-8.404v-2.552c.442.257.742.73.742 1.276s-.3 1.019-.741 1.276zm-14.82 0a1.477 1.477 0 0 1-.741-1.276c0-.546.3-1.019.74-1.276v2.552zm0-4.981v.846a2.945 2.945 0 0 0-.741.307V9.125c0-4.214 3.428-7.643 7.642-7.643 2.041 0 3.961.795 5.405 2.239l.653.654.2.05a3.167 3.167 0 0 1 2.403 3.077v4.767a2.914 2.914 0 0 0-.741-.307v-.846h-2.35a6.446 6.446 0 0 1-5.132-2.565l-.589-.787-1.472 1.473a6.376 6.376 0 0 1-4.537 1.879h-.741zm1.482 5.187v-3.74a7.844 7.844 0 0 0 4.844-2.278l.288-.288a7.938 7.938 0 0 0 5.857 2.6h.868v3.706A5.935 5.935 0 0 1 23 22.231a5.935 5.935 0 0 1-5.928-5.928zm-2.374 9.134l3.208-.583 1.622 4.865-7.171-2.789a3.712 3.712 0 0 1 2.34-1.493zM8.179 35.57v-2.964c0-.409.333-.74.741-.74 1.226 0 2.224.997 2.224 2.222a2.226 2.226 0 0 1-2.224 2.224.742.742 0 0 1-.74-.742zm14.08 8.55l-11.857-4.61v-2.03a3.707 3.707 0 0 0 2.224-3.392 3.707 3.707 0 0 0-2.223-3.39V27.76l11.856 4.611V44.12zm-2.2-14.193L23 26.985l2.942 2.94L23 31.07l-2.94-1.143zM35.6 39.51l-11.86 4.61V32.372l11.857-4.61v2.935a3.707 3.707 0 0 0-2.223 3.391c0 1.516.917 2.818 2.223 3.391v2.03zm2.222-3.94c0 .41-.332.742-.74.742a2.226 2.226 0 0 1-2.224-2.224c0-1.225.998-2.223 2.223-2.223.409 0 .741.332.741.741v2.964z" fill="#3F3F3F"/></svg>