<svg width="70" height="70" viewBox="0 0 70 70" fill="none" xmlns="http://www.w3.org/2000/svg"><path d="M50.772 35.42V24.09a3.289 3.289 0 0 0-3.277-3.293H46.2v-.976a2.558 2.558 0 0 0-2.549-2.561h-.11a2.558 2.558 0 0 0-2.549 2.561v.976h-11.33v-.976a2.558 2.558 0 0 0-2.548-2.561h-.11a2.558 2.558 0 0 0-2.55 2.561v.976H23.16a3.289 3.289 0 0 0-3.277 3.293v22.313a3.289 3.289 0 0 0 3.277 3.294h14.72a10.15 10.15 0 0 0 10.938 5.164c4.379-.88 7.674-4.528 8.123-8.994.448-4.466-2.054-8.703-6.17-10.446zM43.54 18.228h.11a1.592 1.592 0 0 1 1.586 1.593v1.856a1.591 1.591 0 0 1-1.586 1.594h-.11a1.592 1.592 0 0 1-1.586-1.594v-1.855c0-.88.71-1.593 1.586-1.594zm-16.538 0h.111A1.591 1.591 0 0 1 28.7 19.82v1.856c0 .88-.71 1.593-1.585 1.594h-.11a1.592 1.592 0 0 1-1.586-1.594V19.82c0-.88.71-1.592 1.585-1.593zm-3.843 3.536h1.297a2.557 2.557 0 0 0 2.546 2.475h.111a2.557 2.557 0 0 0 2.546-2.475h11.334a2.557 2.557 0 0 0 2.547 2.475h.11a2.557 2.557 0 0 0 2.546-2.475h1.298a2.323 2.323 0 0 1 2.314 2.326v4.886H20.846V24.09a2.323 2.323 0 0 1 2.314-2.326zm0 26.965a2.323 2.323 0 0 1-2.314-2.326v-16.46h28.963v5.127a10.133 10.133 0 0 0-10.499 2.884 10.26 10.26 0 0 0-1.888 10.775H23.16zm23.711 5.155a9.021 9.021 0 0 1-8.027-4.938.473.473 0 0 0-.054-.109 9.096 9.096 0 0 1 2.023-10.727 8.98 8.98 0 0 1 10.817-.987 9.084 9.084 0 0 1 3.912 10.185c-1.105 3.892-4.644 6.576-8.67 6.575z" fill="#647AA1" stroke="#647AA1" stroke-width=".6"/><path fill-rule="evenodd" clip-rule="evenodd" d="M47.897 44.238V40.47a.788.788 0 0 0-1.574 0v3.768h-3.816a.788.788 0 0 0-.794.777c0 .432.355.777.794.777h3.816v3.768a.788.788 0 0 0 1.574 0v-3.768h3.817a.788.788 0 0 0 .794-.777.784.784 0 0 0-.794-.777h-3.817z" fill="#647AA1"/><path clip-rule="evenodd" d="M47.518 44.238v.38h4.196c.232 0 .414.177.414.397a.409.409 0 0 1-.414.398h-4.197v4.147c0 .225-.18.405-.407.405a.409.409 0 0 1-.408-.405v-4.147h-4.196a.405.405 0 0 1-.414-.398.41.41 0 0 1 .414-.398h4.196V40.47a.409.409 0 0 1 .816 0v3.768z" stroke="#647AA1" stroke-width=".65"/><path d="M35.109 69.542C15.877 69.542.287 54.216.287 35.31c0-18.905 15.59-34.23 34.823-34.23 19.232 0 34.822 15.326 34.822 34.231 0 18.906-15.59 34.232-34.822 34.232zm0-1.697c18.278 0 33.095-14.566 33.095-32.535 0-17.968-14.817-32.534-33.095-32.534S2.014 17.342 2.014 35.31c0 17.968 14.817 32.535 33.095 32.535z" fill="#647AA1"/></svg>