<svg width="61" height="63" viewBox="0 0 61 63" fill="none" xmlns="http://www.w3.org/2000/svg"><g clip-path="url(#a)" fill="#fff"><path d="M13.939 15.821a5.429 5.429 0 0 1-5.418-5.417C8.521 7.422 10.956 5 13.94 5a5.408 5.408 0 0 1 5.404 5.404c0 2.983-2.422 5.417-5.404 5.417zm0-8.995a3.587 3.587 0 0 0-3.591 3.578 3.585 3.585 0 0 0 3.578 3.579 3.585 3.585 0 0 0 3.58-3.579 3.574 3.574 0 0 0-3.567-3.578zM18.734 63h-.024a.912.912 0 0 1-.889-.937l.889-36.82a.912.912 0 1 1 1.826.048l-.889 36.82a.907.907 0 0 1-.913.89zm-4.552 0a.92.92 0 0 1-.913-.913v-23.43c0-.5.414-.914.913-.914.5 0 .913.414.913.913v23.431a.904.904 0 0 1-.913.913z"/><path d="M23.36 39.666a.926.926 0 0 1-.864-.62l-3.786-11.2a.917.917 0 0 1 .572-1.156.917.917 0 0 1 1.157.572l3.786 11.199a.917.917 0 0 1-.865 1.205z"/><path d="M26.221 38.437a.91.91 0 0 1-.889-.694L22.18 24.658c-.28-.828-.536-1.668-.792-2.483-.097-.33-.194-.658-.304-.974a4.438 4.438 0 0 0-3.128-2.982l-1.57-.402a.912.912 0 0 1-.658-1.108.912.912 0 0 1 1.108-.657l1.57.402a6.207 6.207 0 0 1 4.407 4.2c.097.328.207.656.304.985.256.816.511 1.655.779 2.47.012.025.012.05.024.074l3.165 13.134a.902.902 0 0 1-.864 1.12zM9.434 63c-.5 0-.9-.39-.913-.888L7.632 25.29a.92.92 0 0 1 .889-.937.92.92 0 0 1 .937.888l.889 36.833a.92.92 0 0 1-.889.937c0-.012-.012-.012-.024-.012z"/><path d="M2.824 40.043c-.34 0-.633-.06-.864-.134-.511-.17-.828-.438-.962-.547a2.911 2.911 0 0 1-.913-2.922c0-.024.012-.036.012-.06l4.164-12.282c.28-.816.535-1.656.779-2.471.097-.329.207-.657.304-.986a6.229 6.229 0 0 1 4.407-4.2l1.57-.413a.912.912 0 0 1 1.108.657.912.912 0 0 1-.657 1.108l-1.57.401a4.415 4.415 0 0 0-3.13 2.982c-.097.329-.206.658-.304.974-.255.828-.51 1.68-.803 2.52L1.826 36.903c-.085.39.049.803.353 1.059a.134.134 0 0 1 .06.06c.098.086.524.378 1.28-.024.12-.06.243-.243.328-.462l3.87-10.298a.924.924 0 0 1 1.182-.535.924.924 0 0 1 .535 1.18l-3.87 10.31c-.256.67-.67 1.156-1.194 1.436-.572.305-1.108.414-1.546.414zM47.44 18.267a5.185 5.185 0 0 1-5.174-5.173 5.185 5.185 0 0 1 5.173-5.173 5.185 5.185 0 0 1 5.174 5.173 5.177 5.177 0 0 1-5.174 5.173zm0-8.532a3.346 3.346 0 0 0-3.348 3.347 3.346 3.346 0 0 0 3.347 3.347 3.346 3.346 0 0 0 3.348-3.347 3.353 3.353 0 0 0-3.348-3.347zM51.213 63h-.037a.905.905 0 0 1-.876-.95l.329-9.615a.912.912 0 0 1 .913-.877h5.344l-5.978-20.035a.936.936 0 0 1-.036-.365l.487-4.407a.915.915 0 0 1 1.01-.803c.5.06.865.511.804 1.01l-.463 4.224 6.27 21.033a.903.903 0 0 1-.147.804.9.9 0 0 1-.73.365h-5.685l-.304 8.727c0 .5-.402.889-.901.889zm-7.353 0c-.486 0-.9-.39-.913-.877l-.304-8.727h-5.685a.9.9 0 0 1-.73-.365.91.91 0 0 1-.146-.803l6.281-21.046-.462-4.224a.914.914 0 0 1 .803-1.01.914.914 0 0 1 1.01.803l.487 4.407a.936.936 0 0 1-.036.365l-5.977 20.035h5.344c.487 0 .9.39.913.877l.328 9.615a.929.929 0 0 1-.876.95h-.037zm3.822 0a.92.92 0 0 1-.913-.913v-9.616c0-.499.414-.912.913-.912.5 0 .913.413.913.913v9.615a.912.912 0 0 1-.913.913z"/><path d="M58.212 41.249a2.781 2.781 0 0 1-2.605-1.802c0-.012-.012-.024-.012-.024l-4.188-12.27a.917.917 0 0 1 .572-1.156.917.917 0 0 1 1.157.573l4.175 12.245a.953.953 0 0 0 1.181.56.942.942 0 0 0 .645-1.133l-4.784-14.168a3.221 3.221 0 0 1-.036-.158 4.18 4.18 0 0 0-3.068-3.396l-1.485-.39a.912.912 0 0 1-.658-1.107.912.912 0 0 1 1.108-.657l1.485.389a6.005 6.005 0 0 1 4.407 4.796l4.772 14.132a.11.11 0 0 1 .012.06 2.774 2.774 0 0 1-1.862 3.36 2.303 2.303 0 0 1-.816.146zM39.38 38.924a1.03 1.03 0 0 1-.268-.036.914.914 0 0 1-.609-1.145l3.421-11.15a.914.914 0 0 1 1.144-.608.914.914 0 0 1 .609 1.144l-3.42 11.15a.92.92 0 0 1-.877.645z"/><path d="M36.105 38.328a.92.92 0 0 1-.877-1.169l3.836-13.584a5.984 5.984 0 0 1 4.406-4.82l1.485-.39a.912.912 0 0 1 1.108.658.912.912 0 0 1-.657 1.107l-1.485.39a4.164 4.164 0 0 0-3.068 3.396c0 .037-.012.073-.024.11l-3.847 13.632a.91.91 0 0 1-.877.67zm19.162-26.195a5.206 5.206 0 0 1-2.009-.414 2.41 2.41 0 0 0-.536-.158c-.79-.122-1.156-.049-1.23-.012a.885.885 0 0 1-.9-.025.923.923 0 0 1-.438-.79c.012-1.157.718-3.446 3.238-3.835 1.51-.231 2.374.329 3.007.73.73.475 1.217.78 2.97.037a.926.926 0 0 1 1.059.255c.256.305.28.743.073 1.084-.816 1.241-2.751 3.128-5.234 3.128zM52.26 9.674c.231.012.474.037.742.085a4.1 4.1 0 0 1 .962.28c1.144.475 2.167.268 2.983-.17-.585-.122-1.06-.39-1.534-.706-.548-.353-.913-.584-1.741-.463-.755.11-1.18.536-1.412.974zM31.407 46.568a4.322 4.322 0 0 1 0-8.642 4.322 4.322 0 0 1 0 8.642zm0-6.816a2.499 2.499 0 0 0-2.495 2.495 2.499 2.499 0 0 0 2.495 2.495 2.499 2.499 0 0 0 2.496-2.495 2.499 2.499 0 0 0-2.496-2.495z"/><path d="M34.706 63h-.012c-.499-.012-.913-.426-.9-.925l.182-13.183c0-.121.024-.23.073-.34l4.346-10.213a.756.756 0 0 0 0-.608.755.755 0 0 0-.438-.426.78.78 0 0 0-.597.012.75.75 0 0 0-.414.426l-1.4 3.578a.912.912 0 1 1-1.704-.657l1.4-3.578a2.59 2.59 0 0 1 1.388-1.437 2.581 2.581 0 0 1 1.996-.036 2.561 2.561 0 0 1 1.449 1.424c.28.657.268 1.375 0 2.033L35.79 49.124l-.183 13a.894.894 0 0 1-.9.876zm-3.603 0a.92.92 0 0 1-.913-.913V54.31c0-.499.414-.912.913-.912.499 0 .913.413.913.912v7.778a.912.912 0 0 1-.913.913zm-3.615 0a.912.912 0 0 1-.913-.913l-.073-13.012-3.981-9.993a2.465 2.465 0 0 1 1.656-3.299 2.478 2.478 0 0 1 2.884 1.352l1.766 3.81a.922.922 0 0 1-.45 1.217.922.922 0 0 1-1.218-.45l-1.765-3.81a.636.636 0 0 0-.755-.354.64.64 0 0 0-.414.341.635.635 0 0 0-.024.536l4.053 10.151c.037.11.061.22.061.329l.073 13.182a.901.901 0 0 1-.9.913z"/></g><defs><clipPath id="a"><path fill="#fff" d="M0 0h61v63H0z"/></clipPath></defs></svg>