<svg width="24" height="24" viewBox="0 0 24 24" fill="none" xmlns="http://www.w3.org/2000/svg"><g clip-path="url(#a)"><path d="M19.721 6.23a9.358 9.358 0 0 0-7.387-3.605 9.366 9.366 0 0 0-9.373 9.36c-.007 5.185 4.19 9.39 9.373 9.39a9.347 9.347 0 0 0 7.27-3.46.19.19 0 0 0-.03-.267l-1.184-.923a.188.188 0 0 0-.26.028 7.47 7.47 0 0 1-2.88 2.156 7.378 7.378 0 0 1-2.916.591 7.467 7.467 0 0 1-5.302-2.196A7.468 7.468 0 0 1 4.836 12a7.468 7.468 0 0 1 2.196-5.302 7.468 7.468 0 0 1 5.302-2.196 7.468 7.468 0 0 1 5.302 2.196c.217.218.421.448.609.687l-1.221.954a.187.187 0 0 0 .07.33l3.802.929a.188.188 0 0 0 .232-.18l.018-3.915a.186.186 0 0 0-.302-.148l-1.123.875z" fill="#369CB7"/></g><defs><clipPath id="a"><path fill="#fff" d="M0 0h24v24H0z"/></clipPath></defs></svg>