<svg width="28" height="40" viewBox="0 0 28 40" fill="none" xmlns="http://www.w3.org/2000/svg"><path d="M9.705 38.81h-4.15c-1.213-.005-2.374-.458-3.228-1.259-.854-.8-1.33-1.883-1.326-3.01V20.025a.466.466 0 0 1 0-.071V16.86c0-.39 2.197-2.498 5.34-5.13l.18.212c.091.12.193.232.304.337.961.828 1.99 1.587 3.078 2.267.136.654.47 1.26.961 1.744a3.86 3.86 0 0 0 1.817.997 4.069 4.069 0 0 0 2.108-.059 3.815 3.815 0 0 0 1.748-1.097c.46-.512.753-1.134.847-1.795a3.3 3.3 0 0 0-.318-1.937 3.613 3.613 0 0 0-1.382-1.48 4.003 4.003 0 0 0-2.02-.564c-.228 0-.455.02-.68.056a23.918 23.918 0 0 1-2.318-1.676 1.49 1.49 0 0 1-.145-.16c-.027-.031-.054-.066-.08-.095.45-.354.8-.602 1.102-.818h.02c1.044-.758 1.567-1.141 2.097-1.141s1.026.354 2.124 1.155c3.627 2.647 10.48 7.972 10.477 9.17v17.715c.005 1.127-.471 2.209-1.324 3.01-.853.8-2.014 1.253-3.226 1.26h-3.814l-2.288-7.745a4.116 4.116 0 0 0 2-1.838 3.694 3.694 0 0 0 .328-2.595 3.92 3.92 0 0 0-1.491-2.217 4.457 4.457 0 0 0-2.655-.865c-.965 0-1.9.305-2.654.865a3.92 3.92 0 0 0-1.491 2.216 3.695 3.695 0 0 0 .327 2.596 4.116 4.116 0 0 0 2.001 1.838l-2.27 7.724z" fill="#FFCB3D" stroke="#272727" stroke-width="1.5"/><path d="M13.35 15.033c-.261 0-.517-.072-.736-.206-.362-.226-3.577-2.225-4.778-3.344C4.784 8.648 4.704 4.13 7.645 1.399 8.75.37 10.696-.621 13.652.485c1.598.595 3.318 1.743 5.11 3.408 1.232 1.145 2.384 1.694 3.338 1.602a2.58 2.58 0 0 0 1.659-.943c.095-.136.218-.255.362-.347a1.435 1.435 0 0 1 1.483-.021c.148.088.275.203.375.337a1.177 1.177 0 0 1 .214.928 1.19 1.19 0 0 1-.192.45 5.022 5.022 0 0 1-1.57 1.392 5.428 5.428 0 0 1-2.05.67c-1.803.18-3.66-.599-5.506-2.314-1.526-1.417-2.975-2.399-4.219-2.863-1.739-.659-2.574-.141-3.123.369-1.907 1.771-1.816 4.716.19 6.576.862.8 3.433 2.462 4.371 3.033.238.148.42.363.516.614.096.25.103.523.02.778a1.247 1.247 0 0 1-.484.636c-.23.158-.509.243-.796.243z" fill="#272727"/></svg>