<svg width="84" height="15" viewBox="0 0 84 15" fill="none" xmlns="http://www.w3.org/2000/svg"><path d="M7.826 0l2.484 4.223 4.96.96-3.425 3.569.581 4.816-4.6-2.018-4.6 2.018.58-4.816-3.423-3.57 4.96-.959L7.825 0zM24.91 0l2.483 4.223 4.96.96-3.424 3.569.58 4.816-4.6-2.018-4.6 2.018.581-4.816-3.424-3.57 4.96-.959L24.908 0zm17.083 0l2.484 4.223 4.959.96-3.424 3.569.58 4.816-4.6-2.018-4.6 2.018.582-4.816-3.424-3.57 4.959-.959L41.993 0zm17.083 0l2.484 4.223 4.96.96-3.425 3.569.581 4.816-4.6-2.018-4.6 2.018.58-4.816-3.423-3.57 4.96-.959L59.075 0z" fill="#369CB7"/><path d="M76.16 0l2.483 4.223 4.96.96-3.424 3.569.58 4.816-4.6-2.018-4.6 2.018.581-4.816-3.424-3.57 4.96-.959L76.158 0z" fill="#C4C4C4"/></svg>