<svg version="1" xmlns="http://www.w3.org/2000/svg" width="116" height="116" viewBox="0 0 87.000000 87.000000"><path d="M39.9 3.7c0 1-.1 10.2-.1 20.5 0 10.4-.3 18.8-.7 18.8-.3 0-.6-4.6-.6-10.3.1-5.6-.1-10.6-.3-11-.7-1.4-7 7.6-6.7 9.5.2 1 0 1.8-.6 1.8-.5 0-.9-.6-.9-1.3 0-.6-1.5.5-3.3 2.7l-3.2 3.8-.1 15.9c0 10.5.3 15.9 1 16 2.4.2-5.1 2.8-8.1 2.9-1.7 0-3.5.5-3.9 1.2-.5.8-.2.9.9.5 2.9-1.1 1.8.7-1.9 3C9.4 79 6.5 80 4.9 80c-1.6 0-2.9.4-2.9 1 0 .5.8 1 1.8 1 1.6.1 1.6.1 0 1.1-2 1.1-2.4 2.9-.7 2.9.6 0 2.4-.9 3.9-2 2.4-1.7 4-2 9.2-1.6 3.5.2 7.8.5 9.7.5 2.9.1 3.2.3 2.1 1.6-1 1.2-.9 1.5.7 1.5 1 0 2.5-.6 3.2-1.2.6-.7 2.9-1.3 4.9-1.3 2 0 3.8-.5 4-1 .2-1-.1-1.1-3.5-1.4-3.3-.3 3.8-5.1 7.5-5.1 2 0 3.1-.4 2.7-1-.4-.6-1.1-.7-1.7-.4-.7.4-.8.2-.4-.5.8-1.3 6.1-4.2 7.3-4 .4.1 1.7.1 2.8 0 1.4-.1 1.6-.4.7-.9-.9-.6-.5-1.2 1.3-2 1.5-.7 3.1-.9 3.7-.6.6.4 1.4.1 1.8-.5.4-.7 2.2-1.6 4.1-2.1 11.8-3.1 19-5.7 17-6.3-1.1-.3-2.1-.1-2.1.4s-.5.9-1.1.9c-.5 0-.7-.5-.3-1.2.5-.7.3-.8-.5-.4-.7.5-3.9 1-7.2 1.2-3.3.2-6.3.5-6.7.5-2.7.4-3-.6-3-11.9 0-19 .1-18.3-3.6-22.7l-3.5-4 .2 20.2c.2 16.5-.1 20.4-1.2 20.8-.8.3-1.6.3-1.9 0-.3-.3 0-.5.6-.5 1.8 0 1.7-41.4-.1-43.2-.7-.7-2.2-2.6-3.5-4.2L48 10.7v26.1c0 23.2-.2 26.1-1.6 26.6-1.3.5-1.4.3-.6-.6.6-.8 1-10.6 1-26.8V10.5l-2.6-3.8c-3.1-4.6-4.2-5.4-4.3-3zM31.5 37c.1 1.1-.2 2-.7 2-.4 0-.8-1.2-.8-2.7 0-3 1.3-2.4 1.5.7zm0 6c.1 1.1-.2 2-.7 2-.4 0-.8-1.2-.8-2.7 0-3 1.3-2.4 1.5.7zm8.5 3.5c0 1.4-.4 2.5-.8 2.5s-.8-1.1-.8-2.5.4-2.5.8-2.5.8 1.1.8 2.5zM31.5 49c.1 1.1-.2 2-.7 2-.4 0-.8-1.2-.8-2.7 0-3 1.3-2.4 1.5.7zm8.3 8.4c0 5.7-.4 7.6-1.6 8.1-1.1.4-1.2.2-.5-.7.5-.7.9-4.3.8-8.1 0-3.7.2-6.7.6-6.7.4 0 .7 3.3.7 7.4zM31.5 55c.1 1.1-.2 2-.7 2-.4 0-.8-1.2-.8-2.7 0-3 1.3-2.4 1.5.7zm.1 8.7c.2 3.1-.1 4.2-.7 3.2-1-1.6-1.3-9.6-.2-8.6.3.4.7 2.8.9 5.4zm45.7-4c-.7.2-2.1.2-3 0-1-.3-.4-.5 1.2-.5 1.7 0 2.4.2 1.8.5zm-7.4 1.4c-.8.5-3 .8-4.9.8-3.1-.1-3.2-.2-1-.8 3.6-1.1 7.6-1.1 5.9 0zm-8.2 2.5c-.2.3-2.6.7-5.3.9-4.6.5-5.3-.8-.9-1.7 2.2-.4 6.8.2 6.2.8zm-9.8 2.1c2.3.6 2.3.7.5 1.4-1 .4-4.6.8-7.9.8l-6-.1 4-1.3c4.8-1.5 6.2-1.7 9.4-.8zm-7.1 4.8c.2.2-1 1.1-2.7 2-3.4 1.7-14.4 1.9-13.8.2.6-1.8 6.9-3.4 11.7-2.9 2.5.2 4.7.6 4.8.7zm-8.9 5.4c.3.1-.6 1.2-1.9 2.6-2.2 2.3-2.9 2.5-8.9 2.1-3.7-.2-7.7-.5-9.1-.5-2.3-.1-2.2-.3 1.5-2.6 3.5-2.2 4.8-2.5 11-2.1 3.9.2 7.2.5 7.4.5z"/></svg>