<svg width="60" height="60" viewBox="0 0 60 60" fill="none" xmlns="http://www.w3.org/2000/svg"><path d="M0 30c0 16.57 13.43 30 30 30s30-13.43 30-30S46.57 0 30 0 0 13.43 0 30z" fill="#59678C"/><path d="M38.52 34.868l-4.061-.817a.933.933 0 0 1-.745-.915v-.937c.268-.373.518-.872.778-1.393.2-.393.498-.987.632-1.127.787-.775 1.627-1.736 1.883-2.989.232-1.135 0-1.724-.27-2.191 0-.913 0-2.583-.315-3.787-.032-1.455-.297-2.276-.964-3.008-.472-.511-1.166-.63-1.723-.726-.221-.037-.524-.09-.63-.147-.964-.536-1.942-.801-3.14-.831-2.452.093-5.46 1.656-6.467 4.465-.306.853-.277 2.253-.254 3.379l-.026.655c-.236.467-.468 1.056-.234 2.19.256 1.258 1.095 2.217 1.88 2.988.135.142.437.74.638 1.133.264.52.516 1.018.784 1.39v.936a.932.932 0 0 1-.747.915l-4.061.817c-2.595.521-4.478 2.83-4.478 5.49v1.775c0 1.029.834 1.867 1.857 1.867h22.286A1.865 1.865 0 0 0 43 42.133v-1.775c0-2.66-1.883-4.969-4.48-5.49z" fill="#fff"/></svg>