<svg width="128" height="128" viewBox="0 0 128 128" fill="none" xmlns="http://www.w3.org/2000/svg"><g clip-path="url(#a)"><path d="M74.8 90.85v-1.478c0-.406.187-.79.508-1.038a1.314 1.314 0 0 0 0-2.077 1.314 1.314 0 0 1-.509-1.038V83.74c0-.517.42-.936.936-.936a.936.936 0 0 0 .936-.936v-1.061a.936.936 0 0 0-.936-.936.936.936 0 0 1-.936-.936v-2.824c0-.517.42-.936.936-.936a.936.936 0 0 0 .936-.936v-4.77H66.088v24.095c0 .955.35 1.877.984 2.591l2.811 3.17a2 2 0 0 0 2.993 0l2.811-3.17a3.904 3.904 0 0 0 .984-2.59v-.844a.936.936 0 0 0-.936-.936.936.936 0 0 1-.936-.936z" fill="url(#b)"/><path d="M73.068 69.47v25.005a1.688 1.688 0 0 1-3.377 0V69.471h3.377z" fill="url(#c)"/><path d="M76.671 80.808a.936.936 0 0 0-.936-.936.936.936 0 0 1-.936-.936v-2.824c0-.517.42-.936.936-.936a.936.936 0 0 0 .936-.936v-4.77H66.088v2.497l10.424 10.424c.1-.149.16-.329.16-.522v-1.061z" fill="url(#d)"/><path d="M71.38 42.586c-8.434 0-15.27 6.837-15.27 15.27s6.836 15.27 15.27 15.27c8.433 0 15.27-6.837 15.27-15.27 0-8.434-6.837-15.27-15.27-15.27zm0 13.8a4.33 4.33 0 1 1-.002-8.659 4.33 4.33 0 0 1 .001 8.658z" fill="url(#e)"/><path d="M71.38 45.256c-6.96 0-12.6 5.641-12.6 12.6 0 6.96 5.64 12.601 12.6 12.601s12.6-5.641 12.6-12.6c0-6.96-5.64-12.601-12.6-12.601zm0 11.13a4.33 4.33 0 1 1-.001-8.658 4.33 4.33 0 0 1 .001 8.658z" fill="url(#f)"/><path d="M71.38 42.586c-8.434 0-15.27 6.837-15.27 15.27s6.836 15.27 15.27 15.27c8.433 0 15.27-6.837 15.27-15.27 0-8.434-6.837-15.27-15.27-15.27zm0 13.8a4.33 4.33 0 1 1-.002-8.659 4.33 4.33 0 0 1 .001 8.658z" fill="url(#g)"/><path d="M46.409 81.972l1.045-1.045a1.315 1.315 0 0 1 1.094-.374 1.314 1.314 0 0 0 1.468-1.468c-.05-.403.087-.807.375-1.094l1.044-1.045a.936.936 0 0 1 1.324 0 .936.936 0 0 0 1.323 0l.75-.75a.936.936 0 0 0 0-1.324.936.936 0 0 1 0-1.324l1.998-1.996a.936.936 0 0 1 1.323 0 .936.936 0 0 0 1.324 0l3.372-3.373-7.483-7.484-17.037 17.037a3.904 3.904 0 0 0-1.137 2.528l-.253 4.23a2 2 0 0 0 2.116 2.115l4.23-.253a3.904 3.904 0 0 0 2.527-1.136l.597-.597a.936.936 0 0 0 0-1.323.936.936 0 0 1 0-1.324z" fill="url(#h)"/><path d="M60.303 65.632l-17.68 17.68a1.688 1.688 0 1 1-2.388-2.387l17.68-17.68 2.388 2.387z" fill="url(#i)"/><path d="M78.118 45.427c-5.963-5.963-15.631-5.963-21.595 0-5.963 5.964-5.963 15.632 0 21.595 5.963 5.964 15.632 5.963 21.595 0 5.963-5.963 5.963-15.631 0-21.595zm-9.757 9.758a4.329 4.329 0 1 1 6.12-6.123 4.329 4.329 0 0 1-6.12 6.123z" fill="url(#j)"/><path d="M76.232 47.316c-4.921-4.921-12.9-4.921-17.82 0-4.922 4.921-4.922 12.899 0 17.82 4.92 4.921 12.899 4.921 17.82 0 4.92-4.921 4.92-12.9 0-17.82zm-7.87 7.87a4.329 4.329 0 1 1 6.12-6.123 4.329 4.329 0 0 1-6.12 6.123z" fill="url(#k)"/><path d="M74.123 55.508l10.298 10.298a15.198 15.198 0 0 0 2.23-7.948c0-2.028-.396-3.963-1.113-5.733-1.332 1.269-4.69 3.568-11.415 3.383z" fill="url(#l)"/><path d="M77.144 28c-7.536 0-13.694 6.023-13.912 13.51a15.327 15.327 0 0 1 6.212-.406c.408-3.888 3.705-6.93 7.7-6.93 4.271 0 7.744 3.475 7.744 7.745 0 3-1.715 5.607-4.214 6.893a7.695 7.695 0 0 1-3.53.852 7.716 7.716 0 0 1-2.48-.408h-.002a7.764 7.764 0 0 1-2.476-1.392 4.317 4.317 0 0 0-3.826 1.198 4.302 4.302 0 0 0-1.231 2.51 13.896 13.896 0 0 0 6.992 3.936 13.934 13.934 0 0 0 8.4-.75c5.013-2.108 8.542-7.069 8.542-12.839 0-7.675-6.244-13.919-13.92-13.919z" fill="url(#m)"/><path d="M87.855 41.919c0-5.913-4.793-10.706-10.706-10.706-5.596 0-10.186 4.294-10.663 9.766a15.319 15.319 0 0 1 2.96.125c.407-3.889 3.704-6.93 7.699-6.93 4.271 0 7.745 3.475 7.745 7.745 0 3-1.716 5.606-4.215 6.892a7.695 7.695 0 0 1-3.53.852 7.716 7.716 0 0 1-2.48-.407h-.002a7.764 7.764 0 0 1-2.476-1.393 4.319 4.319 0 0 0-3.356.794 10.684 10.684 0 0 0 8.318 3.968c5.913 0 10.706-4.793 10.706-10.706z" fill="url(#n)"/></g><circle opacity=".05" cx="64" cy="64" r="64" fill="#fff"/><defs><linearGradient id="b" x1="66.746" y1="84.735" x2="75.203" y2="84.735" gradientUnits="userSpaceOnUse"><stop stop-color="#FFDA2D"/><stop offset="1" stop-color="#FDBF00"/></linearGradient><linearGradient id="c" x1="74.898" y1="82.817" x2="69.546" y2="82.817" gradientUnits="userSpaceOnUse"><stop stop-color="#FFDA2D"/><stop offset="1" stop-color="#FDBF00"/></linearGradient><linearGradient id="d" x1="74.494" y1="78.553" x2="71.201" y2="70.269" gradientUnits="userSpaceOnUse"><stop stop-color="#FF9100" stop-opacity="0"/><stop offset="1" stop-color="#FF9100"/></linearGradient><linearGradient id="e" x1="64.513" y1="64.722" x2="95.397" y2="33.838" gradientUnits="userSpaceOnUse"><stop stop-color="#FFDA2D"/><stop offset="1" stop-color="#FDBF00"/></linearGradient><linearGradient id="f" x1="77.435" y1="51.801" x2="48.21" y2="81.027" gradientUnits="userSpaceOnUse"><stop stop-color="#FFDA2D"/><stop offset="1" stop-color="#FDBF00"/></linearGradient><linearGradient id="g" x1="82.886" y1="69.362" x2="72.53" y2="59.007" gradientUnits="userSpaceOnUse"><stop stop-color="#FF9100" stop-opacity="0"/><stop offset="1" stop-color="#FF9100"/></linearGradient><linearGradient id="h" x1="45.019" y1="71.966" x2="50.998" y2="77.946" gradientUnits="userSpaceOnUse"><stop stop-color="#FFDA2D"/><stop offset="1" stop-color="#FDBF00"/></linearGradient><linearGradient id="i" x1="52.139" y1="76.375" x2="48.355" y2="72.591" gradientUnits="userSpaceOnUse"><stop stop-color="#FFDA2D"/><stop offset="1" stop-color="#FDBF00"/></linearGradient><linearGradient id="j" x1="57.59" y1="56.24" x2="101.259" y2="56.24" gradientUnits="userSpaceOnUse"><stop stop-color="#FFDA2D"/><stop offset="1" stop-color="#FDBF00"/></linearGradient><linearGradient id="k" x1="75.861" y1="56.241" x2="34.536" y2="56.241" gradientUnits="userSpaceOnUse"><stop stop-color="#FFDA2D"/><stop offset="1" stop-color="#FDBF00"/></linearGradient><linearGradient id="l" x1="82.193" y1="61.012" x2="80.032" y2="54.375" gradientUnits="userSpaceOnUse"><stop stop-color="#FF9100" stop-opacity="0"/><stop offset="1" stop-color="#FF9100"/></linearGradient><linearGradient id="m" x1="63.232" y1="41.919" x2="91.063" y2="41.919" gradientUnits="userSpaceOnUse"><stop stop-color="#0B799D"/><stop offset="1" stop-color="#07485E"/></linearGradient><linearGradient id="n" x1="90.954" y1="55.723" x2="66.962" y2="31.731" gradientUnits="userSpaceOnUse"><stop stop-color="#0B799D"/><stop offset="1" stop-color="#07485E"/></linearGradient><clipPath id="a"><path fill="#fff" transform="translate(28 28)" d="M0 0h72v72H0z"/></clipPath></defs></svg>