<svg width="177" height="42" viewBox="0 0 177 42" fill="none" xmlns="http://www.w3.org/2000/svg"><path fill-rule="evenodd" clip-rule="evenodd" d="M41.338 7.799a.954.954 0 0 0-.505-.852L30.559 1.012a.937.937 0 0 0-.985 0L19.3 6.947a.985.985 0 0 0-.505.852v10.915l-10.833.024a.954.954 0 0 0-.852.506L1.201 29.517c-.16.293-.186.64-.026.959l.026.026c0 .014.007.02.014.027.006.007.013.013.013.026L7.19 40.83c.186.293.506.48.852.48l11.87-.027a.954.954 0 0 0 .852-.506l.024-.042a3.37 3.37 0 0 1-.029-.437v-3.525l-.873 1.529-4.818-8.304 4.764-8.331.955 1.642 2.538-2.756-1.576-.909 5.148-2.97.684-.743a3.351 3.351 0 0 1 2.499-1.11c.883 0 1.818.35 2.498 1.11l.765.83 5.014 2.91-1.528.877 2.6 2.823.977-1.678 4.765 8.331-4.818 8.278-.98-1.704v3.7c0 .095-.004.19-.011.282l.113.197c.186.32.506.506.852.506l11.87.026c.346 0 .666-.186.852-.479l5.962-10.247s0-.027.027-.027c.16-.319.16-.692.026-.984 0-.014-.006-.02-.013-.027a.032.032 0 0 1-.013-.027l-5.909-10.3a.985.985 0 0 0-.852-.506l-10.939-.024V7.799zm-1.97 10.167l-8.304-4.79V3.593l8.305 4.79v9.582zM20.792 8.384l8.304-4.79v9.581l-8.304 4.791V8.384zM8.52 20.708l9.581-.027-4.764 8.304-9.582.027 4.765-8.304zM3.756 31.035l9.582-.027 4.818 8.278-9.582.026-4.818-8.277zm52.727-2.023l-4.791-8.304-9.582-.027 4.79 8.304 9.583.027zM42.03 39.286l9.582.026 4.817-8.277-9.581-.027-4.818 8.278zM24.144 41.28h11.844a.966.966 0 0 0 .985-.984v-9.342h3.939c.4 0 .745-.213.905-.586.16-.346.08-.772-.186-1.065L30.798 17.54a.95.95 0 0 0-.719-.32.95.95 0 0 0-.718.32L18.528 29.304a.98.98 0 0 0-.186 1.065 1 1 0 0 0 .905.585h3.912v9.343c0 .532.426.985.985.985zm10.86-1.969h-9.903V29.97a.982.982 0 0 0-.985-.985h-2.661l8.597-9.316 8.597 9.316h-2.662a.982.982 0 0 0-.985.985v9.342z" fill="url(#a)"/><path d="M79.626 21.992c.938.22 1.68.675 2.222 1.364.557.69.836 1.489.836 2.398 0 1.335-.447 2.376-1.342 3.124-.88.748-2.149 1.122-3.806 1.122h-7.238V14.446h7.062c1.584 0 2.808.345 3.674 1.034.865.69 1.298 1.672 1.298 2.948 0 .939-.25 1.723-.748 2.354-.499.616-1.151 1.02-1.958 1.21zm-5.566-1.188h2.464c1.305 0 1.958-.557 1.958-1.672 0-1.115-.668-1.672-2.002-1.672h-2.42v3.344zm2.684 6.138c1.393 0 2.09-.572 2.09-1.716 0-.557-.184-.99-.55-1.298-.367-.323-.888-.484-1.562-.484H74.06v3.498h2.684zm7.575-12.672c0-.572.205-1.041.616-1.408.41-.381.953-.572 1.628-.572.675 0 1.217.19 1.628.572.41.367.616.836.616 1.408 0 .557-.205 1.027-.616 1.408-.41.367-.953.55-1.628.55-.675 0-1.217-.183-1.628-.55a1.846 1.846 0 0 1-.616-1.408zm4.114 3.454V30H84.67V17.724h3.762zm9.549 9.042V30h-1.694c-1.437 0-2.56-.352-3.366-1.056-.792-.719-1.188-1.9-1.188-3.542v-4.51h-1.65v-3.168h1.65V14.71h3.762v3.014h2.464v3.168h-2.464v4.576c0 .484.096.821.286 1.012.206.19.543.286 1.012.286h1.188zm4.733-12.298v9.218c0 1.379.3 2.405.902 3.08.616.675 1.474 1.012 2.574 1.012 1.085 0 1.928-.337 2.53-1.012.616-.675.924-1.701.924-3.08v-9.218h2.508v9.218c0 2.127-.55 3.74-1.65 4.84-1.1 1.085-2.552 1.628-4.356 1.628-1.79 0-3.227-.543-4.312-1.628-1.086-1.1-1.628-2.713-1.628-4.84v-9.218h2.508zm19.313 3.256c1.056 0 1.995.25 2.816.748.836.499 1.489 1.217 1.958 2.156.47.939.704 2.039.704 3.3 0 1.276-.234 2.383-.704 3.322-.469.939-1.122 1.657-1.958 2.156-.821.499-1.76.748-2.816.748-1.1 0-2.038-.271-2.816-.814a4.258 4.258 0 0 1-1.628-2.156v8.58h-2.508V17.878h2.508v2.816a4.26 4.26 0 0 1 1.628-2.156c.778-.543 1.716-.814 2.816-.814zm-.77 2.2c-.704 0-1.334.169-1.892.506-.557.323-.997.792-1.32 1.408-.322.601-.484 1.298-.484 2.09 0 .807.162 1.51.484 2.112a3.6 3.6 0 0 0 1.32 1.408c.558.323 1.188.484 1.892.484 1.115 0 2.01-.352 2.684-1.056.675-.719 1.012-1.701 1.012-2.948 0-1.232-.337-2.207-1.012-2.926-.674-.719-1.569-1.078-2.684-1.078zm11.172-6.204V30h-2.508V13.72h2.508zm8.579 4.004c1.173 0 2.229.25 3.168.748a5.368 5.368 0 0 1 2.2 2.156c.528.939.792 2.039.792 3.3 0 1.276-.264 2.383-.792 3.322a5.367 5.367 0 0 1-2.2 2.156c-.939.499-1.995.748-3.168.748s-2.229-.25-3.168-.748a5.552 5.552 0 0 1-2.2-2.156c-.528-.953-.792-2.06-.792-3.322 0-1.261.264-2.361.792-3.3a5.554 5.554 0 0 1 2.2-2.156c.939-.499 1.995-.748 3.168-.748zm0 2.178a3.69 3.69 0 0 0-1.782.44c-.543.293-.983.748-1.32 1.364-.323.601-.484 1.342-.484 2.222 0 .895.161 1.643.484 2.244.337.601.777 1.049 1.32 1.342.543.293 1.137.44 1.782.44s1.239-.147 1.782-.44c.543-.293.975-.74 1.298-1.342.337-.601.506-1.35.506-2.244 0-.88-.169-1.62-.506-2.222-.323-.616-.755-1.07-1.298-1.364a3.69 3.69 0 0 0-1.782-.44zm13.433-2.178c1.1 0 2.039.271 2.816.814a4.374 4.374 0 0 1 1.65 2.156v-2.816h2.508V30h-2.508v-2.816a4.373 4.373 0 0 1-1.65 2.156c-.777.543-1.716.814-2.816.814-1.056 0-2.002-.25-2.838-.748-.821-.499-1.466-1.217-1.936-2.156-.469-.939-.704-2.046-.704-3.322 0-1.261.235-2.361.704-3.3.47-.939 1.115-1.657 1.936-2.156.836-.499 1.782-.748 2.838-.748zm.77 2.2c-1.114 0-2.009.36-2.684 1.078-.66.704-.99 1.68-.99 2.926 0 1.247.33 2.23.99 2.948.675.704 1.57 1.056 2.684 1.056.704 0 1.335-.161 1.892-.484a3.585 3.585 0 0 0 1.32-1.408c.323-.601.484-1.305.484-2.112 0-.792-.161-1.489-.484-2.09-.322-.616-.762-1.085-1.32-1.408-.557-.337-1.188-.506-1.892-.506zm14.076-2.2c1.1 0 2.039.271 2.816.814a4.26 4.26 0 0 1 1.628 2.156V13.72h2.53V30h-2.53v-2.816a4.258 4.258 0 0 1-1.628 2.156c-.777.543-1.716.814-2.816.814-1.056 0-2.002-.25-2.838-.748-.821-.499-1.467-1.217-1.936-2.156-.469-.939-.704-2.046-.704-3.322 0-1.261.235-2.361.704-3.3.469-.939 1.115-1.657 1.936-2.156.836-.499 1.782-.748 2.838-.748zm.77 2.2c-1.115 0-2.009.36-2.684 1.078-.66.704-.99 1.68-.99 2.926 0 1.247.33 2.23.99 2.948.675.704 1.569 1.056 2.684 1.056.704 0 1.335-.161 1.892-.484a3.6 3.6 0 0 0 1.32-1.408c.323-.601.484-1.305.484-2.112 0-.792-.161-1.489-.484-2.09-.323-.616-.763-1.085-1.32-1.408-.557-.337-1.188-.506-1.892-.506z" fill="#000"/><defs><linearGradient id="a" x1="5.835" y1="41.448" x2="51.948" y2="9.292" gradientUnits="userSpaceOnUse"><stop stop-color="#40B8FF"/><stop offset=".258" stop-color="#7F3FDA"/><stop offset=".464" stop-color="#EB505C"/><stop offset=".74" stop-color="#F29160"/><stop offset="1" stop-color="#FAD464"/></linearGradient></defs></svg>