<svg width="400" height="304" viewBox="0 0 400 304" fill="none" xmlns="http://www.w3.org/2000/svg"><path d="M360.539 274.14a44.886 44.886 0 0 0 6.266-8.191c-14.539 2.253-15.477 11.57-15.477 11.57h1.278a10.999 10.999 0 0 0 4.312-.878 10.996 10.996 0 0 0 3.621-2.501z" fill="#3623AB"/><path d="M351.347 277.507c7.552-7.548 7.74-14.744 10.357-22.628-15.972 6.45-18.118 22.353-18.118 22.353l7.761.275z" fill="#6174FF"/><path d="M32.125 150.197l.352-.176-.352.176zM28 178.253v-21.039 21.039a7.978 7.978 0 0 0 4.932 7.366 7.982 7.982 0 0 0-4.323-4.313 7.978 7.978 0 0 1-.609-3.053z" fill="#FFA633"/><path d="M390.826 40h-47.84a7.979 7.979 0 0 0-7.974 7.978v21.039a7.971 7.971 0 0 0 7.974 7.97h10.648l6.361 9.596.086-3.932a6.843 6.843 0 0 1 3.247-5.672c11.505 0 28.477-.041 28.739-.082a7.98 7.98 0 0 0 6.737-7.88V47.978A7.977 7.977 0 0 0 390.826 40z" fill="#FFB75A"/><path d="M342.986 40h5.55a7.979 7.979 0 0 0-7.974 7.978v21.04a7.975 7.975 0 0 0 7.974 7.973h-5.55A7.974 7.974 0 0 1 335 69.017V47.978a7.987 7.987 0 0 1 2.34-5.644A7.967 7.967 0 0 1 342.986 40z" fill="#FF802C"/><path d="M366.554 68.403C356.839 63.938 351.273 56.935 350.13 40h-1.609a7.976 7.976 0 0 0-7.974 7.978v21.039a7.975 7.975 0 0 0 7.974 7.974h5.083l6.36 9.596.086-3.932a6.843 6.843 0 0 1 3.248-5.672c11.504 0 28.476-.041 28.738-.082a7.977 7.977 0 0 0 6.766-7.884v-1.229c-7.843 2.163-24.553 4.15-32.248.615z" fill="#FFA633"/><path d="M353.075 61.716a3.878 3.878 0 1 0 4.31-6.449 3.878 3.878 0 0 0-4.31 6.45zm15.062.342a3.88 3.88 0 1 0 4.311-6.45 3.88 3.88 0 0 0-4.311 6.45zm14.77 0a3.878 3.878 0 1 0 4.31-6.449 3.878 3.878 0 0 0-4.31 6.45z" fill="#fff"/><path d="M42.668 117.196a2.4 2.4 0 1 0 2.668-3.989 2.4 2.4 0 0 0-2.668 3.989zm153.074 143.881a2.4 2.4 0 1 0 2.668-3.99 2.4 2.4 0 0 0-2.668 3.99zm198.125-111.08a2.4 2.4 0 1 0 2.668-3.99 2.4 2.4 0 0 0-2.668 3.99z" fill="#5655E2"/><path opacity=".9" d="M122.6 277.925H74.074a.409.409 0 0 1-.29-.7.413.413 0 0 1 .29-.12H122.6a.41.41 0 1 1 0 .82zm56.772 0h-49.443a.41.41 0 1 1 0-.82h49.443a.41.41 0 1 1 0 .82zm141.238 0h-50.2a.41.41 0 1 1 0-.82h50.2a.41.41 0 1 1 0 .82zm-57.595 0h-3.801a.407.407 0 0 1-.409-.41.41.41 0 0 1 .409-.41h3.801c.109 0 .213.044.29.12a.414.414 0 0 1 0 .58.41.41 0 0 1-.29.12zm-6.402 0h-35a.41.41 0 1 1 0-.82h35a.41.41 0 1 1 0 .82zm124.794 0h-52.505a.41.41 0 1 1 0-.82h52.505a.41.41 0 1 1 0 .82z" fill="#20136B"/><path d="M333.363 133.437c.061-.074.115-.147.172-.221-1.884.274-4.063.442-5.324-.287-1.884-1.089-2.089-3.686-1.606-6.245a8.179 8.179 0 0 0-.409.368 5.98 5.98 0 0 0-1.93 4.505 4.28 4.28 0 0 0 4.235 4.227c2.007.024 3.596-.852 4.862-2.347z" fill="#6D39C5"/><path d="M90.129 272.294c-2.11-5.431-5.603-13.819-8.192-16.997 15.605 7.139 20.069 21.916 20.069 21.916h-4.69a7.71 7.71 0 0 1-7.188-4.919z" fill="#3623AB"/><path d="M100.842 277.213c-12.201-11.021-8.548-28.141-10.518-40.137 16.329 8.048 22.935 40.137 22.935 40.137h-12.417z" fill="#6174FF"/><path d="M112.03 276.442c-3.6-2.933-10.402-11.976-11.725-14.851-1.716-3.723-2.957-7.659-4.161-11.467-1.704-5.407-3.318-10.514-5.98-13.737l.315-.262c2.716 3.276 4.338 8.429 6.058 13.876 1.196 3.796 2.432 7.72 4.136 11.422 1.278 2.773 8.13 11.877 11.619 14.699l-.262.32z" fill="#fff"/><path d="M44.346 219H16.91a5.91 5.91 0 0 0-5.91 5.91v27.436a5.91 5.91 0 0 0 5.91 5.91h27.436a5.91 5.91 0 0 0 5.91-5.91V224.91a5.91 5.91 0 0 0-5.91-5.91z" fill="#6D39C4"/><path d="M50.3 219H22.862a5.91 5.91 0 0 0-5.91 5.91v27.436a5.91 5.91 0 0 0 5.91 5.91h27.436a5.91 5.91 0 0 0 5.91-5.91V224.91A5.91 5.91 0 0 0 50.3 219z" fill="#925AF0"/><path d="M31.477 244.081v-10.91a1.5 1.5 0 0 1 2.24-1.307l9.628 5.455a1.505 1.505 0 0 1 0 2.613l-9.608 5.456a1.507 1.507 0 0 1-1.512.007 1.5 1.5 0 0 1-.748-1.314z" fill="#fff"/><path opacity=".5" fill-rule="evenodd" clip-rule="evenodd" d="M134 215.998l-.5.002C98.43 216 70 187.57 70 152.5S98.43 89 133.5 89c9.484 0 18.482 2.079 26.563 5.806C172.871 68.853 199.601 51 230.5 51c37.425 0 68.733 26.19 76.597 61.242A52.69 52.69 0 0 1 318.5 111c28.995 0 52.5 23.505 52.5 52.5S347.495 216 318.5 216l-.5-.002V216H134v-.002z" fill="#6174FF"/><path d="M36 202.6v-25.74l58.14-79.74h33.12v78.66h15.3v26.82h-15.3V226H96.12v-23.4H36zm62.64-69.84l-31.32 43.02h31.32v-43.02zm57.937 28.26c0 19.92 4.02 35.7 12.06 47.34 8.04 11.64 20.881 17.46 38.521 17.46 17.52 0 30.3-5.82 38.339-17.46 8.161-11.64 12.241-27.42 12.241-47.34 0-19.8-4.08-35.46-12.241-46.98-8.039-11.64-20.819-17.46-38.339-17.46-17.64 0-30.481 5.82-38.521 17.46-8.04 11.52-12.06 27.18-12.06 46.98zm70.56 0c0 11.4-1.38 20.22-4.14 26.46-2.64 6.12-7.92 9.18-15.839 9.18-8.04 0-13.441-3.06-16.2-9.18-2.76-6.24-4.14-15.06-4.14-26.46 0-11.28 1.38-19.98 4.14-26.1 2.759-6.12 8.16-9.18 16.2-9.18 7.919 0 13.199 3.06 15.839 9.18 2.76 6 4.14 14.7 4.14 26.1zm92.08-67.86c8.88 0 16.5 1.56 22.86 4.68 6.36 3 11.16 7.2 14.4 12.6 3.36 5.28 5.04 11.28 5.04 18 0 8.28-2.16 14.94-6.48 19.98-4.2 5.04-9.48 8.22-15.84 9.54v.9c16.44 5.28 24.66 15.54 24.66 30.78 0 7.32-1.68 13.86-5.04 19.62-3.36 5.64-8.28 10.08-14.76 13.32-6.36 3.12-14.04 4.68-23.04 4.68-14.64 0-26.28-3.6-34.92-10.8-8.52-7.2-13.14-18.18-13.86-32.94h30.06c.24 5.64 1.8 10.08 4.68 13.32s7.08 4.86 12.6 4.86c4.44 0 7.92-1.32 10.44-3.96 2.64-2.64 3.96-6.06 3.96-10.26 0-10.44-7.56-15.66-22.68-15.66h-5.76V146.8h5.58c13.56.24 20.34-4.62 20.34-14.58 0-4.32-1.2-7.62-3.6-9.9-2.28-2.4-5.4-3.6-9.36-3.6-4.32 0-7.74 1.5-10.26 4.5-2.52 2.88-3.96 6.78-4.32 11.7h-30.06c.6-13.44 4.8-23.76 12.6-30.96 7.8-7.2 18.72-10.8 32.76-10.8z" fill="#fff"/><path d="M237.066 31.595a2.401 2.401 0 0 0 3.331-3.327 2.402 2.402 0 0 0-3.693-.367 2.4 2.4 0 0 0 .362 3.694z" fill="#5655E2"/><path d="M72.273 29a1.376 1.376 0 0 1 1.372 1.163c.02.127.041.258.066.385a8.568 8.568 0 0 0 1.92 3.858c.574.684 1.23 1.307 1.835 1.95a8.192 8.192 0 0 1 2.007 8.31c-.11.388-.248.768-.41 1.138a1.322 1.322 0 0 1-1.937.565 1.306 1.306 0 0 1-.475-1.638c.091-.19.17-.386.238-.586.819-2.457.254-4.615-1.77-6.442a17.79 17.79 0 0 1-1.441-1.548.844.844 0 0 0-.131-.119v11.889a6.114 6.114 0 0 1-1.454 4.096c-1.261 1.495-2.867 2.371-4.85 2.339a4.28 4.28 0 0 1-4.242-4.19 5.988 5.988 0 0 1 1.929-4.505 6.098 6.098 0 0 1 3.37-1.737 6.282 6.282 0 0 1 2.527.234l.078.024V30.393a1.386 1.386 0 0 1 1.385-1.389L72.273 29z" fill="#915AEF"/><path d="M285.859 259.171l6.766 10.229a2.638 2.638 0 0 1-.078 2.923s-1.576 2.132-1.791 2.248c-.286.153-.702.397-1.128.655a.602.602 0 0 0-.266.68.61.61 0 0 0 .583.444h2.748c1.64 0 3.41-1.654 4.733-2.635.867-.648 2.653-1.395 3.694-2.261 1.534-1.276 1.336-3.374.252-5.048l-8.324-12.412-7.189 5.177zm-35.689 0v11.085a20.722 20.722 0 0 1-3.09 4.074l-1.418 1.28a.435.435 0 0 0 .049.683c.073.05.159.077.248.077h3.546c2.558 0 3.714-1.989 5.078-2.923 1.364-.934 3.021-.475 4.811-3.276.727-1.131.222-11.003.222-11.003l-9.446.003z" fill="#FFB75A"/><path d="M248.203 194.549l.791 64.615h16.259l-4.092-64.615h-12.958z" fill="#2300B3"/><path d="M248.203 194.552s12.999 25.533 17.903 33.61c4.904 8.076 19.778 31.006 19.778 31.006l14.834-10.637s-6.025-8.035-7.843-10.524c-.784-1.073-1.251-3.452-3.41-6.111-1.517-1.867-5.163-3.255-6.537-5.034-1.705-2.207-1.194-4.869-3.352-8.206-2.118-3.273-4.263-5.649-6.309-8.657-2.199-3.235-1.534-7.554-3.751-11.203-2.131-3.507-5.627-10.005-5.627-10.005l-15.686 5.761z" fill="#2300B3"/><path d="M250.972 169.557l.867-6.99s-3.015-.424-3.618-2.461c-.785-2.682 4.194-10.708 4.194-10.708l7.523 4.682-2.343 7.238.143 7.469-6.766.77z" fill="#FFB75A"/><path d="M262.339 151.045c3.341 0 6.049-2.696 6.049-6.022 0-3.327-2.708-6.023-6.049-6.023s-6.05 2.696-6.05 6.023c0 3.326 2.709 6.022 6.05 6.022z" fill="#170278"/><path d="M250.316 150.525c2.486 3.225 4.539 4.121 5.995 4.753 1.456.631 1.023 2.777 0 3.531.27 1.398 1.293 3.422 1.293 3.422s3.069-2.014 4.163-4.39c1.187-2.563 1.787-7.547-4.433-9.845-2.973-1.104-7.018 2.529-7.018 2.529zm19.973 49.809c3.441-2.841 8.6-8.664 6.715-10.863-2.534-2.971-12.164 1.062-12.164 1.062l5.449 9.801z" fill="#170278"/><path d="M221.697 166.411c-1.477-2.318-5.637-7.655-5.695-9.071-.058-1.415 1.193-.057 1.535.228-1.876-3.056-.509-4.074 1.309-1.698-1.108-2.689.198-3.14 1.535-.848-.314-1.698.17-1.983.74-1.813.852.509 2.305 4.012 2.305 4.012s.17-1.941.798-2.699a1.438 1.438 0 0 1 1.364-.577s-.74 3.589-.058 5.432c.399 1.073-.229 2.716-.229 2.716l.938 1.511" fill="#FFB75A"/><path d="M259.334 167.98c-1.575-.238-3.58.02-6.308.02a15.821 15.821 0 0 0-5.456 1.202c-.399.081-9.289 3.968-10.456 3.968-2.046 0-10.833-9.566-10.833-9.566l-4.543 2.814c3.98 6.338 9.153 18.081 14.565 18.988 2.145.36 6.09-.856 10.073-2.455l-.389 9.374a2.93 2.93 0 0 0 1.484 2.658c1.988 1.134 3.945.427 6.329.088 3.485-.499 13.487-7.078 19.966-6.26 1.045.105 2.084.272 3.11.499-1.003-1.019-6.408-6.641-10.155-10.728-3.659-3.989-3.636-10.039-7.387-10.602z" fill="#915AEF"/><path d="M263.377 229.806c-1.882-4.963-3.703-4.304-5.456-8.528-1.565-3.734-.396-6.195-3.069-9.59-1.705-2.17-3.192-10.413-3.192-10.413l11.305 21.786.412 6.745z" fill="#170278"/><path d="M249.578 153.858a.732.732 0 0 0-1.01.206.724.724 0 0 0 .21 1.005l.926.607a.73.73 0 0 0 1.009-.207.722.722 0 0 0-.209-1.004l-.926-.607z" fill="#FFB75A"/><path d="M251.779 162.576a5.303 5.303 0 0 0 1.797-.869s-.32 1.188-.896 1.697a7.01 7.01 0 0 1-1.102.798l.201-1.626zm35.669 99.006l5.6-7.57-7.189 5.153 1.589 2.417zm-43.354-77.83a43.623 43.623 0 0 0 1.858-1.286c2.026-1.487 3.615-2.9 3.615-2.9l-3.492 8.389.208-5.041-2.189.838z" fill="#170278"/><path d="M293.691 253.561c-2.387-4.956-19.249-30.69-25.374-37.89-5.456-6.43-8.413-13.611-11.018-19.946-.227-.55-.454-1.093-.682-1.629l.317-.129c.228.536.455 1.081.682 1.633 2.599 6.311 5.538 13.464 10.967 19.85 6.138 7.214 23.042 32.998 25.422 37.965l-.314.146z" fill="#fff"/></svg>