<svg width="400" height="304" viewBox="0 0 400 304" fill="none" xmlns="http://www.w3.org/2000/svg"><path d="M360.539 274.14a44.886 44.886 0 0 0 6.266-8.191c-14.539 2.253-15.477 11.57-15.477 11.57h1.278a10.999 10.999 0 0 0 4.312-.878 10.996 10.996 0 0 0 3.621-2.501z" fill="#3623AB"/><path d="M351.345 277.507c7.552-7.548 7.74-14.744 10.357-22.628-15.972 6.45-18.118 22.353-18.118 22.353l7.761.275z" fill="#6174FF"/><path d="M32.125 150.197l.352-.176-.352.176zM28 178.253v-21.039 21.039a7.978 7.978 0 0 0 4.932 7.366 7.982 7.982 0 0 0-4.323-4.313 7.978 7.978 0 0 1-.609-3.053z" fill="#FFA633"/><path d="M390.826 40h-47.84a7.979 7.979 0 0 0-7.974 7.978v21.039a7.971 7.971 0 0 0 7.974 7.97h10.648l6.361 9.596.086-3.932a6.843 6.843 0 0 1 3.247-5.672c11.505 0 28.477-.041 28.739-.082a7.98 7.98 0 0 0 6.737-7.88V47.978A7.977 7.977 0 0 0 390.826 40z" fill="#FFB75A"/><path d="M342.986 40h5.55a7.979 7.979 0 0 0-7.974 7.978v21.04a7.975 7.975 0 0 0 7.974 7.973h-5.55A7.974 7.974 0 0 1 335 69.017V47.978a7.987 7.987 0 0 1 2.34-5.644A7.967 7.967 0 0 1 342.986 40z" fill="#FF802C"/><path d="M366.556 68.403c-9.715-4.465-15.281-11.468-16.424-28.403h-1.609a7.976 7.976 0 0 0-7.974 7.978v21.039a7.975 7.975 0 0 0 7.974 7.974h5.082l6.361 9.596.086-3.932a6.843 6.843 0 0 1 3.248-5.672c11.504 0 28.476-.041 28.738-.082a7.977 7.977 0 0 0 6.766-7.884v-1.229c-7.843 2.163-24.553 4.15-32.248.615z" fill="#FFA633"/><path d="M353.073 61.716a3.878 3.878 0 1 0 4.31-6.449 3.878 3.878 0 0 0-4.31 6.45zm15.064.342a3.88 3.88 0 1 0 4.311-6.45 3.88 3.88 0 0 0-4.311 6.45zm14.77 0a3.878 3.878 0 1 0 4.31-6.449 3.878 3.878 0 0 0-4.31 6.45z" fill="#fff"/><path d="M42.666 117.196a2.399 2.399 0 0 0 3.33-3.327 2.4 2.4 0 1 0-3.33 3.327zm153.076 143.881a2.4 2.4 0 1 0 2.668-3.99 2.4 2.4 0 0 0-2.668 3.99zm198.125-111.08a2.4 2.4 0 1 0 2.668-3.99 2.4 2.4 0 0 0-2.668 3.99z" fill="#5655E2"/><path opacity=".9" d="M122.599 277.925H74.072a.409.409 0 0 1-.29-.7.413.413 0 0 1 .29-.12h48.527a.413.413 0 0 1 .409.41.41.41 0 0 1-.409.41zm56.773 0h-49.443a.41.41 0 1 1 0-.82h49.443a.41.41 0 1 1 0 .82zm141.24 0h-50.2a.41.41 0 1 1 0-.82h50.2a.41.41 0 1 1 0 .82zm-57.599 0h-3.801a.409.409 0 0 1-.289-.7.413.413 0 0 1 .289-.12h3.801c.109 0 .213.044.29.12a.414.414 0 0 1 0 .58.41.41 0 0 1-.29.12zm-6.4 0h-35a.41.41 0 1 1 0-.82h35a.41.41 0 1 1 0 .82zm124.794 0h-52.505a.41.41 0 1 1 0-.82h52.505a.41.41 0 1 1 0 .82z" fill="#20136B"/><path d="M333.361 133.437c.062-.074.115-.147.172-.221-1.884.274-4.063.442-5.324-.287-1.884-1.089-2.089-3.686-1.606-6.245a8.179 8.179 0 0 0-.409.368 5.989 5.989 0 0 0-1.929 4.505 4.28 4.28 0 0 0 4.234 4.227c2.007.024 3.597-.852 4.862-2.347z" fill="#6D39C5"/><path d="M90.129 272.294c-2.11-5.431-5.603-13.819-8.192-16.997 15.605 7.139 20.069 21.916 20.069 21.916h-4.69a7.71 7.71 0 0 1-7.188-4.919z" fill="#3623AB"/><path d="M100.844 277.213c-12.201-11.021-8.548-28.141-10.518-40.137 16.329 8.048 22.935 40.137 22.935 40.137h-12.417z" fill="#6174FF"/><path d="M112.032 276.442c-3.6-2.933-10.403-11.976-11.725-14.851-1.716-3.723-2.957-7.659-4.162-11.467-1.703-5.407-3.317-10.514-5.979-13.737l.315-.262c2.716 3.276 4.338 8.429 6.058 13.876 1.196 3.796 2.433 7.72 4.136 11.422 1.278 2.773 8.13 11.877 11.619 14.699l-.262.32z" fill="#fff"/><path d="M44.346 219H16.91a5.91 5.91 0 0 0-5.91 5.91v27.436a5.91 5.91 0 0 0 5.91 5.91h27.436a5.91 5.91 0 0 0 5.91-5.91V224.91a5.91 5.91 0 0 0-5.91-5.91z" fill="#6D39C4"/><path d="M50.297 219H22.861a5.91 5.91 0 0 0-5.91 5.91v27.436a5.91 5.91 0 0 0 5.91 5.91h27.436a5.91 5.91 0 0 0 5.91-5.91V224.91a5.91 5.91 0 0 0-5.91-5.91z" fill="#925AF0"/><path d="M31.479 244.081v-10.91a1.5 1.5 0 0 1 2.24-1.307l9.628 5.455a1.513 1.513 0 0 1 .76 1.307 1.507 1.507 0 0 1-.76 1.306l-9.608 5.456a1.507 1.507 0 0 1-1.511.007 1.5 1.5 0 0 1-.75-1.314z" fill="#fff"/><path opacity=".5" fill-rule="evenodd" clip-rule="evenodd" d="M134 215.998l-.5.002C98.43 216 70 187.57 70 152.5S98.43 89 133.5 89c9.484 0 18.482 2.079 26.563 5.806C172.871 68.853 199.601 51 230.5 51c37.425 0 68.733 26.19 76.597 61.242A52.69 52.69 0 0 1 318.5 111c28.995 0 52.5 23.505 52.5 52.5S347.495 216 318.5 216l-.5-.002V216H134v-.002z" fill="#6174FF"/><path d="M28.92 202.6v-25.74l58.14-79.74h33.12v78.66h15.3v26.82h-15.3V226H89.04v-23.4H28.92zm62.64-69.84l-31.32 43.02h31.32v-43.02zm57.937 28.26c0 19.92 4.02 35.7 12.06 47.34 8.04 11.64 20.88 17.46 38.52 17.46 17.52 0 30.3-5.82 38.34-17.46 8.16-11.64 12.24-27.42 12.24-47.34 0-19.8-4.08-35.46-12.24-46.98-8.04-11.64-20.82-17.46-38.34-17.46-17.64 0-30.48 5.82-38.52 17.46-8.04 11.52-12.06 27.18-12.06 46.98zm70.56 0c0 11.4-1.38 20.22-4.14 26.46-2.64 6.12-7.92 9.18-15.84 9.18-8.04 0-13.44-3.06-16.2-9.18-2.76-6.24-4.14-15.06-4.14-26.46 0-11.28 1.38-19.98 4.14-26.1 2.76-6.12 8.16-9.18 16.2-9.18 7.92 0 13.2 3.06 15.84 9.18 2.76 6 4.14 14.7 4.14 26.1zm45.64 41.58v-25.74l58.14-79.74h33.12v78.66h15.3v26.82h-15.3V226h-31.14v-23.4h-60.12zm62.64-69.84l-31.32 43.02h31.32v-43.02z" fill="#fff"/><path d="M237.066 31.595a2.401 2.401 0 0 0 3.331-3.327 2.402 2.402 0 0 0-3.693-.367 2.4 2.4 0 0 0 .362 3.694z" fill="#5655E2"/><path d="M72.273 29a1.376 1.376 0 0 1 1.372 1.163c.02.127.041.258.066.385a8.568 8.568 0 0 0 1.92 3.858c.574.684 1.23 1.307 1.835 1.95a8.192 8.192 0 0 1 2.007 8.31c-.11.388-.248.768-.41 1.138a1.322 1.322 0 0 1-1.937.565 1.306 1.306 0 0 1-.475-1.638c.091-.19.17-.386.238-.586.819-2.457.254-4.615-1.77-6.442a17.79 17.79 0 0 1-1.441-1.548.844.844 0 0 0-.131-.119v11.889a6.114 6.114 0 0 1-1.454 4.096c-1.261 1.495-2.867 2.371-4.85 2.339a4.28 4.28 0 0 1-4.242-4.19 5.988 5.988 0 0 1 1.929-4.505 6.098 6.098 0 0 1 3.37-1.737 6.282 6.282 0 0 1 2.527.234l.078.024V30.393a1.386 1.386 0 0 1 1.385-1.389L72.273 29z" fill="#915AEF"/><path d="M260.291 193.967l1.68 67.958h-12.14l-2.944-67 13.404-.958z" fill="#170278"/><path d="M237.987 194.438c-6.59 10.763-4.895 23.64-7.327 37.708l-11.23 23.381 9.96 6.398 12.618-23.82a15.684 15.684 0 0 0 1.385-3.649l10.308-40.03-15.714.012z" fill="#170278"/><path d="M228.579 261.403l-3.649 7.966a2.365 2.365 0 0 0 .447 2.629c1.122 1.167 2.715 2.801 2.867 2.896.36.196.88.499 1.413.819a.762.762 0 0 1-.41 1.417h-3.416c-2.047 0-4.3-2.085-5.946-3.322-.545-.409-2.327-1.638-3.973-2.764a4.384 4.384 0 0 1-1.45-5.578l4.968-9.948 9.149 5.885zm61.351-115.641c1.659-2.867 4.915-6.926 5.533-9.42.41-1.638-.614-1.843-1.011-1.479.7-1.277-1.229-2.678-1.696-1.703.242-.787-1.331-2.073-1.933-1.176.053-.409 1.483-3.547 1.475-3.829-.041-1.118-.541-1.278-1.086-1.085-1.007.667-3.968 7.752-3.968 7.752s-.332-2.326-1.143-3.19a1.762 1.762 0 0 0-1.7-.61s1.127 4.263.41 6.52c-.41 1.314.446 3.248.446 3.248l-1.048 1.888 5.721 3.084zm-39.444 116.162v11.562a3.653 3.653 0 0 0 3.658 3.653h13.675a1.431 1.431 0 0 0 1.429-1.43 1.42 1.42 0 0 0-1.229-1.408c-1.384-.217-3.624-.705-4.841-1.7-1.15-.938-2.154-3.707-2.154-3.707l-.344-6.962-10.194-.008z" fill="#FFB75A"/><path d="M284.807 141.404l-11.848 19.208-9.117-3.239a22.149 22.149 0 0 0-3.903-1.061l-12.848-2.457-13.695 3.567a11.26 11.26 0 0 0-5.796 3.661l-7.638 10.87a8.688 8.688 0 0 0-.958 9.76l8.633 18.872 6.279-3.44-5.734-18.561 4.943-6.045 4.878 21.899s6.75.409 12.262.516a49.513 49.513 0 0 0 10.043-.987l1.081-24.455 11.672 1.778a8.603 8.603 0 0 0 9.227-5.267l8.716-21.813-6.197-2.806z" fill="#4999F8"/><path d="M252.334 149.027c2.548-1.815 1.389-9.101.504-12.238-8.31 1.773-9.473 1.962-9.473 1.962l-.201 7.978s.68-.41.692-.41l-.307 8.568s.582 1.229 3.936 1.364c3.604.144 4.861-1.413 4.861-1.413l-.696-5.492c.245-.065.477-.173.684-.319z" fill="#FFB75A"/><path d="M228.601 179.983c.024.082-4.886-1.913-4.886-1.913l4.452.512.434 1.401zm13.277-36.486c-1.564-5.132 0-5.873.995-7.126.996-1.253 10.874-5.996 12.144-5.476 1.269.52-1.802 6.934-1.802 6.934s-4.428-.188-7.286 1.421c-1.069.602-.82 2.736-.82 2.736s-1.937-.819-1.912.786c.024 1.606 1.589 3.441 1.589 3.441l-.991 1.691-1.917-4.407zm31.081 17.114l.86 3.088-2.04-3.51 1.18.422zm-25.371-12.25c1.478.848 4.063.983 4.063.983l.184 1.45s-1.982-.237-2.867-1.229a5.633 5.633 0 0 0-1.38-1.204z" fill="#170278"/><path d="M222.21 257.28l-.368-.177c.459-.954 11.238-23.426 11.877-24.163a2.99 2.99 0 0 1 .606-.516c.41-.283.606-.41.344-1.168-.475-1.351 2.654-31.126 5.091-34.488l.332.237c-2.413 3.342-5.505 32.765-5.034 34.116.361 1.036-.057 1.327-.499 1.638a2.602 2.602 0 0 0-.529.447c-.458.524-7.319 14.682-11.82 24.074z" fill="#fff"/><path d="M228.076 200.348c1.405 2.736 3.522 8.343 4.858 9.199 1.335.855.95-1.229.872-1.733.371.751.833 1.454 1.376 2.093.844.819 1.229.409 1.171-.545a6.294 6.294 0 0 0-.553-1.97c1.929 3.142 2.867 2.671 2.818 1.614-.024-.508-.819-2.011-1.302-2.867.544.467 1.286 1.229 1.601 1.319a.627.627 0 0 0 .796-.222.622.622 0 0 0 .097-.282c0-1.11-2.572-4.505-2.572-4.505s1.97.938 3.051.766a1.603 1.603 0 0 0 1.331-.983s-3.878-1.323-5.271-3.023c-.819-.991-2.748-1.322-2.748-1.322l-.098-.545-5.427 3.006z" fill="#FFB75A"/></svg>