<svg width="24" height="24" viewBox="0 0 24 24" fill="none" xmlns="http://www.w3.org/2000/svg"><path d="M8.381 17.028c-.389-.65-.915-1.137-1.503-1.587-.607-.465-1.27-.945-1.993-1.185-.67-.222-1.494-.134-2.158.072-.641.199-1.102.6-1.345 1.258-.244.66-.302 1.308.227 1.83a3.113 3.113 0 0 0 1.86.84c.196.016.71.05.849-.126.16-.205.11-.768.06-.993-.142-.636-.777-1.164-1.314-.629-.554.55-1.298-.431-.749-.977.604-.6 1.543-.64 2.241-.173.702.47 1.04 1.323 1.041 2.165 0 .861-.267 1.62-1.112 1.867-.81.237-1.693.088-2.46-.26-.725-.331-1.428-.845-1.798-1.596-.382-.774-.229-1.721.072-2.49.664-1.692 2.456-2.244 4.09-2.14 1.017.065 1.954.653 2.781 1.239.812.573 1.611 1.234 2.136 2.113.406.675-.517 1.454-.925.772z" fill="#369CB7"/><path d="M21.909 12.219h-.003c-.093.008-.318-.049-.588-.433-.257-.364-.47-.92-.538-1.582-.07-.662.025-1.24.199-1.635.181-.411.38-.496.466-.504.096-.007.32.052.59.434.256.364.469.92.538 1.581.069.662-.026 1.242-.2 1.636-.182.414-.38.496-.464.503z" stroke="#369CB7" stroke-width="1.3"/><path d="M15.85 3.17a.65.65 0 1 0-.228 1.28l.228-1.28zM8.69 5.253c-.434.63-.757.98-1.159 1.52a6.758 6.758 0 0 0-1.006 1.872l1.225.434a5.464 5.464 0 0 1 .825-1.53c.297-.4.758-.938 1.186-1.558l-1.07-.738zm12.994 2.022c-1.203-2.039-3.294-3.651-5.835-4.103l-.227 1.28c2.134.38 3.915 1.742 4.943 3.484l1.12-.66z" fill="#369CB7"/><path d="M15.779 3.907c-.023-.377-1.647-.159-2.175-1.512a1.687 1.687 0 0 1-.1-.395 2.531 2.531 0 0 0-1.676 1.773 1.113 1.113 0 0 1-.69-1.084c-.19.159-1.063 1.295-1.247 1.6-.185.304-.462.99-.462.99l-.462.687" stroke="#369CB7" stroke-width="1.3"/><path d="M12.22 7.214l.16.63-.16-.63zM10.012 11.1l.645-.076-.002-.024-.005-.023-.638.123zm4.585-2.539a.65.65 0 1 0 1.175-.557l-1.175.557zM12.06 6.584c-1.995.508-3.076 2.59-2.685 4.638l1.277-.245c-.287-1.499.519-2.825 1.729-3.134l-.32-1.26zm-2.692 4.591l.163 1.384 1.29-.151-.162-1.384-1.29.151zm6.406-3.17c-.332-.701-.875-1.177-1.555-1.408-.663-.226-1.41-.204-2.16-.013l.322 1.26c.583-.15 1.062-.138 1.42-.016.34.116.614.344.798.733l1.175-.557z" fill="#369CB7"/><path d="M21.11 7.512s-.425.077-.81.925c-.386.848.165 2.698.165 2.698l-.628-2.043c-.336-1.782-1.941-3.369-3.405-2.99-1.178.303-1.542 1.032-1.318 1.988M7.86 15.412c-.495.103-1.015-.16-1.457-.685-.442-.524-.798-1.3-.963-2.21-.165-.91-.106-1.774.12-2.436.226-.663.617-1.115 1.113-1.219.495-.102 1.015.16 1.457.685.441.524.797 1.301.962 2.21.166.91.108 1.773-.117 2.436-.226.665-.618 1.117-1.115 1.22z" stroke="#369CB7" stroke-width="1.3"/><path d="M18.416 14.902c-.098.114-1.13 1.277-2.956 1.251-1.31-.017-2.534-.642-3.192-1.62.252.207 1.392 1.097 3.168 1.154a5.251 5.251 0 0 0 2.98-.785zm-3.246-1.513c.09.046.421.202.842.109.421-.094.657-.376.721-.456a5.6 5.6 0 0 1-1.563.347z" fill="#369CB7"/><path d="M22.209 11.847c.067-.037.158.012.165.113l.367 6.878c.002.058-.027.112-.072.134l-6.056 3.04-.002.001a.093.093 0 0 1-.076.005h-.001l-6.425-2.196c-.046-.014-.08-.061-.085-.123l-.367-6.881a.144.144 0 0 1 .046-.118.1.1 0 0 1 .104-.022h.001l6.402 2.248a.186.186 0 0 0 .148-.01l5.85-3.069z" fill="#fff" stroke="#369CB7" stroke-width="1.3"/><path d="M16.405 21.268l-.315-6.147.465-.137.27 6.033-.42.251zm-4.685-3.303c.01.524-.67.959-1.52.974-.847.016-1.543-.396-1.554-.92-.007-.523.67-.957 1.52-.973.85-.015 1.546.397 1.554.92z" fill="#369CB7"/><path d="M11.124 17.976c.005.318-.41.585-.93.596-.519.01-.942-.244-.95-.562-.005-.319.411-.586.93-.596.518-.008.942.244.95.562z" fill="#fff"/><path d="M11.955 16.842c.01.611-.783 1.118-1.772 1.137-.991.018-1.8-.464-1.812-1.072-.01-.609.782-1.119 1.771-1.138.992-.018 1.803.464 1.813 1.073z" fill="#369CB7"/><path d="M11.26 16.855c.005.373-.477.684-1.084.695-.606.01-1.101-.283-1.106-.656-.007-.373.477-.684 1.084-.694.603-.01 1.098.282 1.106.655z" fill="#fff"/><path d="M11.427 15.819c.01.522-.67.958-1.52.974-.846.015-1.543-.396-1.553-.92 0-.023 0-.047.003-.07.05-.49.706-.888 1.514-.904.852-.015 1.546.397 1.556.92z" fill="#369CB7"/><path d="M10.828 15.83c.005.317-.411.585-.93.595-.386.007-.874-.192-.942-.494-.003-.016-.007-.037-.007-.067.005-.298.504-.588.93-.596.52-.009.944.243.949.561z" fill="#fff"/><path d="M9.603 14.044c-.17.081-.716.332-1.009.878-.21.39-.239.76-.239.951l1.223-.927c-.02-.297.044-.601.025-.902z" fill="#369CB7"/><path d="M9.424 15.467c-.149.176-.298.35-.447.523a1.438 1.438 0 0 1 .016-.903c.136-.366.388-.498.446-.524-.197.337-.246.673-.148.821a.203.203 0 0 0 .133.083z" fill="#fff"/><path d="M20.752 16.451c.036.523.75.899 1.598.842.847-.056 1.505-.529 1.468-1.05-.036-.52-.75-.898-1.594-.841-.848.056-1.508.525-1.472 1.049z" fill="#369CB7"/><path d="M21.346 16.41c.021.318.457.548.976.513.516-.034.92-.322.899-.64-.02-.319-.457-.549-.976-.513-.519.033-.919.321-.899.64z" fill="#fff"/><path d="M20.422 15.35c.042.609.873 1.05 1.862.981.988-.066 1.756-.616 1.714-1.225-.04-.608-.875-1.05-1.86-.981-.989.07-1.756.617-1.716 1.225z" fill="#369CB7"/><path d="M21.116 15.303c.026.373.534.64 1.138.599.603-.042 1.073-.376 1.047-.75-.026-.372-.534-.64-1.138-.597-.603.042-1.07.376-1.047.748z" fill="#fff"/><path d="M20.76 14.286c.037.523.75.898 1.595.842.847-.057 1.504-.528 1.47-1.049 0-.023-.006-.047-.008-.07-.093-.485-.778-.823-1.587-.769-.848.054-1.506.523-1.47 1.046z" fill="#369CB7"/><path d="M21.356 14.245c.02.318.456.548.975.513.388-.026.856-.264.896-.573a.222.222 0 0 0 .003-.067c-.03-.295-.552-.544-.975-.513-.52.033-.919.32-.9.64z" fill="#fff"/><path d="M22.462 12.354c.17.057.688.252 1.044.794.244.372.302.737.319.927l-1.295-.82a5.854 5.854 0 0 1-.069-.901z" fill="#369CB7"/><path d="M22.726 13.763l.487.485a1.441 1.441 0 0 0-.092-.899.928.928 0 0 0-.488-.484c.226.319.303.65.216.806a.208.208 0 0 1-.123.092z" fill="#fff"/><path d="M13.366 11.442v.004a.408.408 0 0 1-.06.282c-.044.065-.094.09-.136.095-.04.005-.092-.005-.15-.055a.404.404 0 0 1-.128-.255v-.003a.408.408 0 0 1 .06-.282c.043-.065.094-.09.136-.095.039-.005.092.005.15.055a.4.4 0 0 1 .128.254z" fill="#369CB7" stroke="#369CB7" stroke-width="1.3"/><path d="M13.175 10.876a.558.558 0 0 1-.489.64.595.595 0 0 1-.655-.507.558.558 0 0 1 .489-.641.595.595 0 0 1 .655.508z" fill="#fff"/><path d="M17.435 10.577v-.003a.41.41 0 0 1 .06-.283c.044-.064.093-.088.133-.094.04-.005.093.005.151.055a.41.41 0 0 1 .13.257.415.415 0 0 1-.06.285c-.044.064-.094.088-.135.094-.04.005-.093-.005-.15-.055a.406.406 0 0 1-.129-.256z" fill="#369CB7" stroke="#369CB7" stroke-width="1.3"/><path d="M17.414 9.95a.558.558 0 0 1-.488.641.595.595 0 0 1-.655-.507.558.558 0 0 1 .488-.641.595.595 0 0 1 .655.507zm-7.174 2.204v.314l.364.105-.156-.314-.207-.105z" fill="#fff"/><path d="M10.26 12.296l3.09 1.162 2.702 1.03-5.665-2.074-.126-.118zm10.309-.299l-3.322 2.042 2.543-1.31 2.076-1.046-.156-.315-1.141.629z" fill="#369CB7"/><path d="M21.686 11.534l-2.894 1.592-2.531 1.406 5.317-2.863.108-.135z" fill="#369CB7"/></svg>