<svg width="142" height="141" viewBox="0 0 142 141" fill="none" xmlns="http://www.w3.org/2000/svg"><path d="M101.894 5.589C79.27-.815 60.778 4.82 55.184 21.61c-5.607 16.842-.996 34.003-21.309 40.931C17.227 68.061-2.31 77.795.653 105.06c2.816 25.871 18.099 30.635 37.673 31.685 20.829 1.127 43.158-17.161 62.548-8.235 18 8.286 38.313 10.13 40.981-13.819 1.561-14.023-9.972-18.71-12.16-29.635-3.037-15.138 3.036-20.811 4.869-30.929 4.537-25.14-10.98-41.405-32.67-48.538z" fill="#91DFEB"/><mask id="b" maskUnits="userSpaceOnUse" x="0" y="0" width="142" height="137"><path d="M101.894 2.63c-22.624-6.548-41.116-.786-46.71 16.382-5.607 17.221-.996 34.77-21.309 41.855C17.227 66.51-2.31 76.464.653 104.345c2.816 26.453 18.099 31.325 37.673 32.399 20.829 1.152 43.158-17.549 62.548-8.421 18 8.473 38.313 10.359 40.981-14.13 1.561-14.34-9.972-19.133-12.16-30.304-3.037-15.48 3.036-21.28 4.869-31.626 4.537-25.707-10.98-42.34-32.67-49.634z" fill="#91DFEB"/></mask><g clip-path="url(#a)" mask="url(#b)"><path d="M68.212 73.37c10.156-6.67 8.65-15.824 8.263-17.736 1.764.854 3.873 1.302 5.68 1.302 1.12 0 2.238-.163 3.314-.489-2.754 6.59-5.293 9.316-10.845 13.466-3.443 2.603-5.465 3.295-6.412 3.458zM22.766 21.706c-2.453 3.499-4.088 7.608-4.518 11.432-.56 5.085.43 10.251 2.582 14.97-2.41-6.834-1.463-18.835 4.82-20.747 6.928-2.116 10.845 7.445 10.845 7.445 3.4-10.984 14.804-9.723 14.804-9.723 18.075 2.929 15.708 27.134 15.708 27.134s9.167-19.039 21.217-17.656v-.081c-2.496-10.17-9.554-18.754-19.496-23.107-3.959-1.708-8.348-2.766-13.125-2.97-6.284-.243-12.136.245-17.99 2.482 0 0-4.002 1.261-4.905-.732-.861-2.034-4.089.081-1.076 2.237 0 0-3.917-.203-4.863 1.14-.947 1.301 2.84 1.098 4.346.732-1.377.325-2.97 1.871-3.959 2.685-1.678 1.342-3.142 2.97-4.39 4.76z" fill="#0E80A4"/><path d="M86.89 34.277c-10.286-.082-14.332 11.675-15.063 13.994-.775-.732-7.445-21.276-20.528-23.392 0 0-.344-.04-.904-.04-2.711-.04-10.888 1.26-13.9 9.967-.818-1.79-3.701-7.242-8.607-7.323-.689 0-1.378.081-2.152.325-4.304 1.343-6.24 6.347-6.37 12.001a26.548 26.548 0 0 0 .345 4.923c-.947-2.97-1.463-6.062-1.42-9.154 0-.813.043-1.627.172-2.4.43-3.783 2.065-7.851 4.475-11.35a24.561 24.561 0 0 1 4.304-4.719c.99-.813 2.582-2.318 3.873-2.644l-.129-.366c-.645.163-1.721.285-2.668.285-.474 0-.904-.04-1.205-.163-.301-.081-.387-.203-.387-.285 0-.04.043-.162.129-.284.602-.936 3.442-1.099 4.346-1.058h.302l.688.04-.516-.366c-.904-.65-1.162-1.26-1.162-1.708 0-.61.516-1.017.99-.977.344 0 .645.163.903.692.43.976 1.507 1.261 2.496 1.261 1.334 0 2.669-.407 2.669-.407 5.207-1.952 10.371-2.603 15.88-2.522.688 0 1.334.04 2.022.04 4.734.204 9.124 1.221 13.04 2.93 9.812 4.271 16.827 12.733 19.323 22.781a6.266 6.266 0 0 0-.947-.081z" fill="#0E80A4"/><path d="M85.513 56.57c11.662-3.784 16.482-24.409 5.637-25.792a15.305 15.305 0 0 0-1.893-.122c-10.716 0-22.55 22.09-22.55 22.09" fill="#fff"/><path d="M85.513 56.57c11.662-3.784 16.482-24.409 5.637-25.792a15.305 15.305 0 0 0-1.893-.122c-10.716 0-22.55 22.09-22.55 22.09" stroke="#0E80A4" stroke-miterlimit="10"/><path d="M81.725 39.118c-.301.284-.56.57-.818.854.258-.285.56-.57.818-.854z" fill="#D46E43"/><path d="M100.101 123.815c3.572-8.258-3.486-13.425-6.714-11.269-3.184 2.156-2.022 4.272-1.592 4.76.43.488 2.883 1.058 3.228-1.058.387-2.115 1.463-1.912 2.238-1.546.774.367 1.506 2.401.43 3.824-1.119 1.465-4.777 3.702-8.607 1.709-3.873-1.953-4.605-10.333 4.863-12.082 9.468-1.749 16.655 13.018 5.508 23.025-7.617 6.835-22.421 15.296-30.813 6.509-3.744-3.946-4.992-9.031-5.767-14.279-.602-4.231-2.109-9.967-5.724-12.611 1.894.285 5.035.936 6.585 1.994 2.582 1.749 1.936 7.647 2.324 10.454.56 3.946 1.377 7.893 4.131 10.903 3.658 4.027 8.521 5.41 13.9 2.685 10.674-5.37 13.643-7.526 16.01-13.018z" fill="#0E80A4"/><path d="M71.525 154.895c.344.936 4.045 9.357 4.605 10.821.602 1.546 2.711 3.661 1.721 4.15-.86.406-1.55-.855-1.678-1.18 0-.041-.043-.041-.043-.082-.775-1.79-1.248-2.725-1.334-2.074-.13.651 0 2.807-.904 2.441-.904-.367-2.152-2.238-2.152-2.238s.732 3.051.215 3.255c-.516.203-2.71-1.79-3.012-2.767-.172-.529-.086.285-.13 1.139-.042.651-.171 1.343-.559 1.302-.904-.122-1.29-2.522-1.29-2.522s-.087 1.953-1.163 3.417h-.043c-.731.488-1.205.081-.387-1.749.818-1.79-1.42-9.56-1.42-9.56l-.517-3.539s-.473-1.139-.731-1.872c-.302-.732-1.205-1.057-1.205-1.057-3.314-1.465-.474-4.15-2.109-6.225-1.592-1.952-6.412-12.733-6.843-13.75-.43-1.098-.947-2.359-.947-2.359s.302.325.947 2.359c0-.04-.043-.081-.043-.081-7.445 1.098-12.222-1.587-15.062-4.271-2.367-2.279-3.357-4.516-3.357-4.516a14.612 14.612 0 0 1-.646-3.173c2.238 5.98 8.909 7.851 16.827 7.729 4.734-.081 8.177-2.156 10.76-5.532 4.776-6.347 4.518-14.686 2.969-21.927-.474-2.238-1.12-4.556-1.937-6.713-1.248-3.173-2.926-7.2-6.24-9.153-1.205-.691-2.883-1.302-4.304-1.383-4.346-.325-8.004 4.394-9.812 7.363 1.722-6.183 2.712-12 2.712-12v-.041a46.014 46.014 0 0 0 2.41-2.36c2.194-2.929 4.647-3.091 6.713-2.481.818 1.22 1.894 2.807 1.894 2.807.129.163.56.366.774.529a23.167 23.167 0 0 1 1.894 1.627 31.743 31.743 0 0 1 5.25 6.468c1.377 2.237 2.496 4.638 3.4 7.078.602 1.587 1.076 4.069 1.55 5.696 0 0 6.928 26.158-6.628 30.836-.13-.041 3.055 13.994 9.855 25.588z" fill="#6F1200"/><path d="M50.007 128.493c15.493-.285 15.02-20.95 15.02-20.95-2.84-17.696-7.66-23.31-13.858-23.758-4.26-.325-7.875 4.394-9.683 7.363-2.496 9.194-7.273 17.696-8.176 27.216 0 0-.087.935.086 2.441 2.237 5.939 8.779 7.81 16.611 7.688z" fill="#fff"/><path d="M33.18 120.845v-.04c-.085-.733-.085-1.343-.085-1.75 0-.447.043-.691.043-.691.904-9.56 5.68-18.103 8.134-27.256v-.082c1.764-2.847 5.164-7.444 9.424-7.485h.43c3.142.244 5.983 1.83 8.306 5.533 2.325 3.702 4.261 9.56 5.681 18.428v.163c0 1.017-.086 6.183-2.022 11.106-1.937 4.922-5.724 9.722-13.17 9.844v-.203.203h-.816c-7.445.082-13.728-1.912-15.923-7.77zm16.268 7.445h.775c7.316-.122 11.017-4.719 12.997-9.601 1.936-4.881 2.065-10.007 2.065-10.984v-.162c-1.42-8.828-3.356-14.605-5.723-18.266-2.367-3.62-5.079-5.085-8.134-5.33h-.387c-3.96-.04-7.446 4.394-9.167 7.242-2.54 9.194-7.36 17.696-8.263 27.175 0 0-.043.244-.043.691 0 .407 0 .977.086 1.709 2.152 5.614 8.263 7.526 15.794 7.526z" fill="#0E80A4"/><path d="M48.674 128.29h.775-.775zm2.28-44.342s-.042 0 0 0c-.042 0 0 0 0 0zm.044 0h.516-.516z" fill="#DC9648"/><path d="M45.79 167.913c.301.041.603-.041.904-.407.043-.041.172-.569.258-1.383.13-.814.215-1.953.344-3.336.215-2.725.43-6.346.517-10.211.129-7.729-.215-16.435-1.937-20.91a18.19 18.19 0 0 1-4.045-1.708c.129.447.258 1.017.387 1.708.215 1.302.344 2.97.43 4.719.13 3.499.043 7.282-.559 8.828-.301.814-.732 1.465-1.076 1.953-.086.122-.172.244-.215.325-.818 1.221-1.291 1.994 0 4.678v.082c0 .04.086 2.319-2.668 7.688a27.341 27.341 0 0 1-1.765 3.011c-.947 1.383-1.764 2.319-2.195 2.929-.215.325-.344.61-.344.773 0 .163.043.325.301.488.043 0 .087.041.13.081.086.041.172.122.258.163.86 0 1.506-.163 2.238-1.22a5.67 5.67 0 0 0 .645-1.139c.086-.204.172-.367.258-.448l.13-.122c.042-.041.172-.081.258-.041.129.122.129.204.129.285v1.424c0 .773.172 1.586.56 1.79a.331.331 0 0 0 .214.081c.43.082.904-.325 1.291-.935.345-.529.69-1.139.947-1.546a1.43 1.43 0 0 1 .301-.366c.087-.082.302-.163.43-.041.173.122.26.325.345.61.301 1.261.732 2.36 1.033 2.482.086.04.043.081.215-.122.086-.122.215-.407.301-.773.087-.366.173-.611.216-.814.043-.203.043-.285.129-.366l.086-.081a.217.217 0 0 1 .172 0c.129.122.086.122.129.203.043.081.086.163.13.285.085.244.257.61.516 1.017.043.162.3.325.602.366z" fill="#0E80A4"/><path d="M64.855 170.72a.787.787 0 0 1-.13-.448c0-.366.13-.854.474-1.545.13-.245.172-.651.172-1.14 0-2.766-1.592-8.258-1.635-8.298l-.517-3.499c-.043-.163-.473-1.18-.731-1.831-.13-.325-.387-.569-.646-.732-.258-.163-.43-.244-.473-.244-1.463-.651-1.85-1.586-1.85-2.563 0-.691.172-1.383.172-2.075 0-.61-.13-1.139-.517-1.667-1.592-1.994-6.197-12.327-6.843-13.71a21.705 21.705 0 0 1-3.141.244c-11.232 0-15.235-8.99-15.32-9.153v-.041c-.388-1.179-.56-2.278-.69-3.173l.431-.081c2.152 5.655 8.263 7.567 15.837 7.567h.775c4.69-.082 8.004-2.116 10.544-5.452 2.926-3.864 3.959-8.461 3.959-13.14 0-2.929-.388-5.858-.99-8.624a45.6 45.6 0 0 0-1.937-6.671c-1.248-3.174-2.926-7.16-6.154-9.072-1.162-.692-2.84-1.261-4.217-1.343h-.388c-3.959-.04-7.445 4.434-9.21 7.282l-.43-.163c1.722-6.183 2.712-12 2.712-12v-.082l.043-.04c1.506-1.384 2.41-2.36 2.367-2.36 1.592-2.115 3.357-2.848 5.035-2.848.688 0 1.334.122 1.936.326l.087.04.043.082c.817 1.18 1.807 2.603 1.893 2.807.086.081.474.325.689.447.688.53 1.29 1.099 1.893 1.627 2.109 1.953 3.83 4.15 5.294 6.51 1.377 2.278 2.539 4.678 3.4 7.119.602 1.627 1.075 4.108 1.549 5.736 0 0 1.764 6.712 1.764 13.953 0 6.997-1.635 14.604-8.392 17.045.172.733.947 3.946 2.41 8.299 1.636 4.963 4.132 11.35 7.531 17.127l-.215.081.216-.081c.344.895 4.045 9.356 4.604 10.821.474 1.22 1.98 2.807 2.023 3.783 0 .244-.13.448-.387.57a.87.87 0 0 1-.43.122c-.948-.041-1.42-1.099-1.593-1.383 0-.041 0-.041-.043-.082-.387-.895-.732-1.627-.947-1.952-.043.488-.043 1.505-.301 2.074a.66.66 0 0 1-.603.407c-.086 0-.172 0-.258-.041-.56-.244-1.205-.895-1.635-1.464.086.529.215 1.18.215 1.668-.043.325 0 .61-.301.813-.086.041-.13.041-.172.041-.517-.041-1.12-.529-1.765-1.098-.387-.366-.775-.773-1.033-1.18 0 .529-.043 1.18-.258 1.586a.582.582 0 0 1-.516.326h-.043c-.689-.122-.947-.814-1.162-1.424 0-.041-.043-.081-.043-.122-.172.692-.474 1.587-1.033 2.36l-.043.04-.043.041h-.043c-.216.122-.388.203-.603.203-.129-.162-.301-.203-.387-.325zm-30.943-46.661s-.043 0 0 0c-.043-.041-.043-.041 0 0z" fill="#0E80A4"/><path d="M41.186 109.7c-.086 0-.13 0-.172.04 0 0 .043.041.129.082 0-.082 0-.082.043-.122zm2.237-.042h-.258c0 .041.043.041.043.041.086 0 .172 0 .215-.041z" fill="#E18F54"/><path d="M79.272 109.739c-.043.082-.086.204-.172.326 0 0-.3-1.587-1.29-1.343-.99.285-1.68 1.465-1.68 1.465s1.206 1.627 2.54 2.97c0-1.18.215-2.319.602-3.418z" fill="#fff"/><path d="M78.541 113.278c-1.334-1.342-2.539-2.969-2.539-2.969-.043-.041-.043-.122 0-.204.043 0 .689-1.261 1.808-1.586.086-.041.215-.041.3-.041.56 0 .862.448 1.034.814a.553.553 0 0 1 .086.244h.172c.086.041.172.163.129.244-.344.936-.56 1.912-.56 2.929v.447a.223.223 0 0 1-.129.204h-.086a.337.337 0 0 1-.215-.082zm-.043-.691c0-.854.172-1.668.43-2.482v-.04s-.043-.326-.215-.651c-.129-.326-.387-.57-.645-.57-.043 0-.086 0-.13.041-.43.122-.817.447-1.075.773-.172.203-.302.407-.388.488.216.366 1.076 1.424 2.023 2.441z" fill="#0E80A4"/><path d="M82.844 111.855s-.387-3.092-2.28-2.889c0 0-.775-.122-1.291.733-.43 1.098-.646 2.237-.56 3.417.603.61 1.248 1.139 1.765 1.424 0 0 .774.61.774.081 0-.285.99-2.034 2.281-3.702-.258.366-.516.651-.689.936z" fill="#fff"/><path d="M81.123 115.109c-.344 0-.645-.244-.732-.325-.559-.285-1.204-.854-1.807-1.465-.043-.04-.043-.081-.043-.122v-.447c0-1.058.215-2.034.603-3.051v-.041a1.578 1.578 0 0 1 1.42-.854h.258c1.033 0 1.592.813 1.894 1.586.129.366.258.692.3.977.13-.163.259-.326.431-.489a.277.277 0 0 1 .301-.04c.086.081.13.162.043.285a32.35 32.35 0 0 0-1.635 2.359c-.387.651-.646 1.22-.646 1.261 0 .082 0 .204-.086.285a.826.826 0 0 1-.3.081zm-.258-.529c.086.041.172.082.215.082.043-.285.258-.732.689-1.424.258-.407.56-.854.86-1.343v-.04s-.086-.692-.387-1.383c-.301-.692-.775-1.302-1.463-1.302h-.258c-.172 0-.646.041-.99.61-.344.936-.56 1.912-.56 2.888v.367c.56.569 1.162 1.098 1.679 1.342l.043.041c-.043 0 .043.081.172.162z" fill="#0E80A4"/><path d="M77.25 119.665c3.013-.935 3.4-.65 4.82-1.545 1.42-.855 5.423-3.458 4.906-6.753-.43-2.604-2.238-1.587-3.4-.407-1.29 1.668-2.28 3.417-2.28 3.702 0 .488-.775-.082-.775-.082-1.679-.895-4.304-4.393-4.304-4.393s-1.936-1.709-1.162-2.889c-.473-.244-.731-.691-.56-1.301.474-1.587-.344-1.221-2.022-.082-.904.57-.602-.04-.473-.651.129-.569.129-1.098-1.033-.772-.215.04-.388.122-.517.162-1.549 1.343-3.313 3.743-2.625 7.079.517 2.441 2.195 5.207 4.605 7.363 1.076.488 2.926 1.139 4.82.569z" fill="#fff"/><path d="M75.7 120.072c-1.377 0-2.582-.447-3.4-.895l-.043-.04c-2.453-2.156-4.131-4.963-4.647-7.445a9.16 9.16 0 0 1-.13-1.464c0-2.645 1.55-4.597 2.84-5.777l.087-.041.516-.122c.258-.081.474-.122.646-.122a.84.84 0 0 1 .56.204c.128.122.128.284.128.447 0 .366-.172.773-.215 1.017.043-.041.13-.081.258-.163.904-.569 1.507-.976 2.023-1.017.13 0 .301.041.388.163.085.122.085.244.129.407 0 .203-.044.447-.13.732-.043.122-.043.244-.043.326 0 .366.173.569.474.732l.129.122v.163a.784.784 0 0 0-.172.528c0 .489.301 1.017.645 1.424.302.407.646.692.646.692l.043.04s.645.855 1.506 1.831c.86.976 1.937 2.075 2.711 2.482l.043.04a.6.6 0 0 0 .216.122c.086.041.172.082.215.082.043-.285.258-.733.688-1.424.43-.692.99-1.546 1.679-2.441.645-.651 1.463-1.261 2.324-1.261.731 0 1.334.569 1.506 1.79.043.203.043.407.043.61 0 3.133-3.701 5.492-5.035 6.306-1.507.895-1.894.651-4.863 1.545-.689.367-1.248.407-1.765.407zm0-.366c.474 0 .99-.081 1.463-.203 3.056-.936 3.4-.692 4.777-1.505 1.335-.814 4.864-3.133 4.864-5.98 0-.204 0-.367-.044-.57-.215-1.18-.602-1.465-1.076-1.465-.559 0-1.377.529-1.936 1.14-.646.854-1.205 1.667-1.592 2.359-.388.651-.646 1.22-.646 1.261 0 .081 0 .204-.086.285a.481.481 0 0 1-.301.122c-.345 0-.646-.244-.732-.326-1.721-.935-4.174-4.23-4.346-4.434-.173-.162-1.378-1.261-1.378-2.4 0-.203.043-.366.13-.569-.345-.204-.56-.57-.517-.977 0-.122 0-.285.043-.447.086-.285.13-.529.13-.651s-.044-.163-.044-.163c-.172-.041-.86.366-1.764.936-.258.163-.43.244-.646.285a.48.48 0 0 1-.301-.122c-.043-.082-.043-.163-.043-.204 0-.325.215-.773.215-1.098-.043-.244 0-.244-.258-.285-.13 0-.258.041-.516.081a8.107 8.107 0 0 0-.474.122c-1.248 1.139-2.668 2.97-2.668 5.452 0 .447.043.895.129 1.383.473 2.359 2.152 5.126 4.519 7.241.731.285 1.85.732 3.098.732z" fill="#0E80A4"/><path d="M56.12 77.52a23.166 23.166 0 0 1 1.893 1.627 31.736 31.736 0 0 1 5.25 6.469c3.099 1.098 9.64 3.458 12.61 4.719 3.959 1.708 4.432 2.481 3.83 3.01-.56.488-6.886 7.729-8.823 9.519-1.936 1.79-2.28 2.319.13 1.587 1.119-.326 1.119.203 1.032.773-.129.61-.43 1.22.474.651 1.678-1.099 2.496-1.505 2.023.081-.173.61.086 1.058.559 1.302v-.041s.301.326 1.076-.447c.731-.814 11.447-10.537 11.533-12.937.087-2.4-20.829-17.574-30.038-16.964 0 0-1.765-1.912-4.175-2.644.818 1.22 1.894 2.807 1.894 2.807.086.163.56.366.731.488z" fill="#0E80A4"/><path d="M71.354 118.404s.387.285 1.032.651c-1.463-1.301-2.668-2.847-3.485-4.434-.345 2.685-.732 4.516-.732 4.516s2.066.854 3.185-.733z" fill="#fff"/><path d="M69.417 119.543c-.731 0-1.334-.244-1.334-.244a.221.221 0 0 1-.129-.203s.387-1.831.732-4.516c0-.081.086-.162.172-.162s.215.04.258.122c.818 1.546 2.023 3.091 3.443 4.353a.239.239 0 0 1 .043.284.275.275 0 0 1-.301.041c-.388-.203-.689-.407-.904-.529-.56.651-1.334.854-1.98.854zm-.99-.528c.043 0 .13.04.173.04.215.041.473.122.817.122.603 0 1.248-.162 1.722-.895 0-.04.043-.04.086-.081a16.269 16.269 0 0 1-2.238-2.929" fill="#0E80A4"/><path d="M13.729 58.685c-2.281 7.648 9.941 24.937 37.14 21.073 3.485-.489 7.832-1.261 7.832-1.261s6.628-2.156 9.425-4.272c8.78-5.654 11.447-18.713 9.425-23.92" fill="#fff"/><path d="M13.729 58.685c-2.281 7.648 9.941 24.937 37.14 21.073 3.485-.489 7.832-1.261 7.832-1.261s6.628-2.156 9.425-4.272c8.78-5.654 11.447-18.713 9.425-23.92" stroke="#0E80A4" stroke-miterlimit="10"/><path d="M67.093 54.17s2.022-26.321-16.096-29.006c0 0-11.404-1.098-14.632 9.926 0 0-4.045-9.52-10.974-7.322-6.283 1.993-7.445 12.814-4.906 19.608.387.813-2.926 3.091-4.303 5.166-1.033 1.546-2.11 3.824-2.496 6.143" fill="#fff"/><path d="M67.093 54.17s2.022-26.321-16.096-29.006c0 0-11.404-1.098-14.632 9.926 0 0-4.045-9.52-10.974-7.322-6.283 1.993-7.445 12.814-4.906 19.608.387.813-2.926 3.091-4.303 5.166-1.033 1.546-2.11 3.824-2.496 6.143" stroke="#0E80A4" stroke-miterlimit="10"/><path d="M47.942 43.186a3.149 3.149 0 0 0-1.076-.204c-1.807 0-3.313 1.587-3.4 3.54-.043 1.545.818 2.847 2.066 3.335a3.15 3.15 0 0 0 1.076.204c1.808 0 3.314-1.587 3.4-3.54.043-1.505-.818-2.847-2.066-3.335z" fill="#0E80A4"/><path d="M44.284 48.434c.086.488.517.813.947.732.43-.081.732-.529.646-1.017-.086-.488-.517-.814-.947-.732-.387.081-.689.529-.646 1.017z" fill="#FFFAED"/><path d="M26.553 43.877c-.3-.122-.602-.203-.903-.203-1.463-.04-2.625 1.383-2.582 3.173.043 1.383.817 2.604 1.85 3.051.301.122.603.203.904.203 1.463.041 2.625-1.383 2.582-3.173-.043-1.383-.818-2.603-1.85-3.05z" fill="#0E80A4"/><path d="M23.842 48.556c.086.407.43.65.732.61.344-.081.516-.407.43-.814-.086-.406-.387-.65-.731-.61-.302.081-.517.448-.43.814z" fill="#FFFAED"/><path d="M47.081 68.57c-4.432 1.994-10.027 2.36-14.76 2.075a25.896 25.896 0 0 1-1.765-.163c-4.52-.61-9.124-2.196-12.954-4.719-1.635-1.057-2.54-2.318-4.002-3.62l.129.65c1.506 1.303 1.334 1.831 3.658 3.296 3.916 2.522 8.435 4.353 12.997 4.963.602.081 1.204.122 1.764.163 4.777.284 10.372-.082 14.933-2.116 2.023-.935 5.122-2.847 6.327-5.044l-.302-.204c-1.119 2.034-4.045 3.824-6.025 4.72z" fill="#0E80A4"/><path d="M52.375 62.143s0 2.929 3.099 2.644c0 .04-2.367-.285-3.099-2.644zm-22.594-7.689l1.42.61c1.464.61 3.099.814 4.691.489l1.12-.204c.473-.04.645.529.257.732l-3.356 1.912c-.861.489-1.98.366-2.668-.284l-2.195-2.116c-.517-.488 0-1.26.731-1.139zm66.877-6.753c-3.012 8.869-17.515 14.97-19.71 9.113-3.357-8.869-10.156-.651-10.027-3.133.258-4.963 5.508-9.438 7.445-14.157 3.141-7.607 10.673-11.96 16.827-9.682 6.154 2.279 8.09 10.09 5.465 17.86z" fill="#0E80A4"/><path d="M73.548 38.263c2.883-2.481 5.896-4.922 9.124-6.956 2.97-1.912 6.584-1.668 9.769-.285 2.797 1.22 3.7 4.068 4.346 6.672 1.291 5.207.302 10.333-3.055 14.645-2.711 3.54-7.273 4.638-11.448 6.061-1.678.57-.129 1.099.904.733 4.777-1.628 9.511-2.93 12.782-6.876 4.088-4.881 4.561-10.983 2.84-16.8-.86-2.848-2.41-4.72-5.422-5.859-3.185-1.18-7.058-1.057-10.157.163-4.346 1.709-8.177 5.33-11.62 8.299-1.032.854 1.42.65 1.937.203zM12.222 90.01c-.129.243-.387.65-.903.854-.689.284-1.636.162-2.712-.366-.946-.448-1.764-1.628-1.98-2.807-.128.081-.344.203-.559.325-.731.285-1.893.407-3.4-.57C1.076 86.39.13 84.966.215 83.907a1.41 1.41 0 0 1 .904-1.098c.086-.04.215-.081.344-.122-.344-.407-.946-1.261-.774-2.075.129-.488.473-.854 1.119-1.098.086-.04.172-.082.3-.082-.214-.366-.602-1.22-.343-1.993.172-.488.516-.814 1.119-1.058.215-.081.473-.162.774-.203-.172-.407-.387-1.424.301-2.034a.946.946 0 0 1 .345-.204c1.248-.488 4.045.326 7.015 2.889.086-.163.172-.57.129-1.668-.086-1.465.645-2.44 1.42-2.766.344-.163.731-.163 1.033 0 .774.325.774.57.688 1.26-.043.204-.043.489-.086.814-.043 1.22.13 2.807 1.722 5.818.903 1.708.645 3.498-.775 4.963l4.777 5.044v.082c0 .04-.086 1.098-2.54 2.806l-.085.082-5.38-3.255z" fill="#fff"/><path d="M4.304 74.103c1.076-.407 3.787.204 6.972 2.97h.043c.086-.04.344-.285.258-1.912-.086-1.343.602-2.278 1.334-2.604.301-.122.603-.122.904 0 .904.407.56.53.516 1.912-.086 1.384.172 2.97 1.765 5.94.774 1.464.774 3.254-.861 4.881l4.863 5.085s-.086.977-2.453 2.685l-5.466-3.295s-.172.692-.903.977c-.517.203-1.334.203-2.582-.367-.947-.447-1.851-1.749-1.937-2.97 0 0-.301.285-.818.489-.688.285-1.764.366-3.184-.57-2.238-1.505-3.142-3.66-1.593-4.312.172-.081.388-.122.603-.162 0 0-2.195-2.238.086-3.133.129-.04.301-.122.473-.163 0 0-1.463-2.156.603-2.97.258-.08.56-.203.947-.243 0 0-.603-1.343.172-2.034a.435.435 0 0 1 .258-.204zm-.13-.285c-.128.041-.3.123-.387.245-.645.569-.516 1.505-.387 2.034-.215.04-.43.122-.602.162-.646.244-1.033.651-1.205 1.18-.259.692.043 1.465.258 1.912-.043 0-.086.04-.086.04-.689.285-1.076.692-1.205 1.221-.172.732.258 1.546.645 1.993-.043 0-.086.041-.086.041-.56.244-.947.692-.99 1.22-.129 1.1.861 2.564 2.497 3.663 1.549 1.057 2.797.895 3.571.61.13-.04.259-.122.388-.203.301 1.098 1.119 2.196 2.022 2.644 1.162.57 2.152.691 2.884.366.473-.203.774-.488.904-.773l5.078 3.051.215.122.215-.163c2.453-1.749 2.582-2.847 2.582-2.97v-.162l-.129-.122-4.69-4.678c1.376-1.505 1.635-3.295.688-5.004-1.592-3.01-1.765-4.556-1.722-5.736 0-.326.043-.57.087-.814.086-.691.086-1.057-.818-1.423-.345-.163-.775-.163-1.205 0-.818.325-1.636 1.383-1.55 2.929.044.691 0 1.098-.043 1.301-3.012-2.522-5.723-3.213-6.928-2.685z" fill="#0E80A4"/><path d="M11.448 75.73c0-.081-.086-.081-.086 0-.172.773-.129 1.627.043 2.36-.387.081-.688.447-.904.732-.559-.57-1.334-.976-2.151-1.261-.086-.529-.259-.976-.474-1.465-.043-.04-.129-.04-.129.041.086.448.215.895.301 1.343a15.088 15.088 0 0 0-1.032-.326c-.13-.04-.173.122-.087.163.388.122.775.244 1.162.407 0 .081.13.122.216.081.817.325 1.549.814 2.108 1.424.345.407.56 1.017.388 1.546-.259.691-1.076.65-1.722.488h-.043a2.362 2.362 0 0 1-.645-.204C5.81 80.002 4.26 77.683 3.53 75.201c-.043-.08-.13-.04-.13.041.216 1.75 1.033 3.295 2.368 4.556.731.692 1.98 1.587 3.141 1.831.258 1.18-1.119 1.505-2.152 1.343-.817-.123-1.592-.57-2.28-1.058-1.292-.936-2.152-2.156-2.798-3.54-.043-.08-.129-.04-.129.041 0 1.871 2.195 3.743 3.787 4.556a4.429 4.429 0 0 0 2.066.53c.301.894.344 1.993-.904 2.196-.688.122-1.42-.203-2.023-.488-1.592-.773-2.625-2.319-3.658-3.62-.043-.082-.172 0-.129.08.947 1.831 2.582 3.825 4.777 4.353.388.082.818.163 1.248.082.086.366.172.692.043 1.098-.129.448-.473.733-.946.855a.061.061 0 0 0 0 .122c1.118.162 1.678-1.302 1.248-2.157a1.82 1.82 0 0 0 .602-.366c.603-.65.56-1.464.13-2.156.128 0 .257-.04.387-.081.817-.244 1.377-.936 1.161-1.668.173 0 .345.04.517 0 1.119-.122 1.635-.895 1.291-1.912a1.789 1.789 0 0 0-.516-.854 1.91 1.91 0 0 1 .473-.326c.172-.122.387-.203.56-.325a.119.119 0 0 0 0-.163c0-.854 0-1.668-.216-2.44z" fill="#0E80A4"/><path d="M12.481 86.51c-1.98 0-2.97-2.318-2.625-3.905 0-.08-.086-.122-.13-.04-.774 1.505.69 4.881 2.798 4.068.086 0 .043-.122-.043-.122zm4.002-3.131c-.517 1.016-1.55 2.278-2.797 2.522-.043 0-.043.081 0 .081 1.42.081 2.668-1.383 2.926-2.603 0-.041-.13-.082-.13 0z" fill="#0E80A4"/><path d="M43.767 80.816C41.228 82.89 33.44 90.09 30.254 91.148c-2.883.936-5.853.651-8.392-.976-2.195-1.383-3.787-3.54-5.078-5.654 0-.082 0-.123-.043-.204 0-.122-.13-.163-.215-.122-.043 0-.13.04-.086.122-.13.57-.259 1.18-.216 1.75.043.447.259.854.43 1.26-.559-.406-1.161-.894-1.893-.935-.172 0-.344.163-.258.325.344.773.99 1.383 1.42 2.116-.86-.285-1.678-.692-2.625-.692-.172 0-.258.244-.13.325.474.489.99.936 1.507 1.384-.86-.244-1.721-.407-2.539-.122-.172.04-.172.284-.043.366.646.488 1.291.895 1.98 1.22a6.71 6.71 0 0 0-1.42.529c-.173.081-.087.325.129.285.043 0 .129-.04.172-.04 2.41.528 4.432 2.237 6.369 3.62 2.109 1.546 4.26 2.563 6.972 2.685 3.055.081 5.939-1.058 8.52-2.441 2.368-1.261 5.036-2.848 6.843-4.882" fill="#0E80A4"/></g><g clip-path="url(#c)"><path d="M68.212 73.37c10.156-6.671 8.65-15.824 8.263-17.736 1.764.854 3.873 1.302 5.68 1.302 1.12 0 2.238-.163 3.314-.489-2.754 6.59-5.293 9.316-10.845 13.466-3.443 2.603-5.465 3.295-6.412 3.458zM22.766 21.706c-2.453 3.499-4.088 7.607-4.518 11.431-.56 5.085.43 10.252 2.582 14.97-2.41-6.833-1.463-18.834 4.82-20.746 6.928-2.116 10.845 7.444 10.845 7.444 3.4-10.983 14.804-9.722 14.804-9.722 18.075 2.929 15.708 27.134 15.708 27.134s9.167-19.039 21.216-17.656v-.081c-2.495-10.17-9.553-18.754-19.495-23.107-3.959-1.708-8.348-2.766-13.125-2.97-6.284-.244-12.136.245-17.99 2.482 0 0-4.002 1.261-4.905-.732-.861-2.034-4.089.081-1.076 2.237 0 0-3.917-.203-4.863 1.14-.947 1.301 2.84 1.098 4.346.732-1.377.325-2.97 1.87-3.959 2.684-1.678 1.343-3.142 2.97-4.39 4.76z" fill="#0E80A4"/><path d="M86.89 34.277c-10.286-.082-14.332 11.675-15.063 13.994-.775-.733-7.445-21.276-20.528-23.392 0 0-.344-.04-.904-.04-2.711-.041-10.888 1.26-13.9 9.966-.818-1.79-3.701-7.24-8.607-7.322a6.94 6.94 0 0 0-2.152.325c-4.304 1.343-6.24 6.346-6.37 12.001a26.548 26.548 0 0 0 .345 4.922c-.947-2.97-1.463-6.06-1.42-9.153 0-.813.043-1.627.172-2.4.43-3.783 2.065-7.851 4.475-11.35a24.561 24.561 0 0 1 4.304-4.719c.99-.813 2.582-2.319 3.873-2.644l-.129-.366c-.645.163-1.721.285-2.668.285-.474 0-.904-.041-1.205-.163-.301-.081-.387-.203-.387-.285 0-.04.043-.162.129-.285.602-.935 3.442-1.098 4.346-1.057h.302l.688.04-.516-.366c-.904-.65-1.162-1.26-1.162-1.708 0-.61.516-1.017.99-.977.344 0 .645.163.903.692.43.976 1.507 1.261 2.496 1.261 1.334 0 2.669-.407 2.669-.407 5.207-1.952 10.371-2.603 15.88-2.522.688 0 1.334.04 2.022.04 4.734.204 9.124 1.221 13.04 2.93 9.812 4.271 16.827 12.733 19.323 22.78a6.267 6.267 0 0 0-.947-.08z" fill="#0E80A4"/><path d="M85.513 56.57c11.662-3.784 16.482-24.409 5.637-25.792a15.326 15.326 0 0 0-1.893-.122c-10.716 0-22.55 22.09-22.55 22.09" fill="#fff"/><path d="M85.513 56.57c11.662-3.784 16.482-24.409 5.637-25.792a15.326 15.326 0 0 0-1.893-.122c-10.716 0-22.55 22.09-22.55 22.09" stroke="#0E80A4" stroke-miterlimit="10"/><path d="M81.725 39.118c-.301.284-.56.57-.818.854.258-.285.56-.57.818-.854z" fill="#D46E43"/><path d="M50.007 128.493c15.493-.285 15.02-20.95 15.02-20.95-2.84-17.697-7.66-23.31-13.858-23.758-4.26-.325-7.875 4.394-9.683 7.363-2.496 9.194-7.273 17.696-8.176 27.216 0 0-.087.935.086 2.441 2.237 5.939 8.779 7.81 16.611 7.688z" fill="#fff"/><path d="M33.18 120.845v-.04c-.085-.733-.085-1.343-.085-1.75 0-.447.043-.691.043-.691.904-9.56 5.68-18.103 8.134-27.256v-.081c1.764-2.848 5.164-7.445 9.424-7.486h.43c3.142.244 5.983 1.83 8.306 5.533 2.325 3.701 4.261 9.56 5.681 18.428v.163c0 1.017-.086 6.183-2.022 11.106-1.937 4.922-5.724 9.722-13.17 9.844v-.203.203h-.816c-7.445.082-13.728-1.912-15.923-7.77zm16.268 7.445h.775c7.316-.122 11.017-4.719 12.997-9.601 1.936-4.882 2.065-10.007 2.065-10.984v-.162c-1.42-8.828-3.356-14.605-5.723-18.266-2.367-3.62-5.079-5.085-8.134-5.33h-.387c-3.96-.04-7.446 4.394-9.167 7.242-2.54 9.194-7.36 17.696-8.263 27.175 0 0-.043.244-.043.691 0 .407 0 .977.086 1.709 2.152 5.614 8.263 7.526 15.794 7.526z" fill="#0E80A4"/><path d="M41.186 109.7c-.086 0-.13 0-.172.04 0 0 .043.041.129.082 0-.082 0-.082.043-.122zm2.237-.042h-.258c0 .041.043.041.043.041.086 0 .172 0 .215-.041z" fill="#E18F54"/><path d="M79.272 109.739c-.043.082-.086.204-.172.326 0 0-.3-1.587-1.29-1.343-.99.285-1.68 1.465-1.68 1.465s1.206 1.627 2.54 2.97c0-1.18.215-2.319.602-3.418z" fill="#fff"/><path d="M78.541 113.278c-1.334-1.342-2.539-2.969-2.539-2.969-.043-.041-.043-.122 0-.204.043 0 .689-1.261 1.808-1.586.086-.041.215-.041.3-.041.56 0 .862.448 1.034.814a.553.553 0 0 1 .086.244h.172c.086.04.172.162.129.244-.344.935-.56 1.912-.56 2.929v.447a.223.223 0 0 1-.129.204h-.086a.337.337 0 0 1-.215-.082zm-.043-.691c0-.854.172-1.668.43-2.482v-.04s-.043-.326-.215-.651c-.129-.326-.387-.57-.645-.57-.043 0-.086 0-.13.041-.43.122-.817.447-1.075.773-.172.203-.302.407-.388.488.216.366 1.076 1.424 2.023 2.441z" fill="#0E80A4"/><path d="M82.844 111.855s-.387-3.092-2.28-2.889c0 0-.775-.122-1.291.733-.43 1.098-.646 2.237-.56 3.417.603.61 1.248 1.139 1.765 1.424 0 0 .774.61.774.081 0-.285.99-2.034 2.281-3.702-.258.366-.516.651-.689.936z" fill="#fff"/><path d="M81.123 115.109c-.344 0-.645-.244-.732-.325-.559-.285-1.204-.855-1.807-1.465-.043-.04-.043-.081-.043-.122v-.447c0-1.058.215-2.034.603-3.051v-.041a1.578 1.578 0 0 1 1.42-.854h.258c1.033 0 1.592.813 1.894 1.586.129.366.258.692.3.976.13-.162.259-.325.431-.488a.277.277 0 0 1 .301-.04c.086.081.13.162.043.284a32.568 32.568 0 0 0-1.635 2.36c-.387.651-.646 1.22-.646 1.261 0 .081 0 .203-.086.285a.847.847 0 0 1-.3.081zm-.258-.529c.086.041.172.082.215.082.043-.285.258-.733.689-1.424.258-.407.56-.854.86-1.343v-.04s-.086-.692-.387-1.383c-.301-.692-.775-1.302-1.463-1.302h-.258c-.172 0-.646.04-.99.61-.344.936-.56 1.912-.56 2.888v.366c.56.57 1.162 1.099 1.679 1.343l.043.041c-.043 0 .043.081.172.162z" fill="#0E80A4"/><path d="M77.25 119.665c3.013-.935 3.4-.651 4.82-1.546 1.42-.854 5.423-3.457 4.906-6.753-.43-2.603-2.238-1.586-3.4-.406-1.29 1.668-2.28 3.417-2.28 3.702 0 .488-.775-.082-.775-.082-1.679-.895-4.304-4.393-4.304-4.393s-1.936-1.709-1.162-2.889c-.473-.244-.731-.691-.56-1.301.474-1.587-.344-1.221-2.022-.082-.904.57-.602-.04-.473-.651.129-.569.129-1.098-1.033-.773-.215.041-.388.122-.517.163-1.549 1.343-3.313 3.743-2.625 7.079.517 2.44 2.195 5.207 4.605 7.363 1.076.488 2.926 1.139 4.82.569z" fill="#fff"/><path d="M75.7 120.072c-1.377 0-2.582-.447-3.4-.895l-.043-.041c-2.453-2.156-4.131-4.963-4.647-7.444a9.162 9.162 0 0 1-.13-1.465c0-2.644 1.55-4.596 2.84-5.776l.087-.041.516-.122c.258-.081.474-.122.646-.122.215 0 .43.081.56.203.128.122.128.285.128.448 0 .366-.172.773-.215 1.017.043-.041.13-.081.258-.163.904-.569 1.507-.976 2.023-1.017.13 0 .301.041.388.163.085.122.085.244.129.407 0 .203-.044.447-.13.732-.043.122-.043.244-.043.325 0 .367.173.57.474.733l.129.122v.162a.789.789 0 0 0-.172.529c0 .488.301 1.017.645 1.424.302.407.646.692.646.692l.043.04s.645.855 1.506 1.831c.86.976 1.937 2.075 2.711 2.481l.043.041a.6.6 0 0 0 .216.122c.086.041.172.082.215.082.043-.285.258-.733.688-1.424.43-.692.99-1.546 1.679-2.441.645-.651 1.463-1.261 2.324-1.261.731 0 1.334.569 1.506 1.79.043.203.043.407.043.61 0 3.132-3.701 5.492-5.035 6.305-1.507.895-1.894.651-4.863 1.546-.689.366-1.248.407-1.765.407zm0-.366c.474 0 .99-.081 1.463-.203 3.056-.936 3.4-.692 4.777-1.506 1.335-.813 4.864-3.132 4.864-5.98 0-.203 0-.366-.044-.569-.215-1.18-.602-1.465-1.076-1.465-.559 0-1.377.529-1.936 1.139-.646.855-1.205 1.668-1.592 2.36-.388.651-.646 1.22-.646 1.261 0 .081 0 .203-.086.285a.481.481 0 0 1-.301.122c-.345 0-.646-.244-.732-.326-1.721-.935-4.174-4.23-4.346-4.434-.173-.163-1.378-1.261-1.378-2.4 0-.203.043-.366.13-.57-.345-.203-.56-.569-.517-.976 0-.122 0-.285.043-.447.086-.285.13-.529.13-.651s-.044-.163-.044-.163c-.172-.041-.86.366-1.764.936-.258.162-.43.244-.646.284a.475.475 0 0 1-.301-.122c-.043-.081-.043-.162-.043-.203 0-.325.215-.773.215-1.098-.043-.244 0-.244-.258-.285-.13 0-.258.041-.516.081a8.107 8.107 0 0 0-.474.122c-1.248 1.139-2.668 2.97-2.668 5.451 0 .448.043.895.129 1.384.473 2.359 2.152 5.125 4.519 7.241.731.285 1.85.732 3.098.732z" fill="#0E80A4"/><path d="M56.12 77.52a23.184 23.184 0 0 1 1.893 1.627 31.743 31.743 0 0 1 5.25 6.469c3.099 1.098 9.64 3.457 12.61 4.719 3.959 1.708 4.432 2.481 3.83 3.01-.56.488-6.886 7.729-8.823 9.519-1.936 1.79-2.28 2.319.13 1.587 1.119-.326 1.119.203 1.032.773-.129.61-.43 1.22.474.651 1.678-1.099 2.496-1.506 2.023.081-.173.61.086 1.058.559 1.302v-.041s.301.325 1.076-.447c.731-.814 11.447-10.537 11.533-12.937.087-2.4-20.829-17.574-30.038-16.964 0 0-1.765-1.912-4.175-2.644.818 1.22 1.894 2.807 1.894 2.807.086.163.56.366.731.488z" fill="#0E80A4"/><path d="M71.354 118.404s.387.285 1.032.651c-1.463-1.302-2.668-2.847-3.485-4.434-.345 2.685-.732 4.516-.732 4.516s2.066.854 3.185-.733z" fill="#fff"/><path d="M69.417 119.543c-.731 0-1.334-.244-1.334-.244a.221.221 0 0 1-.129-.203s.387-1.831.732-4.516c0-.081.086-.162.172-.162s.215.04.258.122c.818 1.546 2.023 3.091 3.443 4.352a.24.24 0 0 1 .043.285.275.275 0 0 1-.301.041c-.388-.203-.689-.407-.904-.529-.56.651-1.334.854-1.98.854zm-.99-.528c.043 0 .13.04.173.04.215.041.473.122.817.122.603 0 1.248-.162 1.722-.895 0-.04.043-.04.086-.081a16.269 16.269 0 0 1-2.238-2.929" fill="#0E80A4"/><path d="M13.729 58.685c-2.281 7.648 9.941 24.937 37.14 21.072 3.485-.488 7.832-1.26 7.832-1.26s6.628-2.157 9.425-4.272c8.78-5.655 11.447-18.713 9.425-23.92" fill="#fff"/><path d="M13.729 58.685c-2.281 7.648 9.941 24.937 37.14 21.072 3.485-.488 7.832-1.26 7.832-1.26s6.628-2.157 9.425-4.272c8.78-5.655 11.447-18.713 9.425-23.92" stroke="#0E80A4" stroke-miterlimit="10"/><path d="M67.093 54.17s2.022-26.321-16.096-29.006c0 0-11.404-1.099-14.632 9.926 0 0-4.045-9.52-10.974-7.323-6.283 1.994-7.445 12.815-4.906 19.609.387.813-2.926 3.091-4.303 5.166-1.033 1.546-2.11 3.824-2.496 6.143" fill="#fff"/><path d="M67.093 54.17s2.022-26.321-16.096-29.006c0 0-11.404-1.099-14.632 9.926 0 0-4.045-9.52-10.974-7.323-6.283 1.994-7.445 12.815-4.906 19.609.387.813-2.926 3.091-4.303 5.166-1.033 1.546-2.11 3.824-2.496 6.143" stroke="#0E80A4" stroke-miterlimit="10"/><path d="M47.942 43.186a3.147 3.147 0 0 0-1.076-.204c-1.807 0-3.313 1.587-3.4 3.54-.043 1.545.818 2.847 2.066 3.335a3.15 3.15 0 0 0 1.076.204c1.808 0 3.314-1.587 3.4-3.54.043-1.505-.818-2.847-2.066-3.335z" fill="#0E80A4"/><path d="M44.284 48.434c.086.488.517.813.947.732.43-.082.732-.53.646-1.017-.086-.488-.517-.814-.947-.733-.387.082-.689.53-.646 1.018z" fill="#FFFAED"/><path d="M26.553 43.877c-.3-.122-.602-.203-.903-.203-1.463-.04-2.625 1.383-2.582 3.173.043 1.383.817 2.603 1.85 3.051.301.122.603.203.904.203 1.463.041 2.625-1.383 2.582-3.173-.043-1.383-.818-2.603-1.85-3.05z" fill="#0E80A4"/><path d="M23.842 48.556c.086.406.43.65.732.61.344-.082.516-.407.43-.814-.086-.407-.387-.65-.731-.61-.302.081-.517.447-.43.814z" fill="#FFFAED"/><path d="M47.081 68.57c-4.432 1.994-10.027 2.36-14.76 2.075a25.896 25.896 0 0 1-1.765-.163c-4.52-.61-9.124-2.197-12.954-4.719-1.635-1.057-2.54-2.319-4.002-3.62l.129.65c1.506 1.302 1.334 1.831 3.658 3.296 3.916 2.522 8.435 4.353 12.997 4.963.602.081 1.204.122 1.764.162 4.777.285 10.372-.08 14.933-2.115 2.023-.936 5.122-2.848 6.327-5.044l-.302-.204c-1.119 2.034-4.045 3.824-6.025 4.72z" fill="#0E80A4"/><path d="M52.375 62.143s0 2.929 3.099 2.644c0 .04-2.367-.285-3.099-2.644zm-22.594-7.689l1.42.61c1.464.61 3.099.814 4.691.488l1.12-.203c.473-.04.645.529.257.732l-3.356 1.912c-.861.488-1.98.366-2.668-.285l-2.195-2.115c-.517-.488 0-1.261.731-1.139zm66.877-6.753c-3.012 8.868-17.515 14.97-19.71 9.113-3.357-8.869-10.156-.651-10.027-3.133.258-4.963 5.508-9.438 7.445-14.157 3.141-7.607 10.673-11.96 16.827-9.682 6.154 2.278 8.09 10.09 5.465 17.86z" fill="#0E80A4"/><path d="M73.548 38.263c2.883-2.481 5.896-4.922 9.124-6.956 2.97-1.912 6.584-1.668 9.769-.285 2.797 1.22 3.7 4.068 4.346 6.672 1.291 5.207.302 10.333-3.055 14.645-2.711 3.539-7.273 4.637-11.448 6.061-1.678.57-.129 1.099.904.732 4.777-1.627 9.511-2.929 12.782-6.875 4.088-4.881 4.561-10.983 2.84-16.8-.86-2.848-2.41-4.72-5.422-5.859-3.185-1.18-7.058-1.057-10.157.163-4.346 1.709-8.177 5.33-11.62 8.299-1.032.854 1.42.65 1.937.203zM12.222 90.01c-.129.243-.387.65-.903.854-.689.284-1.636.162-2.712-.367-.946-.447-1.764-1.627-1.98-2.806-.128.08-.344.203-.559.325-.731.285-1.893.407-3.4-.57C1.076 86.39.13 84.965.215 83.907a1.41 1.41 0 0 1 .904-1.098 3.07 3.07 0 0 1 .344-.122c-.344-.407-.946-1.261-.774-2.075.129-.488.473-.854 1.119-1.098.086-.041.172-.082.3-.082-.214-.366-.602-1.22-.343-1.993.172-.488.516-.814 1.119-1.058.215-.081.473-.162.774-.203-.172-.407-.387-1.424.301-2.034a.946.946 0 0 1 .345-.204c1.248-.488 4.045.326 7.015 2.889.086-.163.172-.57.129-1.668-.086-1.465.645-2.441 1.42-2.767.344-.162.731-.162 1.033 0 .774.326.774.57.688 1.262-.043.203-.043.488-.086.813-.043 1.22.13 2.807 1.722 5.818.903 1.708.645 3.498-.775 4.963l4.777 5.044v.081c0 .041-.086 1.099-2.54 2.807l-.085.082-5.38-3.255z" fill="#fff"/><path d="M4.304 74.103c1.076-.407 3.787.204 6.972 2.97h.043c.086-.04.344-.285.258-1.912-.086-1.343.602-2.278 1.334-2.604.301-.122.603-.122.904 0 .904.407.56.529.516 1.912-.086 1.383.172 2.97 1.765 5.94.774 1.464.774 3.254-.861 4.881l4.863 5.085s-.086.977-2.453 2.685l-5.466-3.295s-.172.692-.903.977c-.517.203-1.334.203-2.582-.367-.947-.447-1.851-1.749-1.937-2.97 0 0-.301.285-.818.489-.688.285-1.764.366-3.184-.57-2.238-1.505-3.142-3.661-1.593-4.312.172-.081.388-.122.603-.163 0 0-2.195-2.237.086-3.132.129-.04.301-.122.473-.163 0 0-1.463-2.156.603-2.97.258-.08.56-.203.947-.243 0 0-.603-1.343.172-2.034a.435.435 0 0 1 .258-.204zm-.13-.285c-.128.041-.3.122-.387.244-.645.57-.516 1.506-.387 2.034-.215.041-.43.123-.602.163-.646.244-1.033.651-1.205 1.18-.259.692.043 1.464.258 1.912-.043 0-.086.04-.086.04-.689.285-1.076.692-1.205 1.221-.172.732.258 1.546.645 1.993-.043 0-.086.041-.086.041-.56.244-.947.692-.99 1.22C0 84.965.99 86.43 2.626 87.528c1.549 1.057 2.797.895 3.571.61.13-.04.259-.122.388-.204.301 1.099 1.119 2.197 2.022 2.645 1.162.57 2.152.691 2.884.366.473-.203.774-.488.904-.773l5.078 3.051.215.122.215-.163c2.453-1.749 2.582-2.847 2.582-2.97v-.162l-.129-.122-4.69-4.678c1.376-1.506 1.635-3.296.688-5.004-1.592-3.01-1.765-4.556-1.722-5.736 0-.326.043-.57.087-.814.086-.691.086-1.057-.818-1.424-.345-.162-.775-.162-1.205 0-.818.326-1.636 1.384-1.55 2.93.044.691 0 1.098-.043 1.301-3.012-2.522-5.723-3.214-6.928-2.685z" fill="#0E80A4"/><path d="M11.448 75.73c0-.081-.086-.081-.086 0-.172.773-.129 1.627.043 2.36-.387.081-.688.447-.904.732-.559-.57-1.334-.976-2.151-1.261-.086-.529-.259-.977-.474-1.465-.043-.04-.129-.04-.129.041.086.448.215.895.301 1.342a15.14 15.14 0 0 0-1.032-.325c-.13-.04-.173.122-.087.163.388.122.775.244 1.162.407 0 .08.13.122.216.08.817.326 1.549.814 2.108 1.425.345.406.56 1.017.388 1.546-.259.691-1.076.65-1.722.488h-.043a2.362 2.362 0 0 1-.645-.204C5.81 80.002 4.26 77.683 3.53 75.201c-.043-.081-.13-.04-.13.041.216 1.75 1.033 3.295 2.368 4.556.731.692 1.98 1.587 3.141 1.83.258 1.18-1.119 1.506-2.152 1.343-.817-.122-1.592-.57-2.28-1.057-1.292-.936-2.152-2.156-2.798-3.54-.043-.08-.129-.04-.129.041 0 1.871 2.195 3.743 3.787 4.556a4.428 4.428 0 0 0 2.066.53c.301.894.344 1.993-.904 2.196-.688.122-1.42-.203-2.023-.488-1.592-.773-2.625-2.319-3.658-3.62-.043-.082-.172 0-.129.08.947 1.831 2.582 3.825 4.777 4.353.388.082.818.163 1.248.082.086.366.172.691.043 1.098-.129.448-.473.732-.946.854-.087 0-.087.123 0 .123 1.118.162 1.678-1.302 1.248-2.157.215-.081.43-.203.602-.366.603-.65.56-1.464.13-2.156.128 0 .257-.04.387-.081.817-.244 1.377-.936 1.161-1.668.173 0 .345.04.517 0 1.119-.122 1.635-.895 1.291-1.912a1.79 1.79 0 0 0-.516-.854c.129-.122.3-.244.473-.326.172-.122.387-.203.56-.325a.119.119 0 0 0 0-.163c0-.854 0-1.668-.216-2.44z" fill="#0E80A4"/><path d="M12.481 86.51c-1.98 0-2.97-2.318-2.625-3.905 0-.081-.086-.122-.13-.04-.774 1.505.69 4.881 2.798 4.068.086 0 .043-.122-.043-.122zm4.002-3.132c-.517 1.017-1.55 2.278-2.797 2.523-.043 0-.043.081 0 .081 1.42.081 2.668-1.383 2.926-2.604 0-.04-.13-.081-.13 0z" fill="#0E80A4"/><path d="M43.767 80.815c-2.539 2.075-10.328 9.276-13.513 10.333-2.883.936-5.853.651-8.392-.976-2.195-1.383-3.787-3.54-5.078-5.655 0-.081 0-.122-.043-.203 0-.122-.13-.163-.215-.122-.043 0-.13.04-.086.122-.13.57-.259 1.18-.216 1.75.043.447.259.854.43 1.26-.559-.406-1.161-.895-1.893-.935-.172 0-.344.162-.258.325.344.773.99 1.383 1.42 2.115-.86-.284-1.678-.691-2.625-.691-.172 0-.258.244-.13.325.474.489.99.936 1.507 1.384-.86-.244-1.721-.407-2.539-.122-.172.04-.172.284-.043.366a11.22 11.22 0 0 0 1.98 1.22 6.71 6.71 0 0 0-1.42.529c-.173.081-.087.325.129.285.043 0 .129-.041.172-.041 2.41.529 4.432 2.237 6.369 3.62 2.109 1.546 4.26 2.564 6.972 2.686 3.055.08 5.939-1.058 8.52-2.441 2.368-1.261 5.036-2.848 6.843-4.882" fill="#0E80A4"/></g><defs><clipPath id="a"><path fill="#fff" transform="translate(0 8.363)" d="M0 0h105.093v175.822H0z"/></clipPath><clipPath id="c"><path fill="#fff" transform="translate(.303 8)" d="M0 0h104.588v132.222H0z"/></clipPath></defs></svg>