<svg width="23" height="24" viewBox="0 0 23 24" fill="none" xmlns="http://www.w3.org/2000/svg"><path d="M6.241 9.883l-.035-.036.035-.035.529-.529.035-.035.035.035 2.119 2.119h4.507l2.119-2.119.035-.035.035.035.529.529.035.035-.035.036L14.065 12v4.508l2.119 2.118.035.035-.035.036-.529.528-.035.036-.035-.036-2.119-2.118H8.96l-2.12 2.119-.035.036-.035-.036-.529-.528-.035-.036.035-.035 2.119-2.118V12L6.24 9.883zm2.966 6.377h4.011v-4.01h-4.01v4.01z" fill="url(#a)" stroke="url(#b)" stroke-width=".1"/><path d="M3.925 5.422h.323V3.927h.58l-.172-.587-1.19-.668-.002-.001a.69.69 0 0 1-.316-.427.69.69 0 0 1 .078-.525L3.716.9a.69.69 0 0 1 .428-.317.685.685 0 0 1 .517.074l1.76 1 .018.01.006.018.725 2.241h.916v1.495h1.92l1.216-2.676A2.452 2.452 0 0 1 13.45 1.31h3.027a2.45 2.45 0 0 1 2.447 2.447V5.48c.647.185 1.122.78 1.122 1.486v14.576c0 .852-.693 1.545-1.545 1.545H3.925a1.546 1.546 0 0 1-1.545-1.545V6.967c0-.852.693-1.545 1.545-1.545zm.441-3.957l-.332.554 1.32.741.019.01.005.02.333 1.137h.568l-.545-1.685-1.368-.777zm13.76 4.804h-.05V3.758c0-.882-.717-1.6-1.599-1.6H13.45c-.626 0-1.198.369-1.457.938L10.564 6.24l-.013.03H3.925a.698.698 0 0 0-.698.697v14.576c0 .384.313.697.698.697H18.5a.698.698 0 0 0 .697-.697V6.967a.698.698 0 0 0-.697-.698h-.374zM7.239 4.774H5.096v.648h2.142v-.648z" fill="url(#c)" stroke="url(#d)" stroke-width=".1"/><path d="M17.43 6.22v.05h-5.913l.028-.07 1.075-2.637c.187-.46.63-.757 1.127-.757h2.466c.67 0 1.216.545 1.216 1.217v2.196zm-.848-.798v-1.4a.37.37 0 0 0-.37-.369h-2.465a.367.367 0 0 0-.342.23l-.627 1.539h3.804z" fill="url(#e)" stroke="url(#f)" stroke-width=".1"/><defs><radialGradient id="a" cx="0" cy="0" r="1" gradientUnits="userSpaceOnUse" gradientTransform="matrix(-4.18364 -13.08621 23.74534 -7.59135 15.03 19.19)"><stop stop-color="#EC823E"/><stop offset="1" stop-color="#EC6749"/></radialGradient><radialGradient id="b" cx="0" cy="0" r="1" gradientUnits="userSpaceOnUse" gradientTransform="matrix(-4.18364 -13.08621 23.74534 -7.59135 15.03 19.19)"><stop stop-color="#EC823E"/><stop offset="1" stop-color="#EC6749"/></radialGradient><radialGradient id="c" cx="0" cy="0" r="1" gradientUnits="userSpaceOnUse" gradientTransform="rotate(-104.059 17.992 4.493) scale(30.644 45.175)"><stop stop-color="#EC823E"/><stop offset="1" stop-color="#EC6749"/></radialGradient><radialGradient id="d" cx="0" cy="0" r="1" gradientUnits="userSpaceOnUse" gradientTransform="rotate(-104.059 17.992 4.493) scale(30.644 45.175)"><stop stop-color="#EC823E"/><stop offset="1" stop-color="#EC6749"/></radialGradient><radialGradient id="e" cx="0" cy="0" r="1" gradientUnits="userSpaceOnUse" gradientTransform="matrix(-2.4531 -4.45885 11.78052 -6.48122 16.723 6.22)"><stop stop-color="#EC823E"/><stop offset="1" stop-color="#EC6749"/></radialGradient><radialGradient id="f" cx="0" cy="0" r="1" gradientUnits="userSpaceOnUse" gradientTransform="matrix(-2.4531 -4.45885 11.78052 -6.48122 16.723 6.22)"><stop stop-color="#EC823E"/><stop offset="1" stop-color="#EC6749"/></radialGradient></defs></svg>