<svg width="828" height="809" viewBox="0 0 828 809" fill="none" xmlns="http://www.w3.org/2000/svg"><path fill="#fff" d="M0 0h828v809H0z"/><path d="M275.54 386c-13.667.333-39.7 5.2-38.5 34 1.625 39 114.5 22.5 177 22.5m77.5-150c0 45.904-34.579 82.5-76.5 82.5s-76.5-36.596-76.5-82.5 34.579-82.5 76.5-82.5 76.5 36.596 76.5 82.5z" stroke="#000" stroke-width="10"/><path d="M369.697 355a63.504 63.504 0 0 0-2.157 16.5c0 30.652 6.5 46.5 48 46.5s48-15.848 48-46.5c0-5.746-.755-11.288-2.157-16.5" stroke="#000" stroke-width="10"/><path d="M507.54 239.5c0 4.088-.747 7.018-1.88 9.155-1.11 2.092-2.735 3.702-4.981 4.957-4.747 2.655-12.134 3.668-22.279 3.452-8.738-.186-18.769-1.245-29.799-2.409-1.602-.169-3.224-.34-4.867-.511-12.839-1.337-26.743-2.644-40.694-2.644-13.951 0-26.537 1.212-37.452 2.437-2.03.228-3.989.455-5.881.673-8.424.974-15.515 1.793-21.502 1.891-7.439.121-11.799-.94-14.367-3.033-2.329-1.899-4.298-5.617-4.298-13.968 0-51.615 42.061-93.5 94-93.5s94 41.885 94 93.5z" fill="#fff" stroke="#000" stroke-width="10"/><rect x="402.54" y="137" width="21" height="62" rx="5" fill="#fff" stroke="#000" stroke-width="10"/><rect x="383.54" y="197" width="59" height="62" rx="5" fill="#fff" stroke="#000" stroke-width="10"/><rect x="309.54" y="244" width="207" height="29" rx="5" fill="#fff" stroke="#000" stroke-width="10"/><path stroke="#000" stroke-width="10" d="M366.463 391.615l-84 35m31.077 19.314l51.465-51.465M364.54 447v-49m1.923-6.385l-84 35M279.54 381.5V442m-42-19.5c14.167 61 44.2 188.2 57 201 12.8 12.8 88 10.667 120 8M552.04 386c13.667.333 39.7 5.2 38.5 34-1.625 39-114.5 22.5-177 22.5m100.5 3.429l-51.465-51.465M463.04 447v-49m-1.923-6.385l84 35m2.923-45.115V442"/><path d="M590.04 424.5c-14.167 61-44.2 186.2-57 199-12.8 12.8-88 10.667-120 8" stroke="#000" stroke-width="10"/><path stroke="#000" stroke-width="10" stroke-linecap="round" d="M331.628 472.597l33.509 130.315m118.315-130.315l-33.51 130.315M407.943 470v132.912M318.54 501.011h185m-173 37.513h159m-148 39.602h144.5"/><path d="M251.482 513.645l35.148-2.934a5 5 0 0 1 5.3 3.91l10.408 47.38a5 5 0 0 1-4.193 6.024l-34.127 4.76a5 5 0 0 1-5.561-3.821l-11.43-49.205a5 5 0 0 1 4.455-6.114zm324.116 0l-35.148-2.934a5 5 0 0 0-5.3 3.91l-10.407 47.38a4.998 4.998 0 0 0 4.192 6.024l34.127 4.76a5 5 0 0 0 5.561-3.821l11.43-49.205a5 5 0 0 0-4.455-6.114z" fill="#fff" stroke="#000" stroke-width="10"/></svg>