<svg width="333" height="130" viewBox="0 0 333 130" fill="none" xmlns="http://www.w3.org/2000/svg"><g clip-path="url(#a)" fill="#62514B"><path d="M194.918 45.85c-4.188 0-7.477.904-10.768 2.708 0-9.631 0-18.359.3-21.368l-20.045 3.61v1.807l2.094.3c2.69.602 3.592 2.105 4.184 5.72.603 7.223.301 45.75 0 52.072 5.385 1.205 11.07 2.109 16.756 2.109 15.855 0 25.428-9.934 25.428-25.587 0-12.34-7.778-21.37-17.949-21.37zm-6.881 43.645c-1.198 0-2.695 0-3.59-.3-.301-4.213-.598-21.974-.301-37.624 1.795-.604 2.991-.904 4.488-.904 6.586 0 10.176 7.825 10.176 17.455-.002 12.044-4.49 21.373-10.773 21.373zM89.014 28.393H36.362v2.708l2.992.301c3.887.602 5.385 3.009 5.98 8.728.9 10.836.6 30.403 0 39.73-.597 5.72-2.091 8.43-5.98 8.727l-2.992.605V91.6h33.805v-2.408l-3.59-.605c-3.889-.299-5.385-3.007-5.983-8.727-.3-3.915-.6-10.236-.6-18.06l7.18.3c4.489 0 6.58 3.613 7.48 8.728h2.693V49.464h-2.694c-.9 5.117-2.99 8.727-7.478 8.727l-7.178.303c0-10.235.298-19.866.599-25.585h10.469c8.08 0 12.267 5.116 15.258 14.147l2.992-.903-.3-17.76z"/><path d="M106.067 45.249c14.959 0 22.438 10.234 22.438 23.778 0 12.943-8.377 23.782-23.336 23.782-14.957 0-22.436-10.236-22.436-23.782 0-12.942 8.375-23.778 23.334-23.778zm-.898 3.01c-6.582 0-8.377 9.03-8.377 20.768 0 11.438 2.992 20.768 8.976 20.768 6.876 0 8.674-9.03 8.674-20.768 0-11.437-2.988-20.768-9.273-20.768zm111.585 21.07c0-12.34 7.777-24.08 23.035-24.08 12.561 0 18.547 9.332 18.547 21.672h-27.822c-.301 11.136 5.084 19.264 15.856 19.264 4.787 0 7.179-1.201 10.173-3.31l1.194 1.504c-2.992 4.213-9.573 8.43-17.948 8.43-13.463-.001-23.035-9.633-23.035-23.48zm13.76-5.718l14.061-.302c0-6.02-.899-15.05-5.983-15.05s-7.781 8.427-8.078 15.352zm63.427-15.953c-3.589-1.507-8.375-2.41-13.76-2.41-11.066 0-17.951 6.621-17.951 14.449 0 7.827 5.081 11.136 12.269 13.545 7.477 2.707 9.573 4.815 9.573 8.427 0 3.612-2.693 6.922-7.48 6.922-5.682 0-9.873-3.31-13.163-12.341l-2.095.604.3 13.244c3.59 1.503 10.17 2.71 15.856 2.71 11.668 0 19.148-6.023 19.148-15.352 0-6.322-3.293-9.932-11.07-12.945-8.379-3.31-11.367-5.416-11.367-9.33 0-3.913 2.696-6.623 6.286-6.623 5.382 0 8.971 3.311 11.668 11.44l2.092-.602-.306-11.738zm-126.547-1.205c-5.084-3.007-14.061-1.505-18.846 9.333l.297-10.536-20.041 3.913v1.806l2.093.3c2.695.303 3.889 1.807 4.19 5.721.598 7.224.299 19.868 0 26.188-.301 3.609-1.495 5.415-4.19 5.717l-2.093.302v2.408h27.82v-2.408l-3.59-.302c-2.99-.302-3.888-2.108-4.189-5.717-.598-5.72-.598-17.158-.297-24.382 1.494-2.108 8.076-3.913 14.059 0l4.787-12.343z"/></g><defs><clipPath id="a"><path fill="#fff" d="M0 0h333v130H0z"/></clipPath></defs></svg>