<svg width="264" height="55" viewBox="0 0 264 55" fill="none" xmlns="http://www.w3.org/2000/svg"><path d="M51.99 28.16v19.01a.823.823 0 0 1-.824.826h-7.05a.823.823 0 0 1-.826-.825v-5.457a.823.823 0 0 0-.825-.825h-1.47a.823.823 0 0 0-.825.825v5.457a.823.823 0 0 1-.825.825h-6.25a.826.826 0 0 1-.825-.788l-.797-19.01a.823.823 0 0 1 .826-.858h7.258c.457 0 .825.367.825.825v6.254c0 .457.368.825.825.825h1.262a.823.823 0 0 0 .825-.825V28.16c0-.458.368-.825.826-.825h7.05a.82.82 0 0 1 .82.825zm23.12 19.836h-5.86a.83.83 0 0 1-.805-.637l-.29-1.254a.826.826 0 0 0-.805-.637h-5.273c-.4 0-.743.285-.813.682l-.208 1.168a.828.828 0 0 1-.813.682h-5.657a.825.825 0 0 1-.805-1.009l4.411-19.17a.828.828 0 0 1 .793-.64c1.193-.021 2.116-.021 3.268-.021 1.638 0 3.59.033 7.111.033.364 0 .69.24.796.588l5.744 19.149a.828.828 0 0 1-.793 1.066zm-9.41-8.668a.826.826 0 0 0 .791-1.054l-1.638-5.706h-.833l-1.241 5.76a.823.823 0 0 0 .804.996H65.7v.004zm41.712-11.151l-.384 19.01a.826.826 0 0 1-.826.809H78.758a.824.824 0 0 1-.825-.793l-.736-19.01a.825.825 0 0 1 .825-.857h6.569c.457 0 .825.367.825.825v13.324c0 .457.367.825.825.825h1.474a.827.827 0 0 0 .825-.854l-.49-13.263a.824.824 0 0 1 .825-.853h6.569c.457 0 .825.367.825.825v13.324c0 .458.367.825.825.825h1.02a.823.823 0 0 0 .826-.825V28.161c0-.458.368-.825.825-.825h6.826c.457 0 .829.38.821.841zm13.127-.874h17.756c.458 0 .825.368.825.825v4.416a.822.822 0 0 1-.825.825h-3.031a.823.823 0 0 0-.825.825V47.17a.822.822 0 0 1-.825.825h-6.735a.824.824 0 0 1-.825-.797l-.462-12.482a.825.825 0 0 0-.825-.797h-3.407a.823.823 0 0 1-.825-.825v-5.792h.004zm39.397 20.693h-5.862a.83.83 0 0 1-.804-.637l-.29-1.254a.827.827 0 0 0-.805-.638h-5.273a.823.823 0 0 0-.813.683l-.209 1.168a.827.827 0 0 1-.812.682h-5.658a.825.825 0 0 1-.804-1.009l4.407-19.161a.829.829 0 0 1 .792-.641c1.193-.02 2.116-.02 3.268-.02 1.638 0 3.591.032 7.112.032.363 0 .69.24.796.588l5.743 19.149a.823.823 0 0 1-.788 1.058zm-9.415-8.668a.826.826 0 0 0 .792-1.054l-1.638-5.706h-.833l-1.242 5.76a.824.824 0 0 0 .805.996h2.116v.004zm31.55-10.926v18.695c0 .47-.392.846-.862.825l-5.661-.24a.824.824 0 0 1-.789-.863l.237-4.954c.041-.825-1.025-1.189-1.499-.515l-4.371 6.23a.825.825 0 0 1-.727.35l-4.693-.302a.827.827 0 0 1-.772-.825V28.161c0-.458.368-.825.825-.825h6.078c.458 0 .825.367.825.825v4.432c0 .825 1.075 1.14 1.52.445l3.39-5.298a.824.824 0 0 1 .731-.38l4.975.22a.82.82 0 0 1 .793.822zm-10.653-7.296a.82.82 0 0 1 .805.597c.188.65.543 1.368 1.115 1.368.518 0 .943-.743 1.164-1.364a.82.82 0 0 1 .772-.543h2.108c.531 0 .915.49.808 1.009-.474 2.267-2.5 4.015-4.922 4.015-2.397 0-4.452-1.757-4.922-4.028a.832.832 0 0 1 .793-1.013l2.279-.04zm13.851 6.736l7.393-.465a.826.826 0 0 1 .838.567l1.989 6.082c.257.789 1.385.748 1.585-.061l1.478-6.004a.826.826 0 0 1 .801-.63h7.332c.457 0 .825.368.825.826v19.01a.823.823 0 0 1-.825.825h-4.587a.826.826 0 0 1-.825-.862l.31-7.005h-.866l-2.116 7.275a.826.826 0 0 1-.792.596h-3.496a.825.825 0 0 1-.797-.613l-1.948-7.258h-.589v7.042a.822.822 0 0 1-.825.825h-4.832a.823.823 0 0 1-.825-.825V28.663c0-.433.339-.792.772-.82zm24.757 19.178l-.416-18.847a.824.824 0 0 1 .78-.841l6.895-.364a.826.826 0 0 1 .87.825v2.692a.82.82 0 0 0 1.229.71c.817-.465 1.838-.739 3.448-.739 8.353 0 8.839 6.9 8.839 8.668 0 5.302-2.843 8.77-8.46 8.77l-12.368-.066a.826.826 0 0 1-.817-.809zm13.328-7.484c0-1.838-.241-4.991-2.597-4.991-2.288 0-2.496 3.362-2.496 4.75 0 1.732.208 5.061 2.528 5.061 2.598 0 2.565-4.472 2.565-4.82zm17.573-11.657V47.17a.823.823 0 0 1-.825.825h-6.663a.826.826 0 0 1-.825-.797l-.637-19.038a.826.826 0 0 1 .797-.854l7.299-.253a.822.822 0 0 1 .854.825zm23.054 7.361c0 5.13-2.737 8.528-9.534 8.528-.494 0-.992-.012-1.495-.049a.823.823 0 0 0-.87.874l.159 2.492a.828.828 0 0 1-.825.878h-6.854a.826.826 0 0 1-.825-.796l-.674-18.5a.816.816 0 0 1 .646-.837 18.333 18.333 0 0 1 1.687-.253c1.662-.241 4.264-.417 8.042-.417 7.561.004 10.543 2.291 10.543 8.08zm-11.613 4.227c.037.037.102.037.172.037h.379c1.112 0 3.64-.417 3.64-3.57 0-2.945-1.63-3.742-3.051-3.742-.274 0-.548.025-.801.066a.822.822 0 0 0-.686.861l.347 6.348zM6.737 51.88c-.274.645-.184.812-.388 1.266-.801 1.744-.76 2.12 3.745 1.678 1.59-.155-1.193-1.143-.886-3.34.037-.25-1.07-.148-1.287-.14-.658.02-.927-.081-1.184.535zm6.715-1.075c-.25.033-.552.155-.613.4-.866 3.285-1.401 3.86 3.541 3.305 2.124-.237-.727-1.262-1.25-3.264-.045-.167-.094-.514-.261-.543-.294-.049-.629-.008-1.417.102zM7.909 44.69l1.258 2.958c.04.093.171.09.208-.005l1.144-2.99a.113.113 0 0 0-.119-.15c-.47.048-.923.073-1.364.073-.347 0-.686-.016-1.013-.04a.112.112 0 0 0-.114.154zm1.719 3.182c-.029.074.029.156.11.156a12.712 12.712 0 0 0 2.582-.36c.167-.04.327-.082.486-.122.078-.02.11-.11.061-.176l-1.875-2.582a.112.112 0 0 0-.196.025l-1.168 3.06zm1.581-3.321l1.773 2.443c.057.078.18.053.2-.04l.755-3.072a.113.113 0 0 0-.143-.135c-.522.15-1.082.302-1.69.449-.282.07-.556.127-.83.176-.073.016-.114.114-.065.18zm5.531 1.328l1.025-3.415a.113.113 0 0 0-.155-.135c-.784.384-1.797.797-3.104 1.205a.111.111 0 0 0-.05.184l2.096 2.202c.057.07.163.045.188-.041zm-3.145 1.458a28.818 28.818 0 0 0 2.777-.915.115.115 0 0 0 .041-.184l-2.018-2.124a.113.113 0 0 0-.192.05l-.747 3.034c-.025.086.053.16.139.14zm5.249-2.12c.204-.126.38-.249.53-.363-.093-.229-.17-.421-.228-.548-.253-.584-.54-1.213-.833-1.87a.114.114 0 0 0-.213.012l-1.05 3.484a.112.112 0 0 0 .156.135c.71-.31 1.246-.6 1.638-.85zM5.76 46.79l1.48-2.177a.114.114 0 0 0-.079-.176 13.176 13.176 0 0 1-2.34-.576.114.114 0 0 0-.143.143l.882 2.761c.029.086.151.102.2.025z" fill="#fff"/><path d="M12.43 49.555c-1.568.323-3.026.45-4.35.45a19.04 19.04 0 0 1-5.587-.814.21.21 0 0 0-.266.148c-.016.065-.033.13-.045.192a.923.923 0 0 0 .49 1.037c3.133 1.528 17.405-.47 17.666-2.177.02-.282-.036-.666-.138-1.087a.208.208 0 0 0-.303-.134c-1.127.612-3.357 1.544-7.466 2.385zm-6.666-2.042c.895.265 1.916.461 3.048.51a.115.115 0 0 0 .11-.159l-1.27-2.982c-.037-.081-.148-.094-.197-.02 0 0-1.4 2.054-1.731 2.52-.037.053-.017.114.04.13zM3.387 46.43a.11.11 0 0 0 .053.14c.164.085.335.17.515.257.396.183.841.367 1.332.535.065.02.126-.041.106-.102l-.96-3.003a.112.112 0 0 0-.213-.004c-.306.821-.588 1.552-.833 2.177z" fill="#fff"/><path d="M12.37 49.245c3.961-.813 6.347-1.769 7.531-2.43a.212.212 0 0 0 .098-.246 20.568 20.568 0 0 0-.371-1.074.28.28 0 0 0-.421-.135c-1.115.74-3.153 1.716-6.813 2.614a12.87 12.87 0 0 1-3.023.376c-.012.004-.02.004-.033.004h-.004l-.106-.004c-.004 0-.008 0-.012-.004a12.97 12.97 0 0 1-5.657-1.364.333.333 0 0 0-.458.171c-.278.687-.49 1.185-.608 1.463a.209.209 0 0 0 .13.282c2.186.67 5.551 1.209 9.746.347zm2.189-11.834a.15.15 0 0 1-.119.05.151.151 0 0 1-.118-.058l-.785-1.119-.87 1.177a.166.166 0 0 1-.118.065.147.147 0 0 1-.123-.05l-.902-.947c-.384.498-.932 1.201-1.062 1.275-.115.065-.241.142-1.401-1.197l-.932 1.4a.17.17 0 0 1-.118.062h-.004a.16.16 0 0 1-.119-.053l-.952-1.23a.166.166 0 0 0-.29.058v.004a108.59 108.59 0 0 1-2.124 6.568 12.441 12.441 0 0 0 7.516.482c2.957-.723 4.808-1.5 5.935-2.108l.02-.07c-.792-1.788-1.588-3.77-1.935-5.73a.167.167 0 0 0-.294-.074l-1.205 1.495z" fill="#fff"/><path d="M20.494 20.66c-.058.045.02-.237.13-.625.07-.24.098-.514-.04-.727-.127-.2-.65-.212-.72.237-.069.445-.155.466-.338.707-.058.061-.258.437-.299.502-1.36 2.402-4.015 6.63-5.252 6.188-.062-.02-.09-.093-.07-.15l.119-.336c.277-.739.67-4.325-3.06-3.99-2.3.204-2.291 3.333-2.128 4.991a.46.46 0 0 1-.257.462 9.242 9.242 0 0 0-.29.143.373.373 0 0 1-.49-.156c-1.23-2.222-3.08-3.643-4.375-6.033-.286-.682-.237-1.597-.188-1.707.233-.502-.768-.355-.817.208-.135 1.52-.42.727-1.058.188a.773.773 0 0 0-.572-.188c-1.695.143-.265 3.44.63 3.975.587.596-.618.768.04 1.393 1.552 2.336 5.478 6.698 5.339 10.125-.008.16.049.31.15.43l1.03 1.16.944-1.197a.17.17 0 0 1 .122-.062c.05 0 .094.02.123.053.437.511.976.915 1.172 1.062.164-.175.625-.596 1.038-1.131a.218.218 0 0 1 .126-.053.157.157 0 0 1 .123.049l.899.948.878-1.19a.16.16 0 0 1 .122-.065c.05 0 .094.021.127.058l.772.923 1.327-1.434a.613.613 0 0 0 .16-.474c-.156-1.727.102-3.415 1.103-4.91 1.262-1.507 1.421-1.92 2.373-3.255 1.274-1.793 2.76-2.929 2.136-3.615a.344.344 0 0 1-.024-.42c.281-.413.706-.585 1.05-.98 1.658-1.908-.21-2.974-2.055-1.104zm17.036-2.982l-2.046-1.968.086 1.932-1.352-2.239-.204 2.708-.993-1.658-.62 2.59-.675-2.574-1.148 2.182-.065-2.99-1.364 2.536.094-2.393-1.491 1.233.486-2.414-2.86 2.86 1.786-3.199-1.834.613 1.041-1.63-1.642-.008 1.046-1.14-2.54.098 2.168-1.335-1.883-.45 1.744-.837-3.198-.69 3.509-.585-1.495-1.106 1.621-.156-1.752-1.536 2.308.372-1.09-1.601 1.854.555-.862-1.989 2.144 1.495-.78-2.275 1.528 1.189L28.695 0l1.552 2.782.274-1.916 1.16 2.32.454-2.496.674 1.818L33.826.327l.261 2.728 1.234-1.817-.029 1.936 1.495-1.234-.384 1.896 2.104-1.365-1.136 2.222 1.834-.612-1.478 2.03 2.356-.662-1.323 1.413 3.386-.102-2.925 1.168 1.794.617-1.99.617 2.014 1.005-2.467.62 2.194.98-1.871.193 1.307 1.331-1.924-.208 1.09 1.601-1.837-.972.763 2.186-2.258-1.794 1.495 3.574z" fill="#fff"/></svg>