<svg width="170" height="60" viewBox="0 0 170 60" fill="none" xmlns="http://www.w3.org/2000/svg"><path fill-rule="evenodd" clip-rule="evenodd" d="M43.76 20.334l12.663-12.38.806.824L43.93 21.782 25.09 10.478 6.346 21.39v22.409L25.072 54.42l18.455-12.209.636.963-19.045 12.599L5.191 44.47V20.726L25.1 9.138l18.66 11.196z" fill="#1C2029"/><circle cx="60.001" cy="5.192" r="5.192" fill="#1C2029"/><circle cx="24.231" cy="10.384" r="5.192" fill="#1C2029"/><circle cx="5.192" cy="43.269" r="5.192" fill="#1C2029"/><circle cx="43.845" cy="43.269" r="5.192" fill="#1C2029"/><circle cx="24.231" cy="54.807" r="5.192" fill="#1C2029"/><circle cx="5.192" cy="20.768" r="5.192" fill="#1C2029"/><circle cx="43.845" cy="20.768" r="5.192" fill="#1C2029"/><path d="M64.864 23.353a1.32 1.32 0 0 1-.344.386.733.733 0 0 1-.45.13c-.166 0-.345-.05-.538-.151a20.807 20.807 0 0 0-.645-.355 4.83 4.83 0 0 0-.816-.343 3.186 3.186 0 0 0-1.053-.162c-.681 0-1.19.147-1.526.44-.33.287-.495.678-.495 1.172 0 .315.1.577.301.785.2.207.462.386.785.537.33.15.702.29 1.117.419.423.122.853.261 1.29.419.437.15.863.33 1.278.537a4.17 4.17 0 0 1 1.118.795c.33.323.594.717.795 1.182.2.459.3 1.014.3 1.666 0 .724-.124 1.4-.375 2.03a4.774 4.774 0 0 1-1.096 1.656c-.473.465-1.06.834-1.763 1.106-.694.266-1.486.398-2.374.398a7.71 7.71 0 0 1-1.494-.15c-.501-.1-.988-.24-1.461-.42a8.861 8.861 0 0 1-1.333-.655A5.66 5.66 0 0 1 55 33.937l1.075-1.698a.943.943 0 0 1 .795-.43c.215 0 .43.068.644.204.222.137.47.287.742.452.28.164.598.315.956.451s.781.204 1.268.204c.66 0 1.171-.143 1.537-.43.365-.293.548-.755.548-1.386 0-.365-.1-.662-.301-.892a2.323 2.323 0 0 0-.795-.57 7.07 7.07 0 0 0-1.107-.397 39.01 39.01 0 0 1-1.279-.376 10.37 10.37 0 0 1-1.278-.516 4.276 4.276 0 0 1-1.118-.806 3.898 3.898 0 0 1-.784-1.246c-.201-.501-.301-1.117-.301-1.848a4.438 4.438 0 0 1 1.397-3.213 5.055 5.055 0 0 1 1.687-1.042c.666-.265 1.429-.398 2.288-.398.48 0 .946.04 1.397.118a6.82 6.82 0 0 1 1.3.333c.409.144.789.32 1.14.527.358.2.677.43.956.688l-.903 1.687zm9.435 9.606c.487 0 .92-.079 1.3-.236.387-.165.713-.398.978-.699.265-.3.465-.666.602-1.096.143-.437.214-.931.214-1.483v-9.273h3.632v9.273c0 .96-.157 1.841-.472 2.644a5.867 5.867 0 0 1-1.333 2.074 6.037 6.037 0 0 1-2.117 1.354c-.83.322-1.766.483-2.804.483-1.046 0-1.985-.161-2.816-.483a6.037 6.037 0 0 1-2.117-1.355 5.866 5.866 0 0 1-1.332-2.073c-.308-.803-.462-1.684-.462-2.644v-9.273h3.632v9.262c0 .552.068 1.046.204 1.483.143.43.348.8.613 1.107.265.301.587.534.967.699a3.46 3.46 0 0 0 1.31.236zm16.453.247c.501 0 .945-.043 1.332-.129a6.46 6.46 0 0 0 1.096-.344V30.36h-1.547c-.23 0-.408-.061-.537-.183a.609.609 0 0 1-.194-.462v-1.999h5.566v6.609c-.4.293-.82.548-1.257.763-.43.207-.892.38-1.386.515a9.988 9.988 0 0 1-1.569.301c-.551.065-1.146.097-1.784.097-1.146 0-2.206-.2-3.18-.602a7.907 7.907 0 0 1-2.536-1.676 7.906 7.906 0 0 1-1.676-2.536c-.402-.981-.602-2.045-.602-3.191 0-1.168.193-2.239.58-3.213a7.274 7.274 0 0 1 1.655-2.536c.723-.71 1.594-1.261 2.611-1.655 1.024-.394 2.167-.591 3.428-.591.652 0 1.264.054 1.837.161.573.108 1.1.255 1.58.44a7.232 7.232 0 0 1 2.407 1.505l-1.053 1.601c-.1.15-.222.269-.365.355a.829.829 0 0 1-.452.129 1.26 1.26 0 0 1-.666-.215 9.383 9.383 0 0 0-.817-.44 4.474 4.474 0 0 0-.773-.312 5.102 5.102 0 0 0-.838-.172 8.228 8.228 0 0 0-.99-.054c-.68 0-1.292.122-1.837.365a3.935 3.935 0 0 0-1.397 1.01c-.38.437-.673.964-.88 1.58-.208.609-.312 1.29-.312 2.042 0 .83.114 1.569.344 2.213.229.645.544 1.19.945 1.634a4.17 4.17 0 0 0 1.44 1.02c.559.23 1.168.344 1.827.344zm22.499 2.622h-2.815c-.316 0-.577-.072-.785-.215-.2-.15-.34-.34-.419-.57l-.924-2.729h-5.953l-.924 2.73c-.072.2-.211.383-.419.548a1.226 1.226 0 0 1-.763.236h-2.837l6.061-15.656h3.718l6.06 15.656zm-10.058-5.985h4.277l-1.44-4.288c-.093-.272-.204-.59-.333-.956a29.949 29.949 0 0 1-.365-1.203c-.115.436-.233.841-.355 1.214a17.11 17.11 0 0 1-.344.967l-1.44 4.266zm14.964.193v5.792h-3.631V20.172h5.093c1.132 0 2.095.118 2.89.354.803.23 1.455.552 1.956.968.509.415.878.906 1.107 1.472.229.566.344 1.182.344 1.848 0 .509-.068.989-.204 1.44-.137.451-.341.87-.613 1.257-.265.38-.595.72-.989 1.02a5.092 5.092 0 0 1-1.343.742c.244.122.47.273.677.452.215.179.401.397.559.655l3.331 5.448h-3.288c-.609 0-1.046-.23-1.311-.688l-2.6-4.545a1.081 1.081 0 0 0-.409-.43c-.15-.086-.365-.129-.644-.129h-.925zm0-2.503h1.462c.494 0 .913-.061 1.257-.183.351-.129.638-.305.86-.527a1.99 1.99 0 0 0 .483-.773c.101-.301.151-.623.151-.967 0-.688-.226-1.225-.677-1.612-.444-.387-1.136-.58-2.074-.58h-1.462v4.642zm19.756 1.153c.142.279.277.568.404.868.135.3.262.608.382.922.121-.322.248-.633.383-.933.134-.308.272-.604.414-.89l3.973-8.082c.07-.14.141-.245.212-.318a.731.731 0 0 1 .255-.176.986.986 0 0 1 .308-.066c.12-.007.259-.011.414-.011h2.741v16h-3.166v-9.203c0-.446.022-.93.064-1.449l-4.1 8.225a1.37 1.37 0 0 1-.52.582 1.363 1.363 0 0 1-.733.198h-.489c-.276 0-.524-.066-.743-.198a1.387 1.387 0 0 1-.51-.582l-4.122-8.236a13.27 13.27 0 0 1 .085 1.46V36H130V20h2.74c.156 0 .291.004.404.011.12.007.227.03.319.066a.637.637 0 0 1 .244.176c.078.073.152.179.223.318l3.983 8.115zM165 27.994c0 1.157-.195 2.226-.584 3.207a7.526 7.526 0 0 1-1.625 2.537 7.47 7.47 0 0 1-2.539 1.669c-.984.395-2.078.593-3.282.593h-6.012V20h6.012c1.204 0 2.298.201 3.282.604a7.468 7.468 0 0 1 2.539 1.67 7.385 7.385 0 0 1 1.625 2.536c.389.974.584 2.035.584 3.184zm-3.675 0c0-.79-.099-1.504-.298-2.14-.198-.638-.485-1.176-.86-1.615a3.59 3.59 0 0 0-1.36-1.021c-.538-.242-1.15-.363-1.837-.363h-2.401v10.29h2.401c.687 0 1.299-.117 1.837-.352a3.746 3.746 0 0 0 1.36-1.02c.375-.447.662-.99.86-1.626.199-.637.298-1.354.298-2.152z" fill="#1C2029"/></svg>