<svg width="340" height="156" viewBox="0 0 340 156" fill="none" xmlns="http://www.w3.org/2000/svg"><path d="M217.34 77.894v-13.23h-26.9v-11.03l28.52-41.74h10.58v41.7h8.16v11.07h-8.16v13.23h-12.2zm0-24.3v-22.47l-15.11 22.46h15.11v.01zm47.67-41.7c6.37 0 11.35 2.27 14.93 6.82 4.27 5.38 6.41 14.3 6.41 26.77 0 12.44-2.16 21.38-6.46 26.82-3.56 4.49-8.52 6.72-14.89 6.72-6.4 0-11.55-2.46-15.47-7.37-3.91-4.92-5.87-13.68-5.87-26.3 0-12.38 2.15-21.29 6.46-26.73 3.56-4.49 8.52-6.73 14.89-6.73zm0 10.44c-1.52 0-2.88.49-4.08 1.46-1.19.97-2.12 2.71-2.78 5.22-.87 3.26-1.3 8.74-1.3 16.46 0 7.71.39 13.01 1.16 15.9.78 2.89 1.76 4.81 2.94 5.76 1.18.96 2.53 1.43 4.06 1.43 1.52 0 2.88-.48 4.08-1.46 1.19-.97 2.12-2.71 2.78-5.22.87-3.23 1.3-8.7 1.3-16.41 0-7.71-.39-13.01-1.16-15.89-.78-2.89-1.76-4.81-2.94-5.79-1.18-.97-2.54-1.46-4.06-1.46zm54.48 55.56v-13.23h-26.9v-11.03l28.52-41.74h10.58v41.7h8.16v11.07h-8.16v13.23h-12.2zm0-24.3v-22.47l-15.11 22.46h15.11v.01zm-65.05 48.28v-16.19h12.01v2.74h-8.74v3.59h8.13v2.73h-8.13v4.41h9.05v2.72h-12.32zm15.1 0v-16.19h6.88c1.73 0 2.99.15 3.77.44.78.29 1.41.81 1.88 1.55s.71 1.59.71 2.55c0 1.21-.36 2.22-1.07 3.01-.71.79-1.78 1.29-3.21 1.5.71.41 1.29.87 1.75 1.36.46.49 1.08 1.37 1.86 2.63l1.98 3.16h-3.91l-2.36-3.52c-.84-1.26-1.42-2.05-1.72-2.38-.31-.33-.64-.55-.99-.67-.34-.12-.89-.18-1.64-.18h-.66v6.76h-3.27v-.02zm3.27-9.34h2.42c1.57 0 2.55-.07 2.94-.2.39-.13.69-.36.91-.68.22-.33.33-.73.33-1.22 0-.55-.14-.98-.44-1.32-.29-.33-.7-.55-1.23-.63-.26-.04-1.06-.05-2.39-.05h-2.55v4.1h.01zm13.07 9.34v-16.19h6.88c1.73 0 2.99.15 3.77.44.79.29 1.41.81 1.88 1.55s.71 1.59.71 2.55c0 1.21-.36 2.22-1.07 3.01-.71.79-1.78 1.29-3.2 1.5.71.41 1.29.87 1.75 1.36.46.49 1.08 1.37 1.86 2.63l1.98 3.16h-3.91l-2.36-3.52c-.84-1.26-1.42-2.05-1.72-2.38-.31-.33-.64-.55-.99-.67-.34-.12-.89-.18-1.64-.18h-.66v6.76h-3.28v-.02zm3.27-9.34h2.42c1.57 0 2.55-.07 2.94-.2.39-.13.7-.36.92-.68.22-.33.33-.73.33-1.22 0-.55-.14-.98-.43-1.32-.29-.33-.7-.55-1.23-.63-.26-.04-1.06-.05-2.39-.05h-2.55v4.1h-.01zm12.39 1.34c0-1.65.25-3.03.74-4.15.37-.83.87-1.57 1.51-2.22.64-.66 1.33-1.14 2.09-1.46 1.01-.43 2.17-.64 3.49-.64 2.39 0 4.29.74 5.73 2.22 1.43 1.48 2.15 3.54 2.15 6.18 0 2.61-.71 4.66-2.13 6.13-1.42 1.48-3.32 2.21-5.7 2.21-2.41 0-4.32-.73-5.74-2.2-1.43-1.46-2.14-3.49-2.14-6.07zm3.37-.11c0 1.83.42 3.22 1.27 4.17.85.95 1.92 1.42 3.23 1.42 1.3 0 2.37-.47 3.21-1.41.84-.94 1.25-2.35 1.25-4.22 0-1.85-.41-3.24-1.22-4.15-.81-.91-1.89-1.37-3.24-1.37-1.35 0-2.43.46-3.26 1.39-.83.92-1.24 2.31-1.24 4.17zm14.9 8.11v-16.19h6.88c1.73 0 2.99.15 3.77.44.78.29 1.41.81 1.88 1.55s.71 1.59.71 2.55c0 1.21-.35 2.22-1.07 3.01-.71.79-1.78 1.29-3.2 1.5.71.41 1.29.87 1.75 1.36.46.49 1.08 1.37 1.86 2.63l1.98 3.16h-3.91l-2.36-3.52c-.84-1.26-1.41-2.05-1.72-2.38-.31-.33-.64-.55-.98-.67-.35-.12-.9-.18-1.65-.18h-.66v6.76h-3.28v-.02zm3.27-9.34h2.42c1.57 0 2.55-.07 2.94-.2.39-.13.7-.36.92-.68.22-.33.33-.73.33-1.22 0-.55-.15-.98-.44-1.32-.29-.33-.7-.55-1.23-.63-.27-.04-1.06-.05-2.39-.05h-2.55v4.1z" fill="#0A4058"/><path d="M44.61 31.514c-.19.02-.37-.01-.56-.08l-10.66-4.42c-.52-.21-.74-.77-.5-1.24s.87-.67 1.39-.45l10.66 4.41c.52.21.75.77.5 1.24-.16.31-.48.5-.83.54zm13.38-10.9c-.36.04-.73-.1-.97-.41l-8.46-10.55c-.39-.48-.33-1.19.14-1.58.46-.38 1.15-.31 1.54.18l8.46 10.55c.39.48.33 1.19-.14 1.58-.17.13-.37.21-.57.23zm15.21-5.71c-.01 0-.03 0-.04.01-.68.05-1.28-.41-1.33-1.04l-1.09-12.65c-.05-.62.48-1.16 1.14-1.22.68-.05 1.28.41 1.33 1.03l1.09 12.65c.06.61-.43 1.15-1.1 1.22zm17.02 1.66c-.19.02-.4 0-.59-.08-.57-.21-.81-.78-.55-1.27l5.51-10.2c.27-.49.94-.71 1.51-.49.56.22.81.79.55 1.27l-5.51 10.19c-.18.34-.53.54-.92.58z" fill="#474747"/><path d="M120.05 119.864l-50.69-77.36-8.21-.46 50.92 77.2 7.98.62zm-37.66-82.47l.93 2.64 3.13-.38 3.38 9.22 4.03-1.7-.93 8.68 14.26.15-3.1 8.21 6.2-.61 6.98 18.76 5.18 3.37-2.07 11.66 6.97-3.25-1.86 6.66 5.27-.92s-3.87 6.04-4.34 9.6c-.46 3.57-.78 7.91-.78 7.91l.93.46 3.67 1.26s8.93-5.08 11.3-6.32c5.16-2.69 19.22-8.33 19.22-8.33l-76.77-70.27s-1.45 2.33-1.6 3.2z" fill="#F7F7F7"/><path d="M11.69 65.534l-7.05 2.71s-1.2.9-.38 2.21c12.29 19.76 50.69 78.07 50.69 78.07s.93 2.03 2.91 1.34c1.67-.59 64.47-26.68 64.47-26.68l.22-1.54s-17.84.71-35.98 8.62c-18.14 7.91-26.66 14.42-26.66 14.42l-47.36-72.4-2.79-4.48 1.93-2.27zm118.17 53.59l.51.95 66.85-22.25s1-.93.24-2.03c-12.81-18.73-52.76-73.91-52.76-73.91l-2.79.31 45.34 63.33-1.86.7 3.41 4.11-2.25.78 4.03 5.32s-24.5 5.82-30.69 8.48c-15.11 6.51-28.52 13.25-28.52 13.25l-1.51.96z" fill="#F2E2B8"/><path d="M.94 71.024a.94.94 0 0 1-.93-.88c-.01-.12-.11-3.01 2.61-4.34l9.96-3.83a.936.936 0 0 1 1.2.53.932.932 0 0 1-.54 1.2l-9.88 3.8c-1.56.77-1.49 2.53-1.49 2.55a.92.92 0 0 1-.88.97H.94zm199.09 26.83c-.04 0-.07 0-.11-.01a.917.917 0 0 1-.81-1.03c0-.01.11-1.08-.39-1.88l-53.22-74.19c-.72-.11-3.04-.09-4.81.17-.5.08-.98-.28-1.05-.79-.07-.51.28-.98.79-1.05.23-.03 5.7-.8 6.46.43l53.37 74.4c.87 1.39.71 2.96.69 3.13-.06.48-.46.82-.92.82z" fill="#474747"/><path d="M56.7 155.134c-1.64 0-3.43-.83-4.28-2.11L.51 73.134c-.67-1.07-.63-3.33-.17-4.77.3-.95.76-1.56 1.38-1.82.47-.2 1.02.02 1.22.49.2.47-.02 1.02-.49 1.22-.53.37-.81 3.17-.36 3.88l51.9 79.86c.62.93 2.38 1.54 3.41 1.18l64.34-26.77-.05-2.66c-.01-.51.4-.94.91-.95.53.03.94.4.95.91l.06 3.29c.01.38-.22.73-.57.88l-64.97 27.03c-.44.16-.9.23-1.37.23zm73.39-30.53c-.29 0-.58-.14-.75-.38l-3.57-4.92c-.3-.42-.21-1 .21-1.3.42-.3 1-.21 1.3.21l3.17 4.37 67.83-22.55c.57-.49 1.12-3.58.75-4.31a.93.93 0 1 1 1.66-.84c.6 1.18.22 3.69-.28 5.05-.36.97-.81 1.56-1.39 1.81l-68.63 22.81c-.1.03-.2.05-.3.05z" fill="#474747"/><path d="M128.64 119.334c-.23 0-.47-.09-.65-.27a.93.93 0 0 1-.02-1.31c14.19-14.51 33.93-23.92 58.7-27.97l-1.91-2.52a.926.926 0 0 1 .18-1.3c.41-.31.99-.23 1.3.18l2.85 3.76a.931.931 0 0 1-.6 1.48c-25.09 3.85-45 13.16-59.19 27.68a.93.93 0 0 1-.66.27zm-4.07.17c-.3 0-.6-.15-.78-.42l-49.11-75.09c-.28-.43-.16-1 .27-1.29a.934.934 0 0 1 1.29.27l49.11 75.1c.28.43.16 1-.27 1.29-.16.09-.33.14-.51.14zm-64.51 26.57c-.06 0-.12 0-.17-.02a.905.905 0 0 1-.6-.4l-50.7-77.52c-.23-.35-.2-.8.08-1.12a56.18 56.18 0 0 1 3.92-4.1c.37-.35.96-.34 1.31.04.35.37.34.96-.04 1.31-1.16 1.1-2.28 2.25-3.34 3.44l49.79 76.13c3.03-2.04 14.41-9.41 28.7-15.06 9.46-3.75 21.96-6.76 33.43-8.06a.932.932 0 0 1 .21 1.85c-11.31 1.28-23.63 4.25-32.95 7.94-16.45 6.51-28.98 15.31-29.11 15.4-.15.11-.34.17-.53.17z" fill="#474747"/><path d="M127.38 118.364c-.13 0-.26-.03-.38-.08-.47-.21-.68-.76-.47-1.23.44-.98 11.21-23.84 59.49-31.81l-50.34-70.34c-4.32-.11-38.94-.3-52.59 21.97-.27.44-.84.58-1.28.31a.929.929 0 0 1-.31-1.28c15.08-24.6 54.32-22.87 54.71-22.84.28.02.54.16.71.39l51.47 71.93c.19.26.23.6.1.9-.12.3-.4.51-.71.56-48.43 7.57-59.46 30.74-59.56 30.97-.15.34-.49.55-.84.55z" fill="#474747"/><path d="M130.36 120.104c-.3 0-.6-.15-.78-.42-.28-.43-.16-1 .27-1.29 2.73-1.79 27.28-17.39 59.08-22.65l-3.28-4.43c-.31-.41-.22-1 .19-1.3.41-.31 1-.22 1.3.19l4.19 5.66c.19.26.23.61.11.91-.12.3-.4.51-.72.56-32.15 4.95-57.12 20.82-59.86 22.61-.15.11-.32.16-.5.16zm-68.44 18.14c-.06 0-.12-.01-.18-.02a.954.954 0 0 1-.6-.4L10.6 60.694c-.25-.39-.18-.9.17-1.21 30.02-26.3 64.43-17.03 64.77-16.93a.932.932 0 0 1-.51 1.79c-.33-.09-33.33-8.95-62.43 16.02l49.58 75.67c5-3.17 32.76-19.78 61.28-16.95.51.05.88.51.83 1.02-.05.51-.5.88-1.02.83-30.67-3.05-60.55 16.95-60.84 17.15-.15.1-.33.16-.51.16z" fill="#474747"/><path d="M125.57 118.824a.94.94 0 0 1-.93-.88c-.37-7.12 2.43-13.44 4.12-16.55l-3.35.93c-.32.09-.67 0-.91-.24a.94.94 0 0 1-.23-.92l1.54-5.15-5.09 2.71a.932.932 0 0 1-1.35-.99l2.05-11.56-4.67-3.04a.862.862 0 0 1-.36-.46l-6.71-18.03-5.75 1.03a.92.92 0 0 1-.88-.32.949.949 0 0 1-.15-.93l2.92-7.5-12.92-.14c-.26 0-.51-.12-.69-.31a.951.951 0 0 1-.23-.72l.74-6.9-2.46 1.37c-.24.13-.53.15-.79.06a.94.94 0 0 1-.55-.57l-3.06-8.87-2.25.83a.926.926 0 0 1-1.21-.58l-3.5-10.54c-1 2.03-2.12 4.66-2.37 6.54-.43 3.16-.35 3.86-.17 5.38.04.35.08.73.13 1.19.05.51-.33.97-.84 1.01a.933.933 0 0 1-1.02-.84c-.04-.44-.08-.82-.12-1.15-.18-1.58-.28-2.45.17-5.85.47-3.5 3.28-8.55 3.6-9.11.18-.32.54-.5.9-.47.37.04.68.28.79.63l3.88 11.7 2.24-.83c.23-.09.49-.08.72.03.23.11.4.3.48.54l3.01 8.72 3.06-1.71c.3-.17.68-.16.97.04.29.19.45.53.41.88l-.82 7.66 13.24.14a.937.937 0 0 1 .86 1.27l-2.81 7.21 4.88-.87a.94.94 0 0 1 1.04.59l6.87 18.47 4.92 3.2c.31.2.47.57.41.94l-1.82 10.29 5.37-2.86c.33-.17.74-.14 1.03.1.29.24.41.63.3.99l-1.69 5.67 3.96-1.1c.38-.1.78.04 1 .35.23.32.23.74.01 1.07-.05.08-5.49 8.2-5.01 17.45.03.51-.37.95-.88.98.01.02-.01.02-.03.02z" fill="#474747"/><path d="M122.61 124.754a.93.93 0 0 1-.91-.75c-.31-1.59.03-4.94 3.55-6.24 3.6-1.32 5.56.91 5.64 1.01.33.39.29.98-.1 1.31-.39.33-.98.29-1.31-.1-.04-.05-1.24-1.33-3.58-.47-2.93 1.08-2.39 4.01-2.36 4.13.1.5-.23.99-.73 1.09-.08.01-.14.02-.2.02z" fill="#474747"/></svg>