<svg width="64" height="64" viewBox="0 0 64 64" fill="none" xmlns="http://www.w3.org/2000/svg"><g clip-path="url(#a)"><path d="M28.148 64C12.636 64 0 51.364 0 35.852S12.636 7.705 28.148 7.705h6.677V6.78c0-3.8 3.082-6.78 6.883-6.78 3.8 0 6.883 3.082 6.883 6.78v.925h7.807v7.807h.822c3.8 0 6.883 3.082 6.883 6.78 0 3.698-3.082 6.78-6.883 6.78h-.822v6.678C56.295 51.364 43.66 64 28.148 64zm1.027-2.157l.924-.103c12.739-.925 23.012-11.3 23.936-23.936l.103-.924h-5.753v.924a6.883 6.883 0 0 1-13.765 0v-.822h-5.548v8.527c-.102-.206-.308-.308-.41-.308-.925-.309-1.542-.617-2.363-.617-2.569 0-4.726 2.158-4.726 4.726s2.157 4.725 4.726 4.725c.924 0 1.438-.205 2.362-.616.206-.103.411-.103.617-.205v8.629h-.103zM2.157 37.804c.925 12.738 11.3 23.011 23.936 23.936l.925.103V56.09h-.925c-3.8 0-6.78-3.082-6.78-6.883 0-3.8 3.082-6.883 6.78-6.883h.925v-5.547H18.49c.103-.206.103-.411.206-.617.41-1.027.616-1.54.616-2.362 0-2.569-2.157-4.726-4.725-4.726-2.569 0-4.623 2.26-4.623 4.829 0 .924.205 1.438.616 2.362.103.206.103.411.206.617h-8.63v.924zm35.339-2.465c-.41 1.027-.616 1.54-.616 2.362 0 2.569 2.157 4.726 4.725 4.726 2.568 0 4.726-2.157 4.726-4.726 0-.924-.206-1.438-.617-2.362-.102-.206-.102-.411-.205-.617h8.629v-8.526c.206.103.411.103.616.205 1.028.411 1.644.617 2.363.617 2.568 0 4.726-2.158 4.726-4.726s-2.158-4.725-4.726-4.725c-.719 0-1.335.205-2.465.616-.206.103-.309.103-.514.205V9.76h-8.63c.104-.205.104-.41.206-.616.411-1.027.617-1.644.617-2.363 0-2.568-2.158-4.725-4.726-4.725S36.88 4.212 36.88 6.78c0 .72.205 1.336.616 2.363.103.205.103.41.205.616h-8.526v5.753h.924c3.802 0 6.883 3.082 6.883 6.78 0 3.698-3.081 6.78-6.883 6.78h-.924v5.548h8.526c-.102.41-.205.616-.205.719zM14.69 27.12c3.801 0 6.78 3.082 6.78 6.78v.822h5.65v-8.526c.206.103.411.103.617.205.924.308 1.54.617 2.363.617 2.568 0 4.725-2.158 4.725-4.726s-2.157-4.725-4.726-4.725c-.924 0-1.438.205-2.362.616-.206.103-.411.103-.617.205V9.862l-.924.103C13.457 10.889 3.185 21.162 2.157 33.9l-.102.924h5.752V33.9c0-3.698 3.082-6.78 6.883-6.78z" fill="#98A1A6"/></g><defs><clipPath id="a"><path fill="#fff" d="M0 0h64v64H0z"/></clipPath></defs></svg>