<svg width="64" height="64" viewBox="0 0 64 64" fill="none" xmlns="http://www.w3.org/2000/svg"><g clip-path="url(#a)"><path d="M58.92 33.454a.937.937 0 0 1-.937-.937V31.48a.938.938 0 0 1 1.875 0v1.036c0 .518-.42.937-.937.937zm-53.84 0a.937.937 0 0 1-.938-.937V31.48a.938.938 0 0 1 1.875 0v1.036c0 .518-.42.937-.937.937z" fill="#000"/><path d="M63.063 26.92H54.78a.937.937 0 0 0-.938.938v3.204h-8.479V19.965l2.808-2.808c.86.59 1.863.885 2.866.885 1.3 0 2.602-.495 3.592-1.485a5.085 5.085 0 0 0 0-7.183 5.085 5.085 0 0 0-7.183 0 5.087 5.087 0 0 0-.6 6.457l-2.808 2.807h-11.1v-8.479h3.205c.517 0 .937-.42.937-.937V.937A.937.937 0 0 0 36.143 0h-8.284a.937.937 0 0 0-.937.938V9.22c0 .518.42.937.937.937h3.204v8.48H27.86a.937.937 0 1 0 0 1.875h15.63v22.974H20.513V20.513h3.595a.938.938 0 0 0 0-1.875h-4.145l-2.806-2.807a5.041 5.041 0 0 0 .886-2.867 5.046 5.046 0 0 0-1.488-3.591 5.085 5.085 0 0 0-7.183 0 5.046 5.046 0 0 0-1.487 3.591c0 1.357.528 2.633 1.487 3.592a5.064 5.064 0 0 0 3.592 1.485 5.071 5.071 0 0 0 2.866-.885l2.808 2.808v11.099h-8.48v-3.205a.938.938 0 0 0-.937-.937H.938a.937.937 0 0 0-.937.937v8.284c0 .517.42.937.937.937h8.284c.518 0 .937-.42.937-.938v-3.203h8.48v11.099l-2.808 2.807a5.087 5.087 0 0 0-6.458.6 5.085 5.085 0 0 0 0 7.184c.99.99 2.29 1.485 3.591 1.485a5.064 5.064 0 0 0 3.592-1.485 5.087 5.087 0 0 0 .6-6.458l2.809-2.808h11.098v8.48H27.86a.937.937 0 0 0-.937.937v8.283c0 .518.42.938.937.938h8.284c.517 0 .937-.42.937-.938V54.78a.937.937 0 0 0-.937-.937h-3.205v-8.48h11.099l2.808 2.808a5.087 5.087 0 0 0 .6 6.458 5.046 5.046 0 0 0 3.592 1.488 5.047 5.047 0 0 0 3.591-1.488 5.085 5.085 0 0 0 0-7.183 5.046 5.046 0 0 0-3.591-1.488c-1.039 0-2.03.311-2.867.886l-2.807-2.806v-11.1h8.48v3.205c0 .517.419.937.937.937h8.283c.518 0 .938-.42.938-.938v-8.283a.937.937 0 0 0-.938-.937zM28.797 1.876h6.408v6.408h-6.408V1.875zM1.876 35.204v-6.408h6.408v6.408H1.876zm8.823-19.974a3.183 3.183 0 0 1-.939-2.266c0-.856.334-1.66.939-2.266a3.193 3.193 0 0 1 2.266-.937c.82 0 1.64.313 2.265.938a3.18 3.18 0 0 1 .939 2.265c0 .856-.333 1.66-.939 2.266a3.208 3.208 0 0 1-4.531 0zm4.531 38.072a3.208 3.208 0 0 1-4.531 0 3.208 3.208 0 0 1 0-4.531 3.208 3.208 0 0 1 4.531 0 3.208 3.208 0 0 1 0 4.531zm19.975 8.823h-6.408v-6.408h6.408v6.408zm13.566-51.426a3.194 3.194 0 0 1 2.266-.937c.82 0 1.641.312 2.266.936a3.208 3.208 0 0 1 0 4.532 3.208 3.208 0 0 1-4.531 0h-.001a3.208 3.208 0 0 1 0-4.531zm4.532 38.072a3.208 3.208 0 0 1 0 4.531 3.183 3.183 0 0 1-2.266.939c-.856 0-1.66-.334-2.266-.939a3.208 3.208 0 0 1 0-4.531 3.184 3.184 0 0 1 2.266-.939c.856 0 1.66.334 2.266.939zm8.823-13.567h-6.409v-6.408h6.409v6.408z" fill="#98A1A6"/><path d="M32.518 6.017a.937.937 0 1 0 0-1.875h-1.036a.937.937 0 1 0 0 1.875h1.036zm-1.036 53.84h1.036a.937.937 0 1 0 0-1.875h-1.036a.937.937 0 1 0 0 1.875zM58.92 33.454c.518 0 .938-.42.938-.937V31.48a.938.938 0 0 0-1.875 0v1.036c0 .518.42.937.938.937zm-53.84-2.91a.938.938 0 0 0-.938.937v1.036a.937.937 0 1 0 1.875 0V31.48a.937.937 0 0 0-.938-.937z" fill="#98A1A6"/></g><defs><clipPath id="a"><path fill="#fff" d="M0 0h64v64H0z"/></clipPath></defs></svg>