<svg width="64" height="64" viewBox="0 0 64 64" fill="none" xmlns="http://www.w3.org/2000/svg"><g clip-path="url(#a)" fill="#98A1A6"><path d="M22.715 45.852a1.254 1.254 0 0 0-.276-.045 7.989 7.989 0 0 0 2.212-5.522V33.71c0-.06-.005-.119-.013-.177a5.31 5.31 0 0 0 .013-.359v-4.16c0-.69-.56-1.25-1.25-1.25h-8.384a6.41 6.41 0 0 0-6.402 6.403v6.12c0 2.138.843 4.082 2.212 5.521a1.25 1.25 0 0 0-.276.045C4.644 46.387 0 51.366 0 57.41v5.34C0 63.44.56 64 1.25 64h30.766c.69 0 1.25-.56 1.25-1.25v-5.34c0-6.044-4.644-11.023-10.551-11.558zm-11.6-10.101v-1.586a3.907 3.907 0 0 1 3.902-3.902h7.134v2.91a2.66 2.66 0 0 1-2.657 2.658h-8.38v-.08zm0 2.58h8.379c.971 0 1.88-.27 2.657-.74v2.694a5.525 5.525 0 0 1-5.518 5.519 5.525 5.525 0 0 1-5.518-5.519v-1.954zm8.239 9.973l-2.721 2.72-2.72-2.72h5.44zM30.766 61.5H2.5V59h5.188a1.25 1.25 0 0 0 0-2.5H2.545c.42-4.215 3.725-7.59 7.907-8.122l5.296 5.297a1.25 1.25 0 0 0 1.768 0l5.297-5.297c4.477.57 7.952 4.4 7.952 9.031v4.09zM53.45 18.09a1.249 1.249 0 0 0-.277-.046 7.988 7.988 0 0 0 2.212-5.521V5.946c0-.06-.005-.119-.013-.176.008-.119.014-.238.014-.36V1.25c0-.69-.56-1.25-1.25-1.25H45.75a6.41 6.41 0 0 0-6.402 6.403v6.12c0 2.138.843 4.082 2.212 5.521-.093.005-.186.02-.276.046-5.907.535-10.551 5.514-10.551 11.557v5.34c0 .691.56 1.25 1.25 1.25H42.04a1.25 1.25 0 0 0 0-2.5h-8.807v-4.09c0-4.63 3.474-8.461 7.952-9.03l5.297 5.296a1.246 1.246 0 0 0 1.768 0l5.296-5.296c4.479.57 7.953 4.4 7.953 9.03v4.09h-9.208a1.25 1.25 0 0 0 0 2.5H62.75c.69 0 1.25-.559 1.25-1.25v-5.34c0-6.043-4.644-11.022-10.55-11.557zm-6.083 5.172l-2.72-2.72h5.44l-2.72 2.72zm5.519-10.74a5.525 5.525 0 0 1-5.519 5.52 5.525 5.525 0 0 1-5.518-5.52v-1.954h8.38c.97 0 1.88-.27 2.657-.739v2.694zm0-7.111a2.66 2.66 0 0 1-2.658 2.657h-8.38V6.403A3.907 3.907 0 0 1 45.753 2.5h7.134v2.91z"/><path d="M48.251 34.104a1.26 1.26 0 0 0-.883-.367 1.254 1.254 0 0 0-1.25 1.25 1.252 1.252 0 0 0 1.25 1.25 1.254 1.254 0 0 0 1.25-1.25 1.26 1.26 0 0 0-.367-.883zM33.426 17.491l-5.228-5.227V6.25A6.257 6.257 0 0 0 21.948 0H6.25A6.257 6.257 0 0 0 0 6.25v11a6.257 6.257 0 0 0 6.25 6.25h15.698a6.215 6.215 0 0 0 5.783-3.875h4.81a1.25 1.25 0 0 0 .885-2.134zm-6.607-.366a1.25 1.25 0 0 0-1.218.97A3.73 3.73 0 0 1 21.948 21H6.25a3.754 3.754 0 0 1-3.75-3.75v-11A3.754 3.754 0 0 1 6.25 2.5h15.698a3.754 3.754 0 0 1 3.75 3.75v6.531c0 .332.132.65.366.884l3.46 3.46h-2.705zM57.75 40.5H42.052a6.215 6.215 0 0 0-5.783 3.875h-4.81a1.25 1.25 0 0 0-.885 2.134l5.228 5.227v6.014a6.257 6.257 0 0 0 6.25 6.25H57.75A6.257 6.257 0 0 0 64 57.75v-11a6.257 6.257 0 0 0-6.25-6.25zm3.75 17.25a3.754 3.754 0 0 1-3.75 3.75H42.052a3.754 3.754 0 0 1-3.75-3.75v-6.531c0-.332-.132-.65-.366-.884l-3.46-3.46h2.705a1.25 1.25 0 0 0 1.218-.97A3.73 3.73 0 0 1 42.052 43H57.75a3.754 3.754 0 0 1 3.75 3.75v11z"/><path d="M55.52 48.925a1.25 1.25 0 0 0-1.768 0l-3.323 3.323-1.545-1.546a1.25 1.25 0 0 0-1.768 1.768l2.429 2.43a1.246 1.246 0 0 0 1.768 0l4.206-4.207a1.25 1.25 0 0 0 0-1.768zM19.782 8.283a4.344 4.344 0 0 0-4.02-4.018 4.298 4.298 0 0 0-3.26 1.154 4.35 4.35 0 0 0-1.378 3.17 1.25 1.25 0 0 0 2.5 0c0-.515.207-.99.583-1.342a1.834 1.834 0 0 1 3.08 1.208 1.826 1.826 0 0 1-1.425 1.923 2.1 2.1 0 0 0-1.654 2.058v.667a1.25 1.25 0 1 0 2.5 0v-.364a4.31 4.31 0 0 0 3.074-4.456zm-3.439 8.72a1.26 1.26 0 0 0-.884-.366 1.254 1.254 0 0 0-1.25 1.25 1.254 1.254 0 0 0 1.25 1.25c.329 0 .651-.134.884-.367a1.26 1.26 0 0 0 .366-.883 1.26 1.26 0 0 0-.366-.884zm-2.772 39.863a1.259 1.259 0 0 0-.883-.366 1.26 1.26 0 0 0-.884.366 1.26 1.26 0 0 0-.367.884c0 .329.134.651.367.884.232.232.555.366.883.366.33 0 .652-.134.884-.366a1.26 1.26 0 0 0 .367-.884 1.26 1.26 0 0 0-.367-.884z"/></g><defs><clipPath id="a"><path fill="#fff" d="M0 0h64v64H0z"/></clipPath></defs></svg>