<svg width="64" height="64" viewBox="0 0 64 64" fill="none" xmlns="http://www.w3.org/2000/svg"><g clip-path="url(#a)" fill="#98A1A6"><path d="M59.672 29.582l-1.56-1.239.4-.57 1.704-2.416a3.508 3.508 0 0 0-.687-4.765 3.508 3.508 0 0 0-4.797.414l-1.965 2.207v.001l-2.354 2.642-7.896 8.866A46.39 46.39 0 0 0 37.57 41.4a.938.938 0 0 0 1.601.976 44.5 44.5 0 0 1 4.747-6.407l7.307-8.205 3.208 2.545-6.329 8.981a44.502 44.502 0 0 1-5.16 6.08l-4.6 4.523a.106.106 0 0 1-.14.007l-2.368-1.879a.106.106 0 0 1-.024-.138l1.038-1.702a.938.938 0 0 0-1.6-.976l-1.039 1.702a1.974 1.974 0 0 0-.264 1.335c-.845.805-1.707 1.197-2.68 1.225a1.17 1.17 0 0 0-1.125 1.043l-.653 6.126c-.103.959.83 1.73 1.769 1.404l5.817-2.029a1.17 1.17 0 0 0 .76-1.334c-.194-.953-.009-1.881.583-2.887a1.975 1.975 0 0 0 1.24-.56l4.6-4.524a46.394 46.394 0 0 0 5.379-6.336l6.839-9.705.555-.787 1.477 1.172a.542.542 0 0 1 .088.761l-4.391 5.533a.937.937 0 1 0 1.469 1.166l4.39-5.534a2.419 2.419 0 0 0-.39-3.394zm-26.575 25.83l1.556-1.96a.937.937 0 0 0-1.469-1.166l-1.556 1.961.315-2.957c1.118-.157 2.14-.655 3.097-1.507l1.628 1.292c-.612 1.125-.864 2.234-.763 3.358l-2.808.98zm23.035-33.159a1.632 1.632 0 0 1 2.55 2.024l-1.13 1.606-2.726-2.163 1.306-1.467zm-2.555 2.87l2.893 2.295-.956 1.356-3.04-2.412 1.103-1.24zM35.014 18.84H9.671a.938.938 0 0 0 0 1.875h25.343a.937.937 0 1 0 0-1.875zm0 5.5H9.671a.937.937 0 1 0 0 1.875h25.343a.937.937 0 1 0 0-1.875zm.938 6.437a.937.937 0 0 0-.938-.937H9.671a.937.937 0 1 0 0 1.875h25.343c.518 0 .938-.42.938-.938zM9.671 37.214h10.77a.938.938 0 0 0 0-1.875H9.67a.938.938 0 0 0 0 1.875z"/><path d="M51.682 40.156a.937.937 0 0 0-.938.938v17.794a3.24 3.24 0 0 1-3.237 3.237H8.257a3.241 3.241 0 0 1-3.237-3.237V5.112a3.24 3.24 0 0 1 3.237-3.237h30.552c.126 0 .25.013.372.033v6.418a5.118 5.118 0 0 0 5.112 5.112h6.418c.02.122.033.246.033.373v7.22a.937.937 0 1 0 1.875 0v-7.22a4.073 4.073 0 0 0-1.2-2.9l-9.711-9.71A4.073 4.073 0 0 0 38.808 0H8.258a5.118 5.118 0 0 0-5.112 5.112v53.776A5.118 5.118 0 0 0 8.257 64h39.25a5.118 5.118 0 0 0 5.112-5.112V41.094a.937.937 0 0 0-.937-.938zm-2.264-28.593h-5.125a3.24 3.24 0 0 1-3.237-3.237V3.201l8.363 8.362z"/><path d="M10.33 12.25h9.807c.88 0 1.597-.716 1.597-1.596v-3.57c0-.881-.717-1.597-1.597-1.597H10.33c-.88 0-1.596.716-1.596 1.596v3.571c0 .88.716 1.597 1.596 1.597zm.279-4.888h9.25v3.014h-9.25V7.362z"/></g><defs><clipPath id="a"><path fill="#fff" d="M0 0h64v64H0z"/></clipPath></defs></svg>