<svg width="64" height="64" viewBox="0 0 64 64" fill="none" xmlns="http://www.w3.org/2000/svg"><g clip-path="url(#a)" fill="#98A1A6"><path d="M38.38 21.702h15.24a.938.938 0 1 0 0-1.876H38.38a.938.938 0 1 0 0 1.876zm0 4.521h15.24a.938.938 0 1 0 0-1.877H38.38a.938.938 0 1 0 0 1.877zm0 4.52h15.24a.938.938 0 1 0 0-1.876H38.38a.938.938 0 1 0 0 1.876zm0 4.52H46a.938.938 0 1 0 0-1.876h-7.62a.938.938 0 1 0 0 1.876z"/><path d="M59.631 5.914H42.31l-.406-1.518a3.638 3.638 0 0 0-3.51-2.694H25.607a3.638 3.638 0 0 0-3.509 2.694l-.405 1.518H4.369A4.374 4.374 0 0 0 0 10.284v34.318a4.374 4.374 0 0 0 4.369 4.368h13.61l-4.05 9.498c-.772 1.811.556 3.83 2.531 3.83h2.25a2.95 2.95 0 0 0 2.717-1.794l2.056-4.824h17.034l2.056 4.824a2.949 2.949 0 0 0 2.717 1.794h2.25c1.97 0 3.305-2.013 2.53-3.83l-1.252-2.938a.938.938 0 1 0-1.726.736l1.253 2.938a.874.874 0 0 1-.805 1.218h-2.25c-.432 0-.82-.257-.99-.654L39.696 48.97h4.285l1.389 3.256a.938.938 0 1 0 1.726-.736l-1.075-2.52h13.61a4.374 4.374 0 0 0 4.37-4.37V10.284a4.374 4.374 0 0 0-4.37-4.369zM23.91 4.881a1.758 1.758 0 0 1 1.697-1.303h12.787c.793 0 1.491.536 1.696 1.303l.276 1.034H23.634l.276-1.034zM19.7 59.768a1.075 1.075 0 0 1-.99.654h-2.25a.874.874 0 0 1-.805-1.218l4.364-10.233h4.285l-4.603 10.797zm20.016-5.964H24.284l2.06-4.834h11.312l2.06 4.834zM62.124 44.6a2.495 2.495 0 0 1-2.493 2.493H4.37a2.495 2.495 0 0 1-2.493-2.492V10.282A2.495 2.495 0 0 1 4.37 7.791h55.26a2.495 2.495 0 0 1 2.493 2.492v34.319z"/><path d="M57.923 10.043H6.077a1.951 1.951 0 0 0-1.949 1.949V25.25a.938.938 0 1 0 1.877 0V11.992c0-.04.032-.073.072-.073h51.846c.04 0 .072.033.072.073v30.901c0 .04-.032.073-.072.073H6.077a.073.073 0 0 1-.072-.073V29.636a.938.938 0 0 0-1.877 0v13.257c0 1.075.875 1.95 1.95 1.95h51.845a1.952 1.952 0 0 0 1.949-1.95V11.992c0-1.075-.874-1.95-1.95-1.95z"/><path d="M31.382 26.785c.797 0 1.44-.668 1.397-1.468a9.88 9.88 0 0 0-9.365-9.365 1.4 1.4 0 0 0-1.468 1.397v8.038a1.4 1.4 0 0 0 1.398 1.398h8.038zm-7.56-8.917a8.006 8.006 0 0 1 7.041 7.04h-7.04v-7.04z"/><path d="M20.168 19.537a1.548 1.548 0 0 0-1.159-.41A9.895 9.895 0 0 0 9.813 29.25a9.854 9.854 0 0 0 2.908 6.76 9.854 9.854 0 0 0 7 2.91 9.837 9.837 0 0 0 6.845-2.75l.018-.016a9.881 9.881 0 0 0 3.02-6.437 1.54 1.54 0 0 0-1.536-1.644h-7.41v-7.41c0-.425-.179-.836-.49-1.126zm-.643 17.505a7.985 7.985 0 0 1-5.477-2.359 7.987 7.987 0 0 1-2.359-5.477 8.02 8.02 0 0 1 7.092-8.173v7.979c0 .228.09.471.262.65l5.527 5.75a7.975 7.975 0 0 1-5.045 1.63zm6.397-2.93l-1.672-1.74-2.328-2.422h5.776a7.996 7.996 0 0 1-1.776 4.162z"/></g><defs><clipPath id="a"><path fill="#fff" d="M0 0h64v64H0z"/></clipPath></defs></svg>