<svg width="64" height="64" viewBox="0 0 64 64" fill="none" xmlns="http://www.w3.org/2000/svg"><g clip-path="url(#a)"><path d="M63.197 51.568l-13.135-22.2 12.993-10.33a2.504 2.504 0 0 0 .682-3.056l-5.48-11.058a1.86 1.86 0 0 0-1.529-1.036 1.858 1.858 0 0 0-1.672.774L44.275 19.587 36.822 6.992A5.56 5.56 0 0 0 32 4.232a5.559 5.559 0 0 0-4.823 2.76L.801 51.568a5.624 5.624 0 0 0-.045 5.712c1.013 1.777 2.833 2.838 4.868 2.838h52.75c2.036 0 3.856-1.061 4.869-2.838a5.624 5.624 0 0 0-.046-5.712zm-1.583 4.783a3.694 3.694 0 0 1-3.239 1.892H5.625c-2.964 0-4.658-3.276-3.21-5.72L28.79 7.946c1.446-2.445 4.956-2.472 6.419 0l7.868 13.299-1.2 1.662-1.618-2.733-.002-.005-6.663-11.26a.669.669 0 0 0-.013-.021c-.36-.572-.95-.915-1.58-.915-.627 0-1.218.34-1.581.91a1.38 1.38 0 0 0-.017.026c-.015.026-26.377 44.578-26.39 44.602-.705 1.275.089 2.814 1.578 2.865h33.482a.937.937 0 0 0 0-1.875c-.02 0-33.434.001-33.452-.002.011-.035 26.354-44.56 26.378-44.605l5.846 9.88c-.124.135-6.694 9.974-6.803 10.138a.937.937 0 1 0 1.558 1.043l6.295-9.405 1.708 2.886c.248.419.686.682 1.172.704.485.023.946-.2 1.23-.594l13.572-18.79 5.48 11.058a.62.62 0 0 1-.168.756l-21.99 17.482-.608-1.908a1.43 1.43 0 0 0-1.012-.957 1.43 1.43 0 0 0-1.348.352L22.06 46.7l8.52-12.73a.937.937 0 1 0-1.558-1.042l-9.116 13.619a1.734 1.734 0 0 0 .328 2.32c.334.282.735.422 1.133.422a1.75 1.75 0 0 0 1.21-.493l15.14-14.416.587 1.846a1.437 1.437 0 0 0 2.265.69l5.044-4.011c.03.053 12.752 21.535 12.764 21.595-.017.007-15.534.003-15.555.003a.937.937 0 0 0 0 1.874h15.584c.693-.024 1.297-.374 1.616-.937.325-.573.311-1.293-.038-1.928 0 0-12.884-21.777-12.89-21.785l1.486-1.18 13.004 21.977a3.77 3.77 0 0 1 .03 3.828z" fill="#98A1A6"/></g><defs><clipPath id="a"><path fill="#fff" d="M0 0h64v64H0z"/></clipPath></defs></svg>