<svg width="70" height="70" viewBox="0 0 70 70" fill="none" xmlns="http://www.w3.org/2000/svg"><ellipse cx="35" cy="35.583" rx="33.833" ry="33.25" fill="#fff"/><g clip-path="url(#a)" fill="#647AA1"><path d="M53.53 17.5H17.601c-1.344 0-2.434 1.094-2.434 2.48v21.947c0 1.349 1.09 2.48 2.434 2.48h14.132v3.718H28.79c-.98 0-1.744.802-1.744 1.75v.911c0 .985.8 1.75 1.744 1.75h13.55c.982 0 1.744-.802 1.744-1.75v-.911c0-.984-.799-1.75-1.743-1.75h-2.943V44.37H53.53c1.344 0 2.434-1.094 2.434-2.48V19.98c.036-1.386-1.09-2.48-2.434-2.48zm-35.929 1.495H53.53c.509 0 .944.437.944.948v19.286H16.657V19.98c0-.547.435-.984.944-.984zm24.994 30.844v.911a.249.249 0 0 1-.254.255H28.79a.249.249 0 0 1-.255-.255v-.911a.25.25 0 0 1 .254-.256H42.34a.25.25 0 0 1 .254.256zm-4.686-1.75h-4.65v-3.72h4.613v3.72h.037zm15.621-5.214H17.601a.963.963 0 0 1-.944-.948V40.76h37.817v1.167c0 .51-.4.948-.944.948z"/><path d="M48.154 27.599H34.13a.769.769 0 0 1-.763-.766c0-.4.327-.765.763-.765h14.023c.4 0 .763.328.763.765a.746.746 0 0 1-.763.766zm0 3.099H34.13a.769.769 0 0 1-.763-.766c0-.4.327-.765.763-.765h14.023c.4 0 .763.328.763.765a.769.769 0 0 1-.763.766zm-4.142 3.062h-9.88a.769.769 0 0 1-.764-.765.77.77 0 0 1 .763-.766h9.845c.4 0 .763.328.763.766 0 .437-.327.765-.727.765zm-13.695.657a1.3 1.3 0 0 1-.364-.073l-2.07-1.094-2.071 1.094c-.255.145-.545.11-.8-.073-.217-.182-.363-.438-.29-.73l.4-2.296-1.671-1.64c-.218-.22-.291-.511-.182-.767.073-.291.327-.474.617-.51L26.211 28l1.018-2.115c.109-.255.4-.437.69-.437.29 0 .545.146.69.437L29.626 28l2.325.328c.291.037.509.255.618.51.073.256 0 .584-.182.766l-1.67 1.64.363 2.188c.036.073.036.146.036.255a.796.796 0 0 1-.8.73zm-2.398-2.771c.109 0 .254.036.363.073l1.054.547-.218-1.203c-.037-.256.036-.511.218-.657l.872-.838-1.2-.183a.758.758 0 0 1-.58-.4l-.545-1.094-.545 1.093a.758.758 0 0 1-.582.401l-1.198.183.871.838a.77.77 0 0 1 .218.657l-.218 1.203 1.054-.547c.182-.073.29-.073.436-.073z"/></g><path d="M35 69.713C15.83 69.713.287 54.172.287 35S15.83.287 35 .287C54.172.287 69.713 15.828 69.713 35S54.172 69.713 35 69.713zm0-1.721c18.221 0 32.992-14.771 32.992-32.992 0-18.22-14.77-32.992-32.992-32.992C16.78 2.008 2.008 16.78 2.008 35S16.78 67.992 35 67.992z" fill="#647AA1"/><defs><clipPath id="a"><path fill="#fff" transform="translate(15.167 17.5)" d="M0 0h40.833v35H0z"/></clipPath></defs></svg>