<svg width="23" height="23" viewBox="0 0 23 23" fill="none" xmlns="http://www.w3.org/2000/svg"><g clip-path="url(#a)"><path d="M22 7.535s-.216-1.522-.88-2.19c-.84-.88-1.78-.884-2.211-.935-3.086-.224-7.72-.224-7.72-.224h-.008s-4.634 0-7.72.224c-.431.051-1.371.056-2.211.935-.664.668-.875 2.19-.875 2.19S.15 9.323.15 11.108v1.672c0 1.785.22 3.574.22 3.574s.216 1.521.875 2.19c.84.879 1.944.848 2.436.943 1.767.168 7.504.22 7.504.22s4.638-.009 7.724-.228c.431-.052 1.37-.056 2.211-.936.664-.668.88-2.19.88-2.19s.22-1.784.22-3.573v-1.672c0-1.785-.22-3.573-.22-3.573zM8.905 14.81V8.608l5.96 3.112-5.96 3.09z" fill="#E5E5E5"/></g><defs><clipPath id="a"><path fill="#fff" transform="translate(.152 .914)" d="M0 0h22.069v22.069H0z"/></clipPath></defs></svg>