<svg width="150" height="50" viewBox="0 0 150 50" fill="none" xmlns="http://www.w3.org/2000/svg"><path d="M137.668 0H11.918c-.458 0-.91 0-1.368.003-.383.002-.762.01-1.149.016-.84.01-1.676.083-2.505.22a8.332 8.332 0 0 0-2.376.784 8.047 8.047 0 0 0-3.496 3.5 8.252 8.252 0 0 0-.781 2.379c-.14.827-.214 1.664-.224 2.503-.012.383-.013.767-.019 1.15v28.893c.006.389.007.764.019 1.153.01.838.085 1.675.224 2.502.137.829.4 1.632.781 2.38a7.76 7.76 0 0 0 1.473 2.018 7.844 7.844 0 0 0 2.023 1.474c.748.38 1.55.646 2.376.788.829.136 1.666.21 2.505.221.387.009.766.014 1.149.014.457.002.91.002 1.368.002h125.75c.45 0 .906 0 1.355-.002.381 0 .772-.005 1.153-.014.838-.01 1.673-.084 2.5-.22a8.506 8.506 0 0 0 2.385-.79 7.859 7.859 0 0 0 2.022-1.473 8.01 8.01 0 0 0 1.477-2.017c.377-.75.638-1.553.773-2.38.14-.828.217-1.664.232-2.503.005-.389.005-.764.005-1.153.01-.454.01-.905.01-1.367v-26.16c0-.458 0-.912-.01-1.365 0-.384 0-.768-.005-1.152a16.796 16.796 0 0 0-.232-2.502 8.247 8.247 0 0 0-.773-2.38 8.088 8.088 0 0 0-3.499-3.499 8.468 8.468 0 0 0-2.385-.784 16.309 16.309 0 0 0-2.5-.22c-.381-.007-.772-.014-1.153-.017C138.574 0 138.118 0 137.668 0z" fill="#A6A6A6"/><path d="M10.557 48.906c-.381 0-.753-.005-1.13-.013a15.863 15.863 0 0 1-2.337-.204 7.354 7.354 0 0 1-2.071-.685 6.758 6.758 0 0 1-1.746-1.27 6.652 6.652 0 0 1-1.276-1.746 7.153 7.153 0 0 1-.679-2.072 15.518 15.518 0 0 1-.208-2.343c-.008-.264-.018-1.142-.018-1.142V10.555s.01-.864.018-1.118c.01-.784.079-1.566.207-2.34.12-.723.348-1.424.68-2.077a6.717 6.717 0 0 1 1.268-1.748 6.957 6.957 0 0 1 1.753-1.278 7.279 7.279 0 0 1 2.067-.68 15.734 15.734 0 0 1 2.344-.205l1.128-.015h128.461l1.141.016c.779.009 1.555.077 2.323.203a7.414 7.414 0 0 1 2.089.685 6.995 6.995 0 0 1 3.019 3.025 7.23 7.23 0 0 1 .669 2.06c.129.78.202 1.57.217 2.36.004.354.004.734.004 1.112.009.47.009.915.009 1.365v26.161c0 .454 0 .897-.009 1.344 0 .407 0 .779-.005 1.162a15.918 15.918 0 0 1-.214 2.317 7.176 7.176 0 0 1-.675 2.087 6.851 6.851 0 0 1-1.269 1.733 6.775 6.775 0 0 1-1.75 1.278 7.32 7.32 0 0 1-2.085.687c-.772.126-1.553.194-2.336.204-.366.008-.75.013-1.122.013l-1.355.003-127.112-.003z" fill="#000"/><path d="M30.962 25.374a6.186 6.186 0 0 1 2.945-5.19 6.332 6.332 0 0 0-4.989-2.697c-2.099-.22-4.134 1.256-5.203 1.256-1.09 0-2.738-1.234-4.511-1.197a6.644 6.644 0 0 0-5.591 3.41c-2.418 4.185-.614 10.336 1.701 13.72 1.159 1.656 2.513 3.507 4.285 3.441 1.734-.072 2.381-1.105 4.474-1.105 2.074 0 2.681 1.105 4.489 1.063 1.86-.03 3.032-1.664 4.15-3.336a13.7 13.7 0 0 0 1.898-3.866 5.979 5.979 0 0 1-3.648-5.499zm-3.415-10.112a6.09 6.09 0 0 0 1.393-4.364 6.197 6.197 0 0 0-4.01 2.075 5.796 5.796 0 0 0-1.43 4.202 5.123 5.123 0 0 0 4.047-1.913zM52.879 33.92h-5.917l-1.42 4.196h-2.507l5.604-15.522h2.604l5.604 15.522H54.3l-1.42-4.195zm-5.304-1.935h4.69l-2.312-6.81h-.065l-2.313 6.81zm21.376.475c0 3.516-1.882 5.776-4.722 5.776a3.836 3.836 0 0 1-3.561-1.98h-.054v5.605h-2.323v-15.06h2.249v1.882h.042a4.015 4.015 0 0 1 3.604-2.001c2.872 0 4.765 2.27 4.765 5.777zm-2.387 0c0-2.292-1.184-3.798-2.991-3.798-1.775 0-2.969 1.538-2.969 3.797 0 2.28 1.194 3.808 2.969 3.808 1.807 0 2.99-1.496 2.99-3.808zm14.842 0c0 3.516-1.882 5.776-4.722 5.776a3.836 3.836 0 0 1-3.561-1.98h-.054v5.605h-2.323v-15.06h2.249v1.882h.042a4.015 4.015 0 0 1 3.604-2.001c2.872 0 4.765 2.27 4.765 5.777zm-2.387 0c0-2.292-1.184-3.798-2.99-3.798-1.776 0-2.97 1.538-2.97 3.797 0 2.28 1.194 3.808 2.97 3.808 1.806 0 2.99-1.496 2.99-3.808zm10.621 1.332c.172 1.54 1.667 2.55 3.71 2.55 1.959 0 3.367-1.01 3.367-2.398 0-1.205-.85-1.927-2.861-2.421l-2.012-.485c-2.85-.688-4.173-2.021-4.173-4.184 0-2.678 2.334-4.518 5.648-4.518 3.28 0 5.528 1.84 5.604 4.518h-2.345c-.14-1.55-1.42-2.484-3.292-2.484-1.871 0-3.152.946-3.152 2.323 0 1.097.818 1.743 2.819 2.237l1.71.42c3.185.753 4.508 2.033 4.508 4.303 0 2.904-2.313 4.723-5.993 4.723-3.442 0-5.766-1.776-5.916-4.584h2.378zm14.545-9.671V26.8h2.152v1.84h-2.152v6.239c0 .97.43 1.42 1.377 1.42.255-.004.51-.022.764-.053v1.829c-.426.08-.858.115-1.291.107-2.291 0-3.184-.86-3.184-3.055V28.64h-1.646V26.8h1.646v-2.678h2.334zm3.397 8.338c0-3.561 2.097-5.799 5.367-5.799 3.282 0 5.369 2.238 5.369 5.799 0 3.57-2.076 5.798-5.369 5.798-3.291 0-5.367-2.228-5.367-5.798zm8.369 0c0-2.443-1.119-3.885-3.002-3.885-1.882 0-3 1.453-3 3.884 0 2.453 1.118 3.884 3 3.884 1.883 0 3.002-1.431 3.002-3.883zm4.283-5.659h2.216v1.926h.054a2.698 2.698 0 0 1 2.722-2.044c.268-.001.535.028.796.086v2.173a3.25 3.25 0 0 0-1.044-.14 2.34 2.34 0 0 0-2.421 2.604v6.712h-2.323V26.8zm16.498 7.992c-.312 2.055-2.313 3.465-4.873 3.465-3.292 0-5.336-2.206-5.336-5.745 0-3.55 2.055-5.852 5.238-5.852 3.132 0 5.101 2.151 5.101 5.582v.796h-7.994v.14a2.951 2.951 0 0 0 3.045 3.206 2.562 2.562 0 0 0 2.613-1.591h2.206zm-7.853-3.377h5.658a2.72 2.72 0 0 0-2.776-2.872 2.864 2.864 0 0 0-2.882 2.872zm-81.597-20.5a3.3 3.3 0 0 1 3.51 3.706c0 2.383-1.288 3.752-3.51 3.752h-2.694v-7.458h2.694zm-1.536 6.404h1.407a2.344 2.344 0 0 0 2.46-2.683 2.352 2.352 0 0 0-2.46-2.667h-1.407v5.35zm6.354-1.762a2.668 2.668 0 0 1 3.734-2.692 2.667 2.667 0 0 1 1.575 2.692 2.668 2.668 0 1 1-5.309 0zm4.167 0c0-1.22-.548-1.933-1.51-1.933-.966 0-1.51.713-1.51 1.933 0 1.23.544 1.938 1.51 1.938.962 0 1.51-.713 1.51-1.938zm8.199 2.813h-1.152l-1.164-4.145h-.088l-1.158 4.146h-1.142l-1.551-5.629h1.127l1.008 4.295h.083l1.157-4.295h1.066l1.157 4.295h.088l1.003-4.295h1.111l-1.545 5.629zm2.85-5.627h1.07v.894h.083a1.685 1.685 0 0 1 1.68-1.003 1.833 1.833 0 0 1 1.948 2.094v3.644h-1.111v-3.365c0-.905-.393-1.354-1.215-1.354a1.292 1.292 0 0 0-1.344 1.426v3.293h-1.11v-5.629zm6.551-2.196h1.111v7.826h-1.11v-7.826zm2.655 5.01a2.667 2.667 0 1 1 5.31 0 2.666 2.666 0 1 1-5.31 0zm4.166 0c0-1.22-.548-1.933-1.51-1.933-.965 0-1.508.713-1.508 1.933 0 1.23.543 1.938 1.508 1.938.963 0 1.51-.713 1.51-1.938zM83 16.782c0-1.013.754-1.597 2.094-1.68l1.524-.088v-.486c0-.594-.393-.93-1.152-.93-.62 0-1.05.228-1.173.626h-1.076c.114-.967 1.023-1.587 2.3-1.587 1.411 0 2.207.702 2.207 1.891v3.846h-1.07v-.791h-.087a1.894 1.894 0 0 1-1.69.884A1.702 1.702 0 0 1 83 16.782zm3.618-.48v-.471l-1.374.088c-.775.051-1.127.315-1.127.811 0 .507.44.802 1.044.802a1.328 1.328 0 0 0 1.457-1.23zm2.566-.746c0-1.778.914-2.905 2.336-2.905a1.855 1.855 0 0 1 1.726.987h.083v-3.091h1.11v7.826h-1.063v-.89h-.088a1.954 1.954 0 0 1-1.768.983c-1.432 0-2.336-1.127-2.336-2.91zm1.147 0c0 1.194.563 1.912 1.504 1.912.936 0 1.515-.729 1.515-1.907 0-1.173-.585-1.912-1.515-1.912-.935 0-1.504.723-1.504 1.907zm8.705.001a2.666 2.666 0 1 1 5.309 0 2.668 2.668 0 1 1-5.309 0zm4.166 0c0-1.22-.548-1.933-1.51-1.933-.965 0-1.509.713-1.509 1.933 0 1.23.544 1.938 1.509 1.938.962 0 1.51-.713 1.51-1.938zm2.634-2.814h1.069v.894h.083a1.688 1.688 0 0 1 1.68-1.003 1.834 1.834 0 0 1 1.477.579 1.826 1.826 0 0 1 .471 1.515v3.644h-1.111v-3.365c0-.905-.393-1.354-1.214-1.354a1.29 1.29 0 0 0-1.344 1.426v3.293h-1.111v-5.629zm11.056-1.399v1.427h1.22v.935h-1.22v2.895c0 .59.243.848.796.848.142-.001.283-.01.424-.026v.925a3.61 3.61 0 0 1-.604.057c-1.236 0-1.728-.435-1.728-1.52v-3.179h-.893v-.935h.893v-1.427h1.112zm2.739-.797h1.101v3.102h.088a1.729 1.729 0 0 1 1.716-1.009 1.854 1.854 0 0 1 1.939 2.099v3.634h-1.112v-3.36c0-.9-.419-1.355-1.204-1.355a1.318 1.318 0 0 0-1.344.864c-.065.18-.09.373-.073.563v3.288h-1.111v-7.826zm11.321 6.307a2.285 2.285 0 0 1-2.439 1.629 2.556 2.556 0 0 1-2.6-2.905 2.588 2.588 0 0 1 .626-2.063 2.592 2.592 0 0 1 1.969-.878c1.566 0 2.511 1.07 2.511 2.837v.388h-3.975v.062a1.496 1.496 0 0 0 .896 1.492c.191.082.396.123.603.12a1.352 1.352 0 0 0 1.339-.682h1.07zm-3.908-1.814h2.843a1.353 1.353 0 0 0-.833-1.354 1.355 1.355 0 0 0-.552-.104 1.44 1.44 0 0 0-1.458 1.458z" fill="#fff"/></svg>