<svg width="135" height="42" viewBox="0 0 135 42" fill="none" xmlns="http://www.w3.org/2000/svg"><path d="M1.36 25.76h.4c.64.347 1.4.667 2.28.96.88.293 1.84.533 2.88.72 1.067.16 2.16.24 3.28.24 1.227 0 2.28-.093 3.16-.28.88-.213 1.56-.547 2.04-1 .48-.48.72-1.12.72-1.92 0-.987-.307-1.707-.92-2.16-.613-.453-1.613-.8-3-1.04l-3.04-.52c-1.707-.267-3.187-.733-4.44-1.4-1.253-.693-2.227-1.613-2.92-2.76-.667-1.173-1-2.6-1-4.28 0-2.08.48-3.827 1.44-5.24.987-1.44 2.44-2.52 4.36-3.24 1.92-.747 4.28-1.12 7.08-1.12 1.28 0 2.52.12 3.72.36 1.227.213 2.227.493 3 .84v5h-.36c-.747-.347-1.693-.667-2.84-.96-1.12-.293-2.413-.44-3.88-.44-1.387 0-2.613.16-3.68.48-1.04.293-1.853.773-2.44 1.44-.56.667-.84 1.533-.84 2.6 0 1.333.387 2.267 1.16 2.8.773.533 1.933.947 3.48 1.24l2.96.48c1.467.24 2.787.667 3.96 1.28 1.173.587 2.093 1.413 2.76 2.48.693 1.04 1.04 2.373 1.04 4 0 1.44-.293 2.68-.88 3.72-.56 1.04-1.36 1.893-2.4 2.56-1.04.64-2.267 1.107-3.68 1.4-1.387.32-2.907.48-4.56.48-1.173 0-2.307-.08-3.4-.24a32.743 32.743 0 0 1-3.04-.52 19.85 19.85 0 0 1-2.4-.76v-5.2zM25.01 32V8.36c0-.533-.014-1.213-.04-2.04a70.492 70.492 0 0 0-.12-2.48c-.027-.8-.107-1.44-.24-1.92l.12-.32h5.88v11.2l-1.2-1.84c.826-.373 1.72-.68 2.68-.92.986-.267 2.12-.4 3.4-.4 1.306 0 2.52.173 3.64.52 1.146.32 2.133.867 2.96 1.64.853.747 1.52 1.747 2 3 .48 1.227.72 2.76.72 4.6V32h-5.6V19.68c0-1.413-.214-2.507-.64-3.28-.427-.8-1.027-1.347-1.8-1.64-.747-.32-1.627-.48-2.64-.48-.56 0-1.147.053-1.76.16a26.78 26.78 0 0 0-1.68.36 14.37 14.37 0 0 0-1.2.36l1.12-2.52V32h-5.6zM52.254 6.72c-.907 0-1.667-.267-2.28-.8-.587-.56-.88-1.333-.88-2.32 0-.96.293-1.707.88-2.24.613-.56 1.373-.84 2.28-.84.933 0 1.693.28 2.28.84.586.533.88 1.28.88 2.24 0 .987-.294 1.76-.88 2.32-.587.533-1.347.8-2.28.8zM49.455 32V16.92c0-.533-.014-1.213-.04-2.04a71.356 71.356 0 0 0-.12-2.44c-.027-.827-.107-1.48-.24-1.96l.12-.32h5.88V32h-5.6zm10.983 0V10.36c0-2.053.36-3.747 1.08-5.08.746-1.333 1.8-2.32 3.16-2.96 1.36-.64 3.013-.96 4.96-.96.693 0 1.306.04 1.84.12.56.08 1.04.2 1.44.36v4.32h-.4a5.73 5.73 0 0 0-1.08-.32c-.374-.107-.854-.16-1.44-.16-1.414 0-2.427.373-3.04 1.12-.614.747-.92 1.96-.92 3.64V32h-5.6zm-3.48-17.36v-4.48h14.64v4.48h-14.64zm25.868 17.68c-1.893 0-3.506-.28-4.84-.84-1.306-.56-2.306-1.413-3-2.56-.666-1.173-1-2.68-1-4.52V4.52h5.6v19.44c0 1.36.32 2.333.96 2.92.64.587 1.627.88 2.96.88.507 0 1-.053 1.48-.16.507-.107.947-.24 1.32-.4h.36v4.48c-.48.187-1.04.333-1.68.44-.64.133-1.36.2-2.16.2zm-12.32-17.68v-4.48h15.04v4.48h-15.04zm28.016 17.68c-1.894 0-3.507-.28-4.84-.84-1.307-.56-2.307-1.413-3-2.56-.667-1.173-1-2.68-1-4.52V4.52h5.6v19.44c0 1.36.32 2.333.96 2.92.64.587 1.626.88 2.96.88.506 0 1-.053 1.48-.16.506-.107.946-.24 1.32-.4h.36v4.48c-.48.187-1.04.333-1.68.44-.64.133-1.36.2-2.16.2zm-12.32-17.68v-4.48h15.04v4.48h-15.04zM104.619 32V8.36c0-.533-.014-1.213-.04-2.04 0-.853-.027-1.68-.08-2.48-.054-.8-.147-1.44-.28-1.92l.12-.32h5.88V32h-5.6zm12.063 9.28v-.48l5.28-12.68 6.52-17.96h5.68v.48l-11.92 30.64h-5.56zm3.96-7.64l-8.76-23v-.48h5.96l5.84 17.44-3.04 6.04z" fill="#000"/></svg>