<svg width="20" height="20" viewBox="0 0 20 20" fill="none" xmlns="http://www.w3.org/2000/svg"><g opacity=".4" stroke="#fff" stroke-width="1.5"><path d="M17.95 9.112c-.025-.225-.288-.394-.514-.394-.733 0-1.384-.43-1.657-1.096a1.782 1.782 0 0 1 .448-1.979.444.444 0 0 0 .048-.603 7.913 7.913 0 0 0-1.267-1.28.445.445 0 0 0-.608.05c-.477.527-1.334.724-1.996.447a1.777 1.777 0 0 1-1.08-1.736.444.444 0 0 0-.393-.468 7.987 7.987 0 0 0-1.8-.004.445.445 0 0 0-.396.457A1.78 1.78 0 0 1 7.64 4.213c-.654.267-1.505.073-1.98-.45a.446.446 0 0 0-.604-.052 7.96 7.96 0 0 0-1.295 1.28.445.445 0 0 0 .048.608 1.77 1.77 0 0 1 .447 1.996c-.276.658-.959 1.082-1.74 1.082a.435.435 0 0 0-.462.392 8.014 8.014 0 0 0-.004 1.82c.025.226.295.393.525.393a1.754 1.754 0 0 1 1.646 1.096c.28.682.1 1.477-.448 1.979a.445.445 0 0 0-.048.602c.372.474.798.905 1.265 1.28.184.148.45.128.61-.047.478-.53 1.334-.726 1.994-.45.69.29 1.125.988 1.082 1.737a.444.444 0 0 0 .393.468 7.943 7.943 0 0 0 1.8.004.445.445 0 0 0 .396-.458 1.778 1.778 0 0 1 1.094-1.706c.659-.269 1.506-.072 1.982.451.158.172.42.193.603.05a7.965 7.965 0 0 0 1.295-1.28.444.444 0 0 0-.048-.607 1.773 1.773 0 0 1-.448-1.996 1.79 1.79 0 0 1 1.636-1.084l.1.002a.444.444 0 0 0 .467-.392c.07-.601.072-1.213.004-1.82z"/><path clip-rule="evenodd" d="M10 13c-1.654 0-3-1.346-3-3s1.346-3 3-3 3 1.346 3 3-1.346 3-3 3z"/></g></svg>