<svg width="134" height="134" viewBox="0 0 134 134" fill="none" xmlns="http://www.w3.org/2000/svg"><circle cx="67.46" cy="51.13" r="46.521" fill="#FFF5F0" filter="url(#a)"/><path d="M62.91 76.514c.271.23.562.458.853.668.094.067.15.105.16.115a.457.457 0 0 0 .648-.115.49.49 0 0 0-.113-.668l-.197-.143c-.15-.115-.376-.277-.657-.506a18.172 18.172 0 0 1-4.346-5.126c-4.055-7.13-2.431-16.475 3.867-22.231a34.677 34.677 0 0 1 8.373-5.518C57.633 53.767 60.017 63.265 60.13 63.685a.473.473 0 0 0 .18.267.46.46 0 0 0 .308.086c8.485-.716 14.764-3.952 18.67-9.621 7.855-11.407 3.275-29.01 3.228-29.181a.468.468 0 0 0-.161-.253.455.455 0 0 0-.28-.1h-.01c-.1 0-.197.032-.278.092a.481.481 0 0 0-.172.242c-.019.076-2.356 7.512-12.672 10.548a29.834 29.834 0 0 0-14.37 9.087 12.548 12.548 0 0 0-1.953 3.15c-5.988 13.936 6.533 25.467 10.288 28.512z" fill="#B66F49"/><defs><filter id="a" x=".939" y=".609" width="133.041" height="133.039" filterUnits="userSpaceOnUse" color-interpolation-filters="sRGB"><feFlood flood-opacity="0" result="BackgroundImageFix"/><feColorMatrix in="SourceAlpha" values="0 0 0 0 0 0 0 0 0 0 0 0 0 0 0 0 0 0 127 0" result="hardAlpha"/><feOffset dy="16"/><feGaussianBlur stdDeviation="10"/><feComposite in2="hardAlpha" operator="out"/><feColorMatrix values="0 0 0 0 0 0 0 0 0 0 0 0 0 0 0 0 0 0 0.1 0"/><feBlend in2="BackgroundImageFix" result="effect1_dropShadow_2936_28825"/><feBlend in="SourceGraphic" in2="effect1_dropShadow_2936_28825" result="shape"/></filter></defs></svg>