<svg width="22" height="22" viewBox="0 0 22 22" fill="none" xmlns="http://www.w3.org/2000/svg"><path d="M20.294 22c-2.45 0-4.882-.598-7.294-1.794a24.816 24.816 0 0 1-6.515-4.677 24.335 24.335 0 0 1-4.69-6.514C.597 6.593 0 4.167 0 1.735 0 1.245.167.833.5.5.833.167 1.235 0 1.706 0h4.118c.47 0 .857.132 1.161.397.304.265.505.632.603 1.103l.794 3.441c.079.412.074.775-.014 1.088a1.86 1.86 0 0 1-.486.824l-3.03 2.853c1.02 1.686 2.153 3.142 3.398 4.367a18.664 18.664 0 0 0 4.191 3.104l2.882-2.942c.275-.294.584-.495.927-.603a2 2 0 0 1 1.103-.014l3.147.735c.47.118.838.338 1.103.662.265.323.397.72.397 1.19v4.06c0 .49-.167.902-.5 1.235-.333.333-.735.5-1.206.5z" fill="#1B438B"/></svg>