<svg width="91" height="92" viewBox="0 0 91 92" fill="none" xmlns="http://www.w3.org/2000/svg"><path d="M12.704 80.694c-1.707 0-3.207-.648-4.503-1.944-1.295-1.295-1.943-2.796-1.943-4.502V17.752c0-1.77.648-3.286 1.943-4.55 1.296-1.264 2.796-1.896 4.503-1.896H78.3c1.769 0 3.286.632 4.55 1.896 1.263 1.264 1.895 2.78 1.895 4.55v56.496c0 1.706-.632 3.207-1.895 4.502-1.264 1.296-2.781 1.944-4.55 1.944H12.703zm0-6.446H78.3V17.752H12.703v56.496zm6.92-9.29h18.768v-7.583H19.623v7.583zm35.546-7.583l18.674-18.674-5.498-5.403L55.17 46.664l-5.403-5.404-5.308 5.404L55.17 57.375zm-35.547-7.583h18.77v-7.584h-18.77v7.584zm0-15.167h18.77v-7.583h-18.77v7.583zm-6.92 39.623V17.752v56.496z" fill="#1B438B"/></svg>