<svg width="11" height="23" viewBox="0 0 11 23" fill="none" xmlns="http://www.w3.org/2000/svg"><path fill-rule="evenodd" clip-rule="evenodd" d="M2.882 16.464v-5.148c0-.282-.095-.376-.378-.376-.536.031-1.072 0-1.607 0-.221 0-.284-.063-.284-.283V7.455c0-.22.063-.282.284-.282h1.638c.315 0 .378-.094.378-.377a31.718 31.718 0 0 1 0-2.448c.032-1.005.284-1.915.883-2.731C4.552.581 5.623.11 6.852.079 8.112.016 9.405.048 10.665.048c.19 0 .22.062.22.22v3.264c0 .188-.062.25-.251.25H8.806c-.82 0-1.292.409-1.355 1.225-.032.628 0 1.287-.032 1.946 0 .22.126.22.284.22h2.773c.284 0 .378.063.347.345-.126 1.067-.22 2.166-.316 3.233-.031.251-.125.283-.346.283H7.955c-.536 0-.473-.063-.473.47V21.58c0 .346-.094.44-.44.44a75.907 75.907 0 0 0-3.782 0c-.347 0-.41-.126-.41-.44.032-1.726.032-3.421.032-5.116z" fill="#D2D8E1"/></svg>