<svg width="22" height="23" viewBox="0 0 22 23" fill="none" xmlns="http://www.w3.org/2000/svg"><path d="M14.339.87H7.148C3.34.87.168 4.041.168 7.848v7.191c0 3.807 3.172 6.98 6.98 6.98h7.19c3.808 0 6.98-3.173 6.98-6.98V7.85c0-3.807-3.172-6.98-6.98-6.98zm-3.596 15.545a4.964 4.964 0 0 1-4.97-4.97c0-2.75 2.22-4.971 4.97-4.971 2.75 0 4.97 2.22 4.97 4.97 0 2.75-2.22 4.97-4.97 4.97zm5.182-9.2a1.174 1.174 0 0 1-1.163-1.164c0-.635.529-1.163 1.163-1.163.635 0 1.163.528 1.163 1.163s-.528 1.163-1.163 1.163z" fill="#D2D8E1"/><path d="M13.598 11.445a2.843 2.843 0 0 1-2.855 2.855 2.844 2.844 0 0 1-2.855-2.855 2.843 2.843 0 0 1 2.855-2.856 2.843 2.843 0 0 1 2.855 2.856z" fill="#D2D8E1"/></svg>