<svg width="77" height="25" viewBox="0 0 77 25" fill="none" xmlns="http://www.w3.org/2000/svg"><path d="M7.89 5.79H.486v13.723H7.89a6.8 6.8 0 0 0 4.837-2.009 6.843 6.843 0 0 0 2.003-4.853c0-3.792-3.06-6.862-6.84-6.862zm1.777 8.856a2.81 2.81 0 0 1-1.989.835H4.646V9.963H7.82a2.683 2.683 0 0 1 2.68 2.688 2.77 2.77 0 0 1-.832 1.995zM16.704 2.96v3.96h14.385V.98L16.704 2.96zm14.385 19.17v-3.96H16.704v5.942l14.385-1.98zm0-11.6H16.704v3.96h14.385v-3.96zm23.354-4.74c-3.78 0-6.84 3.07-6.84 6.861 0 3.792 3.06 6.862 6.84 6.862s6.84-3.07 6.84-6.862c0-3.792-3.075-6.862-6.84-6.862zm0 9.733a2.87 2.87 0 0 1-2.863-2.872 2.87 2.87 0 0 1 2.863-2.872 2.87 2.87 0 0 1 2.863 2.872 2.87 2.87 0 0 1-2.863 2.872zm-11.818-2.009l3.709 1.443c-.987 2.76-3.695 4.712-6.84 4.528-3.497-.198-6.304-3.07-6.43-6.58-.156-3.89 2.96-7.116 6.825-7.116a6.834 6.834 0 0 1 6.445 4.57l-3.709 1.443a2.87 2.87 0 0 0-2.736-2.037 2.876 2.876 0 0 0-2.863 3.042c.085 1.485 1.326 2.688 2.807 2.716a2.85 2.85 0 0 0 2.792-2.009zM69.448 5.79c-3.78 0-6.84 3.07-6.84 6.861 0 3.792 3.06 6.862 6.84 6.862s6.84-3.07 6.84-6.862c0-3.792-3.06-6.862-6.84-6.862zm0 9.733a2.87 2.87 0 0 1-2.862-2.872 2.87 2.87 0 0 1 2.862-2.872 2.87 2.87 0 0 1 2.863 2.872 2.87 2.87 0 0 1-2.863 2.872z" fill="#CAD5E9"/></svg>