<svg width="119" height="38" viewBox="0 0 119 38" fill="none" xmlns="http://www.w3.org/2000/svg"><path d="M12.21 8.422H.65v21.427h11.56c2.95 0 5.615-1.193 7.552-3.137a10.684 10.684 0 0 0 3.127-7.577c0-5.92-4.778-10.713-10.679-10.713zm2.774 13.828a4.388 4.388 0 0 1-3.104 1.303H7.146v-8.615H12.1a4.188 4.188 0 0 1 4.184 4.197c0 1.215-.485 2.32-1.3 3.115zM25.972 4.004v6.185H48.43V.912L25.97 4.004zM48.43 33.935V27.75H25.973v9.278l22.459-3.093zm0-18.113H25.973v6.185H48.43v-6.185zm36.463-7.4c-5.9 0-10.679 4.793-10.679 10.713 0 5.92 4.778 10.714 10.68 10.714 5.9 0 10.678-4.794 10.678-10.714 0-5.92-4.8-10.713-10.679-10.713zm0 15.197c-2.466 0-4.47-2.01-4.47-4.484s2.004-4.484 4.47-4.484c2.466 0 4.47 2.01 4.47 4.484s-2.004 4.484-4.47 4.484zm-18.451-3.136l5.791 2.253c-1.541 4.307-5.769 7.356-10.679 7.069-5.46-.31-9.842-4.794-10.04-10.272-.243-6.075 4.623-11.111 10.656-11.111 4.646 0 8.61 2.982 10.063 7.135l-5.79 2.253a4.481 4.481 0 0 0-4.273-3.18c-2.554 0-4.601 2.142-4.47 4.748.133 2.32 2.07 4.197 4.383 4.241a4.45 4.45 0 0 0 4.36-3.136zm41.879-12.061c-5.901 0-10.68 4.793-10.68 10.713 0 5.92 4.779 10.714 10.68 10.714S119 25.055 119 19.135c0-5.92-4.778-10.713-10.679-10.713zm0 15.197c-2.466 0-4.47-2.01-4.47-4.484s2.004-4.484 4.47-4.484c2.466 0 4.469 2.01 4.469 4.484s-2.003 4.484-4.469 4.484z" fill="#FE8A90"/></svg>