<svg width="79" height="14" viewBox="0 0 79 14" fill="none" xmlns="http://www.w3.org/2000/svg"><path d="M6.554.545L8.716 4.07l4.02.967-2.683 3.146.322 4.122-3.821-1.58-3.82 1.58.321-4.122L.372 5.036l4.02-.967L6.554.545zm16.25 0l2.162 3.524 4.02.967-2.683 3.146.322 4.122-3.821-1.58-3.82 1.58.321-4.122-2.683-3.146 4.02-.967L22.804.545zm16.25 0l2.162 3.524 4.02.967-2.684 3.146.322 4.122-3.82-1.58-3.82 1.58.321-4.122-2.683-3.146 4.02-.967L39.053.545z" fill="#FFC833"/><path d="M55.304.545l2.162 3.524 4.02.967-2.684 3.146.322 4.122-3.82-1.58-3.82 1.58.321-4.122-2.683-3.146 4.02-.967L55.303.545zm16.25 0l2.162 3.524 4.02.967-2.684 3.146.322 4.122-3.82-1.58-3.82 1.58.321-4.122-2.683-3.146 4.02-.967L71.553.545z" fill="#E7EDFF"/></svg>