<svg width="68" height="13" viewBox="0 0 68 13" fill="none" xmlns="http://www.w3.org/2000/svg"><path d="M6 .938l1.996 3.253 3.71.893L9.23 7.988l.297 3.804L6 10.334l-3.527 1.458.297-3.804L.294 5.084l3.71-.893L6 .938zm14 0l1.996 3.253 3.71.893-2.476 2.904.297 3.804L20 10.334l-3.527 1.458.297-3.804-2.476-2.904 3.71-.893L20 .938zm14 0l1.996 3.253 3.71.893-2.476 2.904.297 3.804L34 10.334l-3.527 1.458.297-3.804-2.476-2.904 3.71-.893L34 .938zm14 0l1.996 3.253 3.71.893-2.476 2.904.297 3.804L48 10.334l-3.527 1.458.297-3.804-2.476-2.904 3.71-.893L48 .938zm14 0l1.996 3.253 3.71.893-2.476 2.904.297 3.804L62 10.334l-3.527 1.458.297-3.804-2.476-2.904 3.71-.893L62 .938z" fill="#FFC833"/></svg>