<svg width="18" height="18" viewBox="0 0 18 18" fill="none" xmlns="http://www.w3.org/2000/svg"><path d="M7.667 9l-6.4-6.489A.807.807 0 0 1 1 1.89c0-.267.089-.445.267-.622.177-.178.533-.267.8-.267.266 0 .533.089.71.267L9 7.577l6.222-6.31c.178-.178.445-.267.711-.267.267 0 .534.089.711.267.178.177.356.355.356.622a.807.807 0 0 1-.267.622L10.333 9l6.49 6.578c.088.178.177.355.177.533a.807.807 0 0 1-.267.622c-.177.178-.444.267-.8.267-.355 0-.533-.089-.71-.267L9 10.333l-6.222 6.4c-.178.178-.445.267-.711.267-.267 0-.534-.089-.711-.267-.178-.177-.356-.355-.356-.622 0-.178.089-.355.178-.533L7.667 9z" fill="#9D9D9D" stroke="#F3F3F3" stroke-width=".8"/></svg>