<svg width="20" height="20" viewBox="0 0 20 20" fill="none" xmlns="http://www.w3.org/2000/svg"><g clip-path="url(#a)"><path d="M9.567 3.935l.43.728.43-.728c.868-1.467 2.413-2.435 4.17-2.435 2.688 0 4.9 2.27 4.9 5.111a5.184 5.184 0 0 1-1.69 3.855l-.012.011-.012.012-7.653 7.952a.184.184 0 0 1-.133.059.184.184 0 0 1-.133-.059L2.211 10.49l-.012-.012-.012-.011A5.184 5.184 0 0 1 .497 6.61c0-2.84 2.212-5.111 4.9-5.111 1.757 0 3.302.969 4.17 2.435z" stroke="#939393"/></g><defs><clipPath id="a"><path fill="#fff" d="M0 0h20v20H0z"/></clipPath></defs></svg>