<svg width="20" height="20" viewBox="0 0 20 20" fill="none" xmlns="http://www.w3.org/2000/svg"><path d="M2.515 2.515A8.53 8.53 0 0 1 8.587 0a8.53 8.53 0 0 1 6.072 2.515 8.53 8.53 0 0 1 2.515 6.072 8.523 8.523 0 0 1-2.115 5.643l4.77 4.769a.586.586 0 1 1-.83.83l-4.77-4.77a8.523 8.523 0 0 1-5.642 2.115 8.53 8.53 0 0 1-6.072-2.515A8.531 8.531 0 0 1 0 8.587a8.53 8.53 0 0 1 2.515-6.072zm.83 11.314c2.89 2.89 7.594 2.89 10.484 0 2.89-2.89 2.89-7.594 0-10.484a7.39 7.39 0 0 0-5.242-2.168 7.392 7.392 0 0 0-5.242 2.168c-2.89 2.89-2.89 7.594 0 10.484z" fill="#000"/></svg>