<svg width="21" height="23" viewBox="0 0 21 23" fill="none" xmlns="http://www.w3.org/2000/svg"><path d="M16.3 14.1c-1.3 0-2.5.7-3.3 1.8v.1l-4.6-2.6.1-.1c.3-.6.4-1.2.4-1.8 0-.3-.1-.7-.2-1.1v-.1l4.7-2.7.1.1c.8.8 1.8 1.3 2.8 1.3 2.1 0 3.9-1.7 3.9-3.9s-1.7-3.9-3.9-3.9c-2.1 0-3.9 1.7-3.9 3.9 0 .3.1.7.2 1.1v.1L8 9l-.1-.1C7.1 8.1 6.1 7.6 5 7.6c-2.1 0-3.9 1.7-3.9 3.9 0 2.1 1.7 3.9 3.9 3.9.8 0 1.7-.3 2.3-.8l.1.1v-.1l5 2.8v.5c0 2.1 1.7 3.9 3.9 3.9 2.1 0 3.9-1.7 3.9-3.9 0-2.1-1.7-3.8-3.9-3.8zm0-11.6c1.4 0 2.6 1.2 2.6 2.6 0 1.4-1.2 2.6-2.6 2.6-1.4 0-2.5-1.2-2.5-2.7 0-1.4 1.1-2.5 2.5-2.5zM5 14.1c-1.4 0-2.6-1.2-2.6-2.6 0-1.4 1.2-2.6 2.6-2.6 1.4 0 2.6 1.2 2.6 2.6 0 1.4-1.1 2.6-2.6 2.6zm11.3 6.4c-1.4 0-2.6-1.2-2.6-2.6 0-1.4 1.2-2.6 2.6-2.6 1.4 0 2.6 1.2 2.6 2.6 0 1.4-1.1 2.6-2.6 2.6z" fill="#A5A5A5"/></svg>