<svg width="24" height="25" viewBox="0 0 24 25" fill="none" xmlns="http://www.w3.org/2000/svg"><g clip-path="url(#a)" fill="#A4A4A4"><path d="M23.294.164c-2.668 0-5.32 1.052-7.316 3.08l-8.47 8.606 1.996 2.029 8.3-8.433.998 1.014-8.3 8.433 1.997 2.029 8.47-8.607A10.59 10.59 0 0 0 24 .88V.164h-.706zM5.44 11.85l-.998 1.014 2.032 2.065-.963.978 2.995 3.043.963-.978 2.032 2.065.998-1.015L5.44 11.85zm-2.794 6.969C1.17 18.91 0 20.154 0 21.68c0 1.582 1.267 2.87 2.824 2.87 1.502 0 2.726-1.189 2.817-2.69l1.867-1.896-2.995-3.043-1.867 1.896z"/></g><defs><clipPath id="a"><path fill="#fff" transform="translate(0 .164)" d="M0 0h24v24.386H0z"/></clipPath></defs></svg>