<svg width="24" height="24" viewBox="0 0 24 24" fill="none" xmlns="http://www.w3.org/2000/svg"><path d="M21 14h-1V9c1.103 0 2-.897 2-2V4c0-1.103-.897-2-2-2h-5.05a2.504 2.504 0 0 0-2.45-2h-1c-1.207 0-2.217.86-2.45 2H4c-1.103 0-2 .897-2 2v3c0 1.103.897 2 2 2v5H3c-1.103 0-2 .897-2 2v3c0 1.103.897 2 2 2h1v1c0 1.103.897 2 2 2h12c1.103 0 2-.897 2-2v-1h1c1.103 0 2-.897 2-2v-3c0-1.103-.897-2-2-2zM15 3h1v7h-1V3zm0 8h1v.5a.5.5 0 0 1-1 0V11zM11.5 1h1c.651 0 1.2.42 1.408 1h-3.816c.207-.58.757-1 1.408-1zM8 3h1.001c-.002.172-.003 1.135-.002 7H8V3zm0 8h1v.5a.496.496 0 0 1-.146.354c-.289.29-.853.056-.854-.354V11zm9 9.5a.5.5 0 0 1-.5.5h-9a.5.5 0 0 1-.5-.5v-6a.5.5 0 0 1 .5-.5h9a.5.5 0 0 1 .5.5v6z" fill="#A4A4A4"/><path d="M12.5 18.5a.5.5 0 1 1-1 0v-.552c-1.31-.24-2.647-1.343-3.5-2.18V20h8v-4.232c-.853.837-2.19 1.94-3.5 2.18v.552z" fill="#A4A4A4"/><path d="M11.5 16.5a.5.5 0 1 1 1 0v.421c.97-.257 2.074-1.16 2.849-1.921H8.65c.775.761 1.88 1.664 2.849 1.921V16.5z" fill="#A4A4A4"/></svg>