<svg width="20" height="20" viewBox="0 0 20 20" fill="none" xmlns="http://www.w3.org/2000/svg"><path d="M16.167 12.282c-.652-.643-1.465-.643-2.113 0-.494.49-.988.98-1.474 1.478-.133.137-.245.166-.407.075-.32-.175-.66-.316-.967-.507-1.432-.9-2.632-2.059-3.695-3.363-.527-.647-.996-1.34-1.324-2.12-.066-.159-.054-.262.075-.391.494-.478.975-.967 1.461-1.457.677-.681.677-1.478-.004-2.163-.386-.39-.772-.772-1.158-1.163-.399-.398-.793-.8-1.196-1.195C4.713.84 3.9.84 3.252 1.48c-.498.49-.976.992-1.482 1.474-.47.444-.706.988-.756 1.623-.078 1.034.175 2.01.532 2.96.73 1.968 1.843 3.715 3.192 5.318a19.755 19.755 0 0 0 6.543 5.119c1.146.556 2.333.983 3.624 1.054.889.05 1.66-.174 2.28-.868.423-.473.9-.905 1.348-1.357.665-.673.669-1.486.009-2.15a639.374 639.374 0 0 0-2.375-2.371z" stroke="#000"/></svg>