<svg width="172" height="38" viewBox="0 0 172 38" fill="none" xmlns="http://www.w3.org/2000/svg"><mask id="a" style="mask-type:alpha" maskUnits="userSpaceOnUse" x="1" y="1" width="35" height="35"><path d="M11.942 1.275H9.883c-.824 0-1.51 0-2.333.138-.687.137-1.373.411-2.06.823-.686.275-1.372.686-1.92 1.235a8.812 8.812 0 0 0-1.373 1.785c-.412.686-.55 1.372-.687 2.196-.137.823-.137 1.51-.137 2.333v17.432c0 .823 0 1.51.137 2.333.138.823.412 1.51.687 2.196a8.813 8.813 0 0 0 1.372 1.784 8.81 8.81 0 0 0 1.784 1.373c.687.412 1.373.549 2.197.686.686.137 1.51.137 2.333.137H27.45c.824 0 1.51 0 2.334-.137.823-.137 1.51-.412 2.196-.686a8.809 8.809 0 0 0 1.784-1.373 8.815 8.815 0 0 0 1.373-1.784c.412-.686.549-1.373.686-2.196.137-.686.137-1.51.137-2.333V9.785c0-.823 0-1.51-.137-2.333-.137-.824-.412-1.51-.686-2.196a8.814 8.814 0 0 0-1.373-1.785A8.81 8.81 0 0 0 31.981 2.1c-.686-.412-1.373-.55-2.196-.686-.686-.138-1.51-.138-2.334-.138H11.942z" fill="#fff"/></mask><g mask="url(#a)"><path d="M35.824 1.275H1.374v34.451h34.45V1.276z" fill="#fff"/></g><path d="M43.785 10.608c0-.824.686-1.51 1.51-1.51.823 0 1.372.686 1.372 1.51 0 .686-.549 1.372-1.372 1.372-.824 0-1.51-.686-1.51-1.372zm.137 3.157h2.608v12.49h-2.608v-12.49zm9.334 12.49V11.432H48.04V9.235h13.04v2.334h-5.216v14.823l-2.608-.137zm18.53 0h-2.471V24.06c-.687 1.51-1.922 2.333-3.844 2.333-2.745 0-4.392-1.784-4.392-4.53v-8.097h2.608v7.412c0 1.921.96 2.882 2.608 2.882 1.784 0 3.02-1.235 3.02-3.157v-7.137h2.607l-.137 12.49zm2.607-12.49h2.47v2.059c.687-1.51 2.06-2.196 3.844-2.196 2.745 0 4.255 1.784 4.255 4.666v7.961h-2.608v-7.412c0-1.921-.824-2.882-2.608-2.882-1.784 0-2.882 1.235-2.882 3.157v7.137h-2.608l.137-12.49zm23.745 8.784c-.412 2.196-2.608 3.843-5.353 3.843-3.569 0-5.902-2.47-5.902-6.313 0-3.844 2.196-6.451 5.765-6.451 3.431 0 5.627 2.333 5.627 6.176v.824h-8.784v.137c0 2.059 1.373 3.569 3.294 3.569 1.373 0 2.47-.687 2.883-1.785h2.47zm-8.647-3.706h6.177c0-1.921-1.236-3.157-3.02-3.157-1.647 0-3.02 1.373-3.157 3.157zm15.373-5.215c2.745 0 4.666 1.51 4.804 3.706h-2.334c-.137-1.099-1.098-1.785-2.47-1.785-1.373 0-2.334.686-2.334 1.647 0 .686.549 1.235 1.922 1.51l2.059.55c2.47.548 3.431 1.509 3.431 3.293 0 2.196-2.059 3.843-5.216 3.843-2.882 0-4.94-1.51-5.078-3.706h2.47c.138 1.236 1.099 1.785 2.746 1.785 1.509 0 2.47-.686 2.47-1.647 0-.824-.412-1.236-1.784-1.51l-2.196-.55c-2.196-.548-3.432-1.646-3.432-3.43.138-2.197 2.059-3.706 4.942-3.706zm14.137 7.823c.137 1.647 1.784 2.745 4.117 2.745 2.197 0 3.706-1.098 3.706-2.608 0-1.372-.96-2.058-3.156-2.608l-2.197-.549c-3.156-.823-4.529-2.196-4.529-4.529 0-2.882 2.608-4.941 6.176-4.941 3.569 0 6.04 2.059 6.177 4.941h-2.608c-.137-1.647-1.51-2.745-3.569-2.745-2.058 0-3.431 1.098-3.431 2.608 0 1.235.961 1.921 3.157 2.47l1.922.412c3.431.824 4.941 2.196 4.941 4.667 0 3.157-2.608 5.216-6.589 5.216-3.843 0-6.313-1.922-6.45-5.079h2.333zm15.921-10.569v2.883h2.334v2.059h-2.334v6.862c0 1.099.412 1.51 1.51 1.51h.824v2.06c-.275.136-.824.136-1.373.136-2.47 0-3.431-.96-3.431-3.294v-7.137h-1.784v-2.196h1.784v-2.883h2.47zm3.295 9.197c0-3.844 2.333-6.314 5.901-6.314 3.569 0 5.902 2.47 5.902 6.314 0 3.98-2.333 6.313-5.902 6.313-3.568 0-5.901-2.47-5.901-6.313zm9.196 0c0-2.745-1.236-4.255-3.295-4.255-2.058 0-3.294 1.647-3.294 4.255 0 2.745 1.236 4.255 3.294 4.255 2.059 0 3.295-1.648 3.295-4.255zm4.666-6.314h2.471v2.059c.412-1.373 1.51-2.196 3.019-2.196.412 0 .687 0 .824.137v2.333c-.137-.137-.686-.137-1.098-.137-1.647 0-2.608 1.098-2.608 2.882v7.412h-2.608v-12.49zm17.981 8.784c-.412 2.196-2.608 3.843-5.353 3.843-3.569 0-5.902-2.47-5.902-6.313 0-3.844 2.196-6.451 5.764-6.451 3.432 0 5.628 2.333 5.628 6.176v.824h-8.784v.137c0 2.059 1.372 3.569 3.294 3.569 1.372 0 2.47-.687 2.882-1.785h2.471zm-8.647-3.706h6.176c0-1.921-1.235-3.157-3.02-3.157-1.647 0-3.019 1.373-3.156 3.157z" fill="#fff"/><path d="M15.198 14.355l3.224-8.75 3.684 8.75h9.21l-7.368 6.448 2.764 9.67-8.29-5.986-8.29 5.987 3.224-9.671-7.829-6.448h9.671z" fill="#000"/></svg>