<svg width="136" height="38" viewBox="0 0 136 38" fill="none" xmlns="http://www.w3.org/2000/svg"><path fill-rule="evenodd" clip-rule="evenodd" d="M42.823 8.719a5.358 5.358 0 0 0-3.778-3.778c-3.33-.89-16.688-.89-16.688-.89s-13.352 0-16.689.89A5.358 5.358 0 0 0 1.89 8.719C1 12.049 1 18.999 1 18.999s0 6.952.89 10.282a5.357 5.357 0 0 0 3.778 3.777c3.337.89 16.689.89 16.689.89s13.358 0 16.688-.89a5.357 5.357 0 0 0 3.778-3.777c.89-3.33.89-10.281.89-10.281s0-6.951-.89-10.281z" fill="#fff"/><path fill-rule="evenodd" clip-rule="evenodd" d="M18.09 25.407L29.186 19 18.09 12.592v12.815z" fill="#040507"/><path fill-rule="evenodd" clip-rule="evenodd" d="M62.997 31.251c-.843-.57-1.447-1.454-1.8-2.657-.354-1.202-.538-2.8-.538-4.797v-2.718c0-2.018.204-3.635.612-4.858.408-1.223 1.047-2.114 1.91-2.67.862-.558 1.997-.843 3.404-.843 1.386 0 2.494.285 3.33.856.835.57 1.447 1.46 1.834 2.67s.578 2.827.578 4.838v2.718c0 1.998-.19 3.602-.565 4.811-.373 1.21-.985 2.1-1.834 2.657-.843.557-1.991.843-3.439.843-1.48.006-2.65-.28-3.492-.85zm4.736-2.935c.231-.612.353-1.61.353-2.99v-5.837c0-1.346-.115-2.324-.353-2.949-.231-.618-.645-.93-1.237-.93-.57 0-.971.312-1.21.93-.23.618-.353 1.604-.353 2.95v5.836c0 1.386.11 2.385.333 2.99.225.611.632.917 1.224.917.598 0 1.005-.306 1.243-.917zm60.135-4.471v.944c0 1.203.034 2.1.109 2.704.068.599.218 1.04.442 1.312s.57.414 1.039.414c.632 0 1.067-.244 1.298-.734.231-.489.36-1.304.381-2.446l3.635.211c.02.163.027.387.027.673 0 1.733-.476 3.023-1.42 3.88-.945.856-2.283 1.284-4.016 1.284-2.079 0-3.533-.653-4.369-1.957-.836-1.305-1.25-3.316-1.25-6.047v-3.269c0-2.813.435-4.858 1.297-6.156.863-1.291 2.345-1.937 4.445-1.937 1.447 0 2.554.265 3.329.795.775.53 1.318 1.352 1.638 2.474.312 1.12.475 2.67.475 4.64v3.208h-7.06v.006zm.537-7.883c-.211.265-.353.7-.428 1.298-.075.598-.109 1.516-.109 2.732v1.345h3.085v-1.345c0-1.203-.041-2.113-.122-2.732-.082-.618-.231-1.06-.442-1.311-.211-.252-.543-.38-.992-.38-.448-.008-.781.128-.992.393zm-75.668 7.53L47.94 6.17h4.185l1.678 7.848c.428 1.937.741 3.581.945 4.947h.122c.143-.979.455-2.616.945-4.92l1.74-7.882h4.185L56.888 23.49v8.31h-4.151v-8.31zm33.2-10.417v18.72H82.64l-.367-2.29h-.088c-.897 1.733-2.243 2.595-4.03 2.595-1.243 0-2.16-.407-2.751-1.223-.592-.815-.884-2.086-.884-3.818V13.075h4.213V26.82c0 .835.088 1.434.272 1.787.183.353.489.537.917.537.367 0 .72-.11 1.053-.333.333-.225.585-.51.748-.856v-14.88h4.213zm21.621 0v18.72h-3.295l-.367-2.29h-.089c-.897 1.733-2.242 2.595-4.03 2.595-1.242 0-2.16-.407-2.75-1.223-.592-.815-.884-2.086-.884-3.818V13.075h4.213V26.82c0 .835.088 1.434.271 1.787.184.353.49.537.918.537.367 0 .72-.11 1.053-.333a2.11 2.11 0 0 0 .747-.856v-14.88h4.213z" fill="#fff"/><path fill-rule="evenodd" clip-rule="evenodd" d="M97.392 9.562h-4.185v22.233h-4.125V9.562h-4.185v-3.39h12.488v3.39h.007zm24.116 6.51c-.258-1.183-.666-2.04-1.237-2.57-.571-.53-1.352-.794-2.351-.794-.775 0-1.495.217-2.168.659a4.434 4.434 0 0 0-1.556 1.726h-.034V5.227h-4.063v26.575h3.479l.428-1.774h.088a3.58 3.58 0 0 0 1.468 1.495c.652.367 1.373.55 2.168.55 1.427 0 2.473-.659 3.146-1.97.672-1.312 1.005-3.364 1.005-6.156v-2.963c.007-2.093-.122-3.73-.373-4.913zm-3.867 7.637c0 1.366-.054 2.432-.169 3.207-.109.775-.299 1.325-.564 1.651-.266.326-.619.49-1.067.49-.347 0-.666-.082-.965-.245a1.87 1.87 0 0 1-.72-.734V17.444c.142-.51.387-.924.734-1.25.346-.326.72-.49 1.127-.49.428 0 .761.17.992.503.231.333.395.904.49 1.692.088.795.135 1.923.135 3.39v2.42h.007z" fill="#fff"/></svg>