<svg width="307" height="85" viewBox="0 0 307 85" fill="none" xmlns="http://www.w3.org/2000/svg"><path d="M96.831 63.288v-22.75h10.554v22.75h-3.313V43.414h-3.929v19.874h-3.312zm22.792-7.956L118 47.09h-.065l-1.624 8.243h3.312zm-8.183 7.956l5.163-22.75h2.761l5.163 22.75h-3.312l-.975-4.888h-4.513l-.974 4.888h-3.313zm17.153 0v-22.75h4.968c.91 0 1.711.118 2.403.352.693.234 1.321.65 1.884 1.246a4.85 4.85 0 0 1 1.169 2.11c.216.787.324 1.863.324 3.226 0 1.023-.064 1.885-.194 2.588a5.17 5.17 0 0 1-.747 1.981 4.925 4.925 0 0 1-1.819 1.758c-.757.404-1.753.607-2.987.607h-1.689v8.882h-3.312zm3.312-19.682v7.732h1.591c.672 0 1.191-.096 1.559-.287.368-.192.639-.458.812-.8.173-.319.271-.713.292-1.181.043-.469.065-.99.065-1.566 0-.532-.011-1.033-.032-1.502-.022-.49-.119-.916-.293-1.278a1.826 1.826 0 0 0-.779-.83c-.346-.192-.844-.288-1.494-.288h-1.721zm23.907 0c-.303 0-.552.043-.747.128a1.312 1.312 0 0 0-.552.383 1.56 1.56 0 0 0-.357.703 9.012 9.012 0 0 0-.162.927l-.292 2.652a7.31 7.31 0 0 1-.098.767c-.043.213-.086.436-.13.67a2.229 2.229 0 0 1-.195.576 3.272 3.272 0 0 1-.487.799 2.915 2.915 0 0 1-.519.51l3.442 11.567h-3.377l-2.923-10.128h-1.851v10.128h-3.312v-22.75h3.312v9.746h1.104c.39 0 .704-.053.942-.16a1.53 1.53 0 0 0 .585-.447 1.8 1.8 0 0 0 .324-.64 8.25 8.25 0 0 0 .163-.83l.324-2.716c.022-.085.044-.255.065-.511.044-.277.109-.586.195-.927a7.68 7.68 0 0 1 .357-1.054c.152-.362.347-.703.585-1.023a3.375 3.375 0 0 1 1.494-1.086c.606-.234 1.309-.351 2.11-.351v3.067zm12.782 19.682v-22.75h4.968c.909 0 1.71.118 2.403.352.693.234 1.321.65 1.883 1.246a4.84 4.84 0 0 1 1.169 2.11c.217.787.325 1.863.325 3.226 0 1.023-.065 1.885-.195 2.588a5.138 5.138 0 0 1-.747 1.981 4.915 4.915 0 0 1-1.818 1.758c-.758.404-1.754.607-2.987.607h-1.689v8.882h-3.312zm3.312-19.682v7.732h1.591c.671 0 1.191-.096 1.559-.287a1.83 1.83 0 0 0 .812-.8c.173-.319.27-.713.292-1.181.043-.469.065-.99.065-1.566 0-.532-.011-1.033-.033-1.502-.021-.49-.119-.916-.292-1.278a1.826 1.826 0 0 0-.779-.83c-.347-.192-.845-.288-1.494-.288h-1.721zm18.062 0c-1.169 0-1.938.309-2.306.927-.346.596-.519 1.47-.519 2.62 0 .575.032 1.086.097 1.533.065.426.184.788.357 1.087.195.298.466.532.812.703.347.149.812.223 1.397.223h1.591v-7.093h-1.429zm1.429 19.682v-9.713h-1.526l-2.89 9.713h-3.378l3.15-10.128a3.802 3.802 0 0 1-1.364-.863 4.728 4.728 0 0 1-.941-1.31c-.238-.49-.401-1.065-.487-1.726-.087-.66-.13-1.342-.13-2.044 0-4.452 1.948-6.678 5.845-6.678h5.033v22.75h-3.312zm8.442-16.998c0-.64.129-1.363.389-2.173a5.518 5.518 0 0 1 1.267-2.077 6.767 6.767 0 0 1 1.688-1.214c.628-.32 1.353-.479 2.176-.479.974 0 1.808.17 2.5.511.715.32 1.299.756 1.754 1.31a5.14 5.14 0 0 1 1.039 1.981c.216.767.325 1.576.325 2.428 0 .427-.011.863-.033 1.31a4.84 4.84 0 0 1-.26 1.31c-.13.427-.357.831-.682 1.215-.303.383-.746.735-1.331 1.054.585.234 1.028.543 1.331.927.325.362.552.777.682 1.246.152.447.238.948.26 1.502.022.532.033 1.086.033 1.661 0 .959-.109 1.853-.325 2.684-.195.83-.53 1.523-1.007 2.077-.476.553-1.082 1.011-1.818 1.374-.715.362-1.602.543-2.663.543a5.984 5.984 0 0 1-2.241-.416 5.346 5.346 0 0 1-1.786-1.15c-.497-.49-.876-1.118-1.136-1.885a7.126 7.126 0 0 1-.39-2.3v-.863h3.312l.033.895c0 .298.032.596.097.894.087.277.217.533.39.767.173.234.401.426.682.575.281.15.639.224 1.072.224.974 0 1.623-.298 1.948-.895.346-.618.519-1.448.519-2.492 0-.597-.021-1.15-.065-1.662-.043-.532-.151-.947-.324-1.246-.39-.66-1.039-.99-1.949-.99h-1.266V50.06h1.364a2.62 2.62 0 0 0 1.104-.223c.325-.15.584-.405.779-.767.173-.341.271-.746.292-1.214.044-.469.065-.884.065-1.247 0-.383-.032-.756-.097-1.118a2.704 2.704 0 0 0-.357-.99 2.068 2.068 0 0 0-.715-.64c-.281-.17-.649-.255-1.104-.255-.411 0-.757.075-1.039.224-.26.149-.476.34-.649.575-.195.255-.336.586-.422.99-.087.405-.13.8-.13 1.182v.512h-3.312v-.799zm22.77 9.042l-1.624-8.243h-.064l-1.624 8.243h3.312zm-8.183 7.956l5.163-22.75h2.76l5.163 22.75H224.2l-.974-4.888h-4.514l-.974 4.888h-3.312zm17.153 0v-22.75h3.312v9.746h4.092v-9.745h3.312v22.75h-3.312v-10.13h-4.092v10.13h-3.312zm26.782-6.486v1.406c0 .703-.14 1.374-.422 2.013a5.304 5.304 0 0 1-1.104 1.661 5.572 5.572 0 0 1-1.688 1.182 5.014 5.014 0 0 1-2.046.416 7.532 7.532 0 0 1-1.916-.256 4.555 4.555 0 0 1-1.753-.894 5.18 5.18 0 0 1-1.299-1.63c-.325-.682-.487-1.544-.487-2.588V45.587c0-.745.129-1.438.389-2.077a4.888 4.888 0 0 1 1.104-1.661 4.98 4.98 0 0 1 1.689-1.087 5.733 5.733 0 0 1 2.208-.415c1.559 0 2.825.5 3.799 1.502.477.49.845 1.075 1.104 1.757.282.66.422 1.385.422 2.173v1.278h-3.312V45.97c0-.639-.184-1.192-.552-1.661-.368-.469-.866-.703-1.493-.703-.823 0-1.375.256-1.657.767-.259.49-.389 1.118-.389 1.885v11.63c0 .66.14 1.215.422 1.662.303.447.833.67 1.591.67.217 0 .444-.031.682-.095.26-.085.498-.213.714-.383.195-.17.358-.405.487-.703.13-.299.195-.671.195-1.119v-1.118h3.312zm16.699-13.196c-.303 0-.552.043-.747.128a1.3 1.3 0 0 0-.552.383 1.55 1.55 0 0 0-.357.703c-.065.277-.12.586-.163.927l-.292 2.652a7.598 7.598 0 0 1-.097.767c-.044.213-.087.436-.13.67a2.307 2.307 0 0 1-.195.576c-.13.298-.292.564-.487.799a2.918 2.918 0 0 1-.52.51l3.442 11.567h-3.377l-2.922-10.128h-1.851v10.128h-3.313v-22.75h3.313v9.746h1.104c.389 0 .703-.053.941-.16.239-.106.433-.256.585-.447.151-.192.26-.405.325-.64a8.02 8.02 0 0 0 .162-.83l.325-2.716a4.06 4.06 0 0 0 .065-.511c.043-.277.108-.586.194-.927.087-.34.206-.692.358-1.054.151-.362.346-.703.584-1.023a3.38 3.38 0 0 1 1.494-1.086c.606-.234 1.31-.351 2.111-.351v3.067zm12.049 19.682V48.527h-.065l-4.351 14.761h-3.313v-22.75h3.313v14.794h.065l4.351-14.793h3.312v22.75h-3.312zm16.579 0V48.527h-.065l-4.352 14.761h-3.312v-22.75h3.312v14.794h.065l4.352-14.793H307v22.75h-3.312zm-3.962-27.318c.022.127.043.287.065.479.022.17.086.351.195.543.13.17.303.32.519.447.238.128.563.192.974.192.412 0 .726-.064.942-.192.238-.127.411-.276.52-.447.13-.192.205-.373.227-.543a8.99 8.99 0 0 1 .065-.48h2.76c-.151 1.279-.584 2.216-1.299 2.812-.693.597-1.764.895-3.215.895-1.45 0-2.532-.298-3.247-.895-.693-.596-1.115-1.533-1.266-2.811h2.76zM98.842 27.227l-1.336 3.748h-.586v-8.072h.492v6.907l.95-2.664 1.57-4.243h.644v8.072h-.492v-7.138l-1.242 3.39zm6.066-.047v3.795h-.539v-8.072h.539v3.794h2.555v-3.794h.551v8.072h-.551V27.18h-2.555zm11.247 4.913v-1.118h-3.915v1.118h-.527V30.49h.562c.164-.169.27-.36.317-.576.047-.215.078-.454.094-.715l.328-6.296h3v7.587h.68v1.603h-.539zm-2.942-2.894a4.78 4.78 0 0 1-.094.738 1.069 1.069 0 0 1-.293.553h2.637v-7.103h-1.945l-.305 5.812zm9.285.277c-.07.246-.149.465-.235.657a1.353 1.353 0 0 1-.328.473 1.3 1.3 0 0 1-.504.3 2.125 2.125 0 0 1-.738.069v-.473c.375.008.645-.065.809-.22.172-.16.308-.403.41-.726l.34-.98-1.969-5.673h.551l.961 2.848.715 2.156.656-2.168.891-2.836h.562l-2.121 6.573zm7.521-6.642c.313 0 .578.053.797.161.227.1.41.242.551.427.148.176.254.392.316.645.071.246.106.515.106.808v.668h-.516v-.703c0-.215-.023-.415-.07-.6a1.235 1.235 0 0 0-.211-.484 1.05 1.05 0 0 0-.387-.323 1.289 1.289 0 0 0-.574-.115c-.227 0-.418.038-.574.115a1.042 1.042 0 0 0-.387.323 1.38 1.38 0 0 0-.223.484 2.9 2.9 0 0 0-.058.6v4.198c0 .215.019.415.058.6.047.184.121.345.223.483.102.131.23.235.387.312.156.077.347.115.574.115.227 0 .418-.038.574-.115a1.1 1.1 0 0 0 .387-.312c.102-.138.172-.3.211-.484a2.42 2.42 0 0 0 .07-.6v-.957h.516v.923c0 .292-.035.565-.106.819a1.671 1.671 0 0 1-.316.645 1.527 1.527 0 0 1-.551.427c-.219.1-.484.15-.797.15-.312 0-.582-.05-.808-.15a1.667 1.667 0 0 1-.551-.427 1.934 1.934 0 0 1-.317-.645 3.442 3.442 0 0 1-.093-.82v-4.127a3.3 3.3 0 0 1 .093-.808c.071-.253.176-.469.317-.645.148-.185.332-.327.551-.427a1.86 1.86 0 0 1 .808-.162zm7.056 8.141v-7.588h-1.676v-.484h3.891v.484h-1.676v7.588h-.539zm7.579-8.072c.632 0 1.082.18 1.347.542.274.353.411.826.411 1.418v.877c0 .645-.153 1.126-.458 1.44-.304.316-.785.474-1.441.474h-1.02v3.32h-.539v-8.071h1.7zm-.141 4.266c.477 0 .82-.107 1.031-.323.219-.223.328-.58.328-1.072v-.946c0-.438-.089-.787-.269-1.049-.172-.261-.488-.392-.949-.392h-1.161v3.782h1.02zm7.503.058l-1.336 3.748h-.586v-8.072h.493v6.907l.949-2.664 1.57-4.243h.645v8.072h-.492v-7.138l-1.243 3.39zm6.313 1.96l-.41 1.788h-.493l1.794-8.084h.785l1.828 8.084h-.539l-.41-1.788h-2.555zm.082-.46h2.391l-1.207-5.225-1.184 5.224zm8.737-5.34l-.211 5.616a7.204 7.204 0 0 1-.082.773 1.663 1.663 0 0 1-.199.622 1.143 1.143 0 0 1-.433.427c-.18.1-.422.154-.727.161h-.106v-.484c.235 0 .415-.038.54-.115a.786.786 0 0 0 .293-.323 1.28 1.28 0 0 0 .128-.473c.024-.184.04-.377.047-.577l.246-6.111h3.059v8.072h-.551v-7.588h-2.004zm7.928 2.837c.664 0 1.149.157 1.454.473.304.315.457.795.457 1.441v.876c0 .293-.036.562-.106.808a1.653 1.653 0 0 1-.305.622c-.14.17-.324.3-.55.392a2.09 2.09 0 0 1-.809.139h-1.688v-8.072h.539v3.32h1.008zm.141 4.266c.461 0 .781-.13.961-.392.18-.261.27-.61.27-1.049v-.946c0-.492-.11-.845-.329-1.06-.218-.223-.566-.335-1.043-.335h-1.008v3.782h1.149zm6.06-3.31v3.795h-.539v-8.072h.539v3.794h2.555v-3.794h.551v8.072h-.551V27.18h-2.555zm8.457-.956c.665 0 1.149.157 1.454.473.304.315.457.795.457 1.441v.876c0 .293-.035.562-.106.808a1.666 1.666 0 0 1-.304.622c-.141.17-.325.3-.551.392a2.09 2.09 0 0 1-.809.139h-1.688v-8.072h.54v3.32h1.007zm3.223-3.321v8.072h-.539v-8.072h.539zm-3.082 7.587c.461 0 .781-.13.961-.392.18-.261.27-.61.27-1.049v-.946c0-.492-.11-.845-.329-1.06-.218-.223-.566-.335-1.043-.335h-1.007v3.782h1.148zm9.965-9.086c-.008.315-.121.557-.34.726-.218.17-.5.254-.843.254-.336 0-.614-.085-.833-.254-.218-.169-.332-.411-.339-.726h.375c.007.23.089.395.246.495a1 1 0 0 0 .551.15c.218 0 .406-.05.562-.15.156-.1.242-.265.258-.495h.363zm-2.484 9.57h-.586v-8.071h.492v6.907l1.031-2.871 1.489-4.036h.644v8.072h-.492v-7.138l-2.578 7.138zm13.206-7.634c-.211 0-.387.032-.527.093a.743.743 0 0 0-.328.265 1.095 1.095 0 0 0-.164.427 2.87 2.87 0 0 0-.047.554v4.508c0 .208.015.396.047.565.031.162.085.3.164.416a.755.755 0 0 0 .316.265c.141.061.32.092.539.092h.235v.45h-.258a2.17 2.17 0 0 1-.762-.116 1.229 1.229 0 0 1-.492-.357 1.51 1.51 0 0 1-.258-.554 3.71 3.71 0 0 1-.07-.76v-4.51c0-.284.023-.534.07-.749a1.51 1.51 0 0 1 .258-.565 1.13 1.13 0 0 1 .492-.346c.203-.085.457-.127.762-.127h.258v.45h-.235zm2.49.047v7.588h-.539v-8.072h3.645v8.072h-.551v-7.588h-2.555zm8.609-.484c.633 0 1.082.18 1.348.542.274.353.41.826.41 1.418v.877c0 .645-.152 1.126-.457 1.44-.305.316-.785.474-1.441.474h-1.02v3.32h-.539v-8.071h1.699zm-.14 4.266c.476 0 .82-.107 1.031-.323.219-.223.328-.58.328-1.072v-.946c0-.438-.09-.787-.269-1.049-.172-.261-.489-.392-.95-.392h-1.16v3.782h1.02zm5.546-2.294c0-.293.035-.562.106-.808.07-.253.175-.469.316-.645a1.47 1.47 0 0 1 .562-.427c.227-.108.497-.162.809-.162.313 0 .582.054.809.162.234.1.426.242.574.427.148.176.258.392.328.645.07.246.106.515.106.808v4.128c0 .292-.036.565-.106.819-.07.246-.18.46-.328.645-.148.177-.34.32-.574.427-.227.1-.496.15-.809.15-.312 0-.582-.05-.809-.15a1.64 1.64 0 0 1-.562-.427 1.913 1.913 0 0 1-.316-.645 3.027 3.027 0 0 1-.106-.82v-4.127zm.539 4.163c0 .438.094.803.281 1.095.196.284.52.427.973.427.453 0 .778-.143.973-.427.203-.292.305-.657.305-1.095V24.84c0-.438-.102-.8-.305-1.084-.195-.292-.52-.438-.973-.438-.453 0-.777.146-.973.438-.187.285-.281.646-.281 1.084v4.198zm9.585 1.925h-.539l-1.735-7.138v7.15h-.48v-8.072h.773l1.723 7.138 1.711-7.138h.774v8.072h-.516v-7.173l-1.711 7.161zm7.581-4.739c.664 0 1.149.157 1.453.473.305.315.457.795.457 1.441v.876c0 .293-.035.562-.105.808a1.653 1.653 0 0 1-.305.622c-.14.17-.324.3-.551.392a2.08 2.08 0 0 1-.808.139h-1.688v-8.072h.539v3.32h1.008zm3.223-3.321v8.072h-.539v-8.072h.539zm-3.082 7.587c.461 0 .781-.13.961-.392.18-.261.269-.61.269-1.049v-.946c0-.492-.109-.845-.328-1.06-.219-.223-.566-.335-1.043-.335h-1.008v3.782h1.149zm7.434-7.587v7.587h2.027v-7.587h.539v7.587h2.028v-7.587h.539v8.072h-5.673v-8.072h.54zm10.576.484l-.211 5.616a7.47 7.47 0 0 1-.082.773 1.681 1.681 0 0 1-.199.622 1.146 1.146 0 0 1-.434.427c-.18.1-.422.154-.727.161h-.105v-.484c.234 0 .414-.038.539-.115a.773.773 0 0 0 .293-.323 1.3 1.3 0 0 0 .129-.473c.023-.184.039-.377.047-.577l.246-6.111h3.059v8.072h-.551v-7.588h-2.004zm9.158 3.252v.484h-2.238v3.367h2.695v.485h-3.234v-8.072h3.234v.484h-2.695v3.252h2.238zm4.742.541v3.795h-.539v-8.072h.539v3.794h2.555v-3.794h.551v8.072h-.551V27.18h-2.555zm7.449 0v3.795h-.539v-8.072h.539v3.794h2.555v-3.794h.551v8.072h-.551V27.18h-2.555zm8.457-.956c.664 0 1.149.157 1.454.473.304.315.457.795.457 1.441v.876c0 .293-.036.562-.106.808a1.653 1.653 0 0 1-.305.622c-.14.17-.324.3-.55.392a2.09 2.09 0 0 1-.809.139h-1.688v-8.072h.539v3.32h1.008zm3.223-3.321v8.072h-.539v-8.072h.539zm-3.082 7.587c.461 0 .781-.13.961-.392.18-.261.269-.61.269-1.049v-.946c0-.492-.109-.845-.328-1.06-.218-.223-.566-.335-1.043-.335h-1.008v3.782h1.149zm9.965-9.086c-.008.315-.121.557-.34.726-.219.17-.5.254-.844.254-.336 0-.613-.085-.832-.254-.218-.169-.332-.411-.34-.726h.375c.008.23.09.395.247.495.156.1.339.15.55.15.219 0 .407-.05.563-.15.156-.1.242-.265.258-.495h.363zm-2.484 9.57h-.586v-8.071h.492v6.907l1.031-2.871 1.488-4.036h.645v8.072h-.492v-7.138l-2.578 7.138zm5.034-8.083c.61 0 1.028.158 1.254.473.227.308.34.746.34 1.315v4.508c0 .285-.027.538-.082.761-.047.216-.133.4-.258.554a1.127 1.127 0 0 1-.492.357 2.17 2.17 0 0 1-.762.116h-.258v-.45h.235c.43 0 .715-.12.855-.357.149-.239.223-.566.223-.98v-4.51c0-.407-.074-.73-.223-.968-.14-.246-.425-.37-.855-.37h-.235v-.449h.258z" fill="#2B2A29"/><path fill-rule="evenodd" clip-rule="evenodd" d="M55.253 69.438l-4.246-.178c-2.846 1.388-4.64 2.794-6.811 4.16l4.645.224-2.026 1.611-5.03-.248c-2.72 1.877-4.826 3.637-6.416 5.134l7.169.344-1.635 2.282-7.678-.45c-1.393 1.536-1.98 2.473-1.98 2.473l-4.18-.016a54.549 54.549 0 0 1 2.279-2.685l-19.42-1.138C6.453 83.226 4.74 84.69 4.74 84.69l-3.61-.014a64.388 64.388 0 0 1 4.584-3.972l-5.7-.021 3.374-1.866 4.807.018a81.034 81.034 0 0 1 8.102-5.108l-5.344.003 3.372-1.542 4.836.018c16.452-8.374 36.773-12.803 56.34-14.985l6.06-.68 5.37.723c-2.316.466-14.382 3.812-16.5 4.34l1.856.156-2.673 1.018-2.438-.124c-2.445.684-3.153 1.117-5.323 1.863l2.72.152-2.094 1.02-2.885-.283c-2.293.849-3.96 1.726-5.94 2.615l3.929.166-2.33 1.251zm-42.332 9.624c2.493-1.51 5.56-3.232 9.211-5.042l15.204.764a59.565 59.565 0 0 0-5.95 5.165l-18.465-.887zm26.602-5.87l-14.235-.689c2.729-1.27 6.2-2.862 9.482-4.146l11.46.714a70.761 70.761 0 0 0-6.707 4.122zm30.544-14.445c2.105-.374 8.735-1.312 10.945-1.637l2.32.237c-2.026.318-5.825 1.287-7.838 1.686l-5.427-.286zm-3.31.617l6.054.229c-1.978.433-3.944.91-5.89 1.433l-6.498-.328c2.053-.467 4.164-.913 6.333-1.334zm-9.829 2.161c-3.213.508-4.607.96-7.512 1.633l8.935.72c2.247-.85 2.974-1.223 5.3-1.922l-6.723-.43zm-9.72 2.539l8.063.83c-2.085.843-3.722 1.485-5.711 2.476l-11.348-.618c2.645-.972 6.023-1.763 8.995-2.688z" fill="url(#a)"/><path d="M23.337 37.09l6.936-7.827V66.85a143.02 143.02 0 0 0-6.936 2.852V37.09z" fill="url(#b)"/><path d="M31.48 27.672l6.936-8.194v44.556c-2.721.831-4.24 1.367-6.936 2.36V27.673z" fill="url(#c)"/><path d="M46.59 8.59L39.747 0v63.634c2.662-.798 4.158-1.224 6.843-1.898V8.59z" fill="url(#d)"/><path d="M54.802 18.196l-6.843-8.564v51.76c2.673-.616 4.171-.945 6.843-1.487v-41.71z" fill="url(#e)"/><path d="M63.192 28.115L56.2 19.608V59.64c2.734-.495 4.265-.748 6.992-1.148V28.115z" fill="url(#f)"/><defs><linearGradient id="a" x1="71.118" y1="55.017" x2="71.005" y2="84.94" gradientUnits="userSpaceOnUse"><stop stop-color="#A1A7AA"/><stop offset="1" stop-color="#535150"/></linearGradient><linearGradient id="b" x1="28.428" y1="34.387" x2="28.428" y2="65.205" gradientUnits="userSpaceOnUse"><stop offset=".077" stop-color="#A1A7AA"/><stop offset="1" stop-color="#535150"/></linearGradient><linearGradient id="c" x1="28.428" y1="34.387" x2="28.428" y2="65.205" gradientUnits="userSpaceOnUse"><stop offset=".077" stop-color="#A1A7AA"/><stop offset="1" stop-color="#535150"/></linearGradient><linearGradient id="d" x1="57.079" y1="24.581" x2="57.079" y2="67.831" gradientUnits="userSpaceOnUse"><stop stop-color="#00ECFF"/><stop offset=".349" stop-color="#08E0F1"/><stop offset="1" stop-color="#019AAA"/></linearGradient><linearGradient id="e" x1="57.079" y1="24.581" x2="57.079" y2="67.831" gradientUnits="userSpaceOnUse"><stop stop-color="#00ECFF"/><stop offset=".349" stop-color="#08E0F1"/><stop offset="1" stop-color="#019AAA"/></linearGradient><linearGradient id="f" x1="57.079" y1="24.581" x2="57.079" y2="67.831" gradientUnits="userSpaceOnUse"><stop stop-color="#00ECFF"/><stop offset=".349" stop-color="#08E0F1"/><stop offset="1" stop-color="#019AAA"/></linearGradient></defs></svg>