<svg width="297" height="204" viewBox="0 0 297 204" fill="none" xmlns="http://www.w3.org/2000/svg"><g clip-path="url(#a)"><path d="M32.279 52.43L30.9 75.293l-16.533-1.576s3.74-14.783 5.314-19.316c.787-2.168 4.33-2.76 6.889-2.76 1.968-.197 5.707.789 5.707.789z" fill="#2CBFC6"/><path d="M285.781 0H51.566c-6.101 0-11.218 4.928-11.218 11.235V177.39c0 6.11 4.92 11.235 11.218 11.235h234.412c6.101 0 11.219-4.927 11.219-11.235V11.235C297 4.928 292.079 0 285.781 0z" fill="#1C93A4"/><path d="M262.163 9.855H63.179c-5.314 0-9.447 4.534-9.447 10.053v148.811c0 5.519 4.33 10.052 9.447 10.052h198.984c5.314 0 9.447-4.533 9.447-10.052V19.908c0-5.52-4.133-10.053-9.447-10.053z" fill="#DEE3EB"/><path d="M52.944 107.223l-33.46-.591L1.969 136c-1.575 2.562-.787 6.11 1.771 7.687l28.933 17.936 4.133-5.913-20.273-17.542c-.393-.394-.59-1.183-.196-1.577 2.755-3.35 12.99-15.374 16.336-19.71l4.92.394 3.74 69.38h7.085s5.117-52.823 4.92-64.846c.788-6.11-.393-14.586-.393-14.586z" fill="#C4C4C4"/><path d="M171.823 54.597c4.674 0 8.464-3.794 8.464-8.475 0-4.681-3.79-8.475-8.464-8.475s-8.463 3.794-8.463 8.475c0 4.68 3.789 8.475 8.463 8.475z" fill="#FFD234"/><path d="M172.808 41.392h-1.968v9.46h1.968v-9.46z" fill="#fff"/><path d="M176.547 45.137H167.1v1.97h9.447v-1.97z" fill="#fff"/><path d="M24.406 73.124l-7.086-3.745s4.33 4.139 3.937 10.25c-.197 3.744 8.266 13.008 3.346 11.825-2.56-.591-10.432-16.556-12.794-18.921-2.165-2.169-9.25-3.351-9.25 0 .197 3.35 5.51 2.365 5.708 3.942.196 1.576 6.101 21.287 18.107 25.426 8.857 3.153 6.495-2.957 6.889-7.884.59-4.928-8.857-20.893-8.857-20.893z" fill="#F27936"/><path d="M22.634 109.589l26.374-.394c2.165.197 4.526 1.971 4.526-5.914l3.15-43.559c.196-2.168-1.378-4.14-3.74-4.336L27.357 51.64c-4.33-.197-7.282 3.745-7.479 5.913l-.787 47.699c-.197 2.168 1.378 4.139 3.543 4.336z" fill="#2CBFC6"/><path d="M34.553 54.086l8.174 1.235 1.908-12.668-8.173-1.235-1.91 12.668z" fill="#FE924A"/><path d="M41.135 48.684c5.544 0 10.038-4.501 10.038-10.053 0-5.551-4.494-10.052-10.038-10.052-5.543 0-10.037 4.5-10.037 10.052s4.494 10.053 10.037 10.053z" fill="#FE924A"/><path d="M50.976 45.333a2.757 2.757 0 0 0 2.756-2.76 2.757 2.757 0 0 0-2.756-2.758 2.757 2.757 0 0 0-2.755 2.759 2.757 2.757 0 0 0 2.755 2.76z" fill="#FE924A"/><path d="M51.173 39.814c0-2.956 1.968-11.234-6.889-13.008-6.298-1.183-6.692.197-10.431-1.38-3.937-1.774-2.559-3.35-2.953-3.745-.59-.591-1.968 1.183-2.558 3.942-.394 2.76.197 6.307 3.74 8.476 3.542 2.168 7.478.59 11.218 1.97 3.937 1.38.59 5.125.59 6.11 0 .986 2.362 2.169 2.953.198 1.378-4.14 4.33-2.563 4.33-2.563z" fill="#FFD234"/><path d="M288.34 110.969c0 2.168-1.771 4.139-4.133 4.139-2.165 0-4.133-1.774-4.133-4.139V75.293c0-2.168 1.771-4.139 4.133-4.139 2.165 0 4.133 1.774 4.133 4.14v35.675z" fill="#6BD6F2"/><path d="M25.98 76.87L3.543 78.446c-1.378 0-2.362-.985-2.559-2.168L0 64.058c0-1.38.984-2.365 2.165-2.562l22.437-1.577c1.378 0 2.362.986 2.559 2.168l.984 12.417c0 1.183-.984 2.366-2.165 2.366z" fill="#1C93A4"/><path d="M58.652 74.7s-7.676 1.972-7.873 2.76c-.196.789-10.825 14.389-13.777 11.63-6.495-6.505-12.793-15.572-15.745-17.74-3.15-2.168-8.66-2.956-10.235-1.182-1.575 1.97 0 3.942 2.755 3.547 2.756-.394 4.92.395 5.511 1.38.59.986 9.841 24.638 17.32 25.623 5.118.789 20.667-12.22 22.044-26.017z" fill="#FE924A"/><path d="M49.008 56.963c-4.527 5.322-1.771 21.484-1.771 21.484l12.99-.591s0-14.389-1.378-19.12c-1.18-4.335-7.873-3.941-9.84-1.773z" fill="#2CBFC6"/><path d="M201.937 131.072h-49.992c-6.102 0-11.219-4.928-11.219-11.235v-.197c0-6.11 4.921-11.235 11.219-11.235h49.992c1.574 0 2.952 1.38 2.952 2.957s-1.378 2.956-2.952 2.956h-49.992a5.296 5.296 0 0 0-5.314 5.322v.197a5.295 5.295 0 0 0 5.314 5.322h49.992c1.574 0 2.952 1.38 2.952 2.956 0 1.577-1.378 2.957-2.952 2.957z" fill="#fff"/><path d="M146.827 114.319c-.984 0-1.771-.592-2.165-1.577l-15.351-50.655h85.222l-9.644 50.261c-.197 1.182-1.378 1.971-2.559 1.774-1.18-.197-1.968-1.38-1.771-2.563l8.66-45.136h-73.807l13.58 44.939c.394 1.183-.393 2.365-1.377 2.76-.197.197-.591.197-.788.197z" fill="#fff"/><path d="M132.459 66.62c-.984 0-1.771-.592-1.968-1.38l-4.92-13.6h-11.022a2.186 2.186 0 0 1-2.165-2.168c0-1.183.984-2.168 2.165-2.168h14.171l5.904 16.556c.394 1.183-.196 2.365-1.377 2.76h-.788z" fill="#fff"/><path d="M114.549 52.823H102.74c-1.968 0-3.74-1.577-3.74-3.745 0-1.971 1.575-3.745 3.74-3.745h11.809c1.968 0 3.74 1.577 3.74 3.745-.197 2.168-1.772 3.745-3.74 3.745zm36.018 100.127c5.543 0 10.037-4.5 10.037-10.052s-4.494-10.052-10.037-10.052c-5.544 0-10.038 4.5-10.038 10.052s4.494 10.052 10.038 10.052zm47.236 0c5.544 0 10.038-4.5 10.038-10.052s-4.494-10.052-10.038-10.052c-5.544 0-10.038 4.5-10.038 10.052s4.494 10.052 10.038 10.052z" fill="#fff"/><path d="M150.567 147.629a4.727 4.727 0 0 0 4.723-4.731 4.727 4.727 0 0 0-4.723-4.73 4.727 4.727 0 0 0-4.724 4.73 4.727 4.727 0 0 0 4.724 4.731zm47.63 0a4.727 4.727 0 0 0 4.724-4.731 4.727 4.727 0 0 0-4.724-4.73 4.727 4.727 0 0 0-4.724 4.73 4.727 4.727 0 0 0 4.724 4.731z" fill="#2CBFC6"/><path d="M157.062 113.136c-.984 0-1.968-.789-2.165-1.774l-7.676-44.742c-.197-1.183.591-2.365 1.771-2.563 1.181-.197 2.362.592 2.559 1.774l7.676 44.742c.197 1.183-.59 2.366-1.771 2.563h-.394zm10.825-.985c-1.181 0-2.165-.986-2.165-1.971l-2.952-44.348c0-1.183.787-2.168 1.968-2.365 1.181 0 2.165.788 2.362 1.97l2.952 44.349c.197 1.182-.787 2.365-2.165 2.365.197 0 0 0 0 0zm22.831.985h-.394c-1.181-.197-1.968-1.38-1.771-2.563l7.085-44.742c.197-1.182 1.378-1.97 2.559-1.773 1.181.197 1.968 1.38 1.771 2.562l-7.085 44.742c-.197.985-1.181 1.774-2.165 1.774zm-11.612-.985s-.197 0 0 0c-1.378 0-2.165-1.183-2.165-2.365l2.165-44.151c0-1.183 1.181-2.168 2.361-2.168 1.181 0 2.166 1.182 2.166 2.365l-2.166 44.348c-.196 1.182-1.18 1.971-2.361 1.971z" fill="#fff"/><path d="M207.251 81.993H137.38a2.186 2.186 0 0 1-2.165-2.168c0-1.182.984-2.168 2.165-2.168h69.871c1.181 0 2.165.986 2.165 2.168a2.186 2.186 0 0 1-2.165 2.168zm-2.362 15.572h-61.802a2.186 2.186 0 0 1-2.165-2.168c0-1.183.984-2.169 2.165-2.169h61.605c1.181 0 2.165.986 2.165 2.169 0 1.182-.788 2.168-1.968 2.168z" fill="#fff"/><path d="M234.608 112.545c0-3.745 6.692-18.922 6.692-18.922s6.692 15.177 6.692 18.922c0 3.745-2.952 6.701-6.692 6.701s-6.692-2.956-6.692-6.701z" fill="#FFD234"/><path d="M241.496 190.203c-.196 0-.393-.197-.393-.394v-78.841c0-.197.197-.394.393-.394.197 0 .394.197.394.394v78.644c0 .394-.197.591-.394.591z" fill="#fff"/><path d="M226.932 169.113c-2.558-2.562-8.66-17.936-8.66-17.936s15.352 6.11 17.911 8.672a6.551 6.551 0 0 1 0 9.264 6.528 6.528 0 0 1-9.251 0zm0-29.367c-2.558-2.563-8.66-17.936-8.66-17.936s15.352 6.11 17.911 8.672a6.551 6.551 0 0 1 0 9.264 6.528 6.528 0 0 1-9.251 0zm30.507 29.367c2.558-2.562 8.66-17.936 8.66-17.936s-15.352 6.11-17.911 8.672a6.551 6.551 0 0 0 0 9.264 6.528 6.528 0 0 0 9.251 0zm0-29.367c2.558-2.563 8.66-17.936 8.66-17.936s-15.352 6.11-17.911 8.672a6.551 6.551 0 0 0 0 9.264 6.528 6.528 0 0 0 9.251 0z" fill="#FFD234"/><path d="M230.868 179.559h22.044c1.181 0 2.165.985 1.968 2.365l-3.149 20.498c-.197.986-.984 1.577-1.968 1.577h-15.746c-.984 0-1.771-.788-1.968-1.577l-3.149-20.498c-.197-1.38.591-2.365 1.968-2.365z" fill="#FE9249"/><path d="M241.103 147.629l-12.399-14.389c-.197-.197-.197-.394 0-.591.196-.197.393-.197.59 0l11.809 13.6 12.99-13.009c.197-.197.394-.197.591 0 .196.197.196.394 0 .591l-13.581 13.798zm0 27.593l-12.006-12.417c-.197-.198-.197-.395 0-.592.197-.197.394-.197.591 0l11.415 11.826 13.384-11.826c.197-.197.393-.197.59 0 .197.197.197.394 0 .592l-13.974 12.417z" fill="#fff"/><path d="M194.851 98.749h-44.284c-2.559 0-4.724-2.168-4.724-4.73V77.264c0-2.563 2.165-4.73 4.724-4.73h44.284c2.559 0 4.724 2.167 4.724 4.73v16.753c0 2.563-1.969 4.73-4.724 4.73z" fill="#55ADBB"/><path d="M160.604 90.076V81.6h4.331c.984 0 1.574.197 1.968.59.393.395.59.986.59 1.578 0 .394-.197.788-.393 1.182-.197.395-.591.592-.985.789 1.181.197 1.575.985 1.575 1.97 0 .592-.197 1.183-.59 1.775-.394.59-1.181.788-2.559.788h-3.937v-.197zm2.362-5.125h1.181c.394 0 .591 0 .591-.197.197-.197.197-.394.197-.591 0-.394-.197-.788-.788-.788h-1.181v1.576zm0 3.351h1.181c.394 0 .591 0 .788-.197.196-.197.196-.394.196-.591 0-.197 0-.395-.196-.592-.197-.197-.394-.197-.788-.197h-1.181v1.577zM176.35 81.6v5.717a3.27 3.27 0 0 1-.984 2.365c-.591.394-1.378.788-2.559.788-.984 0-1.968-.197-2.558-.591-.591-.394-.985-1.183-.985-2.168v-5.716h2.559v5.519c0 .394 0 .788.197.985.197.197.394.197.787.197.394 0 .591 0 .787-.197.197-.197.394-.197.394-.394v-5.913h2.362V81.6zm9.054 0l-2.756 4.928v3.548h-2.559v-3.548l-2.952-4.927h2.952l1.575 2.759 1.378-2.76h2.362z" fill="#fff"/><path d="M32.672 161.426l4.133-5.913 4.527 3.153-8.267 12.221c-.59.788-2.558-.198-2.361-1.183l1.968-8.278zm9.053 25.032h7.283v5.519H34.246c-.984 0-1.377-2.168-.393-2.562l7.872-2.957z" fill="#55ADBB"/></g><defs><clipPath id="a"><path fill="#fff" d="M0 0h297v204H0z"/></clipPath></defs></svg>