<svg width="272" height="224" viewBox="0 0 272 224" fill="none" xmlns="http://www.w3.org/2000/svg"><path d="M254.36 11.793H31a8 8 0 0 0-8 8v139.934a8 8 0 0 0 8 8h223.36a8 8 0 0 0 8-8V19.793a8 8 0 0 0-8-8z" fill="#1C93A4"/><path d="M47.759 11.793H31a8 8 0 0 0-8 8v137.641a8 8 0 0 0 8 8h16.759a8 8 0 0 0 8-8V19.793a8 8 0 0 0-8-8z" fill="#1C93A4"/><path opacity=".21" d="M31.17 11.793h14.867v46.6l-3.104-3.276-2.287 3.276-2.451-3.276-2.124 3.276-2.288-3.276-2.614 3.276v-46.6z" fill="#55ADBB"/><path d="M254.36 11.793H63.759a8 8 0 0 0-8 8v137.641a8 8 0 0 0 8 8H254.36a8 8 0 0 0 8-8V19.793a8 8 0 0 0-8-8z" fill="#55ADBB"/><path opacity=".24" d="M122.91 119.98c-2.45 3.931-2.941 8.353-7.352 10.81-.98.983-1.47 2.457-.817 4.095l-1.797 4.095h-2.941v3.767l-.817 1.229-1.797 1.883-.817.819.817 1.229-.817 2.539-.981.819 1.798 1.883-1.798.655v4.996l3.105 1.065.49 1.392-.98.655h-2.451l-2.288-1.392-2.287-5.159-.653-2.212-1.961-1.064.98-2.212 1.634-1.556-.817-1.556v-10.974l-.817-3.112c1.797-5.979-2.124-7.453-6.127-11.548l-1.634-3.276c-1.715-5.405-1.715-11.711 1.716-14.659 2.45-1.966 5.392-6.389 8.823-1.966.49 0 1.47-.491 1.96-.491 3.431 1.474 4.902 3.439 8.333 5.405.49.491.49 2.457.98 2.948 1.471.983 3.431 1.966 4.412 2.457 4.411.983 9.313 1.474 7.352 6.88-.49 1.064-1.96 1.064-2.451 1.556zm-29.817-17.199l-.49.491c.49 0 .98-.491 1.47-.491l-2.206-1.31c-.245.409-.245 1.801-2.94 0 0 0 .244-1.229 0-1.475-.246-.245 0-2.456 0-2.456l-1.226-.82-2.614-.409s.408-1.228.653-1.392c.245-.164 1.47-1.802 1.47-1.802l.49-1.31-1.797-1.147s-1.797.901-1.96 1.147c-.163.245-.817 1.883-.817 1.883l-2.533-.081-.735-2.212-.49-1.065 1.144-2.456s.653-1.556.653-1.802.654-1.556.654-1.556l2.777-.901.98.983 1.716-.082s.572-.983.817-.901c.245.082 2.288.328 2.288.328s.408 1.638.571 1.883c.164.246.817 2.211.817 2.211s.98-.41 1.308-.819c.326-.41.326-3.603.326-3.603l1.226-2.047 2.042-2.294s1.389-3.767 1.634-3.93c.245-.165 2.696-2.048 2.696-2.048l2.042-1.065 1.961-2.047 1.633 1.228s-.408 1.147 0 1.147c.409 0 3.35-1.31 3.35-1.31l1.225-.738h-1.47l-1.552-.573.408-1.802-.572-.819h-1.552l1.552-1.556 2.696.901s1.552-.164 1.716-.41c.163-.245 1.552-1.146 1.552-1.146l.735.655-1.879 2.293-.327 1.147 2.124.573 1.471.573.572-2.129-.817-1.474-.164-1.638.245-1.638s-1.47-1.147-1.715-1.228c-.245-.082-1.471-2.13-1.307-2.375.163-.246-.49-2.785-.49-2.785l-.49-1.556-1.226 1.556-2.042-.491s-.735-1.802-.572-2.376c.163-.573-1.389-1.883-1.389-1.883s-1.634.41-1.634.655c0 .246-.98 1.802-.98 1.802l-1.47 1.883.653 1.72-1.062 2.212-1.144.327-.326 1.556-.899 1.638-.735-.164v-3.603l-1.062-.901-1.634-1.229-1.797-2.047-.49-2.047 1.797-2.294s1.879-1.064 2.124-1.146c.245-.082 1.389-1.474 1.389-1.474l2.124-1.065s-1.226-.819-.899-.983c.327-.163 3.594-1.31 3.594-1.31s1.226.082 1.226-.655-.409-1.474-.409-1.474l-1.96-.901-1.062 1.72-.981-2.13s-1.307-1.228-1.062-2.211c.245-.983-.081-2.62-.081-2.62s-2.124.49-1.88 1.146c.246.655-.081 2.293 0 2.703.082.409-.898 1.392-.898 1.392s-.899.737-1.552.491c-.654-.246-1.797-1.065-1.797-1.065l-2.941-1.228-.409.328-.49 1.392-1.797-.82-2.696-.9-.082-1.802-1.879-1.474-1.307-.655-1.225-1.229h-.409l-1.715.82-2.533-.82-2.532-.737-2.042-2.047s-2.37-1.147-2.696-1.474c-.327-.328-1.552-1.393-1.797-1.884-.246-.491-1.961-1.474-1.961-1.474h-3.513s-2.042.491-2.206.737c-.163.246-.817.737-.817.737l-1.307-.737s-.326.655-.408.737c-.082.082 0 1.802 0 1.802l1.552 1.802-.654.982-1.797-.819-1.062-.819s-1.552.328-1.634.737c-.081.41 0 1.638.409 1.884.408.246 2.206.983 2.206.983l-.98 1.146s-1.063.328-1.635.41c-.653.082-1.878.655-1.878.9 0 .247-.327 2.048-.572 2.294-.245.246-1.307.983-1.307.983s1.307 1.228 1.552 1.556c.245.327 2.94 2.047 2.94 2.047l-2.369 1.065s-3.676 1.966-4.33 2.13c-.653.163-1.225.245-2.695.654-1.47.41-2.696.82-2.696.82s.163.737.49.737c.327 0 2.696.245 3.676-.246.98-.492 3.513-.82 3.84-1.229.327-.41 1.144-.655 1.634-.982.49-.328 2.042-.82 2.287-1.065.245-.246 1.797-.737 1.797-.737l-.98 1.31.817.246s.817-.82.899-1.229c.081-.41-.082-1.31.49-1.965s1.389-1.147 1.389-1.147l.326 1.72s2.37-.737 2.615-.9c.245-.165 1.388.736 1.47 1.555.082.82.817 2.54 1.552 2.949.735.41 2.451 1.638 2.451 1.638v2.702l.654 1.474.245 2.294.245 2.21s-.899 1.557-.654 2.048c.245.492 1.144 2.048 1.144 2.457 0 .41-1.225 2.703-1.225 2.703l-1.553 1.802-.898 3.357.408 3.194.899 2.212 1.552 1.638.735.9-.572 1.557s.49 2.375.654 3.112c.163.737.082 1.556.408 2.375.327.819 1.47 2.293 1.47 2.293l1.063.246-.082-1.393s-.98-1.064-1.225-1.72c-.245-.655-.899-2.129-.899-2.129s.163-1.228.163-1.884c0-.655.246-1.228.246-1.228s.408 1.31.408 1.72c0 .41.899 2.539 1.062 2.784.163.246.654 1.393.817 1.72.163.328.899 1.72.899 1.72l.98 2.457c.163.41.817 1.802 1.062 2.047.245.246 2.369 1.065 2.86 1.31.49.246 1.715 1.966 1.715 1.966s.817.328 1.143.246c.327-.082 1.144-.737 1.144-.737l.654 1.31.898 1.065s1.552-.246 1.88.082c.326.328.898 1.228 1.061 1.474.164.246.736 1.802.736 1.802s.571 1.146.898 1.474c1.88 1.638 3.268-1.31 5.228-.819zm-8.252-68.14l1.144 1.23-.735 1.146 1.879 2.293 1.144 1.31.898-1.228 2.533.164.898 1.146 2.043-.737s.081-.491 0-.573c-.082-.082-.245-1.229-.327-1.556-.082-.328.163-2.13 0-2.457-.163-.246-1.144-.328-1.144-.328l-.572 1.229-.408-1.229-1.307.901s-1.307-1.883-1.634-2.538c-.245-.656-2.042-2.13-2.287-2.376-.246-.163-1.961-1.31-1.961-1.31l-1.389 1.392c-.163.246-1.879 2.293-1.879 2.293l1.552 2.54 1.552-1.311zm12.254 3.44s1.553-1.883 1.798-2.129c.245-.327 0-1.638 0-1.638l-.98 1.147-1.144-1.474h-1.39l.491 2.866v.737l1.225.492zm-9.23-9.254c1.143.655 2.287.82 2.695 1.884.408 1.065.735 1.556 1.307 1.883.572.328 1.797.656 2.042.41.245-.246 1.961-.41 1.961-.41l.572.41h1.062s-.654-.9-.817-1.147c-.082-.245-.49 0-.817-.9-.245-.901-.654-1.638-.654-1.638s-.98-.901-1.143-.328c-.245.573-1.144 1.146-1.144 1.146l-1.797-2.047s2.369-.246 1.389-.655c-.98-.491-1.716-1.147-2.615-.983-.898.246-2.124.328-2.369.655-.245.164-.735.983.327 1.72zm8.005-.491c.245-.164.654-1.147.654-1.147s-1.226-.655-1.634-.9c-.327-.165-.245.9-.245.9l-.409.082c0 .082 1.389 1.229 1.634 1.065zm3.594 5.65c1.144.738 1.961.656 1.961.656s.164-.573 0-.655c-.163-.164-.735-1.065-.898-1.229-.164-.245-.817-1.146-1.471-1.72-.653-.655-1.552-.573-1.552-.573s.49 1.72.572 2.13c0 .327.245.655 1.389 1.392zm5.229 2.048s1.634.655 2.042.737c.409.082 2.288-.245 2.451-.41.163-.245-.49-.982-.817-1.637-.327-.655-2.042-.246-2.532-.655-.409-.41-.817-.246-1.634-.983-.817-.655-1.552-1.556-2.043-1.884-.571-.327-.817.983-.653 1.147.163.164.898 1.31.898 1.638 0 .327 1.226 1.638 1.226 1.638l1.062.41zm-3.84 2.048h.981s.653-.246 1.062-.492c.408-.245 0-.819 0-.819s-1.471-.737-2.043-.737c-.572 0-.081 1.556 0 2.048zm12.663 4.422c-.49-.655-1.471-1.146-1.471-1.146s-1.797-.328-1.879-.656c-.081-.327.899-1.883-.98-1.228-.572.164-.98-1.31-.98-1.31s-2.86-.082-2.941 0c-.082.163-1.226.163-1.471 0-.245-.164-1.225 1.146-1.47 1.556-.245.41-.981.655-.981.655l1.961 1.228s.572.492 1.225 1.229a31.947 31.947 0 0 0 1.144 1.228l1.634-1.228s.163.327.163.573c0 .246.245.983.409 1.556.245.655 1.144.655 1.307.983.245.245.735 1.064.735 1.064s-.98.901-1.143 1.393c-.164.491-.981-.246-1.144.327-.164.574-1.307.737-1.716.737-.408-.081-1.225.983-1.225.983s2.206.41 2.859.41c.654 0 .654.327.98.9.327.574.899 1.311.981 1.72.163.41 1.225.901 1.552.737.245-.163-.163-2.456-.163-2.456s.245.245.735.819c.49.573 1.47 0 1.47 0s-.163-1.147-.245-1.556c-.082-.41-.817-.983-.98-1.31-.164-.328.327-1.066.49-1.23.163-.245 1.144 1.393 1.389 1.966.245.574.49-.491.49-.491s1.144-.737 1.307-1.065c.163-.245-.49-1.146-.49-1.146l-.899-1.065v-1.556c.082-.164-.163-2.048-.653-2.62zm-13.48-13.185c1.144.245 1.798.491 2.369.655h.654V28.09s-1.307-.246-1.961-.819c-.653-.655-1.633-.983-1.633-.983s-.817.574-1.144.983c-.245.41-.082.901 0 .983.082.164.572.819 1.715 1.065zm5.31.737l.981.41 1.797-1.393 1.144-.901 2.696.164.49 1.31-1.879-.491-.899 1.474-1.144-.983-.898.737s.735.983.898 1.147c.082.164 0 .983 0 .983s-1.879-1.556-2.042-1.475c-.245.082-.653 1.065-.653 1.065l.98.41s2.287 1.31 2.451 1.392c.163.164 1.879.655 1.96.655.164 0 1.144-.9 1.226-.983 0-.082.735-.655.735-.655s.899-2.13.98-2.375c.082-.246 1.144-2.785 1.552-2.948.409-.164 3.186-.41 3.186-.41l1.879-2.047h-3.431s-.572 1.31-1.634.655c-1.062-.655-2.124-.082-2.124-.082s-2.532-.082-4.329-.41c-1.798-.327-1.634 0-1.634 0v2.293l-1.307-.9-.981-1.474-.98.655-.653 1.31-.327.82.49.982 1.47 1.065zm33.413-.983c.081 0 0 0 0 0zm-.981 19.328c.327-.574 1.144-1.229 1.144-1.229s1.062-1.72 1.144-1.965c.082-.246-.163-1.229-.163-1.556 0-.246-.246-.82-.246-.82l1.716-.573.163-.655s-.245-.9-.408-1.064c-.163-.164-1.144-1.393-1.144-1.393l.654-.9s1.225 1.146 1.389.9c.163-.245-.246-.737-.246-1.146 0-.41-.49-.983-.49-.983l-.653-.246s.245-.9.408-.737c.245.164.654-.41.654-.41l-.082-2.538 1.471-1.147 2.45-2.702-2.859-.901-1.961.983-.98 1.064s-.49-.327-.817-.819c-.327-.41-.327-.41-.245-.41l-1.307-.245s-1.062-1.392-1.307-1.802c-.245-.41-.735.492-.735.492h-4.33l-1.634 1.474-.98-.246-.245-.737-.817.737-2.859-1.228s-2.37-.082-2.533 0c-.245.082-.899.491-.899.491h-1.143s-1.634.655-1.798.737c-.245.164-.653 0-.653 0l-.245 1.556-.98 1.065-1.062 2.047-.572 1.474 1.143 1.639.736-.328s1.143.246 1.633.328c.409 0 1.634.573 1.634.573s.409.573.245.655c-.163.164.246 1.147.246 1.638 0 .491.653.819.98.9.245.083 0 .492-.082.738s-.653 1.228-.653 1.228.571.246 1.062.246c.49 0 1.143.573 1.633.737.491.246-.245.655-.571.573-.245-.081-1.144.41-1.471.574-.245.163-1.062.245-1.307.491-.245.246.082.901.082.901s1.634-.164 1.634-.328c0-.245 1.225-.327 1.225-.327l-.245 1.474c-.245.983-.409.655-.98 1.72-.572 1.064 0 1.064 0 1.064s-.491.574-.899.983c-.408.41-.082 1.638-.082 1.884s.245 1.556.245 1.72c0 .163.409 1.392.409 1.392s.653.983.735 1.147c.163.245 2.451 1.064 2.778.982.326-.081.326-.245.49-.491.163-.246.327-.573.735-1.147.408-.573.327-.41.572-.737.245-.327.817-1.556.98-1.801.164-.246.817-1.884.817-1.884s.735.246 1.552 0c.817-.246 1.144-.328 1.144-.328s1.634-.41 1.797-.819c.245-.41.245-.982.245-1.556.082-.573 1.634-.245 2.043-.573.408-.328 1.388.573 1.388.573s.981.164 1.307-.41zm2.778 6.797c.899-.082 1.471-.573 2.042-.737.572-.245 0-1.556 0-1.965 0-.41-.571-.656-.817-.737-.245-.082-.653.081-.816 0-.246-.082-.899.9-1.634.245-.654-.655-1.716.082-2.778.41-1.062.327-.327.655-.327 1.72 0 1.064 1.798.9 2.533.982 0 .082.898.164 1.797.082zm16.829-16.461c.245.082 1.552 0 1.552 0l.245-.655c.49-.082 2.369-1.31 2.369-1.31s.572.245.654.654c.163.41 1.225 1.065 1.388.656.164-.492-.49-2.785-.49-2.785s-1.307-.655-.326-.655c.98 0 2.042-.164 2.287.41.245.573.98.9.98.9s.817-1.31-.572-2.129c-1.388-.737-1.633-1.065-2.042-1.065-.408 0-1.961-.573-2.614 0-.654.574-1.144.737-1.307 1.065-.164.328-1.471-.573-2.043 0-.653.573-.898.328-1.062.737-.163.41-.163.819-.326 1.31-.245.492-.409 1.065 0 1.475.408.41 1.062 1.31 1.307 1.392zm18.299-6.06c.245-.328.082-.656 0-.901-.082-.246-.572-.574-.572-.574l-.817.82.817 1.473c.082-.163.327-.573.572-.819zm2.696-.738c.408-.082 3.431-1.31 4.575-1.883 1.143-.574 0-.655 0-.655s-.245-.656-.572-.82c-.327-.163-1.226.41-1.797.656-.572.245-.491.327-.899 1.556-.082.327-.163.41-.245.491-.245.164-.327-.573-.409-.737-.163-.246.082-1.228 0-1.884-.081-.655-.653.738-1.225 1.393-.572.655-.817 1.31-1.062 1.556l.572.41c-.082-.083.653 0 1.062-.083zm-34.066 35.053s.817.245.98 0a7.009 7.009 0 0 1 1.062-.82c.327-.245.572-1.064.817-1.474.245-.409.082-.573 0-.818-.082-.246-.653-.492-1.062.245-.327.737-1.797.737-2.696 1.556-.898.901.736 1.392.899 1.31zm3.594-4.423l.082 1.065v.655s.245.41.245 1.065c.082.655-.163.655-.245.819-.082.163-.245.655-.735 1.228-.572.573-.245 1.556-.245 1.556s.817-.655 1.552-1.146c.653-.41 0 0 .817-.328s1.634-.655 1.879-.737c.245-.164.572-.655.408-.9-.163-.247 0-.82 0-.82s-.653-.819-.98-1.392c-.245-.492-.899-.41-1.144-.492-.245-.163 0-.819 0-.819s.082-.9 0-1.228c-.081-.328.082-1.065 0-1.392-.081-.246-.817 0-1.225.245-.409.246-.572.492-.98.574-.409.082-.736-.574-.736-.574s-.408.656-.408.901c0 .246.245.492.653.983.245.573 1.062.737 1.062.737zm77.69-34.725h2.451v-.491c-.245-.082-2.941-.41-2.941-.41s.245.901.49.901zm-1.225-1.146l.654-.492c.653-.49 0 0 .653-.245.654-.246.899 0 .899 0s.572-.246.898-.655c.327-.41.572-.41.572-.41h2.124c1.144 0 .735-.246.98-.573.246-.328 0-1.229-.408-1.31-.408-.083 0 0-.327.245-.327.246-1.634.82-1.634.82s-.898-.41-2.205-.574c-1.307-.164-.245.164-.654.082-.408-.082-.817-.328-.817-.328h-.49l-2.369 1.638v.901s.327.164.899.491c.571.328 1.225.41 1.225.41zm25.897-3.112h.49s.49.491.898 0c.409-.492.327-.574.327-.574s-.327-.41-.653-.655c-.327-.245-1.226 0-1.226 0l-.408.655c-.409.656.572.574.572.574zm-3.758 54.871c.572-.245.572-.9.735-1.228.082-.328.327-.655.817-.983.49-.328.653-.164 1.062-.246.408-.082 0 0 1.062-.327 1.062-.328.327-.41.327-.41s-.082-.573-.327-1.228c-.245-.573-.082-.737-.082-.737s-.327-1.556-.408-2.048c-.082-.491-.49-.819-.654-1.146a6.559 6.559 0 0 0-.735-1.147c-.327-.41-.735-1.064-.735-1.31 0-.164-.082-.328.49-.41.572-.082 0 0 .735-.327.735-.328.654 0 1.144-.328.49-.328 0 0 0-.328v-.409s.082-.41.817-1.147c.735-.737.327-.818.572-1.556.245-.655.081-.491.898-1.064.817-.574.327-1.31.327-1.31s-1.062.49-1.307.573c-.245.082-.654 1.392-1.389 2.293-.735.9-1.225.983-1.225.983s-.735-.082-1.471-.492c-.735-.41 0 0-.081-.491-.082-.492.081-.901.081-.901s.164.328.654.246c.49-.082-.327-.656-.327-.656l-.653-.163s-.817-2.293-.817-3.194c0-.901 0 0 .163.081.163.082.572.656 1.144.738.49.082-.164-.328-.245-.574-.082-.327-.327-.573-.736-.9-.326-.328-.49-.246-.817-.82-.326-.573-.816-.9-.98-1.31-.163-.328-.572-.737-.898-1.146-.327-.41-.409-.983-.491-1.556-.081-.574-.735-.492-.735-.492v1.965c0 .246.245.574.49 1.065.245.492.735.983 1.307 1.802.572.819.327.655.736 1.228a4.19 4.19 0 0 1 .571 1.147s-.081.41-.571 1.31c-.491.901 0 1.229 0 1.393 0 .163.98.983 1.633 1.474.572.491.082.819-.081 1.392-.245.573-.327.655-.572 1.147-.245.491.408 1.31.408 1.31l.327.573s.654 1.31.735 1.556c.082.164 0 .574-.326 1.065-.327.573.245.901 0 1.72s0 .819 0 .819-.082.328-.327 1.228c-.164.901-1.552.82-1.961 1.065-.408.246-.653.573-.898 1.065-.164.491-.572.327-1.226 1.146-.572.82.817.737.817.737s.327.164.572.656c.245.491.817.082 1.062 0 0 0 .408-.737.49-.901 0 0 .327-.246.899-.492zm-17.156 36.035l.327-.982c.327-.983.49-.737.49-.737l1.307-1.065v-1.065h-2.451c-.571 0 0 0-.735-.082l-1.225-1.474-.49-.573c-.49-.573-1.552-1.229-1.552-1.229l-1.062-1.719-1.226-.983h-.817v1.064l.735.738s.572.573.981 1.064c.327.492.735.573 1.225.737.49.082.49.983.572 1.311.082.327.245.982.572 1.72.327.737.735 1.064.653 1.801-.081.737 1.307 1.065 1.553 1.311.326.327 1.143.163 1.143.163zm7.679 0c.736.492 0 0 .327.082s.082-1.31.082-2.129.082-.901.572-2.047c.49-1.229.735-.738 1.307-1.557.572-.818 0 0-.572-.573s0-1.474 0-2.293v-1.72l-.327-.819c-.327-.819-.572-.819-.572-.819s-1.062 1.229-1.47 1.474c-.327.246-.572.737-.817 1.311-.245.573-1.225 1.31-2.288 2.047-.816.574-.98.573-.98.655v1.72s.572.655.49 1.474c0 0 .245.819.736 1.229.49.327 1.47-.082 2.042 0 0-.246.735 1.474 1.47 1.965zm5.31-18.18c-.817-.247-.653-.492-.98-.984-.327-.491-.327-.983-.735-1.965-.327-.983-.49-1.31-.49-1.31l-.409.818s-.163 1.72 0 2.703c.164.983 1.797 2.703 1.797 2.703s1.226-.492 1.716-1.229c.49-.737-.082-.491-.899-.737zm3.023 7.779c.327-.327.082-.737 0-1.064-.082-.328-.735-1.474-.735-1.474s-.49-.574-.572-1.229c-.082-.573-.572-2.047-.572-2.047s-.899.573-1.144 1.064c-.245.492 0 .819 0 .819l-.735 2.212s1.471 1.228 1.879 1.719c.409.492 0 1.556 0 1.556s1.471-1.146 1.879-1.556zm.163 4.423c-.326-.573 0-1.474 0-1.474s-1.552.982-2.124 1.474c-.571.573-1.552.164-1.879 0-.326-.164-.735-.573-1.062 0-.326.573-.816-.328-.735 1.065.082 1.31.409 2.047-.081 2.948-.409.819.571 1.228.571 1.228s0 .082.327-.819l.327-.982s.163.491.572.982c.49.492 1.879.819 1.879.819-.654-.327-.736-1.719-1.144-2.211-.408-.491 0-1.228 0-1.228l2.206-.737c.081 0 1.47-.492 1.143-1.065zm-1.96 8.026c-1.062.573-1.552.819-1.552.819l-.736 1.474 1.226-.409s2.124-.328 2.124-1.065v-.737s0-.655-1.062-.082zm-4.738 2.047h.817l.163-.819 1.144-.737s-.327-.164-1.307 0c-.981.164-.736-.082-1.553 0-.735.082-1.552.41-1.552.41l.327.164c.408.245.98.491 1.961.982zm-7.271-2.375c1.47.983 4.003 1.556 4.003 1.556s1.144-.655.408-1.064c-.653-.328-.49-1.311-.49-1.311h-2.696c-1.307 0-1.96-.737-1.96-.737l-1.062.901.817.655s-.491-.982.98 0zm22.547-5.241c-.082-.082-.163-.082 0 0zm7.353 6.797c-.246-.327-.327-1.146-.572-1.556-.245-.409-.981 0-.981 0l-.326-1.556s-.245-.737-.736-.983c-.49-.245-.571-.491-.817-.982-.245-.492-.98-.492-2.859-1.311-.49-.245-.735-.327-.898-.409a.557.557 0 0 1 .081.655c-.326.819 0 0-.572.246-.571.245-1.47.737-1.47.737l-.654-.737s-.081-1.229 0-1.556c.082-.328-1.47-.819-1.47-.819h-1.225l-.736.819s-.081.573 0 1.392c.082.819 1.552 0 1.552 0s-.081.491 0 1.965c.082 1.475 1.062 0 1.062 0s.491.574 3.023 1.966c2.533 1.31 0 .573 0 .573v2.048l1.226-.574.898.574c.899.573.164.409 1.062.573.817.082.98 0 .98 0l.327-1.065s1.307.328 1.716.492c.327.164 0 .409.245 1.146.245.737 0 0 1.715 1.311 1.716 1.31.899 0 1.634 0 .736 0 0-1.065 0-1.065l-.572-.819-.98-.573c-.082 0-.408-.164-.653-.492zm.571-3.112l.491.983 1.388-.164c1.389-.164.572-.082 1.471 0 .817.082.082-1.228 0-1.72-.082-.491-.245-.819-.49-1.31-.245-.491-.899-.737-.899-.737s-.899.491-.98 1.31c0 .819.408.737.408.737h.572l-.899.983h-1.062v-.082zm-1.307 26.289c.245-.491.164-.655.164-.982 0-.41.163-1.393.163-1.393s0-.737.409-.9c.408-.164 0-1.393 0-1.393s-.246-1.228-.817-1.638c-.491-.409 0-1.228 0-1.228l-.899-.983s.49-1.228 0-2.047c-.49-.819-1.062-.737-1.062-.737v-1.393c0-.491-.408-.982-.082-1.801.245-.738 0-1.475 0-1.475l-1.307-.655s.409-.737 0-1.883c-.408-1.147 0-1.884 0-1.884s-1.47 1.474-1.552 2.293c-.163.737 0 .655-.408 1.802-.409 1.146-.409 1.474-1.062 2.375-.654.901-1.226-.737-1.553-.983-.326-.246-1.062-1.392-1.225-1.884-.163-.491.654-1.638.654-2.047 0-.41-.491-.491-.491-.491s-.817.491-1.879-1.72c-1.062-2.293-2.042.737-2.042.737s.327 1.228 0 2.047c-.327.737-1.634 1.802-2.696 1.474-1.062-.245-.817-1.474-.817-1.474l-1.388 1.392-1.308-.163s-.571.982-.816 2.047c-.246.983-1.471 1.392-1.879 1.884-.409.491-.654.246-3.023.409-2.369.164-2.124 1.474-3.431 2.293-1.307.738-.654 2.048-.98 2.785-.327.737.326.655 0 2.211-.327 1.556.081 1.72 0 3.604-.082 1.883-.981.901-1.553 1.638-.571.737-1.96.655-1.96.655s1.225.655 2.859 1.884c1.716 1.228 0 0 .572-.41.572-.409.98-.983.98-.983s1.552-.164 2.533.492c.98.655 1.307.409 2.369.163 1.062-.245 0-.655 0-.655s1.062-.737 2.369-1.146c1.307-.41.898-.164.898-.164l2.288.246c2.287.245.98.737.98.737s.654.491 1.144 1.392c.49.901 0 1.146 0 1.146l2.124-.737-2.042 2.621s1.062-.983 2.042-.983c.98 0 .653.983.653.983v2.375s1.226.737 2.86 1.474c1.552.737.898 0 .898 0s.654 0 1.961-.655 1.062.41 1.225 0c.164-.409.817-.737 1.634-1.638.899-.901.572-.491.817-.983.245-.491.409-.9 1.062-1.474.654-.655.899-1.228 1.226-2.129.245-1.065 1.143-1.556 1.388-2.048zm-8.006 10.811c-.49-.164-1.633.491-2.042.409-.408-.163-.899-.982-1.144-.982-.245 0-1.307 2.047-1.307 2.047l1.471 2.621.898-.246s.572-.901 1.389-1.228c.735-.41.735-.983.735-.983s.491-1.474 0-1.638zm15.685-2.785s-.245 3.85-.98 4.177c-.735.328-1.715 1.802-2.532 2.457-.817.573-.817.328-1.716.573-.817.246-3.676 1.557-3.676 1.557s.082 1.064 1.307 1.719c1.225.574 0 0 1.225-.081 1.226-.082.491-.246 2.533-.574 2.042-.327.899-.491 1.144-.983.326-.491.408-.491 1.143-1.474.736-.982 4.003-1.801 4.412-1.965 2.532-1.147-2.86-5.406-2.86-5.406zm-80.957-30.138s-.817 1.31-1.716 2.539c-.817 1.228-1.062 0-1.062 0l-.817 3.03c-.817 3.03 0 0-.326 1.72-.327 1.72.163.573-.654 1.31-.817.737 0 1.065 0 1.72 0 .573 1.716.737 1.716.737l1.062-.737s1.797-.573 1.878-1.064c.082-.492 0-1.229 0-1.72 0-.492.327-1.475.736-2.212.326-.737-.572-1.965.081-2.866.736-.901.245-1.72 0-2.539-.245-.655-.898.082-.898.082zm-74.831 34.725c-1.307.245-1.062-.082-1.307 0-.245.082 0 .983 0 .983l1.552.819c1.552.818.327-.082 1.144-.492.817-.327.327-.737 0-1.556-.409-.901 0 0-1.389.246zm12.581-.164c-.654-.491-.654.901-.654.901l.654.164h.653s0-.574-.653-1.065zm87.575-51.022c-.082-.819-.327-.082-.981 0-.572.081-.98 0-.98 0s.817 2.784.98 3.275l.981-.491s.245-.573 0-1.392c-.245-.655.081-.492 0-1.392zm8.741-6.47c-.736.163-1.226-.901-1.226-1.31 0-.41 1.144.245-.408-1.72-1.552-1.966-.98-1.72-2.042-2.13-1.062-.41-2.615.983-2.615.983l-.735.983s1.226-2.13-.98.082c-2.206 2.21-2.288 2.702-2.288 2.702v1.065c0 .41-.081 1.556-.081 1.556s-.164.9-.245 1.31c-.082.41-.082 1.065-.245 1.311-.164.245-.327.655-.409.982-.082.328-.49.737-.49.737l-.899.574-.98-2.293s2.042 1.064-.817-1.065l-2.859-2.13s-.654-.49-.082-1.72c.572-1.228.817-.327.735-1.555-.081-1.229.572-.246-.081-1.229-.654-.983-.164-.655-.654-.983-.49-.327-2.532.574-2.532.574s-.736-1.065-.654-1.556c.082-.492.899.655.082-.492-.817-1.146.245-.983-1.226-1.392-1.47-.41-3.267-1.147-3.512-1.065-.245.082-2.288.656-2.533.901-.082.082-.082.164-.082.164-.081-.082-.245-.164-.98-.573-1.552-.737-1.715-.82-2.042-.983-.327-.164-1.226-.164-1.226-.164s-.163-.164-.817-.9c-.653-.738.409-.246-.653-.738-1.062-.491-1.879-.737-1.879-.737s.163 2.211.408 2.375c.246.164.736.41 1.062.655.327.246.736.492 1.062.737.327.246.572.574 1.308.164.735-.41 1.633-.164 1.96.328.327.491.327.819.735 1.146.409.328.981.164 1.226.328s.245 1.228.245 1.474-.572.82-1.062 1.474c-.49.655-.735 1.31-.817 1.638-.082.328.735.655-.654 1.065-1.388.41-1.715.328-2.45.737-.736.41-.817.41-1.389.819-.572.41-1.961.573-2.288.737-.326.164-1.062.983-1.062.983s-1.552-.737-1.797-1.474c-.245-.737-.163-.737-.408-1.638-.245-.82-.899-1.884-.981-1.966 0 .082.082.164-.735-.328-.98-.655-1.062 0-1.225-1.064-.164-1.065 0-.164-.164-1.065-.163-.9.082-1.146-1.062-1.883-1.143-.737-2.45-2.785-2.45-2.785-.654.246-1.389 0-.899 1.556s.408 1.392.98 2.293c.572.901.899.983 1.226 1.72.326.737.572 1.638 1.143 2.375.572.737 1.961 1.638 2.124 1.966l.572 1.146c.164.328.735.901 1.144 1.229.408.327 1.144 1.064 1.307 1.31.163.246.899 1.147 1.716 1.065.817-.082 1.96.164 2.532-.574.572-.737 1.225-1.146 1.225-1.146s.981 0 .572.983c-.408.982-1.797 3.931-1.797 3.931s-1.797 1.064-2.369 1.802c-.572.737-.735 1.064-1.225 1.637-.491.574-1.307 1.147-2.37 2.048-1.062.901-1.388 1.31-1.388 1.638 0 .327.081 2.539.245 3.03.163.492.653 1.474.653 2.048 0 .573.654.327-.163 1.801-.817 1.474-1.307 2.457-1.471 2.867-.163.409-.571 1.556-1.878 2.62-1.308 1.065-1.716 2.048-1.716 2.539 0 .492.082 1.393.082 1.802 0 .41.898.328-.327.901s-1.797.901-2.042 1.474c-.245.573-.572 1.474-.654 2.048-.082.573-.082.982-.653 1.228-.572.246-.817.41-1.226.737-.408.328-.98.901-1.225 1.065l-.245.164s-.491.409-1.716.409-.735-.164-1.634 0c-.898.164-.898.246-1.225 0-.327-.246-.409-.082-.572-.819-.163-.737-.163-.246-.408-1.556-.246-1.31-.082-.573-.817-2.129-.736-1.556 0-1.147-1.307-2.703-1.308-1.556-.736-.737-1.308-1.556-.571-.819-.653-.164-.898-1.638s-.409-1.392-.409-1.884c0-.491-.245.082-.081-1.638.163-1.719-.409-1.392.408-2.293.817-.901 1.634-.245 1.144-1.638-.49-1.392-.245-.573-.735-1.801-.491-1.229-.491-.656-.817-1.802-.327-1.147-.327 0-.327-1.147 0-1.146.082-1.556-.164-2.293-.245-.737-.245-.655-.816-1.228-.572-.574-1.226.327-.572-.574.653-.901 1.062-1.064 1.143-1.883.082-.819.736-.328.082-.819-.653-.492.735-.819-1.961-1.147-2.695-.327-2.532.082-2.695-.327-.164-.41-.164-1.065-.164-1.065s-1.552-.082-2.287.082c-.735.164-1.716.245-2.206.819-.49.573-.245.409-1.797.409h-1.552c-.409 0-2.451.41-2.533.164-.081-.246-.163-1.966-1.47-3.112-1.307-1.147-.981-.819-1.552-1.556-.572-.737-1.798-.983-1.798-2.293v-2.54s.082-.081 0-.409c-.081-.327-.49-.737-.572-2.293-.081-1.556-1.307-2.211 0-3.112 1.308-.9 1.553-.983 1.798-1.31.245-.328 1.225-2.293 1.225-2.293s.899-.41 1.389-.328c.49.082.899-.491.899-.983 0-.491.081-.819.326-1.556.245-.737.409-.983.572-1.228.164-.246 1.716-1.393 1.716-1.393l.081-.819s.817-.245 1.144-.163c.327.082 1.634.163 1.634.163s1.144-.409 1.797-.655c.654-.245.735-.327.981-.327.245 0 1.552-.164 1.96.327.409.492 1.879 0 1.879 0s1.634-.163 2.124 0c.49.164.899-1.474.98 0 .082 1.474.327 2.54.491 2.949.163.41.49.655.98.655s3.268.082 3.268.082.163-.164.571.327c.409.492.164.983.817.574.654-.41 1.798-1.229 2.043-1.229.245 0 .572-1.147 2.205-.164 1.634.983 2.369.983 2.369.983h1.144s1.389-.491 1.797-.41c.409.082.899.246.899.246s0-1.146.082-1.392c.081-.246 0-.328.408-1.065.409-.737.981-1.064.572-1.556-.408-.491-.163-1.146-1.961-.573-1.797.573-2.205.328-2.45.573-.245.328-1.226 0-1.226 0s-.245.82-.98-.655c-.735-1.556-.899-2.211-.899-2.211s-.49-.901-.735-.983c-.245-.082-1.47-2.375-1.307-.491l.163 1.883s.654 1.31.654 1.556-.082.901-.49.901l-.409.082s-1.307-1.474-1.552-1.802c-.245-.327-.898-1.31-.898-1.31s.245-.491.245-.9c0-.41 0-1.23-.327-1.23s-1.226-.163-1.471-.327c-.245-.164-.98-.9-.98-.9l-.817-.656s-.327-.491-.98-.655c-.654-.164-1.552-.164-1.226.328.327.49-.163.163.327.49.49.328 1.716.82 1.716.82l.572.573c.326.328.98 1.065.98 1.065l.735.491.572.328-1.062.491s0 .573.082.82c.081.245-.245.818-.245.818l-.736.655s-.326.41-.735.41c-.408 0-.98-.573-.98-.573s.408-.328 0-.574c-.409-.246-.817-.082-.409-.246.409-.163 1.226 0 1.226 0l.408-.081s-.081-.41 0-.901l.082-.492s-.327-.573-.735-.573c-.409 0-.082-.082-.736-.328-.653-.245-1.307-.982-1.307-.982l-.163-.492-.654-.9-1.062-.164-.081.573-.164.491s.245.164-.898 0l-1.144-.163-.572-.164s-.653.41-.653.9c0 .492.245.574-.245.901-.491.328-1.062-.163-1.062.41s.245.573 0 1.146c-.246.574-2.206.82-2.206 1.065 0 .246-.082.737-.082.737s.409.082-.49.328c-.98.246-1.716-.082-1.634.164.082.245 0 .491-1.144 0l-1.143-.492s.408-.163.245-.9c-.082-.738-.49-2.376-.49-2.376s-.082.656 0-.41c.081-1.064.163-1.473.163-1.473s.817-.901 1.879-.492c1.062.41 2.206.41 2.206.41l1.225-.655.409-2.13s-1.389-.819-1.634-.819c-.245 0-1.716.492-1.144 0 .572-.491 1.062-.573 1.552-.819.49-.245 1.307-.245 1.552-.41.245-.163 1.062-1.228 1.471-1.637.408-.41.49-.573.817-.492.326.082.572-1.801.572-1.801s.245-.41 1.062-.328c.816.082 1.307-.327 1.47-.41.163-.163-.735-1.146-.572-1.392.082-.245.082-.327 0-.737s.082-.737.409-.737c.326 0 1.143-.983 1.143-.983s.164-.9.409-.081c.245.819.327 2.293.572 2.866.245.573.653 1.556 1.062 1.065.408-.492 1.225-1.065 1.552-1.065.327 0 1.634.246 1.879 0 .245-.246.653-.983 1.062-1.147.408-.163.817-.655.817-.655s-.164-.655 0-1.556c.163-.9.081-.983.408-1.31.327-.328.572-.737.817-.655.245.081 1.552.163 1.797.245.245.082 1.389-.655 1.389-.655l1.144-.41s-1.471-1.228-1.961-1.064c-.49.164-.572.491-1.389.573-.817.082-1.307 0-1.307 0l-.98-.491s-.163-.164-.163-.41c0-.245-.572-1.31-.245-1.638.326-.245.49-.819.735-1.064a105.38 105.38 0 0 0 1.062-.737s.327-1.638-.164-1.72c-.49-.082-1.062-.492-1.307-.328-.245.164-.817.737-.735 1.392.082.656.409 1.393.082 1.393-.327.082-.899-1.229-1.471 0-.572 1.228-.898 1.556-.735 1.883.163.328.409.574.572.82.163.245.49.818.49.818s1.062.328 0 .655c-1.062.328-1.225.492-1.389.82-.245.327.164 1.474.409 1.474.245 0 1.552-.41 1.552-.41s.082.655-.327 1.229c-.408.573 1.716 1.146-.98.9-2.696-.245-2.533.656-2.533.656-.163-.901-.326 0-.408-1.229-.082-1.228-.572-2.211-.572-2.211s-.163.246-.408 0c-.246-.246-.736.082-.736.328 0 .245-.98.491-.98.491l-.327-.082-1.879-1.392.409-2.048V55.69l1.47-.983c.164-.164 1.471-.9 1.879-1.474.409-.573.817-1.474.98-1.72.164-.246.654-.901.654-.901l.817-1.802s.654-.819-.572-.327l-1.225.491s1.062-1.72 1.388-1.884c.327-.163 1.553-.327 2.37-.655.817-.327 3.512-.573 4.248-.983.817-.409.817-2.21 1.96-.819 1.144 1.393.164.82 1.144 1.393.98.573 4.575 1.72 4.575 1.72s1.47.163 1.225.737c-.245.573-.082 1.72-.735 1.965-.735.246.49 1.147-2.042.246-2.533-.9-3.595-1.474-3.595-1.474l2.533 2.948s.571.328.571.573c0 .246 1.226.901 1.471.574.245-.328.653-.492 1.389-1.065.735-.573 2.042-1.065 2.042-1.065s1.062-.082.327-1.474c-.735-1.392-1.389-1.31-1.144-1.638.245-.327.49-.573.817-1.065.327-.49.572-1.064.572-1.064l1.307-.41v2.048s-.899 1.31 0 .819c.899-.492 2.532-2.293 2.532-2.293.654.737 1.226.737 1.226.737l1.634-.328s1.634 0 1.307-.41c-.327-.409-.49-.654-1.307-.982-.817-.328-2.043-.983-2.451-.737-.409.164-1.471 0-1.471 0s-.98-.655-.98-1.147c0-.573.98-2.62.98-2.62s.164-1.802.491-1.802c.326.082.816-.41 1.225-.656.408-.245.408-.818 1.062-1.228.654-.41 1.797-1.147 1.797-1.147l1.552-.982s.899.245.736.655c-.164.41-1.389 1.884-2.043 2.13-.653.245-.408-.165-1.388.654-.981.82-1.389 1.147-1.471 1.475-.082.327-.082.9-.082 1.392 0 .491-.081 1.31-.081 1.31v.983l1.634.573s1.96.082 2.205.164c.245.082 1.226.573 1.226.573s.898.41 1.062.656c.163.245.817.41.817.41s1.96 0 1.715-.247c-.245-.245-.653-.573-1.797-1.31-1.144-.737-1.307-.983-1.307-1.228 0-.246.245-.983.245-.983s.735-.82.735-1.065c0-.246.082-.819.327-1.147.245-.327.653-1.228.898-.9.246.41.327.982.572 1.556.245.573 0 .983.327 1.228.409.246.163.655.572 1.229.408.573.735.982.735.982s.572-1.064.327-1.556c-.245-.491-.408-.655-.408-1.064v-2.294l.49-.655s.735.164.735.656v1.228l1.47-.082s.327-.819.327-1.146c0-.246.572-.574.654-.656.081-.082 1.96-1.146 1.96-1.146l.409-.492v-2.375s1.879-1.064 2.369-1.474c.49-.41 1.225-.819 1.797-1.065.572-.245 1.307.164 1.389-.49.082-.656 1.715-2.212.98-2.458-.735-.246-.245-.983-1.552-.737s-1.062 0-2.042.164c-.981.164-2.043 0-2.043 0s-1.143-.901-.735-1.31c.409-.41.082-1.065 1.307-1.147 1.226-.082 2.451.164 2.696.41.245.245 1.226.081 1.552.245.327.164.082-1.556.817.164s1.307 1.638 1.307 1.638l-.245 1.31s.327.246.735.082c.409-.164.736-.819 1.471-.9.735-.083.98-.574 1.389-.165.408.41.653.41.898.656.245.245.164 1.064 0 1.556-.163.491-.49.655-.735 1.392-.245.655-.245 1.392-.245 1.392s1.389-.983 1.552-1.146c.164-.164-.245.163.164-.164.408-.328 1.062-.082 1.062-.082s0 .41.326.655c.327.328 1.634 0 1.634 0h4.085s-.409-1.31 0-1.556c.408-.246 2.696-.737 2.777-.41.082.328 0 1.311 0 1.311s.491.328.736.655c.245.41 1.062.737 1.062.737l1.225.574s.98-.492.654-.901c-.327-.41-.572-1.065-.572-1.065s.653-.737.98-.491c.327.245.98.9 1.307.737.327-.164 1.552-1.147 1.552-1.147s-.898-.491-.817-.9c.082-.492.817-1.311.817-1.311s2.043-.573 2.451-.492c.409.082 2.451.656 2.451.656s.817.327.98-.082c.164-.41.082-1.474.49-1.147.409.328.736.082 1.144.573.409.41 1.144.574 1.389.41.245-.164 2.042-1.474 2.287-1.556.245-.082.817-.573 1.307-.082.49.491.899 1.065.981 1.228.081.082.163.41.408.41.245 0 2.859-.9 2.859-.9s.164-.165.409-.329c.245-.163.98-2.129 1.062-1.474.082.655.735 1.147.898 1.393.164.245.817.737.654.081-.163-.655-.327-1.474 0-1.637.408-.164 1.225.327 1.634 0 .408-.328 1.96-1.065 1.96-1.065h1.716s.49.246 1.634.9c1.144.656 2.696.656 3.758.656h4.084s.245.328.327.737c.082.41.082 1.474 0 1.884-.082.41.082.819.082 1.146 0 .246-2.451.655-2.778.492-.326-.164-.98-.656-1.879-.983-.898-.328-.735-.983-.898-.328-.164.655.163 2.212.163 2.212s.409 1.146.572 1.474c.163.327 1.47.655 1.716 1.146.245.492.49 1.392.163 1.638-.327.246.327.328-.817.328s-1.961.164-1.961.573c0 .41-.326 1.638-.571 2.375-.246.737-.572.983-.654 1.229-.082.245-.327.163-.899.41-.572.245-.817.163-1.225.736-.409.573.245.164-.409.573l-.653.41-.245 1.065s.653 1.638 1.062 1.883c.408.246 1.389.246 1.552.82.163.572.245 1.965.245 1.965s-.082.491-.49.983c-.409.491-.654.655-.49 1.31.163.655.572 1.802.572 2.457 0 .655.081 1.31-.082 1.802-.163.491-.654.819-.735 1.31-.082.491-.654 1.556-.654 1.556s-.408-1.72-.327-2.211c.082-.492.327-.655-.245-1.31-.572-.656-1.062-.82-1.307-1.31-.245-.492-1.47-1.639-1.47-1.885V49.22c0-.82.081-1.147.163-1.884.082-.737-.327-.655.164-1.883.49-1.229.735-2.294.816-2.458.082-.163.736-.819.409-1.72-.327-.9.653-1.064-.49-1.883-1.144-.819-1.307-1.556-1.389-.41-.082 1.147-.245 2.867-.245 3.113 0 .245 2.124 2.21-.082.573-2.205-1.638-1.797-.9-2.205-1.638-.409-.737-.327.164-.572 1.065-.245.9-.572 1.392-.164 1.801.409.41 1.552.983 1.634 1.393.082.41-1.225.9-1.634 1.146-.408.246.572 1.31-.898.328a32.959 32.959 0 0 1-2.369-1.72s-.981 1.065-1.226 1.31c-.245.246-1.634.737-1.879.737-.245 0-.327.246-.817.82-.49.573-1.307 1.637-1.388 2.293-.082.655-.082 2.293.163 2.866s.899.983.899.983-.409-.41.653-.082c1.062.327 1.634.983 1.634.983l.572 1.883s1.552 1.556 1.552 1.966c0 .41.49 2.211.49 2.457 0 .245-.082 1.064-.327 1.638-.245.573-.245 1.474-.245 1.474v.737c0 .328 0 .9-.081 1.474-.082.573-.082 1.72-.082 1.72s1.47.983-.327.41c-1.797-.574-1.389-1.065-1.797-.574-.409.492-.654.737-.245 2.048.408 1.31.653 1.965.653 1.965-.408.41-.653 1.802-.408 1.884.245.082 1.552 1.31 1.634 1.638.081.327-.981 1.474-1.634 1.72-.654.245-.572 1.883-1.389 0-.817-1.884-.49-1.884-.98-2.785-.49-.9-1.062-1.802-1.062-1.802s.163-.982-.49-.491c-.654.491-.327 1.474-.981 1.147-.653-.328-1.552-2.13-1.552-2.13s-1.225 1.474-1.225 1.966c0 .491 1.225 1.556 1.552 1.72.327.163 1.144-1.31 1.144-.41 0 .901-.409 2.948-.409 2.948s.49 1.065.735 1.393c.245.327 1.307.983 1.307.983l1.389 2.374v1.147c0 .41-.163.737-.327 1.31-.163.574-.816 2.13-.898 2.457-.082.328-.572.82-1.062 1.475-.49.655-.327.737-1.307.982-.981.246-1.961.41-2.206.574-.245.163.49.737-.572.9-1.062.164-1.634-.737-2.532.328-.899 1.065-2.451 2.457-1.961 2.62.49.165.817-1.228 1.307 0 .49 1.23 3.595 2.294 3.595 2.294l-.736 2.293s-.245.41-.245.983.245.737-.163 1.31c-.409.574-.98 1.147-1.307 1.393-.327.245-.082 1.392-.98.491-.899-.901-1.389-1.72-1.389-1.966 0-.245-2.124-1.883-2.124-1.883s-.327.983-.327 1.228c0 .246-.163 1.392.327 1.884.49.491 1.307.491 1.47 1.065.164.573.817.245 1.062 1.801.245 1.556.245 2.375.245 2.621v1.31s-2.287-.737-2.287-1.146c0-.41.245-.246-.245-1.392-.49-1.147-.49-.983-.735-1.638-.245-.656-.736-2.703-.736-2.949 0-.245.491.082.082-1.474l-.408-1.556s-1.144-.573-1.062-1.147c.081-.573-.491-1.72-.491-1.72s-.408-.163-1.143 0zm-43.052-22.359c-.817-.327-1.798-1.228-1.798-2.784 0-1.556-.081-1.474-1.552-.737-1.389.737-.653 1.064-1.389 1.802-.735.737-1.307-1.229-2.532-1.229-1.226 0-1.307 1.31-1.307 3.44 0 2.047 4.575 1.802 4.575 1.802s-1.226 0 0-.82c1.225-.818.571 0 1.552.901.98.901 2.369-.409 3.594-.655 1.062-.245-.327-1.31-1.143-1.72z" fill="#002F35"/><path opacity=".07" d="M55.759 11.793c11.927 96.721 76.546 152.985 166.245 146.761l40.356 6.88H55.759V11.793z" fill="#1C93A4"/><path opacity=".24" d="M233.849 50.12l-2.287 5.324a49.892 49.892 0 0 1-8.251 13.104L212.854 80.34l3.595 10.32c.326-.41.572-.82.898-1.147l1.634-1.884a.432.432 0 0 1 .654-.082l3.267 2.867a.498.498 0 0 1 0 .655l-1.633 1.884a13.924 13.924 0 0 1-3.105 2.702l3.758 10.893a15.34 15.34 0 0 1 1.471-1.966l1.633-1.884a.433.433 0 0 1 .654-.082l3.268 2.867a.5.5 0 0 1 0 .655l-1.634 1.884c-1.144 1.228-2.369 2.293-3.758 3.112l3.431 9.991c.082.164 0 .328-.082.492l-3.186 4.996c-.245.327-.735.327-.898 0l-12.663-22.277a32.252 32.252 0 0 0-6.045-7.616l-3.186-2.949-4.493 5.078c-3.023 3.44-6.454 6.47-10.13 9.091l4.248 8.681c.572 1.228.572 2.621-.082 3.767l-1.715 3.358c0 .082-.164.082-.164 0l-8.414-11.548-1.879 1.311c-.899.655-2.042-.41-1.552-1.311l1.062-2.047-12.499-7.043c-.082-.082-.082-.164 0-.164l3.104-2.129c1.062-.737 2.533-.901 3.758-.492l9.15 3.194a55.45 55.45 0 0 1 7.761-11.138l4.493-5.078-3.268-2.866c-2.451-2.13-5.228-3.85-8.251-5.16l-23.609-9.91c-.409-.163-.409-.654-.164-.9l4.575-3.767c.164-.082.327-.164.49-.082l10.294 2.293a16.584 16.584 0 0 1 2.614-4.095l1.634-1.884a.43.43 0 0 1 .653-.081l3.268 2.866a.5.5 0 0 1 0 .655l-1.634 1.884c-.572.655-1.144 1.146-1.797 1.72l11.192 2.457c.572-1.229 1.388-2.376 2.287-3.44l1.634-1.884a.432.432 0 0 1 .654-.082l3.267 2.867a.498.498 0 0 1 0 .655l-1.634 1.883c-.326.41-.653.738-1.062 1.065l10.62 2.293 10.457-11.793c3.431-3.85 7.516-7.207 12.009-9.746l4.983-2.866c.735-.41 1.307.163 1.062.737zm-85.042 71.498c4.738-5.406 8.169-9.173 9.64-10.893.49-.491.408-1.31-.082-1.72l-.082-.081c-.49-.492-1.307-.41-1.715.081-1.471 1.638-4.82 5.488-9.64 10.893a725.22 725.22 0 0 1-4.248 4.75c-6.454 7.371-67.315 75.919-77.527 87.221.082.737.082 1.065.164 1.802l.245.246c.49.409 1.225.327 1.634-.164 10.13-11.466 70.909-80.014 77.363-87.385 1.47-1.638 2.941-3.276 4.248-4.75zm-10.865-9.664c4.738-5.405 8.169-9.173 9.64-10.893.49-.491.408-1.31-.082-1.72l-.082-.081c-.49-.492-1.307-.41-1.715.081-1.471 1.638-4.82 5.488-9.64 10.893a725.22 725.22 0 0 1-4.248 4.75c-6.617 7.617-71.4 80.751-78.18 88.45-.49.573-.409 1.392.163 1.802.49.409 1.225.327 1.634-.164 6.78-7.699 71.563-80.752 78.262-88.368a725.22 725.22 0 0 0 4.248-4.75z" fill="#002F35"/><path opacity=".76" d="M150.114 112.527c-5.637 6.388-58.9 66.501-67.723 76.493-.409.409-.98.491-1.47.164l-.246-.164c-.082-.655-.082-.983-.163-1.638 8.904-9.91 62.25-69.941 67.886-76.411a669.821 669.821 0 0 0 3.677-4.177c4.166-4.75 7.107-8.026 8.414-9.5.408-.41 1.062-.491 1.552-.082l.082.082c.408.41.49 1.065.082 1.556-1.308 1.475-4.248 4.75-8.415 9.501a75.128 75.128 0 0 1-3.676 4.176zm25.897 15.561c4.166-4.75 7.107-8.026 8.414-9.5.409-.41.327-1.147-.082-1.556l-.081-.082c-.409-.41-1.144-.328-1.552.082-1.308 1.474-4.249 4.75-8.415 9.5a146.41 146.41 0 0 1-3.758 4.177c-5.31 6.142-53.509 60.113-66.334 74.199a1.17 1.17 0 0 0 .163 1.638l.49.328c.49.327 1.062.245 1.471-.164 12.662-14.25 60.616-68.385 65.926-74.445a145.06 145.06 0 0 0 3.758-4.177zm17.809-2.621c-.409-.409-1.144-.327-1.552.082-1.308 1.474-4.248 4.75-8.415 9.5a702.498 702.498 0 0 1-3.676 4.177c-5.228 5.979-51.385 58.229-65.109 73.708-.409.492-.327 1.229.163 1.556.49.328 1.062.246 1.471-.164 11.6-13.021 60.126-67.893 65.191-73.626a702.498 702.498 0 0 0 3.676-4.177c4.166-4.75 7.107-8.026 8.414-9.5.409-.409.327-1.146-.082-1.556h-.081zm-49.506-25.634c4.166-4.75 7.107-8.026 8.414-9.5.409-.41.327-1.147-.081-1.556l-.082-.082c-.409-.41-1.144-.328-1.552.082-1.307 1.474-4.248 4.75-8.415 9.5a689.068 689.068 0 0 1-3.676 4.177c-5.8 6.715-62.495 70.678-68.459 77.475-.408.492-.326 1.229.164 1.556.49.328 1.062.246 1.47-.163 5.964-6.716 62.659-70.678 68.541-77.394a151.828 151.828 0 0 0 3.676-4.095z" fill="url(#a)"/><path d="M211.384 87.139l-.245.082c-.245.081-.491-.082-.409-.41l.082-.246c.408-2.293 1.552-4.504 3.186-6.388l1.47-1.638c.164-.163.409-.245.572-.082l2.859 2.54a.396.396 0 0 1 0 .573l-1.47 1.638a14.338 14.338 0 0 1-6.045 3.93zM189.245 67.32l-.245.08c-.245.082-.49-.082-.409-.41l.082-.245c.408-2.293 1.552-4.504 3.186-6.388l1.47-1.638c.164-.164.409-.246.572-.082l2.86 2.539a.397.397 0 0 1 0 .573l-1.471 1.638c-1.797 1.884-3.84 3.276-6.045 3.931zm-13.724-3.686l-.245.082c-.246.081-.491-.082-.409-.41l.082-.245c.408-2.294 1.552-4.505 3.186-6.389l1.47-1.637c.164-.164.409-.246.572-.082l2.859 2.538a.396.396 0 0 1 0 .574l-1.47 1.638c-1.797 1.883-3.84 3.276-6.045 3.93zm41.173 36.69l-.245.082c-.245.082-.49-.082-.409-.41l.082-.245c.408-2.293 1.552-4.505 3.186-6.388l1.47-1.638c.164-.164.409-.246.572-.082l2.86 2.539a.397.397 0 0 1 0 .573l-1.471 1.638c-1.797 1.884-3.84 3.276-6.045 3.931z" fill="#fff"/><path d="M207.626 67.32l-40.928-9.01c-.164 0-.327 0-.409.082l-4.003 3.276c-.245.246-.245.656.082.82l20.668 8.68c2.614 1.147 5.065 2.621 7.189 4.505l5.719 4.996a.43.43 0 0 0 .653-.082l11.274-12.53c.245-.246.082-.656-.245-.738z" fill="#F6F6F6"/><path d="M208.606 68.22l13.725 39.638c.081.164 0 .328-.082.41l-2.778 4.422c-.163.328-.653.328-.817 0l-11.028-19.491c-1.389-2.457-3.186-4.75-5.31-6.634l-5.637-5.16c-.163-.163-.245-.491 0-.655l11.192-12.694c.245-.246.654-.164.735.164z" fill="#F6F6F6"/><path d="M186.386 96.557l-6.781 4.668c-.817.573-1.797-.327-1.307-1.146l3.839-7.29a50.224 50.224 0 0 1 6.944-10.073l23.61-26.617c3.022-3.44 6.535-6.306 10.538-8.517l4.411-2.539c.409-.245.981.164.736.655l-1.961 4.669c-1.797 4.176-4.248 8.026-7.189 11.465L195.617 88.45c-2.778 3.03-5.8 5.815-9.231 8.108z" fill="#fff"/><path d="M185.324 93.527l-4.82 5.487-12.172-6.88c-.082 0-.082-.163 0-.163l2.695-1.884c.981-.655 2.206-.82 3.268-.41l11.029 3.85z" fill="#F0F0F0"/><path d="M185.324 93.527l-4.82 5.487 8.169 11.302c.082.082.164.082.164 0l1.552-2.948c.572-1.065.572-2.293.081-3.358l-5.146-10.483z" fill="#F0F0F0"/><path opacity=".24" d="M118.907 25.06c-14.296-.819-28.51 6.389-31.778 16.052-3.35 9.664 13.888 36.445 13.888 36.445s34.474-23.75 37.742-33.496c3.267-9.664-5.555-18.181-19.852-19zm-9.149 26.7c-7.679-.41-12.5-5.078-10.702-10.32 1.797-5.241 9.476-9.09 17.155-8.681 7.68.41 12.499 5.078 10.702 10.32-1.715 5.24-9.394 9.09-17.155 8.68z" fill="#002F35"/><path d="M101.017 0C86.721 0 75.12 11.63 75.12 25.962c0 14.332 25.897 51.677 25.897 51.677s25.896-37.345 25.896-51.677S115.313 0 101.017 0zm0 39.393c-7.68 0-13.97-6.306-13.97-14.005 0-7.698 6.29-14.004 13.97-14.004 7.679 0 13.969 6.306 13.969 14.004 0 7.699-6.208 14.005-13.969 14.005z" fill="#FFD234"/><mask id="c" maskUnits="userSpaceOnUse" x="75" y="0" width="52" height="78"><path d="M101.017 0C86.721 0 75.12 11.63 75.12 25.962c0 14.332 25.897 51.677 25.897 51.677s25.896-37.345 25.896-51.677S115.313 0 101.017 0zm0 39.393c-7.68 0-13.97-6.306-13.97-14.005 0-7.698 6.29-14.004 13.97-14.004 7.679 0 13.969 6.306 13.969 14.004 0 7.699-6.208 14.005-13.969 14.005zm0-.82c-7.68 0-13.97-6.305-13.97-14.004 0-7.698 6.29-14.004 13.97-14.004 7.679 0 13.969 6.306 13.969 14.004 0 7.699-6.208 14.005-13.969 14.005z" fill="url(#b)"/></mask><g mask="url(#c)"><path opacity=".5" d="M101.017 0C86.721 0 75.12 11.63 75.12 25.962c0 14.332 25.897 51.677 25.897 51.677s25.896-37.345 25.896-51.677S115.313 0 101.017 0zm0 39.393c-7.68 0-13.97-6.306-13.97-14.005 0-7.698 6.29-14.004 13.97-14.004 7.679 0 13.969 6.306 13.969 14.004 0 7.699-6.208 14.005-13.969 14.005zm0-.82c-7.68 0-13.97-6.305-13.97-14.004 0-7.698 6.29-14.004 13.97-14.004 7.679 0 13.969 6.306 13.969 14.004 0 7.699-6.208 14.005-13.969 14.005z" fill="url(#d)"/><path opacity=".08" d="M128.711-8.927h-27.694V83.29h27.694V-8.927z" fill="#1C93A4"/></g><g clip-path="url(#e)"><path d="M104.628 154.507c0 4.852 1.607 34.741 36.321 34.741" stroke="#0F7382" stroke-width=".867" stroke-miterlimit="10" stroke-linecap="round" stroke-linejoin="round"/><path d="M153.871 197.124a2.662 2.662 0 0 1-2.654 2.672h-11.525a2.662 2.662 0 0 1-2.654-2.672 2.662 2.662 0 0 1 2.654-2.673h11.455c1.467-.07 2.724 1.125 2.724 2.673z" fill="#59BBE0"/><path d="M142.416 194.873c1.774 0 3.213-1.448 3.213-3.235 0-1.786-1.439-3.235-3.213-3.235-1.775 0-3.213 1.449-3.213 3.235 0 1.787 1.438 3.235 3.213 3.235z" fill="#0F7382"/><path d="M104.978 153.663l57.414 45.22c.908.703 1.048 2.039.35 2.953-.699.915-2.026 1.055-2.934.352l-.07-.07-55.529-47.541a.581.581 0 0 1-.069-.844c.209-.281.558-.281.838-.07z" fill="#FFCB0B"/><path d="M195.361 167.587v-24.825m-2.375 28.482v-24.825" stroke="#FFCB0B" stroke-width="1.735" stroke-miterlimit="10" stroke-linecap="round" stroke-linejoin="round"/><path d="M239.853 187.138l-43.864-37.343h-11.175c-2.864 0-3.493 1.688-3.493 2.883v19.903h-14.598v15.471l73.13-.914z" fill="#0F7382"/><path d="M229.865 172.58h-73.689m54.341-13.853h-34.784" stroke="#ACE0EE" stroke-width="8.673" stroke-miterlimit="10" stroke-linecap="round" stroke-linejoin="round"/><path d="M195.36 144.45c.926 0 1.677-.756 1.677-1.688 0-.932-.751-1.688-1.677-1.688-.925 0-1.676.756-1.676 1.688 0 .932.751 1.688 1.676 1.688z" fill="#FFCB0B"/><path d="M121.951 217.66a2.662 2.662 0 0 1-2.655 2.672h-11.455a2.662 2.662 0 0 1-2.654-2.672 2.663 2.663 0 0 1 2.654-2.673h11.455a2.663 2.663 0 0 1 2.655 2.673z" fill="#59BBE0"/><path d="M166.793 184.817c0 4.501-5.728 11.604-14.109 11.604-8.382 0-25.285.07-26.612.07-1.327 0-2.096.915-2.724 2.462-.629 1.547-6.706 18.847-7.195 20.394-.488 1.548-.069 3.798 3.213 3.798h83.817c6.985 0 29.825-5.204 42.677-36.007.419-1.195.838-2.25-2.724-2.25-3.632-.071-76.343-.071-76.343-.071z" fill="#ACE0EE"/><path d="M196.548 192.764H172.66m59.72 0h-22.212" stroke="#0F7382" stroke-width="8.673" stroke-miterlimit="10" stroke-linecap="round" stroke-linejoin="round"/></g><path d="M78.827 206.461H52.37v-34.385h13.74c1.98 0 3.72 1.077 4.68 2.811l12.777 23.919c1.8 3.469-.78 7.655-4.74 7.655z" fill="#2CBFC6"/><path d="M4.98 161.074h44.81c1.44 0 2.58 1.136 2.58 2.572v42.816H2.4v-42.816a2.556 2.556 0 0 1 2.58-2.572z" fill="#55ADBB"/><path d="M1.5 197.729h50.99v8.791H0v-7.296c0-.777.66-1.495 1.5-1.495z" fill="#54C3DD"/><path d="M55.97 176.679h8.22c1.08 0 2.039.598 2.519 1.495l5.639 10.644c.42.777-.18 1.734-1.02 1.734H56.331l-.36-13.873z" fill="#fff"/><path d="M68.028 218.958c6.759 0 12.238-5.462 12.238-12.199 0-6.738-5.48-12.199-12.238-12.199-6.759 0-12.238 5.461-12.238 12.199 0 6.737 5.48 12.199 12.238 12.199z" fill="#1C9E9C"/><path d="M68.15 216.269c5.333 0 9.657-4.311 9.657-9.628s-4.324-9.627-9.658-9.627-9.658 4.31-9.658 9.627c0 5.317 4.324 9.628 9.658 9.628zm-54.053 0c4.108 0 7.439-3.32 7.439-7.415 0-4.096-3.33-7.416-7.44-7.416-4.107 0-7.438 3.32-7.438 7.416 0 4.095 3.33 7.415 7.439 7.415z" fill="#55ADBB"/><path d="M68.149 209.927c1.822 0 3.3-1.472 3.3-3.288a3.294 3.294 0 0 0-3.3-3.289 3.294 3.294 0 0 0-3.3 3.289 3.294 3.294 0 0 0 3.3 3.288zm-54.051 1.616c1.491 0 2.7-1.205 2.7-2.691a2.695 2.695 0 0 0-2.7-2.691c-1.49 0-2.7 1.205-2.7 2.691a2.695 2.695 0 0 0 2.7 2.691z" fill="#FFD2D2"/><path d="M13.438 177.518c-.54.598-1.2 3.768 0 4.127 1.2.358 2.22.837 2.46 1.853.24 1.017 1.199 4.605 1.859 5.681.72 1.077 2.52 1.495 3-.179.3-1.077.24-2.332.66-2.99.36-.658-1.02-2.272.18-2.631 1.139-.359 2.519-.957 1.799-1.914-.72-.957-1.68-.538-2.04-1.734-.36-1.136-.6-2.093-.3-2.093s.24 2.332 1.5 2.571c1.32.24 1.92.18 2.52-.956.12-.24-1.62-1.555-1.38-1.794.24-.24.84.538 1.86.657 1.02.06 2.04.479 2.1 1.196.06.718 1.019 2.512 1.499 2.452 1.26-.179-.3-1.794.36-2.332.72-.538 1.02-.897 1.8-.359.84.538.84 1.495.84 2.093-.06.598.48 2.033.96 2.512.48.478 1.319 1.375 2.099 1.016.78-.359-.06-.598-.72-1.016-.66-.419-1.32-2.273-.84-2.512.48-.239 1.38-.359.84-1.136-.54-.777-.48-1.017-.06-1.256.42-.239 1.5-.717 1.38-1.375-.06-.658-.96-1.555-.54-1.914.42-.359 1.08.598 1.56 0s.24-2.212 0-3.289c-.24-1.076-2.4-1.016-2.1-1.794.3-.717.06-1.136-1.02-1.614-1.08-.479-2.28-.538-3.36 0-1.02.538-1.38.119-2.279.359-.9.239-1.02.717-1.44.897-.42.239-1.02.358-1.92.239-.9-.12-1.44-1.256-2.519-.299-1.08.957-.54 2.81-2.4 2.571-1.86-.239-3.419-.179-3.479.718-.06 1.016.48 1.794-.48 2.212-.96.419-1.68 1.196-2.4 2.033z" fill="#FFD3D2"/><path d="M22.196 186.906c.3-.598.9-1.495 1.14-1.136.24.358.72 2.212 0 2.511-.78.299-1.38-.837-1.14-1.375zm12.298 1.315c.6-.598 1.14-.539 1.8-1.316.66-.777.96-1.495 1.56-1.256.6.24 1.26.837 1.92.419.66-.359 1.559.12 1.319 1.614-.24 1.495-.9 2.871-1.5 3.648-.6.778-2.16 1.196-2.46.479-.3-.718-.24-1.436-.6-1.735-.36-.299-1.619.539-2.039.359-.42-.179-.6-1.674 0-2.212zm.36-5.561c.12-.179.66-1.256 1.2-.897.54.359.54 1.794 0 1.974-.54.239-1.56-.539-1.2-1.077zm4.139 1.135c.48-.06 1.8.179 1.98 1.016.18.838-.06.778-.36.539-.3-.18-2.28-1.555-1.62-1.555z" fill="#FFD3D2"/><defs><linearGradient id="a" x1="70.229" y1="151.583" x2="194.248" y2="151.583" gradientUnits="userSpaceOnUse"><stop stop-color="#fff"/><stop offset=".719" stop-color="#fff"/><stop offset="1" stop-color="#fff"/></linearGradient><linearGradient id="b" x1="101.048" y1="77.591" x2="101.048" y2="-.038" gradientUnits="userSpaceOnUse"><stop/><stop offset="1" stop-color="#fff"/></linearGradient><linearGradient id="d" x1="101.048" y1="77.591" x2="101.048" y2="-.038" gradientUnits="userSpaceOnUse"><stop stop-color="#fff"/><stop offset="1" stop-color="#fff"/></linearGradient><clipPath id="e"><path fill="#fff" transform="translate(104 141.074)" d="M0 0h142v82H0z"/></clipPath></defs></svg>