<svg width="240" height="226" viewBox="0 0 240 226" fill="none" xmlns="http://www.w3.org/2000/svg"><path d="M225.174 77.903c0 43.031-34.953 77.903-78.083 77.903-43.13 0-78.083-34.872-78.083-77.903 0-19.005 6.829-36.486 18.24-50.023a77.74 77.74 0 0 1 34.414-23.667C129.659 1.434 138.195 0 147.091 0a79.193 79.193 0 0 1 25.429 4.213 76.142 76.142 0 0 1 23.092 12.64c18.061 14.344 29.562 36.308 29.562 61.05z" fill="#6BC7D6"/><path opacity=".1" d="M239.91 86.42l-4.493-29.404-.898-5.917-1.797-11.833c-.36-2.152-2.336-3.586-4.403-3.227l-63.527 9.592a7.08 7.08 0 0 0 1.348-1.076c1.438-1.345 2.157-2.241 2.516-3.855a5.76 5.76 0 0 0-.899-4.303c-.898-1.344-2.246-2.151-3.773-2.42l-20.307-3.496-34.774 3.227L57.866 78.62l-7.817 19.991s-38.098 82.206-39.267 83.551L0 223.849l57.327 2.152 12.13-20.261c1.258-2.062 2.786-4.123 4.583-5.916 1.797-1.793 3.774-3.407 5.84-4.662l15.904-9.772c2.067-1.255 3.954-2.689 5.841-4.213 1.887-1.614 3.594-3.227 5.211-5.02l22.104-24.743c1.798-2.062 3.864-3.944 6.2-5.737 2.247-1.703 6.2-5.11 8.626-6.365l14.107-6.096c.809-.448 1.618-.807 2.337-1.345.808-.448 1.527-.986 2.246-1.524 7.548-8.068 14.377-11.744 22.014-16.226a3.495 3.495 0 0 0 1.258-1.524c.27-.627.449-1.345.449-1.972v-.986c-.089-2.6-1.168-5.11-3.234-6.903-2.067-1.793-4.763-2.6-7.278-2.331l-10.693 1.166 71.703-10.758c2.157-.27 3.595-2.241 3.235-4.393zm-96.144-37.83c.27 0 .539-.09.809-.09l2.875-.27c-1.887.538-3.145 2.331-2.875 4.304l.988 6.365.09.358-16.263-7.62 13.658-2.868c.269-.09.539-.09.718-.18zm-17.611 68.221c-.809.358-7.278.358-8.267.089-.988-.269-2.605-1.255-2.605-1.255-5.571-4.213-14.916-14.792-13.658-20.26 0 0 .359-2.6.719-3.676l1.347-4.303 4.403-2.6c.629-.358 1.348-.537 2.157-.537.809 0 1.527.179 2.156.537l13.838 7.98 7.997 9.95c.539.717 1.168 1.345 1.887 1.972.719.628 1.437 1.166 2.246 1.614l1.528.896c1.258.717 2.605 1.076 4.133 1.076h.09c-6.56 4.393-12.49 6.903-17.971 8.517zm23.452-12.192c.09-.269.18-.538.18-.807.269-1.435-.18-2.869-.989-4.034l-3.684-4.841-5.481-9.772a14.3 14.3 0 0 0-1.977-2.779c-.719-.896-1.617-1.614-2.426-2.33l-13.478-10.31c.36-.09.719-.09 1.078-.09a8.186 8.186 0 0 1 3.684.628l13.209 5.378c.988.449 1.977.897 2.875 1.524.899.628 1.797 1.345 2.516 2.152l4.133 4.303 2.427 15.957c.269 1.614 1.347 2.779 2.875 3.138a8.132 8.132 0 0 0-1.977.538c-.988.448-1.977.807-2.965 1.345z" fill="#5B6678"/><path d="M113.126 59.347L135.23 76.29c.899.717 1.708 1.434 2.426 2.33.719.897 1.438 1.794 1.977 2.78l5.481 9.771 3.684 4.841c.809 1.076 1.258 2.51.989 4.034a5.72 5.72 0 0 1-2.157 3.497l.449-.359c-1.168.807-2.515 1.345-4.043 1.345-1.527.089-2.965-.359-4.133-1.076l-1.528-.896c-.808-.449-1.527-.987-2.246-1.614-.719-.628-1.348-1.255-1.887-1.972l-7.997-9.951-13.838-7.979c-.629-.358-1.347-.538-2.156-.538-.809 0-1.528.18-2.157.538l-6.02 3.496 1.168-19.453 9.884-5.737z" fill="#FBD6A7"/><path d="M119.506 43.12l28.753 13.716 8.267 30.57-11.232-11.744c-.719-.807-1.618-1.524-2.516-2.152-.899-.627-1.887-1.165-2.875-1.524l-13.209-5.378c-1.168-.449-2.426-.718-3.684-.628-1.348.09-2.516.359-3.684.897l-16.174 7.978.45-24.653 15.904-7.082z" fill="#FFDBAC"/><path d="M10.783 178.398c1.168-1.345 39.266-83.551 39.266-83.551l7.817-19.992 50.947-44.913 34.774-3.227 20.307 3.496c1.437.269 2.875 1.076 3.774 2.42.898 1.345 1.168 2.87.898 4.393l.09-.627c-.36 1.972-.988 2.958-2.606 4.392-1.617 1.435-3.594 2.331-5.571 2.51l-15.994 1.525c-.269 0-.539.09-.809.09-.269 0-.539.089-.808.178l-15.725 3.317c-.718.18-1.527.449-2.246.897-.719.448-1.348.896-1.797 1.524l-11.861 13.716c-.719.807-1.348 1.793-1.977 2.779a19.394 19.394 0 0 0-1.347 3.138l-5.661 17.391c-.36 1.165-.719 3.676-.719 3.676-1.258 5.468 8.087 16.046 13.658 20.26 0 0 1.707.986 2.606 1.255.988.269 7.368.269 8.266-.09 6.829-1.972 14.287-5.379 22.913-11.923a17.712 17.712 0 0 1 3.594-1.434 26.818 26.818 0 0 1 3.864-.807l19.229-2.151c2.515-.27 5.211.448 7.278 2.33 2.066 1.793 3.145 4.393 3.234 6.903v.986c0 .628-.089 1.345-.449 1.972-.359.628-.809 1.166-1.258 1.524-7.727 4.483-14.466 8.158-22.014 16.227-.719.537-1.438.986-2.246 1.524-.809.448-1.528.896-2.337 1.344l-14.107 6.096c-2.426 1.255-6.379 4.662-8.626 6.365-2.246 1.793-4.313 3.676-6.2 5.738l-22.104 24.742c-1.617 1.793-3.324 3.496-5.211 5.02-1.887 1.614-3.864 2.959-5.84 4.214l-15.905 9.771c-2.066 1.255-4.043 2.779-5.84 4.662a29.02 29.02 0 0 0-4.583 5.917l-12.13 20.26L0 219.994l10.783-41.596z" fill="#FFE3B2"/><path opacity=".05" d="M239.91 82.654l-4.493-29.404-.898-5.917-1.797-11.833c-.36-2.151-2.336-3.586-4.403-3.227l-25.249 3.765-22.014 59.436 55.619-8.337c2.157-.449 3.594-2.42 3.235-4.483z" fill="#fff"/><path d="M239.91 82.655c.36 2.151-1.168 4.123-3.235 4.392L156.166 99.15c-2.156.358-4.133-1.166-4.403-3.228l-7.098-47.154c-.36-2.151 1.168-4.124 3.235-4.392l80.509-12.103c2.156-.358 4.133 1.166 4.403 3.227l7.098 47.155z" fill="#FFD234"/><path d="M233.796 41.922l-88.226 13.29 1.717 11.347 88.226-13.29-1.717-11.347z" fill="#45413F"/><path d="M229.878 57.072l-77.209 11.631 1.221 8.067 77.208-11.631-1.22-8.067z" fill="#fff"/><path opacity=".1" d="M239.91 82.654L232.812 35.5c-.36-2.151-2.337-3.586-4.403-3.227l-52.565 7.889 35.852 50.202 24.979-3.227c2.157-.449 3.595-2.42 3.235-4.483z" fill="#fff"/></svg>