<svg width="237" height="267" viewBox="0 0 237 267" fill="none" xmlns="http://www.w3.org/2000/svg"><path d="M113.537 108.592c-1.54-7.088-7.467-12.18-14.413-12.025-1.598-3.727-4.715-6.782-8.352-8.203-7.197-2.805-17.646-1.441-18.493 6.55-3.637 4.88-4.81 12.487-.981 17.252-2.54 6.935 3.136 14.945 11.815 16.079 2.31 5.494 7.582 9.643 13.394 9.874 1.385.058 3.521.038 3.867.192-.423-.154 8.121 8.818 17.877-1.306 9.911-10.355 6.081-25.416-4.714-28.413z" fill="#282828"/><path d="M66.064 113.241S42.356 101.81 42.24 101.349c-.173-.672 8.005-9.624 12.297-10.354 3.29-.557 7.312-3.746 7.312-3.746s-4.368-5.033-8.544-4.207c-4.156.826-3.887 4.226-3.887 4.226s-11.161 6.013-17.646 11.91c-6.158 5.591 26.537 20.979 26.537 20.979l7.755-6.916zM53.575 235.439c1.02 5.475 2.751 10.278 2.982 10.854.116.269 1.194 1.268 1.328 1.537-.577 6.666-4.85 10.643-8.832 13.467.865-3.362 2.79-7.223 2.54-7.973-.405-1.191-1.944-6.627-5.235-13.466 3.33-.365 4.503-2.382 7.217-4.419z" fill="#F9C38A"/><path d="M68.084 156.062l20.764 15.752s-10.276 9.874-14.144 13.544c-3.868 3.669-25.478 17.731-25.805 18.576-.25.615 1.924 8.511 6.889 33.792-2.194 2.247-7.024 4.437-9.891 5.167-7.197-13.716-12.836-41.86-12.836-45.049 0-5.167 35.023-41.782 35.023-41.782z" fill="#06525E"/><path d="M126.353 187.49c-.673.653-5.196 9.432-6.908 14.119-2.521-1.575-4.022-3.457-6.832-4.514 2.213-3.208 6.524-10.892 6.889-12.717.847-4.342 1.829-4.995 1.829-4.995s14.586 4.937 15.567 6.301c.963 1.383-7.832-.865-10.545 1.806z" fill="#F9C38A"/><path d="M119.329 185.319c-1.136 0 .096-5.11.365-6.282.289-1.325 1.059-1.729 1.251-1.767.52-.134 16.742 5.341 19.474 7.319.193.135.52.557.578.653 1.501 2.786-11.873 3.324-13.798 2.114-1.732-1.095-2.79-2.056-7.87-2.037z" fill="#353535"/><path d="M63.64 160.711s19.57-7.704 19.82-6.878c2.02 6.513 9.198 4.419 12.95 15.888 1.56 4.802 1.944 17.5 2.983 26.914.732 6.474 1.751 11.641 1.751 11.641s4.523-5.321 13.067-14.926c.654-.75 7.543 4.437 7.543 4.437-13.586 26.895-23.573 30.91-25.651 29.969-14.048-6.436-25.536-54.597-25.498-54.577-1.597-3.113-6.966-12.468-6.966-12.468z" fill="#0F7483"/><path d="M93.851 115.144s23.361-.038 28.365-.326c4.522-.269 22.495.192 23.188.115.693-.077 4.484-7.031 5.253-6.186.77.845-1.712 2.997-.692 3.784 1.039.788 3.887.634 3.906 1.364 0 .75.731 1.326.443 1.864-.289.557-.462 1.114-.308 2.094.134.845.385 1.921-2.002 1.882-2.386-.038-2.559-.826-6.369.212-1.886.518-16.203 2.267-28.307 3.304-12.412 1.057-22.592 1.402-22.592 1.402l-.885-9.509z" fill="#F9C38A"/><path d="M151.408 113.414c-.443-.019-2.175.846-1.905 1.749.288.902-.097 2.17.365 3.054.462.884 1.732 1.229 3.522.73-.135-2.248-1.982-5.533-1.982-5.533z" fill="#E5AC7A"/><path d="M59.213 135.891c-.308-3.746.423-10.873.596-12.122-1.135-3.9-8.062-4.284-8.928-5.917 0 0 3.06-9.836 7.216-9.797 0 0 9.776 3.707 13.066 5.417.058-.019 1.155.5 1.655.5 3.175-.02 14.279-.365 16.338.249l-1.174 17.117c-.597.98-1.578 21.708-2.79 23.322-1.232 1.613-18.84 7.953-21.803 6.051-.116-.077-3.56-17.251-4.176-24.82z" fill="#FFFBF3"/><path d="M83.383 114.625c2.04-.98 16.991-.941 16.991-.941s2.079 10.297.405 12.775c0 0-13.24 1.959-12.874 3.054l-4.522-14.888z" fill="#FFFBF3"/><path d="M80.938 106.96s-2.405 5.552-2.675 7.896c-.288 2.343-2.982 9.47-7.832 8.433-4.849-1.037 1.136-9.567 2.098-11.718.943-2.133 2.578-9.049 2.578-9.049l5.831 4.438z" fill="#F9C38A"/><path d="M74.242 105.98c.5-1.882.865-3.458.865-3.458l5.831 4.457s-.5 1.134-1.058 2.594c-2.964-.058-4.792-1.576-5.638-3.593z" fill="#E5AC7A"/><path d="M88.636 93.474s1.751 2.343 1.347 5.532c-.404 3.189-4.638 10.009-11.47 9.048-6.83-.96-6.869-7.876-3.617-11.814 3.272-3.919 8.525-8.376 13.74-2.766z" fill="#F9C38A"/><path d="M77.022 92.351c-.736-.246-1.675.574-2.097 1.831-.422 1.257-.169 2.476.567 2.723.735.246 1.674-.574 2.097-1.831.422-1.257.168-2.476-.567-2.723z" fill="#F9C38A"/><path d="M56.596 246.467c.423-1.057 4.637 2.305 5.638 2.977 1.116.769 1.212 1.614 1.174 1.825-.077.519-10.834 13.736-13.971 15.561-.289.173-.924.173-1.097.115-1.751-.672 1.097-11.488 3.387-13.64 1.482-1.402 3.002-2.132 4.869-6.838z" fill="#353535"/><path d="M88.097 92.782s-2.54 8.587-.577 11.219c1.963 2.632-.75 5.725-.75 5.725s6.119-7.262 5.253-10.873c-.866-3.593-3.926-6.07-3.926-6.07z" fill="#282828"/><path d="M88.494 104.592c-.5-.801-1.864-.855-3.046-.12-1.181.735-1.733 1.981-1.233 2.782.5.801 1.863.855 3.045.12 1.181-.735 1.734-1.98 1.234-2.782z" fill="#F9C38A"/><path d="M71.914 83.885l.462 1.248c.27.73.02 1.537-.596 1.998l-1.097.826a1.76 1.76 0 0 1-2.29-.172l-.962-.961 4.483-2.94z" fill="#FFD800"/><path d="M65.756 85.845l-1.828-.5-1.25.673s-8.14 3.63-9.757 3.63c-1.617 0-2.848-2.92-2.463-3.477.385-.557 5.677-1.882 5.677-1.882l3.29-2.959.193-2.151 6.138 6.666z" fill="#353535"/><path d="M66.41 71.898l5.754 10.163a2.06 2.06 0 0 1-.635 2.728l-3.483 2.401a2.072 2.072 0 0 1-2.732-.326l-7.66-8.53 8.756-6.436z" fill="#EFC514"/><path d="M66.776 71.725l-9.121 6.878a1.729 1.729 0 0 1-2.251-.135L38.662 62.543l18.223-13.179 10.392 20.19c.404.73.192 1.653-.5 2.171z" fill="#EFC514"/><path d="M56.867 49.318c-1.251-1.832-6.459-.465-11.632 3.053-5.173 3.52-8.352 7.857-7.102 9.69 1.251 1.832 6.459.465 11.632-3.054 5.173-3.518 8.352-7.857 7.102-9.69z" fill="#353535"/><path d="M39.624 61.313c1.462.346 5.215-.788 9.275-3.554 5.1-3.458 7.005-6.897 6.697-7.607 0 0-.077-.058-.25-.096-1.463-.346-5.215.787-9.276 3.553-5.1 3.458-7.004 6.897-6.696 7.608.019 0 .077.058.25.096z" fill="#EFBE5E"/><path d="M51.804 83.656l2.155.807s1.405.615 1.732 1.844c.327 1.23 1.867.941 1.443-.346-.423-1.287-.866-2.055-.866-2.055s1.752 2.4 1.944 2.42c1.02.115 1.174-1.402-.558-3.093-1.751-1.71-5.85.423-5.85.423z" fill="#F9C38A"/><path d="M59.078 84.58s3.695 1.517 2.964 2.439c-.731.922-2.964 1.94-3.021 1.44-.058-.499 1.443-1.171.462-2.19-.27-.288-1.636-1.69-.404-1.69z" fill="#F9C38A"/><path d="M154.102 121.712l-.655-1.767a.184.184 0 0 1 .077-.192l-.038-.135a1.118 1.118 0 0 0-1.212-.71c-.905.134-2.598.403-3.522-2.056-.52-1.383.346-2.536 1.405-2.939a2.244 2.244 0 0 1 1.501-.038c.519.192.923.614 1.135 1.191.116.307-.365.48-.481.172-.154-.441-.443-.749-.827-.883-.347-.135-.751-.115-1.136.038-.846.308-1.501 1.191-1.097 2.267.77 2.056 2.021 1.863 2.945 1.729a1.659 1.659 0 0 1 1.789 1.037l.039.135c.077-.019.154.019.192.096l.654 1.786c9.026-3.323 18.224-6.032 21.938-6.032.231 0 .404.192.385.423-.02.211-.173.365-.385.365-7.216-.038-37.948 11.373-42.74 15.849a.385.385 0 0 1-.519 0 .386.386 0 0 1 0-.577c2.54-2.363 11.373-6.358 20.552-9.759z" fill="#2C2C39"/><path d="M152.177 118.389a1.657 1.657 0 0 1 1.79 1.037l.039.115-.482.173-.038-.115a1.117 1.117 0 0 0-1.212-.711c-.905.135-2.598.404-3.522-2.055-.52-1.384.346-2.536 1.405-2.94a2.244 2.244 0 0 1 1.501-.038c.519.192.924.615 1.135 1.191.116.307-.365.48-.481.173-.154-.442-.442-.749-.827-.884-.347-.134-.751-.115-1.136.039-.846.307-1.501 1.191-1.097 2.267.751 2.074 2.021 1.882 2.925 1.748z" fill="#E6E6E6"/><path d="M162.126 118.811c3.079 13.275-10.507 18.231-16.78 6.186-.578-.595-5.061 1.422-5.696 2.401 4.522 8.972 5.503 16.81 1.674 19.653 9.737 18.961 13.258 39.343 13.874 52.848.905 19.749.501 30.756 1.751 33.369 5.485 1.153 11.527 2.766 27.807.173 12.604-2.017 21.379-12.891 27.383-17.347 7.678-5.706 17.781-8.222 24.093-6.417-3.695-16.694-22.515-34.406-38.16-46.604-17.742-13.832-18.204-31.775-18.204-31.775-8.544.327-11.142-11.43-12.681-14.1-.25-.423-5.177 1.114-5.061 1.613z" fill="#3CB4B7"/><path d="M154.063 136.196c-6.812-1.537-8.717-11.2-8.717-11.2 6.273 12.045 19.859 7.089 16.78-6.185 2.771 9.528-1.251 18.922-8.063 17.385z" fill="#AFCAE6"/><path d="M232.288 199.456c-7.486-10.086-19.263-20.613-33.58-28.701-14.798-8.356-20.456-17.116-18.801-39.458 0 0 .443 17.943 18.204 31.774 12.451 9.721 26.941 22.957 34.177 36.385zm-30.598 25.07c6.466-7.549 12.181-14.83 26.845-15.214-5.35.691-11.373 3.054-16.376 6.781-3.233 2.401-7.274 6.647-12.258 10.393.577-.615 1.193-1.249 1.789-1.96zm-26.324 5.494c6.523 1.729 11.642 2.555 16.203 1.383-2.136.922-4.407 1.633-6.813 2.017-16.203 2.594-22.283.999-27.749-.154h-.038c4.214-2.382 11.142-5.167 18.397-3.246z" fill="#1C93A4"/><path d="M152.293 113.318c-.904-.115-2.848.999-2.271 1.69.481.557-.096 1.326.096 2.382.251 1.403 1.848 1.691 2.637 1.653 1.308-.058 1.366.096 1.251-.826-.212-1.537.461-2.882-.058-3.708-.539-.807-.404-1.057-1.655-1.191z" fill="#F9C38A"/><path d="M206.308 259.067v-33.079a7.933 7.933 0 0 0-7.843-7.932c-13.04-.142-39.943-.15-61.962 1.703a5.969 5.969 0 0 0-5.452 5.728l-2.046 31.982c-.15 4.227 3.189 7.768 7.424 7.842l62.305 1.188c4.16.082 7.574-3.272 7.574-7.432z" fill="#FCCAA7"/><path d="M198.749 229.565c.053 2.816-.03 7.282-.097 10.165a2.55 2.55 0 0 1-2.845 2.472l-10.733-1.255a2.555 2.555 0 0 1-2.226-2.913l1.315-8.79a2.554 2.554 0 0 1 2.524-2.174h9.515a2.54 2.54 0 0 1 2.547 2.495z" fill="#fff"/><path opacity=".37" d="M170.696 246.221l-8.955.963a2.022 2.022 0 0 1-2.234-2.158l1.957-26.634c3.757-.12 7.454-.209 11.032-.269v26.096a1.998 1.998 0 0 1-1.8 2.002z" fill="#fff"/><path d="M167.029 241.605a.906.906 0 0 1-.897.852h-.052a.9.9 0 0 1-.844-.949l1.352-23.25 1.807-.045-1.366 23.392z" fill="#fff"/><path d="M193.789 237.954a.296.296 0 0 0 .299-.284l.463-7.319a.305.305 0 0 0-.284-.321c-.171-.015-.306.112-.321.283l-.463 7.32a.307.307 0 0 0 .284.321h.022z" fill="url(#a)"/><path d="M192.833 237.954a.298.298 0 0 0 .299-.291l.247-7.461a.306.306 0 0 0-.292-.314c-.194-.007-.306.127-.313.291l-.247 7.461a.306.306 0 0 0 .291.314h.015z" fill="url(#b)"/><path d="M191.534 237.954a.3.3 0 0 1-.284-.314c.12-2.509.344-7.289.351-7.454a.3.3 0 0 1 .598 0c0 .127-.292 6.252-.351 7.477a.297.297 0 0 1-.299.284c-.008.007-.008.007-.015.007z" fill="url(#c)"/><path d="M189.547 238.26c.321 0 .59-.254.598-.582.254-7.23.209-7.394.179-7.499a.598.598 0 0 0-.739-.418.609.609 0 0 0-.441.657c.022.433-.112 4.638-.202 7.222a.595.595 0 0 0 .575.62h.03z" fill="url(#d)"/><path d="M188.247 237.954a.3.3 0 0 0 .299-.299v-7.319a.3.3 0 0 0-.299-.299.3.3 0 0 0-.298.299v7.319c0 .165.134.299.298.299z" fill="url(#e)"/><path d="M187.194 237.955a.293.293 0 0 0 .299-.292c.06-2.546.194-6.699.314-7.199a.315.315 0 0 0-.008-.314.302.302 0 0 0-.418-.09c-.164.105-.321.209-.485 7.581a.294.294 0 0 0 .298.314z" fill="url(#f)"/><path d="M195.403 238.627a.598.598 0 0 0 .597-.568l.404-7.685a.6.6 0 0 0-.568-.628.604.604 0 0 0-.627.568l-.404 7.685a.6.6 0 0 0 .568.628h.03z" fill="url(#g)"/><g clip-path="url(#h)" fill="#274246"><path d="M20.79 9.993c-.022-.026-.06-.125-.14-.276-.08-.15-.139-.275-.182-.327-.042-.05-.08-.15-.182-.326a1.705 1.705 0 0 1-.155-.35c-.016-.073-.054-.172-.107-.345-.032-.147-.065-.294-.08-.368.01-.096 0-.217-.012-.339.016-.144.027-.24.064-.358.06-.093.097-.21.182-.326.085-.115.17-.23.278-.319.508-.424 1.08-.553 1.695-.414.615.14 1.278.5 1.792 1.115.77.923.884 1.874.334 2.898l-.883-.35c.395-.722.32-1.356-.172-1.946-.364-.435-.744-.728-1.124-.802-.38-.075-.626-.044-.92.202-.053.044-.133.111-.139.16a.746.746 0 0 0-.069.188c-.032.07-.016.144 0 .217l.048.221c.038.1.054.173.097.224.016.074.08.15.118.25.037.1.101.176.117.25.016.073.08.15.166.253.086.102.102.176.145.227.16.301.3.577.418.827.117.25.209.521.246.838.038.317.054.608-.026.892-.08.285-.25.515-.518.738-.508.424-1.08.553-1.738.362-.658-.19-1.268-.595-1.803-1.236-.385-.462-.642-.987-.728-1.524a2.286 2.286 0 0 1 .266-1.528l.883.35a1.795 1.795 0 0 0-.214 1.05c.033.364.21.739.488 1.072.385.462.765.754 1.188.88.422.126.764.101 1.032-.122.08-.067.16-.134.192-.204.032-.07.07-.189.053-.262a1.512 1.512 0 0 0-.155-.566c-.059-.126-.097-.225-.14-.276-.015-.074-.101-.176-.181-.327-.049-.22-.113-.298-.134-.323zm1.383 4.807c.133-.981.56-1.773 1.308-2.398.748-.624 1.604-.903 2.593-.859.99.045 1.68.382 2.215 1.024.535.64.74 1.428.606 2.41-.133.98-.56 1.773-1.308 2.397-.749.625-1.604.904-2.572.885-.968-.018-1.728-.385-2.242-1-.53-.69-.733-1.477-.6-2.459zm3.779-2.371c-.7-.025-1.337.245-1.898.714-.561.468-.92 1.072-1.042 1.74-.122.668.028 1.282.413 1.744.386.462.942.693 1.643.718.7.024 1.336-.246 1.898-.714.56-.469.919-1.072 1.041-1.74.123-.668-.027-1.283-.413-1.744-.385-.462-.941-.694-1.642-.718zm6.461 8.227c.395-.721.32-1.355-.173-1.945-.364-.436-.83-.613-1.444-.535-.594.104-1.182.378-1.796.89l-2.593 2.165-.6-.719 5.185-4.328.6.719-.401.334c.743.076 1.316.381 1.765.92.771.923.884 1.873.334 2.898l-.877-.399zm-1.677 4.402c.133-.981.56-1.773 1.309-2.398.748-.625 1.604-.904 2.593-.859.99.044 1.701.408 2.215 1.023.514.616.739 1.429.606 2.41-.133.982-.56 1.773-1.309 2.398-.748.625-1.603.904-2.572.885-.989-.044-1.727-.386-2.241-1.001-.509-.663-.734-1.476-.6-2.458zm3.801-2.346c-.7-.024-1.337.246-1.898.714-.561.469-.919 1.072-1.042 1.74-.1.694.028 1.283.413 1.744.386.462.942.694 1.643.718.7.025 1.337-.245 1.898-.714.561-.468.919-1.072 1.041-1.74.102-.694-.027-1.282-.413-1.744-.385-.462-.963-.72-1.642-.718zm-3.543 10.966l8.658-7.228.6.718-2.111 1.763 3.706.257.878 1.051-3.61-.25-1.495 4.729-.727-.872 1.232-3.901-1.059-.074-5.478 4.573-.621-.743.027-.023zm8.349 1.69c.133-.98.56-1.773 1.309-2.397.748-.625 1.603-.904 2.593-.86.99.045 1.727.386 2.241 1.001.557.667.734 1.477.6 2.458l.642-.535.6.718-5.185 4.328-.6-.718.669-.558c-.968-.019-1.755-.363-2.29-1.004-.508-.664-.712-1.451-.58-2.433zm3.78-2.371c-.701-.025-1.337.245-1.899.714-.56.468-.919 1.072-1.041 1.74-.102.694.027 1.282.413 1.744.385.462.941.694 1.642.718.7.024 1.337-.246 1.898-.714.561-.469.92-1.072 1.042-1.74.1-.694-.028-1.283-.413-1.744-.386-.462-.942-.694-1.643-.718zM5.54 13.671l3.493-6.354.664.795-2.874 5.141 5.593-1.883.663.795-6.876 2.302-.663-.796zm3.965 3.392c.133-.982.56-1.773 1.308-2.398.749-.625 1.604-.904 2.594-.86.989.045 1.727.386 2.241 1.002.535.64.74 1.428.606 2.41-.133.981-.56 1.773-1.309 2.398-.748.624-1.603.903-2.571.885-.968-.02-1.728-.386-2.242-1.002-.514-.615-.76-1.454-.627-2.435zm3.806-2.394c-.7-.024-1.337.245-1.898.714-.561.469-.92 1.072-1.042 1.74-.1.694.028 1.282.413 1.744.386.462.942.694 1.643.718.7.024 1.336-.246 1.898-.714.56-.469.919-1.072 1.041-1.74.101-.694-.027-1.283-.413-1.744-.412-.44-.941-.694-1.642-.718zm6.455 8.276c.396-.721.32-1.355-.172-1.945-.364-.436-.83-.613-1.444-.535-.594.104-1.182.378-1.797.89l-2.592 2.165-.6-.718 5.185-4.328.6.718-.401.334c.722.05 1.294.356 1.722.869.771.923.884 1.873.334 2.898l-.835-.348zm-1.697 4.377c.133-.982.56-1.774 1.308-2.398.748-.625 1.604-.904 2.593-.86.99.045 1.728.386 2.242 1.002.535.64.739 1.428.606 2.41-.133.98-.56 1.773-1.309 2.397-.748.625-1.604.904-2.572.885-.989-.044-1.727-.385-2.241-1-.514-.616-.76-1.455-.628-2.436zm3.827-2.369c-.7-.024-1.337.246-1.898.714-.561.469-.92 1.072-1.042 1.74-.1.694.028 1.283.413 1.744.386.462.942.694 1.643.718.7.025 1.337-.245 1.898-.714.56-.468.919-1.072 1.041-1.74.101-.693-.027-1.282-.413-1.744-.433-.465-.941-.693-1.642-.718zm.985 9.492l3.494-6.354.663.795-2.873 5.14 5.592-1.883.664.795-6.876 2.302-.664-.795zm6.639 1.595l3.706.257.877 1.052-3.61-.25L29 41.826l-.728-.872 1.233-3.901-1.059-.074 1.096-.914-.022-.026zm1.18 6.413c.133-.982.56-1.774 1.309-2.398.748-.625 1.603-.904 2.593-.86.99.045 1.728.386 2.241 1.001.557.667.734 1.477.601 2.458l.695-.58.6.718-5.185 4.328-.6-.718.668-.558c-.968-.018-1.754-.363-2.29-1.004-.54-.593-.765-1.406-.632-2.388zm3.828-2.369c-.701-.024-1.337.246-1.898.714-.562.469-.92 1.072-1.042 1.74-.101.694.028 1.283.413 1.744.385.462.942.694 1.642.718.7.025 1.337-.245 1.898-.714.562-.468.92-1.072 1.042-1.74.101-.693-.028-1.282-.413-1.744-.434-.465-.942-.693-1.642-.718z"/></g><defs><linearGradient id="a" x1="190.389" y1="228.721" x2="209.605" y2="256.644" gradientUnits="userSpaceOnUse"><stop stop-color="#09005D"/><stop offset="1" stop-color="#1A0F91"/></linearGradient><linearGradient id="b" x1="189.698" y1="229.197" x2="208.913" y2="257.12" gradientUnits="userSpaceOnUse"><stop stop-color="#09005D"/><stop offset="1" stop-color="#1A0F91"/></linearGradient><linearGradient id="c" x1="188.864" y1="229.77" x2="208.08" y2="257.694" gradientUnits="userSpaceOnUse"><stop stop-color="#09005D"/><stop offset="1" stop-color="#1A0F91"/></linearGradient><linearGradient id="d" x1="187.422" y1="230.763" x2="206.638" y2="258.686" gradientUnits="userSpaceOnUse"><stop stop-color="#09005D"/><stop offset="1" stop-color="#1A0F91"/></linearGradient><linearGradient id="e" x1="186.471" y1="231.417" x2="205.688" y2="259.339" gradientUnits="userSpaceOnUse"><stop stop-color="#09005D"/><stop offset="1" stop-color="#1A0F91"/></linearGradient><linearGradient id="f" x1="185.881" y1="231.824" x2="205.096" y2="259.747" gradientUnits="userSpaceOnUse"><stop stop-color="#09005D"/><stop offset="1" stop-color="#1A0F91"/></linearGradient><linearGradient id="g" x1="191.378" y1="228.041" x2="210.593" y2="255.964" gradientUnits="userSpaceOnUse"><stop stop-color="#09005D"/><stop offset="1" stop-color="#1A0F91"/></linearGradient><clipPath id="h"><path fill="#fff" transform="rotate(50.145 8.9 19.022)" d="M0 0h46.37v23.185H0z"/></clipPath></defs></svg>