<svg width="1919" height="683" viewBox="0 0 1919 683" fill="none" xmlns="http://www.w3.org/2000/svg"><path d="M2 0h1920v683H2V0z" fill="url(#a)" fill-opacity=".8"/><mask id="b" style="mask-type:alpha" maskUnits="userSpaceOnUse" x="0" y="0" width="1920" height="683"><path fill="#fff" d="M0 0h1920v683H0z"/></mask><g mask="url(#b)"><path d="M-218.523 183.749h336.268s672.534 398.399-336.267 488.544l-.001-488.544z" fill="#FF1212" fill-opacity=".04" filter="url(#c)"/><path d="M1919.73 157.01v435.182s-631.81-319.214-363.04-390.921c254.29-67.846 363.04-44.261 363.04-44.261z" fill="#0FF" fill-opacity=".12" filter="url(#d)"/><path d="M507.374 269.501l-1519.774 34.32S-1.246 235.745 6.509-225.861l500.865 495.362z" fill="url(#e)" fill-opacity=".25" filter="url(#f)"/><path d="M-79.906 385.511V115.025s342.248 198.406 196.658 242.976c-137.75 42.169-196.657 27.51-196.657 27.51z" fill="#085ED0" fill-opacity=".15" filter="url(#g)"/></g><defs><filter id="c" x="-388.522" y="13.75" width="895.87" height="828.543" filterUnits="userSpaceOnUse" color-interpolation-filters="sRGB"><feFlood flood-opacity="0" result="BackgroundImageFix"/><feBlend in="SourceGraphic" in2="BackgroundImageFix" result="shape"/><feGaussianBlur stdDeviation="85" result="effect1_foregroundBlur_1861_23556"/></filter><filter id="d" x="1320.11" y="-16.957" width="769.616" height="779.148" filterUnits="userSpaceOnUse" color-interpolation-filters="sRGB"><feFlood flood-opacity="0" result="BackgroundImageFix"/><feBlend in="SourceGraphic" in2="BackgroundImageFix" result="shape"/><feGaussianBlur stdDeviation="85" result="effect1_foregroundBlur_1861_23556"/></filter><filter id="f" x="-1182.4" y="-395.861" width="1859.78" height="869.684" filterUnits="userSpaceOnUse" color-interpolation-filters="sRGB"><feFlood flood-opacity="0" result="BackgroundImageFix"/><feBlend in="SourceGraphic" in2="BackgroundImageFix" result="shape"/><feGaussianBlur stdDeviation="85" result="effect1_foregroundBlur_1861_23556"/></filter><filter id="g" x="-249.906" y="-54.975" width="572.721" height="612.951" filterUnits="userSpaceOnUse" color-interpolation-filters="sRGB"><feFlood flood-opacity="0" result="BackgroundImageFix"/><feBlend in="SourceGraphic" in2="BackgroundImageFix" result="shape"/><feGaussianBlur stdDeviation="85" result="effect1_foregroundBlur_1861_23556"/></filter><linearGradient id="a" x1="962" y1="-220.428" x2="965.79" y2="470.144" gradientUnits="userSpaceOnUse"><stop stop-color="#EFF6FF" stop-opacity=".49"/><stop offset=".528" stop-color="#EFF6FF" stop-opacity=".6"/><stop offset="1" stop-color="#EFF6FF" stop-opacity=".79"/></linearGradient><linearGradient id="e" x1="493.98" y1="258.288" x2="-168.997" y2="-306.105" gradientUnits="userSpaceOnUse"><stop stop-color="#085ED0" stop-opacity=".81"/><stop offset="1" stop-color="#085ED0" stop-opacity=".2"/></linearGradient></defs></svg>