<svg width="72" height="72" viewBox="0 0 72 72" fill="none" xmlns="http://www.w3.org/2000/svg"><g filter="url(#a)"><circle cx="36" cy="36" r="34.5" fill="url(#b)" stroke="#EFF6FF" stroke-width="3"/><path d="M32.254 34.26l3.468-2.223a1.13 1.13 0 0 0 0-1.903l-3.468-2.223a1.13 1.13 0 0 0-1.74.952v4.446a1.13 1.13 0 0 0 1.74.952zm17.321 9.3a1.889 1.889 0 0 0-1.582-2.912h-1.544a.664.664 0 0 0-.664.664v5.313a.664.664 0 0 0 .665.664h.002s1.42-.006 1.81-.006c1.155 0 2.094-.94 2.094-2.094a2.09 2.09 0 0 0-.78-1.63zm-1.582-1.583a.559.559 0 0 1 0 1.116l-.88.002v-1.118h.88zm.27 3.978l-1.15.003v-1.534l1.15-.001a.767.767 0 0 1 0 1.532zm-11.725-2.567a27.98 27.98 0 0 1-1.446-.585.368.368 0 0 1-.13-.346c.013-.093.081-.322.422-.425.749-.226 1.443.323 1.462.338a.664.664 0 0 0 .851-1.02c-.05-.042-1.245-1.027-2.696-.59-.733.221-1.252.799-1.354 1.509a1.688 1.688 0 0 0 .753 1.671c.03.02.06.036.092.05.03.014.762.34 1.586.644.233.086.767.328.697.723-.053.297-.415.604-.928.604-.528 0-1.036-.213-1.36-.57a.664.664 0 1 0-.983.892c.57.63 1.446 1.006 2.343 1.006 1.12 0 2.06-.714 2.235-1.699.133-.74-.204-1.708-1.544-2.202zm7.255-2.74a.664.664 0 0 0-.664.664v3.652c0 .255-.072.583-.636.867-.174.087-.362.13-.576.13h-.002c-.234 0-.438-.058-.623-.176-.437-.28-.526-.528-.526-.817v-3.656a.664.664 0 0 0-1.328 0v3.656c0 .802.383 1.453 1.14 1.936.398.255.847.384 1.335.385h.004c.42 0 .815-.091 1.173-.272 1.13-.568 1.367-1.43 1.367-2.053v-3.651a.664.664 0 0 0-.664-.665z" fill="#085ED0"/><path d="M50.351 37.594h-3.46v-12.26a3.682 3.682 0 0 0-3.678-3.678H22.677A3.682 3.682 0 0 0 19 25.334v11.504a3.681 3.681 0 0 0 3.677 3.678h8.01v7.18a2.652 2.652 0 0 0 2.65 2.648H50.35A2.652 2.652 0 0 0 53 47.695v-7.453a2.652 2.652 0 0 0-2.649-2.648zm-30.023-.756V25.334a2.352 2.352 0 0 1 2.35-2.35h20.535a2.352 2.352 0 0 1 2.35 2.35v12.26h-6.726l-2.039-2.04a.664.664 0 0 0-1.134.47v1.57h-2.328c-1.085 0-2.02.657-2.429 1.593h-8.23a2.352 2.352 0 0 1-2.349-2.349zm31.344 10.857c0 .728-.592 1.32-1.32 1.32H33.335c-.728 0-1.32-.592-1.32-1.32v-7.453c0-.728.592-1.32 1.32-1.32h2.992a.664.664 0 0 0 .664-.664v-.63l1.1 1.1a.664.664 0 0 0 .47.194h11.79c.728 0 1.32.592 1.32 1.32v7.453z" fill="#085ED0"/></g><defs><filter id="a" x="-19" y="-19" width="110" height="110" filterUnits="userSpaceOnUse" color-interpolation-filters="sRGB"><feFlood flood-opacity="0" result="BackgroundImageFix"/><feGaussianBlur in="BackgroundImageFix" stdDeviation="9.5"/><feComposite in2="SourceAlpha" operator="in" result="effect1_backgroundBlur_1861_23387"/><feBlend in="SourceGraphic" in2="effect1_backgroundBlur_1861_23387" result="shape"/></filter><linearGradient id="b" x1="36" x2="36" y2="72" gradientUnits="userSpaceOnUse"><stop stop-color="#EFF6FF" stop-opacity=".5"/><stop offset=".516" stop-color="#EEF3FF" stop-opacity=".46"/><stop offset="1" stop-color="#EFF6FF" stop-opacity=".4"/></linearGradient></defs></svg>