<svg width="27" height="17" viewBox="0 0 27 17" fill="none" xmlns="http://www.w3.org/2000/svg"><path d="M16.398 8.201A8.2 8.2 0 1 1 0 8.201a8.2 8.2 0 1 1 16.398 0z" fill="#E2574C"/><path d="M18.046 0a8.154 8.154 0 0 0-4.9 1.635l.007.001c.27.26.566.443.795.742l-1.706.027a8.42 8.42 0 0 0-.74.87h3.008c.228.274.44.513.632.816h-4.186a8.173 8.173 0 0 0-.42.818h5.082c.133.28.252.493.353.791h-5.735a7.883 7.883 0 0 0-.228.868h6.204c.06.284.107.546.139.813H9.885c-.027.27-.041.544-.041.82h6.554c0 .29-.02.56-.05.82H9.885c.028.279.069.552.123.82h6.194a9.676 9.676 0 0 1-.23.811h-5.755c.087.28.193.553.308.819h5.093c-.14.298-.3.537-.477.816h-4.2c.166.288.349.561.547.824l3.022.045c-.258.31-.588.495-.89.766.017.013-.48-.002-1.461-.017a8.172 8.172 0 0 0 5.887 2.498 8.201 8.201 0 0 0 8.201-8.201A8.2 8.2 0 0 0 18.047 0z" fill="#F4B459"/></svg>