<svg width="119" height="119" viewBox="0 0 119 119" fill="none" xmlns="http://www.w3.org/2000/svg"><rect x="-2" y="2" width="115" height="115" rx="14" transform="matrix(-1 0 0 1 115 0)" fill="#EFF1F2" stroke="#fff" stroke-width="4"/><path d="M59.5 39C47.645 39 38 48.645 38 60.5 38 72.356 47.645 82 59.5 82 71.356 82 81 72.356 81 60.5 81 48.645 71.356 39 59.5 39zm1.792 21.5c0 .99-.801 1.792-1.792 1.792h-7.167a1.79 1.79 0 0 1-1.791-1.792c0-.99.8-1.792 1.791-1.792h5.375v-10.75c0-.99.801-1.791 1.792-1.791.99 0 1.792.8 1.792 1.791V60.5z" fill="url(#a)"/><defs><radialGradient id="a" cx="0" cy="0" r="1" gradientUnits="userSpaceOnUse" gradientTransform="rotate(-72.271 77.59 11.64) scale(59.8421 108.586)"><stop stop-color="#EC823E"/><stop offset="1" stop-color="#EC6749"/></radialGradient></defs></svg>