<svg width="146" height="41" viewBox="0 0 146 41" fill="none" xmlns="http://www.w3.org/2000/svg"><path d="M4.546 11.972h2.23V32.51H4.293V14.512c-.944.604-2.098 1.121-3.463 1.551v-2.292c.15-.065.454-.193.912-.385.457-.192.799-.338 1.023-.44.234-.1.523-.242.87-.425.345-.183.649-.366.91-.549zM21.06 32.03c-.925.53-2.009.796-3.252.796-1.243 0-2.332-.265-3.266-.796a6.172 6.172 0 0 1-2.257-2.265c-.561-.97-.982-2.087-1.262-3.35-.271-1.263-.406-2.668-.406-4.215 0-1.272.088-2.448.266-3.528.187-1.08.472-2.06.855-2.938.383-.879.855-1.625 1.416-2.238a5.813 5.813 0 0 1 2.033-1.414c.785-.339 1.659-.508 2.621-.508 1.196 0 2.253.256 3.168.769.926.512 1.673 1.245 2.243 2.196.58.943 1.014 2.06 1.304 3.35.29 1.282.435 2.719.435 4.311 0 1.547-.136 2.952-.407 4.215-.27 1.263-.687 2.38-1.247 3.35a6.066 6.066 0 0 1-2.243 2.265zm-.799-17.257c-.682-.742-1.5-1.112-2.453-1.112-.953 0-1.77.37-2.453 1.112-.682.732-1.196 1.73-1.542 2.993-.337 1.254-.505 2.704-.505 4.352 0 1.675.168 3.157.505 4.448.346 1.281.86 2.297 1.542 3.048.682.75 1.5 1.125 2.453 1.125.953 0 1.771-.375 2.453-1.125.683-.75 1.192-1.767 1.529-3.048.345-1.29.518-2.773.518-4.448 0-1.648-.173-3.098-.518-4.352-.337-1.263-.846-2.261-1.529-2.993zm26.299 7.386c1.58 0 2.8.49 3.66 1.469.86.97 1.29 2.242 1.29 3.816 0 1.538-.44 2.801-1.318 3.79-.87.988-2.08 1.482-3.631 1.482-1.57 0-2.785-.49-3.645-1.469-.86-.988-1.29-2.256-1.29-3.803 0-1.546.435-2.814 1.304-3.802.87-.989 2.08-1.483 3.63-1.483zm2.328 2.636c-.551-.714-1.327-1.071-2.327-1.071s-1.78.361-2.341 1.084c-.552.724-.828 1.602-.828 2.636 0 1.053.276 1.936.828 2.65.56.714 1.34 1.07 2.34 1.07 1 0 1.776-.36 2.328-1.084.56-.723.841-1.601.841-2.636 0-1.052-.28-1.935-.841-2.65zm-16.767 7.77L43.266 12.44h2.271L34.014 32.565H32.12zm.267-20.497c1.355 0 2.439.499 3.252 1.497.822.988 1.234 2.251 1.234 3.789 0 1.5-.412 2.736-1.234 3.707-.822.97-1.907 1.455-3.252 1.455-1.355 0-2.435-.48-3.239-1.442-.803-.97-1.205-2.21-1.205-3.72 0-1.529.402-2.792 1.205-3.79.813-.997 1.893-1.496 3.239-1.496zm0 1.524c-.841 0-1.496.366-1.963 1.098-.467.733-.7 1.62-.7 2.664 0 1.052.228 1.913.686 2.58.467.66 1.126.99 1.977.99.85 0 1.51-.34 1.976-1.017.468-.686.701-1.537.701-2.553 0-1.053-.238-1.94-.715-2.664-.476-.732-1.13-1.098-1.962-1.098z" fill="#2F2F2F"/><path fill-rule="evenodd" clip-rule="evenodd" d="M77.714 9.212v22.706h15.367l-6.78-22.706h-8.587zM73.192.13c-2.492 0-4.517 2.035-4.517 4.541V36.46c0 2.509 2.025 4.54 4.517 4.54h63.276c2.497 0 4.522-2.031 4.522-4.54v-6.812h4.519V11.483h-4.519V4.671c0-2.506-2.025-4.54-4.522-4.54H73.192zm2.262 4.541h58.758a2.262 2.262 0 0 1 2.256 2.271v27.246c0 1.256-1.01 2.27-2.256 2.27H75.454a2.266 2.266 0 0 1-2.262-2.27V6.942a2.267 2.267 0 0 1 2.262-2.27z" fill="#F46B6B"/></svg>