<svg width="80" height="20" viewBox="0 0 80 20" fill="none" xmlns="http://www.w3.org/2000/svg"><path d="M46.701 6.823c0-.458.08-.863.239-1.215a2.55 2.55 0 0 1 .629-.872c.26-.23.551-.402.875-.52a2.87 2.87 0 0 1 .979-.175c.328 0 .654.059.978.176.323.117.615.29.875.52.26.228.47.518.63.87.158.352.238.758.238 1.216V7.4H50.52v-.577c0-.394-.11-.684-.327-.871a1.147 1.147 0 0 0-.771-.28c-.298 0-.555.093-.772.28-.218.186-.326.477-.326.871v6.012c0 .394.108.685.326.871.217.187.474.28.772.28.296 0 .554-.093.771-.28.218-.186.326-.476.326-.871v-2.142h-1.288v-1.44h2.912v3.582c0 .469-.08.877-.239 1.223a2.542 2.542 0 0 1-.629.863 2.73 2.73 0 0 1-.875.52 2.87 2.87 0 0 1-.978.175c-.33 0-.656-.06-.979-.176a2.693 2.693 0 0 1-.875-.52 2.564 2.564 0 0 1-.63-.862c-.158-.346-.238-.754-.238-1.223V6.823zm6.874-2.685h2.61c1.909 0 2.864 1.113 2.864 3.341 0 .66-.103 1.228-.31 1.703-.207.474-.57.856-1.09 1.143l1.75 5.196H57.68l-1.511-4.86h-.971v4.86h-1.624V4.138h.001zM55.2 9.223h.923c.287 0 .515-.04.684-.12.17-.08.3-.194.39-.344.09-.149.152-.333.184-.552.032-.218.048-.47.048-.759 0-.288-.016-.54-.048-.76a1.367 1.367 0 0 0-.2-.558.903.903 0 0 0-.422-.344c-.18-.074-.419-.111-.716-.111H55.2v3.548zm5.06-2.4c0-.458.08-.863.239-1.215.158-.351.368-.642.628-.872.26-.23.552-.402.876-.52a2.87 2.87 0 0 1 .978-.175c.328 0 .655.059.979.176.323.117.615.29.875.52.26.228.469.518.629.87.159.352.239.758.239 1.216v6.012c0 .469-.08.877-.24 1.223a2.542 2.542 0 0 1-.628.863 2.73 2.73 0 0 1-.875.52c-.324.116-.65.175-.979.175a2.86 2.86 0 0 1-.978-.176 2.693 2.693 0 0 1-.876-.52 2.561 2.561 0 0 1-.629-.862c-.158-.346-.238-.754-.238-1.223V6.823zm1.622 6.012c0 .394.109.685.326.871.218.187.475.28.772.28.298 0 .554-.093.772-.28.217-.186.326-.476.326-.871V6.823c0-.394-.109-.684-.326-.871a1.147 1.147 0 0 0-.772-.28c-.297 0-.554.093-.772.28-.217.186-.326.477-.326.871v6.012zm10.502.128c0 .374-.07.72-.207 1.04a2.673 2.673 0 0 1-1.4 1.406 2.53 2.53 0 0 1-1.019.208c-.361 0-.7-.07-1.018-.208a2.657 2.657 0 0 1-1.607-2.446V4.14h1.622v8.665c0 .405.096.703.287.895a.97.97 0 0 0 .716.288.97.97 0 0 0 .717-.288c.19-.192.286-.49.286-.895V4.138h1.624v8.825h-.001zm1.528-8.825h2.435c.445 0 .838.059 1.178.175.339.118.647.326.923.624s.467.648.572 1.047c.106.4.159.94.159 1.622 0 .502-.029.93-.087 1.288-.059.357-.184.69-.375.999a2.38 2.38 0 0 1-.89.872c-.373.207-.86.311-1.464.311h-.827v4.445h-1.624V4.138zm1.624 5.404h.779c.328 0 .583-.048.764-.144a.916.916 0 0 0 .398-.392 1.53 1.53 0 0 0 .151-.6c.016-.234.023-.495.023-.782 0-.267-.007-.52-.023-.76a1.81 1.81 0 0 0-.143-.623.92.92 0 0 0-.374-.415c-.17-.101-.414-.153-.732-.153h-.843v3.869zm-51.679-5.5h1.363l2.55 11.476h-1.636l-.481-2.466h-2.23l-.482 2.466h-1.636l2.552-11.476zm.69 3.304h-.033l-.801 4.158h1.636l-.803-4.158zm9.32-.001h-1.636v-.37A1.77 1.77 0 0 0 31.967 6c-.177-.274-.474-.411-.89-.411-.225 0-.41.043-.554.129a.944.944 0 0 0-.337.33c-.08.134-.136.29-.168.467a3.133 3.133 0 0 0-.048.556c0 .226.009.417.025.572.016.156.056.29.12.403a.923.923 0 0 0 .28.298c.123.085.291.172.506.258l1.25.5c.363.141.658.305.883.492.225.189.398.408.52.661.123.253.207.543.25.87.042.329.063.702.063 1.121 0 .484-.048.933-.144 1.346a2.826 2.826 0 0 1-.473 1.064c-.22.295-.51.529-.874.701-.363.171-.808.258-1.331.258a2.89 2.89 0 0 1-1.107-.21 2.707 2.707 0 0 1-.883-.571 2.692 2.692 0 0 1-.801-1.942v-.613h1.636v.517c0 .3.089.571.264.813.177.242.474.363.89.363.279 0 .495-.04.65-.12a.83.83 0 0 0 .354-.339c.08-.145.13-.325.152-.54.021-.215.032-.45.032-.709 0-.3-.01-.548-.032-.74a1.173 1.173 0 0 0-.136-.468.835.835 0 0 0-.29-.29 3.944 3.944 0 0 0-.489-.242l-1.171-.484c-.706-.29-1.179-.675-1.42-1.152-.24-.478-.361-1.078-.361-1.797 0-.43.058-.84.177-1.226.117-.386.29-.72.521-.999.23-.28.521-.502.874-.67.353-.165.764-.249 1.235-.249.407 0 .779.075 1.115.226.337.151.626.35.867.597s.425.523.553.83c.128.306.193.62.193.942v.803zm1.268-3.303h1.636v11.476h-1.636V4.042zm5.036 0h1.363l2.551 11.476H42.45l-.482-2.466h-2.23l-.482 2.466H37.62l2.552-11.476zm.69 3.304h-.032l-.803 4.158h1.636l-.801-4.158z" fill="#fff"/><path fill-rule="evenodd" clip-rule="evenodd" d="M.898.986h18.108V19.18H.898V.986zM6.94 11.148V3.623H5.287v7.487c0 3.942 1.953 5.432 4.543 5.432 2.74 0 4.787-1.603 4.787-5.507V3.623h-1.652v7.525c0 2.81-1.201 4.054-3.079 4.054-1.69 0-2.947-1.207-2.947-4.054z" fill="#FF4E4E"/></svg>