<svg width="489" height="442" viewBox="0 0 489 442" fill="none" xmlns="http://www.w3.org/2000/svg"><path d="M304.941 32.937H273.02v31.936h31.921V32.937z" fill="#354A37" stroke="#fff" stroke-miterlimit="10"/><path d="M336.862 32.937H304.94v31.936h31.922V32.937z" fill="#354A37" stroke="#fff" stroke-miterlimit="10"/><path d="M368.782 32.937h-31.921v31.936h31.921V32.937z" fill="#354A37" stroke="#fff" stroke-miterlimit="10"/><path d="M400.506 32.937h-31.922v31.936h31.922V32.937zM304.94 64.873h-31.921v31.936h31.921V64.873zm31.922 0H304.94v31.936h31.922V64.873z" fill="#354A37" stroke="#fff" stroke-miterlimit="10"/><path d="M368.782 64.873h-31.921v31.936h31.921V64.873z" fill="#354A37" stroke="#fff" stroke-miterlimit="10"/><path d="M400.505 64.873h-31.921v31.936h31.921V64.873zm-95.564 31.738H273.02v31.936h31.921V96.611z" fill="#354A37" stroke="#fff" stroke-miterlimit="10"/><path d="M336.862 96.611H304.94v31.936h31.922V96.611z" fill="#354A37" stroke="#fff" stroke-miterlimit="10"/><path d="M368.782 96.611h-31.921v31.936h31.921V96.611z" fill="#354A37" stroke="#fff" stroke-miterlimit="10"/><path d="M400.506 96.611h-31.922v31.936h31.922V96.611zm-95.565 31.936H273.02v31.937h31.921v-31.937z" fill="#354A37" stroke="#fff" stroke-miterlimit="10"/><path d="M336.862 128.547H304.94v31.937h31.922v-31.937z" fill="#354A37" stroke="#fff" stroke-miterlimit="10"/><path d="M368.782 128.547h-31.921v31.937h31.921v-31.937z" fill="#354A37" stroke="#fff" stroke-miterlimit="10"/><path d="M400.506 128.547h-31.922v31.937h31.922v-31.937zm-95.565 31.937H273.02v31.936h31.921v-31.936z" fill="#354A37" stroke="#fff" stroke-miterlimit="10"/><path d="M336.862 160.484H304.94v31.936h31.922v-31.936z" fill="#354A37" stroke="#fff" stroke-miterlimit="10"/><path d="M368.782 160.484h-31.921v31.936h31.921v-31.936z" fill="#354A37" stroke="#fff" stroke-miterlimit="10"/><path d="M400.506 160.484h-31.922v31.936h31.922v-31.936z" fill="#354A37" stroke="#fff" stroke-miterlimit="10"/><path d="M304.941 1H273.02v31.936h31.921V1z" fill="#fff" stroke="#fff" stroke-miterlimit="10"/><path d="M336.862 1H304.94v31.936h31.922V1z" fill="#fff" stroke="#fff" stroke-miterlimit="10"/><path d="M368.782 1h-31.921v31.936h31.921V1z" fill="#fff" stroke="#fff" stroke-miterlimit="10"/><path d="M400.506 1h-31.922v31.936h31.922V1z" fill="#fff" stroke="#fff" stroke-miterlimit="10"/><path d="M292.251 45.433h-1.19c-2.577.397-3.965 2.38-4.362 4.364.595-.793 1.587-1.388 2.974-1.388 2.181 0 3.768 1.587 3.768 3.967s-1.587 4.364-4.164 4.364c-2.578 0-4.362-1.983-4.362-5.356 0-2.38.793-4.364 2.181-5.554.991-.992 2.379-1.587 3.965-1.785h1.19v1.388zm-.595 7.142c0-1.786-.991-2.778-2.577-2.778-.992 0-1.983.596-2.38 1.587-.198.199-.198.397-.198.794 0 1.983.992 3.57 2.776 3.57 1.586-.198 2.379-1.388 2.379-3.173zm34.3-8.133v1.19l-5.353 11.306h-1.785l5.354-11.108h-6.147v-1.388h7.931zm23.991 9.124c0-1.587.991-2.777 2.379-3.372-1.388-.595-1.983-1.785-1.983-2.777 0-1.984 1.586-3.372 3.767-3.372 2.38 0 3.569 1.587 3.569 2.975 0 .992-.595 2.182-1.982 2.976 1.586.595 2.577 1.785 2.577 3.174 0 2.181-1.784 3.57-4.164 3.57-2.577.198-4.163-1.389-4.163-3.174zm6.741-.198c0-1.587-.991-2.182-2.776-2.777-1.388.397-2.181 1.388-2.181 2.579 0 1.19.992 2.38 2.578 2.38 1.388.198 2.379-.793 2.379-2.182zm-4.759-6.15c0 1.19.992 1.984 2.38 2.381.991-.397 1.982-1.19 1.982-2.182s-.594-1.984-2.181-1.984c-1.387-.198-2.181.596-2.181 1.786zm30.336 8.332h1.388c.991-.198 1.983-.595 2.578-1.19.793-.794 1.387-1.786 1.586-3.373-.595.794-1.785 1.389-2.974 1.389-2.181 0-3.767-1.785-3.767-3.769 0-2.38 1.784-4.364 4.163-4.364 2.578 0 4.164 1.984 4.164 5.356 0 2.777-.991 4.76-2.181 5.95-.991.993-2.379 1.588-3.569 1.588-.595 0-1.189.198-1.586 0V55.55h.198zm.595-7.141c0 1.587.991 2.578 2.379 2.578 1.19 0 1.983-.595 2.379-1.388 0-.198.199-.397.199-.595 0-2.182-.793-3.769-2.578-3.769-1.189 0-2.379 1.389-2.379 3.174z" fill="#fff"/><path d="M292.251 13.497h-1.19c-2.577.397-3.965 2.38-4.362 4.364.595-.793 1.587-1.389 2.974-1.389 2.181 0 3.768 1.587 3.768 3.968 0 2.38-1.587 4.364-4.164 4.364-2.578 0-4.362-1.984-4.362-5.356 0-2.38.793-4.364 2.181-5.554.991-.992 2.379-1.587 3.965-1.785h1.19v1.388zm-.595 7.141c0-1.785-.991-2.777-2.577-2.777-.992 0-1.983.595-2.38 1.587-.198.198-.198.397-.198.793 0 1.984.992 3.57 2.776 3.57 1.586-.197 2.379-1.388 2.379-3.173zm34.3-8.133v1.19l-5.353 11.307h-1.785l5.354-11.108h-6.147v-1.389h7.931zm23.991 9.125c0-1.587.991-2.777 2.379-3.372-1.388-.595-1.983-1.785-1.983-2.777 0-1.984 1.586-3.372 3.767-3.372 2.38 0 3.569 1.586 3.569 2.975 0 .992-.595 2.182-1.982 2.975 1.586.595 2.577 1.786 2.577 3.174 0 2.182-1.784 3.57-4.164 3.57-2.577.2-4.163-1.388-4.163-3.173zm6.741-.198c0-1.587-.991-2.182-2.776-2.777-1.388.396-2.181 1.388-2.181 2.578s.992 2.38 2.578 2.38c1.388.199 2.379-.793 2.379-2.181zm-4.759-6.15c0 1.19.992 1.984 2.38 2.38.991-.396 1.982-1.19 1.982-2.181 0-.992-.594-1.984-2.181-1.984-1.387-.198-2.181.793-2.181 1.785zm30.336 8.331h1.388c.991-.198 1.983-.595 2.578-1.19.793-.793 1.387-1.785 1.586-3.372-.595.794-1.785 1.389-2.974 1.389-2.181 0-3.767-1.786-3.767-3.77 0-2.38 1.784-4.363 4.163-4.363 2.578 0 4.164 1.983 4.164 5.356 0 2.777-.991 4.76-2.181 5.95-.991.992-2.379 1.587-3.569 1.587-.595 0-1.189.199-1.586 0v-1.587h.198zm.595-7.14c0 1.586.991 2.578 2.379 2.578 1.19 0 1.983-.595 2.379-1.388 0-.199.199-.397.199-.596 0-2.181-.793-3.768-2.578-3.768-1.189 0-2.379 1.388-2.379 3.173z" fill="#354A37"/><path d="M283.328 77.766l-2.18 1.19-.397-1.19 2.776-1.388h1.388v12.497h-1.587V77.766zm6.147 10.91v-.992l1.387-1.19c3.173-2.975 4.561-4.562 4.561-6.546 0-1.19-.595-2.38-2.38-2.38-1.189 0-1.982.595-2.577.992l-.595-1.19c.793-.794 2.181-1.19 3.569-1.19 2.776 0 3.767 1.785 3.767 3.57 0 2.38-1.586 4.166-4.362 6.744l-.991.992h5.551v1.389h-7.93v-.199zm26.568-10.909l-2.181 1.19-.397-1.19 2.776-1.389h1.388v12.497h-1.586V77.767zm11.302 10.909v-3.372h-5.75v-1.19l5.551-7.934h1.785v7.736h1.784v1.388h-1.784v3.372h-1.586zm0-4.76v-6.15c-.397.794-.595 1.19-.992 1.786l-2.974 4.364h3.966zm21.611-6.347l-2.181 1.19-.397-1.19 2.776-1.587h1.388v12.496h-1.586v-10.91zm13.283-.398h-1.189c-2.578.397-3.966 2.38-4.362 4.364.595-.793 1.586-1.388 2.974-1.388 2.181 0 3.767 1.587 3.767 3.967s-1.586 4.364-4.164 4.364c-2.577 0-4.362-1.984-4.362-5.356 0-2.38.793-4.364 2.181-5.554.992-.992 2.38-1.587 3.966-1.785h1.189v1.388zm-.595 7.34c0-1.785-.991-2.777-2.577-2.777-.991 0-1.983.595-2.379 1.587-.199.198-.199.396-.199.793 0 1.984.992 3.57 2.776 3.57 1.388-.198 2.379-1.388 2.379-3.173zm17.845-6.942l-2.181 1.19-.397-1.19 2.776-1.389h1.388v12.497h-1.586V77.57zm5.948 7.735c0-1.587.991-2.777 2.578-3.372-1.388-.595-1.983-1.785-1.983-2.777 0-1.984 1.586-3.372 3.767-3.372 2.379 0 3.569 1.587 3.569 2.975 0 .992-.595 2.182-1.983 2.976 1.586.595 2.578 1.785 2.578 3.174 0 2.181-1.785 3.57-4.164 3.57-2.776.198-4.362-1.388-4.362-3.174zm6.741 0c0-1.587-.991-2.182-2.776-2.777-1.388.397-2.181 1.389-2.181 2.579 0 1.19.992 2.38 2.578 2.38 1.388 0 2.379-.992 2.379-2.182zm-4.56-6.347c0 1.19.991 1.983 2.379 2.38.992-.397 1.983-1.19 1.983-2.182s-.595-1.984-2.181-1.984c-1.388-.198-2.181.794-2.181 1.786zm-104.487 29.557l-2.181 1.19-.397-1.19 2.776-1.389h1.388v12.497h-1.586v-11.108zm6.146 7.735c0-1.587.991-2.777 2.379-3.372-1.388-.595-1.983-1.785-1.983-2.777 0-1.984 1.587-3.372 3.767-3.372 2.38 0 3.569 1.586 3.569 2.975 0 .992-.595 2.182-1.982 2.975 1.586.596 2.577 1.786 2.577 3.174 0 2.182-1.784 3.571-4.164 3.571-2.577.397-4.163-1.19-4.163-3.174zm6.741 0c0-1.587-.991-2.182-2.776-2.777-1.388.397-2.181 1.388-2.181 2.579 0 1.19.992 2.38 2.578 2.38 1.388 0 2.379-.793 2.379-2.182zm-4.758-6.149c0 1.19.991 1.983 2.379 2.38.991-.397 1.982-1.19 1.982-2.182s-.594-1.984-2.181-1.984c-1.387-.198-2.18.596-2.18 1.786zm23.198 9.719v-.991l1.387-1.191c3.173-2.975 4.561-4.562 4.561-6.546 0-1.19-.595-2.38-2.38-2.38-1.189 0-1.982.595-2.577.992l-.595-1.19c.793-.794 2.181-1.19 3.569-1.19 2.776 0 3.767 1.785 3.767 3.57 0 2.38-1.586 4.166-4.362 6.744l-.991.992h5.551v1.389h-7.93v-.199zm13.481-10.909l-2.181 1.19-.396-1.19 2.776-1.389h1.387v12.497h-1.586V108.91zm17.051 10.909v-.991l1.388-1.191c3.172-2.975 4.56-4.562 4.56-6.546 0-1.19-.595-2.38-2.379-2.38-1.19 0-1.983.595-2.577.992l-.595-1.19c.793-.794 2.181-1.19 3.569-1.19 2.775 0 3.767 1.785 3.767 3.57 0 2.38-1.586 4.166-4.362 6.744l-.992.992h5.552v1.389h-7.931v-.199zm15.069 0v-3.372h-5.75v-1.19l5.552-7.934h1.784v7.736h1.784v1.388h-1.784v3.372h-1.586zm0-4.76v-6.15c-.397.794-.595 1.191-.992 1.786l-2.974 4.165h3.966v.199zm16.456 4.76v-.991l1.388-1.191c3.172-2.975 4.56-4.562 4.56-6.546 0-1.19-.595-2.38-2.379-2.38-1.19 0-1.983.595-2.578.992l-.594-1.19c.793-.794 2.181-1.19 3.568-1.19 2.776 0 3.768 1.785 3.768 3.57 0 2.38-1.587 4.166-4.362 6.744l-.992.992h5.552v1.389h-7.931v-.199zm17.843-12.496v1.19l-5.353 11.306h-1.784l5.353-11.108h-6.146v-1.388h7.93zm-114.4 44.433v-.992l1.388-1.19c3.172-2.976 4.56-4.563 4.56-6.546 0-1.19-.595-2.381-2.379-2.381-1.19 0-1.983.596-2.578.992l-.594-1.19c.793-.793 2.18-1.19 3.568-1.19 2.776 0 3.767 1.785 3.767 3.57 0 2.381-1.586 4.166-4.361 6.745l-.992.992h5.552v1.388h-7.931v-.198zm15.069 0v-3.372h-5.75v-1.191l5.552-7.934h1.784v7.736h1.785v1.389h-1.785v3.372h-1.586zm0-4.761v-6.149c-.396.793-.595 1.19-.991 1.785l-2.974 4.166h3.965v.198zm18.042 4.563v-.992l1.388-1.19c3.172-2.975 4.56-4.562 4.56-6.546 0-1.19-.594-2.38-2.379-2.38-1.189 0-1.983.595-2.577.991l-.595-1.19c.793-.793 2.181-1.19 3.569-1.19 2.775 0 3.767 1.785 3.767 3.571 0 2.38-1.586 4.165-4.362 6.744l-.991.992H321v1.388h-7.931v-.198zm9.715-3.174c0-1.587.992-2.777 2.379-3.372-1.387-.596-1.982-1.786-1.982-2.778 0-1.983 1.586-3.372 3.767-3.372 2.379 0 3.569 1.587 3.569 2.976 0 .992-.595 2.182-1.983 2.975 1.586.595 2.577 1.785 2.577 3.174 0 2.182-1.784 3.571-4.163 3.571-2.578.198-4.164-1.389-4.164-3.174zm6.543-.199c0-1.587-.991-2.182-2.776-2.777-1.388.397-2.181 1.389-2.181 2.579 0 1.19.992 2.38 2.578 2.38 1.586.199 2.379-.793 2.379-2.182zm-4.56-6.149c0 1.19.991 1.984 2.379 2.38.991-.396 1.983-1.19 1.983-2.182 0-.991-.595-1.983-2.181-1.983-1.388-.199-2.181.595-2.181 1.785zm20.818 7.538c.397.397 1.587.793 2.776.793 2.181 0 2.776-1.388 2.776-2.38 0-1.785-1.586-2.579-3.172-2.579h-.793v-1.19h.991c1.19 0 2.776-.595 2.776-2.182 0-.992-.595-1.785-2.181-1.785-.992 0-1.983.397-2.578.793l-.396-1.19c.595-.397 1.982-.992 3.172-.992 2.379 0 3.569 1.389 3.569 2.976 0 1.19-.793 2.38-2.379 2.975 1.586.397 2.775 1.389 2.775 3.174 0 1.984-1.586 3.769-4.56 3.769-1.388 0-2.577-.397-3.172-.794l.396-1.388zm9.517 1.983v-.991l1.388-1.191c3.172-2.975 4.56-4.562 4.56-6.545 0-1.191-.595-2.381-2.379-2.381-1.19 0-1.983.595-2.578.992l-.594-1.19c.793-.794 2.181-1.19 3.568-1.19 2.776 0 3.767 1.785 3.767 3.57 0 2.381-1.586 4.166-4.361 6.744l-.992.992h5.552v1.389h-7.931v-.199zm21.611-1.983c.397.397 1.587.793 2.776.793 2.181 0 2.776-1.388 2.776-2.38 0-1.785-1.586-2.579-3.172-2.579h-.992v-1.19h.992c1.189 0 2.775-.595 2.775-2.182 0-.992-.594-1.785-2.181-1.785-.991 0-1.982.397-2.577.793l-.397-1.19c.595-.397 1.983-.992 3.173-.992 2.379 0 3.569 1.389 3.569 2.976 0 1.19-.794 2.38-2.38 2.975 1.586.397 2.776 1.389 2.776 3.174 0 1.984-1.586 3.769-4.56 3.769-1.388 0-2.578-.397-3.172-.794l.594-1.388zm16.655-9.323h-1.19c-2.577.397-3.965 2.38-4.362 4.364.595-.794 1.586-1.389 2.974-1.389 2.181 0 3.767 1.587 3.767 3.968 0 2.38-1.586 4.364-4.163 4.364-2.578 0-4.362-1.984-4.362-5.356 0-2.381.793-4.364 2.181-5.554.991-.992 2.379-1.587 3.965-1.786h1.19v1.389zm-.397 7.141c0-1.785-.991-2.777-2.577-2.777-.992 0-1.983.595-2.38 1.587-.198.198-.198.396-.198.793 0 1.984.991 3.571 2.776 3.571 1.388-.199 2.379-1.389 2.379-3.174zm-112.418 33.92c.396.397 1.586.793 2.776.793 2.181 0 2.775-1.388 2.775-2.38 0-1.785-1.586-2.579-3.172-2.579h-.991v-1.19h.991c1.19 0 2.776-.595 2.776-2.182 0-.992-.595-1.785-2.181-1.785-.992 0-1.983.397-2.578.793l-.396-1.19c.595-.397 1.982-.992 3.172-.992 2.379 0 3.569 1.389 3.569 2.976 0 1.19-.793 2.38-2.379 2.975 1.586.397 2.775 1.389 2.775 3.174 0 1.984-1.586 3.769-4.56 3.769-1.388 0-2.577-.397-3.172-.794l.595-1.388zm17.646-4.364c0 4.165-1.586 6.546-4.362 6.546-2.379 0-4.163-2.381-4.163-6.348 0-4.165 1.784-6.546 4.362-6.546 2.775 0 4.163 2.381 4.163 6.348zm-6.741.198c0 3.174.992 5.158 2.578 5.158 1.784 0 2.577-1.984 2.577-5.158 0-2.975-.793-5.157-2.577-5.157-1.388-.199-2.578 1.587-2.578 5.157zm22.206 4.166c.397.397 1.586.793 2.776.793 2.181 0 2.776-1.388 2.776-2.38 0-1.785-1.587-2.579-3.173-2.579h-.991v-1.19h.991c1.19 0 2.776-.595 2.776-2.182 0-.992-.595-1.785-2.181-1.785-.991 0-1.983.397-2.577.793l-.397-1.19c.595-.397 1.983-.992 3.172-.992 2.38 0 3.569 1.389 3.569 2.976 0 1.19-.793 2.38-2.379 2.975 1.586.397 2.776 1.389 2.776 3.174 0 1.984-1.586 3.769-4.56 3.769-1.388 0-2.578-.397-3.173-.794l.595-1.388zm17.051-9.125h-4.758l-.397 3.174h.992c.991 0 1.982.198 2.775.595.992.595 1.785 1.587 1.785 3.174 0 2.38-1.983 4.165-4.56 4.165-1.388 0-2.578-.396-3.173-.793l.397-1.19c.595.397 1.586.595 2.577.595 1.587 0 2.974-.992 2.974-2.777 0-1.587-1.189-2.777-3.568-2.777-.793 0-1.19 0-1.785.198l.793-5.951h5.948v1.587zm19.826 11.109v-3.372h-5.749v-1.19l5.551-7.935h1.784v7.736h1.785v1.389h-1.785v3.372h-1.586zm0-4.761v-6.149c-.396.793-.595 1.19-.991 1.785l-2.974 4.166h3.965v.198zm12.888-1.587c0 4.165-1.586 6.546-4.362 6.546-2.379 0-4.164-2.381-4.164-6.348 0-4.165 1.785-6.546 4.362-6.546 2.776 0 4.164 2.381 4.164 6.348zm-6.741.198c0 3.174.991 5.158 2.577 5.158 1.785 0 2.578-1.984 2.578-5.158 0-2.975-.793-5.157-2.578-5.157-1.388-.199-2.577 1.587-2.577 5.157zm25.577 6.15v-3.372h-5.75v-1.19l5.552-7.935h1.784v7.736h1.784v1.389h-1.784v3.372h-1.586zm0-4.761v-6.149c-.397.793-.595 1.19-.991 1.785l-2.974 4.166h3.965v.198zm12.094-6.348H389.6l-.396 3.174h.991c.992 0 1.983.198 2.776.595.991.595 1.784 1.587 1.784 3.174 0 2.38-1.982 4.165-4.56 4.165-1.388 0-2.577-.396-3.172-.793l.396-1.19c.595.397 1.587.595 2.578.595 1.586 0 2.974-.992 2.974-2.777 0-1.587-.991-2.777-3.569-2.777-.793 0-1.189 0-1.784.198l.793-5.951h5.948v1.587z" fill="#fff"/><circle cx="30.17" cy="250.17" r="30.17" fill="#FFFEFD"/><path d="M31.036 263.674c-2.64 0-4.908-.528-6.804-1.584-1.872-1.08-3.312-2.592-4.32-4.536-1.008-1.968-1.512-4.284-1.512-6.948 0-2.664.504-4.968 1.512-6.912s2.448-3.444 4.32-4.5c1.896-1.08 4.164-1.62 6.804-1.62 1.32 0 2.616.168 3.888.504 1.272.336 2.388.816 3.348 1.44.624.408.996.9 1.116 1.476a2.16 2.16 0 0 1-.216 1.548c-.264.456-.66.768-1.188.936-.528.144-1.116 0-1.764-.432a7.996 7.996 0 0 0-2.412-1.044 10.795 10.795 0 0 0-2.628-.324c-2.568 0-4.524.78-5.868 2.34-1.344 1.536-2.016 3.732-2.016 6.588s.672 5.064 2.016 6.624c1.344 1.56 3.3 2.34 5.868 2.34.912 0 1.812-.108 2.7-.324.888-.24 1.728-.6 2.52-1.08.648-.408 1.224-.54 1.728-.396.504.144.876.444 1.116.9.264.432.348.912.252 1.44-.096.528-.42.996-.972 1.404-.96.696-2.112 1.236-3.456 1.62-1.32.36-2.664.54-4.032.54z" fill="#354A37"/><path d="M119.099 32.937H87.178v31.936h31.921V32.936z" fill="#fff" stroke="#fff" stroke-miterlimit="10"/><path d="M151.942 32.937h-31.921v31.936h31.921V32.936z" fill="#354A37" stroke="#fff" stroke-miterlimit="10"/><path d="M183.664 32.937h-31.921v31.936h31.921V32.936zm31.921 0h-31.921v31.936h31.921V32.936zm31.921 0h-31.921v31.936h31.921V32.936z" fill="#354A37" stroke="#fff" stroke-miterlimit="10"/><path d="M119.099 64.873H87.178v31.936h31.921V64.873z" fill="#fff" stroke="#fff" stroke-miterlimit="10"/><path d="M151.941 64.873H120.02v31.936h31.921V64.873z" fill="#354A37" stroke="#fff" stroke-miterlimit="10"/><path d="M183.663 64.873h-31.921v31.936h31.921V64.873zm31.922 0h-31.921v31.936h31.921V64.873zm31.921 0h-31.921v31.936h31.921V64.873z" fill="#354A37" stroke="#fff" stroke-miterlimit="10"/><path d="M119.099 96.61H87.178v31.937h31.921V96.611z" fill="#fff" stroke="#FDFEFF" stroke-miterlimit="10"/><path d="M151.942 96.611h-31.921v31.936h31.921V96.611z" fill="#354A37" stroke="#FEFFFE" stroke-miterlimit="10"/><path d="M183.664 96.611h-31.921v31.936h31.921V96.611zm31.921 0h-31.921v31.936h31.921V96.611zm31.921 0h-31.921v31.936h31.921V96.611z" fill="#354A37" stroke="#fff" stroke-miterlimit="10"/><path d="M119.099 128.547H87.178v31.937h31.921v-31.937z" fill="#fff" stroke="#fff" stroke-miterlimit="10"/><path d="M151.942 128.547h-31.921v31.937h31.921v-31.937z" fill="#354A37" stroke="#FEFFFF" stroke-miterlimit="10"/><path d="M183.664 128.547h-31.921v31.937h31.921v-31.937zm31.921 0h-31.921v31.937h31.921v-31.937zm31.921 0h-31.921v31.937h31.921v-31.937z" fill="#354A37" stroke="#fff" stroke-miterlimit="10"/><path d="M119.099 160.484H87.178v31.936h31.921v-31.936z" fill="#fff" stroke="#fff" stroke-miterlimit="10"/><path d="M151.942 160.484h-31.921v31.936h31.921v-31.936z" fill="#354A37" stroke="#fff" stroke-miterlimit="10"/><path d="M183.664 160.484h-31.921v31.936h31.921v-31.936zm31.921 0h-31.921v31.936h31.921v-31.936zm31.921 0h-31.921v31.936h31.921v-31.936z" fill="#354A37" stroke="#fff" stroke-miterlimit="10"/><path d="M151.942 1h-31.921v31.936h31.921V1z" fill="#fff" stroke="#fff" stroke-miterlimit="10"/><path d="M183.664 1h-31.921v31.936h31.921V1zm31.921 0h-31.921v31.936h31.921V1zm31.921 0h-31.921v31.936h31.921V1z" fill="#fff" stroke="#fff" stroke-miterlimit="10"/><path d="M132.907 56.938v-.992l1.388-1.19c3.172-2.975 4.56-4.562 4.56-6.546 0-1.19-.595-2.38-2.379-2.38-1.19 0-1.983.595-2.577.992l-.794-1.389c.794-.793 2.181-1.19 3.569-1.19 2.776 0 3.767 1.785 3.767 3.57 0 2.381-1.586 4.166-4.361 6.745l-.992.992h5.552v1.388h-7.733zm32.715-2.181c.396.396 1.586.793 2.775.793 2.181 0 2.776-1.389 2.776-2.38 0-1.786-1.586-2.58-3.172-2.58h-.991V49.4h.991c1.189 0 2.776-.594 2.776-2.181 0-.992-.595-1.786-2.181-1.786-.992 0-1.983.397-2.578.794l-.396-1.19c.594-.397 1.982-.992 3.172-.992 2.379 0 3.569 1.388 3.569 2.975 0 1.19-.793 2.38-2.379 2.976 1.586.396 2.775 1.388 2.775 3.174 0 1.983-1.586 3.768-4.56 3.768-1.388 0-2.577-.396-3.172-.793l.595-1.389zm35.688 2.181v-3.372h-5.75v-1.19l5.552-7.934h1.784v7.736h1.784v1.388h-1.784v3.372h-1.586zm0-4.76v-6.15c-.397.794-.595 1.19-.992 1.786l-3.172 4.364h4.164zm35.093-6.546h-4.759l-.396 3.174h.991c.992 0 1.983.198 2.776.595.991.595 1.784 1.587 1.784 3.173 0 2.38-1.982 4.166-4.56 4.166-1.388 0-2.577-.397-3.172-.793l.396-1.19c.595.396 1.587.595 2.578.595 1.586 0 2.974-.992 2.974-2.777 0-1.587-1.19-2.778-3.569-2.778-.793 0-1.19 0-1.784.199l.793-5.951h5.948v1.587z" fill="#fff"/><path d="M105.15 14.092l-2.181 1.19-.397-1.19 2.776-1.587h1.388v12.497h-1.586v-10.91zm27.757 10.91v-.992l1.388-1.19c3.172-2.976 4.56-4.562 4.56-6.546 0-1.19-.595-2.38-2.379-2.38-1.19 0-1.983.595-2.577.992l-.794-1.39c.794-.793 2.181-1.19 3.569-1.19 2.776 0 3.767 1.786 3.767 3.571 0 2.38-1.586 4.166-4.361 6.745l-.992.991h5.552v1.389h-7.733zm32.715-2.182c.396.397 1.586.794 2.775.794 2.181 0 2.776-1.389 2.776-2.38 0-1.786-1.586-2.58-3.172-2.58h-.991v-1.19h.991c1.189 0 2.776-.595 2.776-2.182 0-.992-.595-1.785-2.181-1.785-.992 0-1.983.397-2.578.793l-.396-1.19c.594-.396 1.982-.991 3.172-.991 2.379 0 3.569 1.388 3.569 2.975 0 1.19-.793 2.38-2.379 2.975 1.586.397 2.775 1.389 2.775 3.174 0 1.984-1.586 3.77-4.56 3.77-1.388 0-2.577-.398-3.172-.794l.595-1.389zm35.688 2.182V21.63h-5.75v-1.19l5.552-7.935h1.784v7.736h1.784v1.389h-1.784v3.372h-1.586zm0-4.76v-6.15c-.397.793-.595 1.19-.992 1.785l-2.974 4.166h3.966v.198zm35.093-6.547h-4.759l-.396 3.174h.991c.992 0 1.983.199 2.776.595.991.595 1.784 1.587 1.784 3.174 0 2.38-1.982 4.166-4.56 4.166-1.388 0-2.577-.397-3.172-.794l.396-1.19c.595.397 1.587.595 2.578.595 1.586 0 2.974-.992 2.974-2.777 0-1.587-1.19-2.777-3.569-2.777-.793 0-1.19 0-1.784.198l.793-5.95h5.948v1.586z" fill="#354A37"/><path d="M138.062 88.676v-3.372h-5.75v-1.19l5.552-7.935h1.784v7.737h1.784v1.388h-1.784v3.372h-1.586zm0-4.76v-6.15c-.397.794-.595 1.19-.992 1.786l-2.974 4.364h3.966zm34.102-6.745h-1.19c-2.577.397-3.965 2.38-4.361 4.364.594-.793 1.586-1.388 2.974-1.388 2.181 0 3.767 1.587 3.767 3.967s-1.586 4.364-4.164 4.364c-2.577 0-4.362-1.984-4.362-5.356 0-2.38.793-4.364 2.181-5.554.991-.992 2.379-1.587 3.965-1.785h1.19v1.388zm-.595 7.34c0-1.785-.991-2.777-2.577-2.777-.992 0-1.983.595-2.379 1.587-.199.198-.199.396-.199.793 0 1.984.992 3.57 2.776 3.57 1.388-.198 2.379-1.388 2.379-3.173zm24.189.793c0-1.587.992-2.777 2.38-3.372-1.388-.595-1.983-1.785-1.983-2.777 0-1.984 1.586-3.372 3.767-3.372 2.379 0 3.569 1.587 3.569 2.975 0 .992-.595 2.182-1.983 2.976 1.586.595 2.578 1.785 2.578 3.174 0 2.181-1.785 3.57-4.164 3.57-2.578.198-4.164-1.388-4.164-3.174zm6.741 0c0-1.587-.991-2.182-2.775-2.777-1.388.397-2.181 1.389-2.181 2.579 0 1.19.991 2.38 2.577 2.38 1.388 0 2.379-.992 2.379-2.182zm-4.56-6.347c0 1.19.992 1.983 2.379 2.38.992-.397 1.983-1.19 1.983-2.182s-.595-1.984-2.181-1.984c-1.388-.198-2.181.794-2.181 1.786zm28.947-1.388l-2.181 1.19-.396-1.19 2.775-1.389h1.388v12.497h-1.586V77.57zm14.473 4.561c0 4.166-1.586 6.546-4.362 6.546-2.379 0-4.164-2.38-4.164-6.347 0-4.166 1.785-6.546 4.362-6.546 2.578 0 4.164 2.38 4.164 6.347zm-6.741.199c0 3.174.991 5.157 2.577 5.157 1.785 0 2.578-1.983 2.578-5.157 0-2.976-.793-5.158-2.578-5.158-1.586 0-2.577 1.786-2.577 5.158z" fill="#fff"/><path d="M139.847 108.314h-1.19c-2.577.397-3.965 2.381-4.362 4.364.595-.793 1.586-1.388 2.974-1.388 2.181 0 3.767 1.587 3.767 3.967s-1.586 4.364-4.163 4.364c-2.578 0-4.362-1.984-4.362-5.356 0-2.38.793-4.364 2.181-5.554.991-.992 2.379-1.587 3.965-1.785h1.19v1.388zm-.397 7.141c0-1.785-.991-2.777-2.577-2.777-.992 0-1.983.595-2.38 1.587-.198.198-.198.397-.198.794 0 1.983.991 3.57 2.776 3.57 1.388-.198 2.379-1.388 2.379-3.174z" fill="#FEFEFF"/><path d="M166.018 118.431h1.388c.991-.199 1.982-.595 2.577-1.19.793-.794 1.388-1.786 1.586-3.373-.595.794-1.784 1.389-2.974 1.389-2.181 0-3.767-1.785-3.767-3.769 0-2.38 1.785-4.364 4.164-4.364 2.577 0 4.163 1.984 4.163 5.356 0 2.777-.991 4.761-2.181 5.951-.991.992-2.379 1.587-3.568 1.587-.595 0-1.19.198-1.587 0v-1.587h.199zm.595-7.34c0 1.587.991 2.579 2.379 2.579 1.189 0 1.982-.595 2.379-1.388 0-.199.198-.397.198-.596 0-2.182-.793-3.768-2.577-3.768-1.388.198-2.379 1.388-2.379 3.173zm27.559-2.181l-2.181 1.19-.396-1.19 2.775-1.389h1.388v12.497h-1.586V108.91zm6.146 10.909v-.991l1.388-1.191c3.173-2.975 4.56-4.562 4.56-6.546 0-1.19-.594-2.38-2.379-2.38-1.189 0-1.982.595-2.577.992l-.595-1.19c.793-.794 2.181-1.19 3.569-1.19 2.775 0 3.767 1.785 3.767 3.57 0 2.38-1.586 4.166-4.362 6.744l-.991.992h5.749v1.389h-8.129v-.199zm26.766-11.306l-2.181 1.19-.396-1.19 2.776-1.388h1.387v12.496h-1.586v-11.108zm13.68 0h-4.758l-.595 3.173h.991c.992 0 1.983.199 2.776.595.991.596 1.784 1.587 1.784 3.174 0 2.381-1.982 4.166-4.56 4.166-1.388 0-2.577-.397-3.172-.794l.397-1.19c.594.397 1.586.595 2.577.595 1.586 0 2.974-.991 2.974-2.777 0-1.587-1.19-2.777-3.569-2.777-.793 0-1.189 0-1.784.199l.793-5.951h5.948v1.587h.198z" fill="#fff"/><path d="M132.709 148.384c0-1.587.991-2.777 2.379-3.373-1.388-.595-1.982-1.785-1.982-2.777 0-1.983 1.586-3.372 3.767-3.372 2.379 0 3.568 1.587 3.568 2.976 0 .991-.594 2.182-1.982 2.975 1.586.595 2.577 1.785 2.577 3.174 0 2.182-1.784 3.57-4.163 3.57-2.578.199-4.164-1.388-4.164-3.173zm6.741-.199c0-1.587-.991-2.182-2.776-2.777-1.388.397-2.181 1.389-2.181 2.579 0 1.19.992 2.38 2.578 2.38 1.388.199 2.379-.793 2.379-2.182zm-4.758-6.149c0 1.19.991 1.984 2.379 2.38.991-.396 1.983-1.19 1.983-2.182 0-.991-.595-1.983-2.181-1.983-1.388-.199-2.181.595-2.181 1.785z" fill="#FDFDFF"/><path d="M163.242 140.847l-2.181 1.19-.396-1.19 2.775-1.389h1.388v12.497h-1.586v-11.108zm6.147 10.909v-.992l1.388-1.389c3.172-2.975 4.56-4.562 4.56-6.546 0-1.19-.595-2.38-2.38-2.38-1.189 0-1.982.595-2.577.992l-.595-1.19c.793-.794 2.181-1.191 3.569-1.191 2.776 0 3.767 1.786 3.767 3.571 0 2.38-1.586 4.166-4.362 6.744l-.991.992h5.551v1.389h-7.93zm24.585-11.108l-2.181 1.19-.397-1.19 2.776-1.388h1.388v12.497h-1.586v-11.109zm13.283-.397h-1.189c-2.578.397-3.966 2.38-4.362 4.364.595-.794 1.586-1.389 2.974-1.389 2.181 0 3.767 1.587 3.767 3.967 0 2.381-1.586 4.364-4.164 4.364-2.577 0-4.362-1.983-4.362-5.355 0-2.381.793-4.364 2.181-5.554.992-.992 2.38-1.587 3.966-1.786h1.189v1.389zm-.396 7.141c0-1.785-.992-2.777-2.578-2.777-.991 0-1.982.595-2.379 1.587-.198.198-.198.396-.198.793 0 1.984.991 3.571 2.776 3.571 1.387-.199 2.379-1.389 2.379-3.174zm16.853 4.166v-.992l1.388-1.19c3.172-2.976 4.56-4.562 4.56-6.546 0-1.19-.595-2.38-2.379-2.38-1.19 0-1.983.595-2.578.991l-.595-1.19c.793-.793 2.181-1.19 3.569-1.19 2.776 0 3.767 1.785 3.767 3.571 0 2.38-1.586 4.165-4.362 6.744l-.991.992h5.552v1.388h-7.931v-.198zm18.241-6.348c0 4.165-1.586 6.546-4.362 6.546-2.379 0-4.164-2.381-4.164-6.348 0-4.165 1.785-6.546 4.362-6.546 2.578 0 4.164 2.381 4.164 6.348zm-6.94.198c0 3.174.992 5.158 2.578 5.158 1.784 0 2.577-1.984 2.577-5.158 0-2.975-.793-5.157-2.577-5.157-1.388-.199-2.578 1.587-2.578 5.157zm-104.09 26.978l-2.181 1.19-.397-1.19 2.776-1.388h1.388v12.497h-1.586v-11.109zm14.473 4.562c0 4.165-1.587 6.546-4.362 6.546-2.38 0-4.164-2.381-4.164-6.348 0-4.165 1.784-6.546 4.362-6.546 2.577 0 4.164 2.381 4.164 6.348zm-6.742.198c0 3.174.992 5.158 2.578 5.158 1.784 0 2.577-1.984 2.577-5.158 0-2.975-.793-5.157-2.577-5.157-1.586-.199-2.578 1.587-2.578 5.157zm24.784-4.76l-2.181 1.19-.396-1.388 2.776-1.389h1.387v12.497h-1.586v-10.91zm13.482-.199h-4.759l-.396 3.174h.991c.992 0 1.983.198 2.776.595.991.595 1.784 1.587 1.784 3.174 0 2.38-1.982 4.165-4.56 4.165-1.388 0-2.577-.396-3.172-.793l.396-1.19c.595.396 1.587.595 2.578.595 1.586 0 2.974-.992 2.974-2.777 0-1.587-1.19-2.777-3.569-2.777-.793 0-1.189 0-1.784.198l.793-5.951h5.948v1.587zM191 183.296v-.992l1.388-1.19c3.172-2.976 4.56-4.562 4.56-6.546 0-1.19-.595-2.38-2.379-2.38-1.19 0-1.983.595-2.578.991l-.594-1.19c.793-.793 2.18-1.19 3.568-1.19 2.776 0 3.767 1.785 3.767 3.571 0 2.38-1.586 4.165-4.361 6.744l-.992.992h5.552v1.388H191v-.198zm18.042-6.348c0 4.165-1.587 6.546-4.362 6.546-2.379 0-4.164-2.381-4.164-6.348 0-4.165 1.785-6.546 4.362-6.546 2.776 0 4.164 2.381 4.164 6.348zm-6.741.198c0 3.174.991 5.158 2.577 5.158 1.784 0 2.577-1.984 2.577-5.158 0-2.975-.793-5.157-2.577-5.157-1.388-.199-2.577 1.587-2.577 5.157zm21.809 6.149v-.991l1.388-1.191c3.173-2.975 4.56-4.562 4.56-6.546 0-1.19-.594-2.38-2.379-2.38-1.189 0-1.983.595-2.577.992l-.793-1.389c.793-.793 2.181-1.19 3.568-1.19 2.776 0 3.768 1.785 3.768 3.571 0 2.38-1.587 4.165-4.362 6.744l-.992.992h5.552v1.388h-7.733zm17.249-11.108h-4.758l-.397 3.174h.992c.991 0 1.982.198 2.775.595.992.595 1.785 1.587 1.785 3.174 0 2.38-1.983 4.165-4.56 4.165-1.388 0-2.578-.396-3.173-.793l.397-1.19c.595.396 1.586.595 2.577.595 1.587 0 2.974-.992 2.974-2.777 0-1.587-1.189-2.777-3.568-2.777-.793 0-1.19 0-1.785.198l.793-5.951h5.948v1.587z" fill="#fff"/><path d="M103.634 46.028l-2.181 1.19-.396-1.19 2.775-1.388h1.388v12.496h-1.586V46.028zm-4.362 42.649v-.992l1.387-1.19c3.173-2.976 4.561-4.563 4.561-6.546 0-1.19-.595-2.38-2.38-2.38-1.189 0-1.982.594-2.577.991l-.595-1.19a4.783 4.783 0 0 1 3.371-1.389c2.775 0 3.767 1.786 3.767 3.571 0 2.38-1.586 4.166-4.362 6.744l-.992.992h5.552v1.389h-7.733zm.396 28.96c.397.397 1.586.794 2.776.794 2.181 0 2.776-1.389 2.776-2.38 0-1.786-1.587-2.579-3.173-2.579h-.793v-1.19h.992c1.189 0 2.775-.595 2.775-2.182 0-.992-.595-1.786-2.181-1.786-.991 0-1.982.397-2.577.794l-.397-1.389c.595-.396 1.983-.991 3.173-.991 2.379 0 3.568 1.388 3.568 2.975 0 1.19-.793 2.38-2.379 2.975 1.586.397 2.776 1.389 2.776 3.174 0 1.984-1.586 3.769-4.56 3.769-1.388 0-2.578-.397-3.172-.793l.396-1.191zm4.759 34.119v-3.373h-5.75v-1.19l5.551-7.934h1.785v7.736h1.784v1.388h-1.784v3.373h-1.586zm0-4.761v-6.149c-.397.793-.595 1.19-.992 1.785l-2.974 4.166h3.966v.198zm2.38 25.192h-4.759l-.396 3.174h.991c.991 0 1.983.198 2.776.595.991.595 1.784 1.587 1.784 3.174 0 2.38-1.983 4.165-4.56 4.165-1.388 0-2.577-.396-3.172-.793l.396-1.19c.595.396 1.586.595 2.578.595 1.586 0 2.974-.992 2.974-2.777 0-1.587-.992-2.777-3.569-2.777-.793 0-1.19 0-1.784.198l.793-5.951h5.948v1.587z" fill="#354A37"/><path d="M97.429 9l2.285 3.113c.572.85.857 1.698 1.429 2.547.571-.849 1.143-1.698 1.428-2.547l2-3.113h2.858l-4.858 7.358L108 24h-3.143l-2.286-3.396c-.571-.85-.857-1.698-1.428-2.547l-1.714 2.547L97.143 24H94l5.429-7.642L94.286 9h3.143z" fill="#fff"/><path d="M305.674 217.842h-31.921v31.936h31.921v-31.936z" fill="#354A37" stroke="#fff" stroke-miterlimit="10"/><path d="M337.594 217.842h-31.922v31.936h31.922v-31.936zm31.921 0h-31.921v31.936h31.921v-31.936z" fill="#354A37" stroke="#fff" stroke-miterlimit="10"/><path d="M401.238 217.842h-31.922v31.936h31.922v-31.936zm-95.565 31.937h-31.922v31.936h31.922v-31.936z" fill="#354A37" stroke="#fff" stroke-miterlimit="10"/><path d="M337.594 249.779h-31.922v31.936h31.922v-31.936zm31.921 0h-31.921v31.936h31.921v-31.936z" fill="#354A37" stroke="#fff" stroke-miterlimit="10"/><path d="M401.238 249.779h-31.922v31.936h31.922v-31.936zm-95.565 31.936h-31.922v31.936h31.922v-31.936z" fill="#354A37" stroke="#fff" stroke-miterlimit="10"/><path d="M337.594 281.715h-31.922v31.936h31.922v-31.936zm31.921 0h-31.921v31.936h31.921v-31.936z" fill="#354A37" stroke="#fff" stroke-miterlimit="10"/><path d="M401.238 281.715h-31.922v31.936h31.922v-31.936zm-95.565 31.738h-31.922v31.936h31.922v-31.936z" fill="#354A37" stroke="#fff" stroke-miterlimit="10"/><path d="M337.594 313.453h-31.922v31.936h31.922v-31.936zm31.921 0h-31.921v31.936h31.921v-31.936z" fill="#354A37" stroke="#fff" stroke-miterlimit="10"/><path d="M401.238 313.453h-31.922v31.936h31.922v-31.936zm-95.565 31.936h-31.922v31.936h31.922v-31.936z" fill="#354A37" stroke="#fff" stroke-miterlimit="10"/><path d="M337.594 345.389h-31.922v31.936h31.922v-31.936zm31.921 0h-31.921v31.936h31.921v-31.936z" fill="#354A37" stroke="#fff" stroke-miterlimit="10"/><path d="M401.238 345.389h-31.922v31.936h31.922v-31.936z" fill="#354A37" stroke="#fff" stroke-miterlimit="10"/><path d="M281.285 239.265c.396.397 1.586.794 2.776.794 2.18 0 2.775-1.389 2.775-2.381 0-1.785-1.586-2.578-3.172-2.578h-.991v-1.191h.991c1.19 0 2.776-.595 2.776-2.182 0-.991-.595-1.785-2.181-1.785-.992 0-1.983.397-2.578.794l-.396-1.191c.595-.396 1.982-.991 3.172-.991 2.379 0 3.569 1.388 3.569 2.975 0 1.19-.793 2.38-2.379 2.976 1.586.396 2.775 1.388 2.775 3.173 0 1.984-1.586 3.769-4.56 3.769-1.388 0-2.577-.396-3.172-.793l.595-1.389zm16.457-9.323h-1.19c-2.577.397-3.965 2.381-4.362 4.364.595-.793 1.586-1.388 2.974-1.388 2.181 0 3.767 1.587 3.767 3.967s-1.586 4.364-4.163 4.364c-2.578 0-4.362-1.984-4.362-5.356 0-2.38.793-4.364 2.181-5.554.991-.992 2.379-1.587 3.965-1.785h1.19v1.388zm-.397 7.141c0-1.785-.991-2.777-2.577-2.777-.992 0-1.983.595-2.38 1.587-.198.198-.198.397-.198.794 0 1.983.992 3.57 2.776 3.57 1.388-.198 2.379-1.388 2.379-3.174zm22.008 4.364v-3.372h-5.749v-1.19l5.551-7.935h1.784v7.736h1.785v1.389h-1.785v3.372h-1.586zm0-4.761v-6.149c-.396.794-.595 1.19-.991 1.785l-2.974 4.166h3.965v.198zm4.758 4.761v-.992l1.388-1.19c3.172-2.975 4.56-4.562 4.56-6.546 0-1.19-.595-2.38-2.379-2.38-1.19 0-1.983.595-2.578.992l-.595-1.191c.793-.793 2.181-1.19 3.569-1.19 2.776 0 3.767 1.786 3.767 3.571 0 2.38-1.586 4.165-4.362 6.744l-.991.992h5.552v1.389h-7.931v-.199zm27.163-.198v-3.372h-5.75v-1.19l5.551-7.935h1.785v7.737h1.784v1.388h-1.784v3.372h-1.586zm0-4.76v-6.15c-.397.794-.595 1.19-.992 1.786l-2.974 4.165h3.966v.199zm4.56 1.586c0-1.587.991-2.777 2.379-3.372-1.388-.595-1.982-1.785-1.982-2.777 0-1.984 1.586-3.372 3.767-3.372 2.379 0 3.568 1.587 3.568 2.975 0 .992-.594 2.182-1.982 2.976 1.586.595 2.577 1.785 2.577 3.173 0 2.182-1.784 3.571-4.163 3.571-2.578.198-4.164-1.389-4.164-3.174zm6.741-.198c0-1.587-.991-2.182-2.776-2.777-1.388.396-2.181 1.388-2.181 2.578 0 1.191.992 2.381 2.578 2.381 1.388.198 2.379-.794 2.379-2.182zm-4.758-6.15c0 1.191.991 1.984 2.379 2.381.991-.397 1.983-1.19 1.983-2.182s-.595-1.984-2.181-1.984c-1.388-.198-2.181.595-2.181 1.785zm26.568-1.586h-4.759l-.396 3.173h.991c.991 0 1.983.199 2.776.595.991.596 1.784 1.587 1.784 3.174 0 2.381-1.982 4.166-4.56 4.166-1.388 0-2.577-.397-3.172-.794l.396-1.19c.595.397 1.587.595 2.578.595 1.586 0 2.974-.991 2.974-2.777 0-1.587-1.19-2.777-3.569-2.777-.793 0-1.19 0-1.784.199l.793-5.951h5.948v1.587zm7.732 11.108v-3.372h-5.749v-1.19l5.551-7.935h1.785v7.736h1.784v1.389h-1.784v3.372h-1.587zm0-4.761v-6.149c-.396.794-.594 1.19-.991 1.785l-2.974 4.166h3.965v.198zM286.44 271.797v-3.373h-5.75v-1.19l5.551-7.934h1.785v7.736h1.784v1.388h-1.784v3.373h-1.586zm0-4.563v-6.149c-.397.794-.595 1.19-.992 1.785l-2.974 4.166h3.966v.198zm4.758 4.563v-.992l1.388-1.19c3.172-2.976 4.56-4.563 4.56-6.546 0-1.19-.595-2.381-2.379-2.381-1.19 0-1.983.595-2.577.992l-.595-1.19c.793-.793 2.181-1.19 3.569-1.19 2.775 0 3.767 1.785 3.767 3.57 0 2.381-1.586 4.166-4.362 6.745l-.992.991h5.552v1.389h-7.931v-.198zm27.956-.199v-3.372h-5.75v-1.19l5.552-7.934h1.784v7.736h1.785v1.388h-1.785v3.372h-1.586zm0-4.562v-6.149c-.396.793-.595 1.19-.991 1.785l-2.974 4.166h3.965v.198zm5.75 3.372h1.388c.992-.198 1.983-.595 2.578-1.19.793-.793 1.388-1.785 1.586-3.372-.595.793-1.784 1.388-2.974 1.388-2.181 0-3.767-1.785-3.767-3.768 0-2.381 1.784-4.364 4.163-4.364 2.578 0 4.164 1.983 4.164 5.355 0 2.777-.991 4.761-2.181 5.951-.991.992-2.181 1.587-3.569 1.587-.594 0-1.189.198-1.586 0v-1.587h.198zm.595-7.141c0 1.587.992 2.579 2.379 2.579 1.19 0 1.983-.595 2.38-1.389 0-.198.198-.396.198-.595 0-2.182-.793-3.769-2.578-3.769-1.387.199-2.379 1.389-2.379 3.174zm27.758-2.579h-4.759l-.396 3.174h.991c.992 0 1.983.199 2.776.595.991.595 1.784 1.587 1.784 3.174 0 2.38-1.982 4.166-4.56 4.166-1.388 0-2.577-.397-3.172-.794l.396-1.19c.595.397 1.587.595 2.578.595 1.586 0 2.974-.992 2.974-2.777 0-1.587-1.19-2.777-3.569-2.777-.793 0-1.189 0-1.784.198l.793-5.95h5.948v1.586zm9.516-.198h-1.19c-2.577.397-3.965 2.38-4.362 4.364.595-.793 1.587-1.388 2.974-1.388 2.181 0 3.768 1.586 3.768 3.967 0 2.38-1.587 4.364-4.164 4.364-2.578 0-4.362-1.984-4.362-5.356 0-2.38.793-4.364 2.181-5.554.991-.992 2.379-1.587 3.965-1.785h1.19v1.388zm-.397 7.141c0-1.785-.991-2.777-2.577-2.777-.991 0-1.983.595-2.379 1.587-.199.198-.199.397-.199.793 0 1.984.992 3.571 2.776 3.571 1.388-.198 2.379-1.389 2.379-3.174zm22.207-7.141h-1.19c-2.577.397-3.965 2.381-4.362 4.364.595-.793 1.587-1.388 2.974-1.388 2.181 0 3.768 1.587 3.768 3.967 0 2.381-1.587 4.364-4.164 4.364-2.578 0-4.362-1.983-4.362-5.356 0-2.38.793-4.364 2.181-5.554.991-.992 2.379-1.587 3.965-1.785h1.19v1.388zm-.397 7.142c0-1.786-.991-2.778-2.577-2.778-.991 0-1.983.596-2.379 1.587-.199.199-.199.397-.199.794 0 1.983.992 3.57 2.776 3.57 1.388-.198 2.379-1.388 2.379-3.173zm3.569 2.181c.397.397 1.586.794 2.776.794 2.181 0 2.775-1.389 2.775-2.381 0-1.785-1.586-2.579-3.172-2.579h-.991v-1.388h.991c1.19 0 2.776-.595 2.776-2.182 0-.992-.595-1.785-2.181-1.785-.991 0-1.983.396-2.578.793l-.396-1.19c.595-.397 1.983-.992 3.172-.992 2.379 0 3.569 1.389 3.569 2.976 0 1.19-.793 2.38-2.379 2.975 1.586.397 2.776 1.389 2.776 3.174 0 1.983-1.587 3.769-4.561 3.769-1.387 0-2.577-.397-3.172-.794l.595-1.19zM286.44 303.932v-3.373h-5.948v-1.19l5.552-7.934h1.784v7.736h1.785v1.388h-1.785v3.373h-1.388zm0-4.563v-6.149c-.396.793-.595 1.19-.991 1.785l-2.974 4.166h3.965v.198zm4.363 1.587c0-1.587.991-2.777 2.379-3.372-1.388-.595-1.983-1.785-1.983-2.777 0-1.984 1.586-3.372 3.767-3.372 2.38 0 3.569 1.587 3.569 2.975 0 .992-.595 2.182-1.982 2.976 1.586.595 2.577 1.785 2.577 3.173 0 2.182-1.784 3.571-4.164 3.571-2.577.198-4.163-1.389-4.163-3.174zm6.741-.198c0-1.587-.992-2.182-2.776-2.777-1.388.396-2.181 1.388-2.181 2.578 0 1.191.991 2.381 2.578 2.381 1.388 0 2.379-.794 2.379-2.182zm-4.56-6.149c0 1.19.991 1.983 2.379 2.38.991-.397 1.983-1.19 1.983-2.182s-.595-1.984-2.181-1.984c-1.587-.198-2.181.595-2.181 1.786zm28.153-1.587h-4.758l-.397 3.173h.992c.991 0 1.982.199 2.775.595.992.596 1.785 1.587 1.785 3.174 0 2.381-1.983 4.166-4.56 4.166-1.388 0-2.578-.397-3.173-.794l.397-1.388c.595.397 1.586.595 2.577.595 1.586 0 2.974-.992 2.974-2.777 0-1.587-1.189-2.777-3.569-2.777-.793 0-1.189 0-1.784.198l.793-5.951h5.948v1.786zm9.517-.199h-1.19c-2.577.397-3.965 2.381-4.362 4.364.595-.793 1.586-1.388 2.974-1.388 2.181 0 3.767 1.587 3.767 3.967 0 2.182-1.586 4.364-4.163 4.364-2.578 0-4.362-1.984-4.362-5.356 0-2.38.793-4.364 2.181-5.554.991-.992 2.379-1.587 3.965-1.785h1.19v1.388zm-.397 7.141c0-1.785-.991-2.777-2.577-2.777-.992 0-1.983.595-2.379 1.587-.199.198-.199.397-.199.794 0 1.983.992 3.57 2.776 3.57 1.388-.198 2.379-1.388 2.379-3.174zm22.603-7.141h-1.19c-2.577.397-3.965 2.381-4.362 4.364.595-.793 1.586-1.388 2.974-1.388 2.181 0 3.767 1.587 3.767 3.967 0 2.182-1.586 4.364-4.163 4.364-2.578 0-4.362-1.984-4.362-5.356 0-2.38.793-4.364 2.181-5.554.991-.992 2.379-1.587 3.965-1.785h1.19v1.388zm-.397 7.141c0-1.785-.991-2.777-2.577-2.777-.992 0-1.983.595-2.379 1.587-.199.198-.199.397-.199.794 0 1.983.992 3.57 2.776 3.57 1.388-.198 2.379-1.388 2.379-3.174zm8.328 3.968v-3.373h-5.75v-1.19l5.551-7.934h1.785v7.736h1.784v1.388h-1.784v3.373h-1.586zm0-4.563v-6.149c-.397.793-.595 1.19-.992 1.785l-2.974 4.166h3.966v.198zm24.387-7.538v1.191l-5.353 11.306h-1.785l5.353-11.108h-6.146v-1.389h7.931zm1.784 12.497v-.992l1.388-1.19c3.173-2.975 4.56-4.562 4.56-6.546 0-1.19-.594-2.38-2.379-2.38-1.189 0-1.982.595-2.577.992l-.595-1.19c.793-.794 2.181-1.191 3.569-1.191 2.776 0 3.767 1.786 3.767 3.571 0 2.38-1.586 4.166-4.362 6.744l-.991.992h5.551v1.389h-7.931v-.199zm-98.737 21.423h-4.758l-.397 3.174h.991c.992 0 1.983.199 2.776.595.992.595 1.785 1.587 1.785 3.174 0 2.381-1.983 4.166-4.561 4.166-1.387 0-2.577-.397-3.172-.794l.397-1.19c.595.397 1.586.595 2.577.595 1.586 0 2.974-.992 2.974-2.777 0-1.587-1.189-2.777-3.569-2.777-.793 0-1.189 0-1.784.198l.793-5.95h5.948v1.586zm7.534 11.109v-3.372h-5.75v-1.19l5.552-7.935h1.784v7.736h1.785v1.389h-1.785v3.372h-1.586zm0-4.761v-6.149c-.396.793-.595 1.19-.991 1.785l-2.974 4.166h3.965v.198zm25.576-6.546h-1.19c-2.577.397-3.965 2.38-4.362 4.364.595-.793 1.587-1.388 2.974-1.388 2.181 0 3.768 1.586 3.768 3.967 0 2.38-1.587 4.364-4.164 4.364-2.578 0-4.362-1.984-4.362-5.356 0-2.38.793-4.364 2.181-5.554.991-.992 2.379-1.587 3.965-1.785h1.19v1.388zm-.595 7.141c0-1.785-.991-2.777-2.577-2.777-.992 0-1.983.595-2.38 1.587-.198.198-.198.397-.198.793 0 1.984.991 3.571 2.776 3.571 1.388-.198 2.379-1.389 2.379-3.174zm3.57 2.182c.396.397 1.586.794 2.775.794 2.181 0 2.776-1.389 2.776-2.381 0-1.785-1.586-2.578-3.172-2.578h-.991v-1.191h.991c1.189 0 2.776-.595 2.776-2.182 0-.991-.595-1.785-2.181-1.785-.992 0-1.983.397-2.578.794l-.396-1.191c.594-.396 1.982-.991 3.172-.991 2.379 0 3.569 1.388 3.569 2.975 0 1.19-.793 2.38-2.379 2.975 1.586.397 2.775 1.389 2.775 3.174 0 1.984-1.586 3.769-4.56 3.769-1.388 0-2.577-.397-3.172-.793l.595-1.389zm29.739-10.315v1.19l-5.353 11.307h-1.784l5.353-11.108h-6.146v-1.389h7.93zm1.587 12.497v-.992l1.388-1.19c3.172-2.975 4.56-4.562 4.56-6.546 0-1.19-.595-2.38-2.379-2.38-1.19 0-1.983.595-2.577.992l-.595-1.191c.793-.793 2.181-1.19 3.569-1.19 2.775 0 3.767 1.785 3.767 3.571 0 2.38-1.586 4.165-4.362 6.744l-.992.992h5.552v1.388h-7.931v-.198zm22.999-3.372c0-1.587.991-2.777 2.379-3.372-1.388-.595-1.983-1.785-1.983-2.777 0-1.984 1.586-3.372 3.767-3.372 2.38 0 3.569 1.586 3.569 2.975 0 .992-.595 2.182-1.982 2.975 1.586.596 2.577 1.786 2.577 3.174 0 2.182-1.784 3.571-4.164 3.571-2.577.198-4.163-1.389-4.163-3.174zm6.543-.198c0-1.587-.992-2.182-2.776-2.777-1.388.396-2.181 1.388-2.181 2.578s.991 2.381 2.577 2.381c1.587 0 2.38-.794 2.38-2.182zm-4.561-6.15c0 1.191.992 1.984 2.38 2.381.991-.397 1.982-1.19 1.982-2.182s-.594-1.984-2.181-1.984c-1.387-.198-2.181.595-2.181 1.785zm11.5-1.388l-2.181 1.19-.396-1.19 2.775-1.389h1.388v12.497h-1.586V325.95zm-104.091 31.54h-1.19c-2.577.397-3.965 2.38-4.362 4.364.595-.794 1.587-1.389 2.974-1.389 2.181 0 3.767 1.587 3.767 3.967 0 2.182-1.586 4.364-4.163 4.364-2.578 0-4.362-1.983-4.362-5.355 0-2.381.793-4.364 2.181-5.554.991-.992 2.379-1.587 3.965-1.786h1.19v1.389zm-.397 7.141c0-1.785-.991-2.777-2.577-2.777-.991 0-1.983.595-2.379 1.587-.199.198-.199.396-.199.793 0 1.984.992 3.571 2.776 3.571 1.388-.199 2.379-1.389 2.379-3.174zm11.501-2.381c0 4.166-1.587 6.546-4.362 6.546-2.38 0-4.164-2.38-4.164-6.348 0-4.165 1.784-6.546 4.362-6.546 2.577 0 4.164 2.381 4.164 6.348zm-6.742.198c0 3.174.992 5.158 2.578 5.158 1.784 0 2.577-1.984 2.577-5.158 0-2.975-.793-5.157-2.577-5.157-1.586 0-2.578 1.785-2.578 5.157zm29.344-6.148v1.19l-5.353 11.307h-1.785l5.354-11.108h-6.147V356.3h7.931zm10.111 5.95c0 4.166-1.586 6.546-4.362 6.546-2.379 0-4.163-2.38-4.163-6.348 0-4.165 1.784-6.546 4.362-6.546 2.577 0 4.163 2.381 4.163 6.348zm-6.939.198c0 3.174.991 5.158 2.577 5.158 1.785 0 2.578-1.984 2.578-5.158 0-2.975-.793-5.157-2.578-5.157-1.387 0-2.577 1.785-2.577 5.157zm20.818 2.976c0-1.587.992-2.777 2.379-3.372-1.387-.595-1.982-1.786-1.982-2.777 0-1.984 1.586-3.373 3.767-3.373 2.379 0 3.569 1.587 3.569 2.976 0 .992-.595 2.182-1.983 2.975 1.586.595 2.577 1.786 2.577 3.174 0 2.182-1.784 3.571-4.163 3.571-2.578.396-4.164-1.191-4.164-3.174zm6.741 0c0-1.587-.991-2.182-2.775-2.777-1.388.396-2.181 1.388-2.181 2.578 0 1.191.991 2.381 2.577 2.381 1.388 0 2.379-.794 2.379-2.182zm-4.758-6.149c0 1.19.991 1.983 2.379 2.38.991-.397 1.983-1.19 1.983-2.182s-.595-1.984-2.181-1.984c-1.388-.198-2.181.595-2.181 1.786zm16.258 2.975c0 4.166-1.587 6.546-4.362 6.546-2.38 0-4.164-2.38-4.164-6.348 0-4.165 1.784-6.546 4.362-6.546 2.776 0 4.164 2.381 4.164 6.348zm-6.742.198c0 3.174.992 5.158 2.578 5.158 1.784 0 2.577-1.984 2.577-5.158 0-2.975-.793-5.157-2.577-5.157-1.586 0-2.578 1.785-2.578 5.157zm21.017 4.96h1.388c.992-.198 1.983-.595 2.578-1.19.793-.794 1.388-1.786 1.586-3.372-.595.793-1.784 1.388-2.974 1.388-2.181 0-3.767-1.785-3.767-3.769 0-2.38 1.784-4.364 4.163-4.364 2.578 0 4.164 1.984 4.164 5.356 0 2.777-.991 4.761-2.181 5.753-.991.991-2.379 1.586-3.569 1.586-.594 0-1.189.199-1.586 0v-1.388h.198zm.595-7.141c0 1.587.992 2.579 2.379 2.579 1.19 0 1.983-.596 2.38-1.389 0-.198.198-.397.198-.595 0-2.182-.793-3.769-2.578-3.769-1.387.198-2.379 1.389-2.379 3.174zm16.456 1.983c0 4.166-1.586 6.546-4.362 6.546-2.379 0-4.163-2.38-4.163-6.348 0-4.165 1.784-6.546 4.362-6.546 2.577 0 4.163 2.381 4.163 6.348zm-6.741.198c0 3.174.991 5.158 2.578 5.158 1.784 0 2.577-1.984 2.577-5.158 0-2.975-.793-5.157-2.577-5.157-1.587 0-2.578 1.785-2.578 5.157z" fill="#fff"/><path d="M305.672 377.326h-31.921v31.936h31.921v-31.936z" fill="#354A37" stroke="#fff" stroke-miterlimit="10"/><path d="M337.594 377.326h-31.922v31.936h31.922v-31.936z" fill="#354A37" stroke="#fff" stroke-miterlimit="10"/><path d="M369.514 377.326h-31.921v31.936h31.921v-31.936z" fill="#354A37" stroke="#fff" stroke-miterlimit="10"/><path d="M401.237 377.326h-31.921v31.936h31.921v-31.936zm-95.565 31.738h-31.921V441h31.921v-31.936z" fill="#354A37" stroke="#fff" stroke-miterlimit="10"/><path d="M337.594 409.064h-31.922V441h31.922v-31.936z" fill="#354A37" stroke="#fff" stroke-miterlimit="10"/><path d="M369.514 409.064h-31.921V441h31.921v-31.936z" fill="#354A37" stroke="#fff" stroke-miterlimit="10"/><path d="M401.237 409.064h-31.921V441h31.921v-31.936z" fill="#354A37" stroke="#fff" stroke-miterlimit="10"/><path d="M374.67 422.156l-2.181 1.19-.397-1.19 2.776-1.389h1.388v12.497h-1.586v-11.108zm-86.644-32.532h-1.19c-2.577.397-3.965 2.381-4.362 4.364.595-.793 1.587-1.388 2.974-1.388 2.181 0 3.767 1.587 3.767 3.967s-1.586 4.364-4.163 4.364c-2.578 0-4.362-1.984-4.362-5.356 0-2.38.793-4.364 2.181-5.554.991-.992 2.379-1.587 3.965-1.785h1.19v1.388zm-.595 7.34c0-1.786-.991-2.777-2.577-2.777-.992 0-1.983.595-2.38 1.586-.198.199-.198.397-.198.794 0 1.984.991 3.57 2.776 3.57 1.388-.198 2.379-1.388 2.379-3.173zm10.311-7.34h-1.19c-2.577.397-3.965 2.381-4.362 4.364.595-.793 1.586-1.388 2.974-1.388 2.181 0 3.767 1.587 3.767 3.967s-1.586 4.364-4.163 4.364c-2.578 0-4.362-1.984-4.362-5.356 0-2.38.793-4.364 2.181-5.554.991-.992 2.379-1.587 3.965-1.785h1.19v1.388zm-.595 7.34c0-1.786-.991-2.777-2.578-2.777-.991 0-1.982.595-2.379 1.586-.198.199-.198.397-.198.794 0 1.984.991 3.57 2.776 3.57 1.388-.198 2.379-1.388 2.379-3.173zm24.387-8.53v1.19l-5.353 11.307h-1.784l5.353-11.108h-6.146v-1.389h7.93zm9.319 0v1.19l-5.354 11.307h-1.784l5.353-11.108h-6.146v-1.389h7.931zm14.869 9.521c0-1.586.992-2.777 2.379-3.372-1.387-.595-1.982-1.785-1.982-2.777 0-1.983 1.586-3.372 3.767-3.372 2.379 0 3.569 1.587 3.569 2.975 0 .992-.595 2.182-1.983 2.976 1.586.595 2.577 1.785 2.577 3.174 0 2.182-1.784 3.57-4.163 3.57-2.578.199-4.164-1.388-4.164-3.174zm6.741 0c0-1.586-.991-2.182-2.775-2.777-1.388.397-2.181 1.389-2.181 2.579 0 1.19.991 2.38 2.577 2.38 1.388 0 2.379-.991 2.379-2.182zm-4.56-6.347c0 1.19.991 1.983 2.379 2.38.992-.397 1.983-1.19 1.983-2.182s-.595-1.983-2.181-1.983c-1.586-.199-2.181.793-2.181 1.785zm8.129 6.347c0-1.586.992-2.777 2.379-3.372-1.387-.595-1.982-1.785-1.982-2.777 0-1.983 1.586-3.372 3.767-3.372 2.379 0 3.569 1.587 3.569 2.975 0 .992-.595 2.182-1.983 2.976 1.586.595 2.577 1.785 2.577 3.174 0 2.182-1.784 3.57-4.163 3.57-2.578.199-4.164-1.388-4.164-3.174zm6.741 0c0-1.586-.991-2.182-2.775-2.777-1.388.397-2.181 1.389-2.181 2.579 0 1.19.991 2.38 2.577 2.38 1.388 0 2.379-.991 2.379-2.182zm-4.56-6.347c0 1.19.991 1.983 2.379 2.38.992-.397 1.983-1.19 1.983-2.182s-.595-1.983-2.181-1.983c-1.586-.199-2.181.793-2.181 1.785zm19.43 8.133h1.388c.991-.199 1.983-.595 2.578-1.19.793-.794 1.387-1.786 1.586-3.373-.595.794-1.785 1.389-2.974 1.389-2.181 0-3.767-1.785-3.767-3.769 0-2.38 1.784-4.364 4.163-4.364 2.578 0 4.164 1.984 4.164 5.356 0 2.777-.991 4.761-2.181 5.951-.991.992-2.379 1.587-3.569 1.587-.595 0-1.19.198-1.586 0v-1.587h.198zm.595-7.141c0 1.587.991 2.578 2.379 2.578 1.19 0 1.983-.595 2.379-1.388 0-.199.199-.397.199-.595 0-2.182-.793-3.769-2.578-3.769-1.388.198-2.379 1.388-2.379 3.174zm9.12 6.942h1.388c.991-.198 1.983-.595 2.577-1.19.793-.793 1.388-1.785 1.587-3.372-.595.793-1.785 1.389-2.974 1.389-2.181 0-3.768-1.786-3.768-3.769 0-2.381 1.785-4.364 4.164-4.364 2.578 0 4.164 1.983 4.164 5.355 0 2.778-.992 4.761-2.181 5.951-.992.992-2.379 1.587-3.569 1.587-.595 0-1.19.199-1.586 0v-1.587h.198zm.595-7.141c0 1.587.991 2.579 2.379 2.579 1.19 0 1.983-.595 2.379-1.389 0-.198.199-.396.199-.595 0-2.182-.794-3.768-2.578-3.768-1.388.198-2.379 1.388-2.379 3.173zm-99.53 28.366v1.19l-5.353 11.307h-1.785l5.353-11.108h-6.146v-1.389h7.931zm1.785 12.497v-.992l1.387-1.19c3.173-2.976 4.561-4.562 4.561-6.546 0-1.19-.595-2.38-2.38-2.38-1.189 0-1.982.595-2.577.991l-.595-1.19c.793-.793 2.181-1.19 3.569-1.19 2.776 0 3.767 1.785 3.767 3.571 0 2.38-1.586 4.165-4.362 6.744l-.991.992h5.551v1.388h-7.93v-.198zm23.196-3.174c0-1.587.992-2.777 2.38-3.372-1.388-.595-1.983-1.785-1.983-2.777 0-1.984 1.586-3.372 3.767-3.372 2.379 0 3.569 1.586 3.569 2.975 0 .992-.595 2.182-1.983 2.975 1.586.596 2.578 1.786 2.578 3.174 0 2.182-1.785 3.571-4.164 3.571-2.578.198-4.164-1.389-4.164-3.174zm6.741-.198c0-1.587-.991-2.182-2.775-2.777-1.388.396-2.181 1.388-2.181 2.578s.991 2.381 2.577 2.381c1.388.198 2.379-.794 2.379-2.182zm-4.56-6.15c0 1.191.992 1.984 2.379 2.381.992-.397 1.983-1.19 1.983-2.182s-.595-1.984-2.181-1.984c-1.388-.198-2.181.794-2.181 1.785zm13.284 9.522v-3.372h-5.749v-1.19l5.551-7.935h1.785v7.736h1.784v1.389h-1.784v3.372h-1.587zm0-4.761v-6.149c-.396.793-.594 1.19-.991 1.785l-2.974 4.166h3.965v.198zm17.845 3.571h1.387c.992-.199 1.983-.595 2.578-1.19.793-.794 1.388-1.786 1.586-3.373-.595.794-1.784 1.389-2.974 1.389-2.181 0-3.767-1.785-3.767-3.769 0-2.38 1.784-4.364 4.164-4.364 2.577 0 4.163 1.984 4.163 5.356 0 2.777-.991 4.761-2.181 5.951-.991.992-2.379 1.587-3.569 1.587-.594 0-1.189.198-1.586 0v-1.587h.199zm.793-7.141c0 1.587.991 2.578 2.379 2.578 1.189 0 1.982-.595 2.379-1.388 0-.199.198-.397.198-.595 0-2.182-.793-3.769-2.577-3.769-1.388 0-2.379 1.388-2.379 3.174zm15.267-3.174h-1.388c-.991.198-1.983.595-2.577 1.19-.794.793-1.388 1.785-1.587 3.372.595-.793 1.785-1.388 2.974-1.388 2.181 0 3.768 1.785 3.768 3.768 0 2.381-1.785 4.364-4.164 4.364-2.578 0-4.164-1.983-4.164-5.355 0-2.777.992-4.761 2.181-5.951.992-.992 2.379-1.587 3.569-1.587.595 0 1.19-.199 1.586 0v1.587h-.198zm-.595 7.141c0-1.587-.991-2.579-2.379-2.579-1.19 0-1.983.595-2.379 1.389 0 .198-.199.396-.199.595 0 2.182.793 3.769 2.578 3.769 1.388-.199 2.379-1.389 2.379-3.174zm26.369-2.182c0 4.166-1.586 6.546-4.361 6.546-2.38 0-4.164-2.38-4.164-6.348 0-4.165 1.784-6.546 4.362-6.546 2.577 0 4.163 2.381 4.163 6.348zm-6.741.198c0 3.174.992 5.158 2.578 5.158 1.784 0 2.577-1.984 2.577-5.158 0-2.975-.793-5.157-2.577-5.157-1.586 0-2.578 1.785-2.578 5.157zm8.526 3.174c0-1.587.991-2.777 2.379-3.372-1.388-.595-1.982-1.785-1.982-2.777 0-1.984 1.586-3.372 3.767-3.372 2.379 0 3.568 1.586 3.568 2.975 0 .992-.594 2.182-1.982 2.975 1.586.596 2.577 1.786 2.577 3.174 0 2.182-1.784 3.571-4.163 3.571-2.578.198-4.164-1.389-4.164-3.174zm6.741 0c0-1.587-.991-2.182-2.776-2.777-1.388.397-2.181 1.388-2.181 2.579 0 1.19.992 2.38 2.578 2.38 1.388 0 2.379-.992 2.379-2.182zm-4.56-6.348c0 1.191.991 1.984 2.379 2.381.992-.397 1.983-1.19 1.983-2.182s-.595-1.984-2.181-1.984c-1.586-.198-2.181.794-2.181 1.785z" fill="#fff"/><path fill="#C4C4C4" d="M151.861 379.694h12.341v26.444h-12.341z"/><path d="M118.218 217.842H86.297v31.936h31.921v-31.936z" fill="#fff" stroke="#fff" stroke-miterlimit="10"/><path d="M151.059 217.842h-31.921v31.936h31.921v-31.936z" fill="#354A37" stroke="#fff" stroke-miterlimit="10"/><path d="M182.782 217.842h-31.921v31.936h31.921v-31.936zm31.921 0h-31.921v31.936h31.921v-31.936zm31.922 0h-31.921v31.936h31.921v-31.936z" fill="#354A37" stroke="#fff" stroke-miterlimit="10"/><path d="M118.217 249.778H86.296v31.937h31.921v-31.937z" fill="#fff" stroke="#fff" stroke-miterlimit="10"/><path d="M151.059 249.779h-31.921v31.936h31.921v-31.936z" fill="#354A37" stroke="#fff" stroke-miterlimit="10"/><path d="M182.782 249.779h-31.921v31.936h31.921v-31.936zm31.921 0h-31.921v31.936h31.921v-31.936zm31.922 0h-31.921v31.936h31.921v-31.936z" fill="#354A37" stroke="#fff" stroke-miterlimit="10"/><path d="M118.217 281.715H86.296v31.936h31.921v-31.936z" fill="#fff" stroke="#fff" stroke-miterlimit="10"/><path d="M151.059 281.715h-31.921v31.936h31.921v-31.936z" fill="#354A37" stroke="#fff" stroke-miterlimit="10"/><path d="M182.782 281.715h-31.921v31.936h31.921v-31.936zm31.921 0h-31.921v31.936h31.921v-31.936zm31.922 0h-31.921v31.936h31.921v-31.936z" fill="#354A37" stroke="#fff" stroke-miterlimit="10"/><path d="M118.217 313.453H86.296v31.936h31.921v-31.936z" fill="#fff" stroke="#fff" stroke-miterlimit="10"/><path d="M151.059 313.453h-31.921v31.936h31.921v-31.936z" fill="#354A37" stroke="#fff" stroke-miterlimit="10"/><path d="M182.782 313.453h-31.921v31.936h31.921v-31.936zm31.921 0h-31.921v31.936h31.921v-31.936zm31.922 0h-31.921v31.936h31.921v-31.936z" fill="#354A37" stroke="#fff" stroke-miterlimit="10"/><path d="M118.217 345.389H86.296v31.936h31.921v-31.936z" fill="#fff" stroke="#fff" stroke-miterlimit="10"/><path d="M151.059 345.389h-31.921v31.936h31.921v-31.936z" fill="#354A37" stroke="#fff" stroke-miterlimit="10"/><path d="M182.782 345.389h-31.921v31.936h31.921v-31.936zm31.921 0h-31.921v31.936h31.921v-31.936zm31.922 0h-31.921v31.936h31.921v-31.936z" fill="#354A37" stroke="#fff" stroke-miterlimit="10"/><path d="M130.241 230.538l-2.181 1.19-.397-1.19 2.776-1.389h1.388v12.497h-1.586v-11.108zm6.146 10.909v-.992l1.388-1.19c3.172-2.975 4.56-4.562 4.56-6.546 0-1.19-.595-2.38-2.379-2.38-1.19 0-1.983.595-2.578.992l-.595-1.191c.793-.793 2.181-1.19 3.569-1.19 2.776 0 3.767 1.786 3.767 3.571 0 2.38-1.586 4.165-4.362 6.744l-.991.992h5.551v1.389h-7.93v-.199zm25.774-11.107l-2.18 1.19-.397-1.19 2.776-1.389h1.586v12.497h-1.586V230.34h-.199zm6.147 7.735c0-1.587.991-2.777 2.379-3.372-1.388-.595-1.983-1.785-1.983-2.777 0-1.984 1.586-3.372 3.767-3.372 2.379 0 3.569 1.587 3.569 2.975 0 .992-.595 2.182-1.983 2.976 1.587.595 2.578 1.785 2.578 3.173 0 2.182-1.785 3.571-4.164 3.571-2.577.198-4.163-1.389-4.163-3.174zm6.741-.198c0-1.587-.992-2.182-2.776-2.777-1.388.396-2.181 1.388-2.181 2.578 0 1.191.991 2.381 2.578 2.381 1.387.198 2.379-.794 2.379-2.182zm-4.759-6.15c0 1.191.992 1.984 2.38 2.381.991-.397 1.982-1.19 1.982-2.182s-.595-1.984-2.181-1.984c-1.388-.198-2.181.595-2.181 1.785zm19.629 9.72v-.992l1.388-1.19c3.172-2.975 4.56-4.562 4.56-6.546 0-1.19-.595-2.38-2.379-2.38-1.19 0-1.983.595-2.578.992l-.595-1.191c.794-.793 2.181-1.19 3.569-1.19 2.776 0 3.767 1.786 3.767 3.571 0 2.38-1.586 4.165-4.361 6.744l-.992.992h5.552v1.389h-7.931v-.199zm15.069 0v-3.372h-5.75v-1.19l5.551-7.935h1.785v7.736h1.784v1.389h-1.784v3.372h-1.586zm0-4.761v-6.149c-.397.794-.595 1.19-.992 1.785l-2.974 4.166h3.966v.198zm18.24 2.579c.397.397 1.586.794 2.776.794 2.181 0 2.776-1.389 2.776-2.381 0-1.785-1.587-2.578-3.173-2.578h-.991v-1.191h.991c1.19 0 2.776-.595 2.776-2.182 0-.991-.595-1.785-2.181-1.785-.991 0-1.983.397-2.577.794l-.397-1.19c.595-.397 1.983-.992 3.172-.992 2.38 0 3.569 1.388 3.569 2.975 0 1.19-.793 2.38-2.379 2.976 1.586.396 2.776 1.388 2.776 3.173 0 1.984-1.586 3.769-4.56 3.769-1.388 0-2.578-.396-3.173-.793l.595-1.389zm-93.384 21.821l-2.181 1.19-.396-1.19 2.775-1.389h1.388v12.497h-1.586v-11.108zm11.5 10.711v-3.373h-5.75v-1.19l5.552-7.934h1.784v7.736h1.785v1.388h-1.785v3.373h-1.586zm0-4.563v-6.149c-.397.793-.595 1.19-.991 1.785l-2.974 4.166h3.965v.198zm19.232 4.563v-.992l1.388-1.19c3.172-2.976 4.56-4.563 4.56-6.546 0-1.191-.595-2.381-2.379-2.381-1.19 0-1.983.595-2.578.992l-.595-1.19c.793-.794 2.181-1.19 3.569-1.19 2.776 0 3.767 1.785 3.767 3.57 0 2.381-1.586 4.166-4.362 6.745l-.991.991h5.551v1.389h-7.93v-.198zm13.482-10.712l-2.181 1.19-.397-1.19 2.776-1.388h1.388v12.496h-1.586v-11.108zm16.06 10.514v-.992l1.388-1.19c3.172-2.976 4.56-4.563 4.56-6.546 0-1.19-.595-2.38-2.379-2.38-1.19 0-1.983.595-2.577.991l-.595-1.19c.793-.793 2.181-1.19 3.569-1.19 2.775 0 3.767 1.785 3.767 3.57 0 2.381-1.587 4.166-4.362 6.745l-.992.992h5.552v1.388h-7.931v-.198zm9.715-3.175c0-1.586.991-2.777 2.379-3.372-1.388-.595-1.982-1.785-1.982-2.777 0-1.983 1.586-3.372 3.767-3.372 2.379 0 3.568 1.587 3.568 2.976 0 .991-.594 2.182-1.982 2.975 1.586.595 2.577 1.785 2.577 3.174 0 2.182-1.784 3.57-4.163 3.57-2.578.199-4.164-1.19-4.164-3.174zm6.741 0c0-1.586-.991-2.182-2.776-2.777-1.388.397-2.181 1.389-2.181 2.579 0 1.19.992 2.38 2.578 2.38 1.388 0 2.379-.793 2.379-2.182zm-4.758-6.149c0 1.19.991 1.984 2.379 2.381.991-.397 1.983-1.191 1.983-2.182 0-.992-.595-1.984-2.181-1.984-1.388-.198-2.181.595-2.181 1.785zm21.809 7.538c.397.397 1.586.793 2.776.793 2.181 0 2.776-1.388 2.776-2.38 0-1.785-1.587-2.579-3.173-2.579h-.991v-1.388h.991c1.19 0 2.776-.595 2.776-2.182 0-.992-.595-1.785-2.181-1.785-.991 0-1.983.396-2.577.793l-.397-1.19c.595-.397 1.983-.992 3.172-.992 2.38 0 3.569 1.389 3.569 2.976 0 1.19-.793 2.38-2.379 2.975 1.586.397 2.776 1.389 2.776 3.174 0 1.983-1.586 3.769-4.56 3.769-1.388 0-2.578-.397-3.173-.794l.595-1.19zm-93.582 23.408l-2.181 1.19-.397-1.19 2.776-1.389h1.388v12.497h-1.586v-11.108zm13.283-.398h-1.189c-2.578.397-3.966 2.381-4.362 4.364.594-.793 1.586-1.388 2.974-1.388 2.181 0 3.767 1.587 3.767 3.967 0 2.182-1.586 4.364-4.164 4.364-2.577 0-4.362-1.984-4.362-5.356 0-2.38.793-4.364 2.181-5.554.992-.992 2.379-1.587 3.966-1.785h1.189v1.388zm-.595 7.141c0-1.785-.991-2.777-2.577-2.777-.991 0-1.983.595-2.379 1.587-.199.198-.199.397-.199.794 0 1.983.992 3.57 2.776 3.57 1.388-.198 2.379-1.388 2.379-3.174zm16.258 4.364v-.992l1.388-1.19c3.172-2.975 4.56-4.562 4.56-6.546 0-1.19-.595-2.38-2.379-2.38-1.19 0-1.983.595-2.577.992l-.595-1.19c.793-.794 2.181-1.191 3.569-1.191 2.775 0 3.767 1.786 3.767 3.571 0 2.38-1.586 4.166-4.362 6.744l-.992.992h5.552v1.389h-7.931v-.199zm15.069 0v-3.372h-5.75v-1.19l5.552-7.935h1.784v7.737h1.784v1.388h-1.784v3.372h-1.586zm0-4.76v-6.15c-.397.794-.595 1.19-.991 1.786l-2.974 4.165h3.965v.199zm16.655 2.578c.397.397 1.586.794 2.776.794 2.181 0 2.775-1.389 2.775-2.381 0-1.785-1.586-2.578-3.172-2.578h-.991v-1.19h.991c1.19 0 2.776-.596 2.776-2.182 0-.992-.595-1.786-2.181-1.786-.991 0-1.983.397-2.577.794l-.397-1.19c.595-.397 1.983-.992 3.172-.992 2.379 0 3.569 1.388 3.569 2.975 0 1.19-.793 2.381-2.379 2.976 1.586.396 2.776 1.388 2.776 3.173 0 1.984-1.587 3.769-4.561 3.769-1.387 0-2.577-.396-3.172-.793l.595-1.389zm9.319 1.786v-.992l1.388-1.19c3.172-2.976 4.56-4.563 4.56-6.546 0-1.191-.595-2.381-2.379-2.381-1.19 0-1.983.595-2.578.992l-.595-1.19c.793-.794 2.181-1.19 3.569-1.19 2.776 0 3.767 1.785 3.767 3.57 0 2.381-1.586 4.166-4.362 6.745l-.991.991h5.551v1.389h-7.93v-.198zm28.351 0v-3.372h-5.75v-1.19l5.552-7.935h1.784v7.736h1.785v1.389h-1.785v3.372h-1.586zm0-4.562v-6.15c-.396.794-.595 1.191-.991 1.786l-2.974 4.165h3.965v.199zm-98.34 26.58l-2.181 1.191-.397-1.191 2.776-1.388h1.388v12.497h-1.586V325.95zm5.947 7.736c0-1.587.992-2.777 2.379-3.372-1.387-.595-1.982-1.786-1.982-2.777 0-1.984 1.586-3.372 3.767-3.372 2.379 0 3.569 1.586 3.569 2.975 0 .992-.595 2.182-1.983 2.975 1.586.595 2.577 1.786 2.577 3.174 0 2.182-1.784 3.571-4.163 3.571-2.578.198-4.164-1.389-4.164-3.174zm6.741-.198c0-1.587-.991-2.182-2.775-2.778-1.388.397-2.181 1.389-2.181 2.579 0 1.19.991 2.381 2.577 2.381 1.388 0 2.379-.794 2.379-2.182zm-4.56-6.15c0 1.191.992 1.984 2.379 2.381.992-.397 1.983-1.191 1.983-2.182 0-.992-.595-1.984-2.181-1.984-1.388-.198-2.181.595-2.181 1.785zm21.017 9.72v-.992l1.387-1.19c3.173-2.975 4.561-4.562 4.561-6.546 0-1.19-.595-2.38-2.38-2.38-1.189 0-1.982.595-2.577.992l-.595-1.191c.793-.793 2.181-1.19 3.569-1.19 2.776 0 3.767 1.785 3.767 3.571 0 2.38-1.586 4.165-4.362 6.744l-.991.992h5.551v1.388h-7.93v-.198zm18.043-12.497v1.19l-5.354 11.307h-1.982l5.353-11.108h-6.146v-1.389h8.129zm13.283 10.315c.396.397 1.586.794 2.776.794 2.18 0 2.775-1.389 2.775-2.381 0-1.785-1.586-2.579-3.172-2.579h-.991v-1.19h.991c1.19 0 2.776-.595 2.776-2.182 0-.991-.595-1.785-2.181-1.785-.992 0-1.983.397-2.578.794l-.396-1.191c.595-.396 1.982-.991 3.172-.991 2.379 0 3.569 1.388 3.569 2.975 0 1.19-.793 2.38-2.379 2.975 1.586.397 2.775 1.389 2.775 3.174 0 1.984-1.586 3.769-4.56 3.769-1.388 0-2.577-.397-3.172-.793l.595-1.389zm16.456-9.323h-1.189c-2.578.397-3.966 2.38-4.362 4.364.594-.793 1.586-1.389 2.974-1.389 2.181 0 3.767 1.587 3.767 3.968 0 2.38-1.586 4.364-4.164 4.364-2.577 0-4.362-1.984-4.362-5.356 0-2.38.793-4.364 2.181-5.554.992-.992 2.379-1.587 3.966-1.785h1.189v1.388zm-.396 7.141c0-1.785-.992-2.777-2.578-2.777-.991 0-1.983.595-2.379 1.587-.198.198-.198.397-.198.793 0 1.984.991 3.571 2.775 3.571 1.388-.198 2.38-1.389 2.38-3.174zm22.008 4.166v-3.372h-5.75v-1.19l5.552-7.935h1.784v7.736h1.784v1.389h-1.784v3.372h-1.586zm0-4.761v-6.149c-.397.794-.595 1.19-.992 1.786l-2.974 4.165h3.966v.198z" fill="#fff"/><path d="M105.329 229.942h-1.19c-2.577.397-3.965 2.381-4.361 4.364.594-.793 1.586-1.388 2.974-1.388 2.181 0 3.767 1.587 3.767 3.967s-1.586 4.364-4.164 4.364c-2.577 0-4.362-1.984-4.362-5.356 0-2.38.793-4.364 2.181-5.554.991-.992 2.379-1.587 3.965-1.785h1.19v1.388zm-.396 7.141c0-1.785-.992-2.777-2.578-2.777-.991 0-1.983.595-2.38 1.587-.197 0-.197.397-.197.595 0 1.984.991 3.571 2.775 3.571 1.388 0 2.38-1.19 2.38-2.976zm1.387 22.415v1.19l-5.353 11.307h-1.983l5.354-11.108H98.39v-1.389h7.93zm-8.128 41.458c0-1.587.991-2.777 2.379-3.372-1.388-.595-1.983-1.785-1.983-2.777 0-1.984 1.587-3.372 3.768-3.372 2.379 0 3.568 1.587 3.568 2.975 0 .992-.594 2.182-1.982 2.976 1.586.595 2.577 1.785 2.577 3.173 0 2.182-1.784 3.571-4.163 3.571-2.776.198-4.164-1.389-4.164-3.174zm6.543-.198c0-1.587-.992-2.182-2.776-2.777-1.388.396-2.181 1.388-2.181 2.578 0 1.191.991 2.381 2.578 2.381 1.387 0 2.379-.794 2.379-2.182zm-4.56-6.149c0 1.19.991 1.983 2.379 2.38.991-.397 1.982-1.19 1.982-2.182s-.594-1.984-2.18-1.984c-1.388-.198-2.181.595-2.181 1.786zm-.992 41.061h1.388c.991-.199 1.982-.596 2.577-1.191.793-.793 1.388-1.785 1.586-3.372-.595.794-1.784 1.389-2.974 1.389-2.18 0-3.767-1.785-3.767-3.769 0-2.38 1.785-4.364 4.164-4.364 2.577 0 4.163 1.984 4.163 5.157 0 2.777-.991 4.761-2.181 5.951-.991.992-2.379 1.587-3.568 1.587-.595 0-1.19.198-1.587 0v-1.388h.199zm.595-7.34c0 1.587.991 2.579 2.379 2.579 1.189 0 1.982-.595 2.379-1.389 0-.198.198-.396.198-.595 0-2.182-.793-3.769-2.577-3.769-1.388.199-2.38 1.389-2.38 3.174zm-3.371 29.359l-2.18 1.19-.397-1.19 2.775-1.389h1.388v12.497h-1.586v-11.108zm14.474 4.561c0 4.166-1.587 6.546-4.362 6.546-2.38 0-4.164-2.38-4.164-6.348 0-4.165 1.784-6.546 4.362-6.546 2.577 0 4.164 2.381 4.164 6.348zm-6.742.198c0 3.174.992 5.158 2.578 5.158 1.784 0 2.577-1.984 2.577-5.158 0-2.975-.793-5.157-2.577-5.157-1.586 0-2.578 1.785-2.578 5.157z" fill="#354A37"/><path d="M126.87 368.598v-.992l1.388-1.19c3.172-2.975 4.56-4.562 4.56-6.546 0-1.19-.595-2.38-2.38-2.38-1.189 0-1.982.595-2.577.992l-.595-1.191c.793-.793 2.181-1.19 3.569-1.19 2.776 0 3.767 1.785 3.767 3.571 0 2.38-1.586 4.165-4.362 6.744l-.991.992h5.551v1.388h-7.93v-.198zm18.241-6.348c0 4.166-1.586 6.546-4.362 6.546-2.379 0-4.164-2.38-4.164-6.348 0-4.165 1.785-6.546 4.362-6.546 2.578 0 4.164 2.381 4.164 6.348zm-6.741.198c0 3.174.991 5.158 2.577 5.158 1.785 0 2.578-1.984 2.578-5.158 0-2.975-.793-5.157-2.578-5.157-1.586 0-2.577 1.785-2.577 5.157zm21.214 4.365c.397.397 1.586.793 2.776.793 2.181 0 2.776-1.388 2.776-2.38 0-1.785-1.587-2.579-3.173-2.579h-.991v-1.19h.991c1.19 0 2.776-.595 2.776-2.182 0-.992-.595-1.785-2.181-1.785-.991 0-1.983.396-2.577.793l-.397-1.19c.595-.397 1.983-.992 3.172-.992 2.38 0 3.569 1.389 3.569 2.976 0 1.19-.793 2.38-2.379 2.975 1.586.397 2.776 1.389 2.776 3.174 0 1.984-1.586 3.769-4.56 3.769-1.388 0-2.578-.397-3.173-.794l.595-1.388zm17.646-4.563c0 4.166-1.586 6.546-4.362 6.546-2.379 0-4.163-2.38-4.163-6.348 0-4.165 1.784-6.546 4.361-6.546 2.776 0 4.164 2.381 4.164 6.348zm-6.741.198c0 3.174.991 5.158 2.577 5.158 1.785 0 2.578-1.984 2.578-5.158 0-2.975-.793-5.157-2.578-5.157-1.586 0-2.577 1.785-2.577 5.157zm25.18 6.15v-3.372h-5.948v-1.19l5.552-7.935h1.784v7.736h1.785v1.389h-1.785v3.372h-1.388zm0-4.562v-6.15c-.396.794-.595 1.191-.991 1.786l-2.974 4.165h3.965v.199zm12.888-1.786c0 4.166-1.586 6.546-4.362 6.546-2.379 0-4.164-2.38-4.164-6.348 0-4.165 1.785-6.546 4.362-6.546 2.578 0 4.164 2.381 4.164 6.348zm-6.741.198c0 3.174.991 5.158 2.577 5.158 1.785 0 2.578-1.984 2.578-5.158 0-2.975-.793-5.157-2.578-5.157-1.586 0-2.577 1.785-2.577 5.157zm28.55-4.76h-4.758l-.397 3.174h.992c.991 0 1.982.198 2.775.595.992.595 1.785 1.587 1.785 3.174 0 2.38-1.983 4.165-4.56 4.165-1.388 0-2.578-.396-3.173-.793l.397-1.19c.595.397 1.586.595 2.577.595 1.586 0 2.974-.992 2.974-2.777 0-1.587-1.189-2.777-3.569-2.777-.793 0-1.189 0-1.784.198l.793-5.951h5.948v1.587z" fill="#fff"/><path d="M118.217 377.325H86.296v31.937h31.921v-31.937z" fill="#fff" stroke="#fff" stroke-miterlimit="10"/><path d="M96.605 390.219l-2.18 1.19-.397-1.19 2.776-1.388h1.388v12.497h-1.587v-11.109z" fill="#354A37"/><path d="M118.217 409.064H86.296V441h31.921v-31.936z" fill="#fff" stroke="#fff" stroke-miterlimit="10"/><path d="M96.605 422.155l-2.18 1.19-.397-1.19 2.776-1.388h1.388v12.497h-1.587v-11.109zm6.345 10.91v-.991l1.388-1.191c3.172-2.975 4.56-4.562 4.56-6.546 0-1.19-.595-2.38-2.379-2.38-1.19 0-1.983.595-2.577.992l-.595-1.19c.793-.794 2.181-1.191 3.569-1.191 2.775 0 3.767 1.786 3.767 3.571 0 2.38-1.586 4.166-4.362 6.744l-.992.992h5.552v1.389h-7.931v-.199zm3.371-42.846l-2.181 1.19-.397-1.388 2.776-1.389h1.388v12.497h-1.586v-10.91z" fill="#354A37"/><path d="M151.059 377.326h-31.921v31.936h31.921v-31.936z" fill="#354A37" stroke="#fff" stroke-miterlimit="10"/><path d="M182.781 377.326H150.86v31.936h31.921v-31.936zm31.921 0h-31.921v31.936h31.921v-31.936zm31.923 0h-31.921v31.936h31.921v-31.936z" fill="#354A37" stroke="#fff" stroke-miterlimit="10"/><path d="M151.059 409.064h-31.921V441h31.921v-31.936z" fill="#354A37" stroke="#fff" stroke-miterlimit="10"/><path d="M182.781 409.064H150.86V441h31.921v-31.936zm31.921 0h-31.921V441h31.921v-31.936zm31.923 0h-31.921V441h31.921v-31.936z" fill="#354A37" stroke="#fff" stroke-miterlimit="10"/><path d="M136.585 400.931v-.992l1.388-1.19c3.173-2.976 4.56-4.563 4.56-6.546 0-1.19-.594-2.38-2.379-2.38-1.189 0-1.982.595-2.577.991l-.595-1.19c.793-.793 2.181-1.19 3.569-1.19 2.776 0 3.767 1.785 3.767 3.57 0 2.381-1.586 4.166-4.362 6.745l-.991.992h5.551v1.388h-7.931v-.198zm-9.318 0v-.992l1.387-1.19c3.173-2.976 4.561-4.563 4.561-6.546 0-1.19-.595-2.38-2.38-2.38-1.189 0-1.982.595-2.577.991l-.595-1.19c.793-.793 2.181-1.19 3.569-1.19 2.776 0 3.767 1.785 3.767 3.57 0 2.381-1.586 4.166-4.362 6.745l-.991.992h5.551v1.388h-7.93v-.198zm42.032-2.182c.397.397 1.587.793 2.776.793 2.181 0 2.776-1.388 2.776-2.38 0-1.785-1.586-2.579-3.172-2.579h-.992v-1.19h.992c1.189 0 2.775-.595 2.775-2.182 0-.992-.594-1.785-2.181-1.785-.991 0-1.982.396-2.577.793l-.397-1.19c.595-.397 1.983-.992 3.173-.992 2.379 0 3.569 1.389 3.569 2.976 0 1.19-.794 2.38-2.38 2.975 1.586.397 2.776 1.389 2.776 3.174 0 1.983-1.586 3.769-4.56 3.769-1.388 0-2.578-.397-3.172-.794l.594-1.388zm-9.715 0c.397.397 1.586.793 2.776.793 2.181 0 2.776-1.388 2.776-2.38 0-1.785-1.587-2.579-3.173-2.579h-.991v-1.19h.991c1.19 0 2.776-.595 2.776-2.182 0-.992-.595-1.785-2.181-1.785-.991 0-1.983.396-2.577.793l-.397-1.19c.595-.397 1.983-.992 3.172-.992 2.38 0 3.569 1.389 3.569 2.976 0 1.19-.793 2.38-2.379 2.975 1.586.397 2.776 1.389 2.776 3.174 0 1.983-1.586 3.769-4.56 3.769-1.388 0-2.578-.397-3.173-.794l.595-1.388zm36.085 2.182v-3.372h-5.948v-1.191l5.552-7.934h1.784v7.736h1.785v1.389h-1.785v3.372h-1.388zm0-4.761v-6.149c-.396.793-.595 1.19-.991 1.785l-2.974 4.166h3.965v.198zm10.508 4.761v-3.372h-5.75v-1.191l5.552-7.934h1.784v7.736h1.785v1.389h-1.785v3.372h-1.586zm0-4.761v-6.149c-.397.793-.595 1.19-.991 1.785l-2.974 4.166h3.965v.198zm24.189-6.149h-4.758l-.397 3.174h.992c.991 0 1.982.198 2.775.595.992.595 1.785 1.587 1.785 3.174 0 2.38-1.983 4.165-4.56 4.165-1.388 0-2.578-.397-3.173-.793l.397-1.19c.595.396 1.586.595 2.577.595 1.586 0 2.974-.992 2.974-2.777 0-1.587-1.189-2.778-3.569-2.778-.793 0-1.189 0-1.784.199l.793-5.951h5.948v1.587zm10.068.212h-4.758l-.397 3.174h.991c.992 0 1.983.198 2.776.595.992.595 1.785 1.587 1.785 3.174 0 2.38-1.983 4.165-4.561 4.165-1.387 0-2.577-.396-3.172-.793l.397-1.19c.594.397 1.586.595 2.577.595 1.586 0 2.974-.992 2.974-2.777 0-1.587-1.189-2.777-3.569-2.777-.793 0-1.189 0-1.784.198l.793-5.951h5.948v1.587zm-113.167 42.832v-.991l1.387-1.191c3.173-2.975 4.561-4.562 4.561-6.546 0-1.19-.595-2.38-2.38-2.38-1.189 0-1.982.595-2.577.992l-.595-1.19c.793-.794 2.181-1.19 3.569-1.19 2.776 0 3.767 1.785 3.767 3.57 0 2.38-1.586 4.166-4.362 6.744l-.991.992h5.551v1.389h-7.93v-.199zm15.068 0v-3.372h-5.75v-1.19l5.552-7.934h1.784v7.736h1.785v1.388h-1.785v3.372h-1.586zm0-4.76v-6.15c-.396.794-.595 1.191-.991 1.786l-2.974 4.165h3.965v.199zm17.249 2.579c.397.396 1.586.793 2.776.793 2.181 0 2.776-1.389 2.776-2.38 0-1.786-1.587-2.579-3.173-2.579h-.991v-1.19h.991c1.19 0 2.776-.595 2.776-2.182 0-.992-.595-1.786-2.181-1.786-.991 0-1.983.397-2.577.794l-.397-1.19c.595-.397 1.983-.992 3.172-.992 2.38 0 3.569 1.389 3.569 2.975 0 1.191-.793 2.381-2.379 2.976 1.586.397 2.776 1.388 2.776 3.174 0 1.983-1.586 3.769-4.56 3.769-1.388 0-2.578-.397-3.173-.794l.595-1.388zm16.655-9.324h-1.189c-2.578.397-3.966 2.381-4.362 4.364.595-.793 1.586-1.388 2.974-1.388 2.181 0 3.767 1.587 3.767 3.967 0 2.381-1.586 4.364-4.164 4.364-2.577 0-4.362-1.983-4.362-5.356 0-2.38.793-4.364 2.181-5.554.992-.992 2.379-1.587 3.966-1.785h1.189v1.388zm-.595 7.142c0-1.786-.991-2.778-2.577-2.778-.991 0-1.983.596-2.379 1.587-.199.199-.199.397-.199.794 0 1.983.992 3.57 2.776 3.57 1.388 0 2.379-1.388 2.379-3.173zm20.422 4.364v-3.372h-5.75v-1.19l5.551-7.935h1.785v7.736h1.784v1.389h-1.784v3.372h-1.586zm0-4.761v-6.149c-.397.794-.595 1.19-.992 1.785l-2.974 4.166h3.966v.198zm4.362 1.587c0-1.587.991-2.777 2.379-3.372-1.388-.595-1.983-1.786-1.983-2.777 0-1.984 1.586-3.373 3.767-3.373 2.38 0 3.569 1.587 3.569 2.976 0 .992-.595 2.182-1.982 2.975 1.586.595 2.577 1.786 2.577 3.174 0 2.182-1.784 3.571-4.164 3.571-2.577.198-4.163-1.389-4.163-3.174zm6.741-.199c0-1.586-.991-2.182-2.776-2.777-1.388.397-2.181 1.389-2.181 2.579 0 1.19.991 2.38 2.578 2.38 1.388.199 2.379-.793 2.379-2.182zm-4.56-6.149c0 1.19.991 1.984 2.379 2.381.991-.397 1.983-1.191 1.983-2.182 0-.992-.595-1.984-2.181-1.984-1.388-.198-2.181.595-2.181 1.785zm27.36-1.785h-1.189c-2.578.397-3.966 2.38-4.362 4.364.595-.794 1.586-1.389 2.974-1.389 2.181 0 3.767 1.587 3.767 3.968 0 2.182-1.586 4.364-4.164 4.364-2.577 0-4.362-1.984-4.362-5.356 0-2.381.793-4.364 2.181-5.554.992-.992 2.379-1.587 3.966-1.786h1.189v1.389zm-.595 7.141c0-1.785-.991-2.777-2.577-2.777-.991 0-1.983.595-2.379 1.587-.199.198-.199.397-.199.793 0 1.984.992 3.571 2.776 3.571 1.388-.199 2.379-1.389 2.379-3.174zm12.25-2.296c0 4.165-1.586 6.546-4.362 6.546-2.379 0-4.164-2.381-4.164-6.348 0-4.166 1.785-6.546 4.362-6.546 2.776 0 4.164 2.38 4.164 6.348zm-6.741 0c0 3.173.991 5.157 2.577 5.157 1.784 0 2.578-1.984 2.578-5.157 0-2.976-.794-5.158-2.578-5.158-1.586 0-2.577 1.786-2.577 5.158zm6.189-191.915c0 4.165-1.586 6.546-4.362 6.546-2.379 0-4.163-2.381-4.163-6.348 0-4.166 1.784-6.546 4.362-6.546 2.577 0 4.163 2.38 4.163 6.348zm-6.741 0c0 3.173.992 5.157 2.578 5.157 1.784 0 2.577-1.984 2.577-5.157 0-2.976-.793-5.158-2.577-5.158-1.586 0-2.578 1.786-2.578 5.158zm6.147 25.787h-4.759l-.396 3.173h.991c.991 0 1.983.199 2.776.596.991.595 1.784 1.586 1.784 3.173 0 2.381-1.983 4.166-4.56 4.166-1.388 0-2.578-.397-3.172-.793l.396-1.191c.595.397 1.586.595 2.578.595 1.586 0 2.974-.991 2.974-2.777 0-1.587-1.19-2.777-3.569-2.777-.793 0-1.19 0-1.785.199l.793-5.951h5.949v1.587zm.793 36.895c0 4.166-1.586 6.546-4.362 6.546-2.379 0-4.163-2.38-4.163-6.347 0-4.166 1.784-6.546 4.362-6.546 2.577.198 4.163 2.38 4.163 6.347zm-6.741.199c0 3.173.991 5.157 2.578 5.157 1.784 0 2.577-1.984 2.577-5.157 0-2.976-.793-5.158-2.577-5.158-1.587 0-2.578 1.785-2.578 5.158zm6.146 27.969h-4.758l-.397 3.173h.992c.991 0 1.982.199 2.775.596.992.595 1.785 1.586 1.785 3.173 0 2.381-1.983 4.166-4.56 4.166-1.388 0-2.578-.397-3.173-.793l.397-1.191c.595.397 1.586.595 2.577.595 1.586 0 2.974-.991 2.974-2.777 0-1.587-1.189-2.777-3.568-2.777-.794 0-1.19 0-1.785.199l.793-5.951h5.948v1.587zm.396 36.498c0 4.166-1.586 6.546-4.362 6.546-2.379 0-4.164-2.38-4.164-6.347 0-4.166 1.785-6.546 4.362-6.546 2.578 0 4.164 2.38 4.164 6.347zm-6.741.199c0 3.173.991 5.157 2.577 5.157 1.785 0 2.578-1.984 2.578-5.157 0-2.976-.793-5.158-2.578-5.158-1.586 0-2.577 1.786-2.577 5.158z" fill="#fff"/><circle cx="458.17" cy="246.17" r="30.17" fill="#FFFEFD"/><path d="M450.676 259.314c-1.632 0-2.448-.816-2.448-2.448v-20.484c0-1.632.816-2.448 2.448-2.448h6.984c4.248 0 7.524 1.092 9.828 3.276 2.328 2.184 3.492 5.316 3.492 9.396 0 4.056-1.164 7.188-3.492 9.396-2.304 2.208-5.58 3.312-9.828 3.312h-6.984zm2.16-3.816h4.536c5.856 0 8.784-2.964 8.784-8.892 0-5.904-2.928-8.856-8.784-8.856h-4.536v17.748z" fill="#354A37"/><circle cx="458.17" cy="31.17" r="30.17" fill="#FFFEFD"/><path d="M450.676 44.314c-1.632 0-2.448-.816-2.448-2.448V21.382c0-1.632.816-2.448 2.448-2.448h8.64c2.664 0 4.728.588 6.192 1.764 1.464 1.152 2.196 2.76 2.196 4.824 0 1.368-.348 2.544-1.044 3.528-.696.984-1.656 1.704-2.88 2.16 1.44.408 2.556 1.128 3.348 2.16.816 1.008 1.224 2.292 1.224 3.852 0 2.256-.768 4.008-2.304 5.256-1.512 1.224-3.624 1.836-6.336 1.836h-9.036zm1.98-14.616h5.868c3.144 0 4.716-1.212 4.716-3.636 0-2.424-1.572-3.636-4.716-3.636h-5.868v7.272zm0 11.124h6.48c3.168 0 4.752-1.272 4.752-3.816 0-2.544-1.584-3.816-4.752-3.816h-6.48v7.632z" fill="#354A37"/><circle cx="30.17" cy="31.17" r="30.17" fill="#FFFEFD"/><path d="M19.48 44.602c-.84 0-1.44-.288-1.8-.864-.36-.576-.348-1.272.036-2.088l9.504-21.06c.312-.696.684-1.188 1.116-1.476a2.677 2.677 0 0 1 1.548-.468c.552 0 1.044.156 1.476.468.456.288.84.78 1.152 1.476l9.54 21.06c.384.84.408 1.548.072 2.124-.336.552-.912.828-1.728.828-.672 0-1.2-.156-1.584-.468-.36-.336-.684-.84-.972-1.512l-1.8-4.176H23.656l-1.764 4.176c-.312.696-.636 1.2-.972 1.512-.336.312-.816.468-1.44.468zm10.332-20.664L25.24 34.774h9.216l-4.572-10.836h-.072z" fill="#354A37"/></svg>