<svg width="390" height="404" viewBox="0 0 390 404" fill="none" xmlns="http://www.w3.org/2000/svg"><path d="M239.694 1H190v49.718h49.694V1z" fill="#fff" stroke="#fff" stroke-width="1.557" stroke-miterlimit="10"/><path d="M289.08 1h-49.694v49.718h49.694V1z" fill="#fff" stroke="#fff" stroke-width="1.557" stroke-miterlimit="10"/><path d="M338.774 1h-49.695v49.718h49.695V1zm49.694 0h-49.694v49.718h49.694V1z" fill="#fff" stroke="#fff" stroke-width="1.557" stroke-miterlimit="10"/><path d="M210.062 38.366v-1.544l2.16-1.853c4.939-4.632 7.1-7.103 7.1-10.19 0-1.854-.926-3.706-3.704-3.706-1.852 0-3.087.926-4.013 1.544l-1.235-2.162c1.235-1.235 3.396-1.853 5.556-1.853 4.322 0 5.865 2.78 5.865 5.559 0 3.705-2.469 6.485-6.791 10.5l-1.543 1.543h8.643v2.162h-12.038zm50.929-3.396c.617.617 2.469 1.234 4.321 1.234 3.396 0 4.322-2.161 4.322-3.705 0-2.78-2.47-4.015-4.939-4.015h-1.543v-1.853h1.543c1.852 0 4.321-.926 4.321-3.397 0-1.544-.926-2.779-3.395-2.779-1.543 0-3.087.618-4.013 1.235l-.617-1.853c.926-.617 3.087-1.543 4.939-1.543 3.704 0 5.556 2.161 5.556 4.632 0 1.852-1.235 3.705-3.704 4.632 2.469.617 4.321 2.161 4.321 4.94 0 3.089-2.469 5.868-7.099 5.868-2.161 0-4.013-.618-4.939-1.235l.926-2.162zm55.559 3.396v-5.25h-8.951v-1.852l8.643-12.353h2.778v12.044h2.777v2.161h-2.777v5.25h-2.47zm0-7.411v-9.573c-.617 1.235-.926 1.852-1.543 2.779l-4.63 6.485h6.173v.309zm54.632-10.191h-7.407l-.618 4.94h1.544c1.543 0 3.086.31 4.321.927 1.543.927 2.778 2.47 2.778 4.941 0 3.706-3.087 6.485-7.099 6.485-2.161 0-4.013-.617-4.939-1.235l.617-1.853c.926.618 2.47.926 4.013.926 2.469 0 4.63-1.544 4.63-4.323 0-2.47-1.852-4.323-5.556-4.323-1.235 0-1.852 0-2.778.309l1.235-9.264h9.259v2.47z" fill="#354A37"/><circle cx="47.492" cy="101.89" r="47.492" fill="#FFFEFD"/><path d="M48.051 121.457c-4.01 0-7.455-.802-10.335-2.406-2.844-1.64-5.031-3.937-6.562-6.89-1.531-2.989-2.297-6.507-2.297-10.554 0-4.046.766-7.546 2.297-10.499 1.531-2.953 3.718-5.231 6.562-6.836 2.88-1.64 6.325-2.46 10.335-2.46 2.005 0 3.974.255 5.906.765 1.932.51 3.627 1.24 5.085 2.188.948.62 1.513 1.367 1.696 2.242.182.838.072 1.622-.328 2.351-.401.693-1.003 1.167-1.805 1.422-.802.219-1.695 0-2.68-.656a12.145 12.145 0 0 0-3.663-1.586 16.398 16.398 0 0 0-3.992-.492c-3.9 0-6.872 1.184-8.914 3.554-2.041 2.333-3.062 5.669-3.062 10.007s1.02 7.692 3.062 10.062c2.042 2.37 5.013 3.554 8.914 3.554 1.385 0 2.752-.164 4.101-.492a14.785 14.785 0 0 0 3.828-1.64c.984-.62 1.86-.821 2.625-.602.765.219 1.33.675 1.695 1.367.4.656.529 1.386.383 2.188-.146.802-.638 1.512-1.477 2.132-1.458 1.057-3.208 1.878-5.25 2.461-2.004.547-4.046.82-6.124.82z" fill="#354A37"/><path fill="#C4C4C4" d="M239.052 305.78h19.426v41.627h-19.426z"/><path d="M186.093 51h-50.249v50.273h50.249V51.001z" fill="#fff" stroke="#fff" stroke-width="1.591" stroke-miterlimit="10"/><path d="M237.79 51h-50.248v50.273h50.248V51z" fill="#354A37" stroke="#fff" stroke-width="1.591" stroke-miterlimit="10"/><path d="M287.727 51h-50.249v50.273h50.249V51zm50.249 0h-50.249v50.273h50.249V51zm50.249 0h-50.249v50.273h50.249V51z" fill="#354A37" stroke="#fff" stroke-width="1.591" stroke-miterlimit="10"/><path d="M186.092 101.273h-50.249v50.273h50.249v-50.273z" fill="#fff" stroke="#fff" stroke-width="1.591" stroke-miterlimit="10"/><path d="M237.79 101.273h-50.248v50.273h50.248v-50.273z" fill="#354A37" stroke="#fff" stroke-width="1.591" stroke-miterlimit="10"/><path d="M287.727 101.273h-50.249v50.273h50.249v-50.273zm50.249 0h-50.249v50.273h50.249v-50.273zm50.249 0h-50.249v50.273h50.249v-50.273z" fill="#354A37" stroke="#fff" stroke-width="1.591" stroke-miterlimit="10"/><path d="M186.092 151.546h-50.249v50.273h50.249v-50.273z" fill="#fff" stroke="#fff" stroke-width="1.591" stroke-miterlimit="10"/><path d="M237.79 151.546h-50.248v50.273h50.248v-50.273z" fill="#354A37" stroke="#fff" stroke-width="1.591" stroke-miterlimit="10"/><path d="M287.727 151.546h-50.249v50.273h50.249v-50.273zm50.249 0h-50.249v50.273h50.249v-50.273zm50.249 0h-50.249v50.273h50.249v-50.273z" fill="#354A37" stroke="#fff" stroke-width="1.591" stroke-miterlimit="10"/><path d="M186.092 201.506h-50.249v50.273h50.249v-50.273z" fill="#fff" stroke="#fff" stroke-width="1.591" stroke-miterlimit="10"/><path d="M237.79 201.506h-50.248v50.273h50.248v-50.273z" fill="#354A37" stroke="#fff" stroke-width="1.591" stroke-miterlimit="10"/><path d="M287.727 201.506h-50.249v50.273h50.249v-50.273zm50.249 0h-50.249v50.273h50.249v-50.273zm50.249 0h-50.249v50.273h50.249v-50.273z" fill="#354A37" stroke="#fff" stroke-width="1.591" stroke-miterlimit="10"/><path d="M186.092 251.778h-50.249v50.273h50.249v-50.273z" fill="#fff" stroke="#fff" stroke-width="1.591" stroke-miterlimit="10"/><path d="M237.79 251.779h-50.248v50.273h50.248v-50.273z" fill="#354A37" stroke="#fff" stroke-width="1.591" stroke-miterlimit="10"/><path d="M287.727 251.779h-50.249v50.273h50.249v-50.273zm50.249 0h-50.249v50.273h50.249v-50.273zm50.249 0h-50.249v50.273h50.249v-50.273z" fill="#354A37" stroke="#fff" stroke-width="1.591" stroke-miterlimit="10"/><path d="M205.019 70.985l-3.433 1.873-.625-1.873 4.37-2.186h2.185V88.47h-2.497V70.985zm9.674 17.173v-1.561l2.185-1.873c4.994-4.684 7.178-7.182 7.178-10.305 0-1.873-.936-3.747-3.745-3.747-1.872 0-3.121.937-4.057 1.561l-.936-1.873c1.248-1.25 3.433-1.874 5.617-1.874 4.37 0 5.93 2.81 5.93 5.62 0 3.748-2.496 6.558-6.866 10.618l-1.56 1.56h8.739v2.186h-12.485v-.312zm40.574-17.484l-3.433 1.873-.625-1.873 4.37-2.186h2.497V88.16h-2.497V70.674h-.312zm9.675 12.176c0-2.498 1.561-4.372 3.745-5.308-2.184-.937-3.121-2.81-3.121-4.372 0-3.122 2.497-5.308 5.93-5.308 3.746 0 5.618 2.498 5.618 4.684 0 1.56-.936 3.434-3.121 4.683 2.497.937 4.058 2.81 4.058 4.996 0 3.435-2.809 5.621-6.555 5.621-4.057.312-6.554-2.186-6.554-4.996zm10.612-.312c0-2.498-1.561-3.435-4.37-4.372-2.185.625-3.433 2.186-3.433 4.06 0 1.873 1.561 3.746 4.057 3.746 2.185.313 3.746-1.248 3.746-3.434zm-7.491-9.68c0 1.873 1.561 3.122 3.745 3.747 1.561-.625 3.121-1.874 3.121-3.435s-.936-3.122-3.433-3.122c-2.184-.313-3.433.936-3.433 2.81zm30.899 15.3v-1.561l2.184-1.873c4.994-4.684 7.179-7.182 7.179-10.305 0-1.873-.936-3.747-3.745-3.747-1.873 0-3.121.937-4.058 1.561l-.936-1.873c1.248-1.25 3.433-1.874 5.618-1.874 4.369 0 5.93 2.81 5.93 5.62 0 3.748-2.497 6.558-6.867 10.618l-1.56 1.56h8.739v2.186h-12.484v-.312zm23.72 0V82.85h-9.051v-1.873l8.739-12.49h2.809v12.177h2.809v2.186h-2.809v5.308h-2.497zm0-7.494v-9.68c-.624 1.25-.936 1.874-1.561 2.81l-4.681 6.558h6.242v.312zm28.714 4.06c.624.624 2.497 1.248 4.369 1.248 3.433 0 4.37-2.185 4.37-3.746 0-2.81-2.497-4.06-4.994-4.06h-1.56v-1.873h1.56c1.873 0 4.37-.937 4.37-3.435 0-1.561-.937-2.81-3.434-2.81-1.56 0-3.121.624-4.057 1.249l-.624-1.874c.936-.624 3.121-1.561 4.993-1.561 3.746 0 5.618 2.186 5.618 4.684 0 1.873-1.248 3.747-3.745 4.683 2.497.625 4.37 2.186 4.37 4.996 0 3.123-2.497 5.933-7.179 5.933-2.185 0-4.057-.624-4.994-1.249l.937-2.186zm-147.002 34.349l-3.433 1.873-.624-1.873 4.369-2.186h2.185v19.672h-2.497v-17.486zm18.103 16.86v-5.309h-9.051v-1.873l8.739-12.49h2.809v12.178h2.809v2.185h-2.809v5.309h-2.497zm0-7.182v-9.68c-.624 1.249-.936 1.874-1.56 2.81l-4.682 6.558h6.242v.312zm30.274 7.182v-1.562l2.184-1.873c4.994-4.684 7.179-7.182 7.179-10.304 0-1.874-.937-3.747-3.746-3.747-1.872 0-3.121.936-4.057 1.561l-.936-1.874c1.248-1.249 3.433-1.873 5.618-1.873 4.369 0 5.93 2.81 5.93 5.62 0 3.747-2.497 6.558-6.867 10.617l-1.56 1.561h8.739v2.186h-12.484v-.312zm21.223-16.862l-3.434 1.874-.624-1.874 4.37-2.186h2.184v19.672h-2.496v-17.486zm25.281 16.551v-1.561l2.185-1.874c4.994-4.684 7.178-7.182 7.178-10.304 0-1.874-.936-3.747-3.745-3.747-1.873 0-3.121.936-4.057 1.561l-.937-1.874c1.249-1.249 3.433-1.873 5.618-1.873 4.37 0 5.93 2.81 5.93 5.62 0 3.748-2.497 6.558-6.866 10.617l-1.561 1.561h8.739v2.186h-12.484v-.312zm15.292-4.998c0-2.498 1.561-4.371 3.746-5.308-2.185-.937-3.121-2.81-3.121-4.372 0-3.122 2.496-5.308 5.93-5.308 3.745 0 5.617 2.498 5.617 4.684 0 1.561-.936 3.435-3.121 4.684 2.497.936 4.058 2.81 4.058 4.996 0 3.434-2.809 5.62-6.554 5.62-4.058.312-6.555-1.873-6.555-4.996zm10.612 0c0-2.498-1.561-3.435-4.37-4.371-2.184.624-3.433 2.185-3.433 4.059 0 1.873 1.561 3.747 4.058 3.747 2.184 0 3.745-1.249 3.745-3.435zm-7.491-9.68c0 1.874 1.561 3.123 3.746 3.747 1.56-.624 3.121-1.873 3.121-3.434 0-1.562-.937-3.123-3.433-3.123-2.185-.312-3.434.937-3.434 2.81zm34.332 11.866c.624.624 2.497 1.249 4.37 1.249 3.433 0 4.369-2.186 4.369-3.747 0-2.81-2.497-4.059-4.994-4.059h-1.56v-2.186h1.56c1.873 0 4.37-.937 4.37-3.435 0-1.561-.937-2.81-3.433-2.81-1.561 0-3.121.624-4.058 1.249l-.624-1.874c.936-.624 3.121-1.561 4.994-1.561 3.745 0 5.618 2.186 5.618 4.684 0 1.873-1.249 3.747-3.746 4.684 2.497.624 4.37 2.185 4.37 4.996 0 3.122-2.497 5.932-7.179 5.932-2.184 0-4.057-.624-4.993-1.249l.936-1.873zm-147.313 36.848l-3.433 1.873-.624-1.873 4.369-2.186h2.185v19.672h-2.497v-17.486zm20.911-.626h-1.873c-4.057.624-6.242 3.747-6.866 6.869.936-1.249 2.497-2.186 4.682-2.186 3.433 0 5.93 2.499 5.93 6.246 0 3.434-2.497 6.869-6.555 6.869-4.057 0-6.866-3.122-6.866-8.431 0-3.747 1.248-6.869 3.433-8.743 1.561-1.561 3.745-2.498 6.242-2.81h1.873v2.186zm-.936 11.241c0-2.81-1.561-4.372-4.058-4.372-1.56 0-3.121.937-3.745 2.498-.312.313-.312.625-.312 1.249 0 3.123 1.56 5.621 4.369 5.621 2.185-.312 3.746-2.186 3.746-4.996zm25.592 6.87v-1.562l2.185-1.873c4.993-4.684 7.178-7.182 7.178-10.304 0-1.874-.936-3.747-3.745-3.747-1.873 0-3.121.936-4.058 1.561l-.936-1.874c1.249-1.249 3.433-1.873 5.618-1.873 4.369 0 5.93 2.81 5.93 5.62 0 3.747-2.497 6.558-6.866 10.617l-1.561 1.561h8.739v2.186h-12.484v-.312zm23.72 0v-5.309h-9.051v-1.873l8.739-12.49h2.808v12.178h2.809v2.185h-2.809v5.309h-2.496zm0-7.494v-9.68c-.625 1.249-.937 1.873-1.561 2.81l-4.681 6.557h6.242v.313zm26.217 4.059c.625.624 2.497 1.249 4.37 1.249 3.433 0 4.369-2.186 4.369-3.747 0-2.811-2.496-4.06-4.993-4.06h-1.561v-1.873h1.561c1.872 0 4.369-.937 4.369-3.435 0-1.561-.936-2.81-3.433-2.81-1.56 0-3.121.624-4.057 1.249l-.625-1.874c.937-.624 3.122-1.561 4.994-1.561 3.745 0 5.618 2.186 5.618 4.684 0 1.873-1.248 3.747-3.745 4.684 2.497.624 4.369 2.185 4.369 4.996 0 3.122-2.497 5.932-7.178 5.932-2.185 0-4.058-.624-4.994-1.249l.936-2.185zm14.669 2.81v-1.561l2.185-1.874c4.994-4.684 7.179-7.182 7.179-10.304 0-1.874-.937-3.747-3.746-3.747-1.872 0-3.121.936-4.057 1.561l-.936-1.874c1.248-1.249 3.433-1.873 5.617-1.873 4.37 0 5.93 2.81 5.93 5.621 0 3.747-2.496 6.557-6.866 10.616l-1.56 1.561h8.739v2.186H314.88v-.312zm44.631.001v-5.308h-9.052v-1.874l8.739-12.49h2.809v12.178h2.809v2.186h-2.809v5.308h-2.496zm0-7.182v-9.68c-.625 1.249-.937 1.874-1.561 2.81l-4.682 6.558h6.243v.312zM204.707 221.18l-3.433 1.873-.624-1.873 4.369-2.186h2.185v19.672h-2.497V221.18zm9.363 12.176c0-2.498 1.561-4.372 3.745-5.308-2.184-.937-3.121-2.811-3.121-4.372 0-3.123 2.497-5.308 5.93-5.308 3.746 0 5.618 2.498 5.618 4.683 0 1.562-.936 3.435-3.121 4.684 2.497.937 4.057 2.811 4.057 4.996 0 3.435-2.808 5.621-6.554 5.621-4.057.312-6.554-2.186-6.554-4.996zm10.612-.312c0-2.498-1.561-3.435-4.37-4.372-2.185.625-3.433 2.186-3.433 4.059 0 1.874 1.561 3.747 4.057 3.747 2.185 0 3.746-1.249 3.746-3.434zm-7.179-9.68c0 1.873 1.561 3.122 3.745 3.747 1.561-.625 3.122-1.874 3.122-3.435s-.937-3.123-3.434-3.123c-2.184-.312-3.433.937-3.433 2.811zm33.082 15.3v-1.561l2.185-1.873c4.994-4.684 7.179-7.182 7.179-10.305 0-1.873-.937-3.747-3.746-3.747-1.872 0-3.121.937-4.057 1.562l-.936-1.874c1.248-1.249 3.433-1.874 5.618-1.874 4.369 0 5.93 2.811 5.93 5.621 0 3.747-2.497 6.557-6.867 10.617l-1.56 1.561h8.739v2.186h-12.485v-.313zm28.403-19.672v1.874l-8.427 17.798h-3.121l8.427-17.486h-9.676v-2.186h12.797zm20.91 16.237c.624.625 2.497 1.249 4.369 1.249 3.434 0 4.37-2.185 4.37-3.747 0-2.81-2.497-4.059-4.994-4.059h-1.56v-1.874h1.56c1.873 0 4.37-.936 4.37-3.434 0-1.562-.937-2.811-3.433-2.811-1.561 0-3.121.625-4.058 1.249l-.624-1.873c.936-.625 3.121-1.561 4.994-1.561 3.745 0 5.618 2.185 5.618 4.683 0 1.874-1.249 3.748-3.746 4.684 2.497.625 4.37 2.186 4.37 4.996 0 3.123-2.497 5.933-7.179 5.933-2.184 0-4.057-.624-4.993-1.249l.936-2.186zm25.905-14.676h-1.873c-4.057.625-6.242 3.748-6.866 6.87.936-1.249 2.497-2.186 4.682-2.186 3.433 0 5.93 2.498 5.93 6.245s-2.497 6.87-6.555 6.87c-4.057 0-6.866-3.123-6.866-8.431 0-3.747 1.249-6.87 3.433-8.743 1.561-1.561 3.746-2.498 6.242-2.81h1.873v2.185zm-.624 11.242c0-2.811-1.561-4.372-4.058-4.372-1.56 0-3.121.937-3.745 2.498-.312.312-.312.625-.312 1.249 0 3.123 1.561 5.621 4.37 5.621 2.184-.313 3.745-2.186 3.745-4.996zm34.644 6.558v-5.308h-9.051v-1.873l8.739-12.491h2.809v12.178h2.809v2.186h-2.809v5.308h-2.497zm0-7.494v-9.68c-.624 1.249-.937 1.874-1.561 2.811l-4.681 6.557h6.242v.312z" fill="#fff"/><path d="M165.804 70.048h-1.872c-4.058.624-6.243 3.747-6.867 6.87.937-1.25 2.497-2.187 4.682-2.187 3.433 0 5.93 2.498 5.93 6.245 0 3.748-2.497 6.87-6.554 6.87-4.058 0-6.867-3.123-6.867-8.43 0-3.748 1.249-6.87 3.433-8.744 1.561-1.561 3.746-2.498 6.243-2.81h1.872v2.186zm-.624 11.24c0-2.81-1.561-4.37-4.057-4.37-1.561 0-3.121.936-3.746 2.497-.312 0-.312.625-.312.937 0 3.123 1.561 5.62 4.37 5.62 2.184 0 3.745-1.873 3.745-4.683zm2.185 35.285v1.874l-8.427 17.798h-3.121l8.426-17.486h-9.363v-2.186h12.485zm-12.796 65.261c0-2.498 1.56-4.371 3.745-5.308-2.185-.937-3.121-2.811-3.121-4.372 0-3.122 2.497-5.308 5.93-5.308 3.745 0 5.618 2.498 5.618 4.684 0 1.561-.936 3.435-3.121 4.684 2.497.936 4.057 2.81 4.057 4.996 0 3.434-2.809 5.62-6.554 5.62-4.369.312-6.554-2.186-6.554-4.996zm10.299-.312c0-2.498-1.56-3.435-4.369-4.372-2.185.625-3.433 2.186-3.433 4.06 0 1.873 1.56 3.747 4.057 3.747 2.185 0 3.745-1.249 3.745-3.435zm-7.178-9.68c0 1.874 1.56 3.123 3.745 3.747 1.561-.624 3.121-1.874 3.121-3.435s-.936-3.122-3.433-3.122c-2.185-.313-3.433.936-3.433 2.81zm-1.561 64.637h2.185c1.56-.312 3.121-.937 4.057-1.874 1.248-1.249 2.185-2.81 2.497-5.308-.936 1.249-2.809 2.186-4.682 2.186-3.433 0-5.93-2.811-5.93-5.933 0-3.747 2.809-6.87 6.555-6.87 4.057 0 6.554 3.123 6.554 8.119 0 4.371-1.561 7.494-3.433 9.368-1.561 1.561-3.746 2.498-5.618 2.498-.937 0-1.873.312-2.497 0v-2.186h.312zm.936-11.554c0 2.498 1.561 4.06 3.746 4.06 1.872 0 3.121-.937 3.745-2.186 0-.312.312-.625.312-.937 0-3.435-1.249-5.933-4.057-5.933-2.185.313-3.746 2.186-3.746 4.996zm-5.306 46.215l-3.433 1.874-.624-1.874 4.369-2.186h2.185v19.672h-2.497V271.14zm22.784 7.18c0 6.558-2.497 10.305-6.866 10.305-3.746 0-6.554-3.747-6.554-9.993 0-6.557 2.808-10.304 6.866-10.304 4.057 0 6.554 3.747 6.554 9.992zm-10.612.312c0 4.997 1.561 8.119 4.058 8.119 2.809 0 4.057-3.122 4.057-8.119 0-4.683-1.248-8.118-4.057-8.118-2.497 0-4.058 2.81-4.058 8.118z" fill="#354A37"/><path d="M199.713 288.313v-1.561l2.184-1.873c4.994-4.684 7.179-7.182 7.179-10.305 0-1.873-.937-3.747-3.745-3.747-1.873 0-3.122.937-4.058 1.561l-.936-1.873c1.248-1.249 3.433-1.874 5.618-1.874 4.369 0 5.93 2.811 5.93 5.621 0 3.747-2.497 6.557-6.867 10.617l-1.56 1.561h8.739v2.186h-12.484v-.313zm28.714-9.993c0 6.558-2.497 10.305-6.866 10.305-3.745 0-6.554-3.747-6.554-9.993 0-6.557 2.809-10.304 6.866-10.304 4.057 0 6.554 3.747 6.554 9.992zm-10.611.312c0 4.997 1.56 8.119 4.057 8.119 2.809 0 4.057-3.122 4.057-8.119 0-4.683-1.248-8.118-4.057-8.118-2.497 0-4.057 2.81-4.057 8.118zm33.394 6.871c.624.625 2.497 1.249 4.37 1.249 3.433 0 4.369-2.186 4.369-3.747 0-2.81-2.497-4.059-4.994-4.059h-1.56v-1.874h1.56c1.873 0 4.37-.937 4.37-3.435 0-1.561-.936-2.81-3.433-2.81-1.561 0-3.121.625-4.058 1.249l-.624-1.873c.937-.625 3.121-1.562 4.994-1.562 3.745 0 5.618 2.186 5.618 4.684 0 1.874-1.249 3.747-3.745 4.684 2.496.624 4.369 2.186 4.369 4.996 0 3.123-2.497 5.933-7.178 5.933-2.185 0-4.058-.625-4.994-1.249l.936-2.186zm27.778-7.183c0 6.558-2.497 10.305-6.867 10.305-3.745 0-6.554-3.747-6.554-9.993 0-6.557 2.809-10.304 6.866-10.304 4.37 0 6.555 3.747 6.555 9.992zm-10.612.312c0 4.997 1.561 8.119 4.057 8.119 2.809 0 4.058-3.122 4.058-8.119 0-4.683-1.249-8.118-4.058-8.118-2.496 0-4.057 2.81-4.057 8.118zm39.637 9.681v-5.308h-9.363v-1.874l8.739-12.49h2.808v12.178h2.809v2.186h-2.809v5.308h-2.184zm0-7.182v-9.679c-.624 1.249-.937 1.873-1.561 2.81l-4.681 6.557h6.242v.312zm20.287-2.811c0 6.558-2.497 10.305-6.866 10.305-3.746 0-6.555-3.747-6.555-9.993 0-6.557 2.809-10.304 6.867-10.304 4.057 0 6.554 3.747 6.554 9.992zm-10.612.312c0 4.997 1.561 8.119 4.058 8.119 2.809 0 4.057-3.122 4.057-8.119 0-4.683-1.248-8.118-4.057-8.118-2.497 0-4.058 2.81-4.058 8.118zm44.944-7.493h-7.491l-.624 4.996h1.56c1.561 0 3.121.313 4.37.937 1.56.937 2.809 2.498 2.809 4.996 0 3.747-3.121 6.558-7.179 6.558-2.184 0-4.057-.625-4.993-1.249l.624-1.874c.936.625 2.497.937 4.057.937 2.497 0 4.682-1.561 4.682-4.372 0-2.498-1.873-4.371-5.618-4.371-1.248 0-1.873 0-2.809.312l1.248-9.368h9.364v2.498z" fill="#fff"/><path d="M186.092 302.051h-50.249v50.273h50.249v-50.273z" fill="#fff" stroke="#fff" stroke-width="1.591" stroke-miterlimit="10"/><path d="M152.072 322.348l-3.433 1.874-.625-1.874 4.37-2.185h2.185v19.672h-2.497v-17.487z" fill="#354A37"/><path d="M186.092 352.012h-50.249v50.273h50.249v-50.273z" fill="#fff" stroke="#fff" stroke-width="1.591" stroke-miterlimit="10"/><path d="M152.072 372.62l-3.433 1.874-.625-1.874 4.37-2.185h2.185v19.672h-2.497V372.62zm9.988 17.175v-1.562l2.184-1.873c4.994-4.684 7.179-7.182 7.179-10.305 0-1.873-.937-3.747-3.746-3.747-1.872 0-3.121.937-4.057 1.562l-.936-1.874c1.248-1.249 3.433-1.873 5.618-1.873 4.369 0 5.93 2.81 5.93 5.62 0 3.747-2.497 6.557-6.867 10.617l-1.56 1.561h8.739v2.186H162.06v-.312zm5.305-67.447l-3.433 1.873-.625-2.185 4.37-2.186h2.185v19.672h-2.497v-17.174z" fill="#354A37"/><path d="M237.79 302.052h-50.249v50.273h50.249v-50.273z" fill="#354A37" stroke="#fff" stroke-width="1.591" stroke-miterlimit="10"/><path d="M287.726 302.052h-50.248v50.273h50.248v-50.273zm50.249 0h-50.249v50.273h50.249v-50.273zm50.25 0h-50.249v50.273h50.249v-50.273z" fill="#354A37" stroke="#fff" stroke-width="1.591" stroke-miterlimit="10"/><path d="M237.79 352.012h-50.249v50.273h50.249v-50.273z" fill="#354A37" stroke="#fff" stroke-width="1.591" stroke-miterlimit="10"/><path d="M287.726 352.012h-50.248v50.273h50.248v-50.273zm50.249 0h-50.249v50.273h50.249v-50.273zm50.25 0h-50.249v50.273h50.249v-50.273z" fill="#354A37" stroke="#fff" stroke-width="1.591" stroke-miterlimit="10"/><path d="M215.007 339.21v-1.561l2.185-1.874c4.993-4.684 7.178-7.182 7.178-10.304 0-1.874-.936-3.747-3.745-3.747-1.873 0-3.121.936-4.058 1.561l-.936-1.874c1.248-1.249 3.433-1.873 5.618-1.873 4.369 0 5.93 2.81 5.93 5.62 0 3.747-2.497 6.558-6.866 10.617l-1.561 1.561h8.739v2.186h-12.484v-.312zm-14.67 0v-1.561l2.185-1.874c4.993-4.684 7.178-7.182 7.178-10.304 0-1.874-.936-3.747-3.745-3.747-1.873 0-3.121.936-4.058 1.561l-.936-1.874c1.249-1.249 3.433-1.873 5.618-1.873 4.369 0 5.93 2.81 5.93 5.62 0 3.747-2.497 6.558-6.866 10.617l-1.561 1.561h8.739v2.186h-12.484v-.312zm66.166-3.435c.625.625 2.497 1.249 4.37 1.249 3.433 0 4.369-2.185 4.369-3.747 0-2.81-2.496-4.059-4.993-4.059h-1.561v-1.874h1.561c1.872 0 4.369-.936 4.369-3.434 0-1.562-.936-2.811-3.433-2.811-1.561 0-3.121.625-4.057 1.249l-.625-1.873c.937-.625 3.121-1.561 4.994-1.561 3.745 0 5.618 2.185 5.618 4.683 0 1.874-1.248 3.747-3.745 4.684 2.497.625 4.369 2.186 4.369 4.996 0 3.123-2.497 5.933-7.178 5.933-2.185 0-4.058-.624-4.994-1.249l.936-2.186zm-15.293 0c.624.625 2.497 1.249 4.37 1.249 3.433 0 4.369-2.185 4.369-3.747 0-2.81-2.497-4.059-4.994-4.059h-1.56v-1.874h1.56c1.873 0 4.37-.936 4.37-3.434 0-1.562-.936-2.811-3.433-2.811-1.561 0-3.121.625-4.058 1.249l-.624-1.873c.937-.625 3.121-1.561 4.994-1.561 3.745 0 5.618 2.185 5.618 4.683 0 1.874-1.249 3.747-3.745 4.684 2.496.625 4.369 2.186 4.369 4.996 0 3.123-2.497 5.933-7.178 5.933-2.185 0-4.058-.624-4.994-1.249l.936-2.186zm56.803 3.435v-5.309h-9.363v-1.873l8.739-12.49h2.808v12.178h2.809v2.185h-2.809v5.309h-2.184zm0-7.494v-9.68c-.624 1.249-.937 1.873-1.561 2.81l-4.681 6.557h6.242v.313zm16.541 7.494v-5.309h-9.051v-1.873l8.739-12.49h2.809v12.178h2.809v2.185h-2.809v5.309h-2.497zm0-7.494v-9.68c-.624 1.249-.936 1.873-1.56 2.81l-4.682 6.557h6.242v.313zm38.078-9.68h-7.491l-.624 4.996h1.56c1.561 0 3.121.312 4.37.937 1.56.936 2.809 2.498 2.809 4.996 0 3.747-3.121 6.557-7.179 6.557-2.184 0-4.057-.624-4.993-1.249l.624-1.873c.936.624 2.497.936 4.057.936 2.497 0 4.682-1.561 4.682-4.371 0-2.498-1.873-4.372-5.618-4.372-1.248 0-1.873 0-2.809.312l1.248-9.367h9.364v2.498zm15.848.334h-7.49l-.624 4.996h1.56c1.561 0 3.121.312 4.37.937 1.56.937 2.808 2.498 2.808 4.996 0 3.747-3.121 6.557-7.178 6.557-2.185 0-4.057-.624-4.994-1.249l.625-1.873c.936.624 2.496.937 4.057.937 2.497 0 4.682-1.562 4.682-4.372 0-2.498-1.873-4.372-5.618-4.372-1.249 0-1.873 0-2.809.313l1.248-9.368h9.363v2.498zm-178.143 67.425v-1.562l2.185-1.873c4.993-4.684 7.178-7.182 7.178-10.305 0-1.873-.936-3.747-3.745-3.747-1.873 0-3.121.937-4.058 1.562l-.936-1.874c1.249-1.249 3.433-1.873 5.618-1.873 4.369 0 5.93 2.81 5.93 5.62 0 3.747-2.497 6.557-6.866 10.617l-1.561 1.561h8.739v2.186h-12.484v-.312zm23.721 0v-5.309h-9.051v-1.873l8.739-12.49h2.809V382.3h2.809v2.186h-2.809v5.309h-2.497zm0-7.495v-9.679c-.624 1.249-.936 1.873-1.561 2.81l-4.681 6.557h6.242v.312zm27.152 4.06c.624.624 2.497 1.249 4.37 1.249 3.433 0 4.369-2.186 4.369-3.747 0-2.81-2.497-4.059-4.994-4.059h-1.56v-1.874h1.56c1.873 0 4.37-.937 4.37-3.435 0-1.561-.936-2.81-3.433-2.81-1.561 0-3.121.625-4.058 1.249l-.624-1.873c.937-.625 3.121-1.562 4.994-1.562 3.745 0 5.618 2.186 5.618 4.684 0 1.874-1.249 3.747-3.745 4.684 2.496.624 4.369 2.186 4.369 4.996 0 3.122-2.497 5.933-7.178 5.933-2.185 0-4.058-.625-4.994-1.249l.936-2.186zm26.218-14.676h-1.873c-4.057.625-6.242 3.747-6.866 6.87.936-1.249 2.497-2.186 4.681-2.186 3.434 0 5.93 2.498 5.93 6.245s-2.496 6.869-6.554 6.869c-4.057 0-6.866-3.122-6.866-8.43 0-3.747 1.248-6.87 3.433-8.743 1.561-1.562 3.745-2.498 6.242-2.811h1.873v2.186zm-.937 11.241c0-2.81-1.56-4.371-4.057-4.371-1.56 0-3.121.936-3.745 2.498-.312.312-.312.624-.312 1.249 0 3.122 1.56 5.62 4.369 5.62 2.185 0 3.745-2.186 3.745-4.996zm32.146 6.871v-5.308h-9.051v-1.874l8.739-12.49h2.809v12.178h2.809v2.186h-2.809v5.308h-2.497zm0-7.494v-9.68c-.624 1.249-.936 1.874-1.561 2.81l-4.681 6.558h6.242v.312zm6.867 2.497c0-2.498 1.56-4.372 3.745-5.308-2.185-.937-3.121-2.811-3.121-4.372 0-3.122 2.497-5.308 5.93-5.308 3.745 0 5.618 2.498 5.618 4.684 0 1.561-.936 3.434-3.121 4.683 2.497.937 4.057 2.811 4.057 4.996 0 3.435-2.809 5.621-6.554 5.621-4.057.312-6.554-2.186-6.554-4.996zm10.611-.312c0-2.498-1.56-3.435-4.369-4.372-2.185.625-3.433 2.186-3.433 4.059 0 1.874 1.56 3.747 4.057 3.747 2.185.313 3.745-1.249 3.745-3.434zm-7.178-9.68c0 1.873 1.561 3.122 3.745 3.747 1.561-.625 3.121-1.874 3.121-3.435s-.936-3.122-3.433-3.122c-2.185-.313-3.433.936-3.433 2.81zm43.07-2.81h-1.872c-4.058.624-6.242 3.747-6.867 6.869.937-1.249 2.497-2.186 4.682-2.186 3.433 0 5.93 2.498 5.93 6.245 0 3.435-2.497 6.87-6.554 6.87-4.058 0-6.867-3.123-6.867-8.431 0-3.747 1.249-6.869 3.434-8.743 1.56-1.561 3.745-2.498 6.242-2.81h1.872v2.186zm-.936 11.241c0-2.811-1.561-4.372-4.057-4.372-1.561 0-3.121.937-3.746 2.498-.312.312-.312.625-.312 1.249 0 3.123 1.561 5.621 4.37 5.621 2.185-.313 3.745-2.186 3.745-4.996zm19.282-3.615c0 6.558-2.497 10.305-6.866 10.305-3.746 0-6.555-3.747-6.555-9.993 0-6.557 2.809-10.304 6.867-10.304 4.369 0 6.554 3.747 6.554 9.992zm-10.612 0c0 4.996 1.561 8.119 4.058 8.119 2.809 0 4.057-3.123 4.057-8.119 0-4.684-1.248-8.118-4.057-8.118-2.497 0-4.058 2.81-4.058 8.118zm9.744-302.104c0 6.557-2.497 10.304-6.866 10.304-3.746 0-6.555-3.747-6.555-9.992 0-6.557 2.809-10.304 6.867-10.304 4.057 0 6.554 3.747 6.554 9.992zm-10.612 0c0 4.996 1.561 8.118 4.058 8.118 2.809 0 4.057-3.122 4.057-8.118 0-4.684-1.248-8.119-4.057-8.119-2.497 0-4.058 2.81-4.058 8.119zm9.676 40.593h-7.491l-.624 4.996h1.56c1.561 0 3.121.313 4.37.937 1.56.937 2.809 2.498 2.809 4.996 0 3.747-3.121 6.557-7.179 6.557-2.184 0-4.057-.624-4.993-1.249l.624-1.873c.936.624 2.497.937 4.057.937 2.497 0 4.682-1.562 4.682-4.372 0-2.498-1.873-4.371-5.618-4.371-1.248 0-1.873 0-2.809.312l1.248-9.368h9.364v2.498zm1.248 58.08c0 6.557-2.497 10.304-6.866 10.304-3.745 0-6.554-3.747-6.554-9.992 0-6.558 2.809-10.305 6.866-10.305 4.057.313 6.554 3.747 6.554 9.993zm-10.611.312c0 4.996 1.56 8.118 4.057 8.118 2.809 0 4.057-3.122 4.057-8.118 0-4.684-1.248-8.119-4.057-8.119-2.497 0-4.057 2.81-4.057 8.119zm9.675 44.027h-7.49l-.624 4.996h1.56c1.561 0 3.121.313 4.37.937 1.56.937 2.809 2.498 2.809 4.996 0 3.747-3.122 6.557-7.179 6.557-2.185 0-4.057-.624-4.994-1.249l.625-1.873c.936.624 2.497.937 4.057.937 2.497 0 4.682-1.562 4.682-4.372 0-2.498-1.873-4.371-5.618-4.371-1.249 0-1.873 0-2.809.312l1.248-9.368h9.363v2.498zm.623 57.455c0 6.557-2.497 10.304-6.866 10.304-3.745 0-6.554-3.747-6.554-9.992 0-6.557 2.809-10.304 6.866-10.304 4.057 0 6.554 3.747 6.554 9.992zm-10.611.312c0 4.996 1.56 8.119 4.057 8.119 2.809 0 4.057-3.123 4.057-8.119 0-4.684-1.248-8.118-4.057-8.118-2.497 0-4.057 2.81-4.057 8.118z" fill="#fff"/></svg>