<svg width="60" height="60" viewBox="0 0 60 60" fill="none" xmlns="http://www.w3.org/2000/svg"><path d="M24.397 35.6H8.764c-.97 0-1.757.787-1.757 1.757v8.909c0 .97.786 1.757 1.757 1.757h15.633c.97 0 1.757-.787 1.757-1.757v-8.909c0-.97-.787-1.757-1.757-1.757zm-1.757 8.91H10.52v-5.395h12.12v5.395zm1.79-15.898H8.763a1.757 1.757 0 0 0 0 3.513h15.665a1.757 1.757 0 1 0 0-3.513z" fill="#13B0FF"/><path d="M57.549 38.668V1.791c0-.97-.787-1.757-1.757-1.757H1.757C.787.034 0 .82 0 1.79v51.488c0 .97.787 1.757 1.757 1.757H36.02a13.514 13.514 0 0 0 10.442 4.93C53.927 59.966 60 53.893 60 46.428c0-2.884-.907-5.56-2.451-7.76zm-3.514-26.726H36.779V3.547h17.256v8.395zm-20.77-8.395v8.395h-9.213V3.547h9.213zm-9.213 11.908h9.213v5.453h-9.213v-5.453zM20.538 3.547v8.395H3.514V3.547h17.024zM3.514 51.522V15.455h17.024v7.21c0 .97.787 1.757 1.757 1.757h12.727c.97 0 1.757-.787 1.757-1.757v-7.21h17.256v19.757a13.46 13.46 0 0 0-7.573-2.322c-7.465 0-13.538 6.073-13.538 13.538 0 1.801.354 3.52.995 5.094H3.514zm42.948 4.93c-5.528 0-10.024-4.496-10.024-10.024 0-5.527 4.496-10.024 10.024-10.024 5.527 0 10.024 4.497 10.024 10.024 0 5.528-4.497 10.025-10.024 10.025z" fill="#13B0FF"/><path d="M50.022 42.146l-4.838 4.838-2.282-2.282a1.757 1.757 0 1 0-2.485 2.484l3.524 3.525c.576.581 1.743.742 2.485 0l6.08-6.08a1.757 1.757 0 0 0-2.484-2.485z" fill="#13B0FF"/></svg>