<svg width="185" height="77" viewBox="0 0 185 77" fill="none" xmlns="http://www.w3.org/2000/svg"><path d="M41.655 69.881c.272-.489.544-1.032.816-1.63l.108-.272-1.631-.76-.109.272c-.217.489-.435.923-.652 1.412-.163.326-.381.652-.544.978l-2.23-2.282c.707-.326 1.36-.652 1.795-1.141.544-.543.816-1.25.816-2.12 0-.434-.11-.814-.272-1.195-.163-.38-.381-.706-.653-.924a2.807 2.807 0 0 0-1.033-.652c-.816-.326-1.903-.271-2.665 0-.435.163-.815.38-1.087.652s-.544.598-.707.979a3.234 3.234 0 0 0 .054 2.717c.163.326.38.706.707 1.086-.816.38-1.468.816-1.903 1.359-.544.598-.816 1.358-.816 2.282 0 .544.109 1.033.326 1.467.218.435.49.87.87 1.142.381.326.816.597 1.306.76a5.052 5.052 0 0 0 1.576.272c.816 0 1.578-.163 2.285-.543a7.125 7.125 0 0 0 1.685-1.25l1.85 1.902 1.467-1.141-2.175-2.174c.327-.326.598-.76.816-1.196zm-5.982-6.466c.272-.272.653-.435 1.142-.435.435 0 .761.109 1.033.38.272.272.381.598.381 1.033 0 .49-.163.87-.49 1.141-.326.326-.815.598-1.468.815-.163-.163-.326-.38-.435-.489a1.128 1.128 0 0 1-.326-.543c-.054-.163-.163-.272-.163-.435 0-.163-.055-.272-.055-.435-.054-.38.055-.76.381-1.032zm1.631 8.803c-.76.435-1.685.49-2.392.217-.272-.108-.49-.271-.707-.434-.218-.163-.326-.38-.435-.652-.109-.218-.163-.49-.163-.816 0-.434.163-.869.49-1.304.325-.38.815-.706 1.467-.978l2.937 2.989c-.435.435-.816.76-1.197.978zm11.91-8.858h4.078v10.76h1.904V63.36h4.024v-1.793H49.214v1.794zm26.863 5.38a4.263 4.263 0 0 0 1.088-.76c.326-.326.544-.707.761-1.142.163-.434.272-.923.272-1.467 0-.597-.109-1.087-.326-1.575-.218-.49-.544-.87-.925-1.25a3.76 3.76 0 0 0-1.468-.761 6.696 6.696 0 0 0-1.903-.272h-5.438v12.553h1.903v-4.674h3.045l3.426 4.565.11.109h2.337l-3.752-5c.272-.054.544-.163.87-.326zm-2.61-1.032h-3.426v-4.347h3.426c.925 0 1.632.217 2.12.598.49.38.708.869.708 1.575 0 .326-.055.652-.218.924a3.49 3.49 0 0 1-.543.707c-.272.217-.544.326-.925.434a7.412 7.412 0 0 1-1.142.109zm18.489-6.249l-5.547 12.28-.163.381h2.012l1.414-3.151h6.2l1.413 3.151h2.067l-5.71-12.661h-1.686zm-1.522 7.716l2.338-5.216 2.338 5.216h-4.676zm20.773 2.282l-4.024-9.727-.109-.163h-2.067l5.33 12.444.054.218h1.577l5.384-12.662h-2.012l-4.133 9.89zm16.64-2.771h6.58v-1.793h-6.58v-3.587h7.341v-1.739h-9.244V74.12h9.299v-1.793h-7.396v-3.641zm18.38-7.119h-1.903V74.12h8.701v-1.793h-6.798v-10.76zM25.83 31.517h8.701v5.326c-1.794 1.195-4.078 1.847-7.07 1.847-7.014 0-12.017-5.108-12.017-12.226v-.109c0-6.738 4.948-12.118 11.31-12.118 4.351 0 7.505 1.522 10.66 4.185l7.177-8.64c-4.622-4.076-10.114-6.467-17.89-6.467-13.65 0-23.764 10.053-23.764 22.931v.11c0 13.367 10.277 22.822 24.035 22.822 7.994 0 14.465-2.989 19.142-6.792V22.55H25.83v8.966zM75.914 3.315c-13.65 0-23.818 10.27-23.818 22.986v.109c0 12.66 10.115 22.822 23.71 22.822 13.594 0 23.818-10.27 23.818-22.931v-.109c0-12.715-10.06-22.877-23.71-22.877zM87.171 26.41c0 6.357-4.46 11.791-11.257 11.791-6.689 0-11.256-5.542-11.256-11.9v-.109c0-6.358 4.459-11.792 11.147-11.792 6.743 0 11.366 5.543 11.366 11.9v.11zm31.703-22.225h-12.235v44.124H140.3V37.604h-21.426V4.184zm51.824 14.835h-11.202c-.761 0-1.36-.599-1.36-1.36 0-.76.599-1.358 1.36-1.358h.109l10.006-.054c6.688 0 12.126-5.434 12.126-12.118h-35.564v44.124c6.689 0 12.127-5.434 12.127-12.118v-5.108h.326c6.634.055 12.018-5.325 12.072-12.009zm4.894 17.008c-3.371 0-6.145 2.771-6.145 6.14 0 3.37 2.774 6.14 6.145 6.14 3.372 0 6.145-2.77 6.145-6.14 0-3.369-2.773-6.14-6.145-6.14z" fill="#D6AB80"/></svg>