<svg width="200" height="70" viewBox="0 0 200 70" fill="none" xmlns="http://www.w3.org/2000/svg"><path d="M23.48 24.876h3.34c.232.002.462.032.687.089l.186-5.148-4.213 5.06z" fill="#fff"/><path d="M29.421 20.859l-1.734-1.042-.02.204-.151 4.95c.076.017.15.041.224.065l.605-.564 1.08-2.17.223-.886-.227-.557zm.956-1.098c-.296 0-.592.02-.885.062v1.118l.142.2 1.395.18 1.823.024 1.705-.07a6.49 6.49 0 0 0-4.18-1.514z" fill="#fff"/><path d="M34.486 21.242l-4.997-.272-1.973 3.95v.047c.1.023.198.053.295.089l2.41-.567 2.542-1.625 2.23-1.242-.507-.38z" fill="#fff"/><path d="M34.595 21.31a1.032 1.032 0 0 1-.091-.077l-6.988 3.735a3.05 3.05 0 0 1 2.306 2.95l.154.015 2.047-1.355 2.003-2.654.675-2.36-.106-.254z" fill="#fff"/><path d="M34.507 21.233l-4.679 6.738 3.375.678 2.837-1.18.827-.295a6.38 6.38 0 0 0 .059-.861 6.56 6.56 0 0 0-2.42-5.08z" fill="#fff"/><path d="M36.924 26.25l-7.08 1.676-.041.05c-.002.155-.016.31-.041.463l.445 1.337 1.847 2.392.917.186a6.566 6.566 0 0 0 3.959-6.03.29.29 0 0 1-.006-.074zm-7.426 3.024a3.036 3.036 0 0 1-2.504 1.7H23.18l4.268 4.84.018.018.194-.015.349-.36 1.306-3.454.36-1.988-.177-.74z" fill="#fff"/><path d="M29.808 27.87v.06a3.06 3.06 0 0 1-.57 1.77l-1.77 6.135c.146-.015.291-.023.437-.023.325-.001.649.043.962.13h.57l1.846-1.558 1.215-1.15.626-.832-3.316-4.531z" fill="#fff"/><path d="M33.955 33.428l-.504-.953c-.104-.03-.204-.059-.295-.082l-5.64 3.448a3.675 3.675 0 0 1 4.047 3.66c0 .107 0 .213-.015.316l1.558-.885 1.035-1.876-.186-3.628z" fill="#fff"/><path d="M33.121 32.383l-1.572 7.062v.053c0 .114-.006.227-.018.34l2.56.87 4.93.07a8.106 8.106 0 0 0-5.9-8.395z" fill="#fff"/><path d="M39.02 39.575l-7.461-.088c0 .41-.068.819-.204 1.206l.183 1.475.812 2.08 1.707 2.484.98.472a8.124 8.124 0 0 0 4-7.015c0-.198-.018-.407-.018-.614z" fill="#fff"/><path d="M31.56 39.49a3.67 3.67 0 0 1-3.666 3.678h-.519l.162 1.888 4.747 1.829 2.064.678c.305-.142.6-.303.885-.48l-3.672-7.593z" fill="#fff"/><path d="M27.718 43.174h-.534l-.802 3.737-.327 1.398h4.94a8.035 8.035 0 0 0 4.234-1.227l-7.51-3.908z" fill="#fff"/><path d="M27.714 43.177h-4.92l-.095.06.531 1.554 1.891 2.976.897.549h1.017l-.002-.015.681-5.124z" fill="#fff"/><path d="M22.798 43.168l-.319.206-.044.077-.944 2.121-.221.466v2.269h5.76l-4.232-5.139z" fill="#fff"/><path d="M21.277 44.198v4.038l1.525-5.053-1.525 1.015zM13.79 19.74l-2.755 2.765 4.407.109-1.652-2.873zm2.976 0l-.88 2.544 3.523-.334-2.643-2.21zM10.93 45.912l2.41 2.442 1.442-2.54-3.852.098zm14.863-29.231v2.62l2.13-2.62h-2.13zm-8.566.283l3.4 1.965.077-1.817-3.477-.148zm9.116 31.721l-.109 2.542h2.422l-2.313-2.542zm1.325.663l2.313 2.54v-2.54h-2.313zm-10.638-.451l-.151 2.318 3.189.168-3.039-2.486zm-.487-8.218l.463 4.513 3.906-2.968-4.369-1.545zm-2.469 2.802l1.348 2.51.54-2.463-1.888-.047zm9.065-4.897l-3.174 1.442 3.265 1.514-.091-2.956zm-4.999-.363l-1.035 1.673 2.95-.496-1.914-1.177zm-3.71-1.286l.047 2.053h1.575l-1.622-2.053zm8.529-1.221l-.924 2.646 2.319-1.334-1.395-1.312zm-4.455-2.684l1.327 4.625 2.702-2.481-4.03-2.145zm-3.445 2.642l1.507.9 1.035-1.784-2.542.885zm8.261-3.345l.045 2.215 1.958.065-2.003-2.28zm-6.17-1.082l-.716 1.693 1.327-.363-.61-1.33zm5.384 0l-3.897-.882 3.94 3.501-.044-2.62zm-8.827-.927l.72 1.174.97-.563-1.69-.61zm2.297-2.395l.16 2.959 1.259-.879-1.42-2.08zm1.711.139l4.953 2.256.947-4.357-5.9 2.1zm-3.442-.431l.564.496.02-1.445-.584.95zm1.035-3.791l-.652.768 1.236.72-.584-1.487zm2.052-1.288l1.12 4.041 2.434-2.596-3.555-1.445zm3.373 22.082l-4.03 2.956 4.053 3.322-.023-6.278zm-5.105 3.576l-1.218.893h2.319l-1.1-.894zm.017-31.484l.115 2.076 4.749.747-4.864-2.823zm11.367 2.28l2.07 1.221v-3.593l-2.07 2.372zm-.819.72l-5.248-.065 1.1.764h-.023l.035.027-.103.17a.213.213 0 0 1-.15.042l.233 1.053 1.938.452.168-.033.33-.386 1.729-2.021-.009-.003z" fill="#fff"/><path d="M22.035 20.407l-.605.652-.035 1.384 1.342 1.076.068.112.032.018 1.64-1.902-2.442-1.34z" fill="#fff"/><path d="M22.045 20.425l-4.526-.738 5.31 3.95-.784-3.212zm0-.018h-.036l.041.024-.005-.024z" fill="#fff"/><path d="M0 8v51.51h51.307V8H0zm47.646 47.838H3.661V11.673h43.985v44.165zm23.158-37.384c1.794-.607 3.065-2.065 3.065-4.442 0-3.487-2.69-5.142-7-5.142h-8.85v20.328h8.711c3.54 0 7.965-1.077 7.965-5.694-.018-2.988-1.897-4.469-3.89-5.05zm-8.451-5.994h4.13c1.908 0 3.067.726 3.067 2.322s-1.18 2.324-2.837 2.324H62.35V12.46h.003zm4.31 13.212h-4.34v-5.247h4.573c1.737 0 3.442.466 3.442 2.616 0 2.21-1.734 2.617-3.675 2.617v.014zm10.649 3.54h4.023V8.002h-4.023v21.21zm14.38-14.345c-4.02 0-7.67 2.496-7.67 7.375s3.643 7.374 7.67 7.374 7.67-2.495 7.67-7.374c0-4.88-3.62-7.387-7.67-7.387v.012zm0 11.15c-2.286 0-3.557-1.625-3.557-3.775s1.271-3.776 3.557-3.776 3.587 1.628 3.587 3.776c0 2.147-1.271 3.764-3.587 3.764v.012zm13.631-3.775c0-2.817 2.112-3.891 4.31-3.891a7.08 7.08 0 0 1 3.702 1.047v-3.54a9.145 9.145 0 0 0-4.28-1.038c-3.85 0-7.841 2.265-7.841 7.608 0 4.967 3.788 7.174 7.581 7.174a11.837 11.837 0 0 0 4.688-.918v-3.578a7.795 7.795 0 0 1-3.909 1.018c-2.171 0-4.251-1.221-4.251-3.894v.012zm24.593-6.98h-4.513l-3.54 5.198h-1.678V8.873h-4.015v20.328h4.024V23.67h1.622l3.991 5.519h4.516l-5.168-7.044 4.761-6.883zm4.747 6.968c0-2.817 2.112-3.89 4.309-3.89 1.308 0 2.591.362 3.705 1.046v-3.54a9.167 9.167 0 0 0-4.283-1.026c-3.849 0-7.841 2.265-7.841 7.608 0 4.967 3.791 7.174 7.582 7.174a11.836 11.836 0 0 0 4.687-.918v-3.578a7.778 7.778 0 0 1-3.906 1.018c-2.171 0-4.253-1.221-4.253-3.894zm19.038-7.375a6 6 0 0 0-4.165 1.685V8.87h-4.027V29.2h4.024v-9.088c.59-.844 1.678-1.77 3.094-1.77 1.564 0 2.693.885 2.693 2.761v8.098h4.024v-8.626c0-3.224-1.997-5.72-5.643-5.72zM175.008 25.6v-4.443c0-4.587-2.655-6.3-6.829-6.3a18.073 18.073 0 0 0-5.384.929v3.483a13.295 13.295 0 0 1 4.921-1.044c2.168 0 3.268.959 3.268 2.36v.493a15.234 15.234 0 0 0-3.298-.378c-2.779 0-6.106 1.103-6.106 4.646 0 2.761 2.26 4.269 4.861 4.269a7.735 7.735 0 0 0 5.015-1.714c.59 1.047 1.649 1.569 3.065 1.569a6.75 6.75 0 0 0 2.23-.407v-2.655a2.423 2.423 0 0 1-.752.115c-.537.006-.991-.197-.991-.923zm-4.024 0a4.563 4.563 0 0 1-3.124 1.133c-1.215 0-2.171-.667-2.171-1.714 0-1.42 1.446-1.915 2.923-1.915.797.02 1.588.128 2.36.322V25.6h.012zm7.699 3.602h4.021v-13.94h-4.03l.009 13.939zm1.997-20.82c-1.245 0-2.36.696-2.36 2.265 0 1.57 1.101 2.292 2.36 2.292 1.26 0 2.36-.696 2.36-2.292 0-1.596-1.097-2.265-2.369-2.265h.009zm13.685 6.474a6.014 6.014 0 0 0-4.632 2.18v-1.77h-3.566v13.936h4.024v-9.089c.59-.84 1.678-1.77 3.094-1.77 1.563 0 2.693.885 2.693 2.761v8.098h4.021v-8.623c0-3.227-1.982-5.723-5.643-5.723h.009zM62.351 38.779h-4.34v20.324h14.266v-3.92h-9.926V38.779zm14.032-.496c-1.242 0-2.342.696-2.342 2.266 0 1.569 1.1 2.295 2.342 2.295s2.375-.697 2.375-2.295c0-1.6-1.097-2.266-2.375-2.266zm-1.994 20.82h4.021V45.165h-4.02v13.938zM83.24 43.8v1.363h-2.401v3.398h2.4V59.1h3.995V48.56h4.254v-3.398h-4.251v-1.18c0-1.743 1.18-2.206 2.49-2.206a5.066 5.066 0 0 1 2.4.59V38.95a9.836 9.836 0 0 0-3.415-.59c-2.631.012-5.47 1.239-5.47 5.44h-.002zm16.348.96c-3.121 0-7.145 2.12-7.145 7.374 0 4.846 3.646 7.374 8.045 7.374 2.085 0 3.787-.318 5.094-.885v-3.15a10.361 10.361 0 0 1-4.195.84c-2.286 0-4.424-.84-4.89-2.872h9.778c.927-4.107-.923-8.682-6.684-8.682h-.003zm3.068 6.07H96.46c.056-1.915 1.56-2.991 3.269-2.991 2.525 0 3.076 2.032 2.929 2.99h-.003z" fill="#fff"/></svg>