<svg width="90" height="90" viewBox="0 0 90 90" fill="none" xmlns="http://www.w3.org/2000/svg"><path d="M43.271 12.973c.771-1.326 2.687-1.326 3.458 0l10.874 18.7c.175.3.424.55.724.724l18.7 10.874c1.326.771 1.326 2.687 0 3.458l-18.7 10.874c-.3.175-.55.424-.724.724l-10.874 18.7c-.771 1.326-2.687 1.326-3.458 0l-10.874-18.7c-.175-.3-.424-.55-.724-.724l-18.7-10.874c-1.326-.771-1.326-2.687 0-3.458l18.7-10.874c.3-.175.55-.424.724-.724l10.874-18.7z" fill="#77513E" filter="url(#a)"/><defs><filter id="a" x="11.979" y="11.977" width="66.043" height="68.047" filterUnits="userSpaceOnUse" color-interpolation-filters="sRGB"><feFlood flood-opacity="0" result="BackgroundImageFix"/><feBlend in="SourceGraphic" in2="BackgroundImageFix" result="shape"/><feColorMatrix in="SourceAlpha" values="0 0 0 0 0 0 0 0 0 0 0 0 0 0 0 0 0 0 127 0" result="hardAlpha"/><feOffset dy="2"/><feGaussianBlur stdDeviation="1"/><feComposite in2="hardAlpha" operator="arithmetic" k2="-1" k3="1"/><feColorMatrix values="0 0 0 0 0 0 0 0 0 0 0 0 0 0 0 0 0 0 0.25 0"/><feBlend in2="shape" result="effect1_innerShadow_1973_24111"/></filter></defs></svg>