<svg width="80" height="86" viewBox="0 0 80 86" fill="none" xmlns="http://www.w3.org/2000/svg"><ellipse cx="40" cy="44.831" rx="39.985" ry="41.065" fill="#931C0C"/><path d="M79.485 41.589c0 22.416-17.69 40.565-39.485 40.565C18.206 82.154.516 64.005.516 41.589.516 19.173 18.206 1.023 40 1.023s39.485 18.15 39.485 40.566z" fill="#CD210A" stroke="#EF5844"/><mask id="a" style="mask-type:alpha" maskUnits="userSpaceOnUse" x="0" y="0" width="80" height="83"><ellipse cx="40" cy="41.589" rx="39.985" ry="41.065" fill="#CD210A"/></mask><g mask="url(#a)"><ellipse cx="-17.01" cy="-8.27" rx="52.111" ry="53.52" fill="#fff" opacity=".7" filter="url(#b)"/></g><g clip-path="url(#c)" fill="#fff"><path d="M50.035 31.937c-3.328-3.5-4.994-5.468-3.472-8.51a1.266 1.266 0 0 0-1.133-1.833c-4.726 0-6.738 3.92-8.055 6.3-1.1 1.988-1.837 3.195-2.797 3.195-1.027 0-1.411-.645-1.446-1.454.022-1.07-1.262-1.665-2.077-.965-4.43 3.668-8.857 11.82-8.595 18.606 0 9.674 7.87 17.544 17.544 17.544 9.694 0 17.544-7.925 17.544-17.544 0-7.438-4.166-11.819-7.513-15.339zm-10.03 27.457c-6.683 0-12.119-5.436-12.119-12.118.61-16.054 23.63-16.05 24.236 0 0 6.682-5.436 12.118-12.118 12.118z"/><path d="M48.144 46.009h1.363a9.538 9.538 0 0 0-1.89-4.554c-1.231 1.146-2.937-.56-1.791-1.79a9.538 9.538 0 0 0-4.554-1.892v1.363a1.266 1.266 0 0 1-2.533 0v-1.363a9.538 9.538 0 0 0-4.557 1.894c.988 1.208-.577 2.772-1.784 1.785a9.538 9.538 0 0 0-1.894 4.557h1.363a1.266 1.266 0 0 1 0 2.532h-1.363a9.538 9.538 0 0 0 1.894 4.558c1.208-.988 2.772.577 1.784 1.784a9.538 9.538 0 0 0 4.557 1.894v-1.363a1.266 1.266 0 0 1 2.533 0v1.362a9.538 9.538 0 0 0 4.557-1.893c-.988-1.208.577-2.772 1.784-1.785a9.538 9.538 0 0 0 1.894-4.557h-1.363c-1.678-.062-1.677-2.47 0-2.532zm-3.852-1.23l-3.391 3.391a1.266 1.266 0 0 1-1.79 0l-2.036-2.034c-1.142-1.23.56-2.934 1.791-1.791l1.14 1.14 2.495-2.497c1.23-1.142 2.934.561 1.791 1.791z"/></g><defs><filter id="b" x="-129.121" y="-121.789" width="224.223" height="227.039" filterUnits="userSpaceOnUse" color-interpolation-filters="sRGB"><feFlood flood-opacity="0" result="BackgroundImageFix"/><feBlend in="SourceGraphic" in2="BackgroundImageFix" result="shape"/><feGaussianBlur stdDeviation="30" result="effect1_foregroundBlur_2958_28406"/></filter><clipPath id="c"><path fill="#fff" transform="translate(18.387 21.594)" d="M0 0h43.227v43.227H0z"/></clipPath></defs></svg>