<svg width="76" height="77" viewBox="0 0 76 77" fill="none" xmlns="http://www.w3.org/2000/svg"><circle cx="37.995" cy="38.874" r="37.905" fill="#E52107"/><g clip-path="url(#a)"><path fill-rule="evenodd" clip-rule="evenodd" d="M47.405 28.057c3.832.89 5.297 3.13 7.135 6.214h-7.135v-6.214zM25.012 34.53c.75 0 1.295.362 1.295 1.208 0 .714-.578 1.293-1.291 1.295h-7.823a1.295 1.295 0 0 0 0 2.59h11.653a1.295 1.295 0 1 1 .005 2.59H17.193a1.295 1.295 0 1 0 0 2.589h2.849v3.884c0 .715.58 1.295 1.295 1.295h2.602a4.965 4.965 0 0 0 9.728 0h13.147a4.965 4.965 0 0 0 9.728 0h2.257c.715 0 1.295-.58 1.295-1.295v-7.769c0-3.799-4.007-4.05-4.01-4.057H46.11c-.715 0-1.295-.58-1.295-1.294v-7.77H21.337c-.716 0-1.295.58-1.295 1.296v2.848h-1.554a1.295 1.295 0 1 0 0 2.59h6.524zm28.344 12.78c.927.927.927 2.43 0 3.357-1.49 1.491-4.052.43-4.052-1.679 0-2.108 2.561-3.17 4.052-1.678zm-22.874 0c.927.927.927 2.43 0 3.357-1.491 1.491-4.053.43-4.053-1.679 0-2.108 2.562-3.17 4.053-1.678z" fill="#fff"/></g><defs><clipPath id="a"><path fill="#fff" transform="translate(15.898 18.82)" d="M0 0h44.196v44.196H0z"/></clipPath></defs></svg>