<svg width="43" height="43" viewBox="0 0 43 43" fill="none" xmlns="http://www.w3.org/2000/svg"><g clip-path="url(#a)"><path fill-rule="evenodd" clip-rule="evenodd" d="M30.382 9.054c3.67.852 5.074 2.998 6.834 5.952h-6.834V9.054zm-21.45 6.2c.719 0 1.24.347 1.24 1.157a1.24 1.24 0 0 1-1.236 1.24H1.443a1.24 1.24 0 0 0 0 2.481h11.162a1.24 1.24 0 1 1 .005 2.48H1.443a1.24 1.24 0 1 0 0 2.48h2.729v3.721c0 .686.555 1.24 1.24 1.24h2.493a4.756 4.756 0 0 0 9.318 0h12.592a4.756 4.756 0 0 0 9.318 0h2.162a1.24 1.24 0 0 0 1.24-1.24v-7.44c0-3.64-3.837-3.881-3.841-3.887H29.14a1.24 1.24 0 0 1-1.24-1.24V8.805H5.412a1.24 1.24 0 0 0-1.24 1.24v2.728H2.684a1.24 1.24 0 1 0 0 2.48h6.248zm27.15 12.241a2.274 2.274 0 0 1 0 3.216c-1.428 1.428-3.881.412-3.881-1.608s2.453-3.036 3.881-1.608zm-21.91 0a2.274 2.274 0 0 1 0 3.216c-1.429 1.428-3.882.412-3.882-1.608s2.454-3.036 3.882-1.608z" fill="#E52107"/></g><defs><clipPath id="a"><path fill="#fff" transform="translate(.203 .203)" d="M0 0h42.333v42.333H0z"/></clipPath></defs></svg>