<svg width="37" height="37" viewBox="0 0 37 37" fill="none" xmlns="http://www.w3.org/2000/svg"><g clip-path="url(#a)" fill="#E52107"><path d="M27.894 24.125c-1.162-1.147-2.612-1.147-3.767 0-.88.873-1.76 1.746-2.627 2.634-.236.244-.436.296-.725.133-.57-.31-1.176-.562-1.724-.902-2.553-1.606-4.691-3.67-6.585-5.994-.94-1.154-1.776-2.39-2.361-3.781-.118-.281-.096-.466.133-.696.88-.85 1.74-1.724 2.605-2.597 1.206-1.214 1.206-2.634-.008-3.855-.688-.696-1.376-1.377-2.064-2.072-.71-.71-1.413-1.428-2.131-2.131-1.162-1.132-2.612-1.132-3.766.007-.888.873-1.74 1.769-2.642 2.627C1.396 8.29.974 9.26.885 10.391c-.14 1.843.31 3.582.947 5.276 1.303 3.508 3.286 6.623 5.69 9.479 3.249 3.863 7.126 6.919 11.662 9.124 2.043.991 4.159 1.753 6.46 1.88 1.584.088 2.96-.312 4.063-1.547.754-.844 1.605-1.614 2.404-2.42 1.184-1.199 1.192-2.649.015-3.833-1.406-1.413-2.82-2.82-4.232-4.225zm-1.412-5.9l2.73-.466a12.204 12.204 0 0 0-3.41-6.585 12.138 12.138 0 0 0-6.956-3.47l-.385 2.744a9.417 9.417 0 0 1 5.387 2.686 9.416 9.416 0 0 1 2.634 5.091zm4.266-11.867A20.133 20.133 0 0 0 19.205.602l-.385 2.745a17.457 17.457 0 0 1 9.975 4.972 17.443 17.443 0 0 1 4.891 9.435l2.73-.466a20.281 20.281 0 0 0-5.668-10.93z"/></g><defs><clipPath id="a"><path fill="#fff" transform="translate(.86 .602)" d="M0 0h35.559v35.559H0z"/></clipPath></defs></svg>