<svg width="571" height="187" viewBox="0 0 571 187" fill="none" xmlns="http://www.w3.org/2000/svg"><path d="M98.005 76.495l1.18.196c5.512.912 10.084 1.824 13.716 2.735 3.879.999 7.108 1.83 9.686 2.496 1.776.484 3.335.837 4.678 1.06a20.39 20.39 0 0 0 1.749.218c1.709.164 3.418-.1 5.127-.793a.711.711 0 0 1 .475-.064c.208.035.44.144.695.33.278.188.405.352.382.49-.015.094-.089.177-.22.25-3.528 1.914-5.974 2.817-7.336 2.71-1.339-.102-3.12-.337-5.343-.706-1.807-.299-4.153-.854-7.041-1.665-3.753 1.258-7.02 2.74-9.8 4.444-2.757 1.709-5.628 3.815-8.612 6.319-1.654 1.367-3.562 3.407-5.724 6.118-2.162 2.711-4.2 5.252-6.116 7.624 3.744-2.497 7.214-3.481 10.41-2.952 3.844.637 6.189 2.857 7.034 6.661.368 1.655.401 3.397.098 5.227-.395 2.385-1.347 4.904-2.857 7.556-2.708 4.715-6.383 8.519-11.026 11.415-4.64 2.872-8.88 3.989-12.725 3.353-1.945-.322-3.272-1.434-3.98-3.336-.425-1.165-.518-2.476-.276-3.935.15-.903.428-1.868.836-2.895 1.055-2.633 3.135-5.429 6.243-8.388 3.11-2.983 7.512-5.715 13.205-8.199l.649.179c.274.069.403.15.388.243-.012.069-.081.129-.208.179a176.674 176.674 0 0 0-6.936 4.169c-2.233 1.415-4.11 2.841-5.633 4.278-2.255 2.125-3.88 4.176-4.873 6.152-.916 1.799-1.482 3.347-1.697 4.644l-.069.417a4.52 4.52 0 0 0 .675 3.038c.584.93 1.373 1.477 2.369 1.641 1.482.246 3.257-.198 5.324-1.331 1.654-.939 3.306-2.224 4.956-3.854a73.4 73.4 0 0 0 4.608-4.983 72.344 72.344 0 0 0 3.56-4.692c1.002-1.452 1.686-2.493 2.052-3.122 1.464-2.66 2.381-5.114 2.753-7.36l.069-.417c.318-2.35-.635-3.923-2.858-4.72a10.33 10.33 0 0 0-1.645-.415 9.96 9.96 0 0 0-3.617.079c-1.925.419-4.075 1.479-6.45 3.179a48.587 48.587 0 0 0-8.478 7.447 101.026 101.026 0 0 1-5.875 5.951c-1.97 1.839-4.195 3.492-6.674 4.961-2.264 1.315-4.823 2.473-7.677 3.476-2.855 1.002-6.151 1.801-9.89 2.395-2.782.42-5.373.55-7.773.39a35.928 35.928 0 0 1-4-.412 20.579 20.579 0 0 1-2.102-.455 377.91 377.91 0 0 1-4.562-1.327c-2.181-.623-4.324-1.62-6.428-2.991-2.105-1.372-3.808-3.224-5.111-5.557-1.064-1.913-1.367-4.247-.91-7.003.103-.625.245-1.268.426-1.928 1.095-4.03 3.345-7.131 6.75-9.303a25.838 25.838 0 0 1 11.11-3.942 30.853 30.853 0 0 1 8.422.217l.694.115c2.972.587 5.474 1.572 7.505 2.955 2.035 1.36 3.391 3.084 4.069 5.171.31 1.003.37 2.072.183 3.206-.204 1.228-.692 2.527-1.467 3.897-1.066 1.846-2.587 3.414-4.561 4.705-1.975 1.291-3.998 2.158-6.07 2.6-2.592.57-5.093.655-7.5.257a17.37 17.37 0 0 1-2.64-.652c-2.398-.754-3.84-1.171-4.326-1.251-.116-.019-.176-.017-.18.006l.03.04-.308-.943c.08-.058 1.381.062 3.901.361 2.493.317 5.306.212 8.44-.316 2.395-.389 4.621-1.043 6.677-1.964 2.083-.939 3.67-2.116 4.76-3.53.97-1.266 1.548-2.455 1.732-3.567a4.534 4.534 0 0 0-.344-2.662c-.835-1.852-2.307-3.38-4.415-4.586-2.105-1.228-4.51-2.079-7.215-2.55l-.278-.046c-2.594-.43-4.865-.437-6.813-.022a44.145 44.145 0 0 0-7.354 2.387 18.328 18.328 0 0 0-6.206 4.29c-1.696 1.765-2.848 4.263-3.454 7.493l-.046.278c-.582 3.52.41 6.432 2.979 8.737 2.63 2.363 5.455 4.056 8.473 5.079 1.649.535 3.318.942 5.009 1.222 3.241.536 6.585.602 10.03.197 4.11-.533 7.805-1.729 11.087-3.588 3.386-1.914 6.465-4.128 9.237-6.643 2.795-2.512 4.805-4.451 6.03-5.818 4.39-4.817 7.983-8.481 10.778-10.992 2.8-2.534 6.957-6.164 12.474-10.89a91.554 91.554 0 0 1 9.173-6.903 44.77 44.77 0 0 1 10.037-5.011 563.715 563.715 0 0 0-15.314-4.285 34.329 34.329 0 0 0-3.341-.731c-3.96-.656-7.583-.542-10.87.341-9.158 2.433-15.13 5.596-17.916 9.489-1.707 2.406-2.71 4.512-3.009 6.318-.188 1.135-.094 2.15.281 3.044.743 1.836 1.948 2.892 3.615 3.168 1.043.173 2.264.054 3.664-.357 3.653-1.084 6.981-2.936 9.984-5.555 2.167-1.878 3.815-3.568 4.944-5.07 1.156-1.522 2.034-3.304 2.634-5.346.1-.316.42-.453.96-.412l.14.023c.346.058.501.202.463.434l-.023.139c-2.46 6.659-5.665 11.291-9.617 13.896-3.953 2.605-7.598 3.857-10.936 3.757a14.215 14.215 0 0 1-1.933-.178c-1.737-.287-3.214-.924-4.43-1.911-1.638-1.318-2.296-2.95-1.974-4.895.365-2.2 1.504-4.557 3.42-7.07 1.938-2.511 4.533-4.746 7.783-6.706 3.251-1.96 7.087-3.43 11.508-4.411 4.449-1 9.363-1.079 14.743-.236zm21.308 53.302c-.006.07-.048.29-.126.66-.055.372-.086.594-.092.664-.001.565-.231 1.205-.692 1.92-.461.715-.97 1.166-1.528 1.355-.878.35-1.317.666-1.317.949 0 .282.262.387.786.313.474-.03 1.074-.298 1.799-.802.328-.255.646-.534.955-.838.308-.303.617-.619.928-.946.386-.391.761-.371 1.125.06.341.429.308.815-.098 1.158a28.448 28.448 0 0 1-1.686 1.553c-1.167.985-2.297 1.537-3.391 1.657a3.814 3.814 0 0 1-2.268-.333c-.779.853-1.709 1.681-2.79 2.485a17.065 17.065 0 0 1-2.914 1.873 10.412 10.412 0 0 1-3.378 1.093c-1.215.156-2.356-.141-3.423-.89-1.424-.992-1.98-2.488-1.67-4.488.141-1.118.506-2.23 1.094-3.335.589-1.104 1.193-1.983 1.814-2.638.31-.327.762-.795 1.355-1.404.593-.61 1.285-1.27 2.075-1.98-2.6 1.5-4.833 3.113-6.698 4.839-.412.413-.776.394-1.09-.056-.194-.229-.16-.615.097-1.158 1.241-1.026 3.278-2.55 6.111-4.572 2.832-2.021 5.479-3.517 7.941-4.487.963-.531 2.05-.993 3.261-1.385 1.211-.392 2.251-.563 3.118-.514 1.662.117 2.563 1.171 2.701 3.161.028.498-.16 1.33-.565 2.497a35.22 35.22 0 0 1-1.425 3.483l-.006.071-.003.035zm-6.58 6.369c-.486-1.219-.265-2.449.665-3.689.267-.378.794-1.04 1.581-1.987.787-.946 1.522-1.567 2.207-1.863.32-.161.679-.225 1.076-.191.327-.797.666-1.746 1.018-2.847.384-1.192.369-1.995-.044-2.406-.387-.434-.768-.666-1.142-.698-.963-.034-2.164.524-3.604 1.674-1.438 1.127-2.88 2.442-4.327 3.945a92.514 92.514 0 0 0-3.943 4.437c-1.183 1.455-1.988 2.47-2.413 3.047-1.562 2.035-2.119 3.601-1.67 4.699.455 1.311 1.882 1.42 4.283.327 1.052-.453 2.23-1.154 3.535-2.104 1.157-.868 2.083-1.649 2.778-2.344zm13.647-3.018l.211.01c.516.023.952.255 1.308.694.308.438.451.914.427 1.43l-.013.281c-.275 1.374-.881 2.039-1.819 1.996l-.071-.003-.07-.004c-.985-.045-1.798.528-2.441 1.72-.302.433-.462.848-.48 1.247-.019.399.093.78.334 1.143.153.266.393.406.721.421.633.03 1.57-.409 2.81-1.315.632-.464 1.464-1.178 2.496-2.14 1.032-.986 2.15-2.051 3.355-3.194a235.15 235.15 0 0 1 4.31-4.03 70.703 70.703 0 0 1 4.58-3.771c.729-.53 1.74-1.306 3.033-2.327 1.293-1.045 2.481-1.824 3.562-2.338.384-.17.67-.274.86-.313.547-.139 1.278-.187 2.192-.145 1.219.056 1.824.202 1.813.436a.303.303 0 0 1-.042.139l-13.496 16.718c-.25.317-.551.726-.903 1.227-.225.295-.343.559-.354.794a.582.582 0 0 0 .156.43c.201.244.441.373.723.386a1.5 1.5 0 0 0 .676-.145 16.28 16.28 0 0 0 2.54-1.574c.78-.599 1.608-1.23 2.484-1.895a45.43 45.43 0 0 0 5.001-4.491c.172-.157.352-.231.539-.222.189-.015.373.076.552.272.179.196.263.4.253.611-.008.187-.099.371-.272.551a62.487 62.487 0 0 1-5.076 4.594c-1.607 1.218-3.518 2.399-5.733 3.542-.987.518-1.832.761-2.536.729-.75-.035-1.32-.402-1.711-1.102-.285-.436-.413-.97-.384-1.603a3.39 3.39 0 0 1 .058-.491c.16-1.426.735-2.95 1.727-4.573.991-1.622 1.759-2.738 2.304-3.347l3.204-3.729a.335.335 0 0 0-.275-.154c-.141-.007-.344.066-.609.218a44.032 44.032 0 0 0-5.981 4.341 86.769 86.769 0 0 0-5.643 5.414c-1.754 1.846-3.386 3.11-4.898 3.792-.792.362-1.493.53-2.103.502a2.274 2.274 0 0 1-1.588-.708c-.674-.689-.979-1.714-.916-3.074.016-.351.058-.737.124-1.157.304-1.49.822-2.782 1.554-3.876.708-1.095 1.878-1.734 3.507-1.917z" fill="#975C28"/><path d="M148.628 135.175c.44-1.143 2.284-2.794 5.532-4.953 3.248-2.158 6.066-3.794 8.453-4.909 2.062-1.331 3.88-2.008 5.453-2.032.634.01 1.264.23 1.892.662.651.409 1.041 1.025 1.17 1.849.146 1.199-.424 2.423-1.71 3.671-1.286 1.249-2.83 2.423-4.63 3.523a50.513 50.513 0 0 1-5.396 2.913c-1.819.818-3.178 1.385-4.074 1.7l-.504.732a7.984 7.984 0 0 1-.325.523c-1.513 2.302-1.995 3.961-1.447 4.979.548.994 1.887.943 4.016-.152 1.752-.96 3.317-2.004 4.695-3.134 1.497-1.246 3.297-3.05 5.397-5.413.382-.37.757-.364 1.127.017.347.357.341.744-.017 1.162a36.33 36.33 0 0 1-1.646 1.736c-.452.439-1.571 1.455-3.355 3.048-1.167 1.11-2.686 2.238-4.558 3.383a10.26 10.26 0 0 1-3.293 1.254c-1.201.264-2.36.071-3.477-.58-1.489-.914-2.148-2.367-1.978-4.36.064-1.126.421-2.259 1.072-3.4.651-1.164 1.263-2.094 1.837-2.789.287-.348.693-.835 1.219-1.461a44.12 44.12 0 0 1 1.969-2.154c-2.609 1.769-4.736 3.545-6.382 5.328-.381.37-.734.376-1.057.019-.208-.238-.202-.625.017-1.162zm17.975-5.859c1.257-.827 2.081-1.812 2.474-2.956.392-1.145.013-1.702-1.137-1.672-1.386.05-3.153 1.267-5.301 3.653-2.125 2.387-3.978 4.648-5.559 6.784a55.586 55.586 0 0 0 4.83-2.745 231.437 231.437 0 0 0 4.693-3.064zm3.014 6.192c.408-1.155 2.205-2.857 5.393-5.104 3.187-2.247 5.958-3.961 8.314-5.141 2.025-1.388 3.823-2.115 5.395-2.182.634-.008 1.27.195 1.909.609.662.391 1.069.996 1.22 1.816.18 1.195-.356 2.434-1.607 3.717-1.251 1.284-2.761 2.501-4.531 3.65a50.648 50.648 0 0 1-5.313 3.061c-1.796.868-3.138 1.472-4.026 1.812l-.483.745a7.954 7.954 0 0 1-.31.533c-1.449 2.342-1.886 4.014-1.309 5.016.575.979 1.912.891 4.01-.262 1.724-1.008 3.26-2.096 4.606-3.263 1.463-1.287 3.211-3.14 5.246-5.56.371-.381.746-.385 1.127-.015.356.348.361.735.015 1.162a36.383 36.383 0 0 1-1.597 1.781c-.441.452-1.53 1.498-3.27 3.14-1.136 1.142-2.623 2.311-4.462 3.508a10.299 10.299 0 0 1-3.258 1.345c-1.193.296-2.357.135-3.492-.484-1.513-.873-2.212-2.307-2.097-4.304.033-1.127.358-2.27.977-3.428.619-1.182 1.205-2.128 1.76-2.84.277-.355.67-.853 1.178-1.493.531-.665 1.167-1.4 1.908-2.208-2.558 1.84-4.636 3.674-6.232 5.502-.371.381-.723.397-1.056.049-.214-.232-.219-.619-.015-1.162zm17.806-6.354c1.233-.861 2.03-1.869 2.391-3.024.361-1.155-.033-1.701-1.183-1.639-1.384.088-3.116 1.354-5.198 3.798-2.058 2.444-3.847 4.756-5.369 6.935a55.375 55.375 0 0 0 4.752-2.877 226.473 226.473 0 0 0 4.607-3.193zm24.48 4.578c1.849-.136 2.884.648 3.103 2.35l.005.07c.122 1.662-.742 2.561-2.591 2.697-.749.055-1.397-.11-1.943-.493-.742.148-1.089.551-1.041 1.206.019.257.1.557.243.9.376.961 1.179 1.632 2.407 2.012 1.228.381 2.429.54 3.601.477l.421-.031c2.084-.153 4.003-.941 5.757-2.365a11.486 11.486 0 0 0 2.649-2.877 59.476 59.476 0 0 0 2.075-3.471c.786-1.47 1.27-2.894 1.451-4.272a5.03 5.03 0 0 0 .033-.991c-.065-.89-.425-1.628-1.08-2.216-.528-.455-1.108-.66-1.74-.613a2.361 2.361 0 0 0-.557.111c-.875.253-1.885.445-3.029.576a2.272 2.272 0 0 1-.383.063c-.82.06-1.324-.232-1.512-.877a1.663 1.663 0 0 1-.104-.451c-.055-.75.466-1.188 1.563-1.316l.351-.025a13.41 13.41 0 0 1 4.985.587c.91-.114 1.926-.377 3.049-.789 1.145-.437 2.36-1.197 3.645-2.28 2.537-2.634 3.927-5.184 4.169-7.649.045-.357.056-.687.033-.991-.141-1.92-1.383-2.97-3.726-3.151a4.308 4.308 0 0 0-.778-.013c-1.334.098-2.712.728-4.133 1.892-1.711 1.373-2.903 2.602-3.577 3.687-.505.814-.858 1.769-1.06 2.867a2.218 2.218 0 0 0-.059.639c.053.726.554 1.137 1.502 1.232.143.013.284.014.424.004 1.077-.079 2.333-.772 3.767-2.077 1.231-1.173 1.876-2.327 1.934-3.461.026-.284.203-.438.531-.462.328-.025.502.104.523.385.03 1.692-.66 3.19-2.071 4.494-1.344 1.252-2.753 1.932-4.228 2.041-.304.022-.61.021-.918-.004-1.823-.148-2.899-1.022-3.228-2.622a7.824 7.824 0 0 1-.146-1.013c-.166-2.271.787-4.188 2.861-5.753 2.388-1.776 4.776-2.751 7.164-2.927 2.668-.196 4.903.429 6.704 1.873 1.479 1.233 2.283 2.727 2.412 4.483.025.351.028.704.007 1.059-.102 1.184-.717 2.418-1.847 3.701a16.156 16.156 0 0 1-3.894 3.216 18.502 18.502 0 0 1-7.197 2.47c1.479.904 2.521 2.122 3.128 3.654.209.597.335 1.199.38 1.808.086 1.17-.131 2.387-.65 3.648-.799 1.942-2.06 3.67-3.785 5.186-1.526 1.336-3.336 2.327-5.43 2.976-2.096.624-3.939.995-5.531 1.112-1.967.144-3.852-.047-5.656-.573-1.805-.55-2.819-2.017-3.041-4.402-.103-1.404.231-2.617 1.004-3.639.772-1.022 1.79-1.579 3.054-1.672zm63.148-26.495c.105.294.171.547.195.756.069.583-.118.901-.561.953l-.209.025-.14.016c-.466.055-.668.351-.604.887.027.233.094.497.199.792.18.522.305 1.075.374 1.658.294 2.494-.392 5.683-2.061 9.567-2.076 4.831-5.063 9.155-8.961 12.971-3.877 3.791-7.599 5.897-11.166 6.319-3.566.421-5.887-.817-6.962-3.716a9.111 9.111 0 0 1-.497-2.104c-.303-2.564.34-5.724 1.929-9.481 1.668-3.884 4.039-7.52 7.113-10.909 3.074-3.389 6.159-5.88 9.256-7.475 2.589-1.299 5.104-2.116 7.546-2.452l.07-.008c2.377-.281 3.87.452 4.479 2.201zm-7.937.937c-2.774.328-5.474 2.384-8.099 6.169-2.602 3.782-5.014 7.872-7.236 12.271-2.202 4.373-3.478 7.773-3.829 10.202a4.886 4.886 0 0 0-.03 1.245c.181 1.538 1.403 2.174 3.664 1.906 2.75-.325 5.89-2.161 9.418-5.509a41.706 41.706 0 0 0 8.659-11.623c2.028-4.045 2.878-7.455 2.55-10.229a5.602 5.602 0 0 0-.11-.625c-.574-2.863-2.237-4.132-4.987-3.807zm59.754-22.554a106.173 106.173 0 0 0-3.734 7.904 117.498 117.498 0 0 1-3.572 7.806c.609-.606 1.23-1.215 1.862-1.825a74.127 74.127 0 0 0 1.926-1.873 171.06 171.06 0 0 0 4.769-4.833 63.799 63.799 0 0 0 4.39-5.16 32.688 32.688 0 0 0 2.171-3.13c.503-.803 1.174-2.016 2.011-3.639.86-1.627.676-2.822-.553-3.585-1.093-.667-2.286-.4-3.577.802-1.292 1.202-2.196 2.17-2.711 2.903a41.24 41.24 0 0 0-2.01 3.03c-.556.907-.881 1.44-.972 1.6zm-24.081 44.149c-.147-1.118-.023-2.39.371-3.817.414-1.454.838-2.576 1.272-3.367l1.342-2.556c.739-1.368 1.452-2.54 2.139-3.518l.41-.929c.156-.337.323-.676.502-1.017a120.5 120.5 0 0 0-4.42 5.809 103.795 103.795 0 0 0-3.522 5.224c-.282.431-.641.493-1.075.187-.245-.171-.311-.553-.2-1.144.235-1.113 1.731-3.47 4.487-7.072 2.752-3.624 5.277-6.566 7.576-8.824a411.545 411.545 0 0 1 4.943-9.582 364.651 364.651 0 0 1 5.422-9.7 126.409 126.409 0 0 1 4.171-6.623c1.626-2.428 3.307-4.472 5.043-6.132a11.431 11.431 0 0 1 2.897-2.042c1.073-.544 2.174-.652 3.303-.325 1.265.423 1.953 1.161 2.065 2.214.135 1.048-.007 2.145-.427 3.29-.481 1.347-1.105 2.552-1.873 3.615a125.134 125.134 0 0 0-1.788 2.455c-1.695 2.44-3.68 4.859-5.955 7.256a719.658 719.658 0 0 0-5.761 6.114 47.476 47.476 0 0 1-2.845 2.747c-.886.798-1.85 1.693-2.892 2.684l-1.586 3.207-1.528 3.125a90.8 90.8 0 0 1 2.453-1.714c1.701-1.177 3.149-1.62 4.343-1.328 1.191.269 1.823 1.577 1.898 3.922.041 1.875-.54 3.942-1.743 6.201-1.18 2.254-2.252 4.097-3.218 5.528a12.357 12.357 0 0 0 2.513-3.011c.306-.434.674-.51 1.104-.228.392.337.461.73.205 1.179-.93 1.497-2.054 2.705-3.371 3.625a121.65 121.65 0 0 0-3.881 2.749c-1.577 1.752-3.103 3.114-4.578 4.085-1.724 1.182-3.322 1.651-4.794 1.407-1.761-.265-2.762-1.496-3.002-3.694zm14.968-18.296c-.976.003-2.038.676-3.186 2.02-1.125 1.34-2.213 2.887-3.266 4.643a64.513 64.513 0 0 0-2.769 5.236c-.798 1.711-1.348 2.927-1.652 3.647-1.054 2.566-1.064 4.081-.03 4.544 1.03.44 2.177.121 3.443-.957a66.206 66.206 0 0 0 2.123-1.764 28 28 0 0 0 1.919-1.907 26.698 26.698 0 0 0 3.834-5.278c.343-.631.767-1.753 1.272-3.366.505-1.613.677-3.156.516-4.629-.176-1.423-.911-2.152-2.204-2.189zm34.504 4.68c-1.219 2.14-2.486 4.037-3.803 5.694-1.215 1.563-2.781 3.174-4.696 4.832-.408.347-.974.629-1.696.847-.694.237-1.297.275-1.809.116-1.147-.342-1.755-1.213-1.823-2.612-.072-1.063.084-2.185.467-3.364.407-1.184.674-1.993.802-2.426l-1.5 2.172c-.463.669-.862 1.241-1.197 1.716a30.436 30.436 0 0 1-3.778 4.395 40.91 40.91 0 0 1-1.853 1.669c-1.199.938-2.409 1.231-3.63.88-.336-.123-.652-.382-.948-.777-.272-.4-.501-.761-.686-1.083-.421-.657-.363-2.022.175-4.095.537-2.073 1.088-3.669 1.651-4.789l3.495-6.853c-3.02 3.056-5.38 6.181-7.079 9.376-.215.475-.571.547-1.07.217-.249-.165-.326-.545-.231-1.139.219-.811 1.315-2.434 3.288-4.87a151.73 151.73 0 0 1 5.767-6.81 15.33 15.33 0 0 1 1.219-1.253 5.975 5.975 0 0 0 1.08-1.405c.105-.189.397-.344.876-.465.478-.121.924-.224 1.338-.308 1.404-.284 2.023-.242 1.858.126l-9.012 19.504c-.165.369-.366.853-.604 1.452-.242.576-.209.976.1 1.201.512.399 1.119.264 1.822-.406.725-.674 1.235-1.172 1.529-1.495 2.166-2.188 4.146-4.65 5.938-7.384a614.283 614.283 0 0 1 5.247-7.962 30.54 30.54 0 0 0 1.938-3.375c.577-1.171 1.156-2.33 1.737-3.478.105-.189.397-.344.876-.465.478-.121.924-.224 1.338-.308 1.404-.284 2.023-.242 1.858.126l-9.012 19.504c-.165.369-.366.853-.604 1.452-.242.576-.197.974.135 1.194.429.344.9.308 1.415-.108a17.478 17.478 0 0 0 2.155-2.125 85.051 85.051 0 0 0 1.982-2.45c1.119-1.449 2.323-3.309 3.61-5.582.326-.402.694-.476 1.104-.224.415.275.492.654.231 1.138z" fill="#975C28"/><path d="M355.558 124.296c-1.833-.545-2.943-1.664-3.33-3.357l-.063-.274c-.182-1.115-.196-2.387-.041-3.819s.428-2.554.821-3.366l.824-1.452c.355-.659.788-1.396 1.3-2.211-2.097 2.309-3.763 4.555-4.998 6.739-.113.243-.261.385-.444.427-.183.041-.387-.008-.612-.15-.112-.07-.189-.197-.231-.38-.07-.201-.079-.452-.027-.752.198-1.346 1.891-3.683 5.08-7.011 3.183-3.351 5.705-5.648 7.563-6.891 1.667-1.56 3.204-2.525 4.612-2.895l.138-.031c1.029-.236 2.032-.115 3.007.36.062.058.296.294.703.706.43.408.885.557 1.366.447.481-.11.942-.516 1.383-1.219.436-.725.723-1.26.861-1.605a48.862 48.862 0 0 0 2.743-8.39 84.036 84.036 0 0 0 1.512-8.724 29.37 29.37 0 0 0-.02-6.569 11.862 11.862 0 0 0-.169-.9c-.408-1.785-1.335-3.367-2.781-4.746-1.582-1.445-4.158-2.024-7.728-1.739a8.247 8.247 0 0 0-1.08.175c-3.158.72-6.12 3.407-8.886 8.06-2.771 4.629-4.349 8.42-4.734 11.373-.242 1.789-.227 3.278.045 4.468.178.778.469 1.422.874 1.931.976 1.319 2.38 1.828 4.214 1.53.165-.014.328-.039.488-.075 1.648-.377 3.229-1.412 4.745-3.106 1.502-1.643 2.86-3.71 4.073-6.203 1.235-2.497 1.589-6.43 1.062-11.799-.068-.61.082-.957.448-1.041l.069-.016c.422-.048.701.225.837.82 1.197 6.3.657 11.262-1.621 14.888-2.255 3.621-4.738 6.03-7.45 7.227-.678.3-1.326.52-1.944.66-.961.22-1.87.247-2.726.081-1.407-.256-2.324-.528-2.751-.816-1.938-1.316-3.12-2.911-3.549-4.788-.272-1.19-.233-2.498.115-3.926.872-3.666 1.523-5.982 1.953-6.947 2.569-6.148 6.384-10.317 11.445-12.508 1.316-.566 2.568-.984 3.758-1.256 3.364-.768 6.211-.37 8.542 1.192 1.882 1.28 3.128 3.258 3.739 5.936.612 2.677.824 5.505.638 8.485-.362 5.693-1.658 11.406-3.888 17.14-2.235 5.71-4.828 10.961-7.779 15.752a12.334 12.334 0 0 0 2.353-3.138c.114-.242.262-.384.445-.426.183-.042.387.008.612.149.253.159.4.33.442.513.042.183-.008.387-.149.612-.847 1.566-1.915 2.845-3.205 3.838a102.217 102.217 0 0 0-3.699 2.939c-1.547 1.87-3.156 3.417-4.827 4.641-1.052.77-1.978 1.246-2.779 1.429-.481.11-.914.112-1.299.008zm11.108-23.952c-.12.003-.237.018-.351.044-.87.198-1.8.976-2.79 2.334-1.119 1.532-2.188 3.281-3.208 5.247a78.955 78.955 0 0 0-2.655 5.77c-.773 1.886-1.29 3.208-1.55 3.966-.551 1.594-.74 2.769-.568 3.524.115.504.382.828.8.973.452.186.918.224 1.399.114.641-.146 1.307-.551 1.998-1.214 1.555-1.415 2.837-2.707 3.846-3.876a23.88 23.88 0 0 0 3.512-5.497c.332-.653.786-1.985 1.363-3.995.599-2.014.78-3.753.542-5.216l-.078-.343c-.282-1.236-1.035-1.846-2.26-1.831z" fill="#975C28"/><path d="M389.955 101.978c.018.068.049.29.095.666.069.37.111.589.129.657.182.535.171 1.216-.033 2.041-.204.826-.54 1.418-1.006 1.777-.717.616-1.03 1.057-.939 1.324.092.268.374.282.846.043.438-.183.919-.63 1.442-1.342.227-.348.438-.715.631-1.102.193-.388.384-.786.571-1.196.239-.496.6-.598 1.084-.309.462.296.556.672.283 1.127a28.814 28.814 0 0 1-1.091 2.017c-.785 1.31-1.675 2.198-2.671 2.666a3.817 3.817 0 0 1-2.254.42c-.46 1.059-1.072 2.144-1.833 3.255a17.16 17.16 0 0 1-2.15 2.717 10.428 10.428 0 0 1-2.842 2.129c-1.098.541-2.274.63-3.527.267-1.668-.477-2.679-1.711-3.034-3.704-.229-1.104-.244-2.274-.045-3.509.198-1.236.485-2.263.86-3.083.187-.411.463-1 .827-1.769.363-.769.804-1.617 1.321-2.545-1.974 2.261-3.563 4.511-4.768 6.749-.256.524-.606.624-1.05.3-.256-.154-.351-.529-.283-1.127.842-1.373 2.275-3.474 4.299-6.305 2.024-2.831 4.044-5.104 6.058-6.82a18.667 18.667 0 0 1 2.636-2.367c1.019-.763 1.946-1.262 2.783-1.496 1.611-.429 2.804.276 3.58 2.114.188.462.28 1.31.275 2.545a35.303 35.303 0 0 1-.219 3.757l.017.069.008.034zm-4.16 8.158c-.855-.995-1.044-2.231-.567-3.705.131-.445.415-1.242.852-2.392.438-1.15.932-1.976 1.484-2.478.25-.256.569-.433.956-.53a38.41 38.41 0 0 0 .04-3.023c-.023-1.252-.297-2.006-.821-2.262-.507-.284-.943-.38-1.307-.29-.922.28-1.878 1.198-2.867 2.753-.995 1.532-1.933 3.243-2.814 5.134a93.09 93.09 0 0 0-2.293 5.475c-.647 1.76-1.079 2.981-1.295 3.665-.818 2.431-.836 4.093-.056 4.987.855 1.092 2.241.732 4.158-1.08.848-.769 1.735-1.814 2.662-3.136.813-1.196 1.436-2.235 1.868-3.118zm32.967-47.335a105.986 105.986 0 0 0-2.963 8.225 117.664 117.664 0 0 1-2.813 8.11c.549-.661 1.109-1.326 1.68-1.994a73.467 73.467 0 0 0 1.738-2.047 169.938 169.938 0 0 0 4.287-5.266 63.605 63.605 0 0 0 3.879-5.555 32.764 32.764 0 0 0 1.863-3.323c.424-.846.976-2.117 1.655-3.813.701-1.701.404-2.873-.892-3.516-1.152-.56-2.314-.18-3.485 1.14-1.171 1.319-1.978 2.368-2.422 3.147a41.5 41.5 0 0 0-1.712 3.208 123.77 123.77 0 0 0-.815 1.684zm-19.765 46.244c-.253-1.099-.251-2.377.006-3.835.274-1.487.589-2.645.946-3.473l1.091-2.673c.605-1.431 1.204-2.666 1.795-3.705l.319-.964c.123-.35.258-.703.403-1.06a120.807 120.807 0 0 0-3.847 6.204 104.647 104.647 0 0 0-3.008 5.535c-.24.456-.591.552-1.052.289-.26-.147-.362-.521-.308-1.12.128-1.13 1.392-3.619 3.793-7.467 2.394-3.87 4.627-7.039 6.7-9.506 1.28-3.32 2.615-6.657 4.008-10.009a365.787 365.787 0 0 1 4.473-10.173c.977-2.117 2.15-4.448 3.521-6.99 1.388-2.572 2.866-4.767 4.436-6.585a11.437 11.437 0 0 1 2.689-2.308c1.016-.644 2.102-.857 3.257-.638 1.299.3 2.055.969 2.267 2.006.234 1.031.197 2.137-.112 3.317-.35 1.386-.856 2.645-1.52 3.776a125.349 125.349 0 0 0-1.545 2.615c-1.456 2.59-3.201 5.187-5.237 7.79a730.514 730.514 0 0 0-5.153 6.635 47.65 47.65 0 0 1-2.57 3.006c-.806.878-1.68 1.86-2.623 2.947l-1.273 3.343-1.224 3.257a90.459 90.459 0 0 1 2.279-1.94c1.581-1.334 2.98-1.913 4.197-1.736 1.211.155 1.965 1.396 2.263 3.724.219 1.862-.162 3.975-1.144 6.338-.96 2.357-1.852 4.293-2.677 5.81a12.387 12.387 0 0 0 2.215-3.237c.262-.462.621-.572 1.077-.332.422.298.528.682.317 1.154-.784 1.578-1.788 2.888-3.011 3.93a121.212 121.212 0 0 0-3.602 3.106c-1.403 1.894-2.792 3.395-4.167 4.503-1.604 1.341-3.15 1.96-4.638 1.857-1.779-.096-2.893-1.226-3.341-3.391zm13.157-19.64c-.972.097-1.965.868-2.979 2.315-.992 1.44-1.928 3.085-2.809 4.933a64.403 64.403 0 0 0-2.257 5.476c-.631 1.78-1.064 3.042-1.297 3.788-.805 2.655-.671 4.163.402 4.526 1.067.34 2.179-.087 3.336-1.281a64.513 64.513 0 0 0 1.946-1.958 28.007 28.007 0 0 0 1.729-2.081 26.725 26.725 0 0 0 3.313-5.619c.281-.661.596-1.819.946-3.472.349-1.654.373-3.206.072-4.657-.311-1.4-1.112-2.056-2.402-1.97zm41.764-.785l-1.401 2.583c-.42.773-.78 1.428-1.078 1.965a33.371 33.371 0 0 1-3.296 4.768 40.753 40.753 0 0 1-1.689 1.899c-.514.556-1.085.933-1.711 1.13a3.584 3.584 0 0 1-1.783.083c-.363-.058-.712-.268-1.048-.63a12.71 12.71 0 0 1-.763-1.014 1.517 1.517 0 0 1-.281-.54c-.24-.76-.235-1.955.014-3.585.316-2.118.695-3.763 1.138-4.936l3.593-9.44c.38-.982.496-1.707.347-2.177a.863.863 0 0 0-.282-.428.475.475 0 0 0-.467-.075c-.447.142-1.029.756-1.744 1.843a116.4 116.4 0 0 0-4.062 6.671c-1.23 2.185-2.421 4.653-3.571 7.403-.13.213-.27.356-.419.427-.179.057-.387.024-.622-.099-.118-.061-.205-.181-.262-.36-.086-.195-.115-.444-.088-.748.136-1.052 1.232-3.391 3.287-7.018 2.071-3.656 3.846-6.418 5.324-8.287l.077.012c.45-.683 1.301-1.222 2.554-1.617l.168-.053c1.805-.52 2.909-.143 3.311 1.133l.064.202c.333 1.445.312 2.707-.061 3.785l-5.017 14.762c-.125.384-.266.872-.424 1.463-.11.354-.129.644-.059.867a.58.58 0 0 0 .295.35c.272.16.543.198.811.114.202-.064.397-.187.585-.37 1.374-1.417 2.686-3.11 3.935-5.08 4.1-6.51 7.402-13.324 9.908-20.44.085-.199.359-.384.822-.555.463-.17.896-.319 1.299-.446 1.155-.315 1.765-.372 1.829-.17a.277.277 0 0 1-.002.11 1357.3 1357.3 0 0 1-3.846 11.92 694.757 694.757 0 0 1-4.068 11.915 701.62 701.62 0 0 0 2.896-3.46c1.264-1.531 2.275-2.97 3.032-4.316.626-1.06 1.266-2.344 1.922-3.855.115-.258.263-.415.442-.472.179-.056.386-.023.622.1.206.106.337.25.394.429.086.194.071.42-.045.678a53.271 53.271 0 0 1-1.658 3.403 27.048 27.048 0 0 1-1.807 2.933c-.6.829-1.297 1.701-2.092 2.616a371.99 371.99 0 0 1-2.418 2.867 231.363 231.363 0 0 0-2.918 3.505 310.039 310.039 0 0 1-5.483 13.986 1072.3 1072.3 0 0 1-6.042 14.2c-.763 1.717-2.046 3.697-3.849 5.94-1.341 1.678-2.639 2.715-3.892 3.11-.426.134-.85.194-1.273.18-1.053-.062-1.721-.54-2.003-1.435-.24-.762-.197-1.834.13-3.216.366-1.494 1.236-3.651 2.61-6.472 1.382-2.799 2.501-4.948 3.356-6.449.742-1.317 1.679-2.794 2.811-4.431a330.773 330.773 0 0 1 3.522-4.987 161.09 161.09 0 0 1 2.607-3.555c.91-1.173 1.812-2.331 2.707-3.474a3504.81 3504.81 0 0 0 5.112-15.162zm-17.376 44.282c.725-.278 1.482-.997 2.273-2.157.791-1.16 1.726-3.227 2.806-6.201a866.991 866.991 0 0 0 2.906-8.227c.943-2.709 1.877-5.403 2.804-8.083-.584.726-1.175 1.466-1.773 2.221-.577.748-1.127 1.5-1.651 2.256-.744.997-1.672 2.348-2.783 4.052a109.288 109.288 0 0 0-3.283 5.392c-1.78 3.097-3.039 5.857-3.776 8.28-.281.901-.352 1.575-.211 2.023.248.783 1.099.945 2.554.486l.134-.042z" fill="#975C28"/><path d="M462.83 84.181c.056-1.232 1.26-3.395 3.611-6.49 2.345-3.117 4.453-5.61 6.326-7.478 1.501-1.941 2.978-3.181 4.432-3.72.622-.21 1.302-.215 2.037-.016.75.168 1.323.62 1.718 1.353.098.215.184.434.258.656.24.638.312 1.332.218 2.082-.131 1.01-.741 1.698-1.831 2.064-1.446.487-2.398.052-2.854-1.305-.435-1.29-.048-2.275 1.16-2.954.334-.187.467-.38.399-.58-.052-.156-.289-.163-.712-.02-.897.351-1.785 1.356-2.664 3.013-.864 1.628-1.668 3.434-2.412 5.418a75.024 75.024 0 0 0-1.876 5.684c-.53 1.812-.871 3.079-1.025 3.8-.484 1.945-.573 3.375-.266 4.287.12.356.302.64.548.855.394.363.881.447 1.459.252.667-.224 1.43-.79 2.289-1.698 1.332-1.489 2.459-2.995 3.383-4.52a36.174 36.174 0 0 0 1.672-3.2 355.54 355.54 0 0 0 1.626-3.667c.089-.253.222-.409.4-.469.178-.06.386-.03.624.087.208.104.342.245.402.422.089.193.079.42-.032.68-.369.892-.693 1.62-.974 2.185-.28.565-.981 1.903-2.104 4.014-.827 1.516-1.887 3.075-3.182 4.674a9.819 9.819 0 0 1-2.677 2.312c-.311.18-.622.321-.934.426-.8.27-1.65.32-2.549.152-1.567-.315-2.631-1.306-3.193-2.975a3.518 3.518 0 0 1-.123-.478c-.315-1.083-.356-2.27-.122-3.563.227-1.314.494-2.395.804-3.242.383-1.144.972-2.63 1.769-4.459-1.864 2.559-3.267 4.938-4.211 7.138-.103.282-.244.453-.422.513s-.378.016-.601-.132c-.119-.059-.209-.177-.268-.355-.09-.193-.124-.441-.103-.746zm22.209-8.161l.199-.072c.487-.173.978-.124 1.473.148.452.287.764.674.938 1.16l.094.266c.266 1.375-.043 2.22-.927 2.536l-.066.024-.067.024c-.928.33-1.464 1.17-1.606 2.516-.116.515-.107.96.027 1.336.134.376.382.686.744.931.241.188.517.227.826.117.597-.213 1.298-.974 2.102-2.282.409-.67.908-1.645 1.498-2.927a1595.47 1595.47 0 0 1 1.894-4.227 238.01 238.01 0 0 1 2.461-5.363 70.822 70.822 0 0 1 2.809-5.226 102.45 102.45 0 0 0 1.925-3.302c.801-1.458 1.604-2.629 2.41-3.514.291-.303.517-.508.678-.615.453-.337 1.111-.658 1.973-.966 1.15-.41 1.764-.504 1.843-.283.015.044.02.092.014.144l-6.153 20.586c-.111.388-.234.88-.37 1.477-.097.359-.106.648-.027.87a.576.576 0 0 0 .308.338c.278.15.549.178.814.084a1.5 1.5 0 0 0 .571-.391c.689-.794 1.274-1.6 1.754-2.42.495-.849 1.022-1.747 1.581-2.694a45.43 45.43 0 0 0 2.925-6.052c.1-.21.238-.347.415-.41.169-.085.374-.07.614.043.239.114.395.27.466.47.063.176.049.38-.043.613a62.893 62.893 0 0 1-2.956 6.175c-1.026 1.736-2.347 3.553-3.963 5.45-.717.854-1.407 1.4-2.07 1.636-.708.252-1.375.129-2.002-.37-.429-.296-.75-.742-.963-1.34a3.499 3.499 0 0 1-.132-.475c-.393-1.38-.438-3.01-.135-4.886.302-1.878.59-3.201.864-3.972l1.551-4.665a.335.335 0 0 0-.313-.038c-.133.047-.293.192-.481.433a44.008 44.008 0 0 0-3.889 6.284 86.459 86.459 0 0 0-3.17 7.149c-.923 2.373-1.955 4.161-3.096 5.365-.595.636-1.18 1.057-1.755 1.262a2.271 2.271 0 0 1-1.739-.053c-.884-.383-1.554-1.215-2.012-2.497a10.492 10.492 0 0 1-.323-1.118c-.284-1.494-.294-2.886-.032-4.176.241-1.282 1.081-2.316 2.519-3.104z" fill="#975C28"/><path d="M526.458 63.147l-1.252 2.658c-.376.795-.698 1.47-.965 2.022a33.379 33.379 0 0 1-3.02 4.948c-.55.735-1.076 1.4-1.58 1.991-.481.585-1.029.993-1.644 1.226a3.58 3.58 0 0 1-1.775.183c-.366-.037-.726-.227-1.082-.569a12.713 12.713 0 0 1-.819-.97 1.516 1.516 0 0 1-.311-.521c-.283-.747-.346-1.94-.19-3.58.196-2.133.482-3.798.857-4.994l3.053-9.629c.323-1.001.397-1.732.223-2.193a.87.87 0 0 0-.307-.411.474.474 0 0 0-.47-.048c-.439.167-.984.813-1.637 1.939a116.703 116.703 0 0 0-3.677 6.89c-1.104 2.251-2.153 4.782-3.146 7.593-.117.22-.249.37-.394.451-.176.067-.385.045-.627-.064-.121-.054-.215-.17-.281-.345-.097-.19-.14-.436-.131-.741.076-1.058 1.038-3.456 2.885-7.193 1.86-3.767 3.475-6.626 4.845-8.576l.078.008c.41-.707 1.229-1.294 2.458-1.76l.165-.062c1.772-.622 2.896-.307 3.37.944l.075.198c.414 1.424.465 2.685.153 3.782l-4.171 15.023c-.103.39-.217.885-.341 1.484-.09.36-.093.65-.01.87a.575.575 0 0 0 .315.333c.28.144.552.167.816.067.197-.075.385-.209.563-.402 1.291-1.493 2.505-3.259 3.641-5.296 3.723-6.732 6.634-13.722 8.733-20.968.073-.204.336-.404.789-.6.452-.197.876-.37 1.271-.52 1.136-.38 1.742-.471 1.817-.274.008.022.01.059.004.111-1.032 4.031-2.087 8.07-3.163 12.118a697.196 697.196 0 0 1-3.387 12.127 657.707 657.707 0 0 0 2.695-3.619c1.176-1.6 2.103-3.094 2.782-4.48.565-1.093 1.132-2.413 1.701-3.959.101-.264.239-.429.414-.495.176-.067.385-.046.627.063.212.096.351.231.418.407.096.189.094.416-.006.68a52.778 52.778 0 0 1-1.463 3.491 26.968 26.968 0 0 1-1.638 3.03 38.132 38.132 0 0 1-1.94 2.731c-.648.873-1.398 1.873-2.252 3a234.417 234.417 0 0 0-2.715 3.664 308.89 308.89 0 0 1-4.681 14.275 1058.478 1058.478 0 0 1-5.228 14.519c-.664 1.758-1.833 3.808-3.506 6.149-1.244 1.751-2.48 2.86-3.709 3.326a3.762 3.762 0 0 1-1.26.251c-1.055-.002-1.749-.441-2.082-1.319-.283-.747-.3-1.819-.052-3.219.28-1.512 1.027-3.715 2.239-6.609 1.221-2.872 2.216-5.082 2.985-6.629.666-1.356 1.517-2.884 2.555-4.582a321.742 321.742 0 0 1 3.234-5.18 154.16 154.16 0 0 1 2.402-3.696 997.33 997.33 0 0 1 2.505-3.623c1.348-4.853 2.763-9.995 4.244-15.426zm-14.838 45.195c.708-.318 1.423-1.079 2.147-2.282.724-1.203 1.541-3.32 2.451-6.35a910.98 910.98 0 0 0 2.435-8.378c.787-2.759 1.567-5.502 2.34-8.23a453.49 453.49 0 0 0-1.644 2.318c-.533.78-1.04 1.561-1.521 2.346-.686 1.038-1.535 2.44-2.548 4.204a108.495 108.495 0 0 0-2.972 5.57c-1.602 3.192-2.702 6.018-3.3 8.479-.231.916-.263 1.593-.096 2.032.291.768 1.15.882 2.576.341l.132-.05z" fill="#975C28"/><path d="M553.077 52.52a44.827 44.827 0 0 1-2.736 6.275 18.938 18.938 0 0 1-2.001 3.069c-.778.965-1.515 1.877-2.21 2.734-.551.648-1.164 1.106-1.841 1.375a3.843 3.843 0 0 1-1.334.264c-1.247.041-2.178-.46-2.795-1.503a6.085 6.085 0 0 1-.403-.825 5.235 5.235 0 0 1-.34-2.479c.106-.876.409-1.767.908-2.672a24.652 24.652 0 0 1 1.523-2.461c.923-1.301 1.606-2.507 2.049-3.617.464-1.12.782-2.546.952-4.28.089-.92.034-1.63-.165-2.132-.226-.567-.648-.867-1.266-.899-.597-.04-1.092.017-1.485.173-.305.121-.526.297-.662.528-1.326 2.32-2.36 4.676-3.103 7.067a45.79 45.79 0 0 1-1.099 3.05c-.43 1.08-.783 2.13-1.06 3.15-.084.234-.208.397-.374.488-.175.07-.388.041-.641-.086a.619.619 0 0 1-.332-.36c-.069-.175-.097-.404-.083-.687-.015-1.181.561-3.228 1.727-6.142 1.189-2.921 2.382-5.353 3.581-7.294.674-1.101 1.312-1.847 1.915-2.238.458-.308.906-.55 1.342-.722 1.636-.65 3.242-.391 4.817.776a3.875 3.875 0 0 1 1.264 1.657 4.69 4.69 0 0 1 .316 1.655c.011 1.108-.269 2.216-.838 3.326a44.525 44.525 0 0 1-1.97 3.434c-.556.954-1.103 1.929-1.641 2.925a13.587 13.587 0 0 0-1.257 3.038 5.835 5.835 0 0 0 .012 3.177c.03.14.067.264.111.373.311.785.718 1.078 1.22.88.284-.114.596-.377.937-.79.66-.818 1.161-1.56 1.502-2.225.355-.697.784-1.524 1.288-2.482a41.307 41.307 0 0 0 2.709-6.152c.096-.266.232-.433.406-.503.175-.069.384-.05.628.054.213.092.354.226.424.4.099.188.101.414.005.68z" fill="#975C28"/></svg>