<svg width="90" height="90" viewBox="0 0 90 90" fill="none" xmlns="http://www.w3.org/2000/svg"><g clip-path="url(#a)"><path d="M34.12 15.76l25.894 12.47 6.396 28.02-17.92 22.47H19.75L1.83 56.25l6.396-28.02L34.12 15.76z" fill="url(#b)"/><path d="M55.718 10l25.894 12.47 6.395 28.02-17.92 22.47h-28.74L23.428 50.49l6.395-28.02L55.718 10z" fill="url(#c)"/><mask id="d" maskUnits="userSpaceOnUse" x="-3" y="-14" width="100" height="120"><path fill="#fff" d="M-3-14H97v120H-3z"/></mask><g mask="url(#d)" stroke="#fff"><path d="M-210 250.634c1.07-17.821 14.138-36.942 24.838-50.557 11.54-14.609 25.678-27.152 41.727-36.637 13.145-7.801 27.437-13.538 40.199-21.875 12.305-8.031 22.622-19.81 27.13-33.883 5.274-16.292-.84-31.895-6.8-47.115-5.885-14.992-8.713-30.212-4.816-46.045C-84.053-.163-75.647-13.625-63.648-22.88c21.857-16.827 55.102-19.886 83.073-7.648"/><path opacity=".989" d="M24.24-30.91C.93-41.084-26.278-40.167-47.14-29.076c-3.516 1.836-6.879 4.054-10.012 6.425C-68.998-13.396-77.328.066-80.996 14.598c-1.529 5.966-2.064 11.856-1.835 17.592.306 9.485 2.675 18.816 6.19 27.994 1.911 5.125 3.898 10.25 5.427 15.527 2.98 10.096 4.28 20.421.84 31.13-1.452 4.359-3.439 8.566-5.808 12.467-5.273 8.566-12.686 15.832-21.016 21.339-8.636 5.737-17.884 10.25-27.054 15.068-4.204 2.218-8.407 4.436-12.458 6.884-13.985 8.413-26.519 19.121-37.218 31.512a119.646 119.646 0 0 0-4.127 5.048c-10.699 13.538-23.768 32.43-24.991 49.869"/><path opacity=".978" d="M28.672-31.064c-22.698-9.867-49.293-8.72-69.775 2.448-3.439 1.912-6.802 4.053-9.859 6.501C-62.578-12.86-70.908.525-74.577 14.981a62.409 62.409 0 0 0-1.987 17.439c.23 9.407 2.446 18.586 5.809 27.764 1.834 5.048 3.744 10.173 5.196 15.374 2.828 10.02 4.05 20.268.535 30.824-1.452 4.359-3.439 8.49-5.808 12.39-5.273 8.567-12.533 15.833-20.71 21.34-8.484 5.736-17.578 10.326-26.596 15.144-4.127 2.218-8.254 4.513-12.228 6.96-13.756 8.414-26.214 19.198-36.837 31.513a83.698 83.698 0 0 0-4.126 4.971c-10.7 13.462-23.768 32.048-25.144 49.257"/><path opacity=".967" d="M32.952-30.987c-22.087-9.56-48.148-8.108-68.247 3.06a69.322 69.322 0 0 0-9.706 6.5c-11.464 9.255-19.64 22.64-23.462 36.943-1.529 5.89-2.14 11.626-2.064 17.286.153 9.331 2.293 18.433 5.503 27.459 1.758 5.048 3.592 10.096 4.968 15.22 2.674 9.867 3.82 20.04.305 30.518-1.452 4.284-3.439 8.414-5.808 12.315-5.197 8.49-12.38 15.756-20.329 21.339-8.33 5.813-17.272 10.402-26.137 15.221-4.05 2.218-8.101 4.513-12.075 6.96-13.527 8.49-25.908 19.198-36.454 31.436-1.376 1.606-2.751 3.289-4.127 4.971-10.699 13.386-23.691 31.742-25.373 48.569"/><path opacity=".956" d="M37.002-30.758c-21.475-9.255-46.924-7.572-66.718 3.672-3.362 1.912-6.572 4.053-9.553 6.5-11.31 9.256-19.412 22.564-23.233 36.79-1.528 5.814-2.216 11.55-2.14 17.21.077 9.255 2.064 18.204 5.12 27.153 1.682 4.971 3.44 9.943 4.74 14.99 2.521 9.791 3.515 19.81 0 30.289-1.453 4.284-3.44 8.414-5.733 12.238-5.197 8.49-12.228 15.68-20.023 21.263-8.177 5.813-16.89 10.479-25.678 15.374-3.974 2.218-7.948 4.513-11.846 7.037-13.374 8.49-25.602 19.198-36.072 31.359-1.376 1.606-2.751 3.289-4.127 4.971-10.623 13.233-23.691 31.36-25.526 47.881"/><path opacity=".944" d="M40.9-30.299c-20.94-8.949-45.702-7.037-65.19 4.36a66.098 66.098 0 0 0-9.323 6.578c-11.082 9.255-19.183 22.487-23.004 36.636-1.529 5.813-2.293 11.473-2.293 17.057 0 9.178 1.834 18.05 4.739 26.846 1.605 4.896 3.21 9.867 4.432 14.839 2.37 9.714 3.286 19.657-.23 29.982-1.451 4.283-3.438 8.337-5.73 12.162-5.121 8.413-12 15.679-19.718 21.263-8.025 5.813-16.584 10.478-25.144 15.45-3.897 2.294-7.871 4.589-11.693 7.037-13.145 8.566-25.22 19.274-35.69 31.359-1.375 1.606-2.751 3.212-4.127 4.895-10.622 13.156-23.691 31.053-25.678 47.268"/><path opacity=".933" d="M44.492-29.687C24.163-38.33-.063-36.188-19.093-24.715c-3.21 1.912-6.343 4.13-9.17 6.577-10.93 9.332-18.878 22.487-22.775 36.484-1.605 5.737-2.293 11.32-2.37 16.904-.076 9.025 1.606 17.82 4.357 26.617 1.528 4.818 3.057 9.714 4.203 14.685 2.216 9.56 2.98 19.427-.535 29.677a60.267 60.267 0 0 1-5.732 12.084c-5.044 8.414-11.845 15.604-19.411 21.264-7.872 5.813-16.279 10.555-24.685 15.526-3.821 2.295-7.719 4.589-11.464 7.113-12.915 8.567-24.914 19.275-35.308 31.283-1.375 1.606-2.751 3.213-4.05 4.895-10.623 13.079-23.692 30.671-25.832 46.58"/><path opacity=".922" d="M47.931-28.922C28.214-37.259 4.6-34.888-14.125-23.339a67.906 67.906 0 0 0-9.018 6.578C-33.92-7.429-41.791 5.65-45.688 19.57a64.353 64.353 0 0 0-2.446 16.75c-.153 8.95 1.376 17.669 4.05 26.312 1.453 4.818 2.905 9.637 3.975 14.532 2.063 9.484 2.75 19.198-.765 29.447-1.452 4.207-3.362 8.184-5.655 12.008-5.044 8.337-11.693 15.604-19.106 21.187-7.719 5.813-15.973 10.632-24.226 15.603a255.535 255.535 0 0 0-11.311 7.19c-12.763 8.643-24.609 19.351-35.002 31.283-1.376 1.606-2.752 3.212-4.051 4.818-10.623 13.003-23.691 30.365-25.984 45.892"/><path opacity=".911" d="M51.217-28.004C32.111-36.035 9.107-33.358-9.31-21.81c-3.133 1.989-6.114 4.13-8.865 6.654C-28.722-5.823-36.594 7.18-40.492 21.023c-1.605 5.66-2.369 11.167-2.598 16.598-.23 8.872 1.223 17.438 3.668 26.005 1.376 4.742 2.752 9.484 3.745 14.38 1.987 9.407 2.522 19.044-1.07 29.141a63.088 63.088 0 0 1-5.655 11.931c-4.968 8.337-11.54 15.527-18.8 21.187-7.567 5.889-15.591 10.632-23.768 15.68a247.967 247.967 0 0 0-11.082 7.189c-12.533 8.643-24.303 19.351-34.62 31.207-1.376 1.606-2.751 3.212-4.05 4.818-10.623 12.926-23.692 30.059-26.137 45.28"/><path opacity=".9" d="M54.35-26.933c-18.494-7.726-40.963-4.82-58.999 6.807a72.902 72.902 0 0 0-8.712 6.654C-23.754-4.14-31.55 8.862-35.524 22.553a70.266 70.266 0 0 0-2.675 16.445c-.382 8.795.994 17.285 3.287 25.699 1.299 4.665 2.598 9.408 3.515 14.226 1.834 9.255 2.216 18.816-1.3 28.835a62.44 62.44 0 0 1-5.654 11.856c-4.892 8.26-11.311 15.45-18.419 21.186-7.413 5.89-15.285 10.708-23.233 15.757-3.668 2.294-7.336 4.665-10.928 7.266-12.381 8.719-23.921 19.351-34.238 31.13-1.376 1.606-2.751 3.135-4.051 4.742-10.623 12.773-23.615 29.676-26.366 44.591"/><path opacity=".889" d="M57.255-25.71C39.37-33.129 17.515-29.993-.14-18.214c-2.98 1.988-5.884 4.206-8.56 6.654-10.24 9.331-17.883 22.258-21.933 35.796-1.605 5.583-2.522 11.013-2.751 16.291-.459 8.72.764 17.133 2.98 25.47 1.223 4.666 2.37 9.331 3.287 14.073 1.68 9.179 1.986 18.663-1.605 28.53-1.452 4.13-3.363 8.031-5.58 11.778-4.89 8.261-11.157 15.451-18.112 21.111-7.26 5.889-14.979 10.784-22.774 15.832-3.592 2.371-7.184 4.742-10.7 7.266-12.151 8.72-23.615 19.428-33.855 31.13-1.376 1.53-2.675 3.136-4.051 4.742-10.546 12.697-23.615 29.371-26.519 43.903"/><path opacity=".878" d="M60.006-24.333c-17.272-7.113-38.518-3.748-55.866 8.107-2.904 1.99-5.732 4.207-8.407 6.731C-14.355-.163-21.92 12.686-25.97 26.148c-1.681 5.507-2.522 10.86-2.904 16.138-.535 8.643.535 16.904 2.598 25.164 1.146 4.59 2.216 9.178 2.98 13.844 1.53 9.026 1.682 18.433-1.91 28.3-1.528 4.054-3.363 7.955-5.579 11.702a82.666 82.666 0 0 1-17.807 21.111c-7.107 5.889-14.673 10.861-22.316 15.985-3.515 2.371-7.03 4.742-10.546 7.343-11.922 8.796-23.309 19.427-33.474 31.053-1.375 1.53-2.675 3.136-3.974 4.666-10.546 12.62-23.615 28.988-26.672 43.291"/><path opacity=".867" d="M62.604-22.803c-16.66-6.808-37.371-3.213-54.337 8.72C5.439-12.096 2.61-9.878.013-7.354c-9.859 9.331-17.425 22.104-21.475 35.49-1.681 5.43-2.599 10.784-2.98 15.985-.612 8.566.381 16.75 2.216 24.858.993 4.513 2.063 9.102 2.75 13.69 1.377 8.95 1.453 18.205-2.139 27.995-1.529 4.054-3.363 7.954-5.579 11.626-4.738 8.184-10.852 15.373-17.501 21.11-6.955 5.966-14.291 10.861-21.857 16.062a428.644 428.644 0 0 0-10.317 7.343c-11.77 8.795-23.004 19.504-33.092 30.976a116.068 116.068 0 0 0-3.974 4.666c-10.547 12.544-23.615 28.682-26.825 42.603"/><path opacity=".856" d="M64.974-21.197c-16.126-6.501-36.149-2.677-52.81 9.331-2.827 1.989-5.502 4.283-8.1 6.731-9.706 9.408-17.12 22.105-21.246 35.336-1.681 5.431-2.675 10.709-3.057 15.833-.688 8.414.153 16.521 1.91 24.552.994 4.436 1.911 8.949 2.523 13.538 1.222 8.873 1.222 18.051-2.446 27.688-1.529 3.977-3.363 7.878-5.503 11.55-4.738 8.107-10.623 15.297-17.195 21.033-6.802 5.966-13.986 10.938-21.322 16.139-3.363 2.371-6.802 4.818-10.165 7.419-11.54 8.872-22.621 19.504-32.709 30.977-1.376 1.529-2.675 3.059-3.974 4.589-10.547 12.467-23.615 28.376-26.978 41.991"/><path opacity=".844" d="M67.266-19.361c-15.514-6.196-34.926-2.142-51.204 10.02-2.752 2.064-5.426 4.282-7.948 6.73C-1.44 6.797-8.776 19.417-12.98 32.573a74.974 74.974 0 0 0-3.134 15.68c-.764 8.336-.076 16.367 1.529 24.322.84 4.436 1.758 8.872 2.293 13.385 1.07 8.72.917 17.821-2.675 27.382a79.116 79.116 0 0 1-5.503 11.473c-4.662 8.107-10.47 15.297-16.89 21.033-6.648 5.966-13.68 11.014-20.863 16.215-3.287 2.372-6.65 4.819-9.935 7.42-11.388 8.872-22.316 19.504-32.328 30.9a213.814 213.814 0 0 0-3.974 4.589c-10.546 12.314-23.615 27.994-27.13 41.303"/><path opacity=".833" d="M69.406-17.526c-14.903-5.89-33.78-1.606-49.676 10.632-2.674 2.065-5.273 4.283-7.795 6.807-9.324 9.408-16.66 21.952-20.864 35.03-1.68 5.355-2.75 10.48-3.286 15.527-.84 8.26-.306 16.139 1.147 24.017.764 4.36 1.605 8.72 2.063 13.232.917 8.643.688 17.592-2.98 27.153-1.529 3.977-3.363 7.725-5.503 11.396-4.662 8.031-10.317 15.221-16.584 21.034-6.496 5.966-13.374 11.014-20.405 16.291-3.21 2.448-6.496 4.895-9.783 7.496-11.157 8.949-22.01 19.58-32.021 30.824-1.3 1.529-2.675 3.059-3.974 4.512-10.47 12.238-23.539 27.688-27.284 40.614"/><path opacity=".822" d="M71.47-15.46c-14.292-5.584-32.557-.995-48.148 11.243-2.598 2.065-5.196 4.36-7.565 6.807C6.586 11.998-.675 24.542-4.879 37.468c-1.68 5.277-2.827 10.402-3.362 15.372-.917 8.184-.458 15.986.765 23.711.687 4.283 1.375 8.643 1.834 13.08.764 8.49.382 17.438-3.21 26.846-1.529 3.901-3.363 7.725-5.503 11.32-4.585 8.031-10.164 15.144-16.202 20.957-6.343 6.042-12.992 11.09-19.946 16.368-3.133 2.447-6.343 4.895-9.553 7.496-10.929 8.948-21.705 19.58-31.64 30.823-1.299 1.53-2.675 2.983-3.897 4.513-10.47 12.161-23.539 27.306-27.513 40.002"/><path opacity=".811" d="M73.303-13.319c-13.68-5.278-31.333-.459-46.618 11.855-2.598 2.065-5.044 4.36-7.413 6.808C10.254 14.75 3.146 27.219-1.133 40.068c-1.758 5.201-2.828 10.326-3.44 15.297-.993 8.108-.687 15.757.459 23.405.611 4.283 1.223 8.49 1.529 12.85.687 8.413.152 17.209-3.516 26.54-1.528 3.901-3.363 7.649-5.426 11.244-4.51 8.031-9.935 15.144-15.896 20.957-6.19 6.042-12.687 11.167-19.412 16.445-3.057 2.447-6.267 4.971-9.4 7.572-10.776 9.025-21.322 19.58-31.258 30.747-1.299 1.453-2.598 2.983-3.897 4.513-10.47 12.085-23.539 26.999-27.666 39.314"/><path opacity=".8" d="M75.062-11.1c-13.069-4.972-30.188.076-45.014 12.543a68.067 68.067 0 0 0-7.26 6.884C13.998 17.734 6.89 30.125 2.612 42.898A83.335 83.335 0 0 0-.98 58.043c-1.147 8.03-.917 15.603.076 23.175.535 4.207 1.07 8.413 1.3 12.697.534 8.337-.077 16.979-3.745 26.311-1.529 3.824-3.363 7.572-5.427 11.243-4.508 7.955-9.782 15.068-15.59 20.957-6.038 6.043-12.38 11.244-18.953 16.598a397.019 397.019 0 0 0-9.171 7.572c-10.547 9.025-21.017 19.657-30.875 30.747-1.3 1.454-2.599 2.983-3.898 4.437-10.47 12.008-23.539 26.693-27.818 38.625"/><path opacity=".789" d="M76.743-8.806c-12.457-4.666-28.965.612-43.485 13.155-2.446 2.142-4.815 4.36-7.108 6.884-8.636 9.408-15.667 21.799-20.023 34.419-1.758 5.124-2.904 10.096-3.668 14.991-1.223 7.955-1.147 15.45-.306 22.87.459 4.13.917 8.336 1.07 12.543.382 8.184-.382 16.827-4.05 26.005-1.529 3.825-3.363 7.496-5.427 11.167-4.432 7.955-9.63 15.068-15.284 20.881-5.885 6.042-12.075 11.243-18.495 16.674a372.38 372.38 0 0 0-9.018 7.649c-10.394 9.101-20.711 19.656-30.493 30.67a228.377 228.377 0 0 0-3.898 4.437c-10.47 11.855-23.538 26.311-27.971 38.013"/><path opacity=".778" d="M78.271-6.359C66.425-10.719 50.53-5.21 36.314 7.41c-2.369 2.141-4.738 4.436-6.954 6.884-8.483 9.406-15.361 21.72-19.794 34.264-1.758 5.125-2.98 10.02-3.745 14.839-1.299 7.801-1.299 15.22-.611 22.563.382 4.054.764 8.184.84 12.39.23 8.108-.611 16.598-4.28 25.7-1.528 3.748-3.362 7.496-5.349 11.09-4.356 7.878-9.477 14.992-14.98 20.881-5.73 6.119-11.692 11.32-18.035 16.75-2.904 2.525-5.808 5.049-8.789 7.649-10.164 9.102-20.329 19.734-30.111 30.595l-3.898 4.359c-10.393 11.779-23.538 26.005-28.124 37.325"/><path opacity=".767" d="M79.724-3.835c-11.311-4.053-26.596 1.683-40.429 14.38-2.293 2.141-4.585 4.436-6.802 6.96C24.24 26.989 17.362 39.15 12.93 51.618c-1.758 5.048-3.057 9.943-3.898 14.685-1.375 7.725-1.528 15.068-.993 22.257.306 4.054.535 8.108.611 12.238.077 8.031-.84 16.445-4.585 25.393-1.529 3.748-3.363 7.42-5.35 11.014-4.356 7.879-9.247 14.915-14.673 20.881-5.58 6.119-11.387 11.397-17.501 16.827-2.828 2.524-5.732 5.048-8.636 7.725-9.935 9.178-20.023 19.734-29.73 30.595-1.299 1.453-2.598 2.906-3.82 4.359-10.394 11.703-23.463 25.623-28.277 36.637"/><path opacity=".756" d="M81.023-1.234C70.323-4.982 55.65.984 42.199 13.757a82.479 82.479 0 0 0-6.649 6.96c-8.1 9.484-14.902 21.646-19.335 33.96-1.834 4.972-3.057 9.867-3.974 14.532-1.452 7.649-1.758 14.839-1.376 22.028.23 3.978.383 7.955.383 12.085-.077 7.878-1.147 16.215-4.815 25.164-1.529 3.748-3.363 7.343-5.35 10.937-4.28 7.802-9.094 14.915-14.368 20.805-5.426 6.119-11.081 11.473-17.042 16.903a728.616 728.616 0 0 0-8.407 7.802c-9.782 9.178-19.717 19.733-29.347 30.518-1.299 1.453-2.598 2.906-3.82 4.283-10.395 11.626-23.463 25.317-28.507 36.025"/><path opacity=".744" d="M82.322 1.366c-10.088-3.442-24.15 2.754-37.295 15.68a95.391 95.391 0 0 0-6.496 6.96c-7.948 9.484-14.674 21.57-19.106 33.807a95.543 95.543 0 0 0-4.05 14.38c-1.53 7.572-1.988 14.685-1.682 21.721.153 3.901.23 7.878.153 11.932-.23 7.802-1.376 15.986-5.12 24.858-1.53 3.671-3.363 7.343-5.274 10.861-4.203 7.802-8.941 14.838-13.985 20.804-5.274 6.119-10.776 11.473-16.584 16.98a6984.652 6984.652 0 0 0-8.254 7.802c-9.553 9.255-19.412 19.81-29.041 30.441-1.3 1.454-2.522 2.83-3.822 4.284-10.317 11.549-23.462 24.934-28.659 35.336"/><path opacity=".733" d="M83.468 4.12C73.991.984 60.464 7.485 47.702 20.41c-2.14 2.142-4.28 4.513-6.344 6.96-7.795 9.485-14.367 21.493-18.953 33.578a102.001 102.001 0 0 0-4.203 14.226c-1.605 7.496-2.14 14.456-2.064 21.416.077 3.901.077 7.726-.152 11.703-.383 7.648-1.682 15.832-5.427 24.552-1.528 3.671-3.362 7.266-5.273 10.784-4.203 7.725-8.789 14.839-13.68 20.805-5.12 6.118-10.393 11.549-16.125 17.056a747.59 747.59 0 0 0-8.025 7.878c-9.323 9.255-19.03 19.81-28.659 30.441-1.299 1.377-2.522 2.83-3.82 4.207-10.318 11.473-23.463 24.629-28.813 34.648"/><path opacity=".722" d="M84.538 6.95c-8.865-2.907-21.78 3.9-34.238 16.903-2.063 2.142-4.127 4.513-6.19 7.037-7.566 9.484-14.139 21.493-18.724 33.424a116.347 116.347 0 0 0-4.28 14.074c-1.681 7.419-2.369 14.303-2.445 21.11 0 3.824-.077 7.649-.383 11.549-.534 7.572-1.91 15.603-5.655 24.246a154.108 154.108 0 0 1-5.273 10.708c-4.127 7.726-8.56 14.762-13.374 20.728-4.968 6.196-10.088 11.626-15.667 17.133-2.522 2.601-5.197 5.201-7.872 7.878-9.17 9.331-18.724 19.886-28.277 30.365-1.299 1.377-2.522 2.83-3.821 4.207-10.317 11.32-23.462 24.322-28.965 34.036"/><path opacity=".711" d="M85.608 9.78c-8.254-2.6-20.558 4.436-32.633 17.515-1.987 2.218-4.05 4.513-5.961 7.037-7.413 9.484-13.91 21.416-18.495 33.271-1.834 4.819-3.286 9.485-4.356 13.92a103.493 103.493 0 0 0-2.828 20.881c-.153 3.748-.229 7.572-.611 11.397-.611 7.495-2.14 15.45-5.961 24.016-1.605 3.595-3.363 7.114-5.197 10.632-4.127 7.649-8.407 14.685-13.069 20.728-4.814 6.195-9.782 11.626-15.131 17.286-2.446 2.6-5.044 5.201-7.643 7.954-8.941 9.331-18.418 19.886-27.895 30.365-1.299 1.377-2.522 2.754-3.82 4.13-10.318 11.244-23.463 23.94-29.118 33.348"/><path opacity=".7" d="M86.525 12.686c-7.642-2.294-19.411 4.972-31.104 18.204a109.425 109.425 0 0 0-5.808 7.037c-7.26 9.484-13.604 21.34-18.266 33.118-1.834 4.742-3.286 9.408-4.509 13.768-1.834 7.19-2.828 13.92-3.133 20.574-.23 3.672-.459 7.419-.84 11.244-.765 7.342-2.446 15.22-6.191 23.71-1.605 3.595-3.363 7.114-5.197 10.556-4.05 7.648-8.254 14.685-12.763 20.727-4.662 6.196-9.476 11.703-14.673 17.363-2.37 2.6-4.891 5.201-7.49 7.954-8.788 9.408-18.112 19.886-27.512 30.289-1.223 1.376-2.522 2.753-3.745 4.13-10.317 11.167-23.386 23.634-29.27 32.659"/><path opacity=".689" d="M87.443 15.67c-7.031-1.99-18.19 5.506-29.576 18.815a109.988 109.988 0 0 0-5.656 7.113c-7.03 9.56-13.374 21.34-18.036 32.966-1.91 4.742-3.362 9.254-4.585 13.614-1.987 7.113-2.98 13.767-3.516 20.269-.306 3.671-.611 7.342-1.07 11.09-.917 7.266-2.675 14.991-6.496 23.405a190.71 190.71 0 0 1-5.197 10.479c-3.974 7.572-8.1 14.608-12.457 20.651-4.509 6.195-9.094 11.779-14.215 17.439-2.292 2.6-4.738 5.277-7.26 8.031-8.56 9.407-17.73 19.962-27.13 30.212-1.223 1.376-2.522 2.753-3.745 4.13-10.241 11.09-23.386 23.252-29.423 32.047"/><path opacity=".678" d="M88.282 18.652c-6.495-1.682-16.966 6.043-28.047 19.428a143.962 143.962 0 0 0-5.503 7.113c-6.878 9.56-13.145 21.263-17.883 32.813a124.1 124.1 0 0 0-4.662 13.537c-2.063 7.037-3.21 13.539-3.897 20.04-.382 3.595-.765 7.19-1.3 10.937-1.07 7.19-2.904 14.839-6.725 23.099-1.605 3.518-3.363 6.96-5.197 10.402-3.974 7.572-7.871 14.609-12.151 20.651-4.356 6.272-8.789 11.856-13.756 17.516-2.293 2.6-4.662 5.277-7.031 8.031-8.33 9.484-17.425 19.963-26.749 30.212-1.223 1.376-2.522 2.753-3.745 4.053-10.24 11.014-23.385 22.946-29.652 31.36"/><path opacity=".667" d="M89.124 21.712c-5.885-1.377-15.82 6.578-26.443 20.039-1.758 2.218-3.592 4.59-5.35 7.113-6.725 9.56-12.915 21.187-17.654 32.66a149.723 149.723 0 0 0-4.738 13.385c-2.14 6.96-3.439 13.385-4.203 19.733-.459 3.519-.917 7.113-1.605 10.785-1.223 7.036-3.21 14.609-7.031 22.869-1.605 3.442-3.363 6.884-5.12 10.326-3.898 7.495-7.72 14.532-11.77 20.651-4.203 6.272-8.483 11.855-13.221 17.592-2.216 2.677-4.51 5.354-6.878 8.107-8.178 9.484-17.12 19.963-26.367 30.136A180.884 180.884 0 0 1-45 239.161c-10.241 10.861-23.386 22.64-29.806 30.671"/><path opacity=".656" d="M89.888 24.771c-5.273-1.07-14.597 7.113-24.914 20.728-1.682 2.218-3.516 4.665-5.197 7.19-6.496 9.56-12.61 21.186-17.425 32.506a179.646 179.646 0 0 0-4.89 13.232c-2.217 6.884-3.67 13.156-4.586 19.428-.535 3.518-1.07 6.96-1.834 10.555-1.376 6.96-3.44 14.379-7.26 22.563-1.606 3.442-3.363 6.884-5.121 10.249-3.821 7.496-7.566 14.456-11.464 20.575-4.05 6.272-8.177 11.932-12.763 17.668-2.14 2.677-4.356 5.354-6.648 8.108-7.949 9.561-16.814 20.039-26.061 30.059a92.291 92.291 0 0 1-3.745 3.977c-10.24 10.785-23.386 22.257-29.958 30.059"/><path opacity=".644" d="M90.576 27.83c-4.662-.764-13.375 7.65-23.386 21.34a194.958 194.958 0 0 0-5.044 7.19c-6.343 9.56-12.38 21.11-17.196 32.353-1.91 4.513-3.592 8.95-4.967 13.08-2.293 6.807-3.898 13.002-4.968 19.121a277.3 277.3 0 0 1-2.063 10.402c-1.529 6.807-3.745 14.227-7.566 22.258-1.605 3.441-3.363 6.807-5.12 10.172-3.822 7.496-7.414 14.456-11.158 20.575a208.909 208.909 0 0 1-12.305 17.745 430.767 430.767 0 0 1-6.496 8.184c-7.795 9.561-16.43 20.039-25.678 30.059-1.223 1.3-2.446 2.677-3.669 3.977-10.24 10.708-23.385 21.952-30.11 29.371"/><path opacity=".633" d="M91.34 30.89c-4.05-.459-12.228 8.184-21.858 21.952-1.605 2.294-3.286 4.665-4.89 7.19-6.191 9.56-12.152 21.033-16.967 32.2-1.91 4.512-3.592 8.796-5.044 12.926-2.369 6.731-4.05 12.85-5.35 18.892a317.433 317.433 0 0 1-2.292 10.249c-1.681 6.731-3.974 13.997-7.796 22.028-1.604 3.365-3.362 6.731-5.044 10.096-3.744 7.419-7.183 14.38-10.852 20.575-3.744 6.272-7.49 12.008-11.845 17.898-1.987 2.677-4.127 5.43-6.267 8.184-7.566 9.56-16.126 20.116-25.296 29.982l-3.669 3.901c-10.164 10.632-23.31 21.569-30.264 28.682"/><path opacity=".622" d="M92.027 34.024c-3.439-.151-11.005 8.721-20.252 22.565-1.528 2.295-3.133 4.666-4.738 7.266-5.961 9.561-11.846 21.034-16.814 32.048-1.986 4.436-3.668 8.719-5.196 12.773-2.446 6.578-4.28 12.62-5.656 18.586-.764 3.366-1.605 6.655-2.522 10.096-1.834 6.655-4.203 13.768-8.1 21.722-1.605 3.366-3.363 6.655-5.045 10.02-3.668 7.419-7.03 14.379-10.546 20.498-3.592 6.349-7.184 12.085-11.31 17.975-1.911 2.677-3.975 5.43-6.115 8.26-7.337 9.637-15.82 20.116-24.914 29.906l-3.668 3.901c-10.165 10.555-23.31 21.263-30.417 28.07"/><path opacity=".611" d="M92.716 37.162c-2.828.153-9.86 9.255-18.724 23.175-1.453 2.295-3.057 4.742-4.586 7.266-5.808 9.56-11.616 20.957-16.584 31.895a253.204 253.204 0 0 0-5.273 12.62c-2.522 6.501-4.51 12.467-6.038 18.28a279.36 279.36 0 0 1-2.75 9.943c-1.988 6.502-4.51 13.615-8.331 21.416-1.605 3.289-3.363 6.655-5.044 9.944-3.668 7.342-6.878 14.303-10.24 20.498-3.44 6.348-6.88 12.161-10.853 18.051-1.834 2.753-3.821 5.507-5.885 8.337-7.184 9.637-15.514 20.115-24.532 29.906-1.223 1.3-2.445 2.6-3.668 3.824-10.165 10.402-23.31 20.881-30.57 27.382"/><path opacity=".6" d="M93.403 40.221c-2.216.46-8.635 9.79-17.195 23.864-1.376 2.294-2.904 4.742-4.433 7.266-5.655 9.637-11.387 20.88-16.354 31.742-1.987 4.359-3.745 8.566-5.35 12.467-2.598 6.425-4.738 12.238-6.42 17.974a201.99 201.99 0 0 1-3.057 9.79c-2.063 6.425-4.738 13.385-8.635 21.11-1.605 3.289-3.363 6.578-4.968 9.867-3.592 7.343-6.725 14.227-9.859 20.498-3.286 6.349-6.572 12.162-10.393 18.128-1.758 2.753-3.669 5.507-5.732 8.337-6.955 9.713-15.132 20.192-24.15 29.829-1.223 1.3-2.446 2.601-3.668 3.824-10.165 10.326-23.31 20.575-30.8 26.694"/><path opacity=".589" d="M94.09 43.357c-1.68.765-7.412 10.326-15.666 24.476-1.376 2.294-2.828 4.742-4.204 7.266-5.426 9.637-11.157 20.88-16.125 31.512a493.27 493.27 0 0 0-5.502 12.314c-2.675 6.349-4.892 12.085-6.726 17.745-.993 3.136-2.14 6.348-3.286 9.637a170.883 170.883 0 0 1-8.942 20.881 389.817 389.817 0 0 0-4.967 9.79c-3.592 7.266-6.496 14.227-9.553 20.422-3.134 6.348-6.19 12.238-9.935 18.204-1.682 2.753-3.592 5.507-5.503 8.413-6.725 9.714-14.826 20.193-23.768 29.83-1.223 1.3-2.369 2.524-3.592 3.748-10.164 10.249-23.309 20.268-30.951 26.081"/><path opacity=".578" d="M94.779 46.416c-1.07 1.071-6.267 10.862-14.062 25.088-1.3 2.371-2.675 4.742-4.05 7.343-5.274 9.637-10.853 20.804-15.897 31.359-1.987 4.283-3.82 8.337-5.579 12.161-2.827 6.272-5.12 11.855-7.107 17.439a753.606 753.606 0 0 1-3.516 9.408c-2.369 6.195-5.273 13.002-9.17 20.574-1.682 3.213-3.363 6.425-4.968 9.791-3.515 7.266-6.343 14.15-9.247 20.421-2.98 6.349-5.885 12.315-9.4 18.281-1.605 2.753-3.44 5.583-5.35 8.413-6.573 9.79-14.52 20.269-23.386 29.753-1.223 1.3-2.37 2.524-3.592 3.748-10.164 10.173-23.31 19.886-31.104 25.393"/><path opacity=".567" d="M95.466 49.476c-.458 1.377-5.043 11.473-12.533 25.7-1.223 2.37-2.599 4.818-3.898 7.342-5.12 9.637-10.623 20.728-15.667 31.206-2.063 4.207-3.897 8.261-5.655 12.009-2.904 6.195-5.35 11.702-7.49 17.133a781.553 781.553 0 0 1-3.744 9.254c-2.522 6.119-5.503 12.773-9.477 20.269-1.681 3.213-3.363 6.425-4.967 9.714-3.44 7.19-6.19 14.15-8.942 20.422-2.828 6.424-5.579 12.39-8.942 18.356a278.037 278.037 0 0 1-5.12 8.49c-6.343 9.79-14.215 20.269-23.08 29.677-1.146 1.224-2.37 2.524-3.592 3.671-10.088 10.096-23.31 19.581-31.257 24.705"/><path opacity=".556" d="M96.154 52.459c.153 1.683-3.82 12.008-11.005 26.388-1.146 2.37-2.445 4.818-3.745 7.342-4.967 9.637-10.393 20.728-15.514 31.054-2.063 4.206-3.974 8.184-5.808 11.855-2.98 6.119-5.579 11.549-7.795 16.827-1.3 2.983-2.599 5.966-3.974 9.102-2.675 5.966-5.808 12.62-9.706 19.962-1.681 3.136-3.363 6.349-4.891 9.638-3.44 7.189-6.038 14.073-8.636 20.345-2.675 6.425-5.273 12.391-8.483 18.433-1.529 2.83-3.134 5.66-4.968 8.49-6.19 9.867-13.832 20.269-22.698 29.677-1.146 1.223-2.369 2.447-3.591 3.671-10.088 9.943-23.233 19.198-31.41 24.093"/><path opacity=".544" d="M96.842 55.442c.764 1.989-2.675 12.544-9.476 27-1.147 2.37-2.37 4.818-3.592 7.419-4.739 9.637-10.088 20.651-15.285 30.9-2.064 4.13-3.974 8.031-5.885 11.779-3.057 5.966-5.808 11.32-8.177 16.597a886.57 886.57 0 0 1-4.203 8.949c-2.828 5.89-6.038 12.391-10.012 19.734-1.681 3.135-3.363 6.271-4.891 9.56-3.363 7.113-5.885 13.997-8.33 20.346-2.522 6.424-4.891 12.467-8.025 18.586-1.452 2.83-3.057 5.66-4.738 8.566-5.961 9.867-13.527 20.345-22.316 29.6-1.146 1.224-2.369 2.448-3.592 3.672-10.088 9.866-23.233 18.892-31.563 23.404"/><path opacity=".533" d="M97.53 58.349c1.376 2.294-1.452 13.079-7.871 27.611a527.851 527.851 0 0 1-3.44 7.42c-4.585 9.636-9.858 20.574-15.055 30.746-2.063 4.054-4.05 7.955-5.961 11.626-3.134 5.89-5.961 11.167-8.56 16.292-1.452 2.906-2.904 5.813-4.509 8.796-2.98 5.813-6.343 12.161-10.24 19.427-1.682 3.06-3.363 6.272-4.892 9.485-3.286 7.113-5.655 13.996-8.024 20.345-2.37 6.425-4.586 12.544-7.566 18.662-1.376 2.83-2.904 5.66-4.585 8.567-5.732 9.943-13.222 20.345-21.934 29.523-1.147 1.224-2.37 2.448-3.516 3.595-10.088 9.791-23.233 18.586-31.792 22.717"/><path opacity=".522" d="M98.218 61.255c1.987 2.6-.305 13.614-6.343 28.223-.993 2.371-2.14 4.895-3.286 7.42-4.433 9.637-9.63 20.574-14.826 30.594-2.064 4.054-4.127 7.878-6.038 11.473-3.21 5.813-6.19 10.937-8.941 15.985-1.529 2.83-3.134 5.66-4.739 8.643-3.133 5.66-6.572 12.008-10.546 19.122-1.682 3.059-3.363 6.195-4.815 9.407-3.286 7.037-5.503 13.921-7.642 20.269-2.217 6.502-4.28 12.544-7.032 18.739a130.147 130.147 0 0 1-4.356 8.643c-5.579 9.943-12.915 20.346-21.551 29.524-1.147 1.224-2.293 2.371-3.516 3.595-10.088 9.713-23.233 18.203-31.945 22.104"/><path opacity=".511" d="M98.83 64.085c2.598 2.906.916 14.15-4.815 28.835-.917 2.371-1.987 4.895-3.134 7.496-4.203 9.714-9.4 20.498-14.597 30.441-2.063 3.978-4.127 7.802-6.19 11.32-3.286 5.737-6.42 10.785-9.247 15.68-1.605 2.753-3.287 5.583-4.968 8.49-3.21 5.583-6.802 11.779-10.776 18.892-1.681 3.059-3.362 6.119-4.814 9.331-3.21 7.037-5.35 13.921-7.337 20.269-2.064 6.501-3.974 12.62-6.573 18.816-1.222 2.829-2.598 5.736-4.203 8.642-5.35 10.02-12.533 20.422-21.17 29.448a76.517 76.517 0 0 1-3.515 3.518c-10.011 9.637-23.233 17.898-32.098 21.416"/><path opacity=".5" d="M99.441 66.838c3.133 3.213 2.063 14.686-3.286 29.524-.84 2.448-1.91 4.895-2.98 7.496-4.051 9.713-9.095 20.421-14.445 30.288-2.14 3.977-4.203 7.725-6.267 11.167-3.362 5.66-6.649 10.555-9.63 15.45-1.68 2.754-3.438 5.431-5.196 8.261-3.363 5.43-7.107 11.549-11.081 18.586-1.682 2.983-3.363 6.042-4.815 9.255-3.133 6.96-5.197 13.844-7.031 20.268-1.91 6.502-3.592 12.697-6.114 18.892-1.146 2.907-2.522 5.813-3.974 8.72-5.197 10.02-12.228 20.422-20.787 29.37a76.042 76.042 0 0 1-3.516 3.519c-10.012 9.484-23.233 17.515-32.25 20.728"/><path opacity=".489" d="M100.052 69.592c3.745 3.518 3.286 15.22-1.758 30.135a133.4 133.4 0 0 1-2.827 7.496c-3.898 9.714-8.866 20.345-14.215 30.135-2.14 3.901-4.204 7.573-6.343 11.014-3.44 5.584-6.879 10.402-10.012 15.145-1.758 2.677-3.592 5.354-5.426 8.107-3.516 5.354-7.337 11.397-11.31 18.28-1.682 2.983-3.364 6.043-4.74 9.179-3.133 6.96-4.967 13.767-6.724 20.192-1.758 6.501-3.287 12.773-5.656 18.968-1.07 2.907-2.369 5.813-3.821 8.72-4.968 10.096-11.922 20.498-20.405 29.371-1.147 1.147-2.293 2.371-3.516 3.441-10.011 9.408-23.156 17.21-32.404 20.116"/><path opacity=".478" d="M100.74 72.192c4.356 3.825 4.509 15.757-.153 30.748-.764 2.447-1.681 4.971-2.675 7.496-3.668 9.713-8.636 20.345-13.986 29.982-2.14 3.901-4.28 7.496-6.496 10.861-3.592 5.507-7.03 10.249-10.317 14.838-1.834 2.601-3.745 5.201-5.655 7.955-3.669 5.277-7.642 11.167-11.617 17.974-1.68 2.907-3.362 5.966-4.738 9.102-3.057 6.96-4.815 13.767-6.42 20.192-1.604 6.502-2.98 12.773-5.12 19.045-.993 2.907-2.216 5.813-3.592 8.796-4.738 10.096-11.616 20.498-20.1 29.294l-3.438 3.442c-10.012 9.331-23.157 16.827-32.557 19.428"/><path opacity=".467" d="M101.351 74.716c4.968 4.13 5.656 16.292 1.376 31.36-.688 2.447-1.528 4.971-2.446 7.572-3.515 9.714-8.33 20.269-13.756 29.829a152.04 152.04 0 0 1-6.572 10.708c-3.669 5.431-7.26 10.02-10.7 14.533-1.91 2.6-3.897 5.124-5.96 7.801-3.822 5.125-7.872 11.014-11.846 17.745-1.758 2.907-3.363 5.89-4.739 9.025-3.057 6.884-4.662 13.691-6.114 20.193-1.452 6.578-2.598 12.849-4.662 19.198a69.754 69.754 0 0 1-3.439 8.796c-4.585 10.172-11.234 20.498-19.717 29.294-1.146 1.147-2.293 2.294-3.44 3.365-10.01 9.255-23.156 16.521-32.709 18.739"/><path opacity=".456" d="M102.116 77.164c5.579 4.436 6.878 16.827 2.904 32.048-.612 2.447-1.452 4.971-2.293 7.572-3.363 9.714-8.1 20.192-13.527 29.676-2.14 3.748-4.356 7.343-6.649 10.555-3.745 5.278-7.49 9.867-11.081 14.303a666.3 666.3 0 0 0-6.19 7.649c-3.975 5.048-8.178 10.784-12.152 17.439-1.758 2.83-3.363 5.813-4.662 8.949-2.98 6.883-4.51 13.614-5.808 20.115-1.3 6.578-2.293 12.927-4.204 19.275-.84 2.906-1.987 5.889-3.21 8.872-4.356 10.173-10.928 20.575-19.335 29.218-1.146 1.147-2.292 2.295-3.439 3.365-9.935 9.102-23.156 16.215-32.938 18.128"/><path opacity=".444" d="M102.88 79.535c6.19 4.742 8.025 17.362 4.433 32.66-.612 2.447-1.3 5.048-2.14 7.572-3.134 9.713-7.872 20.192-13.374 29.523-2.217 3.748-4.433 7.19-6.802 10.402-3.821 5.201-7.719 9.638-11.387 13.997-2.14 2.448-4.28 4.895-6.42 7.496-4.127 4.972-8.407 10.555-12.457 17.133-1.758 2.83-3.363 5.813-4.662 8.872-2.904 6.807-4.356 13.615-5.426 20.116-1.146 6.578-1.987 13.003-3.745 19.351-.764 2.983-1.834 5.966-3.057 8.949-4.127 10.249-10.623 20.575-18.953 29.141-1.146 1.147-2.216 2.218-3.439 3.289-9.935 9.025-23.157 15.833-33.092 17.439"/><path opacity=".433" d="M103.644 81.83c6.802 5.048 9.247 17.897 6.037 33.271-.535 2.524-1.222 5.048-1.987 7.649-2.98 9.79-7.642 20.115-13.145 29.294-2.216 3.671-4.509 7.113-6.878 10.249-3.897 5.124-7.948 9.484-11.769 13.691a316.438 316.438 0 0 0-6.649 7.343c-4.28 4.818-8.636 10.402-12.686 16.826-1.758 2.83-3.363 5.737-4.662 8.796-2.904 6.808-4.127 13.538-5.12 20.04-.994 6.577-1.682 13.002-3.21 19.427-.765 2.983-1.682 5.966-2.828 8.949-3.974 10.249-10.317 20.651-18.571 29.141-1.07 1.147-2.216 2.218-3.44 3.289-9.934 8.949-23.156 15.527-33.244 16.751"/><path opacity=".422" d="M104.561 83.971c7.413 5.354 10.394 18.433 7.566 33.884a73.974 73.974 0 0 1-1.834 7.648c-2.828 9.79-7.337 20.04-12.916 29.141-2.216 3.672-4.509 7.037-6.954 10.097-3.975 5.048-8.101 9.254-12.152 13.385-2.293 2.371-4.585 4.665-6.878 7.113-4.356 4.742-8.942 10.172-12.992 16.597-1.758 2.754-3.363 5.66-4.662 8.72-2.828 6.73-3.974 13.538-4.815 20.039-.84 6.578-1.299 13.079-2.751 19.504-.688 2.983-1.529 5.966-2.675 9.025-3.745 10.326-9.935 20.652-18.189 29.065a44.14 44.14 0 0 1-3.362 3.212c-9.935 8.873-23.08 15.145-33.398 16.139"/><path opacity=".411" d="M105.478 86.036c8.025 5.66 11.617 18.969 9.095 34.572-.382 2.524-.994 5.048-1.681 7.649-2.675 9.79-7.108 20.039-12.687 28.988-2.216 3.595-4.585 6.96-7.107 9.943-4.05 4.972-8.33 9.102-12.534 13.156a599.578 599.578 0 0 0-7.107 6.96c-4.51 4.665-9.171 9.943-13.222 16.291-1.757 2.754-3.362 5.584-4.585 8.643-2.751 6.731-3.821 13.462-4.509 20.04-.688 6.654-.993 13.155-2.293 19.58-.611 2.983-1.452 6.042-2.445 9.025-3.592 10.326-9.63 20.652-17.807 28.989a44.12 44.12 0 0 1-3.363 3.212c-9.935 8.719-23.08 14.838-33.55 15.45"/><path opacity=".4" d="M106.549 88.025c8.559 5.966 12.762 19.504 10.622 35.183-.305 2.525-.84 5.125-1.528 7.726-2.446 9.79-6.878 19.962-12.457 28.835-2.216 3.518-4.662 6.807-7.184 9.866-4.127 4.896-8.56 8.873-12.84 12.85-2.445 2.218-4.89 4.436-7.412 6.807-4.662 4.513-9.477 9.791-13.527 15.986-1.758 2.677-3.363 5.583-4.586 8.566-2.751 6.655-3.668 13.385-4.203 19.963-.535 6.655-.688 13.156-1.834 19.657a68.995 68.995 0 0 1-2.293 9.102c-3.363 10.402-9.324 20.728-17.425 28.988-1.07 1.071-2.216 2.142-3.362 3.213-9.936 8.643-23.08 14.532-33.703 14.838"/><path opacity=".389" d="M107.618 89.784c9.171 6.272 13.986 20.04 12.228 35.796a71.364 71.364 0 0 1-1.376 7.725c-2.292 9.79-6.572 19.886-12.304 28.682-2.216 3.518-4.662 6.731-7.26 9.714-4.204 4.818-8.789 8.719-13.222 12.544-2.522 2.218-5.12 4.359-7.642 6.654-4.815 4.436-9.706 9.561-13.756 15.679-1.758 2.678-3.363 5.507-4.586 8.49-2.675 6.655-3.515 13.385-3.897 19.963-.382 6.655-.383 13.232-1.3 19.81-.458 3.06-1.146 6.043-2.063 9.102-3.133 10.402-9.018 20.728-17.119 28.912a65.505 65.505 0 0 1-3.363 3.136c-9.935 8.566-23.08 14.15-33.932 14.15"/></g></g><defs><linearGradient id="b" x1="34.12" y1="15.76" x2="34.12" y2="82" gradientUnits="userSpaceOnUse"><stop stop-color="#F0C453" stop-opacity=".2"/><stop offset="1" stop-color="#fff" stop-opacity="0"/></linearGradient><linearGradient id="c" x1="55.718" y1="10" x2="55.718" y2="76.24" gradientUnits="userSpaceOnUse"><stop stop-color="#FFBE73" stop-opacity=".5"/><stop offset="1" stop-color="#fff" stop-opacity="0"/></linearGradient><clipPath id="a"><path fill="#fff" d="M0 0h90v90H0z"/></clipPath></defs></svg>