<svg width="35" height="35" viewBox="0 0 35 35" fill="none" xmlns="http://www.w3.org/2000/svg"><g clip-path="url(#a)" fill="#E52107"><path d="M32.117 28.26h-5.333c-3.36 0-6.095-2.813-6.095-6.27 0-3.456 2.734-6.269 6.095-6.269h5.333c.422 0 .762-.35.762-.784v-2.35c0-1.644-1.239-2.98-2.805-3.11l-4.376-7.861A3.024 3.024 0 0 0 23.855.153a2.922 2.922 0 0 0-2.294.316l-15 8.983H3.927c-1.681 0-3.048 1.405-3.048 3.134v18.809c0 1.729 1.367 3.134 3.048 3.134h25.905c1.68 0 3.047-1.405 3.047-3.134v-2.351a.773.773 0 0 0-.762-.784zM26.643 6.469l1.66 2.983h-6.64l4.98-2.983zM9.59 9.452l12.739-7.628a1.438 1.438 0 0 1 1.131-.157 1.5 1.5 0 0 1 .915.728l.002.002-11.78 7.055H9.59z"/><path d="M32.116 17.29h-5.334c-2.52 0-4.571 2.108-4.571 4.701 0 2.593 2.05 4.702 4.571 4.702h5.334c1.26 0 2.286-1.054 2.286-2.35V19.64c0-1.296-1.026-2.35-2.286-2.35zm-5.334 6.268c-.84 0-1.523-.703-1.523-1.567s.683-1.567 1.523-1.567c.84 0 1.524.703 1.524 1.567s-.684 1.567-1.524 1.567z"/></g><defs><clipPath id="a"><path fill="#fff" transform="translate(.879 .047)" d="M0 0h33.525v34.483H0z"/></clipPath></defs></svg>