<svg width="76" height="77" viewBox="0 0 76 77" fill="none" xmlns="http://www.w3.org/2000/svg"><circle cx="37.995" cy="38.686" r="37.905" fill="#E52107"/><g clip-path="url(#a)" fill="#fff"><path d="M53.541 50.142h-5.727a6.553 6.553 0 0 1-6.545-6.545 6.553 6.553 0 0 1 6.545-6.546h5.727a.818.818 0 0 0 .818-.818V33.78c0-1.716-1.33-3.111-3.012-3.247l-4.699-8.207a3.233 3.233 0 0 0-1.98-1.527 3.215 3.215 0 0 0-2.462.33l-16.108 9.378h-2.83a3.276 3.276 0 0 0-3.272 3.273v19.636a3.276 3.276 0 0 0 3.273 3.273h27.818a3.276 3.276 0 0 0 3.272-3.273V50.96a.818.818 0 0 0-.818-.818zm-5.878-22.75l1.783 3.114h-7.131l5.348-3.114zM29.35 30.506l13.68-7.963c.37-.217.802-.275 1.215-.164.418.112.766.382.983.76l.001.003-12.649 7.364h-3.23z"/><path d="M53.542 38.688h-5.727a4.914 4.914 0 0 0-4.909 4.908 4.914 4.914 0 0 0 4.91 4.91h5.726a2.457 2.457 0 0 0 2.455-2.455v-4.909a2.457 2.457 0 0 0-2.455-2.455zm-5.727 6.545a1.639 1.639 0 0 1-1.636-1.636c0-.903.734-1.637 1.636-1.637.902 0 1.637.734 1.637 1.636 0 .903-.735 1.637-1.637 1.637z"/></g><defs><clipPath id="a"><path fill="#fff" transform="translate(19.996 20.688)" d="M0 0h36v36H0z"/></clipPath></defs></svg>