<svg width="32" height="40" viewBox="0 0 32 40" fill="none" xmlns="http://www.w3.org/2000/svg"><path d="M30.753 4.385H17.091A4.815 4.815 0 0 0 12.42.72a4.815 4.815 0 0 0-4.669 3.666h-6.33c-.63 0-1.14.511-1.14 1.141v32.998c0 .63.51 1.14 1.14 1.14h29.331c.63 0 1.141-.51 1.141-1.14V5.526c0-.63-.51-1.14-1.14-1.14zM7.614 5.526a4.8 4.8 0 0 1 .138-1.14h2.418A2.528 2.528 0 0 1 12.42 3c.982 0 1.835.564 2.252 1.384H10.17a2.51 2.51 0 0 0-.274 1.141v7.333a2.528 2.528 0 0 0 2.525 2.525 2.528 2.528 0 0 0 2.526-2.525v-1.222a1.141 1.141 0 0 1 2.282 0v1.222a4.813 4.813 0 0 1-4.808 4.807 4.813 4.813 0 0 1-4.807-4.807V5.526zM23.42 32.332H8.756a1.141 1.141 0 1 1 0-2.282h14.666a1.14 1.14 0 1 1 0 2.282zm0-7.333H8.756a1.141 1.141 0 1 1 0-2.282h14.666a1.14 1.14 0 1 1 0 2.282z" fill="#E52107"/></svg>