<svg width="160" height="160" viewBox="0 0 160 160" fill="none" xmlns="http://www.w3.org/2000/svg"><g clip-path="url(#a)"><path d="M159.956 73.315c.584 7.561-4.735 14.274-11.877 14.99-5.468.549-10.415-2.578-12.7-7.462l-6.481.572-4.894 2.36a3.697 3.697 0 0 0-2.044 2.837 43.178 43.178 0 0 1-2.466 9.533 3.675 3.675 0 0 0 .211 3.13l1.743 3.117 4.848 3.252a8.715 8.715 0 0 1 10.034 13.443c-2.654 3.473-7.591 4.428-11.348 2.196a8.697 8.697 0 0 1-4.194-6.297l-5.372-3.603-3.381-.413a3.895 3.895 0 0 0-3.164 1.067 43.734 43.734 0 0 1-9.579 6.921 3.847 3.847 0 0 0-2.017 3.163l-.43 6.849 2.127 8.436a10.82 10.82 0 0 1 7.594 7.783c1.486 5.9-2.179 11.887-8.155 13.218-5.392 1.202-10.923-1.942-12.637-7.195a10.836 10.836 0 0 1 2.71-11.112l-2.135-8.486-3.3-5.303c-.884-1.423-2.45-2.265-4.127-2.261h-.026a43.74 43.74 0 0 1-8.45-.826 4.823 4.823 0 0 0-4.45 1.397l-4.36 4.599-4.88 10.124a8.707 8.707 0 0 1 .036 7.638 8.722 8.722 0 0 1-12.14 3.804c-3.791-2.137-5.433-6.852-3.782-10.88a8.702 8.702 0 0 1 6.102-5.198l4.91-10.19.965-6.838a3.634 3.634 0 0 0-1.298-3.332 43.882 43.882 0 0 1-9.873-11.315 3.623 3.623 0 0 0-3.074-1.734l-6.828-.066-7.476 2.351c-.525 4.649-3.708 8.78-8.456 10.272-6.38 2.008-13.175-1.499-15.246-7.838-2.07-6.337 1.427-13.268 7.757-15.361 4.43-1.466 9.087-.248 12.237 2.747l7.934-2.496 5.795-4.131a2.982 2.982 0 0 0 1.235-2.685 43.223 43.223 0 0 1 3.81-21.634c.37-.81.36-1.74-.029-2.54l-1.717-3.51-4.66-3.516a8.701 8.701 0 0 1-7.914-1.337c-3.989-3.012-4.662-8.787-1.36-12.64 2.843-3.319 7.825-3.999 11.454-1.562a8.688 8.688 0 0 1 3.837 6.518l5.164 3.896 5.204.928a43.59 43.59 0 0 1 13.053-8.364l1.222-7.422-1.542-7.668c-4.564-1.175-8.268-4.672-9.266-9.334-1.406-6.588 3.12-13.003 10.114-14.328 6.99-1.324 13.8 2.94 15.206 9.527 1.053 4.93-1.215 9.76-5.356 12.435l1.456 7.231 3.576 5.706a1.28 1.28 0 0 0 1.083.598h.007A43.193 43.193 0 0 1 101.3 43.31c.36.214.802.244 1.182.066l5.6-2.595 6.538-7.073a8.693 8.693 0 0 1 2.209-7.255 8.718 8.718 0 0 1 12.713-.092c3.074 3.22 3.193 8.354.274 11.715a8.704 8.704 0 0 1-7.248 2.982l-6.538 7.073-2.123 5.712a1.26 1.26 0 0 0 .165 1.182 43.26 43.26 0 0 1 6.056 11.716 3.712 3.712 0 0 0 2.499 2.4l5.316 1.49 6.908-.612c1.694-4.883 5.924-8.578 11.118-9.1 7.142-.716 13.406 4.834 13.987 12.396z" fill="#EB5569"/><path d="M78.896 112.763c17.784 0 32.201-14.416 32.201-32.2 0-17.784-14.417-32.201-32.201-32.201s-32.2 14.417-32.2 32.2c0 17.785 14.416 32.201 32.2 32.201z" fill="#F58A97"/><path d="M56.51 80.563c0-16.116 11.838-29.467 27.293-31.83a32.448 32.448 0 0 0-4.907-.371c-17.785 0-32.2 14.416-32.2 32.2 0 17.785 14.416 32.201 32.2 32.201a32.41 32.41 0 0 0 4.907-.371C68.35 110.028 56.51 96.678 56.51 80.562z" fill="#F07281"/><path d="M24.716 22.021a9.17 9.17 0 1 0 0-18.34 9.17 9.17 0 0 0 0 18.34zM22.21 139.782a6.057 6.057 0 1 0 0-12.114 6.057 6.057 0 0 0 0 12.114zm111.206 12.814a8.922 8.922 0 1 0 0-17.842 8.922 8.922 0 0 0 0 17.842zM69.012 80a8.317 8.317 0 1 0 0-16.635 8.317 8.317 0 0 0 0 16.634zm6.676 23.178a5.661 5.661 0 1 0 0-11.323 5.661 5.661 0 0 0 0 11.323zm17.777-17.862a4.754 4.754 0 1 0 0-9.508 4.754 4.754 0 0 0 0 9.508z" fill="#EB5569"/></g><defs><clipPath id="a"><path fill="#fff" d="M0 0h160v160H0z"/></clipPath></defs></svg>