<svg width="92" height="97" viewBox="0 0 92 97" fill="none" xmlns="http://www.w3.org/2000/svg"><g clip-path="url(#a)"><path d="M69.106 51.496c0 13.023-10.513 23.536-23.537 23.536-13.023 0-23.536-10.513-23.536-23.536 0-13.023 10.513-23.536 23.536-23.536 2.825 0 5.492.47 7.924 1.412 9.1 3.217 15.613 11.925 15.613 22.124z" fill="#fff"/><path d="M50.2 55.34c-1.177 1.648 5.099 6.747 7.217 5.806 3.53-1.648 5.884-5.178 5.884-6.433 0-1.256-1.647-3.766-7.375.078-1.647 1.177-4.471-1.177-5.727.55z" fill="#01ABBB"/><path d="M45.57 25.606c-14.28 0-25.89 11.611-25.89 25.89 0 14.278 11.61 25.89 25.89 25.89 14.278 0 25.89-11.612 25.89-25.89 0-14.279-11.612-25.89-25.89-25.89zm0 47.072c-3.688 0-7.14-.941-10.2-2.589.236-.078.393-.156.628-.313.785-.393 1.57-.942 2.432-1.57.628-.392 1.099-1.02 1.49-1.647.472-.785.942-1.57 1.178-2.51 1.647-6.434-3.845-6.67-4.08-8.081-.157-1.57 1.883-2.746 3.138-4.002 1.255-1.255 1.57-3.138 1.02-4.315-2.04-3.687-6.982-1.725-7.375 2.197-.235 2.354-1.647 4.786-2.902 5.963-1.177 1.177-3.53.549-4.159-1.177-.705-1.961 1.805-2.667 1.413-5.178-.079-.706-.785-1.02-1.726-1.177l-1.883.079c1.647-10.2 10.434-18.045 21.025-18.045 2.825 0 5.492.55 7.924 1.57l.079 1.96c0 1.177-.706 2.197-1.805 2.668-2.353 1.02-4.707.47-5.727 3.138-.784 2.04 1.334 7.532 4.001 7.532 3.296 0 4.865-6.669 5.884-6.669.628 0 1.648 2.04 2.746 3.53.785 1.02 1.962 1.57 3.295 1.57h2.197l1.962.47c.47 1.726.706 3.53.706 5.335-.079 11.768-9.572 21.261-21.262 21.261z" fill="#01ABBB"/><path d="M78.364 20.35l-.471-8.395c-.079-1.334-1.177-2.275-2.51-2.197-1.334.079-2.276 1.177-2.197 2.51l.157 3.217c-17.81-13.808-43.62-12.552-59.94 3.845C.067 32.588-3.698 52.359 3.834 69.619a2.414 2.414 0 0 0 2.196 1.412c.314 0 .628-.079.941-.157 1.177-.55 1.726-1.883 1.256-3.06C1.4 52.28 4.774 34.55 16.699 22.624c14.67-14.67 37.893-15.769 53.898-3.373l-4.158.47c-1.256.158-2.197 1.335-2.04 2.59.157 1.177 1.177 2.04 2.353 2.04h.314l9.415-1.099c1.255-.157 2.118-1.255 2.04-2.51v-.157c-.079 0-.079-.079-.157-.236zm8.863 12.787c-.549-1.177-1.883-1.726-3.138-1.177-1.177.55-1.726 1.883-1.177 3.139 6.826 15.534 3.53 33.343-8.473 45.346-14.67 14.671-37.814 15.77-53.82 3.374l4.159-.471c1.255-.157 2.197-1.334 2.04-2.59-.157-1.254-1.334-2.196-2.59-2.039l-9.414 1.099c-1.255.156-2.118 1.255-2.04 2.51l.55 8.865a2.33 2.33 0 0 0 2.353 2.197h.157c1.334-.078 2.275-1.177 2.197-2.51l-.157-3.217c8.002 6.12 17.887 9.336 27.694 9.336 11.69 0 23.301-4.472 32.166-13.337 13.416-13.337 17.103-33.186 9.493-50.525z" fill="#404040"/></g><defs><clipPath id="a"><path fill="#fff" transform="translate(.382)" d="M0 0h91v97H0z"/></clipPath></defs></svg>