<svg width="99" height="99" viewBox="0 0 99 99" fill="none" xmlns="http://www.w3.org/2000/svg"><path d="M96.5 35.324L49.426 2.374 2.354 35.323v61.194h15.691V48.66h62.763v47.857H96.5V35.324z" fill="#fff"/><path d="M56.487 36.108H41.581c-1.334 0-2.354-1.02-2.354-2.353 0-1.334 1.02-2.354 2.354-2.354h14.906c1.334 0 2.354 1.02 2.354 2.354 0 1.333-1.02 2.353-2.354 2.353z" fill="#404040"/><path d="M97.832 33.363L50.76.412a2.365 2.365 0 0 0-2.668 0L1.02 33.362C.392 33.834 0 34.54 0 35.325v61.194c0 1.334 1.02 2.354 2.354 2.354h94.144c1.334 0 2.354-1.02 2.354-2.354V35.324c0-.785-.392-1.49-1.02-1.961zm-3.687 60.801H83.16V48.661c0-1.334-1.02-2.354-2.353-2.354H18.044c-1.333 0-2.353 1.02-2.353 2.354v45.503H4.707V36.58L49.426 5.276l44.719 31.303v57.585z" fill="#404040"/><path d="M44.72 75.335h-3.923c-.47 0-.785.314-.785.785v3.138c0 1.334-4.707 1.334-4.707 0V76.12c0-.47-.314-.785-.785-.785h-3.922c-1.334 0-2.354 1.02-2.354 2.354v14.122c0 1.333 1.02 2.353 2.354 2.353h14.121c1.334 0 2.354-1.02 2.354-2.353V77.689c0-1.334-1.02-2.354-2.354-2.354zm23.535 0h-3.923c-.47 0-.785.314-.785.785v3.138c0 1.334-4.707 1.334-4.707 0V76.12c0-.47-.314-.785-.784-.785h-3.923c-1.334 0-2.354 1.02-2.354 2.354v14.122c0 1.333 1.02 2.353 2.354 2.353h14.122c1.333 0 2.353-1.02 2.353-2.353V77.689c0-1.334-1.02-2.354-2.353-2.354zM56.488 52.584h-3.923c-.47 0-.784.313-.784.784v3.138c0 1.334-4.707 1.334-4.707 0v-3.138c0-.47-.314-.785-.785-.785h-3.923c-1.333 0-2.353 1.02-2.353 2.354V69.06c0 1.334 1.02 2.353 2.353 2.353h14.122c1.334 0 2.354-1.02 2.354-2.353V54.937c0-1.334-1.02-2.353-2.354-2.353z" fill="#fff"/></svg>