<svg width="308" height="70" viewBox="0 0 308 70" fill="none" xmlns="http://www.w3.org/2000/svg"><path d="M80.606 67.066V42.063H92.02v25.002h-3.582V45.224h-4.249v21.842h-3.582zm24.648-8.744l-1.756-9.06h-.07l-1.756 9.06h3.582zm-8.85 8.743l5.584-25.002h2.985l5.583 25.002h-3.582l-1.053-5.372h-4.881l-1.053 5.373h-3.582zm18.55.001V42.063h5.372c.983 0 1.85.13 2.599.387.749.257 1.428.714 2.036 1.37a5.359 5.359 0 0 1 1.265 2.317c.234.866.351 2.048.351 3.547 0 1.123-.071 2.071-.211 2.844a5.704 5.704 0 0 1-.808 2.177 5.36 5.36 0 0 1-1.966 1.931c-.819.445-1.896.667-3.231.667h-1.826v9.763h-3.581zm3.581-21.632v8.498h1.721c.726 0 1.287-.105 1.685-.316.398-.21.691-.503.878-.877.188-.352.293-.785.316-1.3a19.05 19.05 0 0 0 .071-1.72c0-.586-.012-1.136-.035-1.65-.024-.54-.129-1.008-.317-1.405a1.994 1.994 0 0 0-.842-.913c-.375-.211-.913-.316-1.616-.316h-1.861zm25.853 0c-.328 0-.597.047-.808.141-.21.07-.409.21-.597.421a1.728 1.728 0 0 0-.386.773 10 10 0 0 0-.175 1.018l-.316 2.915a8.381 8.381 0 0 1-.106.843c-.047.234-.093.48-.14.737a2.5 2.5 0 0 1-.211.632c-.14.328-.316.62-.527.878a3.177 3.177 0 0 1-.561.562l3.722 12.712h-3.652l-3.161-11.132h-2.001v11.132h-3.582V42.063h3.582v10.71h1.194c.421 0 .761-.058 1.018-.175.258-.117.468-.28.632-.492.164-.21.281-.444.351-.702.071-.28.129-.585.176-.913l.351-2.985a4.3 4.3 0 0 0 .07-.562c.047-.304.117-.643.211-1.018.094-.374.222-.76.386-1.159.164-.398.375-.772.632-1.123a3.66 3.66 0 0 1 1.616-1.194c.655-.258 1.416-.387 2.282-.387v3.371zm13.822 21.632V42.063h5.372c.984 0 1.85.13 2.599.387.749.257 1.428.714 2.037 1.37a5.357 5.357 0 0 1 1.264 2.317c.234.866.351 2.048.351 3.547 0 1.123-.07 2.071-.211 2.844a5.718 5.718 0 0 1-.807 2.177 5.371 5.371 0 0 1-1.967 1.931c-.819.445-1.896.667-3.23.667h-1.826v9.763h-3.582zm3.582-21.632v8.498h1.72c.726 0 1.288-.105 1.686-.316.398-.21.69-.503.878-.877.187-.352.292-.785.316-1.3.046-.515.07-1.088.07-1.72 0-.586-.012-1.136-.035-1.65-.024-.54-.129-1.008-.316-1.405a2.001 2.001 0 0 0-.843-.913c-.375-.211-.913-.316-1.615-.316h-1.861zm19.532 0c-1.265 0-2.096.34-2.494 1.019-.374.655-.561 1.615-.561 2.88 0 .631.035 1.193.105 1.685.07.468.199.866.386 1.194.211.327.503.585.878.772.375.164.878.246 1.51.246h1.721v-7.795h-1.545zm1.545 21.632V56.39h-1.651l-3.125 10.675h-3.652l3.406-11.132a4.1 4.1 0 0 1-1.475-.948 5.182 5.182 0 0 1-1.018-1.44c-.258-.538-.433-1.17-.527-1.896a17.668 17.668 0 0 1-.14-2.247c0-4.893 2.107-7.34 6.321-7.34h5.442v25.002h-3.581zm9.128-18.682c0-.702.141-1.498.422-2.388.304-.89.761-1.65 1.369-2.282a7.338 7.338 0 0 1 1.826-1.334c.679-.352 1.463-.527 2.353-.527 1.054 0 1.955.187 2.704.562.772.35 1.405.83 1.896 1.44.515.608.89 1.334 1.124 2.177.234.842.351 1.732.351 2.668 0 .468-.012.948-.035 1.44a5.417 5.417 0 0 1-.281 1.44c-.14.468-.386.913-.737 1.334-.328.422-.808.808-1.44 1.159.632.257 1.112.597 1.44 1.018.351.398.597.855.737 1.37.164.491.257 1.041.281 1.65.023.585.035 1.194.035 1.826 0 1.054-.117 2.037-.351 2.95-.211.913-.574 1.674-1.089 2.282-.515.609-1.17 1.112-1.966 1.51-.773.398-1.733.597-2.88.597a6.38 6.38 0 0 1-2.423-.456 5.768 5.768 0 0 1-1.931-1.264c-.538-.539-.948-1.23-1.229-2.072a7.951 7.951 0 0 1-.421-2.529v-.948h3.581l.036.984c0 .327.035.655.105.983.094.304.234.585.421.843.188.257.433.468.738.632.304.163.69.245 1.158.245 1.054 0 1.756-.327 2.107-.983.375-.679.562-1.592.562-2.739 0-.655-.023-1.264-.07-1.826-.047-.585-.164-1.041-.351-1.37-.422-.725-1.124-1.088-2.107-1.088h-1.37v-3.16h1.475a2.79 2.79 0 0 0 1.194-.246c.351-.164.632-.445.843-.843.187-.374.293-.82.316-1.334.047-.515.07-.972.07-1.37 0-.421-.035-.83-.105-1.229a2.998 2.998 0 0 0-.386-1.088 2.252 2.252 0 0 0-.773-.703c-.304-.187-.702-.28-1.194-.28-.445 0-.819.081-1.124.245-.28.164-.515.375-.702.632-.21.281-.363.644-.456 1.089a6.276 6.276 0 0 0-.141 1.3v.561h-3.582v-.878zm24.624 9.938l-1.756-9.06h-.07l-1.756 9.06h3.582zm-8.849 8.743l5.583-25.002h2.985l5.584 25.002h-3.582l-1.054-5.372h-4.881l-1.053 5.373h-3.582zm18.549.001V42.063h3.582v10.71h4.424v-10.71h3.582v25.002h-3.582V55.934h-4.424v11.132h-3.582zm28.962-7.129v1.545c0 .773-.152 1.51-.456 2.212a5.87 5.87 0 0 1-1.194 1.826 6.029 6.029 0 0 1-1.826 1.3 5.345 5.345 0 0 1-2.212.456c-.679 0-1.37-.093-2.072-.28a4.904 4.904 0 0 1-1.896-.984c-.562-.468-1.03-1.065-1.405-1.79-.351-.75-.527-1.698-.527-2.845V47.612c0-.82.141-1.58.422-2.283a5.373 5.373 0 0 1 1.194-1.826 5.365 5.365 0 0 1 1.826-1.194c.725-.304 1.521-.456 2.387-.456 1.686 0 3.055.55 4.109 1.65a5.603 5.603 0 0 1 1.194 1.931c.304.726.456 1.522.456 2.388v1.405h-3.581v-1.194c0-.702-.199-1.31-.597-1.826-.398-.515-.937-.773-1.616-.773-.889 0-1.486.282-1.791.843-.28.539-.421 1.23-.421 2.072v12.782c0 .726.152 1.334.457 1.826.327.492.901.737 1.72.737.234 0 .48-.035.738-.105a2.48 2.48 0 0 0 .772-.421c.211-.188.386-.445.527-.773.14-.328.211-.737.211-1.229v-1.229h3.581zm18.058-14.503c-.328 0-.597.047-.808.141-.211.07-.41.21-.597.421s-.316.469-.386.773a9.98 9.98 0 0 0-.176 1.018l-.316 2.915a8.113 8.113 0 0 1-.105.843c-.047.234-.094.48-.141.737a2.54 2.54 0 0 1-.21.632c-.141.328-.316.62-.527.878a3.18 3.18 0 0 1-.562.562l3.722 12.712h-3.652l-3.16-11.132h-2.002v11.132h-3.581V42.063h3.581v10.71h1.194c.422 0 .761-.058 1.019-.175.257-.117.468-.28.632-.492.164-.21.281-.444.351-.702.07-.28.129-.585.175-.913l.352-2.985a4.49 4.49 0 0 0 .07-.562c.047-.304.117-.643.21-1.018.094-.374.223-.76.387-1.159.164-.398.374-.772.632-1.123.445-.562.983-.96 1.615-1.194.656-.258 1.416-.387 2.283-.387v3.371zm13.029 21.632V50.841h-.07l-4.705 16.224h-3.582V42.063h3.582v16.259h.07l4.705-16.259h3.582v25.002h-3.582zm17.928 0V50.841h-.07l-4.705 16.224h-3.582V42.063h3.582v16.259h.07l4.705-16.259h3.582v25.002h-3.582zm-4.284-30.024c.024.14.047.316.071.527.023.187.093.386.21.597.141.187.328.35.562.491.258.14.609.211 1.054.211.444 0 .784-.07 1.018-.21.258-.141.445-.305.562-.492.14-.211.222-.41.246-.597.023-.211.046-.387.07-.527h2.985c-.164 1.405-.632 2.435-1.405 3.09-.749.656-1.908.983-3.476.983-1.569 0-2.739-.327-3.512-.983-.749-.655-1.205-1.685-1.369-3.09h2.984zM82.782 27.433l-1.444 4.12h-.634V22.68h.532v7.591l1.027-2.927 1.698-4.664h.697v8.871h-.532v-7.845l-1.344 3.726zm6.561-.05v4.17h-.583V22.68h.583v4.17h2.762v-4.17h.596v8.871h-.596v-4.17h-2.762zm12.161 5.398v-1.229h-4.233v1.23h-.57V31.02h.608a1.3 1.3 0 0 0 .343-.634c.05-.236.084-.498.1-.786l.356-6.92h3.244v8.34h.735v1.761h-.583zm-3.18-3.18a5.527 5.527 0 0 1-.102.81 1.18 1.18 0 0 1-.317.609h2.851v-7.807h-2.103l-.33 6.387zm10.04.303c-.076.27-.161.512-.254.723a1.477 1.477 0 0 1-.355.52 1.4 1.4 0 0 1-.545.329c-.211.068-.477.093-.798.076v-.52c.406.009.697-.071.875-.24.185-.178.333-.444.443-.799l.368-1.077-2.13-6.235h.596l1.039 3.13.773 2.37.71-2.383.963-3.117h.609l-2.294 7.223zm8.133-7.299c.338 0 .625.059.862.177.245.11.444.266.596.469.16.194.274.43.342.71.076.27.114.566.114.887v.735h-.558v-.773a2.71 2.71 0 0 0-.076-.66 1.37 1.37 0 0 0-.228-.531 1.134 1.134 0 0 0-.418-.355 1.379 1.379 0 0 0-.621-.127c-.245 0-.452.042-.621.127a1.134 1.134 0 0 0-.418.355c-.11.152-.19.33-.241.532a3.25 3.25 0 0 0-.063.659v4.613c0 .237.021.456.063.659.051.203.131.38.241.532.11.144.249.258.418.342.169.085.376.127.621.127s.452-.042.621-.127c.169-.084.308-.198.418-.342.11-.152.186-.33.228-.532.051-.203.076-.422.076-.66v-1.05h.558v1.013c0 .321-.038.62-.114.9a1.87 1.87 0 0 1-.342.71c-.152.194-.351.35-.596.468-.237.11-.524.165-.862.165a2.12 2.12 0 0 1-.874-.165 1.815 1.815 0 0 1-.596-.469 2.131 2.131 0 0 1-.342-.71 3.79 3.79 0 0 1-.101-.9v-4.536c0-.321.033-.617.101-.887.076-.28.19-.516.342-.71a1.62 1.62 0 0 1 .596-.469c.245-.118.536-.177.874-.177zm7.63 8.947v-8.339h-1.812v-.532h4.207v.532h-1.812v8.34h-.583zm8.196-8.872c.684 0 1.17.2 1.457.596.296.389.444.909.444 1.56v.962c0 .71-.165 1.238-.495 1.585-.329.346-.849.52-1.558.52h-1.103v3.65h-.583V22.68h1.838zm-.152 4.69c.515 0 .887-.118 1.115-.355.236-.245.355-.638.355-1.179v-1.039c0-.481-.097-.866-.292-1.153-.186-.287-.528-.431-1.026-.431h-1.255v4.157h1.103zm8.114.063l-1.445 4.12h-.634V22.68h.533v7.591l1.026-2.927 1.698-4.664h.697v8.871h-.532v-7.845l-1.343 3.726zm6.826 2.155l-.444 1.964h-.532l1.939-8.884h.849l1.977 8.884h-.583l-.443-1.964h-2.763zm.089-.507h2.585l-1.305-5.741-1.28 5.74zm9.448-5.868l-.228 6.172a8.023 8.023 0 0 1-.089.849 1.84 1.84 0 0 1-.215.684c-.11.195-.266.351-.469.47-.194.11-.456.168-.786.177h-.114v-.533c.254 0 .448-.042.583-.126a.85.85 0 0 0 .317-.355 1.41 1.41 0 0 0 .139-.52c.026-.203.043-.414.051-.633l.266-6.717h3.308v8.871h-.596v-8.339h-2.167zm8.573 3.117c.719 0 1.242.174 1.572.52.329.347.494.875.494 1.584v.964c0 .32-.038.616-.114.887a1.83 1.83 0 0 1-.329.684c-.152.186-.351.33-.596.431-.237.101-.528.152-.874.152h-1.825v-8.871h.583v3.65h1.089zm.153 4.69c.498 0 .844-.144 1.039-.431.194-.287.291-.672.291-1.153v-1.04c0-.54-.118-.929-.355-1.166-.236-.245-.612-.367-1.128-.367h-1.089v4.157h1.242zm6.553-3.637v4.17h-.583V22.68h.583v4.17h2.763v-4.17h.596v8.871h-.596v-4.17h-2.763zm9.146-1.053c.718 0 1.242.174 1.571.52.33.347.494.875.494 1.584v.964c0 .32-.038.616-.114.887a1.83 1.83 0 0 1-.329.684c-.152.186-.351.33-.596.431-.236.101-.528.152-.874.152H179.4v-8.871h.583v3.65h1.09zm3.485-3.65v8.872h-.583v-8.871h.583zm-3.333 8.34c.498 0 .845-.144 1.039-.431.194-.287.291-.672.291-1.153v-1.04c0-.54-.118-.929-.355-1.166-.236-.245-.612-.367-1.127-.367h-1.09v4.157h1.242zm10.776-9.987c-.009.347-.131.613-.368.799-.236.185-.54.278-.912.278-.364 0-.663-.093-.9-.278-.237-.186-.359-.452-.368-.799h.406c.008.254.097.435.266.545.169.11.368.165.596.165.236 0 .439-.055.608-.165.169-.11.262-.291.279-.545h.393zm-2.687 10.52h-.634V22.68h.533v7.591l1.115-3.156 1.609-4.435h.697v8.871h-.532v-7.845l-2.788 7.845zm14.281-8.391c-.228 0-.418.034-.57.102a.814.814 0 0 0-.355.291 1.246 1.246 0 0 0-.177.47c-.034.177-.051.38-.051.607v4.956c0 .228.017.435.051.62.034.178.093.33.177.457a.83.83 0 0 0 .342.291c.152.068.347.102.583.102h.254v.494h-.279c-.33 0-.604-.042-.824-.127a1.333 1.333 0 0 1-.532-.393 1.674 1.674 0 0 1-.279-.608 4.13 4.13 0 0 1-.076-.836v-4.956c0-.312.025-.587.076-.823a1.67 1.67 0 0 1 .279-.621c.135-.17.313-.296.532-.38.22-.093.494-.14.824-.14h.279v.494h-.254zm2.693.051v8.34h-.583V22.68h3.941v8.871h-.595v-8.339h-2.763zm9.31-.533c.684 0 1.17.2 1.457.596.296.389.444.909.444 1.56v.962c0 .71-.165 1.238-.494 1.585-.33.346-.849.52-1.559.52h-1.103v3.65h-.583V22.68h1.838zm-.152 4.69c.515 0 .887-.118 1.115-.355.237-.245.355-.638.355-1.179v-1.039c0-.481-.097-.866-.292-1.153-.185-.287-.528-.431-1.026-.431h-1.255v4.157h1.103zm5.998-2.522c0-.321.038-.617.114-.887.076-.28.19-.516.342-.71a1.59 1.59 0 0 1 .608-.469 2 2 0 0 1 .875-.177c.338 0 .629.059.874.177.253.11.46.266.621.469.161.194.279.43.355.71.076.27.114.566.114.887v4.537c0 .321-.038.62-.114.9a2 2 0 0 1-.355.71c-.161.194-.368.35-.621.468a2.12 2.12 0 0 1-.874.165c-.338 0-.63-.055-.875-.165a1.772 1.772 0 0 1-.608-.469 2.131 2.131 0 0 1-.342-.71 3.41 3.41 0 0 1-.114-.9v-4.536zm.583 4.575c0 .482.101.883.304 1.204.211.313.562.469 1.052.469s.84-.157 1.051-.47c.22-.32.33-.722.33-1.203V24.81c0-.482-.11-.879-.33-1.191-.211-.322-.561-.482-1.051-.482-.49 0-.841.16-1.052.482-.203.312-.304.71-.304 1.19v4.614zm10.365 2.117h-.583l-1.876-7.845v7.857h-.52v-8.871h.837l1.863 7.845 1.85-7.845h.836v8.871h-.557V23.67l-1.85 7.87zm8.198-5.21c.718 0 1.242.174 1.571.52.33.347.494.875.494 1.584v.964c0 .32-.038.616-.114.887a1.83 1.83 0 0 1-.329.684c-.152.186-.351.33-.596.431-.236.101-.528.152-.874.152h-1.825v-8.871h.583v3.65h1.09zm3.485-3.65v8.872h-.583v-8.871h.583zm-3.333 8.34c.498 0 .845-.144 1.039-.431.194-.287.291-.672.291-1.153v-1.04c0-.54-.118-.929-.354-1.166-.237-.245-.613-.367-1.128-.367h-1.09v4.157h1.242zm8.039-8.34v8.34h2.192v-8.34h.583v8.34h2.192v-8.34h.583v8.872h-6.133v-8.871h.583zm11.437.533l-.229 6.172a8.033 8.033 0 0 1-.088.849 1.86 1.86 0 0 1-.216.684 1.245 1.245 0 0 1-.469.47c-.194.11-.456.168-.785.177h-.114v-.533c.253 0 .447-.042.583-.126a.848.848 0 0 0 .316-.355 1.43 1.43 0 0 0 .14-.52c.025-.203.042-.414.051-.633l.266-6.717h3.307v8.871h-.595v-8.339h-2.167zm9.904 3.574v.532h-2.421v3.7h2.915v.533h-3.498v-8.871h3.498v.532h-2.915v3.574h2.421zm5.127.596v4.17h-.583V22.68h.583v4.17h2.763v-4.17h.595v8.871h-.595v-4.17h-2.763zm8.055 0v4.17h-.583V22.68h.583v4.17h2.763v-4.17h.596v8.871h-.596v-4.17h-2.763zm9.146-1.053c.718 0 1.242.174 1.571.52.33.347.495.875.495 1.584v.964c0 .32-.038.616-.114.887a1.85 1.85 0 0 1-.33.684c-.152.186-.351.33-.596.431-.236.101-.528.152-.874.152h-1.825v-8.871h.583v3.65h1.09zm3.485-3.65v8.872h-.583v-8.871h.583zm-3.333 8.34c.498 0 .845-.144 1.039-.431.194-.287.292-.672.292-1.153v-1.04c0-.54-.119-.929-.355-1.166-.237-.245-.613-.367-1.128-.367h-1.09v4.157h1.242zm10.776-9.987c-.008.347-.131.613-.367.799-.237.185-.541.278-.913.278-.363 0-.663-.093-.9-.278-.236-.186-.359-.452-.367-.799h.405c.009.254.097.435.266.545.169.11.368.165.596.165.237 0 .439-.055.608-.165.169-.11.262-.291.279-.545h.393zm-2.687 10.52h-.633V22.68h.532v7.591l1.115-3.156 1.61-4.435h.697v8.871h-.532v-7.845l-2.789 7.845zm5.445-8.885c.659 0 1.111.173 1.356.52.245.338.367.82.367 1.444v4.956c0 .312-.029.591-.088.836-.051.237-.144.44-.279.608-.127.17-.304.3-.532.393-.22.085-.495.127-.824.127h-.279v-.494h.254c.464 0 .773-.131.925-.393.16-.262.24-.621.24-1.077v-4.956c0-.447-.08-.802-.24-1.064-.152-.27-.461-.406-.925-.406h-.254v-.494h.279z" fill="#fff"/><path fill-rule="evenodd" clip-rule="evenodd" d="M44.772 57.185l-3.44-.147c-2.307 1.143-3.761 2.3-5.52 3.425l3.764.185-1.641 1.327-4.077-.204c-2.203 1.545-3.91 2.995-5.198 4.227l5.809.284-1.325 1.879-6.222-.37c-1.128 1.264-1.604 2.036-1.604 2.036l-3.387-.013a45.38 45.38 0 0 1 1.846-2.211l-15.736-.938c-2.811 1.874-4.2 3.08-4.2 3.08l-2.925-.012a52.4 52.4 0 0 1 3.715-3.27l-4.618-.018 2.733-1.537 3.895.015a65.525 65.525 0 0 1 6.565-4.207l-4.33.003 2.732-1.27 3.92.015c13.33-6.897 29.797-10.544 45.651-12.341l4.912-.56 4.35.596c-1.876.383-11.653 3.139-13.37 3.573l1.505.13-2.167.837-1.974-.101c-1.982.563-2.556.92-4.315 1.534l2.205.125-1.697.84-2.338-.233c-1.858.699-3.209 1.422-4.813 2.153l3.184.137-1.889 1.03zM10.47 65.11a100.375 100.375 0 0 1 7.464-4.152l12.32.629a48.501 48.501 0 0 0-4.821 4.254l-14.963-.73zm21.555-4.834l-11.534-.568c2.21-1.046 5.024-2.357 7.684-3.414l9.285.588a57.177 57.177 0 0 0-5.435 3.395zM56.776 48.38c1.706-.308 7.078-1.08 8.869-1.348l1.88.195c-1.642.262-4.72 1.06-6.351 1.389l-4.398-.236zm-2.683.508l4.906.188c-1.603.357-3.195.75-4.773 1.18l-5.264-.27c1.663-.384 3.373-.75 5.131-1.098zm-7.963 1.78c-2.604.418-3.734.79-6.088 1.345l7.24.592c1.821-.7 2.41-1.007 4.296-1.582l-5.448-.355zm-7.878 2.09l6.535.684c-1.69.695-3.017 1.223-4.628 2.04l-9.195-.51c2.143-.8 4.88-1.452 7.288-2.214z" fill="#fff"/><path d="M18.91 30.544l5.62-6.445v30.954c-2.198.86-3.429 1.376-5.62 2.35V30.544zm6.599-7.756l5.62-6.747v36.693c-2.205.684-3.436 1.126-5.62 1.944v-31.89zM37.753 7.074L32.208 0v52.405c2.157-.658 3.37-1.008 5.545-1.563V7.074zm6.654 7.911l-5.545-7.053v42.626a182.52 182.52 0 0 1 5.545-1.225V14.985zm6.799 8.169l-5.666-7.006v32.968a144.52 144.52 0 0 1 5.666-.946V23.154z" fill="#fff"/></svg>