<svg width="24" height="24" viewBox="0 0 24 24" fill="none" xmlns="http://www.w3.org/2000/svg"><path fill-rule="evenodd" clip-rule="evenodd" d="M24 12c0 6.627-5.373 12-12 12S0 18.627 0 12 5.373 0 12 0s12 5.373 12 12zM13.076 8.567l-8.081 3.33h-.001c-1.422.555-.59 1.075-.59 1.075s1.214.416 2.255.728c1.04.312 1.595-.034 1.595-.034l4.89-3.295c1.734-1.18 1.318-.209.902.208-.902.901-2.393 2.323-3.642 3.468-.555.485-.277.902-.034 1.11.706.597 2.368 1.683 3.123 2.177.21.137.35.228.38.25.173.14 1.143.763 1.734.625.59-.139.66-.937.66-.937l.867-5.445c.076-.506.152-1.001.224-1.464.188-1.218.34-2.207.365-2.559.104-1.179-1.144-.693-1.144-.693s-2.706 1.11-3.503 1.456z" fill="#fff"/></svg>