<svg width="42" height="43" viewBox="0 0 42 43" fill="none" xmlns="http://www.w3.org/2000/svg"><path d="M38.979 17.086l-3.197-11.33a2.39 2.39 0 0 0-1.141-1.446 2.387 2.387 0 0 0-1.828-.22l-11.33 3.197a.57.57 0 0 0-.394.704l.812 2.882a3.86 3.86 0 0 0-2.123 4.56c.279.99.927 1.811 1.825 2.314.73.409 1.553.567 2.367.462l.814 2.881a.57.57 0 0 0 .704.394l2.881-.813c.337.75.902 1.37 1.632 1.778a3.826 3.826 0 0 0 2.926.345 3.857 3.857 0 0 0 2.775-4.192l2.882-.812a.571.571 0 0 0 .395-.704zm-4.095.56a.57.57 0 0 0-.395.705 2.714 2.714 0 0 1-3.931 3.102 2.693 2.693 0 0 1-1.285-1.63.57.57 0 0 0-.704-.395l-2.842.803-.802-2.841a.57.57 0 0 0-.705-.395 2.691 2.691 0 0 1-2.06-.244 2.693 2.693 0 0 1-1.284-1.628 2.715 2.715 0 0 1 1.873-3.347.57.57 0 0 0 .394-.704l-.8-2.841 10.78-3.042c.323-.09.663-.05.96.116.296.167.51.436.6.76l3.042 10.781-2.84.8z" fill="#369CB7"/><path d="M31.356 27.574V25.5a.57.57 0 0 0-.57-.57h-3.523a.57.57 0 0 0-.57.57 2.713 2.713 0 0 1-2.71 2.71 2.714 2.714 0 0 1-2.712-2.71.57.57 0 0 0-.57-.57h-2.952v-2.954a.57.57 0 0 0-.571-.57 2.713 2.713 0 0 1-2.71-2.71 2.714 2.714 0 0 1 2.71-2.713.57.57 0 0 0 .57-.57V11.89a.57.57 0 0 0-.57-.57H5.406A2.41 2.41 0 0 0 3 13.727v23.545a2.409 2.409 0 0 0 2.406 2.406h1.158a3.857 3.857 0 0 0 3.81 3.28 3.859 3.859 0 0 0 3.81-3.28h8.33a.57.57 0 1 0 0-1.142H17.75V26.07h2.423a3.859 3.859 0 0 0 3.81 3.28 3.857 3.857 0 0 0 3.81-3.28h2.423v2.033c0 .315.255.57.57.57a2.715 2.715 0 0 1 2.713 2.712 2.714 2.714 0 0 1-2.712 2.71.57.57 0 0 0-.571.571v2.606c0 .697-.567 1.264-1.265 1.264h-3.953a.57.57 0 1 0 0 1.142h3.953a2.409 2.409 0 0 0 2.406-2.406v-2.077a3.858 3.858 0 0 0 3.283-3.81 3.86 3.86 0 0 0-3.283-3.81zM4.141 13.727c0-.699.568-1.267 1.265-1.267h11.201v2.423a3.859 3.859 0 0 0-3.28 3.811 3.857 3.857 0 0 0 3.28 3.81v2.425h-2.951a.57.57 0 0 0-.57.57 2.714 2.714 0 0 1-2.713 2.71 2.713 2.713 0 0 1-2.71-2.71.57.57 0 0 0-.57-.57H4.14V13.727zm9.515 24.81a.57.57 0 0 0-.57.57 2.714 2.714 0 0 1-2.713 2.71 2.713 2.713 0 0 1-2.71-2.71.57.57 0 0 0-.57-.57H5.406a1.266 1.266 0 0 1-1.265-1.265V26.07h2.423a3.857 3.857 0 0 0 3.81 3.28 3.859 3.859 0 0 0 3.81-3.28h2.423v12.466h-2.951z" fill="#369CB7"/></svg>