<svg width="120" height="38" viewBox="0 0 120 38" fill="none" xmlns="http://www.w3.org/2000/svg"><path fill-rule="evenodd" clip-rule="evenodd" d="M19.634 26.583h6.06L16.564.243h-5.575L2.1 26.582h4.848l2.02-6.302h8.726l1.94 6.302zM13.251 6.787l3.232 9.696h-6.302l3.07-9.696z" fill="#5550CC"/><path fill-rule="evenodd" clip-rule="evenodd" d="M47.026 26.826h4.04L45.006 9.21h-3.717L35.39 26.826h3.232l1.293-4.202h5.818l1.293 4.202zm-4.283-13.17l2.182 6.463h-4.202l2.02-6.464z" fill="#000"/><path d="M65.044 26.826h-4.04l-3.313-8.727-3.636 8.727h-2.99l5.818-13.413h2.667l5.494 13.413z" fill="#000"/><path fill-rule="evenodd" clip-rule="evenodd" d="M76.598 25.775c.89-.727 1.374-1.858 1.374-3.313 0-2.828-1.616-4.201-4.767-4.201h-2.828v-4.767h-3.798v13.332h6.545c1.454 0 2.666-.323 3.474-1.05zm-4.444-5.17c1.374 0 2.02.645 2.02 1.857 0 1.374-.646 2.02-1.858 2.02h-1.859v-3.878h1.697zm15.595 6.221h3.717V13.494h-6.95c-3.15 0-4.686 1.293-4.686 3.959 0 2.02.97 3.313 2.748 3.878l-3.232 5.495h4.04l2.828-5.172h1.535v5.172zm-1.94-11.07h1.94v3.797h-2.1c-1.213 0-1.86-.646-1.86-1.939 0-1.212.728-1.858 2.02-1.858z" fill="#000"/><path d="M106.333 26.826h-3.717v-5.737h-4.202v5.737h-3.716V13.494h3.716v5.252h4.202v-5.252h3.717v13.332zm13.251-.728c-.404.243-.97.485-1.778.728-.808.242-1.454.323-2.02.323-4.686 0-7.11-2.343-7.11-7.03 0-2.181.646-3.959 1.858-5.171 1.212-1.212 2.909-1.858 5.172-1.858 1.616 0 2.828.323 3.716.888l-.323 2.263c-.727-.566-1.697-.808-2.828-.808-2.343 0-3.474 1.616-3.474 4.767 0 2.99 1.05 4.525 3.07 4.525.485 0 1.051-.081 1.778-.243a6.221 6.221 0 0 0 1.535-.565l.404 2.181z" fill="#000"/><path d="M13.898 37.815L.162 33.209l1.454-4.202 19.311 6.464-7.03 2.344zm2.666-5.575l9.615-3.233 1.374 4.202-3.96 1.373-7.029-2.343z" fill="#5550CC"/></svg>