<svg width="62" height="62" viewBox="0 0 62 62" fill="none" xmlns="http://www.w3.org/2000/svg"><circle cx="30.756" cy="30.986" r="19.295" fill="#FF9F46" opacity=".35" filter="url(#a)"/><circle cx="30.756" cy="30.986" r="19.295" fill="#FA8F58"/><circle cx="30.756" cy="30.986" r="19.295" fill="#FA8F58"/><g clip-path="url(#b)" fill="#fff"><path d="M21.781 31.781H40.22a.781.781 0 1 0 0-1.562H21.78a.781.781 0 1 0 0 1.562zm19.113 3.512l-1.117-1.907a.781.781 0 0 0-1.349.79l.124.212c-1.795-.463-4.627-1.044-7.551-1.044-2.925 0-5.757.58-7.552 1.044l.124-.212a.781.781 0 0 0-1.348-.79l-1.117 1.907a.784.784 0 0 0 .273 1.065l.006.004 1.907 1.117a.781.781 0 0 0 .79-1.348l-.344-.201c1.704-.444 4.465-1.023 7.26-1.023 2.791 0 5.555.58 7.26 1.023l-.342.2a.781.781 0 1 0 .79 1.35l1.906-1.118.002-.001a.783.783 0 0 0 .278-1.068zm-19.787-8.586l1.117 1.907a.781.781 0 0 0 1.348-.79l-.124-.211c1.795.463 4.627 1.043 7.552 1.043 2.924 0 5.756-.58 7.551-1.043l-.124.211a.781.781 0 1 0 1.348.79l1.117-1.907a.784.784 0 0 0-.279-1.069l-1.907-1.117a.781.781 0 0 0-.79 1.348l.344.202c-1.703.443-4.465 1.023-7.26 1.023-2.791 0-5.555-.58-7.26-1.024l.342-.2a.781.781 0 1 0-.79-1.349l-1.906 1.117a.784.784 0 0 0-.28 1.07z"/><path d="M30.448 25.459a.783.783 0 0 0 1.104 0l1.563-1.563a.781.781 0 0 0-1.105-1.105l-.229.23v-1.24a.781.781 0 1 0-1.562 0v1.24l-.23-.23a.781.781 0 1 0-1.104 1.105l1.563 1.563zm1.104 11.081a.783.783 0 0 0-1.104 0l-1.563 1.563a.781.781 0 0 0 1.105 1.105l.229-.229v1.239a.781.781 0 1 0 1.562 0v-1.239l.229.229a.781.781 0 0 0 1.105-1.105l-1.563-1.563z"/></g><defs><filter id="a" x=".435" y=".666" width="60.641" height="60.641" filterUnits="userSpaceOnUse" color-interpolation-filters="sRGB"><feFlood flood-opacity="0" result="BackgroundImageFix"/><feBlend in="SourceGraphic" in2="BackgroundImageFix" result="shape"/><feGaussianBlur stdDeviation="5.513" result="effect1_foregroundBlur_1844_23583"/></filter><clipPath id="b"><path fill="#fff" transform="translate(21 21)" d="M0 0h20v20H0z"/></clipPath></defs></svg>