<svg width="62" height="62" viewBox="0 0 62 62" fill="none" xmlns="http://www.w3.org/2000/svg"><circle cx="30.756" cy="30.986" r="19.295" fill="#FF9F46" opacity=".35" filter="url(#a)"/><circle cx="30.756" cy="30.986" r="19.295" fill="#FA8F58"/><circle cx="30.756" cy="30.986" r="19.295" fill="#FA8F58"/><g clip-path="url(#b)"><path d="M41.797 30.238l-1.504-1.504c-.357-.357-.65-1.062-.65-1.568V25.04a1.843 1.843 0 0 0-1.837-1.838h-2.128c-.505 0-1.211-.293-1.568-.65l-1.504-1.503a1.843 1.843 0 0 0-2.599 0l-1.503 1.504c-.358.357-1.065.65-1.569.65H24.81c-1.01 0-1.838.826-1.838 1.837v2.127c0 .504-.293 1.212-.65 1.568l-1.504 1.504a1.844 1.844 0 0 0 0 2.6l1.505 1.504c.357.357.649 1.064.649 1.568v2.126c0 1.01.827 1.838 1.838 1.838h2.126c.506 0 1.212.293 1.569.65l1.503 1.504a1.844 1.844 0 0 0 2.6 0l1.503-1.505c.357-.356 1.063-.649 1.568-.649h2.128a1.843 1.843 0 0 0 1.837-1.838V35.91c0-.506.293-1.212.65-1.568l1.504-1.504a1.846 1.846 0 0 0 0-2.6zm-11.949 5.434l-4.054-4.055 1.299-1.299 2.755 2.756 5.672-5.671 1.3 1.299-6.972 6.97z" fill="#fff"/></g><defs><filter id="a" x=".435" y=".666" width="60.641" height="60.641" filterUnits="userSpaceOnUse" color-interpolation-filters="sRGB"><feFlood flood-opacity="0" result="BackgroundImageFix"/><feBlend in="SourceGraphic" in2="BackgroundImageFix" result="shape"/><feGaussianBlur stdDeviation="5.513" result="effect1_foregroundBlur_1844_23582"/></filter><clipPath id="b"><path fill="#fff" transform="translate(20.281 20.512)" d="M0 0h22.051v22.051H0z"/></clipPath></defs></svg>