<svg width="58" height="19" viewBox="0 0 58 19" fill="none" xmlns="http://www.w3.org/2000/svg"><path d="M25.01 18.43h-4.675L23.259.328h4.675L25.01 18.43zM41.959.77C41.037.405 39.574 0 37.766 0c-4.618 0-7.869 2.465-7.889 5.989-.038 2.6 2.328 4.044 4.098 4.91 1.809.887 2.423 1.465 2.423 2.255-.018 1.212-1.461 1.771-2.807 1.771-1.867 0-2.867-.288-4.387-.963l-.616-.289-.654 4.064c1.097.5 3.117.944 5.214.963 4.906 0 8.1-2.427 8.138-6.182.018-2.06-1.23-3.64-3.925-4.93-1.635-.828-2.636-1.387-2.636-2.234.019-.77.847-1.56 2.693-1.56 1.52-.038 2.636.327 3.482.693l.423.193.636-3.91zm6.214 11.247c.385-1.04 1.867-5.064 1.867-5.064-.02.038.384-1.06.615-1.733l.327 1.56s.885 4.332 1.077 5.237h-3.886zM53.944.328h-3.616c-1.115 0-1.963.327-2.444 1.502l-6.944 16.6h4.905l.982-2.715h6.002c.135.635.558 2.715.558 2.715h4.33L53.943.328zm-37.514 0l-4.58 12.344-.5-2.503C10.505 7.28 7.85 4.14 4.886 2.58L9.08 18.41h4.945L21.373.328H16.43z" fill="#fff"/><path d="M7.6.328H.076L0 .694c5.868 1.502 9.754 5.123 11.35 9.475L9.716 1.85C9.446.695 8.62.367 7.6.33z" fill="#81F2C7"/></svg>