<svg width="17" height="16" viewBox="0 0 17 16" fill="none" xmlns="http://www.w3.org/2000/svg"><path d="M15.253 1L9.4 5.376l1.082-2.582L15.252 1z" fill="#E2761B" stroke="#E2761B" stroke-width=".067" stroke-linecap="round" stroke-linejoin="round"/><path d="M1.74 1l5.807 4.418-1.03-2.624L1.741 1zm11.407 10.144l-1.559 2.405 3.335.924.96-3.275-2.736-.054zm-12.024.054l.953 3.275 3.335-.924-1.558-2.405-2.73.054z" fill="#E4761B" stroke="#E4761B" stroke-width=".067" stroke-linecap="round" stroke-linejoin="round"/><path d="M5.223 7.082l-.93 1.415 3.313.148-.118-3.583-2.265 2.02zm6.547 0L9.476 5.02 9.4 8.645l3.306-.148-.936-1.415zm-6.358 6.467l1.988-.977-1.718-1.35-.27 2.327zm4.182-.977l1.994.977-.276-2.328-1.718 1.35z" fill="#E4761B" stroke="#E4761B" stroke-width=".067" stroke-linecap="round" stroke-linejoin="round"/><path d="M11.588 13.549l-1.994-.977.16 1.308-.019.551 1.853-.882zm-6.176 0l1.853.882-.012-.55.147-1.31-1.988.978z" fill="#D7C1B3" stroke="#D7C1B3" stroke-width=".067" stroke-linecap="round" stroke-linejoin="round"/><path d="M7.294 10.357l-1.659-.492 1.171-.539.488 1.03zm2.406 0l.488-1.03 1.177.538-1.665.492z" fill="#233447" stroke="#233447" stroke-width=".067" stroke-linecap="round" stroke-linejoin="round"/><path d="M5.412 13.549l.282-2.405-1.841.054 1.559 2.35zm5.894-2.405l.282 2.405 1.559-2.351-1.841-.054zm1.4-2.647L9.4 8.645l.306 1.712.488-1.03 1.176.538 1.336-1.368zM5.635 9.865l1.176-.539.483 1.03.312-1.71-3.312-.149 1.341 1.368z" fill="#CD6116" stroke="#CD6116" stroke-width=".067" stroke-linecap="round" stroke-linejoin="round"/><path d="M4.294 8.497l1.388 2.725-.047-1.357-1.34-1.368zm7.076 1.368l-.058 1.356 1.394-2.724-1.335 1.368zM7.606 8.644l-.312 1.712.388 2.02.089-2.66-.165-1.072zm1.794 0L9.241 9.71l.07 2.665.395-2.02-.306-1.71z" fill="#E4751F" stroke="#E4751F" stroke-width=".067" stroke-linecap="round" stroke-linejoin="round"/><path d="M9.706 10.357l-.394 2.02.282.195 1.718-1.35.059-1.357-1.665.492zm-4.071-.492l.048 1.356 1.717 1.35.282-.195-.388-2.02-1.659-.49z" fill="#F6851B" stroke="#F6851B" stroke-width=".067" stroke-linecap="round" stroke-linejoin="round"/><path d="M9.735 14.431l.018-.55-.147-.13H7.388l-.135.13.012.55-1.853-.882.647.533L7.37 15h2.253l1.317-.918.647-.533-1.853.882z" fill="#C0AD9E" stroke="#C0AD9E" stroke-width=".067" stroke-linecap="round" stroke-linejoin="round"/><path d="M9.594 12.572l-.282-.196h-1.63l-.282.196-.147 1.308.135-.13h2.218l.147.13-.159-1.308z" fill="#161616" stroke="#161616" stroke-width=".067" stroke-linecap="round" stroke-linejoin="round"/><path d="M15.5 5.66l.5-2.416L15.253 1 9.594 5.228l2.177 1.854 3.076.906.683-.8-.295-.213.471-.432-.365-.284.47-.361-.31-.237zM1 3.245l.5 2.416-.318.237.47.361-.358.285.47.432-.293.213.676.8 3.077-.906L7.4 5.229 1.741 1 1 3.245z" fill="#763D16" stroke="#763D16" stroke-width=".067" stroke-linecap="round" stroke-linejoin="round"/><path d="M14.847 7.988l-3.076-.906.935 1.415-1.394 2.724 1.835-.023h2.735l-1.035-3.21zm-9.623-.906l-3.077.906-1.023 3.21h2.729l1.83.023-1.389-2.724.93-1.415zM9.4 8.645l.194-3.417.894-2.434h-3.97L7.4 5.228l.206 3.417.07 1.078.006 2.653h1.63l.012-2.653.076-1.078z" fill="#F6851B" stroke="#F6851B" stroke-width=".067" stroke-linecap="round" stroke-linejoin="round"/></svg>