<svg width="226" height="129" viewBox="0 0 226 129" fill="none" xmlns="http://www.w3.org/2000/svg"><rect y=".379" width="225.24" height="128.24" rx="8" fill="#9ACD90"/><path d="M45.601 65.873h-3.14V73h-3.093V56.088h3.092v7.079h3.238l4.856-7.079h3.334l-5.774 8.19L54.105 73h-3.551L45.6 65.873zm22.31-5.774l-6.04 13.94c-.564 1.401-1.249 2.384-2.054 2.947-.806.58-1.78.87-2.923.87a6.02 6.02 0 0 1-1.91-.314c-.627-.21-1.143-.5-1.545-.87l1.208-2.222c.29.273.628.49 1.014.652.403.161.806.242 1.208.242.532 0 .967-.137 1.305-.411.354-.274.676-.733.966-1.377l.218-.508-5.63-12.95h3.141l4.06 9.544 4.082-9.543h2.9zm14.467 0V73h-2.996V62.66h-6.354V73h-3.02V60.099h12.37zm4.075 0h3.02v8.504l7.127-8.504h2.754V73h-3.02v-8.504L89.231 73h-2.778V60.099zm27.183 2.56h-4.517V73h-3.02V62.66h-4.543v-2.561h12.08v2.56zm8.666 1.692c1.643 0 2.899.37 3.769 1.111.886.741 1.329 1.788 1.329 3.14 0 1.418-.483 2.513-1.45 3.287-.966.773-2.327 1.151-4.083 1.135l-6.04-.024V60.099h3.02v4.228l3.455.024zm-.701 6.45c.886.016 1.563-.169 2.03-.555.467-.387.7-.95.7-1.691 0-.725-.225-1.257-.676-1.595-.451-.338-1.136-.515-2.054-.531l-2.754-.025v4.373l2.754.024z" fill="#212121"/><path fill-rule="evenodd" clip-rule="evenodd" d="M153.909 50.688a1.133 1.133 0 0 1 1.333-.888l1.584.317a4.153 4.153 0 0 1 3.318 3.658l.128 1.288h20.499c2.997 0 5.195 2.815 4.468 5.722l-1.695 6.782a6.417 6.417 0 0 1-6.226 4.86h-13.579a4.152 4.152 0 0 1-4.123-3.657l-1.494-12.451L157.89 54a1.889 1.889 0 0 0-1.508-1.663l-1.585-.316a1.132 1.132 0 0 1-.888-1.333zm11.68 14.944a1.132 1.132 0 0 0 0 2.265h6.04a1.133 1.133 0 1 0 0-2.265h-6.04z" fill="#212121"/><circle cx="164.835" cy="76.581" r="2.265" fill="#212121"/><circle cx="178.425" cy="76.581" r="2.265" fill="#212121"/></svg>