<svg xmlns="http://www.w3.org/2000/svg" width="138" height="138" viewBox="0 0 138 138"><defs><style>.a{fill:#fff}.b{fill:#fdb813}.c{filter:url(#a)}</style><filter id="a" x="0" y="0" width="138" height="138" filterUnits="userSpaceOnUse"><feOffset dy="3"/><feGaussianBlur stdDeviation="3" result="b"/><feFlood flood-opacity=".09"/><feComposite operator="in" in2="b"/><feComposite in="SourceGraphic"/></filter></defs><g class="c"><circle class="a" cx="60" cy="60" r="60" transform="translate(9 6)"/></g><path class="b" d="M55.588 57.298a1.416 1.416 0 1 0 1.416 1.416 1.416 1.416 0 0 0-1.416-1.416zm0 18.829h-5.663a1.416 1.416 0 0 0-1.416 1.416v5.663a1.416 1.416 0 0 0 1.416 1.416h5.663a1.416 1.416 0 0 0 1.416-1.416v-5.663a1.416 1.416 0 0 0-1.416-1.416zm-1.416 5.663H51.34v-2.831h2.831zm1.416 5.663h-5.663a1.416 1.416 0 0 0-1.416 1.416v5.663a1.416 1.416 0 0 0 1.416 1.416h5.663a1.416 1.416 0 0 0 1.416-1.416v-5.663a1.416 1.416 0 0 0-1.416-1.416zm-1.416 5.663H51.34v-2.831h2.831zm12.742-16.989h-5.663a1.416 1.416 0 0 0-1.416 1.416v5.663a1.416 1.416 0 0 0 1.416 1.416h5.663a1.416 1.416 0 0 0 1.416-1.416v-5.663a1.416 1.416 0 0 0-1.416-1.416zm-1.416 5.663h-2.831v-2.831h2.831zm1.416 5.663h-5.663a1.416 1.416 0 0 0-1.416 1.416v5.663a1.416 1.416 0 0 0 1.416 1.416h5.663a1.416 1.416 0 0 0 1.416-1.416v-5.663a1.416 1.416 0 0 0-1.416-1.416zm-1.416 5.663h-2.831v-2.831h2.831zm12.741-16.989h-5.663a1.416 1.416 0 0 0-1.416 1.416v5.663a1.416 1.416 0 0 0 1.416 1.416h5.663a1.416 1.416 0 0 0 1.416-1.416v-5.663a1.416 1.416 0 0 0-1.416-1.416zm-1.416 5.663h-2.831v-2.831h2.831zm1.416 5.663h-5.663a1.416 1.416 0 0 0-1.416 1.416v5.663a1.416 1.416 0 0 0 1.416 1.416h5.663a1.416 1.416 0 0 0 1.416-1.416v-5.663a1.416 1.416 0 0 0-1.416-1.416zm-1.416 5.663h-2.831v-2.831h2.831z"/><path class="b" d="M78.239 50.22H49.925a1.416 1.416 0 0 0-1.416 1.416v14.157a1.416 1.416 0 0 0 1.416 1.416h28.314a1.416 1.416 0 0 0 1.416-1.416V51.636a1.416 1.416 0 0 0-1.416-1.416zm-1.416 14.157H51.34V53.051h25.483z"/><path class="b" d="M72.577 57.298H61.251a1.416 1.416 0 0 0 0 2.831h11.326a1.416 1.416 0 0 0 0-2.831zm-2.832-21.66H58.419a1.416 1.416 0 1 0 0 2.831h11.326a1.416 1.416 0 0 0 0-2.831z"/><path class="b" d="M103.722 50.22h-18.4v-7.5a7.087 7.087 0 0 0-7.079-7.079h-1.42v-4.675a1.416 1.416 0 0 0-1.415-1.416H52.756a1.416 1.416 0 0 0-1.416 1.416v4.672h-1.415a7.087 7.087 0 0 0-7.079 7.078v52.24a7.087 7.087 0 0 0 7.079 7.079h28.314a7.087 7.087 0 0 0 7.079-7.079V81.79h18.4a4.252 4.252 0 0 0 4.247-4.247V54.467a4.252 4.252 0 0 0-4.243-4.247zm-49.55-17.839h19.82v12.176h-19.82zm28.314 62.575a4.252 4.252 0 0 1-4.247 4.247H49.925a4.252 4.252 0 0 1-4.247-4.247V72.75h36.808zm0-25.034H45.677V42.716a4.252 4.252 0 0 1 4.247-4.247h1.416v6.088h-1.415a1.416 1.416 0 0 0 0 2.831h28.314a1.416 1.416 0 1 0 0-2.831h-1.416v-6.088h1.416a4.252 4.252 0 0 1 4.247 4.247zm22.652 7.621a1.417 1.417 0 0 1-1.416 1.416h-18.4V64.377h19.82zm0-16h-19.82v-2.829h19.82zm0-5.663h-19.82v-2.83h18.4a1.417 1.417 0 0 1 1.416 1.416z"/><path class="b" d="M98.059 67.208a4.229 4.229 0 0 0-2.831 1.085 4.247 4.247 0 1 0 0 6.324 4.246 4.246 0 1 0 2.831-7.409zm-5.663 5.663a1.416 1.416 0 1 1 1.416-1.416 1.417 1.417 0 0 1-1.416 1.416zm5.663 0a1.416 1.416 0 1 1 1.416-1.416 1.417 1.417 0 0 1-1.416 1.416z"/></svg>