<svg width="35" height="35" viewBox="0 0 35 35" fill="none" xmlns="http://www.w3.org/2000/svg"><g clip-path="url(#a)"><path d="M12.436 18.973v.924l.017.91v.448a2.233 2.233 0 0 0 2.257 2.205c2.22-.08 4.103-.206 5.363-.367.087 0 .154-.238.147-.504-.007-.266-.07-.424-.147-.434-1.257-.165-3.15-.287-5.352-.371a.522.522 0 0 1-.451-.385.638.638 0 0 1 0-.158v-.448l.017-.91v-1.606a.481.481 0 0 1 0-.07.424.424 0 0 1 .41-.33c1.26 0 2.523 0 3.748-.027l1.768-.035a.511.511 0 0 1 .486.325c.021.054.034.11.039.168v.403l.035.78.084 1.442.02.33a.784.784 0 0 1-.1.486.896.896 0 0 1-.501.392c-.053 0-.102.252-.098.521.003.27.09.434.203.434a1.852 1.852 0 0 0 1.312-.591 1.959 1.959 0 0 0 .522-1.232l.024-.35.161-1.425.035-.78v-.403a2.285 2.285 0 0 0-.073-.644 2.22 2.22 0 0 0-1.992-1.634 14.453 14.453 0 0 0 .179-1.173l.035-.35v-.207a2.162 2.162 0 0 0 0-.251 2.828 2.828 0 0 0-.963-1.936 2.89 2.89 0 0 0-1.05-.584 3.176 3.176 0 0 0-.595-.123h-.986a2.89 2.89 0 0 0-1.627.714 2.824 2.824 0 0 0-.96 1.936c-.01.269.006.538.045.805a13.559 13.559 0 0 0 .168 1.106 2.307 2.307 0 0 0-2.187 2.275v.252l.007.472zm3.552-4.102c.014-.2.041-.4.08-.598.08-.283.252-.53.49-.7a1.202 1.202 0 0 1 .617-.228h.65a1.199 1.199 0 0 1 .616.231c.238.171.41.418.487.7.04.197.067.395.08.595a13.559 13.559 0 0 0 .172 1.141h-.679c-.878 0-1.774-.02-2.677-.024.028-.147.056-.298.08-.462.025-.165.056-.43.084-.655z" fill="#fff"/><path d="M3.85 12.635c.056.02.21-.158.35-.392a1.05 1.05 0 0 0 .171-.42 1.949 1.949 0 0 1-.423-.784 1.509 1.509 0 0 1 .073-1.001 1.316 1.316 0 0 1 1.297-.772 1.243 1.243 0 0 1 1.118 1.024 1.32 1.32 0 0 1-.234 1.018c-.205.28-.499.481-.833.57-.293.078-.6.086-.896.025-.13.113-.234.253-.305.41-.115.206-.175.385-.133.42.226.184.487.32.767.402-.487 2.1-.49 6.671 0 8.75a2.178 2.178 0 0 0-.76.4c-.045.034.032.251.168.479.137.227.238.35.27.35.296-.061.603-.053.896.024.334.09.628.291.833.57a1.32 1.32 0 0 1 .234 1.02 1.242 1.242 0 0 1-1.652.951 1.316 1.316 0 0 1-.763-.7 1.508 1.508 0 0 1-.073-1 1.95 1.95 0 0 1 .423-.785 1.222 1.222 0 0 0-.206-.48c-.123-.21-.256-.35-.305-.35a2.338 2.338 0 0 0-1.172 1.012 2.748 2.748 0 0 0-.277 2.1 2.93 2.93 0 0 0 1.645 1.918 3.021 3.021 0 0 0 3.56-.843 27.998 27.998 0 0 0 7 4.042 2.973 2.973 0 0 0-.196 1.05 3.022 3.022 0 0 0 1.242 2.45 2.93 2.93 0 0 0 2.482.466 2.745 2.745 0 0 0 1.662-1.31c.266-.457.368-.991.29-1.515 0-.06-.241-.101-.51-.098a1.05 1.05 0 0 0-.452.063 1.948 1.948 0 0 1-.465.76 1.51 1.51 0 0 1-.9.44 1.315 1.315 0 0 1-1.327-.731 1.242 1.242 0 0 1 .33-1.48 1.319 1.319 0 0 1 1-.308c.345.038.666.192.91.437.215.215.376.476.473.763.163.057.336.077.508.06.234 0 .42-.042.426-.095a2.177 2.177 0 0 0-.031-.857c1.942-.595 5.6-2.688 7.319-4.155a3.02 3.02 0 0 0 3.56.843 2.929 2.929 0 0 0 1.644-1.917 2.748 2.748 0 0 0-.276-2.1 2.338 2.338 0 0 0-1.162-.994c-.056-.021-.21.157-.35.392a1.05 1.05 0 0 0-.172.42c.2.225.345.493.424.784.09.332.064.685-.074 1a1.316 1.316 0 0 1-1.297.772 1.242 1.242 0 0 1-1.118-1.023 1.32 1.32 0 0 1 .235-1.019c.204-.28.498-.48.833-.57.293-.076.6-.083.895-.021.13-.113.234-.253.305-.41.116-.206.175-.385.133-.42a2.177 2.177 0 0 0-.76-.399c.483-2.1.48-6.65 0-8.75.28-.081.541-.218.767-.402.046-.035-.032-.252-.168-.48-.137-.227-.238-.35-.27-.35a1.966 1.966 0 0 1-.896-.024 1.519 1.519 0 0 1-.832-.57 1.32 1.32 0 0 1-.235-1.02 1.243 1.243 0 0 1 1.652-.951 1.317 1.317 0 0 1 .763.7c.138.315.164.669.073 1-.078.291-.223.56-.423.785.034.173.104.336.206.48.123.21.256.35.305.35a2.337 2.337 0 0 0 1.166-1.012 2.747 2.747 0 0 0 .276-2.1 2.93 2.93 0 0 0-1.645-1.918 3.02 3.02 0 0 0-2.734.143c-.313.182-.59.419-.819.7a27.999 27.999 0 0 0-7-4.025A3.02 3.02 0 0 0 19.348.91a2.929 2.929 0 0 0-2.481-.465 2.748 2.748 0 0 0-1.68 1.306 2.339 2.339 0 0 0-.29 1.515c0 .06.241.102.51.098.154.013.308-.009.452-.063a1.95 1.95 0 0 1 .465-.76c.241-.244.559-.4.9-.44a1.316 1.316 0 0 1 1.327.732 1.242 1.242 0 0 1-.33 1.48 1.32 1.32 0 0 1-1 .308 1.52 1.52 0 0 1-.91-.438 1.967 1.967 0 0 1-.473-.763 1.186 1.186 0 0 0-.508-.06c-.234 0-.42.043-.427.095-.046.289-.034.584.036.868C12.995 4.9 9.326 7 7.615 8.452a2.972 2.972 0 0 0-2.169-1.099 3.02 3.02 0 0 0-1.384.256 2.93 2.93 0 0 0-1.645 1.918 2.747 2.747 0 0 0 .277 2.1c.26.456.667.811 1.155 1.008zm3.5-.123c.514.7 1.722 1.285 2.429 1.068a3.57 3.57 0 0 0 .265-.427 2.93 2.93 0 0 0 .2-.385c-.161-.7-1.221-1.435-2.072-1.561a2.884 2.884 0 0 0 .046-1.565c2.1-.717 5.746-2.852 7.276-4.26.334.386.768.672 1.253.827-.35.794-.252 2.135.287 2.635.167.018.336.024.504.018.145.005.29-.001.434-.018.528-.49.63-1.774.315-2.576.379-.087.736-.25 1.05-.48.113-.08.22-.169.319-.265a27.697 27.697 0 0 0 7.129 4.123 2.884 2.884 0 0 0 .046 1.554c-.851.126-1.912.857-2.072 1.56.067.154.145.303.234.445.069.122.146.24.231.35.7.217 1.915-.37 2.429-1.067a2.8 2.8 0 0 0 1.344.672c-.469 2.1-.473 6.541 0 8.634a2.78 2.78 0 0 0-1.348.697c-.514-.7-1.722-1.285-2.428-1.068a3.594 3.594 0 0 0-.267.427 2.93 2.93 0 0 0-.199.385c.161.7 1.222 1.435 2.072 1.561a2.886 2.886 0 0 0-.042 1.568c-2.1.7-5.754 2.842-7.287 4.246a2.779 2.779 0 0 0-1.246-.82c.35-.794.252-2.134-.287-2.635a3.579 3.579 0 0 0-.504-.017 2.94 2.94 0 0 0-.434.017c-.529.49-.63 1.775-.315 2.576a2.886 2.886 0 0 0-1.365.742 27.698 27.698 0 0 0-7.136-4.109 2.884 2.884 0 0 0-.042-1.564c.85-.126 1.91-.858 2.072-1.561a3.57 3.57 0 0 0-.235-.445 2.926 2.926 0 0 0-.231-.35c-.7-.217-1.914.371-2.429 1.068a2.78 2.78 0 0 0-1.333-.672c.462-2.1.458-6.542 0-8.635a2.779 2.779 0 0 0 1.337-.696v.003z" fill="url(#b)" filter="url(#c)"/></g><defs><filter id="c" x="-1.678" y=".346" width="38.361" height="42.312" filterUnits="userSpaceOnUse" color-interpolation-filters="sRGB"><feFlood flood-opacity="0" result="BackgroundImageFix"/><feColorMatrix in="SourceAlpha" values="0 0 0 0 0 0 0 0 0 0 0 0 0 0 0 0 0 0 127 0" result="hardAlpha"/><feOffset dy="4"/><feGaussianBlur stdDeviation="2"/><feComposite in2="hardAlpha" operator="out"/><feColorMatrix values="0 0 0 0 0 0 0 0 0 0 0 0 0 0 0 0 0 0 0.25 0"/><feBlend in2="BackgroundImageFix" result="effect1_dropShadow"/><feBlend in="SourceGraphic" in2="effect1_dropShadow" result="shape"/></filter><linearGradient id="b" x1=".141" y1="-1.111" x2="33.338" y2="1.608" gradientUnits="userSpaceOnUse"><stop stop-color="#4C698B"/><stop offset=".482" stop-color="#fff"/><stop offset=".877" stop-color="#FFC8AA"/></linearGradient><clipPath id="a"><path fill="#fff" d="M0 0h35v35H0z"/></clipPath></defs></svg>