<svg width="34" height="34" viewBox="0 0 34 34" fill="none" xmlns="http://www.w3.org/2000/svg"><circle cx="17.424" cy="16.938" r="16.5" fill="#E1A875"/><g opacity=".8" clip-path="url(#a)"><path fill-rule="evenodd" clip-rule="evenodd" d="M24.168 22.252c-.093.093-.205.211-.324.336-.296.315-.667.706-.9.865-1.221.835-2.856.436-4.012-.046-1.526-.636-3.187-1.807-4.678-3.299-1.493-1.491-2.664-3.153-3.3-4.677-.48-1.157-.881-2.792-.046-4.014.158-.233.55-.603.865-.9.126-.118.243-.23.336-.323a.88.88 0 0 1 1.243 0l2.248 2.248a.88.88 0 0 1 0 1.242l-.612.611a1.339 1.339 0 0 0-.237 1.582 8.983 8.983 0 0 0 3.734 3.733 1.337 1.337 0 0 0 1.581-.237l.611-.611a.88.88 0 0 1 1.243 0l2.248 2.248a.88.88 0 0 1 0 1.242z" fill="#fff"/></g><defs><clipPath id="a"><path fill="#fff" transform="translate(10.424 9.938)" d="M0 0h14v14H0z"/></clipPath></defs></svg>