<svg width="16" height="16" viewBox="0 0 16 16" fill="none" xmlns="http://www.w3.org/2000/svg"><g clip-path="url(#a)"><path d="M.498 10.783a8.003 8.003 0 0 0 15.005 0L8 10.087l-7.502.696z" fill="#FFDA44"/><path d="M8 0A8.003 8.003 0 0 0 .498 5.217L8 5.913l7.503-.696A8.003 8.003 0 0 0 8 0z" fill="#000"/><path d="M.498 5.217A7.983 7.983 0 0 0 0 8c0 .978.176 1.916.498 2.783h15.004A7.982 7.982 0 0 0 16 8c0-.979-.176-1.916-.498-2.783H.498z" fill="#D80027"/></g><defs><clipPath id="a"><path fill="#fff" d="M0 0h16v16H0z"/></clipPath></defs></svg>