<svg width="21" height="21" viewBox="0 0 21 21" fill="none" xmlns="http://www.w3.org/2000/svg"><g clip-path="url(#a)"><path d="M4.766 21V6.83H.265V21h4.501zM2.516 4.895c1.57 0 2.547-1.088 2.547-2.447C5.033 1.058 4.086 0 2.546 0S-.001 1.057-.001 2.448c0 1.36.977 2.447 2.488 2.447h.029zM7.258 21h4.501v-7.913c0-.423.03-.846.149-1.15.325-.845 1.066-1.721 2.31-1.721 1.628 0 2.28 1.299 2.28 3.204V21h4.501v-8.125c0-4.352-2.22-6.377-5.183-6.377-2.428 0-3.494 1.42-4.087 2.388h.03V6.83H7.258c.059 1.33 0 14.168 0 14.168z" fill="#465546"/></g><defs><clipPath id="a"><path fill="#fff" d="M0 0h21v21H0z"/></clipPath></defs></svg>