<svg xmlns="http://www.w3.org/2000/svg" viewBox="0 0 1000 1000"><path d="M800.17 11.74c-16.49 2.75-41.62 12.17-57.13 21.4-18.45 10.99-42.8 34.36-54.97 52.81-10.41 15.9-19.44 37.3-23.56 55.56-1.77 8.24-3.34 11.39-5.69 11.39-1.77 0-22.97-3.93-47.12-8.83-24.15-4.91-45.74-8.83-47.9-8.83-2.75 0-91.29 87.16-278.96 274.84L10 684.91l152.73 152.54 152.54 152.73 274.84-274.84c186.5-186.5 274.84-276.22 274.84-278.77 0-2.36-4.32-25.32-9.42-51.44l-9.62-47.12 12.17-2.36c27.48-5.5 55.56-20.42 78.13-41.42 57.32-53 70.08-132.32 32.2-200.24-11.19-20.22-42.01-51.04-62.23-62.23-33.37-18.65-71.07-25.71-106.01-20.02zm55.56 32.39c51.24 11.58 89.91 50.45 100.32 101.3 10.6 51.04-8.24 105.22-46.53 134.28-18.85 14.33-35.73 21.4-65.37 27.29-3.93.79-4.71-1.96-16.49-60.66l-12.17-61.64-61.25-12.17c-33.57-6.67-61.25-12.37-61.64-12.76-1.57-1.57 6.87-31.41 12.37-43.19 25.7-55.96 88.92-86.39 150.76-72.45zM680.42 189.41c57.72 11.58 106.01 21.99 107.19 23.17 1.18 1.18 5.89 21.2 10.41 44.37 4.52 23.17 8.83 43.97 9.42 45.94.98 3.34.2 3.53-7.66 2.55-4.71-.59-11.19-2.16-14.13-3.14-4.71-1.96-5.1-2.55-2.75-6.48 1.18-2.55 2.36-11.19 2.36-19.24.2-12.37-.79-16.49-5.3-24.93-7.66-14.72-15.31-22.58-29.25-30.23-10.99-5.89-14.14-6.67-27.09-6.67-12.96 0-16.1.79-27.09 6.67-13.94 7.66-21.59 15.51-29.25 30.23-4.51 8.44-5.5 12.76-5.5 24.93 0 13.15.79 16.1 6.68 27.09 7.66 13.94 15.51 21.59 30.23 29.25 8.44 4.51 12.76 5.5 24.93 5.3 12.76 0 16.29-.79 25.91-6.09l11.38-6.08 15.12 4.91c8.44 2.55 19.43 5.3 24.54 5.89 5.3.59 10.6 2.16 12.17 3.34 1.37 1.18 6.28 20.42 10.99 44.96l8.44 42.99-258.35 258.34-258.55 258.55-129.96-130.16L55.15 684.91l258.16-258.16C455.24 284.82 572.25 168.6 573.43 168.6c.98 0 49.27 9.42 106.99 20.81zm62.43 60.85c2.95 2.16 6.87 7.07 8.64 10.8 4.12 7.85 4.71 25.32.98 25.32-5.7 0-38.68-33.77-38.68-39.66 0-3.52 22.97-.78 29.06 3.54zm-23.56 49.08l10.6 8.64h-7.66c-16.1 0-27.88-10.8-29.45-26.7l-.78-9.62 8.24 9.42c4.72 5.31 13.16 13.55 19.05 18.26z"/><path d="M595.02 306.8c-17.08 4.12-28.66 11.39-48.1 30.04l-18.65 18.06 58.5 58.5 58.5 58.5 18.06-18.65c20.22-20.81 27.29-33.18 31.02-53.4 10.41-56.34-43.38-106.79-99.33-93.05zm41.23 34.16c9.23 4.71 18.65 14.33 23.75 23.95 2.55 4.91 3.73 10.99 3.73 21.59 0 16.1-3.93 26.31-13.55 35.34l-5.3 4.71-35.53-35.73-35.73-35.53 4.71-5.3c5.1-5.3 12.96-10.01 21.59-12.76 8.06-2.75 27.89-.59 36.33 3.73zm-128.59 34.75l-10.8 10.8 34.35 34.55c24.15 24.15 32.98 33.96 29.45 33.18-18.06-4.13-103.65-20.62-106.99-20.62-2.16 0-7.66 3.53-11.78 7.85l-7.85 7.85 58.5 58.5 58.31 58.31 11.19-11.39 11.39-11.19-34.36-34.54c-24.15-24.15-32.98-33.96-29.45-33.18 18.06 4.12 103.65 20.61 106.99 20.61 2.16 0 7.66-3.53 11.78-7.85l7.66-7.85-57.72-57.91c-31.8-31.8-58.31-57.91-58.89-57.91-.59-.01-5.89 4.9-11.78 10.79zM382.02 501.35l-42.21 42.21 58.5 58.31 58.31 58.5 11.19-11.39 11.39-11.19-23.56-23.56-23.56-23.56 20.22-20.02 20.02-20.22 23.56 23.56 23.56 23.56 11.19-11.39 11.39-11.19-57.92-57.91c-31.8-31.8-58.31-57.91-58.89-57.91-.59-.01-20.03 19.04-43.19 42.2zm55.95 14.73l11.78 11.78-20.22 20.22-20.03 20.02-12.17-12.37-12.37-12.17 19.63-19.63c10.8-10.8 20.02-19.63 20.61-19.63.6 0 6.29 5.3 12.77 11.78zm-123.48 60.07c-8.05 2.55-14.14 7.46-39.26 32.2l-29.65 29.25 58.31 58.5 58.5 58.5 11.19-11.39 11.39-11.19-47.12-47.12-47.12-47.3 16.88-16.49c19.63-19.24 25.13-21.01 35.34-10.99 9.62 9.82 8.05 15.71-8.44 32.78l-14.13 14.72 11.19 11.19L342.76 680l11.19-11.19 11.39-11.19 29.45 17.47 29.25 17.67 10.41-10.21c5.69-5.69 10.21-11.19 9.82-12.37-.39-.98-14.72-10.4-32-20.61l-31.21-18.84-1.18-10.01c-1.96-15.9-5.5-23.56-14.72-32.98-13.77-13.75-30.85-17.48-50.67-11.59zm-94.24 94.23c-8.05 2.55-14.14 7.46-39.26 32.2l-29.64 29.25 58.31 58.5 58.5 58.5 24.74-24.54c13.55-13.55 27.29-28.27 30.43-32.79 19.83-28.47 5.5-66.75-28.27-75.38-8.25-1.96-9.03-2.75-10.99-10.99-4.52-17.47-17.67-31.21-34.55-35.73-10.22-2.75-17.49-2.56-29.27.98zm28.47 33.96c9.62 9.82 8.05 15.71-8.44 32.78l-14.13 14.72 11.19 11 10.99 11.19 14.72-14.14c17.08-16.49 22.97-18.06 32.78-8.44 10.01 10.21 8.25 15.71-10.99 35.34l-16.69 16.88-35.73-35.93-35.92-35.72 16.88-16.69c19.63-19.23 25.13-21 35.34-10.99z"/></svg>