<svg width="370" height="345" viewBox="0 0 370 345" fill="none" xmlns="http://www.w3.org/2000/svg"><g clip-path="url(#a)"><path d="M135.272.285H22.592v100.959h112.68V.285z" fill="#FAFAFA"/><path d="M135.273 101.243s0-.625-.057-1.876c0-1.25 0-3.07-.057-5.4 0-4.718-.056-11.654-.056-20.522-.057-17.622-.057-42.862-.114-73.16l.227.227C102.803.568 64.088.568 22.592.625l.284-.284c0 36.723 0 71.285-.056 100.959l-.284-.284c33.605.057 61.761.113 81.516.113 9.877.057 17.654.057 22.99.057 2.668 0 4.711 0 6.074.057h1.646-1.533c-1.362 0-3.406 0-6.017.057-5.336 0-13.056.057-22.933.057-19.812.057-47.967.057-81.686.114h-.284v-.285c0-29.673 0-64.236-.057-100.959V0h.284c41.496 0 80.21.057 112.68.057h.284V.34c-.057 30.413-.114 55.653-.114 73.332-.056 8.81-.056 15.69-.056 20.464 0 2.331 0 4.15-.057 5.344v1.762z" fill="#E0E0E0"/><path d="M65.79 18.25c0 .17-5.903.283-13.226.283-7.322 0-13.226-.113-13.226-.284 0-.17 5.904-.284 13.226-.284 7.266 0 13.227.113 13.227.284zm47.742 7.558c0 .17-16.292.284-36.387.284s-36.387-.114-36.387-.284c0-.17 16.292-.285 36.387-.285s36.387.114 36.387.285zM44.278 38.656H39.51v4.775h4.768v-4.775zm11.637 0h-4.768v4.775h4.768v-4.775zm11.92-.226h-4.769v4.775h4.769V38.43zm11.467.226h-4.769v4.775h4.769v-4.775zm11.693 0h-4.768v4.775h4.768v-4.775zm11.695 0h-4.768v4.775h4.768v-4.775z" fill="#E0E0E0"/><path d="M114.384 38.656h-4.769v4.775h4.769v-4.775zM44.278 48.773H39.51v4.775h4.768v-4.775z" fill="#EBEBEB"/><path d="M55.915 48.773h-4.768v4.775h4.768v-4.775z" fill="#E0E0E0"/><path d="M67.608 48.773H62.84v4.775h4.768v-4.775z" fill="#EBEBEB"/><path d="M79.302 48.773h-4.769v4.775h4.769v-4.775zm11.693 0h-4.768v4.775h4.768v-4.775zm11.922-.226h-4.769v4.775h4.769v-4.775zm11.467.226h-4.769v4.775h4.769v-4.775zM44.278 58.895H39.51v4.775h4.768v-4.776zm11.863-.231h-4.768v4.775h4.768v-4.775zm11.467.231H62.84v4.775h4.768v-4.776z" fill="#E0E0E0"/><path d="M79.302 58.895h-4.769v4.775h4.769v-4.776z" fill="#EBEBEB"/><path d="M90.995 58.895h-4.768v4.775h4.768v-4.776zm11.695 0h-4.768v4.775h4.768v-4.776zm11.694 0h-4.769v4.775h4.769v-4.776zM44.278 69.012H39.51v4.775h4.768v-4.775zm11.637 0h-4.768v4.775h4.768v-4.775zm11.693 0H62.84v4.775h4.768v-4.775zm11.922-.227h-4.768v4.775h4.768v-4.775zm11.465.227h-4.768v4.775h4.768v-4.775z" fill="#E0E0E0"/><path d="M102.69 69.012h-4.768v4.775h4.768v-4.775z" fill="#EBEBEB"/><path d="M114.384 69.012h-4.769v4.775h4.769v-4.775zM44.278 79.074H39.51v4.775h4.768v-4.775z" fill="#E0E0E0"/><path d="M55.915 79.074h-4.768v4.775h4.768v-4.775z" fill="#EBEBEB"/><path d="M67.608 79.074H62.84v4.775h4.768v-4.775zm11.694 0h-4.769v4.775h4.769v-4.775zm11.693 0h-4.768v4.775h4.768v-4.775zm11.922-.172h-4.769v4.775h4.769v-4.775zm11.467.172h-4.769v4.775h4.769v-4.775z" fill="#E0E0E0"/><path d="M245.967 144.73c-.454-7.504-3.633-14.61-8.004-20.692-2.214-3.07-4.825-6.026-5.62-9.721-1.078-4.889 1.249-10.573-1.419-14.837-1.873-3.013-5.733-4.263-7.89-7.049-2.328-3.013-2.271-7.22-3.633-10.744-1.363-3.524-5.961-6.594-8.799-4.036-.568-6.708.568-10.46-5.166-13.984-5.676-3.524-16.916-1.819-19.13 4.548-4.825-4.036-13.68-7.959-19.243-5.003-3.406 1.82-6.074 4.889-9.253 7.106-4.939 3.468-11.013 4.889-16.519 7.333-5.506 2.445-11.013 6.48-12.318 12.393-.965 4.377.567 8.981-.227 13.359-.681 3.695-2.952 6.878-4.655 10.232-1.476 2.785-2.555 5.741-3.293 8.811-1.419 5.969-.624 13.643 4.939 16.258-3.973 1.137-6.812 5.344-6.414 9.437.397 4.093 4.087 7.674 8.174 7.958-3.122 5.685-6.244 11.312-9.367 16.997-.851 1.592-1.759 3.297-1.475 5.116.397 2.445 3.065 4.036 5.563 4.036 2.497 0 4.825-1.08 7.095-2.217 1.59 2.956 4.882 4.832 8.175 4.775 3.292-.113 6.528-2.16 7.947-5.173 1.873 3.468 5.733 5.799 9.65 5.799 3.917 0 7.834-2.274 9.707-5.685l38.033-8.697c9.537-.91 19.13-1.763 28.667-2.672 4.144-.398 8.799-1.023 11.353-4.32 1.646-2.161 2.044-5.003 2.384-7.732.511-3.808 1.022-7.731.738-11.596z" fill="#263238"/><path d="M179.55 250.068l-18.335-48.774 9.536-9.551-.397-3.069c-1.022-7.675-1.419-10.801-1.419-10.744 0 0-16.519-.682-22.48-21.431-2.951-10.289-4.541-27.628-5.392-41.839-.738-12.791 5.733-29.39 18.505-29.617l40.645 5.116a7.48 7.48 0 0 1 7.55 6.708l7.095 85.61 5.393 4.605 6.471 59.291-47.172 3.695z" fill="#B47266"/><path d="M150.429 131.149c.114 1.421 1.419 2.501 2.952 2.388 1.476-.114 2.611-1.365 2.498-2.786-.114-1.421-1.42-2.501-2.952-2.444-1.533.17-2.668 1.421-2.498 2.842zm27.078-2.277c.114 1.421 1.419 2.501 2.952 2.387 1.476-.113 2.611-1.364 2.498-2.785-.114-1.421-1.419-2.501-2.952-2.445-1.533.114-2.668 1.365-2.498 2.843zm-31.563-4.319c.397.284 2.271-1.478 5.166-1.819 2.895-.398 5.222.853 5.506.455.113-.171-.284-.796-1.306-1.365-1.021-.568-2.668-1.023-4.484-.795-1.817.227-3.236 1.08-4.031 1.875-.851.853-1.078 1.535-.851 1.649zm28.951-2.332c.397.284 2.271-1.478 5.166-1.819 2.895-.398 5.222.853 5.506.455.113-.171-.284-.796-1.306-1.365-1.021-.568-2.668-1.023-4.484-.795-1.817.227-3.236 1.08-4.031 1.875-.794.796-1.021 1.478-.851 1.649zm-8.174 20.921c0-.171-1.873-.284-4.825-.284-.738 0-1.476-.057-1.646-.512-.227-.512-.057-1.364.227-2.274.454-1.876.965-3.866 1.476-5.969 2.043-8.47 3.463-15.405 3.122-15.462-.341-.057-2.271 6.708-4.371 15.178-.511 2.103-.965 4.093-1.419 5.969-.171.909-.568 1.876 0 2.956.284.511.851.853 1.362.966.511.114.908.057 1.306 0 2.952-.227 4.768-.398 4.768-.568z" fill="#263238"/><path d="M168.99 177.931s14.305-.853 27.361-11.029c0 0-5.279 15.633-26.68 16.258l-.681-5.229zm-1.249-27.287c1.59-1.819 5.961-4.661 7.437-5.059 1.532-.398 3.3.666 4.322 1.916 1.022 1.251-.632 4.053-1.427 5.587-.908 1.763-2.782 3.298-4.485 3.127-1.703-.171-3.349-1.933-4.768-2.899-.397-.284-.795-.569-1.079-1.023-.283-.455-.34-1.08-.056-1.535" fill="#89544C"/><path d="M171.774 111.419c.397.739 3.236 0 6.698 0 3.463-.057 6.358.569 6.699-.17.17-.342-.398-1.081-1.647-1.706-1.192-.625-3.065-1.137-5.109-1.137-2.1 0-3.916.569-5.108 1.251-1.136.739-1.703 1.421-1.533 1.762zm-26.283 2.957c.568.625 2.498-.341 4.939-.682 2.384-.398 4.541-.114 4.882-.853.17-.341-.228-.966-1.193-1.478-.965-.512-2.497-.853-4.143-.569-1.647.285-3.009 1.024-3.747 1.82-.795.739-.965 1.421-.738 1.762z" fill="#263238"/><path d="M205.492 123.298c.284-.17 11.24-5.286 12.716 6.481 1.419 11.824-10.729 10.801-10.786 10.46-.057-.285-1.93-16.941-1.93-16.941z" fill="#B47266"/><path d="M210.488 135.407c.057-.057.227.114.568.227.34.114.965.171 1.532-.17 1.192-.625 1.987-2.729 1.817-4.832-.114-1.08-.454-2.103-.908-2.899-.455-.796-1.079-1.365-1.76-1.365-.625-.056-1.022.341-1.136.739-.113.341 0 .569-.056.626-.057.057-.284-.171-.227-.682 0-.228.113-.512.397-.796.227-.285.681-.455 1.079-.455.908-.057 1.816.682 2.384 1.592a7.12 7.12 0 0 1 1.135 3.183c.227 2.388-.738 4.775-2.384 5.457-.795.341-1.533.171-1.93-.057-.454-.284-.568-.568-.511-.568z" fill="#89544C"/><path d="M215.938 138.761c0 .056.341.113.852.398a3.67 3.67 0 0 1 1.589 1.819c.454.909.511 2.273-.284 3.354-.738 1.08-2.27 1.875-3.746 1.648-1.533-.227-2.725-1.421-3.179-2.672-.511-1.25-.227-2.558.227-3.467.454-.91 1.135-1.535 1.589-1.876.454-.341.795-.512.738-.512 0 0-.34.057-.908.341-.511.284-1.249.91-1.816 1.876-.568.967-.909 2.388-.341 3.809.511 1.421 1.816 2.728 3.576 3.07 1.76.284 3.463-.683 4.258-1.933.454-.626.624-1.365.624-2.047 0-.682-.17-1.307-.454-1.819-.511-1.023-1.306-1.591-1.873-1.819-.511-.17-.852-.17-.852-.17z" fill="#455A64"/><path d="M172.342 155.871c0-.057.113 0 .284.056.17.057.397.228.624.285.568.17 1.363 0 2.328-.626.51-.284.965-.568 1.419-1.08a5.688 5.688 0 0 0 1.135-1.648c.284-.626.397-1.308.227-1.99-.17-.682 1.152-2.188.641-2.87-1.079-1.307-4.104-1.621-5.352-1.507-.625.057-1.249.341-1.76.682-.568.341-1.136.739-1.59 1.023-1.93 1.308-2.668 2.502-2.838 2.445-.057-.057 0-.398.397-1.024.341-.568 1.022-1.364 1.93-2.103.455-.398.965-.796 1.533-1.194.568-.398 1.306-.852 2.271-.966.965-.114 1.93.227 2.668.739.794.512 3.617-.834 4.241-.095.568.739-1.062 3.619-.892 4.586.17.966 0 1.989-.397 2.728-.171.398-.455.739-.682 1.081-.227.284-.511.568-.794.852-.568.512-1.192.853-1.76 1.137-.568.228-1.079.455-1.646.512-.511.057-1.022-.057-1.306-.228-.341-.17-.511-.398-.624-.511 0-.171-.057-.228-.057-.284z" fill="#263238"/><path d="M215.71 160.138h.17c.114 0 .284 0 .454.056.398 0 1.022.057 1.817-.056 1.589-.171 3.917-.796 6.187-2.729 2.271-1.876 4.258-5.002 5.336-8.982.511-1.989.852-4.149.795-6.423-.057-2.274-.568-4.662-1.816-6.822l-.057-.057.057-.113c1.475-3.241 1.816-7.277.567-11.029-1.305-3.751-4.257-7.105-8.174-8.754l-.341-.114.284-.227a4.333 4.333 0 0 0 1.249-1.592c.738-1.535.795-3.354.284-4.945-.511-1.592-1.476-3.013-2.555-4.321-1.078-1.25-2.327-2.387-3.689-3.126-1.363-.739-3.009-1.137-4.485-.739l-.454.114.227-.398c1.646-2.729 1.249-6.31-.624-8.47-1.874-2.218-4.882-3.013-7.323-2.388l-.284.057.057-.284c.908-3.24 0-6.595-1.76-8.584-.454-.512-.908-.967-1.419-1.308a6.929 6.929 0 0 0-1.59-.795c-1.078-.398-2.157-.455-3.122-.398a8.99 8.99 0 0 0-2.441.625c-.681.34-1.192.682-1.532 1.023-.738.682-.965 1.194-1.022 1.194 0 0 .057-.114.227-.341.113-.228.397-.512.738-.91.34-.34.908-.739 1.533-1.08a6.444 6.444 0 0 1 2.497-.682 7.262 7.262 0 0 1 3.236.341c.568.17 1.135.455 1.646.796.511.398 1.022.796 1.476 1.364 1.817 2.104 2.782 5.458 1.873 8.868l-.17-.227c2.554-.625 5.677.17 7.663 2.444 1.987 2.274 2.385 6.026.682 8.868l-.227-.284c1.589-.398 3.292 0 4.768.796s2.725 1.933 3.803 3.24c1.079 1.308 2.101 2.729 2.611 4.434.568 1.649.511 3.581-.283 5.23a6.099 6.099 0 0 1-1.363 1.762l-.057-.341c4.031 1.706 7.096 5.173 8.402 8.982 1.305 3.865.965 8.015-.568 11.369v-.17c1.306 2.217 1.817 4.661 1.873 6.992.057 2.33-.283 4.491-.851 6.48-1.079 3.979-3.122 7.163-5.506 9.039-2.328 1.876-4.769 2.501-6.358 2.671-.795.057-1.419 0-1.817 0-.17-.056-.34-.056-.454-.056h-.17z" fill="#455A64"/><path d="M211.794 117.614c-.284-8.015-.624-16.201-3.519-23.648-.625-1.705-1.476-3.41-2.839-4.547-1.135-.91-2.554-1.422-3.916-1.82-2.214-.625-2.839-2.16-5.109-2.273-8.742-7.447-21.288-10.005-32.357-6.992-11.069 3.012-20.492 11.312-25.261 21.772-4.768 10.459-4.995 22.795-.965 33.596-.738-8.527 4.655-16.486 11.24-21.886 6.585-5.4 14.475-9.039 21.457-13.927-.113 2.387-1.305 4.661-3.122 6.082 5.507-1.478 11.07-3.013 16.065-5.741a31.253 31.253 0 0 0 3.236-2.047 9.818 9.818 0 0 0 1.078 3.752c1.874 3.638 5.847 5.628 8.912 8.357.398.341.738.682.909 1.193.284.739.057 1.535-.171 2.274-.681 2.388-1.135 4.946-.794 7.39.397 2.445 1.759 4.889 4.03 5.969-1.703 2.558-1.533 6.253.454 8.584.284.341.625.682 1.079.739.738.114 1.305-.512 1.76-1.137 1.192-1.762 2.043-3.752 2.44-5.855.171-.91.284-1.819.852-2.558.795-1.024 2.271-1.251 3.236-2.047 1.305-1.307 1.362-3.411 1.305-5.23z" fill="#263238"/><path d="M149.635 99.082s.057-.227.17-.568c.114-.398.341-.91.738-1.592.397-.625.965-1.42 1.817-2.103a9.451 9.451 0 0 1 3.292-1.706l-.114.114a20.15 20.15 0 0 1 .682-3.41 17.702 17.702 0 0 1 1.589-3.525c1.419-2.33 3.463-4.548 6.131-6.14 1.135-.682 2.384-1.25 3.633-1.591a5.564 5.564 0 0 1 1.93-.17c.624.056 1.249.397 1.703.852h-.284c1.533-1.99 3.463-3.468 5.393-4.377 1.873-.91 3.803-1.308 5.336-.853 1.532.455 2.327 1.592 2.611 2.388.113.398.17.739.17.966a.825.825 0 0 1-.057.341c-.056 0 .057-.455-.227-1.25-.283-.74-1.078-1.763-2.554-2.16-1.476-.398-3.292 0-5.109.909-1.816.91-3.69 2.33-5.222 4.32l-.171.17-.17-.17c-.681-.852-2.044-.91-3.236-.568a14.706 14.706 0 0 0-3.519 1.535 17.297 17.297 0 0 0-6.017 5.969c-.682 1.136-1.192 2.33-1.59 3.467-.397 1.137-.567 2.274-.738 3.297v.114h-.113c-2.612.682-4.201 2.33-5.052 3.581-.795 1.365-.965 2.217-1.022 2.16z" fill="#455A64"/><path d="M135.274 170.253s-.057.114-.227.284c-.17.228-.34.512-.624.91l-.057.057v-.057a25.392 25.392 0 0 1-1.249-7.958c0-1.876.17-4.093.795-6.424a25.071 25.071 0 0 1 3.008-7.22l.057.228c-2.895-1.251-5.166-4.491-5.222-8.186 0-.91.113-1.876.397-2.729.17-.454.341-.852.397-1.307a1.498 1.498 0 0 0-.34-1.194c-.284-.341-.681-.625-1.022-.966-.341-.341-.738-.682-1.022-1.024a12.754 12.754 0 0 1-1.76-2.444c-1.021-1.762-1.646-3.809-1.702-5.912a13.586 13.586 0 0 1 1.192-6.31c.454-1.023 1.021-1.933 1.703-2.842.34-.455.738-.853 1.135-1.251.397-.398.795-.739.795-1.25 0-.455-.284-.967-.455-1.535-.17-.512-.34-1.08-.454-1.649-.227-1.137-.397-2.274-.34-3.411 0-4.945 2.214-9.834 5.903-12.79.909-.739 1.874-1.364 2.328-2.388.227-.511.34-1.023.511-1.591.113-.569.34-1.08.511-1.649.738-2.16 1.93-4.036 3.349-5.684 2.838-3.24 6.585-5.344 10.331-6.14 1.873-.398 3.747-.398 5.506-.284.398 0 .852-.057 1.193-.227.34-.17.624-.512.908-.796.284-.284.624-.569.908-.853.341-.284.625-.511.965-.796 1.306-.966 2.668-1.762 3.974-2.33 1.362-.569 2.668-1.024 3.917-1.251 2.497-.569 4.768-.569 6.528-.341 1.816.17 3.122.625 4.03.91.454.17.738.284 1.022.397l.34.17s-.113-.056-.34-.113c-.227-.114-.568-.227-1.022-.34-.908-.228-2.271-.683-4.03-.797-1.76-.17-4.031-.17-6.472.398-1.249.284-2.554.74-3.86 1.25-1.305.57-2.611 1.365-3.917 2.332-.283.227-.624.511-.965.738-.283.285-.624.569-.908.853-.284.284-.568.626-.965.853-.397.227-.908.284-1.362.284-.454 0-.909-.057-1.306-.057-.454 0-.908-.057-1.362 0a22.3 22.3 0 0 0-2.725.341c-3.633.796-7.323 2.843-10.104 6.026-1.363 1.592-2.555 3.468-3.236 5.57-.17.513-.341 1.024-.454 1.593a7.98 7.98 0 0 1-.511 1.648c-.511 1.137-1.589 1.762-2.441 2.501-3.519 2.9-5.677 7.618-5.733 12.507 0 1.137.113 2.273.34 3.354.114.568.227 1.08.454 1.591.114.512.455 1.023.455 1.706-.057.682-.568 1.137-.966 1.478-.397.398-.737.795-1.078 1.193a13.712 13.712 0 0 0-1.703 2.729 12.688 12.688 0 0 0-1.192 6.083c.113 2.046.681 4.036 1.646 5.741.454.853 1.079 1.649 1.703 2.388l1.022 1.023c.34.341.738.625 1.078 1.023.341.398.511.966.455 1.478-.057.512-.284.966-.398 1.364-.284.853-.397 1.763-.397 2.615.057 3.525 2.214 6.708 4.995 7.902l.171.057-.114.17a24.802 24.802 0 0 0-3.009 7.163c-.624 2.274-.794 4.434-.851 6.367-.057 3.808.681 6.48 1.135 7.958h-.057c.284-.398.511-.682.682-.853.056-.17.113-.284.113-.284zm70.842-105.052c0 .114-1.419-.284-3.747-.284-1.135.057-2.554.227-3.86.91-1.306.682-2.611 1.876-3.179 3.524-.113.284-.17.569-.17.853v.17h-.17c-1.647-.057-3.236.228-4.485.853-1.305.569-2.271 1.478-2.838 2.33a5.877 5.877 0 0 0-1.022 2.275c-.114.568-.113.91-.17.91 0 0 0-.058-.057-.228 0-.17 0-.398.057-.682.057-.626.34-1.478.908-2.388a7.277 7.277 0 0 1 2.952-2.501c1.305-.626 2.952-.967 4.655-.91l-.227.17c.056-.284.113-.625.227-.909.567-1.762 1.986-3.07 3.406-3.752 1.419-.682 2.895-.852 4.03-.91 1.192 0 2.157.171 2.781.285.568.114.909.227.909.284z" fill="#455A64"/><path d="M173.307 241.711l59.093-2.047 5.449 80.835-51.713.739-12.829-79.527z" fill="#E0E0E0"/><path d="M219.286 181.682c.794-1.023 44.901 28.935 46.831 32.516 1.987 3.581 12.659 107.098 12.659 107.098h-57.617s-5.279-85.212-4.996-93.114c.284-7.902 3.123-46.5 3.123-46.5zM86.397 321.693s-6.528-13.359-5.79-19.896c.738-6.538 5.79-19.555 5.79-19.555l13-23.137s2.611-19.271 4.03-22.909c1.419-3.638 9.082-28.082 18.108-33.823 9.026-5.742 36.387-9.721 36.387-9.721l12.148-9.039s12.034 35.7 13.851 45.42c1.816 9.778 11.921 92.603 11.921 92.603l-109.445.057z" fill="#526AC2"/><path d="M187.781 259.447s-.057-.057-.114-.171a1.974 1.974 0 0 1-.34-.511l-1.363-2.047a843.69 843.69 0 0 0-4.995-7.503c-2.1-3.184-4.598-6.993-7.38-11.199a424.212 424.212 0 0 0-4.371-6.594c-1.475-2.274-3.122-4.719-3.633-7.675-.34-1.762-.113-3.581.284-5.286.454-1.706 1.079-3.241 1.646-4.775l.227.284c-2.781.966-5.449 1.876-7.947 2.785l-.227.057v-.227a2174.82 2174.82 0 0 0-1.305-16.94c-.114-2.047-.227-3.639-.341-4.776-.057-.511-.057-.966-.057-1.25v-.455s.057.171.057.455c.057.341.057.739.114 1.25.113 1.137.227 2.729.454 4.776.34 4.149.851 9.948 1.419 16.883l-.227-.171c2.497-.852 5.165-1.819 7.947-2.785l.397-.171-.17.398c-.624 1.535-1.249 3.07-1.646 4.719-.398 1.648-.625 3.41-.284 5.116.511 2.842 2.1 5.286 3.576 7.56 1.533 2.274 2.952 4.491 4.314 6.594 2.782 4.207 5.223 8.016 7.323 11.199 2.044 3.184 3.747 5.742 4.939 7.561.568.852 1.022 1.591 1.306 2.046.113.228.227.398.34.569 0 .227.057.284.057.284zm-41.552 60.485s-.057-.056-.057-.227c-.057-.171-.113-.455-.17-.739-.17-.682-.397-1.592-.681-2.842-.568-2.502-1.363-6.026-2.384-10.403-1.93-8.811-4.598-20.976-7.55-34.449-2.952-13.473-5.563-25.638-7.493-34.449-.965-4.377-1.76-7.958-2.271-10.46-.284-1.193-.454-2.16-.624-2.842-.057-.284-.114-.568-.171-.739-.057-.17-.057-.227-.057-.227s.057.057.057.227c.057.171.114.455.171.739.17.682.397 1.592.681 2.842.567 2.445 1.419 6.026 2.441 10.403a3501.4 3501.4 0 0 1 7.606 34.449c2.895 13.473 5.507 25.638 7.437 34.449a669.28 669.28 0 0 1 2.214 10.46c.283 1.193.454 2.16.624 2.842.057.284.113.568.17.739.057.171.057.227.057.227z" fill="#263238"/><path d="M141.006 320.499c5.79-3.467 12.432-5.57 19.187-6.025 5.222-.398 10.558.17 15.554-1.478 5.563-1.819 9.934-6.083 14.078-10.233 1.135-1.137 2.327-2.33 2.781-3.865.511-1.535.057-3.468-1.362-4.207-1.079-.568-2.441-.284-3.633.057-17.484 4.832-33.833 13.529-47.57 25.353" fill="#000"/><path d="M125.623 290.712c-.057 0-.341-.455-.852-1.251-.567-.796-1.419-1.99-2.554-3.24-2.328-2.615-6.131-5.799-11.126-7.731-4.996-1.933-9.991-2.16-13.454-1.763a30 30 0 0 0-4.087.683c-.965.227-1.476.398-1.476.341l.34-.171c.228-.057.625-.227 1.08-.341a21.63 21.63 0 0 1 4.087-.796c3.462-.455 8.514-.284 13.623 1.706 5.052 1.989 8.913 5.229 11.183 7.901 1.136 1.365 1.987 2.501 2.498 3.354.284.398.454.739.568.967l.17.341zm6.3-3.184l-.17-.341c-.113-.285-.284-.626-.454-1.08a17.035 17.035 0 0 0-.738-1.706c-.341-.625-.624-1.421-1.078-2.16a24.019 24.019 0 0 1-.682-1.251c-.227-.454-.511-.852-.794-1.307a35.673 35.673 0 0 0-1.93-2.786c-1.42-1.932-3.179-3.922-5.166-5.798-2.044-1.876-4.144-3.468-6.131-4.832-1.022-.625-1.987-1.25-2.895-1.762-.454-.227-.908-.512-1.362-.739-.454-.227-.852-.398-1.306-.625-.795-.398-1.589-.683-2.271-.967-.681-.284-1.248-.511-1.703-.625-.454-.171-.794-.284-1.078-.398a3.375 3.375 0 0 0-.397-.171s.113 0 .397.057c.284.057.681.171 1.135.341.511.114 1.079.341 1.76.569.681.284 1.476.511 2.271.909.397.171.851.398 1.305.569l1.363.682c.965.455 1.93 1.08 2.951 1.705a41.813 41.813 0 0 1 6.188 4.832 40.592 40.592 0 0 1 5.166 5.912c.681.967 1.362 1.933 1.873 2.843.284.454.568.909.795 1.364.227.455.454.853.681 1.251.454.795.738 1.591 1.022 2.217.283.682.51 1.25.681 1.705.17.455.284.796.397 1.137.17.341.17.455.17.455zm120.117-38.372v.171c-.057.17-.057.341-.114.511-.113.512-.283 1.194-.454 1.99-.397 1.762-1.022 4.263-1.703 7.39-1.362 6.253-2.895 15.007-3.122 24.785-.113 4.889.227 9.55.965 13.7.681 4.15 1.817 7.845 2.952 10.801 1.135 2.956 2.327 5.286 3.236 6.821.454.796.851 1.365 1.078 1.763.114.17.227.341.284.454.057.114.114.171.057.171l-.114-.114a5.217 5.217 0 0 0-.284-.455 29.431 29.431 0 0 1-1.135-1.705c-.965-1.535-2.157-3.809-3.406-6.822a55.608 55.608 0 0 1-3.065-10.857 70.557 70.557 0 0 1-1.022-13.757c.227-9.834 1.816-18.589 3.236-24.842a381.038 381.038 0 0 1 1.816-7.39c.227-.853.398-1.478.511-1.989.057-.228.114-.398.17-.512.114-.057.114-.114.114-.114z" fill="#263238"/><path d="M246.477 282.866v-.625c.057-.455.057-1.024.17-1.706.057-.739.114-1.648.227-2.728.114-1.081.17-2.274.227-3.582.341-5.343.568-12.733.511-20.862a372.076 372.076 0 0 0-.738-20.863c-.17-2.672-.34-4.832-.454-6.31-.057-.739-.114-1.307-.114-1.705 0-.398-.056-.626 0-.626 0 0 .057.228.114.569.057.455.114 1.023.227 1.705.17 1.478.397 3.638.568 6.31.397 5.344.794 12.734.851 20.92.057 8.185-.227 15.575-.624 20.919-.114 1.364-.17 2.558-.284 3.581-.114 1.08-.17 1.99-.284 2.729-.113.739-.17 1.307-.227 1.705-.113.341-.17.569-.17.569zm-16.518-74.694s0 .227-.17.682a4.653 4.653 0 0 1-1.135 1.592 5.82 5.82 0 0 1-2.782 1.364c-1.192.284-2.611.227-4.144.171l.057-.285c1.589.398 3.406.853 5.336 1.308l.17.057v.17c-.511 5.23-1.249 11.483-2.384 18.191-1.476 9.209-3.292 17.395-4.825 23.364-.738 2.956-1.419 5.343-1.873 6.992-.227.796-.398 1.421-.568 1.876-.113.455-.227.625-.227.625s.057-.227.114-.682c.113-.455.283-1.08.454-1.876.397-1.648 1.022-4.036 1.759-6.992a321.659 321.659 0 0 0 4.655-23.307 367.24 367.24 0 0 0 2.441-18.134l.114.171c-1.93-.512-3.747-.967-5.336-1.365l.056-.284c1.533.114 2.896.114 4.088-.114 1.192-.227 2.1-.682 2.724-1.25.625-.512.965-1.08 1.192-1.535.228-.512.284-.739.284-.739z" fill="#263238"/><path d="M126.928 232.443c-.624-.966-1.986-2.387-2.952-3.013-.965-.625-2.27-.739-3.122 0-.681.569-.851 1.592-.738 2.502.171.909.625 1.705 1.022 2.501 5.052 9.323 8.458 19.555 9.934 30.072.625 4.49.908 9.038 1.873 13.529.966 4.434 1.987 7.845 5.053 11.142l1.249-.512c.056-.227-.398-2.672-.625-3.581-4.087-17.281-7.72-34.506-11.694-52.64zm-.794 58.382c-.568-4.15-3.179-7.788-6.528-10.29-3.35-2.501-7.266-4.036-11.297-5.229-2.157-.626-4.371-1.194-6.641-1.08-2.271.113-6.472 1.08-7.777 2.899 14.872-3.525 25.658 3.41 31.618 14.041m121.48-53.719c-1.135 12.222-4.427 24.217-5.903 36.439-1.476 12.222-.908 25.183 5.109 35.927 2.043 3.581 4.882 7.049 8.798 8.242-4.711-5.684-7.039-13.017-7.89-20.351-.852-7.333-.341-14.723 0-22.113.568-12.733.568-25.467.057-38.2" fill="#000"/><path d="M128.744 241.027s-.341.171-.965.398c-.625.228-1.59.569-2.782.853-1.192.341-2.611.625-4.2.853-1.59.227-3.406.341-5.28.284a37.847 37.847 0 0 1-5.279-.512 42.772 42.772 0 0 1-4.201-.966c-1.192-.341-2.1-.682-2.724-.967-.625-.284-.965-.454-.965-.454s.397.056 1.021.284c.625.227 1.59.511 2.782.853 1.192.341 2.611.625 4.201.909 1.589.227 3.349.398 5.222.455 1.873 0 3.633-.057 5.223-.284 1.589-.228 3.008-.455 4.2-.739 1.192-.285 2.157-.512 2.782-.739.567-.171.965-.228.965-.228zm40.533-8.527s-1.022.91-3.179 2.16c-2.157 1.194-5.563 2.558-9.991 2.899-2.214.171-4.655 0-7.209-.625-2.555-.625-5.166-1.705-7.607-3.411a24.372 24.372 0 0 1-6.528-6.48 22.091 22.091 0 0 1-2.328-4.264c-.624-1.534-1.192-3.126-1.362-4.832-.227-1.705-.17-3.41.397-5.002.568-1.592 1.647-3.013 3.179-3.695 1.476-.682 3.179-.739 4.712-.284a6.89 6.89 0 0 1 3.746 2.501c.909 1.194 1.42 2.615 1.59 3.979a10.55 10.55 0 0 1-.284 4.036c-.738 2.558-2.327 4.548-4.03 5.969-1.703 1.421-3.52 2.331-5.166 3.013-1.646.625-3.122 1.023-4.314 1.251-1.192.284-2.157.398-2.782.511-.284.057-.567.057-.738.114h-.227s.057 0 .227-.057c.171-.057.398-.057.738-.17.625-.114 1.59-.285 2.782-.569s2.668-.682 4.257-1.307c1.59-.626 3.406-1.592 5.052-3.013 1.647-1.421 3.236-3.354 3.917-5.855.341-1.251.454-2.558.284-3.923a7.96 7.96 0 0 0-1.533-3.808c-.851-1.137-2.157-1.99-3.576-2.388-1.419-.398-3.008-.398-4.428.284-1.419.626-2.441 1.933-2.951 3.468-.511 1.535-.568 3.183-.398 4.832.171 1.648.738 3.24 1.363 4.718.624 1.478 1.419 2.899 2.27 4.207 1.817 2.558 4.031 4.775 6.415 6.366a22.791 22.791 0 0 0 7.436 3.354c2.498.626 4.939.796 7.096.626 4.371-.285 7.777-1.592 9.934-2.729.568-.284 1.022-.568 1.419-.796.397-.227.738-.455 1.022-.625.227-.171.454-.284.624-.398.114-.057.171-.057.171-.057zm5.902-31.434c0 .057-1.022.171-2.612.455-1.589.284-3.803.909-6.074 1.876-2.27 1.023-4.2 2.217-5.506 3.24-1.306.966-2.044 1.705-2.1 1.649 0 0 .17-.228.454-.569.34-.341.795-.796 1.476-1.307 1.249-1.08 3.179-2.331 5.506-3.354 2.327-1.024 4.598-1.592 6.188-1.819.794-.114 1.475-.171 1.93-.171.454-.057.738-.057.738 0zm13.056 61.961s-.113-.057-.284-.114c-.17-.114-.454-.227-.794-.341a22.339 22.339 0 0 0-3.122-1.023c-2.782-.739-7.096-1.08-12.035.455-1.249.397-2.498.909-3.746 1.478a23.506 23.506 0 0 0-3.69 2.33 27.676 27.676 0 0 0-6.471 7.049c-1.874 2.842-3.293 6.14-4.201 9.721-.397 1.762-.568 3.695.057 5.457.624 1.762 2.157 3.127 4.03 3.638a9.935 9.935 0 0 0 5.62-.113 10.988 10.988 0 0 0 4.655-2.9c1.248-1.307 2.1-2.956 2.27-4.718a6.432 6.432 0 0 0-.17-2.558 8.56 8.56 0 0 0-1.022-2.331c-.908-1.421-2.157-2.558-3.463-3.467-1.305-.91-2.724-1.592-4.2-1.99-1.419-.511-2.839-.739-4.258-.966-1.419-.114-2.724-.228-4.03-.114-5.166.227-9.083 2.047-11.524 3.525-1.248.739-2.1 1.421-2.668 1.932-.283.228-.51.398-.681.569-.17.113-.227.17-.227.17l.227-.227c.171-.171.341-.341.625-.569.567-.511 1.419-1.193 2.668-1.989a24.099 24.099 0 0 1 11.58-3.695c1.306-.114 2.668 0 4.087.114 1.419.17 2.838.454 4.314.966a16.319 16.319 0 0 1 4.258 2.046 12.64 12.64 0 0 1 3.576 3.582c.454.739.851 1.535 1.079 2.444.227.853.283 1.762.17 2.729-.17 1.819-1.135 3.581-2.384 4.945-1.306 1.365-2.952 2.445-4.825 3.013-1.874.569-3.917.682-5.847.114-1.93-.512-3.69-1.99-4.315-3.866-.624-1.876-.454-3.865-.056-5.684.851-3.638 2.384-6.992 4.257-9.835 1.873-2.899 4.144-5.286 6.585-7.105 1.249-.91 2.498-1.706 3.747-2.331a20.977 20.977 0 0 1 3.803-1.478c4.995-1.478 9.366-1.08 12.148-.284 1.419.398 2.441.795 3.122 1.137l.795.397c.283-.17.34-.113.34-.113zm-72.489 3.182c0 .057-.908.171-2.271.682a15.41 15.41 0 0 0-2.327 1.024c-.852.454-1.703 1.08-2.498 1.819a19.071 19.071 0 0 0-2.1 2.274c-.568.795-1.022 1.534-1.306 2.16-.624 1.307-.851 2.16-.908 2.16 0 0 0-.227.113-.625.057-.398.284-.967.568-1.649s.738-1.478 1.249-2.274c.568-.796 1.249-1.648 2.1-2.387a14.462 14.462 0 0 1 2.612-1.819c.851-.455 1.703-.796 2.384-.967.681-.227 1.305-.341 1.703-.341.454-.114.681-.114.681-.057zm26.793 40.761l-.17-.171c-.113-.17-.341-.341-.568-.568-.454-.512-1.192-1.251-2.1-2.217-1.873-1.876-4.655-4.548-8.742-6.992-2.043-1.194-4.428-2.274-7.096-2.899-2.668-.626-5.733-.796-8.742-.171-3.008.625-6.13 2.046-8.344 4.605-1.079 1.25-1.93 2.842-2.1 4.547-.171 1.706.227 3.525 1.362 4.832 1.135 1.308 3.009 1.933 4.655 1.535.794-.171 1.532-.682 2.043-1.307.511-.626.852-1.422 1.022-2.217.341-1.649 0-3.298-.795-4.719a9.177 9.177 0 0 0-3.235-3.354c-2.612-1.705-5.734-1.989-8.458-1.819-2.782.228-5.28.91-7.55 1.649a39.533 39.533 0 0 0-9.991 4.945c-1.079.739-1.93 1.365-2.441 1.82-.284.227-.454.397-.624.511-.114.114-.228.171-.228.171s1.022-1.024 3.236-2.615a39.004 39.004 0 0 1 9.991-5.116c2.27-.739 4.768-1.478 7.607-1.706 2.781-.227 5.96.057 8.685 1.819a10.48 10.48 0 0 1 3.406 3.468c.851 1.478 1.249 3.24.851 5.002a5.464 5.464 0 0 1-1.135 2.388c-.568.682-1.363 1.251-2.271 1.478-1.816.455-3.803-.227-5.052-1.649-1.249-1.421-1.703-3.41-1.476-5.173.227-1.819 1.079-3.467 2.214-4.775 2.327-2.615 5.506-4.093 8.572-4.718 3.122-.625 6.187-.398 8.912.227a27.785 27.785 0 0 1 7.209 2.956c4.087 2.445 6.869 5.23 8.685 7.106.909.967 1.59 1.706 2.044 2.274.227.227.397.455.511.625a.636.636 0 0 0 .113.228zm104.109-22.453l-.511.341c-.171.114-.398.284-.681.398-.284.114-.568.284-.965.455-.341.17-.795.341-1.249.511-.454.171-.965.285-1.476.455-1.079.227-2.384.455-3.804.455-2.838 0-6.301-.739-9.366-2.956-1.476-1.137-3.065-2.501-3.803-4.491-.341-.966-.398-2.103 0-3.183a3.492 3.492 0 0 1 2.384-2.161c2.214-.625 4.484.171 6.017 1.535.795.682 1.476 1.478 1.873 2.388.398.909.511 1.933.341 2.899-.17.966-.624 1.819-1.135 2.558-.568.739-1.192 1.308-1.874 1.819a21.154 21.154 0 0 1-3.973 2.331c-2.611 1.137-4.882 1.648-6.415 1.876-.794.113-1.419.17-1.816.17h-.625s.227-.057.625-.057c.397-.056 1.022-.113 1.816-.227 1.533-.284 3.804-.796 6.301-1.99 1.249-.625 2.611-1.364 3.917-2.33 1.249-1.023 2.555-2.388 2.838-4.15.341-1.762-.567-3.695-2.1-4.946-1.476-1.25-3.633-1.989-5.677-1.421-.965.284-1.816.967-2.157 1.933-.34.91-.283 1.99 0 2.899.682 1.876 2.214 3.24 3.633 4.32 3.009 2.161 6.415 2.9 9.14 2.956 1.419 0 2.668-.17 3.746-.397.511-.114 1.022-.285 1.476-.398.454-.171.852-.285 1.192-.455.341-.171.681-.284.965-.455.284-.114.511-.284.681-.341.511-.284.682-.341.682-.341zm-22.934-54.745c0 .113-1.93.341-4.087 1.421-2.157 1.023-3.576 2.387-3.69 2.274-.056-.057 1.249-1.592 3.52-2.672 2.214-1.08 4.257-1.137 4.257-1.023zm-39.963.17c.057 0-.114.739-.625 1.819a14.81 14.81 0 0 1-2.668 3.866c-1.305 1.307-2.668 2.274-3.746 2.785-1.079.512-1.817.739-1.817.683-.056-.114 2.782-1.137 5.28-3.752 2.554-2.615 3.462-5.458 3.576-5.401zm51.827-37.518c0 .057-.568.114-1.589.341-1.022.228-2.441.682-4.088 1.478-.851.398-1.702.91-2.611 1.478-.908.625-1.759 1.364-2.497 2.331-.682.966-1.136 2.217-1.022 3.524.057.626.227 1.308.567 1.819a3.308 3.308 0 0 0 1.476 1.308c.625.284 1.306.398 1.93.284a2.61 2.61 0 0 0 1.59-.966c.738-1.024.624-2.445.113-3.468-.567-1.023-1.589-1.649-2.611-1.876a6.452 6.452 0 0 0-2.952.057c-1.759.455-3.008 1.421-3.803 2.046-.795.626-1.249 1.024-1.306.967l.284-.284c.171-.171.511-.455.908-.796.795-.626 1.987-1.649 3.861-2.16.908-.228 1.986-.342 3.065-.114 1.078.227 2.271.909 2.895 2.046.568 1.137.738 2.672-.114 3.866a2.81 2.81 0 0 1-1.816 1.137c-.738.113-1.476 0-2.157-.341s-1.249-.796-1.646-1.478c-.398-.626-.568-1.365-.625-2.047a6.008 6.008 0 0 1 1.136-3.752 8.604 8.604 0 0 1 2.611-2.387c.908-.625 1.816-1.08 2.668-1.478a20.113 20.113 0 0 1 4.2-1.421c.511-.114.909-.171 1.192-.171.228 0 .341 0 .341.057zm10.389 48.717s-.114.171-.397.512c-.114.17-.341.341-.568.568-.284.171-.568.455-.908.625-1.419.853-4.031 1.535-6.926.512-1.419-.455-2.895-1.421-4.03-2.785-1.192-1.365-2.044-3.07-2.611-5.003a17.212 17.212 0 0 1-.625-6.196c.171-2.16.795-4.434 2.271-6.253s3.86-2.843 6.074-2.558c1.078.17 2.157.625 2.895 1.421.738.739 1.249 1.819 1.249 2.842 0 1.08-.511 1.99-1.192 2.729a6.922 6.922 0 0 1-2.328 1.535c-1.703.625-3.406.568-4.882.341-1.476-.285-2.724-.796-3.803-1.365-1.078-.568-1.93-1.137-2.611-1.591a18.233 18.233 0 0 1-1.533-1.137c-.34-.284-.511-.398-.511-.455 0 0 .227.114.568.341.397.284.908.625 1.589 1.08.682.455 1.533 1.023 2.612 1.535a15.164 15.164 0 0 0 3.746 1.307c1.419.228 3.122.285 4.712-.341.794-.284 1.589-.795 2.157-1.421.624-.625 1.078-1.535 1.022-2.444 0-.91-.455-1.876-1.136-2.558-.681-.682-1.646-1.137-2.668-1.308-2.043-.227-4.314.682-5.676 2.388-1.419 1.705-2.044 3.922-2.157 6.026a17.889 17.889 0 0 0 .567 6.082c.511 1.876 1.419 3.525 2.498 4.889 1.135 1.307 2.498 2.274 3.86 2.728 2.782.967 5.336.398 6.755-.397 1.476-.796 1.93-1.706 1.987-1.649zm22.309-5.684c0 .057-1.363-.398-3.633-.568-2.214-.171-5.45.114-8.515 1.592-3.122 1.478-5.279 3.808-6.528 5.684-1.249 1.876-1.703 3.24-1.817 3.184 0 0 .057-.341.284-.967.227-.568.624-1.421 1.249-2.387 1.192-1.933 3.463-4.377 6.641-5.912 3.179-1.535 6.472-1.763 8.742-1.535 1.136.114 2.044.341 2.668.511.568.228.909.342.909.398z" fill="#fff"/><path d="M218.548 190.492c8.969 4.377 19.812 4.605 27.872 10.574 4.599 3.41 7.891 8.583 9.026 14.154 1.136 5.628.114 11.654-2.781 16.543-.568-5.06-1.59-10.801-5.847-13.53-1.873-1.194-4.087-1.592-6.188-2.331-2.327-.852-4.484-2.16-6.868-2.956-3.236-1.023-6.699-.966-9.878-2.046-3.178-1.08-6.301-3.809-6.073-7.163l.737-13.245z" fill="#000"/><path d="M252.496 230.454l-1.249-15.974s-8.685-1.706-11.751-3.638c-3.065-1.933-8.685-6.026-8.685-6.026s-1.362 4.889-4.144 5.173l-2.498.284-.113-9.891s-.454 4.434-4.087 5.116c-.852.171-.852 0-.852 0l-2.441-12.904s-2.895 3.752-8.231 1.251c0 0 8.629-15.008 10.275-15.576 1.703-.569 10.729-.739 10.729-.739s12.602-.796 13.964-.228c1.419.512 3.349 2.786 3.349 2.786s14.816 14.268 19.584 19.043c4.769 4.775 6.983 11.767 7.267 14.269.283 2.501 2.384 13.018 2.384 13.018" fill="#B47266"/><path d="M275.939 226.304s0-.114-.056-.284a6.05 6.05 0 0 1-.171-.796c-.17-.682-.34-1.706-.624-3.013s-.568-2.956-.965-4.889c-.17-.966-.341-1.989-.568-3.069-.113-.569-.17-1.137-.284-1.706-.113-.568-.283-1.137-.454-1.762-.738-2.388-1.816-4.946-3.406-7.447-.794-1.251-1.703-2.501-2.838-3.695-1.079-1.137-2.327-2.274-3.576-3.524a7253.837 7253.837 0 0 1-16.519-16.031 21.134 21.134 0 0 0-1.59-1.592c-.567-.454-1.192-1.023-1.873-1.193-.681-.114-1.533-.114-2.27-.114h-2.385c-3.179.057-6.414.284-9.763.455-1.647.056-3.35.113-4.996.227l-2.554.171c-.852.113-1.703.17-2.498.397-.284.171-.568.512-.851.796-.284.341-.511.682-.795 1.024a28.812 28.812 0 0 0-1.476 2.16c-.965 1.478-1.873 2.956-2.838 4.434a445.932 445.932 0 0 0-4.201 7.049l-.114-.285c1.363.626 2.839.967 4.258.796a5.811 5.811 0 0 0 3.69-1.989l.283-.341.057.397c.852 4.434 1.646 8.755 2.441 12.905v.056l-.057-.113h.341c.17 0 .341-.057.454-.114l.454-.114.454-.17a4.87 4.87 0 0 0 1.476-1.137c.795-.967 1.249-2.217 1.419-3.468h.398c0 3.411.057 6.708.057 9.891l-.227-.17c.851-.114 1.646-.171 2.44-.284.795-.057 1.42-.512 1.987-1.08 1.022-1.137 1.703-2.558 2.101-3.98l.056-.227.171.114c1.873 1.307 3.633 2.501 5.336 3.695.851.568 1.703 1.193 2.497 1.762a9.455 9.455 0 0 0 2.555 1.421c1.76.739 3.519 1.251 5.166 1.649 1.646.454 3.292.795 4.768 1.137h.113v.113c.398 5.06.682 9.039.909 11.824.113 1.365.17 2.388.227 3.127 0 .341.056.625.056.796v.284s0-.114-.056-.284c0-.171-.057-.455-.057-.796-.057-.739-.17-1.762-.284-3.127-.227-2.728-.568-6.764-.965-11.824l.114.114c-1.533-.284-3.123-.682-4.769-1.08-1.703-.455-3.462-.91-5.222-1.649-.908-.341-1.76-.852-2.611-1.421-.852-.568-1.647-1.137-2.555-1.762a286.942 286.942 0 0 0-5.393-3.695l.284-.114c-.454 1.478-1.078 2.899-2.214 4.15-.567.568-1.305 1.08-2.157 1.194-.794.113-1.646.17-2.441.284h-.17v-.227c-.057-3.184-.057-6.481-.114-9.892h.398c-.17 1.308-.681 2.615-1.533 3.639-.454.511-.965.966-1.589 1.25-.171.057-.341.114-.454.228l-.511.113c-.171.057-.341.057-.511.114h-.454c-.057 0-.057 0-.114-.057 0 0-.057 0-.057-.057s-.056 0-.113-.17c-.795-4.15-1.59-8.47-2.441-12.904l.34.113c-1.021 1.194-2.44 1.933-3.973 2.16-1.533.171-3.122-.17-4.485-.795l-.227-.114.114-.171c1.362-2.33 2.725-4.718 4.201-7.049.908-1.534 1.873-3.012 2.838-4.49.511-.739.965-1.478 1.476-2.161.284-.341.511-.682.794-1.023.284-.341.568-.682 1.022-.909.908-.285 1.76-.285 2.611-.398l2.555-.171c1.703-.113 3.349-.17 5.052-.227 3.293-.171 6.585-.341 9.764-.398.795 0 1.589-.057 2.384 0 .795 0 1.533 0 2.384.17.852.228 1.419.739 1.987 1.251.568.512 1.135 1.023 1.646 1.649 6.017 5.855 11.524 11.255 16.462 16.087 1.249 1.194 2.441 2.331 3.577 3.525 1.078 1.193 2.043 2.444 2.838 3.751a31.525 31.525 0 0 1 3.406 7.561c.17.625.34 1.194.454 1.762.113.569.17 1.137.227 1.706.17 1.08.341 2.16.511 3.069.34 1.933.681 3.525.908 4.889.227 1.307.454 2.331.568 3.013.057.341.113.568.113.796.227.227.227.284.227.284z" fill="#89544C"/><path d="M231.49 178.215c0 .057-1.306.284-3.349 1.023-2.044.682-4.826 1.933-7.721 3.525-.738.397-1.362.852-1.873 1.421-.511.511-.851 1.193-1.192 1.819a9.035 9.035 0 0 0-.738 3.638c0 1.08.057 1.99.114 2.558 0 .625 0 .966-.057.966s-.057-.341-.114-.966c-.056-.625-.17-1.478-.227-2.558-.057-1.08.057-2.444.681-3.809a6.854 6.854 0 0 1 1.249-1.989 8.609 8.609 0 0 1 1.987-1.478c2.895-1.592 5.733-2.786 7.834-3.411 1.022-.341 1.93-.512 2.497-.625.568-.057.909-.114.909-.114zm9.481 2.839s-.454.17-1.249.397c-.795.228-1.93.569-3.293 1.081a26.292 26.292 0 0 0-4.598 2.273c-.851.512-1.703 1.024-2.668 1.478-.908.512-1.986.91-2.895 1.478a4.325 4.325 0 0 0-1.192 1.08c-.284.398-.511.91-.624 1.422-.284 1.023-.397 1.989-.511 2.956-.17 1.932-.114 3.695 0 5.173.057 1.478.114 2.671.17 3.467v1.308c-.056 0-.056-.455-.113-1.251-.057-.909-.171-2.046-.284-3.467-.114-1.478-.227-3.241-.057-5.174.057-.966.227-1.989.511-3.069.17-.512.341-1.08.681-1.535a4.199 4.199 0 0 1 1.306-1.137c.965-.625 1.987-1.023 2.952-1.535.908-.511 1.816-.966 2.668-1.478 1.703-.966 3.292-1.705 4.711-2.217 1.419-.511 2.555-.739 3.349-.966.682-.228 1.136-.341 1.136-.284zm4.597 4.208c0 .056-.34.17-1.021.398a35.84 35.84 0 0 0-2.782 1.08c-2.271.966-5.449 2.501-8.117 5.286a12.106 12.106 0 0 0-2.725 4.491c-.511 1.535-.738 3.013-.738 4.264 0 2.501.681 3.979.567 3.979 0 0-.056-.057-.113-.284-.057-.171-.17-.455-.284-.796-.227-.682-.397-1.706-.454-2.956-.057-1.251.113-2.786.681-4.434.511-1.592 1.476-3.24 2.782-4.662 2.724-2.842 5.96-4.377 8.288-5.286 1.192-.455 2.157-.739 2.838-.967.681-.057 1.078-.17 1.078-.113z" fill="#89544C"/><path d="M250.338 195.268l-.17.171c-.114.114-.341.17-.681.227-.625.114-1.533 0-2.555-.398-.511-.17-1.078-.398-1.703-.511-.624-.114-1.249 0-1.93.227-1.305.512-2.611 1.478-3.973 2.388-1.363.966-2.498 2.046-3.293 3.24-.738 1.194-1.249 2.444-2.1 3.24-.397.398-.795.739-1.192.91a2.241 2.241 0 0 1-1.135.284c-.341 0-.568-.057-.682-.114a.636.636 0 0 1-.227-.113c0-.057.341.056.909.056.283 0 .624-.113 1.021-.284.341-.227.738-.511 1.079-.909.738-.739 1.249-1.99 1.987-3.241.794-1.25 1.986-2.387 3.349-3.354.681-.511 1.362-.909 2.043-1.364a11.84 11.84 0 0 1 2.044-1.08c.681-.227 1.419-.341 2.1-.227.682.113 1.192.341 1.703.568 1.022.398 1.874.569 2.441.512.681-.057.965-.284.965-.228zm5.507 18.703s-.227-.114-.625-.398c-.397-.284-.851-.682-1.476-1.251-1.192-1.08-2.668-2.842-3.86-5.002-1.192-2.16-1.873-4.377-2.157-5.969-.17-.796-.227-1.421-.227-1.876v-.682c.057 0 .17.966.511 2.558.34 1.535 1.022 3.695 2.214 5.798 1.192 2.161 2.611 3.866 3.69 5.003 1.192 1.137 1.986 1.762 1.93 1.819zm12.488-2.447c.056 0-.341.625-1.136 1.364a9.678 9.678 0 0 1-3.746 2.103c-1.646.512-3.236.455-4.314.285-1.079-.171-1.703-.512-1.703-.569 0-.057.681.114 1.759.284 1.079.114 2.555.057 4.144-.397 1.59-.455 2.839-1.251 3.69-1.933.795-.682 1.249-1.194 1.306-1.137z" fill="#89544C"/><path d="M284.34 315.781c-7.947 6.367-19.527 5.344-26.169-2.387-3.633-4.264-6.528-9.551-6.131-15.178 1.136-14.098.455-70.092.455-70.092l22.422-5.741s17.257 67.59 18.108 79.414c.398 5.173-3.803 10.119-8.685 13.984zm-180.458-23.704h25.715l14.248-5.002 4.144-11.029s8.345-6.366 17.03 1.649 14.021 24.103 14.021 24.103l-23.047 8.015s-14.361 10.744-16.064 10.801c-1.703 0-45.98.625-45.98.625s-.455-20.465 9.933-29.162z" fill="#B47266"/><path d="M162.691 286.901l-3.009-48.66c-.113-1.819 1.306-3.354 3.122-3.354h26.51c1.703 0 3.065 1.364 3.179 3.013l1.93 48.66a3.168 3.168 0 0 1-3.179 3.297H165.87a3.172 3.172 0 0 1-3.179-2.956z" fill="#263238"/><path d="M191.357 265.016s-.057-.227-.057-.568c0-.455-.056-.967-.056-1.706a433.973 433.973 0 0 1-.171-6.253c-.056-2.671-.17-5.798-.227-9.209-.056-1.762-.056-3.581-.113-5.457 0-.966 0-1.933-.341-2.785-.17-.455-.397-.796-.794-1.08-.341-.285-.795-.398-1.306-.455-.965-.114-1.987 0-2.952 0-.965 0-1.93.057-2.895.057-1.873.056-3.69.056-5.45.113-3.462.057-6.584.114-9.252.171-1.306 0-2.498.057-3.52.057-1.022 0-1.93-.057-2.611.17-.681.171-1.079.682-1.192 1.023-.114.342-.057.569-.114.569 0 0-.113-.227 0-.569.114-.397.511-.909 1.249-1.136.738-.228 1.646-.171 2.668-.228 1.079-.057 2.214-.057 3.52-.114 2.668-.056 5.733-.17 9.196-.227 1.759-.057 3.576-.114 5.449-.114.965 0 1.93-.057 2.895-.057.965 0 1.93-.113 3.009 0a2.974 2.974 0 0 1 1.476.569c.454.341.738.796.908 1.251.341.966.284 1.989.341 2.899.056 1.876.056 3.695.113 5.457.057 3.468.114 6.594.17 9.266 0 2.615.057 4.718.057 6.253v2.103z" fill="#455A64"/><path d="M176.599 246.145c-.284-.568-1.022-1.137-1.76-.966-.795-.284-1.76.398-1.873 1.25-.114.853.567 1.706 1.419 1.933.624.171 1.362 0 1.816-.398.511-.455.681-1.25.398-1.819z" fill="#E0E0E0"/><path d="M147.477 277.352v-4.946s4.881-11.483 4.711-11.028c-.113.398 8.629-5.628 8.629-5.628s.51 4.207-.284 7.561c-.681 2.728-2.895 5.002-2.895 5.002l-.682 5.344 11.013-8.982 13.113-6.935s2.384-.341 4.03 1.876c1.647 2.217-.681 4.49-1.816 5.173-1.135.682-11.183 7.958-11.183 7.958l-5.563 6.424 1.192 1.364 9.82-6.253s12.432-9.096 15.214-9.664c.057 0 .113 0 .17-.057 2.327-.398 3.917 2.274 2.441 4.15-3.406 4.434-9.31 11.995-9.593 11.767-.398-.341-13.17 8.413-13.17 8.413s12.772-4.206 13.851-5.173c1.135-.966 12.545-13.131 12.545-13.131s1.533.284 1.817 3.752l-.682 3.467s.284.853.682 2.672c.397 1.819-6.018 14.269-6.018 14.269s-25.09 13.813-27.474 13.984c-2.385.113-11.183 0-11.183 0l-8.685-31.379z" fill="#B47266"/><path d="M199.93 277.582s-.114.398-.454 1.08c-.341.682-.965 1.592-1.76 2.672s-1.76 2.331-2.782 3.809c-1.021 1.421-2.27 2.956-3.746 4.377-3.009 2.842-6.301 4.661-8.629 5.912-1.192.625-2.157 1.08-2.838 1.421-.681.341-1.078.512-1.078.455 0 0 .34-.228 1.021-.626.738-.398 1.647-.909 2.782-1.534 2.327-1.308 5.563-3.184 8.515-5.969 1.476-1.365 2.668-2.899 3.746-4.321 1.022-1.421 2.044-2.671 2.839-3.751.794-1.081 1.419-1.933 1.816-2.559.341-.625.568-.966.568-.966z" fill="#89544C"/><path d="M109.047 289.234c.057.114-1.987.739-4.598 2.843-2.611 2.103-5.563 5.912-7.323 10.744-1.76 4.832-2.27 9.55-2.611 12.904-.17 1.648-.284 3.013-.397 3.979-.057.455-.057.796-.114 1.08-.057.227-.057.398-.057.398v-.398c0-.284 0-.682.057-1.08.057-.966.114-2.331.227-4.036.284-3.354.738-8.129 2.555-13.018 1.76-4.889 4.825-8.754 7.493-10.858 1.362-1.08 2.554-1.762 3.406-2.103a4.067 4.067 0 0 1 1.021-.398.825.825 0 0 0 .341-.057z" fill="#263238"/><path d="M369.773 321.352c0 .114-82.765.228-184.887.228C82.765 321.58 0 321.466 0 321.352c0-.113 82.765-.227 184.886-.227 102.122 0 184.887.114 184.887.227z" fill="#263238"/><path d="M280.707 322.602l-107.799.739 69.141 14.95 25.147-6.31 13.511-9.379z" fill="#E0E0E0"/><path d="M172.908 327.663l69.141 17.168 106.266-8.186 21.003-84.587c1.533-5.116-1.021-7.902-4.314-7.902l-99.17 4.946c-3.122.17-5.79 2.444-6.414 5.514l-17.428 83.621-69.14-14.894v4.32h.056z" fill="#EBEBEB"/><path d="M172.908 327.664v-4.377h.057c9.026 1.932 33.662 7.219 69.141 14.836l-.17.114c2.497-12.051 5.279-25.353 8.287-39.792 1.476-7.22 3.066-14.667 4.655-22.398.795-3.865 1.646-7.788 2.441-11.767.397-1.989.852-3.979 1.249-6.025.227-1.024.397-2.047.624-3.013.171-1.024.511-2.104 1.079-2.956 1.135-1.819 3.179-3.07 5.336-3.297 2.1-.114 4.257-.228 6.358-.342a919.28 919.28 0 0 1 12.999-.625c8.742-.455 17.711-.909 26.85-1.364 9.14-.455 18.449-.91 27.872-1.364 4.712-.228 9.48-.455 14.249-.683 2.384-.113 4.825-.227 7.209-.341 1.192-.056 2.441-.113 3.633-.17 1.249-.057 2.554.284 3.519 1.137.852.739 1.363 1.762 1.533 2.785.227 1.08.114 2.16-.057 3.184a231.688 231.688 0 0 0-1.476 6.025c-.965 3.98-1.986 7.959-2.951 11.881a4695.235 4695.235 0 0 0-5.791 23.307c-3.803 15.292-7.493 30.129-11.012 44.34l-.057.114h-.113a82042.61 82042.61 0 0 1-106.266 8.129c-21.628-5.4-38.885-9.721-50.806-12.734-5.903-1.478-10.501-2.615-13.623-3.41-1.533-.398-2.725-.683-3.52-.91-.851-.171-1.249-.284-1.249-.284s.398.113 1.192.284c.795.171 1.987.512 3.52.853 3.122.739 7.72 1.876 13.68 3.354 11.864 2.956 29.178 7.219 50.749 12.563h-.057c28.61-2.217 64.94-5.06 106.266-8.243l-.17.17c3.519-14.211 7.209-29.048 11.012-44.34a4662.98 4662.98 0 0 0 5.79-23.307c.965-3.922 1.987-7.901 2.952-11.88.511-1.99.965-3.98 1.476-5.969.227-.967.284-2.047.057-3.013a4.614 4.614 0 0 0-1.419-2.558c-1.817-1.649-4.485-.853-6.869-.853-2.384.114-4.825.228-7.209.341-4.769.228-9.537.455-14.248.682-9.424.455-18.733.91-27.872 1.365-9.14.454-18.109.909-26.851 1.307-4.371.228-8.685.455-12.999.625-2.157.114-4.258.171-6.358.342-2.043.17-3.974 1.364-5.052 3.126-.568.853-.852 1.819-1.022 2.842-.227 1.024-.397 2.047-.624 3.013-.398 2.047-.852 4.036-1.249 6.026-.852 3.979-1.646 7.902-2.441 11.767-1.589 7.731-3.179 15.178-4.655 22.398-3.008 14.382-5.79 27.74-8.344 39.792l-.057.114-.114-.057c-35.422-7.731-60.058-13.075-69.084-15.008l.057-.057v3.241c-.057.739-.057 1.08-.057 1.08z" fill="#263238"/><path d="M309.488 286.676c-2.044.342-3.974 1.763-4.655 3.752-.681 1.99.113 4.491 1.987 5.401 2.213 1.137 5.052-.171 6.357-2.331.852-1.364.965-3.013.511-4.548-.454-1.535-3.235-2.615-4.2-2.274z" fill="#fff"/><path d="M309.488 286.675s.397-.227 1.192-.057c.397.057.851.227 1.305.455.455.227 1.022.568 1.476 1.137.227.284.398.625.454 1.023.114.341.171.739.171 1.137a5.875 5.875 0 0 1-.398 2.558c-.738 1.705-2.441 3.183-4.598 3.468-1.078.113-2.157-.171-2.951-.796-.795-.626-1.306-1.535-1.533-2.388-.227-.909-.227-1.819 0-2.615a5.146 5.146 0 0 1 1.078-1.989 6.299 6.299 0 0 1 2.668-1.763c.341-.113.625-.17.852-.227.17.057.284.057.284.057 0 .057-.398.114-1.079.398a6.38 6.38 0 0 0-2.498 1.819c-.397.512-.794 1.137-.965 1.876-.17.739-.17 1.592.057 2.387.227.796.681 1.649 1.419 2.161.738.568 1.703.795 2.668.682 1.987-.228 3.577-1.649 4.258-3.184.34-.796.454-1.591.397-2.387-.057-.739-.17-1.535-.511-1.99-.397-.511-.908-.853-1.362-1.137a9.625 9.625 0 0 0-1.249-.511c-.738-.171-1.135-.057-1.135-.114z" fill="#263238"/><path d="M99.624 133.758h-54.61a4.97 4.97 0 0 0-4.995 5.002v54.686a4.97 4.97 0 0 0 4.996 5.003H82.82l15.213 12.563v-12.563h1.646a4.97 4.97 0 0 0 4.996-5.003V138.76c-.057-2.785-2.271-5.002-5.052-5.002z" fill="#fff"/><path d="M104.449 154.168h-64.26c-.113 0-.17-.057-.17-.171v-14.666c0-3.07 2.498-5.628 5.62-5.628h54.268c2.612 0 4.769 2.16 4.769 4.775v15.462c-.057.171-.114.228-.227.228z" fill="#FFC01E"/><path d="M67.892 163.832v22h-5.109v-17.907h-4.37v-4.093h9.479zm21.004 0v3.297l-8.174 18.703h-5.506l7.89-17.85H75.84v3.581H71.3v-7.731h17.597zM71.41 145.525c5.487 0 9.935-.102 9.935-.227 0-.126-4.448-.228-9.934-.228-5.487 0-9.934.102-9.934.228 0 .125 4.447.227 9.934.227z" fill="#263238"/><path d="M99.624 133.759h.34c.227 0 .568.057.965.171a4.98 4.98 0 0 1 3.066 2.331c.454.739.738 1.705.681 2.728v11.881c0 6.31 0 13.984.057 22.739v19.555c0 .625-.057 1.307-.284 1.933-.397 1.25-1.363 2.387-2.555 2.956-.624.284-1.248.511-1.986.568-.682.057-1.363 0-1.987 0l.17-.171v12.961l-.34-.284c-4.882-3.979-9.934-8.186-15.214-12.506l.114.057H44.788a4.345 4.345 0 0 1-1.703-.341c-1.135-.398-2.044-1.194-2.668-2.217-.284-.512-.51-1.023-.625-1.649-.113-.568-.113-1.137-.113-1.705v-52.299c0-.909-.057-1.819.113-2.785.17-.91.625-1.762 1.25-2.445a5.444 5.444 0 0 1 2.27-1.478c.852-.284 1.76-.227 2.611-.227h14.532c12.091 0 21.855.057 28.61.057 3.35 0 5.96.057 7.777.057h2.044c.51.057.738.113.738.113h-2.725c-1.817 0-4.428 0-7.777.057-6.755 0-16.519.057-28.61.057H45.98c-.851 0-1.703-.057-2.498.227-.794.285-1.532.739-2.1 1.365a4.793 4.793 0 0 0-1.135 2.274c-.17.852-.057 1.762-.114 2.671v52.299c0 .568 0 1.08.114 1.649.113.511.34 1.023.567 1.478a5.077 5.077 0 0 0 2.441 2.046c1.022.398 2.157.284 3.293.284h36.216l.057.057c5.222 4.32 10.332 8.527 15.213 12.563l-.34.171v-12.734h2.157a5.095 5.095 0 0 0 1.816-.512c1.136-.568 1.987-1.591 2.385-2.785.227-.568.283-1.194.227-1.819v-19.555c0-8.755.056-16.429.056-22.739v-8.47c-.056-2.444.341-4.661-.624-6.082a5.036 5.036 0 0 0-2.952-2.331c-.681-.227-1.135-.171-1.135-.171z" fill="#263238"/><path d="M81.97 142h-.114a2.036 2.036 0 0 1-2.043-2.046v-10.517c0-1.137.908-2.046 2.043-2.046h.114c1.135 0 2.043.909 2.043 2.046v10.517A2.036 2.036 0 0 1 81.97 142z" fill="#E0E0E0"/><path d="M81.97 142.004c0-.057.512.057 1.193-.512.34-.284.624-.682.681-1.307.057-.569 0-1.308 0-2.047 0-1.591 0-3.41-.057-5.4v-3.184c0-.511-.17-1.023-.51-1.421-.398-.398-.852-.568-1.42-.568-.51 0-1.022.227-1.362.625-.34.398-.454.91-.454 1.421v3.184c0 2.046-.057 3.865-.057 5.4v1.08c0 .341-.057.682 0 .967.114.568.454.966.795 1.25.68.569 1.192.455 1.192.512 0 0-.114.057-.34.057-.228 0-.569-.057-.966-.285a1.911 1.911 0 0 1-.908-1.307c-.057-.341-.057-.682-.057-1.023v-1.08c0-1.592 0-3.411-.057-5.401v-3.183c-.056-.569.114-1.251.568-1.706.397-.454 1.022-.795 1.703-.795a2.11 2.11 0 0 1 1.703.682c.454.455.681 1.08.624 1.705v3.184c0 2.046-.056 3.865-.056 5.4 0 .796 0 1.478-.057 2.103-.114.626-.454 1.137-.852 1.365-.34.284-.738.341-.965.398-.227-.057-.34-.114-.34-.114z" fill="#263238"/><path d="M62.216 142h-.114a2.036 2.036 0 0 1-2.043-2.046v-10.517c0-1.137.908-2.046 2.043-2.046h.114c1.135 0 2.043.909 2.043 2.046v10.517A2.036 2.036 0 0 1 62.216 142z" fill="#E0E0E0"/><path d="M62.217 142.004c0-.057.51.057 1.192-.512.34-.284.624-.682.681-1.307.057-.569 0-1.308 0-2.047 0-1.591 0-3.41-.057-5.4v-3.184c0-.511-.17-1.023-.51-1.421-.398-.398-.852-.568-1.42-.568-.51 0-1.022.227-1.362.625-.34.398-.454.91-.454 1.421v3.184c0 2.046-.057 3.865-.057 5.4v1.08c0 .341-.057.682 0 .967.114.568.454.966.795 1.25.681.569 1.249.455 1.192.512 0 0-.114.057-.34.057-.228 0-.568-.057-.966-.285a1.911 1.911 0 0 1-.908-1.307c-.057-.341-.057-.682-.057-1.023v-1.08c0-1.592 0-3.411-.057-5.401v-3.183c-.056-.569.114-1.251.568-1.706.398-.454 1.022-.795 1.703-.795a2.11 2.11 0 0 1 1.703.682c.454.455.681 1.08.624 1.705v3.184c0 2.046-.056 3.865-.056 5.4 0 .796 0 1.478-.057 2.103-.114.626-.454 1.137-.851 1.365-.341.284-.739.341-.966.398l-.34-.114z" fill="#263238"/><path d="M57.674 134.328c.51 5.173-1.079 10.517-4.371 14.553-3.292 4.036-8.174 6.651-13.34 7.219l.795-10.857 9.82-10.744 7.096-.171z" fill="#000"/><path d="M35.82 152.122c10.22 0 18.506-8.297 18.506-18.532 0-10.234-8.285-18.531-18.506-18.531-10.22 0-18.506 8.297-18.506 18.531 0 10.235 8.286 18.532 18.506 18.532z" fill="#fff"/><path d="M35.82 154.11c-10.048 0-18.847-7.39-20.323-17.679-.794-5.457.625-10.857 3.917-15.235 3.292-4.377 8.118-7.219 13.51-8.015 5.45-.796 10.843.625 15.214 3.923 4.37 3.297 7.209 8.129 8.004 13.529 1.589 11.199-6.245 21.658-17.428 23.25-.965.171-1.986.227-2.895.227zm0-37.063c-.795 0-1.59.057-2.385.17a16.499 16.499 0 0 0-10.899 6.424c-2.668 3.524-3.746 7.901-3.122 12.279 1.306 9.038 9.65 15.348 18.676 14.041 9.026-1.308 15.327-9.664 14.021-18.703a16.53 16.53 0 0 0-6.414-10.914c-2.839-2.16-6.301-3.297-9.878-3.297z" fill="#455A64"/><path d="M35.82 117.047h1.078c.681.057 1.703.114 3.009.455 1.305.341 2.838.852 4.428 1.819a17.873 17.873 0 0 1 4.768 4.206c1.476 1.876 2.611 4.264 3.122 7.049.114.682.17 1.421.227 2.104.057.341 0 .739 0 1.08 0 .341 0 .739-.057 1.08-.113 1.478-.454 3.013-.965 4.491a19.309 19.309 0 0 1-2.27 4.263c-1.022 1.308-2.157 2.501-3.577 3.525-2.781 1.989-6.244 3.24-9.877 3.24-3.633.057-7.152-1.251-9.877-3.24a17.251 17.251 0 0 1-3.52-3.525 19.305 19.305 0 0 1-2.27-4.263c-.454-1.478-.852-3.013-.909-4.491-.113-1.478 0-2.956.228-4.321a16.183 16.183 0 0 1 3.178-6.992c1.476-1.876 3.123-3.24 4.769-4.206a15.503 15.503 0 0 1 4.428-1.763c.624-.17 1.248-.227 1.702-.341.511 0 .909-.056 1.306-.056.34 0 .568 0 .795-.057.227-.057.284-.057.284-.057s-.114 0-.284.057c-.17 0-.454.057-.795.057-.34.056-.795.056-1.249.113a11.34 11.34 0 0 0-1.703.341c-1.249.341-2.781.853-4.37 1.819a16.734 16.734 0 0 0-4.655 4.207 16.585 16.585 0 0 0-3.066 6.878c-.227 1.365-.34 2.786-.227 4.207.114 1.478.454 2.899.908 4.377.568 1.421 1.25 2.843 2.214 4.15.965 1.307 2.157 2.444 3.463 3.468 2.668 1.932 6.074 3.24 9.65 3.183 3.52.057 6.982-1.194 9.65-3.127a16.697 16.697 0 0 0 3.463-3.467 16.326 16.326 0 0 0 2.214-4.15c.51-1.478.851-2.899.965-4.377.057-.341 0-.739.057-1.08 0-.341.056-.739 0-1.08-.057-.682-.114-1.421-.227-2.047-.511-2.671-1.59-5.059-3.009-6.935a16.732 16.732 0 0 0-4.655-4.207 17.126 17.126 0 0 0-4.37-1.876 16.005 16.005 0 0 0-2.953-.511H35.82z" fill="#263238"/><path d="M35.818 154.111h.34c.228 0 .568-.057.966-.057.454-.057.965-.114 1.59-.171.623-.113 1.305-.284 2.1-.455 1.532-.454 3.462-1.08 5.449-2.273a20.513 20.513 0 0 0 5.79-5.23c1.76-2.274 3.122-5.23 3.803-8.584.114-.398.17-.853.17-1.251.057-.454.114-.852.114-1.307v-1.99l-.056-.682c-.114-1.819-.511-3.638-1.136-5.457a20.49 20.49 0 0 0-7.096-9.437c-3.349-2.444-7.606-3.979-12.034-3.922a20.585 20.585 0 0 0-12.034 3.922 20.49 20.49 0 0 0-7.096 9.437c-1.306 3.581-1.533 7.39-.852 10.687.284 1.705.852 3.24 1.476 4.718.341.682.682 1.421 1.079 2.047.17.341.397.625.568.966.227.284.454.569.68.91a20.492 20.492 0 0 0 5.79 5.229 19.95 19.95 0 0 0 5.45 2.274c.795.171 1.476.341 2.1.455.625.114 1.136.171 1.59.171.398 0 .738.057.965.057.17-.057.284-.057.284-.057h-1.306c-.454 0-.965-.057-1.589-.171-.625-.057-1.362-.227-2.157-.398a21.823 21.823 0 0 1-5.506-2.217 21.616 21.616 0 0 1-5.904-5.23 12.577 12.577 0 0 1-.681-.909c-.17-.341-.398-.626-.625-.967-.454-.625-.738-1.364-1.135-2.103-.624-1.478-1.192-3.07-1.476-4.775-.681-3.411-.454-7.219.852-10.914 1.305-3.639 3.803-7.106 7.209-9.664 3.406-2.502 7.777-3.98 12.261-4.036 4.485 0 8.856 1.534 12.262 4.036 3.406 2.501 5.903 5.969 7.209 9.664.624 1.819 1.078 3.695 1.135 5.57l.057.683v2.046c-.057.455-.114.91-.17 1.308-.057.454-.114.852-.227 1.307-.681 3.411-2.1 6.367-3.917 8.697a21.599 21.599 0 0 1-5.904 5.23c-1.987 1.194-3.917 1.819-5.506 2.217-.795.171-1.533.285-2.157.398-.625.057-1.136.114-1.59.171h-.965c-.056.114-.17.057-.17.057z" fill="#263238"/><path d="M56.122 114.912l-10.878-6.81-1.685 2.699 10.878 6.81 1.685-2.699z" fill="#455A64"/><path d="M54.382 117.614s.17-.284.397-.796c.284-.512.681-1.194 1.192-1.99l.057.171c-2.44-1.478-6.414-3.922-10.899-6.708.114-.057-.284.057.284-.057v.057l-.057.114-.114.17-.226.341c-.17.228-.284.455-.455.683a25.82 25.82 0 0 1-.851 1.307l-.057-.284a763.438 763.438 0 0 1 7.663 4.889c.909.625 1.703 1.08 2.271 1.478.511.397.795.625.795.625s-.284-.114-.795-.455c-.624-.341-1.362-.796-2.27-1.364-1.93-1.194-4.712-2.843-7.834-4.832l-.17-.114.113-.17.852-1.365c.113-.227.283-.454.454-.682l.227-.341.113-.17.057-.114v-.057c.568-.114.17-.057.284-.057 4.484 2.786 8.401 5.287 10.785 6.879l.114.056-.057.114a96.733 96.733 0 0 0-1.306 1.99c-.397.454-.567.682-.567.682z" fill="#263238"/><path d="M21.417 114.59l-2.388-2.102-8.88 10.121 2.388 2.101 8.88-10.12z" fill="#455A64"/><path d="M12.545 124.722s.227-.341.68-.852a74.729 74.729 0 0 1 1.817-2.16c1.59-1.82 3.747-4.378 6.245-7.22v.284c-.795-.682-1.59-1.364-2.384-2.103.567-.057.17 0 .283 0l-.056.057-.114.113-.17.171-.34.398a8.715 8.715 0 0 1-.682.739c-.454.512-.908 1.023-1.306 1.478-.851.966-1.646 1.876-2.44 2.729-1.533 1.705-2.839 3.126-3.86 4.32v-.171c.68.626 1.248 1.194 1.702 1.592l.625.625s-.227-.17-.625-.511c-.397-.341-1.021-.853-1.816-1.535l-.114-.057.057-.114c1.022-1.193 2.27-2.671 3.746-4.377.739-.852 1.59-1.819 2.385-2.785.397-.512.851-.967 1.305-1.478.227-.228.454-.512.681-.739l.341-.398.227-.171.114-.113.056-.057h.284c.795.739 1.646 1.421 2.384 2.103l.17.114-.113.17c-2.554 2.899-4.825 5.458-6.471 7.22-.795.852-1.42 1.535-1.873 2.046-.511.455-.738.739-.738.682z" fill="#263238"/><path d="M27.758 135.182l1.533-3.013 5.676 2.558 6.074-11.028 2.838 1.592-7.89 13.984-8.231-4.093z" fill="#455A64"/><path d="M36.046 139.332l-8.288-4.093 1.59-3.013 5.62 2.558 6.073-11.085 2.838 1.649-7.833 13.984zm-8.288-4.15l8.23 4.036 7.835-13.927-2.782-1.592-6.074 11.085-5.62-2.558-1.59 2.956zm-2.952 21.315s-.34-.114-.852-.341a5.421 5.421 0 0 1-.965-.512c-.34-.227-.794-.455-1.248-.739-.909-.568-1.93-1.421-2.952-2.388-1.022-1.023-2.1-2.16-3.009-3.524a22.476 22.476 0 0 1-2.27-4.036c-.568-1.308-.965-2.558-1.192-3.581-.17-.512-.227-1.024-.284-1.422-.057-.397-.114-.795-.17-1.08-.057-.625-.057-.909-.057-.909.056 0 .227 1.307.794 3.354.284 1.023.738 2.217 1.306 3.524.568 1.251 1.362 2.615 2.27 3.979a31.172 31.172 0 0 0 2.952 3.468c1.022.966 1.987 1.819 2.839 2.388 1.646 1.137 2.838 1.705 2.838 1.819zm-9.422-4.263c-.057.057-.568-.512-1.306-1.535-.738-1.023-1.703-2.444-2.498-4.206-.851-1.706-1.362-3.354-1.703-4.605-.34-1.194-.397-1.99-.34-1.99.057 0 .284.739.624 1.933a41.884 41.884 0 0 0 1.76 4.491 32.598 32.598 0 0 0 2.384 4.207c.681 1.08 1.135 1.648 1.079 1.705z" fill="#263238"/><path d="M259.818 139.387l8.913-15.746c-3.974-6.424-6.245-13.984-6.245-22.113 0-23.307 18.847-42.18 42.121-42.18s42.12 18.873 42.12 42.18-18.846 42.18-42.12 42.18a41.914 41.914 0 0 1-25.772-8.812l-19.017 4.491z" fill="#FAFAFA"/><path d="M259.818 139.387c.738-.171 6.869-1.649 19.017-4.605l-.057.171c-.057-.057 0-.114 0-.171.057-.057.114 0 .114 0a45.62 45.62 0 0 0 8.628 5.173 42.332 42.332 0 0 0 11.467 3.241c2.1.284 4.314.454 6.641.341a75.466 75.466 0 0 0 3.463-.228c1.135-.17 2.328-.341 3.52-.568 4.711-.967 9.536-2.729 14.078-5.571 4.484-2.786 8.685-6.594 11.977-11.256 3.349-4.661 5.847-10.175 7.039-16.144a42.057 42.057 0 0 0-.511-18.589c-.227-.796-.397-1.535-.624-2.33-.284-.74-.568-1.535-.852-2.274-.511-1.535-1.305-2.956-1.986-4.434-.341-.74-.795-1.421-1.193-2.104-.454-.682-.851-1.42-1.305-2.103-.511-.682-.965-1.307-1.476-1.99l-.738-.966c-.227-.341-.568-.625-.795-.91l-1.703-1.875c-.567-.626-1.249-1.137-1.816-1.706l-.909-.853a6.47 6.47 0 0 0-.965-.795 176.987 176.987 0 0 0-1.986-1.478c-.341-.228-.625-.512-1.022-.74l-1.079-.625c-.681-.455-1.419-.852-2.1-1.307-.738-.341-1.476-.74-2.214-1.08-.738-.341-1.476-.74-2.214-1.023-6.074-2.388-12.488-3.354-18.676-2.9-6.187.455-12.091 2.217-17.143 5.06a42.327 42.327 0 0 0-12.716 10.857c-3.349 4.207-5.676 8.868-7.152 13.53-1.476 4.661-1.873 9.322-1.873 13.586.113 4.32.851 8.3 1.986 11.767a41.925 41.925 0 0 0 4.144 9.039v.113c-5.733 10.176-8.628 15.178-8.969 15.747.341-.625 3.179-5.685 8.856-15.803v.113c-1.533-2.558-3.066-5.571-4.201-9.095-1.135-3.525-1.93-7.504-2.043-11.824 0-4.32.397-8.982 1.816-13.7 1.476-4.718 3.803-9.38 7.153-13.643a43.223 43.223 0 0 1 12.829-10.972c5.109-2.899 11.069-4.66 17.313-5.116 6.245-.455 12.773.455 18.847 2.9.794.227 1.532.682 2.27 1.023.738.34 1.476.739 2.214 1.08.738.455 1.419.853 2.157 1.307l1.079.626c.34.227.681.511 1.021.739l2.044 1.534c.341.228.681.512.965.796l.965.853c.625.568 1.306 1.137 1.873 1.762l1.703 1.876c.284.341.568.625.852.966l.738 1.024c.511.682 1.022 1.307 1.476 1.99.454.681.851 1.42 1.305 2.103.398.739.909 1.364 1.192 2.16.682 1.478 1.476 2.956 1.987 4.49.284.74.568 1.536.852 2.275.227.795.397 1.591.624 2.33a42.819 42.819 0 0 1 .511 18.759c-1.192 6.026-3.747 11.597-7.096 16.259a40.96 40.96 0 0 1-12.148 11.312 41.509 41.509 0 0 1-14.191 5.571l-3.576.511c-1.192.114-2.328.114-3.52.171-2.27.114-4.541-.057-6.641-.341-4.258-.569-8.175-1.819-11.524-3.297-3.406-1.535-6.244-3.354-8.685-5.23l.17-.171c.057.057 0 .114 0 .171h-.057c-12.261 2.956-18.392 4.377-19.13 4.491z" fill="#263238"/><path d="M309.432 82.142l-1.419 22.283c-.114 1.819-1.59 3.297-3.406 3.354a3.621 3.621 0 0 1-3.803-3.183l-2.498-22.398c-.17-1.705 1.135-3.183 2.838-3.126l5.45.057c1.646 0 2.952 1.364 2.838 3.013zm-4.373 41.897a5.453 5.453 0 0 0 5.449-5.457 5.453 5.453 0 0 0-5.449-5.457 5.453 5.453 0 0 0-5.45 5.457 5.453 5.453 0 0 0 5.45 5.457z" fill="#526AC2"/></g><defs><clipPath id="a"><path fill="#fff" d="M0 0h370v345H0z"/></clipPath></defs></svg>