<svg width="339" height="407" viewBox="0 0 339 407" fill="none" xmlns="http://www.w3.org/2000/svg"><path d="M114.624 267.036v-25.095h-12.133a45.766 45.766 0 0 0-4.194-10.146l8.568-8.585-17.705-17.74-8.567 8.585a44.812 44.812 0 0 0-10.126-4.203v-12.157H45.393v12.157c-3.565.991-6.95 2.432-10.125 4.203L26.7 205.47 8.995 223.21l8.568 8.585c-1.767 3.182-3.205 6.574-4.194 10.146H1.236v25.095H13.37c.989 3.572 2.427 6.964 4.194 10.146l-8.568 8.585 17.705 17.74 8.568-8.585a44.762 44.762 0 0 0 10.125 4.202v12.158h25.044v-12.158a45.579 45.579 0 0 0 10.126-4.202l8.567 8.585 17.705-17.74-8.568-8.585c1.768-3.182 3.206-6.574 4.194-10.146h12.163zm-83.49-12.548c0-14.828 11.982-26.865 26.811-26.865 14.799 0 26.812 12.007 26.812 26.865 0 14.829-12.013 26.866-26.812 26.866-14.829-.03-26.811-12.037-26.811-26.866z" fill="#fff"/><path d="M70.766 311.613H45.092v-12.217a46.3 46.3 0 0 1-9.766-4.053l-8.627 8.645-18.154-18.22 8.627-8.646a45.17 45.17 0 0 1-4.044-9.785H.936v-25.725h12.222a46.485 46.485 0 0 1 4.044-9.786l-8.657-8.645 18.154-18.191 8.627 8.645c3.086-1.711 6.351-3.091 9.766-4.052v-12.247h25.674v12.217a47.24 47.24 0 0 1 9.765 4.052l8.628-8.645 18.154 18.191-8.627 8.645c1.707 3.092 3.085 6.364 4.044 9.786h12.192v25.755H102.73a46.472 46.472 0 0 1-4.044 9.785l8.627 8.646-18.154 18.19-8.628-8.645a44.975 44.975 0 0 1-9.766 4.052v12.248zm-25.045-.631h24.415v-12.067l.24-.06a45.15 45.15 0 0 0 10.006-4.172l.18-.18 8.567 8.585 17.255-17.29-8.477-8.555.12-.211c1.797-3.181 3.175-6.573 4.164-10.085l.059-.241h12.043v-24.464H102.25l-.059-.24a47.105 47.105 0 0 0-4.165-10.086l-.12-.21 8.538-8.555-17.255-17.29-8.538 8.555-.21-.12a45.67 45.67 0 0 0-10.065-4.173l-.24-.06v-12.067H45.721v12.067l-.24.06a46.9 46.9 0 0 0-10.065 4.173l-.21.12-8.537-8.555-17.226 17.32 8.538 8.555-.12.21a44.206 44.206 0 0 0-4.164 10.086l-.06.24H1.595v24.464h12.042l.06.241a47.05 47.05 0 0 0 4.164 10.085l.12.211-8.538 8.495 17.256 17.29 8.537-8.555.21.12a43.99 43.99 0 0 0 10.066 4.172l.24.06-.03 12.127zm12.193-29.327c-14.949 0-27.111-12.187-27.111-27.166 0-14.978 12.162-27.166 27.11-27.166 14.95 0 27.112 12.188 27.112 27.166.03 14.979-12.133 27.166-27.111 27.166zm0-53.701c-14.59 0-26.482 11.917-26.482 26.535 0 14.619 11.893 26.536 26.482 26.536 14.589 0 26.482-11.917 26.482-26.536 0-14.648-11.863-26.535-26.482-26.535z" fill="#526AC2"/><path d="M243.005 406.068H114.296c-13.939 0-25.267-11.063-25.267-24.721V75.221c0-13.658 11.328-24.721 25.267-24.721h128.667c13.939 0 25.267 11.063 25.267 24.72v306.127c0 13.659-11.287 24.721-25.225 24.721z" fill="#4D5D71" stroke="#fff"/><path d="M114.296 402.718h1v-.041h127.667c11.969 0 21.77-9.52 21.77-21.33V75.221c0-11.767-9.757-21.33-21.77-21.33H114.296c-11.969 0-21.77 9.52-21.77 21.33v306.166c0 11.767 9.757 21.331 21.77 21.331z" fill="#526AC2" stroke="#fff" stroke-width="2"/><path d="M258.405 75.423v302.731c0 9.741-8.052 17.622-18.003 17.622H116.937c-9.951 0-18.003-7.881-18.003-17.622V75.423c0-9.74 8.052-17.622 18.003-17.622h13.792c2.725 0 4.955 2.182 4.955 4.85 0 5.295 4.377 9.579 9.786 9.579h66.399c5.409 0 9.786-4.284 9.786-9.58 0-2.667 2.23-4.85 4.955-4.85h13.792c9.91 0 18.003 7.882 18.003 17.623z" fill="#fff"/><path d="M88.238 129.26h-1.652c-.536 0-.95-.405-.95-.93v-10.307c0-.525.414-.929.95-.929h1.652v12.166zm-.038 33.102h-1.653c-.536 0-.95-.405-.95-.93V139.93c0-.526.414-.93.95-.93H88.2v23.362zm0 39.207h-1.653c-.536 0-.95-.405-.95-.93v-21.502c0-.526.414-.93.95-.93H88.2v23.362z" fill="#EEEEF2"/><path d="M208.031 66.412c1.391 0 2.518-1.104 2.518-2.466s-1.127-2.465-2.518-2.465c-1.392 0-2.519 1.103-2.519 2.465 0 1.362 1.127 2.466 2.519 2.466zm-13.379-.527h-37.7c-.991 0-1.817-.808-1.817-1.779 0-.97.826-1.778 1.817-1.778h37.7c.991 0 1.817.808 1.817 1.778s-.826 1.779-1.817 1.779z" fill="#fff"/><path opacity=".2" d="M258.405 75.423v302.731c0 9.741-8.052 17.622-18.003 17.622H116.937c-9.951 0-18.003-7.881-18.003-17.622V75.423c0-9.74 8.052-17.622 18.003-17.622h13.792c2.725 0 4.955 2.182 4.955 4.85 0 5.295 4.377 9.579 9.786 9.579h66.399c5.409 0 9.786-4.284 9.786-9.58 0-2.667 2.23-4.85 4.955-4.85h13.792c9.91 0 18.003 7.882 18.003 17.623z" stroke="url(#a)" stroke-width=".925" stroke-miterlimit="10"/><path d="M182.773 253H108v15.133h74.773V253zm0 32.047H108v15.133h74.773v-15.133z" fill="#EEEEF2"/><path d="M234.29 377.145H119.126c-6.153 0-11.149-4.891-11.149-10.913v-.202c0-6.022 4.996-10.913 11.149-10.913H234.29c6.153 0 11.149 4.891 11.149 10.913v.202c0 6.063-4.996 10.913-11.149 10.913z" fill="#5793DB"/><path d="M245.504 311.094H108v14.954h137.504v-14.954z" fill="#EEEEF2"/><path d="M317.493 184.848h-18.634v36.051h18.634v-36.051z" fill="#EBE6FF"/><path d="M325.58 192.293h-34.84l17.435-27.496 17.405 27.496zm-32.265 50.187h-11.743v22.724h11.743V242.48z" fill="#EBE6FF"/><path d="M298.408 247.195h-21.959l10.994-17.32 10.965 17.32zm37.445-16.66h-7.16v13.868h7.16v-13.868z" fill="#EBE6FF"/><path d="M338.999 233.387h-13.421l6.71-10.567 6.711 10.567zM8.13 144.578L1 137.434l3.086-3.092 4.044 4.053 12.372-12.368 3.086 3.092L8.13 144.578zm11.833-29.596l-14.2-14.229 6.142-6.183 8.058 8.104L44.588 78l6.141 6.154-30.766 30.828zm38.375-5.762l-4.883-4.923 2.127-2.101 2.756 2.761 8.478-8.465 2.097 2.131-10.575 10.597z" fill="#EBE6FF"/><path d="M136.12 184.607l-.12-.57c.18-.03 18.753-4.383 39.124-12.998 17.075-7.234 38.645-18.941 48.83-34.82-5.242.06-11.204-.661-17.884-2.131-20.731-4.563-23.936-14.499-23.996-20.022-.06-5.133 2.367-10.626 6.8-15.46 4.254-4.622 9.886-8.044 15.488-9.425 9.317-2.28 17.136 1.291 21.449 9.846 5.722 11.287 6.172 22.273 1.348 32.599a45.073 45.073 0 0 1-2.097 3.932c7.04-.24 12.732-1.921 17.226-5.073 11.773-8.254 14.139-25.905 16.626-44.606 3.565-26.565 7.579-56.643 38.824-69.34l.24.57c-30.946 12.548-34.93 42.445-38.465 68.86-2.516 18.822-4.913 36.622-16.896 45.027-4.673 3.272-10.605 5.013-17.944 5.193-4.134 6.574-10.425 12.907-18.843 18.881-8.238 5.883-18.514 11.436-30.496 16.509-20.431 8.645-39.034 12.968-39.214 13.028zm73.544-95.516c-1.647 0-3.385.21-5.182.66-11.743 2.882-21.959 14.229-21.839 24.285.12 9.215 8.478 16.119 23.516 19.451 6.831 1.501 12.852 2.192 18.154 2.101.839-1.38 1.618-2.761 2.277-4.202 4.733-10.176 4.284-20.952-1.348-32.089-3.325-6.664-8.867-10.206-15.578-10.206z" fill="#4D5D71"/><path d="M220.738 189.91c-2.951 24.987-25.643 42.787-50.584 39.843-24.941-2.944-42.786-25.672-39.835-50.591 2.951-24.988 25.643-42.787 50.584-39.844 25.011 2.944 42.856 25.604 39.835 50.592z" fill="#FCCC53"/><path d="M169.105 200.726h-.14c-.913-.137-1.756-.685-2.319-1.438l-10.608-15.403c-1.054-1.575-.703-3.766.913-4.793 1.546-1.095 3.724-.684 4.848.89l8.571 12.392 26.416-20.333c1.546-1.164 3.724-.89 4.848.616a3.419 3.419 0 0 1-.633 4.861l-29.296 22.591a4.313 4.313 0 0 1-2.6.617z" fill="#fff"/><path d="M307.892 11.016l-1.019 7.804 24.745-16.27-23.726 8.466z" fill="#4D5D71"/><path d="M336.384.844l-38.675 4.562 10.185 5.614L336.384.844z" fill="#fff"/><path d="M307.864 11.319L296.75 5.225 338.989.242 307.864 11.32zm-9.197-5.704l9.257 5.073 25.853-9.215-35.11 4.142z" fill="#4D5D71"/><path d="M336.38.84l-19.053 15.88-9.436-5.704L336.38.84z" fill="#fff"/><path d="M317.359 17.08l-10.156-6.154L337.879 0l-20.52 17.08zm-8.778-6.003l8.718 5.252 17.585-14.648-26.303 9.395z" fill="#4D5D71"/><defs><linearGradient id="a" x1="98.701" y1="226.783" x2="258.576" y2="226.783" gradientUnits="userSpaceOnUse"><stop stop-color="#D1D3D4"/><stop offset=".155" stop-color="#DDDEDF"/><stop offset=".422" stop-color="#ECEDED"/><stop offset=".618" stop-color="#F1F2F2"/></linearGradient></defs></svg>