<svg width="472" height="391" viewBox="0 0 472 391" fill="none" xmlns="http://www.w3.org/2000/svg"><path d="M33.014 88.379L1.018 360.33a2.065 2.065 0 0 0 3.21 1.996l20.593-12.639c2.547-1.552 5.868-.887 7.529 1.663l25.796 38.47 10.74-161.641-35.872-139.8z" fill="#fff" stroke="#263238" stroke-miterlimit="10" stroke-linecap="round" stroke-linejoin="round"/><path d="M32.792 95.138L3.896 353.454c-.333 2.55 2.546 4.102 4.539 2.661l15.057-11.086c3.321-2.439 7.971-1.553 10.186 1.884l17.603 26.83c.886 1.33 2.99.665 2.879-.998L33.678 95.138c0-.554-.886-.554-.886 0z" fill="#fff" stroke="#263238" stroke-miterlimit="10" stroke-linecap="round" stroke-linejoin="round"/><path opacity=".6" d="M33.235 91.483L3.895 353.457c-.332 2.55 2.547 4.102 4.54 2.661l15.057-11.087c3.321-2.439 7.971-1.552 10.186 1.885l17.603 26.83c.886 1.33 2.99.665 2.879-.998L33.456 91.483c0-.222-.221-.222-.221 0z" fill="#fff"/><path d="M27.812 343.589c2.325 0 4.54 1.109 5.868 3.215l17.603 26.829c.886 1.331 2.99.666 2.879-.997l-2.546-33.925-24.247 4.767c.222 0 .332.111.443.111z" fill="#526AC2" stroke="#263238" stroke-miterlimit="10" stroke-linecap="round" stroke-linejoin="round"/><path d="M27.812 343.589c2.325 0 4.54 1.109 5.868 3.215l17.603 26.829c.886 1.331 2.99.666 2.879-.997l-2.546-33.925-24.247 4.767c.222 0 .332.111.443.111z" fill="#F6F9FF"/><path d="M33.678 88.156L58.146 389.71l284.867-54.324-66.982-235.256L33.678 88.156z" fill="#fff" stroke="#263238" stroke-miterlimit="10" stroke-linecap="round" stroke-linejoin="round"/><path d="M46.853 94.695l16.83 279.048 267.928-48.781-56.465-216.852L46.853 94.695z" fill="#fff" stroke="#263238" stroke-miterlimit="10" stroke-linecap="round" stroke-linejoin="round"/><path d="M63.24 232.057L75.972 364.32l243.461-44.347-22.586-99.446-233.607 11.53z" fill="#fff" stroke="#263238" stroke-miterlimit="10" stroke-linecap="round" stroke-linejoin="round"/><path d="M110.181 357.775l-3.986-42.572m41.295 35.921l-3.875-35.366m40.411 28.27l-4.54-28.27m42.185 21.841l-5.425-33.814m38.527 27.829l-4.65-32.926m36.425 27.049l-6.864-39.69" stroke="#263238" stroke-miterlimit="10" stroke-linecap="round" stroke-linejoin="round"/><path d="M40.766 91.59l233.164 12.638s22.696 68.072 45.282 106.542c22.586 38.47 59.896 35.92 59.896 35.92s-85.471 46.785-152.01 71.73c-69.307 25.943-129.315 30.599-129.315 30.599S42.98 274.185 40.767 91.589z" fill="#526AC2" stroke="#263238" stroke-miterlimit="10" stroke-linecap="round" stroke-linejoin="round"/><path d="M67.444 79.508c-4.318 0-7.418 3.88-8.415 9.867l4.429.222c.664-3.437 2.103-5.655 3.986-5.655 2.325 0 4.871 3.659 4.871 8.98 0 5.322-2.546 8.981-4.871 8.981a2.222 2.222 0 0 0-2.215 2.217c0 1.219.997 2.217 2.215 2.217 5.203 0 9.3-5.876 9.3-13.415-.111-7.538-4.097-13.414-9.3-13.414z" fill="#fff" stroke="#263238" stroke-miterlimit="10"/><path d="M73.757 96.469c-.221.776-.442 1.552-.775 2.328M61.137 87.378s1.66-5.986 6.532-5.654c3.875.222 7.086 5.987 6.532 12.085" stroke="#263238" stroke-width=".75" stroke-miterlimit="10" stroke-linecap="round" stroke-linejoin="round"/><path d="M105.862 81.504c-4.318 0-7.418 3.88-8.415 9.867l4.429.222c.664-3.437 2.103-5.654 3.986-5.654 2.325 0 4.871 3.658 4.871 8.98 0 5.321-2.546 8.98-4.871 8.98a2.222 2.222 0 0 0-2.215 2.217c0 1.22.997 2.217 2.215 2.217 5.203 0 9.3-5.876 9.3-13.414 0-7.54-4.097-13.415-9.3-13.415z" fill="#fff" stroke="#263238" stroke-miterlimit="10"/><path d="M112.287 98.465c-.222.776-.443 1.552-.775 2.328M99.666 89.374s1.661-5.986 6.532-5.654c3.875.222 7.086 5.987 6.532 12.085" stroke="#263238" stroke-width=".75" stroke-miterlimit="10" stroke-linecap="round" stroke-linejoin="round"/><path d="M144.391 83.387c-4.318 0-7.418 3.88-8.414 9.867l4.428.221c.664-3.436 1.993-5.654 3.986-5.654 2.325 0 4.871 3.659 4.871 8.98 0 5.322-2.546 8.98-4.871 8.98a2.222 2.222 0 0 0-2.214 2.218c0 1.219.996 2.217 2.214 2.217 5.203 0 9.3-5.876 9.3-13.415-.111-7.538-4.097-13.414-9.3-13.414z" fill="#fff" stroke="#263238" stroke-miterlimit="10"/><path d="M150.703 100.348c-.222.776-.443 1.552-.775 2.328M138.08 91.257s1.661-5.986 6.532-5.654c3.875.222 7.086 5.987 6.532 12.085" stroke="#263238" stroke-width=".75" stroke-miterlimit="10" stroke-linecap="round" stroke-linejoin="round"/><path d="M182.811 85.383c-4.318 0-7.418 3.88-8.415 9.867l4.429.222c.664-3.437 2.104-5.655 3.986-5.655 2.325 0 4.871 3.659 4.871 8.98 0 5.322-2.546 8.981-4.871 8.981a2.222 2.222 0 0 0-2.215 2.217c0 1.219.997 2.217 2.215 2.217 5.203 0 9.3-5.876 9.3-13.415 0-7.538-4.097-13.414-9.3-13.414z" fill="#fff" stroke="#263238" stroke-miterlimit="10"/><path d="M189.232 102.348c-.221.776-.443 1.552-.775 2.328m-11.848-11.419s1.661-5.986 6.533-5.654c3.875.222 7.085 5.987 6.532 12.085" stroke="#263238" stroke-width=".75" stroke-miterlimit="10" stroke-linecap="round" stroke-linejoin="round"/><path d="M222.004 87.047c-4.318 0-7.418 3.88-8.414 9.867l4.428.222c.665-3.437 2.104-5.654 3.986-5.654 2.325 0 4.872 3.658 4.872 8.98 0 5.321-2.547 8.98-4.872 8.98a2.221 2.221 0 0 0-2.214 2.217c0 1.219.996 2.217 2.214 2.217 5.204 0 9.3-5.876 9.3-13.414 0-7.54-4.096-13.415-9.3-13.415z" fill="#fff" stroke="#263238" stroke-miterlimit="10"/><path d="M228.314 104.008c-.221.776-.443 1.552-.775 2.328m-11.848-11.418s1.661-5.987 6.533-5.655c3.875.222 7.085 5.987 6.532 12.085" stroke="#263238" stroke-width=".75" stroke-miterlimit="10" stroke-linecap="round" stroke-linejoin="round"/><path d="M259.647 89.043c-4.318 0-7.418 3.88-8.415 9.867l4.429.222c.664-3.437 2.104-5.654 3.986-5.654 2.325 0 4.871 3.658 4.871 8.98 0 5.321-2.546 8.98-4.871 8.98a2.223 2.223 0 0 0-2.215 2.217c0 1.22.997 2.217 2.215 2.217 5.203 0 9.3-5.876 9.3-13.414 0-7.54-4.097-13.415-9.3-13.415z" fill="#fff" stroke="#263238" stroke-miterlimit="10"/><path d="M265.959 106.004c-.222.776-.443 1.552-.775 2.328m-11.846-11.418s1.661-5.987 6.532-5.654c3.875.221 7.086 5.986 6.532 12.084" stroke="#263238" stroke-width=".75" stroke-miterlimit="10" stroke-linecap="round" stroke-linejoin="round"/><path d="M311.566 210.993c-16.053-27.273-32.882-70.4-38.86-86.364l-208.475-8.426c-.111 154.214 46.5 217.961 46.5 217.961s53.142-4.102 114.367-27.051c58.79-21.951 128.983-58.98 128.983-58.98s-22.586-3.104-42.515-37.14z" fill="#fff" stroke="#263238" stroke-miterlimit="10" stroke-linecap="round" stroke-linejoin="round"/><path d="M272.595 124.629L64.23 116.203c0 15.189.443 29.49 1.218 42.905l220.1-2.106c-5.646-13.526-10.296-25.499-12.953-32.373z" fill="#263238" stroke="#263238" stroke-miterlimit="10" stroke-linecap="round" stroke-linejoin="round"/><path d="M276.363 170.637l9.854-.332m-38.863 1.33l21.589-.776m-56.572 1.994l27.679-.998m-63.443 2.221l29.561-.998m-63.992 2.106l27.125-.887m-63.442 2.106l27.125-.887m-59.119 1.996l25.243-.887" stroke="#263238" stroke-width="3" stroke-miterlimit="10" stroke-linecap="round" stroke-linejoin="round"/><path d="M69.768 201.349l229.289-14.079m-193.084 12.082s3.764 61.086 43.953 128.825m-6.975-131.263s4.207 69.845 48.272 120.954m-14.725-123.063s2.214 64.302 51.704 110.532M211.15 193.363s5.425 71.508 53.365 96.675m-16.937-99.554s3.875 54.103 52.922 83.704m-24.252-85.477s13.175 55.433 50.154 73.393M74.75 232.832L309.021 207M80.84 260.44s50.043-1.995 239.032-36.807M89.7 289.595s48.713 5.543 239.585-55.322m-229.07 80.821s40.632 13.414 240.139-72.063" stroke="#263238" stroke-miterlimit="10" stroke-linecap="round" stroke-linejoin="round"/><path d="M154.242 146.358l-75.064-.998c-1.218 0-2.325-.998-2.436-2.217l-.664-6.098c-.11-1.441.996-2.772 2.546-2.772l74.179 1.331c1.107 0 2.103.776 2.325 1.885l1.55 5.765c.443 1.552-.775 3.104-2.436 3.104z" fill="#fff"/><path d="M76.752 1.225s.898-.064 2.374-.449 6.096.16 7.604 4.811c1.508 4.683-.802 10.68.834 13.952 1.637 3.272 1.54 6.19.61 7.377-.93 1.155-10.203.578-10.203.578L76.752 1.225z" fill="#294381"/><path d="M76.752 1.223c-.096 0-4.235-.385-5.775 1.54-1.54 1.924-2.021 3.912-2.47 7.088-.45 3.175-.257 7.697-1.605 11.13-1.315 3.431-.385 6.093 1.444 6.51 1.861.385 9.914 0 9.914 0L76.752 1.223z" fill="#294381"/><path d="M78.752 116.431l-6.713-13.642-14.452 7.107 6.713 13.642 14.452-7.107zm-4.376 52.444l-3.786-15.652-14.791 3.592 3.08 12.765s-4.652 18.796-3.978 19.918c.673 1.091 20.662-15.716 19.475-20.623z" fill="#FE9F73"/><path d="M73.061 163.488c-5.39 2.951-12.32 3.625-14.759 3.753l.546 2.309s-4.652 18.795-3.979 19.918c.674 1.123 20.662-15.684 19.475-20.591l-1.283-5.389z" fill="#F7F7F7"/><path d="M82.333 98.697c-.32 0-12.641 5.452-12.641 5.452l-3.914 2.566s6 40.766 7.09 51.671c0 0-8.662 6.126-17.453 6.319 0 0-18.128-63.122-18.128-71.14 0-8.019 38.533-27.006 38.533-27.006l17.518 10.103s26.341 2.18 32.405 6.286-47.035 28.161-47.035 28.161l3.625-12.412z" fill="#9AA3DA"/><path d="M68.795 102.611s29.742-17.737 39.977-20.495c10.234-2.759 17.55-.417 18.672 2.79 1.123 3.207 2.214 12.348 0 15.331-2.213 3.015-41.003 17.32-49.89 19.79-.032 0-7.925-9.205-8.76-17.416z" fill="#9AA3DA"/><path d="M126.962 84.553c-2.342-4.747-26.822-7.153-28.234-6.96-.128.032-.256 0-.32-.097-.097-.128-.065-.288.064-.384.417-.29 7.283.545 7.347.545 2.92.353 8.534 1.154 13.315 2.405 4.748 1.251 7.572 2.695 8.342 4.234.064.128 0 .32-.129.385-.032.032-.096.032-.128.032-.096-.032-.225-.064-.257-.16z" fill="#294381"/><path d="M71.78 111.431c.064 0 .097 0 .16-.032a.306.306 0 0 0 .097-.385c-2.438-3.817-2.888-7.826-2.952-8.628 1.637-1.09 18.064-11.995 41.26-21.906.129-.064.225-.225.161-.385-.064-.128-.225-.225-.385-.16-24.384 10.424-41.324 21.938-41.485 22.034l-.128.096v.161c0 .192.257 4.683 3.048 9.077a.27.27 0 0 0 .224.128z" fill="#294381"/><path d="M105.017 82.662a.292.292 0 0 0 .225-.096c1.058-1.38 3.08-2.534 3.08-2.566.128-.064.192-.257.096-.385-.064-.128-.257-.192-.385-.096-.096.064-2.118 1.25-3.241 2.694a.291.291 0 0 0 .033.385.455.455 0 0 0 .192.064zm-61.184 40.285h.064a.257.257 0 0 0 .193-.353c-.064-.225-5.807-24.088-6.545-28.193-.674-3.945 7.796-9.719 7.86-9.783.129-.096.16-.256.064-.385-.096-.128-.256-.16-.385-.064-.352.257-8.855 6.03-8.117 10.328.706 4.138 6.481 27.968 6.545 28.225.097.128.193.225.321.225zm18.417-13.856c.065 0 .097 0 .161-.032l6.834-4.362a.306.306 0 0 0 .096-.385.307.307 0 0 0-.385-.096l-6.834 4.362a.306.306 0 0 0-.096.385c.032.096.129.128.225.128z" fill="#294381"/><path d="M55.417 164.961h.032c.514-.064 12.481-1.732 17.615-6.415l.096-.096-.032-.16-5.166-38.297-1.54-13.631a.313.313 0 0 0-.32-.257.314.314 0 0 0-.257.321l1.54 13.632 5.133 38.199c-5.07 4.491-17.069 6.159-17.197 6.159a.312.312 0 0 0-.256.32c.096.129.224.225.352.225zm67.761-64.18a.244.244 0 0 0 .16-.064c3.209-2.374 3.177-4.394 3.177-4.49 0-.161-.129-.29-.289-.257a.287.287 0 0 0-.289.288c0 .032-.032 1.86-2.952 4.01-.128.096-.16.256-.064.385.096.096.193.128.257.128zm-2.856-.512c.032 0 .096 0 .128-.033 3.529-1.86 3.786-3.88 3.786-3.977.032-.16-.096-.288-.257-.32-.16-.032-.288.096-.321.256 0 .032-.288 1.828-3.497 3.528a.309.309 0 0 0-.128.385c.096.096.192.161.289.161z" fill="#294381"/><path d="M72.644 42.888l5.487-22.997H93.05c1.572 0 3.754 1.058 3.85 1.09 6 3.175 21.464 14.947 20.63 26.397-.738 10.392-14.694 14.69-29.581 17.095l-3.305-13.76 5.39-1.443-17.39-6.382z" fill="#FFC01E"/><path d="M77.587 46.287V19.891h-14.92c-1.571 0-3.753 1.058-3.85 1.09-5.999 3.175-22.394 12.99-21.56 24.44.738 10.392 16.074 18.86 24.288 21.394L66.1 50.36l-.417-.834 11.903-3.24z" fill="#FFC01E"/><path d="M53.395 49.882l.192 28.77s26.052 4.747 49.249-1.411c.578-.16-1.091-23.767-1.091-23.767s0-4.587-2.406-5.998C96.933 46.065 77.2 37.31 76.719 37.31c-.48-.032-23.324 12.573-23.324 12.573z" fill="#FFC01E"/><path d="M78.388 27.876c-.16 0-.256-.128-.288-.257 0-.16.096-.288.256-.288 8.567-.546 11.358-6.383 11.39-6.447.064-.128.225-.192.385-.128.129.064.193.224.129.384-.033.033-2.952 6.19-11.872 6.736z" fill="#294381"/><path d="M68.953 19.89H87.82s-3.401 5.902-9.947 5.87c-2.983 0-6.16-1.09-8.919-5.87z" fill="#FE9F73"/><path d="M78.776 62.712H71.01c-.77 0-1.411-.738-1.411-1.636V43.179c0-.898.641-1.636 1.411-1.636h7.765c.77 0 1.411.738 1.411 1.636v17.929c0 .866-.61 1.604-1.411 1.604z" fill="#9AA3DA"/><path d="M78.778 63a.288.288 0 0 1-.29-.288c0-.16.13-.289.29-.289.641 0 1.155-.609 1.155-1.347V43.147c0-.738-.514-1.347-1.155-1.347h-7.765a.288.288 0 0 1-.288-.289c0-.16.128-.288.288-.288h7.765c.93 0 1.7.866 1.7 1.924v17.93c0 1.058-.77 1.924-1.7 1.924z" fill="#294381"/><path d="M80.567 57.932c1.187-1.219.096-2.758.096-2.758.449-1.828-.032-2.63-.032-2.63s-5.037 1.507-7.893 2.566c-1.604-.257-2.182-1.027-2.182-1.027l-.032.065a397.137 397.137 0 0 1-.064-3.336c0-.32-.545-.866-1.38.192-.834 1.059-2.438 3.881-2.438 3.881l-4.17-2.437-3.402 11.739s10.107 1.443 11.679 1.54c1.572.095 6.962-1.156 8.598-2.503 1.605-1.347 1.252-2.533 1.252-2.533 1.187-1.476-.032-2.759-.032-2.759z" fill="#F78C63"/><path d="M69.592 50.17v3.624s1.059 1.571 3.144 1.283l1.572-.578-1.219-5.292-3.497.962z" fill="#9AA3DA"/><path d="M77.228 57.002c-.064 0-.16-.065-.192-.129-.032-.096.032-.192.128-.224 1.38-.45 3.369-1.572 3.4-1.604.097-.064.193-.032.258.064.064.096.032.193-.065.257-.096.032-2.053 1.154-3.465 1.636-.032-.033-.032 0-.064 0zm0 2.373c-.096 0-.16-.064-.192-.16s.064-.193.16-.225c1.733-.32 3.273-1.218 3.273-1.218.096-.064.192-.032.256.064s.032.192-.064.256c-.064.032-1.604.93-3.4 1.251 0 .032 0 .032-.033.032zm.42 2.695c-.096 0-.16-.064-.192-.16-.032-.097.032-.193.128-.225 1.476-.32 2.855-1.187 2.855-1.187.097-.064.193-.032.257.064.064.097.032.193-.064.257-.064.032-1.412.898-2.984 1.25.032 0 .032 0 0 0zm8.022-42.18c-.514 1.252-2.246 4.17-6.93 4.395-3.722.192-6.257-2.406-7.636-4.394H85.67z" fill="#F07162"/><path d="M65.457 52.639l-5.743-1.444s-4.716 11.034-4.716 11.29c0 .257 4.62 3.208 4.813 3.176.192-.032.513-.802.513-.802l5.133-12.22z" fill="#FFC01E"/><path d="M54.902 46.61l-2.823-.448c-.193-.032-.321-.193-.289-.385.032-.193.193-.321.385-.289l2.406.385 5.326-8.21c.097-.161.321-.193.482-.097.16.096.192.32.096.481l-5.583 8.564z" fill="#294381"/><path d="M60.198 66.11l-.288-.064c-.064-.032-6.898-1.924-14.181-6.96-.16-.096-.193-.32-.097-.481.096-.16.321-.192.482-.096 6.352 4.394 12.32 6.382 13.7 6.8l5.23-12.51-10.492-6.254c-.16-.096-.225-.32-.129-.48a.362.362 0 0 1 .481-.13l10.973 6.544-5.679 13.631zm-4.237-38.713c.096 0 .16-.032.225-.128 2.117-3.047 3.946-3.047 3.914-3.047.16 0 .289-.128.289-.289a.288.288 0 0 0-.29-.288c-.095 0-2.117.032-4.395 3.303-.096.128-.064.289.065.385a.455.455 0 0 0 .192.064zm.609 2.856c.097 0 .193-.064.258-.16C58.464 26.82 60.26 26.5 60.26 26.5c.16-.033.256-.16.224-.321-.032-.16-.16-.257-.32-.225-.097 0-2.086.353-3.85 3.913-.065.129 0 .321.128.385h.128z" fill="#294381"/><path opacity=".5" d="M78.068 47.764h-.962a.828.828 0 0 1-.834-.834v-2.534c0-.48.384-.834.834-.834h.962c.481 0 .834.385.834.834v2.534a.85.85 0 0 1-.834.834z" fill="#E2F2F1"/><path d="M68.956 53.378c-.93-1.443.481-2.726.481-2.726-.064-1.892.578-2.566.578-2.566s4.62 2.502 7.186 4.138c1.637.096 2.343-.546 2.343-.546l.032.064c.32-1.347.706-3.079.77-3.271.064-.32.706-.738 1.283.48.61 1.22 1.604 4.299 1.604 4.299l4.588-1.54.899 12.156s-10.203-.705-11.743-.898c-1.54-.224-6.577-2.566-7.893-4.202-1.315-1.635-.706-2.726-.706-2.726-.866-1.636.578-2.662.578-2.662z" fill="#FE9F73"/><path d="M72.422 53.12c.064.032.16-.032.193-.097.064-.096.032-.192-.065-.256-1.251-.738-2.983-2.245-2.983-2.278a.195.195 0 0 0-.257 0 .195.195 0 0 0 0 .257c.064.064 1.764 1.572 3.048 2.31.032.064.064.064.064.064zm-.483 2.34c.096.032.192-.032.224-.096.032-.096 0-.192-.096-.256-1.636-.674-2.952-1.86-2.952-1.86a.195.195 0 0 0-.256 0 .195.195 0 0 0 0 .256c.064.064 1.38 1.219 3.048 1.924 0 .032.032.032.032.032zm-.962 2.568c.096.032.16-.032.224-.096.032-.096 0-.192-.096-.257-1.38-.609-2.535-1.731-2.535-1.764a.195.195 0 0 0-.256 0 .195.195 0 0 0 0 .257c.064.032 1.219 1.187 2.663 1.828-.032.032-.032.032 0 .032z" fill="#F07162"/><path d="M96.579 47.218l2.855.128c.193 0 .353-.128.353-.32 0-.193-.128-.354-.32-.354l-2.407-.128-3.53-9.109a.358.358 0 0 0-.448-.192.357.357 0 0 0-.193.449l3.69 9.526z" fill="#294381"/><path d="M84.644 50.715l2.952 14.144s6.064-4.939 6.064-5.484c0-.545-1.925-7.12-2.117-7.249-.225-.128-6.899-1.411-6.899-1.411z" fill="#FFC01E"/><path d="M87.404 65.21l.288-.032c.065 0 7.155-.449 15.337-3.88a.372.372 0 0 0 .192-.45.372.372 0 0 0-.449-.192c-7.123 2.983-13.379 3.688-14.79 3.816l-2.535-13.31 11.518-3.945a.347.347 0 0 0 .224-.45.347.347 0 0 0-.449-.224l-12.096 4.17 2.76 14.497z" fill="#294381"/><path d="M84.581 5.461a4.31 4.31 0 0 0-1.444-1.7c-1.026-.48-2.727-1.09-4.909-1.347h-.256c-2.182.257-3.85.866-4.91 1.347-.512.353-1.026.898-1.443 1.7-.192 1.475-.417 4.202-.481 6.928-.032 2.438.61 4.875 1.957 6.864 1.027 1.507 2.47 2.822 4.492 3.015h.963c2.02-.193 3.496-1.54 4.491-3.015 1.348-1.989 2.021-4.394 1.957-6.864 0-2.726-.224-5.453-.417-6.928z" fill="#FE9F73"/><path d="M85.637 16.234a2.278 2.278 0 1 0 .001-4.555 2.278 2.278 0 0 0 0 4.555z" fill="#FE9F73"/><path d="M85.799 15.37c.481 0 .802-.353.898-.705a.943.943 0 0 0-.353-1.059c-.481-.32-.93-.128-1.187.032a.9.9 0 0 1 .45-.513c.448-.257.994-.064.994-.064.032 0 .064 0 .096-.032 0-.032 0-.064-.032-.096-.032 0-.61-.193-1.123.064-.289.16-.481.449-.577.834l-.065.256.193-.192c.032-.032.545-.545 1.187-.16.353.224.385.609.289.898-.097.288-.321.609-.77.609a.069.069 0 0 0-.064.064c0 .032.032.064.064.064z" fill="#F07162"/><path d="M71.169 16.234a2.278 2.278 0 1 0 0-4.555 2.278 2.278 0 0 0 0 4.555z" fill="#FE9F73"/><path d="M71.011 15.37c-.481 0-.802-.353-.898-.705a.943.943 0 0 1 .353-1.059c.48-.32.93-.128 1.187.032a.901.901 0 0 0-.45-.513c-.449-.257-.994-.064-.994-.064-.032 0-.064 0-.096-.032 0-.032 0-.064.032-.096.032 0 .61-.193 1.123.064.288.16.48.449.577.834l.064.256-.192-.192c-.032-.032-.546-.545-1.187-.16-.353.224-.385.609-.289.898.096.288.32.609.77.609.032 0 .064.032.064.064.032.032-.032.064-.064.064zm6.795.804c.032 0 .064-.032.097-.065 0-.032-.033-.096-.065-.096-.545-.128-.866-.77-.962-.994.77-.417 1.219-.93 1.38-1.572.256-1.026-.418-1.988-.45-2.02-.032-.032-.064-.032-.128-.032-.032.032-.032.064-.032.128 0 0 .641.93.417 1.892-.16.61-.61 1.123-1.38 1.508l-.064.032.032.064c.032.032.417.994 1.155 1.155z" fill="#F07162"/><path d="M75.531 14.183a.45.45 0 1 0 0-.898.45.45 0 0 0 0 .898zm5.742.094a.45.45 0 1 0 0-.898.45.45 0 0 0 0 .898z" fill="#294381"/><path d="M76.688 17.1l2.823-.065s-.353 1.155-1.38 1.187c-1.026 0-1.444-1.123-1.444-1.123z" fill="#FBFDFC"/><path d="M82.814 11.395c.064 0 .096-.032.16-.064.065-.097.033-.193-.032-.257-1.38-1.059-3.176-.385-3.24-.353-.096.032-.128.16-.096.257.032.096.16.128.257.096.031 0 1.668-.642 2.887.32h.064zm-9.112.192c.032 0 .097 0 .129-.032 1.187-.962 2.855-.385 2.887-.385.096.032.193 0 .225-.096s0-.193-.096-.225c-.065-.032-1.861-.673-3.24.417a.17.17 0 0 0-.033.257.243.243 0 0 0 .128.064z" fill="#294381"/><path d="M71.682 16.172s.834 6.158 5.935 6.062l-5.935-6.062zm12.96-.16s-.834 6.318-5.935 6.254l3.754-8.692 2.181 2.438z" fill="#FE9F73"/><path d="M75.242 2.956s4.94 6.992 9.785 8.82c0 0 2.567-9.109-5.197-9.686-7.732-.545-4.588.866-4.588.866z" fill="#294381"/><path d="M77.488 1.962s-5.55-.77-6.48 3.208c-.931 3.977 0 5.613 0 5.613.416-.16 4.427-4.683 6.031-7.057l.45-1.764z" fill="#294381"/><path d="M75.018 4.369s.93 4.33 4.94 5.42c0 0-2.79-3.688-3.208-6.446-.45-2.759-1.732 1.026-1.732 1.026z" fill="#294381"/><path d="M450.784 350.918c1.128-6.379-.177-13.497-.882-15.964l2.503-.247s17.168-11.03 18.473-10.749c1.339.282-8.673 26.255-13.996 26.713l-6.098.247z" fill="#526AC2"/><path d="M288.445 332.874s8.884 19.207 32.397 17.092c23.514-2.114 44.595-36.369 44.595-36.369l28.766 32.634s15.969-5.04 21.221-13.321c0 0-30.881-51.241-45.616-51.417-14.736-.177-73.572 46.131-74.347 46.659-.741.529-7.016 4.722-7.016 4.722z" fill="#294381"/><path d="M338.644 344.434a.273.273 0 0 0 .177-.07c17.696-14.132 30.669-36.757 30.775-36.968.07-.141.035-.318-.106-.388-.141-.071-.317-.035-.388.106-.141.211-13.043 22.765-30.634 36.792-.141.105-.141.281-.035.422.035.071.141.106.211.106z" fill="#294381"/><path d="M287.951 333.193s8.461 17.55 32.045 17.902c36.38.529 46.639-.388 46.639-.388s-37.826-26.959-52.562-27.135c-14.735-.176-17.802 4.052-18.578 4.581-.775.529-7.544 5.04-7.544 5.04z" fill="#294381"/><path d="M315.588 347.994c.317 0 .634 0 .987-.035.176 0 .282-.141.282-.317 0-.177-.141-.282-.317-.282-3.878.282-5.077-1.163-5.112-1.199-.106-.141-.282-.141-.423-.035-.141.106-.141.282-.035.423.035.035 1.198 1.445 4.618 1.445zm.428-2.15c.705 0 1.551-.07 2.538-.317.176-.035.247-.212.212-.352-.036-.177-.177-.247-.353-.212-3.737.846-5.217-.423-5.217-.423a.29.29 0 0 0-.423.035c-.106.106-.106.318 0 .423.07.036 1.022.846 3.243.846zm78.114.706l.176-.071c.071-.035 6.064-2.044 12.656-5.709.141-.07.212-.247.106-.387-.071-.141-.247-.212-.388-.106-5.887 3.277-11.281 5.251-12.338 5.603l-28.414-32.246a42.04 42.04 0 0 0 3.666-2.889.322.322 0 0 0 .036-.423.322.322 0 0 0-.423-.036c-2.01 1.798-3.878 3.031-3.878 3.031l-.282.176 29.083 33.057z" fill="#294381"/><path d="M306.105 314.938s54.43 7.682 62.82 8.175c6.698.388 81.363 9.621 81.363 9.621s4.124 13.498 1.304 18.326c-.07.105-92.643.105-92.643.105s-44.665-17.232-45.617-17.514c-.952-.282-7.896-4.582-7.896-4.582l.669-14.131z" fill="#294381"/><path d="M395.679 326.463h-.035c-.035 0-5.076-.599-22.773-2.502-17.697-1.903-52.385-6.626-52.738-6.696-.211-.035-.352-.211-.317-.423.035-.211.211-.352.423-.317.353.035 35.006 4.758 52.702 6.661 17.697 1.903 22.738 2.502 22.773 2.502.212.035.353.211.318.423-.036.211-.177.352-.353.352z" fill="#294381"/><path d="M324.367 274.94c.599-.247 28.942.599 28.942.599l-.987 11.841-15.017 2.185-12.938-14.625zm-57.922 15.787s7.157 21.215 21.011 45.954c0 0 10.787-4.229 23.83-15.224 13.079-10.995-44.841-30.73-44.841-30.73z" fill="#9AA3DA"/><path d="M381.158 296.402h-29.577c-1.41 0-2.574-1.128-2.433-2.326l5.676-42.854c.106-.881.917-1.48 1.939-1.48h29.577c1.41 0 2.573 1.128 2.432 2.326l-5.676 42.854c-.141.845-.916 1.48-1.938 1.48z" fill="#F7F7F7"/><path d="M368.152 287.662c-.141-.775-.952-1.339-1.727-1.233l-4.865.634c-.141.035-.318-.07-.388-.211-.106-.212 0-.459.247-.494l7.05-1.903c.811-.211 1.164-1.022.776-1.762-.388-.74-1.34-1.163-2.151-.951l-7.156 1.938c-.176.035-.352-.035-.423-.176l-.07-.106c-.106-.176 0-.388.176-.493l7.368-3.665c.705-.353 1.092-1.269.74-1.974a1.463 1.463 0 0 0-2.009-.705l-7.439 3.701c-.176.105-.388 0-.493-.177l-.177-.352c-.07-.176-.035-.352.106-.458l6.381-4.3c.67-.458.917-1.374.493-2.079-.458-.705-1.41-.916-2.079-.458 0 0-10.083 5.991-11.74 6.837l3.032-2.22c2.82 1.762-.458-.74-2.503-.74-2.256 0-6.909 6.449-6.909 6.449-.177.493.317 1.48.881 2.149 3.314 8.141 3.878 9.375 4.971 11.489l8.249-4.476c2.397-1.304 4.97-2.114 7.685-2.502l.67-.105c.881-.071 1.445-.811 1.304-1.657z" fill="#B87D62"/><path d="M351.898 275.716l-.423 3.207 3.137-1.762.212-1.833-2.926.388z" fill="#F7F7F7"/><path d="M283.333 240.367s-9.624.987-15.617 3.312c-5.993 2.326-11.598 10.15-11.245 17.832.352 7.683 17.133 52.017 29.577 59.593 12.444 7.577 22.773 2.256 22.773 2.256l42.761-22.519s-3.666-16.493-8.919-21.11l-9.659 3.066-22.597-34.078c.035-.035-7.191-12.969-27.074-8.352z" fill="#9AA3DA"/><path d="M287.81 300.876c.036 0 .071 0 .106-.035.423-.176 40.858-16.845 54.677-20.828.67.74 3.878 4.723 6.592 13.181.035.176.211.246.388.211.176-.035.247-.211.211-.388-3.067-9.585-6.733-13.391-6.874-13.567l-.141-.141-.176.035c-13.643 3.876-54.501 20.722-54.924 20.898-.141.07-.246.247-.176.388.071.176.176.246.317.246z" fill="#294381"/><path d="M297.679 296.861c.071 0 .106 0 .176-.036.141-.105.177-.281.071-.422-.141-.177-12.585-18.714-19.46-30.731-.07-.141-.282-.211-.423-.105-.141.07-.211.281-.105.422 6.874 12.053 19.389 30.59 19.494 30.766.071.035.141.106.247.106zm29.506-11.559a.268.268 0 0 0 .176-.071.29.29 0 0 0 .036-.423c-.141-.211-15.758-20.052-20.2-27.276a.336.336 0 0 0-.423-.106.337.337 0 0 0-.106.423c4.442 7.259 20.094 27.136 20.235 27.312.106.105.176.141.282.141zm-65.182-17.797h.071c.176-.036.246-.212.211-.388-1.058-3.877.212-5.463.212-5.463.105-.14.105-.317-.036-.422-.141-.106-.317-.106-.423.035-.07.07-1.48 1.797-.352 6.026.07.141.176.212.317.212zm2.852 1.514c.035 0 .07 0 .105-.035.142-.07.212-.247.177-.423-1.587-3.665-.6-5.427-.6-5.427.071-.141.036-.352-.105-.423-.141-.106-.318-.035-.423.106-.036.07-1.199 2.009.564 5.991.035.141.141.211.282.211zm26.41-14.663h.882c.176 0 .317-.141.282-.317 0-.176-.141-.317-.318-.282-12.832.423-16.145-8.669-16.181-8.74-.035-.176-.211-.247-.387-.211-.177.035-.247.211-.212.352.035.071 3.349 9.198 15.934 9.198z" fill="#294381"/><path d="M292.004 249c5.393-.035 8.566-3.524 10.364-7.26-4.301-2.079-10.505-3.312-19.036-1.339 0 0-2.82.282-6.346.916 1.657 2.503 6.17 7.718 15.018 7.683z" fill="#B87D62"/><path d="M327.184 279.167a.338.338 0 0 0 .317-.247l.67-4.052-.07-.106-17.415-26.219c-.141-.247-1.974-3.384-6.205-5.992-3.983-2.466-10.893-4.863-21.257-2.466a.324.324 0 1 0 .141.634c10.153-2.361 16.886-.035 20.764 2.361 4.195 2.573 5.993 5.78 6.028 5.78v.035l17.344 26.149-.634 3.806c-.036.176.07.317.246.352.036-.035.036-.035.071-.035z" fill="#294381"/><path d="M298.416 216.227v13.462s.176 4.334-3.596 4.863l.705 5.78c.247 2.149-1.022 4.193-3.067 4.863a11.972 11.972 0 0 1-3.56.564c-4.336 0-6.663-3.242-7.016-4.863-.352-1.622.706-9.375.706-9.375l-.141-3.806.493-14.766 15.476 3.278z" fill="#B87D62"/><path d="M286.045 230.887s.247 7.224 9.307 7.929l-.529-4.264s-5.887 1.198-8.778-3.665z" fill="#9B583A"/><path d="M299.054 227.644s1.164 8.669-4.583 8.986c-8.249.458-9.024-4.264-9.518-8.105l-.07-7.93.247-2.29c.599.669.951 1.48 1.022 2.361.176 1.903.599 7.013 1.057 7.26.67.281 10.576-1.093 11.845-.282z" fill="#294381"/><path d="M287.983 223.311c-.035 0-.106 0-.141-.035a.17.17 0 0 1 0-.247c.035-.035 2.503-2.572 4.759-.74.07.071.106.176.035.247-.07.07-.176.105-.247.035-2.009-1.621-4.195.599-4.3.705 0 0-.071.035-.106.035zm-6.202-1.902l3.878.81.705.74s-.353-6.519-1.058-7.788c-.74-1.304-3.525 6.238-3.525 6.238zm13.642.81a.267.267 0 0 1-.141-.071c-.071-.07-.071-.176.035-.247.07-.07 1.798-1.55 2.89-.599a.218.218 0 0 1 .036.247.216.216 0 0 1-.247.035c-.846-.74-2.397.599-2.397.599-.106.036-.141.036-.176.036zm-4.336 2.326a.528.528 0 1 0 .001-1.057.528.528 0 0 0-.001 1.057zm5.746-.531a.528.528 0 1 0 .001-1.057.528.528 0 0 0-.001 1.057z" fill="#294381"/><path d="M283.896 227.082a3.243 3.243 0 1 0 0-6.486 3.243 3.243 0 0 0 0 6.486z" fill="#B87D62"/><path d="M283.33 225.635c-.669 0-1.128-.494-1.269-1.022-.176-.599.036-1.163.529-1.48.705-.458 1.375-.176 1.692.07-.141-.352-.352-.634-.669-.81-.635-.353-1.446-.106-1.446-.106-.035 0-.106 0-.106-.071 0-.035 0-.105.071-.105.035 0 .881-.282 1.586.105.423.212.705.635.811 1.199l.071.317-.247-.212c-.035-.035-.811-.775-1.728-.211-.493.317-.564.881-.423 1.269.106.423.494.881 1.093.881h.035c.036 0 .106.035.106.105 0 .036-.035.071-.106.071.036 0 .036 0 0 0zm10.188 2.045c-.035 0-.071-.035-.071-.07s0-.106.071-.106l1.798-.599-.564-4.264c0-.035.035-.106.07-.106s.106.035.106.071l.599 4.405-2.009.669c.035 0 .035 0 0 0z" fill="#9B583A"/><path d="M292.143 229.442c.07 0 3.56-.106 3.56-.106s-.458 1.445-1.762 1.48c-1.305.035-1.798-1.374-1.798-1.374z" fill="#FBFDFC"/><path d="M281.776 221.408s-1.093-6.309.846-8.67c1.939-2.361 13.043-6.484 14.383-5.286 1.339 1.163 0 2.608 0 2.608s4.441-1.445 5.464 2.537c1.022 3.947-8.567 5.639-14.313 3.771 0 0-3.772 1.093-6.38 5.04zm7.411 76.439h.036l8.39-1.163c.176-.035.282-.176.246-.352-.035-.177-.176-.282-.352-.247l-8.39 1.163c-.176.035-.282.176-.247.352a.338.338 0 0 0 .317.247zm48.256-22.451c.176 0 .317-.14.317-.317a.316.316 0 0 0-.317-.317l-9.624-.176a.316.316 0 0 0-.317.317c0 .176.141.317.317.317l9.624.176z" fill="#294381"/><path d="M370.584 268.561a2.855 2.855 0 1 0 0-5.71 2.855 2.855 0 0 0 0 5.71z" fill="#9AA3DA"/><path d="M350.349 289.072c.141 0-.141 1.41-.106 1.269l4.9-39.048c.106-.704.776-1.198 1.622-1.198h29.577a.316.316 0 0 0 .317-.317.316.316 0 0 0-.317-.317h-29.577c-1.164 0-2.115.74-2.256 1.762l-4.936 38.378c-.035.176.071-.282.247-.247.035 0 .493-.282.529-.282zm-49.076 35.732c-2.256 0-4.618-.317-7.015-.916-5.887-1.48-11.246-4.722-14.771-8.81-7.015-8.212-18.084-35.77-18.543-36.933-.07-.176 0-.423.212-.494.176-.07.423 0 .493.212.106.282 11.493 28.616 18.437 36.721 6.557 7.648 20.764 12.511 30.67 7.295a4969.3 4969.3 0 0 1 23.584-12.369.337.337 0 0 1 .494.176.336.336 0 0 1-.177.493c-.141.071-13.995 7.33-23.584 12.37-2.855 1.48-6.204 2.255-9.8 2.255z" fill="#294381"/><path d="M352.287 278.5l-2.644 1.445-.916 8.528.916 1.903s1.904.177 1.939-.246c.071-.423.705-11.63.705-11.63z" fill="#B87D62"/></svg>