<svg width="53" height="34" viewBox="0 0 53 34" fill="none" xmlns="http://www.w3.org/2000/svg"><path d="M50.877 4.475c-.608-.555-2.972-.485-5.336-.485-2.364 0-4.796 0-5.336.277-.54.208-1.689 3.054-3.175 5.968-1.688 3.332-3.782 6.455-5.066 6.455-1.688 0-1.283-5.483-1.215-9.439.067-2.637-.338-3.47-.743-3.747-.878-.625-3.378-1.25-3.378-1.25s-7.43-.555-8.443 2.707c1.419.208 3.85-.277 2.905 9.924-.068.486-1.149 4.72-4.593-.971-.879-1.388-4.188-9.924-5.337-9.924-3.85-.14-7.632-.278-8.983.485-1.216.694 1.688 6.593 6.552 14.436 3.985 6.384 8.173 11.45 15.468 12.7 1.35.139 4.93.277 6.079-.278.743-.416-.135-5.968 2.431-6.454 1.149-.208 5.607 5.76 7.295 6.454 1.014.417 3.242.555 5.539.486 2.5-.07 5.269.208 5.539-1.527.608-3.817-7.498-8.814-7.768-11.173-.203-1.666 2.972-4.858 4.593-7.218C50 8.986 52.16 5.516 50.877 4.475z" stroke="#fff" stroke-width="3.038"/></svg>