<svg width="294" height="276" viewBox="0 0 294 276" fill="none" xmlns="http://www.w3.org/2000/svg"><path d="M92.385 11.077C144.501-1.566 187.1 9.56 199.988 42.711c12.916 33.252-11.7 63.07 35.091 76.75 38.35 10.899 64.669 34.412 57.843 88.248-6.826 53.836-41.692 60.486-86.783 62.56-47.981 2.225-66.735-34.113-111.402-16.488C53.27 270.141 6.48 273.783.334 226.496c-3.597-27.689 22.97-36.944 28.012-58.514 6.996-29.889-6.996-41.091-11.216-61.068C6.678 57.276 42.422 25.162 92.385 11.077z" fill="#91DFEB"/><g clip-path="url(#a)"><path d="M149.408 221.231c-1.942 0-3.723.486-4.936 1.699-1.295 1.294-1.862 2.832-1.862 4.53 0 2.023.81 4.207 1.781 5.825.809 1.295 1.213 2.832 1.213 4.692 0 2.185-.647 4.935-1.78 8.171-.971 2.67-1.618 6.634-1.618 10.841 0 5.096 1.052 11.083 3.56 14.562 0 0 .971 3.397 6.312 3.964a9.803 9.803 0 0 0 1.456.081c3.885.081 5.098-2.185 5.584-2.185h.081c.809 0 2.023-.161 2.913-1.132 0 0 .566.162 1.295.162 0 0 1.78-.243 2.508-.971 0 0 .809.404 1.861.404 1.7.486 3.075-1.456 3.075-1.456l.081-.081c1.699-2.103-.243-5.177-2.508-5.177-.648 0-1.295.242-1.862.809 0 0-.89-.486-2.023-.486-.647 0-1.456.243-2.022.89 0 0-6.879-5.582-6.879-14.643 0-1.051.081-2.184.324-3.317 1.618-9.222 2.347-14.642 7.04-16.746-.081-.323-.405-.647-1.214-1.051-.647-.324-.89-.486-.89-.567 0-.162 1.052.081 1.942-.404.162-.081.324-.243.324-.324 0-.485-2.347-.809-3.237-2.346-.243-.404-.324-.647-.324-.809 0-.162.081-.162.243-.162.486 0 1.861.567 3.884.647h.809c.405 0 .567-.08.567-.161 0-.162-.89-.567-1.78-1.133h-.243c-2.347 0-4.774-.324-6.15-1.456-2.104-1.78-4.855-2.67-7.525-2.67z" fill="#fff" stroke="#0E80A4" stroke-miterlimit="10"/><path d="M149.003 266.049c-.081.081-.162.162-.081.162 0 0 0-.081.081-.162zm5.098-2.103c-3.237 0-4.693 1.537-5.098 2.103.486-.485 2.509-1.698 4.693-1.698 1.133 0 2.185.323 3.237 1.213 3.561 3.236 1.295 8.414 1.295 8.414 1.618-2.266 1.537-4.935.485-6.958-.89-1.78-2.589-3.074-4.45-3.074h-.162zm5.988 2.427c-.809-.081-1.052.243-1.133.324l-.324.08c.081 0 .567-.161 1.133-.08a2.75 2.75 0 0 1 2.023 1.294c1.133 1.861 0 4.53 0 4.53s1.861-2.912.081-5.096c-.647-.809-1.295-1.052-1.78-1.052zm5.664-1.132c-1.052-.729-1.456-.243-1.456-.243s.242-.162 1.213.404c.729.486 1.457 1.295 1.538 2.508.081 2.67-1.861 4.207-1.861 4.207s2.832-1.213 2.185-4.288c-.243-1.375-.891-2.103-1.619-2.588zm83.833-148.694c-35.038 0-47.176 36.486-63.198 48.459-1.78 1.294-3.561 2.346-5.422 2.993-.081 0-.162.081-.162.081-.081 0-.161.081-.242.081h-.324c-4.37 1.294-8.254 1.78-11.571 1.78-6.879 0-11.734-2.023-14.566-3.802 2.509 4.125 6.716 7.28 13.999 9.95 1.052.405 2.104.809 3.156 1.295 27.432-1.052 28.403-21.762 47.095-39.965l.081-.081c.081 0 .081-.081.081-.081l.081-.08.161-.162.162-.162.081-.081.162-.162.081-.081c9.791-9.222 20.796-13.51 30.183-13.51 9.872 0 17.964 4.773 21.039 13.591.89 2.589 1.295 5.259 1.295 8.009 0 14.805-12.462 30.338-28.241 34.059-1.861.404-3.642.647-5.341.647-15.455 0-23.709-16.665-14.889-27.02 0-.081.081-.081.081-.081s0-.081.081-.081c3.722-4.288 7.93-5.906 11.733-5.906 6.231 0 11.329 4.612 11.005 9.385v.242c-.485 4.773-3.722 6.31-5.664 6.391h-.081c-1.052 0-1.619-.404-1.295-.97 1.699-2.832-.324-4.773-2.994-4.773-1.295 0-2.751.485-4.046 1.537h-.081v.081c-2.994 2.75-1.699 11.083 5.988 11.083 1.942 0 4.289-.567 7.121-1.861h.162c11.895-5.663 8.173-26.859-8.739-26.859-2.752 0-5.826.567-9.306 1.78-.081 0-.081 0-.081.081h-.081c-22.01 8.414-18.288 42.715 9.306 42.715 3.156 0 6.635-.485 10.438-1.456 0 0 .081 0 .081-.081 19.987-5.259 31.478-24.027 31.478-40.369 0-13.915-8.416-26.13-27.027-26.697-.809.081-1.295.081-1.78.081z" fill="#0E80A4"/><path d="M125.132 275.514c-.566.081-1.052.081-1.457.081.486 0 .972-.081 1.457-.081zm-7.04-2.103h.081-.081zm.647-.081h-.647c.405.081.647 0 .647 0zm-3.641-1.132s-.566.161-1.295.161c.648 0 1.214-.161 1.295-.161zm-3.803-.89s-.809.404-1.861.404c1.052 0 1.78-.323 1.861-.404zm-4.936-1.133c0 .081 0 .081 0 0 0 .081 0 .081 0 0zm6.311-4.935c-1.051 0-2.022.486-2.022.486.08 0 .971-.486 2.022-.486zm-3.884-.323c-2.265 0-4.207 3.155-2.508 5.177-1.699-2.022.243-5.177 2.508-5.177zm12.786-13.43c0 9.061-6.879 14.643-6.879 14.643.081 0 6.879-5.582 6.879-14.643zm-.971-27.748c-1.457 1.132-3.885 1.456-6.15 1.456 2.265 0 4.693-.324 6.15-1.456zm7.282-2.508c-2.589 0-5.421.971-7.282 2.508 1.861-1.618 4.693-2.508 7.282-2.508z" fill="#FCCAA1"/><path d="M127.883 221.231c-2.589 0-5.421.971-7.282 2.508-1.457 1.132-3.885 1.456-6.15 1.456h-.243c-.89.566-1.78.971-1.78 1.133 0 .081.162.161.566.161h.809c2.104-.161 3.399-.647 3.885-.647.161 0 .242.081.242.162 0 .162-.081.405-.323.809-.891 1.537-3.237 1.861-3.237 2.346 0 .081.081.162.324.324.809.485 1.942.242 1.942.404 0 .081-.243.243-.891.567-.809.404-1.132.728-1.213 1.051 4.693 2.104 5.34 7.443 7.04 16.746.242 1.133.323 2.266.323 3.317 0 9.061-6.878 14.643-6.878 14.643-.566-.728-1.295-.89-2.023-.89-1.052 0-2.023.486-2.023.486-.647-.567-1.294-.809-1.861-.809-2.266 0-4.208 3.155-2.508 5.177l.081.081s1.375 2.023 3.074 1.456a4.594 4.594 0 0 0 1.862-.404c.728.809 2.508.97 2.508.97.728 0 1.295-.161 1.295-.161.809.89 2.104 1.132 2.913 1.132h.081c.404 0 1.699 2.185 5.583 2.185.486 0 .971-.081 1.457-.081 5.34-.567 6.311-3.964 6.311-3.964 2.509-3.479 3.561-9.466 3.561-14.562 0-4.126-.647-8.171-1.618-10.841-1.133-3.236-1.781-5.905-1.781-8.171 0-1.779.405-3.397 1.214-4.692 1.052-1.618 1.78-3.802 1.78-5.825 0-1.698-.485-3.316-1.861-4.53-1.456-1.052-3.237-1.537-5.179-1.537z" fill="#fff" stroke="#0E80A4" stroke-miterlimit="10"/><path d="M94.626 73.67c.647-2.67 1.375-6.229 1.699-7.604.08-.486.243-.89.485-1.294.567-1.052 1.376-1.7 2.67-1.538 1.134.162 2.186 1.052 2.347 2.346.081.81.081 1.78-.161 2.59-1.214 3.963-2.59 7.846-3.723 11.81-.566 1.78-.809 3.641-1.133 5.502-.161 1.051.243 1.456 1.295.97.89-.404 1.78-.97 2.59-1.537 1.132-.809 2.103-1.78 3.317-2.507 1.619-.89 3.399-.89 4.936.08 1.619.971 1.781 2.832.486 4.207-1.133 1.214-2.59 1.618-4.127 2.104-1.295.404-2.509.809-3.722 1.375-1.376.647-2.347 1.78-3.156 3.155-1.133 2.103-2.751 3.883-4.936 5.016-.486.243-1.214.404-1.7.566l-3.722 13.025c-.162.971-9.386-.647-9.225-1.618 0 0 1.861-12.216 1.942-12.701-1.213-.728-1.942-1.861-2.508-3.236-1.052-2.67-1.052-5.502-.89-8.333.08-1.294.323-2.67.323-3.964-.08-1.456-.323-2.912-.647-4.369-.485-2.427-1.052-4.773-1.537-7.2-.324-1.537-.324-2.993.97-4.126 1.295-1.132 2.995-.97 3.804.486.324.566.566 1.213.647 1.78.405 2.508.648 5.015.971 7.523 0 .243.243.405.486.324l.404-.162a.445.445 0 0 0 .243-.404c-.162-1.214-.243-2.266-.323-3.56-.324-2.912-.567-5.906-.89-8.818-.081-1.214.08-2.346 1.051-3.236.971-.89 2.104-1.214 3.318-.728 1.133.404 1.78 1.375 1.78 2.589.081 2.589 0 5.096 0 7.685 0 1.942-.08 3.398-.08 5.259 0 .161.161.323.323.404h.162c.162 0 .324-.162.404-.324.162-2.184.486-9.303.729-13.186.08-1.456.647-2.589 2.104-3.074 1.375-.486 2.508-.162 3.48.89.808.89.97 2.022.808 3.155-.404 2.184-2.104 10.76-2.59 13.267 0 .162.082.324.244.405.242.08.404 0 .485-.243.162-.647.324-1.618.567-2.75zm-7.121 17.798c1.133-3.56 5.017-5.582 9.791-4.854" stroke="#0E80A4" stroke-miterlimit="10"/><path d="M77.875 98.83c-.08-.08 1.7.486 2.509 3.398v.081c.162.081.323.162.404.243.971-.729 2.994-3.56 2.994-3.398.324.809.324 2.346.486 3.236.243.566.486.89.566 1.051l.081-.08c.081-.081.162-.324.324-.567.405-.809 1.052-2.346 1.376-2.669.323-.324.809-1.376.89-.89.08 1.132.89 4.692 1.375 4.287 3.48-2.669 4.694-3.56 4.694-3.478 0 .081-.081.081-.081.161-.81 1.618-2.428 5.259-3.399 8.576-1.861 6.229-3.641 17.151-3.965 20.548 3.075.567 17.398-23.461 25.571-24.998 9.305-1.699 21.281-.647 21.605-.485 1.052.324-25.004 45.465-20.554 37.052 1.781-3.317 1.619-11.65-.566-13.672-1.78 1.132-2.751 7.604-4.45 8.333-3.48 1.456-23.872 16.018-27.108 14.723-2.833-.89-7.04-4.53-6.798-7.281-1.132-6.633 6.798-37.456 4.046-44.17z" fill="#0E80A4"/><path d="M95.435 170.831S76.5 187.981 63.31 212.818c-13.11 24.836-2.266 23.622 3.722 22.49 2.832-.567 7.768.081 22.253-2.751 14.484-2.831 21.201 1.456 22.414 6.391.243.89 2.266-2.265 1.214-5.177-.566-1.618.243-1.052.971-.567.648.405 1.214.809.971.162-.566-1.618-1.375-1.942.648-2.993 2.023-1.052.242-.243-.971-.971-1.214-.728 1.861-.809 2.913-2.67 1.052-1.86-.243-.566-3.803-.323-3.561.242.971-.971 2.103-2.508 1.133-1.537-.566-.162-2.67.243-2.104.323 1.052-1.618 2.266-2.913 1.214-1.294-2.913-.404-3.318-.243-.404.162.243-.728.081-1.537-.081-.404-.243.405-.89 1.214-.647.809-1.861 1.537-3.965 1.213-4.37-.728-19.178-3.64-26.46-1.618-7.283 2.023-5.746.162-4.775-.404.971-.566-1.295-.486-.243-1.456 1.052-.971 10.682-15.209 26.38-22.167 15.698-6.957 19.259-8.413 35.928-6.795 16.669 1.699 16.669 3.397 29.94 9.222 13.271 5.744 16.265 7.686 14.727 7.847-1.537.081-1.537.729-.323 1.699 1.214 1.052-.971 1.295-4.289 2.508-4.855 1.699-9.225 5.097-11.571 6.958-5.017 3.964-7.04 6.229-13.109 2.831 0 0 .242 2.67 2.751 3.317 2.428.728-.081.728-1.133.89-1.133.162-.243.89.971.809 1.133-.081-.404.728-1.133 1.78-.485.647.324.485 1.295.242.486-.081 1.052-.242 1.537-.242 1.457 0-.323 0-.89 1.86-.566 1.861.567.728 1.861.567 1.214-.162-1.375 2.022-1.456 5.258-.081 3.155 1.133-.243 2.913-1.052 1.699-.809.081 1.457-.324 2.185-.323.728 1.295-.567 1.619-.89.404-.324 0 1.699.809 2.831.809 1.052-3.399-6.31 13.028-13.186 16.427-6.958 27.998-11.812 29.697-13.834 1.7-2.023 6.393-3.398-1.942-8.656-1.942-1.214-20.068-20.872-35.038-26.374-14.97-5.501-11.652-16.827-12.623-30.418-.971-13.591-1.619-25.726-.324-27.506.486-.728 3.722-12.701-2.104-13.348-6.069-.647-11.409-2.751-12.057-2.427-.566.324.081-5.097.162-6.067.081-.89-10.843.97-10.843.97s.566 4.531.405 6.149c-.243 1.618-10.682-4.45-18.612 5.905-4.45 5.825-21.12 18.122-16.588 61.565z" fill="#0E80A4"/><path d="M145.928 135.154c-10.196-24.351-29.94-24.351-41.349-8.575-4.046 7.685-9.872 22.894-3.965 40.126 0 0 1.78 15.694 22.09 19.173 4.046-1.052 7.931-1.294 13.676-.89 8.82-5.663 19.663-25.807 9.548-49.834z" fill="#fff" stroke="#0E80A4" stroke-miterlimit="10"/><path d="M127.641 100.934s-.162.161-.324.404c.243-.243.324-.404.324-.404zm68.7-45.223zm0-.162v.081-.08z" fill="#FDD7B7"/><path d="M108.625 171.154c0 .081 0 .081 0 0zm3.803-.89c-.081 0-.081 0 0 0 .081.162.242.324.404.486-.081 0-.162-.243-.404-.486zm.081-3.478s-.162 0-.486.081l.081.08c.081 0 .243-.08.405-.161z" fill="#E18F54"/><path d="M128.288 266.049a.25.25 0 0 1 .081.162c.081 0 0-.081-.081-.162zm-5.098-2.103h-.162c-1.861 0-3.56 1.294-4.451 3.074-1.052 2.023-1.132 4.692.486 6.958 0 0-2.266-5.259 1.295-8.414.971-.89 2.104-1.213 3.236-1.213 2.185 0 4.208 1.213 4.694 1.698-.405-.485-1.861-2.103-5.098-2.103z" fill="#0E80A4"/><path d="M117.283 266.373c.809-.081 1.052.243 1.133.324l.323.081c-.081 0-.566-.162-1.133-.081a2.757 2.757 0 0 0-2.023 1.294c-1.132 1.861 0 4.531 0 4.531s-1.861-2.913-.081-5.097c.648-.809 1.214-1.052 1.781-1.052zm-5.745-1.133c1.052-.728 1.456-.242 1.456-.242s-.243-.162-1.214.404c-.728.485-1.456 1.294-1.537 2.508-.081 2.67 1.861 4.207 1.861 4.207s-2.832-1.214-2.185-4.288c.324-1.375.971-2.103 1.619-2.589zM94.95 52.799s-2.671-23.542 10.195-35.11c-5.34-2.509-4.855-7.686-4.855-7.686s2.508 2.67 6.878 2.75C103.284 9.517 105.55 2.56 105.55 2.56s1.133 5.906 5.745 7.281c3.722-6.067 24.033-14.32 44.344-6.472 20.391 7.847 33.096 34.382 24.842 56.144.081 0-58.505 8.171-85.532-6.714z" fill="#0E80A4"/><path d="M87.585 64.205c0 .081-4.126-3.56-4.37-3.802-2.67-3.155-4.773-7.362-4.935-11.73-.162-5.34 1.537-11.326 6.15-14.077 3.722-2.184 8.658-2.022 12.218.405 4.694 3.155 8.173 13.105 8.335 19.82 0 0-13.837-1.78-17.398 9.384z" fill="#0E80A4"/><path d="M87.585 64.61c-.323 0-4.612-3.883-4.612-3.964-3.075-3.56-4.936-7.928-5.098-11.973-.162-5.016 1.376-11.488 6.312-14.4a10.731 10.731 0 0 1 5.017-1.537c2.67-.162 5.34.566 7.525 2.022 4.855 3.236 8.335 13.268 8.497 20.144v.404l-.405-.08s-1.537-.162-3.641-.081c-3.965.242-11.005 1.78-13.352 9.141v.324h-.243zm1.7-31.146c-1.7.162-3.318.647-4.694 1.456-4.612 2.75-6.15 8.899-5.907 13.753.162 3.883 1.862 8.009 4.856 11.487.242.243 2.913 2.59 3.884 3.48 2.589-7.363 9.71-8.9 13.837-9.142 1.537-.081 2.751-.081 3.398 0-.323-6.715-3.641-16.019-8.172-19.093-2.104-1.456-4.613-2.103-7.202-1.941zm89.658 31.55c8.82 2.104 16.184-10.193 18.045-18.121 1.052-4.45 2.185-9.546-3.237-14.077-.647-.566-2.104-1.456-3.317-1.86-7.526-2.994-13.19 2.67-16.67 8.899-3.479 6.148-5.421 12.782-2.185 18.687 1.295 2.427 2.752 5.097 7.121 6.553.081-.162.162-.162.243-.08z" fill="#0E80A4"/><path d="M181.533 65.58c-.891.082-1.781 0-2.671-.242l-.243-.081c-4.45-1.456-5.988-4.207-7.282-6.634l-.081-.08c-2.832-5.178-2.104-11.407 2.185-19.012 2.427-4.288 6.554-9.465 12.218-9.87a11.38 11.38 0 0 1 4.856.81c1.294.485 2.751 1.375 3.398 1.94 5.665 4.774 4.37 10.194 3.318 14.482-1.619 7.28-7.849 18.121-15.698 18.688zm4.207-35.11c-5.421.405-9.386 5.34-11.733 9.465-4.208 7.362-4.936 13.349-2.185 18.284l.081.08c1.295 2.428 2.67 4.855 6.878 6.31l.162.082a12.57 12.57 0 0 0 2.509.242c4.45-.323 12.299-6.229 15.131-18.04 1.052-4.369 2.266-9.223-3.074-13.753-.648-.566-2.023-1.375-3.237-1.86-1.457-.648-2.994-.972-4.532-.81z" fill="#0E80A4"/><path d="M105.145 52.88s-16.589-4.207-22.334 7.604c-5.098 10.436 10.439 45.061 55.349 43.443 27.836-1.052 48.956-14.4 50.17-33.978.809-10.274-12.866-18.93-20.311-17.717 0 0 1.942-31.55-15.698-31.389-10.277-.647-16.346 15.29-16.346 15.29s-.486-15.694-12.947-15.37c-9.387.323-19.34 11.082-17.883 32.116z" fill="#fff" stroke="#0E80A4" stroke-miterlimit="10"/><path d="M125.86 48.187c0 4.45-2.751 8.414-6.069 8.98-3.317.485-5.907-2.67-5.907-7.12.081-4.449 2.752-8.413 6.069-8.979 3.318-.485 5.988 2.67 5.907 7.12z" fill="#0E80A4"/><path d="M120.034 45.518c-.405.89-1.133 1.213-1.699.647-.567-.486-.648-1.618-.243-2.508.405-.89 1.133-1.213 1.699-.647.486.566.648 1.699.243 2.508z" fill="#FFFAED"/><path d="M157.014 46.327c1.133 4.61-.566 9.303-3.965 10.597-3.317 1.295-7.04-1.375-8.173-5.986-1.132-4.611.567-9.304 3.965-10.598 3.399-1.214 7.04 1.456 8.173 5.987z" fill="#0E80A4"/><path d="M149.165 45.76c-.324 1.052-1.133 1.537-1.861 1.214-.728-.405-1.133-1.537-.809-2.59.323-1.05 1.133-1.536 1.861-1.213.728.405 1.133 1.538.809 2.59z" fill="#FFFAED"/><path d="M106.601 74.48s6.474 13.752 24.681 14.561c21.767.89 28.888-13.833 28.888-13.833" stroke="#0E80A4" stroke-miterlimit="10"/><path d="M201.681 144.458s13.271 4.773 19.097 11.892c5.826 7.119 5.665 12.377 3.318 13.025-1.699.485-2.832-1.861-4.208-3.803 0 0-.485 4.045-2.023 6.472-1.214 1.942-2.508.971-2.508.971s.081 1.699-1.861 1.861c0 0 .242 3.478-2.752 3.478-2.994 0-2.67-4.449-3.479-8.575-.809-4.126-5.098-8.899-10.034-8.737-2.347.081-1.376 3.559-6.231 6.795-4.855 3.236-5.502-2.507-3.156-3.964 2.347-1.456 4.694-4.125 5.017-7.442.324-3.398 1.214-3.479 2.994-5.178.405-.404.89-1.456.89-1.456.89-1.375.89-2.508.89-2.508a11.268 11.268 0 0 0 1.942 2.831c.486-2.507-.242-4.125-.242-4.125.89 1.699 3.56 2.912 3.56 2.912-.243-2.589-1.456-4.207-1.456-4.207" fill="#fff"/><path d="M201.681 144.458s13.271 4.773 19.097 11.892c5.826 7.119 5.665 12.377 3.318 13.025-1.699.485-2.832-1.861-4.208-3.803 0 0-.485 4.045-2.023 6.472-1.214 1.942-2.508.971-2.508.971s.081 1.699-1.861 1.861c0 0 .242 3.478-2.752 3.478-2.994 0-2.67-4.449-3.479-8.575-.809-4.126-5.098-8.899-10.034-8.737-2.347.081-1.376 3.559-6.231 6.795-4.855 3.236-5.502-2.507-3.156-3.964 2.347-1.456 4.694-4.125 5.017-7.442.324-3.398 1.214-3.479 2.994-5.178.405-.404.89-1.456.89-1.456.89-1.375.89-2.508.89-2.508a11.268 11.268 0 0 0 1.942 2.831c.486-2.507-.242-4.125-.242-4.125.89 1.699 3.56 2.912 3.56 2.912-.243-2.589-1.456-4.207-1.456-4.207" stroke="#0E80A4" stroke-miterlimit="10"/><path d="M214.709 153.195s.567.889 1.376 2.184c.405.647.89 1.375 1.376 2.265.242.405.485.809.728 1.294.162.486.405.89.647 1.376.405.971.729 1.941.89 2.831.081.486.162.971.162 1.375 0 .486.081.89 0 1.295 0 .404-.081.728-.081 1.132 0 .324-.081.648-.161.809-.081.486-.162.729-.162.729s.081-.243.323-.729c.081-.242.162-.485.243-.809.081-.323.162-.728.243-1.132.162-.809.162-1.78 0-2.832-.162-.97-.486-2.022-.809-2.993-.162-.485-.405-.971-.648-1.456-.242-.405-.485-.89-.728-1.294-.243-.405-.485-.809-.809-1.133-.243-.324-.486-.728-.728-.971-1.133-1.294-1.862-1.941-1.862-1.941zm-3.479 2.184s.162.243.485.647c.324.405.729 1.052 1.295 1.861.243.404.566.809.809 1.213.243.486.567.89.89 1.376.162.242.243.485.405.728.162.242.243.566.404.809l.162.404.162.405c.081.323.162.566.243.89.162.566.162 1.213.243 1.86 0 .647.081 1.214 0 1.861-.081.566 0 1.213-.162 1.699-.081.566-.081 1.052-.243 1.537-.081.485-.162.89-.243 1.294-.081.405-.162.728-.242 1.052-.162.566-.162.89-.162.89s.081-.324.323-.89c.081-.243.243-.647.324-.971.081-.404.243-.809.324-1.294.162-.486.242-1.052.323-1.618.162-.566.162-1.133.243-1.78.081-.647.081-1.294.081-1.942 0-.647-.081-1.294-.243-1.941l-.242-.971-.162-.485-.243-.405a10.397 10.397 0 0 0-.89-1.618c-.324-.485-.647-.971-.971-1.375l-.971-1.214c-1.052-1.213-1.942-2.022-1.942-2.022zm-4.289 2.589s.243.162.728.566c.486.324 1.052.89 1.78 1.537.162.162.324.324.486.566.162.162.324.405.485.648l.486.728c.162.242.324.485.405.809.161.242.242.566.323.89.081.323.162.647.243.89l.486 1.941c.161.647.242 1.294.404 1.942.081.647.243 1.294.324 1.941.081.647.162 1.214.243 1.78.08.566.08 1.133.08 1.618 0 .485.081.971 0 1.375v.567c0 .161 0 .323-.08.485 0 .324-.081.566-.162.728 0 .162-.081.243-.081.243s0-.081.081-.243c.081-.162.162-.404.242-.728 0-.162.081-.324.081-.485 0-.162.081-.405.081-.567.081-.404.081-.89.081-1.456v-1.699c0-.566-.081-1.213-.081-1.86-.162-1.295-.323-2.589-.647-3.964l-.486-1.942a12.49 12.49 0 0 0-.647-1.861c-.162-.242-.324-.566-.485-.809-.162-.242-.324-.485-.567-.728-.162-.243-.404-.404-.566-.647-.162-.162-.405-.324-.567-.485a36.017 36.017 0 0 0-1.052-.809c-.323-.243-.647-.405-.89-.567-.404-.242-.728-.404-.728-.404zm-5.664-7.281c-.324-2.508-1.619-4.045-1.619-4.045 1.376.809 2.752.809 2.752.809l.566.162c1.295.243 2.508 0 1.78-.405-.89-.485-3.803-4.287-7.687-10.031-12.704-18.607-32.044-29.043-46.852-33.169-3.884-1.052-5.988 0-8.74-.162-1.78.324-4.774-.242-5.826 1.133-1.942 2.589-.404 5.501 2.023 7.2 1.78 1.213 4.532 6.067 6.555 6.795 9.71 1.376 26.217 8.414 35.604 16.18 10.196 8.333 15.941 12.459 16.508 14.239l1.78 1.699.404-2.67 2.752 2.265z" fill="#0E80A4"/><path d="M91.227 99.154c.485-.162 1.456-.486 1.942-.728 2.185-1.133 3.722-2.913 4.936-5.016a7.422 7.422 0 0 1 3.156-3.155c1.214-.566 2.427-1.052 3.722-1.375 1.538-.405 2.994-.89 4.127-2.104 1.295-1.375 1.133-3.236-.486-4.206-1.618-.971-3.317-1.052-4.936-.081-1.213.647-2.184 1.698-3.317 2.507-.81.567-1.7 1.214-2.59 1.538-1.052.404-1.456.08-1.294-.971.323-1.86.566-3.722 1.132-5.501 1.214-3.964 2.509-7.848 3.723-11.812.242-.809.242-1.78.162-2.588a2.747 2.747 0 0 0-2.347-2.347c-1.214-.161-2.104.486-2.67 1.538A3.573 3.573 0 0 0 96 66.147c-.404 1.941-1.861 8.252-2.347 10.355-.08.243-.242.324-.485.243a.445.445 0 0 1-.243-.405c.486-2.508 2.185-11.083 2.59-13.267.161-1.133 0-2.265-.81-3.155-.97-1.052-2.184-1.376-3.48-.89-1.456.485-2.022 1.618-2.103 3.074-.243 3.964-.647 11.002-.728 13.187 0 .161-.162.323-.405.323h-.162c-.162 0-.324-.162-.324-.404 0-1.861.081-3.317.081-5.259 0-2.589.081-5.096 0-7.685 0-1.214-.647-2.104-1.78-2.589-1.295-.485-2.427-.162-3.317.728-.972.89-1.133 2.023-1.052 3.236.323 2.912.566 5.906.89 8.818.162 1.214.243 2.346.323 3.56 0 .162-.08.323-.242.404l-.405.162c-.243.08-.486-.08-.486-.324l-.97-7.523a4.268 4.268 0 0 0-.648-1.78c-.89-1.456-2.59-1.618-3.803-.486-1.295 1.133-1.295 2.59-.971 4.126.485 2.427 1.052 4.773 1.537 7.2.324 1.457.567 2.913.648 4.369.08 1.294-.243 2.67-.324 3.964-.162 2.832-.08 5.663.89 8.333.567 1.375 2.104 2.993 3.237 3.64" fill="#fff"/><path d="M91.227 99.154c.485-.162 1.456-.486 1.942-.728 2.185-1.133 3.722-2.913 4.936-5.016a7.422 7.422 0 0 1 3.156-3.155c1.214-.566 2.427-1.052 3.722-1.375 1.538-.405 2.994-.89 4.127-2.104 1.295-1.375 1.133-3.236-.486-4.206-1.618-.971-3.317-1.052-4.936-.081-1.213.647-2.184 1.698-3.317 2.507-.81.567-1.7 1.214-2.59 1.538-1.052.404-1.456.08-1.294-.971.323-1.86.566-3.722 1.132-5.501 1.214-3.964 2.509-7.848 3.723-11.812.242-.809.242-1.78.162-2.588a2.747 2.747 0 0 0-2.347-2.347c-1.214-.161-2.104.486-2.67 1.538A3.573 3.573 0 0 0 96 66.147c-.404 1.941-1.861 8.252-2.347 10.355-.08.243-.242.324-.485.243a.445.445 0 0 1-.243-.405c.486-2.508 2.185-11.083 2.59-13.267.161-1.133 0-2.265-.81-3.155-.97-1.052-2.184-1.376-3.48-.89-1.456.485-2.022 1.618-2.103 3.074-.243 3.964-.647 11.002-.728 13.187 0 .161-.162.323-.405.323h-.162c-.162 0-.324-.162-.324-.404 0-1.861.081-3.317.081-5.259 0-2.589.081-5.096 0-7.685 0-1.214-.647-2.104-1.78-2.589-1.295-.485-2.427-.162-3.317.728-.972.89-1.133 2.023-1.052 3.236.323 2.912.566 5.906.89 8.818.162 1.214.243 2.346.323 3.56 0 .162-.08.323-.242.404l-.405.162c-.243.08-.486-.08-.486-.324l-.97-7.523a4.268 4.268 0 0 0-.648-1.78c-.89-1.456-2.59-1.618-3.803-.486-1.295 1.133-1.295 2.59-.971 4.126.485 2.427 1.052 4.773 1.537 7.2.324 1.457.567 2.913.648 4.369.08 1.294-.243 2.67-.324 3.964-.162 2.832-.08 5.663.89 8.333.567 1.375 2.104 2.993 3.237 3.64m6.151-6.633c1.133-3.56 5.017-5.583 9.791-4.854" stroke="#0E80A4" stroke-width=".75" stroke-miterlimit="10"/><path d="M133.143 62.668l-1.699.567c-1.781.647-3.723.647-5.503.08l-1.214-.404c-.566-.08-.809.566-.404.97l3.641 2.913a2.34 2.34 0 0 0 3.075-.08l2.832-2.428c.567-.566.162-1.699-.728-1.618z" fill="#0E80A4"/></g><defs><clipPath id="a"><path fill="#fff" transform="translate(57.079 .133)" d="M0 0h220.99v275.867H0z"/></clipPath></defs></svg>