<svg width="309" height="276" viewBox="0 0 309 276" fill="none" xmlns="http://www.w3.org/2000/svg"><path d="M221.582 5.13C172.269-7.645 131.96 3.599 119.766 37.099c-12.221 33.603-2.171 67.845-46.446 81.669C37.032 129.781-5.554 149.202.905 203.605c6.137 51.618 39.45 61.124 82.117 63.22 45.401 2.248 94.071-34.242 136.335-16.431 39.237 16.533 83.512 20.213 89.327-27.572 3.404-27.982-21.735-37.334-26.506-59.131-6.619-30.205 6.62-41.525 10.614-61.712 9.889-50.162-23.934-82.615-71.21-96.848z" fill="#91DFEB"/><mask id="a" maskUnits="userSpaceOnUse" x="0" y="0" width="309" height="267"><path d="M221.582 5.13C172.269-7.645 131.96 3.599 119.766 37.099c-12.221 33.603-2.171 67.845-46.446 81.669C37.032 129.781-5.554 149.202.905 203.605c6.137 51.618 39.45 61.124 82.117 63.22 45.401 2.248 94.071-34.242 136.335-16.431 39.237 16.533 83.512 20.213 89.327-27.572 3.404-27.982-21.735-37.334-26.506-59.131-6.619-30.205 6.62-41.525 10.614-61.712 9.889-50.162-23.934-82.615-71.21-96.848z" fill="#91DFEB"/></mask><g mask="url(#a)"><path d="M197.287 252.193c-.192.765-6.72 32.925 15.169 44.22 21.889 11.102 51.267 4.402 69.316-23.738 17.858-28.14 3.649-49.005-6.72-49.962-10.369-.958-14.593 10.911-13.633 15.314.96 4.403 3.264 7.657 6.913 7.083 3.648-.383 3.84-4.786 1.152-4.786-2.688.191-1.728-4.02 1.344-3.829 3.072 0 4.992 3.638 3.84 7.849-1.152 4.211-9.601 8.231-15.553 2.297-5.952-5.934-5.568-16.463.96-22.78 6.336-6.508 21.121-10.528 29.57-.191 8.449 10.528 7.872 23.928 7.296 29.48-.576 5.551-4.224 28.331-25.537 43.454-20.546 14.549-52.612 23.737-73.541-3.446-19.009-24.694-4.032-44.22-4.032-44.22l3.456 3.255zm-31.683 5.36l-.192-.192c-.192 0-.384-.191-.576-.191 0-.192 0-.192-.192-.383-3.84-2.297-7.489-4.977-10.945-7.849-3.264-2.871-6.336-5.934-9.792-8.805h-.192c-.192 0-.192.191 0 .382l.192.192c-4.033 3.828-7.297 8.423-10.561 12.826-3.264 4.402-6.144 8.997-9.025 13.782-2.88 4.595-5.376 9.572-6.528 14.932-.96 4.211-.384 8.423 2.88 11.103 1.344 2.297 2.304 4.977 3.072 7.465 1.152 3.638 2.304 7.466 3.265 11.295 2.112 8.231 4.8 16.654 3.84 25.268 0 .192.192.575.384.383 2.496-2.297 3.648-5.551 4.416-8.806.384 2.298.576 4.595.96 6.701 0 .191.192.191.384.191 1.536-.766 2.496-2.68 3.264-4.02l.576-1.149c1.345 1.532 3.457 2.68 4.993 3.829.192.191.576 0 .576-.192 0-.574-.192-1.148-.384-1.914-.384-.957-.384-2.106-.384-3.063v-1.723c.576.575 1.344 1.149 2.112 1.723 1.92 1.532 4.032 2.489 6.144 3.829.192.191.576-.191.384-.383-.96-1.723-1.92-3.446-2.304-5.36 0-.191-.192-.574-.192-.766 1.344.575 2.688 1.149 3.84 1.532 1.344.574 2.689.957 4.033.765.192 0 .384-.382.192-.382-1.536-1.532-2.689-3.446-3.841-5.36-1.152-1.723-2.496-3.446-3.648-5.169-2.496-3.637-4.8-7.274-7.104-10.911-2.304-3.829-4.225-7.849-5.953-12.06-.768-2.106-1.344-4.212-1.536-6.509v-1.723c1.728-4.211 4.609-7.848 7.681-11.103 6.144-6.508 13.633-11.485 20.161-17.611h.192c-.192.383.192-.383-.192-.574z" fill="#0E80A4"/><path d="M268.522 321.107l-1.728-2.297c-.768-1.149-1.536-2.106-2.304-3.254-2.497-4.786-4.801-9.763-7.105-14.74-2.88-6.318-6.336-12.06-9.985-17.995-3.456-5.551-6.912-11.103-11.52-15.888a145.604 145.604 0 0 1-7.105-8.232c-2.112-2.68-4.416-5.36-6.336-8.231-2.304-3.446-3.456-7.274-5.184-11.103 0 0 .192 0 .192-.191.192-.192 0-.575-.192-.383-5.185 3.637-10.561 6.317-16.129 8.805-5.377 2.489-10.945 4.786-15.938 8.232-.192 0-.192.191-.192.383 0 0-.192 0 0 .191h.192c1.153 1.149 2.497 1.914 3.841 2.68 9.792 6.892 19.777 13.592 29.57 20.674 5.184 3.638 9.792 8.04 13.248 13.4 3.649 5.743 5.377 12.06 7.105 18.569.768 3.254 1.536 6.509 2.112 9.763.384 1.723.576 3.446.768 5.36.192 1.531.384 2.871.768 4.403 0 .191.384.191.576 0 1.728-1.723 3.072-3.829 3.84-6.126.384 1.914.961 3.829 1.345 5.743 0 .191.192.191.384.191 2.112-1.531 3.456-4.02 4.032-6.7 1.728 2.297 4.224 4.02 7.104 4.595.192 0 .384-.192.384-.383 0-1.915-.384-3.637-.768-5.552 2.112 1.34 4.609 1.532 6.913 2.489.192 0 .384-.192.384-.383-.384-1.34-.768-2.68-1.344-4.02 1.152.574 2.496.957 3.84 1.149.192 0 .384-.192.384-.383-.576-.192-.96-.383-1.152-.766z" fill="#0E80A4"/><path d="M216.295 142.504c-3.648-6.317-14.017-4.212-21.313-3.063l-4.033.574c-2.304.383-4.608 1.149-6.912 1.34-1.344.192-2.688 0-3.84-.383-.384-.191-17.09-3.445-27.266 2.489-4.993 2.871-6.721 35.223-8.833 39.434-5.568 10.529-6.336 24.503-6.528 36.563-.192 9.763 2.304 21.249 8.064 29.097 12.481 16.655 33.603 17.803 52.036 12.06 6.144-1.914 13.057-5.36 18.241-9.571 4.032-3.254 2.688 1.148 4.992-3.637 3.84-8.423 3.264-14.549 3.456-23.737.192-9.38-2.688-29.48-5.952-37.712-1.92-4.786-2.112-10.911-2.688-15.888-.192-1.532 3.648-22.206.576-27.566z" fill="#0E80A4"/><path d="M161.38 172.175c-3.84 4.786-6.72 10.912-8.256 17.229-2.304 8.614-3.456 18.377-2.496 27.566.96 9.954 4.608 22.397 11.52 28.714 4.033 3.637 8.833 4.594 13.633 5.169 11.137 1.148 20.546-5.36 28.226-16.463 6.913-9.955 6.528-20.675 4.224-31.203-1.728-8.04-2.88-16.654-6.336-23.737-4.992-10.146-14.017-18.186-24.002-16.655-2.88.383-5.952 1.34-8.448 2.68-3.072 1.34-5.761 3.829-8.065 6.7z" fill="#fff"/><path d="M178.277 251.618c-.96 0-1.728 0-2.688-.191-4.609-.383-9.793-1.532-14.209-5.36-7.297-6.509-10.945-19.334-11.905-29.289-1.152-10.911.768-21.248 2.496-27.948 1.728-6.7 4.801-12.826 8.449-17.42 2.496-3.063 5.376-5.552 8.256-7.083 2.496-1.34 5.569-2.297 8.833-2.872.96-.191 1.728-.191 2.688-.191 9.985 0 18.049 8.997 22.273 17.229 2.881 5.551 4.033 12.06 5.377 18.568.384 1.914.768 3.637 1.152 5.552 1.92 9.188 3.264 21.057-4.416 31.968-7.681 11.486-16.705 17.037-26.306 17.037zm2.304-88.248c-.768 0-1.536 0-2.304.191-3.072.574-5.952 1.34-8.257 2.68-2.88 1.531-5.376 3.637-7.68 6.7-3.648 4.403-6.529 10.337-8.065 16.846-1.728 6.508-3.456 16.654-2.496 27.183.96 9.571 4.417 21.823 11.137 27.948 3.84 3.446 8.833 4.403 13.057 4.786 10.176.957 19.009-4.211 27.266-16.08 7.296-10.529 6.144-21.823 4.224-30.437a274.585 274.585 0 0 1-1.152-5.552c-1.152-6.125-2.496-12.634-5.185-17.994-4.032-7.849-11.52-16.271-20.545-16.271zm-51.266-83.08s-3.264-32.16 14.593-47.858c-7.297-3.445-6.528-10.528-6.528-10.528s3.456 3.637 9.408 3.829c-5.376-4.212-2.112-13.783-2.112-13.783s1.536 8.04 7.873 9.954c5.184-8.232 33.026-19.143 60.867-8.232 27.65 10.912 44.739 47.283 33.219 76.955-.384 0-80.646 10.337-117.32-10.337z" fill="#0E80A4"/><path d="M121.827 53.873c-2.305.191-4.609.765-6.529 1.914-6.336 3.637-8.448 12.06-8.256 18.568.192 5.169 2.496 10.912 6.528 15.698.384.382 4.032 3.637 5.376 4.785 3.649-9.954 13.441-12.06 19.01-12.251 2.112-.192 3.84 0 4.608 0-.384-9.189-4.8-21.823-10.945-26.226-2.88-1.723-6.336-2.68-9.792-2.488zm122.12 44.219c12.097 3.063 22.274-13.782 24.962-24.502 1.536-5.935 3.072-13.018-4.224-19.335-.96-.766-2.881-1.914-4.417-2.68-10.176-4.211-18.049 3.446-23.041 11.869-4.8 8.423-7.681 17.42-3.264 25.46 1.728 3.254 3.648 6.891 9.6 8.997.192.191.192.191.384.191z" fill="#0E80A4"/><path d="M246.828 100.007c-1.152 0-2.112-.192-3.264-.383l-.384-.192c-6.529-2.297-8.641-6.317-10.369-9.571l1.536-1.149.192.192c1.728 3.254 3.648 6.7 9.409 8.614l.384.192c.96.191 2.112.382 3.264.382l.192 1.915h-.96z" fill="#fff"/><path d="M247.787 67.846c-3.456 3.829-4.224 7.849-3.264 9.189-.96-1.34-.192-5.36 3.264-9.189z" fill="#D46E43"/><path d="M143.141 80.48s-15.746-5.36-23.81 10.72c-7.104 14.167 6.72 61.067 68.164 59.344 38.019-.957 62.596-20.866 64.517-47.666 1.344-13.974-12.673-23.929-23.042-22.397 0 0 4.608-39.052-21.121-43.072-13.825-.957-22.082 23.355-22.082 23.355s-.576-24.12-17.665-23.929c-12.865.383-30.722 17.037-24.961 43.646z" fill="#fff"/><path d="M184.422 151.501c-37.25 0-53.955-17.994-60.676-28.714-7.872-12.635-8.64-25.652-5.376-32.16 4.992-9.955 12.865-12.06 18.625-12.06 1.92 0 3.649.191 4.801.574-2.305-12.252.192-23.737 6.912-32.352 5.184-6.508 12.481-10.911 19.201-11.102h.384c13.057 0 16.897 13.782 18.05 20.865 3.072-6.891 10.752-21.057 21.889-20.291 23.617 3.828 22.465 36.563 21.889 43.071 5.953-.383 12.673 2.68 17.281 7.657 4.225 4.595 6.145 10.146 5.569 16.08-1.92 27.949-28.226 47.475-65.476 48.432h-3.073zm-47.427-70.829c-5.184 0-12.288 1.915-16.897 10.912-3.072 5.934-2.112 18.185 5.185 30.245 6.528 10.338 22.657 27.758 58.947 27.758h3.073c36.098-.958 61.636-19.718 63.556-46.709.576-5.36-1.344-10.529-5.185-14.549-4.032-4.402-9.6-7.082-14.785-7.082-.576 0-1.344 0-1.92.191l-1.152.191.192-1.148c0-.383 4.224-38.286-20.161-41.923h-.768c-12.673 0-20.545 22.397-20.545 22.589l-1.729 4.977v-5.36c0-.192-.768-22.972-16.513-22.972h-.192c-6.144.192-12.864 4.212-17.665 10.337-6.72 8.423-8.832 19.909-6.336 32.16l.384 1.723-1.536-.574c-.192 0-2.496-.766-5.953-.766z" fill="#0E80A4"/><path d="M171.558 74.547c-.192 6.126-3.84 11.486-8.448 12.06-4.609.574-8.065-3.829-7.873-9.763.192-6.126 3.84-11.486 8.449-12.06 4.416-.766 8.064 3.637 7.872 9.763z" fill="#0E80A4"/><path d="M163.687 70.718c-.576 1.149-1.536 1.531-2.304.957-.768-.766-.768-2.297-.192-3.445.576-1.149 1.536-1.532 2.304-.958.576.766.768 2.297.192 3.446z" fill="#FFFAED"/><path d="M213.8 72.441c1.344 5.934-.96 12.251-5.184 13.783-4.416 1.723-9.025-1.914-10.369-7.849-1.344-5.934.96-12.251 5.185-13.782 4.224-1.532 8.832 1.914 10.368 7.848z" fill="#0E80A4"/><path d="M203.432 71.484c-.384 1.34-1.536 2.106-2.688 1.531-.96-.574-1.536-2.105-1.152-3.445.384-1.34 1.536-2.106 2.688-1.532 1.152.574 1.536 2.106 1.152 3.446z" fill="#FFFAED"/><path d="M189.798 97.901l-1.92.766c-1.92.765-4.224.765-6.144 0l-1.344-.383c-.576-.192-.96.574-.384.957l4.032 3.254c.96.766 2.496.766 3.456 0l3.072-2.68c.576-.957.192-2.105-.768-1.914zM57.886 87.564c2.88 4.211 7.105 7.466 11.905 8.614 0 .957.576 1.914.96 2.68.576 1.34.96 2.872 1.92 3.829-.192.191-.192.574 0 .765 1.344.383 3.072-.191 4.416-.765 1.536-.575 3.072-1.34 4.417-2.297 1.344-.958 2.88-1.915 4.032-3.255.96-1.148 2.304-2.297 2.688-3.828.192 0 .192-.192.192-.383-.384-.957-.96-1.723-1.536-2.68-.384-.766-.96-1.532-1.344-2.297-.768-1.532-1.344-3.255-2.304-4.595 1.344-2.105 2.112-5.168 2.496-7.465.576-2.872 1.152-5.935.96-8.998 0-2.68-.576-5.742-2.688-7.274-1.92-1.34-4.416-1.723-6.72-1.914-.96-.191-1.729-.191-2.689-.191-1.344-4.02-3.456-7.658-5.952-10.912-1.92-2.489-4.416-5.934-7.68-5.36-2.497.574-3.457 3.254-2.88 6.126.383 1.914 1.343 3.828 2.687 5.36.96 1.148 1.344 2.488 2.496 3.637-1.152.383-2.496 1.34-3.072 2.68-.576.957-1.152 2.297-.768 3.254-.96 0-1.92.383-2.88 1.149-1.536 1.34-3.072 4.403-2.112 6.508l-.576.575c-.192.191-.192.191 0 .382-.576 2.68 0 6.126.576 8.615.576 2.871 1.728 5.743 3.456 8.04zm4.416-23.737c1.92.957 3.84 3.637 4.033 6.125 0 .383.192.957.192 1.34 0 .192 0 1.723-.192 2.297-.384 1.15-1.344 1.532-2.304 1.915-.385-2.489-1.153-5.169-3.073-6.317-1.728-.957-4.224-.575-5.952.383.192-1.723.384-4.02 1.92-5.17a4.66 4.66 0 0 1 5.376-.573zm1.537-6.7c2.304-.575 4.224.765 5.376 2.488-.96 1.149-1.728 3.063-1.536 4.595.384 2.297 1.536 3.637 3.264 4.402-.384.766-.768 1.915-1.536 2.297-.576.383-1.344.192-1.92.192v-.383c-.192-3.063-1.536-5.934-4.032-7.274-1.153-.766-2.305-1.149-3.265-1.149 0-.766.384-2.297.96-3.063.576-.957 1.536-1.722 2.689-2.105zm9.792.574c-1.152.191-2.496.574-3.648 1.34-.192 0-.192.191-.384.191-.96-2.105-3.648-3.254-5.76-2.871-1.153-2.871-3.457-4.594-4.609-7.657-.576-1.532-1.344-3.255-.384-4.786.96-1.34 2.688-1.723 4.032-.957 2.689 1.34 4.993 4.211 6.72 6.891 1.921 2.298 3.073 4.978 4.033 7.849zM55.39 78.949c-.384-1.53-.96-3.062-1.152-4.594 0-1.148.192-1.914 0-3.063 1.728-.383 4.032-1.914 5.952-1.34 1.92.766 2.496 3.255 2.88 5.36.385 2.106-.384 6.126-3.264 5.169-.96-.383-1.92-.957-2.496-2.106-.192-.574 0-1.723-.576-2.297-.192-.191-.384 0-.576.191 0 .575 0 1.15.192 1.723-.192 0-.576.192-.576.575 0 .383.384.383.768.383h.192c.768 1.53 2.304 2.68 3.648 2.68 2.496 0 3.84-2.298 3.649-4.978v-.191c.767.191 1.728-.574 2.304-1.34.576-.957.768-1.914.768-3.063.96.191 1.92-.191 2.688-.574.768-.575 1.536-1.532 1.728-2.489 1.152.383 2.304.383 3.456.383-.96.957-1.728 2.106-2.112 3.446-.576 2.488-.192 6.508 1.92 7.848a.424.424 0 0 0 .576-.574c-.576-.957-1.344-1.723-1.536-3.063-.384-1.148-.384-2.488 0-3.828.576-1.915 1.728-3.255 3.264-4.02.384 0 .96-.192 1.344-.192.769-.191.384-1.34-.192-1.148-2.112.383-4.416.957-6.336.191s-4.032-2.871-3.072-5.36c1.536-4.594 7.104-3.828 10.752-3.254 2.113.383 4.417 1.148 5.377 3.446.96 2.488.768 5.36.576 7.848-.192 2.489-.768 4.786-1.344 7.083-.576 2.106-1.536 4.02-2.112 6.126 0 .382.192.574.384.382.384 1.723 1.344 3.446 2.112 4.786.768 1.34 1.728 3.063 2.88 4.02-1.152.766-1.92 2.106-2.88 3.063a28.05 28.05 0 0 1-3.648 3.063c-1.537.957-3.073 1.723-4.609 2.297-.96.383-2.112.383-3.072.957 0-1.34-.96-2.871-1.344-4.02-.384-.765-.96-1.914-1.536-2.488 0-.192 0-.575-.384-.575-4.608-1.531-8.64-4.02-11.52-8.422-1.537-2.298-2.497-5.36-3.073-8.04z" fill="#0E80A4"/><path d="M161.765 159.924c1.344-4.977.192-8.997-1.92-12.826-.576 0-5.376-2.105-5.376-2.105-8.641-5.743-18.817 27.565-38.211-1.915-15.168-23.354-28.417-59.343-28.417-59.343-.576 1.34-3.265 4.403-3.265 4.403s-2.496 2.68-1.152 6.317c0 0-2.688-1.722-3.456-4.977 0 0-.768 2.872.576 7.083 0 0-1.536-1.723-2.112-2.871-.768-1.149-1.728 4.403-.192 7.465 0 0-2.112-.191-4.032-1.34 0 0-7.105-1.34-6.913-.765 2.689 7.657 20.162 49.963 42.627 72.36 19.777 19.525 42.243-8.423 49.155-5.935 1.344-1.914 2.304-3.828 2.688-5.551z" fill="#0E80A4"/><path d="M269.1 232.284c.192-.191.96.192.768.383-.192 0-.96-.191-.768-.383.192-.191.96.192.768.383-.192 0-.96-.191-.768-.383z" fill="#300100"/><path d="M280.428 225.584s16.129 11.103 21.313 22.78c5.184 11.677 3.072 18.569-.192 18.569-2.496 0-3.072-3.446-4.224-6.509 0 0-2.113 5.36-4.993 8.04-2.304 2.106-3.648.383-3.648.383s-.576 2.297-3.072 1.914c0 0-.96 4.786-4.992 3.637-4.033-.957-1.921-6.891-1.537-12.825.384-5.935-3.648-13.783-10.368-15.315-3.264-.765-3.072 4.212-10.945 6.892-7.68 2.68-6.528-5.36-2.88-6.509 3.648-1.148 7.872-3.828 9.409-8.231 1.728-4.403 2.88-4.212 5.952-5.935.768-.382 1.728-1.531 1.728-1.531 1.728-1.531 2.112-3.063 2.112-3.063.384 2.68 1.728 4.594 1.728 4.594 1.536-3.254 1.152-5.551 1.152-5.551.576 2.489 3.649 5.169 3.649 5.169.576-3.638-.384-6.126-.384-6.126" fill="#fff"/><path d="M281.58 275.547c-.384 0-.96 0-1.344-.191-3.84-.958-3.264-5.169-2.688-9.763.192-1.34.384-2.68.384-4.02.384-5.743-3.649-13.017-9.601-14.357-.768-.192-1.152.191-2.496 1.531-1.344 1.531-3.456 3.829-7.873 5.36-3.264 1.149-4.992.383-5.76-.383-.96-.957-1.344-2.297-.96-3.828.384-1.915 1.728-3.446 3.456-4.02 1.536-.575 6.913-2.489 8.833-7.658 1.344-3.828 2.688-4.402 4.8-5.551.384-.191.96-.383 1.536-.766.384-.191.96-.957 1.344-1.34 1.536-1.34 1.92-2.68 1.92-2.68l1.152-3.828.768 4.02.576 2.297c.576-1.723.384-3.063.384-3.063l1.921-.383c.192 1.149 1.152 2.297 2.112 3.254 0-2.297-.576-3.637-.576-3.637l.96-.383.768-1.148c.576.383 16.513 11.486 21.697 23.163 4.224 9.188 3.648 15.505 1.92 18.185-.768 1.149-1.92 1.723-3.072 1.723-2.496 0-3.456-2.297-4.416-4.977-.96 1.914-2.496 4.403-4.224 6.126-.96.957-2.113 1.531-3.073 1.34-.384 0-.576-.192-.768-.192-.576.766-1.344 1.532-2.88 1.532-.384.957-.96 2.297-2.304 3.063-.768.383-1.536.574-2.496.574zm-13.441-30.246c.192 0 .576 0 .768.192 7.104 1.531 11.521 9.954 11.137 16.271-.192 1.34-.192 2.872-.384 4.212-.576 4.402-.768 7.082 1.344 7.657.768.191 1.536.191 2.112-.192 1.344-.765 1.728-2.68 1.728-2.68l.192-.957.96.192c1.536.191 1.92-.766 2.112-1.149l.576-1.914 1.152 1.531s.192.192.576.383c.576 0 .96-.191 1.729-.766 2.688-2.488 4.8-7.657 4.8-7.657l.96-2.488.768 2.488c.192.383.384.957.384 1.34.96 2.68 1.536 4.594 2.88 4.594.576 0 .96-.382 1.344-.957 1.344-2.105 1.728-7.848-2.112-16.271-4.032-8.997-14.977-17.994-19.393-21.249.192 1.149.192 2.68 0 4.595l-.384 1.722-1.344-1.148s-1.344-1.149-2.496-2.68c-.192.766-.576 1.723-.96 2.68l-.769 1.531-.96-1.531s-.576-.957-1.152-2.489l-1.152 1.149c0 .191-.96 1.34-1.92 1.723-.576.383-1.152.574-1.536.765-1.92.958-2.688 1.34-3.84 4.595-1.536 4.02-5.185 7.274-9.985 8.805-.96.383-1.92 1.34-2.112 2.68 0 .383-.192 1.532.384 2.106.768.574 2.112.574 3.84 0 3.841-1.34 5.761-3.254 7.105-4.786 1.152-1.148 2.112-2.297 3.648-2.297z" fill="#0E80A4"/><path d="M294.829 242.047s.384 1.34.96 3.446c.384.957.576 2.297.96 3.445.192.575.384 1.34.576 1.915.192.765.192 1.34.384 2.105.192 1.34.192 2.872.192 4.212 0 .574-.192 1.34-.192 1.914-.192.574-.192 1.149-.384 1.723-.192.574-.384.957-.576 1.34l-.576 1.148c-.384.575-.576.958-.576.958s.192-.383.576-.766c.192-.192.384-.574.576-.957.192-.383.576-.957.768-1.34.384-1.149.768-2.297.96-3.829.192-1.34.192-2.871 0-4.403 0-.765-.192-1.531-.384-2.105-.192-.766-.384-1.34-.576-1.915-.192-.574-.384-1.34-.576-1.723-.192-.574-.384-1.148-.576-1.531-.768-2.489-1.536-3.637-1.536-3.637zm-5.568 1.723s.192.383.384 1.148c.192.766.576 1.723 1.152 2.872.192.574.384 1.34.576 1.914l.576 2.297c0 .383.192.766.192 1.149s.192.766.192 1.148v2.489c0 .766-.192 1.723-.384 2.488-.192.766-.384 1.723-.576 2.489-.192.766-.384 1.532-.768 2.297a9.315 9.315 0 0 0-.768 2.106c-.384.574-.576 1.149-.768 1.723-.192.574-.576.957-.768 1.34l-.576 1.148s.192-.382.768-.957c.192-.383.576-.765.768-1.148.384-.383.576-.957.96-1.723.384-.574.576-1.34.96-1.914.384-.766.576-1.532.96-2.298.384-.765.576-1.722.768-2.488.192-.957.384-1.723.384-2.68v-2.106l.192-.957a50.38 50.38 0 0 0-.576-2.489c-.192-.765-.576-1.531-.768-2.105-.384-.766-.576-1.34-.768-1.915-1.152-2.488-2.112-3.828-2.112-3.828zm-6.721 1.914s.384.383.768.957c.576.575 1.152 1.532 1.728 2.68.192.192.384.575.576.958.192.382.192.765.384.957.192.383.192.765.384 1.148.192.383.192.766.192 1.149s0 .766.192 1.34v4.02c0 .957-.192 1.914-.192 2.68 0 .957-.192 1.723-.192 2.68-.192.957-.192 1.723-.384 2.489-.192.765-.192 1.531-.384 2.297-.192.765-.192 1.34-.384 1.914 0 .383-.192.574-.192.766 0 .191-.192.383-.192.574-.192.383-.384.766-.384.957-.192.192-.192.383-.192.383s0-.191.192-.383c.192-.191.384-.383.576-.766.192-.191.192-.382.384-.574 0-.191.192-.574.384-.766.192-.574.384-1.148.576-1.914l.576-2.297c.192-.766.384-1.723.576-2.489.384-1.723.576-3.637.576-5.551v-2.872c0-.957 0-1.914-.192-2.68 0-.382-.192-.957-.384-1.34-.192-.382-.192-.765-.384-1.148-.192-.383-.384-.766-.576-.957-.192-.383-.384-.575-.576-.957-.384-.575-.768-1.149-1.152-1.532-.384-.383-.768-.766-.96-1.148-.96-.383-1.344-.575-1.344-.575zm-4.992-11.868c.384-3.446-.576-5.935-.576-5.935 1.537 1.532 3.457 2.106 3.457 2.106l.768.383c1.728.766 3.264.957 2.496.191-.96-.957-3.648-7.083-6.721-16.271-10.368-29.672-32.642-50.537-51.075-61.449-4.8-2.871-7.104-4.02-10.753-5.36-2.496-.191-7.104-.191-9.216 1.34-3.456 2.872-2.496 7.275.192 10.337 1.92 2.298 3.84 9.763 6.336 11.486 12.481 5.36 32.258 20.866 42.051 34.457 10.753 14.932 16.897 22.397 17.089 25.077l1.728 2.872 1.536-3.446 2.688 4.212zM182.31 128.338c-23.426 0-40.899-17.803-41.091-17.994l1.344-1.34c.192.191 18.049 18.377 41.475 17.228 29.378-1.148 46.467-14.165 46.659-14.357l1.152 1.532c-.192.191-17.857 13.4-47.811 14.74-.576.191-1.152.191-1.728.191z" fill="#0E80A4"/></g><path d="M129.315 80.29s-3.264-32.16 14.593-47.858c-7.297-3.445-6.528-10.528-6.528-10.528s3.456 3.637 9.408 3.829c-5.376-4.212-2.112-13.783-2.112-13.783s1.536 8.04 7.873 9.954c5.184-8.232 33.026-19.143 60.867-8.232 27.65 10.912 44.739 47.283 33.219 76.955-.384 0-80.646 10.337-117.32-10.337z" fill="#0E80A4"/><path d="M121.827 53.873c-2.305.191-4.609.765-6.529 1.914-6.336 3.637-8.448 12.06-8.256 18.568.192 5.169 2.496 10.912 6.528 15.698.384.382 4.032 3.637 5.376 4.785 3.649-9.954 13.441-12.06 19.01-12.251 2.112-.192 3.84 0 4.608 0-.384-9.189-4.8-21.823-10.945-26.226-2.88-1.723-6.336-2.68-9.792-2.488zm122.12 44.219c12.097 3.063 22.274-13.782 24.962-24.502 1.536-5.935 3.072-13.018-4.224-19.335-.96-.766-2.881-1.914-4.417-2.68-10.176-4.211-18.049 3.446-23.041 11.869-4.8 8.423-7.681 17.42-3.264 25.46 1.728 3.254 3.648 6.891 9.6 8.997.192.191.192.191.384.191z" fill="#0E80A4"/><path d="M246.828 100.007c-1.152 0-2.112-.192-3.264-.383l-.384-.192c-6.529-2.297-8.641-6.317-10.369-9.571l1.536-1.149.192.192c1.728 3.254 3.648 6.7 9.409 8.614l.384.192c.96.191 2.112.382 3.264.382l.192 1.915h-.96z" fill="#fff"/><path d="M247.787 67.846c-3.456 3.829-4.224 7.849-3.264 9.189-.96-1.34-.192-5.36 3.264-9.189z" fill="#D46E43"/><path d="M143.141 80.48s-15.746-5.36-23.81 10.72c-7.104 14.167 6.72 61.067 68.164 59.344 38.019-.957 62.596-20.866 64.517-47.666 1.344-13.974-12.673-23.929-23.042-22.397 0 0 4.608-39.052-21.121-43.072-13.825-.957-22.082 23.355-22.082 23.355s-.576-24.12-17.665-23.929c-12.865.383-30.722 17.037-24.961 43.646z" fill="#fff"/><path d="M184.422 151.501c-37.25 0-53.955-17.994-60.676-28.714-7.872-12.635-8.64-25.652-5.376-32.16 4.992-9.955 12.865-12.06 18.625-12.06 1.92 0 3.649.191 4.801.574-2.305-12.252.192-23.737 6.912-32.352 5.184-6.508 12.481-10.911 19.201-11.102h.384c13.057 0 16.897 13.782 18.05 20.865 3.072-6.891 10.752-21.057 21.889-20.291 23.617 3.828 22.465 36.563 21.889 43.071 5.953-.383 12.673 2.68 17.281 7.657 4.225 4.595 6.145 10.146 5.569 16.08-1.92 27.949-28.226 47.475-65.476 48.432h-3.073zm-47.427-70.829c-5.184 0-12.288 1.915-16.897 10.912-3.072 5.934-2.112 18.185 5.185 30.245 6.528 10.338 22.657 27.758 58.947 27.758h3.073c36.098-.958 61.636-19.718 63.556-46.709.576-5.36-1.344-10.529-5.185-14.549-4.032-4.402-9.6-7.082-14.785-7.082-.576 0-1.344 0-1.92.191l-1.152.191.192-1.148c0-.383 4.224-38.286-20.161-41.923h-.768c-12.673 0-20.545 22.397-20.545 22.589l-1.729 4.977v-5.36c0-.192-.768-22.972-16.513-22.972h-.192c-6.144.192-12.864 4.212-17.665 10.337-6.72 8.423-8.832 19.909-6.336 32.16l.384 1.723-1.536-.574c-.192 0-2.496-.766-5.953-.766z" fill="#0E80A4"/><path d="M171.558 74.547c-.192 6.126-3.84 11.486-8.448 12.06-4.609.574-8.065-3.829-7.873-9.763.192-6.126 3.84-11.486 8.449-12.06 4.416-.766 8.064 3.637 7.872 9.763z" fill="#0E80A4"/><path d="M163.687 70.718c-.576 1.149-1.536 1.531-2.304.957-.768-.766-.768-2.297-.192-3.445.576-1.149 1.536-1.532 2.304-.958.576.766.768 2.297.192 3.446z" fill="#FFFAED"/><path d="M213.8 72.441c1.344 5.934-.96 12.251-5.184 13.783-4.416 1.723-9.025-1.914-10.369-7.849-1.344-5.934.96-12.251 5.185-13.782 4.224-1.532 8.832 1.914 10.368 7.848z" fill="#0E80A4"/><path d="M203.432 71.484c-.384 1.34-1.536 2.106-2.688 1.531-.96-.574-1.536-2.105-1.152-3.445.384-1.34 1.536-2.106 2.688-1.532 1.152.574 1.536 2.106 1.152 3.446z" fill="#FFFAED"/><path d="M189.798 97.901l-1.92.766c-1.92.765-4.224.765-6.144 0l-1.344-.383c-.576-.192-.96.574-.384.957l4.032 3.254c.96.766 2.496.766 3.456 0l3.072-2.68c.576-.957.192-2.105-.768-1.914zM57.886 87.564c2.88 4.211 7.105 7.466 11.905 8.614 0 .957.576 1.914.96 2.68.576 1.34.96 2.872 1.92 3.829-.192.191-.192.574 0 .765 1.344.383 3.072-.191 4.416-.765 1.536-.575 3.072-1.34 4.417-2.297 1.344-.958 2.88-1.915 4.032-3.255.96-1.148 2.304-2.297 2.688-3.828.192 0 .192-.192.192-.383-.384-.957-.96-1.723-1.536-2.68-.384-.766-.96-1.532-1.344-2.297-.768-1.532-1.344-3.255-2.304-4.595 1.344-2.105 2.112-5.168 2.496-7.465.576-2.872 1.152-5.935.96-8.998 0-2.68-.576-5.742-2.688-7.274-1.92-1.34-4.416-1.723-6.72-1.914-.96-.191-1.729-.191-2.689-.191-1.344-4.02-3.456-7.658-5.952-10.912-1.92-2.489-4.416-5.934-7.68-5.36-2.497.574-3.457 3.254-2.88 6.126.383 1.914 1.343 3.828 2.687 5.36.96 1.148 1.344 2.488 2.496 3.637-1.152.383-2.496 1.34-3.072 2.68-.576.957-1.152 2.297-.768 3.254-.96 0-1.92.383-2.88 1.149-1.536 1.34-3.072 4.403-2.112 6.508l-.576.575c-.192.191-.192.191 0 .382-.576 2.68 0 6.126.576 8.615.576 2.871 1.728 5.743 3.456 8.04zm4.416-23.737c1.92.957 3.84 3.637 4.033 6.125 0 .383.192.957.192 1.34 0 .192 0 1.723-.192 2.297-.384 1.15-1.344 1.532-2.304 1.915-.385-2.489-1.153-5.169-3.073-6.317-1.728-.957-4.224-.575-5.952.383.192-1.723.384-4.02 1.92-5.17a4.66 4.66 0 0 1 5.376-.573zm1.537-6.7c2.304-.575 4.224.765 5.376 2.488-.96 1.149-1.728 3.063-1.536 4.595.384 2.297 1.536 3.637 3.264 4.402-.384.766-.768 1.915-1.536 2.297-.576.383-1.344.192-1.92.192v-.383c-.192-3.063-1.536-5.934-4.032-7.274-1.153-.766-2.305-1.149-3.265-1.149 0-.766.384-2.297.96-3.063.576-.957 1.536-1.722 2.689-2.105zm9.792.574c-1.152.191-2.496.574-3.648 1.34-.192 0-.192.191-.384.191-.96-2.105-3.648-3.254-5.76-2.871-1.153-2.871-3.457-4.594-4.609-7.657-.576-1.532-1.344-3.255-.384-4.786.96-1.34 2.688-1.723 4.032-.957 2.689 1.34 4.993 4.211 6.72 6.891 1.921 2.298 3.073 4.978 4.033 7.849zM55.39 78.949c-.384-1.53-.96-3.062-1.152-4.594 0-1.148.192-1.914 0-3.063 1.728-.383 4.032-1.914 5.952-1.34 1.92.766 2.496 3.255 2.88 5.36.385 2.106-.384 6.126-3.264 5.169-.96-.383-1.92-.957-2.496-2.106-.192-.574 0-1.723-.576-2.297-.192-.191-.384 0-.576.191 0 .575 0 1.15.192 1.723-.192 0-.576.192-.576.575 0 .383.384.383.768.383h.192c.768 1.53 2.304 2.68 3.648 2.68 2.496 0 3.84-2.298 3.649-4.978v-.191c.767.191 1.728-.574 2.304-1.34.576-.957.768-1.914.768-3.063.96.191 1.92-.191 2.688-.574.768-.575 1.536-1.532 1.728-2.489 1.152.383 2.304.383 3.456.383-.96.957-1.728 2.106-2.112 3.446-.576 2.488-.192 6.508 1.92 7.848a.424.424 0 0 0 .576-.574c-.576-.957-1.344-1.723-1.536-3.063-.384-1.148-.384-2.488 0-3.828.576-1.915 1.728-3.255 3.264-4.02.384 0 .96-.192 1.344-.192.769-.191.384-1.34-.192-1.148-2.112.383-4.416.957-6.336.191s-4.032-2.871-3.072-5.36c1.536-4.594 7.104-3.828 10.752-3.254 2.113.383 4.417 1.148 5.377 3.446.96 2.488.768 5.36.576 7.848-.192 2.489-.768 4.786-1.344 7.083-.576 2.106-1.536 4.02-2.112 6.126 0 .382.192.574.384.382.384 1.723 1.344 3.446 2.112 4.786.768 1.34 1.728 3.063 2.88 4.02-1.152.766-1.92 2.106-2.88 3.063a28.05 28.05 0 0 1-3.648 3.063c-1.537.957-3.073 1.723-4.609 2.297-.96.383-2.112.383-3.072.957 0-1.34-.96-2.871-1.344-4.02-.384-.765-.96-1.914-1.536-2.488 0-.192 0-.575-.384-.575-4.608-1.531-8.64-4.02-11.52-8.422-1.537-2.298-2.497-5.36-3.073-8.04z" fill="#0E80A4"/><path d="M161.765 159.924c1.344-4.977.192-8.997-1.92-12.826-.576 0-5.376-2.105-5.376-2.105-8.641-5.743-18.817 27.565-38.211-1.915-15.168-23.354-28.417-59.343-28.417-59.343-.576 1.34-3.265 4.403-3.265 4.403s-2.496 2.68-1.152 6.317c0 0-2.688-1.722-3.456-4.977 0 0-.768 2.872.576 7.083 0 0-1.536-1.723-2.112-2.871-.768-1.149-1.728 4.403-.192 7.465 0 0-2.112-.191-4.032-1.34 0 0-7.105-1.34-6.913-.765 2.689 7.657 20.162 49.963 42.627 72.36 19.777 19.525 42.243-8.423 49.155-5.935 1.344-1.914 2.304-3.828 2.688-5.551z" fill="#0E80A4"/><path d="M269.1 232.284c.192-.191.96.192.768.383-.192 0-.96-.191-.768-.383.192-.191.96.192.768.383-.192 0-.96-.191-.768-.383z" fill="#300100"/><path d="M280.428 225.584s16.129 11.103 21.313 22.78c5.184 11.677 3.072 18.569-.192 18.569-2.496 0-3.072-3.446-4.224-6.509 0 0-2.113 5.36-4.993 8.04-2.304 2.106-3.648.383-3.648.383s-.576 2.297-3.072 1.914c0 0-.96 4.786-4.992 3.637-4.033-.957-1.921-6.891-1.537-12.825.384-5.935-3.648-13.783-10.368-15.315-3.264-.765-3.072 4.212-10.945 6.892-7.68 2.68-6.528-5.36-2.88-6.509 3.648-1.148 7.872-3.828 9.409-8.231 1.728-4.403 2.88-4.212 5.952-5.935.768-.382 1.728-1.531 1.728-1.531 1.728-1.531 2.112-3.063 2.112-3.063.384 2.68 1.728 4.594 1.728 4.594 1.536-3.254 1.152-5.551 1.152-5.551.576 2.489 3.649 5.169 3.649 5.169.576-3.638-.384-6.126-.384-6.126" fill="#fff"/><path d="M281.58 275.547c-.384 0-.96 0-1.344-.191-3.84-.958-3.264-5.169-2.688-9.763.192-1.34.384-2.68.384-4.02.384-5.743-3.649-13.017-9.601-14.357-.768-.192-1.152.191-2.496 1.531-1.344 1.531-3.456 3.829-7.873 5.36-3.264 1.149-4.992.383-5.76-.383-.96-.957-1.344-2.297-.96-3.828.384-1.915 1.728-3.446 3.456-4.02 1.536-.575 6.913-2.489 8.833-7.658 1.344-3.828 2.688-4.402 4.8-5.551.384-.191.96-.383 1.536-.766.384-.191.96-.957 1.344-1.34 1.536-1.34 1.92-2.68 1.92-2.68l1.152-3.828.768 4.02.576 2.297c.576-1.723.384-3.063.384-3.063l1.921-.383c.192 1.149 1.152 2.297 2.112 3.254 0-2.297-.576-3.637-.576-3.637l.96-.383.768-1.148c.576.383 16.513 11.486 21.697 23.163 4.224 9.188 3.648 15.505 1.92 18.185-.768 1.149-1.92 1.723-3.072 1.723-2.496 0-3.456-2.297-4.416-4.977-.96 1.914-2.496 4.403-4.224 6.126-.96.957-2.113 1.531-3.073 1.34-.384 0-.576-.192-.768-.192-.576.766-1.344 1.532-2.88 1.532-.384.957-.96 2.297-2.304 3.063-.768.383-1.536.574-2.496.574zm-13.441-30.246c.192 0 .576 0 .768.192 7.104 1.531 11.521 9.954 11.137 16.271-.192 1.34-.192 2.872-.384 4.212-.576 4.402-.768 7.082 1.344 7.657.768.191 1.536.191 2.112-.192 1.344-.765 1.728-2.68 1.728-2.68l.192-.957.96.192c1.536.191 1.92-.766 2.112-1.149l.576-1.914 1.152 1.531s.192.192.576.383c.576 0 .96-.191 1.729-.766 2.688-2.488 4.8-7.657 4.8-7.657l.96-2.488.768 2.488c.192.383.384.957.384 1.34.96 2.68 1.536 4.594 2.88 4.594.576 0 .96-.382 1.344-.957 1.344-2.105 1.728-7.848-2.112-16.271-4.032-8.997-14.977-17.994-19.393-21.249.192 1.149.192 2.68 0 4.595l-.384 1.722-1.344-1.148s-1.344-1.149-2.496-2.68c-.192.766-.576 1.723-.96 2.68l-.769 1.531-.96-1.531s-.576-.957-1.152-2.489l-1.152 1.149c0 .191-.96 1.34-1.92 1.723-.576.383-1.152.574-1.536.765-1.92.958-2.688 1.34-3.84 4.595-1.536 4.02-5.185 7.274-9.985 8.805-.96.383-1.92 1.34-2.112 2.68 0 .383-.192 1.532.384 2.106.768.574 2.112.574 3.84 0 3.841-1.34 5.761-3.254 7.105-4.786 1.152-1.148 2.112-2.297 3.648-2.297z" fill="#0E80A4"/><path d="M294.829 242.047s.384 1.34.96 3.446c.384.957.576 2.297.96 3.445.192.575.384 1.34.576 1.915.192.765.192 1.34.384 2.105.192 1.34.192 2.872.192 4.212 0 .574-.192 1.34-.192 1.914-.192.574-.192 1.149-.384 1.723-.192.574-.384.957-.576 1.34l-.576 1.148c-.384.575-.576.958-.576.958s.192-.383.576-.766c.192-.192.384-.574.576-.957.192-.383.576-.957.768-1.34.384-1.149.768-2.297.96-3.829.192-1.34.192-2.871 0-4.403 0-.765-.192-1.531-.384-2.105-.192-.766-.384-1.34-.576-1.915-.192-.574-.384-1.34-.576-1.723-.192-.574-.384-1.148-.576-1.531-.768-2.489-1.536-3.637-1.536-3.637zm-5.568 1.723s.192.383.384 1.148c.192.766.576 1.723 1.152 2.872.192.574.384 1.34.576 1.914l.576 2.297c0 .383.192.766.192 1.149s.192.766.192 1.148v2.489c0 .766-.192 1.723-.384 2.488-.192.766-.384 1.723-.576 2.489-.192.766-.384 1.532-.768 2.297a9.315 9.315 0 0 0-.768 2.106c-.384.574-.576 1.149-.768 1.723-.192.574-.576.957-.768 1.34l-.576 1.148s.192-.382.768-.957c.192-.383.576-.765.768-1.148.384-.383.576-.957.96-1.723.384-.574.576-1.34.96-1.914.384-.766.576-1.532.96-2.298.384-.765.576-1.722.768-2.488.192-.957.384-1.723.384-2.68v-2.106l.192-.957a50.38 50.38 0 0 0-.576-2.489c-.192-.765-.576-1.531-.768-2.105-.384-.766-.576-1.34-.768-1.915-1.152-2.488-2.112-3.828-2.112-3.828zm-6.721 1.914s.384.383.768.957c.576.575 1.152 1.532 1.728 2.68.192.192.384.575.576.958.192.382.192.765.384.957.192.383.192.765.384 1.148.192.383.192.766.192 1.149s0 .766.192 1.34v4.02c0 .957-.192 1.914-.192 2.68 0 .957-.192 1.723-.192 2.68-.192.957-.192 1.723-.384 2.489-.192.765-.192 1.531-.384 2.297-.192.765-.192 1.34-.384 1.914 0 .383-.192.574-.192.766 0 .191-.192.383-.192.574-.192.383-.384.766-.384.957-.192.192-.192.383-.192.383s0-.191.192-.383c.192-.191.384-.383.576-.766.192-.191.192-.382.384-.574 0-.191.192-.574.384-.766.192-.574.384-1.148.576-1.914l.576-2.297c.192-.766.384-1.723.576-2.489.384-1.723.576-3.637.576-5.551v-2.872c0-.957 0-1.914-.192-2.68 0-.382-.192-.957-.384-1.34-.192-.382-.192-.765-.384-1.148-.192-.383-.384-.766-.576-.957-.192-.383-.384-.575-.576-.957-.384-.575-.768-1.149-1.152-1.532-.384-.383-.768-.766-.96-1.148-.96-.383-1.344-.575-1.344-.575zm-4.992-11.868c.384-3.446-.576-5.935-.576-5.935 1.537 1.532 3.457 2.106 3.457 2.106l.768.383c1.728.766 3.264.957 2.496.191-.96-.957-3.648-7.083-6.721-16.271-10.368-29.672-32.642-50.537-51.075-61.449-4.8-2.871-7.104-4.02-10.753-5.36-2.496-.191-7.104-.191-9.216 1.34-3.456 2.872-2.496 7.275.192 10.337 1.92 2.298 3.84 9.763 6.336 11.486 12.481 5.36 32.258 20.866 42.051 34.457 10.753 14.932 16.897 22.397 17.089 25.077l1.728 2.872 1.536-3.446 2.688 4.212zM182.31 128.338c-23.426 0-40.899-17.803-41.091-17.994l1.344-1.34c.192.191 18.049 18.377 41.475 17.228 29.378-1.148 46.467-14.165 46.659-14.357l1.152 1.532c-.192.191-17.857 13.4-47.811 14.74-.576.191-1.152.191-1.728.191z" fill="#0E80A4"/></svg>