<svg width="298" height="274" viewBox="0 0 298 274" fill="none" xmlns="http://www.w3.org/2000/svg"><path d="M212.328 17.664c-46.951-12.16-85.329-1.46-96.939 30.422-11.636 31.978-2.067 64.565-44.221 77.721C36.618 136.288-3.93 154.77 2.22 206.544c5.843 49.123 37.56 58.169 78.184 60.163 43.226 2.14 89.565-32.586 129.805-15.636 37.358 15.734 79.512 19.235 85.049-26.24 3.241-26.628-20.694-35.529-25.236-56.272-6.303-28.744 6.302-39.517 10.104-58.729 9.416-47.737-22.786-78.62-67.799-92.166z" fill="#91DFEB" fill-opacity=".2"/><mask id="a" maskUnits="userSpaceOnUse" x="0" y="17" width="298" height="257"><path d="M213.01 22.05c-47.459-12.297-86.252-1.476-97.988 30.765-11.761 32.34-2.089 65.293-44.7 78.598C35.4 142.013-5.585 160.703.63 213.061c5.907 49.677 37.967 58.826 79.03 60.843 43.693 2.164 90.534-32.955 131.209-15.814 37.761 15.912 80.371 19.453 85.968-26.535 3.276-26.929-20.918-35.93-25.509-56.908-6.371-29.068 6.371-39.963 10.214-59.391 9.518-48.276-23.033-79.509-68.532-93.207z" fill="#91DFEB"/></mask><g mask="url(#a)"><path d="M232.638 163.935s8.286-112.333-71.486-120.418c-79.706-8.15-78.193 72.04-78.193 72.04l14.073-.723s-5.656-57.777 49.323-61.852c55.966-4.075 72.473 44.04 71.42 111.019h14.863v-.066z" fill="#B7B7B7" stroke="#B7B7B7" stroke-width="8" stroke-miterlimit="10"/><path d="M212.975 266.803H103.741c-12.824 0-23.28-10.451-23.28-23.269V157.23c0-12.817 10.456-23.268 23.28-23.268h109.234c12.824 0 23.281 10.451 23.281 23.268v86.304c.066 12.752-10.457 23.269-23.281 23.269z" fill="#0E80A4"/><path d="M216.065 266.803H112.157c-12.823 0-23.28-10.451-23.28-23.269V157.23c0-12.817 10.457-23.268 23.28-23.268h103.842c12.824 0 23.281 10.451 23.281 23.268v86.304c.066 12.752-10.457 23.269-23.215 23.269z" fill="#30B7D6"/><path d="M161.023 243.14c20.63 0 37.354-16.716 37.354-37.335 0-20.62-16.724-37.335-37.354-37.335-20.631 0-37.355 16.715-37.355 37.335 0 20.619 16.724 37.335 37.355 37.335z" fill="#0E80A4"/><path d="M165.493 222.434h-9.01a.73.73 0 0 1-.723-.723v-33.128a.73.73 0 0 1 .723-.723h9.01a.73.73 0 0 1 .723.723v33.128c.066.395-.329.723-.723.723z" fill="#086B82"/><path d="M162.6 223.815h-3.156c-4.275 0-7.76-.855-7.76-1.907v-11.437c0-1.051 3.485-1.906 7.76-1.906h3.156c4.275 0 7.761.855 7.761 1.906v11.437c0 1.052-3.486 1.907-7.761 1.907z" fill="#086B82"/><path d="M66.78 94.655c5.525-3.09 12.628-1.577 17.955 1.052 9.601 4.732 11.18 17.681 8.549 26.818a38.756 38.756 0 0 1-4.077 9.071c-2.04 3.286-4.012 6.638-5.064 10.451-.987 3.549.526 7.493 2.17 10.648 3.88 7.493 13.942 11.043 22.031 9.005 11.64-2.892 14.271-14.066 13.35-24.714-.263-2.695-.723-5.39-1.118-8.02-.131-1.051-1.118-4.601-.329-5.521 1.513-1.709 4.406 5.719 4.735 6.77 1.644 4.799 2.631 11.306 1.842 16.301-.987 6.245-3.617 11.832-8.352 16.301-8.879 8.348-24.004 4.602-32.027-2.826-4.275-3.944-7.037-9.925-7.037-15.775 0-3.484 1.512-6.902 3.025-9.925 1.907-3.813 4.011-7.231 5.327-11.372 1.973-6.178 2.367-14.789-2.105-20.047-4.34-5.193-18.282-8.874-20.781-.066-.724 2.629-.987 7.296-.066 9.925.79 2.169 2.433 4.207 4.8 4.47 1.185.131 4.21-2.038 2.105-2.761-1.183-.394-1.973-1.38-1.973-2.629v-.263c-.065-2.235 2.302-3.155 4.078-2.366 2.236.986 5.13 3.286 4.8 6.113-.46 3.417-2.696 5.258-5.787 6.507-6.84 2.892-12.232-4.536-13.416-10.254-1.25-6.573 1.381-13.606 7.366-16.893z" fill="#0E80A4"/><path d="M179.762 95.247c-1.644 0-2.894-.79-3.749-1.315l-.065-.066c-.198-.131-.461-.197-.789-.197-.987 0-2.039.526-2.039.526-.066 0-.066 0-.132.066-.394 0-3.156-.066-4.34-2.104-1.381-2.432.329-3.55 1.512-4.338 1.184-.789 1.381-1.117 2.105-2.432.131-.197.263-.46.394-.723.132-.197.264-.394.329-.591.921-1.644 1.71-3.09 4.472-5.062 0 0 2.434-2.235 3.749-3.55.329-.328.526-.59.789-.854.789-.92 1.447-1.709 4.406-2.958 2.236-.986 4.012-1.446 5.459-1.446 1.315 0 2.367.46 2.959 1.315a.925.925 0 0 1 .132.92c-.264.657-1.184 1.25-2.763 1.578-1.644.394-3.288 1.117-4.735 1.972-.394.263-1.118 1.051-1.709 1.774a56.993 56.993 0 0 1 3.485-1.709c1.841-.723 4.077-1.577 5.722-1.577h.394c1.25.131 2.565.854 3.025 1.709.263.394.263.789.132 1.117-.395 1.052-1.513 1.183-2.368 1.183-.329 0-.789 0-1.249-.065h-.197c-1.184 0-3.289 1.051-4.472 1.774 1.249-.131 3.156-.328 4.274-.328h.592c.921.131 2.631.92 3.223 2.037.328.592.328 1.183 0 1.84-.264.46-1.71.724-2.96.724h-1.184c-.723 0-1.578-.066-2.433-.066h-.263c.197 0 .395.066.592.132.921.263 2.828 1.774 3.222 2.169.395.328.592.986.592 1.577 0 .46-.197.855-.46 1.118-.263.262-.658.394-1.118.394-.789 0-1.776-.394-2.631-.789-1.183-.526-2.63-.854-3.88-.854h-.46c-.987.066-1.118.394-1.381 1.117-.066.197-.132.46-.329.723l-.197.395c-.592 1.38-1.644 3.615-3.88 4.47-.526.262-1.118.394-1.776.394z" fill="#fff"/><path d="M191.864 70.4c1.249 0 2.17.395 2.762 1.25.46.657-.197 1.577-2.499 2.168-2.302.592-4.012 1.512-4.801 2.038-.789.46-2.565 2.827-2.565 2.827s2.828-1.578 4.604-2.301c1.644-.657 4.011-1.578 5.59-1.578h.394c1.644.198 3.354 1.447 2.96 2.433-.329.723-1.052.985-2.105.985-.394 0-.789 0-1.183-.065h-.198c-1.841 0-5.59 2.432-5.59 2.432s3.683-.46 5.393-.46h.526c1.184.131 4.012 1.577 3.025 3.549-.131.263-1.315.592-2.696.592h-.132c-.789 0-2.17-.066-3.551-.066-1.249 0-2.433.066-3.288.263 0 0 2.63.066 3.485.329.855.262 2.631 1.643 3.157 2.103.46.46.855 1.643.132 2.3-.263.198-.526.329-.921.329-.723 0-1.644-.394-2.499-.723-1.118-.526-2.565-.855-4.012-.855h-.46c-1.513.066-1.381.855-1.907 1.972-.526 1.184-1.513 3.879-3.88 4.799-.592.197-1.184.328-1.71.328-1.644 0-2.894-.788-3.749-1.314a2.1 2.1 0 0 0-.92-.197c-1.053 0-2.171.591-2.171.591h-.065c-.329 0-2.96-.066-4.078-2.038-1.184-2.103.066-3.089 1.447-4.009 1.447-.92 1.513-1.315 2.565-3.22 1.052-1.907 1.644-3.419 4.735-5.654 0 0 2.433-2.234 3.814-3.549 1.381-1.315 1.315-2.103 5.13-3.747 2.038-.986 3.88-1.512 5.261-1.512zm0-.46c-1.447 0-3.223.46-5.524 1.447-3.025 1.314-3.749 2.169-4.472 3.023-.263.263-.461.526-.789.855-1.25 1.248-3.552 3.286-3.749 3.549-2.828 2.038-3.551 3.484-4.472 5.127-.132.197-.197.394-.329.591a7.166 7.166 0 0 1-.394.724c-.724 1.314-.921 1.577-2.039 2.366-1.184.789-3.157 2.103-1.578 4.667 1.249 2.169 4.208 2.234 4.537 2.234h.066c.066 0 .132 0 .197-.065 0 0 1.053-.526 1.908-.526.263 0 .526.066.657.131l.066.066c.855.526 2.17 1.315 3.88 1.315.592 0 1.25-.132 1.841-.329 2.368-.854 3.42-3.286 4.012-4.601l.197-.394c.132-.329.198-.526.329-.79.263-.722.329-.92 1.184-.92h.46c1.25 0 2.631.33 3.815.79.855.394 1.841.788 2.696.788.526 0 .921-.131 1.249-.46.329-.329.527-.789.527-1.315 0-.591-.264-1.314-.658-1.709-.395-.328-1.513-1.314-2.499-1.84.46 0 .855.066 1.249.066.461 0 .79.066 1.118.066h.132c1.118 0 2.828-.264 3.157-.855a2.233 2.233 0 0 0 0-2.038c-.724-1.314-2.565-2.103-3.42-2.169-.132 0-.329-.066-.592-.066-.789 0-1.973.132-3.025.198 1.184-.592 2.499-1.183 3.288-1.183h.132c.526.065.92.065 1.249.065.526 0 2.039 0 2.565-1.314.131-.263.197-.723-.132-1.315-.526-.854-1.973-1.643-3.222-1.775h-.46c-1.645 0-3.946.855-5.788 1.578-.723.263-1.578.723-2.367 1.117.329-.328.592-.591.789-.723a15.363 15.363 0 0 1 4.669-1.972c1.644-.394 2.631-.986 2.96-1.774a1.15 1.15 0 0 0-.198-1.118c-.723-1.052-1.775-1.512-3.222-1.512z" fill="#0E80A4"/><path d="M185.09 82.692c-.329-.066-.723 0-1.052 0-.526.066-1.118.197-1.578.395-.132 0-.395.131-.329.328.723 3.418-2.302 5.127-5.195 5.259-.066 0-.066.131 0 .131 1.578.197 3.156-.066 4.406-1.117 1.118-.92 1.644-2.695 1.381-4.141.394-.132.789-.263 1.249-.329.461-.066.921-.066 1.381-.131 1.118.46 2.96.854 3.88-.066 1.184-1.249.527-2.432-.789-3.155-3.617-1.906-9.075-2.958-12.298.263-.065.066.066.263.132.197 1.249-.92 2.762-1.775 4.406-1.84 1.381-.066 3.288.262 4.669.657 1.118.328 3.223.986 3.946 2.037.526.79-.394 1.578-.986 1.84-.395.132-.921.067-1.316.067" fill="#0E80A4"/><path d="M189.694 84.27c-.724-.066-1.381-.132-2.105 0-.789.131-1.447.723-2.038 1.183-.066.066-.066.197.065.131.724-.263 1.381-.657 2.105-.854.657-.132 1.381-.132 2.038-.263.132.066.066-.197-.065-.197z" fill="#0E80A4"/><path d="M213.7 131.464a4.34 4.34 0 0 1-1.973-.46c-1.644-.789-2.433-1.841-2.499-3.55-.131-1.512-.592-2.3-1.71-2.892-.46-.263-.986-.46-1.447-.657a14.986 14.986 0 0 1-1.512-.658.67.67 0 0 1-.329-.394c-.46-.263-.723-.723-.855-1.249-.263-.986.263-2.169.723-2.892.724-.986 2.302-2.366 3.749-2.366.395 0 .723.131 1.052.263a.89.89 0 0 1 .198.263 9.761 9.761 0 0 0 2.236.262h1.775c.855 0 1.71 0 2.499-.197 2.499-.657 4.275-3.023 5.787-5.192l.461-.658c1.052-1.446 2.302-3.089 3.748-4.141-.197-1.84.198-3.615 1.053-4.864.723-1.117 2.236-1.972 3.551-1.972.263 0 .46.066.658.066 1.446.329 1.972 1.643 1.907 2.826.789.132 1.249.526 1.447 1.052.131.395.197.723.131 1.183.526.066.921.329 1.184.723.197.263.329.723.131 1.381.329.065.592.263.724.526.197.394.197.985-.066 1.511.329.132.526.395.658.723.197.526 0 1.249-.527 1.775-.657.723-1.775 1.446-2.893 1.578-.658 3.155-3.486 5.192-6.05 6.967-.592.46-1.184.854-1.776 1.249-1.447 1.117-2.631 2.498-3.814 3.878-.921 1.052-1.842 2.169-2.96 3.155-1.841 1.84-3.617 2.761-5.261 2.761z" fill="#fff"/><path d="M230.141 100.505c.197 0 .395 0 .592.066 1.315.328 1.841 1.577 1.71 2.76.592.066 1.249.329 1.512.92.132.395.132.855.066 1.249 1.052.066 1.776.789 1.315 1.972 0 .066 0 .066-.065.132 1.052 0 1.249 1.051.657 1.972 1.052.263 1.052 1.446.329 2.234-.658.789-1.841 1.447-2.894 1.512-.723 3.944-4.8 6.047-7.76 8.282-2.63 2.038-4.34 4.864-6.774 7.099-1.446 1.315-3.222 2.564-5.129 2.564-.592 0-1.25-.132-1.842-.395-1.512-.723-2.236-1.709-2.367-3.352-.066-1.38-.526-2.432-1.841-3.089-.987-.526-1.973-.789-2.96-1.315a.362.362 0 0 1-.197-.329c-1.381-.723-.987-2.629-.132-3.812.658-.92 2.171-2.301 3.552-2.301.328 0 .657.066.92.263.066.066.132.132.132.198.789.263 1.644.263 2.499.263h1.776c.854 0 1.775 0 2.499-.198 2.762-.723 4.669-3.483 6.247-5.718 1.118-1.512 2.368-3.352 3.946-4.338-.197-1.644.132-3.55.986-4.864.592-.921 1.973-1.775 3.223-1.775zm0-.526c-1.381 0-2.959.854-3.749 2.038-.855 1.249-1.249 3.089-1.118 4.864-1.446 1.051-2.63 2.629-3.682 4.075l-.132.197-.329.46c-1.512 2.104-3.222 4.404-5.656 5.061-.723.198-1.578.198-2.433.198h-1.775c-.592 0-1.381 0-2.105-.198l-.197-.197a2.276 2.276 0 0 0-1.184-.328c-1.513 0-3.222 1.446-3.946 2.497-.526.789-1.052 1.972-.789 3.09.132.526.46.986.921 1.314.066.198.197.329.394.46.526.263 1.053.461 1.513.658.46.197.986.394 1.447.657 1.052.526 1.512 1.249 1.578 2.695.132 1.775.921 2.958 2.631 3.747.657.328 1.381.46 2.104.46 1.71 0 3.551-.921 5.524-2.695 1.118-.986 2.039-2.104 2.96-3.221 1.183-1.38 2.301-2.761 3.748-3.812.526-.395 1.118-.855 1.776-1.249 2.499-1.775 5.327-3.747 6.116-6.902 1.184-.197 2.302-.92 2.894-1.643.526-.592.723-1.381.526-2.038-.066-.328-.329-.591-.592-.789.197-.525.197-1.117-.066-1.511-.131-.263-.395-.46-.658-.592.132-.657-.065-1.052-.263-1.38-.263-.395-.592-.658-1.118-.723 0-.395-.065-.723-.197-1.052-.197-.592-.723-.986-1.447-1.183 0-1.446-.789-2.564-2.104-2.892-.066 0-.329-.066-.592-.066z" fill="#0E80A4"/><path d="M225.011 114.834c0-.132-.198-.132-.198 0-.526 3.352-2.499 6.573-5.195 8.611-.066.065 0 .197.066.131 3.091-1.38 5.195-5.521 5.327-8.742zm7.629-11.832c-.066-.131-.198-.131-.264 0-.328.921-.46 1.709-.986 2.498-.526.855-1.315 1.578-2.104 2.235-.066 0 0 .066.065.066 1.316-.658 3.749-3.09 3.289-4.799zm1.512 2.038c-.066-.131-.197-.066-.197 0-.461 1.249-1.053 2.695-2.434 3.221-.065 0 0 .066 0 .066 1.184-.395 3.026-1.907 2.631-3.287zm1.315 2.169c0-.131-.197-.197-.263 0-.263 1.183-1.447 2.235-2.631 2.629 1.184-.065 2.96-1.314 2.894-2.629zm.789 2.103c0-.131-.197-.263-.263-.131-.592.92-1.249 1.709-2.302 1.972-.065 0-.065.131 0 .066.987-.066 2.434-.789 2.565-1.907zm-5.458-.92c-.066-.065-.131 0-.066.066 1.579 1.643 2.565 3.55 2.302 5.85 0 .132.132.197.263.066 1.118-2.038-1.184-4.667-2.499-5.982zm-3.223-1.38c-.855-.329-1.71-.066-2.367.46-.132.131 0 .263.131.197.329-.131.658-.394.987-.526.394-.131.789-.131 1.184-.065.131 0 .131-.066.065-.066zm-97.463-32.865s7.892-3.155 12.758-1.249c3.815 1.578 4.538 7.954 6.182 10.386 3.683 5.587 3.683 7.362 6.248 9.005 2.565 1.643 7.694-.526 11.114-2.366 3.42-1.84 4.472-4.667 4.472-4.667s1.381 1.314.066 3.418l2.236-1.184s.131 1.841-1.052 2.893c0 0 2.038-.395 2.499.394.46.855-1.513 1.775-1.513 1.775s2.236.46 2.696 1.38c0 0-1.512 0-3.814 1.578-2.302 1.577-16.901 9.202-21.571 4.075l3.683 8.808s6.971-4.601 10.259-4.667c3.354-.066 5.656 5.521 7.234 9.531 0 0 7.563-3.352 18.349-2.958 10.851.394 13.613 3.286 17.098 4.075 3.42.723 4.143.263 4.801 0 .592-.263.526 1.906-2.302 2.301 0 0 1.908.065 2.171.526.263.46-2.434 1.971-3.617 1.774 0 0 2.564 1.381 2.367 2.892-.263 1.512-3.157.263-3.157.263s1.184 2.432 1.118 3.484c-.065.986-1.841-1.249-2.236-1.38-.394-.197.987 2.037-.591 2.563 0 0-.658-1.577-5.262-3.483-4.603-1.907-14.928-5.522-25.582 2.563 0 0 .855 1.446 2.17 2.169 0 0-.855.723-2.828-.46 0 0 1.053 1.643.79 2.169-.263.526-3.223-1.38-3.223-1.38s.855 2.103.132 2.563c-.724.46-2.302-.723-2.828-1.972 0 0-.197 1.775-.592 2.827-.329 1.051-1.118-.066-1.381-.723 0 0-3.157 3.483-7.366 5.652 0 0-15.389 10.32-34.723-1.774-4.078-2.564-9.47-8.282-9.273-18.931 0 0-5.656 1.381-9.865-1.577-4.209-2.892-2.827-14.001 2.499-22.546 5.327-8.479 12.693-15.249 18.414-15.315-.065 0-1.381-2.432 3.42-2.432z" fill="#0E80A4"/><path d="M134.651 125.088c-1.776-1.38-4.604-5.127-3.617-15.052v-.197h.197c.131 0 .197 0 .329-.066.328 0 .592-.066.855-.197.131-.066.591-.263.657-.46v-.198c-.197-.328-.986-.854-1.512-.92l-.198-.065.132-.724c.066-.394.131-.723.197-1.051l.066-.132.066-.065a.802.802 0 0 0 .329-.329c.065-.066.197-.329.065-.46-.065 0-.065-.066-.131-.066l-.198-.066.066-.197c1.842-9.202 5.261-13.869 10.194-13.869 1.644 0 3.419.526 5.261 1.578 5.195 2.957 8.746 8.347 9.338 14.132v.131l-.131.066c-8.155 4.404-16.178 12.226-21.505 18.076l-.132.197-.328-.066z" fill="#fff"/><path d="M142.014 91.303c1.645 0 3.42.591 5.13 1.577 4.932 2.827 8.615 8.085 9.207 13.935-9.207 4.996-17.954 14.198-21.571 18.076-1.907-1.446-4.472-5.324-3.551-14.855.395-.066.855-.066 1.25-.263.46-.263.986-.526.723-1.052-.197-.46-1.118-.92-1.644-1.051 0-.132.066-.329.066-.461.065-.328.131-.723.197-1.051.132-.132.263-.197.395-.329.197-.197.328-.526.065-.789-.065-.065-.131-.131-.263-.131 2.039-9.925 5.788-13.606 9.996-13.606zm0-.526c-5.063 0-8.549 4.732-10.456 14.066l-.066.395.395.131h.066s-.066.066-.066.131a1.426 1.426 0 0 1-.329.263l-.132.132-.065.197c-.066.329-.132.723-.198 1.052 0 .131 0 .197-.065.263l-.066.197-.066.46.46.131c.461.132 1.184.526 1.316.789v.066s-.066.131-.526.329a2.396 2.396 0 0 1-.724.131c-.131 0-.263 0-.329.066l-.394.065-.066.395c-.921 10.057 1.907 13.935 3.749 15.315l.394.263.329-.329c5.261-5.784 13.284-13.606 21.439-18.01l.329-.131-.066-.329c-.592-5.85-4.209-11.371-9.47-14.33-1.907-1.182-3.683-1.708-5.393-1.708z" fill="#0E80A4"/><path d="M160.166 105.369s-7.168 3.155-16.638 11.963c-9.47 8.808-10.654 11.043-10.654 11.043s6.05-9.597 16.573-17.024c10.456-7.494 10.719-5.982 10.719-5.982z" fill="#fff"/><path d="M172.399 181.353c-.526-1.512-1.118-2.958-1.907-4.272-1.71-2.958-4.407-4.799-6.774-7.231-2.433-2.497-4.867-4.995-7.3-7.559-4.012-4.272-7.826-8.742-10.654-13.803-2.893-5.258-4.735-10.911-5.327-16.893-.723-7.033.658-14.197 2.499-21.033 1.908-7.165 4.604-14.067 7.169-20.968 2.696-7.1 4.998-14.264 7.431-21.363 5.064-14.986 9.799-47.26 5.393-32.207-2.302 7.69-4.998 15.249-7.76 22.808-2.697 7.362-4.998 14.855-7.695 22.217-6.708 18.273-16.309 37.86-11.443 57.842 2.039 8.217 6.445 15.513 12.101 21.823 8.089 9.071 22.886 17.024 22.162 30.893-.328 6.507-2.564 13.015-9.141 15.381-2.828.986-5.787 0-6.445-3.155a5.069 5.069 0 0 1 .329-2.958c.132-.394.526-.854.921-.986.46-.131.855-.066 1.315.132.066.065.132.065.197.131-.657.131-1.315.526-1.644 1.249-.329.657-.197 1.314.066 1.972.263.657.855.986 1.447 1.051 1.118.263 2.367-.394 2.696-1.511.395-.526.658-1.183.592-2.104 0-1.249-1.315-2.826-2.433-3.286-3.354-1.381-5.656.591-6.379 3.944-.724 3.286 1.052 6.573 3.945 8.216 3.354 1.906 7.826 0 10.654-1.906 4.538-3.09 6.906-8.545 7.497-13.804.329-2.629.263-5.455-.263-8.084-.394-1.578-.789-3.09-1.249-4.536z" fill="#89B92E"/><path d="M168.847 186.743c-2.039 0-6.906-.197-8.747-2.367-.723-.854-.921-1.84-.526-2.826.526-1.183 1.973-2.038 3.42-2.038.657 0 1.315.198 1.907.526 3.091 1.709 4.735 6.179 4.801 6.376l.065.263h-.263c.066.066-.197.066-.657.066zm-19.398-48.312c2.104 0 4.143 2.104 3.288 5.061-1.25 4.47-8.55 7.231-8.55 7.231s-.131-6.902 2.236-10.517c.855-1.249 1.973-1.775 3.026-1.775zm17.296 34.574c-.198-.197-4.604-5.324-5.064-9.662-.132-1.249.197-2.301.92-3.089.658-.789 1.71-1.183 2.697-1.183 1.644 0 3.025.986 3.814 2.694 1.973 4.273-1.776 10.977-1.973 11.24l-.197.329-.197-.329z" fill="#89B92E"/><path d="M136.229 90.448c2.17-3.418.789-5.587-.855-5.127-1.644.46-1.907 2.827-2.171 4.47-.263 1.578-1.183 4.273-1.315 4.667.263-.46 4.341-4.01 4.341-4.01z" fill="#fff"/><path d="M131.823 94.458c0 .064 0 .064 0 0 0 .064 0 .064 0 0z" stroke="#DD692F" stroke-width=".189" stroke-miterlimit="10"/><path d="M148.461 102.477c1.316-1.117 1.052-3.024 1.052-3.024 1.382-1.774.658-4.14.658-4.14s1.578 1.84 2.302 1.117c1.118-1.118.46-4.338-.921-6.508-1.381-2.169-5.064-4.009-9.075-3.22-3.946.788-6.511.657-10.325 6.178a25.397 25.397 0 0 0-3.815 8.545c.724-.526 1.513-.92 2.434-.986.197 0 .329.132.329.329-.066 1.38-.855 2.761-1.776 3.944 1.381-.066 3.88-.066 2.762 1.38-.395.526-1.447.92-2.104 1.315.789.394 1.841.526 2.235.789.527.262 1.25.46.855 1.117-.065.131-.591.394-.657.526 1.184 0 2.302-.263 3.222-.526 2.302-.789 2.499-4.207 3.157-4.864.658-.657 4.406-1.512 4.406-1.512-.131 1.578.855 4.075 3.091 3.681 2.368-.657 2.17-4.141 2.17-4.141z" fill="#FCCAA1" stroke="#DD692F" stroke-width=".189" stroke-miterlimit="10" stroke-linejoin="round"/><path d="M132.548 110.233c-.132 0-.198-.066-.264-.131-.065-.132 0-.198.066-.263l.066-.066c.46-.395.592-.46.592-.526.066-.131.066-.197.066-.329-.066-.263-.395-.46-.724-.591-.131-.132-.526-.197-.92-.263-.527-.066-1.118-.197-1.579-.46-.066-.066-.131-.132-.131-.197 0-.066.065-.198.131-.198.197-.131.395-.197.592-.328.592-.263 1.25-.658 1.513-.986.131-.197.263-.395.197-.592-.066-.131-.46-.46-2.236-.46h-.592c-.131 0-.197-.066-.263-.131-.066-.066-.066-.198 0-.263 1.184-1.446 1.776-2.695 1.841-3.747 0-.066-.065-.197-.131-.197-.789.066-1.644.657-2.302 1.117l-.066.066c-.065 0-.065.066-.131.066s-.132 0-.132-.066c-.065-.066-.131-.131-.131-.263.46-2.037 1.512-5.258 3.814-8.676 3.42-4.996 5.985-5.456 9.207-6.047.395-.066.855-.132 1.25-.263a10.04 10.04 0 0 1 1.973-.197c3.025 0 6.05 1.445 7.365 3.549 1.447 2.235 2.17 5.587.921 6.836-.197.131-.395.263-.592.263-.526 0-1.052-.395-1.513-.789.132.855.066 2.3-.789 3.484.066.394.066 2.037-1.052 3.089 0 .657-.066 3.681-2.236 4.075-.197 0-.395.066-.526.066-.724 0-1.315-.263-1.842-.854-.723-.789-1.052-1.907-1.052-2.827-1.447.329-3.551.986-4.011 1.38-.198.198-.329.658-.526 1.249-.461 1.315-1.053 3.155-2.763 3.747l-.394.131c-.658.198-1.644.592-2.696.592z" fill="#fff"/><path d="M144.384 86.373c3.222 0 5.984 1.578 7.168 3.418 1.381 2.169 2.039 5.39.921 6.507a.598.598 0 0 1-.461.197c-.789 0-1.907-1.249-1.907-1.249s.724 2.367-.657 4.142c0 0 .263 1.906-1.053 3.023 0 0 .198 3.55-2.038 3.944-.198.066-.329.066-.526.066-1.908 0-2.697-2.235-2.631-3.681 0 0-3.749.854-4.406 1.512-.658.657-.855 4.075-3.157 4.864-.921.328-1.973.788-3.157.788.066-.065.658-.525.724-.657.394-.591-.198-.986-.724-1.315-.394-.262-1.71-.328-2.499-.723.658-.394 1.776-.854 2.171-1.38.986-1.249-.79-1.446-2.236-1.446h-.592c.986-1.183 1.775-2.563 1.841-3.944 0-.197-.197-.46-.329-.46-.92.066-1.841.723-2.499 1.183.395-1.906 1.447-5.127 3.815-8.545 3.748-5.521 6.313-5.39 10.325-6.178.657 0 1.249-.066 1.907-.066zm0-.46c-.658 0-1.316.066-1.973.197-.461.066-.855.197-1.25.263-3.288.591-5.919 1.052-9.338 6.179-2.302 3.418-3.42 6.638-3.88 8.742-.066.197 0 .394.197.526.066.065.197.065.263.065.132 0 .197-.065.263-.065l.066-.066c.592-.46 1.315-.986 2.038-1.052-.065 1.052-.657 2.169-1.775 3.55-.132.131-.132.328-.066.525.066.198.263.263.46.263h.592c1.776 0 1.973.329 1.973.329s0 .066-.197.329c-.197.328-.921.657-1.447.92-.197.131-.394.197-.592.329-.131.065-.263.262-.263.46 0 .197.132.328.263.46.461.263 1.118.328 1.644.46.329.066.724.131.855.197.132.066.526.329.592.46 0 0 0 .066-.066.132a5.763 5.763 0 0 1-.526.46l-.065.065c-.198.132-.198.329-.132.526a.495.495 0 0 0 .46.329c1.118 0 2.105-.394 2.96-.657.131-.066.263-.066.394-.132 1.776-.657 2.434-2.563 2.894-3.878.132-.46.329-.986.46-1.117.329-.329 1.973-.855 3.552-1.249.065.92.394 1.906 1.118 2.629.526.592 1.249.92 2.038.92.198 0 .395 0 .592-.065 2.302-.461 2.499-3.353 2.499-4.273 1.052-1.052 1.052-2.563 1.052-3.09.724-.985.855-2.168.855-3.023.395.263.79.46 1.184.46.329 0 .592-.131.789-.328 1.381-1.38.658-4.799-.855-7.165-1.249-1.84-4.011-3.615-7.628-3.615z" fill="#0E80A4"/><path d="M148.33 101.36c-.263-1.249-.789-2.301-1.907-2.958-1.776-1.118-4.669.328-6.116 1.446-.066.066 0 .131.066.131 1.644-.92 3.354-1.84 5.261-1.314 2.302.591 2.433 4.009 2.433 5.915 0 .132.132.132.198.066.591-.986.263-2.235.065-3.286z" fill="#0E80A4"/><path d="M149.776 100.505c.855-2.366-.263-5.324-2.762-5.982-2.433-.657-5.195.526-7.102 2.038-.066 0 0 .131.065.066 1.776-1.118 3.683-1.906 5.853-1.84 1.644.065 2.828.854 3.354 2.366.395 1.117.263 2.103.198 3.286 0 .263.328.263.394.066z" fill="#0E80A4"/><path d="M150.633 96.627c.92-2.432-2.105-4.601-4.012-5.193-2.499-.789-5.722-.526-7.76 1.183-.066.066 0 .132.066.132 2.17-1.25 4.274-1.578 6.773-1.118 1.316.263 2.434.789 3.354 1.71.921.92 1.118 2.037 1.381 3.286-.066.131.132.066.198 0z" fill="#0E80A4"/><path d="M131.099 112.336c-.329-.723-.855-1.314-1.513-1.774.724.065 1.513-.066 2.236-.197.658-.132 1.71-.395 1.842-1.184.197-1.183-1.513-1.709-2.894-1.774.855-.46 1.644-1.052 2.105-1.775a.407.407 0 0 0-.066-.46 4.08 4.08 0 0 0-2.96-.789c.461-.526.79-1.315 1.118-1.709.329-.526 1.184-1.906.527-2.498-.921-.92-2.499.46-3.815 1.578.132-.329.198-.657.263-.92.066-.526.132-1.512-.329-1.84.066-.132-.131-.33-.263-.198-1.644 1.709-3.88 2.629-6.116 3.352-1.052.329-2.104.526-3.222.723-.987.132-2.236.526-3.223.197-.526-2.694.724-5.915 1.776-8.281.263-.658.592-1.38.987-1.972a41.589 41.589 0 0 0 1.709-1.644c.79-.789 1.579-1.512 2.302-2.366.066-.066-.066-.197-.131-.131-.855.723-1.644 1.446-2.499 2.169-.132.065-.263.197-.329.263a25.432 25.432 0 0 1 3.156-3.878c.066-.066 0-.198-.131-.132-2.696 1.972-4.669 4.601-5.985 7.69-1.183 2.63-2.433 6.113-1.644 8.94.132.394.526.394.724.263.92.328 1.775 0 2.762-.132 1.315-.197 2.63-.46 3.946-.854 2.17-.658 4.406-1.644 5.787-3.484-.066.131.394 1.512-1.644 3.812.197.198 1.315-.263 1.512-.328.79-.329 1.447-.855 2.105-1.315.329-.197 1.184-.92 1.315-.46.526 1.38-2.762 4.01-2.959 4.207-.132.065.394 0 .526-.066.723-.197 1.447-.329 2.17-.263.395 0 .723.066 1.052.197.855.395-1.052 1.512-1.578 1.709-.395.197-.789.395-1.118.658-.132.131-.395.328-.197.263.855-.066 1.841.131 2.696.394.197.066 1.118.394.986.657-.263.46-1.118.592-1.841.658-.723.065-1.776-.066-2.302 0-.526 0-1.249.065-1.775.065-.132 0-1.184.132.92.592 1.118.263 3.157 2.103 1.842 2.037-2.697-.065-4.209.329-6.84.986-2.959.789-5.787 2.235-8.812 2.827-.066 0-.066.131 0 .131 2.762.263 5.524-1.249 8.155-2.037a28.054 28.054 0 0 1 9.338-1.184c.329-.131.461-.46.329-.723zm37.026 19.522c-.527-.394-.855-1.249-1.053-1.84-.197-.46-.329-.92-.592-1.315.132-.394.198-.789.263-1.051.066-.198-.263-.263-.263-.066-.328.986-1.381 3.549-2.564 3.812-.066-1.249.197-2.432.263-3.615.065-1.446-.198-2.958-.461-4.338-.263-1.512-.592-2.958-.789-4.47-.197-1.249-.329-2.563-.855-3.746 0 0-.066 0-.066.065.263.855.329 1.709.395 2.564-1.381 1.972-2.696 3.746-4.34 5.521a115.137 115.137 0 0 1-4.933 4.864 87.71 87.71 0 0 1-5.327 4.535c-1.71 1.381-3.222 2.827-5.195 3.747-.132.066-.066.329.132.263 1.907-.46 3.353-1.84 4.866-3.089 1.907-1.578 3.814-3.09 5.656-4.733 1.841-1.643 3.683-3.418 5.261-5.193 1.381-1.643 2.959-3.418 3.88-5.389 0 .328 0 .723.066 1.051.066 1.381.394 2.827.592 4.207.263 1.512.526 3.024.394 4.47-.066 1.249-.394 2.497-.131 3.746 0 .132.197.263.329.263 1.381.066 2.236-1.38 2.696-2.695.197 1.118.592 2.432 1.776 2.695 0-.131.065-.263 0-.263zm7.626-4.798c-.328-.526-.723-1.051-1.118-1.577-.394-2.301-.723-4.601-1.315-6.836-.592-2.301-1.381-4.536-2.302-6.836 0-.066-.065-.066-.065 0 .526 2.366 1.249 4.601 1.907 6.901.526 1.841.657 3.813 1.052 5.719-.395-.592-.789-1.249-.921-1.972 0-.066-.131-.066-.131 0a7.491 7.491 0 0 0 1.315 3.155c0 .066.066.132.066.197 0 .132.131.132.197.132.329.394.724.789 1.118 1.117.132.132.263.066.197 0z" fill="#fff"/><path d="M168.913 143.033c-2.433 0-4.472-.724-5.59-1.972-.723-.789-.986-1.841-.789-3.09.197-1.512.855-2.892 1.381-4.272.197-.395.329-.789.526-1.183l.198-.46c.394-1.052.855-2.104.789-3.155-.066-.658-.066-1.249-.132-1.907-.066-.657-.131-1.38-.131-2.037-.329-.789-.132-1.644.46-2.301.789-.854 1.841-1.314 3.091-1.314h.395c1.315.065 3.025.46 4.011 1.774.658.92 1.052 2.169 1.184 2.958.526 1.118.986 2.103 1.841 2.761.658.526 1.579.789 2.697.789.855 0 1.907-.198 3.025-.526.592-.197 1.315-.46 2.038-.723 1.513-.592 3.289-1.249 4.933-1.315.46-.854 1.184-1.709 2.039-2.432.263-.197 1.315-.92 2.301-.92.198 0 .395 0 .526.066.658.197 1.118.657 1.316 1.38.263-.066.46-.132.723-.132.723 0 1.644.329 1.973 1.184.066.263.132.525.132.723h.065c.921 0 1.644.525 1.776 1.446.592.197.986.986 1.118 1.511.263-.065.526-.131.789-.131.789 0 1.578.46 2.039 1.315a3.562 3.562 0 0 1 0 3.615c-.987 1.774-3.025 3.023-4.998 3.155-.263 0-.526.066-.789.066-.527 0-.987-.066-1.447-.132-1.842 2.235-6.314 2.564-9.273 2.761-.658.065-1.25.065-1.71.131-3.222.329-6.313.855-9.602 1.446-1.578.329-3.09.592-4.669.658-.066 0-.066 0-.131.065-.724.132-1.447.198-2.105.198z" fill="#fff"/><path d="M168.65 121.539h.394c1.316.131 2.96.526 3.815 1.643.592.789.92 1.84 1.183 2.892.461 1.118.987 2.169 1.908 2.892.789.658 1.775.855 2.827.855 1.053 0 2.171-.263 3.091-.526 1.973-.592 4.67-1.972 6.971-2.038.461-.986 1.25-1.84 2.039-2.497.526-.395 1.381-.921 2.17-.921.198 0 .329 0 .526.066.658.197 1.053.789 1.25 1.446.263-.131.592-.197.855-.197.723 0 1.447.329 1.71.986.131.328.131.591.065.92h.329c.724 0 1.447.394 1.513 1.315v.065c.592.066 1.052.986 1.118 1.512v.132a2.01 2.01 0 0 1 .986-.263c1.842 0 2.96 2.629 1.842 4.535-.921 1.643-2.894 2.892-4.801 3.089h-.789a6.474 6.474 0 0 1-1.579-.197c-2.104 2.761-8.154 2.629-10.916 2.892-3.223.329-6.445.855-9.602 1.512-1.578.329-3.091.592-4.669.657l-.066.066a9.087 9.087 0 0 1-1.973.197c-3.091 0-6.642-1.248-6.116-4.732.263-1.906 1.184-3.615 1.907-5.39.46-1.183 1.052-2.432.987-3.681-.066-1.315-.263-2.695-.329-4.009-.329-.658-.198-1.512.394-2.104.79-.723 1.842-1.117 2.96-1.117zm0-.46c-1.316 0-2.434.46-3.288 1.38-.658.723-.855 1.709-.461 2.563.066.658.066 1.381.132 2.038.065.657.131 1.315.131 1.906.066.986-.394 2.038-.789 3.024-.066.131-.131.328-.197.46-.132.394-.329.789-.526 1.183-.592 1.38-1.184 2.761-1.447 4.338-.197 1.315.131 2.367.855 3.287 1.118 1.314 3.288 2.037 5.787 2.037.723 0 1.447-.065 2.104-.197.066 0 .066 0 .132-.065 1.578-.066 3.091-.329 4.603-.658a97.007 97.007 0 0 1 9.602-1.446c.46-.066 1.052-.066 1.71-.131 3.157-.198 7.366-.46 9.338-2.695a8.3 8.3 0 0 0 1.382.131c.263 0 .526 0 .789-.066 2.104-.131 4.143-1.511 5.195-3.286.658-1.183.658-2.695 0-3.812-.526-.921-1.315-1.446-2.236-1.446-.197 0-.395 0-.658.065-.197-.526-.526-1.117-1.052-1.38-.197-.855-.855-1.446-1.775-1.512 0-.197-.066-.394-.132-.591-.329-.789-1.184-1.315-2.17-1.315-.197 0-.395 0-.592.066a2.265 2.265 0 0 0-1.381-1.315c-.197-.066-.395-.066-.658-.066-1.118 0-2.17.789-2.499.986-.855.658-1.578 1.512-2.038 2.367-1.645.065-3.354.723-4.867 1.314-.723.263-1.381.526-1.973.723-1.118.329-2.104.526-2.959.526-1.053 0-1.908-.263-2.499-.723-.79-.657-1.25-1.577-1.776-2.695-.197-.854-.526-2.038-1.25-3.023-.986-1.381-2.827-1.775-4.143-1.841-.131-.131-.263-.131-.394-.131z" fill="#0E80A4"/><path d="M186.8 135.605c.198-.197-.065-.46-.263-.263-.92.789-1.841 1.38-2.959 1.84-.921.329-1.907.46-2.828.658-.066 0-.066.131 0 .131 2.17-.066 4.669-.723 6.05-2.366zm-16.638 1.051c-.657-.986-1.249-1.906-.723-3.089.395-.789 1.118-1.314 1.776-1.906.065-.066 0-.066-.066-.066-.921.395-1.973 1.183-2.302 2.169-.46 1.249.197 2.301 1.184 3.024.066 0 .197-.066.131-.132zm26.11-3.089c.987.329 2.236-.46 2.96-.986.657-.46 1.775-1.906 1.118-2.761-.066-.131-.263 0-.198.132.264 1.972-2.235 3.418-3.945 3.418a2.445 2.445 0 0 0-.329-.723c-.066-.197-.197-.395-.329-.592 1.71.263 4.275-2.366 3.749-3.944-.066-.131-.329-.131-.329.066.131 1.709-1.842 3.681-3.552 3.681a7.53 7.53 0 0 0-.92-1.117c1.644-.066 3.42-2.169 3.156-3.747-.065-.197-.394-.197-.394 0-.197 1.709-1.315 3.155-3.025 3.549-.526-.46-1.053-.854-1.71-1.117 1.578-.197 3.091-2.301 2.302-4.009-.132-.263-.461-.066-.395.262.46 1.907-.855 3.287-2.236 3.616a5.967 5.967 0 0 0-2.631-.395c-.065 0-.065.066 0 .066 2.302.394 3.946 1.052 5.327 2.958 1.184 1.643 2.039 4.798.263 6.31-.065.066 0 .197.066.131 1.973-.525 1.644-3.089 1.052-4.798zM160.757 10.718C144.645-4.072 119.325-.72 108.409 4.079c-10.983 4.864-16.31 6.573-20.124 6.244-3.815-.328-4.801-2.497-4.801-2.497.592 6.967 6.576 7.164 6.576 7.164-5.195 3.747-8.68.132-8.68.132 2.696 7.493 11.245 4.732 11.245 4.732-4.867 10.78-2.433 22.283-2.433 22.283-.329-.066 45.509 38.386 45.509 38.386 11.837-3.155 29.594-14 35.381-28.855 5.787-14.921-2.631-33.851-10.325-40.95z" fill="#0E80A4"/><path d="M87.496 49.696c-6.51-.723-9.075-9.991-8.746-15.25.197-2.957.46-6.375 5.13-7.953.591-.197 1.775-.394 2.696-.394 5.787-.132 8.549 4.666 9.733 9.268 1.118 4.6 1.118 9.136-2.302 11.962-1.381 1.184-2.894 2.498-6.248 2.367h-.263z" fill="#0E80A4"/><path d="M84.67 35.432c1.117 2.3.92 4.207.197 4.733.723-.526.92-2.432-.198-4.733z" fill="#D46E43"/><path d="M138.923 46.672s-.065-6.507 7.366-13.211c7.497-6.705 16.046-4.733 19.795.262 3.749 4.996 5.787 15.25-13.416 21.626l-13.745-8.677z" fill="#fff"/><path d="M128.073 83.613c-2.104.46-4.34.854-6.642 1.249-10.785 1.577-31.238-1.052-39.327-21.1-.789-.46-7.365-4.798-8.878-11.108-.592-2.432-.658-3.878-.197-4.602.131-.262.394-.394.657-.46.79-.197 1.842.592 2.5 1.184.591-1.315 3.09-5.85 9.93-7.362a23 23 0 0 1 4.866-.526c0-1.972.592-14.79 10.588-20.968.132-.066.263-.132.461-.197.394-.066.855 0 1.249.329 1.842 1.445 3.486 6.704 3.749 9.925.657-.855 2.038-2.695 3.88-4.536 2.367-2.432 6.05-5.521 9.996-6.441 1.315-.263 2.565-.329 3.749-.132 2.433.395 4.472 2.038 6.05 4.733 3.485 5.916 3.748 15.184 2.762 18.733 1.118 0 4.801 0 8.812.986 6.314 1.643 10.391 5.061 11.838 9.925 1.184 3.944 1.841 9.86-1.644 15.907-4.077 6.836-12.298 11.7-24.399 14.46z" fill="#fff"/><path d="M101.964 19.92c2.302-.526 4.669 7.164 4.735 10.78 0 0 6.642-9.729 14.139-11.438 1.184-.262 2.434-.328 3.618-.131 8.812 1.578 10.193 18.733 8.549 23.531 0 0 17.23-.986 20.781 10.714 3.223 10.846-1.249 24.452-25.845 30.04-2.039.46-4.275.854-6.576 1.248-11.312 1.643-31.238-1.446-39.13-21.034 0 0-7.234-4.338-8.878-10.977-.855-3.418-.526-4.6.263-4.798.723-.131 1.775.592 2.564 1.38 0 0 1.974-5.784 9.865-7.559 1.447-.328 3.157-.525 5.064-.525 0 0-.329-14.33 10.522-21.034.132-.132.263-.197.329-.197zm-.066-.526c-.197.066-.328.131-.526.197-5.721 3.55-8.352 9.202-9.536 13.278-.986 3.549-1.183 6.507-1.183 7.624-1.644 0-3.223.197-4.67.526-6.51 1.512-9.14 5.587-9.93 7.23-.79-.657-1.71-1.183-2.499-1.051-.329.066-.592.263-.79.591-.46.92-.46 2.432.198 4.93 1.578 6.31 7.826 10.517 8.944 11.174 8.22 20.114 28.739 22.809 39.59 21.165 2.302-.328 4.538-.788 6.642-1.249 12.232-2.76 20.453-7.624 24.465-14.592 3.551-6.047 2.893-12.094 1.709-16.103-1.512-4.996-5.655-8.48-12.034-10.123-3.683-.92-7.103-1.052-8.55-.986.921-3.812.526-12.817-2.893-18.667-1.644-2.76-3.749-4.404-6.248-4.864-1.249-.198-2.499-.198-3.814.131-3.223.723-6.577 2.892-10.128 6.507a35.471 35.471 0 0 0-3.485 4.076c-.198-1.38-.592-3.024-1.053-4.601-.46-1.38-1.447-3.878-2.696-4.864-.526-.263-1.052-.395-1.513-.33z" fill="#0E80A4"/><path d="M119.785 71.124c-1.841 3.352-4.998 6.113-9.075 4.995-3.223-.92-6.248-3.22-9.141-4.93-1.71-1.051-3.617-2.103-5.525-2.957 2.5.328 5.064.46 7.432.394 7.3-.066 14.665-2.103 20.189-6.836-1.512 2.958-2.301 6.31-3.88 9.334z" fill="#fff"/><path d="M103.542 68.626c-2.433 0-4.932-.066-7.431-.394 1.907.854 3.748 1.906 5.524 2.957a163.42 163.42 0 0 1 2.696 1.71c.066 0 .066-.066.132-.066 2.696-1.972 5.59-3.747 9.075-3.09 2.368.46 4.012 1.447 5.064 3.287.461-.592.921-1.249 1.25-1.906 1.644-2.958 2.367-6.376 3.946-9.334-5.59 4.733-12.956 6.77-20.256 6.836zm19.994-28.79c.395 4.535-1.446 9.005-4.209 9.925-2.696.92-5.261-2.037-5.721-6.573-.395-4.535 1.447-9.005 4.143-9.925 2.828-.92 5.393 2.038 5.787 6.573zm-21.638.854c-.065 4.076-2.038 7.823-4.406 8.283-2.367.526-4.209-2.367-4.077-6.508.066-4.075 2.038-7.822 4.406-8.282 2.368-.46 4.143 2.432 4.077 6.508z" fill="#0E80A4"/><path d="M96.966 39.77c-.526.986-1.381 1.315-1.907.657-.527-.657-.46-2.037.065-3.089.526-.986 1.381-1.315 1.907-.591.592.657.527 1.971-.065 3.023z" fill="#FFFAED"/><path d="M130.374 59.884c-2.827.263-5.787 0-7.299-2.826-.066-.066-.198-.066-.198.065.395 1.315 1.118 2.17 2.039 2.695-5.656 5.85-13.35 8.085-21.373 8.282-7.695.132-15.652-1.709-22.426-5.455-.132-.066-.197.065-.066.131 3.617 2.695 7.958 4.273 12.495 5.061 3.223 1.512 6.38 3.09 9.47 4.93 2.828 1.71 5.985 4.01 9.405 4.273 3.288.262 5.919-2.433 7.497-4.996 2.039-3.286 2.828-7.165 4.406-10.648 0-.066 0-.132-.066-.197.395-.395.855-.79 1.25-1.25 1.447.592 3.157.46 4.866.066.198.132.198-.197 0-.131zm-10.588 11.24c-1.841 3.352-4.998 6.113-9.075 4.995-3.223-.92-6.248-3.22-9.141-4.93-1.71-1.051-3.617-2.103-5.525-2.957 2.5.328 5.064.46 7.432.394 7.3-.066 14.665-2.103 20.189-6.836-1.512 2.958-2.301 6.31-3.88 9.334z" fill="#0E80A4"/><path d="M122.745 75.725c-1.25 3.155-4.144 5.455-7.629 5.455-3.157 0-5.919-1.774-8.286-3.68-.066-.066-.198.065-.132.131 2.433 2.3 5.656 4.338 9.076 4.207 3.419-.132 6.247-2.958 7.168-6.113.066-.066-.197-.132-.197 0zm16.377-33.194s-1.578-.92 5.787-7.164c7.432-6.245 16.507-4.667 20.321.066 3.815 4.732 4.012 11.502-10.719 19.521 0 0-1.315-4.732-3.157-6.638-4.735-5.062-12.232-5.785-12.232-5.785z" fill="#0E80A4"/><path d="M180.685 69.086c-.789 0-1.578-.131-2.367-.329-1.645-.525-2.828-1.577-3.42-3.089 0-.066-.066-.066-.066-.131-1.71-4.93-1.315-9.926 1.118-14.527 3.091-5.915 9.207-10.188 13.613-11.437 1.513-.394 5.919.132 8.747 2.761 1.578 1.38 3.288 3.944 2.762 8.085 0 .131-5.13-2.432-5.458-3.221-.132-.263-.263-.526-.461-.723-1.249-1.38-3.617-1.775-4.34-1.775-2.828.855-7.695 4.076-10.194 8.808-1.71 3.287-2.038 6.77-.855 10.254.395.394 2.236.263 3.026-.131.131-.198 1.578.723 2.827 1.446.921.526 2.171.854 2.236 1.38.066.329-.92.92-2.104 1.512-.987.328-2.959 1.117-5.064 1.117zm31.632 26.49c-1.775 0-3.617-.132-5.261-.263-1.052-.066-2.696-.263-4.143-1.184-2.039-1.38-2.696-3.943-1.71-6.047 1.316-2.892 2.17-3.812 2.697-3.812.723 0 2.499 3.09 2.433 4.01-.066.591.723 1.84 1.184 1.84 4.603.394 9.272-.197 15.651-1.84 4.341-1.118 6.38-2.433 7.169-3.616.329-.526-.263-.657-.526-1.051-.461-.658-1.381-2.63-1.381-2.63 1.446 0 5.59 1.578 6.181 2.892.724 1.512 1.447 3.944-.591 5.062-1.908 1.117-11.97 7.033-21.703 6.639z" fill="#89B92E"/><path d="M116.827 39.77c-.526.986-1.381 1.315-1.907.657-.526-.657-.46-2.037.066-3.089.526-.986 1.381-1.315 1.907-.591.526.657.46 1.971-.066 3.023z" fill="#FFFAED"/></g><path d="M232.636 163.935s8.286-112.333-71.486-120.418c-79.706-8.15-78.193 72.04-78.193 72.04l14.073-.723s-5.656-57.777 49.323-61.852c55.966-4.075 72.473 44.04 71.42 111.019h14.863v-.066z" fill="#B7B7B7" stroke="#B7B7B7" stroke-width="8" stroke-miterlimit="10"/><path d="M212.973 266.803H103.739c-12.824 0-23.28-10.451-23.28-23.269V157.23c0-12.817 10.456-23.268 23.28-23.268h109.234c12.825 0 23.281 10.451 23.281 23.268v86.304c.066 12.752-10.456 23.269-23.281 23.269z" fill="#0E80A4"/><path d="M216.063 266.803H112.156c-12.825 0-23.281-10.451-23.281-23.269V157.23c0-12.817 10.457-23.268 23.281-23.268h103.841c12.824 0 23.281 10.451 23.281 23.268v86.304c.066 12.752-10.457 23.269-23.215 23.269z" fill="#30B7D6"/><path d="M161.021 243.14c20.63 0 37.354-16.716 37.354-37.335 0-20.62-16.724-37.335-37.354-37.335s-37.354 16.715-37.354 37.335c0 20.619 16.724 37.335 37.354 37.335z" fill="#0E80A4"/><path d="M165.493 222.434h-9.01a.73.73 0 0 1-.723-.723v-33.128a.73.73 0 0 1 .723-.723h9.01a.73.73 0 0 1 .723.723v33.128c.066.395-.329.723-.723.723z" fill="#086B82"/><path d="M162.6 223.815h-3.156c-4.275 0-7.76-.855-7.76-1.907v-11.437c0-1.051 3.485-1.906 7.76-1.906h3.156c4.275 0 7.761.855 7.761 1.906v11.437c0 1.052-3.486 1.907-7.761 1.907z" fill="#086B82"/><path d="M66.78 94.655c5.525-3.09 12.628-1.577 17.955 1.052 9.601 4.732 11.18 17.681 8.549 26.818a38.756 38.756 0 0 1-4.077 9.071c-2.04 3.286-4.012 6.638-5.064 10.451-.987 3.549.526 7.493 2.17 10.648 3.88 7.493 13.942 11.043 22.031 9.005 11.64-2.892 14.271-14.066 13.35-24.714-.263-2.695-.723-5.39-1.118-8.02-.131-1.051-1.118-4.601-.329-5.521 1.513-1.709 4.406 5.719 4.735 6.77 1.644 4.799 2.631 11.306 1.842 16.301-.987 6.245-3.617 11.832-8.352 16.301-8.879 8.348-24.004 4.602-32.027-2.826-4.275-3.944-7.037-9.925-7.037-15.775 0-3.484 1.512-6.902 3.025-9.925 1.907-3.813 4.011-7.231 5.327-11.372 1.973-6.178 2.367-14.789-2.105-20.047-4.34-5.193-18.282-8.874-20.781-.066-.724 2.629-.987 7.296-.066 9.925.79 2.169 2.433 4.207 4.8 4.47 1.185.131 4.21-2.038 2.105-2.761-1.183-.394-1.973-1.38-1.973-2.629v-.263c-.065-2.235 2.302-3.155 4.078-2.366 2.236.986 5.13 3.286 4.8 6.113-.46 3.417-2.696 5.258-5.787 6.507-6.84 2.892-12.232-4.536-13.416-10.254-1.25-6.573 1.381-13.606 7.366-16.893z" fill="#0E80A4"/><path d="M179.762 95.247c-1.644 0-2.894-.789-3.749-1.315l-.065-.066c-.198-.13-.461-.197-.789-.197-.987 0-2.039.526-2.039.526-.066 0-.066 0-.132.066-.394 0-3.156-.066-4.34-2.103-1.381-2.433.329-3.55 1.512-4.339 1.184-.788 1.381-1.117 2.105-2.432.131-.197.263-.46.394-.723.132-.197.264-.394.329-.591.921-1.644 1.71-3.09 4.472-5.061 0 0 2.434-2.235 3.749-3.55.329-.329.526-.591.789-.855.789-.92 1.447-1.708 4.406-2.957 2.236-.986 4.012-1.446 5.459-1.446 1.315 0 2.367.46 2.959 1.314a.925.925 0 0 1 .132.92c-.264.658-1.184 1.25-2.763 1.578-1.644.394-3.288 1.117-4.735 1.972-.394.263-1.118 1.052-1.709 1.775a57.051 57.051 0 0 1 3.485-1.71c1.841-.722 4.077-1.577 5.722-1.577h.394c1.25.132 2.565.855 3.025 1.71.263.393.263.788.132 1.116-.395 1.052-1.513 1.184-2.368 1.184-.329 0-.789 0-1.249-.066h-.197c-1.184 0-3.289 1.052-4.472 1.775 1.249-.132 3.156-.329 4.274-.329h.592c.921.131 2.631.92 3.223 2.038.328.591.328 1.183 0 1.84-.264.46-1.71.723-2.96.723h-1.184c-.723 0-1.578-.066-2.433-.066h-.263c.197 0 .395.066.592.132.921.263 2.828 1.775 3.222 2.169.395.329.592.986.592 1.577 0 .46-.197.855-.46 1.118-.263.263-.658.394-1.118.394-.789 0-1.776-.394-2.631-.788-1.183-.526-2.63-.855-3.88-.855h-.46c-.987.066-1.118.394-1.381 1.117-.066.198-.132.46-.329.723l-.197.395c-.592 1.38-1.644 3.615-3.88 4.47-.526.262-1.118.394-1.776.394z" fill="#fff"/><path d="M191.864 70.4c1.249 0 2.17.395 2.762 1.25.46.657-.197 1.577-2.499 2.168-2.302.592-4.012 1.512-4.801 2.038-.789.46-2.565 2.827-2.565 2.827s2.828-1.578 4.604-2.301c1.644-.657 4.011-1.578 5.59-1.578h.394c1.644.198 3.354 1.447 2.96 2.433-.329.723-1.052.985-2.105.985-.394 0-.789 0-1.183-.065h-.198c-1.841 0-5.59 2.432-5.59 2.432s3.683-.46 5.393-.46h.526c1.184.131 4.012 1.577 3.025 3.549-.131.263-1.315.592-2.696.592h-.132c-.789 0-2.17-.066-3.551-.066-1.249 0-2.433.066-3.288.263 0 0 2.63.066 3.485.329.855.262 2.631 1.643 3.157 2.103.46.46.855 1.643.132 2.3-.263.198-.526.329-.921.329-.723 0-1.644-.394-2.499-.723-1.118-.526-2.565-.855-4.012-.855h-.46c-1.513.066-1.381.855-1.907 1.972-.526 1.184-1.513 3.879-3.88 4.799-.592.197-1.184.328-1.71.328-1.644 0-2.894-.788-3.749-1.314a2.1 2.1 0 0 0-.92-.197c-1.053 0-2.171.591-2.171.591h-.065c-.329 0-2.96-.066-4.078-2.038-1.184-2.103.066-3.089 1.447-4.009 1.447-.92 1.513-1.315 2.565-3.22 1.052-1.907 1.644-3.419 4.735-5.654 0 0 2.433-2.234 3.814-3.549 1.381-1.315 1.315-2.103 5.13-3.747 2.038-.986 3.88-1.512 5.261-1.512zm0-.46c-1.447 0-3.223.46-5.524 1.447-3.025 1.314-3.749 2.169-4.472 3.023-.263.263-.461.526-.789.855-1.25 1.248-3.552 3.286-3.749 3.549-2.828 2.038-3.551 3.484-4.472 5.127-.132.197-.197.394-.329.591a7.166 7.166 0 0 1-.394.724c-.724 1.314-.921 1.577-2.039 2.366-1.184.789-3.157 2.103-1.578 4.667 1.249 2.169 4.208 2.234 4.537 2.234h.066c.066 0 .132 0 .197-.065 0 0 1.053-.526 1.908-.526.263 0 .526.066.657.131l.066.066c.855.526 2.17 1.315 3.88 1.315.592 0 1.25-.132 1.841-.329 2.368-.854 3.42-3.286 4.012-4.601l.197-.394c.132-.329.198-.526.329-.79.263-.722.329-.92 1.184-.92h.46c1.25 0 2.631.33 3.815.79.855.394 1.841.788 2.696.788.526 0 .921-.131 1.249-.46.329-.329.527-.789.527-1.315 0-.591-.264-1.314-.658-1.709-.395-.328-1.513-1.314-2.499-1.84.46 0 .855.066 1.249.066.461 0 .79.066 1.118.066h.132c1.118 0 2.828-.264 3.157-.855a2.233 2.233 0 0 0 0-2.038c-.724-1.314-2.565-2.103-3.42-2.169-.132 0-.329-.066-.592-.066-.789 0-1.973.132-3.025.198 1.184-.592 2.499-1.183 3.288-1.183h.132c.526.065.92.065 1.249.065.526 0 2.039 0 2.565-1.314.131-.263.197-.723-.132-1.315-.526-.854-1.973-1.643-3.222-1.775h-.46c-1.645 0-3.946.855-5.788 1.578-.723.263-1.578.723-2.367 1.117.329-.328.592-.591.789-.723a15.363 15.363 0 0 1 4.669-1.972c1.644-.394 2.631-.986 2.96-1.774a1.15 1.15 0 0 0-.198-1.118c-.723-1.052-1.775-1.512-3.222-1.512z" fill="#0E80A4"/><path d="M185.09 82.692c-.329-.066-.723 0-1.052 0-.526.066-1.118.197-1.578.395-.132 0-.395.131-.329.328.723 3.418-2.302 5.127-5.195 5.259-.066 0-.066.131 0 .131 1.578.197 3.156-.066 4.406-1.117 1.118-.92 1.644-2.695 1.381-4.141.394-.132.789-.263 1.249-.329.461-.066.921-.066 1.381-.131 1.118.46 2.96.854 3.88-.066 1.184-1.249.527-2.432-.789-3.155-3.617-1.906-9.075-2.958-12.298.263-.065.066.066.263.132.197 1.249-.92 2.762-1.775 4.406-1.84 1.381-.066 3.288.262 4.669.657 1.118.328 3.223.986 3.946 2.037.526.79-.394 1.578-.986 1.84-.395.132-.921.067-1.316.067" fill="#0E80A4"/><path d="M189.694 84.27c-.724-.066-1.381-.132-2.105 0-.789.131-1.447.723-2.038 1.183-.066.066-.066.197.065.131.724-.263 1.381-.657 2.105-.854.657-.132 1.381-.132 2.038-.263.132.066.066-.197-.065-.197z" fill="#0E80A4"/><path d="M213.7 131.464a4.34 4.34 0 0 1-1.973-.46c-1.644-.789-2.433-1.841-2.499-3.55-.131-1.512-.592-2.3-1.71-2.892-.46-.263-.986-.46-1.447-.657a14.986 14.986 0 0 1-1.512-.658.67.67 0 0 1-.329-.394c-.46-.263-.723-.723-.855-1.249-.263-.986.263-2.169.723-2.892.724-.986 2.302-2.366 3.749-2.366.395 0 .723.131 1.052.263a.89.89 0 0 1 .198.263 9.761 9.761 0 0 0 2.236.262h1.775c.855 0 1.71 0 2.499-.197 2.499-.657 4.275-3.023 5.787-5.192l.461-.658c1.052-1.446 2.302-3.089 3.748-4.141-.197-1.84.198-3.615 1.053-4.864.723-1.117 2.236-1.972 3.551-1.972.263 0 .46.066.658.066 1.446.329 1.972 1.643 1.907 2.826.789.132 1.249.526 1.447 1.052.131.395.197.723.131 1.183.526.066.921.329 1.184.723.197.263.329.723.131 1.381.329.065.592.263.724.526.197.394.197.985-.066 1.511.329.132.526.395.658.723.197.526 0 1.249-.527 1.775-.657.723-1.775 1.446-2.893 1.578-.658 3.155-3.486 5.192-6.05 6.967-.592.46-1.184.854-1.776 1.249-1.447 1.117-2.631 2.498-3.814 3.878-.921 1.052-1.842 2.169-2.96 3.155-1.841 1.84-3.617 2.761-5.261 2.761z" fill="#fff"/><path d="M230.141 100.505c.197 0 .395 0 .592.066 1.315.328 1.841 1.577 1.71 2.76.592.066 1.249.329 1.512.92.132.395.132.855.066 1.249 1.052.066 1.776.789 1.315 1.972 0 .066 0 .066-.065.132 1.052 0 1.249 1.051.657 1.972 1.052.263 1.052 1.446.329 2.234-.658.789-1.841 1.447-2.894 1.512-.723 3.944-4.8 6.047-7.76 8.282-2.63 2.038-4.34 4.864-6.774 7.099-1.446 1.315-3.222 2.564-5.129 2.564-.592 0-1.25-.132-1.842-.395-1.512-.723-2.236-1.709-2.367-3.352-.066-1.38-.526-2.432-1.841-3.089-.987-.526-1.973-.789-2.96-1.315a.362.362 0 0 1-.197-.329c-1.381-.723-.987-2.629-.132-3.812.658-.92 2.171-2.301 3.552-2.301.328 0 .657.066.92.263.066.066.132.132.132.198.789.263 1.644.263 2.499.263h1.776c.854 0 1.775 0 2.499-.198 2.762-.723 4.669-3.483 6.247-5.718 1.118-1.512 2.368-3.352 3.946-4.338-.197-1.644.132-3.55.986-4.864.592-.921 1.973-1.775 3.223-1.775zm0-.526c-1.381 0-2.959.854-3.749 2.038-.855 1.249-1.249 3.089-1.118 4.864-1.446 1.051-2.63 2.629-3.682 4.075l-.132.197-.329.46c-1.512 2.104-3.222 4.404-5.656 5.061-.723.198-1.578.198-2.433.198h-1.775c-.592 0-1.381 0-2.105-.198l-.197-.197a2.276 2.276 0 0 0-1.184-.328c-1.513 0-3.222 1.446-3.946 2.497-.526.789-1.052 1.972-.789 3.09.132.526.46.986.921 1.314.066.198.197.329.394.46.526.263 1.053.461 1.513.658.46.197.986.394 1.447.657 1.052.526 1.512 1.249 1.578 2.695.132 1.775.921 2.958 2.631 3.747.657.328 1.381.46 2.104.46 1.71 0 3.551-.921 5.524-2.695 1.118-.986 2.039-2.104 2.96-3.221 1.183-1.38 2.301-2.761 3.748-3.812.526-.395 1.118-.855 1.776-1.249 2.499-1.775 5.327-3.747 6.116-6.902 1.184-.197 2.302-.92 2.894-1.643.526-.592.723-1.381.526-2.038-.066-.328-.329-.591-.592-.789.197-.525.197-1.117-.066-1.511-.131-.263-.395-.46-.658-.592.132-.657-.065-1.052-.263-1.38-.263-.395-.592-.658-1.118-.723 0-.395-.065-.723-.197-1.052-.197-.592-.723-.986-1.447-1.183 0-1.446-.789-2.564-2.104-2.892-.066 0-.329-.066-.592-.066z" fill="#0E80A4"/><path d="M225.011 114.834c0-.132-.198-.132-.198 0-.526 3.352-2.499 6.573-5.195 8.611-.066.065 0 .197.066.131 3.091-1.38 5.195-5.521 5.327-8.742zm7.629-11.832c-.066-.131-.198-.131-.264 0-.328.921-.46 1.709-.986 2.498-.526.855-1.315 1.578-2.104 2.235-.066 0 0 .066.065.066 1.316-.658 3.749-3.09 3.289-4.799zm1.512 2.038c-.066-.131-.197-.066-.197 0-.461 1.249-1.053 2.695-2.434 3.221-.065 0 0 .066 0 .066 1.184-.395 3.026-1.907 2.631-3.287zm1.315 2.169c0-.131-.197-.197-.263 0-.263 1.183-1.447 2.235-2.631 2.629 1.184-.065 2.96-1.314 2.894-2.629zm.789 2.103c0-.131-.197-.263-.263-.131-.592.92-1.249 1.709-2.302 1.972-.065 0-.065.131 0 .066.987-.066 2.434-.789 2.565-1.907zm-5.458-.92c-.066-.065-.131 0-.066.066 1.579 1.643 2.565 3.55 2.302 5.85 0 .132.132.197.263.066 1.118-2.038-1.184-4.667-2.499-5.982zm-3.223-1.38c-.855-.329-1.71-.066-2.367.46-.132.131 0 .263.131.197.329-.131.658-.394.987-.526.394-.131.789-.131 1.184-.065.131 0 .131-.066.065-.066zm-97.463-32.865s7.892-3.155 12.758-1.249c3.815 1.578 4.538 7.954 6.182 10.386 3.683 5.587 3.683 7.362 6.248 9.005 2.565 1.643 7.694-.526 11.114-2.366 3.42-1.84 4.472-4.667 4.472-4.667s1.381 1.314.066 3.418l2.236-1.184s.131 1.841-1.052 2.893c0 0 2.038-.395 2.499.394.46.855-1.513 1.775-1.513 1.775s2.236.46 2.696 1.38c0 0-1.512 0-3.814 1.578-2.302 1.577-16.901 9.202-21.571 4.075l3.683 8.808s6.971-4.601 10.259-4.667c3.354-.066 5.656 5.521 7.234 9.531 0 0 7.563-3.352 18.349-2.958 10.851.394 13.613 3.286 17.098 4.075 3.42.723 4.143.263 4.801 0 .592-.263.526 1.906-2.302 2.301 0 0 1.908.065 2.171.526.263.46-2.434 1.971-3.617 1.774 0 0 2.564 1.381 2.367 2.892-.263 1.512-3.157.263-3.157.263s1.184 2.432 1.118 3.484c-.065.986-1.841-1.249-2.236-1.38-.394-.197.987 2.037-.591 2.563 0 0-.658-1.577-5.262-3.483-4.603-1.907-14.928-5.522-25.582 2.563 0 0 .855 1.446 2.17 2.169 0 0-.855.723-2.828-.46 0 0 1.053 1.643.79 2.169-.263.526-3.223-1.38-3.223-1.38s.855 2.103.132 2.563c-.724.46-2.302-.723-2.828-1.972 0 0-.197 1.775-.592 2.827-.329 1.051-1.118-.066-1.381-.723 0 0-3.157 3.483-7.366 5.652 0 0-15.389 10.32-34.723-1.774-4.078-2.564-9.47-8.282-9.273-18.931 0 0-5.656 1.381-9.865-1.577-4.209-2.892-2.827-14.001 2.499-22.546 5.327-8.479 12.693-15.249 18.414-15.315-.065 0-1.381-2.432 3.42-2.432z" fill="#0E80A4"/><path d="M134.651 125.088c-1.776-1.38-4.604-5.127-3.617-15.052v-.197h.197c.131 0 .197 0 .329-.066.328 0 .592-.066.855-.197.131-.066.591-.263.657-.46v-.198c-.197-.328-.986-.854-1.512-.92l-.198-.065.132-.724c.066-.394.131-.723.197-1.051l.066-.132.066-.065a.802.802 0 0 0 .329-.329c.065-.066.197-.329.065-.46-.065 0-.065-.066-.131-.066l-.198-.066.066-.197c1.842-9.202 5.261-13.869 10.194-13.869 1.644 0 3.419.526 5.261 1.578 5.195 2.957 8.746 8.347 9.338 14.132v.131l-.131.066c-8.155 4.404-16.178 12.226-21.505 18.076l-.132.197-.328-.066z" fill="#fff"/><path d="M142.014 91.303c1.645 0 3.42.591 5.13 1.577 4.932 2.827 8.615 8.085 9.207 13.935-9.207 4.996-17.954 14.198-21.571 18.076-1.907-1.446-4.472-5.324-3.551-14.855.395-.066.855-.066 1.25-.263.46-.263.986-.526.723-1.052-.197-.46-1.118-.92-1.644-1.051 0-.132.066-.329.066-.461.065-.328.131-.723.197-1.051.132-.132.263-.197.395-.329.197-.197.328-.526.065-.789-.065-.065-.131-.131-.263-.131 2.039-9.925 5.788-13.606 9.996-13.606zm0-.526c-5.063 0-8.549 4.732-10.456 14.066l-.066.395.395.131h.066s-.066.066-.066.131a1.426 1.426 0 0 1-.329.263l-.132.132-.065.197c-.066.329-.132.723-.198 1.052 0 .131 0 .197-.065.263l-.066.197-.066.46.46.131c.461.132 1.184.526 1.316.789v.066s-.066.131-.526.329a2.396 2.396 0 0 1-.724.131c-.131 0-.263 0-.329.066l-.394.065-.066.395c-.921 10.057 1.907 13.935 3.749 15.315l.394.263.329-.329c5.261-5.784 13.284-13.606 21.439-18.01l.329-.131-.066-.329c-.592-5.85-4.209-11.371-9.47-14.33-1.907-1.182-3.683-1.708-5.393-1.708z" fill="#0E80A4"/><path d="M160.166 105.369s-7.168 3.155-16.638 11.963c-9.47 8.808-10.654 11.043-10.654 11.043s6.05-9.597 16.573-17.024c10.456-7.494 10.719-5.982 10.719-5.982z" fill="#fff"/><path d="M172.399 181.353c-.526-1.512-1.118-2.958-1.907-4.272-1.71-2.958-4.407-4.799-6.774-7.231-2.433-2.497-4.867-4.995-7.3-7.559-4.012-4.272-7.826-8.742-10.654-13.803-2.893-5.258-4.735-10.911-5.327-16.893-.723-7.033.658-14.197 2.499-21.033 1.908-7.165 4.604-14.067 7.169-20.968 2.696-7.1 4.998-14.264 7.431-21.363 5.064-14.986 9.799-47.26 5.393-32.207-2.302 7.69-4.998 15.249-7.76 22.808-2.697 7.362-4.998 14.855-7.695 22.217-6.708 18.273-16.309 37.86-11.443 57.842 2.039 8.217 6.445 15.513 12.101 21.823 8.089 9.071 22.886 17.024 22.162 30.893-.328 6.507-2.564 13.015-9.141 15.381-2.828.986-5.787 0-6.445-3.155a5.069 5.069 0 0 1 .329-2.958c.132-.394.526-.854.921-.986.46-.131.855-.066 1.315.132.066.065.132.065.197.131-.657.131-1.315.526-1.644 1.249-.329.657-.197 1.314.066 1.972.263.657.855.986 1.447 1.051 1.118.263 2.367-.394 2.696-1.511.395-.526.658-1.183.592-2.104 0-1.249-1.315-2.826-2.433-3.286-3.354-1.381-5.656.591-6.379 3.944-.724 3.286 1.052 6.573 3.945 8.216 3.354 1.906 7.826 0 10.654-1.906 4.538-3.09 6.906-8.545 7.497-13.804.329-2.629.263-5.455-.263-8.084-.394-1.578-.789-3.09-1.249-4.536z" fill="#89B92E"/><path d="M168.847 186.743c-2.039 0-6.906-.197-8.747-2.367-.723-.854-.921-1.84-.526-2.826.526-1.183 1.973-2.038 3.42-2.038.657 0 1.315.198 1.907.526 3.091 1.709 4.735 6.179 4.801 6.376l.065.263h-.263c.066.066-.197.066-.657.066zm-19.398-48.312c2.104 0 4.143 2.104 3.288 5.061-1.25 4.47-8.55 7.231-8.55 7.231s-.131-6.902 2.236-10.517c.855-1.249 1.973-1.775 3.026-1.775zm17.296 34.574c-.198-.197-4.604-5.324-5.064-9.662-.132-1.249.197-2.301.92-3.089.658-.789 1.71-1.183 2.697-1.183 1.644 0 3.025.986 3.814 2.694 1.973 4.273-1.776 10.977-1.973 11.24l-.197.329-.197-.329z" fill="#89B92E"/><path d="M136.229 90.448c2.17-3.418.789-5.587-.855-5.127-1.644.46-1.907 2.827-2.171 4.47-.263 1.578-1.183 4.273-1.315 4.667.263-.46 4.341-4.01 4.341-4.01z" fill="#fff"/><path d="M131.823 94.458c0 .064 0 .064 0 0 0 .064 0 .064 0 0z" stroke="#DD692F" stroke-width=".189" stroke-miterlimit="10"/><path d="M148.461 102.477c1.316-1.117 1.052-3.024 1.052-3.024 1.382-1.774.658-4.14.658-4.14s1.578 1.84 2.302 1.117c1.118-1.118.46-4.338-.921-6.508-1.381-2.169-5.064-4.009-9.075-3.22-3.946.788-6.511.657-10.325 6.178a25.397 25.397 0 0 0-3.815 8.545c.724-.526 1.513-.92 2.434-.986.197 0 .329.132.329.329-.066 1.38-.855 2.761-1.776 3.944 1.381-.066 3.88-.066 2.762 1.38-.395.526-1.447.92-2.104 1.315.789.394 1.841.526 2.235.789.527.262 1.25.46.855 1.117-.065.131-.591.394-.657.526 1.184 0 2.302-.263 3.222-.526 2.302-.789 2.499-4.207 3.157-4.864.658-.657 4.406-1.512 4.406-1.512-.131 1.578.855 4.075 3.091 3.681 2.368-.657 2.17-4.141 2.17-4.141z" fill="#FCCAA1" stroke="#DD692F" stroke-width=".189" stroke-miterlimit="10" stroke-linejoin="round"/><path d="M132.548 110.233c-.132 0-.198-.066-.264-.131-.065-.132 0-.198.066-.263l.066-.066c.46-.395.592-.46.592-.526.066-.131.066-.197.066-.329-.066-.263-.395-.46-.724-.591-.131-.132-.526-.197-.92-.263-.527-.066-1.118-.197-1.579-.46-.066-.066-.131-.132-.131-.197 0-.066.065-.198.131-.198.197-.131.395-.197.592-.328.592-.263 1.25-.658 1.513-.986.131-.197.263-.395.197-.592-.066-.131-.46-.46-2.236-.46h-.592c-.131 0-.197-.066-.263-.131-.066-.066-.066-.198 0-.263 1.184-1.446 1.776-2.695 1.841-3.747 0-.066-.065-.197-.131-.197-.789.066-1.644.657-2.302 1.117l-.066.066c-.065 0-.065.066-.131.066s-.132 0-.132-.066c-.065-.066-.131-.131-.131-.263.46-2.037 1.512-5.258 3.814-8.676 3.42-4.996 5.985-5.456 9.207-6.047.395-.066.855-.132 1.25-.263a10.04 10.04 0 0 1 1.973-.197c3.025 0 6.05 1.445 7.365 3.549 1.447 2.235 2.17 5.587.921 6.836-.197.131-.395.263-.592.263-.526 0-1.052-.395-1.513-.789.132.855.066 2.3-.789 3.484.066.394.066 2.037-1.052 3.089 0 .657-.066 3.681-2.236 4.075-.197 0-.395.066-.526.066-.724 0-1.315-.263-1.842-.854-.723-.789-1.052-1.907-1.052-2.827-1.447.329-3.551.986-4.011 1.38-.198.198-.329.658-.526 1.249-.461 1.315-1.053 3.155-2.763 3.747l-.394.131c-.658.198-1.644.592-2.696.592z" fill="#fff"/><path d="M144.384 86.373c3.222 0 5.984 1.578 7.168 3.418 1.381 2.169 2.039 5.39.921 6.507a.598.598 0 0 1-.461.197c-.789 0-1.907-1.249-1.907-1.249s.724 2.367-.657 4.142c0 0 .263 1.906-1.053 3.023 0 0 .198 3.55-2.038 3.944-.198.066-.329.066-.526.066-1.908 0-2.697-2.235-2.631-3.681 0 0-3.749.854-4.406 1.512-.658.657-.855 4.075-3.157 4.864-.921.328-1.973.788-3.157.788.066-.065.658-.525.724-.657.394-.591-.198-.986-.724-1.315-.394-.262-1.71-.328-2.499-.723.658-.394 1.776-.854 2.171-1.38.986-1.249-.79-1.446-2.236-1.446h-.592c.986-1.183 1.775-2.563 1.841-3.944 0-.197-.197-.46-.329-.46-.92.066-1.841.723-2.499 1.183.395-1.906 1.447-5.127 3.815-8.545 3.748-5.521 6.313-5.39 10.325-6.178.657 0 1.249-.066 1.907-.066zm0-.46c-.658 0-1.316.066-1.973.197-.461.066-.855.197-1.25.263-3.288.591-5.919 1.052-9.338 6.179-2.302 3.418-3.42 6.638-3.88 8.742-.066.197 0 .394.197.526.066.065.197.065.263.065.132 0 .197-.065.263-.065l.066-.066c.592-.46 1.315-.986 2.038-1.052-.065 1.052-.657 2.169-1.775 3.55-.132.131-.132.328-.066.525.066.198.263.263.46.263h.592c1.776 0 1.973.329 1.973.329s0 .066-.197.329c-.197.328-.921.657-1.447.92-.197.131-.394.197-.592.329-.131.065-.263.262-.263.46 0 .197.132.328.263.46.461.263 1.118.328 1.644.46.329.066.724.131.855.197.132.066.526.329.592.46 0 0 0 .066-.066.132a5.763 5.763 0 0 1-.526.46l-.065.065c-.198.132-.198.329-.132.526a.495.495 0 0 0 .46.329c1.118 0 2.105-.394 2.96-.657.131-.066.263-.066.394-.132 1.776-.657 2.434-2.563 2.894-3.878.132-.46.329-.986.46-1.117.329-.329 1.973-.855 3.552-1.249.065.92.394 1.906 1.118 2.629.526.592 1.249.92 2.038.92.198 0 .395 0 .592-.065 2.302-.461 2.499-3.353 2.499-4.273 1.052-1.052 1.052-2.563 1.052-3.09.724-.985.855-2.168.855-3.023.395.263.79.46 1.184.46.329 0 .592-.131.789-.328 1.381-1.38.658-4.799-.855-7.165-1.249-1.84-4.011-3.615-7.628-3.615z" fill="#0E80A4"/><path d="M148.33 101.36c-.263-1.249-.789-2.301-1.907-2.958-1.776-1.118-4.669.328-6.116 1.446-.066.066 0 .131.066.131 1.644-.92 3.354-1.84 5.261-1.314 2.302.591 2.433 4.009 2.433 5.915 0 .132.132.132.198.066.591-.986.263-2.235.065-3.286z" fill="#0E80A4"/><path d="M149.776 100.505c.855-2.366-.263-5.324-2.762-5.982-2.433-.657-5.195.526-7.102 2.038-.066 0 0 .131.065.066 1.776-1.118 3.683-1.906 5.853-1.84 1.644.065 2.828.854 3.354 2.366.395 1.117.263 2.103.198 3.286 0 .263.328.263.394.066z" fill="#0E80A4"/><path d="M150.633 96.627c.92-2.432-2.105-4.601-4.012-5.193-2.499-.789-5.722-.526-7.76 1.183-.066.066 0 .132.066.132 2.17-1.25 4.274-1.578 6.773-1.118 1.316.263 2.434.789 3.354 1.71.921.92 1.118 2.037 1.381 3.286-.066.131.132.066.198 0z" fill="#0E80A4"/><path d="M131.099 112.336c-.329-.723-.855-1.314-1.513-1.774.724.065 1.513-.066 2.236-.197.658-.132 1.71-.395 1.842-1.184.197-1.183-1.513-1.709-2.894-1.774.855-.46 1.644-1.052 2.105-1.775a.407.407 0 0 0-.066-.46 4.08 4.08 0 0 0-2.96-.789c.461-.526.79-1.315 1.118-1.709.329-.526 1.184-1.906.527-2.498-.921-.92-2.499.46-3.815 1.578.132-.329.198-.657.263-.92.066-.526.132-1.512-.329-1.84.066-.132-.131-.33-.263-.198-1.644 1.709-3.88 2.629-6.116 3.352-1.052.329-2.104.526-3.222.723-.987.132-2.236.526-3.223.197-.526-2.694.724-5.915 1.776-8.281.263-.658.592-1.38.987-1.972a41.589 41.589 0 0 0 1.709-1.644c.79-.789 1.579-1.512 2.302-2.366.066-.066-.066-.197-.131-.131-.855.723-1.644 1.446-2.499 2.169-.132.065-.263.197-.329.263a25.432 25.432 0 0 1 3.156-3.878c.066-.066 0-.198-.131-.132-2.696 1.972-4.669 4.601-5.985 7.69-1.183 2.63-2.433 6.113-1.644 8.94.132.394.526.394.724.263.92.328 1.775 0 2.762-.132 1.315-.197 2.63-.46 3.946-.854 2.17-.658 4.406-1.644 5.787-3.484-.066.131.394 1.512-1.644 3.812.197.198 1.315-.263 1.512-.328.79-.329 1.447-.855 2.105-1.315.329-.197 1.184-.92 1.315-.46.526 1.38-2.762 4.01-2.959 4.207-.132.065.394 0 .526-.066.723-.197 1.447-.329 2.17-.263.395 0 .723.066 1.052.197.855.395-1.052 1.512-1.578 1.709-.395.197-.789.395-1.118.658-.132.131-.395.328-.197.263.855-.066 1.841.131 2.696.394.197.066 1.118.394.986.657-.263.46-1.118.592-1.841.658-.723.065-1.776-.066-2.302 0-.526 0-1.249.065-1.775.065-.132 0-1.184.132.92.592 1.118.263 3.157 2.103 1.842 2.037-2.697-.065-4.209.329-6.84.986-2.959.789-5.787 2.235-8.812 2.827-.066 0-.066.131 0 .131 2.762.263 5.524-1.249 8.155-2.037a28.054 28.054 0 0 1 9.338-1.184c.329-.131.461-.46.329-.723zm37.026 19.522c-.527-.394-.855-1.249-1.053-1.84-.197-.46-.329-.92-.592-1.315.132-.394.198-.789.263-1.051.066-.198-.263-.263-.263-.066-.328.986-1.381 3.549-2.564 3.812-.066-1.249.197-2.432.263-3.615.065-1.446-.198-2.958-.461-4.338-.263-1.512-.592-2.958-.789-4.47-.197-1.249-.329-2.563-.855-3.746 0 0-.066 0-.066.065.263.855.329 1.709.395 2.564-1.381 1.972-2.696 3.746-4.34 5.521a115.137 115.137 0 0 1-4.933 4.864 87.71 87.71 0 0 1-5.327 4.535c-1.71 1.381-3.222 2.827-5.195 3.747-.132.066-.066.329.132.263 1.907-.46 3.353-1.84 4.866-3.089 1.907-1.578 3.814-3.09 5.656-4.733 1.841-1.643 3.683-3.418 5.261-5.193 1.381-1.643 2.959-3.418 3.88-5.389 0 .328 0 .723.066 1.051.066 1.381.394 2.827.592 4.207.263 1.512.526 3.024.394 4.47-.066 1.249-.394 2.497-.131 3.746 0 .132.197.263.329.263 1.381.066 2.236-1.38 2.696-2.695.197 1.118.592 2.432 1.776 2.695 0-.131.065-.263 0-.263zm7.626-4.798c-.328-.526-.723-1.051-1.118-1.577-.394-2.301-.723-4.601-1.315-6.836-.592-2.301-1.381-4.536-2.302-6.836 0-.066-.065-.066-.065 0 .526 2.366 1.249 4.601 1.907 6.901.526 1.841.657 3.813 1.052 5.719-.395-.592-.789-1.249-.921-1.972 0-.066-.131-.066-.131 0a7.491 7.491 0 0 0 1.315 3.155c0 .066.066.132.066.197 0 .132.131.132.197.132.329.394.724.789 1.118 1.117.132.132.263.066.197 0z" fill="#fff"/><path d="M168.913 143.033c-2.433 0-4.472-.724-5.59-1.972-.723-.789-.986-1.841-.789-3.09.197-1.512.855-2.892 1.381-4.272.197-.395.329-.789.526-1.183l.198-.46c.394-1.052.855-2.104.789-3.155-.066-.658-.066-1.249-.132-1.907-.066-.657-.131-1.38-.131-2.037-.329-.789-.132-1.644.46-2.301.789-.854 1.841-1.314 3.091-1.314h.395c1.315.065 3.025.46 4.011 1.774.658.92 1.052 2.169 1.184 2.958.526 1.118.986 2.103 1.841 2.761.658.526 1.579.789 2.697.789.855 0 1.907-.198 3.025-.526.592-.197 1.315-.46 2.038-.723 1.513-.592 3.289-1.249 4.933-1.315.46-.854 1.184-1.709 2.039-2.432.263-.197 1.315-.92 2.301-.92.198 0 .395 0 .526.066.658.197 1.118.657 1.316 1.38.263-.066.46-.132.723-.132.723 0 1.644.329 1.973 1.184.066.263.132.525.132.723h.065c.921 0 1.644.525 1.776 1.446.592.197.986.986 1.118 1.511.263-.065.526-.131.789-.131.789 0 1.578.46 2.039 1.315a3.562 3.562 0 0 1 0 3.615c-.987 1.774-3.025 3.023-4.998 3.155-.263 0-.526.066-.789.066-.527 0-.987-.066-1.447-.132-1.842 2.235-6.314 2.564-9.273 2.761-.658.065-1.25.065-1.71.131-3.222.329-6.313.855-9.602 1.446-1.578.329-3.09.592-4.669.658-.066 0-.066 0-.131.065-.724.132-1.447.198-2.105.198z" fill="#fff"/><path d="M168.65 121.539h.394c1.316.131 2.96.526 3.815 1.643.592.789.92 1.84 1.183 2.892.461 1.118.987 2.169 1.908 2.892.789.658 1.775.855 2.827.855 1.053 0 2.171-.263 3.091-.526 1.973-.592 4.67-1.972 6.971-2.038.461-.986 1.25-1.84 2.039-2.497.526-.395 1.381-.921 2.17-.921.198 0 .329 0 .526.066.658.197 1.053.789 1.25 1.446.263-.131.592-.197.855-.197.723 0 1.447.329 1.71.986.131.328.131.591.065.92h.329c.724 0 1.447.394 1.513 1.315v.065c.592.066 1.052.986 1.118 1.512v.132a2.01 2.01 0 0 1 .986-.263c1.842 0 2.96 2.629 1.842 4.535-.921 1.643-2.894 2.892-4.801 3.089h-.789a6.474 6.474 0 0 1-1.579-.197c-2.104 2.761-8.154 2.629-10.916 2.892-3.223.329-6.445.855-9.602 1.512-1.578.329-3.091.592-4.669.657l-.066.066a9.087 9.087 0 0 1-1.973.197c-3.091 0-6.642-1.248-6.116-4.732.263-1.906 1.184-3.615 1.907-5.39.46-1.183 1.052-2.432.987-3.681-.066-1.315-.263-2.695-.329-4.009-.329-.658-.198-1.512.394-2.104.79-.723 1.842-1.117 2.96-1.117zm0-.46c-1.316 0-2.434.46-3.288 1.38-.658.723-.855 1.709-.461 2.563.066.658.066 1.381.132 2.038.065.657.131 1.315.131 1.906.066.986-.394 2.038-.789 3.024-.066.131-.131.328-.197.46-.132.394-.329.789-.526 1.183-.592 1.38-1.184 2.761-1.447 4.338-.197 1.315.131 2.367.855 3.287 1.118 1.314 3.288 2.037 5.787 2.037.723 0 1.447-.065 2.104-.197.066 0 .066 0 .132-.065 1.578-.066 3.091-.329 4.603-.658a97.007 97.007 0 0 1 9.602-1.446c.46-.066 1.052-.066 1.71-.131 3.157-.198 7.366-.46 9.338-2.695a8.3 8.3 0 0 0 1.382.131c.263 0 .526 0 .789-.066 2.104-.131 4.143-1.511 5.195-3.286.658-1.183.658-2.695 0-3.812-.526-.921-1.315-1.446-2.236-1.446-.197 0-.395 0-.658.065-.197-.526-.526-1.117-1.052-1.38-.197-.855-.855-1.446-1.775-1.512 0-.197-.066-.394-.132-.591-.329-.789-1.184-1.315-2.17-1.315-.197 0-.395 0-.592.066a2.265 2.265 0 0 0-1.381-1.315c-.197-.066-.395-.066-.658-.066-1.118 0-2.17.789-2.499.986-.855.658-1.578 1.512-2.038 2.367-1.645.065-3.354.723-4.867 1.314-.723.263-1.381.526-1.973.723-1.118.329-2.104.526-2.959.526-1.053 0-1.908-.263-2.499-.723-.79-.657-1.25-1.577-1.776-2.695-.197-.854-.526-2.038-1.25-3.023-.986-1.381-2.827-1.775-4.143-1.841-.131-.131-.263-.131-.394-.131z" fill="#0E80A4"/><path d="M186.8 135.605c.198-.197-.065-.46-.263-.263-.92.789-1.841 1.38-2.959 1.84-.921.329-1.907.46-2.828.658-.066 0-.066.131 0 .131 2.17-.066 4.669-.723 6.05-2.366zm-16.638 1.051c-.657-.986-1.249-1.906-.723-3.089.395-.789 1.118-1.314 1.776-1.906.065-.066 0-.066-.066-.066-.921.395-1.973 1.183-2.302 2.169-.46 1.249.197 2.301 1.184 3.024.066 0 .197-.066.131-.132zm26.11-3.089c.987.329 2.236-.46 2.96-.986.657-.46 1.775-1.906 1.118-2.761-.066-.131-.263 0-.198.132.264 1.972-2.235 3.418-3.945 3.418a2.445 2.445 0 0 0-.329-.723c-.066-.197-.197-.395-.329-.592 1.71.263 4.275-2.366 3.749-3.944-.066-.131-.329-.131-.329.066.131 1.709-1.842 3.681-3.552 3.681a7.53 7.53 0 0 0-.92-1.117c1.644-.066 3.42-2.169 3.156-3.747-.065-.197-.394-.197-.394 0-.197 1.709-1.315 3.155-3.025 3.549-.526-.46-1.053-.854-1.71-1.117 1.578-.197 3.091-2.301 2.302-4.009-.132-.263-.461-.066-.395.262.46 1.907-.855 3.287-2.236 3.616a5.967 5.967 0 0 0-2.631-.395c-.065 0-.065.066 0 .066 2.302.394 3.946 1.052 5.327 2.958 1.184 1.643 2.039 4.798.263 6.31-.065.066 0 .197.066.131 1.973-.525 1.644-3.089 1.052-4.798zM160.757 10.718C144.645-4.072 119.325-.72 108.409 4.079c-10.983 4.864-16.31 6.573-20.124 6.244-3.815-.328-4.801-2.497-4.801-2.497.592 6.967 6.576 7.164 6.576 7.164-5.195 3.747-8.68.132-8.68.132 2.696 7.493 11.245 4.732 11.245 4.732-4.867 10.78-2.433 22.283-2.433 22.283-.329-.066 45.509 38.386 45.509 38.386 11.837-3.155 29.594-14 35.381-28.855 5.787-14.921-2.631-33.851-10.325-40.95z" fill="#0E80A4"/><path d="M87.496 49.696c-6.51-.723-9.075-9.991-8.746-15.25.197-2.957.46-6.375 5.13-7.953.591-.197 1.775-.394 2.696-.394 5.787-.132 8.549 4.666 9.733 9.268 1.118 4.6 1.118 9.136-2.302 11.962-1.381 1.184-2.894 2.498-6.248 2.367h-.263z" fill="#0E80A4"/><path d="M84.67 35.432c1.117 2.3.92 4.207.197 4.733.723-.526.92-2.432-.198-4.733z" fill="#D46E43"/><path d="M138.923 46.672s-.065-6.507 7.366-13.211c7.497-6.705 16.046-4.733 19.795.262 3.749 4.996 5.787 15.25-13.416 21.626l-13.745-8.677z" fill="#fff"/><path d="M128.073 83.613c-2.104.46-4.34.854-6.642 1.249-10.785 1.577-31.238-1.052-39.327-21.1-.789-.46-7.365-4.798-8.878-11.108-.592-2.432-.658-3.878-.197-4.602.131-.262.394-.394.657-.46.79-.197 1.842.592 2.5 1.184.591-1.315 3.09-5.85 9.93-7.362a23 23 0 0 1 4.866-.526c0-1.972.592-14.79 10.588-20.968.132-.066.263-.132.461-.197.394-.066.855 0 1.249.329 1.842 1.445 3.486 6.704 3.749 9.925.657-.855 2.038-2.695 3.88-4.536 2.367-2.432 6.05-5.521 9.996-6.441 1.315-.263 2.565-.329 3.749-.132 2.433.395 4.472 2.038 6.05 4.733 3.485 5.916 3.748 15.184 2.762 18.733 1.118 0 4.801 0 8.812.986 6.314 1.643 10.391 5.061 11.838 9.925 1.184 3.944 1.841 9.86-1.644 15.907-4.077 6.836-12.298 11.7-24.399 14.46z" fill="#fff"/><path d="M101.964 19.92c2.302-.526 4.669 7.164 4.735 10.78 0 0 6.642-9.729 14.139-11.438 1.184-.262 2.434-.328 3.618-.131 8.812 1.578 10.193 18.733 8.549 23.531 0 0 17.23-.986 20.781 10.714 3.223 10.846-1.249 24.452-25.845 30.04-2.039.46-4.275.854-6.576 1.248-11.312 1.643-31.238-1.446-39.13-21.034 0 0-7.234-4.338-8.878-10.977-.855-3.418-.526-4.6.263-4.798.723-.131 1.775.592 2.564 1.38 0 0 1.974-5.784 9.865-7.559 1.447-.328 3.157-.525 5.064-.525 0 0-.329-14.33 10.522-21.034.132-.132.263-.197.329-.197zm-.066-.526c-.197.066-.328.131-.526.197-5.721 3.55-8.352 9.202-9.536 13.278-.986 3.549-1.183 6.507-1.183 7.624-1.644 0-3.223.197-4.67.526-6.51 1.512-9.14 5.587-9.93 7.23-.79-.657-1.71-1.183-2.499-1.051-.329.066-.592.263-.79.591-.46.92-.46 2.432.198 4.93 1.578 6.31 7.826 10.517 8.944 11.174 8.22 20.114 28.739 22.809 39.59 21.165 2.302-.328 4.538-.788 6.642-1.249 12.232-2.76 20.453-7.624 24.465-14.592 3.551-6.047 2.893-12.094 1.709-16.103-1.512-4.996-5.655-8.48-12.034-10.123-3.683-.92-7.103-1.052-8.55-.986.921-3.812.526-12.817-2.893-18.667-1.644-2.76-3.749-4.404-6.248-4.864-1.249-.198-2.499-.198-3.814.131-3.223.723-6.577 2.892-10.128 6.507a35.471 35.471 0 0 0-3.485 4.076c-.198-1.38-.592-3.024-1.053-4.601-.46-1.38-1.447-3.878-2.696-4.864-.526-.263-1.052-.395-1.513-.33z" fill="#0E80A4"/><path d="M119.785 71.124c-1.841 3.352-4.998 6.113-9.075 4.995-3.223-.92-6.248-3.22-9.141-4.93-1.71-1.051-3.617-2.103-5.525-2.957 2.5.328 5.064.46 7.432.394 7.3-.066 14.665-2.103 20.189-6.836-1.512 2.958-2.301 6.31-3.88 9.334z" fill="#fff"/><path d="M103.542 68.626c-2.433 0-4.932-.066-7.431-.394 1.907.854 3.748 1.906 5.524 2.957a163.42 163.42 0 0 1 2.696 1.71c.066 0 .066-.066.132-.066 2.696-1.972 5.59-3.747 9.075-3.09 2.368.46 4.012 1.447 5.064 3.287.461-.592.921-1.249 1.25-1.906 1.644-2.958 2.367-6.376 3.946-9.334-5.59 4.733-12.956 6.77-20.256 6.836zm19.994-28.79c.395 4.535-1.446 9.005-4.209 9.925-2.696.92-5.261-2.037-5.721-6.573-.395-4.535 1.447-9.005 4.143-9.925 2.828-.92 5.393 2.038 5.787 6.573zm-21.638.854c-.065 4.076-2.038 7.823-4.406 8.283-2.367.526-4.209-2.367-4.077-6.508.066-4.075 2.038-7.822 4.406-8.282 2.368-.46 4.143 2.432 4.077 6.508z" fill="#0E80A4"/><path d="M96.966 39.77c-.526.986-1.381 1.315-1.907.658-.527-.658-.46-2.038.065-3.09.526-.986 1.381-1.314 1.907-.591.592.657.527 1.972-.065 3.023z" fill="#FFFAED"/><path d="M130.374 59.884c-2.827.263-5.787 0-7.299-2.826-.066-.066-.198-.066-.198.065.395 1.315 1.118 2.17 2.039 2.695-5.656 5.85-13.35 8.085-21.373 8.282-7.695.132-15.652-1.709-22.426-5.455-.132-.066-.197.065-.066.131 3.617 2.695 7.958 4.273 12.495 5.061 3.223 1.512 6.38 3.09 9.47 4.93 2.828 1.71 5.985 4.01 9.405 4.273 3.288.262 5.919-2.433 7.497-4.996 2.039-3.286 2.828-7.165 4.406-10.648 0-.066 0-.132-.066-.197.395-.395.855-.79 1.25-1.25 1.447.592 3.157.46 4.866.066.198.132.198-.197 0-.131zm-10.588 11.24c-1.841 3.352-4.998 6.113-9.075 4.995-3.223-.92-6.248-3.22-9.141-4.93-1.71-1.051-3.617-2.103-5.525-2.957 2.5.328 5.064.46 7.432.394 7.3-.066 14.665-2.103 20.189-6.836-1.512 2.958-2.301 6.31-3.88 9.334z" fill="#0E80A4"/><path d="M122.745 75.725c-1.25 3.155-4.144 5.455-7.629 5.455-3.157 0-5.919-1.774-8.286-3.68-.066-.066-.198.065-.132.131 2.433 2.3 5.656 4.338 9.076 4.207 3.419-.132 6.247-2.958 7.168-6.113.066-.066-.197-.132-.197 0zm16.377-33.194s-1.578-.92 5.787-7.164c7.432-6.245 16.507-4.667 20.321.066 3.815 4.732 4.012 11.502-10.719 19.521 0 0-1.315-4.732-3.157-6.638-4.735-5.062-12.232-5.785-12.232-5.785z" fill="#0E80A4"/><path d="M180.685 69.086c-.789 0-1.578-.131-2.367-.329-1.645-.525-2.828-1.577-3.42-3.089 0-.066-.066-.066-.066-.131-1.71-4.93-1.315-9.926 1.118-14.527 3.091-5.915 9.207-10.188 13.613-11.437 1.513-.394 5.919.132 8.747 2.761 1.578 1.38 3.288 3.944 2.762 8.085 0 .131-5.13-2.432-5.458-3.221-.132-.263-.263-.526-.461-.723-1.249-1.38-3.617-1.775-4.34-1.775-2.828.855-7.695 4.076-10.194 8.808-1.71 3.287-2.038 6.77-.855 10.254.395.394 2.236.263 3.026-.131.131-.198 1.578.723 2.827 1.446.921.526 2.171.854 2.236 1.38.066.329-.92.92-2.104 1.512-.987.328-2.959 1.117-5.064 1.117zm31.632 26.49c-1.775 0-3.617-.132-5.261-.263-1.052-.066-2.696-.263-4.143-1.184-2.039-1.38-2.696-3.943-1.71-6.047 1.316-2.892 2.17-3.812 2.697-3.812.723 0 2.499 3.09 2.433 4.01-.066.591.723 1.84 1.184 1.84 4.603.394 9.272-.197 15.651-1.84 4.341-1.118 6.38-2.433 7.169-3.616.329-.526-.263-.657-.526-1.051-.461-.658-1.381-2.63-1.381-2.63 1.446 0 5.59 1.578 6.181 2.892.724 1.512 1.447 3.944-.591 5.062-1.908 1.117-11.97 7.033-21.703 6.639z" fill="#89B92E"/><path d="M116.827 39.77c-.526.986-1.381 1.315-1.907.658-.526-.658-.46-2.038.066-3.09.526-.986 1.381-1.314 1.907-.591.526.657.46 1.972-.066 3.023z" fill="#FFFAED"/></svg>