<svg width="180" height="71" viewBox="0 0 180 71" fill="none" xmlns="http://www.w3.org/2000/svg"><g clip-path="url(#a)" fill="#fff"><path d="M2.543 67.895h1.721c.04.307.224.557.553.747.329.19.732.286 1.21.286.473 0 .858-.09 1.155-.27.298-.18.447-.41.447-.69 0-.245-.11-.442-.331-.592-.221-.15-.59-.276-1.106-.377l-1.112-.215c-1.565-.298-2.348-1.002-2.348-2.114 0-.692.305-1.25.914-1.677.61-.427 1.393-.64 2.35-.64.986 0 1.773.208 2.36.622.588.414.89.965.906 1.654H7.588c-.028-.318-.187-.57-.477-.752-.29-.184-.659-.276-1.109-.276-.44 0-.797.086-1.067.257-.27.171-.405.397-.405.677 0 .23.11.417.329.56.218.143.574.266 1.066.367l1.036.194c.855.16 1.478.412 1.869.752.39.342.585.8.585 1.377 0 .734-.312 1.317-.934 1.748-.624.432-1.465.647-2.525.647-1.03 0-1.849-.203-2.458-.61-.61-.407-.927-.966-.955-1.675zm12.479-.902h-3.885v-1.337h3.885v1.337zm6.2 3.057H19.07l-2.87-7.567h2l1.95 5.935h.042l1.951-5.935h1.946l-2.868 7.565zm6.13 0h-1.786v-7.566h1.786v7.565zm5.879 0h-1.786v-6.26h-2.496v-1.306h6.783v1.306h-2.5v6.26zm6.359-6.119l-1.093 3.099h2.23l-1.094-3.099h-.042zm2.171 6.118l-.65-1.835h-2.998l-.651 1.835h-1.833l2.963-7.565h2.099l2.968 7.565h-1.898zm10.354.131c-1.246 0-2.23-.348-2.954-1.045-.723-.698-1.085-1.655-1.085-2.87 0-1.213.363-2.168 1.088-2.866.726-.697 1.71-1.046 2.951-1.046.678 0 1.295.12 1.848.357.554.237.999.573 1.334 1.007.335.433.524.927.567 1.483h-1.738a1.735 1.735 0 0 0-.678-1.117c-.368-.279-.812-.419-1.333-.419-.674 0-1.212.234-1.614.702-.402.469-.603 1.1-.603 1.893 0 .807.199 1.444.597 1.911.398.467.94.7 1.627.7.527 0 .971-.13 1.33-.388.358-.259.586-.612.68-1.059h1.738c-.098.842-.486 1.513-1.165 2.01-.678.498-1.541.747-2.59.747zm10.977-5.803c-.414-.469-.97-.703-1.667-.703-.698 0-1.255.234-1.671.703-.416.468-.624 1.099-.624 1.893 0 .79.207 1.418.62 1.884.414.467.973.7 1.675.7.697 0 1.253-.233 1.667-.7.414-.466.621-1.095.621-1.884 0-.794-.207-1.425-.621-1.893zm-4.675-.97c.74-.703 1.742-1.054 3.008-1.054 1.265 0 2.267.351 3.006 1.054.74.703 1.11 1.656 1.11 2.863 0 1.202-.371 2.154-1.112 2.857-.742.702-1.743 1.053-3.005 1.053-1.265 0-2.267-.351-3.007-1.053-.739-.703-1.108-1.655-1.108-2.857 0-1.207.369-2.16 1.108-2.863zm10.585 6.643h-1.709v-7.566h1.49l3.986 4.928h.047v-4.928h1.709v7.565h-1.478l-3.992-4.954h-.053v4.954zm7.228-2.155h1.721c.04.307.224.557.553.747.33.19.733.286 1.21.286.473 0 .859-.09 1.156-.27.297-.18.446-.41.446-.69 0-.245-.11-.442-.33-.592-.222-.15-.59-.276-1.107-.377l-1.112-.215c-1.564-.298-2.347-1.002-2.347-2.114 0-.692.305-1.25.914-1.677.608-.427 1.392-.64 2.35-.64.986 0 1.772.208 2.36.622.587.414.889.965.905 1.654h-1.674c-.028-.318-.186-.57-.477-.752-.289-.184-.658-.276-1.108-.276-.441 0-.797.086-1.067.257-.27.171-.405.397-.405.677 0 .23.109.417.328.56.218.143.575.266 1.067.367l1.035.194c.856.16 1.478.412 1.869.752.39.342.585.8.585 1.377 0 .734-.312 1.317-.934 1.748-.623.432-1.465.647-2.525.647-1.029 0-1.848-.203-2.457-.61-.61-.407-.928-.966-.956-1.675zm10.358-5.411v4.735c0 .492.157.883.47 1.17.314.29.754.433 1.322.433.564 0 1.003-.144 1.316-.432.314-.288.47-.679.47-1.171v-4.735h1.785v4.892c0 .838-.323 1.515-.972 2.031-.648.516-1.514.773-2.599.773-1.088 0-1.957-.257-2.605-.773-.648-.516-.972-1.193-.972-2.031v-4.892h1.785zm12.906 6.255v1.31h-5.517v-7.565h1.785v6.255h3.732zm4.425 1.311h-1.787v-6.26h-2.495v-1.306h6.783v1.306h-2.501v6.26zm5.882 0h-1.785v-7.566h1.785v7.565zm3.732 0h-1.709v-7.566h1.49l3.986 4.928h.047v-4.928h1.709v7.565h-1.478l-3.992-4.954h-.053v4.954zm15.178-3.178c0 1.032-.334 1.84-1.003 2.428-.667.587-1.596.88-2.782.88-1.277 0-2.281-.349-3.012-1.048-.732-.699-1.098-1.662-1.098-2.889 0-1.21.364-2.16 1.091-2.852.727-.692 1.72-1.038 2.977-1.038.994 0 1.836.238 2.525.713.69.475 1.099 1.096 1.225 1.861h-1.792a1.713 1.713 0 0 0-.713-.928c-.344-.223-.757-.335-1.238-.335-.706 0-1.258.225-1.656.676-.399.451-.597 1.079-.597 1.882 0 .818.207 1.463.624 1.934.416.473.981.709 1.694.709.584 0 1.059-.145 1.428-.436.368-.29.563-.669.582-1.137l.007-.12h-1.858v-1.154h3.596v.854zm12.616 0c0 1.032-.334 1.84-1.001 2.428-.669.587-1.596.88-2.783.88-1.277 0-2.282-.349-3.013-1.048-.731-.699-1.096-1.662-1.096-2.889 0-1.21.363-2.16 1.09-2.852.728-.692 1.72-1.038 2.978-1.038.993 0 1.835.238 2.525.713s1.098 1.096 1.224 1.861h-1.792a1.716 1.716 0 0 0-.712-.928c-.346-.223-.758-.335-1.24-.335-.705 0-1.257.225-1.655.676-.398.451-.598 1.079-.598 1.882 0 .818.209 1.463.624 1.934.416.473.981.709 1.695.709.583 0 1.059-.145 1.428-.436.369-.29.563-.669.582-1.137l.006-.12h-1.856v-1.154h3.594v.854zm3.569-3.151v2.412h1.566c.449 0 .799-.106 1.05-.32.251-.213.375-.508.375-.886 0-.367-.13-.66-.389-.878-.261-.218-.612-.328-1.053-.328h-1.549zm0 3.56v2.768h-1.787v-7.565h3.525c.974 0 1.732.215 2.273.642.543.429.814 1.019.814 1.77 0 .493-.137.932-.412 1.318a2.25 2.25 0 0 1-1.137.831l1.797 3.004h-2.022l-1.592-2.768h-1.459zm12.12-2.904c-.414-.469-.97-.703-1.667-.703-.698 0-1.255.234-1.671.703-.416.468-.624 1.099-.624 1.893 0 .79.206 1.418.621 1.884.413.467.972.7 1.674.7.697 0 1.253-.233 1.667-.7.414-.466.621-1.095.621-1.884 0-.794-.207-1.425-.621-1.893zm-4.675-.97c.74-.703 1.742-1.054 3.008-1.054 1.264 0 2.267.351 3.006 1.054.74.703 1.109 1.656 1.109 2.863 0 1.202-.37 2.154-1.111 2.857-.742.702-1.743 1.053-3.004 1.053-1.266 0-2.268-.351-3.008-1.053-.739-.703-1.109-1.655-1.109-2.857 0-1.207.37-2.16 1.109-2.863zm10.66-.923v4.735c0 .492.156.883.471 1.17.313.29.753.433 1.321.433.564 0 1.002-.144 1.315-.432.314-.288.47-.679.47-1.171v-4.735h1.787v4.892c0 .838-.325 1.515-.973 2.031-.649.516-1.515.773-2.599.773-1.088 0-1.956-.257-2.605-.773s-.973-1.193-.973-2.031v-4.892h1.786zm9.176 1.253v2.69h1.295c.512 0 .91-.118 1.194-.352.285-.234.426-.566.426-.996 0-.43-.141-.76-.423-.993-.282-.233-.679-.349-1.192-.349h-1.3zm-1.786-1.253h3.56c.879 0 1.591.238 2.137.713s.819 1.101.819 1.877c0 .773-.282 1.397-.846 1.874-.563.477-1.297.716-2.2.716h-1.684v2.385h-1.786v-7.565zM64.809 13.458v31.91h50.39v-6.382H72.007V19.84H115.2v-6.382H64.81zM72.007.695H64.81v6.382h7.198V.695zm21.596 0h-7.199v6.382h7.199V.695zM108 7.077h7.199V.695H108v6.382zM.02 13.458v19.146h43.19v6.382H.02v6.382h50.39V26.222H7.218V19.84H50.41v-6.382H.02zm136.774 6.382h43.192v-6.382h-50.39v31.91h50.39V26.221h-35.993v6.382h28.795v6.382h-35.994V19.84z"/></g><defs><clipPath id="a"><path fill="#fff" transform="translate(0 .4)" d="M0 0h180v70H0z"/></clipPath></defs></svg>