<svg width="35" height="35" viewBox="0 0 35 35" fill="none" xmlns="http://www.w3.org/2000/svg"><g clip-path="url(#a)"><path d="M7.778 1.167H.973v32.666h6.805V1.167zm26.25 0h-6.805v32.666h6.805V1.167z" stroke="#fff" stroke-width="3"/><path d="M23.678 17.912a.669.669 0 0 0 0-.825l-3.093-3.712a.431.431 0 0 0-.688 0 .669.669 0 0 0 0 .825l2.75 3.3-2.75 3.3a.669.669 0 0 0 0 .825c.19.227.498.227.688 0l3.093-3.713zm-12.01.171h11.667v-1.167H11.668v1.167zm12.01 9.162a.669.669 0 0 0 0-.825l-3.093-3.712a.431.431 0 0 0-.688 0 .669.669 0 0 0 0 .825l2.75 3.3-2.75 3.3a.669.669 0 0 0 0 .825c.19.227.498.227.688 0l3.093-3.713zm-12.01.171h11.667V26.25H11.668v1.167zm12.01-18.837a.669.669 0 0 0 0-.825L20.585 4.04a.431.431 0 0 0-.688 0 .669.669 0 0 0 0 .825l2.75 3.3-2.75 3.3a.669.669 0 0 0 0 .825c.19.228.498.228.688 0l3.093-3.712zm-12.01.17h11.667V7.584H11.668V8.75z" fill="#fff"/></g><defs><clipPath id="a"><path fill="#fff" d="M0 0h35v35H0z"/></clipPath></defs></svg>