<svg width="50" height="35" viewBox="0 0 50 35" fill="none" xmlns="http://www.w3.org/2000/svg"><path d="M35 32.375H15.625L17.5 21l7.5-3.5 8.125 3.5L35 32.375z" stroke="#fff" stroke-width="2"/><path d="M25 14c2.761 0 5-3.134 5-7s-2.239-7-5-7-5 3.134-5 7 2.239 7 5 7z" fill="#fff"/><path d="M37.5 21.875l3.75-1.75 5 2.625 1.875 9.625H38.75v-7l-1.25-3.5z" stroke="#fff" stroke-width="2"/><path d="M41.25 16.625c2.071 0 3.75-2.35 3.75-5.25s-1.679-5.25-3.75-5.25c-2.071 0-3.75 2.35-3.75 5.25s1.679 5.25 3.75 5.25z" fill="#fff"/><path d="M13.125 21.875l-3.75-1.75-5 2.625L2.5 32.375h9.375v-7l1.25-3.5z" stroke="#fff" stroke-width="2"/><path d="M9.375 16.625c-2.071 0-3.75-2.35-3.75-5.25s1.679-5.25 3.75-5.25c2.071 0 3.75 2.35 3.75 5.25s-1.679 5.25-3.75 5.25z" fill="#fff"/></svg>