<svg width="70" height="70" viewBox="0 0 70 70" fill="none" xmlns="http://www.w3.org/2000/svg"><g clip-path="url(#a)" fill="#fff"><path d="M58.759 13.706c-.295-.06-.837-.228-1.037-.428-.2-.2-.368-.742-.427-1.036a.3.3 0 1 0-.589 0c-.04.197-.203.81-.428 1.035-.2.2-.742.369-1.037.429a.3.3 0 0 0 0 .588c.295.06.837.228 1.037.428.2.2.368.742.428 1.037a.3.3 0 1 0 .589 0c.04-.198.203-.812.427-1.037.2-.2.742-.368 1.037-.428a.3.3 0 0 0 0-.588zm-1.462.591a1.633 1.633 0 0 0-.297.445 1.639 1.639 0 0 0-.297-.445 1.638 1.638 0 0 0-.446-.297c.168-.081.328-.18.445-.297a1.63 1.63 0 0 0 .298-.445c.081.168.18.327.297.445.118.118.278.216.445.297-.167.081-.327.18-.445.297zm12.257-1.723c-.472-.095-1.261-.353-1.536-.627-.274-.275-.532-1.064-.627-1.536a.554.554 0 1 0-1.089.001c-.074.37-.324 1.232-.627 1.534-.276.274-1.064.533-1.536.628a.556.556 0 0 0 0 1.09c.473.095 1.26.352 1.535.626.274.275.532 1.063.628 1.536a.556.556 0 0 0 1.088 0c.096-.472.354-1.261.628-1.536.275-.274 1.064-.531 1.536-.627a.556.556 0 0 0 0-1.089zm-2.32.931a2.346 2.346 0 0 0-.387.54 2.36 2.36 0 0 0-.386-.54 2.344 2.344 0 0 0-.54-.386c.203-.11.391-.238.539-.386a2.33 2.33 0 0 0 .387-.539c.11.203.24.391.386.539.148.147.336.276.54.386-.204.11-.392.239-.54.386zM63.238 2.518a.555.555 0 0 0 .556-.555V.556a.555.555 0 1 0-1.111 0v1.407c0 .307.248.555.555.555zm0 4.125a.555.555 0 0 0 .556-.555V4.68a.555.555 0 1 0-1.111 0v1.407c0 .307.248.555.555.555zm-2.765-2.766h1.407a.555.555 0 1 0 0-1.111h-1.407a.555.555 0 1 0 0 1.11zm4.124 0h1.407a.555.555 0 1 0 0-1.111h-1.407a.555.555 0 1 0 0 1.11zM57.321 59a.555.555 0 0 0-.555.556v1.406a.555.555 0 1 0 1.11 0v-1.406a.555.555 0 0 0-.555-.556zm0 4.125a.555.555 0 0 0-.555.556v1.406a.555.555 0 1 0 1.11 0v-1.406a.555.555 0 0 0-.555-.556zm-1.359-1.359h-1.406a.555.555 0 1 0 0 1.11h1.406a.555.555 0 1 0 0-1.11zm4.125 0h-1.406a.555.555 0 1 0 0 1.11h1.406a.555.555 0 1 0 0-1.11zM44.29 29.443c.01-.01.98-.922 2.493-.771 1.37.135 1.916 1.021 1.935 1.054a.556.556 0 0 0 .965-.552c-.034-.058-.83-1.414-2.79-1.608-2.033-.204-3.32 1.024-3.374 1.076a.556.556 0 0 0 .772.8zm4.667 4.455c-.195.591-.57.954-1.15 1.147a2.523 2.523 0 0 0-1.268-.35 2.555 2.555 0 0 0-2.552 2.551 2.555 2.555 0 0 0 2.552 2.552c1.284 0 2.34-.958 2.515-2.194a5.014 5.014 0 0 0 2.616-1.406.555.555 0 1 0-.792-.779c-.531.54-1.167.882-1.92 1.058a2.542 2.542 0 0 0-.273-.599c.633-.35 1.087-.9 1.328-1.632a.556.556 0 0 0-1.056-.348zm-2.418 4.789a1.442 1.442 0 0 1 0-2.881c.795 0 1.441.646 1.441 1.44 0 .794-.647 1.44-1.44 1.44zm-14.341 1.111a2.555 2.555 0 0 0 2.551-2.552 2.555 2.555 0 0 0-2.551-2.552 2.52 2.52 0 0 0-1.268.351c-.58-.194-.956-.556-1.15-1.147a.556.556 0 1 0-1.056.347c.24.732.695 1.283 1.327 1.633a2.536 2.536 0 0 0-.273.599 3.862 3.862 0 0 1-1.92-1.059.557.557 0 0 0-.79.78 5.012 5.012 0 0 0 2.614 1.406 2.548 2.548 0 0 0 2.516 2.194zm1.44-2.552a1.442 1.442 0 0 1-2.881 0 1.442 1.442 0 0 1 2.881 0zm-4.382-7.316a.56.56 0 0 0 .759-.196c.023-.038.569-.924 1.938-1.059 1.499-.149 2.455.735 2.495.773a.556.556 0 0 0 .769-.802c-.055-.052-1.347-1.28-3.373-1.076-1.96.194-2.758 1.55-2.79 1.607a.552.552 0 0 0 .203.753z"/><path d="M31.382 5.886C32.162 4.421 35.028 0 41.23 0c9.414 0 20.568 5.07 23.641 19.3 2.894 13.397-.464 48.702-.609 50.198a.556.556 0 0 1-1.105-.107c.035-.365 3.485-36.628.628-49.858C60.85 5.952 50.21 1.112 41.23 1.112c-6.657 0-9.021 5.604-9.045 5.66a.557.557 0 0 1-.724.304c-.282-.114-6.993-2.698-12.9 5.104C15.33 16.443 14 31.27 14 47l1 23-1-.5-1.35-28.166c.037-15.865 1.635-25.352 5.023-29.826 5.495-7.256 11.9-6.128 13.71-5.622z"/><path d="M33.23 24.053a.833.833 0 1 0 0-1.666.833.833 0 0 0 0 1.666zm-8.452 19.004a.833.833 0 1 0 0-1.666.833.833 0 0 0 0 1.666zm3.835 3.731a.833.833 0 1 0 0-1.667.833.833 0 0 0 0 1.667zm3.89.433a.833.833 0 1 0 0-1.666.833.833 0 0 0 0 1.666zm-6.35 5.555a.833.833 0 1 0 0-1.667.833.833 0 0 0 0 1.667z"/><path d="M47.534 66.378c-.987-.146-1.731-1.035-1.731-2.067v-3.573c3.604-1.652 7.184-4.358 9.27-7.29.747-1.051 1.39-2.343 1.94-3.721 1.16-.085 4.44-.685 5.301-4.722.846-3.967-1.564-5.982-2.508-6.604.235-1.773.911-9.292-3.416-15.408-4.644-6.56-16.723-8.175-19.862-7.262-2.276.66-3.223 2.37-3.581 3.312-.942-.342-2.857-.828-4.908-.112-2.665.928-10.088 10.255-9.092 19.461-.932.61-3.372 2.623-2.522 6.614.861 4.036 4.14 4.636 5.3 4.72.55 1.378 1.194 2.67 1.941 3.722 2.085 2.932 5.665 5.639 9.27 7.29v3.573c0 1.032-.745 1.92-1.732 2.067-2.373.353-4.556 1.261-6.311 2.627a.556.556 0 0 0 .682.877c1.605-1.25 3.608-2.08 5.792-2.404 1.528-.227 2.68-1.588 2.68-3.166v-3.098c1.878.745 3.722 1.181 5.322 1.181s3.445-.436 5.323-1.181v3.097c0 1.579 1.152 2.94 2.68 3.167 2.184.324 4.187 1.155 5.792 2.404a.555.555 0 0 0 .682-.877c-1.756-1.366-3.939-2.274-6.312-2.627zm13.693-21.604c-.61 2.861-2.636 3.602-3.778 3.791 1.236-3.5 1.913-7.261 2.176-8.931.87.704 2.209 2.293 1.602 5.14zm-5.745-21.138c4.564 6.449 3.187 14.873 3.173 14.957v.012c0 .004-.002.007-.003.01-.012.097-1.292 9.697-4.486 14.19-2.01 2.827-5.603 5.489-9.132 7.052l-.005.002c-1.792.793-3.561 1.295-5.104 1.396V46.053c1.617-.303 2.857-1.903 2.857-3.831s-1.24-3.528-2.857-3.832V16.634c4.608.294 12.24 2.316 15.557 7.002zM39.369 39.445c1.268 0 2.301 1.246 2.301 2.777 0 1.53-1.032 2.776-2.301 2.776-1.27 0-2.302-1.245-2.302-2.776 0-1.531 1.033-2.777 2.302-2.777zm-21.858 5.33c-.607-2.848.733-4.437 1.601-5.141.263 1.67.94 5.43 2.177 8.932-1.142-.19-3.168-.932-3.778-3.792zm7.06 8.03c-3.193-4.493-4.473-14.093-4.485-14.19-1.146-8.63 5.9-17.792 8.319-18.634 2.372-.825 4.616.296 4.637.307a.559.559 0 0 0 .8-.384c.02-.098.514-2.385 2.996-3.105.458-.133 1.14-.202 1.977-.201V38.39c-1.62.303-2.859 1.903-2.859 3.83 0 1.929 1.24 3.529 2.858 3.833v15.201c-1.544-.1-3.313-.603-5.105-1.396-.002 0-.003 0-.004-.002-3.53-1.563-7.123-4.225-9.133-7.053z"/></g><defs><clipPath id="a"><path fill="#fff" d="M0 0h70v70H0z"/></clipPath></defs></svg>