<svg width="144" height="144" viewBox="0 0 144 144" fill="none" xmlns="http://www.w3.org/2000/svg"><path d="M69.108 2.05a5 5 0 0 1 5.784 0L86.7 10.423a5 5 0 0 0 3.357.9l14.412-1.347a5 5 0 0 1 5.009 2.892l6.041 13.155a5.001 5.001 0 0 0 2.457 2.457l13.155 6.04a5 5 0 0 1 2.892 5.01l-1.346 14.413a5.004 5.004 0 0 0 .899 3.356l8.373 11.81a5 5 0 0 1 0 5.783L133.577 86.7a5.004 5.004 0 0 0-.899 3.357l1.346 14.412a4.999 4.999 0 0 1-2.892 5.009l-13.155 6.041a5.004 5.004 0 0 0-2.457 2.457l-6.041 13.155a4.999 4.999 0 0 1-5.009 2.892l-14.412-1.346a5.004 5.004 0 0 0-3.357.899l-11.81 8.373a5 5 0 0 1-5.783 0L57.3 133.577a5.004 5.004 0 0 0-3.356-.899l-14.413 1.346a5 5 0 0 1-5.01-2.892l-6.04-13.155a5.001 5.001 0 0 0-2.457-2.457l-13.155-6.041a5 5 0 0 1-2.892-5.009l1.346-14.412a5 5 0 0 0-.9-3.357L2.05 74.89a5 5 0 0 1 0-5.783L10.423 57.3a5 5 0 0 0 .9-3.356L9.975 39.53a5 5 0 0 1 2.892-5.01l13.155-6.04a4.999 4.999 0 0 0 2.457-2.457l6.04-13.155a5 5 0 0 1 5.01-2.892l14.413 1.346a5 5 0 0 0 3.356-.9L69.11 2.05z" fill="url(#a)"/><defs><linearGradient id="a" x1="21" y1="15" x2="133" y2="171" gradientUnits="userSpaceOnUse"><stop stop-color="#C0C948"/><stop offset="1" stop-color="#ECD504"/></linearGradient></defs></svg>