<svg width="103" height="90" viewBox="0 0 103 90" fill="none" xmlns="http://www.w3.org/2000/svg">
<rect x="0.5" y="0.5" width="102" height="89" rx="2.5" fill="white" stroke="#0B7CC1"/>
<path d="M54.6537 60.9C58.987 60.9 62.5704 59.5 65.4037 56.7L67.0537 58.35C65.5204 59.95 63.6704 61.1667 61.5037 62C59.3704 62.8333 57.0537 63.25 54.5537 63.25C51.6537 63.25 48.9704 62.6833 46.5037 61.55C44.037 60.4167 41.9704 58.8333 40.3037 56.8C38.637 54.7667 37.5037 52.4333 36.9037 49.8H31.0537V48.1H36.5537C36.4537 47.2333 36.4037 46.3667 36.4037 45.5C36.4037 44.6 36.4537 43.7333 36.5537 42.9H31.0537V41.2H36.9037C37.5037 38.5667 38.637 36.2333 40.3037 34.2C41.9704 32.1667 44.037 30.5833 46.5037 29.45C48.9704 28.3167 51.6537 27.75 54.5537 27.75C57.0537 27.75 59.3704 28.1667 61.5037 29C63.6704 29.8 65.5204 31 67.0537 32.6L65.4037 34.25C62.6037 31.4833 59.0204 30.1 54.6537 30.1C52.2204 30.1 49.9704 30.5667 47.9037 31.5C45.837 32.4333 44.0704 33.75 42.6037 35.45C41.1704 37.1167 40.1537 39.0333 39.5537 41.2H57.8037V42.9H39.2037C39.0704 43.6667 39.0037 44.5333 39.0037 45.5C39.0037 46.4667 39.0704 47.3333 39.2037 48.1H57.8037V49.8H39.5537C40.1537 51.9667 41.1704 53.9 42.6037 55.6C44.0704 57.2667 45.837 58.5667 47.9037 59.5C49.9704 60.4333 52.2204 60.9 54.6537 60.9Z" fill="#0B7CC1"/>
</svg>
