<svg width="35" height="20" viewBox="0 0 35 20" fill="none" xmlns="http://www.w3.org/2000/svg">
<g clip-path="url(#clip0_11_692)">
<path fill-rule="evenodd" clip-rule="evenodd" d="M0 20H34.2857V0H0V20Z" fill="#F2F2F2"/>
<path fill-rule="evenodd" clip-rule="evenodd" d="M0 19.9998H34.2857V6.66553H0V19.9998Z" fill="#303E99"/>
<path fill-rule="evenodd" clip-rule="evenodd" d="M0 20.0001H34.2857V13.3315H0V20.0001Z" fill="#BB1F33"/>
<path fill-rule="evenodd" clip-rule="evenodd" d="M5.18473 4.69873C4.78322 4.73074 4.89669 5.21953 4.84722 5.49594C4.70466 7.40749 4.50972 9.38305 5.09453 11.2451C5.55424 12.7464 6.65694 13.9859 7.9895 14.7889C8.31537 14.9722 8.63832 15.2021 8.9991 15.301C9.38025 15.1933 9.71484 14.9548 10.0582 14.7598C11.3704 13.9626 12.4498 12.7319 12.9066 11.248C13.5001 9.35395 13.2877 7.3493 13.1452 5.40574C13.1248 5.13807 13.1626 4.67254 12.7698 4.70164H5.18473V4.69873Z" fill="#F2F2F2"/>
<path fill-rule="evenodd" clip-rule="evenodd" d="M8.99918 5.00146V14.9986C13.6224 12.7611 13.1191 9.0486 12.8136 5.00146H8.99918ZM8.99918 5.00146V14.9986C4.37596 12.7611 4.87931 9.0486 5.18481 5.00146H8.99918Z" fill="#BB1F33"/>
<path fill-rule="evenodd" clip-rule="evenodd" d="M9.54023 7.74239C10.0261 7.74239 10.5207 7.82968 11.0008 7.92569C10.8582 7.46017 10.8582 7.17504 11.0008 6.71533C10.5236 6.81135 10.0261 6.89863 9.54023 6.89863H8.45789C7.972 6.89863 7.47447 6.81135 6.99731 6.71533C7.13988 7.17794 7.13988 7.46308 6.99731 7.92569C7.47157 7.82968 7.96909 7.74239 8.45789 7.74239H9.54023Z" fill="#F2F2F2"/>
<path fill-rule="evenodd" clip-rule="evenodd" d="M9.95922 9.56368C10.4451 9.56368 10.9426 9.65097 11.4198 9.74407C11.2801 9.28146 11.2801 8.99923 11.4198 8.53662C10.9455 8.62973 10.448 8.71992 9.95922 8.71992H8.03894C7.55306 8.71992 7.05844 8.62973 6.57837 8.53662C6.72094 8.99923 6.72094 9.28146 6.57837 9.74407C7.05553 9.65097 7.55306 9.56368 8.03894 9.56368H9.95922Z" fill="#F2F2F2"/>
<path fill-rule="evenodd" clip-rule="evenodd" d="M8.39087 5.38281C8.48397 5.85706 8.57417 6.35168 8.57417 6.83466V13.029H9.42084V6.83466C9.42084 6.35168 9.51103 5.85706 9.60414 5.38281C9.14152 5.52247 8.85639 5.52247 8.39087 5.38281Z" fill="#F2F2F2"/>
<path fill-rule="evenodd" clip-rule="evenodd" d="M7.07881 11.5244C6.52892 11.5244 6.08667 11.9667 6.08667 12.5136C6.08667 12.5544 6.09249 12.5951 6.0954 12.6329C6.28743 12.9152 6.50855 13.1857 6.7675 13.4476C6.86642 13.4796 6.96825 13.5 7.0759 13.5C7.6258 13.5 8.06805 13.0548 8.06805 12.5107C8.07096 11.9667 7.62871 11.5244 7.07881 11.5244Z" fill="#303E99"/>
<path fill-rule="evenodd" clip-rule="evenodd" d="M8.99908 10.9424C8.3037 10.9424 7.73926 11.5039 7.73926 12.1993C7.73926 12.8918 8.3037 13.4562 8.99908 13.4562C9.69736 13.4562 10.2618 12.8918 10.2618 12.1993C10.2618 11.5039 9.69736 10.9424 8.99908 10.9424Z" fill="#303E99"/>
<path fill-rule="evenodd" clip-rule="evenodd" d="M10.9194 11.5244C10.3724 11.5244 9.92432 11.9667 9.92432 12.5136C9.92432 13.0577 10.3724 13.5029 10.9194 13.5029C11.027 13.5029 11.1289 13.4825 11.2278 13.4505C11.4867 13.1887 11.7108 12.9152 11.9028 12.6329C11.9086 12.5951 11.9144 12.5544 11.9144 12.5136C11.9115 11.9667 11.4664 11.5244 10.9194 11.5244Z" fill="#303E99"/>
<path fill-rule="evenodd" clip-rule="evenodd" d="M6.25537 12.8486C6.86346 13.6575 7.7334 14.3849 8.99904 14.9988C10.2647 14.3819 11.1375 13.6575 11.7427 12.8486H6.25537Z" fill="#303E99"/>
</g>
<defs>
<clipPath id="clip0_11_692">
<rect width="34.2857" height="20" fill="white"/>
</clipPath>
</defs>
</svg>
