<svg width="36" height="36" viewBox="0 0 36 36" fill="none" xmlns="http://www.w3.org/2000/svg">
<circle cx="17.9102" cy="17.9102" r="17.9102" fill="#0B7CC1"/>
<g clip-path="url(#clip0_18_46)">
<path d="M20.3396 11.432H15.481C13.2453 11.432 11.4321 13.2452 11.4321 15.4809V20.3395C11.4321 22.5752 13.2453 24.3883 15.481 24.3883H20.3396C22.5753 24.3883 24.3884 22.5752 24.3884 20.3395V15.4809C24.3884 13.2452 22.5753 11.432 20.3396 11.432ZM23.1738 20.3395C23.1738 21.9024 21.9024 23.1737 20.3396 23.1737H15.481C13.9181 23.1737 12.6468 21.9024 12.6468 20.3395V15.4809C12.6468 13.918 13.9181 12.6467 15.481 12.6467H20.3396C21.9024 12.6467 23.1738 13.918 23.1738 15.4809V20.3395Z" fill="#0B7CC1"/>
<path d="M17.9102 14.6711C16.1214 14.6711 14.6711 16.1214 14.6711 17.9102C14.6711 19.699 16.1214 21.1493 17.9102 21.1493C19.6991 21.1493 21.1493 19.699 21.1493 17.9102C21.1493 16.1214 19.6991 14.6711 17.9102 14.6711ZM17.9102 19.9346C16.7943 19.9346 15.8858 19.0262 15.8858 17.9102C15.8858 16.7935 16.7943 15.8858 17.9102 15.8858C19.0262 15.8858 19.9346 16.7935 19.9346 17.9102C19.9346 19.0262 19.0262 19.9346 17.9102 19.9346Z" fill="#0B7CC1"/>
<path d="M21.3922 14.8598C21.6306 14.8598 21.8239 14.6666 21.8239 14.4281C21.8239 14.1897 21.6306 13.9964 21.3922 13.9964C21.1537 13.9964 20.9604 14.1897 20.9604 14.4281C20.9604 14.6666 21.1537 14.8598 21.3922 14.8598Z" fill="#0B7CC1"/>
</g>
<circle cx="17.1481" cy="17.9102" r="17.1481" fill="#0B7CC1"/>
<path d="M25.986 13.2958C25.5089 12.4936 24.9912 12.3459 23.937 12.2897C22.8841 12.2221 20.236 12.1942 17.9417 12.1942C15.6433 12.1942 12.9941 12.2221 11.9423 12.2887C10.8901 12.3459 10.3714 12.4923 9.8898 13.2958C9.39858 14.097 9.14575 15.4773 9.14575 17.907C9.14575 17.9089 9.14575 17.9102 9.14575 17.9102C9.14575 17.9122 9.14575 17.9135 9.14575 17.9135V17.9154C9.14575 20.335 9.39858 21.7253 9.8898 22.5184C10.3714 23.3206 10.8891 23.4661 11.9409 23.5337C12.9941 23.5918 15.6433 23.6262 17.9417 23.6262C20.2357 23.6262 22.8838 23.5918 23.938 23.5346C24.9922 23.4671 25.5099 23.3216 25.9871 22.5194C26.4827 21.7263 26.7335 20.3359 26.7335 17.9164C26.7335 17.9164 26.7335 17.9131 26.7335 17.9112C26.7335 17.9112 26.7335 17.9092 26.7335 17.9079C26.7335 15.4773 26.4827 14.097 25.986 13.2958ZM15.7412 21.028V14.7924L21.2373 17.9102L15.7412 21.028Z" fill="white"/>
<defs>
<clipPath id="clip0_18_46">
<rect width="12.9563" height="12.9563" fill="white" transform="translate(11.4321 11.432)"/>
</clipPath>
</defs>
</svg>
