<svg width="62" height="21" viewBox="0 0 62 21" fill="none" xmlns="http://www.w3.org/2000/svg"><g clip-path="url(#a)"><path d="M26.138 11.475a5.04 5.04 0 1 1-10.08 0 5.04 5.04 0 0 1 10.08 0zm-2.207 0c0-1.812-1.311-3.044-2.833-3.044-1.522 0-2.832 1.237-2.832 3.044 0 1.808 1.31 3.045 2.832 3.045 1.522 0 2.831-1.258 2.831-3.045h.002z" fill="#EA4335"/><path d="M37.01 11.475a5.04 5.04 0 1 1-10.08 0 5.04 5.04 0 0 1 10.08 0zm-2.206 0c0-1.812-1.311-3.044-2.833-3.044-1.523 0-2.832 1.237-2.832 3.044 0 1.808 1.312 3.045 2.834 3.045s2.83-1.258 2.83-3.045h.002z" fill="#FBBC05"/><path d="M47.43 6.754v9.02c0 3.71-2.187 5.226-4.774 5.226a4.784 4.784 0 0 1-4.456-2.96l1.921-.8c.342.818 1.18 1.783 2.53 1.783 1.656 0 2.682-1.022 2.682-2.945v-.723h-.077a3.422 3.422 0 0 1-2.646 1.133c-2.512 0-4.813-2.188-4.813-5.004 0-2.816 2.304-5.033 4.816-5.033a3.482 3.482 0 0 1 2.645 1.132h.078v-.826h2.095v-.003zm-1.938 4.74c0-1.77-1.18-3.063-2.682-3.063s-2.798 1.293-2.798 3.062c0 1.77 1.276 3.026 2.798 3.026s2.682-1.273 2.682-3.026z" fill="#4285F4"/><path d="M50.885 1.468V16.19h-2.152V1.468h2.152z" fill="#34A853"/><path d="M59.267 13.129l1.712 1.132a5.001 5.001 0 0 1-4.186 2.227c-2.854 0-4.983-2.206-4.983-5.024.002-2.975 2.151-5.013 4.738-5.013 2.587 0 3.883 2.075 4.304 3.196l.227.57-6.717 2.78c.515 1.008 1.314 1.522 2.435 1.522 1.122 0 1.903-.552 2.474-1.39h-.004zm-5.272-1.813l4.49-1.864c-.247-.627-.99-1.064-1.864-1.064A2.756 2.756 0 0 0 54 11.32l-.005-.005z" fill="#EA4335"/><path d="M7.912 10.167V8.036h7.183c.075.425.11.855.107 1.287 0 1.599-.437 3.576-1.846 4.983-1.36 1.427-3.122 2.188-5.437 2.188C3.615 16.496 0 12.994 0 8.695 0 4.395 3.615.894 7.915.894a7.434 7.434 0 0 1 5.346 2.158l-1.505 1.495a5.437 5.437 0 0 0-3.85-1.522A5.595 5.595 0 0 0 2.31 8.688a5.595 5.595 0 0 0 5.595 5.663c2.038 0 3.196-.818 3.939-1.56.602-.603.999-1.464 1.155-2.64l-5.088.016z" fill="#4285F4"/></g><defs><clipPath id="a"><path fill="#fff" transform="translate(0 .894)" d="M0 0h61.079v20.106H0z"/></clipPath></defs></svg>