<svg width="91" height="31" viewBox="0 0 91 31" fill="none" xmlns="http://www.w3.org/2000/svg"><g clip-path="url(#a)" fill-rule="evenodd" clip-rule="evenodd"><path d="M70.532 18.03a4.375 4.375 0 1 1-.692-6.544l2.4-3.372a8.524 8.524 0 1 0 .727 13.269l-2.435-3.352zM51.154 7.052l-2.4 3.344a4.683 4.683 0 0 1-.465 9.343V2.871h-3.97V6.58a8.508 8.508 0 0 0 0 17.015v3.853h3.964v-3.853a8.52 8.52 0 0 0 8.507-8.509c.035-3.707-2.327-6.833-5.636-8.033zM39.63 15.086a4.702 4.702 0 0 1 4.69-4.69v9.38a4.702 4.702 0 0 1-4.69-4.69zm40.099 8.181h-4.327V6.906h4.327v16.36zm.581-8.181l5.853-8.18h4.508l-5.926 8.066 6.252 8.295h-4.58l-6.107-8.181z" fill="#000"/><path d="M12.727 8.942h17.087A15.1 15.1 0 0 0 20.871.8l-8.143 8.143z" fill="#F15A22"/><path d="M30.654 11.342H9.818a1.283 1.283 0 0 1-1.126-.727 1.241 1.241 0 0 1 .255-1.31L18.108.144A13.477 13.477 0 0 0 15.998 0 15.095 15.095 0 0 0 .913 15.085c-.011 1.09.11 2.176.363 3.236h21.048a1.284 1.284 0 0 1 1.128.728 1.24 1.24 0 0 1-.254 1.309L13.6 29.986c.805.134 1.62.195 2.436.182A15.096 15.096 0 0 0 31.12 15.085a18.192 18.192 0 0 0-.466-3.743z" fill="#F15A22"/><path d="M19.416 20.72H2.042a15.117 15.117 0 0 0 8.87 8.545l8.504-8.544z" fill="#F15A22"/></g><defs><clipPath id="a"><path fill="#fff" transform="translate(.913)" d="M0 0h90.087v30.174H0z"/></clipPath></defs></svg>