<svg width="147" height="32" viewBox="0 0 147 32" fill="none" xmlns="http://www.w3.org/2000/svg"><g clip-path="url(#a)"><path d="M45.378 19.572h.891l2.94-2.672h2.404l-4.008 3.296 4.008 3.785h-2.36l-2.984-3.028h-.89l.044 3.028h-1.737l-.044-7.125h1.78l-.044 2.716zm12.514 4.408H54.73c-1.915 0-2.627-.667-2.627-2.404v-2.182c0-1.915.712-2.494 2.627-2.494h3.162c1.781 0 2.582.535 2.582 2.494v2.182c.045 1.781-.578 2.405-2.582 2.405zm-2.672-1.335h2.226c1.114 0 1.336-.312 1.336-1.247v-1.87c0-.98-.356-1.336-1.38-1.336H55.22c-1.069 0-1.38.356-1.38 1.335v1.87c.044.936.355 1.248 1.38 1.248zm9.307-5.745l2.27 5.656h.09l2.271-5.656h3.028v7.08H70.54v-5.655h-.223l-2.36 5.656H65.64l-2.316-5.656h-.222v5.656h-1.648V16.9h3.073zm14.651.045v.534h2.048c1.648 0 2.45.49 2.45 2.45v.979c0 1.737-.58 2.405-2.45 2.405h-2.048v.668h-1.603v-.624H75.48c-1.87 0-2.449-.623-2.449-2.404v-.98c0-1.96.802-2.494 2.45-2.494h2.093v-.534h1.603zm-3.207 1.959c-.935 0-1.291.223-1.291 1.291v.58c0 .979.223 1.202 1.247 1.202h1.647v-3.073h-1.603zm3.207 3.073h1.647c1.025 0 1.247-.223 1.247-1.203v-.623c0-1.024-.312-1.291-1.247-1.291h-1.603l-.044 3.117zm10.955 2.003h-2.984c-1.781 0-2.494-.667-2.494-2.404v-2.182c0-1.915.668-2.494 2.494-2.494h2.984c1.647 0 2.449.535 2.449 2.494v2.182c-.045 1.781-.534 2.405-2.45 2.405zm-2.405-1.335h1.781c1.069 0 1.47-.312 1.47-1.247v-1.87c0-1.025-.49-1.292-1.47-1.292h-1.781c-1.024 0-1.514.312-1.514 1.291v1.87c.044.936.49 1.248 1.514 1.248zm7.482 1.291h-1.648v-7.08h4.675c1.737 0 2.405.668 2.405 2.493 0 1.826-.712 2.405-2.405 2.405h-2.939l-.089 2.182zm0-3.473h2.716c.846 0 1.068-.312 1.068-1.114 0-.668-.222-1.068-1.068-1.068h-2.717v2.182zm13.448-3.607v1.336h-2.894v5.789h-1.559v-5.79h-3.117v-1.335h7.57zm11.088 4.72c0 1.87-.445 2.405-2.449 2.405h-2.983c-1.871 0-2.45-.58-2.45-2.45v-2.003c0-2.049.624-2.628 2.628-2.628h2.672c1.558 0 2.582.446 2.582 2.45h-1.603c0-.713-.356-1.114-1.291-1.114h-2.004c-1.069 0-1.292.267-1.292 1.38v1.737c0 1.07.401 1.38 1.292 1.38h2.048c.936 0 1.292-.266 1.292-1.113l1.558-.044zm2.583.98h.223l4.231-5.7h2.76v7.125h-1.647v-5.7h-.223l-4.186 5.7h-2.805v-7.125h1.647v5.7zm15.23-5.7v1.336h-2.672v5.744h-1.692v-5.744h-2.716v-1.336h7.08zm2.716 5.655l.49-.579 3.563-5.076H147l-.045 7.08h-1.647l-.045-5.566-.356.4-3.652 5.21h-2.761v-7.124h1.781v5.655zm-93.071-11.89l-1.603 2.538c-.49.847-.668 1.025-1.247 1.025h-.267v-.356h.267c.356 0 .445-.09.668-.446l-1.826-2.76h.401l1.648 2.493 1.603-2.494h.356zm4.899 0v3.563h-.357v-3.207h-2.85v3.207h-.356V10.62h3.563zm2.137 3.563h-.356l.044-3.563h2.227c.801 0 1.336.178 1.336 1.024 0 .847-.49 1.114-1.336 1.114h-1.87l-.045 1.425zm0-1.737h2.004c.49 0 .935-.134.89-.89-.044-.446-.4-.58-.935-.58H54.24v1.47zm4.052 1.737l1.603-3.563h.668l1.737 3.563h-.4l-.402-.89h-2.404l-.401.89h-.401zm3.028-1.247l-.846-1.87h-.445l-.846 1.87h2.137zm31.35 1.247l1.604-3.563h.668l1.737 3.563h-.401l-.4-.89h-2.406l-.4.89h-.401zm3.03-1.247l-.847-1.87h-.445l-.847 1.87H95.7zm32.063 1.247l1.603-3.518h.668l1.737 3.518h-.401l-.401-.891h-2.405l-.401.89h-.4zm3.028-1.247l-.846-1.87h-.446l-.846 1.87h2.138zm-67.065-2.316h2.36c.757 0 1.113.267 1.113.89 0 .624-.267.713-.4.758.311.089.4.356.4.801 0 .758-.312 1.07-1.024 1.07h-2.45v-3.52zm.311 1.47h2.138c.445 0 .623-.045.623-.49s-.178-.579-.623-.579h-2.138v1.069zm0 1.737h2.227c.445 0 .534-.223.534-.713s-.178-.757-.579-.757h-2.182v1.47zm5.878-2.806l-.044 2.316a.922.922 0 0 1-1.024.89h-.134v-.356h.178c.178 0 .623-.134.623-.534l-.044-2.672h3.117v3.562h-.356l-.09-3.162c0-.044-2.226-.044-2.226-.044zm5.611 1.692l-1.069 1.47h-.49l1.114-1.47c-.624 0-1.158-.267-1.158-.935 0-.757.534-1.113 1.336-1.113h2.226v3.518h-.4v-1.425l-1.559-.045zm1.559-1.737H75.17c-.49 0-.846.223-.846.757 0 .535.356.668.89.668h1.87v-1.425zm2.627.98h.98v-.089c0-.89.311-1.247 1.247-1.247h1.47c.845 0 1.201.223 1.201 1.247v1.113c0 1.025-.311 1.203-1.202 1.203h-1.47c-.935 0-1.335-.312-1.335-1.203v-.579h-.891v1.782h-.445V10.62h.4l.045 1.336zm3.651-.935H81.94c-.624 0-.936.178-.936.846v1.158c0 .668.223.757.891.757h1.47c.712 0 .89-.044.89-.757v-1.158c0-.668-.178-.846-.89-.846zm7.927 2.717V10.62h-.445v3.117h-1.781V10.62h-.446v3.117h-1.781V10.62h-.445v3.518h4.987v.935h.356V13.74h-.445zm8.105-.936l-1.068 1.336h-.49l1.113-1.336c-.623 0-.935-.4-.935-1.069 0-.757.356-1.113 1.202-1.113h2.272v3.563h-.357v-1.336l-1.737-.045zm1.782-1.826h-2.049c-.49 0-.712.223-.712.758 0 .534.222.757.757.757h2.004v-1.515zm5.166 3.207h-.357V10.62h.357V12h.534l2.004-1.38h.579l-2.271 1.648 2.271 1.915h-.579l-2.093-1.737h-.49l.045 1.737zm7.258 0h-1.469c-.936 0-1.247-.267-1.247-1.203v-1.113c0-.935.311-1.247 1.247-1.247h1.469c.846 0 1.247.223 1.247 1.247v1.113c0 1.025-.312 1.203-1.247 1.203zm0-3.207h-1.469c-.624 0-.936.179-.936.847v1.157c0 .668.223.847.936.847h1.469c.713 0 .891-.179.891-.847v-1.113c0-.712-.178-.89-.891-.89zm3.385-.356l1.692 3.028 1.692-3.028h.712v3.563h-.311v-3.296h-.178l-1.826 3.296h-.178l-1.826-3.296h-.178v3.296h-.356v-3.518h.757v-.045zm9.485 0v3.563h-.401v-3.207h-3.206v3.207h-.401V10.62h4.008zm7.036 3.563h-.357v-3.518h.357v1.736h2.805v-1.736h.356v3.518h-.356v-1.425h-2.805v1.425zm5.343-.268l2.539-3.25h.668v3.518h-.357v-3.251h-.133l-2.494 3.25h-.579V10.71h.356v3.206zm6.057-1.202l-.98 1.47h-.534l1.024-1.47c-.668 0-1.024-.312-1.024-.98 0-.801.356-1.113 1.202-1.113h2.36v3.563h-.356v-1.47h-1.692zm1.647-1.737h-2.093c-.534 0-.712.179-.712.713s.178.713.757.713h2.048v-1.426z" fill="#1A5A84"/><path d="M146.955 26.697H43.685v.357h103.27v-.357z" fill="#7F8082"/><path d="M20.396 11.111h-6.413l-9.619 9.485V.824H0v30.148h4.364V22.2l9.174 8.861h6.59L10.02 21.354 20.396 11.11zm14.74 15.987h-3.874v3.963h3.874v-3.963z" fill="#1A5A84"/><path d="M28.678 11.111a9.997 9.997 0 0 0-9.975 10.02c0 5.522 5.166 9.93 10.643 9.93l.045.045v-4.008c-3.162 0-6.413-2.85-6.413-6.012 0-3.162 2.583-6.1 5.7-6.1h6.413V11.11h-6.413z" fill="#1A5A84"/></g><defs><clipPath id="a"><path fill="#fff" transform="translate(0 .824)" d="M0 0h147v30.282H0z"/></clipPath></defs></svg>