<svg width="223" height="39" viewBox="0 0 223 39" fill="none" xmlns="http://www.w3.org/2000/svg"><g clip-path="url(#a)"><path d="M22.934 3v13.491H9.39V3H2.617v33.73H9.39V23.239h13.544V36.73h6.773V3h-6.773zm44.018 0H60.18v3.373A16.988 16.988 0 0 0 42.45 4.78a16.907 16.907 0 0 0-6.831 6.218 16.818 16.818 0 0 0 0 17.734 16.907 16.907 0 0 0 6.83 6.219 16.987 16.987 0 0 0 17.731-1.593v3.372h6.773V3zM50.021 29.983c-2.01 0-3.973-.593-5.644-1.705a10.128 10.128 0 0 1-3.741-4.541 10.083 10.083 0 0 1-.578-5.847 10.107 10.107 0 0 1 2.78-5.181 10.17 10.17 0 0 1 5.201-2.77c1.97-.39 4.013-.19 5.87.576a10.15 10.15 0 0 1 4.558 3.727 10.091 10.091 0 0 1-1.263 12.777 10.179 10.179 0 0 1-7.183 2.964zM117.744 3c-3.349 0-6.622.988-9.407 2.841a16.88 16.88 0 0 0-6.237 7.57 16.806 16.806 0 0 0-.964 9.745 16.845 16.845 0 0 0 4.634 8.636 16.952 16.952 0 0 0 8.669 4.616c3.285.651 6.689.317 9.783-.96a16.922 16.922 0 0 0 7.599-6.213 16.818 16.818 0 0 0-2.106-21.296 16.932 16.932 0 0 0-5.492-3.655A16.99 16.99 0 0 0 117.744 3zm0 26.983c-2.009 0-3.973-.593-5.643-1.705a10.127 10.127 0 0 1-3.742-4.542 10.082 10.082 0 0 1-.578-5.846 10.112 10.112 0 0 1 2.78-5.182 10.173 10.173 0 0 1 5.201-2.769 10.2 10.2 0 0 1 5.87.576 10.155 10.155 0 0 1 4.559 3.727 10.093 10.093 0 0 1-1.263 12.778 10.192 10.192 0 0 1-7.184 2.963zM161.762 3h-23.701v33.73h6.77V9.747h15.238L161.762 3zM87.27 3a17 17 0 0 0-6.48 1.283 16.935 16.935 0 0 0-5.493 3.655 16.86 16.86 0 0 0-3.67 5.472 16.807 16.807 0 0 0-1.29 6.454V36.73h6.774V19.864a10.1 10.1 0 0 1 2.975-7.156 10.178 10.178 0 0 1 7.183-2.963h3.385V36.73h6.773V3H87.27zm111.738 8.994L205.781 3h-11.286a11.201 11.201 0 0 1 4.513 8.994z" fill="#005CA9"/><path d="M219.327 29.985h-6.773v6.747h6.773v-6.747zm0-26.985h-6.773v20.238h6.773V3zm-13.546 20.239v-8.996l-6.77 8.996h6.77z" fill="#E62249"/><path d="M191.188 22.194a11.211 11.211 0 0 0 1.277-14.417 11.268 11.268 0 0 0-3.896-3.451 11.325 11.325 0 0 0-10.142-.278 11.285 11.285 0 0 0-4.082 3.231 11.22 11.22 0 0 0-2.188 4.714l6.544 2.25a4.497 4.497 0 0 1 2.01-3.74 4.532 4.532 0 0 1 6.001.895 4.487 4.487 0 0 1-.312 6.036l-11.066 11.24s-.912.985-1.156 1.309a11.156 11.156 0 0 0-2.26 6.744h33.863v-6.744h-22.575l7.982-7.79z" fill="#E62249"/></g><defs><clipPath id="a"><path fill="#fff" transform="translate(2.617 3)" d="M0 0h216.71v33.73H0z"/></clipPath></defs></svg>