<svg width="121" height="87" viewBox="0 0 121 87" fill="none" xmlns="http://www.w3.org/2000/svg"><path d="M68.996 23L87 0H57c3.728 2.676 6.753 6.148 8.835 10.14A27.736 27.736 0 0 1 68.996 23z" fill="#005CA9"/><path d="M121 69h-17v18h17V69zm0-69h-17v53h17V0zM87 53V29L69 53h18z" fill="#E62249"/><path d="M49.51 49.528a28.99 28.99 0 0 0 8.225-24.726A28.988 28.988 0 0 0 42.779 3.461a29.01 29.01 0 0 0-36.543 7.615A28.988 28.988 0 0 0 .614 23.23l16.812 5.798a11.594 11.594 0 0 1 10.479-11.535 11.604 11.604 0 0 1 12.504 9.303 11.593 11.593 0 0 1-3.2 10.46L8.777 66.236s-2.344 2.54-2.97 3.375A28.832 28.832 0 0 0 0 87h87V69.61H29.002L49.51 49.529z" fill="#E62249"/></svg>