<svg width="32" height="39" viewBox="0 0 32 39" fill="none" xmlns="http://www.w3.org/2000/svg"><path d="M30.472 3.666H16.81A4.815 4.815 0 0 0 12.14 0a4.815 4.815 0 0 0-4.67 3.666H1.142C.511 3.666 0 4.177 0 4.807v32.998c0 .63.51 1.141 1.141 1.141h29.331c.63 0 1.141-.51 1.141-1.141V4.807c0-.63-.51-1.14-1.14-1.14zM7.332 4.807a4.8 4.8 0 0 1 .139-1.14h2.417a2.528 2.528 0 0 1 2.252-1.385c.982 0 1.835.564 2.252 1.384H9.888a2.51 2.51 0 0 0-.273 1.141v7.333a2.528 2.528 0 0 0 2.525 2.526 2.528 2.528 0 0 0 2.526-2.526v-1.222a1.141 1.141 0 0 1 2.282 0v1.222a4.813 4.813 0 0 1-4.808 4.808 4.813 4.813 0 0 1-4.807-4.808V4.807zM23.14 31.613H8.474a1.141 1.141 0 0 1 0-2.282h14.665a1.141 1.141 0 1 1 0 2.282zm0-7.333H8.474a1.141 1.141 0 0 1 0-2.282h14.665a1.141 1.141 0 1 1 0 2.282z" fill="#56C16E"/></svg>