<svg width="158" height="35" viewBox="0 0 158 35" fill="none" xmlns="http://www.w3.org/2000/svg"><path d="M121.397 3.485h-8.475c-.499 0-.997.518-1.247 1.037l-3.489 22.82c0 .519.249.778.747.778h4.487c.499 0 .748-.26.748-.778l.997-6.483c0-.519.499-1.037 1.247-1.037h2.742c5.733 0 8.974-2.853 9.722-8.558.498-2.334 0-4.408-.998-5.705-1.495-1.296-3.739-2.074-6.481-2.074zm.997 8.557c-.498 3.112-2.742 3.112-4.985 3.112h-1.496l.997-5.964c0-.26.25-.519.748-.519h.499c1.495 0 2.991 0 3.739 1.037.498.26.498 1.038.498 2.334z" fill="#139AD6"/><path d="M60.323 3.485h-8.475c-.499 0-.998.518-1.247 1.037l-3.49 22.82c0 .519.25.778.748.778h3.989c.498 0 .997-.519 1.246-1.037l.997-6.224c0-.519.499-1.037 1.246-1.037h2.742c5.734 0 8.974-2.853 9.722-8.558.499-2.334 0-4.408-.997-5.705-1.496-1.296-3.49-2.074-6.481-2.074zm.997 8.557c-.498 3.112-2.742 3.112-4.985 3.112h-1.247l.997-5.964c0-.26.25-.519.748-.519h.499c1.495 0 2.991 0 3.739 1.037.25.26.498 1.038.25 2.334zM86 11.783h-3.988c-.249 0-.747.26-.747.519l-.25 1.296-.249-.519c-.997-1.296-2.742-1.815-4.736-1.815-4.487 0-8.476 3.63-9.223 8.558-.499 2.593.249 4.927 1.495 6.483 1.247 1.556 2.991 2.074 5.235 2.074 3.74 0 5.733-2.333 5.733-2.333l-.249 1.296c0 .519.25.778.748.778h3.74c.498 0 .996-.518 1.245-1.037l2.244-14.522c-.25-.26-.748-.778-.997-.778zm-5.733 8.298c-.498 2.334-2.243 4.15-4.736 4.15-1.246 0-2.243-.52-2.742-1.038-.498-.778-.748-1.815-.748-3.112.25-2.334 2.244-4.149 4.487-4.149 1.247 0 1.995.519 2.742 1.037.748.778.998 2.075.998 3.112z" fill="#263B80"/><path d="M146.825 11.783h-3.988c-.25 0-.748.26-.748.519l-.249 1.296-.25-.519c-.997-1.296-2.742-1.815-4.736-1.815-4.487 0-8.475 3.63-9.223 8.558-.499 2.593.249 4.927 1.495 6.483 1.247 1.556 2.992 2.074 5.235 2.074 3.739 0 5.734-2.333 5.734-2.333l-.25 1.296c0 .519.25.778.748.778h3.739c.499 0 .997-.518 1.247-1.037l2.243-14.522c-.249-.26-.498-.778-.997-.778zm-5.733 8.298c-.499 2.334-2.244 4.15-4.737 4.15-1.246 0-2.243-.52-2.742-1.038-.498-.778-.747-1.815-.747-3.112.249-2.334 2.243-4.149 4.487-4.149 1.246 0 1.994.519 2.742 1.037.997.778 1.246 2.075.997 3.112z" fill="#139AD6"/><path d="M107.688 11.782h-4.237c-.499 0-.748.26-.997.519l-5.484 8.817-2.493-8.298c-.25-.519-.499-.778-1.247-.778h-3.988c-.499 0-.748.518-.748 1.037l4.487 13.744-4.238 6.224c-.249.518 0 1.296.499 1.296h3.988c.499 0 .748-.26.998-.519l13.71-20.486c.748-.778.249-1.556-.25-1.556z" fill="#263B80"/><path d="M151.562 4.262l-3.49 23.34c0 .518.25.777.748.777h3.49c.499 0 .997-.519 1.246-1.037l3.49-22.82c0-.52-.249-.779-.748-.779h-3.988c-.249-.259-.499 0-.748.52z" fill="#139AD6"/><path d="M23.557 2.56C22.123.855 19.46 0 15.773 0H5.53C4.916 0 4.3.64 4.097 1.28L0 29.236c0 .64.41 1.067.82 1.067h6.35l1.638-10.457v.427c.205-.64.82-1.28 1.434-1.28h3.073c5.94 0 10.447-2.561 11.88-9.603v-.64c-.204 0-.204 0 0 0 .206-2.775-.204-4.482-1.638-6.19z" fill="#263B80"/><path d="M24.763 8.956v.634c-1.421 7.179-5.887 9.502-11.773 9.502H9.945c-.61 0-1.218.633-1.421 1.267l-2.03 12.88c0 .423.203.845.812.845h5.278c.609 0 1.218-.422 1.218-1.056v-.21l1.015-6.547v-.422c0-.634.608-1.056 1.218-1.056h.811c5.075 0 9.135-2.111 10.15-8.446.406-2.534.203-4.857-1.015-6.335a2.104 2.104 0 0 0-1.218-1.056z" fill="#139AD6"/><path d="M23.343 8.322c-.203 0-.405-.211-.608-.211-.203 0-.406 0-.61-.211-.811-.212-1.623-.212-2.638-.212H11.57c-.203 0-.406 0-.609.212-.406.21-.609.633-.609 1.055L8.73 19.935v.423c.203-.633.811-1.267 1.42-1.267h3.045c5.887 0 10.353-2.534 11.773-9.502 0-.211 0-.423.203-.634-.406-.21-.609-.422-1.015-.422-.608-.211-.608-.211-.812-.211z" fill="#232C65"/></svg>