<svg width="42" height="42" viewBox="0 0 42 42" fill="none" xmlns="http://www.w3.org/2000/svg"><g clip-path="url(#a)"><path d="M41.948 8.362a.962.962 0 0 0-.5-.55L33.44 4.115a38.724 38.724 0 0 0-5.191-1.366.94.94 0 0 0-1.102.72c-.64 2.818-3.134 4.927-6.147 4.927-3.014 0-5.507-2.109-6.147-4.926a.942.942 0 0 0-1.102-.72 38.876 38.876 0 0 0-5.194 1.365L.553 7.812a.942.942 0 0 0-.5.55.934.934 0 0 0 .05.742l3.477 6.86a.943.943 0 0 0 1.116.48L8.557 15.3v23.02c0 .522.427.949.951.949h22.984a.95.95 0 0 0 .948-.95V15.301l3.864 1.144a.947.947 0 0 0 1.116-.48l3.477-6.861a.953.953 0 0 0 .05-.742z" fill="#fff"/></g><defs><clipPath id="a"><path fill="#fff" d="M0 0h42v42H0z"/></clipPath></defs></svg>