<svg width="70" height="70" viewBox="0 0 70 70" fill="none" xmlns="http://www.w3.org/2000/svg"><g clip-path="url(#a)"><g clip-path="url(#b)"><ellipse cx="35" cy="35.583" rx="33.833" ry="33.25" fill="#F2F4F7"/><path d="M34.822 69.63C15.59 69.63 0 54.304 0 35.398 0 16.493 15.59 1.167 34.822 1.167c19.232 0 34.822 15.326 34.822 34.231 0 18.906-15.59 34.232-34.822 34.232zm0-1.697c18.278 0 33.095-14.567 33.095-32.535 0-17.968-14.817-32.534-33.095-32.534S1.727 17.43 1.727 35.398c0 17.968 14.817 32.535 33.095 32.535z" fill="#055D77"/><path d="M19.881 22.55a4.514 4.514 0 0 0-3.256-1.375h-.233a4.514 4.514 0 0 0-3.253 1.375 4.171 4.171 0 0 0-1.177 3.092l.089 2.042a4.359 4.359 0 0 0 4.429 4.108h.057a4.359 4.359 0 0 0 4.429-4.108l.092-2.042a4.171 4.171 0 0 0-1.177-3.092zm-.43 5.07a2.847 2.847 0 0 1-2.914 2.655h-.057a2.847 2.847 0 0 1-2.914-2.654l-.027-.62a6.843 6.843 0 0 0 3.965-1.488 3.387 3.387 0 0 0 1.978 1.387l-.031.72zm-.951-3.584a.758.758 0 0 0-.607-.646.752.752 0 0 0-.805.364c-.01.016-.951 1.505-3.607 1.732a2.675 2.675 0 0 1 .752-1.884 2.998 2.998 0 0 1 2.159-.91h.233a2.998 2.998 0 0 1 2.158.91c.443.46.705 1.065.74 1.703a1.794 1.794 0 0 1-1.023-1.269zM49.457 40.75a4.513 4.513 0 0 0-3.257-1.375h-.233a4.514 4.514 0 0 0-3.253 1.375 4.17 4.17 0 0 0-1.177 3.092l.089 2.042a4.359 4.359 0 0 0 4.429 4.108h.057a4.359 4.359 0 0 0 4.429-4.108l.093-2.042a4.171 4.171 0 0 0-1.177-3.092zm-.34 3.03l-.091 2.04a2.847 2.847 0 0 1-2.914 2.655h-.057a2.847 2.847 0 0 1-2.914-2.654l-.09-2.044a2.676 2.676 0 0 1 .758-1.975 2.998 2.998 0 0 1 2.158-.91h.233a2.998 2.998 0 0 1 2.158.91c.515.527.79 1.243.759 1.979z" fill="#055D77"/><path d="M31.593 23.862a2.099 2.099 0 0 0-2.918 0l-8.466 8.466a.758.758 0 0 1-.537.222h-7.713a3.796 3.796 0 0 0-3.792 3.792v10.616a2.275 2.275 0 0 0 3.033 2.146v.888c0 .419.34.758.759.758h9.1c.418 0 .758-.34.758-.758V37.696a.76.76 0 0 1 .203-.517l9.623-10.35a2.099 2.099 0 0 0-.05-2.967zM30.56 25.77l-.008.007-9.645 10.37a2.28 2.28 0 0 0-.607 1.55v11.536h-7.583V37.858a.758.758 0 0 0-1.517 0v9.1a.758.758 0 1 1-1.516 0V36.342a2.275 2.275 0 0 1 2.275-2.275h7.713a2.258 2.258 0 0 0 1.609-.667l8.466-8.466a.598.598 0 0 1 .823 0 .59.59 0 0 1-.01.835z" fill="#055D77"/><path d="M16.508 34.825a.758.758 0 0 0-.758.758v9.1a.758.758 0 1 0 1.517 0v-9.1a.758.758 0 0 0-.759-.758zM32.77 40.75a4.513 4.513 0 0 0-3.253-1.375h-.234a4.513 4.513 0 0 0-3.252 1.375 4.17 4.17 0 0 0-1.177 3.092l.088 2.042a4.359 4.359 0 0 0 4.43 4.108h.057a4.359 4.359 0 0 0 4.428-4.108l.09-2.042a4.17 4.17 0 0 0-1.178-3.092zm-.337 3.03l-.09 2.04a2.847 2.847 0 0 1-2.914 2.655h-.058a2.847 2.847 0 0 1-2.913-2.654l-.091-2.044a2.676 2.676 0 0 1 .758-1.975 2.998 2.998 0 0 1 2.158-.91h.234a2.998 2.998 0 0 1 2.158.91c.514.527.789 1.243.758 1.979zm.885 6.97h-7.837a3.669 3.669 0 0 0-3.665 3.665v3.16a.758.758 0 1 0 1.517 0v-3.16a2.15 2.15 0 0 1 2.148-2.148h7.837a2.15 2.15 0 0 1 2.148 2.148v3.16a.758.758 0 1 0 1.517 0v-3.16a3.669 3.669 0 0 0-3.665-3.665zm16.684 0h-7.837a3.669 3.669 0 0 0-3.665 3.665v3.16a.758.758 0 1 0 1.517 0v-3.16a2.15 2.15 0 0 1 2.148-2.148h7.837a2.15 2.15 0 0 1 2.148 2.148v3.16a.758.758 0 1 0 1.517 0v-3.16a3.669 3.669 0 0 0-3.665-3.665zm1.428-37.917H24.812a2.259 2.259 0 0 0-2.237 2.275v11.375a.758.758 0 0 0 1.517 0v-9.1H52.15v18.2a.741.741 0 0 1-.72.759H25.552a.758.758 0 1 0 0 1.516H51.43a2.26 2.26 0 0 0 2.237-2.275V15.108a2.26 2.26 0 0 0-2.237-2.275zm.72 3.034H24.092v-.759a.741.741 0 0 1 .72-.758H51.43a.74.74 0 0 1 .72.758v.759z" fill="#055D77"/><path d="M49.874 22.502a.758.758 0 0 0-.758.758v10.807a.758.758 0 0 0 1.517 0V23.26a.758.758 0 0 0-.759-.758zm-3.033 4.74a.758.758 0 0 0-.758.758v6.067a.758.758 0 0 0 1.517 0V28a.758.758 0 0 0-.759-.758zm-3.033-1.517a.758.758 0 0 0-.758.758v7.584a.758.758 0 1 0 1.517 0v-7.584a.758.758 0 0 0-.759-.758zm-3.033 4.55a.758.758 0 0 0-.758.758v3.034a.758.758 0 1 0 1.516 0v-3.034a.758.758 0 0 0-.758-.758z" fill="#055D77"/><path d="M50.296 19.027a.758.758 0 0 0-1.052.21l-2.589 3.883-2.392-1.793a.758.758 0 0 0-1.137.267l-2.953 5.907-2.886 2.167a.758.758 0 1 0 .91 1.214l3.033-2.275a.763.763 0 0 0 .228-.268l2.626-5.254 2.303 1.73a.758.758 0 0 0 1.086-.186l3.033-4.55a.759.759 0 0 0-.21-1.052zM35.467 18.9h-9.1a.758.758 0 1 0 0 1.517h9.1a.758.758 0 0 0 0-1.517zm4.549 0H38.5a.758.758 0 0 0 0 1.517h1.517a.758.758 0 0 0 0-1.517z" fill="#055D77"/></g></g><defs><clipPath id="a"><path fill="#fff" d="M0 0h70v70H0z"/></clipPath><clipPath id="b"><path fill="#fff" transform="translate(0 1.167)" d="M0 0h70v68.833H0z"/></clipPath></defs></svg>