<svg width="70" height="70" viewBox="0 0 70 70" fill="none" xmlns="http://www.w3.org/2000/svg"><g clip-path="url(#a)"><g clip-path="url(#b)"><ellipse cx="35" cy="35.583" rx="33.833" ry="33.25" fill="#fff"/><path d="M34.822 69.63C15.59 69.63 0 54.304 0 35.398 0 16.493 15.59 1.167 34.822 1.167c19.232 0 34.822 15.326 34.822 34.231 0 18.906-15.59 34.232-34.822 34.232zm0-1.697c18.278 0 33.095-14.567 33.095-32.535 0-17.968-14.817-32.534-33.095-32.534S1.727 17.43 1.727 35.398c0 17.968 14.817 32.535 33.095 32.535z" fill="#647AA1"/><path d="M55.36 54.777l-2.065-12.086a3.44 3.44 0 0 0-2.41-2.73l-5.57-1.68a6.206 6.206 0 0 0-4.31-5.393 10.6 10.6 0 0 0 .49-.582c1.325-1.684 2.034-3.54 2.214-4.805h.43a2.029 2.029 0 0 0 2.026-2.027v-1.038a2.04 2.04 0 0 0-1.05-1.772v-2.498a.683.683 0 0 0-1.367 0v2.804a4.213 4.213 0 0 0-1.005.306 3.498 3.498 0 0 0-.22.108v-5.507a2.762 2.762 0 0 0-2.759-2.76h-1.886c-.65 0-1.286.228-1.79.64l-.185.15a1.914 1.914 0 0 1-2.417 0l-.185-.15a2.836 2.836 0 0 0-1.79-.64h-1.886a2.762 2.762 0 0 0-2.76 2.76v5.507a3.523 3.523 0 0 0-.316-.151 4.214 4.214 0 0 0-.908-.263v-7.09c0-2.213 1.8-4.013 4.013-4.013h10.08c2.214 0 4.014 1.8 4.014 4.013v1.074a.683.683 0 1 0 1.367 0V15.88a5.386 5.386 0 0 0-5.38-5.38h-10.08a5.386 5.386 0 0 0-5.38 5.38v6.784a2.04 2.04 0 0 0-1.051 1.772v1.038c0 1.118.909 2.027 2.026 2.027h.43c.18 1.266.89 3.121 2.213 4.805.15.19.313.386.49.581a6.233 6.233 0 0 0-4.31 5.394l-5.568 1.68a3.44 3.44 0 0 0-2.411 2.73l-.839 4.908a.683.683 0 1 0 1.348.23l.838-4.908A2.08 2.08 0 0 1 18.9 41.27l5.15-1.554v1.351c-1.18.218-2.185 1.029-2.599 2.152-.11.298-.178.61-.203.928l-.498 6.39c-.037.48.13.96.457 1.314.328.354.793.557 1.275.557h.852a.683.683 0 1 0 0-1.367h-.852a.37.37 0 0 1-.369-.399l.498-6.389c.015-.192.056-.381.123-.562.288-.781 1.065-1.31 1.934-1.317h.128c.845 0 1.593.479 1.909 1.223.088.21.142.43.16.657l.497 6.389a.371.371 0 0 1-.369.398h-.852a.683.683 0 1 0 0 1.367h.852a1.74 1.74 0 0 0 1.732-1.872l-.498-6.389a3.383 3.383 0 0 0-2.81-3.084v-1.76l2.349-.709c.214.45.637 1.423 1.476 3.52a569.076 569.076 0 0 1 2.93 7.53c.672 1.76 1.325 3.484 1.883 4.97a.684.684 0 0 0 1.28 0 880.996 880.996 0 0 1 1.907-5.035 567.947 567.947 0 0 1 2.903-7.46c.84-2.1 1.264-3.074 1.478-3.525l2.35.71v4.036a3.541 3.541 0 0 0-2.861 3.47 3.54 3.54 0 0 0 3.536 3.536 3.54 3.54 0 0 0 3.536-3.536 3.542 3.542 0 0 0-2.845-3.467v-3.627l5.15 1.554c.766.23 1.324.863 1.459 1.651l2.064 12.086a.666.666 0 0 1-.15.552.669.669 0 0 1-.518.241H16.045a.668.668 0 0 1-.518-.241.668.668 0 0 1-.15-.552l.68-3.988a.683.683 0 0 0-1.346-.23l-.682 3.988a2.042 2.042 0 0 0 .453 1.663c.39.462.96.727 1.563.727h37.299c.603 0 1.173-.265 1.563-.727a2.04 2.04 0 0 0 .453-1.663zM43.756 24.362c.364-.09.657-.089.66-.089a.697.697 0 0 0 .334-.08c.03.077.048.158.048.243v1.038a.66.66 0 0 1-.66.66h-.382v-1.772zm-18.123 1.772h-.383a.66.66 0 0 1-.66-.66v-1.038c0-.085.019-.166.049-.242.102.053.216.08.334.08.005 0 .297-.002.66.089v1.771zm1.366.766v-1.795a.957.957 0 0 0 1.233-.92v-6.308c0-.768.625-1.392 1.393-1.392h1.886c.336 0 .665.117.925.33l.185.15a3.278 3.278 0 0 0 4.147 0l.185-.15c.26-.213.589-.33.925-.33h1.886c.768 0 1.392.624 1.392 1.392v6.309a.957.957 0 0 0 1.234.92V26.9c0 .998-.69 2.936-1.969 4.562a9.011 9.011 0 0 1-1.699 1.668c-1.038.768-2.373 1.356-4.028 1.356-1.654 0-2.99-.588-4.028-1.356a9.019 9.019 0 0 1-1.699-1.669C27.69 29.837 27 27.899 27 26.902zm12.173 11.041l-4.477 3.347-4.478-3.347c.444-.564.693-1.288.693-1.935v-1.101a7.884 7.884 0 0 0 3.784.948 7.884 7.884 0 0 0 3.785-.948v1.101c0 .647.249 1.371.693 1.935zm-10.095-.763a1.869 1.869 0 0 0-1.202-.044l-2.36.712a4.855 4.855 0 0 1 4.028-3.829v1.99c0 .428-.191.871-.466 1.172zm1.855 5.486l-.004-.01-.103-.259-.018-.046a109.33 109.33 0 0 0-.099-.248l-.006-.017-.293-.733-.02-.05-.08-.2-.03-.07-.075-.188-.022-.055-.133-.327-.035-.086a36.351 36.351 0 0 1-.05-.122l-.054-.13-.02-.049-.015-.037a92.45 92.45 0 0 0-.225-.542l-.002-.005a72.296 72.296 0 0 0-.165-.391l3.85 2.878-1.608.683-.01.004-.67.285-.113-.285zm1.63 4.185a784.296 784.296 0 0 0-1.018-2.627l.255-.108 1.042 1.21-.279 1.525zm2.146 5.554a.68.68 0 0 0-.07-.115c-.309-.816-.7-1.849-1.135-2.985l.638-3.493h1.107l.638 3.493a1073.4 1073.4 0 0 0-1.178 3.1zm.796-7.96h-1.619l-.766-.89 1.575-.67 1.576.67-.766.89zm1.73 1.351l-.407 1.055-.279-1.524 1.042-1.212.255.109-.611 1.572zm2.617-6.567a74.169 74.169 0 0 0-.227.545l-.008.018-.099.24-.018.044-.023.056a33.655 33.655 0 0 1-.102.25l-.02.045a134.75 134.75 0 0 0-.169.418l-.075.186-.03.074-.079.196-.022.056c-.093.231-.19.472-.289.723l-.01.024-.098.247-.018.047-.103.26-.002.005-.114.288-.672-.285a.245.245 0 0 1-.007-.004l-1.61-.683 3.85-2.878-.054.128zm1.663-2.093h-.003c-.396-.12-.819-.1-1.199.044a1.807 1.807 0 0 1-.466-1.172v-1.99a4.817 4.817 0 0 1 4.031 3.83l-2.364-.712zm5.303 9.676c0 1.196-.973 2.17-2.17 2.17a2.172 2.172 0 0 1-2.169-2.17c0-1.196.974-2.17 2.17-2.17s2.169.974 2.169 2.17z" fill="#647AA1"/></g></g><defs><clipPath id="a"><path fill="#fff" d="M0 0h70v70H0z"/></clipPath><clipPath id="b"><path fill="#fff" transform="translate(0 1.167)" d="M0 0h70v68.833H0z"/></clipPath></defs></svg>