<svg width="70" height="70" viewBox="0 0 70 70" fill="none" xmlns="http://www.w3.org/2000/svg"><ellipse cx="35" cy="35.5" rx="33.833" ry="33.331" fill="#fff"/><path d="M35 70C15.67 70 0 54.554 0 35.5 0 16.446 15.67 1 35 1s35 15.446 35 34.5C70 54.554 54.33 70 35 70zm0-1.71c18.371 0 33.264-14.681 33.264-32.79S53.373 2.71 35 2.71C16.628 2.71 1.736 17.392 1.736 35.5S16.628 68.29 35 68.29z" fill="#295E8C"/><path d="M53.26 30.809v-.838h1.623a.738.738 0 0 0 .737-.74v-2.414h.836a.738.738 0 0 0 .738-.74v-2.365a.74.74 0 0 0-.372-.642L34.796 10.453a.736.736 0 0 0-.732 0L12.04 23.07a.74.74 0 0 0-.372.642v2.366c0 .408.33.739.738.739h.835v2.415c0 .408.33.739.738.739H15.6v.838c0 .574.318 1.075.787 1.336V45.84h-2.41a.738.738 0 0 0-.737.74v2.414h-.835a.738.738 0 0 0-.738.74v3.154c0 .408.33.74.738.74h44.051a.738.738 0 0 0 .738-.74v-3.154c0-.409-.33-.74-.738-.74h-.836V46.58c0-.409-.33-.74-.737-.74h-2.41V32.145c.47-.261.787-.762.787-1.336zm-1.475 0a.05.05 0 0 1-.049.049H48.59a.05.05 0 0 1-.05-.05v-.837h3.245v.838zM44.607 45.84V32.145c.469-.261.787-.762.787-1.336v-.838h1.672v.838c0 .574.318 1.075.786 1.336V45.84h-3.245zm-3.146 0V32.336h1.671V45.84h-1.671zm-4.72 0V32.145c.469-.261.787-.762.787-1.336v-.838h1.671v.838c0 .574.318 1.075.787 1.336V45.84H36.74zm-3.147 0V32.336h1.672V45.84h-1.672zm-4.72 0V32.145c.47-.261.787-.762.787-1.336v-.838h1.672v.838c0 .574.318 1.075.787 1.336V45.84h-3.245zm-3.146 0V32.336H27.4V45.84h-1.672zm-4.72 0V32.145c.469-.261.787-.762.787-1.336v-.838h1.671v.838c0 .574.319 1.075.787 1.336V45.84h-3.245zm7.178-15.87v.839a.05.05 0 0 1-.049.049h-3.146a.05.05 0 0 1-.05-.05v-.837h3.245zm7.867 0v.839a.05.05 0 0 1-.05.049h-3.146a.05.05 0 0 1-.05-.05v-.837h3.246zm7.866 0v.839a.05.05 0 0 1-.05.049h-3.146a.05.05 0 0 1-.049-.05v-.837h3.245zm-30.777-5.83L34.43 11.948 55.72 24.14v1.197H13.142V24.14zm1.573 2.677h39.43v1.675h-39.43v-1.675zm5.605 3.154v.838a.05.05 0 0 1-.05.049h-3.146a.05.05 0 0 1-.049-.05v-.837h3.245zm-2.458 2.366h1.671V45.84h-1.671V32.336zm37.857 19.812H13.142v-1.676h42.577v1.676zm-1.574-3.155h-39.43V47.32h39.43v1.675zm-4.818-3.154V32.336H51V45.84h-1.672z" fill="#295E8C"/></svg>