<svg width="99" height="99" viewBox="0 0 99 99" fill="none" xmlns="http://www.w3.org/2000/svg"><g clip-path="url(#a)" fill-rule="evenodd" clip-rule="evenodd" fill="#313131"><path opacity=".958" d="M46.116-.097h6.575c4.676.733 8.93 2.505 12.761 5.318 1.371 1.73 1.243 3.34-.386 4.834-.938.539-1.905.603-2.9.193-5.95-4.418-12.46-5.514-19.53-3.287a39.938 39.938 0 0 0-6.574 3.48c-2.576.067-3.768-1.19-3.577-3.77a5.493 5.493 0 0 1 .87-1.45C37.186 2.408 41.44.636 46.116-.097z"/><path opacity=".953" d="M49.21 11.312c3.605.047 6.796 1.207 9.571 3.48 1.309 2.651.535 4.327-2.32 5.027a3.813 3.813 0 0 1-1.257-.29c-2.699-2.098-5.664-2.613-8.894-1.547-1.1.587-2.196 1.167-3.287 1.74-2.576.068-3.768-1.19-3.578-3.77a5.497 5.497 0 0 1 .87-1.45c2.648-2.003 5.613-3.066 8.895-3.19z"/><path opacity=".99" d="M68.74 98.903H30.068c-3.48-.997-5.703-3.253-6.671-6.767a2570.91 2570.91 0 0 1 .193-62.842c1.116-3.114 3.275-5.08 6.478-5.898 12.89-.128 25.78-.128 38.672 0 3.202.818 5.361 2.784 6.477 5.898.32 20.939.385 41.886.193 62.842-.97 3.516-3.193 5.771-6.67 6.767zM37.609 34.901c2.836.647 3.578 2.258 2.223 4.834-1.902 1.281-3.449.959-4.64-.966-.41-2.085.395-3.374 2.417-3.868zm11.601 0c2.837.647 3.578 2.258 2.224 4.834-1.902 1.281-3.45.959-4.64-.966-.41-2.085.395-3.374 2.416-3.868zm11.602 0c2.837.647 3.578 2.258 2.223 4.834-1.902 1.281-3.449.959-4.64-.966-.41-2.085.395-3.374 2.417-3.868zM37.609 46.503c2.836.646 3.578 2.257 2.223 4.834-1.902 1.28-3.449.958-4.64-.967-.41-2.084.395-3.374 2.417-3.867zm11.601 0c2.837.646 3.578 2.257 2.224 4.834-1.902 1.28-3.45.958-4.64-.967-.41-2.084.395-3.374 2.416-3.867zm11.602 0c2.837.646 3.578 2.257 2.223 4.834-1.902 1.28-3.449.958-4.64-.967-.41-2.084.395-3.374 2.417-3.867zM49.21 58.105c6.448.337 10.992 3.43 13.632 9.28 2.132 6.654.553 12.229-4.737 16.726-5.801 3.996-11.602 3.996-17.403 0-6.057-5.409-7.25-11.757-3.577-19.046 2.887-4.295 6.915-6.615 12.085-6.96z"/><path opacity=".975" d="M47.47 63.905c4.504-.6 7.823 1.076 9.958 5.028 1.552 4.069.747 7.582-2.417 10.538-3.193 2.145-6.544 2.403-10.055.773-4.367-3.126-5.43-7.155-3.19-12.085 1.387-2.13 3.288-3.548 5.704-4.254z"/></g><defs><clipPath id="a"><path fill="#fff" d="M0 0h99v99H0z"/></clipPath></defs></svg>