<svg width="350" height="187" viewBox="0 0 350 187" fill="none" xmlns="http://www.w3.org/2000/svg"><path d="M270.278 178.31c-2.5 3.25-5.45 5.66-4.8 6.76 0 0 1.33 1 5 1 6.3 0 12.5-.48 11.48-1.12-1.41-.89-5.49-1.21-9.39-2.56-1-.33 2.11-2.2 1.27-2.5a18.78 18.78 0 0 1-3.56-1.58zm64.942 6.57s.83 1.16 4 1.16c5.45 0 11.13-.74 10.25-1.3-1.22-.76-10.77-2.75-10.77-2.75l-2.14-2.66-3.63 2 2.29 3.55z" fill="#000"/><path d="M318 104.55c-2.399.01-4.79-.276-7.12-.85a3.832 3.832 0 0 1-2.575-4.662 3.83 3.83 0 0 1 4.575-2.728c.13 0 8.74 2.24 13.76-2.07 3.36-2.88 4.64-8.32 3.8-16.15l-.27-2.5 7.74-4.39a3.837 3.837 0 0 1 2.971-.462 3.834 3.834 0 0 1 2.863 3.285 3.837 3.837 0 0 1-2.064 3.838l-3.42 1.94c.54 9.23-1.7 16.05-6.68 20.289-4.22 3.58-9.46 4.46-13.58 4.46z" fill="#FFEFD0"/><path d="M331.201 83.31c-.14 5.57-1.62 9.6-4.43 12-5.51 4.73-14.95 2.32-15.11 2.28a4.203 4.203 0 0 0-5.155 2.955 4.202 4.202 0 0 0 2.955 5.155 18.635 18.635 0 0 0 7.81 1.54c16.28-.58 26.11-14.62 26.29-22.81l-12.36-1.12z" fill="#E1F3F6"/><path d="M308.81 63.84c-1.46-.66-2.89-1.37-4.3-2.11-13.5 7.68-30.74 17.53-31.08 17.87 0 0 8.57 13.64 9.12 14.19.35.35 21.6-14.89 36.88-25.93-3.53-1.37-7.16-2.48-10.62-4.02z" fill="#799D70"/><path d="M309 63.44c3.54 1.56 7.25 2.69 10.84 4.1 8.41-6.08 14.92-10.81 14.92-10.81l-14.38-4L305 61.47c1.3.7 2.65 1.36 4 1.97z" fill="#72BC5F"/><path d="M284.238 45.53l8.47 22.93 16.55 6.07-20.97-38.3-4.05 9.3zm25.92 34.63h-12.26l10.91 19.07 16.64 7.02-15.29-26.09z" fill="#104F00"/><path d="M325.451 106.25l-9.76-16.66-41.77 24.49-8.21-14 5.16-83.3 18.77-11 33.78 57.63 11.37-6.66 9.45 16.13-11.36 6.66 9.76 16.66-17.19 10.05zm-37.89-64.64l-1.06.62-2.87 44.49 22.61-13.25-18.68-31.86z" fill="#40852E"/><path d="M251.82 96.26l13.89 3.81 8.21 14.01-14.67-3.71-7.43-14.11z" fill="#799D70"/><path d="M251.82 96.26l13.89 3.81 5.16-83.3-12.74-3.05-6.31 82.54z" fill="#72BC5F"/><path d="M258.129 13.72l12.74 3.05 18.77-11.01-12.91-3.75-18.6 11.71z" fill="#799D70"/><path d="M286.059 129.45s2 22 2 29.73c0 0-16 12.49-20 19 1.68 1.28 5 3 7.2 2.92a155.52 155.52 0 0 1 22.43-17.51s5.07-14.68 6.64-27.12l-18.27-7.02z" fill="#000"/><path d="M297.489 130.49c3.603.124 7.18-.66 10.4-2.28-1-4.4 1.18-17.37 4-24.3 0 0 2.2-4.82.66-6.31-5.7-5.48-10.55-5-12.06-5.09-5.24 4.42-15 17.45-14.59 34.69 2.65 2.8 8.1 3.27 11.59 3.29z" fill="#E1F3F6"/><path d="M332.84 181.94a9.784 9.784 0 0 0 5.38-3.25c-6.19-10-28.89-46.91-30.12-49.8 0-.07-.06-.16-.09-.24a21.988 21.988 0 0 1-11.17 2.28c-3.35-.13-8.22-.6-11-3.09v.54c.47 9.62 32.4 41.71 45 54 .675-.103 1.343-.25 2-.44z" fill="#585858"/><path d="M266.939 120.51a8.088 8.088 0 0 1-2.56-.4 7.726 7.726 0 0 1-5-5.54 3.818 3.818 0 0 1 1.205-4.152 3.835 3.835 0 0 1 2.858-.849 3.837 3.837 0 0 1 3.277 2.821c.043.166.103.327.18.48.41 0 1.92-.12 5.61-2.29 3.3-1.93 7.2-4.82 11-7.61 6.37-4.71 12.39-9.16 17.36-10.74a3.83 3.83 0 0 1 2.31 7.3c-3.76 1.19-9.53 5.46-15.12 9.59-8.18 6.06-15.39 11.39-21.12 11.39z" fill="#FFEFD0"/><path d="M274.1 117.65c-.47-2.25-1-4.74-2.39-6.59-3.09 1.71-4.4 1.82-4.78 1.81a2.413 2.413 0 0 1-.18-.48 3.838 3.838 0 0 0-1.828-2.355 3.83 3.83 0 0 0-5.512 4.535 7.729 7.729 0 0 0 5 5.54c.826.27 1.691.405 2.56.4a16.616 16.616 0 0 0 7.3-2.14c-.08-.24-.12-.48-.17-.72z" fill="#FFEFD0"/><path d="M305.668 94.73a3.831 3.831 0 0 0-4.8-2.5c-5 1.58-11 6-17.36 10.74-3.77 2.79-7.67 5.68-11 7.61l-.43.25c1.43 1.89 3.9 11.22 3.95 11.43 4.06-2.12 23.52-16.94 27.74-21.41 1.48-1.54 2.54-4.11 1.9-6.12z" fill="#E1F3F6"/><path d="M261.52 117.42a1.139 1.139 0 0 1-.65-.21c-3-2.15-4.57-6.28-4.63-6.45a1.12 1.12 0 0 1 .655-1.445 1.12 1.12 0 0 1 1.445.655s1.4 3.67 3.84 5.41a1.134 1.134 0 0 1 .26 1.57 1.117 1.117 0 0 1-.92.47z" fill="#FFEFD0"/><path d="M261.528 114.68a1.11 1.11 0 0 1-.92-.48c-1.44-2-2.59-6.87-2.72-7.41a1.138 1.138 0 0 1 .84-1.36 1.11 1.11 0 0 1 .853.143 1.123 1.123 0 0 1 .497.707c.32 1.36 1.36 5.2 2.36 6.62a1.126 1.126 0 0 1 .034 1.252 1.123 1.123 0 0 1-.304.318c-.186.136-.41.209-.64.21z" fill="#FFEFD0"/><path d="M263.08 114a1.098 1.098 0 0 1-1-.7c-1-2.53-1.44-7.83-1.46-8a1.14 1.14 0 0 1 1-1.21 1.12 1.12 0 0 1 1.21 1 33.705 33.705 0 0 0 1.29 7.37 1.132 1.132 0 0 1-.62 1.47 1.005 1.005 0 0 1-.42.07z" fill="#FFEFD0"/><path d="M264.769 113.5a1.124 1.124 0 0 1-1.09-.84 13.269 13.269 0 0 1 0-5.68 1.129 1.129 0 0 1 1.36-.83 1.116 1.116 0 0 1 .698.501 1.103 1.103 0 0 1 .132.849 10.992 10.992 0 0 0 0 4.59 1.12 1.12 0 0 1-.81 1.37.986.986 0 0 1-.29.04zm45.232-12.65a3.677 3.677 0 0 1-1.54-.35 3.583 3.583 0 0 1-1.71-4.79 21.817 21.817 0 0 1 2.67-4 3.605 3.605 0 0 1 5.51 4.65 14.138 14.138 0 0 0-1.67 2.45 3.62 3.62 0 0 1-3.26 2.04z" fill="#FFEFD0"/><path d="M310.541 99c.422.471.869.919 1.34 1.34a3.638 3.638 0 0 0 1.4-1.55 14.25 14.25 0 0 1 1.67-2.45 3.607 3.607 0 0 0-.43-5.08 3.604 3.604 0 0 0-5.08.43c-.07.09-.36.44-.75.95.04 2.26.31 4.62 1.85 6.36z" fill="#000"/><path d="M322.368 95a6.818 6.818 0 0 1-11.103 2.23 6.789 6.789 0 0 1-2.003-4.813 6.798 6.798 0 0 1 .516-2.607l1.8-4.37a6.804 6.804 0 0 1 8.89-3.7 6.808 6.808 0 0 1 3.7 8.89l-1.8 4.37z" fill="#FFEFD0"/><path d="M310.541 89.32c-.56 2.34-3.92 1.59-5.18.37-1.74-1.69-2.78-6.45 1.08-6.19-2.78-4.19 6.64-8.74 7.62-3.89.74-1.25 1.49-2.38 3.13-2.48 1.18-.08 3.24.84 3.07 2.28a4.877 4.877 0 0 1 6 .12c.56.45 1.56 1.45 1.06 2.17-.28.4-1.7.53-2.17.67.82-.37 4.17.38 3.51 1.77-.3.65-1.95.07-2.43-.07v.15c1.8 1 2.53 2 2.32 4.21-.1 1-.58 3-1.8 3.11-.63.07-1.35-.33-1.34-1 1.5 1.49-.62 5.49-2.51 3.52a1.996 1.996 0 0 1 .32-2.74c-1.12-.64-3.55-4-1.82-4.95-.81 0-4.55-1.25-3.36-2.32.32 1.24-1.23 2.86-2.45 2.22.76 1.66-1.49 2.9-2.87 3 .85 1.06-1.75 2.32-2.55.78l.37-.73z" fill="#585858"/><path d="M182.59 75.73s-2.18-8.37 8.66-10.36l-.83 10.06-7.83.3z" fill="#799D70"/><path d="M139.151 96.85a15.304 15.304 0 0 1-6.62-1.44c-9.85-4.65-10.94-18.64-11-19.23a3.831 3.831 0 0 1 7.64-.55c.21 2.82 1.82 10.61 6.64 12.87 4 1.87 10.14 0 17.83-5.5a3.832 3.832 0 0 1 5.94 3.763 3.831 3.831 0 0 1-1.5 2.477c-7.08 5.07-13.47 7.61-18.93 7.61z" fill="#CDE5E8"/><path d="M159.508 104c1.06-2.8 2.05-5.63 3.2-8.4a21.643 21.643 0 0 1-2.35-.31 19.112 19.112 0 0 1-9.43-4.53 23.072 23.072 0 0 1-6-8.78 38.02 38.02 0 0 1-2.44-12.09 64.167 64.167 0 0 1 5.36-28.07 38.17 38.17 0 0 1 6.72-10.26 22.829 22.829 0 0 1 8.78-6 20.241 20.241 0 0 1 18.22 2.56c1.08-2.16 2.25-4.29 3.36-6.41 1.31-2.5 2.53-5.06 3.69-7.63.5-1.1.93-2.24 1.39-3.36a40.656 40.656 0 0 0-12.66-4.56 39 39 0 0 0-18.7.71 42.001 42.001 0 0 0-15.79 8.77 53.13 53.13 0 0 0-11.86 15.5 78.403 78.403 0 0 0-8.13 42.6 52.945 52.945 0 0 0 5.39 18.73 41.817 41.817 0 0 0 11.45 14 38.545 38.545 0 0 0 15.77 7.28c1.4-3.23 2.78-6.44 4.03-9.75z" fill="#72BC5F"/><path d="M211.34 46.5A53.19 53.19 0 0 0 206 27.76a41.904 41.904 0 0 0-11.45-14 36.434 36.434 0 0 0-4.07-2.78c-.45 1.13-.88 2.26-1.38 3.36-1.19 2.57-2.38 5.13-3.7 7.64-1.12 2.13-2.3 4.27-3.39 6.45.39.3.77.6 1.14.93a23.761 23.761 0 0 1 6 8.8 36.622 36.622 0 0 1 2.53 12 63.99 63.99 0 0 1-5.36 28.07 36.46 36.46 0 0 1-6.81 10.32 23.708 23.708 0 0 1-8.85 5.95 18.582 18.582 0 0 1-7.48 1.11c-1.27 3-2.34 6.13-3.5 9.19-1.16 3.06-2.44 6-3.77 8.94l.9.19a39.104 39.104 0 0 0 18.7-.72 42.01 42.01 0 0 0 15.79-8.76 53.155 53.155 0 0 0 11.91-15.43 78.23 78.23 0 0 0 8.14-42.59l-.01.07z" fill="#104F00"/><path d="M168.49 118a38.985 38.985 0 0 1-17.12-7.56 41.898 41.898 0 0 1-11.45-14 53.183 53.183 0 0 1-5.39-18.74 78.23 78.23 0 0 1 8.14-42.59 53.156 53.156 0 0 1 11.91-15.43 41.907 41.907 0 0 1 15.8-8.76 41.52 41.52 0 0 1 35.81 6.84 41.943 41.943 0 0 1 11.45 14 53.156 53.156 0 0 1 5.4 18.73 78.23 78.23 0 0 1-8.14 42.59 53.351 53.351 0 0 1-11.9 15.41 41.858 41.858 0 0 1-15.79 8.76 38.99 38.99 0 0 1-18.72.75zm3.57-18.66c3.432.702 6.991.436 10.28-.77a23.514 23.514 0 0 0 8.86-6 36.884 36.884 0 0 0 6.8-10.3 60.5 60.5 0 0 0 4.25-13.69 59.561 59.561 0 0 0 1.11-14.38 37.007 37.007 0 0 0-2.54-12 23.612 23.612 0 0 0-6-8.79 18.999 18.999 0 0 0-9.28-4.51 19.198 19.198 0 0 0-10.44.74 22.918 22.918 0 0 0-8.78 6 37.84 37.84 0 0 0-6.72 10.26 59.623 59.623 0 0 0-4.27 13.77 60.306 60.306 0 0 0-1.09 14.29A37.705 37.705 0 0 0 156.66 86a22.881 22.881 0 0 0 6 8.79 19.23 19.23 0 0 0 9.4 4.52v.03z" fill="#40852E"/><path d="M236 61.77l.29 14.07s-4 3.6-7.61 0L230 60l6 1.77z" fill="#585858"/><path d="M219.43 174c-.23-.18-1.8-.91-2-1.09a18 18 0 0 1-2.45 3 5.101 5.101 0 0 1 1.85 4.79 21.492 21.492 0 0 1-2.44 1.85c-2.19 1.08-6.23 2.58-6.23 2.58l10.17.8 7.54-7.73a47.25 47.25 0 0 1-6.44-4.2zm-39.828.55c-1.62-.28-3.67 1-5 0a32.885 32.885 0 0 0-.25 4.38l-15 6.2h19.21c.17-2.05-.2-4 .08-5.91.12-.97.78-3.73.96-4.67z" fill="#000"/><path d="M197.109 106.28l-17 32.3s6.89 5.83 13.67 7.77l12.74-38.06-9.41-2.01z" fill="#CDE5E8"/><path d="M215.72 176.72a23.582 23.582 0 0 0 2.7-3.55c-4.4-3.77-6.55-7.65-12.52-14.33-2.47-2.77 4.07-18.6 5.66-21.26 2.86-4.77 3.3-8.23 5.53-16.4l-16.59 6.2c-4 14.15-8.56 28.31-3.94 35.06 4.87 7.14 13.53 12.89 17.7 15.76.16.11 1.32-1.58 1.46-1.48z" fill="#000"/><path d="M187.77 74.06a1.08 1.08 0 0 1-.66-.21 1.126 1.126 0 0 1-.452-.733 1.118 1.118 0 0 1 .202-.837 9.518 9.518 0 0 0 1.63-3.41 1.13 1.13 0 0 1 2.22.39 11.804 11.804 0 0 1-2 4.34 1.116 1.116 0 0 1-.94.46z" fill="#FFEFD0"/><path d="M215.92 124.6c4.94-13.57 9.16-34.86 10.74-43.35a23.153 23.153 0 0 0-2.44-.84c-1.47-.4-3.22-.88-4.73-.41a8.994 8.994 0 0 0-2.1 1.05 23.573 23.573 0 0 0-.87 3.4S205.9 104.74 199 118.57a69.347 69.347 0 0 1 16.92 6.03z" fill="#F6EE9E"/><path d="M198.79 119l-1.73 3.5c-1.36 2.41-2.83 4.64-4.25 6.78-13.65 20.6-18.81 37-19.72 44.78 1.3 1 6.23 1.59 7.88 1.87 2.52-12.87 9.07-21.09 20.82-30.8 3.93-3.25 6.87-7.38 9.46-10.81a38.849 38.849 0 0 0 4.53-9.28 68.612 68.612 0 0 0-16.99-6.04z" fill="#585858"/><path d="M185.541 124.65a3.833 3.833 0 0 1-3.757-3.19 3.832 3.832 0 0 1 2.497-4.25c4.64-1.61 11.77-8 16.57-14.77a257.808 257.808 0 0 1 16.87-21.79 3.843 3.843 0 0 1 2.664-1.366 3.83 3.83 0 0 1 3.036 6.476 254.156 254.156 0 0 0-16.32 21.09c-4.74 6.72-13.12 15.1-20.31 17.59a3.998 3.998 0 0 1-1.25.21z" fill="#FFEFD0"/><path d="M223.999 82.52h-.27a3.62 3.62 0 0 1-3.33-3.86 22.091 22.091 0 0 1 1.05-4.71 3.604 3.604 0 0 1 4.575-2.235 3.6 3.6 0 0 1 2.235 4.575 14.21 14.21 0 0 0-.67 2.9 3.615 3.615 0 0 1-3.59 3.33z" fill="#FFEFD0"/><path d="M225.002 78.72a17.502 17.502 0 0 0 2.07 2c.267-.465.428-.985.47-1.52.121-.987.345-1.96.67-2.9a3.604 3.604 0 0 0-1.783-4.37 3.597 3.597 0 0 0-4.577 1.15c.35 2.01 2.01 4.3 3.15 5.64z" fill="#000"/><path d="M234.301 70.92a6.792 6.792 0 0 1-2.114 4.783 6.807 6.807 0 0 1-4.886 1.867 6.802 6.802 0 0 1-6.65-7l.1-4.72a6.832 6.832 0 0 1 2.118-4.783 6.814 6.814 0 0 1 4.882-1.877 6.82 6.82 0 0 1 6.66 7l-.11 4.73zm-54.173 52.68a14.237 14.237 0 0 1-5.38-1.27 1.131 1.131 0 0 1 .87-2.08c3 1.25 5.33 1.43 6.83.52.255-.153.56-.2.849-.129a1.126 1.126 0 0 1 .82 1.358 1.116 1.116 0 0 1-.509.691 6.575 6.575 0 0 1-3.48.91z" fill="#FFEFD0"/><path d="M181.481 125.23a19.746 19.746 0 0 1-4.86-.74l-.51-.12a1.129 1.129 0 0 1-.277-2.006c.234-.159.518-.224.797-.184l.52.12a14.39 14.39 0 0 0 8.52.07 1.107 1.107 0 0 1 1.37.81 1.13 1.13 0 0 1-.81 1.37 19.065 19.065 0 0 1-4.75.68zm-1.43-3.85a9.568 9.568 0 0 1-6.07-2.29 1.129 1.129 0 0 1-.367-.78 1.13 1.13 0 0 1 .297-.81 1.138 1.138 0 0 1 1.59-.07 7.115 7.115 0 0 0 6.18 1.49 1.107 1.107 0 0 1 1.37.81 1.13 1.13 0 0 1-.81 1.37 9.087 9.087 0 0 1-2.19.28z" fill="#FFEFD0"/><path d="M182.411 120.17h-.13a7.315 7.315 0 0 1-5.46-3.32 1.142 1.142 0 0 1 2-1.1 5.004 5.004 0 0 0 3.75 2.19 1.122 1.122 0 0 1-.13 2.24l-.03-.01zm13.45-44.48h-.18c-1.86-.31-7-1.11-8.14-1.11a1.13 1.13 0 1 1 0-2.25c1.58 0 7.8 1 8.51 1.14a1.128 1.128 0 0 1 .915 1.206 1.128 1.128 0 0 1-1.105 1.034v-.02z" fill="#FFEFD0"/><path d="M195.138 78.05a1 1 0 0 1-.29 0 57.583 57.583 0 0 0-7.9-1.61 1.143 1.143 0 0 1-1.06-1.19 1.13 1.13 0 0 1 .373-.778 1.124 1.124 0 0 1 .817-.282c2.824.36 5.618.924 8.36 1.69a1.122 1.122 0 0 1 .466 1.95 1.12 1.12 0 0 1-.766.26v-.04z" fill="#FFEFD0"/><path d="M194.6 80.53a.986.986 0 0 1-.34-.06c-5.07-1.63-6.32-1.73-7-1.79a4.473 4.473 0 0 1-.94-.14 1.134 1.134 0 0 1-.894-.94 1.136 1.136 0 0 1 .581-1.162 1.13 1.13 0 0 1 .893-.078c.177.047.358.074.54.08.81.07 2.18.18 7.5 1.89a1.13 1.13 0 0 1-.35 2.2h.01z" fill="#FFEFD0"/><path d="M192.38 82.33h-.09c-5.07-.37-5.28-3.12-5.29-3.44h2.25v-.07s.23 1.1 3.21 1.31a1.127 1.127 0 0 1 .991 1.162 1.131 1.131 0 0 1-1.071 1.088v-.05z" fill="#FFEFD0"/><path d="M188.118 81a6.418 6.418 0 0 0-2.49-.45c-1.28 0-3-2.18-3-4.43 0 0-.63-6.64 6.39-3.64l-.9 8.52z" fill="#FFEFD0"/><path d="M210.219 100.73l-9.84 48.43s15.24 3.67 24.58-1.71l2.36-67.29s-10.45-3.65-17.1 20.57z" fill="#CDE5E8"/><path d="M212.5 127.38l9.42-.51s.22 14.41-5.4 13.85c0 0-7.71 1.68-4.02-13.34zM224.33 79a5.632 5.632 0 0 0-7.95.43 260.761 260.761 0 0 0-17 22c-.65.92-1.35 1.85-2.11 2.77l-1 1.23 1.09 1.15c1.16 1.23 2.38 2.42 3.56 3.57l1.9 1.89 1.39 1.4 1.27-1.51c1.13-1.35 2.17-2.7 3.1-4A254.839 254.839 0 0 1 224.76 87a5.659 5.659 0 0 0 .899-6.232A5.648 5.648 0 0 0 224.33 79z" fill="#E1F3F6"/><path d="M198.487 101.083l-3.803 4.232 9.9 8.896 3.803-4.232-9.9-8.896z" fill="#F8FDFF"/><path d="M213.852 73.62l8.66 3.39s3.68-17.9 1-20.59c-.01 0-9.66-.91-9.66 17.2z" fill="#585858"/><path d="M224 59.54c.31.46 7 4.94 12.29 3.7 0 0-.9-7.92-13.2-6.78l.91 3.08z" fill="#585858"/><path d="M229.188 68a3.77 3.77 0 1 1-3.77-3.76 3.757 3.757 0 0 1 3.77 3.76z" stroke="#DDDD67" stroke-width=".87" stroke-miterlimit="10"/><path d="M237.681 68.72a3.272 3.272 0 0 1-3.908 3.207 3.272 3.272 0 0 1-2.57-2.569 3.268 3.268 0 0 1 1.391-3.357 3.271 3.271 0 0 1 1.817-.55 3.267 3.267 0 0 1 2.315.954 3.264 3.264 0 0 1 .955 2.315z" stroke="#DDDD67" stroke-width=".75" stroke-miterlimit="10"/><path d="M229.191 68a2.003 2.003 0 0 1 2 .26" stroke="#DDDD67" stroke-width=".87" stroke-miterlimit="10"/><path d="M119.699 74.57h-.27a3.599 3.599 0 0 1-3.33-3.85c.167-1.608.52-3.192 1.05-4.72a3.608 3.608 0 0 1 3.188-2.42 3.6 3.6 0 0 1 3.622 4.77 14.627 14.627 0 0 0-.68 2.89 3.577 3.577 0 0 1-3.58 3.33zm-2.14 99.96a29.554 29.554 0 0 0 11.25 2.76c3.89-6.92 15.61-25.67 4.95-41.05l-15.08-8.11s15.08 15.74-1.12 46.4z" fill="#000"/><path d="M125.359 180.66s1.39-2.83 2.48-4.72c-.81-.1-4.47-.25-6-.83a75.282 75.282 0 0 1-6.64 10h20.26l-10.1-4.45z" fill="#000"/><path d="M150.418 137.14c-2.52-4.89-20.82-19.62-22.47-28.08-.15-.75-.28-1.52-.39-2.3-2.94 1.55-6.75 2-9.77 2.13-3.43.17-5.48.38-8.8-1.23.28 5.25-.57 10.32 2.49 15.63 6.08 10.56 26.27 19.59 28.53 23.08 4.44 6.88 6 21.81 7.49 30.92 2.38 0 8-.11 10.33-.93-.78-4.67.49-23.9-7.41-39.22z" fill="#585858"/><path d="M156.729 179.84s-.66-2.66-.85-3.9c-2.32.81-3.67 0-6 0 .36 2.26.09 6.48.3 9h19.21l-12.66-5.1z" fill="#000"/><path d="M117.93 111.65c2.92-.13 9.07-.95 11.53-3.41-.5-4-2.3-10.48-1.66-15.68 2.14-17.63-6.47-22.91-6.47-22.91s-4-2.77-7.17.54c-4.85 5-9.57 19.09-9.1 39.94 3.34 1.72 9.36 1.68 12.87 1.52z" fill="#CDE5E8"/><path d="M162.071 117.21a4.384 4.384 0 0 1-.87-.09c-13.87-3.22-25.61-11.53-34-24a64.293 64.293 0 0 1-8.48-18.12 3.828 3.828 0 0 1 5.643-4.126 3.833 3.833 0 0 1 1.777 2.246 57.531 57.531 0 0 0 7.6 16c7.35 10.89 17.17 17.83 29.19 20.62a3.822 3.822 0 0 1 1.707 6.592 3.821 3.821 0 0 1-2.567.958v-.08z" fill="#FFEFD0"/><path d="M153.642 105.72a48.254 48.254 0 0 1-19.34-17.05 57.114 57.114 0 0 1-7.5-15.76 4.498 4.498 0 0 0-3.715-3.354 4.489 4.489 0 0 0-1.755.094 4.5 4.5 0 0 0-2.764 2.054 4.5 4.5 0 0 0-.496 3.406v.09a64.578 64.578 0 0 0 8.59 20.06 57.565 57.565 0 0 0 26.43 21.83.664.664 0 0 0 .63-.07.688.688 0 0 0 .3-.56v-10.13a.667.667 0 0 0-.38-.61z" fill="#E1F3F6"/><path d="M164.909 117.49a20.361 20.361 0 0 1-3.9-.41 1.13 1.13 0 0 1 .44-2.21c3.35.67 6.15.42 8.31-.73.265-.138.575-.166.861-.079.286.088.527.286.669.549a1.133 1.133 0 0 1-.128 1.244 1.113 1.113 0 0 1-.342.276 12.358 12.358 0 0 1-5.91 1.36z" fill="#FFEFD0"/><path d="M165.069 115a11.993 11.993 0 0 1-1.65-.12 1.127 1.127 0 0 1-1.005-.832 1.134 1.134 0 0 1 .45-1.226 1.14 1.14 0 0 1 .885-.172 12.293 12.293 0 0 0 7-1.36 1.129 1.129 0 0 1 1.53.42 1.112 1.112 0 0 1-.41 1.53 14.88 14.88 0 0 1-6.8 1.76z" fill="#FFEFD0"/><path d="M164.068 112.75h-.53a1.133 1.133 0 0 1-.891-1.625 1.096 1.096 0 0 1 .645-.57 1.11 1.11 0 0 1 .436-.055 5.075 5.075 0 0 0 4.07-1.47 1.13 1.13 0 0 1 1.75 1.42 7.19 7.19 0 0 1-5.48 2.3zm-3.888-1.89a1.13 1.13 0 0 1 0-2.25 4.774 4.774 0 0 0 3.59-1.89 1.124 1.124 0 0 1 1.85 1.28 7.05 7.05 0 0 1-5.44 2.86zm-3.68-25.41a1.108 1.108 0 0 1-.91-.47 11.765 11.765 0 0 1-2-4.33 1.131 1.131 0 1 1 2.22-.38 9.713 9.713 0 0 0 1.63 3.4 1.113 1.113 0 0 1 .202.837 1.125 1.125 0 0 1-.452.733 1.148 1.148 0 0 1-.69.21z" fill="#FFEFD0"/><path d="M156.741 86h-.22a55.015 55.015 0 0 0-7.39-.48 1.13 1.13 0 1 1 0-2.25 55.9 55.9 0 0 1 7.82.52 1.13 1.13 0 0 1-.21 2.23V86z" fill="#FFEFD0"/><path d="M148.509 88.29a1.124 1.124 0 0 1-.912-1.862c.197-.223.475-.36.772-.378.72-.09 7-.86 9.08-.5a1.132 1.132 0 0 1 .406 1.997 1.13 1.13 0 0 1-.796.223c-1.29-.23-5.84.19-8.41.51l-.14.01z" fill="#FFEFD0"/><path d="M149.999 90.84a1.13 1.13 0 0 1-.21-2.23 32.064 32.064 0 0 0 4.78-1.19c.61-.2 1.38-.44 2.53-.78a1.131 1.131 0 0 1 .63 2.17c-1.12.32-1.84.55-2.48.76a34.52 34.52 0 0 1-5 1.25l-.25.02z" fill="#FFEFD0"/><path d="M152.398 92.63a1.13 1.13 0 0 1-.19-2.24c3.64-.62 4.37-2 4.37-2a1.133 1.133 0 0 1 1.402-.644 1.128 1.128 0 0 1 .738 1.354c-.14.44-1.11 2.65-6.13 3.51l-.19.02z" fill="#FFEFD0"/><path d="M156.739 91.27l-.86-9.17a4.351 4.351 0 0 1 4 4.51c.01 1.39-.4 2.97-3.14 4.66zm-25.331-29.88a7.198 7.198 0 0 1-13.92 3.67l-1.27-4.82a7.198 7.198 0 0 1 .731-5.46 7.188 7.188 0 0 1 4.379-3.34 7.192 7.192 0 0 1 8.8 5.12l1.28 4.83z" fill="#FFEFD0"/><path d="M130.729 58.83a9.491 9.491 0 0 1-2.51 4.06 10.719 10.719 0 0 1-10.86 1.68l.13.49a7.202 7.202 0 0 0 8.751 4.956 7.2 7.2 0 0 0 5.169-8.626l-.68-2.56z" fill="#585858"/><path d="M117.469 64.8c-2.7-1.74-5.62-8.33-1.35-9.77 2.64-.9 1.58 7.24 1.58 9.54l-.23.23z" fill="#585858"/><path d="M115.298 55.57c-3.26-2.37.79-9.06 8.85-9.06 5 0 5 3.82 1.51 5.88-2.87 1.71-7.3.71-9.45 3.63l-.91-.45z" fill="#585858"/><path d="M130.729 60.31a66.39 66.39 0 0 1-4.269-7.23c-.56-1.25-1.321-3.39 1.199-1.87 2.1 1.27 3.251 5.76 3.051 8l.019 1.1z" fill="#585858"/><path d="M73.71 76.31a47.631 47.631 0 0 0-3.73 3.51l-16.25 33.94 12.09-15.62 12.85-26.55c-1.67 1.59-3.29 3.17-4.96 4.72zm-9.639-5.57c1.18-1.61 2.31-3.5 3.65-5.17l-28.44-13.88-27 2.7 47.28 21.8c1.57-1.77 3.13-3.56 4.51-5.45z" fill="#104F00"/><path d="M68.128 65.77c-1.51 1.89-2.74 4.12-4.19 5.88-1.3 1.59-2.61 3.17-3.95 4.73l21.5 9.91 7.8-10.19-21.16-10.33z" fill="#72BC5F"/><path d="M35.76 105.16l8.34-17.42L.43 66.84l7-14.65L79.35 9.83l19.62 9.4-28.84 60.25L82 85.17 74 102l-11.89-5.69-8.33 17.42-18.02-8.57zm32.35-67.58l-1.1-.53-38.47 22.52 23.63 11.31 15.94-33.3z" fill="#40852E"/><path d="M82.02 85.17l7.27-9.07-5.7 12.65-9.91 13.83 8.34-17.41zm-2.78-14.09L107.6 8.91 99 19.23 70.16 79.48c.78-.77 8.62-7.94 9.08-8.4z" fill="#104F00"/><path d="M7.441 52.19l12.81-11.16L90.531.7l-11.17 9.13-71.92 42.36z" fill="#799D70"/><path d="M79.36 9.83l19.62 9.4 8.619-10.32L90.529.7 79.36 9.83z" fill="#799D70"/><path d="M55.268 55.24c-2.41-1.72-4.07-1-5.23-.78a3.28 3.28 0 0 1-2.22-.5 1.12 1.12 0 1 0-1.22 1.88 9.823 9.823 0 0 0 2.75 1.11c-1.87 1.71-3.78 3.77-3.89 3.89a1.118 1.118 0 0 0 .07 1.59 1.1 1.1 0 0 0 .76.29 1.15 1.15 0 0 0 .83-.36s1.35-1.46 2.83-2.89c-1.38 1.73-2.67 3.52-2.91 3.85a1.13 1.13 0 0 0 1.431 1.664c.158-.081.295-.2.399-.344.74-1 1.78-2.42 2.77-3.67-.37.73-.84 1.56-1.77 3.07a1.12 1.12 0 0 0 .36 1.55 1.13 1.13 0 0 0 1.55-.36l1-1.58a1.12 1.12 0 0 0 1.04 1.54 1.11 1.11 0 0 0 .94-.51 11.882 11.882 0 0 0 1.79-4h.05c.58-3.12-.18-4.62-1.33-5.44zm-2.27 7.92c.37-.65.62-1.15.86-1.64a11.999 11.999 0 0 1-.86 1.64z" fill="#FFEFD0"/><path d="M20.798 68c-3.56-.2-8.74 6.77-3.45 8.67-4.78-.11-6 6.66-1.57 8.53-7.68-1.5-6.79 8.46-3.15 12.07a4.14 4.14 0 0 0-4.63 4.53c.38 2.58 1.4 6.16 7.79 8.08 6.39 1.92 10.3-1.67 13.48-5.06 2 4.16 12.09-1.46 11-6.43 3.79 1.34 7.19-3 7.27-6.41.08-3.41-2.28-5.92-4.52-8.1 1.58-1.45 1.88-4.12 1.46-6.17-.69-3.4-4.94-3.73-4.94-6.44 0-.94.18-3.88-.63-5.17-1.28-2.06-3.51-4.09-6.32-3.09-11.79-5.6-11.79 4.99-11.79 4.99z" fill="#585858"/><path d="M27.678 177.29c-3.24-.57-3.77-.41-7-1.19l-7.42 9.08h28.81l-16.73-4.5 2.34-3.39zm53.66 2.6l-1.71-2.24a22.17 22.17 0 0 1-4.87 2.45l4.55 5.08h16.88l-14.85-5.29z" fill="#000"/><path d="M17.648 177.32c3.23.79 6.46 1.61 9.73 2.16l23.79-29.27-4-11.63-16.66-19.21 4.8 27.22-17.66 30.73z" fill="#000"/><path d="M50 111.31c-6.52-1.73-15.38.46-21.73 2.86 0 0 3.9 15.51 6.46 20.13 7.44 13.47 39.66 47.09 39.66 47.09 1.77-.6 5.18-3.09 6.74-4.1L50 111.31z" fill="#585858"/><path d="M27.42 120.23c6.3-2.36 19-6.36 25.44-4.74 0 0-8.6-20.18-12.5-24.63-2.63-3-17-11.47-17-.41a126.995 126.995 0 0 0 4.06 29.78z" fill="#CDE5E8"/><path d="M32.998 89.51l-.25.08a3.61 3.61 0 0 1-4.42-2.54 22.392 22.392 0 0 1-.57-4.8 3.61 3.61 0 0 1 7.21 0 13.686 13.686 0 0 0 .32 3 3.61 3.61 0 0 1-2.29 4.26z" fill="#FFEFD0"/><path d="M35.431 86a4.204 4.204 0 0 0-.12-.78 13.7 13.7 0 0 1-.32-3 3.61 3.61 0 0 0-7.21 0v.31c1.78 2.03 4.71 2.98 7.65 3.47z" fill="#000"/><path d="M38.998 75.15a6.81 6.81 0 0 1-4.37 8.58 6.83 6.83 0 0 1-8.59-4.37l-1.46-4.5a6.811 6.811 0 0 1 9.573-8.167 6.82 6.82 0 0 1 3.387 3.957l1.46 4.5z" fill="#FFEFD0"/><path d="M79.06 71.53a1.178 1.178 0 0 0-.48-.23l.54-.59a1.119 1.119 0 0 0-.06-1.59l-.18-.14a1.13 1.13 0 0 0-.15-1.46 1.12 1.12 0 0 0-1.15-.23c.51-.52.83-.88.87-.92a1.13 1.13 0 0 0-1.69-1.49 24.102 24.102 0 0 1-5 4.22 6.08 6.08 0 0 0-2.64-2.26 1.13 1.13 0 0 0-.81 2.1 3.83 3.83 0 0 1 1.58 1.42 5.31 5.31 0 0 0-.26 1C53.06 93.78 31.1 85.82 30.1 85.44a3.83 3.83 0 0 0-2.75 7.14 39.632 39.632 0 0 0 13.31 2.15 41.858 41.858 0 0 0 4.88-.28c8.27-1 20.5-5.72 30.28-18.32.236-.136.463-.287.68-.45.212-.136.415-.283.61-.44a17.904 17.904 0 0 0 2.1-2.14 1.14 1.14 0 0 0-.15-1.57z" fill="#FFEFD0"/><path d="M48.559 85.54l-.93.2c-2.3.494-4.647.742-7 .74a30.777 30.777 0 0 1-10.27-1.63 4.51 4.51 0 0 0-5.82 2.58 4.06 4.06 0 0 0 .08 3.44c2.2 3.9 8.24 5.48 16 5.48a43 43 0 0 0 5-.29 30.907 30.907 0 0 0 3.11-.51l.65-.17a27.147 27.147 0 0 1-1.13-5.73c.02-1.375.123-2.747.31-4.11z" fill="#E1F3F6"/><path d="M24.379 78.48c2.37-1.51 3.18-4.32 2.92-7.14 2.08 1.4 3.72.55 5-1.85 3.93 5.51 9.91-2.68 1.75-5.65-6.53-2.37-12.93 4.09-11.25 10.58l1.58 4.06z" fill="#585858"/></svg>