<svg width="180" height="72" viewBox="0 0 180 72" fill="none" xmlns="http://www.w3.org/2000/svg"><g clip-path="url(#a)" fill="#D6AB80"><path d="M38.983 67.378c.261-.504.545-1.051.828-1.665v-.24l-1.635-.767v.263c-.194.489-.42.964-.676 1.423-.174.329-.37.657-.567.964l-2.18-2.3a5.425 5.425 0 0 0 1.81-1.117 2.937 2.937 0 0 0 .85-2.19 3.058 3.058 0 0 0-.938-2.19 3.618 3.618 0 0 0-1.003-.658 3.95 3.95 0 0 0-2.703 0c-.408.144-.78.375-1.09.68a3.131 3.131 0 0 0-.72 1.007c-.16.396-.242.82-.24 1.248-.003.508.11 1.01.328 1.468a1.387 1.387 0 0 1 .621 1.85 1.369 1.369 0 0 1-1.842.624 3.316 3.316 0 0 0-.829 2.192 3.82 3.82 0 0 0 .305 1.51c.207.451.504.854.872 1.184.384.332.828.585 1.309.745a4.66 4.66 0 0 0 1.591.262 4.907 4.907 0 0 0 2.29-.328 6.545 6.545 0 0 0 1.678-1.249l1.875 1.928 1.483-1.14-2.18-2.19c.24-.46.501-.876.763-1.314zm-6.541-5.454a1.451 1.451 0 0 1 .414-1.074 1.57 1.57 0 0 1 1.156-.438 1.388 1.388 0 0 1 1.439 1.446 1.538 1.538 0 0 1-.502 1.161c-.437.37-.94.652-1.482.832l-.458-.503-.349-.526a3.96 3.96 0 0 1-.174-.46 2.706 2.706 0 0 1 .021-.438h-.065zm-.327 8.039a1.94 1.94 0 0 1-.72-.416 2.19 2.19 0 0 1-.457-.636 2.198 2.198 0 0 1-.153-.832c.006-.478.184-.937.501-1.292.398-.451.9-.797 1.461-1.008l2.944 3.045a5.735 5.735 0 0 1-1.178.92 2.911 2.911 0 0 1-2.333.219h-.065zm14.477-9.2h4.077V71.67h1.918V60.763h4.055v-1.818h-10.05v1.818zm27.034 5.497a4.623 4.623 0 0 0 1.112-.788 3.31 3.31 0 0 0 .742-1.139 3.98 3.98 0 0 0 .261-1.467 3.913 3.913 0 0 0-.327-1.621 3.677 3.677 0 0 0-.959-1.227 4.092 4.092 0 0 0-1.46-.788 5.754 5.754 0 0 0-1.898-.285h-5.494V71.67h1.919v-4.71h3.052l3.423 4.623h2.377l-3.794-5.06a7.141 7.141 0 0 0 1.046-.263zm-6.104-5.497h3.466a3.368 3.368 0 0 1 2.18.591 1.818 1.818 0 0 1 .698 1.556 2.2 2.2 0 0 1-.196.941c-.126.279-.321.52-.567.701-.277.205-.586.36-.915.46-.376.11-.765.161-1.156.154h-3.466l-.044-4.403zm22.108-1.906l-5.604 12.486-.174.394h2.005l1.44-3.22h6.235l1.417 3.22h2.071l-5.755-12.814-1.636-.066zm3.139 7.82H88.08l2.355-5.257 2.333 5.257zm16.199 2.322l-4.055-9.879-.065-.175h-2.115l5.363 12.639.087.175h1.57l5.429-12.814h-2.071l-4.143 10.054zm16.766-2.848h6.606v-1.796h-6.606v-3.614h7.391v-1.796h-9.31V71.67h9.397v-1.796h-7.478V66.15zm18.51 3.702V58.945h-1.918V71.67h8.742v-1.818h-6.824zM22.869 28.33h8.621v5.355a12.38 12.38 0 0 1-7.026 1.843 11.558 11.558 0 0 1-4.685-.844 11.613 11.613 0 0 1-3.956-2.662 11.694 11.694 0 0 1-2.562-4.035 11.745 11.745 0 0 1-.738-4.73v-.108a11.703 11.703 0 0 1 .705-4.533 11.653 11.653 0 0 1 2.392-3.908 11.577 11.577 0 0 1 3.707-2.674 11.51 11.51 0 0 1 4.447-1.025 15.405 15.405 0 0 1 10.605 4.184l7.155-8.672A25.56 25.56 0 0 0 23.71.017a22.707 22.707 0 0 0-9.016 1.49A22.809 22.809 0 0 0 6.98 6.434a22.963 22.963 0 0 0-5.174 7.576A23.074 23.074 0 0 0 0 23.02v.13C0 36.525 10.217 46 23.925 46A29.595 29.595 0 0 0 43 39.17V19.29H22.782l.087 9.04zM73.474 0a23.188 23.188 0 0 0-9.09 1.562 23.271 23.271 0 0 0-7.773 4.984 23.397 23.397 0 0 0-5.239 7.625 23.487 23.487 0 0 0-1.88 9.07v.131a24.151 24.151 0 0 0 7.07 17.019 23.925 23.925 0 0 0 16.977 7.01 23.927 23.927 0 0 0 16.94-7.103 24.153 24.153 0 0 0 6.977-17.057v-.088c0-3.12-.628-6.209-1.845-9.08-1.218-2.87-3-5.465-5.24-7.627a23.053 23.053 0 0 0-7.793-4.955 22.97 22.97 0 0 0-9.104-1.49zm11.315 23.372a11.448 11.448 0 0 1-.706 4.516 11.396 11.396 0 0 1-2.416 3.872 11.337 11.337 0 0 1-3.737 2.607c-1.408.607-2.924.92-4.456.921a11.487 11.487 0 0 1-4.468-.975 11.534 11.534 0 0 1-3.74-2.642 11.595 11.595 0 0 1-2.424-3.895 11.636 11.636 0 0 1-.727-4.535v-.088a11.438 11.438 0 0 1 .691-4.501 11.4 11.4 0 0 1 2.393-3.87 11.337 11.337 0 0 1 3.71-2.618 11.29 11.29 0 0 1 4.434-.949 11.53 11.53 0 0 1 4.497.958 11.555 11.555 0 0 1 3.769 2.643 11.62 11.62 0 0 1 2.445 3.91c.547 1.455.797 3.005.735 4.559v.087zM116.73.898h-12.319v44.664h33.859V34.719h-21.54V.899zm52.129 14.983h-11.25c-.359 0-.702-.143-.956-.398a1.363 1.363 0 0 1 0-1.92 1.35 1.35 0 0 1 .956-.398h10.203c3.233 0 6.333-1.29 8.618-3.586A12.272 12.272 0 0 0 180 .92h-35.821v44.664a12.16 12.16 0 0 0 8.618-3.587 12.276 12.276 0 0 0 3.569-8.658v-5.191h.305a12.122 12.122 0 0 0 8.617-3.572 12.231 12.231 0 0 0 2.643-3.969c.612-1.484.928-3.075.928-4.682v-.044zm4.949 17.261a6.172 6.172 0 0 0-3.442 1.05 6.212 6.212 0 0 0-2.28 2.795 6.246 6.246 0 0 0 1.352 6.782 6.165 6.165 0 0 0 6.755 1.334 6.194 6.194 0 0 0 2.774-2.3 6.242 6.242 0 0 0-.788-7.847 6.178 6.178 0 0 0-4.371-1.814z"/></g><defs><clipPath id="a"><path fill="#fff" d="M0 0h180v72H0z"/></clipPath></defs></svg>