<svg width="82" height="22" viewBox="0 0 82 22" fill="none" xmlns="http://www.w3.org/2000/svg"><path d="M81.162 0h-2.414c-.552 0-1.112.41-1.268.932-.006.02-.017.04-.022.063l-.157.694-3.31 14.558c-.076.329-.128.543-.143.6l.006.007c-.114.509.2.93.719.977l.006.01h2.501c.548 0 1.104-.407 1.265-.922.008-.024.02-.048.026-.073L81.981.994l-.005-.002C82.1.45 81.74 0 81.162 0zM68.803 14.308a7.14 7.14 0 0 1-1.057.528c-.497.194-.969.296-1.405.296-.669 0-1.183-.091-1.531-.288-.348-.186-.53-.51-.525-.974 0-.535.127-.95.39-1.276.266-.313.66-.565 1.15-.753.486-.16 1.084-.292 1.775-.387.614-.075 1.828-.21 1.983-.211.155-.002.259-.085.19.317-.031.174-.382 1.57-.543 2.206-.046.19-.307.467-.427.542 0 0 .12-.075 0 0zm4.765-9.815c-1.023-.554-2.622-.834-4.81-.834-1.083 0-2.17.085-3.262.249-.8.12-.883.139-1.38.244-1.025.216-1.183 1.21-1.183 1.21l-.328 1.313c-.187.84.306.805.525.74.447-.131.69-.262 1.601-.462.872-.192 1.793-.336 2.528-.33 1.078 0 1.897.115 2.442.335.545.231.815.624.815 1.186.002.134.006.26-.044.37-.045.103-.131.202-.389.236a44.15 44.15 0 0 0-3.971.413c-1.312.18-2.46.486-3.42.912-1.022.44-1.788 1.03-2.315 1.776-.514.75-.772 1.658-.773 2.728 0 1.011.374 1.836 1.099 2.476.733.632 1.686.945 2.84.945.721-.005 1.285-.055 1.69-.153a8.66 8.66 0 0 0 1.297-.431 6.8 6.8 0 0 0 1.11-.596c.393-.254.665-.435 1.014-.657l.013.021-.099.42c0 .005-.006.007-.006.011l.003.008c-.112.506.202.928.719.978l.006.008h.046l.002.002c.343 0 1.521 0 2.072-.002h.384c.025 0 .028-.007.038-.013.528-.063 1.034-.48 1.154-.981l1.966-8.237a4.67 4.67 0 0 0 .102-.675c.025-.26.054-.474.045-.629.005-1.165-.511-2.027-1.531-2.581zM61.726 2.617c-.336-.634-.843-1.144-1.483-1.541C59.586.679 58.805.403 57.9.242 57.007.09 55.944.002 54.734 0L49.1.003c-.58.01-1.15.451-1.284.996L44.03 16.994c-.139.544.238.997.808.994l2.703-.005c.574.005 1.158-.445 1.293-.989l.914-3.881c.128-.544.71-1 1.293-.992h.769c3.297 0 5.854-.658 7.685-1.966 1.826-1.315 2.745-3.04 2.745-5.186-.006-.937-.17-1.726-.513-2.352zm-5.813 5.231c-.807.57-1.94.855-3.396.855h-.67c-.58.007-.955-.448-.817-.993l.808-3.395c.12-.537.709-.994 1.28-.99l.885-.004c1.034.004 1.806.172 2.34.506.525.337.78.86.784 1.558.002 1.063-.403 1.88-1.214 2.463zM42.798 3.721c-.509 0-1.176.412-1.492.91 0 0-3.402 5.84-3.736 6.424-.181.314-.365.114-.396-.002-.025-.142-1.054-6.383-1.054-6.383-.116-.503-.64-.934-1.296-.932l-2.12.003c-.512 0-.831.41-.718.906 0 0 1.622 9.203 1.938 11.368.158 1.197-.016 1.41-.016 1.41l-2.102 3.67c-.308.497-.14.905.37.905l2.458-.002c.508 0 1.183-.406 1.486-.904l9.456-16.016s.905-1.369.07-1.357c-.568.008-2.848 0-2.848 0zM25.043 14.549a7.03 7.03 0 0 1-1.047.536c-.493.197-.963.302-1.394.302-.662 0-1.173-.094-1.518-.293-.345-.19-.526-.519-.52-.99 0-.544.127-.967.388-1.298.263-.319.652-.576 1.137-.767a9.896 9.896 0 0 1 1.76-.392c.61-.076 1.814-.214 1.968-.216.152 0 .255-.086.186.323-.03.177-.377 1.598-.536 2.243-.048.195-.307.476-.424.552 0 0 .117-.075 0 0zm4.724-9.98c-1.014-.564-2.6-.848-4.769-.848-1.073 0-2.15.085-3.233.252-.795.12-.875.141-1.369.248-1.015.22-1.172 1.231-1.172 1.231l-.326 1.335c-.184.853.305.818.521.752.443-.133.684-.265 1.588-.47.863-.194 1.777-.34 2.505-.335 1.07 0 1.881.116 2.421.34.541.235.807.636.807 1.207.004.136.006.264-.042.375-.045.106-.131.206-.387.24-1.523.092-2.616.23-3.937.421-1.3.183-2.438.495-3.39.927-1.013.448-1.771 1.048-2.293 1.806-.511.763-.766 1.686-.767 2.775 0 1.027.371 1.867 1.089 2.517.727.643 1.671.961 2.815.961.715-.005 1.274-.057 1.676-.156.397-.1.83-.241 1.285-.438.343-.142.71-.349 1.1-.606.389-.258.66-.442 1.008-.668l.01.021-.097.428c-.001.004-.006.006-.006.011l.004.007c-.112.517.199.945.712.994l.006.01h.045l.001.003 2.054-.003h.382c.026 0 .029-.008.037-.014.525-.066 1.025-.49 1.144-.997l1.95-8.376c.044-.197.08-.424.1-.686.026-.265.054-.482.046-.639.005-1.186-.508-2.062-1.518-2.626zM17.572 2.66c-.332-.645-.835-1.163-1.47-1.567C15.451.69 14.677.41 13.781.246 12.895.09 11.84.003 10.64 0L5.056.003c-.575.01-1.14.459-1.273 1.013L.028 17.28c-.137.552.237 1.013.802 1.01l2.68-.005c.568.005 1.147-.453 1.281-1.006l.906-3.947c.127-.553.705-1.016 1.282-1.008h.762c3.27 0 5.803-.668 7.618-2 1.81-1.336 2.722-3.09 2.722-5.272-.006-.953-.169-1.756-.509-2.392zM11.81 7.98c-.8.579-1.923.869-3.367.869h-.664c-.575.007-.946-.456-.81-1.01l.801-3.452c.12-.546.703-1.011 1.269-1.007l.878-.004c1.024.004 1.79.175 2.32.514.52.343.772.876.776 1.585.002 1.08-.4 1.912-1.203 2.504z" fill="#55ADBB"/></svg>