<svg width="66" height="66" viewBox="0 0 66 66" fill="none" xmlns="http://www.w3.org/2000/svg"><path d="M33 22.688c-3.98 0-7.219 3.238-7.219 7.218 0 1.365 2.063 1.366 2.063 0A5.162 5.162 0 0 1 33 24.75c1.365 0 1.364-2.063 0-2.063z" fill="url(#a)"/><path d="M14.438 7.219a4.13 4.13 0 0 0-4.126 4.125c0 1.364 2.063 1.365 2.063 0 0-1.138.925-2.063 2.063-2.063 1.365 0 1.364-2.062 0-2.062z" fill="url(#b)"/><path d="M11.344 41.25a4.13 4.13 0 0 0-4.125 4.125c0 1.364 2.062 1.365 2.062 0 0-1.138.925-2.063 2.063-2.063 1.365 0 1.364-2.062 0-2.062z" fill="url(#c)"/><path d="M54.656 37.125a7.195 7.195 0 0 0-5.361 2.402l-6.326-4.213a11.296 11.296 0 0 0-1.056-12.403l5.926-5.608a6.137 6.137 0 0 0 3.724 1.26 6.194 6.194 0 0 0 6.187-6.188 6.194 6.194 0 0 0-6.188-6.188 6.194 6.194 0 0 0-6.187 6.188c0 1.27.386 2.45 1.044 3.433l-5.924 5.606a11.292 11.292 0 0 0-14.749-.22L20.21 15.66a7.17 7.17 0 0 0 1.446-4.315c0-3.98-3.239-7.219-7.218-7.219-3.98 0-7.22 3.238-7.22 7.219 0 3.98 3.24 7.219 7.22 7.219a7.17 7.17 0 0 0 4.314-1.446l5.536 5.535a11.279 11.279 0 0 0-1.066 12.976l-6.668 4.764a7.19 7.19 0 0 0-5.21-2.236c-3.98 0-7.219 3.238-7.219 7.219 0 3.98 3.24 7.219 7.219 7.219 3.98 0 7.219-3.238 7.219-7.219a7.156 7.156 0 0 0-.81-3.306l6.667-4.764a11.32 11.32 0 0 0 7.549 3.893v8.396c-2.922.493-5.157 3.034-5.157 6.094A6.194 6.194 0 0 0 33 61.877a6.194 6.194 0 0 0 6.188-6.188c0-3.06-2.235-5.6-5.157-6.094v-8.396a11.331 11.331 0 0 0 7.787-4.17l6.33 4.215c-.45.94-.71 1.99-.71 3.1 0 3.981 3.239 7.22 7.218 7.22 3.98 0 7.219-3.239 7.219-7.22 0-3.98-3.24-7.218-7.219-7.218zM11.344 50.531a5.162 5.162 0 0 1-5.156-5.156 5.162 5.162 0 0 1 5.156-5.156 5.162 5.162 0 0 1 5.156 5.156 5.162 5.162 0 0 1-5.156 5.156zM51.562 8.25a4.13 4.13 0 0 1 4.126 4.125 4.13 4.13 0 0 1-4.126 4.125 4.13 4.13 0 0 1-4.124-4.125 4.13 4.13 0 0 1 4.124-4.125zm-42.28 3.094a5.162 5.162 0 0 1 5.155-5.156 5.162 5.162 0 0 1 5.157 5.156 5.163 5.163 0 0 1-5.157 5.156 5.162 5.162 0 0 1-5.156-5.156zm27.843 44.343A4.13 4.13 0 0 1 33 59.813a4.13 4.13 0 0 1-4.125-4.126A4.13 4.13 0 0 1 33 51.563a4.13 4.13 0 0 1 4.125 4.124zM33 39.188c-5.118 0-9.281-4.164-9.281-9.28 0-5.118 4.163-9.282 9.281-9.282s9.281 4.164 9.281 9.281c0 5.117-4.163 9.282-9.281 9.282zM54.656 49.5a5.162 5.162 0 0 1-5.156-5.156 5.162 5.162 0 0 1 5.156-5.157 5.162 5.162 0 0 1 5.157 5.157 5.162 5.162 0 0 1-5.157 5.156z" fill="url(#d)"/><path d="M54.656 40.219a4.13 4.13 0 0 0-4.125 4.125c0 1.364 2.063 1.365 2.063 0 0-1.138.925-2.063 2.062-2.063 1.366 0 1.365-2.062 0-2.062z" fill="url(#e)"/><path d="M29.906 55.688c0 1.364 2.063 1.365 2.063 0 0-.569.462-1.032 1.031-1.032 1.365 0 1.364-2.062 0-2.062a3.098 3.098 0 0 0-3.094 3.093z" fill="url(#f)"/><path d="M50.531 12.375c0-.568.462-1.031 1.032-1.031 1.365 0 1.364-2.063 0-2.063a3.097 3.097 0 0 0-3.094 3.094c0 1.364 2.062 1.365 2.062 0z" fill="url(#g)"/><defs><linearGradient id="a" x1="26.238" y1="7.302" x2="37.301" y2="8.211" gradientUnits="userSpaceOnUse"><stop stop-color="#B0B0B0"/><stop offset="1" stop-color="#5F5F5F"/></linearGradient><linearGradient id="b" x1="10.598" y1="-2.392" x2="17.508" y2="-1.824" gradientUnits="userSpaceOnUse"><stop stop-color="#B0B0B0"/><stop offset="1" stop-color="#5F5F5F"/></linearGradient><linearGradient id="c" x1="7.504" y1="31.639" x2="14.415" y2="32.208" gradientUnits="userSpaceOnUse"><stop stop-color="#B0B0B0"/><stop offset="1" stop-color="#5F5F5F"/></linearGradient><linearGradient id="d" x1="7.326" y1="-103.677" x2="84.837" y2="-97.303" gradientUnits="userSpaceOnUse"><stop stop-color="#B0B0B0"/><stop offset="1" stop-color="#5F5F5F"/></linearGradient><linearGradient id="e" x1="50.817" y1="30.608" x2="57.727" y2="31.176" gradientUnits="userSpaceOnUse"><stop stop-color="#B0B0B0"/><stop offset="1" stop-color="#5F5F5F"/></linearGradient><linearGradient id="f" x1="30.134" y1="44.908" x2="35.661" y2="45.362" gradientUnits="userSpaceOnUse"><stop stop-color="#B0B0B0"/><stop offset="1" stop-color="#5F5F5F"/></linearGradient><linearGradient id="g" x1="48.697" y1="1.595" x2="54.223" y2="2.05" gradientUnits="userSpaceOnUse"><stop stop-color="#B0B0B0"/><stop offset="1" stop-color="#5F5F5F"/></linearGradient></defs></svg>