<svg width="21" height="24" viewBox="0 0 21 24" fill="none" xmlns="http://www.w3.org/2000/svg"><path d="M3.498 24c-1.41 0-2.275-1.735-1.511-2.999 1.485-2.457 2.23-5.26.176-7.698C-.99 9.562-.386 4.811 1.987.883 2.53-.014 3.647-.27 4.483.314 5.319.899 5.556 2.1 5.013 3c-1.484 2.457-2.23 5.26-.176 7.698 3.152 3.742 2.549 8.493.176 12.42-.346.572-.924.883-1.515.883zm13.5 0c-1.61 0-2.6-1.735-1.727-2.999 1.697-2.457 2.547-5.26.2-7.698-3.601-3.741-2.912-8.493-.2-12.42.62-.898 1.897-1.153 2.853-.57.955.585 1.226 1.787.605 2.686-1.697 2.457-2.548 5.26-.2 7.698 3.601 3.741 2.912 8.492.2 12.42-.395.572-1.056.883-1.731.883z" fill="#9F8FFF"/></svg>