<svg width="43" height="25" viewBox="0 0 43 25" fill="none" xmlns="http://www.w3.org/2000/svg"><path d="M39.949 1.337a8.298 8.298 0 0 0-2.585 3.085c-.881 1.469-1.38 2.203-2.16 2.203-.778 0-1.277-.705-2.158-2.203C32.165 2.924 30.9.75 28.346.75c-2.556 0-3.79 2.115-4.7 3.672-.91 1.557-1.38 2.203-2.145 2.203-.763 0-1.277-.705-2.159-2.203-.88-1.498-2.144-3.672-4.7-3.672-2.555 0-3.789 2.115-4.7 3.672-.91 1.557-1.366 2.203-2.159 2.203-.793 0-1.277-.705-2.144-2.203a8.298 8.298 0 0 0-2.585-3.084A1.469 1.469 0 0 0 .939 2.6a1.469 1.469 0 0 0 .617 1.263A5.875 5.875 0 0 1 3.098 5.89c.896 1.556 2.13 3.671 4.685 3.671 2.556 0 3.804-2.114 4.7-3.671.896-1.557 1.366-2.204 2.16-2.204.792 0 1.277.706 2.144 2.204.866 1.498 2.144 3.671 4.715 3.671 2.57 0 3.789-2.114 4.7-3.671.91-1.557 1.365-2.204 2.158-2.204.794 0 1.278.706 2.16 2.204.88 1.498 2.144 3.671 4.7 3.671 2.555 0 3.789-2.114 4.7-3.671a5.875 5.875 0 0 1 1.468-2.027 1.469 1.469 0 0 0 .676-1.263 1.468 1.468 0 0 0-2.115-1.264zm0 14.688a8.298 8.298 0 0 0-2.585 3.084c-.881 1.47-1.38 2.203-2.16 2.203-.778 0-1.277-.704-2.158-2.203-.881-1.498-2.145-3.672-4.7-3.672-2.556 0-3.79 2.115-4.7 3.672-.91 1.557-1.38 2.203-2.145 2.203-.763 0-1.277-.704-2.159-2.203-.88-1.498-2.144-3.672-4.7-3.672-2.555 0-3.789 2.115-4.7 3.672-.91 1.557-1.366 2.203-2.159 2.203-.793 0-1.277-.704-2.144-2.203a8.299 8.299 0 0 0-2.585-3.084 1.469 1.469 0 0 0-2.115 1.263 1.469 1.469 0 0 0 .617 1.263 5.875 5.875 0 0 1 1.542 2.027c.896 1.557 2.13 3.672 4.685 3.672 2.556 0 3.804-2.115 4.7-3.672.896-1.557 1.366-2.203 2.16-2.203.792 0 1.277.705 2.144 2.203.866 1.498 2.144 3.672 4.715 3.672 2.57 0 3.789-2.115 4.7-3.672.91-1.557 1.365-2.203 2.158-2.203.794 0 1.278.705 2.16 2.203.88 1.498 2.144 3.672 4.7 3.672 2.555 0 3.789-2.115 4.7-3.672a5.874 5.874 0 0 1 1.468-2.027 1.47 1.47 0 0 0 .617-1.263 1.468 1.468 0 0 0-2.056-1.263z" fill="#9F8FFF"/></svg>