<svg width="71" height="71" viewBox="0 0 71 71" fill="none" xmlns="http://www.w3.org/2000/svg"><g clip-path="url(#a)" fill="#9F8FFF"><path d="M64.188.044a1.04 1.04 0 0 0-1.294.7L60.512 8.76a1.04 1.04 0 0 0 1.994.593l2.382-8.015a1.04 1.04 0 0 0-.7-1.293zM41.525 29.525a.685.685 0 0 1-.954-.002 1.04 1.04 0 0 0-1.453 1.488 2.759 2.759 0 0 0 1.933.781c.7 0 1.4-.26 1.932-.784a1.04 1.04 0 1 0-1.458-1.483zm-11.105 0a.685.685 0 0 1-.954-.002 1.04 1.04 0 0 0-1.453 1.488 2.759 2.759 0 0 0 1.932.781c.7 0 1.4-.26 1.933-.784a1.04 1.04 0 1 0-1.458-1.483z"/><path d="M60.39 12.819a1.04 1.04 0 0 0-1.294.7l-1.364 4.584a86.62 86.62 0 0 1-.708 2.256c-.62 1.914-.996 3.071-1.094 5.342a34.49 34.49 0 0 0-.082 1.706c-.075 2.388-.133 4.275-2.343 6.055a.886.886 0 0 0-.057.05l-6.538 6.101a.832.832 0 0 1-.644.22 1.108 1.108 0 0 1-.779-.422c-.474-.597.054-1.43.302-1.76l3.644-4.815a3.234 3.234 0 0 0 1.755-.79 3.23 3.23 0 0 0 1.095-2.236l.306-4.76a1.04 1.04 0 0 0-2.075-.134l-.307 4.764c-.019.311-.16.598-.396.807a1.17 1.17 0 0 1-.849.294 1.18 1.18 0 0 1-1.097-1.249l.193-3.337c.177-3.069.97-4.983 2.656-6.404.133-.112.262-.212.399-.317.649-.497 1.32-1.01 1.857-2.5l.208-.575.02-.058 4.457-15.004A1.04 1.04 0 1 0 55.66.744L51.212 15.72l-.199.547c-.093.26-.184.462-.278.63-.867-1.603-2.14-3.012-3.755-4.14-.129-1.828-.826-3.535-1.993-4.856a7.35 7.35 0 0 0-1.21-1.096c-.35-2.504-1.884-4.498-4.366-5.651C35.56-.637 30.23.03 26.45 2.773c-3.985 2.894-5.838 7.585-5.24 13.233-.206.46-.39.93-.555 1.409-.259-.253-.458-.558-.672-1.151l-.198-.545L15.336.744a1.04 1.04 0 1 0-1.994.592L17.8 16.34c.006.02.012.04.02.06l.207.57c.538 1.493 1.209 2.007 1.857 2.504.137.105.267.204.4.317 1.684 1.423 2.478 3.338 2.655 6.404l.193 3.338a1.18 1.18 0 0 1-1.097 1.248 1.183 1.183 0 0 1-1.25-1.104l-.302-4.76a1.04 1.04 0 1 0-2.076.132l.303 4.761a3.268 3.268 0 0 0 2.853 3.026l3.641 4.815c.25.33.78 1.163.308 1.758a1.116 1.116 0 0 1-.784.423.838.838 0 0 1-.646-.22l-6.533-6.1a.986.986 0 0 0-.058-.05c-2.21-1.78-2.269-3.665-2.342-6.05a34.171 34.171 0 0 0-.082-1.71c-.098-2.267-.473-3.42-1.093-5.329a85.074 85.074 0 0 1-.713-2.27L8.104.744a1.04 1.04 0 0 0-1.994.592l5.157 17.36c.275.923.516 1.665.729 2.32.586 1.805.91 2.799.994 4.793l.002.04c.044.541.061 1.093.078 1.626.079 2.562.16 5.21 3.087 7.582l6.506 6.076a2.895 2.895 0 0 0 2.218.774c.032-.002.064-.006.096-.01a21.385 21.385 0 0 0 3.982 3.697v2.482l-.237.06c-5.374 1.374-15.375 3.93-15.83 11.508l-.464 9.076c-.03.532-.006 1.207.466 1.708.476.504 1.143.572 1.732.572h41.745c.59 0 1.256-.068 1.731-.572.473-.5.498-1.176.467-1.7l-.465-9.094c-.458-7.571-10.464-10.126-15.84-11.499l-.227-.058v-2.485a21.43 21.43 0 0 0 3.982-3.695c.032.004.063.008.095.01a2.885 2.885 0 0 0 2.217-.774l6.51-6.076c2.923-2.374 3.006-5.023 3.086-7.585.017-.532.034-1.082.078-1.622a.907.907 0 0 0 .002-.04c.085-2.001.39-2.94.996-4.809.21-.65.45-1.389.723-2.305l1.364-4.584a1.04 1.04 0 0 0-.7-1.293zm-13.577 2.445a9.366 9.366 0 0 1 2.346 3.124c-1.77 1.587-2.547 3.523-2.903 5.359a14.946 14.946 0 0 0-3.626-2.676 7 7 0 0 0 1.404-.902c1.428-1.18 2.394-2.91 2.78-4.905zM27.672 4.456c3.196-2.32 7.663-2.903 10.863-1.417.986.458 2.127 1.253 2.758 2.6a8.148 8.148 0 0 0-1.879-.265c-4.789-.111-9.178 1.204-12.687 3.806a17.59 17.59 0 0 0-3.482 3.42c.318-3.436 1.835-6.261 4.427-8.144zm-5.302 14.45a16.1 16.1 0 0 1 .325-1.033c.07-.03.14-.067.204-.115 3.546-2.655 10.457-3.726 15.406-2.388a1.04 1.04 0 1 0 .543-2.008c-4.498-1.217-10.275-.673-14.474 1.175 3.053-4.518 8.555-7.236 14.991-7.083 1.12.026 2.075.326 2.863.81l.055.035c1.724 1.09 2.624 3.076 2.639 5.026-.012 2.178-.819 4.088-2.213 5.24-1.177.973-2.649 1.329-4.256 1.029a1.04 1.04 0 0 0-.085-.012 15.392 15.392 0 0 0-2.87-.27h-.001c-4.091 0-7.96 1.623-10.757 4.432-.318-1.638-.973-3.357-2.37-4.837zM56.028 59.75l.464 9.091.004.077a4.15 4.15 0 0 1-.125.002h-4.955v-6.004c0-.994-.808-1.803-1.802-1.803h-11.82a1.04 1.04 0 0 0 0 2.08h11.542v5.727H21.661v-5.727h11.334a1.04 1.04 0 0 0 0-2.08H21.379c-.992 0-1.798.809-1.798 1.803v6.004h-4.955c-.047 0-.088 0-.125-.002l.004-.084.464-9.075c.363-6.054 9.067-8.278 14.268-9.607l.297-.076c1.31-.33 1.505-1.283 1.505-1.822v-1.368c1.46.767 2.928 1.239 4.235 1.239.075 0 .15-.002.224-.005.075.003.15.005.224.005 1.307 0 2.775-.473 4.235-1.241v1.37c0 .538.195 1.49 1.498 1.821l.295.076c5.203 1.328 13.911 3.552 14.278 9.598zM44.129 36.397c-1.109 1.472-1.212 3.122-.27 4.307a3.1 3.1 0 0 0 .228.257c-2.572 2.943-6.292 5.199-8.533 5.078a.993.993 0 0 0-.111 0c-2.244.12-5.965-2.135-8.533-5.078.08-.081.156-.167.228-.257.944-1.187.838-2.839-.275-4.309l-3.09-4.087a3.268 3.268 0 0 0 1.436-2.897l-.165-2.847c2.452-3.293 6.24-5.174 10.453-5.174h.002c.848 0 1.678.078 2.484.226.029.008.058.016.088.021.05.01.099.016.148.025a12.724 12.724 0 0 1 7.734 4.905l-.164 2.844a3.268 3.268 0 0 0 1.435 2.897l-3.095 4.089z"/><path d="M36.89 38.106c-.73.445-2.057.445-2.783 0a1.04 1.04 0 0 0-1.087 1.774c.694.425 1.585.637 2.476.637.89 0 1.782-.212 2.477-.636a1.04 1.04 0 0 0-1.083-1.775z"/></g><defs><clipPath id="a"><path fill="#fff" d="M0 0h71v71H0z"/></clipPath></defs></svg>