<svg width="66" height="41" viewBox="0 0 66 41" fill="none" xmlns="http://www.w3.org/2000/svg"><path d="M13.871 12A1.871 1.871 0 0 0 12 13.871v15.244c0 .911.656 1.69 1.555 1.844.134.023.237.041 1.925.041.816 0 2.003-.004 3.744-.014a1.871 1.871 0 0 0-.021-3.742c-1.19.007-2.466.011-3.46.013V13.87A1.871 1.871 0 0 0 13.87 12zm18.722 3.813a1.871 1.871 0 0 0 0-3.743h-6.37a1.871 1.871 0 0 0-1.871 1.871V29.06a1.87 1.87 0 0 0 1.87 1.87h6.37a1.871 1.871 0 0 0 0-3.741h-4.498V23.37h4.029a1.871 1.871 0 0 0 0-3.742h-4.03v-3.817h4.5zm11.995-3.586h-4.194a1.87 1.87 0 0 0-1.87 1.874l.03 14.809a1.87 1.87 0 0 0 1.87 1.864h.007c.127 0 3.117-.012 4.312-.033 4.459-.078 7.695-3.964 7.695-9.24 0-5.548-3.155-9.274-7.85-9.274zM44.678 27c-.55.01-1.515.017-2.389.022-.005-1.748-.017-9.234-.02-11.053h2.319c3.028 0 4.107 2.857 4.107 5.531 0 2.703-1.242 5.451-4.017 5.5z" fill="#9F8FFF"/></svg>