<svg width="92" height="92" viewBox="0 0 92 92" fill="none" xmlns="http://www.w3.org/2000/svg"><path d="M6.555 41.283H9.25V37.24h8.33c7.034 0 13.372 2.32 18.328 6.709l1.787-2.018c-5.456-4.832-12.412-7.386-20.116-7.386h-.717c.11-2.038.44-4.112.996-6.186l2.156-8.046 8.045 2.156a30.57 30.57 0 0 1 4.89 1.764c-1.741 3.078-2.929 6.392-3.463 9.758l2.661.423c.878-5.528 3.706-10.917 7.964-15.174L46 13.35l5.89 5.89c4.267 4.267 7.097 9.669 7.968 15.21l2.663-.419c-.527-3.35-1.701-6.65-3.425-9.717a30.498 30.498 0 0 1 5.067-1.844l8.045-2.156 2.156 8.045c.555 2.074.886 4.148.996 6.186h-.939c-7.372 0-12.958 2.28-16.99 4.977l.025-.863c.084-4.283-1.139-8.616-3.536-12.53l-2.298 1.407c2.127 3.474 3.213 7.302 3.14 11.057l-.088 3.019c-.554.474-1.066.946-1.534 1.407l-.014.014a29.065 29.065 0 0 0-7.13 11.963 28.881 28.881 0 0 0-6.278-11.07l-1.996 1.811c4.534 4.995 6.93 11.419 6.93 18.577v8.329h-8.328c-9.564 0-15.818-4.181-19.382-7.692C13.43 61.387 9.25 55.133 9.25 45.57v-1.591H6.555v1.59c0 10.484 4.608 17.36 8.474 21.281l.014.014c3.922 3.866 10.797 8.474 21.28 8.474h16.415v-2.695h-5.39v-8.329c0-9.563 4.18-15.818 7.691-19.382 3.564-3.51 9.819-7.691 19.382-7.691h8.329v4.094h2.695v-6.79H78.06a32.811 32.811 0 0 0-1.092-6.883l-2.853-10.65-10.649 2.854a33.103 33.103 0 0 0-5.797 2.143 32.417 32.417 0 0 0-3.873-4.675L46 9.54l-7.795 7.795a32.423 32.423 0 0 0-3.818 4.596 33.157 33.157 0 0 0-5.63-2.064l-10.649-2.853-2.853 10.648a32.818 32.818 0 0 0-1.092 6.884H6.555v6.738z" fill="#ACA3E3"/><path d="M55.434 72.644v2.695h.243c10.483 0 17.358-4.608 21.28-8.474l.015-.014c3.865-3.922 8.474-10.798 8.474-21.28v-1.54H82.75v1.54c0 9.563-4.18 15.817-7.691 19.381-3.565 3.51-9.819 7.692-19.382 7.692h-.243z" fill="#ACA3E3"/><path d="M80.055 45.811l-2.695-.022a26.027 26.027 0 0 1-.176 2.834l2.676.317c.121-1.019.187-2.072.195-3.129zm-8.809 15.325l1.906 1.906c3.117-3.117 5.21-6.92 6.22-11.304l-2.626-.605c-.895 3.883-2.745 7.249-5.5 10.003zm6.041 8.45l-.345 2.673c8.922 1.152 11.48 2.419 12.172 2.918-.714.516-3.415 1.85-13.04 3.028-8.21 1.004-18.89 1.557-30.075 1.557-7.895 0-15.648-.278-22.423-.805l-.209 2.687c6.843.532 14.669.813 22.631.813 11.985 0 23.261-.621 31.752-1.749 12.556-1.668 14.249-3.732 14.249-5.53 0-1.826-1.748-3.919-14.712-5.592zM2.886 75.18c.684-.492 3.172-1.724 11.729-2.86l-.355-2.672C1.694 71.317 0 73.381 0 75.181c0 1.79 1.897 3.022 6.343 4.118 3.434.846 8.387 1.58 14.322 2.12l.245-2.684c-5.28-.481-9.786-1.119-13.032-1.844-3.288-.735-4.538-1.387-4.992-1.711zm39.073-10.864c0-4.684-1.075-8.936-3.194-12.636l-2.34 1.34c1.884 3.287 2.838 7.088 2.838 11.296h2.696zm-8.662-15.421a20.666 20.666 0 0 1 1.738 2.018l2.153-1.622a23.38 23.38 0 0 0-1.966-2.283l-1.925 1.887zM50.326 21.5l-1.94 1.872c.633.655 1.234 1.35 1.787 2.068l2.135-1.645a27.488 27.488 0 0 0-1.982-2.295z" fill="#ACA3E3"/></svg>