<svg width="1391" height="665" viewBox="0 0 1391 665" fill="none" xmlns="http://www.w3.org/2000/svg"><path fill="#fff" d="M.516 0h1293.47v642H.516z"/><path d="M209.5 636c0 14.595-12.048 26.5-27 26.5s-27-11.905-27-26.5 12.048-26.5 27-26.5 27 11.905 27 26.5zm573-577c0 14.595-12.048 26.5-27 26.5s-27-11.905-27-26.5 12.048-26.5 27-26.5 27 11.905 27 26.5zm640.45 484c0 36.702-30.07 66.5-67.22 66.5-37.16 0-67.23-29.798-67.23-66.5s30.07-66.5 67.23-66.5c37.15 0 67.22 29.798 67.22 66.5z" stroke="#C9D6E2" stroke-opacity=".3" stroke-width="5"/></svg>