<svg width="241" height="110" viewBox="0 0 241 110" fill="none" xmlns="http://www.w3.org/2000/svg"><path d="M134.424 35h7.819c2.67 0 4.636.58 5.898 1.742 1.28 1.144 1.92 2.732 1.92 4.764 0 2.033-.64 3.63-1.92 4.791-1.262 1.144-3.228 1.715-5.898 1.715h-2.881v6.044h-4.938V35zm7.27 8.983c1.262 0 2.149-.208 2.661-.626.512-.417.768-1.034.768-1.85 0-.818-.256-1.435-.768-1.852-.512-.417-1.399-.626-2.661-.626h-2.332v4.954h2.332zm20.067 6.425h-6.419l-1.317 3.648h-4.664L156.357 35h4.938l6.995 19.056h-5.212l-1.317-3.648zm-5.02-3.757h3.621l-1.81-5.662-1.811 5.662zm12.931 3.376h2.194c.238-.617.43-1.325.577-2.124a26.89 26.89 0 0 0 .384-2.586c.091-.925.155-1.869.192-2.83.055-.98.082-1.934.082-2.86V35h14.101v15.027h1.948v7.567h-4.28v-3.538h-10.919v3.538h-4.279v-7.567zm12.592 0V39.029h-4.554v1.143c0 2.214-.092 4.129-.275 5.744-.164 1.597-.438 2.967-.823 4.11h5.652zm12.797 4.383c-.202 0-.403-.01-.604-.028a3.504 3.504 0 0 1-.494-.081v-4.057l.439.055a7.283 7.283 0 0 0 1.509-.027 1.84 1.84 0 0 0 .631-.245 1.35 1.35 0 0 0 .412-.436c.109-.181.21-.408.301-.68L189.574 35h4.993l5.102 9.664L203.675 35h4.828l-6.419 14.428c-.421.925-.833 1.706-1.235 2.34a5.948 5.948 0 0 1-1.399 1.525c-.53.4-1.152.68-1.865.844-.695.182-1.537.272-2.524.272zM210.697 35h12.893v4.029h-7.955v15.027h-4.938V35zm23.774 15.408h-6.42l-1.316 3.648h-4.664L229.066 35h4.938L241 54.056h-5.212l-1.317-3.648zm-5.021-3.757h3.622l-1.811-5.662-1.811 5.662zM141.357 84a7.899 7.899 0 0 1-2.793-.495 6.541 6.541 0 0 1-2.344-1.584c-.682-.726-1.222-1.641-1.621-2.747-.399-1.105-.599-2.425-.599-3.96v-.494c0-1.485.2-2.764.599-3.836.399-1.073.939-1.955 1.621-2.648a6.408 6.408 0 0 1 2.344-1.535 7.564 7.564 0 0 1 2.793-.52c.948 0 1.812.125 2.594.372a6.59 6.59 0 0 1 2.095 1.064 5.333 5.333 0 0 1 1.446 1.708c.383.676.624 1.443.724 2.301h-2.494c-.233-1.122-.724-1.963-1.472-2.524-.748-.56-1.712-.841-2.893-.841a4.82 4.82 0 0 0-1.795.346 4.233 4.233 0 0 0-1.572 1.114c-.449.495-.814 1.155-1.097 1.98-.266.824-.399 1.83-.399 3.019v.495c0 1.254.15 2.31.449 3.167.299.842.682 1.526 1.147 2.054.466.528.989.908 1.571 1.139a4.586 4.586 0 0 0 1.696.346c1.297 0 2.311-.313 3.043-.94.731-.627 1.172-1.435 1.322-2.425h2.494c-.133.957-.399 1.781-.799 2.474a5.501 5.501 0 0 1-1.521 1.683 6.147 6.147 0 0 1-2.07.99 9.828 9.828 0 0 1-2.469.297zm10.966-17.57h2.344v13.61l9.278-13.61h2.344v17.322h-2.344v-13.61l-9.278 13.61h-2.344V66.43zm19.322 0h11.348v2.004h-9.004v4.925h3.891c1.147 0 2.145.123 2.993.37.848.248 1.546.603 2.095 1.065a4.188 4.188 0 0 1 1.247 1.658c.266.627.399 1.328.399 2.104a5.52 5.52 0 0 1-.399 2.128 4.23 4.23 0 0 1-1.247 1.633c-.549.462-1.247.817-2.095 1.064-.848.248-1.846.371-2.993.371h-6.235V66.43zm6.11 15.293c1.663 0 2.827-.272 3.492-.816.682-.561 1.022-1.345 1.022-2.351 0-1.007-.34-1.782-1.022-2.327-.665-.56-1.829-.841-3.492-.841h-3.766v6.335h3.766zm10.85-15.293h2.344v13.61l9.278-13.61h2.344v17.322h-2.344v-13.61l-9.278 13.61h-2.344V66.43zm19.322 0h5.986c1.147 0 2.145.131 2.993.395.847.264 1.546.635 2.094 1.114a4.141 4.141 0 0 1 1.247 1.683 5.52 5.52 0 0 1 .399 2.128c0 .775-.133 1.493-.399 2.153A4.373 4.373 0 0 1 219 75.586c-.548.462-1.247.825-2.094 1.089-.848.264-1.846.396-2.993.396h-3.641v6.681h-2.345V66.43zm5.861 8.611c.831 0 1.53-.074 2.095-.222.582-.165 1.047-.388 1.397-.669.365-.28.623-.626.773-1.039.166-.412.249-.866.249-1.361s-.083-.949-.249-1.361a2.272 2.272 0 0 0-.773-1.04c-.35-.28-.815-.495-1.397-.643-.565-.165-1.264-.247-2.095-.247h-3.516v6.582h3.516zm10.856-8.611h2.344v13.61l9.277-13.61h2.345v17.322h-2.345v-13.61l-9.277 13.61h-2.344V66.43z" fill="#090B20"/><g clip-path="url(#a)"><path d="M105.365 64.61l3.123-3.117h3.591l3.123 3.118 4.804-4.795-4.804-4.794-3.123 3.118h-3.591l-3.123-3.118-3.124 3.118h-4.436l10.503-10.483-2.377-2.372-12.88 12.855h-8.363l14.205-14.178H78.23l6.278-6.266h18.213v-3.354H87.867l3.136-3.13h4.418v-4.409l2.54-2.534h4.417v-6.775h-6.795v4.41l-2.539 2.533h-4.418v4.41l-3.136 3.13v-14.83h-3.354v18.177l-6.104 6.092v-20.22L61.615 35.59v-8.694l12.88-12.855-2.377-2.372-10.503 10.483v-4.428l3.123-3.118-3.123-3.117V7.906l3.123-3.118L59.935 0 55.13 4.794l3.124 3.118v3.583l-3.124 3.118 3.124 3.117v4.428L47.75 11.668l-2.377 2.373 12.88 12.855v8.831L43.739 21.233v20.14l-5.968-5.956V17.239h-3.36v14.824l-3.136-3.13v-4.409h-4.418l-2.539-2.534v-4.409H17.53v6.782h4.418l2.538 2.533v4.41h4.418l3.136 3.13H17.18v3.353h18.213l6.279 6.266H20.926L35.17 58.27h-8.22L14.07 45.415l-2.377 2.372L22.195 58.27H17.76l-3.124-3.117-3.123 3.117h-3.59l-3.124-3.117L0 59.947l4.804 4.794 3.123-3.117h3.59l3.124 3.117 3.124-3.117h4.437L11.698 72.106l2.377 2.373 12.88-12.855h8.712L20.97 76.285h20.31l-5.793 5.781H17.273v3.354h14.854l-3.137 3.13h-4.417v4.41l-2.54 2.533h-4.417v6.781h6.795v-4.409l2.538-2.534h4.418v-4.409l3.137-3.13v14.824h3.36V84.44l5.967-5.956v20.568l14.554-14.525v8.34l-12.88 12.855 2.377 2.372 10.503-10.482v4.427l-3.123 3.118 3.123 3.117v3.584l-3.123 3.117 4.803 4.794 4.804-4.794-3.124-3.117v-3.584l3.124-3.117-3.124-3.118v-4.427l10.504 10.482 2.377-2.372-12.88-12.855v-8.21l14.386 14.358v-20.76l6.104 6.092v18.177h3.36V87.7l3.136 3.13v4.41h4.418l2.539 2.533v4.409h6.795v-6.781h-4.418l-2.539-2.534v-4.41H91.11l-3.136-3.13h14.853v-3.353H84.613l-5.793-5.781h20.117l-14.735-14.7h8.849l12.88 12.855 2.377-2.372-10.504-10.483h4.437l3.124 3.118zM72.772 90.918L61.752 79.92v-7.887l2.426-2.422h3.292l5.302 5.29v16.017zM47.192 75.13l5.431-5.422h3.429l2.327 2.323v7.75L47.185 90.954V75.131h.006zm25.48-30.362l-5.301 5.291h-3.43l-2.326-2.322v-7.41l11.063-11.035V44.77h-.006zm-9.62 18.06v4.266l-2.987-2.981-3.024 3.018v-4.21h-4.275l2.987-2.981-3.024-3.019h4.219v-4.26l2.987 2.975 3.024-3.018v4.21h4.275l-2.98 2.975 3.023 3.018h-4.225v.006zm9.122-4.69l-2.427-2.421v-3.286l5.128-5.117h15.91L79.94 58.14h-7.766zM58.254 47.73l-2.426 2.422H52.53l-5.438-5.427V29.33l11.156 11.134v7.266h.007zm-8.095 4.795v3.421l-2.327 2.323h-7.903L29.04 47.408h15.992l5.127 5.118zm-2.333 9.097l2.426 2.423v3.285l-5.612 5.601H29.077L40.41 61.623h7.417zm22.015 5.614v-3.421l2.327-2.323h7.28L90.817 72.84h-15.37l-5.606-5.602z" fill="#2CB0CF"/></g><path d="M4.438 86.74h54.739a8.412 8.412 0 0 1 0 16.824H4.438V86.74z" fill="#F61A25"/><path fill-rule="evenodd" clip-rule="evenodd" d="M2 84.302h57.177c5.992 0 10.85 4.858 10.85 10.85 0 5.993-4.858 10.851-10.85 10.851H2v-21.7zm2.438 2.438v16.824h54.739a8.412 8.412 0 1 0 0-16.824H4.438z" fill="#fff"/><path d="M6.633 74.195l47.242 27.651a8.413 8.413 0 0 0 8.498-14.52L15.13 59.676l-8.498 14.52z" fill="#FF7A00"/><path fill-rule="evenodd" clip-rule="evenodd" d="M3.297 75.068l49.346 28.882c5.172 3.027 11.818 1.288 14.845-3.883 3.027-5.172 1.288-11.818-3.883-14.845L14.258 56.34 3.297 75.068zm3.336-.873l8.498-14.52 47.242 27.65a8.412 8.412 0 0 1-8.498 14.521L6.633 74.196z" fill="#fff"/><path d="M23.5 51.016l27.356 47.412A8.412 8.412 0 0 0 65.43 90.02L38.07 42.608 23.5 51.016z" fill="#FFB030"/><path fill-rule="evenodd" clip-rule="evenodd" d="M20.169 50.123l28.576 49.524c2.995 5.19 9.63 6.97 14.82 3.975 5.19-2.995 6.97-9.63 3.976-14.82L38.965 39.277 20.169 50.124zm3.33.893l14.573-8.408L65.428 90.02a8.412 8.412 0 0 1-14.572 8.408L23.498 51.016z" fill="#fff"/><path d="M67.589 39.438v54.739a8.412 8.412 0 0 1-16.824 0V39.438h16.824z" fill="#95DB00"/><path fill-rule="evenodd" clip-rule="evenodd" d="M70.027 37v57.177c0 5.992-4.858 10.85-10.85 10.85s-10.85-4.858-10.85-10.85V37h21.7zm-2.438 2.438H50.765v54.739a8.412 8.412 0 0 0 16.824 0V39.438z" fill="#fff"/><path d="M94.46 51.016L67.103 98.428a8.412 8.412 0 0 1-14.572-8.408l27.357-47.412 14.572 8.408z" fill="#2CB0CF"/><path fill-rule="evenodd" clip-rule="evenodd" d="M97.79 50.123L69.216 99.647c-2.995 5.19-9.63 6.97-14.82 3.975-5.191-2.995-6.97-9.63-3.976-14.82l28.576-49.525L97.79 50.124zm-3.33.893l-14.572-8.408L52.531 90.02a8.412 8.412 0 0 0 14.572 8.408L94.46 51.016z" fill="#fff"/><path d="M111.327 74.195l-47.242 27.651a8.413 8.413 0 0 1-8.498-14.52l47.242-27.65 8.498 14.52z" fill="#0472F3"/><path fill-rule="evenodd" clip-rule="evenodd" d="M114.663 75.068L65.317 103.95c-5.172 3.027-11.818 1.288-14.845-3.883-3.027-5.172-1.289-11.818 3.883-14.845l49.346-28.882 10.962 18.728zm-3.336-.873l-8.498-14.52-47.242 27.65a8.412 8.412 0 0 0 8.498 14.521l47.242-27.65z" fill="#fff"/><path d="M52.228 95.152a8.412 8.412 0 0 1 8.412-8.412h54.739v16.824H60.64a8.412 8.412 0 0 1-8.412-8.412z" fill="#7211D2"/><path fill-rule="evenodd" clip-rule="evenodd" d="M117.817 84.302v21.701H60.64c-5.992 0-10.85-4.858-10.85-10.85 0-5.993 4.858-10.85 10.85-10.85h57.177zM60.64 86.74a8.412 8.412 0 0 0 0 16.824h54.739V86.74H60.64z" fill="#fff"/><path d="M62.469 95.396a1.829 1.829 0 1 1-3.658 0 1.829 1.829 0 0 1 3.658 0z" fill="#fff"/><defs><clipPath id="a"><path fill="#fff" d="M0 0h120v74H0z"/></clipPath></defs></svg>