<svg width="24" height="24" viewBox="0 0 24 24" fill="none" xmlns="http://www.w3.org/2000/svg"><path opacity=".35" d="M5 20h14a3 3 0 0 0 3-3V7a3 3 0 0 0-3-3H5a3 3 0 0 0-3 3v10a3 3 0 0 0 3 3z" fill="#6A6A6A"/><path d="M8 11a.997.997 0 0 1-.707-.294l-2-2a.999.999 0 1 1 1.414-1.414L7.845 8.43l1.323-1.985a.998.998 0 0 1 1.387-.277 1 1 0 0 1 .277 1.387l-2 3A.996.996 0 0 1 8 11zm10-2h-4a1 1 0 1 1 0-2h4a1 1 0 1 1 0 2zm0 4h-4a1 1 0 1 1 0-2h4a1 1 0 1 1 0 2zm0 4h-4a1 1 0 1 1 0-2h4a1 1 0 1 1 0 2z" fill="#6A6A6A"/></svg>