<svg width="22" height="22" viewBox="0 0 22 22" fill="none" xmlns="http://www.w3.org/2000/svg"><g clip-path="url(#a)"><path d="M21.096 4.59H3.895l-.256-2.85a.904.904 0 0 0-.9-.822H.904a.904.904 0 1 0 0 1.807h1.01c.551 6.147-.875-9.741 1.038 11.577.074.835.525 1.74 1.302 2.355-1.4 1.789-.121 4.425 2.157 4.425 1.89 0 3.224-1.886 2.575-3.672h4.945c-.647 1.784.683 3.672 2.576 3.672 1.51 0 2.74-1.229 2.74-2.74 0-1.51-1.23-2.738-2.74-2.738H6.417a1.678 1.678 0 0 1-1.543-1.018l14.44-.848a.903.903 0 0 0 .823-.683l1.836-7.343a.904.904 0 0 0-.877-1.123zM6.411 19.274a.933.933 0 0 1 0-1.864.933.933 0 0 1 0 1.864zm10.096 0a.933.933 0 0 1 0-1.864.933.933 0 0 1 0 1.864zm2.038-7.302L4.63 12.79l-.574-6.394h15.882l-1.394 5.577z" fill="#fff"/></g><defs><clipPath id="a"><path fill="#fff" d="M0 0h22v22H0z"/></clipPath></defs></svg>