<svg width="16" height="16" viewBox="0 0 16 16" fill="none" xmlns="http://www.w3.org/2000/svg"><circle opacity=".1" cx="8" cy="8" r="8" fill="#000015"/><path d="M8.882 9.195H7.31v.737h2.585v.858H7.31V12H6.044v-1.21h-.88v-.858h.88v-.737h-.88V8.062h.88V4.3h2.838a2.41 2.41 0 0 1 1.771.726 2.36 2.36 0 0 1 .726 1.749c0 .682-.242 1.257-.726 1.727-.484.462-1.074.693-1.77.693zM7.31 5.488v2.574h1.573c.345 0 .634-.125.87-.374.241-.25.362-.554.362-.913 0-.36-.12-.664-.363-.913a1.146 1.146 0 0 0-.869-.374H7.31z" fill="#000015"/></svg>