<svg width="16" height="16" viewBox="0 0 16 16" fill="none" xmlns="http://www.w3.org/2000/svg"><circle opacity=".1" cx="8" cy="8" r="8" fill="#000015"/><path d="M10.71 9.888c0 .623-.203 1.133-.606 1.53-.396.388-.917.623-1.562.703v.98h-.715v-.969c-.609-.037-1.13-.201-1.562-.495a2.456 2.456 0 0 1-.935-1.199l1.09-.627c.256.646.725 1.005 1.407 1.078V8.601c-.33-.124-.598-.234-.803-.33a4.39 4.39 0 0 1-.66-.418 1.732 1.732 0 0 1-.517-.638 2.246 2.246 0 0 1-.165-.89c0-.617.205-1.115.616-1.497.41-.381.92-.601 1.53-.66V3.2h.714v.98c.983.131 1.665.634 2.046 1.506l-1.067.616c-.19-.476-.517-.766-.979-.869v2.178c.235.088.41.158.528.21.125.05.286.128.484.23.205.103.363.206.473.308.11.103.224.228.341.374.125.147.213.32.264.517.051.19.077.404.077.638zM6.946 6.324c0 .228.066.415.198.561.14.147.367.294.682.44V5.411a1.149 1.149 0 0 0-.649.308.842.842 0 0 0-.23.605zm1.595 4.554c.293-.059.517-.176.671-.352a.92.92 0 0 0 .231-.627c0-.242-.073-.436-.22-.583-.147-.154-.374-.3-.682-.44v2.002z" fill="#000015"/></svg>