<svg width="61" height="62" viewBox="0 0 61 62" fill="none" xmlns="http://www.w3.org/2000/svg"><path d="M60.673 6.355c-.23-.211-.537-.353-.843-.353H48.17V1.06c0-.566-.537-1.06-1.15-1.06H14.267c-.614 0-1.15.494-1.15 1.06v4.942H1.15c-.307 0-.614.142-.844.353-.23.212-.307.495-.307.777 0 .212.23 4.731 1.994 9.957 2.455 6.99 6.597 11.934 12.12 14.194 1.84 5.649 6.06 10.097 11.352 11.863v.212c0 5.86-4.832 10.521-11.046 10.521-.613 0-1.15.495-1.15 1.06v6.002c0 .565.537 1.059 1.15 1.059h32.6c.613 0 1.15-.494 1.15-1.06v-6.002c0-.564-.537-1.059-1.15-1.059-6.29 0-11.43-4.73-11.43-10.521v-.142c5.524-1.765 9.819-6.284 11.66-12.075 5.293-2.33 9.358-7.202 11.736-14.052 1.84-5.226 1.994-9.816 1.994-9.957.077-.282-.077-.565-.307-.777zM2.378 8.121h10.739v16.947c0 1.2.076 2.33.306 3.46C4.68 23.727 2.761 11.794 2.378 8.122zm43.491 47.806v3.884H15.571v-3.884c6.75-.494 11.966-5.65 12.12-12.216.92.14 1.917.282 2.914.282.92 0 1.841-.07 2.685-.212.307 6.426 5.753 11.652 12.58 12.146zM33.673 41.592c-.997.212-1.994.353-2.991.353-1.15 0-2.301-.14-3.375-.423-.23-.071-.614-.212-.767-.212-6.367-1.977-11.122-8.474-11.122-16.171V2.189h30.451v22.95c0 7.697-4.755 14.194-11.199 16.17l-.997.283zM47.94 28.387c.154-1.059.307-2.189.307-3.319V8.121H58.68c-.384 3.672-2.224 15.253-10.739 20.266z" fill="#0C459A"/><path d="M42.142 15.122l-6.526-.846-2.945-5.289C32.353 8.423 31.637 8 30.921 8c-.717 0-1.433.353-1.751.987l-2.945 5.289-6.526.846c-.716.07-1.353.564-1.592 1.198-.238.635-.08 1.34.478 1.763l4.775 4.09-1.114 5.782c-.16.635.159 1.27.796 1.692.318.212.716.353 1.193.353.319 0 .637-.07.876-.212l6.048-2.679 5.73 2.68c.637.281 1.433.281 2.07-.142.636-.423.875-1.057.795-1.692l-1.114-5.782 4.775-4.09c.557-.493.716-1.128.478-1.762-.398-.635-.955-1.129-1.751-1.2zm-5.73 5.923c-.319.211-.398.564-.319.916l1.114 5.571-5.49-2.538c-.32-.141-.717-.141-1.115 0l-5.89 2.609 1.115-5.642c.08-.352-.08-.705-.318-.916l-4.537-3.949 6.288-.846c.397-.07.716-.282.875-.564l2.785-5.077 2.786 5.077c.159.282.477.564.875.564l6.287.846-4.456 3.949z" fill="#0C459A"/></svg>