<svg width="434" height="338" viewBox="0 0 434 338" fill="none" xmlns="http://www.w3.org/2000/svg"><path fill-rule="evenodd" clip-rule="evenodd" d="M.002 159.67c.347-42.272 59.673-73.595 131.296-73.595 71.622 0 130.948 31.323 131.296 73.595h.001v64.629c0 42.46-59.464 73.968-131.297 73.968-71.115 0-130.107-30.881-131.28-72.698L0 224.299V159.67h.002zm18.648 38.964v25.665c0 9.414 5.27 18.556 14.547 26.607v-41.2c-5.434-3.402-10.31-7.105-14.547-11.072zm50.356 71.423c-6.182-2.073-11.927-4.436-17.158-7.037v-43.723c5.41 2.278 11.146 4.321 17.158 6.108v44.652zm18.65 5.066a197.855 197.855 0 0 0 17.158 2.867v-45.439a219.404 219.404 0 0 1-17.158-2.606v45.178zm43.642 4.465c-2.635 0-5.247-.046-7.833-.137v-45.565a244.81 244.81 0 0 0 17.717-.075v45.558c-3.254.145-6.551.219-9.884.219zm28.535-1.861a194.76 194.76 0 0 0 17.344-3.097V229.5a216.712 216.712 0 0 1-17.344 2.811v45.416zm53.153-15.85c-5.198 2.73-10.945 5.218-17.159 7.41v-44.563c6.028-1.877 11.764-4.015 17.159-6.391v43.544zm18.65-13.009c7.618-7.287 12.008-15.378 12.294-23.702l.015-.867v-25.665c-3.646 3.414-7.767 6.633-12.309 9.633v40.601zM18.65 160.043c0 28.927 49.754 55.29 112.648 55.29 62.893 0 112.647-26.363 112.647-55.29 0-28.926-49.754-55.289-112.647-55.289-62.894 0-112.648 26.363-112.648 55.289zm14.92-.373c0-27.633 44.23-45.95 97.728-45.95 53.496 0 97.727 18.317 97.727 45.95 0 27.632-44.231 45.95-97.727 45.95-53.497 0-97.728-18.318-97.728-45.95zm156.674-17.257c-15.268-6.323-36.341-10.014-58.946-10.014-22.606 0-43.679 3.691-58.947 10.014-13.368 5.536-20.13 12.157-20.13 17.257 0 4.989 6.474 11.436 19.277 16.898l.853.359c15.268 6.323 36.341 10.014 58.947 10.014 22.605 0 43.678-3.691 58.946-10.014 13.368-5.537 20.131-12.158 20.131-17.257 0-4.99-6.475-11.437-19.278-16.899l-.853-.358z" fill="url(#a)"/><path fill-rule="evenodd" clip-rule="evenodd" d="M.002 159.67c.347-42.272 59.673-73.595 131.296-73.595 71.622 0 130.948 31.323 131.296 73.595h.001v64.629c0 42.46-59.464 73.968-131.297 73.968-71.115 0-130.107-30.881-131.28-72.698L0 224.299V159.67h.002zm18.648 38.964v25.665c0 9.414 5.27 18.556 14.547 26.607v-41.2c-5.434-3.402-10.31-7.105-14.547-11.072zm50.356 71.423c-6.182-2.073-11.927-4.436-17.158-7.037v-43.723c5.41 2.278 11.146 4.321 17.158 6.108v44.652zm18.65 5.066a197.855 197.855 0 0 0 17.158 2.867v-45.439a219.404 219.404 0 0 1-17.158-2.606v45.178zm43.642 4.465c-2.635 0-5.247-.046-7.833-.137v-45.565a244.81 244.81 0 0 0 17.717-.075v45.558c-3.254.145-6.551.219-9.884.219zm28.535-1.861a194.76 194.76 0 0 0 17.344-3.097V229.5a216.712 216.712 0 0 1-17.344 2.811v45.416zm53.153-15.85c-5.198 2.73-10.945 5.218-17.159 7.41v-44.563c6.028-1.877 11.764-4.015 17.159-6.391v43.544zm18.65-13.009c7.618-7.287 12.008-15.378 12.294-23.702l.015-.867v-25.665c-3.646 3.414-7.767 6.633-12.309 9.633v40.601zM18.65 160.043c0 28.927 49.754 55.29 112.648 55.29 62.893 0 112.647-26.363 112.647-55.29 0-28.926-49.754-55.289-112.647-55.289-62.894 0-112.648 26.363-112.648 55.289zm14.92-.373c0-27.633 44.23-45.95 97.728-45.95 53.496 0 97.727 18.317 97.727 45.95 0 27.632-44.231 45.95-97.727 45.95-53.497 0-97.728-18.318-97.728-45.95zm156.674-17.257c-15.268-6.323-36.341-10.014-58.946-10.014-22.606 0-43.679 3.691-58.947 10.014-13.368 5.536-20.13 12.157-20.13 17.257 0 4.989 6.474 11.436 19.277 16.898l.853.359c15.268 6.323 36.341 10.014 58.947 10.014 22.605 0 43.678-3.691 58.946-10.014 13.368-5.537 20.131-12.158 20.131-17.257 0-4.99-6.475-11.437-19.278-16.899l-.853-.358z" fill="url(#b)"/><mask id="c" maskUnits="userSpaceOnUse" x="0" y="86" width="263" height="213"><path fill-rule="evenodd" clip-rule="evenodd" d="M.002 159.67c.347-42.272 59.673-73.595 131.296-73.595 71.622 0 130.948 31.323 131.296 73.595h.001v64.629c0 42.46-59.464 73.968-131.297 73.968-71.115 0-130.107-30.881-131.28-72.698L0 224.299V159.67h.002zm18.648 38.964v25.665c0 9.414 5.27 18.556 14.547 26.607v-41.2c-5.434-3.402-10.31-7.105-14.547-11.072zm50.356 71.423c-6.182-2.073-11.927-4.436-17.158-7.037v-43.723c5.41 2.278 11.146 4.321 17.158 6.108v44.652zm18.65 5.066a197.855 197.855 0 0 0 17.158 2.867v-45.439a219.404 219.404 0 0 1-17.158-2.606v45.178zm43.642 4.465c-2.635 0-5.247-.046-7.833-.137v-45.565a244.81 244.81 0 0 0 17.717-.075v45.558c-3.254.145-6.551.219-9.884.219zm28.535-1.861a194.76 194.76 0 0 0 17.344-3.097V229.5a216.712 216.712 0 0 1-17.344 2.811v45.416zm53.153-15.85c-5.198 2.73-10.945 5.218-17.159 7.41v-44.563c6.028-1.877 11.764-4.015 17.159-6.391v43.544zm18.65-13.009c7.618-7.287 12.008-15.378 12.294-23.702l.015-.867v-25.665c-3.646 3.414-7.767 6.633-12.309 9.633v40.601zM18.65 160.043c0 28.927 49.754 55.29 112.648 55.29 62.893 0 112.647-26.363 112.647-55.29 0-28.926-49.754-55.289-112.647-55.289-62.894 0-112.648 26.363-112.648 55.289zm14.92-.373c0-27.633 44.23-45.95 97.728-45.95 53.496 0 97.727 18.317 97.727 45.95 0 27.632-44.231 45.95-97.727 45.95-53.497 0-97.728-18.318-97.728-45.95zm156.674-17.257c-15.268-6.323-36.341-10.014-58.946-10.014-22.606 0-43.679 3.691-58.947 10.014-13.368 5.536-20.13 12.157-20.13 17.257 0 4.989 6.474 11.436 19.277 16.898l.853.359c15.268 6.323 36.341 10.014 58.947 10.014 22.605 0 43.678-3.691 58.946-10.014 13.368-5.537 20.131-12.158 20.131-17.257 0-4.99-6.475-11.437-19.278-16.899l-.853-.358z" fill="#fff"/></mask><g mask="url(#c)"><path fill-rule="evenodd" clip-rule="evenodd" d="M150.508 186.941s10.86 28.678 21.896 46.581c11.035 17.903 37.971 50.543 37.971 50.543l28.239-11.93s6.399-2.233-17.914-22.185c-24.314-19.951-70.192-63.009-70.192-63.009z" fill="url(#d)"/></g><path fill-rule="evenodd" clip-rule="evenodd" d="M153.008 103.933c7.487-.538 36.671-22.93 36.671-22.93l89.803 50.682-12.447 148.829-55.993-30.823s-42.339-36.862-50.547-55.875c-22.435-51.963-11.141-89.62-7.487-89.883z" fill="#fff"/><path fill-rule="evenodd" clip-rule="evenodd" d="M199.986 50.432c31.211-28.629 94.676-6.586 143.586 45.864 48.911 52.45 66.473 117.298 35.737 146.435l.001.002-.274.255-47.082 43.904c-31.111 29.012-94.806 6.995-143.86-45.61-48.564-52.078-66.222-116.379-36.383-145.81l.919-.882 47.082-43.904.273-.255h.001zm-15.815 40.28l-18.805 17.536c-6.898 6.432-9.998 16.539-9.562 28.833l30.188-28.151c-1.218-6.304-1.835-12.406-1.821-18.218zm-17.946 85.678c-2.702-5.944-4.895-11.765-6.561-17.373l32.037-29.876c2.026 5.519 4.445 11.115 7.242 16.739l-32.718 30.51zm9.024 17.119a197.514 197.514 0 0 0 9.617 14.524l33.294-31.048a219.076 219.076 0 0 1-9.808-14.345l-33.103 30.869zm26.531 35.01a223.864 223.864 0 0 1-5.249-5.83l33.387-31.133a244.587 244.587 0 0 0 12.154 12.924l-33.382 31.129a224.718 224.718 0 0 1-6.91-7.09zm20.85 19.625a194.795 194.795 0 0 0 14.114 10.586l33.068-30.837a217.012 217.012 0 0 1-13.905-10.781l-33.277 31.032zm47.912 28.095c-5.55-1.941-11.298-4.45-17.147-7.502l32.652-30.449c5.491 3.131 10.975 5.871 16.401 8.198l-31.906 29.753zm22.268 4.769c10.542.599 19.469-1.714 25.763-7.192l.645-.582 18.806-17.536c-4.992-.337-10.165-1.155-15.465-2.432l-29.749 27.742zM212.448 64.344c-21.196 19.765-6.536 74.213 36.414 120.271 42.949 46.058 96.242 64.48 117.438 44.715 21.195-19.765 6.536-74.213-36.414-120.271-42.95-46.058-96.243-64.48-117.438-44.715zm10.462 10.67c20.247-18.88 63.874.994 100.406 40.171 36.533 39.176 53.316 84.083 33.069 102.963-20.247 18.881-63.874-.993-100.406-40.17-36.533-39.176-53.316-84.083-33.069-102.963zm119.636 102.943c-5.793-15.501-17.479-33.455-32.916-50.009-15.437-16.554-32.533-29.465-47.592-36.325-13.186-6.007-22.655-6.435-26.392-2.95-3.656 3.409-3.958 12.555.783 25.663l.32.87c5.793 15.501 17.479 33.455 32.916 50.009 15.437 16.555 32.533 29.465 47.592 36.325 13.186 6.007 22.655 6.435 26.392 2.951 3.656-3.41 3.958-12.556-.783-25.664l-.32-.87z" fill="url(#e)"/><circle cx="351.5" cy="43.5" r="7.5" fill="#D8D8D8"/><circle cx="39.5" cy="59.5" r="7.5" fill="#D8D8D8"/><circle cx="366" cy="301" r="5" fill="#ECB259"/><circle cx="224.5" cy="326.5" r="7.5" fill="#ECAF5A"/><circle cx="46.5" cy="308.5" r="9.5" fill="#E9816E"/><circle cx="128.5" cy="17.5" r="13.5" fill="#E87472"/><defs><linearGradient id="a" x1="-76.904" y1="215.384" x2="154.302" y2="382.974" gradientUnits="userSpaceOnUse"><stop stop-color="#E3526D"/><stop offset="1" stop-color="#E9AA55"/></linearGradient><linearGradient id="b" x1="-76.904" y1="215.384" x2="154.302" y2="382.974" gradientUnits="userSpaceOnUse"><stop stop-color="#E3526D"/><stop offset="1" stop-color="#E9AA55"/></linearGradient><linearGradient id="d" x1="241.93" y1="138.63" x2="133.977" y2="102.094" gradientUnits="userSpaceOnUse"><stop stop-opacity=".01"/><stop offset="1"/></linearGradient><linearGradient id="e" x1="106.645" y1="32.181" x2="141.888" y2="315.988" gradientUnits="userSpaceOnUse"><stop stop-color="#E3526D"/><stop offset="1" stop-color="#E9AA55"/></linearGradient></defs></svg>