<svg width="335" height="358" viewBox="0 0 335 358" fill="none" xmlns="http://www.w3.org/2000/svg"><circle cx="310" cy="72" r="8" fill="#D8D8D8"/><circle cx="253" cy="244" r="8" fill="#D8D8D8"/><circle cx="329.5" cy="241.5" r="5.5" fill="#ECB259"/><circle cx="179" cy="350" r="8" fill="#ECAF5A"/><circle cx="10.5" cy="179.5" r="10.5" fill="#E97E6E"/><circle cx="83.5" cy="35.5" r="14.5" fill="#E87472"/><path fill-rule="evenodd" clip-rule="evenodd" d="M260.167 178.99h-9.483l-27.888 27.78h26.633l24.682 27.78H78.889l24.821-27.78h28.586l-27.889-27.78H92.833L51 220.66v55.56C51 291.499 63.41 304 78.75 304h195.36c15.34 0 27.89-12.362 27.89-27.78v-55.56l-41.833-41.67zm-13.945-69.59l-69.237 68.691-49.515-49.124 69.237-68.691 49.515 49.124zm-59.237-78.367l-88.728 88.211a13.735 13.735 0 0 0 0 19.526l68.949 68.546c5.432 5.401 14.208 5.401 19.64 0l88.589-88.072a13.734 13.734 0 0 0 0-19.525l-68.949-68.547c-5.293-5.54-14.068-5.54-19.501-.139z" fill="url(#a)"/><path fill-rule="evenodd" clip-rule="evenodd" d="M93.064 179L104 206.982l-24.957 27.983s-18.544.304-23.313-2.029c-4.767-2.334-4.73-11.962-4.73-11.962L93.065 179z" fill="url(#b)"/><path fill-rule="evenodd" clip-rule="evenodd" d="M260.449 179L250 206.964l24.299 28.001s17.952.304 22.662-2.029c4.71-2.334 5.039-11.962 5.039-11.962L260.449 179z" fill="url(#c)"/><defs><linearGradient id="a" x1="-22.508" y1="195.803" x2="240.512" y2="335.4" gradientUnits="userSpaceOnUse"><stop stop-color="#E3526D"/><stop offset="1" stop-color="#E9AA55"/></linearGradient><linearGradient id="b" x1="73.858" y1="83.838" x2="-117.183" y2="121.429" gradientUnits="userSpaceOnUse"><stop stop-opacity=".01"/><stop offset="1"/></linearGradient><linearGradient id="c" x1="279.573" y1="83.838" x2="467.271" y2="120.074" gradientUnits="userSpaceOnUse"><stop stop-opacity=".01"/><stop offset="1"/></linearGradient></defs></svg>