<svg width="95" height="61" viewBox="0 0 95 61" fill="none" xmlns="http://www.w3.org/2000/svg"><ellipse cx="68" cy="46.215" rx="25" ry="13.215" fill="#fff"/><ellipse cx="68" cy="37.215" rx="25" ry="13.215" fill="#fff"/><path fill-rule="evenodd" clip-rule="evenodd" d="M41.5 32.215C41.5 23.83 53.474 17.5 68 17.5l.435.002c14.33.125 26.065 6.411 26.065 14.713V45.43c0 8.386-11.974 14.716-26.5 14.716-4.307 0-8.39-.557-12.004-1.559h-.327v-.092c-8.273-2.374-14.002-7.102-14.165-12.813l-.004-.252V32.216zm17.169 23.943a40.7 40.7 0 0 0 4.357.717V46.678a44.519 44.519 0 0 1-4.357-.664v10.144zm9.331.988c-.665 0-1.324-.014-1.974-.042V46.89a49.557 49.557 0 0 0 4.357-.018v10.211c-.783.041-1.578.062-2.383.062zm5.383-.318a40.541 40.541 0 0 0 4.357-.762V45.928c-1.4.3-2.856.538-4.357.706v10.194zm11.714-3.44a27.46 27.46 0 0 1-4.357 1.84V45.16a32.694 32.694 0 0 0 4.357-1.637v9.866zm3-1.976c2.094-1.721 3.323-3.707 3.4-5.777l.003-.204v-6.316c-.943 1.003-2.088 1.933-3.403 2.775v9.522zm-32.378-6.118h-.05V55.36a28.393 28.393 0 0 1-4.357-1.757V43.71a33.524 33.524 0 0 0 4.407 1.585zM44.5 39.114v6.317c0 2.275 1.398 4.456 3.812 6.306v-9.592c-1.488-.908-2.772-1.925-3.812-3.03zm0-6.899c0 6.212 10.412 11.715 23.5 11.715s23.5-5.503 23.5-11.715C91.5 26.004 81.088 20.5 68 20.5l-.43.002c-12.886.119-23.07 5.57-23.07 11.713zM68 22.541c11.21 0 20.437 3.817 20.437 9.334 0 5.517-9.227 9.333-20.437 9.333a1.5 1.5 0 1 1 0-3c9.707 0 17.437-3.197 17.437-6.333S77.707 25.54 68 25.54a1.5 1.5 0 0 1 0-3z" fill="url(#a)"/><ellipse cx="52" cy="29.215" rx="25" ry="13.215" fill="#fff"/><ellipse cx="52" cy="20.215" rx="25" ry="13.215" fill="#fff"/><path fill-rule="evenodd" clip-rule="evenodd" d="M25.5 15.215C25.5 6.83 37.474.5 52 .5l.435.002C66.765.627 78.5 6.913 78.5 15.215V28.43c0 8.386-11.974 14.716-26.5 14.716-4.307 0-8.39-.557-12.004-1.559h-.327v-.092c-8.273-2.374-14.002-7.102-14.165-12.813l-.004-.252V15.215zm17.169 23.943a40.7 40.7 0 0 0 4.357.717V29.678a44.519 44.519 0 0 1-4.357-.664v10.144zm9.331.988c-.665 0-1.324-.014-1.974-.042V29.89a49.557 49.557 0 0 0 4.357-.018v10.211c-.783.041-1.578.062-2.383.062zm5.383-.318a40.541 40.541 0 0 0 4.357-.762V28.928c-1.4.3-2.856.538-4.357.706v10.194zm11.714-3.44a27.46 27.46 0 0 1-4.357 1.84V28.16a32.694 32.694 0 0 0 4.357-1.637v9.866zm3-1.976c2.094-1.721 3.323-3.707 3.4-5.777l.003-.205v-6.315c-.943 1.003-2.088 1.933-3.403 2.775v9.522zm-32.378-6.118h-.05V38.36a28.393 28.393 0 0 1-4.357-1.757V26.71a33.524 33.524 0 0 0 4.407 1.585zM28.5 22.114v6.316c0 2.276 1.398 4.457 3.812 6.306v-9.59c-1.488-.91-2.772-1.925-3.812-3.031zm0-6.899c0 6.212 10.412 11.715 23.5 11.715s23.5-5.503 23.5-11.715C75.5 9.004 65.088 3.5 52 3.5l-.43.002c-12.886.12-23.07 5.57-23.07 11.713zM52 5.541c11.21 0 20.437 3.817 20.437 9.334 0 5.517-9.226 9.333-20.437 9.333a1.5 1.5 0 1 1 0-3c9.707 0 17.437-3.197 17.437-6.333S61.707 8.54 52 8.54a1.5 1.5 0 0 1 0-3z" fill="url(#b)"/><circle cx="26" cy="35" r="24" fill="#fff"/><path fill-rule="evenodd" clip-rule="evenodd" d="M26 9.5C11.917 9.5.5 20.917.5 35S11.917 60.5 26 60.5 51.5 49.083 51.5 35 40.083 9.5 26 9.5zm0 3c12.426 0 22.5 10.074 22.5 22.5S38.426 57.5 26 57.5 3.5 47.426 3.5 35 13.574 12.5 26 12.5z" fill="url(#c)"/><path fill-rule="evenodd" clip-rule="evenodd" d="M26 15.5c10.77 0 19.5 8.73 19.5 19.5S36.77 54.5 26 54.5a1.5 1.5 0 0 1 0-3c9.113 0 16.5-7.387 16.5-16.5S35.113 18.5 26 18.5a1.5 1.5 0 0 1 0-3z" fill="url(#d)"/><defs><linearGradient id="a" x1="25.978" y1="43.488" x2="72.506" y2="77.358" gradientUnits="userSpaceOnUse"><stop stop-color="#E3526D"/><stop offset="1" stop-color="#E9AA55"/></linearGradient><linearGradient id="b" x1="9.978" y1="26.488" x2="56.506" y2="60.358" gradientUnits="userSpaceOnUse"><stop stop-color="#E3526D"/><stop offset="1" stop-color="#E9AA55"/></linearGradient><linearGradient id="c" x1="-14.436" y1="40.579" x2="36.564" y2="70.451" gradientUnits="userSpaceOnUse"><stop stop-color="#E3526D"/><stop offset="1" stop-color="#E9AA55"/></linearGradient><linearGradient id="d" x1="18.35" y1="39.267" x2="44.003" y2="47.357" gradientUnits="userSpaceOnUse"><stop stop-color="#E3526D"/><stop offset="1" stop-color="#E9AA55"/></linearGradient></defs></svg>