<svg width="235" height="54" viewBox="0 0 235 54" fill="none" xmlns="http://www.w3.org/2000/svg">
<path d="M4.70633 37.8294H0V7.87354H4.70633V26.9499H4.74428L4.98466 26.4159L10.6778 20.1316H16.5734L9.14697 27.9559L17.0035 37.8294H11.4622L4.70633 28.9991V37.8294Z" fill="#160E44"/>
<path d="M19.4831 20.1318H24.1894V30.1171C24.1894 30.4773 24.24 30.912 24.3413 31.4087C24.4425 31.9055 24.6322 32.3899 24.9106 32.837C25.1889 33.2841 25.5684 33.6691 26.0745 33.992C26.5679 34.3149 27.2131 34.4764 27.9975 34.4764C28.6301 34.4764 29.1994 34.4018 29.7308 34.2652C30.2495 34.1286 30.7302 33.9547 31.1604 33.7685C31.5905 33.5822 31.9574 33.3834 32.2357 33.1723C32.5267 32.9612 32.7418 32.7873 32.9063 32.6259V20.1318H37.6126V34.6627C37.1445 35.1222 36.5625 35.5817 35.8793 36.0288C35.1962 36.4759 34.4371 36.8733 33.5768 37.2211C32.7291 37.5688 31.8056 37.8545 30.8314 38.0656C29.8446 38.2892 28.8325 38.3885 27.7951 38.3885C26.6438 38.3885 25.5684 38.2022 24.5563 37.842C23.5442 37.4819 22.6713 36.9727 21.9248 36.302C21.1784 35.6314 20.5838 34.8365 20.141 33.8926C19.6982 32.9488 19.4705 31.9179 19.4705 30.7878V20.1318H19.4831Z" fill="#160E44"/>
<path d="M47.0127 20.1814V22.2182C47.1392 22.0443 47.3417 21.7959 47.62 21.4854C47.8983 21.175 48.2273 20.8769 48.6195 20.5788C49.0116 20.2808 49.4671 20.0324 49.9732 19.8212C50.4792 19.6101 51.0359 19.5107 51.6431 19.5107C52.4781 19.5107 53.2119 19.6474 53.8445 19.933C54.4771 20.2187 54.8439 20.4174 54.9452 20.554L52.9462 24.2922C52.8703 24.1929 52.6553 24.0439 52.301 23.87C51.9468 23.6961 51.3901 23.5968 50.631 23.5968C50.1123 23.5968 49.6442 23.6961 49.252 23.8824C48.8598 24.0687 48.5182 24.3171 48.2146 24.5903C47.911 24.876 47.6706 25.1616 47.4682 25.4597C47.2658 25.7578 47.1266 26.0186 47.0127 26.2545V37.8171H42.3064V20.1814H47.0127Z" fill="#160E44"/>
<path d="M55.2866 28.9622C55.2866 27.6457 55.5396 26.4286 56.0331 25.2736C56.5265 24.131 57.2349 23.1375 58.1332 22.2805C59.0314 21.436 60.1068 20.7529 61.334 20.2561C62.5612 19.7593 63.9149 19.4985 65.3825 19.4985C66.8247 19.4985 68.1658 19.7469 69.4056 20.2561C70.6454 20.7529 71.7208 21.436 72.6064 22.2805C73.492 23.125 74.2005 24.131 74.7065 25.2736C75.2126 26.4162 75.4783 27.6457 75.4783 28.9622C75.4783 30.2662 75.2253 31.4958 74.7065 32.6384C74.2005 33.781 73.492 34.7745 72.5811 35.6315C71.6829 36.476 70.6075 37.1591 69.3803 37.6558C68.1531 38.1526 66.7994 38.4134 65.3318 38.4134C63.8896 38.4134 62.5612 38.165 61.3213 37.6558C60.0815 37.1466 59.0314 36.476 58.1458 35.6066C57.2602 34.7497 56.5518 33.7437 56.0457 32.6011C55.5396 31.4585 55.2866 30.2414 55.2866 28.9622ZM59.8791 28.9249C59.8791 29.7446 60.0182 30.5022 60.3092 31.1853C60.6002 31.8684 60.9924 32.4645 61.5111 32.9737C62.0172 33.4829 62.5991 33.8803 63.257 34.166C63.9149 34.4516 64.6234 34.5882 65.3825 34.5882C66.1162 34.5882 66.8121 34.4516 67.4826 34.166C68.1531 33.8803 68.7351 33.4829 69.2538 32.9737C69.7598 32.4645 70.1647 31.8559 70.4557 31.1853C70.7466 30.5022 70.8858 29.757 70.8858 28.9249C70.8858 28.1301 70.7466 27.3849 70.4557 26.7018C70.1647 26.0188 69.7725 25.4351 69.2538 24.9259C68.7477 24.4291 68.1531 24.0441 67.4826 23.7708C66.8121 23.4976 66.1162 23.361 65.3825 23.361C64.6234 23.361 63.9149 23.4976 63.257 23.7708C62.5991 24.0441 62.0172 24.4291 61.5111 24.9259C61.0051 25.4226 60.6002 26.0188 60.3092 26.7018C60.0182 27.3849 59.8791 28.1301 59.8791 28.9249Z" fill="#160E44"/>
<path d="M83.6385 20.1814V22.2182C83.765 22.0443 83.9674 21.7959 84.2457 21.4854C84.524 21.175 84.853 20.8769 85.2452 20.5788C85.6374 20.2808 86.0928 20.0324 86.5989 19.8212C87.1049 19.6101 87.6616 19.5107 88.2689 19.5107C89.1039 19.5107 89.8376 19.6474 90.4702 19.933C91.1028 20.2187 91.4697 20.4174 91.5709 20.554L89.572 24.2922C89.4961 24.1929 89.281 24.0439 88.9267 23.87C88.5725 23.6961 88.0158 23.5968 87.2568 23.5968C86.7381 23.5968 86.2699 23.6961 85.8778 23.8824C85.4856 24.0687 85.144 24.3171 84.8403 24.5903C84.5367 24.876 84.2963 25.1616 84.0939 25.4597C83.8915 25.7578 83.7523 26.0186 83.6385 26.2545V37.8171H78.9321V20.1814H83.6385Z" fill="#160E44"/>
<path d="M98.7064 11.0405V20.1316H103.109V23.8699H98.7064V31.9674C98.7064 32.7622 98.8582 33.3832 99.1618 33.8303C99.4655 34.2774 99.9589 34.501 100.629 34.501C101.414 34.501 102.072 34.3147 102.59 33.9172L104.045 36.96C103.919 37.0594 103.729 37.196 103.501 37.3699C103.261 37.5313 102.97 37.6928 102.603 37.8542C102.236 38.0033 101.819 38.1399 101.351 38.2392C100.882 38.3386 100.364 38.3883 99.8197 38.3883C98.9847 38.3883 98.213 38.2889 97.5045 38.1026C96.796 37.9163 96.1887 37.5686 95.6827 37.0594C95.1766 36.5626 94.7718 35.8795 94.4681 35.0102C94.1645 34.1532 94.0127 33.0603 94.0127 31.7563V11.0405H98.7064Z" fill="#160E44"/>
<path d="M107.461 35.6684C107.461 34.9232 107.727 34.2898 108.271 33.7558C108.815 33.2217 109.498 32.9609 110.333 32.9609C111.168 32.9609 111.851 33.2217 112.395 33.7558C112.939 34.2898 113.205 34.9232 113.205 35.6684C113.205 36.4136 112.939 37.047 112.395 37.5562C111.864 38.0654 111.155 38.3262 110.295 38.3262C109.46 38.3262 108.777 38.0654 108.258 37.5313C107.727 37.0097 107.461 36.3887 107.461 35.6684Z" fill="#59AA47"/>
<path d="M117.582 7.87354H122.289V37.817H117.582V7.87354Z" fill="#00783E"/>
<path d="M126.565 13.6986C126.565 12.9783 126.818 12.3698 127.336 11.8481C127.855 11.3265 128.526 11.0781 129.361 11.0781C130.196 11.0781 130.879 11.3389 131.385 11.8481C131.891 12.3573 132.157 12.9783 132.157 13.6986C132.157 14.4438 131.904 15.0648 131.385 15.574C130.879 16.0708 130.196 16.3316 129.361 16.3316C128.526 16.3316 127.842 16.0708 127.336 15.5616C126.818 15.0399 126.565 14.419 126.565 13.6986ZM126.995 20.1319H131.701V37.8297H126.995V20.1319Z" fill="#00783E"/>
<path d="M137.685 23.8701H134.864V20.1318H137.685V14.779C137.685 14.009 137.799 13.2142 138.014 12.3945C138.229 11.5748 138.584 10.8172 139.064 10.1341C139.545 9.45105 140.165 8.89217 140.911 8.44507C141.658 7.99797 142.594 7.77441 143.682 7.77441C144.833 7.77441 145.833 7.91103 146.668 8.18426C147.503 8.45749 148.072 8.69346 148.35 8.89217L146.971 12.2454C146.756 12.1461 146.453 12.0343 146.035 11.9225C145.618 11.8108 145.15 11.7487 144.618 11.7487C143.884 11.7487 143.328 12.0095 142.948 12.5187C142.569 13.0279 142.379 13.7358 142.379 14.6424V20.1567H147.009V23.8949H142.379V46.3618H137.673V23.8701H137.685Z" fill="#00783E"/>
<path d="M164.848 36.4761C164.645 36.6251 164.354 36.8238 163.988 37.0598C163.621 37.2957 163.178 37.5069 162.672 37.6932C162.166 37.8919 161.596 38.0533 160.964 38.19C160.331 38.3266 159.636 38.4011 158.889 38.4011C157.472 38.4011 156.156 38.1651 154.929 37.6932C153.702 37.2212 152.627 36.563 151.716 35.7061C150.805 34.8615 150.071 33.8555 149.54 32.7005C149.008 31.5455 148.73 30.2911 148.73 28.925C148.73 27.5837 148.983 26.3417 149.502 25.1867C150.02 24.0317 150.704 23.0382 151.577 22.1936C152.45 21.3615 153.462 20.7033 154.626 20.2314C155.777 19.7594 157.004 19.5234 158.32 19.5234C159.471 19.5234 160.546 19.7097 161.559 20.0699C162.571 20.4301 163.444 20.9144 164.215 21.5354C164.974 22.1564 165.582 22.8767 166.024 23.7088C166.467 24.5409 166.695 25.4351 166.695 26.3914C166.695 27.2359 166.518 27.9439 166.164 28.4903C165.809 29.0368 165.354 29.4839 164.81 29.7944C164.266 30.1173 163.659 30.3408 163.001 30.4526C162.343 30.5644 161.71 30.6265 161.078 30.6265H153.221C153.411 31.2723 153.689 31.8312 154.082 32.3031C154.474 32.775 154.929 33.1725 155.461 33.4954C155.992 33.8183 156.561 34.0543 157.194 34.2281C157.826 34.3896 158.472 34.4765 159.155 34.4765C159.99 34.4765 160.736 34.3647 161.369 34.1288C162.014 33.8928 162.469 33.6941 162.76 33.5078L164.848 36.4761ZM158.484 23.448C157.257 23.448 156.156 23.7461 155.208 24.3546C154.259 24.9632 153.588 25.845 153.221 27H160.331C160.508 27 160.724 26.9876 160.977 26.9751C161.23 26.9627 161.47 26.913 161.698 26.8385C161.938 26.764 162.128 26.6274 162.292 26.4535C162.444 26.2796 162.533 26.0188 162.533 25.6835C162.533 25.2985 162.419 24.9632 162.204 24.6775C161.976 24.3919 161.685 24.1683 161.306 23.982C160.926 23.7957 160.496 23.6716 160.015 23.5722C159.534 23.4728 159.016 23.448 158.484 23.448Z" fill="#00783E"/>
<path d="M175.298 27.8318C176.057 25.3976 176.753 23.1124 177.499 20.8396C177.563 20.6409 177.993 20.4546 178.259 20.4546C179.979 20.4174 181.7 20.4422 183.42 20.4422C189.366 20.4422 195.3 20.4422 201.246 20.4422C204.169 20.4422 204.928 21.4482 204.093 24.2301C203.245 27.0245 202.372 29.7941 201.499 32.5885C200.652 35.2959 201.461 36.3764 204.384 36.3764C208.521 36.3764 212.658 36.3764 216.795 36.3764C217.098 36.3764 217.389 36.3764 217.794 36.3764C217.035 38.7982 216.327 41.1331 215.568 43.468C215.517 43.6418 215.163 43.8157 214.948 43.8157C210.203 43.8405 205.446 43.8654 200.702 43.8157C198.071 43.7909 197.337 42.7352 198.096 40.2389C198.956 37.3948 199.842 34.5632 200.727 31.7315C201.575 28.9868 200.753 27.8691 197.843 27.8691C190.708 27.8691 183.572 27.8691 176.437 27.8691C176.082 27.8318 175.754 27.8318 175.298 27.8318Z" fill="url(#paint0_linear_6_146)"/>
<path d="M189.43 17.6354C190.189 15.2136 190.897 12.8664 191.656 10.5439C191.707 10.37 192.061 10.1962 192.276 10.1962C197.021 10.1713 201.777 10.1465 206.522 10.1962C209.153 10.2334 209.874 11.2767 209.128 13.7854C208.268 16.6295 207.382 19.4611 206.496 22.3052C205.649 25.0499 206.471 26.1676 209.394 26.1676C216.529 26.1676 223.664 26.1676 230.8 26.1676C231.129 26.1676 231.458 26.1676 231.913 26.1676C231.319 28.0678 230.762 29.8811 230.205 31.6943C229.611 33.5697 229.611 33.5697 227.624 33.5697C220.464 33.5697 213.303 33.5697 206.13 33.5697C202.992 33.5697 202.258 32.5885 203.169 29.6203C204.004 26.888 204.864 24.1557 205.725 21.4234C206.572 18.7159 205.75 17.6354 202.84 17.6354C198.703 17.6354 194.566 17.6354 190.429 17.6354C190.126 17.6354 189.822 17.6354 189.43 17.6354Z" fill="url(#paint1_linear_6_146)"/>
<path d="M192.63 7.38939C192.845 6.6939 193.035 6.07292 193.225 5.46437C193.731 3.84983 194.25 2.2353 194.718 0.620763C194.844 0.18608 195.021 0.012207 195.502 0.012207C200.006 0.037046 204.497 0.012207 209.001 0.037046C209.71 0.037046 210.444 0.18608 211.114 0.409631C213.353 1.1548 214.226 3.07982 213.467 5.6755C212.784 8.03521 212.025 10.3577 211.291 12.7049C210.519 15.164 211.114 15.9713 213.771 15.9713C220.489 15.9837 227.207 15.9713 233.937 15.9713C234.266 15.9713 234.595 15.9713 234.987 15.9713C234.949 16.2445 234.937 16.4308 234.886 16.5922C234.241 18.6415 233.583 20.6907 232.963 22.7523C232.837 23.1994 232.659 23.3609 232.166 23.3609C224.967 23.3485 217.781 23.3485 210.583 23.3485C210.418 23.3485 210.254 23.3236 210.089 23.3112C208.09 23.0752 207.407 22.2431 207.926 20.3181C208.748 17.3002 209.748 14.3195 210.646 11.314C210.823 10.7427 210.962 10.1465 211 9.5628C211.063 8.50715 210.557 7.84891 209.52 7.5881C208.963 7.45149 208.369 7.38939 207.787 7.38939C203.068 7.37697 198.349 7.37697 193.617 7.37697C193.339 7.38939 193.035 7.38939 192.63 7.38939Z" fill="url(#paint2_linear_6_146)"/>
<path d="M172.123 38.0285C172.882 35.5694 173.59 33.2594 174.349 30.9618C174.412 30.7879 174.881 30.6513 175.159 30.6513C178.069 30.6264 180.991 30.6388 183.901 30.6388C187.962 30.6388 192.011 30.6388 196.072 30.6388C199.197 30.6388 199.956 31.6448 199.032 34.6007C198.184 37.333 197.324 40.0652 196.489 42.7975C195.654 45.4926 196.502 46.6103 199.374 46.6103C204.093 46.6103 208.812 46.6103 213.543 46.6103C213.847 46.6103 214.151 46.6103 214.517 46.6103C214.479 46.8215 214.479 46.9705 214.442 47.1195C213.784 49.2308 213.113 51.3297 212.481 53.4411C212.354 53.8633 212.164 53.9875 211.734 53.9875C207.205 53.9751 202.676 53.9999 198.159 53.9627C197.451 53.9627 196.717 53.7888 196.046 53.5653C193.832 52.8077 192.997 50.9199 193.744 48.3491C194.414 46.0515 195.148 43.7663 195.857 41.4687C196.704 38.7364 196.16 38.0285 193.212 38.0285C186.57 38.0285 179.941 38.0285 173.299 38.0285C172.945 38.0285 172.616 38.0285 172.123 38.0285Z" fill="url(#paint3_linear_6_146)"/>
<defs>
<linearGradient id="paint0_linear_6_146" x1="187.221" y1="23.6136" x2="225.788" y2="48.1383" gradientUnits="userSpaceOnUse">
<stop stop-color="#55B949"/>
<stop offset="0.0388" stop-color="#40B04C"/>
<stop offset="0.0929" stop-color="#29AA4E"/>
<stop offset="0.1691" stop-color="#13A74F"/>
<stop offset="0.3807" stop-color="#08A650"/>
<stop offset="0.4348" stop-color="#0F8F46"/>
<stop offset="0.5073" stop-color="#0E7B3D"/>
<stop offset="0.5883" stop-color="#0B6B36"/>
<stop offset="0.6811" stop-color="#086031"/>
<stop offset="0.796" stop-color="#075A2E"/>
<stop offset="1" stop-color="#06592D"/>
</linearGradient>
<linearGradient id="paint1_linear_6_146" x1="197.287" y1="19.0547" x2="235.651" y2="31.7618" gradientUnits="userSpaceOnUse">
<stop stop-color="#8AB1DE"/>
<stop offset="0.1168" stop-color="#8CB3DF"/>
<stop offset="0.1788" stop-color="#94B7E1"/>
<stop offset="0.2277" stop-color="#A0BFE5"/>
<stop offset="0.2698" stop-color="#B3CBEA"/>
<stop offset="0.2719" stop-color="#B4CCEA"/>
<stop offset="0.34" stop-color="#91B3DF"/>
<stop offset="0.4134" stop-color="#74A1D5"/>
<stop offset="0.4935" stop-color="#5B93CE"/>
<stop offset="0.5811" stop-color="#4589C8"/>
<stop offset="0.6802" stop-color="#3282C4"/>
<stop offset="0.8003" stop-color="#247EC2"/>
<stop offset="1" stop-color="#1E7DC2"/>
</linearGradient>
<linearGradient id="paint2_linear_6_146" x1="200.699" y1="8.75181" x2="239.063" y2="21.4589" gradientUnits="userSpaceOnUse">
<stop stop-color="#8AB1DE"/>
<stop offset="0.1168" stop-color="#8CB3DF"/>
<stop offset="0.1788" stop-color="#94B7E1"/>
<stop offset="0.2277" stop-color="#A0BFE5"/>
<stop offset="0.2698" stop-color="#B3CBEA"/>
<stop offset="0.2719" stop-color="#B4CCEA"/>
<stop offset="0.34" stop-color="#91B3DF"/>
<stop offset="0.4134" stop-color="#74A1D5"/>
<stop offset="0.4935" stop-color="#5B93CE"/>
<stop offset="0.5811" stop-color="#4589C8"/>
<stop offset="0.6802" stop-color="#3282C4"/>
<stop offset="0.8003" stop-color="#247EC2"/>
<stop offset="1" stop-color="#1E7DC2"/>
</linearGradient>
<linearGradient id="paint3_linear_6_146" x1="182.959" y1="37.0872" x2="225.843" y2="53.2828" gradientUnits="userSpaceOnUse">
<stop stop-color="#55B949"/>
<stop offset="0.0388" stop-color="#40B04C"/>
<stop offset="0.0929" stop-color="#29AA4E"/>
<stop offset="0.1691" stop-color="#13A74F"/>
<stop offset="0.3807" stop-color="#08A650"/>
<stop offset="0.4348" stop-color="#0F8F46"/>
<stop offset="0.5073" stop-color="#0E7B3D"/>
<stop offset="0.5883" stop-color="#0B6B36"/>
<stop offset="0.6811" stop-color="#086031"/>
<stop offset="0.796" stop-color="#075A2E"/>
<stop offset="1" stop-color="#06592D"/>
</linearGradient>
</defs>
</svg>
