<svg width="36" height="36" viewBox="0 0 36 36" fill="none" xmlns="http://www.w3.org/2000/svg">
<circle cx="17.9102" cy="17.9102" r="17.9102" fill="#0B7CC1"/>
<g clip-path="url(#clip0_18_30)">
<path d="M20.3396 11.432H15.481C13.2453 11.432 11.4321 13.2452 11.4321 15.4809V20.3395C11.4321 22.5752 13.2453 24.3883 15.481 24.3883H20.3396C22.5753 24.3883 24.3884 22.5752 24.3884 20.3395V15.4809C24.3884 13.2452 22.5753 11.432 20.3396 11.432ZM23.1738 20.3395C23.1738 21.9024 21.9024 23.1737 20.3396 23.1737H15.481C13.9181 23.1737 12.6468 21.9024 12.6468 20.3395V15.4809C12.6468 13.918 13.9181 12.6467 15.481 12.6467H20.3396C21.9024 12.6467 23.1738 13.918 23.1738 15.4809V20.3395Z" fill="#0B7CC1"/>
<path d="M17.9102 14.6711C16.1214 14.6711 14.6711 16.1214 14.6711 17.9102C14.6711 19.699 16.1214 21.1493 17.9102 21.1493C19.6991 21.1493 21.1493 19.699 21.1493 17.9102C21.1493 16.1214 19.6991 14.6711 17.9102 14.6711ZM17.9102 19.9346C16.7943 19.9346 15.8858 19.0262 15.8858 17.9102C15.8858 16.7935 16.7943 15.8858 17.9102 15.8858C19.0262 15.8858 19.9346 16.7935 19.9346 17.9102C19.9346 19.0262 19.0262 19.9346 17.9102 19.9346Z" fill="#0B7CC1"/>
<path d="M21.3922 14.8598C21.6306 14.8598 21.8239 14.6666 21.8239 14.4281C21.8239 14.1897 21.6306 13.9964 21.3922 13.9964C21.1537 13.9964 20.9604 14.1897 20.9604 14.4281C20.9604 14.6666 21.1537 14.8598 21.3922 14.8598Z" fill="#0B7CC1"/>
</g>
<circle cx="17.1481" cy="17.9102" r="17.1481" fill="#0B7CC1"/>
<path d="M27.3009 13.7379C27.066 13.5456 26.1529 13.5697 25.2398 13.5697C24.3267 13.5697 23.3874 13.5697 23.1787 13.6658C22.97 13.7379 22.5265 14.7236 21.9525 15.7333C21.3003 16.8872 20.4915 17.969 19.9958 17.969C19.3436 17.969 19.5001 16.0699 19.5262 14.6996C19.5523 13.786 19.3957 13.4975 19.2392 13.4014C18.9 13.185 17.9347 12.9686 17.9347 12.9686C17.9347 12.9686 15.0649 12.7763 14.6735 13.9062C15.2214 13.9783 16.1606 13.8101 15.7954 17.344C15.7693 17.5123 15.3519 18.9787 14.0213 17.0074C13.6821 16.5266 12.4038 13.5697 11.9602 13.5697C10.4731 13.5216 9.01212 13.4735 8.49033 13.7379C8.02071 13.9783 9.14256 16.0218 11.021 18.7383C12.5603 20.9501 14.1778 22.705 16.9955 23.1377C17.5173 23.1858 18.9 23.2339 19.3436 23.0416C19.6305 22.8973 19.2914 20.9741 20.2828 20.8058C20.7263 20.7337 22.4482 22.8012 23.1004 23.0416C23.4918 23.1858 24.3527 23.2339 25.2398 23.2099C26.2051 23.1858 27.2748 23.282 27.3791 22.681C27.6139 21.3587 24.4832 19.6278 24.3788 18.8105C24.3006 18.2335 25.5268 17.1276 26.1529 16.3103C26.9356 15.3246 27.7705 14.0985 27.3009 13.7379Z" fill="white"/>
<defs>
<clipPath id="clip0_18_30">
<rect width="12.9563" height="12.9563" fill="white" transform="translate(11.4321 11.432)"/>
</clipPath>
</defs>
</svg>
