<svg width="96" height="32" viewBox="0 0 96 32" fill="none" xmlns="http://www.w3.org/2000/svg"><g clip-path="url(#a)"><path d="M19.609 14.237a.279.279 0 0 1-.12-.18.266.266 0 0 1 .05-.21 8.512 8.512 0 0 0 1.723-5.134 8.594 8.594 0 0 0-2.637-6.17 9.146 9.146 0 0 0-6.364-2.555H1.148C.843-.012.55.105.336.314A1.096 1.096 0 0 0 0 1.1v5.535c0 .29.116.567.323.775.208.207.49.329.788.338l3.047.095a.625.625 0 0 0 .356-.094.596.596 0 0 0 .235-.274c.26-.637.716-1.18 1.305-1.559a3.539 3.539 0 0 1 1.99-.556l6.385.122a.712.712 0 0 1 .496.218.67.67 0 0 1 .18.498.687.687 0 0 1-.237.453.729.729 0 0 1-.493.175H8.89a.627.627 0 0 0-.391.127.594.594 0 0 0-.22.339.565.565 0 0 0 .122.479.598.598 0 0 0 .459.215l5.56.051a.704.704 0 0 1 .486.2.661.661 0 0 1 0 .945.703.703 0 0 1-.485.2l-5.561.051a.61.61 0 0 0-.42.173.573.573 0 0 0-.128.631.58.58 0 0 0 .325.315.623.623 0 0 0 .23.044h5.507a.732.732 0 0 1 .492.175.69.69 0 0 1 .24.453.654.654 0 0 1-.181.498.694.694 0 0 1-.496.218l-6.385.122a3.539 3.539 0 0 1-1.99-.556A3.377 3.377 0 0 1 4.75 9.95a.599.599 0 0 0-.236-.274.627.627 0 0 0-.355-.094l-3.047.095c-.298.01-.58.131-.788.339A1.096 1.096 0 0 0 0 10.79v9.262c0 .29.116.567.323.775.208.207.49.329.788.338l3.679.115a.703.703 0 0 0 .39-.102.672.672 0 0 0 .264-.297 3.532 3.532 0 0 1 1.332-1.537 3.695 3.695 0 0 1 1.984-.576c2.357 0 7.32.504 7.32 3.504s-4.963 3.503-7.32 3.503a3.695 3.695 0 0 1-2.014-.594 3.528 3.528 0 0 1-1.33-1.582.67.67 0 0 0-.263-.306.7.7 0 0 0-.396-.106l-3.648.114c-.297.01-.58.13-.787.338a1.094 1.094 0 0 0-.322.775v6.455c0 .295.12.578.336.787.215.208.507.326.812.326h12.837c2.656 0 5.204-1.023 7.082-2.844C22.945 27.317 24 24.848 24 22.272a9.464 9.464 0 0 0-1.164-4.547 9.809 9.809 0 0 0-3.227-3.488z" fill="#FF5F5F"/></g><path d="M33.44 25.28c-1.419 0-2.576-.383-3.472-1.148-.896-.765-1.344-2.025-1.344-3.78V11h4.76v8.232c0 .896.177 1.521.532 1.876.355.355.859.532 1.512.532a2.28 2.28 0 0 0 1.708-.728c.485-.504.728-1.307.728-2.408V11h4.76v14h-4.256l-.14-2.632c-.448.99-1.073 1.727-1.876 2.212-.803.467-1.773.7-2.912.7zM55.732 11v3.388h-3.976V25h-4.76V14.388h-2.24V11h2.24V9.712c0-1.195.252-2.156.756-2.884a4.475 4.475 0 0 1 2.044-1.624 7.19 7.19 0 0 1 2.772-.532c.765 0 1.437.084 2.016.252.579.15 1.008.327 1.288.532l-.476 2.968a3.42 3.42 0 0 0-.7-.28c-.261-.093-.588-.14-.98-.14-.672 0-1.213.15-1.624.448-.41.299-.616.821-.616 1.568V11h4.256zm11.256 0v3.388h-3.976V25h-4.76V14.388h-2.24V11h2.24V9.712c0-1.195.252-2.156.756-2.884a4.475 4.475 0 0 1 2.044-1.624 7.19 7.19 0 0 1 2.772-.532c.765 0 1.437.084 2.016.252.579.15 1.008.327 1.288.532l-.476 2.968a3.42 3.42 0 0 0-.7-.28c-.261-.093-.588-.14-.98-.14-.672 0-1.213.15-1.624.448-.41.299-.616.821-.616 1.568V11h4.256zm8.61 14.28c-2.333 0-4.18-.635-5.543-1.904-1.344-1.27-2.016-3.061-2.016-5.376 0-1.53.308-2.837.924-3.92.634-1.101 1.493-1.932 2.576-2.492 1.1-.579 2.38-.868 3.836-.868 1.474 0 2.725.29 3.752.868 1.045.56 1.838 1.344 2.38 2.352.54.99.812 2.128.812 3.416 0 .355-.02.7-.056 1.036-.02.317-.038.588-.056.812h-9.548c.13.97.448 1.67.952 2.1.504.41 1.166.616 1.988.616.709 0 1.269-.14 1.68-.42.429-.28.746-.672.952-1.176l3.808 1.26a4.47 4.47 0 0 1-1.372 2.044c-.635.541-1.4.952-2.296 1.232-.878.28-1.802.42-2.772.42zm-.223-11.228c-1.512 0-2.408.868-2.688 2.604h5.124c-.206-1.736-1.018-2.604-2.436-2.604zM94.84 11v3.388h-4.17v5.628c0 .672.159 1.157.476 1.456.336.28.794.42 1.372.42.448 0 .831-.047 1.148-.14.318-.112.616-.27.896-.476l.504 2.94c-.466.317-1.064.579-1.792.784a8.42 8.42 0 0 1-2.156.28c-1.605 0-2.874-.336-3.808-1.008-.914-.69-1.381-1.848-1.4-3.472v-6.412h-2.408V11h2.408V7.864l4.76-1.316V11h4.172z" fill="#282A32"/><defs><clipPath id="a"><path fill="#fff" d="M0 0h24v32H0z"/></clipPath></defs></svg>