<svg width="540" height="39" viewBox="0 0 540 39" fill="none" xmlns="http://www.w3.org/2000/svg"><path d="M9.196 24.44c0 1.616-.446 2.852-1.337 3.71-.892.852-2.176 1.279-3.853 1.279H1.284v-9.79h3.008c1.548 0 2.752.419 3.613 1.258.86.84 1.291 2.02 1.291 3.543zm-1.677.053c0-2.343-1.089-3.515-3.267-3.515H2.875v7.104h1.13c2.343 0 3.514-1.196 3.514-3.589zm6.82 5.07c-1.144 0-2.04-.335-2.688-1.005-.643-.674-.964-1.6-.964-2.779 0-1.21.299-2.16.898-2.853.599-.692 1.422-1.038 2.469-1.038.971 0 1.739.297 2.302.891.563.594.845 1.41.845 2.45v.851h-4.904c.022.72.215 1.273.579 1.661.364.384.876.576 1.537.576.435 0 .838-.04 1.211-.12.377-.085.78-.224 1.211-.416v1.28a4.776 4.776 0 0 1-1.158.388c-.39.075-.836.113-1.337.113zm-.285-6.483c-.497 0-.897.159-1.198.476-.297.317-.475.779-.533 1.386h3.34c-.008-.612-.154-1.074-.438-1.386-.284-.317-.675-.476-1.171-.476zm9.868 4.24c0 .722-.262 1.278-.785 1.667-.524.384-1.274.575-2.25.575-.98 0-1.767-.15-2.362-.448v-1.36c.865.402 1.67.603 2.416.603.962 0 1.444-.292 1.444-.877a.697.697 0 0 0-.16-.469c-.107-.125-.282-.254-.526-.388a9.029 9.029 0 0 0-1.018-.456c-.847-.33-1.422-.66-1.723-.99-.297-.331-.446-.76-.446-1.286 0-.634.253-1.125.758-1.474.51-.352 1.203-.529 2.076-.529a5.84 5.84 0 0 1 2.456.53l-.506 1.185c-.794-.33-1.462-.496-2.003-.496-.825 0-1.237.237-1.237.71 0 .232.106.428.319.59.217.16.688.38 1.41.662.608.237 1.05.453 1.325.65.275.196.479.424.612.683.133.254.2.56.2.917zm3.26 2.108H25.62v-7.406h1.563v7.407zm-1.657-9.368c0-.281.076-.497.227-.65.155-.151.375-.227.658-.227.275 0 .488.076.64.228.154.151.232.368.232.65 0 .267-.078.48-.233.635-.15.152-.364.228-.639.228-.284 0-.503-.076-.658-.228-.151-.156-.227-.368-.227-.636zm10.115 1.962v.864l-1.258.235a2.275 2.275 0 0 1 .399 1.298c0 .764-.261 1.364-.785 1.802-.523.437-1.244.656-2.163.656-.235 0-.447-.018-.638-.053-.337.21-.506.455-.506.736 0 .17.078.297.233.382.16.085.45.127.872.127h1.284c.812 0 1.428.174 1.85.522.421.349.632.85.632 1.507 0 .84-.344 1.487-1.032 1.942-.687.456-1.68.683-2.98.683-1.003 0-1.768-.178-2.296-.535-.528-.358-.792-.867-.792-1.527 0-.456.142-.84.426-1.152.288-.308.69-.522 1.204-.643a1.206 1.206 0 0 1-.519-.428 1.126 1.126 0 0 1-.2-.63c0-.277.078-.511.233-.703.156-.192.386-.382.692-.57a2.079 2.079 0 0 1-.931-.803c-.235-.375-.353-.812-.353-1.313 0-.803.25-1.426.752-1.868.506-.442 1.224-.663 2.156-.663a4.8 4.8 0 0 1 .652.047c.23.027.404.056.52.087h2.548zm-5.783 8.558c0 .34.151.6.453.784.306.183.734.274 1.284.274.852 0 1.486-.122 1.903-.368.417-.245.626-.571.626-.978 0-.321-.116-.551-.346-.69-.227-.133-.65-.2-1.271-.2H31.32c-.448 0-.805.105-1.071.314-.262.215-.393.503-.393.864zm.672-6.16c0 .464.118.821.353 1.071.24.25.581.375 1.025.375.905 0 1.357-.487 1.357-1.46 0-.482-.113-.852-.34-1.111-.221-.264-.56-.396-1.017-.396-.453 0-.797.13-1.032.389-.23.259-.346.636-.346 1.131zm12.956 5.008h-1.57v-4.553c0-.572-.116-.998-.346-1.28-.227-.28-.588-.421-1.085-.421-.661 0-1.145.197-1.45.59-.307.392-.46 1.05-.46 1.975v3.69h-1.563v-7.407h1.224l.22.971h.08a2.18 2.18 0 0 1 .944-.817c.408-.192.86-.288 1.358-.288 1.765 0 2.648.904 2.648 2.712v4.828zm5.39.134c-1.145 0-2.04-.334-2.688-1.004-.644-.674-.965-1.6-.965-2.779 0-1.21.3-2.16.898-2.853.599-.692 1.422-1.038 2.469-1.038.971 0 1.739.297 2.302.891.564.594.845 1.41.845 2.45v.851h-4.904c.022.72.215 1.273.579 1.661.364.384.876.576 1.537.576.435 0 .838-.04 1.211-.12a6.5 6.5 0 0 0 1.211-.416v1.28a4.776 4.776 0 0 1-1.158.388c-.39.075-.836.113-1.337.113zm-.286-6.482c-.497 0-.896.159-1.198.476-.297.317-.475.779-.532 1.386h3.34c-.009-.612-.155-1.074-.44-1.386-.283-.317-.673-.476-1.17-.476zm7.406 6.482c-.918 0-1.635-.334-2.15-1.004-.514-.67-.771-1.61-.771-2.82 0-1.213.26-2.158.778-2.832.524-.678 1.247-1.018 2.17-1.018.967 0 1.703.36 2.209 1.078h.08a9.491 9.491 0 0 1-.114-1.259V19.01h1.57v10.42h-1.224l-.272-.971h-.074c-.5.736-1.235 1.104-2.202 1.104zm.42-1.272c.642 0 1.11-.18 1.403-.542.293-.366.444-.958.453-1.775v-.22c0-.934-.151-1.597-.453-1.99-.302-.393-.774-.589-1.417-.589-.55 0-.974.226-1.271.676-.297.447-.446 1.085-.446 1.916 0 .821.144 1.448.433 1.881.288.429.72.643 1.297.643zm12.888-6.402c.919 0 1.633.335 2.143 1.005.514.67.772 1.61.772 2.819 0 1.214-.26 2.16-.779 2.84-.519.673-1.24 1.01-2.162 1.01-.932 0-1.655-.337-2.17-1.01h-.106l-.286.877h-1.171v-10.42h1.563v2.478c0 .183-.009.455-.026.817a23.69 23.69 0 0 1-.04.69h.066c.497-.737 1.23-1.106 2.196-1.106zm-.406 1.286c-.63 0-1.084.188-1.364.563-.275.37-.417.993-.426 1.868v.107c0 .902.142 1.556.426 1.962.284.402.748.603 1.39.603.555 0 .975-.221 1.258-.663.289-.442.433-1.08.433-1.915 0-1.683-.572-2.525-1.717-2.525zm4.02-1.152h1.703l1.497 4.199c.226.598.377 1.16.453 1.688h.053c.04-.246.113-.543.22-.891.106-.353.67-2.018 1.69-4.996h1.69l-3.148 8.39c-.572 1.541-1.526 2.311-2.861 2.311-.346 0-.683-.038-1.011-.114v-1.245c.235.053.503.08.805.08.754 0 1.284-.44 1.59-1.32l.273-.695-2.954-7.407zm15.697 7.54c-.932 0-1.655-.337-2.17-1.01h-.093c.063.624.093 1.004.093 1.138v3.033h-1.563v-10.7h1.264c.035.138.108.468.22.99h.08c.487-.75 1.219-1.125 2.195-1.125.918 0 1.633.335 2.143 1.005.514.67.772 1.61.772 2.819 0 1.21-.262 2.154-.786 2.833-.518.678-1.237 1.017-2.155 1.017zm-.38-6.388c-.62 0-1.075.183-1.364.55-.284.365-.426.95-.426 1.754v.234c0 .902.142 1.556.426 1.962.285.402.748.603 1.391.603.54 0 .958-.224 1.251-.67.293-.446.439-1.082.439-1.908 0-.83-.146-1.458-.439-1.882-.289-.429-.714-.643-1.277-.643zm9.742 6.255l-.313-1.032h-.052c-.356.451-.713.76-1.072.924-.36.161-.821.241-1.384.241-.723 0-1.289-.196-1.697-.589-.403-.393-.605-.948-.605-1.667 0-.764.28-1.34.845-1.728.563-.388 1.421-.6 2.574-.636l1.271-.04v-.395c0-.474-.11-.826-.332-1.058-.217-.237-.557-.355-1.018-.355-.377 0-.74.055-1.085.167a8.167 8.167 0 0 0-.998.395l-.506-1.125c.4-.21.836-.368 1.312-.475a5.879 5.879 0 0 1 1.344-.168c.936 0 1.64.206 2.115.616.479.411.72 1.056.72 1.936v4.988h-1.12zm-2.329-1.072c.568 0 1.022-.158 1.364-.475.347-.322.52-.77.52-1.346v-.643l-.946.04c-.736.027-1.272.152-1.61.375-.333.219-.499.556-.499 1.011 0 .33.097.587.293.77.195.179.488.268.878.268zm9.362-6.469c.316 0 .575.023.779.067l-.153 1.467a2.946 2.946 0 0 0-.692-.08c-.625 0-1.134.205-1.524.616-.386.41-.579.944-.579 1.6v3.87h-1.564v-7.406h1.225l.206 1.306h.08c.244-.442.562-.792.952-1.051a2.272 2.272 0 0 1 1.27-.389zm5.364 7.674c-1.145 0-2.041-.334-2.688-1.004-.644-.674-.965-1.6-.965-2.779 0-1.21.299-2.16.898-2.853.599-.692 1.422-1.038 2.469-1.038.972 0 1.739.297 2.302.891.564.594.845 1.41.845 2.45v.851h-4.904c.023.72.215 1.273.579 1.661.363.384.876.576 1.537.576.434 0 .838-.04 1.211-.12.377-.085.78-.224 1.211-.416v1.28a4.763 4.763 0 0 1-1.158.388 7.05 7.05 0 0 1-1.337.113zm-.286-6.482c-.497 0-.896.159-1.198.476-.297.317-.475.779-.532 1.386h3.34c-.009-.612-.156-1.074-.439-1.386-.284-.317-.675-.476-1.171-.476zm11.398 6.349h-1.57v-4.554c0-.572-.115-.998-.346-1.28-.227-.28-.588-.421-1.085-.421-.661 0-1.144.197-1.451.59-.305.392-.459 1.05-.459 1.975v3.69h-1.563v-7.407h1.224l.22.971h.079a2.19 2.19 0 0 1 .946-.817c.408-.192.86-.288 1.357-.288 1.765 0 2.648.904 2.648 2.712v4.828zm4.918-1.139c.381 0 .763-.06 1.144-.18v1.185a3.03 3.03 0 0 1-.672.187c-.271.054-.553.08-.845.08-1.482 0-2.223-.785-2.223-2.357v-3.99h-1.004v-.697l1.078-.576.532-1.567h.965v1.647h2.096v1.192h-2.096v3.965c0 .379.093.66.279.843.191.179.44.268.746.268zm7.565-.97c0 .722-.261 1.278-.785 1.667-.523.384-1.273.575-2.248.575-.981 0-1.769-.15-2.363-.448v-1.36c.865.402 1.67.603 2.415.603.963 0 1.444-.292 1.444-.877a.7.7 0 0 0-.159-.469c-.107-.125-.282-.254-.526-.388a9.01 9.01 0 0 0-1.018-.456c-.847-.33-1.422-.66-1.723-.99-.298-.331-.446-.76-.446-1.286 0-.634.252-1.125.758-1.474.51-.352 1.203-.529 2.077-.529a5.83 5.83 0 0 1 2.454.53l-.505 1.185c-.794-.33-1.461-.496-2.003-.496-.825 0-1.238.237-1.238.71 0 .232.107.428.32.59.217.16.687.38 1.41.662.608.237 1.05.453 1.325.65.275.196.478.424.612.683.133.254.199.56.199.917zm40.165-4.722c0 1.023-.332 1.806-.998 2.35-.666.545-1.613.818-2.841.818h-1.012v3.663h-1.59v-9.79h2.801c1.216 0 2.126.25 2.729.75.608.5.911 1.236.911 2.21zm-4.851 1.822h.845c.817 0 1.416-.143 1.797-.429.381-.286.572-.732.572-1.34 0-.562-.17-.981-.512-1.258-.342-.277-.874-.415-1.597-.415h-1.105v3.441zm10.361-2.532c.315 0 .575.023.778.067l-.153 1.467a2.94 2.94 0 0 0-.692-.08c-.625 0-1.133.205-1.523.616-.386.41-.58.944-.58 1.6v3.87h-1.563v-7.406h1.224l.207 1.306h.08c.243-.442.561-.792.951-1.051a2.275 2.275 0 0 1 1.271-.389zm5.363 7.674c-1.145 0-2.041-.334-2.688-1.004-.644-.674-.965-1.6-.965-2.779 0-1.21.299-2.16.899-2.853.598-.692 1.421-1.038 2.468-1.038.972 0 1.739.297 2.302.891.564.594.845 1.41.845 2.45v.851h-4.904c.023.72.215 1.273.579 1.661.364.384.876.576 1.537.576.435 0 .838-.04 1.212-.12.376-.085.78-.224 1.211-.416v1.28a4.784 4.784 0 0 1-1.159.388 7.05 7.05 0 0 1-1.337.113zm-.286-6.482c-.497 0-.896.159-1.198.476-.297.317-.475.779-.532 1.386h3.341c-.01-.612-.156-1.074-.44-1.386-.284-.317-.674-.476-1.171-.476zm8.657 6.482c-.932 0-1.655-.337-2.169-1.01h-.093c.062.624.093 1.004.093 1.138v3.033h-1.564v-10.7h1.265c.035.138.108.468.219.99h.08c.488-.75 1.219-1.125 2.195-1.125.919 0 1.633.335 2.143 1.005.515.67.772 1.61.772 2.819 0 1.21-.261 2.154-.785 2.833-.519.678-1.238 1.017-2.156 1.017zm-.379-6.388c-.621 0-1.076.183-1.365.55-.283.365-.425.95-.425 1.754v.234c0 .902.142 1.556.425 1.962.285.402.748.603 1.391.603.541 0 .959-.224 1.252-.67.293-.446.438-1.082.438-1.908 0-.83-.145-1.458-.438-1.882-.289-.429-.715-.643-1.278-.643zm9.741 6.255l-.312-1.032h-.053c-.355.451-.712.76-1.072.924-.359.161-.821.241-1.384.241-.723 0-1.288-.196-1.696-.589-.404-.393-.606-.948-.606-1.667 0-.764.281-1.34.845-1.728.563-.388 1.422-.6 2.575-.636l1.271-.04v-.395c0-.474-.111-.826-.333-1.058-.217-.237-.557-.355-1.017-.355-.378 0-.74.055-1.086.167a8.253 8.253 0 0 0-.998.395l-.506-1.125c.4-.21.837-.368 1.312-.475a5.873 5.873 0 0 1 1.344-.168c.936 0 1.641.206 2.116.616.478.411.719 1.056.719 1.936v4.988h-1.119zm-2.328-1.072c.568 0 1.022-.158 1.363-.475.347-.322.52-.77.52-1.346v-.643l-.946.04c-.736.027-1.272.152-1.609.375-.333.219-.5.556-.5 1.011 0 .33.098.587.293.77.196.179.489.268.879.268zm9.362-6.469c.315 0 .575.023.778.067l-.153 1.467a2.933 2.933 0 0 0-.692-.08c-.625 0-1.133.205-1.523.616-.386.41-.579.944-.579 1.6v3.87h-1.564v-7.406h1.225l.206 1.306h.08c.243-.442.561-.792.951-1.051a2.275 2.275 0 0 1 1.271-.389zm5.363 7.674c-1.144 0-2.04-.334-2.688-1.004-.644-.674-.965-1.6-.965-2.779 0-1.21.299-2.16.899-2.853.599-.692 1.421-1.038 2.468-1.038.972 0 1.739.297 2.302.891.564.594.845 1.41.845 2.45v.851h-4.903c.022.72.214 1.273.578 1.661.364.384.877.576 1.538.576.434 0 .838-.04 1.211-.12.376-.085.78-.224 1.211-.416v1.28a4.784 4.784 0 0 1-1.159.388 7.05 7.05 0 0 1-1.337.113zm-.286-6.482c-.496 0-.896.159-1.197.476-.298.317-.476.779-.533 1.386h3.341c-.01-.612-.156-1.074-.44-1.386-.283-.317-.674-.476-1.171-.476zm7.406 6.482c-.918 0-1.635-.334-2.149-1.004-.514-.67-.772-1.61-.772-2.82 0-1.213.259-2.158.779-2.832.523-.678 1.246-1.018 2.169-1.018.967 0 1.704.36 2.209 1.078h.08a9.557 9.557 0 0 1-.113-1.259V19.01h1.57v10.42h-1.224l-.273-.971h-.073c-.501.736-1.235 1.104-2.203 1.104zm.42-1.272c.643 0 1.11-.18 1.403-.542.293-.366.444-.958.453-1.775v-.22c0-.934-.151-1.597-.453-1.99-.301-.393-.774-.589-1.417-.589-.55 0-.973.226-1.271.676-.297.447-.446 1.085-.446 1.916 0 .821.145 1.448.433 1.881.289.429.72.643 1.298.643zm12.888-6.402c.918 0 1.633.335 2.143 1.005.515.67.772 1.61.772 2.819 0 1.214-.259 2.16-.779 2.84-.518.673-1.24 1.01-2.162 1.01-.932 0-1.655-.337-2.169-1.01h-.107l-.286.877h-1.171v-10.42h1.564v2.478c0 .183-.009.455-.027.817a23.69 23.69 0 0 1-.04.69h.067c.497-.737 1.229-1.106 2.195-1.106zm-.405 1.286c-.63 0-1.085.188-1.365.563-.275.37-.416.993-.425 1.868v.107c0 .902.142 1.556.425 1.962.285.402.748.603 1.391.603.555 0 .974-.221 1.258-.663.288-.442.432-1.08.432-1.915 0-1.683-.571-2.525-1.716-2.525zm4.018-1.152h1.704l1.497 4.199a8 8 0 0 1 .453 1.688h.053c.04-.246.113-.543.22-.891.106-.353.669-2.018 1.69-4.996h1.69l-3.148 8.39c-.572 1.541-1.525 2.311-2.861 2.311a4.47 4.47 0 0 1-1.011-.114v-1.245c.235.053.504.08.805.08.754 0 1.285-.44 1.59-1.32l.273-.695-2.955-7.407zm14.706 6.268c.382 0 .764-.06 1.145-.18v1.185a3.03 3.03 0 0 1-.672.187c-.271.054-.553.08-.845.08-1.482 0-2.223-.785-2.223-2.357v-3.99h-1.004v-.697l1.077-.576.533-1.567h.965v1.647h2.096v1.192h-2.096v3.965c0 .379.093.66.279.843.191.179.44.268.745.268zm5.836 1.272c-1.144 0-2.04-.334-2.688-1.004-.643-.674-.965-1.6-.965-2.779 0-1.21.299-2.16.898-2.853.599-.692 1.423-1.038 2.469-1.038.971 0 1.739.297 2.303.891.563.594.844 1.41.844 2.45v.851h-4.904c.022.72.216 1.273.579 1.661.364.384.877.576 1.538.576.434 0 .838-.04 1.211-.12a6.51 6.51 0 0 0 1.21-.416v1.28a4.77 4.77 0 0 1-1.157.388 7.06 7.06 0 0 1-1.338.113zm-.286-6.482c-.497 0-.896.159-1.197.476-.297.317-.475.779-.533 1.386h3.34c-.008-.612-.155-1.074-.439-1.386-.284-.317-.674-.476-1.171-.476zm9.529 6.349l-.313-1.032h-.053c-.355.451-.712.76-1.071.924-.36.161-.821.241-1.384.241-.723 0-1.289-.196-1.697-.589-.404-.393-.606-.948-.606-1.667 0-.764.282-1.34.845-1.728.563-.388 1.422-.6 2.575-.636l1.271-.04v-.395c0-.474-.111-.826-.332-1.058-.217-.237-.557-.355-1.018-.355-.377 0-.739.055-1.085.167a8.125 8.125 0 0 0-.998.395l-.506-1.125c.399-.21.836-.368 1.311-.475a5.887 5.887 0 0 1 1.344-.168c.936 0 1.642.206 2.116.616.479.411.719 1.056.719 1.936v4.988h-1.118zm-2.329-1.072c.568 0 1.022-.158 1.364-.475.346-.322.519-.77.519-1.346v-.643l-.945.04c-.736.027-1.273.152-1.61.375-.333.219-.499.556-.499 1.011 0 .33.097.587.293.77.195.179.488.268.878.268zm8.597 1.205c-1.114 0-1.96-.326-2.542-.977-.577-.657-.865-1.596-.865-2.82 0-1.245.302-2.203.905-2.872.608-.67 1.484-1.005 2.629-1.005.776 0 1.475.145 2.096.436l-.473 1.265c-.661-.259-1.206-.388-1.637-.388-1.273 0-1.91.85-1.91 2.551 0 .83.158 1.456.473 1.875.319.415.785.623 1.398.623a3.98 3.98 0 0 0 1.976-.522V29.1c-.28.166-.579.284-.899.355a5.288 5.288 0 0 1-1.151.107zm10.254-.134h-1.57v-4.553c0-.572-.115-.998-.346-1.28-.227-.28-.588-.421-1.085-.421-.657 0-1.14.199-1.451.596-.305.393-.459 1.054-.459 1.982v3.677h-1.563v-10.42h1.563v2.645c0 .424-.026.877-.08 1.36h.101a2.17 2.17 0 0 1 .885-.831c.38-.197.824-.295 1.33-.295 1.784 0 2.675.904 2.675 2.712v4.828zm5.39.134c-1.144 0-2.041-.334-2.688-1.004-.644-.674-.965-1.6-.965-2.779 0-1.21.299-2.16.898-2.853.6-.692 1.422-1.038 2.469-1.038.971 0 1.739.297 2.302.891.563.594.845 1.41.845 2.45v.851h-4.904c.022.72.215 1.273.579 1.661.364.384.877.576 1.538.576.434 0 .838-.04 1.211-.12.376-.085.78-.224 1.211-.416v1.28a4.784 4.784 0 0 1-1.159.388 7.05 7.05 0 0 1-1.337.113zm-.286-6.482c-.496 0-.896.159-1.197.476-.298.317-.476.779-.533 1.386h3.34c-.009-.612-.155-1.074-.439-1.386-.283-.317-.674-.476-1.171-.476zm8.657-1.192c.315 0 .574.023.779.067l-.154 1.467a2.931 2.931 0 0 0-.691-.08c-.626 0-1.134.205-1.524.616-.386.41-.579.944-.579 1.6v3.87h-1.564v-7.406h1.225l.206 1.306h.08c.244-.442.56-.792.951-1.051a2.277 2.277 0 0 1 1.271-.389zm7.093 5.431c0 .723-.261 1.28-.785 1.668-.523.384-1.273.575-2.249.575-.98 0-1.768-.15-2.362-.448v-1.36c.865.402 1.67.603 2.415.603.963 0 1.444-.292 1.444-.877a.7.7 0 0 0-.159-.469c-.107-.125-.282-.254-.526-.388a9.01 9.01 0 0 0-1.018-.456c-.847-.33-1.422-.66-1.724-.99-.297-.331-.446-.76-.446-1.286 0-.634.253-1.125.759-1.474.51-.352 1.203-.529 2.077-.529a5.83 5.83 0 0 1 2.454.53l-.505 1.185c-.795-.33-1.461-.496-2.003-.496-.825 0-1.238.237-1.238.71 0 .232.107.428.32.59.217.16.687.38 1.41.662.608.237 1.05.453 1.325.65.275.196.478.424.612.683.133.254.199.56.199.917zm40.804 2.11v-9.79h1.591v8.417h4.118v1.372h-5.709zm13.747-3.717c0 1.21-.308 2.154-.925 2.833-.616.678-1.475 1.017-2.574 1.017-.689 0-1.296-.156-1.824-.468a3.094 3.094 0 0 1-1.218-1.346c-.284-.585-.426-1.264-.426-2.036 0-1.2.307-2.138.918-2.813.613-.674 1.476-1.01 2.589-1.01 1.064 0 1.908.345 2.529 1.037.621.688.931 1.616.931 2.786zm-5.356 0c0 1.71.628 2.565 1.883 2.565 1.242 0 1.863-.855 1.863-2.565 0-1.692-.625-2.538-1.877-2.538-.656 0-1.133.219-1.43.656-.293.438-.439 1.065-.439 1.882zm8.837 3.716l-2.795-7.406h1.65l1.497 4.306c.257.723.412 1.308.466 1.755h.053c.04-.322.195-.907.466-1.755l1.497-4.306h1.664l-2.809 7.407h-1.689zm8.83.134c-1.145 0-2.041-.334-2.689-1.004-.643-.674-.965-1.6-.965-2.779 0-1.21.3-2.16.899-2.853.599-.692 1.422-1.038 2.468-1.038.972 0 1.74.297 2.303.891.563.594.845 1.41.845 2.45v.851h-4.904c.022.72.215 1.273.578 1.661.364.384.877.576 1.538.576.434 0 .838-.04 1.211-.12a6.494 6.494 0 0 0 1.211-.416v1.28a4.763 4.763 0 0 1-1.158.388 7.05 7.05 0 0 1-1.337.113zm-.287-6.482c-.496 0-.896.159-1.197.476-.297.317-.475.779-.532 1.386h3.34c-.009-.612-.156-1.074-.439-1.386-.284-.317-.675-.476-1.172-.476zm7.406 6.482c-.918 0-1.634-.334-2.149-1.004-.514-.67-.771-1.61-.771-2.82 0-1.213.259-2.158.778-2.832.523-.678 1.246-1.018 2.169-1.018.967 0 1.704.36 2.209 1.078h.08a9.557 9.557 0 0 1-.113-1.259V19.01h1.57v10.42h-1.224l-.273-.971h-.073c-.501.736-1.235 1.104-2.203 1.104zm.42-1.272c.643 0 1.111-.18 1.404-.542.293-.366.444-.958.452-1.775v-.22c0-.934-.151-1.597-.452-1.99-.302-.393-.774-.589-1.418-.589-.55 0-.973.226-1.27.676-.298.447-.447 1.085-.447 1.916 0 .821.145 1.448.433 1.881.289.429.721.643 1.298.643zm12.889-6.402c.919 0 1.632.335 2.143 1.005.514.67.771 1.61.771 2.819 0 1.214-.259 2.16-.778 2.84-.519.673-1.24 1.01-2.163 1.01-.932 0-1.655-.337-2.169-1.01h-.107l-.286.877h-1.171v-10.42h1.564v2.478c0 .183-.009.455-.027.817-.017.361-.03.591-.04.69h.067c.497-.737 1.229-1.106 2.196-1.106zm-.406 1.286c-.63 0-1.085.188-1.364.563-.275.37-.417.993-.426 1.868v.107c0 .902.142 1.556.426 1.962.284.402.747.603 1.391.603.554 0 .973-.221 1.258-.663.287-.442.432-1.08.432-1.915 0-1.683-.572-2.525-1.717-2.525zm4.019-1.152h1.704l1.496 4.199c.227.598.378 1.16.454 1.688h.052a7.03 7.03 0 0 1 .22-.891c.107-.353.67-2.018 1.69-4.996h1.691l-3.148 8.39c-.572 1.541-1.526 2.311-2.861 2.311a4.47 4.47 0 0 1-1.011-.114v-1.245c.235.053.503.08.805.08.753 0 1.284-.44 1.59-1.32l.272-.695-2.954-7.407zm16.908 5.297c0 .723-.261 1.28-.785 1.668-.523.384-1.273.575-2.249.575-.98 0-1.768-.15-2.362-.448v-1.36c.865.402 1.67.603 2.415.603.963 0 1.445-.292 1.445-.877a.7.7 0 0 0-.16-.469c-.107-.125-.282-.254-.526-.388a9.01 9.01 0 0 0-1.018-.456c-.847-.33-1.422-.66-1.724-.99-.297-.331-.445-.76-.445-1.286 0-.634.253-1.125.758-1.474.51-.352 1.203-.529 2.076-.529.865 0 1.684.177 2.456.53l-.506 1.185c-.794-.33-1.461-.496-2.003-.496-.825 0-1.238.237-1.238.71 0 .232.107.428.32.59.217.16.687.38 1.41.662.608.237 1.049.453 1.325.65.275.196.479.424.612.683.133.254.199.56.199.917zm4.439.971c.381 0 .763-.06 1.144-.18v1.185a3.013 3.013 0 0 1-.672.187c-.27.054-.552.08-.845.08-1.482 0-2.223-.785-2.223-2.357v-3.99h-1.004v-.697l1.078-.576.532-1.567h.965v1.647h2.096v1.192h-2.096v3.965c0 .379.093.66.279.843.191.179.44.268.746.268zm7.812 1.139l-.22-.971h-.08a2.213 2.213 0 0 1-.931.81c-.399.196-.857.294-1.371.294-.892 0-1.557-.223-1.996-.67-.439-.446-.659-1.122-.659-2.028v-4.842h1.577v4.567c0 .567.115.994.346 1.28.231.28.592.421 1.084.421.657 0 1.138-.196 1.445-.59.31-.396.466-1.06.466-1.988v-3.69h1.57v7.407H426.4zm5.942.133c-.919 0-1.635-.334-2.149-1.004-.515-.67-.772-1.61-.772-2.82 0-1.213.26-2.158.778-2.832.524-.678 1.246-1.018 2.17-1.018.966 0 1.703.36 2.209 1.078h.079a9.524 9.524 0 0 1-.112-1.259V19.01h1.57v10.42h-1.224l-.274-.971h-.072c-.502.736-1.236 1.104-2.203 1.104zm.419-1.272c.643 0 1.111-.18 1.404-.542.293-.366.444-.958.452-1.775v-.22c0-.934-.15-1.597-.452-1.99-.301-.393-.774-.589-1.417-.589-.55 0-.974.226-1.271.676-.297.447-.446 1.085-.446 1.916 0 .821.144 1.448.432 1.881.289.429.722.643 1.298.643zm8.804 1.272c-1.145 0-2.041-.334-2.689-1.004-.643-.674-.964-1.6-.964-2.779 0-1.21.299-2.16.898-2.853.598-.692 1.422-1.038 2.469-1.038.971 0 1.738.297 2.302.891.563.594.845 1.41.845 2.45v.851h-4.904c.022.72.215 1.273.579 1.661.363.384.876.576 1.537.576.435 0 .838-.04 1.211-.12a6.494 6.494 0 0 0 1.211-.416v1.28a4.792 4.792 0 0 1-1.158.388 7.05 7.05 0 0 1-1.337.113zm-.286-6.482c-.498 0-.896.159-1.198.476-.297.317-.475.779-.533 1.386h3.341c-.009-.612-.155-1.074-.439-1.386-.285-.317-.675-.476-1.171-.476zm11.399 6.349h-1.571v-4.554c0-.572-.116-.998-.346-1.28-.226-.28-.588-.421-1.085-.421-.661 0-1.145.197-1.451.59-.305.392-.459 1.05-.459 1.975v3.69h-1.563v-7.407h1.224l.219.971h.08c.222-.352.537-.625.945-.817a3.154 3.154 0 0 1 1.358-.288c1.765 0 2.649.904 2.649 2.712v4.828zm4.917-1.139c.381 0 .763-.06 1.144-.18v1.185a3.03 3.03 0 0 1-.672.187 4.31 4.31 0 0 1-.845.08c-1.482 0-2.223-.785-2.223-2.357v-3.99h-1.005v-.697l1.079-.576.532-1.567h.965v1.647h2.096v1.192h-2.096v3.965c0 .379.093.66.279.843.191.179.44.268.746.268zm7.566-.97c0 .722-.262 1.278-.786 1.667-.524.384-1.273.575-2.249.575-.981 0-1.768-.15-2.362-.448v-1.36c.864.402 1.67.603 2.415.603.963 0 1.444-.292 1.444-.877a.7.7 0 0 0-.159-.469c-.107-.125-.282-.254-.526-.388a9.01 9.01 0 0 0-1.018-.456c-.848-.33-1.422-.66-1.723-.99-.298-.331-.447-.76-.447-1.286 0-.634.253-1.125.759-1.474.51-.352 1.202-.529 2.076-.529a5.83 5.83 0 0 1 2.455.53l-.505 1.185c-.794-.33-1.462-.496-2.003-.496-.825 0-1.237.237-1.237.71 0 .232.106.428.319.59.217.16.687.38 1.41.662.609.237 1.05.453 1.325.65.275.196.479.424.611.683.134.254.201.56.201.917zm15.936-22.267a2.755 2.755 0 0 1-.081.277 4.402 4.402 0 0 1-.138.353 2.772 2.772 0 0 1-.174.325.738.738 0 0 1-.171.216.228.228 0 0 0-.051.077l-.038.115c-.014.038-.026.079-.041.121a.466.466 0 0 1-.041.094.495.495 0 0 1-.1.115l-.141.113a4.006 4.006 0 0 0-.264.209c-.097.092-.196.19-.295.29-.095.103-.188.203-.277.302a.988.988 0 0 0-.074.087c-.033.043-.053.063-.062.062-.018.018-.037.026-.058.02a.105.105 0 0 0-.071.012.451.451 0 0 0-.149.09 3.318 3.318 0 0 1-.14.107.651.651 0 0 1-.149.09.288.288 0 0 1-.175.023 1.259 1.259 0 0 1-.284.266 5.638 5.638 0 0 1-.331.207 8.01 8.01 0 0 0-.339.206 1.234 1.234 0 0 0-.283.266.822.822 0 0 1-.202.017.279.279 0 0 0-.179.043 2.16 2.16 0 0 1-.208.104c-.074.03-.147.064-.219.102-.068.04-.135.085-.2.134a.696.696 0 0 0-.151.159c.092.061.187.11.288.146.106.037.211.067.315.09.108.025.217.047.326.066.11.016.217.035.321.058a1.4 1.4 0 0 1 .323.113c.102.05.209.094.318.133.063.023.13.04.201.05.074.013.148.027.222.043.108.025.212.057.312.098.104.041.212.07.322.085.024.056.057.113.098.173.046.06.087.122.123.185a.942.942 0 0 1 .095.192c.026.065.032.13.017.196a.465.465 0 0 1-.093.178 1.252 1.252 0 0 1-.359.332.627.627 0 0 1-.175.084.954.954 0 0 1-.239.002 3.536 3.536 0 0 1-.321-.03 9.174 9.174 0 0 1-.571-.1 10.967 10.967 0 0 1-.901-.241 10.667 10.667 0 0 0-1.195-.3c-.1-.018-.2-.038-.3-.06-.103-.024-.236-.05-.397-.082a9.22 9.22 0 0 1-.957-.24 1.227 1.227 0 0 1-.34-.158l-.018-.1-.098-.022a.54.54 0 0 1-.126-.172 1.411 1.411 0 0 0-.102-.187l-.091-.02.021-.092a.984.984 0 0 1-.08-.196.41.41 0 0 1-.002-.206.624.624 0 0 1 .079-.209c.038-.05.083-.11.135-.176a3.57 3.57 0 0 0 .108-.181.46.46 0 0 1 .151-.165l.084-.071a1.24 1.24 0 0 0 .085-.077.32.32 0 0 1 .159-.102.276.276 0 0 0 .16-.136 1.95 1.95 0 0 0 .596-.08c.196-.062.368-.163.517-.303a.354.354 0 0 0 .201-.017.736.736 0 0 0 .162-.088 3.95 3.95 0 0 0 .156-.116.478.478 0 0 1 .183-.09.476.476 0 0 1 .196.003.5.5 0 0 0 .204.004 3.58 3.58 0 0 1 .211-.124c.077-.038.149-.077.217-.117.072-.038.138-.083.2-.133a.877.877 0 0 0 .175-.18l.024.018a.175.175 0 0 0 .103-.004.364.364 0 0 0 .09-.042 1.367 1.367 0 0 1 .167-.107c.026-.012.049-.014.069-.005a.11.11 0 0 0 .071-.012l.056-.07a1.1 1.1 0 0 0 .228-.134 2.89 2.89 0 0 0 .282-.232c.092-.09.173-.177.242-.262a.512.512 0 0 0 .125-.226c.107-.054.223-.128.349-.224.129-.095.25-.2.363-.317.116-.12.217-.244.299-.372.088-.132.144-.261.167-.388l.015-.066c-.029-.034-.032-.087-.006-.159.025-.072.043-.132.053-.18a1 1 0 0 0 .023-.386 1.021 1.021 0 0 0-.075-.277 4.402 4.402 0 0 0-.105-.236.749.749 0 0 1-.047-.285 2.14 2.14 0 0 0-.284-.379 4.183 4.183 0 0 1-.152-.177 1.411 1.411 0 0 1-.127-.2l-.149-.095a3.31 3.31 0 0 0-.196-.133 3.083 3.083 0 0 0-.191-.124.553.553 0 0 0-.122-.062.938.938 0 0 0-.425.009c-.148.03-.28.084-.396.158a.822.822 0 0 0-.199.004.805.805 0 0 0-.178.036 6.812 6.812 0 0 0-.168.052.937.937 0 0 1-.19.026 1.19 1.19 0 0 0-.216.178c-.06.07-.122.14-.183.213a7.15 7.15 0 0 1-.178.221c-.056.07-.118.136-.186.199l-.013.059a.854.854 0 0 1-.093.233 1.024 1.024 0 0 0-.087.241.432.432 0 0 0-.008.129.693.693 0 0 0 .027.129c-.081.078-.154.18-.218.308a4.25 4.25 0 0 0-.165.41 4.847 4.847 0 0 0-.117.44 8.678 8.678 0 0 0-.065.39 1.22 1.22 0 0 0-.175.084 1.37 1.37 0 0 1-.168.08.703.703 0 0 1-.175.05.528.528 0 0 1-.195-.01 1.172 1.172 0 0 1-.103-.029 3.821 3.821 0 0 1-.123-.062 8.514 8.514 0 0 1-.115-.066.298.298 0 0 1-.072-.071c-.017-.027-.021-.05-.012-.072a.117.117 0 0 0 .003-.074l-.069-.057a3.532 3.532 0 0 1-.06-.164 2.247 2.247 0 0 1-.066-.412.627.627 0 0 1 .008-.163.615.615 0 0 1 .055-.153.615.615 0 0 0 .053-.152c.02-.088.034-.174.044-.258l.031-.268a.316.316 0 0 0 .112-.105.53.53 0 0 1 .113-.112.328.328 0 0 0 .009-.073.3.3 0 0 1 .008-.067c.009-.044.027-.1.05-.167.025-.073.052-.144.081-.216l.1-.204c.032-.066.062-.118.089-.158a2.38 2.38 0 0 1 .08-.113 137.917 137.917 0 0 0 .318-.395c.054-.057.085-.089.096-.096a.424.424 0 0 1 .103-.066.399.399 0 0 0 .098-.074.44.44 0 0 0 .073-.114 2.18 2.18 0 0 0 .063-.13c.019-.046.04-.09.062-.13a.505.505 0 0 1 .086-.111l.009-.04c.006-.026.018-.041.037-.046a.28.28 0 0 1 .066-.02.464.464 0 0 0 .07-.012c.021-.009.034-.027.04-.053.153-.098.303-.19.449-.277a1.06 1.06 0 0 1 .508-.14.405.405 0 0 1 .13-.006c.044.005.09.006.136.003a.81.81 0 0 0 .18-.043.907.907 0 0 1 .199-.037.358.358 0 0 1 .194.015.517.517 0 0 0 .201.018.457.457 0 0 0 .167-.046.213.213 0 0 1 .156-.027.1.1 0 0 1 .065.042.09.09 0 0 0 .059.04c.022.006.045-.005.069-.032.028-.026.055-.036.082-.03a.32.32 0 0 1 .117.054.323.323 0 0 0 .125.055c.073.016.148.028.223.036.076.008.151.02.224.036.134.03.252.074.352.133.102.055.198.115.287.18.095.068.187.136.276.206.093.071.197.135.312.193a1.2 1.2 0 0 0 .121.253l.194.297c.069.098.13.187.18.267a.535.535 0 0 1 .094.164.089.089 0 0 1-.005.054.171.171 0 0 0-.017.044l-.009.04.09.06a.39.39 0 0 1 .015.148c0 .041.015.086.045.134a.722.722 0 0 1 .066.13c.023.043.044.084.063.124a2.33 2.33 0 0 0-.04.458c.006.157.014.31.023.458.007.148.013.286.017.415a1.1 1.1 0 0 1-.016.319zm13.587 22.107c0 .16-.063.327-.188.502a2.263 2.263 0 0 1-.437.465c-.174.142-.361.26-.561.352a1.3 1.3 0 0 1-.537.138 2.55 2.55 0 0 1-.498-.05 2.34 2.34 0 0 0-.487-.05c-.183 0-.362.012-.537.037a3.41 3.41 0 0 1-.511.038.568.568 0 0 1-.2-.038.462.462 0 0 0-.186-.038c-.092 0-.155.034-.188.1-.025.06-.066.088-.125.088-.141 0-.312-.033-.511-.1a1.655 1.655 0 0 0-.587-.113c-.232 0-.453.034-.661.1a2.425 2.425 0 0 1-.661.088c-.416 0-.832-.025-1.248-.075a9.011 9.011 0 0 0-1.26-.088c-.1 0-.204.004-.312.013-.1.008-.199.012-.299.012a1.24 1.24 0 0 1-.512-.1 8.119 8.119 0 0 1-.461-.251 8.595 8.595 0 0 1-.075-1.13v-.364c.291-.335.623-.557.998-.666a4.36 4.36 0 0 1 1.222-.163c.092 0 .176.03.25.088a.5.5 0 0 0 .262.075.593.593 0 0 0 .212-.038.703.703 0 0 1 .225-.037c.124 0 .257.042.399.125a.89.89 0 0 0 .436.126.304.304 0 0 0 .175-.05.372.372 0 0 1 .187-.05c.075 0 .146.012.213.037a.553.553 0 0 0 .199.038c.1 0 .191-.017.275-.05a.828.828 0 0 1 .287-.05c.29 0 .57.037.836.112.266.076.54.113.823.113.142 0 .25-.008.325-.025.075-.016.162-.075.261-.176a.17.17 0 0 1 .125.05c.034.034.08.05.138.05.166 0 .336-.016.511-.05a2.89 2.89 0 0 1 .536-.05c.2 0 .387.026.562.076.183.05.378.075.586.075l.1.025.15.15c.091.043.179.085.262.127a.907.907 0 0 1 .237.125.54.54 0 0 1 .175.188c.05.076.075.172.075.29zm0-5.148c0 .16-.063.327-.188.503a2.551 2.551 0 0 1-.437.477 2.57 2.57 0 0 1-.561.351 1.3 1.3 0 0 1-.537.138c-.166 0-.332-.016-.498-.05a2.34 2.34 0 0 0-.487-.05 3.65 3.65 0 0 0-.537.038 3.397 3.397 0 0 1-.511.037.566.566 0 0 1-.2-.037.463.463 0 0 0-.186-.038c-.092 0-.155.03-.188.088-.025.058-.066.088-.125.088a1.65 1.65 0 0 1-.511-.1 1.812 1.812 0 0 0-.587-.101c-.232 0-.453.029-.661.088a2.43 2.43 0 0 1-.661.088c-.416 0-.832-.026-1.248-.076-.415-.05-.836-.075-1.26-.075-.1 0-.204.004-.312.012-.1.009-.199.013-.299.013-.192 0-.362-.038-.512-.113a8.119 8.119 0 0 1-.461-.251 8.594 8.594 0 0 1-.075-1.13v-.364c.291-.335.623-.553.998-.653a4.364 4.364 0 0 1 1.222-.163c.092 0 .176.025.25.075a.5.5 0 0 0 .262.075.593.593 0 0 0 .212-.037.705.705 0 0 1 .225-.038c.124 0 .257.042.399.126a.89.89 0 0 0 .436.125.304.304 0 0 0 .175-.05.372.372 0 0 1 .187-.05c.075 0 .146.012.213.037a.555.555 0 0 0 .199.038c.1 0 .191-.017.275-.05a.825.825 0 0 1 .287-.05c.29 0 .57.041.836.125.266.075.54.113.823.113.142 0 .25-.008.325-.025.075-.017.162-.08.261-.188.05 0 .092.016.125.05a.19.19 0 0 0 .138.05c.166 0 .336-.017.511-.05.175-.034.354-.05.536-.05.2 0 .387.025.562.075.183.05.378.075.586.075l.1.038.15.15c.091.042.179.08.262.114a.91.91 0 0 1 .237.125c.075.05.133.113.175.189a.51.51 0 0 1 .075.288zm43.684-15.483c.005.234-.05.436-.163.606-.113.17-.239.34-.377.51a6.444 6.444 0 0 0-.968.294 3.043 3.043 0 0 1-.995.183 2.066 2.066 0 0 1-.612-.076 1.7 1.7 0 0 0-.589-.09c-.15.004-.303.02-.461.047l-.46.085a7.79 7.79 0 0 1-.46.071 2.69 2.69 0 0 1-.449-.004.346.346 0 0 0-.108.254.88.88 0 0 0 .056.3.7.7 0 0 1 .067.287c.001.025-.011.055-.035.089a.255.255 0 0 0-.035.151.89.89 0 0 0 .082.35.934.934 0 0 1 .082.363 3.44 3.44 0 0 1-.028.49 2.85 2.85 0 0 0-.029.466c.002.142.018.28.045.413.028.125.042.259.045.401.008.393-.081.743-.267 1.048a3.177 3.177 0 0 1-.695.804 25.127 25.127 0 0 0-.69-.187 1.461 1.461 0 0 1-.619-.353 1.324 1.324 0 0 1-.15-.688c.011-.25.016-.485.011-.703a5.57 5.57 0 0 0-.092-.915 5.819 5.819 0 0 1-.092-.927c-.004-.16.006-.31.029-.453a2.65 2.65 0 0 0 .028-.453 1.187 1.187 0 0 0-.083-.438 1.379 1.379 0 0 0-.439-.117 4.176 4.176 0 0 0-.462-.016 8.078 8.078 0 0 0-.785.053c-.258.03-.515.048-.773.053a3.745 3.745 0 0 1-.988-.107 4.706 4.706 0 0 1-.93-.346 4.99 4.99 0 0 1-.198-.549 2.383 2.383 0 0 1-.086-.576c0-.067.006-.155.021-.264a.717.717 0 0 1 .082-.278c.032-.06.121-.136.27-.231.148-.095.308-.186.481-.273a6.84 6.84 0 0 1 .519-.249c.166-.07.281-.106.348-.107a.794.794 0 0 1 .275.045c.092.023.184.05.276.082.092.024.185.051.277.083.099.023.2.034.3.032.282-.006.56-.04.833-.104.282-.064.565-.074.849-.029a.96.96 0 0 0 .143-.367c.022-.134.031-.269.029-.402a3.817 3.817 0 0 0-.033-.427 7.514 7.514 0 0 1-.02-.401 3.396 3.396 0 0 1 .028-.503 3.4 3.4 0 0 0 .027-.503 1.236 1.236 0 0 0-.082-.438 1.405 1.405 0 0 1-.085-.463c-.003-.21.038-.436.125-.68a5.87 5.87 0 0 1 .262-.633c.1-.028.199-.067.297-.12.099-.051.199-.1.298-.143a3.03 3.03 0 0 1 .309-.132.74.74 0 0 1 .286-.068l.149-.003c.05 0 .096.007.138.023l.078.174a.46.46 0 0 0 .112-.015.36.36 0 0 1 .088-.014c.049-.001.117.069.203.21.094.132.184.285.271.459.095.174.177.344.246.51.07.158.106.266.107.324.003.168-.032.336-.103.505-.072.16-.119.32-.141.48-.014.1-.013.205.006.314.019.1.029.2.031.3.005.26-.023.52-.085.78-.062.261-.09.526-.085.793l.004.151a.63.63 0 0 0 .027.163c.092.023.184.042.276.057a3.856 3.856 0 0 0 1.047-.083.438.438 0 0 0 .16-.09c.058-.052.107-.078.148-.079a.594.594 0 0 1 .213.034.633.633 0 0 0 .226.033c.29-.006.586-.016.885-.03.307-.014.615-.024.923-.03.232-.005.462.016.687.062.226.046.435.138.63.277a9.3 9.3 0 0 1 .207.448c.07.14.106.307.11.5zm-8.925 25.807c.031.249.024.475-.021.677a2.753 2.753 0 0 1-.186.53c-.077.164-.168.33-.273.498a3.347 3.347 0 0 0-.243.579l-.294-.005c-.275.034-.547.09-.817.166-.27.076-.543.131-.818.166a1.98 1.98 0 0 1-.716-.037c-.217-.057-.397-.21-.539-.459a2.641 2.641 0 0 0-.609-.176 1.027 1.027 0 0 1-.552-.226l-.026-.208a.809.809 0 0 0-.25-.496 1.211 1.211 0 0 1-.312-.488 4.663 4.663 0 0 1-.248-1.15 37.63 37.63 0 0 0-.128-1.207 5.186 5.186 0 0 0-.23-1.004 19.28 19.28 0 0 0-.349-.947 34.31 34.31 0 0 1-.347-.948 4.048 4.048 0 0 1-.166-.991c-.6.005-1.191.023-1.775.054-.57.016-1.158.061-1.764.137-.508.065-1.021.157-1.537.278a5.109 5.109 0 0 0-1.441.54 3.023 3.023 0 0 0-.888-.226 3.83 3.83 0 0 0-.9.008c-.316.04-.593.117-.83.23a2.239 2.239 0 0 0-.062.852 2.9 2.9 0 0 1-.021.846.464.464 0 0 1-.111.288.38.38 0 0 0-.103.182.416.416 0 0 0 .008.231c.022.068.038.143.049.226.01.083-.035.222-.137.418-.087.194-.143.37-.165.527-.024.368-.017.761.02 1.178l.148 1.184a.36.36 0 0 0 .111.218.26.26 0 0 1 .105.176c.009.07-.071.27-.24.6-.17.317-.365.664-.583 1.043-.206.364-.403.69-.591.981-.185.305-.284.465-.296.48a.99.99 0 0 1-.263.076l-.248.031a3.03 3.03 0 0 1-1.446-.177 5.8 5.8 0 0 1-1.316-.636l-.036-.29a7.321 7.321 0 0 0-.216-1.07 14.593 14.593 0 0 0-.344-1.074 1.9 1.9 0 0 0 .276-.815c.022-.27.002-.549-.062-.836.107-.154.197-.278.268-.371.086-.095.152-.188.196-.278a.67.67 0 0 0 .068-.304 2.052 2.052 0 0 0-.016-.462l-.01-.083.258-.285a1.035 1.035 0 0 0-.052-.415 2.233 2.233 0 0 1-.095-.431.765.765 0 0 1 .007-.275l.238-.283a.445.445 0 0 0-.008-.231 1.47 1.47 0 0 1-.049-.226.222.222 0 0 1 .042-.174c.034-.06.076-.122.123-.184.049-.063.09-.124.125-.185a.314.314 0 0 0 .038-.194l-.01-.083a5.544 5.544 0 0 0-1.651.207c-.194-.102-.397-.21-.606-.324a5.202 5.202 0 0 1-.55-.374 2.012 2.012 0 0 1-.436-.473 1.475 1.475 0 0 1-.226-.646c-.058-.457-.011-.814.139-1.072a2.34 2.34 0 0 1 .567-.662 7.85 7.85 0 0 1 .769-.56c.285-.177.529-.411.73-.704l1.073-.134a4.56 4.56 0 0 0 .539-.89c.155-.33.266-.674.333-1.034.026-.13.03-.264.013-.402a1.257 1.257 0 0 1 .013-.402c.089-.293.223-.563.402-.81.177-.262.303-.544.377-.85.041-.23.033-.46-.024-.692a1.672 1.672 0 0 1-.023-.693 6.93 6.93 0 0 1 .289-1.049c.116-.31.224-.618.325-.926a5.35 5.35 0 0 0 .246-1.065c.049-.385.04-.848-.027-1.388a.338.338 0 0 0-.087-.2.345.345 0 0 1-.088-.2c-.011-.083.029-.214.119-.394.103-.182.168-.338.193-.468a.796.796 0 0 0-.054-.436 2.63 2.63 0 0 1-.098-.451c-.012-.097.037-.321.147-.673.108-.365.243-.747.402-1.147.159-.413.327-.8.506-1.16.177-.374.328-.625.451-.753a2.263 2.263 0 0 1 .068-.81c.067-.247.149-.482.248-.705.098-.224.202-.448.314-.673.112-.225.2-.468.266-.73a.43.43 0 0 0 .381-.3c.024-.031.064-.05.119-.057a5.02 5.02 0 0 1 .751-.031c.28.007.599-.012.956-.057.317-.04.629-.002.936.114.321.1.616.232.888.394.256.15.514.428.773.831.274.401.542.874.805 1.417.262.53.515 1.102.758 1.719.258.614.501 1.216.728 1.806.225.576.438 1.112.639 1.607.2.48.38.866.542 1.155.093.185.204.354.336.506.128.139.241.314.337.527.065.189.104.387.117.597a1.6 1.6 0 0 0 .159.612c.077.173.166.324.266.452.099.128.194.27.283.428.164.416.287.85.372 1.303.082.44.238.85.466 1.228.459.772.851 1.566 1.177 2.383.339.815.562 1.659.67 2.53.024.195.104.388.24.582.014.11.062.224.147.34.084.116.176.238.276.366.112.113.217.226.315.34.111.113.195.222.25.327.038.08.121.301.25.665.127.35.27.774.431 1.274a60.8 60.8 0 0 1 .536 1.62c.182.567.354 1.108.515 1.622.161.5.291.934.392 1.3.116.366.178.59.189.673zm-8.932-10.328a3.209 3.209 0 0 0-.244-.792 7.794 7.794 0 0 0-.384-.732c-.13-.251-.265-.501-.408-.75a6.15 6.15 0 0 1-.33-.802 5.252 5.252 0 0 1-.158-.93 2.91 2.91 0 0 0-.203-.965.982.982 0 0 0-.188-.335 2.296 2.296 0 0 0-.148-.171 2.797 2.797 0 0 1-.113-.24 2.31 2.31 0 0 1-.106-.513.655.655 0 0 0-.147-.34 3.988 3.988 0 0 0-.227-.309 3.573 3.573 0 0 1-.255-.368 1.629 1.629 0 0 1-.15-.53 1.23 1.23 0 0 1 .015-.381c.025-.144.043-.28.055-.408a3.597 3.597 0 0 1-.758-.706 5.618 5.618 0 0 0-.682-.758.395.395 0 0 0-.151.293 1.94 1.94 0 0 0 .01.42l.054.437a.954.954 0 0 1-.016.381.513.513 0 0 1-.211.322.831.831 0 0 0-.258.286c-.055.12-.094.25-.118.394a.446.446 0 0 1-.188.34l.154 1.246c-.27.414-.477.883-.622 1.407-.13.522-.231 1.062-.302 1.62a21.235 21.235 0 0 0-.105 1.679c-.002.549-.001 1.062.002 1.54a.466.466 0 0 0 .152.043l.145-.018c.234-.03.457-.086.67-.169.212-.097.434-.16.669-.19a11.944 11.944 0 0 1 1.748-.092.926.926 0 0 1 .413.116.834.834 0 0 0 .425.052.228.228 0 0 0 .158-.083.404.404 0 0 1 .239-.093c.221-.028.435.009.643.109.208.1.422.137.642.109a.666.666 0 0 0 .278-.12zM157.596 23.51a1.03 1.03 0 0 1-.132.614 6.764 6.764 0 0 1-.351.528c-.327.09-.645.205-.951.344a3.06 3.06 0 0 1-.985.233c-.215.016-.421 0-.616-.044a1.692 1.692 0 0 0-.592-.06 3.165 3.165 0 0 0-.458.071c-.147.036-.299.071-.455.108-.147.035-.3.067-.456.095a2.676 2.676 0 0 1-.449.019.354.354 0 0 0-.095.259.906.906 0 0 0 .071.297.677.677 0 0 1 .083.283.16.16 0 0 1-.032.09.253.253 0 0 0-.026.153.886.886 0 0 0 .099.346.923.923 0 0 1 .1.358c.011.167.01.33-.003.491a2.68 2.68 0 0 0 .061.877 2.2 2.2 0 0 1 .066.398c.027.392-.045.746-.214 1.06a3.2 3.2 0 0 1-.655.839c-.22-.052-.453-.102-.699-.152a1.454 1.454 0 0 1-.634-.32 1.32 1.32 0 0 1-.186-.68 10.196 10.196 0 0 0-.024-.703 5.41 5.41 0 0 0-.139-.909 5.917 5.917 0 0 1-.138-.921 2.53 2.53 0 0 1 .006-.454c.014-.143.017-.295.006-.453a1.182 1.182 0 0 0-.106-.433 1.372 1.372 0 0 0-.445-.095 4.15 4.15 0 0 0-.461.008 8.23 8.23 0 0 0-.782.093 8.021 8.021 0 0 1-.769.092 3.742 3.742 0 0 1-.992-.056 4.709 4.709 0 0 1-.947-.298 4.983 4.983 0 0 1-.225-.538 2.328 2.328 0 0 1-.115-.57 1.945 1.945 0 0 1 .007-.265.726.726 0 0 1 .068-.282c.029-.061.115-.143.258-.245a5.37 5.37 0 0 1 .467-.297c.176-.105.345-.197.506-.275.161-.079.275-.12.342-.125a.789.789 0 0 1 .277.03c.093.02.186.042.28.069.092.019.186.041.28.068.101.018.202.024.301.017.282-.02.558-.07.828-.147.278-.078.56-.102.845-.072a.964.964 0 0 0 .125-.374 2.27 2.27 0 0 0 .009-.404 3.586 3.586 0 0 0-.055-.424 7.372 7.372 0 0 1-.041-.4 3.39 3.39 0 0 1 .003-.503c.013-.169.014-.337.003-.504a1.25 1.25 0 0 0-.106-.433 1.395 1.395 0 0 1-.107-.458 1.908 1.908 0 0 1 .09-.686c.074-.249.151-.464.23-.646.098-.032.194-.076.29-.133.097-.058.193-.11.29-.16a3.32 3.32 0 0 1 .302-.147.738.738 0 0 1 .282-.082l.149-.011a.362.362 0 0 1 .139.015l.087.17a.462.462 0 0 0 .111-.02.364.364 0 0 1 .087-.019c.049-.003.121.063.213.199.101.127.199.276.294.445a5.7 5.7 0 0 1 .272.497c.077.154.118.26.123.318.012.167-.014.337-.077.51a1.753 1.753 0 0 0-.117.486c-.009.101-.001.206.022.313.024.099.04.199.046.299.018.259.003.52-.045.783a3.171 3.171 0 0 0-.045.797l.011.15c.004.05.015.104.036.16.093.02.186.034.278.044a3.835 3.835 0 0 0 1.041-.136.443.443 0 0 0 .156-.1c.055-.054.102-.082.144-.085a.595.595 0 0 1 .215.022c.068.02.143.028.226.022.291-.02.585-.045.883-.075.306-.03.613-.056.92-.078a3.17 3.17 0 0 1 .689.027c.228.034.443.116.643.244.086.154.162.3.23.437.077.137.121.302.135.494zm171.198.857a1.03 1.03 0 0 1-.132.614 6.492 6.492 0 0 1-.351.528c-.327.09-.644.205-.951.344-.308.13-.636.209-.985.233-.215.016-.42 0-.615-.044a1.695 1.695 0 0 0-.592-.06 3.178 3.178 0 0 0-.459.071c-.147.036-.299.072-.454.108a7.75 7.75 0 0 1-.457.095 2.686 2.686 0 0 1-.449.02.352.352 0 0 0-.094.258.88.88 0 0 0 .07.297.678.678 0 0 1 .083.283c.002.025-.009.055-.032.09a.253.253 0 0 0-.026.154.903.903 0 0 0 .099.345.906.906 0 0 1 .1.358c.011.167.011.33-.003.491a2.782 2.782 0 0 0-.005.466c.01.142.032.279.066.41.033.124.056.257.066.399.027.392-.044.746-.214 1.06a3.202 3.202 0 0 1-.655.839c-.22-.052-.453-.102-.698-.152a1.452 1.452 0 0 1-.635-.32 1.329 1.329 0 0 1-.186-.68c0-.251-.008-.485-.023-.703a5.622 5.622 0 0 0-.139-.909 5.806 5.806 0 0 1-.139-.921 2.62 2.62 0 0 1 .006-.454c.014-.143.017-.295.006-.453a1.181 1.181 0 0 0-.106-.433 1.363 1.363 0 0 0-.444-.095 4.124 4.124 0 0 0-.462.008 8.14 8.14 0 0 0-.782.093 8.015 8.015 0 0 1-.769.092 3.734 3.734 0 0 1-.991-.056 4.704 4.704 0 0 1-.948-.298 5.176 5.176 0 0 1-.224-.538 2.283 2.283 0 0 1-.115-.57 1.771 1.771 0 0 1 .006-.265.708.708 0 0 1 .069-.282c.028-.06.114-.142.258-.245a5.21 5.21 0 0 1 .466-.297 7.18 7.18 0 0 1 .506-.275c.161-.079.275-.12.342-.125a.791.791 0 0 1 .277.03c.093.02.186.042.28.069.093.019.186.041.28.068.101.018.202.024.302.017.281-.02.557-.069.827-.147.278-.078.56-.102.845-.072a.933.933 0 0 0 .125-.374c.015-.135.018-.27.009-.404a3.808 3.808 0 0 0-.054-.424 5.785 5.785 0 0 1-.041-.4 3.389 3.389 0 0 1 .002-.503 3.53 3.53 0 0 0 .003-.504 1.25 1.25 0 0 0-.106-.433 1.42 1.42 0 0 1-.107-.458 1.909 1.909 0 0 1 .09-.686 5.75 5.75 0 0 1 .23-.646c.098-.032.194-.076.291-.134a4.73 4.73 0 0 1 .289-.158c.104-.058.205-.107.303-.148a.73.73 0 0 1 .281-.082l.15-.011a.359.359 0 0 1 .138.015l.087.17a.448.448 0 0 0 .111-.02.37.37 0 0 1 .087-.019c.049-.003.121.063.214.2.1.126.198.275.293.444.104.169.195.335.272.497.078.154.119.26.123.318.012.168-.014.337-.077.51a1.754 1.754 0 0 0-.117.486c-.009.101-.001.206.023.313.023.099.039.199.046.299.017.259.002.52-.046.783a3.22 3.22 0 0 0-.045.797l.011.15c.004.05.016.104.036.161.093.019.186.033.279.043a3.83 3.83 0 0 0 1.04-.137.424.424 0 0 0 .156-.098c.055-.055.103-.083.144-.086a.597.597 0 0 1 .215.022.63.63 0 0 0 .227.022c.29-.02.584-.045.882-.075.307-.03.613-.056.92-.077.232-.017.462-.008.69.026.227.035.442.116.642.244.086.154.163.3.231.437.076.137.121.302.134.494zm15.954-9.737a.721.721 0 0 1-.311.188 1.59 1.59 0 0 0-.351.15c-.007.05-.074.16-.199.327-.117.159-.249.33-.399.515-.15.175-.295.339-.436.49-.134.142-.225.221-.275.238.033.067.05.117.05.15 0 .068-.042.13-.125.189a.59.59 0 0 0-.175.176.904.904 0 0 0-.075.288.86.86 0 0 1-.074.277 6.335 6.335 0 0 1-.262.44 3.107 3.107 0 0 0-.225.363 2.297 2.297 0 0 0-.15.402 2.106 2.106 0 0 0-.037.54 3.323 3.323 0 0 0-.499.816c-.1.243-.167.486-.2.728a6.82 6.82 0 0 0-.062.741c0 .26-.017.553-.051.88a2.9 2.9 0 0 1-.111.464 1.47 1.47 0 0 0-.075.49c0 .234.016.464.049.69.042.218.063.44.063.665 0 .26-.037.511-.112.754a2.721 2.721 0 0 0-.101.74c0 .185.026.352.075.503.059.15.097.318.113.502.042.293.054.594.037.904a5.21 5.21 0 0 0 .062.93c.009.091.03.221.064.388.04.168.086.344.137.528.049.176.099.347.15.515.049.159.095.28.137.364.024.05.053.092.087.125a.483.483 0 0 1 .087.126c.05.142.087.293.113.452.024.159.062.318.111.477l.101.125a.593.593 0 0 1 .087.113c.017.05.024.105.024.164a.55.55 0 0 0 .051.163c.099.268.229.519.386.753.166.235.308.481.424.741.051.05.133.138.25.264.117.134.25.288.4.464.149.184.303.377.461.578.166.2.32.389.462.565.141.184.262.343.362.477.108.142.179.243.212.301-.1.268-.216.536-.349.804a1.891 1.891 0 0 1-.563.69l-.785-.125a4.296 4.296 0 0 1-.524-.113 1.316 1.316 0 0 1-.362-.163 1.161 1.161 0 0 1-.287-.29 3.383 3.383 0 0 1-.299-.476 42.508 42.508 0 0 1-.624-1.256 1.358 1.358 0 0 0-.313-.465.182.182 0 0 1-.011-.112.378.378 0 0 0 .011-.088v-.05l-.186-.189a.39.39 0 0 1 .012-.088.392.392 0 0 0 .013-.088c0-.067-.025-.113-.075-.138a.202.202 0 0 1-.1-.088 1.026 1.026 0 0 1-.175-.326.983.983 0 0 0-.149-.327 1.524 1.524 0 0 0-.325-.364 1.198 1.198 0 0 1-.274-.376 1.48 1.48 0 0 1-.075-.377v-.39a3.501 3.501 0 0 1-.274-.502 16.57 16.57 0 0 1-.35-.778c-.108-.276-.208-.54-.299-.79a3.686 3.686 0 0 1-.15-.579 14.12 14.12 0 0 1-.063-.54 2.336 2.336 0 0 0-.087-.54.668.668 0 0 0-.074-.15 1.498 1.498 0 0 0-.051-.113.665.665 0 0 1-.037-.126.891.891 0 0 1-.013-.175c0-.184.017-.364.05-.54a2.97 2.97 0 0 0 .051-.54c0-.184-.034-.356-.101-.515a1.418 1.418 0 0 1-.087-.49c0-.142.013-.28.038-.414.033-.134.049-.272.049-.414a3.869 3.869 0 0 0 0-.628 8.234 8.234 0 0 1-.025-.628c0-.184.022-.356.063-.515a5.49 5.49 0 0 1 .137-.452l.175-.452c.067-.15.12-.314.162-.49.042-.225.062-.439.062-.64 0-.209.004-.414.013-.615a2.98 2.98 0 0 1 .087-.603c.059-.2.167-.401.324-.602v-.138a1.661 1.661 0 0 1 .013-.327c.025-.159.054-.322.087-.49a7.64 7.64 0 0 1 .112-.477c.042-.15.08-.26.113-.326a.883.883 0 0 1 .174-.276l.188-.189a.66.66 0 0 0 .137-.2.8.8 0 0 0 .062-.352c0-.009.021-.038.063-.088.05-.059.104-.126.162-.2l.175-.227a.778.778 0 0 0 .112-.213c.049-.151.079-.314.087-.49a.97.97 0 0 1 .15-.49 3.42 3.42 0 0 1 .212-.314.4.4 0 0 1 .088-.088.225.225 0 0 1 .075-.012c.024 0 .07-.034.137-.1.041-.042.062-.118.062-.227a.485.485 0 0 1 .088-.263 1.05 1.05 0 0 1 .236-.239c.1-.075.192-.163.275-.264.058-.083.129-.196.212-.338.083-.143.17-.285.262-.427.1-.151.199-.293.299-.427.101-.134.2-.235.3-.302a.224.224 0 0 1 .15-.025.165.165 0 0 0 .149-.05c.059-.033.092-.075.1-.125a.15.15 0 0 1 .087-.113.56.56 0 0 1 .225-.05.977.977 0 0 0 .262-.05 2.52 2.52 0 0 0 .312-.127.72.72 0 0 1 .349-.075.94.94 0 0 1 .4.1c.149.06.283.139.398.24.126.1.225.217.3.35a.769.769 0 0 1 .125.415c0 .15-.054.306-.162.465-.1.15-.221.31-.362.477-.133.167-.262.339-.387.515a1.365 1.365 0 0 0-.237.54zm121.772 0a1.51 1.51 0 0 0-.25-.54 5.528 5.528 0 0 0-.387-.515 12.162 12.162 0 0 1-.361-.477.864.864 0 0 1-.15-.465c0-.142.037-.28.112-.414.083-.134.183-.251.299-.352.126-.1.258-.18.4-.238.15-.067.287-.1.411-.1a.64.64 0 0 1 .337.075c.092.041.204.083.337.125.067.025.15.042.249.05a.552.552 0 0 1 .225.05c.058.026.091.063.1.114.008.05.037.092.088.125a.166.166 0 0 0 .15.05.219.219 0 0 1 .149.025c.1.067.2.168.299.302.1.134.195.276.287.427.1.142.191.284.275.427.083.142.154.255.212.338.083.101.17.189.262.264a.98.98 0 0 1 .25.239.408.408 0 0 1 .087.276c.008.109.033.18.075.213.057.068.099.101.125.101a.14.14 0 0 1 .062.012.291.291 0 0 1 .1.088c.05.05.125.155.224.314.083.143.129.306.138.49.008.176.037.339.086.49.017.058.055.13.113.213a17.112 17.112 0 0 1 .324.427c.051.05.075.08.075.088 0 .15.021.268.062.351.042.076.088.143.138.201l.187.189a.884.884 0 0 1 .175.276c.033.067.07.176.112.326a9.823 9.823 0 0 1 .199.967c.026.15.034.26.026.327v.138c.149.2.249.402.299.602.059.201.092.402.1.603.017.201.021.406.012.615 0 .201.025.415.075.64.033.176.079.34.137.49.067.151.129.302.188.452a3.7 3.7 0 0 1 .15.452c.041.16.062.331.062.515 0 .21-.009.419-.025.628-.017.2-.017.41 0 .628 0 .142.012.28.037.414.025.134.037.272.037.414 0 .168-.033.331-.099.49-.058.16-.087.33-.087.515 0 .176.016.356.049.54.042.175.063.355.063.54a.891.891 0 0 1-.013.175.367.367 0 0 1-.05.126 1.415 1.415 0 0 1-.062.113 1.616 1.616 0 0 0-.062.15 2.88 2.88 0 0 0-.1.54 6.067 6.067 0 0 1-.05.54 3.31 3.31 0 0 1-.162.578 17.16 17.16 0 0 1-.313.791c-.108.276-.219.536-.336.778-.108.243-.196.41-.262.503 0 .125-.005.255-.012.389 0 .126-.022.251-.063.377a1.217 1.217 0 0 1-.275.376c-.116.1-.22.222-.311.364a1.19 1.19 0 0 0-.163.327 1.01 1.01 0 0 1-.175.326.196.196 0 0 1-.111.088c-.042.025-.063.071-.063.138 0 .026.004.055.013.088a.385.385 0 0 1 .012.088l-.187.188v.05c0 .026.004.055.013.089a.2.2 0 0 1-.013.112 1.37 1.37 0 0 0-.312.465 6.288 6.288 0 0 1-.249.515c-.225.452-.404.791-.537 1.017-.125.226-.266.39-.424.49-.15.108-.349.184-.599.226-.249.042-.607.1-1.073.175a1.886 1.886 0 0 1-.561-.69 8.219 8.219 0 0 1-.35-.804c.034-.058.1-.159.2-.301.108-.134.232-.293.374-.477.141-.176.291-.364.449-.565.167-.201.325-.394.474-.578.15-.176.283-.33.399-.464.117-.134.2-.222.25-.264.117-.26.254-.506.411-.74.167-.235.3-.486.4-.754a.36.36 0 0 0 .037-.163c.009-.059.022-.113.038-.164a.56.56 0 0 1 .088-.113.68.68 0 0 0 .099-.125c.05-.16.087-.318.113-.477.024-.16.062-.31.112-.452a.483.483 0 0 1 .087-.126.514.514 0 0 0 .088-.125c.041-.084.087-.206.137-.364l.15-.515c.049-.184.091-.36.124-.528l.075-.389c.058-.318.079-.628.062-.929a5.49 5.49 0 0 1 .05-.904 2.25 2.25 0 0 1 .1-.502c.05-.15.075-.318.075-.503 0-.259-.033-.506-.1-.74a2.817 2.817 0 0 1-.1-.754c0-.226.017-.447.05-.665a4.77 4.77 0 0 0 .05-.69 1.47 1.47 0 0 0-.075-.49 7.81 7.81 0 0 1-.112-.465 6.94 6.94 0 0 1-.062-.879c0-.26-.017-.506-.05-.74a2.389 2.389 0 0 0-.2-.729 3.323 3.323 0 0 0-.499-.816 1.721 1.721 0 0 0-.05-.54 1.445 1.445 0 0 0-.15-.402 2.3 2.3 0 0 0-.212-.364 4.282 4.282 0 0 1-.25-.44 1.224 1.224 0 0 1-.087-.276.877.877 0 0 0-.074-.288.547.547 0 0 0-.188-.176c-.075-.059-.112-.121-.112-.188 0-.034.017-.084.05-.151-.042-.017-.133-.096-.274-.239a11.966 11.966 0 0 1-.849-1.004c-.116-.168-.178-.276-.187-.326a1.596 1.596 0 0 0-.349-.151.708.708 0 0 1-.312-.188z" fill="#fff"/></svg>