<svg width="102" height="102" viewBox="0 0 102 102" fill="none" xmlns="http://www.w3.org/2000/svg"><g clip-path="url(#a)"><g clip-path="url(#b)"><path d="M32.18 42.779c1.416.574 2.653 1.287 3.661 2.106v-5.037c0-1.839.853-3.527 2.346-4.948 1.087-1.03 2.519-1.922 4.196-2.619a9.723 9.723 0 0 1-.903-4.1V19.21c0-1.694.691-3.232 1.81-4.346a6.115 6.115 0 0 1 4.347-1.81h7.372c1.693 0 3.231.69 4.351 1.81a6.132 6.132 0 0 1 1.806 4.346v8.97a9.76 9.76 0 0 1-.903 4.107c1.666.691 3.087 1.566 4.162 2.58 1.516 1.432 2.385 3.131 2.385 4.981v5.043c1.009-.825 2.251-1.538 3.672-2.117a9.773 9.773 0 0 1-.897-4.09v-8.971c0-1.694.697-3.232 1.811-4.346a6.116 6.116 0 0 1 4.352-1.81h7.366c1.694 0 3.237.69 4.352 1.81a6.134 6.134 0 0 1 1.805 4.346v8.97a9.725 9.725 0 0 1-.892 4.085c1.71.702 3.17 1.605 4.274 2.646 1.493 1.421 2.346 3.104 2.346 4.937v10.826h5.17a1.474 1.474 0 0 1 1.143 2.402l-5.405 7.867 5.472 7.957a1.474 1.474 0 0 1-1.21 2.307H67.891l.546 7.01a3.198 3.198 0 0 1-.774 2.34 3.214 3.214 0 0 1-3.834.802l-12.503-5.165-12.688 5.237a3.215 3.215 0 0 1-3.75-.992 3.3 3.3 0 0 1-.68-2.223l.547-7.01H24.207a1.475 1.475 0 0 1 0-2.948h10.776l.29-3.727-8.82-10.352c-.15-.15-.3-.373-.407-.557H5.274l4.446 6.463c.351.49.374 1.165.011 1.694l-4.457 6.48h12.258a1.474 1.474 0 0 1 0 2.948H2.477a1.47 1.47 0 0 1-1.471-1.471c0-.351.122-.675.329-.93l5.405-7.863-5.472-7.957c-.702-1.02.067-2.312 1.265-2.312h5.154v-7.483c0-.813.657-1.477 1.47-1.477a1.48 1.48 0 0 1 1.477 1.477v7.483h15.267c.184-.401.563-.925.948-1.192.412-.324.897-.513 1.404-.635l7.589-1.834v-7.165c0-.992-.53-1.961-1.455-2.83-.941-.886-2.267-1.655-3.867-2.235a9.823 9.823 0 0 1-7.282 3.237 9.844 9.844 0 0 1-7.288-3.237c-1.594.58-3.377 1.521-4.452 2.87-.512.63-1.437.73-2.067.223a1.47 1.47 0 0 1-.228-2.068c1.292-1.61 3.192-2.758 5.086-3.538a9.775 9.775 0 0 1-.896-4.09v-8.97c0-1.694.696-3.232 1.81-4.346a6.118 6.118 0 0 1 4.352-1.81h12.052c.813 0 1.47.662 1.47 1.476v13.651a9.78 9.78 0 0 1-.897 4.095zm54.143-6.508l-8.325-2.82-5.46 2.68v2.553c0 1.894.774 3.616 2.023 4.864a6.87 6.87 0 0 0 4.87 2.028 6.846 6.846 0 0 0 4.863-2.028 6.846 6.846 0 0 0 2.029-4.864V36.27zm-13.785-3.41l4.63-2.268a1.46 1.46 0 0 1 1.204-.122l7.95 2.69v-3.448c0-.88-.361-1.683-.94-2.262a3.203 3.203 0 0 0-2.268-.948h-7.367c-.885 0-1.682.363-2.267.948a3.174 3.174 0 0 0-.942 2.262v3.148zM16.34 30.944h13.79v-4.44H19.555c-.886 0-1.689.362-2.268.947a3.18 3.18 0 0 0-.947 2.262v1.231zm13.79 2.948H16.34v4.792a6.87 6.87 0 0 0 2.028 4.864 6.87 6.87 0 0 0 4.87 2.028 6.848 6.848 0 0 0 4.864-2.028 6.848 6.848 0 0 0 2.028-4.864v-4.792zm28.088-8.352c-2.218.34-5.906.34-8.948-2.374-1.059.624-2.764 1.337-4.842 1.142v3.873a6.87 6.87 0 0 0 2.028 4.864 6.86 6.86 0 0 0 4.87 2.028 6.847 6.847 0 0 0 4.864-2.028 6.849 6.849 0 0 0 2.028-4.864V25.54zm-13.79-4.196c1.415.223 2.98-.256 4.05-1.209a1.472 1.472 0 0 1 2.073.15c2.502 2.881 5.984 2.625 7.667 2.28V19.21c0-.88-.362-1.683-.947-2.262A3.18 3.18 0 0 0 55.009 16h-7.372a3.18 3.18 0 0 0-2.262.948 3.18 3.18 0 0 0-.947 2.262v2.134zm27.714 23.937c-1.638.596-2.992 1.387-3.944 2.295-.886.853-1.388 1.806-1.388 2.775v7.165l7.767 1.878c.858.206 1.56.747 1.984 1.449.067.106.128.217.184.334H92.05V50.351c0-.98-.519-1.944-1.427-2.802-.941-.897-2.284-1.672-3.911-2.263a9.818 9.818 0 0 1-7.282 3.237 9.818 9.818 0 0 1-6.954-2.891 5 5 0 0 1-.335-.351zM44.05 34.794c-1.588.585-2.904 1.354-3.834 2.24-.908.864-1.426 1.828-1.426 2.814v16.961l2.607-.63 7.183-11.695a3.24 3.24 0 0 1 2-1.449 3.232 3.232 0 0 1 3.505 1.471l7.171 11.673 2.602.63V39.848c0-.997-.524-1.967-1.449-2.836-.93-.88-2.24-1.638-3.81-2.223a9.802 9.802 0 0 1-7.272 3.232 9.839 9.839 0 0 1-7.277-3.227zm32.557 29.33c-.101.168-.212.33-.346.48l-2.474 2.908a1.472 1.472 0 0 1-2.073.162 1.467 1.467 0 0 1-.161-2.073l2.474-2.908a.29.29 0 0 0 .05-.268.266.266 0 0 0-.19-.178 10204.95 10204.95 0 0 1-13.807-3.332 1.447 1.447 0 0 1-1.02-.68L51.571 46.05c-.056-.095-.123-.151-.245-.151a.257.257 0 0 0-.234.128l-7.5 12.208c-.2.318-.518.563-.914.658-4.58 1.103-9.154 2.206-13.734 3.315-.14.039-.285.039-.357.184a.271.271 0 0 0 .033.3l9.233 10.838c.279.29.435.69.401 1.126-.367 4.758-.735 9.522-1.109 14.286a.282.282 0 0 0 .1.228c.079.061.19.084.28.045l13.238-5.466a1.446 1.446 0 0 1 1.12 0l13.078 5.399c.217.078.568.178.54-.206-.368-4.764-.741-9.528-1.11-14.286-.027-.374.09-.758.352-1.07l2.48-2.903a1.467 1.467 0 0 1 2.072-.162c.613.53.685 1.454.162 2.073l-2.079 2.44.285 3.728h29.709l-4.446-6.463a1.464 1.464 0 0 1-.011-1.689l4.457-6.485H76.606z" fill="#fff" fill-opacity=".5"/></g></g><defs><clipPath id="a"><path fill="#fff" d="M0 0h102v102H0z"/></clipPath><clipPath id="b"><path fill="#fff" transform="translate(1 2.296)" d="M0 0h100.64v100.64H0z"/></clipPath></defs></svg>