<svg width="35" height="35" viewBox="0 0 35 35" fill="none" xmlns="http://www.w3.org/2000/svg"><g clip-path="url(#a)"><path fill-rule="evenodd" clip-rule="evenodd" d="M12.82 7.112a2.32 2.32 0 0 0-.7 1.568v2.097l.018 1v.494c.002.265.05.528.14.777a2.216 2.216 0 0 0 2.082 1.46h.249c2.45-.084 4.518-.207 5.9-.368.099 0 .172-.238.165-.504 0-.238-.077-.423-.164-.434-1.4-.164-3.469-.287-5.901-.367h-.298a.547.547 0 0 1-.154-.074.487.487 0 0 1-.196-.273.579.579 0 0 1 0-.182v-.493L14 10.777V8.775a.42.42 0 0 1 .43-.375c1.4 0 2.783 0 4.13-.028l1.985-.038c.09-.01.18-.01.27 0a.472.472 0 0 1 .16.056.55.55 0 0 1 .228.255.6.6 0 0 1 .042.193v.444l.035.858.084 1.589.042.654a.808.808 0 0 1-.302.627.885.885 0 0 1-.31.168c-.057.017-.11.252-.11.521 0 .27.102.434.225.43a1.863 1.863 0 0 0 1.4-.727c.198-.26.33-.566.381-.89 0-.047.008-.103.014-.153.005-.034.01-.066.01-.091v-.179l.036-.367.084-1.59.035-.857v-.444a2.332 2.332 0 0 0-.088-.7 2.243 2.243 0 0 0-.868-1.197 2.215 2.215 0 0 0-.7-.322 2.55 2.55 0 0 0-.563-.08 14.417 14.417 0 0 0 .186-1.246 3.25 3.25 0 0 0 0-.9 3.02 3.02 0 0 0-1.103-1.873 3.083 3.083 0 0 0-1.05-.55 3.15 3.15 0 0 0-.599-.111h-1.032a3.084 3.084 0 0 0-1.652.665 3.017 3.017 0 0 0-1.096 1.872 3.247 3.247 0 0 0 0 .896 14.417 14.417 0 0 0 .16 1.09l.015.086h-.049c-.6.002-1.177.235-1.61.651zm2.93-1.162c.037-.401.1-.8.189-1.193a1.52 1.52 0 0 1 .584-.75 1.425 1.425 0 0 1 .686-.234h.7a1.44 1.44 0 0 1 .686.235c.27.18.473.443.581.749.088.392.15.79.186 1.19.031.203.063.395.098.57h-.903c-.514 0-1.035-.006-1.56-.012-.444-.006-.89-.01-1.338-.012.035-.193.063-.36.09-.543zm-14 19.817a2.32 2.32 0 0 0-.7 1.568v2.097l.024 1.018v.494c.003.265.05.528.14.777a2.215 2.215 0 0 0 2.083 1.46h.248c2.45-.085 4.519-.207 5.901-.368.09 0 .159-.199.165-.436.002.264.103.425.224.422a1.861 1.861 0 0 0 1.4-.728c.198-.26.33-.566.381-.89 0-.047.008-.103.014-.153.005-.034.01-.066.01-.091v-.179l.025-.367.084-1.59.035-.857V27.5a2.332 2.332 0 0 0-.087-.7 2.244 2.244 0 0 0-.847-1.215 2.216 2.216 0 0 0-.7-.322 2.556 2.556 0 0 0-.578-.063 14.417 14.417 0 0 0 .185-1.246 3.248 3.248 0 0 0 0-.9 3.02 3.02 0 0 0-1.102-1.872 3.085 3.085 0 0 0-1.05-.55A3.128 3.128 0 0 0 7 20.508H5.98a3.085 3.085 0 0 0-1.649.665 3.017 3.017 0 0 0-1.095 1.872 3.245 3.245 0 0 0 0 .896c.025.231.053.448.084.655.026.171.05.299.075.435l.016.086h-.06a2.331 2.331 0 0 0-1.602.651zm7.97 6.08c-.054.016-.104.23-.109.482v-.02c-.007-.266-.067-.459-.161-.459-1.4-.164-3.469-.287-5.901-.367H3.25a.542.542 0 0 1-.154-.074.486.486 0 0 1-.196-.273.577.577 0 0 1 0-.182v-.493l.018-1.001.024-2.002a.42.42 0 0 1 .413-.389c1.4 0 2.783 0 4.13-.028l1.985-.038c.09-.01.18-.01.27 0a.475.475 0 0 1 .16.056.55.55 0 0 1 .228.255.601.601 0 0 1 .042.193v.444l.035.858.084 1.589.042.654a.81.81 0 0 1-.301.627.885.885 0 0 1-.312.168zm-5.04-7.249c.036-.401.1-.8.188-1.193a1.52 1.52 0 0 1 .585-.75 1.424 1.424 0 0 1 .686-.234h.7a1.45 1.45 0 0 1 .686.235c.269.18.472.443.58.749.089.392.15.79.186 1.19.032.203.063.395.098.57h-.903c-.513 0-1.034-.006-1.559-.012-.444-.005-.89-.01-1.339-.012l.018-.101c.025-.147.05-.29.073-.442zm27.223-1.557a3.25 3.25 0 0 1 0 .9c-.025.23-.053.45-.084.668a9.96 9.96 0 0 1-.102.591c.19.006.38.033.564.08a2.244 2.244 0 0 1 1.568 1.519c.064.228.094.464.087.7v.445l-.035.858-.084 1.589-.024.367v.179l-.01.091c-.007.05-.015.106-.015.154a1.984 1.984 0 0 1-.381.889 1.86 1.86 0 0 1-1.4.728c-.123.003-.224-.161-.224-.43 0-.27.052-.505.108-.522a.885.885 0 0 0 .532-.445.808.808 0 0 0 .08-.35l-.041-.654-.084-1.59-.035-.857v-.444a.601.601 0 0 0-.042-.193.55.55 0 0 0-.228-.255.475.475 0 0 0-.16-.056 1.363 1.363 0 0 0-.27 0l-1.985.038c-1.347.028-2.73.028-4.13.028a.42.42 0 0 0-.413.389l-.024 2.002-.018 1v.494a.579.579 0 0 0 0 .182c.031.112.1.209.196.273.048.033.1.058.154.074h.298c2.432.08 4.5.203 5.9.367.088 0 .148.193.155.459.007.266-.067.504-.165.504-1.382.16-3.45.283-5.9.367h-.25a2.215 2.215 0 0 1-2.082-1.46 2.348 2.348 0 0 1-.14-.776v-.494l-.028-1.022v-2.096a2.324 2.324 0 0 1 2.317-2.216h.05l-.017-.086a12.659 12.659 0 0 1-.159-1.09 3.247 3.247 0 0 1 0-.896 3.015 3.015 0 0 1 1.096-1.872 3.085 3.085 0 0 1 1.648-.665h1.026a3.046 3.046 0 0 1 1.648.662 3.02 3.02 0 0 1 1.103 1.872zm-3.83 2.095c.524.006 1.045.012 1.558.012l.903.017a13.623 13.623 0 0 1-.098-.57 9.197 9.197 0 0 0-.185-1.19 1.512 1.512 0 0 0-.581-.75 1.424 1.424 0 0 0-.686-.234h-.7a1.424 1.424 0 0 0-.686.235 1.52 1.52 0 0 0-.585.749 9.273 9.273 0 0 0-.189 1.193c-.028.175-.06.36-.09.525.447.002.894.007 1.338.012z" fill="url(#b)" filter="url(#c)"/><path d="M18.029 17.297a1.254 1.254 0 0 0-.504-.053 1.051 1.051 0 0 0-.434.053c-.29.798-.448 2.303-.483 3.906-1.383.854-2.636 1.792-3.185 2.45.041.174.119.337.227.48.126.206.245.35.277.35.882-.172 2.38-.883 3.85-1.75.84.899 2.569 1.826 3.475 1.75.11-.132.207-.276.287-.428.083-.123.153-.256.207-.395-.35-.837-2.01-1.925-3.203-2.236-.042-1.663-.206-3.287-.514-4.127z" fill="#fff"/></g><defs><filter id="c" x="-2.95" y="1.852" width="40.888" height="39.329" filterUnits="userSpaceOnUse" color-interpolation-filters="sRGB"><feFlood flood-opacity="0" result="BackgroundImageFix"/><feColorMatrix in="SourceAlpha" values="0 0 0 0 0 0 0 0 0 0 0 0 0 0 0 0 0 0 127 0" result="hardAlpha"/><feOffset dy="4"/><feGaussianBlur stdDeviation="2"/><feComposite in2="hardAlpha" operator="out"/><feColorMatrix values="0 0 0 0 0 0 0 0 0 0 0 0 0 0 0 0 0 0 0.25 0"/><feBlend in2="BackgroundImageFix" result="effect1_dropShadow"/><feBlend in="SourceGraphic" in2="effect1_dropShadow" result="shape"/></filter><linearGradient id="b" x1="-1.313" y1=".522" x2="34.548" y2="4.006" gradientUnits="userSpaceOnUse"><stop stop-color="#4C698B"/><stop offset=".482" stop-color="#fff"/><stop offset=".877" stop-color="#FFC8AA"/></linearGradient><clipPath id="a"><path fill="#fff" d="M0 0h35v35H0z"/></clipPath></defs></svg>