<svg width="138" height="138" viewBox="0 0 138 138" fill="none" xmlns="http://www.w3.org/2000/svg"><g clip-path="url(#a)"><path d="M84.269 64.133h.419l2.228 73.256h-.42L84.27 64.133zm-35.189 0l-2.226 73.256h-.42l2.228-73.256h.418z" fill="#369CB7" stroke="#fff"/><path d="M66.53 30.51v.002h-.5c-1.681 0-3.554-.019-5.379-.083l5.88.081zm0 0h.307v.002h.5c1.682.002 3.555-.019 5.379-.083 4.648-.164 8.993-.899 11.219-1.275.345-.058.64-.108.876-.146.913-.145 1.8-.362 2.456-.542a26.804 26.804 0 0 0 1.015-.3h1.053c1.065 0 2.042 1.132 1.887 2.597L66.53 30.51zm24.692.254L85.99 79.577c-.123 1.15-.91 1.937-1.766 2.003l-15.708 1.206c-.546.042-1.066-.203-1.45-.66l-.382-.455-.383.454c-.386.459-.905.703-1.45.661L49.145 81.58c-.856-.066-1.643-.853-1.765-2.003l-5.231-48.814c-.158-1.465.82-2.597 1.884-2.597h1.053a26.714 26.714 0 0 0 1.015.3c.656.18 1.543.397 2.456.542.237.038.531.088.877.146 2.225.376 6.57 1.11 11.218 1.275l30.57.335z" fill="#369CB7" stroke="#fff"/><path d="M62.554 2.954l.203.038.17-.118c.478-.328 1.344-.69 2.452-.977a16.295 16.295 0 0 1 3.7-.507c2.655-.049 5.189.62 6.414 2.52a79.563 79.563 0 0 1 1.762 2.902c1.718 2.926 3.221 5.486 6.325 7.7 1.799 1.285 2.062 2.979 1.872 4.402a7.495 7.495 0 0 1-.5 1.827 7.357 7.357 0 0 1-.342.718l-.004.007-.001.001-.126.212.093.23c.727 1.797-.036 3.597-1.362 5.068a10.279 10.279 0 0 1-2.162 1.804c-.743.463-1.41.736-1.853.81l-.041.007c-.496.084-.804.135-1.036.198a2.653 2.653 0 0 0-.67.291l-.112.064c-.453.258-1.297.738-3.574 1.75-2.386 1.061-4.958 1.124-6.957.91-.996-.106-1.84-.28-2.434-.427a14.245 14.245 0 0 1-.866-.244l-.044-.014-.01-.004h-.002l-.15-.053-.152.044c-1.573.452-3.452.277-5.216-.34-1.764-.616-3.353-1.654-4.353-2.857-.976-1.174-1.229-2.45-1.235-3.444a6.109 6.109 0 0 1 .114-1.219 4.723 4.723 0 0 1 .105-.426l.006-.019v-.002l.195-.564-.58-.09a.967.967 0 0 1-.158-.059 1.888 1.888 0 0 1-.527-.386c-.424-.424-.974-1.28-1.259-2.983-.133-.796-.016-1.36.216-1.807.24-.46.626-.84 1.11-1.224.196-.155.398-.304.61-.46l.156-.116c.264-.196.538-.403.8-.629.524-.452 1.02-.997 1.321-1.73.274-.668.39-1.146.434-1.573.027-.26.027-.524.026-.766 0-.119 0-.233.003-.338.02-.691.159-1.722 1.225-4.23 1.014-2.384 2.624-3.338 3.967-3.715a6.37 6.37 0 0 1 1.749-.233 5.45 5.45 0 0 1 .692.05l.006.001z" fill="#369CB7" stroke="#fff"/><path d="M60.636 30.484zm-.489.006c.066-.005.125-.009.178-.01l.024.083a586.996 586.996 0 0 1 1.34 4.67c.362 1.291.721 2.594.982 3.601.131.505.236.93.304 1.242a6.497 6.497 0 0 1 .072.367 698.275 698.275 0 0 1-7.299 8.864l-.183.216-12.123.29c-1.121-2.074-.304-4.46 1.607-7.07 1.696-2.318 4.139-4.65 6.44-6.85.373-.355.742-.707 1.103-1.055 2.53-2.436 4.582-3.516 5.974-3.992a6.719 6.719 0 0 1 1.581-.355zm2.91 10.042zm.035-.16zm2.242 88.121v.028l.003.028c.124 1.1.31 2.137.605 2.795.402.898.287 2.104.006 3.226a14.843 14.843 0 0 1-.452 1.447c-.051.141-.098.266-.14.377l-.05.134a5.39 5.39 0 0 0-.085.239c-.04.02-.103.046-.196.075-.252.076-.641.144-1.164.175-1.039.063-2.537-.023-4.366-.409-.918-.194-1.574-.387-2.035-.582-.466-.197-.694-.379-.806-.524-.189-.246-.16-.535.08-1.268.086-.265.268-.569.53-.917a18.166 18.166 0 0 1 .893-1.073c.317-.366.646-.751.912-1.132.262-.377.495-.793.58-1.225v-.001c.053-.272.065-.63.06-1.01l-.001-.058-.014-.056-.006-.027a908.162 908.162 0 0 1-3.321-15.896c1.87.182 4.769.237 8.937-.258a6209.578 6209.578 0 0 1 .03 14.525v1.387zm-.065 8.244l-.006.005.006-.005z" fill="#369CB7" stroke="#fff"/><path d="M57.895 132.09c.192-.197.393-.402.581-.607.116.098.253.206.42.321.408.283.98.603 1.824.948.978.4 2.14.364 3.208.192.839-.134 1.666-.361 2.365-.568.092.841.104 1.731.081 2.494a16.45 16.45 0 0 1-.124 1.679l-.005.002a2.689 2.689 0 0 1-.436.198c-.406.151-.993.31-1.704.431-1.423.244-3.292.33-5.137-.058-1.868-.395-2.43-1.001-2.596-1.485-.09-.262-.092-.557-.032-.895.057-.323.163-.646.274-.986l.02-.062c.107-.323.408-.708.85-1.179.128-.135.267-.278.411-.425zm12.28-3.54l.003-.028v-1.416a6844.198 6844.198 0 0 1 .03-14.525c4.168.495 7.067.44 8.936.258a900.364 900.364 0 0 1-2.268 11.009c-.598 2.817-1 4.645-1.054 4.886a2.901 2.901 0 0 1-.006.028l-.014.056v.058c-.006.38.007.738.06 1.01v.001c.085.432.317.848.58 1.225a14.478 14.478 0 0 0 .997 1.23c.292.337.57.659.808.975.261.348.444.652.53.917.24.733.268 1.022.08 1.268-.113.145-.34.327-.806.524-.462.195-1.117.388-2.036.582-1.829.386-3.327.472-4.366.409-.522-.031-.912-.099-1.163-.175a1.318 1.318 0 0 1-.196-.075 6.308 6.308 0 0 0-.086-.239l-.05-.134a32.645 32.645 0 0 1-.14-.377 14.843 14.843 0 0 1-.451-1.447c-.282-1.122-.397-2.328.005-3.226.297-.658.481-1.696.607-2.794zm.067 8.187l.006.005-.006-.005z" fill="#369CB7" stroke="#fff"/><path d="M78.877 133.693l.02.063c.112.34.218.663.275.986.06.338.058.633-.031.895-.166.484-.73 1.09-2.597 1.485-1.845.388-3.715.302-5.138.058a9.77 9.77 0 0 1-1.703-.431 2.676 2.676 0 0 1-.44-.2c-.039-.261-.1-.88-.125-1.679a18.379 18.379 0 0 1 .081-2.494c.7.207 1.527.434 2.366.568 1.067.172 2.229.208 3.207-.192.845-.345 1.416-.665 1.825-.948.166-.115.304-.223.419-.321.189.205.39.41.582.607.144.147.283.29.41.425.444.471.744.856.85 1.178zm-9.594 2.967v-.001.001zm-4.14-43.968c.084 2.833.132 11.036.157 18.883-4.407.53-7.354.437-9.136.238-1.13-5.72-2.298-11.978-3.11-17.23-.414-2.68-.734-5.094-.91-7.036-.178-1.966-.201-3.386-.053-4.123l-.49-.099.49.099c.56-2.78 1.825-4.13 2.896-4.796a4.792 4.792 0 0 1 1.422-.598 3.709 3.709 0 0 1 .542-.087l.024-.001h.015l.013-.001.01-.001.052-.001c.05 0 .125 0 .225.006.2.013.492.047.848.134.711.173 1.677.559 2.664 1.413 1.966 1.703 4.109 5.352 4.34 13.2zm5.225 0c.232-7.847 2.374-11.497 4.34-13.2.987-.854 1.953-1.24 2.664-1.413.356-.087.649-.121.848-.134a3.128 3.128 0 0 1 .277-.005h.01l.013.001h.015l.024.002a3.704 3.704 0 0 1 .542.087c.37.087.879.26 1.422.598 1.072.667 2.337 2.016 2.896 4.796l.49-.099-.49.099c.149.737.126 2.157-.052 4.123-.177 1.942-.497 4.355-.911 7.036-.812 5.252-1.979 11.51-3.11 17.23-1.78.199-4.729.292-9.136-.238.026-7.847.073-16.05.158-18.883zm5.137-62.213zm0 0zm9.2 4.357c.36.348.73.7 1.102 1.056 2.302 2.198 4.745 4.531 6.44 6.848 1.912 2.611 2.728 4.997 1.607 7.072l-12.123-.29-.183-.215a785.06 785.06 0 0 1-3.504-4.165 258.604 258.604 0 0 1-2.655-3.223 49.046 49.046 0 0 1-.883-1.122 8.553 8.553 0 0 1-.266-.368l.002-.03c.006-.088.02-.212.039-.37.038-.313.1-.74.177-1.245.155-1.01.372-2.314.592-3.606a614.034 614.034 0 0 1 .819-4.673l.006-.034c.091.002.199.006.321.014a9.644 9.644 0 0 1 1.989.365c1.68.481 4.006 1.564 6.52 3.986zm-10.468 5.667v-.005.005zm-.036-.139z" fill="#369CB7" stroke="#fff"/><path d="M80.126 71.201c-3.07.607-7.309 1.273-11.985 1.51h-.46c-4.662-.24-8.888-.904-11.951-1.509a78.846 78.846 0 0 1-3.637-.804 52.46 52.46 0 0 1-.914-.235l3.26-27.14c.697-5.792 1.968-8.917 3.144-10.595 1.142-1.63 2.194-1.896 2.58-1.94l.112-.003h.004c.043-.002.083-.003.125-.003h.013c2.05-.055 4.723-.203 7.318-.37l.186-.011h.015l.186.012c2.595.166 5.269.314 7.318.368h.006c.087.004.169.005.248.007.387.044 1.44.31 2.581 1.94 1.176 1.678 2.447 4.803 3.143 10.595l3.258 27.139c-.22.059-.528.139-.914.234-.857.213-2.1.501-3.636.805zm4.858-23.025c.851-1.358 2.721-1.783 4.756-1.472 1.089.166 2.155.54 3.005 1.037.862.505 1.44 1.1 1.653 1.676.507 1.364.396 2.261.204 2.79a2.098 2.098 0 0 1-.257.5l-9.361-4.531zm-42.029 4.532a2.093 2.093 0 0 1-.258-.5c-.191-.53-.303-1.426.204-2.791.214-.576.792-1.171 1.654-1.676.85-.497 1.916-.87 3.005-1.037 2.034-.311 3.905.114 4.757 1.472l-9.362 4.532z" fill="#369CB7" stroke="#fff"/><path d="M74.252 53.413a.859.859 0 0 1 .021.032l-.118.183.215.28v.001l.005.006.016.022a11.297 11.297 0 0 1-1.017-.4 3.323 3.323 0 0 0-.944-.268c-.301-.04-.656-.045-.94.058-.112.04-.289.126-.465.211l-.025.013-.005.002c-.2.097-.432.21-.678.32-.249.11-.502.214-.736.29-.24.079-.43.118-.56.122h-.011l-.038-.001a8.905 8.905 0 0 1-.125-.005l-.415-.02-.016-.002c-.34-.017-.793-.04-1.322-.062a77.029 77.029 0 0 0-3.15-.074l.425-1.58.112.022.027.005c.185.035.36.069.5.098h.007l.013.003a1.396 1.396 0 0 0 .166.022c.107.01.257.02.445.015.374-.01.897-.072 1.52-.276.528-.173 1.524-.366 2.454-.505.46-.068.89-.12 1.224-.15.168-.014.305-.022.406-.024.07-.001.104.001.112.002.168.056.713.28 1.286.547.294.137.582.279.813.406a3.465 3.465 0 0 1 .375.23c.02.014.027.022.027.022.16.168.305.32.396.455zm.856.712h.006-.006zm-11.817.5l.519-.004-.519.004zm9.871-.635c.466.218 1.825.738 2.052.616l-6.18.178c.602-.015 1.579-.49 2.177-.78.203-.099.362-.176.449-.207.342-.124 1.036-.026 1.502.193zm1.603.566v-.004.004z" fill="#369CB7" stroke="#fff"/><path d="M64.443 52.433l.127.045-.814 1.662c-.142.01-.334.021-.57.036-.547.033-1.33.079-2.274.127-1.887.096-4.412.204-6.968.247-2.558.044-5.134.025-7.127-.131-.999-.078-1.832-.189-2.437-.337a3.35 3.35 0 0 1-.686-.23c-.146-.074-.181-.123-.182-.123l.002.003c-.84-1.678.244-4.584 3.425-5.538.334-.1.866-.132 1.587-.08.709.051 1.554.179 2.488.363 1.868.368 4.054.955 6.145 1.576a151.884 151.884 0 0 1 7.284 2.38zm7.322-21.593a.999.999 0 0 1-.676 1.071c-.878.295-2.148.614-3.436.582-1.283-.033-2.542-.41-3.484-1.464a.489.489 0 0 1-.117-.393l1.077-7.696 5.986 2.585.041.365a1112.375 1112.375 0 0 0 .609 4.95zM59.657 16.518c-.199-.618-.542-1.1-.911-1.389-.372-.29-.722-.355-.99-.268-.269.087-.514.343-.646.796-.13.45-.126 1.042.073 1.66l2.474-.799zm0 0c.2.617.204 1.209.073 1.66-.131.453-.377.709-.645.795m.572-2.455l-.572 2.455m0 0c-.267.087-.617.022-.989-.269m.989.27l-.989-.27m0 0c-.37-.288-.713-.77-.913-1.387l.913 1.387zm17.878-3.379c-.108.64-.025 1.227.17 1.654.195.429.475.646.753.693.278.046.614-.068.94-.41.322-.339.592-.866.7-1.506.107-.639.025-1.225-.17-1.652-.196-.43-.477-.648-.753-.694l-1.64 1.915zm0 0c.107-.639.376-1.166.7-1.505m-.7 1.505l.7-1.505m0 0c.326-.342.662-.457.94-.41l-.94.41z" fill="#369CB7" stroke="#fff"/><path d="M67.144 4.41c4.538-.332 8.756 4.12 9.203 10.224.446 6.104-3.08 11.12-7.62 11.452-4.54.331-8.757-4.12-9.203-10.224-.446-6.105 3.079-11.121 7.62-11.452zm-.037-.499zm-3.548 27.904c-.11-.286-.126-.7.157-1.295.181.241.416.526.707.826a8.118 8.118 0 0 0 2.063 1.554c-.647.105-1.3.117-1.746-.076-.605-.261-1.024-.6-1.181-1.009zm7.514 1.01c-.437.191-1.08.18-1.72.075a8.04 8.04 0 0 0 2.045-1.556 8.75 8.75 0 0 0 .691-.815c.275.59.26 1.002.151 1.288-.156.41-.57.747-1.167 1.008zm2.087 21.712l-.456-.023-.145-1.976a128.453 128.453 0 0 1 2.044-.712 151.884 151.884 0 0 1 5.535-1.773c2.091-.621 4.277-1.208 6.145-1.576.934-.184 1.78-.312 2.488-.363.721-.051 1.253-.02 1.588.08 3.154.946 4.195 3.98 3.345 5.68l.002-.005c-.001 0-.038.05-.19.124-.163.081-.4.163-.717.24-.632.154-1.501.274-2.543.363-2.08.177-4.769.226-7.44.21a231.863 231.863 0 0 1-7.279-.168c-.986-.038-1.804-.074-2.376-.101z" fill="#369CB7" stroke="#fff"/><path d="M5.91 137.387v-81.41h1.8v81.41h-1.8zm123.632 0v-81.41h1.802v81.41h-1.802z" fill="#fff" stroke="#fff"/><path d="M5.91 104.302V66.198h125.434v38.104H5.909z" fill="#369CB7" stroke="#fff"/><path d="M5.91 108.789v-1.829h125.434v1.829H5.909z" fill="#fff" stroke="#fff"/><path d="M56.367 112.839c1.87.182 4.769.237 8.937-.258l.004 1.2c-4.52.72-7.397.368-8.737.079l-.06-.304a75.712 75.712 0 0 1-.144-.717zm22.571 1.021c-1.337.289-4.214.641-8.735-.079l.002-.647.002-.553c4.168.495 7.067.44 8.936.258l-.205 1.021z" fill="#6EA7CE" stroke="#fff"/><path d="M68.876 21.837c-1.152.173-1.689-.196-1.956-.519a1.56 1.56 0 0 1-.167-.247l3.648-.439c-.022.076-.05.155-.087.235-.174.386-.546.835-1.438.97z" fill="#fff" stroke="#fff"/><path d="M99.207 54.904l.102-4.713h22.502c.956 0 1.714.758 1.714 1.67v1.38c0 .911-.758 1.67-1.714 1.67l-22.604-.007z" fill="#369CB7" stroke="#fff"/><path d="M111.586 50.194v.004h.5c.903 0 1.618.714 1.618 1.575v1.557c0 .861-.715 1.575-1.618 1.575H101.76l.018-.067.747-2.875.068-.262-.182-.2-.37.336.37-.336-.001-.001-.003-.004-.012-.013-.047-.05-.165-.182a83.363 83.363 0 0 0-.981-1.057h10.384z" fill="#131313" stroke="#fff"/><path d="M98.618 54.556c.206-.457.36-1.105.36-2.016 0-.857-.208-1.522-.44-1.995h13.251c.807 0 1.444.64 1.444 1.406v1.2c0 .766-.637 1.405-1.444 1.405H98.618z" fill="#369CB7" stroke="#fff"/><path d="M110.8 50.545h.989c.807 0 1.446.64 1.446 1.406v.004c-.569-.635-1.355-1.157-2.435-1.41z" fill="#DAEEF7" stroke="#fff"/><path d="M99.767 49.191l.095-3.53h22.514c1.072 0 1.716.657 1.716 1.221v1.095c0 .564-.642 1.22-1.716 1.22l-22.61-.006z" fill="#369CB7" stroke="#fff"/><path d="M102.929 46.489l-.329.376.329-.376h-.001v-.001l-.003-.003-.013-.01-.046-.041-.165-.144-.509-.439a63.825 63.825 0 0 0-.216-.183h10.8c.941.05 1.49.642 1.49 1.143v1.237c0 .523-.6 1.146-1.619 1.146h-10.286l.714-2.173.103-.315-.249-.217z" fill="#369CB7" stroke="#fff"/><path d="M99.178 45.94h13.173c.922 0 1.446.564 1.446 1.013v.952c0 .45-.522 1.013-1.446 1.013H99.247c.17-.369.287-.857.287-1.497a3.16 3.16 0 0 0-.356-1.48z" fill="#369CB7" stroke="#fff"/><path d="M112.351 45.942c.872-.001 1.387.503 1.44.938a4.562 4.562 0 0 0-1.636-.938h.196z" fill="#DAEEF7" stroke="#fff"/><path d="M101.159 48.618h.051l-.024.038-.027-.038zm7.184-.953h.034l-.016.025-.018-.025z" fill="#369CB7" stroke="#fff"/><mask id="b" fill="#fff"><path d="M99.022 47.165h15.273v-.114c0-.015-15.285 0-15.285 0l.012.114z"/></mask><path d="M99.022 47.165h15.273v-.114c0-.015-15.285 0-15.285 0l.012.114z" fill="#DAEEF7"/><path d="M99.022 47.165l-.995.104.094.896h.9v-1zm15.273 0v1h1v-1h-1zm-15.285-.114l-.001-1-1.109.002.115 1.102.995-.104zm.012 1.114h15.273v-2H99.022v2zm15.273-1h1v-.113h-2v.114h1zm1-.114c-.148-.522-.648-.936-.754-.969-.04-.01-.101-.02-.122-.023l-.065-.006-.04-.002h-.049l-.135-.002-.489-.002-1.734-.002a5963.682 5963.682 0 0 0-10.51.004l-1.731.002h-.657v1l.002 1h.657a16525.295 16525.295 0 0 1 12.238-.006 922.786 922.786 0 0 1 2.347.005h-.023l-.061-.007a1.788 1.788 0 0 1-.12-.022c-.106-.034-.607-.447-.754-.97h2zm-17.28.104l.012.114 1.989-.208-.012-.114-1.989.208z" fill="#fff" mask="url(#b)"/><mask id="c" fill="#fff"><path d="M98.451 48.118l15.28-.008v-.114c0-.015-15.293.009-15.293.009l.013.113z"/></mask><path d="M98.451 48.118l15.28-.008v-.114c0-.015-15.293.009-15.293.009l.013.113z" fill="#DAEEF7"/><path d="M98.451 48.118l-.993.119.106.882h.888v-1zm15.28-.008l.001 1h.999v-1h-1zm-15.293-.105l-.002-1-1.125.002.134 1.116.993-.118zm.014 1.113l15.28-.008-.001-2-15.28.008v2zm15.279-1.008h1v-.113h-2v.113h1zm1-.114c-.148-.523-.649-.936-.755-.97-.039-.008-.1-.02-.121-.022l-.065-.006-.04-.002h-.049l-.136-.002-.489-.002h-1.735a5866.254 5866.254 0 0 0-10.515.01l-1.733.002h-.656v1l.002 1h.657L100.83 49a19014.397 19014.397 0 0 1 10.513-.01 990.664 990.664 0 0 1 2.348.004h-.023a.935.935 0 0 1-.181-.03c-.106-.032-.607-.446-.755-.969h2zm-17.286.127l.013.114L99.444 48l-.013-.114-1.986.237z" fill="#fff" mask="url(#c)"/><path d="M69.227 52.632l-.418.482.048-.757.146-.1.224.375z" fill="#F2E9DA" stroke="#fff"/><mask id="d" fill="#fff"><path d="M69.158 51.54l.176.295-1.118 2.722.157-2.473.785-.544z"/></mask><path d="M69.158 51.54l.176.295-1.118 2.722.157-2.473.785-.544z" fill="#E0D5C3"/><path d="M69.158 51.54l.858-.513-.549-.918-.88.61.57.821zm.176.295l.925.38.19-.463-.257-.43-.858.513zm-1.118 2.722l-.998-.063 1.923.443-.925-.38zm.157-2.473l-.57-.822-.397.276-.03.483.997.063zm-.074-.03l.176.294 1.717-1.026-.176-.295-1.717 1.026zm.11-.599l-1.118 2.723 1.85.76 1.118-2.723-1.85-.76zm.805 3.166l.157-2.473-1.996-.128-.157 2.474 1.996.127zm-.27-1.715l.784-.544-1.14-1.644-.784.544 1.14 1.644z" fill="#fff" mask="url(#d)"/><mask id="e" fill="#fff"><path d="M68.373 52.084l-.04.64.454-.47 3.58-8.722-.523.095-3.47 8.457z"/></mask><path d="M68.373 52.084l-.04.64.454-.47 3.58-8.722-.523.095-3.47 8.457z" fill="#E8BA70"/><path d="M68.373 52.084l-.925-.38-.062.152-.01.165.997.063zm-.04.64l-.998-.063-.173 2.719 1.89-1.962-.72-.694zm.454-.47l.72.694.132-.138.073-.177-.925-.38zm3.58-8.722l.924.38.694-1.69-1.798.326.18.984zm-.523.095l-.179-.984-.538.098-.208.506.925.38zm-4.469 8.394l-.04.64 1.996.127.04-.64-1.996-.127zm1.678 1.397l.454-.47-1.44-1.389-.454.471 1.44 1.388zm.659-.785l3.58-8.721-1.851-.76-3.58 8.722 1.85.76zm2.475-10.085l-.522.095.358 1.968.522-.095-.358-1.968zm-1.268.7l-3.47 8.456 1.85.76 3.47-8.457-1.85-.76z" fill="#fff" mask="url(#e)"/><mask id="f" fill="#fff"><path d="M68.787 52.253l.09.695.55-.43 3.58-8.723-.64-.263-3.58 8.721z"/></mask><path d="M68.787 52.253l.09.695.55-.43 3.58-8.723-.64-.263-3.58 8.721z" fill="#F7CC7F"/><path d="M68.787 52.253l-.925-.38-.101.246.034.263.992-.129zm.09.695l-.992.128.225 1.74 1.382-1.08-.616-.788zm.55-.43l.616.788.208-.163.101-.246-.925-.38zm3.58-8.723l.924.38.38-.926-.925-.38-.38.926zm-.64-.263l.379-.925-.925-.38-.38.926.925.38zm-4.572 8.85l.09.694 1.983-.256-.09-.695-1.983.257zm1.697 1.354l.55-.43-1.23-1.576-.551.43 1.231 1.576zm.86-.839l3.58-8.723-1.85-.759-3.58 8.723 1.85.76zm3.034-10.027l-.64-.263-.76 1.85.641.263.759-1.85zm-1.945.283l-3.58 8.72 1.85.76 3.58-8.721-1.85-.76z" fill="#fff" mask="url(#f)"/><mask id="g" fill="#fff"><path d="M69.427 52.518l-.005.654.42-.485 3.471-8.459-.306-.433-3.58 8.723z"/></mask><path d="M69.427 52.518l-.005.654.42-.485 3.471-8.459-.306-.433-3.58 8.723z" fill="#FAE0B2"/><path d="M69.427 52.518l-.925-.38-.073.179-.002.193 1 .008zm-.005.654l-1-.008-.02 2.712 1.776-2.05-.756-.654zm.42-.485l.756.655.107-.124.062-.151-.925-.38zm3.471-8.459l.925.38.209-.508-.317-.449-.817.577zm-.306-.433l.816-.578-1.05-1.486-.691 1.684.925.38zm-4.58 8.715l-.005.654 2 .015.005-.654-2-.015zm1.75 1.317l.42-.485-1.51-1.31-.42.485 1.51 1.31zm.59-.76l3.471-8.459-1.85-.76-3.47 8.46 1.85.759zm3.363-9.416l-.307-.434-1.633 1.155.307.434 1.633-1.155zm-2.048-.236l-3.58 8.723 1.85.76 3.58-8.724-1.85-.759z" fill="#fff" mask="url(#g)"/><mask id="h" fill="#fff"><path d="M72.371 43.531l-.264.643.642.263.263-.643-.64-.263z"/></mask><path d="M72.371 43.531l-.264.643.642.263.263-.643-.64-.263z" fill="#369CB7"/><path d="M72.107 44.174l-.925-.38-.38.925.926.38.38-.925zm.264-.643l.38-.925-.925-.38-.38.926.925.38zm.641.263l.925.38.38-.925-.925-.38-.38.925zm-.263.643l-.38.925.925.38.38-.925-.925-.38zm.284.116l.263-.642-1.85-.76-.264.643 1.85.76zm-1.041-.097l.64.263.76-1.85-.641-.263-.76 1.85zm.095-1.041l-.264.642 1.85.76.264-.643-1.85-.76zm1.041.097l-.641-.263-.76 1.85.642.263.759-1.85z" fill="#fff" mask="url(#h)"/><mask id="i" fill="#fff"><path d="M72.744 44.439l.263-.644.306.433-.156.38-.413-.17z"/></mask><path d="M72.744 44.439l.263-.644.306.433-.156.38-.413-.17z" fill="#88B5E2"/><path d="M72.744 44.439l-.926-.378-.377.924.924.379.379-.925zm.263-.644l.816-.578-1.053-1.49-.69 1.69.927.378zm.306.433l.925.38.209-.508-.317-.449-.817.577zm-.156.38l-.379.925.925.38.38-.925-.926-.38zm.513.208l.262-.644-1.852-.755-.262.644 1.852.755zm-1.48-.444l.306.434 1.634-1.155-.307-.434-1.633 1.155zm.198-.523l-.156.38 1.85.759.156-.38-1.85-.76zm1.148-.166l-.413-.17-.758 1.85.413.17.758-1.85z" fill="#fff" mask="url(#i)"/><mask id="j" fill="#fff"><path d="M71.688 44.005l.156-.378.522-.095-.263.642-.415-.17z"/></mask><path d="M71.688 44.005l.156-.378.522-.095-.263.642-.415-.17z" fill="#2C4B70"/><path d="M71.688 44.005l-.924-.382-.383.928.93.38.377-.926zm.156-.378l-.179-.984-.537.098-.208.505.924.381zm.522-.095l.926.379.69-1.689-1.795.326.179.984zm-.263.642l-.377.926.925.378.378-.925-.926-.379zm.51.212l.156-.378-1.85-.762-.155.377 1.849.763zm-.59.225l.522-.095-.358-1.968-.522.095.358 1.968zm-.583-1.457l-.262.642 1.851.757.263-.642-1.852-.757zm1.041.094l-.415-.169-.756 1.852.415.17.756-1.852z" fill="#fff" mask="url(#j)"/><mask id="k" fill="#fff"><path d="M72.434 45.194l.414.17.31-.758-.413-.17-.31.758z"/></mask><path d="M72.434 45.194l.414.17.31-.758-.413-.17-.31.758z" fill="#FEF8F8"/><path d="M72.848 45.364l-.38.925.926.38.38-.926-.926-.38zm-.414-.17l-.925-.38-.38.925.926.38.38-.925zm.31-.757l.38-.925-.925-.38-.38.925.926.38zm.415.17l.925.379.38-.925-.926-.38-.38.925zm.069-.169l-.414-.17-.76 1.851.415.17.759-1.85zm.132 1.135l.31-.757-1.85-.759-.31.757 1.85.76zm-.995-.211l.414.17.76-1.85-.415-.17-.759 1.85zm-.131-1.135l-.311.757 1.85.76.31-.758-1.85-.759z" fill="#fff" mask="url(#k)"/><mask id="l" fill="#fff"><path d="M71.376 44.764l.413.17.31-.758-.413-.17-.31.758z"/></mask><path d="M71.376 44.764l.413.17.31-.758-.413-.17-.31.758z" fill="#EDDFCA"/><path d="M71.79 44.933l-.38.925.925.38.38-.925-.926-.38zm-.414-.17l-.926-.379-.379.926.925.379.38-.925zm.31-.756l.38-.926-.926-.38-.38.926.926.38zm.414.17l.925.378.38-.925-.926-.38-.38.926zm.069-.17l-.414-.169-.759 1.85.414.17.759-1.85zm.132 1.136l.31-.757-1.85-.759-.31.757 1.85.759zm-.994-.211l.413.17.759-1.851-.414-.17-.758 1.85zm-.133-1.135l-.31.757 1.85.759.311-.758-1.85-.758z" fill="#fff" mask="url(#l)"/><mask id="m" fill="#fff"><path d="M71.796 44.931l.641.263.31-.757-.64-.263-.31.757z"/></mask><path d="M71.796 44.931l.641.263.31-.757-.64-.263-.31.757z" fill="#F2E9DA"/><path d="M72.437 45.194l-.38.925.926.38.38-.926-.926-.379zm-.64-.263l-.926-.38-.38.926.926.38.38-.926zm.31-.757l.379-.925-.925-.38-.38.926.926.379zm.64.263l.926.38.38-.926-.926-.38-.38.926zm.07-.168l-.641-.263-.76 1.85.642.263.759-1.85zm-.096 1.041l.31-.757-1.85-.758-.31.757 1.85.758zm-.994-.21l.641.262.76-1.85-.642-.263-.759 1.85zm.096-1.043l-.31.758 1.85.758.31-.757-1.85-.759z" fill="#fff" mask="url(#m)"/><mask id="n" fill="#fff"><path d="M68.768 53.922l-.552.635.052-.84.193.239.307-.034z"/></mask><path d="M68.768 53.922l-.552.635.052-.84.193.239.307-.034z" fill="#DB3F2A"/><path d="M68.768 53.922l.8.6 1.386-1.847-2.296.253.11.994zm-.552.635l-.998-.062-.184 2.943 1.936-2.224-.754-.657zm.052-.84l.778-.628-1.616-1.999-.16 2.565.998.062zm.193.239l-.777.629.344.425.543-.06-.11-.994zm-.493-.634a.826.826 0 0 1 .02-.025l.007-.01.007-.007.003-.005-.002.003-.016.019-.062.072-.19.217-.188.217-.062.07a.139.139 0 0 1-.017.02l-.005.006-.001.001.754.657.754.657.002-.002a.15.15 0 0 0 .004-.005l.018-.02.062-.071.189-.217a244.403 244.403 0 0 0 .254-.293l.02-.023.008-.01.006-.007.007-.009a.417.417 0 0 0 .009-.01l.02-.025-1.601-1.2zm1.246 1.298l.052-.84-1.996-.125-.052.84 1.996.125zm-1.723-.274l.193.239 1.555-1.258-.193-.238-1.555 1.257zm1.08.604l.307-.034-.22-1.988-.306.034.22 1.988z" fill="#fff" mask="url(#n)"/><path d="M74.187 51.923l-.208.021c-.1.01-.194.016-.27.018-.037 0-.08 0-.12-.002h-.003a.61.61 0 0 1-.217-.054 8.263 8.263 0 0 1-.215-.109l-.085-.044a11.327 11.327 0 0 0-.41-.202c-.313-.145-.6-.251-.785-.273-.288-.035-.652-.135-.948-.216l-.091-.025a7.577 7.577 0 0 0-.423-.107 1.327 1.327 0 0 0-.127-.021 4.315 4.315 0 0 0-.238.096c-.156.068-.345.156-.538.246l-.1.047c-.156.074-.312.147-.442.206a6.248 6.248 0 0 1-.217.095 1.198 1.198 0 0 1-.212.068.581.581 0 0 0-.086.05 1.91 1.91 0 0 0-.12.09 4.094 4.094 0 0 1-.084.066.653.653 0 0 1-.15.082 1.301 1.301 0 0 1-.097.033c-.06.019-.132.037-.205.055-.087.022-.192.046-.3.071l-.211.05a8.821 8.821 0 0 0-.5.13c-.06.018-.108.034-.145.048a1.015 1.015 0 0 0 .012.456l.053.058.033.112-.48.14.48-.139v.003l.002.004.002.007.004.016a.508.508 0 0 1 .013.116.614.614 0 0 1-.027.188.774.774 0 0 1-.206.325l-.001.003a.558.558 0 0 0-.056.19l-.001.014a.267.267 0 0 0 .043.066l.052.004-.044.498.044-.498h.006l.01.002a.777.777 0 0 1 .126.021.768.768 0 0 1 .155.055.563.563 0 0 1 .312.412.65.65 0 0 1 .007.155l-.002.046-.002.08c0 .089.008.147.02.18m6.992-2.933l-4.695 3.692-.063-.01-.063.007-1.234.121a.371.371 0 0 1-.152-.006m6.207-3.804v2.641l-.045.017a.783.783 0 0 0-.13.063 15.467 15.467 0 0 1-.803.27l-.115.033-.017.005a.664.664 0 0 0-.161.052 1.262 1.262 0 0 0-.093.048 3.242 3.242 0 0 0-.168.104 10.88 10.88 0 0 0-.23.156l-.012.003c-.05.012-.125.028-.22.046-.187.036-.432.078-.687.119l-.742.117-.46.072c-.071.013-.25.009-.464-.012a6.848 6.848 0 0 1-.323-.038l-.02-.003h-.004v-.001l4.694-3.692zm-6.992 2.933a.034.034 0 0 0 .003.005l-.003-.003-.001-.002-.467.176.466-.177-.002-.001.003.001.001.001zm0 0c.016.007.082.03.236.017l.675-.062-.14.66m0 0v-.001.003-.003zm0 0l-.002.012a.511.511 0 0 0 .016.244m0 0a.055.055 0 0 1-.005-.002m.005.002a.06.06 0 0 0 .002.003m-.007-.005l-.002-.001h.002zm0 0h.001a.034.034 0 0 1 .006.005m0 0zm4.475-.427h-.002a.093.093 0 0 1 .002 0zm-5.8-2.489v-.002.002zM.627 58.977V55.91h136v3.067h-136zm31.148-8.064l.085 3.845-19.1.006c-.77 0-1.38-.61-1.38-1.341v-1.169c0-.731.608-1.341 1.38-1.341h19.015z" fill="#369CB7" stroke="#fff"/><path d="M21.008 50.916h.5v-.003h8.556a53.02 53.02 0 0 0-.712.769l-.14.154-.04.043-.01.011-.002.003h-.001v.001l.37.336-.37-.336-.182.2.068.262.625 2.402h-8.662c-.727 0-1.297-.574-1.297-1.26v-1.322c0-.686.57-1.26 1.297-1.26z" fill="#B75742" stroke="#fff"/><path d="M32.054 52.828c0 .715.11 1.244.267 1.635h-11.06c-.644 0-1.15-.51-1.15-1.118V52.33c0-.61.506-1.118 1.15-1.118h11.124a3.92 3.92 0 0 0-.331 1.617z" fill="#369CB7" stroke="#fff"/><path d="M20.13 52.119c.101-.51.562-.907 1.13-.908h.312a3.886 3.886 0 0 0-1.441.908z" fill="#DAEEF7" stroke="#fff"/><mask id="o" fill="#fff"><path d="M24.045 52.728l-.85 1.513-.766-1.513h1.616z"/></mask><path d="M24.045 52.728l-.85 1.513-.766-1.513h1.616z" fill="#13375B"/><path d="M24.045 52.728l.872.49.837-1.49h-1.709v1zm-.85 1.513l-.893.452.846 1.671.918-1.633-.871-.49zm-.766-1.513v-1h-1.627l.735 1.452.892-.452zm.744-.49l-.85 1.513 1.743.98.85-1.513-1.743-.98zm.914 1.552l-.766-1.513-1.784.903.765 1.513 1.785-.903zm-1.658-.062h1.616v-2h-1.616v2z" fill="#fff" mask="url(#o)"/><mask id="p" fill="#fff"><path d="M19.61 52.728h12.949v-.122c0-.017-12.949 0-12.949 0v.122z"/></mask><path d="M19.61 52.728h12.949v-.122c0-.017-12.949 0-12.949 0v.122z" fill="#DAEEF7"/><path d="M32.559 52.728v1h1v-1h-1zm-12.949-.122l-.001-1-.999.002v.998h1zm0 1.122h12.949v-2H19.61v2zm12.949-1h1v-.121h-2v.122h1zm1-.122c-.118-.471-.56-.898-.684-.949a1.83 1.83 0 0 0-.153-.037.793.793 0 0 0-.084-.01l-.048-.004a3.635 3.635 0 0 0-.168-.002l-.416-.002c-.355-.002-.862-.002-1.47-.003a3599.435 3599.435 0 0 0-8.904.005l-1.467.002h-.556l.001 1 .001 1h.557l1.467-.002a10041.595 10041.595 0 0 1 8.901-.005 649.612 649.612 0 0 1 1.968.006h.007l-.035-.002a.808.808 0 0 1-.08-.01 1.79 1.79 0 0 1-.152-.038c-.123-.05-.566-.477-.684-.949h2zm-14.949 0v.122h2v-.122h-2z" fill="#fff" mask="url(#p)"/></g><defs><clipPath id="a"><path fill="#fff" transform="translate(.127 .889)" d="M0 0h137v137H0z"/></clipPath></defs></svg>