<svg width="144" height="145" viewBox="0 0 144 145" fill="none" xmlns="http://www.w3.org/2000/svg"><path d="M75.988 112.647v-.002c-.73-10.814-1.141-17.663-1.416-22.234-.48-7.975-.542-9.02-1.15-12.103-.942-4.809-2.743-9.481-4.314-12.956a74.357 74.357 0 0 0-2.38-4.802 3.189 3.189 0 0 1-.38.468c-.44.453-1.041.842-1.716 1.154-1.348.624-3.079.981-4.648.872a5.411 5.411 0 0 1-3.287-1.422 4.696 4.696 0 0 1-.925-1.155 3.364 3.364 0 0 1-.188-.399c-.311.232-.735.562-1.236.977a42.106 42.106 0 0 0-3.822 3.593c-1.382 1.478-2.747 3.18-3.764 4.969-1.02 1.792-1.674 3.642-1.676 5.427l30.902 37.613zm0 0c.041.581-.31 1.084-.8 1.236-1.144.352-2.413.624-4.411 1.053-.72.155-1.532.329-2.468.535m7.68-2.824l-7.68 2.824m0 0c-3.27.721-7.68 1.362-13.102 1.396m13.102-1.396l-13.102 1.396m0 0c-4.28.029-7.207-.739-9.052-1.5a11.533 11.533 0 0 1-1.996-1.04 6.095 6.095 0 0 1-.559-.42m11.607 2.96l-11.607-2.96m0 0l.001-.107c.009-.3.058-.8.139-1.616v-.013c.162-1.63.434-4.41.693-9.001.174-3.109.343-7.05.463-12.027.11-4.478.183-9.797.19-16.109L43.6 113.907z" fill="#369CB7" stroke="#fff" stroke-width=".951"/><path d="M54.92 59.776a50.6 50.6 0 0 0-1.141 1.598 61.42 61.42 0 0 0-3.721 6.16c-2.614 4.98-5.109 11.547-4.51 17.787-.726 1.035-1.398 2.395-2.03 3.737-.129.272-.256.544-.381.813-.532 1.14-1.039 2.226-1.544 3.1-.311.537-.608.97-.89 1.27-.29.31-.516.428-.68.448-.133.017-.324-.02-.593-.297-.279-.287-.596-.79-.94-1.593-.664-1.543-.863-3.927-.715-6.757.148-2.812.634-5.998 1.287-9.104a83.548 83.548 0 0 1 2.279-8.581c.813-2.482 1.6-4.354 2.179-5.215.539-.802 1.538-1.442 2.817-1.938 1.268-.492 2.749-.82 4.172-1.035a37.813 37.813 0 0 1 4.41-.393zm1.348-.989l.001-.02v-.02l-.007-1.13-.028-5.701 1.898-.33 7.364.156a13.22 13.22 0 0 0-.083 1.656v.001c.029 1.78.375 3.968.74 6.063.018.573-.126 1.045-.393 1.432-.274.4-.696.736-1.264.993-1.148.52-2.834.69-4.836.437-1.883-.237-2.696-1.144-3.068-1.945a3.615 3.615 0 0 1-.326-1.57l.002-.02v-.002zm13.961 28.135c.319.188.473.515.46 1.037-.015.535-.21 1.192-.51 1.864a11.278 11.278 0 0 1-1.022 1.806 6.87 6.87 0 0 1-.469.606 2.38 2.38 0 0 1-.168.175c-.042.038-.062.05-.061.05h.001c-.108.058-.417.153-.892.265-.452.107-.997.216-1.531.315a58.772 58.772 0 0 1-1.749.295l-.914-2.99.004-.004c.153-.129.376-.312.649-.529a27.9 27.9 0 0 1 2.104-1.523c.813-.528 1.667-1.002 2.429-1.271.79-.279 1.345-.288 1.669-.096z" fill="#369CB7" stroke="#fff" stroke-width=".951"/><path d="M64.94 93.396l.007.082c-4.903 1.064-10.926 1.403-15.787 1.47-2.489.035-4.665 0-6.218-.046a118.035 118.035 0 0 1-2.082-.078 17.89 17.89 0 0 1-.059-.748 16.44 16.44 0 0 1 .043-2.582c.098-.96.308-1.914.698-2.672.386-.75.93-1.282 1.704-1.484.41-.106 1.016-.159 1.79-.156.768.002 1.671.058 2.66.153 1.978.19 4.272.536 6.457.914a186.506 186.506 0 0 1 8.092 1.593l.13.03c1.407.622 2.041 1.607 2.333 2.436.15.423.21.81.233 1.088zm-2.429-7.86c-.185 2.336.553 4.082.883 4.732 4.18-.831 8.019-3.908 11.01-7.734 2.418-3.096 4.247-6.64 5.226-9.768.49-1.564.762-3.01.796-4.233.033-1.232-.176-2.189-.595-2.824-.75-1.137-1.933-2.082-3.323-2.858-1.387-.775-2.952-1.366-4.43-1.81a35.653 35.653 0 0 0-4.968-1.1v.01a103.627 103.627 0 0 1-.135 6.67c-.214 4.015-.735 8.917-1.983 12.296l-2.48 6.619zm0 0c.108-1.37.535-2.955 1.563-4.656l-1.563 4.656z" fill="#369CB7" stroke="#fff" stroke-width=".951"/><path d="M56.091 54.134a15.476 15.476 0 0 1-.679-.116h-.002c-.216-.068-.475-.319-.716-.909-.167-.41-.303-.928-.408-1.53.958.507 1.453 1.38 1.71 1.847v.003c.02.034.058.155.08.405.007.092.012.193.015.3zm-.697-.12z" fill="#EA8888" stroke="#fff" stroke-width=".951"/><path d="M66.176 51.837c.18-1.03.387-2.02.578-2.94.121-.58.236-1.134.336-1.654.262-1.369.425-2.534.363-3.528-.06-.98-.336-1.764-.932-2.404-.605-.649-1.585-1.197-3.148-1.604l2.803 12.13zm0 0c-.43 2.461-1.734 3.662-3.232 4.24-1.539.592-3.324.54-4.683.378h-.002m7.917-4.617l-7.917 4.617m0 0a13.6 13.6 0 0 1-1.322-.253 30.888 30.888 0 0 1-.719-.175l-.003-.001m2.044.429l-2.044-.43m0 0c-.717-.406-1.662-1.514-1.87-3.255-.221-1.864-.236-4.174-.118-6.199a31.58 31.58 0 0 1 .263-2.708c.114-.777.246-1.34.372-1.636.438-1.033 1.035-2.02 2.226-2.586 1.204-.571 3.114-.758 6.284.066l-7.157 16.319z" fill="#369CB7" stroke="#fff" stroke-width=".951"/><path d="M53.804 46.67c.101-.563.245-1.279.46-2.33l.037-.177.142-.112c.105-.083.227-.238.365-.477.135-.234.262-.507.396-.8l.026-.057c.123-.268.253-.552.39-.798.14-.253.323-.532.569-.71m-2.385 5.461l4.618-6.82c-.392-.123-.75-.139-1.07-.018a1.4 1.4 0 0 0-.66.552c-.095.14-.183.31-.252.441l-.062.118c-.09.165-.147.234-.19.266m-2.384 5.461l-.026-.152c-.244-1.423-.424-3.058-.246-4.126l-.493-.086.493.086c.043-.263.083-.562.124-.87l.032-.235c.053-.396.112-.808.19-1.214.156-.826.378-1.566.73-2.068a.816.816 0 0 0 .129-.322.99.99 0 0 0 .014-.126.607.607 0 0 0 .284-.2m-1.231 9.313l.837-9.624m1.547 4.163l.297.405-.297-.405zm2.087-.881l.147-.477c1.217.385 3.806.76 5.43.668m-5.577-.191l10.001-1.132c.839 1.601.794 2.92.652 5.47-.022.404-.172.982-.41 1.653a24.81 24.81 0 0 1-.96 2.286c.05-.561.074-1.151.033-1.667a3.686 3.686 0 0 0-.144-.809c-.077-.24-.2-.495-.412-.682 0 0-.02-.019-.045-.086a1.44 1.44 0 0 1-.07-.303 8.573 8.573 0 0 1-.053-.985v-.015a9.606 9.606 0 0 0-.064-1.108c-.047-.336-.145-.749-.426-1.033-.11-.111-.203-.212-.297-.315l-.171-.184a4.043 4.043 0 0 0-.508-.468c-.407-.304-.883-.47-1.549-.431m-5.577-.191c1.272.403 3.922.787 5.61.69m-5.61-.69l5.61.69m-.033-.5l.033.5m-.033-.5l.033.5m-8.85-3.661l-.394-.31m.394.31l-.394-.31m.394.31a.655.655 0 0 0 .143-.514.6.6 0 0 0-.065-.189m-.472.392c.058-.074.06-.136.01-.187.158-.103.322-.167.462-.205m0 0c.151-.04.275-.051.336-.049h.013a.968.968 0 0 0 .577-.202c.147-.106.277-.246.388-.392.056-.073.11-.151.161-.234m-1.475.877l1.475-.877m0 0a.84.84 0 0 0 .361.056 1.38 1.38 0 0 0 .578-.19c.166-.094.335-.215.496-.342.21-.165.44-.366.659-.558l.313-.272c.104-.088.2-.167.289-.237a.73.73 0 0 0 .155.087c.16.065.329.07.452.066.133-.005.275-.025.411-.048.139-.024.318-.062.493-.099l.173-.036a.661.661 0 0 0 .021.218.549.549 0 0 0 .705.388l-5.106.967zm11.164 1.463a8.656 8.656 0 0 0-.239-.039c-.066-.01-.135-.02-.198-.032a1.641 1.641 0 0 1-.22-.054.703.703 0 0 1-.303-.19c-.197-.218-.168-.484-.14-.61l.006-.021a.95.95 0 0 1-.188.002.576.576 0 0 1-.427-.248l.415-.276m1.294 1.468l-1.178-2.305c-.19.043-.418.143-.555.363a.664.664 0 0 0-.01.018c.188.01.397.046.62.123-.2.065-.26.202-.171.333m1.294 1.468a.912.912 0 0 0-.119.285.657.657 0 0 0-.003.278c.024.11.11.324.36.406l-.238-.969zm-1.294-1.468c.03.047.16.025.341-.005l.107-.017-.448.022zm1.757 2.52a1.216 1.216 0 0 0 .061.903l-.061-.903zm0 0a3.057 3.057 0 0 0-.225-.083l.225.083zm-5.386-4.136l-.103.058a5.081 5.081 0 0 0-.292.191 7.49 7.49 0 0 1-.163.11 2.352 2.352 0 0 1-.576.295l1.134-.654zm0 0a1.466 1.466 0 0 0-.048.392.71.71 0 0 0 .11.372.555.555 0 0 0 .664.21l-.726-.974zm-8.71 2.48c.114-.022.209-.027.274-.031h.002l.06-.004-.005.001a.361.361 0 0 0-.187.114l-.143-.08zm10.87-1.646l.003-.004a.017.017 0 0 0-.003.004zm-.965-.063l-.127.057c-.108.048-.23.103-.341.146l.469-.203zm2.755.991l.005-.002a.018.018 0 0 0-.005.002zm-3.591-1.721zm-1.23.119l.003-.007a.036.036 0 0 0-.002.007z" fill="#369CB7" stroke="#fff"/><path d="M41.5 40.023c2.139-.926 3.387-3.542 3.323-5.716-.031-1.077-.383-1.95-1.004-2.445-.605-.483-1.581-.698-3.074-.218-2.203.708-3.453 1.723-4.069 2.76-.612 1.028-.634 2.135-.269 3.119.752 2.024 3.048 3.385 5.093 2.5zm6.45-.706c.293-.324.482-.301.578-.266.153.055.353.246.498.6.297.724.185 1.635-.446 2.055l-.63-2.39zm0 0c-.655.718-.74 1.603-.532 2.136m.531-2.136l-.531 2.136m0 0c.103.263.257.401.408.45m-.408-.45l.408.45m0 0c.144.047.39.046.754-.197l-.754.197zM22.025 1.538c-5.145-.293-9.232-.226-12.4.283-3.173.51-5.372 1.456-6.8 2.875C1.407 6.105.69 8.04.61 10.669c-.08 2.639.482 5.938 1.594 10.013l-.459.125.459-.125c1.121 4.112 2.829 6.738 4.857 8.392 2.029 1.654 4.425 2.374 6.993 2.587 2.575.214 5.296-.083 7.958-.441.418-.056.835-.114 1.25-.172 2.205-.306 4.35-.604 6.25-.604 4.264 0 6.799-1.82 8.358-4.352 1.582-2.57 2.175-5.906 2.434-8.93.481-5.64-.657-9.284-3.52-11.648-2.908-2.4-7.696-3.575-14.759-3.976z" fill="#369CB7" stroke="#fff" stroke-width=".951"/><path d="M19.715 20.055c0-.75.166-1.368.5-1.854.347-.5.847-1.041 1.5-1.625.5-.444.868-.826 1.104-1.146.25-.333.375-.708.375-1.124 0-.584-.236-1.056-.708-1.417-.473-.361-1.105-.542-1.896-.542-1.5 0-2.632.535-3.396 1.604l-2.02-1.312a5.77 5.77 0 0 1 2.312-1.875c.944-.444 2.055-.667 3.333-.667 1.555 0 2.791.34 3.708 1.021.93.667 1.396 1.59 1.396 2.77 0 .57-.097 1.07-.292 1.5-.18.431-.402.8-.666 1.105-.264.292-.611.632-1.042 1.02-.528.473-.924.89-1.187 1.25-.25.362-.375.792-.375 1.292h-2.646zm1.333 4.98c-.486 0-.889-.153-1.208-.459a1.625 1.625 0 0 1-.459-1.166c0-.459.153-.84.459-1.146.32-.306.722-.459 1.208-.459.472 0 .861.153 1.167.459.32.305.479.687.479 1.146 0 .458-.16.847-.48 1.166-.305.306-.694.459-1.166.459z" fill="#fff"/><path d="M38.77 68.394c.071.089.163.257.262.522.097.257.19.573.276.935.174.722.319 1.589.434 2.441a50.648 50.648 0 0 1 .322 3.163l-2.88 1.39a31.319 31.319 0 0 1-1.382-1.776c-.873-1.21-1.794-2.69-2.139-3.91-.319-1.129.047-2.498.629-3.646.286-.564.61-1.046.892-1.383.142-.17.265-.293.36-.371a.923.923 0 0 1 .062-.048l.053.018c.08.03.188.084.32.161.262.156.58.386.922.665.681.557 1.402 1.265 1.868 1.839zm-3.122-2.708l-.003.001.003-.001z" fill="#369CB7" stroke="#fff"/><path d="M38.601 69.667l-3.198-11.13 5.45-1.705 3.199 11.131-5.45 1.704z" fill="#369CB7" stroke="#fff"/><path d="M42.69 68.389h-.002L37.5 70.011h-.002c-.05.016-.132-.006-.161-.106l-3.107-10.82v-.002c-.03-.103.032-.19.096-.21l5.186-1.622c.05-.016.134.007.163.106l3.108 10.818c.03.11-.036.196-.094.214z" fill="#369CB7" stroke="#fff"/><mask id="a" fill="#fff"><path d="M35.767 67.165l-.015.025.015-.025z"/></mask><path d="M37.91 62.037l.515-1.408h-.001l-.514 1.408zm-2.143 5.128l-1.28-.783 2.558 1.569-1.278-.786zm2.545-3.328l.93-1.177-.003-.002-.927 1.18zm-1.71 4.644l-1.222-.87 2.258 1.955-1.036-1.085zm2.3-1.745l1.474-.278-.001-.005-1.473.283zm-3.955-1.09l1.273.794.002-.001.004-.007.018-.03.072-.114a38.48 38.48 0 0 1 1.112-1.65c.324-.45.633-.847.873-1.105.126-.137.182-.177.172-.17-.004.002-.082.058-.221.104a1.31 1.31 0 0 1-.856-.02l1.028-2.819a1.692 1.692 0 0 0-1.114-.01 2.152 2.152 0 0 0-.552.283 4.232 4.232 0 0 0-.656.59c-.37.399-.766.918-1.11 1.396a38.097 38.097 0 0 0-1.207 1.79l-.08.128-.022.035-.006.01-.002.003 1.272.794zm2.448-2.2a1.246 1.246 0 0 1-.84-1.104c0-.09.016-.071-.043.118-.108.343-.332.849-.627 1.433a39.765 39.765 0 0 1-1.397 2.49l2.559 1.565c.119-.194.88-1.446 1.514-2.7.312-.616.63-1.303.814-1.89.086-.277.185-.658.18-1.048-.003-.339-.12-1.312-1.13-1.681l-1.03 2.817zm-.35 4.505c.095-.155.632-1.023 1.178-1.813.279-.402.53-.74.713-.951.102-.117.124-.127.08-.093-.014.01-.141.108-.355.172-.235.07-.774.145-1.276-.25l1.854-2.358a1.583 1.583 0 0 0-1.436-.267 1.88 1.88 0 0 0-.586.301c-.218.164-.409.37-.546.528-.295.34-.622.789-.914 1.21a47.524 47.524 0 0 0-1.268 1.95l2.556 1.57zm.338-2.936c-.374-.296-.317-.661-.326-.555-.007.092-.057.315-.217.687-.31.723-.864 1.628-1.46 2.463l2.443 1.742c.65-.91 1.343-2.016 1.775-3.023.211-.493.405-1.065.45-1.63.044-.55-.038-1.433-.806-2.039l-1.86 2.355zM36.6 68.48l1.037 1.085v-.001l.004-.004a2.82 2.82 0 0 0 .083-.078 33.142 33.142 0 0 1 .974-.878c.276-.237.504-.417.643-.509.095-.063.04-.012-.106.034a1.342 1.342 0 0 1-.76.011 1.451 1.451 0 0 1-1.048-1.123l2.947-.565a1.549 1.549 0 0 0-1.124-1.21 1.645 1.645 0 0 0-.923.028c-.283.09-.524.245-.648.327-.299.199-.642.48-.931.727a30.501 30.501 0 0 0-1.155 1.044l-.02.02a.528.528 0 0 1-.006.005l-.002.002L36.6 68.48zm.827-1.467c-.028-.148.03-.062-.174.402a9.48 9.48 0 0 1-.734 1.299 20.412 20.412 0 0 1-1.195 1.63l-.018.023a.169.169 0 0 0-.004.005l1.154.957 1.155.958.001-.002.002-.002.008-.01.027-.032.094-.117a23.65 23.65 0 0 0 1.285-1.766c.342-.522.705-1.133.97-1.734.23-.524.53-1.348.377-2.167l-2.948.556zm-1.66.151l2.558 1.566-5.114-3.137 2.555 1.571zm-.016.025l-2.56-1.564 5.114 3.138-2.554-1.574zm-2.544-1.59a.856.856 0 0 1-.009.014l-.001.002 2.554 1.574 2.554 1.574v-.001l.002-.003a3.229 3.229 0 0 1 .018-.03l-5.118-3.13zm2.544 1.59l2.56 1.564.002-.003.009-.015-5.111-3.142-.014.022-.004.007-.002.002v.001l2.56 1.564z" fill="#fff" mask="url(#a)"/><path d="M34.43 66.011l-.56.967.03-.384a503.125 503.125 0 0 1 .236-2.828 209.011 209.011 0 0 1 .29 2.205l.004.04zm3.025 12.099l-.045-.066c.435-.567 1.15-1.001 1.848-1.308a8.926 8.926 0 0 1 1.32-.458l.04-.01c.302.028.89.138 1.729.329.891.202 2.028.486 3.327.83 2.598.688 5.833 1.61 9.03 2.588 3.197.979 6.349 2.01 8.78 2.911 1.218.452 2.246.868 3.007 1.226.38.18.685.34.91.48.11.068.19.125.246.17-.273 2.672-1.517 4.6-3.379 5.673-1.925 1.11-4.591 1.35-7.692.432a32.165 32.165 0 0 1-1.892-.626c-6.41-2.333-10.778-5.472-13.54-8.02a27.7 27.7 0 0 1-2.995-3.207 17.183 17.183 0 0 1-.694-.944z" fill="#369CB7" stroke="#fff"/><path d="M69.415 52.835c1.859-3.054 5.112-5.302 8.671-5.31 6.602-.012 10.488 3.187 12.644 6.795a51.672 51.672 0 0 0 .216.363v.002c.516.866 1.01 1.71 1.488 2.529 4.29 7.336 7.478 12.788 15.803 16.27 10.449 4.373 14.442 12.397 14.243 20.387-.199 8.032-4.636 16.051-11.115 20.33l.276.417-.276-.417c-10.381 6.855-18.763 6.852-25.428 3.215-6.718-3.664-11.802-11.077-15.406-19.269-11.135-25.315-2.42-43.171-1.116-45.312z" fill="#369CB7" stroke="#fff"/><path d="M63.763 141.679a23.873 23.873 0 0 1-.343-.078l3.476-8.272.014-.034.009-.035c.237-.924.327-2.339.322-4.065-.006-1.739-.11-3.839-.279-6.156-.34-4.634-.946-10.167-1.571-15.482a1814.3 1814.3 0 0 0-.77-6.402c-.352-2.907-.676-5.581-.923-7.805-.21-1.893-.364-3.448-.43-4.532a12.546 12.546 0 0 1-.03-1.273c7.745-1.225 22.621-1.602 28.765-1.013.111.01.25.074.41.303.166.236.323.608.455 1.133.264 1.045.397 2.554.419 4.414.043 3.71-.358 8.683-.945 13.82-1.173 10.27-3.081 21.112-3.618 23.621l-.036.165.072.153 5.13 10.915c-5.27 2.704-12.857 2.867-19.276 2.303a85.759 85.759 0 0 1-10.851-1.68zm-.5-54.333z" fill="#369CB7" stroke="#fff"/><path d="M83.292 74.127l-.354 8.898c-.004.094-.007.223-.012.38-.04 1.338-.147 4.83-.78 8.1-.356 1.834-.868 3.549-1.597 4.763-.726 1.21-1.596 1.822-2.678 1.726-.48-.042-.941-.337-1.385-.952-.446-.617-.834-1.506-1.163-2.606-.658-2.197-1.045-5.108-1.266-8.036-.22-2.922-.272-5.833-.269-8.015a120.699 120.699 0 0 1 .047-3.196l9.457-1.062zm6.2 52.294l.495.072v-.004l.002-.012.007-.048.027-.186.102-.717a639.017 639.017 0 0 0 1.496-11.297c.831-6.749 1.694-14.776 1.81-19.808a92.025 92.025 0 0 0-.06-5.56c-.03-.714-.06-1.31-.085-1.735 2.718 1.01 4.421 4.025 5.33 8.335.973 4.613.986 10.503.487 16.355-.498 5.846-1.505 11.618-2.552 15.979-.524 2.182-1.055 4-1.534 5.293-.24.648-.463 1.15-.657 1.495-.098.173-.18.293-.247.37a.547.547 0 0 1-.067.067 2.458 2.458 0 0 1-.571.058 11.26 11.26 0 0 1-1.118-.048c-.888-.074-2.023-.228-3.322-.44-2.596-.423-5.814-1.071-8.955-1.747a465.22 465.22 0 0 1-11.202-2.567l-.645-.156v-.448l-.74.401-5.872 3.189-.427.232.22.433v.001l.002.004.008.016.03.063a12.806 12.806 0 0 1 .42.961c.08.209.15.413.194.588a4.55 4.55 0 0 1-.298-.22 9.155 9.155 0 0 1-.746-.672l-.011-.011-.003-.003h-.001l-.782.611v.002l.003.005.013.021.049.081.172.293c.14.244.319.566.477.884.02.038.037.075.055.111-.31-.251-.661-.563-1.004-.88a50.449 50.449 0 0 1-1.069-1.023l-.272-.271 1.132-4.929 7.866-4.675c4.757-.529 10.159-.033 14.402.604 2.133.32 3.965.675 5.263.95a73.85 73.85 0 0 1 1.516.337l.402.097.103.025.026.007.006.001.001.001.124-.485zm0 0l.495.072-.08.55-.538-.137.123-.485zm-27.37 9.512v-.005.005zm-.4 1.227l-.004-.001a.008.008 0 0 0 .003.001z" fill="#369CB7" stroke="#fff"/><path d="M93.067 94.41c0-3.512-.13-5.624-.26-6.866-.044-.406-.087-.72-.127-.961 3.845.453 6.372 3.761 7.704 8.84 1.368 5.216 1.41 12.115.368 19.055-2.744-.357-6.419-.509-9.25-.386.767-6.72 1.565-14.678 1.565-19.682zm-36.576 2.608c.047-3.898 1.149-6.147 2.449-7.466 1.264-1.283 2.776-1.749 3.876-1.938.02.024.045.06.075.11.124.21.266.563.416 1.066.297.997.593 2.464.88 4.262.575 3.59 1.105 8.423 1.557 13.28a638.96 638.96 0 0 1 1.083 13.378 718.663 718.663 0 0 1 .38 5.657l.018.305-.07.139c-.085.163-.207.394-.358.665-.304.544-.72 1.239-1.181 1.862-.472.638-.947 1.14-1.353 1.365-.196.108-.33.125-.415.111-.074-.012-.188-.058-.329-.252-2.968-4.094-4.76-9.791-5.792-15.713-1.03-5.912-1.293-11.998-1.236-16.83zm0 0l-.5-.006.5.006z" fill="#369CB7" stroke="#fff"/><path d="M55.634 97.018c.046-3.871 1.345-6.115 2.851-7.442 1.475-1.3 3.206-1.77 4.332-1.962.056.07.133.2.224.414.197.46.401 1.174.608 2.11.411 1.861.808 4.503 1.18 7.53.722 5.89 1.338 13.18 1.767 18.868a17.83 17.83 0 0 1-2.056.252h-.008c-2.13.149-4.702 1.325-6.577 2.371-1.93-7.331-2.395-15.924-2.32-22.14zm7.14-9.45zm42.766 14.129c.455-.295.874-.527 1.18-.685l.122-.062c.118.196.262.444.389.688.078.15.143.286.19.4a2.271 2.271 0 0 0-.157.077c-.192.099-.418.24-.664.407-.492.334-1.098.796-1.72 1.307-1.235 1.014-2.59 2.263-3.284 3.132-.605.759-1.423 1.415-2.112 1.892.25-.595.565-1.315.908-2.036.413-.866.86-1.715 1.28-2.347a4.56 4.56 0 0 1 .57-.724c.165-.16.249-.185.259-.188h.001c.824-.048 1.388-.411 1.848-.811.152-.132.303-.278.443-.414l.174-.166c.193-.184.375-.342.573-.47zm1.968.608l-.001-.006a.028.028 0 0 1 .001.006z" fill="#369CB7" stroke="#fff"/><path d="M106.056 95.861l-.014-.064-2.389.58-.136.033-.099.104-2.139 2.234-.731.763 1.022.11 3.642.387.29.253 1.013 3.345-.004.034a23.01 23.01 0 0 1-.211 1.494c-.068.38-.146.736-.231 1.001l-.854-.099.484.062m.357-10.237l-3.736-.97s-2.704 3.117-3.375 3.44c-.67.324-.962.755-1.468 1.607-.125.21-.353.642-.644 1.193-.893 1.69-2.38 4.504-3.295 5.486 0 0-9.166 4.205-10.889 4.808l.152.486c-.397.139-1.359.591-2.655 1.238a238.53 238.53 0 0 0-4.478 2.304c-3.231 1.7-6.573 3.525-7.919 4.344l-.242-.443.242.443c-.374.228-.912.766-1.514 1.535a21.38 21.38 0 0 0-1.752 2.659c-.544.97-1 1.961-1.277 2.829-.286.898-.343 1.557-.218 1.932v.001c.172.52.361.954.654 1.263.273.289.675.508 1.364.51.709.003 1.712-.225 3.144-.854 1.426-.626 3.248-1.637 5.583-3.167 1.181-.774 6.316-4.302 11.246-7.72a1249.41 1249.41 0 0 0 6.708-4.678 280.46 280.46 0 0 0 2.254-1.598c.282-.203.51-.37.678-.494l.2-.152.058-.047.02-.016v-.001a2.58 2.58 0 0 1 .758-.472c.177-.078.38-.153.58-.227l.258-.097c.577-.22 1.212-.504 1.867-1.079.731-.641 1.209-1.767 1.502-2.813a12.635 12.635 0 0 0 .352-1.717l.013-.106.003-.026v-.007l.039-.39.368-.065 2.731-.482.227-.04.173.158 1 .919.175.16-.009.244v.004l-.001.015-.001.061a7.969 7.969 0 0 0 .033.903c.012.119.027.229.044.328.02-.06.039-.126.057-.196a5.785 5.785 0 0 0 .147-.812l.001-.011v-.006l.001-.005v-.003l.484.061m.357-10.237c.036-.048.067-.076.077-.077h.042l.022.001.089.001c.077 0 .188 0 .319-.007a4.58 4.58 0 0 0 .887-.125c.315-.084.489-.192.555-.28a.144.144 0 0 0 .032-.092.349.349 0 0 0-.004-.05l-2.019.629zm-.357 10.237l.37.039-.37-.039zm.565-9.8h.151a.726.726 0 0 0-.144-.499l-.007.5zm-1.415 11.115c-.001-.001.002-.003.006-.007l-.006.007zm.267.018l.008.011c0 .001-.003-.002-.008-.011zm.441-2.332h.002-.002z" fill="#369CB7" stroke="#fff"/><mask id="b" fill="#fff"><path d="M105.886 105.547c.016-.158.037-.314.058-.47l.07-.467.077-.464.085-.463.009.093c-.088-.177-.17-.357-.256-.535-.086-.178-.168-.358-.251-.538a54.89 54.89 0 0 1-.477-1.085l.109.093-.631-.18-.628-.193c-.208-.069-.418-.134-.625-.208a13.226 13.226 0 0 1-.62-.229c.217.026.432.058.647.095.215.035.429.078.643.117l.64.133.638.145.073.016.035.077a43.551 43.551 0 0 1 .716 1.629c.074.183.153.365.226.549l.02.052-.011.04-.124.452-.132.449-.141.447c-.047.149-.097.298-.15.445z"/></mask><path d="M105.886 105.547c.016-.158.037-.314.058-.47l.07-.467.077-.464.085-.463.009.093c-.088-.177-.17-.357-.256-.535-.086-.178-.168-.358-.251-.538a54.89 54.89 0 0 1-.477-1.085l.109.093-.631-.18-.628-.193c-.208-.069-.418-.134-.625-.208a13.226 13.226 0 0 1-.62-.229c.217.026.432.058.647.095.215.035.429.078.643.117l.64.133.638.145.073.016.035.077a43.551 43.551 0 0 1 .716 1.629c.074.183.153.365.226.549l.02.052-.011.04-.124.452-.132.449-.141.447c-.047.149-.097.298-.15.445z" fill="#369CB7"/><path d="M105.886 105.547l-.969-.099 1.88.459-.911-.36zm.058-.47l-.963-.154-.001.008-.001.009.965.137zm.07-.467l-.96-.171-.002.008-.001.009.963.154zm.077-.464l-.957-.189-.001.009-.002.008.96.172zm.085-.463l.969-.112-1.926-.077.957.189zm.009.093l-.863.481 1.833-.593-.97.112zm-.256-.535l-.871.466.001.001.87-.467zm-.251-.538l-.88.444.003.008.877-.452zm-.477-1.085l.62-.795-1.511 1.216.891-.421zm.109.093l-.261.989.88-1.783-.619.794zm-.631-.18l-.277.984.008.002.009.003.26-.989zm-.628-.193l-.298.978.01.003.011.003.277-.984zm-.625-.208l.319-.97-.013-.004-.306.974zm-.62-.229l.117-1.018-.466 1.976.349-.958zm.647.095l-.163 1.012.009.001.154-1.013zm.643.117l.194-1.005-.011-.002-.011-.002-.172 1.009zm.64.133l.21-1.001-.008-.002-.008-.002-.194 1.005zm.638.145l-.21 1.002.005.001.205-1.003zm.073.016l.876-.453-.207-.447-.464-.103-.205 1.003zm.035.077l-.876.452v.002l.876-.454zm.485 1.082l.888-.427v-.002l-.888.429zm.457 1.096l-.901.398.001.002.9-.4zm.02.052l.937.279.095-.347-.132-.332-.9.4zm-.011.04l.936.281v-.001l-.936-.28zm-.124.452l.931.298.002-.009.003-.008-.936-.281zm-.132.449l.925.316.003-.009.003-.009-.931-.298zm-.141.447l.924.324.002-.008-.926-.316zm.82.544c.013-.134.031-.269.053-.432l-1.93-.274c-.02.148-.045.327-.062.508l1.939.198zm.051-.415l.07-.467-1.926-.308-.07.467 1.926.308zm.067-.449l.077-.465-1.92-.343-.077.465 1.92.343zm.074-.448l.085-.463-1.914-.377-.085.463 1.914.377zm-1.841-.539l.009.093 1.939-.224-.01-.093-1.938.224zm1.842-.499c-.087-.173-.149-.312-.25-.522l-1.74.934c.071.147.172.368.263.549l1.727-.961zm-.25-.521a31.34 31.34 0 0 1-.243-.523l-1.755.903c.08.173.167.364.257.552l1.741-.932zm-.24-.515c-.161-.356-.317-.71-.467-1.064l-1.782.843c.159.374.323.744.488 1.108l1.761-.887zm-1.978.152l.109.093 1.239-1.588-.108-.094-1.24 1.589zm.989-1.69l-.631-.18-.52 1.978.63.18.521-1.978zm-.614-.175l-.628-.192-.554 1.967.628.193.554-1.968zm-.607-.186c-.233-.077-.409-.131-.604-.201l-.637 1.941c.219.078.462.154.645.215l.596-1.955zm-.617-.205a13.497 13.497 0 0 1-.577-.214l-.698 1.917c.22.088.44.17.664.246l.611-1.949zm-1.043 1.763c.201.024.401.054.601.089l.326-2.023c-.229-.04-.46-.074-.693-.102l-.234 2.036zm.61.09c.204.033.391.071.625.114l.344-2.019c-.193-.036-.434-.084-.661-.12l-.308 2.025zm.603.109l.64.134.388-2.011-.64-.133-.388 2.01zm.624.13l.638.145.421-2.004-.639-.144-.42 2.003zm.643.146l.073.016.41-2.006-.072-.016-.411 2.006zm-.599-.534l.036.076 1.753-.905-.036-.077-1.753.906zm.036.078c.162.348.319.7.474 1.058l1.775-.859a48.912 48.912 0 0 0-.497-1.107l-1.752.908zm.473 1.056c.079.182.153.354.222.525l1.794-.812a25.044 25.044 0 0 0-.24-.568l-1.776.855zm.222.525c.09.222.148.352.222.541l1.801-.795c-.071-.18-.17-.414-.229-.558l-1.794.812zm.223.543l.021.052 1.799-.8-.021-.051-1.799.799zm-.016-.627l-.011.04 1.872.559.012-.041-1.873-.558zm-.011.039l-.125.452 1.873.561.124-.452-1.872-.561zm-.12.434l-.132.45 1.863.595.132-.449-1.863-.596zm-.126.431l-.14.448 1.851.631.14-.447-1.851-.632zm-.138.44c-.046.144-.091.279-.138.408l1.822.72c.06-.165.113-.328.163-.481l-1.847-.647z" fill="#fff" mask="url(#b)"/><path d="M71.786 55.135c-.004.009-.008.018-.011.029-.037.095-.09.242-.154.44a18.57 18.57 0 0 0-.477 1.824c-.349 1.638-.702 4.128-.702 7.506 0 6.76 1.589 10.472 4.518 12.61l-3.174-22.41zm0 0c3.311-2.788 5.909-4.115 7.936-4.498 2.014-.38 3.486.166 4.606 1.197 1.145 1.054 1.952 2.644 2.528 4.385.574 1.733.904 3.566 1.125 5.058l.495-.073-.495.073c.43 2.9-.096 6.435-1.133 9.538-.518 1.547-1.157 2.973-1.854 4.144-.702 1.179-1.445 2.07-2.157 2.583-1.635 1.18-4.987 2.11-7.877.002l-3.174-22.41z" fill="#369CB7" stroke="#fff"/><path d="M76.12 48.464l.007-.002h.023l.059-.014h.001l.01-.003.046-.01c.042-.01.107-.022.191-.038.17-.03.42-.07.736-.102a12.21 12.21 0 0 1 2.546.01c2.046.224 4.615 1.04 6.761 3.405 2.022 2.229 2.965 5.49 3.385 8.372-.145-.228-.37-.489-.708-.558-.438-.089-.774.185-.988.463-.244.317-.731.57-1.406.714a6.707 6.707 0 0 1-2.094.082c-.696-.08-1.23-.255-1.49-.44a.454.454 0 0 1-.107-.097.446.446 0 0 1 .081-.104c.44-.45.77-1.133 1.024-1.843a16.86 16.86 0 0 0 .61-2.284 29.59 29.59 0 0 0 .416-2.758l.005-.046.001-.012v-.004l-.498-.046.499.045-.93-.297v.001l-.002.002-.005.008-.02.033a33.911 33.911 0 0 1-.367.61c-.249.407-.6.97-1.012 1.592-.827 1.255-1.874 2.721-2.796 3.663-.38.388-.927.624-1.609.744-.68.12-1.454.118-2.238.062-.573-.04-1.129-.108-1.65-.17a70.92 70.92 0 0 0-.567-.067 12.635 12.635 0 0 0-.921-.077 2.821 2.821 0 0 0-.767.055c-.49.124-.908.546-1.232.957-.343.437-.663.974-.934 1.483a17.83 17.83 0 0 0-.347.688c-.126-.55-.258-1.24-.353-2.01-.241-1.956-.23-4.371.693-6.385.935-2.04 2.383-3.456 3.642-4.365a10.99 10.99 0 0 1 1.64-.985c.217-.105.395-.179.523-.225.065-.024.112-.039.142-.047zm6.965 11.8l.002-.005c0 .004-.001.005-.002.005zm-6.942-11.806h-.001zm27.726 3.248c-2.057-.89-3.263-3.412-3.201-5.51.03-1.038.369-1.872.96-2.343.574-.458 1.506-.668 2.947-.206 2.131.685 3.335 1.666 3.927 2.661.587.987.608 2.049.257 2.994-.723 1.95-2.931 3.252-4.89 2.404zm-6.303-.624c-.278-.306-.445-.275-.52-.248-.133.049-.322.223-.46.562-.284.693-.173 1.553.418 1.947l.562-2.26zm0 0c.626.687.705 1.53.508 2.033m-.508-2.033l.508 2.033m0 0c-.096.247-.24.371-.371.414m.371-.414l-.371.414m0 0c-.126.04-.352.044-.699-.186l.699.186zm25.05-39.094c4.991-.284 8.954-.219 12.025.275 3.074.494 5.199 1.41 6.577 2.779 1.366 1.358 2.06 3.226 2.138 5.77.078 2.554-.468 5.751-1.546 9.705l.483.131-.483-.131c-1.086 3.984-2.74 6.525-4.7 8.123-1.961 1.599-4.278 2.295-6.764 2.502-2.495.207-5.132-.08-7.714-.428-.405-.054-.81-.11-1.212-.166-2.14-.298-4.225-.587-6.072-.587-4.123 0-6.571-1.759-8.076-4.205-1.531-2.486-2.106-5.716-2.356-8.649-.468-5.467.636-8.987 3.401-11.269 2.812-2.32 7.446-3.46 14.299-3.85z" fill="#369CB7" stroke="#fff"/><path d="M122.614 34.04c0-.864.192-1.576.576-2.136.4-.576.976-1.2 1.728-1.872.576-.512 1-.953 1.272-1.32.288-.384.432-.817.432-1.296 0-.672-.272-1.216-.816-1.633-.544-.416-1.272-.623-2.184-.623-1.728 0-3.032.616-3.912 1.848l-2.328-1.512a6.648 6.648 0 0 1 2.664-2.16c1.088-.512 2.368-.768 3.84-.768 1.792 0 3.216.391 4.272 1.175 1.072.769 1.608 1.833 1.608 3.193 0 .655-.112 1.232-.336 1.727-.208.497-.464.92-.768 1.273a17.15 17.15 0 0 1-1.2 1.175c-.608.544-1.064 1.024-1.368 1.44-.288.416-.432.913-.432 1.488h-3.048zm1.536 5.736c-.56 0-1.024-.177-1.392-.529a1.872 1.872 0 0 1-.528-1.343c0-.529.176-.969.528-1.32.368-.353.832-.529 1.392-.529.544 0 .992.176 1.344.529.368.351.552.791.552 1.32 0 .527-.184.975-.552 1.343-.352.352-.8.529-1.344.529z" fill="#fff"/></svg>