<svg width="176" height="155" viewBox="0 0 176 155" fill="none" xmlns="http://www.w3.org/2000/svg"><path d="M148.19 55.801c-.044-.087-8.648-17.614-8.648-17.614-.328-.673-.667-1.369-1.646-1.73l-53.38-19.651a3.017 3.017 0 0 0-3.87 1.786l-3.196 8.683-20.001-3.701a2.97 2.97 0 0 0-3.445 2.382l-1.094 5.919c-6.873-.194-13.933-.384-20.795-.438a2.983 2.983 0 0 0-2.982 2.941l-.282 37.954a1.763 1.763 0 1 0 3.524.027l.278-37.393c6.462.058 13.113.234 19.608.416L45.748 70.6l-7.506 40.556a2.984 2.984 0 0 0 2.38 3.45l18.826 3.48 14.71 2.722-23.565-.181-18.583-.141.306-40.142a1.762 1.762 0 1 0-3.524-.026l-.31 40.712a2.976 2.976 0 0 0 1.941 2.796c.313.115.65.179 1.002.179l19.141.146 43.462.335 7.795 1.442 16.199 5.964a3.02 3.02 0 0 0 3.871-1.793l26.54-72.092c.365-.99.014-1.692-.243-2.205zm-4.525-1.221l-8.274-3.046-.206-.075c-.397-.143-1.327-.478-1.476-.798-.034-.074-.032-.278.092-.613l3.261-8.917 6.603 13.449zm-24.905 73.827L52.9 104.161l11.864-32.226a1.762 1.762 0 0 0-3.307-1.218l-12.038 32.699a3.02 3.02 0 0 0 1.784 3.875L82.25 118.72l-22.16-4.1-18.28-3.379 7.404-40.001 8.156-44.097 18.846 3.487L64.28 63.045a1.762 1.762 0 0 0 3.307 1.217l16.19-43.972 50.373 18.545-3.658 10c-.446 1.212-.438 2.327.023 3.316.708 1.52 2.258 2.178 3.237 2.538l.239.087 10.459 3.85-25.69 69.782z" fill="#fff"/><path d="M83.513 45.592a1.762 1.762 0 0 0 1.044 2.262l47.278 17.405a1.762 1.762 0 1 0 1.217-3.307L85.775 44.547a1.762 1.762 0 0 0-2.263 1.045zM128.727 73.7L81.45 56.294a1.762 1.762 0 0 0-1.218 3.308l47.278 17.405a1.762 1.762 0 1 0 1.217-3.307zm-4.324 11.747L77.125 68.042a1.762 1.762 0 0 0-1.217 3.307l47.277 17.405a1.762 1.762 0 0 0 1.218-3.307zm-4.325 11.747L72.801 79.789a1.762 1.762 0 0 0-1.218 3.307l47.278 17.405a1.762 1.762 0 0 0 1.217-3.307zm-4.325 11.747L68.476 91.536a1.762 1.762 0 0 0-1.218 3.307l47.278 17.405a1.761 1.761 0 1 0 1.217-3.307z" fill="#fff"/><mask id="a" fill="#fff"><path d="M163.919 77.561a1.92 1.92 0 0 0-.346-.313c-.69-.657-1.612-.797-2.3-.332-1.396.948-2.875 1.98-4.306 3.136l-.064-.086a1.566 1.566 0 0 0-.28-.292 2.222 2.222 0 0 0-.73-.592c-.596-.303-1.27-.277-1.773.148a424.071 424.071 0 0 0-5.658 4.914c-1.415 1.244-2.974 2.62-4.64 4.096a5928.37 5928.37 0 0 0-11.912 10.58c-9.158 8.145-18.627 16.568-22.311 19.679a1.542 1.542 0 0 0-.252.274 1.51 1.51 0 0 0-.646.847 1.665 1.665 0 0 0-.339.665c-1.121 4.259-2.518 9.912-3.375 15.863-.165 1.145.587 2.061 1.335 2.419.138.073.273.128.41.166a82.233 82.233 0 0 0 17.479 2.962l.114.004c.322 0 .604-.087.838-.261a1.65 1.65 0 0 0 .316-.222c2.518-2.271 7.904-6.991 14.143-12.457l1.098-.963 4.3-3.771c1.535-1.347 3.08-2.702 4.618-4.054 1.582-1.391 3.148-2.768 4.677-4.117 6.737-5.943 12.69-11.251 15.409-13.859.505-.061.966-.381 1.231-.869.356-.654.296-1.46-.163-2.154l-.158-.236c1.308-1.391 2.711-2.636 4.041-3.796.105-.093.199-.2.284-.328.55-.544.817-1.56.129-2.572a147.746 147.746 0 0 0-11.169-14.479zm7.393 15.068a51.438 51.438 0 0 0-2.935 2.783c-3.02-4.351-6.213-8.586-8.993-12.216a51.669 51.669 0 0 1 2.931-2.189 146.659 146.659 0 0 1 8.997 11.622zm-36.071 8.536l.145-.13c2.966-2.635 5.871-5.216 8.55-7.59 1.627-1.444 3.171-2.811 4.588-4.063 2.298-2.03 4.257-3.755 5.729-5.035.36-.313.701-.608.998-.864.475.618.948 1.237 1.42 1.857l-.925.815c-1.605 1.413-4.148 3.65-7.16 6.298l-4.566 4.01a8397.049 8397.049 0 0 1-7.751 6.799c-6.756 5.92-12.974 11.349-14.869 12.945-.558.47-.724 1.204-.443 1.962.279.752 1.027 1.514 1.92 1.514.357 0 .698-.128.985-.37 2.251-1.896 10.543-9.148 18.615-16.229l1.707-1.497c1.562-1.37 3.093-2.716 4.558-4.002a10760.41 10760.41 0 0 0 10.329-9.086 400.3 400.3 0 0 1 1.476 1.962c-.966.878-2.672 2.376-5.556 4.85a1313.241 1313.241 0 0 1-6.139 5.228 3082.772 3082.772 0 0 1-11.267 9.494c-4.574 3.84-9.984 8.367-16.403 13.723l-.546.455c-.56.467-.728 1.198-.45 1.954.278.755 1.028 1.52 1.926 1.52.356 0 .695-.127.982-.365l.464-.388c6.247-5.212 11.54-9.641 16.039-13.417 1.741-1.461 3.365-2.825 4.872-4.095 1.658-1.395 3.179-2.676 4.575-3.856.831-.702 1.62-1.371 2.365-2.002 6.64-5.625 9.943-8.496 11.493-9.897.257.351.514.704.769 1.058a3404.824 3404.824 0 0 1-14.547 12.731c-1.529 1.329-3.066 2.665-4.578 3.975-1.894 1.64-3.738 3.234-5.463 4.715-4.618 3.968-8.35 7.115-9.657 8.075-.579.426-.779 1.121-.534 1.858.258.776 1.05 1.602 2.007 1.602.334 0 .657-.108.935-.312 1.277-.938 4.833-3.932 9.23-7.705a2396.5 2396.5 0 0 0 3.676-3.166 2871.321 2871.321 0 0 0 14.83-12.907c2.692-2.356 4.952-4.342 6.395-5.61.297.432.594.865.89 1.3-1.466 1.393-3.836 3.545-6.744 6.144a1845.709 1845.709 0 0 1-10.678 9.456c-1.518 1.335-3.057 2.689-4.602 4.045-1.721 1.511-3.44 3.018-5.126 4.496l-2.938 2.576c-5.399 4.732-10.1 8.853-12.526 11.02a102.233 102.233 0 0 1-11.428-16.055c3.821-3.267 13.259-11.651 22.428-19.796zm-15.078 36.396a78.006 78.006 0 0 1-5.428-.808 2.473 2.473 0 0 0-.099-.179c-1.327-2.135-2.876-4.361-4.731-6.797.35-1.625.733-3.277 1.162-5.009a106.788 106.788 0 0 0 9.096 12.793zm-10.193-1.833a96.32 96.32 0 0 1-1.149-.286c.061-.361.123-.721.187-1.08.331.462.65.915.962 1.366zm14.357 5.469l-.001-.012h.001v.012z"/></mask><path d="M163.919 77.561a1.92 1.92 0 0 0-.346-.313c-.69-.657-1.612-.797-2.3-.332-1.396.948-2.875 1.98-4.306 3.136l-.064-.086a1.566 1.566 0 0 0-.28-.292 2.222 2.222 0 0 0-.73-.592c-.596-.303-1.27-.277-1.773.148a424.071 424.071 0 0 0-5.658 4.914c-1.415 1.244-2.974 2.62-4.64 4.096a5928.37 5928.37 0 0 0-11.912 10.58c-9.158 8.145-18.627 16.568-22.311 19.679a1.542 1.542 0 0 0-.252.274 1.51 1.51 0 0 0-.646.847 1.665 1.665 0 0 0-.339.665c-1.121 4.259-2.518 9.912-3.375 15.863-.165 1.145.587 2.061 1.335 2.419.138.073.273.128.41.166a82.233 82.233 0 0 0 17.479 2.962l.114.004c.322 0 .604-.087.838-.261a1.65 1.65 0 0 0 .316-.222c2.518-2.271 7.904-6.991 14.143-12.457l1.098-.963 4.3-3.771c1.535-1.347 3.08-2.702 4.618-4.054 1.582-1.391 3.148-2.768 4.677-4.117 6.737-5.943 12.69-11.251 15.409-13.859.505-.061.966-.381 1.231-.869.356-.654.296-1.46-.163-2.154l-.158-.236c1.308-1.391 2.711-2.636 4.041-3.796.105-.093.199-.2.284-.328.55-.544.817-1.56.129-2.572a147.746 147.746 0 0 0-11.169-14.479zm7.393 15.068a51.438 51.438 0 0 0-2.935 2.783c-3.02-4.351-6.213-8.586-8.993-12.216a51.669 51.669 0 0 1 2.931-2.189 146.659 146.659 0 0 1 8.997 11.622zm-36.071 8.536l.145-.13c2.966-2.635 5.871-5.216 8.55-7.59 1.627-1.444 3.171-2.811 4.588-4.063 2.298-2.03 4.257-3.755 5.729-5.035.36-.313.701-.608.998-.864.475.618.948 1.237 1.42 1.857l-.925.815c-1.605 1.413-4.148 3.65-7.16 6.298l-4.566 4.01a8397.049 8397.049 0 0 1-7.751 6.799c-6.756 5.92-12.974 11.349-14.869 12.945-.558.47-.724 1.204-.443 1.962.279.752 1.027 1.514 1.92 1.514.357 0 .698-.128.985-.37 2.251-1.896 10.543-9.148 18.615-16.229l1.707-1.497c1.562-1.37 3.093-2.716 4.558-4.002a10760.41 10760.41 0 0 0 10.329-9.086 400.3 400.3 0 0 1 1.476 1.962c-.966.878-2.672 2.376-5.556 4.85a1313.241 1313.241 0 0 1-6.139 5.228 3082.772 3082.772 0 0 1-11.267 9.494c-4.574 3.84-9.984 8.367-16.403 13.723l-.546.455c-.56.467-.728 1.198-.45 1.954.278.755 1.028 1.52 1.926 1.52.356 0 .695-.127.982-.365l.464-.388c6.247-5.212 11.54-9.641 16.039-13.417 1.741-1.461 3.365-2.825 4.872-4.095 1.658-1.395 3.179-2.676 4.575-3.856.831-.702 1.62-1.371 2.365-2.002 6.64-5.625 9.943-8.496 11.493-9.897.257.351.514.704.769 1.058a3404.824 3404.824 0 0 1-14.547 12.731c-1.529 1.329-3.066 2.665-4.578 3.975-1.894 1.64-3.738 3.234-5.463 4.715-4.618 3.968-8.35 7.115-9.657 8.075-.579.426-.779 1.121-.534 1.858.258.776 1.05 1.602 2.007 1.602.334 0 .657-.108.935-.312 1.277-.938 4.833-3.932 9.23-7.705a2396.5 2396.5 0 0 0 3.676-3.166 2871.321 2871.321 0 0 0 14.83-12.907c2.692-2.356 4.952-4.342 6.395-5.61.297.432.594.865.89 1.3-1.466 1.393-3.836 3.545-6.744 6.144a1845.709 1845.709 0 0 1-10.678 9.456c-1.518 1.335-3.057 2.689-4.602 4.045-1.721 1.511-3.44 3.018-5.126 4.496l-2.938 2.576c-5.399 4.732-10.1 8.853-12.526 11.02a102.233 102.233 0 0 1-11.428-16.055c3.821-3.267 13.259-11.651 22.428-19.796zm-15.078 36.396a78.006 78.006 0 0 1-5.428-.808 2.473 2.473 0 0 0-.099-.179c-1.327-2.135-2.876-4.361-4.731-6.797.35-1.625.733-3.277 1.162-5.009a106.788 106.788 0 0 0 9.096 12.793zm-10.193-1.833a96.32 96.32 0 0 1-1.149-.286c.061-.361.123-.721.187-1.08.331.462.65.915.962 1.366zm14.357 5.469l-.001-.012h.001v.012z" fill="#fff" stroke="#369CB7" mask="url(#a)"/></svg>