<svg width="39" height="33" viewBox="0 0 39 33" fill="none" xmlns="http://www.w3.org/2000/svg"><path d="M6.25 32.254h26.63c3.266 0 5.953-2.254 5.748-5.291a.46.46 0 0 0-.158-.325.522.522 0 0 0-.345-.142H1.006c-.13 0-.255.06-.345.142a.458.458 0 0 0-.159.329c0 2.84 2.472 5.287 5.749 5.287zm0-1.126c-2.336 0-4.277-1.581-4.528-3.69h35.686c-.252 2.109-2.192 3.69-4.529 3.69H6.251z" fill="#205B64" stroke="#205B64" stroke-width=".2"/><path d="M36.982 27.226l.033-.03V9.924c0-1.181-1.069-1.953-2.118-1.953h-10.49c-.13 0-.254.06-.345.142a.459.459 0 0 0-.158.329c0 .128.069.245.158.328.09.083.215.142.345.142h10.289c.282 0 .508.086.663.228a.787.787 0 0 1 .245.598v16.573H3.326V9.553c0-.252.09-.456.245-.598.155-.142.381-.228.664-.228h10.49c.13 0 .254-.06.345-.142.09-.083.158-.2.158-.329a.459.459 0 0 0-.159-.328.522.522 0 0 0-.345-.142H4.436c-1.264 0-2.117.97-2.117 1.952v17.229a.46.46 0 0 0 .158.328c.09.083.215.142.345.142H36.31c.218 0 .384-.05.496-.102a.86.86 0 0 0 .163-.097l.01-.008.002-.003h.002v-.001l-.067-.074.067.074z" fill="#205B64" stroke="#205B64" stroke-width=".2"/><path d="M6.25 24.843h26.83a.503.503 0 0 0 .32-.118.224.224 0 0 0 .049-.063.136.136 0 0 0 .008-.109.135.135 0 0 0-.076-.077v-13.07a.458.458 0 0 0-.158-.329.522.522 0 0 0-.345-.142H23.8a.522.522 0 0 0-.345.142.458.458 0 0 0-.158.328c0 .129.068.246.158.329.09.083.215.142.345.142h8.574v11.841H6.754V11.691h8.775c.13 0 .255-.06.345-.143.09-.082.159-.2.159-.328a.458.458 0 0 0-.159-.328.522.522 0 0 0-.345-.142H6.25a.52.52 0 0 0-.344.142.459.459 0 0 0-.159.328v13.153c0 .128.069.246.159.328a.52.52 0 0 0 .345.142zm8.474 5.003h9.885c1.257 0 2.32-.964 2.32-2.138v-.741a.458.458 0 0 0-.16-.329.522.522 0 0 0-.344-.142H12.909c-.13 0-.255.06-.345.142a.459.459 0 0 0-.159.329v.74c0 1.175 1.062 2.139 2.32 2.139zm-1.312-2.138v-.27H25.72v.27c0 .242-.133.495-.345.69a1.165 1.165 0 0 1-.765.321H14.523a1.17 1.17 0 0 1-.765-.32c-.213-.196-.346-.45-.346-.691z" fill="#205B64" stroke="#205B64" stroke-width=".2"/><path d="M22.12 13.517l.009.008.01.005c1.585.91 2.572 2.547 2.572 4.175v1.567H14.42v-1.567c0-1.621.978-3.25 2.552-4.163a.339.339 0 0 0 .18-.083.511.511 0 0 0 .134-.184c.056-.128.068-.302-.046-.432a.314.314 0 0 0-.092-.16.554.554 0 0 0-.197-.12c-.14-.052-.331-.062-.47.057-2.035 1.125-3.272 3.007-3.068 5.09v2.218c0 .128.068.245.158.328.09.083.215.142.345.142h11.499c.13 0 .254-.059.345-.142.09-.083.158-.2.158-.328v-2.224c0-2.076-1.232-3.957-3.27-5.083a.362.362 0 0 0-.197-.093.382.382 0 0 0-.205.037 1.359 1.359 0 0 0-.321.243l-.007.006a.331.331 0 0 0-.114.2.324.324 0 0 0 .043.2c.059.107.17.21.265.296l.008.007zm-6.084-5.076c0 1.73 1.667 3.25 3.53 3.25 2.068 0 3.529-1.523 3.529-3.25 0-1.73-1.667-3.249-3.53-3.249-1.862 0-3.529 1.519-3.529 3.25zm1.209.186c0-1.23 1.152-2.123 2.32-2.123 1.366 0 2.321.889 2.321 2.123 0 1.233-.955 2.123-2.32 2.123-1.365 0-2.321-.89-2.321-2.123zm1.816-4.632a.46.46 0 0 0 .159.329.52.52 0 0 0 .345.142c.21 0 .4-.047.506-.176.11-.134.095-.314-.003-.505V1.217a.459.459 0 0 0-.158-.329.522.522 0 0 0-.345-.142c-.13 0-.255.06-.345.142a.459.459 0 0 0-.159.329v2.778zm4.067 1.927l.014.013c.087.08.148.136.213.166.071.033.143.033.23.033h.014v-.1.1h.005l.01-.001a.367.367 0 0 0 .127-.032.264.264 0 0 0 .155-.2l2.16-1.623a.23.23 0 0 0 .16-.102.366.366 0 0 0 .055-.203.592.592 0 0 0-.156-.394.222.222 0 0 0-.112-.145.432.432 0 0 0-.21-.048.685.685 0 0 0-.442.162l-2.192 1.647a.23.23 0 0 0-.16.103.366.366 0 0 0-.055.203c0 .14.06.307.184.42zm-9.885-1.667l.004.003 2.015 1.666.012.01a.91.91 0 0 0 .214.167c.07.033.142.033.229.033h.014c.14 0 .215-.07.268-.118L16 6.015c.048-.045.073-.067.134-.067h.039l.028-.026c.112-.102.184-.22.184-.352 0-.131-.072-.249-.184-.351l-.007-.006-2.215-1.665a.548.548 0 0 0-.367-.162.55.55 0 0 0-.37.166c-.112.102-.184.22-.184.351 0 .132.072.25.184.352z" fill="#205B64" stroke="#205B64" stroke-width=".2"/><path d="M11.092 20.397H28.24c.275 0 .504-.25.504-.655a.459.459 0 0 0-.159-.329.522.522 0 0 0-.345-.142H11.093c-.21 0-.401.047-.507.176-.11.134-.095.315.004.506a.468.468 0 0 0 .157.302c.09.083.215.142.345.142zm-2.017 2.039h21.182a.294.294 0 0 0 .174-.05.27.27 0 0 0 .096-.132.853.853 0 0 0 .031-.28v-.009a.458.458 0 0 0-.158-.328.522.522 0 0 0-.345-.142H9.075a.522.522 0 0 0-.345.142.458.458 0 0 0-.158.328.46.46 0 0 0 .158.329c.09.083.215.142.345.142z" fill="#205B64" stroke="#205B64" stroke-width=".2"/></svg>