<svg width="235" height="236" viewBox="0 0 235 236" fill="none" xmlns="http://www.w3.org/2000/svg"><g clip-path="url(#a)" stroke="#000" stroke-width=".8" filter="url(#b)"><path d="M191.274 41.995c0 21.506-17.434 38.94-38.939 38.94-21.506 0-38.939-17.434-38.939-38.94 0-21.505 17.433-38.939 38.939-38.939 21.505 0 38.939 17.434 38.939 38.94z" fill="#FAFAFA"/><path d="M185.378 41.752c0 18.383-14.903 33.286-33.287 33.286-18.383 0-33.286-14.902-33.286-33.286s14.903-33.287 33.286-33.287c18.384 0 33.287 14.903 33.287 33.287z" fill="#FAFAFA"/><path d="M128.914 26.327l1.89-2.5 19.756 14.944-1.891 2.5-19.755-14.944zm38.112 3.112l2.161 3.03-14.083 10.034-2.162-3.032 14.084-10.032z" fill="#FAFAFA"/><path d="M155.869 41.995a3.534 3.534 0 1 1-7.068 0 3.534 3.534 0 0 1 7.068 0z" fill="#FAFAFA"/><path d="M153.902 41.995a1.567 1.567 0 1 1-3.135 0 1.567 1.567 0 0 1 3.135 0zm71.43 153.497v-.002l-1.215-52.44-2.777-.323 3.04 52.733v.001a.47.47 0 0 0 .47.442h.077a.403.403 0 0 0 .405-.411zm-58.807-.002v.002a.403.403 0 0 0 .405.411h.077a.47.47 0 0 0 .47-.442v-.001l3.04-52.733-2.777.323-1.215 52.44zm11.869-55.101l48.439-1.358v-35.785c0-6.142-4.993-11.124-11.155-11.124h-26.129c-6.161 0-11.155 4.982-11.155 11.124v37.143z" fill="#FAFAFA"/><path d="M173.711 144.731h49.813a3.306 3.306 0 0 0 3.31-3.3v-1.611h-53.123v4.911z" fill="#FAFAFA"/><path d="M167.442 144.731h37.814a2.34 2.34 0 0 0 2.344-2.336v-.239a2.34 2.34 0 0 0-2.344-2.336h-37.814a2.341 2.341 0 0 0-2.344 2.336v.239a2.341 2.341 0 0 0 2.344 2.336z" fill="#FAFAFA"/><g clip-path="url(#c)" fill="#FAFAFA"><path d="M118.886 199.441l-.001.003h12.599l1.114-.001c.923 0 2.156 0 3.398-.002 1.242-.001 2.492-.002 3.448-.005a253.914 253.914 0 0 0 1.525-.007l.101-.002.032-.001h.001c.029-.003.103-.024.211-.189.111-.17.218-.437.311-.803.187-.727.295-1.735.349-2.852.109-2.227-.002-4.793-.083-6.192v-.001a28.38 28.38 0 0 0-.049-.751l-.012-.159-.045-.061a13.29 13.29 0 0 0-.303-.389c-.596-.699-1.663-1.798-2.771-2.228-.542-.211-1.054-.246-1.522-.039-.472.209-.976.699-1.425 1.701a9.404 9.404 0 0 1-1.32 2.119c-.648.835-1.439 1.591-2.294 2.269-3.128 2.534-7.261 4.117-9.784 4.567-1.703.311-2.582 1.188-3.044 1.97a4.06 4.06 0 0 0-.436 1.053z"/><path d="M126.768 199.441l-.001.003h12.599l1.113-.001c.923 0 2.157 0 3.399-.002 1.242-.001 2.491-.002 3.448-.005a253.914 253.914 0 0 0 1.525-.007l.101-.002.032-.001h.001c.029-.003.103-.024.211-.189.111-.17.218-.437.311-.803.187-.727.295-1.735.349-2.852.108-2.227-.002-4.793-.083-6.192v-.001a33.516 33.516 0 0 0-.061-.91l-.045-.061a15.309 15.309 0 0 0-.303-.389c-.597-.699-1.663-1.798-2.771-2.228-.542-.211-1.054-.246-1.522-.039-.472.209-.976.699-1.425 1.702a9.42 9.42 0 0 1-1.32 2.118c-.648.835-1.439 1.591-2.294 2.269-3.128 2.534-7.261 4.117-9.784 4.567-1.703.311-2.581 1.188-3.043 1.97a4.046 4.046 0 0 0-.437 1.053z"/><path d="M154.417 146.132c.888-.698 2.139-1.265 3.488-1.726 1.355-.462 2.837-.826 4.207-1.106a56.911 56.911 0 0 1 4.655-.745l.302-.034.079-.008.021-.002.005-.001h.002l42.443-4.265c.325-.58.689-1.12 1.052-1.642l.275-.393c.31-.442.613-.874.897-1.323.727-1.151 1.298-2.371 1.407-3.954v-.003c.054-.697.09-1.272.112-1.673l.016-.309a552.778 552.778 0 0 0-7.369-1.985c-4.43-1.16-10.037-2.568-14.759-3.564l-.001-.001c-1.623-.35-2.81-.143-3.812.148a21.2 21.2 0 0 0-.733.232l-.055.018c-.218.072-.435.144-.648.207-.439.13-.886.231-1.353.227l-2.644.829-.052.017-.055.001c-2.774.087-11.707 1.099-20.59 2.733-4.439.817-8.853 1.787-12.469 2.87-1.808.542-3.41 1.11-4.712 1.698-1.31.591-2.285 1.189-2.869 1.778l-.001.001c-.929.93-2.404 2.524-3.038 5.132l-.001.002c-1.8 7.225-2.705 19.523-3.159 30.048a516.982 516.982 0 0 0-.445 17.684c-.004.489-.005.87-.006 1.128l-.001.145c.087.039.203.088.349.144.389.147.991.337 1.823.499.768.136 1.727.256 2.879.274h.004c2.028.052 3.542-.051 4.527-.155.099-.015.196-.027.282-.038l.052-.006a4.27 4.27 0 0 0 .264-.039l.011-.002.012-.002c.313-.043.545-.085.697-.116l.01-.002c5.974-18.745 7.086-28.489 7.242-33.954a64.403 64.403 0 0 0-.001-3.397l-.004-.154c-.018-.843-.034-1.542.009-2.136.045-.636.159-1.182.423-1.689.265-.507.664-.944 1.232-1.391zm0 0l.248.314-.248-.314z"/><path d="M170.742 142.91l-.039-.399.022-.002.022.001-.005.4zm0 0l.005-.4h.029l.089.001.347.003 1.32.009c1.14.006 2.771.011 4.739.007 3.937-.009 9.219-.056 14.603-.208 5.386-.153 10.867-.41 15.203-.84 2.17-.215 4.043-.472 5.47-.778.714-.153 1.308-.316 1.767-.489.469-.176.757-.347.9-.494l.648-.663c2.923-2.984 4.534-4.629 4.739-7.585l.003-.051.017-.048c.488-1.465.733-2.935.856-4.043.062-.553.093-1.013.108-1.334l.005-.109m-50.848 17.022l-.04-.399v.001h-.007l-.02.002-.08.009-.302.033a56.825 56.825 0 0 0-4.655.745c-1.37.28-2.852.645-4.207 1.107-1.348.46-2.6 1.027-3.487 1.725-.583.459-.948.932-1.117 1.5-.166.555-.128 1.15-.012 1.816.075.429.19.92.319 1.473.069.295.142.608.215.939.214.963.441 2.119.608 3.541.665 5.66.388 15.607-5.581 34.352-.383.115-.776.265-1.176.425l-.388.157c-.356.144-.72.292-1.104.433-1.042.383-2.185.7-3.489.7-1.885 0-3.525-.295-4.694-.59a16.484 16.484 0 0 1-1.366-.404l-.195-.069.002-.021a252.306 252.306 0 0 0 .569-4.588c.354-3.091.801-7.444 1.176-12.493.749-10.094 1.209-22.99.042-34.151m79.837-13.265l-80.235 13.307m80.235-13.307l-.382-.013a303.152 303.152 0 0 1-9.257-.474c-5.603-.373-12.413-.998-17.174-2.003h-.002c-3.411-.736-6.318-1.253-7.99-1.305m34.805 3.795l-26.73-2.881c-3.41-.736-6.356-1.262-8.069-1.314m-45.038 17.46l-.398.042m.398-.042l-.398.042m.398-.042c-.268-2.58 1.34-4.398 2.278-5.334l.001-.002c.588-.593 1.593-1.233 2.952-1.898 1.35-.661 3.018-1.332 4.905-1.998 3.774-1.331 8.396-2.631 13.041-3.778a238.758 238.758 0 0 1 13.152-2.855c3.853-.717 6.864-1.152 8.233-1.195m-44.96 17.102c-.289-2.777 1.446-4.713 2.393-5.659 5.088-5.134 36.955-11.668 42.561-11.843m.006.4h-.006v-.4m.006.4l.006-.001-.012-.399m.006.4h.47m-.476-.4h.482m0 0l-.013.399.007.001m.006-.4v.4h-.006"/></g><path d="M190.805 67.317l-.156-.241a86.16 86.16 0 0 1-1.206-1.933 65.649 65.649 0 0 1-2.29-4.087 39.455 39.455 0 0 1-.636-1.303l3.972-7.278 2.039-3.739a24.272 24.272 0 0 0 1.583 3.116l.342-.207-3.648 15.672zm0 0l-.18.224m.18-.224l-.18.224m0 0c-1.174 1.472-1.479 3.144-1.485 4.467a9.154 9.154 0 0 0 .202 1.928c1.932-.274 3.868-1.166 5.706-2.39 1.944-1.293 3.757-2.942 5.314-4.573a50.947 50.947 0 0 0 4.798-5.87l.062-.09-14.597 6.528z" fill="#FAFAFA"/><path d="M175.375 45.099c-.016.655.239 1.984.713 3.645a45.65 45.65 0 0 0 1.917 5.371c.782 1.815 1.667 3.501 2.564 4.694.448.597.887 1.052 1.301 1.34.409.284.76.382 1.063.34l.022-.005a15.318 15.318 0 0 0 .521-.129c.357-.093.866-.236 1.472-.432 1.213-.395 2.806-1.002 4.338-1.86 1.536-.858 2.985-1.953 3.938-3.309.944-1.343 1.408-2.95.981-4.878a106.324 106.324 0 0 1-.716-3.606c-.134-.717-.262-1.402-.392-2.043-.343-1.68-.712-3.094-1.275-4.198-.557-1.091-1.295-1.864-2.38-2.29-1.1-.433-2.605-.53-4.728-.163-4.28.742-6.581 1.972-7.825 3.308-1.233 1.324-1.481 2.81-1.514 4.215z" fill="#FAFAFA"/><path d="M193.251 34.388l-.193-.185.041-.105-.065.022-.163-.294a3.908 3.908 0 0 0-.473-.675l.259.513-1.044-.482c-.91-.42-2.209-.631-4.348-.238-2.144.394-5.105 1.39-9.314 3.356-2.75 1.285-4.367 2.585-5.244 3.79-.869 1.191-1.021 2.298-.821 3.251.203.969.778 1.817 1.424 2.447.321.313.654.565.953.747.307.184.555.28.71.306.308.052.721-.065 1.27-.378.537-.307 1.13-.757 1.782-1.262l.221-.172c1.221-.95 2.63-2.048 4.056-2.461 1.631-.472 2.983.38 3.994 1.249.335.287.656.598.942.875.143.139.278.27.4.383.192.178.357.32.503.423.15.105.247.144.301.153a.95.95 0 0 0 .279.017 2.33 2.33 0 0 0 .07-.216c.089-.313.232-.822.781-1.361.336-.33.733-.479 1.143-.362.37.105.653.401.858.712.418.632.687 1.577.756 2.363.024.268.154.545.369.822.215.276.498.53.79.75a7.3 7.3 0 0 0 .777.507l.901-2.128c.235-.555.357-1.494.366-2.662.008-1.154-.093-2.48-.272-3.776-.179-1.296-.434-2.551-.73-3.562a10.091 10.091 0 0 0-.463-1.29c-.162-.355-.313-.586-.438-.707l-.002-.002-.105-.103a17.84 17.84 0 0 0-.271-.265zm-3.778 75.038l-.127-.561c-1.157-5.1-2.641-11.644-3.654-19.834m3.781 20.395l-4.178-20.346m4.178 20.346c.336 1.485.1 2.811-.101 3.939-.056.309-.108.603-.145.882l-.001.001c-.069.509-.094.97-.024 1.408v.001c.398 2.506.466 4.297.518 5.649l.001.031c.046 1.193.082 1.983.289 2.633.152-.012.352-.014.613.003.691.045 1.832.229 3.68.77a64.16 64.16 0 0 0 5.646 1.366l.146.028.196.037h.002c8.407 1.595 17.128 1.433 19.555 1.193.977-.097 1.773-.777 2.375-2.107.603-1.335.974-3.254 1.115-5.653.281-4.79-.36-11.362-1.73-18.668-4.272-22.775-7.76-34.34-17.79-41.594m-14.345 50.081l-.052-43.4m-3.729 23.005l-.397.05m.397-.05l-.397.05m.397-.05c-.829-6.708-.903-14.745 2.974-21.783m-3.371 21.832c-.832-6.734-.918-14.88 3.025-22.034m.346.202l-.005.009-.341-.21m.346.201l.755-1.221m-.755 1.221l.005-.008-.351-.194m0 0l1.101-1.02m0 0a6.38 6.38 0 0 1-.262-.031l.056-.396.341.21-.135.218zm0 0c1.474.15 3.335-.146 5.161-.66 1.946-.548 3.9-1.357 5.389-2.195 1.647-.93 2.574-2.062 3.166-2.888.113-.159.209-.298.292-.419.145-.21.253-.367.355-.482l.034-.037m0 0l-.084-.06c.002.001.019.012.05.017a.17.17 0 0 0 .084-.006c.004-.002.006-.003.007-.002 0 0-.019.01-.057.051z" fill="#FAFAFA"/><path d="M208.58 74.23c-2.63-3.215-7.179-4.668-12.191-2.248l-.065.133a616.289 616.289 0 0 0-1.01 2.115l-.567 1.193a955.27 955.27 0 0 1-3.842 7.992c-1.44 2.955-2.944 5.982-4.219 8.413a83.377 83.377 0 0 1-1.709 3.123c-.481.825-.893 1.46-1.187 1.78-1.034 1.12-2.926 2.142-5.113 3.047-2.204.911-4.767 1.726-7.2 2.407a125.38 125.38 0 0 1-8.486 2.045l-.564.114-.03.006c-.861 1.368-1.039 2.479-1.012 3.234.013.394.083.698.146.898.014.045.028.084.04.118 8.471 1.475 14.956 1.829 19.674 1.574 4.776-.259 7.687-1.14 9.026-2.064l.228.329-.228-.329c4.567-3.154 12.186-9.198 18.877-20.69l.346.2-.346-.2c2.821-4.845 2.092-9.94-.568-13.19zm-49.909 27.433c-.172.091-.36.189-.548.283-.324.163-.637.312-.865.403l-.066.025a2.287 2.287 0 0 0-.228-.192 14.97 14.97 0 0 0-.345-.247 29.176 29.176 0 0 1-.272-.194 5.474 5.474 0 0 1-.621-.507c-.182-.179-.294-.335-.34-.464a10.68 10.68 0 0 0-.093-.254l-.046-.127.088.022c.433.113 1.449.499 2.384.87.346.137.675.27.952.382zm-1.644.763l.005-.001-.005.001zm-1.869-2.328l.001.001-.001-.001zm-.204.242h-.002.002z" fill="#FAFAFA"/><path d="M134.302 95.695a6182.76 6182.76 0 0 1 6.996-1.162c4.371-.722 8.95-1.469 9.852-1.581.705-.087 1.311.347 1.786.914a5.295 5.295 0 0 1 .704 1.105l.007.016 9.313 23.329-18.807.636-8.323-21.913-.014-.037-.02-.033c-.371-.593-.958-1.001-1.494-1.274z" fill="#FAFAFA"/><path d="M149.847 93.162c-.125.35-.159.74-.157 1.089.002.393.051.77.099 1.045l.007.039-17.204 2.873c-.529-.94-.403-1.49-.236-1.787a1.258 1.258 0 0 1 .493-.48l.007-.004 16.991-2.775z" fill="#000"/><path d="M162.142 107.907l-.212-.051c-.389-.092-.928-.21-1.532-.314-1.187-.206-2.693-.372-3.776-.138-.945.204-2.565.262-4.082.068-.756-.096-1.468-.253-2.046-.475-.588-.226-.987-.5-1.184-.798a.741.741 0 0 1-.138-.375.647.647 0 0 1 .085-.331c.134-.25.42-.514.824-.767.8-.503 1.884-.857 2.448-.985.322-.073.781-.23 1.293-.413l.414-.148c.415-.149.863-.31 1.326-.466 1.26-.425 2.558-.788 3.488-.777h.001c.407.004.847.162 1.295.428.447.265.876.622 1.253.988a11.728 11.728 0 0 1 1.165 1.32l-.622 3.234zM14.807 199.434v-.001l1.267-54.563 2.933-.341-3.173 54.874a.507.507 0 0 1-.507.475h-.081a.436.436 0 0 1-.44-.444zm61.388-.001v.001a.436.436 0 0 1-.44.444h-.08a.507.507 0 0 1-.508-.475l-3.173-54.874 2.934.341 1.267 54.563zm-12.383-57.301l-50.573-1.413V103.48c0-6.397 5.217-11.588 11.656-11.588h27.261c6.439 0 11.656 5.19 11.656 11.588v38.652z" fill="#FAFAFA"/><path d="M68.698 146.649H16.71c-1.918 0-3.47-1.547-3.47-3.449v-1.692h55.458v5.141z" fill="#FAFAFA"/><path d="M75.221 146.649H35.77a2.454 2.454 0 0 1-2.463-2.446v-.249a2.454 2.454 0 0 1 2.463-2.446h39.45a2.456 2.456 0 0 1 2.463 2.446v.249a2.456 2.456 0 0 1-2.463 2.446zm-28.732-5.947a412.14 412.14 0 0 1 3.265-1.422c2.973-1.281 6.904-2.933 10.741-4.424 3.842-1.493 7.57-2.817 10.146-3.446a16.12 16.12 0 0 1 1.677-.331c.477-.062.835-.068 1.077-.029.196.032.248.08.258.092.003.015.017.122-.139.391-1.927 3.335-4.102 5.644-5.79 7.118a21.117 21.117 0 0 1-2.076 1.606 12.847 12.847 0 0 1-.709.445h-18.45zm25.021 54.294l-.342.208.07.116c.04.068.083.14.124.206l.08.131c.64 1.058 1.228 2.031 1.596 2.781.193.395.31.696.35.9a.76.76 0 0 1 .013.099c-.27.087-.909.134-1.902-.244-1.08-.411-2.541-1.312-4.298-3.129-1.548-1.604-2.15-2.485-2.582-3.16l-.124-.195c-.384-.606-.705-1.114-1.533-1.872l-.01-.01-.011-.008-.034-.03a1.774 1.774 0 0 0-.058-.053l-.107-.095-.039-.034-.002-.002a19.077 19.077 0 0 0-.652-.541c-.93-.742-1.784-1.477-2.464-2.185-.684-.715-1.163-1.375-1.378-1.966l-.03-.083a1.685 1.685 0 0 1-.084-.779c.038-.254.15-.506.371-.757.493-.562 1.126-.986 1.796-1.425l.004-.003a5.13 5.13 0 0 1 .225-.142l.003-.002c.463-.283.958-.445 1.513-.627l.257-.084c.646-.215 1.346-.476 2.011-1.003.346-.274.658-.709.94-1.218.287-.516.562-1.141.822-1.827.52-1.372.996-3.023 1.397-4.606a92.695 92.695 0 0 0 1.25-5.72l6.003 1.028-.063.201a435.304 435.304 0 0 0-2.195 7.125 210.292 210.292 0 0 0-1.714 6.021c-.483 1.824-.844 3.378-.922 4.218-.046.491-.094.944-.138 1.366-.13 1.246-.23 2.221-.193 3.096.052 1.214.367 2.251 1.175 3.622l.001.001.04.066c.16.272.325.55.492.823l.341-.208zm0 0c-.166-.271-.33-.547-.49-.819l-.04-.066-4.067 2.23c3.573 3.696 6.033 3.764 6.733 3.428.58-.282-.558-2.163-1.856-4.309l-.087-.144-.119-.196-.075-.124z" fill="#FAFAFA"/><path d="M58.195 185.884l.001.003c.272.608.777 1.275 1.458 1.988.677.708 1.507 1.441 2.405 2.181.239.197.453.379.644.553l.036.032.107.095a.87.87 0 0 1 .058.053l.034.03.011.008.01.01c.828.758 1.15 1.266 1.533 1.871l.124.196c.432.675 1.035 1.556 2.582 3.159 1.757 1.818 3.218 2.719 4.299 3.13.993.378 1.632.331 1.901.244a.76.76 0 0 0-.013-.099c-.04-.204-.156-.505-.35-.9-.368-.75-.956-1.723-1.596-2.781l-.008-.015c-.934-.358-4.034-1.718-6.415-4.744-1.098-1.393-2.008-2.977-2.82-4.45l-.37-.677c-.588-1.075-1.124-2.055-1.657-2.846-.634.42-1.233.831-1.705 1.369l-.269 1.59zm0 0a1.72 1.72 0 0 1-.102-.834c.038-.253.15-.505.371-.756l-.269 1.59zm55.576-6.186v.001c.084.421.289.698.59.889.314.199.76.318 1.338.352 1.161.069 2.704-.209 4.386-.619h.001c1.729-.419 2.414-.383 3.274-.304l.097.009c.785.072 1.768.163 4.035-.087 2.353-.259 3.853-.821 4.771-1.381.822-.503 1.149-.984 1.243-1.229a1.198 1.198 0 0 0-.085-.045c-.196-.091-.517-.179-.958-.264-.755-.143-1.757-.257-2.842-.379l-.517-.059h-.001l.045-.398c-.32-.035-.64-.075-.96-.115l-14.417 3.629zm0 0c-.139-.68-.097-1.381-.044-2.132.098-1.352.155-3.234-.699-4.684-.672-1.14-1.872-3.015-2.9-4.599-.514-.793-.987-1.515-1.332-2.039l-.186-.284 5.655-.444.035.054a54.16 54.16 0 0 0 2 2.863 32.007 32.007 0 0 0 2.024 2.461c.699.755 1.424 1.424 2.094 1.812.638.371 1.246.762 1.852 1.151l.01.007c.607.389 1.211.777 1.826 1.13 1.232.706 2.526 1.284 4.033 1.472l-14.368 3.232z" fill="#FAFAFA"/><path d="M120.086 180.321h-.001c-1.682.41-3.225.687-4.385.618-.578-.035-1.024-.154-1.338-.353-.3-.191-.504-.468-.589-.889-.113-.566-.103-1.146-.068-1.754.902.024 1.98.177 3.18.347l.48.068c1.547.217 3.249.433 4.911.394 2.057-.049 3.823-.596 5.072-1.128.625-.266 1.123-.53 1.466-.728.172-.099.306-.182.397-.24l.08-.053.33.038c1.085.122 2.087.236 2.842.379.441.085.762.173.958.264.035.017.063.032.085.045-.094.245-.421.726-1.243 1.229-.918.56-2.418 1.122-4.771 1.381-2.267.25-3.251.159-4.035.087l-.097-.009c-.86-.079-1.545-.115-3.274.304zm-54.001-7.016l.002-.016a274.067 274.067 0 0 1 .386-3.539 329.92 329.92 0 0 1 1.219-9.354c1.075-7.411 2.667-16.45 4.733-23.03 1.062-3.391 2.238-6.069 3.496-7.546.773-.908 1.52-1.436 2.222-1.693a3.183 3.183 0 0 1 2.042-.055c1.356.4 2.662 1.605 3.82 3.116 1.148 1.499 2.105 3.237 2.776 4.608a36.313 36.313 0 0 1 .98 2.179l.012.032-6.087 16.289-7.929 21.216a13.353 13.353 0 0 1-1.052.011c-.785-.022-1.813-.116-2.812-.402-.917-.264-1.916-.746-2.698-1.171a22.858 22.858 0 0 1-1.11-.645z" fill="#FAFAFA"/><path d="M54.589 114.724l.145.237.273-.053c5.759-1.122 11.497-2.095 16.294-2.626 2.399-.266 4.555-.421 6.358-.43 1.812-.009 3.232.131 4.176.433 1.024.329 2.38 1.416 3.993 3.167 1.596 1.734 3.393 4.062 5.303 6.787 3.82 5.448 8.07 12.446 12.04 19.361 3.97 6.914 7.656 13.738 10.351 18.834a658.252 658.252 0 0 1 4.088 7.856l.181.355a3.63 3.63 0 0 1-.278.237c-.333.258-.871.597-1.671.896-.715.266-1.991.402-3.137.465a35.859 35.859 0 0 1-1.898.054h-.017l-.165-.141-.784-.675a478.106 478.106 0 0 1-11.587-10.321c-3.253-2.999-6.594-6.185-9.303-9.001-1.354-1.408-2.547-2.72-3.49-3.867-.949-1.153-1.627-2.118-1.971-2.836-.727-1.516-1.345-3.016-1.912-4.412l-.16-.395c-.503-1.24-.972-2.395-1.441-3.379-.516-1.081-1.053-1.998-1.672-2.609-.635-.627-1.386-.954-2.28-.776-.28.055-.738.251-1.298.51-.466.216-1.038.494-1.698.814l-.487.236c-1.739.843-4.013 1.93-6.615 3.006-5.213 2.155-11.706 4.246-17.818 4.246-2.407 0-7.315.003-11.622.005l-5.62.004-1.745.001h-1.006c-1.052-.016-1.857-.28-2.47-.714-.615-.435-1.066-1.061-1.374-1.852-2.201-5.65-1.3-12.961.187-18.919a70.774 70.774 0 0 1 3.183-9.645c.093-.224.17-.404.226-.534l24.413 1.896 2.308 3.785zm7.755-74.366c.118.056.302.136.54.24.602.26 1.551.672 2.66 1.248 1.525.794 3.24 1.85 4.45 3.094l.284-.276-.284.276c.738.76 1.345 1.916 1.803 3.389.457 1.467.757 3.222.9 5.151.287 3.86-.06 8.381-1.015 12.627-.956 4.25-2.514 8.189-4.624 10.906-2.104 2.71-4.714 4.162-7.82 3.601l-.072-.013-.072.014c-4.206.775-10.252 1.924-15.833 2.984l-2.995.569c-3.155.599-6.001 1.138-8.062 1.52-1.03.193-1.864.345-2.442.447a37.975 37.975 0 0 1-.815.134l-.042.002h-.019l-.056.002c-.05.001-.124.003-.22.003a20.578 20.578 0 0 1-3.497-.3c-2.093-.367-4.424-1.158-5.72-2.8-2.243-2.84-3.3-7.078-2.11-11.274 1.185-4.182 4.619-8.373 11.452-11.084 1.426-.567 2.735-1.007 3.95-1.417l.729-.246c1.413-.48 2.705-.944 3.878-1.55 2.376-1.226 4.234-3.017 5.753-6.617.38-.904 1.26-2.283 2.514-3.788 1.25-1.499 2.854-3.1 4.669-4.454 3.65-2.72 8.038-4.364 12.115-2.389zm0 0l.175-.36-.175.36z" fill="#FAFAFA"/><path d="M44.11 66.44c-.017-.094-.03-.181-.042-.26.21.005.432-.02.67-.09.454-.132.93-.42 1.448-.91.98-.926 2.169-2.633 3.697-5.616l.066.051.001.001 7.275 5.673a97.26 97.26 0 0 0-2.614 4.716c-.531 1.04-1.022 2.084-1.336 2.932a6.446 6.446 0 0 0-.326 1.137 2.333 2.333 0 0 0-.03.285 15.362 15.362 0 0 1-2.044-.216c-1.436-.251-3.104-.763-4.213-1.763-1.035-.931-1.715-2.58-2.131-4.06a18.403 18.403 0 0 1-.422-1.88z" fill="#FAFAFA"/><path d="M68.447 55.961c-.135.579-.66 1.698-1.46 3.068a42.615 42.615 0 0 1-2.92 4.345c-1.105 1.44-2.272 2.742-3.334 3.605-.532.432-1.021.74-1.45.905-.422.162-.745.172-.99.075l-.018-.008a16.183 16.183 0 0 1-.43-.225 24.62 24.62 0 0 1-1.201-.697c-.982-.608-2.25-1.486-3.407-2.571-1.16-1.087-2.186-2.362-2.716-3.76-.525-1.382-.57-2.893.245-4.503.532-1.051 1.01-2.08 1.456-3.04.282-.608.552-1.188.814-1.728.686-1.416 1.334-2.586 2.082-3.44.738-.845 1.562-1.366 2.61-1.511 1.063-.147 2.41.086 4.2.865 3.611 1.572 5.356 3.15 6.145 4.588.78 1.424.664 2.782.374 4.032zm-11.22 39.083c1.949-5.618 1.307-11.777.159-16.56a47.088 47.088 0 0 0-1.822-5.857 38.559 38.559 0 0 0-.687-1.672l-.005-.011a3.02 3.02 0 0 1-.152.136c-.411.344-1.05.682-1.955.695-1.766.025-4.424-1.181-8.341-5.611l-.023.012a7.9 7.9 0 0 0-.768.48c-.666.455-1.599 1.157-2.717 2.055-2.236 1.796-5.199 4.362-8.235 7.273l24.546 19.06zm0 0l-1.512 4.365c-1.252 3.619-2.204 6.37-2.949 8.464-1.021 2.873-1.644 4.485-2.112 5.406-.234.459-.414.717-.566.87a.81.81 0 0 1-.408.235 2.582 2.582 0 0 1-.384.064c-.092.012-.197.026-.306.043a4.89 4.89 0 0 0-1.124.319c-.298.123-.872.156-1.73.057-.837-.097-1.874-.309-3.046-.612m14.137-19.211L43.09 114.255m0 0c-2.74-.708-5.542-1.243-7.976-1.707-.878-.168-1.708-.326-2.47-.481-1.448-.292-2.64-.567-3.467-.857-.416-.146-.714-.286-.902-.419a.695.695 0 0 1-.172-.158c-.024-.034-.025-.05-.025-.052m15.012 3.674l-.1.387c-2.727-.704-5.508-1.235-7.939-1.699-4.194-.801-7.344-1.402-7.372-2.35m0 0l.4-.012m-.4.012c-.019-.629-.033-1.257-.047-1.89-.102-4.583-.21-9.434-2.065-16.653l2.511 18.531m-.4.012l.4-.012m-2.104-18.553c.047-.31.147-.67.261-1.078l.044-.158c.136-.49.28-1.035.323-1.556.055-.663.088-1.27.117-1.836l.01-.208c.025-.487.048-.94.082-1.377.075-.993.203-1.875.516-2.788.624-1.823 2.009-3.834 5.354-7.043l-6.707 16.044z" fill="#FAFAFA"/><path d="M62.308 112.289a15.65 15.65 0 0 1-2.427-.689c-1.553-.585-3.202-1.528-3.934-2.972-.17-.334-.33-.962-.468-1.857-.136-.88-.245-1.974-.331-3.207-.172-2.464-.252-5.46-.282-8.363a336.206 336.206 0 0 1 .076-10.97l.005-.18v-.047l.001-.012v-.003l.4-13.134c.242.14.552.321.91.54.89.546 2.072 1.321 3.244 2.242 1.175.922 2.326 1.979 3.165 3.086.844 1.113 1.336 2.23 1.282 3.283l-.923 18.153-.515 10.137-.165 3.234-.038.759zm-15.95.024c-.247-.162-.59-.258-.933-.323a9.683 9.683 0 0 0-1.172-.133 32.94 32.94 0 0 0-2.05-.043l-.2.001c-2.332.003-4.073-.387-5.225-.772a9.79 9.79 0 0 1-1.287-.527 7.26 7.26 0 0 1-.198-.104l.427-3.576.027.003a103.098 103.098 0 0 1 4.582.606c1.288.203 2.605.445 3.67.714.533.134.994.273 1.353.415.375.147.585.276.67.367.572.612 1.51 1.931 2.325 3.255a23.83 23.83 0 0 1 1.046 1.863c.177.358.302.655.376.877a8.896 8.896 0 0 1-.878-.616 47.483 47.483 0 0 1-1.141-.92l-.236-.194c-.44-.36-.86-.699-1.156-.893zm3.726 2.766h-.003.003z" fill="#FAFAFA"/><path d="M35.587 82.567l-.38-.126a1.594 1.594 0 0 1-.233.393c-.133.18-.315.394-.542.635a28.966 28.966 0 0 1-1.792 1.708c-1.447 1.289-3.306 2.813-5.136 4.306l-.418.34c-1.679 1.37-3.303 2.695-4.511 3.755-.653.572-1.195 1.077-1.56 1.474a3.75 3.75 0 0 0-.433.546c-.05.082-.097.176-.124.276a.563.563 0 0 0 .034.402c.044.088.11.16.162.213.057.058.126.118.202.18.152.122.352.266.588.425a46.67 46.67 0 0 0 1.87 1.173c.857.517 1.867 1.112 2.94 1.742.807.475 1.65.97 2.488 1.469 1.961 1.167 3.912 2.357 5.399 3.373.744.509 1.363.969 1.807 1.355.222.193.392.361.51.503.126.149.163.235.17.264.097.405.08.896-.019 1.425a8.856 8.856 0 0 1-.461 1.554 13.799 13.799 0 0 1-.68 1.473 129.598 129.598 0 0 1-3.271-.661 131.515 131.515 0 0 1-8.17-2.03c-3.075-.878-6.284-1.944-9.008-3.169-2.74-1.233-4.925-2.6-6.02-4.052l-.319.241.32-.241c-.427-.566-.594-1.428-.474-2.59.119-1.157.515-2.55 1.138-4.112 1.245-3.122 3.364-6.848 5.837-10.573a114.81 114.81 0 0 1 7.901-10.515c2.626-3.092 5.038-5.534 6.708-6.745 2.307-1.674 5.852-1.921 8.906-1.715a33.379 33.379 0 0 1 4.94.72l-.096.172a756.282 756.282 0 0 0-3.863 6.966 326.374 326.374 0 0 0-3.056 5.696c-.869 1.671-1.54 3.034-1.734 3.625l.38.125zm0 0c.659-2.003 7.502-14.223 8.774-16.489l-8.683 45.793s1.8-3.067 1.34-4.992c-.281-1.168-6.004-4.534-10.565-7.217-2.947-1.733-5.409-3.18-5.604-3.567-.24-.472 2.991-3.108 6.492-5.963 3.777-3.08 7.867-6.417 8.246-7.565zm61.197 5.842l-10.629 26.283H50.611l10.682-26.283h35.49z" fill="#FAFAFA"/><path d="M39.172 114.692v-.255h47.086l-.103.255H39.172z" fill="#FAFAFA"/><path d="M75.995 100.226c.367 0 .616.145.756.339.14.196.206.496.097.875-.11.382-.373.745-.72 1.013-.347.269-.752.422-1.126.422-.367 0-.617-.145-.756-.339-.14-.196-.206-.496-.097-.875.11-.382.373-.745.72-1.013.347-.269.752-.422 1.126-.422z" fill="#000"/><path d="M39.162 199.793l1.679-79.775 4.145-.529-4.206 80.279c-.029.521-.408.864-.8.864h-.106c-.366 0-.723-.342-.712-.839zm159.087-1.646v-.001l-1.679-79.774-4.144-.53 4.206 80.279c.028.521.407.865.8.865h.105c.366 0 .723-.343.712-.839z" fill="#FAFAFA"/><path d="M197.727 119.953H34.797c-.618 0-1.16-.184-1.537-.461-.378-.277-.57-.628-.57-.979v-1.259c0-.351.192-.702.57-.979.378-.278.92-.461 1.536-.461h162.931c.617 0 1.159.183 1.536.461.378.277.571.628.571.979v1.259c0 .349-.193.7-.572.978-.378.278-.92.462-1.535.462z" fill="#FAFAFA"/></g><defs><filter id="b" x="-4" y="0" width="241" height="235.873" filterUnits="userSpaceOnUse" color-interpolation-filters="sRGB"><feFlood flood-opacity="0" result="BackgroundImageFix"/><feColorMatrix in="SourceAlpha" values="0 0 0 0 0 0 0 0 0 0 0 0 0 0 0 0 0 0 127 0"/><feOffset dy="4"/><feGaussianBlur stdDeviation="2"/><feColorMatrix values="0 0 0 0 0 0 0 0 0 0 0 0 0 0 0 0 0 0 0.25 0"/><feBlend in2="BackgroundImageFix" result="effect1_dropShadow"/><feBlend in="SourceGraphic" in2="effect1_dropShadow" result="shape"/></filter><clipPath id="a"><path fill="#fff" transform="translate(5 2)" d="M0 0h225.873v225.873H0z"/></clipPath><clipPath id="c"><path fill="#fff" transform="matrix(-1 0 0 1 223.145 31.669)" d="M0 0h104.741v168.175H0z"/></clipPath></defs></svg>