<svg width="60" height="60" viewBox="0 0 60 60" fill="none" xmlns="http://www.w3.org/2000/svg"><path d="M41.798 49.38l-1.6-12.81A7.501 7.501 0 0 0 32.753 30h-5.51a7.5 7.5 0 0 0-7.44 6.57l-1.602 12.81A5 5 0 0 0 23.166 55h13.67a4.998 4.998 0 0 0 4.962-5.62z" stroke="#B15325" stroke-width="5" stroke-linecap="round" stroke-linejoin="round"/><path d="M30 20a7.5 7.5 0 1 0 0-15 7.5 7.5 0 0 0 0 15zm-20 7.5a5 5 0 1 0 0-10 5 5 0 0 0 0 10zm40 0a5 5 0 1 0 0-10 5 5 0 0 0 0 10z" stroke="#B15325" stroke-width="5"/><path d="M10 35h-.765a5 5 0 0 0-4.932 4.178l-.833 5A5 5 0 0 0 8.403 50H17.5M50 35h.766a5 5 0 0 1 4.932 4.178l.833 5A5 5 0 0 1 51.598 50h-9.097" stroke="#B15325" stroke-width="5" stroke-linecap="round" stroke-linejoin="round"/></svg>