<svg width="23" height="23" viewBox="0 0 23 23" fill="none" xmlns="http://www.w3.org/2000/svg"><g clip-path="url(#a)"><path d="M11.708.402h-.006C5.492.402.442 5.454.442 11.665c0 2.464.794 4.747 2.144 6.601L1.183 22.45l4.329-1.384a11.165 11.165 0 0 0 6.196 1.862c6.21 0 11.26-5.053 11.26-11.263S17.918.402 11.708.402zm6.553 15.905c-.271.767-1.35 1.403-2.21 1.589-.588.125-1.357.225-3.945-.848-3.31-1.37-5.441-4.734-5.607-4.952-.16-.219-1.338-1.781-1.338-3.397 0-1.617.821-2.403 1.152-2.741.272-.278.72-.404 1.152-.404.139 0 .264.007.377.012.33.014.497.034.715.556.272.655.933 2.271 1.012 2.437.08.166.16.392.048.61-.105.225-.198.325-.364.517-.167.191-.324.337-.49.543-.152.179-.324.37-.133.701.192.324.853 1.404 1.828 2.27 1.257 1.12 2.276 1.478 2.64 1.63.272.112.596.086.795-.126.252-.271.563-.722.88-1.165.225-.318.51-.358.808-.245.304.105 1.913.9 2.244 1.066.33.166.549.245.63.384.078.14.078.794-.194 1.563z" fill="#fff"/></g><defs><clipPath id="a"><path fill="#fff" transform="translate(.442 .402)" d="M0 0h22.525v22.525H0z"/></clipPath></defs></svg>