<svg width="16" height="16" viewBox="0 0 16 16" fill="none" xmlns="http://www.w3.org/2000/svg"><g clip-path="url(#a)"><path d="M.227 1.335c-.3-.3-.3-.8 0-1.11.31-.3.8-.3 1.11 0l6.66 6.67 6.67-6.67c.3-.3.8-.3 1.098 0 .31.31.31.81 0 1.11l-6.659 6.66 6.66 6.67c.31.3.31.8 0 1.11-.3.3-.8.3-1.1 0l-6.67-6.67-6.66 6.67c-.31.3-.799.3-1.109 0-.3-.31-.3-.81 0-1.11l6.66-6.67-6.66-6.66z" fill="url(#b)"/></g><defs><radialGradient id="b" cx="0" cy="0" r="1" gradientUnits="userSpaceOnUse" gradientTransform="rotate(-72.275 11.864 6.757) scale(22.2668 40.3957)"><stop stop-color="#EC823E"/><stop offset="1" stop-color="#EC6749"/></radialGradient><clipPath id="a"><path fill="#fff" d="M0 0h16v16H0z"/></clipPath></defs></svg>