<svg width="31" height="33" viewBox="0 0 31 33" fill="none" xmlns="http://www.w3.org/2000/svg"><path d="M14.303 5.503l2.571-2.578.212-.212-.212-.212L15.156.788l-.212-.212-.212.212-6.003 6.018-.21.21.209.212 5.924 6.024.21.214.214-.21 1.73-1.702.214-.21-.21-.214-2.56-2.601h1.25c5.72 0 10.373 4.653 10.373 10.372 0 5.72-4.654 10.373-10.373 10.373-5.72 0-10.373-4.653-10.373-10.373v-1.513H2.101v1.514c0 3.579 1.394 6.944 3.925 9.475A13.312 13.312 0 0 0 15.5 32.3c3.578 0 6.944-1.394 9.474-3.924a13.313 13.313 0 0 0 3.924-9.475c0-3.578-1.394-6.944-3.924-9.474A13.313 13.313 0 0 0 15.5 5.503h-1.197z" fill="#fff" stroke="#fff" stroke-width=".6"/></svg>