<svg width="18" height="18" viewBox="0 0 18 18" fill="none" xmlns="http://www.w3.org/2000/svg"><g clip-path="url(#a)" fill="#EC664A"><path d="M13.685 11.907c-.588-.58-1.323-.58-1.907 0-.446.442-.891.884-1.33 1.334-.12.123-.22.15-.367.067-.288-.157-.595-.284-.872-.457-1.293-.813-2.375-1.858-3.334-3.034-.476-.584-.899-1.21-1.195-1.914-.06-.142-.049-.236.068-.352.445-.43.88-.873 1.318-1.315.61-.614.61-1.333-.004-1.951-.348-.352-.696-.697-1.045-1.049-.36-.36-.715-.723-1.079-1.079-.588-.573-1.322-.573-1.906.004-.45.442-.88.895-1.337 1.33-.424.4-.637.891-.682 1.464-.071.933.157 1.813.48 2.671.659 1.776 1.663 3.353 2.88 4.798a17.825 17.825 0 0 0 5.903 4.619c1.034.502 2.105.887 3.27.951.802.045 1.498-.157 2.056-.783.382-.427.813-.816 1.218-1.225.599-.606.603-1.34.007-1.94a576.01 576.01 0 0 0-2.142-2.139zm-.715-2.985l1.382-.236a6.178 6.178 0 0 0-1.727-3.333 6.144 6.144 0 0 0-3.521-1.757l-.195 1.39a4.767 4.767 0 0 1 2.727 1.36 4.766 4.766 0 0 1 1.333 2.576zm2.16-6.008A10.191 10.191 0 0 0 9.287 0l-.195 1.39a8.837 8.837 0 0 1 5.05 2.517 8.83 8.83 0 0 1 2.475 4.775L18 8.446a10.265 10.265 0 0 0-2.869-5.532z"/></g><defs><clipPath id="a"><path fill="#fff" d="M0 0h18v18H0z"/></clipPath></defs></svg>