<svg width="16" height="16" viewBox="0 0 16 16" fill="none" xmlns="http://www.w3.org/2000/svg"><g clip-path="url(#a)"><path d="M15.977 6.164a.469.469 0 0 0-.378-.319l-4.96-.72L8.42.63a.469.469 0 0 0-.84 0L5.36 5.125l-4.96.72a.469.469 0 0 0-.26.8l3.59 3.498-.848 4.94a.469.469 0 0 0 .68.495L8 13.245l4.436 2.333a.469.469 0 0 0 .68-.495l-.847-4.94 3.59-3.498a.468.468 0 0 0 .118-.48z" fill="url(#b)"/></g><defs><radialGradient id="b" cx="0" cy="0" r="1" gradientUnits="userSpaceOnUse" gradientTransform="matrix(6.78064 -20.23198 38.13517 12.7808 1.814 15.631)"><stop stop-color="#EC823E"/><stop offset="1" stop-color="#EC6749"/></radialGradient><clipPath id="a"><path fill="#fff" d="M0 0h16v16H0z"/></clipPath></defs></svg>