<svg width="25" height="26" viewBox="0 0 25 26" fill="none" xmlns="http://www.w3.org/2000/svg"><path d="M21.877 4.782a1.354 1.354 0 0 0-.277 0H2.653c-.122.001-.242.02-.359.054l9.778 9.737 9.805-9.791z" fill="#B86A3F"/><path d="M22.878 5.722l-9.853 9.812a1.353 1.353 0 0 1-1.908 0L1.352 5.797c-.03.11-.046.224-.047.338V19.67a1.353 1.353 0 0 0 1.353 1.353h18.947a1.353 1.353 0 0 0 1.354-1.353V6.135a1.354 1.354 0 0 0-.081-.413zM3.585 19.67h-.94v-.968l4.92-4.879.953.955-4.933 4.892zm18.007 0h-.947l-4.934-4.893.955-.954 4.92 4.88.006.967z" fill="#B86A3F"/></svg>