<svg width="518" height="381" viewBox="0 0 518 381" fill="none" xmlns="http://www.w3.org/2000/svg"><path d="M324.023 29.728c-72.193-14.264-131.203-1.712-149.056 35.69-17.891 37.514-3.178 75.742-67.994 91.176C53.848 168.89-8.497 190.572.958 251.309c8.985 57.627 57.755 68.24 120.218 70.579 66.465 2.511 137.716-38.228 199.59-18.344 57.441 18.458 122.258 22.566 130.772-30.782 4.983-31.239-31.82-41.68-38.804-66.015-9.691-33.72 9.691-46.359 15.537-68.896 14.478-56.001-35.037-92.233-104.248-108.123z" fill="#E1E7F1"/><path d="M324.023 29.728c-72.193-14.264-131.203-1.712-149.056 35.69-17.891 37.514-3.178 75.742-67.994 91.176C53.848 168.89-8.497 190.572.958 251.309c8.985 57.627 57.755 68.24 120.218 70.579 66.465 2.511 137.716-38.228 199.59-18.344 57.441 18.458 122.258 22.566 130.772-30.782 4.983-31.239-31.82-41.68-38.804-66.015-9.691-33.72 9.691-46.359 15.537-68.896 14.478-56.001-35.037-92.233-104.248-108.123z" fill="#fff" fill-opacity=".1"/><path d="M324.023 29.728c-72.193-14.264-131.203-1.712-149.056 35.69-17.891 37.514-3.178 75.742-67.994 91.176C53.848 168.89-8.497 190.572.958 251.309c8.985 57.627 57.755 68.24 120.218 70.579 66.465 2.511 137.716-38.228 199.59-18.344 57.441 18.458 122.258 22.566 130.772-30.782 4.983-31.239-31.82-41.68-38.804-66.015-9.691-33.72 9.691-46.359 15.537-68.896 14.478-56.001-35.037-92.233-104.248-108.123z" fill="#fff" fill-opacity=".1"/><path d="M324.023 29.728c-72.193-14.264-131.203-1.712-149.056 35.69-17.891 37.514-3.178 75.742-67.994 91.176C53.848 168.89-8.497 190.572.958 251.309c8.985 57.627 57.755 68.24 120.218 70.579 66.465 2.511 137.716-38.228 199.59-18.344 57.441 18.458 122.258 22.566 130.772-30.782 4.983-31.239-31.82-41.68-38.804-66.015-9.691-33.72 9.691-46.359 15.537-68.896 14.478-56.001-35.037-92.233-104.248-108.123z" fill="#fff" fill-opacity=".1"/><g filter="url(#a)"><path d="M225.562 127.066l-2.222.172-1.831-26.052 2.222-.172c1.284-.124 2.389.854 2.513 2.138l1.529 21.345c.049 1.339-.863 2.455-2.211 2.569zm2.385 32.465l-2.222.171-1.831-26.051 2.222-.172c1.284-.125 2.389.853 2.513 2.138l1.529 21.344c-.016 1.329-.928 2.445-2.211 2.57z" fill="#fff"/><path d="M466.422 59.653l15.975 222.273c.874 12.254-8.369 22.933-20.61 23.809l-198.092 14.251" stroke="#fff" stroke-width="1.5" stroke-miterlimit="10" stroke-linecap="round" stroke-linejoin="round"/><path d="M84.738 112.81l14.127 196.745c.585 7.881 7.342 13.768 15.215 13.182l346.799-24.932c7.873-.586 13.766-7.416 13.171-15.232L459.923 85.828 84.738 112.81z" fill="#FDFDFD" stroke="#CFCFCF" stroke-miterlimit="10"/><path d="M461.741 101.288l-2.125-29.557c-.483-6.866-6.493-12.033-13.352-11.549l-351.71 25.33c-6.86.485-12.088 6.492-11.605 13.357l2.125 29.558 376.667-27.139z" fill="#647AA1"/><path d="M243.78 101.603l-.529-7.406-3.23 6.397-.938.047-4.115-5.791.54 7.341-1.952.149-.783-11.174 1.682-.126 4.962 7.127 3.85-7.76 1.682-.127.848 11.184-2.017.139zm10.329-1.387c-.93-.417-1.688-1.072-2.285-1.9-.597-.83-.903-1.811-.994-2.89-.091-1.08.142-2.107.558-3.038.482-.92 1.137-1.679 2.019-2.201.893-.587 1.873-.894 3.016-.975 1.144-.08 2.18.088 3.175.515.929.417 1.687 1.073 2.284 1.901.597.83.904 1.81.995 2.89.091 1.08-.142 2.107-.559 3.037-.481.92-1.136 1.68-2.018 2.202-.893.587-1.874.894-3.017.974-1.218.135-2.255-.033-3.174-.515zm4.965-1.922c.592-.37 1.01-.901 1.31-1.518.299-.617.415-1.33.336-2.075-.079-.745-.298-1.446-.678-1.973-.369-.593-.9-1.012-1.516-1.311-.616-.3-1.329-.416-2.073-.337-.744.08-1.369.244-1.971.679-.592.37-1.01.9-1.31 1.518-.299.617-.415 1.33-.336 2.075.079.744.298 1.445.678 1.973.38.527.9 1.01 1.516 1.31.616.3 1.329.416 2.073.337a4.524 4.524 0 0 0 1.971-.678zm18.704-10.41l.783 11.174-1.682.126-6.688-7.14.562 7.61-2.082.129-.783-11.174 1.683-.127 6.688 7.141-.562-7.61 2.081-.129zm8.593 1.126l-3.7.265-.115-1.749 9.48-.657.116 1.749-3.7.264.667 9.425-2.081.128-.667-9.424zm20.396-3.213l.783 11.174-2.082.128-.356-4.783-5.781.393.356 4.783-2.082.128-.782-11.174 2.081-.128.312 4.642 5.781-.393-.312-4.642 2.082-.128z" fill="#fff"/><path d="M344.749 257.538l-27.243 1.968c-2.556.184-4.776-1.707-4.895-4.255l-.738-10.633c-.183-2.558 1.706-4.781 4.251-4.9l27.244-1.968c2.556-.184 4.776 1.706 4.895 4.254l.737 10.634c.194 2.493-1.695 4.716-4.251 4.9z" fill="#FFCA43"/><path d="M118.988 169.812c-.422-.268-.833-.601-1.084-1.108-.25-.506-.415-1.132-.504-1.812-.079-.745.016-1.328.24-1.891.224-.562.492-.985.933-1.246.387-.336.872-.457 1.411-.503.54-.046 1.058.039 1.48.307.422.268.833.601 1.084 1.107.25.507.415 1.132.504 1.812a3.78 3.78 0 0 1-.24 1.891c-.224.563-.492.985-.933 1.246-.387.337-.872.458-1.411.503-.604.035-1.058-.038-1.48-.306zm2.432-1.469c.268-.422.363-1.006.294-1.816-.068-.809-.243-1.37-.515-1.747-.336-.387-.703-.58-1.178-.524-.474.056-.84.263-1.108.685-.268.423-.363 1.006-.294 1.816.068.81.243 1.371.515 1.747.336.388.703.58 1.178.524.539-.045.905-.252 1.108-.685zm5.414-5.51l.504 6.737-1.273.059-.413-5.657-1.413.104-.091-1.08 2.686-.163zm40.986 3.451c-.422-.268-.833-.601-1.083-1.108-.251-.506-.415-1.132-.505-1.812-.079-.744.016-1.328.24-1.891.224-.562.492-.985.933-1.246.387-.336.872-.457 1.411-.503.54-.045 1.058.039 1.48.307.422.268.833.601 1.084 1.107.25.507.415 1.133.504 1.813.079.744-.016 1.328-.24 1.89-.224.563-.492.985-.933 1.247-.387.336-.872.457-1.411.503-.539.045-1.058-.039-1.48-.307zm2.497-1.458c.268-.423.362-1.006.294-1.816s-.243-1.37-.515-1.747c-.336-.387-.704-.58-1.178-.524-.475.056-.84.263-1.108.685-.268.423-.363 1.006-.294 1.816.068.81.243 1.37.514 1.747.337.387.704.58 1.179.524.474-.056.84-.263 1.108-.685zm8.317-.048l.091 1.08-4.972.324-.068-.81 2.502-2.721c.246-.293.493-.586.525-.78.107-.249.138-.444.105-.649a1.007 1.007 0 0 0-.349-.722c-.238-.171-.562-.224-.971-.157a1.915 1.915 0 0 0-1.529.816l-.898-.611c.257-.358.569-.64 1.01-.901.431-.196.926-.382 1.466-.428.744-.078 1.316.081 1.792.424.477.344.738.785.773 1.39.012.335-.051.724-.168 1.038-.118.313-.386.736-.783 1.137l-1.696 1.854 3.17-.284zm46.96-2.634c-.422-.268-.834-.601-1.084-1.107-.25-.507-.415-1.132-.504-1.812-.079-.745.015-1.329.239-1.891.225-.563.492-.985.934-1.246.387-.337.872-.458 1.411-.503.539-.046 1.057.038 1.479.306.422.268.834.601 1.084 1.108.251.506.415 1.132.504 1.812.079.745-.015 1.328-.239 1.891-.224.562-.492.985-.933 1.246-.387.336-.872.457-1.412.503-.604.035-1.047-.104-1.479-.307zm2.432-1.469c.268-.422.362-1.005.294-1.815-.069-.81-.244-1.37-.515-1.747-.336-.387-.704-.58-1.178-.524-.475.056-.841.263-1.109.685-.268.422-.362 1.006-.294 1.816.069.809.244 1.37.515 1.747.336.387.704.58 1.179.524.539-.046.905-.253 1.108-.686zm7.552-2.302c.346.323.542.754.588 1.294.002.399-.051.724-.243 1.092-.183.303-.429.595-.86.792-.366.207-.851.327-1.455.363-.474.056-.928-.018-1.381-.091-.454-.074-.822-.267-1.189-.46l.492-.985c.238.172.541.354.929.418.379.127.713.115 1.112.113.475-.056.755-.143.991-.371.237-.228.343-.477.321-.747a1.043 1.043 0 0 0-.414-.732c-.238-.172-.627-.235-1.101-.179l-.604.035-.058-.874 1.373-1.907-3.031.24-.091-1.079 4.573-.323.068.81-1.468 2.09c.593.03 1.101.179 1.448.501zm31.719.751c-.422-.268-.833-.601-1.084-1.107-.25-.507-.415-1.132-.504-1.812-.079-.745.016-1.329.24-1.891.224-.563.492-.985.933-1.246.387-.337.872-.458 1.411-.503.539-.046 1.057.038 1.479.306.422.268.834.601 1.084 1.108.251.506.415 1.132.505 1.812a3.782 3.782 0 0 1-.24 1.891c-.224.562-.492.985-.933 1.246-.387.336-.872.457-1.412.503-.539.045-.992-.028-1.479-.307zm2.497-1.458c.267-.422.362-1.006.294-1.816-.069-.809-.244-1.37-.515-1.747-.336-.387-.704-.58-1.179-.524-.474.056-.84.263-1.108.686-.268.422-.362 1.005-.294 1.815.069.81.244 1.37.515 1.747.336.388.704.58 1.178.524.475-.056.841-.263 1.109-.685zm9.47-.594l-1.208.07.083 1.544-1.208.07-.083-1.544-3.699.265-.058-.874 3-4.571 1.349-.114-2.83 4.332 2.222-.171-.114-1.35 1.144-.08.114 1.349 1.208-.07.08 1.144zm38.885-1.614c-.422-.268-.834-.601-1.084-1.108-.251-.506-.415-1.132-.505-1.812-.078-.744.016-1.328.24-1.89.224-.563.492-.985.933-1.247.387-.336.872-.457 1.411-.503.54-.045 1.058.039 1.48.307.422.268.833.601 1.084 1.108.25.506.415 1.132.504 1.812.079.744-.016 1.328-.24 1.891-.224.562-.492.985-.933 1.246-.387.336-.872.457-1.411.503-.539.045-.993-.028-1.479-.307zm2.496-1.458c.268-.422.363-1.006.294-1.816-.068-.809-.243-1.37-.515-1.747-.336-.387-.703-.58-1.178-.524-.474.056-.84.263-1.108.685-.268.423-.363 1.006-.294 1.816.068.81.243 1.37.515 1.747.336.387.704.58 1.178.524.539-.045.84-.263 1.108-.685zm7.518-2.507c.476.343.737.785.762 1.454.001.4-.062.789-.244 1.092-.192.368-.429.596-.87.857-.366.207-.851.328-1.455.363-.474.056-.928-.018-1.381-.091-.454-.074-.821-.267-1.189-.459l.427-.996c.238.172.541.354.93.417.378.128.712.116 1.112.114.474-.056.754-.144.991-.371a.996.996 0 0 0 .33-.812c-.012-.335-.164-.625-.478-.743-.303-.182-.767-.191-1.435-.166l-1.618.136.07-3.715 3.969-.287.091 1.079-2.891.197-.057 1.587.668-.024c1.079-.091 1.792.024 2.268.368zm47.962-.209c-.422-.268-.833-.601-1.084-1.107-.25-.507-.415-1.133-.504-1.813-.079-.744.016-1.328.24-1.89.224-.563.492-.985.933-1.246.387-.337.872-.458 1.411-.504.539-.045 1.058.039 1.48.307.421.268.833.601 1.083 1.108.251.506.415 1.132.505 1.812.079.744-.016 1.328-.24 1.891-.224.562-.492.984-.933 1.246-.387.336-.872.457-1.411.503-.54.045-1.058-.039-1.48-.307zm2.497-1.458c.268-.423.362-1.006.294-1.816-.068-.809-.244-1.37-.515-1.747-.336-.387-.704-.58-1.178-.524-.475.056-.841.263-1.109.685-.268.423-.362 1.006-.294 1.816.069.81.244 1.37.515 1.747.336.387.704.58 1.178.524.475-.056.841-.263 1.109-.685zm7.571-2.832c.378.128.671.375.888.677.217.301.359.657.361 1.056.066.41-.072.854-.254 1.157-.182.303-.494.585-.795.803a2.434 2.434 0 0 1-1.25.329c-.939.048-1.63-.198-2.215-.692-.574-.559-.848-1.335-.939-2.415a4.054 4.054 0 0 1 .251-1.956c.224-.562.621-.963 1.073-1.289.451-.326 1.012-.502 1.681-.526.334-.012.668-.025.992.028.324.052.573.159.821.266l-.427.996c-.367-.193-.756-.256-1.295-.211-.669.025-1.11.286-1.443.698-.333.412-.492.985-.413 1.73.171-.239.408-.467.688-.554.291-.153.636-.23 1.035-.232.474-.056.873-.057 1.241.135zm-.301 2.68c.236-.228.343-.477.277-.887a1.018 1.018 0 0 0-.403-.797 1.403 1.403 0 0 0-1.026-.233c-.399.001-.69.154-.926.382a1.139 1.139 0 0 0-.342.876c.013.335.175.561.403.797.238.172.616.3 1.026.233.464.009.82-.133.991-.371zm40.21-1.999c-.422-.268-.834-.601-1.084-1.108-.251-.506-.415-1.132-.505-1.812-.078-.745.016-1.328.24-1.891.224-.562.492-.985.933-1.246.387-.336.872-.457 1.412-.503.539-.046 1.057.038 1.479.307.422.268.833.601 1.084 1.107.25.507.415 1.132.504 1.812.079.745-.016 1.329-.24 1.891-.224.563-.492.985-.933 1.246-.387.337-.872.458-1.411.503-.539.046-1.057-.038-1.479-.306zm2.496-1.459c.268-.422.363-1.006.294-1.815-.068-.81-.243-1.371-.515-1.747-.336-.388-.703-.58-1.178-.524-.474.056-.84.263-1.108.685-.268.422-.362 1.006-.294 1.816.068.809.243 1.37.515 1.747.336.387.704.58 1.178.524.474-.056.84-.263 1.108-.686zm8.109-5.737l.068.809-2.184 6.101-1.349.114 2.143-5.841-2.621.173.081 1.145-1.144.08-.171-2.224 5.177-.357zm-315.469 61.377c-.422-.268-.833-.601-1.084-1.107-.25-.507-.415-1.132-.504-1.812-.079-.745.016-1.329.24-1.891.224-.563.492-.985.933-1.246.387-.337.872-.458 1.411-.503.54-.046 1.058.038 1.48.306.422.268.833.601 1.084 1.108.25.506.415 1.132.504 1.812a3.782 3.782 0 0 1-.24 1.891c-.224.562-.492.985-.933 1.246-.387.336-.872.457-1.411.503-.529-.019-1.047-.104-1.48-.307zm2.497-1.458c.268-.422.362-1.006.294-1.816-.068-.809-.243-1.37-.515-1.747-.336-.387-.704-.58-1.178-.524-.475.056-.841.263-1.108.686-.268.422-.363 1.006-.294 1.815.068.81.243 1.371.514 1.747.337.388.704.58 1.179.524.474-.056.851-.327 1.108-.685zm8.559-1.94c.228.237.305.582.382.927.001.4-.062.789-.244 1.092-.182.303-.493.585-.924.782a3.806 3.806 0 0 1-1.455.363 3.677 3.677 0 0 1-1.436-.167c-.378-.128-.746-.321-1.027-.632a2.477 2.477 0 0 1-.426-1.068c-.012-.334.04-.659.222-.962.182-.303.419-.531.774-.673a1.29 1.29 0 0 1-.649-.504c-.163-.227-.251-.507-.263-.842-.002-.399.051-.723.233-1.027.182-.303.483-.52.849-.727.366-.207.775-.273 1.315-.319.474-.056.928.018 1.306.146.378.127.681.31.898.611.228.237.37.592.371.992.013.335-.029.594-.136.843-.107.249-.343.477-.569.64.259.042.551.289.779.525zm-1.287 1.788a.997.997 0 0 0 .331-.812c-.012-.334-.175-.56-.478-.743-.303-.182-.627-.234-1.101-.178-.475.056-.82.133-1.056.361a.998.998 0 0 0-.331.811c.012.335.165.626.478.743.303.182.627.235 1.101.179.464.009.82-.133 1.056-.361zm-2.306-4.234c-.226.163-.333.412-.32.747.022.269.185.495.359.657.238.171.562.224.961.222a1.53 1.53 0 0 0 .916-.317.743.743 0 0 0 .309-.682c-.022-.27-.175-.561-.423-.667-.238-.172-.562-.225-.972-.158-.313-.117-.594-.03-.83.198zm41.436 2.327c-.422-.268-.834-.601-1.084-1.108-.25-.506-.415-1.132-.504-1.812-.079-.744.015-1.328.239-1.89.225-.563.492-.985.934-1.246.387-.337.871-.458 1.411-.503.539-.046 1.057.038 1.479.306.422.268.834.601 1.084 1.108.25.506.415 1.132.504 1.812.079.744-.015 1.328-.239 1.891-.224.562-.492.984-.933 1.246-.387.336-.872.457-1.412.503-.604.035-1.047-.104-1.479-.307zm2.432-1.469c.268-.422.362-1.006.294-1.815-.069-.81-.244-1.371-.515-1.747-.336-.388-.704-.58-1.178-.524-.475.056-.841.263-1.109.685-.268.422-.362 1.006-.294 1.815.069.81.244 1.371.515 1.748.336.387.704.58 1.178.524.54-.046.906-.253 1.109-.686zm7.583-4.958c.574.559.847 1.335.938 2.415a4.05 4.05 0 0 1-.25 1.955c-.224.563-.621.964-1.073 1.29-.452.326-1.012.501-1.681.526-.334.012-.669.025-.993-.028-.323-.053-.572-.159-.821-.266l.427-.996c.368.193.757.256 1.296.211.669-.025 1.11-.286 1.443-.698.332-.412.492-.985.413-1.73-.172.239-.408.466-.688.554-.291.153-.636.23-1.035.231-.474.057-.863-.007-1.231-.199-.367-.193-.67-.375-.887-.677a1.802 1.802 0 0 1-.361-1.056c-.067-.41.072-.854.254-1.157.192-.368.493-.585.794-.803a2.438 2.438 0 0 1 1.251-.329c.928.017 1.694.208 2.204.757zm-.886 2.185c.236-.228.354-.541.341-.876-.012-.335-.175-.561-.402-.797a1.404 1.404 0 0 0-1.026-.233c-.399.001-.69.154-.926.382-.237.227-.344.476-.277.886.012.335.165.626.403.798.238.171.616.299 1.026.233.28-.088.625-.165.861-.393zm49.101-6.413l.504 6.737-1.273.06-.413-5.657-1.413.103-.091-1.08 2.686-.163zm4.127 6.127c-.422-.268-.833-.601-1.084-1.108-.25-.506-.415-1.132-.504-1.812-.079-.744.016-1.328.24-1.891.224-.562.492-.984.933-1.246.387-.336.872-.457 1.411-.503.539-.045 1.058.039 1.48.307.422.268.833.601 1.083 1.107.251.507.415 1.133.505 1.812.079.745-.016 1.329-.24 1.891-.224.563-.492.985-.933 1.246-.387.337-.872.458-1.411.503-.54.046-1.058-.038-1.48-.306zm2.497-1.458c.268-.423.362-1.006.294-1.816-.068-.809-.244-1.37-.515-1.747-.336-.387-.704-.58-1.178-.524-.475.056-.841.263-1.109.685-.267.423-.362 1.006-.294 1.816.069.809.244 1.37.515 1.747.336.387.704.58 1.179.524.474-.056.84-.263 1.108-.685zm35.145-7.678l.505 6.736-1.273.06-.414-5.657-1.413.104-.091-1.08 2.686-.163zm4.573-.323l.504 6.737-1.273.06-.413-5.657-1.413.103-.091-1.08 2.686-.163zm46.277-3.344l.505 6.737-1.273.06-.414-5.657-1.413.103-.091-1.079 2.686-.164zm7.543 5.151l.091 1.079-4.972.325-.069-.81 2.502-2.722c.247-.292.494-.585.525-.78.107-.248.139-.443.105-.648a1.006 1.006 0 0 0-.348-.722c-.238-.172-.562-.224-.972-.158a1.914 1.914 0 0 0-1.528.817l-.899-.612a3.178 3.178 0 0 1 1.011-.9c.43-.197.926-.382 1.465-.428.744-.079 1.317.081 1.793.424.476.343.737.785.772 1.39.012.334-.051.723-.168 1.037-.117.314-.385.736-.782 1.137l-1.697 1.855 3.171-.284zm50.434-9.324l.504 6.736-1.273.06-.413-5.657-1.413.103-.091-1.079 2.686-.163zm6.767 2.961c.347.322.543.754.588 1.293.002.4-.05.724-.243 1.092-.182.303-.429.596-.86.792-.365.207-.85.328-1.454.363-.475.056-.928-.017-1.382-.091-.453-.074-.821-.266-1.189-.459l.492-.985c.238.172.541.354.93.417.378.128.712.116 1.112.114.474-.056.754-.144.991-.372.236-.227.343-.476.32-.746a1.046 1.046 0 0 0-.413-.733c-.238-.171-.627-.235-1.102-.178l-.604.035-.057-.875 1.372-1.907-3.031.241-.091-1.08 4.574-.322.068.809-1.469 2.091a1.93 1.93 0 0 1 1.448.501zm43.147-6.58l.504 6.736-1.273.06-.413-5.657-1.413.103-.091-1.079 2.686-.163zm8.692 4.605l-1.208.07.082 1.544-1.208.07-.082-1.544-3.7.265-.058-.874 3.001-4.571 1.348-.114-2.829 4.332 2.222-.171-.114-1.35 1.143-.08.114 1.349 1.208-.07.081 1.144zm-313.603 48.236l.505 6.737-1.273.06-.413-5.657-1.413.103-.092-1.079 2.686-.164zm6.679 2.682c.477.343.737.785.762 1.454.002.4-.061.789-.243 1.092-.193.368-.429.596-.87.857-.366.207-.851.328-1.455.363-.475.056-.928-.017-1.382-.091-.453-.074-.821-.266-1.189-.459l.427-.996c.239.172.541.354.93.417.378.128.713.116 1.112.114.474-.056.755-.143.991-.371a1 1 0 0 0 .331-.812c-.012-.334-.165-.625-.478-.743-.303-.182-.767-.191-1.436-.166l-1.618.137.07-3.715 3.969-.288.091 1.079-2.89.197-.058 1.588.669-.025c1.078-.091 1.791.024 2.267.368zm42.151-6.208l.505 6.736-1.273.06-.413-5.657-1.413.103-.091-1.079 2.685-.163zm6.733 2.357c.378.128.671.375.888.676.217.302.359.657.36 1.057.067.41-.071.853-.253 1.157-.193.368-.494.585-.795.802a2.435 2.435 0 0 1-1.25.33c-.939.047-1.63-.198-2.215-.692-.575-.559-.848-1.336-.939-2.415a4.042 4.042 0 0 1 .251-1.956c.224-.563.621-.964 1.073-1.29.451-.326 1.012-.501 1.681-.526.334-.012.668-.024.992.028.324.053.573.16.821.267l-.427.995c-.367-.193-.756-.256-1.295-.21-.669.024-1.11.286-1.443.697-.333.412-.492.985-.413 1.73.171-.238.408-.466.688-.554.291-.152.635-.229 1.035-.231.474-.056.873-.058 1.241.135zm-.236 2.69c.236-.228.343-.477.276-.887a1.014 1.014 0 0 0-.402-.797 1.406 1.406 0 0 0-1.026-.233c-.4.001-.69.154-.927.382a1.142 1.142 0 0 0-.341.876c.012.335.175.561.403.797.238.172.616.3 1.026.233.464.009.754-.143.991-.371zm51.279-9.189l.504 6.737-1.273.06-.413-5.657-1.413.103-.091-1.08 2.686-.163zm7.334-.539l.069.809-2.185 6.101-1.348.114 2.142-5.842-2.621.174.081 1.144-1.143.081-.172-2.224 5.177-.357zm34.371-2.48l.505 6.736-1.273.06-.414-5.657-1.413.103-.091-1.079 2.686-.163zm7.781 3.259c.227.237.304.582.381.927.002.4-.061.789-.243 1.092-.182.303-.494.585-.924.782a3.806 3.806 0 0 1-1.455.362 3.655 3.655 0 0 1-1.436-.166c-.443-.138-.746-.321-1.028-.633a2.466 2.466 0 0 1-.425-1.067c-.013-.334.04-.659.222-.962.182-.303.418-.531.774-.673a1.29 1.29 0 0 1-.65-.505c-.163-.226-.25-.506-.262-.841-.002-.399.05-.723.232-1.027.182-.303.484-.52.85-.727.365-.207.775-.273 1.314-.319.475-.056.928.018 1.307.145.378.128.681.311.898.612.227.237.369.592.371.992.012.335-.03.594-.136.843-.107.249-.344.477-.569.639.248.107.551.29.779.526zm-1.298 1.853a.994.994 0 0 0 .331-.812c-.012-.335-.175-.561-.478-.743-.303-.182-.627-.235-1.101-.179-.475.057-.819.134-1.056.362a.996.996 0 0 0-.331.811c.013.335.165.626.478.743.314.117.627.235 1.102.179.474-.056.83-.198 1.055-.361zm-2.295-4.299c-.226.163-.333.412-.321.746.023.27.186.496.359.658.238.171.562.224.962.222.399-.002.689-.154.915-.317a.741.741 0 0 0 .31-.682c-.023-.27-.175-.561-.424-.667-.238-.172-.562-.225-.971-.158a1.084 1.084 0 0 0-.83.198zm46.726-4.468l.505 6.736-1.273.06-.414-5.657-1.413.103-.091-1.079 2.686-.163zm6.732.294c.574.559.847 1.335.938 2.415a4.054 4.054 0 0 1-.25 1.956c-.224.562-.622.963-1.073 1.289-.452.326-1.012.502-1.681.526-.334.013-.669.025-.993-.028-.324-.052-.572-.159-.821-.266l.427-.995c.368.192.757.255 1.296.21.669-.025 1.11-.286 1.443-.698.332-.412.491-.985.413-1.73-.172.239-.408.467-.688.554-.291.153-.636.23-1.035.232-.475.056-.863-.007-1.231-.2a1.81 1.81 0 0 1-.888-.676 1.807 1.807 0 0 1-.36-1.057c-.067-.41.071-.854.253-1.157.193-.368.494-.585.795-.803a2.434 2.434 0 0 1 1.25-.329c.939-.047 1.63.198 2.205.757zm-.94 2.11c.236-.228.353-.542.341-.876-.012-.335-.175-.561-.403-.798a1.413 1.413 0 0 0-1.026-.233c-.399.002-.69.155-.926.382-.236.228-.343.477-.277.887.013.335.165.626.403.798.238.171.616.299 1.026.233.335-.013.625-.165.862-.393zm55.089-1.116l.091 1.079-4.972.325-.069-.81 2.502-2.722c.247-.292.494-.585.525-.78.107-.248.139-.443.105-.648a1.006 1.006 0 0 0-.348-.722c-.238-.172-.562-.224-.972-.158a1.914 1.914 0 0 0-1.528.817l-.899-.612a3.178 3.178 0 0 1 1.011-.9c.43-.197.926-.382 1.465-.428.744-.079 1.317.081 1.793.424.476.343.737.785.772 1.39.012.334-.051.723-.168 1.037-.117.314-.385.736-.782 1.138l-1.697 1.854 3.171-.284zm3.045.494c-.422-.268-.833-.601-1.084-1.108-.25-.506-.415-1.132-.504-1.812-.079-.745.016-1.328.24-1.891.224-.562.492-.985.933-1.246.387-.336.872-.457 1.411-.503.539-.045 1.058.039 1.48.307.422.268.833.601 1.084 1.107.25.507.415 1.132.504 1.812.079.745-.016 1.329-.24 1.891-.224.563-.492.985-.933 1.246-.387.337-.872.458-1.411.503-.539.046-.993-.028-1.48-.306zm2.497-1.458c.268-.423.362-1.006.294-1.816s-.243-1.37-.515-1.747c-.336-.387-.704-.58-1.178-.524-.475.056-.841.263-1.108.685-.268.423-.363 1.006-.295 1.816.069.809.244 1.37.515 1.747.337.387.704.58 1.179.524.528.019.84-.263 1.108-.685zm44.436-2.644l.091 1.079-4.972.325-.068-.81 2.502-2.722c.246-.292.493-.585.525-.78.107-.249.138-.443.105-.648a1.007 1.007 0 0 0-.349-.722c-.238-.172-.562-.224-.971-.158a1.916 1.916 0 0 0-1.529.817l-.898-.612a3.174 3.174 0 0 1 1.01-.9c.431-.197.926-.383 1.466-.428.744-.079 1.316.08 1.792.424.477.343.738.785.773 1.39.012.334-.051.723-.168 1.037-.118.314-.386.736-.783 1.137l-1.696 1.855 3.17-.284zm3.555-5.946l.505 6.736-1.273.06-.414-5.657-1.413.103-.091-1.079 2.686-.163zM129.197 263.51l.091 1.08-4.972.324-.069-.809 2.502-2.722c.247-.293.494-.585.525-.78.107-.249.139-.443.105-.648a1.006 1.006 0 0 0-.348-.722c-.238-.172-.562-.225-.972-.158a1.914 1.914 0 0 0-1.528.817l-.899-.612a3.18 3.18 0 0 1 1.011-.901c.43-.196.926-.382 1.465-.427.744-.079 1.317.08 1.793.424.476.343.737.785.772 1.389.012.335-.051.724-.168 1.038-.117.313-.385.736-.782 1.137l-1.697 1.854 3.171-.284zm6.525-.471l.091 1.079-4.972.324-.068-.809 2.501-2.722c.247-.292.494-.585.526-.78.106-.248.138-.443.105-.648a1.007 1.007 0 0 0-.349-.722c-.238-.172-.562-.224-.971-.158a1.916 1.916 0 0 0-1.529.817l-.898-.612a3.174 3.174 0 0 1 1.01-.9c.431-.197.926-.382 1.465-.428.745-.079 1.317.081 1.793.424.477.343.738.785.773 1.39.012.334-.051.723-.168 1.037-.118.314-.386.736-.783 1.137l-1.697 1.855 3.171-.284zm42.307-3.056l.091 1.08-4.972.324-.069-.809 2.502-2.722c.247-.293.494-.585.525-.78.107-.249.139-.443.105-.648a1.006 1.006 0 0 0-.348-.722c-.238-.172-.562-.225-.972-.158a1.914 1.914 0 0 0-1.528.817l-.899-.612a3.18 3.18 0 0 1 1.011-.901c.43-.196.926-.382 1.465-.427.744-.079 1.317.08 1.793.424.476.343.737.785.772 1.389.012.335-.051.724-.168 1.038-.117.313-.385.736-.782 1.137l-1.697 1.854 3.171-.284zm5.814-2.651c.347.323.543.754.589 1.293.001.4-.051.724-.244 1.092-.182.303-.429.596-.859.792a3.788 3.788 0 0 1-1.455.363c-.475.056-.928-.017-1.382-.091-.453-.073-.821-.266-1.189-.459l.492-.985c.239.172.541.354.93.417.378.128.713.116 1.112.114.474-.056.755-.144.991-.371.236-.228.343-.477.32-.747a1.043 1.043 0 0 0-.413-.733c-.238-.171-.627-.234-1.101-.178l-.604.035-.058-.875 1.372-1.906-3.03.24-.091-1.08 4.573-.322.068.809-1.469 2.091a1.928 1.928 0 0 1 1.448.501zm51.961-1.489l.091 1.079-4.972.325-.068-.81 2.502-2.721c.246-.293.493-.586.525-.78.107-.249.138-.444.105-.649a1.005 1.005 0 0 0-.349-.722c-.238-.171-.562-.224-.971-.157a1.915 1.915 0 0 0-1.529.816l-.898-.611c.257-.358.569-.64 1.01-.901.431-.196.926-.382 1.466-.428.744-.079 1.316.081 1.792.424.477.344.738.785.773 1.39.012.335-.051.724-.168 1.037-.118.314-.386.736-.783 1.138l-1.696 1.854 3.17-.284zm7.472-.985l-1.208.07.082 1.544-1.208.071-.082-1.544-3.7.264-.057-.874 3-4.571 1.348-.114-2.829 4.333 2.222-.172-.114-1.35 1.143-.08.114 1.349 1.208-.07.081 1.144zm34.298-2.025l.091 1.08-4.973.324-.068-.809 2.502-2.722c.247-.293.494-.585.525-.78.107-.249.139-.443.105-.648a1.006 1.006 0 0 0-.348-.722c-.238-.172-.562-.225-.972-.158a1.914 1.914 0 0 0-1.528.817l-.899-.612a3.193 3.193 0 0 1 1.011-.901c.43-.196.926-.382 1.465-.427.744-.079 1.317.08 1.793.424.476.343.737.785.772 1.389.012.335-.051.724-.168 1.038-.117.314-.385.736-.782 1.137l-1.697 1.854 3.171-.284zm5.661-2.942c.476.344.737.785.762 1.455.002.399-.061.789-.243 1.092-.193.368-.429.596-.871.857-.365.206-.85.327-1.455.362-.474.057-.927-.017-1.381-.091-.453-.073-.821-.266-1.189-.459l.427-.995c.238.172.541.354.93.417.378.128.713.116 1.112.114.474-.056.754-.144.991-.372a.998.998 0 0 0 .331-.811c-.013-.335-.165-.626-.478-.743-.303-.182-.767-.191-1.436-.167l-1.618.137.07-3.715 3.969-.288.091 1.08-2.89.196-.058 1.588.669-.025c1.078-.091 1.791.025 2.267.368zm103.167-4.898l.091 1.079-4.972.325-.069-.81 2.502-2.722c.247-.292.494-.585.525-.779.107-.249.139-.444.105-.649a1.006 1.006 0 0 0-.348-.722c-.238-.172-.562-.224-.972-.158a1.917 1.917 0 0 0-1.528.817l-.898-.611c.257-.358.569-.64 1.01-.901.43-.196.926-.382 1.465-.428.744-.079 1.317.081 1.793.424.476.344.737.785.772 1.39.013.335-.051.724-.168 1.037-.117.314-.385.736-.782 1.138l-1.697 1.854 3.171-.284zm6.241-6.109l.068.809-2.185 6.101-1.348.114 2.143-5.841-2.621.173.08 1.145-1.143.08-.172-2.224 5.178-.357zm43.669 2.49l.091 1.08-4.972.324-.069-.81 2.502-2.721c.247-.293.494-.586.525-.78.107-.249.139-.443.106-.648a1.01 1.01 0 0 0-.349-.722c-.238-.172-.562-.225-.972-.158a1.913 1.913 0 0 0-1.528.817l-.898-.612c.257-.358.569-.64 1.01-.901.431-.196.926-.382 1.465-.427.744-.079 1.317.08 1.793.424.476.343.737.785.772 1.389.013.335-.05.724-.168 1.038-.117.313-.385.736-.782 1.137l-1.697 1.854 3.171-.284zm6.753-2.299c.228.237.305.582.382.927.002.4-.061.789-.243 1.092-.182.303-.494.586-.925.782-.43.196-.85.328-1.454.363a3.673 3.673 0 0 1-1.436-.167c-.378-.128-.746-.32-1.028-.632a2.475 2.475 0 0 1-.425-1.068c-.013-.334.04-.659.222-.962.182-.303.418-.531.774-.673a1.293 1.293 0 0 1-.65-.504c-.163-.226-.25-.507-.263-.842-.001-.399.051-.723.233-1.027.182-.303.483-.52.849-.727.366-.207.776-.273 1.315-.319.475-.056.928.018 1.306.146.379.127.681.31.899.611.227.237.369.592.371.992.012.335-.03.594-.137.843-.107.249-.343.477-.569.64.249.107.552.289.779.525zm-1.297 1.853a.997.997 0 0 0 .331-.812c-.012-.334-.175-.56-.478-.743-.303-.182-.627-.234-1.101-.178-.475.056-.82.133-1.056.361a.998.998 0 0 0-.331.811c.012.335.165.626.478.743.314.118.627.235 1.101.179.475-.056.83-.198 1.056-.361zm-2.295-4.299c-.226.163-.333.412-.321.747.023.269.186.496.359.657.238.172.562.224.961.222.4-.001.69-.154.916-.317a.741.741 0 0 0 .31-.682c-.023-.27-.175-.56-.424-.667-.238-.172-.562-.225-.972-.158-.313-.117-.604.035-.829.198zM131.4 294.216l.091 1.079-4.972.325-.069-.81 2.502-2.721c.247-.293.494-.586.525-.78.107-.249.139-.444.105-.649a1.008 1.008 0 0 0-.348-.722c-.238-.171-.562-.224-.972-.157a1.913 1.913 0 0 0-1.528.816l-.898-.611c.257-.358.569-.64 1.01-.901.43-.196.926-.382 1.465-.428.744-.079 1.317.081 1.793.424.476.344.737.785.772 1.39.013.335-.05.724-.168 1.037-.117.314-.385.736-.782 1.138l-1.697 1.854 3.171-.284zm5.716-5.329c.574.559.848 1.335.939 2.415a4.036 4.036 0 0 1-.251 1.955c-.224.563-.621.964-1.073 1.29-.451.326-1.012.502-1.681.526-.334.012-.668.025-.992-.028-.324-.052-.573-.159-.821-.266l.427-.996c.367.193.756.256 1.295.211.669-.025 1.11-.286 1.443-.698.333-.412.492-.985.413-1.73-.171.239-.408.467-.688.554-.291.153-.636.23-1.035.232-.474.056-.863-.007-1.231-.2a1.803 1.803 0 0 1-.887-.677 1.81 1.81 0 0 1-.361-1.056c-.067-.41.072-.854.254-1.157.192-.368.493-.585.795-.803a2.434 2.434 0 0 1 1.25-.329c.938-.047 1.63.198 2.204.757zm-.94 2.11a1.14 1.14 0 0 0 .341-.876c-.012-.335-.175-.561-.402-.798a1.415 1.415 0 0 0-1.026-.233c-.4.002-.69.154-.927.382-.236.228-.343.477-.276.887.012.335.164.626.403.797.238.172.616.3 1.026.233.334-.012.614-.099.861-.392zm43.345-2.487c.347.322.543.753.588 1.293.002.399-.05.724-.243 1.092-.182.303-.429.596-.86.792-.43.196-.851.328-1.455.363-.474.056-.928-.018-1.381-.091-.454-.074-.821-.267-1.189-.459l.492-.985c.238.171.541.354.93.417.378.128.712.115 1.112.114.474-.057.754-.144.991-.372.236-.228.343-.477.32-.747a1.046 1.046 0 0 0-.413-.732c-.238-.172-.627-.235-1.102-.179l-.604.035-.057-.874 1.372-1.907-3.031.24-.091-1.079 4.574-.323.068.81-1.469 2.09a1.926 1.926 0 0 1 1.448.502zm3.821 2.682c-.422-.268-.834-.601-1.084-1.107-.25-.507-.415-1.132-.504-1.812-.079-.745.015-1.329.239-1.891.225-.563.492-.985.934-1.246.387-.337.872-.458 1.411-.503.539-.046 1.057.038 1.479.306.422.269.834.602 1.084 1.108.251.506.415 1.132.504 1.812.079.745-.015 1.328-.239 1.891-.224.562-.492.985-.933 1.246-.387.336-.872.457-1.412.503-.539.045-1.057-.039-1.479-.307zm2.497-1.458c.267-.422.362-1.006.294-1.815-.069-.81-.244-1.371-.515-1.748-.336-.387-.704-.58-1.179-.523-.474.056-.84.262-1.108.685-.268.422-.362 1.006-.294 1.815.068.81.244 1.371.515 1.747.336.388.704.58 1.178.524.464.009.841-.263 1.109-.685zm51.516-4.091c.347.322.543.754.588 1.293.002.4-.05.724-.243 1.092-.182.303-.429.596-.86.792-.366.207-.85.328-1.455.363-.474.056-.927-.017-1.381-.091-.453-.074-.821-.266-1.189-.459l.492-.985c.238.172.541.354.93.417s.712.116 1.112.114c.474-.056.754-.144.991-.372.236-.227.343-.476.32-.746a1.046 1.046 0 0 0-.413-.733c-.238-.171-.627-.235-1.102-.178l-.604.035-.057-.875 1.372-1.907-3.031.241-.091-1.08 4.574-.323.068.81-1.469 2.091c.594.03 1.101.179 1.448.501zm4.33-3.756l.505 6.737-1.273.059-.414-5.657-1.413.104-.091-1.08 2.686-.163z" fill="#CFCFCF"/><path d="M124.908 147.214l-.504-6.737-2.866 5.791-1.143.08-3.68-5.188.46 6.596-2.426.205-.783-11.174 2.157-.182 4.701 6.685 3.636-7.262 2.146-.118.848 11.184-2.546.12zm42.116-12.137l-3.57.286-.128-2.084 9.751-.68.128 2.083-3.57.286.655 9.09-2.621.174-.645-9.155zm65.057-6.818l-2.852 11.448-2.761.218-2.989-7.406-1.994 7.795-2.761.218-4.482-10.909 2.686-.163 3.076 7.686 2.101-8.044 2.416-.14 3.13 7.761 2.047-8.119 2.383-.345zm36.18-.523l-3.57.285-.128-2.083 9.75-.681.128 2.084-3.57.286.655 9.09-2.621.173-.644-9.154zm50.914-3.656l.186 2.958 5.177-.358.128 2.084-5.177.358.266 4.102-2.621.174-.783-11.174 8.478-.621.127 2.084-5.781.393zm49.778 5.409c-.832-.201-1.524-.446-2.065-.8l.725-2.012c.476.343 1.103.578 1.741.748.637.17 1.36.221 2.029.196.744-.079 1.294-.189 1.605-.471.301-.218.484-.521.482-.92-.023-.27-.121-.486-.359-.658a1.83 1.83 0 0 0-.811-.331c-.324-.052-.767-.191-1.35-.285a19.108 19.108 0 0 1-2.117-.477c-.572-.159-1.059-.438-1.449-.901-.391-.462-.641-.969-.709-1.778-.025-.67.07-1.253.423-1.795.289-.552.827-.997 1.483-1.356.657-.36 1.551-.547 2.565-.649a7.691 7.691 0 0 1 2.115.077 5.78 5.78 0 0 1 1.826.629l-.66 2.023c-1.048-.503-2.139-.747-3.153-.645-.744.079-1.229.2-1.606.471-.376.272-.493.586-.427.996.002.399.23.636.662.839a12.78 12.78 0 0 0 1.858.435c.842.136 1.544.317 2.117.476a3.29 3.29 0 0 1 1.46.836c.401.398.641.969.719 1.714.036.604-.07 1.253-.423 1.794-.289.552-.827.998-1.483 1.357-.721.349-1.551.547-2.565.648-.874.058-1.726-.013-2.633-.161zm50.644-3.633c-.831-.201-1.523-.446-2.064-.8l.725-2.012c.476.343 1.103.578 1.74.748.702.18 1.361.221 2.029.196.744-.079 1.294-.189 1.606-.471.301-.218.483-.521.481-.921a.836.836 0 0 0-.359-.657 1.825 1.825 0 0 0-.81-.331c-.324-.052-.767-.191-1.35-.285a19.339 19.339 0 0 1-2.117-.477c-.573-.159-1.059-.438-1.45-.901-.39-.462-.641-.969-.709-1.778-.024-.67.07-1.253.424-1.795.289-.552.826-.997 1.483-1.356.656-.36 1.551-.547 2.565-.649a7.654 7.654 0 0 1 2.115.077c.712.116 1.274.34 1.826.629l-.66 2.022c-1.049-.502-2.14-.746-3.153-.644-.745.079-1.23.2-1.606.471-.376.272-.494.586-.427.996.002.399.229.636.662.839.443.138 1.015.298 1.857.435.843.136 1.545.317 2.117.476.573.16 1.059.438 1.46.836.401.398.641.969.72 1.714.035.604-.07 1.253-.424 1.794-.289.552-.826.998-1.483 1.357-.721.349-1.551.547-2.565.648-.873.058-1.791-.024-2.633-.161z" fill="#AAACAF"/><path d="M397.807 90.51a5.317 5.317 0 0 0 6.098-4.4 5.32 5.32 0 0 0-4.396-6.104 5.317 5.317 0 0 0-6.098 4.4 5.32 5.32 0 0 0 4.396 6.104zm17.287-1.256a5.317 5.317 0 0 0 6.098-4.4 5.32 5.32 0 0 0-4.396-6.104 5.317 5.317 0 0 0-6.098 4.4 5.32 5.32 0 0 0 4.396 6.104z" fill="#fff"/><path d="M432.446 88.009a5.317 5.317 0 0 0 6.098-4.401 5.316 5.316 0 0 0-10.494-1.703 5.32 5.32 0 0 0 4.396 6.104z" fill="#FFCA43"/></g><g filter="url(#b)"><path d="M345.774 337.441c47.252 7.665 91.769-24.467 99.433-71.769 7.664-47.302-24.429-91.861-71.681-99.527-47.252-7.665-91.77 24.467-99.433 71.769-7.664 47.302 24.429 91.862 71.681 99.527z" fill="#FFE178"/><path d="M348.327 321.68c38.557 6.254 74.882-19.965 81.135-58.562 6.254-38.597-19.933-74.957-58.489-81.211-38.557-6.255-74.882 19.964-81.135 58.561-6.254 38.598 19.933 74.957 58.489 81.212z" fill="#fff"/><path d="M355.129 197.193c-1.038.078-1.98-.691-2.058-1.73l-.752-9.031c-.077-1.039.691-1.982 1.729-2.06 1.038-.078 1.98.691 2.057 1.73l.752 9.031c.078 1.039-.69 1.982-1.728 2.06zm10.11 122.101c-1.038.078-1.98-.691-2.058-1.73l-.752-9.031c-.078-1.039.69-1.982 1.728-2.06 1.038-.078 1.98.691 2.058 1.73l.752 9.031c.078 1.039-.69 1.982-1.728 2.06zm48.99-72.035c-.077-1.039.69-1.981 1.728-2.059l9.022-.753c1.038-.078 1.98.69 2.057 1.729.078 1.039-.69 1.982-1.728 2.06l-9.021.753a1.863 1.863 0 0 1-2.058-1.73zm-122.008 10.144c-.077-1.039.691-1.982 1.728-2.059l9.022-.753c1.038-.078 1.98.69 2.057 1.729.078 1.039-.69 1.982-1.728 2.06l-9.021.753c-1.044.117-1.94-.685-2.058-1.73zm104.364-49.3c-.795-.663-.887-1.868-.219-2.704l2.993-3.537c.662-.796 1.867-.888 2.702-.219.795.663.887 1.868.218 2.704l-2.993 3.538c-.662.795-1.866.887-2.701.218zm-79.399 93.913c-.795-.663-.887-1.868-.219-2.704l3.702-4.367c.662-.796 1.866-.888 2.701-.219.795.663.887 1.869.218 2.704l-3.701 4.367c-.702.79-1.906.881-2.701.219zm86.122-13.171c.662-.796 1.866-.888 2.701-.219l3.534 2.996c.795.663.887 1.868.218 2.704-.662.795-1.866.887-2.701.218l-3.534-2.995c-.828-.71-.92-1.915-.218-2.704zm-93.783-79.505c.662-.795 1.866-.887 2.701-.218l4.363 3.705c.795.662.887 1.868.218 2.703-.662.796-1.866.888-2.701.219l-4.363-3.705a1.906 1.906 0 0 1-.218-2.704zm50.365 41.999c-.761.903-2.085.976-2.987.214l-27.778-23.72c-.902-.762-.974-2.087-.213-2.99s2.086-.975 2.987-.213l27.812 23.766c.868.715.934 2.081.179 2.943z" fill="#FFE178"/><path d="M359.746 253.984c-.902-.762-.974-2.088-.213-2.991l19.846-23.26c.761-.903 2.085-.976 2.987-.214.902.763.975 2.088.213 2.991L362.7 253.724c-.761.903-2.092 1.015-2.954.26z" fill="#FFE178"/><path d="M358.425 259.354c4.171.677 8.101-2.16 8.778-6.336.676-4.175-2.157-8.109-6.328-8.785-4.171-.677-8.101 2.159-8.778 6.335-.676 4.176 2.157 8.109 6.328 8.786z" fill="#FFE178"/></g><g filter="url(#c)"><path d="M277.545 284.269c15.863 0 28.722-12.859 28.722-28.722 0-15.862-12.859-28.721-28.722-28.721-15.862 0-28.721 12.859-28.721 28.721 0 15.863 12.859 28.722 28.721 28.722z" fill="#97C1A3"/><path d="M266.033 257.001l8.968 6.666 15.512-16.118" stroke="#fff" stroke-width="2.136" stroke-miterlimit="10" stroke-linecap="round" stroke-linejoin="round"/></g><defs><filter id="a" x="76.918" y="56.903" width="412.287" height="276.375" filterUnits="userSpaceOnUse" color-interpolation-filters="sRGB"><feFlood flood-opacity="0" result="BackgroundImageFix"/><feColorMatrix in="SourceAlpha" values="0 0 0 0 0 0 0 0 0 0 0 0 0 0 0 0 0 0 127 0"/><feOffset dy="4"/><feGaussianBlur stdDeviation="3"/><feColorMatrix values="0 0 0 0 0 0 0 0 0 0 0 0 0 0 0 0 0 0 0.06 0"/><feBlend in2="BackgroundImageFix" result="effect1_dropShadow"/><feBlend in="SourceGraphic" in2="effect1_dropShadow" result="shape"/></filter><filter id="b" x="252.961" y="160.015" width="213.377" height="213.556" filterUnits="userSpaceOnUse" color-interpolation-filters="sRGB"><feFlood flood-opacity="0" result="BackgroundImageFix"/><feColorMatrix in="SourceAlpha" values="0 0 0 0 0 0 0 0 0 0 0 0 0 0 0 0 0 0 127 0"/><feOffset dy="15"/><feGaussianBlur stdDeviation="10"/><feColorMatrix values="0 0 0 0 0 0 0 0 0 0 0 0 0 0 0 0 0 0 0.05 0"/><feBlend in2="BackgroundImageFix" result="effect1_dropShadow"/><feBlend in="SourceGraphic" in2="effect1_dropShadow" result="shape"/></filter><filter id="c" x="242.824" y="224.826" width="69.442" height="69.442" filterUnits="userSpaceOnUse" color-interpolation-filters="sRGB"><feFlood flood-opacity="0" result="BackgroundImageFix"/><feColorMatrix in="SourceAlpha" values="0 0 0 0 0 0 0 0 0 0 0 0 0 0 0 0 0 0 127 0"/><feOffset dy="4"/><feGaussianBlur stdDeviation="3"/><feColorMatrix values="0 0 0 0 0 0 0 0 0 0 0 0 0 0 0 0 0 0 0.06 0"/><feBlend in2="BackgroundImageFix" result="effect1_dropShadow"/><feBlend in="SourceGraphic" in2="effect1_dropShadow" result="shape"/></filter></defs></svg>