<svg width="132" height="60" viewBox="0 0 132 60" fill="none" xmlns="http://www.w3.org/2000/svg"><path d="M15.77 23.4h-3.784L0 47.4h3.769l10.1-20.02 2.159 4.425h-4.116l3.394 3.394h2.331l1.382 2.82h3.768L15.771 23.4zm2.737 10.305h-2.8l-.213-.505h2.768l-3.857-7.898H13.26L2.813 45.922h-.566l10.704-21.125h1.772l5.67 11.615-.452.22-1.434-2.927zm15.832-4.795a4.304 4.304 0 0 0-.298-.008H28.24a1.005 1.005 0 0 1-.872-.998c0-.557.452-1.008 1.007-1.008h5.666c.557 0 1.008.453 1.008 1.007h3.496A4.502 4.502 0 0 0 34.04 23.4h-5.668a4.5 4.5 0 0 0-4.504 4.503 4.502 4.502 0 0 0 4.503 4.503h5.802a1.005 1.005 0 0 1 .87.998c0 .56-.453 1.009-1.007 1.009h-5.665a1.006 1.006 0 0 1-1.007-1.008h-3.496a4.502 4.502 0 0 0 4.503 4.504h5.67a4.5 4.5 0 0 0 4.503-4.504 4.504 4.504 0 0 0-4.206-4.494zm-.401 7.61H28.09c-.44 0-.699-.142-.997-.327a5.328 5.328 0 0 1-1.278-1.113h.688a4.63 4.63 0 0 0 .859.685c.293.185.446.248.728.248h5.846c1.448 0 2.671-1.156 2.671-2.527a2.53 2.53 0 0 0-2.528-2.528l-5.604.002a3.036 3.036 0 0 1-3.031-3.034 3.036 3.036 0 0 1 3.031-3.034h5.847c.403 0 .798.113 1.138.33a5.33 5.33 0 0 1 1.285 1.122h-.687a4.52 4.52 0 0 0-.467-.415 4.424 4.424 0 0 0-.401-.28 1.61 1.61 0 0 0-.868-.25h-5.847a2.532 2.532 0 0 0-2.526 2.53 2.53 2.53 0 0 0 2.526 2.528l5.604-.002a3.038 3.038 0 0 1 3.033 3.034c0 1.643-1.456 3.031-3.175 3.031zm7.084-13.12v3.496h5.59v11.12h3.496v-11.12h5.59V23.4H41.021zm13.122 1.96h-5.508v11.183h-.505V25.36h-5.579v-.505h11.592v.505zm15.266 7.056c2.148-.322 3.796-2.317 3.796-4.555a4.46 4.46 0 0 0-4.46-4.461h-10.18v14.617h3.496V26.896h6.683a.966.966 0 0 1 0 1.93h-6.318l6.812 9.19h4.431l-4.26-5.6zm-3.94-1.961h3.214a2.53 2.53 0 0 0 2.527-2.527 2.53 2.53 0 0 0-2.527-2.527h-8.116v11.142h-.505V24.897h8.621a3.037 3.037 0 0 1 3.034 3.031 3.038 3.038 0 0 1-3.034 3.034h-2.209l4.042 5.43-.638-.005-4.409-5.932zm20.838-5.038h-5.673a2.553 2.553 0 0 0-2.55 2.55v5.486a2.553 2.553 0 0 0 2.55 2.549h5.673a2.553 2.553 0 0 0 2.549-2.55v-5.486a2.551 2.551 0 0 0-2.55-2.549zm1.041 7.837c0 .699-.568 1.267-1.267 1.267H80.86a1.268 1.268 0 0 1-1.267-1.267V28.16c0-.698.568-1.267 1.267-1.267h5.222c.7 0 1.267.569 1.267 1.267v5.094z" fill="#767A92"/><path d="M86.317 23.4h-5.689a4.528 4.528 0 0 0-4.528 4.528v5.56a4.528 4.528 0 0 0 4.528 4.529h5.69a4.528 4.528 0 0 0 4.527-4.528v-5.56a4.527 4.527 0 0 0-4.528-4.529zm3.045 10.05a3.058 3.058 0 0 1-3.054 3.054h-5.673a3.058 3.058 0 0 1-3.054-3.054v-5.486a3.058 3.058 0 0 1 3.054-3.054h5.673a3.058 3.058 0 0 1 3.054 3.054v5.486zm18.969-6.554v-3.492H97.206V23.4h-3.491v14.617h3.491V26.896h11.125z" fill="#767A92"/><path d="M107.642 32.454v-3.491H97.206l3.435 3.491h7.001zm7.059-9.054h-3.491v14.617h3.491V23.4zm16.997 0h-14.617v3.491h5.563v11.126h3.491V26.89h5.563V23.4z" fill="#767A92"/></svg>