<svg width="84" height="60" viewBox="0 0 84 60" fill="none" xmlns="http://www.w3.org/2000/svg"><path d="M81.25 14.57v-.496h-.04v-.207h-.04v-.331h-.042v-.173h-.04v-.124h-.042l-.049-.365h-.041v-.207h-.041v-.124h-.042v-.116h-.041v-.124h-.041v-.124h-.042v-.124h-.041l-.083-.373h-.041l-.042-.172h-.041l-.041-.207h-.042l-.078-.255h-.032v-.083h-.042v-.083h-.041l-.09-.284-.082-.041-.042-.173-.082-.041-.042-.173-.083-.041v-.083l-.082-.041-.042-.173-.083-.04v-.084l-.124-.082v-.083l-.082-.042a1.76 1.76 0 0 0-.497-.579V8.84c-.21-.058-.317-.277-.455-.413a6.382 6.382 0 0 0-.786-.704l-.29-.33h-.083l-.172-.208h-.076l-.041-.083-.173-.04-.041-.084h-.083v-.041l-.172-.041v-.042h-.125v-.041h-.082V6.77h-.083l-.041-.082h-.083v-.042l-.248-.082v-.042h-.124v-.041h-.083v-.042l-.249-.04v-.042h-.124v-.042h-.124v-.041h-.124v-.041h-.069V6.22h-.172v-.04h-.173v-.042h-.172v-.042h-.331c-.704-.22-1.91-.067-2.547.124h-.29v.042h-.172v.041H70.9l-.862.29v.041h-.074v.042l-.248.041v.041l-.248.083v.042h-.083v.027l-.172.041-.042.083h-.083l-.041.083h-.083l-.041.083h-.083l-.083.124h-.082l-.042.083h-.083l-.082.124h-.083l-.083.124h-.082l-.325.377h-.082l-.083.125h-.083l-.083.082v.083l-.538.497V8.9l-.248.207v.083l-.124.083v.083l-.124.082v.083l-.124.083v.083l-.083.041-.041.124h-.042v.083l-.083.041-.04.173-.084.041-.041.172-.083.042-.041.172-.083.083v.083l-.083.041-.082.248h-.042v.083h-.041l-.083.248h-.041l-.125.538a5.744 5.744 0 0 0-.248 1.821v.993l.373 1.572h.041v.106h.028v.124h.041v.172h.041v.124h.042v.083h.048v.124h.041v.124h.042v.11h.041v.125h.048v.124c.238.602.421 1.257.621 1.896l.172 1.49c.11.38.042.995.042 1.448v.58h-.041v.172h-.042l-.041.172h-.042l-.082.414h-.042c-.05.109-.077.191-.124.29-.345 0-.448-.131-.703-.207l-.497.041-.33.248v.083l-.084.042-.041.248h-.041a.984.984 0 0 0 .862 1.034l.041.124h-.041v.125h-.042v.172h-.041l-.041.29h-.042v.124h-.041v.124h-.042l-.082.414h-.042v.082h-.041v.125h-.041v.124h-.042v.124h-.041v.124h-.042v.124h-.041v.173h-.041l-.042.455h.042v.172h.041v.124c.093.212.3.345.455.497l.083.124h.083l.041.083h.083l.082.082h.083v.042h.083v.041h.083v.042h.083l.04.082h.084l.082.083h.083v.041h.083v.042h.083v.041l.248.083v.041l1.862.621h.124v.041h.117v.042h.124v.041h.173v.042h.207v.041h.29v.041h.206v-.041h.124v-.041h.083v-.042h.083l.083-.124.29-.248v-.083l.082-.041v-.124h.041v-.083h.042l.083-.248h.041v-.125h.041v-.082h.042l.124-.373h.041l.083-.248h.041v-.11h.042v-.083h.041v-.124h.042l.041-.173h.041v-.082h.042v-.125h.041l.083-.124.29.042v.041h.082v.041l.455-.04c.159-.173.395-.21.456-.498.115-.124.055-.361.041-.537l-.248-.373h-.083l-.041-.083-.207-.04v-.042h-.124v-.042c-.102-.05-.194-.082-.29-.124.02-.172.078-.172.124-.29l.041-.248h.042l.041-.2h.041l.042-.172h.041v-.083h.042v-.124h.041l.083-.248h.041l.042-.173.172-.124.083-.248.083-.041v-.083l.124-.083v-.083l.082-.041v-.083l.249-.207.124-.172h.041v-.083l.207-.172v-.042h.083l.082-.172.125-.041c.062-.057.114-.207.172-.249h.07v-.041l.171-.124.042-.124h.083l.172-.207h.083l.248-.29h.062l.207-.248h.083l.041-.083.124-.041.124-.173h.083l.083-.124h.083l.041-.083h.083v-.041l.124-.041.041-.083h.09l.083-.124h.082v-.042h.083l.042-.082.172-.042.041-.083h.083l.083-.082h.083v-.042h.082v-.041h.083l.042-.083h.075v-.041l.173-.042.041-.082.173-.042.041-.082.172-.042.042-.083.172-.041.042-.083h.082l.042-.082h.055l.041-.083h.083l.041-.083h.083l.041-.083h.083l.083-.124h.083l.082-.124c.173-.126.345-.172.456-.372h.082v-.083l.125-.083.33-.372.083-.042v-.082l.173-.125v-.082l.172-.125v-.082l.083-.042.041-.124h.042v-.083l.124-.082v-.083l.083-.041.124-.373h.041l.041-.172h.042v-.083h.041v-.083h.042v-.124h.013v-.062h.042v-.083h.041v-.124h.041l.042-.496c.107-.35.09-.835.088-1.292zm-7.116-6.827h.083l.04-.083.173-.041v-.042h.083v-.041h.083v-.041h.083v-.042h.082v-.041c.07-.036.283-.05.331-.083v-.041h.58v.041l.207.041.041.083.172.042.083.124.207.172.041.173.083.04v.084l.083.082v.083h.041v.083h.042v.083h.041l.041.248h.042v.083h.041v.124h.023v.105h.041v.124h.041v.173h.042l.041.33h.041v.173h.042l.041.455h.055v.786a4.968 4.968 0 0 1-.248 1.655l-.124.538h-.041v.173h-.042v.172h-.041v.173h-.041v.124h-.042l-.041.172h-.042v.083h-.041l-.124.172h-.083l-.083.124-.172.042-.041.048-.173.041-.041.083-.124.042v.041h-.083l-.083.083h-.083v.041h-.082v.041h-.083v.042h-.083v.041h-.083v.042h-.082v.041h-.083v.041l-.248.083v.028h-.125v.041h-.082v.041h-.173v.042h-.083v.048h-.103v.041h-1.034v-.04h-.083v-.042l-.497-.173-.082-.124h-.083l-.083-.124h-.041v-.083l-.124-.082v-.083l-.083-.042-.131-.367h-.042v-.088l-.082-.041v-.124h-.049v-.083h-.041v-.124h-.041v-.124h-.042v-.124h-.041v-.125h-.042v-.117h-.04l-.173-.703h-.042l-.041-.373h-.041l-.083-.827h.041v-.207h.041l.042-.172h.041v-.083l.124-.083v-.083h.042l.041-.124.083-.041v-.083l.083-.041.041-.124.124-.083v-.076l.173-.124v-.083l.124-.083v-.083l.207-.172.041-.124.124-.083v-.083l.124-.082v-.083l.51-.45.373-.414h.083l.041-.083h.083l.33-.372h.084l.074-.124zm-4.055 17.875v-.041h-.116v-.047h-.082v-.041h-.125v-.041h-.082v-.042h-.125v-.041h-.082v-.042h-.124v-.041l-.173-.041v-.042l-.248-.041v-.042l-.172-.04v-.042h-.125v-.042l-.172-.041v-.041l-.248-.042v-.027l-.173-.042v-.041h-.124v-.041h-.083v-.049l-.207-.041c-.079-.036-.172-.124-.248-.173.018-.17.06-.337.124-.496h.055v-.083h.042v-.124h.041l.042-.207.082-.041v-.083c.018-.026.056-.031.083-.083.17-.007.339.021.497.083v.041h.124v.042h.083v.041h.124v.041h.124v.049h.138v.041h.124v.041h.124v.042l.207.041v.042l.172.041v.041l.414.083v.041h.083v.042h.124v.041h.083v.042l.207.041v.041h.124v.042h.124v.041h.083c.088.045.186.12.29.173a1.392 1.392 0 0 1-.207.662v.082h-.056v.083h-.041v.124h-.041v.124H70.7v.083h-.048l-.083.124-.414-.124v-.041l-.077-.009zm.746-2.979h-.082v.083l-.207.172v.042h-.083l-.172.206-.207.042v.041h-.249v-.041c-.132-.036-.145-.107-.248-.173l-.248-2.4h-.042v-.413h-.041v-.042h.041c.045-.284-.02-.643.042-.862v-.786h.041v-.455h.041v-.248h.042v-.29h.041v-.455c.112-.386.099-.943.207-1.324v-.414h.042v-.248h.048v-.414h.041v-.255h.042v-.207h.041v-.124h.048c.052-.152-.012-.266.083-.373l.041-.124a.776.776 0 0 1 .29.041l.041.414h.042l.041.787h.041v.124h.042v.124h.041v.119h.028v.124h.041v.124h.042v.124h.041v.124h.048v.083h.042v.083l.082.041.083.248.083.042v.083h.041l.042.124.082.041v.083l.249.172.124.173h.083l.041.082.124.042v.041l.207.041v.042h.083v.041l.248.042v.041h.207v.028h.496v-.042l.414-.041v-.041h.124v-.042l.173-.041v-.042l.372-.082v-.042l.249-.083v-.04l.172-.042.041-.083.173-.041.041-.083h.062l.172-.207.125-.041v-.042c.07 0 .141.014.206.042a.561.561 0 0 1-.206.455l-.083.041v.083l-.083.041v.083l-.083.041v.083l-.082.042v.082l-.083.042-.041.172-.083.041v.083l-.083.042-.041.124h-.042l-.041.172h-.041l-.042.124-.083.042v.082l-.124.083v.07l-.172.123v.083l-.124.083v.082l-.083.042v.083l-.124.082v.083l-.124.083v.083l-.083.041-.041.124h-.042v.083l-.083.041v.09l-.124.083v.09l-.082.04v.084l-.125.082v.083l-.082.041-.042.125h-.041v.082l-.124.083-.042.124-.082.041v.076l-.083.042v.082l-.124.083v.083l-.173.124v.083l-.124.083v.082l-.083.042v.083l-.172.124v.082l-.172.125v.09l-.249.206v.083h-.041l-.124.172a2.47 2.47 0 0 0-.435.44zm4.18-6.662v.041h-.083v.042h-.083l-.041.083-.249.082-.041.083h-.124v.041H74.3v.044h-.124v.041l-.173.041v.042h-.124v.048l-.579.083v.041h-.703v-.041h-.249v-.042l-.172-.041v-.041h-.124v-.042h-.083v-.041h-.083l-.124-.172-.172-.083v-.083l-.124-.083-.042-.172-.082-.042-.042-.172-.083-.041v-.062l-.082-.083v-.09h-.042v-.083h-.041v-.09h-.041v-.082h-.014l-.042-.248h-.041v-.173h-.041l-.049-.358h-.041V14.2h-.041a.94.94 0 0 1 .04-.58c.042-.143.054-.077.125-.172h.124v.041c.242.066.135.131.207.331h.041v.124h.042v.173h.041v.124h.042v.124h.041v.131h.041v.124h.042v.083h.041v.124h.042v.124h.04l.084.248h.041v.083l.083.042.041.172.207.172.083.125h.082l.042.082h.083l.041.083h.124V16h.124v.042c.257.08.755-.035.91-.083l.332-.041v-.042h.082v-.041l.249-.041v-.042l.172-.041v-.042h.124v-.04h.083v-.042h.124v-.055c.081-.04.57-.238.662-.207v.034h.083c.015.009.041.059.083.083v.248c-.054.09-.471.224-.588.288h.001zm-8.236-5.255h.04l.042-.455h.042l.041-.172h.041v-.082l.125-.082v-.083l.124-.083v-.083l.248-.206v-.083h.041l.124-.173h.085c.055-.213.541-.582.703-.744l.456-.497h.082l.042-.083h.082l.083-.124h.083l.041-.083.249-.082v-.042h.075v-.041h.083v-.041l.249-.083v-.042l.413-.082v-.021h.124v-.041h.125v-.042h.124v-.041l.496-.083v-.041h.083v-.042h.172V6.91h.083v-.04l.331-.042v-.041l1.448-.083c.22 0 .473-.027.58.083l.082.041c-.017.247-.02.149-.172.249l-.041.082h-.083V7.2h-.083l-.041.083h-.083l-.172.206h-.083l-.124.173h-.062v.041l-.173.124-.083.173h-.09l-.33.372-.173.124v.083l-.207.172v.083l-.206.173v.082l-.173.124v.083l-.207.173v.082l-.082.042v.041l-.083.042v.082l-.083.042-.041.124h-.042v.083l-.124.082-.041.124-.083.042-.041.172-.083.042-.041.124h-.028l-.041.172-.083.042v.082l-.083.042-.041.172-.083.042-.041.172h-.042l-.041.124-.083.041v.083l-.324.233-.041.124-.125.083-.041.082H69.5l-.291.34h-.083l-.083.124h-.082l-.042.083-.172.041-.042.083-.248.083v.041l-.248.083v.042h-.124v.04h-.083v.042h-.109v.028h-.496l-.29-.248v-.083h-.041v-.083h-.042v-.124h-.041v-.124h-.041c-.149-.378-.173-.799-.173-1.324l-.001-.409zm-.58 2.069h.042l.041-.083h.083v-.041c.246.1.134.036.248.248h.041v.083h.043v.172h.042l.041.173h.042v.119l.207.29.206.04v.042c.335.105.914-.188 1.076-.29l.042-.082h.082v-.042h.083v-.041l.207-.041v-.049c.172.009.141.026.248.083a.644.644 0 0 1-.248.538l-.041.083h-.09l-.172.207h-.083l-.042.082-.124.042v.041h-.082l-.042.083-.207.041v.042h-.11v.041h-.083v.041h-.248v.042l-.331-.042c-.093-.107-.259-.117-.373-.207l-.04-.124-.084-.041v-.09l-.082-.041-.042-.172h-.041v-.173h-.042v-.124h-.04v-.172h-.042c-.045-.135 0-.238-.083-.332l-.002-.346zm.455 5.048v-.172h-.041v-.124h-.041v-.173h-.047l-.083-.414h-.041v-.124h-.041v-.124h-.042v-.124h-.041v-.124h-.042v-.173h-.041v-.124h-.041v-.124H66.1v-.124h-.041v-.124h-.041v-.173h-.042v-.087h-.041v-.125h-.042v-.124h-.041v-.096h-.028v-.173h-.04v-.207h-.042c-.045-.136 0-.358-.083-.455 0-.367-.066-.908.041-1.207h.173c.014.075.041.083.041.083v.455h.041v.207h.042v.207h.041v.083h.042v.145h.041l.041.172h.042v.083l.082.041v.083l.207.172.124.173h.07v.041h.082v.042h.124c.223.095.472.11.704.04h.172v-.04l.249-.083v-.042h.082v-.04l.249-.084.04-.082h.084l.206-.249.173-.124v-.103c.03-.037.086-.035.124-.083.172 0 .141.026.248.083a3.162 3.162 0 0 1-.124.862v.29h-.041v.289h-.042v.248h-.04v.29h-.05v.372h-.04v.331h-.042v.331h-.041v.331h-.049v.794h-.041v.496h-.041v.331h-.042c-.033.359-.019.72.042 1.076v.538h.041v.49h.041v.496h.042c.033.247.033.498 0 .745l-.124.041a.444.444 0 0 1-.29 0v-.041H68.3v-.035h-.124v-.041l-.172-.041v-.042l-.173-.041-.041-.083-.172-.041-.042-.083h-.083c-.024-.017-.03-.055-.082-.083-.023-.057-.014-.093-.042-.172h-.041v-.662h-.041v-.607h-.042v-.345h-.041v-.414h-.042v-.276h-.041v-.206h-.041v-.173h-.042v-.172h-.041v-.173h-.042v-.248h-.04l-.125-.538h-.041v-.083h-.042l-.041-.248-.023.012zm3.966 10.303h-.042l-.041.29h-.041v.083h-.042l-.041.248h-.041v.083h-.042l-.083.372h-.041l-.041.172h-.042v.125h-.041v.082a.58.58 0 0 1-.373.29c-.129.116-.517.03-.703-.041v-.042h-.124v-.041l-.29-.042v-.053H68.5v-.041h-.125v-.042h-.124v-.041h-.124v-.041h-.124v-.042h-.083v-.041l-.207-.042v-.041l-.248-.041v-.042h-.083v-.041h-.124v-.041l-.172-.042v-.041h-.124v-.042h-.083v-.041h-.124v-.028h-.067v-.04h-.083v-.042h-.09v-.042h-.124v-.048h-.083v-.041l-.172-.042v-.041h-.124v-.048l-.249-.083v-.041h-.082l-.173-.207h-.083v-.042h-.04v-.082h-.042c-.049-.138.172-.61.207-.704l.041-.248h.062v-.083h.041l.042-.248h.041v-.124h.048v-.083h.042l.041-.248c.104-.223.174-.46.207-.704l.373.124v.042h.082v.041h.118v.041h.082v.042h.124v.041h.083v.042h.124v.04h.083v.042h.172v.042h.125v.041h.069v.041l.248.042v.041h.096v.042h.124v.041h.083v.041h.124v.042h.083v.041h.124v.041h.083v.042h.124v.048h.083v.042l.248.04v.042h.083v.049h.124v.04l.207.042v.042h.083v.041h.124v.041h.083v.042l.372.083v.04h.083v.042h.124v.042l.248.083v.04h.083v.042h.069c.024.016.03.057.083.083-.01.182-.05.36-.12.53h-.006zm1.365-1.324c.081.036.173.124.249.173.024.122.079.293 0 .413h-.042l-.041.083h-.083v.042c-.381-.014-.672-.21-.952-.331h-.108v-.042h-.083v-.041h-.124v-.042h-.083v-.041l-.207-.041v-.042h-.124v-.04h-.083v-.04l-.248-.042v-.042l-.172-.041v-.041h-.124v-.042h-.083v-.041l-.207-.042v-.04h-.124v-.042h-.083v-.042h-.124v-.041h-.083v-.041h-.117v-.042l-.173-.041v-.042L68.012 26v-.041h-.083v-.041h-.124v-.042h-.083v-.041l-.207-.042v-.041h-.124v-.048h-.083v-.042h-.124v-.041h-.083v-.042h-.124v-.048h-.083v-.041l-.207-.041v-.042h-.124v-.041h-.082v-.042h-.125v-.041h-.082v-.041h-.124V25.2h-.083v-.041h-.124v-.042h-.083v-.04h-.124v-.042l-.207-.042v-.041h-.083v-.041h-.124c-.08-.037-.172-.126-.248-.173v-.041h-.042v-.124h-.041c.021-.099.049-.195.083-.29.112-.026.193-.14.372-.083v.042h.124v.041h.083v.041h.124v.042h.083v.041h.124v.042h.083v.048h.124v.041h.083v.042h.124v.04h.083v.05h.124v.04h.082v.042h.125v.041l.207.042v.041h.082v.041l.745.249v.041h.083v.041h.124v.042l.207.041v.042h.083v.041h.124v.041h.082v.042h.125v.034l.206.042v.041h.083v.041h.124v.049h.083v.041h.124v.041h.083v.042h.124v.048h.083v.041h.124v.042h.083V26h.124v.042h.083v.041h.124v.041h.083v.042h.124v.041l.207.041v.042h.082v.041h.125v.042h.082v.041h.124v.041h.083v.042h.124v.041h.083v.028h.124v.041h.083v.041h.124v.042h.083v.048h.124v.042l.198.04zm6.414-7.903l-.331.172-.042.083h-.082v.041h-.083l-.083.083h-.083l-.082.124h-.083l-.083.083h-.083l-.041.083-.248.083-.042.082-.172.042-.041.082-.124.042v.041l-.249.083-.041.083-.124.041v.042l-.249.082-.025.071-.173.041-.041.083H75.7l-.083.124h-.082l-.042.083-.124.041v.042h-.083l-.083.124h-.069l-.082.124h-.09l-.124.172h-.083l-.124.173h-.083l-.248.29h-.083l-.372.413h-.09l-.248.331h-.041l-.042.083h-.082l-.276.364-.621.58v.082l-.207.172v.083h-.041l-.083.124h-.083v.042h-.345v-.042l-.172-.041v-.04h-.124v-.041l-.207-.042v-.041l-.124-.083v-.172l.413-.455.083-.042v-.082l.373-.331v-.09l.207-.172v-.083l.207-.173v-.082l.124-.083v-.083l.172-.124v-.062l.124-.083v-.09l.083-.04v-.084l.124-.082v-.083l.172-.124v-.083l.125-.083v-.083l.082-.041v-.083l.124-.083v-.082l.125-.083v-.083l.124-.082v-.083l.124-.083v-.083l.083-.041.041-.124h.041v-.083l.09-.028v-.082l.124-.083v-.083l.083-.041v-.083l.124-.083v-.083l.124-.082v-.083l.124-.083V18.8l.083-.041.028-.124h.041v-.083l.131-.09v-.082l.124-.083v-.083l.083-.041.041-.173.083-.04v-.084l.083-.041v-.083l.083-.041v-.083l.082-.041.042-.173.082-.041.083-.248.083-.042V17h.041l.125-.173h.124l.041.172h.041l.042.373h.041l.083.372h.041l.083.249h.041v.082l.083.042v.082l.207.173v.09l.124.04.042.084h.082v.048h.083v.041h.124v.042h.124v.041h.249c.23.067.467 0 .744 0l-.008.157zm.745-.828c-.071.142-.804.295-1.118.207v-.041h-.248c-.583-.172-.938-.574-1.207-1.076l-.172-.538c0-.142.028-.283.083-.414h.29c.042.097.073.187.123.29h.042v.124h.041v.124h.064l.083.248h.041v.083l.083.042v.082l.172.125.083.124.248.082.042.083h.082v.042l.621.124c.172.029.431-.05.538.041l.124.042-.015.206zm1.207-2.358v.207l-.206.629-.124.083-.172.207h-.083v.041h-.083v.041h-.124v.042h-.083v.041l-.206.041v.042h-.125v.041h-.207a3.611 3.611 0 0 1-1.034.083l-.29-.207-.124-.372h-.041l-.041-.173h-.042l-.083-.455h-.041l-.041-.703v-.042h-.042l.042-.744h.041v-.207h.041v-.173h.042v-.124h.041v-.124h.041v-.124h.042v-.172h.041v-.125h.042v-.172h.041v-.124h.041v-.124h.042v-.124h.041v-.207h.041l.042-.373h.041v-.103h.042v-.207h.041v-.788h.041l-.04-1.207h-.042V9.77h-.042v-.124c-.077-.214-.21-.586-.124-.827.173.036.195.107.29.207l.083.041v.084l.206.173v.083l.497.455v.083l.124.082v.083l.172.124v.083l.083.041.621 1.159.041.248h.042v.083h.041v.124h.041v.083h.035l.041.248h.042v.172h.041v.125h.048v.124h.042v.124h.041v.124h.041l.083.414h.042v.172h.041v.124h.041v.373c.142.476-.006 1.272-.125 1.674zM3.708 26.363c0 .903-.12 2.105.249 2.648l.33.248h.083v.042h.173v.041h10.25v-.041h.172v-.041l.172-.042v-.041h.083v-.042l.207-.172.172-.58V25.66l-.207-.621h-.041l-.172-.207-.58-.083v-.041H8.632a.849.849 0 0 0-.207-.172 7.906 7.906 0 0 1-.041-1.207V12.17h-.041v-.172H8.3v-.083h-.04v-.124l-.207-.331-.248-.067v-.042l-.254-.05v-.041H6.232c-.094.083-.41.041-.579.041-.491 0-1.291-.103-1.53.173-.506.14-.415 1.41-.415 2.11V26.37v-.007zm14.938.993l.372.331.173.207a7.65 7.65 0 0 0 2.02 1.084h.248v.042h.207v.041h.249v.042h.291v.041h1.241v.041c.07.01.073-.04.083-.041h1.324v-.041h.373v-.042h.29v-.041h.248v-.042h.206v-.04l.249-.042v-.042h.082v-.048l.249-.041v-.042h.124v-.041h.083v-.048h.124v-.042l.248-.082v-.042h.076v-.041l.172-.042.042-.082.172-.042.124-.172h.083l.083-.124h.082l.207-.249.125-.041v-.076l.413-.372v-.083l.124-.083v-.082l.083-.042.041-.124H29l.041-.172.083-.042.083-.248h.041l.083-.248h.041l.042-.249h.034l.042-.172h.04l.042-.248h.049v-.173h.041v-.124h.041v-.172h.042v-.207h.041v-.207h.041v-.29h.042v-.372h.041v-.497c.117-.412.042-1.16.042-1.655v-8.275c0-.518.084-1.57-.173-1.821-.058-.224-.208-.207-.414-.29-.558-.226-1.674-.124-2.44-.124-.335 0-.67-.015-.911.083v.083h-.124v.041c-.357.097-.331.533-.331.993v7.82c0 .671.053 1.468-.042 2.07-.012.082.042.082.042.082v.331h-.042v.497h-.034l-.042.33H25.4l-.083.373h-.041l-.041.173h-.042l-.041.172-.124.083-.042.124-.172.041-.041.083h-.083v.041l-.173.042v.041h-.172v.042h-.373v.041h-.703v-.041h-.455l-.372-.124-.042-.083h-.083l-.124-.173-.172-.124v-.082l-.083-.042c-.345-.548-.207-1.938-.207-2.814v-9.31h-.041v-.172h-.042l-.041-.173-.083-.04v-.084h-.041l-.083-.124-.29-.082v-.042h-.248v-.041h-2.753v.041h-.173v.041l-.248.083v.042h-.083v.041l-.124.041-.041.124h-.041v.083h-.042l-.041.29h-.042V22.22l.042 2.11h.041v.249h.041v.262h.042v.124h.041v.124h.042l.082.414h.042v.082h.041v.118h.042v.082h.04v.125h.042v.124h.042l.041.172h.041v.083l.083.041v.083h.05v.083l.083.082v.083l.083.042.082.248.083.041.042.124.207.173-.002.067zm41.42-15.6l-.084-.248a1.671 1.671 0 0 1-.33-.124v-.041l-.332-.042v-.041c-.203-.06-1.129 0-1.282.041H56.59l-1.16.042c-.125.04-.265.133-.413.172l-.041.173-.083.04-.083.25h-.041v.104h-.041l-.042.173h-.041l-.042.207h-.041l-.041.248h-.042l-.041.172h-.041l-.042.207h-.041l-.083.373h-.041l-.042.172h-.046l-.042.248h-.041l-.041.207h-.042v.062h-.041v.124h-.042v.083h-.041v.138h-.041v.083h-.042l-.082.248h-.042v.124h-.041v.124h-.042v.11h-.041v.125h-.041v.083h-.028v.138h-.041v.082h-.042v.124h-.041v.125h-.048v.082h-.042l-.041.173h-.041l-.083.372c-.035.08-.124.173-.173.248-.344-.017-.234-.172-.33-.413h-.042v-.125h-.041v-.082h-.042v-.124h-.028l-.04-.173h-.042v-.124h-.042v-.083h-.048v-.124h-.041v-.083h-.042v-.124h-.041v-.096h-.048l-.042-.248h-.041v-.125h-.041l-.042-.172h-.041v-.083h-.041l-.042-.207h-.041v-.124h-.042v-.076h-.041v-.124h-.041v-.083h-.042l-.083-.372h-.04l-.042-.172h-.028v-.11h-.041v-.083h-.042v-.125h-.041l-.041-.172h-.042l-.041-.207h-.042l-.082-.372h-.042l-.041-.173h-.041v-.076h-.042v-.124h-.041l-.083-.248h-.041v-.083h-.042l-.124-.172-.496-.173h-2.202c-.335-.055-1.035-.093-1.366 0h-.372v.042h-.124v.069h-.088v.041h-.124l-.041.083-.125.041c-.21.545.09.949.29 1.324l.124.373h.048v.082h.042v.125h.041v.124h.042l.082.248h.042v.083h.041V14h.041v.082h.042l.041.173h.042v.124h.041v.083h.041v.124h.042v.082h.041l.083.249h.041v.082h.042v.125h.041v.062h.035l.082.248h.042v.124h.048v.083h.041v.124h.042l.082.248h.042v.083h.041v.124h.041l.083.248h.042v.097h.041v.083h.041v.124h.042l.083.248h.04v.083h.042l.042.207h.041l.083.248h.041v.124h.042v.083h.041v.124h.041l.083.248h.041v.083h.049v.07h.041v.123h.041v.083h.042l.083.248h.041v.083h.041l.042.248h.041l.083.248h.041v.083h.042v.09h.041l.041.248h.042v.083h.027v.083h.042v.082h.041v.083h.041v.083h.049v.083h.041l.083.248h.048v.124h.042v.09h.04v.124h.042v.083h.042l.124.372h.041v.083h.042l.082.248h.042v.124h.041v.083h.041v.124h.042v.083h.041v.083h.028l.083.248h.041v.124h.048v.083h.042v4.8c0 .39-.078 1.108.041 1.407h.041l.083.248h.041l.173.207.372.124h3.724l.373-.124.041-.083h.07v-.041l.123-.083.124-.373V22.6h.042v-.124h.055l.041-.172h.042v-.124h.041v-.083h.041l.083-.248h.041v-.11h.042v-.084h.041v-.09h.042v-.082h.041v-.124h.041v-.083h.042v-.082h.041v-.083h.042l.082-.249h.042l.041-.248h.041v-.083h.035v-.124h.041l.083-.248h.048l.042-.207h.041v-.083h.041l.083-.248h.042v-.124h.041v-.083h.041v-.09h.042l.083-.248h.04v-.124h.042l.042-.172h.041v-.124h.041l.042-.173h.041V18.4h.041v-.11h.042v-.083h.034v-.082h.042l.083-.249h.048l.041-.248h.042l.082-.248h.042v-.083h.041v-.083h.041v-.124h.042v-.083h.041l.083-.248h.041l.042-.248h.041v-.083h.041l.083-.248h.042v-.083h.041v-.124h.041l.083-.248h.041v-.083h.042v-.11h.041l.083-.249h.041v-.096h.042v-.124h.041v-.083h.042v-.083h.04l.084-.248h.041v-.124h.041v-.083h.042v-.117h.041l.083-.249h.041v-.082h.028v-.125h.041l.042-.172h.041v-.124h.048l.042-.172h.041v-.083h.041v-.124h.049v-.076h.041l.083-.248h.041v-.125h.042l.041-.207h.041v-.082h.042l.041-.173h.041v-.124a.554.554 0 0 0 .083-.413l-.05.012zm-28.262 9.766V23.3c-.021.318-.007.637.041.952v.372h.042l.041.497h.041v.172h.042v.083h.041v.124h.042v.172h.041v.125h.041v.124h.042v.124h.041v.124h.041l.042.172h.036l.041.173.083.041.042.172.082.042.042.172h.055l.041.124.083.042v.083l.172.124v.082l.207.173v.03l.083.082h.083l.372.414h.083l.041.082.125.042v.041h.082l.042.083h.082l.042.083.248.082.041.083h.125v.042h.082v.041l.173.041v.042l.248.041v.041h.083v.042l.248.041v.055l.538.083c.43.124.877.182 1.324.173l1.49.041 1.53-.29 1.16-.496.04-.083.173-.041.041-.083h.056l.041-.083.124-.041.083-.124h.083l.33-.373.29-.248v-.083l.124-.082v-.083l.125-.083v-.083l.082-.041.083-.248.083-.042.083-.248h.041v-.083h.041v-.083h.042l.083-.248h.04l.042-.248h.042v-.124h.034l.041-.29h.042v-.124h.041v-.124h.048v-.29h.042v-.172h.041a2.284 2.284 0 0 0-.041-.786v-.214l-.172-.331h-.083v-.042h-.083v-.041h-.124v-.041h-.124v-.042h-.207c-.392-.124-.885-.172-1.283-.29l-.414-.04c-.31-.1-.719-.16-1.034-.25a.345.345 0 0 0-.331.084c-.102.029-.067.02-.124.082h-.028v.083l-.124.083-.124.58h-.041v.206h-.056v.131h-.041v.173h-.042v.082h-.04l-.125.373-.124.082-.172.207h-.083l-.083.083h-.083v.035h-.069v.041h-.082v.041h-.09v.042h-.124v.041h-.331v.041c-.331.04-.667.026-.993-.04v-.042l-.173-.042v-.041h-.083l-.04-.083h-.084l-.124-.172h-.083l-.124-.173h-.041l-.041-.172-.083-.041-.042-.173h-.041c-.164-.405-.083-1.234-.083-1.779v-5.38h.042v-.172h.041v-.172h.041v-.124h.042v-.048l.082-.042.042-.172.083-.042v-.082l.124-.083v-.041c.408-.297 1.296-.464 1.945-.249l.29.042c.192.101.361.242.496.413l.172.125v.082h.041v.083h.042v.138h.041v.124h.042v.172h.041v.173h.041v.172h.049v.29h.041l.041.172h.042v.083l.172.083.083.124h.083V18c.146.054.3.082.455.083v-.041h.207V18h.207c.608-.194 1.338-.301 1.945-.496h.206v-.076h.173v-.041h.172v-.042h.124v-.041l.173-.124.041-.207h.041c.034-.276.02-.556-.04-.828l-.042-.744h-.042v-.125h-.041v-.172h-.076v-.172h-.041v-.125h-.042l-.041-.248h-.041l-.078-.234h-.041v-.083h-.042l-.041-.207-.083-.041-.041-.173-.083-.041-.041-.172-.083-.042v-.083l-.124-.082v-.083l-.207-.173v-.082l-.207-.173-.29-.33h-.083l-.172-.208h-.083l-.041-.082-.124-.042v-.041h-.083l-.041-.083h-.083l-.083-.083h-.083v-.041h-.082v-.041h-.083v-.042h-.083v-.041h-.083v-.042l-.248-.082v-.042h-.172v-.041h-.124v-.041h-.124v-.042h-.125v-.041h-.206v-.042h-.173v-.041h-.207V11.4l-1.06-.007h-1.981c-.136.119-.497.017-.704.082v.042h-.124v.041h-.122v.042h-.124v.041h-.173v.041h-.124v.042h-.172v.041l-.248.083v.041h-.083v.042h-.083v.041h-.083v.041h-.083v.042H34.4l-.083.082h-.083l-.041.083-.172.042v.041l-.125.041-.041.083h-.083l-.172.207h-.083l-.29.331-.124.083v.069l-.172.124v.083l-.173.124v.083l-.082.041-.042.172-.083.042-.04.172-.084.042-.041.172h-.007l-.083.248h-.041v.124h-.041v.083h-.042v.124h-.041v.173h-.041v.124h-.042v.124h-.041v.124h-.042v.124h-.041v.331h-.041v.29h-.042v2.483c-.074.263-.041.701-.041 1.034l.005 1.964zm27.268 14.027c0-1.247.017-2.586-.041-3.765l-.29-.331c-.076-.06-.059.017-.124-.083a50.9 50.9 0 0 0-2.441-.042H55.14c-.224.073-.313.266-.496.373-.09.993-.042 2.165-.042 3.227v7.697c0 .306.04.796-.041 1.034h-.041l-.042.248h-.032l-.042.173h-.041v.07l-.083.042v.083l-.083.04-.207.25c-.272.184-1.119.335-1.572.206h-.29v-.041h-.124v-.042l-.248-.041v-.041l-.248-.083v-.028h-.083l-.173-.207-.082-.041v-.097l-.124-.082v-.083h-.049c-.108-.236-.082-.612-.082-.952V41.3l.04-6.91v-1.53a3.323 3.323 0 0 0-.04-.787v-.207h-.042v-.129h-.041v-.124h-.042l-.082-.124h-.083v-.042h-.124v-.041h-.173a3.32 3.32 0 0 0-.827-.041c-.614 0-1.626-.063-2.028.041-.246.064-.517-.064-.662.083-.395.105-.33.658-.33 1.158v10.717c-.02.304-.007.61.04.91l.042.58h.041v.172h.042v.124h.041v.125h.041v.124h.042l.041.29h.049l.04.172h.042v.124h.042v.083h.048v.124h.041l.042.172h.041l.041.173.083.04.041.173.125.083.041.124h.041v.083l.083.041v.083l.173.124v.083l.248.207v.083l.124.082v.042h.083v.083a.33.33 0 0 1 .172.082v.042l.124.041.042.083h.082l.083.124.173.041.082.125.249.082v.042h.082v.041l.249.083v.041h.124v.041h.083v.042h.124v.041h.055v.042l.414.082v.042h.172v.041h.172v.041h.173v.042h.172v.041h.538c.645.09 1.3.09 1.945 0h.538v-.041h.414v-.041l.496-.042v-.041h.124v-.042h.173v-.041l.372-.083v-.041h.083v-.041h.124v-.042l.248-.083v-.041h.048v-.041h.083v-.07h.09v-.04l.248-.084.042-.082.124-.042.083-.124h.082l.042-.083h.082l.083-.124h.076l.041-.082.249-.207v-.083l.33-.29v-.083l.125-.082v-.083l.083-.041.082-.249.083-.041.041-.124h.042l.041-.172h.042v-.083h.048l.083-.249h.041l.041-.248h.042v-.124h.041v-.11h.042v-.083h.04v-.172h.042v-.09h.042v-.124h.041v-.173h.041v-.172h.042v-.207h.041l.041-1.117c.045-.274.06-.551.042-.828V35.53l-.002.019zm7.117.62v-3.144c0-.305.055-1.005-.082-1.159v-.129h-.042l-.24-.284-.172-.042v-.041h-.207c-.27-.083-.734-.042-1.076-.042h-2.069v.042h-.172l-.331.29-.041.172h-.042v.077h-.027v.249c-.046.285-.06.574-.042.862v14.654c0 .378-.055.995.083 1.242l.083.041c.28.302.64.248 1.207.248h1.896c.274 0 .709.044.91-.04l.331-.29c.13-1.4.042-3.037.042-4.51l-.009-8.195zm-36.123 8.856l-.041-.083h-.083l-.041-.083h-.083v-.041l-.173-.042v-.041c-.29-.117-.984-.041-1.365-.041h-4.834c-.1-.12-.244-.152-.29-.332-.084-.1-.041-.674-.041-.862V32.121h-.047l-.041-.29-.207-.289-.173-.041v-.042h-.124v-.041h-.082v-.041h-2.476c-.22.016-.442.016-.662 0v.041h-.173c-.072.083-.08.035-.172.083v.041h-.083l-.29.455c-.108.276-.041.771-.041 1.117v14.524c0 .402-.027.909.124 1.159l.083.041v.083h.041c.049.083.009.1.083.172.128.124.445.124.703.124h9.6c.273 0 .612 0 .745-.124.335-.194.331-.627.331-1.158V46.1c0-.432.012-.822-.172-1.075h-.016zm50.86-2.524h-.04l-.042-.173h-.041v-.124h-.042v-.083h-.041l-.124-.372h-.042l-.041-.124-.083-.042-.041-.172-.124-.083v-.083l-.083-.041v-.083l-.172-.124v-.083l-.207-.172-.373-.414h-.083l-.172-.207h-.074l-.083-.124-.124-.041-.041-.083h-.083l-.041-.083h-.083l-.083-.124h-.083l-.083-.083h-.082v-.041h-.076V39.5h-.083v-.042l-.124-.041-.041-.083-.173-.041-.041-.083-.249-.083v-.041h-.082v-.042h-.083v-.041l-.248-.083v-.041l-.248-.041v-.042l-.249-.083v-.041h-.082v-.041h-.125v-.042h-.082v-.041l-.207-.041v-.042h-.124v-.041h-.083v-.042l-.249-.041V38.3h-.082v-.013l-.249-.082v-.042l-.29-.041v-.041l-.247-.083v-.055h-.083v-.042l-.248-.041v-.041l-.173-.042v-.041h-.083l-.041-.083h-.069l-.083-.083h-.09v-.041h-.082l-.041-.083-.173-.041-.041-.083c-.143-.136-.31-.236-.373-.455h-.041c-.067-.12.059-.624.083-.662h.041a.469.469 0 0 0 .124-.207c.104-.044.202-.102.29-.172h.083v-.042l.29-.041v-.042h.172v-.041l.91.041v.042h.124v.041h.083v.042h.124v.048l.172.041v.042h.125v.04h.082l.042.084h.076v.041l.172.124v.083l.083.041v.083h.041v.083l.083.041v.083h.041l.042.172h.041l.083.373h.041v.082h.041l.042.249c.058.124.172.126.207.29l.207.04v.042a.984.984 0 0 0 .455-.041h.207v-.041l.372-.042v-.041h.172v-.042h.173v-.041h.172v-.041l.373-.042v-.041h.172v-.042h.173v-.04h.206v-.042h.173v-.042l.372-.041v-.041l.249-.042v-.041h.082l.042-.083h.082l.173-.207.083-.041v-.124h.041v-.124h.041l-.041-.621h-.041v-.207h-.042v-.248h-.041v-.173h-.041v-.124h-.042v-.124h-.041v-.083h-.042v-.124h-.041v-.083h-.041v-.124h-.042l-.083-.248h-.09v-.083h-.04v-.083h-.042l-.083-.248-.124-.083-.041-.172-.083-.041c-.086-.13-.116-.25-.248-.331v-.083c-.226-.062-.309-.304-.497-.414v-.083a.486.486 0 0 1-.207-.124v-.041h-.082l-.042-.083h-.083l-.082-.124h-.083l-.041-.083h-.083l-.042-.083-.172-.041-.041-.083-.373-.124v-.041l-.172-.042v-.041l-.993-.331h-.331c-.474-.136-1.054-.11-1.655-.124h-.173v-.042c-.219-.062-.49.033-.662.042h-.538v.041l-.62.042v.041h-.207v.041l-.249.042v.048h-.082v.041l-.249.042v.041h-.082v.048h-.118v.042h-.124v.041l-.248.083v.041l-.172.042v.041l-.125.041-.041.083-.172.041-.042.083h-.083l-.124.173h-.082l-.125.172h-.082v.041l-.173.125v.082l-.29.249-.04.124-.125.083v.082l-.083.042-.041.124h-.041v.062l-.083.041v.083l-.083.041-.041.173h-.042v.083h-.041l-.083.248h-.041l-.042.248h-.04v.083h-.042v.124h-.007v.083h-.042v.124h-.041v.124h-.041v.172h-.049v.331c-.053.188-.16.918-.082 1.207h.041l.041.745h.042v.124h.041v.104h.041v.124h.049l.041.29h.042l.082.248h.042v.082h.041l.083.249.083.041v.083l.082.041v.083l.083.041v.097l.124.083v.083l.207.172v.083l.083.082h.083l.172.207h.083l.207.249h.082l.249.29h.082l.042.082h.076l.041.083h.083l.041.082h.083l.041.083.173.042.041.082h.083l.083.083h.082v.041h.083v.042h.083v.027h.083v.042l.248.083v.048h.124v.041h.083v.042h.124v.041l.172.041v.042l.249.041v.041l.206.042v.041h.083v.042h.124v.041l.173.041v.042l.248.041v.042h.083v.04h.124v.029l.207.04v.042h.083v.042h.124v.048l.172.041v.042l.249.041v.048h.082v.042h.124v.041l.173.041v.042l.372.124.083.124h.083l.041.083h.083l.414.455v.083h.041l.041.248h.042c.038.147-.221.648-.29.703h-.083l-.082.125h-.083l-.042.082h-.082c-.376.212-.726.29-1.324.29H74.1v-.041h-.172v-.042h-.173l-.58-.29-.082-.123h-.083l-.082-.083v-.083l-.124-.083v-.083l-.083-.04-.124-.373h-.042l-.041-.173h-.041l-.042-.33h-.041v-.173h-.042l-.041-.331h-.041v-.083c-.012-.02-.057-.034-.083-.083a1.14 1.14 0 0 0-.704.083l-.538.083v.041h-.206c-.433.138-.976.235-1.407.373h-.207v.041c-.216.07-.517.028-.662.172-.228.138-.297.587-.207.91v.332l.248 1.075h.042l.041.173h.041v.124h.042l.082.248h.042v.07h.041l.083.248.083.041.041.172.083.042v.083h.041l.042.124.082.041v.083l.124.082v.083l.29.249.373.413h.082l.083.124.124.042.042.083.172.041.083.124.248.083v.041h.09v.042h.082v.041h.083v.041l.249.083v.041h.124v.042h.082v.041h.125v.042h.082v.041l.29.041v.042h.172v.041h.207V49h.207v.04h.173v.042l1.075.083h.414v.041l1.076-.04v-.042h.497v-.042h.234v-.041l.862-.124v-.042l.372-.082v-.042h.083v-.041h.124v-.042h.124v-.034l.249-.083v-.041h.083v-.048h.082v-.042h.09v-.041l.248-.083.041-.083h.083l.042-.082h.082v-.042l.124-.041.042-.083h.083l.041-.083.124-.041.207-.248h.083l.248-.29.083-.041v-.083l.172-.124v-.083l.173-.124v-.083l.124-.083V46.6l.069-.035v-.083l.082-.041.042-.172.083-.042.041-.172h.041l.083-.248h.042v-.125h.04V45.6h.042v-.124h.042l.041-.173h.041l.042-.29h.027v-.124h.042l.041-.372h.041v-.497a4.03 4.03 0 0 0-.172-1.241l-.022-.277zm-36.619-5.173c0-.369.043-.862-.041-1.158l-.083-.745h-.041l-.04-.24h-.041v-.083h-.042l-.041-.248h-.049v-.083h-.04v-.124h-.042l-.083-.248h-.041v-.083h-.042v-.124l-.082-.041-.042-.173h-.041l-.042-.124-.082-.041v-.083l-.083-.041v-.083l-.124-.083v-.083l-.173-.124v-.083l-.29-.25-.04-.082h-.084l-.082-.124h-.083l-.083-.124h-.083l-.082-.125h-.083l-.083-.124h-.082l-.042-.083-.172-.04v-.042h-.083v-.042l-.248-.082v-.033h-.125v-.042h-.082V32l-.248-.083v-.041l-.414-.083v-.055h-.124v-.041h-.125v-.042h-.172v-.041l-.496-.041c-.5-.144-1.28-.083-1.897-.083l-1.572.041v.041h-.207v.042h-.207v.041h-.124v.042h-.117v.041h-.083v.041l-.414.083v.048h-.083v.042h-.11v.041h-.124v.041h-.083v.049h-.138v.041h-.083v.042h-.082v.04l-.125.042-.041.083-.172.041-.042.083h-.083l-.04.083h-.084c-.253.17-.477.379-.662.62h-.083c-.05.173-.129.142-.206.249v.083l-.124.082v.083l-.083.041-.042.125h-.041v.082l-.083.042-.041.124h-.041l-.083.248h-.042v.083h-.041v.083h-.041l-.083.248h-.042l-.124.538h-.041v.124h-.041v.083h-.042v.172h-.02v.207h-.042l-.041 1.035c-.083.298-.042.79-.042 1.158v4.841c0 .518-.03 1.123.083 1.531l.083.787h.041v.124h.042l.041.172h.041l.083.414h.041l.083.248h.042v.055h.041v.083h.041v.09h.042v.082l.082.083v.083h.028l.041.124.083.041v.083l.083.042v.082l.083.042v.082l.414.373.372.414h.083l.041.082h.083l.083.125h.082l.042.082.172.042.083.124h.083v.041l.248.083v.041h.124v.042h.083v.048l.372.083v.041l.173.042v.04h.124v.042l.372.042v.041h.207v.041h.207v.042l.414.041v.042h2.193a4.68 4.68 0 0 0 1.282-.173h.249v-.041h.172v-.042l.29-.041v-.041l.207-.042v-.041h.076v-.042l.248-.04v-.042l.248-.083v-.041h.083v-.042h.11v-.041h.083v-.041h.09l.082-.125h.09l.041-.082h.083l.083-.125h.083l.082-.124h.083l.042-.082h.082l.083-.124.29-.249v-.083l.207-.172v-.083l.124-.083v-.082l.082-.042V46.8l.083-.042.042-.124h.041l.041-.172.083-.042v-.124h.041v-.076h.028v-.082h.041l.083-.249h.048l.042-.248h.041v-.11h.042v-.083h.048v-.124h.041l.042-.331h.041v-.331c.117-.4.083-1.009.083-1.531v-5.793l-.002-.009zM39.88 40.39v3.103h-.042v.173h-.046v.124h-.042l-.041.207h-.041l-.042.172h-.041l-.042.173-.124.083-.041.124h-.083l-.041.082c-.22.13-.456.228-.704.29h-.744c-.45 0-.862-.064-1.118-.248l-.172-.207-.124-.083V44.3l-.083-.041v-.109l-.083-.041v-.083l-.082-.041-.042-.207h-.041c-.117-.345-.042-.909-.042-1.324v-4.552l.042-.951h.041l.083-.414.083-.041v-.083l.413-.455.173-.042.041-.083h.124v-.041h.125v-.041c.151-.052.267.012.372-.083.757 0 1.345.022 1.78.33v.05l.172.123v.083l.124.083.041.172h.041v.083h.042l.083.248h.041v.173h.041v.172h.042v.207h.041l-.084 2.998zm-23.338-4.965v-.207h-.041v-.205l-.414-.993-.088-.042v-.083h-.041l-.042-.124-.082-.041v-.083l-.083-.041-.041-.124-.173-.124v-.083l-.496-.455h-.076l-.124-.173h-.083l-.083-.124h-.083l-.04-.083h-.084l-.041-.082-.248-.083v-.041h-.076v-.042h-.083v-.041h-.09v-.042l-.248-.082v-.042l-.248-.041v-.035h-.083v-.041l-.29-.041v-.042h-.124v-.048h-.124v-.041h-.248v-.042h-.207v-.041h-1.359v.041h-.372v.042h-.207v.041h-.207v.041h-.124v.042h-.124v.041h-.083l-.041.083-.173.041v.042l-.172.041v.041l-.207.042-.041.082h-.083l-.083.125H9l-.172.207h-.069l-.041.082-.29.249v.082l-.207.173-.041.124-.083.041-.041.173-.083.041-.041.124h-.035l-.041.173-.083.041v.083h-.048v.124h-.042v.076h-.041l-.09.24H7.51v.123h-.042v.083h-.04l-.125.745h-.041v.172H7.22l-.041 1.118h.041v.372h.042v.331h.041l.041.373h.042v.124h.041c.072.199.086.414.042.62l-.373.124v.042h-.083v.041h-.151v.042l-.249.082v.042h-.096v.041h-.083v.041h-.083l-.082.083h-.083l-.042.083h-.082v.041h-.083l-.083.083h-.069l-.083.124h-.09l-.04.083-.125.041v.042h-.083l-.082.124H5.24l-.62.655h-.083a.321.321 0 0 1-.083.172h-.042v.083l-.082.042v.041l-.083.041v.083l-.083.041v.083l-.124.083-.54 1.146v.207h-.04l-.047.668h-.04v.579h.04v.455h.042v.207h.041l.042.248h.048v.083h.041l.042.248h.041v.083h.048l.042.207.082.041v.078h.042v.083h.041v.09l.083.082v.09l.083.041.041.124.124.083v.083l.173.124v.083l.082.041v.083l.07.027.248.29h.082l.173.207h.083v.041l.124.083.082.124 1.159.62.538.125v.041h.124v.042h.124v.041h.193v.041h.29v.042h.58v.041L9.826 48c.264 0 .962-.021 1.076-.125h.33v.042h.042v.041h.042v.083h.041v.083h.041l.042.172h.041v.124h.042l.04.248h.042v.083l.083.042v.082h.041v.083h.042l.041.124c.117.024.23.095.331.124l.414-.04v-.042h.083v-.042l.372-.082v-.042h.124v-.041h.083v-.042h.124v-.041l.248-.041v-.042h.083v-.041l.993-.331v-.041l.124-.083v-.083h.042l.041-.207h.042c-.045-.357-.221-.591-.332-.862l-.04-.29h.04c.06-.227.218-.16.414-.248v-.041l.173-.042v-.041l.248-.041v-.042l.172-.041v-.041l.249-.083v-.042h.082c.099-.053.162-.138.29-.172.033-.152.13-.273.172-.414v-.172h-.04v-.207h-.042l-.042-.248h-.041v-.083h-.048l-.042-.207h-.041v-.083h-.041v-.124h-.049v-.117h-.041V44.2h-.042v-.124h-.04v-.083h-.05l-.123-.373h-.042l-.041-.172h-.041v-.124h-.042l-.041-.207h-.042l-.04-.172h-.042v-.083l-.124-.042-.124-.172a2.071 2.071 0 0 0-.704.083v.041l-.172.041v.042h-.083v.041h-.124v.042l-.173.041v.041l-.248.042v.055h-.124v.041a.468.468 0 0 1-.414-.041c-.157-.102-.126-.28-.207-.455h-.041v-.083h-.041l-.042-.172h-.027l-.042-.249h-.041v-.075h-.042v-.125h-.041l-.041-.172h-.042l-.041-.207h-.041v-.124h-.042l-.041-.172h-.042v-.173h-.041v-.124h.041c.07-.22.107-.091.29-.172v-.042l.248-.083v-.04l.249-.042.993-.538.055-.055h.082l.042-.083h.083l.041-.083h.083l.172-.207h.083l.372-.414.249-.206v-.083l.172-.124v-.083l.173-.124v-.083l.124-.083v-.082l.082-.042v-.083l.083-.041.041-.172.083-.042.042-.172h.041l.083-.248h.041v-.125h.042v-.124h.04v-.124h.042v-.103h.042V37h.041v-.124h.041v-.207h.042c.064-.41.078-.828.041-1.242l-.064-.001zm-6.71 8.898h-.04v.083c0 .013-.058.043-.082.082-.392.01-.724.062-1.076-.041h-.207v-.041l-.33-.042v-.041l-.173-.042v-.04l-.173-.042-.041-.083h-.083v-.041l-.172-.125-.083-.248H7.33v-.083h-.042a2.02 2.02 0 0 1-.041-.703h.041l.124-.372.083-.042.172-.207h.083v-.041h.083l.041-.083.249-.083v-.041h.082v-.041h.125v-.042h.082v-.041h.173v-.041h.345c.025.044.07.062.082.082v.083h.042l.041.207h.041v.083h.042l.041.248h.042v.083h.04v.124h.042l.042.172h.041v.124h.041v.124h.042v.125h.041v.124h.042v.124h.027l.042.172h.04l.09.393h.042l-.002.173zm3.104-7.986c-.014.29-.345.624-.538.745h-.083l-.083.082h-.083v.042h-.082v.048h-.083v.041l-.172.042v.041h-.123v.042h-.083v.041l-.248.041v.042h-.331l-.041-.083h-.042l-.041-.124h-.042v-.124h-.034v-.131h-.041v-.173h-.042v-.124h-.041v-.172h-.048v-.331h-.042v-.042h.042v-.496h.041v-.124h.041v-.083h.042v-.124h.048v-.083h.041v-.083l.083-.041v-.083l.124-.041.042-.083h.082v-.041l.207-.042v-.041c.588-.014.824 0 1.159.248l.124.172.172.125.042.206h.041v.083h.042c.026.21.009.423-.05.626v.002z" fill="#767A92"/></svg>