<svg width="765" height="862" viewBox="0 0 765 862" fill="none" xmlns="http://www.w3.org/2000/svg"><path d="M236.992 861.726C126.639 816.692 72.762 798.898 0 788.972c7.1-22.98 15.149-33.002 28.093-51.866l55.466-4.322-2.16-31.695 109.491-14.406 524.407-71.314c2.023 9.043 1.117 16.909 0 30.254l-92.924 18.729 115.974-5.763c12.278 19.952 18.162 30.828 26.653 49.704-7.476 26.958-12.216 41.495-21.61 65.551-101.218 20.426-153.652 39.823-240.593 86.44l-12.246-2.881c5.455-23.785 7.166-37.859-3.602-70.593-35.655-69.539-66.652-87.726-140.466-85-52.773 11.709-73.521 30.681-97.966 82.118-9.608 29.021-8.619 46.388-4.322 77.798h-7.203z" fill="#F4F4F4"/><path d="M185.847 667.234c.688 8.959 1.96 13.235 5.763 19.449l46.822-6.483c-5.093-13.148-8.339-20.444-23.051-31.695l-18.729-1.441c-2.607-1.795-3.453-2.891-3.602-5.042h-7.203c-10.913-13.267-15.506-20.712-20.89-33.856-.925-15.041.57-20.793 8.644-23.771 2.362-1.732 3.135-1.668 3.602 0-2.7 8.588-3.415 15.377-3.602 30.254 1.696 2.874 3.017 3.622 5.763 5.763 21.648 2.181 29.886 5.492 40.339 13.686l36.017 28.093c7.801 3.038 9.039 6.486 9.364 13.687l54.746-7.204c-1.484-9.028-3.817-13.242-11.525-18.728-21.079-3.941-38.989-13.062-74.916-33.856-2.792-4.145-4.077-6.788-5.762-12.246v-23.771c9.811-18.159 15.251-28.459 20.89-54.746 3.865-15.636 9.528-22.347 25.932-30.254 48.557 1.707 82.363-1.178 140.466-5.043-.649 8.944-.452 13.424 7.203 14.407 10.712 4.173 19.502 11.961 38.178 31.695 8.817 1.422 11.209-.4 10.805-8.644-6.577-13.575-11.554-24.112-20.89-43.941-1.712-6.865.229-10.281 16.568-14.406 5.265-5.083 9.392-2.306 18.009 8.644 7.875-.01 11.985.16 15.127 2.881 10.086 9.937 17.354 15.854 38.178 28.093l36.737 41.06c17.256 9.036 24.604 14.464 30.975 25.211 7.935 23.284 15.306 31.89 36.737 34.577 2.756 5.765 3.818 6.537 4.322 15.127l56.907-8.644c-1.938-22.589-11.934-27.421-39.619-27.373-23.143-19.499-35.055-32.592-54.746-59.068-2.414-11.582-21.397-41.946-45.381-81.398-4.42-6.896-6.323-6.378-8.644 2.881-9.012-2.899-11.269-2.328-7.203 5.042 9.084 6.084 13.714 10.141 19.449 20.89 2.971 4.238 1.823 5.474-6.483 5.043-2.676-2.545-4.266-3.855-5.763-7.924-2.311-1.828-3.244-1.776-4.322 0-.186 6.359-.973 7.55-2.881 7.924-14.219-10.222-19.819-15.896-23.772-25.933 47.107-26.167 82.466-44.345 89.322-54.745l15.848-5.763c1.651 14.728 1.727 22.686 1.441 36.737-8.621 18.184-7.89 25.18 0 33.856-1.428 3.853-4.838 6.199-17.289 10.805-1.424 17.28-2.963 26.591 0 46.102l10.085-2.881c13.149-3.373 19.197-9.701 28.093-27.373 2.332-10.731 5.175-16.241 15.128-24.492-13.014-43.846-14.262-59.897-5.043-72.754 1.366-8.412 1.4-13.326 0-22.331-4.858-6.559-7.678-10.167-13.686-15.847-36.05 5.142-55.027 7.391-80.678 7.203.213-25.79-1.862-34.924-6.483-48.983 8.583-1.469 7.535-3.595 0-8.644l10.805-.72c5.61-10.714 8.572-18.117 15.127-21.61 9.046 13.802.112 22.47-19.449 38.178-.37 5.401.133 8.299 3.601 12.966 7.062 3.742 10.218-2.26 15.845-12.961l.003-.005c8.807-.619 10.127 1.032 7.924 6.483l-10.085 6.483c-2.715 9.994-.976 13.312 10.085 13.686 22.906-7.453 32.611-17.462 46.822-41.059 10.586-6.277 15.582-10.648 20.169-22.33 3.039 2.118 5.222 2.597 10.085 2.161 5.111-9.863 8.83-15.261 23.051-23.772l-2.161-13.686c-3.079-6.212-3.89-9.258 7.203-8.644 3.686.659 4.337-1.319 2.881-7.204l-11.525-14.406c-6.148-4.311-6.416-7.254 8.644-15.127 2.477-2.826 4.284-4.151 2.881-9.365-19.951-2.397-29.657-1.278-46.101 2.161-6.301-12.344-12.646-16.404-30.975-16.568-10.364-9.773-17.574-9.832-31.695-5.042-6.273-7.589-16.481-9.282-47.542 1.441-10.76-5.804-18.224-4.038-33.856 7.203-11.763-1.145-19.156 3.004-35.297 28.093h-17.288l-5.762 2.882c-5.31 9.771-13.164 16.35-33.856 29.534-13.344 19.746-21.059 31.988-30.975 34.576-6.32-9.777-11.347-14.317-23.771-20.17l2.161-5.762c4.511-7.43 8.876-6.336 19.449 3.601 8.096 2.712 12.41 2.365 19.449-3.601.168-16.481-1.818-24.097-19.449-26.653-15.584 4.379-26.899 3.696-56.186-8.644-7.15-9.813-9.905-15.632-15.128-25.932-7.763-7.302-16.301-12.862-30.254-22.331-3.143-3.837-4.113-6.309-2.161-12.245 1.281-3.436 3.575-4.822 7.924-7.204.738-2.774.76-6.699 0-17.288 8.1-2.546 10.523-6.191 10.805-16.568-3.32-5.83-2.055-11.655 1.441-23.05-.543-5.27-5.05-5.608-17.288-3.602l-26.653 12.966c-10.586.032-12.525 3.601-15.847 10.084-1.065 4.409-2.051 6.978-6.483 12.246-9.681 7.746-13.689 13.106-17.289 25.212-6.458-12.203-11.091-16.355-20.169-21.61l-.72-4.322c-16.184-23.579-22.584-40.146-33.856-69.873v-5.763c-5.18-8.631-6.411-15.934-4.322-35.296-7.39-6.314-9.239-6.51-10.806-4.322.628 7.982.161 12.413-3.601 20.17-2.635-4.425-4.04-9.873-6.483-24.492-4.755-7.71-7.093-7.675-10.805-1.441-3.135 9.564-4.083 15.241-4.322 25.932.977 8.624 2.88 13.777 15.847 25.212-5.423 15.17-6.973 30.86-8.644 64.11-16.212 6.004-18.264 12.261-15.847 25.932l14.406 33.136v20.89c1.347 23.303 1.74 36.914 10.085 49.703-3.508 2.395-4.981 4.238-5.042 10.085 9.982 9.186 13.821 9.606 14.406-6.483-15.799-21.622-13.813-38.045-12.966-66.271 1.66-6.557 1.673-10.318-1.44-17.288-6.843-11.599-10.414-17.907-14.407-27.373-1.538-9.572.351-13.213 12.246-14.407 6.94-1.612 8.47-4.127 10.084-9.364-.006-22.59 1.369-28.689 6.483-27.373.115 11.566.887 19.112 5.043 36.737 7.236 13.498 10.663 21.152 7.924 36.017 6.308 7.305 10.816 10.278 22.33 11.525 5.05 4.922 3.251 6.248.097 8.573l-.097.071c-14.658 12.238-23.657 20.484-35.297 27.373.326 5.744 1.696 8.023 9.365 7.924-.929-2.18-1.198-3.35 0-5.042l35.297-21.611c4.76 3.554 7.603 5.123 12.966 7.204l-.091.29c-4.57 14.651-7.162 22.962-10.714 33.566-6.823 5.742-8.093 9.321-9.365 15.847 1.492 3.797 3.231 4.291 7.204 3.602 7.982-15.061 13.883-23.981 27.372-36.737 12.654 11.412 19.324 16.574 29.534 20.889 3.734 5.587 3.449 7.318 0 8.645-7.069 1.041-10.604 1.882-12.966 5.762-3.166 3.096-2.435 4.828 0 7.924 3.952-1.329 5.684-.958 8.644 0-10.344 21.103-16.18 32.882-34.576 41.78l9.364 17.288c5.604-.136 7.609 2.309 8.644 12.246 2.806-1.839 5.592-1.292 10.806 0 21.816-2.837 31.056-2.695 41.779 4.322-15.16 10.973-31.559 15.516-75.635 20.889-45.601 12.427-64.643 25.747-84.28 63.39v8.644c-11.03 1.7-15.41 2.78-18.729 5.043-8.913-.338-13.778-.691-19.449-5.043-8.847-3.619-13.144-3.746-20.17-2.161-31.326 19.143-39.02 32.176-33.135 59.788-7.954 9.534-13.876 15.283-5.043 20.17l18.73-2.161c5.641-1.304 6.615-.264 5.042 4.322-6.145 4.005-7.39 7.306-10.085 12.966-1.21 5.182-1.854 8.102 2.881 16.568 4.37-.596 6.315-.232 10.085 0 1.899-3.779 3.208-5.034 5.763-6.483 10.131 3.87 17.048 3.601 30.974 0 .987-17.62-.674-24.098-7.203-30.255.677-2.541 5.483-2.66 13.643-2.862l.764-.019c4.036-10.526 4.415-19.721 4.322-37.458 8.195-9.063 12.497-10.532 19.449-4.322 4.733 21.747 13.84 38.695 38.178 74.916-2.785 12.006-14.258 24.399-40.339 49.703-3.485 8.915-1.971 13.598 7.203 19.449 18.946 20.996 27.914 34.668 30.975 53.305 2.838 1.035 5.36 3.073 12.966 11.526 8.247-4.737 11.954-5.208 15.127 2.161z" fill="#F4F4F4"/><path d="M221.144 666.513c-6.477 1.309-9.178 3.21-12.966 7.924h12.966c4.739-3.094 5.018-4.833 0-7.924zm82.839-5.763c-3.319 4.312-6.041 6.272-12.966 8.645h15.127c5.028-3.625 4.087-5.828-2.161-8.645zm-128.22-92.203c-19.891 9.995-26.965 16.575-34.576 29.534-2.555-3.156-3.551-6.448-4.322-15.847 16.325-7.312 24.253-12.985 36.737-25.212 4.171 3.216 4.219 5.91 2.161 11.525zm2.881-27.373v-4.322c3.188 2.634 5.213 5.19 9.365 12.246-.064 7.766-.665 10.367-2.161 13.686-1.293-9.469-2.354-14.547-7.204-21.61zm41.059 41.78c-1.969-3.026-3.073-4.147-5.042 0-2.114 17.026-.667 24.348 8.644 31.695 1.877.154 2.862-.011 4.322-1.441-7.551-12.5-8.212-18.957-7.924-30.254zm-25.932-74.195c-11.812-4.835-17.378-8.292-25.212-15.848 10.702 3.614 17.118 5.549 30.254 8.645 6.718 2.265 9.937 3.899 15.128 7.203.401-19.449-5.751-27.363-23.772-38.178-28.131-11.808-29.302-15.956-33.856-23.771 23.906 6.293 35.328 9.895 48.984 16.568.883-3.659.783-5.705 0-9.365-4.133-13.799-8.47-18.921-17.289-26.652l10.805 6.483c14.955 2.892 20.862 10.012 26.653 33.135.615 10.282 2.614 15.785 8.644 25.212 4.411-5.054 6.448-9.075 9.364-18.008.945-7.603.749-12.077 0-20.17-8.907-15.644-12.004-24.811-18.008-41.059 11.85 14.031 18.487 21.87 29.534 32.415v16.568c-3.93 5.411-4.424 8.393-4.322 13.686 2.294 10.688 2.49 15.415 2.161 23.051-9.289 12.134-13.404 20.905-15.848 45.382-2.99 5.057-4.566 6.114-7.203 5.042-3.892-16.2-3.6-30.269-5.042-28.814-4.424 9.893-6.949 16.123-10.805 17.288-3.752-12.323-8.563-18.529-20.17-28.813zm169.28-39.619c17.5-12.715 25.129-24.063 38.178-45.381 2.101 25.498-6.763 35.212-38.178 45.381zm96.525-146.229l-15.127-10.805c20.878-2.09 23.462 5.624 28.046 19.307l.047.143-12.966-8.645zm226.907 288.136c-10.398 2.995-13.729 4.73-16.568 10.085l21.61-2.882c-.794-4.381-1.799-6.081-5.042-7.203zM564.746 508.039c-1.733-7.541-5.399-12.81-12.246-22.331 9.653 6.562 15.2 9.897 25.932 13.687 10.484 9.073 16.328 14.154 19.449 22.33v10.085c13.206 14.358 31.036 34.664 54.746 59.068 3.655 3.377 6.256 4.536 11.526 5.762 5.907 1.376 9.219 1.562 15.127 0-.185 2.577-1.005 3.654-3.602 5.043h-20.17c-10.557-7.783-15.499-8.506-23.05-5.043-4.091-23.579-20.208-38.312-51.144-64.83l-1.441-7.924c-4.413-5.416-6.747-8.378-15.127-15.847zm-50.424-115.975c1.193-14.468-4.872-22.821-25.932-38.178 13.054 1.545 20.408 2.472 41.059 17.288 2.072 2.586 7.935-16.987 8.644-39.618 6.134 16.393 8.046 25.686 7.203 42.5l-18.728 1.44c-4.181 3.506-5.012 5.318 0 7.924h20.169c4.353-3.146 7.521-4.694 16.568-6.483 32.865-2.324 49.417-3.809 63.39-7.924 7.015-4.784 10.658-5.795 16.568-4.322 6.238 6.208 7.943 10.672 10.805 18.729-.028 4.782-.607 8.022-2.882 15.127-1.271 23.886-3.867 35.81 1.441 64.831-6.106 6.173-7.9 5.966-8.644 0 1.717-1.435 2.148-2.356 1.441-4.322-9.236-10.311-7.871-14.582-2.882-21.611 1.92-36.166-.432-48.031-12.246-50.423-30.84 1.702-43.6 6.831-63.389 18.729-13.175 11.145-20.763 17.677-28.814 21.61-8.424 1.997-13.352 3.606-19.449 0-5.78-11.537-9.009-17.862-14.407-24.492h-7.924c-6.914-4.9-10.306-7.186-15.847-10.805-2.588-5.024-2.673-7.214-2.161-10.805 19.373 2.133 28.73 3.919 36.017 10.805zM403.39 281.853c-1.254 3.913-1.427 5.993 0 9.364 14.297-2.281 22.1-3.864 33.135-10.805 19.061 3.932 28.159 5.877 40.339 8.644 3.714-3.924 7.99-5.321 17.289-7.203.986-1.825-7.074-2.321-26.653-2.881l-7.924-4.322h-6.483c-3.322-2.707-4.859-4.297-7.203-7.204-6.516-1.303-8.771-3.292-10.805-8.644h29.534c2.959-2.429 2.826-3.562-1.441-5.042-4.833-1.67-6.752-4.113-10.085-8.644.827-2.309 1.614-3.031 5.043-.721 4.297 1.055 7.679.465 14.406-1.44l15.848 8.644c1.346.391 2.106.423 3.602-5.043 4.579-19.468 9.003-26.902 20.169-33.135 1.306-2.86 2.185-4.553 4.322-7.924 1.201-1.53 2.01-1.383 3.602 0-.493 6.246-.204 8.059.72 10.085l-6.483 8.644c-.914 4.254-.165 5.408 2.161 6.483 3.869-7.266 7.081-10.459 16.568-12.966.586-3.171 3.907-8.049 17.288-24.492 2.412-1.857 2.745.691 2.161 9.365l-7.203 12.245c-1.288 4.953-.072 6.518 4.322 7.925 1.795-7.45 5.132-11.505 25.212-18.009 3.993-2.167 6.233-3.387 11.525-11.526 4.264-.067 3.884 3.222-7.203 21.61-1.922 4.153-1.403 5.196 2.881 4.323 22.127-7.173 33.149-11.061 38.178-16.568 5.224 2.576 5.414 5.39-.72 13.687l-18.729 10.084c-2.008 3.981-1.527 5.201.72 6.483 19.763-8.206 30.537-11.634 46.822-6.483 2.416 1.426-2.573 4.071-23.771 12.246-4.703 2.572-6.14 4.486-8.644 7.924l1.441 5.042c-1.869 3.141-3.347 4.627-7.204 6.483-1.621 3.259-1.821 5.012 0 7.924l7.204-7.924 2.161 2.882c-2.759 7.955-2.397 12.552.72 20.889l-2.881 5.763c-.16 2.606.739 2.931 2.881 2.881 3.943-1.882 6.151-3.638 10.085-8.644 1.389-8.512 2.315-12.149 4.322-15.847 1.203-.898 2.041-.681 3.601 0-.255 5.554 1.024 9.41 5.763 17.288.522 4.878.12 7.494-4.322 11.525-1.564-.978-2.374-2.192-3.602-6.483-1.687-1.098-2.634-1.537-4.322 0-.931 2.532-1.327 3.952 0 6.483l-14.406 15.128c-2.392 5.966-.275 6.363 5.042 5.762l13.686-8.644c1.424-1.456 1.819-2.625 2.161-5.042 10.998-5.913 16.562-12.335 25.212-30.254-5.217-4.396-7.332-7.459-10.085-13.687-1.039-7.868-.58-12.283.721-20.169l3.602-13.687c1.874-1.709 3.19-1.453 5.762 0-1.734 8.06-3.684 12.028-1.44 22.331 4.792 3.99 7.472 7.685 12.245 15.847 1.458 1.741 2.115 1.874 2.882 0 .393-3.602-1.367-6.997-6.483-14.407-.882-2.807-.922-4.396 0-7.203 2.812-1.847 4.39-1.711 7.203 0 1.951 8.681 3.63 12.236 7.203 17.288 1.78.773 2.19.007 1.441-4.322l-3.602-15.127c.569-1.841 1.227-2.742 4.322-3.602h5.763c.919-1.069 1.202-1.825 0-4.322l-16.568-16.568c1.847-3.875 3.605-5.984 10.805-9.364.574-2.468-.005-3.266-2.881-3.602-7.082 1.709-11.7 3.563-20.169 7.204-5.004 2.269-7.983 2.911-14.407 0-3.337-7.795-5.702-11.784-12.966-16.568-5.567.854-8.857.896-15.127 0-10.215-10.665-14.092-9.321-20.17-3.602h-5.042c-10.034-6.112-16.012-10.473-20.89-2.882h-6.483c-6.679-2.904-9.691-1.331-14.407 4.322h-5.042c-13.567-8.336-19.728-6.229-28.814 6.484h-13.686c-24.38 20.016-34.319 31.369-43.941 28.093l-7.924 7.924c-9.401 14.761-16.257 19.95-32.415 21.61.173 3.926.173 5.976 0 9.364-8.487 6.727-12.615 10.915-19.449 18.729zm-37.458 33.134c-7.608 9.272-10.101 14.737 0 26.652 1.972-.588 3.291-1.236 6.483-3.601 1.483 2.388 2.838 3.06 5.763 3.601 4.848-3.479 7.972-4.91 14.407-6.483 10.76 6.333 15.425 10.065 19.449 17.288.351 1.002-5.459 2.189-23.051 5.043 7.595 7.338 14.058 16.086 25.932 32.415 24.055 19.703 29.977 29.61 26.653 45.381l37.458 17.288 6.483 14.407c4.972 4.98 6.703 3.916 8.644-2.161-4.521-11.566-5.65-17.031-6.483-25.932l-15.848-23.771c-1.611-4.286-2.352-6.792-2.161-12.246-3.505-1.114-5.548-1.891-10.085-5.042l-18.008-28.094c-8.299-12.964-15.593-13.295-31.695-5.762 4.752-8.475 8.729-12.493 18.729-18.009-2.44-8.906-10.436-14.951-25.932-25.932-5.856-5.625-7.828-9.097-8.644-15.847-1.97-1.487-3.074-1.867-5.043 0-7.754 6.594-12.827 8.911-23.051 10.805zM177.924 134.904c-3.546 1.936-4.72 1.68-6.483 0-13.13-36.717-17.3-54.008-18.009-77.797 1.71-4.549 3.153-4.415 6.483 0l8.644 18.729c3.381 24.701 7.619 35.572 18.729 50.424-4.03 3.17-6.088 5.133-9.364 8.644zm0 14.406c-.828 2.113-1.011 3.341 0 5.763 9.076-10.467 15.926-13.771 30.254-16.568-2.63-3.275-4.617-4.708-10.085-5.763-8.838 6.253-13.501 9.825-20.169 16.568zm24.491.72h7.924c2.196-5.271 2.985-5.073 4.322-4.322 2.904 7.446 7.378 11.538 21.61 18.729 20.84 11.82 28.738 17.963 36.737 28.093 2.863 1.202 3.914.916 4.322-2.161-1.256-3.078-2.697-4.398-5.762-6.483l-.721-5.763c-3.813-5.739-10.249-9.924-24.491-18.008.002-4.961 1.041-6.632 6.483-5.763l9.364 11.526c3.656 1.342 6.01 1.672 10.805 1.44 10.701 13.042 18.121 20.43 36.738 33.856 4.894 11.307 7.838 17.736.72 23.771l-12.246.721-15.847-7.204-10.805-.72c-13.315-6.336-20.731-9.665-33.856-15.127-4.526.267-5.628.803-3.602 2.881 11.788 5.323 18.254 8.308 20.89 13.687h-8.644l-21.61-12.246c-1.947-2.758-2.007-3.94.72-5.042 4.464-.508 3.378-3.253.72-8.644v-16.568c-.375-2.688-.912-4.133-2.881-6.483-2.082-1.184-3.171-1.02-5.042 0-1.234 1.548-1.654 2.696-1.441 5.762-1.437 2.144-2.905 2.288-5.763 2.161-3.687-2.853-5.467-4.714-7.923-8.644 1.006-1.995 1.806-2.909 4.322-3.601 1.009-2.617.36-3.521-2.882-4.322l-7.924 3.601c-4.366-.272-5.06-1.529-4.322-5.042 3.063-4.821 5.192-7.096 10.085-10.085zm85 108.051c-11.521 7.269-15.979 9.483-18.008 7.924 2.058-10.381 4.891-15.672 16.568-23.051l33.135-10.805c3.336-5.03 5.605-4.886 10.085-1.441 7.331 9 11.935 13.548 21.61 20.17l12.966 15.127c1.095 1.958 1.737 3.321 2.881 5.763 4.547 2.163 7.091 3.509 11.526 8.644 8.403 6.074 10.693 8.861 8.644 12.245l-8.644 7.204c-2.124 2.697-5.227 3.397-11.526 4.322-8.358 12.077-11.807 16.232-15.847 19.449-6.044 1.036-9.163-.317-14.407-5.042l-4.322-4.323c-1.426 1.73-1.674 3.113 0 7.204 4.46 5.145 5.939 7.963 6.483 12.966-5.226-1.338-7.851-1.806-15.127-5.042-3.068-1.652-3.994-2.997-4.322-5.763 5.86-10.11 8.557-13.09 12.966-16.568 7.118 1.387 11.707-2.35 20.89-16.568 12.373-7.148 14.767-10.683 10.085-15.847-3.097 3.778-5.843 5.164-12.246 6.483-8.603.807-11.605 2.449-10.805 9.364-14.001 2.619-18.14 5.979-19.449 15.127l-8.644 10.085-22.331 4.322c-6.348.85-9.211.581-11.525-2.881-.326-1.712 6.158-2.809 28.093-5.043 10.251-14.897 14.669-23.716 30.254-36.737l-1.44-5.763c-8.56 7.374-14.769 10.54-27.373 15.128l-6.483 11.525c-9.459 2.976-15.28 3.516-26.653 2.161-7.23-3.683-9.7-5.75-10.805-9.364 11.304-6.744 17.587-10.68 25.932-25.933 1.024-2.947 1.328-4.459-2.161-5.042z" fill="#FCFCFC"/><path fill="#F4F4F4" d="M360.169 752.034h12.966v95.085h-12.966z"/><path fill="#F4F4F4" d="M321.823 761.894l11.152-6.615 38.163 64.335-11.151 6.615z"/><path fill="#F4F4F4" d="M430.6 781.991l5.978 11.506-66.378 34.488-5.978-11.506z"/><path fill="#F4F4F4" d="M293.385 789.708l6.554-11.188 64.544 37.809-6.553 11.187zm111.042-37.674l10.802 7.172-41.376 62.318-10.802-7.172z"/><path fill="#F4F4F4" d="M293.898 829.83l.055-12.966 148.454.627-.054 12.966z"/><circle cx="277.331" cy="823.347" r="19.449" fill="#F4F4F4"/><circle cx="288.856" cy="777.246" r="19.449" fill="#F4F4F4"/><circle cx="321.992" cy="744.11" r="19.449" fill="#F4F4F4"/><circle cx="366.653" cy="734.025" r="19.449" fill="#F4F4F4"/><circle cx="415.636" cy="746.991" r="19.449" fill="#F4F4F4"/><circle cx="445.89" cy="778.686" r="19.449" fill="#F4F4F4"/><circle cx="454.534" cy="823.347" r="19.449" fill="#F4F4F4"/></svg>