<svg width="235" height="264" viewBox="0 0 235 264" fill="none" xmlns="http://www.w3.org/2000/svg"><path d="M72.605 264C38.797 250.203 22.291 244.752 0 241.71c2.175-7.039 4.64-10.11 8.607-15.889l16.992-1.324-.662-9.71 33.544-4.414 160.658-21.848c.62 2.771.343 5.181 0 9.269l-28.468 5.738 35.53-1.766c3.762 6.113 5.564 9.445 8.166 15.228-2.291 8.259-3.743 12.712-6.621 20.082-31.009 6.258-47.073 12.2-73.708 26.482l-3.752-.883c1.671-7.286 2.196-11.598-1.103-21.627-10.924-21.304-20.42-26.876-43.034-26.041-16.168 3.588-22.524 9.4-30.013 25.158-2.943 8.891-2.64 14.212-1.324 23.835h-2.207z" fill="#F4F4F4"/><path d="M56.936 204.415c.211 2.745.6 4.055 1.766 5.958l14.344-1.986c-1.56-4.028-2.555-6.263-7.062-9.71l-5.737-.441c-.799-.55-1.058-.886-1.104-1.545h-2.207c-3.343-4.065-4.75-6.345-6.4-10.372-.283-4.608.175-6.37 2.649-7.283.723-.531.96-.511 1.103 0-.827 2.631-1.046 4.711-1.103 9.269.52.88.924 1.11 1.765 1.765 6.632.668 9.156 1.683 12.358 4.193l11.035 8.607c2.39.93 2.769 1.987 2.869 4.193l16.772-2.207c-.455-2.766-1.17-4.057-3.531-5.738-6.458-1.207-11.945-4.001-22.952-10.372-.855-1.27-1.249-2.079-1.765-3.751v-7.283c3.006-5.563 4.672-8.719 6.4-16.772 1.184-4.79 2.919-6.846 7.945-9.269 14.876.523 25.232-.361 43.033-1.545-.199 2.74-.139 4.113 2.207 4.414 3.282 1.278 5.974 3.664 11.696 9.71 2.701.436 3.434-.122 3.31-2.648-2.015-4.159-3.539-7.387-6.4-13.462-.524-2.103.07-3.15 5.076-4.413 1.613-1.557 2.877-.707 5.517 2.648 2.413-.003 3.672.049 4.635.883 3.09 3.044 5.316 4.857 11.696 8.606l11.255 12.579c5.286 2.769 7.537 4.432 9.489 7.724 2.431 7.134 4.689 9.77 11.255 10.593.845 1.766 1.17 2.003 1.324 4.634l17.434-2.648c-.593-6.92-3.656-8.4-12.137-8.386-7.09-5.973-10.74-9.985-16.772-18.096-.74-3.548-6.556-12.85-13.903-24.937-1.355-2.113-1.938-1.954-2.649.883-2.761-.889-3.452-.714-2.207 1.544 2.783 1.864 4.202 3.107 5.959 6.4.91 1.299.559 1.677-1.986 1.545-.82-.78-1.307-1.181-1.766-2.428-.708-.559-.993-.544-1.324 0-.057 1.949-.298 2.314-.883 2.428-4.356-3.132-6.071-4.87-7.282-7.945 14.432-8.016 25.264-13.585 27.365-16.772l4.855-1.765c.506 4.512.529 6.95.441 11.255-2.641 5.57-2.417 7.714 0 10.372-.437 1.18-1.482 1.899-5.296 3.31-.437 5.294-.908 8.147 0 14.124l3.089-.883c4.029-1.033 5.882-2.972 8.607-8.386.714-3.287 1.585-4.975 4.634-7.503-3.986-13.433-4.369-18.35-1.544-22.289.418-2.577.429-4.083 0-6.841-1.489-2.01-2.353-3.115-4.193-4.855-11.045 1.575-16.858 2.264-24.717 2.206.065-7.901-.571-10.699-1.986-15.006 2.629-.45 2.308-1.102 0-2.648l3.31-.221c1.719-3.282 2.626-5.55 4.634-6.62 2.772 4.228.035 6.884-5.958 11.696-.113 1.654.041 2.542 1.103 3.972 2.164 1.146 3.131-.692 4.855-3.97v-.002c2.698-.19 3.103.316 2.428 1.986l-3.09 1.986c-.831 3.062-.299 4.078 3.09 4.193 7.017-2.283 9.991-5.35 14.344-12.579 3.244-1.923 4.774-3.262 6.18-6.841.931.649 1.599.796 3.089.662 1.566-3.022 2.705-4.675 7.062-7.283l-.662-4.193c-.943-1.903-1.192-2.836 2.207-2.648 1.129.202 1.329-.404.883-2.207l-3.531-4.413c-1.884-1.32-1.966-2.223 2.648-4.635.759-.865 1.312-1.271.883-2.869-6.113-.734-9.086-.391-14.124.662-1.931-3.781-3.874-5.025-9.49-5.075-3.175-2.995-5.384-3.013-9.71-1.545-1.922-2.325-5.049-2.844-14.565.441-3.296-1.778-5.583-1.237-10.372 2.207-3.604-.35-5.869.92-10.814 8.607h-5.296l-1.765.882c-1.627 2.994-4.033 5.01-10.373 9.049-4.088 6.049-6.451 9.8-9.489 10.592-1.936-2.995-3.476-4.386-7.283-6.179l.662-1.765c1.383-2.276 2.72-1.941 5.959 1.103 2.48.831 3.802.724 5.958-1.103.052-5.05-.557-7.383-5.958-8.165-4.774 1.341-8.241 1.132-17.213-2.649-2.19-3.006-3.035-4.789-4.635-7.944-2.378-2.237-4.994-3.94-9.268-6.842-.963-1.175-1.26-1.932-.663-3.751.393-1.053 1.095-1.477 2.428-2.207.226-.85.233-2.052 0-5.297 2.482-.78 3.224-1.896 3.31-5.075-1.017-1.786-.63-3.57.442-7.062-.167-1.615-1.547-1.718-5.297-1.104l-8.165 3.973c-3.243.01-3.837 1.103-4.855 3.09-.326 1.35-.628 2.137-1.986 3.751-2.966 2.373-4.194 4.015-5.297 7.724-1.978-3.739-3.398-5.01-6.179-6.62l-.22-1.325c-4.959-7.223-6.92-12.299-10.373-21.406v-1.765c-1.587-2.645-1.964-4.882-1.324-10.814-2.264-1.934-2.83-1.994-3.31-1.324.192 2.445.049 3.803-1.104 6.179-.807-1.356-1.237-3.025-1.986-7.503-1.456-2.362-2.173-2.351-3.31-.442-.96 2.93-1.25 4.67-1.324 7.945.3 2.642.882 4.22 4.855 7.724-1.662 4.648-2.136 9.455-2.648 19.64-4.967 1.84-5.596 3.757-4.855 7.945l4.413 10.152v6.4c.413 7.139.533 11.309 3.09 15.227-1.075.734-1.526 1.298-1.545 3.09 3.058 2.814 4.234 2.942 4.414-1.987-4.84-6.624-4.232-11.655-3.972-20.303.508-2.008.512-3.16-.442-5.296-2.096-3.553-3.19-5.486-4.414-8.386-.47-2.932.108-4.048 3.752-4.414 2.126-.494 2.595-1.264 3.09-2.868-.002-6.92.419-8.79 1.986-8.386.035 3.543.272 5.855 1.545 11.254 2.216 4.136 3.267 6.48 2.427 11.035 1.933 2.238 3.314 3.148 6.841 3.53 1.547 1.509.996 1.915.03 2.627l-.03.022c-4.49 3.749-7.247 6.275-10.813 8.386.1 1.76.52 2.458 2.869 2.427-.285-.668-.367-1.026 0-1.544l10.813-6.621c1.459 1.088 2.33 1.57 3.973 2.207l-.028.088c-1.4 4.489-2.194 7.035-3.283 10.284-2.09 1.76-2.48 2.856-2.869 4.855.458 1.163.99 1.314 2.207 1.103 2.446-4.614 4.254-7.347 8.386-11.255 3.877 3.497 5.92 5.078 9.048 6.4 1.144 1.712 1.057 2.242 0 2.649-2.165.319-3.248.576-3.972 1.765-.97.948-.746 1.479 0 2.428 1.21-.408 1.741-.294 2.648 0-3.169 6.465-4.957 10.073-10.593 12.8l2.87 5.296c1.716-.042 2.33.707 2.648 3.751.86-.563 1.712-.395 3.31 0 6.683-.869 9.514-.825 12.8 1.324-4.645 3.362-9.669 4.754-23.172 6.4-13.97 3.807-19.805 7.888-25.82 19.42v2.649c-3.38.52-4.721.851-5.738 1.544-2.73-.103-4.221-.211-5.959-1.544-2.71-1.109-4.026-1.148-6.179-.662-9.597 5.864-11.955 9.857-10.151 18.316-2.437 2.921-4.251 4.682-1.545 6.18l5.738-.663c1.728-.399 2.027-.08 1.544 1.325-1.882 1.227-2.264 2.238-3.09 3.972-.37 1.587-.567 2.482.884 5.076 1.338-.183 1.934-.071 3.09 0 .58-1.158.982-1.542 1.765-1.987 3.103 1.186 5.223 1.104 9.489 0 .302-5.397-.207-7.382-2.207-9.268.208-.779 1.68-.815 4.18-.877l.234-.006c1.236-3.225 1.352-6.042 1.324-11.476 2.51-2.776 3.829-3.226 5.958-1.324 1.45 6.663 4.24 11.855 11.697 22.951-.853 3.679-4.368 7.475-12.359 15.228-1.067 2.731-.603 4.166 2.207 5.958 5.805 6.432 8.552 10.621 9.49 16.331.87.317 1.642.941 3.972 3.531 2.527-1.452 3.662-1.596 4.634.662z" fill="#F4F4F4"/><path d="M67.75 204.193c-1.984.401-2.812.984-3.972 2.428h3.972c1.452-.948 1.537-1.481 0-2.428zm25.379-1.765c-1.017 1.321-1.851 1.921-3.973 2.648h4.635c1.54-1.11 1.252-1.785-.662-2.648zm-39.282-28.247c-6.094 3.062-8.261 5.078-10.593 9.048-.783-.967-1.088-1.976-1.324-4.855 5.001-2.24 7.43-3.978 11.255-7.724 1.278.985 1.292 1.81.662 3.531zm.883-8.386v-1.324c.976.807 1.597 1.59 2.869 3.751-.02 2.38-.204 3.176-.662 4.193-.396-2.901-.721-4.456-2.207-6.62zm12.579 12.798c-.604-.927-.942-1.271-1.545 0-.648 5.216-.205 7.459 2.648 9.71.575.047.877-.004 1.324-.442-2.313-3.829-2.516-5.807-2.427-9.268zm-7.945-22.73c-3.619-1.481-5.324-2.541-7.724-4.855 3.279 1.107 5.244 1.699 9.269 2.648 2.058.694 3.044 1.195 4.634 2.207.123-5.959-1.762-8.383-7.282-11.697-8.619-3.617-8.978-4.888-10.373-7.282 7.324 1.928 10.824 3.031 15.007 5.076.27-1.121.24-1.748 0-2.869-1.266-4.228-2.595-5.797-5.297-8.166l3.31 1.987c4.582.886 6.392 3.067 8.166 10.151.189 3.15.801 4.836 2.648 7.724 1.352-1.549 1.976-2.78 2.87-5.517.288-2.329.228-3.7 0-6.179-2.73-4.793-3.679-7.601-5.518-12.579 3.63 4.298 5.664 6.7 9.048 9.931v5.075c-1.204 1.658-1.355 2.572-1.324 4.193.703 3.274.763 4.723.662 7.062-2.845 3.718-4.106 6.405-4.855 13.903-.916 1.55-1.399 1.874-2.207 1.545-1.192-4.963-1.103-9.273-1.545-8.827-1.355 3.03-2.128 4.939-3.31 5.296-1.15-3.775-2.623-5.677-6.179-8.827zm51.861-12.138c5.361-3.895 7.698-7.372 11.696-13.903.644 7.812-2.072 10.788-11.696 13.903zm29.571-44.799l-4.634-3.31c6.396-.64 7.188 1.723 8.592 5.914l.015.044-3.973-2.648zm69.516 88.274c-3.185.917-4.206 1.449-5.076 3.089l6.621-.883c-.244-1.342-.552-1.863-1.545-2.206zm-37.296-31.558c-.531-2.31-1.654-3.924-3.751-6.841 2.957 2.01 4.656 3.032 7.944 4.193 3.212 2.779 5.003 4.336 5.959 6.841v3.09c4.046 4.398 9.508 10.619 16.772 18.096 1.12 1.034 1.916 1.389 3.531 1.765 1.81.422 2.824.478 4.634 0-.057.789-.308 1.119-1.103 1.545h-6.18c-3.234-2.385-4.748-2.606-7.061-1.545-1.254-7.224-6.191-11.737-15.669-19.861l-.441-2.428c-1.352-1.659-2.067-2.567-4.635-4.855zm-15.448-35.528c.366-4.433-1.492-6.992-7.944-11.697 3.999.474 6.252.758 12.579 5.297.635.792 2.431-5.204 2.648-12.138 1.879 5.022 2.465 7.87 2.207 13.021l-5.738.441c-1.281 1.074-1.535 1.629 0 2.427h6.179c1.334-.963 2.304-1.438 5.076-1.986 10.068-.712 15.14-1.167 19.42-2.427 2.149-1.466 3.265-1.776 5.076-1.324 1.911 1.901 2.433 3.269 3.31 5.737-.008 1.465-.186 2.458-.883 4.635-.389 7.318-1.184 10.971.442 19.861-1.871 1.892-2.42 1.828-2.648 0 .526-.439.658-.721.441-1.324-2.829-3.158-2.411-4.467-.883-6.62.588-11.08-.132-14.715-3.751-15.448-9.449.521-13.358 2.093-19.421 5.738-4.036 3.414-6.361 5.415-8.827 6.62-2.581.612-4.091 1.105-5.959 0-1.77-3.534-2.76-5.472-4.413-7.503h-2.428a129.93 129.93 0 0 0-4.855-3.31c-.793-1.54-.819-2.21-.662-3.311 5.935.654 8.802 1.201 11.034 3.311zm-33.985-33.767c-.384 1.2-.437 1.837 0 2.87 4.38-.7 6.771-1.184 10.152-3.311 5.839 1.205 8.626 1.8 12.358 2.648 1.138-1.202 2.448-1.63 5.296-2.207.303-.559-2.167-.71-8.165-.882l-2.427-1.325h-1.987c-1.017-.829-1.488-1.316-2.206-2.206-1.997-.4-2.688-1.009-3.311-2.648h9.048c.907-.745.866-1.092-.441-1.545-1.481-.512-2.069-1.26-3.09-2.648.254-.708.495-.929 1.545-.221 1.317.323 2.353.142 4.414-.442l4.855 2.649c.412.12.645.13 1.103-1.545 1.403-5.965 2.759-8.242 6.18-10.152.399-.876.669-1.394 1.324-2.427.368-.469.615-.424 1.103 0-.151 1.913-.062 2.469.221 3.09l-1.986 2.648c-.28 1.303-.051 1.657.662 1.986 1.185-2.226 2.169-3.204 5.075-3.972.18-.972 1.197-2.466 5.297-7.504.739-.569.841.212.662 2.87l-2.207 3.75c-.394 1.518-.022 1.997 1.324 2.428.55-2.282 1.572-3.524 7.724-5.517 1.223-.664 1.91-1.037 3.531-3.53 1.306-.021 1.19.986-2.207 6.62-.588 1.272-.429 1.592.883 1.324 6.779-2.197 10.156-3.388 11.696-5.076 1.601.79 1.659 1.652-.221 4.193l-5.737 3.09c-.616 1.22-.468 1.593.22 1.986 6.055-2.514 9.356-3.564 14.345-1.986.74.436-.789 1.247-7.283 3.751-1.441.788-1.881 1.375-2.648 2.428l.441 1.545c-.572.962-1.025 1.417-2.206 1.986-.497.998-.558 1.535 0 2.428l2.206-2.428.662.883c-.845 2.437-.734 3.845.221 6.4l-.883 1.765c-.048.798.227.898.883.883 1.208-.577 1.885-1.115 3.09-2.648.425-2.608.709-3.722 1.324-4.855.368-.276.625-.21 1.103 0-.078 1.7.314 2.882 1.766 5.296.159 1.494.036 2.296-1.324 3.53-.48-.299-.728-.671-1.104-1.985-.517-.337-.807-.471-1.324 0-.285.775-.407 1.21 0 1.986l-4.414 4.634c-.732 1.828-.084 1.95 1.545 1.766l4.193-2.649c.436-.446.557-.804.662-1.544 3.369-1.812 5.074-3.78 7.724-9.27-1.598-1.346-2.246-2.284-3.089-4.192-.319-2.41-.178-3.763.22-6.18l1.104-4.192c.574-.524.977-.446 1.765 0-.531 2.469-1.129 3.684-.441 6.841 1.468 1.222 2.289 2.354 3.751 4.855.447.533.648.574.883 0 .121-1.104-.418-2.144-1.986-4.414-.27-.86-.282-1.347 0-2.206.862-.566 1.345-.525 2.207 0 .597 2.66 1.112 3.748 2.207 5.296.545.237.67.002.441-1.324l-1.103-4.635c.174-.564.375-.84 1.324-1.103h1.765c.282-.328.368-.56 0-1.324l-5.076-5.076c.566-1.187 1.105-1.833 3.311-2.869.175-.756-.002-1-.883-1.103-2.17.523-3.584 1.091-6.179 2.207-1.533.695-2.446.892-4.414 0-1.022-2.388-1.747-3.61-3.972-5.076-1.705.262-2.713.274-4.634 0-3.13-3.267-4.318-2.856-6.18-1.103h-1.544c-3.074-1.873-4.906-3.21-6.4-.883h-1.986c-2.047-.89-2.969-.408-4.414 1.324h-1.545c-4.156-2.554-6.044-1.909-8.827 1.986h-4.193c-7.469 6.132-10.514 9.61-13.462 8.607l-2.428 2.427c-2.88 4.523-4.98 6.112-9.93 6.62a25.873 25.873 0 0 1 0 2.87c-2.6 2.06-3.865 3.344-5.959 5.737zM112.108 96.5c-2.331 2.84-3.095 4.515 0 8.165.604-.18 1.008-.379 1.986-1.104.454.732.869.938 1.765 1.104 1.485-1.066 2.442-1.504 4.414-1.986 3.296 1.94 4.726 3.083 5.958 5.296.108.307-1.672.671-7.061 1.545 2.326 2.248 4.306 4.928 7.944 9.931 7.37 6.036 9.184 9.071 8.165 13.903l11.476 5.296 1.986 4.414c1.524 1.525 2.054 1.199 2.648-.662-1.385-3.544-1.73-5.218-1.986-7.945l-4.855-7.282c-.493-1.314-.72-2.081-.662-3.752-1.074-.341-1.7-.579-3.089-1.545l-5.518-8.606c-2.542-3.972-4.777-4.074-9.71-1.766 1.456-2.596 2.675-3.827 5.738-5.517-.747-2.729-3.197-4.581-7.944-7.945-1.794-1.723-2.399-2.787-2.649-4.855-.603-.455-.941-.572-1.544 0-2.376 2.02-3.93 2.73-7.062 3.31zM54.509 41.329c-1.086.593-1.446.514-1.986 0-4.023-11.249-5.3-16.546-5.517-23.834.523-1.394.966-1.353 1.986 0l2.648 5.738c1.036 7.567 2.334 10.897 5.738 15.447-1.235.972-1.865 1.573-2.87 2.649zm0 4.413c-.254.648-.31 1.024 0 1.766 2.78-3.207 4.879-4.22 9.269-5.076-.806-1.003-1.415-1.442-3.09-1.766-2.708 1.916-4.136 3.01-6.18 5.076zm7.503.221h2.428c.673-1.615.914-1.555 1.324-1.324.89 2.28 2.26 3.534 6.62 5.737 6.385 3.622 8.805 5.504 11.255 8.607.877.369 1.2.28 1.324-.662-.384-.943-.826-1.347-1.765-1.986l-.22-1.766c-1.17-1.758-3.141-3.04-7.504-5.517 0-1.52.319-2.032 1.986-1.765l2.869 3.53c1.12.412 1.841.513 3.31.442 3.279 3.996 5.552 6.26 11.255 10.372 1.5 3.464 2.402 5.434.22 7.283l-3.75.22-4.856-2.206-3.31-.22c-4.08-1.942-6.351-2.962-10.372-4.635-1.387.081-1.724.246-1.104.883 3.612 1.63 5.593 2.545 6.4 4.192h-2.648l-6.62-3.751c-.597-.845-.615-1.207.22-1.545 1.368-.155 1.035-.996.22-2.648v-5.076c-.114-.823-.279-1.266-.882-1.986-.638-.363-.971-.312-1.545 0-.378.474-.507.826-.441 1.765-.44.657-.89.701-1.766.663-1.13-.875-1.674-1.445-2.427-2.649.308-.61.553-.89 1.324-1.103.31-.802.11-1.079-.883-1.324l-2.427 1.103c-1.338-.083-1.55-.468-1.324-1.545.938-1.477 1.59-2.173 3.09-3.09zm26.041 33.102c-3.53 2.227-4.896 2.906-5.517 2.428.63-3.18 1.498-4.801 5.076-7.062l10.151-3.31c1.022-1.541 1.717-1.497 3.09-.442 2.246 2.758 3.656 4.151 6.62 6.18l3.972 4.634c.336.6.532 1.018.883 1.765 1.393.663 2.173 1.076 3.531 2.649 2.574 1.86 3.276 2.715 2.648 3.751l-2.648 2.207c-.65.827-1.601 1.04-3.531 1.324-2.561 3.7-3.617 4.973-4.855 5.959-1.851.317-2.807-.097-4.414-1.545l-1.324-1.324c-.437.53-.512.954 0 2.207 1.367 1.576 1.82 2.439 1.987 3.972-1.602-.41-2.406-.553-4.635-1.545-.94-.506-1.223-.918-1.324-1.765 1.795-3.098 2.622-4.01 3.972-5.076 2.181.425 3.587-.72 6.4-5.076 3.791-2.19 4.524-3.273 3.09-4.855-.949 1.158-1.79 1.582-3.752 1.986-2.636.248-3.555.75-3.31 2.87-4.29.802-5.557 1.831-5.959 4.634l-2.648 3.09-6.841 1.323c-1.945.26-2.822.178-3.531-.882-.1-.525 1.887-.861 8.607-1.545 3.14-4.564 4.494-7.266 9.268-11.255l-.441-1.766c-2.622 2.26-4.524 3.23-8.386 4.635l-1.986 3.53c-2.898.912-4.681 1.078-8.165.663-2.215-1.129-2.972-1.762-3.31-2.87 3.463-2.065 5.388-3.271 7.944-7.944.314-.903.407-1.366-.662-1.545z" fill="#FCFCFC"/><path fill="#F4F4F4" d="M110.342 230.394h3.972v29.13h-3.972z"/><path fill="#F4F4F4" d="M98.594 233.414l3.416-2.026 11.692 19.71-3.416 2.026z"/><path fill="#F4F4F4" d="M131.919 239.572l1.831 3.525-20.336 10.566-1.831-3.525z"/><path fill="#F4F4F4" d="M89.882 241.937l2.007-3.428 19.775 11.584-2.008 3.427zm34.019-11.543l3.309 2.197-12.676 19.092-3.31-2.197z"/><path fill="#F4F4F4" d="M90.039 254.228l.017-3.972 45.48.192-.016 3.972z"/><circle cx="84.963" cy="252.243" r="5.958" fill="#F4F4F4"/><circle cx="88.494" cy="238.12" r="5.958" fill="#F4F4F4"/><circle cx="98.646" cy="227.968" r="5.958" fill="#F4F4F4"/><circle cx="112.328" cy="224.878" r="5.958" fill="#F4F4F4"/><circle cx="127.335" cy="228.851" r="5.958" fill="#F4F4F4"/><circle cx="136.603" cy="238.56" r="5.958" fill="#F4F4F4"/><circle cx="139.252" cy="252.243" r="5.958" fill="#F4F4F4"/></svg>