<svg width="128" height="28" viewBox="0 0 128 28" fill="none" xmlns="http://www.w3.org/2000/svg"><path d="M36.398 21.817V7.539h5.326c1.19 0 2.267.17 3.117.567.85.396 1.53.963 1.983 1.7.453.736.68 1.586.68 2.662 0 1.02-.227 1.87-.68 2.607-.454.736-1.133 1.303-1.983 1.7-.85.396-1.927.566-3.117.566h-4.532l.68-.737v5.213h-1.474zm1.53-5.1l-.68-.736h4.476c1.417 0 2.493-.283 3.23-.906.736-.624 1.133-1.473 1.133-2.607 0-1.133-.397-2.04-1.133-2.663-.737-.623-1.813-.963-3.23-.963h-4.476l.68-.736v8.612zm17.168 5.213c-1.02 0-1.984-.227-2.777-.68a5.235 5.235 0 0 1-1.926-1.927c-.453-.85-.737-1.756-.737-2.833 0-1.076.227-2.04.737-2.833.51-.793 1.133-1.473 1.926-1.926.793-.454 1.757-.68 2.776-.68 1.077 0 1.983.226 2.833.68.85.453 1.474 1.133 1.927 1.926.453.793.68 1.757.68 2.833 0 1.077-.227 1.983-.68 2.833-.453.85-1.133 1.473-1.927 1.926-.793.454-1.756.68-2.832.68zm0-1.304c.793 0 1.473-.17 2.04-.51.622-.34 1.076-.85 1.416-1.473.34-.623.51-1.36.51-2.21 0-.85-.17-1.586-.51-2.21-.34-.623-.794-1.133-1.417-1.473a4.192 4.192 0 0 0-2.04-.51c-.736 0-1.416.17-2.04.51-.623.34-1.076.85-1.416 1.474-.34.623-.51 1.36-.51 2.21 0 .85.17 1.586.51 2.209.34.623.85 1.133 1.417 1.473a4.19 4.19 0 0 0 2.04.51zm8.444 1.188V11.105h1.359v2.89l-.17-.51a3.542 3.542 0 0 1 1.53-1.87c.68-.453 1.586-.623 2.606-.623v1.417h-.34c-1.133 0-2.04.34-2.663 1.02-.623.68-.963 1.643-.963 2.946v5.439h-1.36zm6.515-9.459v-1.247h6.629v1.19h-6.63v.057zm5.042 9.575c-1.02 0-1.756-.283-2.323-.793-.566-.51-.793-1.303-.793-2.323V8.785h1.473v9.972c0 .623.17 1.133.454 1.473.34.34.793.51 1.36.51.623 0 1.19-.17 1.586-.566l.51 1.02c-.284.283-.624.453-1.02.566-.397.113-.793.17-1.247.17zm5.212-.113V7.539h5.326c1.19 0 2.266.17 3.116.567.85.396 1.53.963 1.983 1.7.453.736.68 1.586.68 2.662 0 1.02-.227 1.87-.68 2.607-.453.736-1.133 1.303-1.983 1.7-.85.396-1.927.566-3.117.566h-4.532l.68-.737v5.213h-1.473zm1.53-5.1l-.68-.736h4.475c1.417 0 2.493-.283 3.23-.906.737-.624 1.133-1.473 1.133-2.607 0-1.133-.396-2.04-1.133-2.663-.737-.623-1.813-.963-3.23-.963H81.16l.68-.736v8.612zm12.804 5.098V6.687h1.473v15.128h-1.473zm8.501.115c-.793 0-1.473-.114-2.097-.397-.566-.284-1.019-.624-1.36-1.077-.34-.453-.453-1.02-.453-1.643 0-.566.114-1.076.397-1.53.283-.453.68-.85 1.303-1.076.623-.284 1.417-.397 2.436-.397h3.683v1.077h-3.626c-1.02 0-1.756.17-2.153.566-.397.34-.623.85-.623 1.36 0 .623.226 1.077.736 1.473.51.397 1.134.567 1.983.567.794 0 1.53-.17 2.097-.567.566-.396 1.02-.906 1.303-1.643l.34.963a3.708 3.708 0 0 1-1.417 1.7c-.679.397-1.529.623-2.549.623zm3.683-.114v-2.38l-.057-.396v-3.966c0-.907-.227-1.587-.737-2.097s-1.246-.736-2.266-.736c-.68 0-1.36.113-1.983.34-.623.226-1.133.51-1.586.906l-.68-1.076c.566-.454 1.19-.794 1.983-1.077.736-.226 1.586-.396 2.379-.396 1.36 0 2.437.34 3.23 1.02.736.68 1.133 1.756 1.133 3.116v6.629h-1.416v.113zm6.06-13.03c-.283 0-.567-.114-.737-.283-.226-.227-.283-.454-.283-.737s.114-.51.283-.737c.227-.17.454-.283.737-.283s.567.113.737.283c.226.17.283.454.283.737s-.113.567-.283.737c-.17.17-.397.283-.737.283zm-.737 13.031V11.11h1.474v10.708h-1.474zm9.746.112c-1.02 0-1.926-.227-2.719-.68-.794-.453-1.417-1.077-1.927-1.927-.453-.85-.68-1.756-.68-2.833 0-1.076.227-2.04.68-2.833.453-.793 1.077-1.473 1.927-1.926.793-.453 1.699-.68 2.719-.68a5.08 5.08 0 0 1 2.493.623 4.033 4.033 0 0 1 1.757 1.87c.453.793.68 1.813.68 2.946 0 1.134-.227 2.153-.68 2.947-.454.793-1.02 1.416-1.757 1.87-.68.396-1.53.623-2.493.623zm.114-1.303c.736 0 1.416-.17 2.039-.51.623-.34 1.077-.85 1.417-1.474.34-.623.51-1.36.51-2.21 0-.85-.17-1.586-.51-2.209a3.935 3.935 0 0 0-1.417-1.473 4.188 4.188 0 0 0-2.039-.51 4.19 4.19 0 0 0-2.04.51c-.623.34-1.077.85-1.417 1.473-.34.623-.51 1.36-.51 2.21 0 .85.17 1.586.51 2.21.34.623.85 1.133 1.417 1.473a4.19 4.19 0 0 0 2.04.51zm4.022 1.19v-3.23l.17-2.153-.226-2.153V6.688h1.473v15.127h-1.417z" fill="#000"/><path d="M8.139 16.321H3.606V26.35H1V1.023h6.12c4.475 0 7.478 1.87 7.478 7.423v2.946m-7.762 2.323c3.513 0 5.212-1.643 5.212-5.213 0-3.626-1.7-4.816-5.212-4.816h-3.23v10.029h3.23z" stroke="#000" stroke-width=".75" stroke-miterlimit="10"/><path d="M14.371 11.45h4.42V1.31h2.606v25.666h-6.12c-4.475 0-7.478-1.926-7.478-7.536 0-1.303.056-2.21.056-3.172m7.763-2.154c-3.513 0-5.213 1.644-5.213 5.27 0 3.683 1.7 4.872 5.213 4.872h3.173V14.113h-3.173z" stroke="#000" stroke-width=".75" stroke-miterlimit="10"/></svg>