<svg width="410" height="382" viewBox="0 0 410 382" fill="none" xmlns="http://www.w3.org/2000/svg"><path d="M259.224 199.272l-3.941-3.94-50.38 50.381-46.441-46.441 46.441-46.44 50.38 50.381 3.941-3.941-3.941-3.94 3.941 3.94 3.94-3.94-58.261-58.543-62.203 62.483 62.203 62.202 62.483-62.202-4.222-3.94-3.94 3.94z" fill="#E40421"/><path d="M231.639 118.212l-3.941-4.222-22.798 22.798-18.858-18.576L204.9 99.354l22.798 22.798 3.941-3.94-3.941-4.222 3.941 4.222 4.221-4.222-30.96-30.679-34.619 34.901 34.619 34.619 34.901-34.619-3.941-4.222-4.221 4.222zm81.341 81.06l-4.222-3.941-22.798 22.798-18.576-18.857 18.576-18.858 22.798 22.798 4.222-3.94-4.222-3.941 4.222 3.941 3.94-3.941-30.96-30.96-34.619 34.901 34.619 34.619 34.901-34.619-3.941-3.941-3.94 3.941zm-81.341 81.06l-3.941-3.941-22.798 22.798-18.858-18.857 18.858-18.858 22.798 22.798 3.941-3.94-3.941-3.941 3.941 3.941 4.221-3.941-30.96-30.679-34.619 34.62 34.619 34.619 34.901-34.619-3.941-3.941-4.221 3.941zm-81.057-81.06l-3.94-3.941-22.798 22.798-18.858-18.857 18.858-18.858 22.798 22.798 3.94-3.94-3.94-3.941 3.94 3.941 3.94-3.941-30.678-30.96-34.62 34.901 34.62 34.619 34.619-34.619-3.941-3.941-3.94 3.941z" fill="#FCBF00"/><path d="M301.325 25.303l-11.543 11.543 11.543 11.543 11.543-11.543-11.543-11.543zm3.611 73.793l-11.541 11.545 11.544 11.542 11.542-11.545-11.545-11.542zM137.171 68.664l-11.545 11.542 11.541 11.544 11.545-11.541-11.541-11.545zm-56.63 195.567l-11.543 11.543 11.543 11.543 11.543-11.543-11.543-11.543zm11.412-133.309l-11.545 11.541 11.542 11.545 11.544-11.542-11.541-11.544zm47.977 147.606l-11.544 11.542 11.541 11.544 11.545-11.541-11.542-11.545zm124.839 21.503l-11.543 11.543 11.543 11.543 11.543-11.543-11.543-11.543zm76.383-49.276l-11.541 11.544 11.545 11.542 11.541-11.545-11.545-11.541z" fill="#E40421"/></svg>