<svg width="112" height="52" viewBox="0 0 112 52" fill="none" xmlns="http://www.w3.org/2000/svg"><path d="M111.429 7.429H37.143V0H26v7.429h-3.714V0H7.429v7.429H0V44.57h5.571V52h11.143v-7.429h78V52h11.143v-7.429h5.572V7.43zM29.714 3.714h3.715V7.43h-3.715V3.714zm-18.571 0h7.428V7.43h-7.428V3.714zM13 48.286H9.286V44.57H13v3.715zm89.143 0h-3.714V44.57h3.714v3.715zm5.571-7.429h-104V11.143h104v29.714z" fill="#3C3C3B"/><path d="M26 37.143h14.857V14.857H26v22.286zm3.714-3.714v-5.572h7.429v5.572h-7.429zm7.429-14.858v5.572h-7.429V18.57h7.429zm22.286-3.714H44.57v22.286h14.86V14.857zm-3.715 3.715v5.57h-7.428v-5.57h7.428zm-7.428 14.857v-5.572h7.428v5.572h-7.428zm37.143-18.572H70.57v22.286h14.86V14.857zm-3.715 3.715v5.57h-7.428v-5.57h7.428zm-7.428 14.857v-5.572h7.428v5.572h-7.428z" fill="#3C3C3B"/><path d="M104 14.857H89.143v22.286H104V14.857zm-3.714 3.715v5.57h-7.429v-5.57h7.429zm-7.429 14.857v-5.572h7.429v5.572h-7.429z" fill="#E40421"/><path d="M66.857 18.572h-3.714v3.714h3.714V18.57zm0 11.142h-3.714v3.715h3.714v-3.715z" fill="#3C3C3B"/><path d="M18.571 16.714H7.43v3.715h11.14v-3.715zm0 9.286H7.43v3.714h11.14V26z" fill="#E40421"/></svg>