<svg width="170" height="53" viewBox="0 0 170 53" fill="none" xmlns="http://www.w3.org/2000/svg"><path d="M25.795 51.308c-13.609 0-24.576-11.072-24.576-24.808 0-13.737 10.967-24.809 24.576-24.809 9.546 0 18.28 5.74 22.138 14.147h1.422C45.293 6.612 35.95.461 25.795.461 11.577.46 0 12.148 0 26.5c0 14.352 11.577 26.038 25.795 26.038 10.358 0 19.701-6.356 23.763-15.992h-1.422c-3.859 9.021-12.592 14.762-22.341 14.762zm24.17-28.704v-5.741h-7.516v5.741h-6.093v3.28c-.61.41-.812 1.026-1.015 1.64 0 .206-.203.41-.203.82 0-1.434.203-2.87.203-4.51v-.41c0-4.51-.407-4.92-1.219-5.126-.406-.205-1.016 0-1.422 1.026-1.015 2.46-1.828 4.715-2.64 6.56v-1.23c0-1.025 0-2.46-.203-3.075-.203-1.025-1.016-1.435-1.422-1.435-1.015-.205-2.234 1.64-3.656 4.1-1.219 2.05-2.437 3.486-2.843 3.69v-.41c0-.41 0-1.23.203-2.665.609-4.92 2.03-8.2 2.843-9.636.203-.41.813-1.435 1.016-1.845l-1.422-1.025s-.813 1.025-1.219 2.05c-2.437 4.1-4.265 8.406-5.484 11.481.203-2.05.61-4.1 1.016-5.33v-.41c.203-.615 0-1.23-.203-1.23-.406-.206-1.422 0-3.453 2.87-.61 1.025-2.031 3.075-2.844 5.536 0 0-.609 2.05-.812 2.255 0-.615 0-.82-.203-1.025-.203-.41-.406-1.025-4.671-.82v-1.025c0-10.457 8.53-19.068 18.889-19.068 6.296 0 12.186 3.28 15.842 8.611h1.422C39.2 10.302 32.7 6.407 25.59 6.407c-11.17 0-20.107 9.021-20.107 20.298 0 11.276 8.937 20.297 20.108 20.297 7.311 0 13.81-3.895 17.467-10.251h-1.422c-3.453 5.536-9.343 9.021-16.046 9.021-9.546 0-17.264-6.97-18.685-16.197h2.843v1.845c0 1.846.203 2.46.61 2.87.406.206.609.206 1.015 0 .61-.41 1.015-1.434 1.828-3.895l1.015-2.46c.61-1.64 1.422-3.28 2.235-4.306-.203.82-.203 1.435-.407 2.255v3.486c0 1.845.407 1.845.813 2.05.203 0 .61.41 1.218-.41v-.41s.813-2.665 2.235-6.15v.204c-.203 1.23-.203 2.05-.203 2.87 0 .82.203 1.23.406 1.64.406.411.812.616 1.219.616 1.624.205 3.858-3.075 4.67-4.51.61-1.026 1.22-2.05 1.423-1.846.406.205.406.615.406 1.435-.203 3.896-1.219 6.356-1.828 8.201-.61 1.23-1.219 2.87-1.219 3.076 0 0 2.438-1.025 4.266-4.1 1.218-2.05 1.828-3.486 4.265-9.432v1.23c0 2.46-.203 5.33-.406 6.971v.615c0 .82.406 1.025.812 1.23 1.219.41 2.031-1.64 2.437-2.665 0-.205 0-.205.203-.41v.82h6.094v5.74h7.515v-5.74h6.093V23.22h-6.5v-.615zm11.373.615c.203-.205.61-.205 1.016-.205h.61l.202-.205c0-.205.204-.82.204-1.846 0-1.435.203-3.075.203-5.33.203-1.64.203-2.666.203-3.28v-.41c-.407 0-1.219-.206-2.235-.206v-.41h3.454s0 .205.203.205l.407.82 2.64 5.946 1.219 2.46c.812-1.64 1.625-3.28 2.03-4.51 0 0 0-.205.204-.205 0-.205.203-.205.203-.41s.203-.615.61-1.435c.202-.41.202-.616.405-.82.407-1.026.61-1.64.61-1.64.203 0 .203-.206.406-.206h3.25v.41c-.203.205-.406.205-.813.205-.609 0-.812 0-1.015.205-.203 0-.203.205-.203.205V22.81s.203.205.406.205c.406.205.812.205 1.625.41v.41h-5.485v-.41c.203 0 .406-.205.812-.205.406-.205.61-.205.813-.41v-9.433c-.203.205-.407.615-.61 1.436h-.203l-1.421 3.28-.407 1.23-.609 1.64c-.203.616-.61 1.436-.812 1.846 0 .205-.204.41-.204.615h-.203c-.609-2.05-1.624-4.306-2.437-6.356-1.016-2.255-1.625-3.69-2.031-4.306 0 .205-.203 1.025-.203 2.46 0 1.64-.203 3.281-.203 5.331 0 .616 0 1.23.203 2.05 0 .206.203.41.203.41.203.206.61.206 1.219.206h.609v.41h-4.875v-.41zm23.359-4.716h-5.281c-.203.205-.203.41-.203.41v.41c0 .41.203.82.406 1.436.204.615.61 1.025 1.016 1.23.406.205 1.015.41 1.625.41.406 0 .61 0 .812-.205.203 0 .61-.205.813-.41l.609-.615v.615c-.203.41-.61.615-1.016 1.025l-1.218.615h-1.016c-.406 0-.812 0-1.218-.205-.61-.205-1.219-.82-1.422-1.435-.406-.615-.61-1.436-.61-2.256 0-.205 0-.615.204-1.025 0-.41.203-.82.609-1.435a2.81 2.81 0 0 1 .61-.82c.406-.205.609-.615 1.015-.615.406-.205.812-.205 1.422-.205.609 0 1.015.205 1.421.41.407.205.813.615 1.016 1.025.203.82.406 1.23.406 1.64zm-5.28-.205h.406c.406 0 1.218 0 2.843-.205h.406c.203-.205.203-.41.203-.41 0-.205 0-.41-.203-.615l-.61-.615c-.202-.205-.608-.205-.812-.205-.812 0-1.218.205-1.828.82-.203.41-.406.82-.406 1.23zm14.623 7.176s-.204 0 0 0h-.204s-.203-.205-.203-.41a2.879 2.879 0 0 0-.812-1.435c-.406 0-.813-.205-1.625-.205h-4.672c-.203 0-.203.205-.406.41s-.203.615-.406.82c0 .205-.203.41-.203.41h-.406v-2.255h.406c.203 0 .406-.205.61-.615l.405-.82c1.016-2.05 1.625-3.896 2.235-5.126l.609-.82h.203c.406.82 1.016 2.255 1.828 4.305.812 1.846 1.422 2.87 1.625 3.076.203.205.406.205.61.205.202 0 .202.205.405.205v2.255c0-.205 0-.205 0 0zm-4.672-8.201l-.406.82c-1.219 2.87-1.828 4.51-1.828 4.716 0 .205 0 .205.203.205h3.859c.203 0 .203 0 .203-.205v-.205l-.406-1.23c-.203-.82-.61-1.436-.813-2.05l-.812-2.051zm7.921 4.101l4.062-4.306c0-.205 0-.41-.203-.615 0 0-.203-.205-.609-.205-.204 0-.407-.205-.61-.205v-.41h4.469c0 .205-.204.205-.61.41h-.406c-.203 0-.406.205-.609.205 0 0-.203.205-.203.41v5.331c0 .205 0 .41.203.41 0 0 .406.205.609.205.203 0 .406.205.609.205v.41h-4.468v-.205c0-.205.203-.205.609-.205h.407c.406 0 .609-.205.609-.205s.203-.205.203-.615v-4.511l-4.062 4.306v.615l.812.41c.203 0 .406.205.61.205v.41h-4.469v-.205c0-.205.203-.205.61-.205h.406c.406 0 .61-.205.61-.205s.202-.41.202-.615v-4.921c0-.205 0-.41-.203-.41 0 0-.406-.205-.61-.205-.202 0-.405-.205-.609-.205v-.41h4.469v.205c0 .205-.203.205-.61.205h-.406c-.406 0-.609.205-.609.205v1.64l-.203 3.076zm17.262 4.1h-.203s-.203-.205-.203-.41c-.203-.82-.407-1.23-.813-1.435-.203-.205-2.031-.205-5.281-.205h-3.249v-.205c0-.205.203-.205.609-.205h.406c.406 0 .61-.205.61-.205s.203-.205.203-.41v-5.331c0-.205 0-.41-.203-.41 0 0-.407-.205-.61-.205s-.406-.205-.609-.205v-.41h4.468v.205c0 .205-.203.205-.609.41h-.406c-.406 0-.61.205-.61.205s-.203.205-.203.615v5.741h4.062v-5.74c0-.206 0-.411-.203-.411 0 0-.406-.205-.609-.205-.203 0-.406-.205-.609-.205v-.41h4.468v.205c0 .205-.203.205-.609.41h-.406c-.407 0-.61.205-.61.205s-.203.41-.203 1.025V22.4c0 .41 0 .615.203.615s.406.205.813.205c.203 0 .203 0 .406.205v2.05c0-.205 0 0 0 0zm3.658-4.1l4.062-4.306c0-.205 0-.41-.203-.615 0 0-.203-.205-.609-.205-.203 0-.406-.205-.61-.205v-.41h4.469c0 .205-.203.205-.61.41h-.406c-.203 0-.406.205-.609.205 0 0-.203.205-.203.41v5.331c0 .205 0 .41.203.41 0 0 .406.205.609.205.203 0 .406.205.61.205v.41h-4.469v-.205c0-.205.203-.205.61-.205h.406c.406 0 .609-.205.609-.205s.203-.205.203-.615v-4.511l-4.062 4.306v.615s.203.205.812.41c.204 0 .407.205.61.205v.41h-4.469v-.205c0-.205.204-.205.61-.205h.406c.406 0 .609-.205.609-.205s.203-.41.203-.615v-4.921c0-.205 0-.41-.203-.41 0 0-.406-.205-.609-.205-.203 0-.406-.205-.609-.205v-.41h4.468v.205c0 .205-.203.205-.609.205h-.407c-.406 0-.609.205-.609.205 0 .205-.203.615-.203 1.435v3.28zm10.359-1.845h3.859v-2.256c0-.205 0-.41-.204-.41 0 0-.406-.205-.609-.205-.203 0-.406-.205-.609-.205v-.41h4.468v.205c0 .205-.203.205-.812.41-.406 0-.61.205-.61.205v5.331c0 .205 0 .41.204.41 0 0 .406.205.609.205.203 0 .406.205.609.205v.41h-4.468v-.205c0-.205.203-.205.609-.205h.406c.407 0 .61-.205.61-.205s.203-.205.203-.615v-2.255h-4.265v2.46c0 .205 0 .41.203.615 0 0 .406.205.609.205.203 0 .406.205.609.205v.41h-4.468v-.205c0-.205.203-.205.609-.205h.406c.407 0 .61-.205.61-.205s.203-.205.203-.615v-4.716c0-.205 0-.41-.203-.615 0 0-.406-.205-.61-.205-.203 0-.406-.205-.609-.205v-.41h4.468v.205c0 .205-.203.205-.812.41-.406 0-.812.205-.812.41v2.051h-.203zm14.824 2.255v.615c-.406.615-1.015.82-1.421 1.025-.407.205-1.016.41-1.625.41-.61 0-1.422-.205-1.828-.615-.609-.41-1.016-.82-1.219-1.64-.406-.615-.406-1.436-.406-2.05 0-.616.203-1.436.609-2.05a4.78 4.78 0 0 1 1.422-1.436c.609-.41 1.422-.41 2.234-.41.813 0 1.625.205 2.031.41.203.205.407.41.407.615 0 .205 0 .41-.204.41-.203.205-.203.205-.406.205-.406 0-.609-.205-1.015-.615-.203-.205-.407-.41-.61-.41s-.406-.205-.609-.205c-.609 0-1.016.205-1.422.615-.812 1.025-1.218 1.845-1.218 2.87 0 1.026.203 1.846.812 2.46.609.616 1.219.82 1.828.82.406 0 1.016 0 1.219-.204.406 0 1.015-.41 1.421-.82zm3.453-2.256c.609 0 1.015-.205 1.421-.41.407-.205.61-.82 1.016-1.64.406-1.23 1.015-1.64 1.828-1.64.609 0 .812.205.812.82 0 .41-.203.615-.609.615-.203 0-.406-.205-.609-.41l-.203-.205c-.407 0-.61.41-1.016 1.435-.203.82-.609 1.23-1.016 1.435.407.205.61.41 1.016.616.203.205.609.82 1.016 1.64.203.615.406 1.025.609 1.435.203.205.406.41.609.41.203 0 .406 0 .406.205v.41h-2.031s-.203 0-.203-.205c0 0-.203-.41-.203-.615-.406-1.025-.609-1.64-.812-2.05-.203-.41-.407-.615-.813-.82-.203-.205-.609-.205-1.218-.205v2.255c0 .41 0 .615.203.82 0 .205.203.205.406.205s.406 0 .406.205l.203.205h-3.656v-.41s.203-.205.61-.205c.203 0 .406 0 .406-.205v-6.151c0-.41-.203-.615-.609-.615-.204 0-.407 0-.61-.205v-.205h3.453v.205s-.203 0-.406.205h-.406v3.075zm8.532 1.846l4.062-4.306c0-.205 0-.41-.203-.615 0 0-.203-.205-.609-.205-.204 0-.407-.205-.61-.205v-.41h4.469c0 .205-.204.205-.61.41h-.406c-.203 0-.406.205-.609.205 0 0-.203.205-.203.41v5.331c0 .205 0 .41.203.41 0 0 .406.205.609.205.203 0 .406.205.609.205v.41h-4.468v-.205c0-.205.203-.205.609-.205h.407c.406 0 .609-.205.609-.205s.203-.205.203-.615v-4.511l-4.062 4.306v.615l.812.41c.203 0 .407.205.61.205v.41h-4.469v-.205c0-.205.203-.205.61-.205h.406c.406 0 .609-.205.609-.205s.203-.41.203-.615v-4.921c0-.205 0-.41-.203-.41 0 0-.406-.205-.609-.205-.203 0-.406-.205-.61-.205v-.41h4.469v.205c0 .205-.203.205-.609.205h-.407c-.406 0-.609.205-.609.205 0 .205-.203.615-.203 1.435v3.28zm14.624-2.871h-5.281v.82c0 .41.203.82.406 1.436.203.615.61 1.025 1.016 1.23.406.205 1.015.41 1.625.41.406 0 .609 0 .812-.205.203 0 .609-.205.812-.41l.61-.615v.615c-.203.41-.61.615-1.016 1.025l-1.218.615h-1.016c-.406 0-.812 0-1.219-.205-.609-.205-1.218-.82-1.421-1.435-.407-.615-.61-1.435-.61-2.256 0-.205 0-.615.203-1.025 0-.41.204-.82.61-1.435l.406-.41c.406-.205.609-.615 1.016-.615.406-.205.812-.205 1.421-.205.61 0 1.016.205 1.422.41.406.205.812.615 1.016 1.025.406.41.406.82.406 1.23zm-5.078-.205h.406c.407 0 1.219 0 2.844-.205h.406c.203-.205.203-.205.203-.41s0-.41-.203-.615l-.609-.615c-.203-.205-.61-.205-.813-.205-.812 0-1.218.205-1.828.82-.203.41-.406.82-.406 1.23zM73.322 31.625c0 .205-.203.41-.61.41h-.405c-.407 0-.61.205-.61.205s-.203.205-.203.41v5.125c0 .206 0 .41.203.41 0 0 .406.206.61.206.203 0 .406.205.609.205v.41h-4.469v-.205c0-.205.203-.205.609-.41h.406c.406 0 .61-.205.61-.205s.203-.205.203-.615V31.83h-4.063v5.74c0 .206 0 .41.204.41 0 0 .406.206.609.206.203 0 .406.205.61.205v.41h-4.468v-.205c0-.205.203-.205.61-.205h.405c.406 0 .61-.205.61-.205s.203-.41.203-.615V32.65c0-.205 0-.41-.203-.41 0 0-.407-.205-.61-.205s-.406-.205-.609-.205v-.41h9.343c.203.205.203.205.406.205-.203 0 0 0 0 0zm.406 12.507c0-.205 0-.205 0 0v-.41l1.016-.206c.203 0 .203-.204.406-.204V33.88c0-.615 0-.82-.203-1.025 0 0 0-.205-.203-.205-.203-.205-.406-.205-1.016-.205v-.205a9.855 9.855 0 0 0 1.422-.615c.406-.205.406-.41.61-.615h.406v1.845c.406-.41 1.015-.615 1.422-.82.406-.205 1.015-.205 1.624-.205 1.016 0 1.828.41 2.438 1.025.609.615 1.015 1.64 1.015 2.665 0 .82-.203 1.436-.61 2.256-.405.615-.812 1.025-1.624 1.435-.61.41-1.219.41-2.031.41-.61 0-1.219-.205-2.031-.41-.203 0-.203 0-.406-.205v1.435c0 2.05 0 3.075.203 3.28 0 .206.203.206.609.206.406 0 .813.205 1.016.205 0 0 .203.205.203.41h-3.25l-1.016-.41zm2.438-10.867v4.101c0 .41.203.82.609 1.025.406.41 1.016.41 1.828.41s1.422-.205 2.031-.82c.61-.615.813-1.23.813-2.05 0-1.026-.204-1.846-.813-2.46-.61-.616-1.422-1.026-2.234-1.026-.406 0-.813 0-1.016.205-.609 0-1.015.205-1.218.615zm10.358 3.895l4.062-4.305c0-.205 0-.41-.203-.615 0 0-.203-.205-.61-.205-.202 0-.405-.205-.608-.205v-.41h4.468c0 .205-.203.205-.61.41h-.406c-.203 0-.406.205-.609.205 0 0-.203.205-.203.41v5.331c0 .205 0 .41.203.41 0 0 .406.205.61.205.202 0 .406.205.609.205v.41h-4.47v-.205c0-.205.203-.205.61-.205h.406c.406 0 .61-.205.61-.205s.202-.205.202-.615v-4.511l-4.062 4.306v.615l.813.41c.203 0 .406.205.609.205v.41h-4.468v-.205c0-.205.203-.205.609-.205h.406c.406 0 .61-.205.61-.205s.202-.41.202-.615V33.06c0-.205 0-.41-.203-.41 0 0-.406-.205-.609-.205-.203 0-.406-.205-.61-.205v-.41h4.471v.205c0 .205-.203.205-.61.205h-.406c-.406 0-.609.205-.609.205 0 .205-.203.615-.203 1.435v3.28zm8.328-3.69c.812-1.434 2.03-2.254 3.655-2.254 1.422 0 2.438.41 3.047 1.23.813.82 1.219 1.845 1.219 2.87 0 1.025-.406 2.05-1.219 2.665-.812.82-1.828 1.23-3.047 1.23-1.218 0-2.03-.41-2.843-1.23-.812-.82-1.219-2.05-1.219-3.895 0-2.05.407-3.69 1.016-5.33.61-1.436 1.625-2.256 2.843-2.256.203 0 .813 0 1.422.205.61.205.813.205 1.016.205.609 0 .812-.205 1.015-.82h.406c-.203 1.435-1.015 2.05-2.234 2.05-.203 0-.609 0-1.015-.205-.61-.205-1.016-.205-1.219-.205-.406 0-.812.205-1.218.41-.407.41-.61 1.025-1.016 1.845-.406 1.436-.61 2.46-.61 3.486zm1.015 2.051c0 1.23.203 2.05.813 2.666.406.615 1.218.82 2.03.82.813 0 1.422-.41 2.032-1.026.609-.615.812-1.435.812-2.665 0-1.025-.203-1.845-.609-2.665-.406-.82-1.219-1.025-2.031-1.025-.813 0-1.422.205-2.031.82-.813.82-1.016 1.845-1.016 3.075zm8.327-.205c0-.41 0-.82.204-1.436.203-.41.406-1.025.812-1.23.406-.41.812-.615 1.219-.82.609-.205 1.218-.41 2.031-.41 1.218 0 2.234.41 2.843 1.23.813.82 1.219 1.845 1.219 2.87 0 1.026-.406 1.846-1.219 2.666-.812.82-1.828 1.23-3.046 1.23-.813 0-1.422-.205-2.235-.615a4.768 4.768 0 0 1-1.421-1.435c-.203-.615-.407-1.23-.407-2.05zm4.266 3.69c.406 0 1.015-.205 1.421-.41.407-.205.813-.615 1.016-1.23.203-.615.406-1.23.406-2.05 0-.41 0-1.026-.203-1.64-.203-.616-.609-1.23-1.015-1.436-.407-.41-1.016-.41-1.422-.41-.406 0-.813 0-1.219.205a2.459 2.459 0 0 0-1.015 1.025 7.713 7.713 0 0 0-.407 2.46c0 1.23.204 2.05.813 2.666.203.615.812.82 1.625.82zm5.077 5.126c0-.205 0-.205 0 0v-.41l1.016-.206c.203 0 .203-.204.406-.204V32.855s0-.205-.203-.205c-.203-.205-.406-.205-1.016-.205v-.205a9.815 9.815 0 0 0 1.422-.615l.609-.615h.407v1.845c.406-.41 1.015-.615 1.421-.82.407-.205 1.016-.205 1.625-.205 1.016 0 1.828.41 2.437 1.025.61.615 1.016 1.64 1.016 2.665 0 .82-.203 1.436-.609 2.256-.407.615-.813 1.025-1.625 1.435-.609.41-1.219.41-2.031.41-.61 0-1.219-.205-2.031-.41-.203 0-.203 0-.407-.205v1.435c0 2.05 0 3.075.204 3.28 0 .206.203.206.609.206.406 0 .812.205 1.015.205 0 0 .204.205.204.41h-3.25l-1.219-.41zm2.437-10.867v4.101c0 .41.204.82.61 1.025.406.41 1.015.41 1.828.41.812 0 1.422-.205 2.031-.82.609-.615.812-1.23.812-2.05 0-1.026-.203-1.846-.812-2.46-.609-.616-1.422-1.026-2.234-1.026-.407 0-.813 0-1.016.205-.609 0-1.015.205-1.219.615zm7.312-1.435v-.205h4.469v.205c0 .205-.204.205-.61.41h-.406c-.406 0-.609.205-.609.205s-.203.205-.203.41v1.64h1.015c1.625 0 2.641.205 3.047.615.406.41.812 1.026.812 1.64 0 .616-.203 1.23-.812 1.64-.61.411-1.016.616-1.625.821-.609 0-1.625.205-3.453.205h-1.625v-.205s.203 0 .61-.205c.406 0 .812-.205.812-.205v-5.946c0-.205-.406-.205-.812-.41-.204-.41-.407-.41-.61-.615zm2.641 3.28v3.076c0 .205.203.41.406.41.203.205.609.205 1.015.205.61 0 1.219-.205 1.625-.615.406-.41.61-.82.61-1.435 0-1.23-.813-1.846-2.641-1.846-.406 0-.812 0-1.015.205zm8.733 3.691c0 .205 0 .205 0 0v.205h-4.468v-.205c0-.205.203-.205.609-.41h.406c.407 0 .61-.205.61-.205s.203-.41.203-.615v-4.92c0-.206 0-.411-.203-.411s-.406-.205-.61-.205c-.203 0-.406-.205-.609-.205v-.41h4.468v.205c0 .205-.203.205-.609.205h-.406c-.406 0-.609.205-.609.205s-.204.205-.204.41v5.125c0 .206 0 .41.204.41 0 0 .406.206.609.206.203.615.406.615.609.615z" fill="#2C5AA6"/></svg>