<svg width="134" height="79" viewBox="0 0 134 79" fill="none" xmlns="http://www.w3.org/2000/svg"><g clip-path="url(#a)" fill="#2D297D"><path d="M53.708 54.024c1.919 0 6.303 2.715 6.303 7.873 0 4.887-4.385 9.774-6.029 9.774-1.644 0-6.028-3.53-6.028-7.873-.274-5.159 3.562-9.774 5.754-9.774zm-3.836 6.244c0 2.987 2.466 7.602 6.577 7.33.274-.814.548-1.357.548-2.443 0-3.8-2.74-7.058-6.029-7.33-.548.814-1.096 1.9-1.096 2.443zM66.59 74.657c0 3.8-1.097 4.343-2.193 4.343-.274 0-.822 0-.822-.271v-4.344c0-1.086 0-1.9-.274-2.986-.274-4.344-.548-5.43-.548-7.873 0-5.43 4.385-9.502 6.303-9.502 2.466 0 6.029 5.43 6.029 10.317 0 4.343-2.193 6.787-4.659 6.787-1.644 0-3.562-1.086-4.384-2.987.274 2.444.548 4.072.548 6.516zM65.493 62.44c0 3.8 2.467 6.787 4.111 6.787.548 0 1.644-.543 1.918-2.443v-1.358c-.274-2.714-2.192-7.058-4.658-8.144-1.096 1.629-1.37 2.986-1.37 5.158zm18.635-8.416c1.918 0 6.302 2.715 6.302 7.873 0 4.887-4.384 9.774-6.028 9.774-1.645 0-6.029-3.53-6.029-7.873-.274-5.159 3.836-9.774 5.755-9.774zm-3.563 6.244c0 2.987 2.466 7.602 6.577 7.33.274-.814.548-1.357.548-2.443 0-3.8-2.74-7.058-6.029-7.33-.548.814-1.096 1.9-1.096 2.443zm18.907 10.317c-.548 0-3.288 0-3.288 2.443 0 .814.548 2.715.822 3.53l-1.644.27c-1.37-3.257-3.562-5.7-3.562-6.786 0-.272.274-.543.822-.815h.548c1.644 0 2.192-.814 2.74-2.443.822-1.629 2.74-7.33 2.74-9.502 0-1.357-.548-1.629-.548-2.172 0-.271.548-.271.822-.271h4.385c1.096 0 0 0 1.644 5.43.274.542 2.466 8.415 3.562 8.687h.822c.548 0 1.097.271 1.097.814 0 1.086-1.919 2.986-3.563 6.787l-1.644-.271c.274-.815.822-2.444.822-3.53 0-2.443-2.74-2.443-3.836-2.443h-2.74v.272zm4.385-1.086c-2.192-3.53-3.014-8.688-3.288-11.402h-.549c-.548 2.714-2.192 8.687-3.562 11.402h7.399z"/><path d="M55.628 34.478c-5.48 0-1.37.814-7.673.814h-18.36V24.705c0-1.63.274-3.53-2.466-3.801H25.21c-4.659 0-7.673-1.358-11.235-4.072l2.466-2.715c1.644 1.086 3.288 1.629 4.932 1.629 6.303 0 8.221-4.072 8.221-7.33 0-3.8-3.288-8.416-10.961-8.416C6.029 0 4.384 8.144 4.384 18.46v16.832H0v2.172h32.335V69.77h-4.384v2.172h16.99V69.77h-4.385V37.464h3.015c3.014 0 5.754-.272 7.946 4.615.822 2.172.822 4.344 2.467 4.344 2.192 0 3.562-8.96 3.562-10.045-.274-.814-.822-1.9-1.918-1.9zM17.264 2.172c1.918 0 4.11 1.086 4.11 5.43 0 4.343-2.192 5.429-3.288 5.429-.274 0-.822 0-2.466-.815l-3.015 4.073c0-5.701-.548-14.117 4.659-14.117zm4.11 29.59c0 3.259-.822 3.53-2.192 3.53h-6.577V18.19c1.644 1.9 3.015 2.715 5.48 4.072 3.29 1.9 3.29 1.9 3.29 3.53v5.972z"/><path fill-rule="evenodd" clip-rule="evenodd" d="M127.973 9.502s-1.096.271-1.644.543c-.549.271-1.371.271-1.919.271s-1.37-.271-2.466-1.629l-1.096-1.086c-.274-.271-.274-.543-1.644-.543-1.37 0-4.933-.271-7.399.815.274 0 .822-.272.822 0 0 0-.548.271-.548.543.274 0 .822-.272.822-.272h3.014s0 .272.549.272c0 0 0 .271.548.271 0 0-.274.272.274.272 0 .271 0 .271.274.543 0 0 0 .543.274.543 0 .271 0 .543.274.543 0 .271 0 .543.274.543 0 .271 0 .271.274.543 0 .271.274 1.085 0 1.357a3.822 3.822 0 0 1-.822 1.357s.274-.271.274 0l-.274.272c-.274 0-1.096 1.086-1.096 1.629 0 .271.548.814 1.37.814h.274s1.644 0 2.466-1.086c0 .272-.274.543-.274.543.274-.271.822-.271 1.37-.271h1.37c.274.271.548.271.822.271 0 0 .274.272.822.272 0 .271.274.271.548.271s0 .272.823.272c0 0 .274.271.548.271 0 0 .274.272.548.272 0 0 .274.271.548.271 0 0 .274.271.548.271 0 0 0 .272.548.272 0 .271 0 .543.548.543 0 .272 0 .814.274.814 0 .272 0 .543.274.543h.274v.543h.274s0 .815.274.815c0 .271.274.271.274 0 0-.272 0-.272 0 0 0 .271 0 .814.274 1.086.274.271.274 0 .274 0 0-.272.274-.272.274 0 0 0 0 .543.274.814.274.272.274.543.274.272v-.543l.548.814c.274 0 0-.271 0-.543 0-.271-.274-1.9-.548-2.986.274-1.357 0-2.715-1.096-4.615-.274-.815-.548-.815-1.918-1.358-1.37-.543-2.466-1.628-2.466-1.628s.548-.544.822-1.63c0-.27.274-.542 1.096-.814.822-.271 1.096-.271 1.918-.271.822 0 2.192-.272 2.74-.272s.822 0 .548-.271c0-.272-.822-.272-1.37-.272-.548 0-1.096-.543-1.37-.814-.274-.272-1.096-.815-2.192-.272-1.096.272-1.37.815-1.37.815z"/><path d="M43.57 27.962c-1.37-1.086-3.288-1.358-5.48-1.63V23.89c0-2.715 1.096-3.53 1.644-3.53l.274-.271v-.815h-7.125v.815l.274.271c.823 0 1.37 1.086 1.645 2.715v9.231c0 .814.548 1.085.822 1.085h8.221c.548 0 1.37 0 1.37-1.086.548-1.086.274-2.986-1.645-4.343zm-1.918 4.072H38.09v-4.615c3.014.271 3.562 2.715 3.562 3.8v.815zm10.141-12.76h-7.125v.815l.274.271c1.096 0 1.37 1.086 1.644 2.987v2.986c0 6.787.274 7.058 1.096 7.058h1.37c1.37 0 1.37-.271 1.37-.814 0-.815-.547-2.986-.547-6.244 0-5.158 1.096-5.701 1.644-5.701l.274-.272v-1.086zm23.565.001h-7.125v.815l.274.271c1.096 0 1.644 1.358 1.644 2.986v2.987c0 1.357 0 3.8.274 5.972h-4.11c0-2.714-.274-4.343-.274-6.244 0-5.158.548-4.886.548-4.886.274-.543.548-.815 1.096-1.086l.274-.272v-.814h-6.85v.814c1.096.272 1.643 1.358 1.643 3.53v2.443c0 4.072.275 5.43.275 5.972h-4.11c-.275-2.714-.275-4.343-.275-6.244v-2.171c0-2.715 1.096-3.53 1.644-3.53l.274-.271v-.272h-7.124v.815l.274.271c1.096 0 1.644 1.358 1.644 2.986v2.715c0 6.244 0 7.059 1.096 7.059h15.894c1.37 0 1.37-.272 1.37-.815 0-1.357-.548-2.443-.548-6.244V23.89c0-2.714 1.096-3.257 1.644-3.529l.274-.271v-.815h.274zm16.167-.001H84.4v.815l.274.271c1.096 0 1.37 1.086 1.644 2.987v2.986l-4.11-2.443c0-2.987 1.096-3.53 1.644-3.53l.274-.271v-.815h-7.125v.815l.274.271c.822 0 1.37 1.086 1.645 2.444v3.529c0 6.515 0 7.058.822 7.058h1.37c1.37 0 1.37-.271 1.37-.814 0-1.629-.274-1.9-.274-4.072v-3.53l4.384 2.172c0 5.158 0 5.973 1.097 5.973h1.37c1.37 0 1.37-.272 1.37-.815 0-1.357-.274-2.443-.548-6.244 0-5.158 1.096-5.7 1.644-5.7l.274-.272v-.815h-.274zm16.716 0h-7.125v.815l.274.271c1.096 0 1.644 1.358 1.644 3.258l-4.384 2.715c0-5.158 1.096-5.701 1.644-5.701l.274-.272v-1.086h-7.125v.815l.274.271c1.096 0 1.644 1.358 1.644 2.987v2.714c0 6.787.274 7.059 1.096 7.059h1.645c1.096 0 1.096-.272 1.096-.815 0-1.357-.274-3.529-.548-5.158l4.384-2.714v1.357c0 6.787 0 7.058 1.096 7.058h1.644c1.096 0 1.096-.271 1.096-.814 0-1.629-.548-3.53-.548-6.244 0-5.158 1.097-5.701 1.645-5.701l.274-.272v-.543zm16.715 0h-7.125v.815l.274.271c1.096 0 1.644 1.358 1.644 3.258l-4.384 2.715c0-5.158 1.096-5.701 1.644-5.701l.274-.272v-.814h-7.125v.814l.274.272c1.096 0 1.644 1.357 1.644 2.986v2.715c0 6.787.274 7.058 1.096 7.058h1.645c1.096 0 1.096-.271 1.096-.814 0-1.358-.274-3.53-.548-5.158l4.384-2.715v1.357c0 6.787 0 7.059 1.096 7.059h1.644c1.097 0 1.097-.272 1.097-.815 0-1.628-.549-3.529-.549-6.244 0-5.158 1.097-5.7 1.645-5.7l.274-.272v-.815z"/></g><defs><clipPath id="a"><path fill="#fff" d="M0 0h134v79H0z"/></clipPath></defs></svg>