<svg width="134" height="35" viewBox="0 0 134 35" fill="none" xmlns="http://www.w3.org/2000/svg"><g clip-path="url(#a)"><path fill-rule="evenodd" clip-rule="evenodd" d="M.813 19.695a13.955 13.955 0 0 1-.61-4.724C.407 6.587 7.52-.067 16.056.133c1.22 0 2.506.2 3.658.532.678.2 1.355.4 2.032.665l-.135.333c-7.655-2.728-15.785-.066-19.443 7.12-1.49 2.994-1.965 6.454-1.22 9.781l.272 1.065-.407.066zm.813-.266c-.135-.332-.203-.665-.27-.998-1.762-7.718 3.319-15.437 11.177-17.1.542-.134 1.084-.2 1.694-.267 2.439-.2 4.945.133 7.18 1.065l-.067.2C9.755-1.198-.61 7.386 1.965 19.363l-.339.066zm25.134-6.121h1.016c.203.998.27 2.062.135 3.06h1.22c.135-1.53.067-3.06-.34-4.59-.135-.334-.135-.666-.135-.999.136 0 .271.4.34.466a12.81 12.81 0 0 1 .812 5.057h1.558c.204-6.188-3.252-12.31-9.145-14.905C19.917.399 17.343-.133 14.769 0 6.097.532-.474 7.785 0 16.235c.474 8.118 7.384 14.506 15.65 14.506v-1.53a13.512 13.512 0 0 1-5.082-1.198c-.135-.067-.61-.266-.61-.4 0-.132 2.236.6 3.388.733.745.133 1.49.133 2.236.133v-1.065c-1.017 0-2.1-.133-3.049-.4v-.997c-5.894-1.664-9.281-7.785-7.52-13.64C6.775 6.52 13.007 3.193 18.97 4.923a11.003 11.003 0 0 1 7.79 8.384z" fill="#132459"/><path d="M132.646 13.308c-.068 0-.135.066-.135.133v2.928c0 .066.067.133.067.133h.61c.068 0 .135-.067.135-.067v-2.928c0-.066-.067-.133-.135-.133h-.542v-.066zm-1.965 1.597c.339 0 .475.133.475.332v.2c0 .266-.136.333-.475.333h-2.032c-.068 0-.068 0-.068-.067v-.931l2.1.133zm-2.777-1.597c-.068 0-.136.066-.136.133v2.861c0 .067.068.133.136.133h2.981c.813 0 1.151-.333 1.151-.931v-.4c0-.598-.338-.931-1.151-.931h-2.236v-.799c0-.066-.068-.133-.135-.133l-.61.067zm-6.029 0c-.407 0-.542.133-.542.599v2.462c0 .066.067.133.135.133h.61c.068 0 .135-.067.135-.067v-2.329c0-.066 0-.066.068-.066h.068c.068 0 .068 0 .068.066l.948 1.863c.203.4.339.6.745.6h.271c.407 0 .542-.134.745-.6l.949-1.863s0-.066.067-.066h.068c.068 0 .068 0 .068.066v2.33c0 .066.068.132.068.132h.609c.068 0 .136-.066.136-.066V14.04c0-.466-.136-.6-.542-.6h-.61c-.338 0-.406.067-.609.467l-.949 1.93c0 .066-.068.066-.068.066h-.067c-.068 0-.068 0-.068-.067l-.949-1.93c-.203-.332-.271-.465-.609-.465l-.745-.133zm-4.472 1.13c0-.398.136-.531.678-.531h1.49c.271 0 .339.066.339.332v.266c0 .067 0 .067-.068.067h-2.371l-.068-.133zm.61-1.13c-1.084 0-1.423.332-1.423 1.197v.799c0 .865.339 1.198 1.423 1.198h2.574c.068 0 .068 0 .136-.067v-.466c0-.066 0-.066-.068-.133h-2.439c-.542 0-.677-.133-.677-.532v-.133h2.981c.203 0 .338-.067.338-.333v-.532c0-.665-.203-.932-1.016-.932l-1.829-.066zm-6.232 0c-.068 0-.068 0-.136.066v.466c0 .067 0 .133.136.133h1.761v2.329c0 .067.068.133.135.133h.61c.068 0 .136-.066.136-.066v-2.396h1.761c.068 0 .135 0 .135-.133v-.466c0-.066 0-.066-.067-.133l-4.471.067zm-2.914 0c-1.083 0-1.422.332-1.422 1.197v.799c0 .865.339 1.198 1.422 1.198h2.372c.067 0 .067 0 .135-.067v-.466c0-.066 0-.066-.068-.133h-2.303c-.542 0-.61-.133-.61-.665v-.532c0-.466.136-.666.61-.666h2.303c.068 0 .136 0 .136-.133v-.466c0-.066 0-.066-.068-.133l-2.507.067zm-6.232 0c-.068 0-.136.066-.136.133v2.462c0 .466.204.599.542.599h.339c.271 0 .542-.133.745-.333l1.762-1.996.067-.067h.068s.068 0 .068.067v2.262c0 .067.068.133.068.133h.609c.068 0 .136-.066.136-.133v-2.528c0-.466-.203-.6-.542-.6h-.339c-.271 0-.542.134-.745.333l-1.761 2.063-.068.067h-.068s-.068 0-.068-.067v-2.196c0-.066-.067-.133-.135-.133l-.542-.066zm-3.184 0c-1.084 0-1.423.332-1.423 1.197v.799c0 .865.339 1.198 1.423 1.198h2.371c.068 0 .068 0 .135-.067v-.466c0-.066 0-.066-.067-.133h-2.304c-.542 0-.61-.133-.61-.665v-.532c0-.466.136-.666.61-.666h2.304c.067 0 .135 0 .135-.133v-.466c0-.066 0-.066-.068-.133l-2.506.067zm-7.181 1.13c0-.398.135-.531.677-.531h1.49c.272 0 .34.066.34.332v.266c0 .067 0 .067-.068.067h-2.371l-.068-.133zm.542-1.13c-1.084 0-1.423.332-1.423 1.197v.799c0 .865.339 1.198 1.423 1.198h2.574c.068 0 .068 0 .136-.067v-.466c0-.066 0-.066-.068-.133h-2.439c-.542 0-.677-.133-.677-.532v-.133h2.98c.204 0 .34-.067.34-.333v-.532c0-.665-.204-.932-1.017-.932l-1.83-.066zm-6.233 0c-.067 0-.135.066-.135.133v2.462c0 .466.203.599.542.599h.338c.272 0 .543-.133.746-.333l1.761-1.996.068-.067h.068s.067 0 .067.067v2.262c0 .067.068.133.068.133h.61c.067 0 .135-.066.135-.133v-2.528c0-.466-.135-.6-.542-.6h-.338c-.271 0-.542.134-.746.333l-1.761 2.063-.068.067h-.067s-.068 0-.068-.067v-2.196c0-.066-.068-.133-.136-.133l-.542-.066zm-4.403 0c-.068 0-.136.066-.136.133v2.928c0 .066.068.133.136.133h.61c.067 0 .135-.067.135-.067v-1.198h.88c.34 0 .475.067.61.267l.746.998c.067.066.135.066.203.066h.677c.068 0 .068-.066.068-.066v-.067l-.813-1.131-.406-.4c.135-.132.27-.199.338-.399l.746-.998c.067-.066 0-.133-.068-.133h-.678c-.067 0-.135.067-.203.067l-.677.931c-.136.2-.271.267-.61.267h-.813v-1.132c0-.066-.068-.133-.135-.133l-.61-.066zm-3.184 0c-1.084 0-1.423.332-1.423 1.197v.799c0 .865.339 1.198 1.423 1.198h2.37c.069 0 .136 0 .136-.133v-.466c0-.067-.067-.133-.135-.133H79.06c-.542 0-.678-.133-.678-.666v-.465c0-.466.136-.666.678-.666h2.303c.068 0 .135 0 .135-.133v-.466c0-.066 0-.066-.067-.133l-2.44.067zm-5.217 1.13c0-.398.136-.531.678-.531h1.49c.271 0 .339.066.339.332v.266c0 .067 0 .067-.135.067h-2.372v-.133zm.542-1.13c-1.083 0-1.422.332-1.422 1.197v.799c0 1.73 2.574 1.198 3.929 1.198.068 0 .068 0 .136-.067v-.466c0-.066 0-.066-.068-.133h-2.44c-.541 0-.677-.133-.677-.532v-.133h2.981c.204 0 .339-.067.339-.333v-.532c0-.665-.203-.932-1.016-.932l-1.762-.066zm-6.232 0c-.068 0-.136.066-.136.133v.865c0 .865.407 1.198 1.49 1.198h1.965v.865c0 .066.068.133.136.133h.542c.068 0 .135-.067.135-.067v-2.928c0-.066-.067-.133-.135-.133h-.542c-.068 0-.136.067-.136.133v1.398H69.44c-.542 0-.678-.133-.678-.6v-.798c0-.066-.067-.133-.135-.133l-.542-.066zm-5.013 0c-.068 0-.136.066-.136.133v2.462c0 .466.203.599.542.599h.339c.27 0 .542-.133.745-.333l1.761-1.996.068-.067h.068s.068 0 .068.067v2.262c0 .067.067.133.067.133h.542c.068 0 .136-.066.136-.133v-2.528c0-.466-.136-.6-.542-.6h-.339c-.27 0-.542.134-.745.333l-1.761 2.063-.068.067h-.068s-.068 0-.068-.067v-2.196c0-.066-.067-.133-.135-.133l-.474-.066zm-5.081 0c-.068 0-.068.066-.136.066v.466c0 .067.068.133.136.133h1.761v2.329c0 .067.068.133.136.133h.61c.067 0 .135-.066.135-.066v-2.396h1.694c.067 0 .135 0 .135-.133v-.466c0-.066-.068-.066-.136-.066h-4.335zm-2.913 0c-1.084 0-1.423.332-1.423 1.197v.799c0 .865.339 1.198 1.423 1.198h2.37c.069 0 .136 0 .136-.067v-.532c0-.067 0-.067-.067-.133h-2.304c-.542 0-.677-.133-.677-.666v-.465c0-.466.135-.666.677-.666h2.304c.067 0 .135 0 .135-.133v-.466c0-.066-.068-.133-.068-.133l-2.506.067zm-2.439 0c-.068 0-.136 0-.136.066l-1.354 2.33c-.068 0-.068 0-.136-.134l-1.355-2.262c0-.067-.068-.067-.135-.067h-.678c-.067.067-.067.133-.067.2l1.558 2.728a.458.458 0 0 0 .406.266l-.339.532a.517.517 0 0 1-.27.134h-.34c-.067 0-.067 0-.135.066v.466c0 .066.068.066.068.133h.406c.542 0 .813-.133.949-.4l2.235-3.925c.068-.067 0-.133-.067-.133h-.61zm-7.858 0c-.068 0-.136.066-.136.133v2.928c0 .066.068.133.136.133h.61c.067 0 .135-.067.135-.133V15.17h.88c.34 0 .475.066.61.266l.745.998c.068.067.136.067.203.067h.678c.068 0 .068-.067.068-.067v-.066l-.813-1.132-.407-.399c.136-.133.271-.2.34-.4l.744-.997c.068-.067 0-.133-.067-.133h-.678c-.068 0-.135.066-.203.066l-.678.932c-.135.2-.27.266-.61.266h-.812V13.44c0-.067-.068-.133-.136-.133h-.61zm-1.762 2.528h-1.965c-.27 0-.338-.066-.338-.332v-.133c0-.2.068-.267.338-.267h2.168v.533c0 .133-.067.2-.203.2zm-2.913-2.528c-.068 0-.068 0-.135.066v.466c0 .067 0 .133.135.133h2.439c.542 0 .677.133.677.532v.133h-2.37c-.678 0-.881.267-.881.732v.267c0 .598.203.798.88.798h2.846c.338 0 .474-.066.474-.466v-1.597c0-.865-.339-1.13-1.423-1.13h-2.642v.066z" fill="#ED7100"/><path fill-rule="evenodd" clip-rule="evenodd" d="M15.785 10.513c2.778 0 5.081 2.196 5.081 4.924 0 .266 0 .598-.068.865h-2.506c.067-.2.135-.466.135-.666.136-1.464-.948-2.728-2.439-2.86-1.49-.134-2.777.93-2.913 2.395-.135 1.397.949 2.661 2.371 2.86h.136v2.33c-2.778-.134-4.946-2.462-4.81-5.19.203-2.529 2.371-4.592 5.013-4.658z" fill="#ED7100"/><path d="M123.567 26.216c0-1.33.407-1.73 1.829-1.73h4.336c1.49 0 1.897.4 1.897 1.73v1.53c0 1.332-.407 1.797-1.897 1.797h-4.336c-1.49 0-1.829-.399-1.829-1.796v-1.53zm1.626-3.66c-3.048 0-4.065.932-4.065 3.261v2.329c0 2.329 1.017 3.26 4.065 3.26h4.81c3.049 0 4.065-.931 4.065-3.26v-2.329c0-2.329-.949-3.26-4.065-3.26h-4.81zm-18.224.068a.456.456 0 0 0-.406.266v6.853c0 1.331.542 1.664 1.558 1.664h.948c.813.133 1.626-.266 2.1-.932l5.149-5.656c.068-.066.135-.133.203-.133h.136c.067 0 .135.067.135.133v6.189c0 .266.136.332.407.332h1.693c.271 0 .407-.133.407-.332v-6.72c0-1.332-.475-1.664-1.558-1.664h-.949c-.813-.067-1.626.266-2.1.931l-5.081 5.656c-.068.067-.135.133-.203.133h-.339c-.068 0-.135-.066-.135-.133v-6.188c0-.2-.136-.333-.271-.333h-.068l-1.626-.066zM94.64 29.543c.406-1.463.745-2.994.948-4.524.068-.2.068-.333.407-.333h3.658c.203 0 .339.067.339.266v4.658l-5.352-.067zm.474-6.92c-1.016 0-1.287.466-1.355 1.131a19.392 19.392 0 0 1-1.016 4.858c-.339.798-.745.931-1.22.931h-1.422c-.27 0-.406.133-.406.333v4.192c0 .266.135.333.406.333h1.355c.271 0 .406-.133.406-.333v-2.661h11.111v2.661c0 .266.135.333.406.333h1.355c.271 0 .407-.133.407-.333V29.81c0-.267-.136-.333-.407-.333h-2.303V23.82c0-.799-.407-1.264-1.423-1.264l-5.894.066zm-8.062 0c-.203 0-.339.067-.406.2l-3.997 6.587c-.136 0-.204-.066-.407-.399l-3.794-6.188c-.067-.133-.203-.266-.406-.2h-1.965c-.203 0-.338.2-.203.4l4.607 7.518c.203.4.61.666 1.084.666l-.949 1.53c-.135.266-.406.4-.88.4h-1.017c-.203 0-.27.066-.27.266v1.33c0 .2.135.267.27.267h1.22c1.49 0 2.235-.333 2.71-1.132l6.503-10.912c.068-.133.068-.266-.068-.333-.067-.066-.135-.066-.203-.066l-1.829.066zm-19.646-.466c0-.066.136-.133.203-.133h.136c.068 0 .135.067.203.133l2.71 4.858h-5.826l2.574-4.858zM67 19.63c-.678 0-1.22.266-1.762 1.264l-5.555 10.048c-.135.2-.068.399.203.399h2.236c.136 0 .339-.067.407-.2l1.219-2.129h7.994l1.22 2.13c.067.132.203.266.406.199h2.168c.27 0 .338-.2.203-.4l-5.623-10.047c-.542-.998-1.084-1.264-1.965-1.264H67zm-15.717 2.993c-3.048 0-4.064.932-4.064 3.26v2.33c0 2.328 1.016 3.26 4.064 3.26h6.843a.374.374 0 0 0 .338-.2v-1.397c0-.2-.135-.266-.338-.266h-6.572c-1.49 0-1.829-.4-1.829-1.797V26.35c0-1.33.407-1.796 1.83-1.796h6.57c.204 0 .34-.067.34-.267v-1.33c0-.2-.136-.266-.34-.266l-6.842-.067zm-6.978 0c-.203 0-.338.067-.406.2l-3.997 6.587c-.136 0-.203-.066-.407-.399l-3.793-6.188c-.068-.133-.271-.266-.407-.2h-1.964c-.204 0-.34.2-.204.4l4.607 7.518c.203.4.61.666 1.084.666l-.88 1.53c-.136.266-.407.4-.881.4H36.04c-.203 0-.338.066-.338.266v1.33c0 .2.135.267.338.267h1.22c1.49 0 2.235-.333 2.71-1.132l6.503-10.912c.136-.2 0-.4-.203-.4l-1.965.067zm-22.694-.465c0-.134.068-.2.203-.2h6.3c1.152 0 1.559.466 1.559 1.464v.665c0 .998-.406 1.464-1.558 1.464H21.61v-3.393zm-2.1-2.529c-.27-.066-.474.133-.542.4v10.978c0 .267.136.4.407.4h1.829a.457.457 0 0 0 .406-.267v-3.26h7.046c2.574 0 3.658-1.198 3.658-3.46v-1.264c0-2.263-1.084-3.46-3.658-3.46l-9.146-.067z" fill="#132459"/><path fill-rule="evenodd" clip-rule="evenodd" d="M17.478 15.636a1.663 1.663 0 0 0-1.558-1.796c-.948-.067-1.761.598-1.829 1.53-.068.932.61 1.73 1.49 1.796a1.78 1.78 0 0 0 1.897-1.53c-.067.067-.067 0 0 0z" fill="#132459"/></g><defs><clipPath id="a"><path fill="#fff" d="M0 0h134v35H0z"/></clipPath></defs></svg>