<svg width="128" height="113" viewBox="0 0 128 113" fill="none" xmlns="http://www.w3.org/2000/svg"><g clip-path="url(#a)" fill="#000"><path d="M63.998 20.437c9.095 0 15.83 1.36 15.83 1.36l3.613-14.242-10.154 3.405L63.998 0 54.71 10.96 44.557 7.555l3.612 14.242s6.735-1.36 15.83-1.36zm13.241 19.002c-3.465 0-5.07.897-5.859 4.296l-.609 2.531 6.47-.55c3.924-.335 6.276-2.811 6.276-6.279h-6.278v.002zm14.06 4.319c-.026 3.169-.117 5.802-.343 8.014l14.141 6.596c1.624-3.88 2.596-9.026 2.659-15.97l-16.457 1.36zm-.03-4.319h16.461c-.197-7.044-1.329-12.184-3.251-15.916L90.357 31.59c.428 1.922.796 4.472.912 7.849zm-2.391-12.431c.062.146.13.31.203.488l13.856-6.463c-3.868-5.184-9.862-6.724-17.263-6.997L83.6 22.204l-.14.561c3.449 1.035 4.628 2.326 5.418 4.243zM36.7 43.758l-16.456-1.36c.063 6.944 1.032 12.09 2.658 15.97l14.14-6.596c-.224-2.212-.316-4.845-.342-8.014zm.945-12.168L23.52 23.523c-1.921 3.733-3.055 8.872-3.251 15.916H36.73c.115-3.377.483-5.927.915-7.849zm1.475-4.582c.79-1.917 1.97-3.208 5.418-4.243l-.14-.56-2.075-8.169c-7.402.274-13.396 1.813-17.264 6.997l13.856 6.463.204-.488zM73.385 57.92c-2.078.363-5.358.677-9.379.677-2.836 0-5.305-.183-7.252-.4l1.212-5.018c.29-1.203.28-2.949-.027-4.15l-1.305-5.237-.016-.06c-.79-3.4-2.394-4.297-5.859-4.297h-6.275c0 3.468 2.352 5.943 6.275 6.28.566.046 1.08.09 1.55.13l1.103 4.335c.118.462.124 1.438.012 1.899l-2.407 9.922.017.004 10.635 4.898v8.034c-3.98.213-6.084.732-6.963 1.029-1.536.518-2.5 1.823-2.5 3.428a3.59 3.59 0 0 0 3.598 3.587c2.021 0 3.598-1.672 3.598-3.587h9.222c0 1.917 1.575 3.587 3.598 3.587a3.59 3.59 0 0 0 3.598-3.587c0-1.605-.965-2.91-2.5-3.428-.878-.296-2.983-.816-6.963-1.03v-8.028l10.619-4.898c.006-.002.013-.003.016-.005l-.589-2.453c0-.002-.382-2.092-3.018-1.632zm-35.608-1.948l-13.574 5.017c2.668 4.556 6.468 6.941 10.725 8.57 3.031 1.16 5.54 1.8 7.89 2.302l2.392-8.359c-1.247-.594-2.467-1.155-2.879-1.396-2.354-1.368-3.743-3.212-4.554-6.134zm47.893 6.134c-.414.241-1.633.803-2.879 1.396l2.391 8.36c2.35-.5 4.857-1.143 7.891-2.303 4.256-1.629 8.057-4.014 10.723-8.57l-13.572-5.017c-.81 2.922-2.201 4.766-4.554 6.134zm-72.467 33.23a14.514 14.514 0 0 0-1.994-.168v-1.752H7.655v1.752c-.877.02-1.326.077-1.994.168C1.598 95.898 0 97.16 0 101.77c0 4.589 1.598 5.85 5.66 6.415a14.57 14.57 0 0 0 1.994.168v1.335h3.554v-1.335a15.211 15.211 0 0 0 1.993-.168c4.063-.565 5.66-1.826 5.66-6.415.002-4.61-1.597-5.87-5.658-6.433zm-5.548 10.799c-.853-.101-1.286-.157-1.732-.283-1.748-.453-1.936-1.469-1.936-4.083 0-2.617.19-3.65 1.936-4.102.444-.123.878-.182 1.732-.284v8.752zm5.286-.283c-.446.124-.877.18-1.732.283v-8.752c.853.104 1.286.176 1.732.284 1.804.451 1.936 1.485 1.936 4.102-.002 2.614-.188 3.63-1.936 4.083zm72.312-1.06c.363-.329.659-.781.92-1.405l.639-1.523c.207-.49.413-.49.865-.49h.545l.094-2.221c-.753-.075-1.259-.111-1.804-.111-1.185 0-1.976.282-2.558 1.637l-.755 1.767c-.243.601-.299.733-1.034.807l-1.428.132V99.19H77.05v10.498h3.687v-3.922l1.9-.136 2.012 4.058h4.193l-1.954-3.46c-.553-.977-.982-1.23-1.636-1.436zm26.215-1.31h-3.95v-4.31h-3.684v10.516h3.684v-3.744h3.95v3.744h3.667V99.172h-3.667v4.31zm13.014-4.31h-7.22v2.558h3.534v7.958h3.686v-7.958h3.519v-2.558h-3.519zm-58.697 6.446v-6.427H62.12v10.496h3.572l4.779-6.44v6.44h3.687V99.191h-3.595l-4.777 6.427zm-26.216-7.706l3.48-.529c1.918-.281 2.389-.938 2.389-2.03 0-.864-.114-1.9-.114-1.9l-2.07-.152-.093.545c-.074.526-.074.602-.958.772l-3.517.64c-4.081.733-4.984 3.086-4.984 6.922v.189c0 4.441.433 7.487 5.869 7.506 3.592 0 5.869-1.58 5.869-5.305 0-3.124-1.035-5.006-4.214-5.006-1.255 0-2.64.312-3.854.696.008-1.363.16-2.048 2.197-2.348zm.245 4.234c1.525 0 1.974.752 1.974 2.427 0 2.162-.487 3.141-2.219 3.141-1.788 0-2.2-1.092-2.2-3.293v-2.023c.95-.142 1.992-.252 2.446-.252zm-9.029 4.57v-3.8c0-3.425-2.558-3.948-4.532-3.948-.789 0-2.614.13-4.814.376v2.614c2.07-.226 3.197-.32 4.042-.32 1.466 0 1.844.396 1.844 1.485v.402a25.727 25.727 0 0 0-1.167-.026c-3.159 0-5.642.038-5.642 3.369 0 2.408 1.243 2.935 2.935 2.935 1.427 0 2.904-.3 4.187-.786.338.55.915.671 1.568.671h2.783l.208-1.935-.997-.152c-.397-.056-.415-.112-.415-.885zm-3.459.716c-.742.221-1.52.377-2.163.377-.677 0-1.014-.208-1.014-1.093 0-1.373.865-1.391 2.2-1.468.256-.015.601-.024.979-.032v2.216h-.002zm28.416-8.449c-1.318 0-2.67.306-3.918.71-.343-.422-.865-.522-1.442-.522h-3.008l-.208 1.939.997.151c.397.056.413.112.413.885V113h3.668v-3.242a20.89 20.89 0 0 0 1.862.099c3.93 0 5.905-1.881 5.905-5.474 0-3.29-.827-5.4-4.269-5.4zm-2.05 8.731c-.524 0-1.039-.024-1.448-.049v-5.923c.792-.11 1.58-.179 2.106-.179 1.881 0 1.975 1.297 1.975 2.821 0 2.237-.395 3.33-2.633 3.33zm46.866-.998v-3.8c0-3.425-2.557-3.948-4.531-3.948-.79 0-2.615.13-4.816.376v2.614c2.07-.226 3.198-.32 4.045-.32 1.468 0 1.844.396 1.844 1.485v.411c-.361-.02-.743-.033-1.167-.033-3.16 0-5.643.037-5.643 3.368 0 2.408 1.239 2.936 2.933 2.936 1.425 0 2.905-.3 4.19-.787.338.55.915.672 1.565.672h2.785l.207-1.936-.997-.151c-.395-.058-.415-.114-.415-.887zm-3.459.716c-.742.221-1.523.377-2.163.377-.677 0-1.015-.208-1.015-1.093 0-1.373.864-1.391 2.198-1.468.302-.018.612-.032.979-.041v2.225h.002z"/></g><defs><clipPath id="a"><path fill="#fff" d="M0 0h128v113H0z"/></clipPath></defs></svg>