<svg width="134" height="34" viewBox="0 0 134 34" fill="none" xmlns="http://www.w3.org/2000/svg"><g clip-path="url(#a)" fill="#00A8C4"><path fill-rule="evenodd" clip-rule="evenodd" d="M71.815 2.78C71.605 1.283 69.721 0 68.255 0H67c-1.465 0-2.721.855-3.14 2.138l-4.19 12.189-4.814-11.761c-.42-.855-1.257-1.497-2.303-1.497l-1.675.214c-1.675.214-3.35 1.283-3.979 2.994-1.046 2.78-2.93 8.34-2.721 14.54.209 1.925 1.256 2.994 1.256 2.994 2.094 2.139 6.072.428 5.862-2.566 0-3.207 0-7.056.628-9.836l3.35 10.05c.629 1.925 2.513 3.208 4.607 3.208 1.675 0 3.35-1.283 3.768-2.994L67 10.264s.42 4.063.838 8.981c.21 2.139 2.094 3.85 4.397 3.85 1.675 0 3.35-1.497 2.931-3.208L71.815 2.78zm46.901 1.71c-.21-1.924-3.978-2.993-5.235-.64l-4.397 10.477-1.675-10.478c-.418-1.71-3.768-2.993-5.443-.427-1.466 2.138-3.978 9.409-5.025 15.182-.42 1.925.837 3.85 2.93 4.277a2.777 2.777 0 0 0 3.142-2.78c-.21-2.566.418-9.195 1.046-11.975l1.885 10.05c.209 1.497 1.675 2.78 3.14 2.78h.21c1.465 0 2.722-.855 3.35-2.138l2.722-7.27s0 4.062.209 7.698c0 1.924 1.675 3.635 3.559 3.635 1.047 0 2.094-1.07 1.885-2.139l-2.303-16.251zm-95.893.642c-.42-1.496-1.675-2.566-3.141-2.566-1.675 0-2.931.856-3.56 2.353l-3.14 9.836-3.56-7.912c-.837-1.71-2.721-2.78-4.815-2.566-1.047.214-1.884.855-2.303 1.925C1.676 8.768.419 13.472 0 19.032c-.21 1.924 1.465 3.635 3.35 3.849h.21c1.883.214 3.35-1.283 2.93-3.208-.209-2.566-.418-5.56 0-8.553l2.932 7.698c.628 1.71 2.512 2.78 4.396 2.78h.629c1.046-.214 2.093-.855 2.303-1.925l2.303-8.34c.21.856.419 4.491.837 7.699.21 2.138 2.304 3.849 4.607 3.635 1.046 0 1.675-1.07 1.465-1.925l-3.14-15.61zm15.284 3.635h-.629c-1.465.214-2.93 1.07-3.559 2.566-.837 1.283-1.675 3.208-2.512 5.774 0 0-.628-2.78.209-6.415.21-.856-.628-1.711-1.466-1.711-2.093.214-3.768 2.138-3.35 4.277.21 1.71.628 4.276 1.047 7.056.419 1.497 1.675 2.566 3.14 2.352 1.676-.213 3.142-1.283 3.77-2.993.628-1.925 1.465-4.705 2.303-5.988 0 0 .418 4.063.418 6.63 0 1.496 1.466 2.779 2.932 2.351 1.465-.213 2.303-2.352 2.094-3.635l-1.047-7.912c-.21-1.497-1.675-2.78-3.35-2.352zm93.171 2.353h-.419c-1.466.213-1.884.855-2.722 2.138-.837 1.283-1.884 2.993-2.722 5.345 0 0-.209-2.566.628-5.987.21-.855-.418-1.71-1.256-1.71-1.884 0-3.141 1.71-3.141 3.634 0 1.497.21 3.636.419 6.202.21 1.497 1.047 2.138 2.303 2.138 1.675 0 2.932-.641 3.56-2.138.837-1.71 1.256-3.636 1.884-4.919 0 0 0 2.139-.209 4.705 0 1.497 1.047 2.566 2.512 2.566 1.256-.214 1.885-1.283 1.885-2.566l-.419-6.415c0-1.925-.838-2.994-2.303-2.994zM92.125 5.987h-2.093c-2.094 0-2.932 1.07-4.188 2.78-1.256 1.71-2.722 4.063-4.187 7.27 0 0-1.257-3.42 0-8.553.418-1.71-1.466-2.566-2.932-2.566-1.884.214-3.559 1.71-3.559 3.635 0 2.352 1.047 5.988 1.466 10.478.209 1.925 1.884 3.422 3.768 3.422 2.303 0 4.397-1.07 5.235-3.208 1.047-2.566 1.256-5.56 2.931-7.27 0 0-.21 3.207-.419 6.842-.21 1.925 1.466 3.636 3.35 3.636 1.885 0 3.35-1.711 3.35-3.636l-.21-10.905c0-.856-1.255-1.925-2.512-1.925z"/><path d="M27.218 33.572c-.419-.427-.628-.855-.628-1.496v-1.283c0-.642.21-1.07.628-1.497.419-.428.837-.642 1.675-.642.419 0 .837 0 1.256.214.419.214.628.428.838.642.209.213.209.641.209.855h-1.047v-.214c0-.214-.21-.641-.419-.641-.209-.214-.418-.214-.837-.214-.628 0-1.047.428-1.047 1.283v1.283c0 .855.419 1.283 1.047 1.283.21 0 .628 0 .628-.214.21-.214.419-.428.419-.642v-.213h1.047v.213c0 .428-.21.642-.21.856-.21.214-.419.427-.837.641-.419.214-.628.214-1.257.214-.628 0-1.046-.214-1.465-.428zm5.234 0c-.419-.427-.628-.855-.628-1.496v-1.283c0-.642.21-1.283.628-1.497.419-.428.838-.642 1.675-.642.628 0 1.256.214 1.675.642.419.428.628.855.628 1.497v1.283c0 .641-.209 1.283-.628 1.496-.419.428-.837.428-1.675.428-.837 0-1.465-.214-1.675-.428zm2.303-.641c.21-.214.21-.428.42-.855v-1.283c0-.428-.21-.642-.42-.856-.209-.213-.418-.213-.837-.213s-.628 0-.838.213c-.209.214-.209.428-.418.856v1.283c0 .427.209.641.209.855.21.214.419.214.837.214.42 0 .838 0 1.047-.214zM37.27 34c0-.214-.21-.214 0 0v-5.346h3.559v1.069h-2.304v4.492h-.209L37.269 34zm3.976 0s0-.214 0 0v-5.346h2.303c.628 0 1.047.214 1.466.428.419.214.419.642.419 1.283 0 .642-.21 1.07-.42 1.283-.418.214-1.046.428-1.465.428h-1.047V34h-1.256c.21 0 0 0 0 0zm2.094-2.78c.21 0 .418 0 .628-.213.21-.214.21-.428.21-.642 0-.214 0-.428-.21-.641-.21-.214-.419-.214-.628-.214h-1.047v1.71h1.047zM46.271 34c0-.214 0-.214 0 0v-5.346h3.77v.856h-2.723v1.283h2.513v.855h-2.513v1.497h2.723V34h-3.77zm4.608 0s0-.214 0 0v-5.346h2.303c.628 0 1.047.214 1.256.428.21.214.42.642.42 1.07 0 .213 0 .427-.21.64-.21.214-.21.428-.419.428.21 0 .419.214.628.428.21.214.21.428.21.855 0 .428-.21.856-.42 1.07-.418.213-.837.427-1.255.427h-2.513c.21 0 .21 0 0 0zm2.303-3.207c.21 0 .419 0 .628-.214.21-.214.21-.214.21-.428s0-.427-.21-.427c-.21-.214-.419-.214-.628-.214h-1.256v1.283h1.256zm0 2.352c.21 0 .419 0 .628-.214.21-.214.21-.428.21-.642 0-.213 0-.427-.21-.641-.21-.214-.419-.214-.628-.214h-1.256v1.497h1.256v.214zm2.511.855s0-.214 0 0l1.675-5.132c0-.214.21-.214.21-.214h.837c.21 0 .21 0 .21.214l1.884 4.918V34h-.838c-.209 0-.209 0-.209-.214l-.419-.855H56.74l-.419.855-.209.214h-.419zm1.466-1.924h1.675l-.838-2.352-.837 2.352zM61.348 34c0-.214 0-.214 0 0v-5.346h3.769v.856h-2.722v1.283h2.513v.855h-2.513v1.497h2.722V34h-3.77zm4.605 0c0-.214 0-.214 0 0v-5.346h.838s.209 0 .209.214l1.466 2.78 1.465-2.78.21-.214h.838V34h-1.048v-3.42l-1.047 1.924c0 .214-.209.214-.209.214h-.21c-.209 0-.209 0-.209-.214L67 30.58V34h-1.047c.21 0 .21 0 0 0zm8.374-.428c-.418-.427-.628-.855-.628-1.496v-1.283c0-.642.21-1.07.628-1.497.419-.428.838-.642 1.675-.642.419 0 .838 0 1.257.214.418.214.628.428.837.642.21.213.21.641.21.855h-1.257v-.214c0-.214-.21-.641-.419-.641-.209-.214-.418-.214-.837-.214-.628 0-1.047.428-1.047 1.283v1.283c0 .855.419 1.283 1.047 1.283.21 0 .628 0 .628-.214.21-.214.419-.428.419-.642v-.213h1.256v.213c0 .428-.21.642-.21.856-.209.214-.418.427-.837.641-.419.214-.628.214-1.256.214s-1.256-.214-1.466-.428zm7.538.428c0-.214 0-.214 0 0v-1.924c-.21.213-.21.213-.419.213h-.628c-.628 0-1.047-.213-1.466-.427-.21-.214-.419-.855-.419-1.283v-1.925h.838v1.924c0 .215 0 .428.21.642.209.214.418.214.837.214.21 0 .419 0 .628-.214.21 0 .21-.213.21-.427v-2.139h1.047V34h-.838zm1.676 0s0-.214 0 0l1.675-5.132c0-.214.21-.214.21-.214h.837c.21 0 .21 0 .21.214l1.884 4.918V34h-.838s-.21 0-.21-.214l-.418-.855h-2.303l-.419.855-.21.214h-.418c.21 0 .21 0 0 0zm1.675-1.924h1.675l-.838-2.352-.837 2.352zm4.396 1.496c-.418-.427-.628-.855-.628-1.496v-1.283c0-.642.21-1.07.629-1.497.418-.428.837-.642 1.674-.642.42 0 .838 0 1.257.214.419.214.628.428.837.642.21.213.21.641.21.855h-1.048v-.214c0-.214-.209-.641-.418-.641-.21-.214-.419-.214-.838-.214-.628 0-1.046.428-1.046 1.283v1.283c0 .855.418 1.283 1.046 1.283.21 0 .629 0 .629-.214.209-.214.418-.428.418-.642v-.213h1.048v.213c0 .428-.21.642-.21.856-.21.214-.419.427-.838.641-.418.214-.628.214-1.256.214-.419 0-1.047-.214-1.466-.428zm6.073.428c0-.214 0-.214 0 0v-4.276h-1.676v-1.07h4.189v1.069h-1.676v4.492h-.21L95.686 34zm3.35 0c0-.214 0-.214 0 0v-5.346h1.047v1.924h1.047c.628 0 1.047.215 1.466.428.418.214.418.642.418 1.283 0 .428 0 .642-.209.856l-.628.641c-.21.214-.628.214-1.047.214h-2.094zm1.885-.855c.209 0 .418 0 .628-.214.209-.214.209-.428.209-.642 0-.213 0-.427-.209-.641-.21-.214-.419-.214-.628-.214h-.838v1.71h.838zm2.93.855c0-.214 0-.214 0 0v-5.346h3.768v.856h-2.722v1.283h2.513v.855h-2.513v1.497h2.722V34h-3.768z"/></g><defs><clipPath id="a"><path fill="#fff" d="M0 0h134v34H0z"/></clipPath></defs></svg>