<svg width="381" height="95" viewBox="0 0 381 95" fill="none" xmlns="http://www.w3.org/2000/svg"><path d="M274.415 14.084a4.602 4.602 0 0 1-5.888 0A4.614 4.614 0 0 1 267 11.347l1.685-.34a2.833 2.833 0 0 0 4.511 1.563c.5-.393.852-.944 1.001-1.563l1.672.34a4.477 4.477 0 0 1-1.454 2.737zm-11.994 24.562V16.954h2.423v17.998l12.952-17.998h2.326v21.692h-2.423v-18.01l-12.892 18.01h-2.386zm-23.881 0V16.954h2.423v17.998l12.964-17.998h2.314v21.692h-2.423v-18.01l-12.891 18.01h-2.387zm-22.293 0V16.954h2.423v12.948l12.491-12.948h3.163l-9.293 9.484 9.692 12.208h-3.065l-8.336-10.513-4.64 4.688v5.825h-2.435zm-12.953.376a10.366 10.366 0 0 1-7.79-3.246 11.116 11.116 0 0 1-2.349-3.681 11.11 11.11 0 0 1-.753-4.3 11.091 11.091 0 0 1 3.138-7.97 10.407 10.407 0 0 1 7.839-3.27 11.03 11.03 0 0 1 4.653.884 13.992 13.992 0 0 1 3.756 2.616l-1.587 1.756a9.781 9.781 0 0 0-6.822-2.967 7.84 7.84 0 0 0-5.997 2.567 8.955 8.955 0 0 0-2.423 6.383 8.983 8.983 0 0 0 2.423 6.37 7.847 7.847 0 0 0 5.973 2.617 8.62 8.62 0 0 0 3.72-.775 13.333 13.333 0 0 0 3.283-2.362l1.612 1.708a13.336 13.336 0 0 1-3.841 2.761 11.516 11.516 0 0 1-4.847.933l.012-.024zm-33.5-.352V16.954h2.423v9.629h12.54v-9.629h2.423v21.692h-2.423v-9.762h-12.504v9.762l-2.459.024zm-20.295-7.945h9.887l-4.919-11.082-4.968 11.082zm-6.058 7.933l9.887-21.8h2.351l9.886 21.8h-2.617l-2.532-5.74h-11.813l-2.617 5.728-2.545.012zm-10.662.376a13.025 13.025 0 0 1-9.062-3.513l1.466-1.695c2.029 2 4.77 3.116 7.621 3.1a5.6 5.6 0 0 0 3.562-1.21 3.64 3.64 0 0 0 1.49-3.028 3.268 3.268 0 0 0-1.563-2.968 7.964 7.964 0 0 0-4.241-.993h-2.423v-2.01h2.423a6.29 6.29 0 0 0 3.829-1.103 3.533 3.533 0 0 0 1.466-2.992 3.382 3.382 0 0 0-1.418-2.797 5.415 5.415 0 0 0-3.513-1.102 9.245 9.245 0 0 0-6.385 2.422l-1.43-1.708a12.672 12.672 0 0 1 3.55-2.168c1.386-.5 2.852-.741 4.325-.714a8.205 8.205 0 0 1 5.271 1.647 5.102 5.102 0 0 1 2.047 4.154c0 2.422-1.324 4.126-3.974 5.111a7.267 7.267 0 0 1 3.32 2.047 4.843 4.843 0 0 1 1.212 3.38 5.54 5.54 0 0 1-2.133 4.408 8.275 8.275 0 0 1-5.464 1.768l.024-.036zM110.34 28.303h6.664v-9.157h-6.664a6.421 6.421 0 0 0-4.167 1.212 4.047 4.047 0 0 0-1.503 3.306 4.03 4.03 0 0 0 1.575 3.33 6.399 6.399 0 0 0 4.095 1.212v.097zm-8.99 10.283l6.785-8.709a7.831 7.831 0 0 1-4.301-2.155 5.877 5.877 0 0 1-1.623-4.263 5.765 5.765 0 0 1 1.647-4.348 8.566 8.566 0 0 1 6.325-2.193h9.269v21.728h-2.424v-8.308h-6.251l-6.458 8.308-2.969-.06zm-16.49-9.823h5.392a6.678 6.678 0 0 0 4.326-1.32 4.312 4.312 0 0 0 1.635-3.525 4.2 4.2 0 0 0-1.575-3.488 6.763 6.763 0 0 0-4.265-1.21H84.86v9.543zm-2.423 9.883V16.954h8.13a8.919 8.919 0 0 1 5.925 1.853 6.31 6.31 0 0 1 2.193 5.087 6.188 6.188 0 0 1-2.423 5.232 9.695 9.695 0 0 1-6.058 1.866H84.86v7.654h-2.424zM268.03 64.638h5.768l-2.884-7.037-2.884 7.037zm-8.566 9.084l9.306-21.801h4.434l9.305 21.8h-4.992l-1.987-4.844h-9.172l-1.987 4.845h-4.907zm-11.849 0V56.438h-6.603V52.03h17.98v4.408h-6.603v17.296l-4.774-.012zm-19.676-10.755h3.792a3.96 3.96 0 0 0 2.774-.933c.332-.308.593-.684.766-1.102.174-.418.256-.868.24-1.32a2.965 2.965 0 0 0-1.03-2.423 4.29 4.29 0 0 0-2.847-.847h-3.695v6.625zm-4.774 10.755V52.03h8.845a8.485 8.485 0 0 1 6.058 2.083 7.133 7.133 0 0 1 2.229 5.486 6.79 6.79 0 0 1-2.423 5.62 9.697 9.697 0 0 1-6.289 1.999h-3.634v6.516l-4.786-.012zm-19.143-6.056a6.198 6.198 0 0 0 4.713 1.986 6.062 6.062 0 0 0 4.689-1.974 6.87 6.87 0 0 0 1.829-4.845 6.774 6.774 0 0 0-1.866-4.844 6.176 6.176 0 0 0-4.713-1.987 6.063 6.063 0 0 0-4.677 1.962 7.266 7.266 0 0 0 0 9.69l.025.012zm12.891 3.1a12.117 12.117 0 0 1-16.49 0 11.286 11.286 0 0 1 .085-15.818 12.12 12.12 0 0 1 16.502 0 11.273 11.273 0 0 1 0 15.915l-.097-.097zm-40.698 3.004V52.03h18.102v21.704h-4.774V56.342h-8.554v17.392l-4.774.036zm-11.389.364a10.71 10.71 0 0 1-7.96-3.234 11.579 11.579 0 0 1 0-15.951 10.908 10.908 0 0 1 8.118-3.246 11.1 11.1 0 0 1 4.749.908 13.686 13.686 0 0 1 3.635 2.616l-2.847 3.295a11.19 11.19 0 0 0-2.617-1.853 7.093 7.093 0 0 0-2.969-.57 5.826 5.826 0 0 0-4.507 1.962 7.484 7.484 0 0 0 0 9.69 5.816 5.816 0 0 0 4.507 1.986 6.845 6.845 0 0 0 3.017-.618 11.475 11.475 0 0 0 2.69-1.925l3.041 3.258a11.557 11.557 0 0 1-3.829 2.785c-1.608.645-3.332.95-5.064.897h.036zm-31.538-.364V52.03h4.774v9.483l8.808-9.483h5.768l-8.833 9.205 9.232 12.499h-5.731l-6.736-9.241-2.532 2.567v6.638l-4.75.072zm-16.962-8.962v-4.01h8.869a6.66 6.66 0 0 0-2.266-3.512 6.059 6.059 0 0 0-3.877-1.344 8.335 8.335 0 0 0-5.67 2.289l-2.642-3.282a11.708 11.708 0 0 1 8.288-3.283 11.332 11.332 0 0 1 10.418 6.91 11.319 11.319 0 0 1-2.288 12.287 10.68 10.68 0 0 1-7.949 3.234 13.195 13.195 0 0 1-5.173-.896 10.993 10.993 0 0 1-3.877-2.761l2.944-3.186a11.402 11.402 0 0 0 2.787 1.938c.995.44 2.074.655 3.162.63a5.924 5.924 0 0 0 3.913-1.405 6.735 6.735 0 0 0 2.218-3.634l-8.857.025zm-28.376-1.83h3.78a3.963 3.963 0 0 0 2.775-.932 3.161 3.161 0 0 0 1.005-2.422 2.966 2.966 0 0 0-1.03-2.423 4.29 4.29 0 0 0-2.847-.847H88l-.049 6.625zm-4.786 10.756V52.03h8.87a8.483 8.483 0 0 1 6.057 2.083 7.12 7.12 0 0 1 2.23 5.486 6.786 6.786 0 0 1-2.424 5.62 9.695 9.695 0 0 1-6.288 1.999h-3.635v6.516h-4.81zm-13.715 0V56.438h-6.603V52.03h17.98v4.408h-6.603v17.296h-4.774zm-27.297 0V52.03h4.773v8.587h8.809V52.03h4.773v21.704h-4.773v-8.709h-8.809v8.709h-4.773zm-19.386 0V52.03h16.308v4.25H27.443v4.397H37.68v4.252H27.443v4.554h11.789v4.25H22.766zm-6.615 4.517v-4.517H0V52.03h4.774v17.453h8.554V52.03H18.1v17.453h2.569l-.618 8.83-3.901-.062zM300.369.458l73.193 42.754 7.439 4.348-7.439 4.348-57.867 33.804V74.05l45.351-26.489-60.677-35.438V.458z" fill="#000"/><path fill-rule="evenodd" clip-rule="evenodd" d="M300.526 17.487l10.069 5.729 34.857 19.778h-34.845v45.758l-10.069 5.79V17.487" fill="#000"/><path fill-rule="evenodd" clip-rule="evenodd" d="M315.695 56.111h23.432l14.721-8.611-38.153-.049v8.66z" fill="#E30613"/></svg>