<svg width="220" height="204" viewBox="0 0 220 204" fill="none" xmlns="http://www.w3.org/2000/svg"><path d="M138.928 106.117l-2.099-2.098L110 130.848l-24.73-24.731L110 81.387l26.829 26.829 2.099-2.099-2.099-2.098 2.099 2.098 2.098-2.098L110 72.843l-33.124 33.274L110 139.242l33.274-33.125-2.248-2.098-2.098 2.098z" fill="#E40421"/><path d="M124.239 62.95l-2.099-2.247L110 72.843l-10.042-9.892L110 52.909l12.14 12.14 2.099-2.098-2.099-2.248 2.099 2.248 2.248-2.248L110 44.365 91.564 62.951 110 81.386l18.585-18.435-2.098-2.248-2.248 2.248zm43.316 43.167l-2.248-2.098-12.14 12.141-9.893-10.043 9.893-10.042 12.14 12.141 2.248-2.099-2.248-2.098 2.248 2.098 2.099-2.098-16.487-16.487-18.436 18.585 18.436 18.436 18.585-18.436-2.098-2.098-2.099 2.098zm-43.316 43.167l-2.099-2.099L110 159.326l-10.042-10.042L110 139.242l12.14 12.14 2.099-2.098-2.099-2.099 2.099 2.099 2.248-2.099L110 130.848l-18.436 18.436L110 167.719l18.585-18.435-2.098-2.099-2.248 2.099zm-43.166-43.167l-2.098-2.098-12.14 12.141-10.043-10.043 10.042-10.042 12.14 12.141 2.1-2.099-2.1-2.098 2.1 2.098 2.097-2.098-16.337-16.487L48.4 106.117l18.435 18.436 18.436-18.436-2.099-2.098-2.098 2.098z" fill="#FCBF00"/><path d="M161.347 13.474l-6.147 6.148 6.147 6.146 6.147-6.147-6.147-6.147zm1.924 39.297l-6.146 6.148 6.148 6.146 6.146-6.148-6.148-6.146zm-89.34-16.205l-6.148 6.146 6.147 6.147 6.147-6.146-6.146-6.147zM43.775 140.71l-6.147 6.147 6.147 6.147 6.147-6.147-6.147-6.147zm6.077-70.991l-6.148 6.146 6.146 6.148 6.148-6.146-6.146-6.148zm25.55 78.604l-6.148 6.146 6.147 6.148 6.147-6.146-6.146-6.148zm66.48 11.451l-6.147 6.147 6.147 6.147 6.147-6.147-6.147-6.147zm40.676-26.241l-6.147 6.148 6.148 6.146 6.146-6.148-6.147-6.146z" fill="#E40421"/></svg>