<svg width="388" height="367" viewBox="0 0 388 367" fill="none" xmlns="http://www.w3.org/2000/svg"><g clip-path="url(#a)"><path d="M388 348.748c0-25.314-1.825-44.761-13.416-70.836-15.241 3.259-30.053 4.78-44.972 4.78-66.33 0-143.179-28.682-209.616-28.682-31.234 0-73.951 6.627-111.732 45.196C1.074 320.392 0 339.839 0 363.741c17.817-9.126 38.102-18.035 65.257-25.314l46.367-53.562 38.102 44.001c61.286 3.694 105.184 26.401 173.017 26.401 19.534 0 41-1.847 65.257-6.519zM126.221 235.323c68.155 0 143.286 27.487 204.142 27.487 13.739 0 25.76-1.086 35.205-2.933-18.139-33.028-47.118-61.275-75.453-85.938-67.833-59.428-88.119-69.423-88.119-98.757l22.432-24.12L193.946 0l-30.482 51.063 22.433 24.227c0 27.922-19.213 40.416-79.747 95.064-37.673 33.788-66.008 63.448-84.47 98.323 24.687-19.447 58.067-33.354 104.541-33.354zm-14.49 74.096l-25.008 29.008 25.008 28.682 24.686-28.682-24.686-29.008z" fill="#FCBF00"/></g><defs><clipPath id="a"><path fill="#fff" d="M0 0h388v367H0z"/></clipPath></defs></svg>