<svg width="1170" height="291" viewBox="0 0 1170 291" fill="none" xmlns="http://www.w3.org/2000/svg"><rect width="1170" height="291" rx="5" fill="#354A37"/><path d="M411.5 257c61.58 0 111.5-49.92 111.5-111.5S473.08 34 411.5 34 300 83.92 300 145.5 349.92 257 411.5 257z" stroke="#fff" stroke-width="5" stroke-miterlimit="10"/><path d="M411.498 64.79h-.747v8.743h.747V64.79zm0 152.08h-.748v8.743h.748v-8.743zM374.955 83.33l.648-.374-4.372-7.572-.647.373 4.371 7.572zm76.034 131.632l.647-.374-4.372-7.572-.647.374 4.372 7.572zM348.847 109.688l.374-.647-7.572-4.372-.374.647 7.572 4.372zm131.743 76.036l.374-.647-7.572-4.372-.374.647 7.572 4.372zm-141.134-40.896h-8.744v.747h8.744v-.747zm152.081 0h-8.744v.747h8.744v-.747zm-142.285 36.51l-.374-.647-7.572 4.372.374.647 7.572-4.372zm131.675-75.993l-.373-.647-7.572 4.372.373.647 7.572-4.372zM375.596 207.457l-.647-.374-4.372 7.572.648.374 4.371-7.572zm76.07-131.724l-.647-.374-4.372 7.573.647.373 4.372-7.572zM402.899 58.44v-1.645h2.168v-8.22c-.822.374-1.57.673-2.392.971V47.53c.822-.225 1.719-.673 2.616-1.196h1.868v10.462h2.167v1.645h-6.427zm13.076-12.259c1.121 0 2.018.374 2.69 1.046.673.673.972 1.645.972 2.915 0 .299 0 .523-.075.747-.075.224-.075.449-.149.673a2.26 2.26 0 0 1-.299.598c-.15.224-.225.373-.299.523-.075.15-.225.299-.374.523a2.77 2.77 0 0 1-.374.448l-.448.449-2.391 2.54h4.409v1.72h-7.025v-1.495l3.512-3.886c.299-.3.449-.523.598-.673.075-.15.224-.299.449-.523.149-.224.298-.448.373-.523.075-.15.15-.299.15-.523.074-.224.074-.374.074-.598 0-.15 0-.374-.074-.673-.075-.299-.15-.598-.225-.747-.149-.224-.224-.374-.448-.523a.807.807 0 0 0-.523-.224c-.15-.075-.374-.075-.598-.075-.149 0-.299 0-.448.075-.15 0-.299.075-.449.075-.149.074-.299.074-.448.149-.15.075-.299.075-.448.15-.15.074-.225.149-.374.149-.15.075-.224.15-.299.15-.075.074-.15.074-.224.149-.075.075-.15.075-.15.075h-.074l-.673-1.645c.075 0 .075-.074.149-.149.075-.075.225-.15.524-.299.298-.15.523-.224.822-.374.299-.074.672-.224 1.046-.299.299.075.672.075 1.121.075zm-5.302 198.637c-.972 0-1.794-.224-2.466-.747a4.324 4.324 0 0 1-1.495-2.092c-.299-.897-.448-1.943-.448-3.139 0-.897.074-1.719.299-2.541.224-.747.523-1.495.896-2.093.374-.597.897-1.046 1.57-1.419.598-.374 1.345-.524 2.092-.524 1.271 0 2.317.374 3.064 1.047l-.672 1.569c-.748-.598-1.495-.822-2.392-.822-.747 0-1.345.374-1.868 1.046-.523.748-.747 1.644-.822 2.691.598-.822 1.42-1.271 2.391-1.271 1.196 0 2.168.374 2.84 1.121.673.747 1.046 1.719 1.046 2.915 0 1.195-.373 2.167-1.121 2.989-.747.897-1.718 1.27-2.914 1.27zm-.075-1.793c.598 0 1.046-.224 1.42-.673.374-.448.523-.971.523-1.644 0-.672-.149-1.27-.523-1.644-.299-.448-.822-.673-1.42-.673-.672 0-1.196.225-1.569.673-.374.448-.598.972-.598 1.719 0 .374.075.672.149.971.15.299.299.524.449.748.224.224.448.299.672.448.374 0 .673.075.897.075zm-91.022-91.995c-.897 0-1.943-.299-3.139-.822l.748-1.719c.747.449 1.419.747 2.167.747a2.38 2.38 0 0 0 1.046-.224c.299-.149.598-.373.897-.598.224-.299.448-.672.598-1.121.149-.448.224-1.046.224-1.644v-.224c-.523.747-1.345 1.121-2.392 1.121-1.195 0-2.092-.374-2.839-1.121-.673-.747-1.047-1.644-1.047-2.84 0-1.195.374-2.167 1.121-2.914.748-.748 1.794-1.121 2.99-1.121 1.345 0 2.391.523 3.138 1.494.748.972 1.121 2.467 1.121 4.41 0 1.27-.149 2.466-.523 3.437-.373.972-.897 1.794-1.569 2.317-.747.598-1.57.822-2.541.822zm.299-6.203c.672 0 1.196-.224 1.569-.598.374-.373.598-.971.598-1.793 0-.598-.149-1.046-.523-1.495-.374-.373-.822-.598-1.495-.598-.672 0-1.121.225-1.569.598a2.463 2.463 0 0 0-.598 1.644c0 .673.15 1.196.523 1.57.374.448.897.672 1.495.672zm183.314 6.278c-.448 0-.897 0-1.345-.075a11.736 11.736 0 0 1-1.046-.224c-.299-.075-.523-.224-.747-.299-.225-.075-.374-.224-.449-.224l-.149-.075.672-1.569c.075.075.224.149.449.224.224.075.523.224 1.046.374.448.149.897.224 1.345.224.747 0 1.345-.15 1.719-.523.374-.374.598-.822.598-1.42s-.299-1.121-.822-1.42c-.523-.299-1.271-.448-2.242-.448h-.822v-1.794h.598c1.046 0 1.793-.149 2.241-.448.449-.299.673-.748.673-1.495 0-.448-.224-.822-.598-1.046-.448-.225-.897-.374-1.42-.374-.224 0-.523 0-.747.075-.224.074-.448.074-.673.149-.224.075-.373.15-.448.224-.149.075-.224.15-.374.225-.149.074-.224.149-.299.149l-.971-1.495c.673-.448 1.196-.747 1.719-.896.523-.15 1.195-.225 2.018-.225.523 0 .971.075 1.419.225.449.149.897.299 1.271.598.374.224.672.597.897.971.224.374.299.897.299 1.42 0 .448-.075.822-.225 1.196a2.474 2.474 0 0 1-.747 1.046c-.374.299-.747.523-1.27.598.822.149 1.42.448 1.868 1.046.448.523.672 1.196.672 1.868 0 .523-.074 1.047-.298 1.495a3.332 3.332 0 0 1-.897 1.121 4.165 4.165 0 0 1-1.271.673c-.598.074-1.121.149-1.644.149zM455.663 72.86v-1.644h2.167v-8.22c-.822.373-1.569.672-2.392.971v-1.943c.823-.224 1.719-.672 2.616-1.195h1.868V71.29h2.168v1.644h-6.427v-.075zm32.51 16.591c1.121 0 2.017.374 2.69 1.046.673.673.971 1.644.971 2.915 0 .299 0 .523-.074.747-.075.224-.075.448-.15.673a2.201 2.201 0 0 1-.299.598 4.333 4.333 0 0 0-.299.523c-.074.15-.224.298-.373.523-.15.224-.299.373-.374.448l-.448.448-2.392 2.541h4.409v1.719h-7.024v-1.494l3.512-3.887c.299-.298.448-.523.598-.672.075-.15.224-.299.448-.523.15-.224.299-.449.374-.523.075-.15.149-.3.149-.523.075-.225.075-.374.075-.598 0-.15 0-.374-.075-.673-.074-.299-.149-.598-.224-.747-.149-.224-.224-.374-.448-.523a.809.809 0 0 0-.523-.224c-.15-.075-.374-.075-.598-.075-.15 0-.299 0-.449.075-.149 0-.298.074-.448.074-.149.075-.299.075-.448.15-.15.074-.299.074-.449.15-.149.074-.224.149-.373.149-.15.074-.225.15-.299.15-.075.074-.15.074-.224.149-.075.074-.15.074-.15.074h-.075l-.672-1.644c.074 0 .074-.075.149-.15.075-.074.224-.149.523-.298.299-.15.523-.224.822-.374.299-.075.673-.224 1.047-.299.299.15.672.075 1.121.075zm1.642 111.201v-3.139h-5.082v-1.569l4.858-7.324h2.391v7.249h1.869v1.644h-1.869v3.139h-2.167zm-2.84-4.857h2.84v-4.559c-.149.224-1.046 1.719-2.84 4.559zm-28.248 34.227c-.672 0-1.345-.15-2.017-.449-.673-.299-1.271-.672-1.794-1.195l1.121-1.57c.374.449.822.822 1.27 1.047.449.224.972.373 1.42.373.598 0 1.121-.224 1.57-.598.448-.373.672-.971.672-1.719 0-.597-.149-1.12-.448-1.494-.299-.449-.673-.598-1.196-.598-.672 0-1.121.149-1.42.523l-2.092-.299v-6.203h6.726v1.794h-4.858l-.075 3.064c.374-.523 1.121-.747 2.168-.747.896 0 1.718.373 2.391 1.195.673.748.972 1.719.972 2.915 0 .523-.075 1.046-.225 1.495a2.81 2.81 0 0 1-.672 1.121c-.299.298-.598.597-.972.822-.373.224-.747.373-1.195.523-.449-.075-.897 0-1.346 0zm-99.468-.224l4.559-10.313h-5.979v-1.719h8.37v1.644l-4.783 10.463h-2.167v-.075zm-25.485-28.772a5.801 5.801 0 0 1-2.093-.374c-.598-.298-1.121-.672-1.494-1.195-.374-.523-.523-1.121-.523-1.869 0-.672.149-1.27.523-1.793a4.112 4.112 0 0 1 1.494-1.271c-1.195-.672-1.793-1.644-1.793-2.765 0-.971.373-1.793 1.046-2.316.747-.598 1.644-.822 2.765-.822 1.196 0 2.167.299 2.84.896.672.598 1.046 1.42 1.046 2.392 0 1.196-.598 2.167-1.793 2.69.597.299 1.046.747 1.419 1.271.374.597.598 1.195.598 1.793 0 .673-.224 1.345-.598 1.868-.373.524-.896.897-1.494 1.196-.523.224-1.196.299-1.943.299zm0-1.793c.598 0 1.121-.15 1.42-.449.373-.299.523-.747.523-1.345 0-.448-.15-.897-.523-1.345-.374-.449-.822-.673-1.345-.822-.598.149-1.047.373-1.42.822a2.04 2.04 0 0 0-.598 1.42c0 .523.149.971.523 1.27.299.299.822.449 1.42.449zm0-5.456c.523-.149.971-.374 1.27-.747.299-.299.449-.748.449-1.196 0-.448-.15-.747-.523-.971-.299-.225-.748-.374-1.271-.374-.523 0-.971.149-1.27.374-.299.224-.449.597-.449 1.121 0 .448.15.822.449 1.195.373.15.747.449 1.345.598zm-11.357-91.472v-1.644h2.167v-8.22c-.822.373-1.569.672-2.391.97V91.47c.822-.224 1.719-.673 2.615-1.196h1.869v10.463h2.167v1.644h-6.427v-.075zm13.452.224c-1.346 0-2.392-.598-3.139-1.719-.747-1.12-1.121-2.69-1.121-4.633s.374-3.438 1.121-4.559c.747-1.046 1.793-1.644 3.139-1.644 1.345 0 2.391.523 3.138 1.644.748 1.121 1.121 2.616 1.121 4.484 0 1.27-.149 2.392-.448 3.288-.299.972-.822 1.644-1.42 2.242-.747.598-1.495.897-2.391.897zm0-1.868c1.345 0 2.092-1.495 2.092-4.559 0-.598 0-1.12-.075-1.644-.074-.523-.149-.971-.299-1.345-.149-.448-.373-.748-.672-.972-.299-.224-.598-.373-.972-.373-.373 0-.747.15-1.046.373-.299.224-.523.598-.672.972-.15.448-.299.897-.374 1.345-.075.523-.075 1.046-.075 1.644 0 .673 0 1.27.075 1.794.075.523.149.971.374 1.42.149.448.373.747.672.971.224.299.598.374.972.374zm19.955-28.772v-1.644h2.168v-8.22c-.823.373-1.57.672-2.392.97v-2.017c.822-.224 1.719-.673 2.616-1.196h1.868v10.463h2.167v1.644h-6.427zm10.613 0v-1.644h2.167v-8.22c-.822.373-1.569.672-2.391.97v-2.017c.822-.224 1.719-.673 2.616-1.196h1.868v10.463h2.167v1.644h-6.427z" fill="#fff"/><path d="M411.119 150.208a5.007 5.007 0 1 0 0-10.013 5.007 5.007 0 0 0 0 10.013z" fill="url(#a)"/><path d="M410.523 156.56c-1.196 0-2.093-1.046-2.093-2.316V99.241h4.185v55.003c0 1.27-.897 2.316-2.092 2.316z" fill="#fff"/><path d="M464.945 112.279l-.129-.21-.212.126-68.85 40.86-.002.001c-.679.389-.734 1.233-.39 1.835.359.628 1.178.916 1.835.541l.004-.002 68.854-40.862.218-.13-.133-.216-1.195-1.943z" fill="#FDCD53" stroke="#FDCD53" stroke-width=".5"/><path d="M411.123 148.713a3.512 3.512 0 1 0 0-7.024 3.512 3.512 0 1 0 0 7.024z" fill="#FDCD53"/><path d="M754.5 257c61.58 0 111.5-49.92 111.5-111.5S816.08 34 754.5 34 643 83.92 643 145.5 692.92 257 754.5 257z" stroke="#fff" stroke-width="5" stroke-miterlimit="10"/><path d="M754.504 64.79h-.748v8.743h.748V64.79zm-.001 152.079h-.747v8.744h.747v-8.744zM717.961 83.33l.647-.374-4.371-7.572-.648.373 4.372 7.572zm76.03 131.632l.647-.374-4.372-7.572-.647.374 4.372 7.572zM691.853 109.688l.374-.647-7.572-4.372-.374.647 7.572 4.372zm131.742 76.036l.374-.647-7.572-4.372-.374.647 7.572 4.372zm-141.133-40.896h-8.744v.747h8.744v-.747zm152.078-.001h-8.744v.748h8.744v-.748zm-142.283 36.51l-.373-.647-7.572 4.372.373.647 7.572-4.372zm131.675-75.992l-.374-.648-7.572 4.372.374.647 7.572-4.371zM718.603 207.456l-.647-.374-4.372 7.572.647.374 4.372-7.572zm76.07-131.724l-.648-.373-4.371 7.572.647.373 4.372-7.572zm-48.768-17.294v-1.645h2.168v-8.22a32.41 32.41 0 0 1-2.392.971v-2.017c.822-.225 1.719-.673 2.616-1.196h1.868v10.462h2.167v1.645h-6.427zm13.078-12.257c1.121 0 2.018.374 2.691 1.047.672.672.971 1.644.971 2.914 0 .3 0 .523-.075.748-.074.224-.074.448-.149.672a2.26 2.26 0 0 1-.299.598c-.15.224-.224.374-.299.523-.075.15-.224.3-.374.523-.149.224-.299.374-.373.449l-.449.448-2.391 2.541h4.409v1.719h-7.025v-1.495l3.513-3.886c.299-.299.448-.523.597-.672.075-.15.225-.3.449-.524.149-.224.299-.448.374-.523.074-.15.149-.299.149-.523.075-.224.075-.373.075-.598 0-.15 0-.373-.075-.672-.075-.3-.149-.598-.224-.748-.15-.224-.224-.373-.449-.523a.805.805 0 0 0-.523-.224c-.149-.075-.373-.075-.598-.075-.149 0-.299 0-.448.075-.149 0-.299.075-.448.075-.15.075-.299.075-.449.15-.149.074-.299.074-.448.149-.15.075-.224.15-.374.15-.149.074-.224.149-.299.149-.074.074-.149.074-.224.15-.075.074-.149.074-.149.074h-.075l-.673-1.644c.075 0 .075-.075.15-.15.074-.074.224-.15.523-.299.299-.15.523-.224.822-.373.299-.075.673-.224 1.046-.3.299.075.673.075 1.121.075zm-5.305 198.638c-.972 0-1.794-.224-2.466-.747a4.322 4.322 0 0 1-1.495-2.093c-.299-.896-.448-1.943-.448-3.138 0-.897.074-1.719.298-2.541.225-.748.524-1.495.897-2.093.374-.598.897-1.046 1.57-1.42.597-.373 1.345-.523 2.092-.523 1.271 0 2.317.374 3.064 1.046l-.672 1.57c-.748-.598-1.495-.822-2.392-.822-.747 0-1.345.373-1.868 1.046-.523.747-.747 1.644-.822 2.69.598-.822 1.42-1.27 2.391-1.27 1.196 0 2.167.374 2.84 1.121s1.046 1.719 1.046 2.914c0 1.196-.373 2.168-1.121 2.99-.747.896-1.719 1.27-2.914 1.27zm-.075-1.793c.598 0 1.046-.225 1.42-.673.374-.448.523-.972.523-1.644 0-.673-.149-1.271-.523-1.644-.299-.449-.822-.673-1.42-.673-.673 0-1.196.224-1.569.673-.374.448-.598.971-.598 1.719 0 .373.075.672.149.971.15.299.299.523.449.747.224.225.448.299.672.449.374 0 .673.075.897.075zm-91.022-91.996c-.896 0-1.943-.299-3.138-.822l.747-1.719c.747.449 1.42.747 2.167.747.374 0 .747-.074 1.046-.224.299-.149.598-.373.897-.598.224-.299.449-.672.598-1.121.149-.448.224-1.046.224-1.644v-.224c-.523.747-1.345 1.121-2.391 1.121-1.196 0-2.093-.374-2.84-1.121-.673-.747-1.046-1.644-1.046-2.84 0-1.195.373-2.167 1.121-2.914.747-.748 1.793-1.121 2.989-1.121 1.345 0 2.391.523 3.139 1.494.747.972 1.121 2.467 1.121 4.41 0 1.27-.15 2.466-.523 3.437-.374.972-.897 1.794-1.57 2.317-.747.598-1.569.822-2.541.822zm.299-6.203c.673 0 1.196-.224 1.57-.598.373-.373.597-.971.597-1.793 0-.598-.149-1.046-.523-1.495-.373-.373-.822-.598-1.494-.598-.673 0-1.121.225-1.57.598a2.468 2.468 0 0 0-.598 1.644c0 .673.15 1.196.524 1.57.373.448.896.672 1.494.672zm183.319 6.278c-.448 0-.897 0-1.345-.075a12.021 12.021 0 0 1-1.046-.224c-.299-.075-.524-.224-.748-.299-.224-.075-.373-.224-.448-.224l-.15-.075.673-1.569c.075.075.224.149.448.224.225.075.524.224 1.047.374.448.149.896.224 1.345.224.747 0 1.345-.15 1.719-.523.373-.374.598-.822.598-1.42s-.299-1.121-.823-1.42c-.523-.299-1.27-.448-2.241-.448h-.823v-1.794h.598c1.047 0 1.794-.15 2.242-.448.449-.299.673-.748.673-1.495 0-.448-.224-.822-.598-1.046-.448-.225-.897-.374-1.42-.374-.224 0-.523 0-.747.075-.224.074-.449.074-.673.149-.224.075-.373.15-.448.224-.15.075-.224.15-.374.225-.149.074-.224.149-.299.149l-.971-1.495c.672-.448 1.195-.747 1.719-.896.523-.15 1.195-.225 2.017-.225.523 0 .972.075 1.42.225.449.149.897.299 1.271.598.373.224.672.597.896.971.225.374.299.897.299 1.42 0 .448-.074.822-.224 1.196a2.474 2.474 0 0 1-.747 1.046c-.374.299-.747.523-1.271.598.822.149 1.42.448 1.869 1.046.448.523.672 1.196.672 1.868 0 .523-.074 1.047-.299 1.495a3.317 3.317 0 0 1-.896 1.121 4.14 4.14 0 0 1-1.271.672c-.598.075-1.121.15-1.644.15zM798.67 72.86v-1.643h2.167v-8.22c-.822.373-1.57.672-2.392.97v-1.942c.822-.225 1.719-.673 2.616-1.196h1.868V71.29h2.167v1.644h-6.426v-.074zm32.507 16.591c1.12 0 2.017.374 2.69 1.046.672.673.971 1.644.971 2.915 0 .299 0 .523-.074.747-.075.224-.075.448-.15.673a2.231 2.231 0 0 1-.299.598 4.333 4.333 0 0 0-.299.523c-.074.15-.224.299-.373.523-.15.224-.299.373-.374.448l-.448.448-2.392 2.541h4.409v1.719h-7.024v-1.494l3.512-3.886c.299-.3.448-.524.598-.673.075-.15.224-.299.448-.523.15-.224.299-.448.374-.523.075-.15.149-.3.149-.523.075-.225.075-.374.075-.598 0-.15 0-.374-.075-.673-.074-.299-.149-.598-.224-.747-.149-.224-.224-.374-.448-.523a.81.81 0 0 0-.523-.224c-.15-.075-.374-.075-.598-.075-.15 0-.299 0-.449.075-.149 0-.299.074-.448.074-.149.075-.299.075-.448.15-.15.074-.299.074-.449.15-.149.074-.224.149-.373.149-.15.074-.225.15-.299.15-.075.074-.15.074-.225.149-.074.074-.149.074-.149.074h-.075l-.672-1.644c.074 0 .074-.075.149-.15.075-.074.224-.149.523-.298.299-.15.523-.224.822-.374.299-.075.673-.224 1.047-.299.298.15.672.075 1.121.075zm1.643 111.201v-3.138h-5.082v-1.57l4.857-7.324h2.392v7.249h1.868v1.645h-1.868v3.138h-2.167zm-2.84-4.857h2.84v-4.559c-.15.224-1.047 1.719-2.84 4.559zm-28.249 34.227a4.935 4.935 0 0 1-2.018-.448c-.672-.299-1.27-.673-1.793-1.196l1.121-1.569c.374.448.822.822 1.27 1.046.449.224.972.373 1.42.373.598 0 1.121-.224 1.57-.597.448-.374.672-.972.672-1.719 0-.598-.149-1.121-.448-1.495-.299-.448-.673-.598-1.196-.598-.672 0-1.121.15-1.42.523l-2.092-.299v-6.202h6.726v1.793h-4.858l-.075 3.064c.374-.523 1.121-.747 2.167-.747.897 0 1.719.374 2.392 1.196.673.747.971 1.718.971 2.914 0 .523-.074 1.046-.224 1.495a2.81 2.81 0 0 1-.672 1.121c-.299.299-.598.598-.972.822-.374.224-.747.374-1.196.523-.448-.075-.896 0-1.345 0zm-99.469-.224l4.558-10.313h-5.978v-1.719h8.37v1.644l-4.783 10.462h-2.167v-.074zm-25.484-28.772a5.801 5.801 0 0 1-2.093-.374c-.598-.299-1.121-.672-1.494-1.195-.374-.524-.524-1.121-.524-1.869 0-.672.15-1.27.524-1.793a4.112 4.112 0 0 1 1.494-1.271c-1.195-.672-1.793-1.644-1.793-2.765 0-.971.373-1.793 1.046-2.316.747-.598 1.644-.823 2.765-.823 1.196 0 2.167.299 2.84.897.672.598 1.046 1.42 1.046 2.392 0 1.195-.598 2.167-1.794 2.69.598.299 1.047.747 1.42 1.27.374.598.598 1.196.598 1.794 0 .673-.224 1.345-.598 1.868-.373.523-.896.897-1.494 1.196-.523.224-1.196.299-1.943.299zm0-1.794c.598 0 1.121-.149 1.42-.448.373-.299.523-.747.523-1.345 0-.449-.15-.897-.523-1.345-.374-.449-.822-.673-1.346-.822-.597.149-1.046.373-1.419.822a2.038 2.038 0 0 0-.598 1.42c0 .523.149.971.523 1.27.299.299.822.448 1.42.448zm0-5.455c.523-.149.971-.374 1.27-.747.299-.299.449-.748.449-1.196 0-.448-.15-.747-.524-.972-.298-.224-.747-.373-1.27-.373s-.972.149-1.27.373c-.299.225-.449.598-.449 1.121 0 .449.15.822.449 1.196.373.15.747.449 1.345.598zm-11.358-91.472v-1.644h2.168v-8.22a32.41 32.41 0 0 1-2.392.971V91.47c.822-.224 1.719-.672 2.616-1.196h1.868v10.463h2.167v1.644h-6.427v-.075zm13.453.224c-1.345 0-2.391-.597-3.138-1.718-.748-1.121-1.121-2.69-1.121-4.634 0-1.943.373-3.437 1.121-4.558.747-1.047 1.793-1.644 3.138-1.644 1.346 0 2.392.523 3.139 1.644.748 1.12 1.121 2.615 1.121 4.484 0 1.27-.149 2.39-.448 3.288-.299.971-.822 1.644-1.42 2.242-.747.598-1.495.896-2.392.896zm0-1.868c1.346 0 2.093-1.495 2.093-4.558 0-.598 0-1.121-.075-1.645-.074-.523-.149-.971-.299-1.345-.149-.448-.373-.747-.672-.971-.299-.224-.598-.374-.972-.374-.373 0-.747.15-1.046.374-.299.224-.523.598-.673.971-.149.449-.299.897-.373 1.345-.075.523-.075 1.047-.075 1.645 0 .672 0 1.27.075 1.793.074.523.149.972.373 1.42.15.448.374.747.673.971.224.299.598.374.971.374zm19.951-28.771v-1.645h2.167v-8.22a32.05 32.05 0 0 1-2.391.971V60.98c.822-.224 1.718-.673 2.615-1.196h1.869v10.462h2.167v1.644h-6.427zm10.611 0v-1.645h2.167v-8.22a32.05 32.05 0 0 1-2.391.971v-2.018c.822-.224 1.719-.672 2.616-1.195h1.868v10.462h2.167v1.644h-6.427z" fill="#fff"/><path d="M754.13 150.208a5.007 5.007 0 1 0 0-10.015 5.007 5.007 0 0 0 0 10.015z" fill="url(#b)"/><path d="M746.354 154.842c-.897-.822-.822-2.168 0-3.139l36.843-40.879 3.138 2.84-36.842 40.879c-.897.896-2.242 1.121-3.139.299z" fill="#fff"/><path d="M767.304 154.535l.002.001c.657.375 1.476.087 1.835-.542.364-.635.18-1.439-.355-1.885l-.017-.014-.018-.01-68.798-39.891-.214-.125-.127.213-1.195 2.018-.129.217.218.127 68.798 39.891z" fill="#FDCD53" stroke="#FDCD53" stroke-width=".5"/><path d="M754.128 148.713a3.512 3.512 0 1 0 .001-7.025 3.512 3.512 0 0 0-.001 7.025z" fill="#FDCD53"/><defs><radialGradient id="a" cx="0" cy="0" r="1" gradientUnits="userSpaceOnUse" gradientTransform="translate(411.119 145.178) scale(4.98379)"><stop/><stop offset=".302" stop-color="#050505"/><stop offset=".657" stop-color="#131312"/><stop offset="1" stop-color="#282826"/></radialGradient><radialGradient id="b" cx="0" cy="0" r="1" gradientUnits="userSpaceOnUse" gradientTransform="translate(754.13 145.177) scale(4.98379)"><stop/><stop offset=".302" stop-color="#050505"/><stop offset=".657" stop-color="#131312"/><stop offset="1" stop-color="#282826"/></radialGradient></defs></svg>