<svg width="387" height="300" viewBox="0 0 387 300" fill="none" xmlns="http://www.w3.org/2000/svg"><path d="M185.411 50.718h-49.694v49.718h49.694V50.718z" fill="#fff" stroke="#fff" stroke-width="1.557" stroke-miterlimit="10"/><path d="M236.54 50.718h-49.695v49.718h49.695V50.718z" fill="#354A37" stroke="#fff" stroke-width="1.557" stroke-miterlimit="10"/><path d="M285.925 50.718h-49.694v49.718h49.694V50.718zm49.694 0h-49.694v49.718h49.694V50.718z" fill="#354A37" stroke="#fff" stroke-width="1.557" stroke-miterlimit="10"/><path d="M385.313 50.718h-49.694v49.718h49.694V50.718z" fill="#354A37" stroke="#fff" stroke-width="1.557" stroke-miterlimit="10"/><path d="M185.411 100.437h-49.694v49.718h49.694v-49.718z" fill="#fff" stroke="#fff" stroke-width="1.557" stroke-miterlimit="10"/><path d="M236.539 100.437h-49.694v49.718h49.694v-49.718z" fill="#354A37" stroke="#fff" stroke-width="1.557" stroke-miterlimit="10"/><path d="M285.924 100.437H236.23v49.718h49.694v-49.718zm49.694 0h-49.694v49.718h49.694v-49.718zm49.695 0h-49.694v49.718h49.694v-49.718z" fill="#354A37" stroke="#fff" stroke-width="1.557" stroke-miterlimit="10"/><path d="M185.411 149.845h-49.694v49.718h49.694v-49.718z" fill="#fff" stroke="#FDFEFF" stroke-width="1.557" stroke-miterlimit="10"/><path d="M236.54 149.845h-49.695v49.718h49.695v-49.718z" fill="#354A37" stroke="#FEFFFE" stroke-width="1.557" stroke-miterlimit="10"/><path d="M285.925 149.845h-49.694v49.718h49.694v-49.718zm49.694 0h-49.694v49.718h49.694v-49.718z" fill="#354A37" stroke="#fff" stroke-width="1.557" stroke-miterlimit="10"/><path d="M385.313 149.845h-49.694v49.718h49.694v-49.718z" fill="#354A37" stroke="#fff" stroke-width="1.557" stroke-miterlimit="10"/><path d="M185.411 199.563h-49.694v49.719h49.694v-49.719z" fill="#fff" stroke="#fff" stroke-width="1.557" stroke-miterlimit="10"/><path d="M236.54 199.563h-49.695v49.719h49.695v-49.719z" fill="#354A37" stroke="#FEFFFF" stroke-width="1.557" stroke-miterlimit="10"/><path d="M285.925 199.563h-49.694v49.719h49.694v-49.719zm49.694 0h-49.694v49.719h49.694v-49.719z" fill="#354A37" stroke="#fff" stroke-width="1.557" stroke-miterlimit="10"/><path d="M385.313 199.563h-49.694v49.719h49.694v-49.719z" fill="#354A37" stroke="#fff" stroke-width="1.557" stroke-miterlimit="10"/><path d="M185.411 249.282h-49.694V299h49.694v-49.718z" fill="#fff" stroke="#fff" stroke-width="1.557" stroke-miterlimit="10"/><path d="M236.54 249.282h-49.695V299h49.695v-49.718z" fill="#354A37" stroke="#fff" stroke-width="1.557" stroke-miterlimit="10"/><path d="M285.925 249.282h-49.694V299h49.694v-49.718zm49.694 0h-49.694V299h49.694v-49.718z" fill="#354A37" stroke="#fff" stroke-width="1.557" stroke-miterlimit="10"/><path d="M385.313 249.282h-49.694V299h49.694v-49.718z" fill="#354A37" stroke="#fff" stroke-width="1.557" stroke-miterlimit="10"/><path d="M236.54 1h-49.695v49.718h49.695V1z" fill="#fff" stroke="#fff" stroke-width="1.557" stroke-miterlimit="10"/><path d="M285.926 1h-49.695v49.718h49.695V1z" fill="#fff" stroke="#fff" stroke-width="1.557" stroke-miterlimit="10"/><path d="M335.619 1h-49.694v49.718h49.694V1z" fill="#fff" stroke="#fff" stroke-width="1.557" stroke-miterlimit="10"/><path d="M385.313 1h-49.694v49.718h49.694V1z" fill="#fff" stroke="#fff" stroke-width="1.557" stroke-miterlimit="10"/><path d="M206.907 88.084V86.54l2.161-1.853c4.938-4.632 7.099-7.102 7.099-10.19 0-1.853-.926-3.706-3.704-3.706-1.852 0-3.086.926-4.012 1.544l-1.235-2.162c1.235-1.235 3.395-1.853 5.556-1.853 4.321 0 5.864 2.78 5.864 5.559 0 3.706-2.469 6.485-6.79 10.5l-1.544 1.543h8.643v2.162h-12.038zm50.93-3.397c.617.618 2.469 1.236 4.321 1.236 3.395 0 4.321-2.162 4.321-3.706 0-2.78-2.469-4.015-4.938-4.015h-1.544V76.35h1.544c1.852 0 4.321-.927 4.321-3.397 0-1.544-.926-2.78-3.395-2.78-1.544 0-3.087.618-4.013 1.236l-.617-1.853c.926-.618 3.086-1.544 4.938-1.544 3.704 0 5.556 2.161 5.556 4.632 0 1.853-1.235 3.706-3.704 4.632 2.469.618 4.321 2.162 4.321 4.94 0 3.089-2.469 5.868-7.099 5.868-2.16 0-4.012-.617-4.938-1.235l.926-2.162zm55.559 3.397v-5.25h-8.951v-1.853l8.642-12.352h2.778v12.043h2.778v2.162h-2.778v5.25h-2.469zm0-7.412V71.1c-.618 1.236-.926 1.853-1.544 2.78l-4.938 6.793h6.482zm54.632-10.19h-7.408l-.617 4.941h1.543c1.543 0 3.087.309 4.321.927 1.544.926 2.778 2.47 2.778 4.94 0 3.706-3.086 6.485-7.099 6.485-2.161 0-4.013-.617-4.939-1.235l.618-1.853c.926.618 2.469.927 4.012.927 2.47 0 4.63-1.544 4.63-4.324 0-2.47-1.852-4.323-5.556-4.323-1.234 0-1.852 0-2.778.309l1.235-9.264h9.26v2.47z" fill="#fff"/><path d="M163.695 21.382l-3.395 1.852-.618-1.852 4.322-2.47h2.16v19.454h-2.469V21.382zm43.212 16.984v-1.544l2.161-1.853c4.938-4.632 7.099-7.103 7.099-10.19 0-1.854-.926-3.706-3.704-3.706-1.852 0-3.086.926-4.012 1.544l-1.235-2.162c1.235-1.235 3.395-1.853 5.556-1.853 4.321 0 5.864 2.78 5.864 5.559 0 3.705-2.469 6.485-6.79 10.5l-1.544 1.543h8.643v2.162h-12.038zm50.93-3.396c.617.617 2.469 1.234 4.321 1.234 3.395 0 4.321-2.161 4.321-3.705 0-2.78-2.469-4.015-4.938-4.015h-1.544v-1.853h1.544c1.852 0 4.321-.926 4.321-3.397 0-1.544-.926-2.779-3.395-2.779-1.544 0-3.087.618-4.013 1.235l-.617-1.853c.926-.617 3.086-1.543 4.938-1.543 3.704 0 5.556 2.161 5.556 4.632 0 1.852-1.235 3.705-3.704 4.632 2.469.617 4.321 2.161 4.321 4.94 0 3.089-2.469 5.868-7.099 5.868-2.16 0-4.012-.618-4.938-1.235l.926-2.162zm55.559 3.396v-5.25h-8.951v-1.852l8.642-12.353h2.778v12.044h2.778v2.161h-2.778v5.25h-2.469zm0-7.411v-9.573c-.618 1.235-.926 1.852-1.544 2.779l-4.629 6.485h6.173v.309zm54.632-10.191h-7.408l-.617 4.94h1.543c1.543 0 3.087.31 4.321.927 1.544.927 2.778 2.47 2.778 4.941 0 3.706-3.086 6.485-7.099 6.485-2.161 0-4.013-.617-4.939-1.235l.618-1.853c.926.618 2.469.926 4.012.926 2.47 0 4.63-1.544 4.63-4.323 0-2.47-1.852-4.323-5.556-4.323-1.234 0-1.852 0-2.778.309l1.235-9.264h9.26v2.47z" fill="#354A37"/><path d="M214.933 137.493v-5.25h-8.952v-1.853l8.643-12.352h2.778v12.043h2.778v2.162h-2.778v5.25h-2.469zm0-7.412v-9.573c-.618 1.235-.926 1.853-1.544 2.779l-4.63 6.794h6.174zm53.089-10.499h-1.852c-4.013.618-6.173 3.706-6.79 6.794.925-1.235 2.469-2.162 4.629-2.162 3.396 0 5.865 2.471 5.865 6.176 0 3.706-2.469 6.794-6.482 6.794-4.012 0-6.79-3.088-6.79-8.338 0-3.705 1.234-6.793 3.395-8.646 1.543-1.544 3.704-2.471 6.173-2.78h1.852v2.162zm-.926 11.426c0-2.779-1.543-4.323-4.013-4.323-1.543 0-3.086.926-3.703 2.47-.309.309-.309.618-.309 1.235 0 3.088 1.543 5.559 4.321 5.559 2.161-.309 3.704-2.162 3.704-4.941zm37.657 1.235c0-2.47 1.543-4.323 3.704-5.25-2.161-.926-3.087-2.779-3.087-4.323 0-3.088 2.47-5.25 5.865-5.25 3.704 0 5.556 2.471 5.556 4.633 0 1.544-.926 3.396-3.087 4.632 2.469.926 4.013 2.779 4.013 4.941 0 3.396-2.778 5.558-6.482 5.558-4.013.309-6.482-2.162-6.482-4.941zm10.494 0c0-2.47-1.543-3.397-4.321-4.323-2.16.617-3.395 2.162-3.395 4.014 0 1.853 1.543 3.706 4.012 3.706 2.161 0 3.704-1.544 3.704-3.397zm-7.099-9.882c0 1.853 1.544 3.088 3.704 3.706 1.543-.618 3.087-1.853 3.087-3.397 0-1.544-.926-3.088-3.396-3.088-2.16-.309-3.395 1.235-3.395 2.779zm45.065-2.16l-3.395 1.853-.618-1.853 4.321-2.162h2.161v19.455h-2.469v-17.293zm22.531 7.101c0 6.485-2.47 10.191-6.791 10.191-3.704 0-6.482-3.706-6.482-9.882 0-6.485 2.778-10.191 6.791-10.191 4.012 0 6.482 3.706 6.482 9.882zm-10.495.309c0 4.941 1.543 8.029 4.013 8.029 2.778 0 4.012-3.088 4.012-8.029 0-4.632-1.234-8.029-4.012-8.029-2.47 0-4.013 2.779-4.013 8.029z" fill="#fff"/><path d="M217.711 168.065h-1.852c-4.013.618-6.173 3.706-6.791 6.794.926-1.235 2.47-2.162 4.63-2.162 3.396 0 5.865 2.471 5.865 6.176 0 3.706-2.469 6.794-6.482 6.794s-6.79-3.088-6.79-8.338c0-3.705 1.234-6.794 3.395-8.646 1.543-1.544 3.704-2.471 6.173-2.78h1.852v2.162zm-.617 11.117c0-2.779-1.544-4.323-4.013-4.323-1.543 0-3.087.926-3.704 2.47-.309.309-.309.618-.309 1.235 0 3.089 1.544 5.559 4.322 5.559 2.16-.309 3.704-2.162 3.704-4.941z" fill="#FEFEFF"/><path d="M258.454 183.814h2.16c1.543-.308 3.087-.926 4.013-1.852 1.234-1.236 2.16-2.78 2.469-5.25-.926 1.235-2.778 2.162-4.63 2.162-3.395 0-5.864-2.78-5.864-5.868 0-3.706 2.778-6.794 6.481-6.794 4.013 0 6.482 3.088 6.482 8.338 0 4.324-1.543 7.412-3.395 9.264-1.543 1.544-3.704 2.471-5.556 2.471-.926 0-1.852.309-2.469 0v-2.471h.309zm.926-11.425c0 2.47 1.543 4.014 3.703 4.014 1.852 0 3.087-.926 3.704-2.162 0-.308.309-.617.309-.926 0-3.397-1.235-5.867-4.013-5.867-2.16.308-3.703 2.161-3.703 4.941zm42.904-3.396l-3.395 1.853-.618-1.853 4.322-2.162h2.16v19.455h-2.469v-17.293zm9.568 16.983v-1.544l2.16-1.852c4.939-4.633 7.1-7.103 7.1-10.191 0-1.853-.926-3.706-3.704-3.706-1.852 0-3.087.927-4.013 1.544l-.926-1.853c1.235-1.235 3.395-1.853 5.556-1.853 4.321 0 5.865 2.78 5.865 5.559 0 3.706-2.47 6.485-6.791 10.5l-1.543 1.544h8.951v2.161h-12.655v-.309zm41.669-17.601l-3.395 1.852-.617-1.852 4.321-2.162h2.16v19.455h-2.469v-17.293zm21.297-.001h-7.408l-.926 4.941h1.543c1.544 0 3.087.309 4.322.926 1.543.927 2.778 2.471 2.778 4.941 0 3.706-3.087 6.485-7.1 6.485-2.16 0-4.012-.618-4.938-1.235l.617-1.853c.926.618 2.469.926 4.013.926 2.469 0 4.63-1.544 4.63-4.323 0-2.47-1.852-4.323-5.556-4.323-1.235 0-1.852 0-2.778.309l1.234-9.265h9.26v2.471h.309z" fill="#fff"/><path d="M206.599 230.444c0-2.47 1.543-4.323 3.704-5.249-2.161-.927-3.087-2.78-3.087-4.324 0-3.088 2.47-5.249 5.865-5.249 3.704 0 5.556 2.47 5.556 4.632 0 1.544-.926 3.397-3.087 4.632 2.47.926 4.013 2.779 4.013 4.941 0 3.397-2.778 5.558-6.482 5.558-4.013.309-6.482-2.161-6.482-4.941zm10.495-.308c0-2.471-1.544-3.397-4.322-4.324-2.16.618-3.395 2.162-3.395 4.015 0 1.853 1.543 3.705 4.013 3.705 2.16.309 3.704-1.235 3.704-3.396zm-7.408-9.573c0 1.852 1.543 3.088 3.704 3.705 1.543-.617 3.086-1.853 3.086-3.397 0-1.544-.926-3.088-3.395-3.088-2.161-.309-3.395.927-3.395 2.78z" fill="#FDFDFF"/><path d="M254.133 218.711l-3.396 1.853-.617-1.853 4.321-2.162h2.161v19.455h-2.469v-17.293zm9.568 16.983v-1.544l2.161-2.161c4.939-4.632 7.099-7.103 7.099-10.191 0-1.853-.926-3.706-3.704-3.706-1.852 0-3.086.927-4.012 1.544l-.926-1.852c1.234-1.236 3.395-1.853 5.556-1.853 4.321 0 5.864 2.779 5.864 5.558 0 3.706-2.469 6.485-6.79 10.5l-1.544 1.544h8.643v2.161h-12.347zm38.274-17.292l-3.395 1.853-.618-1.853 4.322-2.161h2.16v19.455h-2.469v-17.294zm20.68-.619h-1.852c-4.012.618-6.173 3.706-6.79 6.794.926-1.235 2.469-2.162 4.629-2.162 3.396 0 5.865 2.471 5.865 6.177 0 3.705-2.469 6.793-6.482 6.793-4.012 0-6.79-3.088-6.79-8.338 0-3.705 1.234-6.793 3.395-8.646 1.543-1.544 3.704-2.471 6.173-2.779h1.852v2.161zm-.617 11.117c0-2.779-1.544-4.323-4.013-4.323-1.543 0-3.086.926-3.704 2.47-.308.309-.308.618-.308 1.236 0 3.088 1.543 5.558 4.321 5.558 2.16-.309 3.704-2.161 3.704-4.941zm26.236 6.486v-1.544l2.161-1.853c4.938-4.632 7.099-7.102 7.099-10.191 0-1.852-.926-3.705-3.704-3.705-1.852 0-3.087.926-4.013 1.544l-.926-1.853c1.235-1.235 3.396-1.853 5.556-1.853 4.321 0 5.865 2.779 5.865 5.559 0 3.705-2.47 6.485-6.791 10.499l-1.543 1.544h8.642v2.162h-12.346v-.309zm28.397-9.883c0 6.485-2.469 10.191-6.79 10.191-3.704 0-6.482-3.706-6.482-9.882 0-6.485 2.778-10.19 6.79-10.19 4.013 0 6.482 3.705 6.482 9.881zm-10.803.309c0 4.941 1.543 8.029 4.013 8.029 2.777 0 4.012-3.088 4.012-8.029 0-4.632-1.235-8.029-4.012-8.029-2.161-.309-4.013 2.471-4.013 8.029zm-162.047 41.999l-3.395 1.853-.618-1.853 4.322-2.162h2.16v19.455h-2.469v-17.293zm22.532 7.102c0 6.485-2.469 10.19-6.791 10.19-3.703 0-6.481-3.705-6.481-9.882 0-6.485 2.778-10.19 6.79-10.19 4.013 0 6.482 3.705 6.482 9.882zm-10.494.308c0 4.941 1.543 8.029 4.012 8.029 2.778 0 4.013-3.088 4.013-8.029 0-4.632-1.235-8.029-4.013-8.029-2.469-.308-4.012 2.471-4.012 8.029zm38.582-7.411l-3.395 1.853-.618-2.162 4.322-2.161h2.16v19.455h-2.469V267.81zm20.988-.309h-7.408l-.617 4.941h1.543c1.544 0 3.087.309 4.322.927 1.543.926 2.778 2.47 2.778 4.941 0 3.705-3.087 6.485-7.1 6.485-2.16 0-4.012-.618-4.938-1.236l.617-1.853c.926.618 2.469.927 4.013.927 2.469 0 4.63-1.544 4.63-4.323 0-2.471-1.852-4.324-5.556-4.324-1.235 0-1.852 0-2.778.309l1.234-9.264h9.26v2.47zm21.917 17.294v-1.544l2.16-1.853c4.939-4.632 7.1-7.103 7.1-10.191 0-1.853-.926-3.706-3.704-3.706-1.852 0-3.087.927-4.013 1.545l-.926-1.853c1.235-1.236 3.395-1.853 5.556-1.853 4.321 0 5.864 2.779 5.864 5.558 0 3.706-2.469 6.485-6.79 10.5l-1.543 1.544h8.642v2.162h-12.346v-.309zm28.087-9.882c0 6.485-2.469 10.19-6.791 10.19-3.704 0-6.482-3.705-6.482-9.882 0-6.485 2.778-10.19 6.791-10.19 4.321 0 6.482 3.705 6.482 9.882zm-10.495.308c0 4.941 1.544 8.029 4.013 8.029 2.778 0 4.013-3.088 4.013-8.029 0-4.632-1.235-8.029-4.013-8.029-2.161-.308-4.013 2.471-4.013 8.029zm33.953 9.574v-1.545l2.16-1.852c4.939-4.633 7.1-7.103 7.1-10.191 0-1.853-.926-3.706-3.704-3.706-1.852 0-3.087.927-4.013 1.544l-1.234-2.161c1.234-1.236 3.395-1.853 5.555-1.853 4.322 0 5.865 2.779 5.865 5.558 0 3.706-2.469 6.485-6.791 10.5l-1.543 1.544h8.643v2.162h-12.038zm26.853-17.294h-7.408l-.617 4.941h1.543c1.544 0 3.087.309 4.322.927 1.543.926 2.778 2.47 2.778 4.941 0 3.705-3.087 6.485-7.1 6.485-2.16 0-4.012-.618-4.938-1.236l.617-1.853c.926.618 2.469.927 4.013.927 2.469 0 4.63-1.544 4.63-4.323 0-2.471-1.852-4.324-5.556-4.324-1.235 0-1.852 0-2.778.309l1.234-9.264h9.26v2.47z" fill="#fff"/><path d="M161.336 71.1l-3.395 1.852-.618-1.853 4.321-2.162h2.161v19.455h-2.469V71.1zm-6.792 66.394v-1.544l2.161-1.853c4.938-4.632 7.099-7.103 7.099-10.191 0-1.853-.926-3.706-3.704-3.706-1.852 0-3.087.927-4.013 1.544l-.925-1.852a7.44 7.44 0 0 1 5.247-2.162c4.321 0 5.864 2.779 5.864 5.559 0 3.705-2.469 6.484-6.79 10.499l-1.544 1.544h8.643v2.162h-12.038zm.618 45.085c.617.618 2.469 1.235 4.321 1.235 3.395 0 4.321-2.161 4.321-3.705 0-2.78-2.469-4.015-4.939-4.015h-1.234v-1.853h1.543c1.852 0 4.321-.926 4.321-3.397 0-1.544-.926-2.779-3.395-2.779-1.543 0-3.087.618-4.013 1.235l-.617-2.161c.926-.618 3.087-1.544 4.939-1.544 3.704 0 5.556 2.161 5.556 4.632 0 1.853-1.235 3.706-3.704 4.632 2.469.618 4.321 2.162 4.321 4.941 0 3.088-2.469 5.867-7.099 5.867-2.161 0-4.013-.617-4.939-1.235l.618-1.853zm7.407 53.115v-5.25h-8.951v-1.852l8.642-12.353h2.778v12.044h2.778v2.161h-2.778v5.25h-2.469zm0-7.411v-9.573c-.617 1.235-.926 1.853-1.543 2.779l-4.63 6.485h6.173v.309zm3.705 39.218h-7.408l-.617 4.941h1.543c1.543 0 3.087.309 4.321.927 1.544.926 2.778 2.47 2.778 4.941 0 3.705-3.086 6.485-7.099 6.485-2.161 0-4.013-.618-4.938-1.236l.617-1.853c.926.618 2.469.927 4.012.927 2.47 0 4.63-1.544 4.63-4.323 0-2.471-1.543-4.324-5.556-4.324-1.234 0-1.852 0-2.778.309l1.235-9.264h9.26v2.47z" fill="#354A37"/><path d="M151.675 13.454l3.558 4.847c.89 1.322 1.335 2.643 2.224 3.965.89-1.322 1.779-2.643 2.224-3.965l3.114-4.847h4.448l-7.562 11.456 8.451 11.896h-4.892l-3.559-5.287c-.889-1.322-1.334-2.644-2.224-3.966l-2.668 3.966-3.559 5.287h-4.893l8.452-11.896-8.007-11.456h4.893z" fill="#fff"/><circle cx="46.968" cy="47.968" r="46.968" fill="#FFFEFD"/><path d="M30.326 68.835c-1.308 0-2.242-.449-2.802-1.345-.56-.897-.542-1.98.056-3.251l14.796-32.786c.485-1.083 1.065-1.85 1.737-2.298a4.168 4.168 0 0 1 2.41-.728c.86 0 1.625.243 2.298.728.71.449 1.307 1.215 1.793 2.298L65.466 64.24c.598 1.308.635 2.41.112 3.307-.523.859-1.42 1.289-2.69 1.289-1.046 0-1.868-.243-2.466-.729-.56-.523-1.065-1.308-1.513-2.354l-2.803-6.501H36.828l-2.746 6.501c-.486 1.084-.99 1.868-1.513 2.354-.523.486-1.27.729-2.242.729zm16.085-32.17l-7.118 16.87h14.348l-7.118-16.87h-.112z" fill="#354A37"/></svg>