<svg width="100" height="101" viewBox="0 0 100 101" fill="none" xmlns="http://www.w3.org/2000/svg"><g clip-path="url(#a)" fill="#C8AC5F" stroke="#fff"><path d="M84.667 89.42c1.325 0 2.54-.926 2.54-2.232 0-1.305-1.215-2.231-2.54-2.231H15.336c-1.323 0-2.54.925-2.54 2.231 0 1.306 1.217 2.232 2.54 2.232h69.331zm15.833-9.48c.003-1.306-1.215-2.232-2.537-2.232H85.561V55.964c0-.885-.58-1.643-1.418-2.004l-20.596-8.89V5.732c0-.817-.5-1.532-1.238-1.919l-.002-.001a2.87 2.87 0 0 0-2.419-.084l-22.016 9.504c-.834.36-1.417 1.116-1.417 2.002v16.632l-20.596 8.893c-.832.358-1.418 1.116-1.418 2.002v34.948H2.04c-1.323 0-2.539.926-2.539 2.232S.716 82.17 2.039 82.17H97.96c1.325 0 2.538-.925 2.539-2.23zm0 0h-.5m.5 0h-.5m0 0c.002-.957-.91-1.732-2.037-1.732H85.561L100 79.94zm-63.545-2.232H19.519V44.15l16.936-7.31v40.868zm22.013-31.255v31.255H41.534V16.626l16.934-7.311v37.138zm22.013 31.255H63.548V50.044l16.933 7.31v20.354z"/><path d="M68.595 76.289c1.04 0 2.03-.731 2.03-1.8V55.624c0-1.068-.987-1.8-2.03-1.8-1.041 0-2.029.732-2.029 1.8v18.867c0 1.066.988 1.798 2.029 1.798zm4.807-1.801c-.002 1.07.99 1.8 2.029 1.8 1.04 0 2.03-.731 2.03-1.8V61.105c0-1.069-.987-1.8-2.03-1.8-1.041 0-2.029.732-2.029 1.8v13.383zm0 0v-.001l.5.001h-.5zm-44.023 0c-.003 1.069.987 1.8 2.028 1.8s2.029-.732 2.029-1.8V42.833c0-1.068-.989-1.798-2.029-1.798s-2.028.732-2.028 1.798v31.655zm0 0v-.001l.5.001h-.5zm-4.807 1.802c1.04 0 2.028-.732 2.028-1.8V48.318c0-1.07-.988-1.798-2.029-1.798-1.04 0-2.028.731-2.028 1.798V74.49c0 1.068.988 1.8 2.029 1.8zm29.127 0c1.04 0 2.028-.732 2.028-1.8V15.724c0-1.069-.988-1.798-2.028-1.798s-2.031.73-2.031 1.798v58.768c0 1.067.991 1.798 2.03 1.798zm-7.393 0c1.04 0 2.028-.733 2.028-1.8V21.495c0-1.066-.987-1.8-2.028-1.8s-2.029.732-2.029 1.8v52.996c0 1.067.988 1.798 2.029 1.798z"/></g><defs><clipPath id="a"><path fill="#fff" d="M0 0h100v101H0z"/></clipPath></defs></svg>