<svg width="414" height="127" viewBox="0 0 414 127" fill="none" xmlns="http://www.w3.org/2000/svg"><g clip-path="url(#a)" fill="#D3B475"><path d="M3.682 18.41h21.244v-4.248H3.681v4.249zM34.84 69.962L5.665 15.295l-3.966 1.983 29.458 54.666 3.682-1.983zm4.249-1.133h-6.232v4.249h6.232v-4.249zM76.193 1.133L37.388 69.961l3.682 2.266L79.875 3.116l-3.682-1.983zM54.666 4.249h23.51V0h-23.51v4.249zM38.238 35.972l18.41-32.856-3.681-1.983-18.411 32.856 3.682 1.983zM3.682 16.428v-2.266H0l1.7 3.116 1.982-.85zM33.14 71.094l-1.983.85.566 1.133h1.417v-1.983zm5.948 0v2.266h1.133l.566-1.133-1.7-1.133zM78.175 2.266l1.983 1.133L81.858 0h-3.683v2.266zm-23.509 0V0H53.25l-.567 1.133 1.983 1.133z"/><path fill-rule="evenodd" clip-rule="evenodd" d="M166.259 15.008h5.382l23.792 32.29V14.44h4.816l-.284 47.019-28.891-39.371v38.805h-4.815V15.008zm169.39-.567h5.098l24.076 32.857V14.44h4.532v47.02l-28.891-39.371v38.805h-4.815V14.44zm41.345 0h29.174v4.532h-12.463v41.92h-4.532v-41.92h-12.179v-4.532z"/><path d="M226.036 56.36c-2.266.283-5.665.283-8.78.283-1.416 0-2.833 0-3.966-.283h-1.416l-.283 2.266-.283 2.266h1.416c1.133 0 2.549 0 3.965.283 3.116 0 7.081 0 9.631-.283l-.284-4.532zm10.197-5.099c-1.699 1.7-3.115 2.833-4.532 3.4-1.699.849-3.399 1.132-5.665 1.699l.85 4.532c2.549-.567 4.815-.85 6.798-1.983 2.266-1.133 3.965-2.55 5.948-4.532l-3.399-3.116zm4.249-13.596c0 3.116-.283 5.382-.85 7.365-.566 1.983-1.699 3.965-3.399 5.948l3.399 3.116c2.266-2.55 3.682-5.099 4.532-7.648.85-2.832 1.133-5.665 1.133-8.78h-4.815zm-4.532-13.312c3.682 3.965 4.532 7.648 4.532 13.313h4.532c0-6.515-1.133-11.613-5.665-16.712l-3.399 3.399zm-10.197-4.815c2.549.283 4.249.85 5.948 1.416 1.417.567 2.833 1.7 4.532 3.399l3.399-3.116a27.629 27.629 0 0 0-5.948-4.532 28.763 28.763 0 0 0-7.081-1.699l-.85 4.532zm-14.445-3.116v2.266h5.381c3.116 0 6.798.283 9.064.567l.85-4.532c-2.833-.284-6.798-.567-9.914-.567h-5.381v2.266zm2.549 42.204l-.283-42.204h-4.532l.283 42.204h4.532zm12.463 0l-.284-2.266.284 2.266zm11.613-5.948l-1.7-1.417 1.7 1.416zm-.284-30.024l1.7-1.7-1.7 1.7zm-11.613-5.665l-.283 2.266.283-2.266zm-14.728-.567v-2.266h-2.266v2.266h2.266zm.283 42.204h-2.266v2.266l2.266.283v-2.55z"/><path fill-rule="evenodd" clip-rule="evenodd" d="M272.196 52.68l15.295-38.239h5.665l-18.977 46.453h-5.382L250.386 14.44h5.382l16.428 38.238zM97.723 14.441h4.532v41.354h21.526v5.099H97.723V14.44zm33.423 0h27.191v4.816h-22.659v36.821h23.226v4.816h-27.758V14.44z"/><path d="M157.198 34.266h-22.659v4.532h22.659v-4.532z"/><path fill-rule="evenodd" clip-rule="evenodd" d="M300.514 14.441h27.191v4.816h-22.659v36.821h23.226v4.816h-27.758V14.44z"/><path d="M326.011 34.266h-22.659v4.532h22.659v-4.532z"/></g><path d="M171.711 100.433h3.101c2.08 0 3.587-.386 4.522-1.158.934-.773 1.401-1.919 1.401-3.438 0-1.544-.505-2.653-1.514-3.326-1.008-.672-2.528-1.008-4.558-1.008h-2.952v8.93zm0 3.699v10.911h-4.465V87.729h7.716c3.525 0 6.134.66 7.828 1.98 1.694 1.32 2.541 3.313 2.541 5.978 0 3.4-1.769 5.823-5.306 7.268l7.716 12.088h-5.082l-6.539-10.911h-4.409zm28.566 11.285c-3.213 0-5.729-.935-7.548-2.803-1.806-1.881-2.709-4.465-2.709-7.753 0-3.376.841-6.029 2.522-7.96 1.682-1.93 3.992-2.895 6.932-2.895 2.727 0 4.882.828 6.464 2.485 1.582 1.656 2.373 3.936 2.373 6.838v2.373h-13.77c.063 2.005.604 3.549 1.626 4.633 1.021 1.071 2.46 1.607 4.316 1.607 1.22 0 2.354-.112 3.4-.337 1.059-.236 2.192-.622 3.4-1.158v3.568a13.478 13.478 0 0 1-3.251 1.084c-1.096.212-2.348.318-3.755.318zm-.803-18.085c-1.395 0-2.516.442-3.363 1.326-.835.884-1.333 2.174-1.495 3.867h9.379c-.025-1.706-.436-2.995-1.233-3.867-.797-.884-1.893-1.326-3.288-1.326zm26.754 17.711l-.879-2.877h-.149c-.996 1.258-1.999 2.117-3.008 2.578-1.009.448-2.304.673-3.886.673-2.03 0-3.618-.548-4.764-1.644-1.134-1.097-1.7-2.647-1.7-4.653 0-2.129.791-3.736 2.372-4.82 1.582-1.083 3.992-1.675 7.231-1.775l3.568-.112v-1.102c0-1.32-.311-2.304-.934-2.952-.61-.66-1.563-.99-2.858-.99a9.924 9.924 0 0 0-3.046.467c-.971.311-1.905.679-2.802 1.102l-1.42-3.138a15.013 15.013 0 0 1 3.68-1.327c1.333-.311 2.591-.467 3.774-.467 2.628 0 4.609.573 5.942 1.719 1.345 1.146 2.017 2.946 2.017 5.399v13.919h-3.138zm-6.539-2.989c1.594 0 2.87-.442 3.83-1.327.971-.897 1.457-2.148 1.457-3.755v-1.794l-2.653.113c-2.068.074-3.575.423-4.521 1.046-.935.61-1.402 1.55-1.402 2.821 0 .922.274 1.638.822 2.148.548.499 1.37.748 2.467.748zm20.196 2.989h-4.391v-29.07h4.391v29.07zm13.993-3.176c1.071 0 2.143-.168 3.214-.505v3.307c-.486.212-1.115.386-1.887.523-.76.15-1.551.225-2.373.225-4.16 0-6.24-2.192-6.24-6.577V97.705h-2.821v-1.943l3.026-1.606 1.495-4.372h2.709v4.596h5.885v3.325h-5.885v11.061c0 1.058.262 1.843.785 2.354.535.498 1.233.747 2.092.747zm4.223-17.487h4.782l4.204 11.714c.635 1.669 1.059 3.238 1.27 4.708h.15c.112-.685.318-1.513.616-2.485.299-.984 1.881-5.63 4.746-13.937h4.745l-8.837 23.409c-1.606 4.297-4.284 6.446-8.033 6.446-.972 0-1.918-.106-2.84-.318v-3.475c.66.15 1.414.225 2.261.225 2.117 0 3.605-1.227 4.465-3.681l.766-1.943-8.295-20.663zm41.924 21.037c-3.126 0-5.505-.91-7.137-2.728-1.619-1.831-2.429-4.453-2.429-7.866 0-3.475.847-6.146 2.541-8.014 1.707-1.869 4.166-2.803 7.38-2.803 2.18 0 4.141.405 5.885 1.214l-1.326 3.531c-1.856-.722-3.388-1.083-4.596-1.083-3.575 0-5.362 2.373-5.362 7.118 0 2.317.442 4.06 1.326 5.231.897 1.159 2.205 1.738 3.923 1.738 1.956 0 3.806-.486 5.549-1.457v3.83a8.69 8.69 0 0 1-2.522.99c-.884.199-1.962.299-3.232.299zm23.54-.374l-.878-2.877h-.149c-.997 1.258-1.999 2.117-3.008 2.578-1.009.448-2.304.673-3.886.673-2.03 0-3.618-.548-4.764-1.644-1.134-1.097-1.7-2.647-1.7-4.653 0-2.129.79-3.736 2.372-4.82 1.582-1.083 3.992-1.675 7.231-1.775l3.568-.112v-1.102c0-1.32-.311-2.304-.934-2.952-.61-.66-1.563-.99-2.859-.99a9.922 9.922 0 0 0-3.045.467c-.971.311-1.906.679-2.802 1.102l-1.42-3.138a15.013 15.013 0 0 1 3.68-1.327c1.333-.311 2.591-.467 3.774-.467 2.628 0 4.609.573 5.941 1.719 1.346 1.146 2.018 2.946 2.018 5.399v13.919h-3.139zm-6.539-2.989c1.595 0 2.871-.442 3.83-1.327.972-.897 1.458-2.148 1.458-3.755v-1.794l-2.653.113c-2.068.074-3.575.423-4.522 1.046-.934.61-1.401 1.55-1.401 2.821 0 .922.274 1.638.822 2.148.548.499 1.37.748 2.466.748zm26.287 3.363c-2.615 0-4.646-.941-6.09-2.821h-.262c.174 1.743.262 2.802.262 3.176v8.463h-4.391V94.38h3.55c.099.386.305 1.308.616 2.765h.225c1.37-2.093 3.425-3.139 6.165-3.139 2.578 0 4.583.934 6.016 2.802 1.445 1.869 2.167 4.491 2.167 7.866s-.735 6.01-2.205 7.903c-1.457 1.893-3.475 2.84-6.053 2.84zm-1.065-17.824c-1.743 0-3.02.51-3.83 1.532-.797 1.021-1.195 2.653-1.195 4.895v.654c0 2.516.398 4.341 1.195 5.474.797 1.121 2.099 1.682 3.905 1.682 1.52 0 2.69-.623 3.512-1.869.822-1.245 1.233-3.02 1.233-5.324 0-2.317-.411-4.067-1.233-5.25-.809-1.196-2.005-1.794-3.587-1.794zm18.814 17.45h-4.391V94.38h4.391v20.663zm-4.652-26.137c0-.785.212-1.39.635-1.813.436-.423 1.053-.635 1.85-.635.772 0 1.37.212 1.793.635.436.424.654 1.028.654 1.813 0 .747-.218 1.339-.654 1.774-.423.424-1.021.636-1.793.636-.797 0-1.414-.212-1.85-.636-.423-.435-.635-1.027-.635-1.774zm18.645 22.961c1.072 0 2.143-.168 3.214-.505v3.307c-.486.212-1.115.386-1.887.523-.76.15-1.551.225-2.373.225-4.16 0-6.24-2.192-6.24-6.577V97.705h-2.821v-1.943l3.027-1.606 1.494-4.372h2.709v4.596h5.885v3.325h-5.885v11.061c0 1.058.262 1.843.785 2.354.535.498 1.233.747 2.092.747zm20.29 3.176l-.878-2.877h-.15c-.996 1.258-1.999 2.117-3.007 2.578-1.009.448-2.305.673-3.887.673-2.03 0-3.618-.548-4.764-1.644-1.133-1.097-1.7-2.647-1.7-4.653 0-2.129.791-3.736 2.373-4.82 1.582-1.083 3.992-1.675 7.23-1.775l3.569-.112v-1.102c0-1.32-.312-2.304-.935-2.952-.61-.66-1.563-.99-2.858-.99a9.913 9.913 0 0 0-3.045.467c-.972.311-1.906.679-2.803 1.102l-1.42-3.138a15.006 15.006 0 0 1 3.681-1.327c1.333-.311 2.591-.467 3.774-.467 2.628 0 4.608.573 5.941 1.719 1.345 1.146 2.018 2.946 2.018 5.399v13.919h-3.139zm-6.539-2.989c1.594 0 2.871-.442 3.83-1.327.971-.897 1.457-2.148 1.457-3.755v-1.794l-2.653.113c-2.067.074-3.574.423-4.521 1.046-.934.61-1.401 1.55-1.401 2.821 0 .922.274 1.638.822 2.148.548.499 1.37.748 2.466.748zm20.196 2.989h-4.39v-29.07h4.39v29.07z" fill="#D3B475"/><defs><clipPath id="a"><path fill="#fff" d="M0 0h406.172v73.077H0z"/></clipPath></defs></svg>