<svg width="40" height="40" viewBox="0 0 40 40" fill="none" xmlns="http://www.w3.org/2000/svg"><path d="M26.848 23.566l-1.741.698V40l11.897-4.759-2.598-19.193C33.77 10.26 29.802 5.654 24.67 3.912L25.08 0H14.92l.412 3.914a14.49 14.49 0 0 0-9.737 12.134L2.997 35.241 14.894 40V24.264l-1.742-.698a1.185 1.185 0 0 1-.666-1.508l.643-1.712 2.846 1.22a4.498 4.498 0 0 0 2.847 2.28v6.872h2.357v-6.872a4.498 4.498 0 0 0 2.847-2.28l2.846-1.22.643 1.712a1.186 1.186 0 0 1-.667 1.508zm-4.386-21.21l-1.009 9.585h-2.906l-1.009-9.584h4.924zm5.002 23.503l.26-.105a3.534 3.534 0 0 0 1.997-4.523l-1.509-4.024-5.99 2.567-.18.465c-.718 1.87-3.366 1.87-4.084 0l-.178-.465-5.992-2.567-1.508 4.024a3.534 3.534 0 0 0 1.997 4.523l.26.105v10.66L5.58 33.736l2.357-17.417a12.135 12.135 0 0 1 7.65-9.99l.84 7.97h7.15l.838-7.97c4.152 1.628 7.16 5.49 7.651 9.99l2.357 17.417-6.958 2.783v-10.66z" fill="#56E39F"/></svg>