<svg width="67" height="55" viewBox="0 0 67 55" fill="none" xmlns="http://www.w3.org/2000/svg"><path d="M51.066 16.247a44.69 44.69 0 0 0-9.75-3.093 32.87 32.87 0 0 0-.905 1.938l-.455 1.068-1.148-.172a41.132 41.132 0 0 0-12.354 0l-1.16.177-.451-1.084a25.913 25.913 0 0 0-.916-1.93 44.562 44.562 0 0 0-9.757 3.096c-6.751 10.227-8.681 20.164-7.872 30 4.154 2.976 8.185 4.887 12.15 6.205a31.83 31.83 0 0 0 1.506-2.404 33.224 33.224 0 0 1-3.196-1.616l-.01-.006c-1.03-.602-1.128-2.072-.16-2.795.276-.206.546-.418.812-.636l33.666-28.748zm0 0c5.904 8.807 8.843 18.67 7.878 30-4.153 2.974-8.184 4.885-12.166 6.203a35.954 35.954 0 0 1-1.502-2.404 29.985 29.985 0 0 0 3.197-1.62m2.593-32.179L48.627 45.63m-.155 2.795l-.757-1.295.757 1.295zm0 0c1.06-.62 1.097-2.093.155-2.795m0 0l-.897 1.202m.897-1.202l-.897 1.202m-.87-.682a22.622 22.622 0 0 0 .87.682m-.87-.682L17.4 44.993v.002a1.674 1.674 0 0 1 1.747-.236l.01.004c8.77 4.005 18.233 4.002 26.888.005a1.672 1.672 0 0 1 1.764.22l.006.005c.265.219.536.43.811.636l-.896 1.203m-.87-.682a.173.173 0 0 0-.088-.038l.089.038zm-.958 1.954c-.83.408-1.682.776-2.557 1.106m2.557-1.106l-2.652 1.355a.179.179 0 0 1-.009-.146m2.66-1.21c.22-.09.438-.182.656-.277.092.07.183.14.275.208m-.93.07l.932-.069-.002-.001m-3.487 1.176a.178.178 0 0 0-.104.103m.104-.103l.062.166m-.063-.166l.064.167.472 1.234a1.322 1.322 0 0 0 .763-.763l-1.235-.471 1.235.47a1.321 1.321 0 0 0-.06-1.075m-1.342.541l.166.063m-.166-.063l.166.063m0 0l1.176-.604m0 0v-.002.002zm2.25-.738a1.32 1.32 0 0 1-.236-.226l.235.226zm-26.201.745l-.002.004c0-.001 0-.003.002-.004zM6.35 46.849l-.001-.011.001.01zm12.03 1.187l.003-.002-.002.002zm28.578-2.2zm.253 1.693c-.11.041-.226.067-.343.077l.446-.12.007-.003-.014.007a1.373 1.373 0 0 1-.095.039zm.12 5.712l-.005-.007.005.007zm12.094-7.344l-.003.002.003-.002zM16.806 34.97c0 3.776 2.79 7.144 6.532 7.144 3.79 0 6.528-3.37 6.533-7.134.049-3.77-2.73-7.154-6.532-7.154-3.795 0-6.533 3.377-6.533 7.144zm18.607 0c0 3.776 2.791 7.144 6.533 7.144 3.817 0 6.528-3.375 6.533-7.134.048-3.77-2.73-7.154-6.533-7.154-3.794 0-6.532 3.377-6.532 7.144z" stroke="#56E39F" stroke-width="3"/></svg>