<svg width="40" height="40" viewBox="0 0 40 40" fill="none" xmlns="http://www.w3.org/2000/svg"><path fill-rule="evenodd" clip-rule="evenodd" d="M20 40c11.046 0 20-8.954 20-20S31.046 0 20 0 0 8.954 0 20s8.954 20 20 20z" fill="#25D366"/><path fill-rule="evenodd" clip-rule="evenodd" d="M20.66 31.128h-.006c-1.99 0-3.946-.5-5.683-1.448l-6.305 1.654 1.688-6.163a11.871 11.871 0 0 1-1.588-5.945C8.77 12.669 14.104 7.334 20.66 7.334a11.816 11.816 0 0 1 8.413 3.488 11.82 11.82 0 0 1 3.48 8.413c-.003 6.556-5.336 11.89-11.893 11.893zm-5.397-3.6l.361.213a9.87 9.87 0 0 0 5.031 1.378h.004c5.448 0 9.882-4.434 9.885-9.884a9.825 9.825 0 0 0-2.893-6.993 9.818 9.818 0 0 0-6.988-2.9c-5.452 0-9.887 4.435-9.889 9.885a9.86 9.86 0 0 0 1.511 5.26l.235.374-.998 3.648 3.741-.982zm11.388-5.465c-.075-.124-.273-.198-.57-.347-.297-.149-1.758-.867-2.03-.967-.273-.099-.471-.148-.67.15-.197.296-.767.966-.94 1.164-.173.199-.347.223-.644.075-.297-.15-1.254-.463-2.39-1.475-.883-.788-1.48-1.761-1.652-2.059-.174-.297-.019-.458.13-.606.133-.133.297-.347.445-.52.15-.174.199-.298.298-.497.099-.198.05-.371-.025-.52-.074-.149-.669-1.612-.916-2.207-.242-.579-.486-.5-.669-.51a12.8 12.8 0 0 0-.57-.01c-.198 0-.52.074-.792.372-.272.297-1.04 1.016-1.04 2.479 0 1.462 1.065 2.875 1.213 3.074.15.198 2.096 3.2 5.077 4.487.709.306 1.262.489 1.694.625.712.227 1.36.195 1.871.118.571-.085 1.759-.718 2.006-1.413.248-.694.248-1.289.174-1.413z" fill="#FDFDFD"/></svg>