<svg width="24" height="25" viewBox="0 0 24 25" fill="none" xmlns="http://www.w3.org/2000/svg"><path d="M6.323 3.653a3.579 3.579 0 0 0-3.587 3.586v11.42a3.58 3.58 0 0 0 3.587 3.587h11.42a3.58 3.58 0 0 0 3.586-3.587V7.239c0-1.987-1.6-3.586-3.587-3.586H6.323zm4.5 2.629h1.843v3.276h3.076v2.034h-3.076v3.324c0 .751.04 1.234.12 1.447a.98.98 0 0 0 .444.511c.286.172.614.258.983.258.656 0 1.309-.214 1.958-.64v2.044a7.739 7.739 0 0 1-1.503.55c-.45.104-.935.157-1.457.157a5.058 5.058 0 0 1-1.572-.225 3.39 3.39 0 0 1-1.165-.64c-.321-.277-.544-.571-.668-.884-.125-.311-.186-.763-.186-1.356v-4.546H8.187V9.758a3.803 3.803 0 0 0 1.308-.71c.364-.31.655-.68.874-1.114.22-.432.371-.984.454-1.652z" fill="#C4C4C4"/></svg>