<svg width="25" height="25" viewBox="0 0 25 25" fill="none" xmlns="http://www.w3.org/2000/svg"><path d="M12.288 3.653A9.296 9.296 0 0 0 8.902 21.58a8.791 8.791 0 0 1 0-2.656l1.096-4.648a3.353 3.353 0 0 1-.253-1.328c0-1.288.75-2.258 1.68-2.258a1.17 1.17 0 0 1 1.175 1.33c0 .797-.504 1.992-.77 3.094a1.327 1.327 0 0 0 1.381 1.68c1.647 0 2.922-1.746 2.922-4.256a3.67 3.67 0 0 0-3.884-3.785 4.024 4.024 0 0 0-4.197 4.037c-.007.759.225 1.5.664 2.119a.292.292 0 0 1 .066.265c-.073.292-.232.93-.259 1.056-.026.126-.139.206-.312.126-1.162-.544-1.885-2.238-1.885-3.605 0-2.929 2.131-5.624 6.142-5.624 3.22 0 5.73 2.297 5.73 5.371 0 3.2-1.992 5.777-4.827 5.777a2.498 2.498 0 0 1-2.132-1.062l-.577 2.21a10.32 10.32 0 0 1-1.156 2.438c.903.267 1.84.396 2.782.385a9.296 9.296 0 1 0 0-18.592z" fill="#C4C4C4"/></svg>