<svg width="24" height="24" viewBox="0 0 24 24" fill="none" xmlns="http://www.w3.org/2000/svg"><path d="M6.985 10.733a5.626 5.626 0 0 1 3.053-3.941c.146.201 1.13 1.598 2.046 3.253-2.582.7-4.853.692-5.1.688zm9.052-3.056a5.413 5.413 0 0 0-4.946-1.26c.154.21 1.154 1.602 2.058 3.294 1.96-.753 2.787-1.89 2.888-2.034zm-7.04 8.648a5.411 5.411 0 0 0 5.54.742 23.63 23.63 0 0 0-1.179-4.267c-2.222.774-3.784 2.323-4.36 3.525zm3.986-4.456c-.137-.32-.29-.638-.447-.955-2.752.84-5.422.807-5.664.799 0 .058-.004.115-.004.173 0 1.445.536 2.763 1.416 3.764.895-1.56 2.707-3.208 4.7-3.78zm1.408.672a24.47 24.47 0 0 1 1.07 4.01 5.646 5.646 0 0 0 2.363-3.771 7.89 7.89 0 0 0-3.433-.24zm-.819-1.994c.194.404.335.733.484 1.104 1.836-.235 3.66.14 3.841.181a5.645 5.645 0 0 0-1.247-3.504c-.117.16-1.04 1.367-3.078 2.22zM21.42 4.63v14.496c0 1.091-.867 1.976-1.937 1.976h-14.2c-1.069 0-1.936-.885-1.936-1.976V4.63c0-1.092.867-1.977 1.936-1.977h14.2c1.07 0 1.937.885 1.937 1.977zm-2.582 7.248c0-3.633-2.897-6.59-6.455-6.59-3.558 0-6.454 2.957-6.454 6.59 0 3.632 2.896 6.589 6.454 6.589s6.455-2.957 6.455-6.59z" fill="#C4C4C4"/></svg>