<svg width="1148" height="1116" viewBox="0 0 1148 1116" fill="none" xmlns="http://www.w3.org/2000/svg"><g opacity=".2" stroke="#fff" stroke-width="6.022"><path opacity=".053" d="M89.194 901.411c24.223 32.23 101.642 86.162 217.534 44.055 144.865-52.635 200.893-192.154 330.188-264.497 95.429-53.394 351.85-133.542 499.294-44.978"/><path opacity=".105" d="M65.3 833.845c20.722 34.585 92.08 96.315 211.738 66.553 149.573-37.201 219.876-170.1 356.024-228.53 100.487-43.125 363.88-96.028 501.258 7.465"/><path opacity=".158" d="M47.251 765.369c16.993 36.562 81.508 105.413 203.622 88.323 152.642-21.362 236.45-146.182 377.959-190.06 104.444-32.384 371.928-57.463 497.738 59.825"/><path opacity=".211" d="M35.11 696.595c13.078 38.138 70.043 113.357 193.274 109.126 154.039-5.288 250.434-120.663 395.753-149.507 107.257-21.289 375.893-18.268 488.753 111.53"/><path opacity=".263" d="M28.867 628.145c9.02 39.297 57.812 120.058 180.81 128.733 153.748 10.844 261.674-93.823 409.212-107.317 108.894-9.96 375.742 21.127 474.421 162.013"/><path opacity=".316" d="M28.464 560.634c4.864 40.024 44.948 125.444 166.365 146.929 151.772 26.857 270.046-65.953 418.186-63.95 109.339 1.478 371.477 60.291 454.895 210.72"/><path opacity=".368" d="M33.772 494.665c.654 40.314 31.59 129.456 150.096 163.516 148.133 42.576 275.46-37.362 422.58-19.884 108.585 12.901 363.139 98.795 430.372 257.12"/><path opacity=".421" d="M44.593 430.831c-3.563 40.161 17.886 132.048 132.183 178.311 142.872 57.828 277.857-8.362 422.343 24.401 106.642 24.18 350.825 136.215 401.141 300.702"/><path opacity=".474" d="M60.676 369.691c-7.741 39.569 3.987 133.195 112.823 191.153 136.045 72.447 277.208 20.731 417.478 68.418 103.531 35.197 334.666 172.144 367.517 340.99"/><path opacity=".526" d="M81.712 311.786c-11.834 38.542-9.956 132.882 92.226 201.899 127.728 86.273 273.522 49.597 408.041 111.686 99.284 45.827 314.84 206.187 329.863 377.539"/><path opacity=".579" d="M107.335 257.61c-15.797 37.095-23.79 131.114 70.619 210.435 118.011 99.152 266.84 77.919 394.132 153.73 93.951 55.955 291.565 237.97 288.597 409.955"/><path opacity=".632" d="M137.127 207.629c-19.588 35.239-37.364 127.908 48.237 216.664C292.366 535.239 442.599 529.68 561.27 618.383c87.588 65.47 265.096 267.146 244.168 437.877"/><path opacity=".684" d="M170.632 162.251c-23.164 32.999-50.528 123.301 25.327 220.52 94.82 121.524 244.811 131.7 353.561 232.323 80.265 74.268 235.721 293.396 197.063 461.006"/><path opacity=".737" d="M207.344 121.838c-26.486 30.396-63.138 117.344 2.141 221.96 81.598 130.77 229.704 156.571 327.341 268.011 72.064 82.251 203.766 316.43 147.801 479.081"/><path opacity=".789" d="M246.73 86.703c-29.518 27.461-75.057 110.101-21.07 220.968 67.483 138.584 212.082 179.726 297.536 300.763 63.072 89.334 169.576 335.998 96.918 491.906"/><path opacity=".842" d="M288.221 57.093c-32.226 24.225-86.153 101.651-44.05 217.554 52.629 144.88 192.135 200.913 264.471 330.22 53.389 95.438 133.529 351.884 44.974 499.343"/><path opacity=".895" d="M331.229 33.198c-34.582 20.723-96.306 92.088-66.547 211.758C301.88 394.543 434.765 464.853 493.19 601.013c43.121 100.497 96.019 363.916-7.464 501.307"/><path opacity=".947" d="M375.15 15.146c-36.558 16.995-105.403 81.516-88.315 203.641 21.36 152.657 146.168 236.473 190.042 377.995 32.381 104.454 57.457 371.96-59.819 497.788"/><path d="M419.365 3c-38.134 13.08-113.346 70.05-109.116 193.293 5.288 154.054 120.652 250.458 149.494 395.791 21.286 107.267 18.266 375.929-111.519 488.806"/></g></svg>