<svg width="862" height="584" viewBox="0 0 862 584" fill="none" xmlns="http://www.w3.org/2000/svg"><g opacity=".2" stroke-width="5.462"><path d="M197.044 74.722c2.156-246.016 241.78-202.771 390.288-85.942 88.006 63.4 183.852-28.367 292.851 50.257s-76.194 175.533 89.503 299.641c165.694 124.109-15.784 416.173-179.366 373.475-163.583-42.698-134.176 23.523-331.612 99.51-197.435 75.988-422.779-172.086-303.491-332.158 119.287-160.072 39.494-138.466 41.827-404.783z" stroke="url(#a)"/><path d="M496.233 352c-1.061-23.793 42.928-49.141 65.995-26.389 21.124 20.835 49.247 18.868 64.345 29.777 39.747 28.719 21.013 32.576 35.385 57.319 17.49 30.109 11.646 94.221-43.794 78.408-45.597-13.006-38.275 13.046-75.219 13.126-36.944.08-70.897-27.678-58.346-71.682 4.714-16.525 13.402-40.931 11.634-80.559z" stroke="url(#b)"/><path d="M224.555 98.819c1.863-225.814 223.702-188.805 360.806-80.529 81.926 59.532 171.616-24.072 272.078 48.396 102.704 74.087-67.357 162.536 84.583 277.612 152.218 115.563-13.29 386.904-167.041 346.65-152.857-39.998-125.458 22.571-308.303 91.657-182.846 69.087-390.79-158.958-281.206-308.478 108.872-147.022 37.122-129.6 39.083-375.308z" stroke="url(#c)"/><path d="M252.065 122.92C253.636-82.693 457.69-51.92 583.391 47.805c75.845 55.662 159.378-19.779 251.304 46.534 96.408 69.55-58.52 149.54 79.663 255.582 138.752 107.018-10.796 357.637-154.716 319.827-142.131-37.3-116.74 21.618-284.995 83.804-168.255 62.186-358.801-145.83-258.92-284.799 98.456-133.973 34.751-120.733 36.338-345.833z" stroke="url(#d)"/><path d="M279.577 147.018c1.278-185.41 187.547-160.873 301.844-69.7 69.765 51.791 147.142-15.485 230.531 44.671 90.112 65.014-49.683 136.545 74.743 233.553 125.275 98.473-8.302 328.368-142.391 293.002-131.405-34.6-108.022 20.666-261.687 75.951-153.665 55.286-326.811-132.702-236.633-261.119 88.04-120.923 32.378-111.866 33.593-316.358z" stroke="url(#e)"/><path d="M307.084 171.118c.986-165.208 169.47-146.906 272.363-64.287 63.685 47.922 134.905-11.19 209.758 42.81 83.817 60.477-40.846 123.548 69.824 211.524 111.803 89.927-5.81 299.099-130.068 266.178-120.678-31.901-99.302 19.713-238.377 68.097-139.075 48.385-294.822-119.574-214.348-237.439 77.624-107.873 30.006-102.999 30.848-286.883z" stroke="url(#f)"/><path d="M334.382 195.981c.693-145.006 151.392-132.94 242.882-58.873 57.604 44.053 122.667-6.896 188.984 40.948 77.521 55.94-32.009 110.553 64.904 189.495 98.329 81.382-3.316 269.831-117.743 239.354-109.952-29.202-90.584 18.76-215.069 60.244-124.485 41.484-262.833-106.446-192.062-213.76 67.209-94.823 27.634-94.132 28.104-257.408z" stroke="url(#g)"/><path d="M361.421 221.745c.401-124.804 133.315-118.974 213.401-53.459 51.524 40.183 110.431-2.602 168.211 39.086 71.225 51.403-23.172 97.557 59.984 167.466 84.856 72.836-.822 240.562-105.418 212.529-99.227-26.502-81.866 17.808-191.761 52.391-109.894 34.584-230.843-93.318-169.776-190.08 56.793-81.773 25.262-85.265 25.359-227.933z" stroke="url(#h)"/><path d="M388.443 247.558c.109-104.602 115.238-105.007 183.92-48.045 45.444 36.313 98.194 1.692 147.438 37.224 64.93 46.866-14.335 84.56 55.064 145.436 71.383 64.291 1.672 211.295-93.093 185.705-88.5-23.803-73.148 16.856-168.452 44.539-95.305 27.683-198.855-80.19-147.49-166.401 46.377-68.724 22.89-76.398 22.613-198.458z" stroke="url(#i)"/><path d="M415.446 273.442c-.184-84.399 97.16-91.04 154.438-42.631 39.365 32.444 85.958 5.986 126.665 35.363 58.634 42.329-5.498 71.564 50.145 123.407 57.909 55.745 4.165 182.026-80.769 158.88-77.775-21.103-64.429 15.904-145.144 36.686-80.714 20.782-166.865-67.062-125.204-142.721 35.961-55.674 20.518-67.532 19.869-168.984z" stroke="url(#j)"/><path d="M442.425 299.437c-.476-64.197 79.082-77.074 124.957-37.217 33.284 28.574 73.721 10.28 105.892 33.501 52.338 37.793 3.339 58.568 45.225 101.378 44.436 47.199 6.658 152.757-68.444 132.056-67.049-18.404-55.711 14.951-121.836 28.832-66.124 13.882-134.876-53.934-102.918-119.041 25.545-42.624 18.146-58.665 17.124-139.509z" stroke="url(#k)"/><path d="M469.357 325.592c-.769-43.995 61.005-63.108 95.476-31.803 27.204 24.704 61.484 14.574 85.118 31.638 46.043 33.256 12.177 45.572 40.306 79.349 30.962 38.654 9.152 123.489-56.12 105.232-56.322-15.705-46.992 13.998-98.527 20.979-51.534 6.981-102.886-40.806-80.632-95.362 15.13-29.574 15.774-49.797 14.379-110.033z" stroke="url(#l)"/></g><defs><linearGradient id="a" x1="699.403" y1="-23.915" x2="449.054" y2="853.783" gradientUnits="userSpaceOnUse"><stop stop-color="#fff"/><stop offset="1" stop-color="#fff" stop-opacity="0"/></linearGradient><linearGradient id="b" x1="603.329" y1="333.437" x2="552.956" y2="510.038" gradientUnits="userSpaceOnUse"><stop stop-color="#fff"/><stop offset="1" stop-color="#fff" stop-opacity="0"/></linearGradient><linearGradient id="c" x1="690.635" y1="8.561" x2="458.787" y2="821.395" gradientUnits="userSpaceOnUse"><stop stop-color="#fff"/><stop offset="1" stop-color="#fff" stop-opacity="0"/></linearGradient><linearGradient id="d" x1="681.868" y1="41.041" x2="468.522" y2="789.013" gradientUnits="userSpaceOnUse"><stop stop-color="#fff"/><stop offset="1" stop-color="#fff" stop-opacity="0"/></linearGradient><linearGradient id="e" x1="673.105" y1="73.517" x2="478.258" y2="756.629" gradientUnits="userSpaceOnUse"><stop stop-color="#fff"/><stop offset="1" stop-color="#fff" stop-opacity="0"/></linearGradient><linearGradient id="f" x1="664.339" y1="105.995" x2="487.993" y2="724.248" gradientUnits="userSpaceOnUse"><stop stop-color="#fff"/><stop offset="1" stop-color="#fff" stop-opacity="0"/></linearGradient><linearGradient id="g" x1="655.584" y1="138.475" x2="497.52" y2="692.633" gradientUnits="userSpaceOnUse"><stop stop-color="#fff"/><stop offset="1" stop-color="#fff" stop-opacity="0"/></linearGradient><linearGradient id="h" x1="646.832" y1="170.957" x2="506.792" y2="661.922" gradientUnits="userSpaceOnUse"><stop stop-color="#fff"/><stop offset="1" stop-color="#fff" stop-opacity="0"/></linearGradient><linearGradient id="i" x1="638.084" y1="203.439" x2="516.054" y2="631.264" gradientUnits="userSpaceOnUse"><stop stop-color="#fff"/><stop offset="1" stop-color="#fff" stop-opacity="0"/></linearGradient><linearGradient id="j" x1="629.345" y1="235.924" x2="525.303" y2="600.686" gradientUnits="userSpaceOnUse"><stop stop-color="#fff"/><stop offset="1" stop-color="#fff" stop-opacity="0"/></linearGradient><linearGradient id="k" x1="620.63" y1="268.417" x2="534.542" y2="570.232" gradientUnits="userSpaceOnUse"><stop stop-color="#fff"/><stop offset="1" stop-color="#fff" stop-opacity="0"/></linearGradient><linearGradient id="l" x1="611.942" y1="300.917" x2="543.757" y2="539.967" gradientUnits="userSpaceOnUse"><stop stop-color="#fff"/><stop offset="1" stop-color="#fff" stop-opacity="0"/></linearGradient></defs></svg>