<svg width="781" height="524" viewBox="0 0 781 524" fill="none" xmlns="http://www.w3.org/2000/svg"><circle cx="136.5" cy="405.5" r="1.5" fill="#EDFFFC" fill-opacity=".4"/><circle cx="144.5" cy="421.5" r="1.5" fill="#EDFFFC" fill-opacity=".4"/><circle cx="122.5" cy="424.5" r="1.5" fill="#EDFFFC" fill-opacity=".4"/><circle cx="127.5" cy="394.5" r="1.5" fill="#EDFFFC" fill-opacity=".4"/><circle cx="122.5" cy="408.5" r="1.5" fill="#EDFFFC" fill-opacity=".4"/><circle cx="129.5" cy="418.5" r="1.5" fill="#EDFFFC" fill-opacity=".4"/><circle cx="13.304" cy="360.149" r="1.5" transform="rotate(-86.961 13.304 360.149)" fill="#AFB6E5" fill-opacity=".2"/><circle cx="29.706" cy="353.008" r="1.5" transform="rotate(-86.961 29.706 353.008)" fill="#AFB6E5" fill-opacity=".2"/><circle cx="31.535" cy="375.137" r="1.5" transform="rotate(-86.961 31.535 375.137)" fill="#AFB6E5" fill-opacity=".2"/><circle cx="1.843" cy="368.553" r="1.5" transform="rotate(-86.961 1.843 368.553)" fill="#AFB6E5" fill-opacity=".2"/><circle cx="15.558" cy="374.289" r="1.5" transform="rotate(-86.961 15.558 374.289)" fill="#AFB6E5" fill-opacity=".2"/><circle cx="25.915" cy="367.829" r="1.5" transform="rotate(-86.961 25.915 367.829)" fill="#AFB6E5" fill-opacity=".2"/><circle r="1.5" transform="scale(1 -1) rotate(-60.359 146.64 -435.39)" fill="#3DB4B7"/><circle r="1.5" transform="scale(1 -1) rotate(-60.359 156.396 -450.268)" fill="#3DB4B7"/><circle r="1.5" transform="scale(1 -1) rotate(-60.359 169.975 -432.853)" fill="#3DB4B7"/><circle r="1.5" transform="scale(1 -1) rotate(-60.359 141.681 -422.15)" fill="#3DB4B7"/><circle r="1.5" transform="scale(1 -1) rotate(-60.359 156.219 -424.853)" fill="#3DB4B7"/><circle r="1.5" transform="scale(1 -1) rotate(-60.359 161.317 -435.87)" fill="#3DB4B7"/><circle r="1.5" transform="scale(-1 1) rotate(-19.107 886.308 2283.676)" fill="#AFB6E5" fill-opacity=".4"/><circle r="1.5" transform="scale(-1 1) rotate(-19.107 929.842 2251.91)" fill="#AFB6E5" fill-opacity=".4"/><circle r="1.5" transform="scale(-1 1) rotate(-19.107 949.758 2315.77)" fill="#AFB6E5" fill-opacity=".4"/><circle r="1.5" transform="scale(-1 1) rotate(-19.107 858.129 2315.914)" fill="#AFB6E5" fill-opacity=".4"/><circle r="1.5" transform="scale(-1 1) rotate(-19.107 902.22 2323.769)" fill="#AFB6E5" fill-opacity=".4"/><circle r="1.5" transform="scale(-1 1) rotate(-19.107 928.432 2297.972)" fill="#AFB6E5" fill-opacity=".4"/><path opacity=".1" d="M553.392 429.231c-233.537 140.895-361.748 94.067-384.634-140.484-22.885-234.55 93.883-304.998 350.305-211.342 256.423 93.657 267.865 210.932 34.329 351.826z" fill="url(#a)" fill-opacity=".9"/><path d="M165.81 356.225c-.463.457-1.1.457-1.505.057a.99.99 0 0 1 0-1.427l.058-.057c.405-.4 1.042-.4 1.447 0 .348.4.348 1.028 0 1.427zm44.522-43.967l-.116.114c-.405.4-1.042.4-1.447 0a.99.99 0 0 1 0-1.428l.115-.114c.406-.4 1.043-.4 1.448 0a.991.991 0 0 1 0 1.428zm-7.411 7.309l-.116.114c-.405.4-1.042.4-1.447 0a.991.991 0 0 1 0-1.428l.116-.114c.405-.4 1.042-.4 1.447 0s.405 1.085 0 1.428zm-7.41 7.366l-.116.114c-.406.4-1.042.4-1.448 0a.991.991 0 0 1 0-1.428l.116-.114c.405-.4 1.042-.4 1.448 0a1.11 1.11 0 0 1 0 1.428zm-7.469 7.309l-.116.114c-.405.4-1.042.4-1.447 0a.991.991 0 0 1 0-1.428l.116-.114c.405-.4 1.042-.4 1.447 0a.991.991 0 0 1 0 1.428zm-7.411 7.309l-.115.114c-.406.4-1.043.4-1.448 0a.991.991 0 0 1 0-1.428l.116-.114c.405-.4 1.042-.4 1.447 0a.99.99 0 0 1 0 1.428zm-7.41 7.309l-.116.114c-.405.4-1.042.4-1.448 0a.991.991 0 0 1 0-1.428l.116-.114c.406-.4 1.042-.4 1.448 0 .405.457.405 1.085 0 1.428zm44.464-43.854c-.464.456-1.1.456-1.506.057a.991.991 0 0 1 0-1.428l.058-.057c.405-.4 1.042-.4 1.448 0a.991.991 0 0 1 0 1.428zm-44.464 58.528c-.463.457-1.1.457-1.505.057a.988.988 0 0 1 0-1.427l.057-.058a1.025 1.025 0 0 1 1.448 0 .991.991 0 0 1 0 1.428zm44.579-43.911l-.115.114c-.406.4-1.043.4-1.448 0a.991.991 0 0 1 0-1.428l.116-.114a1.024 1.024 0 0 1 1.447 0 .99.99 0 0 1 0 1.428zm-7.468 7.309l-.116.114c-.405.4-1.042.4-1.447 0a.99.99 0 0 1 0-1.428l.115-.114a1.025 1.025 0 0 1 1.448 0 .991.991 0 0 1 0 1.428zm-7.411 7.309l-.116.114c-.405.4-1.042.4-1.447 0a.991.991 0 0 1 0-1.428l.116-.114a1.024 1.024 0 0 1 1.447 0 .991.991 0 0 1 0 1.428zm-7.411 7.309l-.115.114c-.406.4-1.042.4-1.448 0a.991.991 0 0 1 0-1.428l.116-.114a1.024 1.024 0 0 1 1.447 0c.406.457.406 1.085 0 1.428zm-7.41 7.366l-.116.057c-.405.4-1.042.4-1.447 0a.99.99 0 0 1 0-1.428l.115-.114a1.025 1.025 0 0 1 1.448 0c.405.457.405 1.085 0 1.485zm-7.469 7.309l-.115.114c-.406.4-1.043.4-1.448 0a.99.99 0 0 1 0-1.427l.116-.115a1.024 1.024 0 0 1 1.447 0 .99.99 0 0 1 0 1.428zm44.522-43.911c-.463.457-1.1.457-1.505.057a.99.99 0 0 1 0-1.427l.058-.057c.405-.4 1.042-.4 1.447 0 .406.457.406 1.085 0 1.427zM180.689 370.9c-.463.457-1.1.457-1.505.057a.99.99 0 0 1 0-1.427l.058-.057c.405-.4 1.042-.4 1.447 0a.99.99 0 0 1 0 1.427zm44.522-43.968l-.116.115a1.024 1.024 0 0 1-1.447 0 .99.99 0 0 1 0-1.428l.115-.114c.406-.4 1.042-.4 1.448 0a.99.99 0 0 1 0 1.427zm-7.411 7.366l-.116.115a1.024 1.024 0 0 1-1.447 0 .991.991 0 0 1 0-1.428l.116-.114c.405-.4 1.042-.4 1.447 0a.99.99 0 0 1 0 1.427zm-7.411 7.309l-.115.115a1.025 1.025 0 0 1-1.448 0 .991.991 0 0 1 0-1.428l.116-.114c.405-.4 1.042-.4 1.447 0a.988.988 0 0 1 0 1.427zm-7.41 7.309l-.116.115a1.024 1.024 0 0 1-1.447 0 .99.99 0 0 1 0-1.428l.115-.114c.406-.4 1.042-.4 1.448 0 .347.4.347 1.028 0 1.427zm-7.469 7.309l-.116.115a1.024 1.024 0 0 1-1.447 0 .991.991 0 0 1 0-1.428l.116-.114c.405-.4 1.042-.4 1.447 0a.99.99 0 0 1 0 1.427zm-7.41 7.367l-.116.114c-.406.4-1.042.4-1.448 0a.991.991 0 0 1 0-1.428l.116-.114c.405-.4 1.042-.4 1.448 0a.991.991 0 0 1 0 1.428zm44.522-43.912c-.464.457-1.1.457-1.506.058a.991.991 0 0 1 0-1.428l.058-.057c.405-.4 1.042-.4 1.448 0 .347.4.347 1.028 0 1.427zM188.1 378.21c-.463.457-1.1.457-1.506.057a.991.991 0 0 1 0-1.428l.058-.057c.406-.4 1.042-.4 1.448 0 .405.4.405 1.085 0 1.428zm44.579-43.911l-.115.114c-.406.4-1.042.4-1.448 0a.991.991 0 0 1 0-1.428l.116-.114c.405-.4 1.042-.4 1.447 0a.99.99 0 0 1 0 1.428zm-7.41 7.309l-.116.114c-.405.4-1.042.4-1.447 0a.99.99 0 0 1 0-1.428l.115-.114c.406-.4 1.043-.4 1.448 0a1.11 1.11 0 0 1 0 1.428zm-7.469 7.309l-.116.114c-.405.4-1.042.4-1.447 0a.991.991 0 0 1 0-1.428l.116-.114c.405-.4 1.042-.4 1.447 0 .406.4.406 1.085 0 1.428zm-7.41 7.366l-.116.114c-.405.4-1.042.4-1.448 0a.991.991 0 0 1 0-1.428l.116-.114c.405-.4 1.042-.4 1.448 0a.991.991 0 0 1 0 1.428zm-7.411 7.309l-.116.114c-.405.4-1.042.4-1.447 0a.991.991 0 0 1 0-1.428l.116-.114c.405-.4 1.042-.4 1.447 0a.991.991 0 0 1 0 1.428zm-7.411 7.309l-.115.114c-.406.4-1.043.4-1.448 0a.991.991 0 0 1 0-1.428l.116-.114c.405-.4 1.042-.4 1.447 0 .348.4.348 1.028 0 1.428zm44.464-43.854c-.463.456-1.1.456-1.505.057a.991.991 0 0 1 0-1.428l.058-.057c.405-.4 1.042-.4 1.447 0a.991.991 0 0 1 0 1.428zm-44.463 58.529c-.464.457-1.1.457-1.506.057a.99.99 0 0 1 0-1.427l.058-.058a1.025 1.025 0 0 1 1.448 0 .991.991 0 0 1 0 1.428zm44.521-43.968l-.116.114c-.405.4-1.042.4-1.447 0a.99.99 0 0 1 0-1.427l.116-.114c.405-.4 1.042-.4 1.447 0 .405.456.405 1.085 0 1.427zm-7.411 7.366l-.115.114c-.406.4-1.042.4-1.448 0a.99.99 0 0 1 0-1.427l.116-.114c.405-.4 1.042-.4 1.447 0a.988.988 0 0 1 0 1.427zm-7.41 7.309l-.116.114c-.405.4-1.042.4-1.447 0a.988.988 0 0 1 0-1.427l.115-.114c.406-.4 1.043-.4 1.448 0a.99.99 0 0 1 0 1.427zm-7.411 7.309l-.116.114c-.405.4-1.042.4-1.447 0a.99.99 0 0 1 0-1.427l.116-.114c.405-.4 1.042-.4 1.447 0a1.106 1.106 0 0 1 0 1.427zm-7.468 7.309l-.116.114c-.405.4-1.042.4-1.448 0a.99.99 0 0 1 0-1.427l.116-.114c.405-.4 1.042-.4 1.448 0 .405.457.405 1.085 0 1.427zm-7.411 7.366l-.116.115a1.024 1.024 0 0 1-1.447 0 .99.99 0 0 1 0-1.428l.116-.114c.405-.4 1.042-.4 1.447 0a.99.99 0 0 1 0 1.427zm44.522-43.911c-.463.457-1.1.457-1.505.057a.988.988 0 0 1 0-1.427l.058-.057c.405-.4 1.042-.4 1.447 0a.99.99 0 0 1 0 1.427zm-44.464 58.585c-.463.457-1.1.457-1.505.057a.99.99 0 0 1 0-1.427l.058-.057c.405-.4 1.042-.4 1.447 0a1.106 1.106 0 0 1 0 1.427zm44.522-43.968l-.116.115a1.024 1.024 0 0 1-1.447 0 .99.99 0 0 1 0-1.428l.115-.114c.406-.4 1.043-.4 1.448 0a.99.99 0 0 1 0 1.427zm-7.411 7.309l-.116.115a1.024 1.024 0 0 1-1.447 0 .991.991 0 0 1 0-1.428l.116-.114c.405-.4 1.042-.4 1.447 0a.99.99 0 0 1 0 1.427zm-7.41 7.309l-.116.115a1.025 1.025 0 0 1-1.448 0 .991.991 0 0 1 0-1.428l.116-.114c.405-.4 1.042-.4 1.448 0 .347.457.347 1.085 0 1.427zm-7.469 7.367l-.116.114a1.024 1.024 0 0 1-1.447 0 .991.991 0 0 1 0-1.428l.116-.114c.405-.4 1.042-.4 1.447 0a.991.991 0 0 1 0 1.428zm-7.411 7.309l-.115.114a1.025 1.025 0 0 1-1.448 0 .991.991 0 0 1 0-1.428l.116-.114c.405-.4 1.042-.4 1.447 0a.99.99 0 0 1 0 1.428zm-7.41 7.309l-.116.114a1.024 1.024 0 0 1-1.447 0 .99.99 0 0 1 0-1.428l.115-.114c.406-.4 1.042-.4 1.448 0a.991.991 0 0 1 0 1.428zm44.464-43.855c-.464.457-1.1.457-1.506.058a.991.991 0 0 1 0-1.428l.058-.057c.406-.4 1.042-.4 1.448 0a.99.99 0 0 1 0 1.427zm-44.465 58.53c-.463.457-1.1.457-1.505.057a.991.991 0 0 1 0-1.428l.058-.057a1.024 1.024 0 0 1 1.447 0 .99.99 0 0 1 0 1.428zm44.58-43.911l-.116.057c-.405.4-1.042.4-1.447 0a.988.988 0 0 1 0-1.427l.116-.115a1.024 1.024 0 0 1 1.447 0c.347.457.347 1.085 0 1.485zm-7.469 7.309l-.115.114c-.406.4-1.043.4-1.448 0a.99.99 0 0 1 0-1.427l.116-.114c.405-.4 1.042-.4 1.447 0a.988.988 0 0 1 0 1.427zm-7.41 7.309l-.116.114c-.405.4-1.042.4-1.447 0a.988.988 0 0 1 0-1.427l.115-.114c.406-.4 1.042-.4 1.448 0a.99.99 0 0 1 0 1.427zm-7.411 7.309l-.116.114c-.405.4-1.042.4-1.447 0a.99.99 0 0 1 0-1.427l.116-.114c.405-.4 1.042-.4 1.447 0 .405.399.405 1.084 0 1.427zm-7.411 7.366l-.115.114c-.406.4-1.043.4-1.448 0a.99.99 0 0 1 0-1.427l.116-.114c.405-.4 1.042-.4 1.447 0a1.106 1.106 0 0 1 0 1.427zm-7.468 7.309l-.116.114c-.405.4-1.042.4-1.447 0a.988.988 0 0 1 0-1.427l.115-.114c.406-.4 1.043-.4 1.448 0a.99.99 0 0 1 0 1.427zm44.522-43.911c-.463.457-1.1.457-1.505.057a.988.988 0 0 1 0-1.427l.058-.058a1.024 1.024 0 0 1 1.447 0 .991.991 0 0 1 0 1.428zm-44.58 58.472c-.463.457-1.1.457-1.505.057a.991.991 0 0 1 0-1.428l.058-.057c.405-.4 1.042-.4 1.447 0 .406.457.406 1.085 0 1.428zm44.58-43.911l-.116.114a1.024 1.024 0 0 1-1.447 0 .991.991 0 0 1 0-1.428l.116-.114c.405-.4 1.042-.4 1.447 0a.991.991 0 0 1 0 1.428zm-7.41 7.309l-.116.114a1.025 1.025 0 0 1-1.448 0 .991.991 0 0 1 0-1.428l.116-.114c.405-.4 1.042-.4 1.448 0a1.11 1.11 0 0 1 0 1.428zm-7.469 7.309l-.116.114a1.024 1.024 0 0 1-1.447 0 .991.991 0 0 1 0-1.428l.116-.114c.405-.4 1.042-.4 1.447 0 .405.457.405 1.085 0 1.428zm-7.411 7.366l-.115.114c-.406.4-1.043.4-1.448 0a.991.991 0 0 1 0-1.428l.116-.114c.405-.4 1.042-.4 1.447 0a.99.99 0 0 1 0 1.428zm-7.41 7.309l-.116.114c-.405.4-1.042.4-1.448 0a.991.991 0 0 1 0-1.428l.116-.114c.406-.4 1.042-.4 1.448 0a.991.991 0 0 1 0 1.428zm-7.411 7.309l-.116.114c-.405.4-1.042.4-1.447 0a.991.991 0 0 1 0-1.428l.116-.114c.405-.4 1.042-.4 1.447 0a1.11 1.11 0 0 1 0 1.428zm44.464-43.854c-.463.456-1.1.456-1.505.057a.99.99 0 0 1 0-1.428l.057-.057c.406-.4 1.043-.4 1.448 0a.991.991 0 0 1 0 1.428z" fill="#BCEFDD" fill-opacity=".4"/><path d="M164.809 182.639c-.463.457-1.1.457-1.505.058a.991.991 0 0 1 0-1.428l.058-.057c.405-.4 1.042-.4 1.447 0 .348.4.348 1.028 0 1.427zm44.522-43.967l-.116.114c-.405.4-1.042.4-1.447 0a.99.99 0 0 1 0-1.428l.115-.114c.406-.4 1.043-.4 1.448 0a.991.991 0 0 1 0 1.428zm-7.411 7.309l-.116.114c-.405.4-1.042.4-1.447 0a.991.991 0 0 1 0-1.428l.116-.114c.405-.4 1.042-.4 1.447 0s.405 1.085 0 1.428zm-7.41 7.366l-.116.114c-.406.4-1.042.4-1.448 0a.991.991 0 0 1 0-1.428l.116-.114a1.025 1.025 0 0 1 1.448 0 1.11 1.11 0 0 1 0 1.428zm-7.469 7.309l-.116.114c-.405.4-1.042.4-1.447 0a.991.991 0 0 1 0-1.428l.116-.114a1.024 1.024 0 0 1 1.447 0 .991.991 0 0 1 0 1.428zm-7.411 7.309l-.115.114c-.406.4-1.043.4-1.448 0a.991.991 0 0 1 0-1.428l.116-.114c.405-.4 1.042-.4 1.447 0a.99.99 0 0 1 0 1.428zm-7.41 7.309l-.116.114c-.405.4-1.042.4-1.448 0a.991.991 0 0 1 0-1.428l.116-.114c.406-.4 1.042-.4 1.448 0 .405.457.405 1.085 0 1.428zm44.464-43.854c-.464.457-1.1.457-1.506.057a.991.991 0 0 1 0-1.428l.058-.057c.406-.4 1.042-.4 1.448 0a.991.991 0 0 1 0 1.428zm-44.464 58.528c-.463.457-1.1.457-1.505.057a.988.988 0 0 1 0-1.427l.057-.058a1.025 1.025 0 0 1 1.448 0 .991.991 0 0 1 0 1.428zm44.579-43.911l-.115.114c-.406.4-1.043.4-1.448 0a.99.99 0 0 1 0-1.427l.116-.115a1.024 1.024 0 0 1 1.447 0 .99.99 0 0 1 0 1.428zm-7.468 7.309l-.116.114c-.405.4-1.042.4-1.447 0a.988.988 0 0 1 0-1.427l.115-.115a1.025 1.025 0 0 1 1.448 0 .991.991 0 0 1 0 1.428zm-7.411 7.309l-.116.114c-.405.4-1.042.4-1.447 0a.99.99 0 0 1 0-1.427l.116-.115a1.024 1.024 0 0 1 1.447 0 .991.991 0 0 1 0 1.428zm-7.41 7.309l-.116.114c-.406.4-1.042.4-1.448 0a.99.99 0 0 1 0-1.427l.116-.115a1.025 1.025 0 0 1 1.448 0c.405.457.405 1.085 0 1.428zm-7.411 7.366l-.116.057c-.405.4-1.042.4-1.447 0a.988.988 0 0 1 0-1.427l.115-.115a1.025 1.025 0 0 1 1.448 0c.405.457.405 1.085 0 1.485zm-7.469 7.309l-.115.114c-.406.4-1.043.4-1.448 0a.99.99 0 0 1 0-1.427l.116-.115a1.024 1.024 0 0 1 1.447 0 .99.99 0 0 1 0 1.428zm44.522-43.911c-.463.457-1.1.457-1.505.057a.99.99 0 0 1 0-1.427l.058-.057c.405-.4 1.042-.4 1.447 0 .406.457.406 1.085 0 1.427zm-44.464 58.586c-.463.457-1.1.457-1.505.057a.99.99 0 0 1 0-1.427l.058-.057c.405-.4 1.042-.4 1.447 0a.99.99 0 0 1 0 1.427zm44.522-43.968l-.116.115a1.024 1.024 0 0 1-1.447 0 .99.99 0 0 1 0-1.428l.115-.114c.406-.4 1.042-.4 1.448 0a.99.99 0 0 1 0 1.427zm-7.411 7.367l-.116.114a1.024 1.024 0 0 1-1.447 0 .991.991 0 0 1 0-1.428l.116-.114c.405-.4 1.042-.4 1.447 0a.991.991 0 0 1 0 1.428zm-7.411 7.309l-.115.114a1.025 1.025 0 0 1-1.448 0 .991.991 0 0 1 0-1.428l.116-.114c.405-.4 1.042-.4 1.447 0a.99.99 0 0 1 0 1.428zm-7.41 7.309l-.116.114a1.024 1.024 0 0 1-1.447 0 .99.99 0 0 1 0-1.428l.115-.114c.406-.4 1.043-.4 1.448 0a1.11 1.11 0 0 1 0 1.428zm-7.469 7.309l-.116.114a1.024 1.024 0 0 1-1.447 0 .991.991 0 0 1 0-1.428l.116-.114c.405-.4 1.042-.4 1.447 0a.99.99 0 0 1 0 1.428zm-7.41 7.366l-.116.114c-.405.4-1.042.4-1.448 0a.991.991 0 0 1 0-1.428l.116-.114c.405-.4 1.042-.4 1.448 0a.991.991 0 0 1 0 1.428zm44.522-43.911c-.464.456-1.1.456-1.506.057a.991.991 0 0 1 0-1.428l.058-.057c.406-.4 1.042-.4 1.448 0a1.11 1.11 0 0 1 0 1.428zm-44.522 58.529c-.463.457-1.1.457-1.505.057a.99.99 0 0 1 0-1.428l.057-.057a1.025 1.025 0 0 1 1.448 0c.405.4.405 1.085 0 1.428zm44.579-43.911l-.115.114c-.406.4-1.042.4-1.448 0a.991.991 0 0 1 0-1.428l.116-.114c.405-.4 1.042-.4 1.447 0a.99.99 0 0 1 0 1.428zm-7.41 7.309l-.116.114c-.405.4-1.042.4-1.447 0a.99.99 0 0 1 0-1.428l.115-.114c.406-.4 1.043-.4 1.448 0a1.11 1.11 0 0 1 0 1.428zm-7.469 7.309l-.115.114c-.406.4-1.043.4-1.448 0a.991.991 0 0 1 0-1.428l.116-.114c.405-.4 1.042-.4 1.447 0 .406.4.406 1.085 0 1.428zm-7.41 7.366l-.116.114c-.405.4-1.042.4-1.448 0a.991.991 0 0 1 0-1.428l.116-.114a1.025 1.025 0 0 1 1.448 0 .991.991 0 0 1 0 1.428zm-7.411 7.309l-.116.114c-.405.4-1.042.4-1.447 0a.991.991 0 0 1 0-1.428l.116-.114a1.024 1.024 0 0 1 1.447 0 .991.991 0 0 1 0 1.428zm-7.411 7.309l-.115.114c-.406.4-1.043.4-1.448 0a.991.991 0 0 1 0-1.428l.116-.114a1.024 1.024 0 0 1 1.447 0c.348.4.348 1.028 0 1.428zm44.464-43.854c-.463.457-1.1.457-1.505.057a.991.991 0 0 1 0-1.428l.058-.057c.405-.4 1.042-.4 1.447 0a.991.991 0 0 1 0 1.428zm-44.463 58.529c-.464.457-1.1.457-1.506.057a.99.99 0 0 1 0-1.427l.058-.058a1.025 1.025 0 0 1 1.448 0 .991.991 0 0 1 0 1.428zm44.521-43.968l-.116.114c-.405.4-1.042.4-1.447 0a.99.99 0 0 1 0-1.427l.116-.114c.405-.4 1.042-.4 1.447 0 .405.457.405 1.085 0 1.427zm-7.411 7.366l-.115.115a1.025 1.025 0 0 1-1.448 0 .991.991 0 0 1 0-1.428l.116-.114c.405-.4 1.042-.4 1.447 0a.988.988 0 0 1 0 1.427zm-7.41 7.309l-.116.115a1.024 1.024 0 0 1-1.447 0 .99.99 0 0 1 0-1.428l.115-.114c.406-.4 1.043-.4 1.448 0a.99.99 0 0 1 0 1.427zm-7.411 7.309l-.116.115a1.024 1.024 0 0 1-1.447 0 .991.991 0 0 1 0-1.428l.116-.114c.405-.4 1.042-.4 1.447 0 .348.4.348 1.028 0 1.427zm-7.468 7.309l-.116.115a1.025 1.025 0 0 1-1.448 0 .991.991 0 0 1 0-1.428l.116-.114c.406-.4 1.042-.4 1.448 0 .405.457.405 1.085 0 1.427zm-7.411 7.366l-.116.115a1.024 1.024 0 0 1-1.447 0 .991.991 0 0 1 0-1.428l.116-.114c.405-.4 1.042-.4 1.447 0a.99.99 0 0 1 0 1.427zM246.5 160.77c-.463.457-1.1.457-1.505.057a.988.988 0 0 1 0-1.427l.058-.057c.405-.4 1.042-.4 1.447 0a.99.99 0 0 1 0 1.427zm-44.464 58.585c-.463.457-1.1.457-1.505.057a.99.99 0 0 1 0-1.427l.058-.057c.405-.4 1.042-.4 1.447 0a1.106 1.106 0 0 1 0 1.427zm44.522-43.968l-.116.115a1.024 1.024 0 0 1-1.447 0 .99.99 0 0 1 0-1.428l.115-.114c.406-.4 1.043-.4 1.448 0a.99.99 0 0 1 0 1.427zm-7.411 7.309l-.116.115a1.024 1.024 0 0 1-1.447 0 .991.991 0 0 1 0-1.428l.116-.114c.405-.4 1.042-.4 1.447 0a.99.99 0 0 1 0 1.427zm-7.41 7.309l-.116.115a1.025 1.025 0 0 1-1.448 0 .991.991 0 0 1 0-1.428l.116-.114c.405-.4 1.042-.4 1.448 0 .347.457.347 1.085 0 1.427zm-7.469 7.367l-.116.114a1.024 1.024 0 0 1-1.447 0 .991.991 0 0 1 0-1.428l.116-.114c.405-.4 1.042-.4 1.447 0a.991.991 0 0 1 0 1.428zm-7.411 7.309l-.115.114a1.025 1.025 0 0 1-1.448 0 .991.991 0 0 1 0-1.428l.116-.114c.405-.4 1.042-.4 1.447 0a.99.99 0 0 1 0 1.428zm-7.41 7.309l-.116.114a1.024 1.024 0 0 1-1.447 0 .99.99 0 0 1 0-1.428l.115-.114c.406-.4 1.042-.4 1.448 0a.991.991 0 0 1 0 1.428zm44.464-43.854c-.463.456-1.1.456-1.506.057a.991.991 0 0 1 0-1.428l.058-.057c.406-.4 1.042-.4 1.448 0a.991.991 0 0 1 0 1.428zm-44.465 58.529c-.463.457-1.1.457-1.505.057a.991.991 0 0 1 0-1.428l.058-.057a1.024 1.024 0 0 1 1.447 0 .99.99 0 0 1 0 1.428zm44.58-43.911l-.116.057c-.405.4-1.042.4-1.447 0a.988.988 0 0 1 0-1.427l.116-.114c.405-.4 1.042-.4 1.447 0 .347.456.347 1.084 0 1.484zm-7.469 7.309l-.115.114c-.406.4-1.043.4-1.448 0a.99.99 0 0 1 0-1.427l.116-.114c.405-.4 1.042-.4 1.447 0a.988.988 0 0 1 0 1.427zm-7.41 7.309l-.116.114c-.405.4-1.042.4-1.447 0a.988.988 0 0 1 0-1.427l.115-.114c.406-.4 1.042-.4 1.448 0a.99.99 0 0 1 0 1.427zm-7.411 7.309l-.116.114c-.405.4-1.042.4-1.447 0a.99.99 0 0 1 0-1.427l.116-.114c.405-.4 1.042-.4 1.447 0 .405.399.405 1.085 0 1.427zm-7.411 7.366l-.115.114c-.406.4-1.042.4-1.448 0a.99.99 0 0 1 0-1.427l.116-.114c.405-.4 1.042-.4 1.447 0a1.106 1.106 0 0 1 0 1.427zm-7.468 7.309l-.116.114c-.405.4-1.042.4-1.447 0a.988.988 0 0 1 0-1.427l.115-.114c.406-.4 1.043-.4 1.448 0a.99.99 0 0 1 0 1.427zm44.522-43.911c-.463.457-1.1.457-1.505.057a.988.988 0 0 1 0-1.427l.058-.057c.405-.4 1.042-.4 1.447 0a.99.99 0 0 1 0 1.427zm-44.58 58.472c-.463.457-1.1.457-1.505.057a.991.991 0 0 1 0-1.428l.058-.057a1.024 1.024 0 0 1 1.447 0c.406.457.406 1.085 0 1.428zm44.58-43.911l-.116.114c-.405.4-1.042.4-1.447 0a.991.991 0 0 1 0-1.428l.116-.114c.405-.4 1.042-.4 1.447 0a.991.991 0 0 1 0 1.428zm-7.41 7.309l-.116.114c-.406.4-1.042.4-1.448 0a.991.991 0 0 1 0-1.428l.116-.114c.405-.4 1.042-.4 1.448 0a1.11 1.11 0 0 1 0 1.428zm-7.469 7.309l-.116.114c-.405.4-1.042.4-1.447 0a.991.991 0 0 1 0-1.428l.116-.114c.405-.4 1.042-.4 1.447 0 .405.457.405 1.085 0 1.428zm-7.411 7.366l-.115.114c-.406.4-1.043.4-1.448 0a.991.991 0 0 1 0-1.428l.116-.114c.405-.4 1.042-.4 1.447 0a.99.99 0 0 1 0 1.428zm-7.41 7.309l-.116.114c-.405.4-1.042.4-1.448 0a.991.991 0 0 1 0-1.428l.116-.114c.406-.4 1.042-.4 1.448 0a.991.991 0 0 1 0 1.428zm-7.411 7.309l-.116.114c-.405.4-1.042.4-1.447 0a.991.991 0 0 1 0-1.428l.116-.114c.405-.4 1.042-.4 1.447 0a1.11 1.11 0 0 1 0 1.428zm44.464-43.854c-.463.456-1.1.456-1.505.057a.99.99 0 0 1 0-1.428l.057-.057c.406-.4 1.043-.4 1.448 0a.991.991 0 0 1 0 1.428z" fill="#A4B4C4" fill-opacity=".4"/><path d="M645.809 217.16c-.463.457-1.1.457-1.505.057a.99.99 0 0 1 0-1.427l.058-.058a1.024 1.024 0 0 1 1.447 0c.348.4.348 1.028 0 1.428zm44.522-43.968l-.116.114c-.405.4-1.042.4-1.447 0a.988.988 0 0 1 0-1.427l.115-.114c.406-.4 1.043-.4 1.448 0a.99.99 0 0 1 0 1.427zm-7.411 7.309l-.116.114c-.405.4-1.042.4-1.447 0a.99.99 0 0 1 0-1.427l.116-.114c.405-.4 1.042-.4 1.447 0 .405.399.405 1.085 0 1.427zm-7.41 7.366l-.116.114c-.406.4-1.042.4-1.448 0a.99.99 0 0 1 0-1.427l.116-.114c.405-.4 1.042-.4 1.448 0a1.108 1.108 0 0 1 0 1.427zm-7.469 7.309l-.116.114c-.405.4-1.042.4-1.447 0a.99.99 0 0 1 0-1.427l.116-.114c.405-.4 1.042-.4 1.447 0a.99.99 0 0 1 0 1.427zm-7.411 7.309l-.115.114c-.406.4-1.043.4-1.448 0a.99.99 0 0 1 0-1.427l.116-.114c.405-.4 1.042-.4 1.447 0a.988.988 0 0 1 0 1.427zm-7.41 7.309l-.116.114c-.405.4-1.042.4-1.448 0a.99.99 0 0 1 0-1.427l.116-.114c.406-.4 1.042-.4 1.448 0 .405.457.405 1.085 0 1.427zm44.464-43.854c-.464.457-1.1.457-1.506.057a.99.99 0 0 1 0-1.427l.058-.057c.406-.4 1.042-.4 1.448 0a.99.99 0 0 1 0 1.427zm-44.464 58.529c-.463.456-1.1.456-1.505.057a.99.99 0 0 1 0-1.428l.057-.057c.406-.4 1.043-.4 1.448 0a.991.991 0 0 1 0 1.428zm44.579-43.912l-.115.115a1.025 1.025 0 0 1-1.448 0 .991.991 0 0 1 0-1.428l.116-.114c.405-.4 1.042-.4 1.447 0a.988.988 0 0 1 0 1.427zm-7.468 7.309l-.116.115a1.024 1.024 0 0 1-1.447 0 .99.99 0 0 1 0-1.428l.115-.114c.406-.4 1.043-.4 1.448 0a.99.99 0 0 1 0 1.427zm-7.411 7.309l-.116.115a1.024 1.024 0 0 1-1.447 0 .991.991 0 0 1 0-1.428l.116-.114c.405-.4 1.042-.4 1.447 0a.99.99 0 0 1 0 1.427zm-7.41 7.309l-.116.115a1.025 1.025 0 0 1-1.448 0 .991.991 0 0 1 0-1.428l.116-.114c.405-.4 1.042-.4 1.448 0 .405.457.405 1.085 0 1.427zm-7.411 7.366l-.116.058a1.024 1.024 0 0 1-1.447 0 .99.99 0 0 1 0-1.428l.115-.114c.406-.4 1.043-.4 1.448 0 .405.457.405 1.085 0 1.484zm-7.469 7.309l-.115.115a1.025 1.025 0 0 1-1.448 0 .991.991 0 0 1 0-1.428l.116-.114c.405-.4 1.042-.4 1.447 0a.988.988 0 0 1 0 1.427zm44.522-43.91c-.463.457-1.1.457-1.505.057a.991.991 0 0 1 0-1.428l.058-.057a1.024 1.024 0 0 1 1.447 0c.406.457.406 1.085 0 1.428zm-44.464 58.586c-.463.457-1.1.457-1.505.057a.991.991 0 0 1 0-1.428l.058-.057c.405-.4 1.042-.4 1.447 0a.991.991 0 0 1 0 1.428zm44.522-43.968l-.116.114c-.405.4-1.042.4-1.447 0a.988.988 0 0 1 0-1.427l.115-.115a1.025 1.025 0 0 1 1.448 0 .991.991 0 0 1 0 1.428zm-7.411 7.366l-.116.114c-.405.4-1.042.4-1.447 0a.99.99 0 0 1 0-1.427l.116-.114c.405-.4 1.042-.4 1.447 0a.99.99 0 0 1 0 1.427zm-7.411 7.309l-.115.114c-.406.4-1.042.4-1.448 0a.99.99 0 0 1 0-1.427l.116-.114c.405-.4 1.042-.4 1.447 0a.988.988 0 0 1 0 1.427zm-7.41 7.309l-.116.114c-.405.4-1.042.4-1.447 0a.988.988 0 0 1 0-1.427l.115-.114c.406-.4 1.043-.4 1.448 0a1.108 1.108 0 0 1 0 1.427zm-7.469 7.309l-.116.114c-.405.4-1.042.4-1.447 0a.99.99 0 0 1 0-1.427l.116-.114c.405-.4 1.042-.4 1.447 0a.988.988 0 0 1 0 1.427zm-7.41 7.366l-.116.114c-.405.4-1.042.4-1.448 0a.99.99 0 0 1 0-1.427l.116-.114c.405-.4 1.042-.4 1.448 0a.99.99 0 0 1 0 1.427zm44.522-43.911c-.464.457-1.1.457-1.506.057a.99.99 0 0 1 0-1.427l.058-.058a1.025 1.025 0 0 1 1.448 0 1.11 1.11 0 0 1 0 1.428zm-44.522 58.529c-.463.457-1.1.457-1.505.057a.988.988 0 0 1 0-1.427l.057-.057c.406-.4 1.043-.4 1.448 0 .405.399.405 1.085 0 1.427zm44.579-43.911l-.115.114c-.406.4-1.042.4-1.448 0a.99.99 0 0 1 0-1.427l.116-.114c.405-.4 1.042-.4 1.447 0a.988.988 0 0 1 0 1.427zm-7.41 7.309l-.116.114c-.405.4-1.042.4-1.447 0a.988.988 0 0 1 0-1.427l.115-.114c.406-.4 1.043-.4 1.448 0a1.108 1.108 0 0 1 0 1.427zm-7.469 7.309l-.115.114c-.406.4-1.043.4-1.448 0a.99.99 0 0 1 0-1.427l.116-.114c.405-.4 1.042-.4 1.447 0 .406.399.406 1.085 0 1.427zm-7.41 7.366l-.116.114c-.405.4-1.042.4-1.448 0a.99.99 0 0 1 0-1.427l.116-.114c.406-.4 1.042-.4 1.448 0a.99.99 0 0 1 0 1.427zm-7.411 7.309l-.116.114c-.405.4-1.042.4-1.447 0a.99.99 0 0 1 0-1.427l.116-.114c.405-.4 1.042-.4 1.447 0a.99.99 0 0 1 0 1.427zm-7.411 7.309l-.115.114c-.406.4-1.043.4-1.448 0a.99.99 0 0 1 0-1.427l.116-.114c.405-.4 1.042-.4 1.447 0a1.106 1.106 0 0 1 0 1.427zm44.464-43.854c-.463.457-1.1.457-1.505.057a.99.99 0 0 1 0-1.427l.058-.057c.405-.4 1.042-.4 1.447 0a.99.99 0 0 1 0 1.427zm-44.463 58.53c-.464.456-1.1.456-1.506.057a.991.991 0 0 1 0-1.428l.058-.057c.405-.4 1.042-.4 1.448 0a.991.991 0 0 1 0 1.428zm44.521-43.968l-.116.114c-.405.4-1.042.4-1.447 0a.991.991 0 0 1 0-1.428l.116-.114a1.024 1.024 0 0 1 1.447 0c.405.457.405 1.085 0 1.428zm-7.411 7.366l-.115.114c-.406.4-1.042.4-1.448 0a.99.99 0 0 1 0-1.427l.116-.115a1.024 1.024 0 0 1 1.447 0 .99.99 0 0 1 0 1.428zm-7.41 7.309l-.116.114c-.405.4-1.042.4-1.447 0a.988.988 0 0 1 0-1.427l.115-.115a1.025 1.025 0 0 1 1.448 0 .991.991 0 0 1 0 1.428zm-7.411 7.309l-.116.114c-.405.4-1.042.4-1.447 0a.99.99 0 0 1 0-1.427l.116-.115a1.024 1.024 0 0 1 1.447 0c.348.4.348 1.028 0 1.428zm-7.468 7.309l-.116.114c-.405.4-1.042.4-1.448 0a.99.99 0 0 1 0-1.427l.116-.115a1.025 1.025 0 0 1 1.448 0c.405.457.405 1.085 0 1.428zm-7.411 7.366l-.116.114c-.405.4-1.042.4-1.447 0a.99.99 0 0 1 0-1.427l.116-.115a1.024 1.024 0 0 1 1.447 0 .991.991 0 0 1 0 1.428zm44.522-43.911c-.463.457-1.1.457-1.505.057a.99.99 0 0 1 0-1.428l.058-.057a1.024 1.024 0 0 1 1.447 0 .991.991 0 0 1 0 1.428zm-44.464 58.585c-.463.457-1.1.457-1.505.057a.991.991 0 0 1 0-1.428l.058-.057a1.024 1.024 0 0 1 1.447 0c.348.4.348 1.028 0 1.428zm44.522-43.968l-.116.114c-.405.4-1.042.4-1.447 0a.988.988 0 0 1 0-1.427l.115-.115a1.025 1.025 0 0 1 1.448 0 .991.991 0 0 1 0 1.428zm-7.411 7.309l-.116.114c-.405.4-1.042.4-1.447 0a.99.99 0 0 1 0-1.427l.116-.115a1.024 1.024 0 0 1 1.447 0 .991.991 0 0 1 0 1.428zm-7.41 7.309l-.116.114c-.405.4-1.042.4-1.448 0a.99.99 0 0 1 0-1.427l.116-.115a1.025 1.025 0 0 1 1.448 0c.347.457.347 1.085 0 1.428zm-7.469 7.366l-.116.114c-.405.4-1.042.4-1.447 0a.99.99 0 0 1 0-1.427l.116-.114c.405-.4 1.042-.4 1.447 0a.99.99 0 0 1 0 1.427zm-7.411 7.309l-.115.114c-.406.4-1.043.4-1.448 0a.99.99 0 0 1 0-1.427l.116-.114c.405-.4 1.042-.4 1.447 0a.988.988 0 0 1 0 1.427zm-7.41 7.309l-.116.114c-.405.4-1.042.4-1.447 0a.988.988 0 0 1 0-1.427l.115-.114c.406-.4 1.042-.4 1.448 0a.99.99 0 0 1 0 1.427zm44.464-43.854c-.463.457-1.1.457-1.506.057a.99.99 0 0 1 0-1.427l.058-.058a1.025 1.025 0 0 1 1.448 0 .991.991 0 0 1 0 1.428zm-44.465 58.529c-.463.457-1.1.457-1.505.057a.99.99 0 0 1 0-1.427l.058-.057c.405-.4 1.042-.4 1.447 0a.988.988 0 0 1 0 1.427zm44.58-43.91l-.116.057a1.024 1.024 0 0 1-1.447 0 .99.99 0 0 1 0-1.428l.116-.114c.405-.4 1.042-.4 1.447 0 .347.457.347 1.085 0 1.485zm-7.469 7.309l-.115.114c-.406.4-1.043.4-1.448 0a.991.991 0 0 1 0-1.428l.116-.114c.405-.4 1.042-.4 1.447 0a.99.99 0 0 1 0 1.428zm-7.41 7.309l-.116.114c-.405.4-1.042.4-1.447 0a.99.99 0 0 1 0-1.428l.115-.114c.406-.4 1.042-.4 1.448 0a.991.991 0 0 1 0 1.428zm-7.411 7.309l-.116.114c-.405.4-1.042.4-1.447 0a.991.991 0 0 1 0-1.428l.116-.114c.405-.4 1.042-.4 1.447 0s.405 1.085 0 1.428zm-7.411 7.366l-.115.114c-.406.4-1.042.4-1.448 0a.991.991 0 0 1 0-1.428l.116-.114c.405-.4 1.042-.4 1.447 0 .348.4.348 1.028 0 1.428zm-7.468 7.309l-.116.114c-.405.4-1.042.4-1.447 0a.99.99 0 0 1 0-1.428l.115-.114c.406-.4 1.043-.4 1.448 0a.991.991 0 0 1 0 1.428zm44.522-43.911c-.463.456-1.1.456-1.505.057a.99.99 0 0 1 0-1.428l.058-.057c.405-.4 1.042-.4 1.447 0a.991.991 0 0 1 0 1.428zm-44.58 58.471c-.463.457-1.1.457-1.505.057a.99.99 0 0 1 0-1.427l.058-.057c.405-.4 1.042-.4 1.447 0 .406.457.406 1.085 0 1.427zm44.58-43.911l-.116.114c-.405.4-1.042.4-1.447 0a.99.99 0 0 1 0-1.427l.116-.114c.405-.4 1.042-.4 1.447 0a.99.99 0 0 1 0 1.427zm-7.41 7.309l-.116.114c-.406.4-1.042.4-1.448 0a.99.99 0 0 1 0-1.427l.116-.114c.405-.4 1.042-.4 1.448 0a1.108 1.108 0 0 1 0 1.427zm-7.469 7.309l-.116.114c-.405.4-1.042.4-1.447 0a.99.99 0 0 1 0-1.427l.116-.114c.405-.4 1.042-.4 1.447 0 .405.456.405 1.085 0 1.427zm-7.411 7.366l-.115.114c-.406.4-1.043.4-1.448 0a.99.99 0 0 1 0-1.427l.116-.114c.405-.4 1.042-.4 1.447 0a.988.988 0 0 1 0 1.427zm-7.41 7.309l-.116.114c-.405.4-1.042.4-1.448 0a.99.99 0 0 1 0-1.427l.116-.114c.406-.4 1.042-.4 1.448 0a.99.99 0 0 1 0 1.427zm-7.411 7.309l-.116.114c-.405.4-1.042.4-1.447 0a.99.99 0 0 1 0-1.427l.116-.114c.405-.4 1.042-.4 1.447 0a1.108 1.108 0 0 1 0 1.427zm44.464-43.854c-.463.457-1.1.457-1.505.057a.988.988 0 0 1 0-1.427l.057-.057c.406-.4 1.043-.4 1.448 0a.99.99 0 0 1 0 1.427z" fill="#3CB4B7"/><path d="M555.902 348.154c0 21.985-18.074 39.833-40.402 39.833s-40.402-17.848-40.402-39.833c0-21.984 18.074-39.832 40.402-39.832s40.402 17.848 40.402 39.832z" stroke="#30AFB2" stroke-width="2.196" filter="url(#b)"/><g clip-path="url(#c)" fill="#E7FEFF"><path d="M537.75 368h-6.188v-27.278h-33.124V368h-6.188v-29.024H489v-4.234L515 319l26 15.742v4.234h-3.25V368zm-5.174-1.058h4.16v-28.998h3.25v-2.593L515 320.217l-24.986 15.134v2.593h3.25v28.998h4.16V339.69h35.152v27.252z"/><path d="M532.576 353.025h-35.152V339.69h35.152v13.335zm-34.138-1.032h33.124v-11.271h-33.124v11.271z"/><path d="M528.312 344.426c0-.423.338-.767.754-.767s.754.344.754.767a.761.761 0 0 1-.754.768.761.761 0 0 1-.754-.768zm-2.548 0c0-.423.338-.767.754-.767s.754.344.754.767a.761.761 0 0 1-.754.768.761.761 0 0 1-.754-.768zm-2.548 0c0-.423.338-.767.754-.767s.754.344.754.767a.761.761 0 0 1-.754.768.761.761 0 0 1-.754-.768zm-2.574 0c0-.423.338-.767.754-.767s.754.344.754.767a.761.761 0 0 1-.754.768.779.779 0 0 1-.754-.768zm-2.548 0c0-.423.338-.767.754-.767s.754.344.754.767a.761.761 0 0 1-.754.768.779.779 0 0 1-.754-.768zm-2.548 0c0-.423.338-.767.754-.767s.754.344.754.767a.761.761 0 0 1-.754.768.779.779 0 0 1-.754-.768zm-2.548 0c0-.423.338-.767.754-.767s.754.344.754.767a.761.761 0 0 1-.754.768.779.779 0 0 1-.754-.768zm-2.548 0c0-.423.338-.767.754-.767s.754.344.754.767a.761.761 0 0 1-.754.768.761.761 0 0 1-.754-.768zm-2.548 0c0-.423.338-.767.754-.767s.754.344.754.767a.761.761 0 0 1-.754.768.761.761 0 0 1-.754-.768zm-2.548 0c0-.423.338-.767.754-.767s.754.344.754.767a.761.761 0 0 1-.754.768.761.761 0 0 1-.754-.768zm-2.548 0c0-.423.338-.767.754-.767s.754.344.754.767a.761.761 0 0 1-.754.768.761.761 0 0 1-.754-.768zm-2.548 0c0-.423.338-.767.754-.767s.754.344.754.767a.761.761 0 0 1-.754.768.761.761 0 0 1-.754-.768zm28.054 3.784c0-.424.338-.768.754-.768s.754.344.754.768a.761.761 0 0 1-.754.767.761.761 0 0 1-.754-.767zm-2.548 0c0-.424.338-.768.754-.768s.754.344.754.768a.761.761 0 0 1-.754.767.761.761 0 0 1-.754-.767zm-2.548 0c0-.424.338-.768.754-.768s.754.344.754.768a.761.761 0 0 1-.754.767.761.761 0 0 1-.754-.767zm-2.574 0c0-.424.338-.768.754-.768s.754.344.754.768a.761.761 0 0 1-.754.767.779.779 0 0 1-.754-.767zm-2.548 0c0-.424.338-.768.754-.768s.754.344.754.768a.761.761 0 0 1-.754.767.779.779 0 0 1-.754-.767zm-2.548 0c0-.424.338-.768.754-.768s.754.344.754.768a.761.761 0 0 1-.754.767.779.779 0 0 1-.754-.767zm-2.548 0c0-.424.338-.768.754-.768s.754.344.754.768a.761.761 0 0 1-.754.767.779.779 0 0 1-.754-.767zm-2.548 0c0-.424.338-.768.754-.768s.754.344.754.768a.761.761 0 0 1-.754.767.761.761 0 0 1-.754-.767zm-2.548 0c0-.424.338-.768.754-.768s.754.344.754.768a.761.761 0 0 1-.754.767.761.761 0 0 1-.754-.767zm-2.548 0c0-.424.338-.768.754-.768s.754.344.754.768a.761.761 0 0 1-.754.767.761.761 0 0 1-.754-.767zm-2.548 0c0-.424.338-.768.754-.768s.754.344.754.768a.761.761 0 0 1-.754.767.761.761 0 0 1-.754-.767zm-2.548 0c0-.424.338-.768.754-.768s.754.344.754.768a.761.761 0 0 1-.754.767.761.761 0 0 1-.754-.767zM515.65 368h-10.634v-8.52h10.634V368zm-9.62-1.058h8.606v-6.456h-8.606v6.456z"/><path d="M515.65 360.513h-10.634v-8.52h10.634v8.52zm-9.62-1.032h8.606v-6.456h-8.606v6.456z"/><path d="M525.296 368h-10.66v-8.52h10.634V368h.026zm-9.646-1.058h8.606v-6.456h-8.606v6.456zm-.494-32.358c-2.236 0-4.082-1.852-4.082-4.154 0-2.275 1.82-4.154 4.082-4.154 2.236 0 4.082 1.852 4.082 4.154 0 2.276-1.846 4.154-4.082 4.154zm0-7.249c-1.69 0-3.042 1.402-3.042 3.095 0 1.72 1.378 3.096 3.042 3.096s3.042-1.402 3.042-3.096c0-1.72-1.352-3.095-3.042-3.095z"/></g><path d="M559.451 348.154c0 23.929-19.67 43.341-43.951 43.341s-43.951-19.412-43.951-43.341c0-23.929 19.67-43.34 43.951-43.34s43.951 19.411 43.951 43.34z" stroke="#6FD9DD" stroke-width="1.098" filter="url(#d)"/><path d="M297.36 141h-1.524v-7.979h-4.094V141h-1.517v-9.28h7.135V141zm8.518-3.523c0 1.147-.294 2.042-.882 2.685-.588.643-1.407.965-2.456.965-.656 0-1.236-.148-1.74-.444a2.943 2.943 0 0 1-1.161-1.276c-.271-.555-.407-1.198-.407-1.93 0-1.138.292-2.027.876-2.666.584-.639 1.407-.958 2.47-.958 1.015 0 1.819.328 2.412.983.592.652.888 1.532.888 2.641zm-5.109 0c0 1.621.598 2.431 1.796 2.431 1.185 0 1.777-.81 1.777-2.431 0-1.604-.596-2.406-1.79-2.406-.626 0-1.081.208-1.364.622-.28.415-.419 1.01-.419 1.784zm11.184-3.498h1.638l-2.901 3.384 3.148 3.637h-1.713l-3.035-3.561V141h-1.491v-7.021h1.491v3.409l2.863-3.409zm1.981 0h1.625l1.428 3.98c.216.568.36 1.101.431 1.6h.051c.038-.233.108-.514.21-.844.101-.334.639-1.913 1.612-4.736h1.612l-3.002 7.954c-.546 1.46-1.456 2.19-2.73 2.19-.33 0-.651-.036-.964-.108v-1.181c.224.051.48.077.768.077.719 0 1.225-.417 1.517-1.251l.26-.66-2.818-7.021zm14.174 0V141h-1.498v-5.84h-3.149V141h-1.491v-7.021h6.138zM334.64 141l-.299-.978h-.05c-.339.428-.68.72-1.022.876-.343.153-.783.229-1.321.229-.69 0-1.229-.186-1.618-.559-.386-.372-.578-.899-.578-1.58 0-.724.269-1.27.806-1.638.538-.368 1.356-.569 2.457-.603l1.212-.038v-.375c0-.448-.106-.782-.317-1.002-.208-.225-.531-.337-.972-.337-.359 0-.704.053-1.034.159-.33.106-.648.23-.952.374l-.483-1.066a5.116 5.116 0 0 1 1.251-.451 5.63 5.63 0 0 1 1.282-.158c.893 0 1.566.194 2.019.584.457.389.685 1 .685 1.834V141h-1.066zm-2.222-1.016c.542 0 .975-.15 1.301-.45.33-.305.495-.73.495-1.276v-.61l-.901.039c-.702.025-1.215.143-1.536.355-.318.207-.476.527-.476.958 0 .314.093.557.279.73.186.17.466.254.838.254zm8.436 1.143c-1.092 0-1.947-.317-2.564-.952-.614-.639-.921-1.517-.921-2.634 0-1.147.286-2.049.857-2.705.571-.655 1.356-.983 2.355-.983.927 0 1.659.281 2.196.844.538.563.806 1.337.806 2.323v.806h-4.678c.021.681.206 1.206.553 1.574.347.364.835.546 1.466.546.415 0 .8-.038 1.155-.114.36-.08.745-.212 1.155-.394v1.213a4.607 4.607 0 0 1-1.104.368 6.775 6.775 0 0 1-1.276.108zm-.273-6.145c-.474 0-.855.151-1.143.451-.283.301-.452.739-.507 1.314h3.186c-.008-.58-.148-1.018-.419-1.314-.271-.3-.643-.451-1.117-.451zm8.728 4.59l.083-.305c.173-.63.323-1.115.45-1.454l1.575-3.834h1.986V141h-1.377v-5.668l-.114.38c-.191.682-.352 1.183-.483 1.505L349.893 141h-1.13l-1.536-3.809c-.212-.55-.406-1.17-.584-1.859V141h-1.365v-7.021h1.974l1.524 3.72c.135.343.313.967.533 1.873zm15.698-3.796c0 .829-.485 1.331-1.454 1.504v.051c.542.064.957.235 1.244.514.288.28.432.641.432 1.086 0 .664-.254 1.176-.762 1.536-.503.355-1.238.533-2.202.533h-3.352v-7.021h3.339c1.837 0 2.755.599 2.755 1.797zm-1.308 3.066c0-.339-.131-.578-.393-.717-.263-.144-.656-.216-1.181-.216h-1.72v1.987h1.758c1.024 0 1.536-.352 1.536-1.054zm-.184-2.939c0-.279-.11-.48-.33-.603-.216-.127-.539-.191-.971-.191h-1.809v1.689h1.587c.499 0 .878-.064 1.136-.191.258-.131.387-.366.387-.704zm9.484 1.574c0 1.147-.295 2.042-.883 2.685-.588.643-1.407.965-2.456.965-.656 0-1.236-.148-1.74-.444a2.943 2.943 0 0 1-1.161-1.276c-.271-.555-.406-1.198-.406-1.93 0-1.138.292-2.027.876-2.666.583-.639 1.407-.958 2.469-.958 1.015 0 1.819.328 2.412.983.592.652.889 1.532.889 2.641zm-5.11 0c0 1.621.598 2.431 1.796 2.431 1.185 0 1.777-.81 1.777-2.431 0-1.604-.596-2.406-1.79-2.406-.626 0-1.081.208-1.364.622-.28.415-.419 1.01-.419 1.784zm16.3-1.701c0 .829-.484 1.331-1.453 1.504v.051c.542.064.956.235 1.244.514.288.28.432.641.432 1.086 0 .664-.254 1.176-.762 1.536-.504.355-1.238.533-2.203.533h-3.351v-7.021h3.339c1.836 0 2.754.599 2.754 1.797zm-1.307 3.066c0-.339-.131-.578-.394-.717-.262-.144-.656-.216-1.18-.216h-1.721v1.987h1.759c1.024 0 1.536-.352 1.536-1.054zm-.184-2.939c0-.279-.11-.48-.33-.603-.216-.127-.54-.191-.972-.191h-1.809v1.689h1.587c.5 0 .878-.064 1.137-.191.258-.131.387-.366.387-.704zm6.087 5.224c-1.062 0-1.87-.309-2.425-.927-.55-.622-.825-1.513-.825-2.672 0-1.181.288-2.089.863-2.723.58-.635 1.416-.952 2.508-.952.74 0 1.407.137 1.999.412l-.45 1.2c-.631-.246-1.151-.368-1.562-.368-1.214 0-1.822.806-1.822 2.418 0 .787.151 1.38.451 1.777.305.394.749.591 1.333.591.664 0 1.293-.165 1.885-.495v1.301a2.9 2.9 0 0 1-.857.336 5.05 5.05 0 0 1-1.098.102zm6.672 0c-1.092 0-1.947-.317-2.565-.952-.614-.639-.92-1.517-.92-2.634 0-1.147.285-2.049.857-2.705.571-.655 1.356-.983 2.355-.983.926 0 1.658.281 2.196.844.537.563.806 1.337.806 2.323v.806h-4.678c.021.681.205 1.206.552 1.574.347.364.836.546 1.466.546.415 0 .8-.038 1.156-.114.359-.08.744-.212 1.155-.394v1.213a4.6 4.6 0 0 1-1.105.368 6.756 6.756 0 0 1-1.275.108zm-.273-6.145c-.474 0-.855.151-1.143.451-.284.301-.453.739-.508 1.314h3.187c-.009-.58-.148-1.018-.419-1.314-.271-.3-.643-.451-1.117-.451zm6.258 2.432l-2.355-3.435h1.702l1.599 2.457 1.612-2.457h1.689l-2.361 3.435L405.81 141h-1.689l-1.733-2.628-1.726 2.628h-1.689l2.469-3.586zm-107.345 20.158l.083-.305c.173-.63.323-1.115.45-1.454l1.575-3.834h1.986V159h-1.377v-5.668l-.114.38c-.191.682-.352 1.183-.483 1.505L294.681 159h-1.13l-1.536-3.809a17.28 17.28 0 0 1-.584-1.859V159h-1.365v-7.021h1.975l1.523 3.72c.135.343.313.967.533 1.873zm10.62 1.428l-.299-.978h-.05c-.339.428-.68.72-1.022.876-.343.153-.783.229-1.321.229-.689 0-1.229-.186-1.618-.559-.385-.372-.578-.899-.578-1.58 0-.724.269-1.27.806-1.638.538-.368 1.357-.569 2.457-.603l1.212-.038v-.375c0-.448-.106-.782-.317-1.002-.208-.225-.531-.337-.971-.337-.36 0-.705.053-1.035.159-.33.106-.648.23-.952.374l-.483-1.066a5.116 5.116 0 0 1 1.251-.451 5.63 5.63 0 0 1 1.282-.158c.893 0 1.566.194 2.019.584.457.389.685 1 .685 1.834V159h-1.066zm-2.222-1.016c.542 0 .976-.15 1.301-.45.33-.305.496-.73.496-1.276v-.61l-.902.039c-.702.025-1.214.143-1.536.355-.317.207-.476.527-.476.958 0 .314.093.557.279.73.186.17.466.254.838.254zm9.909-6.005v1.168h-3.047V159h-1.492v-7.021h4.539zm5.744 7.021l-.298-.978h-.051c-.338.428-.679.72-1.022.876-.342.153-.783.229-1.32.229-.69 0-1.229-.186-1.619-.559-.385-.372-.577-.899-.577-1.58 0-.724.268-1.27.806-1.638.537-.368 1.356-.569 2.456-.603l1.213-.038v-.375c0-.448-.106-.782-.318-1.002-.207-.225-.531-.337-.971-.337-.359 0-.704.053-1.034.159-.33.106-.648.23-.953.374l-.482-1.066a5.116 5.116 0 0 1 1.251-.451c.452-.106.88-.158 1.282-.158.893 0 1.565.194 2.018.584.457.389.686 1 .686 1.834V159h-1.067zm-2.221-1.016c.541 0 .975-.15 1.301-.45.33-.305.495-.73.495-1.276v-.61l-.901.039c-.703.025-1.215.143-1.536.355-.318.207-.476.527-.476.958 0 .314.093.557.279.73.186.17.465.254.838.254zm6.919-3.199c.681 0 1.182-.074 1.504-.222.322-.152.483-.385.483-.698 0-.572-.508-.857-1.524-.857-.677 0-1.369.152-2.076.457l-.482-1.111c.817-.334 1.718-.501 2.704-.501.872 0 1.549.16 2.031.482.483.317.724.774.724 1.371 0 .787-.451 1.303-1.352 1.549v.051c.563.152.965.37 1.206.653.245.284.368.635.368 1.054 0 .643-.283 1.158-.85 1.543-.563.381-1.35.571-2.362.571-1.104 0-1.949-.146-2.532-.438V157.4a5.59 5.59 0 0 0 2.405.546c.597 0 1.056-.082 1.378-.247.326-.17.488-.426.488-.768 0-.352-.162-.61-.488-.775-.326-.165-.83-.247-1.511-.247h-.857v-1.124h.743zm6.633-2.806v3.6c0 .419-.034 1.034-.102 1.847l3.523-5.447h1.822V159h-1.434v-3.536c0-.194.01-.51.031-.945.026-.436.047-.754.064-.953l-3.51 5.434h-1.822v-7.021h1.428zm8.861 0v2.819h3.307v-2.819h1.492V159h-1.492v-3.028h-3.307V159h-1.491v-7.021h1.491zM349.671 159l-.298-.978h-.051c-.339.428-.679.72-1.022.876-.343.153-.783.229-1.321.229-.689 0-1.229-.186-1.618-.559-.385-.372-.578-.899-.578-1.58 0-.724.269-1.27.806-1.638.538-.368 1.357-.569 2.457-.603l1.212-.038v-.375c0-.448-.105-.782-.317-1.002-.207-.225-.531-.337-.971-.337-.36 0-.705.053-1.035.159-.33.106-.647.23-.952.374l-.483-1.066a5.116 5.116 0 0 1 1.251-.451 5.63 5.63 0 0 1 1.282-.158c.893 0 1.566.194 2.019.584.457.389.685 1 .685 1.834V159h-1.066zm-2.222-1.016c.542 0 .976-.15 1.301-.45.331-.305.496-.73.496-1.276v-.61l-.902.039c-.702.025-1.214.143-1.536.355-.317.207-.476.527-.476.958 0 .314.093.557.279.73.187.17.466.254.838.254zm6.932-2.57l-2.355-3.435h1.701l1.6 2.457 1.612-2.457h1.688l-2.361 3.435 2.482 3.586h-1.688l-1.733-2.628L353.6 159h-1.688l2.469-3.586zm10.016-3.371v4.412l-.044 1.155-.019.362 3.764-5.929h1.314V159h-.984v-4.253l.019-.838.032-.825-3.758 5.916h-1.314v-6.957h.99zm-73.226 18v2.914h3.897v-2.914h1.054V177h-1.054v-3.136h-3.897V177h-1.054v-6.957h1.054zM302.635 177l-.21-.99h-.05c-.347.436-.694.732-1.042.888-.342.153-.772.229-1.288.229-.69 0-1.232-.178-1.625-.533-.389-.356-.584-.861-.584-1.517 0-1.405 1.123-2.142 3.371-2.209l1.18-.038v-.432c0-.546-.118-.948-.355-1.206-.233-.262-.608-.394-1.124-.394-.58 0-1.235.178-1.968.534l-.323-.807a4.97 4.97 0 0 1 1.123-.438 4.957 4.957 0 0 1 1.232-.158c.829 0 1.443.184 1.84.552.403.368.604.958.604 1.771V177h-.781zm-2.381-.743c.656 0 1.17-.18 1.543-.539.377-.36.565-.864.565-1.511v-.628l-1.054.044c-.838.03-1.443.161-1.815.394-.368.228-.553.586-.553 1.072 0 .381.115.671.343.87.233.199.557.298.971.298zm12.994.743l-.209-.99h-.051c-.347.436-.694.732-1.041.888-.343.153-.773.229-1.289.229-.69 0-1.231-.178-1.625-.533-.389-.356-.584-.861-.584-1.517 0-1.405 1.124-2.142 3.371-2.209l1.18-.038v-.432c0-.546-.118-.948-.355-1.206-.233-.262-.607-.394-1.124-.394-.579 0-1.235.178-1.967.534l-.324-.807a4.978 4.978 0 0 1 1.124-.438c.41-.105.82-.158 1.231-.158.829 0 1.443.184 1.841.552.402.368.603.958.603 1.771V177h-.781zm-2.38-.743c.656 0 1.17-.18 1.542-.539.377-.36.565-.864.565-1.511v-.628l-1.054.044c-.838.03-1.443.161-1.815.394-.368.228-.552.586-.552 1.072 0 .381.114.671.342.87.233.199.557.298.972.298zm4.234-6.214h1.129l1.524 3.967c.334.906.542 1.56.622 1.962h.051c.055-.216.169-.584.343-1.105.177-.525.753-2.133 1.726-4.824h1.13l-2.99 7.922c-.296.783-.643 1.337-1.041 1.663-.393.33-.878.495-1.453.495-.322 0-.639-.036-.953-.108v-.844c.233.051.493.076.781.076.724 0 1.24-.406 1.549-1.219l.387-.99-2.805-6.995zm11.711 0h1.155l-3.002 3.358 3.25 3.599h-1.232l-3.173-3.523V177h-1.054v-6.957h1.054v3.383l3.002-3.383zm9.483 9.363h-1.053V177h-5.732v-6.957h1.053v6.049h3.695v-6.049h1.053v6.049h.984v3.314zm2.343-9.363v4.412l-.045 1.155-.019.362 3.764-5.929h1.314V177h-.984v-4.253l.019-.838.032-.825-3.758 5.916h-1.314v-6.957h.991zm13.254 3.472c0 1.134-.286 2.021-.857 2.66-.572.635-1.361.952-2.368.952-.622 0-1.174-.146-1.657-.438a2.89 2.89 0 0 1-1.117-1.257c-.262-.546-.394-1.185-.394-1.917 0-1.134.284-2.016.851-2.647.567-.635 1.354-.952 2.361-.952.974 0 1.746.324 2.317.971.576.648.864 1.524.864 2.628zm-5.301 0c0 .889.178 1.566.533 2.031.356.466.879.699 1.568.699.69 0 1.213-.231 1.568-.692.36-.466.54-1.145.54-2.038 0-.884-.18-1.555-.54-2.012-.355-.461-.882-.692-1.58-.692-.69 0-1.211.226-1.562.679-.351.453-.527 1.128-.527 2.025zm8.208-3.472v2.914h3.897v-2.914h1.054V177h-1.054v-3.136H354.8V177h-1.054v-6.957h1.054zM366.264 177l-.21-.99h-.051c-.347.436-.694.732-1.041.888-.342.153-.772.229-1.288.229-.69 0-1.232-.178-1.625-.533-.389-.356-.584-.861-.584-1.517 0-1.405 1.123-2.142 3.37-2.209l1.181-.038v-.432c0-.546-.118-.948-.355-1.206-.233-.262-.608-.394-1.124-.394-.58 0-1.236.178-1.968.534l-.323-.807a4.97 4.97 0 0 1 1.123-.438 4.957 4.957 0 0 1 1.232-.158c.829 0 1.443.184 1.84.552.402.368.603.958.603 1.771V177h-.78zm-2.381-.743c.656 0 1.17-.18 1.543-.539.376-.36.565-.864.565-1.511v-.628l-1.054.044c-.838.03-1.443.161-1.815.394-.369.228-.553.586-.553 1.072 0 .381.115.671.343.87.233.199.557.298.971.298zm7.014-2.818l-2.418-3.396h1.2l1.834 2.666 1.828-2.666h1.187l-2.418 3.396 2.545 3.561h-1.193l-1.949-2.818-1.968 2.818h-1.193l2.545-3.561zm12.651-4.888c-1.02 0-1.826.341-2.418 1.022-.588.677-.882 1.606-.882 2.787 0 1.214.283 2.154.85 2.818.571.66 1.384.99 2.438.99.647 0 1.386-.116 2.215-.349v.946c-.643.241-1.437.362-2.38.362-1.367 0-2.423-.415-3.168-1.244-.74-.83-1.111-2.008-1.111-3.536 0-.956.178-1.794.533-2.514a3.883 3.883 0 0 1 1.549-1.663c.677-.389 1.473-.584 2.387-.584.973 0 1.824.178 2.552.534l-.457.926c-.703-.33-1.405-.495-2.108-.495zM398.643 177h-10.867v-9.28h1.079v8.302h3.809v-8.302h1.079v8.302h3.808v-8.302h1.092V177zm8.385 0l-1.155-2.952h-3.72L401.011 177h-1.092l3.669-9.318h.908l3.65 9.318h-1.118zm-1.491-3.923l-1.079-2.875c-.14-.364-.284-.811-.432-1.34-.093.407-.227.853-.4 1.34l-1.092 2.875h3.003zM253.063 324.784h.717c.614-1.122 1.128-2.381 1.543-3.777a20.99 20.99 0 0 0 .8-4.202h4.792v7.979h1.2v3.859h-1.46v-2.558h-6.132v2.558h-1.46v-3.859zm4.329-6.665c-.093.96-.33 2.075-.711 3.345-.381 1.265-.814 2.372-1.301 3.32h4.018v-6.665h-2.006zm12.296 4.443c0 1.147-.295 2.042-.883 2.685-.588.643-1.407.965-2.456.965-.656 0-1.236-.148-1.74-.444a2.943 2.943 0 0 1-1.161-1.276c-.271-.555-.406-1.198-.406-1.93 0-1.138.291-2.027.875-2.666.584-.639 1.408-.958 2.47-.958 1.015 0 1.819.327 2.412.983.592.652.889 1.532.889 2.641zm-5.11 0c0 1.621.598 2.431 1.796 2.431 1.185 0 1.777-.81 1.777-2.431 0-1.604-.596-2.406-1.79-2.406-.626 0-1.081.208-1.364.622-.28.415-.419 1.01-.419 1.784zm9.661 3.65c-1.062 0-1.871-.309-2.425-.927-.55-.622-.825-1.513-.825-2.672 0-1.181.288-2.089.863-2.723.58-.635 1.416-.952 2.507-.952.741 0 1.407.137 2 .412l-.451 1.2c-.63-.246-1.151-.368-1.561-.368-1.215 0-1.822.806-1.822 2.418 0 .787.15 1.38.451 1.777.304.394.749.591 1.333.591.664 0 1.292-.165 1.885-.495v1.301a2.91 2.91 0 0 1-.857.336 5.063 5.063 0 0 1-1.098.102zm8.88-7.148v1.168h-2.285v5.853h-1.498v-5.853h-2.285v-1.168h6.068zm5.745 7.021l-.299-.978h-.05c-.339.428-.68.72-1.022.876-.343.153-.783.229-1.321.229-.689 0-1.229-.186-1.618-.559-.385-.372-.578-.899-.578-1.58 0-.724.269-1.27.806-1.638.538-.368 1.357-.569 2.457-.603l1.212-.038v-.375c0-.448-.106-.782-.317-1.002-.208-.225-.531-.337-.971-.337-.36 0-.705.053-1.035.159-.33.106-.648.23-.952.374l-.483-1.066a5.116 5.116 0 0 1 1.251-.451 5.63 5.63 0 0 1 1.282-.158c.893 0 1.566.194 2.019.583.457.39.685 1.001.685 1.835v4.729h-1.066zm-2.222-1.016c.542 0 .976-.15 1.301-.45.33-.305.495-.73.495-1.276v-.61l-.901.038c-.702.026-1.214.144-1.536.356-.317.207-.476.527-.476.958 0 .314.093.557.279.73.186.17.466.254.838.254zm11.464-4.208c0 .829-.485 1.331-1.454 1.504v.051c.542.063.957.235 1.244.514.288.279.432.641.432 1.086 0 .664-.254 1.176-.762 1.536-.503.355-1.237.533-2.202.533h-3.352v-7.021h3.339c1.837 0 2.755.599 2.755 1.797zm-1.308 3.066c0-.339-.131-.578-.393-.718-.263-.143-.656-.215-1.181-.215h-1.72v1.986h1.758c1.024 0 1.536-.351 1.536-1.053zm-.184-2.939c0-.28-.11-.481-.33-.603-.216-.127-.539-.191-.971-.191h-1.809v1.689h1.587c.499 0 .878-.064 1.136-.191.258-.131.387-.366.387-.704zm7.611-1.924h1.638l-2.901 3.384 3.148 3.637h-1.714l-3.034-3.561v3.561h-1.491v-7.021h1.491v3.409l2.863-3.409zm7.44 7.021l-.299-.978h-.051c-.338.428-.679.72-1.022.876-.342.153-.782.229-1.32.229-.69 0-1.229-.186-1.619-.559-.385-.372-.577-.899-.577-1.58 0-.724.269-1.27.806-1.638.537-.368 1.356-.569 2.457-.603l1.212-.038v-.375c0-.448-.106-.782-.317-1.002-.208-.225-.532-.337-.972-.337-.359 0-.704.053-1.034.159-.33.106-.648.23-.952.374l-.483-1.066a5.116 5.116 0 0 1 1.251-.451c.452-.106.88-.158 1.282-.158.893 0 1.566.194 2.018.583.457.39.686 1.001.686 1.835v4.729h-1.066zm-2.222-1.016c.542 0 .975-.15 1.301-.45.33-.305.495-.73.495-1.276v-.61l-.901.038c-.703.026-1.215.144-1.536.356-.318.207-.476.527-.476.958 0 .314.093.557.279.73.186.17.465.254.838.254zm-49.252 11.995v7.021h-1.498v-5.84h-3.148v5.84h-1.492v-7.021h6.138zm8.367 3.498c0 1.147-.294 2.042-.883 2.685-.588.643-1.407.965-2.456.965-.656 0-1.236-.148-1.74-.444a2.943 2.943 0 0 1-1.161-1.276c-.271-.555-.406-1.198-.406-1.93 0-1.138.292-2.027.876-2.666.584-.639 1.407-.958 2.469-.958 1.015 0 1.819.327 2.412.983.592.652.889 1.532.889 2.641zm-5.11 0c0 1.621.599 2.431 1.796 2.431 1.185 0 1.777-.81 1.777-2.431 0-1.604-.596-2.406-1.79-2.406-.626 0-1.081.208-1.364.622-.28.415-.419 1.01-.419 1.784zm16.123 3.523l-.927-2.577h-3.548l-.908 2.577h-1.6l3.473-9.318h1.65l3.472 9.318h-1.612zm-1.327-3.885l-.869-2.526a20.735 20.735 0 0 1-.496-1.6c-.114.521-.281 1.09-.501 1.708l-.838 2.418h2.704zm8.036 2.457l.083-.305c.173-.63.324-1.115.45-1.454l1.575-3.834h1.987v7.021h-1.378v-5.668l-.114.38c-.191.682-.351 1.183-.483 1.505l-1.536 3.783h-1.13l-1.536-3.809a17.28 17.28 0 0 1-.584-1.859v5.668h-1.364v-7.021h1.974l1.523 3.72c.135.343.313.967.533 1.873zm9.293 1.555c-1.092 0-1.946-.317-2.564-.952-.614-.639-.921-1.517-.921-2.635 0-1.146.286-2.048.857-2.704.572-.656 1.357-.983 2.355-.983.927 0 1.659.281 2.197.844.537.563.806 1.337.806 2.323v.806h-4.678c.021.681.205 1.206.552 1.574.347.364.836.546 1.466.546.415 0 .8-.038 1.155-.114.36-.08.745-.212 1.156-.394v1.213a4.6 4.6 0 0 1-1.105.368 6.767 6.767 0 0 1-1.276.108zm-.273-6.145c-.474 0-.855.151-1.142.451-.284.301-.453.739-.508 1.314h3.186c-.008-.58-.148-1.018-.419-1.314-.27-.3-.643-.451-1.117-.451zm8.259 6.145c-.889 0-1.579-.32-2.07-.959h-.089c.06.593.089.953.089 1.08v2.875h-1.491v-10.144h1.206c.033.132.103.445.209.94h.076c.466-.711 1.164-1.066 2.095-1.066.876 0 1.557.317 2.044.952.491.634.736 1.525.736 2.672 0 1.147-.249 2.042-.749 2.685-.495.643-1.18.965-2.056.965zm-.362-6.056c-.593 0-1.026.174-1.301.521-.271.347-.407.901-.407 1.663v.222c0 .855.136 1.475.407 1.86.27.381.713.571 1.326.571.516 0 .914-.211 1.194-.635.279-.423.418-1.026.418-1.809 0-.787-.139-1.381-.418-1.783-.276-.407-.682-.61-1.219-.61zm6.328-1.092v3.6c0 .419-.033 1.034-.101 1.847l3.523-5.447h1.822v7.021h-1.435v-3.536c0-.194.011-.51.032-.945.025-.436.046-.754.063-.953l-3.51 5.434h-1.822v-7.021h1.428zm11.725 0h1.637l-2.901 3.384 3.149 3.637h-1.714l-3.034-3.561v3.561h-1.492v-7.021h1.492v3.409l2.863-3.409zm6.112 7.148c-1.091 0-1.946-.317-2.564-.952-.614-.639-.921-1.517-.921-2.635 0-1.146.286-2.048.857-2.704.572-.656 1.357-.983 2.355-.983.927 0 1.659.281 2.197.844.537.563.806 1.337.806 2.323v.806h-4.678c.021.681.205 1.206.552 1.574.347.364.836.546 1.466.546.415 0 .8-.038 1.155-.114.36-.08.745-.212 1.156-.394v1.213a4.6 4.6 0 0 1-1.105.368 6.767 6.767 0 0 1-1.276.108zm-.273-6.145c-.474 0-.854.151-1.142.451-.284.301-.453.739-.508 1.314h3.186c-.008-.58-.148-1.018-.418-1.314-.271-.3-.644-.451-1.118-.451zm-2.924 52.564h-1.079v-4.367h-4.888v4.367h-1.079v-9.28h1.079v3.948h4.888v-3.948h1.079v9.28zm6.672 0l-.21-.99h-.051c-.347.435-.694.732-1.041.888-.342.153-.772.229-1.288.229-.69 0-1.232-.178-1.625-.533-.389-.356-.584-.862-.584-1.517 0-1.405 1.123-2.142 3.37-2.209l1.181-.039v-.431c0-.546-.118-.948-.355-1.206-.233-.263-.608-.394-1.124-.394-.58 0-1.236.178-1.968.533l-.323-.806a4.97 4.97 0 0 1 1.123-.438 4.91 4.91 0 0 1 1.232-.158c.829 0 1.443.184 1.84.552.402.368.603.958.603 1.771v4.748h-.78zm-2.381-.743c.656 0 1.17-.18 1.543-.539.376-.36.565-.864.565-1.511v-.629l-1.054.045c-.838.03-1.443.161-1.815.393-.369.229-.553.587-.553 1.073 0 .381.115.671.343.87.233.199.557.298.971.298zm10.525-.165h3.085v-6.049h1.066v6.957h-9.337v-6.957h1.053v6.049h3.079v-6.049h1.054v6.049zm12.549 1.035c-1.007 0-1.788-.309-2.342-.927-.55-.622-.825-1.5-.825-2.634 0-1.164.279-2.063.837-2.698.563-.635 1.363-.952 2.4-.952.334 0 .668.036 1.003.108.334.072.596.156.787.254l-.324.895a4.7 4.7 0 0 0-.762-.229 3.317 3.317 0 0 0-.73-.095c-1.413 0-2.12.901-2.12 2.704 0 .855.172 1.511.515 1.968.347.457.859.685 1.536.685.579 0 1.174-.124 1.783-.374v.933c-.465.241-1.051.362-1.758.362zm7.471-7.084h1.155l-3.002 3.358 3.25 3.599h-1.231l-3.174-3.523v3.523h-1.054v-6.957h1.054v3.383l3.002-3.383zm7.884 6.957h-1.066v-6.056h-2.089c-.114 1.507-.273 2.702-.476 3.587-.203.884-.467 1.532-.793 1.942-.322.41-.732.616-1.232.616-.228 0-.41-.026-.546-.076v-.781c.093.025.199.038.318.038.486 0 .874-.514 1.161-1.543.288-1.028.506-2.589.654-4.684h4.069v6.957zm6.519 0l-.209-.99h-.051c-.347.435-.694.732-1.041.888-.343.153-.773.229-1.289.229-.69 0-1.231-.178-1.625-.533-.389-.356-.584-.862-.584-1.517 0-1.405 1.124-2.142 3.371-2.209l1.18-.039v-.431c0-.546-.118-.948-.355-1.206-.233-.263-.607-.394-1.124-.394-.579 0-1.235.178-1.967.533l-.324-.806a4.978 4.978 0 0 1 1.124-.438c.41-.106.82-.158 1.231-.158.829 0 1.443.184 1.841.552.402.368.603.958.603 1.771v4.748h-.781zm-2.38-.743c.656 0 1.17-.18 1.542-.539.377-.36.565-.864.565-1.511v-.629l-1.054.045c-.837.03-1.443.161-1.815.393-.368.229-.552.587-.552 1.073 0 .381.114.671.342.87.233.199.557.298.972.298zm11.381 3.149h-1.022v-2.406h-4.862v2.406h-1.016v-3.314h.546c.567-.77 1.011-1.674 1.333-2.71.322-1.037.489-2.15.501-3.339h3.523v6.049h.997v3.314zm-2.012-3.314v-5.218h-1.562c-.055.94-.237 1.892-.546 2.857-.304.96-.685 1.748-1.142 2.361h3.25zm3.256.235c0-.284.064-.497.191-.641.131-.148.317-.222.558-.222.246 0 .436.074.571.222.14.144.21.357.21.641 0 .275-.07.487-.21.635-.139.148-.33.222-.571.222a.77.77 0 0 1-.539-.197c-.14-.135-.21-.355-.21-.66zm0-5.605c0-.571.25-.857.749-.857.521 0 .781.286.781.857 0 .275-.07.487-.21.635-.139.148-.33.222-.571.222a.77.77 0 0 1-.539-.197c-.14-.135-.21-.355-.21-.66zm8.506 2.691l-2.355-3.434h1.701l1.6 2.457 1.612-2.457h1.689l-2.362 3.434 2.482 3.587h-1.688l-1.733-2.628-1.727 2.628h-1.688l2.469-3.587zm9.16 3.714c-.889 0-1.579-.32-2.07-.959h-.089c.06.593.089.952.089 1.079v2.876h-1.491V383.61h1.206c.034.132.103.445.209.94h.076c.466-.711 1.164-1.067 2.095-1.067.876 0 1.557.318 2.044.953.491.634.736 1.525.736 2.672 0 1.147-.249 2.042-.749 2.685-.495.643-1.18.965-2.056.965zm-.362-6.056c-.593 0-1.026.174-1.301.521-.271.347-.407.901-.407 1.663v.222c0 .855.136 1.475.407 1.86.27.381.713.571 1.326.571.517 0 .914-.212 1.194-.635.279-.423.419-1.026.419-1.809 0-.787-.14-1.381-.419-1.783-.275-.407-.682-.61-1.219-.61zm9.293 5.929l-.298-.978h-.051c-.339.428-.679.72-1.022.876-.343.153-.783.229-1.321.229-.689 0-1.229-.186-1.618-.559-.385-.372-.578-.899-.578-1.58 0-.724.269-1.27.806-1.638.538-.368 1.357-.569 2.457-.603l1.212-.038v-.375c0-.448-.106-.783-.317-1.003-.207-.224-.531-.336-.971-.336-.36 0-.705.053-1.035.159-.33.105-.647.23-.952.374l-.483-1.066a5.116 5.116 0 0 1 1.251-.451c.453-.106.88-.159 1.282-.159.893 0 1.566.195 2.019.584.457.39.685 1.001.685 1.835v4.729h-1.066zm-2.222-1.016c.542 0 .976-.15 1.301-.45.331-.305.496-.73.496-1.276v-.61l-.902.038c-.702.026-1.214.144-1.536.356-.317.207-.476.527-.476.958 0 .313.093.557.279.73.186.17.466.254.838.254zm6.862-6.005v2.819h3.307v-2.819h1.492v7.021h-1.492v-3.028h-3.307v3.028h-1.492v-7.021h1.492zm10.004 7.148c-1.092 0-1.947-.318-2.565-.952-.613-.639-.92-1.517-.92-2.635 0-1.146.286-2.048.857-2.704.571-.656 1.356-.984 2.355-.984.927 0 1.659.282 2.196.845.538.562.806 1.337.806 2.323v.806h-4.678c.021.681.205 1.206.552 1.574.347.364.836.546 1.467.546.414 0 .8-.038 1.155-.114.36-.081.745-.212 1.155-.394v1.213a4.607 4.607 0 0 1-1.104.368 6.775 6.775 0 0 1-1.276.108zm-.273-6.145c-.474 0-.855.151-1.143.451-.283.3-.452.738-.507 1.314h3.186c-.008-.58-.148-1.018-.419-1.314-.271-.3-.643-.451-1.117-.451zm6.189-1.003v2.819h3.307v-2.819h1.492v7.021h-1.492v-3.028h-3.307v3.028h-1.492v-7.021h1.492zm8.366 0v3.599c0 .419-.034 1.035-.101 1.848l3.523-5.447h1.821v7.021h-1.434v-3.536c0-.194.01-.51.031-.946.026-.435.047-.753.064-.952l-3.51 5.434h-1.822v-7.021h1.428zm10.436 7.148c-1.092 0-1.947-.318-2.565-.952-.613-.639-.92-1.517-.92-2.635 0-1.146.285-2.048.857-2.704.571-.656 1.356-.984 2.355-.984.926 0 1.659.282 2.196.845.537.562.806 1.337.806 2.323v.806h-4.678c.021.681.205 1.206.552 1.574.347.364.836.546 1.466.546.415 0 .8-.038 1.156-.114a6.273 6.273 0 0 0 1.155-.394v1.213a4.607 4.607 0 0 1-1.104.368 6.775 6.775 0 0 1-1.276.108zm-.273-6.145c-.474 0-.855.151-1.143.451-.283.3-.453.738-.508 1.314h3.187c-.009-.58-.148-1.018-.419-1.314-.271-.3-.643-.451-1.117-.451zM316.237 401.61h1.638l-2.901 3.384 3.148 3.637h-1.714l-3.034-3.561v3.561h-1.491v-7.021h1.491v3.409l2.863-3.409zm9.274 3.498c0 1.147-.294 2.042-.882 2.685-.589.643-1.407.965-2.457.965-.656 0-1.236-.148-1.739-.445a2.931 2.931 0 0 1-1.162-1.275c-.271-.555-.406-1.198-.406-1.93 0-1.138.292-2.027.876-2.666.584-.639 1.407-.959 2.469-.959 1.016 0 1.82.328 2.412.984.593.652.889 1.532.889 2.641zm-5.11 0c0 1.621.599 2.431 1.797 2.431 1.184 0 1.777-.81 1.777-2.431 0-1.604-.597-2.406-1.79-2.406-.626 0-1.081.208-1.365.622-.279.415-.419 1.009-.419 1.784zm8.322-3.498v2.819h3.307v-2.819h1.492v7.021h-1.492v-3.028h-3.307v3.028h-1.492v-7.021h1.492zm9.769 7.148c-1.062 0-1.87-.309-2.425-.927-.55-.622-.825-1.513-.825-2.672 0-1.181.288-2.089.863-2.723.58-.635 1.416-.953 2.508-.953.74 0 1.407.138 1.999.413l-.451 1.2c-.63-.246-1.151-.368-1.561-.368-1.215 0-1.822.806-1.822 2.418 0 .787.15 1.38.451 1.777.304.394.749.591 1.333.591.664 0 1.293-.165 1.885-.495v1.301a2.938 2.938 0 0 1-.857.336 5.05 5.05 0 0 1-1.098.102zm9.832-3.65c0 1.147-.294 2.042-.882 2.685-.588.643-1.407.965-2.456.965-.656 0-1.236-.148-1.74-.445a2.935 2.935 0 0 1-1.161-1.275c-.271-.555-.407-1.198-.407-1.93 0-1.138.292-2.027.876-2.666.584-.639 1.408-.959 2.47-.959 1.015 0 1.819.328 2.412.984.592.652.888 1.532.888 2.641zm-5.109 0c0 1.621.598 2.431 1.796 2.431 1.185 0 1.777-.81 1.777-2.431 0-1.604-.596-2.406-1.79-2.406-.626 0-1.081.208-1.364.622-.28.415-.419 1.009-.419 1.784zm12.6 3.523h-1.505v-5.853h-1.936c-.118 1.507-.279 2.683-.482 3.53-.199.846-.461 1.464-.787 1.853a1.555 1.555 0 0 1-1.257.584c-.326 0-.599-.046-.819-.14v-1.167c.157.059.313.088.47.088.431 0 .77-.484 1.015-1.453.25-.974.445-2.461.584-4.463h4.717v7.021zm3.567-7.021v3.599c0 .419-.034 1.035-.101 1.848l3.522-5.447h1.822v7.021h-1.434v-3.536c0-.194.01-.51.031-.946.026-.435.047-.753.064-.952l-3.51 5.434h-1.822v-7.021h1.428zm14.105 9.503h-1.391v-2.482h-4.811v2.482h-1.378v-3.637h.572c.499-.716.895-1.579 1.187-2.59.296-1.016.472-2.108.527-3.276h4.265v5.866h1.029v3.637zm-2.495-3.637v-4.723h-1.511c-.08.872-.249 1.731-.508 2.577-.254.846-.565 1.562-.933 2.146h2.952zm8.188 1.155l-.298-.978h-.051c-.338.428-.679.72-1.022.876-.342.153-.783.229-1.32.229-.69 0-1.229-.186-1.619-.559-.385-.372-.577-.899-.577-1.58 0-.724.268-1.27.806-1.638.537-.368 1.356-.569 2.456-.603l1.213-.038v-.375c0-.448-.106-.783-.318-1.003-.207-.224-.531-.336-.971-.336-.359 0-.704.053-1.034.159-.33.105-.648.23-.953.374l-.482-1.066a5.123 5.123 0 0 1 1.25-.451 5.643 5.643 0 0 1 1.283-.159c.893 0 1.565.195 2.018.584.457.39.686 1.001.686 1.835v4.729h-1.067zm-2.221-1.016c.541 0 .975-.15 1.301-.45.33-.305.495-.73.495-1.276v-.61l-.901.038c-.703.026-1.215.144-1.536.356-.318.207-.476.527-.476.958 0 .313.093.557.279.73.186.17.465.254.838.254zm11.622-.139h1.016v3.624h-1.403v-2.469h-5.865v-7.021h1.492v5.84h3.269v-5.84h1.491v5.866zm3.72-5.866v3.599c0 .419-.034 1.035-.102 1.848l3.523-5.447h1.822v7.021h-1.434v-3.536c0-.194.01-.51.031-.946.026-.435.047-.753.064-.952l-3.51 5.434h-1.822v-7.021h1.428zm8.087 7.021h-1.669l1.955-2.876c-.474-.135-.847-.376-1.118-.723-.27-.351-.406-.785-.406-1.302 0-.664.237-1.182.711-1.555.474-.376 1.122-.565 1.942-.565h3.2v7.021h-1.498v-2.704h-1.416l-1.701 2.704zm.216-4.888c0 .36.135.631.406.813.275.177.643.266 1.105.266h1.39v-2.082h-1.625c-.407 0-.722.087-.946.26-.22.174-.33.422-.33.743zm14.447-2.133v1.168h-3.047v5.853h-1.492v-7.021h4.539zm4.913 7.148c-.889 0-1.578-.32-2.069-.959h-.089c.059.593.089.952.089 1.079v2.876h-1.492V401.61h1.206c.034.132.104.445.21.94h.076c.465-.711 1.164-1.067 2.095-1.067.875 0 1.557.318 2.043.953.491.634.737 1.525.737 2.672 0 1.147-.25 2.042-.749 2.685-.495.643-1.181.965-2.057.965zm-.362-6.056c-.592 0-1.026.174-1.301.521-.271.347-.406.901-.406 1.663v.222c0 .855.135 1.475.406 1.86.271.381.713.571 1.327.571.516 0 .914-.212 1.193-.635.279-.423.419-1.026.419-1.809 0-.787-.14-1.381-.419-1.783-.275-.407-.681-.61-1.219-.61zm3.834-1.092h1.625l1.429 3.98c.215.567.359 1.101.431 1.6h.051c.038-.233.108-.514.209-.844.102-.335.639-1.913 1.613-4.736h1.612l-3.002 7.954c-.546 1.46-1.456 2.19-2.73 2.19-.33 0-.652-.036-.965-.108v-1.181c.225.051.481.077.768.077.72 0 1.225-.417 1.517-1.251l.261-.66-2.819-7.021zm9.585 2.806c.682 0 1.183-.074 1.505-.222.321-.152.482-.385.482-.698 0-.572-.508-.857-1.523-.857-.677 0-1.369.152-2.076.457l-.482-1.111c.816-.334 1.718-.502 2.704-.502.871 0 1.548.161 2.031.483.482.317.723.774.723 1.371 0 .787-.45 1.303-1.352 1.549v.051c.563.152.965.37 1.207.653.245.284.368.635.368 1.054 0 .643-.284 1.157-.851 1.543-.563.38-1.35.571-2.361.571-1.105 0-1.949-.146-2.533-.438v-1.289a5.592 5.592 0 0 0 2.406.546c.596 0 1.056-.082 1.377-.247.326-.17.489-.426.489-.768 0-.352-.163-.61-.489-.775-.326-.165-.829-.247-1.511-.247h-.856v-1.124h.742zm11.432.692c0 1.147-.294 2.042-.882 2.685-.588.643-1.407.965-2.456.965-.656 0-1.236-.148-1.74-.445a2.93 2.93 0 0 1-1.161-1.275c-.271-.555-.407-1.198-.407-1.93 0-1.138.292-2.027.876-2.666.584-.639 1.407-.959 2.47-.959 1.015 0 1.819.328 2.412.984.592.652.888 1.532.888 2.641zm-5.109 0c0 1.621.598 2.431 1.796 2.431 1.185 0 1.777-.81 1.777-2.431 0-1.604-.596-2.406-1.79-2.406-.626 0-1.081.208-1.365.622-.279.415-.418 1.009-.418 1.784zm12.923-1.701c0 .829-.484 1.331-1.453 1.504v.051c.541.063.956.235 1.244.514.288.279.432.641.432 1.086 0 .664-.254 1.176-.762 1.536-.504.355-1.238.533-2.203.533h-3.351v-7.021h3.338c1.837 0 2.755.599 2.755 1.797zm-1.307 3.066c0-.339-.131-.578-.394-.718-.262-.144-.656-.215-1.181-.215h-1.72v1.986h1.759c1.024 0 1.536-.351 1.536-1.053zm-.184-2.939c0-.28-.11-.481-.33-.603-.216-.127-.54-.191-.972-.191h-1.809v1.689h1.587c.5 0 .878-.064 1.136-.191.259-.131.388-.366.388-.704zm105.283-219.621l-.927-2.577h-3.548l-.908 2.577h-1.599l3.472-9.318h1.65l3.472 9.318h-1.612zm-1.327-3.885l-.869-2.526a18.227 18.227 0 0 1-.495-1.6 14.37 14.37 0 0 1-.502 1.708l-.838 2.418h2.704zm10.1-1.339c0 .829-.485 1.331-1.454 1.504v.051c.542.064.956.235 1.244.514.288.28.432.641.432 1.086 0 .664-.254 1.176-.762 1.536-.504.355-1.238.533-2.203.533h-3.351v-7.02h3.339c1.836 0 2.755.598 2.755 1.796zm-1.308 3.066c0-.339-.131-.578-.394-.717-.262-.144-.656-.216-1.18-.216h-1.721v1.987h1.759c1.024 0 1.536-.352 1.536-1.054zm-.184-2.939c0-.279-.11-.48-.33-.603-.216-.127-.54-.191-.971-.191h-1.81v1.689h1.587c.5 0 .878-.064 1.137-.19.258-.132.387-.367.387-.705zm4.684-1.923v3.599c0 .419-.033 1.034-.101 1.847l3.523-5.446h1.822v7.02h-1.435v-3.536c0-.194.011-.509.032-.945.025-.436.046-.754.063-.953l-3.51 5.434h-1.822v-7.02h1.428zm11.763 7.02l-.299-.977h-.051c-.338.427-.679.719-1.022.876-.342.152-.782.228-1.32.228-.69 0-1.229-.186-1.618-.559-.386-.372-.578-.899-.578-1.58 0-.724.269-1.27.806-1.638.537-.368 1.356-.569 2.457-.603l1.212-.038v-.374c0-.449-.106-.783-.317-1.003-.208-.225-.531-.337-.972-.337-.359 0-.704.053-1.034.159-.33.106-.648.231-.952.374l-.483-1.066a5.116 5.116 0 0 1 1.251-.451 5.68 5.68 0 0 1 1.282-.158c.893 0 1.566.194 2.018.584.457.389.686 1 .686 1.834v4.729h-1.066zm-2.222-1.016c.542 0 .975-.15 1.301-.45.33-.305.495-.73.495-1.276v-.609l-.901.038c-.703.025-1.215.143-1.536.355-.318.207-.476.527-.476.959 0 .313.093.556.279.73.186.169.466.253.838.253zm10.175-6.004v3.599c0 .419-.034 1.034-.101 1.847l3.523-5.446h1.821v7.02h-1.434v-3.536c0-.194.01-.509.032-.945.025-.436.046-.754.063-.953l-3.51 5.434h-1.822v-7.02h1.428zm14.778 5.592l.082-.305c.174-.63.324-1.115.451-1.453l1.574-3.834h1.987v7.02h-1.378v-5.668l-.114.38c-.19.682-.351 1.183-.482 1.505l-1.536 3.783h-1.13l-1.536-3.809a16.84 16.84 0 0 1-.584-1.859v5.668h-1.365v-7.02h1.974l1.523 3.719c.136.343.313.967.534 1.873zm12.454-2.095c0 1.147-.294 2.042-.883 2.685-.588.643-1.407.965-2.456.965-.656 0-1.236-.148-1.739-.444a2.94 2.94 0 0 1-1.162-1.276c-.271-.555-.406-1.198-.406-1.93 0-1.138.292-2.027.876-2.666.584-.639 1.407-.958 2.469-.958 1.015 0 1.82.328 2.412.984.592.651.889 1.531.889 2.64zm-5.11 0c0 1.621.599 2.431 1.796 2.431 1.185 0 1.778-.81 1.778-2.431 0-1.604-.597-2.406-1.791-2.406-.626 0-1.081.208-1.364.622-.28.415-.419 1.01-.419 1.784zm10.391 3.65c-.889 0-1.579-.319-2.069-.958h-.089c.059.592.089.952.089 1.079v2.875h-1.492v-10.143h1.206c.034.131.104.444.209.939h.077c.465-.711 1.163-1.066 2.094-1.066.876 0 1.558.317 2.044.952.491.635.737 1.525.737 2.672 0 1.147-.25 2.042-.749 2.685-.496.643-1.181.965-2.057.965zm-.362-6.056c-.592 0-1.026.174-1.301.521-.271.347-.406.901-.406 1.663v.222c0 .855.135 1.475.406 1.86.271.381.713.571 1.326.571.517 0 .915-.211 1.194-.634.279-.424.419-1.027.419-1.81 0-.787-.14-1.381-.419-1.783-.275-.406-.681-.61-1.219-.61zm7.732 6.056c-1.063 0-1.871-.309-2.425-.927-.55-.622-.825-1.513-.825-2.672 0-1.181.287-2.088.863-2.723.58-.635 1.415-.952 2.507-.952.741 0 1.407.137 2 .412l-.451 1.2c-.631-.246-1.151-.368-1.562-.368-1.214 0-1.821.806-1.821 2.418 0 .787.15 1.38.45 1.778.305.393.749.59 1.333.59.665 0 1.293-.165 1.886-.495v1.301a2.921 2.921 0 0 1-.857.336 5.063 5.063 0 0 1-1.098.102zm7.959-7.147h1.638l-2.901 3.383 3.149 3.637h-1.714l-3.034-3.561v3.561h-1.492v-7.02h1.492v3.408l2.862-3.408zm7.44 7.02l-.298-.977h-.051c-.339.427-.679.719-1.022.876-.343.152-.783.228-1.32.228-.69 0-1.23-.186-1.619-.559-.385-.372-.578-.899-.578-1.58 0-.724.269-1.27.806-1.638.538-.368 1.357-.569 2.457-.603l1.212-.038v-.374c0-.449-.105-.783-.317-1.003-.207-.225-.531-.337-.971-.337-.36 0-.705.053-1.035.159a8.01 8.01 0 0 0-.952.374l-.482-1.066c.38-.199.797-.349 1.25-.451.453-.105.88-.158 1.282-.158.893 0 1.566.194 2.019.584.457.389.685 1 .685 1.834v4.729h-1.066zm-2.222-1.016c.542 0 .976-.15 1.302-.45.33-.305.495-.73.495-1.276v-.609l-.902.038c-.702.025-1.214.143-1.536.355-.317.207-.476.527-.476.959 0 .313.093.556.279.73.187.169.466.253.838.253zm6.088 1.016h-1.67l1.955-2.875c-.474-.136-.846-.377-1.117-.724-.271-.351-.406-.785-.406-1.301 0-.665.237-1.183.711-1.555.474-.377 1.121-.565 1.942-.565h3.199v7.02h-1.498v-2.704h-1.415l-1.701 2.704zm.215-4.888c0 .36.136.631.407.813.275.178.643.266 1.104.266h1.39v-2.082h-1.625c-.406 0-.721.087-.945.261-.22.173-.331.421-.331.742zm-94.688 25.294h-1.021v-2.406h-4.863v2.406h-1.015v-3.314h.545c.568-.77 1.012-1.673 1.334-2.71a11.67 11.67 0 0 0 .501-3.339h3.523v6.049h.996v3.314zm-2.012-3.314v-5.217h-1.561a11.564 11.564 0 0 1-.546 2.856c-.305.961-.686 1.748-1.143 2.361h3.25zm9.414-2.577c0 1.134-.286 2.021-.857 2.66-.571.635-1.361.952-2.368.952-.622 0-1.174-.146-1.656-.438a2.893 2.893 0 0 1-1.118-1.257c-.262-.546-.393-1.185-.393-1.917 0-1.134.283-2.016.85-2.647.567-.635 1.355-.952 2.362-.952.973 0 1.745.324 2.317.971.575.648.863 1.524.863 2.628zm-5.3 0c0 .889.177 1.566.533 2.031.355.466.878.699 1.568.699.689 0 1.212-.231 1.568-.692.359-.466.539-1.145.539-2.038 0-.884-.18-1.555-.539-2.012-.356-.461-.883-.692-1.581-.692-.69 0-1.21.227-1.562.679-.351.453-.526 1.128-.526 2.025zm9.934 3.612c-1.008 0-1.788-.309-2.343-.927-.55-.622-.825-1.5-.825-2.634 0-1.164.279-2.063.838-2.698.563-.635 1.363-.952 2.399-.952.335 0 .669.036 1.003.108.335.072.597.157.788.254l-.324.895a4.834 4.834 0 0 0-.762-.229 3.317 3.317 0 0 0-.73-.095c-1.413 0-2.12.902-2.12 2.704 0 .855.171 1.511.514 1.968.347.457.859.686 1.536.686a4.68 4.68 0 0 0 1.784-.375v.933c-.466.241-1.052.362-1.758.362zm8.106-6.183h-2.26v6.056h-1.054v-6.056h-2.234v-.901h5.548v.901zm5.655 6.056l-.209-.99h-.051c-.347.436-.694.732-1.041.889-.343.152-.772.228-1.288.228-.69 0-1.232-.178-1.625-.533-.39-.356-.584-.861-.584-1.517 0-1.405 1.123-2.142 3.37-2.209l1.181-.038v-.432c0-.546-.119-.948-.356-1.206-.232-.262-.607-.394-1.123-.394-.58 0-1.236.178-1.968.534l-.324-.807a4.996 4.996 0 0 1 2.355-.596c.83 0 1.443.184 1.841.552.402.368.603.959.603 1.771v4.748h-.781zm-2.38-.743c.656 0 1.17-.179 1.542-.539.377-.36.565-.863.565-1.511v-.628l-1.053.044c-.838.03-1.443.161-1.816.394-.368.228-.552.586-.552 1.072 0 .381.114.671.343.87.233.199.556.298.971.298zm10.981-4.468c0 .452-.131.797-.393 1.034-.258.233-.622.39-1.092.47v.057c.593.081 1.024.254 1.295.521.275.266.413.634.413 1.104 0 .648-.239 1.147-.718 1.498-.474.351-1.168.527-2.082.527h-3.066v-6.957h3.054c1.726 0 2.589.582 2.589 1.746zm-.831 3.116c0-.376-.144-.649-.432-.818-.283-.174-.755-.261-1.415-.261h-1.911v2.292h1.936c1.215 0 1.822-.404 1.822-1.213zm-.197-3.015c0-.338-.131-.577-.393-.717-.259-.144-.652-.216-1.181-.216h-1.987v1.962h1.784c.651 0 1.111-.081 1.377-.242.267-.16.4-.423.4-.787zm6.843-1.847h1.155l-3.002 3.358 3.25 3.599h-1.232l-3.174-3.523v3.523h-1.053v-6.957h1.053v3.383l3.003-3.383zm6.976 6.957l-.209-.99h-.051c-.347.436-.694.732-1.041.889-.343.152-.773.228-1.289.228-.69 0-1.231-.178-1.625-.533-.389-.356-.584-.861-.584-1.517 0-1.405 1.124-2.142 3.371-2.209l1.18-.038v-.432c0-.546-.118-.948-.355-1.206-.233-.262-.607-.394-1.124-.394-.579 0-1.235.178-1.967.534l-.324-.807a4.988 4.988 0 0 1 2.355-.596c.829 0 1.443.184 1.841.552.402.368.603.959.603 1.771v4.748h-.781zm-2.38-.743c.656 0 1.17-.179 1.542-.539.377-.36.565-.863.565-1.511v-.628l-1.054.044c-.838.03-1.443.161-1.815.394-.368.228-.552.586-.552 1.072 0 .381.114.671.342.87.233.199.557.298.972.298zm9.705-6.214v4.412l-.044 1.155-.019.362 3.764-5.929h1.314v6.957h-.984v-4.253l.019-.838.032-.825-3.758 5.916h-1.314v-6.957h.99zm8.576 2.888c1.316 0 1.974-.364 1.974-1.092 0-.685-.533-1.028-1.6-1.028-.325 0-.622.03-.888.089a6.829 6.829 0 0 0-1.048.355l-.374-.856a5.695 5.695 0 0 1 2.355-.483c.8 0 1.43.165 1.891.495.462.326.692.773.692 1.34 0 .778-.433 1.288-1.301 1.529v.051c.533.157.923.381 1.168.673.245.288.368.65.368 1.085 0 .644-.26 1.145-.781 1.505-.516.355-1.231.533-2.145.533-1.003 0-1.777-.15-2.323-.451v-.964a5.483 5.483 0 0 0 2.348.545c.61 0 1.069-.103 1.378-.311.313-.211.469-.514.469-.907 0-.809-.658-1.213-1.974-1.213h-.965v-.895h.756zm12.467-4.38c-1.02 0-1.826.341-2.419 1.022-.588.677-.882 1.606-.882 2.787 0 1.214.283 2.154.85 2.818.572.66 1.384.991 2.438.991.647 0 1.386-.117 2.215-.35v.946c-.643.241-1.436.362-2.38.362-1.367 0-2.423-.415-3.168-1.244-.74-.83-1.11-2.008-1.11-3.536 0-.956.177-1.794.533-2.513a3.874 3.874 0 0 1 1.549-1.664c.677-.389 1.472-.583 2.386-.583.974 0 1.824.177 2.552.533l-.457.926c-.702-.33-1.405-.495-2.107-.495zm15.094 8.449h-10.867v-9.28h1.079v8.303h3.809v-8.303h1.079v8.303h3.809v-8.303h1.091v9.28zm8.386 0l-1.156-2.952h-3.719l-1.143 2.952h-1.092l3.669-9.318h.908l3.65 9.318h-1.117zm-1.492-3.923l-1.079-2.875c-.14-.364-.284-.811-.432-1.34-.093.407-.226.853-.4 1.34l-1.092 2.875h3.003zm-87.236 21.923h-1.054v-6.957h5.84v6.957h-1.066v-6.043h-3.72v6.043zm13.025-3.485c0 1.134-.285 2.021-.856 2.66-.572.635-1.361.952-2.368.952-.622 0-1.174-.146-1.657-.438a2.89 2.89 0 0 1-1.117-1.257c-.262-.546-.394-1.185-.394-1.917 0-1.134.284-2.016.851-2.647.567-.635 1.354-.952 2.361-.952.974 0 1.746.324 2.317.971.576.648.863 1.524.863 2.628zm-5.3 0c0 .889.178 1.566.533 2.031.356.466.878.699 1.568.699.69 0 1.213-.231 1.568-.692.36-.466.54-1.145.54-2.038 0-.884-.18-1.555-.54-2.012-.355-.461-.882-.692-1.58-.692-.69 0-1.211.227-1.562.679-.351.453-.527 1.128-.527 2.025zm16.174-1.726c0 .452-.131.797-.394 1.034-.258.233-.622.39-1.091.47v.057c.592.081 1.024.254 1.295.521.275.266.412.634.412 1.104 0 .648-.239 1.147-.717 1.498-.474.351-1.168.527-2.082.527h-3.066v-6.957h3.053c1.727 0 2.59.582 2.59 1.746zm-.832 3.116c0-.376-.143-.649-.431-.818-.284-.174-.756-.261-1.416-.261h-1.91v2.292h1.936c1.214 0 1.821-.404 1.821-1.213zm-.196-3.015c0-.338-.131-.577-.394-.717-.258-.144-.652-.216-1.181-.216h-1.986v1.962h1.783c.652 0 1.111-.081 1.378-.242.266-.16.4-.423.4-.787zm5.567 5.237c-1.008 0-1.788-.309-2.343-.927-.55-.622-.825-1.5-.825-2.634 0-1.164.279-2.063.838-2.698.563-.635 1.363-.952 2.399-.952.335 0 .669.036 1.003.108.335.072.597.157.787.254l-.323.895a4.834 4.834 0 0 0-.762-.229 3.317 3.317 0 0 0-.73-.095c-1.413 0-2.12.902-2.12 2.704 0 .855.171 1.511.514 1.968.347.457.859.686 1.536.686a4.68 4.68 0 0 0 1.784-.375v.933c-.466.241-1.052.362-1.758.362zm6.354 0c-1.029 0-1.841-.313-2.438-.939-.592-.627-.889-1.496-.889-2.609 0-1.122.275-2.013.826-2.673.554-.66 1.297-.99 2.228-.99.871 0 1.561.288 2.069.863.508.572.762 1.327.762 2.266v.667h-4.793c.021.817.227 1.437.616 1.86.393.423.946.635 1.657.635.749 0 1.489-.157 2.221-.47v.939a5.372 5.372 0 0 1-1.06.343c-.33.072-.73.108-1.199.108zm-.286-6.329c-.559 0-1.005.182-1.339.546-.33.364-.525.868-.584 1.511h3.637c0-.664-.148-1.172-.445-1.523-.296-.356-.719-.534-1.269-.534zm8.258 5.186l.197-.59.273-.749 1.885-4.589h1.34v6.944h-.934v-5.745l-.126.369-.369.971-1.796 4.405h-.882l-1.797-4.418a13.088 13.088 0 0 1-.463-1.327v5.745h-.94v-6.944h1.289l1.822 4.411c.182.466.349.972.501 1.517zm4.844-5.941h1.129l1.524 3.967c.334.906.541 1.56.622 1.962h.051a18.9 18.9 0 0 1 .342-1.105c.178-.524.754-2.133 1.727-4.824h1.13l-2.99 7.922c-.296.783-.643 1.337-1.041 1.663-.393.33-.878.495-1.453.495-.322 0-.639-.036-.953-.108v-.844c.233.051.493.076.781.076.724 0 1.24-.406 1.549-1.219l.387-.99-2.805-6.995zm14.644 5.941l.196-.59.273-.749 1.886-4.589h1.339v6.944h-.933v-5.745l-.127.369-.368.971-1.797 4.405h-.882l-1.796-4.418a12.896 12.896 0 0 1-.464-1.327v5.745h-.939v-6.944h1.288l1.822 4.411c.182.466.349.972.502 1.517zm6.938-5.941v4.412l-.045 1.155-.019.362 3.764-5.929h1.314v6.957h-.984v-4.253l.019-.838.032-.825-3.758 5.916h-1.314v-6.957h.991zm10.486 7.084c-.453 0-.868-.082-1.244-.248a2.36 2.36 0 0 1-.94-.774h-.076c.051.406.076.791.076 1.155v2.863h-1.053v-10.08h.857l.145.952h.051c.271-.381.586-.656.946-.825a2.88 2.88 0 0 1 1.238-.254c.922 0 1.633.315 2.133.946.503.63.755 1.515.755 2.653 0 1.143-.256 2.031-.768 2.666-.508.631-1.215.946-2.12.946zm-.152-6.316c-.711 0-1.226.197-1.543.59-.317.394-.48 1.02-.489 1.879v.235c0 .978.163 1.678.489 2.101.326.419.849.629 1.568.629.601 0 1.071-.244 1.409-.73.343-.487.514-1.158.514-2.012 0-.868-.171-1.532-.514-1.994-.338-.465-.817-.698-1.434-.698zm3.783-.768h1.13l1.523 3.967c.334.906.542 1.56.622 1.962h.051c.055-.216.169-.584.343-1.105.177-.524.753-2.133 1.726-4.824h1.13l-2.99 7.922c-.296.783-.643 1.337-1.041 1.663-.393.33-.878.495-1.453.495a4.23 4.23 0 0 1-.952-.108v-.844c.232.051.493.076.78.076.724 0 1.24-.406 1.549-1.219l.387-.99-2.805-6.995z" fill="#fff"/><path opacity=".6" d="M458.144 296.853a.5.5 0 0 0 .335-.622l-1.292-4.311a.5.5 0 0 0-.958.287l1.148 3.832-3.831 1.148a.5.5 0 0 0 .287.958l4.311-1.292zM267.763 194.44l190 102.375.474-.881-190-102.374-.474.88z" fill="url(#e)"/><path d="M458.421 366.821a.595.595 0 0 0 0-.841l-3.787-3.787a.595.595 0 0 0-.841.842l3.366 3.365-3.366 3.366a.595.595 0 0 0 .841.841l3.787-3.786zM236 366.995h222v-1.19H236v1.19z" fill="url(#f)"/><path opacity=".6" d="M674.43 250.172a.5.5 0 0 0-.372-.601l-4.401-1.063a.5.5 0 0 0-.606.365.5.5 0 0 0 .372.601l3.912.945-.933 3.864a.5.5 0 0 0 .372.601.5.5 0 0 0 .606-.364l1.05-4.348zm-110.97 67.032l110.744-66.725-.526-.85-110.745 66.725.527.85z" fill="url(#g)"/><path opacity=".6" d="M180.554 302.194a.5.5 0 0 0 .671.222l4.019-2.025a.501.501 0 0 0-.451-.893l-3.572 1.8-1.8-3.572a.5.5 0 1 0-.893.45l2.026 4.018zm29.971-91.351l-30 90.97.95.313 30-90.969-.95-.314z" fill="url(#h)"/><path d="M269.248 163.319c0 23.588-19.39 42.724-43.326 42.724-23.937 0-43.327-19.136-43.327-42.724 0-23.588 19.39-42.724 43.327-42.724 23.936 0 43.326 19.136 43.326 42.724z" stroke="#3CB4B7" stroke-width="1.19" filter="url(#i)"/><path d="M266.894 163.241c0 22.349-18.371 40.48-41.051 40.48-22.68 0-41.052-18.131-41.052-40.48 0-22.349 18.372-40.48 41.052-40.48s41.051 18.131 41.051 40.48z" stroke="#70D9DE" stroke-width="1.19" filter="url(#j)"/><g clip-path="url(#k)" fill="#E7FEFF"><path d="M248.111 180.669h-45.727a3.91 3.91 0 0 1-3.909-3.938v-3.911h53.545v3.911c0 2.158-1.74 3.938-3.909 3.938zm-48.592-6.797v2.859c0 1.592 1.285 2.887 2.865 2.887h45.727c1.58 0 2.865-1.295 2.865-2.887v-2.859h-51.457z"/><path d="M250.869 173.873h-51.243v-31.775c0-1.699 1.365-3.075 3.052-3.075h45.139c1.687 0 3.052 1.376 3.052 3.075v31.775zm-50.199-1.079h49.155v-30.696c0-1.106-.91-2.023-2.008-2.023h-45.139c-1.098 0-2.008.917-2.008 2.023v30.696z"/><path d="M229.879 176.651h-9.263c-1.821 0-3.293-1.483-3.293-3.318v-.539h15.849v.539c0 1.835-1.472 3.318-3.293 3.318zm-11.459-2.778a2.247 2.247 0 0 0 2.196 1.726h9.263a2.27 2.27 0 0 0 2.196-1.726H218.42zm4.15-10.573a2.099 2.099 0 0 1-2.088-2.104c0-1.16.937-2.104 2.088-2.104 1.152 0 2.089.944 2.089 2.104 0 1.16-.964 2.104-2.089 2.104zm0-3.129a1.02 1.02 0 0 0-1.017 1.025 1.02 1.02 0 0 0 1.017 1.025c.563 0 1.018-.459 1.018-1.025 0-.54-.455-1.025-1.018-1.025zm8.969 3.129a2.099 2.099 0 0 1-2.088-2.104c0-1.16.937-2.104 2.088-2.104s2.088.944 2.088 2.104c0 1.16-.964 2.104-2.088 2.104zm0-3.129c-.562 0-1.018.458-1.018 1.025 0 .566.456 1.025 1.018 1.025a1.02 1.02 0 0 0 1.017-1.025c0-.54-.455-1.025-1.017-1.025zm2.276-2.131h-13.039l-3.105-10.816h-5.194v-1.052h5.997l3.079 10.816h11.352l1.044-6.797h-10.361v4.963h-1.045v-6.015h12.61l-1.338 8.901z"/><path d="M227.283 149.678h-1.045v5.475h1.045v-5.475zm3.747 0h-1.044v5.475h1.044v-5.475zm5.222 19.34a.78.78 0 0 1 .776-.783.78.78 0 0 1 .776.783.78.78 0 0 1-.776.782c-.428.027-.776-.324-.776-.782zm-2.624 0a.78.78 0 0 1 .776-.783.78.78 0 0 1 .777.783.78.78 0 0 1-.777.782c-.428.027-.776-.324-.776-.782zm-2.624 0a.78.78 0 0 1 .777-.783.78.78 0 0 1 .776.783.78.78 0 0 1-.776.782c-.429.027-.777-.324-.777-.782zm-2.624 0c0-.432.349-.783.777-.783a.78.78 0 0 1 .776.783.78.78 0 0 1-.776.782c-.428.027-.777-.324-.777-.782zm-2.623 0a.78.78 0 0 1 .776-.783.78.78 0 0 1 .777.783.78.78 0 0 1-.777.782c-.428.027-.776-.324-.776-.782zm-2.624 0a.78.78 0 0 1 .776-.783.78.78 0 0 1 .777.783.78.78 0 0 1-.777.782c-.428.027-.776-.324-.776-.782zm-2.624 0a.78.78 0 0 1 .777-.783.78.78 0 0 1 .776.783.78.78 0 0 1-.776.782c-.429.027-.777-.324-.777-.782zm-2.623 0a.78.78 0 0 1 .776-.783.78.78 0 0 1 .776.783.78.78 0 0 1-.776.782c-.428.027-.776-.324-.776-.782zm-2.624 0a.78.78 0 0 1 .776-.783.78.78 0 0 1 .777.783.78.78 0 0 1-.777.782c-.428.027-.776-.324-.776-.782zm-2.624 0a.78.78 0 0 1 .777-.783.78.78 0 0 1 .776.783.78.78 0 0 1-.776.782c-.429.027-.777-.324-.777-.782zm-2.65 0a.78.78 0 0 1 .776-.783.78.78 0 0 1 .776.783.78.78 0 0 1-.776.782c-.402.027-.776-.324-.776-.782zm-2.624 0a.78.78 0 0 1 .776-.783.78.78 0 0 1 .777.783.78.78 0 0 1-.777.782c-.401.027-.776-.324-.776-.782zm-2.624 0a.78.78 0 0 1 .777-.783.78.78 0 0 1 .776.783.78.78 0 0 1-.776.782c-.402.027-.777-.324-.777-.782zm-2.624 0c0-.432.349-.783.777-.783a.78.78 0 0 1 .776.783.78.78 0 0 1-.776.782c-.402.027-.777-.324-.777-.782z"/></g><path d="M221.841 354.333c0 22.349-18.372 40.48-41.052 40.48s-41.051-18.131-41.051-40.48c0-22.349 18.371-40.48 41.051-40.48 22.68 0 41.052 18.131 41.052 40.48z" stroke="#66D8DB" stroke-width="1.19" filter="url(#l)"/><path d="M224.248 354.019c0 23.588-19.39 42.724-43.326 42.724-23.937 0-43.327-19.136-43.327-42.724 0-23.588 19.39-42.724 43.327-42.724 23.936 0 43.326 19.136 43.326 42.724z" stroke="#3CB4B7" stroke-width="1.19" filter="url(#m)"/><g clip-path="url(#n)" fill="#E7FEFF"><path d="M168.978 376.752c-3.45 0-6.217-2.868-6.217-6.376 0-3.54 2.796-6.377 6.217-6.377s6.217 2.868 6.217 6.377c0 3.508-2.796 6.376-6.217 6.376zm0-11.563c-2.766 0-5.057 2.319-5.057 5.187 0 2.837 2.261 5.186 5.057 5.186 2.767 0 5.057-2.318 5.057-5.186-.029-2.868-2.29-5.187-5.057-5.187z"/><path d="M168.979 373.732c-1.815 0-3.272-1.526-3.272-3.356 0-1.861 1.487-3.356 3.272-3.356 1.815 0 3.272 1.525 3.272 3.356 0 1.83-1.487 3.356-3.272 3.356zm0-5.523c-1.16 0-2.082.977-2.082 2.136 0 1.19.952 2.136 2.082 2.136 1.16 0 2.082-.976 2.082-2.136 0-1.159-.952-2.136-2.082-2.136zm25.88 8.543c-3.45 0-6.217-2.868-6.217-6.376 0-3.54 2.796-6.377 6.217-6.377 3.451 0 6.218 2.868 6.218 6.377 0 3.508-2.797 6.376-6.218 6.376zm0-11.563c-2.766 0-5.057 2.319-5.057 5.187 0 2.837 2.261 5.186 5.057 5.186 2.797 0 5.057-2.318 5.057-5.186-.029-2.868-2.29-5.187-5.057-5.187z"/><path d="M194.86 373.732c-1.815 0-3.273-1.526-3.273-3.356 0-1.861 1.488-3.356 3.273-3.356 1.814 0 3.272 1.525 3.272 3.356 0 1.83-1.458 3.356-3.272 3.356zm0-5.523c-1.161 0-2.083.977-2.083 2.136 0 1.19.952 2.136 2.083 2.136 1.16 0 2.082-.976 2.082-2.136 0-1.159-.922-2.136-2.082-2.136zm-5.683 1.526h-14.606v1.221h14.606v-1.221z"/><path d="M200.6 369.217l-.684-1.007 4.67-3.387v-2.044h-47.387v2.258l6.693 2.776-.446 1.129-7.437-3.081v-4.302h49.767v3.874l-5.176 3.784z"/><path d="M205.776 362.169h-1.189v-6.926c0-1.159-.566-2.227-1.547-2.837l-.684-.458c-.685-.458-1.25-1.068-1.607-1.831l-2.677-5.492c-.565-1.159-1.696-1.861-2.945-1.861h-8.21v19.405h-1.19v-20.625h9.4c1.695 0 3.242.976 3.986 2.532l2.677 5.492a3.428 3.428 0 0 0 1.19 1.343l.684.457a4.585 4.585 0 0 1 2.083 3.875v6.926h.029z"/><path d="M199.946 352.497h-10.59v-8.299h1.189v7.079h9.401v1.22zm-13-10.343h-1.19v-4.638h-31.353v2.014h-1.19v-3.234h33.733v5.858zm-27.724.946c0-.519.387-.915.892-.915.506 0 .893.396.893.915s-.387.915-.893.915c-.505 0-.892-.427-.892-.915zm-2.975 0c0-.519.387-.915.893-.915.505 0 .892.396.892.915s-.387.915-.892.915c-.506 0-.893-.427-.893-.915zm-2.975 0c0-.519.387-.915.893-.915.505 0 .892.396.892.915s-.387.915-.892.915c-.506 0-.893-.427-.893-.915zm-2.974 0c0-.519.386-.915.892-.915s.892.396.892.915-.386.915-.892.915c-.476 0-.892-.427-.892-.915zm6.96 6.255c0-.519.387-.916.892-.916.506 0 .893.397.893.916 0 .518-.387.915-.893.915-.505 0-.892-.427-.892-.915zm-2.975 0c0-.519.387-.916.893-.916.505 0 .892.397.892.916 0 .518-.387.915-.892.915-.476 0-.893-.427-.893-.915zm-2.974 0c0-.519.386-.916.892-.916s.892.397.892.916c0 .518-.386.915-.892.915-.476 0-.892-.427-.892-.915zm-2.945 0c0-.519.386-.916.892-.916s.892.397.892.916c0 .518-.386.915-.892.915s-.892-.427-.892-.915zm6.812 6.132c0-.519.386-.916.892-.916s.893.397.893.916c0 .518-.387.915-.893.915-.476 0-.892-.427-.892-.915zm-2.945 0c0-.519.386-.916.892-.916s.893.397.893.916c0 .518-.387.915-.893.915s-.892-.427-.892-.915zm-2.975 0c0-.519.387-.916.892-.916.506 0 .893.397.893.916 0 .518-.387.915-.893.915-.505 0-.892-.427-.892-.915zm-2.975 0c0-.519.387-.916.893-.916.505 0 .892.397.892.916 0 .518-.387.915-.892.915-.506 0-.893-.427-.893-.915zm12.524 7.292h-5.592v-3.6h1.19v2.38h4.402v1.22zm14.219-11.563c.674 0 1.22-.56 1.22-1.251 0-.691-.546-1.251-1.22-1.251-.674 0-1.22.56-1.22 1.251 0 .691.546 1.251 1.22 1.251z"/><path d="M173.024 358.02c-4.313 0-7.853-3.601-7.853-8.055 0-4.424 3.51-8.055 7.853-8.055v1.221c-3.659 0-6.663 3.051-6.663 6.834 0 3.783 2.975 6.834 6.663 6.834 3.689 0 6.664-3.051 6.664-6.834a7.019 7.019 0 0 0-2.202-5.095l.804-.916a8.152 8.152 0 0 1 2.617 5.98c-.029 4.485-3.569 8.086-7.883 8.086z"/><path d="M177.136 346.183l-.889-.812-3.66 4.215.888.812 3.661-4.215z"/></g><path d="M749.416 199.422c0 22.349-18.371 40.48-41.051 40.48-22.68 0-41.052-18.131-41.052-40.48 0-22.349 18.372-40.48 41.052-40.48s41.051 18.131 41.051 40.48z" stroke="#6FD9DD" stroke-width="1.19" filter="url(#o)"/><path d="M752.405 199.154c0 24.193-19.643 43.807-43.875 43.807-24.233 0-43.876-19.614-43.876-43.807s19.643-43.807 43.876-43.807c24.232 0 43.875 19.614 43.875 43.807z" stroke="#3CB4B7" stroke-width="1.19" filter="url(#p)"/><path d="M732.088 225.772c-1.209 0-1.851-.242-2.419-.46-.543-.193-1.036-.386-2.073-.386s-1.53.193-2.073.386c-.568.218-1.21.46-2.419.46s-1.851-.242-2.419-.46c-.543-.193-1.036-.386-2.073-.386s-1.53.193-2.073.386c-.568.218-1.21.46-2.419.46s-1.851-.242-2.419-.46c-.543-.193-1.036-.386-2.073-.386s-1.53.193-2.073.386c-.568.218-1.21.46-2.419.46s-1.851-.242-2.419-.46c-.543-.193-1.036-.386-2.073-.386-1.036 0-1.53.193-2.073.386-.568.218-1.209.46-2.419.46-1.209 0-1.851-.242-2.419-.46-.543-.193-1.036-.386-2.073-.386-1.036 0-1.53.193-2.073.386-.568.218-1.209.46-2.419.46-1.209 0-1.851-.242-2.419-.46-.493-.217-.987-.411-2.023-.411v-.966c1.209 0 1.851.241 2.418.459.543.193 1.037.387 2.074.387 1.036 0 1.53-.194 2.073-.387.567-.218 1.209-.459 2.419-.459 1.209 0 1.851.241 2.418.459.543.193 1.037.387 2.074.387 1.036 0 1.53-.194 2.073-.387.567-.218 1.209-.459 2.419-.459 1.209 0 1.851.241 2.418.459.543.193 1.037.387 2.073.387 1.037 0 1.531-.194 2.074-.387.567-.218 1.209-.459 2.418-.459 1.21 0 1.852.241 2.419.459.543.193 1.037.387 2.073.387 1.037 0 1.531-.194 2.074-.387.567-.218 1.209-.459 2.418-.459 1.21 0 1.852.241 2.419.459.543.193 1.037.387 2.073.387 1.037 0 1.531-.194 2.074-.387.567-.218 1.209-.459 2.418-.459 1.21 0 1.851.241 2.419.459.543.193 1.037.387 2.073.387v.991h-.049z" fill="#E7FEFF"/><path d="M723.573 225.481l-.913-.387 4.739-10.635h-11.107l-2.049 2.949h-25.248l3.159 6.816-.913.411-3.777-8.194H713.7l2.074-2.949h13.13l-5.331 11.989z" fill="#E7FEFF"/><path d="M721.327 219.632a.72.72 0 0 1 .74-.725.72.72 0 0 1 .741.725.72.72 0 0 1-.741.726.735.735 0 0 1-.74-.726zm-2.468 0c0-.411.32-.725.74-.725s.74.314.74.725a.72.72 0 0 1-.74.726.735.735 0 0 1-.74-.726zm-2.469 0a.72.72 0 0 1 .741-.725.72.72 0 0 1 .74.725.72.72 0 0 1-.74.726.736.736 0 0 1-.741-.726zm-2.468 0a.72.72 0 0 1 .741-.725.72.72 0 0 1 .74.725.72.72 0 0 1-.74.726.736.736 0 0 1-.741-.726zm-2.468 0a.72.72 0 0 1 .741-.725.72.72 0 0 1 .74.725.72.72 0 0 1-.74.726.736.736 0 0 1-.741-.726zm-2.468 0a.72.72 0 0 1 .741-.725.72.72 0 0 1 .74.725.72.72 0 0 1-.74.726.736.736 0 0 1-.741-.726zm-2.468 0a.72.72 0 0 1 .74-.725.72.72 0 0 1 .741.725.72.72 0 0 1-.741.726.735.735 0 0 1-.74-.726zm-2.468 0a.72.72 0 0 1 .74-.725.72.72 0 0 1 .741.725.72.72 0 0 1-.741.726.735.735 0 0 1-.74-.726zm-2.468 0a.72.72 0 0 1 .74-.725.72.72 0 0 1 .741.725.72.72 0 0 1-.741.726.735.735 0 0 1-.74-.726zm-2.468 0c0-.411.32-.725.74-.725s.74.314.74.725a.72.72 0 0 1-.74.726.735.735 0 0 1-.74-.726zm-2.468 0c0-.411.32-.725.74-.725s.74.314.74.725a.72.72 0 0 1-.74.726.735.735 0 0 1-.74-.726zm1.184-2.224h-7.676v-4.568h7.676v4.568zm-6.688-.967h5.701v-2.634h-5.701v2.634z" fill="#E7FEFF"/><path d="M704.519 217.408h-7.676v-4.568h7.676v4.568zm-6.689-.967h5.701v-2.634h-5.701v2.634z" fill="#E7FEFF"/><path d="M711.232 217.408h-7.701v-4.568h7.676v4.568h.025zm-6.714-.967h5.702v-2.634h-5.702v2.634zm-6.688-2.634h-7.676v-4.569h7.676v4.569zm-6.688-.967h5.701v-2.635h-5.701v2.635z" fill="#E7FEFF"/><path d="M704.519 213.807h-7.676v-4.569h7.676v4.569zm-6.689-.967h5.701v-2.635h-5.701v2.635z" fill="#E7FEFF"/><path d="M711.232 213.807h-7.701v-4.569h7.676v4.569h.025zm-6.714-.967h5.702v-2.635h-5.702v2.635zm-6.688-2.635h-7.676v-4.568h7.676v4.568zm-6.688-.967h5.701v-2.634h-5.701v2.634z" fill="#E7FEFF"/><path d="M704.519 210.205h-7.676v-4.568h7.676v4.568zm-6.689-.967h5.701v-2.634h-5.701v2.634z" fill="#E7FEFF"/><path d="M711.232 210.205h-7.701v-4.568h7.676v4.568h.025zm-6.714-.967h5.702v-2.634h-5.702v2.634zm21.399 5.221h-8.984v-8.822h7.33c.914 0 1.654.725 1.654 1.619v7.203zm-7.997-.967h7.01v-6.236a.657.657 0 0 0-.667-.652h-6.343v6.888z" fill="#E7FEFF"/><path d="M725.449 208.514h-3.11v.967h3.11v-.967zm0 2.32h-3.11v.967h3.11v-.967zm-5.998-12.763h-.987v8.049h.987v-8.049z" fill="#E7FEFF"/><path d="M719.945 198.966h-3.184v.967h3.184v-.967z" fill="#E7FEFF"/><g clip-path="url(#q)"><path d="M701.06 186h-.09l-2.935-.586a.412.412 0 0 1-.339-.292.468.468 0 0 1 .068-.428l5.306-6.419-7.271-.068c-1.242 0-1.648-1.576-1.987-2.973-.068-.315-.158-.585-.226-.856v-.045l-.587-2.792a.472.472 0 0 1 .09-.383.536.536 0 0 1 .362-.158l3.455.023c.18 0 .361.112.429.292l.79 2.05 20.413.112c1.355.023 2.461 1.127 2.461 2.478 0 1.351-1.129 2.432-2.461 2.432l-8.491-.067-8.67 7.567a.427.427 0 0 1-.317.113zm-2.122-1.329l1.987.383 8.648-7.522a.477.477 0 0 1 .294-.113l8.626.067c.88 0 1.58-.698 1.58-1.554 0-.855-.7-1.576-1.558-1.576l-20.729-.113a.463.463 0 0 1-.429-.293l-.745-2.027-2.619-.022.451 2.23c.091.27.158.563.226.878.226.923.587 2.297 1.129 2.297l8.219.068a.451.451 0 1 1 .339.743l-5.419 6.554z" fill="#fff"/></g><defs><filter id="b" x="449.012" y="284.616" width="135.356" height="134.217" filterUnits="userSpaceOnUse" color-interpolation-filters="sRGB"><feFlood flood-opacity="0" result="BackgroundImageFix"/><feColorMatrix in="SourceAlpha" values="0 0 0 0 0 0 0 0 0 0 0 0 0 0 0 0 0 0 127 0"/><feMorphology radius="2.38" operator="dilate" in="SourceAlpha" result="effect1_dropShadow"/><feOffset dx="1.19" dy="3.57"/><feGaussianBlur stdDeviation="11.899"/><feColorMatrix values="0 0 0 0 0.45098 0 0 0 0 0.403922 0 0 0 0 0.941176 0 0 0 0.23 0"/><feBlend in2="BackgroundImageFix" result="effect1_dropShadow"/><feBlend in="SourceGraphic" in2="effect1_dropShadow" result="shape"/></filter><filter id="d" x="446.012" y="281.657" width="141.356" height="140.135" filterUnits="userSpaceOnUse" color-interpolation-filters="sRGB"><feFlood flood-opacity="0" result="BackgroundImageFix"/><feColorMatrix in="SourceAlpha" values="0 0 0 0 0 0 0 0 0 0 0 0 0 0 0 0 0 0 127 0"/><feMorphology radius="2.38" operator="dilate" in="SourceAlpha" result="effect1_dropShadow"/><feOffset dx="1.19" dy="3.57"/><feGaussianBlur stdDeviation="11.899"/><feColorMatrix values="0 0 0 0 1 0 0 0 0 1 0 0 0 0 1 0 0 0 0.31 0"/><feBlend in2="BackgroundImageFix" result="effect1_dropShadow"/><feBlend in="SourceGraphic" in2="effect1_dropShadow" result="shape"/></filter><filter id="i" x="157.012" y="97.392" width="140.199" height="138.994" filterUnits="userSpaceOnUse" color-interpolation-filters="sRGB"><feFlood flood-opacity="0" result="BackgroundImageFix"/><feColorMatrix in="SourceAlpha" values="0 0 0 0 0 0 0 0 0 0 0 0 0 0 0 0 0 0 127 0"/><feMorphology radius="2.38" operator="dilate" in="SourceAlpha" result="effect1_dropShadow"/><feOffset dx="1.19" dy="3.57"/><feGaussianBlur stdDeviation="11.899"/><feColorMatrix values="0 0 0 0 1 0 0 0 0 1 0 0 0 0 1 0 0 0 0.32 0"/><feBlend in2="BackgroundImageFix" result="effect1_dropShadow"/><feBlend in="SourceGraphic" in2="effect1_dropShadow" result="shape"/></filter><filter id="j" x="159.208" y="99.558" width="135.648" height="134.506" filterUnits="userSpaceOnUse" color-interpolation-filters="sRGB"><feFlood flood-opacity="0" result="BackgroundImageFix"/><feColorMatrix in="SourceAlpha" values="0 0 0 0 0 0 0 0 0 0 0 0 0 0 0 0 0 0 127 0"/><feMorphology radius="2.38" operator="dilate" in="SourceAlpha" result="effect1_dropShadow"/><feOffset dx="1.19" dy="3.57"/><feGaussianBlur stdDeviation="11.899"/><feColorMatrix values="0 0 0 0 0.45098 0 0 0 0 0.403922 0 0 0 0 0.941176 0 0 0 0.12 0"/><feBlend in2="BackgroundImageFix" result="effect1_dropShadow"/><feBlend in="SourceGraphic" in2="effect1_dropShadow" result="shape"/></filter><filter id="l" x="114.155" y="290.65" width="135.648" height="134.506" filterUnits="userSpaceOnUse" color-interpolation-filters="sRGB"><feFlood flood-opacity="0" result="BackgroundImageFix"/><feColorMatrix in="SourceAlpha" values="0 0 0 0 0 0 0 0 0 0 0 0 0 0 0 0 0 0 127 0"/><feMorphology radius="2.38" operator="dilate" in="SourceAlpha" result="effect1_dropShadow"/><feOffset dx="1.19" dy="3.57"/><feGaussianBlur stdDeviation="11.899"/><feColorMatrix values="0 0 0 0 0.45098 0 0 0 0 0.403922 0 0 0 0 0.941176 0 0 0 0.12 0"/><feBlend in2="BackgroundImageFix" result="effect1_dropShadow"/><feBlend in="SourceGraphic" in2="effect1_dropShadow" result="shape"/></filter><filter id="m" x="112.012" y="288.092" width="140.199" height="138.994" filterUnits="userSpaceOnUse" color-interpolation-filters="sRGB"><feFlood flood-opacity="0" result="BackgroundImageFix"/><feColorMatrix in="SourceAlpha" values="0 0 0 0 0 0 0 0 0 0 0 0 0 0 0 0 0 0 127 0"/><feMorphology radius="2.38" operator="dilate" in="SourceAlpha" result="effect1_dropShadow"/><feOffset dx="1.19" dy="3.57"/><feGaussianBlur stdDeviation="11.899"/><feColorMatrix values="0 0 0 0 0.935371 0 0 0 0 0.929167 0 0 0 0 1 0 0 0 0.32 0"/><feBlend in2="BackgroundImageFix" result="effect1_dropShadow"/><feBlend in="SourceGraphic" in2="effect1_dropShadow" result="shape"/></filter><filter id="o" x="641.73" y="135.739" width="135.648" height="134.506" filterUnits="userSpaceOnUse" color-interpolation-filters="sRGB"><feFlood flood-opacity="0" result="BackgroundImageFix"/><feColorMatrix in="SourceAlpha" values="0 0 0 0 0 0 0 0 0 0 0 0 0 0 0 0 0 0 127 0"/><feMorphology radius="2.38" operator="dilate" in="SourceAlpha" result="effect1_dropShadow"/><feOffset dx="1.19" dy="3.57"/><feGaussianBlur stdDeviation="11.899"/><feColorMatrix values="0 0 0 0 0.45098 0 0 0 0 0.403922 0 0 0 0 0.941176 0 0 0 0.12 0"/><feBlend in2="BackgroundImageFix" result="effect1_dropShadow"/><feBlend in="SourceGraphic" in2="effect1_dropShadow" result="shape"/></filter><filter id="p" x="639.071" y="132.144" width="141.297" height="141.16" filterUnits="userSpaceOnUse" color-interpolation-filters="sRGB"><feFlood flood-opacity="0" result="BackgroundImageFix"/><feColorMatrix in="SourceAlpha" values="0 0 0 0 0 0 0 0 0 0 0 0 0 0 0 0 0 0 127 0"/><feMorphology radius="2.38" operator="dilate" in="SourceAlpha" result="effect1_dropShadow"/><feOffset dx="1.19" dy="3.57"/><feGaussianBlur stdDeviation="11.899"/><feColorMatrix values="0 0 0 0 1 0 0 0 0 1 0 0 0 0 1 0 0 0 0.31 0"/><feBlend in2="BackgroundImageFix" result="effect1_dropShadow"/><feBlend in="SourceGraphic" in2="effect1_dropShadow" result="shape"/></filter><linearGradient id="a" x1="145.891" y1="54.384" x2="191.662" y2="523.486" gradientUnits="userSpaceOnUse"><stop stop-color="#E8E8EB"/><stop stop-color="#fff"/><stop offset=".974" stop-color="#E6FCFF"/></linearGradient><linearGradient id="e" x1="338.737" y1="230.375" x2="224.409" y2="158.313" gradientUnits="userSpaceOnUse"><stop offset=".196" stop-color="#fff"/><stop offset="1" stop-color="#fff" stop-opacity="0"/></linearGradient><linearGradient id="f" x1="347" y1="366.4" x2="252.882" y2="376.04" gradientUnits="userSpaceOnUse"><stop stop-color="#fff"/><stop offset="1" stop-color="#fff" stop-opacity="0"/></linearGradient><linearGradient id="g" x1="625.018" y1="283.583" x2="538.487" y2="337.594" gradientUnits="userSpaceOnUse"><stop stop-color="#fff"/><stop offset="1" stop-color="#fff" stop-opacity="0"/></linearGradient><linearGradient id="h" x1="196" y1="256.485" x2="230.232" y2="179.173" gradientUnits="userSpaceOnUse"><stop stop-color="#fff"/><stop offset="1" stop-color="#7367F0" stop-opacity="0"/></linearGradient><clipPath id="c"><path fill="#fff" transform="translate(489 322.018)" d="M0 0h52v48.328H0z"/></clipPath><clipPath id="k"><path fill="#fff" transform="translate(198.475 144.464)" d="M0 0h53.545v41.075H0z"/></clipPath><clipPath id="n"><path fill="#fff" transform="translate(146.282 339.076)" d="M0 0h59.495v39.902H0z"/></clipPath><clipPath id="q"><path fill="#fff" transform="translate(693 171)" d="M0 0h28v15H0z"/></clipPath></defs></svg>