<svg width="60" height="60" viewBox="0 0 60 60" fill="none" xmlns="http://www.w3.org/2000/svg"><path fill-rule="evenodd" clip-rule="evenodd" d="M41.25 23.169c1.454.435 2.5.581 2.5.581V20h2.5a6.25 6.25 0 0 0 0-12.5h-7.205a6.545 6.545 0 0 0-6.545 6.545c0 5.647 5.435 8.132 8.75 9.124zM50 13.75a3.75 3.75 0 0 1-3.75 3.75h-5v3.044a16.21 16.21 0 0 1-2.004-.834C36.767 18.468 35 16.7 35 14.045A4.045 4.045 0 0 1 39.045 10h7.205A3.75 3.75 0 0 1 50 13.75zm-31.479 8.741A6.248 6.248 0 0 1 18.747 10h3.962a6.042 6.042 0 0 1 6.041 6.041c0 5.053-4.538 7.363-7.5 8.334-1.435.47-2.5.625-2.5.625v-2.5l-.229-.009zm2.729-2.402l-2.637-.095a3.748 3.748 0 0 1 .133-7.494h3.962a3.54 3.54 0 0 1 3.542 3.541c0 2.394-1.521 3.963-3.655 5.075-.45.235-.906.435-1.345.605V20.09zM35 30c0 2.763-2.237 5-5 5-2.762 0-5-2.237-5-5a5 5 0 0 1 5-5c2.763 0 5 2.238 5 5zm-2.5 0a2.5 2.5 0 1 1-5 0 2.5 2.5 0 0 1 5 0zm-8.75 2.5c0 2.763-2.238 5-5 5s-5-2.237-5-5c0-2.762 2.238-5 5-5s5 2.238 5 5zm-2.5 0a2.5 2.5 0 1 1-5 0 2.5 2.5 0 0 1 5 0zM7.5 45.681C7.5 41.904 14.995 40 18.75 40c.731 0 1.605.072 2.538.216C22.962 38.987 26.034 37.5 30 37.5c3.965 0 7.036 1.487 8.714 2.716A17.021 17.021 0 0 1 41.25 40c3.755 0 11.25 1.904 11.25 5.681V52.5h-45v-6.819zm19.565-.652c.435.405.435.616.435.652V50H10v-4.319c0-.037 0-.247.435-.652.454-.424 1.202-.875 2.22-1.288 2.04-.825 4.533-1.241 6.095-1.241 1.563 0 4.055.416 6.095 1.241 1.018.413 1.766.864 2.22 1.288zm8.113-3.959A12.964 12.964 0 0 0 30 40c-2.07 0-3.83.483-5.176 1.07C27.592 42 30 43.54 30 45.682c0-2.142 2.407-3.68 5.178-4.612zM50 45.682c0-.037 0-.248-.435-.653-.454-.424-1.203-.875-2.22-1.288-2.04-.825-4.532-1.241-6.095-1.241-1.563 0-4.055.416-6.095 1.241-1.017.413-1.766.864-2.22 1.288-.435.405-.435.616-.435.652V50H50v-4.319.002zM41.25 37.5c2.763 0 5-2.237 5-5 0-2.762-2.237-5-5-5s-5 2.238-5 5c0 2.763 2.237 5 5 5zm0-2.5a2.5 2.5 0 1 0 0-5 2.5 2.5 0 0 0 0 5z" fill="#B15325"/></svg>