<svg width="40" height="40" viewBox="0 0 40 40" fill="none" xmlns="http://www.w3.org/2000/svg"><path d="M19.652 13.555c-3.464 0-6.288 2.893-6.288 6.442 0 3.548 2.824 6.445 6.288 6.445 3.464 0 6.292-2.897 6.292-6.445 0-3.549-2.828-6.442-6.292-6.442zm0 1.582c2.63 0 4.747 2.165 4.747 4.86 0 2.694-2.117 4.863-4.747 4.863s-4.744-2.168-4.744-4.863c0-2.695 2.113-4.86 4.744-4.86zm0-9.621a.78.78 0 0 0-.77.789v5.026a.78.78 0 0 0 .77.79.761.761 0 0 0 .547-.23.797.797 0 0 0 .227-.56V6.305a.798.798 0 0 0-.227-.56.76.76 0 0 0-.547-.23zm9.453 4.011a.762.762 0 0 0-.546.23l-3.469 3.552a.8.8 0 0 0-.227.56.8.8 0 0 0 .227.56.762.762 0 0 0 1.093 0l3.468-3.553a.8.8 0 0 0 0-1.12.762.762 0 0 0-.546-.23zm-.991 9.68a.78.78 0 0 0-.77.79c0 .21.08.41.224.56a.764.764 0 0 0 .546.233h4.903a.764.764 0 0 0 .549-.232.8.8 0 0 0 .225-.562.801.801 0 0 0-.227-.559.76.76 0 0 0-.547-.23h-4.903zm-2.478 6.131a.761.761 0 0 0-.546.23.8.8 0 0 0 0 1.12l3.468 3.552a.762.762 0 0 0 1.093 0 .8.8 0 0 0 0-1.12l-3.469-3.553a.76.76 0 0 0-.546-.23zm-5.984 2.539a.78.78 0 0 0-.77.789v5.022a.8.8 0 0 0 .224.56.761.761 0 0 0 1.094.002.8.8 0 0 0 .226-.562v-5.023a.797.797 0 0 0-.227-.558.76.76 0 0 0-.547-.23zm-6.528-2.31L9.656 29.12a.799.799 0 0 0 0 1.12.763.763 0 0 0 1.093 0l3.468-3.553a.8.8 0 0 0 0-1.12.761.761 0 0 0-1.093 0zm-6.834-6.36a.76.76 0 0 0-.547.23.8.8 0 0 0-.227.56.8.8 0 0 0 .225.561.764.764 0 0 0 .549.232h4.903a.763.763 0 0 0 .546-.233.801.801 0 0 0 .224-.56.78.78 0 0 0-.77-.79H6.29zm3.366-9.451a.8.8 0 0 0 0 1.12l3.469 3.553a.763.763 0 0 0 .546.233.763.763 0 0 0 .546-.233.8.8 0 0 0 0-1.12L10.75 9.757a.763.763 0 0 0-.546-.232.763.763 0 0 0-.547.232z" fill="#231F20"/><circle cx="20" cy="20" r="19" stroke="#DFDFDF" stroke-width="2"/></svg>