<svg width="40" height="40" viewBox="0 0 40 40" fill="none" xmlns="http://www.w3.org/2000/svg"><path d="M31.966 26.379l-1.793-1.043c.347-.405.81-.637 1.272-.811.29-.058.52-.406.405-.695-.115-.29-.405-.521-.694-.406a4.026 4.026 0 0 0-2.024 1.333l-1.793-1.043c.579-.695 1.33-1.274 2.256-1.506.29-.058.52-.406.405-.695-.058-.29-.405-.522-.694-.406-1.272.348-2.256 1.1-3.008 2.028L23.58 21.57c.174-.463.29-.984.29-1.506a4.35 4.35 0 0 0-.29-1.506l2.719-1.564c.751.985 1.792 1.738 3.007 2.027.289.058.636-.115.694-.405.058-.29-.116-.637-.405-.695-.925-.232-1.677-.753-2.255-1.506l1.792-1.043a4.03 4.03 0 0 0 2.024 1.332c.29.058.637-.116.694-.405.058-.29-.115-.638-.405-.695-.52-.116-.925-.406-1.272-.811l1.793-1.043c.289-.174.405-.521.231-.811-.173-.29-.52-.406-.81-.232l-1.792 1.043c-.174-.464-.174-.985-.058-1.507.058-.29-.116-.637-.405-.695-.289-.058-.636.116-.694.406a3.882 3.882 0 0 0 .116 2.433L26.76 15.43a4.38 4.38 0 0 1-.174-2.723c.058-.29-.115-.638-.404-.695-.29-.058-.637.115-.694.405a5.116 5.116 0 0 0 .289 3.592l-2.719 1.564a3.86 3.86 0 0 0-2.833-1.738v-2.897c1.214-.115 2.37-.637 3.238-1.564a.56.56 0 0 0 0-.81.558.558 0 0 0-.81 0 4.24 4.24 0 0 1-2.428 1.216V9.695c.81-.116 1.561-.522 2.14-1.101a.56.56 0 0 0 0-.811.558.558 0 0 0-.81 0c-.347.347-.81.637-1.33.753V6.103a.58.58 0 0 0-.579-.58c-.289 0-.578.29-.578.58v2.375c-.52-.116-.983-.348-1.33-.753a.558.558 0 0 0-.81 0 .56.56 0 0 0 0 .81c.578.58 1.33.986 2.14 1.102v2.027a4.237 4.237 0 0 1-2.429-1.217.558.558 0 0 0-.81 0 .56.56 0 0 0 0 .812 5.342 5.342 0 0 0 3.239 1.564v2.896c-1.04.174-2.024.696-2.718 1.507l-2.545-1.449c.52-1.158.579-2.375.29-3.591-.059-.29-.406-.522-.695-.406-.289.058-.52.406-.405.695a4.381 4.381 0 0 1-.173 2.723l-1.793-1.043a3.86 3.86 0 0 0 .116-2.433c-.058-.29-.405-.521-.694-.405-.29.058-.52.405-.405.695.115.521.115 1.043-.058 1.506l-2.082-1.043c-.29-.174-.636-.058-.81.232-.173.29-.058.637.232.811l2.082 1.217a3.208 3.208 0 0 1-1.273.81c-.289.059-.52.406-.405.696a.513.513 0 0 0 .694.405 4.025 4.025 0 0 0 2.024-1.332l1.793 1.043c-.578.753-1.33 1.274-2.255 1.506-.29.058-.52.405-.405.695.058.29.405.521.694.405a5.718 5.718 0 0 0 3.007-2.027l2.487 1.448c-.23.464-.347 1.043-.347 1.622 0 .58.116 1.159.347 1.68l-2.487 1.448a5.04 5.04 0 0 0-3.007-2.027c-.289-.058-.636.116-.694.405-.058.29.116.638.405.695a4.131 4.131 0 0 1 2.255 1.507l-1.792 1.042a4.026 4.026 0 0 0-2.024-1.332c-.29-.058-.637.116-.694.405-.058.29.115.638.405.696.52.115.925.405 1.272.81l-2.082 1.217c-.29.174-.405.522-.232.811.174.29.52.348.81.232L9.99 26.38c.174.463.174.984.058 1.506-.058.29.116.637.405.695.289.058.636-.116.694-.406.231-.81.173-1.622-.116-2.433l1.793-1.042c.347.81.405 1.795.174 2.723-.058.289.115.637.404.695.29.058.637-.116.694-.406.347-1.274.232-2.491-.289-3.592l2.545-1.448c.694.811 1.677 1.39 2.718 1.564v3.186c-1.214.116-2.37.695-3.239 1.565a.56.56 0 0 0 0 .81.558.558 0 0 0 .81 0c.694-.694 1.504-1.1 2.43-1.216v2.028c-.81.115-1.562.52-2.14 1.1a.56.56 0 0 0 0 .811.558.558 0 0 0 .809 0c.347-.347.81-.637 1.33-.753v2.144a.58.58 0 0 0 .578.579c.29 0 .579-.29.579-.58v-2.085c.52.116.983.348 1.33.753a.558.558 0 0 0 .81 0 .56.56 0 0 0 0-.811c-.579-.58-1.33-.985-2.14-1.1v-2.028c.925.116 1.793.521 2.429 1.216a.558.558 0 0 0 .81 0 .56.56 0 0 0 0-.81c-.868-.87-2.025-1.449-3.24-1.565v-3.186c1.1-.174 2.14-.753 2.777-1.68l2.718 1.564c-.463 1.1-.636 2.375-.29 3.592a.513.513 0 0 0 .695.406c.289-.058.52-.406.405-.695a4.38 4.38 0 0 1 .173-2.723l1.793 1.042a3.883 3.883 0 0 0-.116 2.433c.058.29.29.464.579.464.405 0 .694-.348.578-.753-.115-.521-.115-1.043.058-1.506l1.793 1.042c.289.174.636.058.81-.232.115-.347.057-.695-.232-.868zm-12.319-3.302c-1.04 0-2.082-.58-2.602-1.507a2.916 2.916 0 0 1-.463-1.564c0-.579.174-1.1.463-1.564.578-.927 1.562-1.506 2.602-1.506 1.1 0 2.14.58 2.66 1.564.232.464.406.985.406 1.506 0 .522-.116 1.043-.405 1.506-.52.985-1.562 1.565-2.66 1.565z" fill="#fff"/><circle cx="20" cy="20" r="19" stroke="#DFDFDF" stroke-width="2"/></svg>