<svg width="80" height="125" viewBox="0 0 80 125" fill="none" xmlns="http://www.w3.org/2000/svg"><ellipse cx="12.5" cy="118.5" rx="12.5" ry="1.5" fill="#C9C9C9"/><ellipse cx="67.5" cy="118.5" rx="12.5" ry="1.5" fill="#C9C9C9"/><path d="M12.523 80.559c2.745 0 4.266 1.602 4.683 2.403 0-.628-.151-1.884-.82-2.62-.67-.736-3.712-2.093-6.82-.816-3.108 1.278-5.007 3.436-5.007 7.529 0 4.092 3.202 7.404 4.985 8.986 1.619 1.437 6.317 4.461 8.633 5.933 1.381-.981 4.657-3.395 6.712-5.197 2.569-2.252 2.784-4.338 2.59-6.64-.23-2.736-3.626-5.442-7.273-4.793-3.648.65-3.583 2.924-3.561 2.924 3.064-2.902 6.064-1.755 7.402-.91 1.339.844 2.85 3.833 1.339 6.301-1.209 1.975-5.31 4.88-7.209 6.085-1.252-.78-4.135-2.611-5.654-3.703-1.9-1.364-5.664-4.856-5.87-8.38-.195-3.306 2.438-7.102 5.87-7.102z" fill="#C9C9C9"/><path d="M3.507 48.838h26.218m0 0c.167 0 .302.145.302.325v5.367c0 .45-.338.813-.754.813s-.753.364-.753.813v.681c0 .36.27.65.603.65.332 0 .602.292.602.651v1.57c0 .27-.202.488-.452.488s-.452.219-.452.488v.62c0 1.03.405 1.466.904 1.466m0-13.932c-.166 0-.301-.146-.301-.325V24.117c0-1.437-1.147-2.534-2.317-3.219-2.47-1.446-3.409-5.067-3.409-6.864 0-2.277-.603-3.253-1.507-3.253H10.74c-.905 0-1.507.976-1.507 3.253 0 1.797-.939 5.418-3.41 6.864-1.17.685-2.316 1.782-2.316 3.22v24.395c0 .18-.135.325-.302.325-.166 0-.3.145-.3.325v5.367c0 .45.336.813.752.813.417 0 .754.364.754.813v.681c0 .36-.27.65-.603.65-.333 0-.603.292-.603.651v1.57c0 .27.203.488.452.488.25 0 .453.219.453.488v.62c0 1.03-.405 1.466-.905 1.466h-.15c-.583 0-1.055.51-1.055 1.138v48.188c0 .96.254 1.901.731 2.711.859 1.456 2.347 2.337 3.946 2.337H17.67m-14.164-61.8h26.218M3.507 62.77h26.218m0 0h.151c.582 0 1.055.51 1.055 1.138v48.188c0 .96-.254 1.901-.731 2.711-.859 1.456-2.347 2.337-3.946 2.337H15.26M3.507 60.196h26.218M3.507 57.813h26.218" stroke="#191919" stroke-width="2" stroke-linecap="round" stroke-linejoin="round"/><path d="M29.271 55.343H3.657c-.416 0-.754-.364-.754-.813v-5.367c0-.18.135-.325.302-.325.166 0 .301-.146.301-.325V24.117c0-1.437 1.147-2.534 2.317-3.219 2.47-1.446 3.409-5.067 3.409-6.864 0-2.277.603-3.253 1.507-3.253H22.19c.905 0 1.507.976 1.507 3.253 0 1.797.939 5.418 3.41 6.864 1.17.685 2.316 1.782 2.316 3.22v24.395c0 .18.135.325.302.325.166 0 .3.145.3.325v5.367c0 .45-.336.813-.753.813z" fill="#191919"/><path d="M3.505 48.838h26.219m0 0c.166 0 .3.145.3.325v5.367c0 .45-.336.813-.753.813H3.657c-.416 0-.754-.364-.754-.813v-5.367c0-.18.135-.325.302-.325.166 0 .301-.146.301-.325V24.117c0-1.437 1.147-2.534 2.317-3.219 2.47-1.446 3.409-5.067 3.409-6.864 0-2.277.603-3.253 1.507-3.253H22.19c.905 0 1.507.976 1.507 3.253 0 1.797.939 5.418 3.41 6.864 1.17.685 2.316 1.782 2.316 3.22v24.395c0 .18.135.325.302.325zM3.505 55.343h26.219" stroke="#191919" stroke-width="2" stroke-linecap="round" stroke-linejoin="round"/><path d="M32 70H2m30 40H2" stroke="#191919" stroke-width="2"/><path d="M59.523 80.559c2.745 0 4.266 1.602 4.683 2.403 0-.628-.151-1.884-.82-2.62-.67-.736-3.712-2.093-6.82-.816-3.108 1.278-5.007 3.436-5.007 7.529 0 4.092 3.202 7.404 4.985 8.986 1.619 1.437 6.317 4.461 8.633 5.933 1.381-.981 4.657-3.395 6.712-5.197 2.569-2.252 2.784-4.338 2.59-6.64-.23-2.736-3.626-5.442-7.273-4.793-3.648.65-3.583 2.924-3.561 2.924 3.064-2.902 6.064-1.755 7.402-.91 1.339.844 2.85 3.833 1.339 6.301-1.209 1.975-5.31 4.88-7.209 6.085-1.252-.78-4.135-2.611-5.655-3.703-1.899-1.364-5.663-4.856-5.87-8.38-.194-3.306 2.439-7.102 5.87-7.102z" fill="#C9C9C9"/><path d="M50.507 48.838h26.218m0 0c.167 0 .302.145.302.325v5.367c0 .45-.338.813-.754.813s-.753.364-.753.813v.681c0 .36.27.65.603.65.332 0 .602.292.602.651v1.57c0 .27-.202.488-.452.488s-.452.219-.452.488v.62c0 1.03.405 1.466.904 1.466m0-13.932c-.166 0-.301-.146-.301-.325V24.117c0-1.437-1.147-2.534-2.317-3.219-2.47-1.446-3.409-5.067-3.409-6.864 0-2.277-.603-3.253-1.507-3.253H57.74c-.904 0-1.506.976-1.506 3.253 0 1.797-.939 5.418-3.41 6.864-1.17.685-2.316 1.782-2.316 3.22v24.395c0 .18-.135.325-.302.325-.166 0-.3.145-.3.325v5.367c0 .45.336.813.752.813.417 0 .754.364.754.813v.681c0 .36-.27.65-.603.65-.333 0-.603.292-.603.651v1.57c0 .27.203.488.453.488s.451.219.451.488v.62c0 1.03-.404 1.466-.904 1.466h-.15c-.583 0-1.055.51-1.055 1.138v48.188c0 .96.254 1.901.731 2.711.859 1.456 2.347 2.337 3.946 2.337H64.67m-14.164-61.8h26.218M50.507 62.77h26.218m0 0h.151c.582 0 1.055.51 1.055 1.138v48.188c0 .96-.254 1.901-.731 2.711-.859 1.456-2.347 2.337-3.946 2.337H62.26M50.507 60.196h26.218m-26.218-2.383h26.218" stroke="#191919" stroke-width="2" stroke-linecap="round" stroke-linejoin="round"/><path d="M76.272 55.343H50.656c-.416 0-.754-.364-.754-.813v-5.367c0-.18.135-.325.302-.325.166 0 .301-.146.301-.325V24.117c0-1.437 1.147-2.534 2.317-3.219 2.47-1.446 3.409-5.067 3.409-6.864 0-2.277.603-3.253 1.507-3.253h11.451c.905 0 1.507.976 1.507 3.253 0 1.797.939 5.418 3.41 6.864 1.17.685 2.316 1.782 2.316 3.22v24.395c0 .18.135.325.302.325.166 0 .3.145.3.325v5.367c0 .45-.336.813-.752.813z" fill="#191919"/><path d="M50.505 48.838h26.219m0 0c.166 0 .3.145.3.325v5.367c0 .45-.336.813-.752.813H50.656c-.416 0-.754-.364-.754-.813v-5.367c0-.18.135-.325.302-.325.166 0 .301-.146.301-.325V24.117c0-1.437 1.147-2.534 2.317-3.219 2.47-1.446 3.409-5.067 3.409-6.864 0-2.277.603-3.253 1.507-3.253h11.451c.905 0 1.507.976 1.507 3.253 0 1.797.939 5.418 3.41 6.864 1.17.685 2.316 1.782 2.316 3.22v24.395c0 .18.135.325.302.325zm-26.219 6.505h26.219" stroke="#191919" stroke-width="2" stroke-linecap="round" stroke-linejoin="round"/><path d="M79 70H49m30 40H49" stroke="#191919" stroke-width="2"/><path d="M33.757 1c-1.41 0-2.436.848-2.99 1.958-.497.995-.672 2.266-.672 3.658 0 .729-.204 1.989-.72 3.232-.52 1.254-1.248 2.237-2.118 2.746-1.45.85-3.57 2.59-3.57 5.308v26.38a2.386 2.386 0 0 0-.675 1.653v6.006a2.95 2.95 0 0 0 1.02 2.226 2.783 2.783 0 0 0-.683 1.813v1.757c0 .61.225 1.214.63 1.679-1.22.5-1.979 1.752-1.979 3.022v53.934c0 1.42.375 2.82 1.092 4.037 1.291 2.19 3.581 3.589 6.118 3.589h21.912c2.537 0 4.827-1.399 6.118-3.589a7.957 7.957 0 0 0 1.092-4.037V62.438c0-1.198-.674-2.38-1.775-2.93a1.967 1.967 0 0 0 .41-1.482c.01-.095.016-.192.016-.289V55.98c0-.066-.002-.131-.007-.196a1.97 1.97 0 0 0-.557-1.55c.203-.208.36-.46.457-.74a2.95 2.95 0 0 0 .444-1.553v-6.007c0-.602-.24-1.207-.674-1.652v-26.38c0-2.719-2.12-4.459-3.571-5.308-.87-.509-1.598-1.492-2.118-2.746-.515-1.243-.72-2.503-.72-3.232 0-1.392-.175-2.663-.672-3.658C49.013 1.848 47.986 1 46.575 1H33.757z" fill="#F5F5F5" stroke="#F5F5F5" stroke-width="2" stroke-linecap="round" stroke-linejoin="round"/><ellipse cx="40" cy="123.5" rx="18" ry="1.5" fill="#C9C9C9"/><path d="M35.753 79.745c3.073 0 4.775 1.793 5.242 2.69 0-.703-.169-2.109-.918-2.933-.748-.824-4.154-2.343-7.633-.913-3.478 1.43-5.604 3.846-5.604 8.426 0 4.581 3.584 8.287 5.58 10.058 1.812 1.608 7.07 4.993 9.662 6.641 1.546-1.099 5.213-3.8 7.513-5.817 2.874-2.52 3.116-4.855 2.898-7.432-.258-3.062-4.058-6.091-8.14-5.364-4.082.727-4.01 3.272-3.986 3.272 3.43-3.248 6.788-1.964 8.286-1.018 1.497.945 3.188 4.29 1.497 7.052-1.352 2.21-5.942 5.462-8.068 6.811-1.4-.873-4.628-2.923-6.329-4.145-2.125-1.526-6.338-5.435-6.57-9.379-.217-3.7 2.73-7.95 6.57-7.95z" fill="#C9C9C9"/><path d="M25.663 45.571h29.345m0 0c.186 0 .337.163.337.364v6.007c0 .503-.377.91-.843.91-.466 0-.843.408-.843.91v.762c0 .402.302.728.674.728.373 0 .675.326.675.729v1.757c0 .301-.227.546-.506.546-.28 0-.506.245-.506.546v.694c0 1.152.453 1.64 1.012 1.64m0-15.593c-.186 0-.337-.163-.337-.364V17.903c0-1.609-1.284-2.836-2.594-3.603-2.764-1.619-3.815-5.671-3.815-7.683 0-2.548-.675-3.64-1.687-3.64H33.758c-1.012 0-1.686 1.092-1.686 3.64 0 2.012-1.05 6.064-3.816 7.683-1.31.767-2.593 1.994-2.593 3.603v27.304c0 .201-.151.364-.337.364-.186 0-.338.163-.338.364v6.007c0 .503.378.91.844.91.465 0 .843.408.843.91v.762c0 .402-.302.728-.675.728-.372 0-.674.326-.674.729v1.757c0 .301.226.546.506.546s.506.245.506.546v.694c0 1.152-.453 1.64-1.012 1.64h-.169c-.652 0-1.18.571-1.18 1.275v53.934a5.98 5.98 0 0 0 .818 3.033c.96 1.63 2.627 2.617 4.416 2.617h12.305m-15.853-69.17h29.345m-29.345 8.312h29.345m0 0h.169c.652 0 1.18.57 1.18 1.274v53.934a5.978 5.978 0 0 1-.818 3.033c-.961 1.63-2.627 2.617-4.416 2.617H38.818M25.663 58.284h29.345m-29.345-2.667h29.345" stroke="#191919" stroke-width="2" stroke-linecap="round" stroke-linejoin="round"/><path d="M54.498 52.852h-28.67c-.466 0-.844-.407-.844-.91v-6.007c0-.2.151-.364.338-.364.186 0 .337-.163.337-.364V17.903c0-1.609 1.283-2.836 2.593-3.603 2.765-1.619 3.816-5.671 3.816-7.683 0-2.548.674-3.64 1.686-3.64h12.818c1.011 0 1.686 1.092 1.686 3.64 0 2.012 1.05 6.064 3.815 7.683 1.31.767 2.594 1.994 2.594 3.603v27.304c0 .201.15.364.337.364.186 0 .337.163.337.364v6.007c0 .503-.377.91-.843.91z" fill="#191919"/><path d="M25.659 45.571h29.345m0 0c.186 0 .337.163.337.364v6.007c0 .503-.377.91-.843.91h-28.67c-.466 0-.844-.407-.844-.91v-6.007c0-.2.151-.364.338-.364.186 0 .337-.163.337-.364V17.903c0-1.609 1.283-2.836 2.593-3.603 2.765-1.619 3.816-5.671 3.816-7.683 0-2.548.674-3.64 1.686-3.64h12.818c1.011 0 1.686 1.092 1.686 3.64 0 2.012 1.05 6.064 3.815 7.683 1.31.767 2.594 1.994 2.594 3.603v27.304c0 .201.15.364.337.364zm-29.345 7.281h29.345" stroke="#191919" stroke-width="2" stroke-linecap="round" stroke-linejoin="round"/><path d="M56.555 68.5h-32.5m32.5 43.5h-32.5" stroke="#191919" stroke-width="2"/></svg>