<svg width="26" height="24" viewBox="0 0 26 24" fill="none" xmlns="http://www.w3.org/2000/svg"><path fill-rule="evenodd" clip-rule="evenodd" d="M13.531 5.843a6.162 6.162 0 1 0 0 12.324 6.162 6.162 0 0 0 0-12.324zm0 10.162a4 4 0 1 1 0-8 4 4 0 0 1 0 8z" fill="#000"/><path d="M19.937 7.036a1.44 1.44 0 1 0 0-2.88 1.44 1.44 0 0 0 0 2.88z" fill="#000"/><path fill-rule="evenodd" clip-rule="evenodd" d="M13.333 0C9.893 0 9.46.012 8.11.071 6.762.13 5.841.332 5.036.629a6.255 6.255 0 0 0-2.244 1.384A5.86 5.86 0 0 0 1.331 4.14c-.313.763-.527 1.636-.589 2.913C.681 8.332.666 8.74.666 11.999c0 3.26.015 3.668.076 4.948.062 1.277.276 2.15.589 2.913a5.864 5.864 0 0 0 1.461 2.125 6.254 6.254 0 0 0 2.244 1.384c.805.297 1.726.5 3.074.558 1.351.059 1.783.072 5.223.072s3.871-.013 5.222-.072c1.348-.058 2.27-.261 3.075-.558a6.254 6.254 0 0 0 2.243-1.384 5.86 5.86 0 0 0 1.461-2.125c.314-.763.528-1.636.59-2.913.06-1.28.075-1.689.075-4.948 0-3.259-.014-3.667-.076-4.947-.061-1.277-.275-2.15-.589-2.913a5.86 5.86 0 0 0-1.46-2.126A6.254 6.254 0 0 0 21.63.63c-.806-.296-1.727-.5-3.075-.557C17.205.014 16.773 0 13.333 0zm0 2.162c3.382 0 3.783.012 5.118.07 1.235.053 1.906.248 2.352.413a3.951 3.951 0 0 1 1.456.897c.444.42.718.82.948 1.38.174.423.38 1.058.436 2.228.061 1.266.074 1.645.074 4.85 0 3.204-.013 3.583-.074 4.848-.056 1.17-.262 1.806-.436 2.229-.23.56-.504.96-.947 1.38a3.95 3.95 0 0 1-1.457.897c-.446.164-1.117.36-2.352.413-1.335.058-1.736.07-5.118.07-3.383 0-3.783-.012-5.119-.07-1.235-.053-1.905-.249-2.352-.413a3.951 3.951 0 0 1-1.456-.898 3.705 3.705 0 0 1-.948-1.38c-.173-.422-.38-1.058-.436-2.228-.06-1.265-.074-1.644-.074-4.849 0-3.204.013-3.583.074-4.849.056-1.17.263-1.805.436-2.228.23-.56.505-.96.948-1.38.443-.42.865-.68 1.456-.897.447-.165 1.117-.36 2.352-.413 1.336-.058 1.737-.07 5.119-.07z" fill="#000"/></svg>