<svg width="25" height="25" viewBox="0 0 25 25" fill="none" xmlns="http://www.w3.org/2000/svg"><path d="M10.895 12.379l.216.058-.742 2.766-.215-.058.741-2.766zm.533.465a.606.606 0 0 0-.171-.02l-.024-.222a.826.826 0 0 1 .838 1.04.827.827 0 0 1-1.09.561l.139-.19a.604.604 0 0 0 .308-1.169zm-.801 11.831c2.83 0 7.49-.132 7.49-.295 0-.164-4.66-.296-7.49-.296-2.763 0-2.761.126-2.76.284v.023c-.001.158-.003.284 2.76.284z" fill="#C9C9C9"/><path fill-rule="evenodd" clip-rule="evenodd" d="M15.279.68l-.903 3.369.459.123c.51.136.813.661.676 1.172l-1.478 5.518a.61.61 0 0 1 .25.666l-.055.205.008.003a.34.34 0 0 1 .241.417 1.565 1.565 0 0 1-.132.335l-1.164 2.17-.571 2.54a.292.292 0 0 1 .04.24l-.005.02a.776.776 0 0 1-.781.574l-.983-.04a.273.273 0 0 0-.273.194l-1.484 4.872-.248.928a.506.506 0 1 1-.977-.262l.249-.928 1.15-4.961a.273.273 0 0 0-.138-.304l-.871-.457a.776.776 0 0 1-.39-.888l.006-.02a.292.292 0 0 1 .154-.187l.775-2.486.078-2.46a1.54 1.54 0 0 1 .052-.357.341.341 0 0 1 .418-.241l.008.002.056-.205a.611.611 0 0 1 .549-.452l1.478-5.518a.957.957 0 0 1 1.173-.677l.458.123.903-3.368a.458.458 0 0 1 .561-.324l.386.103a.459.459 0 0 1 .325.562zm-.875-.267a.065.065 0 0 1 .062-.017l.386.104a.065.065 0 0 1 .046.079l-.903 3.368-.51-.137.902-3.368a.065.065 0 0 1 .017-.03zm.676 5.02l-1.42 5.296-3.276-.878 1.42-5.297 3.276.878zm-1.178 5.993l-.055.205L9.77 10.54l.055-.205a.217.217 0 0 1 .266-.154l3.657.98c.115.031.184.15.153.266zm-1.1 3.119l-.557 2.481-3.784-1.014.758-2.427a.197.197 0 0 0 .008-.053l.079-2.488c.002-.072.01-.144.026-.214l4.75 1.272c-.022.07-.05.136-.085.2l-1.176 2.193a.197.197 0 0 0-.018.05z" fill="#191919"/></svg>