<svg width="26" height="26" viewBox="0 0 26 26" fill="none" xmlns="http://www.w3.org/2000/svg"><path fill-rule="evenodd" clip-rule="evenodd" d="M20.122 22.432A11.8 11.8 0 0 0 24.818 13c0-6.527-5.291-11.818-11.818-11.818C6.473 1.182 1.182 6.473 1.182 13a11.8 11.8 0 0 0 4.696 9.432c1.497-2.464 4.119-4.114 7.122-4.114s5.625 1.65 7.122 4.114zm-.978.666C17.848 20.925 15.572 19.5 13 19.5s-4.848 1.425-6.144 3.598A11.763 11.763 0 0 0 13 24.818c2.25 0 4.354-.629 6.144-1.72zM13 26c7.18 0 13-5.82 13-13S20.18 0 13 0 0 5.82 0 13s5.82 13 13 13zm0-18.274a4.136 4.136 0 1 0 0 8.272 4.136 4.136 0 0 0 0-8.272zm-5.318 4.136a5.318 5.318 0 1 1 10.636 0 5.318 5.318 0 0 1-10.636 0z" fill="#191919"/></svg>