<svg width="25" height="25" viewBox="0 0 25 25" fill="none" xmlns="http://www.w3.org/2000/svg"><ellipse cx="15.16" cy="23.691" rx="2.879" ry=".308" fill="#C9C9C9"/><path d="M9.658 3.45c2.605 0 4.047 1.492 4.443 2.238 0-.584-.143-1.753-.778-2.439-.635-.685-3.521-1.948-6.47-.759C3.905 3.68 2 6.01 2 9.505c0 3.81 3.14 6.884 4.833 8.357 1.535 1.337 5.992 4.152 8.19 5.523 1.31-.914 4.418-3.16 6.367-4.838 2.437-2.096 2.642-4.038 2.457-6.18-.218-2.547-3.44-5.066-6.9-4.462-3.46.605-3.398 2.721-3.378 2.721 2.907-2.7 5.754-1.632 7.023-.846 1.27.786 2.703 3.567 1.27 5.865-1.147 1.838-5.037 4.542-6.84 5.664-1.187-.726-3.922-2.431-5.364-3.447-1.802-1.27-5.57-4.72-5.57-8.006 0-3.024 2.315-6.405 5.57-6.405z" fill="#191919"/></svg>