<svg width="25" height="25" viewBox="0 0 25 25" fill="none" xmlns="http://www.w3.org/2000/svg"><path d="M13.388 11.265c-.097-.434-.617-1.392-1.925-1.743-1.634-.438-3.373 1.035-3.703 2.635-.351 1.705.996 3.85 1.727 4.742.585.713 1.724 1.954 2.221 2.485 1.059-.331 3.383-1.192 4.211-1.978 1.035-.983.697-2.6.167-3.173-.53-.573-1.812-1.503-3.643-.512-.01-.002.25-1.094 2.07-.938 1.82.156 3.092 1.88 2.853 3.212-.201 1.122-.57 2.088-2.081 2.833-1.21.596-3.078 1.328-3.861 1.62-.916-.998-2.768-3.039-3.356-3.93-.648-.981-1.75-2.968-1.228-4.917.523-1.95 1.703-2.736 3.347-2.948 1.643-.212 2.92.823 3.145 1.26.224.436.136 1.053.056 1.352zM12.727 25c-2.921 0-7.73-.137-7.73-.305 0-.17 4.809-.306 7.73-.306 2.851 0 2.85.13 2.848.293v.013a.48.48 0 0 0 0 .011c.002.163.003.294-2.848.294z" fill="#C9C9C9"/><path d="M9.868 2.51a.61.61 0 0 1 .747-.432l8.655 2.319a.61.61 0 0 1 .432.747l-.84 3.136a.61.61 0 0 1-.748.432L9.46 6.392a.61.61 0 0 1-.431-.747l.84-3.136z" fill="#191919"/><path fill-rule="evenodd" clip-rule="evenodd" d="M5.214 19.739a.204.204 0 0 1 .249-.144l9.51 2.548c.108.03.173.14.144.25l-.221.822a.203.203 0 0 1-.25.144l-9.51-2.548a.204.204 0 0 1-.143-.25l.22-.822zm.225.732l.115-.43 9.117 2.442-.115.43-9.117-2.442z" fill="#191919"/><path d="M11.315 10.117a1.143 1.143 0 1 1-2.208-.592 1.143 1.143 0 0 1 2.208.592zm3.919 3.416a1.143 1.143 0 1 0 .592-2.208 1.143 1.143 0 0 0-.592 2.208zm-4.807-.105a1.143 1.143 0 1 1-2.208-.59 1.143 1.143 0 0 1 2.208.59zm3.92 3.416a1.143 1.143 0 1 0 .592-2.207 1.143 1.143 0 0 0-.592 2.207zM9.54 16.74a1.143 1.143 0 1 1-2.207-.592 1.143 1.143 0 0 1 2.208.592zm3.92 3.416a1.143 1.143 0 1 0 .59-2.208 1.143 1.143 0 0 0-.59 2.208z" fill="#191919"/><path fill-rule="evenodd" clip-rule="evenodd" d="M10.616.035a1.017 1.017 0 0 0-1.246.72l-5.335 19.91c-.145.542.177 1.1.72 1.246l9.674 2.592c.543.145 1.1-.177 1.246-.72l5.335-19.91a1.017 1.017 0 0 0-.72-1.246L10.617.035zm9.57 2.985L10.51.428a.61.61 0 0 0-.747.432L4.428 20.77a.61.61 0 0 0 .432.747l9.675 2.593a.61.61 0 0 0 .747-.432l5.335-19.91a.61.61 0 0 0-.431-.748z" fill="#191919"/><path fill-rule="evenodd" clip-rule="evenodd" d="M5.463 19.595l9.51 2.548c.108.03.173.14.144.25l-.221.822a.203.203 0 0 1-.25.144l-9.51-2.548a.204.204 0 0 1-.143-.25l.22-.822a.204.204 0 0 1 .25-.144zM10.616.035l9.675 2.592c.543.146.865.704.72 1.246l-5.336 19.91a1.017 1.017 0 0 1-1.246.72l-9.675-2.592a1.019 1.019 0 0 1-.72-1.246L9.37.755a1.017 1.017 0 0 1 1.246-.72zm-.167.38a.61.61 0 0 0-.686.445L4.428 20.77a.61.61 0 0 0 .432.747l9.675 2.593a.61.61 0 0 0 .748-.432l5.334-19.91a.61.61 0 0 0-.431-.748L10.51.428a.617.617 0 0 0-.06-.013zm.061 2.056a.204.204 0 0 0-.25.144L9.42 5.75a.206.206 0 0 0 .144.25l8.655 2.319a.205.205 0 0 0 .25-.144l.84-3.136a.203.203 0 0 0-.144-.25L10.51 2.472zm-5.071 18l.115-.43 9.117 2.442-.115.43-9.117-2.442zm4.581-9.939a.736.736 0 1 0 .381-1.422.736.736 0 0 0-.38 1.422zm5.32 2.608a.736.736 0 1 0 .38-1.422.736.736 0 0 0-.38 1.422zm-6.207.704a.736.736 0 1 0 .38-1.422.736.736 0 0 0-.38 1.421zm5.32 2.607a.736.736 0 1 0 .38-1.421.736.736 0 0 0-.38 1.421zm-6.206.704a.736.736 0 1 0 .38-1.421.736.736 0 0 0-.38 1.421zm5.318 2.608a.736.736 0 1 0 .38-1.422.736.736 0 0 0-.38 1.422zM9.868 2.509a.61.61 0 0 1 .747-.431l8.655 2.319a.61.61 0 0 1 .432.747l-.84 3.136a.61.61 0 0 1-.748.432L9.46 6.392a.61.61 0 0 1-.431-.747l.84-3.136zm.047 8.416a1.143 1.143 0 1 0 .592-2.208 1.143 1.143 0 0 0-.592 2.208zm5.319 2.608a1.143 1.143 0 1 0 .592-2.208 1.143 1.143 0 0 0-.592 2.208zm-6.207.704a1.143 1.143 0 1 0 .592-2.208 1.143 1.143 0 0 0-.592 2.207zm5.32 2.607a1.143 1.143 0 1 0 .592-2.207 1.143 1.143 0 0 0-.592 2.207zm-6.206.704a1.143 1.143 0 1 0 .592-2.208 1.143 1.143 0 0 0-.592 2.208zm5.318 2.608a1.143 1.143 0 1 0 .592-2.208 1.143 1.143 0 0 0-.592 2.208z" fill="#191919"/></svg>