<svg width="35" height="85" viewBox="0 0 35 85" fill="none" xmlns="http://www.w3.org/2000/svg"><path opacity=".2" d="M34.807 83.512c0 .554-15.824 1.004-25.436 1.004s-9.37-.45-9.37-1.004c0-.555-.242-1.004 9.37-1.004 9.612 0 25.436.45 25.436 1.004zM11.006 42.961l-.73-.195-2.517 9.392.73.196 2.517-9.393zm.497 1.315a2.053 2.053 0 1 1-.467 4.04l-.472.644a2.81 2.81 0 1 0 .856-5.437l.083.754z" fill="#fff"/><path fill-rule="evenodd" clip-rule="evenodd" d="M25.167 3.046l-3.065 11.437 1.557.417a3.25 3.25 0 0 1 2.299 3.981l-5.021 18.738c.717.48 1.084 1.38.848 2.26l-.187.699.03.008c.617.165.984.8.818 1.418a5.312 5.312 0 0 1-.45 1.136l-3.95 7.368-1.941 8.628c.154.23.212.523.135.811l-.018.067a2.635 2.635 0 0 1-2.652 1.951l-3.337-.134a.928.928 0 0 0-.925.657L4.269 79.033l-.845 3.151a1.717 1.717 0 0 1-3.316-.888l.844-3.152 3.909-16.848a.928.928 0 0 0-.473-1.031l-2.957-1.552A2.635 2.635 0 0 1 .11 55.697l.018-.067a.991.991 0 0 1 .523-.635l2.633-8.442.262-8.357c.013-.408.073-.813.178-1.208a1.16 1.16 0 0 1 1.42-.82l.028.009.187-.7a2.075 2.075 0 0 1 1.865-1.532l5.021-18.738a3.25 3.25 0 0 1 3.981-2.299l1.557.417L20.847 1.89A1.558 1.558 0 0 1 22.755.787l1.31.352a1.558 1.558 0 0 1 1.102 1.907zm-2.97-.91a.22.22 0 0 1 .212-.055l1.31.35a.22.22 0 0 1 .155.269l-3.065 11.436-1.733-.464L22.14 2.236a.22.22 0 0 1 .058-.1zm2.294 17.045l-4.819 17.985-11.126-2.981 4.82-17.985 11.124 2.98zm-3.999 20.352l-.187.698-13.84-3.708.188-.699a.735.735 0 0 1 .9-.52l12.42 3.328a.735.735 0 0 1 .52.9zM16.76 50.125l-1.895 8.425-12.846-3.442 2.57-8.244a.67.67 0 0 0 .03-.178l.266-8.448c.008-.245.038-.489.09-.728l16.128 4.321a3.98 3.98 0 0 1-.285.676l-3.994 7.449a.669.669 0 0 0-.064.17z" fill="#fff"/></svg>