<svg width="54" height="84" viewBox="0 0 54 84" fill="none" xmlns="http://www.w3.org/2000/svg"><g opacity=".2" fill="#fff"><path d="M27.44 54.59c-.312-.6-1.451-1.801-3.508-1.801-2.571 0-4.544 2.844-4.398 5.32.155 2.64 2.975 5.257 4.398 6.279 1.138.818 3.298 2.19 4.236 2.774 1.423-.903 4.495-3.079 5.4-4.559 1.133-1.849 0-4.088-1.002-4.72-1.002-.633-3.25-1.493-5.546.681-.016 0-.064-1.703 2.668-2.19 2.733-.487 5.276 1.541 5.449 3.59.146 1.726-.016 3.288-1.94 4.976-1.54 1.35-3.994 3.158-5.029 3.893-1.735-1.103-5.255-3.369-6.467-4.445-1.337-1.186-3.736-3.666-3.736-6.732 0-3.066 1.423-4.683 3.752-5.64 2.328-.958 4.608.059 5.11.61.5.552.614 1.493.614 1.964zm-13.383 1.887a4.212 4.212 0 0 0-.532.06c-2.441.435-2.398 1.957-2.384 1.957 1.028-.973 2.044-1.266 2.916-1.245v-.772z"/><path d="M14.057 64.868a32.079 32.079 0 0 1-1.89 1.308c-.838-.522-2.768-1.748-3.785-2.479-1.271-.913-3.79-3.25-3.93-5.61-.13-2.212 1.633-4.753 3.93-4.753 1.838 0 2.856 1.072 3.135 1.609 0-.42-.101-1.261-.55-1.754-.447-.493-2.484-1.401-4.564-.546s-3.352 2.3-3.352 5.039c0 2.74 2.144 4.956 3.337 6.015 1.084.962 4.228 2.986 5.779 3.972a82.1 82.1 0 0 0 1.89-1.391v-1.41zm.039 13.13c-1.497-.168-3.512-.272-5.729-.272-4.621 0-8.367.45-8.367 1.004 0 .555 3.746 1.004 8.367 1.004 2.39 0 4.546-.12 6.07-.313a6.02 6.02 0 0 1-.341-1.423zm25.228 1.449c1.51.178 3.577.287 5.858.287 4.62 0 8.367-.45 8.367-1.004s-3.746-1.004-8.367-1.004c-2.108 0-4.033.094-5.504.248-.056.504-.175 1-.354 1.473zm.391-14.351a127.69 127.69 0 0 0 3.912 2.573c.924-.657 3.117-2.273 4.493-3.479 1.719-1.507 1.863-2.904 1.733-4.445-.154-1.831-2.427-3.643-4.868-3.208-2.442.435-2.398 1.957-2.384 1.957 2.052-1.943 4.06-1.174 4.955-.609.896.565 1.907 2.566.896 4.218-.809 1.322-3.554 3.266-4.825 4.073-.838-.522-2.768-1.748-3.785-2.479a9.605 9.605 0 0 1-.127-.093v1.492zm0-11.76l.127-.002c1.838 0 2.855 1.072 3.135 1.609 0-.42-.101-1.261-.55-1.754-.31-.342-1.387-.885-2.712-.898v1.045zm-.892 28.741c0 .555-5.394 1.004-12.049 1.004-6.654 0-12.048-.45-12.048-1.004 0-.555 5.394-1.004 12.048-1.004 6.655 0 12.049.45 12.049 1.004z"/></g><path fill-rule="evenodd" clip-rule="evenodd" d="M17.192 35.458h.01v.289c-.546.108-.903.612-.903 1.136v1.176c0 .334.165.664.443.859a.67.67 0 0 0 .234.14v.197c0 .245-.039.373-.064.428h-.057c-.853 0-1.46.73-1.46 1.523v36.1c0 .837.222 1.66.641 2.371.755 1.28 2.082 2.081 3.533 2.081h14.667c1.45 0 2.777-.8 3.532-2.08.42-.713.64-1.535.64-2.371V41.205c0-.791-.605-1.522-1.459-1.522h-.056c-.025-.055-.065-.183-.065-.428v-.161h.008a.67.67 0 0 0 .65-.833 1.04 1.04 0 0 0 .02-.202v-1.176a1.28 1.28 0 0 0-.008-.139.67.67 0 0 0-.323-.683 1.082 1.082 0 0 0-.572-.314v-.29h.233a.67.67 0 0 0 .653-.517c.155-.219.242-.487.242-.76v-4.021a.932.932 0 0 0-.451-.796V11.395c0-1.452-1.142-2.448-2.067-2.99-.751-.44-1.314-1.241-1.69-2.151-.377-.906-.533-1.834-.533-2.413 0-.893-.115-1.625-.38-2.157-.286-.573-.774-.95-1.418-.95H22.61c-.644 0-1.132.377-1.418.95-.265.532-.38 1.264-.38 2.157 0 .579-.157 1.507-.532 2.413-.377.91-.94 1.711-1.691 2.151-.926.542-2.067 1.538-2.067 2.99v17.968a.932.932 0 0 0-.452.796v4.02c0 .522.32 1.022.816 1.205a.666.666 0 0 0 .305.074h.001zm1.349.45v-.45h16.723v.45c0 .02 0 .041.002.061H18.539l.002-.061zm-.903 1.4h18.53v.447h-18.53v-.447zm.677 1.786H35.49v.16c0 .148.009.291.029.43H18.286c.02-.139.029-.282.029-.43v-.16zm-1.216 1.921a.674.674 0 0 0 .095.007H36.95c.016 0 .04.006.068.035.028.03.053.081.053.148v3.387H16.735v-3.386c0-.068.024-.118.053-.149.027-.03.051-.035.067-.035h.113c.044 0 .088-.002.131-.007zm-.364 4.916v27.778H37.07V45.931H16.735zm0 31.376v-2.26H37.07v2.26a3.34 3.34 0 0 1-.455 1.69c-.531.901-1.434 1.422-2.38 1.422H19.57c-.945 0-1.848-.52-2.38-1.422a3.335 3.335 0 0 1-.454-1.69z" fill="#fff"/><path d="M15.241 35.733a2.661 2.661 0 0 1-.507-1.554v-4.021c0-.478.158-.958.452-1.352V11.395c0-1.324.619-2.336 1.333-3.061-.034-.594-.14-1.096-.334-1.487-.265-.53-.723-.887-1.33-.887H7.188c-.608 0-1.065.356-1.33.887-.245.49-.348 1.157-.348 1.96 0 .507-.137 1.327-.47 2.128-.334.805-.828 1.506-1.48 1.888-.833.487-1.883 1.395-1.883 2.733V31.57a.908.908 0 0 0-.403.75v3.592c0 .493.3.968.772 1.143a.66.66 0 0 0 .238.068v.133c-.491.126-.807.592-.807 1.072v1.05c0 .32.157.637.423.825a.67.67 0 0 0 .182.117v.127c0 .16-.02.257-.036.312-.807 0-1.376.69-1.376 1.431v32.255c0 .76.2 1.507.582 2.154.687 1.165 1.894 1.894 3.218 1.894h9.704a6.061 6.061 0 0 1-.117-1.186v-.152H4.47c-.817 0-1.602-.451-2.065-1.236a2.908 2.908 0 0 1-.396-1.474v-.735h12.048v-1.34H2.01V46.935h12.048v-1.34H2.01V42.19c0-.042.015-.07.028-.084a.047.047 0 0 1 .01-.009h.1c.038 0 .077-.001.115-.005a.677.677 0 0 0 .086.005h11.71v-.891c0-.15.011-.3.035-.447H3.404a2.67 2.67 0 0 0 .017-.312v-.072h10.761c.155-.51.448-.98.854-1.34H2.816v-.256h12.257a2.373 2.373 0 0 1-.113-.72v-.618H3.622v-.315H14.96v-.243c0-.393.098-.79.281-1.149zm23.571 1.149v.243h11.07v.315h-11.07v.618c0 .064-.002.127-.008.19a2.004 2.004 0 0 1-.023.53h11.907v.257H38.737c.405.359.698.83.853 1.339h10.493v.072c0 .106.005.21.016.312H39.68c.024.148.036.297.036.447v.891h11.741l.002.002.004.003a.123.123 0 0 1 .033.088v3.408h-11.78v1.339h11.78v25.436h-11.78v1.338h11.78v.734c0 .526-.14 1.037-.397 1.474-.462.785-1.247 1.236-2.064 1.236h-9.319v.152c0 .4-.04.797-.117 1.186h9.436c1.323 0 2.53-.73 3.218-1.894a4.247 4.247 0 0 0 .582-2.154V42.19c0-.741-.569-1.431-1.376-1.431a1.092 1.092 0 0 1-.036-.312v-.075a.67.67 0 0 0 .588-.815.992.992 0 0 0 .017-.178v-1.051a.987.987 0 0 0-.007-.122.67.67 0 0 0-.316-.669 1.035 1.035 0 0 0-.484-.281v-.13h.137a.67.67 0 0 0 .65-.504c.142-.206.221-.455.221-.71V32.32a.908.908 0 0 0-.403-.75V15.555c0-1.338-1.05-2.246-1.882-2.733-.653-.382-1.147-1.083-1.48-1.888-.333-.801-.47-1.621-.47-2.129 0-.802-.104-1.468-.348-1.959-.265-.53-.723-.887-1.33-.887h-7.667c-.608 0-1.066.356-1.33.887-.168.337-.27.756-.316 1.246.814.736 1.584 1.825 1.584 3.302v17.412c.294.394.452.874.452 1.352v4.02c0 .475-.13.934-.36 1.331-.028.07-.06.138-.094.204a1.983 1.983 0 0 1 .225 1.04l.003.129z" fill="#fff"/></svg>