<svg width="76" height="72" viewBox="0 0 76 72" fill="none" xmlns="http://www.w3.org/2000/svg"><ellipse opacity=".2" cx="38.128" cy="71.001" rx="10.98" ry=".915" fill="#fff"/><path fill-rule="evenodd" clip-rule="evenodd" d="M75.31 18.588c.2.1.328.305.328.528v3.87l-.003.002h-.001l-8.308 4.189v6.164l2.345 15.18a.829.829 0 0 1-.822.954h-4.711a.829.829 0 0 1-.822-.953l2.347-15.195v-5.312l-5.818 2.933V28.78c0-.562-.397-1.043-.944-1.178a63.071 63.071 0 0 1-2.018-.547c-3.585-1.012-8.422-2.378-19.076-2.412-11.21.034-15.759 1.391-19.15 2.403l-.002.001c-.672.2-1.299.388-1.923.548-.544.14-.94.62-.94 1.18v2.173L.005 22.988H.002L0 22.986v-3.773a.59.59 0 0 1 .327-.527L37.553.063a.595.595 0 0 1 .531 0L75.31 18.587zM38.65 2.194l35.325 17.58v2.417L38.65 5.282V2.194zM1.662 19.774l35.326-17.58v3.089L1.662 22.19v-2.416z" fill="#fff"/><path d="M32.416 44.488c0-.623.697-1.01 1.25-.694l11.64 6.643a.793.793 0 0 1 0 1.388l-11.64 6.643c-.553.316-1.25-.071-1.25-.694V44.488z" fill="#fff"/><path fill-rule="evenodd" clip-rule="evenodd" d="M38.234 26.308c2.481-.045 6.238.098 9.906.495 3.645.394 7.325 1.049 9.56 2.076l.138.064a.59.59 0 0 1 .345.536V41.97c0 .41-.409.695-.795.555l-.32-.116c-.357-.13-1.044-.306-2.1-.496a18.89 18.89 0 0 1 2.386 9.218c0 10.514-8.56 19.038-19.117 19.038-10.558 0-19.118-8.524-19.118-19.038 0-3.344.867-6.488 2.388-9.219-1.06.19-1.749.368-2.106.497l-.32.116a.592.592 0 0 1-.795-.555V29.48c0-.23.134-.44.344-.536l.139-.064c2.235-1.027 5.915-1.682 9.56-2.076 3.668-.397 7.425-.54 9.905-.495zM23.6 41.593a17.284 17.284 0 0 0-2.854 9.54c0 9.618 7.831 17.416 17.49 17.416 9.66 0 17.49-7.798 17.49-17.417 0-3.521-1.048-6.798-2.852-9.538a65.345 65.345 0 0 0-1.352-.162c-3.094-.338-7.466-.615-13.288-.627-5.82.012-10.193.289-13.288.627-.48.053-.928.107-1.346.161z" fill="#fff"/></svg>