<svg width="85" height="17" viewBox="0 0 85 17" fill="none" xmlns="http://www.w3.org/2000/svg"><path fill-rule="evenodd" clip-rule="evenodd" d="M9.823 6.116L8 .113 6.177 6.116H0L4.998 10l-1.855 6.112L8 12.336l4.857 3.777-1.855-6.112L16 6.116H9.823zm17.14 0L25.142.113l-1.823 6.003H17.14L22.138 10l-1.855 6.112 4.858-3.777 4.857 3.777L28.143 10l4.998-3.885h-6.177zm17.141 0L42.281.113l-1.823 6.003h-6.177L39.28 10l-1.855 6.112 4.857-3.777 4.857 3.777L45.284 10l4.998-3.885h-6.177zm17.148 0L59.43.113l-1.823 6.003H51.43L56.427 10l-1.855 6.112 4.858-3.777 4.857 3.777L62.432 10l4.998-3.885h-6.178zm17.141 0L76.57.113l-1.822 6.003H68.57L73.568 10l-1.855 6.112 4.857-3.777 4.858 3.777L79.573 10l4.997-3.885h-6.177z" fill="#86898F"/></svg>