<svg xmlns="http://www.w3.org/2000/svg" width="354.183" height="58.907"><defs><clipPath id="a"><path d="M0 0h595.276v841.89H0V0z"/></clipPath></defs><path d="M35.876 27.91l5.425 8.604 10.912-17.392v38.527h9.4V1.607h-9.592L35.876 27.91zM9.507 1.606H0V57.65h9.424V19.121l21.395 34.21 5.457-8.73L9.507 1.606zm108.635 38.671l8.698 17.371h11.336l-28.44-56.041h-10.22l-.008.017 14.24 29.72H94.825l4.939-9.688-5.151-10.529-23.964 46.521H81.25l8.958-17.367 27.933-.004zm82.8-38.671h-9.426v27.215l9.426 9.467V1.606zm-45.494 0h-9.59V57.65h9.43V15.773l38.635 41.876h7.018v-6.81L155.448 1.606z"/><g clip-path="url(#a)" transform="matrix(1.25 0 0 -1.25 -194.955 595.635)"><path d="M369.413 462.781c-3.59 3.73-9.128 6.117-15.34 6.117-9.914 0-18.108-6.086-19.415-13.984h-8.303c1.085 12.26 13.63 21.295 27.82 21.295 8.44 0 16.023-3.143 21.128-8.2l-5.89-5.228zm-16.04-26.131c-8.277 0-15.323 4.485-17.951 10.76h-8.47c2.8-10.815 13.814-18.028 26.89-18.028 3.036 0 6.53.3 9.43 1.02 6.548 1.62 13.698 5.875 13.698 12.592v11.92h-23.684l-.017-7.505H369.4v-3.407c0-3.762-5.621-5.938-9.061-6.702-1.851-.41-4.227-.65-6.145-.65h-.822zm85.938 16.114c0 13.37-12.137 23.744-27.045 23.744-14.435 0-27.117-9.894-27.117-23.024 0-12.38 9.96-22.3 23.377-23.872v7.49c-8.778 1.446-15.412 8.004-15.412 15.89 0 8.948 8.531 16.206 19.05 16.206 10.524 0 19.052-7.258 19.052-16.205 0-7.826-6.53-14.34-15.206-15.855v-7.506c12.874 1.565 23.301 11.114 23.301 23.132"/></g></svg>