<svg width="194" viewBox="0 0 280 40" xmlns="http://www.w3.org/2000/svg"><path d="M38.975 34.103c-.05-.95-.125-1.925-.175-2.875-.025-.725-.075-1.45-.1-2.175-.45-7.45-.9-13.325-1.35-20.775-.425-4.475-.8-6.3-1.425-7.05C35.3.403 34.35.303 32.15.453c-.675.05-1.3.1-1.75.45-.85.625-1.875 4.1-2.425 5.5-1.75 4.85-3.475 9.7-5.2 14.55-.725 1.875-1.325 3.8-2.075 5.65-.35.85-.675 1.85-1.675 2.025-.875.15-1.25-.625-1.475-1.15-.375-1.7-.7-3.525-1.075-5.6-.775-4.725-1.575-9.45-2.35-14.2-.275-1.675-.775-4.85-1.475-5.425-.55-.625-3.075-.9-4.4-.5-1.9.575-1.95 3.9-2.6 6.325C4.4 14.278.475 33.453.075 35.253c-.175.85-.05 1.8.45 2.175.625.475 1.725.375 2.3-.075.8-.6 1.05-2.725 1.35-4.2 1.025-5.2 2.15-12.025 3.025-17.15.4-1.8.55-4.325 2.025-4.225 1.5.075 1.55 2.65 2.175 5.75.1.675 1.375 7.175 2.05 10.775.425 2.1.675 3.925 1.4 5.4.7 1.35 2.5 2.375 4.325 1.6 2.025-.825 2.625-3.55 3.425-5.575 1.925-4.975 3.825-9.95 5.75-14.925l1.95-5.175c.225-.575.6-1.4 1.5-1.375 1.65-.15 1.825 3.275 2.1 7.55.225 6.375.45 11.225.675 17.6.125 2.9-.25 5.575 2.375 5.6.3 0 .525 0 .775-.075 1.55-.5 1.375-2.6 1.25-4.825zm67.925-22.4c-.85.125-1.275.5-1.525 1.325-.325 1.2.775 2.525 2.025 2.325 2.225-.4 2.15-3.775-.5-3.65zm-9.775 20.75c-.25.55-.875.825-1.55.95-1.375.25-3.4-.725-2.825-2.175.375-.95 1.8-1.5 2.3-1.525.375-.075.6 0 .825.075.75.325 1.75 1.575 1.25 2.675zm-15.8 1.25c-1.4.4-3.65-.425-3.275-1.9.275-1.1 1.75-1.775 2.375-1.775 1.975.025 2.95 3.1.9 3.675zm85-5.325c1.125-3.625-1.35-6.475-3.75-7.425-1.8-.725-4.875-.75-6.675-.025-.35.15-1.575.7-1.3 1.225.15.275.7.2 1.025.125.9-.2 2.125-.475 3.25-.275 2.625.475 4.975 2.325 3.95 5.675-.15.5-.4 1-.65 1.4-1.075 1.625-4.45 3.525-7.425 2.65-1.8-.525-3.2-1.7-3.725-3.475-.4-1.325-.375-3.5-.15-5.025.175-.925-.1-1.6-.8-1.45-.95.225-1.4 2.875-1.775 3.825-.95 2.4-2.325 4.95-5.175 5.425-1.3.225-1.975-1.1-2.3-1.9-.775-1.85-1-4.2-1.5-6.325-.25-1.1-.35-2.3-1.475-2.525-.875-.175-1.55.4-1.9.85-1 1.275-1.6 3-2.575 4.325-.375.5-1.025 1.3-2.025 1.1-1.775-.325-2.1-2.8-2.7-4.325-.25-.625-.675-2-1.65-1.8-1.75.325-2.325 3.875-3.075 5.375-.325.65-1 1.7-2.15 1.225-2.025-.85-.875-5.925-3.125-6.475-1.35-.325-2.2 1.35-2.65 2.275-.85 1.8-1.75 3.925-2.875 5.65-.5.725-1.1 1.55-2.125 1.75-1.2.225-1.7-.95-2.025-1.7-.65-1.55-.9-3.425-1.25-5.3-.225-1.15-.125-2.275-.95-2.775-1.2-.75-2.1.625-2.75 1.15-1.4 1.1-2.925 1.95-4.525 2.875-.45.275-1.375.925-2.15.775-.9-.15-1.4-.85-2-1.325-1.125-.9-2.175-1.875-3.225-2.875-.575-.55-1.3-1.65-2.25-1.6-.275.05-.425.1-.625.2-.7.45-1.025 1.45-1.475 2.175-.7 1.125-2.925 3.525-4.375 3.775-.95.175-1.675-.8-2.1-1.225-1.4-1.4-2.6-2.75-4.475-3.7-.675-.35-2.05-.975-2.975-.4-.725.45-.75 2.575-1.05 3.5-.9 2.55-2.3 5.35-4.225 6.875-.7.55-1.7 1.475-3.125 1.125-2.425-.6-2.95-3.525-3.55-6.15-.275-1.3-.375-3.5-1.4-3.725-.825-.2-1 .65-1.1 1.25-.125.7-.075 1.25-.075 2.3-.025.425-.025.875-.05 1.3-.075 1.075-.175 1.65-.475 2.3-.85 2-3.9 4.15-7.125 3.65-.725-.1-1.3-.225-1.875-.45-1.775-.7-2.825-2.05-3.15-4.2-.1-.675.075-1.4.225-1.85.8-2.3 3.075-3.2 5.525-3.275.925-.15 3.675.275 4-.35.225-.575-.825-1.05-1.175-1.2-1.4-.7-3.85-1.175-5.85-.7-2.75.65-4.975 2.225-6 4.575-1.325 3.025.55 6.625 2.3 8.025 2.2 1.75 5.775 2.675 9.425 1.6 1.825-.55 3.2-1.55 5.15-1.9.5-.075 1.05.05 1.375.15 1.8.55 3.475 2.7 5.925 1.95.8-.25 1.5-.65 2.125-1.075 1.625-1.15 2.95-2.8 3.8-4.7.525-1.2.95-2.7 1.625-3.775.4-.65 1.275-1.05 2.15-.55.375.2.7.475 1 .75.275.25.6.525.775.9.225.475.1 1.025-.175 1.35-.275.35-.775.6-1.15.875-.7.5-1.4 1.125-1.9 1.825-1.2 1.6-.975 3.125.65 4.1 2.55 1.5 8.65 1.775 9.425-1.45.275-1.2-.3-2.4-.625-3.175-.175-.4-.55-.95-.375-1.6.175-.675.825-1.025 1.325-1.4l3.15-2.625c.475-.375 1.05-.425 1.625-.2.475.175.825.525 1.2.8.425.325 1.5 1.1 1.325 1.975-.125.575-.625.875-1.05 1.175-1.125.8-4.15 3.25-2.475 5.175.3.35.725.65 1.15.9.75.45 1.7.75 2.675.95 2.975.65 6.25-.125 6.85-2.45.575-2.25-2.3-4-.1-5.45.375-.2.775-.4 1.15-.6.5-.225 1.125-.65 1.925-.5 1.425.275 1.55 1.85 2.025 3.05.75 1.9 2.025 5.125 3.95 5.725 1 .3 1.85-.3 2.375-.7 1.525-1.175 2.55-2.95 3.7-4.5.375-.525 1.2-1.8 2.2-1.6 1.675.3 1.825 3.675 2.3 5.25.2.65.45 1.425 1.125 1.6.95.25 1.575-1.15 1.85-1.75.75-1.7 1.725-5.475 3.45-5.95.8-.225 1.35.275 1.65.725.9 1.35.65 4.025 1.225 5.675.225.625.7 1.575 1.675 1.375 1.125-.225 1.4-1.8 1.725-2.85.575-1.775 1.175-3.95 2.975-4.475 1.325-.4 1.8.825 2.125 1.625.775 1.975 1.1 4.75 3.025 5.55.95.4 2.2.05 2.9-.325 1.7-.875 2.625-2.425 4.825-2.8.625-.1 1.175.175 1.55.35 1.075.55 1.9 1.325 2.925 1.925 2.9 1.7 6.825.925 9.175-.65 1.75-1.2 3.25-2.925 3.95-5.175zm50.625-5.225c.3-1.175.55-3.325.475-5.025-.125-1.65-.3-2.975-.55-3.925-.45-1.8-1-3.45-1.85-4.875-3.5-5.95-9.55-9.45-19.325-9.325-.575 0-.825.025-1.425.075-1.025.1-1.75.225-2.625.35-2.95.525-6.275 1.1-8.975 2.15-.925.35-1.85.625-2.65 1.075-.275.15-.775.4-.675.875.15.75 1.35.425 1.925.275 1.65-.425 3.975-1.3 4.05.9.15 3.85.275 7.7.425 11.55l.075 3.45.075 4.55v1.35c.025 1.775-.1 4.3 1.2 4.825.725.3 1.15-.35 1.35-.8.45-1.05.55-1.975.65-3.75.025-.4.025-.825.05-1.225l.075-3.925c.05-2.7.075-5.425.125-8.125.025-1.35.025-2.725.05-4.075v-3.55c0-.55-.025-1.125.075-1.6.1-.45.325-.8.675-1.025.825-.5 4.3-.7 6.025-.525 1.25.15 2.15.325 3.175.575 3.7.95 6.875 2.675 8.925 5.275 1.125 1.425 2.1 3.05 2.725 4.975.35 1.1.6 2.025.725 3.2.35 3.05-.175 6.55-.925 8.45-2.375 6.1-6.9 8.95-13.85 10.475-1.225.275-2.525.35-3.425.4-.5.025-1 .025-1.5.05h-1.6c-.65-.025-1.225-.025-1.95-.075-1.55-.125-4.05-.45-5.55-.65-.6-.075-1.625-.325-1.9-.125-.05.025-.075.075-.075.175.05.35 1.025.65 1.55.875 1.45.575 3.025.875 4.725 1.225 8.675 1.775 17.475-.65 22.375-4.125 3.55-2.425 6.125-5.6 7.35-10.375zm52.275-11.8c-.85.125-1.275.5-1.525 1.325-.325 1.2.775 2.525 2.025 2.325 2.225-.4 2.125-3.775-.5-3.65zm-13.55 6.675v4.1c-.025 1.4-.075 3.35-.425 4.775-.35 1.375-.975 2.375-1.725 3.3-.6.75-1.65 1.725-3.1 1.375-3.825-.95-3.325-5.975-3.325-10.7 0-1.325-.075-4.35.45-5.05.725-.95 3.95-.85 5.25-.95.35-.025.775 0 1.125-.025 2 .025 1.75 1.325 1.75 3.175zm23.9 14.575c0-.05-.025-.075-.075-.125-.4-.3-1.925.375-2.65.5-2.45.4-4.2-1.425-4.85-2.925-.475-1.075-.575-2.45-.825-4.075-.1-.65-.15-1.65-.2-2.525-.075-1.125-.025-2.95-1.3-3.2-1.925-.35-1.625 2.925-1.85 4.925-.275 2.875-1.25 5.35-3.75 6.325-1.3.5-2.725.575-3.75-.225-1.775-1.4-1.7-4.15-1.7-7.3-.025-1.45-.025-2.9-.05-4.35 0-1.225-.275-3.65.225-4.425.65-1 2.825-.425 4-.925.325-.15.775-.45.65-1.05-.35-1.65-3.325-.45-4.45-1.325-1.375-1.05.4-5.275-1.475-6.05-.6-.25-1.175.125-1.425.45-.6.775-.425 2.45-.425 3.8 0 .55 0 1.05-.15 1.45-.125.3-.4.55-.7.675-.475.2-1.025.175-1.7.175l-2.925.075c-.625 0-1.35.1-1.9-.05-2.45-.625.4-6.625-2.625-6.65-.675.1-.9.375-1.1.95-.5 1.375.225 3.7-.35 5.025-.575 1.375-3 .4-3.9 1.75-.125.175-.275.475-.2.825.375 1.925 3.2.675 3.975 1.9.5.775.325 3.1.3 4.325-.1 3.9-.125 6.575-1.575 8.95-.325.525-.65 1.05-1.1 1.425-.375.3-.8.6-1.275.8-.575.225-1.475.3-2.1.075-2.35-.825-2.4-4.95-2.525-7.975-.1-1.55.225-3.375-1.275-3.625-1.675-.275-1.825 2.475-2.125 3.8-.65 2.925-2.375 7.25-5.325 7.875-1.825.375-2.85-.925-3.175-2.225-.15-.65-.175-1.3-.2-2.25.075-1.35.275-3.075.35-4.125.15-2.225-.3-3.375-1.625-3.125-1.15.225-1.225 1.5-1.525 2.85-.75 3.7-.45 9.375 1.775 11.15.45.35.95.675 1.525.9 2.525.9 5.125-.575 6.55-1.625.7-.525 1.675-1.375 3-1.05 1.9.475 2.5 2.35 4.55 2.75 1.05.225 1.95-.25 2.575-.625 1.125-.7 2-1.525 3.575-1.775.85-.15 1.575.275 2.075.525 1.2.65 2.15 1.525 3.7 1.8.875.15 1.625-.225 2.1-.5 1.15-.675 2.05-1.65 3.575-1.9.8-.125 1.45.25 1.9.5 1.05.65 1.825 1.575 3.2 1.9 2.475.575 4.925-1.625 6.525-2.325.7-.3 1.675-.3 2.3.075.625.375 1.15.925 1.75 1.325 1.1.775 3.1 1.325 4.95.875a5.578 5.578 0 0 0 1.525-.625c.35-.275 1.625-1.175 1.5-1.775z"/></svg>