<svg id="Layer_1" xmlns="http://www.w3.org/2000/svg" xmlns:xlink="http://www.w3.org/1999/xlink" viewBox="0 0 525.3 40.7"><style>.st0{clip-path:url(#SVGID_2_)}.st1{clip-path:url(#SVGID_4_)}.st2{clip-path:url(#SVGID_6_)}.st3{clip-path:url(#SVGID_8_)}.st4{clip-path:url(#SVGID_10_)}.st5{clip-path:url(#SVGID_12_)}.st6{clip-path:url(#SVGID_14_)}.st7{clip-path:url(#SVGID_16_)}.st8{clip-path:url(#SVGID_18_)}.st9{clip-path:url(#SVGID_20_)}.st10{clip-path:url(#SVGID_22_)}.st11{clip-path:url(#SVGID_24_)}.st12{clip-path:url(#SVGID_26_)}.st13{clip-path:url(#SVGID_28_)}.st14{clip-path:url(#SVGID_30_)}.st15{clip-path:url(#SVGID_32_)}</style><defs><path id="SVGID_1_" d="M.1-.1h525.2v40.6H.1z"/></defs><clipPath id="SVGID_2_"><use xlink:href="#SVGID_1_" overflow="visible"/></clipPath><path class="st0" d="M5.4 4.8C4.2 1.7 2.8 1 .1 1V.2H12V1c-2.1.1-2.7.4-2.7 1.2 0 1.1.5 2 11.9 32L32.4 6c.5-1.4 1.1-2.8 1.1-3.7 0-1.2-1.6-1.2-2.8-1.3V.2h10l-.1.8c-3 .2-3.9 1-5 3.8L20.9 39.5c-.3.7-.5.9-.8.9s-.6-.3-.8-.8L5.4 4.8z"/><defs><path id="SVGID_3_" d="M.1-.1h525.2v40.6H.1z"/></defs><clipPath id="SVGID_4_"><use xlink:href="#SVGID_3_" overflow="visible"/></clipPath><path class="st1" d="M58.2 40H46.3v-.8h.2c3.2 0 3.2-2.1 3.2-6.3V11c0-4.2-.5-4.8-3.6-5v-.8H57v.9c-3.4 0-3.4.9-3.4 6.3v20.5c0 5.1.3 6.3 4.5 6.3.1-.1.1.8.1.8z"/><defs><path id="SVGID_5_" d="M.1-.1h525.2v40.6H.1z"/></defs><clipPath id="SVGID_6_"><use xlink:href="#SVGID_5_" overflow="visible"/></clipPath><path class="st2" d="M95 33.6c-1.8 4.1-5.8 6.8-12.1 6.8-10.9 0-17.6-7.5-17.6-17.8 0-9.6 6.8-18 18.2-18 3.4 0 6.6.7 10.2 2.1.5.2.7.3.7.8l-.3 7h-.8c-.1-2-.5-4.3-2-5.5-2.1-1.7-4.5-2.6-8.6-2.6-9.2 0-13.3 7-13.3 15.4s4.5 17 13.9 17c5.3 0 8.8-2 10.6-5.4.4-.8.5-.9.9-.8.5 0 .5.3.2 1"/><defs><path id="SVGID_7_" d="M.1-.1h525.2v40.6H.1z"/></defs><clipPath id="SVGID_8_"><use xlink:href="#SVGID_7_" overflow="visible"/></clipPath><path class="st3" d="M131.1 11.1h-.8c-.3-2.7-.5-3.6-4.7-3.6H119v25.7c0 5.4.6 6 4.4 6v.9h-11.9v-.8c3 0 3.4-1.4 3.4-5V7.6h-5.7c-4.6 0-5.6.1-5.7 3.6h-.9l-.2-5.8s4.7.3 6.7.3h15.8c2.7 0 5 0 6.3-.2h.1l-.2 5.6z"/><defs><path id="SVGID_9_" d="M.1-.1h525.2v40.6H.1z"/></defs><clipPath id="SVGID_10_"><use xlink:href="#SVGID_9_" overflow="visible"/></clipPath><path class="st4" d="M154.5 6.3c-7.6 0-13.3 5-13.3 15.1 0 10.6 6.4 17.5 14.6 17.5 4.1 0 12.6-2.3 12.6-15.6.1-11.1-6.6-17-13.9-17m.1 34.2c-12.5 0-17.7-9.8-17.7-18 0-7.4 5.4-17.8 18-17.8 10.3 0 17.9 6.5 17.9 17.1 0 10.3-7.2 18.7-18.2 18.7"/><defs><path id="SVGID_11_" d="M.1-.1h525.2v40.6H.1z"/></defs><clipPath id="SVGID_12_"><use xlink:href="#SVGID_11_" overflow="visible"/></clipPath><path class="st5" d="M192.7 22.8c4.2 0 6.8-3.1 6.8-8 0-5.1-3.1-8-7.9-8-2.6 0-3.4 0-3.4.8v14.1c0 .5.1.6.8.8.3.1 2.5.3 3.7.3M211.3 40h-4c-4.8 0-6.6-3.2-9.1-7.4-2.2-3.4-4.4-8.3-7.5-8.5l-2.1-.1c-.2 0-.3 0-.3.4v9c0 5.4 1 5.7 4.5 5.7v.9h-11.7v-.8c2.7-.1 3.4-.5 3.4-5.7V9.4c0-2.5-1.5-3.2-4-3.2v-.9h12.1c6.5 0 10.9 2.9 10.9 8.5 0 4.5-3.7 8.4-7.7 9.7 3.4 1.3 6.3 9.1 9.1 12.1 2.9 3.1 4.1 3.5 6.5 3.5l-.1.9z"/><defs><path id="SVGID_13_" d="M.1-.1h525.2v40.6H.1z"/></defs><clipPath id="SVGID_14_"><use xlink:href="#SVGID_13_" overflow="visible"/></clipPath><path class="st6" d="M230.5 40h-11.9v-.8h.2c3.2 0 3.2-2.1 3.2-6.3V11c0-4.2-.5-4.8-3.6-5v-.8h10.9v.9c-3.4 0-3.4.9-3.4 6.3v20.5c0 5.1.3 6.3 4.5 6.3v.8h.1z"/><defs><path id="SVGID_15_" d="M.1-.1h525.2v40.6H.1z"/></defs><clipPath id="SVGID_16_"><use xlink:href="#SVGID_15_" overflow="visible"/></clipPath><path class="st7" d="M257.7 24.5L253.3 12c-.1-.3-.2-.5-.3-.5s-.2.2-.3.5l-4.1 12.3v.1c0 .1.1.1.2.1h8.9c-.1.1 0 .1 0 0m2.5 14.7c1.7-.1 2.4-.5 2.4-1.1 0-.5 0-.7-.5-1.9l-3.6-9.6c-.1-.2-.2-.3-.4-.3h-9.8c-.2 0-.4.1-.5.4l-2.5 7.4c-.3.8-.9 2.7-.9 3.7s1 1.4 2.8 1.4v.9h-10l.1-.8c3-.2 3.9-1.3 5-4.2l10.5-28.6c.6-1.5.7-1.6 1-1.6.2 0 .4.2 1 1.6l11 28.2c1 2.8 2.2 4.5 5.3 4.5l.1.9h-11v-.9z"/><defs><path id="SVGID_17_" d="M.1-.1h525.2v40.6H.1z"/></defs><clipPath id="SVGID_18_"><use xlink:href="#SVGID_17_" overflow="visible"/></clipPath><path class="st8" d="M271.6 10.1c1.2-.1 1.9-1.9 2-2.5.2-.7.3-1.2.2-1.7-.2-.6-.7-.8-1.3-1.1-.3-.2-.5-.3-.8-.6-.3-.5-.4-.9-.3-1.5.2-.9 1.1-1.3 2-1.1 1.5.3 2.3 2 2.1 4.5-.1.9-.8 4.5-3.9 4.7v-.7z"/><defs><path id="SVGID_19_" d="M.1-.1h525.2v40.6H.1z"/></defs><clipPath id="SVGID_20_"><use xlink:href="#SVGID_19_" overflow="visible"/></clipPath><path class="st9" d="M292.7 40.5c-2.8 0-5.4-.1-8.3-1.9V32h.9c.1 5.1 3.6 6.9 7.8 6.9 4.7 0 7.2-3.1 7.2-5.9 0-3.7-2.2-5.9-7.2-9-6.6-4.2-8.3-7.3-8.3-10.7 0-4.8 3.7-8.5 9.7-8.5 3.2 0 5.5.6 7.5 1.4v5.5h-.9c-.2-1-.3-1.9-.9-2.9-.3-.5-1.7-2.4-6.3-2.4-3.6 0-6.2 2.3-6.2 5.5 0 3.1 2.3 5 7.8 8.5 5.3 3.5 7.9 7 8 10.6.1 5.6-4.3 9.5-10.8 9.5"/><defs><path id="SVGID_21_" d="M.1-.1h525.2v40.6H.1z"/></defs><clipPath id="SVGID_22_"><use xlink:href="#SVGID_21_" overflow="visible"/></clipPath><path class="st10" d="M332.3 38.4v-7.1h1c.4 6 4.4 7.8 9.2 7.8 5.5 0 8.5-3.6 8.5-7.2 0-4.2-2.7-6.8-8.3-10.3-7.5-4.8-9.4-8.5-9.4-12 0-5.5 4.2-9.6 11.4-9.6 3.9 0 8.3 1.5 8.3 1.5v5.9h-1c-.2-1-.4-2.1-1-3.1-.4-.6-2-2.9-7.4-2.9-4.3 0-7.4 2.7-7.4 6.6 0 3.7 2.8 5.9 9 10 6 4 9 7.9 9 12 0 10.1-10.1 10.7-12.6 10.7-6.1-.1-9.3-2.3-9.3-2.3"/><defs><path id="SVGID_23_" d="M.1-.1h525.2v40.6H.1z"/></defs><clipPath id="SVGID_24_"><use xlink:href="#SVGID_23_" overflow="visible"/></clipPath><path class="st11" d="M386.3 33.9l-.1 6.1h-23.1v-.9c2.4 0 3.4-.6 3.4-5.1V9.2c0-2.2-1.5-3-4.1-3v-.9c1.9.1 4.6.2 7.1.2h9.9c1 0 5.6-.1 5.6-.2l-.1 5.9h-.9c-.2-3.6-2.3-3.9-6.5-3.9h-6.7c-.5 0-.5.1-.5.5v12.5c0 .2 0 .5.3.5h8.2c1.5 0 2.1-.5 2.4-1.9h.9v7.3h-.9c-.1-1.6-.1-3.1-2.7-3.4-1.4-.1-7-.2-7.8-.2-.2 0-.3.1-.3.3v13.2c.1 2.4.1 2.4 6.1 2.4 1.9 0 6.1 0 7.1-.5 1.4-.7 1.8-1.9 2-3.9l.7-.2z"/><defs><path id="SVGID_25_" d="M.1-.1h525.2v40.6H.1z"/></defs><clipPath id="SVGID_26_"><use xlink:href="#SVGID_25_" overflow="visible"/></clipPath><path class="st12" d="M423.3 33.6c-1.8 4.1-5.8 6.8-12.1 6.8-10.9 0-17.6-7.5-17.6-17.8 0-9.7 6.8-18 18.2-18 3.4 0 6.6.7 10.2 2.1.5.2.7.3.7.8l-.3 7h-.8c0-2-.5-4.3-2-5.5-2.1-1.7-4.5-2.6-8.6-2.6-9.2 0-13.3 7-13.3 15.4s4.5 17 13.9 17c5.3 0 8.8-2 10.6-5.4.4-.8.5-.9 1-.8.4 0 .4.3.1 1"/><defs><path id="SVGID_27_" d="M.1-.1h525.2v40.6H.1z"/></defs><clipPath id="SVGID_28_"><use xlink:href="#SVGID_27_" overflow="visible"/></clipPath><path class="st13" d="M442.9 22.8c4.2 0 6.8-3.1 6.8-8 0-5.1-3.1-8-7.9-8-2.6 0-3.4 0-3.4.8v14.1c0 .5 0 .6.8.8.2.1 2.5.3 3.7.3M461.5 40h-4c-4.8 0-6.5-3.2-9.1-7.4-2.2-3.4-4.5-8.3-7.5-8.5l-2.1-.1c-.2 0-.3 0-.3.4v9c0 5.4 1 5.7 4.5 5.7v.9h-11.7v-.8c2.7-.1 3.4-.5 3.4-5.7V9.4c0-2.5-1.5-3.2-4-3.2v-.9h12c6.5 0 10.9 2.9 10.9 8.5 0 4.5-3.7 8.4-7.8 9.7 3.5 1.3 6.3 9.1 9.1 12.1 2.9 3.1 4.1 3.5 6.5 3.5v.9h.1z"/><defs><path id="SVGID_29_" d="M.1-.1h525.2v40.6H.1z"/></defs><clipPath id="SVGID_30_"><use xlink:href="#SVGID_29_" overflow="visible"/></clipPath><path class="st14" d="M490.1 33.9L490 40h-23.1v-.9c2.4 0 3.4-.6 3.4-5.1V9.2c0-2.2-1.5-3-4.1-3v-.9c1.9.1 4.6.2 7.1.2h9.8c1 0 5.6-.1 5.6-.2l-.1 5.9h-.9c-.2-3.6-2.3-3.9-6.5-3.9h-6.7c-.5 0-.5.1-.5.5v12.5c0 .2 0 .5.3.5h8.2c1.5 0 2.1-.5 2.4-1.9h.9v7.3h-.9c-.1-1.6-.2-3.1-2.7-3.4-1.4-.1-7-.2-7.8-.2-.2 0-.3.1-.3.3v13.2c.1 2.4.1 2.4 6.1 2.4 1.9 0 6.1 0 7.1-.5 1.4-.7 1.8-1.9 2-3.9l.8-.2z"/><defs><path id="SVGID_31_" d="M.1-.1h525.2v40.6H.1z"/></defs><clipPath id="SVGID_32_"><use xlink:href="#SVGID_31_" overflow="visible"/></clipPath><path class="st15" d="M525.1 11.1h-.8c-.3-2.7-.5-3.6-4.7-3.6H513v25.7c0 5.4.6 6 4.4 6v.9h-11.8v-.8c3 0 3.3-1.4 3.3-5V7.6h-5.7c-4.6 0-5.6.1-5.7 3.6h-.9l-.2-5.8s4.7.3 6.8.3H519c2.7 0 5 0 6.3-.2l-.2 5.6z"/></svg>