<svg width="270" height="200" viewBox="0 0 270 200" fill="none" xmlns="http://www.w3.org/2000/svg"><rect x=".5" y=".5" width="269" height="199" rx="4.5" fill="#fff" stroke="#647AA1"/><path d="M186.833 101.29l1.097-1.073-1.097-1.072-19.498-19.067-.037-.037-.04-.033a4.294 4.294 0 0 1-1.084-1.395 4.157 4.157 0 0 1-.109-3.401c.223-.545.559-1.04.99-1.456a4.435 4.435 0 0 1 1.518-.956 4.528 4.528 0 0 1 3.549.158 4.38 4.38 0 0 1 1.419 1.084l.042.048.045.044 23.624 23.1.005.006c.8.801 1.243 1.87 1.243 2.977a4.217 4.217 0 0 1-1.248 2.983l-23.584 23.061a4.49 4.49 0 0 1-3.007 1.027 4.473 4.473 0 0 1-2.968-1.241 4.222 4.222 0 0 1-1.297-2.842 4.192 4.192 0 0 1 .987-2.896l19.45-19.019zM83.167 99.145l-1.097 1.072 1.097 1.073 19.45 19.019a4.192 4.192 0 0 1 .987 2.896 4.222 4.222 0 0 1-1.297 2.842 4.473 4.473 0 0 1-2.968 1.241 4.49 4.49 0 0 1-3.007-1.027L72.748 103.2l-.005-.005a4.213 4.213 0 0 1-1.243-2.978 4.21 4.21 0 0 1 1.243-2.977l23.59-23.067a4.492 4.492 0 0 1 3.006-1.026c1.12.034 2.18.48 2.968 1.24a4.22 4.22 0 0 1 1.297 2.842 4.194 4.194 0 0 1-.987 2.897l-19.45 19.019zM142.51 52.98l.007-.03.007-.032c.118-.56.351-1.092.687-1.565a4.343 4.343 0 0 1 1.269-1.187 4.495 4.495 0 0 1 1.656-.61 4.538 4.538 0 0 1 1.773.071c.58.14 1.123.393 1.597.742l.886-1.205-.886 1.205a4.31 4.31 0 0 1 1.162 1.283 4.17 4.17 0 0 1 .413 3.305l-.008.026-.007.027-23.627 92.416a4.305 4.305 0 0 1-2.014 2.494 4.525 4.525 0 0 1-3.283.453 4.406 4.406 0 0 1-2.672-1.883 4.173 4.173 0 0 1-.587-3.098L142.51 52.98z" fill="#647AA1" stroke="#fff" stroke-width="3"/></svg>