<svg width="64" height="64" viewBox="0 0 64 64" fill="none" xmlns="http://www.w3.org/2000/svg"><path d="M32 0C14.327 0 0 14.327 0 32c0 17.673 14.327 32 32 32 17.673 0 32-14.327 32-32C64 14.327 49.673 0 32 0zm3.059 34.816a4.23 4.23 0 1 1-5.964-6.002 4.221 4.221 0 0 1 3.65-1.172l11.053-7.475-7.544 11.005a4.22 4.22 0 0 1-1.195 3.644zm24.2-10.947a27.323 27.323 0 0 1 1.083 4.285l.14.861c.038.28.065.554.093.804l.074.696c.02.209.025.351.037.504l.059.899-6.507.164.014-.9c0-.14.008-.325.004-.476l-.015-.48-.017-.562-.055-.68a21.223 21.223 0 0 0-.571-3.43 22.84 22.84 0 0 0-1.535-4.275c-.716-1.516-1.692-3.073-2.912-4.585a22.683 22.683 0 0 0-2.04-2.193c-.366-.362-.767-.69-1.164-1.035-.201-.169-.414-.325-.622-.49a9.725 9.725 0 0 0-.641-.478 23.28 23.28 0 0 0-5.878-3.057c-1.073-.384-2.192-.665-3.329-.897-.571-.099-1.145-.205-1.726-.261-.29-.036-.581-.074-.874-.087l-.438-.03-.22-.016-.11-.008-.055-.004-.027-.001c.009-.001-.06-.001.013-.003-.614-.004-1.284-.036-1.825-.002-.562.005-1.15.06-1.738.11-1.166.134-2.329.32-3.46.617a24.182 24.182 0 0 0-6.354 2.638 9.84 9.84 0 0 0-.717.442c-.233.153-.471.3-.699.458-.448.326-.904.638-1.323.986a24.27 24.27 0 0 0-2.378 2.147c-1.447 1.505-2.653 3.102-3.582 4.691a25.302 25.302 0 0 0-2.106 4.575 24.041 24.041 0 0 0-.976 3.79l-.128.763-.082.678c-.053.421-.093.78-.105 1.073l-.059.9-.013-.9c-.011-.295 0-.657.017-1.083l.027-.688.067-.778a24.48 24.48 0 0 1 .678-3.924c.382-1.496.95-3.158 1.785-4.884.83-1.728 1.95-3.5 3.352-5.216.71-.85 1.48-1.697 2.34-2.487.42-.41.878-.783 1.333-1.172.23-.19.473-.369.711-.555.237-.188.481-.37.734-.54a26.527 26.527 0 0 1 6.716-3.447c1.226-.43 2.5-.746 3.795-1.001.65-.11 1.299-.224 1.986-.288.704-.092 1.288-.107 1.923-.155L33 4.868c.334-.01.666.004 1 .018.667.012 1.33.076 1.996.137 1.324.157 2.643.38 3.925.721a27.44 27.44 0 0 1 7.194 3.028c.277.158.546.328.809.505.263.175.531.343.788.523.507.37 1.019.728 1.493 1.123a27.55 27.55 0 0 1 2.676 2.441c1.63 1.71 2.982 3.522 4.024 5.323a28.554 28.554 0 0 1 2.355 5.182z" fill="#000"/></svg>