<svg width="22" height="22" viewBox="0 0 22 22" fill="none" xmlns="http://www.w3.org/2000/svg"><g clip-path="url(#a)"><path fill-rule="evenodd" clip-rule="evenodd" d="M20.758 9.758c-.573 0-1.056.39-1.199.92h-3.32a5.197 5.197 0 0 0-.155-.989h1.453a.322.322 0 0 0 .228-.094l.93-.93a1.243 1.243 0 0 0 1.861-1.075c0-.686-.556-1.242-1.24-1.242a1.243 1.243 0 0 0-1.076 1.86l-.837.837h-1.53a5.287 5.287 0 0 0-.186-.41.322.322 0 1 0-.575.291A4.61 4.61 0 0 1 11 15.604 4.61 4.61 0 0 1 6.395 11 4.61 4.61 0 0 1 11 6.395c1.31 0 2.56.56 3.434 1.538a.322.322 0 1 0 .48-.43 5.255 5.255 0 0 0-.428-.426V5.495l.837-.836a1.243 1.243 0 0 0 1.861-1.075 1.243 1.243 0 1 0-2.317.62l-.93.93a.322.322 0 0 0-.095.228v1.226a5.261 5.261 0 0 0-1.16-.56V4.631a1.243 1.243 0 0 0-.322-2.44 1.243 1.243 0 0 0-.323 2.44v1.224a5.234 5.234 0 0 0-2.074-.001V2.44A1.243 1.243 0 0 0 9.641 0a1.241 1.241 0 0 0-.322 2.44v3.586a5.23 5.23 0 0 0-1.161.562V5.362a.322.322 0 0 0-.094-.228l-.931-.931a1.243 1.243 0 0 0-1.075-1.861 1.243 1.243 0 1 0 .62 2.317l.835.836V7.08A5.271 5.271 0 0 0 6.13 9.045H4.597l-.837-.836a1.243 1.243 0 0 0-1.075-1.861c-.685 0-1.242.557-1.242 1.241a1.243 1.243 0 0 0 1.861 1.075l.931.931c.06.06.143.095.228.095h1.453a5.26 5.26 0 0 0-.155.988h-3.32a1.244 1.244 0 0 0-1.2-.92 1.243 1.243 0 1 0 1.199 1.564h3.321c.02.34.073.67.155.989H4.463a.322.322 0 0 0-.228.094l-.93.93a1.243 1.243 0 0 0-1.861 1.075c0 .686.556 1.243 1.24 1.243a1.243 1.243 0 0 0 1.076-1.861l.837-.837h1.532a5.26 5.26 0 0 0 1.384 1.965v1.585l-.836.836a1.243 1.243 0 0 0-1.861 1.075c0 .685.557 1.242 1.241 1.242a1.243 1.243 0 0 0 1.076-1.86l.93-.932a.322.322 0 0 0 .095-.228v-1.227c.36.233.748.422 1.16.562v1.396a1.243 1.243 0 0 0 .322 2.44 1.243 1.243 0 0 0 .323-2.44v-1.223a5.25 5.25 0 0 0 2.074 0v3.413a1.243 1.243 0 0 0 .322 2.44 1.243 1.243 0 0 0 .322-2.44v-3.586a5.23 5.23 0 0 0 1.16-.562v1.227c0 .086.035.168.095.228l.931.93a1.243 1.243 0 0 0 1.075 1.861 1.241 1.241 0 0 0 1.242-1.24 1.243 1.243 0 0 0-1.861-1.076l-.837-.836V14.92a5.272 5.272 0 0 0 1.385-1.965h1.532l.837.836a1.243 1.243 0 0 0 1.076 1.86 1.24 1.24 0 0 0 1.24-1.24 1.243 1.243 0 0 0-1.86-1.075l-.931-.931a.322.322 0 0 0-.228-.095h-1.453a5.26 5.26 0 0 0 .155-.988h3.32A1.243 1.243 0 0 0 22 11c0-.684-.556-1.242-1.24-1.242zm-1.443-2.766a.598.598 0 1 1-.001 1.196.598.598 0 0 1 .001-1.196zm-3.373-4.006a.598.598 0 1 1 0 1.196.598.598 0 0 1 0-1.196zm-4.18.446a.598.598 0 1 1 1.195.002.598.598 0 0 1-1.195-.002zm-2.718-2.19a.598.598 0 1 1 1.195.001.598.598 0 0 1-1.195-.001zM6.057 4.18a.598.598 0 1 1 .002-1.196.598.598 0 0 1-.002 1.196zM2.685 8.186a.598.598 0 1 1 .001-1.195.598.598 0 0 1-.001 1.195zm-1.443 3.411a.598.598 0 1 1 0-1.195.598.598 0 0 1 0 1.195zm1.443 3.41a.598.598 0 1 1 .001-1.195.598.598 0 0 1-.001 1.196zm3.372 4.007a.598.598 0 1 1 .002-1.196.598.598 0 0 1-.002 1.196zm4.181-.446a.598.598 0 1 1-1.195-.002.598.598 0 0 1 1.195.002zm2.718 2.19a.598.598 0 1 1-1.196 0 .598.598 0 0 1 1.196 0zm2.986-2.939a.598.598 0 1 1 0 1.196.598.598 0 0 1 0-1.196zm3.373-4.005a.598.598 0 1 1-.001 1.195.598.598 0 0 1 .001-1.195zm1.443-2.217a.598.598 0 1 1 .001-1.195.598.598 0 0 1 0 1.195zM8.92 14.03a.322.322 0 0 0 .122.439A3.984 3.984 0 0 0 14.982 11 3.987 3.987 0 0 0 11 7.018a3.98 3.98 0 1 0-3.038 6.556.322.322 0 1 0 .491-.417c-.51-.6-.79-1.367-.79-2.157A3.342 3.342 0 0 1 11 7.662 3.342 3.342 0 0 1 14.338 11a3.342 3.342 0 0 1-4.98 2.907.322.322 0 0 0-.439.122zm.587-1.736h.237V9.706h-.237a.322.322 0 0 1 0-.644h.603v-.495a.322.322 0 0 1 .645 0v.495h.301v-.495a.322.322 0 0 1 .645 0v.546a1.042 1.042 0 0 1 .57 1.525 1.22 1.22 0 0 1-.565 2.3h-.005v.494a.322.322 0 0 1-.645 0v-.495h-.301v.495a.322.322 0 0 1-.645 0v-.495h-.605a.322.322 0 1 1 0-.644zm.882 0h1.319a.576.576 0 0 0 0-1.15h-1.319v1.15zm0-1.794h.992a.396.396 0 0 0 0-.793h-.992v.793z" fill="#000"/></g><defs><clipPath id="a"><path fill="#fff" d="M0 0h22v22H0z"/></clipPath></defs></svg>