<svg width="22" height="22" viewBox="0 0 22 22" fill="none" xmlns="http://www.w3.org/2000/svg"><path d="M18.778 3.222c-.11-.11-.223-.219-.337-.323a.313.313 0 0 0-.424.46A10.306 10.306 0 0 1 21.374 11c0 2.772-1.08 5.377-3.039 7.336A10.306 10.306 0 0 1 11 21.374a.431.431 0 0 1-.43-.43v-3.075h.86v2.301a.313.313 0 0 0 .338.312 9.501 9.501 0 0 0 5.959-2.755A9.45 9.45 0 0 0 20.513 11a9.45 9.45 0 0 0-2.786-6.727A9.45 9.45 0 0 0 11 1.487a9.45 9.45 0 0 0-6.727 2.786A9.45 9.45 0 0 0 1.487 11c0 2.54.99 4.93 2.786 6.727a9.51 9.51 0 0 0 4.102 2.421.431.431 0 0 1-.236.828 10.372 10.372 0 0 1-4.474-2.64A10.306 10.306 0 0 1 .626 11c0-2.771 1.08-5.376 3.039-7.335A10.306 10.306 0 0 1 11 .626c2.114 0 4.142.627 5.866 1.814a.313.313 0 0 0 .355-.516A10.919 10.919 0 0 0 11 0C8.062 0 5.3 1.144 3.222 3.222A10.928 10.928 0 0 0 0 11c0 2.938 1.144 5.7 3.222 7.778a10.999 10.999 0 0 0 4.745 2.8 1.058 1.058 0 0 0 1.213-1.53 1.05 1.05 0 0 0-.633-.502 8.882 8.882 0 0 1-3.83-2.262A8.829 8.829 0 0 1 2.112 11c0-2.374.925-4.605 2.603-6.284A8.828 8.828 0 0 1 11 2.113c2.374 0 4.605.925 6.284 2.603A8.828 8.828 0 0 1 19.887 11a8.829 8.829 0 0 1-2.603 6.284 8.88 8.88 0 0 1-5.227 2.54v-2.1a.83.83 0 0 0 .361-.685c0-.095.066-.18.16-.204a4.049 4.049 0 0 0 2.998-3.909V10.61a.658.658 0 0 0 .502-.639v-.868a.659.659 0 0 0-.658-.657h-.418v-3.51a.807.807 0 0 0-.806-.805h-.352a.807.807 0 0 0-.806.806v3.509H8.962v-3.51a.807.807 0 0 0-.806-.805h-.352a.807.807 0 0 0-.806.806v3.509H6.58a.659.659 0 0 0-.658.657v.868a.66.66 0 0 0 .502.639v1.079a.313.313 0 0 0 .626 0v-1.06h7.9v2.298a3.422 3.422 0 0 1-2.534 3.303.84.84 0 0 0-.624.809.204.204 0 0 1-.204.204h-1.175a.198.198 0 0 1-.037-.003l-.011-.003a.204.204 0 0 1-.157-.198.84.84 0 0 0-.624-.81 3.415 3.415 0 0 1-2.526-3.065.313.313 0 1 0-.625.043 4.04 4.04 0 0 0 2.99 3.628.212.212 0 0 1 .159.204.83.83 0 0 0 .361.685v3.22c0 .582.474 1.056 1.057 1.056 2.938 0 5.7-1.144 7.778-3.222A10.928 10.928 0 0 0 22 11c0-2.938-1.144-5.7-3.222-7.778zm-5.114 1.715c0-.1.081-.18.18-.18h.352c.099 0 .18.08.18.18v3.509h-.712v-3.51zm-6.04 0c0-.1.081-.18.18-.18h.352c.099 0 .18.08.18.18v3.509h-.712v-3.51zm-.887 5.066H6.58a.032.032 0 0 1-.032-.032v-.868c0-.017.014-.031.032-.031h8.84c.018 0 .032.014.032.031v.868a.032.032 0 0 1-.032.032H6.737z" fill="#000"/></svg>