<svg width="22" height="22" viewBox="0 0 22 22" fill="none" xmlns="http://www.w3.org/2000/svg"><g clip-path="url(#a)" fill="#000"><path d="M17.125 4.877A8.603 8.603 0 0 0 11 2.34a8.602 8.602 0 0 0-6.123 2.537c-3.376 3.376-3.376 8.87 0 12.246A8.603 8.603 0 0 0 11 19.66a8.604 8.604 0 0 0 6.124-2.537c3.376-3.376 3.376-8.87 0-12.246zM16.68 16.68A7.98 7.98 0 0 1 11 19.033a7.98 7.98 0 0 1-5.68-2.353c-3.132-3.132-3.132-8.228 0-11.36A7.98 7.98 0 0 1 11 2.967a7.98 7.98 0 0 1 5.68 2.353A7.98 7.98 0 0 1 19.034 11a7.98 7.98 0 0 1-2.353 5.68z"/><path d="M17.904 2.436a.313.313 0 1 0-.394.488A10.334 10.334 0 0 1 21.373 11c0 2.77-1.079 5.375-3.038 7.335A10.306 10.306 0 0 1 11 21.373c-1.737 0-3.456-.438-4.97-1.266a.313.313 0 1 0-.3.55A11.013 11.013 0 0 0 11 22c2.938 0 5.7-1.144 7.778-3.222A10.928 10.928 0 0 0 22 11c0-3.342-1.493-6.463-4.096-8.564zm-1.708-1.134A11.02 11.02 0 0 0 11 0C8.062 0 5.3 1.144 3.222 3.222A10.928 10.928 0 0 0 0 11c0 3.306 1.467 6.407 4.026 8.507a.312.312 0 0 0 .44-.044.313.313 0 0 0-.043-.44A10.344 10.344 0 0 1 .627 11c0-2.77 1.079-5.376 3.038-7.335A10.305 10.305 0 0 1 11 .627c1.71 0 3.404.424 4.9 1.228a.313.313 0 1 0 .296-.553z"/><path d="M10.999.928a.314.314 0 0 0-.314.313v.503a.314.314 0 0 0 .627 0v-.503A.313.313 0 0 0 11 .928zm0 19.014a.313.313 0 0 0-.314.314v.503a.313.313 0 0 0 .627 0v-.503a.313.313 0 0 0-.313-.314zm9.759-9.255h-.503a.313.313 0 1 0 0 .626h.503a.313.313 0 1 0 0-.627zm-19.016 0H1.24a.314.314 0 0 0 0 .626h.503a.313.313 0 1 0 0-.627zm16.379-6.809a.314.314 0 0 0-.443 0l-.356.356a.314.314 0 0 0 .444.443l.355-.356a.314.314 0 0 0 0-.443zM4.676 17.323a.314.314 0 0 0-.443 0l-.356.356a.313.313 0 1 0 .443.443l.356-.355a.314.314 0 0 0 0-.444zm13.445.356l-.355-.356a.314.314 0 0 0-.444.444l.356.355a.313.313 0 1 0 .443-.443zM4.678 4.233l-.356-.356a.314.314 0 0 0-.443.444l.356.355a.312.312 0 0 0 .443 0 .314.314 0 0 0 0-.443zm10.368-2.457a.314.314 0 0 0-.413.161l-.202.46a.313.313 0 0 0 .574.253l.202-.461a.314.314 0 0 0-.161-.413zM7.407 19.189a.314.314 0 0 0-.413.161l-.202.46a.313.313 0 1 0 .574.253l.202-.461a.313.313 0 0 0-.16-.413zm12.655-4.556l-.46-.202a.313.313 0 1 0-.252.574l.46.202a.312.312 0 0 0 .413-.16.313.313 0 0 0-.16-.414zM2.65 6.995l-.46-.202a.314.314 0 0 0-.252.574l.46.202a.312.312 0 0 0 .413-.161.314.314 0 0 0-.16-.413zm17.733.345a.314.314 0 0 0-.406-.179l-.469.183a.313.313 0 0 0 .228.584l.469-.183a.313.313 0 0 0 .178-.406zM2.668 14.25a.314.314 0 0 0-.406-.178l-.469.183a.313.313 0 1 0 .228.584l.469-.183a.314.314 0 0 0 .178-.406zm12.169 5.727l-.183-.468a.313.313 0 1 0-.584.228l.183.468a.314.314 0 1 0 .584-.228zM7.927 2.263l-.183-.469a.314.314 0 0 0-.584.228l.183.469a.314.314 0 1 0 .584-.228zm1.968 8.034h1.768c1.176 0 1.823-.658 1.823-1.853 0-1.111-.675-1.749-1.853-1.749H9.895a.322.322 0 0 0-.323.323v2.957c0 .178.145.322.323.322zm.322-2.957h1.416c1.084 0 1.209.63 1.209 1.104 0 .847-.353 1.209-1.179 1.209h-1.446V7.34zm1.535 3.561H9.895a.322.322 0 0 0-.323.323v3.864c0 .178.145.322.323.322h1.857c1.291 0 2.002-.769 2.002-2.165v-.238c0-1.397-.673-2.106-2.002-2.106zm1.357 2.344c0 1.037-.43 1.52-1.357 1.52h-1.535v-3.22h1.535c.964 0 1.357.424 1.357 1.462v.238z"/><path d="M14.139 10.56c.593-.505.924-1.336.924-2.369 0-1.436-.605-2.345-1.8-2.706V5.04a1.017 1.017 0 0 0-2.03 0v.258h-.114V5.04a1.017 1.017 0 0 0-2.032 0v.258h-.733a1.056 1.056 0 0 0-.341 2.054v7.4a1.056 1.056 0 0 0 .341 2.054h.733v.295a1.017 1.017 0 0 0 2.032 0v-.294h.113v.294a1.017 1.017 0 0 0 2.031 0v-.439c.612-.17 1.096-.494 1.44-.964.416-.567.627-1.353.627-2.335v-.282c0-1.455-.561-2.14-1.191-2.52zm.547 2.804c0 1.593-.591 2.486-1.808 2.728a.322.322 0 0 0-.259.316v.694a.372.372 0 0 1-.742 0v-.617a.322.322 0 0 0-.322-.322h-.758a.322.322 0 0 0-.323.322v.617a.371.371 0 0 1-.742 0v-.617a.322.322 0 0 0-.322-.322H8.354a.411.411 0 0 1-.01-.821.322.322 0 0 0 .313-.322V7.085a.322.322 0 0 0-.314-.322.411.411 0 0 1 .01-.82H9.41a.322.322 0 0 0 .322-.323v-.58a.372.372 0 0 1 .742 0v.58c0 .179.144.323.322.323h.759a.322.322 0 0 0 .322-.323v-.58a.372.372 0 0 1 .742 0v.694c0 .15.105.28.252.314 1.07.24 1.547.901 1.547 2.144 0 1.057-.38 1.807-1.071 2.113a.322.322 0 0 0 .014.595c.795.308 1.325.796 1.325 2.181v.283z"/></g><defs><clipPath id="a"><path fill="#fff" d="M0 0h22v22H0z"/></clipPath></defs></svg>