<svg width="34" height="34" viewBox="0 0 34 34" fill="none" xmlns="http://www.w3.org/2000/svg"><g clip-path="url(#a)"><path d="M27.066 5.822c-2.064-3.56-5.729-5.736-9.804-5.82a12.72 12.72 0 0 0-.524 0c-4.075.084-7.74 2.26-9.804 5.82-2.109 3.64-2.167 8.012-.154 11.696l8.43 15.432.012.02A2.03 2.03 0 0 0 17 34a2.03 2.03 0 0 0 1.79-1.05l8.43-15.432c2.013-3.684 1.955-8.056-.154-11.696zM17 15.406a4.787 4.787 0 0 1-4.781-4.781A4.787 4.787 0 0 1 17 5.844a4.787 4.787 0 0 1 4.781 4.781A4.787 4.787 0 0 1 17 15.406z" fill="#008E3F"/></g><defs><clipPath id="a"><path fill="#fff" d="M0 0h34v34H0z"/></clipPath></defs></svg>