<svg width="412" height="286" viewBox="0 0 412 286" fill="none" xmlns="http://www.w3.org/2000/svg"><path d="M193 43.59C126.174-14.296 133.62 3.017 1 3.017" stroke="url(#a)"/><path d="M193 43.59C126.174-14.296 133.62 3.017 1 3.017" stroke="url(#b)"/><path d="M193 43.59C126.174-14.296 133.62 3.017 1 3.017" stroke="url(#c)"/><path d="M235 58.903C171.274 79.216 132.897 39.091.5 39.091" stroke="url(#d)"/><path d="M235 58.903C171.274 79.216 132.897 39.091.5 39.091" stroke="url(#e)"/><path d="M235 58.903C171.274 79.216 132.897 39.091.5 39.091" stroke="url(#f)"/><path d="M203 47.59C177.394-2.8 55.53 11.45 1 11.45" stroke="url(#g)"/><path d="M203 47.59C177.394-2.8 55.53 11.45 1 11.45" stroke="url(#h)"/><path d="M203 47.59C177.394-2.8 55.53 11.45 1 11.45" stroke="url(#i)"/><path d="M145 30.41c-38.5 19.045-86.5-5.82-144-5.82" stroke="url(#j)"/><path d="M145 30.41c-38.5 19.045-86.5-5.82-144-5.82" stroke="url(#k)"/><path d="M145 30.41c-38.5 19.045-86.5-5.82-144-5.82" stroke="url(#l)"/><path d="M98 22.59C55.718 2.396 58.205 7.056 1 7.056" stroke="url(#m)"/><path d="M98 22.59C55.718 2.396 58.205 7.056 1 7.056" stroke="url(#n)"/><path d="M98 22.59C55.718 2.396 58.205 7.056 1 7.056" stroke="url(#o)"/><path d="M196 44.781C82.17 80.733 56.234 29.591 1 29.591" stroke="url(#p)"/><path d="M196 44.781C82.17 80.733 56.234 29.591 1 29.591" stroke="url(#q)"/><path d="M196 44.781C82.17 80.733 56.234 29.591 1 29.591" stroke="url(#r)"/><path d="M275 253.591c-65.656 0-30.136-36.498-30.136-90.998 0-49.092 8.953-144.002-243.864-144.002" stroke="#000" stroke-width="3"/><path d="M275 253.591c-65.656 0-30.136-36.498-30.136-90.998 0-49.092 8.953-144.002-243.864-144.002" stroke="url(#s)" stroke-width="3"/><path d="M30.256 98.981c-17.851 9-8.43 30-29.256 30" stroke="url(#t)"/><path d="M30.256 98.981c-17.851 9-8.43 30-29.256 30" stroke="url(#u)"/><path d="M30.256 98.981c-17.851 9-8.43 30-29.256 30" stroke="url(#v)"/><path d="M186.947 104.981c-33.718 34-143.798 7.5-185.946 7.5" stroke="url(#w)"/><path d="M186.947 104.981c-33.718 34-143.798 7.5-185.946 7.5" stroke="url(#x)"/><path d="M186.947 104.981c-33.718 34-143.798 7.5-185.946 7.5" stroke="url(#y)"/><path d="M122.982 100.981c-57.023 7-79.833 35-121.98 35" stroke="url(#z)"/><path d="M122.982 100.981c-57.023 7-79.833 35-121.98 35" stroke="url(#A)"/><path d="M122.982 100.981c-57.023 7-79.833 35-121.98 35" stroke="url(#B)"/><path d="M151.742 101.981c0 39.5-108.593 39.5-150.74 39.5" stroke="url(#C)"/><path d="M151.742 101.981c0 39.5-108.593 39.5-150.74 39.5" stroke="url(#D)"/><path d="M151.742 101.981c0 39.5-108.593 39.5-150.74 39.5" stroke="url(#E)"/><path d="M116.537 99.481c-57.257 0-42.644-37.5-115.535-37.5" stroke="url(#F)"/><path d="M116.537 99.481c-57.257 0-42.644-37.5-115.535-37.5" stroke="url(#G)"/><path d="M116.537 99.481c-57.257 0-42.644-37.5-115.535-37.5" stroke="url(#H)"/><path d="M76.867 98.981c-57.257 0-2.975-23.5-75.866-23.5" stroke="url(#I)"/><path d="M76.867 98.981c-57.257 0-2.975-23.5-75.866-23.5" stroke="url(#J)"/><path d="M76.867 98.981c-57.257 0-2.975-23.5-75.866-23.5" stroke="url(#K)"/><path d="M169.098 101.98c-28.264-28.5-95.205-18-168.096-18" stroke="url(#L)"/><path d="M169.098 101.98c-28.264-28.5-95.205-18-168.096-18" stroke="url(#M)"/><path d="M169.098 101.98c-28.264-28.5-95.205-18-168.096-18" stroke="url(#N)"/><path d="M223.145 108.481c-32.231-32.5-149.254-55-222.145-55" stroke="url(#O)"/><path d="M223.145 108.481c-32.231-32.5-149.254-55-222.145-55" stroke="url(#P)"/><path d="M223.145 108.481c-32.231-32.5-149.254-55-222.145-55" stroke="url(#Q)"/><path d="M285.623 142.333c0-34-90.246-43.852-284.622-43.852" stroke="#000" stroke-width="3"/><path d="M285.623 142.333c0-34-90.246-43.852-284.622-43.852" stroke="url(#R)" stroke-width="3"/><path d="M220.057 245.092c66.591 53.5 59.171 37.5 191.326 37.5" stroke="url(#S)"/><path d="M220.057 245.092c66.591 53.5 59.171 37.5 191.326 37.5" stroke="url(#T)"/><path d="M220.057 245.092c66.591 53.5 59.171 37.5 191.326 37.5" stroke="url(#U)"/><path d="M178.811 226.092c63.609-20.5 100.418 20.5 232.573 20.5" stroke="url(#V)"/><path d="M178.811 226.092c63.609-20.5 100.418 20.5 232.573 20.5" stroke="url(#W)"/><path d="M178.811 226.092c63.609-20.5 100.418 20.5 232.573 20.5" stroke="url(#X)"/><path d="M199.684 238.091c26.835 49.5 154.552 35.5 211.701 35.5" stroke="url(#Y)"/><path d="M199.684 238.091c26.835 49.5 154.552 35.5 211.701 35.5" stroke="url(#Z)"/><path d="M199.684 238.091c26.835 49.5 154.552 35.5 211.701 35.5" stroke="url(#aa)"/><path d="M268.262 255.091c38.265-18 85.972 5.5 143.122 5.5" stroke="url(#ab)"/><path d="M268.262 255.091c38.265-18 85.972 5.5 143.122 5.5" stroke="url(#ac)"/><path d="M268.262 255.091c38.265-18 85.972 5.5 143.122 5.5" stroke="url(#ad)"/><path d="M314.479 263.091c42.24 19.5 39.756 15 96.905 15" stroke="url(#ae)"/><path d="M314.479 263.091c42.24 19.5 39.756 15 96.905 15" stroke="url(#af)"/><path d="M314.479 263.091c42.24 19.5 39.756 15 96.905 15" stroke="url(#ag)"/><path d="M209.621 240.591c117.778-35.5 144.613 15 201.762 15" stroke="url(#ah)"/><path d="M209.621 240.591c117.778-35.5 144.613 15 201.762 15" stroke="url(#ai)"/><path d="M209.621 240.591c117.778-35.5 144.613 15 201.762 15" stroke="url(#aj)"/><path d="M1 28.5c76.53 0 126.127 39.588 126.127 94.088 0 49.092-10.436 144.003 284.257 144.003" stroke="#000" stroke-width="3"/><path d="M1 28.5c76.53 0 126.127 39.588 126.127 94.088 0 49.092-10.436 144.003 284.257 144.003" stroke="url(#ak)" stroke-width="3"/><path d="M382.191 186.442c17.813-9 8.412-30 29.193-30" stroke="url(#al)"/><path d="M382.191 186.442c17.813-9 8.412-30 29.193-30" stroke="url(#am)"/><path d="M382.191 186.442c17.813-9 8.412-30 29.193-30" stroke="url(#an)"/><path d="M225.84 180.442c33.645-34 143.487-7.5 185.544-7.5" stroke="url(#ao)"/><path d="M225.84 180.442c33.645-34 143.487-7.5 185.544-7.5" stroke="url(#ap)"/><path d="M225.84 180.442c33.645-34 143.487-7.5 185.544-7.5" stroke="url(#aq)"/><path d="M289.666 184.442c56.9-7 79.66-35 121.717-35" stroke="url(#ar)"/><path d="M289.666 184.442c56.9-7 79.66-35 121.717-35" stroke="url(#as)"/><path d="M289.666 184.442c56.9-7 79.66-35 121.717-35" stroke="url(#at)"/><path d="M260.969 183.442c0-39.5 108.358-39.5 150.414-39.5" stroke="url(#au)"/><path d="M260.969 183.442c0-39.5 108.358-39.5 150.414-39.5" stroke="url(#av)"/><path d="M260.969 183.442c0-39.5 108.358-39.5 150.414-39.5" stroke="url(#aw)"/><path d="M296.098 185.942c57.133 0 42.551 37.5 115.285 37.5" stroke="url(#ax)"/><path d="M296.098 185.942c57.133 0 42.551 37.5 115.285 37.5" stroke="url(#ay)"/><path d="M296.098 185.942c57.133 0 42.551 37.5 115.285 37.5" stroke="url(#az)"/><path d="M335.682 186.442c57.133 0 2.968 23.5 75.702 23.5" stroke="url(#aA)"/><path d="M335.682 186.442c57.133 0 2.968 23.5 75.702 23.5" stroke="url(#aB)"/><path d="M335.682 186.442c57.133 0 2.968 23.5 75.702 23.5" stroke="url(#aC)"/><path d="M243.65 183.443c28.203 28.5 94.999 18 167.732 18" stroke="url(#aD)"/><path d="M243.65 183.443c28.203 28.5 94.999 18 167.732 18" stroke="url(#aE)"/><path d="M243.65 183.443c28.203 28.5 94.999 18 167.732 18" stroke="url(#aF)"/><path d="M189.721 176.942c32.161 32.5 148.93 55 221.663 55" stroke="url(#aG)"/><path d="M189.721 176.942c32.161 32.5 148.93 55 221.663 55" stroke="url(#aH)"/><path d="M189.721 176.942c32.161 32.5 148.93 55 221.663 55" stroke="url(#aI)"/><path d="M127.377 143.091c0 34 90.051 43.851 284.006 43.851" stroke="#000" stroke-width="3"/><path d="M127.377 143.091c0 34 90.051 43.851 284.006 43.851" stroke="url(#aJ)" stroke-width="3"/><defs><linearGradient id="a" x1="236.513" y1="-34.201" x2="1.81" y2="-34.201" gradientUnits="userSpaceOnUse"><stop stop-color="#05EAEA"/><stop offset="1" stop-color="#056DEA"/></linearGradient><linearGradient id="b" x1="236.084" y1="-41.588" x2="1.807" y2="-41.588" gradientUnits="userSpaceOnUse"><stop stop-color="#FF9E45"/><stop offset="1" stop-color="#6486FF"/></linearGradient><linearGradient id="c" x1="240.439" y1="8.481" x2=".501" y2="8.481" gradientUnits="userSpaceOnUse"><stop stop-color="#E6B78F"/><stop offset=".505" stop-color="#F8E5D5"/><stop offset="1" stop-color="#7D9CC3"/></linearGradient><linearGradient id="d" x1="237.117" y1="73.167" x2="2.809" y2="73.167" gradientUnits="userSpaceOnUse"><stop stop-color="#05EAEA"/><stop offset="1" stop-color="#056DEA"/></linearGradient><linearGradient id="e" x1="236.689" y1="79.936" x2="2.806" y2="79.936" gradientUnits="userSpaceOnUse"><stop stop-color="#FF9E45"/><stop offset="1" stop-color="#6486FF"/></linearGradient><linearGradient id="f" x1="241.037" y1="34.078" x2="1.502" y2="34.078" gradientUnits="userSpaceOnUse"><stop stop-color="#E6B78F"/><stop offset=".505" stop-color="#F8E5D5"/><stop offset="1" stop-color="#7D9CC3"/></linearGradient><linearGradient id="g" x1="224.932" y1="74.465" x2="1.77" y2="74.465" gradientUnits="userSpaceOnUse"><stop stop-color="#05EAEA"/><stop offset="1" stop-color="#056DEA"/></linearGradient><linearGradient id="h" x1="224.524" y1="81.407" x2="1.768" y2="81.407" gradientUnits="userSpaceOnUse"><stop stop-color="#FF9E45"/><stop offset="1" stop-color="#6486FF"/></linearGradient><linearGradient id="i" x1="228.665" y1="34.309" x2=".526" y2="34.309" gradientUnits="userSpaceOnUse"><stop stop-color="#E6B78F"/><stop offset=".505" stop-color="#F8E5D5"/><stop offset="1" stop-color="#7D9CC3"/></linearGradient><linearGradient id="j" x1="237.126" y1="-36.138" x2="1.812" y2="-36.138" gradientUnits="userSpaceOnUse"><stop stop-color="#05EAEA"/><stop offset="1" stop-color="#056DEA"/></linearGradient><linearGradient id="k" x1="236.696" y1="-43.362" x2="1.81" y2="-43.362" gradientUnits="userSpaceOnUse"><stop stop-color="#FF9E45"/><stop offset="1" stop-color="#6486FF"/></linearGradient><linearGradient id="l" x1="241.063" y1="5.6" x2=".5" y2="5.6" gradientUnits="userSpaceOnUse"><stop stop-color="#E6B78F"/><stop offset=".505" stop-color="#F8E5D5"/><stop offset="1" stop-color="#7D9CC3"/></linearGradient><linearGradient id="m" x1="235.915" y1="70.643" x2="1.808" y2="70.643" gradientUnits="userSpaceOnUse"><stop stop-color="#05EAEA"/><stop offset="1" stop-color="#056DEA"/></linearGradient><linearGradient id="n" x1="235.488" y1="77.712" x2="1.805" y2="77.712" gradientUnits="userSpaceOnUse"><stop stop-color="#FF9E45"/><stop offset="1" stop-color="#6486FF"/></linearGradient><linearGradient id="o" x1="239.831" y1="29.789" x2=".503" y2="29.789" gradientUnits="userSpaceOnUse"><stop stop-color="#E6B78F"/><stop offset=".505" stop-color="#F8E5D5"/><stop offset="1" stop-color="#7D9CC3"/></linearGradient><linearGradient id="p" x1="227.821" y1="-28.075" x2="1.78" y2="-28.075" gradientUnits="userSpaceOnUse"><stop stop-color="#05EAEA"/><stop offset="1" stop-color="#056DEA"/></linearGradient><linearGradient id="q" x1="227.408" y1="-34.989" x2="1.778" y2="-34.989" gradientUnits="userSpaceOnUse"><stop stop-color="#FF9E45"/><stop offset="1" stop-color="#6486FF"/></linearGradient><linearGradient id="r" x1="231.602" y1="11.874" x2=".52" y2="11.874" gradientUnits="userSpaceOnUse"><stop stop-color="#E6B78F"/><stop offset=".505" stop-color="#F8E5D5"/><stop offset="1" stop-color="#7D9CC3"/></linearGradient><linearGradient id="s" x1="344.67" y1="620.463" x2="182.193" y2="620.463" gradientUnits="userSpaceOnUse"><stop stop-color="#E6B78F"/><stop offset=".505" stop-color="#F8E5D5"/><stop offset="1" stop-color="#7D9CC3"/></linearGradient><linearGradient id="t" x1="235.17" y1="19.084" x2="1.806" y2="19.084" gradientUnits="userSpaceOnUse"><stop stop-color="#05EAEA"/><stop offset="1" stop-color="#056DEA"/></linearGradient><linearGradient id="u" x1="234.744" y1="12.254" x2="1.803" y2="12.254" gradientUnits="userSpaceOnUse"><stop stop-color="#FF9E45"/><stop offset="1" stop-color="#6486FF"/></linearGradient><linearGradient id="v" x1="239.074" y1="58.532" x2=".505" y2="58.532" gradientUnits="userSpaceOnUse"><stop stop-color="#E6B78F"/><stop offset=".505" stop-color="#F8E5D5"/><stop offset="1" stop-color="#7D9CC3"/></linearGradient><linearGradient id="w" x1="235.171" y1="19.083" x2="1.806" y2="19.083" gradientUnits="userSpaceOnUse"><stop stop-color="#05EAEA"/><stop offset="1" stop-color="#056DEA"/></linearGradient><linearGradient id="x" x1="234.745" y1="12.256" x2="1.803" y2="12.256" gradientUnits="userSpaceOnUse"><stop stop-color="#FF9E45"/><stop offset="1" stop-color="#6486FF"/></linearGradient><linearGradient id="y" x1="239.074" y1="58.53" x2=".505" y2="58.53" gradientUnits="userSpaceOnUse"><stop stop-color="#E6B78F"/><stop offset=".505" stop-color="#F8E5D5"/><stop offset="1" stop-color="#7D9CC3"/></linearGradient><linearGradient id="z" x1="235.171" y1="19.082" x2="1.807" y2="19.082" gradientUnits="userSpaceOnUse"><stop stop-color="#05EAEA"/><stop offset="1" stop-color="#056DEA"/></linearGradient><linearGradient id="A" x1="234.745" y1="12.256" x2="1.804" y2="12.256" gradientUnits="userSpaceOnUse"><stop stop-color="#FF9E45"/><stop offset="1" stop-color="#6486FF"/></linearGradient><linearGradient id="B" x1="239.075" y1="58.53" x2=".506" y2="58.53" gradientUnits="userSpaceOnUse"><stop stop-color="#E6B78F"/><stop offset=".505" stop-color="#F8E5D5"/><stop offset="1" stop-color="#7D9CC3"/></linearGradient><linearGradient id="C" x1="235.171" y1="25.082" x2="1.807" y2="25.082" gradientUnits="userSpaceOnUse"><stop stop-color="#05EAEA"/><stop offset="1" stop-color="#056DEA"/></linearGradient><linearGradient id="D" x1="234.745" y1="18.258" x2="1.804" y2="18.258" gradientUnits="userSpaceOnUse"><stop stop-color="#FF9E45"/><stop offset="1" stop-color="#6486FF"/></linearGradient><linearGradient id="E" x1="239.075" y1="64.529" x2=".506" y2="64.529" gradientUnits="userSpaceOnUse"><stop stop-color="#E6B78F"/><stop offset=".505" stop-color="#F8E5D5"/><stop offset="1" stop-color="#7D9CC3"/></linearGradient><linearGradient id="F" x1="235.172" y1="-55.417" x2="1.808" y2="-55.417" gradientUnits="userSpaceOnUse"><stop stop-color="#05EAEA"/><stop offset="1" stop-color="#056DEA"/></linearGradient><linearGradient id="G" x1="234.746" y1="-62.245" x2="1.805" y2="-62.245" gradientUnits="userSpaceOnUse"><stop stop-color="#FF9E45"/><stop offset="1" stop-color="#6486FF"/></linearGradient><linearGradient id="H" x1="239.076" y1="-15.971" x2=".507" y2="-15.971" gradientUnits="userSpaceOnUse"><stop stop-color="#E6B78F"/><stop offset=".505" stop-color="#F8E5D5"/><stop offset="1" stop-color="#7D9CC3"/></linearGradient><linearGradient id="I" x1="235.171" y1="-55.417" x2="1.807" y2="-55.417" gradientUnits="userSpaceOnUse"><stop stop-color="#05EAEA"/><stop offset="1" stop-color="#056DEA"/></linearGradient><linearGradient id="J" x1="234.745" y1="-62.242" x2="1.804" y2="-62.242" gradientUnits="userSpaceOnUse"><stop stop-color="#FF9E45"/><stop offset="1" stop-color="#6486FF"/></linearGradient><linearGradient id="K" x1="239.075" y1="-15.97" x2=".505" y2="-15.97" gradientUnits="userSpaceOnUse"><stop stop-color="#E6B78F"/><stop offset=".505" stop-color="#F8E5D5"/><stop offset="1" stop-color="#7D9CC3"/></linearGradient><linearGradient id="L" x1="235.172" y1="-55.416" x2="1.808" y2="-55.416" gradientUnits="userSpaceOnUse"><stop stop-color="#05EAEA"/><stop offset="1" stop-color="#056DEA"/></linearGradient><linearGradient id="M" x1="234.746" y1="-62.245" x2="1.805" y2="-62.245" gradientUnits="userSpaceOnUse"><stop stop-color="#FF9E45"/><stop offset="1" stop-color="#6486FF"/></linearGradient><linearGradient id="N" x1="239.076" y1="-15.968" x2=".506" y2="-15.968" gradientUnits="userSpaceOnUse"><stop stop-color="#E6B78F"/><stop offset=".505" stop-color="#F8E5D5"/><stop offset="1" stop-color="#7D9CC3"/></linearGradient><linearGradient id="O" x1="235.17" y1="-68.917" x2="1.806" y2="-68.917" gradientUnits="userSpaceOnUse"><stop stop-color="#05EAEA"/><stop offset="1" stop-color="#056DEA"/></linearGradient><linearGradient id="P" x1="234.744" y1="-75.744" x2="1.803" y2="-75.744" gradientUnits="userSpaceOnUse"><stop stop-color="#FF9E45"/><stop offset="1" stop-color="#6486FF"/></linearGradient><linearGradient id="Q" x1="239.074" y1="-29.47" x2=".505" y2="-29.47" gradientUnits="userSpaceOnUse"><stop stop-color="#E6B78F"/><stop offset=".505" stop-color="#F8E5D5"/><stop offset="1" stop-color="#7D9CC3"/></linearGradient><linearGradient id="R" x1="400.712" y1="595.294" x2="211.74" y2="595.294" gradientUnits="userSpaceOnUse"><stop stop-color="#E6B78F"/><stop offset=".505" stop-color="#F8E5D5"/><stop offset="1" stop-color="#7D9CC3"/></linearGradient><linearGradient id="S" x1="176.697" y1="316.988" x2="410.576" y2="316.988" gradientUnits="userSpaceOnUse"><stop stop-color="#05EAEA"/><stop offset="1" stop-color="#056DEA"/></linearGradient><linearGradient id="T" x1="177.123" y1="323.814" x2="410.578" y2="323.814" gradientUnits="userSpaceOnUse"><stop stop-color="#FF9E45"/><stop offset="1" stop-color="#6486FF"/></linearGradient><linearGradient id="U" x1="172.784" y1="277.541" x2="411.88" y2="277.541" gradientUnits="userSpaceOnUse"><stop stop-color="#E6B78F"/><stop offset=".505" stop-color="#F8E5D5"/><stop offset="1" stop-color="#7D9CC3"/></linearGradient><linearGradient id="V" x1="176.697" y1="211.697" x2="410.577" y2="211.697" gradientUnits="userSpaceOnUse"><stop stop-color="#05EAEA"/><stop offset="1" stop-color="#056DEA"/></linearGradient><linearGradient id="W" x1="177.124" y1="204.865" x2="410.579" y2="204.865" gradientUnits="userSpaceOnUse"><stop stop-color="#FF9E45"/><stop offset="1" stop-color="#6486FF"/></linearGradient><linearGradient id="X" x1="172.785" y1="251.146" x2="411.881" y2="251.146" gradientUnits="userSpaceOnUse"><stop stop-color="#E6B78F"/><stop offset=".505" stop-color="#F8E5D5"/><stop offset="1" stop-color="#7D9CC3"/></linearGradient><linearGradient id="Y" x1="176.699" y1="211.692" x2="410.578" y2="211.692" gradientUnits="userSpaceOnUse"><stop stop-color="#05EAEA"/><stop offset="1" stop-color="#056DEA"/></linearGradient><linearGradient id="Z" x1="177.125" y1="204.872" x2="410.58" y2="204.872" gradientUnits="userSpaceOnUse"><stop stop-color="#FF9E45"/><stop offset="1" stop-color="#6486FF"/></linearGradient><linearGradient id="aa" x1="172.786" y1="251.137" x2="411.882" y2="251.137" gradientUnits="userSpaceOnUse"><stop stop-color="#E6B78F"/><stop offset=".505" stop-color="#F8E5D5"/><stop offset="1" stop-color="#7D9CC3"/></linearGradient><linearGradient id="ab" x1="176.697" y1="317.987" x2="410.577" y2="317.987" gradientUnits="userSpaceOnUse"><stop stop-color="#05EAEA"/><stop offset="1" stop-color="#056DEA"/></linearGradient><linearGradient id="ac" x1="177.124" y1="324.814" x2="410.579" y2="324.814" gradientUnits="userSpaceOnUse"><stop stop-color="#FF9E45"/><stop offset="1" stop-color="#6486FF"/></linearGradient><linearGradient id="ad" x1="172.785" y1="278.54" x2="411.881" y2="278.54" gradientUnits="userSpaceOnUse"><stop stop-color="#E6B78F"/><stop offset=".505" stop-color="#F8E5D5"/><stop offset="1" stop-color="#7D9CC3"/></linearGradient><linearGradient id="ae" x1="176.698" y1="216.694" x2="410.577" y2="216.694" gradientUnits="userSpaceOnUse"><stop stop-color="#05EAEA"/><stop offset="1" stop-color="#056DEA"/></linearGradient><linearGradient id="af" x1="177.125" y1="209.869" x2="410.579" y2="209.869" gradientUnits="userSpaceOnUse"><stop stop-color="#FF9E45"/><stop offset="1" stop-color="#6486FF"/></linearGradient><linearGradient id="ag" x1="172.785" y1="256.14" x2="411.881" y2="256.14" gradientUnits="userSpaceOnUse"><stop stop-color="#E6B78F"/><stop offset=".505" stop-color="#F8E5D5"/><stop offset="1" stop-color="#7D9CC3"/></linearGradient><linearGradient id="ah" x1="176.697" y1="312.532" x2="410.577" y2="312.532" gradientUnits="userSpaceOnUse"><stop stop-color="#05EAEA"/><stop offset="1" stop-color="#056DEA"/></linearGradient><linearGradient id="ai" x1="177.124" y1="319.359" x2="410.579" y2="319.359" gradientUnits="userSpaceOnUse"><stop stop-color="#FF9E45"/><stop offset="1" stop-color="#6486FF"/></linearGradient><linearGradient id="aj" x1="172.784" y1="273.085" x2="411.88" y2="273.085" gradientUnits="userSpaceOnUse"><stop stop-color="#E6B78F"/><stop offset=".505" stop-color="#F8E5D5"/><stop offset="1" stop-color="#7D9CC3"/></linearGradient><linearGradient id="ak" x1="10.79" y1="-335.286" x2="200.179" y2="-335.286" gradientUnits="userSpaceOnUse"><stop stop-color="#E6B78F"/><stop offset=".505" stop-color="#F8E5D5"/><stop offset="1" stop-color="#7D9CC3"/></linearGradient><linearGradient id="al" x1="177.721" y1="266.34" x2="410.58" y2="266.34" gradientUnits="userSpaceOnUse"><stop stop-color="#05EAEA"/><stop offset="1" stop-color="#056DEA"/></linearGradient><linearGradient id="am" x1="178.146" y1="273.169" x2="410.583" y2="273.169" gradientUnits="userSpaceOnUse"><stop stop-color="#FF9E45"/><stop offset="1" stop-color="#6486FF"/></linearGradient><linearGradient id="an" x1="173.825" y1="226.891" x2="411.878" y2="226.891" gradientUnits="userSpaceOnUse"><stop stop-color="#E6B78F"/><stop offset=".505" stop-color="#F8E5D5"/><stop offset="1" stop-color="#7D9CC3"/></linearGradient><linearGradient id="ao" x1="177.721" y1="266.341" x2="410.58" y2="266.341" gradientUnits="userSpaceOnUse"><stop stop-color="#05EAEA"/><stop offset="1" stop-color="#056DEA"/></linearGradient><linearGradient id="ap" x1="178.146" y1="273.167" x2="410.583" y2="273.167" gradientUnits="userSpaceOnUse"><stop stop-color="#FF9E45"/><stop offset="1" stop-color="#6486FF"/></linearGradient><linearGradient id="aq" x1="173.826" y1="226.893" x2="411.879" y2="226.893" gradientUnits="userSpaceOnUse"><stop stop-color="#E6B78F"/><stop offset=".505" stop-color="#F8E5D5"/><stop offset="1" stop-color="#7D9CC3"/></linearGradient><linearGradient id="ar" x1="177.72" y1="266.341" x2="410.579" y2="266.341" gradientUnits="userSpaceOnUse"><stop stop-color="#05EAEA"/><stop offset="1" stop-color="#056DEA"/></linearGradient><linearGradient id="as" x1="178.145" y1="273.167" x2="410.582" y2="273.167" gradientUnits="userSpaceOnUse"><stop stop-color="#FF9E45"/><stop offset="1" stop-color="#6486FF"/></linearGradient><linearGradient id="at" x1="173.825" y1="226.894" x2="411.878" y2="226.894" gradientUnits="userSpaceOnUse"><stop stop-color="#E6B78F"/><stop offset=".505" stop-color="#F8E5D5"/><stop offset="1" stop-color="#7D9CC3"/></linearGradient><linearGradient id="au" x1="177.72" y1="260.341" x2="410.58" y2="260.341" gradientUnits="userSpaceOnUse"><stop stop-color="#05EAEA"/><stop offset="1" stop-color="#056DEA"/></linearGradient><linearGradient id="av" x1="178.145" y1="267.165" x2="410.582" y2="267.165" gradientUnits="userSpaceOnUse"><stop stop-color="#FF9E45"/><stop offset="1" stop-color="#6486FF"/></linearGradient><linearGradient id="aw" x1="173.825" y1="220.895" x2="411.878" y2="220.895" gradientUnits="userSpaceOnUse"><stop stop-color="#E6B78F"/><stop offset=".505" stop-color="#F8E5D5"/><stop offset="1" stop-color="#7D9CC3"/></linearGradient><linearGradient id="ax" x1="177.719" y1="340.841" x2="410.579" y2="340.841" gradientUnits="userSpaceOnUse"><stop stop-color="#05EAEA"/><stop offset="1" stop-color="#056DEA"/></linearGradient><linearGradient id="ay" x1="178.144" y1="347.668" x2="410.581" y2="347.668" gradientUnits="userSpaceOnUse"><stop stop-color="#FF9E45"/><stop offset="1" stop-color="#6486FF"/></linearGradient><linearGradient id="az" x1="173.824" y1="301.394" x2="411.877" y2="301.394" gradientUnits="userSpaceOnUse"><stop stop-color="#E6B78F"/><stop offset=".505" stop-color="#F8E5D5"/><stop offset="1" stop-color="#7D9CC3"/></linearGradient><linearGradient id="aA" x1="177.721" y1="340.84" x2="410.58" y2="340.84" gradientUnits="userSpaceOnUse"><stop stop-color="#05EAEA"/><stop offset="1" stop-color="#056DEA"/></linearGradient><linearGradient id="aB" x1="178.146" y1="347.666" x2="410.583" y2="347.666" gradientUnits="userSpaceOnUse"><stop stop-color="#FF9E45"/><stop offset="1" stop-color="#6486FF"/></linearGradient><linearGradient id="aC" x1="173.825" y1="301.393" x2="411.878" y2="301.393" gradientUnits="userSpaceOnUse"><stop stop-color="#E6B78F"/><stop offset=".505" stop-color="#F8E5D5"/><stop offset="1" stop-color="#7D9CC3"/></linearGradient><linearGradient id="aD" x1="177.719" y1="340.84" x2="410.579" y2="340.84" gradientUnits="userSpaceOnUse"><stop stop-color="#05EAEA"/><stop offset="1" stop-color="#056DEA"/></linearGradient><linearGradient id="aE" x1="178.144" y1="347.669" x2="410.581" y2="347.669" gradientUnits="userSpaceOnUse"><stop stop-color="#FF9E45"/><stop offset="1" stop-color="#6486FF"/></linearGradient><linearGradient id="aF" x1="173.824" y1="301.392" x2="411.877" y2="301.392" gradientUnits="userSpaceOnUse"><stop stop-color="#E6B78F"/><stop offset=".505" stop-color="#F8E5D5"/><stop offset="1" stop-color="#7D9CC3"/></linearGradient><linearGradient id="aG" x1="177.721" y1="354.341" x2="410.58" y2="354.341" gradientUnits="userSpaceOnUse"><stop stop-color="#05EAEA"/><stop offset="1" stop-color="#056DEA"/></linearGradient><linearGradient id="aH" x1="178.146" y1="361.167" x2="410.583" y2="361.167" gradientUnits="userSpaceOnUse"><stop stop-color="#FF9E45"/><stop offset="1" stop-color="#6486FF"/></linearGradient><linearGradient id="aI" x1="173.826" y1="314.894" x2="411.879" y2="314.894" gradientUnits="userSpaceOnUse"><stop stop-color="#E6B78F"/><stop offset=".505" stop-color="#F8E5D5"/><stop offset="1" stop-color="#7D9CC3"/></linearGradient><linearGradient id="aJ" x1="12.537" y1="-309.871" x2="201.1" y2="-309.871" gradientUnits="userSpaceOnUse"><stop stop-color="#E6B78F"/><stop offset=".505" stop-color="#F8E5D5"/><stop offset="1" stop-color="#7D9CC3"/></linearGradient></defs></svg>