<svg width="646" height="389" viewBox="0 0 646 389" fill="none" xmlns="http://www.w3.org/2000/svg"><rect x="23" y="35" width="4" height="319" rx="2" fill="#DBE2E4" fill-opacity=".2"/><path d="M19.36 378.727v1.187h-7.83v-1.187h7.828zm11.07-5.165V385h-1.446v-9.633l-2.914 1.063v-1.305l4.133-1.563h.227zm11.39 4.844v1.735c0 .932-.083 1.718-.25 2.359-.166.641-.406 1.156-.718 1.547a2.73 2.73 0 0 1-1.133.851 4.03 4.03 0 0 1-1.485.258 4.23 4.23 0 0 1-1.21-.164 2.877 2.877 0 0 1-1-.523 3.186 3.186 0 0 1-.75-.953c-.209-.391-.368-.865-.477-1.422a10.254 10.254 0 0 1-.164-1.953v-1.735c0-.932.083-1.713.25-2.344.172-.63.414-1.135.726-1.515a2.635 2.635 0 0 1 1.125-.828c.443-.167.938-.25 1.485-.25.442 0 .849.054 1.218.164a2.73 2.73 0 0 1 1 .508c.292.229.54.536.743.921.208.381.367.847.476 1.399.11.552.164 1.2.164 1.945zm-1.453 1.969v-2.211a8.5 8.5 0 0 0-.094-1.344 4.23 4.23 0 0 0-.257-1 1.98 1.98 0 0 0-.438-.672 1.566 1.566 0 0 0-.601-.375 2.17 2.17 0 0 0-.758-.125c-.344 0-.649.066-.914.196-.266.125-.49.325-.672.601-.177.276-.313.638-.406 1.086-.094.448-.141.992-.141 1.633v2.211c0 .51.029.961.086 1.352.062.39.154.729.273 1.015.12.281.266.513.438.696.172.182.37.317.594.406.229.083.481.125.757.125.355 0 .664-.068.93-.203a1.68 1.68 0 0 0 .664-.633c.182-.292.318-.664.406-1.117a8.79 8.79 0 0 0 .133-1.641zM8.086 193.406v1.735c0 .932-.083 1.718-.25 2.359-.167.641-.406 1.156-.719 1.547a2.73 2.73 0 0 1-1.133.851 4.03 4.03 0 0 1-1.484.258 4.22 4.22 0 0 1-1.21-.164 2.877 2.877 0 0 1-1-.523 3.184 3.184 0 0 1-.75-.953c-.21-.391-.368-.865-.478-1.422a10.256 10.256 0 0 1-.164-1.953v-1.735c0-.932.084-1.713.25-2.344.172-.63.415-1.135.727-1.515A2.635 2.635 0 0 1 3 188.719c.443-.167.938-.25 1.484-.25.443 0 .85.054 1.22.164a2.76 2.76 0 0 1 1 .508c.29.229.538.536.741.921.209.381.367.847.477 1.399.11.552.164 1.2.164 1.945zm-1.453 1.969v-2.211a8.5 8.5 0 0 0-.094-1.344 4.23 4.23 0 0 0-.258-1 1.98 1.98 0 0 0-.437-.672 1.566 1.566 0 0 0-.602-.375 2.17 2.17 0 0 0-.758-.125c-.343 0-.648.066-.914.196-.265.125-.49.325-.672.601-.177.276-.312.638-.406 1.086-.094.448-.14.992-.14 1.633v2.211c0 .51.028.961.086 1.352.062.39.153.729.273 1.015.12.281.266.513.437.696.172.182.37.317.594.406.23.083.482.125.758.125.354 0 .664-.068.93-.203.265-.136.487-.347.664-.633.182-.292.317-.664.406-1.117a8.787 8.787 0 0 0 .133-1.641zM17.867 8.898v1.36H10.07v-1.36h7.797zm-3.172-3.32v8.281H13.25V5.58h1.445zm9.54-2.016V15h-1.446V5.367L19.875 6.43V5.125l4.133-1.563h.226zm11.39 4.844v1.735c0 .932-.083 1.718-.25 2.359-.167.64-.406 1.156-.719 1.547-.312.39-.69.674-1.133.851a4.032 4.032 0 0 1-1.484.258c-.437 0-.841-.054-1.21-.164a2.877 2.877 0 0 1-1-.523 3.177 3.177 0 0 1-.75-.953c-.21-.391-.368-.865-.477-1.422a10.245 10.245 0 0 1-.165-1.953V8.406c0-.932.084-1.713.25-2.344.172-.63.415-1.135.727-1.515a2.645 2.645 0 0 1 1.125-.828c.443-.167.938-.25 1.484-.25.443 0 .85.054 1.22.164a2.76 2.76 0 0 1 1 .508c.29.229.538.536.741.921.209.38.368.847.477 1.399.11.552.164 1.2.164 1.945zm-1.453 1.969v-2.21c0-.511-.031-.96-.094-1.345a4.223 4.223 0 0 0-.258-1c-.114-.276-.26-.5-.437-.672a1.545 1.545 0 0 0-.602-.375 2.16 2.16 0 0 0-.758-.125 2.05 2.05 0 0 0-.914.196c-.265.125-.49.325-.672.601-.177.276-.312.638-.406 1.086-.093.448-.14.992-.14 1.633v2.211c0 .51.028.96.086 1.352.062.39.153.729.273 1.015.12.281.266.513.438.695.171.183.37.318.593.407.23.083.482.125.758.125.354 0 .664-.068.93-.203.265-.136.487-.347.664-.633.182-.292.317-.664.406-1.117a8.777 8.777 0 0 0 .133-1.641z" fill="#DBE2E4" fill-opacity=".6"/><path stroke="#DBE2E4" stroke-opacity=".2" d="M78 194.5h568m-568 65h568"/><path d="M78 176.5a2.5 2.5 0 1 1 5 0V194h-5v-17.5z" fill="#C4C4C4"/><path d="M78 176.5a2.5 2.5 0 1 1 5 0V194h-5v-17.5z" fill="url(#a)"/><path d="M83 241.5a2.5 2.5 0 1 1-5 0V195h5v46.5z" fill="url(#b)"/><path d="M107 142.5a2.5 2.5 0 1 1 5 0V194h-5v-51.5z" fill="#C4C4C4"/><path d="M107 142.5a2.5 2.5 0 1 1 5 0V194h-5v-51.5z" fill="url(#c)"/><path d="M112 235.5a2.5 2.5 0 1 1-5 0V195h5v40.5z" fill="#C4C4C4"/><path d="M112 235.5a2.5 2.5 0 1 1-5 0V195h5v40.5z" fill="url(#d)"/><path d="M136 170.5a2.5 2.5 0 1 1 5 0V194h-5v-23.5z" fill="#C4C4C4"/><path d="M136 170.5a2.5 2.5 0 1 1 5 0V194h-5v-23.5z" fill="url(#e)"/><path d="M141 351.5a2.5 2.5 0 1 1-5 0V195h5v156.5z" fill="#C4C4C4"/><path d="M141 351.5a2.5 2.5 0 1 1-5 0V195h5v156.5z" fill="url(#f)"/><path d="M165 170.5a2.5 2.5 0 1 1 5 0V194h-5v-23.5z" fill="#C4C4C4"/><path d="M165 170.5a2.5 2.5 0 1 1 5 0V194h-5v-23.5z" fill="url(#g)"/><path d="M170 351.5a2.5 2.5 0 1 1-5 0V195h5v156.5z" fill="#C4C4C4"/><path d="M170 351.5a2.5 2.5 0 1 1-5 0V195h5v156.5z" fill="url(#h)"/><path d="M601 103.5a2.5 2.5 0 1 0-5 0V194h5v-90.5z" fill="url(#i)"/><path d="M596 235.5a2.5 2.5 0 1 0 5 0V195h-5v40.5z" fill="#C4C4C4"/><path d="M596 235.5a2.5 2.5 0 1 0 5 0V195h-5v40.5z" fill="url(#j)"/><path d="M194 218.5a2.5 2.5 0 1 0 5 0V195h-5v23.5z" fill="#C4C4C4"/><path d="M194 218.5a2.5 2.5 0 1 0 5 0V195h-5v23.5z" fill="url(#k)"/><path d="M199 114.5a2.5 2.5 0 1 0-5 0V194h5v-79.5z" fill="#C4C4C4"/><path d="M199 114.5a2.5 2.5 0 1 0-5 0V194h5v-79.5z" fill="url(#l)"/><path d="M572 218.5a2.5 2.5 0 1 1-5 0V195h5v23.5z" fill="#C4C4C4"/><path d="M572 218.5a2.5 2.5 0 1 1-5 0V195h5v23.5z" fill="url(#m)"/><path d="M567 58.5a2.5 2.5 0 1 1 5 0V194h-5V58.5z" fill="url(#n)"/><path d="M223 257.5a2.5 2.5 0 1 0 5 0V195h-5v62.5z" fill="#C4C4C4"/><path d="M223 257.5a2.5 2.5 0 1 0 5 0V195h-5v62.5z" fill="url(#o)"/><path d="M228 160.5a2.5 2.5 0 1 0-5 0V194h5v-33.5z" fill="#C4C4C4"/><path d="M228 160.5a2.5 2.5 0 1 0-5 0V194h5v-33.5z" fill="url(#p)"/><path d="M543 257.5a2.5 2.5 0 1 1-5 0V195h5v62.5z" fill="#C4C4C4"/><path d="M543 257.5a2.5 2.5 0 1 1-5 0V195h5v62.5z" fill="url(#q)"/><path d="M538 75.5a2.5 2.5 0 1 1 5 0V194h-5V75.5z" fill="url(#r)"/><path d="M252 235.5a2.5 2.5 0 1 0 5 0V195h-5v40.5z" fill="#C4C4C4"/><path d="M252 235.5a2.5 2.5 0 1 0 5 0V195h-5v40.5z" fill="url(#s)"/><path d="M257 91.5a2.5 2.5 0 1 0-5 0V194h5V91.5z" fill="#C4C4C4"/><path d="M257 91.5a2.5 2.5 0 1 0-5 0V194h5V91.5z" fill="url(#t)"/><path d="M514 235.5a2.5 2.5 0 1 1-5 0V195h5v40.5z" fill="#C4C4C4"/><path d="M514 235.5a2.5 2.5 0 1 1-5 0V195h5v40.5z" fill="url(#u)"/><path d="M509 91.5a2.5 2.5 0 1 1 5 0V194h-5V91.5z" fill="url(#v)"/><path d="M281 218.5a2.5 2.5 0 1 0 5 0V195h-5v23.5z" fill="#C4C4C4"/><path d="M281 218.5a2.5 2.5 0 1 0 5 0V195h-5v23.5z" fill="url(#w)"/><path d="M286 148.5a2.5 2.5 0 1 0-5 0V194h5v-45.5z" fill="#C4C4C4"/><path d="M286 148.5a2.5 2.5 0 1 0-5 0V194h5v-45.5z" fill="url(#x)"/><path d="M485 218.5a2.5 2.5 0 1 1-5 0V195h5v23.5z" fill="#C4C4C4"/><path d="M485 218.5a2.5 2.5 0 1 1-5 0V195h5v23.5z" fill="url(#y)"/><path d="M480 148.5a2.5 2.5 0 1 1 5 0V194h-5v-45.5z" fill="url(#z)"/><path d="M630 218.5a2.5 2.5 0 1 1-5 0V195h5v23.5z" fill="#C4C4C4"/><path d="M630 218.5a2.5 2.5 0 1 1-5 0V195h5v23.5z" fill="url(#A)"/><path d="M625 148.5a2.5 2.5 0 1 1 5 0V194h-5v-45.5z" fill="url(#B)"/><path d="M310 205.5a2.5 2.5 0 1 0 5 0V195h-5v10.5z" fill="#C4C4C4"/><path d="M310 205.5a2.5 2.5 0 1 0 5 0V195h-5v10.5z" fill="url(#C)"/><path d="M315 49.5a2.5 2.5 0 1 0-5 0V194h5V49.5z" fill="#C4C4C4"/><path d="M315 49.5a2.5 2.5 0 1 0-5 0V194h5V49.5z" fill="url(#D)"/><path d="M456 205.5a2.5 2.5 0 1 1-5 0V195h5v10.5z" fill="#C4C4C4"/><path d="M456 205.5a2.5 2.5 0 1 1-5 0V195h5v10.5z" fill="url(#E)"/><path d="M451 49.5a2.5 2.5 0 1 1 5 0V194h-5V49.5z" fill="url(#F)"/><path d="M339 225.5a2.5 2.5 0 1 0 5 0V195h-5v30.5z" fill="#C4C4C4"/><path d="M339 225.5a2.5 2.5 0 1 0 5 0V195h-5v30.5z" fill="url(#G)"/><path d="M344 37.5a2.5 2.5 0 1 0-5 0V194h5V37.5z" fill="#C4C4C4"/><path d="M344 37.5a2.5 2.5 0 1 0-5 0V194h5V37.5z" fill="url(#H)"/><path d="M427 225.5a2.5 2.5 0 1 1-5 0V195h5v30.5z" fill="#C4C4C4"/><path d="M427 225.5a2.5 2.5 0 1 1-5 0V195h5v30.5z" fill="url(#I)"/><path d="M422 37.5a2.5 2.5 0 1 1 5 0V194h-5V37.5z" fill="url(#J)"/><path d="M368 201.5a2.5 2.5 0 1 0 5 0V195h-5v6.5z" fill="#C4C4C4"/><path d="M368 201.5a2.5 2.5 0 1 0 5 0V195h-5v6.5z" fill="url(#K)"/><path d="M373 95.5a2.5 2.5 0 1 0-5 0V194h5V95.5z" fill="#C4C4C4"/><path d="M373 95.5a2.5 2.5 0 1 0-5 0V194h5V95.5z" fill="url(#L)"/><path d="M398 201.5a2.5 2.5 0 1 1-5 0V195h5v6.5z" fill="#C4C4C4"/><path d="M398 201.5a2.5 2.5 0 1 1-5 0V195h5v6.5z" fill="url(#M)"/><path d="M393 95.5a2.5 2.5 0 1 1 5 0V194h-5V95.5z" fill="#C4C4C4"/><path d="M393 95.5a2.5 2.5 0 1 1 5 0V194h-5V95.5z" fill="url(#N)"/><g filter="url(#O)"><circle cx="254.5" cy="235.5" r="7.5" fill="#FFAF67"/><circle cx="254.5" cy="235.5" r="7" stroke="#DBE2E4" stroke-opacity=".2"/></g><g filter="url(#P)"><circle cx="254.5" cy="235.5" r="5.5" fill="#FFAF67"/><circle cx="254.5" cy="235.5" r="5" stroke="#DBE2E4" stroke-opacity=".2"/></g><g filter="url(#Q)"><circle cx="254.5" cy="235.5" r="5.5" fill="#FFAF67"/><circle cx="254.5" cy="235.5" r="5" stroke="#DBE2E4" stroke-opacity=".2"/></g><g filter="url(#R)"><circle cx="254.5" cy="235.5" r="6.5" fill="#FFAF67"/><circle cx="254.5" cy="235.5" r="6" stroke="#DBE2E4" stroke-opacity=".2"/></g><circle cx="254.5" cy="235.5" r="4.5" fill="#FFAF67"/><g filter="url(#S)"><circle cx="254.5" cy="160.5" r="7.5" fill="#FFAF67"/><circle cx="254.5" cy="160.5" r="7" stroke="#DBE2E4" stroke-opacity=".2"/></g><g filter="url(#T)"><circle cx="254.5" cy="160.5" r="5.5" fill="#FFAF67"/><circle cx="254.5" cy="160.5" r="5" stroke="#DBE2E4" stroke-opacity=".2"/></g><g filter="url(#U)"><circle cx="254.5" cy="160.5" r="5.5" fill="#FFAF67"/><circle cx="254.5" cy="160.5" r="5" stroke="#DBE2E4" stroke-opacity=".2"/></g><g filter="url(#V)"><circle cx="254.5" cy="160.5" r="6.5" fill="#FFAF67"/><circle cx="254.5" cy="160.5" r="6" stroke="#DBE2E4" stroke-opacity=".2"/></g><circle cx="254.5" cy="160.5" r="4.5" fill="#FFAF67"/><g filter="url(#W)"><circle cx="254.5" cy="96.5" r="7.5" fill="#FFAF67"/><circle cx="254.5" cy="96.5" r="7" stroke="#DBE2E4" stroke-opacity=".2"/></g><g filter="url(#X)"><circle cx="254.5" cy="96.5" r="5.5" fill="#FFAF67"/><circle cx="254.5" cy="96.5" r="5" stroke="#DBE2E4" stroke-opacity=".2"/></g><g filter="url(#Y)"><circle cx="254.5" cy="96.5" r="5.5" fill="#FFAF67"/><circle cx="254.5" cy="96.5" r="5" stroke="#DBE2E4" stroke-opacity=".2"/></g><g filter="url(#Z)"><circle cx="254.5" cy="96.5" r="6.5" fill="#FFAF67"/><circle cx="254.5" cy="96.5" r="6" stroke="#DBE2E4" stroke-opacity=".2"/></g><circle cx="254.5" cy="96.5" r="4.5" fill="#FFAF67"/><defs><filter id="O" x="243" y="224" width="23" height="23" filterUnits="userSpaceOnUse" color-interpolation-filters="sRGB"><feFlood flood-opacity="0" result="BackgroundImageFix"/><feBlend in="SourceGraphic" in2="BackgroundImageFix" result="shape"/><feGaussianBlur stdDeviation="2" result="effect1_foregroundBlur_2648_70197"/></filter><filter id="P" x="245" y="226" width="19" height="19" filterUnits="userSpaceOnUse" color-interpolation-filters="sRGB"><feFlood flood-opacity="0" result="BackgroundImageFix"/><feBlend in="SourceGraphic" in2="BackgroundImageFix" result="shape"/><feGaussianBlur stdDeviation="2" result="effect1_foregroundBlur_2648_70197"/></filter><filter id="Q" x="244" y="225" width="21" height="21" filterUnits="userSpaceOnUse" color-interpolation-filters="sRGB"><feFlood flood-opacity="0" result="BackgroundImageFix"/><feBlend in="SourceGraphic" in2="BackgroundImageFix" result="shape"/><feGaussianBlur stdDeviation="2.5" result="effect1_foregroundBlur_2648_70197"/></filter><filter id="R" x="238" y="219" width="33" height="33" filterUnits="userSpaceOnUse" color-interpolation-filters="sRGB"><feFlood flood-opacity="0" result="BackgroundImageFix"/><feBlend in="SourceGraphic" in2="BackgroundImageFix" result="shape"/><feGaussianBlur stdDeviation="5" result="effect1_foregroundBlur_2648_70197"/></filter><filter id="S" x="243" y="149" width="23" height="23" filterUnits="userSpaceOnUse" color-interpolation-filters="sRGB"><feFlood flood-opacity="0" result="BackgroundImageFix"/><feBlend in="SourceGraphic" in2="BackgroundImageFix" result="shape"/><feGaussianBlur stdDeviation="2" result="effect1_foregroundBlur_2648_70197"/></filter><filter id="T" x="245" y="151" width="19" height="19" filterUnits="userSpaceOnUse" color-interpolation-filters="sRGB"><feFlood flood-opacity="0" result="BackgroundImageFix"/><feBlend in="SourceGraphic" in2="BackgroundImageFix" result="shape"/><feGaussianBlur stdDeviation="2" result="effect1_foregroundBlur_2648_70197"/></filter><filter id="U" x="244" y="150" width="21" height="21" filterUnits="userSpaceOnUse" color-interpolation-filters="sRGB"><feFlood flood-opacity="0" result="BackgroundImageFix"/><feBlend in="SourceGraphic" in2="BackgroundImageFix" result="shape"/><feGaussianBlur stdDeviation="2.5" result="effect1_foregroundBlur_2648_70197"/></filter><filter id="V" x="238" y="144" width="33" height="33" filterUnits="userSpaceOnUse" color-interpolation-filters="sRGB"><feFlood flood-opacity="0" result="BackgroundImageFix"/><feBlend in="SourceGraphic" in2="BackgroundImageFix" result="shape"/><feGaussianBlur stdDeviation="5" result="effect1_foregroundBlur_2648_70197"/></filter><filter id="W" x="243" y="85" width="23" height="23" filterUnits="userSpaceOnUse" color-interpolation-filters="sRGB"><feFlood flood-opacity="0" result="BackgroundImageFix"/><feBlend in="SourceGraphic" in2="BackgroundImageFix" result="shape"/><feGaussianBlur stdDeviation="2" result="effect1_foregroundBlur_2648_70197"/></filter><filter id="X" x="245" y="87" width="19" height="19" filterUnits="userSpaceOnUse" color-interpolation-filters="sRGB"><feFlood flood-opacity="0" result="BackgroundImageFix"/><feBlend in="SourceGraphic" in2="BackgroundImageFix" result="shape"/><feGaussianBlur stdDeviation="2" result="effect1_foregroundBlur_2648_70197"/></filter><filter id="Y" x="244" y="86" width="21" height="21" filterUnits="userSpaceOnUse" color-interpolation-filters="sRGB"><feFlood flood-opacity="0" result="BackgroundImageFix"/><feBlend in="SourceGraphic" in2="BackgroundImageFix" result="shape"/><feGaussianBlur stdDeviation="2.5" result="effect1_foregroundBlur_2648_70197"/></filter><filter id="Z" x="238" y="80" width="33" height="33" filterUnits="userSpaceOnUse" color-interpolation-filters="sRGB"><feFlood flood-opacity="0" result="BackgroundImageFix"/><feBlend in="SourceGraphic" in2="BackgroundImageFix" result="shape"/><feGaussianBlur stdDeviation="5" result="effect1_foregroundBlur_2648_70197"/></filter><linearGradient id="a" x1="83.091" y1="35" x2="83.091" y2="194.5" gradientUnits="userSpaceOnUse"><stop stop-color="#59B013"/><stop offset=".514" stop-color="#5FCFF7"/><stop offset="1" stop-color="#FFB777"/></linearGradient><linearGradient id="b" x1="83" y1="194.5" x2="83" y2="354" gradientUnits="userSpaceOnUse"><stop stop-color="#FFB777"/><stop offset=".453" stop-color="#B05C84"/><stop offset="1" stop-color="#B92118"/></linearGradient><linearGradient id="c" x1="112.091" y1="35" x2="112.091" y2="195.35" gradientUnits="userSpaceOnUse"><stop stop-color="#59B013"/><stop offset=".514" stop-color="#5FCFF7"/><stop offset="1" stop-color="#FFB777"/></linearGradient><linearGradient id="d" x1="112" y1="194.5" x2="112" y2="354" gradientUnits="userSpaceOnUse"><stop stop-color="#FFB777"/><stop offset=".453" stop-color="#B05C84"/><stop offset="1" stop-color="#B92118"/></linearGradient><linearGradient id="e" x1="141.091" y1="35" x2="141.091" y2="194.65" gradientUnits="userSpaceOnUse"><stop stop-color="#59B013"/><stop offset=".514" stop-color="#5FCFF7"/><stop offset="1" stop-color="#FFB777"/></linearGradient><linearGradient id="f" x1="141" y1="194.5" x2="141" y2="354" gradientUnits="userSpaceOnUse"><stop stop-color="#FFB777"/><stop offset=".453" stop-color="#B05C84"/><stop offset="1" stop-color="#B92118"/></linearGradient><linearGradient id="g" x1="170.091" y1="35" x2="170.091" y2="194.65" gradientUnits="userSpaceOnUse"><stop stop-color="#59B013"/><stop offset=".514" stop-color="#5FCFF7"/><stop offset="1" stop-color="#FFB777"/></linearGradient><linearGradient id="h" x1="170" y1="194.5" x2="170" y2="354" gradientUnits="userSpaceOnUse"><stop stop-color="#FFB777"/><stop offset=".453" stop-color="#B05C84"/><stop offset="1" stop-color="#B92118"/></linearGradient><linearGradient id="i" x1="595.909" y1="35" x2="595.909" y2="196.325" gradientUnits="userSpaceOnUse"><stop stop-color="#59B013"/><stop offset=".514" stop-color="#5FCFF7"/><stop offset="1" stop-color="#FFB777"/></linearGradient><linearGradient id="j" x1="596" y1="194.865" x2="596" y2="354" gradientUnits="userSpaceOnUse"><stop stop-color="#FFB777"/><stop offset=".453" stop-color="#B05C84"/><stop offset="1" stop-color="#B92118"/></linearGradient><linearGradient id="k" x1="194" y1="194.5" x2="194" y2="354" gradientUnits="userSpaceOnUse"><stop stop-color="#FFB777"/><stop offset=".453" stop-color="#B05C84"/><stop offset="1" stop-color="#B92118"/></linearGradient><linearGradient id="l" x1="193.909" y1="35" x2="193.909" y2="196.05" gradientUnits="userSpaceOnUse"><stop stop-color="#59B013"/><stop offset=".514" stop-color="#5FCFF7"/><stop offset="1" stop-color="#FFB777"/></linearGradient><linearGradient id="m" x1="572" y1="194.5" x2="572" y2="354" gradientUnits="userSpaceOnUse"><stop stop-color="#FFB777"/><stop offset=".453" stop-color="#B05C84"/><stop offset="1" stop-color="#B92118"/></linearGradient><linearGradient id="n" x1="572.091" y1="35" x2="572.091" y2="197.45" gradientUnits="userSpaceOnUse"><stop stop-color="#59B013"/><stop offset=".514" stop-color="#5FCFF7"/><stop offset="1" stop-color="#FFB777"/></linearGradient><linearGradient id="o" x1="223" y1="194.5" x2="223" y2="354" gradientUnits="userSpaceOnUse"><stop stop-color="#FFB777"/><stop offset=".453" stop-color="#B05C84"/><stop offset="1" stop-color="#B92118"/></linearGradient><linearGradient id="p" x1="222.909" y1="35" x2="222.909" y2="194.9" gradientUnits="userSpaceOnUse"><stop stop-color="#59B013"/><stop offset=".514" stop-color="#5FCFF7"/><stop offset="1" stop-color="#FFB777"/></linearGradient><linearGradient id="q" x1="543" y1="194.5" x2="543" y2="354" gradientUnits="userSpaceOnUse"><stop stop-color="#FFB777"/><stop offset=".453" stop-color="#B05C84"/><stop offset="1" stop-color="#B92118"/></linearGradient><linearGradient id="r" x1="543.091" y1="35" x2="543.091" y2="197.025" gradientUnits="userSpaceOnUse"><stop stop-color="#59B013"/><stop offset=".514" stop-color="#5FCFF7"/><stop offset="1" stop-color="#FFB777"/></linearGradient><linearGradient id="s" x1="252" y1="194.669" x2="252" y2="354" gradientUnits="userSpaceOnUse"><stop stop-color="#FFB777"/><stop offset=".453" stop-color="#B05C84"/><stop offset="1" stop-color="#B92118"/></linearGradient><linearGradient id="t" x1="251.909" y1="35" x2="251.909" y2="196.625" gradientUnits="userSpaceOnUse"><stop stop-color="#59B013"/><stop offset=".514" stop-color="#5FCFF7"/><stop offset="1" stop-color="#FFB777"/></linearGradient><linearGradient id="u" x1="514" y1="194.669" x2="514" y2="354" gradientUnits="userSpaceOnUse"><stop stop-color="#FFB777"/><stop offset=".453" stop-color="#B05C84"/><stop offset="1" stop-color="#B92118"/></linearGradient><linearGradient id="v" x1="514.091" y1="35" x2="514.091" y2="196.625" gradientUnits="userSpaceOnUse"><stop stop-color="#59B013"/><stop offset=".514" stop-color="#5FCFF7"/><stop offset="1" stop-color="#FFB777"/></linearGradient><linearGradient id="w" x1="281" y1="194.8" x2="281" y2="354" gradientUnits="userSpaceOnUse"><stop stop-color="#FFB777"/><stop offset=".453" stop-color="#B05C84"/><stop offset="1" stop-color="#B92118"/></linearGradient><linearGradient id="x" x1="280.909" y1="35" x2="280.909" y2="195.2" gradientUnits="userSpaceOnUse"><stop stop-color="#59B013"/><stop offset=".514" stop-color="#5FCFF7"/><stop offset="1" stop-color="#FFB777"/></linearGradient><linearGradient id="y" x1="485" y1="194.8" x2="485" y2="354" gradientUnits="userSpaceOnUse"><stop stop-color="#FFB777"/><stop offset=".453" stop-color="#B05C84"/><stop offset="1" stop-color="#B92118"/></linearGradient><linearGradient id="z" x1="485.091" y1="35" x2="485.091" y2="195.2" gradientUnits="userSpaceOnUse"><stop stop-color="#59B013"/><stop offset=".514" stop-color="#5FCFF7"/><stop offset="1" stop-color="#FFB777"/></linearGradient><linearGradient id="A" x1="630" y1="194.8" x2="630" y2="354" gradientUnits="userSpaceOnUse"><stop stop-color="#FFB777"/><stop offset=".453" stop-color="#B05C84"/><stop offset="1" stop-color="#B92118"/></linearGradient><linearGradient id="B" x1="630.091" y1="35" x2="630.091" y2="195.2" gradientUnits="userSpaceOnUse"><stop stop-color="#59B013"/><stop offset=".514" stop-color="#5FCFF7"/><stop offset="1" stop-color="#FFB777"/></linearGradient><linearGradient id="C" x1="310" y1="194.9" x2="310" y2="354" gradientUnits="userSpaceOnUse"><stop stop-color="#FFB777"/><stop offset=".453" stop-color="#B05C84"/><stop offset="1" stop-color="#B92118"/></linearGradient><linearGradient id="D" x1="309.909" y1="35" x2="309.909" y2="197.675" gradientUnits="userSpaceOnUse"><stop stop-color="#59B013"/><stop offset=".514" stop-color="#5FCFF7"/><stop offset="1" stop-color="#FFB777"/></linearGradient><linearGradient id="E" x1="456" y1="194.9" x2="456" y2="354" gradientUnits="userSpaceOnUse"><stop stop-color="#FFB777"/><stop offset=".453" stop-color="#B05C84"/><stop offset="1" stop-color="#B92118"/></linearGradient><linearGradient id="F" x1="456.091" y1="35" x2="456.091" y2="197.675" gradientUnits="userSpaceOnUse"><stop stop-color="#59B013"/><stop offset=".514" stop-color="#5FCFF7"/><stop offset="1" stop-color="#FFB777"/></linearGradient><linearGradient id="G" x1="339" y1="194.746" x2="339" y2="354" gradientUnits="userSpaceOnUse"><stop stop-color="#FFB777"/><stop offset=".453" stop-color="#B05C84"/><stop offset="1" stop-color="#B92118"/></linearGradient><linearGradient id="H" x1="338.909" y1="35" x2="338.909" y2="197.975" gradientUnits="userSpaceOnUse"><stop stop-color="#59B013"/><stop offset=".514" stop-color="#5FCFF7"/><stop offset="1" stop-color="#FFB777"/></linearGradient><linearGradient id="I" x1="427" y1="194.746" x2="427" y2="354" gradientUnits="userSpaceOnUse"><stop stop-color="#FFB777"/><stop offset=".453" stop-color="#B05C84"/><stop offset="1" stop-color="#B92118"/></linearGradient><linearGradient id="J" x1="427.091" y1="35" x2="427.091" y2="197.975" gradientUnits="userSpaceOnUse"><stop stop-color="#59B013"/><stop offset=".514" stop-color="#5FCFF7"/><stop offset="1" stop-color="#FFB777"/></linearGradient><linearGradient id="K" x1="368" y1="194.931" x2="368" y2="354" gradientUnits="userSpaceOnUse"><stop stop-color="#FFB777"/><stop offset=".453" stop-color="#B05C84"/><stop offset="1" stop-color="#B92118"/></linearGradient><linearGradient id="L" x1="367.909" y1="35" x2="367.909" y2="196.525" gradientUnits="userSpaceOnUse"><stop stop-color="#59B013"/><stop offset=".514" stop-color="#5FCFF7"/><stop offset="1" stop-color="#FFB777"/></linearGradient><linearGradient id="M" x1="398" y1="194.931" x2="398" y2="354" gradientUnits="userSpaceOnUse"><stop stop-color="#FFB777"/><stop offset=".453" stop-color="#B05C84"/><stop offset="1" stop-color="#B92118"/></linearGradient><linearGradient id="N" x1="398.091" y1="35" x2="398.091" y2="196.525" gradientUnits="userSpaceOnUse"><stop stop-color="#59B013"/><stop offset=".514" stop-color="#5FCFF7"/><stop offset="1" stop-color="#FFB777"/></linearGradient></defs></svg>