<svg width="520" height="588" viewBox="0 0 520 588" fill="none" xmlns="http://www.w3.org/2000/svg"><path d="M363.534 237.344c-5.726 5.91-10.848 9.391-14.771 12.016-38.265 25.596-81.998 18.216-95.521 15.694-21.816-4.071-40.234-6.939-56.057-21.258-35.951-32.542-34.201-100.425-6.73-142.477 3.255-4.983 30.687-45.722 74.522-51.466 1.075-.142 1.875-.22 2.573-.291 6.778-.723 48.8-4.519 83.057 24.244 4.903 4.118 12.794 11.544 20.113 22.868 26.757 41.392 26.844 105.526-7.186 140.67z" fill="#38A2B2" fill-opacity=".08"/><path d="M468.019 427.443c-1.717-.23-2.735-.789-3.356-1.639-.367-.511-1.2-.537-2.074-.128-.293.126-.555.249-.848.375-3.266 1.518-7.673 1.415-9.46-.468-1.156-1.219-2.865-1.912-4.727-2.588-5.803-2.062-5.994-1.856-12.032.138-1.569.521-1.813.795-1.435 1.674.294.673.769 1.325 1.241 1.947.296.427.682.843 1.072 1.29.179-.051.448-.114.562-.188.709-.513 1.541-.764 2.459-.532 1.046.278.965.902.699 1.518-.34.777-.771 1.566-.99 2.329-.304 1.081-.427 2.141-.641 3.212-.141.631-.249 1.29-.546 1.908-.274.555-.986 1.038-2.028 1.067-1.503.021-2.519.538-3.524 1.147-.658.415-1.483.726-2.304 1.068-.794.307-1.647.376-2.249-.046-.538-.399-.5-.865.087-1.364 1.259-1.069 2.552-2.111 3.713-3.23.748-.702 1.55-1.472 1.389-2.591-.746.456-1.237.728-1.633 1.02-3.785 2.87-8.769 4.68-14.313 5.908-1.077.249-2.308.238-3.471.281-1.008.056-1.969-.017-2.98.008-3.004.073-4.421.576-5.417 2.321-.765 1.35-2.266 2.448-3.515 3.608-1.218 1.156-3.13 1.624-5.067 1.358-1.404-.176-2.337-.805-1.974-1.647.506-1.197.483-2.455 2.143-3.509 1.001-.639 1.257-1.346.367-2.134-.583-.517-.432-1.334-.517-2.062-.106-.91-.624-1.404-1.817-1.357-.58.036-1.449.23-1.724.508-.252.213.021.705.298.98.35.359 1.022.588 1.398.914 1.236 1.117.507 2.247-1.809 2.424-2.74.227-3.706 1.169-4.073 2.504-.645 2.381-2.908 4.336-5.484 6.235-1.787 1.284-4.071 2.257-6.587 2.826-3.055.693-6.218 1.246-9.357 1.734-.937.139-1.996.017-2.901-.094-1.407-.205-2.733-.512-4.34-.848-.564.434-1.094.896-1.757 1.28-.605.348-1.331.709-2.109.892-2.034.482-3.494-.179-3.241-1.438.079-.378.313-.744.507-1.197-1.221.08-1.788.485-2.156 1.019-.821 1.141-1.644 2.252-2.37 3.413-.545.863-.905 1.735-1.42 2.595-.545.863-1.55 1.471-3.15 1.719-2.328.332-4.652.695-6.984.997-1.877.248-2.552-.011-3.249-.976-1.025-1.418-.544-2.828.976-4.296-.35.164-.737.27-1.053.461-.319.16-.601.377-.917.568-1.348.833-2.662 1.693-4.043 2.5-.804.493-1.79.73-2.773.476-.986-.286-1.022-.866-.881-1.497.264-1.169 1.095-2.219 2.493-3.15 1.283-.857 2.499-1.767 3.718-2.647 1.102-.835 1.438-1.643.985-2.636-.338-.791.196-1.745-.024-2.581-.182-.778-1.059-1.445-1.238-2.193-.234-.957.418-1.956 1.486-2.818.701-.573 1.929-1.116 1.231-1.834-.905-.91-2.27-1.551-4.259-1.474-1.069.063-2.18.285-3.197.526-2.569.637-5.087.93-7.578.389-1.262-.284-2.427.005-3.541.473-3.219 1.389-6.408 2.775-9.662 4.137-.996.424-2.022.85-3.126 1.133-2.657.677-4.144.051-3.747-1.564.251-1.013.714-2.051 1.211-3.062.944-1.925 2.135-3.847 2.985-5.791.753-1.717 2.019-3.249 4.106-4.598.686-.449 1.303-.952 1.982-1.461-3.294-.571-4.377-1.429-4.221-3.261.029-.281.017-.648.299-.866 1.505-1.066.514-1.659-.411-2.474-1.883-1.657-3.964-3.168-6.628-4.396-.909-.417-1.614-1.196-1.725-1.891-.199-1.176-1.295-1.879-2.753-2.263-3.231-.824-3.816-2.416-3.576-4.32.054-.591.173-1.158.266-1.938-1.235.482-1.349 1.079-1.411 1.609-.196 1.223-.395 2.414-1.455 3.614-.784.922-.185 1.313 1.518 1.423.742.037 1.484.073 2.223.08 3.048.045 4.662 1.241 3.859 3.057-.437 1.004-.641 1.889-.221 2.855.556 1.35-1.964 2.935-4.494 2.86-1.821-.065-3.451.186-5.155.599-3.256.809-6.447.596-9.634.413-3.339-.165-6.704-.297-10.086-.304-3.105-.008-4.878-1.247-3.897-3.114.678-1.309 1.636-2.589 2.536-3.832 1.56-2.18 2.904-4.366 3.378-6.636.102-.442.08-.901.337-1.331 1.545-2.578 1.134-5.052.587-7.91-.513.613-.849.898-.996 1.223-.604 1.146-1.205 2.323-1.654 3.483-.36.872-.685 1.771-.708 2.635-.079 1.7-.627 3.333-1.913 4.958-1.126 1.423-1.759 2.85-2.078 4.332-.359 1.672-.904 3.335-1.478 5.001-.392 1.122.101 1.925 1.748 2.349 1.428.388 2.826.779 4.338 1.095 1.512.316 2.732.759 2.677 1.872-.062 1.053-.816 1.971-2.6 2.486-2.768.783-5.576 1.479-8.347 2.232-2.444.653-4.919 1.31-7.326 2.02-2.286.696-4.563 1.207-7.07 1.314-2.323.116-4.715.425-6.972.841-3.395.672-5.917 1.98-6.867 4.12-.34.778-.835 1.543-1.455 2.291-3.257 3.977-8.689 5.9-15.663 6.188-2.599.118-4.494.738-6.44 1.979-2.318 1.469-5.158 2.691-7.906 3.903-.76.334-1.95.411-2.928.463-1.716.046-3.049.478-4.346 1.213-3.718 2.124-8.178 2.888-12.725 2.648-4.114-.229-8.096-.904-12.118-1.39-3.711-.46-4.351-3.062-1.294-4.524 1.749-.819 2.435-1.79 2.79-2.969 1.055-3.352 4.023-6.373 6.742-9.426 1.277-1.44 2.281-2.849 2.189-4.437-.08-1.744 1.737-3.032 4.237-3.999 1.03-.397 2.131-.709 3.266-.995 3.135-.795 5.188-2.171 6.234-4.015 1.88-3.387 3.64-6.759 5.369-10.128.574-1.143 1.517-2.021 3.348-2.665 1.268-.455 2.53-.971 3.63-1.56 1.213-.664 1.214-1.187.166-1.741-.524-.278-1.162-.48-1.797-.653-3.026-.909-3.531-1.557-2.824-3.669.066-.223.099-.473.147-.848-.84-.087-1.616-.15-2.395-.244-2.736-.266-5.086-.916-6.734-2.139-.775-.586-1.757-.841-2.945-1.011-3.404-.465-4.149-1.055-4.238-3.136-.081-2.021-.314-4.023-1.066-5.996-.895-2.418.141-4.876 3.525-6.961 1.865-1.139 3.512-2.315 4.603-3.764.586-.776 1.739-1.433 2.643-2.122.648-.506 1.458-.938 1.981-1.461 1.67-1.762 4.185-2.608 7.282-2.937 2.547-.297 4.884-.814 6.793-2.113.682-.479 2.15-.803 3.222-.836 4.645-.232 8.941-1.347 13.197-2.549 1.905-.529 3.732-.68 5.615-.345 1.35.243 2.502.632 3.052 1.398.71 1.086 2.165 1.44 4.076 1.218 5.155-.6 8.084 1.059 10.733 2.965 1.039.741 1.934 1.559 2.767 2.385.417.413.848.947.783 1.447-.137.938.437 1.64 1.021 2.434.621.85.946 1.796 1.329 2.705.259.647.337 1.314.657 1.954.409.875.858 1.038 2.512.723 1.233-.236 2.232-.106 3.012.264 1.268.591 2.337 1.328 3.49 1.994 1.383.792 2.599 1.727 4.149 2.377 2.589 1.114 5.372 2.052 7.1 3.696 1.995-.816 3.839-1.615 5.75-2.36.912-.352 1.082-.741.867-1.269-.754-1.727-2.076-3.05-5.211-3.577-3.074-.535-3.3-1.154-2.4-3.197.536-1.2.793-2.429 1.287-3.994-.613.81-.957 1.28-1.329 1.785-1.267 1.531-3.253 2.162-5.312 1.632-2.279-.565-3.065-2.042-1.191-3.367 2.275-1.587 2.507-3.029 1.581-4.643-.235-.434-.23-.927-.378-1.402-.003-.03-.128-.046-.189-.039-.96 2.848-3.503 4.497-7.635 4.916-1.671.164-2.903-.124-3.932-.773-.795-.492-.92-1.308-.343-1.898.63-.657 1.556-.888 3.077-.757.621.051 1.211.105 1.991.199.515-1.382-.017-2.52-.666-3.613-.68-1.09-1.107-2.117.256-3.351.584-.53-.01-1.137-1.133-1.283-.779-.094-1.639-.087-2.465-.052-1.982.138-3.43-.155-3.808-1.557-.774.214-1.461.386-2.114.585-1.895.62-3.774 1.115-5.786.734-.877-.144-1.598.001-2.287.419-3.687 2.121-10.898 1.698-12.928-.957-.258-.37-.93-.599-1.451-.846-1.896-.979-1.722-2.383.532-3.353 1.403-.624 2.941-1.141 4.324-1.671.742-.763 1.29-1.596 2.194-2.285 1.494-1.158 3.189-1.386 5.084-.683 1.506.532 2.936 1.196 4.275 1.871 1.372.701 1.996.783 3.436.215 1.467-.601 1.821-1.257 1.189-2.198-.295-.427-.739-.806-1.065-1.23-.471-.622-.606-1.252-.043-1.963.773-1.013 2.315-1.499 3.67-.95 1.713.724 3.725.582 5.655.788 3.363.378 6.205-.29 9.171-1.22 2.669-.833 4.864-.196 7.248.48.683-1.525 2.777-2.291 4.806-3.08 1.648-.623 3.223-.56 4.255.12 1.002.683.935 1.429-.244 2.396-.366.289-.826.558-1.098.866-.875.932-.571 1.697.636 2.294 1.146.605 2.235 1.248 3.21 1.965 1.411 1.035 4.498.891 6.243-.234.658-.415 1.665-.747 2.564-.944.778-.183 1.671-.164 2.642-.276.198-.147.453-.33.735-.547 1.132-.839 1.907-1.052 3.537-.78 1.505.255 2.96.609 4.691.961-1.387-.823-2.631-1.478-3.761-2.208-2.32-1.452-2.001-2.412 1.108-3.696.646-.259 1.285-.58 1.704-.936 1.148-.964 2.643-1.322 4.42-1.375 1.072-.033 2.171-.099 3.225-.283.846-.129 1.636-.467 1.377-1.113-.26-.647-1.136-.514-2.008-.351-.091.01-.148.048-.239.058-1.636.467-3.221 1.113-4.939 1.405-1.684.319-3.468.311-5.298.431-.67.847-1.559 1.658-1.923 2.5-.849 1.944-3.326 2.847-5.996 3.68-1.302.428-2.608.826-3.945 1.228-1.663.5-3.247.623-4.7.023-1.453-.6-1.464-1.49-.869-2.451.595-.962 1.349-1.88 2.039-2.821.265-.369.624-.718 1.029-1.196-1.643-.117-3.157-.187-4.648-.321-3.265-.327-3.959-1.538-1.881-3.226.561-.465.963-.973 1.493-1.434.641-.567 1.218-1.157 1.991-1.646 1.744-1.126 3.832-1.676 6.184-1.273 1.788.315 3.544.08 5.369-.347a83.545 83.545 0 0 1 6.096-1.232c2.23-.382 4.444-.639 6.215-1.799.602-.377 1.895-.62 2.758-.597 1.946.081 3.822.355 5.725.595 1.494.165 2.939.427 4.437.622 1.498.195 3.046.292 4.46.558 1.289.25 2.209.758 2.793 1.552.584.793 1.585 1.476 2.607 2.065 1.089.642 1.817 1.357 2.257 2.228.875 1.713 1.868 3.381 2.831 5.053.425.75.392 1.523-.663 2.23-.968.666-2.238.845-3.483.713-.84-.087-1.61-.367-2.403-.582-.888-.235-1.803-.436-2.94-.704-.216 1.317.352 2.235 1.068 3.105.464.561 1.415.543 2.352.403.633-.104 1.421-.196 1.882-.465 1.997-1.062 3.952-1.166 6.239-.264.299-.865.593-1.514.701-2.172.219-1.287 1.632-1.82 3.472-1.327 2.188.576 2.827 1.578 2.077 3.849.762-.581 1.216-.91 1.669-1.24 1.109-.774 2.126-1.016 3.321-.785 1.417.296 1.953.941 1.577 1.938-.12.291-.304.558-.561.988 3.672-.673 5.709.197 7.211 1.745.559.581 1.559.988 2.775 1.4-.039-.334-.017-.675-.086-1.005-.169-.657-.212-1.298 1.063-1.692 1.189-.354 1.919.115 2.465.574.887.758 1.687 1.557 2.335 2.374.509.679.779 1.416 1.992 1.798 1.118.362 1.145 1.128.734 1.821-.592.992-1.433 1.951-2.203 2.994 1.98-.415 3.346-1.097 3.538-2.349.124-.783.309-1.574.281-2.339-.031-.796.418-1.433 1.585-1.968.962-.451 1.755-1.035 2.683-1.512.578-.313 1.217-.633 1.9-.836 1.519-.422 3.106-.515 4.195.128 1.383.792 1.635 1.901.974 3.085-.227.426-.799.8-1.181 1.214-.905.935-1.905 1.851-2.622 2.826-.797 1.077-2.05 1.93-3.462 2.74-.807.463-1.836.859-1.812 1.595 2.582.53 3.208.365 3.881-1.251.885-2.164 2.568-4.081 5.294-5.752 1.519-.945 2.001-1.032 3.505-.253 1.738.936 3.388 1.912 3.52 3.835.432-.512.593-.715.723-.915 1.517-2.021 1.901-2.158 5.872-1.574.908.14 1.742.443 2.407.612 1.087-.434 1.998-1.063 2.88-1.135 1.156-.103 2.472.113 3.462.428 1.692.541 3.477.826 5.46.965 1.427.11 2.875.403 3.973.86 1.842.77 3.791.882 6.044.435 3.213-.65 5.709.198 6.884 1.845.364.48.529 1.107.38 1.678-.305 1.081.554 1.596 1.922 1.991 1.114.332 2.259.66 3.263 1.097 1.78.777 2.227 1.709 1.501 2.87-.725 1.161-2.044 1.714-4.636 1.892-.822.065-1.655.039-2.485.043-.799.001-1.601-.029-2.896-.063.743.313 1.078.551 1.52.654 1.289.249 2.575.469 3.891.685 2.035.317 3.384 1.083 4.31 2.175.787.954 1.78 1.823 2.718 2.759 1.171.018 2.219.05 3.291.017 2.394-.032 4.168.684 5.847 1.381 1.132.484 1.743 1.243 1.913 2.177.191 1.115 1.023 2.187.152 3.426-.157.234.203.684.558.827 3.137 1.081 5.832 2.582 10.07 2.551 1.383-.007 2.845.407 3.886.901 2.021.996 3.757 2.178 5.607 3.285 1.254.746 2.034 1.64 2.01 2.75-.048 1.174.855 1.807 2.678 2.149 2.355.433 4.722.958 5.952 2.291.424.473.953 1.058.828 1.564-.232.919.321 1.439 1.247 2.008 1.191.723 2.096 1.633 3.397 2.25 1.173.571 2.662.952 4.144 1.271 1.924.423 3.471 1.042 4.599 2.018 2.188 1.899 4.581 3.712 6.765 5.58 1.057.892 2.06 1.852 2.763 2.877 1.029 1.449 2.286 2.748 4.22 3.785 1.312.708 2.032 1.609 1.828 2.77-.321 1.729-2.459 2.9-5.229 2.607-1.93-.206-3.773-.73-5.465-1.271-1.371-.425-1.511-1.362-1.462-2.26.037-.742-.373-1.094-2-.813a39.032 39.032 0 0 1-.785 1.967c-.836 2.066-2.849 2.73-5.975 2.017-.442-.102-.857-.238-1.273-.374-.996-.377-2.041-.378-3.301-.109-1.112.222-2.348.427-3.457.402-1.079-.028-2.126-.306-3.108-.561-.632-.142-1.163-.48-1.797-.652-2.381-.646-3.044-.538-4.953.76-.453.33-.971.636-1.235 1.005-1.457 2.014-4.449 2.977-7.5 3.701a43.12 43.12 0 0 0-6.907 2.187c-1.232.512-2.534.941-3.833 1.399-.855.315-1.838.583-2.428.006-.556-.551.221-1.01 1.008-1.378.757-.365 1.446-.784 2.168-1.175 1.998-1.063 3.239-2.284 3.737-3.818.292-.925 1.019-1.81 1.621-2.71.844-1.205 2.229-1.981 4.347-2.535 2.507-.907 5.007-1.874 7.881-2.793zm-152.525-36.057a345.704 345.704 0 0 0-5.007-1.294c-2.623 1.228-3.809 2.658-3.696 4.428.093 1.589-1.033 3.011-2.911 4.306-.568.404-1.169.782-1.714 1.122.364.48.689.904.985 1.331.34.545.707 1.056 2.011.904 1.334-.155 2.506-.384 2.889-1.32.337-.808 1.227-1.342 2.51-1.676.505-.151.973-.359 1.558-.612-1.193-1.276-.769-2.647-.712-4.007.043-1.481.769-2.642 4.087-3.182zm-17.826-2.633c-.477-1.728-1.58-3.015-4.351-3.584-.82-.182-1.49-.657-2.005-1.12-.274-.245-.277-.799.032-1.05.309-.251 1.235-.482 1.731-.447.904.11 1.708.417 2.505.662 1.246.409 2.478.696 4.241-.001-1.938-.543-3.633-1.115-5.459-1.487-1.891-.396-3.663-.835-4.085-2.355-1.277.918-2.163 1.759-4.068 1.765-2.734.01-3.625.544-4.478 2.458a349.1 349.1 0 0 0 3.078.565c.817.151 1.778.224 2.427.517 2.169.948 4.228 2 6.313 3.018 1.143.575 2.057 1.299 4.119 1.059zm-30.147-13.441c.155.013.337-.008.492.005.049-.375.101-.719.119-1.091-.003-.03-.219-.036-.469-.068-.048.375-.097.749-.142 1.154zM82.993 318.589c-.354.657-.795 1.354-1.146 2.04-1.132 2.162-2.233 4.32-3.395 6.485-.127.23-.698.604-.978.575-.463-.008-1.165-.234-1.22-.443-.214-1.051-.338-2.113-.306-3.163.025-.31.586-.775 1.084-.987 1.137-.532 1.528-1.131 1.197-1.861-.58-1.286.12-2.413 1.262-3.684 1.61-1.755 2.743-3.64 4.15-5.557-2.227-.91-1.428-2.233-.107-3.555.524-.522 1.074-1.078 1.597-1.6.688-.695 1.224-1.373.95-2.141-.343-1.098.603-1.946 2.03-2.634 3.578-1.739 6.93-3.574 9.944-5.677 1.65-1.146 3.876-3.404 5.235-4.669 1.44-1.366 2.508-2.752 3.509-4.19.291-.403.798-.801.988-1.284-.548.31-1.093.65-1.701.967-1.019.487-2.124.769-3.249.347-1.091-.396-1.411-1.036-.939-1.736.498-.735 1.111-1.544 2.025-2.143 2.399-1.57 3.823-3.335 4.828-5.266.528-1.015.577-1.913-.116-2.847-1.086-1.412-2.192-2.729-4.479-3.631-1-.407-1.272-1.421-1.954-2.264-3.09.913-6.181 1.026-8.617-.628-.697.357-1.278.64-1.86.923-1.978.968-3.986 1.14-5.764.393-1.132-.483-2.407-.612-3.723-.828-2.47-.358-4.84-.913-7.21-1.468-.725-.162-1.593-.491-1.168-1.064.295-.372 1.14-.778 1.826-.95 1.882-.465 3.787-.471 5.633-.194 1.596.245 1.623.212 3.261-.502-1.272-.897-2.188-1.898-1.669-3.25.093-.257-.245-.525-.398-.784-.83-1.319-.591-2.177.945-2.97 1.823-.981 4.162-1.222 6.096-.709 1.27.344 2.596.651 3.923.959.253.062.617.02.893.019.91-.629.706-1.067-.132-1.4-.709-.286-1.502-.502-2.212-.788-1.453-.6-1.534-1.298-.291-2.242 2.089-1.596 5.142-1.767 6.997-.352.437.318.641.756 1.048 1.077.338.269.818.428 1.244.655.144-.078.262-.122.407-.201-.116-.202-.201-.407-.344-.575-.794-1.015-.32-1.962.892-2.902 1.239-.975 2.108-1.168 3.931-.826 1.285.219 2.551.533 3.864.719 2.591.345 5.17.845 7.843.841 3.692.032 5.765 1.206 7.479 2.729 1.03.926 2.277 1.611 3.959 2.062 2.38.646 3.513 1.929 4.319 3.311 1.466 2.567 4.589 4.049 9.012 4.55 2.709.3 4.645 1.09 6.37 2.181 1.36.857 2.898 1.662 4.201 2.556 2.037 1.393 4.04 2.76 5.814 4.276.715.593.79 1.507 1.037 2.309.384 1.185.462 1.33 1.878 1.873-.319-3.008-.249-3.2 2.321-4.36-.182-.502-.454-.993-.574-1.502-.187-.809.481-1.409 1.914-1.514a19.444 19.444 0 0 1 4.107.168c1.785.284 3.409.772 5.11 1.128.915.201 1.571.556 1.513 1.116-.119 1.09 1.003 1.483 2.431 1.87.733-.3 1.456-.692 2.254-.969 2.46-.778 4.288-.13 3.824 1.431-.203.639-.86 1.33-1.562 1.904-1.185.907-2.142 1.664-1.425 2.811.531.861-.271 1.63-1.975 2.044-1.256.3-2.624.428-3.955.613-.694.112-1.392.193-2.359.336 1.608.613 2.896 1.109 4.375 1.675.502-.181 1.144-.471 1.831-.643.714-.206 1.461-.386 2.193-.44 2.376-.184 3.338.688 2.229 1.986-.272.308-.638.597-.767 1.073.824-.311 1.645-.652 2.439-.96-.019-.428-.091-.789-.066-1.099.091-1.333 1.25-2.206 3.487-2.528 1.63-.251 2.936-.649 4.166-1.438 2.43-1.574 7.051-1.219 8.361.535.438.595.038 1.38-1.174 1.798-.885.318-1.902.559-2.879.611-3.415.243-4.491 1.291-5.07 3.45-.129.476-.1.996-.418 1.432-.95 1.341-.97 1.436 1.021 2.434.417-.11.896-.227 1.377-.314 2.129-.462 4.11-.078 4.911.998.727.961-.151 2.14-2.247 2.875-.737.271-1.576.46-2.384.647-.721.145-1.476.263-2.17.375-.3.588-.452 1.129-.824 1.633-1.058 1.477-2.884 2.427-5.613 2.744-1.365.159-2.542.08-3.263-.574-.688-.627-.527-1.353.218-2.086.439-.451.882-.871 1.291-1.319a77.91 77.91 0 0 0-3.71-.983c-.378-.079-1.049-.032-1.432.105-3.227 1.329-6.821 1.347-10.275 1.779-1.85.215-3.416.489-4.587 1.518-.531.461-1.386.776-2.28 1.279.235.434.47.868.674 1.306.612 1.559 1.315 3.107 1.778 4.714.199.654.441 1.148 1.289 1.572 2.572 1.239 2.717 2.483.626 4.326-.332.315-.793.584-1.034.889-.321.406-.936.939-.051 1.144.442.102 1.354-.25 1.939-.503.38-.167.618-.502.897-.75.416-.386.798-.8 1.278-1.163.927-.754 2.055-1.1 3.526-.872 2.379.37 4.16-.698 5.977-1.463.293-.127.368-.535.397-.815.06-.807.758-1.411 1.8-1.963 1.187-.63 2.408-1.233 3.497-1.913 3.183-1.969 6.149-2.099 9.037.272 1.531 1.267 2.745 2.725 1.578 4.583a36.006 36.006 0 0 1-1.238 1.774c-.184.268-.463.515-.895 1.027 1.193-.047 2.053-.054 2.909-.092 2.838-.177 3.902.253 4.514 1.812.516 1.263.32 2.485-.982 3.713-.634.627-1.11 1.297-1.588 1.937-.797 1.077-.988 2.083-.012 3.077 1.183 1.185.873 2.482-.577 3.758-1.229 1.065-2.582 2.114-3.682 3.227-.798.8-1.313 1.659-1.828 2.519-.795 1.353-2.329 2.177-4.634 2.445-1.455.169-2.377-.093-2.381-.922-.012-.891-.533-1.415-1.692-1.864-1.061-.4-2.189-.853-1.898-1.779.342-1.024 1.857-1.477 3.326-1.801 1.138-.255 2.28-.48 3.459-.648 1.088-.158 1.535-.548 1.791-1.254-.641.044-1.133.039-1.584.123-2.864.486-5.037.032-6.659-1.225-1.286-1.02-2.999-1.743-5.427-1.738-.307.005-.621-.05-.917.046 3.804 1.526 3.776 2.605-.196 4.39.541.429 1.144.851 1.601 1.351.488.497.828 1.042.16 1.642-.694.635-1.645.653-2.697.591-1.859-.123-3.771-.177-5.625-.269-2.597-.129-2.898-.34-2.812-1.98-2.16-.333-4.199-.157-6.526.451-2.626.675-5.379 1.579-8.318 1.152-.499-.065-1.267.209-1.859.401-1.28.364-2.452.592-3.839.292-1.856-.368-3.057.14-3.806 1.365-.93 1.523-1.485 1.772-4.135 1.711-1.757-.042-3.416-.033-5.129.566-.797.277-1.802.363-2.685.435-2.804.203-3.355.482-4.328 2.164-.919 1.614-2.487 2.934-5.356 3.636-.926.231-1.787.485-2.575.054-.818-.428-.67-.999-.342-1.621.584-1.052 1.199-2.108 1.814-3.164.027-.033.05-.098.077-.131.47-.978-1.697-3.494-3.282-3.648-.655-.077-1.467.079-2.157.22-2.493.505-3.603.204-4.281-1.132-.123-.263-.189-.562-.372-.818-.954-1.334-3.39-1.666-5.617-.731-2.668 1.11-5.37 2.193-7.937 3.383-2.072.949-3.525 2.194-4.246 3.662-.663 1.43-.236 1.934 1.941 2.419.597.115 1.255.223 1.742.443 1.622.734 3.45.86 5.556.462.39-.077.849-.099 1.247-.115 2.491.018 3.326 1.12 1.816 2.403-1.481 1.28-3.296 2.321-5.856 2.772-.573.098-1.108.252-1.704.414-.579.836.11 1.217 1.15 1.435 1.135.237 1.774.716 2.098 1.386.566 1.164.286 1.935-1.801 2.485-3.101.822-3.745 2.158-3.834 3.767-.015.402-.064.776-.129 1.276 1.573.309 2.592 1.144 4.541 1.256 1.518.1 1.17 1.063.915 2.046.902-.166 1.725-.231 2.401-.494 2.766-1.06 5.435-.571 8.036-.412 1.669.083 1.415 1.066 1.082 1.905.87.083 1.649.177 2.429.271 1.373.178 2.134.643 2.449 1.499.536 1.444 1.8 2.528 4.371 2.967 2.636.462 3.196 1.32 2.024 2.871-.482.609-.49 1.072-.055 1.636.471.622.799 1.322.819 2.027.027 1.288.488 2.342 2.147 3.133.585.271 1.036.71 1.24 1.148.866 1.898.236 3.878-1.019 5.777-.445.667-2.047 1.161-3.23 1.821.597.115 1.167.264 1.761.349 2.224.357 3.409 1.295 3.712 2.582.183.779.507 1.448 1.316 2.062.606.452 1.161 1.003 1.384 1.592.686 1.673 2.2 3.066 3.714 4.458 1.169 1.064 1.745 2.319.586 3.715-.272.308-.536.677-.939.909-3.015 1.826-6.267 3.465-10.442 4.043-2.661.371-4.741 1.258-6.572 2.425-3.549 2.258-7.778 3.949-12.109 5.559-1.592.585-3.173.738-4.79.311-.729-.192-1.535-.252-2.314-.346-3.654-.498-4.307-.299-6.989 1.489-1.028.673-2.374 1.26-3.737 1.696-3.413 1.042-6.902 1.971-10.386 2.93-.775.213-1.62.342-2.432.498-2.762.567-4.948.267-6.425-1.068-.071-.084-.2-.131-.301-.211-.034-.027-.156-.013-.31-.025-.635.627-1.197 1.338-1.926 1.946-1.602 1.293-3.668 2.025-6.175 1.609-1.536-.252-2.806-.073-4.171.608-1.278.641-2.79.848-3.925.61-1.63.528-2.932.956-4.652 1.495-1.1 1.112-1.737 3.031-5.482 2.544-.542 2.216-2.82 3.772-6.233 4.292-2.658.401-3.645 1.162-3.735 2.772-.072.961-.111 1.95-.49 2.917-.775 2.058-3.513 2.838-6.394 1.85-1.729-.598-2.755-1.494-2.688-2.763.115-1.92.264-3.813.41-5.737.1-1.242.698-2.449 2.078-3.532.504-.428 1.068-.863 1.318-1.353 1.447-2.629 4.934-4.356 8.192-6.211.92-.538 1.676-1.179 2.431-1.821.813-.679 1.43-1.458 2.373-2.059 2.723-1.701 5.411-3.428 8.526-4.928 2.852-1.377 5.558-2.953 7.848-4.665 4.844-3.546 9.43-7.186 14.082-10.802.537-.401.973-.882 1.477-1.309 1.732-1.493 2.16-2.835.423-4.294-1.84-1.539-1.307-3.569-.673-5.519.68-2.078 2.14-4.062 3.823-5.98.65-.752.823-1.387.34-2.1-1.118-1.685.295-3.541 3.254-4.53.296-.096.626-.165 1.1-.313.07-.992 1.143-1.547 2.688-2.004 1.602-.494 2.957-1.266 4.556-1.79 1.272-.425 2.717-.685 4.098-.969 1.798-.394 3.242-.93 3.968-2.091.287-.433 1.075-.802 1.673-1.21.97-.635 1.817-1.287 1.704-2.258-1.063-.154-1.754-.811-3.354-.564-1.176.198-1.894-.425-2.05-1.238-.345-1.651-.721-3.299-1.07-4.98-.09-.513-.219-1.082-.002-1.6.519-1.352-.222-2.434-1.551-3.294-1.729-1.122-2.44-2.485-2.465-4.02-.015-.92-.608-1.528-1.942-1.896-1.651-.454-2.663-1.228-3.154-2.278-.743-1.636-1.608-3.258-2.173-4.945-.418-1.212-.256-2.461 1.481-3.647.682-.48.938-1.186 1.171-1.828.755-1.964 1.42-3.917 2.084-5.87.113-.352.135-.693.156-1.034.102-1.241.109-2.503.146-3.769zm54.288 1.654c2.446.147 4.071-.411 5.547-1.198 1.187-.63 2.467-.994 3.954-.89 2.165.117 2.76 1.001 1.511 2.161-.305.282-.846.652-.818.895.202 1.207-.691 1.987-2.84 2.268 1.403 1.497 6.554 1.914 11.458 1.005-.074-.637-.746-.867-1.788-.838-1.159.074-2.315.177-3.478.22-1.254.054-2.133-.367-2.203-.974-.081-.698.577-1.113 1.682-1.395.387-.106.845-.129 1.232-.235 1.249-.361 1.687-1.088 1.091-1.726-.244-.249-.572-.426-.873-.637-1.483-1.119-1.502-1.548-.089-2.881.221-.21.503-.427.66-.661.74-1.039.313-1.543-1.408-1.804-2.342-.312-4.687-.655-7.028-.967-.874-.114-1.755-.288-2.428.528 1.363.887 3.203 1.381 5.154 1.769 1.1.211 2.143.458 2.41 1.165.092.266-.135.693-.447.914-.225.179-.926.23-1.362.189-.465-.039-.857-.239-1.296-.311-1.66-.268-3.396-.128-4.754.614-1.392.716-2.446 1.699-3.887 2.789zm27.521-40.874c-.114.075-.224.18-.308.252.404.568.842 1.163 1.388 1.899.838-.467 1.446-.784 2.344-1.257-1.364-.364-2.377-.615-3.424-.894zm123.269 31.863c.172.687.441 1.148.342 1.621-.138.662-.33 1.391-.876 1.978-.96 1.003-2.726 1.147-4.007.435-.23-.127-.346-.329-.572-.426-1.041-.494-2.277-.289-3.174.461-.194.177-.359.35-.553.526-2.148 1.88-4.058 2.379-7.856 1.959.299.457.584.793.781 1.17.678 1.336-.752 2.517-3.23 2.621-.579.036-1.139-.021-1.726-.046-1.632-.025-3.268-.081-4.923-.042-1.716.045-3.405.057-4.619-.601-2.092-1.079-5.009-1.048-7.53-1.585-.408-.076-.978.052-1.459.139-2.594.424-5.015.49-7.006-.508-.943-.444-2.088-.25-3.064.079-2.016.634-3.999 1.295-5.91 2.041-1.854.707-3.569 1.552-5.356 2.314-2.638 1.106-3.896.853-4.704-.807-.201-.407-.372-.818-.664-1.214-.703-1.026-.803-2.152-.259-3.291 1.067-2.185 2.165-4.373 3.392-6.515.738-1.316 2.216-2.349 4.625-2.783.633-.104 1.218-.357 2.137-.648-1.178-.878-1.678-1.743-.2-2.776 1.505-1.066 3.125-.886 4.762-.553.628-.411.778-.706.217-1.04-1.789-1.115-1.759-1.118.331-2.438.229-.149.518-.306.622-.472 1.204-1.8 2.442-3.574 3.552-5.395.208-.332.064-.776-.214-1.051-.762-.742-1.76-1.395-2.553-2.133-.928-.846-2.192-1.406-3.745-1.81-2.755-.695-3.125-1.236-2.498-3.246.112-.352-.206-.714-.37-1.064-.543-1.229.357-1.949 2.598-2.24 1.425-.166 2.586.038 3.758.332 1.235.318 2.471.635 3.733.919.348.083.78.094 1.34.152 1.564-1.351 3.537-1.303 5.75-1.038 2.402.305 4.76.493 6.226 1.737.477.406 1.332.614 2.169.947.761-.334 1.43-.658 2.133-.955 1.928-.87 3.044-.785 4.471.126 1.134.76 2.412 1.442 3.713 2.059.423.197 1.202.291 1.808.221 3.154-.367 5.296.337 6.662 1.778.63.665 1.518.9 2.743 1.126 2.133.367 4.135.934 6.138 1.501 2.093.556 4.045 1.221 6.196 1.74 1.579.37 2.665.982 3.29 1.863.733 1.022 1.897 1.778 3.528 2.327.287.089.517.216.744.313 1.278.682 1.334 1.167.22 2.158-1.366 1.204-.777 2.305 1.436 2.57 1.184.139 2.395.245 3.552.418 1.407.205 2.361.74 2.85 1.513.572.949-.364 1.888-2.171 1.944-1.837.06-3.457.402-5.124.873-.387.106-.838.19-1.236.205-3.762.161-6.684 1.731-10.22 2.511zm48.686 187.97c.67-.324 1.339-.648 2.039-.976 1.634-.743 3.043-.784 4.611-.259.672.23 1.401.422 2.1.617 1.499.472 2.417 1.226 2.173 2.3a12.967 12.967 0 0 1-1.176 3.366c-.939 1.708-1.03 1.719 1.307 3.047 1.343-.341 2.443-.93 3.184-1.693 1.341-1.417 3.883-1.497 5.866-2.158.828-.281 1.751.258 1.491.934-.232.642-.765 1.349-1.436 1.92-.89.81-1.732 1.493-.945 2.447.502.618-.088 1.363-.911 1.951-2.77 2.075-3.747 4.249-3.01 6.624.346 1.128-.08 2.223-1.278 3.285-.95.818-1.65 1.668-1.227 2.665.297.703-.458 1.345-1.443 1.859-4.846 2.47-9.733 4.853-15.833 6.054-1.35.28-2.714.716-3.915 1.224-2.876 1.165-5.502 1.317-8.114.267a17.968 17.968 0 0 0-3.623-1.024c-3.607-.626-4.709-2.436-5.663-4.293-.234-.434.359-1.149.821-1.664.429-.542 1.141-1.025 1.87-1.632-.601-.146-.979-.225-1.421-.327-2.046-.408-2.936-1.197-1.82-2.434 1.74-1.955-.08-3.066-1.543-4.28-.338-.268-1.266-.314-1.924-.422-1.039-.217-2.304-.255-3.115-.622-1.331-.614-2.774-.6-4.405-.349-.482.087-.994.177-1.479.234-2.062.239-3.052-.076-3.735-1.196-.153-.259-.249-.555-.372-.818-2.054-.222-4.064-.327-5.974-.628-2.565-.378-3.098-1.27-1.67-2.727.386-.384 1.25-.884 1.89-.928 1.46-.138 2.357-.612 3.079-1.28 2.164-2.005 4.264-4.033 6.459-6.041.611-.563 1.444-1.06 2.119-1.599.595-.439 1.341-.894 1.652-1.392.568-.927 1.52-1.468 3.127-1.655 1.82-.212 3.519-.132 4.774.614.528.307.914.724 1.557 1.233 2.591-.455 5.418-.722 7.984-1.389 4.916-1.341 9.747-1.287 14.61-1.237 1.632.025 2.453.483 2.63 1.477.062.27-.209.578-.359.873.397-.016.738.006 1.048.032z" fill="#55ADBB" fill-opacity=".2"/><path d="M212.978 286.071c-2.332-1.021-4.66-2.011-6.962-3.035a7.885 7.885 0 0 1-1.785-1.084c-1.625-1.288-1.616-1.473.196-3.068-.548-.49-1.131-1.006-1.687-1.557-.312-.302-.721-.654-.76-.988-.032-.273.252-.737.663-.907.38-.168 1.202-.232 1.584-.123.604.176 1.101.487 1.508.809 2.414 1.995 3.61 2.502 7.619 3.143 1.329-.462 2.662-.894 4.493-1.537-1.116-.086-1.703-.11-2.263-.168-.874-.114-1.775-.193-2.538-.412-2.664-.705-2.562-1.947.284-3.109-.539-.675-1.116-1.408.016-2.247 1.189-.876 2.704-1.329 4.477-1.412 3.084-.174 5.166.814 5.533 2.648.051.178.103.357.288.889.631-1.181 1.473-1.863 3.033-2.198 1.589-.339 2.986-.224 4.32.143 3.933 1.05 8.064 1.954 11.719 3.251 4.037 1.407 7.71 3.133 10.87 5.195.93.599 1.952 1.188 2.882 1.787.666.445.915 1.001.248 1.601-.665.631-1.71.629-2.721.655a4.772 4.772 0 0 1-.712-.041c-4.16-.623-8.52-.578-12.886-.593-1.136.009-2.317-.099-3.272-.388-1.175-.325-2.214-.266-3.544-.08-1.968.259-3.987.34-5.949.384-1.443.014-2.621-.065-3.704.923-.89.81-3.453.708-4.863-.05-1.119-.639-2.181-1.315-3.24-1.961-1.589-.984-3.343-1.795-5.658-2.141-.375-.048-.803-.029-1.632-.025.953 1.058 2.109 1.754 3.521 2.266 1.189.446 2.543.719 3.812 1.064.635.172 1.304.371 1.851.584.743.314 1.282.712.772 1.356-.455.576-1.306.921-2.264.878-1.11-.025-2.176-.208-3.296-.324l.047-.128z" fill="#55ADBB" fill-opacity=".2"/><path d="M212.856 286.085c1.169.54 2.308 1.085 2.459 2.113.021.182.311.302.514.463 1.774 1.239 1.788 1.36.029 2.887-.084.072-.1.197-.027.034.739.806 1.339 1.475 1.94 2.143.139.137.285.336.538.399 1.546.343 1.671 1.158 1.554 2.002a11.011 11.011 0 0 1-.287 1.756c-.305 1.081-.772 2.089-2.891 2.366.549 1.289 1.085 2.457 1.529 3.636.359.973-.213 1.87-1.575 2.582-1.358.742-2.939.895-4.508.616-.597-.115-1.111-.301-1.364-.364-1.108.775-1.9 1.635-3.101 2.144-1.436.598-3.307.631-4.94 1.128-.714.206-2.267-.198-2.93-.613-1.424-.88-2.593-1.943-3.67-3.017-.383-.386-.457-1.024-.271-1.537.431-1.312.422-2.448-1.712-3.092-.989-.316-1.478-.813-.918-1.554.479-.64 1.91-1.022 3.286-.813 1.377.209 2.68.58 4.034.854.283.059.57.149.823.211 1.41-.563 2.729-1.116 4.405-1.773-1.06-.122-1.835-.186-2.584-.283-.935-.107-1.587-.431-1.658-1.038-.04-.61.619-1.025 1.504-1.343.148-.048.33-.07.478-.117 2.727-.871 2.943-1.388 1.002-2.485a170.29 170.29 0 0 0-4.875-2.54c-1.501-.748-2.682-1.656-3.278-2.817-.634-1.218-.004-2.152 2.021-2.972 1.851-.738 3.746-1.358 5.964-1.309 2.621.065 3.324.567 2.8 2.135 1.912.055 3.854.106 5.796.157.034.027-.087.041-.087.041zm146.763 205.662c1.854-.184 3.09-.39 4.314-.44 2.383-.123 3.028.14 3.153 1.479.051.701.619 1.097 1.289 1.572 2.545 1.796 4.494 3.753 3.456 6.457-.07.193-.015.401-.18.574-1.032 1.166-.935 2.262-.646 3.428.293 1.196-.263 1.968-1.367 2.25-1.644.406-2.524-.291-3.288-.786-.667-.446-.903-1.156-1.25-1.762-.436-.841-.811-1.689-1.231-2.655-1.024.18-1.718.292-2.439.437-2.257.416-3.084.174-3.539-1.096-.311-.825-.403-1.614-1.899-2.055-1.242-.378-.886-1.281.436-1.803.353-.134.805-.217 1.158-.35 1.599-.525 2.001-1.033 1.524-1.961-.357-.697-.688-1.427-1.107-2.117-.153-.259-.488-.497-.869-.606-1.658-.515-1.646-1.469-1.108-2.393.434-.758.249-1.29-.431-1.857-1.057-.892-1.101-1.533-.321-1.962.868-.469 2.045-.391 3.505.27.615.266 1.439.478 1.822.864.871.883 1.681 1.773.096 2.941-.488.303-.61.84-1.078 1.571zm-17.095-11.943c-1.732.171-3.467.311-5.196.512-.637.074-1.29.273-1.882.465-2.845.915-5.179.664-6.788-.749-.721-.654-1.557-1.233-2.218-1.895a.888.888 0 0 1-.2-.93c.416-.909.988-1.806 1.432-2.75 1.087-2.279 5.564-3.691 9.018-2.801.506.126 1.043.248 1.523.407 1.344.459 2.716.361 4.265-.065 1.4-.378 2.861-.763 4.347-.936 2.548-.296 3.403.189 3.781 1.59.324 1.193-.817 2.217-1.429 3.303-.15.294-1.201.509-1.891.651-1.017.241-2.075.395-3.156.613-.255.983-.271 1.907-1.7 2.565l.094.02zm-19.254-14.923c.991-.731 1.575-1.26 2.294-1.682 1.062-.646 2.427-.805 3.47-.557 1.202.291 1.9 1.009 1.597 1.844-.159.48-.565.958-.943 1.402-.433.511-1.088.956-1.395 1.484-.83 1.327-2.072 2.271-4.979 2.117.425.75.819 1.227 1.037 1.786.26.646.459 1.3.536 1.967.048.671-.438 1.251-1.525 1.685-1.437.597-2.765 1.336-4.239 1.876-2.325.886-3.425.675-4.531-.641-1.177-1.401-1.084-6.148.237-7.747.65-.753 1.024-1.503.932-2.292a1.822 1.822 0 0 1 .263-1.169c.472-.701.614-1.332.169-1.988a.943.943 0 0 1-.022-.981c.415-.664 1.065-1.416 2.342-1.534 1.156-.103 2.321.13 2.826.779.502.618.856 1.284 1.211 1.951.272.491.423.996.72 1.7zm101.493-19.029c-1.05 1.014-1.801 1.963-2.936 2.771-1.935 1.332-4.094 2.598-6.191 3.857-1.062.646-2.439.96-3.745.835-1.896-.179-3.745-.487-5.564-.798-3.108-.562-6.231-.721-9.55.341-1.067.339-1.81.026-1.585-.677a25.35 25.35 0 0 1 .868-2.315c.407-1.001 1.815-1.841 3.679-1.935 2.444-.13 4.92-.51 7.193.271 2.02.719 7.638-.396 9.277-1.632 1.273-.948 2.84-1.745 3.808-2.934.67-.847 2.343-1.533 3.783-2.1 2.089-.797 4.065-.196 4.466 1.141.11.418.702.749 1.142 1.098.136.107.53.061.635.172.353.389.921.785.876 1.19-.058.56-1.014.794-1.897.866-.732.054-1.5.051-2.239.045-.654-.078-1.278-.159-2.02-.196zm-86.026-116.276c-.227.426-.404.754-.612 1.086-.745 1.255-1.67 1.763-3.143 1.78-1.875.003-3.379-.776-3.506-1.868-.032-.273.058-.56.103-.965-1.458.415-2.73.84-4.043 1.177-1.162.32-2.066.209-2.64-.493-.817-.95-1.445-1.862-.734-3.144.688-1.218.506-2.519.915-3.766.591-1.791 2.254-2.292 4.834-1.515.763.219 1.415.543 2.041.9.557.305.971.687 1.509 1.086 3.274-.658 5.324.058 6.94 1.53.891.789 2.276 1.335 3.543 1.926.683.32 1.507.532 1.096 1.226-.412.693-1.27.978-2.372 1.014-1.224.05-2.458.008-3.931.026zM210.622 460.387c1.278-.641 2.666-1.387 4.126-2.048 1.487-.696 2.663-1.417 3.082-2.573.589-1.545 3.578-2.538 6.697-2.409 1.204.045 2.486.234 3.662.036 1.506-.267 2.983-.777 4.4-1.28.767-.274 1.43-.659 2.271-.295.774.31.709.809.428 1.303-.915 1.644-2.189 3.115-5.206 3.865-1.943.472-3.537 1.304-5.063 2.188-2.592 1.501-5.282 2.952-8.11 4.265-1.312.614-3.111 1.007-4.691 1.16-2.979.285-4.212-.802-3.084-2.471.304-.558.888-1.087 1.488-1.741zm149.957 7.629c-2.039.975-4.001 1.541-6.29 1.684-.549.033-1.108.252-1.64.437-.706.267-1.438.321-1.673-.113-.156-.29.087-.841.464-1.038.608-.317 1.5-.575 2.285-.697 3.67-.426 6.286-1.714 8.377-3.557 1.031-.919 2.129-1.785 3.288-2.658.48-.363 1.119-.684 1.799-.916 1.093-.374 2.115-.308 2.967.147.852.454.836 1.102.154 1.581-1.529 1.131-1.842 2.398-2.342 3.655-.263.646-.39 1.399-.138 1.985.359.973.283 1.904-.218 2.885-.25.491-.531.985-.629 1.457-.141.909-1.01 1.625-2.042 2.268-.773.489-1.674.932-2.511 1.399-1.85 1.014-2.51 1.153-3.695.737-1.473-.506-1.967-1.586-1.228-2.625.637-.874 1.175-1.798 1.905-2.652.674-.816.953-1.586.824-2.433-.023-.458.251-1.013.343-1.546zm-93.811-122.968c.751-.149 1.464-.355 2.219-.473 1.449-.23 3.062.167 3.507.822.446.656-.152 1.863-1.556 2.211-2.269.572-2.76 1.643-3.465 2.71-.288.433-.515.859-.898 1.273-.878.901-1.393 1.761-1.3 2.826.051.702-.68 1.556-1.401 2.224-.802.77-2.213 1.057-3.586.878-2.278-.289-4.532-.642-6.782-.964-1.094-.15-1.962-.48-1.895-1.226.098-.749 1.138-1.055 2.242-1.337.805-.216 1.528-.608 2.258-.939.407-.201.644-.536 1.058-.676 3.612-1.189 3.818-3.12 4.179-5.038.091-.533.058-1.083.4-1.584.87-1.239 2.369-1.567 4.189-.979.283.059.54.152.831.272zm107.509 6.015c1.552.926 3.195 1.043 4.78 1.197 1.276.128 2.604.189 3.799.419 1.38.24 1.973.847 1.646 1.47-.374.751-1.414 1.056-2.539 1.156-1.16.073-2.353.12-3.47.034a251.68 251.68 0 0 1-9.054-.946c-1.528-.191-3.023-.356-4.643-.014-2.671.557-3.973 1.785-3.664 3.379.069.33-.094.779-.464 1.038-.228.149-1.068.062-1.598.001-.374-.049-.874-.114-1.046-.278-1.139-1.067-2.748-1.957-2.47-3.527.207-1.131 1.073-1.877 2.729-2.439a317.21 317.21 0 0 1 5.066-1.635c1.127-.346 8.287-.625 9.33-.377.794.215 1.439.479 1.598.522zm-1.598-12.426c1.412-.01 2.556.041 3.685-.029 1.129-.069 2.12 0 2.965.394 1.819.834 3.637 1.668 5.509 2.435.611.236 1.451.323 2.227.387 1.559.188 2.425.764 2.281 1.641-.147.848-1.24 1.498-3.006 1.641-2.009.173-3.763-.116-5.253-.773-1.457-.63-2.849-1.237-4.856-1.311-.677-.014-1.353-.273-1.934-.513-2.45-.977-4.846-2.021-7.265-3-1.449-.57-1.683-1.527-1.705-2.508-.015-.921.927-1.277 2.307-1.037.912.17 1.796.375 2.734.512 1.603.306 2.735.789 2.311 2.161zm-194.195-69.285c-2.885-1.018-2.916-1.291-.911-2.816-.84-.087-1.643-.117-2.396-.245a15.113 15.113 0 0 1-1.957-.449c-.737-.252-1.218-.688-.725-1.207.386-.383 1.213-.941 1.826-.95 3.364-.145 6.512.227 9.238 1.201 1.121.393.915 1.001-.313 1.544-.41.171-.885.318-1.568.52 2.1.617 3.806 1.28 2.675 2.919.983.254 1.726.568 2.603-.088.907-.659 1.927-.87 3.102-.545 1.114.332 1.217.689.563 1.934.26.123.638.202.841.363 1.053.862.326 1.746-1.591 1.908-1.827.15-3.575-.077-4.785-.705-1.308-.678-2.844-.93-4.497-1.138-.563-.088-1.12-.116-1.653-.208-1.418-.296-1.54-.559-.76-1.511.104-.165.181-.297.308-.527zm82.158 62.661c-1.752-.534-1.767-1.455-1.213-2.504a73.87 73.87 0 0 1 1.497-2.727c.384-.659 1.123-1.176 2.299-1.374 1.327-.216 2.656-.155 3.229.547 1.069 1.26 3.064 1.766 5.204 2.194.378.079.756.158 1.077.274 2.118.769 2.452 1.53 1.276 3.051-1.038 1.381-2.481 1.918-4.866 1.765-2.169-.148-4.314-.36-6.433-.606-.722-.131-1.371-.425-2.07-.62zm-92.468-66.476c.829 1.318 3.25 2.051 5.507 2.958.483.19.652.847.516 1.262-.179.575-1.18.691-2.07.702-2.026.02-4.108.355-6.143.038-1.002-.161-2.285.173-3.448.216-1.069.063-2.164.159-3.159.06-1.65-.178-1.824-.619-1.789-1.638.057-1.359.95-2.14 3.369-2.483.998-.146 1.956-.627 2.895-1.013 1.611-.679 2.676-.772 4.322-.102z" fill="#55ADBB" fill-opacity=".2"/><path d="M342.433 479.813c.654-.199 1.374-.344 1.99-.601 1.171-.505 2.189-.469 3.189-.063 1.261.53 2.662.952 3.865 1.519.389.17.782.647.629.911-.184.268-1.066.616-1.528.608-1.389-.053-3.061.11-3.757-.855-.112-.171-.699-.195-1.363-.087.23.127.433.288.721.377 1.201.291 1.814.804 2.115 1.538.17.411.728.715.926 1.092.123.263.084.728-.232.919-.315.19-1.222.327-1.546.18-.801-.276-1.46-.661-2.062-1.083-.565-.365-.814-.92-2.085-.742-.316.714-.538 1.447-1.014 2.117-.211.301-1.014.795-1.354.773-.591-.055-1.213-.382-1.434-.695-.299-.457-.271-1.014-.42-1.765-.786.644-1.312 1.136-1.907 1.574-.537.401-1.267.732-1.896.344-.298-.181-.267-.707-.026-1.012.422-.603 1.059-1.2 1.674-1.732.392-.323.866-.747 1.435-.874 2.034-.483 3.152-1.443 4.232-2.461l-.152.018zm-12.82 8.963c-1.404-.975-2.677-1.872-3.979-2.766-.102-.081-.2-.131-.332-.208-2.041-.901-3.827-1.985-5.609-3.038-1.39-.854-2.416-1.749-3.244-2.791-.034-.027-.041-.087-.079-.145-.265-.43-.881-.974.065-1.299.679-.233 1.964-.29 2.511-.076.966.379 1.57 1.078 2.541 1.765 2.806.073 3.819 1.647 4.803 2.978 1.168 1.586 2.793 2.874 5.179 3.827l2.513.999c.706.256 1.328.584.687 1.15-.527.492-1.269.455-1.994.294-.284-.06-.625-.081-1.09-.12-.025.311.067.577-.09.811-.385.659-1.378.836-2.075.395-.92-.509-.825-1.012.193-1.776zm88.852-124.582c-.742-.559-1.845-1.323-2.803-2.165-.857-.762-1.566-1.571-2.275-2.38-.919-1.032.198-2.269 2.261-2.232 2 .014 4 .304 5.826.676.598.115 1.077.798 1.069 1.26-.023.864.365 1.557.942 2.289.967 1.18.221 2.158-1.883 2.833-1.037.336-1.931.317-3.137-.281zm-60.001 182.921c.669.199 1.266.314 1.753.534 1.355.55 1.057 1.691-.641 1.889-2.968.376-5.892.87-8.847 1.367-.603.101-1.535-.252-1.972-.571-.538-.398.313-.743.79-1.137.423-.326.707-.79.847-1.175.195-.699.843-1.205 1.908-1.298 2.983-.255 3.477-1.819 4.854-2.933.141-.108.056-.314.197-.422.426-.296.896-.75 1.385-.776.515-.06 1.252.192 1.53.468.857.761.618 1.619-.169 2.51-.497.489-1.054.984-1.635 1.544zm-27.92 5.71c-.656-.877-1.354-1.596-1.752-2.38-.242-.495.575-.867 1.367-.928 1.732-.17 3.495-.345 5.211-.39.981-.022 1.949.111 2.86.282 1.222.196 2.408.089 3.627-.268.861-.254 1.757-.481 2.663-.617 1.718-.292 2.934.12 3.097.993.156.813-.72 1.468-2.415 1.696-2.419.343-4.815.621-7.238.934-1.482.203-2.957.466-4.447.609-.944.079-1.901.036-2.973.069zM462.44 387.9c1.311 1.232 2.683 2.456 3.846 3.736.495.557.357 1.219-.784 1.721-.908.382-2.24.291-3.049-.322-.914-.724-2.107-1.201-3.555-1.494-1.417-.296-2.291-.933-2.814-1.733-.781-1.17-.349-1.682 1.847-2.091 1.715-.322 2.892-.244 4.509.183zM198.842 279.227c-.519-.493-1.166-1.033-1.6-1.597-.329-.454-.641-.756-1.629-.795-1.14-.021-1.806-.467-1.891-1.195-.039-.334-.536-.645-.636-.972-.151-.505-.332-1.007-.146-1.52.117-.322.708-.79 1.216-.911.391-.076.983.255 1.462.415.227.096.44.348.622.327 1.911-.222 2.721.668 3.941 1.111 1.348.489 1.288.772.224 1.665-1.121.93-1.077 1.048.251 1.631.615.267 1.382.516 1.731.876.281.305.22.835-.075 1.208-.134.169-1.206.202-1.792.177-.56-.057-1.044-.247-1.678-.42zm-10.76-.81c.524-.246.935-.417 1.247-.637 1.462-.909 2.615-1.043 3.936-.519 1.452.599 1.931 1.805.863 2.667-.534.431-1.314.86-2.145 1.111-1.303.428-2.68.742-4.035.991-1.414.257-2.282-.072-2.583-.806-.26-.647-.546-1.259-.714-1.916-.066-.3-.048-.671.16-1.003.495-.765 1.549-.949 2.469-.441.263.154.47.345.802.553zm70.044 69.757c.403.291.863.545 1.175.847.623.604.35 1.159-.727 1.684-.814.402-1.631.774-2.445 1.176-1.513.73-5.416.999-6.835.426-1.608-.613-1.385-1.869.54-2.493 1.336-.401 2.518-.815 3.64-1.469 1.157-.626 3.585-.632 4.652-.171zm-139.727 1.053c-1.3.981-2.099.982-2.899.183-.627-.634-1.372-1.224-1.938-1.866-.319-.363-.399-.784-.539-1.198-.14-.414-.16-.843-.27-1.26-.268-.984-1.107-1.594-3.012-1.588-.984-.008-2.481.073-2.071-.897.366-.811 1.625-.558 2.549-.542 2.337.005 4.002.58 4.707 1.882.119.232.215.529.502.618 2.569.686 2.278 2.411 3.252 3.651.251.309-.212.824-.281 1.017zm6.704 6.108c-.958-.043-1.966.013-2.843-.131-1.846-.277-4.34-.049-4.682-1.67-.018-.152-.695-.165-1.02-.312-1.547-.62-1.295-1.356.566-2.003 1.242-.421 2.425-.559 3.593-.295 2.4.551 3.883 1.671 4.81 3.039.224.343-.322.929-.546 1.386l.122-.014zm256.312 149.932c.202-.116.568-.404 1.019-.488.479-.117 1.153-.134 1.538.006.223.066.226.62-.003.769-1.831 1.167-.614 1.855.398 2.63 1.682 1.25 1.775 2.838 1.715 4.444-.038.466-.504.951-1.397.932-.523-.001-1.206-.322-1.328-.584-.338-.791-.635-1.495-2.056-1.822-.348-.082-.554-.796-.272-1.014 1.121-.93.498-1.534-.17-2.256-.841-.886-.602-1.744.556-2.617zm-72.125 29.451c.423-.326.709-.513.991-.73 1.166-.812 1.796-.947 3.247-.623.82.181 1.637.332 2.4.551 1.685.481 1.771 1.486.038 2.179-1.588.615-3.342 1.127-5.039 1.601-1.074.278-2.215-.019-2.872-.65-.59-.578-.596-1.161.321-1.729a9.64 9.64 0 0 1 .914-.599zM193.809 265.816c1.234.564 1.217 1.212.087 1.804-1.301.705-4.869 1.212-5.928.566-1.025-.619-1.532-1.544-1.971-2.415-.201-.407.811-.956 1.513-.73 1.594.492 3.498.209 5.161.507.5.065.915.202 1.138.268zm10.494 6.715c-.766.55-1.918.684-2.278.234-.855-1.008-2.82-1.518-3.173-2.707-.099-.327-.351-.636-.329-.977-.006-.583.656-.968 1.607-.986 1.436-.075 2.532.105 3.45.86 1.09.919 1.715 1.8 1.054 2.984-.127.23-.254.46-.331.592zm175.566 230.271c-.91.105-1.826.151-2.702.283-1.692.258-2.699-.209-3.336-.934-.211-.222-.176-.718.11-.905.316-.191 1.32-.277 1.519-.146 1.073.767 2.447.423 3.831.17.183-.544-.394-1.277 1.058-1.477 1.24-.174 1.621.458 1.84 1.017.293.673.529 1.384.611 2.082.06.515-.373 1.027-1.407 1.117-.974.082-1.206-.322-1.259-.777-.014-.121-.119-.232-.265-.43zM256.547 375.298c-.172.112-.309.251-.511.367-1.207.725-2.716.962-3.621.575-1.001-.407-1.085-1.135.127-2.076 1.075-.801 2.44-1.483 3.742-2.188.783-.398 1.744-.325 2.218.05.339.268.467.838.229 1.173-.529.738-1.372 1.42-2.086 2.149-.034-.027-.064-.023-.098-.05zm43.561 74.099c.834-.496 1.489-.942 2.216-1.303 1.247-.637 2.31-.484 2.56.348.357 1.22-.483 2.455-1.586 3.537-.55.556-1.706.66-2.692.374-1.304-.371-1.955-1.218-1.433-2.017.264-.369.687-.695.935-.939zm53.544 33.324c.618-.502 1.988-.877 3.431-.891.644-.013 1.464.168 1.772.44.207.191-.117.844-.524 1.045-2.095 1.013-4.258 1.971-6.421 2.93-.262.123-1.072.033-1.275-.128-.203-.161-.158-.566.06-.807.832-.773 1.759-1.527 2.957-2.589zM205.43 272.708c1.608-1.232 2.65-1.261 3.434-.337.431.534.747 1.143.788 1.753.022.459-.175.882.158 1.366.435.564-.361 1.118-1.417 1.026-.81-.091-1.671-.36-2.141-.705-.644-.509-1.116-1.131-1.281-1.758-.093-.542.389-1.152.459-1.345zm215.423 94.038c-.164-.35-.608-.729-.465-1.084.12-.29.914-.598 1.484-.726 2.424-.558 4.7-.023 5.31 1.259.163.35.011.891-.348 1.24-.47.454-1.306.398-2.005.202-1.232-.287-2.525-.567-3.976-.891zm49.864 27.325c.501.342.866.576 1.174.848.583.516.65 1.093-.214 1.593s-2.057.547-2.717.162a14.379 14.379 0 0 1-2.712-2.176c-.386-.416.531-.984 1.493-.911 1.082.058 2.095.31 2.976.484zm-95.732 133.073c-1.338.924-3.171 1.014-3.718.278-.472-.622-.621-1.373-.671-2.075-.03-.519.595-.961 1.528-1.131.933-.17 1.598-.001 1.935.514.261.4.819.704.929 1.122.178.471.026 1.012-.003 1.292zM501.46 417.13c.89.512 1.535.775 1.975 1.124.271.214.415.659.194.869-.222.21-1.027.427-1.462.385-1.154-.143-2.288-.38-3.391-.62-.757-.159-1.537-.529-1.014-1.051.413-.417 1.351-.803 2.136-.925.63-.135 1.343.182 1.562.218zm-147.937 70.835c.018.152.276.521.061.792-.191.207-1.09.404-1.498.328-1.846-.277-3.665-.588-5.102-1.313-.294-.151-.488-.497-.361-.727.127-.23.622-.472 1.036-.613.235-.089.697-.081.954.012 1.53.468 2.999.943 4.91 1.521zm-12.017 4.225c-.8.524-1.892.651-2.901.43-.945-.198-1.812-.251-2.866-.067-.391.076-1.184-.139-1.27-.344-.088-.236.263-.646.637-.874.315-.191.942-.356 1.404-.348a55.992 55.992 0 0 1 4.653.105c.806.06.961.596.343 1.098zm162.103-53.138c-.574-.702-1.201-1.336-1.525-2.006-.122-.263.273-.831.656-.968.475-.148 1.55-.15 1.757.042.759.711 1.316 1.538 1.809 2.342.079.145-.452.606-.785.645-.573.097-1.201-.014-1.912-.055zm-126.755 16.923c-.673.294-1.335.678-2.083.857-.509.121-1.466.079-1.707-.14-.308-.271-.42-.966-.1-1.126a18.6 18.6 0 0 1 3.717-1.601c.771-.243 1.404.175 1.191.723-.197.423-.643.813-1.018 1.287zm6.402 68.021c-.239.059-.683.203-.994.177-.34-.022-.797-.246-.784-.401-.037-.58-.043-1.163.197-1.745.216-.517.709-1.036 1.206-1.524.221-.21.803-.493 1.174-.475.371.019.709.287.98.501.136.108.187.286.11.418-.622.995-1.213 1.986-1.889 3.049zm-344.51-86.595c-.128-.047-.257-.093-.389-.17-.713-.317-1.368-.671-.644-1.309.53-.462 2.188-.747 2.982-.531.064.023.158.043.222.066 1.186.416 1.748 1.55 1.043 2.093-.645.536-1.727.478-3.214-.149zm238.372-42.719c-.846.129-1.354.25-1.786.238a36.139 36.139 0 0 1-3.764-.392c-.409-.076-.943-.444-.874-.637.067-.223.843-.682 1.154-.657 1.574.063 3.13.22 4.635.476.374.049.4.538.635.972zm182.008.951c-.488-.497-.955-.812-1.153-1.188-.286-.613.297-1.419 1.048-1.568 1.077-.248 1.414.267 1.914.608.302.211.515.463.759.712.455.47.677 1.059-.356 1.425-.63.135-1.538-.006-2.212.011zm-192.468-4.997c-.91-.694-1.678-1.22-2.238-1.8-.21-.222.139-.662.221-1.01.587.024 1.432-.105 1.76.072a7.548 7.548 0 0 1 2.035 1.639c.214.252.065.823-.281 1.017-.289.157-1.099.067-1.497.082zM469.23 438.13c.176.195.372.295.416.413.162.596.388 1.216.337 1.837-.002.246-.509.643-.954.787-.265.093-1.025-.096-1.167-.264-.408-.598-.759-1.234-.893-1.864-.059-.24.478-.64.889-.811.38-.167.974-.083 1.372-.098zM285.24 327.061c-.842-.364-.969-.933-.314-1.379.685-.448 2.86-.517 3.708-.092.622.327.641.755.043 1.163-.701.574-2.498.721-3.437.308z" fill="#55ADBB" fill-opacity=".2"/><path d="M124.98 355.349c1.032.157 2.39-.063 2.987.575.244.249.32.64.136.907-.104.166-.821.342-1.249.361-2.141.095-2.88-.711-1.756-1.888.003.031-.118.045-.118.045zm-13.69-4.341c-1.132-.484-1.364-.888-.685-1.397.621-.472 1.338-.648 2.146-.311.97.41 1.382 1.315.663 1.737-.803.494-1.476.264-2.124-.029zm85.274-79.482c-.307.005-.91.105-1.292-.004-.732-.222-.972-1.486-.336-1.837.346-.194 1.138-.255 1.516-.176.827.242.931 1.399.112 2.017zM247.91 372.92c-1.204-.044-1.965.014-2.509-.169-.287-.09-.351-.636-.129-.846.47-.455 1.349-.557 1.914-.192.362.204.408.598.724 1.207zm19.61 2.394c.049-.375.097-.75.143-1.155.219.036.465.038.469.069-.019.371-.071.715-.12 1.09-.185-.009-.34-.022-.492-.004z" fill="#55ADBB" fill-opacity=".2"/><path d="M200.449 301.317c.381-1.398.551-2.839.551-4.323 0-9.408-7.631-16.994-17-16.994s-17 7.628-17 16.994c0 1.484.212 2.925.551 4.323.424 1.653 1.145 3.221 2.035 4.662 3.052 6.738 7.165 14.452 14.414 26.276 6.571-11.273 11.87-20.682 14.668-26.615a19.338 19.338 0 0 0 1.781-4.323z" fill="#EFC514"/><path d="M184.001 305.046a8.053 8.053 0 0 0 8.055-8.052 8.053 8.053 0 0 0-8.055-8.052 8.054 8.054 0 0 0-8.055 8.052 8.054 8.054 0 0 0 8.055 8.052z" fill="#fff"/><g clip-path="url(#a)" fill-rule="evenodd" clip-rule="evenodd"><path d="M258.09 181.072c5.97.993 11.941 2.235 17.662 4.471 0 5.961 2.986 7.7 8.21 4.967-5.971 0-5.224-1.241-5.473-5.712v-1.491c0-1.49.746-1.987 2.487-1.49 4.23.994 2.986 2.236 3.981 5.465 1.741-5.217 1.244-5.962-3.234-7.452-3.483-.745-4.478 0-5.722 2.981-5.224-.994-10.448-2.981-15.424-5.465-.995 1.242-1.741 2.484-2.487 3.726z" fill="#131414"/><path d="M245.402 164.927c-.746 2.484 5.971 9.439 10.698 15.152 1.741 1.987 1.492 1.242 3.98-.249 2.488-1.49 2.736-.745 2.488-3.477-.498-4.968-1.244-9.935-3.234-12.667-6.22-1.739-10.449-1.242-13.932 1.241z" fill="#AEAEAF"/><path d="M273.264 180.824c5.971 0 12.19.497 17.912 1.987.746 5.961 3.98 7.203 8.956 3.477-5.722.994-5.473-.497-6.22-4.967 0-.497-.248-.994-.248-1.491 0-1.49.497-1.987 2.239-1.987 4.477.249 3.234 1.739 4.726 4.719.995-5.464.498-6.209-4.478-6.706-3.482-.248-4.229.745-5.224 3.974-5.473-.248-10.697-1.242-16.17-3.229-.498 1.491-.995 2.981-1.493 4.223z" fill="#30302F"/><path d="M310.829 144.56c-32.091-11.426-64.929-22.355-91.548-38.003-7.214-10.432-16.17-13.66-27.613-4.967-5.722.745-11.195 2.483-16.419 4.967 4.229.994 8.458 1.739 12.687 2.732 4.976 3.229 9.454 6.707 12.439 10.433 4.727 5.961 6.468 14.654 10.697 22.106 19.902 33.78 60.949 36.264 95.777 16.393 25.374 4.471 79.358 45.454 90.552 23.845 34.828 13.412 38.062-5.713 18.907-9.936-40.798-7.203-64.68-15.151-105.479-27.57z" fill="#40484C"/><path d="M306.6 157.971c25.374 4.471 79.358 45.455 90.552 23.845-22.887-4.967-53.237-16.145-83.338-27.322-1.99 1.739-4.229 2.732-7.214 3.477z" fill="#30302F"/><path d="M210.824 141.579c16.17 27.322 46.022 34.277 75.377 25.335-32.838-6.706-62.69-60.357-69.158-42.474-1.493 9.936-3.234 18.132-6.219 17.139z" fill="#D7D8D8"/><path d="M191.419 101.589c-5.722.746-11.195 2.484-16.419 4.968 4.229.994 8.458 1.739 12.687 2.732 6.468-3.229 2.985-1.49 2.985-5.216 0-.745.249-1.242.747-2.484z" fill="#B6CAD5"/><path d="M175 106.557c4.229.993 8.458 1.738 12.687 2.732 2.737-1.242 3.732-1.739 3.98-2.236-4.229-1.738-16.667-.496-16.667-.496z" fill="#92A2AB"/><path d="M201.37 99.85c1.742 0 2.985 1.242 2.985 2.981 0 1.738-1.243 2.98-2.985 2.98-1.741 0-2.985-1.242-2.985-2.98-.249-1.491 1.244-2.98 2.985-2.98z" fill="#80D7DE"/><path d="M201.37 101.341c.746 0 1.492.745 1.492 1.49s-.746 1.49-1.492 1.49c-.747 0-1.493-.745-1.493-1.49-.249-.745.498-1.49 1.493-1.49z" fill="#131414"/><path d="M199.877 101.837c.498 0 .747.249.747.746 0 .496-.249.745-.747.745-.497 0-.746-.249-.746-.745 0-.497.249-.746.746-.746z" fill="#FEFEFE"/><path d="M258.338 166.665c-.248 2.484 7.215 8.445 12.688 13.413 1.99 1.739 1.492.993 3.731-.745 2.239-1.739 2.488-1.242 1.742-3.974-1.244-4.72-2.737-9.439-5.224-12.171-5.722-.745-9.951.497-12.937 3.477z" fill="#C2C3C3"/><path d="M230.227 109.289c16.419-28.564 27.365-59.612 32.838-93.889 4.478-27.322 14.18-13.91 14.18 5.216 5.224-2.483 12.936.994 8.458 17.139 8.458-1.242 11.692 5.464 9.951 20.367 3.98 0 7.214 1.49 3.731 12.916 4.727 3.974 6.966 8.942-2.487 17.387 2.985 4.47 5.721 9.19-4.229 17.138 3.482 5.713 4.726 11.674-8.956 17.387 3.731 9.439-8.956 15.648-19.404 11.177-12.19-5.216-24.877-2.235-33.584-2.235-15.424.248-9.454-8.445-4.727-15.897 1.493-1.987 2.985-4.222 4.229-6.706z" fill="#6B777E"/><path d="M230.228 109.289c15.175-26.08 25.623-54.892 31.593-85.94 5.225 1.241 8.459 4.47 7.712 11.177 7.215.497 10.449 4.72 7.463 15.896 5.971 1.49 8.956 5.216 5.473 13.165 4.478 1.49 7.712 3.974 4.23 12.667 1.99 2.236 2.985 4.72-1.742 9.687 4.229 4.223 4.229 9.439-3.483 16.642 3.234 5.713 2.239 10.432-6.965 13.661-1.99 12.916-8.458 14.654-15.424 15.648-10.448-2.484-20.648-.248-27.862-.248-15.424.248-9.454-8.445-4.727-15.897.995-1.739 2.488-3.974 3.732-6.458z" fill="#30302F"/></g><g clip-path="url(#b)"><path d="M286.554 224.354s12.792-31.504-7.009-34.654c-18.224-2.8-13.142 26.253-13.142 26.253" stroke="#131414" stroke-width=".692" stroke-miterlimit="10" stroke-linecap="round" stroke-linejoin="round"/><path d="M233.985 344.943l74.298 36.054 10.339-149.467-71.319-28.354v9.626l-21.378-3.15 8.06 135.291z" fill="#004C6C"/><path d="M294.09 402L340 383.973 318.622 231.53l-28.037-2.1 1.752 7.351L294.09 402z" fill="#55ADBB"/><path d="M294.09 402l14.193-30.979 26.811 9.976-25.759-16.801-9.112-134.066-9.638-.7 1.752 7.351L294.09 402z" fill="#1C93A4"/><path d="M207 348.269L294.089 402l-1.752-165.219-66.412-27.129-11.741 116.214L207 348.269z" fill="#69CDDC"/><path d="M266.579 237.481a2.802 2.802 0 0 1-2.804-2.8 2.802 2.802 0 0 1 2.804-2.801 2.802 2.802 0 0 1 2.803 2.801c0 1.546-1.255 2.8-2.803 2.8zm-19.802-9.102a2.801 2.801 0 1 1 0-5.6 2.802 2.802 0 0 1 2.804 2.8c0 1.547-1.255 2.8-2.804 2.8z" fill="#004C6C"/><path d="M286.379 227.154a2.802 2.802 0 0 1-2.803-2.8 2.802 2.802 0 0 1 2.803-2.801 2.802 2.802 0 0 1 2.804 2.801c0 1.546-1.255 2.8-2.804 2.8zm-19.8-7.876a2.801 2.801 0 0 1-2.804-2.8c0-1.547 1.255-2.8 2.804-2.8a2.801 2.801 0 1 1 0 5.6z" fill="#002C40"/><path d="M246.777 225.579s-13.843 31.153 5.783 34.829c18.224 3.5 14.018-25.728 14.018-25.728" stroke="#002C40" stroke-width=".692" stroke-miterlimit="10" stroke-linecap="round" stroke-linejoin="round"/></g><defs><clipPath id="a"><path fill="#fff" transform="matrix(-1 0 0 1 428 0)" d="M0 0h253v192H0z"/></clipPath><clipPath id="b"><path fill="#fff" transform="matrix(-1 0 0 1 340 189)" d="M0 0h133v213H0z"/></clipPath></defs></svg>