<svg width="249" height="243" viewBox="0 0 249 243" fill="none" xmlns="http://www.w3.org/2000/svg"><path d="M219.586 208.939c-6.364 6.556-12.057 10.418-16.416 13.33-42.526 28.393-91.128 20.207-106.158 17.409-24.244-4.516-44.714-7.698-62.298-23.582-39.954-36.1-38.01-111.404-7.48-158.053C30.852 52.516 61.34 7.323 110.054.95c1.195-.157 2.084-.244 2.86-.323 7.532-.802 54.234-5.013 92.305 26.895 5.448 4.568 14.218 12.806 22.352 25.368 29.737 45.917 29.833 117.063-7.985 156.049z" fill="#EDF1F4"/><path d="M63.448 11.385c-5.815.506-10.27 5.37-10.287 11.211-.105 35.682-.27 158.751 2.058 202.314a8.755 8.755 0 0 0 8.648 8.291c22.858.244 88.599.697 125.929-1.691 7.777-.497 13.827-6.94 13.818-14.725-.043-37.451-.645-142.762-5.771-190.902a12.033 12.033 0 0 0-11.037-10.723c-24.933-1.944-91.128-6.582-123.358-3.775z" fill="#55ADBB"/><path d="M62.341 31.941c-.444 30.521-1.726 132.049.506 169.527.322 5.475 4.577 9.799 9.834 9.982 21.629.749 77.101 2.214 108.703-1.264 5.693-.628 10.043-5.562 10.191-11.534.793-31.149 2.929-125.71.758-162.77-.348-5.91-4.864-10.627-10.522-11.01-23.416-1.579-83.56-5.214-110.438-2.982-5.048.427-8.953 4.768-9.032 10.051z" fill="#BBDEE4"/><path d="M114.596 16.694a1.58 1.58 0 0 0 1.534 1.552c4.159.131 15.884.488 21.124.672A1.582 1.582 0 0 0 138.858 17c-.018-.035-.148-1.325-1.474-1.421-3.548-.245-14.236-.916-21.306-.506-1.447.087-1.526 1.735-1.482 1.621z" fill="#1C93A4"/><path d="M87.727 124.115s29.815-7.48 61.313-2.973c8.866 1.273 16.712 6.425 21.498 13.992 8.622 13.634 20.801 37.94 18.221 63.282l-13.53 3.348s-9.346-30.076-19.868-42.316c0 0-12.458 28.402-11.831 43.999.018.444.044.871.088 1.29 1.429 15.256-59.814 2.85-59.814 2.85l3.923-83.472z" fill="#EDF1F4"/><path d="M119.958 98.65l-6.347 20.217c-.593 1.883 0 3.896 1.473 5.03 3.4 2.615 10.113 6.782 18.317 6.66 1.499-.026 2.763-1.299 2.868-2.877l2.258-33.79-18.569 4.76z" fill="url(#a)"/><path d="M144.533 76.498s2.467 15.92.915 23.53c-1.551 7.61-1.211 12.902-10.287 12.135-9.066-.767-15.239-7.009-17.235-15.518 0 0-3.173-13.138-.549-17.488 2.641-4.35 27.156-2.659 27.156-2.659z" fill="url(#b)"/><path d="M122.303 92.05l1.098.289s-2.083-10.453 2.31-11.037c4.394-.584 20.958.34 25.814-4.35 4.681-4.516 3.592-12.231-.262-15.318a.604.604 0 0 0-.81.079l-.541.593a.609.609 0 0 1-1.055-.401c-.008-.523-.636-.794-1.011-.436-1.473 1.395-5.004 3.365-12.902 2.78-11.22-.836-19.433 1.64-21.542 8.98a.61.61 0 0 1-1.038.244c-.662-.689-1.865-1.246-3.931-.27-3.584 1.7-4.072 8.421.985 15.387.244.331.113.81-.279.933-1.369.453-3.583 1.804.296 5.396 3.967 3.679 6.765 4.124 7.864 4.132.296 0 .549-.2.61-.488l1.316-6.66a.606.606 0 0 1 .75-.471l2.328.619z" fill="#FFD234"/><path d="M122.216 93.49s.026-9.747-4.743-8.265c-4.769 1.482-.567 10.784 2.633 11.987l2.11-3.723z" fill="url(#c)"/><path d="M88.974 188.156c-1.316-9.328 7.28-26.275 11.272-31.48a8.654 8.654 0 0 0 1.796-5.187c.114-13.207-5.431-21.69-14.315-27.383 0 0-32.247 37.574-24.035 66.465.89 3.121 2.258 5.797 4.002 8.099 1.29-10.88 14.933-10.008 21.28-10.514z" fill="#EDF1F4"/><path d="M89.13 187.72c-3.626.009-20.312.576-21.855 10.531 14.393 19.031 54.06 12.17 54.06 12.17v-7.41s-24.864-4.516-31.184-14.724a1.183 1.183 0 0 0-1.02-.567z" fill="url(#d)"/><path d="M117.935 208.8s5.858-13.818 16.18-8.918c10.322 4.899 9.511 8.107 9.511 8.107l-25.691.811z" fill="url(#e)"/><path d="M116.618 211.668a1.96 1.96 0 0 0 2.023 1.804l53.476-1.865a1.96 1.96 0 0 0 1.804-1.378l1.552-4.969a1.952 1.952 0 0 0-1.77-2.537l-19.502-1.037a2.228 2.228 0 0 0-.532.043l-35.525 7.873a1.967 1.967 0 0 0-1.526 2.066zm25.579-75.749c-1.134 9.267-6.234 46.902-7.698 57.66a2.467 2.467 0 0 0 2.519 2.798l86.516-2.476a2.475 2.475 0 0 0 2.346-1.935l13.46-60.606c.357-1.604-.924-3.104-2.554-3.008l-92.279 5.405a2.46 2.46 0 0 0-2.31 2.162z" fill="#1C93A4"/><path d="M176.972 173.928l-12.789 36.292 29.737.628 2.476-36.702c.113-1.726-1.317-3.156-3.034-3.034l-13.888.924a2.843 2.843 0 0 0-2.502 1.892z" fill="#1C93A4"/><path d="M152.135 210.735a1.54 1.54 0 0 0 1.465 2.023h46.562a1.54 1.54 0 0 0 1.543-1.544v-1.996c0-.88-.732-1.578-1.613-1.543l-46.562 1.996a1.545 1.545 0 0 0-1.395 1.064z" fill="#1C93A4"/><path d="M140.889 174.208l-.61-.079 4.254-33.52a4.364 4.364 0 0 1 4.063-3.809l79.742-4.813.035.619-79.742 4.812a3.744 3.744 0 0 0-3.488 3.27l-4.254 33.52zm-2.127 16.807l-.619-.079.924-7.262.61.079-.915 7.262z" fill="#BBDEE4"/><path d="M136.042 103.767c-9.607.724-15.196-9.206-15.248-9.31l.645-.358c.053.096 5.414 9.625 14.55 8.927l.053.741z" fill="#1C93A4"/><path d="M139.956 103.401a1.03 1.03 0 0 1-1.029 1.029h-2.746a1.03 1.03 0 0 1-1.029-1.029 1.03 1.03 0 0 1 1.029-1.028h2.746a1.02 1.02 0 0 1 1.029 1.028zm-18.499-19.963s3.452-17.689 13.608-19.354c0 0-2.877-1.447-5.876.122-2.998 1.57-10.583 10.182-10.269 19.668 2.057.74 2.537-.436 2.537-.436z" fill="#1C93A4"/><path d="M119.687 82.6c-5.283 1.073-4.629 7.75-4.629 7.75-.384 4.848 1.037 7.254 2.851 8.396a4.159 4.159 0 0 0 4.106.192 4.2 4.2 0 0 0 2.284-3.418c.096-1.316.209-2.571.305-3.016.235-1.081.366-10.976-4.917-9.903z" fill="#1C93A4"/><path d="M120.175 84.292a2.39 2.39 0 0 0-2.615 1.412c-3.156 7.315.714 12.066 2.624 12.17 2.005.105 1.961-9.546 1.543-12.013-.183-1.037-.846-1.447-1.552-1.569z" fill="#1C93A4"/><path d="M196.405 115.075c17.978 0 32.553-14.574 32.553-32.553 0-17.978-14.575-32.552-32.553-32.552-17.978 0-32.552 14.574-32.552 32.552 0 17.979 14.574 32.553 32.552 32.553z" fill="#fff"/><path d="M195.185 102.983c-1.535.105-2.964-.61-3.758-1.891l-13.321-21.403c-1.246-2.005-.575-4.75 1.5-6.137 2.075-1.386 4.769-.88 6.024 1.125l9.241 14.855 12.196-24.846c1.099-2.232 3.723-3.252 5.876-2.284 2.144.968 2.999 3.557 1.909 5.78l-15.762 32.134c-.723 1.473-2.153 2.484-3.748 2.641a.483.483 0 0 1-.157.026z" fill="#3CB4B7"/><path d="M90.239 234.316v-38.611c0-5.074-4.08-9.198-9.154-9.259-15.222-.165-46.623-.174-72.324 1.988-3.504.297-6.233 3.173-6.364 6.687L.01 232.45c-.175 4.935 3.722 9.067 8.665 9.154L81.4 242.99c4.855.096 8.84-3.818 8.84-8.674z" fill="#FCCAA7"/><path d="M81.416 199.881c.061 3.287-.035 8.5-.113 11.865a2.977 2.977 0 0 1-3.322 2.885l-12.527-1.464c-1.665-.192-2.842-1.735-2.598-3.4l1.534-10.261a2.982 2.982 0 0 1 2.947-2.537h11.106a2.964 2.964 0 0 1 2.973 2.912z" fill="#fff"/><path opacity=".37" d="M48.672 219.321l-10.453 1.125a2.36 2.36 0 0 1-2.607-2.52l2.284-31.087c4.386-.14 8.7-.244 12.877-.314v30.46a2.33 2.33 0 0 1-2.101 2.336z" fill="#fff"/><path d="M44.391 213.934a1.057 1.057 0 0 1-1.046.993h-.06a1.05 1.05 0 0 1-.986-1.107l1.578-27.138 2.11-.053-1.596 27.305z" fill="#fff"/><path d="M75.627 209.671c.183 0 .34-.139.35-.331l.54-8.543a.357.357 0 0 0-.332-.375c-.2-.018-.357.131-.375.331l-.54 8.544a.357.357 0 0 0 .331.374h.026z" fill="url(#f)"/><path d="M74.512 209.671c.191 0 .34-.148.348-.34l.288-8.709a.357.357 0 0 0-.34-.366c-.227-.009-.357.148-.366.34l-.288 8.709a.358.358 0 0 0 .34.366h.018z" fill="url(#g)"/><path d="M72.995 209.671a.35.35 0 0 1-.332-.366c.14-2.929.401-8.509.41-8.7a.35.35 0 0 1 .349-.349.35.35 0 0 1 .349.349c0 .148-.34 7.296-.41 8.726a.346.346 0 0 1-.349.331c-.008.009-.008.009-.017.009z" fill="url(#h)"/><path d="M70.676 210.029a.696.696 0 0 0 .697-.68c.297-8.439.244-8.631.21-8.753a.698.698 0 0 0-.864-.488.71.71 0 0 0-.514.767c.026.506-.13 5.414-.235 8.43a.695.695 0 0 0 .671.724h.035z" fill="url(#i)"/><path d="M69.159 209.671a.35.35 0 0 0 .348-.349v-8.543a.35.35 0 0 0-.348-.349.35.35 0 0 0-.349.349v8.543a.35.35 0 0 0 .349.349z" fill="url(#j)"/><path d="M67.93 209.671a.342.342 0 0 0 .348-.34c.07-2.973.227-7.82.366-8.404a.366.366 0 0 0-.008-.366.352.352 0 0 0-.488-.105c-.192.123-.375.245-.567 8.849a.344.344 0 0 0 .349.366z" fill="url(#k)"/><path d="M77.51 210.456c.367 0 .68-.287.698-.662l.47-8.971a.7.7 0 0 0-.662-.732.705.705 0 0 0-.732.662l-.47 8.971a.7.7 0 0 0 .662.732h.035z" fill="url(#l)"/><path d="M71.103 182.062v-27.121a6.5 6.5 0 0 0-6.425-6.504c-10.688-.113-32.745-.122-50.79 1.395a4.883 4.883 0 0 0-4.464 4.699L7.74 180.745a6.213 6.213 0 0 0 6.085 6.434l51.07.968a6.085 6.085 0 0 0 6.207-6.085z" fill="#FFAC73"/><path d="M64.913 157.878c.043 2.31-.026 5.972-.079 8.335a2.083 2.083 0 0 1-2.336 2.022l-8.796-1.029a2.095 2.095 0 0 1-1.822-2.388l1.08-7.21a2.09 2.09 0 0 1 2.067-1.778h7.802a2.104 2.104 0 0 1 2.084 2.048z" fill="#fff"/><path opacity=".37" d="M41.915 171.53l-7.34.794a1.657 1.657 0 0 1-1.831-1.77l1.604-21.829c3.077-.096 6.111-.166 9.04-.218v21.385c0 .845-.636 1.551-1.473 1.638z" fill="#fff"/><path d="M38.908 167.747a.743.743 0 0 1-.732.698h-.044a.746.746 0 0 1-.697-.776l1.107-19.057c.497-.009.985-.027 1.482-.035l-1.116 19.17z" fill="#fff"/><path d="M60.842 164.757a.24.24 0 0 0 .244-.227l.383-6.006a.245.245 0 1 0-.488-.035l-.383 6.006a.245.245 0 0 0 .226.262h.018z" fill="url(#m)"/><path d="M60.057 164.757c.13 0 .244-.104.244-.235l.2-6.12c0-.139-.104-.253-.235-.253a.23.23 0 0 0-.252.236l-.201 6.119c-.009.131.105.245.244.253-.009 0 0 0 0 0z" fill="url(#n)"/><path d="M58.994 164.757a.245.245 0 0 1-.236-.261c.096-2.058.288-5.972.288-6.111a.25.25 0 0 1 .244-.244c.14 0 .244.113.244.244 0 .104-.235 5.126-.288 6.128a.248.248 0 0 1-.244.236c0 .008 0 .008-.008.008z" fill="url(#o)"/><path d="M57.364 165.001a.49.49 0 0 0 .488-.471c.209-5.928.174-6.058.148-6.146a.493.493 0 0 0-.602-.348.486.486 0 0 0-.357.54c.017.358-.096 3.801-.166 5.92-.008.27.2.497.471.505h.018z" fill="url(#p)"/><path d="M56.3 164.757c.14 0 .244-.113.244-.244v-6.007a.244.244 0 1 0-.488 0v6.007c0 .131.104.244.244.244z" fill="#99CED6"/><path d="M55.437 164.759c.13 0 .244-.105.244-.244.043-2.084.157-5.492.253-5.902a.24.24 0 0 0-.01-.253.243.243 0 0 0-.34-.07c-.13.088-.26.175-.4 6.216.009.14.113.253.253.253z" fill="url(#q)"/><path d="M62.167 165.306c.261 0 .48-.2.488-.471l.331-6.303a.483.483 0 0 0-.462-.514.488.488 0 0 0-.514.462l-.331 6.303a.482.482 0 0 0 .462.514c.009.009.017.009.026.009z" fill="url(#r)"/><defs><linearGradient id="a" x1="114.828" y1="149.328" x2="129.402" y2="109.864" gradientUnits="userSpaceOnUse"><stop stop-color="#FEBBBA"/><stop offset="1" stop-color="#FF928E"/></linearGradient><linearGradient id="b" x1="142.533" y1="89.414" x2="99.829" y2="107.279" gradientUnits="userSpaceOnUse"><stop stop-color="#FEBBBA"/><stop offset="1" stop-color="#FF928E"/></linearGradient><linearGradient id="c" x1="139.638" y1="82.49" x2="96.933" y2="100.356" gradientUnits="userSpaceOnUse"><stop stop-color="#FEBBBA"/><stop offset="1" stop-color="#FF928E"/></linearGradient><linearGradient id="d" x1="85.162" y1="176.559" x2="107.204" y2="234.564" gradientUnits="userSpaceOnUse"><stop stop-color="#FEBBBA"/><stop offset="1" stop-color="#FF928E"/></linearGradient><linearGradient id="e" x1="113.686" y1="163.142" x2="137.193" y2="225.002" gradientUnits="userSpaceOnUse"><stop stop-color="#FEBBBA"/><stop offset="1" stop-color="#FF928E"/></linearGradient><linearGradient id="f" x1="71.658" y1="198.895" x2="94.088" y2="231.487" gradientUnits="userSpaceOnUse"><stop stop-color="#09005D"/><stop offset="1" stop-color="#1A0F91"/></linearGradient><linearGradient id="g" x1="70.852" y1="199.449" x2="93.28" y2="232.042" gradientUnits="userSpaceOnUse"><stop stop-color="#09005D"/><stop offset="1" stop-color="#1A0F91"/></linearGradient><linearGradient id="h" x1="69.879" y1="200.119" x2="92.307" y2="232.712" gradientUnits="userSpaceOnUse"><stop stop-color="#09005D"/><stop offset="1" stop-color="#1A0F91"/></linearGradient><linearGradient id="i" x1="68.196" y1="201.277" x2="90.624" y2="233.87" gradientUnits="userSpaceOnUse"><stop stop-color="#09005D"/><stop offset="1" stop-color="#1A0F91"/></linearGradient><linearGradient id="j" x1="67.086" y1="202.041" x2="89.515" y2="234.631" gradientUnits="userSpaceOnUse"><stop stop-color="#09005D"/><stop offset="1" stop-color="#1A0F91"/></linearGradient><linearGradient id="k" x1="66.397" y1="202.515" x2="88.825" y2="235.107" gradientUnits="userSpaceOnUse"><stop stop-color="#09005D"/><stop offset="1" stop-color="#1A0F91"/></linearGradient><linearGradient id="l" x1="72.812" y1="198.101" x2="95.241" y2="230.693" gradientUnits="userSpaceOnUse"><stop stop-color="#09005D"/><stop offset="1" stop-color="#1A0F91"/></linearGradient><linearGradient id="m" x1="58.056" y1="157.186" x2="73.807" y2="180.074" gradientUnits="userSpaceOnUse"><stop stop-color="#09005D"/><stop offset="1" stop-color="#1A0F91"/></linearGradient><linearGradient id="n" x1="57.489" y1="157.576" x2="73.24" y2="180.464" gradientUnits="userSpaceOnUse"><stop stop-color="#09005D"/><stop offset="1" stop-color="#1A0F91"/></linearGradient><linearGradient id="o" x1="56.806" y1="158.046" x2="72.558" y2="180.934" gradientUnits="userSpaceOnUse"><stop stop-color="#09005D"/><stop offset="1" stop-color="#1A0F91"/></linearGradient><linearGradient id="p" x1="55.624" y1="158.859" x2="71.376" y2="181.748" gradientUnits="userSpaceOnUse"><stop stop-color="#09005D"/><stop offset="1" stop-color="#1A0F91"/></linearGradient><linearGradient id="q" x1="54.361" y1="159.73" x2="70.112" y2="182.619" gradientUnits="userSpaceOnUse"><stop stop-color="#09005D"/><stop offset="1" stop-color="#1A0F91"/></linearGradient><linearGradient id="r" x1="58.866" y1="156.628" x2="74.618" y2="179.516" gradientUnits="userSpaceOnUse"><stop stop-color="#09005D"/><stop offset="1" stop-color="#1A0F91"/></linearGradient></defs></svg>