<svg width="458" height="386" viewBox="0 0 458 386" fill="none" xmlns="http://www.w3.org/2000/svg"><g clip-path="url(#a)"><path d="M332.192 134.311s-5.409-30.386 13.457-30.386c18.867 0 13.458 30.386 13.458 30.386" stroke="#451B14" stroke-width="1.385" stroke-miterlimit="10" stroke-linecap="round"/><path d="M324.54 226L300 220.583l14.909-92.481h9.631V226z" fill="#E5AB19"/><path d="M321.637 222.565l-11.082-9.909L300 220.583l14.909-92.481h4.353l-6.728 81.119 9.103 13.344z" fill="#DC911B"/><path d="M376.126 128.102H324.54V226l63.46-5.549-11.874-92.349z" fill="#EFC514"/><path d="M371.113 204.333c-7.125.396-13.721-.793-20.318-3.567-5.409-2.378-10.687-4.756-13.721-10.041-5.673-10.041-5.014-21.403-5.41-32.501-.395-10.04-1.319-20.874 3.167-29.858h-10.159v97.898l63.46-5.549-2.77-21.403c-3.827 3.436-8.972 4.625-14.249 5.021z" fill="#EBBA16"/><path d="M328.761 222.565l-4.221-94.463V226l63.46-5.549-59.239 2.114z" fill="#F7D70B"/><path d="M337.073 136.557a2.244 2.244 0 0 0 2.243-2.246 2.245 2.245 0 0 0-2.243-2.246 2.244 2.244 0 0 0-2.242 2.246 2.244 2.244 0 0 0 2.242 2.246zm27.047 0a2.244 2.244 0 0 0 2.243-2.246 2.245 2.245 0 0 0-2.243-2.246 2.245 2.245 0 0 0-2.243 2.246 2.244 2.244 0 0 0 2.243 2.246z" fill="#D0681B"/><path d="M337.073 134.311c7.52-12.286-6.201-30.386 12.798-30.386 18.866 0 18.339 24.177 14.249 30.386" stroke="#451B14" stroke-width="1.385" stroke-miterlimit="10" stroke-linecap="round"/></g><path d="M154.3 105.981s6.352-35.167-15.635-35.167c-21.987 0-15.635 35.167-15.635 35.167" stroke="#451B14" stroke-width="1.133" stroke-miterlimit="10" stroke-linecap="round"/><path d="M167.98 99.306h-88.6l19.87-2.442.326-4.396h89.414l-21.01 3.419v3.419z" fill="#DA8A1B"/><path d="M167.98 267L210 251.37l-7.329-24.258L188.99 92.468l-21.01 3.419V267z" fill="#E5AB19"/><path d="M167.98 267l23.453-30.771L210 251.37l-17.752-19.211-15.473-128.783 12.215 128.783L167.98 267z" fill="#DC911B"/><path d="M79.381 99.306h88.599l4.886 136.109L167.98 267 60 249.742l11.238-30.771L79.38 99.306z" fill="#EFC514"/><path d="M93.062 224.018l71.987 5.861 2.931-130.573 4.886 136.109L167.98 267 60 249.742l102.606 11.071 2.28-23.607-71.824-13.188z" fill="#F5D20F"/><path d="M141.27 111.19a2.605 2.605 0 1 0 .002-5.21 2.605 2.605 0 0 0-.002 5.21zm-31.27 0a2.605 2.605 0 1 0 .001-5.21 2.605 2.605 0 0 0-.001 5.21z" fill="#D0681B"/><path d="M141.27 108.585s7.166-35.166-14.821-35.166c-21.987 0-16.449 35.166-16.449 35.166" stroke="#451B14" stroke-width="1.133" stroke-miterlimit="10" stroke-linecap="round"/><path d="M362.324 331.967c-10.099 10.417-19.133 16.553-26.05 21.179-67.486 45.114-144.615 32.108-168.466 27.661-38.474-7.175-70.958-12.23-98.863-37.468-63.404-57.358-60.32-177.006-11.87-251.124 5.741-8.782 54.121-80.587 131.43-90.712 1.895-.25 3.306-.388 4.538-.513 11.953-1.274 86.065-7.964 146.482 42.731 8.646 7.259 22.564 20.348 35.472 40.308 47.19 72.955 47.342 185.995-12.673 247.938z" fill="#38A2B2" fill-opacity=".08"/><g clip-path="url(#b)"><path d="M244.857 84.18s-13.369-33.13 7.325-36.444c19.046-2.945 13.735 27.609 13.735 27.609" stroke="#002C40" stroke-width=".692" stroke-miterlimit="10" stroke-linecap="round" stroke-linejoin="round"/><path d="M299.797 210.997l-77.649 37.916-10.805-157.187 74.536-29.817v10.123l22.343-3.313-8.425 142.278z" fill="#004C6C"/><path d="M236.982 271L189 252.042l22.343-160.316 29.301-2.208-1.831 7.73L236.982 271z" fill="#55ADBB"/><path d="M236.981 271l-14.834-32.579-28.02 10.492 26.921-17.67 9.523-140.99 10.073-.735-1.831 7.73L236.981 271z" fill="#1C93A4"/><path d="M328 214.494L236.982 271l1.831-173.752 69.409-28.53 12.27 122.216 7.508 23.56z" fill="#69CDDC"/><path d="M265.734 97.985a2.938 2.938 0 0 0 2.93-2.945 2.938 2.938 0 0 0-2.93-2.945 2.938 2.938 0 0 0-2.93 2.945 2.938 2.938 0 0 0 2.93 2.945zm20.694-9.572a2.938 2.938 0 0 0 2.93-2.945 2.938 2.938 0 0 0-2.93-2.945 2.937 2.937 0 0 0-2.93 2.945 2.937 2.937 0 0 0 2.93 2.945z" fill="#004C6C"/><path d="M245.04 87.125a2.938 2.938 0 0 0 2.93-2.945 2.938 2.938 0 0 0-2.93-2.945 2.938 2.938 0 0 0-2.931 2.945 2.938 2.938 0 0 0 2.931 2.945zm20.694-8.283a2.938 2.938 0 0 0 2.93-2.945 2.938 2.938 0 0 0-2.93-2.945 2.938 2.938 0 0 0-2.93 2.945 2.938 2.938 0 0 0 2.93 2.945z" fill="#002C40"/><path d="M286.429 85.468s14.467 32.763-6.044 36.628c-19.046 3.681-14.651-27.057-14.651-27.057" stroke="#002C40" stroke-width=".692" stroke-miterlimit="10" stroke-linecap="round" stroke-linejoin="round"/></g><path d="M396.361 195.401s27.069-2.607 33.7-30.626c0 0-28.808 2.39-33.7 30.626zm0-36.49s16.742-11.621 16.633-42.572c-.109 0-22.829 14.227-16.633 42.572z" fill="#FF842B"/><path d="M379.946 107s17.828 21.286 10.98 51.042c0 0-23.699 1.303-10.98-51.042z" fill="#14A698"/><path d="M366.792 141.101s15.654 10.642 16.632 33.231c0 0-14.676 18.028-16.632-33.231z" fill="#14A698"/><path d="M380.489 226.352c1.848-10.535 7.066-20.2 13.807-28.562 6.74-8.362 14.784-15.421 22.938-22.263" stroke="#FF3224" stroke-miterlimit="10" stroke-linecap="round"/><path d="M380.489 226.352c4.131-19.657 9.567-42.897 13.698-62.554.978-4.67 1.957-9.34 3.696-13.792 2.609-6.408 6.74-12.055 10.762-17.593" stroke="#FF3224" stroke-miterlimit="10" stroke-linecap="round"/><path d="M383.098 214.84c3.044-12.054 5.544-29.322.326-40.508-3.044-6.624-7.175-12.163-10.871-19.331m17.938 25.63c5-19.005-7.393-39.531-6.74-59.187" stroke="#FF3224" stroke-miterlimit="10" stroke-linecap="round"/><path d="M242.86 189.753c.218-1.303.327-2.606 0-4.018-.761-4.018-4.022-7.168-8.044-7.928-6.523-1.303-12.285 3.693-12.285 9.991 0 .869.109 1.629.327 2.498.543 2.172 0 4.561-1.414 6.299a15.307 15.307 0 0 0-3.805 9.665c-.217 8.254 6.414 15.313 14.676 15.639 8.697.326 15.872-6.625 15.872-15.313 0-3.692-1.304-7.167-3.587-9.774-1.631-2.063-2.283-4.561-1.74-7.059zm-10.979 49.739v-61.793" stroke="#FFFBD9" stroke-width="1.039" stroke-miterlimit="10"/><path d="M225.032 181.065l6.849 6.19 8.262-6.624" stroke="#FFFBD9" stroke-width="1.039" stroke-miterlimit="10"/><path d="M222.64 187.69l9.241 7.71 11.088-8.905" stroke="#FFFBD9" stroke-width="1.039" stroke-miterlimit="10"/><path d="M222.531 194.857l9.349 8.688 11.415-9.122" stroke="#FFFBD9" stroke-width="1.039" stroke-miterlimit="10"/><path d="M219.27 199.636l12.611 12.054 14.784-11.837" stroke="#FFFBD9" stroke-width="1.039" stroke-miterlimit="10"/><path d="M217.64 206.152l14.241 13.792 16.415-12.489M63.162 145.336c.326-1.738.326-3.584 0-5.43-1.087-5.322-5.327-9.666-10.654-10.643-8.696-1.629-16.415 4.996-16.415 13.358 0 1.086.109 2.28.435 3.258.76 2.932.109 6.19-1.957 8.471-3.044 3.475-4.892 7.927-5 12.814-.435 11.078 8.479 20.634 19.567 21.069 11.633.434 21.2-8.905 21.2-20.417 0-4.996-1.849-9.557-4.784-13.141-2.174-2.606-3.044-6.081-2.392-9.339zm-14.568 87.423V129.263" stroke="#FFFBD9" stroke-width="1.039" stroke-miterlimit="10"/><path d="M39.353 133.716l9.241 8.253 10.871-8.905" stroke="#FFFBD9" stroke-width="1.039" stroke-miterlimit="10"/><path d="M36.092 142.621l12.502 10.208 14.676-11.946" stroke="#FFFBD9" stroke-width="1.039" stroke-miterlimit="10"/><path d="M35.875 152.177l12.72 11.621 15.11-12.272" stroke="#FFFBD9" stroke-width="1.039" stroke-miterlimit="10"/><path d="M31.635 158.585l16.96 16.181 19.676-15.964" stroke="#FFFBD9" stroke-width="1.039" stroke-miterlimit="10"/><path d="M29.46 167.273l19.134 18.353 21.742-16.507" stroke="#FFFBD9" stroke-width="1.039" stroke-miterlimit="10"/><path d="M412.776 220.704c0-8.362-8.914-15.095-19.894-15.095-2.718 0-5.327.434-7.61 1.194a15.117 15.117 0 0 0-13.697-8.688c-6.849 0-12.611 4.561-14.459 10.752-1.63-.652-3.37-.978-5.218-.978a14.91 14.91 0 0 0-13.48 8.471c-2.609-2.063-5.762-3.258-9.349-3.258-5.544 0-10.436 3.041-13.046 7.493h96.753v.109z" fill="#FFBC47"/><path d="M125.235 221.03c-3.043-7.493-10.001-12.706-18.046-12.706-3.587 0-6.848.977-9.675 2.715-2.174-9.122-9.893-15.747-19.133-15.747-8.48 0-15.763 5.756-18.48 13.901-1.74-.543-3.48-.869-5.437-.869-8.044 0-15.002 5.213-18.045 12.706h88.816z" fill="#7896EE"/><path d="M135.019 156.087c.326-1.52.326-3.041 0-4.67-.869-4.669-4.674-8.362-9.24-9.231-7.61-1.411-14.241 4.344-14.241 11.621 0 .977.108 1.954.326 2.823.652 2.607.109 5.322-1.74 7.276-2.609 3.041-4.239 6.842-4.348 11.186-.217 9.557 7.501 17.811 17.068 18.137 10.11.434 18.372-7.711 18.372-17.702 0-4.344-1.522-8.363-4.131-11.403-1.848-2.172-2.609-5.213-2.066-8.037zm-12.61 57.559v-71.568" stroke="#14A698" stroke-width="1.039" stroke-miterlimit="10"/><path d="M114.364 145.987l8.045 7.168 9.458-7.711" stroke="#14A698" stroke-width="1.039" stroke-miterlimit="10"/><path d="M111.538 153.698l10.871 8.905 12.719-10.317" stroke="#14A698" stroke-width="1.039" stroke-miterlimit="10"/><path d="M111.429 162.06l10.98 9.992 13.045-10.643" stroke="#14A698" stroke-width="1.039" stroke-miterlimit="10"/><path d="M107.733 167.599l14.676 13.901 17.068-13.792" stroke="#14A698" stroke-width="1.039" stroke-miterlimit="10"/><path d="M105.885 175.092l16.524 15.856 18.916-14.335" stroke="#14A698" stroke-width="1.039" stroke-miterlimit="10"/><path d="M237.751 251.112l-4.457-10.751s22.286-52.345 100.449-29.431c20.546 5.973 40.767 13.25 85.338 5.322l20.438 49.196-182.961 2.932-18.807-17.268z" fill="#FFFBD9"/><path d="M266.233 219.835c0-.108-.652.218.326-.325 3.044-1.412 5.762-1.955 9.132-2.607l.218-.108c2.609-.435 5.326-.543 8.153-.652 5.218-.109 10.436.217 15.546.869-.109 0-.218-.109.326 0 2.174.217 5.109.76 8.153 1.303.435.109.87.109 1.305.217h.543c1.413.326 2.609.543 3.696.76 7.501 1.412 15.111 3.15 22.938 4.562 7.828 1.411 15.872 2.497 24.352 3.366 3.587.326 7.175.543 10.545.76 5.109.326 11.632.652 16.632.761-.326-.109 2.501-.218 5.11-.326 2.609-.109 5.109-.217 3.805-.435 3.261 0 8.262-.217 8.588-.325.326-.109 1.196-.326 3.044-.543 1.848-.218 4.674-.543 8.914-1.304 1.631-.325 3.805-.76 5.544-1.303a44.224 44.224 0 0 0 3.805-1.303c.87-.434-.217 0-1.196.326-1.087.326-2.065.651-1.195.326-5.979 1.954-12.176 2.497-18.481 2.823-6.306.217-12.502.326-18.807.217-12.502-.217-25.113-1.194-37.832-3.149-2.174-.326-7.392-1.086-14.35-2.389-6.848-1.303-15.328-3.367-24.134-4.996-8.805-1.737-17.937-2.823-25.873-2.715-3.913 0-7.61.435-10.762.978-3.153.543-5.653 1.411-7.501 2.063l-1.305.543c-3.913 1.629-7.936 4.235-11.414 7.168-3.37 3.04-6.197 6.407-8.262 9.231-1.849 2.715-3.479 5.538-5.001 8.47.761-1.303 1.522-2.497 2.174-3.583-1.739 2.823-3.261 5.864-3.696 7.059-1.413 3.258-1.631 4.018-1.413 3.583.326-.543.978-1.954 1.63-3.04.87-1.738-.108.651 1.305-1.955-.544.977-.87 1.737-1.196 2.498-.326.76-.761 1.52-1.196 2.497-.109.218 2.827-6.19 2.283-4.778-.978 1.846-1.957 4.018-2.826 6.082.217-.326.978-2.064 1.739-3.693.761-1.629 1.522-3.041 1.522-2.823-.544 1.086-2.827 5.538-2.827 5.973 0 .108.87-1.955 1.305-2.933a63.764 63.764 0 0 0-2.609 6.516c-.326.978 0 .435 1.196-2.389-.87 1.955-1.957 4.779-2.609 6.951.435-1.086.978-2.933 1.413-3.91l-1.305 3.584.327-.652c.326-.869.652-1.846.978-2.715-.326.76-.544 1.629-.87 2.389.218-.651.544-1.303.87-2.063 1.087-2.824 2.392-5.43 3.044-6.95 2.718-5.973 6.196-11.729 10.436-16.725 4.566-4.452 9.784-8.688 15.763-11.186z" fill="#EFDCAA"/><path d="M282.105 236.017s-.652 0 .326-.217c3.153-.543 5.762-.761 9.023-1.412l.218-.109c2.5-.217 5.109-.326 7.827-.543l1.848-.108h1.848l3.696-.109 3.696-.109c1.196 0 2.501.109 3.697.109-.109 0-.218-.109.326-.109.978 0 2.283.109 3.587.109.652 0 1.305 0 2.066.109.652 0 1.413.108 2.174.217.435 0 .87.108 1.304.108h.435c1.305.109 2.501.218 3.588.326 14.35.978 28.808 3.258 44.571 5.322 3.37.434 6.632.76 9.893 1.194 4.783.652 10.871 1.303 15.546 1.738-.653-.326 10.653.326 8.479-.217 3.153.108 7.827.217 8.045.108.761-.217 3.152-.543 11.306-.977 3.152-.326 8.153-.76 9.24-.869 1.74-.217-4.131.217-2.391 0-11.85 1.412-23.591 1.195-35.332.217-11.74-.977-23.481-2.715-35.439-4.452-2.066-.326-7.067-.978-13.589-1.847-6.523-.868-14.676-1.954-23.047-2.497-4.131-.435-8.48-.435-12.611-.543h-3.043c-.979 0-2.066 0-3.044.108-1.957.109-3.914 0-5.762.217-1.848.109-3.588.326-5.327.435-1.631.108-3.261.217-4.674.543-2.936.434-5.327.869-7.067 1.086-.435.108-.869.108-1.304.217-3.914.76-8.154 1.955-12.067 3.367-3.914 1.52-7.61 3.258-10.545 5.104-2.609 1.629-5.11 3.475-7.393 5.647l1.631-1.303c.544-.435 1.087-.76 1.522-1.086-1.304.869-2.5 1.955-3.479 2.823l-2.174 2.172c-1.087 1.304-1.739 2.064-2.065 2.498-.327.435-.327.543-.109.435.326-.326 1.413-1.412 2.283-2.39 1.304-1.303-.326.543 1.739-1.411-1.522 1.411-2.174 2.28-3.479 3.801-.108.108.979-1.086 1.849-2.172.978-1.086 1.956-1.955 1.413-1.412l-1.087 1.086c-.326.326-.653.76-1.087 1.194l-.979 1.195c-.326.434-.652.869-.87 1.303.109-.108.435-.543.87-1.086s.979-1.194 1.522-1.846c1.087-1.195 2.283-2.281 2.174-2.172-.869.76-4.022 4.127-4.131 4.561 0 0 .218-.326.653-.869.434-.434.869-1.086 1.195-1.411-.543.651-.978 1.194-1.413 1.737-.435.543-.761 1.086-1.087 1.521-.652.868-.978 1.737-1.196 2.063-.217.434-.217.543 0 .217.109-.217.326-.434.544-.76.109-.217.217-.434.435-.652.217-.217.326-.434.543-.76-.652.76-1.196 1.846-1.848 2.824-.652 1.086-1.087 2.172-1.522 3.149l.87-1.737c.109-.326.326-.652.435-.869.217-.326.326-.543.435-.76l-.435.76-.435.76-.761 1.629c.109-.217.217-.326.326-.543.435-.76.761-1.629 1.196-2.389-.435.651-.652 1.412-1.087 2.063.326-.543.543-1.086.978-1.737.761-1.195 1.413-2.39 2.283-3.258.326-.435.652-.978.978-1.304.327-.434.653-.76.87-.977 1.957-2.281 4.24-4.344 6.74-6.19 2.501-1.738 5.11-3.367 7.936-4.67 5.762-3.041 11.741-4.887 17.72-6.19z" fill="#EFDCAA"/><path d="M297.107 254.805s-.652-.109.326-.109c3.044-.217 5.545-.108 8.697-.108l.218-.109c2.391.109 4.892.217 7.501.326 4.674.217 9.458.543 14.132.869-.109 0-.217-.109.326 0 1.957.108 4.675.325 7.393.543.434 0 .869.108 1.195.108h.435c1.305.109 2.392.217 3.479.326 13.698.977 27.721 2.063 42.832 2.606 3.262 0 6.414.109 9.458.109 4.566.109 10.436.217 14.893.109-.326-.109 2.175-.326 4.566-.435 2.392-.217 4.566-.434 3.479-.543 1.522-.108 3.37-.217 4.892-.217 1.522-.109 2.718-.217 2.827-.326.652-.326 2.935-.651 10.762-1.737 3.044-.435 7.718-1.086 8.806-1.304 1.63-.325-3.914.435-2.283.109-22.612 3.475-44.681 3.367-67.727 1.846-1.957-.108-6.74-.434-13.046-.869-6.305-.543-14.023-1.086-21.959-1.737-7.936-.652-16.09-1.303-23.156-1.629-7.066-.326-12.936-.326-16.415-.217l-1.196.108c-3.696.217-7.936.543-11.85 1.195-4.022.651-7.718 1.629-10.762 2.715-2.718.977-5.544 2.063-8.153 3.366 1.304-.543 2.5-.977 3.479-1.411-2.827 1.086-5.436 2.497-6.523 3.04-2.718 1.629-3.261 2.064-2.935 1.955.543-.326 1.739-.869 2.826-1.412 1.631-.76-.435.435 2.066-.76-1.74.869-2.609 1.412-4.349 2.389-.109.109 1.196-.76 2.392-1.411 1.196-.652 2.283-1.195 1.739-.869a50.315 50.315 0 0 0-5.218 3.041c.326-.109 1.739-1.086 3.153-1.847 1.413-.76 2.717-1.411 2.609-1.303-.435.217-1.74.869-2.827 1.521-1.196.651-2.174 1.303-2.283 1.411 0 0 .326-.217.87-.543a25.7 25.7 0 0 1 1.631-.868c-2.609 1.52-4.457 2.932-5.218 3.475-.653.651-.218.326 2.065-1.195-1.631 1.086-3.805 2.607-5.327 4.018.761-.651 2.066-1.737 2.827-2.28a47.392 47.392 0 0 0-2.718 2.172c.109-.109.326-.217.544-.326.652-.543 1.304-1.086 2.065-1.629-.652.434-1.196.869-1.739 1.412.434-.326.978-.76 1.63-1.086 2.175-1.629 4.457-2.824 5.762-3.584 5.109-2.932 10.654-4.996 16.415-6.407 5.545-1.521 11.524-2.281 17.394-2.498z" fill="#EFDCAA"/><path d="M277.648 226.677s-.653.109.326-.217c3.261-.869 5.979-1.195 9.349-1.521l.217-.108c2.61-.217 5.327-.326 8.154-.217 5.109 0 10.327.543 15.437 1.194-.109 0-.218-.108.326 0 2.174.326 5.001.76 8.045 1.412.434.109.869.109 1.304.217h.544c1.413.217 2.609.543 3.696.76 14.893 2.824 30.222 5.105 46.963 6.516 3.479.326 7.066.543 10.436.761 5.001.325 11.415.76 16.416.977-.761-.217 11.197-.109 8.914-.434 3.261.108 8.153.108 8.479 0 .327-.109 1.196-.218 3.044-.435 1.74-.217 4.566-.326 8.806-1.086 1.631-.326 3.696-.76 5.327-1.412 1.739-.651 3.044-1.411 3.587-1.629.761-.543-.217 0-1.087.435-.978.434-1.957.869-1.087.434-5.544 2.498-11.849 2.715-17.937 2.715-6.197 0-12.393-.108-18.59-.434-12.393-.543-24.786-1.521-37.397-3.041-2.174-.217-7.392-.869-14.241-1.955-6.849-.977-15.328-2.606-23.916-4.235-8.697-1.629-17.611-3.041-25.547-3.15-7.827-.217-14.459.869-18.155 1.738l-1.305.326c-4.022 1.086-8.479 2.606-12.393 4.887-3.913 2.172-7.392 4.995-9.784 7.602-2.283 2.389-4.239 4.995-5.979 7.819.87-1.195 1.74-2.389 2.501-3.258-2.066 2.606-3.805 5.43-4.458 6.516-1.739 3.041-2.065 3.801-1.739 3.367.326-.326 1.196-1.738 1.957-2.824 1.087-1.629-.218.652 1.522-1.846-1.196 1.846-1.74 2.823-2.827 4.67 0 .108.761-1.304 1.631-2.607.761-1.303 1.522-2.498 1.196-1.737-1.196 1.737-2.283 3.801-3.37 5.755.217-.325 1.196-1.954 2.065-3.475.87-1.52 1.74-2.823 1.74-2.715-.653.978-3.262 5.104-3.37 5.647 0 .109 1.087-1.846 1.63-2.715-1.739 2.933-2.826 5.213-3.261 6.082-.435.869-.109.434 1.413-2.281-.978 1.847-2.5 4.453-3.479 6.516.544-.977 1.414-2.715 1.957-3.583-.543 1.086-1.196 2.28-1.739 3.366.109-.217.217-.326.326-.543.435-.869.87-1.737 1.413-2.606-.435.76-.761 1.52-1.196 2.28.327-.543.761-1.194 1.088-1.846 1.522-2.606 3.043-5.104 3.804-6.516 3.37-5.647 7.175-10.968 12.285-14.987 4.783-4.235 10.762-6.95 16.959-8.579z" fill="#EFDCAA"/><path d="M290.802 243.619s-.652 0 .326-.217c3.153-.435 5.653-.435 8.806-.543l.217-.109c2.392 0 5.001 0 7.501.217 4.783.217 9.458.652 14.241 1.195-.109 0-.217-.109.326 0 1.957.217 4.675.651 7.501.977.435.109.87.109 1.196.217h.435c1.305.218 2.392.326 3.479.543 13.806 1.955 28.047 3.476 43.376 4.236 3.261.108 6.522.217 9.675.326 4.674.108 10.545.325 15.111.325-.653-.217 10.327-.434 8.153-.76 3.044 0 7.501-.326 7.718-.434.327-.109 1.088-.326 2.718-.652 1.631-.326 4.131-.651 8.045-1.629 1.522-.326 3.37-.869 5.001-1.412 1.63-.543 2.935-1.086 3.478-1.303.761-.326-.217 0-1.087.326-.978.326-1.848.652-1.087.326-5.327 1.955-10.98 2.823-16.633 3.258-5.653.434-11.414.434-17.067.434-11.415 0-22.83-.543-34.57-1.52-1.957-.109-6.849-.543-13.154-1.195-6.306-.651-14.133-1.846-22.178-3.041-8.044-1.194-16.306-2.172-23.481-2.497-7.175-.326-13.263 0-16.742.434-.434 0-.869.109-1.304.109-3.805.434-7.936 1.303-11.85 2.497-3.913 1.195-7.609 2.715-10.436 4.236-2.609 1.303-5.218 3.041-7.61 4.778 1.196-.76 2.283-1.412 3.262-2.063-2.609 1.629-5.001 3.475-5.871 4.344-1.196 1.086-1.957 1.737-2.283 2.172-.326.434-.326.434-.217.326.217-.109.543-.435.978-.869.435-.326.979-.76 1.522-1.195 1.413-1.086-.326.543 1.848-1.086a15.556 15.556 0 0 0-1.957 1.629c-.543.543-1.195.978-1.848 1.629-.217.109 4.675-4.127 3.697-3.041a52.545 52.545 0 0 0-4.566 4.019c.326-.218 1.522-1.412 2.717-2.498 1.196-1.086 2.392-1.955 2.283-1.738-.869.543-4.348 3.475-4.565 3.91 0 .108 1.413-1.303 2.174-1.955-2.283 2.063-3.805 3.801-4.349 4.561-.543.76-.108.326 1.74-1.629-.653.652-1.414 1.629-2.175 2.498-.761.869-1.413 1.846-2.065 2.715.652-.76 1.631-2.281 2.283-2.932-.761.869-1.413 1.846-2.174 2.715.108-.109.217-.326.435-.435.543-.651 1.087-1.411 1.63-2.063-.543.543-.978 1.195-1.413 1.846.435-.434.87-.977 1.304-1.52 1.849-2.064 3.697-3.801 4.892-4.779 2.175-1.954 4.675-3.692 7.175-5.212 2.501-1.521 5.219-2.824 8.045-4.019 2.827-1.086 5.653-2.063 8.479-2.823 3.044-.652 5.98-1.303 8.915-1.629z" fill="#EFDCAA"/><path d="M217.64 256.216v-15.747s-22.286-52.345-100.449-29.43c-20.547 5.973-40.767 13.249-85.339 5.321l-20.329 49.196 182.961 2.932 23.156-12.272z" fill="#FFFBD9"/><path d="M185.788 217.446s.652.326-.435-.109c-3.262-1.412-6.088-2.28-9.567-2.823h-.217c-2.718-.435-5.545-.761-8.48-.869a98.664 98.664 0 0 0-15.98.977c.108 0 .217 0-.326.109-2.175.326-5.219.76-8.263 1.303-.434.109-.869.217-1.413.217-.326.109-.435.109-.435.109-1.413.217-2.609.543-3.804.76-7.502 1.629-15.003 3.475-22.83 4.996-7.718 1.629-15.763 2.823-24.134 3.909-3.587.435-7.066.869-10.545 1.086-5.11.435-11.632.652-16.524.652.435.108-2.5.326-5.11.434-2.608.109-5.109.109-3.804.326-3.37 0-8.262-.217-8.588-.217-.435.108-1.196.217-3.044.217s-4.675-.109-9.132-.76c-1.74-.326-3.913-.76-5.762-1.303-1.848-.543-3.37-1.195-4.022-1.412-.87-.326.109.108 1.196.543 1.087.434 2.174.869 1.196.543 6.305 2.063 12.719 2.715 19.133 3.041 6.305.325 12.72.325 19.024.217 12.61-.217 25.33-1.303 38.158-3.258 2.174-.326 7.501-1.195 14.35-2.607 6.957-1.411 15.437-3.366 24.134-5.104 8.697-1.737 17.72-2.823 25.438-2.715 3.914 0 7.392.435 10.328.978 2.935.543 5.435 1.303 7.066 1.954l1.196.543c3.696 1.521 7.501 4.019 10.762 6.842 3.261 2.824 5.979 6.082 8.045 8.797 1.957 2.498 3.696 5.213 5.327 8.036-.653-1.303-1.305-2.606-1.957-3.583 1.739 2.823 3.152 5.755 3.805 6.841 1.522 3.15 1.848 3.801 1.739 3.367-.109-.434-.652-2.063-1.196-3.258-.761-1.846.544.543-.761-2.281.544.978.87 1.738 1.196 2.498.326.76.761 1.521 1.087 2.498.218.109-2.935-6.19-2.174-4.778a103.545 103.545 0 0 1 2.826 6.081c-.108-.326-.761-2.172-1.63-3.801-.761-1.629-1.522-3.041-1.413-2.932.652.977 2.5 5.647 2.826 6.082.109.108-.761-1.955-1.305-2.933 1.522 3.041 2.392 5.539 2.827 6.516.435.978.326.326-.761-2.606.87 1.955 1.848 4.887 2.609 7.059-.326-1.086-.978-2.932-1.304-3.91.434 1.195.869 2.498 1.304 3.693 0-.217-.109-.435-.217-.652-.327-.869-.544-1.846-.979-2.823.326.76.544 1.629.87 2.497-.217-.651-.326-1.303-.652-2.172-.979-2.932-2.066-5.755-2.718-7.276-2.827-6.19-6.305-12.054-10.654-17.267-4.457-4.996-9.893-9.557-16.306-12.272z" fill="#EFDCAA"/><path d="M169.372 233.519s.652.217-.435 0c-3.261-.543-5.87-1.086-9.131-1.521h-.218c-2.5-.326-5.218-.543-7.936-.76l-1.848-.109h-1.848l-3.696-.108-3.696-.109c-1.196 0-2.501.109-3.696.109.108 0 .217 0-.327.108-1.087 0-2.282.109-3.587.109-.652 0-1.413 0-2.066.109-.761 0-1.413.108-2.174.108-.435 0-.869.109-1.304.109-.326 0-.435.108-.435.108-1.305.109-2.5.218-3.588.218-14.458 1.303-28.917 3.909-44.571 6.407-3.261.543-6.632 1.086-9.784 1.52-4.783.652-10.871 1.195-15.437 1.629.76.218-10.654 1.086-8.37 1.304-3.154.108-7.828.108-8.046.217-.76.326-3.152.543-11.414.326-3.262-.326-8.262-.869-9.35-.978-1.847-.108 4.24.543 2.392.435 12.067 1.52 24.025 1.303 35.875.217 11.85-1.086 23.59-2.824 35.549-4.561 4.13-.543 19.785-3.258 36.418-4.562 4.131-.434 8.37-.434 12.393-.543h3.044c.978 0 1.956 0 2.935.109 1.957.109 3.805 0 5.653.217 1.848.109 3.587.326 5.218.435 1.631.108 3.261.217 4.675.543 2.826.434 5.218.868 6.957 1.086.435.108.87.108 1.305.217 3.805.76 7.936 1.846 11.74 3.258 3.805 1.412 7.393 3.041 10.219 4.67 2.609 1.52 5.11 3.149 7.393 5.104-.544-.435-.979-.978-1.522-1.412-.435-.434-.979-.76-1.414-1.195 1.305.869 2.392 1.955 3.37 2.824.979.869 1.631 1.629 2.066 2.063 1.087 1.195 1.739 1.955 2.174 2.39.326.434.435.434.326.217-.108-.435-1.195-1.629-1.848-2.715-1.196-1.412.653.326-1.304-1.846 1.522 1.411 2.174 2.28 3.478 3.909.109 0-.978-1.194-1.848-2.28-.978-1.086-1.956-1.955-1.413-1.521l1.087 1.086c.326.326.653.76 1.087 1.195l1.087 1.194.979 1.304c-.109-.109-.435-.652-.761-1.195-.435-.543-.978-1.195-1.522-1.846-1.087-1.303-2.283-2.281-2.066-2.281.87.76 3.914 4.344 4.131 4.67 0 0-.217-.434-.652-.869-.435-.543-.978-1.086-1.304-1.52.543.651 1.087 1.194 1.522 1.737.434.543.761 1.086 1.195 1.521.761.869 1.088 1.737 1.414 2.063.217.435.326.435.217.109l-.435-.869c-.108-.217-.217-.434-.435-.652-.217-.217-.326-.543-.543-.868.652.868 1.196 1.954 1.848 3.04.652 1.086 1.087 2.281 1.631 3.258-.218-.543-.544-1.194-.87-1.846-.109-.326-.326-.651-.435-.977-.217-.326-.326-.543-.435-.76l.435.76.435.869.761 1.737c-.109-.217-.109-.434-.218-.651-.434-.869-.76-1.738-1.195-2.498.435.651.761 1.52 1.087 2.172-.218-.543-.435-1.303-.87-1.955-.761-1.303-1.413-2.606-2.174-3.584-.326-.543-.652-1.086-.979-1.52-.326-.435-.652-.76-.869-1.086-2.066-2.498-4.457-4.67-7.066-6.625a49.15 49.15 0 0 0-8.262-4.995c-6.306-2.715-12.502-4.67-18.699-5.973z" fill="#EFDCAA"/><path d="M154.044 252.198s.652.108-.435.108c-3.153-.108-5.653-.325-8.806-.217l-.217.109c-2.392 0-5.001 0-7.61.108-4.783.218-9.458.652-14.132.978.108 0 .217 0-.327.108-1.956.109-4.674.326-7.501.543-.434 0-.869.109-1.195.109-.327 0-.435.109-.435.109-1.305.108-2.392.217-3.479.217-13.698 1.303-27.613 2.715-42.724 3.584-3.152.217-6.414.434-9.457.543-4.566.108-10.437.108-14.894 0 .326.108-2.174.217-4.566.217-2.391 0-4.566 0-3.478.217-1.522-.109-3.37-.217-4.892-.217-1.522-.109-2.718-.217-2.827-.217-.652.108-3.044.434-10.871-.435-3.044-.326-7.827-1.194-8.914-1.303-1.74-.217 3.913.76 2.283.543 22.829 3.692 45.223 3.367 68.27 1.846 1.957-.108 6.74-.543 13.045-.977a5580.53 5580.53 0 0 1 21.96-1.846c7.936-.652 16.089-1.304 23.047-1.629 6.957-.326 12.828-.326 16.198-.218h1.196c3.696.218 7.718.543 11.632 1.195a96.32 96.32 0 0 1 10.545 2.389 61.338 61.338 0 0 1 8.153 2.932 46.08 46.08 0 0 0-3.261-1.629c2.718 1.086 5.327 2.39 6.414 2.933 2.718 1.52 3.37 1.846 3.044 1.52-.326-.326-1.522-1.086-2.501-1.846-1.522-.869.653.108-1.739-1.303 1.739.868 2.609 1.411 4.348 2.389.109 0-1.195-.76-2.391-1.412-1.196-.652-2.283-1.195-1.74-.977a49.92 49.92 0 0 1 5.218 3.04c-.217-.217-1.739-1.194-3.043-1.954-1.414-.761-2.718-1.412-2.501-1.412.435.217 1.74.869 2.827 1.52 1.087.652 2.174 1.303 2.391 1.412 0 0-.326-.217-.869-.543-.544-.326-1.196-.652-1.631-.977 2.718 1.52 4.675 2.823 5.436 3.366.761.543.434.109-1.849-1.52 1.631 1.086 3.805 2.823 5.327 4.127-.761-.652-2.174-1.847-2.935-2.39.979.652 1.848 1.412 2.718 2.172l-.435-.434c-.652-.543-1.304-1.195-2.065-1.738.652.435 1.195.978 1.848 1.521-.435-.435-.87-.869-1.522-1.303-2.175-1.738-4.349-3.367-5.653-4.019-10.654-6.081-23.047-8.688-35.005-9.339z" fill="#EFDCAA"/><path d="M173.938 224.288s.652.325-.435 0c-3.37-.761-6.197-1.412-9.675-1.738l-.218.109c-2.718-.326-5.544-.435-8.37-.435-5.327.109-10.545.652-15.655 1.412.109 0 .218 0-.326.109-2.174.325-5.109.76-8.153 1.303-.435.108-.87.217-1.305.217-.326.109-.435.109-.435.109a82.688 82.688 0 0 0-3.696.651c-14.893 3.15-30.004 5.756-46.637 7.494-3.479.434-7.066.76-10.436 1.086-5.001.434-11.415.76-16.416.868.761.326-11.197.761-8.805.978-3.262.108-8.154.108-8.48.217-.435.109-1.196.217-3.044.326-1.848 0-4.674.217-9.131-.543-1.74-.326-3.914-.869-5.762-1.521-1.848-.651-3.261-1.52-3.805-1.846-.87-.434.109.109 1.087.76.979.543 2.066 1.086 1.196.652 3.044 1.412 6.305 2.172 9.458 2.498 3.152.434 6.414.543 9.566.543 6.306 0 12.502-.109 18.699-.435 12.502-.543 25.003-1.629 37.614-3.149 2.174-.326 7.392-.977 14.241-2.063 6.849-1.086 15.328-2.715 24.025-4.344 8.588-1.629 17.503-3.041 25.112-3.15 7.61-.217 14.024.76 17.612 1.738l1.304.326c3.914.977 8.153 2.497 11.85 4.669 3.805 2.064 7.066 4.562 9.349 7.059 2.283 2.172 4.24 4.67 6.088 7.277-.761-1.195-1.522-2.39-2.283-3.367 1.956 2.606 3.696 5.321 4.457 6.407 1.848 2.933 2.174 3.584 2.065 3.15-.108-.435-.869-1.955-1.522-3.15-.978-1.737.544.435-.978-2.172 1.196 1.847 1.739 2.824 2.826 4.67.109.109-.76-1.412-1.521-2.715-.761-1.303-1.522-2.498-1.088-1.846 1.088 1.738 2.392 3.801 3.37 5.756-.108-.326-1.087-2.064-1.956-3.584-.87-1.52-1.74-2.932-1.631-2.824.652.978 3.044 5.322 3.37 5.648.109.108-.978-1.847-1.522-2.824 1.739 2.932 3.044 5.213 3.479 6.082.543.868.326.325-1.087-2.498.978 1.846 2.391 4.561 3.478 6.624a58.847 58.847 0 0 1-1.848-3.692c.544 1.086 1.196 2.281 1.74 3.367-.109-.218-.218-.435-.218-.652l-1.304-2.606c.435.76.761 1.52 1.196 2.28-.326-.651-.544-1.303-.87-1.955-1.305-2.715-2.609-5.321-3.479-6.733-3.37-5.756-7.392-11.403-12.719-15.747-5.544-4.235-11.85-7.167-18.372-8.796z" fill="#EFDCAA"/><path d="M160.458 241.121s.652.217-.435.108c-3.153-.325-5.762-.76-9.023-.76l-.218.109c-2.5-.109-5.109-.109-7.718-.109-4.892.217-9.675.652-14.459 1.303.109 0 .218 0-.326.109-1.957.217-4.674.652-7.501.977-.435.109-.87.109-1.196.218-.326.108-.435.108-.435.108-1.304.217-2.391.326-3.478.435-13.807 2.28-27.83 4.126-43.159 5.321-3.261.326-6.522.543-9.566.652-4.675.217-10.545.325-15.111.325.652.326-10.328.326-8.153.652-3.044 0-7.502-.326-7.828-.326-.326.109-1.087.217-2.826.109-1.63-.109-4.349-.217-8.262-1.086-1.522-.326-3.479-.869-5.218-1.412-1.63-.543-3.044-1.195-3.588-1.412-.87-.326.109.109 1.087.543.979.435 1.957.76 1.088.543 5.652 2.064 11.523 3.041 17.285 3.475 5.761.435 11.523.435 17.285.435a466.266 466.266 0 0 0 34.678-1.629c1.957-.217 6.85-.652 13.263-1.412 6.414-.76 14.241-1.955 22.177-3.149 8.045-1.195 16.198-2.172 23.264-2.498 7.067-.326 12.937 0 16.307.434.435 0 .87.109 1.196.109 3.696.434 7.718 1.303 11.523 2.389 3.805 1.086 7.393 2.498 10.219 3.91 2.609 1.194 5.11 2.715 7.61 4.344-1.087-.869-2.066-1.521-3.044-2.172 2.5 1.629 4.892 3.366 5.762 4.126 1.196.978 1.957 1.629 2.391 1.955.435.326.435.326.327.217-.109-.217-.435-.543-.87-.977l-1.305-1.303c-1.304-1.195.653.217-1.522-1.629.87.543 1.414 1.086 1.957 1.629.544.543 1.196.977 1.848 1.737.326 0-4.674-4.018-3.587-3.258 1.522 1.195 3.152 2.607 4.566 4.127-.218-.217-1.414-1.52-2.718-2.606-1.196-1.086-2.392-1.955-2.283-1.955.978.543 4.24 3.801 4.566 4.018.109 0-1.305-1.412-2.174-2.063 2.391 2.063 4.022 3.801 4.674 4.561.652.652.326.217-1.522-1.955.761.652 1.413 1.629 2.283 2.607.761.977 1.413 1.954 2.066 2.823-.653-.869-1.631-2.389-2.283-3.041.761.869 1.413 1.955 2.174 2.824-.109-.217-.217-.326-.326-.543-.544-.76-.979-1.52-1.631-2.172.544.652.979 1.303 1.413 1.846-.326-.543-.652-1.086-1.087-1.737-1.739-2.281-3.587-4.236-4.783-5.322-2.283-2.172-4.892-3.909-7.501-5.538-2.609-1.629-5.436-3.041-8.371-4.236a69.788 69.788 0 0 0-8.805-2.932c-2.61-.869-5.653-1.52-8.697-1.846z" fill="#EFDCAA"/><path d="M450.39 231.238H0V280h450.39v-48.762z" fill="#38A2B2"/><path d="M2.5 267.728H458l-2.066 9.231-453.869-2.606.435-6.625z" fill="#236E7A"/><path d="M64.9 227.981s-2.717 28.453 0 42.354l8.806-8.797 16.85 8.797s-5.326-29.431 0-44.526l-25.655 2.172z" fill="#F8441F"/><path fill-rule="evenodd" clip-rule="evenodd" d="M189.092 186.419c.802 9.891 2.139 17.375 5.079 18.177 1.872.268 3.476.535 5.347 1.07 2.674-.535 4.813-6.148 6.149-14.435-5.347-1.871-10.961-3.208-16.575-4.812z" fill="#C2C3C3"/><path fill-rule="evenodd" clip-rule="evenodd" d="M216.362 205.665c0 8.019-2.674 16.038-5.614 24.325 3.742 0 7.218.802 10.159 2.673-9.09-2.406-18.715-1.337-27.27 1.337 5.08-4.812 5.882-5.614 14.17-5.079 1.604-8.02 3.208-16.039 2.941-24.325 2.138.267 3.742.534 5.614 1.069z" fill="#30302F"/><path fill-rule="evenodd" clip-rule="evenodd" d="M153.001 118.79c-1.337 37.423 14.704 65.49 52.133 75.113.267 4.01 1.337 7.485 2.941 10.425 1.336 2.406 9.09 1.872 10.426-.267 1.872-3.208 2.941-6.95 2.941-11.494 13.368-3.475 26.2-9.89 38.498-17.642 29.141 14.969 61.223 25.661 99.187 28.869 5.08-.267 6.416-4.812 4.278-6.416 4.812 1.07 9.624 2.139 14.169 3.208 9.625 1.871 16.308-13.365 2.941-13.365-39.033-4.01-78.333-6.683-115.762-19.781-21.121-19.781-44.648-33.413-70.046-42.235-10.961-4.009-18.982-16.038-4.277-21.919 3.475-1.336 7.218-2.138 11.228-2.406-5.079-4.01-11.228-5.88-18.179-5.613-19.25-2.138-29.944 9.088-30.478 23.523z" fill="#30302F"/><path fill-rule="evenodd" clip-rule="evenodd" d="M233.472 143.383c-12.298-7.752-25.131-13.633-38.766-18.177-8.555-2.941-15.239-10.693-11.228-16.841 0 0-14.437 17.375 31.28 30.741 7.753 2.138 13.902 3.475 18.714 4.277zm26.2 31.542c29.141 14.97 61.223 25.662 99.186 28.87 5.08-.268 6.417-4.545 4.545-6.149l-.267-.267c-35.023-2.406-69.511-9.088-103.464-22.454z" fill="#131414"/><path fill-rule="evenodd" clip-rule="evenodd" d="M155.941 147.392c6.149 22.989 22.19 39.562 49.192 46.512.268 4.009 1.337 7.484 2.941 10.425 1.337 2.405 9.09 1.871 10.427-.268 1.871-3.207 2.94-6.95 2.94-11.494 13.368-3.475 26.201-9.89 38.499-17.642-26.735-10.96-77.264-40.096-103.999-27.533z" fill="#C2C3C3"/><path fill-rule="evenodd" clip-rule="evenodd" d="M155.941 147.392c6.149 22.988 22.19 39.561 49.192 46.511.268 4.01 1.337 7.485 2.941 10.425 1.337 2.406 9.09 1.871 10.427-.267 1.871-3.208 2.94-6.95 2.94-11.494 13.368-3.475 26.201-9.891 38.499-17.643-5.882-2.405-12.833-5.613-20.586-9.355-20.853 16.84-67.639 17.375-83.413-18.177z" fill="#D7D8D8"/><path fill-rule="evenodd" clip-rule="evenodd" d="M185.349 106.227c1.336-1.069 2.941-1.871 5.079-2.941 3.476-1.336 7.219-2.138 11.229-2.405-5.08-4.01-11.229-5.881-18.18-5.614-5.614 5.079-5.079 7.218 1.872 10.96z" fill="#6B777E"/><path fill-rule="evenodd" clip-rule="evenodd" d="M185.349 106.226c1.337-1.069 2.941-1.871 5.08-2.94 3.475-1.337 7.218-2.139 11.228-2.406 0 0-11.496-2.139-20.318 2.673 1.069.802 2.406 1.604 4.01 2.673z" fill="#40484C"/><path fill-rule="evenodd" clip-rule="evenodd" d="M169.575 100.346c1.872 0 3.209 1.336 3.209 3.207 0 1.872-1.337 3.208-3.209 3.208-1.871 0-3.208-1.336-3.208-2.94 0-1.871 1.604-3.475 3.208-3.475z" fill="#61B09E"/><path fill-rule="evenodd" clip-rule="evenodd" d="M169.576 101.949c1.069 0 1.871.802 1.871 1.871 0 1.07-.802 1.604-1.871 1.604-1.07 0-1.872-.802-1.872-1.871s1.069-1.604 1.872-1.604z" fill="#30302F"/><path fill-rule="evenodd" clip-rule="evenodd" d="M170.378 101.147c.534 0 1.069.535 1.069 1.07 0 .534-.535 1.069-1.069 1.069-.535 0-1.07-.535-1.07-1.069 0-.535.535-1.07 1.07-1.07z" fill="#FEFEFE"/><path fill-rule="evenodd" clip-rule="evenodd" d="M168.506 140.977c15.506 38.492 64.966 25.394 101.593 25.127-10.16-37.423-81.809-29.404-101.593-25.127z" fill="#333B3F"/><path fill-rule="evenodd" clip-rule="evenodd" d="M266.89 158.886c-13.367-22.988-55.608-23.256-81.808-20.315l-16.576 2.673c19.516 23.523 58.817 20.85 98.384 17.642z" fill="#40484C"/><path fill-rule="evenodd" clip-rule="evenodd" d="M199.519 205.665c0 8.019-2.674 16.038-5.882 24.325 3.743 0 7.218.802 10.159 2.673-8.555-2.406-18.447-1.337-27.002 1.337 5.08-4.812 5.882-5.614 14.169-5.079 1.605-8.02 3.209-16.039 2.941-24.325 2.139.267 3.743.534 5.615 1.069z" fill="#131414"/><defs><clipPath id="a"><path fill="#fff" transform="translate(300 103)" d="M0 0h88v123H0z"/></clipPath><clipPath id="b"><path fill="#fff" transform="translate(189 47)" d="M0 0h139v224H0z"/></clipPath></defs></svg>