<svg width="411" height="422" viewBox="0 0 411 422" fill="none" xmlns="http://www.w3.org/2000/svg"><path d="M342.324 331.967c-10.099 10.417-19.133 16.553-26.05 21.179-67.486 45.114-144.615 32.108-168.466 27.661-38.474-7.175-70.958-12.23-98.863-37.468-63.404-57.358-60.32-177.006-11.87-251.124 5.741-8.782 54.121-80.587 131.43-90.712 1.895-.25 3.306-.388 4.538-.513 11.953-1.274 86.065-7.964 146.482 42.731 8.646 7.259 22.564 20.348 35.472 40.308 47.19 72.955 47.342 185.995-12.673 247.938z" fill="#38A2B2" fill-opacity=".08"/><g clip-path="url(#a)"><path opacity=".18" d="M160.745 264.519l-41.097-15.26-85.706-30.439L90.907 53.024l126.494 41.024-41.05 121.974-15.606 48.497z" fill="#0E4744"/><path d="M158.073 253.714l-41.549-11.458-83.547-27.08 54.83-169.068 126.438 40.993-40.517 125.078-15.655 41.535z" fill="#F5F5F5"/><path d="M175.579 150.818l-61.536-19.951c-.933-.306-1.431-1.252-1.125-2.185.306-.933 1.252-1.432 2.185-1.125l61.536 19.95c.933.307 1.431 1.252 1.125 2.186-.274.877-1.308 1.4-2.185 1.125zm-2.992 9.079l-61.535-19.951c-.934-.306-1.432-1.251-1.126-2.185.306-.933 1.252-1.432 2.185-1.125l61.536 19.95c.933.307 1.432 1.252 1.126 2.186-.219.909-1.252 1.431-2.186 1.125zm-28.028.905l-36.412-11.801c-.933-.306-1.432-1.252-1.125-2.185.306-.934 1.251-1.432 2.185-1.126l36.412 11.801c.934.306 1.432 1.252 1.126 2.185-.307.934-1.252 1.432-2.186 1.126zm-4.206 31.851l-41.957-13.607c-.933-.306-1.432-1.252-1.125-2.185.306-.934 1.251-1.432 2.185-1.126l41.957 13.607c.934.306 1.432 1.252 1.126 2.185-.275.878-1.252 1.432-2.186 1.126zm22.515-2.767l-61.48-19.919c-.933-.307-1.432-1.252-1.125-2.186.306-.933 1.251-1.431 2.185-1.125l61.535 19.951c.934.306 1.432 1.251 1.126 2.185-.306.933-1.308 1.4-2.241 1.094zm21.747-66.935l-61.535-19.95c-.934-.307-1.432-1.252-1.126-2.186.306-.933 1.252-1.431 2.185-1.125l61.567 19.895c.934.306 1.432 1.252 1.126 2.185-.306.933-1.339 1.456-2.217 1.181zm2.936-9.11L126.016 93.89c-.934-.306-1.432-1.252-1.126-2.186.306-.933 1.252-1.431 2.185-1.125l61.536 19.951c.933.306 1.432 1.252 1.125 2.185-.306.933-1.251 1.432-2.185 1.126zm-78.264-8.234l-19.379-6.305 6.305-19.379 19.379 6.305-6.305 19.379zm-16.28-7.873l14.712 4.773 4.774-14.71-14.712-4.775-4.773 14.712z" fill="#A3BBC4"/><path d="M100.779 97.036l-3.491-5.44 2.4-1.374 2.053 3.153 6.515-3.695 1.492 2.32-8.969 5.037z" fill="#C3D82E"/><path d="M84.636 181.596l-19.38-6.305 6.305-19.378 19.38 6.305-6.305 19.378zm-16.28-7.873l14.712 4.774 4.773-14.711-14.712-4.774-4.773 14.711z" fill="#A3BBC4"/><path d="M76.183 173.057l-3.547-5.472 2.4-1.373 2.053 3.153 6.515-3.695 1.493 2.319-8.914 5.068z" fill="#C3D82E"/><path d="M97.245 142.839l-19.38-6.305 6.305-19.378 19.379 6.305-6.305 19.378zm-16.28-7.873l14.711 4.774 4.774-14.711-14.712-4.774-4.773 14.711z" fill="#A3BBC4"/><path d="M88.768 134.213l-3.579-5.416 2.455-1.342 1.999 3.121 6.514-3.695 1.493 2.319-8.882 5.013z" fill="#C3D82E"/><path d="M148.521 199.998c-9.152-3.254-19.198 1.469-22.54 10.645-3.255 9.152 1.469 19.199 10.646 22.541 9.152 3.255 19.198-1.469 22.54-10.645 3.286-9.208-1.493-19.286-10.646-22.541zm6.13 20.874c-2.382 6.694-9.718 10.146-16.381 7.708-6.695-2.382-10.147-9.718-7.709-16.381 2.381-6.695 9.718-10.146 16.381-7.708 6.607 2.406 10.115 9.774 7.709 16.381z" fill="#D6F2F5"/><path d="M135.968 237.09c-.199-.039-.423-.165-.622-.204-11.155-4.018-17.029-16.337-12.98-27.548 4.049-11.211 16.225-17.091 27.548-12.979 5.394 1.943 9.739 5.873 12.177 11.087 2.438 5.214 2.745 11.067.803 16.461-3.979 10.956-15.804 16.739-26.926 13.183zm12.726-39.355c-10.212-3.337-21.124 2.004-24.748 12.201-3.687 10.309 1.689 21.683 11.998 25.37 10.365 3.719 21.651-1.632 25.37-11.997 1.777-4.971 1.504-10.362-.725-15.163-2.23-4.801-6.246-8.398-11.217-10.175-.279-.158-.479-.197-.678-.236z" fill="#D6F2F5"/><path d="M138.092 223.021l-4.366-8.591 3.792-1.619 2.485 4.872 10.231-4.398 1.826 3.688-13.968 6.048z" fill="#C3D82E"/><path opacity=".18" d="M181.088 294.31l-50.403-40.953 12.448 4.601-19.35-13.665-2.808-.776-50.485-33.106 103.913-141.18 108.454 76.859-75.547 104.174-26.222 44.046z" fill="#0E4744"/><path d="M178.586 280.724l-36.204-23.264-71.671-50.834L173.523 61.652l108.454 76.859-76.051 107.282-27.34 34.931z" fill="#FAFAFA"/><path d="M226.043 187.748l-52.768-37.421c-.776-.586-.98-1.66-.394-2.436.585-.775 1.66-.979 2.435-.394l52.769 37.421c.775.586.98 1.661.394 2.436-.586.775-1.716.948-2.436.394zm-5.571 7.769l-52.768-37.421c-.776-.586-.98-1.66-.394-2.436.586-.775 1.66-.979 2.436-.394l52.768 37.421c.775.586.98 1.661.394 2.436-.53.807-1.66.98-2.436.394zm-27.055-7.472l-31.228-22.149c-.776-.585-.98-1.66-.394-2.435.586-.776 1.66-.98 2.435-.394l31.228 22.149c.776.586.98 1.66.394 2.435-.586.776-1.66.98-2.435.394zm-13.5 29.107l-35.975-25.496c-.776-.586-.98-1.66-.394-2.436.585-.775 1.66-.979 2.435-.394l35.976 25.496c.775.586.98 1.661.394 2.436-.53.807-1.66.98-2.436.394zm22.308 4.124l-52.713-37.389c-.775-.586-.979-1.66-.394-2.436.586-.775 1.661-.979 2.436-.394l52.769 37.421c.775.586.979 1.661.394 2.436-.586.776-1.685.892-2.492.362zm40.736-57.457l-52.745-37.334c-.775-.586-.979-1.66-.393-2.435.585-.776 1.66-.98 2.435-.394l52.769 37.421c.775.586.979 1.66.394 2.436-.61.687-1.685.892-2.46.306zm5.515-7.801l-52.744-37.333c-.776-.586-.98-1.66-.394-2.436.585-.775 1.66-.98 2.435-.394l52.745 37.334c.775.586.979 1.66.393 2.435-.529.807-1.66.98-2.435.394zm-72.239-31.164L159.58 113.08l11.774-16.656 16.657 11.774-11.774 16.656zm-13.203-12.404l12.629 8.982 8.981-12.628-12.629-8.982-8.981 12.628z" fill="#A3BBC4"/><path d="M170.713 114.135l-1.782-6.245 2.761-.578.997 3.587 7.298-1.555.729 2.625-10.003 2.166z" fill="#C3D82E"/><path d="M130.05 190.001l-16.601-11.743 11.774-16.656 16.657 11.774-11.83 16.625zm-13.235-12.349l12.629 8.982 8.981-12.628-12.628-8.982-8.982 12.628z" fill="#A3BBC4"/><path d="M124.526 179.281l-1.782-6.245 2.73-.522.996 3.587 7.298-1.556.729 2.626-9.971 2.11z" fill="#C3D82E"/><path d="M153.622 156.776l-16.657-11.774 11.774-16.656 16.657 11.774-11.774 16.656zm-13.235-12.348l12.629 8.982 8.981-12.628-12.628-8.982-8.982 12.628z" fill="#A3BBC4"/><path d="M148.098 146.057l-1.782-6.245 2.705-.61.997 3.588 7.353-1.525.73 2.626-10.003 2.166z" fill="#C3D82E"/><path d="M185.531 226.668c-7.755-5.858-18.789-4.348-24.678 3.462-5.858 7.754-4.348 18.788 3.463 24.677 7.754 5.859 18.788 4.349 24.677-3.461 5.802-7.786 4.292-18.82-3.462-24.678zm-.415 21.749c-4.283 5.62-12.307 6.765-17.927 2.482-5.621-4.283-6.766-12.307-2.483-17.927 4.283-5.62 12.307-6.765 17.927-2.483 5.652 4.227 6.766 12.307 2.483 17.928z" fill="#D6F2F5"/><path d="M162.444 258.25c-.168-.095-.36-.277-.528-.372-9.473-7.125-11.346-20.65-4.19-30.178 7.212-9.498 20.569-11.464 30.179-4.189 4.597 3.483 7.56 8.551 8.336 14.227.776 5.676-.663 11.354-4.146 15.951-7.061 9.361-20.076 11.374-29.651 4.561zm23.944-33.752c-8.8-6.228-20.772-4.363-27.247 4.222-6.626 8.722-4.87 21.148 3.852 27.775 8.834 6.689 21.149 4.871 27.775-3.851a19.593 19.593 0 0 0 3.793-14.675 19.672 19.672 0 0 0-7.645-13.099c-.224-.127-.392-.222-.528-.372z" fill="#D6F2F5"/><path d="M168.701 245.483l-1.647-9.487 4.133-.394.934 5.396 11.043-1.135.688 4.003-15.151 1.617z" fill="#C3D82E"/><path opacity=".18" d="M169.673 252.377l-39.308-17.642-54.606-35.214-1.052 1.471-22.28-13.182 88.914-151.059 115.737 65.411-7.664 13.299-2.83-2.042-54.003 100.121-22.908 38.837z" fill="#0E4744"/><path d="M167.081 246.781l-38.408-19.494-76.43-43.196 87.462-154.756 115.736 65.41-64.681 114.446-23.679 37.59z" fill="#fff"/><path d="M204.839 149.43l-56.303-31.821a1.727 1.727 0 0 1-.656-2.363 1.727 1.727 0 0 1 2.363-.656l56.302 31.82a1.727 1.727 0 0 1 .657 2.363c-.474.839-1.58 1.099-2.363.657zm-59.304-26.51l56.302 31.821a1.726 1.726 0 0 1 .657 2.362 1.727 1.727 0 0 1-2.363.657l-56.303-31.821a1.726 1.726 0 0 1-.656-2.362 1.727 1.727 0 0 1 2.363-.657zm26.853 30.152l-33.323-18.834a1.726 1.726 0 0 1-.657-2.362 1.727 1.727 0 0 1 2.363-.657l33.323 18.834a1.726 1.726 0 0 1 .656 2.362 1.726 1.726 0 0 1-2.362.657zm-10.427 30.326l-38.355-21.677a1.727 1.727 0 0 1-.657-2.363 1.727 1.727 0 0 1 2.363-.656l38.355 21.677a1.727 1.727 0 0 1 .656 2.363 1.726 1.726 0 0 1-2.362.656zm-.854-15.457l25.215 14.251a1.727 1.727 0 0 1 .657 2.363 1.727 1.727 0 0 1-2.363.656l-56.302-31.82a1.727 1.727 0 0 1-.657-2.363 1.727 1.727 0 0 1 2.363-.656l31.087 17.569zm58.141-44.006l-56.303-31.82a1.727 1.727 0 0 1-.657-2.363 1.727 1.727 0 0 1 2.363-.656l56.303 31.82a1.727 1.727 0 0 1 .656 2.363c-.474.838-1.58 1.099-2.362.656zm4.708-8.33l-56.303-31.82a1.727 1.727 0 0 1-.657-2.364 1.727 1.727 0 0 1 2.363-.656l56.303 31.82a1.727 1.727 0 0 1 .656 2.363c-.474.839-1.58 1.099-2.362.657zm-75.095-23.631l-17.724-10.017 10.048-17.779 17.724 10.017-10.048 17.779zm-14.367-10.997l13.474 7.616 7.616-13.474-13.475-7.616-7.615 13.474z" fill="#A3BBC4"/><path d="M142.272 81.833l-2.37-5.987 2.633-.873 1.378 3.435 7.103-2.256.992 2.552-9.736 3.129z" fill="#C3D82E"/><path d="M109.553 161.525l-17.724-10.017 10.017-17.724 17.724 10.017-10.017 17.724zm-14.367-10.997l13.475 7.615 7.615-13.474-13.475-7.615-7.615 13.474z" fill="#A3BBC4"/><path d="M102.965 151.384l-2.371-5.987 2.633-.873 1.378 3.435 7.103-2.256.992 2.552-9.735 3.129z" fill="#C3D82E"/><path d="M129.618 126.022l-17.724-10.017 10.048-17.779 17.724 10.017-10.048 17.779zm-14.399-10.94l13.475 7.615 7.615-13.474-13.475-7.615-7.615 13.474z" fill="#A3BBC4"/><path d="M123.029 115.881l-2.37-5.987 2.632-.873 1.379 3.435 7.103-2.256.992 2.552-9.736 3.129z" fill="#C3D82E"/><path d="M168.471 192.241c-8.284-5.051-19.145-2.411-24.172 5.961-5.051 8.284-2.41 19.145 5.962 24.172 8.285 5.051 19.146 2.411 24.172-5.961 5.051-8.284 2.379-19.089-5.962-24.172zm1.832 21.69c-3.644 6.055-11.536 8.012-17.56 4.313-6.056-3.644-8.013-11.537-4.314-17.56 3.644-6.055 11.537-8.012 17.561-4.313 6.055 3.644 8.012 11.537 4.313 17.56z" fill="#D6F2F5"/><path d="M148.781 226.037l-.559-.316c-10.154-6.181-13.364-19.429-7.27-29.558 6.212-10.21 19.293-13.513 29.558-7.269 4.882 2.98 8.409 7.703 9.766 13.265 1.357 5.562.516 11.357-2.496 16.294-6.118 10.041-18.823 13.335-28.999 7.584zm20.349-36.005c-9.393-5.309-21.081-2.251-26.669 6.984-5.651 9.347-2.677 21.576 6.67 27.227 9.458 5.715 21.544 2.735 27.227-6.668 2.759-4.49 3.578-9.854 2.287-15.01-1.291-5.156-4.435-9.514-8.956-12.217-.255-.071-.391-.221-.559-.316z" fill="#D6F2F5"/><path d="M153.712 212.743l-2.633-9.307 4.011-.832 1.514 5.282 10.871-2.265 1.094 3.937-14.857 3.185z" fill="#C3D82E"/></g><g clip-path="url(#b)" fill-rule="evenodd" clip-rule="evenodd"><path d="M182.197 331.675c-.386 5.962 6 12.713 15.515 4.511 2.121 4.789 9.28 6.412 13.806-.269 4.141 6.076 11-2.81 13.169-6.462 10.45-18.68 11.233-44.605 26.97-61.092 6.473 3.87 13.869 4.469 21.726 3.432-5.586 7.684 1.685 5.602 5.837 4.472-4.314 6.48.026 5.972 4.615 4.029-1.483 8.199 2.795 9.749 9.28 6.412-3.041 18.867 7.11 10.064 13.757 1.378-.535 17.695 7.336 29.837 16.775 3.718 2.059 13.643 14.508 31.048 11.885-4.847 9.467 13.83 36.42 28.308 10.787-9.405 16.663 14.217 52.62 23.775 12.333-6.072 17.848 9.1 76.404 13.67 6.248-9.108-24.882-8.042-47.008-18.691-64.882-33.763 2.505-14.762 2.293-14.562 10.137-21.982 4.664-4.412 10.8-9.817 6.895-16.917 1.771-4.073 6.06-9.73 7.794-12.569-3.917.107-11.249 4.246-13.394 7.074-8.993-2.286-14.255 1.493-19.006 8.786-4.327 6.891-5.674 10.564-14.99 12.181-14.07-18.27-23.464-41.364-30.114-66.654-19.065-71.11-17.537-12.592-9.441 5.733-27.567-41.88-20.03-5.036-6.745 11.978-36.446-27.484-23.273.03-9.989 10.249-35.695-4.609-19.218 8.987-5.499 11.598-26.601 7.976-14.914 16.508 2.783 16.956-9.041 6.154-18.394 15.802.613 13.811-3.691 6.29-2.381 10.648 5.888 9.621-2.195 4.475-2.943 8.78 3.767 4.832-1.359 4.083-3.84 11.228 4.141 6.076-1.471 7.787-1.283 15.205 2.222 21.883-16.324 15.442-42.252 14.787-61.483 24.184-3.766 1.964-13.019 8.319-7.182 12.791-6.909 3.738-5.698 11.387-1.034 13.77-8.517 9.257-2.33 15.797 3.644 15.742-13.393 13.869-.995 26.126 13.172 13.923z" fill="#30302F"/><path d="M318.086 189.53c1.77-4.073 6.06-9.73 7.793-12.569-3.916.107-11.249 4.246-13.394 7.074l2.108 5.201 3.493.294z" fill="#92A2AB"/><path d="M318.086 189.531c1.77-4.074 6.06-9.731 7.793-12.57-6.746 5.183-11.485 12.065-11.485 12.065l3.692.505z" fill="#6B777E"/><path d="M197.712 336.186c2.121 4.789 9.28 6.412 13.806-.269 7.37-12.168 12.918-25.412 15.623-39.964-7.631 14.015-17.508 27.356-29.429 40.233zm-31.497-48.157c-6.908 3.738-5.698 11.387-1.033 13.77 11.872-11.231 26.338-19.719 41.802-27.153-13.868 2.326-27.587 6.509-40.769 13.383zm2.61 29.512c-13.393 13.869-.995 26.126 13.172 13.923 17.895-19.727 34.18-40.73 49.057-62.798-21.275 15.729-42.151 31.88-62.229 48.875z" fill="#232424"/><path d="M300.641 228.419c15.654 13.574 35.535 23.549 57.336 31.307-18.53 27.124-47.664 23.505-70.251 14.491-16.489-6.388-26.579-13.233-17.525-19.799 11.56-7.738 21.699-16.13 30.44-25.999zm-22.153-23.417c-12.685-16.382-21.542-36.785-28.08-58.983-28.109 16.997-26.111 46.288-18.363 69.34 5.464 16.817 11.739 27.271 18.797 18.596 8.567-10.903 17.308-20.772 27.646-28.953z" fill="#40484C"/><path d="M250.454 219.531c1.484-8.199 5.162-14.077 13.817-14.27 9.279-.383 5.526 1.169 1.286 5.18a143.315 143.315 0 0 0-10.85 11.463c-5.125 6.048-6.01 8.084-4.253-2.373zm34.526 36.496c8.268-1.027 14.342-4.374 15.014-13.005.897-9.243-.861-5.581-5.101-1.57a143.289 143.289 0 0 1-12.046 10.197c-6.124 4.993-8.406 5.553 2.133 4.378z" fill="#6B777E"/></g><defs><clipPath id="a"><path fill="#fff" transform="rotate(29.474 32.554 210.036)" d="M0 0h219v217H0z"/></clipPath><clipPath id="b"><path fill="#fff" transform="rotate(-43.411 352.542 19.557)" d="M0 0h225v239H0z"/></clipPath></defs></svg>