<svg width="43" height="44" viewBox="0 0 43 44" fill="none" xmlns="http://www.w3.org/2000/svg"><mask id="a" maskUnits="userSpaceOnUse" x="0" y="0" width="43" height="44"><circle cx="21.5" cy="22.15" r="21.5" fill="#C4C4C4"/></mask><g mask="url(#a)"><ellipse cx="22.5" cy="22.65" rx="20.5" ry="21" fill="#55ADBB"/><path fill-rule="evenodd" clip-rule="evenodd" d="M19.7 39.722c1.1 2.2 2.8 4.2 5 5.8 1 .8 2.6.5 2.8-.9.1-.8.1-1.7-.1-2.6-2.7-.8-5.2-1.6-7.7-2.3z" fill="#C2C3C3"/><path fill-rule="evenodd" clip-rule="evenodd" d="M7 8.322c2.1.3 4.1.5 6.1.5 6.2-2.6 10.5-.7 13.3 5 .8 2.4 1.8 4.5 3.2 6.2 7.8 3.9 14.4 10.7 16.6 19.3 4.4 3.5 12.2 5.4 20.3 7.3 3.9 1 14.7 1.7 10.6 5 1.7.8-1 3.4-3.7 2.1-4 4.9-24.4-6.9-28.8-10.2-7.6.8-22.2.7-27.7-5.6-5.4-6.1-2.2-17.1-4-23.9-2-1.1-3.9-3-5.9-5.7z" fill="#30302F"/><path fill-rule="evenodd" clip-rule="evenodd" d="M44.7 43.522c-7.6.8-22.2.7-27.7-5.6-1.9-2.2-2.7-4.9-3.1-7.8l11.5-6.3c3.7 2.7 7.3 5.4 11 8.1 4.7 4.4 7.9 8.4 8.3 11.6z" fill="#D7D8D8"/><path fill-rule="evenodd" clip-rule="evenodd" d="M7 8.322c2.1.3 4.1.5 6.1.5 2.9-1.2 5.3-1.5 7.4-.8 3.3 1 5.2 4 6.3 7 .7 1.9 1.6 3.6 2.7 4.9-4.7-.4-5.9 3.3-6 8.3-.8 7.6-4 12-9.4 3.9-1.2-5.8.1-13.1-1.2-18.1-2-1.1-3.9-3-5.9-5.7z" fill="#30302F"/><path fill-rule="evenodd" clip-rule="evenodd" d="M7 8.322c2.1.3 4.1.5 6.1.5.2.4.2.8.1 1.2 2.3 2.2 2.2 3.2-.3 4-2-1.1-3.9-3-5.9-5.7z" fill="#92A2AB"/><path fill-rule="evenodd" clip-rule="evenodd" d="M14.8 12.922c-.2.4-.8.8-1.9 1.1-2-1.1-3.9-3-5.9-5.7 0 0 4.2 3.9 7.8 4.6z" fill="#6B777E"/><path fill-rule="evenodd" clip-rule="evenodd" d="M20.2 9.922c.8 0 1.4.6 1.4 1.4 0 .8-.6 1.4-1.4 1.4-.8 0-1.4-.6-1.4-1.4 0-.8.6-1.4 1.4-1.4z" fill="#AEDBF0"/><path fill-rule="evenodd" clip-rule="evenodd" d="M20.2 10.622c.4 0 .7.3.7.7 0 .4-.3.7-.7.7-.4 0-.7-.3-.7-.7 0-.4.3-.7.7-.7z" fill="#30302F"/><path fill-rule="evenodd" clip-rule="evenodd" d="M19.6 10.622c.2 0 .4.2.4.4s-.2.4-.4.4-.4-.2-.4-.4c0-.3.1-.4.4-.4z" fill="#FEFEFE"/><path fill-rule="evenodd" clip-rule="evenodd" d="M31.6 19.222c6.6 4.3 12 10.8 14 18.6-2.8-.5-5.5-1.2-8-2.1-5.6-2-16.5-6.4-14.1-14 1-3.2 4-5.2 8.1-2.5z" fill="#40484C"/><path fill-rule="evenodd" clip-rule="evenodd" d="M43.3 31.822c1 1.9 1.7 3.8 2.3 5.9-2.8-.5-5.5-1.2-8-2.1-5.6-2-16.5-6.4-14.1-14 0 0-1.8 8.9 19.5 10.2h.3z" fill="#6B777E"/><path fill-rule="evenodd" clip-rule="evenodd" d="M31.1 41.222c1 1.6 2.4 3 4.1 4.3 1 .8 2.6.5 2.8-.9.1-.8.1-1.7-.2-2.6-.4-1.4-2.5-2.1-6.4-2.2-1-.1-.7.7-.3 1.4z" fill="#C2C3C3"/></g></svg>