<svg width="23" height="28" viewBox="0 0 23 28" fill="none" xmlns="http://www.w3.org/2000/svg"><path d="M20.71 1.381c-.95.121-2.15.302-3.427.302-1.994 0-3.799-.492-5.629-.88C9.798.406 7.882 0 5.853 0 1.804 0 .432.872.293.967L0 1.174v26.451h1.381v-12.37c.518-.217 1.882-.597 4.48-.597 1.883 0 3.644.717 5.517 1.123 1.9.405 3.867.829 6 .829 1.269 0 2.391-.173 3.34-.285.519-.06.976-.121 1.382-.19V1.165a25.2 25.2 0 0 1-1.39.216zm0 13.554c-.95.12-2.063.302-3.34.302-1.995 0-3.886-.406-5.716-.794-1.856-.397-3.764-1.149-5.792-1.149-2.219 0-3.617.26-4.48.518V1.96c.517-.216 1.89-.587 4.48-.587 1.882 0 3.643.37 5.516.777 1.9.405 3.781.915 5.913.915 1.27 0 2.478-.173 3.428-.285l-.009 12.155z" fill="#369CB7"/></svg>