<svg width="24" height="31" viewBox="0 0 24 31" fill="none" xmlns="http://www.w3.org/2000/svg"><path d="M20.58 1.82l-.17-.17v1.94h1.94l-.17-.17-1.6-1.6z" fill="#EFFAFE" stroke="#369CB7" stroke-width=".2"/><path d="M21.846 3.878h-.1v24.897a.872.872 0 0 1-.872.873v.2h.608a1.072 1.072 0 0 0 1.072-1.073V3.878h-.708z" fill="#E4EBED" stroke="#369CB7" stroke-width=".2"/><path d="M2.52 30.394h18.962a1.62 1.62 0 0 0 1.618-1.619V3.733a.422.422 0 0 0-.116-.282l-.002-.002-2.431-2.431-.03-.03h-.01A.411.411 0 0 0 20.27.9H2.519A1.62 1.62 0 0 0 .9 2.52v26.255a1.62 1.62 0 0 0 1.62 1.62zM20.67 3.331V2.275l1.057 1.056H20.67zM1.708 2.52a.813.813 0 0 1 .811-.811h17.343v2.027a.404.404 0 0 0 .404.404h2.026v24.636a.813.813 0 0 1-.81.812H2.52a.813.813 0 0 1-.812-.812V2.519z" fill="#369CB7" stroke="#369CB7" stroke-width=".2"/><path d="M4.221 24.734a1.494 1.494 0 1 0-1.498-1.495 1.495 1.495 0 0 0 1.498 1.495zm0-2.18a.685.685 0 1 1-.685.685h-.1.1a.686.686 0 0 1 .685-.685v-.1.1zm16.653.286H6.521a.404.404 0 0 0 0 .808h14.353a.404.404 0 0 0 .286-.69.404.404 0 0 0-.286-.118zM4.221 20.895a1.493 1.493 0 1 0-1.498-1.493 1.494 1.494 0 0 0 1.498 1.493zm0-2.178a.685.685 0 1 1-.685.685h-.1.1a.687.687 0 0 1 .685-.685v-.1.1zm16.653.281H6.521a.404.404 0 0 0 0 .808h14.353a.404.404 0 0 0 .286-.69.404.404 0 0 0-.286-.118zm-16.653-1.94a1.493 1.493 0 1 0-1.498-1.493 1.494 1.494 0 0 0 1.498 1.493zm0-2.179a.685.685 0 1 1-.685.686h-.1.1a.686.686 0 0 1 .685-.686v-.1.1zm16.653.281H6.521a.404.404 0 1 0 0 .809h14.353a.404.404 0 0 0 .286-.69.404.404 0 0 0-.286-.118zM4.221 13.22h.1v-.005a1.493 1.493 0 1 0-.1.005zm0-2.18a.685.685 0 1 1-.685.686h-.1.1a.686.686 0 0 1 .685-.685v-.1.1zm16.653.282H6.521a.404.404 0 0 0 0 .808h14.353a.404.404 0 0 0 .286-.69.404.404 0 0 0-.286-.118z" fill="#369CB7" stroke="#369CB7" stroke-width=".2"/></svg>