<svg width="49" height="48" viewBox="0 0 49 48" fill="none" xmlns="http://www.w3.org/2000/svg"><path opacity=".35" d="M44.75 13a9 9 0 0 0-9-9c-15 0-29 14-29 31a9 9 0 0 0 9 9c19 0 29-16 29-31z" fill="#F28713"/><path d="M29.628 13.121A2.99 2.99 0 0 0 31.75 14a2.998 2.998 0 0 0 2.122-5.12c-1.66-1.66-3.258-2.94-4.766-3.932a28.072 28.072 0 0 0-7.24 3.154c1.922.53 4.6 1.856 7.762 5.02zM11.966 17.73c2.512.361 6.064 1.87 9.252 6.88a3.004 3.004 0 0 0 4.144.921 3.003 3.003 0 0 0 .92-4.142c-3.226-5.072-6.866-7.58-10.126-8.772a32.252 32.252 0 0 0-4.19 5.112zm-3.048 5.954a31.3 31.3 0 0 0-1.664 5.924c1.312.796 2.782 1.922 4.374 3.514A2.99 2.99 0 0 0 13.75 34a2.998 2.998 0 0 0 2.122-5.12c-2.492-2.492-4.836-4.12-6.954-5.196z" fill="#F28713"/></svg>