<svg width="48" height="48" viewBox="0 0 48 48" fill="none" xmlns="http://www.w3.org/2000/svg"><path opacity=".35" d="M42 22H6c0-7.732 8.268-14 16-14h4c7.732 0 16 6.268 16 14zM6 32h36c0 5.522-4.478 10-10 10H16c-5.522 0-10-4.478-10-10z" fill="#F28713"/><path d="M41 26H7a3.001 3.001 0 0 1 0-6h34a3.001 3.001 0 0 1 0 6z" fill="#F28713"/><path opacity=".35" d="M39 24c-.772 0-1.468.3-2 .778A2.982 2.982 0 0 0 35 24c-.496 0-.956.132-1.368.344A3.994 3.994 0 0 0 30 22a3.97 3.97 0 0 0-3 1.38A3.97 3.97 0 0 0 24 22a3.97 3.97 0 0 0-3 1.38A3.97 3.97 0 0 0 18 22a3.994 3.994 0 0 0-3.632 2.344A2.975 2.975 0 0 0 13 24c-.772 0-1.468.3-2 .778A2.982 2.982 0 0 0 9 24a3.001 3.001 0 0 0 0 6c.772 0 1.468-.3 2-.778A2.982 2.982 0 0 0 13 30c.922 0 1.736-.424 2.286-1.078A3.97 3.97 0 0 0 18 30a3.977 3.977 0 0 0 3-1.38A3.977 3.977 0 0 0 24 30a3.977 3.977 0 0 0 3-1.38A3.977 3.977 0 0 0 30 30c1.052 0 2-.414 2.714-1.078A2.978 2.978 0 0 0 35 30c.772 0 1.468-.3 2-.778A2.982 2.982 0 0 0 39 30a3.001 3.001 0 0 0 0-6z" fill="#F28713"/><path d="M41.78 28.115A2.996 2.996 0 0 1 39 30c-.772 0-1.468-.3-2-.778A2.982 2.982 0 0 1 35 30a2.978 2.978 0 0 1-2.286-1.078A3.97 3.97 0 0 1 30 30a3.977 3.977 0 0 1-3-1.38A3.977 3.977 0 0 1 24 30a3.977 3.977 0 0 1-3-1.38A3.977 3.977 0 0 1 18 30c-1.052 0-2-.414-2.714-1.078A2.978 2.978 0 0 1 13 30c-.772 0-1.468-.3-2-.778A2.982 2.982 0 0 1 9 30a2.996 2.996 0 0 1-2.78-1.884A2.99 2.99 0 0 0 4 31c0 1.656 1.344 3 3 3h34c1.656 0 3-1.344 3-3a2.99 2.99 0 0 0-2.22-2.884zM24 10a2 2 0 0 0 2-2h-4a2 2 0 0 0 2 2zm-10 2a2 2 0 0 0 2-2c0-.26-.058-.506-.148-.734a18.292 18.292 0 0 0-3.46 1.86c.362.516.93.874 1.608.874zm6 4a2 2 0 1 0 0-4 2 2 0 0 0 0 4zm8 0a2 2 0 1 0 0-4 2 2 0 0 0 0 4zm6-4c.678 0 1.246-.358 1.608-.874a18.067 18.067 0 0 0-3.46-1.86c-.09.228-.148.474-.148.734a2 2 0 0 0 2 2z" fill="#F28713"/></svg>