<svg width="48" height="48" viewBox="0 0 48 48" fill="none" xmlns="http://www.w3.org/2000/svg"><g clip-path="url(#a)" fill="#F28713"><path opacity=".35" d="M36.486 37.484c6.638-6.639 8.221-15.82 3.535-20.506-4.687-4.686-13.867-3.103-20.506 3.536-6.64 6.64-8.222 15.82-3.535 20.506 4.686 4.686 13.867 3.103 20.506-3.536z"/><path d="M19.514 20.514c2.75-2.75 5.938-4.618 9.06-5.548C26.552 9.63 22.576 6 18 6 11.372 6 6 13.612 6 23c0 7.756 3.67 14.286 8.68 16.326-2.968-4.974-1.08-12.896 4.834-18.812z"/><path d="M42.088 20.31c-.446-1.252-1.122-2.386-2.068-3.332a8.672 8.672 0 0 0-2.198-1.578c.504 3.724.552 8.554-1.638 10.788-1.33 1.358-3.582 1.654-6.7.872-3.99-.996-7.344-.464-9.974 1.588-3.152 2.462-4.518 6.63-5.098 10.202.41.794.924 1.526 1.566 2.17a8.652 8.652 0 0 0 2.062 1.516c.152-2.968.864-8.34 3.932-10.734 1.628-1.274 3.768-1.556 6.542-.862 4.594 1.148 8.136.492 10.532-1.958 2.156-2.202 2.912-5.478 3.042-8.672z"/></g><defs><clipPath id="a"><path fill="#fff" d="M0 0h48v48H0z"/></clipPath></defs></svg>