<svg width="48" height="48" viewBox="0 0 48 48" fill="none" xmlns="http://www.w3.org/2000/svg"><path opacity=".35" d="M28 44h-8c-6.628 0-12-5.372-12-12a2 2 0 0 1 2-2h28a2 2 0 0 1 2 2c0 6.628-5.372 12-12 12z" fill="#F28713"/><path d="M40 32H8a2 2 0 0 1 0-4h32a2 2 0 0 1 0 4z" fill="#F28713"/><path d="M22 32h4c6.628 0 12-5.372 12-12H10c0 6.628 5.372 12 12 12z" fill="#F28713"/><path opacity=".35" d="M38 20H10a2 2 0 0 1 0-4h28a2 2 0 0 1 0 4z" fill="#F28713"/><path d="M14 12c0 1.464.422 2.82 1.11 4h17.78c.688-1.18 1.11-2.536 1.11-4v-2H14v2z" fill="#F28713"/><path opacity=".35" d="M34 10H14a2 2 0 0 1 0-4h20a2 2 0 0 1 0 4z" fill="#F28713"/></svg>