<svg width="48" height="48" viewBox="0 0 48 48" fill="none" xmlns="http://www.w3.org/2000/svg"><path opacity=".35" d="M36 42H12a6 6 0 0 1-6-6V14h36v22a6 6 0 0 1-6 6z" fill="#F28713"/><path d="M24 42H14V28a2 2 0 0 1 2-2h6a2 2 0 0 1 2 2v14zm10-8h-4a2 2 0 0 1-2-2v-4a2 2 0 0 1 2-2h4a2 2 0 0 1 2 2v4a2 2 0 0 1-2 2zm9.79-16.894L42 13.528V12a6 6 0 0 0-6-6H12a6 6 0 0 0-6 6v1.528l-1.79 3.578a1.999 1.999 0 0 0 .458 2.386C4.956 19.748 7.574 22 11 22c2.216 0 4.096-.944 5.224-1.678C17.774 20.99 20.664 22 24 22c3.336 0 6.226-1.01 7.776-1.678C32.904 21.056 34.784 22 37 22c3.426 0 6.044-2.252 6.332-2.508a1.999 1.999 0 0 0 .458-2.386z" fill="#F28713"/></svg>