<svg width="48" height="48" viewBox="0 0 48 48" fill="none" xmlns="http://www.w3.org/2000/svg"><path opacity=".35" d="M43.79 17.106L42 13.528V10a6 6 0 0 0-6-6H12a6 6 0 0 0-6 6v3.528l-1.79 3.578a1.999 1.999 0 0 0 .458 2.386C4.956 19.748 7.574 22 11 22c2.216 0 4.096-.944 5.224-1.678C17.774 20.99 20.664 22 24 22c3.336 0 6.226-1.01 7.776-1.678C32.904 21.056 34.784 22 37 22c3.426 0 6.044-2.252 6.332-2.508a1.999 1.999 0 0 0 .458-2.386z" fill="#F28713"/><path d="M40 28v-6.572c-.886.326-1.894.572-3 .572-.348 0-.67-.058-1-.1V28H12v-6.1c-.33.042-.652.1-1 .1-1.106 0-2.114-.246-3-.572V28a2 2 0 0 0-2 2v8a6 6 0 0 0 6 6h24a6 6 0 0 0 6-6v-8a2 2 0 0 0-2-2z" fill="#F28713"/></svg>