<svg width="67" height="67" viewBox="0 0 67 67" fill="none" xmlns="http://www.w3.org/2000/svg"><path fill-rule="evenodd" clip-rule="evenodd" d="M32.018 4.799a2.094 2.094 0 0 1 2.964 0l25.125 25.125a2.093 2.093 0 0 1 .612 1.482V60.72a2.093 2.093 0 0 1-2.094 2.094H39.781a2.094 2.094 0 0 1-2.093-2.094V43.97h-8.376v16.75a2.094 2.094 0 0 1-2.093 2.094H8.375a2.094 2.094 0 0 1-2.094-2.094V31.406a2.094 2.094 0 0 1 .612-1.482L32.018 4.799zm-21.55 27.474v26.352h14.657v-16.75a2.094 2.094 0 0 1 2.094-2.094H39.78a2.094 2.094 0 0 1 2.094 2.094v16.75H56.53V32.273L33.5 9.242 10.469 32.273z" fill="url(#a)"/><path fill-rule="evenodd" clip-rule="evenodd" d="M54.438 10.469v14.656l-8.376-8.375v-6.281a2.094 2.094 0 0 1 2.094-2.094h4.188a2.094 2.094 0 0 1 2.093 2.094z" fill="url(#b)"/><defs><linearGradient id="a" x1="33.5" y1="4.184" x2="33.5" y2="62.813" gradientUnits="userSpaceOnUse"><stop stop-color="#C50514"/><stop offset="1" stop-color="#F4782E"/></linearGradient><linearGradient id="b" x1="50.25" y1="8.375" x2="50.25" y2="25.125" gradientUnits="userSpaceOnUse"><stop stop-color="#C50514"/><stop offset="1" stop-color="#F4782E"/></linearGradient></defs></svg>