<svg width="36" height="36" viewBox="0 0 36 36" fill="none" xmlns="http://www.w3.org/2000/svg"><path fill-rule="evenodd" clip-rule="evenodd" d="M18 33.75a15.75 15.75 0 1 0 0-31.5 15.75 15.75 0 0 0 0 31.5zM18 36a18 18 0 1 0 0-36 18 18 0 0 0 0 36z" fill="#F4782E"/><path fill-rule="evenodd" clip-rule="evenodd" d="M17.204 25.547a1.124 1.124 0 0 1 0-1.594L23.159 18l-5.955-5.954a1.126 1.126 0 1 1 1.593-1.592l6.75 6.75a1.127 1.127 0 0 1 0 1.593l-6.75 6.75a1.127 1.127 0 0 1-1.593 0z" fill="#F4782E"/><path fill-rule="evenodd" clip-rule="evenodd" d="M10.125 18a1.125 1.125 0 0 1 1.125-1.125H22.5a1.125 1.125 0 1 1 0 2.25H11.25A1.125 1.125 0 0 1 10.125 18z" fill="#F4782E"/></svg>