<svg width="96" height="41" viewBox="0 0 96 41" fill="none" xmlns="http://www.w3.org/2000/svg"><path d="M41.832 26H40.67v-8.962h-5.134V26h-1.162v-9.994h7.458V26zm6.07.137c-.487 0-.934-.09-1.34-.267a2.546 2.546 0 0 1-1.011-.834h-.082c.054.438.082.852.082 1.244v3.083h-1.135V18.508h.923l.157 1.025h.055c.291-.41.631-.706 1.018-.889a3.103 3.103 0 0 1 1.333-.273c.994 0 1.76.34 2.297 1.019.543.679.814 1.631.814 2.857 0 1.23-.276 2.188-.828 2.871-.546.68-1.307 1.019-2.283 1.019zm-.164-6.802c-.765 0-1.32.212-1.66.636-.343.424-.518 1.098-.527 2.023v.253c0 1.053.175 1.807.526 2.263.351.45.914.676 1.689.676.647 0 1.153-.262 1.517-.786.37-.524.554-1.246.554-2.167 0-.934-.185-1.65-.554-2.146-.364-.501-.88-.752-1.545-.752zM57.61 26l-.225-1.066h-.055c-.374.469-.747.788-1.121.957-.37.164-.832.246-1.388.246-.742 0-1.326-.192-1.75-.575-.419-.382-.629-.927-.629-1.633 0-1.513 1.21-2.306 3.63-2.38l1.272-.04v-.465c0-.588-.128-1.02-.383-1.299-.25-.282-.654-.424-1.21-.424-.624 0-1.33.192-2.12.574l-.348-.868c.37-.2.773-.357 1.21-.471a5.29 5.29 0 0 1 1.326-.171c.894 0 1.554.198 1.983.595.433.396.65 1.032.65 1.907V26h-.842zm-2.563-.8c.706 0 1.26-.194 1.661-.58.406-.388.608-.93.608-1.628v-.677l-1.134.048c-.903.032-1.554.174-1.955.424-.397.246-.595.631-.595 1.155 0 .41.123.723.369.937.25.214.6.321 1.046.321zm11.826-4.812c0 .487-.141.859-.424 1.114-.278.25-.67.42-1.175.506v.061c.638.087 1.102.274 1.394.56.296.288.444.684.444 1.19 0 .698-.257 1.235-.772 1.614-.51.378-1.258.567-2.242.567h-3.302v-7.492h3.288c1.86 0 2.79.626 2.79 1.88zm-.895 3.356c0-.405-.155-.7-.465-.882-.306-.186-.814-.28-1.525-.28H61.93v2.468h2.085c1.308 0 1.962-.435 1.962-1.306zm-.212-3.247c0-.364-.142-.622-.424-.772-.278-.155-.702-.233-1.272-.233h-2.14v2.113h1.922c.701 0 1.196-.087 1.483-.26.287-.173.43-.456.43-.848zm4.067-1.99v4.752l-.048 1.244-.02.39 4.053-6.385h1.415V26h-1.06v-4.58l.021-.902.035-.89L70.18 26h-1.415v-7.492h1.066zM83.224 26h-1.149v-6.521h-2.249c-.123 1.622-.294 2.91-.512 3.862-.22.952-.504 1.65-.855 2.092-.346.442-.788.663-1.326.663-.246 0-.442-.028-.588-.082v-.841c.1.027.214.04.342.04.524 0 .94-.553 1.25-1.66.31-1.108.545-2.79.705-5.045h4.382V26zm7.02 0l-.225-1.066h-.055c-.374.469-.748.788-1.121.957-.37.164-.832.246-1.388.246-.743 0-1.326-.192-1.75-.575-.42-.382-.629-.927-.629-1.633 0-1.513 1.21-2.306 3.63-2.38l1.272-.04v-.465c0-.588-.128-1.02-.383-1.299-.25-.282-.654-.424-1.21-.424-.625 0-1.331.192-2.12.574l-.348-.868c.37-.2.772-.357 1.21-.471a5.29 5.29 0 0 1 1.326-.171c.893 0 1.554.198 1.983.595.432.396.649 1.032.649 1.907V26h-.84zm-2.563-.8c.706 0 1.26-.194 1.66-.58.406-.388.61-.93.61-1.628v-.677l-1.136.048c-.902.032-1.554.174-1.955.424-.396.246-.594.631-.594 1.155 0 .41.123.723.369.937.25.214.599.321 1.046.321zm-48.426 7.278H36.82V39h-1.134v-6.522H33.28v-.97h5.975v.97zm4.648 6.659c-1.107 0-1.982-.337-2.625-1.012-.638-.675-.957-1.611-.957-2.81 0-1.207.297-2.167.889-2.877.597-.711 1.397-1.067 2.4-1.067.938 0 1.681.31 2.228.93.547.615.82 1.428.82 2.44v.718h-5.16c.022.88.243 1.547.662 2.003.424.456 1.019.683 1.784.683a6.04 6.04 0 0 0 2.393-.505v1.011a5.805 5.805 0 0 1-1.142.37 6.162 6.162 0 0 1-1.292.116zm-.307-6.816c-.602 0-1.083.196-1.443.588-.355.392-.565.934-.629 1.627h3.917c0-.715-.16-1.262-.478-1.64-.32-.383-.775-.575-1.367-.575zM49.734 39H48.6v-7.492h6.289V39H53.74v-6.508h-4.006V39zm13.146 0h-1.15v-6.522h-2.249c-.123 1.623-.294 2.91-.512 3.863-.219.952-.504 1.65-.855 2.092-.346.442-.788.663-1.326.663-.246 0-.442-.028-.588-.082v-.841c.1.027.214.04.342.04.524 0 .941-.553 1.25-1.66.31-1.108.546-2.79.705-5.045h4.382V39zm7.02 0l-.225-1.066h-.055c-.374.469-.747.788-1.121.957-.37.164-.832.246-1.388.246-.743 0-1.326-.192-1.75-.575-.419-.382-.629-.927-.629-1.633 0-1.513 1.21-2.306 3.63-2.38l1.272-.04v-.465c0-.588-.128-1.02-.383-1.299-.25-.282-.654-.424-1.21-.424-.624 0-1.33.192-2.12.575l-.348-.869c.37-.2.773-.357 1.21-.471a5.29 5.29 0 0 1 1.326-.171c.894 0 1.554.198 1.983.595.433.396.65 1.032.65 1.907V39H69.9zm-2.563-.8c.706 0 1.26-.194 1.661-.58.406-.388.608-.93.608-1.628v-.677l-1.134.048c-.903.032-1.554.173-1.955.424-.397.246-.595.631-.595 1.155 0 .41.123.723.369.937.25.214.6.321 1.046.321z" fill="#fff"/><path d="M22.013 15.32c2.833 3.98 4.952 6.068 6.408 10.805.764 2.482.78 4.183 0 6.66-.658 2.093-1.552 3.237-3.13 4.737-1.27 1.204-3.642 2.368-3.642 2.368s.683-2.74.801-5.55c.146-3.479-2.84-6.44-2.84-6.44s-1.31 3.997-2.476 5.7c-.896 1.31-3.155.133-3.568-1.407-.324-1.21-.024-2.59.583-3.552 2.476-3.923 1.966-6.069 1.966-6.069S8.76 28.05 6.795 33.155c-1.1 2.853.218 6.735.873 7.845 0 0-3.131-.814-5.68-4.663C.64 34.302.152 33.015.022 30.566c-.162-3.068.583-5.18 1.82-7.993 1.23-2.791 3.86-6.734 3.86-6.734s.967 1.993 1.82 3.034c.729.888 2.04.814 2.04.814s.8.444-1.093-5.699S14.513 0 14.513 0s.29 3.88 1.966 7.179a34.59 34.59 0 0 0 1.818 3.125c1.364 2.072 2.866 3.969 3.457 4.699l.26.316z" fill="#F4782E"/></svg>