<svg width="118" height="60" viewBox="0 0 118 60" fill="none" xmlns="http://www.w3.org/2000/svg"><path d="M56.094 44h-1.328V33.758h-5.868V44H47.57V32.578h8.524V44zm6.937.156a3.774 3.774 0 0 1-1.531-.304 2.91 2.91 0 0 1-1.156-.954h-.094c.063.5.094.974.094 1.422v3.524h-1.297V35.437h1.055l.18 1.172h.062c.333-.468.721-.807 1.164-1.015.442-.209.95-.313 1.523-.313 1.136 0 2.01.388 2.625 1.164.62.776.93 1.865.93 3.266 0 1.406-.315 2.5-.945 3.281-.625.776-1.495 1.164-2.61 1.164zm-.187-7.773c-.875 0-1.508.242-1.899.726-.39.485-.59 1.256-.601 2.313v.289c0 1.203.2 2.065.601 2.586.401.516 1.045.773 1.93.773.74 0 1.318-.3 1.734-.898.422-.6.633-1.425.633-2.477 0-1.067-.21-1.885-.633-2.453-.416-.573-1.005-.86-1.765-.86zM74.125 44l-.258-1.219h-.062c-.427.537-.855.901-1.282 1.094-.421.188-.95.281-1.585.281-.85 0-1.516-.218-2-.656-.48-.438-.72-1.06-.72-1.867 0-1.73 1.384-2.636 4.15-2.719l1.452-.047v-.531c0-.672-.145-1.167-.437-1.484-.287-.323-.748-.485-1.383-.485-.713 0-1.52.219-2.422.656l-.398-.992a6.104 6.104 0 0 1 1.382-.539 6.052 6.052 0 0 1 1.516-.195c1.021 0 1.776.226 2.266.68.495.453.742 1.18.742 2.18V44h-.961zm-2.93-.914c.808 0 1.44-.221 1.899-.664.463-.443.695-1.063.695-1.86v-.773l-1.297.055c-1.031.036-1.776.198-2.234.484-.453.281-.68.721-.68 1.32 0 .47.14.826.422 1.07.287.245.685.368 1.195.368zm13.516-5.5c0 .557-.162.982-.484 1.273-.318.287-.766.48-1.344.578v.07c.729.1 1.26.313 1.594.641.338.329.507.782.507 1.36 0 .797-.294 1.411-.882 1.844-.584.432-1.438.648-2.563.648h-3.773v-8.563h3.757c2.125 0 3.188.717 3.188 2.149zm-1.023 3.836c0-.464-.178-.8-.532-1.008-.349-.214-.93-.32-1.742-.32h-2.352v2.82h2.383c1.495 0 2.243-.497 2.243-1.492zm-.243-3.711c0-.417-.161-.711-.484-.883-.318-.177-.802-.266-1.453-.266h-2.445v2.415h2.195c.802 0 1.367-.1 1.695-.297.328-.198.492-.521.492-.97zm4.649-2.273v5.43l-.055 1.421-.023.445 4.632-7.297h1.618V44h-1.211v-5.234l.023-1.032.04-1.015L88.491 44h-1.617v-8.563h1.219zM103.398 44h-1.312v-7.453h-2.57c-.141 1.854-.336 3.325-.586 4.414-.25 1.089-.576 1.885-.977 2.39-.396.506-.9.758-1.516.758-.28 0-.505-.03-.671-.093v-.961c.114.03.244.047.39.047.6 0 1.076-.633 1.43-1.899.354-1.266.622-3.187.805-5.766h5.007V44zm8.024 0l-.258-1.219h-.062c-.428.537-.855.901-1.282 1.094-.422.188-.95.281-1.586.281-.849 0-1.515-.218-2-.656-.479-.438-.718-1.06-.718-1.867 0-1.73 1.382-2.636 4.148-2.719l1.453-.047v-.531c0-.672-.146-1.167-.437-1.484-.287-.323-.748-.485-1.383-.485-.714 0-1.521.219-2.422.656l-.398-.992a6.09 6.09 0 0 1 1.382-.539 6.06 6.06 0 0 1 1.516-.195c1.021 0 1.776.226 2.266.68.494.453.742 1.18.742 2.18V44h-.961zm-2.93-.914c.807 0 1.44-.221 1.899-.664.463-.443.695-1.063.695-1.86v-.773l-1.297.055c-1.031.036-1.776.198-2.234.484-.453.281-.68.721-.68 1.32 0 .47.141.826.422 1.07.286.245.685.368 1.195.368zm-55.344 8.46h-2.78V59H49.07v-7.453h-2.75v-1.11h6.828v1.11zm5.313 7.61c-1.266 0-2.266-.385-3-1.156-.73-.77-1.094-1.841-1.094-3.21 0-1.381.339-2.477 1.016-3.29.682-.813 1.596-1.219 2.742-1.219 1.073 0 1.922.354 2.547 1.063.625.703.937 1.633.937 2.789v.82h-5.898c.026 1.005.279 1.768.758 2.29.484.52 1.164.78 2.039.78.922 0 1.833-.192 2.734-.578v1.157a6.627 6.627 0 0 1-1.304.421 7.04 7.04 0 0 1-1.477.133zm-.352-7.789c-.687 0-1.237.224-1.648.672-.406.448-.646 1.068-.719 1.86h4.477c0-.818-.183-1.443-.547-1.876-.365-.437-.886-.656-1.563-.656zM65.125 59h-1.297v-8.563h7.188V59h-1.313v-7.438h-4.578V59zm15.023 0h-1.312v-7.453h-2.57c-.141 1.854-.336 3.325-.586 4.414-.25 1.089-.576 1.885-.977 2.39-.396.506-.9.758-1.516.758-.28 0-.505-.03-.671-.093v-.961c.114.03.244.047.39.047.6 0 1.076-.633 1.43-1.899.354-1.266.622-3.187.805-5.766h5.007V59zm8.024 0l-.258-1.219h-.062c-.428.537-.855.901-1.282 1.094-.422.188-.95.281-1.586.281-.849 0-1.515-.218-2-.656-.479-.438-.718-1.06-.718-1.867 0-1.73 1.382-2.636 4.148-2.719l1.453-.047v-.531c0-.672-.146-1.167-.437-1.484-.287-.323-.748-.485-1.383-.485-.714 0-1.521.219-2.422.656l-.398-.992a6.085 6.085 0 0 1 1.382-.539 6.052 6.052 0 0 1 1.516-.195c1.02 0 1.776.226 2.266.68.494.453.742 1.18.742 2.18V59h-.961zm-2.93-.914c.807 0 1.44-.221 1.899-.664.463-.443.695-1.063.695-1.86v-.773l-1.297.055c-1.031.036-1.776.198-2.234.484-.453.281-.68.721-.68 1.32 0 .47.14.826.422 1.07.286.245.685.368 1.195.368z" fill="#000"/><path d="M31.881 22.419c4.103 5.824 7.172 8.88 9.28 15.812 1.106 3.633 1.13 6.122 0 9.747-.953 3.062-2.247 4.737-4.534 6.932-1.837 1.763-5.273 3.466-5.273 3.466s.99-4.01 1.16-8.123c.211-5.09-4.113-9.423-4.113-9.423s-1.898 5.849-3.586 8.34c-1.298 1.917-4.57.195-5.167-2.058-.47-1.772-.036-3.79.843-5.199 3.586-5.74 2.848-8.88 2.848-8.88s-10.652 8.014-13.5 15.487c-1.59 4.175.317 9.855 1.266 11.48 0 0-4.534-1.191-8.226-6.823C.927 50.198.22 48.315.032 44.729c-.235-4.49.844-7.581 2.636-11.697 1.78-4.085 5.59-9.855 5.59-9.855s1.4 2.917 2.637 4.44c1.054 1.3 2.952 1.192 2.952 1.192s1.16.65-1.582-8.34C9.523 11.48 21.02 0 21.02 0s.421 5.68 2.847 10.505A50.782 50.782 0 0 0 26.5 15.08c1.975 3.032 4.151 5.809 5.007 6.877l.375.463z" fill="#F4782E"/></svg>