<svg width="48" height="49" viewBox="0 0 48 49" fill="none" xmlns="http://www.w3.org/2000/svg"><circle cx="24" cy="24.962" r="24" fill="url(#a)"/><path d="M24 16.748c-4.595 0-8.334 3.767-8.334 8.397 0 4.63 3.739 8.397 8.334 8.397s8.333-3.767 8.333-8.397c0-4.63-3.738-8.397-8.333-8.397zm0 15.115c-3.676 0-6.667-3.014-6.667-6.718s2.991-6.717 6.667-6.717c3.676 0 6.666 3.013 6.666 6.717 0 3.704-2.99 6.718-6.666 6.718z" fill="#fff"/><path d="M24 24.306c-1.667 0-1.667-.526-1.667-.84 0-.407.584-.84 1.667-.84.987 0 1.155.536 1.166.855l.834-.015h.833c0-.862-.555-2.073-2-2.418v-.93h-1.666v.9c-1.643.278-2.5 1.366-2.5 2.448 0 .94.433 2.519 3.333 2.519 1.666 0 1.666.568 1.666.84 0 .348-.516.84-1.666.84-1.534 0-1.658-.72-1.667-.84h-1.666c0 .77.55 2.143 2.5 2.452v.906h1.666v-.91c1.643-.279 2.5-1.367 2.5-2.448 0-.94-.433-2.52-3.333-2.52z" fill="#fff"/><defs><linearGradient id="a" x1="24" y1=".962" x2="24" y2="48.962" gradientUnits="userSpaceOnUse"><stop stop-color="#C50514"/><stop offset="1" stop-color="#F4782E"/><stop offset="1" stop-color="#F4782E" stop-opacity="0"/><stop offset="1" stop-color="#F4782E"/></linearGradient></defs></svg>