<svg width="36" height="36" viewBox="0 0 36 36" fill="none" xmlns="http://www.w3.org/2000/svg"><g clip-path="url(#a)" fill="#000"><path d="M8.295 27.709c-.863 0-1.565.701-1.565 1.564 0 .863.702 1.565 1.565 1.565s1.565-.702 1.565-1.565-.702-1.564-1.565-1.564zm0 2.074a.51.51 0 1 1 .001-1.02.51.51 0 0 1 0 1.02z"/><path d="M33.553 5.745a8.337 8.337 0 0 0-5.5-2.438 8.337 8.337 0 0 0-5.497 1.718l-.395-.045c-1.189-.136-3.661-.42-4.243-.49a3.139 3.139 0 0 0-2.363.695l-5.04 4.17a5.09 5.09 0 0 0-1.67 2.58c-.556 2.015-1.588 5.574-2.313 7.006L4.32 21.153l-.146-.145a1.221 1.221 0 0 0-.87-.36 1.22 1.22 0 0 0-.868.36L.359 23.084a1.23 1.23 0 0 0 0 1.738l.551.55a.515.515 0 0 0 .729-.728l-.55-.55a.198.198 0 0 1 0-.281l2.076-2.077a.198.198 0 0 1 .28 0l.51.51 3.25 3.25 3.761 3.762a.198.198 0 0 1 0 .28L8.89 31.614a.198.198 0 0 1-.28 0l-4.64-4.639a.515.515 0 0 0-.729.729l4.64 4.64a1.227 1.227 0 0 0 1.738-.001l2.076-2.076c.232-.232.36-.54.36-.87 0-.327-.128-.636-.36-.868l-.148-.149.322-.322a2.34 2.34 0 0 1 1.022-.598l3.777-1.272a7.04 7.04 0 0 0 3.244-2.297l1.892-2.392 5.05-5.05c.242.047.53.079.802.083v.41c0 .16.159.305.383.305.199 0 .397-.146.397-.305v-.45c1.428-.198 2.407-1.097 2.407-2.724 0-1.798-1.256-2.38-2.407-2.804V8.28c.926.066 1.27.489 1.587.489.397 0 .582-.502.582-.754 0-.648-1.27-.926-2.169-.952v-.357c0-.159-.198-.304-.397-.304-.225 0-.383.145-.383.304v.383c-1.257.133-2.513.794-2.513 2.46 0 1.693 1.322 2.17 2.513 2.593v1.022c-.363-.431-.957-.68-1.721-.722-1.747-.095-4.16.879-5.496 2.214l-2.352 2.353a.875.875 0 0 1-.624.256h-.019c-.355 0-.846-.384-.981-.754v-5.07l1.688-1.39 1.335-.205a8.394 8.394 0 0 0 .001 3.62.516.516 0 0 0 1.007-.222 7.355 7.355 0 0 1 .181-3.85l.004-.013.002-.005a7.247 7.247 0 0 1 1.784-2.902c.175-.175.361-.344.553-.5l.012-.01.003-.002a7.306 7.306 0 0 1 4.97-1.625 7.308 7.308 0 0 1 4.821 2.137 7.277 7.277 0 0 1 2.145 5.18 7.277 7.277 0 0 1-2.145 5.179 7.362 7.362 0 0 1-7.013 1.913.515.515 0 0 0-.257.998 8.385 8.385 0 0 0 4.224-.01 8.35 8.35 0 0 0 3.775-2.172A8.303 8.303 0 0 0 36 11.652a8.3 8.3 0 0 0-2.447-5.907zm-5.196 6.687c.648.278 1.163.648 1.163 1.482 0 .753-.45 1.177-1.163 1.309v-2.79zm-1.892-3.015c0-.688.53-1.018 1.27-1.111v2.407c-.7-.264-1.27-.542-1.27-1.296zm-2.362 8.324l-.484-.484a.459.459 0 0 1 0-.653l.843-.843c.27-.27.624-.404.978-.404.28 0 .559.083.796.251l-2.133 2.133zm-4.297-8.987l-1.951.3a.515.515 0 0 0-.25.111l-1.986 1.634a.515.515 0 0 0-.187.398v5.391c0 .045.006.09.018.133.223.839 1.155 1.575 1.994 1.575h.02c.511 0 .992-.199 1.352-.56l2.351-2.351c1.134-1.134 3.248-1.992 4.713-1.914.334.018.778.096.995.366a.515.515 0 0 0 .037.04c.11.11.405.407.027.971a2.417 2.417 0 0 0-3.205.184l-.843.843a1.483 1.483 0 0 0-.438 1.056c0 .398.156.773.438 1.055l.484.484-2.321 2.32a.527.527 0 0 0-.04.046l-1.91 2.416a6.01 6.01 0 0 1-2.768 1.96l-3.764 1.268a3.373 3.373 0 0 0-1.431.849l-.323.322-2.884-2.884-2.886-2.885 2.27-2.269a.517.517 0 0 0 .091-.125c.771-1.47 1.853-5.191 2.43-7.28a4.065 4.065 0 0 1 1.333-2.06l5.04-4.169a2.103 2.103 0 0 1 1.583-.465c.511.06 2.468.286 3.746.432a8.246 8.246 0 0 0-1.735 2.808z"/></g><defs><clipPath id="a"><path fill="#fff" d="M0 0h36v36H0z"/></clipPath></defs></svg>