<svg width="36" height="36" viewBox="0 0 36 36" fill="none" xmlns="http://www.w3.org/2000/svg"><path d="M15.414 14.41c-.868 0-1.574.707-1.574 1.574 0 .868.706 1.574 1.574 1.574h5.179c.867 0 1.573-.706 1.573-1.574 0-.867-.706-1.573-1.573-1.573h-.116v-3.707a1.53 1.53 0 0 0-1.529-1.529h-3.534c-.868 0-1.574.706-1.574 1.574 0 .868.706 1.574 1.574 1.574h.377v2.088h-.377zm.905-3.142h-.905a.52.52 0 0 1 0-1.038h3.534c.262 0 .474.213.474.474v4.234c0 .291.236.527.528.527h.643a.52.52 0 0 1 0 1.038h-5.18a.52.52 0 0 1 0-1.038h.906a.527.527 0 0 0 .527-.527v-3.143a.527.527 0 0 0-.527-.527zm1.813-2.643a2.345 2.345 0 0 0 2.342-2.343 2.345 2.345 0 0 0-2.342-2.343 2.345 2.345 0 0 0-2.343 2.343 2.345 2.345 0 0 0 2.343 2.343zm0-3.63c.71 0 1.288.577 1.288 1.287a1.29 1.29 0 0 1-1.288 1.288 1.29 1.29 0 0 1-1.288-1.288c0-.71.578-1.288 1.288-1.288zM29.01 20.216H9.578a.527.527 0 1 0 0 1.054H29.01a.527.527 0 1 0 0-1.054zm.003 2.81h-3.36a.527.527 0 1 0 0 1.055h3.36a.527.527 0 1 0 0-1.055zM6.988 24.08H23.55a.527.527 0 1 0 0-1.054H6.988a.527.527 0 1 0 0 1.055zm22.025 1.756H6.988a.527.527 0 1 0 0 1.055h22.025a.527.527 0 1 0 0-1.055zm-6.485 2.81H6.988a.527.527 0 1 0 0 1.055h15.54a.527.527 0 1 0 0-1.055z" fill="#000"/><path d="M30.142 0H11.333a.528.528 0 0 0-.373.154L2.393 8.722a.527.527 0 0 0-.155.373V32.38A3.625 3.625 0 0 0 5.86 36h24.282a3.625 3.625 0 0 0 3.621-3.62V3.62A3.626 3.626 0 0 0 30.142 0zm2.567 32.379a2.57 2.57 0 0 1-2.567 2.566H5.86a2.57 2.57 0 0 1-2.567-2.566V9.622h4.946a3.626 3.626 0 0 0 3.622-3.62v-.48a.527.527 0 1 0-1.055 0v.48A2.57 2.57 0 0 1 8.24 8.567h-4.2L10.806 1.8v1.612a.527.527 0 0 0 1.055 0V1.055h18.28A2.57 2.57 0 0 1 32.71 3.62v28.76z" fill="#000"/></svg>