<svg width="77" height="77" viewBox="0 0 77 77" fill="none" xmlns="http://www.w3.org/2000/svg"><path fill="#6D9FB9" d="M.418.766h75.945v75.945H.418z"/><path fill-rule="evenodd" clip-rule="evenodd" d="M38.23 57.358a.4.4 0 0 0 .35-.005l.152-.077c.208-.11 16.184-8.53 16.184-30.617v-.282a.4.4 0 0 0-.314-.391l-.276-.06c-5.56-1.22-8.842-2.949-11.24-4.21l-.017-.01c-1.854-.972-3.194-1.675-4.677-1.675-1.483 0-2.824.703-4.678 1.675l-.017.01c-2.398 1.261-5.68 2.99-11.24 4.21l-.275.06a.4.4 0 0 0-.315.39v.283c0 22.88 16.046 30.555 16.21 30.629l.154.07zm-1.144-12.406l10.355-10.355-1.547-1.547-8.808 8.807-3.892-3.892-1.547 1.547 5.44 5.44z" fill="#fff"/></svg>