<svg width="51" height="51" viewBox="0 0 51 51" fill="none" xmlns="http://www.w3.org/2000/svg"><rect x=".848" y=".75" width="50.124" height="50.124" rx="5" fill="#FF5E27"/><path fill-rule="evenodd" clip-rule="evenodd" d="M25.713 42.686l.297.138.294-.149c.188-.099 14.626-7.708 14.626-27.67v-.546l-.533-.116c-5.024-1.103-7.991-2.665-10.157-3.805h-.001l-.016-.008c-1.675-.88-2.886-1.514-4.227-1.514-1.34 0-2.551.635-4.227 1.514l-.015.008c-2.167 1.14-5.134 2.702-10.159 3.805l-.533.116v.547c0 20.677 14.502 27.613 14.65 27.68zm-.896-11.148l9.358-9.358-1.399-1.399-7.96 7.96-3.517-3.518-1.398 1.398 4.916 4.917z" fill="#fff"/></svg>