<svg width="30" height="30" viewBox="0 0 30 30" fill="none" xmlns="http://www.w3.org/2000/svg"><path d="M15 18.75L11.25 15m0 0L15 11.25M11.25 15H25m0-5.94V9c0-1.4 0-2.1-.273-2.635a2.495 2.495 0 0 0-1.092-1.093C23.1 5 22.4 5 21 5H9c-1.4 0-2.1 0-2.634.272a2.5 2.5 0 0 0-1.093 1.093C5 6.899 5 7.599 5 8.996v12.009c0 1.398 0 2.096.272 2.63a2.5 2.5 0 0 0 1.094 1.092C6.9 25 7.6 25 8.996 25h12.008c1.397 0 2.097 0 2.631-.273a2.5 2.5 0 0 0 1.092-1.092C25 23.1 25 22.4 25 21v-.063" stroke="#63AC61" stroke-width="2.5" stroke-linecap="round" stroke-linejoin="round"/></svg>