<svg width="40" height="40" viewBox="0 0 40 40" fill="none" xmlns="http://www.w3.org/2000/svg"><path d="M35.838 30.635h-3.801c-1.439 0-1.872-1.165-4.45-3.745-2.254-2.172-3.205-2.442-3.775-2.442-.789 0-1.004.217-1.004 1.302v3.42c0 .925-.3 1.467-2.716 1.467A14.834 14.834 0 0 1 8.5 23.687a30.3 30.3 0 0 1-6-12.597c0-.57.217-1.087 1.303-1.087h3.8c.977 0 1.329.435 1.712 1.44 1.845 5.43 4.993 10.154 6.272 10.154.49 0 .703-.217.703-1.439v-5.593c-.162-2.552-1.517-2.767-1.517-3.69a.939.939 0 0 1 .975-.872h5.974c.816 0 1.086.407 1.086 1.384v7.55c0 .815.35 1.085.597 1.085.49 0 .867-.27 1.765-1.167a31.266 31.266 0 0 0 4.67-7.767 1.637 1.637 0 0 1 1.655-1.083h3.802c1.14 0 1.381.57 1.14 1.383a47.438 47.438 0 0 1-5.104 8.77c-.41.625-.573.95 0 1.684.377.57 1.71 1.683 2.605 2.741a16.923 16.923 0 0 1 3.204 4.45c.326 1.06-.219 1.602-1.304 1.602z" fill="#fff"/></svg>