<svg width="85" height="56" viewBox="0 0 85 56" fill="none" xmlns="http://www.w3.org/2000/svg"><path d="M5.602 32.034l-3.237 7.193H0l3.557-7.691a5.026 5.026 0 0 1-2.016-1.849c-.514-.814-.766-1.916-.766-3.324 0-.976.146-1.838.437-2.586.29-.747.688-1.36 1.192-1.848a4.886 4.886 0 0 1 1.764-1.102 6.066 6.066 0 0 1 2.122-.364h3.053v18.773H7.298v-7.193H5.602v-.01zm1.696-9.894H6.213a3.4 3.4 0 0 0-1.192.22 2.782 2.782 0 0 0-1.038.709c-.3.325-.542.756-.726 1.293-.185.536-.282 1.197-.282 1.992 0 .757.088 1.389.252 1.896.165.508.398.92.689 1.236.29.316.64.536 1.037.67a3.9 3.9 0 0 0 1.26.202h1.085V22.14z" fill="#EE2E24"/><path d="M19.201 26v13.227h-2.045v-5.929h-3.082v5.93H12V26h2.074v5.622h3.082V26h2.045zm10.652 15.823h-1.861v-2.596h-5.738v2.596h-1.86V37.54h.823c.3-.699.543-1.475.718-2.327a28.2 28.2 0 0 0 .407-2.625c.096-.9.155-1.82.184-2.758.029-.939.038-1.84.038-2.72V26h6.213v11.55h1.066v4.273h.01zm-3.111-14.147h-2.307v.24c0 .698-.01 1.465-.039 2.288a37.91 37.91 0 0 1-.174 2.53 31.13 31.13 0 0 1-.369 2.528c-.155.833-.378 1.59-.668 2.289h3.557v-9.875zm12.115 10.66a4.973 4.973 0 0 1-1.464.786 5.56 5.56 0 0 1-1.831.287c-1.386 0-2.472-.527-3.267-1.59-.794-1.063-1.192-2.615-1.192-4.655 0-1.063.078-2.05.223-2.94.155-.891.388-1.667.717-2.328.33-.66.747-1.168 1.26-1.532.514-.364 1.125-.556 1.832-.556.553 0 1.057.105 1.512.326.456.22.853.574 1.173 1.063.32.488.562 1.12.746 1.906.175.776.262 1.724.262 2.845v1.13h-5.583c0 1.504.204 2.643.62 3.41.417.766 1.038 1.159 1.871 1.159.582 0 1.105-.096 1.55-.307a5.85 5.85 0 0 0 1.077-.594l.494 1.59zm-3.722-10.842c-.64 0-1.085.354-1.357 1.063-.271.709-.436 1.657-.504 2.845h3.431c0-.556-.029-1.083-.077-1.562a5.767 5.767 0 0 0-.252-1.245c-.117-.354-.272-.622-.475-.814a1.084 1.084 0 0 0-.766-.287zm7.89 5.143v6.59H40.95V26h2.075v6.12L46.242 26h2.104l-3.325 6.225 3.8 7.012h-2.259l-3.537-6.6zm10.651 6.772c-1.434 0-2.559-.565-3.373-1.695-.814-1.13-1.22-2.835-1.22-5.105 0-1.035.096-1.974.31-2.807.203-.843.503-1.552.9-2.136a4.284 4.284 0 0 1 1.484-1.37c.59-.325 1.279-.488 2.054-.488.601 0 1.086.067 1.464.201a5.15 5.15 0 0 1 1.008.489l-.291 1.944a4.728 4.728 0 0 0-.998-.66 2.652 2.652 0 0 0-1.212-.288c-.746 0-1.357.412-1.832 1.245-.474.824-.717 2.088-.717 3.774 0 1.666.204 2.96.601 3.87.398.91 1.028 1.36 1.87 1.36.514 0 .96-.087 1.329-.26.368-.172.678-.363.93-.583l.475 1.523a4.69 4.69 0 0 1-1.192.718c-.436.182-.97.268-1.59.268z" fill="#000"/><path fill-rule="evenodd" clip-rule="evenodd" d="M65.615 26.494c0-1.414.12-2.312 3.084-4.498C71.153 20.186 79.02 14 79.02 14v10.326H85v14.862H67.484c-1.028 0-1.869-.831-1.869-1.847V26.494z" fill="#FFCF01"/><path fill-rule="evenodd" clip-rule="evenodd" d="M79.018 24.326v5.983l-10.99 7.4 13.895-4.469v-8.914h-2.905z" fill="#D3AC06"/><path fill-rule="evenodd" clip-rule="evenodd" d="M73.998 24.016c.642-.757 1.581-1.024 2.097-.596.515.427.412 1.387-.23 2.144-.643.757-1.582 1.023-2.097.596-.516-.427-.413-1.387.23-2.144z" fill="#231F20"/></svg>