<svg width="300" height="256" viewBox="0 0 300 256" fill="none" xmlns="http://www.w3.org/2000/svg"><mask id="a" style="mask-type:alpha" maskUnits="userSpaceOnUse" x="0" y="0" width="300" height="256"><rect width="300" height="256" rx="2" fill="#F6F7FB"/></mask><g mask="url(#a)"><path d="M145.801 226.504L80.77 172.719l74.71-25.95 69.752 43.037-79.431 36.698z" fill="#DDE0E6" opacity=".8" filter="url(#b)"/><path d="M213.248 61.795l-60.974-45.618a3.303 3.303 0 0 0-3.971 5.278l60.731 45.942a3.505 3.505 0 1 0 4.214-5.602z" fill="#6092F2"/><path d="M212.687 62.862L151.044 16.56a3.302 3.302 0 0 0-3.98 5.27l61.398 46.626a3.505 3.505 0 1 0 4.225-5.594z" fill="#4079E5"/><path d="M233.111 162.922l10.32-52.63-94.883 29.651-2.965 1.853-8.524 59.672 3.353 2.295a8.001 8.001 0 0 0 7.772.705l80.331-35.778a8 8 0 0 0 4.596-5.768z" fill="#CDCDCD"/><path d="M73.627 144.379l-9.209-64.108 84.134 61.895-1.205 55.144c-.111 5.065-6.061 7.721-9.906 4.423l-61.104-52.42a7.998 7.998 0 0 1-2.71-4.934z" fill="#EEE"/><path d="M138.777 139.177l-77.192-59.1c-5.796-4.438-6.43-12.936-1.356-18.185a5.746 5.746 0 0 1 2.944-1.629l74.688-15.78a8.001 8.001 0 0 1 4.903.518l102.983 45.77a6.616 6.616 0 0 1 2.373 1.783c5.238 6.22 2.596 15.762-5.096 18.401l-89.328 30.652a16 16 0 0 1-14.919-2.43z" fill="#ACACAC"/><path fill-rule="evenodd" clip-rule="evenodd" d="M141.879 44.668v85.266l98.959-30.021 2.548-10.192-100.622-44.72a7.976 7.976 0 0 0-.885-.333z" fill="#969696"/><path fill-rule="evenodd" clip-rule="evenodd" d="M141.881 44.669v96.369a16.045 16.045 0 0 1-3.101-1.86L65.16 82.813v-22.97l72.705-15.36a7.998 7.998 0 0 1 4.016.184z" fill="#ACACAC"/><path fill-rule="evenodd" clip-rule="evenodd" d="M61.586 80.077l77.191 59.1a16.008 16.008 0 0 0 9.97 3.294c2.318-2.816-1.917-9.972-5.385-12.906-3.719-3.147-59.12-46.712-84.195-66.418-3.885 5.267-2.935 12.83 2.419 16.93z" fill="#E4E4E4"/><path fill-rule="evenodd" clip-rule="evenodd" d="M64.114 73.347l81.085 58.97a8 8 0 0 0 7.273 1.107l88.235-29.905c6.75-2.287 7.364-11.594.973-14.75L140.395 38.76l-73.71 20.408c-6.455 1.787-7.987 10.24-2.57 14.18zm7.614-2.099l76.025 53.817a4.001 4.001 0 0 0 3.565.533l84.176-27.768c3.419-1.128 3.724-5.845.479-7.404l-92.284-44.35a4.002 4.002 0 0 0-2.774-.257L72.998 64.121c-3.269.88-4.034 5.171-1.27 7.127z" fill="#FDFDFD"/><mask id="c" style="mask-type:alpha" maskUnits="userSpaceOnUse" x="64" y="-1" width="181" height="127"><path d="M147.761 125.063l-81.28-57.535a4 4 0 0 1-1.688-3.265V27.576a4 4 0 0 1 2.757-3.802L140.8-.173a3.999 3.999 0 0 1 2.193-.083l98.878 24.186a4 4 0 0 1 3.05 3.885V91.83a4 4 0 0 1-2.747 3.798l-90.849 29.97a3.997 3.997 0 0 1-3.564-.534z" fill="#D9D9D9"/></mask><g mask="url(#c)"><path d="M129.656 127.711l29.651-81.91 83.763 27.056-23.72 74.497-89.694-19.643z" fill="#002772"/><path d="M129.284 27.64l30.022 18.532-29.28 81.91-29.651-20.756 28.909-79.686z" fill="#00318F"/><path d="M200.446 50.249L128.914 27.64l30.392 18.532 83.763 26.686-42.623-22.61z" fill="#00359B"/><path d="M190.808 56.178l-19.273-15.196 14.826 4.818 22.608 16.308-18.161-5.93z" fill="#EEE"/><path d="M189.328 61.369l1.483-5.19 18.161 5.93-1.853 4.82-17.791-5.56z" fill="#CDCDCD"/><path fill-rule="evenodd" clip-rule="evenodd" d="M198.68 81.289l13.454 16.126-1.208-.368-32.621-9.922-1.208-.367 21.583-5.47zm-8.005 14.114h-.001l-6.096 16.194h.001l4.832 1.47.002.001 6.096-16.195h-.002l-4.832-1.47zm-8.457-2.573l4.831 1.47-6.095 16.194-4.832-1.469-.002-.001 6.095-16.194-3.624-1.102-6.095 16.194-1.811-.551-1.524 4.049 32.62 9.922 1.524-4.049-1.811-.551 6.095-16.193-3.625-1.102-6.094 16.193-.002-.001-4.83-1.469 6.095-16.195 4.831 1.47 3.625 1.102 1.812.552 1.524-4.05-32.62-9.922-1.524 4.05 1.812.55 3.625 1.103zm-15.791 22.273l1.524-4.049 1.209.367 32.62 9.922 1.208.368-1.524 4.049-35.037-10.657z" fill="#CDCDCD"/></g><path d="M105.11 102.524l-49.614-57.77a3.303 3.303 0 0 0-5.022 4.291l49.307 58.031a3.505 3.505 0 1 0 5.329-4.552z" fill="#6092F2"/><path d="M104.328 103.445L54.209 44.863a3.302 3.302 0 0 0-5.029 4.28l49.81 58.845a3.505 3.505 0 1 0 5.338-4.543z" fill="#4079E5"/><path d="M146.726 16.588l-96.46 27.407 6.001 5.144 92.002-26.131a3.478 3.478 0 0 0 1.721-1.119l.102-.123a3.232 3.232 0 0 0-3.366-5.178z" fill="#4079E5"/></g><defs><filter id="b" x="62.77" y="128.769" width="180.461" height="115.736" filterUnits="userSpaceOnUse" color-interpolation-filters="sRGB"><feFlood flood-opacity="0" result="BackgroundImageFix"/><feBlend in="SourceGraphic" in2="BackgroundImageFix" result="shape"/><feGaussianBlur stdDeviation="9" result="effect1_foregroundBlur_612_33480"/></filter></defs></svg>