<svg width="300" height="256" viewBox="0 0 300 256" fill="none" xmlns="http://www.w3.org/2000/svg"><mask id="a" style="mask-type:alpha" maskUnits="userSpaceOnUse" x="0" y="0" width="300" height="256"><rect width="300" height="256" rx="2" fill="#F6F7FB"/></mask><g mask="url(#a)"><ellipse cx="158.774" cy="161.598" rx="54.165" ry="65.703" transform="rotate(29.856 158.774 161.598)" fill="#DDE0E6" opacity=".6" filter="url(#b)"/><path d="M162.991 194.255l-16.609-59.794 16.609-62.166c-12.099 2.163-16.609-26.577-16.609-26.577L69.496 157.714s-3.795-2.781 17.085 22.1c20.88 24.881 54.553 21.01 76.41 14.441z" fill="#002772"/><path d="M162.991 194.254l-16.609-59.793-23.259-37.492-53.627 60.745s-3.795-2.782 17.085 22.099c20.88 24.881 54.553 21.01 76.41 14.441z" fill="#00318F"/><path d="M145.901 167.678l-16.609-59.794 16.609-62.166C117.586 50.78 60.767 74.19 60.007 127.34c-.759 53.15 56.947 49.037 85.894 40.337z" fill="#00359B"/><path d="M207.119 47.14c-2.373-2.372-11.864-12.338-15.186-14.71l-52.675 59.793 17.084 12.813c7.593-8.067 26.859-29.802 50.777-57.895z" fill="#4079E5"/><path d="M141.156 17.244l-1.898 74.98c7.593-8.068 28.758-31.7 52.675-59.794-19.931-13.288-37.964-14.711-50.777-15.186z" fill="#6092F2"/><path d="M239.39 124.967c-3.42 33.219-32.27 57.738-48.879 67.861l-21.355-13.762v-55.997l38.914-70.234 18.982 14.712c4.587 6.169 15.66 25.15 12.338 57.42z" fill="#CDCDCD"/><path d="M168.207 179.066l-18.982-71.183 57.895-55.522c4.587 6.169 15.66 25.151 12.338 57.421-3.19 30.987-34.642 59.16-51.251 69.284z" fill="#EEE"/></g><defs><filter id="b" x="77.527" y="74.542" width="162.492" height="174.111" filterUnits="userSpaceOnUse" color-interpolation-filters="sRGB"><feFlood flood-opacity="0" result="BackgroundImageFix"/><feBlend in="SourceGraphic" in2="BackgroundImageFix" result="shape"/><feGaussianBlur stdDeviation="12" result="effect1_foregroundBlur_612_33735"/></filter></defs></svg>