<svg width="120" height="180" viewBox="0 0 120 180" fill="none" xmlns="http://www.w3.org/2000/svg"><g clip-path="url(#a)"><path d="M59.979 120.201V60.362H.209v59.839h59.77z" fill="#1938EF"/><path d="M59.979 180v-59.839H.209V180h59.77z" fill="#F35C12"/><path d="M59.979 60.161V.322H.209v59.84h59.77z" fill="#fff"/><path d="M119.749 179.839V120h-59.77v59.839h59.77z" fill="#FBC631"/><path d="M119.749 60V.161h-59.77v59.84h59.77z" fill="#1938EF"/><path d="M43.549 58.59l-6.497-6.281-5.7 6.282-6.287-6.282-4.485 5.114v-8.819l-6.958.483-.754-7.53-9.012-.08 3.27-5.92-6.162-5.436 6.622-5.517-3.772-6.523h10.101v-6.806h6.036L19.7 2.054l5.407 5.879 6.957-5.88 4.988 5.276 6.497-5.275v9.221h6.37l.126 7.248 8.635.121-5.282 5.96 5.282 5.195-5.282 5.597 5.282 6.966-9.305-.483-.88 6.725H43.59v9.987h-.042zm-16.766-7.892l4.401 4.51 4.82-4.51v-8.859l3.27 3.825 6.035.766.88-5.557-5.826-6.806h11.485l3.898-4.268-3.94-4.229H41.202l5.867-6.442-.335-5.235-6.622.604-4.15 4.55V9.503L31.226 5.92l-4.485 3.584v8.698l-3.688-4.308H17.31l-.503 4.308 5.28 7.289H10.605l-4.652 4.63 4.652 3.867h11.694l-6.37 6.966.418 5.396 6.455-.644 4.024-4.43v9.423h-.042zm10.31-1.208l2.725 2.779v-4.51l-2.724-2.86v4.591zm-14.627-.886v3.705l2.64-3.181V44.94l-2.64 3.664zm24.478-9.181h6.454l-3.353-4.027H43.55l3.395 4.027zm-37.765 0l6.245-.765 3.186-3.262h-5.784l-3.647 4.027zm34.37-14.819h6.496l3.353-3.262h-6.454l-3.395 3.262zm-31.352-.644h6.37l-3.185-3.262H9.934l2.263 3.262zm24.897-13.25v5.195l2.724-2.94V8.617l-2.724 2.094zm-14.628 1.53l2.64 1.692v-3.544l-3.436-3.1.796 4.953z" fill="#F25000"/><path d="M31.184 55.208l-4.4-4.51v-9.342l-4.025 4.43-6.454.643-.42-5.396 6.371-6.966H10.562L5.91 30.201l4.652-4.63h11.485l-5.281-7.29.545-4.348h5.826l3.688 4.309V9.503L31.31 5.92l4.736 3.584v9.504l4.15-4.55 6.622-.605.335 5.235-5.868 6.443H51.89l3.94 4.228-3.94 4.229H40.405l5.826 6.805-.88 5.557-6.036-.765-3.269-3.826v8.86l-4.862 4.59zm.126-4.39l2.892-1.73h-2.724v-.846l2.43-1.732h-2.43v-.805l2.43-1.611h-2.43v-.765l2.472-1.61h-2.473v-4.31h-.46v4.35h-2.473l2.473 1.57v.846h-2.515l2.515 1.61v.806h-2.515l2.515 1.731v.805h-2.264l2.557 1.692zm10.31-7.127h1.97v-2.295h-1.55v-1.772h-1.593v-1.933h-1.97v2.295h1.593v1.893h1.55v1.812zm-21.333-.564h1.97v-1.932h1.592v-1.772H25.4v-2.296h-1.97V38.9h-1.55v1.933h-1.593v2.295zm8.97-7.932c.125 1.328 1.298 2.335 2.64 2.214 1.34-.12 2.347-1.288 2.221-2.617-.084-.846-1.174-2.617-1.928-3.745l.042-.04c.712 1.208 2.012 3.221 2.85 3.624 1.216.564 2.683.08 3.27-1.128.586-1.208.083-2.617-1.132-3.221h3.898v1.933l2.096-1.933h1.047v1.973l2.138-1.973h1.048v1.973l2.305-1.933H50.8v1.732l2.263-1.933-2.263-2.215V30h-1.09l-2.263-1.852V30h-1.048l-2.096-1.852V30h-1.006l-2.137-1.893V30h-4.57l.168.12c-.922-.2-2.431-.2-3.563-.12a.3.3 0 0 0-.084-.161l-.084-.08c1.425.04 3.689-.04 4.443-.484a2.427 2.427 0 0 0 .755-3.342c-.713-1.128-2.264-1.45-3.395-.725-.839.524-2.096 2.738-2.683 3.866l-.042-.04c.67-1.249 1.677-3.343 1.593-4.229a2.41 2.41 0 0 0-2.39-2.174v-3.705h2.474l-2.473-1.57v-.846h2.515L31.31 14.9v-.806h2.515l-2.515-1.732v-.805h2.263l-2.515-1.732-2.892 1.732h2.725v.805l-2.431 1.732h2.43v.805l-2.43 1.611h2.43v.765l-2.472 1.61h2.473v3.706h.251-.084c-1.34.12-2.305 1.328-2.18 2.657.085.886 1.258 2.698 2.055 3.785l-.042.04c-.713-1.167-2.096-3.261-2.976-3.664a2.49 2.49 0 0 0-3.27 1.168c-.586 1.208-.041 2.658 1.174 3.222.21.08.461.16.797.201H21.25v-1.893L19.197 30h-1.09v-1.933L16.01 30h-1.048v-1.933L12.7 30h-1.048v-1.732L9.39 30.201l2.263 2.215v-2.094h1.09l2.263 1.853v-1.853h1.048l2.096 1.853v-1.853h1.006l2.137 1.893v-1.893h6.12v.04c-.755.08-1.425.242-1.76.443a2.377 2.377 0 0 0-.671 3.343c.754 1.127 2.263 1.409 3.395.684.796-.523 1.928-2.577 2.557-3.745l.041.04c-.796 1.209-1.802 3.182-1.718 4.068zM23.43 22.349h1.97v-2.295h-1.55v-1.772h-1.594v-1.933h-1.97v2.295h1.593v1.933h1.551v1.772zm16.305-.564h1.97v-1.933h1.592v-1.771h1.551v-2.296h-1.97v1.772h-1.55v1.893h-1.593v2.335z" fill="#1938EF"/><path d="M39.818 52.309l-2.724-2.819v-4.55l2.724 2.859v4.51zm-17.352 0v-3.705l2.64-3.664v4.188l-2.64 3.18zm11.736-3.222L31.31 50.82l-2.515-1.732h2.221v1.168h.461v-1.168h2.725z" fill="#FBC733"/><path d="M31.477 50.255v-1.168h-.46v1.168h.46zm0-1.168h-.46v-.805l.251.161.21-.161v.805z" fill="#FBC733"/><path d="M31.477 48.282l-.209.16-.252-.16V46.55h.462v1.732zm-.461 0l-2.515-1.732h2.515v1.732zm2.892-1.732l-2.43 1.732V46.55h2.43zm-2.431 0h-.46v-.805l.251.12.21-.12v.805z" fill="#FBC733"/><path d="M31.477 45.745l-.209.12-.252-.12v-1.61h.462v1.61zm-.461 0l-2.515-1.61h2.515v1.61zm2.892-1.611l-2.43 1.611v-1.61h2.43zm-2.431 0h-.46v-.845l.293.2.168-.12v.765z" fill="#FBC733"/><path d="M43.59 43.691h-1.97V41.92l.42-.483h1.55v2.255z" fill="#EAE6E5"/><path d="M31.477 43.369l-.167.12-.293-.2v-1.571h.46v1.651z" fill="#FBC733"/><path d="M33.992 41.718l-2.515 1.651v-1.651h2.515zm-2.976 1.57l-2.473-1.57h2.473v1.57z" fill="#FBC733"/><path d="M22.256 43.128h-1.97v-2.296h1.593l.377.363v1.933zM41.62 41.92h-1.55v-1.893l.377-.362h1.593v1.771l-.42.484z" fill="#EAE6E5"/><path d="M31.477 41.758V37.41h-.46v4.35h.46z" fill="#FBC733"/><path d="M23.807 41.194h-1.55l-.378-.362V38.94h1.55l.378.483v1.771zm16.263-1.167h-1.593V37.73h1.97v1.933l-.377.363zm-14.712-.604h-1.55l-.378-.483v-1.772h1.928v2.255z" fill="#EAE6E5"/><path d="M53.398 39.423h-6.454l-3.395-4.027h6.496l3.353 4.027zm-37.974-.765l-6.245.765 3.647-4.027h5.784l-3.186 3.262z" fill="#FBC733"/><path d="M31.897 37.37c-1.342.12-2.515-.887-2.641-2.215-.084-.886.922-2.82 1.593-4.068l.335.282a.52.52 0 0 0 .587 0l.46-.362c.755 1.127 1.845 2.859 1.929 3.745a2.457 2.457 0 0 1-2.263 2.617z" fill="#F25000"/><path d="M28.292 34.832c-1.132.725-2.64.443-3.395-.684-.755-1.128-.461-2.618.67-3.343.336-.241 1.006-.362 1.76-.442.797-.081 1.72-.121 2.474-.121 0 .04.042.04.084.08l.964.765c-.63 1.168-1.76 3.222-2.557 3.745zm10.059-1.329c-.587 1.208-2.053 1.732-3.27 1.128-.837-.403-2.137-2.416-2.85-3.624l.84-.685c.125-.08.125-.201.083-.322 1.132-.04 2.64-.08 3.563.12l.167.162h.294a2.372 2.372 0 0 1 1.173 3.221z" fill="#F25000"/><path d="M11.568 32.416l-2.263-2.215 2.263-1.932V30H10.06v.322h1.508v2.094zm38.142-2.094l-2.305 1.973v-1.973h2.305zm-5.449 1.973v-1.973H46.4l-2.138 1.973zm-23.052-.04l-2.138-1.933h2.137v1.933zm19.909 0v-1.973l2.095.04-2.095 1.933zm-23.053-.04l-2.096-1.893h2.096v1.893zm-3.144 0l-2.263-1.893h2.263v1.893zm38.101-2.095l-2.264 1.934v-1.732h1.55V30h-1.55v-2.094l2.264 2.215z" fill="#FBC733"/><path d="M31.77 31.37a.52.52 0 0 1-.586 0l-.335-.283c.377-.644.628-1.127.628-1.127s.294.443.713 1.047l-.42.362z" fill="#FABB9C"/><path d="M30.849 31.128c.251-.524.377-.846.377-.846s-.629-.04-1.425-.04c-.042-.08-.084-.161-.042-.242.88-.04 1.509-.12 1.509-.12s-.168-.323-.503-.806l.042-.04c.377.564.67.926.67.926.042.04-.251.483-.628 1.168z" fill="#FABB9C"/><path d="M30.849 31.087l-.964-.765-.084-.08c.838 0 1.425.04 1.425.04s-.126.322-.377.805zm1.383-.08c-.419-.604-.754-1.007-.754-1.007s.251-.402.544-.966l.043.04c-.21.403-.336.684-.336.684s.503.04 1.216.04l.084.081c.041.04.083.08.083.161-.838.04-1.467.08-1.467.08s.294.323.587.887z" fill="#FABB9C"/><path d="M33.07 30.322l-.838.685c-.335-.564-.545-.927-.545-.927s.629-.04 1.467-.08c.084.08.042.242-.084.322z" fill="#FABB9C"/><path d="M27.328 30.362v-.322c.796.04 1.718 0 2.43-.04-.041.08 0 .161.043.242-.713 0-1.635.04-2.473.12z" fill="#1938EF"/><path d="M11.568 30.362V30H10.06v.362h1.508z" fill="#FBC733"/><path d="M12.658 30.322h-1.09V30h1.09l-.21.161.21.161z" fill="#FBC733"/><path d="M14.921 30.322h-2.263l-.21-.16.21-.162h2.263v.322z" fill="#FBC733"/><path d="M15.97 30.322h-1.05V30h1.048l-.21.161.21.161z" fill="#FBC733"/><path d="M18.065 30.322h-2.096l-.21-.16.21-.162h2.096v.322zm1.006 0h-1.006V30h1.09l-.21.201.126.121z" fill="#FBC733"/><path d="M21.209 30.322H19.07l-.126-.12.21-.202h2.053v.322z" fill="#FBC733"/><path d="M27.328 30.322h-6.12v-.362h5.366c.21.04.503.04.754.08v.282zm24.981 0h-1.551V30h1.55v.322z" fill="#FBC733"/><path d="M50.758 30.322H49.71l.21-.16-.21-.162h1.048v.322z" fill="#FBC733"/><path d="M49.71 30.322h-2.305V30h2.305l.21.161-.21.161zm-2.305 0h-1.006l.167-.16-.21-.162h1.049v.322z" fill="#FBC733"/><path d="M46.566 30.161l-.167.161H44.26V30h2.096l.21.161z" fill="#FBC733"/><path d="M44.261 30.322h-1.048l.21-.201-.168-.121h1.006v.322z" fill="#FBC733"/><path d="M43.213 30.322l-2.095-.04V30h2.137l.168.12-.21.202zm-2.095-.04H37.22c-.126-.04-.294-.12-.461-.161L36.59 30h4.527v.282z" fill="#FBC733"/><path d="M37.22 30.282h-.294l-.167-.161c.167.04.335.08.46.16z" fill="#FBC733"/><path d="M29.8 30c-.754.04-1.676.08-2.43.04v-.08h-.755a3.2 3.2 0 0 1-.796-.202c-1.215-.563-1.76-2.013-1.174-3.221.587-1.208 2.012-1.732 3.27-1.168.88.403 2.221 2.497 2.976 3.665l-.922.765c-.126.08-.168.16-.168.201z" fill="#F25000"/><path d="M27.328 30v.081c-.251 0-.545-.04-.754-.081h.754zm-12.407 0h-2.263l2.263-1.933V30zm3.144 0h-2.096l2.096-1.933V30zm3.144 0h-2.054l2.053-1.893V30zm22.046 0h-2.137v-1.893L43.255 30zm3.102 0H44.26v-1.893L46.357 30zm3.353 0h-2.305v-1.893L49.71 30z" fill="#FBC733"/><path d="M31.31 29.88s-.629.08-1.509.12c0-.08.042-.12.126-.201l.922-.765c.252.523.461.845.461.845z" fill="#FABB9C"/><path d="M37.43 29.235c-.755.483-3.019.523-4.444.483l-.88-.725c.587-1.127 1.844-3.302 2.682-3.865a2.48 2.48 0 0 1 3.396.724c.712 1.168.419 2.658-.755 3.383z" fill="#F25000"/><path d="M32.106 29.034l.88.725c-.712 0-1.215-.04-1.215-.04s.126-.283.335-.685zm-.586.926s-.294-.363-.671-.926l.335-.282a.52.52 0 0 1 .587 0l.293.241c-.335.564-.545.967-.545.967z" fill="#FABB9C"/><path d="M31.184 28.752l-.335.282c-.796-1.088-1.97-2.9-2.054-3.786-.126-1.329.838-2.537 2.18-2.657h.293a2.41 2.41 0 0 1 2.39 2.174c.083.886-.923 2.98-1.593 4.228l-.294-.241a.52.52 0 0 0-.587 0z" fill="#F25000"/><path d="M50.045 24.604H43.55l3.395-3.262h6.454l-3.353 3.262zM18.61 23.96h-6.413l-2.221-3.262h5.448l3.186 3.262zm12.448-1.37h-.251v-3.704h.461v3.705h-.21z" fill="#FBC733"/><path d="M25.358 22.349H23.43v-1.732l.377-.523h1.55v2.255zm16.305-.564h-1.928V19.49h1.592l.336.362v1.933z" fill="#EAE6E5"/><path d="M23.43 20.618h-1.55v-1.933l.376-.363h1.551v1.772l-.377.524zm19.825-.766h-1.592l-.336-.362v-1.893h1.551l.377.484v1.771z" fill="#EAE6E5"/><path d="M30.807 18.886h-2.473l2.473-1.61v1.61zm.461 0h-.461v-1.61l.168-.122.293.161v1.57zm2.472 0h-2.472v-1.57l2.473 1.57z" fill="#FBC733"/><path d="M21.88 18.684h-1.594V16.43h1.97v1.893l-.377.363zm22.968-.604h-1.593l-.377-.483v-1.772h1.97v2.256z" fill="#EAE6E5"/><path d="M31.268 17.316l-.293-.162-.168.121v-.805h.461v.846zm-.461-.846h-2.431l2.43-1.57v1.57zm.461 0h-.461V14.9l.252-.162.21.161v1.57z" fill="#FBC733"/><path d="M33.783 16.47h-2.515V14.9l2.515 1.57zm3.311-.564v-5.195l2.724-2.094v4.35l-2.724 2.939zM30.807 14.9v-.806h.461v.805l-.21-.16-.251.16zm0-.806h-2.431l2.43-1.772v1.772zm.461 0h-.461v-1.772l.252-.16.21.16v1.772z" fill="#FBC733"/><path d="M33.783 14.094h-2.515v-1.772l2.515 1.772zm-8.677-.161l-2.64-1.691-.797-4.953 3.437 3.1v3.544zm5.952-1.772l-.251.161v-.805h.461v.805l-.21-.16zm-.251-.644h-2.725l2.892-1.732 2.557 1.732h-2.263v-1.168h-.461v1.168z" fill="#FBC733"/><path d="M31.268 11.517v-1.168h-.461v1.168h.461z" fill="#FBC733"/><path fill-rule="evenodd" clip-rule="evenodd" d="M56.027 29.799l-4.127 4.43H40.764l5.604 6.585-.88 5.8-6.323-.76-2.95-3.453v8.382l-5.037 4.712-4.604-4.717v-8.885l-3.711 4.085-6.795.632-.397-5.687 6.123-6.695h-11.31l-4.879-4.054 4.87-4.805h11.172l-5.099-7.076.577-4.561h6.069l3.38 3.948V9.409l4.69-3.749 4.95 3.746v9.065l3.837-4.207 6.921-.632.354 5.566-5.62 6.171H51.9l4.127 4.43zm-.562 0l-3.753-4.027h-10.93l6.115-6.715-.316-4.985-6.324.577-4.462 4.893V9.601l-4.523-3.423-4.279 3.42v9.205l-3.997-4.669h-5.5l-.512 4.056 5.463 7.582H10.651l-4.436 4.377 4.426 3.676H22.72l-6.62 7.238.358 5.106 6.199-.576 4.336-4.774v9.8l4.198 4.302 4.604-4.308v-9.337l3.588 4.199 5.749.69.795-5.234-6.047-7.105h11.832l3.753-4.027z" fill="#FBC733"/><path fill-rule="evenodd" clip-rule="evenodd" d="M60.024 18.012l-5.776 6.563 5.295 5.208-5.335 5.654 5.759 7.597-10.041-.521-.877 6.695h-4.871v10.854l-7.055-6.866-5.706 6.289-6.28-6.274-5.144 5.866v-9.824l-6.895.48-.76-7.537-9.48-.084 3.526-6.386L.02 30.108l6.767-5.638-4.089-6.994h10.547v-6.805h6.022L19.034.408l6.129 6.71 6.948-5.91 5.037 5.283 7.03-5.744v9.924h6.36l.126 7.254 9.36.087zm-2.631 23.679l-4.804-6.337 5.228-5.54-5.267-5.18 4.786-5.439-7.909-.073-.126-7.243h-6.38V3.36L37.04 8.166 32.018 2.9l-6.967 5.928-4.685-5.13.186 8.181h-6.05v6.806H4.847l3.539 6.053-6.478 5.396 6.042 5.334-3.012 5.454 8.543.076.75 7.444 7.02-.487v7.813l3.825-4.362 6.295 6.29 5.695-6.275 5.854 5.698v-9.12h5.02l.884-6.753 8.569.445z" fill="#FBC733"/><path fill-rule="evenodd" clip-rule="evenodd" d="M38.006 26a2.265 2.265 0 0 0-3.1-.666c-.182.124-.402.346-.643.641-.238.293-.488.647-.732 1.021a26.65 26.65 0 0 0-1.237 2.128l-.375-.18c.295-.568.76-1.4 1.256-2.162.249-.38.507-.747.758-1.055.249-.305.5-.566.735-.724l.004-.003c1.234-.79 2.873-.434 3.688.784l.003.004c.767 1.213.456 2.827-.819 3.615-.222.142-.535.241-.882.314a9.615 9.615 0 0 1-1.186.156 24.55 24.55 0 0 1-2.496.046l.013-.402c.708.02 1.622.02 2.45-.045a9.07 9.07 0 0 0 1.13-.149c.332-.07.584-.156.74-.256l.003-.002c1.07-.66 1.346-2.025.69-3.066z" fill="#FBC733"/><path fill-rule="evenodd" clip-rule="evenodd" d="M38.162 33.418c.54-1.11.077-2.403-1.038-2.957l-.01-.005-.01-.007c-.09-.057-.217-.09-.394-.132-.89-.194-2.366-.157-3.506-.116l-.016-.402c1.122-.04 2.663-.083 3.617.125l.005.001.016.004c.152.037.345.083.5.179 1.309.656 1.848 2.178 1.216 3.48-.634 1.305-2.227 1.881-3.555 1.222-.244-.118-.504-.341-.758-.61a10.282 10.282 0 0 1-.79-.963 26.342 26.342 0 0 1-1.39-2.131l.365-.199c.355.602.854 1.4 1.367 2.098.257.348.515.668.757.924.247.26.464.438.638.522h.003c1.102.549 2.443.078 2.983-1.033z" fill="#FBC733"/><path fill-rule="evenodd" clip-rule="evenodd" d="M31.92 37.169c1.223-.11 2.147-1.178 2.032-2.4-.019-.192-.094-.445-.217-.743a9.804 9.804 0 0 0-.473-.962 27.717 27.717 0 0 0-1.206-1.948l.352-.218a28.11 28.11 0 0 1 1.225 1.978c.19.346.362.687.491 1.001.129.311.221.606.245.856.136 1.437-.952 2.705-2.41 2.837-1.468.132-2.734-.968-2.87-2.398-.024-.257.031-.572.126-.905a9.16 9.16 0 0 1 .403-1.088c.329-.758.751-1.56 1.087-2.184l.372.184c-.335.625-.75 1.413-1.072 2.155-.16.37-.296.726-.386 1.04-.09.318-.13.577-.112.762.116 1.229 1.197 2.142 2.412 2.032z" fill="#FBC733"/><path fill-rule="evenodd" clip-rule="evenodd" d="M29.47 33.096c.462-.718.899-1.517 1.19-2.096l.378.175c-.296.588-.74 1.4-1.21 2.132-.236.366-.48.715-.718 1.007-.235.29-.473.536-.7.684l-.002.002c-1.228.786-2.869.48-3.687-.743-.812-1.214-.503-2.826.726-3.616.202-.144.485-.241.794-.313a9.13 9.13 0 0 1 1.064-.166h.001a26.278 26.278 0 0 1 2.495-.122v.403c-.748 0-1.662.04-2.45.12-.374.04-.72.089-1.011.156-.296.069-.514.152-.647.247l-.004.004-.005.003c-1.031.66-1.307 2.026-.61 3.066.69 1.031 2.066 1.289 3.1.626.172-.113.379-.32.606-.599.225-.276.46-.612.69-.97z" fill="#FBC733"/><path fill-rule="evenodd" clip-rule="evenodd" d="M27.826 25.551c.182.084.409.267.665.533.253.263.522.591.789.948a36.36 36.36 0 0 1 1.393 2.046l.04.062.356-.213a20.599 20.599 0 0 0-.042-.064c-.373-.578-.882-1.366-1.407-2.066a10.7 10.7 0 0 0-.821-.986c-.266-.276-.537-.506-.794-.624h-.002c-1.365-.613-2.913-.04-3.547 1.265-.635 1.307-.048 2.875 1.272 3.488l.007.003.006.002c.22.084.486.17.84.213.216.041.517.083.783.083.767.04 1.697 0 2.449-.04l-.024-.402c-.755.04-1.666.08-2.407.04h-.012c-.233 0-.511-.038-.713-.077l-.008-.001-.008-.001a2.974 2.974 0 0 1-.737-.186c-1.107-.518-1.606-1.845-1.069-2.952a2.263 2.263 0 0 1 2.99-1.07z" fill="#FBC733"/><path fill-rule="evenodd" clip-rule="evenodd" d="M33.449 24.784c.017.186-.023.455-.114.789-.09.33-.226.705-.386 1.096a25.652 25.652 0 0 1-1.07 2.232l.372.184c.337-.627.76-1.469 1.088-2.268.164-.4.306-.791.402-1.142.094-.347.15-.671.125-.928v-.001a2.617 2.617 0 0 0-2.598-2.357h-.303l-.01.001c-1.468.132-2.504 1.449-2.369 2.877.024.251.123.553.26.87.138.321.322.672.526 1.026.407.708.904 1.439 1.305 1.986l.343-.231a22.5 22.5 0 0 1-1.282-1.95 9.81 9.81 0 0 1-.505-.985c-.132-.305-.211-.562-.23-.753-.115-1.227.772-2.324 1.982-2.438h.283c1.101 0 2.064.84 2.18 1.992z" fill="#FBC733"/><path fill-rule="evenodd" clip-rule="evenodd" d="M32.88 30.1c.036-.035.047-.079.033-.117l-.01-.03v-.03h-.001a.553.553 0 0 0-.022-.022l-.078-.075-.88-.725-.042-.04-.281-.232a.306.306 0 0 0-.326 0l-.323.271-.042.04-.922.766a1.778 1.778 0 0 0-.06.06v.041l-.014.03a.827.827 0 0 0 .02.046l.052.05.964.765.044.042.323.272a.306.306 0 0 0 .327-.002l.45-.353.788-.758zm.44-.214a.502.502 0 0 1-.143.498l-.804.772-.473.372-.003.002a.737.737 0 0 1-.839 0l-.006-.004-.346-.292-.04-.038-.964-.765-.115-.11-.015-.03-.003-.006a.756.756 0 0 1-.066-.156.361.361 0 0 1 .007-.215c.017-.138.106-.223.17-.285l.015-.013.005-.005.922-.765.042-.04.346-.291.006-.005a.737.737 0 0 1 .839 0l.005.004.305.25.042.041.88.725.09.086.003.004c.043.04.129.122.14.266z" fill="#FBC733"/><path d="M80.726 59.154V41.195l-3.814 3.946-2.137-.121-.503-2.014 3.353-3.825H61.572l6.915-7.651 3.396.04v3.624h6.832l.88 1.088h4.233v10.872h3.185l2.809 3.02-9.096 8.98zm17.604-.121l-8.508-8.859 1.257-3.02h3.605V36.282h2.18l1.005-1.087h7.377V31.57h5.449l7.293 6.926h-16.765l2.934 3.584-.42 2.537-2.514-.08-2.892-3.02v17.516z" fill="#003E89"/><path d="M89.822 50.174l-2.808-3.02h-3.186V36.241h10.898v10.913H91.08l-1.257 3.02zm-1.676-6.402h1.844l1.006-1.289v-2.738l-1.006-1.248h-1.928l-1.006 1.248v2.738l1.09 1.289z" fill="#1434EF"/><path d="M80.727 48.846l-10.102-.121V39.18h7l-3.353 3.826.503 2.013 2.137.12 3.815-3.945v7.65zm27.034-.323h-9.43v-7.006l2.892 3.02 2.514.08.42-2.536-2.934-3.584h6.538v10.026zM89.99 43.772h-1.845l-1.09-1.289v-2.738l1.007-1.248h1.928l1.006 1.248v2.738l-1.006 1.289z" fill="#F25000"/><path d="M83.828 36.282h-4.233l-.88-1.087-3.102-3.665v-.604h4.443v2.134h16.598v-2.134h4.694v.604l-3.479 3.664-1.006 1.088H83.828z" fill="#003E89"/><path d="M75.613 30.926v.604l3.102 3.664h-6.832V31.57l-3.395-.04-.084-3.624h3.479V24.16h6.37l-2.64 3.664v3.101zm29.633 4.268H97.87l3.478-3.664v-3.704l-3.101-3.665h6.999v3.745h5.449v3.664h-5.449v3.624z" fill="#1434EF"/><path d="M86.469 33.06h-6.413v-2.134h-4.443v-3.1h4.443V25.69h6.413v1.087l-1.886 1.41v2.497l1.886 1.328v1.047zm10.185 0H86.469v-1.047h4.024l1.886-1.329v-2.577l-1.887-1.329H86.47v-1.087h10.185v2.134h4.694v3.101h-4.694v2.134z" fill="#F25000"/><path d="M88.313 32.013h-1.844l-1.886-1.329v-2.496l1.886-1.41h1.844v1.41a.327.327 0 0 0-.21.08l-.922.926a.307.307 0 0 0 0 .443l.922.927a.33.33 0 0 0 .21.08v1.37z" fill="#1434EF"/><path d="M90.493 32.013H88.27v-1.329a.33.33 0 0 0 .21-.08l.922-.926a.307.307 0 0 0 0-.443l-.922-.927a.327.327 0 0 0-.21-.08v-1.41h2.222l1.844 1.33v2.577l-1.844 1.288z" fill="#1434EF"/><path d="M88.523 30.604a.327.327 0 0 1-.21.08.327.327 0 0 1-.21-.08l-.922-.926a.307.307 0 0 1 0-.443l.922-.926a.232.232 0 0 1 .21-.121.33.33 0 0 1 .21.08l.922.927a.307.307 0 0 1 0 .442l-.922.967zm-16.64-2.698h-3.48l-6.747-7.772h15.969l-3.353-3.664 1.006-1.973 1.802.12 3.647 3.705V1.49l8.13 8.134-2.011 2.778h-3.018V22.51H79.47l-1.215 1.65h-6.371v3.746zm38.812 0h-5.449V24.16h-7l-1.382-1.651h-2.557V12.402h-3.102l-2.347-2.778 9.473-8.134v16.389l2.766-3.785 2.557.16.503 2.216-2.934 3.664h16.765l-7.293 7.772z" fill="#003E89"/><path d="M80.056 27.825h-4.443l2.64-3.664 1.216-1.651h17.394l1.383 1.65 3.102 3.665h-4.694v-2.134H80.056v2.134z" fill="#003E89"/><path d="M94.307 22.51H83.87l-.042-10.108h3.018l2.012-2.778 2.305 2.778h3.102V22.51h.042zm-6.162-1.973h1.845l1.005-1.289V16.51l-1.005-1.248h-1.93l-1.006 1.248v2.738l1.09 1.289z" fill="#1434EF"/><path d="M89.99 20.537h-1.845l-1.09-1.289V16.51l1.007-1.249h1.928l1.006 1.249v2.738l-1.006 1.289zm-12.365-.403h-6.748v-9.302h9.85v7.49l-3.647-3.705-1.802-.12-1.006 1.973 3.353 3.664zm30.136 0h-6.538l2.934-3.664-.503-2.215-2.557-.161-2.766 3.785v-6.966h9.43v9.221z" fill="#F25000"/><path fill-rule="evenodd" clip-rule="evenodd" d="M119.519 39.1H108.39v10.027h-9.43v11.451l-9.15-9.526-9.712 9.589v-11.2l-10.101-.12v-9.536h-9.804l7.66-8.475-.073-3.18-7.468-8.6h9.936v-9.302h9.85V-.012l8.793 8.797L98.96.139v10.17h9.431v9.22h11.012l-8.078 8.609v3.18l8.195 7.782zm-2.944-18.362h-9.443v-9.222h-9.43V2.84l-8.877 7.623-7.47-7.472v8.446h-9.85v9.302H63l6.029 6.943.094 4.069-6.172 6.827h8.304v9.55l10.101.122v9.418l8.48-8.371 7.867 8.192V47.92h9.43V37.892h9.326l-6.392-6.07v-4.148l6.509-6.936z" fill="#FEF1EB"/><path fill-rule="evenodd" clip-rule="evenodd" d="M107.761 20.738h-7.815l3.534-4.414-.34-1.496-1.732-.11-3.706 5.073v-8.878h1.257v5.055l1.826-2.5 3.382.214.666 2.933-2.334 2.915h5.262v1.208zm-1.886 6.564h4.82v1.208h-6.078v-3.745h-6.37v-1.208h7.628v3.745zm4.82 3.665v1.208h-4.82v3.624h-8.006V34.59h6.748v-3.624h6.078zm-2.934 6.926V39.1h-5.244l2.304 2.813-.55 3.325-3.333-.107-1.979-2.067v5.458h-1.257v-8.555l3.805 3.974 1.697.054.289-1.75-3.565-4.353h7.833zM81.355 10.832v9.008l-4.564-4.636-1.135-.076-.635 1.246 3.993 4.364h-8.138V19.53h5.359l-2.713-2.964 1.377-2.7 2.47.165 2.729 2.773v-5.972h1.257zm-8.844 13.933h5.742v-1.208h-7v3.745h-2.85v1.208h4.108v-3.745zm6.203 11.034h-7.46v-3.632l-2.774-.033.015-1.208 4.016.048v3.617h6.203v1.208zm2.641 3.857v9.19h-1.257v-6.113L77.17 45.76l-2.899-.164-.686-2.746 2.687-3.066h-5.648v-1.208h8.351l-4.019 4.585.32 1.281 1.376.078 4.702-4.865zm9.85.02v2.874l-1.11 1.423h-2.05l-1.199-1.418v-2.879l1.113-1.38h2.133l1.113 1.38zm-.42.138l-.898-1.116h-1.723l-.899 1.116v2.598l.98 1.158h1.64l.9-1.154v-2.602zm.42-23.373v2.874l-1.11 1.423h-2.05l-1.199-1.418v-2.88l1.113-1.38h2.133l1.113 1.38zm-.42.138l-.898-1.116h-1.723l-.899 1.116v2.598l.98 1.159h1.64l.9-1.155V16.58zm-1.489 12.916a.111.111 0 0 0 0-.158l-.003-.003-.919-.923-.005-.004a.13.13 0 0 0-.056-.018.035.035 0 0 0-.017.004.013.013 0 0 0-.005.006l-.014.027-.948.951a.111.111 0 0 0 0 .159l.004.003.918.922.005.004a.117.117 0 0 0 .04.016l.002-.002a.375.375 0 0 0 .075-.056l.923-.928zm.299.283a.503.503 0 0 0 0-.724l-.921-.925-.003-.003a.54.54 0 0 0-.358-.14.446.446 0 0 0-.38.202l-.902.906a.503.503 0 0 0 0 .724l.921.925.003.003a.54.54 0 0 0 .358.14.414.414 0 0 0 .193-.057.79.79 0 0 0 .165-.123l.924-.928z" fill="#FEF1EB"/><path fill-rule="evenodd" clip-rule="evenodd" d="M101.977 27.61v4.154l-3.64 3.835-1.191 1.287H79.287l-1.064-1.315-3.239-3.826v-4.108l2.755-3.822 1.405-1.909h18.02l1.572 1.875 3.241 3.83zm-1.257.43l-2.963-3.5-1.195-1.426H79.796l-1.026 1.393-2.527 3.507v3.302l2.965 3.503.695.859h16.68l.82-.888 3.318-3.494V28.04z" fill="#FEF1EB"/><path fill-rule="evenodd" clip-rule="evenodd" d="M92.588 28.005v2.782l-2.027 1.428h-4.16l-2.028-1.428v-2.698l2.024-1.512h4.164l2.027 1.428zm-.419.204l-1.745-1.23h-3.883l-1.749 1.307v2.296l1.745 1.23h3.887l1.745-1.23V28.21z" fill="#FEF1EB"/><path fill-rule="evenodd" clip-rule="evenodd" d="M97.073 27.423h4.275v.805h-5.113v-2.134h-15.76v2.134h-5.072v-.805h4.234v-2.134h17.436v2.134zm4.275 3.101v.805h-4.275v2.134H79.637V31.33h-4.234v-.805h5.072v2.134h15.76v-2.134h5.113zm-6.035 5.758v11.476h-3.808l-1.476 3.546-3.297-3.546H83.2V36.282h1.258V46.55h2.838l2.32 2.495 1.038-2.495h3.402V36.282h1.257zm-.377-24.483V22.51h-1.258v-9.503h-2.772l-2.01-2.378-1.721 2.378h-2.718v9.503H83.2V11.8h3.318l2.301-3.18 2.686 3.18h3.43z" fill="#FEF1EB"/><path d="M20.538 118.913v-17.477l-3.773 3.866-2.137-.121-.503-2.013 3.353-3.665H1.509l6.874-7.45 3.353.041v3.503h6.79l.88 1.047h4.192v10.591h3.185l2.766 2.94-9.011 8.738zm17.436-.121l-8.425-8.617 1.3-2.94h3.562v-10.59h2.18l.964-1.048h7.293v-3.503h5.407l7.25 6.725H40.909l2.85 3.503-.377 2.457-2.473-.081-2.934-2.94v17.034z" fill="#fff"/><path d="M29.549 110.175l-2.808-2.94h-3.186v-10.59H34.37v10.59h-3.563l-1.257 2.94zm-1.677-6.242h1.845l1.006-1.248v-2.658l-1.006-1.208H27.83l-1.006 1.208v2.658l1.047 1.248zm-7.334 4.953l-10.018-.121v-9.262h6.958l-3.353 3.665.503 2.013 2.137.121 3.773-3.866v7.45zm26.825-.322h-9.389v-6.806l2.934 2.94 2.473.081.377-2.457-2.85-3.503h6.455v9.745z" fill="#FBC631"/><path d="M29.717 103.933h-1.845l-1.047-1.248v-2.618l1.006-1.248h1.886l1.006 1.248v2.618l-1.006 1.248z" fill="#1938EF"/><path d="M23.597 96.644h-4.191l-.88-1.047-3.102-3.543v-.604h4.443v2.094h16.472V91.45h4.653v.604l-3.437 3.543-.964 1.047H23.597z" fill="#FBC631"/><path d="M15.424 88.47v3.584l3.102 3.543h-6.79v-3.503l-3.353-.04-.084-3.544h3.437v-3.624h6.37l-2.682 3.584zm29.424 7.127h-7.293l3.437-3.543V88.47l-3.06-3.584h6.916v3.624h5.407v3.584h-5.407v3.503z" fill="#1938EF"/><path d="M26.238 93.544h-6.371V91.45h-4.443v-2.98h4.443v-2.094h6.37v1.047l-1.885 1.37v2.415l1.886 1.289v1.047z" fill="#1938EF"/><path d="M36.34 93.544H26.237v-1.047h4.024l1.844-1.289v-2.496l-1.844-1.289h-4.024v-1.047h10.101v2.094h4.653v2.98h-4.653v2.094z" fill="#1938EF"/><path d="M30.262 92.497h-4.024l-1.886-1.289v-2.416l1.886-1.37h4.024l1.844 1.29v2.496l-1.844 1.289zm-2.431-1.37a.287.287 0 0 0 .419 0l.922-.926c.126-.12.126-.281 0-.402l-.922-.927a.288.288 0 0 0-.42 0l-.921.927c-.126.12-.126.282 0 .402l.922.927z" fill="#F25000"/><path d="M28.25 91.128a.288.288 0 0 1-.42 0l-.922-.927c-.125-.12-.125-.281 0-.402l.923-.926a.288.288 0 0 1 .419 0l.922.926c.125.12.125.282 0 .402l-.922.927z" fill="#FBC631"/><path d="M11.736 88.51H8.299l-6.665-7.53h15.844l-3.353-3.584 1.006-1.893 1.802.121 3.605 3.584V62.86l8.089 7.892-2.012 2.698h-3.018l.042 9.825H19.28l-1.174 1.611h-6.37v3.624zm38.519 0h-5.407v-3.624h-6.916l-1.341-1.61h-2.557V73.45h-3.102l-2.305-2.698 9.347-7.893v15.946l2.766-3.704 2.557.16.461 2.135-2.85 3.584h16.598l-7.251 7.53z" fill="#fff"/><path d="M19.867 88.47h-4.443l2.683-3.584 1.173-1.61h17.311l1.341 1.61 3.06 3.584h-4.653v-2.094H19.867v2.094zm14.167-5.195H23.64l-.042-9.825h3.017l2.012-2.698 2.306 2.698h3.101v9.825zm-6.161-1.933h1.844l1.006-1.248v-2.658l-1.006-1.208h-1.886l-1.006 1.208v2.658l1.048 1.248z" fill="#FBC631"/><path d="M29.717 81.342h-1.845l-1.047-1.248v-2.617l1.006-1.249h1.886l1.006 1.249v2.617l-1.006 1.248z" fill="#1938EF"/><path d="M17.478 80.98h-6.706v-9.06h9.766v7.288l-3.605-3.584-1.802-.12-1.006 1.892 3.353 3.584zm29.885 0h-6.455l2.85-3.584-.46-2.134-2.558-.161-2.766 3.704V72h9.389v8.98z" fill="#FBC631"/><path fill-rule="evenodd" clip-rule="evenodd" d="M59.063 99.423H47.99v9.745h-9.388v11.149l-9.066-9.273-9.628 9.337v-10.899l-10.017-.12v-9.255H.112l7.637-8.277-.074-3.092-7.4-8.362h9.868v-9.06h9.766v-9.931l8.75 8.536 9.944-8.397v9.872h9.389v8.98h10.952l-8.06 8.37v3.092l8.178 7.585zm-2.995-17.84h-9.334v-8.979h-9.389v-8.41l-8.749 7.388-7.43-7.249v8.19H11.4v9.06H2.994l5.928 6.7.095 3.994-6.11 6.622h8.242v9.27l10.017.12v9.156l8.395-8.14 7.784 7.962v-9.307h9.389v-9.745h9.215l-6.323-5.865v-4.076l6.442-6.69z" fill="#F25000"/><path fill-rule="evenodd" clip-rule="evenodd" d="M47.363 81.584h-7.727l3.448-4.335-.305-1.415-1.731-.109-3.703 4.959V72h1.258v4.927l1.83-2.451 3.383.213.616 2.854-2.252 2.833h5.183v1.208zm-1.886 6.322h4.778v1.208h-6.036V85.49h-6.287v-1.208h7.545v3.624zm4.778 3.584v1.208h-4.778v3.503h-7.922v-1.208h6.664V91.49h6.036zm-2.892 6.725v1.208h-5.166l2.222 2.731-.498 3.247-3.29-.108-2.028-2.032v5.303h-1.258v-8.308l3.84 3.847 1.656.054.256-1.667-3.478-4.275h7.744zM21.166 71.92v8.782l-4.517-4.491-1.147-.077-.62 1.167 4.007 4.283h-8.117v-1.208h5.296l-2.7-2.885 1.392-2.618 2.458.165 2.691 2.676v-5.795h1.258zm-8.802 13.57h5.742v-1.208h-7v3.624H8.3v1.208h4.065V85.49zm6.162 10.711h-7.419v-3.51l-2.732-.033.016-1.208 3.973.047v3.496h6.162v1.208zm2.64 3.708v8.977H19.91v-5.922l-2.886 2.958-2.898-.164-.688-2.754 2.651-2.897H10.52v-1.208h8.348l-4.056 4.432.318 1.274 1.378.077 4.659-4.773z" fill="#F25000"/><path fill-rule="evenodd" clip-rule="evenodd" d="M31.142 99.93v2.892l-1.22 1.514h-2.25l-1.266-1.509V99.93l1.22-1.514h2.297l1.22 1.514zm-.838.275l-.793-.983h-1.474l-.793.983v2.338l.83.987h1.437l.793-.983v-2.342zm.838-22.866v2.893l-1.22 1.513h-2.25l-1.266-1.509v-2.897l1.22-1.514h2.297l1.22 1.514zm-.838.275l-.793-.983h-1.474l-.793.983v2.338l.83.987h1.437l.793-.983v-2.342z" fill="#F9F9F9"/><path fill-rule="evenodd" clip-rule="evenodd" d="M29.057 90c0-.01-.004-.03-.033-.059l-.003-.003-.92-.924c-.029-.027-.05-.03-.06-.03-.01 0-.032.003-.06.03l-.924.927c-.03.028-.033.05-.033.059 0 .01.004.031.033.059l.003.003.92.925c.029.026.05.03.06.03.01 0 .032-.004.06-.03l.924-.928c.03-.028.033-.05.033-.059zm.265.342a.476.476 0 0 0 .154-.342c0-.13-.058-.25-.154-.342l-.92-.925-.004-.003a.516.516 0 0 0-.357-.15.515.515 0 0 0-.358.15l-.924.928a.476.476 0 0 0-.154.342c0 .13.058.25.154.342l.92.925.004.003c.096.093.221.15.358.15a.515.515 0 0 0 .357-.15l.924-.928z" fill="#fff"/><path fill-rule="evenodd" clip-rule="evenodd" d="M41.62 88.254v4.037l-3.6 3.712-1.146 1.245H19.106l-1.065-1.267-3.245-3.707v-3.999l2.798-3.739 1.36-1.865h17.94l1.527 1.835 3.2 3.748zm-1.257.432l-2.92-3.42-1.154-1.387H19.608l-.988 1.356-2.567 3.43v3.168l2.958 3.38.695.827h16.602l.781-.849 3.274-3.375v-3.13z" fill="#F25000"/><path fill-rule="evenodd" clip-rule="evenodd" d="M32.315 88.609v2.702l-1.985 1.387h-4.16l-2.029-1.386v-2.62l2.026-1.47h4.162l1.985 1.387zm-.419.205l-1.703-1.19h-3.885l-1.747 1.268v2.212l1.744 1.191h3.889l1.702-1.19v-2.291z" fill="#fff"/><path fill-rule="evenodd" clip-rule="evenodd" d="M36.758 88.067h4.234v.806H35.92v-2.095H20.286v2.094h-5.03v-.805h4.192v-2.094h17.31v2.094zm4.234 2.98v.806h-4.234v2.093h-17.31v-2.093h-4.191v-.806h5.03v2.094H35.92v-2.094h5.072zm-5.952 5.597v11.195h-3.775l-1.522 3.442-3.24-3.442H22.97V96.644h1.257v9.987h2.836l2.293 2.437 1.078-2.437h3.35v-9.987h1.257zm-.377-23.798v10.43h-1.258v-9.222h-2.77l-1.974-2.31-1.723 2.31h-2.71l.04 9.219-1.258.005-.044-10.432h3.326l2.301-3.086 2.637 3.086h3.433z" fill="#F25000"/><path d="M119.749 120V60.161h-59.77V120h59.77z" fill="#FFFBF8"/><path d="M103.025 118.671l-6.413-6.322-5.616 6.282-6.204-6.282-4.4 5.114V108l-6.665.644v-7.047l-9.892-.08 3.228-5.92-6.162-5.476 6.539-5.517-3.73-6.523h9.975v-6.806h5.994l-.252-9.221 5.365 5.92 6.078-6.766 5.742 6.161 6.413-5.799v9.745h6.287l.126 7.249 8.508.12-5.197 6 5.197 5.195-5.197 5.557 5.197 7.007-9.179-.483-.88 6.725h-4.862v9.986zm-12.239-3.382l4.736-4.511v-8.859l3.228 3.826 5.951.765.839-5.557-5.784-6.846h11.442l3.898-4.228-3.898-4.268H100.72l5.826-6.443-.336-5.235-6.538.564-4.108 4.55v-9.503l-4.736-4.148-4.36 4.148v8.738l-3.646-4.309H77.08l-.503 4.309 5.197 7.288H70.416l-4.569 4.631 4.569 3.866h11.568l-6.287 6.967.377 5.395 6.413-.644 3.982-4.429v9.342l4.317 4.591zm5.826-5.719l2.683 2.779v-4.51l-2.683-2.859v4.59zm-14.418-.885v3.704l2.598-3.181v-4.188l-2.598 3.665zm24.184-9.222h6.371l-3.311-4.027h-6.413l3.353 4.027zm-37.345 0l6.16-.765 3.145-3.262h-5.7l-3.605 4.027zm33.992-14.819h6.413l3.311-3.262h-6.371l-3.353 3.262zM72.05 84h6.33l-3.144-3.262H69.87L72.05 84zm24.562-13.289v5.195l2.683-2.94v-4.349l-2.683 2.094zm-14.418 1.57l2.598 1.692V70.43l-3.395-3.101.797 4.953z" fill="#fff"/><path d="M95.564 110.779l-4.736 4.51-4.36-4.51v-9.343l-3.981 4.43-6.413.644-.377-5.396 6.287-6.966H70.458l-4.569-3.866 4.569-4.63h11.317l-5.198-7.29.503-4.308h5.742l3.647 4.308v-8.738l4.359-4.147 4.736 4.147v9.504l4.108-4.55 6.496-.685.336 5.235-5.826 6.442h10.52l3.898 4.229-3.898 4.228H99.84l5.784 6.846-.839 5.557-5.951-.766-3.228-3.825v8.94h-.042zm-4.904.12h.419v-.12l2.683-1.611h-2.683v-.846l2.39-1.731h-2.39v-.806l2.39-1.61h-2.39v-.766l2.473-1.651H91.08V97.45h-.419v4.349h-2.43l2.43 1.57v.846h-2.515l2.515 1.611v.805h-2.515l2.515 1.731v.806H88.44l2.221 1.53v.201zm10.437-7.127h1.928v-2.295h-1.551v-1.772h-1.55v-1.933h-1.929v2.295h1.593V102h1.551v1.772h-.042zm-21.083-.604h1.928v-1.933h1.593v-1.772h1.55v-2.295h-1.97v1.772h-1.55v1.933h-1.593v2.295h.042zm8.886-7.933c.126 1.329 1.3 2.335 2.599 2.215 1.34-.121 2.305-1.289 2.221-2.618-.084-.886-1.132-2.617-1.886-3.745l.042-.04c.712 1.208 1.97 3.222 2.808 3.624 1.216.564 2.64.08 3.227-1.127a2.39 2.39 0 0 0-1.131-3.222c-.755-.362-2.64-.362-3.982-.282a.3.3 0 0 0-.084-.16l-.084-.081c1.425.04 3.647-.04 4.401-.524 1.132-.725 1.467-2.215.713-3.342-.713-1.128-2.222-1.45-3.353-.725-.839.524-2.054 2.738-2.641 3.866l-.042-.04c.67-1.249 1.677-3.343 1.593-4.229a2.41 2.41 0 0 0-2.39-2.174v-3.705h2.474l-2.473-1.57v-.846h2.515l-2.515-1.61v-.806h2.515l-2.515-1.731v-.806h2.221l-2.515-1.731-.21.12-2.64 1.57h2.683v.806l-2.39 1.732h2.39v.805l-2.39 1.61h2.39v.766l-2.473 1.61h2.473v3.705h.251-.084c-1.34.121-2.305 1.33-2.18 2.658.085.886 1.258 2.698 2.013 3.826l-.042.04c-.713-1.168-2.054-3.302-2.934-3.705a2.441 2.441 0 0 0-3.228 1.168c-.544 1.208-.041 2.658 1.174 3.221.754.323 2.599.323 3.94.242 0 .08 0 .161.042.201-1.425 0-3.479.121-4.192.564-1.09.725-1.425 2.255-.67 3.342a2.427 2.427 0 0 0 3.353.685c.796-.523 1.928-2.577 2.515-3.745l.042.04c-.67 1.33-1.635 3.262-1.551 4.148zm-19.7-4.993l2.222 2.214v-2.094h1.09l2.22 1.853v-1.853h1.049l2.054 1.853v-1.853h1.006l2.095 1.893v-1.892h6.078l.042-.162-6.078-.08v-2.014l-2.137 1.974h-.965v-2.014l-2.137 2.014h-.964v-1.974l-2.264 1.974h-1.047v-1.732L69.2 90.242zm37.639 2.094l2.263-1.974h1.048v1.732l2.222-1.933-2.222-2.215v2.094h-1.048l-2.263-1.852v1.852h-1.048l-2.054-1.852v1.852h-1.005l-2.096-1.892v1.892h-4.485l.335.161 4.108.04v2.014l2.138-2.013h.964v2.013l2.137-2.013h.964v2.094h.042zm-23.723-9.947h1.928v-2.255h-1.51v-1.772h-1.55V76.43h-1.928v2.295h1.593v1.933h1.467v1.731zm16.095-.563h1.928v-1.933h1.551V78.12h1.55v-2.295h-1.928v1.771h-1.55v1.933h-1.551v2.296z" fill="#F25000"/><path d="M99.336 112.349l-2.724-2.779v-4.59l2.724 2.899v4.47zm-17.142 0v-3.665l2.599-3.704v4.188l-2.6 3.181z" fill="#1938EF"/><path d="M90.912 110.899h-.252v-.201l.252.201z" fill="#3123B7"/><path d="M91.08 110.899h-.168l.168-.12v.12zm0-.121l-.168.121-.252-.201v-1.53h.42v1.61z" fill="#3123B7"/><path d="M93.762 109.168l-2.683 1.61v-1.61h2.683zm-3.102 1.53l-2.221-1.53h2.221v1.53z" fill="#fff"/><path d="M91.08 109.168h-.42v-.806l.21.161.21-.161v.806z" fill="#3123B7"/><path d="M91.08 108.362l-.21.161-.21-.161v-1.771h.42v1.771z" fill="#3123B7"/><path d="M90.66 108.362l-2.515-1.771h2.515v1.771zm2.85-1.771l-2.43 1.771v-1.771h2.43z" fill="#fff"/><path d="M91.08 106.591h-.42v-.806l.21.161.21-.161v.806z" fill="#3123B7"/><path d="M91.08 105.785l-.21.161-.21-.161v-1.57h.42v1.57z" fill="#3123B7"/><path d="M90.66 105.785l-2.515-1.57h2.515v1.57zm2.85-1.57l-2.43 1.57v-1.57h2.43z" fill="#fff"/><path d="M91.08 104.215h-.42v-.846l.252.161.168-.121v.806z" fill="#3123B7"/><path d="M103.067 103.772h-1.97V102l.419-.523h1.551v2.295z" fill="#003E89"/><path d="M91.08 103.409l-.168.121-.252-.161v-1.57h.42v1.61z" fill="#3123B7"/><path d="M91.08 103.409v-1.61h2.472l-2.473 1.61zm-.42-.04l-2.473-1.57h2.473v1.57z" fill="#fff"/><path d="M81.942 103.168h-1.928v-2.255h1.593l.335.322v1.933zM101.097 102h-1.509v-1.933l.377-.362h1.551v1.771l-.419.524z" fill="#003E89"/><path d="M91.08 101.799v-4.35h-.462v4.35h.462z" fill="#3123B7"/><path d="M83.535 101.235h-1.593l-.335-.322V98.98h1.509l.42.523v1.732zm16.053-1.168h-1.593v-2.255h1.97v1.893l-.377.362z" fill="#003E89"/><path d="M85.044 99.503h-1.509l-.42-.523v-1.772h1.929v2.295z" fill="#003E89"/><path d="M112.749 99.463h-6.371l-3.353-4.027h6.413l3.311 4.027zm-37.513-.765l-6.203.765 3.646-4.027h5.7l-3.143 3.262z" fill="#1938EF"/><path d="M91.498 97.45a2.385 2.385 0 0 1-2.598-2.215c-.084-.886.88-2.819 1.593-4.067l.335.282c.167.12.419.12.587 0l.419-.363c.754 1.128 1.802 2.9 1.886 3.745.126 1.329-.88 2.497-2.222 2.618zm-3.562-2.578a2.427 2.427 0 0 1-3.353-.684 2.406 2.406 0 0 1 .67-3.343c.713-.483 2.767-.563 4.192-.563 0 .04.042.04.084.08l.922.765c-.587 1.168-1.719 3.222-2.515 3.745zm9.975-1.329c-.587 1.209-2.012 1.732-3.227 1.128-.838-.403-2.096-2.416-2.808-3.624l.838-.685c.126-.08.126-.201.084-.322 1.34-.08 3.227-.08 3.981.282 1.174.564 1.677 2.013 1.132 3.221z" fill="#003E89"/><path d="M71.422 92.457L69.2 90.242l2.222-1.933v1.731h-1.509v.363h1.509v2.053zm37.681-2.095l-2.264 1.974v-2.014l2.264.04zm-3.228-.04l-2.138 2.013v-2.053l2.138.04zm-3.102-.04l-2.137 2.013v-2.053l2.137.04zm-21.837 2.013l-2.096-1.892h2.096v1.892zm-3.101-.04l-2.054-1.852h2.053v1.852zm-3.102 0l-2.222-1.852h2.222v1.852zm37.639-2.094l-2.222 1.933v-1.732l1.509.04v-.362h-1.509v-2.094l2.222 2.215zM91.373 91.41a.52.52 0 0 1-.587 0l-.335-.282c.335-.645.629-1.128.629-1.128s.293.403.712 1.047l-.42.362zm-.923-.283l-.922-.765-.084-.08c.797 0 1.426.04 1.426.04l-.42.805z" fill="#fff"/><path d="M91.834 91.047c-.42-.564-.755-1.007-.755-1.007s.252-.403.545-1.007l.042.04c-.21.403-.335.685-.335.685s.503.04 1.215.04l.084.081c.042.04.084.08.084.161-.838.04-1.467.08-1.467.08s.293.363.587.927z" fill="#fff"/><path d="M92.672 90.362l-.838.685a37.632 37.632 0 0 1-.503-.926s.629-.04 1.467-.08c.042.12 0 .24-.126.321zm-17.939.041H72.51l-.251-.202.21-.16 2.263.04v.322zm6.203-.242l-2.096-.04 2.096-1.973v2.013zm-3.101-.041l-2.138-.04 2.138-1.973v2.014zm-3.102-.04l-2.264-.04 2.264-1.933v1.974z" fill="#fff"/><path d="M89.403 90.08c-1.341.081-3.186.121-3.94-.241-1.216-.564-1.76-2.013-1.174-3.221.545-1.209 2.012-1.732 3.228-1.168.88.402 2.221 2.496 2.934 3.704l-.88.766c-.126 0-.168.08-.168.16z" fill="#003E89"/><path d="M102.731 90.04h-2.095v-1.892l2.095 1.892zm3.06 0h-2.054v-1.852l2.054 1.852zm3.312 0h-2.264v-1.852l2.264 1.852zm-18.191-.12s-.63.08-1.51.12c0-.08.043-.12.126-.201l.88-.765c.294.523.504.845.504.845z" fill="#fff"/><path d="M96.989 89.275c-.754.483-2.976.524-4.401.524l-.88-.725c.587-1.128 1.802-3.342 2.64-3.866 1.132-.725 2.6-.403 3.354.725.712 1.127.419 2.658-.713 3.342z" fill="#003E89"/><path d="M91.708 89.074l.88.725c-.712 0-1.215-.04-1.215-.04s.126-.283.335-.685zm-.587.966s-.293-.362-.67-.926l.335-.282a.52.52 0 0 1 .587 0l.293.242c-.293.563-.545.966-.545.966z" fill="#fff"/><path d="M90.828 88.792l-.335.282c-.755-1.087-1.928-2.94-2.012-3.826-.126-1.329.838-2.537 2.18-2.657h.293a2.41 2.41 0 0 1 2.389 2.174c.084.926-.922 2.98-1.593 4.228l-.293-.241c-.21-.08-.503-.08-.63.04z" fill="#003E89"/><path d="M109.438 84.644h-6.413l3.353-3.261h6.371l-3.311 3.261zM78.38 84h-6.33l-2.18-3.262h5.366L78.379 84z" fill="#1938EF"/><path d="M90.702 82.63h-.251v-3.704h.46v3.705h-.209z" fill="#3123B7"/><path d="M85.044 82.39h-1.928v-1.732l.419-.524h1.509v2.255zm16.137-.564h-1.97V79.53h1.592l.378.363v1.933z" fill="#003E89"/><path d="M83.116 80.658h-1.509v-1.933l.335-.363h1.593v1.772l-.419.524zm19.615-.766h-1.55l-.378-.362v-1.933h1.551l.377.524v1.772z" fill="#003E89"/><path d="M90.409 78.926h-2.431l2.43-1.65v1.65z" fill="#fff"/><path d="M90.87 78.926h-.461v-1.65l.21-.122.25.202v1.57z" fill="#3123B7"/><path d="M93.343 78.926H90.87v-1.57l2.473 1.57z" fill="#fff"/><path d="M81.607 78.725h-1.593v-2.296h1.928v1.933l-.335.363zm22.675-.605h-1.551l-.377-.523v-1.731h1.928v2.255z" fill="#003E89"/><path d="M90.87 77.356l-.252-.202-.21.121v-.765h.462v.846z" fill="#3123B7"/><path d="M90.409 76.51h-2.39l2.39-1.61v1.61z" fill="#fff"/><path d="M90.87 76.51h-.461V74.9l.251-.121.21.12v1.611z" fill="#3123B7"/><path d="M93.385 76.51H90.87V74.9l2.515 1.61z" fill="#fff"/><path d="M96.612 75.946v-5.235l2.724-2.094v4.35l-2.724 2.98z" fill="#1938EF"/><path d="M90.66 74.779l-.251.12v-.805h.46v.805l-.209-.12z" fill="#3123B7"/><path d="M90.409 74.094h-2.39l2.39-1.732v1.732z" fill="#fff"/><path d="M90.87 74.094h-.461v-1.731l.251-.162.21.162v1.731z" fill="#3123B7"/><path d="M93.385 74.094H90.87v-1.732l2.515 1.732z" fill="#fff"/><path d="M84.793 73.973l-2.6-1.691-.796-4.953 3.395 3.1v3.544z" fill="#1938EF"/><path d="M90.66 72.201l-.251.161v-.805h.46v.805l-.209-.16z" fill="#3123B7"/><path d="M90.409 71.557h-2.683l2.64-1.61.043.08v1.53z" fill="#fff"/><path d="M90.87 71.557v-1.53h-.461v1.53h.46z" fill="#3123B7"/><path d="M93.091 71.557H90.87v-1.53h-.461l-.042-.08.251-.122 2.473 1.732z" fill="#fff"/><path fill-rule="evenodd" clip-rule="evenodd" d="M115.333 89.84l-4.04 4.429h-11.055l5.564 6.585-.881 5.842-6.24-.802-2.907-3.446v8.415l-4.996 4.715-4.519-4.721v-8.92l-3.668 4.081-6.71.674-.441-5.687 6.085-6.736H70.337l-4.792-4.055 4.781-4.805h11.052l-5.018-7.075.533-4.562h6.03l3.336 3.943V69.46l4.52-4.342 4.995 4.336v9.05l3.794-4.24 6.795-.59.398 5.522-5.583 6.213h10.115l4.04 4.43zm-4.23-4.028h-10.841l6.069-6.753-.357-4.947-6.199.538-4.42 4.94v-9.957l-4.562-3.96-4.115 3.954v9.222l-3.955-4.674h-5.455l-.474 4.055 5.377 7.582H70.505L66.15 90.19l4.345 3.677h11.948l-6.572 7.277.396 5.105 6.116-.614 4.296-4.779v9.845L90.794 115l4.56-4.305v-9.383l3.548 4.205 5.664.728.795-5.273-6.003-7.105h11.745l3.673-4.027-3.673-4.027z" fill="#1938EF"/><path fill-rule="evenodd" clip-rule="evenodd" d="M113.182 99.665h-6.905l-3.688-4.43h6.95l3.643 4.43zm-3.846-4.027h-5.875l3.018 3.624h5.837l-2.98-3.624zm3.91-14.457l-3.72 3.665h-7.003l3.767-3.665h6.956zm-.994.403h-5.786l-2.94 2.859h5.823l2.903-2.86zM99.546 68.199v4.844l-3.143 3.438v-5.866l3.143-2.416zm-.419.838l-2.305 1.771v4.604l2.305-2.521v-3.854zm-14.125 1.306v4.01L82.001 72.4l-.905-5.624 3.906 3.567zm-.42.173l-2.884-2.634.689 4.282 2.196 1.43v-3.078zM78.86 84.201h-6.924l-2.448-3.664h5.84l3.531 3.664zm-3.715-3.261h-4.89l1.91 2.859H77.9l-2.755-2.86zm3.715 14.295l-3.522 3.654-6.825.841 4.07-4.495h6.276zm-.96.403h-5.125l-3.223 3.558 5.582-.688 2.766-2.87zm7.102 8.683v4.916l-3.018 3.695v-4.309l3.018-4.302zm-.42 1.318l-2.179 3.107v3.02l2.18-2.668v-3.459zm14.964 2.163v5.054l-3.143-3.205v-5.194l3.143 3.345zm-.419.155l-2.305-2.453v3.987l2.305 2.351v-3.885z" fill="#1938EF"/><path fill-rule="evenodd" clip-rule="evenodd" d="M119.277 78.053l-5.685 6.563 5.211 5.208-5.25 5.655 5.664 7.636-9.899-.521-.876 6.695h-4.788v10.868l-7.01-6.912-5.625 6.331-6.194-6.312-5.062 5.929v-10.52l-6.665.684v-7.12l-10.297-.084 3.482-6.387-6.277-5.618 6.682-5.637-4-6.994h10.41v-6.805h5.936l-.28-10.272 6.035 6.613 6.072-6.76 5.79 6.212 7.003-6.332v10.539h6.277l.125 7.254 9.221.087zm-2.601 23.719l-4.73-6.377 5.144-5.54-5.184-5.181 4.71-5.438-7.796-.073-.126-7.243h-6.298v-8.95l-5.822 5.265-5.695-6.11-6.083 6.77-4.694-5.145.222 8.171h-5.968v6.805h-9.542l3.462 6.054-6.395 5.396 5.961 5.335-2.972 5.452 9.486.077v6.974l6.664-.684v8.486l3.74-4.379 6.213 6.331 5.609-6.313 5.814 5.732v-9.105h4.937l.884-6.755 8.459.446z" fill="#1938EF"/><path fill-rule="evenodd" clip-rule="evenodd" d="M109.647 90.202l-.409.314-2.609 2.274v-5.038l2.607 2.133.411.317zm-.67 0l-.008-.006-1.92-1.572v3.257l1.917-1.672.011-.007z" fill="#1938EF"/><path fill-rule="evenodd" clip-rule="evenodd" d="M111.869 89.84v.77l-1.721-.046h-1.049l-2.261-.04h-.967l-2.135-.04h-.966l-2.136-.04h-.002l-4.196-.042-1.172-.563h16.605z" fill="#1938EF"/><path fill-rule="evenodd" clip-rule="evenodd" d="M112.673 90.171l-2.732 2.377v-5.1l2.732 2.723zm-2.313-1.726v3.195l1.711-1.489-1.711-1.706zm-4.045 1.74l-.293.281-2.494 2.35v-5.093l2.401 2.165.386.297zm-.628.033l-1.74 1.638v-3.203l1.707 1.54.033.025zm-2.469-.078l-.298.286-2.494 2.349v-5.093l2.441 2.204.351.253zm-.637.041l-1.736-1.568v3.203l1.736-1.635zm-8.447 16.208l-2.925 2.132-.339.26-.337-.259-3.027-2.133h6.628zm-1.246.403h-4.102l2.002 1.411.082.063.083-.064 1.935-1.41zm1.605 2.175l-3.295 1.978-.293.211-.373-.299-2.745-1.89h6.706zm-1.462.402h-3.94l1.698 1.17.13.104.042-.031 2.07-1.243zm1.167-5.355l-2.994 1.934-.334.256-.333-.255-3.098-1.935h6.759zm-1.375.402h-3.97l1.93 1.206.087.067.085-.066 1.868-1.207zm1.412-2.819l-3.034 1.976-.282.204-.374-.24h-.001l-3.054-1.94h6.745zM92.87 102h-3.986l1.892 1.202.129.082.053-.038L92.87 102zM74.943 87.66v5.037l-2.567-2.14-.447-.359.406-.311 2.608-2.228zm-.42.896l-1.918 1.638-.013.01.057.047 1.875 1.563v-3.258z" fill="#1938EF"/><path fill-rule="evenodd" clip-rule="evenodd" d="M87.311 90.002l-.125.602H69.703v-.765h2.77l2.262.04h.966l2.136.04h1.008l2.094.04 6.372.043z" fill="#1938EF"/><path fill-rule="evenodd" clip-rule="evenodd" d="M71.631 87.855v5.1L68.9 90.233l2.732-2.377zm-.419.908l-1.71 1.489 1.71 1.706v-3.195zm6.832-1.128v5.085l-2.409-2.173-.36-.346.277-.266 2.492-2.3zm-.419.945l-1.757 1.622.059.056 1.698 1.532v-3.21zm3.521-.912v5.093l-2.451-2.214-.341-.327.35-.252 2.442-2.3zm-2.156 2.594l1.737-1.635v3.203l-1.737-1.568zm15.047-15.967h-6.643l2.894-2.097.384-.246.325.25 3.04 2.093zm-1.304-.402l-1.99-1.37-.094-.072-.119.076-1.884 1.366h4.087zm1.002-2.134h-6.73l3.259-1.988.375-.18 3.096 2.168zm-3.137-1.698l-.128.061-2.022 1.234h4l-1.85-1.295zm3.479 6.651h-6.72l2.944-1.986.369-.177.312.18 3.095 1.983zm-3.319-1.642l-.107-.062-.134.065-1.834 1.236h4.01l-1.935-1.24zm3.282 4.058h-6.722l2.976-2.022.344-.198.357.286 3.045 1.934zm-1.394-.403l-1.901-1.207-.146-.117-.076.043-1.885 1.28h4.008zm4.878 7.315c-.695-1.037-2.031-1.323-3.06-.664l-.001.001c-.18.112-.395.326-.632.62-.235.292-.48.646-.718 1.022a30.248 30.248 0 0 0-1.424 2.557l.035.002a29.84 29.84 0 0 0 3.298-.06 9.294 9.294 0 0 0 1.116-.154c.328-.07.577-.156.733-.255a2.258 2.258 0 0 0 .653-3.07zm-6.151 3.718l-.018.201h.007l.018.002.068.005.255.014a30.29 30.29 0 0 0 3.356-.061 9.689 9.689 0 0 0 1.17-.162c.344-.073.655-.172.876-.314l.004-.002a2.65 2.65 0 0 0 .772-3.612l-.003-.005c-.814-1.216-2.41-1.574-3.645-.784-.24.15-.49.408-.734.711-.247.307-.5.675-.744 1.059a30.675 30.675 0 0 0-1.484 2.673l-.067.144-.018.038-.004.01-.001.003.192.08zm0 0l-.193-.08-.115.258.29.023.018-.2z" fill="#1938EF"/><path fill-rule="evenodd" clip-rule="evenodd" d="M97.722 93.459a2.191 2.191 0 0 0-1.033-2.955l-.003-.001c-.334-.16-.953-.251-1.688-.287a21.203 21.203 0 0 0-2.187.026h-.003c-.418.02-.773.04-1.024.055l-.08.005c.088.164.212.391.355.648.356.602.844 1.4 1.346 2.097.251.348.504.668.743.924.242.26.457.437.63.52l.002.002c1.101.547 2.4.08 2.942-1.034zm-6.35-3.338l-.014-.2.027-.003.079-.005a73.53 73.53 0 0 1 1.322-.073c.675-.041 1.49-.061 2.233-.026.732.035 1.432.126 1.853.328a2.587 2.587 0 0 1 1.23 3.487c-.633 1.302-2.183 1.882-3.513 1.222-.245-.118-.502-.343-.753-.611a10.052 10.052 0 0 1-.775-.964 28.746 28.746 0 0 1-1.368-2.13l-.002-.003a40.75 40.75 0 0 1-.363-.663l-.105-.197-.028-.053-.007-.014-.002-.004.187-.09zm0 0l-.186.09-.14-.27.312-.02.015.2z" fill="#1938EF"/><path fill-rule="evenodd" clip-rule="evenodd" d="M91.48 97.209c1.223-.11 2.147-1.178 2.032-2.398-.019-.184-.092-.433-.211-.73a10.317 10.317 0 0 0-.459-.964c-.362-.682-.809-1.4-1.183-1.96-.21-.302-.388-.564-.514-.75l-.011-.017-.017.03c-.115.199-.27.478-.437.798l-.002.003-.001.003c-.355.62-.77 1.409-1.085 2.15-.158.37-.29.725-.376 1.039-.088.317-.125.577-.107.763v.006a2.178 2.178 0 0 0 2.37 2.027zM91.121 90l.176-.108.014.02.038.058a52.544 52.544 0 0 0 .659.965l.001.003c.38.568.834 1.299 1.205 1.996.186.348.351.69.477 1.002.124.308.213.598.237.837.136 1.438-.952 2.706-2.41 2.837-1.466.132-2.736-.966-2.828-2.4-.023-.256.028-.569.12-.9.093-.337.231-.71.393-1.09a22.36 22.36 0 0 1 1.103-2.186 23.472 23.472 0 0 1 .62-1.112l.01-.017.004-.006.18.101zm0 0l-.181-.101.173-.286.184.279-.176.108z" fill="#1938EF"/><path fill-rule="evenodd" clip-rule="evenodd" d="M91.057 90.412l-.187-.09.014-.2.314.02-.14.27zm-.418.805l.418-.805-.187-.09.014-.2h-.002l-.006-.001-.022-.001a17.22 17.22 0 0 0-.39-.019c-.258-.01-.617-.02-1.02-.02-.715 0-1.593.02-2.385.102a8.41 8.41 0 0 0-1.101.176c-.324.077-.615.18-.825.322a2.602 2.602 0 0 0-.727 3.616 2.642 2.642 0 0 0 3.649.742c.226-.15.463-.396.694-.685.233-.293.472-.642.702-1.008.46-.732.893-1.543 1.188-2.13zm-.1-.71l-.092-.004a25.89 25.89 0 0 0-1.002-.02c-.71 0-1.571.02-2.34.1a8.23 8.23 0 0 0-1.046.166c-.306.074-.538.162-.685.261l-.001.001a2.21 2.21 0 0 0-.614 3.068 2.212 2.212 0 0 0 3.058.628c.172-.113.376-.319.599-.599.22-.276.45-.611.677-.97.45-.718.877-1.517 1.169-2.098l.001-.002.276-.53z" fill="#1938EF"/><path fill-rule="evenodd" clip-rule="evenodd" d="M91.24 90.14l-.314.02-.007.001-.021.002a19.458 19.458 0 0 0-.394.028c-.266.02-.642.05-1.081.09h-.007c-.673.041-1.477.072-2.21.046-.721-.025-1.413-.105-1.835-.307-1.318-.612-1.905-2.179-1.273-3.485.593-1.31 2.187-1.88 3.51-1.267.257.118.527.348.792.624.27.28.548.626.818.992.54.732 1.057 1.564 1.414 2.17a18.641 18.641 0 0 1 .435.755l.024.045.006.011.002.004-.187.09.187-.09.141.272zm-.662-.359c-.077-.135-.18-.314-.308-.525l-.001-.002a26.2 26.2 0 0 0-1.393-2.138 9.832 9.832 0 0 0-.784-.951c-.256-.267-.483-.45-.665-.534h-.001c-1.108-.513-2.446-.037-2.944 1.067l-.003.005c-.538 1.109-.036 2.44 1.075 2.955h.003c.332.16.939.242 1.663.267.712.025 1.5-.005 2.166-.045a67.45 67.45 0 0 1 1.192-.099z" fill="#1938EF"/><path fill-rule="evenodd" clip-rule="evenodd" d="M93.05 84.824a2.204 2.204 0 0 0-2.18-1.992h-.241c-1.21.115-2.097 1.212-1.981 2.439.018.191.098.45.229.76.13.307.304.648.501 1 .394.702.872 1.43 1.247 1.972l.002.002c.187.279.352.507.47.666l.003-.004c.098-.173.232-.42.377-.718l.001-.004.002-.004c.334-.621.75-1.44 1.07-2.216.162-.389.297-.763.387-1.094.091-.335.131-.61.114-.807zm-1.928 5.216l-.166.124-.001-.001-.003-.004-.01-.013a16.123 16.123 0 0 1-.666-.921 26.093 26.093 0 0 1-1.267-2.004 10.782 10.782 0 0 1-.52-1.038c-.136-.32-.235-.625-.259-.876-.135-1.428.901-2.744 2.369-2.876l.01-.001h.261a2.617 2.617 0 0 1 2.598 2.356v.002c.024.266-.03.595-.125.944a9.78 9.78 0 0 1-.403 1.141 26.19 26.19 0 0 1-1.085 2.25 13.613 13.613 0 0 1-.508.945l-.033.056-.01.014-.002.004v.002l-.18-.104zm0 0l.18.104-.158.252-.188-.232.165-.124z" fill="#1938EF"/><path fill-rule="evenodd" clip-rule="evenodd" d="M92.527 90.177c.034-.034.043-.076.03-.113l-.01-.031v-.03a.508.508 0 0 0-.023-.022l-.078-.075-.88-.724-.042-.04-.281-.232a.306.306 0 0 0-.326 0l-.323.27-.04.04-.88.765a1.493 1.493 0 0 0-.061.062c0 .027.001.055.01.08l.049.048.922.765.042.04.323.272a.306.306 0 0 0 .324.001l1.244-1.076zm.437-.21a.502.502 0 0 1-.143.498l-.004.004-.843.728-.426.368-.007.006a.736.736 0 0 1-.838 0l-.007-.005-.346-.291-.042-.04-.922-.765-.113-.109-.015-.03a.611.611 0 0 1-.064-.287v-.004c0-.165.1-.262.173-.33l.014-.013.003-.004.88-.765.044-.041.346-.292.007-.004a.736.736 0 0 1 .838 0l.005.004.305.25.042.041.88.725.09.086a.402.402 0 0 1 .144.27zm11.528-14.302v2.657h-1.551v1.772h-1.55v1.933h-2.39v-2.698h1.593v-1.933h1.551v-1.731h2.347zm-.419.402h-1.509V77.8h-1.551v1.892h1.509V77.92h1.551v-1.853zm-3.102 3.665h-1.55v1.892h1.55v-1.892zm2.305 21.543v2.698h-2.389v-1.772h-1.509v-1.932h-1.592v-2.658h2.389v1.892h1.551v1.772h1.55zm-.419.403h-1.551v-1.772h-1.508v1.893h1.508v1.772h1.551v-1.893zm-3.101-1.812v-1.853h-1.551v1.853h1.55zM85.253 79.933v2.658h-2.347v-1.732h-1.509v-1.933h-1.592v-2.698h2.347v1.933h1.593v1.772h1.508zm-.419.403h-1.509v-1.772h-1.508v1.893h1.508v1.731h1.51v-1.852zm-3.101-1.812V76.63h-1.51v1.893h1.51zm3.52 18.483v2.698h-1.508v1.731h-1.593v1.933h-2.347v-2.657h1.592v-1.933h1.51v-1.772h2.346zm-.419.402h-1.509v1.772h-1.508v1.853h1.508v-1.732h1.51V97.41zm-3.101 3.705h-1.51v1.853h1.51v-1.853z" fill="#1938EF"/><path d="M92.043 91.651a.992.992 0 0 1-1.425 0l-.67-.684c-.377-.403-.377-1.047 0-1.41l.67-.684a.992.992 0 0 1 1.425 0l.671.684c.377.403.377 1.047 0 1.41l-.67.684z" fill="#F25000"/><path fill-rule="evenodd" clip-rule="evenodd" d="M92.56 89.694l-.672-.687a.776.776 0 0 0-1.114 0l-.003.004-.673.687-.002.002c-.291.28-.302.8.006 1.13l.667.68c.341.327.83.315 1.119.007l.003-.004.673-.687.002-.002c.29-.28.302-.8-.006-1.13zm.305 1.413c.46-.445.449-1.21.005-1.684l-.672-.687a1.207 1.207 0 0 0-1.734 0l-.667.681c-.46.445-.45 1.21-.005 1.684l.676.69.002.003c.496.476 1.263.488 1.728-.006l.667-.681z" fill="#1938EF"/><path d="M80.81 178.551v-17.759l-3.856 3.906-2.137-.121-.545-2.013 3.437-3.745H61.488l6.958-7.611 3.437.081v3.584h6.874l.922 1.047h4.233l.042 10.751h3.228l2.808 2.98-9.18 8.9zm17.772-.121l-8.592-8.779 1.299-2.98h3.646V155.92h2.222l1.006-1.047h7.419v-3.584h5.49l7.377 6.845h-16.891l2.892 3.544-.377 2.497-2.515-.081-2.976-2.98v17.316z" fill="#1938EF"/><path d="M89.99 169.651l-2.809-2.98h-3.227l-.042-10.751h11.023v10.751H91.29l-1.3 2.98z" fill="#fff"/><path d="M80.81 168.362l-10.185-.12v-9.423h7.084l-3.437 3.745.545 2.013 2.138.121 3.856-3.906v7.57zm27.287-.322h-9.515v-6.926l2.976 2.98 2.515.081.377-2.497-2.892-3.544h6.539v9.906zm-24.185-12.12h-4.234l-.922-1.047-3.143-3.625v-3.624l2.724-3.664 1.216-1.611h17.562l1.383 1.611 3.102 3.664v3.624l-3.48 3.625-1.005 1.047H83.912zm4.275-4.39a.624.624 0 0 0 .88 0l1.97-1.973a.615.615 0 0 0 0-.886l-1.97-1.973a.624.624 0 0 0-.88 0l-1.97 1.973a.615.615 0 0 0 0 .886l1.97 1.973z" fill="#F25000"/><path d="M78.756 154.872h-6.874v-3.583l-3.437-.081-.083-3.544h3.52v-3.704h6.455l-2.724 3.624v3.664l3.143 3.624zm26.826 0h-7.42l3.48-3.624v-3.664l-3.102-3.624h7.042v3.704h5.49v3.625h-5.49v3.583z" fill="#fff"/><path d="M89.067 151.53a.624.624 0 0 1-.88 0l-1.97-1.973a.615.615 0 0 1 0-.886l1.97-1.973a.624.624 0 0 1 .88 0l1.97 1.973a.615.615 0 0 1 0 .886l-1.97 1.973zm-17.184-3.865h-3.521l-6.79-7.651h16.137l-3.437-3.665 1.048-1.933 1.802.121 3.688 3.624v-16.59l8.257 8.013-2.053 2.779h-3.06v9.946h-4.401l-1.216 1.651h-6.454v3.705z" fill="#1938EF"/><path d="M111.072 147.665h-5.49v-3.705H98.54l-1.383-1.651h-2.64v-9.946h-3.144l-2.306-2.779 9.515-8.013v16.187l2.808-3.744 2.557.161.503 2.174-2.892 3.665h16.891l-7.377 7.651z" fill="#1938EF"/><path d="M94.516 142.309H83.954v-9.946h3.06l2.053-2.779 2.306 2.779h3.143v9.946z" fill="#fff"/><path d="M77.709 140.013h-6.832v-9.221h9.934v7.369l-3.689-3.624-1.802-.121-1.048 1.933 3.437 3.664zm30.388 0h-6.539l2.892-3.664-.503-2.174-2.557-.162-2.808 3.745v-6.885h9.515v9.14z" fill="#F25000"/><path fill-rule="evenodd" clip-rule="evenodd" d="M90.593 149.098l-.005-.004-1.96-1.964-1.962 1.964-.004.004c0 .001-.005.005-.005.016 0 .012.005.016.005.016l.004.004 1.936 1.939a.086.086 0 0 0 .05 0l1.936-1.939.005-.004s.004-.004.004-.016c0-.011-.004-.015-.004-.016zm.894.881c.49-.476.49-1.253 0-1.73l-1.97-1.974-.005-.004a1.27 1.27 0 0 0-1.77 0l-.004.004-1.97 1.974a1.202 1.202 0 0 0 0 1.73l1.99 1.994.026.021a1.367 1.367 0 0 0 1.686 0l.027-.021 1.99-1.994z" fill="#FBC733"/><path fill-rule="evenodd" clip-rule="evenodd" d="M120.005 158.738h-11.28v9.906h-9.514v11.31l-9.233-9.433-9.796 9.497v-11.059l-10.186-.121v-9.415H60.1l7.712-8.437-.073-3.093-7.529-8.484h10.039v-9.221h9.933v-10.086l8.917 8.653 10.112-8.517v10.031h9.515v9.14h11.163l-8.187 8.492v3.131l8.304 7.706zm-2.995-18.12h-9.542v-9.141h-9.515v-8.574l-8.916 7.51-7.598-7.374v8.357h-9.934v9.222h-8.571l6.051 6.818.095 3.994-6.203 6.785h8.377v9.43l10.185.121v9.317L90 168.781l7.952 8.125v-9.47h9.515v-9.906h9.425l-6.45-5.985v-4.117l6.567-6.81z" fill="#FBC733"/><path fill-rule="evenodd" clip-rule="evenodd" d="M108.096 140.618h-7.804l3.481-4.411-.338-1.459-1.739-.11-3.743 4.992v-8.757h1.257v5.014l1.873-2.498 3.375.212.669 2.89-2.304 2.918h5.273v1.209zm-1.886 6.442h4.862v1.208h-6.119v-3.704H98.54v-1.208h7.67v3.704zm4.862 3.625v1.208h-4.862v3.584h-8.047v-1.209h6.79v-3.583h6.119zm-2.976 6.845v1.208h-5.247l2.262 2.771-.497 3.287-3.333-.106-2.07-2.074v5.424h-1.258v-8.428l3.881 3.887 1.697.054.258-1.706-3.523-4.317h7.83zm-26.657-26.738v8.851l-4.6-4.519-1.152-.078-.656 1.21 4.09 4.361h-8.244v-1.208h5.419l-2.784-2.967 1.44-2.656 2.452.164 2.778 2.729v-5.887h1.257zm-8.928 13.772h5.826v-1.208h-7.083v3.704h-2.892v1.208h4.15v-3.704zm6.245 10.913h-7.502v-3.599l-2.824-.066.03-1.208 4.051.095v3.569h6.245v1.209zm2.683 3.8v9.085h-1.257v-6.055l-2.973 3.011-2.886-.164-.744-2.749 2.737-2.982h-5.69v-1.208H79.1l-4.137 4.508.346 1.277 1.39.079 4.739-4.802z" fill="#FBC733"/><path fill-rule="evenodd" clip-rule="evenodd" d="M102.27 147.368v4.116l-4.838 5.04H79.387l-1.114-1.265-3.29-3.792v-4.078l2.843-3.78 1.401-1.904h18.23l1.57 1.874 3.243 3.789zm-1.257.432l-2.961-3.459-1.197-1.428H79.879l-1.03 1.398-2.607 3.468v3.251l2.995 3.452.003.004.73.83h16.912l.82-.853 3.312-3.451V147.8z" fill="#FBC733"/><path fill-rule="evenodd" clip-rule="evenodd" d="M95.564 155.919v11.356h-3.857l-1.52 3.486-3.285-3.486h-3.575l-.044-11.353 1.258-.005.04 10.15h2.879l2.332 2.474 1.079-2.474h3.436v-10.148h1.257zm-.42-24.161v10.551h-1.257v-9.343H91.07l-1.973-2.378-1.758 2.378h-2.756v9.343h-1.257v-10.551h3.364l2.349-3.178 2.637 3.178h3.47z" fill="#FBC733"/><path d="M89.947 153.503c-.713.685-1.928.685-2.64 0l-3.396-3.141a1.678 1.678 0 0 1 0-2.456l3.395-3.141c.713-.684 1.928-.684 2.641 0l3.395 3.141a1.678 1.678 0 0 1 0 2.456l-3.395 3.141z" fill="#1938EF"/><path fill-rule="evenodd" clip-rule="evenodd" d="M92.901 148.337l-3.394-3.141-.004-.004c-.467-.448-1.285-.448-1.752 0l-.004.004-3.395 3.141a1.091 1.091 0 0 0 0 1.595l3.388 3.134c.52.469 1.303.452 1.763.01l.004-.004 3.394-3.14a1.091 1.091 0 0 0 0-1.595zm.886-.858c.958.92.958 2.39 0 3.311l-.004.004-3.396 3.141c-.965.922-2.524.904-3.512.008l-.002-.002-3.402-3.147-.004-.004a2.266 2.266 0 0 1 0-3.311l.004-.004 3.396-3.141c.957-.915 2.563-.915 3.52 0l3.396 3.141.004.004z" fill="#FBC733"/><path d="M90.115 163.691a1.015 1.015 0 0 1-1.383 0l-1.76-1.651a.874.874 0 0 1 0-1.288l1.76-1.651a1.015 1.015 0 0 1 1.383 0l1.76 1.651a.874.874 0 0 1 0 1.288l-1.76 1.651z" fill="#F25000"/><path fill-rule="evenodd" clip-rule="evenodd" d="M91.58 161.038l-1.761-1.652a.583.583 0 0 0-.79 0l-.004.003-1.759 1.649a.483.483 0 0 0 0 .716l1.762 1.653a.585.585 0 0 0 .79 0l.004-.004 1.759-1.649a.483.483 0 0 0 0-.716zm.592-.571c.54.52.54 1.338 0 1.858l-.004.004-1.758 1.649a1.448 1.448 0 0 1-1.972 0l-1.763-1.653a1.266 1.266 0 0 1 0-1.858l.004-.003 1.759-1.65a1.448 1.448 0 0 1 1.972 0l1.762 1.653z" fill="#FBC631"/><path d="M90.115 139.732a1.017 1.017 0 0 1-1.383 0l-1.76-1.651a.876.876 0 0 1 0-1.289l1.76-1.651a1.017 1.017 0 0 1 1.383 0l1.76 1.651a.876.876 0 0 1 0 1.289l-1.76 1.651z" fill="#F25000"/><path fill-rule="evenodd" clip-rule="evenodd" d="M91.58 137.078l-1.761-1.652a.585.585 0 0 0-.79 0l-.004.003-1.759 1.649a.483.483 0 0 0 0 .716l1.762 1.653a.585.585 0 0 0 .79 0l.004-.004 1.759-1.649a.483.483 0 0 0 0-.716zm.592-.571c.54.52.54 1.339 0 1.858l-.004.004-1.758 1.649a1.448 1.448 0 0 1-1.972 0l-1.763-1.653a1.266 1.266 0 0 1 0-1.858l.004-.003 1.759-1.65a1.448 1.448 0 0 1 1.972 0l1.762 1.653z" fill="#FBC631"/><path d="M43.59 178.55l-6.454-6.282-5.659 6.282-6.245-6.282-4.443 5.115-.335-8.296-6.58-.04-.336-7.53-9.43-.081 3.269-5.919-6.204-5.477 6.623-5.517L4.024 138h10.059v-6.805h5.994l-.252-9.182 5.407 5.92 6.916-5.92 4.988 5.276 6.454-5.276v9.222h6.33l.125 7.248 8.593.121-5.24 5.96 5.24 5.194-5.24 5.598 5.24 7.006-9.263-.483-.88 6.725H43.59v9.946zm-12.322-3.382l4.778-4.51v-8.859l5.03 4.872h4.904l.964-4.953-5.952-7.409 10.814-.322 3.898-4.229-3.898-4.228H41.243l5.575-6.402-.042-5.316-5.617.201-5.113 4.953v-9.503l-4.275-4.067-4.862 4.067v8.738l-3.647-4.308h-5.784l-.503 4.308 5.24 7.289H10.771l-4.61 4.631 4.61 3.866h11.652l-6.371 6.724-.084 5.92h6.665l.922.644-.922 1.289v3.704l2.64-3.181v-4.188l-.713-.563 2.432-3.021v9.343l4.275 4.51zm5.868-5.718l2.724 2.778v-4.51l-2.724-2.859v4.591zm10.31-10.108h5.952l-2.976-3.624-5.867.04 2.892 3.584zm-38.1 0l6.204-.765 3.185-3.262h-5.742l-3.646 4.027zm36.089-15.221l5.071-.081 2.892-3.423h-4.904l-3.06 3.504zm-32.819-.725l5.617.483-2.809-3.382-5.239.12 2.431 2.779zm24.52-7.57l3.06-2.779-.336-4.51-2.724 2.094v5.195zm-14.67-4.39l2.766 2.416-.335-3.261-2.766-2.98.335 3.825z" fill="#1938EF"/><path d="M36.046 170.658l-4.778 4.51-4.401-4.51v-9.343l-2.431 3.021-1.886 2.335h-6.665l.084-5.919 6.371-6.725H10.688l-4.61-3.866 4.61-4.631h11.443l-5.24-7.288.503-4.309h5.784l3.647 4.309v-8.739l4.862-4.067 4.275 4.067v9.423l5.24-4.913 5.616-.201.042 5.316-5.575 6.402h10.563l3.898 4.228-3.898 4.229-10.814.322 5.952 7.409-.964 4.953h-4.904l-5.03-4.872v8.859h-.042zm-4.652.121l.167-.081h.252v-.161l2.473-1.49h-2.473v-1.007l2.18-1.57h-2.18v-.967l2.18-1.449h-2.18v-.926l2.221-1.49h-2.221v-4.349h.21c1.34-.121 2.346-1.289 2.22-2.618-.083-.886-1.173-2.617-1.927-3.745l.041-.04c.713 1.208 2.012 3.221 2.85 3.624 1.216.564 2.683.081 3.27-1.127a2.39 2.39 0 0 0-1.132-3.222c-.754-.362-2.682-.362-4.023-.282a.3.3 0 0 0-.084-.161l-.084-.08c1.425.04 3.688-.041 4.443-.484a2.38 2.38 0 0 0 .712-3.342c-.712-1.127-2.221-1.45-3.353-.725-.838.524-2.054 2.739-2.682 3.866l-.042-.04c.67-1.249 1.676-3.342 1.593-4.228a2.41 2.41 0 0 0-2.39-2.175v-3.705h2.473l-2.473-1.57v-.846h2.515l-2.515-1.61v-.806h2.515l-2.515-1.731v-.806H33.7l-2.264-1.53v-.201h-.462v.121l-2.682 1.61h2.682v.806l-2.43 1.731h2.43v.806l-2.43 1.61h2.43v.765l-2.473 1.651h2.473v3.705h.168-.084c-1.341.121-2.305 1.329-2.18 2.658.084.886 1.258 2.698 2.012 3.785l-.041.04c-.713-1.167-2.096-3.302-2.934-3.664-1.216-.564-2.683-.04-3.228 1.168-.587 1.208-.042 2.657 1.174 3.221.754.322 2.64.282 3.982.201 0 .081 0 .162.042.242-.755 0-1.677.04-2.515.121l-.084-.282-5.994-.04v-1.973l-2.096 1.973H18.15v-1.973l-2.138 1.973h-1.006v-1.973L12.7 149.96h-1.048v-1.772l-2.221 1.933.251.241 2.012 1.974v-2.014h1.173l2.18 1.772v-1.772h1.132l2.012 1.772v-1.772h1.09l2.053 1.812v-1.812h5.7c-.586.081-1.047.202-1.34.403a2.377 2.377 0 0 0-.671 3.342c.754 1.128 2.263 1.41 3.395.685.796-.524 1.928-2.577 2.515-3.745h.041c-.67 1.248-1.676 3.181-1.592 4.067.083 1.168 1.047 2.094 2.18 2.215h-.21v4.349h-2.683l2.683 1.731v.685h-2.767l2.767 1.731v.645h-2.767l2.767 1.892v.644h-2.473l2.514 1.813zm10.269-7.128h1.97v-2.295h-1.551v-1.772h-1.593v-1.933h-1.97v2.295h1.593v1.933h1.55v1.772zm-21.251-.604h1.928v-1.933h1.593v-1.772h1.55v-2.295h-1.97v1.772h-1.55v1.933H20.37v2.295h.042zm27.035-10.832l2.347-1.973H50.8v1.771l2.221-1.932-.21-.202-2.011-2.013v2.094h-1.09l-2.263-1.853v1.853h-1.048l-2.096-1.853v1.853h-1.006l-2.137-1.893v1.893h-4.527l.167.08 4.36.081v2.094l2.22-2.054h.923v2.094l2.222-2.054h.922v2.014zm-23.891-9.906h1.97v-2.296h-1.551v-1.771h-1.593v-1.933h-1.97v2.295h1.593v1.933h1.55v1.772zm16.22-.604h1.97v-1.933h1.551V138h1.55v-2.295h-1.969v1.772h-1.55v1.932h-1.594v2.296h.042z" fill="#003E89"/><path d="M39.86 172.269l-2.724-2.819v-4.591l2.724 2.899v4.511zm-17.268 0v-3.705l.922-1.289 1.718-2.416v4.188l-2.64 3.222z" fill="#F25000"/><path d="M31.561 170.658l-.168.121-2.514-1.732h2.473v1.611h.209z" fill="#1938EF"/><path d="M31.561 170.658h-.21v-1.611h.462v1.49l-.252.121z" fill="#2240F0"/><path d="M31.813 170.658h-.252l.252-.121v.121z" fill="#2240F0"/><path d="M34.286 169.047l-2.473 1.49v-1.49h2.473z" fill="#1938EF"/><path d="M31.813 169.047h-.461v-.644l.461-.322v.966z" fill="#2240F0"/><path d="M31.813 168.08l-.461.323v-1.893h.461v1.57z" fill="#2240F0"/><path d="M31.352 168.403l-2.767-1.893h2.767v1.893zm2.64-1.893l-2.18 1.57v-1.57h2.18zm-8.76-1.651l-1.718 2.416-.922-.644 1.886-2.336.754.564z" fill="#1938EF"/><path d="M31.813 166.51h-.461v-.685l.461-.282v.967z" fill="#2240F0"/><path d="M31.813 165.544l-.461.282v-1.732h.461v1.45z" fill="#2240F0"/><path d="M31.352 165.826l-2.767-1.732h2.767v1.732zm.461-.282v-1.45h2.18l-2.18 1.45z" fill="#1938EF"/><path d="M31.813 164.094h-.461v-.685h.042l.419-.241v.926z" fill="#2240F0"/><path d="M43.632 163.651h-1.97v-1.772l.42-.523h1.55v2.295z" fill="#F25000"/><path d="M31.813 163.168l-.42.241h-.041v-1.731h.461v1.49z" fill="#2240F0"/><path d="M31.352 163.409l-2.725-1.731h2.725v1.731zm2.682-1.731l-2.221 1.49v-1.49h2.221z" fill="#1938EF"/><path d="M22.34 163.047h-1.928v-2.255h1.593l.335.362v1.893zm19.322-1.168h-1.55v-1.892l.377-.363h1.593v1.732l-.42.523z" fill="#F25000"/><path d="M31.813 161.678h-.461v-4.349h.461v4.349z" fill="#2240F0"/><path d="M23.933 161.154H22.34l-.335-.362v-1.933h1.55l.378.524v1.771zm16.178-1.167h-1.55v-2.296h1.928v1.933l-.377.363zm-14.627-.605h-1.55l-.378-.523v-1.772h1.928v2.295zm27.914-.04h-5.951l-2.85-3.543 5.825-.04 2.976 3.583zm-37.848-.765l-6.203.765 3.646-4.027h5.742l-3.185 3.262zm16.472-1.248h-.46c-1.133-.121-2.097-1.007-2.18-2.215-.084-.886.922-2.819 1.592-4.067l.336.282a.52.52 0 0 0 .587 0l.419-.362c.754 1.127 1.844 2.859 1.928 3.745.084 1.328-.922 2.496-2.222 2.617z" fill="#F25000"/><path d="M28.418 154.792c-1.132.725-2.64.443-3.395-.685-.755-1.127-.461-2.617.67-3.342.294-.201.755-.322 1.342-.403h.419l-.042-.04c.838-.08 1.76-.121 2.515-.121 0 .041.042.041.084.081l.964.765c-.63 1.168-1.803 3.222-2.557 3.745zm10.017-1.369c-.587 1.208-2.054 1.731-3.27 1.127-.837-.402-2.137-2.416-2.85-3.624l.839-.684c.126-.081.126-.202.084-.322 1.341-.081 3.27-.081 4.024.281 1.257.604 1.76 2.054 1.173 3.222z" fill="#F25000"/><path d="M11.736 152.376l-1.97-1.973v-.04h1.97v2.013zm38.058-2.134l-2.347 1.973v-2.014l2.347.041zm-3.27-.081l-2.221 2.054v-2.094l2.221.04zm-3.144-.04l-2.179 2.054v-2.094l2.18.04zm-22.046 2.054l-2.012-1.812h2.012v1.812zm-3.144-.041l-1.97-1.771h1.97v1.771zm-3.101 0l-2.18-1.771h2.18v1.771zm37.932-2.054l-2.221 1.933v-1.771l1.928.04v-.363l.083-.08.21.241z" fill="#1938EF"/><path d="M9.766 150.403l-.252-.242 2.222-1.973v1.772l-1.97-.04v.483z" fill="#1938EF"/><path d="M11.736 150.362h-1.97v-.443l1.97.041v.402zm1.174 0h-1.174v-.402h1.048l-.168.161.294.241z" fill="#2240F0"/><path d="M15.089 150.362h-2.18l-.293-.241.168-.161h2.305v.402zm1.131 0h-1.13v-.402h1.006l-.168.161.294.241z" fill="#2240F0"/><path d="M18.19 150.362h-1.97l-.293-.241.168-.161h2.095v.402zm1.132 0h-1.131v-.402l1.047.04-.167.161.251.201z" fill="#2240F0"/><path d="M21.334 150.362h-2.012l-.251-.201.167-.161h2.096v.362zm5.7 0h-5.7V150l5.994.04.084.282c-.126 0-.252 0-.378.04z" fill="#2240F0"/><path d="M27.454 150.363h-.42c.126 0 .252-.041.378-.041l.042.041z" fill="#F25000"/><path d="M52.728 150.282l-1.928-.04v-.323h1.928v.363zm-1.928-.04h-1.006l.126-.121-.21-.202h1.09v.323z" fill="#2240F0"/><path d="M49.794 150.242l-2.347-.041v-.282h2.263l.21.202-.126.121z" fill="#2240F0"/><path d="M47.447 150.201l-.922-.04.084-.04-.21-.202h1.048v.282z" fill="#2240F0"/><path d="M46.525 150.161l-2.222-.04v-.202H46.4l.21.202-.084.04z" fill="#2240F0"/><path d="M44.303 150.121h-.922l.084-.04-.168-.162h1.006v.202z" fill="#2240F0"/><path d="M43.465 150.081l-.084.04-2.18-.04v-.162h2.096l.168.162z" fill="#2240F0"/><path d="M41.202 150.081l-4.36-.081-.167-.081h4.527v.162z" fill="#2240F0"/><path d="M21.334 150h-2.096l2.096-1.973V150zm-3.144-.04h-2.095l2.095-1.973v1.973z" fill="#1938EF"/><path d="M29.885 149.96c-1.342.08-3.228.121-3.982-.202-1.216-.563-1.76-2.013-1.174-3.221.545-1.208 2.012-1.732 3.228-1.168.88.403 2.221 2.497 2.934 3.665l-.922.765c-.042.04-.084.08-.084.161z" fill="#F25000"/><path d="M15.089 149.96h-2.305l2.305-1.973v1.973zm28.208-.041h-2.095v-1.892l2.095 1.892zm3.102 0h-2.096v-1.852l2.096 1.852zm3.311 0h-2.263v-1.852l2.263 1.852zm3.018 0H50.8v-2.053l2.012 1.973-.084.08z" fill="#1938EF"/><path d="M37.513 149.195c-.755.483-3.018.523-4.443.483l-.88-.725c.587-1.128 1.844-3.342 2.682-3.866 1.132-.725 2.641-.402 3.353.725.755 1.168.42 2.658-.712 3.383z" fill="#F25000"/><path d="M31.268 148.711l-.335.282c-.755-1.087-1.928-2.899-2.012-3.785-.126-1.329.838-2.537 2.18-2.658h.293a2.41 2.41 0 0 1 2.389 2.175c.084.886-.922 2.98-1.593 4.228l-.293-.242a.47.47 0 0 0-.63 0zM50.506 144l-5.071.121 3.06-3.544h4.903L50.506 144zm-32.316-.081l-5.574-.523-2.473-2.738 5.24-.121 2.807 3.382z" fill="#F25000"/><path d="M31.142 142.51h-.252v-3.705h.462v3.705h-.21z" fill="#2240F0"/><path d="M25.484 142.309h-1.928v-1.772l.377-.524h1.55v2.296zm16.263-.604h-1.97v-2.255h1.592l.378.362v1.893z" fill="#F25000"/><path d="M23.555 140.537h-1.55v-1.893l.335-.362h1.593v1.732l-.378.523zm19.742-.725h-1.55l-.378-.362v-1.933h1.551l.377.523v1.772z" fill="#F25000"/><path d="M30.89 138.846h-2.472l2.473-1.651v1.651z" fill="#1938EF"/><path d="M31.352 138.846h-.462v-1.651l.21-.121.252.161v1.611z" fill="#2240F0"/><path d="M33.825 138.846h-2.473v-1.611l2.473 1.611z" fill="#1938EF"/><path d="M22.005 138.644h-1.593v-2.295h1.928v1.933l-.335.362zm22.843-.604h-1.55l-.378-.523v-1.772h1.928v2.295z" fill="#F25000"/><path d="M31.352 137.235l-.252-.161-.21.121v-.765h.462v.805z" fill="#2240F0"/><path d="M30.89 136.43h-2.43l2.43-1.611v1.611z" fill="#1938EF"/><path d="M31.352 136.43h-.462v-1.611l.252-.161.21.161v1.611z" fill="#2240F0"/><path d="M33.866 136.43h-2.515v-1.611l2.515 1.611z" fill="#1938EF"/><path d="M40.195 133.047l-3.06 2.778v-5.194l2.725-2.094.335 4.51z" fill="#F25000"/><path d="M30.89 134.819v-.806h.462v.806l-.21-.161-.252.161z" fill="#2240F0"/><path d="M30.89 134.014h-2.43l2.43-1.732v1.732z" fill="#1938EF"/><path d="M31.352 134.013h-.462v-1.731l.252-.161.21.161v1.731z" fill="#2240F0"/><path d="M33.866 134.014h-2.515v-1.732l2.515 1.732z" fill="#1938EF"/><path d="M25.232 133.852l-2.766-2.416-.335-3.825 2.766 2.98.335 3.261z" fill="#F25000"/><path d="M30.89 132.282v-.846h.462v.846l-.21-.161-.252.161z" fill="#2240F0"/><path d="M30.89 131.436h-2.682l2.683-1.611v1.611z" fill="#1938EF"/><path d="M31.352 131.436h-.462v-1.611l.21-.08.252.161v1.53z" fill="#2240F0"/><path d="M33.615 131.436H31.35v-1.53l2.264 1.53z" fill="#1938EF"/><path d="M31.352 129.906l-.252-.161h.252v.161zm-.462-.08v-.081h.21l-.21.081z" fill="#2240F0"/><path fill-rule="evenodd" clip-rule="evenodd" d="M56.025 149.717l-4.08 4.468-10.535.274 5.757 7.167-1.013 5.206h-5.166l-4.733-4.585v8.495l-4.994 4.715-4.562-4.72v-8.872l-2.056 2.553-1.949 2.414h-6.98l.088-6.2 6.106-6.444H10.65l-4.835-4.054 4.824-4.845h11.133l-5.057-7.035.532-4.603h6.071l3.38 3.948v-8.228l5.08-4.25 4.476 4.258v9.064l4.856-4.627 5.871-.255.089 5.598-5.337 6.13h10.208l4.083 4.428zm-.559.002l-3.713-4.028H40.837l5.812-6.676-.08-5.033-5.278.229-5.455 5.198v-9.862l-4.074-3.876-4.644 3.884v9.168l-3.997-4.669h-5.497l-.474 4.095 5.422 7.542H10.819l-4.397 4.417 4.386 3.677h12.048l-6.637 7.005-.08 5.64h6.35l1.823-2.258 2.806-3.486v9.893l4.157 4.3 4.561-4.306v-9.304l5.327 5.161h4.643l.914-4.701-6.146-7.651 11.176-.29 3.716-4.069z" fill="#fff"/><path fill-rule="evenodd" clip-rule="evenodd" d="M53.834 159.544h-6.49l-3.172-3.944 6.351-.044 3.311 3.988zm-3.512-3.584l-5.3.037 2.528 3.144h5.413l-2.64-3.181zm3.516-15.584l-3.23 3.823-5.629.134 3.417-3.957h5.442zm-.88.403h-4.365l-2.703 3.13 4.514-.108 2.554-3.022zm-12.546-7.651l-3.486 3.165v-5.759l3.115-2.394.37 4.988zm-.732-4.194l-2.335 1.794v4.63l2.634-2.392-.3-4.032zm-14.186 5.419l-3.23-2.821-.395-4.505 3.23 3.479.395 3.847zm-.8-3.677l-2.302-2.481.276 3.146 2.302 2.01-.275-2.675zm-6.03 13.49l-6.151-.577-2.82-3.122 5.788-.134 3.183 3.833zm-3.38-3.425l-4.69.108 2.126 2.354 4.998.47-2.434-2.932zm3.936 14.373l-3.569 3.654-6.824.842 4.07-4.496h6.322zm-.969.403h-5.163l-3.222 3.558 5.582-.688 2.803-2.87zm7.191 8.691v4.909l-3.06 3.733v-4.349l.959-1.339v-.001l2.1-2.953zm-.42 1.303l-1.335 1.878-.886 1.238v3.061l2.222-2.711v-3.466zm15.048 2.17v5.1l-3.144-3.252v-5.193l3.144 3.345zm-.42.155l-2.305-2.453v3.988l2.306 2.385v-3.92z" fill="#fff"/><path fill-rule="evenodd" clip-rule="evenodd" d="M60.024 137.979l-5.775 6.517 5.294 5.207-5.336 5.655 5.755 7.636-9.998-.522-.918 6.696h-4.827v10.854l-7.053-6.864-5.666 6.29-6.236-6.273-5.032 5.792-.422-9.279-6.584-.041-.294-7.529-9.864-.042 3.527-6.429-6.364-5.618 6.726-5.639-4.044-6.994h10.5v-6.805h6.018l-.28-10.223 6.136 6.672 6.91-5.874 4.995 5.284 7.027-5.743v9.884h6.36l.127 7.257 9.318.131zm-2.627 23.671l-4.807-6.377 5.226-5.539-5.268-5.182 4.787-5.403-7.866-.111-.126-7.239h-6.381v-8.479l-5.882 4.808-4.98-5.267-6.922 5.885-4.679-5.087.223 8.14H14.67v6.805H5.05l3.5 6.053-6.434 5.395 6.043 5.335-3.012 5.49 8.997.038.293 7.532 6.577.04.333 7.312 3.854-4.437 6.253 6.291 5.651-6.274 5.857 5.7v-9.119h4.981l.926-6.754 8.528.444z" fill="#fff"/><path fill-rule="evenodd" clip-rule="evenodd" d="M50.216 150.121l-.279.268-2.7 2.27v-5.028l2.615 2.141.364.349zm-.595-.002l-1.965 1.652v-3.268l1.912 1.565.053.051zm3.69-.019l-2.72 2.367v-5.094l2.376 2.331.344.396zm-.655-.126l-1.647-1.615v3.2l1.723-1.498-.076-.087zm-5.694.202l-.315.152-2.553 2.36v-5.08l2.45 2.166.418.402zm-.672-.077l-.036-.034-1.741-1.539v3.216l1.777-1.643zm-2.471.037l-.315.151-2.512 2.367v-5.093l2.451 2.214.376.361zm-.672-.076l-1.736-1.568v3.203l1.736-1.635zm-8.526 16.249l-2.685 1.935-.583.407-3.423-2.342h6.691zm-1.257.403H29.24l2.11 1.443.337-.236 1.676-1.207zm1.65 2.134l-3.099 1.867-.243.117-.276.198-3.17-2.182h6.788zm-1.457.402H29.53l1.86 1.281.06-.043.259-.125 1.847-1.113zm1.106-5.355l-2.734 1.819-.579.353-3.47-2.172h6.783zm-1.342.403h-4.03l2.062 1.29.344-.21 1.624-1.08zm1.379-2.819l-2.773 1.86-.475.274h-.163l-3.358-2.134h6.77zm-1.332.402h-4.044l2.053 1.305.322-.185 1.67-1.12zm-18.069-14.341v5.03l-2.526-2.053-.465-.383.332-.319 2.659-2.275zm-.42.898l-1.951 1.67-.003.003.121.101 1.834 1.49v-3.264zm-2.933-.708v5.149l-2.33-2.333-.404-.389 2.734-2.427zm-.42.92l-1.709 1.519.1.096 1.61 1.612v-3.227zm6.874-1.141v5.091l-2.319-2.086-.462-.38.33-.316 2.451-2.309zm-.419.959l-1.739 1.637-.006.006.125.103 1.62 1.458v-3.204zm3.563-.918v5.091l-2.36-2.125-.424-.339.332-.319 2.452-2.308zm-.42.958l-1.738 1.637-.005.005.08.064 1.664 1.498v-3.204zm13.395-14.291h-6.694l2.945-2.098.383-.245.325.25 3.04 2.093zm-1.305-.403l-1.99-1.369-.093-.073-.12.077-1.917 1.365h4.12zm1.063-2.174h-6.8l3.318-1.993.33-.126.347.222 2.805 1.897zm-3.044-1.566l-.157-.101-.09.035-2.047 1.229h4.014l-1.72-1.163zm3.326 6.559h-6.772l2.987-1.98.38-.243.321.248 3.084 1.975zm-1.385-.403l-1.946-1.247-.097-.074-.123.078-1.875 1.243h4.041zm1.333 2.819H27.75l3.028-2.021.33-.19.362.232 3.038 1.979zm-3.272-1.645l-.14-.09-.09.052-1.918 1.28h4.055l-1.907-1.242z" fill="#2240F0"/><path fill-rule="evenodd" clip-rule="evenodd" d="M37.397 149.027c1.031-.66 1.308-2.028.65-3.07-.652-1.03-2.026-1.323-3.058-.662l-.002.002c-.18.112-.399.327-.64.622-.239.291-.488.645-.732 1.022a27.306 27.306 0 0 0-1.238 2.143l-.193.372.021.001c.212.01.513.02.865.02h.006c.709.02 1.623.02 2.45-.045a9.02 9.02 0 0 0 1.13-.149c.333-.069.585-.156.74-.256zm-5.542.611l-.188-.09v-.001l.001-.001v-.002h.001v-.001l.001-.001v-.001l.001-.001v-.001l.001-.001.003-.006.001-.001v-.002h.001l.007-.013v-.001l.001-.002v-.001l.001-.001.001-.002.008-.014v-.002l.008-.014.3-.576c.295-.567.759-1.408 1.256-2.175.248-.384.507-.752.758-1.059.249-.302.501-.56.74-.709 1.232-.788 2.874-.436 3.648.788.766 1.213.456 2.825-.776 3.614-.221.142-.535.242-.883.315a9.722 9.722 0 0 1-1.186.156c-.848.067-1.777.067-2.493.046a19.349 19.349 0 0 1-1.137-.034l-.068-.005-.018-.001h-.005l-.001-.001.017-.2zm0 0l-.018.2-.308-.024.138-.266.188.09z" fill="#fff"/><path fill-rule="evenodd" clip-rule="evenodd" d="M38.245 153.338a2.191 2.191 0 0 0-1.032-2.955l-.003-.002c-.161-.077-.4-.141-.7-.189a9.356 9.356 0 0 0-1.008-.097 21.75 21.75 0 0 0-2.209.025l-.003.001a111.345 111.345 0 0 0-1.145.061c.088.164.21.391.354.647.355.601.853 1.399 1.366 2.095.257.349.514.669.757.924.246.26.464.439.638.522l.002.002c1.103.547 2.444.077 2.983-1.034zM31.813 150l-.014-.201.029-.002.083-.005.308-.018c.263-.015.63-.035 1.05-.056.675-.04 1.5-.06 2.253-.025.377.018.74.05 1.058.102.315.05.6.122.816.226a2.587 2.587 0 0 1 1.23 3.487c-.634 1.304-2.227 1.881-3.555 1.222-.245-.118-.504-.342-.759-.61a10.317 10.317 0 0 1-.79-.963 26.434 26.434 0 0 1-1.388-2.132l-.003-.003a40.401 40.401 0 0 1-.363-.663l-.105-.197-.028-.053-.007-.014-.002-.005.187-.09zm0 0l-.187.09-.141-.271.314-.02.014.201z" fill="#fff"/><path fill-rule="evenodd" clip-rule="evenodd" d="M32.012 157.128c1.219-.115 2.138-1.18 2.023-2.398-.018-.193-.094-.446-.217-.744a9.772 9.772 0 0 0-.472-.962 27.681 27.681 0 0 0-1.207-1.948l-.001-.003c-.208-.32-.385-.58-.51-.76l-.012.022c-.11.203-.268.485-.457.808-.335.623-.75 1.411-1.07 2.151a8.762 8.762 0 0 0-.386 1.04c-.091.318-.13.577-.113.762v.005c.077 1.104.954 1.912 1.983 2.027h.44zm-.237-7.324l.004.005.01.015.04.055.148.211c.126.182.305.445.516.769a28.01 28.01 0 0 1 1.223 1.977c.191.346.362.687.492 1.001.128.311.22.607.244.856.136 1.437-.951 2.705-2.41 2.837l-.01.001h-.482l-.012-.002c-1.229-.131-2.273-1.092-2.365-2.399-.024-.257.031-.571.126-.903.096-.336.238-.708.403-1.088.328-.758.75-1.56 1.086-2.184l.002-.003.002-.003c.187-.321.343-.601.453-.801l.126-.234a6.69 6.69 0 0 1 .034-.063l.008-.016.003-.005.157-.303.202.277z" fill="#fff"/><path fill-rule="evenodd" clip-rule="evenodd" d="M31.367 150.041h-.002l-.006-.001-.02-.001-.08-.005-.297-.014a26.58 26.58 0 0 0-3.561.101c-.077.001-.15.013-.206.022l-.006.001c-.066.01-.112.017-.154.017h-.015l-.015.002c-.589.081-1.093.206-1.43.436-1.23.79-1.54 2.403-.728 3.617.818 1.224 2.46 1.53 3.687.743l.004-.002.003-.002c.214-.149.444-.394.672-.683.232-.292.471-.64.704-1.006.465-.732.909-1.543 1.204-2.131l.002-.004c.124-.258.228-.457.3-.59l.083-.151.021-.037.005-.009.002-.002.165-.278-.332-.023zm-.624.92c.107-.222.2-.402.27-.536l-.068-.002c-.25-.01-.602-.02-1.018-.02-.748 0-1.663.04-2.494.119l-.01.001h-.011a.965.965 0 0 0-.154.018l-.006.001c-.055.009-.126.02-.201.022-.576.08-.988.195-1.236.365l-.002.002-.003.002c-1.031.66-1.307 2.025-.61 3.066.689 1.03 2.063 1.288 3.098.628.163-.114.361-.32.582-.599.22-.277.451-.613.68-.972.456-.717.892-1.516 1.183-2.095z" fill="#fff"/><path fill-rule="evenodd" clip-rule="evenodd" d="M31.38 150.039l-.028-.2.187-.09.131.252-.29.038zm-1.484.122c.423-.021.793-.051 1.057-.076.133-.013.239-.025.312-.033l.084-.01.022-.002.006-.001h.002l-.027-.2.187-.09v-.001l-.002-.003-.006-.012-.024-.044a19.922 19.922 0 0 0-.435-.757 29.41 29.41 0 0 0-1.415-2.134 10.36 10.36 0 0 0-.817-.987c-.265-.276-.536-.506-.793-.623-1.323-.614-2.916-.044-3.509 1.266-.633 1.307-.045 2.874 1.274 3.486l.003.001.003.001c.42.18 1.119.249 1.85.269.742.021 1.555-.01 2.228-.05zm1.128-.488l-.112.011c-.26.025-.623.055-1.038.075h-.002c-.668.04-1.468.07-2.192.05-.734-.02-1.354-.091-1.69-.233-1.108-.517-1.61-1.846-1.07-2.954l.002-.005c.497-1.104 1.836-1.58 2.944-1.067v.001c.183.084.41.267.666.533.253.263.52.591.784.947a29.345 29.345 0 0 1 1.708 2.642z" fill="#fff"/><path fill-rule="evenodd" clip-rule="evenodd" d="M33.532 144.703a2.204 2.204 0 0 0-2.18-1.991h-.029l-.012.001-.04.039h-.16c-1.21.114-2.098 1.211-1.982 2.438.018.191.098.448.229.754.13.302.304.639.5.985a27.36 27.36 0 0 0 1.249 1.953l.002.003c.186.278.351.507.47.665l.002-.003c.098-.174.232-.422.377-.719l.002-.004.002-.003c.333-.621.749-1.45 1.07-2.232.16-.391.297-.767.387-1.097.091-.334.13-.603.113-.789zm-1.929 5.217l-.165.123-.002-.001-.002-.004-.01-.013a16.235 16.235 0 0 1-.666-.921 27.785 27.785 0 0 1-1.267-1.982 10.521 10.521 0 0 1-.52-1.025c-.137-.317-.235-.619-.26-.871-.134-1.427.902-2.744 2.37-2.876l.01-.001h.032a.393.393 0 0 1 .11-.032c.05-.008.095-.008.116-.008h.003a2.617 2.617 0 0 1 2.597 2.356v.001c.025.258-.03.582-.125.929-.096.351-.238.743-.402 1.142-.328.797-.75 1.638-1.086 2.265a14.09 14.09 0 0 1-.507.945l-.034.056-.009.015-.002.004-.001.001-.18-.103zm0 0l.18.103-.158.252-.187-.232.165-.123z" fill="#fff"/><path fill-rule="evenodd" clip-rule="evenodd" d="M33.01 150.135c.032-.034.042-.075.029-.111l-.01-.031v-.029l-.002-.001a.946.946 0 0 0-.021-.022l-.078-.075-.88-.725-.043-.04-.28-.232a.308.308 0 0 0-.326 0l-.323.272-.043.04-.947.787-.024.011-.01.005v.023l-.015.03a.693.693 0 0 0 .02.046l.053.05.898.713h.045l.388.326a.305.305 0 0 0 .323 0l.414-.357.832-.68zm.436-.209a.502.502 0 0 1-.144.498l-.006.006-.842.688-.424.367-.008.005a.735.735 0 0 1-.838 0l-.006-.004-.282-.237h-.039l-1.03-.818-.115-.11-.015-.029a.36.36 0 0 1-.061-.377.327.327 0 0 1 .075-.176.44.44 0 0 1 .139-.108l.898-.745.041-.04.347-.291.006-.004a.735.735 0 0 1 .838 0l.006.003.304.251.042.041.88.725.09.086.004.003a.403.403 0 0 1 .14.266zm11.612-14.382v2.698h-1.551v1.772h-1.551v1.892h-2.39v-2.658h1.594v-1.932h1.55v-1.772h2.348zm-.42.402H43.13v1.772h-1.551v1.893h1.509v-1.772h1.55v-1.893zm-3.101 3.705h-1.551v1.852h1.55v-1.852zm2.305 21.503v2.698h-2.389v-1.771h-1.55v-1.893h-1.551v-2.698h2.347v1.933h1.593v1.731h1.55zm-.419.403h-1.55v-1.731h-1.551v1.852h1.55v1.772h1.551v-1.893zm-3.143-1.772v-1.892h-1.51v1.892h1.51zm-14.587-19.973v2.698h-2.347v-1.772h-1.55v-1.892h-1.593v-2.698h2.347v1.933h1.592v1.731h1.551zm-.419.403h-1.55v-1.732h-1.51v1.853h1.551v1.771h1.51v-1.892zm-3.143-1.772v-1.893h-1.51v1.893h1.51zm3.562 18.443v2.698h-1.55v1.772H22.55v1.892h-2.347v-2.657h1.592v-1.933h1.551v-1.772h2.347zm-.419.403h-1.509v1.771h-1.55v1.893h1.508v-1.772h1.551v-1.892zm-3.143 3.704h-1.51v1.853h1.51v-1.853z" fill="#fff"/><path d="M29.507 149.396l1.551-1.49a.704.704 0 0 1 1.006 0l1.55 1.49c.294.282.294.685 0 .967l-1.55 1.49a.706.706 0 0 1-1.006 0l-1.55-1.49c-.252-.242-.252-.685 0-.967z" fill="#003E89"/><path fill-rule="evenodd" clip-rule="evenodd" d="M33.467 150.22c.211-.203.211-.478 0-.682l-1.551-1.489a.488.488 0 0 0-.71 0l-1.544 1.484c-.185.212-.17.531-.007.687l1.551 1.49a.49.49 0 0 0 .71 0l1.55-1.49zm.296-.966c.375.36.375.89 0 1.251l-1.55 1.49a.92.92 0 0 1-1.303 0l-1.551-1.49c-.339-.326-.324-.889-.01-1.24l.004-.006 1.557-1.495a.918.918 0 0 1 1.302 0l1.551 1.49z" fill="#FCFCFC"/></g><defs><clipPath id="a"><path fill="#fff" transform="rotate(90 60 60)" d="M0 0h180v120H0z"/></clipPath></defs></svg>