<svg width="64" height="96" viewBox="0 0 64 96" fill="none" xmlns="http://www.w3.org/2000/svg"><g clip-path="url(#a)"><path d="M31.989 64.107V32.193H.112v31.914h31.877z" fill="#1938EF"/><path d="M31.989 96V64.086H.112V96h31.877z" fill="#F35C12"/><path d="M31.989 32.086V.172H.112v31.914h31.877z" fill="#fff"/><path d="M63.866 95.914V64H31.989v31.914h31.877z" fill="#FBC631"/><path d="M63.866 32V.086H31.989V32h31.877z" fill="#1938EF"/><path d="M23.226 31.248l-3.465-3.35-3.04 3.35-3.353-3.35-2.392 2.727v-4.703l-3.71.258-.403-4.016-4.806-.043L3.8 18.964l-3.286-2.9 3.532-2.942-2.012-3.48h5.388V6.014h3.219l-.134-4.918 2.883 3.136 3.711-3.136 2.66 2.814 3.465-2.814v4.918h3.398l.067 3.866 4.605.065-2.817 3.178 2.817 2.77-2.817 2.986 2.817 3.715-4.963-.258-.47 3.587h-2.615v5.326h-.022zm-8.942-4.21l2.348 2.406 2.57-2.405v-4.725l1.744 2.04 3.219.408.47-2.963-3.108-3.63h6.125l2.08-2.277-2.102-2.255h-5.656l3.13-3.436-.179-2.792-3.532.322-2.213 2.427v-5.09l-2.526-1.911-2.392 1.911v4.64l-1.967-2.299H9.232l-.268 2.298 2.817 3.887H5.656l-2.482 2.47 2.482 2.062h6.237l-3.398 3.715.223 2.878 3.443-.343 2.146-2.363v5.026h-.023zm5.5-.643l1.453 1.481v-2.405l-1.453-1.525v2.448zm-7.802-.473v1.976L13.39 26.2v-2.233l-1.408 1.954zm13.055-4.897h3.442l-1.788-2.147h-3.465l1.81 2.147zm-20.141 0l3.33-.408 1.7-1.74H6.84l-1.944 2.148zm18.33-7.903h3.465l1.788-1.74h-3.442l-1.811 1.74zm-16.72-.344h3.397l-1.699-1.74H5.298l1.207 1.74zm13.277-7.065v2.77l1.453-1.568v-2.32l-1.453 1.118zm-7.801.816l1.408.902V5.54l-1.833-1.654.425 2.642z" fill="#F25000"/><path d="M16.632 29.444l-2.348-2.405v-4.983l-2.146 2.363-3.442.343-.224-2.878 3.398-3.715H5.633l-2.48-2.062 2.48-2.47h6.125L8.942 9.75l.29-2.32h3.108l1.967 2.299v-4.66l2.392-1.912 2.526 1.911v5.069l2.213-2.427 3.532-.322.179 2.792-3.13 3.436h5.656l2.1 2.255-2.1 2.255h-6.126l3.108 3.63-.47 2.963-3.219-.408-1.743-2.04v4.725l-2.593 2.448zm.067-2.34l1.542-.924h-1.453v-.451l1.297-.924h-1.297v-.43l1.297-.858h-1.297v-.408l1.319-.86h-1.319v-2.297h-.246v2.32h-1.319l1.32.837v.45H15.2l1.341.86v.43H15.2l1.341.923v.43h-1.207l1.364.901zm5.499-3.802h1.05v-1.224h-.827v-.945h-.85v-1.031h-1.05v1.224h.85v1.01h.827v.966zm-11.379-.3h1.051V21.97h.85v-.945h.827v-1.224h-1.05v.945h-.828v1.031h-.85v1.224zm4.784-4.232a1.305 1.305 0 0 0 1.409 1.182c.715-.065 1.252-.688 1.184-1.396-.044-.451-.626-1.396-1.028-1.998l.023-.021c.38.644 1.073 1.718 1.52 1.933.648.3 1.43.043 1.743-.602.313-.644.045-1.396-.603-1.718h2.079v1.031l1.117-1.03h.56v1.052l1.14-1.053h.558v1.053l1.23-1.031h.558v.923l1.207-1.03-1.207-1.182V16h-.58l-1.208-.988V16h-.559l-1.117-.988V16h-.537l-1.14-1.01V16h-2.437l.09.064c-.492-.107-1.297-.107-1.9-.064a.16.16 0 0 0-.045-.086l-.045-.043c.76.021 1.967-.021 2.37-.258a1.295 1.295 0 0 0 .402-1.782c-.38-.601-1.207-.773-1.81-.387-.448.28-1.118 1.46-1.431 2.062l-.023-.021c.358-.666.895-1.783.85-2.255a1.286 1.286 0 0 0-1.274-1.16v-1.976h1.319l-1.32-.838v-.45h1.342l-1.341-.86v-.43h1.34l-1.34-.923v-.43h1.207l-1.341-.923-1.543.924h1.453v.43l-1.296.923h1.296v.43l-1.296.858h1.296v.408l-1.319.86h1.32v1.975h.133-.044a1.295 1.295 0 0 0-1.163 1.418c.045.472.67 1.439 1.095 2.019l-.022.021c-.38-.623-1.118-1.74-1.587-1.954a1.328 1.328 0 0 0-1.744.622 1.283 1.283 0 0 0 .626 1.719c.112.042.246.085.425.107h-2.861v-1.01L10.238 16h-.58v-1.03L8.538 16H7.98v-1.03L6.773 16h-.558v-.924l-1.208 1.031 1.208 1.181v-1.116h.58l1.208.988v-.988h.559l1.117.988v-.988h.537l1.14 1.01v-1.01h3.264v.021c-.403.043-.76.13-.94.236a1.268 1.268 0 0 0-.357 1.783 1.317 1.317 0 0 0 1.81.365c.426-.28 1.03-1.374 1.364-1.997l.023.021c-.425.645-.961 1.697-.917 2.17zm-3.107-6.85h1.05v-1.225h-.826V9.75h-.85V8.72h-1.05v1.224h.849v1.03h.827v.945zm8.696-.301h1.05v-1.031h.85v-.945h.827V8.419h-1.05v.945h-.828v1.01h-.85v1.245z" fill="#1938EF"/><path d="M21.236 27.898l-1.453-1.503v-2.427l1.453 1.525v2.405zm-9.254 0v-1.976l1.408-1.954V26.2l-1.408 1.697zm6.259-1.718l-1.542.923-1.342-.923h1.185v.622h.246v-.622h1.453z" fill="#FBC733"/><path d="M16.788 26.802v-.622h-.246v.622h.246zm0-.622h-.246v-.43l.134.086.112-.086v.43z" fill="#FBC733"/><path d="M16.788 25.75l-.112.086-.134-.086v-.923h.246v.923z" fill="#FBC733"/><path d="M16.543 25.75l-1.342-.923h1.341v.923zm1.541-.923l-1.296.923v-.923h1.296zm-1.296 0h-.246v-.43l.134.065.112-.065v.43z" fill="#FBC733"/><path d="M16.788 24.397l-.112.065-.134-.065v-.859h.246v.86z" fill="#FBC733"/><path d="M16.543 24.397l-1.342-.859h1.341v.86zm1.541-.859l-1.296.86v-.86h1.296z" fill="#FBC733"/><path d="M16.788 23.538h-.246v-.45l.157.107.09-.065v.408z" fill="#FBC733"/><path d="M23.248 23.302h-1.05v-.945l.223-.258h.827v1.203z" fill="#EAE6E5"/><path d="M16.788 23.13l-.09.065-.156-.108v-.837h.246v.88zm1.342-.88l-1.342.88v-.88h1.341z" fill="#FBC733"/><path d="M16.543 23.087l-1.32-.837h1.32v.837z" fill="#FBC733"/><path d="M11.87 23.001h-1.05v-1.224h.849l.201.193v1.031zm10.328-.644h-.827v-1.01l.2-.193h.85v.945l-.223.258z" fill="#EAE6E5"/><path d="M16.788 22.271v-2.32h-.246v2.32h.246z" fill="#FBC733"/><path d="M12.697 21.97h-.827l-.201-.193v-1.01h.827l.201.259v.945zm8.673-.622h-.849v-1.224h1.05v1.03l-.2.194zm-7.846-.323h-.827l-.2-.257v-.945h1.027v1.202z" fill="#EAE6E5"/><path d="M28.48 21.026h-3.443l-1.81-2.148h3.464l1.789 2.148zm-20.254-.409l-3.33.409 1.944-2.148h3.085l-1.699 1.74z" fill="#FBC733"/><path d="M17.011 19.93a1.305 1.305 0 0 1-1.408-1.181c-.045-.473.492-1.503.85-2.17l.178.151c.09.065.224.065.313 0l.246-.193c.403.601.984 1.525 1.028 1.997a1.31 1.31 0 0 1-1.207 1.396z" fill="#F25000"/><path d="M15.089 18.577a1.317 1.317 0 0 1-1.81-.365 1.264 1.264 0 0 1 .357-1.783c.179-.128.537-.193.939-.236a13.89 13.89 0 0 1 1.319-.064c0 .021.022.021.044.043l.515.408c-.336.623-.94 1.718-1.364 1.997zm5.365-.709a1.3 1.3 0 0 1-1.743.602c-.447-.215-1.14-1.289-1.52-1.933l.447-.365c.067-.043.067-.108.044-.172.604-.021 1.409-.043 1.9.064l.09.086h.156c.671.301.94 1.074.626 1.718z" fill="#F25000"/><path d="M6.17 17.288l-1.207-1.18 1.207-1.032V16h-.805v.172h.805v1.116zm20.342-1.116l-1.23 1.052v-1.052h1.23zm-2.906 1.052v-1.052h1.14l-1.14 1.052zm-12.295-.021l-1.14-1.031h1.14v1.03zm10.619 0V16.15l1.117.022-1.117 1.03zm-12.295-.022l-1.118-1.01h1.118v1.01zm-1.677 0l-1.207-1.01h1.207v1.01zm20.32-1.117l-1.207 1.031v-.923h.827V16h-.827v-1.117l1.207 1.181z" fill="#FBC733"/><path d="M16.944 16.73a.278.278 0 0 1-.313 0l-.178-.15c.2-.344.335-.601.335-.601s.156.236.38.558l-.224.193z" fill="#FABB9C"/><path d="M16.453 16.601a7.25 7.25 0 0 0 .2-.45s-.334-.022-.76-.022c-.022-.043-.044-.086-.022-.13.47-.02.805-.064.805-.064s-.09-.171-.268-.43l.022-.02c.201.3.358.493.358.493.022.022-.134.258-.335.623z" fill="#FABB9C"/><path d="M16.453 16.58l-.514-.408-.045-.043c.447 0 .76.021.76.021s-.067.172-.201.43zm.737-.043c-.223-.322-.402-.537-.402-.537s.134-.215.29-.516l.023.022c-.112.215-.179.365-.179.365s.268.021.648.021l.045.043c.022.022.045.043.045.086-.447.022-.783.043-.783.043s.157.172.313.473z" fill="#FABB9C"/><path d="M17.638 16.172l-.448.365c-.178-.3-.29-.494-.29-.494s.335-.021.782-.043c.045.043.023.129-.044.172z" fill="#FABB9C"/><path d="M14.575 16.193v-.172c.425.022.917 0 1.297-.021-.023.043 0 .086.022.129-.38 0-.872.021-1.319.064z" fill="#1938EF"/><path d="M6.17 16.193V16h-.805v.193h.805zm.581-.021H6.17V16h.581l-.112.086.112.086z" fill="#FBC733"/><path d="M7.958 16.172H6.751l-.112-.086.112-.086h1.207v.172z" fill="#FBC733"/><path d="M8.517 16.172h-.559V16h.56l-.113.086.112.086z" fill="#FBC733"/><path d="M9.635 16.172H8.517l-.112-.086.112-.086h1.118v.172zm.536 0h-.536V16h.58l-.111.107.067.065z" fill="#FBC733"/><path d="M11.311 16.172h-1.14l-.067-.065.112-.107h1.095v.172zm3.264 0h-3.263v-.194h2.86c.113.022.27.022.403.043v.15zm13.323 0h-.827V16h.827v.172z" fill="#FBC733"/><path d="M27.07 16.172h-.558l.112-.086-.112-.086h.559v.172z" fill="#FBC733"/><path d="M26.512 16.172h-1.23V16h1.23l.112.086-.112.086z" fill="#FBC733"/><path d="M25.283 16.172h-.537l.09-.086-.112-.086h.559v.172z" fill="#FBC733"/><path d="M24.835 16.086l-.089.086h-1.14V16h1.118l.111.086zm-1.229.086h-.559l.112-.108-.09-.064h.537v.172z" fill="#FBC733"/><path d="M23.047 16.172l-1.117-.022V16h1.14l.09.064-.113.108zm-1.117-.022h-2.08c-.066-.021-.156-.064-.245-.086l-.09-.064h2.415v.15z" fill="#FBC733"/><path d="M19.85 16.15h-.156l-.09-.086c.09.022.18.043.247.086z" fill="#FBC733"/><path d="M15.894 16c-.402.021-.894.043-1.297.021v-.043h-.402a1.709 1.709 0 0 1-.425-.107 1.283 1.283 0 0 1-.626-1.718 1.32 1.32 0 0 1 1.744-.623c.47.215 1.185 1.332 1.587 1.955l-.492.408c-.067.042-.09.085-.09.107z" fill="#F25000"/><path d="M14.575 16v.043a2.28 2.28 0 0 1-.402-.043h.402zm-6.617 0H6.751l1.207-1.031v1.03zm1.677 0H8.517l1.118-1.031v1.03zm1.676 0h-1.095l1.095-1.01V16zm11.759 0h-1.14v-1.01L23.07 16zm1.654 0h-1.118v-1.01L24.724 16zm1.788 0h-1.23v-1.01l1.23 1.01z" fill="#FBC733"/><path d="M16.699 15.935s-.336.043-.805.065c0-.043.022-.065.067-.108l.492-.408c.134.28.246.451.246.451z" fill="#FABB9C"/><path d="M19.962 15.592c-.402.258-1.609.279-2.37.258l-.468-.387c.313-.601.983-1.761 1.43-2.062a1.323 1.323 0 0 1 1.81.387c.38.623.224 1.417-.402 1.804z" fill="#F25000"/><path d="M17.123 15.484l.47.387c-.38 0-.648-.021-.648-.021s.067-.15.178-.366zm-.313.494s-.156-.193-.357-.494l.179-.15a.277.277 0 0 1 .313 0l.156.129c-.179.3-.29.515-.29.515z" fill="#FABB9C"/><path d="M16.632 15.334l-.18.15c-.424-.58-1.05-1.546-1.095-2.018a1.295 1.295 0 0 1 1.163-1.418h.156c.649 0 1.207.494 1.275 1.16.044.473-.492 1.59-.85 2.255l-.156-.129a.278.278 0 0 0-.313 0z" fill="#F25000"/><path d="M26.691 13.122h-3.465l1.81-1.74h3.444l-1.789 1.74zm-16.766-.344h-3.42l-1.185-1.74h2.906l1.7 1.74zm6.639-.73h-.134v-1.976h.246v1.976h-.111z" fill="#FBC733"/><path d="M13.524 11.92h-1.028v-.924l.201-.28h.827v1.204zm8.696-.301h-1.028v-1.224h.85l.178.193v1.03z" fill="#EAE6E5"/><path d="M12.496 10.996h-.827V9.965l.201-.193h.827v.945l-.2.279zm10.574-.408h-.85l-.178-.194V9.385h.827l.2.258v.945z" fill="#EAE6E5"/><path d="M16.43 10.072h-1.318l1.319-.859v.86z" fill="#FBC733"/><path d="M16.676 10.072h-.246v-.859l.09-.064.156.086v.837zm1.319 0h-1.319v-.837l1.32.837z" fill="#FBC733"/><path d="M11.669 9.965h-.85V8.762h1.051v1.01l-.201.193zm12.25-.322h-.85l-.2-.258V8.44h1.05v1.203z" fill="#EAE6E5"/><path d="M16.676 9.235l-.156-.086-.09.064v-.43h.246v.452z" fill="#FBC733"/><path d="M16.43 8.784h-1.296l1.297-.838v.838z" fill="#FBC733"/><path d="M16.676 8.784h-.246v-.838l.134-.086.112.086v.838zm1.342 0h-1.342v-.838l1.342.838zm1.765-.301v-2.77l1.453-1.117v2.32l-1.453 1.567z" fill="#FBC733"/><path d="M16.43 7.946v-.43h.246v.43l-.111-.086-.135.086z" fill="#FBC733"/><path d="M16.43 7.517h-1.296l1.297-.945v.945z" fill="#FBC733"/><path d="M16.676 7.517h-.246v-.945l.134-.086.112.086v.945zm1.342 0h-1.342v-.945l1.342.945zM13.39 7.43l-1.408-.901-.425-2.642 1.833 1.654v1.89z" fill="#FBC733"/><path d="M16.564 6.486l-.134.086v-.43h.246v.43l-.111-.086z" fill="#FBC733"/><path d="M16.43 6.142h-1.453l1.543-.923 1.363.923h-1.207V5.52h-.246v.623z" fill="#FBC733"/><path d="M16.676 6.142V5.52h-.246v.623h.246z" fill="#FBC733"/><path fill-rule="evenodd" clip-rule="evenodd" d="M29.88 15.893l-2.2 2.362h-5.94l2.99 3.512-.47 3.093-3.372-.404-1.574-1.842v4.47l-2.686 2.514-2.456-2.517v-4.738l-1.979 2.178-3.624.337-.212-3.032 3.266-3.571H5.59l-2.6-2.162 2.597-2.563h5.959l-2.72-3.774.308-2.433h3.237l1.802 2.106V5.018l2.502-2 2.64 1.998v4.835l2.046-2.244 3.692-.337.188 2.969-2.997 3.291h5.437l2.2 2.363zm-.3 0l-2-2.148h-5.83l3.262-3.581-.17-2.659-3.372.308-2.38 2.61V5.12l-2.412-1.825-2.282 1.824v4.91l-2.132-2.49H9.331L9.058 9.7l2.913 4.044h-6.29l-2.366 2.334 2.36 1.961h6.442l-3.53 3.86.19 2.723 3.306-.307 2.313-2.546v5.226l2.239 2.295 2.455-2.297v-4.98l1.914 2.239 3.066.368.424-2.791-3.225-3.79h6.31l2.002-2.147z" fill="#FBC733"/><path fill-rule="evenodd" clip-rule="evenodd" d="M32.013 9.607l-3.08 3.5 2.823 2.777-2.845 3.016 3.071 4.051-5.355-.278-.467 3.571h-2.6v5.79L19.8 28.37l-3.044 3.354-3.348-3.346-2.744 3.129v-5.24l-3.678.256-.405-4.02-5.056-.045 1.881-3.405-3.394-2.997 3.609-3.006L1.44 9.32h5.625V5.69h3.212L10.15.218l3.27 3.579L17.124.644l2.687 2.818 3.75-3.064v5.293h3.392l.067 3.869 4.992.047zM30.61 22.235l-2.562-3.38 2.788-2.954-2.81-2.763 2.553-2.9-4.218-.04-.067-3.863h-3.403V1.792l-3.136 2.563-2.679-2.809-3.716 3.162-2.498-2.735.099 4.362H7.735v3.63h-5.15l1.887 3.228-3.454 2.878 3.222 2.845-1.606 2.909 4.556.04.4 3.97 3.744-.26v4.168l2.04-2.326 3.357 3.354 3.037-3.347 3.123 3.04V25.6h2.677l.471-3.602 4.57.237z" fill="#FBC733"/><path fill-rule="evenodd" clip-rule="evenodd" d="M20.27 13.866a1.208 1.208 0 0 0-1.653-.355 1.784 1.784 0 0 0-.343.342 6.62 6.62 0 0 0-.391.545c-.26.399-.505.836-.66 1.135l-.2-.096c.158-.303.405-.747.67-1.153.133-.203.27-.399.405-.563.132-.163.266-.302.392-.386l.002-.002a1.437 1.437 0 0 1 1.966.418l.002.003a1.38 1.38 0 0 1-.437 1.928 1.458 1.458 0 0 1-.47.167 4.87 4.87 0 0 1-.633.083c-.452.036-.949.036-1.33.025l.006-.215c.378.011.865.01 1.306-.024.221-.017.428-.043.603-.079.178-.037.312-.083.395-.136l.002-.001a1.17 1.17 0 0 0 .368-1.636z" fill="#FBC733"/><path fill-rule="evenodd" clip-rule="evenodd" d="M20.353 17.823a1.176 1.176 0 0 0-.554-1.577l-.005-.003-.006-.003a.723.723 0 0 0-.21-.071c-.474-.104-1.261-.083-1.87-.062l-.008-.214c.599-.022 1.42-.045 1.93.067h.002l.008.002c.081.02.184.044.267.096.698.35.985 1.161.648 1.856a1.414 1.414 0 0 1-1.895.651 1.518 1.518 0 0 1-.405-.325 5.48 5.48 0 0 1-.421-.514c-.28-.38-.55-.813-.741-1.136l.194-.106c.19.32.456.747.73 1.118.136.186.274.357.403.493.132.139.247.234.34.279h.002a1.187 1.187 0 0 0 1.59-.551z" fill="#FBC733"/><path fill-rule="evenodd" clip-rule="evenodd" d="M17.023 19.823a1.184 1.184 0 0 0 1.084-1.28 1.48 1.48 0 0 0-.115-.396 5.242 5.242 0 0 0-.252-.513c-.2-.361-.443-.74-.644-1.04l.188-.115c.202.301.45.686.653 1.055.102.184.193.366.262.534.069.166.118.323.13.456.073.767-.507 1.443-1.285 1.513a1.416 1.416 0 0 1-1.53-1.278 1.378 1.378 0 0 1 .067-.483c.052-.18.128-.378.215-.58.175-.405.4-.833.58-1.166l.198.099c-.179.333-.4.754-.572 1.15a4.668 4.668 0 0 0-.205.554c-.049.17-.07.307-.06.406a1.195 1.195 0 0 0 1.286 1.084z" fill="#FBC733"/><path fill-rule="evenodd" clip-rule="evenodd" d="M15.718 17.65c.246-.382.479-.808.634-1.117l.201.093c-.158.314-.394.747-.645 1.138a6.116 6.116 0 0 1-.383.537 1.806 1.806 0 0 1-.373.365h-.001c-.655.42-1.53.256-1.967-.396a1.369 1.369 0 0 1 .387-1.928c.108-.077.26-.13.424-.167.17-.04.365-.067.568-.089.43-.043.925-.065 1.33-.065v.215c-.398 0-.886.021-1.306.064-.2.021-.384.047-.54.083a1.016 1.016 0 0 0-.344.132l-.002.002-.003.002a1.16 1.16 0 0 0-.326 1.635c.368.55 1.102.687 1.654.334.092-.06.202-.17.323-.32.12-.147.245-.326.369-.517z" fill="#FBC733"/><path fill-rule="evenodd" clip-rule="evenodd" d="M14.84 13.627c.098.045.219.142.356.284.135.14.278.316.42.506a19.418 19.418 0 0 1 .764 1.124l.19-.113-.022-.035c-.199-.308-.47-.728-.75-1.102a5.686 5.686 0 0 0-.438-.526 1.525 1.525 0 0 0-.424-.332 1.434 1.434 0 0 0-1.893.674 1.389 1.389 0 0 0 .679 1.86l.003.002.004.002c.117.044.26.09.448.113.115.022.276.044.417.045.41.021.905 0 1.306-.022l-.012-.214c-.403.021-.889.042-1.284.021h-.006c-.124 0-.273-.02-.38-.041h-.005l-.004-.001a1.589 1.589 0 0 1-.393-.1 1.178 1.178 0 0 1-.57-1.574 1.207 1.207 0 0 1 1.595-.57z" fill="#FBC733"/><path fill-rule="evenodd" clip-rule="evenodd" d="M17.84 13.218c.009.1-.012.243-.061.42-.048.177-.12.377-.206.586a13.5 13.5 0 0 1-.571 1.19l.198.098c.18-.334.406-.783.58-1.21.088-.212.164-.421.215-.609.05-.184.08-.357.067-.495a1.396 1.396 0 0 0-1.386-1.257h-.167a1.404 1.404 0 0 0-1.263 1.534c.013.135.066.296.138.465a5.7 5.7 0 0 0 .28.547c.219.377.484.767.697 1.06l.183-.124c-.21-.288-.47-.671-.684-1.04a5.242 5.242 0 0 1-.269-.525c-.07-.163-.113-.3-.122-.402a1.187 1.187 0 0 1 1.056-1.3h.151c.588 0 1.101.448 1.163 1.062z" fill="#FBC733"/><path fill-rule="evenodd" clip-rule="evenodd" d="M17.536 16.053a.057.057 0 0 0 .018-.062l-.006-.017v-.015a.243.243 0 0 0-.012-.012l-.042-.04-.47-.387-.022-.021-.15-.124a.163.163 0 0 0-.173 0l-.172.145-.023.022-.492.408-.023.023a.21.21 0 0 0-.008.009v.022l-.008.015a.545.545 0 0 0 .01.024l.028.028.514.408.024.022.172.145c.05.034.126.033.175 0l.24-.189.42-.404zm.235-.114a.268.268 0 0 1-.077.266l-.429.412-.252.198-.002.001a.393.393 0 0 1-.447 0l-.003-.002-.185-.156-.021-.02-.514-.408-.061-.06-.009-.015-.001-.003a.406.406 0 0 1-.035-.083.193.193 0 0 1 .004-.115c.008-.074.056-.119.09-.152l.008-.007.003-.003.492-.408.022-.02.185-.156.003-.003a.393.393 0 0 1 .447 0l.003.002.162.134.023.022.47.386.047.046.002.002a.214.214 0 0 1 .075.142z" fill="#FBC733"/><path d="M43.054 31.549v-9.578l-2.034 2.104-1.14-.064-.269-1.074 1.789-2.04h-8.562l3.688-4.08 1.811.02v1.933h3.644l.47.58h2.257v5.799h1.7l1.497 1.61-4.851 4.79zm9.389-.064l-4.538-4.725.67-1.61h1.923v-5.8h1.162l.537-.58h3.934v-1.932h2.906l3.89 3.694h-8.942l1.565 1.911-.224 1.353-1.34-.043-1.543-1.61v9.342z" fill="#003E89"/><path d="M47.905 26.76l-1.498-1.611h-1.7v-5.82h5.813v5.82h-1.945l-.67 1.61zm-.895-3.415h.984l.537-.687v-1.46l-.537-.666h-1.028l-.537.665v1.46l.581.688z" fill="#1434EF"/><path d="M43.054 26.051l-5.388-.064v-5.09H41.4l-1.789 2.04.268 1.074 1.14.064 2.035-2.104v4.08zm14.418-.171h-5.03v-3.738l1.543 1.611 1.341.043.224-1.353-1.565-1.912h3.487v5.348zm-9.478-2.535h-.983l-.582-.687v-1.46l.537-.666h1.028l.537.665v1.46l-.537.688z" fill="#F25000"/><path d="M44.708 19.35H42.45l-.469-.58-1.654-1.954v-.322h2.37v1.138h8.852v-1.138h2.503v.322l-1.855 1.954-.537.58h-6.952z" fill="#003E89"/><path d="M40.327 16.494v.322l1.654 1.955h-3.644v-1.933l-1.81-.022-.045-1.933h1.855v-1.997h3.398l-1.408 1.954v1.654zm15.804 2.276h-3.934l1.855-1.954V14.84l-1.654-1.954h3.733v1.997h2.906v1.955h-2.906v1.932z" fill="#1434EF"/><path d="M46.117 17.632h-3.42v-1.138h-2.37V14.84h2.37v-1.138h3.42v.58l-1.006.751v1.332l1.006.709v.558zm5.432 0h-5.432v-.558h2.146l1.006-.709v-1.374l-1.006-.71h-2.146v-.58h5.432v1.14h2.503v1.653H51.55v1.138z" fill="#F25000"/><path d="M47.1 17.074h-.983l-1.006-.709v-1.331l1.006-.752h.983v.752a.175.175 0 0 0-.112.043l-.492.494a.164.164 0 0 0 0 .236l.492.494a.175.175 0 0 0 .112.043v.73z" fill="#1434EF"/><path d="M48.263 17.074h-1.185v-.709c.044 0 .09-.021.111-.043l.492-.494a.164.164 0 0 0 0-.236l-.491-.494a.174.174 0 0 0-.112-.043v-.752h1.184l.984.71v1.374l-.983.687z" fill="#1434EF"/><path d="M47.212 16.322a.174.174 0 0 1-.112.043.174.174 0 0 1-.112-.043l-.492-.494a.164.164 0 0 1 0-.236l.492-.494a.124.124 0 0 1 .112-.064c.045 0 .09.021.112.043l.492.494a.164.164 0 0 1 0 .236l-.492.515zm-8.875-1.439h-1.855l-3.6-4.145H41.4l-1.79-1.954.537-1.052.961.064 1.945 1.976V.795l4.337 4.338-1.073 1.482h-1.61v5.39h-2.325l-.648.881h-3.398v1.997zm20.7 0h-2.906v-1.997h-3.733l-.738-.88h-1.363V6.614h-1.655l-1.251-1.482L52.443.795v8.741l1.475-2.02 1.364.087.268 1.18-1.565 1.955h8.942l-3.89 4.145z" fill="#003E89"/><path d="M42.696 14.84h-2.37l1.41-1.954.647-.88h9.277l.738.88 1.654 1.954H51.55v-1.138h-8.852v1.138z" fill="#003E89"/><path d="M50.297 12.005H44.73l-.023-5.39h1.61l1.073-1.482 1.23 1.482h1.654v5.39h.022zm-3.286-1.052h.983l.537-.687v-1.46l-.537-.666h-1.028l-.536.665v1.46l.58.688z" fill="#1434EF"/><path d="M47.994 10.953h-.983l-.582-.687v-1.46l.537-.666h1.028l.537.665v1.46l-.537.688zm-6.594-.215h-3.6v-4.96h5.254v3.994l-1.945-1.976-.961-.065-.537 1.053 1.789 1.954zm16.072 0h-3.487l1.565-1.954-.268-1.181-1.364-.086-1.475 2.019V5.82h5.03v4.918z" fill="#F25000"/><path fill-rule="evenodd" clip-rule="evenodd" d="M63.743 20.854h-5.935V26.2h-5.03v6.108l-4.88-5.081-5.18 5.114v-5.973l-5.387-.064v-5.086h-5.228l4.086-4.52-.04-1.696-3.982-4.587h5.299v-4.96h5.253V-.006l4.69 4.691 5.37-4.61v5.423h5.029v4.918h5.873l-4.308 4.59v1.697l4.37 4.15zm-1.57-9.794h-5.036V6.142h-5.03V1.514L47.374 5.58 43.39 1.595v4.504h-5.253v4.961H33.6l3.216 3.703.05 2.17-3.291 3.641h4.428v5.094l5.387.065v5.023l4.522-4.465 4.197 4.37v-5.104h5.03v-5.348h4.973l-3.409-3.237v-2.213l3.471-3.699z" fill="#FEF1EB"/><path fill-rule="evenodd" clip-rule="evenodd" d="M57.472 11.06h-4.168l1.885-2.354-.181-.798-.924-.058-1.977 2.705V5.82h.67v2.696l.975-1.333 1.803.114.356 1.565-1.245 1.554h2.806v.644zm-1.006 3.501h2.571v.644h-3.241v-1.997h-3.398v-.644h4.068v1.997zm2.571 1.954v.645h-2.57v1.933h-4.27v-.645h3.599v-1.933h3.241zm-1.565 3.695v.644h-2.797l1.229 1.5-.293 1.774-1.778-.057-1.055-1.103v2.911h-.67v-4.563l2.029 2.12.904.029.155-.933-1.901-2.323h4.177zM43.39 5.777v4.804L40.956 8.11l-.606-.041-.339.665 2.13 2.327h-4.34v-.644h2.858l-1.447-1.58.734-1.441 1.317.088 1.456 1.48V5.776h.67zm-4.717 7.431h3.062v-.644h-3.733v1.997h-1.52v.644h2.19v-1.997zm3.308 5.885h-3.98v-1.937l-1.479-.018.009-.644 2.142.025v1.93h3.308v.643zm1.409 2.057v4.901h-.671v-3.26l-1.56 1.615-1.547-.088-.366-1.464 1.433-1.635h-3.012v-.645h4.454l-2.144 2.446.171.683.734.042 2.508-2.595zm5.253.01v1.534l-.593.759h-1.092l-.64-.757v-1.535l.593-.737h1.138l.594.737zm-.224.074l-.48-.595h-.918l-.48.595v1.386l.523.618h.874l.481-.616v-1.388zm.224-12.465v1.533l-.593.758h-1.092l-.64-.756V8.769l.593-.737h1.138l.594.737zm-.224.073l-.48-.595h-.918l-.48.595v1.386l.523.618h.874l.481-.616V8.842zm-.794 6.888a.06.06 0 0 0 0-.084l-.002-.001-.49-.492a.059.059 0 0 0-.013-.007.057.057 0 0 0-.02-.005.018.018 0 0 0-.009.002.006.006 0 0 0-.003.003l-.007.015-.505.507a.06.06 0 0 0 0 .084l.001.002.49.492.003.002a.082.082 0 0 0 .02.009l.002-.001a.2.2 0 0 0 .04-.03l.493-.495zm.159.152a.268.268 0 0 0 0-.386l-.491-.494-.002-.001a.288.288 0 0 0-.19-.075.238.238 0 0 0-.203.108l-.482.483a.268.268 0 0 0 0 .386l.492.493.001.002a.29.29 0 0 0 .191.075.22.22 0 0 0 .103-.03.421.421 0 0 0 .088-.066l.493-.495z" fill="#FEF1EB"/><path fill-rule="evenodd" clip-rule="evenodd" d="M54.388 14.726v2.215l-1.942 2.045-.635.687h-9.524l-.568-.702-1.727-2.04V14.74l1.468-2.04.749-1.018h9.611l.838 1 1.729 2.043zm-.67.229l-1.581-1.867-.637-.76h-8.943l-.547.743-1.348 1.87v1.76l1.582 1.87.37.457h8.896l.438-.473 1.77-1.864v-1.736z" fill="#FEF1EB"/><path fill-rule="evenodd" clip-rule="evenodd" d="M49.38 14.936v1.484l-1.08.761h-2.22L45 16.42v-1.44l1.08-.806h2.22l1.081.761zm-.223.11l-.93-.657h-2.072l-.933.697v1.225l.931.655h2.073l.93-.655v-1.266z" fill="#FEF1EB"/><path fill-rule="evenodd" clip-rule="evenodd" d="M51.772 14.626h2.28v.43h-2.727v-1.14H42.92v1.14h-2.705v-.43h2.258v-1.139h9.3v1.139zm2.28 1.654v.429h-2.28v1.138h-9.3V16.71h-2.257v-.43h2.705v1.139h8.405V16.28h2.727zm-3.218 3.07v6.121h-2.031l-.787 1.891-1.759-1.89h-1.884V19.35h.67v5.477h1.514l1.238 1.33.554-1.33h1.814V19.35h.67zm-.202-13.057v5.712h-.67V6.938h-1.479L47.412 5.67l-.919 1.268h-1.45v5.068h-.67V6.293h1.77l1.227-1.696 1.433 1.696h1.83z" fill="#FEF1EB"/><path d="M10.954 63.42v-9.321l-2.012 2.062-1.14-.064-.269-1.074 1.789-1.955H.805l3.666-3.973 1.788.022v1.868h3.622l.47.559h2.234v5.648h1.7l1.475 1.568-4.806 4.66zm9.299-.064L15.76 58.76l.693-1.568h1.9v-5.648h1.162l.514-.559h3.89v-1.868h2.884l3.867 3.586h-8.852l1.52 1.869-.201 1.31-1.32-.043-1.564-1.568v9.085z" fill="#fff"/><path d="M15.76 58.76l-1.498-1.568h-1.699v-5.648h5.768v5.648h-1.9l-.671 1.568zm-.894-3.33h.983l.537-.665v-1.418l-.537-.644h-1.006l-.536.644v1.418l.559.666zm-3.912 2.642l-5.343-.064v-4.94h3.71l-1.788 1.955.269 1.074 1.14.064 2.012-2.062v3.973zM25.26 57.9h-5.007v-3.63l1.565 1.569 1.319.043.2-1.31-1.52-1.869h3.443V57.9z" fill="#FBC631"/><path d="M15.85 55.43h-.984l-.56-.665v-1.396l.537-.666h1.006l.537.666v1.396l-.537.666z" fill="#1938EF"/><path d="M12.585 51.543H10.35l-.47-.558-1.654-1.89v-.322h2.37v1.117h8.785v-1.117h2.481v.322l-1.833 1.89-.514.558h-6.93z" fill="#FBC631"/><path d="M8.226 47.184v1.911l1.654 1.89H6.26v-1.868l-1.788-.022-.045-1.89H6.26v-1.933h3.398l-1.43 1.912zm15.693 3.801h-3.89l1.834-1.89v-1.912l-1.632-1.91h3.688v1.932h2.884v1.912h-2.884v1.868z" fill="#1938EF"/><path d="M13.994 49.89h-3.398v-1.117h-2.37v-1.59h2.37v-1.116h3.398v.558l-1.006.73v1.29l1.006.686v.559zm5.387 0h-5.387v-.559h2.146l.983-.687v-1.331l-.983-.688h-2.146v-.558h5.387v1.117h2.481v1.589h-2.481v1.117z" fill="#1938EF"/><path d="M16.14 49.331h-2.146l-1.006-.687v-1.288l1.006-.73h2.146l.983.687v1.331l-.983.688zm-1.297-.73a.153.153 0 0 0 .224 0l.492-.494c.067-.064.067-.15 0-.214l-.492-.494a.153.153 0 0 0-.224 0l-.491.494c-.068.064-.068.15 0 .214l.491.494z" fill="#F25000"/><path d="M15.067 48.601a.153.153 0 0 1-.224 0l-.492-.494c-.067-.064-.067-.15 0-.215l.492-.494a.153.153 0 0 1 .224 0l.492.494c.067.065.067.15 0 .215l-.492.494z" fill="#FBC631"/><path d="M6.26 47.205H4.425L.872 43.19h8.45l-1.788-1.911.536-1.01.961.065 1.923 1.911v-8.719l4.314 4.21-1.073 1.438h-1.61l.023 5.24h-2.325l-.626.86H6.26v1.932z" fill="#fff"/><path d="M26.803 47.205h-2.884v-1.933H20.23l-.715-.859h-1.363v-5.24h-1.655l-1.23-1.439 4.986-4.21v8.506l1.475-1.977 1.364.086.246 1.139-1.52 1.911h8.852l-3.867 4.016z" fill="#fff"/><path d="M10.596 47.184h-2.37l1.43-1.912.627-.859h9.232l.715.86 1.632 1.91h-2.481v-1.116h-8.785v1.117zm7.555-2.771h-5.543l-.023-5.24h1.61l1.073-1.44 1.23 1.44h1.653v5.24zm-3.286-1.03h.984l.536-.667V41.3l-.536-.644h-1.006l-.537.644v1.417l.56.666z" fill="#FBC631"/><path d="M15.85 43.382h-.984l-.56-.665V41.32l.537-.666h1.006l.537.666v1.396l-.537.665z" fill="#1938EF"/><path d="M9.322 43.19H5.745v-4.833h5.209v3.887L9.03 40.333l-.961-.065-.537 1.01 1.789 1.911zm15.938 0h-3.442l1.52-1.912-.246-1.139-1.364-.085-1.475 1.975V38.4h5.007v4.79z" fill="#FBC631"/><path fill-rule="evenodd" clip-rule="evenodd" d="M31.5 53.026h-5.905v5.197h-5.007v5.946l-4.835-4.945-5.135 4.979v-5.812l-5.343-.065v-4.935H.06l4.074-4.415-.04-1.649-3.947-4.46H5.41v-4.832h5.208v-5.296l4.666 4.552 5.304-4.478v5.265h5.007v4.79h5.842l-4.3 4.463v1.649l4.363 4.046zm-1.597-9.515h-4.978v-4.789h-5.008v-4.485l-4.666 3.94-3.962-3.866v4.368H6.08v4.832H1.597l3.162 3.573.05 2.13-3.259 3.532h4.396v4.944l5.343.064v4.883l4.477-4.341 4.152 4.246v-4.964h5.007v-5.197h4.915l-3.373-3.127v-2.175l3.436-3.568z" fill="#F25000"/><path fill-rule="evenodd" clip-rule="evenodd" d="M25.26 43.511h-4.12l1.838-2.312-.163-.754-.923-.058-1.974 2.644V38.4h.67v2.628l.976-1.308 1.804.114.33 1.522-1.202 1.511h2.764v.644zm-1.006 3.372h2.549v.645h-3.22v-1.933h-3.352v-.645h4.023v1.933zm2.549 1.912v.644h-2.549v1.868H20.03v-.644h3.555v-1.868h3.219zm-1.543 3.586v.644h-2.755l1.186 1.457-.266 1.732-1.755-.058-1.082-1.084v2.829h-.67V53.47l2.047 2.051.884.03.136-.89-1.855-2.28h4.13zM11.289 38.357v4.684l-2.41-2.395-.612-.041-.33.622 2.137 2.285h-4.33v-.645H8.57L7.13 41.33l.743-1.397 1.31.088 1.436 1.427v-3.09h.67zm-4.695 7.238h3.063v-.645H5.924v1.933H4.426v.645h2.168v-1.933zm3.286 5.712H5.924v-1.872l-1.458-.018.009-.644 2.12.026v1.864H9.88v.644zm1.409 1.978v4.788h-.671v-3.159l-1.54 1.578-1.545-.088-.367-1.468L8.58 53.39H5.61v-.645h4.453L7.9 55.11l.17.68.734.04 2.485-2.545z" fill="#F25000"/><path fill-rule="evenodd" clip-rule="evenodd" d="M16.609 53.296v1.543l-.65.807h-1.2l-.676-.805v-1.545l.65-.807h1.226l.65.807zm-.447.147l-.423-.525h-.786l-.423.525v1.246l.442.527h.767l.423-.524v-1.25zm.447-12.196v1.543l-.65.807h-1.2l-.676-.805v-1.545l.65-.807h1.226l.65.807zm-.447.147l-.423-.524h-.786l-.423.524v1.247l.442.527h.767l.423-.525v-1.249z" fill="#F9F9F9"/><path fill-rule="evenodd" clip-rule="evenodd" d="M15.497 48c0-.005-.002-.017-.018-.032l-.002-.001-.49-.493c-.016-.014-.027-.016-.032-.016-.006 0-.017.002-.032.016l-.493.495c-.015.014-.018.026-.018.031 0 .005.002.017.018.031l.002.002.49.493c.016.014.027.016.033.016.005 0 .016-.002.032-.016l.492-.495c.016-.015.018-.026.018-.031zm.141.182A.254.254 0 0 0 15.72 48a.254.254 0 0 0-.082-.182l-.49-.494-.003-.001a.275.275 0 0 0-.19-.08c-.073 0-.14.03-.191.08l-.493.495a.254.254 0 0 0-.082.182c0 .07.031.133.082.182l.491.493.002.002c.051.05.118.08.19.08.073 0 .14-.03.191-.08l.493-.495z" fill="#fff"/><path fill-rule="evenodd" clip-rule="evenodd" d="M22.198 47.069v2.153l-1.92 1.98-.612.664H10.19l-.568-.676-1.73-1.977V47.08l1.492-1.994.724-.995h9.568l.815.979 1.707 1.999zm-.67.23l-1.558-1.824-.616-.74h-8.896l-.527.724-1.37 1.829v1.69l1.578 1.802.371.441h8.854l.417-.452 1.746-1.8v-1.67z" fill="#F25000"/><path fill-rule="evenodd" clip-rule="evenodd" d="M17.235 47.258v1.44l-1.06.74h-2.217l-1.082-.738v-1.398l1.08-.784h2.22l1.059.74zm-.224.11l-.908-.635h-2.072l-.932.676v1.18l.93.635h2.074l.908-.634v-1.223z" fill="#fff"/><path fill-rule="evenodd" clip-rule="evenodd" d="M19.605 46.97h2.257v.429h-2.704v-1.117h-8.339v1.117H8.137v-.43h2.235v-1.117h9.233v1.117zm2.257 1.588v.43h-2.257v1.117h-9.233v-1.117H8.137v-.43h2.682v1.117h8.338v-1.117h2.705zm-3.174 2.986v5.97h-2.014l-.811 1.836-1.728-1.836H12.25v-5.97h.67v5.326h1.513l1.223 1.3.575-1.3h1.786v-5.326h.671zm-.201-12.693v5.562h-.67v-4.918h-1.478l-1.053-1.232-.919 1.232h-1.445l.021 4.917-.67.003-.024-5.564h1.774l1.227-1.646 1.406 1.646h1.83z" fill="#F25000"/><path d="M63.866 64V32.086H31.989V64h31.877z" fill="#FFFBF8"/><path d="M54.946 63.291l-3.42-3.372-2.995 3.35-3.309-3.35-2.347 2.728V57.6l-3.554.344v-3.759l-5.276-.043 1.721-3.157-3.286-2.92 3.488-2.943-1.99-3.48h5.32v-3.629h3.197l-.134-4.918 2.861 3.157 3.242-3.608 3.062 3.286 3.42-3.092v5.197H58.3l.067 3.866 4.538.064-2.772 3.2 2.772 2.77-2.772 2.964 2.772 3.737-4.895-.258-.47 3.587h-2.593v5.326zm-6.527-1.804l2.526-2.405v-4.725l1.721 2.04 3.174.408.447-2.963-3.084-3.651h6.102l2.08-2.255-2.08-2.277h-5.588l3.107-3.436-.179-2.792-3.487.3-2.19 2.427V37.09l-2.527-2.212-2.325 2.212v4.66l-1.944-2.298h-3.063l-.268 2.298 2.772 3.888h-6.058l-2.437 2.47 2.437 2.061h6.17l-3.354 3.716.201 2.877 3.42-.343 2.124-2.363v4.983l2.303 2.448zm3.107-3.05l1.43 1.482v-2.405l-1.43-1.525v2.449zm-7.69-.472v1.976l1.386-1.697v-2.233l-1.386 1.954zm12.898-4.918h3.398l-1.766-2.148h-3.42l1.788 2.148zm-19.917 0l3.286-.408 1.677-1.74h-3.04l-1.923 2.148zm18.13-7.903h3.42l1.765-1.74h-3.398l-1.788 1.74zm-16.52-.344h3.375l-1.677-1.74h-2.86l1.161 1.74zm13.099-7.087v2.77l1.43-1.568v-2.319l-1.43 1.117zm-7.69.837l1.386.902v-1.89l-1.81-1.653.424 2.641z" fill="#fff"/><path d="M50.967 59.082l-2.526 2.405-2.325-2.405v-4.983l-2.123 2.363-3.42.343-.202-2.878 3.353-3.715h-6.147l-2.436-2.062 2.436-2.47h6.036l-2.772-3.887.268-2.298h3.063l1.944 2.298v-4.66l2.325-2.212 2.526 2.212V42.2l2.19-2.427 3.466-.365.179 2.792-3.108 3.436h5.611l2.08 2.255-2.08 2.255h-6.058l3.085 3.651-.447 2.964-3.174-.408-1.721-2.04v4.768h-.023zm-2.615.064h.223v-.064l1.431-.86h-1.43v-.45l1.273-.924h-1.274v-.43l1.274-.858h-1.274v-.409l1.32-.88h-1.32v-2.298h-.223v2.32h-1.297l1.297.837v.451H47.01l1.34.86v.429h-1.34l1.34.923v.43h-1.184l1.185.816v.107zm5.566-3.801h1.028V54.12h-.827v-.945h-.827v-1.031h-1.028v1.224h.85v1.03h.826v.946h-.022zm-11.244-.322h1.028v-1.031h.85v-.945h.827v-1.224h-1.051v.945h-.827v1.03h-.85v1.225h.023zm4.739-4.231c.067.709.693 1.245 1.386 1.181a1.308 1.308 0 0 0 1.185-1.396c-.045-.472-.604-1.396-1.006-1.997l.022-.022c.38.645 1.05 1.718 1.498 1.933.648.3 1.408.043 1.721-.601a1.274 1.274 0 0 0-.604-1.718c-.402-.194-1.408-.194-2.123-.15a.16.16 0 0 0-.045-.087l-.045-.043c.76.022 1.945-.021 2.348-.279a1.27 1.27 0 0 0 .38-1.782 1.292 1.292 0 0 0-1.789-.387c-.447.28-1.095 1.46-1.408 2.062l-.022-.022c.357-.665.894-1.782.85-2.255a1.286 1.286 0 0 0-1.275-1.16v-1.975h1.319l-1.32-.838v-.45h1.342l-1.341-.86v-.43h1.341l-1.341-.923v-.43h1.185l-1.342-.923-.111.064-1.409.838h1.431v.43l-1.274.923h1.274v.43l-1.274.859h1.274v.408l-1.319.859h1.319v1.976h.134-.045a1.295 1.295 0 0 0-1.162 1.417c.045.473.67 1.44 1.073 2.04l-.022.022c-.38-.623-1.096-1.761-1.565-1.976a1.302 1.302 0 0 0-1.721.623 1.302 1.302 0 0 0 .625 1.718c.403.172 1.386.172 2.102.129 0 .043 0 .086.022.107-.76 0-1.855.065-2.235.3-.581.388-.76 1.204-.358 1.783a1.294 1.294 0 0 0 1.788.366c.425-.28 1.029-1.375 1.342-1.998l.022.022c-.358.708-.872 1.74-.827 2.212zm-10.506-2.663l1.184 1.18v-1.116h.581l1.185.988v-.988h.56l1.094.988v-.988h.537l1.118 1.01v-1.01h3.241l.022-.086-3.241-.043V46.99l-1.14 1.053h-.514v-1.074l-1.14 1.074h-.514V46.99l-1.208 1.053h-.558v-.924l-1.207 1.01zm20.074 1.117l1.207-1.053h.558v.924l1.185-1.031-1.184-1.181v1.116h-.56l-1.206-.988v.988h-.56l-1.095-.988v.988h-.536l-1.118-1.01v1.01H51.28l.179.086 2.19.022v1.074l1.14-1.074h.515v1.074l1.14-1.074h.514v1.117h.023zM44.328 43.94h1.028v-1.203h-.804v-.945h-.828v-1.03h-1.028v1.223h.85v1.031h.782v.924zm8.584-.3h1.028v-1.032h.827v-.945h.827V40.44h-1.028v.945h-.827v1.031h-.827v1.224z" fill="#F25000"/><path d="M52.979 59.92l-1.453-1.482v-2.449l1.453 1.547v2.383zm-9.143 0v-1.955l1.386-1.976v2.234l-1.386 1.697z" fill="#1938EF"/><path d="M48.486 59.146h-.134v-.107l.134.107z" fill="#3123B7"/><path d="M48.575 59.146h-.09l.09-.064v.064z" fill="#3123B7"/><path d="M48.575 59.082l-.09.064-.133-.107v-.816h.223v.859z" fill="#3123B7"/><path d="M50.006 58.223l-1.43.859v-.86h1.43zm-1.654.816l-1.185-.816h1.185v.816z" fill="#fff"/><path d="M48.575 58.223h-.223v-.43l.111.086.112-.086v.43z" fill="#3123B7"/><path d="M48.575 57.793l-.112.086-.111-.086v-.945h.223v.945z" fill="#3123B7"/><path d="M48.352 57.793l-1.342-.945h1.342v.945zm1.52-.945l-1.297.945v-.945h1.297z" fill="#fff"/><path d="M48.575 56.848h-.223v-.43l.111.087.112-.086v.43z" fill="#3123B7"/><path d="M48.575 56.419l-.112.086-.111-.086v-.838h.223v.838z" fill="#3123B7"/><path d="M48.352 56.419l-1.342-.838h1.342v.838zm1.52-.838l-1.297.838v-.838h1.297z" fill="#fff"/><path d="M48.575 55.581h-.223v-.45l.134.085.09-.064v.43z" fill="#3123B7"/><path d="M54.969 55.345h-1.05V54.4l.223-.28h.827v1.225z" fill="#003E89"/><path d="M48.575 55.152l-.09.064-.133-.086v-.837h.223v.859z" fill="#3123B7"/><path d="M48.575 55.152v-.86h1.319l-1.319.86zm-.223-.022l-1.32-.837h1.32v.837z" fill="#fff"/><path d="M43.702 55.023h-1.028V53.82h.85l.178.172v1.03zm10.216-.623h-.805v-1.03l.202-.194h.827v.945l-.224.279z" fill="#003E89"/><path d="M48.575 54.293v-2.32h-.246v2.32h.246z" fill="#3123B7"/><path d="M44.551 53.992h-.85l-.178-.172v-1.03h.805l.223.279v.923zm8.562-.622h-.85v-1.203h1.052v1.009l-.202.193zm-7.757-.302h-.804l-.224-.279v-.945h1.028v1.224z" fill="#003E89"/><path d="M60.132 53.047h-3.398l-1.788-2.148h3.42l1.766 2.148zm-20.007-.408l-3.308.408 1.945-2.148h3.04l-1.677 1.74z" fill="#1938EF"/><path d="M48.799 51.973a1.272 1.272 0 0 1-1.386-1.181c-.045-.473.47-1.503.85-2.17l.178.151c.09.065.224.065.313 0l.224-.193c.402.601.96 1.546 1.006 1.997.067.709-.47 1.332-1.185 1.396zm-1.9-1.374a1.295 1.295 0 0 1-1.788-.365 1.283 1.283 0 0 1 .357-1.783c.38-.258 1.476-.3 2.236-.3 0 .02.022.02.044.042l.492.408c-.313.623-.916 1.718-1.341 1.998zm5.32-.709a1.275 1.275 0 0 1-1.721.601c-.448-.214-1.118-1.288-1.498-1.932l.447-.365c.067-.044.067-.108.045-.172.715-.043 1.72-.043 2.123.15.626.3.894 1.074.604 1.718z" fill="#003E89"/><path d="M38.091 49.31l-1.184-1.181 1.184-1.031v.923h-.804v.194h.804v1.095zm20.097-1.117l-1.208 1.053v-1.074l1.208.021zm-1.722-.021l-1.14 1.074V48.15l1.14.022zm-1.654-.022l-1.14 1.074V48.13l1.14.021zm-11.646 1.074l-1.118-1.01h1.117v1.01zm-1.655-.021l-1.095-.988h1.095v.988zm-1.654 0l-1.185-.988h1.185v.988zm20.074-1.117l-1.185 1.03v-.923l.805.022v-.193h-.805v-1.117l1.185 1.181zm-11.2.666a.278.278 0 0 1-.312 0l-.18-.15c.18-.344.336-.602.336-.602s.156.215.38.558l-.224.194z" fill="#fff"/><path d="M48.24 48.601l-.492-.408-.045-.043c.425 0 .76.022.76.022l-.223.43zm.738-.043c-.224-.3-.403-.536-.403-.536s.135-.215.291-.537l.022.021c-.111.215-.178.365-.178.365s.268.022.648.022l.045.043c.022.021.044.043.044.086-.447.021-.782.043-.782.043s.156.193.313.493z" fill="#fff"/><path d="M49.425 48.193l-.447.365c-.157-.279-.269-.494-.269-.494s.335-.021.783-.042c.022.064 0 .128-.067.171zm-9.568.022h-1.185l-.134-.108.112-.085 1.207.021v.172zm3.309-.129l-1.118-.022 1.117-1.052v1.074zm-1.655-.021l-1.14-.022 1.14-1.052v1.074zm-1.654-.022l-1.207-.021 1.207-1.031v1.052z" fill="#fff"/><path d="M47.681 48.043c-.715.043-1.698.064-2.1-.129a1.283 1.283 0 0 1-.627-1.718c.29-.644 1.073-.924 1.721-.623.47.215 1.185 1.332 1.565 1.976l-.47.408c-.066 0-.089.043-.089.086z" fill="#003E89"/><path d="M54.79 48.021h-1.118v-1.009l1.118 1.01zm1.632 0h-1.095v-.988l1.095.988zm1.766 0H56.98v-.988l1.208.988zm-9.702-.064s-.335.043-.805.064c0-.043.022-.064.067-.107l.47-.408c.156.28.268.45.268.45z" fill="#fff"/><path d="M51.727 47.613c-.402.258-1.587.28-2.347.28l-.47-.387c.314-.601.962-1.783 1.41-2.062a1.296 1.296 0 0 1 1.787.387c.38.601.224 1.417-.38 1.782z" fill="#003E89"/><path d="M48.91 47.506l.47.386c-.38 0-.648-.021-.648-.021s.067-.15.178-.365zm-.312.516s-.157-.194-.358-.494l.179-.15a.277.277 0 0 1 .313 0l.156.128c-.156.3-.29.516-.29.516z" fill="#fff"/><path d="M48.441 47.356l-.179.15c-.402-.58-1.028-1.568-1.072-2.04a1.295 1.295 0 0 1 1.162-1.418h.156c.649 0 1.207.494 1.274 1.16.045.494-.491 1.59-.849 2.255l-.156-.129c-.112-.043-.269-.043-.336.022z" fill="#003E89"/><path d="M58.366 45.144h-3.42l1.788-1.74h3.398l-1.766 1.74zM41.802 44.8h-3.376l-1.162-1.74h2.861l1.677 1.74z" fill="#1938EF"/><path d="M48.374 44.07h-.134v-1.976h.246v1.976h-.112z" fill="#3123B7"/><path d="M45.356 43.941h-1.028v-.924l.224-.279h.804v1.203zm8.606-.301h-1.05v-1.224h.85l.2.193v1.031z" fill="#003E89"/><path d="M44.328 43.017h-.805v-1.03l.179-.194h.85v.945l-.224.28zm10.462-.407h-.828l-.2-.194v-1.03h.826l.202.278v.945z" fill="#003E89"/><path d="M48.218 42.094H46.92l1.297-.88v.88z" fill="#fff"/><path d="M48.463 42.094h-.245v-.88l.111-.065.134.107v.838z" fill="#3123B7"/><path d="M49.782 42.094h-1.319v-.838l1.32.838z" fill="#fff"/><path d="M43.523 41.987h-.85v-1.224h1.03v1.03l-.18.194zm12.094-.323h-.827l-.202-.279v-.923h1.029v1.202z" fill="#003E89"/><path d="M48.463 41.256l-.134-.107-.111.065v-.409h.245v.451z" fill="#3123B7"/><path d="M48.218 40.805h-1.274l1.274-.859v.86z" fill="#fff"/><path d="M48.463 40.805h-.245v-.859l.134-.064.111.064v.86z" fill="#3123B7"/><path d="M49.805 40.805h-1.342v-.859l1.342.86z" fill="#fff"/><path d="M51.526 40.505v-2.792l1.453-1.117v2.32l-1.453 1.589z" fill="#1938EF"/><path d="M48.352 39.882l-.134.064v-.43h.245v.43l-.111-.064z" fill="#3123B7"/><path d="M48.218 39.517h-1.274l1.274-.924v.924z" fill="#fff"/><path d="M48.463 39.517h-.245v-.924l.134-.086.111.086v.924z" fill="#3123B7"/><path d="M49.805 39.517h-1.342v-.924l1.342.924z" fill="#fff"/><path d="M45.222 39.452l-1.386-.902-.425-2.641 1.811 1.653v1.89z" fill="#1938EF"/><path d="M48.352 38.507l-.134.086v-.43h.245v.43l-.111-.086z" fill="#3123B7"/><path d="M48.218 38.164h-1.43l1.407-.86.023.044v.816z" fill="#fff"/><path d="M48.463 38.164v-.816h-.245v.816h.245z" fill="#3123B7"/><path d="M49.648 38.164h-1.184v-.816h-.246l-.023-.043.135-.065 1.318.924z" fill="#fff"/><path fill-rule="evenodd" clip-rule="evenodd" d="M61.51 47.914l-2.154 2.362h-5.897l2.968 3.513-.47 3.115-3.328-.427-1.55-1.838v4.488l-2.665 2.515-2.41-2.518v-4.758l-1.956 2.177-3.579.36-.235-3.034 3.245-3.593h-5.967l-2.555-2.162 2.55-2.562H43.4l-2.676-3.774.284-2.433h3.215l1.78 2.103v-4.403l2.41-2.315 2.665 2.312v4.827l2.023-2.262 3.624-.314.212 2.945-2.977 3.314h5.395l2.154 2.362zm-2.256-2.148h-5.782l3.237-3.601-.19-2.639-3.306.287-2.358 2.635v-5.31l-2.432-2.112-2.195 2.108v4.919l-2.11-2.493h-2.91l-.252 2.163 2.868 4.043h-6.222l-2.323 2.335 2.318 1.96h6.372l-3.505 3.882.211 2.723 3.262-.328 2.29-2.549v5.251l2.196 2.293 2.432-2.296v-5.005l1.892 2.243 3.02.388.425-2.812-3.202-3.79h6.264l1.959-2.147-1.959-2.148z" fill="#1938EF"/><path fill-rule="evenodd" clip-rule="evenodd" d="M60.363 53.154h-3.682l-1.967-2.362h3.707l1.942 2.362zm-2.05-2.147h-3.134l1.61 1.933h3.113l-1.59-1.933zm2.085-7.71l-1.985 1.954H54.68l2.009-1.954h3.71zm-.53.214H56.78l-1.567 1.525h3.105l1.548-1.525zm-6.778-7.138v2.583l-1.676 1.834v-3.13l1.677-1.288zm-.223.446l-1.23.945v2.456l1.23-1.345v-2.056zm-7.533.697v2.139l-1.6-1.042-.483-2.999 2.083 1.902zm-.224.093l-1.538-1.406.367 2.285 1.171.762v-1.642zm-3.052 7.298h-3.693l-1.306-1.954h3.115l1.884 1.954zm-1.982-1.74h-2.608l1.02 1.526h3.058l-1.47-1.525zm1.982 7.625L40.18 52.74l-3.64.45 2.17-2.398h3.348zm-.512.215h-2.733l-1.719 1.898 2.977-.368 1.475-1.53zm3.788 4.631v2.622l-1.61 1.97v-2.298l1.61-2.294zm-.224.703l-1.162 1.657v1.61l1.162-1.422V56.34zm7.98 1.153v2.696l-1.676-1.71v-2.77l1.677 1.784zm-.223.083l-1.23-1.309v2.127l1.23 1.254v-2.072z" fill="#1938EF"/><path fill-rule="evenodd" clip-rule="evenodd" d="M63.614 41.629l-3.032 3.5 2.78 2.777-2.801 3.016 3.02 4.073-5.279-.278-.467 3.57h-2.553v5.797l-3.74-3.687-3 3.377-3.302-3.367-2.7 3.162v-5.61l-3.555.365v-3.798l-5.492-.044 1.858-3.407-3.348-2.996 3.563-3.007-2.133-3.73h5.552v-3.629h3.166L42 32.234l3.22 3.528 3.238-3.605 3.087 3.313 3.736-3.378v5.621h3.347l.067 3.869 4.918.047zm-1.387 12.65l-2.523-3.402 2.743-2.954-2.764-2.764 2.512-2.9-4.158-.039-.067-3.863h-3.36v-4.773l-3.105 2.807-3.037-3.258-3.244 3.61L42.72 34l.12 4.357h-3.184v3.63h-5.089l1.846 3.228-3.41 2.878 3.179 2.846-1.585 2.907 5.059.042v3.719l3.554-.365v4.526l1.995-2.336 3.313 3.377 2.992-3.367 3.1 3.057v-4.856h2.633l.472-3.602 4.512.237z" fill="#1938EF"/><path fill-rule="evenodd" clip-rule="evenodd" d="M58.478 48.107l-.218.168-1.392 1.213v-2.687l1.39 1.138.22.168zm-.358 0l-.004-.003-1.024-.838v1.737l1.023-.892.005-.004z" fill="#1938EF"/><path fill-rule="evenodd" clip-rule="evenodd" d="M59.663 47.914v.411l-.918-.024h-.56l-1.206-.022h-.515l-1.14-.021h-.514l-1.14-.022-2.238-.021-.626-.3h8.857z" fill="#1938EF"/><path fill-rule="evenodd" clip-rule="evenodd" d="M60.092 48.091l-1.457 1.268v-2.72l1.457 1.452zm-1.234-.92v1.704l.913-.794-.913-.91zm-2.158.927l-.156.15-1.33 1.253v-2.716l1.28 1.155.207.158zm-.334.018l-.928.874v-1.708l.91.82.018.014zm-1.316-.042l-.16.153-1.33 1.253v-2.716l1.302 1.175.187.135zm-.34.023l-.926-.837v1.709l.926-.872zm-4.506 8.644l-1.56 1.137-.18.139-.18-.138-1.615-1.138h3.535zm-.664.215h-2.188l1.068.752.044.034.044-.034 1.032-.752zm.855 1.159l-1.757 1.056-.156.112-.199-.159-1.464-1.009h3.576zm-.779.215h-2.102l.906.624.07.056.022-.017 1.104-.663zm.622-2.856l-1.597 1.032-.178.136-.177-.136-1.653-1.032h3.605zm-.733.215h-2.117l1.03.643.045.035.046-.035.996-.643zm.753-1.504L48.64 55.24l-.15.109-.2-.128-1.629-1.035h3.597zm-.728.215h-2.125l1.009.64.068.045.028-.02 1.02-.665zm-9.561-7.648v2.686l-1.37-1.142-.238-.19.217-.167 1.39-1.188zm-.224.478l-1.023.874-.007.005.03.025 1 .833V47.23z" fill="#1938EF"/><path fill-rule="evenodd" clip-rule="evenodd" d="M46.565 48l-.066.322h-9.324v-.408h1.477l1.206.021h.516l1.139.022h.537l1.117.021 3.398.023z" fill="#1938EF"/><path fill-rule="evenodd" clip-rule="evenodd" d="M38.203 46.856v2.72l-1.457-1.452 1.457-1.268zm-.224.484l-.912.794.912.91V47.34zm3.644-.601v2.712l-1.285-1.16-.192-.184.148-.142 1.329-1.227zm-.223.504l-.938.865.032.03.906.817v-1.712zm1.877-.486v2.716l-1.307-1.181-.182-.175.187-.134 1.302-1.226zm-1.15 1.383l.927-.872v1.708l-.926-.836zm8.025-8.516H46.61l1.544-1.118.205-.132.173.134 1.621 1.116zm-.695-.215l-1.061-.73-.05-.039-.064.04-1.005.73h2.18zm.534-1.138h-3.589l1.738-1.06.2-.096 1.651 1.156zm-1.673-.906l-.068.033-1.079.658h2.134l-.987-.69zm1.856 3.548H46.59l1.57-1.06.197-.093.166.096 1.65 1.057zm-1.77-.876l-.057-.033-.072.035-.978.659h2.139l-1.032-.66zm1.75 2.165H46.57l1.588-1.078.183-.106.19.152 1.624 1.032zm-.743-.215l-1.014-.644-.078-.063-.04.024-1.006.683h2.138zm2.601 3.901a1.181 1.181 0 0 0-1.631-.354h-.001a1.54 1.54 0 0 0-.337.331 6.072 6.072 0 0 0-.383.545 16.137 16.137 0 0 0-.76 1.364h.019a15.947 15.947 0 0 0 1.76-.032c.217-.018.421-.044.594-.081a1.25 1.25 0 0 0 .391-.136 1.204 1.204 0 0 0 .348-1.637zm-3.28 1.983l-.01.107h.004l.01.001.036.003.136.007a16.165 16.165 0 0 0 1.79-.032c.223-.02.438-.047.624-.086.183-.04.35-.093.467-.168l.002-.001c.63-.42.822-1.278.412-1.927l-.002-.002a1.41 1.41 0 0 0-1.944-.418 1.76 1.76 0 0 0-.391.379c-.132.164-.267.36-.397.564a16.36 16.36 0 0 0-.827 1.503 1.328 1.328 0 0 0-.01.02l-.002.006v.001l.102.043zm0 0l-.103-.042-.061.137.154.012.01-.107z" fill="#1938EF"/><path fill-rule="evenodd" clip-rule="evenodd" d="M52.118 49.845a1.169 1.169 0 0 0-.551-1.576l-.001-.001c-.178-.085-.509-.134-.9-.153a11.304 11.304 0 0 0-1.167.014h-.002c-.222.01-.412.021-.546.03l-.043.002c.047.088.113.209.19.346.19.32.45.747.718 1.118.134.186.268.356.396.493.13.138.243.233.336.277l.001.001c.587.292 1.28.042 1.569-.551zm-3.386-1.78l-.008-.107.015-.002.041-.002.157-.01c.135-.008.325-.019.549-.03.36-.021.794-.032 1.19-.013.39.019.764.067.989.175a1.38 1.38 0 0 1 .655 1.86 1.389 1.389 0 0 1-1.873.651 1.48 1.48 0 0 1-.402-.326 5.342 5.342 0 0 1-.413-.514c-.274-.38-.539-.813-.73-1.136v-.002a21.492 21.492 0 0 1-.25-.458l-.015-.028-.004-.008-.001-.002.1-.048zm0 0l-.1.048-.075-.144.167-.011.008.107z" fill="#1938EF"/><path fill-rule="evenodd" clip-rule="evenodd" d="M48.788 51.845a1.184 1.184 0 0 0 1.084-1.28 1.534 1.534 0 0 0-.112-.388 5.517 5.517 0 0 0-.245-.515 12.708 12.708 0 0 0-.63-1.045c-.113-.161-.208-.3-.275-.4l-.006-.01a12.61 12.61 0 0 0-.242.441v.003l-.002.002c-.188.33-.41.751-.578 1.146a4.54 4.54 0 0 0-.2.554c-.047.17-.067.308-.058.408v.003a1.16 1.16 0 0 0 1.264 1.08zM48.598 48l.094-.058.007.01.02.032a29.83 29.83 0 0 0 .352.515v.001c.203.303.446.693.643 1.065.1.185.188.368.254.534.067.165.114.32.127.447.072.766-.508 1.443-1.286 1.513a1.382 1.382 0 0 1-1.508-1.28 1.413 1.413 0 0 1 .064-.48c.05-.18.124-.379.21-.581.172-.405.397-.832.588-1.167a12.586 12.586 0 0 1 .33-.593l.006-.009.002-.003.097.054zm0 0l-.097-.054.093-.152.098.148-.094.058z" fill="#1938EF"/><path fill-rule="evenodd" clip-rule="evenodd" d="M48.563 48.22l-.1-.048.008-.107.168.01-.076.145zm-.223.429l.223-.43-.1-.047.008-.107h-.004l-.012-.001a7.455 7.455 0 0 0-.208-.01c-.138-.006-.33-.011-.544-.011-.381 0-.85.01-1.272.054a4.598 4.598 0 0 0-.587.094 1.38 1.38 0 0 0-.44.172 1.388 1.388 0 0 0-.388 1.929 1.409 1.409 0 0 0 1.946.395c.121-.08.247-.211.37-.365.125-.156.252-.342.375-.538.245-.39.476-.822.633-1.135zm-.053-.379c-.015 0-.032 0-.049-.002a14.748 14.748 0 0 0-1.783.043c-.205.021-.396.05-.557.089a1.16 1.16 0 0 0-.366.139 1.179 1.179 0 0 0-.328 1.636 1.18 1.18 0 0 0 1.631.335c.092-.06.2-.17.32-.319.118-.147.24-.326.36-.518.241-.382.469-.809.624-1.118l.001-.002.147-.283z" fill="#1938EF"/><path fill-rule="evenodd" clip-rule="evenodd" d="M48.661 48.075l-.168.01-.003.001h-.012a25.385 25.385 0 0 0-.787.063l-.001.001h-.002c-.359.022-.788.038-1.179.025-.384-.014-.753-.056-.978-.164a1.389 1.389 0 0 1-.679-1.859c.316-.699 1.166-1.002 1.872-.675.137.062.281.185.423.332.143.15.291.334.435.53.288.39.564.833.755 1.157a10.12 10.12 0 0 1 .232.403l.012.023.004.006v.002l-.099.049.1-.048.075.144zm-.353-.191a8.786 8.786 0 0 0-.164-.28l-.001-.002a13.98 13.98 0 0 0-.743-1.14 5.233 5.233 0 0 0-.418-.507 1.31 1.31 0 0 0-.355-.285c-.59-.274-1.305-.02-1.57.569l-.002.003a1.178 1.178 0 0 0 .574 1.576c.178.085.502.129.888.142.38.013.8-.003 1.155-.024a35.63 35.63 0 0 1 .636-.052z" fill="#1938EF"/><path fill-rule="evenodd" clip-rule="evenodd" d="M49.626 45.24a1.175 1.175 0 0 0-1.162-1.063h-.13a1.187 1.187 0 0 0-1.056 1.3c.01.103.052.241.122.406.07.164.163.346.268.533.21.375.465.764.665 1.052l.001.001c.1.149.188.27.25.355l.002-.001c.052-.093.124-.225.2-.384l.002-.002v-.002c.179-.331.4-.768.572-1.182a5.02 5.02 0 0 0 .206-.584 1.31 1.31 0 0 0 .06-.43zm-1.028 2.782l-.089.065-.002-.002-.005-.007a13.908 13.908 0 0 1-1.03-1.56 5.758 5.758 0 0 1-.279-.554 1.686 1.686 0 0 1-.137-.467 1.404 1.404 0 0 1 1.263-1.534h.145c.709 0 1.313.539 1.385 1.256v.001c.013.142-.016.318-.067.504a5.205 5.205 0 0 1-.214.608c-.175.423-.4.866-.58 1.2a7.21 7.21 0 0 1-.27.504l-.018.03-.005.008-.001.002-.096-.054zm0 0l.096.055-.085.134-.1-.124.089-.066z" fill="#1938EF"/><path fill-rule="evenodd" clip-rule="evenodd" d="M49.347 48.094c.018-.018.023-.04.016-.06l-.006-.017v-.015a.255.255 0 0 0-.011-.012l-.042-.04-.47-.387-.022-.021-.15-.124a.163.163 0 0 0-.173 0l-.173.145-.022.02-.469.409a.872.872 0 0 0-.032.033c0 .014 0 .029.005.043l.026.025.492.408.023.022.172.145a.163.163 0 0 0 .172 0l.664-.574zm.233-.112a.268.268 0 0 1-.076.266l-.002.002-.45.388-.227.197-.004.002a.393.393 0 0 1-.447 0l-.004-.002-.184-.155-.022-.022-.492-.407-.06-.059-.009-.015c-.034-.066-.034-.13-.034-.154v-.002c0-.088.054-.14.092-.176l.008-.007.002-.002.47-.408.022-.022.185-.155.004-.003a.393.393 0 0 1 .447 0l.002.002.163.134.022.022.47.386.047.046.003.002c.022.022.068.066.074.142zm6.148-7.627v1.417h-.827v.945h-.827v1.03H52.8V42.31h.85v-1.031h.827v-.923h1.252zm-.223.214H54.7v.924h-.827v1.01h.805v-.946h.827v-.988zm-1.654 1.955h-.827v1.009h.827v-1.01zm1.229 11.489v1.44h-1.274v-.946H53v-1.03h-.85v-1.418h1.275v1.01h.827v.944h.827zm-.224.215h-.827v-.945h-.804v1.01h.804v.945h.827v-1.01zm-1.654-.966v-.988h-.827v.988h.827zM45.468 42.63v1.418h-1.252v-.923h-.805v-1.031h-.85v-1.439h1.253v1.03h.849v.946h.805zm-.224.216h-.804V41.9h-.805v1.01h.805v.923h.804v-.988zm-1.654-.967v-1.01h-.805v1.01h.805zm1.878 9.858v1.439h-.805v.923h-.85v1.031h-1.251v-1.417h.85v-1.031h.804v-.945h1.252zm-.224.215h-.804v.945h-.805v.988h.805v-.924h.804v-1.01zm-1.654 1.975h-.805v.988h.805v-.988z" fill="#1938EF"/><path d="M49.09 48.88a.529.529 0 0 1-.76 0l-.359-.365c-.2-.214-.2-.558 0-.751l.358-.365a.529.529 0 0 1 .76 0l.358.365c.201.214.201.558 0 .751l-.358.365z" fill="#F25000"/><path fill-rule="evenodd" clip-rule="evenodd" d="M49.364 47.836l-.358-.366a.414.414 0 0 0-.594 0l-.002.002-.358.367h-.002c-.155.15-.16.427.004.604l.355.363c.183.174.443.167.597.003l.002-.002.359-.366v-.002c.156-.149.162-.426-.002-.603zm.163.754c.246-.237.24-.645.003-.898l-.359-.366a.644.644 0 0 0-.924 0l-.356.363c-.246.237-.24.645-.003.898l.36.368.002.001c.264.254.673.26.921-.003l.356-.363z" fill="#1938EF"/><path d="M43.099 95.227v-9.472l-2.057 2.084-1.14-.065-.29-1.074 1.832-1.997h-8.651l3.711-4.059 1.833.043v1.911h3.666l.492.559h2.258l.022 5.734h1.721l1.498 1.59-4.895 4.746zm9.478-.065l-4.583-4.682.693-1.589h1.945v-5.734h1.185l.536-.559h3.957v-1.911h2.928l3.935 3.651h-9.009l1.543 1.89-.202 1.332-1.34-.044-1.588-1.589v9.235z" fill="#1938EF"/><path d="M47.995 90.48l-1.498-1.589h-1.721l-.023-5.734h5.88v5.734h-1.946l-.692 1.59z" fill="#fff"/><path d="M43.099 89.793l-5.432-.064v-5.026h3.777L39.611 86.7l.291 1.074 1.14.065 2.057-2.084v4.038zm14.552-.172h-5.074v-3.694l1.587 1.59 1.341.043.202-1.332-1.543-1.89h3.487v5.283zm-12.898-6.464h-2.258l-.491-.559-1.677-1.933v-1.932l1.453-1.955.648-.859h9.367l.737.86 1.655 1.954v1.932l-1.856 1.933-.536.559h-7.042zm2.28-2.341a.333.333 0 0 0 .47 0l1.05-1.053a.328.328 0 0 0 0-.472l-1.05-1.052a.333.333 0 0 0-.47 0l-1.05 1.052a.328.328 0 0 0 0 .472l1.05 1.053z" fill="#F25000"/><path d="M42.003 82.598h-3.666v-1.911l-1.833-.043-.044-1.89h1.877v-1.976h3.443l-1.453 1.933v1.955l1.676 1.932zm14.307 0h-3.956l1.855-1.932V78.71l-1.654-1.933h3.755v1.976h2.929v1.933H56.31v1.911z" fill="#fff"/><path d="M47.503 80.816a.333.333 0 0 1-.47 0l-1.05-1.052a.328.328 0 0 1 0-.473l1.05-1.052a.334.334 0 0 1 .47 0l1.05 1.052a.328.328 0 0 1 0 .473l-1.05 1.052zm-9.166-2.062H36.46l-3.62-4.08h8.605l-1.833-1.955.56-1.03.96.064 1.968 1.933v-8.849l4.403 4.274-1.095 1.482h-1.632v5.305h-2.347l-.648.88h-3.443v1.976z" fill="#1938EF"/><path d="M59.239 78.754H56.31v-1.976h-3.755l-.738-.88h-1.408v-5.305h-1.677l-1.23-1.482 5.075-4.274v8.634l1.498-1.997 1.363.086.269 1.16-1.543 1.954h9.009l-3.934 4.08z" fill="#1938EF"/><path d="M50.409 75.898h-5.634v-5.305h1.632l1.096-1.482 1.23 1.482h1.676v5.305z" fill="#fff"/><path d="M41.444 74.674h-3.643v-4.918h5.298v3.93l-1.967-1.933-.962-.064-.559 1.03 1.833 1.955zm16.207 0h-3.487l1.543-1.955-.269-1.16-1.363-.085-1.498 1.997V69.8h5.074v4.875z" fill="#F25000"/><path fill-rule="evenodd" clip-rule="evenodd" d="M48.316 79.519l-.002-.002-1.046-1.048-1.046 1.048-.002.002s-.003.002-.003.008c0 .007.003.009.003.009l.002.002 1.032 1.034a.04.04 0 0 0 .014.002c.006 0 .01 0 .014-.002l1.032-1.034.002-.002s.003-.002.003-.009c0-.006-.003-.008-.003-.008zm.477.47a.64.64 0 0 0 0-.923l-1.05-1.053-.003-.002a.678.678 0 0 0-.944 0l-.002.002-1.051 1.053a.64.64 0 0 0 0 .923l1.061 1.063.015.011c.258.207.64.207.898 0l.015-.011 1.061-1.063z" fill="#FBC733"/><path fill-rule="evenodd" clip-rule="evenodd" d="M64.003 84.66h-6.016v5.284h-5.074v6.031l-4.925-5.03-5.224 5.065v-5.9l-5.432-.064v-5.022h-5.279l4.113-4.499-.039-1.65-4.015-4.524h5.354v-4.919h5.298v-5.379l4.755 4.615 5.394-4.542v5.35h5.074v4.875h5.954l-4.367 4.529v1.67l4.429 4.11zm-1.597-9.664h-5.09V70.12h-5.074v-4.573l-4.755 4.005-4.053-3.932v4.457h-5.297v4.918h-4.572l3.227 3.636.05 2.13-3.307 3.62h4.467v5.029l5.432.064v4.969l4.567-4.427 4.24 4.333V89.3h5.075v-5.284h5.027l-3.44-3.192v-2.196l3.503-3.632z" fill="#FBC733"/><path fill-rule="evenodd" clip-rule="evenodd" d="M57.652 74.996H53.49l1.856-2.352-.18-.779-.927-.058-1.997 2.662V69.8h.67v2.674l1-1.332 1.8.113.356 1.541-1.228 1.557h2.812v.644zm-1.006 3.436h2.593v.644h-3.264v-1.975h-3.42v-.645h4.09v1.976zm2.593 1.933v.644h-2.593v1.912h-4.292v-.645h3.621v-1.911h3.264zm-1.587 3.651v.644h-2.798l1.206 1.478-.265 1.753-1.778-.057-1.104-1.105v2.892h-.67v-4.495l2.07 2.073.904.03.138-.91-1.88-2.303h4.177zm-14.217-14.26v4.72l-2.454-2.41-.614-.041-.35.645 2.182 2.326H37.8v-.644h2.89l-1.484-1.583.768-1.417 1.308.088 1.48 1.456v-3.14h.672zM38.673 77.1h3.107v-.644h-3.778v1.976H36.46v.644h2.213v-1.975zm3.331 5.82h-4.002v-1.918l-1.505-.036.016-.644 2.16.05v1.904h3.33v.645zm1.431 2.028v4.845h-.671v-3.23l-1.585 1.606-1.54-.087-.396-1.466 1.46-1.59h-3.036v-.645h4.52l-2.206 2.404.185.682.74.041 2.529-2.56z" fill="#FBC733"/><path fill-rule="evenodd" clip-rule="evenodd" d="M54.544 78.596v2.195l-2.58 2.688H42.34l-.594-.674-1.754-2.023v-2.175l1.515-2.016.748-1.015h9.723l.837 1 1.73 2.02zm-.67.23l-1.58-1.844-.637-.762h-9.055l-.549.746-1.39 1.85v1.733l1.597 1.841.001.002.39.443h9.02l.436-.455 1.767-1.84v-1.713z" fill="#FBC733"/><path fill-rule="evenodd" clip-rule="evenodd" d="M50.968 83.157v6.056H48.91l-.81 1.86-1.753-1.86h-1.906l-.024-6.055.67-.002.022 5.413h1.536l1.243 1.32.576-1.32h1.832v-5.412h.67zm-.224-12.886v5.627h-.67v-4.983H48.57l-1.053-1.268-.937 1.268h-1.47v4.983h-.67v-5.627h1.793l1.253-1.695 1.407 1.695h1.85z" fill="#FBC733"/><path d="M47.972 81.868a1.042 1.042 0 0 1-1.408 0l-1.81-1.675a.895.895 0 0 1 0-1.31l1.81-1.675a1.042 1.042 0 0 1 1.408 0l1.81 1.675c.38.365.38.945 0 1.31l-1.81 1.675z" fill="#1938EF"/><path fill-rule="evenodd" clip-rule="evenodd" d="M49.548 79.113l-1.81-1.675-.003-.002a.697.697 0 0 0-.934 0l-.002.002-1.81 1.675a.582.582 0 0 0 0 .85l1.806 1.672c.277.25.695.241.94.006l.002-.003 1.81-1.675a.582.582 0 0 0 0-.85zm.472-.458a1.209 1.209 0 0 1 0 1.766l-.002.002-1.811 1.675c-.515.493-1.346.483-1.873.005l-.001-.001-1.815-1.679-.002-.002a1.208 1.208 0 0 1 0-1.766l.002-.002 1.811-1.675a1.388 1.388 0 0 1 1.878 0l1.81 1.675.003.002z" fill="#FBC733"/><path d="M48.062 87.302a.542.542 0 0 1-.738 0l-.939-.88a.467.467 0 0 1 0-.688l.939-.88a.542.542 0 0 1 .738 0l.939.88a.467.467 0 0 1 0 .688l-.94.88z" fill="#F25000"/><path fill-rule="evenodd" clip-rule="evenodd" d="M48.843 85.887l-.94-.882a.312.312 0 0 0-.42 0l-.003.002-.938.88a.258.258 0 0 0 0 .382l.94.881c.114.11.308.11.422 0l.002-.002.937-.88a.258.258 0 0 0 0-.381zm.316-.305a.676.676 0 0 1 0 .991l-.002.002-.938.88a.772.772 0 0 1-1.052 0l-.94-.882a.676.676 0 0 1 0-.99l.002-.002.938-.88a.772.772 0 0 1 1.052 0l.94.881z" fill="#FBC631"/><path d="M48.062 74.523a.542.542 0 0 1-.738 0l-.939-.88a.467.467 0 0 1 0-.687l.939-.88a.542.542 0 0 1 .738 0l.939.88a.467.467 0 0 1 0 .687l-.94.88z" fill="#F25000"/><path fill-rule="evenodd" clip-rule="evenodd" d="M48.843 73.108l-.94-.881a.312.312 0 0 0-.42 0l-.003.002-.938.88a.258.258 0 0 0 0 .381l.94.882a.313.313 0 0 0 .422 0l.002-.002.937-.88a.258.258 0 0 0 0-.382zm.316-.304a.676.676 0 0 1 0 .99l-.002.002-.938.88a.772.772 0 0 1-1.052 0l-.94-.881a.676.676 0 0 1 0-.991l.002-.002.938-.88a.772.772 0 0 1 1.052 0l.94.882z" fill="#FBC631"/><path d="M23.248 95.227l-3.442-3.35-3.018 3.35-3.33-3.35-2.37 2.727-.18-4.424-3.509-.022-.179-4.016-5.03-.042 1.744-3.158-3.308-2.92 3.532-2.943L2.146 73.6H7.51v-3.63h3.197l-.135-4.896 2.884 3.157 3.689-3.157 2.66 2.813 3.442-2.813v4.918h3.376l.067 3.866 4.582.064-2.794 3.179 2.794 2.77-2.794 2.986 2.794 3.736-4.94-.257-.47 3.586h-2.615v5.305zm-6.572-1.804l2.549-2.405v-4.725l2.682 2.598h2.616l.514-2.641-3.175-3.952 5.768-.172 2.079-2.255-2.08-2.255h-5.633l2.974-3.415-.023-2.834-2.995.107-2.728 2.642v-5.069l-2.28-2.169-2.593 2.17v4.66l-1.945-2.299H9.322l-.269 2.298 2.795 3.888H5.745l-2.459 2.47 2.459 2.061h6.214l-3.397 3.587-.045 3.157h3.554l.492.344-.492.687v1.976l1.409-1.697v-2.234l-.38-.3 1.296-1.611v4.983l2.28 2.405zm3.13-3.05l1.453 1.482V89.45l-1.453-1.525v2.448zm5.499-5.39h3.174l-1.587-1.933-3.13.021 1.543 1.912zm-20.32 0l3.308-.408 1.7-1.74H6.93l-1.945 2.148zm19.247-8.118l2.705-.043 1.542-1.826h-2.615l-1.632 1.869zm-17.503-.387l2.995.258-1.498-1.804-2.794.064 1.297 1.482zm13.077-4.038l1.632-1.481-.18-2.406-1.452 1.117v2.77zm-7.824-2.34l1.475 1.288-.179-1.74-1.475-1.589.179 2.04z" fill="#1938EF"/><path d="M19.224 91.017l-2.548 2.406-2.347-2.406v-4.982l-1.297 1.61-1.006 1.246H8.472l.045-3.157 3.398-3.586H5.7l-2.459-2.062 2.46-2.47h6.102L9.009 73.73l.268-2.298h3.085l1.945 2.298v-4.66L16.9 66.9l2.28 2.17v5.025l2.794-2.62 2.995-.108.023 2.835-2.973 3.415h5.633l2.079 2.255-2.079 2.255-5.767.172 3.174 3.952-.514 2.641h-2.616l-2.682-2.598v4.724h-.023zm-2.48.065l.089-.043h.134v-.086l1.319-.794h-1.32v-.537l1.163-.838h-1.162v-.516l1.162-.773h-1.162v-.494l1.184-.794h-1.184v-2.32h.111c.716-.064 1.252-.687 1.185-1.396-.044-.472-.626-1.396-1.028-1.997l.022-.021c.38.644 1.073 1.718 1.52 1.933.649.3 1.431.042 1.744-.602a1.274 1.274 0 0 0-.604-1.718c-.402-.193-1.43-.193-2.146-.15a.161.161 0 0 0-.044-.086l-.045-.043c.76.021 1.967-.022 2.37-.258a1.27 1.27 0 0 0 .38-1.783 1.292 1.292 0 0 0-1.789-.386c-.447.28-1.095 1.46-1.43 2.062l-.023-.022c.358-.666.894-1.782.85-2.255a1.285 1.285 0 0 0-1.274-1.16V74.03h1.318l-1.319-.838v-.451h1.342l-1.341-.859v-.43h1.34l-1.34-.923v-.43h1.207l-1.207-.816v-.107h-.247v.064l-1.43.86h1.43v.429l-1.296.923h1.297v.43l-1.297.859h1.297v.408l-1.32.88h1.32v1.977h.09-.046a1.295 1.295 0 0 0-1.162 1.417c.045.472.67 1.439 1.073 2.019l-.022.021c-.38-.623-1.118-1.76-1.565-1.954-.649-.3-1.43-.022-1.722.623a1.283 1.283 0 0 0 .626 1.718c.403.172 1.409.15 2.124.107 0 .043 0 .086.022.129-.402 0-.894.022-1.34.064l-.046-.15-3.196-.021v-1.053l-1.118 1.053H9.68v-1.053L8.54 79.98h-.536v-1.053l-1.23 1.053h-.559v-.945l-1.184 1.03.134.13 1.073 1.052v-1.074h.626l1.162.945v-.945h.604l1.073.945v-.945h.58l1.096.966v-.966h3.04c-.313.043-.558.107-.715.215a1.268 1.268 0 0 0-.358 1.782 1.317 1.317 0 0 0 1.811.365c.425-.279 1.028-1.374 1.341-1.997h.023c-.358.666-.894 1.697-.85 2.17.045.622.559 1.116 1.163 1.18h-.112v2.32h-1.43l1.43.923v.365h-1.476l1.476.924v.344h-1.476l1.476 1.009v.343H15.4l1.342.967zm5.476-3.801h1.05v-1.225h-.826v-.944h-.85V84.08h-1.05v1.224h.849v1.03h.827v.946zm-11.334-.323h1.029v-1.03h.85v-.945h.826v-1.225h-1.05v.945h-.828v1.031h-.849v1.225h.022zm14.419-5.777l1.252-1.052h.536v.945l1.185-1.031-.112-.107-1.073-1.074v1.117h-.581l-1.207-.988v.988h-.559l-1.118-.988v.988h-.536l-1.14-1.01v1.01h-2.415l.09.043 2.325.042v1.117l1.184-1.095h.492v1.117l1.185-1.096h.492v1.074zm-12.742-5.283h1.05v-1.224h-.826v-.945h-.85v-1.03h-1.05v1.223h.849v1.031h.827v.945zm8.651-.322h1.05v-1.03h.828V73.6h.827v-1.224h-1.05v.945h-.828v1.03h-.85v1.225h.023z" fill="#003E89"/><path d="M21.259 91.877l-1.453-1.504v-2.448l1.453 1.546v2.406zm-9.21 0V89.9l.492-.687.916-1.289v2.234l-1.408 1.718z" fill="#F25000"/><path d="M16.832 91.017l-.089.065-1.341-.924h1.319v.86h.111z" fill="#1938EF"/><path d="M16.833 91.017h-.112v-.859h.246v.795l-.134.064zm.134.001h-.134l.134-.065v.065z" fill="#2240F0"/><path d="M18.286 90.158l-1.32.795v-.795h1.32z" fill="#1938EF"/><path d="M16.967 90.159h-.246v-.344l.246-.172v.516zm0-.516l-.246.172v-1.01h.246v.838z" fill="#2240F0"/><path d="M16.72 89.815l-1.475-1.01h1.476v1.01zm1.41-1.01l-1.163.838v-.838h1.162zm-4.673-.88l-.917 1.288-.491-.343 1.006-1.246.402.3z" fill="#1938EF"/><path d="M16.967 88.805h-.246v-.365l.246-.15v.515z" fill="#2240F0"/><path d="M16.967 88.29l-.246.15v-.923h.246v.773z" fill="#2240F0"/><path d="M16.72 88.44l-1.475-.923h1.476v.923zm.247-.15v-.773h1.162l-1.162.773z" fill="#1938EF"/><path d="M16.967 87.517h-.246v-.365h.022l.224-.13v.495z" fill="#2240F0"/><path d="M23.27 87.28h-1.05v-.944l.223-.28h.827v1.225z" fill="#F25000"/><path d="M16.967 87.023l-.224.129h-.022v-.924h.246v.795z" fill="#2240F0"/><path d="M16.72 87.152l-1.452-.924h1.453v.924zm1.431-.924l-1.184.795v-.795h1.184z" fill="#1938EF"/><path d="M11.915 86.959h-1.028v-1.203h.85l.178.193v1.01zm10.305-.623h-.827v-1.01l.2-.193h.85v.924l-.223.279z" fill="#F25000"/><path d="M16.967 86.228h-.246v-2.32h.246v2.32z" fill="#2240F0"/><path d="M12.764 85.949h-.85l-.178-.193v-1.031h.827l.201.279v.945zm8.629-.623h-.827v-1.224h1.028v1.03l-.201.194z" fill="#F25000"/><path d="M13.591 85.004h-.827l-.201-.279v-.945h1.028v1.224zm14.888-.021h-3.174l-1.52-1.89 3.107-.022 1.587 1.912zm-20.186-.408l-3.308.408 1.945-2.148h3.062l-1.699 1.74zm8.786-.666h-.246c-.604-.065-1.118-.537-1.163-1.181-.044-.473.492-1.504.85-2.17l.179.15c.09.065.223.065.313 0l.223-.192c.403.601.984 1.524 1.029 1.997a1.325 1.325 0 0 1-1.185 1.396zm-1.923-1.353a1.317 1.317 0 0 1-1.81-.365 1.264 1.264 0 0 1 .357-1.783c.156-.107.402-.172.715-.215h.224l-.023-.021c.447-.043.94-.065 1.342-.065 0 .022.022.022.044.043l.515.408c-.336.623-.962 1.718-1.364 1.998z" fill="#F25000"/><path d="M20.499 81.826a1.3 1.3 0 0 1-1.744.601c-.447-.215-1.14-1.289-1.52-1.933l.447-.365c.067-.043.067-.107.045-.172.715-.043 1.744-.043 2.146.15.67.323.939 1.096.626 1.719z" fill="#F25000"/><path d="M6.26 81.267l-1.051-1.052v-.022h1.05v1.074zm20.297-1.138l-1.252 1.052v-1.074l1.252.022zm-1.744-.043l-1.185 1.096v-1.117l1.185.021zm-1.676-.022l-1.163 1.096v-1.117l1.163.021zM11.378 81.16l-1.073-.967h1.073v.967zm-1.676-.022l-1.051-.945h1.05v.945zm-1.655 0l-1.162-.945h1.162v.945zm20.231-1.095l-1.185 1.031v-.945l1.028.021v-.193l.045-.043.112.13z" fill="#1938EF"/><path d="M5.209 80.215l-.135-.129 1.185-1.052v.945l-1.05-.022v.258z" fill="#1938EF"/><path d="M6.26 80.194H5.208v-.237l1.05.022v.215z" fill="#2240F0"/><path d="M6.885 80.194h-.626v-.215h.559l-.09.086.157.129z" fill="#2240F0"/><path d="M8.047 80.194H6.885l-.157-.13.09-.085h1.23v.215z" fill="#2240F0"/><path d="M8.65 80.194h-.603v-.215h.537l-.09.086.157.129z" fill="#2240F0"/><path d="M9.702 80.194H8.65l-.156-.13.089-.085h1.118v.215zm.603 0h-.603v-.215l.559.021-.09.086.134.108z" fill="#2240F0"/><path d="M11.378 80.193h-1.073l-.134-.107.09-.086h1.117v.193zm3.04 0h-3.04V80l3.197.022.045.15c-.067 0-.134 0-.202.021z" fill="#2240F0"/><path d="M14.642 80.194h-.224c.067 0 .134-.022.201-.022l.023.022z" fill="#F25000"/><path d="M28.122 80.15l-1.029-.02v-.173h1.029v.194zm-1.029-.02h-.536l.067-.065-.112-.108h.581v.172z" fill="#2240F0"/><path d="M26.557 80.13l-1.252-.022v-.15h1.207l.112.107-.067.064z" fill="#2240F0"/><path d="M25.305 80.108l-.492-.022.045-.021-.112-.108h.559v.15z" fill="#2240F0"/><path d="M24.813 80.086l-1.185-.021v-.108h1.118l.112.108-.045.021zm-1.185-.021h-.491l.044-.022-.09-.086h.537v.108z" fill="#2240F0"/><path d="M23.181 80.043l-.045.022-1.162-.022v-.086h1.118l.09.086z" fill="#2240F0"/><path d="M21.974 80.043L19.65 80l-.09-.043h2.415v.086z" fill="#2240F0"/><path d="M11.378 80h-1.117l1.117-1.052V80zm-1.676-.021H8.584l1.118-1.053v1.053z" fill="#1938EF"/><path d="M15.939 79.979c-.716.043-1.722.064-2.124-.108a1.283 1.283 0 0 1-.626-1.718c.29-.644 1.073-.923 1.721-.623.47.215 1.185 1.332 1.565 1.955l-.492.408c-.022.021-.044.043-.044.086z" fill="#F25000"/><path d="M8.047 79.979h-1.23l1.23-1.053v1.053zm15.045-.022h-1.118v-1.01l1.118 1.01zm1.654 0h-1.118v-.988l1.118.988zm1.766 0h-1.207v-.988l1.207.988zm1.61 0h-1.029v-1.095l1.073 1.052-.044.043z" fill="#1938EF"/><path d="M20.007 79.57c-.402.258-1.61.28-2.37.258l-.469-.386c.313-.602.984-1.783 1.43-2.062a1.292 1.292 0 0 1 1.79.387 1.29 1.29 0 0 1-.38 1.804z" fill="#F25000"/><path d="M16.676 79.313l-.179.15c-.402-.58-1.028-1.546-1.073-2.018a1.295 1.295 0 0 1 1.163-1.418h.156c.649 0 1.207.494 1.274 1.16.045.472-.491 1.59-.85 2.255l-.155-.129a.25.25 0 0 0-.336 0zM26.937 76.8l-2.705.065 1.632-1.89h2.615L26.937 76.8zm-17.235-.043l-2.973-.279-1.32-1.46 2.795-.065 1.498 1.804z" fill="#F25000"/><path d="M16.609 76.005h-.134V74.03h.246v1.975h-.112z" fill="#2240F0"/><path d="M13.591 75.898h-1.028v-.945l.201-.279h.827v1.224zm8.674-.322h-1.051v-1.203h.85l.2.194v1.009z" fill="#F25000"/><path d="M12.563 74.953h-.827v-1.01l.179-.192h.85v.923l-.202.28zm10.529-.387h-.827l-.201-.193v-1.03h.827l.2.278v.945z" fill="#F25000"/><path d="M16.475 74.051h-1.319l1.32-.88v.88z" fill="#1938EF"/><path d="M16.72 74.051h-.245v-.88l.112-.065.134.086v.86z" fill="#2240F0"/><path d="M18.04 74.051h-1.32v-.859l1.32.86z" fill="#1938EF"/><path d="M11.736 73.944h-.85V72.72h1.029v1.03l-.179.194zm12.183-.322h-.827l-.201-.28v-.945h1.028v1.225z" fill="#F25000"/><path d="M16.72 73.192l-.133-.086-.112.065v-.408h.246v.43z" fill="#2240F0"/><path d="M16.475 72.763H15.18l1.296-.86v.86z" fill="#1938EF"/><path d="M16.72 72.763h-.245v-.86l.134-.085.112.085v.86z" fill="#2240F0"/><path d="M18.062 72.763h-1.341v-.86l1.341.86z" fill="#1938EF"/><path d="M21.438 70.959l-1.632 1.481v-2.77l1.453-1.117.178 2.406z" fill="#F25000"/><path d="M16.475 71.904v-.43h.246v.43l-.112-.086-.134.086z" fill="#2240F0"/><path d="M16.475 71.474H15.18l1.296-.924v.924z" fill="#1938EF"/><path d="M16.72 71.474h-.245v-.924l.134-.085.112.085v.924z" fill="#2240F0"/><path d="M18.062 71.474h-1.341v-.924l1.341.924z" fill="#1938EF"/><path d="M13.457 71.388l-1.475-1.289-.18-2.04 1.476 1.59.179 1.739z" fill="#F25000"/><path d="M16.475 70.55v-.45h.246v.45l-.112-.085-.134.086z" fill="#2240F0"/><path d="M16.475 70.1h-1.43l1.43-.86v.86z" fill="#1938EF"/><path d="M16.72 70.1h-.245v-.86l.112-.042.134.085v.817z" fill="#2240F0"/><path d="M17.928 70.1h-1.207v-.817l1.207.817z" fill="#1938EF"/><path d="M16.72 69.283l-.133-.085h.134v.085zm-.245-.043v-.042h.112l-.112.043z" fill="#2240F0"/><path fill-rule="evenodd" clip-rule="evenodd" d="M29.88 79.85l-2.176 2.382-5.619.146 3.07 3.823-.54 2.776H21.86l-2.524-2.445v4.53l-2.664 2.515-2.433-2.517v-4.732l-1.096 1.362-1.04 1.287H8.382l.047-3.306 3.256-3.437H5.681L3.1 80.072l2.574-2.585h5.937l-2.697-3.751.284-2.455h3.238l1.802 2.105v-4.388l2.71-2.267 2.387 2.271v4.834l2.59-2.468 3.131-.135.047 2.985-2.846 3.27h5.444l2.178 2.361zm-.298 0l-1.98-2.148h-5.823l3.1-3.56-.042-2.685-2.815.122-2.91 2.773v-5.26l-2.173-2.068-2.476 2.072v4.89l-2.132-2.49H9.4l-.252 2.183 2.891 4.023H5.77l-2.345 2.356 2.34 1.96h6.425l-3.54 3.737-.042 3.008h3.386l.972-1.205 1.497-1.859v5.276l2.217 2.294 2.433-2.297V86.01l2.84 2.752h2.477l.487-2.506-3.278-4.081 5.961-.155 1.982-2.17z" fill="#fff"/><path fill-rule="evenodd" clip-rule="evenodd" d="M28.711 85.09h-3.46l-1.693-2.103 3.388-.024 1.765 2.127zm-1.872-1.911l-2.828.02 1.349 1.676h2.887L26.84 83.18zm1.875-8.312l-1.723 2.04-3.002.07 1.822-2.11h2.903zm-.47.215h-2.328l-1.441 1.67 2.407-.058 1.362-1.612zm-6.691-4.08l-1.86 1.688v-3.072l1.662-1.276.198 2.66zm-.39-2.237l-1.246.957v2.47l1.405-1.277-.16-2.15zm-7.566 2.89l-1.723-1.505-.21-2.402 1.722 1.855.211 2.052zm-.426-1.961l-1.228-1.323.147 1.677 1.228 1.073-.147-1.427zm-3.217 7.195l-3.28-.308-1.504-1.665 3.087-.072 1.697 2.045zm-1.803-1.827l-2.501.057 1.134 1.256 2.666.25-1.299-1.563zm2.099 7.666l-1.903 1.948-3.64.45 2.172-2.398h3.372zm-.516.215H6.981L5.262 84.84l2.977-.367 1.495-1.53zm3.835 4.634v2.619l-1.632 1.99v-2.319l.511-.714 1.12-1.576zm-.224.695l-.712 1.002-.472.66v1.633l1.184-1.446v-1.849zm8.025 1.158v2.72l-1.676-1.735v-2.77l1.677 1.785zm-.223.083l-1.23-1.309v2.127l1.23 1.272v-2.09z" fill="#fff"/><path fill-rule="evenodd" clip-rule="evenodd" d="M32.013 73.589l-3.08 3.475 2.823 2.778-2.846 3.016 3.07 4.072-5.333-.278-.49 3.57h-2.573v5.79l-3.762-3.661-3.022 3.355-3.326-3.346-2.684 3.089-.225-4.949-3.511-.021-.157-4.016-5.26-.022 1.88-3.43-3.394-2.996 3.588-3.007-2.157-3.73h5.6v-3.63h3.21l-.15-5.451 3.272 3.558 3.685-3.133 2.665 2.818 3.748-3.063v5.271h3.392l.067 3.87 4.97.07zm-1.401 12.625l-2.564-3.402 2.787-2.954-2.81-2.764 2.554-2.881-4.196-.06-.067-3.86h-3.403V65.77l-3.137 2.564-2.656-2.81-3.692 3.14-2.495-2.714.119 4.342H7.824v3.63h-5.13L4.56 77.15l-3.432 2.877 3.223 2.845L2.745 85.8l4.798.02.157 4.017 3.507.022.178 3.9 2.055-2.367 3.336 3.355 3.014-3.346 3.123 3.04V89.58h2.657l.494-3.603 4.548.238z" fill="#fff"/><path fill-rule="evenodd" clip-rule="evenodd" d="M26.782 80.064l-.149.143-1.44 1.21v-2.68l1.395 1.141.194.186zm-.317 0l-1.049.88v-1.742l1.02.834.029.028zm1.968-.01l-1.451 1.262V78.6l1.267 1.243.184.212zm-.35-.068l-.878-.861v1.707l.919-.8-.04-.046zm-3.037.108l-.168.08-1.361 1.26v-2.71l1.306 1.156.223.214zm-.358-.041l-.02-.018-.928-.821v1.715l.948-.876zm-1.318.02l-.168.08-1.34 1.263V78.7l1.307 1.18.2.193zm-.359-.041l-.925-.836v1.708l.925-.872zm-4.547 8.666l-1.432 1.032-.31.217-1.826-1.249h3.568zm-.67.215h-2.199l1.125.77.18-.126.894-.644zm.88 1.138l-1.652.996-.13.062-.147.106-1.69-1.164h3.62zm-.777.215H15.75l.992.683.032-.023.138-.066.985-.594zm.59-2.856l-1.458.97-.308.188-1.851-1.159h3.617zm-.715.214h-2.15l1.1.689.183-.112.867-.577zm.735-1.504l-1.48.993-.253.146h-.087l-1.79-1.138h3.61zm-.71.216h-2.158l1.095.696.172-.1.89-.596zM8.16 78.687v2.683l-1.348-1.095-.248-.204.177-.17 1.418-1.214zm-.224.479l-1.041.89-.002.002.065.054.978.795v-1.741zm-1.566-.378v2.746L5.129 80.29l-.215-.207 1.458-1.295zm-.223.491l-.912.81.054.052.858.86v-1.722zm3.666-.609v2.716l-1.237-1.113-.246-.202.176-.17 1.307-1.23zm-.223.512l-.927.873-.004.003.067.055.864.778v-1.71zm1.9-.49v2.716l-1.26-1.134-.225-.18.177-.17 1.308-1.232zm-.224.511l-.927.873-.003.003.043.034.887.799v-1.709zm7.144-7.622h-3.57l1.57-1.118.205-.131.173.133 1.622 1.116zm-.696-.215l-1.06-.73-.051-.039-.064.041-1.022.728h2.197zm.566-1.159h-3.626l1.77-1.063.175-.067.186.118 1.496 1.012zm-1.623-.835l-.084-.054-.047.018-1.092.656h2.14l-.917-.62zm1.774 3.498H14.82l1.594-1.056.202-.13.172.133 1.644 1.053zm-.738-.215l-1.038-.665-.052-.04-.065.042-1 .663h2.155zm.711 1.503h-3.605l1.615-1.078.176-.101.194.124 1.62 1.055zm-1.745-.877l-.075-.048-.048.028-1.023.683h2.163l-1.017-.663z" fill="#2240F0"/><path fill-rule="evenodd" clip-rule="evenodd" d="M19.945 79.481c.55-.352.698-1.081.346-1.637a1.177 1.177 0 0 0-1.63-.353h-.002a1.6 1.6 0 0 0-.34.332 6.17 6.17 0 0 0-.391.545c-.26.402-.505.844-.66 1.143l-.104.199h.012c.113.006.273.01.461.01h.002l.002.001c.378.01.865.01 1.306-.024a4.9 4.9 0 0 0 .603-.08c.177-.036.312-.083.395-.136zm-2.956.326l-.1-.048v-.001l.001-.001v-.001l.001-.001v-.001l.002-.004h.001v-.001l.004-.007v-.002h.001v-.002l.005-.007v-.001l.004-.008.16-.307c.157-.302.405-.751.67-1.16.133-.205.27-.401.405-.565a1.79 1.79 0 0 1 .394-.378 1.406 1.406 0 0 1 1.945.42 1.394 1.394 0 0 1-.413 1.928 1.456 1.456 0 0 1-.471.168 5.13 5.13 0 0 1-.633.083c-.452.035-.947.035-1.33.025a10.031 10.031 0 0 1-.642-.021h-.01l-.002-.001h-.001l.009-.107zm0 0l-.01.107-.164-.013.074-.142.1.048z" fill="#fff"/><path fill-rule="evenodd" clip-rule="evenodd" d="M20.397 81.78a1.169 1.169 0 0 0-.55-1.576h-.002a1.44 1.44 0 0 0-.373-.102 4.921 4.921 0 0 0-.538-.051 11.477 11.477 0 0 0-1.178.013h-.002c-.223.011-.418.022-.557.03l-.054.003c.047.088.113.209.19.345.189.32.455.746.728 1.118.137.186.274.356.404.493.131.138.247.233.34.278h.001a1.187 1.187 0 0 0 1.591-.55zM16.967 80l-.008-.107.015-.001.045-.003.164-.01.56-.03c.36-.02.8-.032 1.202-.013.2.01.394.027.564.055.168.027.32.065.435.12a1.38 1.38 0 0 1 .656 1.86 1.414 1.414 0 0 1-1.896.652 1.52 1.52 0 0 1-.405-.326 5.464 5.464 0 0 1-.42-.513c-.28-.38-.55-.813-.742-1.137v-.002a21.914 21.914 0 0 1-.25-.458l-.015-.029-.004-.007-.001-.003.1-.048zm0 0l-.1.048-.076-.144.168-.011.008.107z" fill="#fff"/><path fill-rule="evenodd" clip-rule="evenodd" d="M17.073 83.801c.65-.06 1.14-.629 1.08-1.279a1.483 1.483 0 0 0-.116-.397 5.242 5.242 0 0 0-.252-.512c-.2-.361-.443-.74-.644-1.04-.112-.171-.206-.31-.273-.406l-.006.012c-.059.108-.143.258-.244.43-.178.333-.4.753-.57 1.148a4.676 4.676 0 0 0-.206.554 1.16 1.16 0 0 0-.06.407v.002c.04.589.508 1.02 1.057 1.081h.234zm-.126-3.906l.002.003.005.008.021.03.08.112c.067.097.162.237.274.41.202.301.45.685.653 1.054.102.185.193.367.262.534.069.166.118.324.13.457.073.766-.507 1.443-1.285 1.513h-.269c-.655-.07-1.212-.583-1.261-1.28a1.382 1.382 0 0 1 .067-.482c.051-.179.127-.378.215-.58.175-.404.4-.832.58-1.165v-.002l.001-.001a16.733 16.733 0 0 0 .327-.586l.005-.008.001-.003.084-.161.108.147z" fill="#fff"/><path fill-rule="evenodd" clip-rule="evenodd" d="M16.729 80.022h-.005l-.01-.001-.043-.003c-.037-.002-.09-.005-.158-.007a13.995 13.995 0 0 0-1.9.053.804.804 0 0 0-.11.012H14.5a.529.529 0 0 1-.082.01h-.008l-.008.001c-.314.043-.583.11-.763.233a1.369 1.369 0 0 0-.388 1.929 1.432 1.432 0 0 0 1.967.396l.002-.001.001-.001c.114-.08.237-.21.359-.365.123-.155.251-.341.375-.536.248-.39.485-.823.643-1.137v-.002a7.542 7.542 0 0 1 .205-.395l.011-.02.003-.005.089-.15-.177-.011zm-.333.49c.057-.118.106-.214.144-.285l-.037-.002a13.769 13.769 0 0 0-1.873.054h-.011a.53.53 0 0 0-.082.01h-.003a.967.967 0 0 1-.107.012c-.307.042-.527.104-.66.194v.001l-.002.001a1.16 1.16 0 0 0-.326 1.635c.368.55 1.101.688 1.653.335.086-.06.192-.17.31-.319.117-.147.24-.327.363-.518.243-.383.476-.808.63-1.117z" fill="#fff"/><path fill-rule="evenodd" clip-rule="evenodd" d="M16.735 80.02l-.014-.106.1-.048.07.135-.156.02zm-.79.066a11.865 11.865 0 0 0 .774-.063l.012-.002h.004l-.014-.107.1-.048-.002-.002-.003-.006-.012-.024a8.511 8.511 0 0 0-.233-.403c-.19-.313-.466-.75-.754-1.139a5.529 5.529 0 0 0-.436-.526 1.519 1.519 0 0 0-.423-.332c-.705-.328-1.555-.024-1.871.675a1.389 1.389 0 0 0 .679 1.859h.002l.001.001c.224.096.597.133.987.144.396.01.83-.005 1.188-.027zm.601-.26a11.847 11.847 0 0 1-.613.046h-.002c-.356.02-.782.037-1.169.026-.391-.01-.722-.048-.9-.124a1.178 1.178 0 0 1-.572-1.575l.001-.003c.266-.589.98-.843 1.57-.569.098.045.22.142.356.285a5.4 5.4 0 0 1 .418.505 15.474 15.474 0 0 1 .911 1.409z" fill="#fff"/><path fill-rule="evenodd" clip-rule="evenodd" d="M17.884 77.175a1.175 1.175 0 0 0-1.163-1.062h-.022l-.021.021h-.086a1.187 1.187 0 0 0-1.056 1.3c.01.103.052.24.122.403.069.161.162.34.267.525.21.37.465.753.665 1.042l.001.001c.1.149.188.27.251.355l.001-.002c.052-.092.124-.224.201-.383l.001-.002.001-.002c.178-.331.4-.773.571-1.19.086-.209.158-.409.206-.585.049-.178.07-.322.06-.42zm-1.03 2.782l-.087.066-.002-.002-.006-.007a2.306 2.306 0 0 1-.098-.128 8.646 8.646 0 0 1-.257-.364c-.202-.29-.461-.68-.675-1.057a5.593 5.593 0 0 1-.278-.546 1.644 1.644 0 0 1-.138-.465 1.404 1.404 0 0 1 1.263-1.534h.023a.227.227 0 0 1 .059-.018c.026-.004.05-.004.061-.004h.002c.709 0 1.313.54 1.385 1.257a1.47 1.47 0 0 1-.067.496 5.39 5.39 0 0 1-.214.609c-.175.425-.4.873-.58 1.208a7.281 7.281 0 0 1-.27.504l-.018.03-.004.008-.002.002-.096-.055zm0 0l.097.056-.084.134-.1-.124.088-.066z" fill="#fff"/><path fill-rule="evenodd" clip-rule="evenodd" d="M17.606 80.072a.058.058 0 0 0 .015-.06l-.006-.016v-.015a.243.243 0 0 0-.012-.012l-.041-.04-.47-.387-.022-.021-.15-.124a.163.163 0 0 0-.174 0l-.172.145-.023.022-.505.419-.013.006-.005.002v.013l-.008.016a.121.121 0 0 0 .01.024l.029.027.479.38h.024l.207.174a.163.163 0 0 0 .172 0l.22-.19.445-.363zm.232-.111a.268.268 0 0 1-.077.266l-.003.002-.45.368-.225.195-.004.003a.393.393 0 0 1-.447 0l-.004-.003-.15-.126h-.02l-.55-.436-.061-.059-.008-.015a.193.193 0 0 1-.033-.201.176.176 0 0 1 .04-.094.238.238 0 0 1 .074-.058l.48-.397.021-.021.185-.156.003-.002a.393.393 0 0 1 .447 0l.003.002.163.134.022.021.47.387.047.046.002.002c.023.022.069.065.075.142zm6.192-7.671v1.439h-.826v.945h-.827v1.01h-1.275v-1.418h.85v-1.031h.827v-.945h1.252zm-.223.215h-.804v.945h-.828v1.01h.805v-.946h.827v-1.01zm-1.654 1.976h-.827v.988h.827v-.988zm1.229 11.468v1.439h-1.274v-.945h-.827v-1.01h-.827v-1.438h1.252v1.03h.85v.924h.826zm-.223.215h-.827v-.924h-.827v.988h.827v.945h.827v-1.01zm-1.677-.945v-1.01h-.805v1.01h.805zm-7.779-10.653v1.44h-1.252v-.946h-.827v-1.009h-.85v-1.439h1.253v1.03h.849v.924h.827zm-.223.215h-.828v-.923h-.804v.988h.827v.945h.805v-1.01zm-1.677-.945v-1.01h-.805v1.01h.805zm1.9 9.837v1.439h-.827v.945h-.85v1.009h-1.251v-1.418h.85v-1.03h.826v-.945h1.252zm-.223.214h-.805v.945h-.827v1.01h.804v-.945h.828v-1.01zm-1.677 1.976h-.805v.988h.805v-.988z" fill="#fff"/><path d="M15.737 79.678l.827-.795c.157-.15.38-.15.537 0l.827.795a.342.342 0 0 1 0 .515l-.827.795a.375.375 0 0 1-.537 0l-.827-.795c-.134-.129-.134-.365 0-.515z" fill="#003E89"/><path fill-rule="evenodd" clip-rule="evenodd" d="M17.85 80.118c.112-.109.112-.256 0-.364l-.828-.795a.26.26 0 0 0-.378 0l-.824.792c-.099.113-.09.283-.004.367l.827.794a.26.26 0 0 0 .379 0l.827-.794zm.157-.516c.2.192.2.475 0 .667l-.827.795a.49.49 0 0 1-.695 0l-.827-.794c-.18-.174-.172-.475-.005-.662l.002-.003.83-.797a.49.49 0 0 1 .695 0l.827.794z" fill="#FCFCFC"/></g><defs><clipPath id="a"><path fill="#fff" transform="rotate(90 32 32)" d="M0 0h96v64H0z"/></clipPath></defs></svg>