<svg width="78" height="30" viewBox="0 0 78 30" fill="none" xmlns="http://www.w3.org/2000/svg"><g clip-path="url(#a)"><path d="M38.699 2.059v23.118A3.003 3.003 0 0 1 35 28.095v1.61a4.618 4.618 0 0 0 5.548-4.528V2.059h-1.85zm10.167 0v23.118a3.003 3.003 0 0 1-3.699 2.918v1.61a4.618 4.618 0 0 0 5.548-4.528V2.059h-1.849zm17.582 21.264c-6.125 0-11.097-4.983-11.097-11.096 0-6.125 4.984-11.097 11.097-11.097 6.113 0 11.097 4.984 11.097 11.097 0 6.125-4.984 11.096-11.097 11.096zm0-20.344c-5.104 0-9.247 4.156-9.247 9.248s4.155 9.247 9.247 9.247 9.247-4.155 9.247-9.247-4.143-9.248-9.247-9.248zM44.026 7.63l-.912-.193.9-6.437 1.802.384-1.79 6.245zM23.99 12.548A7.73 7.73 0 0 0 13.455 2.009 20.134 20.134 0 0 1 3.45 4.656h-.499A2.95 2.95 0 0 0 .284 8.858 12.54 12.54 0 0 1 .41 19.286a4.778 4.778 0 0 0 6.303 6.304 12.536 12.536 0 0 1 10.426.127 2.953 2.953 0 0 0 4.214-2.669v-.499a20.139 20.139 0 0 1 2.646-10.005l-.008.004z" fill="#000"/><path d="M23.99 12.548A7.73 7.73 0 0 0 13.455 2.009 20.134 20.134 0 0 1 3.45 4.656h-.499A2.95 2.95 0 0 0 .284 8.858 12.54 12.54 0 0 1 .41 19.286a4.778 4.778 0 0 0 6.303 6.304 12.536 12.536 0 0 1 10.426.127 2.953 2.953 0 0 0 4.214-2.669v-.499a20.139 20.139 0 0 1 2.646-10.005l-.008.004z" stroke="#000"/></g><defs><clipPath id="a"><path fill="#fff" d="M0 0h78v30H0z"/></clipPath></defs></svg>