<svg width="40" height="32" viewBox="0 0 40 32" fill="none" xmlns="http://www.w3.org/2000/svg"><path d="M38 2H2a2 2 0 0 0-2 2v24a2 2 0 0 0 2 2h36a2 2 0 0 0 2-2V4a2 2 0 0 0-2-2zM11 20.492V21.5a.5.5 0 0 1-.5.5h-1a.5.5 0 0 1-.5-.5v-1.018a3.579 3.579 0 0 1-1.96-.71.5.5 0 0 1-.036-.758l.734-.7a.513.513 0 0 1 .633-.047c.242.152.516.233.801.233h1.757c.407 0 .738-.37.738-.824 0-.372-.226-.7-.548-.796l-2.813-.844c-1.162-.349-1.973-1.464-1.973-2.712 0-1.532 1.19-2.777 2.666-2.816V9.5a.5.5 0 0 1 .5-.5h1a.5.5 0 0 1 .5.5v1.018a3.574 3.574 0 0 1 1.961.71.5.5 0 0 1 .036.758l-.735.7a.513.513 0 0 1-.633.046 1.499 1.499 0 0 0-.801-.232H9.07c-.406 0-.738.37-.738.824 0 .372.226.7.549.796l2.812.844c1.162.348 1.974 1.463 1.974 2.712 0 1.533-1.19 2.777-2.667 2.817zm15-.992a.5.5 0 0 1-.5.5h-7a.5.5 0 0 1-.5-.5v-1a.5.5 0 0 1 .5-.5h7a.5.5 0 0 1 .5.5v1zm10 0a.5.5 0 0 1-.5.5h-5a.5.5 0 0 1-.5-.5v-1a.5.5 0 0 1 .5-.5h5a.5.5 0 0 1 .5.5v1zm0-6a.5.5 0 0 1-.5.5h-17a.5.5 0 0 1-.5-.5v-1a.5.5 0 0 1 .5-.5h17a.5.5 0 0 1 .5.5v1z" fill="#000"/></svg>