<svg width="40" height="40" viewBox="0 0 40 40" fill="none" xmlns="http://www.w3.org/2000/svg"><circle cx="20" cy="20" r="20" fill="url(#a)"/><g clip-path="url(#b)" fill="#fff"><path d="M16.026 14.864h-.774v-.774a.586.586 0 0 0-1.172 0v1.36c0 .323.262.586.586.586h1.36a.586.586 0 0 0 0-1.172z"/><path d="M14.665 10.785A4.67 4.67 0 0 0 10 15.45a4.67 4.67 0 0 0 4.665 4.666 4.67 4.67 0 0 0 4.666-4.665 4.67 4.67 0 0 0-4.666-4.666zm0 8.159a3.497 3.497 0 0 1-3.493-3.493 3.497 3.497 0 0 1 3.493-3.494 3.497 3.497 0 0 1 3.494 3.493 3.497 3.497 0 0 1-3.494 3.494z"/><path d="M29.94 20.84l-.002-.004-1.883-3.766a.586.586 0 0 0-.524-.324h-4.435V15.45a.586.586 0 0 0-.585-.586h-2.038a5.844 5.844 0 0 1-5.808 6.423A5.832 5.832 0 0 1 10 18.954v7.793c0 .324.262.586.586.586h2.623a2.473 2.473 0 0 0 2.398 1.883c1.16 0 2.134-.804 2.398-1.883h3.99a2.473 2.473 0 0 0 2.398 1.883c1.16 0 2.134-.804 2.398-1.883h2.623a.586.586 0 0 0 .586-.586v-5.648a.583.583 0 0 0-.06-.258zm-14.333 7.203a1.298 1.298 0 0 1-1.297-1.297c0-.715.582-1.297 1.297-1.297s1.297.582 1.297 1.297-.582 1.297-1.297 1.297zm8.786 0a1.298 1.298 0 0 1-1.297-1.297c0-.715.582-1.297 1.297-1.297s1.297.582 1.297 1.297-.582 1.297-1.297 1.297zm-1.297-7.531v-2.594h4.073l1.297 2.594h-5.37z"/></g><defs><linearGradient id="a" x1="-.379" y1="4.364" x2="45.186" y2="5.691" gradientUnits="userSpaceOnUse"><stop stop-color="#367EDF"/><stop offset="1" stop-color="#89B2FF"/></linearGradient><clipPath id="b"><path fill="#fff" transform="translate(10 10)" d="M0 0h20v20H0z"/></clipPath></defs></svg>