<svg width="15" height="17" viewBox="0 0 15 17" fill="none" xmlns="http://www.w3.org/2000/svg"><path d="M.042 6.098a5.339 5.339 0 0 1 1.541-3.78A7.892 7.892 0 0 1 5.27.265 9.238 9.238 0 0 1 7.48 0c1.15 0 2.222.228 3.216.681a5.981 5.981 0 0 1 2.417 1.978c.621.865.93 1.843.93 2.933a8.72 8.72 0 0 1-.21 1.918 7.472 7.472 0 0 1-.653 1.808 6.228 6.228 0 0 1-1.094 1.527 4.784 4.784 0 0 1-1.585 1.053 5.321 5.321 0 0 1-2.067.394c-.495 0-.988-.11-1.475-.327-.488-.218-.837-.516-1.048-.899-.074.266-.175.65-.31 1.15-.128.502-.215.825-.254.971a20.1 20.1 0 0 1-.224.725 4.693 4.693 0 0 1-.284.726l-.348.637c-.15.273-.319.538-.504.792-.183.247-.41.543-.679.883l-.15.05-.1-.102c-.109-1.07-.164-1.71-.164-1.922 0-.627.08-1.33.237-2.11.155-.78.4-1.76.728-2.937.329-1.177.517-1.87.567-2.075-.231-.44-.349-1.017-.349-1.726 0-.566.19-1.096.569-1.594.38-.497.86-.746 1.442-.746.446 0 .792.138 1.04.415.248.276.37.624.37 1.048 0 .45-.16 1.1-.482 1.951-.321.853-.481 1.488-.481 1.91 0 .429.164.787.491 1.067.324.28.751.433 1.192.424.4 0 .772-.085 1.116-.256.34-.166.633-.403.859-.692.49-.629.84-1.344 1.028-2.102.097-.399.172-.778.218-1.134.05-.358.071-.696.071-1.017 0-1.178-.4-2.096-1.196-2.754-.8-.658-1.84-.984-3.122-.984-1.457 0-2.675.44-3.65 1.323-.977.88-1.468 2-1.468 3.358 0 .3.048.588.14.868.09.279.188.5.294.665.105.161.205.32.295.465.09.145.138.25.138.311 0 .191-.054.44-.162.747-.112.307-.244.46-.404.46a1.76 1.76 0 0 1-.187-.032 2.264 2.264 0 0 1-.99-.572 2.98 2.98 0 0 1-.666-.965 6.28 6.28 0 0 1-.356-1.105 4.326 4.326 0 0 1-.133-1.089z" fill="#fff"/></svg>