<svg width="37" height="37" viewBox="0 0 37 37" fill="none" xmlns="http://www.w3.org/2000/svg"><path d="M36.008 33.32a.534.534 0 0 1 0 .756l-1.942 1.943a.534.534 0 1 1-.756-.756l1.031-1.03H2.467a.534.534 0 0 1-.534-.535V1.824L.902 2.854A.534.534 0 0 1 .147 2.1L2.089.157a.534.534 0 0 1 .755 0l1.943 1.942a.534.534 0 1 1-.755.755l-1.03-1.03v31.34H34.34l-1.03-1.03a.534.534 0 0 1 .755-.756l1.942 1.943zM5.924 22.59a.534.534 0 0 1-.094-1.06c4.968-.89 19.704-9.48 25.125-18.719l-1.487.355a.534.534 0 0 1-.248-1.04l2.673-.637a.535.535 0 0 1 .643.397l.638 2.672a.534.534 0 0 1-1.038.248l-.321-1.344C26.28 12.757 11.712 21.56 6.019 22.582a.56.56 0 0 1-.095.008zm3.097 1.68h2.747c.295 0 .535.239.535.534v5.745c0 .295-.24.534-.535.534H9.021a.534.534 0 0 1-.534-.534v-5.745c0-.295.239-.535.534-.535zm2.213 5.745v-4.677H9.555v4.677h1.68zm4.124-9.409h2.747c.295 0 .535.24.535.534v9.41c0 .294-.24.533-.535.533h-2.747a.534.534 0 0 1-.534-.534V21.14c0-.295.239-.534.534-.534zm2.213 9.409v-8.34h-1.679v8.34h1.679zm4.124-13.072h2.747c.295 0 .535.239.535.534v13.072c0 .295-.24.534-.535.534h-2.747a.534.534 0 0 1-.534-.534V17.477c0-.295.239-.534.534-.534zm2.213 13.072V18.01H22.23v12.004h1.679zM28.03 13.28h2.748c.295 0 .534.239.534.534v16.735c0 .295-.24.534-.534.534H28.03a.535.535 0 0 1-.534-.534V13.814c0-.295.24-.534.534-.534zm2.213 16.735V14.348h-1.678v15.667h1.678z" fill="#369CB7"/></svg>