<svg width="39" height="39" viewBox="0 0 39 39" fill="none" xmlns="http://www.w3.org/2000/svg"><path d="M33.289 5.711A19.372 19.372 0 0 0 19.5 0 19.372 19.372 0 0 0 5.711 5.711 19.372 19.372 0 0 0 0 19.5a19.372 19.372 0 0 0 5.711 13.788A19.372 19.372 0 0 0 19.5 39a19.372 19.372 0 0 0 13.789-5.712A19.372 19.372 0 0 0 39 19.5a19.372 19.372 0 0 0-5.711-13.789zm1.189 22.717c-1.895-2.072-4.085-3.709-6.51-4.865a19.595 19.595 0 0 0-7.667-1.905l-.253-.01v-5.176l.27.006a41.176 41.176 0 0 1 17.379 4.201 18.113 18.113 0 0 1-2.67 8.373 22.279 22.279 0 0 0-.55-.625zm-30.525.594a18.112 18.112 0 0 1-2.651-8.364 41.176 41.176 0 0 1 17.335-4.18l.27-.005v5.174l-.254.01a19.6 19.6 0 0 0-7.668 1.906c-2.424 1.156-4.614 2.793-6.509 4.865-.175.192-.35.39-.523.594zm7.399-19.31a25.73 25.73 0 0 0 7.298 1.268l.256.008v4.343l-.259.005a42.316 42.316 0 0 0-17.382 4.071 18.166 18.166 0 0 1 4.8-12.224 22.589 22.589 0 0 0 5.287 2.529zm-4.47-3.366a18.173 18.173 0 0 1 12.024-5.071v8.571l-.273-.009c-4.29-.14-8.415-1.373-11.75-3.491zm13.166-5.073a18.173 18.173 0 0 1 12.051 5.055c-3.34 2.13-7.477 3.368-11.778 3.509l-.273.009V1.273zm16.011 17.403a42.312 42.312 0 0 0-15.752-3.34l-.26-.004v-4.344l.257-.008a25.73 25.73 0 0 0 7.298-1.268 22.591 22.591 0 0 0 5.316-2.548 18.166 18.166 0 0 1 4.817 12.265 42.703 42.703 0 0 0-1.676-.753zM4.615 30.024c3.602-4.362 8.643-6.976 14.015-7.222l.276-.013v14.937c-5.894-.19-11.091-3.19-14.29-7.702zm15.433 7.703V22.79l.276.013c5.385.246 10.436 2.872 14.04 7.253-3.21 4.506-8.416 7.497-14.316 7.672z" fill="#fff"/></svg>