<svg width="84" height="35" viewBox="0 0 84 35" fill="none" xmlns="http://www.w3.org/2000/svg"><path d="M77.66 8.854h-2.13c-.487 0-.98.372-1.119.845-.005.019-.015.037-.02.057l-.138.63-2.921 13.21c-.068.299-.113.493-.126.544l.005.007c-.1.462.177.844.634.886l.006.01h2.207c.484 0 .975-.37 1.117-.837.007-.022.017-.043.023-.066l3.186-14.385-.005-.001c.108-.492-.21-.9-.718-.9zM66.755 21.836a6.223 6.223 0 0 1-.934.48c-.438.176-.854.269-1.24.269-.59 0-1.044-.084-1.35-.262-.308-.169-.47-.463-.464-.883 0-.486.112-.863.345-1.158.234-.285.582-.513 1.014-.684a8.742 8.742 0 0 1 1.566-.35c.542-.069 1.614-.192 1.75-.193.138-.001.229-.076.168.288a95.38 95.38 0 0 1-.479 2.002c-.04.172-.271.424-.376.491 0 0 .105-.067 0 0zm4.204-8.906c-.902-.502-2.313-.756-4.245-.756-.955 0-1.915.077-2.878.226-.707.108-.78.126-1.219.221-.904.196-1.043 1.099-1.043 1.099l-.29 1.19c-.165.762.27.73.464.671.394-.118.608-.236 1.413-.418.77-.174 1.582-.305 2.23-.3.952 0 1.675.104 2.156.305.481.209.72.565.72 1.075 0 .122.004.236-.04.336-.04.093-.115.183-.343.214-1.357.08-2.332.204-3.505.375-1.158.163-2.17.441-3.018.827-.902.4-1.578.935-2.043 1.612-.453.68-.681 1.505-.682 2.476 0 .917.33 1.666.97 2.247.647.573 1.488.857 2.506.857.637-.005 1.135-.05 1.491-.14a7.511 7.511 0 0 0 1.146-.39 5.96 5.96 0 0 0 .978-.54c.347-.232.588-.396.896-.597l.01.02-.086.38c0 .004-.006.006-.006.01l.003.007c-.099.46.178.842.634.887l.006.008h.04l.002.002c.303 0 1.343 0 1.829-.002h.339c.022 0 .025-.006.034-.012.466-.057.912-.436 1.018-.89l1.735-7.474c.04-.176.072-.379.09-.613.022-.236.048-.43.04-.57.004-1.058-.452-1.84-1.352-2.343zm-10.45-1.702c-.297-.575-.744-1.038-1.31-1.398-.58-.36-1.269-.61-2.066-.757a16.636 16.636 0 0 0-2.796-.22l-4.972.003c-.512.009-1.014.41-1.133.904L44.89 24.274c-.122.493.21.905.713.902l2.386-.004c.506.004 1.021-.405 1.14-.898l.807-3.522c.113-.494.628-.907 1.142-.9h.678c2.91 0 5.167-.596 6.782-1.784 1.612-1.193 2.423-2.759 2.423-4.706-.005-.85-.15-1.566-.453-2.134zm-5.13 4.747c-.713.517-1.712.776-2.998.776h-.592c-.511.006-.842-.407-.72-.901l.713-3.081c.106-.487.625-.902 1.13-.898l.78-.004c.913.004 1.595.156 2.066.459.463.306.688.781.691 1.414.002.964-.355 1.707-1.07 2.235zm-11.728-3.806c-.452 0-1.045.367-1.326.81 0 0-3.024 5.204-3.321 5.723-.162.28-.325.102-.353-.002-.022-.126-.937-5.686-.937-5.686-.103-.448-.57-.832-1.152-.83l-1.886.002c-.455 0-.738.366-.637.807 0 0 1.442 8.2 1.723 10.128.14 1.067-.015 1.256-.015 1.256l-1.869 3.27c-.273.443-.124.806.329.806l2.186-.001c.452 0 1.051-.362 1.32-.806l8.409-14.269s.804-1.219.062-1.208c-.505.007-2.533 0-2.533 0zm-15.785 9.646a6.24 6.24 0 0 1-.932.478c-.438.176-.856.269-1.239.269-.588 0-1.043-.084-1.35-.26-.306-.17-.468-.463-.462-.884 0-.484.113-.86.345-1.155.234-.285.58-.514 1.011-.684.43-.145.959-.263 1.566-.349.54-.068 1.612-.19 1.748-.192.136 0 .227-.077.166.287a89.661 89.661 0 0 1-.477 1.999c-.043.173-.272.424-.376.491 0 0 .104-.067 0 0zm4.2-8.892c-.902-.501-2.311-.755-4.24-.755-.954 0-1.913.076-2.875.225-.707.107-.778.126-1.217.221-.903.197-1.042 1.097-1.042 1.097l-.29 1.19c-.164.76.27.728.464.669.393-.119.608-.236 1.411-.418.767-.173 1.58-.303 2.227-.299.951 0 1.673.104 2.153.303.48.21.717.566.717 1.075.004.12.006.235-.037.334-.04.095-.117.184-.344.214a38.405 38.405 0 0 0-3.5.375c-1.156.163-2.168.441-3.014.826-.902.399-1.575.933-2.04 1.61-.454.678-.68 1.501-.682 2.471 0 .916.33 1.663.969 2.243.646.572 1.486.856 2.503.856.636-.005 1.133-.051 1.49-.139.353-.09.738-.215 1.142-.39a6.03 6.03 0 0 0 .979-.54c.345-.23.586-.394.895-.595l.01.019-.087.38c0 .004-.005.006-.005.01l.003.007c-.099.46.177.841.633.885l.006.01h.04l.001.002 1.826-.003h.34c.022 0 .025-.008.033-.012.466-.059.91-.436 1.017-.888l1.733-7.463a4.21 4.21 0 0 0 .089-.61c.023-.238.048-.43.041-.57.004-1.057-.451-1.838-1.35-2.34zm-10.843-1.699c-.296-.574-.742-1.036-1.307-1.396-.58-.36-1.267-.61-2.064-.756a16.617 16.617 0 0 0-2.792-.218l-4.966.002c-.51.009-1.012.41-1.13.902l-3.34 14.49c-.12.493.211.904.713.9l2.383-.003c.505.004 1.02-.404 1.14-.896l.805-3.517c.113-.492.627-.905 1.14-.898h.677c2.907 0 5.16-.596 6.774-1.781 1.61-1.192 2.42-2.754 2.42-4.698-.005-.849-.15-1.564-.453-2.131zm-5.123 4.74c-.711.515-1.71.774-2.994.774h-.59c-.511.006-.841-.406-.72-.9l.712-3.075c.106-.487.625-.9 1.128-.897l.78-.004c.911.004 1.593.156 2.063.458.463.306.687.78.69 1.412.003.963-.355 1.704-1.069 2.231z" fill="#898989"/></svg>