<svg width="128" height="100" viewBox="0 0 128 100" fill="none" xmlns="http://www.w3.org/2000/svg"><path d="M107.131 36.7C95.296 25.932 79.989 20 63.999 20c-15.99 0-31.324 5.931-43.132 16.7C9.114 47.389 1.788 61.93.23 77.674l-.218 2.05h127.975l-.219-2.05c-1.558-15.744-8.883-30.285-20.637-40.972zM46.779 50.696l2.843-.929 3.608 1.367 2.16.82-4.32 3.334-4.29-4.592zm4.155 9.676l-14.76-1.804 3.8-5.658 3.033-.984 7.927 8.446zm.902-13.612l-8.747-3.307 5.111-4.455 2.98.738.191 1.995.465 5.03zm3.198-4.264l7.161-4.646v12.819l-6.614-2.515-.547-5.658zm4.319 10.934l2.842 1.066v7.216l-5.712-.684-2.952-3.143 5.822-4.455zm6.423 22.55v-8.146l1.612-.574 11.043 2.98c.164.054.3.054.465.054.793 0 1.503-.519 1.722-1.339.273-.957-.3-1.94-1.257-2.214l-6.014-1.613 4.018-1.42 13.093 5.766 6.532-1.503 6.807 4.21c.3.19.628.273.929.273.601 0 1.203-.3 1.531-.848a1.778 1.778 0 0 0-.574-2.46l-3.69-2.35 5.384-1.258a1.798 1.798 0 0 0 1.34-2.159c-.219-.957-1.203-1.558-2.16-1.34l-9.648 2.242-1.504.355 1.367-1.667c.628-.765.52-1.886-.246-2.542-.766-.629-1.886-.52-2.542.246l-3.909 4.729-7.763-3.472 4.237-1.503.355-.137 3.636-3.39 14.077 1.367h.164a1.78 1.78 0 0 0 1.776-1.613c.11-.984-.628-1.859-1.612-1.968L94.011 53.62l6.342-5.904c.738-.683.765-1.804.082-2.542-.684-.738-1.805-.765-2.543-.082L84.965 57.146l-4.592 1.64 1.75-4.947.764-2.16 7.271-1.148a1.812 1.812 0 0 0 1.504-2.05 1.812 1.812 0 0 0-2.05-1.503l-5.358.847 11.726-3.963c.93-.328 1.449-1.34 1.12-2.269-.327-.929-1.339-1.448-2.268-1.12l-9.047 3.088 2.733-7.735a1.808 1.808 0 0 0-1.093-2.296 1.808 1.808 0 0 0-2.296 1.093l-5.248 14.87v.027l-.793 2.269-13.284 3.553V50.04l2.597-3.58h10.523c.984 0 1.804-.793 1.804-1.804 0-.984-.793-1.804-1.804-1.804h-7.9l1.996-2.761h7.27c.985 0 1.805-.793 1.805-1.804 0-.984-.793-1.804-1.804-1.804h-4.674l3.307-4.537A1.802 1.802 0 0 0 76 29.84l-4.893 6.751-.602-7.653a1.787 1.787 0 0 0-1.94-1.64 1.803 1.803 0 0 0-1.64 1.94l.93 11.863-2.078 2.87V28.883c0-.984-.793-1.804-1.804-1.804-.984 0-1.804.793-1.804 1.804v4.729l-7.517 4.893-.765-8.173a1.763 1.763 0 0 0-1.94-1.613 1.763 1.763 0 0 0-1.613 1.941l.492 5.33-2.652-.656-6.751-1.695a1.792 1.792 0 0 0-2.187 1.312 1.792 1.792 0 0 0 1.312 2.187l3.39.847-4.675 4.073-5.576-2.105a1.798 1.798 0 0 0-2.323 1.039c-.355.93.11 1.968 1.039 2.323l11.835 4.456-8.118 2.624-6.068-5.303c-.738-.656-1.886-.574-2.542.164-.656.738-.574 1.886.164 2.542l4.483 3.909-9.485 3.088c-.93.301-1.449 1.312-1.148 2.27.246.764.957 1.23 1.695 1.23.191 0 .382-.028.546-.083l10.66-3.471-6.478 9.676-6.314-2.242a1.808 1.808 0 0 0-2.296 1.094 1.808 1.808 0 0 0 1.094 2.296l3.8 1.34-4.046 2.158a1.8 1.8 0 0 0-.738 2.433 1.8 1.8 0 0 0 1.585.957c.273 0 .574-.055.847-.219l7.626-4.073a.571.571 0 0 0 .164-.109h.028l.027-.027c.027-.028.082-.055.11-.082 0 0 .027-.028.054-.028l.027-.027.082-.082s.028-.027.028-.055l.054-.054.028-.028c.027-.027.027-.054.054-.054l3.772-5.63 10.742 1.311-8.992 4.1c-.902.41-1.312 1.476-.902 2.378a1.797 1.797 0 0 0 2.378.875l14.322-6.533 10.688 1.312v10.633H4.166l.11-.766c2.022-13.694 8.801-26.376 19.078-35.752C28.93 34.487 35.3 30.551 42.187 27.9a60.637 60.637 0 0 1 21.785-4.045c15.06 0 29.492 5.576 40.617 15.717 10.278 9.375 17.056 22.058 19.079 35.752l.109.765H65.776v-.11zm0-11.972V59.06l11.835-3.17-1.585 4.482-10.25 3.636z" fill="#fff"/></svg>