<svg width="100" height="120" viewBox="0 0 100 120" fill="none" xmlns="http://www.w3.org/2000/svg"><circle cx="35" cy="60" r="30" fill="url(#a)"/><circle cx="65" cy="60" r="30" fill="url(#b)"/><mask id="c" maskUnits="userSpaceOnUse" x="0" y="0" width="100" height="120"><path fill="#fff" d="M0 0h100v120H0z"/></mask><g mask="url(#c)" stroke="#fff"><path d="M-207 264.634c1.07-17.821 14.138-36.942 24.838-50.557 11.54-14.609 25.678-27.152 41.727-36.637 13.145-7.801 27.437-13.538 40.199-21.875 12.305-8.031 22.622-19.81 27.13-33.883 5.274-16.292-.84-31.895-6.8-47.115-5.885-14.992-8.713-30.212-4.816-46.045C-81.053 13.837-72.647.375-60.648-8.88c21.857-16.827 55.102-19.886 83.073-7.648"/><path opacity=".989" d="M27.24-16.91c-23.31-10.173-50.517-9.256-71.38 1.835-3.516 1.836-6.88 4.054-10.013 6.425C-65.998.605-74.328 14.066-77.996 28.598c-1.528 5.966-2.063 11.856-1.834 17.592.306 9.485 2.675 18.816 6.19 27.994 1.911 5.125 3.898 10.25 5.427 15.527 2.98 10.096 4.28 20.422.84 31.13-1.452 4.359-3.439 8.566-5.808 12.467-5.273 8.566-12.686 15.832-21.017 21.339-8.636 5.737-17.883 10.25-27.054 15.068-4.203 2.218-8.406 4.436-12.457 6.884-13.985 8.413-26.519 19.121-37.218 31.512a119.646 119.646 0 0 0-4.127 5.048c-10.7 13.538-23.768 32.43-24.991 49.869"/><path opacity=".978" d="M31.672-17.064c-22.698-9.866-49.294-8.72-69.775 2.448-3.44 1.912-6.802 4.053-9.859 6.501-11.616 9.255-19.947 22.64-23.615 37.096a62.416 62.416 0 0 0-1.987 17.439c.23 9.407 2.446 18.586 5.808 27.764 1.835 5.048 3.745 10.173 5.197 15.374 2.828 10.02 4.05 20.268.535 30.824-1.452 4.359-3.439 8.49-5.808 12.39-5.273 8.567-12.534 15.833-20.711 21.34-8.483 5.736-17.578 10.326-26.596 15.144-4.126 2.218-8.253 4.513-12.227 6.96-13.757 8.414-26.214 19.198-36.837 31.513a84.106 84.106 0 0 0-4.127 4.971c-10.699 13.462-23.768 32.048-25.143 49.257"/><path opacity=".967" d="M35.952-16.987c-22.087-9.56-48.148-8.108-68.247 3.06a69.316 69.316 0 0 0-9.706 6.5c-11.464 9.255-19.64 22.64-23.462 36.943-1.529 5.89-2.14 11.626-2.064 17.286.153 9.331 2.293 18.433 5.503 27.459 1.758 5.048 3.592 10.096 4.968 15.22 2.674 9.867 3.82 20.04.305 30.518-1.452 4.284-3.439 8.414-5.808 12.315-5.197 8.49-12.38 15.756-20.329 21.339-8.33 5.813-17.272 10.402-26.137 15.221-4.05 2.218-8.101 4.513-12.075 6.96-13.527 8.49-25.908 19.198-36.454 31.436-1.376 1.606-2.751 3.289-4.127 4.971-10.699 13.386-23.691 31.742-25.373 48.569"/><path opacity=".956" d="M40.002-16.758c-21.475-9.255-46.924-7.572-66.718 3.672-3.362 1.912-6.572 4.053-9.553 6.5-11.31 9.256-19.412 22.564-23.233 36.79-1.528 5.814-2.216 11.55-2.14 17.21.077 9.255 2.064 18.204 5.12 27.153 1.682 4.971 3.44 9.943 4.74 14.99 2.521 9.791 3.515 19.811 0 30.289-1.453 4.284-3.44 8.414-5.733 12.238-5.197 8.49-12.228 15.68-20.023 21.263-8.177 5.813-16.89 10.479-25.678 15.374-3.974 2.218-7.948 4.513-11.846 7.037-13.374 8.49-25.602 19.198-36.072 31.359-1.376 1.606-2.751 3.289-4.127 4.971-10.623 13.233-23.691 31.36-25.526 47.881"/><path opacity=".944" d="M43.9-16.299c-20.94-8.949-45.702-7.037-65.19 4.36a66.102 66.102 0 0 0-9.323 6.578c-11.082 9.254-19.183 22.487-23.004 36.636-1.529 5.813-2.293 11.473-2.293 17.057 0 9.178 1.834 18.05 4.739 26.846 1.605 4.896 3.21 9.867 4.432 14.839 2.37 9.714 3.286 19.657-.23 29.982-1.451 4.283-3.438 8.337-5.73 12.162-5.121 8.413-12 15.679-19.718 21.263-8.025 5.813-16.584 10.478-25.144 15.45-3.897 2.294-7.871 4.589-11.693 7.037-13.145 8.566-25.22 19.274-35.69 31.359-1.375 1.606-2.751 3.212-4.127 4.895-10.622 13.156-23.691 31.053-25.678 47.268"/><path opacity=".933" d="M47.492-15.687c-20.329-8.643-44.555-6.501-63.585 4.972-3.21 1.912-6.343 4.13-9.17 6.577-10.93 9.332-18.877 22.487-22.775 36.484-1.605 5.737-2.293 11.32-2.37 16.904-.075 9.025 1.606 17.82 4.357 26.617 1.529 4.818 3.057 9.713 4.203 14.685 2.217 9.561 2.981 19.428-.535 29.677a60.278 60.278 0 0 1-5.731 12.084c-5.044 8.414-11.846 15.604-19.412 21.264-7.872 5.813-16.278 10.555-24.685 15.526-3.821 2.295-7.719 4.589-11.464 7.113-12.915 8.567-24.914 19.275-35.307 31.283-1.376 1.606-2.752 3.213-4.051 4.895-10.623 13.079-23.691 30.671-25.831 46.58"/><path opacity=".922" d="M50.931-14.922C31.214-23.259 7.6-20.888-11.125-9.339a67.897 67.897 0 0 0-9.018 6.578C-30.92 6.571-38.791 19.65-42.688 33.57a64.353 64.353 0 0 0-2.446 16.75c-.153 8.95 1.376 17.669 4.05 26.312 1.453 4.818 2.905 9.637 3.975 14.532 2.063 9.484 2.75 19.198-.765 29.447-1.452 4.207-3.362 8.184-5.655 12.008-5.044 8.337-11.693 15.604-19.106 21.187-7.719 5.813-15.973 10.632-24.226 15.603a255.658 255.658 0 0 0-11.311 7.19c-12.763 8.643-24.609 19.351-35.002 31.283-1.376 1.606-2.752 3.212-4.051 4.818-10.623 13.003-23.691 30.365-25.984 45.892"/><path opacity=".911" d="M54.217-14.004C35.111-22.035 12.107-19.358-6.31-7.81c-3.133 1.989-6.114 4.13-8.865 6.654-10.546 9.332-18.418 22.334-22.316 36.178-1.605 5.66-2.369 11.167-2.598 16.598-.23 8.872 1.223 17.438 3.668 26.005 1.376 4.742 2.752 9.484 3.745 14.38 1.987 9.407 2.522 19.044-1.07 29.141a63.088 63.088 0 0 1-5.655 11.931c-4.968 8.337-11.54 15.527-18.8 21.187-7.567 5.889-15.591 10.632-23.768 15.68a247.967 247.967 0 0 0-11.082 7.189c-12.533 8.643-24.303 19.351-34.62 31.207-1.376 1.606-2.751 3.212-4.05 4.818-10.623 12.926-23.692 30.059-26.137 45.28"/><path opacity=".9" d="M57.35-12.934c-18.494-7.725-40.963-4.818-58.999 6.808A72.91 72.91 0 0 0-10.36.528C-20.754 9.86-28.55 22.862-32.524 36.553a70.266 70.266 0 0 0-2.675 16.445c-.382 8.795.994 17.285 3.287 25.699 1.299 4.665 2.598 9.408 3.515 14.226 1.834 9.255 2.216 18.816-1.3 28.835a62.44 62.44 0 0 1-5.655 11.856c-4.89 8.26-11.31 15.45-18.418 21.186-7.413 5.89-15.285 10.708-23.233 15.757-3.668 2.294-7.336 4.665-10.928 7.266-12.381 8.719-23.921 19.351-34.238 31.13-1.376 1.606-2.751 3.135-4.051 4.742-10.623 12.773-23.615 29.676-26.366 44.591"/><path opacity=".889" d="M60.255-11.71C42.37-19.129 20.515-15.993 2.86-4.214-.12-2.226-3.024-.007-5.7 2.44c-10.24 9.331-17.883 22.258-21.933 35.796-1.605 5.583-2.522 11.014-2.751 16.291-.459 8.72.764 17.133 2.98 25.47 1.223 4.666 2.37 9.331 3.287 14.073 1.68 9.179 1.986 18.663-1.605 28.53-1.452 4.13-3.363 8.031-5.58 11.778-4.89 8.261-11.157 15.451-18.112 21.111-7.26 5.889-14.979 10.784-22.774 15.832-3.592 2.371-7.184 4.742-10.7 7.266-12.151 8.72-23.615 19.428-33.855 31.13-1.376 1.53-2.675 3.136-4.051 4.742-10.546 12.697-23.615 29.371-26.519 43.903"/><path opacity=".878" d="M63.006-10.333C45.734-17.446 24.488-14.081 7.14-2.226 4.236-.236 1.408 1.981-1.267 4.505-11.355 13.836-18.92 26.686-22.97 40.148c-1.681 5.507-2.522 10.86-2.904 16.138-.535 8.643.535 16.904 2.598 25.164 1.146 4.59 2.216 9.178 2.98 13.844 1.53 9.026 1.682 18.433-1.91 28.3-1.528 4.054-3.363 7.955-5.579 11.702a82.666 82.666 0 0 1-17.807 21.111c-7.107 5.889-14.673 10.861-22.316 15.985-3.515 2.371-7.03 4.742-10.546 7.343-11.922 8.796-23.309 19.427-33.474 31.053-1.375 1.53-2.675 3.136-3.974 4.666-10.546 12.62-23.615 28.988-26.672 43.291"/><path opacity=".867" d="M65.604-8.803c-16.66-6.808-37.371-3.213-54.337 8.72-2.828 1.988-5.656 4.206-8.254 6.73-9.859 9.331-17.425 22.104-21.475 35.49-1.682 5.43-2.599 10.784-2.98 15.985-.612 8.566.381 16.75 2.215 24.858.994 4.513 2.064 9.102 2.752 13.69 1.375 8.95 1.452 18.205-2.14 27.995-1.529 4.054-3.363 7.954-5.58 11.626-4.738 8.184-10.851 15.373-17.5 21.11-6.955 5.966-14.292 10.861-21.858 16.062a428.847 428.847 0 0 0-10.317 7.343c-11.77 8.795-23.003 19.504-33.091 30.976a116.068 116.068 0 0 0-3.974 4.666c-10.547 12.544-23.615 28.682-26.825 42.603"/><path opacity=".856" d="M67.973-7.197c-16.125-6.501-36.148-2.677-52.809 9.331-2.827 1.989-5.502 4.283-8.1 6.731-9.706 9.408-17.12 22.104-21.246 35.337-1.682 5.43-2.675 10.708-3.057 15.832-.688 8.414.152 16.521 1.91 24.552.994 4.436 1.91 8.949 2.522 13.538 1.223 8.873 1.223 18.051-2.445 27.688-1.529 3.977-3.363 7.878-5.503 11.55-4.738 8.107-10.623 15.297-17.195 21.033-6.802 5.966-13.986 10.938-21.323 16.139-3.362 2.371-6.801 4.818-10.164 7.419-11.54 8.872-22.621 19.504-32.709 30.977-1.376 1.529-2.675 3.059-3.974 4.589-10.547 12.467-23.615 28.376-26.978 41.991"/><path opacity=".844" d="M70.266-5.361C54.752-11.557 35.34-7.503 19.062 4.659c-2.752 2.064-5.426 4.282-7.948 6.73C1.56 20.797-5.776 33.417-9.98 46.573a74.975 74.975 0 0 0-3.134 15.68c-.764 8.336-.076 16.367 1.529 24.322.84 4.436 1.758 8.872 2.292 13.385 1.07 8.719.918 17.821-2.674 27.382a79.116 79.116 0 0 1-5.503 11.473c-4.662 8.107-10.47 15.297-16.89 21.033-6.648 5.966-13.68 11.014-20.863 16.215-3.287 2.372-6.65 4.819-9.935 7.42-11.388 8.872-22.316 19.504-32.328 30.9a213.814 213.814 0 0 0-3.974 4.589c-10.546 12.314-23.615 27.994-27.13 41.303"/><path opacity=".833" d="M72.406-3.526C57.503-9.416 38.626-5.132 22.73 7.106c-2.674 2.065-5.273 4.283-7.795 6.807-9.323 9.408-16.66 21.952-20.864 35.03-1.68 5.355-2.75 10.48-3.286 15.527-.84 8.26-.305 16.139 1.147 24.017.764 4.36 1.605 8.72 2.063 13.232.917 8.643.688 17.592-2.98 27.153-1.529 3.977-3.363 7.725-5.503 11.396-4.662 8.031-10.317 15.221-16.584 21.034-6.496 5.966-13.374 11.014-20.405 16.291-3.21 2.448-6.496 4.895-9.783 7.496-11.157 8.949-22.01 19.58-32.021 30.824-1.3 1.529-2.675 3.059-3.974 4.512-10.47 12.238-23.539 27.688-27.284 40.614"/><path opacity=".822" d="M74.47-1.46C60.177-7.045 41.912-2.456 26.321 9.782c-2.598 2.065-5.196 4.36-7.566 6.807-9.17 9.408-16.43 21.952-20.634 34.878-1.681 5.277-2.828 10.402-3.363 15.373-.917 8.184-.458 15.986.765 23.711.687 4.283 1.375 8.643 1.834 13.079.764 8.49.382 17.439-3.21 26.847-1.529 3.901-3.363 7.725-5.503 11.32-4.585 8.031-10.164 15.144-16.202 20.957-6.343 6.042-12.992 11.09-19.946 16.368-3.133 2.447-6.343 4.895-9.553 7.496-10.929 8.948-21.705 19.58-31.64 30.823-1.299 1.53-2.675 2.983-3.897 4.513-10.47 12.161-23.539 27.306-27.513 40.002"/><path opacity=".811" d="M76.303.681C62.623-4.597 44.97.222 29.685 12.536c-2.598 2.065-5.044 4.36-7.413 6.808C13.254 28.75 6.146 41.219 1.867 54.068.109 59.27-.961 64.394-1.573 69.365c-.993 8.108-.687 15.757.459 23.405.611 4.283 1.223 8.49 1.529 12.85.687 8.413.152 17.209-3.516 26.54-1.528 3.901-3.363 7.649-5.426 11.244-4.51 8.031-9.935 15.144-15.896 20.957-6.19 6.042-12.687 11.167-19.412 16.445-3.057 2.447-6.267 4.971-9.4 7.572-10.776 9.025-21.322 19.58-31.258 30.747-1.299 1.453-2.598 2.983-3.897 4.513-10.47 12.085-23.539 26.999-27.666 39.314"/><path opacity=".8" d="M78.062 2.9c-13.069-4.972-30.188.076-45.014 12.543a68.07 68.07 0 0 0-7.26 6.884C16.999 31.734 9.892 44.125 5.612 56.898A83.335 83.335 0 0 0 2.02 72.043c-1.146 8.03-.917 15.603.076 23.175.535 4.207 1.07 8.413 1.3 12.697.535 8.337-.077 16.979-3.745 26.311-1.529 3.824-3.363 7.572-5.426 11.243-4.51 7.955-9.782 15.068-15.59 20.957-6.038 6.043-12.381 11.244-18.954 16.598a397.022 397.022 0 0 0-9.17 7.572c-10.547 9.025-21.017 19.657-30.876 30.747-1.3 1.454-2.599 2.983-3.898 4.437-10.47 12.008-23.538 26.693-27.818 38.625"/><path opacity=".789" d="M79.743 5.194C67.286.528 50.778 5.806 36.258 18.349c-2.446 2.142-4.815 4.36-7.108 6.884-8.636 9.408-15.667 21.799-20.023 34.419-1.758 5.124-2.904 10.096-3.668 14.991-1.223 7.955-1.147 15.45-.306 22.87.459 4.13.917 8.336 1.07 12.543.382 8.184-.382 16.827-4.05 26.005-1.529 3.825-3.363 7.496-5.427 11.167-4.432 7.955-9.63 15.068-15.284 20.881-5.885 6.042-12.075 11.243-18.495 16.674a372.38 372.38 0 0 0-9.018 7.649c-10.394 9.101-20.711 19.656-30.493 30.67a228.377 228.377 0 0 0-3.898 4.437c-10.47 11.855-23.538 26.311-27.971 38.013"/><path opacity=".778" d="M81.271 7.641C69.425 3.281 53.53 8.79 39.314 21.41c-2.369 2.141-4.738 4.436-6.954 6.884-8.483 9.407-15.361 21.721-19.794 34.265-1.758 5.125-2.98 10.02-3.745 14.839-1.299 7.801-1.299 15.22-.611 22.563.382 4.054.764 8.184.84 12.391.23 8.107-.611 16.597-4.28 25.699-1.528 3.748-3.362 7.496-5.349 11.09-4.356 7.878-9.477 14.992-14.98 20.881-5.73 6.119-11.692 11.32-18.035 16.75-2.904 2.525-5.808 5.049-8.789 7.649-10.164 9.102-20.329 19.734-30.111 30.595l-3.898 4.359c-10.393 11.779-23.538 26.005-28.124 37.325"/><path opacity=".767" d="M82.724 10.165c-11.311-4.053-26.596 1.683-40.429 14.38-2.293 2.141-4.585 4.436-6.802 6.96C27.24 40.989 20.362 53.15 15.93 65.618c-1.758 5.048-3.057 9.943-3.898 14.685-1.375 7.725-1.528 15.068-.993 22.257.306 4.054.535 8.108.611 12.238.077 8.031-.84 16.445-4.585 25.393-1.529 3.748-3.363 7.42-5.35 11.014-4.356 7.879-9.247 14.915-14.673 20.881-5.58 6.119-11.387 11.397-17.501 16.827-2.828 2.524-5.732 5.048-8.636 7.725-9.935 9.178-20.023 19.734-29.73 30.595-1.299 1.453-2.598 2.906-3.82 4.359-10.394 11.703-23.463 25.623-28.277 36.637"/><path opacity=".756" d="M84.022 12.766C73.323 9.018 58.65 14.984 45.2 27.757a82.479 82.479 0 0 0-6.649 6.96c-8.1 9.484-14.903 21.646-19.335 33.96-1.834 4.972-3.057 9.867-3.974 14.532-1.452 7.649-1.758 14.839-1.376 22.028.23 3.978.382 7.955.382 12.085-.076 7.878-1.146 16.215-4.814 25.164-1.529 3.748-3.363 7.343-5.35 10.937-4.28 7.802-9.095 14.915-14.368 20.805-5.426 6.119-11.081 11.473-17.042 16.903a728.618 728.618 0 0 0-8.407 7.802c-9.782 9.178-19.717 19.733-29.347 30.518-1.3 1.453-2.598 2.906-3.821 4.283-10.394 11.626-23.462 25.317-28.506 36.025"/><path opacity=".744" d="M85.322 15.366c-10.088-3.442-24.15 2.754-37.295 15.68a95.391 95.391 0 0 0-6.496 6.96c-7.948 9.484-14.674 21.57-19.106 33.807a95.543 95.543 0 0 0-4.05 14.38c-1.53 7.572-1.988 14.685-1.682 21.721.153 3.901.23 7.878.153 11.932-.23 7.802-1.376 15.986-5.12 24.858-1.53 3.671-3.363 7.343-5.274 10.861-4.203 7.802-8.941 14.838-13.985 20.804-5.274 6.119-10.776 11.473-16.584 16.98a6984.652 6984.652 0 0 0-8.254 7.802c-9.553 9.255-19.412 19.81-29.041 30.441-1.3 1.454-2.522 2.83-3.822 4.284-10.317 11.549-23.462 24.934-28.659 35.336"/><path opacity=".733" d="M86.468 18.12c-9.476-3.136-23.003 3.365-35.766 16.291-2.14 2.142-4.28 4.513-6.343 6.96-7.796 9.485-14.368 21.493-18.954 33.578a102.016 102.016 0 0 0-4.203 14.226c-1.605 7.496-2.14 14.456-2.063 21.416.076 3.901.076 7.726-.153 11.703-.382 7.648-1.681 15.832-5.426 24.552-1.529 3.671-3.363 7.266-5.274 10.784-4.203 7.725-8.788 14.839-13.68 20.805-5.12 6.118-10.393 11.549-16.125 17.056a748.52 748.52 0 0 0-8.024 7.878c-9.324 9.255-19.03 19.81-28.66 30.441-1.299 1.377-2.521 2.83-3.82 4.207-10.318 11.473-23.463 24.629-28.812 34.648"/><path opacity=".722" d="M87.538 20.95c-8.865-2.907-21.781 3.9-34.238 16.903-2.064 2.142-4.127 4.513-6.19 7.037-7.566 9.484-14.139 21.493-18.724 33.424a116.366 116.366 0 0 0-4.28 14.074c-1.681 7.419-2.37 14.303-2.446 21.11 0 3.824-.076 7.649-.382 11.549-.535 7.572-1.91 15.603-5.655 24.246a154.11 154.11 0 0 1-5.273 10.708c-4.127 7.726-8.56 14.762-13.375 20.728-4.967 6.196-10.088 11.626-15.667 17.133-2.521 2.601-5.196 5.201-7.871 7.878-9.171 9.331-18.724 19.886-28.277 30.365-1.3 1.377-2.522 2.83-3.821 4.207-10.317 11.32-23.462 24.322-28.965 34.036"/><path opacity=".711" d="M88.608 23.78c-8.254-2.6-20.558 4.436-32.633 17.515-1.987 2.218-4.05 4.513-5.961 7.037-7.413 9.484-13.91 21.416-18.495 33.271-1.834 4.819-3.286 9.485-4.356 13.92a103.494 103.494 0 0 0-2.828 20.881c-.153 3.748-.229 7.572-.611 11.397-.611 7.495-2.14 15.45-5.961 24.016-1.605 3.595-3.363 7.114-5.197 10.632-4.127 7.649-8.407 14.685-13.069 20.728-4.814 6.195-9.782 11.626-15.131 17.286-2.446 2.6-5.044 5.201-7.643 7.954-8.941 9.331-18.418 19.886-27.895 30.365-1.299 1.377-2.522 2.754-3.82 4.13-10.318 11.244-23.463 23.94-29.118 33.348"/><path opacity=".7" d="M89.525 26.686c-7.642-2.294-19.411 4.972-31.104 18.204a109.425 109.425 0 0 0-5.808 7.037c-7.26 9.484-13.604 21.34-18.266 33.118-1.834 4.742-3.286 9.408-4.509 13.768-1.834 7.189-2.828 13.92-3.133 20.574-.23 3.672-.459 7.419-.84 11.244-.765 7.342-2.446 15.22-6.191 23.71-1.605 3.595-3.363 7.114-5.197 10.556-4.05 7.648-8.254 14.685-12.763 20.727-4.662 6.196-9.476 11.703-14.673 17.363-2.37 2.6-4.891 5.201-7.49 7.954-8.788 9.408-18.112 19.886-27.512 30.289-1.223 1.376-2.522 2.753-3.745 4.13-10.317 11.167-23.386 23.634-29.27 32.659"/><path opacity=".689" d="M90.443 29.67c-7.031-1.99-18.19 5.506-29.576 18.815a109.988 109.988 0 0 0-5.656 7.113c-7.03 9.56-13.374 21.34-18.036 32.966-1.91 4.742-3.362 9.254-4.585 13.614-1.987 7.113-2.98 13.767-3.516 20.269-.306 3.671-.611 7.342-1.07 11.09-.917 7.266-2.675 14.991-6.496 23.405a190.71 190.71 0 0 1-5.197 10.479c-3.974 7.572-8.1 14.608-12.457 20.651-4.509 6.195-9.094 11.779-14.215 17.439-2.292 2.6-4.738 5.277-7.26 8.031-8.56 9.407-17.73 19.962-27.13 30.212-1.223 1.376-2.522 2.753-3.745 4.13-10.241 11.09-23.386 23.252-29.423 32.047"/><path opacity=".678" d="M91.282 32.652c-6.495-1.682-16.966 6.043-28.047 19.428a144.01 144.01 0 0 0-5.503 7.113c-6.878 9.56-13.145 21.263-17.883 32.812a124.152 124.152 0 0 0-4.662 13.538c-2.063 7.037-3.21 13.538-3.897 20.04-.382 3.595-.765 7.189-1.3 10.937-1.07 7.19-2.904 14.839-6.725 23.099-1.605 3.518-3.363 6.96-5.197 10.402-3.974 7.572-7.871 14.609-12.151 20.651-4.356 6.272-8.789 11.856-13.756 17.516-2.293 2.6-4.662 5.277-7.031 8.031-8.33 9.484-17.425 19.963-26.749 30.212-1.223 1.376-2.522 2.753-3.745 4.053-10.24 11.014-23.385 22.946-29.652 31.36"/><path opacity=".667" d="M92.124 35.712c-5.885-1.377-15.82 6.577-26.443 20.04-1.758 2.217-3.592 4.588-5.35 7.112-6.725 9.561-12.915 21.187-17.654 32.66a149.691 149.691 0 0 0-4.738 13.385c-2.14 6.96-3.439 13.385-4.203 19.733-.459 3.519-.917 7.113-1.605 10.785-1.223 7.036-3.21 14.609-7.031 22.869-1.605 3.442-3.363 6.884-5.12 10.326-3.898 7.495-7.72 14.532-11.77 20.651-4.203 6.272-8.483 11.855-13.221 17.592-2.216 2.677-4.51 5.354-6.878 8.107-8.178 9.484-17.12 19.963-26.367 30.136A180.884 180.884 0 0 1-42 253.161c-10.241 10.861-23.386 22.64-29.806 30.671"/><path opacity=".656" d="M92.888 38.771c-5.273-1.07-14.597 7.113-24.914 20.728-1.682 2.218-3.516 4.666-5.197 7.19-6.496 9.56-12.61 21.186-17.425 32.506a179.542 179.542 0 0 0-4.89 13.232c-2.217 6.884-3.67 13.156-4.586 19.428-.535 3.518-1.07 6.96-1.834 10.555-1.376 6.96-3.44 14.379-7.26 22.563-1.606 3.442-3.363 6.884-5.121 10.249-3.821 7.496-7.566 14.456-11.464 20.575-4.05 6.272-8.177 11.932-12.763 17.668-2.14 2.677-4.356 5.354-6.648 8.108-7.949 9.561-16.814 20.039-26.061 30.059a92.291 92.291 0 0 1-3.745 3.977c-10.24 10.785-23.386 22.257-29.958 30.059"/><path opacity=".644" d="M93.576 41.83c-4.662-.764-13.374 7.65-23.386 21.34a195.08 195.08 0 0 0-5.044 7.19c-6.343 9.56-12.38 21.11-17.195 32.353-1.911 4.513-3.592 8.949-4.968 13.08-2.293 6.807-3.897 13.002-4.967 19.121-.612 3.442-1.3 6.884-2.064 10.402-1.528 6.807-3.745 14.227-7.566 22.258-1.605 3.441-3.363 6.807-5.12 10.172-3.821 7.496-7.413 14.456-11.158 20.575A208.912 208.912 0 0 1-.196 216.066a430.744 430.744 0 0 1-6.497 8.184c-7.795 9.561-16.43 20.039-25.678 30.059-1.223 1.3-2.446 2.677-3.668 3.977-10.241 10.708-23.386 21.952-30.111 29.371"/><path opacity=".633" d="M94.34 44.89c-4.05-.459-12.228 8.184-21.858 21.951-1.605 2.295-3.286 4.666-4.89 7.19-6.191 9.56-12.152 21.034-16.967 32.201-1.91 4.512-3.592 8.796-5.044 12.926-2.369 6.731-4.05 12.85-5.35 18.892a317.433 317.433 0 0 1-2.292 10.249c-1.681 6.731-3.974 13.997-7.796 22.028-1.604 3.365-3.362 6.731-5.044 10.096-3.744 7.419-7.183 14.38-10.852 20.575-3.744 6.272-7.49 12.008-11.845 17.898-1.987 2.677-4.127 5.43-6.267 8.184-7.566 9.56-16.126 20.115-25.297 29.982l-3.668 3.901c-10.164 10.631-23.31 21.569-30.264 28.682"/><path opacity=".622" d="M95.027 48.024c-3.439-.151-11.005 8.721-20.252 22.565-1.528 2.295-3.133 4.666-4.738 7.266-5.961 9.561-11.846 21.034-16.814 32.048-1.986 4.436-3.668 8.719-5.196 12.773-2.446 6.578-4.28 12.62-5.656 18.586-.764 3.366-1.605 6.655-2.522 10.096-1.834 6.655-4.203 13.768-8.1 21.722-1.605 3.366-3.363 6.655-5.045 10.02-3.668 7.419-7.03 14.379-10.546 20.498-3.592 6.349-7.184 12.085-11.31 17.975-1.911 2.677-3.975 5.43-6.115 8.26-7.336 9.637-15.82 20.116-24.914 29.906l-3.668 3.901c-10.165 10.555-23.31 21.263-30.417 28.07"/><path opacity=".611" d="M95.716 51.162c-2.828.153-9.86 9.255-18.724 23.175-1.453 2.295-3.057 4.742-4.586 7.266-5.808 9.56-11.616 20.957-16.584 31.895a253.163 253.163 0 0 0-5.273 12.62c-2.522 6.501-4.51 12.467-6.038 18.28a279.36 279.36 0 0 1-2.75 9.943c-1.988 6.502-4.51 13.615-8.331 21.416-1.605 3.289-3.363 6.655-5.044 9.944-3.668 7.342-6.878 14.303-10.24 20.498-3.44 6.348-6.88 12.161-10.853 18.051-1.834 2.753-3.821 5.507-5.885 8.337-7.184 9.637-15.514 20.115-24.532 29.906-1.223 1.3-2.445 2.6-3.668 3.824-10.165 10.402-23.31 20.881-30.57 27.382"/><path opacity=".6" d="M96.403 54.221c-2.216.46-8.635 9.79-17.195 23.864-1.376 2.294-2.904 4.742-4.433 7.266-5.655 9.637-11.387 20.881-16.354 31.742-1.987 4.359-3.745 8.566-5.35 12.467-2.598 6.425-4.738 12.238-6.42 17.974a201.99 201.99 0 0 1-3.057 9.79c-2.063 6.425-4.738 13.385-8.635 21.111-1.605 3.288-3.363 6.577-4.968 9.866-3.592 7.343-6.725 14.227-9.859 20.498-3.286 6.349-6.572 12.162-10.393 18.128-1.758 2.753-3.669 5.507-5.732 8.337-6.955 9.713-15.132 20.192-24.15 29.829-1.223 1.3-2.446 2.601-3.668 3.825-10.165 10.325-23.31 20.574-30.8 26.693"/><path opacity=".589" d="M97.09 57.357c-1.68.765-7.412 10.326-15.666 24.476-1.376 2.294-2.828 4.742-4.204 7.266-5.426 9.637-11.157 20.881-16.125 31.512a493.27 493.27 0 0 0-5.502 12.314c-2.675 6.349-4.892 12.085-6.726 17.745-.993 3.136-2.14 6.348-3.286 9.637a170.883 170.883 0 0 1-8.942 20.881 389.817 389.817 0 0 0-4.967 9.79c-3.592 7.266-6.496 14.227-9.553 20.422-3.134 6.348-6.19 12.238-9.935 18.204-1.682 2.753-3.592 5.507-5.503 8.413-6.725 9.714-14.826 20.193-23.768 29.83-1.223 1.3-2.369 2.524-3.592 3.748-10.164 10.249-23.309 20.268-30.951 26.081"/><path opacity=".578" d="M97.779 60.417c-1.07 1.07-6.267 10.86-14.062 25.087-1.3 2.371-2.675 4.742-4.05 7.343-5.274 9.637-10.853 20.804-15.897 31.359-1.987 4.283-3.82 8.337-5.579 12.161-2.827 6.272-5.12 11.856-7.107 17.439a753.606 753.606 0 0 1-3.516 9.408c-2.369 6.195-5.273 13.002-9.17 20.575-1.682 3.212-3.363 6.424-4.968 9.79-3.515 7.266-6.343 14.15-9.247 20.421-2.98 6.349-5.885 12.315-9.4 18.281-1.605 2.753-3.44 5.583-5.35 8.413-6.573 9.79-14.52 20.269-23.386 29.753-1.223 1.3-2.37 2.524-3.592 3.748-10.164 10.173-23.31 19.886-31.104 25.393"/><path opacity=".567" d="M98.466 63.476c-.458 1.377-5.043 11.473-12.533 25.7-1.223 2.37-2.599 4.818-3.898 7.342-5.12 9.637-10.623 20.728-15.667 31.206-2.063 4.207-3.897 8.261-5.655 12.009-2.904 6.195-5.35 11.702-7.49 17.132a785.16 785.16 0 0 1-3.744 9.255c-2.522 6.119-5.503 12.773-9.477 20.269-1.681 3.212-3.363 6.425-4.967 9.714-3.44 7.189-6.19 14.15-8.942 20.422-2.828 6.424-5.579 12.39-8.942 18.356a277.959 277.959 0 0 1-5.12 8.49c-6.343 9.79-14.215 20.269-23.08 29.677-1.146 1.224-2.37 2.524-3.592 3.671-10.088 10.096-23.31 19.58-31.257 24.705"/><path opacity=".556" d="M99.154 66.459c.153 1.683-3.82 12.008-11.005 26.388-1.146 2.37-2.445 4.818-3.745 7.342-4.967 9.637-10.393 20.728-15.514 31.054-2.063 4.206-3.974 8.184-5.808 11.855-2.98 6.119-5.579 11.549-7.795 16.827-1.3 2.983-2.599 5.966-3.974 9.102-2.675 5.966-5.808 12.62-9.706 19.962-1.681 3.136-3.363 6.349-4.891 9.638-3.44 7.189-6.038 14.073-8.636 20.345-2.675 6.425-5.273 12.391-8.483 18.433-1.529 2.83-3.134 5.66-4.968 8.49-6.19 9.867-13.832 20.269-22.698 29.677-1.146 1.223-2.369 2.447-3.591 3.671-10.088 9.943-23.233 19.198-31.41 24.093"/><path opacity=".544" d="M99.843 69.442c.764 1.989-2.675 12.544-9.477 27-1.146 2.37-2.37 4.818-3.592 7.419-4.738 9.637-10.088 20.651-15.285 30.9-2.063 4.13-3.974 8.031-5.884 11.779-3.057 5.966-5.809 11.32-8.178 16.597a882.224 882.224 0 0 1-4.203 8.949c-2.828 5.89-6.038 12.391-10.012 19.734-1.681 3.135-3.362 6.271-4.89 9.56-3.363 7.113-5.885 13.997-8.331 20.346-2.522 6.424-4.891 12.467-8.024 18.586-1.453 2.83-3.057 5.66-4.739 8.566-5.96 9.867-13.527 20.345-22.316 29.6-1.146 1.224-2.369 2.448-3.592 3.672-10.087 9.866-23.233 18.892-31.563 23.404"/><path opacity=".533" d="M100.53 72.349c1.376 2.294-1.452 13.079-7.871 27.611a525.241 525.241 0 0 1-3.44 7.419c-4.585 9.637-9.858 20.575-15.055 30.747-2.063 4.054-4.05 7.955-5.961 11.626-3.133 5.89-5.961 11.167-8.56 16.292-1.452 2.906-2.904 5.813-4.509 8.796-2.98 5.813-6.343 12.161-10.24 19.427-1.682 3.06-3.363 6.272-4.892 9.485-3.286 7.113-5.655 13.996-8.024 20.345-2.37 6.425-4.586 12.544-7.566 18.662-1.376 2.83-2.904 5.66-4.585 8.567-5.732 9.943-13.222 20.345-21.934 29.523-1.147 1.224-2.37 2.448-3.516 3.595-10.088 9.791-23.233 18.586-31.792 22.717"/><path opacity=".522" d="M101.218 75.255c1.987 2.6-.305 13.614-6.343 28.223-.993 2.371-2.14 4.895-3.286 7.419-4.433 9.638-9.63 20.575-14.826 30.595-2.064 4.053-4.127 7.878-6.038 11.473-3.21 5.813-6.19 10.937-8.941 15.985-1.529 2.83-3.134 5.66-4.739 8.643-3.133 5.66-6.572 12.008-10.546 19.122-1.682 3.059-3.363 6.195-4.815 9.407-3.286 7.037-5.503 13.921-7.642 20.269-2.217 6.502-4.28 12.544-7.032 18.739a130.147 130.147 0 0 1-4.356 8.643c-5.579 9.943-12.915 20.345-21.551 29.524-1.147 1.224-2.293 2.371-3.516 3.595-10.088 9.713-23.233 18.203-31.945 22.104"/><path opacity=".511" d="M101.829 78.085c2.599 2.906.917 14.15-4.814 28.835-.917 2.371-1.987 4.895-3.134 7.496-4.203 9.714-9.4 20.498-14.597 30.441-2.063 3.978-4.127 7.802-6.19 11.32-3.286 5.737-6.42 10.785-9.247 15.68-1.605 2.753-3.287 5.583-4.968 8.49-3.21 5.583-6.802 11.779-10.776 18.892-1.681 3.059-3.362 6.119-4.814 9.331-3.21 7.037-5.35 13.921-7.337 20.269-2.064 6.501-3.974 12.62-6.573 18.816-1.222 2.829-2.598 5.736-4.203 8.642-5.35 10.02-12.533 20.422-21.17 29.448a76.516 76.516 0 0 1-3.515 3.518c-10.011 9.637-23.233 17.898-32.098 21.416"/><path opacity=".5" d="M102.441 80.838c3.133 3.213 2.063 14.686-3.287 29.524-.84 2.448-1.91 4.895-2.98 7.496-4.05 9.713-9.095 20.421-14.444 30.288-2.14 3.977-4.204 7.725-6.267 11.167-3.363 5.66-6.649 10.555-9.63 15.45-1.68 2.754-3.438 5.431-5.196 8.261-3.363 5.43-7.108 11.549-11.082 18.586-1.681 2.983-3.362 6.042-4.814 9.255-3.134 6.96-5.197 13.844-7.031 20.268-1.911 6.502-3.592 12.697-6.114 18.892-1.147 2.907-2.522 5.813-3.974 8.72-5.197 10.02-12.228 20.422-20.788 29.37a76.044 76.044 0 0 1-3.515 3.519c-10.012 9.484-23.233 17.515-32.251 20.728"/><path opacity=".489" d="M103.052 83.592c3.745 3.518 3.286 15.22-1.758 30.135a132.767 132.767 0 0 1-2.827 7.496c-3.898 9.714-8.866 20.345-14.215 30.135-2.14 3.901-4.204 7.573-6.343 11.014-3.44 5.584-6.879 10.402-10.012 15.145-1.758 2.677-3.592 5.354-5.426 8.107-3.516 5.354-7.337 11.397-11.31 18.28-1.682 2.983-3.364 6.043-4.74 9.179-3.133 6.96-4.967 13.767-6.724 20.192-1.758 6.501-3.287 12.773-5.656 18.968-1.07 2.907-2.369 5.813-3.821 8.72-4.968 10.096-11.922 20.498-20.405 29.371-1.147 1.147-2.293 2.371-3.516 3.441-10.011 9.408-23.156 17.21-32.404 20.116"/><path opacity=".478" d="M103.74 86.192c4.356 3.825 4.509 15.757-.153 30.748-.764 2.447-1.681 4.971-2.675 7.496-3.668 9.713-8.636 20.345-13.986 29.982-2.14 3.901-4.28 7.496-6.496 10.861-3.592 5.507-7.03 10.249-10.317 14.838-1.834 2.601-3.745 5.201-5.655 7.955-3.669 5.277-7.642 11.167-11.617 17.974-1.68 2.907-3.362 5.966-4.738 9.102-3.057 6.96-4.815 13.767-6.42 20.192-1.604 6.502-2.98 12.773-5.12 19.045-.993 2.907-2.216 5.813-3.592 8.796-4.738 10.096-11.616 20.498-20.1 29.294l-3.438 3.442c-10.012 9.331-23.157 16.827-32.557 19.428"/><path opacity=".467" d="M104.351 88.716c4.968 4.13 5.656 16.292 1.376 31.36-.688 2.447-1.528 4.971-2.446 7.572-3.515 9.713-8.33 20.269-13.756 29.829a152.27 152.27 0 0 1-6.572 10.708c-3.669 5.431-7.26 10.02-10.7 14.533-1.91 2.6-3.897 5.124-5.96 7.801-3.822 5.125-7.872 11.014-11.847 17.745-1.757 2.907-3.362 5.889-4.738 9.025-3.057 6.884-4.662 13.691-6.114 20.193-1.452 6.577-2.598 12.849-4.662 19.198a69.754 69.754 0 0 1-3.439 8.796c-4.585 10.172-11.234 20.498-19.717 29.294-1.146 1.147-2.293 2.294-3.44 3.365-10.01 9.255-23.156 16.521-32.709 18.739"/><path opacity=".456" d="M105.115 91.164c5.579 4.436 6.879 16.827 2.904 32.048-.611 2.447-1.452 4.971-2.292 7.572-3.363 9.714-8.101 20.192-13.527 29.676-2.14 3.748-4.356 7.343-6.65 10.555-3.744 5.278-7.489 9.867-11.08 14.303-2.064 2.524-4.128 5.048-6.191 7.649-3.974 5.048-8.177 10.784-12.151 17.439-1.758 2.83-3.363 5.813-4.662 8.949-2.98 6.883-4.51 13.614-5.809 20.115-1.299 6.578-2.292 12.927-4.203 19.275-.84 2.906-1.987 5.889-3.21 8.872-4.356 10.173-10.928 20.575-19.335 29.218-1.146 1.147-2.293 2.295-3.439 3.365-9.935 9.102-23.156 16.215-32.939 18.128"/><path opacity=".444" d="M105.88 93.535c6.19 4.742 8.025 17.362 4.433 32.66-.612 2.447-1.3 5.048-2.14 7.572-3.134 9.713-7.872 20.192-13.374 29.523-2.217 3.748-4.433 7.19-6.802 10.402-3.821 5.201-7.719 9.638-11.387 13.997-2.14 2.448-4.28 4.895-6.42 7.496-4.127 4.972-8.407 10.555-12.457 17.133-1.758 2.83-3.363 5.813-4.662 8.872-2.904 6.807-4.356 13.615-5.426 20.116-1.146 6.578-1.987 13.003-3.745 19.351-.764 2.983-1.834 5.966-3.057 8.949-4.127 10.249-10.623 20.575-18.953 29.141-1.146 1.147-2.216 2.218-3.439 3.289-9.935 9.025-23.157 15.833-33.092 17.439"/><path opacity=".433" d="M106.644 95.83c6.801 5.048 9.247 17.897 6.037 33.271-.535 2.524-1.223 5.048-1.987 7.649-2.98 9.79-7.642 20.115-13.145 29.294-2.216 3.671-4.509 7.113-6.878 10.249-3.898 5.124-7.948 9.484-11.77 13.691a316.438 316.438 0 0 0-6.648 7.343c-4.28 4.818-8.636 10.402-12.687 16.826-1.757 2.83-3.362 5.737-4.661 8.796-2.904 6.808-4.127 13.538-5.12 20.04-.994 6.577-1.682 13.002-3.21 19.427-.765 2.983-1.682 5.966-2.828 8.949-3.974 10.249-10.318 20.651-18.571 29.141-1.07 1.147-2.217 2.218-3.44 3.289-9.934 8.949-23.156 15.527-33.244 16.751"/><path opacity=".422" d="M107.561 97.971c7.413 5.354 10.394 18.433 7.566 33.884a73.974 73.974 0 0 1-1.834 7.648c-2.828 9.79-7.337 20.04-12.916 29.141-2.216 3.672-4.509 7.037-6.954 10.097-3.975 5.048-8.101 9.254-12.152 13.385-2.293 2.371-4.585 4.665-6.878 7.113-4.356 4.742-8.942 10.172-12.992 16.597-1.758 2.754-3.363 5.66-4.662 8.72-2.828 6.73-3.974 13.538-4.815 20.039-.84 6.578-1.299 13.079-2.751 19.504-.688 2.983-1.529 5.966-2.675 9.025-3.745 10.326-9.935 20.652-18.189 29.065a44.14 44.14 0 0 1-3.362 3.212c-9.935 8.873-23.08 15.145-33.398 16.139"/><path opacity=".411" d="M108.478 100.036c8.025 5.66 11.617 18.969 9.095 34.572-.382 2.524-.994 5.048-1.681 7.649-2.675 9.79-7.108 20.039-12.687 28.988-2.216 3.595-4.585 6.96-7.107 9.943-4.05 4.972-8.33 9.102-12.534 13.156a599.578 599.578 0 0 0-7.107 6.96c-4.51 4.665-9.171 9.943-13.222 16.291-1.757 2.754-3.362 5.584-4.585 8.643-2.751 6.731-3.821 13.462-4.509 20.04-.688 6.654-.993 13.155-2.293 19.58-.611 2.983-1.452 6.042-2.445 9.025-3.592 10.326-9.63 20.652-17.807 28.989a44.12 44.12 0 0 1-3.363 3.212c-9.935 8.719-23.08 14.838-33.55 15.45"/><path opacity=".4" d="M109.548 102.025c8.56 5.966 12.763 19.504 10.623 35.184-.305 2.524-.84 5.124-1.528 7.725-2.446 9.79-6.878 19.962-12.457 28.835-2.217 3.518-4.662 6.807-7.184 9.867-4.127 4.895-8.56 8.872-12.84 12.849-2.445 2.218-4.89 4.436-7.413 6.807-4.661 4.513-9.476 9.791-13.527 15.986-1.757 2.677-3.362 5.584-4.585 8.566-2.751 6.655-3.668 13.386-4.203 19.963-.535 6.655-.688 13.156-1.835 19.657a68.98 68.98 0 0 1-2.292 9.102c-3.363 10.402-9.324 20.728-17.425 28.988-1.07 1.071-2.216 2.142-3.363 3.213-9.935 8.643-23.08 14.532-33.703 14.838"/><path opacity=".389" d="M110.618 103.784c9.171 6.272 13.986 20.04 12.228 35.796a71.357 71.357 0 0 1-1.375 7.725c-2.293 9.79-6.573 19.886-12.305 28.682-2.216 3.518-4.662 6.731-7.26 9.714-4.203 4.818-8.789 8.719-13.221 12.544-2.522 2.218-5.12 4.359-7.643 6.654-4.814 4.436-9.706 9.561-13.756 15.679-1.758 2.678-3.363 5.507-4.585 8.49-2.675 6.655-3.516 13.385-3.898 19.963-.382 6.655-.382 13.232-1.3 19.81-.458 3.06-1.146 6.043-2.063 9.102-3.133 10.402-9.018 20.728-17.119 28.912a65.422 65.422 0 0 1-3.362 3.136c-9.936 8.566-23.08 14.15-33.933 14.15"/><path opacity=".378" d="M111.841 105.467c9.782 6.578 15.132 20.575 13.756 36.407-.229 2.524-.611 5.125-1.222 7.725-2.14 9.79-6.344 19.887-12.075 28.53-2.293 3.441-4.739 6.654-7.337 9.56-4.28 4.666-9.018 8.567-13.604 12.315-2.598 2.141-5.273 4.206-7.871 6.501-4.968 4.283-10.012 9.331-14.062 15.45-1.758 2.677-3.363 5.431-4.51 8.414-2.674 6.577-3.285 13.308-3.515 19.962-.23 6.655 0 13.309-.84 19.887a56.026 56.026 0 0 1-1.911 9.178c-2.98 10.479-8.636 20.728-16.737 28.835a64.981 64.981 0 0 1-3.363 3.136c-9.858 8.49-23.08 13.844-34.085 13.462"/><path opacity=".367" d="M113.217 107.073c10.393 6.884 16.355 21.11 15.285 37.019-.153 2.524-.535 5.125-1.07 7.802-1.911 9.79-6.114 19.81-11.846 28.376-2.293 3.442-4.738 6.578-7.49 9.408-4.432 4.589-9.17 8.337-13.909 12.008-2.675 2.065-5.426 4.131-8.1 6.349-5.121 4.206-10.242 9.178-14.292 15.144-1.758 2.6-3.363 5.43-4.509 8.413-2.599 6.578-3.133 13.309-3.21 19.887-.076 6.654.306 13.385-.382 19.963a55.261 55.261 0 0 1-1.681 9.178c-2.752 10.478-8.33 20.804-16.355 28.835a62.394 62.394 0 0 1-3.286 3.06c-9.859 8.413-23.08 13.461-34.238 12.849"/><path opacity=".356" d="M114.668 108.45c11.006 7.189 17.502 21.645 16.814 37.707a45.307 45.307 0 0 1-.917 7.802c-1.758 9.79-5.885 19.733-11.617 28.223-2.292 3.366-4.814 6.502-7.566 9.255-4.509 4.513-9.4 8.184-14.291 11.702a213.351 213.351 0 0 0-8.33 6.196c-5.273 4.13-10.47 8.949-14.597 14.838-1.758 2.601-3.363 5.354-4.51 8.337-2.521 6.501-2.98 13.232-2.903 19.886.076 6.731.611 13.385.076 20.04-.23 3.059-.764 6.195-1.528 9.255-2.599 10.555-8.025 20.804-15.973 28.758a62.435 62.435 0 0 1-3.286 3.06c-9.859 8.26-23.004 13.155-34.391 12.161"/><path opacity=".344" d="M116.274 109.674c11.616 7.495 18.724 22.181 18.418 38.319a67.36 67.36 0 0 1-.688 7.802c-1.605 9.866-5.579 19.733-11.387 28.07a67.825 67.825 0 0 1-7.643 9.102c-4.585 4.436-9.629 7.954-14.673 11.396-2.904 1.989-5.732 3.901-8.56 5.966-5.425 3.977-10.775 8.72-14.826 14.609-1.834 2.524-3.362 5.278-4.432 8.261-2.522 6.501-2.828 13.155-2.599 19.886.23 6.731.917 13.461.535 20.116-.153 3.059-.611 6.195-1.299 9.255-2.37 10.555-7.719 20.88-15.59 28.758-1.07 1.071-2.14 2.065-3.287 2.983-9.858 8.184-23.003 12.773-34.543 11.473"/><path opacity=".333" d="M118.031 110.744c12.228 7.802 19.871 22.717 19.947 38.932 0 2.6-.153 5.201-.535 7.801-1.376 9.867-5.35 19.657-11.234 27.918a54.54 54.54 0 0 1-7.796 8.949c-4.661 4.359-9.858 7.801-15.055 11.167-2.981 1.912-5.961 3.824-8.865 5.812-5.503 3.901-11.005 8.567-15.132 14.303-1.834 2.524-3.363 5.201-4.433 8.184-2.445 6.425-2.675 13.156-2.293 19.81.383 6.731 1.3 13.538 1.07 20.193-.076 3.135-.458 6.195-1.07 9.331-2.14 10.631-7.336 20.881-15.208 28.682-1.07 1.071-2.14 2.065-3.286 2.983-9.859 8.108-23.004 12.467-34.697 10.861"/><path opacity=".322" d="M119.865 111.662c12.84 8.108 21.093 23.329 21.475 39.544.077 2.6-.076 5.201-.382 7.878-1.222 9.866-5.12 19.58-11.005 27.764a53.943 53.943 0 0 1-7.871 8.796c-4.739 4.283-10.088 7.572-15.362 10.861-3.057 1.836-6.114 3.671-9.094 5.66-5.656 3.748-11.31 8.337-15.361 13.997a32.112 32.112 0 0 0-4.433 8.107c-2.369 6.425-2.445 13.08-1.987 19.81.535 6.731 1.605 13.538 1.529 20.269 0 3.136-.306 6.272-.917 9.331-1.987 10.632-7.031 20.881-14.827 28.606-1.07.994-2.14 1.989-3.286 2.907-9.782 8.031-23.004 12.161-34.85 10.172"/><path opacity=".311" d="M121.929 112.351c13.374 8.413 22.239 23.863 23.004 40.231a45.212 45.212 0 0 1-.23 7.878c-1.07 9.867-4.814 19.581-10.775 27.612a53.672 53.672 0 0 1-7.948 8.643c-4.815 4.206-10.241 7.419-15.744 10.555-3.133 1.835-6.267 3.595-9.324 5.507-5.808 3.671-11.54 8.107-15.666 13.691-1.835 2.447-3.363 5.124-4.357 8.031-2.369 6.425-2.292 13.079-1.681 19.81.688 6.807 1.91 13.614 1.987 20.345 0 3.136-.23 6.272-.688 9.408-1.758 10.708-6.725 20.957-14.444 28.606-1.07.994-2.14 1.988-3.286 2.906-9.782 7.955-23.004 11.779-35.079 9.484"/><path opacity=".3" d="M124.069 112.886c13.985 8.72 23.462 24.399 24.608 40.844 1.147 16.444-6.037 33.271-18.724 43.826-7.718 6.425-17.042 10.479-25.678 15.603-8.636 5.125-16.89 11.932-20.329 21.34-4.585 12.697.688 26.694 1.146 40.232.459 13.92-4.661 28.223-14.596 38.013-9.936 9.79-24.838 14.609-38.442 11.702"/></g><defs><linearGradient id="a" x1="35" y1="30" x2="35" y2="90" gradientUnits="userSpaceOnUse"><stop stop-color="#F00" stop-opacity=".1"/><stop offset="1" stop-color="#fff" stop-opacity="0"/></linearGradient><linearGradient id="b" x1="65" y1="30" x2="65" y2="90" gradientUnits="userSpaceOnUse"><stop stop-color="#BB82DE" stop-opacity=".4"/><stop offset="1" stop-color="#fff" stop-opacity="0"/></linearGradient></defs></svg>