<svg width="232" height="180" viewBox="0 0 232 180" fill="none" xmlns="http://www.w3.org/2000/svg"><g clip-path="url(#a)"><path d="M16.076 128.708c8.879 0 16.076-7.23 16.076-16.148s-7.197-16.148-16.076-16.148C7.198 96.412 0 103.642 0 112.56s7.198 16.148 16.076 16.148z" fill="#55ADBB"/><path d="M14.658 118.418c-.316 0-.63-.159-.788-.317l-5.832-4.749c-.63-.475-.63-1.267-.158-1.742.473-.633 1.261-.633 1.734-.158l5.044 4.116 9.456-6.807c.63-.475 1.419-.317 1.734.316.473.633.315 1.425-.315 1.742l-10.245 7.44c-.158 0-.315.159-.63.159z" fill="#fff"/><path d="M184.245 141.055H46.179c-5.043 0-9.14-4.116-9.14-9.182V45.119c0-5.066 4.097-9.182 9.14-9.182h138.066c5.043 0 9.141 4.116 9.141 9.182v86.754c0 5.066-4.098 9.182-9.141 9.182z" fill="#55ADBB"/><path d="M176.049 134.564H51.695c-4.728 0-8.51-3.641-8.51-8.074V50.5c0-4.432 3.782-8.073 8.51-8.073H176.05c4.728 0 8.511 3.64 8.511 8.074v75.989c0 4.433-3.783 8.074-8.511 8.074z" fill="#fff"/><path d="M189.13 79.947c.946 0 1.892.792 1.892 1.9v13.457c0 .95-.788 1.9-1.892 1.9-.945 0-1.891-.792-1.891-1.9V81.846c0-1.108.788-1.9 1.891-1.9z" fill="#3287B2"/><path d="M73.445 59.05H30.891v-.792h41.924V35.144h.63V59.05zm119.31 6.965v-.633.633H36.408v-.633h156.347v.633zm-74.391 72.823h-.631v-29.763h74.707v.633h-74.076v29.13zm-47.598 3.167h-.63V85.33H26.163v-.634h44.603v57.309zm78.962-90.555h-17.022V37.044h.63v13.773h15.761V38.944h.631V51.45z" fill="#fff"/><path d="M140.744 103.852H87c-3.152 0-5.674-2.533-5.674-5.7v-20.42c0-3.167 2.522-5.7 5.674-5.7h53.744c3.153 0 5.674 2.533 5.674 5.7v20.422c0 3.166-2.521 5.699-5.674 5.699z" fill="#A5DE47"/><path d="M114 78c-5.52 0-10 4.48-10 10s4.48 10 10 10 10-4.48 10-10-4.48-10-10-10zm0 18c-4.41 0-8-3.59-8-8s3.59-8 8-8 8 3.59 8 8-3.59 8-8 8zm.31-8.86c-1.77-.45-2.34-.94-2.34-1.67 0-.84.79-1.43 2.1-1.43 1.38 0 1.9.66 1.94 1.64h1.71c-.05-1.34-.87-2.57-2.49-2.97V81h-2.33v1.69c-1.51.32-2.72 1.3-2.72 2.81 0 1.79 1.49 2.69 3.66 3.21 1.95.46 2.34 1.15 2.34 1.87 0 .53-.39 1.39-2.1 1.39-1.6 0-2.23-.72-2.32-1.64h-1.72c.1 1.7 1.36 2.66 2.86 2.97V95h2.34v-1.67c1.52-.29 2.72-1.16 2.73-2.77-.01-2.2-1.9-2.96-3.66-3.42z" fill="#fff"/><path d="M28.843 36.728c6.615 0 11.978-5.386 11.978-12.031 0-6.645-5.363-12.032-11.978-12.032-6.616 0-11.979 5.387-11.979 12.032 0 6.645 5.363 12.031 11.979 12.031z" fill="#FF4F4F"/><path d="M29 17.5c-4.14 0-7.5 3.36-7.5 7.5 0 4.14 3.36 7.5 7.5 7.5 4.14 0 7.5-3.36 7.5-7.5 0-4.14-3.36-7.5-7.5-7.5zM29 31c-3.308 0-6-2.692-6-6s2.692-6 6-6c3.307 0 6 2.692 6 6s-2.693 6-6 6zm.233-6.645c-1.328-.338-1.756-.705-1.756-1.253 0-.63.593-1.072 1.575-1.072 1.035 0 1.425.495 1.456 1.23h1.282c-.037-1.005-.652-1.928-1.867-2.228V19.75h-1.748v1.267c-1.133.24-2.04.976-2.04 2.108 0 1.343 1.117 2.017 2.745 2.407 1.463.346 1.755.863 1.755 1.403 0 .398-.293 1.043-1.575 1.043-1.2 0-1.672-.54-1.74-1.23h-1.29c.075 1.274 1.02 1.994 2.145 2.227v1.275h1.755v-1.253c1.14-.217 2.04-.87 2.047-2.077-.007-1.65-1.425-2.22-2.744-2.565z" fill="#fff"/><path d="M200.951 36.728c6.616 0 11.979-5.386 11.979-12.031 0-6.645-5.363-12.032-11.979-12.032-6.615 0-11.978 5.387-11.978 12.032 0 6.645 5.363 12.031 11.978 12.031z" fill="#55ADBB"/><path d="M206.31 20.264c-1.734-.95-4.098.317-5.201 1.9-1.103-1.742-3.625-2.85-5.359-1.9-1.891.95-2.364 3.008-1.261 4.908.946 1.9 6.778 6.49 6.778 6.49s5.674-4.59 6.777-6.49c.788-1.9.157-3.958-1.734-4.908z" fill="#fff"/><path d="M115.212 31.662c8.704 0 15.761-7.088 15.761-15.83C130.973 7.087 123.916 0 115.212 0c-8.705 0-15.761 7.088-15.761 15.831 0 8.743 7.056 15.831 15.761 15.831z" fill="#55ADBB"/><path d="M200.951 165.118c6.616 0 11.979-5.387 11.979-12.032 0-6.645-5.363-12.031-11.979-12.031-6.615 0-11.978 5.386-11.978 12.031 0 6.645 5.363 12.032 11.978 12.032z" fill="#2CBFC6"/><path d="M202.37 146.279h-2.679v13.298h2.679v-13.298z" fill="#fff"/><path d="M207.571 151.662h-13.239v2.691h13.239v-2.691z" fill="#fff"/><path d="M23.169 142.955c-2.68-5.857-6.147-39.261-1.577-43.535 4.571-4.275 10.718-5.858 12.136-6.174 1.576-.317-1.576-20.58 4.886-21.689 3.625-.633 7.565.633 7.25 12.19-.473 15.356-2.364 58.417-2.364 58.417l-20.331.791z" fill="#FE9249"/><path d="M35.105 101.202l-.661-23.737-.63.018.661 23.737.63-.018zm5.085-20.78a3.16 3.16 0 0 0 3.152-3.166 3.16 3.16 0 0 0-3.152-3.166 3.16 3.16 0 0 0-3.152 3.166 3.16 3.16 0 0 0 3.152 3.166z" fill="#fff"/><path d="M22.696 142.164H43.5v35.778c0 1.109-.946 2.217-2.206 2.217H24.902c-1.103 0-2.206-.95-2.206-2.217v-35.778zm134.282 0l22.065 7.916 3.783 27.862c0 1.109-.946 2.217-2.207 2.217h-21.434c-1.104 0-2.207-.95-2.207-2.217v-35.778z" fill="#1C93A4"/><path d="M134.283 132.506c-1.892-3.482.788-6.649 5.831-14.248 1.261-1.899.315-5.857-2.206-11.081-5.201-10.766-8.669-18.681-2.522-22.322 6.147-3.642 7.408 6.649 10.245 14.564 2.994 7.916 3.625 12.824 5.673 12.824.631 0 1.261-.95 4.886-1.109 3.153-.158 2.837 1.267 4.886 1.425 2.049.159 4.098-1.266 6.777-.791.946.158 2.365 1.266 3.941 1.741 1.418.475 4.413-.633 6.462 1.267 5.358 5.066.945 35.62.945 35.62l-21.907 7.915s-9.772-6.174-13.712-9.024c-2.522-2.216-6.305-11.081-9.299-16.781z" fill="#FE9249"/><path d="M146.246 136.109l-6.093-22.944-.609.163 6.093 22.944.609-.163zm-8.338-41.914a3.16 3.16 0 0 0 3.152-3.166 3.16 3.16 0 0 0-3.152-3.167 3.16 3.16 0 0 0-3.153 3.166 3.16 3.16 0 0 0 3.153 3.167z" fill="#fff"/><path d="M22.065 138.998H43.5v9.815H22.065c-1.418 0-2.521-1.108-2.521-2.533v-4.591c0-1.424 1.103-2.691 2.521-2.691zm158.87 12.981l1.576 4.275c.473 1.424-.157 2.849-1.576 3.324l-23.011 8.232c-1.418.475-2.837-.158-3.31-1.583l-1.576-4.274c-.473-1.425.158-2.85 1.576-3.325l23.011-8.232c1.419-.475 2.837.317 3.31 1.583z" fill="#2CBFC6"/><path opacity=".19" d="M165.805 95.937c0 2.216-1.734 3.957-3.941 3.957-2.206 0-3.94-1.741-3.94-3.957V51.135c0-2.217 1.734-3.958 3.94-3.958 2.207 0 3.941 1.741 3.941 3.958v44.802zm12.135-28.655c0 2.217-1.733 3.958-3.94 3.958-2.206 0-3.94-1.741-3.94-3.958V51.135c0-2.217 1.734-3.958 3.94-3.958 2.207 0 3.94 1.741 3.94 3.958v16.147z" fill="#fff"/><path d="M124.038 22.797h-17.179c-.631 0-1.261-.633-1.261-1.266V10.607c0-.633.63-1.266 1.261-1.266h17.179c.631 0 1.261.633 1.261 1.266v10.924c0 .791-.63 1.266-1.261 1.266zm-15.918-2.533h14.5v-8.39h-14.5v8.39z" fill="#fff"/><path d="M115.685 18.205a2.37 2.37 0 0 0 2.364-2.374 2.369 2.369 0 0 0-2.364-2.375 2.369 2.369 0 0 0-2.364 2.375 2.37 2.37 0 0 0 2.364 2.374zm4.413-6.648c-.946 0-1.576-.792-1.576-1.583V8.549c0-.95.788-1.583 1.576-1.583.946 0 1.576.791 1.576 1.583v1.266c0 .95-.788 1.742-1.576 1.742z" fill="#fff"/><path d="M70.924 31.188c8.008 0 14.5-6.52 14.5-14.565 0-8.044-6.492-14.564-14.5-14.564s-14.5 6.52-14.5 14.564 6.492 14.565 14.5 14.565z" fill="#55ADBB"/><path d="M64.777 23.272c-.315 0-.63-.158-.946-.317a1.246 1.246 0 0 1 0-1.741L75.81 9.499a1.233 1.233 0 0 1 1.734 0 1.246 1.246 0 0 1 0 1.741l-11.82 11.715c-.316.159-.631.317-.946.317zm1.733-8.707a2.843 2.843 0 0 0 2.837-2.85 2.843 2.843 0 0 0-2.837-2.849 2.843 2.843 0 0 0-2.836 2.85c0 1.574 1.27 2.85 2.836 2.85zm8.984 8.707a2.843 2.843 0 0 0 2.837-2.85 2.843 2.843 0 0 0-2.837-2.849 2.843 2.843 0 0 0-2.837 2.85c0 1.574 1.27 2.85 2.837 2.85z" fill="#fff"/><path d="M75.495 21.53c.609 0 1.103-.495 1.103-1.107s-.494-1.108-1.103-1.108c-.61 0-1.104.496-1.104 1.108 0 .612.494 1.108 1.104 1.108zm-8.984-8.706c.61 0 1.103-.496 1.103-1.108 0-.612-.494-1.109-1.103-1.109-.61 0-1.103.497-1.103 1.109s.494 1.108 1.103 1.108z" fill="#4396CA"/><path d="M159.973 31.188c8.008 0 14.5-6.52 14.5-14.565 0-8.044-6.492-14.564-14.5-14.564s-14.5 6.52-14.5 14.564 6.492 14.565 14.5 14.565z" fill="#2CBFC6"/><path d="M170.69 17.415s-3.94 6.015-11.033 5.54c-6.462-.316-9.772-5.54-9.772-5.54s2.837-6.491 9.772-6.65c8.196-.158 11.033 6.65 11.033 6.65z" fill="#fff"/><path d="M160.446 21.372c2.437 0 4.413-1.984 4.413-4.432 0-2.449-1.976-4.433-4.413-4.433-2.438 0-4.414 1.984-4.414 4.433 0 2.448 1.976 4.432 4.414 4.432z" fill="#2CBFC6"/><path d="M215.924 128.708c8.878 0 16.076-7.23 16.076-16.148s-7.198-16.148-16.076-16.148c-8.879 0-16.076 7.23-16.076 16.148s7.197 16.148 16.076 16.148z" fill="#FF4F4F"/><path d="M215.451 114.301c0-.95 0-1.267-.946-1.583-1.891-.792-3.467-2.058-3.467-4.275 0-2.216 1.418-3.958 3.782-4.432.315-.159.631-.159.631-.634s.63-.475 1.103-.475.315.159.315.475c0 .475.631.475 1.261.634.315 0 2.364.474 2.364.949 0 .159-.788 2.533-1.103 2.533-.473 0-.946-.791-2.049-.791-.473 0-.473.633-.473.95v1.583c0 .95 0 1.266.946 1.583 2.364.791 3.782 2.375 3.782 4.749 0 2.85-1.891 4.75-4.097 4.75-.473 0-.631.316-.631.791 0 .475-.315.475-.788.475-.315 0-.63.158-.63-.317 0-.633-.316-.791-.946-.791-1.103 0-3.152-.95-3.152-1.425 0-.475.63-3.166 1.103-3.166.788 0 1.261 1.108 2.522 1.108.63 0 .473-.633.473-.95v-1.741zm0-6.808c0-.633.157-.949-.473-.949-.946 0-1.261.949-1.261 1.741 0 .95.946 1.741 1.418 1.741.316 0 .316-.791.316-1.266v-1.267zm1.418 8.866c0 .475 0 .791.631.791.945 0 1.576-.791 1.576-1.583 0-.791-1.104-1.741-1.734-1.741-.473 0-.473.316-.473.791v1.742z" fill="#fff"/><path d="M215.924 82.164c8.878 0 16.076-7.23 16.076-16.148s-7.198-16.148-16.076-16.148c-8.879 0-16.076 7.23-16.076 16.148s7.197 16.148 16.076 16.148z" fill="#FE9249"/><path d="M223.804 58.892c.788.316 1.261 1.9.788 4.59-.631 2.692-1.419 8.55-1.419 8.55h-2.206s.946-6.491-.946-6.966c-2.049-.633-3.31 6.965-8.038 6.965s-7.565.159-7.723-1.108c-.157-1.266 6.305-2.533 8.826-5.857 3.783-5.066 9.457-6.65 10.718-6.174z" fill="#fff"/><path d="M16.076 82.164c8.879 0 16.076-7.23 16.076-16.148s-7.197-16.148-16.076-16.148C7.198 49.868 0 57.098 0 66.016s7.198 16.148 16.076 16.148z" fill="#55ADBB"/><path d="M24.587 72.824H7.092c-.63 0-1.26-.633-1.26-1.267v-11.24c0-.633.63-1.266 1.26-1.266h17.495c.63 0 1.26.633 1.26 1.266v11.24c0 .792-.472 1.267-1.26 1.267zM8.353 70.29h14.973v-8.549H8.353v8.549z" fill="#fff"/><path d="M16.076 68.39c-.315 0-.473-.157-.788-.316l-8.984-6.649 1.576-2.058 8.196 6.174 7.723-6.174 1.576 2.058-8.511 6.808c-.158.158-.473.158-.788.158z" fill="#fff"/><path d="M115.212 176.201c8.704 0 15.761-7.088 15.761-15.831 0-8.743-7.057-15.831-15.761-15.831-8.705 0-15.761 7.088-15.761 15.831 0 8.743 7.056 15.831 15.761 15.831z" fill="#55ADBB"/><path d="M115.212 171.61c-6.147 0-11.19-5.066-11.19-11.24s5.043-11.24 11.19-11.24c6.147 0 11.19 5.066 11.19 11.24.158 6.174-4.886 11.24-11.19 11.24zm0-19.947c-4.728 0-8.669 3.958-8.669 8.707 0 4.749 3.941 8.707 8.669 8.707 4.728 0 8.668-3.958 8.668-8.707 0-4.908-3.782-8.707-8.668-8.707z" fill="#fff"/><path d="M115.212 161.637c-.158 0-.473 0-.631-.159l-3.782-1.899c-.631-.317-.946-1.109-.631-1.742.316-.633 1.104-.95 1.734-.633l3.152 1.583 4.728-2.691c.631-.317 1.419-.158 1.734.475.315.633.158 1.425-.473 1.741l-5.358 3.008c0 .317-.158.317-.473.317z" fill="#fff"/><path d="M70.924 174.934c8.008 0 14.5-6.521 14.5-14.565 0-8.043-6.492-14.564-14.5-14.564s-14.5 6.521-14.5 14.564c0 8.044 6.492 14.565 14.5 14.565z" fill="#FE9249"/><path d="M74.076 169.868c-.315 0-.63-.158-.946-.316l-2.994-3.008-2.68 2.691c-.315.317-.788.475-1.26.317a1.192 1.192 0 0 1-.788-1.109l-1.892-14.089c-.157-.634.473-1.425 1.104-1.425.63-.158 1.418.475 1.418 1.108l1.418 11.557 1.892-1.9a1.233 1.233 0 0 1 1.733 0l2.995 3.008 1.419-1.425a1.233 1.233 0 0 1 1.733 0 1.247 1.247 0 0 1 0 1.742l-2.364 2.374a.866.866 0 0 1-.788.475z" fill="#fff"/><path d="M76.755 167.177c-.315 0-.63-.158-.945-.317a1.246 1.246 0 0 1 0-1.741l1.418-1.425-2.994-3.008c-.316-.316-.316-.633-.316-.95 0-.316.158-.633.316-.95l1.89-1.899-11.504-1.425c-.631-.158-1.261-.792-1.104-1.425.158-.633.788-1.266 1.419-1.108l14.027 1.9c.473 0 .945.475 1.103.791.158.475 0 .95-.315 1.267l-2.68 2.691 2.995 3.008c.315.317.315.633.315.95 0 .316-.157.633-.315.95l-2.364 2.374c-.315.159-.63.317-.946.317z" fill="#fff"/></g><defs><clipPath id="a"><path fill="#fff" d="M0 0h232v180H0z"/></clipPath></defs></svg>