<svg width="236" height="38" viewBox="0 0 236 38" fill="none" xmlns="http://www.w3.org/2000/svg"><path d="M28.021 18.391v5.338h-1.693V10.548h4.49a4.06 4.06 0 0 1 2.909 1.14 3.667 3.667 0 0 1 1.215 2.783 3.652 3.652 0 0 1-1.215 2.797c-.786.749-1.755 1.123-2.908 1.122l-2.798.001zm0-6.22v4.6h2.84a2.239 2.239 0 0 0 1.675-.68 2.247 2.247 0 0 0 0-3.222 2.208 2.208 0 0 0-1.675-.7l-2.84.002zm10.816 2.251c1.252 0 2.24.334 2.964 1.003.724.669 1.086 1.586 1.085 2.751v5.559h-1.62v-1.252h-.073c-.701 1.03-1.633 1.546-2.797 1.546-.994 0-1.825-.294-2.494-.883a2.822 2.822 0 0 1-1.003-2.209c0-.933.352-1.675 1.058-2.226.705-.551 1.647-.828 2.825-.83 1.005 0 1.833.185 2.484.553v-.387a1.928 1.928 0 0 0-.7-1.499 2.397 2.397 0 0 0-1.634-.617c-.946 0-1.694.399-2.245 1.197l-1.491-.94c.82-1.177 2.034-1.766 3.641-1.766zm-2.19 6.552a1.354 1.354 0 0 0 .561 1.104c.375.295.84.45 1.316.442a2.7 2.7 0 0 0 1.905-.79c.56-.529.84-1.148.84-1.86-.527-.42-1.263-.63-2.207-.63-.688 0-1.262.166-1.721.497-.464.337-.694.746-.694 1.237zm15.538-6.264l-5.653 12.995h-1.748l2.098-4.547-3.718-8.447h1.84l2.688 6.478h.036l2.614-6.478h1.843z" fill="#9B9B9B"/><path d="M21.178 17.243c0-.516-.043-1.031-.13-1.54h-7.142v2.916h4.09a3.502 3.502 0 0 1-1.512 2.302v1.893h2.44c1.43-1.318 2.254-3.267 2.254-5.571z" fill="#4285F4"/><path d="M13.906 24.646c2.043 0 3.764-.67 5.019-1.828l-2.441-1.893c-.68.461-1.555.724-2.578.724-1.975 0-3.651-1.331-4.25-3.126H7.14v1.951a7.571 7.571 0 0 0 6.765 4.172z" fill="#34A853"/><path d="M9.657 18.521a4.537 4.537 0 0 1 0-2.898v-1.951H7.142a7.572 7.572 0 0 0 0 6.8l2.515-1.95z" fill="#FBBC04"/><path d="M13.906 12.498a4.111 4.111 0 0 1 2.905 1.136l2.161-2.162a7.275 7.275 0 0 0-5.066-1.971 7.573 7.573 0 0 0-6.765 4.172l2.514 1.95c.6-1.794 2.276-3.125 4.251-3.125z" fill="#EA4335"/><path d="M80.439 11.848c-.52.614-1.351 1.1-2.183 1.03-.104-.831.303-1.715.78-2.26.52-.633 1.429-1.083 2.165-1.118.087.866-.251 1.715-.762 2.348zm.754 1.195c-1.205-.07-2.235.684-2.807.684-.58 0-1.455-.65-2.408-.632-1.239.017-2.391.719-3.023 1.836-1.3 2.235-.338 5.544.918 7.363.615.901 1.351 1.889 2.321 1.854.918-.035 1.282-.598 2.391-.598 1.118 0 1.438.598 2.408.58 1.005-.017 1.638-.9 2.252-1.801.702-1.022.988-2.018 1.005-2.07-.017-.018-1.94-.754-1.957-2.971-.018-1.854 1.515-2.738 1.585-2.79-.866-1.282-2.218-1.42-2.686-1.455zm6.955-2.512v13.504h2.097V19.42h2.902c2.65 0 4.513-1.82 4.513-4.453s-1.828-4.435-4.444-4.435h-5.068zm2.097 1.767h2.416c1.82 0 2.86.97 2.86 2.677 0 1.706-1.04 2.685-2.868 2.685h-2.408v-5.362zm11.243 11.842c1.317 0 2.539-.668 3.093-1.724h.043v1.62h1.941v-6.723c0-1.949-1.56-3.205-3.959-3.205-2.226 0-3.872 1.274-3.933 3.023h1.889c.156-.831.926-1.377 1.983-1.377 1.282 0 2.001.598 2.001 1.698v.745l-2.616.156c-2.434.147-3.75 1.143-3.75 2.876 0 1.75 1.36 2.91 3.308 2.91zm.563-1.603c-1.117 0-1.827-.537-1.827-1.36 0-.85.684-1.343 1.992-1.42l2.33-.148v.762c0 1.265-1.074 2.166-2.495 2.166zm7.104 5.171c2.044 0 3.006-.78 3.846-3.144l3.681-10.326h-2.131l-2.468 7.978h-.044l-2.469-7.978h-2.191l3.551 9.832-.19.598c-.321 1.013-.84 1.403-1.767 1.403a6.33 6.33 0 0 1-.615-.035v1.62c.121.035.641.052.797.052zm70.013-9.868s.764 3.302.934 3.994h-3.355c.332-.79 1.608-3.862 1.608-3.862-.021.027.331-.808.532-1.323l.281 1.19zm-31.901 8.869l6.348-13.78h-4.268l-3.948 9.411-.432-1.908-1.406-6.34c-.231-.879-.944-1.127-1.828-1.163h-6.499l-.07.276c1.587.355 3.003.87 4.239 1.518l3.596 11.986h4.268zm9.482.018l2.532-13.798h-4.038l-2.522 13.798h4.028zm14.052-4.511c.02-1.571-1.065-2.77-3.385-3.755-1.416-.63-2.28-1.057-2.28-1.705.02-.586.733-1.19 2.32-1.19a7.71 7.71 0 0 1 3.004.524l.361.151.553-2.983a11.196 11.196 0 0 0-3.616-.586c-3.988 0-6.79 1.882-6.81 4.563-.03 1.98 2.009 3.081 3.536 3.747 1.556.675 2.089 1.119 2.089 1.714-.02.923-1.266 1.35-2.421 1.35-1.607 0-2.471-.223-3.787-.738l-.532-.222-.563 3.099c.945.382 2.692.72 4.5.737 4.239.009 7.001-1.847 7.031-4.706zm14.183 4.51l-3.255-13.797h-3.123c-.965 0-1.698.249-2.11 1.146L170.5 26.727h4.239s.693-1.705.843-2.07h5.183c.121.489.482 2.07.482 2.07h3.737zm25.68 1.774a9.5 9.5 0 0 0 9.5-9.5 9.5 9.5 0 0 0-9.5-9.5 9.5 9.5 0 0 0-9.5 9.5 9.5 9.5 0 0 0 9.5 9.5z" fill="#9B9B9B"/><path d="M223.331 28.099a9.104 9.104 0 1 0 0-18.208 9.104 9.104 0 0 0 0 18.208z" stroke="#9B9B9B" stroke-width=".5"/></svg>