<svg width="54" height="27" viewBox="0 0 54 27" fill="none" xmlns="http://www.w3.org/2000/svg"><path d="M50.794 16.2c-.778-1.837-2.29-4.283-3.613-6.319-1.074-1.652-2.138-3.456-3.666-4.735-3.36-2.82-7.982-3.246-12.123-2.258-1.61.384-3.154 1.016-4.698 1.593-1.523.573-11.092 4.185-14.348 5.422-2.08.794-4.25 1.49-6.248 2.473-1.458.718-2.889 1.798-2.997 3.548-.103 1.652.902 3.72 2.138 4.774 1.188 1.01 2.727 1.112 4.153.577 1.95-.729 3.802-1.798 5.665-2.716 3.925-1.933 7.862-3.99 11.988-5.47a59.184 59.184 0 0 1 5.243-1.588c1.669-.432 3.407-.885 5.135-.96a12.96 12.96 0 0 1 4.904.744c1.77.643 5.75 3.564 7.111 5.79.562.933 1.869.334 1.356-.876z" fill="#000"/></svg>