<svg width="52" height="23" viewBox="0 0 52 23" fill="none" xmlns="http://www.w3.org/2000/svg"><path d="M47.374 8.305c-1.047 0-.938 1.369-.981 2.83h1.745c0-1.647 0-2.83-.764-2.83zm-.981 5.22c0 1.322.61 1.577 1.636 1.577 1.178 0 2.77-.372 3.382-.487v3.201c-.48.186-1.942.626-3.382.626-2.596 0-5.76-.44-5.76-6.333 0-5.196 2.487-6.425 5.105-6.425 2.684 0 4.626 1.461 4.626 6.379v1.462h-5.607zM36.158 8.93c-.24 0-.72.21-.982.372v5.938c.197.07.546.116.698.116.72 0 1.157-.65 1.157-3.363 0-2.761-.197-3.063-.873-3.063zm.48 9.511c-.524 0-1.07-.162-1.462-.255v4.431H31.03V5.916h3.36l.612.765a3.626 3.626 0 0 1 2.465-.997c1.702 0 3.71.51 3.71 6.31 0 6.356-3.012 6.448-4.54 6.448zM27.21 4.408c-1.156 0-2.05-.998-2.05-2.204C25.16.998 26.055 0 27.21 0c1.157 0 2.052.998 2.052 2.204 0 1.206-.895 2.204-2.052 2.204zM25.14 18.21V5.916h4.145V18.21H25.14zm-2.51-8.838c-.655 0-1.157.279-1.375.418v8.42h-4.146V5.916h3.295l.61 1.183c.24-.766.895-1.416 1.855-1.416.655 0 1.091.14 1.288.256v3.665a5.796 5.796 0 0 0-1.527-.232zm-7.878 5.73c.262 0 1.178-.139 1.484-.186v3.132c-.633.162-2.03.394-2.946.394-1.178 0-3.382-.139-3.382-3.549v-6.17H8.38V5.916h1.527l.524-2.784 3.622-.928v3.712h2.182l-.545 2.807h-1.637v5.382c0 .835.24.997.698.997zM4.037 9.465c0 .487.305.65 1.025.997l.437.21c1.025.486 2.443 1.275 2.443 3.595 0 3.712-2.596 4.175-4.45 4.175-1.2 0-2.466-.301-3.317-.58v-3.177c.741.209 2.029.533 2.596.533.633 0 1.113-.093 1.113-.696 0-.464-.306-.672-.982-.997l-.524-.255C1.397 12.782 0 11.948 0 9.697c0-3.294 2.422-4.013 4.451-4.013 1.528 0 2.531.371 3.055.58v3.085c-.611-.208-1.855-.487-2.597-.487-.501 0-.872.139-.872.603z" fill="#359AD5"/></svg>