<svg width="32" height="32" viewBox="0 0 32 32" fill="none" xmlns="http://www.w3.org/2000/svg"><path d="M22.444 14.908c-4.041 0-7.329 3.287-7.329 7.328s3.288 7.329 7.329 7.329c4.04 0 7.329-3.288 7.329-7.329 0-4.04-3.288-7.328-7.33-7.328zm0 13.72a6.398 6.398 0 0 1-6.391-6.392 6.398 6.398 0 0 1 6.39-6.39 6.398 6.398 0 0 1 6.392 6.39 6.398 6.398 0 0 1-6.391 6.391z" fill="#17304E"/><path d="M24.435 12.89a9.503 9.503 0 0 0 .463-2.03.469.469 0 1 0-.931-.106 8.56 8.56 0 0 1-.472 1.984 9.82 9.82 0 0 0-1.37-.052c.4-.92.61-1.915.61-2.922 0-4.041-3.288-7.329-7.329-7.329S8.077 5.723 8.077 9.764c0 3.764 2.826 6.796 6.36 7.263-.242.37-.47.778-.666 1.2-4.005-.775-6.983-4.35-6.983-8.463 0-4.752 3.866-8.619 8.618-8.619 4.332 0 8.008 3.239 8.55 7.533a.469.469 0 0 0 .93-.117c-.6-4.762-4.676-8.353-9.48-8.353-5.27 0-9.556 4.287-9.556 9.556 0 1.18.22 2.339.637 3.423C2.642 14.493 0 18.14 0 22.237c0 5.268 4.287 9.555 9.556 9.555a9.478 9.478 0 0 0 6.441-2.504 9.51 9.51 0 0 0 5.297 2.435.47.47 0 0 0 .112-.931 8.624 8.624 0 0 1-7.58-8.556c0-4.893 4.1-8.84 9.028-8.608 4.564.215 8.208 3.995 8.208 8.608a8.62 8.62 0 0 1-7.58 8.556.469.469 0 1 0 .112.93C28.386 31.146 32 27.068 32 22.237c0-4.586-3.248-8.428-7.565-9.346zm-9.098 15.732a8.547 8.547 0 0 1-5.781 2.233c-4.752 0-8.618-3.867-8.618-8.619a8.65 8.65 0 0 1 5.928-8.188c.177.353.425.775.679 1.143a7.342 7.342 0 0 0-5.318 7.045c0 4.041 3.288 7.329 7.329 7.329a7.344 7.344 0 0 0 4.984-1.96 9.6 9.6 0 0 0 .797 1.017zm-1.296-1.838a6.406 6.406 0 0 1-4.485 1.843 6.398 6.398 0 0 1-6.391-6.39 6.38 6.38 0 0 1 5.006-6.238 9.568 9.568 0 0 0 5.243 3.11 9.515 9.515 0 0 0-.526 3.127c0 1.639.416 3.19 1.153 4.548zm6.994-14a9.556 9.556 0 0 0-5.948 3.36c-3.368-.167-6.072-2.984-6.072-6.38a6.398 6.398 0 0 1 6.391-6.391 6.398 6.398 0 0 1 6.391 6.39 6.373 6.373 0 0 1-.762 3.021z" fill="#004AE1"/></svg>