<svg width="32" height="32" viewBox="0 0 32 32" fill="none" xmlns="http://www.w3.org/2000/svg"><g clip-path="url(#a)"><path d="M26.713 4.125h-5.607v-.714a.846.846 0 0 0-.843-.846h-1.93V2.35A2.345 2.345 0 0 0 16 0a2.345 2.345 0 0 0-2.334 2.35v.215h-1.93a.845.845 0 0 0-.842.846v.714H5.287c-.78 0-1.414.634-1.414 1.414v25.047c0 .78.634 1.414 1.414 1.414H19.54a.468.468 0 1 0 0-.936H5.287a.478.478 0 0 1-.478-.478V5.54c0-.263.214-.478.478-.478h5.607v.714c0 .467.378.847.842.847h8.527c.465 0 .843-.38.843-.847v-.714h5.607c.264 0 .478.215.478.478v25.047a.478.478 0 0 1-.478.478h-4.977a.468.468 0 0 0 0 .936h4.977c.78 0 1.414-.634 1.414-1.414V5.54c0-.78-.634-1.414-1.414-1.414zm-6.543 1.56h-8.34V3.502h2.305c.258 0 .468-.21.468-.468V2.35c0-.78.627-1.415 1.397-1.415s1.397.635 1.397 1.415v.682c0 .258.21.468.468.468h2.305v2.185z" fill="#004AE1"/><path d="M12.122 14.201a.468.468 0 1 0-.618-.703 6.076 6.076 0 0 0-2.068 4.565 6.08 6.08 0 0 0 6.072 6.072 6.08 6.08 0 0 0 6.073-6.072 6.04 6.04 0 0 0-.327-1.962l.92-1.047a1.562 1.562 0 0 0-.14-2.202 1.562 1.562 0 0 0-2.202.141l-.392.446a6.045 6.045 0 0 0-3.932-1.449c-.671 0-1.331.11-1.961.324a.468.468 0 1 0 .302.886 5.13 5.13 0 0 1 4.971.943l-2.75 3.126-1.018-1.188a1.55 1.55 0 0 0-1.065-.54 1.562 1.562 0 0 0-1.304 2.571l2.188 2.552c.294.343.722.542 1.171.545h.013a1.56 1.56 0 0 0 1.172-.53l3.292-3.742a5.142 5.142 0 0 1-5.01 6.262 5.142 5.142 0 0 1-5.137-5.136 5.14 5.14 0 0 1 1.75-3.862zm4.402 5.86a.63.63 0 0 1-.943-.006l-2.187-2.552a.625.625 0 0 1 .067-.88.63.63 0 0 1 .88.067l1.37 1.597a.468.468 0 0 0 .706.005l4.117-4.68a.625.625 0 0 1 .938.824l-4.948 5.625z" fill="#17304E"/></g><defs><clipPath id="a"><path fill="#fff" d="M0 0h32v32H0z"/></clipPath></defs></svg>