<svg width="356" height="268" viewBox="0 0 356 268" fill="none" xmlns="http://www.w3.org/2000/svg"><path d="M152.653 199.645c-41.98 0-76.156-34.176-76.156-76.155 0-41.98 34.176-76.156 76.156-76.156 41.979 0 76.155 34.176 76.155 76.156 0 41.979-34.176 76.155-76.155 76.155zm0-151.685c-41.695 0-75.586 33.892-75.586 75.587 0 41.694 33.891 75.585 75.586 75.585s75.529-33.948 75.529-75.642c0-41.695-33.891-75.53-75.529-75.53zm-55.65 181.418H14.126v.57h82.877v-.57z" fill="#17304F"/><path d="M133.567 219.576H60.43v10.082h73.137v-10.082z" fill="#D4E9FF"/><path d="M133.856 229.947H60.15v-10.651h73.706v10.651zm-73.136-.569h72.567v-9.513H60.719v9.513z" fill="#16304F"/><path d="M147.071 219.865H73.365v-10.651h73.706v10.651zm-73.137-.569h72.567v-9.513H73.934v9.513z" fill="#17304F"/><path d="M197.817 199.412h-124.4v10.082h124.4v-10.082z" fill="#D4E9FF"/><path d="M198.164 209.783H73.137v-10.651h124.97v10.651h.057zm-124.458-.569h123.831v-9.513H73.707v9.513z" fill="#16304F"/><path d="M342.387 209.214H99.509v.569h242.878v-.569z" fill="#17304F"/><path d="M245.379 209.493h-48.701c-1.196 0-2.05-1.196-1.709-2.335l4.728-14.525c.456-1.481 1.823-2.449 3.418-2.449h35.828c1.538 0 2.905.968 3.417 2.449l4.728 14.525c.342 1.139-.513 2.335-1.709 2.335z" fill="#fff"/><path d="M245.384 209.784h-48.701c-.684 0-1.31-.285-1.652-.855-.399-.569-.513-1.196-.285-1.879l4.728-14.525a3.847 3.847 0 0 1 3.645-2.677h35.828a3.847 3.847 0 0 1 3.646 2.677l4.727 14.525c.228.626.114 1.31-.284 1.879-.342.57-.969.855-1.652.855zm-42.265-19.31a3.299 3.299 0 0 0-3.132 2.279l-4.728 14.524c-.171.456-.057.969.228 1.367.285.399.74.627 1.196.627h48.701c.512 0 .911-.228 1.196-.627.285-.398.342-.911.228-1.367l-4.728-14.524a3.301 3.301 0 0 0-3.133-2.279h-35.828z" fill="#17304F"/><path d="M297.612 209.493h-48.701c-1.196 0-2.051-1.196-1.709-2.335l4.728-14.525c.455-1.481 1.822-2.449 3.417-2.449h35.828a3.61 3.61 0 0 1 3.418 2.449l4.727 14.525c.399 1.139-.455 2.335-1.708 2.335z" fill="#D4E9FF"/><path d="M297.616 209.784h-48.701c-.683 0-1.31-.285-1.652-.855-.341-.569-.512-1.196-.285-1.879l4.728-14.525a3.847 3.847 0 0 1 3.646-2.677h35.827a3.847 3.847 0 0 1 3.646 2.677l4.728 14.525c.227.626.113 1.31-.285 1.879-.342.57-.969.855-1.652.855zm-42.207-19.31a3.3 3.3 0 0 0-3.133 2.279l-4.728 14.524c-.171.456-.057.969.228 1.367.285.399.74.627 1.196.627h48.701c.512 0 .911-.228 1.196-.627.285-.398.342-.911.228-1.367l-4.728-14.524a3.301 3.301 0 0 0-3.133-2.279h-35.827z" fill="#16304F"/><path d="M349.901 209.493H301.2c-1.196 0-2.051-1.196-1.709-2.335l4.728-14.525c.455-1.481 1.822-2.449 3.417-2.449h35.828a3.61 3.61 0 0 1 3.418 2.449l4.727 14.525c.342 1.139-.512 2.335-1.708 2.335z" fill="#D4E9FF"/><path d="M349.905 209.784h-48.701c-.683 0-1.31-.285-1.651-.855-.399-.569-.513-1.196-.285-1.879l4.727-14.525a3.847 3.847 0 0 1 3.646-2.677h35.828a3.846 3.846 0 0 1 3.645 2.677l4.728 14.525c.228.626.114 1.31-.285 1.879-.399.57-.968.855-1.652.855zm-42.264-19.31a3.301 3.301 0 0 0-3.133 2.279l-4.728 14.524c-.171.456-.057.969.228 1.367.285.399.741.627 1.196.627h48.701c.513 0 .912-.228 1.196-.627.285-.398.342-.911.228-1.367l-4.728-14.524a3.299 3.299 0 0 0-3.132-2.279h-35.828z" fill="#16304F"/><path d="M271.524 190.183h-48.701c-1.196 0-2.051-1.196-1.709-2.335l4.728-14.525c.455-1.481 1.822-2.449 3.417-2.449h35.828a3.61 3.61 0 0 1 3.418 2.449l4.727 14.525c.342 1.139-.512 2.335-1.708 2.335z" fill="#D4E9FF"/><path d="M271.528 190.474h-48.701c-.683 0-1.31-.285-1.651-.854-.399-.57-.513-1.196-.285-1.88l4.727-14.525a3.847 3.847 0 0 1 3.646-2.677h35.828a3.845 3.845 0 0 1 3.645 2.677l4.728 14.525c.228.627.114 1.31-.285 1.88-.399.512-.968.854-1.652.854zm-42.264-19.366a3.3 3.3 0 0 0-3.133 2.278l-4.728 14.525c-.17.456-.057.968.228 1.367.285.399.741.627 1.196.627h48.701c.513 0 .912-.228 1.196-.627.285-.399.342-.911.228-1.367l-4.727-14.525a3.3 3.3 0 0 0-3.133-2.278h-35.828z" fill="#16304F"/><path d="M323.761 190.474H275.06c-.683 0-1.31-.285-1.652-.854-.398-.57-.512-1.196-.285-1.88l4.728-14.525a3.847 3.847 0 0 1 3.646-2.677h35.827a3.847 3.847 0 0 1 3.646 2.677l4.728 14.525c.227.627.113 1.31-.285 1.88-.342.512-.969.854-1.652.854zm-42.264-19.366a3.3 3.3 0 0 0-3.133 2.278l-4.728 14.525c-.171.456-.057.968.228 1.367.285.399.74.627 1.196.627h48.701c.513 0 .911-.228 1.196-.627.285-.399.342-.911.228-1.367l-4.728-14.525a3.3 3.3 0 0 0-3.133-2.278h-35.827z" fill="#17304F"/><path d="M297.612 170.817h-48.701c-1.196 0-2.051-1.196-1.709-2.335l4.728-14.525c.455-1.481 1.822-2.449 3.417-2.449h35.828a3.61 3.61 0 0 1 3.418 2.449l4.727 14.525c.399 1.196-.455 2.335-1.708 2.335z" fill="#D4E9FF"/><path d="M297.616 171.108h-48.701c-.683 0-1.31-.285-1.652-.854-.341-.57-.512-1.197-.285-1.88l4.728-14.525a3.847 3.847 0 0 1 3.646-2.677h35.827a3.847 3.847 0 0 1 3.646 2.677l4.728 14.525c.227.626.113 1.31-.285 1.88-.342.569-.969.854-1.652.854zm-42.207-19.31a3.3 3.3 0 0 0-3.133 2.279l-4.728 14.525c-.171.455-.057.968.228 1.367.285.398.74.626 1.196.626h48.701c.512 0 .911-.228 1.196-.626.285-.399.342-.912.228-1.367l-4.728-14.525a3.301 3.301 0 0 0-3.133-2.279h-35.827z" fill="#16304F"/><path d="M66.415 51.15h-.57v4.614h.57V51.15zm0 8.317h-.57v4.67h.57v-4.67zm6.152-2.107h-4.614v.569h4.614v-.57zm-8.317 0h-4.613v.569h4.614v-.57zm209.158 161.423h-.57v4.671h.57v-4.671zm0 8.259h-.57v4.614h.57v-4.614zm6.209-2.107h-4.671v.569h4.671v-.569zm-8.317 0h-4.613v.569h4.613v-.569zM238.15 25.632h-.57v4.614h.57v-4.614zm0 8.258h-.57v4.614h.57v-4.613zm6.094-2.05h-4.613v.57h4.613v-.57zm-8.259 0h-4.614v.57h4.614v-.57z" fill="#17304F"/><path d="M226.131 185.633l12.987-39.758c.399-1.31 1.31-2.392 2.563-2.962l22.784-10.766 9.569 1.766-1.367 5.411-25.518 14.24s0 4.899-3.474 10.823c-3.076 5.297-11.563 21.645-11.563 21.645l-5.981-.399z" fill="#003093"/><path d="M246.637 140.748c-4.101 1.31-3.19 6.265-1.538 9.569 1.082 2.221 9.057 15.265 14.183 27.113 2.165 5.012 3.076 8.886 3.076 8.886l6.493-.969s-5.525-23.296-7.689-26.885c-1.139-1.937-4.5-6.778-4.5-6.778l21.531-.285s3.588.342 5.696-2.449c2.392-3.133.285-12.076.285-12.076l-12.418-.569c.057.057-18.341 2.278-25.119 4.443z" fill="#004AE1"/><path d="M247.605 156.014c-.057-.057-1.253-1.994-3.303-7.063-1.197-2.962-1.026-5.241.626-6.892l.399.398c-1.424 1.538-1.595 3.589-.513 6.323 2.051 5.012 3.247 6.949 3.304 6.949l-.513.285z" fill="#fff"/><path d="M29.448 115.287c5.663 0 10.253-4.591 10.253-10.253s-4.59-10.253-10.253-10.253c-5.662 0-10.253 4.59-10.253 10.253 0 5.662 4.59 10.253 10.253 10.253z" fill="#17304F"/><path d="M39.701 115.287c5.663 0 10.253-4.591 10.253-10.253S45.364 94.781 39.7 94.781c-5.662 0-10.253 4.59-10.253 10.253 0 5.662 4.59 10.253 10.253 10.253z" fill="#17304F"/><path d="M35.714 104.921a7.633 7.633 0 1 0-.001-15.266 7.633 7.633 0 0 0 .001 15.266zm9.342-14.867c1.196.341 3.246 1.538 3.246 3.873s-1.993 4.215-1.993 4.215L43.46 94.44l1.595-4.386zm237.352-2.051c-3.589 12.531-21.075 5.582-21.075 5.582l1.879-14.126 11.677-2.222 7.519 10.766z" fill="#17304F"/><path d="M58.44 132.489c1.425 2.734 8.773 10.082 10.026 11.392 1.196 1.196 2.107 2.165 3.702 2.507 1.253.284 2.45 2.164 3.133 2.848.683.683 2.05 1.196 1.88 1.537-.171.342-1.083.741-2.222-.17-1.14-.969-3.418-2.051-4.101-2.051-.684 0-1.481 1.253-2.392.911-.912-.341-3.247-1.993-5.468-3.531-6.323-4.329-11.05-9.854-11.05-9.854l6.493-3.589z" fill="#CBD5E1"/><path d="M50.523 114.603c1.652 6.038 6.437 15.038 7.918 17.886-4.785 3.93-6.836 2.904-6.836 2.904s-1.708-2.449-2.847-5.923c-1.481-4.5-4.216-18.626-4.216-18.626h.969c2.335 0 4.386 1.481 5.012 3.759z" fill="#1C8AFB"/><path d="M55.422 139.324c-3.873-3.076-6.436-7.12-7.405-11.677l.57-.114c.968 4.443 3.474 8.373 7.234 11.392l-.399.399zM265.49 76.782c-1.082.171-3.075 1.083-3.075 3.076 0 2.563 1.708 3.873 1.708 3.873l2.393-3.075-1.026-3.874z" fill="#17304F"/><path d="M48.53 140.008c.626.228 3.873 19.765 1.14 41.467-.97 7.518-2.507 47.39-2.507 47.39H41.41s-2.791-23.809-2.506-27.568c.341-3.817 2.506-12.531 2.506-12.531l-7.747-47.733 14.867-1.025z" fill="#003093"/><path d="M32.353 141.831c-11.961 13.328-7.462 30.701-8.772 42.606-2.278 6.664-3.816 8.43-4.955 19.309-.798 7.576-1.823 25.12-1.823 25.12l5.354-.513 18.228-73.592s3.076-1.481 4.556-6.095c1.254-3.873.969-7.975.969-7.975l-13.557 1.14z" fill="#004AE1"/><path d="M36.682 98.598v13.328h6.892v-10.48l-6.892-2.848z" fill="#CBD5E1"/><path d="M14.525 229.663c.854-2.62 1.709-4.5 5.07-4.443 3.36.057 3.986 4.443 3.986 4.443h-9.056zm25.404-.001l.968-5.069s2.45.854 3.988.626c1.48-.228 2.506-.626 2.506-.626l8.943 5.069H39.928zm193.778-39.472l-.968-5.07s-2.45.855-3.988.627c-1.48-.228-2.506-.627-2.506-.627l-8.943 5.07h16.405z" fill="#17304F"/><path d="M25.29 140.691c2.051-3.36 2.336-6.379 2.336-6.379l-5.924-1.766c-.228 1.082-.854 3.474-.854 3.474-1.538 3.475-4.899 16.177-5.469 19.652 0 0-1.424 2.107-1.936 3.076-.513 1.025-1.196 3.93-1.367 5.126-.171 1.196.284 1.88.341 1.766.057-.114.057.854.114 1.367 0 .512 1.026.854 1.31.512.285-.341 1.823-4.272 1.994-4.386.171-.113.228.114.228.513-.057.399-1.367 3.304-1.424 3.475 0 .171.057.569.57.455.512-.114 2.392-3.588 2.904-5.069.456-1.196.57-3.361.513-4.785.912-2.164 5.24-9.683 5.696-12.873.228-1.139.684-2.962.968-4.158z" fill="#CBD5E1"/><path d="M26.999 149.406c-.399 0-.74 0-1.082-.057l.057-.57c1.765.285 4.1-.171 6.265-1.196l.228.513c-1.823.797-3.816 1.31-5.468 1.31z" fill="#17304F"/><path d="M29.457 188.219l-8.393 35.419.554.131 8.393-35.418-.554-.132z" fill="#231F20"/><path d="M46.023 110.844l-13.898.512c-3.019.171-5.183 2.165-5.924 4.557l-5.867 19.936s1.71 1.595 3.589 1.994c1.88.399 3.588 0 3.588 0s2.279-6.949 3.76-11.677c.57 2.734.968 5.012 1.025 6.266.171 3.36 0 9.512 0 9.512s4.956.797 10.595 0c3.702-.513 5.582-1.823 5.582-1.823s-.342-6.095 0-8.829c.342-2.734 2.164-7.063 2.164-8.942.057-2.62-4.614-11.506-4.614-11.506z" fill="#1C8AFB"/><path d="M43.575 106.059s-2.507.513-4.614-1.594c-.911-.912-2.335-3.874-2.335-3.874v-1.822l6.949 3.987v3.303z" fill="#17304F"/><path d="M37.195 96.206c0 3.702 1.481 9.227 5.297 9.284 3.76.057 3.76-8.43 3.02-10.936-.912-3.19-8.317-2.279-8.317 1.652z" fill="#CBD5E1"/><path d="M49.954 126.565l-.57-.171c.456-1.595.968-3.19.968-4.158 0-.627-.227-1.994-1.537-5.297l.512-.228c1.025 2.734 1.538 4.557 1.538 5.525.114 1.025-.399 2.677-.911 4.329zM32.07 122.3l-1.051 3.669.547.157 1.052-3.669-.548-.157zm6.264 20.043c-2.45 0-4.842-.114-6.038-.228l.057-.57c2.45.228 9.456.456 11.848-.228l.17.57c-1.253.342-3.645.456-6.037.456zM14.24 158.007l-.456-.342c.968-1.139 2.222-5.525 2.734-8.259l.57.114c-.513 2.62-1.766 7.234-2.848 8.487z" fill="#17304F"/><path d="M36.056 96.66c-1.367.514-.228 2.906.455 3.646.684.741 1.71.912 1.994 0 .342-.911-1.253-4.044-2.45-3.645z" fill="#CBD5E1"/><path d="M46.852 202.771l-1.149 20.246.57.032 1.148-20.245-.569-.033z" fill="#fff"/><path d="M271.358 98.085c-3.418 3.532-8.715 10.196-9.798 11.563-1.082 1.367.798 5.696 1.424 7.405.627 1.766.684 15.037.684 15.037s5.468 4.728 8.829 4.728c3.873 0 11.733.057 11.733.057s-2.563-13.5-2.335-16.746c.228-3.247 2.222-9.513 2.449-11.677.171-2.165-4.784-11.45-4.784-11.45l-8.202 1.083z" fill="#1C8AFB"/><path d="M281.382 97.003c.456 0 .912.114 1.367.285 3.361 1.31 4.215 2.107 6.38 7.006 2.335 5.183 4.443 18.113 4.728 20.676.341 2.62-2.791 5.582-4.614 4.671-1.823-.911-4.956-5.24-4.728-6.436.228-1.197-2.449-12.646-2.449-12.646l-2.563-13.556h1.879zm-10.025 1.082c-2.278.456-7.12 1.31-8.657 3.133-1.026 1.196-12.361 14.582-12.589 15.721-.227 1.31 9.399 4.727 9.399 4.727l11.847-23.581z" fill="#1C8AFB"/><path d="M283.946 119.502c0-.057-2.45-8.487-2.848-14.525l.569-.057c.399 5.981 2.791 14.297 2.848 14.411l-.569.171zm-11.506-17.601c-2.393 0-4.215-1.481-4.785-2.962l.513-.228c.512 1.31 2.164 2.62 4.272 2.62h.114c.854 0 4.499-.797 5.183-4.215l.57.114c-.741 3.76-4.728 4.614-5.696 4.671h-.171z" fill="#17304F"/><path d="M273.294 84.984l3.361 12.589s-1.481 2.107-3.532 2.278c-2.506.171-3.076-1.367-3.076-1.367l-2.449-9.114 5.696-4.386z" fill="#CBD5E1"/><path d="M268.794 94.269s2.393-1.196 3.475-3.076c.626-1.082.968-4.101.968-4.101l-2.221-.342-3.247 3.816 1.025 3.703z" fill="#17304F"/><path d="M272.724 82.25c.342 3.817-.626 9.74-4.386 10.025-3.759.285-4.499-8.487-4.044-11.164.684-3.304 8.089-2.962 8.43 1.14z" fill="#CBD5E1"/><path d="M273.522 82.364c1.538.114.968 2.848.513 3.816-.456.969-1.481 1.424-2.051.57-.57-.855.228-4.443 1.538-4.386zm-3.19 36.454c.57.399 1.139.798 1.766 1.026.968.398 12.645 2.791 15.436 3.702 2.791.911 5.411.684 5.981 3.532.512 2.506-1.88 4.784-6.949 3.816-5.07-1.025-14.411-7.633-15.835-7.861-.228-.057-.627-.284-.969-.284.228-1.367.57-2.621.57-3.931z" fill="#CBD5E1"/><path d="M271.813 131.236H248.63c-.683 0-1.31-.455-1.538-1.082l-4.727-14.126a.724.724 0 0 1 .683-.968h23.468c1.025 0 1.936.626 2.221 1.594l4.329 12.816c.285.912-.342 1.766-1.253 1.766z" fill="#17304F"/><path d="M268.452 122.293c.855.284 2.962.74 2.962.74.684.342 1.367.513 2.279 1.082a36.42 36.42 0 0 0 1.082-3.246s.171-.399 0-.057c-1.139-.399-2.051-.741-2.62-.912-.798-.911-2.165-2.107-3.133-2.563-1.196-.57-4.272-1.595-4.671-1.367-.398.228-.228.513-.057.627.114.113 2.62 1.082 2.848 1.31.285.227.399.398.171.455-.171 0-3.417-1.424-3.759-1.481-.342-.057-.741.741-.456 1.083.285.284.855.854.741.854-.114 0 0 .684.797 1.253.798.57 2.905 1.937 3.816 2.222zm-16.176 0c-.342-.057-3.873.114-4.044 0-.171-.114 0-.228.341-.342.342-.114 3.019-.114 3.133-.171.171-.057.399-.228.171-.627-.285-.398-3.531-.569-4.841-.455-1.026.057-2.621.683-3.703 1.196 0 .057 0 .114-.057.228s-.057.228-.057.341c.114.456.171.969.228 1.424.114.855.854 1.538 1.709 1.652.228 0 .456.057.626.057.912.057 3.418-.455 4.386-.74.969-.285 1.31-.855 1.197-.912-.114 0 .626-.341.968-.512.342-.171.285-1.082-.057-1.139z" fill="#CBD5E1"/><path d="M45.397 89.484c-.228 2.79-1.595 6.265-6.038 7.29-4.385 1.083-6.55-2.164-6.55-2.164s1.481-7.006 6.494-7.86c5.126-.855 6.094 2.734 6.094 2.734zM152.254 199.36c-25.29 0-45.91-34.062-45.91-75.985 0-41.922 20.62-75.984 45.91-75.984 25.29 0 45.91 34.062 45.91 75.984 0 41.923-20.62 75.985-45.91 75.985zm0-151.4c-25.005 0-45.34 33.834-45.34 75.415s20.335 75.415 45.34 75.415c25.005 0 45.34-33.834 45.34-75.415 0-41.58-20.335-75.415-45.34-75.415z" fill="#17304F"/><path d="M173.215 123.091H76.383v.569h96.832v-.569zm47.79 0H179.88v.569h41.125v-.569z" fill="#17304F"/><path d="M152.368 47.676h-.57v151.4h.57v-151.4z" fill="#17304F"/><path d="M197.594 183.98c-9.341-4.443-27.113-7.234-46.365-7.234-18.227 0-34.974 2.45-44.714 6.494l-.228-.513c9.854-4.101 26.658-6.55 44.942-6.55 19.366 0 37.195 2.791 46.593 7.291l-.228.512zM152.083 62.03c-14.183 0-27.569-1.482-37.593-4.159l.17-.57c10.025 2.678 23.297 4.102 37.48 4.102 14.183 0 27.455-1.481 37.48-4.101l.171.57c-10.139 2.676-23.525 4.157-37.708 4.157zM265.49 76.782c0 2.62 1.026 5.98 5.07 7.348 4.044 1.31 6.323-1.538 6.323-1.538s-.798-6.664-5.526-7.86c-4.727-1.197-5.867 2.05-5.867 2.05zm4.273 113.408l-.969-5.07s-2.449.855-3.987.627c-1.481-.228-2.506-.627-2.506-.627l-8.943 5.07h16.405zm-8.488-72.511c0-.114-.626-2.563-.854-4.215-.228-1.595-.228-3.475 2.392-5.924l.399.399c-2.392 2.278-2.392 3.93-2.221 5.411.228 1.652.854 4.101.854 4.158l-.57.171z" fill="#17304F"/><path d="M238.919 150.572l-10.258 31.824.542.174 10.258-31.824-.542-.174z" fill="#2676C2"/><path d="M281.326 141.603c-1.766-.228-4.728-2.165-5.469-5.07l.57-.171c.684 2.62 3.418 4.386 5.012 4.614l-.113.627z" fill="#fff"/><path d="M203.062 94.952v-9.797c0-1.766-.911-3.36-2.449-4.272l-8.487-4.898a5 5 0 0 0-4.898 0l-8.487 4.898c-1.538.855-2.45 2.506-2.45 4.272v9.797c0 1.766.912 3.36 2.45 4.272l8.487 4.899a5.002 5.002 0 0 0 4.898 0l8.487-4.899c1.481-.911 2.449-2.563 2.449-4.272zM10.936 229.378H7.405v.57h3.531v-.57zm85.839-19.879c19.944 0 36.113-16.168 36.113-36.113 0-19.944-16.169-36.113-36.113-36.113-19.945 0-36.113 16.169-36.113 36.113 0 19.945 16.169 36.113 36.113 36.113z" fill="#17304F"/><path d="M96.775 200.499c14.974 0 27.113-12.138 27.113-27.113 0-14.974-12.139-27.113-27.113-27.113s-27.113 12.139-27.113 27.113c0 14.975 12.139 27.113 27.113 27.113z" fill="#CBD5E1"/><path fill-rule="evenodd" clip-rule="evenodd" d="M107.085 163.84H85.668v4.997h8.158v14.992h5.099v-14.992h8.16v-4.997zm-21.417 7.995h5.099v11.994h-5.1v-11.994zm21.415 0h-5.099v11.994h5.099v-11.994z" fill="#17304F"/><path d="M189.319 95.734h.915v-1.335c2.309-.18 3.178-1.559 3.178-2.923 0-1.949-1.634-2.534-3.178-2.968v-3.254a3.67 3.67 0 0 1 2.204 1.14l.749-.915c-.734-.764-1.709-1.244-2.953-1.364V82.72h-.915v1.38c-1.814.105-3.118 1.2-3.118 2.759 0 1.844 1.589 2.353 3.118 2.773v3.658a4.24 4.24 0 0 1-2.698-1.41l-.735.945c.75.855 1.904 1.484 3.433 1.574v1.335zm2.804-4.153c0 .704-.465 1.56-1.889 1.709v-3.403c1.049.315 1.889.72 1.889 1.694zm-4.633-4.797c0-.885.75-1.5 1.829-1.575v3.059c-1.019-.3-1.829-.645-1.829-1.484z" fill="#CBD5E1"/></svg>