<svg width="356" height="268" viewBox="0 0 356 268" fill="none" xmlns="http://www.w3.org/2000/svg"><path d="M173.956 89.655a15.636 15.636 0 0 0-15.778 0l-41.011 23.695c-4.899 2.848-7.918 8.032-7.918 13.671v47.391c0 5.639 3.019 10.822 7.918 13.67l21.815 12.588 56.903-98.37-21.929-12.645zm64.137-16.063l-19.139-11.05-56.903 98.37 19.196 11.107a15.636 15.636 0 0 0 15.778 0l41.068-23.695c4.898-2.848 7.917-8.032 7.917-13.671v-47.39c0-5.64-3.019-10.88-7.917-13.67z" fill="#17304F"/><path d="M297.559 146.615h-57.757v.569h57.757v-.569zm14.753 21.189h-109.99v.57h109.99v-.57z" fill="#17304F"/><path d="M172.703 103.781a12.043 12.043 0 0 0-12.076 0l-31.328 18.113a12.034 12.034 0 0 0-6.038 10.424v36.284c0 4.329 2.279 8.316 6.038 10.423l16.69 9.626 43.517-75.187-16.803-9.683zm55.991-22.727l-15.265-8.829-45.397 78.491 15.322 8.829a12.448 12.448 0 0 0 12.588 0l32.752-18.911c3.874-2.278 6.323-6.436 6.323-10.936V91.876c-.057-4.386-2.449-8.544-6.323-10.822z" fill="#fff"/><path d="M109.249 201.297H11.107v.569h98.142v-.569z" fill="#17304F"/><path d="M49.27 201.866H19.025V159.26H49.27v42.606zm-29.676-.569h29.107V159.83H19.594v41.467zm67.726.569H57.074V111.87H87.32v89.996zm-29.676-.569H86.75v-88.858H57.644v88.858zm37.422-.968h-.57V71.599h119.787v.57H95.066v128.16z" fill="#17304F"/><path fill-rule="evenodd" clip-rule="evenodd" d="M166.624 171.978h-1.904v-.846l1.904.846zm10.253-37.681c-2.349-2.378-5.287-3.77-8.5-4.229v13.011c1.022.287 2.053.591 3.063.934l-2.636 4.712c-.141-.044-.284-.087-.427-.13v.892l-3.657 6.537v-8.448c-6.116-1.679-12.471-3.718-12.471-11.093 0-6.235 5.216-10.612 12.471-11.032v-5.516h3.657v5.576c4.463.43 8.058 2.018 10.872 4.546l-2.372 4.24zm-15.254 27.262c-3.297-1.022-5.89-2.952-7.696-4.99l-2.937 3.777c2.039 2.326 4.828 4.235 8.329 5.331l2.304-4.118zm3.097-31.671c-4.317.3-7.315 2.758-7.315 6.296 0 3.357 3.238 4.736 7.315 5.935v-12.231zm16.006-1.952c2.419 1.268 5.3 2.101 8.623 2.297v5.336h3.658v-5.336c9.233-.719 12.711-6.236 12.711-11.692 0-7.743-6.45-10.102-12.589-11.837l-3.78 6.47v12.622a16.69 16.69 0 0 1-6.219-1.976l-2.404 4.116zm20.994-35.94l-2.383 4.08a14.698 14.698 0 0 1 2.484 2.14l2.997-3.658a17.334 17.334 0 0 0-3.098-2.562zm-8.713 33.8c5.696-.599 7.554-4.017 7.554-6.835 0-3.897-3.357-5.516-7.554-6.775v13.61z" fill="#CBD5E1"/><path d="M122.692 201.297h-8.032v.569h8.032v-.569z" fill="#17304F"/><path d="M336.975 200.5h-97.572v.569h97.572v-.569z" fill="#16304F"/><path d="M234.677 34.698L116.898 238.52l.493.284L235.17 34.983l-.493-.285z" fill="#17304F"/><path d="M79.345 168.431c.114-.627.285-1.538.4-2.677l-4.558-1.31 5.525-17.715c.4-1.253 1.31-2.335 2.507-2.905l7.348-3.531s1.936 1.481 5.24 1.481c2.221 0 3.93-1.595 3.93-1.595l10.082 5.24s0 27.17-3.93 35.828c-3.646 7.917-6.437 10.537-6.437 10.537l-24.834-8.316s3.702-10.48 4.727-15.037z" fill="#1C8AFB"/><path d="M83.788 180.791c-10.708-3.873-40.1-14.24-43.973-8.658-5.639 8.202 28.48 29.448 28.48 29.448h15.493v-20.79z" fill="#003093"/><path d="M52.88 175.239l-.402.403 9.545 9.545.403-.403-9.545-9.545z" fill="#2676B9"/><path d="M109.876 145.476c4.614 0 11.392 23.695 7.291 32.866-4.101 9.228-27.455-5.582-27.455-5.582l.854-4.899s11.62.855 14.24 1.31c2.62.456 3.646 1.311 3.646 1.311s-2.165-12.019-2.393-16.747c-.17-3.36.969-8.259 3.817-8.259z" fill="#1C8AFB"/><path d="M97.174 130.609l3.19 9.911s-2.108 3.76-6.038 3.019c-3.816-.74-3.76-3.189-3.76-3.189v-6.494l6.608-3.247z" fill="#C2CCD8"/><path d="M98.028 133.172c-.455 2.791-2.164 6.152-4.329 6.323-1.766.171-3.19-1.31-3.19-1.31v-2.392l6.665-5.241.854 2.62z" fill="#17304F"/><path d="M96.433 127.477c.968-1.197 2.62-.342 2.62.968s-.797 2.962-1.595 3.076c-.626 2.791-1.48 6.607-4.158 6.892-2.335.285-4.272-2.962-5.41-5.81-.912-2.221-1.653-6.493-1.653-6.493l9.684-.912.512 2.279z" fill="#C2CCD8"/><path d="M52.973 195.088c-2.791.114-9.911-.399-11.734 0-1.88.399-5.183 2.051-5.639 2.563-.513.513 3.532 3.418 4.899 3.646 1.367.228 15.607.057 15.607.057l-3.133-6.266zm55.536-25.005l-.228-.057s-.911-.114-3.532-.57c-2.563-.456-14.069-1.253-14.183-1.31l.057-.57c.456.057 11.62.855 14.24 1.31 1.652.285 2.621.456 3.133.513-.456-2.62-1.993-11.563-2.164-15.664-.057-1.652.114-3.418.569-4.899l.57.171c-.456 1.424-.627 3.133-.57 4.728.228 4.272 1.88 14.012 2.222 15.892v.171l-.114.285z" fill="#17304F"/><path d="M111.528 180.563c-.228 0-.456 0-.684-.057l.057-.57c1.709.171 3.19-.284 4.215-1.31 1.196-1.139 1.823-3.018 1.652-5.069l.57-.057c.114 2.221-.513 4.215-1.823 5.525-1.025 1.025-2.392 1.538-3.987 1.538z" fill="#fff"/><path d="M89.712 171.677c.911-1.139 1.14-3.531.854-3.759-.285-.171-1.709.399-3.19 1.025-1.651.741-5.41 1.538-5.41 1.538l1.822 3.475s3.304-1.481 4.158-1.823c.456-.114 1.766-.456 1.766-.456z" fill="#C2CCD8"/><path d="M86.75 179.538H64.82l-7.233-15.892c-.456-.968.284-2.05 1.31-2.05h17.486c1.31 0 2.507.74 3.02 1.936l7.347 16.006zm8.487-33.435c-.228 0-.399 0-.626-.057-3.646-.342-5.696-3.247-6.266-4.671l.513-.228c.512 1.367 2.449 3.987 5.81 4.329 3.588.342 6.892-2.677 7.461-4.044l.513.228c-.684 1.708-3.987 4.443-7.405 4.443z" fill="#17304F"/><path d="M90.908 171.564c5.24.114 6.835 3.702 7.974 5.867 1.14 2.164 3.589 15.493-.968 19.822-4.5 4.215-8.6 4.386-8.6 4.386h-7.235l-2.05-8.601s-.399.455-5.525 2.392c-4.557 1.709-18.512 5.924-18.512 5.924l-3.076-6.209c.057-.057 30.189-23.809 37.992-23.581z" fill="#004AE1"/><path d="M76.611 196.626c-3.531 0-3.987-1.766-8.202-2.734-4.272-.968-7.69-1.196-8.544.683-.74 1.595 4.557 5.582 7.063 6.323 1.937.57 15.721 1.766 15.664-1.481 0-2.051-2.392-2.791-5.98-2.791zm2.449-2.506l-.284-.513c3.417-1.765 13.214-7.234 13.328-7.291l.285.513c-.057.057-9.911 5.525-13.329 7.291z" fill="#17304F"/><path d="M82.472 175.806l-27.5 18.612.32.472 27.499-18.613-.32-.471z" fill="#fff"/><path d="M97.459 126.907c.455-.627 1.423-4.728.341-5.696-1.082-.969-2.392.17-2.392.17s-1.14-2.62-4.101-2.392c-2.962.228-4.272 1.709-5.297 1.766-1.026.057-3.02-.228-3.418-.399-1.025-.399-1.652.114-1.31.912 1.025 2.449 3.247 4.955 4.101 5.525 3.247 2.164 9.114.171 9.626-.228.513-.342 1.595.854 1.595.854l.855-.512zm142.627 88.687h-.569v4.329h.569v-4.329zm0 7.746h-.569v4.329h.569v-4.329zm-1.993-1.993h-4.329v.569h4.329v-.569zm7.746 0h-4.329v.569h4.329v-.569zM15.949 119.901h-.57v4.329h.57v-4.329zm0 7.804h-.57v4.329h.57v-4.329zm-1.994-1.994H9.626v.57h4.33v-.57zm7.747 0h-4.33v.57h4.33v-.57zm257.231-70.004h-.569v4.329h.569v-4.329zm0 7.803h-.569v4.33h.569v-4.33zm-2.051-1.993h-4.329v.57h4.329v-.57zm7.804 0h-4.329v.57h4.329v-.57z" fill="#17304F"/><path d="M162.621 206.594a5.64 5.64 0 1 0 0-11.279 5.64 5.64 0 0 0 0 11.279z" fill="#1C8AFB"/><path d="M163.248 200.442l1.879-1.879c.171-.171.171-.513 0-.684-.171-.171-.512-.171-.683 0l-1.823 1.823-1.823-1.823c-.171-.171-.512-.171-.683 0-.171.171-.171.513 0 .684l1.879 1.879c.114.114.114.228.114.342v.57h-.341a.45.45 0 0 0-.456.455.45.45 0 0 0 .456.456h.398v1.994a.45.45 0 0 0 .456.455.449.449 0 0 0 .456-.455v-1.994h.398a.45.45 0 0 0 .456-.456.45.45 0 0 0-.456-.455h-.398v-.57c0-.171.057-.285.171-.342z" fill="#fff"/><path d="M168.431 209.784h-11.62a3.245 3.245 0 0 1-3.247-3.247v-11.62a3.245 3.245 0 0 1 3.247-3.247h11.62a3.245 3.245 0 0 1 3.246 3.247v11.62c0 1.766-1.48 3.247-3.246 3.247zm-11.62-17.544a2.674 2.674 0 0 0-2.677 2.677v11.62a2.674 2.674 0 0 0 2.677 2.677h11.62a2.674 2.674 0 0 0 2.677-2.677v-11.62a2.674 2.674 0 0 0-2.677-2.677h-11.62z" fill="#17304F"/><path d="M214.967 206.366a5.639 5.639 0 1 0 0-11.278 5.639 5.639 0 0 0 0 11.278z" fill="#1C8AFB"/><path d="M216.106 202.949c-.398.17-.911.284-1.367.17a2.358 2.358 0 0 1-1.993-2.107c-.171-1.424.968-2.677 2.392-2.677.342 0 .684.057.968.228.228.114.456.057.57-.171.171-.228.057-.57-.228-.684-.285-.114-.626-.228-.911-.228v-.398a.49.49 0 0 0-.456-.456.49.49 0 0 0-.456.456v.398c-1.594.228-2.791 1.652-2.791 3.247a3.26 3.26 0 0 0 2.791 3.247v.342c0 .227.228.455.456.455s.456-.228.456-.455v-.342c.342-.057.683-.114.968-.285.228-.114.342-.456.171-.684-.114-.113-.399-.17-.57-.056z" fill="#fff"/><path d="M220.948 209.784h-11.62a3.245 3.245 0 0 1-3.247-3.247v-11.62a3.245 3.245 0 0 1 3.247-3.247h11.62a3.245 3.245 0 0 1 3.247 3.247v11.62a3.245 3.245 0 0 1-3.247 3.247zm-11.62-17.544a2.674 2.674 0 0 0-2.677 2.677v11.62a2.674 2.674 0 0 0 2.677 2.677h11.62a2.674 2.674 0 0 0 2.677-2.677v-11.62a2.674 2.674 0 0 0-2.677-2.677h-11.62z" fill="#17304F"/><path d="M188.879 206.366a5.64 5.64 0 1 0 0-11.28 5.64 5.64 0 0 0 0 11.28z" fill="#1C8AFB"/><path d="M190.759 201.125a1.138 1.138 0 0 0-.683-.455c-.228-.114-.57-.171-.912-.285-.342-.057-.569-.171-.797-.228-.171-.057-.285-.171-.399-.285-.114-.114-.114-.227-.114-.398 0-.285.114-.513.285-.627.228-.171.513-.228.854-.228.57 0 1.026.171 1.424.627.057.057.114.057.171.057.057 0 .114-.057.171-.114l.228-.399c.057-.114.057-.171-.057-.285a1.944 1.944 0 0 0-.797-.512c-.228-.114-.456-.171-.741-.228v-.684c0-.114-.114-.227-.228-.227h-.455c-.114 0-.228.113-.228.227v.627c-.285.057-.513.114-.741.228-.285.171-.512.342-.683.626-.171.285-.228.57-.228.855 0 .398.114.683.285.968.171.228.455.399.683.513.228.114.57.171.969.284.341.057.569.171.74.228a.919.919 0 0 1 .399.228c.057.057.114.171.114.342 0 .285-.114.456-.285.626-.228.171-.513.228-.912.228-.284 0-.569-.057-.854-.171a2.871 2.871 0 0 1-.74-.512c-.057-.057-.114-.057-.171-.057-.057 0-.114.057-.171.114l-.228.398c-.057.114-.057.228.057.285.228.228.57.456.854.57.285.114.57.171.855.228v.626c0 .114.114.228.228.228h.455a.245.245 0 0 0 .228-.228v-.626c.456-.057.798-.228 1.082-.513.342-.342.513-.683.513-1.196.114-.342 0-.627-.171-.855z" fill="#fff"/><path d="M194.689 209.784h-11.62a3.245 3.245 0 0 1-3.246-3.247v-11.62a3.245 3.245 0 0 1 3.246-3.247h11.62a3.245 3.245 0 0 1 3.247 3.247v11.62a3.245 3.245 0 0 1-3.247 3.247zm-11.62-17.544a2.674 2.674 0 0 0-2.677 2.677v11.62a2.674 2.674 0 0 0 2.677 2.677h11.62a2.674 2.674 0 0 0 2.677-2.677v-11.62a2.674 2.674 0 0 0-2.677-2.677h-11.62z" fill="#17304F"/><path d="M287.762 152.937s14.866-2.506 20.107-2.961c5.183-.513 7.234-1.709 9.17 0 2.393 2.05.684 19.708.456 27.17-.228 7.461-.968 17.771-.968 17.771l-7.747 1.196s-1.082-20.221-1.082-24.664c0-4.442-.057-9.284-.057-9.284s-16.12 4.215-19.879 4.728c-3.703.512-10.937-1.253-10.937-1.253l10.937-12.703z" fill="#003093"/><path d="M291.806 151.741c.911-6.721.741-17.316.855-23.068.113-5.753-.399-10.025-.855-10.994-.456-.968-3.417-2.449-5.753-3.816-2.335-1.367-3.816-2.905-3.816-2.905l-9.114-.342s-9.398 6.551-10.651 7.006c-1.253.513 2.05 11.791 3.303 14.297 1.254 2.506 1.994 6.551 1.937 12.531-.057 4.956-.74 13.614-.74 13.614l24.834-6.323z" fill="#1C8AFB"/><path d="M264.408 118.021c2.222 1.766 3.076 9.057 2.165 13.329-.912 4.272-4.614 15.55-4.614 15.55l-5.981-1.139s-1.879-2.507-.228-8.886c1.652-6.38 5.07-18.17 6.437-18.854 1.367-.683 2.221 0 2.221 0z" fill="#1C8AFB"/><path d="M282.863 145.362l-2.221 5.924s-14.81-1.31-18.284-2.62c-3.532-1.31-6.266-1.994-6.665-3.759-.455-1.823.057-4.899 3.361-5.924 3.304-1.026 23.809 6.379 23.809 6.379z" fill="#1C8AFB"/><path d="M316.812 196.056s3.417 1.31 5.639 2.051c2.221.797 4.499 2.62 4.499 2.62h-17.088l-.113-5.069 6.55-1.367.513 1.765z" fill="#17304F"/><path d="M274.946 100.99l-1.88 10.253s1.082 3.361 5.127 3.019c3.93-.342 4.044-3.247 4.044-3.247v-7.462l-7.291-2.563z" fill="#C2CCD8"/><path d="M275.914 97.003c-1.139-1.025-2.677 0-2.506 1.31.171 1.31 1.196 2.905 2.05 2.848 1.026 2.734 2.45 6.437 5.127 6.38 2.392-.057 3.873-3.589 4.614-6.608.398-1.538.626-3.987.683-5.468a1.107 1.107 0 0 0-1.196-1.196l-6.266.285c-1.253 0-2.392 1.082-2.506 2.45z" fill="#C2CCD8"/><path d="M302.628 194.348c1.538 3.702 4.216 2.164 5.184 6.436l-12.759-.171s-.114-4.784.171-5.183c.284-.342 7.404-1.082 7.404-1.082zm-.227-42.208h-23.81l6.266-13.328c.513-1.025 1.538-1.709 2.677-1.709h19.936c.911 0 1.538.968 1.139 1.823l-6.208 13.214z" fill="#17304F"/><path d="M282.579 149.179c4.67-.798 6.436-1.538 8.202 0 1.709 1.537 12.132 45.681 12.132 45.681s-2.221.627-4.272 1.026c-1.993.398-4.158 0-4.158 0s-7.405-23.867-8.772-28.082c-9.341-.113-12.702.684-16.29-2.164-5.867-4.728-3.19-13.613 13.158-16.461z" fill="#004AE1"/><path d="M266.459 133.002l-.57-.171c.968-3.361 2.222-9.627.399-13.728l.513-.228c1.936 4.272.626 10.709-.342 14.127zm12.759 11.392c-3.475-1.197-12.303-3.874-12.36-3.874l.171-.569c.113 0 8.885 2.677 12.417 3.873l-.228.57zm10.651 38.163c-.227-.798-.569-1.937-1.025-3.361-1.823-6.095-4.899-16.29-5.582-19.537l.57-.114c.683 3.247 3.759 13.442 5.582 19.48.398 1.424.797 2.563 1.025 3.361l-.57.171z" fill="#17304F"/><path d="M316.478 161.899l-1.424 31.639.569.025 1.424-31.638-.569-.026z" fill="#fff"/><path d="M277.965 116.711c-2.791 0-6.323-1.196-7.291-4.443l.569-.171c.912 2.962 4.215 4.044 6.779 4.044 2.506 0 4.955-1.936 5.639-3.702l.512.228c-.854 2.107-3.702 4.044-6.208 4.044zm-3.247-19.993c-.57-.683-1.994-5.012-.911-6.151 1.082-1.14 2.62-.057 2.62-.057s1.025-3.02 4.215-3.02c3.247 0 4.841 1.197 5.924 1.425 3.417.683 1.765 5.582.911 6.322-3.759 3.247-9.512 1.253-10.139.912-.626-.342-1.652 1.082-1.652 1.082l-.968-.513z" fill="#17304F"/><path d="M282.294 103.269c1.367.114 2.392.114 2.278 1.481-.114 1.367-1.937 6.265-4.5 6.208-2.563-.057-4.67-4.101-4.841-5.468-.114-1.367.341-3.076.569-4.044.228-.968 0-3.304-.114-4.215s.513-1.14.513-1.14.57 1.88.627 3.703c.056 1.823.626 3.873 1.196 3.76.569-.114 3.474-.342 4.272-.285zM165.298 58.954c-7.747 0-14.069-6.323-14.069-14.07 0-7.746 6.322-14.069 14.069-14.069 7.746 0 14.069 6.323 14.069 14.07-.057 7.803-6.323 14.069-14.069 14.069zm0-27.512c-7.405 0-13.5 6.038-13.5 13.5 0 7.461 6.038 13.499 13.5 13.499s13.499-6.038 13.499-13.5c0-7.461-6.094-13.499-13.499-13.499z" fill="#17304F"/><path d="M165.241 58.954c-4.728 0-8.601-6.323-8.601-14.07 0-7.746 3.873-14.069 8.601-14.069 4.728 0 8.601 6.323 8.601 14.07-.057 7.803-3.873 14.069-8.601 14.069zm0-27.512c-4.443 0-8.032 6.038-8.032 13.5 0 7.461 3.589 13.499 8.032 13.499s8.031-6.038 8.031-13.5c0-7.461-3.645-13.499-8.031-13.499z" fill="#17304F"/><path d="M179.025 44.657h-17.6v.57h17.6v-.57zm-18.854 0h-7.461v.57h7.461v-.57z" fill="#17304F"/><path d="M165.526 31.157h-.57V58.67h.57V31.157z" fill="#17304F"/><path d="M157.096 56.163l-.228-.513c1.708-.854 5.012-1.367 8.544-1.367 3.36 0 6.436.456 8.259 1.196l-.228.513c-1.766-.74-4.728-1.14-8.031-1.14-3.475 0-6.665.513-8.316 1.31zm8.145-22.158c-2.62 0-5.069-.285-6.892-.74l.171-.57c1.822.456 4.215.74 6.778.74 2.563 0 4.956-.285 6.778-.74l.171.57c-1.937.455-4.386.74-7.006.74z" fill="#17304F"/></svg>