<svg width="356" height="268" viewBox="0 0 356 268" fill="none" xmlns="http://www.w3.org/2000/svg"><path d="M119.274 70.232c6.038-.285 8.032-3.589 8.145-6.494.114-2.904 3.133-6.949 7.177-6.607 4.102.285 6.095-2.563 6.095-4.557v-5.41h-21.189l-.228 23.068z" fill="#D0DAE6"/><path d="M173.158 117.395c-1.025 0-1.993-.285-2.904-.798l.284-.512c1.595.911 3.589.911 5.241 0l7.689-4.443c1.595-.912 2.62-2.677 2.62-4.5v-8.886a5.194 5.194 0 0 0-2.62-4.5l-7.689-4.443c-1.595-.911-3.589-.911-5.241 0l-7.689 4.443c-1.595.912-2.62 2.677-2.62 4.5h-.57c0-2.05 1.082-3.987 2.905-5.012l7.69-4.443c1.765-1.026 3.987-1.026 5.809 0l7.69 4.443c1.766 1.025 2.905 2.962 2.905 5.012v8.886c0 2.05-1.082 3.987-2.905 5.012l-7.69 4.443c-.911.513-1.936.798-2.905.798zm-10.594-5.241c-1.766-1.025-2.905-2.962-2.905-5.012v-5.468h.57v5.468a5.196 5.196 0 0 0 2.62 4.5l-.285.512z" fill="#17304F"/><path d="M306.217 203.005h7.519v-60.263H198.05v5.981h108.167v54.282z" fill="#D0DAE6"/><path d="M321.539 197.309h-7.803v-.569h7.234v-59.694H205.854v5.696h-.57v-6.266h116.255v60.833zm-201.866 27.284c-1.937 0-3.873-.569-5.525-1.652-1.88-1.253-4.101-2.563-6.437-3.93-14.468-8.43-36.34-21.246-36.34-54.852v-24.607c0-3.645 2.677-6.778 6.265-7.291 9-1.31 14.013-6.038 15.437-14.525.626-3.588 3.645-6.265 7.29-6.265h38.335c3.645 0 6.664 2.62 7.29 6.265 1.424 8.487 6.437 13.215 15.437 14.525 3.588.513 6.265 3.646 6.265 7.291v24.607c0 35.828-21.872 47.561-36.34 55.365-2.393 1.253-4.614 2.449-6.437 3.645-1.595.912-3.417 1.424-5.24 1.424zm-19.31-112.553c-3.36 0-6.151 2.45-6.72 5.753-1.425 8.772-6.665 13.671-15.95 14.981-3.303.455-5.81 3.36-5.81 6.721v24.607c0 33.321 21.702 45.966 36.056 54.34 2.392 1.367 4.614 2.677 6.494 3.93a9.344 9.344 0 0 0 10.138.171c1.88-1.196 4.102-2.393 6.494-3.646 14.354-7.689 36.056-19.309 36.056-54.852v-24.607c0-3.361-2.507-6.266-5.81-6.721-9.285-1.367-14.468-6.266-15.949-14.981-.57-3.36-3.361-5.753-6.721-5.753h-38.278v.057z" fill="#17304F"/><path d="M136.191 135.963a4.474 4.474 0 0 0-4.443-3.816h-24.492c-2.222 0-4.101 1.652-4.443 3.816-1.025 6.209-4.956 8.658-10.025 9.399a4.539 4.539 0 0 0-3.873 4.5v15.721c0 24.891 18.91 31.783 27.226 37.308a6.258 6.258 0 0 0 6.665.114c8.373-5.24 27.227-10.879 27.227-37.422v-15.721c0-2.222-1.652-4.159-3.874-4.5-5.012-.741-8.942-3.19-9.968-9.399zm143.71 88.63H119.502v-.569h159.83v-15.038h.569v15.607zm0-87.832h-.569V47.448H119.787v64.308h-.57V46.878h160.684v89.883z" fill="#17304F"/><path d="M331.507 117.736h-15.835a2.942 2.942 0 0 1-2.962-2.962V98.939a2.942 2.942 0 0 1 2.962-2.961h15.835a2.942 2.942 0 0 1 2.962 2.962v15.834c.057 1.595-1.31 2.962-2.962 2.962z" fill="#fff"/><path d="M331.507 118.021h-15.835a3.245 3.245 0 0 1-3.246-3.247V98.939a3.245 3.245 0 0 1 3.246-3.246h15.835a3.245 3.245 0 0 1 3.247 3.246v15.835c.057 1.766-1.424 3.247-3.247 3.247zm-15.835-21.816a2.674 2.674 0 0 0-2.677 2.677v15.835a2.674 2.674 0 0 0 2.677 2.677h15.835a2.674 2.674 0 0 0 2.677-2.677V98.882a2.674 2.674 0 0 0-2.677-2.677h-15.835z" fill="#17304F"/><path d="M323.647 113.635a6.892 6.892 0 1 0 0-13.785 6.892 6.892 0 0 0 0 13.785z" fill="#1C8AFB"/><path d="M306.502 209.271H190.246v-60.833h116.256v60.833zm-115.686-.57h115.116v-59.694H190.816v59.694z" fill="#17304F"/><path d="M294.597 203.29h-91.99v-.285a4.57 4.57 0 0 0-4.557-4.556h-.285v-39.588h.285a4.57 4.57 0 0 0 4.557-4.556v-.285h91.99v.285a4.57 4.57 0 0 0 4.557 4.556h.285v39.588h-.285a4.57 4.57 0 0 0-4.557 4.556v.285zm-91.421-.569h90.908a5.161 5.161 0 0 1 4.842-4.842v-38.505a5.161 5.161 0 0 1-4.842-4.842h-90.908a5.16 5.16 0 0 1-4.841 4.842v38.505a5.16 5.16 0 0 1 4.841 4.842zm-32.41 21.587H160.57v10.196h10.196v-10.196z" fill="#17304F"/><path d="M214.796 63.909V42.492c0-1.993-1.025-3.76-2.734-4.785L193.493 27a5.617 5.617 0 0 0-5.525 0l-18.569 10.708c-1.709.969-2.734 2.791-2.734 4.785V63.91c0 1.994 1.025 3.76 2.734 4.785l18.569 10.708a5.617 5.617 0 0 0 5.525 0l18.569-10.708c1.709-.969 2.734-2.791 2.734-4.785z" fill="#D4E9FF"/><path d="M192.753 106.743v-8.886c0-1.993-1.026-3.759-2.734-4.784l-7.69-4.443a5.617 5.617 0 0 0-5.525 0l-7.69 4.443c-1.709.968-2.734 2.79-2.734 4.784v8.886c0 1.994 1.025 3.759 2.734 4.785l7.69 4.443a5.619 5.619 0 0 0 5.525 0l7.69-4.443a5.595 5.595 0 0 0 2.734-4.785z" fill="#1C8AFB"/><path d="M92.674 79.516h-.57v4.215h.57v-4.215zm0 7.462h-.57v4.215h.57v-4.215zm5.582-1.88h-4.215v.57h4.215v-.57zm-7.462 0H86.58v.57h4.215v-.57zm108.965 143.596h-.57v4.215h.57v-4.215zm0 7.519h-.57v4.215h.57v-4.215zm5.582-1.937h-4.215v.57h4.215v-.57zm-7.519 0h-4.215v.57h4.215v-.57zm91.592-209.271h-.57v4.215h.57v-4.215zm0 7.462h-.57v4.215h.57v-4.215zm5.525-1.937h-4.215v.57h4.215v-.57zm-7.462 0h-4.215v.57h4.215v-.57z" fill="#17304F"/><path d="M248.63 191.044c7.079 0 12.816-5.738 12.816-12.816s-5.737-12.816-12.816-12.816c-7.078 0-12.816 5.738-12.816 12.816s5.738 12.816 12.816 12.816z" fill="#CED8E4"/><path d="M188.993 105.319v-6.038c0-1.48-.797-2.905-2.107-3.645l-5.184-3.02a4.276 4.276 0 0 0-4.215 0l-5.183 3.02c-1.31.74-2.107 2.164-2.107 3.645v6.038c0 1.481.797 2.905 2.107 3.645l5.183 3.019a4.274 4.274 0 0 0 4.215 0l5.184-3.019c1.31-.74 2.107-2.164 2.107-3.645z" fill="#fff"/><path d="M237.124 93.187a3.73 3.73 0 0 1-1.879-.513l-3.987-2.279c-1.14-.683-1.88-1.88-1.88-3.246v-4.614c0-1.31.74-2.563 1.88-3.247l3.987-2.278c1.139-.684 2.563-.684 3.759 0l3.987 2.278c1.14.684 1.88 1.88 1.88 3.247v4.614c0 1.31-.74 2.563-1.88 3.246l-3.987 2.279a3.733 3.733 0 0 1-1.88.513zm0-16.12c-.569 0-1.082.114-1.594.399l-3.988 2.278c-.968.57-1.594 1.595-1.594 2.734v4.614c0 1.14.626 2.164 1.594 2.734l3.988 2.278c.968.57 2.164.57 3.189 0l3.988-2.278c.968-.57 1.594-1.595 1.594-2.734v-4.614c0-1.14-.626-2.164-1.594-2.734l-3.988-2.278a3.307 3.307 0 0 0-1.595-.4zm44.942 9.341a6.493 6.493 0 1 0 0-12.986 6.493 6.493 0 0 0 0 12.986z" fill="#17304F"/><path d="M285.825 134.426l-38.277-19.139c-2.506-1.253-5.525-.399-7.006 2.051-5.012 8.316-15.778 25.689-15.778 25.689l5.411 3.816s9.399-10.822 11.506-13.67c1.31-1.709 2.507-3.76 3.532-5.81l20.847 10.48 18.569.684 1.196-4.101z" fill="#003093"/><path d="M37.138 227.1l-1.196 2.449-10.595 2.962c-.228.057-.285.399-.057.512.684.399 1.937 1.083 2.905 1.311 1.424.398 8.203-.114 9.456-.171.797-.057 2.278.114 3.36.171.627.056 1.14-.399 1.14-1.026l1.025-6.094-6.038-.114z" fill="#17304F"/><path d="M170.709 234.219H21.645v.57h149.064v-.57zm85.953-54.624l.74 2.791-6.664 6.892c-.798.969-.228 1.766 0 1.766.74-.057 2.107-.171 3.019-.456 1.367-.455 6.493-4.386 7.461-5.069.627-.456 1.88-1.139 2.792-1.595.512-.285.683-.911.398-1.424l-3.133-4.956-4.613 2.051zm-26.487-33.265l-.626 1.025.057.684c.057.683-.456 1.196-1.139 1.196-1.538 0-4.101-.057-5.013 0-1.31.057-4.955.399-6.322 0s-3.703-3.076-3.703-3.076l11.962-1.481 1.253-1.139 3.531 2.791z" fill="#17304F"/><path d="M244.017 138.014c-4.159 1.31-3.247 6.38-1.595 9.683 1.651 3.304 13.499 31.955 13.499 31.955h6.892l-8.088-30.986 22.613.057s3.532.227 5.81-2.45c2.62-3.076 2.051-9.683 2.051-9.683l-12.759-3.133c0 .057-21.588 2.393-28.423 4.557z" fill="#004AE1"/><path d="M245.663 150.166l-.527.218 9.892 23.894.526-.218-9.891-23.894z" fill="#2676C5"/><path d="M286.452 142.343c-3.645 0-6.607-1.31-7.974-3.474l.455-.285c.969 1.538 3.475 3.19 7.519 3.19v.569z" fill="#fff"/><path d="M50.865 152.026l-12.018 32.296c-.285.855-.456 2.165 0 3.874l13.044 40.27 8.145-2.221-11.221-37.423 12.36-36.055-10.31-.741z" fill="#003093"/><path d="M54.397 153.621c-1.823 6.322-.57 9 .911 10.31l-19.081 64.421h7.746s20.563-56.618 21.075-57.871c.513-1.253 4.842-4.614 4.842-9.911 0-4.044-1.082-7.861-1.082-7.861l-14.411.912z" fill="#004AE1"/><path d="M53.429 225.96s.854 3.19.512 3.418c-1.936 1.424-6.038 3.304-8.088 4.215-.342.171-.513.911.456.911h6.38c.626.057 1.31-.114 1.879-.398 1.936-.969 6.436-3.19 6.778-3.589.399-.513-1.823-5.525-1.823-5.525l-6.094.968z" fill="#17304F"/><path d="M49.84 131.065c.057-6.493 1.88-10.936 1.88-10.936l14.468-2.677c4.328.398 7.746 2.506 9 5.297 2.107 4.557 6.55 13.955 7.233 15.892.968 2.848 1.196 7.917-1.48 8.316-2.906.399-6.665-5.24-8.317-10.936-.57 7.974-1.253 15.151-3.36 18.569 0 0-13.728.854-18.114-1.937-.854-.456-1.367-15.094-1.31-21.588z" fill="#1C8AFB"/><path d="M61.46 109.819l2.62 8.43s-.684 2.677-4.044 2.734c-3.247.057-3.589-1.709-3.589-1.709l-.74-7.234 5.753-2.221z" fill="#CED8E4"/><path d="M61.745 111.015c-.342 1.652-1.197 5.069-3.418 5.468-1.481.285-2.335-1.424-2.335-1.424l-.285-2.962 5.753-2.221.285 1.139z" fill="#17304F"/><path d="M60.72 106.23c.797-.968 2.164-.228 2.164.855 0 1.082-.74 2.449-1.424 2.563-.627 2.335-1.367 5.468-3.646 5.696-1.936.171-3.474-2.563-4.386-5.013-.683-1.879-1.253-5.468-1.253-5.468l8.146-.569.398 1.936z" fill="#CED8E4"/><path d="M61.46 105.832c.456-.513 1.48-3.931.626-4.785-.854-.854-2.05 0-2.05 0s-.855-2.335-3.36-2.278c-2.507.057-3.76 1.196-4.614 1.196h-.228c-1.937.057-3.02 2.278-1.88 3.816.456.627.911 1.082 1.196 1.31 2.62 1.994 7.747.627 8.202.399.456-.285 1.31.797 1.31.797l.798-.455z" fill="#17304F"/><path d="M51.72 120.186c-2.62 1.31-3.418 3.132-4.443 5.069-1.026 1.937-7.462 13.67-7.69 14.867-.456 2.392.627 8.031 5.81 5.354 5.183-2.677 6.266-12.759 6.266-12.759v-12.531h.057zM285.654 95.01l6.95 3.645s1.31 22.898-1.937 29.961c-2.962 6.493-5.81 8.43-5.81 8.43s-10.253-1.139-12.93-2.279c-5.297-2.278-4.557-8.316-4.557-8.316s.684-4.671 1.538-8.373c.855-3.702.513-20.392.513-20.392l8.715-2.563s1.595 1.196 4.272 1.196c1.822 0 3.246-1.31 3.246-1.31z" fill="#1C8AFB"/><path d="M285.256 87.605l.398 8.202s-1.139 2.848-4.385 2.221c-3.133-.626-2.962-3.474-2.962-3.474l.626-5.981 6.323-.968z" fill="#CED8E4"/><path d="M285.313 88.8c-.684 1.539-3.133 4.273-4.614 4.102-1.481-.171-2.108-1.424-2.108-1.424l.285-2.905 6.437-2.165v2.393z" fill="#17304F"/><path d="M285.427 82.99c1.139-.74 2.335.4 1.993 1.539-.342 1.139-1.481 2.335-2.221 2.221-1.31 2.222-3.076 5.24-5.412 4.785-2.05-.399-2.848-3.703-3.075-6.437-.171-2.107.341-5.98.341-5.98l8.544 1.822-.17 2.05z" fill="#CED8E4"/><path d="M292.603 98.655c-3.018-.74-2.734 11.847-1.993 14.923l.74 3.076s-8.487 1.31-9.341 1.538c-.855.228-2.279 2.164-2.165 3.816.114 1.652 1.709 2.222 1.709 2.222s8.088 1.652 11.392 1.765c3.304.114 5.696.057 6.38-1.082.74-1.196.228-8.886-.456-13.328-.74-3.988-3.531-12.247-6.266-12.93z" fill="#1C8AFB"/><path d="M277.338 115.914c-1.538.398-2.563.74-2.962 1.538-.398.797-.057 2.961.741 3.246.797.228 1.025.228 1.822.912.798.626 4.728 2.278 5.412 2.164.626-.057 1.424-1.424 1.367-2.164-.057-.741-.399-.969-1.026-1.709-.683-.855-4.556-4.215-5.354-3.987zm-36.511-24.038c.797.74 2.791 2.165 2.791 2.165.342.57.911 1.48 1.595 2.563 1.025-1.082 2.05-2.165 2.962-3.304l.057-.057a61.753 61.753 0 0 1-2.336-2.164c-.455-1.31-1.367-3.247-2.164-4.158-.968-1.14-3.873-3.646-4.386-3.589-.513.114-.456.456-.342.627.114.17 2.279 2.335 2.45 2.677.17.342.227.627 0 .57-.228-.057-2.962-3.076-3.361-3.304-.342-.228-1.139.456-.968.911.17.456.512 1.31.398 1.253-.114-.057-.285.74.285 1.71.57.91 2.221 3.36 3.019 4.1z" fill="#CED8E4"/><path d="M275.572 107.427l-1.424-9.684c-.683.114-.854-1.139-2.677-.683-4.272 1.139-7.575 3.019-10.765 2.107-2.335-.683-9.683-3.019-12.816-6.721l-3.133 3.36c11.164 13.842 22.328 13.102 28.822 11.905.74-.114 1.367-.227 1.993-.284z" fill="#1C8AFB"/><path d="M286.737 81.11c-.114.457.171 1.197 0 1.596-.285.626-1.367.74-1.367.74s-.684-1.082-1.253-1.538c-.57-.455-2.108-1.936-2.108-1.936l4.728 1.139zM15.664 234.219h-5.126v.57h5.126v-.57z" fill="#17304F"/><path d="M283.604 78.206c0 1.709-4.557 4.044-6.266 4.044-1.709 0-3.246-1.936-3.246-3.645 0-1.71 1.253-4.215 3.873-4.215 1.652 0 5.639 2.05 5.639 3.816zM60.89 139.21h-5.867c-.911 0-1.708-.626-1.993-1.481l-2.62-8.601c-.285-1.025.455-2.05 1.48-2.05h4.159a1.47 1.47 0 0 1 1.424 1.082l3.417 11.05z" fill="#17304F"/><path d="M65.447 137.843c-1.481-1.082-4.101-3.417-4.899-3.417-.797 0-4.215.683-4.67.797-.456.114.114 1.31.398 1.481.285.228.4 1.994.912 2.392.512.399 2.506 0 2.506 0s0 .798.911 1.026c.912.227 3.874.683 3.874.683l.968-2.962z" fill="#CED8E4"/><path d="M80.086 140.008c-3.703-1.14-12.588-3.532-14.24-2.905-1.595.683-2.962 3.531-1.538 4.67 1.424 1.14 13.727 5.07 15.72 5.184 1.994.114 2.792-.912 2.963-1.937.626-2.791-1.823-4.671-2.905-5.012z" fill="#1C8AFB"/><path d="M45.511 137.103c1.082-1.481 2.848-4.5 3.645-4.728.74-.228 4.215-.627 4.728-.684.513-.056.285 1.254.057 1.538-.228.285.228 2.051-.114 2.564-.342.512-2.392.74-2.392.74s.228.741-.57 1.253c-.797.456-3.474 1.823-3.474 1.823l-1.88-2.506z" fill="#CED8E4"/><path d="M41.239 138.413c3.19-2.222 3.418-1.823 5.183-1.709 1.766.114 3.703 2.335 2.848 3.987-1.424 2.734-2.449 3.475-4.329 4.158-1.88.684-4.5-.057-5.012-.968-1.31-2.449.399-4.842 1.31-5.468z" fill="#1C8AFB"/><path d="M59.922 123.546c-2.506 0-4.67-1.993-5.013-3.987l.57-.114c.342 1.937 2.563 3.816 5.07 3.475 2.563-.342 4.214-1.367 4.67-5.355l.57.057c-.513 4.557-2.791 5.526-5.127 5.81-.284.114-.512.114-.74.114zm19.708 23.582c-2.05-.399-11.79-2.905-14.753-4.728l.285-.513c2.848 1.766 12.588 4.272 14.582 4.671l-.114.57zm-6.436-8.829c-.057-.057-3.361-8.544-4.044-10.139-.684-1.652-.912-4.956.512-6.721l.456.341c-1.253 1.595-1.025 4.671-.456 6.152.684 1.595 3.987 10.025 4.044 10.139l-.512.228z" fill="#17304F"/><path d="M48.553 190.17l-10.26 34.745.547.161 10.26-34.745-.547-.161z" fill="#fff"/><path d="M38.277 191.784c-.057-.171-1.253-3.759-1.424-5.354-.17-1.424.228-2.335.912-4.272.17-.399.341-.854.512-1.367l.513.171c-.171.513-.342.968-.513 1.367-.683 1.823-1.025 2.734-.911 3.987.17 1.595 1.424 5.24 1.424 5.24l-.513.228zm27.113-31.555c-2.392-.342-4.158-2.393-4.557-5.412l.57-.057c.399 2.792 1.88 4.614 4.044 4.899l-.057.57zm179.538-62.486l-.342-.455c1.025-.855 2.506-2.45 3.361-4.215l.512.227c-.968 1.88-2.506 3.589-3.531 4.443zm40.214 26.487l-.513-.171c.228-.684.342-1.253.399-2.108.057-.512-.228-1.31-.684-1.595-.171-.114-.398-.114-.626 0l-.285-.512c.399-.228.854-.228 1.196 0 .627.398.968 1.424.968 2.107-.057.969-.171 1.538-.455 2.279zm9.17 2.107l-.057-.569c.285 0 .513 0 .798-.057 1.424-.057 2.677-.114 3.417-.912.684-.797.969-2.221.798-4.386l.569-.057c.171 2.393-.113 3.931-.968 4.842-.911 1.025-2.335 1.082-3.873 1.139h-.684zm-3.303-9.569c-1.937-6.095-3.703-12.873-.969-16.575l.456.341c-2.848 3.817-.342 11.791 1.025 16.063l-.512.171zm-9.057-16.576c-.342 0-.684-.056-.968-.056-1.367-.228-4.671-1.197-5.013-4.386l.57-.057c.342 2.848 3.303 3.702 4.557 3.873 1.538.285 4.841-.114 6.094-3.645l.513.17c-1.139 3.247-3.873 4.101-5.753 4.101z" fill="#17304F"/><path d="M240.784 120.009l-13.614 21.515.481.304 13.614-21.514-.481-.305z" fill="#fff"/><path d="M327.007 104.465l-1.139-1.14c-.171-.17-.513-.057-.513.228v.798h-4.784a.571.571 0 0 0-.57.569c0 .285.228.57.57.57h4.784v.797c0 .285.342.399.513.228l1.139-1.139c.228-.342.228-.684 0-.911zm-6.835 4.67l1.139 1.139c.171.171.513.057.513-.227v-.798h4.785a.57.57 0 0 0 .569-.569.571.571 0 0 0-.569-.57h-4.785v-.797c0-.285-.342-.399-.513-.228l-1.139 1.139c-.171.342-.171.74 0 .911z" fill="#17304F"/><path fill-rule="evenodd" clip-rule="evenodd" d="M201.319 43.905h-21.417v4.997h8.158v14.992h5.1V48.901h8.159v-4.997zM179.902 51.9h5.1v11.994h-5.1V51.9zm21.416 0h-5.1v11.994h5.1V51.9z" fill="#fff"/></svg>