<svg width="356" height="268" viewBox="0 0 356 268" fill="none" xmlns="http://www.w3.org/2000/svg"><path d="M334.127 185.519H123.261V94.212h.57v90.737h209.727V72.567H137.103v-.57h197.024V185.52z" fill="#17304F"/><path d="M307.641 190.303v-33.321a9.212 9.212 0 0 0-4.614-7.975l-28.879-16.632a9.209 9.209 0 0 0-9.227 0l-28.879 16.632a9.212 9.212 0 0 0-4.614 7.975v33.321a9.212 9.212 0 0 0 4.614 7.975l28.879 16.632a9.209 9.209 0 0 0 9.227 0l28.879-16.632c2.905-1.652 4.614-4.671 4.614-7.975z" fill="#1C8AFB"/><path d="M295.395 190.303v-33.321a9.212 9.212 0 0 0-4.614-7.975l-28.879-16.632a9.209 9.209 0 0 0-9.227 0l-28.879 16.632a9.212 9.212 0 0 0-4.614 7.975v33.321a9.212 9.212 0 0 0 4.614 7.975l28.879 16.632a9.209 9.209 0 0 0 9.227 0l28.879-16.632a9.212 9.212 0 0 0 4.614-7.975z" fill="#17304F"/><path d="M245.384 216.448c-1.652 0-3.304-.399-4.728-1.253l-21.531-12.417.285-.513 21.474 12.417c2.734 1.595 6.152 1.595 8.943 0l28.878-16.632a8.993 8.993 0 0 0 4.443-7.747v-33.321a8.993 8.993 0 0 0-4.443-7.747l-28.878-16.632c-2.734-1.595-6.152-1.595-8.943 0l-28.879 16.632a8.993 8.993 0 0 0-4.443 7.747v7.519h-.569v-7.519c0-3.361 1.822-6.551 4.727-8.202l28.879-16.633c2.905-1.709 6.55-1.709 9.512 0l28.879 16.633c2.905 1.708 4.728 4.841 4.728 8.202v33.321c0 3.361-1.823 6.551-4.728 8.203l-28.879 16.632c-1.424.911-3.075 1.31-4.727 1.31zm-33.607-17.942c-2.904-1.709-4.727-4.842-4.727-8.203h.569a8.993 8.993 0 0 0 4.443 7.747l-.285.456z" fill="#17304F"/><path d="M313.394 49.726v-8.6c0-2.393-1.253-4.615-3.361-5.81l-7.462-4.33a6.636 6.636 0 0 0-6.664 0l-7.462 4.33c-2.05 1.195-3.36 3.417-3.36 5.81v8.6c0 2.392 1.253 4.614 3.36 5.81l7.462 4.329a6.636 6.636 0 0 0 6.664 0l7.462-4.329c2.108-1.196 3.361-3.418 3.361-5.81z" fill="#D4E9FF"/><path d="M237.011 73.592V68.98c0-1.538-.855-2.962-2.165-3.76l-3.987-2.278c-1.367-.798-3.019-.798-4.329 0l-3.987 2.278a4.328 4.328 0 0 0-2.165 3.76v4.613c0 1.538.855 2.962 2.165 3.76l3.987 2.278c1.367.798 3.019.798 4.329 0l3.987-2.278a4.328 4.328 0 0 0 2.165-3.76zm69.035-12.588a6.89 6.89 0 0 1-3.474-.911l-7.462-4.33a6.936 6.936 0 0 1-3.475-6.037v-8.6a6.936 6.936 0 0 1 3.475-6.039l7.462-4.329c2.164-1.253 4.841-1.253 6.949 0l-.285.513c-1.994-1.14-4.443-1.14-6.38 0l-7.461 4.329a6.339 6.339 0 0 0-3.19 5.525v8.601c0 2.279 1.253 4.386 3.19 5.525l7.461 4.33c1.994 1.138 4.443 1.138 6.38 0l.285.512a7.182 7.182 0 0 1-3.475.911zm14.468-19.879h-.57c0-2.278-1.253-4.386-3.189-5.525l-4.614-2.677.285-.513 4.613 2.677c2.108 1.253 3.475 3.532 3.475 6.038zm-8.316 17.43l-.285-.513 4.785-2.79a6.34 6.34 0 0 0 3.189-5.526V44.03h.57v5.696a6.937 6.937 0 0 1-3.474 6.038l-4.785 2.79z" fill="#17304F"/><path d="M117.11 26.372c3.474 0 6.322 2.849 6.322 6.323v44.03c0 3.475-2.848 6.323-6.322 6.323H73.08c-3.475 0-6.323-2.848-6.323-6.323v-44.03c0-3.474 2.848-6.323 6.323-6.323h44.03zm0-1.708H73.08a8.022 8.022 0 0 0-8.032 8.031v44.03a8.022 8.022 0 0 0 8.032 8.032h44.03a8.022 8.022 0 0 0 8.031-8.032v-44.03a8.022 8.022 0 0 0-8.031-8.031z" fill="#CDD7E3"/><path fill-rule="evenodd" clip-rule="evenodd" d="M106.014 44.976H84.597v4.997h8.158v14.991h5.1V49.973h8.159v-4.997zM84.597 52.97h5.1v11.993h-5.1V52.971zm21.415 0h-5.099v11.993h5.099V52.971z" fill="#CDD7E3"/><path d="M52.745 94.212h20.62a3.245 3.245 0 0 0 3.246-3.247v-20.62a3.245 3.245 0 0 0-3.247-3.246h-20.62a3.245 3.245 0 0 0-3.246 3.247v20.62c0 1.765 1.481 3.246 3.247 3.246z" fill="#fff"/><path d="M73.364 94.497h-20.62a3.55 3.55 0 0 1-3.53-3.532v-20.62a3.55 3.55 0 0 1 3.53-3.53h20.62a3.55 3.55 0 0 1 3.532 3.53v20.62a3.55 3.55 0 0 1-3.532 3.532zm-20.62-27.113a2.942 2.942 0 0 0-2.961 2.962v20.62a2.942 2.942 0 0 0 2.962 2.961h20.62a2.942 2.942 0 0 0 2.961-2.962v-20.62a2.942 2.942 0 0 0-2.962-2.961h-20.62z" fill="#17304F"/><path d="M63.055 89.997a9.342 9.342 0 1 0 0-18.683 9.342 9.342 0 0 0 0 18.683z" fill="#1C8AFB"/><path d="M113.236 94.212h20.62a3.245 3.245 0 0 0 3.247-3.247v-20.62a3.245 3.245 0 0 0-3.247-3.246h-20.62a3.245 3.245 0 0 0-3.246 3.247v20.62c.057 1.765 1.481 3.246 3.246 3.246z" fill="#fff"/><path d="M133.856 94.497h-20.619a3.55 3.55 0 0 1-3.532-3.532v-20.62a3.55 3.55 0 0 1 3.532-3.53h20.619a3.55 3.55 0 0 1 3.532 3.53v20.62a3.55 3.55 0 0 1-3.532 3.532zm-20.619-27.113a2.942 2.942 0 0 0-2.962 2.962v20.62a2.942 2.942 0 0 0 2.962 2.961h20.619a2.942 2.942 0 0 0 2.962-2.962v-20.62a2.942 2.942 0 0 0-2.962-2.961h-20.619z" fill="#17304F"/><path d="M123.546 89.997a9.342 9.342 0 1 0 0-18.684 9.342 9.342 0 0 0 0 18.684z" fill="#1C8AFB"/><path d="M225.846 235.587h-.569v4.499h.569v-4.499zm0 8.031h-.569v4.5h.569v-4.5zm-2.05-2.051h-4.5v.57h4.5v-.57zm8.031 0h-4.5v.57h4.5v-.57zm116.142-175.55h-.57v4.5h.57v-4.5zm0 8.031h-.57v4.5h.57v-4.5zm-2.051-2.05h-4.5v.57h4.5v-.57zm8.031 0h-4.5v.57h4.5v-.57zM149.406 44.543h-.57v4.5h.57v-4.5zm0 8.031h-.57v4.5h.57v-4.5zm-2.05-2.05h-4.5v.57h4.5v-.57zm8.031 0h-4.5v.57h4.5v-.57zm9.854 113.692h-26.259l7.405-17.829a3.153 3.153 0 0 1 2.905-1.936h21.018c1.481 0 2.507 1.538 1.937 2.905l-7.006 16.86z" fill="#17304F"/><path d="M167.121 152.824l-.513-.228 1.937-4.614c.114-.342.114-.683-.114-.968-.228-.285-.513-.456-.855-.456h-17.942c-.797 0-1.481.456-1.766 1.196l-.512-.228a2.563 2.563 0 0 1 2.335-1.537h17.942c.57 0 1.026.284 1.367.74.285.456.342 1.025.171 1.538l-2.05 4.557z" fill="#fff"/><path d="M155.729 226.644c-.855-1.082-6.095-3.816-6.095-3.816l-6.835-.627-.285 4.5h13.215v-.057zm31.954-62.371h-142v.569h142v-.569z" fill="#17304F"/><path d="M187.683 226.416H48.701v.57h138.982v-.57zm17.202 0h-10.366v.57h10.366v-.57z" fill="#17304F"/><path d="M114.718 174.241c-2.507 5.867-3.931 15.436 1.822 16.632 1.937.399 4.785-.057 4.785-.057l5.411 31.898s2.222.683 3.93.683c1.709 0 3.988-1.31 3.988-1.31v-37.252l-19.936-10.594z" fill="#003093"/><path d="M132.261 176.405c13.5.855 28.309 2.848 30.075 3.873 1.823 1.026 1.538 4.159 1.082 6.494-.399 2.335-13.784 36.056-13.784 36.056s-2.905.569-4.101.227c-1.196-.341-2.734-.911-2.734-.911l6.208-31.043h-23.581s-4.614-.627-5.411-3.703c-.741-3.132 0-8.202 0-8.202l12.246-2.791z" fill="#004AE1"/><path d="M127.875 131.35c1.88 1.196 9.626 5.582 9.626 5.582s-5.012 13.158-4.727 19.879c.285 6.721 2.449 19.594 2.449 19.594s-3.93 4.614-11.677 5.411c-7.746.798-10.651-1.481-10.651-1.481s-3.931-14.24-4.5-20.961c-.57-6.721-1.082-21.075-.855-22.442.228-1.367 10.766-4.728 10.766-4.728l9.569-.854z" fill="#1C8AFB"/><path d="M137.501 136.932c1.197 1.766 4.614 23.638 4.614 23.638h11.563l.57 3.646s-10.31 5.924-15.664 4.386c-6.266-1.823-5.525-6.266-5.924-8.886-.399-2.62-1.367-13.158-1.025-16.063.341-2.962 5.126-7.803 5.866-6.721zm-30.018 0c-1.879 3.474-4.101 19.025-3.702 23.41.399 4.443 1.31 6.893 3.93 8.032 1.424.626 3.987.171 3.987.171l-4.215-31.613z" fill="#1C8AFB"/><path d="M162.564 95.864h-5.924v.57h5.924v-.57zm77.124 0h-73.365v.57h73.365v-.57zm53.827 0H244.53v.57h48.985v-.57zm19.423 0h-16.29v.57h16.29v-.57zm-91.534 5.81H156.64v.569h64.764v-.569zm51.15 0h-46.992v.569h46.992v-.569zm40.385 0h-32.582v.569h32.582v-.569zm-115.914 5.81H156.64v.569h40.385v-.569zm58.441 0h-53.087v.569h53.087v-.569zm-89.143 5.809h-9.683v.57h9.683v-.57zm39.189 0h-30.417v.57h30.417v-.57zm-22.101 5.81H156.64v.57h26.771v-.57zm22.101 0h-16.291v.57h16.291v-.57zm-53.884 71.827H104.92v.57h46.708v-.57zm-15.038 35.999c-.285-1.253-2.62-3.532-3.189-4.044-.57-.513-6.209-.228-6.209-.228s-.798 2.05-1.082 2.848a8.206 8.206 0 0 0-.399 1.424h10.879z" fill="#17304F"/><path d="M128.844 112.724c1.253 5.069 2.221 10.936 1.537 13.329-.74 2.392-2.677 2.677-2.677 2.677l-5.525-11.905 6.665-4.101z" fill="#CDD7E3"/><path d="M126.85 121.154l1.025 10.196s-1.993 2.05-5.183 2.335c-3.19.285-4.386-1.31-4.386-1.31l.399-11.905 8.145.684z" fill="#CDD7E3"/><path d="M130.666 107.882c.456 3.076-1.709 7.861-3.076 8.829-1.367.911-1.936-.057-2.848 1.196-.17.228-.284 1.595.399 2.45.911 3.474-2.449 7.29-4.272 7.632-2.449.456-5.924-5.297-7.006-9.113-.74-2.791-.228-4.215.911-4.215-.512-3.247.627-5.184 2.051-5.867 2.164-1.083 8.316.171 9.455.057 1.652-.171 4.272-1.823 4.386-.969z" fill="#17304F"/><path d="M27.853 173.443c7.804-1.481 38.22-7.974 39.815-7.405 1.595.57 2.677 1.197 2.279 3.874-.399 2.677-12.133 50.523-12.133 50.523h-4.898s.512-3.759.911-7.518c.399-3.76.342-18.911 1.082-21.759.74-2.848 2.165-8.373 2.165-8.373s-10.082 6.835-14.126 7.404c-4.101.57-14.354 3.19-17.487-4.955-2.734-6.778 1.31-11.62 2.392-11.791z" fill="#003093"/><path d="M32.24 174.525c-5.583 2.564-4.614 16.69 5.24 16.462 9.854-.228 27.113-9.342 27.113-9.342s.17 8.658 1.709 12.418c1.594 3.759 4.898 11.164 5.638 14.809.798 3.646 2.507 11.791 2.507 11.791l5.696-.57s-6.152-42.321-6.323-44.2c-.17-1.88-1.253-5.184-5.81-5.526-4.557-.341-22.043.969-22.043.969l-13.728 3.189z" fill="#004AE1"/><path d="M36.967 137.9l5.64 1.994c1.765.626 3.075 2.164 3.474 3.987.455 2.335 1.139 5.297 1.48 6.38.684 2.164-.91 5.866-1.537 9.683-.456 2.734-.285 9.227-.171 11.904.057 1.026-5.468 2.848-8.772 3.304-4.101.57-10.652-.399-10.652-.399s1.652-9.968 1.31-13.271c-.341-3.304-3.19-10.88-4.1-12.873-.912-1.994-1.083-6.38-1.083-6.38l6.95-4.272h7.461v-.057z" fill="#1C8AFB"/><path d="M20.677 143.824c-3.247 5.867 8.316 22.214 8.316 22.67 0 .456 2.962-.74 2.962-.74l-2.507-17.487-6.949-6.095-1.822 1.652z" fill="#1C8AFB"/><path d="M36.967 127.363h-7.576V137.9h7.576v-10.537z" fill="#CDD7E3"/><path d="M41.125 119.388c-.17 6.437.855 9.854-2.278 12.531-3.133 2.677-5.64.684-5.64.684v-12.816l7.918-.399z" fill="#CDD7E3"/><path d="M35.03 155.843H7.349v.569H35.03v-.569zm-24.663 70.516l-.57-.171 9.057-34.859.114-.399h39.188v.57H19.424l-9.057 34.859z" fill="#17304F"/><path d="M10.5 156.236l-.552.143 8.39 32.424.552-.143-8.39-32.424zm42.359 64.028l-3.076 6.437h10.709l-2.677-6.437h-4.956zm21.701.342c-.797.171-1.594 6.266-1.594 6.266h17.202l-9.911-6.892-5.696.626zm-1.88-56.39H46.423l7.405-17.829a3.153 3.153 0 0 1 2.905-1.936H77.75c1.481 0 2.507 1.538 1.937 2.905l-7.006 16.86z" fill="#17304F"/><path d="M74.56 152.824l-.512-.228 1.937-4.614c.114-.342.114-.683-.114-.968-.171-.285-.513-.456-.855-.456H57.074c-.797 0-1.481.456-1.766 1.196l-.626-.228a2.564 2.564 0 0 1 2.335-1.537h17.942c.57 0 1.026.284 1.367.74.285.456.342 1.025.171 1.538l-1.936 4.557zm-1.86 26.177l-.562.093 6.358 38.438.562-.092-6.358-38.439z" fill="#fff"/><path d="M37.992 178.513c-.341 0-.74-.057-1.139-.114l.114-.57c3.02.456 5.127-.968 6.721-4.728l.513.228c-1.538 3.532-3.531 5.184-6.209 5.184z" fill="#17304F"/><path d="M65.675 160.57c.911.114 3.816.285 4.557.912.74.626 1.367 2.791 1.367 2.791h-5.411l-.513-3.703zm88.003 0c.912.114 3.817.285 4.557.912.741.626 1.367 2.791 1.367 2.791h-5.411l-.513-3.703z" fill="#CDD7E3"/><path d="M44.258 140.862c3.475 3.418 12.816 19.366 12.816 19.366l8.658.285s.968 2.051.968 3.133c0 1.082-6.151 5.354-10.082 4.842-3.93-.513-13.271-13.899-15.151-17.487-1.88-3.589.627-12.246 2.791-10.139z" fill="#1C8AFB"/><path d="M46.992 159.83s-.968-1.31-3.816-5.354c-2.791-3.988-3.76-9.456-2.221-12.418l.512.285c-1.253 2.392-.797 7.633 2.165 11.848 2.848 4.044 3.816 5.354 3.816 5.354l-.456.285zm-17.487-48.245c-5.525-.399-13.67 16.29-8.886 22.556 4.443 5.81 13.158 5.468 18.057 1.652 2.62-2.051-1.538-7.519-.968-11.506.455-3.19 3.303-4.5 3.303-4.5 1.766-6.095-5.012-10.822-11.506-8.202zm107.883 56.903c-3.988-2.45-6.665-9.513-7.064-18.968h.57c.399 9.228 2.962 16.12 6.778 18.512l-.284.456z" fill="#17304F"/><path d="M116.654 181.645c3.817.285 11.791 1.709 18.569-5.24l-18.569 5.24z" fill="#1C8AFB"/><path d="M109.306 166.665c-2.848-12.019-2.449-18.683-1.709-26.145l.57.057c-.797 7.405-1.139 14.012 1.652 25.917l-.513.171z" fill="#17304F"/><path d="M160.312 188.613l-11.463 30.742.534.199 11.463-30.742-.534-.199z" fill="#fff"/><path d="M96.49 226.245l-.512-.114 8.999-34.916.57.171-9.057 34.859z" fill="#17304F"/><path fill-rule="evenodd" clip-rule="evenodd" d="M273.066 158.485h-32.125v7.496h12.237v22.487h7.648v-22.487h12.24v-7.496zm-32.125 11.993h7.649v17.991h-7.649v-17.991zm32.123 0h-7.649v17.991h7.649v-17.991z" fill="#CDD7E3"/><g clip-path="url(#a)"><path d="M125.514 84.713v.469a.745.745 0 0 1-.632.737l-.115.426a.53.53 0 0 1-.512.394h-1.147a.531.531 0 0 1-.513-.394l-.112-.426a.748.748 0 0 1-.635-.74v-.47c0-.25.202-.452.453-.452h2.76a.457.457 0 0 1 .453.456zm2.125-6.326a3.935 3.935 0 0 1-1.111 2.746 3.626 3.626 0 0 0-.971 1.97.655.655 0 0 1-.648.552h-2.456a.648.648 0 0 1-.644-.549 3.667 3.667 0 0 0-.979-1.976 3.936 3.936 0 0 1-1.103-2.7 3.945 3.945 0 0 1 3.929-4 3.954 3.954 0 0 1 3.983 3.957zm-3.51-2.396a.446.446 0 0 0-.446-.447 2.859 2.859 0 0 0-2.856 2.856.446.446 0 1 0 .893 0c0-1.084.882-1.963 1.963-1.963a.444.444 0 0 0 .446-.446z" fill="#fff"/></g><g clip-path="url(#b)"><path d="M64.475 84.713v.469a.744.744 0 0 1-.63.737l-.117.426a.53.53 0 0 1-.512.394H62.07a.53.53 0 0 1-.512-.394l-.112-.426a.748.748 0 0 1-.635-.74v-.47c0-.25.202-.452.453-.452h2.76a.456.456 0 0 1 .452.456zm2.126-6.326a3.937 3.937 0 0 1-1.11 2.746 3.629 3.629 0 0 0-.973 1.97.654.654 0 0 1-.647.552h-2.456a.648.648 0 0 1-.645-.549 3.669 3.669 0 0 0-.978-1.976 3.94 3.94 0 0 1-1.104-2.7 3.946 3.946 0 0 1 3.93-4 3.954 3.954 0 0 1 3.983 3.957zm-3.51-2.396a.446.446 0 0 0-.447-.447A2.858 2.858 0 0 0 59.79 78.4a.446.446 0 0 0 .892 0c0-1.084.883-1.963 1.963-1.963a.444.444 0 0 0 .447-.446z" fill="#fff"/></g><defs><clipPath id="a"><path fill="#fff" transform="translate(117.793 73.888)" d="M0 0h11.779v12.85H0z"/></clipPath><clipPath id="b"><path fill="#fff" transform="translate(56.755 73.888)" d="M0 0h11.779v12.85H0z"/></clipPath></defs></svg>