<svg width="356" height="268" viewBox="0 0 356 268" fill="none" xmlns="http://www.w3.org/2000/svg"><path d="M97.516 239.631h-.57V46.593h117.395v.57H97.516v192.468zm162.45-17.715h-87.605v-.569h87.035V82.592h.57v139.324z" fill="#17304F"/><path d="M248.574 82.592h-.57v44.771h.57V82.592zm-139.438-2.677h-.57V57.473h105.775v.57H109.136v21.872z" fill="#17304F"/><path d="M330.767 221.631v-26.657c0-4.101-2.222-7.917-5.753-9.968l-30.929-17.828c-3.589-2.051-7.975-2.051-11.506 0l-30.93 17.828c-3.588 2.051-5.753 5.867-5.753 9.968v26.657h84.871z" fill="#D0DAE6"/><path d="M331.052 221.916h-85.44v-26.942c0-4.215 2.278-8.145 5.923-10.196l30.93-17.828a11.78 11.78 0 0 1 11.79 0l30.93 17.828c3.645 2.108 5.924 6.038 5.924 10.196v26.942h-.057zm-84.871-.569h84.301v-26.373c0-3.987-2.165-7.746-5.639-9.74l-30.929-17.829a11.277 11.277 0 0 0-11.221 0l-30.93 17.829a11.293 11.293 0 0 0-5.639 9.74v26.373h.057z" fill="#16304F"/><path d="M318.577 221.347v-19.025a8.226 8.226 0 0 0-4.101-7.12L292.433 182.5c-2.564-1.481-5.696-1.481-8.203 0l-22.043 12.702a8.157 8.157 0 0 0-4.101 7.12v19.025h60.491z" fill="#fff"/><path d="M347.114 221.631v-4.784c0-4.102-2.221-7.918-5.753-9.968l-12.303-7.12c-3.588-2.051-7.974-2.051-11.506 0l-12.303 7.12c-3.589 2.05-5.753 5.866-5.753 9.968v4.784h47.618z" fill="#17304F"/><path d="M347.399 221.916h-48.245v-5.069c0-4.215 2.278-8.146 5.924-10.196l12.303-7.12a11.783 11.783 0 0 1 11.791 0l12.303 7.12c3.646 2.107 5.924 6.038 5.924 10.196v5.069zm-47.675-.569h47.106v-4.5a11.29 11.29 0 0 0-5.639-9.74l-12.304-7.12a11.272 11.272 0 0 0-11.221 0l-12.303 7.12a11.289 11.289 0 0 0-5.639 9.74v4.5zm-127.078 18.796H14.411v-.569h157.665v-36.455h73.82v.57h-73.25v36.454z" fill="#17304F"/><path d="M218.442 239.574h-46.081v.569h46.081v-.569zm28.32-.223l-24.891.243.005.57 24.892-.243-.006-.57zm-.866-27.175h-73.535v.57h73.535v-.57z" fill="#17304F"/><path d="M217.53 89.598h81.966a6.102 6.102 0 0 0 6.095-6.095V35.771a6.102 6.102 0 0 0-6.095-6.095H217.53a6.101 6.101 0 0 0-6.094 6.095v47.732a6.101 6.101 0 0 0 6.094 6.095z" fill="#D4E9FF"/><path d="M299.496 89.883H217.53a6.369 6.369 0 0 1-6.379-6.38V35.771a6.369 6.369 0 0 1 6.379-6.38h81.966a6.369 6.369 0 0 1 6.379 6.38v47.732c.057 3.532-2.848 6.38-6.379 6.38zM217.53 29.96c-3.189 0-5.81 2.62-5.81 5.81v47.732c0 3.19 2.621 5.81 5.81 5.81h81.966c3.19 0 5.81-2.62 5.81-5.81V35.771c0-3.19-2.62-5.81-5.81-5.81H217.53z" fill="#16304F"/><path d="M311.059 74.447h-.57V31.499a5.348 5.348 0 0 0-5.354-5.354h-3.703v-.57h3.703c3.246 0 5.924 2.677 5.924 5.924v42.948zm-5.924 11.677v-.57a5.348 5.348 0 0 0 5.354-5.354h.57c0 3.246-2.678 5.924-5.924 5.924z" fill="#17304F"/><path d="M211.407 78.538h94.212V67.772h-94.212v10.766zm10.452-29.666h14.924a2.285 2.285 0 0 0 2.278-2.279V40.84a2.285 2.285 0 0 0-2.278-2.278h-14.924a2.285 2.285 0 0 0-2.278 2.278v5.753a2.285 2.285 0 0 0 2.278 2.279z" fill="#fff"/><path d="M297.445 25.575h-13.101v.57h13.101v-.57zM270.902 148.95v-7.917a4.327 4.327 0 0 0-2.165-3.759l-6.892-3.988c-1.31-.797-2.962-.797-4.329 0l-6.892 3.988c-1.31.797-2.165 2.221-2.165 3.759v7.917a4.33 4.33 0 0 0 2.165 3.76l6.892 3.987c1.31.797 2.962.797 4.329 0l6.892-3.987c1.31-.798 2.165-2.222 2.165-3.76zm-22.328 15.835h-.57v23.126h.57v-23.126z" fill="#17304F"/><path d="M69.434 213.885l14.183-39.644h-7.69S74.334 187 72.625 189.449s-9.284-1.31-15.721 4.158c-6.38 5.468-.797 13.955-7.633 16.689-6.835 2.735-14.069-2.734-16.176 8.374h29.562c3.019.057 5.753-1.88 6.778-4.785z" fill="#CED8E4"/><path d="M73.023 61.346h-.57v4.899h.57v-4.9zm0 8.714h-.57v4.9h.57v-4.9zm-2.165-2.22H65.96v.57h4.898v-.57zm8.715 0h-4.898v.57h4.898v-.57zm209.043 39.53h-.569v4.898h.569v-4.898zm0 8.714h-.569v4.899h.569v-4.899zm-2.221-2.221h-4.899v.57h4.899v-.57zm8.715 0h-4.899v.57h4.899v-.57zm28.48 123.318h-.57v4.899h.57v-4.899zm0 8.715h-.57v4.899h.57v-4.899zm-2.222-2.221h-4.898v.569h4.898v-.569zm8.715 0h-4.898v.569h4.898v-.569z" fill="#17304F"/><path d="M62.998 239.745a6.038 6.038 0 1 0 0-12.075 6.038 6.038 0 0 0 0 12.075zm-35.885 0a6.038 6.038 0 1 0 0-12.075 6.038 6.038 0 0 0 0 12.075z" fill="#15304F"/><path d="M83.902 173.956H5.981v.569h77.921v-.569zm-3.987 11.107H10.253v.57h69.662v-.57zM75.87 196.17H14.298v.57h61.574v-.57zm-4.044 11.164H18.341v.57h53.485v-.57z" fill="#17304F"/><path d="M62.656 219.011H27.512c-3.133 0-5.981-1.993-7.063-4.898L5.696 174.355l.513-.171 14.695 39.701c1.026 2.734 3.646 4.557 6.55 4.557h35.202c2.905 0 5.582-1.88 6.55-4.614l19.196-53.599h12.588v.569H88.8l-19.024 53.201c-1.14 2.962-3.987 5.012-7.12 5.012zm127.932-65.789a7.518 7.518 0 1 0 0-15.037 7.52 7.52 0 0 0 0 15.037zM79.06 122.692H66.301a3.245 3.245 0 0 1-3.246-3.247v-12.759a3.245 3.245 0 0 1 3.246-3.247h12.76a3.245 3.245 0 0 1 3.246 3.247v12.759c.057 1.766-1.424 3.247-3.247 3.247zm-12.759-18.74a2.674 2.674 0 0 0-2.677 2.677v12.759a2.674 2.674 0 0 0 2.677 2.677h12.76a2.674 2.674 0 0 0 2.677-2.677v-12.759a2.674 2.674 0 0 0-2.678-2.677H66.301z" fill="#17304F"/><path d="M72.68 118.932a5.924 5.924 0 1 0 .002-11.847 5.924 5.924 0 0 0-.001 11.847z" fill="#2676BD"/><path d="M79.06 148.836H66.301a3.244 3.244 0 0 1-3.246-3.246v-12.759a3.245 3.245 0 0 1 3.246-3.247h12.76a3.245 3.245 0 0 1 3.246 3.247v12.759c.057 1.766-1.424 3.246-3.247 3.246zm-12.759-18.739a2.674 2.674 0 0 0-2.677 2.677v12.759a2.674 2.674 0 0 0 2.677 2.677h12.76a2.674 2.674 0 0 0 2.677-2.677v-12.759a2.674 2.674 0 0 0-2.678-2.677H66.301z" fill="#17304F"/><path d="M72.68 145.077a5.924 5.924 0 1 0 .001-11.848 5.924 5.924 0 0 0 0 11.848z" fill="#2676BD"/><path d="M75.529 140.008c-.57-.57-1.994-.741-1.994-1.253 0-.285.4-.912.4-1.538 0-.912-.627-1.481-1.254-1.481-.683 0-1.253.569-1.253 1.481 0 .626.399 1.253.399 1.538 0 .512-1.367.683-1.937 1.253-.399.399-.456 1.424-.456 1.424h6.608c-.057 0-.057-.968-.513-1.424z" fill="#17304F"/><path d="M238.492 235.359l-12.247-37.48c-.399-1.253-1.253-2.278-2.449-2.791l-21.474-10.139-9 1.652 1.253 5.126 24.037 13.386s.001 4.614 3.247 10.196c2.905 5.012 10.88 20.392 10.88 20.392l5.753-.342z" fill="#003093"/><path d="M219.182 193.094c3.873 1.253 3.019 5.924 1.481 9-1.025 2.051-8.544 14.354-13.386 25.518-2.05 4.671-2.904 8.373-2.904 8.373l-6.095-.911s5.183-21.987 7.234-25.347c1.082-1.823 4.272-6.38 4.272-6.38l-20.278-.285s-3.361.285-5.354-2.278c-2.279-2.962-.285-11.335-.285-11.335l11.677-.513c-.057 0 17.259 2.108 23.638 4.158z" fill="#004AE1"/><path d="M218.271 207.448l-.456-.284s1.139-1.823 3.076-6.551c1.025-2.563.911-4.5-.456-5.924l.399-.398c1.538 1.594 1.709 3.759.57 6.55-1.994 4.728-3.076 6.493-3.133 6.607z" fill="#fff"/><path d="M201.41 132.774c.969.171 2.905 1.025 2.905 2.905 0 2.449-1.594 3.645-1.594 3.645l-2.279-2.905.968-3.645zm29.962 106.857l.911-4.785s2.335.855 3.759.57c1.424-.228 2.336-.57 2.336-.57l8.373 4.785h-15.379z" fill="#17304F"/><path d="M195.942 152.881c3.247 3.303 8.203 9.569 9.228 10.879 1.025 1.31-.741 5.354-1.367 7.006-.57 1.652-.684 14.183-.684 14.183s-5.183 4.443-8.316 4.443c-3.645 0-11.05.057-11.05.057s2.392-12.702 2.221-15.778c-.227-3.076-2.107-8.943-2.278-10.993-.171-2.051 4.5-10.766 4.5-10.766l7.746.969z" fill="#1C8AFB"/><path d="M186.43 151.855c-.456 0-.854.057-1.253.228-3.19 1.253-3.93 1.994-5.981 6.608-2.164 4.898-4.158 17.031-4.5 19.48-.285 2.449 2.62 5.297 4.329 4.386 1.709-.855 4.671-4.956 4.443-6.095-.228-1.139 2.278-11.905 2.278-11.905l2.45-12.759h-1.766v.057zm9.512 1.026c2.165.455 6.722 1.253 8.146 2.962.968 1.139 11.677 13.727 11.847 14.809.228 1.253-8.885 4.443-8.885 4.443l-11.108-22.214z" fill="#1C8AFB"/><path d="M184.095 173.044l-.57-.17c0-.057 2.279-7.918 2.677-13.557l.57.057c-.399 5.696-2.677 13.557-2.677 13.67zm10.765-16.518h-.114c-.968 0-4.671-.797-5.411-4.386l.57-.114c.626 3.19 4.044 3.931 4.841 3.931 2.051 0 3.589-1.197 4.101-2.45l.513.228c-.513 1.367-2.278 2.791-4.5 2.791z" fill="#17304F"/><path d="M194.12 140.52l-3.19 11.848s1.367 1.994 3.304 2.107c2.335.171 2.905-1.253 2.905-1.253l2.278-8.601-5.297-4.101z" fill="#C6D0DC"/><path d="M198.335 149.292s-2.222-1.139-3.247-2.905c-.626-1.025-.911-3.873-.911-3.873l2.107-.342 3.076 3.589-1.025 3.531z" fill="#17304F"/><path d="M194.575 137.957c-.341 3.589.57 9.171 4.159 9.456 3.531.284 4.272-7.975 3.759-10.538-.57-3.076-7.576-2.734-7.918 1.082z" fill="#C6D0DC"/><path d="M193.835 138.128c-1.424.114-.911 2.734-.456 3.589.456.854 1.424 1.31 1.937.512.456-.854-.228-4.215-1.481-4.101zm3.019 34.29c-.57.399-1.082.74-1.652.968-.911.399-11.905 2.62-14.525 3.475-2.62.854-5.069.626-5.639 3.304-.513 2.392 1.766 4.499 6.551 3.588 4.784-.968 13.556-7.177 14.923-7.405.228-.057.627-.228.911-.285-.227-1.253-.512-2.392-.569-3.645z" fill="#C6D0DC"/><path d="M195.43 184.152h21.872c.627 0 1.254-.399 1.424-1.026l4.443-13.271a.672.672 0 0 0-.626-.912h-22.101c-.968 0-1.822.627-2.107 1.538l-4.044 12.076c-.285.74.284 1.595 1.139 1.595z" fill="#17304F"/><path d="M198.677 175.722c-.855.285-2.791.683-2.791.683-.627.342-1.254.456-2.165 1.026-.456-1.14-.683-1.937-1.025-3.076 0 0-.171-.342 0-.057a24.161 24.161 0 0 0 2.449-.912c.798-.854 2.051-1.993 2.905-2.449 1.082-.512 4.044-1.481 4.386-1.253.342.228.171.513.057.57-.114.114-2.449.968-2.677 1.196-.228.228-.342.399-.171.399s3.247-1.368 3.531-1.424c.342-.057.684.74.456 1.025-.285.285-.797.797-.683.797.114 0 0 .627-.741 1.196-.74.684-2.734 1.937-3.531 2.279zm15.208-.057c.342-.057 3.645.113 3.816 0 .171-.114 0-.228-.285-.342-.284-.114-2.791-.114-2.962-.171-.113-.057-.398-.228-.113-.57.227-.341 3.36-.512 4.556-.398.969.057 2.45.626 3.532 1.139 0 .057 0 .114.057.171a.72.72 0 0 1 .057.341c-.057.456-.171.912-.228 1.31-.114.798-.797 1.481-1.595 1.538-.228 0-.456.057-.626.057-.855.057-3.19-.455-4.102-.683-.911-.228-1.253-.798-1.139-.855.114 0-.569-.341-.911-.512-.342-.171-.399-.968-.057-1.025z" fill="#C6D0DC"/><path d="M201.467 132.375c0 2.734-1.082 6.323-5.354 7.747-4.272 1.424-6.664-1.652-6.664-1.652s.854-7.063 5.81-8.316c4.955-1.253 6.208 2.221 6.208 2.221zm-4.044 107.256l.912-4.785s2.335.855 3.759.57c1.424-.228 2.335-.57 2.335-.57l8.374 4.785h-15.38zm7.975-68.295l-.57-.114s.57-2.336.798-3.873c.171-1.424.171-2.962-2.051-5.07l.399-.399c2.449 2.336 2.449 4.101 2.278 5.582-.228 1.481-.854 3.76-.854 3.874z" fill="#17304F"/><path d="M226.469 202.365l-.542.174 9.648 29.984.542-.174-9.648-29.984z" fill="#2676BD"/><path d="M186.544 193.892l-.057-.57c1.253-.171 3.987-1.651 4.671-4.329l.569.114c-.74 2.734-3.531 4.557-5.183 4.785z" fill="#fff"/><path d="M123.034 111.3a7.803 7.803 0 0 0 7.803-7.804 7.804 7.804 0 1 0-7.803 7.804z" fill="#17304F"/><path d="M122.863 113.35a5.069 5.069 0 1 0 0-10.138 5.069 5.069 0 0 0 0 10.138z" fill="#17304F"/><path d="M102.414 143.938c-1.253 2.734-8.202 10.253-9.341 11.563-1.082 1.253-1.994 2.221-3.532 2.62-1.253.342-2.335 2.221-2.962 2.962-.626.74-1.936 1.253-1.765 1.595.17.342 1.082.683 2.164-.285s3.247-1.766 3.873-1.823c.684-.057 2.279.171 3.19-.228.912-.398 2.335-1.424 4.5-3.018 5.981-4.5 10.481-10.082 10.481-10.082l-6.608-3.304z" fill="#C6D0DC"/><path d="M109.591 126.565c-1.424 5.867-5.81 14.696-7.177 17.487 4.842 3.531 6.778 2.449 6.778 2.449s1.595-2.449 2.62-5.81c1.254-4.386 3.532-17.999 3.532-17.999l-.968.057c-2.279.114-4.272 1.652-4.785 3.816z" fill="#1C8AFB"/><path d="M105.661 150.488l-.399-.455c3.589-3.076 5.867-7.063 6.608-11.449l.569.114c-.797 4.556-3.133 8.601-6.778 11.79zm9.968-50.01c-1.139.227-3.247 1.139-3.247 3.246 0 2.734 1.766 4.101 1.766 4.101l2.506-3.246-1.025-4.101z" fill="#17304F"/><path d="M112.097 151.4c-.569.227-3.816 19.423-1.139 40.726.911 7.405 2.449 46.536 2.449 46.536h5.696s2.734-23.353 2.45-27.113c-.342-3.759-2.45-12.303-2.45-12.303l7.633-46.878-14.639-.968z" fill="#004AE1"/><path d="M127.989 153.222c11.734 13.101 7.291 30.189 8.601 41.866 2.279 6.55 3.76 8.259 4.842 18.968.74 7.405 1.766 24.663 1.766 24.663l-5.298-.512-17.942-72.282s-3.019-1.424-4.443-5.981c-1.196-3.76-.968-7.861-.968-7.861l13.442 1.139z" fill="#004AE1"/><path d="M123.717 110.73v13.101h-6.778v-10.31l6.778-2.791z" fill="#C6D0DC"/><path d="M145.476 239.745c-.855-2.563-1.709-4.386-5.013-4.386-3.303 0-3.873 4.386-3.873 4.386h8.886zm-24.949 0l-.968-5.013s-2.449.855-3.873.627c-1.481-.228-2.45-.627-2.45-.627l-8.771 5.013h16.062z" fill="#17304F"/><path d="M134.881 152.083c-2.05-3.303-2.278-6.265-2.278-6.265l5.81-1.709c.228 1.082.854 3.417.854 3.417 1.481 3.418 4.842 15.892 5.355 19.31 0 0 1.424 2.051 1.879 3.019.513.968 1.196 3.873 1.367 5.012.171 1.139-.284 1.823-.341 1.766-.057-.114-.057.797-.114 1.31 0 .513-1.026.855-1.253.513-.228-.342-1.766-4.215-1.994-4.329-.171-.114-.228.114-.171.512.057.399 1.367 3.247 1.367 3.418 0 .171-.057.57-.57.456-.512-.114-2.335-3.532-2.848-4.956-.398-1.139-.569-3.303-.512-4.727-.912-2.165-5.127-9.513-5.582-12.646-.228-1.139-.684-2.962-.969-4.101z" fill="#C6D0DC"/><path d="M133.229 160.627c-1.651 0-3.588-.455-5.354-1.31l.228-.512c2.108 1.025 4.386 1.424 6.095 1.196l.057.569c-.285 0-.684.057-1.026.057zm-2.428 38.127l-.554.132 8.274 34.801.554-.131-8.274-34.802z" fill="#fff"/><path d="M114.547 122.749l13.613.512c2.962.171 5.069 2.108 5.81 4.443l5.753 19.538s-1.709 1.594-3.532 1.936c-1.822.342-3.531 0-3.531 0s-2.222-6.835-3.646-11.506c-.569 2.677-.968 4.899-1.025 6.152-.171 3.304 0 9.341 0 9.341s-4.898.741-10.424 0c-3.645-.512-5.468-1.765-5.468-1.765s.342-5.981 0-8.658c-.341-2.677-2.107-6.949-2.107-8.772-.057-2.506 4.557-11.221 4.557-11.221z" fill="#1C8AFB"/><path d="M116.939 118.078s2.506.513 4.5-1.595c.911-.911 2.278-3.816 2.278-3.816v-1.823l-6.778 3.93v3.304z" fill="#17304F"/><path d="M123.261 107.541c0 3.873-1.594 9.74-5.582 9.74-3.987.057-3.93-8.886-3.189-11.563 1.025-3.247 8.771-2.335 8.771 1.823z" fill="#C6D0DC"/><path d="M115.629 100.478c0 2.734 1.082 6.322 5.354 7.746 4.272 1.424 6.664-1.652 6.664-1.652s-.854-7.063-5.809-8.316c-4.956-1.196-6.209 2.222-6.209 2.222zm-4.956 37.707c-.455-1.595-.968-3.247-.968-4.215 0-.911.513-2.734 1.538-5.411l.513.228c-1.253 3.246-1.481 4.613-1.481 5.24 0 .911.512 2.506.968 4.044l-.57.114zm17.579-4.177l-.547.157 1.036 3.614.548-.158-1.037-3.613zm-6.187 19.727c-2.335 0-4.671-.114-5.924-.455l.171-.57c2.336.683 9.228.456 11.62.228l.057.569c-1.139.114-3.531.228-5.924.228zm23.696 15.379c-1.082-1.253-2.279-5.753-2.791-8.373l.569-.114c.513 2.677 1.709 7.006 2.677 8.145l-.455.342z" fill="#17304F"/><path d="M124.458 107.996c1.481.513.228 3.076-.513 3.873-.683.798-1.823.969-2.107 0-.285-.968 1.367-4.329 2.62-3.873z" fill="#C6D0DC"/><path d="M113.755 213.025l-.568.032 1.12 19.904.569-.032-1.121-19.904z" fill="#fff"/><path d="M100.99 161.824H88.06l.456-1.311h12.474v1.311zm26.657-58.384a6.494 6.494 0 1 0 0-12.988 6.494 6.494 0 0 0 0 12.988zm-51.833 9.797h-6.209a.49.49 0 0 1-.456-.456.49.49 0 0 1 .456-.456h6.209a.49.49 0 0 1 .455.456.45.45 0 0 1-.455.456z" fill="#17304F"/><path d="M70.403 112.439c.113-.968.57-3.076 1.253-3.076.626 0 .683.456 1.196.456.456 0 .513-.798 1.025-.798.969 0 1.253 3.475 1.253 3.475h-4.727v-.057zm3.759 1.709c-.399 0-.797.171-1.14.342a.517.517 0 0 1-.569 0c-.342-.171-.683-.342-1.14-.342-.683 0-1.31.456-1.65.74a.267.267 0 0 0 0 .456c.34.285.967.741 1.65.741.4 0 .798-.171 1.14-.342a.517.517 0 0 1 .57 0c.342.171.683.342 1.139.342.683 0 1.31-.456 1.652-.741a.267.267 0 0 0 0-.456c-.342-.284-.912-.74-1.652-.74zm-2.791 1.424c-.285 0-.57-.171-.74-.285a.16.16 0 0 1 0-.285c.17-.114.398-.284.74-.284.342 0 .57.17.74.284.114.057.114.228 0 .285-.17.114-.455.285-.74.285zm2.79 0c-.284 0-.569-.171-.74-.285-.114-.057-.114-.228 0-.285.171-.114.4-.284.74-.284.343 0 .57.17.741.284.114.057.114.228 0 .285-.17.114-.455.285-.74.285z" fill="#17304F"/><path fill-rule="evenodd" clip-rule="evenodd" d="M183.115 72.818h-21.417v4.997h8.158v14.991h5.099V77.815h8.16v-4.997zm-21.417 7.995h5.099v11.993h-5.099V80.813zm21.415 0h-5.099v11.993h5.099V80.813z" fill="#D0DAE6"/></svg>