<svg width="21" height="21" viewBox="0 0 21 21" fill="none" xmlns="http://www.w3.org/2000/svg"><g clip-path="url(#a)" fill="#F47805"><path d="M.066 1.926l1.401 2.451a.35.35 0 0 0 .219.166l1.306.327 4.482 4.48.495-.495-4.552-4.551a.35.35 0 0 0-.162-.092l-1.256-.315L.807 1.81 1.829.787l2.09 1.194.314 1.255a.35.35 0 0 0 .092.163l4.552 4.552.495-.495L4.89 2.974l-.326-1.306a.35.35 0 0 0-.166-.219L1.947.05a.35.35 0 0 0-.42.056l-1.4 1.4a.35.35 0 0 0-.06.421zM14.623 6.9L6.92 14.603l-.495-.495 7.703-7.703.495.495zm-9.051 7.975a.35.35 0 0 0-.3-.17h-2.1a.35.35 0 0 0-.3.17l-1.051 1.75a.35.35 0 0 0 0 .361l1.05 1.751a.35.35 0 0 0 .3.17h2.101a.35.35 0 0 0 .3-.17l1.05-1.75a.35.35 0 0 0 0-.361l-1.05-1.75zm-.498 3.332H3.37l-.84-1.4.84-1.401h1.704l.84 1.4-.84 1.4z"/><path d="M16.826 8.403a4.187 4.187 0 0 0 4.072-5.216.35.35 0 0 0-.587-.163l-2.18 2.178-1.728-.577-.577-1.728 2.18-2.18a.35.35 0 0 0-.165-.588 4.188 4.188 0 0 0-5.131 4.893L5.042 12.69a4.133 4.133 0 0 0-.82-.085 4.201 4.201 0 1 0 4.201 4.201c0-.275-.03-.55-.085-.82l1.836-1.836.802.803a.35.35 0 0 0 .495 0l.175-.175a.392.392 0 1 1 .556.555l-.175.175a.35.35 0 0 0 0 .495l4.176 4.177a2.826 2.826 0 1 0 3.997-3.996l-4.177-4.177a.35.35 0 0 0-.495 0l-.175.175a.392.392 0 1 1-.556-.554v-.001l.176-.175a.35.35 0 0 0 0-.495l-.803-.803 1.836-1.836c.27.056.544.085.82.085zM18.2 20.307c-.254 0-.506-.046-.744-.135l2.734-2.735a2.123 2.123 0 0 1-1.99 2.87zm-3.966-9.1a1.093 1.093 0 0 0 1.54 1.54l3.93 3.932c.042.043.082.088.12.133l-2.993 2.994a2.062 2.062 0 0 1-.134-.121l-3.932-3.933a1.093 1.093 0 0 0-1.54-1.538l-.56-.56 3.009-3.005.56.559zm1.414-3.52l-7.943 7.94a.35.35 0 0 0-.092.333 3.524 3.524 0 1 1-2.546-2.546c.12.03.245-.006.333-.092l7.94-7.941a.35.35 0 0 0 .092-.333A3.485 3.485 0 0 1 17.025.707l-1.847 1.847a.35.35 0 0 0-.085.358l.7 2.101a.35.35 0 0 0 .222.221l2.1.7a.35.35 0 0 0 .359-.084l1.847-1.847a3.483 3.483 0 0 1-4.341 3.591.35.35 0 0 0-.333.092h.002z"/><path d="M18.124 17.609l-.495.495-3.501-3.5.495-.496 3.501 3.501z"/></g><defs><clipPath id="a"><path fill="#fff" d="M0 0h21v21H0z"/></clipPath></defs></svg>