<svg width="27" height="27" viewBox="0 0 27 27" fill="none" xmlns="http://www.w3.org/2000/svg"><path d="M21.858 9.942h-1.7l.513-5.88V4.03l.001-.003a.396.396 0 0 0-.239-.363l-.003-.002a.38.38 0 0 0-.027-.01c-.004 0-.007-.002-.01-.003l-.023-.006-.016-.004-.02-.003c-.007 0-.013-.002-.02-.003h-.023l-.015-.001h-8.094a.396.396 0 0 0 0 .79h7.663l-.787 9.038v.002l-.199 2.28H5.116l.23-2.373h2.617a.395.395 0 1 0 0-.79h-2.54l.485-5.01h4.165a.395.395 0 1 0 0-.791H5.985l.228-2.355H10.6a.396.396 0 0 0 0-.791H5.854a.396.396 0 0 0-.386.312l-.001.004a.432.432 0 0 0-.005.03l-.001.01v.001l-.27 2.789H.395a.395.395 0 1 0 0 .79h4.717l-.485 5.01h-1.41a.395.395 0 1 0 0 .791H4.55l-.264 2.728v.001l-.409 4.218v.019l-.002.022c0 .011 0 .021.002.031v.01l.005.03.001.009.006.022.004.016.002.004a.385.385 0 0 0 .094.155l.002.002.013.012a.392.392 0 0 0 .092.063l.02.01.008.003c.01.004.02.008.03.01l.003.001a.389.389 0 0 0 .035.01h.005a.42.42 0 0 0 .074.007h1.761a3.015 3.015 0 0 0 2.985 2.616 3.015 3.015 0 0 0 2.984-2.616h6.344a3.015 3.015 0 0 0 2.985 2.616 3.016 3.016 0 0 0 2.985-2.616h1.762c.013 0 .026 0 .039-.002h.006a.433.433 0 0 0 .031-.005l.013-.003a.358.358 0 0 0 .023-.006l.015-.005a.45.45 0 0 0 .02-.007l.015-.007a.551.551 0 0 0 .064-.037l.016-.011.013-.01a.355.355 0 0 0 .016-.015l.01-.01.016-.018.009-.01a.482.482 0 0 0 .016-.022l.006-.007a.373.373 0 0 0 .018-.03v-.002a.376.376 0 0 0 .017-.034l.004-.01.009-.025.005-.016.005-.02.003-.018c0-.006.002-.01.003-.016.016-.134.326-2.62.464-4.226v-.005c.04-.463.066-.853.066-1.092a5.147 5.147 0 0 0-5.142-5.141zm-1.768.79h1.618l-.207 2.374h-1.618l.207-2.373zM9.018 22.578a2.223 2.223 0 0 1-2.22-2.22c0-1.224.996-2.22 2.22-2.22 1.224 0 2.22.995 2.22 2.22 0 1.224-.996 2.22-2.22 2.22zm12.313 0a2.223 2.223 0 0 1-2.22-2.22c0-1.224.996-2.22 2.22-2.22 1.224 0 2.22.995 2.22 2.22 0 1.224-.996 2.22-2.22 2.22zm4.396-2.616h-1.411a3.015 3.015 0 0 0-2.985-2.616 3.015 3.015 0 0 0-2.985 2.616h-6.343a3.015 3.015 0 0 0-2.985-2.616 3.015 3.015 0 0 0-2.985 2.616H4.707l.333-3.428h14.182c.014 0 .027 0 .04-.002h.007a.445.445 0 0 0 .03-.005l.014-.004.023-.006.016-.005.02-.007.015-.008a.465.465 0 0 0 .065-.037.34.34 0 0 0 .015-.011l.014-.012a.372.372 0 0 0 .014-.013l.012-.012a.501.501 0 0 0 .065-.09l.01-.019a.36.36 0 0 0 .006-.015l.007-.02.006-.016.005-.019.004-.019.003-.019.003-.02v-.002l.198-2.276h2.044c1.212 0 1.759.628 2.337 1.293.478.549 1.01 1.16 1.916 1.31a146.98 146.98 0 0 1-.384 3.462zm.452-4.255c-.588-.12-.95-.533-1.387-1.036-.548-.63-1.217-1.397-2.5-1.54l.205-2.35a4.357 4.357 0 0 1 3.712 4.303c0 .149-.011.364-.03.623z" fill="#F47805"/><path d="M9.018 18.907a1.451 1.451 0 0 0 0 2.9 1.451 1.451 0 0 0 0-2.9zm0 2.109a.66.66 0 1 1 .002-1.32.66.66 0 0 1-.002 1.32zm12.313-2.109a1.451 1.451 0 0 0 0 2.9 1.451 1.451 0 0 0 0-2.9zm0 2.109a.66.66 0 1 1 .002-1.32.66.66 0 0 1-.002 1.32zM3.744 9.942H1.811a.396.396 0 1 0 0 .79h1.933a.395.395 0 1 0 0-.79z" fill="#F47805"/></svg>