<svg width="23" height="23" viewBox="0 0 23 23" fill="none" xmlns="http://www.w3.org/2000/svg"><g clip-path="url(#a)" fill="#F47805"><path d="M10.063 20.125H3.354a.48.48 0 0 1-.479-.48V2.396a.48.48 0 0 1 .48-.478h12.457a.48.48 0 0 1 .48.479v7.667a.48.48 0 0 1-.959 0V2.875h-11.5v16.292h6.23a.48.48 0 0 1 0 .958z"/><path d="M8.146 2.875H5.27a.48.48 0 0 1-.48-.48v-.958A1.44 1.44 0 0 1 6.23 0h.959a1.44 1.44 0 0 1 1.437 1.438v.958a.48.48 0 0 1-.48.479zM5.75 1.917h1.917v-.48a.48.48 0 0 0-.48-.479H6.23a.48.48 0 0 0-.479.48v.479z"/><path d="M16.77 2.875H2.397a.48.48 0 0 1 0-.958H16.77a.48.48 0 0 1 0 .958zm-6.707 17.25H2.396a.48.48 0 0 1 0-.958h7.667a.48.48 0 0 1 0 .958zm3.833-8.625h-11.5a.48.48 0 0 1 0-.958h11.5a.48.48 0 0 1 0 .958zM16.77 23a4.318 4.318 0 0 1-4.312-4.313c0-2.549 3.793-6.845 3.954-7.026a.493.493 0 0 1 .716 0c.162.181 3.955 4.477 3.955 7.026A4.318 4.318 0 0 1 16.771 23zm0-10.286c-1.187 1.418-3.353 4.342-3.353 5.973a3.358 3.358 0 0 0 3.354 3.355 3.358 3.358 0 0 0 3.354-3.355c0-1.63-2.167-4.556-3.354-5.973z"/></g><defs><clipPath id="a"><path fill="#fff" d="M0 0h23v23H0z"/></clipPath></defs></svg>