<svg width="37" height="43" viewBox="0 0 37 43" fill="none" xmlns="http://www.w3.org/2000/svg"><path class="fire" d="M17.45.36s-.43 2.356 4.109 7.725c2.897 3.38 2.115 9.174-.068 13.085-.188-4.877-2.206-6.007-4.041-9.493-2.694-5.157 0-11.318 0-11.318zm-3.013 8.98s-.435 2.357 4.104 7.702c2.897 3.38 2.12 9.174-.063 13.085-.193-4.872-2.211-6.007-4.041-9.488-2.694-5.138 0-11.299 0-11.299z" fill="#FF4000"/><path d="M36.846 26.534v-4.828l-5.76-1.637a12.562 12.562 0 0 0-.609-1.516l-2.472 2.626a9.948 9.948 0 0 1-13.728 12.05 9.946 9.946 0 0 1-5.325-11.625l-2.51-2.684c-.155.35-.295.713-.421 1.086L0 21.725v4.828l5.871 1.449c.192.662.436 1.308.73 1.931l-3.154 5.674 3.405 3.38 5.282-3.202c.685.387 1.405.71 2.149.966l1.694 5.9h4.829l1.405-5.721a13.111 13.111 0 0 0 2.414-.966l4.968 3.023 3.38-3.38-2.795-5.109a12.86 12.86 0 0 0 1.052-2.583l5.616-1.38z" fill="#fff"/></svg>