<svg width="264" height="265" viewBox="0 0 264 265" fill="none" xmlns="http://www.w3.org/2000/svg"><path style="mix-blend-mode:color-dodge" d="M168.789 227.453c52.37-20.36 78.318-79.32 57.958-131.69-20.36-52.37-79.32-78.318-131.69-57.958-52.37 20.36-78.318 79.32-57.958 131.69 20.36 52.37 79.32 78.319 131.69 57.958z" fill="url(#a)"/><path d="M121.771 134.324s-.646.089-.739.366c-.094.276.088.646.364.74.277.093.646-.09.74-.366.094-.277-.089-.647-.365-.74z" fill="url(#b)" style="mix-blend-mode:hard-light"/><path d="M121.961 138.841s-.646.089-.74.366c-.094.276.089.646.365.74.276.094.646-.089.74-.366.093-.276-.089-.646-.365-.74z" fill="url(#c)" style="mix-blend-mode:hard-light"/><path d="M128.547 134.039s-.646.089-.74.366c-.093.276.089.646.365.74.276.093.646-.09.74-.366.094-.277-.089-.647-.365-.74z" fill="url(#d)" style="mix-blend-mode:hard-light"/><path d="M124.762 130.125s-.646.089-.739.366c-.094.276.088.646.365.74.276.093.646-.09.739-.366.094-.277-.089-.647-.365-.74z" fill="url(#e)" style="mix-blend-mode:hard-light"/><path d="M129.598 126.754s-.646.089-.739.365c-.094.277.089.647.365.741.276.093.646-.09.739-.366.094-.277-.088-.647-.365-.74z" fill="url(#f)" style="mix-blend-mode:hard-light"/><path d="M132.917 129.764s-.446.062-.51.253c-.065.19.061.446.251.51.191.065.446-.062.51-.252a.433.433 0 0 0-.251-.511z" fill="url(#g)" style="mix-blend-mode:hard-light"/><path d="M134.035 134.76s-.415.058-.476.236c-.06.177.057.415.235.476.178.06.415-.058.476-.236.06-.178-.057-.416-.235-.476z" fill="url(#h)" style="mix-blend-mode:hard-light"/><path d="M124.952 134.642s-.646.09-.739.366c-.094.277.088.647.364.74.277.094.646-.089.74-.366.094-.276-.089-.646-.365-.74z" fill="url(#i)" style="mix-blend-mode:hard-light"/><path d="M126.417 126.435s-.646.089-.739.366c-.094.276.089.646.365.74.276.093.646-.09.739-.366.094-.277-.089-.647-.365-.74z" fill="url(#j)" style="mix-blend-mode:hard-light"/><path d="M130.711 131.685s-.646.089-.74.366c-.093.276.089.646.365.74.276.094.646-.089.74-.366.093-.276-.089-.646-.365-.74z" fill="url(#k)" style="mix-blend-mode:hard-light"/><path d="M123.236 126.116s-.646.09-.739.366c-.094.277.088.647.365.74.276.094.646-.089.739-.366.094-.276-.089-.646-.365-.74z" fill="url(#l)" style="mix-blend-mode:hard-light"/><path d="M117.92 128.457s-.504.07-.577.285c-.073.216.069.505.285.578.215.073.504-.07.577-.285.073-.216-.069-.505-.285-.578z" fill="url(#m)" style="mix-blend-mode:hard-light"/><path d="M120.214 128.741s-.328.046-.376.186c-.047.141.045.329.186.377.14.047.328-.046.376-.187a.32.32 0 0 0-.186-.376z" fill="url(#n)" style="mix-blend-mode:hard-light"/><path d="M125.536 136.773s-.277.039-.318.158c-.04.118.039.278.157.318a.27.27 0 0 0 .318-.158c.041-.118-.038-.278-.157-.318z" fill="url(#o)" style="mix-blend-mode:hard-light"/><path d="M129.735 139.765s-.278.038-.318.157c-.04.119.038.278.157.318.119.04.278-.038.318-.157.04-.119-.038-.278-.157-.318z" fill="url(#p)" style="mix-blend-mode:hard-light"/><path d="M131.249 134.583s-.969.134-1.11.549c-.14.415-.005.923.548 1.11.552.187.922.004 1.109-.549.187-.553-.133-.97-.547-1.11z" fill="url(#q)" style="mix-blend-mode:hard-light"/><path d="M123.632 136.574s-1.033.143-1.183.585c-.15.443-.005.985.584 1.184.589.2.983.005 1.183-.585.2-.59-.142-1.035-.584-1.184z" fill="url(#r)" style="mix-blend-mode:hard-light"/><path d="M127.857 130.782s-1.536.213-1.759.87c-.222.658-.008 1.463.868 1.76.875.297 1.462.007 1.759-.87.297-.877-.211-1.538-.868-1.76z" fill="url(#s)" style="mix-blend-mode:hard-light"/><path d="M123.163 131.49s-.93.129-1.065.527c-.134.398-.004.886.526 1.066.53.179.885.004 1.065-.527.179-.531-.128-.931-.526-1.066z" fill="url(#t)" style="mix-blend-mode:hard-light"/><path d="M118.821 131.161s-1.536.213-1.758.871c-.223.657-.008 1.463.867 1.759.876.297 1.462.007 1.759-.87.297-.876-.211-1.537-.868-1.76z" fill="url(#u)" style="mix-blend-mode:hard-light"/><path d="M125.056 139.498s-1.536.213-1.759.87c-.223.658-.008 1.464.868 1.76.875.297 1.461.007 1.758-.87.297-.877-.211-1.537-.867-1.76z" fill="url(#v)" style="mix-blend-mode:hard-light"/><path d="M128.969 135.713s-1.536.213-1.758.87c-.223.658-.008 1.464.867 1.76.876.297 1.462.007 1.759-.87.297-.877-.211-1.537-.868-1.76z" fill="url(#w)" style="mix-blend-mode:hard-light"/><path d="M120.192 135.633s-.996.138-1.141.564c-.144.427-.005.949.563 1.141.567.193.948.005 1.14-.564.193-.568-.137-.997-.562-1.141z" fill="url(#x)" style="mix-blend-mode:hard-light"/><path d="M138.447 135.514s-.646.09-.739.366c-.094.277.088.647.365.74.276.094.646-.089.739-.365.094-.277-.089-.647-.365-.741z" fill="url(#y)" style="mix-blend-mode:hard-light"/><path d="M138.637 140.032s-.646.089-.74.366c-.093.276.089.646.365.74.276.093.646-.089.74-.366.094-.277-.089-.647-.365-.74z" fill="url(#z)" style="mix-blend-mode:hard-light"/><path d="M145.223 135.23s-.646.089-.739.365c-.094.277.088.647.365.741.276.093.645-.09.739-.366.094-.277-.089-.647-.365-.74z" fill="url(#A)" style="mix-blend-mode:hard-light"/><path d="M141.438 131.316s-.645.089-.739.366c-.094.276.089.646.365.74.276.093.646-.09.739-.366.094-.277-.088-.647-.365-.74z" fill="url(#B)" style="mix-blend-mode:hard-light"/><path d="M146.275 127.944s-.646.09-.74.366c-.094.277.089.647.365.741.276.093.646-.09.74-.366.093-.277-.089-.647-.365-.741z" fill="url(#C)" style="mix-blend-mode:hard-light"/><path d="M149.593 130.955s-.446.062-.51.253c-.065.19.061.445.251.51.191.064.446-.062.51-.252a.433.433 0 0 0-.251-.511z" fill="url(#D)" style="mix-blend-mode:hard-light"/><path d="M150.711 135.951s-.415.058-.476.236c-.06.177.058.415.235.476a.404.404 0 0 0 .476-.236c.06-.178-.057-.416-.235-.476z" fill="url(#E)" style="mix-blend-mode:hard-light"/><path d="M141.628 135.833s-.646.09-.739.366c-.094.277.088.647.365.74.276.094.645-.089.739-.366.094-.276-.089-.646-.365-.74z" fill="url(#F)" style="mix-blend-mode:hard-light"/><path d="M143.094 127.626s-.646.089-.74.366c-.094.276.089.646.365.74.276.093.646-.09.739-.366.094-.277-.088-.647-.364-.74z" fill="url(#G)" style="mix-blend-mode:hard-light"/><path d="M147.387 132.876s-.646.089-.74.366c-.093.276.089.646.365.74.276.093.646-.09.74-.366.094-.277-.089-.647-.365-.74z" fill="url(#H)" style="mix-blend-mode:hard-light"/><path d="M139.913 127.307s-.646.09-.74.366c-.094.277.089.647.365.74.276.094.646-.089.739-.366.094-.276-.088-.646-.364-.74z" fill="url(#I)" style="mix-blend-mode:hard-light"/><path d="M134.596 129.648s-.504.07-.577.285c-.073.216.069.505.285.578.215.073.504-.07.577-.286a.49.49 0 0 0-.285-.577z" fill="url(#J)" style="mix-blend-mode:hard-light"/><path d="M136.89 129.932s-.328.045-.376.186c-.047.141.046.329.186.376.14.048.328-.045.376-.186.048-.14-.045-.328-.186-.376z" fill="url(#K)" style="mix-blend-mode:hard-light"/><path d="M142.213 137.964s-.278.039-.318.158c-.041.118.038.278.157.318.118.04.277-.039.318-.158.04-.118-.039-.278-.157-.318z" fill="url(#L)" style="mix-blend-mode:hard-light"/><path d="M146.411 140.955s-.278.039-.318.158c-.04.119.038.278.157.318.119.04.278-.038.318-.157a.271.271 0 0 0-.157-.319z" fill="url(#M)" style="mix-blend-mode:hard-light"/><path d="M147.925 135.774s-.969.134-1.109.549c-.141.415-.005.923.547 1.11.552.187.922.004 1.109-.549.188-.553-.133-.97-.547-1.11z" fill="url(#N)" style="mix-blend-mode:hard-light"/><path d="M140.308 137.765s-1.033.143-1.183.585c-.15.442-.005.985.584 1.184.589.2.984.005 1.183-.585.2-.59-.142-1.035-.584-1.184z" fill="url(#O)" style="mix-blend-mode:hard-light"/><path d="M144.533 131.973s-1.536.212-1.759.87c-.222.657-.007 1.463.868 1.76.876.296 1.462.006 1.759-.87.297-.877-.211-1.538-.868-1.76z" fill="url(#P)" style="mix-blend-mode:hard-light"/><path d="M139.839 132.681s-.93.129-1.064.527c-.135.398-.005.886.525 1.066.53.179.885.004 1.065-.527.18-.531-.128-.931-.526-1.066z" fill="url(#Q)" style="mix-blend-mode:hard-light"/><path d="M135.498 132.352s-1.536.213-1.759.87c-.223.658-.008 1.464.868 1.76.875.297 1.461.007 1.758-.87.297-.876-.211-1.537-.867-1.76z" fill="url(#R)" style="mix-blend-mode:hard-light"/><path d="M141.732 140.689s-1.536.213-1.759.87c-.223.658-.008 1.463.868 1.76.875.297 1.462.007 1.759-.87.297-.877-.212-1.538-.868-1.76z" fill="url(#S)" style="mix-blend-mode:hard-light"/><path d="M145.646 136.904s-1.536.213-1.759.87c-.223.658-.008 1.464.867 1.76.876.297 1.462.007 1.759-.87.297-.877-.211-1.537-.867-1.76z" fill="url(#T)" style="mix-blend-mode:hard-light"/><path d="M136.868 136.824s-.996.138-1.14.564c-.145.426-.006.949.562 1.141.568.192.948.004 1.14-.564.193-.568-.137-.997-.562-1.141z" fill="url(#U)" style="mix-blend-mode:hard-light"/><path d="M130.109 125.985s-.646.09-.739.366c-.094.277.088.647.364.74.277.094.646-.089.74-.366.094-.276-.089-.646-.365-.74z" fill="url(#V)" style="mix-blend-mode:hard-light"/><path d="M130.299 130.503s-.646.089-.74.366c-.093.276.089.646.365.74.276.093.646-.09.74-.366.093-.277-.089-.647-.365-.74z" fill="url(#W)" style="mix-blend-mode:hard-light"/><path d="M136.885 125.7s-.646.09-.74.366c-.093.277.089.647.365.74.276.094.646-.089.74-.366.094-.276-.089-.646-.365-.74z" fill="url(#X)" style="mix-blend-mode:hard-light"/><path d="M133.1 121.787s-.646.089-.739.365c-.094.277.088.647.365.741.276.093.646-.09.739-.366.094-.277-.089-.647-.365-.74z" fill="url(#Y)" style="mix-blend-mode:hard-light"/><path d="M137.937 118.415s-.646.09-.74.366c-.094.277.089.647.365.74.276.094.646-.089.739-.366.094-.276-.088-.646-.364-.74z" fill="url(#Z)" style="mix-blend-mode:hard-light"/><path d="M141.255 121.426s-.446.062-.51.252a.433.433 0 0 0 .251.511c.191.064.446-.062.51-.253.065-.19-.061-.445-.251-.51z" fill="url(#aa)" style="mix-blend-mode:hard-light"/><path d="M142.373 126.422s-.415.058-.476.235c-.06.178.058.416.235.476.178.061.415-.057.476-.235.06-.178-.057-.416-.235-.476z" fill="url(#ab)" style="mix-blend-mode:hard-light"/><path d="M133.29 126.304s-.646.09-.739.366c-.094.277.088.647.364.74.277.094.646-.089.74-.366.094-.276-.089-.646-.365-.74z" fill="url(#ac)" style="mix-blend-mode:hard-light"/><path d="M134.755 118.097s-.646.089-.739.365c-.094.277.089.647.365.741.276.093.646-.09.739-.366.094-.277-.088-.647-.365-.74z" fill="url(#ad)" style="mix-blend-mode:hard-light"/><path d="M139.049 123.347s-.646.089-.74.365c-.093.277.089.647.365.741.276.093.646-.09.74-.366.093-.277-.089-.647-.365-.74z" fill="url(#ae)" style="mix-blend-mode:hard-light"/><path d="M131.574 117.778s-.646.089-.739.366c-.094.276.089.646.365.74.276.093.646-.09.739-.366.094-.277-.088-.647-.365-.74z" fill="url(#af)" style="mix-blend-mode:hard-light"/><path d="M126.258 120.119s-.504.069-.577.285c-.073.216.069.505.285.578.215.073.504-.07.577-.286a.489.489 0 0 0-.285-.577z" fill="url(#ag)" style="mix-blend-mode:hard-light"/><path d="M128.552 120.403s-.328.045-.376.186c-.047.141.046.329.186.376.14.048.328-.045.376-.186.048-.14-.045-.329-.186-.376z" fill="url(#ah)" style="mix-blend-mode:hard-light"/><path d="M133.875 128.435s-.278.039-.318.157c-.041.119.038.278.156.319a.27.27 0 0 0 .318-.158c.041-.119-.038-.278-.156-.318z" fill="url(#ai)" style="mix-blend-mode:hard-light"/><path d="M138.073 131.426s-.278.039-.318.158c-.04.119.038.278.157.318.119.04.278-.039.318-.157a.271.271 0 0 0-.157-.319z" fill="url(#aj)" style="mix-blend-mode:hard-light"/><path d="M139.587 126.245s-.969.134-1.11.549c-.14.415-.005.923.548 1.11.552.187.922.004 1.109-.549.188-.553-.133-.97-.547-1.11z" fill="url(#ak)" style="mix-blend-mode:hard-light"/><path d="M131.97 128.235s-1.033.143-1.183.586c-.15.442-.005.984.584 1.184.589.2.983.004 1.183-.585.2-.59-.142-1.035-.584-1.185z" fill="url(#al)" style="mix-blend-mode:hard-light"/><path d="M136.195 122.444s-1.536.212-1.759.87c-.222.657-.007 1.463.868 1.76.876.296 1.462.006 1.759-.87.297-.877-.211-1.538-.868-1.76z" fill="url(#am)" style="mix-blend-mode:hard-light"/><path d="M131.501 123.152s-.93.129-1.065.527c-.134.398-.004.886.526 1.065.53.18.885.004 1.065-.526.18-.531-.128-.931-.526-1.066z" fill="url(#an)" style="mix-blend-mode:hard-light"/><path d="M127.159 122.823s-1.536.213-1.758.87c-.223.658-.008 1.464.867 1.76.876.297 1.462.007 1.759-.87.297-.877-.211-1.537-.868-1.76z" fill="url(#ao)" style="mix-blend-mode:hard-light"/><path d="M133.394 131.16s-1.536.212-1.759.87c-.223.657-.008 1.463.868 1.76.875.296 1.461.006 1.758-.87.297-.877-.211-1.538-.867-1.76z" fill="url(#ap)" style="mix-blend-mode:hard-light"/><path d="M137.307 127.375s-1.536.213-1.758.87c-.223.658-.008 1.463.867 1.76.876.297 1.462.007 1.759-.87.297-.877-.211-1.538-.868-1.76z" fill="url(#aq)" style="mix-blend-mode:hard-light"/><path d="M128.53 127.295s-.996.138-1.141.564c-.144.426-.005.949.563 1.141.568.192.948.004 1.14-.564.193-.568-.137-.997-.562-1.141z" fill="url(#ar)" style="mix-blend-mode:hard-light"/><path d="M128.918 139.088s-.646.089-.739.366c-.094.276.088.647.364.74.277.094.646-.089.74-.366.094-.276-.089-.646-.365-.74z" fill="url(#as)" style="mix-blend-mode:hard-light"/><path d="M129.108 143.606s-.646.089-.74.365c-.094.277.089.647.365.741.276.093.646-.09.74-.366.093-.277-.089-.647-.365-.74z" fill="url(#at)" style="mix-blend-mode:hard-light"/><path d="M135.694 138.803s-.646.09-.74.366c-.093.277.089.647.365.74.276.094.646-.089.74-.366.094-.276-.089-.646-.365-.74z" fill="url(#au)" style="mix-blend-mode:hard-light"/><path d="M131.909 134.889s-.646.09-.739.366c-.094.277.088.647.365.74.276.094.645-.089.739-.366.094-.276-.089-.646-.365-.74z" fill="url(#av)" style="mix-blend-mode:hard-light"/><path d="M136.745 131.518s-.646.089-.739.366c-.094.277.089.647.365.74.276.094.646-.089.739-.366.094-.276-.088-.646-.365-.74z" fill="url(#aw)" style="mix-blend-mode:hard-light"/><path d="M140.064 134.529s-.446.061-.51.252a.433.433 0 0 0 .251.511c.191.064.446-.062.51-.253.065-.191-.061-.446-.251-.51z" fill="url(#ax)" style="mix-blend-mode:hard-light"/><path d="M141.182 139.525s-.416.057-.476.235.057.416.235.476c.177.06.415-.057.476-.235.06-.178-.058-.416-.235-.476z" fill="url(#ay)" style="mix-blend-mode:hard-light"/><path d="M132.099 139.407s-.646.089-.74.366c-.093.276.089.646.365.74.277.093.646-.089.74-.366.094-.277-.089-.647-.365-.74z" fill="url(#az)" style="mix-blend-mode:hard-light"/><path d="M133.564 131.199s-.646.09-.739.366c-.094.277.088.647.365.74.276.094.646-.089.739-.366.094-.276-.089-.646-.365-.74z" fill="url(#aA)" style="mix-blend-mode:hard-light"/><path d="M137.858 136.449s-.646.09-.74.366c-.093.277.089.647.365.741.276.093.646-.09.74-.366.093-.277-.089-.647-.365-.741z" fill="url(#aB)" style="mix-blend-mode:hard-light"/><path d="M130.383 130.881s-.646.089-.739.366c-.094.276.088.646.365.74.276.093.646-.09.739-.366.094-.277-.089-.647-.365-.74z" fill="url(#aC)" style="mix-blend-mode:hard-light"/><path d="M125.067 133.221s-.504.07-.577.286c-.073.216.069.505.285.578.215.073.504-.07.577-.286.073-.216-.069-.505-.285-.578z" fill="url(#aD)" style="mix-blend-mode:hard-light"/><path d="M127.361 133.506s-.328.045-.376.186a.32.32 0 0 0 .186.376c.14.048.328-.045.376-.186.047-.141-.045-.329-.186-.376z" fill="url(#aE)" style="mix-blend-mode:hard-light"/><path d="M132.683 141.538s-.277.038-.318.157c-.04.119.039.278.157.318.119.041.278-.038.318-.157.041-.119-.038-.278-.157-.318z" fill="url(#aF)" style="mix-blend-mode:hard-light"/><path d="M136.882 144.529s-.278.039-.318.157a.271.271 0 0 0 .157.319c.118.04.277-.039.318-.158.04-.119-.038-.278-.157-.318z" fill="url(#aG)" style="mix-blend-mode:hard-light"/><path d="M138.396 139.348s-.969.134-1.11.548c-.14.415-.005.923.548 1.111.552.187.922.004 1.109-.549.187-.553-.133-.97-.547-1.11z" fill="url(#aH)" style="mix-blend-mode:hard-light"/><path d="M130.779 141.338s-1.033.143-1.183.586c-.15.442-.005.984.584 1.184.589.2.983.004 1.183-.586.2-.589-.142-1.034-.584-1.184z" fill="url(#aI)" style="mix-blend-mode:hard-light"/><path d="M135.004 135.546s-1.536.213-1.759.871c-.222.657-.008 1.463.868 1.759.875.297 1.462.007 1.759-.87.297-.876-.211-1.537-.868-1.76z" fill="url(#aJ)" style="mix-blend-mode:hard-light"/><path d="M130.31 136.255s-.93.129-1.065.527c-.134.398-.004.886.526 1.065.53.18.885.004 1.065-.527.179-.53-.128-.93-.526-1.065z" fill="url(#aK)" style="mix-blend-mode:hard-light"/><path d="M125.968 135.926s-1.536.213-1.758.87c-.223.658-.008 1.463.867 1.76.876.297 1.462.007 1.759-.87.297-.877-.211-1.538-.868-1.76z" fill="url(#aL)" style="mix-blend-mode:hard-light"/><path d="M132.203 144.263s-1.536.212-1.759.87c-.223.657-.008 1.463.867 1.76.876.296 1.462.006 1.759-.87.297-.877-.211-1.538-.867-1.76z" fill="url(#aM)" style="mix-blend-mode:hard-light"/><path d="M136.116 140.478s-1.536.212-1.759.87c-.222.657-.007 1.463.868 1.76.876.296 1.462.006 1.759-.87.297-.877-.211-1.538-.868-1.76z" fill="url(#aN)" style="mix-blend-mode:hard-light"/><path d="M127.339 140.398s-.996.138-1.141.564c-.144.426-.005.948.563 1.141.567.192.948.004 1.14-.564.193-.569-.137-.997-.562-1.141z" fill="url(#aO)" style="mix-blend-mode:hard-light"/><defs><radialGradient id="a" cx="0" cy="0" r="1" gradientUnits="userSpaceOnUse" gradientTransform="rotate(158.755 53.524 78.686) scale(101.738)"><stop stop-color="#CAC1C1"/><stop offset=".219" stop-color="#868686"/><stop offset=".29" stop-color="#5E5E5E"/><stop offset=".31" stop-color="#4B4B4B"/><stop offset=".34" stop-color="#363636"/><stop offset=".37" stop-color="#292929"/><stop offset=".4" stop-color="#252525"/><stop offset=".42" stop-color="#222"/><stop offset=".61" stop-color="#0F0F0F"/><stop offset=".8" stop-color="#030303"/><stop offset="1"/></radialGradient><radialGradient id="b" cx="0" cy="0" r="1" gradientUnits="userSpaceOnUse" gradientTransform="matrix(.18735 -.55301 .55226 .1871 121.584 134.877)"><stop stop-color="#fff"/><stop offset=".495" stop-color="#F8E5D5" stop-opacity=".72"/><stop offset="1" stop-color="#fff" stop-opacity="0"/></radialGradient><radialGradient id="c" cx="0" cy="0" r="1" gradientUnits="userSpaceOnUse" gradientTransform="matrix(.18735 -.55301 .55226 .1871 121.773 139.394)"><stop stop-color="#fff"/><stop offset=".495" stop-color="#F8E5D5" stop-opacity=".72"/><stop offset="1" stop-color="#fff" stop-opacity="0"/></radialGradient><radialGradient id="d" cx="0" cy="0" r="1" gradientUnits="userSpaceOnUse" gradientTransform="matrix(.18735 -.55301 .55226 .1871 128.36 134.592)"><stop stop-color="#fff"/><stop offset=".495" stop-color="#F8E5D5" stop-opacity=".72"/><stop offset="1" stop-color="#fff" stop-opacity="0"/></radialGradient><radialGradient id="e" cx="0" cy="0" r="1" gradientUnits="userSpaceOnUse" gradientTransform="matrix(.18735 -.55301 .55226 .1871 124.575 130.678)"><stop stop-color="#fff"/><stop offset=".495" stop-color="#F8E5D5" stop-opacity=".72"/><stop offset="1" stop-color="#fff" stop-opacity="0"/></radialGradient><radialGradient id="f" cx="0" cy="0" r="1" gradientUnits="userSpaceOnUse" gradientTransform="matrix(.18735 -.55301 .55226 .1871 129.411 127.307)"><stop stop-color="#fff"/><stop offset=".495" stop-color="#F8E5D5" stop-opacity=".72"/><stop offset="1" stop-color="#fff" stop-opacity="0"/></radialGradient><radialGradient id="g" cx="0" cy="0" r="1" gradientUnits="userSpaceOnUse" gradientTransform="matrix(.1292 -.38136 .38085 .12903 132.787 130.146)"><stop stop-color="#fff"/><stop offset=".495" stop-color="#F8E5D5" stop-opacity=".72"/><stop offset="1" stop-color="#fff" stop-opacity="0"/></radialGradient><radialGradient id="h" cx="0" cy="0" r="1" gradientUnits="userSpaceOnUse" gradientTransform="rotate(-71.284 161.175 -25.822) scale(.37548 .37497)"><stop stop-color="#fff"/><stop offset=".495" stop-color="#F8E5D5" stop-opacity=".72"/><stop offset="1" stop-color="#fff" stop-opacity="0"/></radialGradient><radialGradient id="i" cx="0" cy="0" r="1" gradientUnits="userSpaceOnUse" gradientTransform="matrix(.18735 -.55301 .55226 .1871 124.765 135.195)"><stop stop-color="#fff"/><stop offset=".495" stop-color="#F8E5D5" stop-opacity=".72"/><stop offset="1" stop-color="#fff" stop-opacity="0"/></radialGradient><radialGradient id="j" cx="0" cy="0" r="1" gradientUnits="userSpaceOnUse" gradientTransform="matrix(.18735 -.55301 .55226 .1871 126.23 126.988)"><stop stop-color="#fff"/><stop offset=".495" stop-color="#F8E5D5" stop-opacity=".72"/><stop offset="1" stop-color="#fff" stop-opacity="0"/></radialGradient><radialGradient id="k" cx="0" cy="0" r="1" gradientUnits="userSpaceOnUse" gradientTransform="matrix(.18735 -.55301 .55226 .1871 130.523 132.238)"><stop stop-color="#fff"/><stop offset=".495" stop-color="#F8E5D5" stop-opacity=".72"/><stop offset="1" stop-color="#fff" stop-opacity="0"/></radialGradient><radialGradient id="l" cx="0" cy="0" r="1" gradientUnits="userSpaceOnUse" gradientTransform="matrix(.18735 -.55301 .55226 .1871 123.049 126.669)"><stop stop-color="#fff"/><stop offset=".495" stop-color="#F8E5D5" stop-opacity=".72"/><stop offset="1" stop-color="#fff" stop-opacity="0"/></radialGradient><radialGradient id="m" cx="0" cy="0" r="1" gradientUnits="userSpaceOnUse" gradientTransform="matrix(.14623 -.43161 .43103 .14603 117.774 128.888)"><stop stop-color="#fff"/><stop offset=".495" stop-color="#F8E5D5" stop-opacity=".72"/><stop offset="1" stop-color="#fff" stop-opacity="0"/></radialGradient><radialGradient id="n" cx="0" cy="0" r="1" gradientUnits="userSpaceOnUse" gradientTransform="matrix(.09525 -.28116 .28078 .09512 120.119 129.022)"><stop stop-color="#fff"/><stop offset=".495" stop-color="#F8E5D5" stop-opacity=".72"/><stop offset="1" stop-color="#fff" stop-opacity="0"/></radialGradient><radialGradient id="o" cx="0" cy="0" r="1" gradientUnits="userSpaceOnUse" gradientTransform="matrix(.08056 -.23778 .23747 .08045 125.456 137.008)"><stop stop-color="#fff"/><stop offset=".495" stop-color="#F8E5D5" stop-opacity=".72"/><stop offset="1" stop-color="#fff" stop-opacity="0"/></radialGradient><radialGradient id="p" cx="0" cy="0" r="1" gradientUnits="userSpaceOnUse" gradientTransform="matrix(.08056 -.23778 .23747 .08045 129.654 139.999)"><stop stop-color="#fff"/><stop offset=".495" stop-color="#F8E5D5" stop-opacity=".72"/><stop offset="1" stop-color="#fff" stop-opacity="0"/></radialGradient><radialGradient id="q" cx="0" cy="0" r="1" gradientUnits="userSpaceOnUse" gradientTransform="matrix(.28104 -.82953 .8284 .28066 130.968 135.415)"><stop stop-color="#fff"/><stop offset=".495" stop-color="#F8E5D5" stop-opacity=".72"/><stop offset="1" stop-color="#fff" stop-opacity="0"/></radialGradient><radialGradient id="r" cx="0" cy="0" r="1" gradientUnits="userSpaceOnUse" gradientTransform="rotate(-71.284 157.517 -17.272) scale(.93423 .93298)"><stop stop-color="#fff"/><stop offset=".495" stop-color="#F8E5D5" stop-opacity=".72"/><stop offset="1" stop-color="#fff" stop-opacity="0"/></radialGradient><radialGradient id="s" cx="0" cy="0" r="1" gradientUnits="userSpaceOnUse" gradientTransform="rotate(-71.284 155.818 -22.797) scale(1.38843 1.38657)"><stop stop-color="#fff"/><stop offset=".495" stop-color="#F8E5D5" stop-opacity=".72"/><stop offset="1" stop-color="#fff" stop-opacity="0"/></radialGradient><radialGradient id="t" cx="0" cy="0" r="1" gradientUnits="userSpaceOnUse" gradientTransform="rotate(-71.284 153.692 -19.552) scale(.84064 .83951)"><stop stop-color="#fff"/><stop offset=".495" stop-color="#F8E5D5" stop-opacity=".72"/><stop offset="1" stop-color="#fff" stop-opacity="0"/></radialGradient><radialGradient id="u" cx="0" cy="0" r="1" gradientUnits="userSpaceOnUse" gradientTransform="rotate(-71.284 151.565 -16.307) scale(1.38843 1.38657)"><stop stop-color="#fff"/><stop offset=".495" stop-color="#F8E5D5" stop-opacity=".72"/><stop offset="1" stop-color="#fff" stop-opacity="0"/></radialGradient><radialGradient id="v" cx="0" cy="0" r="1" gradientUnits="userSpaceOnUse" gradientTransform="matrix(.44551 -1.31501 1.31325 .44491 124.61 140.813)"><stop stop-color="#fff"/><stop offset=".495" stop-color="#F8E5D5" stop-opacity=".72"/><stop offset="1" stop-color="#fff" stop-opacity="0"/></radialGradient><radialGradient id="w" cx="0" cy="0" r="1" gradientUnits="userSpaceOnUse" gradientTransform="rotate(-71.284 159.813 -21.107) scale(1.38843 1.38657)"><stop stop-color="#fff"/><stop offset=".495" stop-color="#F8E5D5" stop-opacity=".72"/><stop offset="1" stop-color="#fff" stop-opacity="0"/></radialGradient><radialGradient id="x" cx="0" cy="0" r="1" gradientUnits="userSpaceOnUse" gradientTransform="matrix(.28883 -.85255 .8514 .28845 119.903 136.486)"><stop stop-color="#fff"/><stop offset=".495" stop-color="#F8E5D5" stop-opacity=".72"/><stop offset="1" stop-color="#fff" stop-opacity="0"/></radialGradient><radialGradient id="y" cx="0" cy="0" r="1" gradientUnits="userSpaceOnUse" gradientTransform="matrix(.18735 -.55301 .55226 .1871 138.26 136.067)"><stop stop-color="#fff"/><stop offset=".495" stop-color="#F8E5D5" stop-opacity=".72"/><stop offset="1" stop-color="#fff" stop-opacity="0"/></radialGradient><radialGradient id="z" cx="0" cy="0" r="1" gradientUnits="userSpaceOnUse" gradientTransform="matrix(.18735 -.55301 .55226 .1871 138.45 140.585)"><stop stop-color="#fff"/><stop offset=".495" stop-color="#F8E5D5" stop-opacity=".72"/><stop offset="1" stop-color="#fff" stop-opacity="0"/></radialGradient><radialGradient id="A" cx="0" cy="0" r="1" gradientUnits="userSpaceOnUse" gradientTransform="matrix(.18735 -.55301 .55226 .1871 145.036 135.783)"><stop stop-color="#fff"/><stop offset=".495" stop-color="#F8E5D5" stop-opacity=".72"/><stop offset="1" stop-color="#fff" stop-opacity="0"/></radialGradient><radialGradient id="B" cx="0" cy="0" r="1" gradientUnits="userSpaceOnUse" gradientTransform="matrix(.18735 -.55301 .55226 .1871 141.251 131.869)"><stop stop-color="#fff"/><stop offset=".495" stop-color="#F8E5D5" stop-opacity=".72"/><stop offset="1" stop-color="#fff" stop-opacity="0"/></radialGradient><radialGradient id="C" cx="0" cy="0" r="1" gradientUnits="userSpaceOnUse" gradientTransform="matrix(.18735 -.55301 .55226 .1871 146.087 128.497)"><stop stop-color="#fff"/><stop offset=".495" stop-color="#F8E5D5" stop-opacity=".72"/><stop offset="1" stop-color="#fff" stop-opacity="0"/></radialGradient><radialGradient id="D" cx="0" cy="0" r="1" gradientUnits="userSpaceOnUse" gradientTransform="matrix(.1292 -.38136 .38085 .12903 149.464 131.337)"><stop stop-color="#fff"/><stop offset=".495" stop-color="#F8E5D5" stop-opacity=".72"/><stop offset="1" stop-color="#fff" stop-opacity="0"/></radialGradient><radialGradient id="E" cx="0" cy="0" r="1" gradientUnits="userSpaceOnUse" gradientTransform="matrix(.12048 -.35562 .35514 .12032 150.59 136.307)"><stop stop-color="#fff"/><stop offset=".495" stop-color="#F8E5D5" stop-opacity=".72"/><stop offset="1" stop-color="#fff" stop-opacity="0"/></radialGradient><radialGradient id="F" cx="0" cy="0" r="1" gradientUnits="userSpaceOnUse" gradientTransform="matrix(.18735 -.55301 .55226 .1871 141.441 136.386)"><stop stop-color="#fff"/><stop offset=".495" stop-color="#F8E5D5" stop-opacity=".72"/><stop offset="1" stop-color="#fff" stop-opacity="0"/></radialGradient><radialGradient id="G" cx="0" cy="0" r="1" gradientUnits="userSpaceOnUse" gradientTransform="matrix(.18735 -.55301 .55226 .1871 142.906 128.179)"><stop stop-color="#fff"/><stop offset=".495" stop-color="#F8E5D5" stop-opacity=".72"/><stop offset="1" stop-color="#fff" stop-opacity="0"/></radialGradient><radialGradient id="H" cx="0" cy="0" r="1" gradientUnits="userSpaceOnUse" gradientTransform="matrix(.18735 -.55301 .55226 .1871 147.2 133.429)"><stop stop-color="#fff"/><stop offset=".495" stop-color="#F8E5D5" stop-opacity=".72"/><stop offset="1" stop-color="#fff" stop-opacity="0"/></radialGradient><radialGradient id="I" cx="0" cy="0" r="1" gradientUnits="userSpaceOnUse" gradientTransform="matrix(.18735 -.55301 .55226 .1871 139.725 127.86)"><stop stop-color="#fff"/><stop offset=".495" stop-color="#F8E5D5" stop-opacity=".72"/><stop offset="1" stop-color="#fff" stop-opacity="0"/></radialGradient><radialGradient id="J" cx="0" cy="0" r="1" gradientUnits="userSpaceOnUse" gradientTransform="matrix(.14623 -.43161 .43103 .14603 134.45 130.079)"><stop stop-color="#fff"/><stop offset=".495" stop-color="#F8E5D5" stop-opacity=".72"/><stop offset="1" stop-color="#fff" stop-opacity="0"/></radialGradient><radialGradient id="K" cx="0" cy="0" r="1" gradientUnits="userSpaceOnUse" gradientTransform="matrix(.09525 -.28116 .28078 .09512 136.795 130.213)"><stop stop-color="#fff"/><stop offset=".495" stop-color="#F8E5D5" stop-opacity=".72"/><stop offset="1" stop-color="#fff" stop-opacity="0"/></radialGradient><radialGradient id="L" cx="0" cy="0" r="1" gradientUnits="userSpaceOnUse" gradientTransform="matrix(.08056 -.23778 .23747 .08045 142.132 138.198)"><stop stop-color="#fff"/><stop offset=".495" stop-color="#F8E5D5" stop-opacity=".72"/><stop offset="1" stop-color="#fff" stop-opacity="0"/></radialGradient><radialGradient id="M" cx="0" cy="0" r="1" gradientUnits="userSpaceOnUse" gradientTransform="matrix(.08056 -.23778 .23747 .08045 146.332 141.19)"><stop stop-color="#fff"/><stop offset=".495" stop-color="#F8E5D5" stop-opacity=".72"/><stop offset="1" stop-color="#fff" stop-opacity="0"/></radialGradient><radialGradient id="N" cx="0" cy="0" r="1" gradientUnits="userSpaceOnUse" gradientTransform="matrix(.28103 -.82952 .8284 .28066 147.644 136.604)"><stop stop-color="#fff"/><stop offset=".495" stop-color="#F8E5D5" stop-opacity=".72"/><stop offset="1" stop-color="#fff" stop-opacity="0"/></radialGradient><radialGradient id="O" cx="0" cy="0" r="1" gradientUnits="userSpaceOnUse" gradientTransform="rotate(-71.284 166.685 -28.306) scale(.93423 .93298)"><stop stop-color="#fff"/><stop offset=".495" stop-color="#F8E5D5" stop-opacity=".72"/><stop offset="1" stop-color="#fff" stop-opacity="0"/></radialGradient><radialGradient id="P" cx="0" cy="0" r="1" gradientUnits="userSpaceOnUse" gradientTransform="rotate(-71.284 164.987 -33.83) scale(1.38843 1.38657)"><stop stop-color="#fff"/><stop offset=".495" stop-color="#F8E5D5" stop-opacity=".72"/><stop offset="1" stop-color="#fff" stop-opacity="0"/></radialGradient><radialGradient id="Q" cx="0" cy="0" r="1" gradientUnits="userSpaceOnUse" gradientTransform="rotate(-71.284 162.86 -30.585) scale(.84064 .83951)"><stop stop-color="#fff"/><stop offset=".495" stop-color="#F8E5D5" stop-opacity=".72"/><stop offset="1" stop-color="#fff" stop-opacity="0"/></radialGradient><radialGradient id="R" cx="0" cy="0" r="1" gradientUnits="userSpaceOnUse" gradientTransform="rotate(-71.284 160.733 -27.34) scale(1.38843 1.38657)"><stop stop-color="#fff"/><stop offset=".495" stop-color="#F8E5D5" stop-opacity=".72"/><stop offset="1" stop-color="#fff" stop-opacity="0"/></radialGradient><radialGradient id="S" cx="0" cy="0" r="1" gradientUnits="userSpaceOnUse" gradientTransform="rotate(-71.284 169.664 -27.518) scale(1.38843 1.38657)"><stop stop-color="#fff"/><stop offset=".495" stop-color="#F8E5D5" stop-opacity=".72"/><stop offset="1" stop-color="#fff" stop-opacity="0"/></radialGradient><radialGradient id="T" cx="0" cy="0" r="1" gradientUnits="userSpaceOnUse" gradientTransform="matrix(.44551 -1.31501 1.31325 .44491 145.2 138.219)"><stop stop-color="#fff"/><stop offset=".495" stop-color="#F8E5D5" stop-opacity=".72"/><stop offset="1" stop-color="#fff" stop-opacity="0"/></radialGradient><radialGradient id="U" cx="0" cy="0" r="1" gradientUnits="userSpaceOnUse" gradientTransform="matrix(.28883 -.85255 .8514 .28845 136.579 137.677)"><stop stop-color="#fff"/><stop offset=".495" stop-color="#F8E5D5" stop-opacity=".72"/><stop offset="1" stop-color="#fff" stop-opacity="0"/></radialGradient><radialGradient id="V" cx="0" cy="0" r="1" gradientUnits="userSpaceOnUse" gradientTransform="matrix(.18735 -.55301 .55226 .1871 129.922 126.538)"><stop stop-color="#fff"/><stop offset=".495" stop-color="#F8E5D5" stop-opacity=".72"/><stop offset="1" stop-color="#fff" stop-opacity="0"/></radialGradient><radialGradient id="W" cx="0" cy="0" r="1" gradientUnits="userSpaceOnUse" gradientTransform="matrix(.18735 -.55301 .55226 .1871 130.112 131.056)"><stop stop-color="#fff"/><stop offset=".495" stop-color="#F8E5D5" stop-opacity=".72"/><stop offset="1" stop-color="#fff" stop-opacity="0"/></radialGradient><radialGradient id="X" cx="0" cy="0" r="1" gradientUnits="userSpaceOnUse" gradientTransform="matrix(.18735 -.55301 .55226 .1871 136.698 126.253)"><stop stop-color="#fff"/><stop offset=".495" stop-color="#F8E5D5" stop-opacity=".72"/><stop offset="1" stop-color="#fff" stop-opacity="0"/></radialGradient><radialGradient id="Y" cx="0" cy="0" r="1" gradientUnits="userSpaceOnUse" gradientTransform="matrix(.18735 -.55301 .55226 .1871 132.913 122.34)"><stop stop-color="#fff"/><stop offset=".495" stop-color="#F8E5D5" stop-opacity=".72"/><stop offset="1" stop-color="#fff" stop-opacity="0"/></radialGradient><radialGradient id="Z" cx="0" cy="0" r="1" gradientUnits="userSpaceOnUse" gradientTransform="matrix(.18735 -.55301 .55226 .1871 137.749 118.968)"><stop stop-color="#fff"/><stop offset=".495" stop-color="#F8E5D5" stop-opacity=".72"/><stop offset="1" stop-color="#fff" stop-opacity="0"/></radialGradient><radialGradient id="aa" cx="0" cy="0" r="1" gradientUnits="userSpaceOnUse" gradientTransform="matrix(.1292 -.38136 .38085 .12903 141.125 121.807)"><stop stop-color="#fff"/><stop offset=".495" stop-color="#F8E5D5" stop-opacity=".72"/><stop offset="1" stop-color="#fff" stop-opacity="0"/></radialGradient><radialGradient id="ab" cx="0" cy="0" r="1" gradientUnits="userSpaceOnUse" gradientTransform="rotate(-71.284 159.53 -35.805) scale(.37548 .37497)"><stop stop-color="#fff"/><stop offset=".495" stop-color="#F8E5D5" stop-opacity=".72"/><stop offset="1" stop-color="#fff" stop-opacity="0"/></radialGradient><radialGradient id="ac" cx="0" cy="0" r="1" gradientUnits="userSpaceOnUse" gradientTransform="matrix(.18735 -.55301 .55226 .1871 133.103 126.857)"><stop stop-color="#fff"/><stop offset=".495" stop-color="#F8E5D5" stop-opacity=".72"/><stop offset="1" stop-color="#fff" stop-opacity="0"/></radialGradient><radialGradient id="ad" cx="0" cy="0" r="1" gradientUnits="userSpaceOnUse" gradientTransform="matrix(.18735 -.55301 .55226 .1871 134.568 118.65)"><stop stop-color="#fff"/><stop offset=".495" stop-color="#F8E5D5" stop-opacity=".72"/><stop offset="1" stop-color="#fff" stop-opacity="0"/></radialGradient><radialGradient id="ae" cx="0" cy="0" r="1" gradientUnits="userSpaceOnUse" gradientTransform="matrix(.18735 -.55301 .55226 .1871 138.862 123.9)"><stop stop-color="#fff"/><stop offset=".495" stop-color="#F8E5D5" stop-opacity=".72"/><stop offset="1" stop-color="#fff" stop-opacity="0"/></radialGradient><radialGradient id="af" cx="0" cy="0" r="1" gradientUnits="userSpaceOnUse" gradientTransform="matrix(.18735 -.55301 .55226 .1871 131.387 118.331)"><stop stop-color="#fff"/><stop offset=".495" stop-color="#F8E5D5" stop-opacity=".72"/><stop offset="1" stop-color="#fff" stop-opacity="0"/></radialGradient><radialGradient id="ag" cx="0" cy="0" r="1" gradientUnits="userSpaceOnUse" gradientTransform="matrix(.14623 -.43161 .43103 .14603 126.112 120.55)"><stop stop-color="#fff"/><stop offset=".495" stop-color="#F8E5D5" stop-opacity=".72"/><stop offset="1" stop-color="#fff" stop-opacity="0"/></radialGradient><radialGradient id="ah" cx="0" cy="0" r="1" gradientUnits="userSpaceOnUse" gradientTransform="matrix(.09525 -.28116 .28078 .09512 128.457 120.684)"><stop stop-color="#fff"/><stop offset=".495" stop-color="#F8E5D5" stop-opacity=".72"/><stop offset="1" stop-color="#fff" stop-opacity="0"/></radialGradient><radialGradient id="ai" cx="0" cy="0" r="1" gradientUnits="userSpaceOnUse" gradientTransform="matrix(.08056 -.23778 .23747 .08045 133.794 128.67)"><stop stop-color="#fff"/><stop offset=".495" stop-color="#F8E5D5" stop-opacity=".72"/><stop offset="1" stop-color="#fff" stop-opacity="0"/></radialGradient><radialGradient id="aj" cx="0" cy="0" r="1" gradientUnits="userSpaceOnUse" gradientTransform="matrix(.08056 -.23778 .23747 .08045 137.992 131.661)"><stop stop-color="#fff"/><stop offset=".495" stop-color="#F8E5D5" stop-opacity=".72"/><stop offset="1" stop-color="#fff" stop-opacity="0"/></radialGradient><radialGradient id="ak" cx="0" cy="0" r="1" gradientUnits="userSpaceOnUse" gradientTransform="matrix(.28103 -.82952 .8284 .28066 139.306 127.074)"><stop stop-color="#fff"/><stop offset=".495" stop-color="#F8E5D5" stop-opacity=".72"/><stop offset="1" stop-color="#fff" stop-opacity="0"/></radialGradient><radialGradient id="al" cx="0" cy="0" r="1" gradientUnits="userSpaceOnUse" gradientTransform="matrix(.29977 -.88483 .88364 .29937 131.671 129.12)"><stop stop-color="#fff"/><stop offset=".495" stop-color="#F8E5D5" stop-opacity=".72"/><stop offset="1" stop-color="#fff" stop-opacity="0"/></radialGradient><radialGradient id="am" cx="0" cy="0" r="1" gradientUnits="userSpaceOnUse" gradientTransform="rotate(-71.284 154.173 -32.78) scale(1.38843 1.38657)"><stop stop-color="#fff"/><stop offset=".495" stop-color="#F8E5D5" stop-opacity=".72"/><stop offset="1" stop-color="#fff" stop-opacity="0"/></radialGradient><radialGradient id="an" cx="0" cy="0" r="1" gradientUnits="userSpaceOnUse" gradientTransform="rotate(-71.284 152.046 -29.535) scale(.84064 .83951)"><stop stop-color="#fff"/><stop offset=".495" stop-color="#F8E5D5" stop-opacity=".72"/><stop offset="1" stop-color="#fff" stop-opacity="0"/></radialGradient><radialGradient id="ao" cx="0" cy="0" r="1" gradientUnits="userSpaceOnUse" gradientTransform="rotate(-71.284 149.92 -26.29) scale(1.38843 1.38657)"><stop stop-color="#fff"/><stop offset=".495" stop-color="#F8E5D5" stop-opacity=".72"/><stop offset="1" stop-color="#fff" stop-opacity="0"/></radialGradient><radialGradient id="ap" cx="0" cy="0" r="1" gradientUnits="userSpaceOnUse" gradientTransform="rotate(-71.284 158.85 -26.468) scale(1.38843 1.38657)"><stop stop-color="#fff"/><stop offset=".495" stop-color="#F8E5D5" stop-opacity=".72"/><stop offset="1" stop-color="#fff" stop-opacity="0"/></radialGradient><radialGradient id="aq" cx="0" cy="0" r="1" gradientUnits="userSpaceOnUse" gradientTransform="rotate(-71.284 158.168 -31.09) scale(1.38843 1.38657)"><stop stop-color="#fff"/><stop offset=".495" stop-color="#F8E5D5" stop-opacity=".72"/><stop offset="1" stop-color="#fff" stop-opacity="0"/></radialGradient><radialGradient id="ar" cx="0" cy="0" r="1" gradientUnits="userSpaceOnUse" gradientTransform="matrix(.28883 -.85255 .8514 .28845 128.241 128.147)"><stop stop-color="#fff"/><stop offset=".495" stop-color="#F8E5D5" stop-opacity=".72"/><stop offset="1" stop-color="#fff" stop-opacity="0"/></radialGradient><radialGradient id="as" cx="0" cy="0" r="1" gradientUnits="userSpaceOnUse" gradientTransform="matrix(.18735 -.55301 .55226 .1871 128.731 139.641)"><stop stop-color="#fff"/><stop offset=".495" stop-color="#F8E5D5" stop-opacity=".72"/><stop offset="1" stop-color="#fff" stop-opacity="0"/></radialGradient><radialGradient id="at" cx="0" cy="0" r="1" gradientUnits="userSpaceOnUse" gradientTransform="matrix(.18735 -.55301 .55226 .1871 128.92 144.159)"><stop stop-color="#fff"/><stop offset=".495" stop-color="#F8E5D5" stop-opacity=".72"/><stop offset="1" stop-color="#fff" stop-opacity="0"/></radialGradient><radialGradient id="au" cx="0" cy="0" r="1" gradientUnits="userSpaceOnUse" gradientTransform="matrix(.18735 -.55301 .55226 .1871 135.507 139.356)"><stop stop-color="#fff"/><stop offset=".495" stop-color="#F8E5D5" stop-opacity=".72"/><stop offset="1" stop-color="#fff" stop-opacity="0"/></radialGradient><radialGradient id="av" cx="0" cy="0" r="1" gradientUnits="userSpaceOnUse" gradientTransform="matrix(.18735 -.55301 .55226 .1871 131.722 135.442)"><stop stop-color="#fff"/><stop offset=".495" stop-color="#F8E5D5" stop-opacity=".72"/><stop offset="1" stop-color="#fff" stop-opacity="0"/></radialGradient><radialGradient id="aw" cx="0" cy="0" r="1" gradientUnits="userSpaceOnUse" gradientTransform="matrix(.18735 -.55301 .55226 .1871 136.558 132.071)"><stop stop-color="#fff"/><stop offset=".495" stop-color="#F8E5D5" stop-opacity=".72"/><stop offset="1" stop-color="#fff" stop-opacity="0"/></radialGradient><radialGradient id="ax" cx="0" cy="0" r="1" gradientUnits="userSpaceOnUse" gradientTransform="matrix(.1292 -.38136 .38085 .12903 139.934 134.91)"><stop stop-color="#fff"/><stop offset=".495" stop-color="#F8E5D5" stop-opacity=".72"/><stop offset="1" stop-color="#fff" stop-opacity="0"/></radialGradient><radialGradient id="ay" cx="0" cy="0" r="1" gradientUnits="userSpaceOnUse" gradientTransform="matrix(.12048 -.35562 .35514 .12032 141.06 139.88)"><stop stop-color="#fff"/><stop offset=".495" stop-color="#F8E5D5" stop-opacity=".72"/><stop offset="1" stop-color="#fff" stop-opacity="0"/></radialGradient><radialGradient id="az" cx="0" cy="0" r="1" gradientUnits="userSpaceOnUse" gradientTransform="matrix(.18735 -.55301 .55226 .1871 131.912 139.96)"><stop stop-color="#fff"/><stop offset=".495" stop-color="#F8E5D5" stop-opacity=".72"/><stop offset="1" stop-color="#fff" stop-opacity="0"/></radialGradient><radialGradient id="aA" cx="0" cy="0" r="1" gradientUnits="userSpaceOnUse" gradientTransform="matrix(.18735 -.55301 .55226 .1871 133.377 131.752)"><stop stop-color="#fff"/><stop offset=".495" stop-color="#F8E5D5" stop-opacity=".72"/><stop offset="1" stop-color="#fff" stop-opacity="0"/></radialGradient><radialGradient id="aB" cx="0" cy="0" r="1" gradientUnits="userSpaceOnUse" gradientTransform="matrix(.18735 -.55301 .55226 .1871 137.67 137.002)"><stop stop-color="#fff"/><stop offset=".495" stop-color="#F8E5D5" stop-opacity=".72"/><stop offset="1" stop-color="#fff" stop-opacity="0"/></radialGradient><radialGradient id="aC" cx="0" cy="0" r="1" gradientUnits="userSpaceOnUse" gradientTransform="matrix(.18735 -.55301 .55226 .1871 130.196 131.434)"><stop stop-color="#fff"/><stop offset=".495" stop-color="#F8E5D5" stop-opacity=".72"/><stop offset="1" stop-color="#fff" stop-opacity="0"/></radialGradient><radialGradient id="aD" cx="0" cy="0" r="1" gradientUnits="userSpaceOnUse" gradientTransform="matrix(.14623 -.43161 .43103 .14603 124.921 133.653)"><stop stop-color="#fff"/><stop offset=".495" stop-color="#F8E5D5" stop-opacity=".72"/><stop offset="1" stop-color="#fff" stop-opacity="0"/></radialGradient><radialGradient id="aE" cx="0" cy="0" r="1" gradientUnits="userSpaceOnUse" gradientTransform="matrix(.09525 -.28116 .28078 .09512 127.266 133.787)"><stop stop-color="#fff"/><stop offset=".495" stop-color="#F8E5D5" stop-opacity=".72"/><stop offset="1" stop-color="#fff" stop-opacity="0"/></radialGradient><radialGradient id="aF" cx="0" cy="0" r="1" gradientUnits="userSpaceOnUse" gradientTransform="matrix(.08056 -.23778 .23747 .08045 132.603 141.772)"><stop stop-color="#fff"/><stop offset=".495" stop-color="#F8E5D5" stop-opacity=".72"/><stop offset="1" stop-color="#fff" stop-opacity="0"/></radialGradient><radialGradient id="aG" cx="0" cy="0" r="1" gradientUnits="userSpaceOnUse" gradientTransform="matrix(.08056 -.23778 .23747 .08045 136.8 144.764)"><stop stop-color="#fff"/><stop offset=".495" stop-color="#F8E5D5" stop-opacity=".72"/><stop offset="1" stop-color="#fff" stop-opacity="0"/></radialGradient><radialGradient id="aH" cx="0" cy="0" r="1" gradientUnits="userSpaceOnUse" gradientTransform="matrix(.28104 -.82953 .8284 .28066 138.115 140.178)"><stop stop-color="#fff"/><stop offset=".495" stop-color="#F8E5D5" stop-opacity=".72"/><stop offset="1" stop-color="#fff" stop-opacity="0"/></radialGradient><radialGradient id="aI" cx="0" cy="0" r="1" gradientUnits="userSpaceOnUse" gradientTransform="rotate(-71.284 164.413 -19.873) scale(.93423 .93298)"><stop stop-color="#fff"/><stop offset=".495" stop-color="#F8E5D5" stop-opacity=".72"/><stop offset="1" stop-color="#fff" stop-opacity="0"/></radialGradient><radialGradient id="aJ" cx="0" cy="0" r="1" gradientUnits="userSpaceOnUse" gradientTransform="matrix(.44552 -1.31501 1.31325 .44492 134.559 136.86)"><stop stop-color="#fff"/><stop offset=".495" stop-color="#F8E5D5" stop-opacity=".72"/><stop offset="1" stop-color="#fff" stop-opacity="0"/></radialGradient><radialGradient id="aK" cx="0" cy="0" r="1" gradientUnits="userSpaceOnUse" gradientTransform="matrix(.26974 -.79619 .79512 .26938 130.04 137.05)"><stop stop-color="#fff"/><stop offset=".495" stop-color="#F8E5D5" stop-opacity=".72"/><stop offset="1" stop-color="#fff" stop-opacity="0"/></radialGradient><radialGradient id="aL" cx="0" cy="0" r="1" gradientUnits="userSpaceOnUse" gradientTransform="matrix(.44552 -1.31501 1.31325 .44492 125.523 137.24)"><stop stop-color="#fff"/><stop offset=".495" stop-color="#F8E5D5" stop-opacity=".72"/><stop offset="1" stop-color="#fff" stop-opacity="0"/></radialGradient><radialGradient id="aM" cx="0" cy="0" r="1" gradientUnits="userSpaceOnUse" gradientTransform="rotate(-71.284 167.391 -19.086) scale(1.38843 1.38657)"><stop stop-color="#fff"/><stop offset=".495" stop-color="#F8E5D5" stop-opacity=".72"/><stop offset="1" stop-color="#fff" stop-opacity="0"/></radialGradient><radialGradient id="aN" cx="0" cy="0" r="1" gradientUnits="userSpaceOnUse" gradientTransform="rotate(-71.284 166.71 -23.708) scale(1.38843 1.38657)"><stop stop-color="#fff"/><stop offset=".495" stop-color="#F8E5D5" stop-opacity=".72"/><stop offset="1" stop-color="#fff" stop-opacity="0"/></radialGradient><radialGradient id="aO" cx="0" cy="0" r="1" gradientUnits="userSpaceOnUse" gradientTransform="matrix(.28883 -.85255 .8514 .28845 127.05 141.25)"><stop stop-color="#fff"/><stop offset=".495" stop-color="#F8E5D5" stop-opacity=".72"/><stop offset="1" stop-color="#fff" stop-opacity="0"/></radialGradient></defs></svg>