<svg width="455" height="76" viewBox="0 0 455 76" fill="none" xmlns="http://www.w3.org/2000/svg"><path d="M76.856 60.8l-15.37 15.196L4.63 76 0 71.42V15.2L15.372 0h56.855l4.629 4.577V60.8z" fill="#ED1C24"/><path d="M72.228 0L54.942 17.093v24.95l-14.16-19.241h-29.85v6.046h8.8v23.064L.001 71.421V76l4.629-.004 21.73-21.488v-25.66h8.796v24.35h6.547V33.954l14.16 19.242h5.623V19.775L76.858 4.577V0h-4.63z" fill="#fff"/><path d="M101.449 30.183h-9.221v-7.382h26.966v7.382h-9.221v23.014h-8.523V30.183h-.001zm22.225-7.381h24.723v7.162h-16.291v4.607h14.753v6.646h-14.753v4.817h16.512v7.164h-24.944V22.802zm38.971 14.938l-10.104-14.938h9.796l5.445 8.553 5.492-8.553h9.571l-10.098 14.851 10.54 15.544h-9.795l-5.888-9.16-5.926 9.16h-9.574l10.541-15.458zm24.67-14.938h8.52v11.377h10.937V22.802h8.52v30.395h-8.52V41.645h-10.937v11.552h-8.52V22.802zM220.409 38c0-8.73 7.115-15.808 16.602-15.808 9.484 0 16.511 6.992 16.511 15.808 0 8.729-7.114 15.807-16.598 15.807-9.491 0-16.515-6.994-16.515-15.807zm24.417 0c0-4.387-3.205-8.21-7.903-8.21-4.659 0-7.775 3.735-7.775 8.21 0 4.387 3.208 8.203 7.863 8.203 4.695.001 7.815-3.73 7.815-8.203zm13.852-15.198h8.524v11.377h10.932V22.802h8.523v30.395h-8.523V41.645h-10.932v11.552h-8.524V22.802zm34.606 0h8.434v17.107l11.905-17.107h7.945v30.395h-8.432V36.09l-11.904 17.108h-7.948V22.802zm34.917 0h8.517v12.334l10.585-12.334h10.102l-11.637 13.07 12.03 17.326h-10.23l-7.729-11.288-3.121 3.428v7.86h-8.517V22.803zM357.864 38c0-8.73 7.112-15.808 16.597-15.808 9.487 0 16.517 6.992 16.517 15.808 0 8.729-7.118 15.807-16.602 15.807-9.488 0-16.512-6.994-16.512-15.807zm24.412 0c0-4.387-3.2-8.21-7.899-8.21-4.659 0-7.774 3.735-7.774 8.21 0 4.387 3.203 8.203 7.859 8.203 4.699.001 7.814-3.73 7.814-8.203zm46.768-15.198h8.518v9.55h4.656c7.379 0 12.783 3.477 12.783 10.334 0 6.562-4.831 10.512-12.341 10.512h-13.616V22.802zm12.957 23.319c2.808 0 4.478-1.26 4.478-3.648 0-2.127-1.67-3.518-4.437-3.518h-4.48v7.166h4.439zm-43.482-23.319v13.334c0 3.152-.322 7.71-2.425 9.323-.988.755-2.618 1.334-3.65 1.334v7.167h.808c2.946 0 6.247-1.172 7.516-1.968 5.138-3.225 5.773-9.361 5.773-16.292v-5.517h7.354v23.014h8.52V22.802h-23.896z" fill="#000"/></svg>