<svg width="1680" height="2394" viewBox="0 0 1680 2394" fill="none" xmlns="http://www.w3.org/2000/svg"><path fill-rule="evenodd" clip-rule="evenodd" d="M1100.69 523.348C686.235 1291.87-134.909 995.741-488.462 130.278-759.187-190.11-929.337-252.824-1347.32-287.944l-647.65 13.281-49.7 591.539 578.12 127.747c261.1 21.938 546.985 29.462 716.095 229.594C-100.716 1092.89 710.31 1222.32 1485.69 903.882c200.14-169.106 466.45-172.009 727.55-150.071l1098.21 13.105 49.71-591.539L2239.4 13.424c-417.98-35.12-941.29 143.842-1138.71 509.924z" fill="url(#a)" filter="url(#b)"/><path fill-rule="evenodd" clip-rule="evenodd" d="M1102.55 450.46C685.793 802.607 62.47 750.233-289.683 333.48-560.408 13.092-947.319-186.631-1365.3-221.751l-1130.98-95.029-49.71 591.539L-1415 369.788c261.09 21.938 502.775 146.696 671.885 346.827C-179.36 1383.79 818.511 1467.63 1485.69 903.887c200.14-169.107 459.25-251.785 720.35-229.847l1105.41 92.881 49.7-591.539-1105.41-92.881c-417.98-35.12-832.8 97.239-1153.19 367.959z" fill="url(#c)"/><path transform="matrix(0 1 1 0 -173 5)" fill="#010101" fill-opacity=".01" d="M0 0h2389v3603H0z" filter="url(#d)"/><ellipse cx="-76.732" cy="697.016" rx="980.245" ry="240" transform="rotate(-10.214 -76.732 697.016)" fill="url(#e)" filter="url(#f)"/><ellipse cx="1010.04" cy="249.004" rx="820.548" ry="240" transform="rotate(-11.593 1010.04 249.004)" fill="url(#g)" filter="url(#h)"/><path fill-rule="evenodd" clip-rule="evenodd" d="M-119.999 492.287c359.688 264.62 866.504 259.022 1222.549-41.827 202.46-171.068 442.62-286.889 697.45-340.115V-.001H-119.999v492.288zM1800 724.974v21.025h-55.3a990.003 990.003 0 0 1 55.3-21.025z" fill="#010101"/><defs><filter id="b" x="-2114.08" y="-357.35" width="5544.64" height="1508.35" filterUnits="userSpaceOnUse" color-interpolation-filters="sRGB"><feFlood flood-opacity="0" result="BackgroundImageFix"/><feBlend in="SourceGraphic" in2="BackgroundImageFix" result="shape"/><feGaussianBlur stdDeviation="34.703" result="effect1_foregroundBlur_2139_28165"/></filter><filter id="d" x="-519.925" y="-341.925" width="4296.85" height="3082.85" filterUnits="userSpaceOnUse" color-interpolation-filters="sRGB"><feFlood flood-opacity="0" result="BackgroundImageFix"/><feGaussianBlur in="BackgroundImageFix" stdDeviation="173.463"/><feComposite in2="SourceAlpha" operator="in" result="effect1_backgroundBlur_2139_28165"/><feBlend in="SourceGraphic" in2="effect1_backgroundBlur_2139_28165" result="shape"/></filter><filter id="f" x="-1192.4" y="253.736" width="2231.33" height="886.561" filterUnits="userSpaceOnUse" color-interpolation-filters="sRGB"><feFlood flood-opacity="0" result="BackgroundImageFix"/><feBlend in="SourceGraphic" in2="BackgroundImageFix" result="shape"/><feGaussianBlur stdDeviation="75" result="effect1_foregroundBlur_2139_28165"/></filter><filter id="h" x="54.76" y="-188.188" width="1910.56" height="874.385" filterUnits="userSpaceOnUse" color-interpolation-filters="sRGB"><feFlood flood-opacity="0" result="BackgroundImageFix"/><feBlend in="SourceGraphic" in2="BackgroundImageFix" result="shape"/><feGaussianBlur stdDeviation="75" result="effect1_foregroundBlur_2139_28165"/></filter><linearGradient id="a" x1="2998.9" y1="568.631" x2="-2245.12" y2="258.6" gradientUnits="userSpaceOnUse"><stop stop-color="#75EBB6"/><stop offset=".151" stop-color="#013F79"/><stop offset=".417" stop-color="#130165"/><stop offset=".635" stop-color="#B840BA"/><stop offset=".891" stop-color="#12023F"/><stop offset="1" stop-color="#12023F" stop-opacity="0"/></linearGradient><linearGradient id="c" x1="2958.05" y1="688.062" x2="-2776.71" y2="346.628" gradientUnits="userSpaceOnUse"><stop stop-color="#75EBB6"/><stop offset=".151" stop-color="#32CDD0"/><stop offset=".417" stop-color="#130165"/><stop offset=".635" stop-color="#CE85D0"/><stop offset=".891" stop-color="#12023F"/><stop offset="1" stop-color="#12023F" stop-opacity="0"/></linearGradient><radialGradient id="e" cx="0" cy="0" r="1" gradientUnits="userSpaceOnUse" gradientTransform="matrix(0 240 -980.245 0 -76.732 697.016)"><stop stop-color="#fff"/><stop offset=".631" stop-color="#D482D0"/><stop offset="1" stop-color="#D482D0" stop-opacity="0"/></radialGradient><radialGradient id="g" cx="0" cy="0" r="1" gradientUnits="userSpaceOnUse" gradientTransform="scale(820.548 240) rotate(90 .097 1.134)"><stop stop-color="#35CED0"/><stop offset=".631" stop-color="#35CED0"/><stop offset="1" stop-color="#35CED0"/></radialGradient></defs></svg>