<svg width="560" height="396" viewBox="0 0 560 396" fill="none" xmlns="http://www.w3.org/2000/svg"><g clip-path="url(#a)"><path fill-rule="evenodd" clip-rule="evenodd" d="M405.343-134.326C198.117 249.933-212.454 101.87-389.231-330.861-524.593-491.055-609.668-522.412-818.66-539.972l-323.83 6.641-24.85 295.769 289.065 63.874c130.548 10.969 273.493 14.731 358.047 114.796C-195.358 150.446 210.155 215.16 597.847 55.941c100.067-84.553 233.224-86.004 363.772-75.035l549.111 6.552 24.85-295.77-560.88-80.976c-208.992-17.56-470.646 71.921-569.357 254.962z" fill="url(#b)" filter="url(#c)"/><path fill-rule="evenodd" clip-rule="evenodd" d="M406.275-170.77C197.897 5.303-113.765-20.884-289.841-229.26c-135.363-160.194-328.819-260.055-537.81-277.615l-565.489-47.515-24.85 295.77 565.488 47.514A493.965 493.965 0 0 1-516.558-37.692C-234.68 295.894 264.256 337.817 597.846 55.944A493.967 493.967 0 0 1 958.018-58.98l552.712 46.44 24.85-295.769-552.71-46.44C773.878-372.31 566.471-306.13 406.275-170.77z" fill="url(#d)"/><path transform="matrix(0 1 1 0 -231.5 -393.5)" fill="#010101" fill-opacity=".01" d="M0 0h1194.5v1801.5H0z" filter="url(#e)"/><ellipse cx="-221.732" cy="-490.984" rx="980.245" ry="240" transform="rotate(-10.214 -221.732 -490.984)" fill="url(#f)"/></g><defs><filter id="c" x="-1236.74" y="-609.379" width="2841.73" height="823.581" filterUnits="userSpaceOnUse" color-interpolation-filters="sRGB"><feFlood flood-opacity="0" result="BackgroundImageFix"/><feBlend in="SourceGraphic" in2="BackgroundImageFix" result="shape"/><feGaussianBlur stdDeviation="34.703" result="effect1_foregroundBlur_2139_30647"/></filter><filter id="e" x="-381.5" y="-543.5" width="2101.5" height="1494.5" filterUnits="userSpaceOnUse" color-interpolation-filters="sRGB"><feFlood flood-opacity="0" result="BackgroundImageFix"/><feGaussianBlur in="BackgroundImageFix" stdDeviation="75"/><feComposite in2="SourceAlpha" operator="in" result="effect1_backgroundBlur_2139_30647"/><feBlend in="SourceGraphic" in2="effect1_backgroundBlur_2139_30647" result="shape"/></filter><linearGradient id="b" x1="1354.45" y1="-111.685" x2="-1267.56" y2="-266.7" gradientUnits="userSpaceOnUse"><stop stop-color="#75EBB6"/><stop offset=".151" stop-color="#013F79"/><stop offset=".417" stop-color="#130165"/><stop offset=".635" stop-color="#B840BA"/><stop offset=".891" stop-color="#12023F"/><stop offset="1" stop-color="#12023F" stop-opacity="0"/></linearGradient><linearGradient id="d" x1="1334.02" y1="-51.969" x2="-1533.35" y2="-222.686" gradientUnits="userSpaceOnUse"><stop stop-color="#75EBB6"/><stop offset=".276" stop-color="#32CDD0"/><stop offset=".417" stop-color="#130165"/><stop offset=".635" stop-color="#CE85D0"/><stop offset=".891" stop-color="#12023F"/><stop offset="1" stop-color="#12023F" stop-opacity="0"/></linearGradient><radialGradient id="f" cx="0" cy="0" r="1" gradientUnits="userSpaceOnUse" gradientTransform="matrix(0 240 -980.245 0 -221.535 -491.04)"><stop stop-color="#fff"/><stop offset=".631" stop-color="#D482D0"/><stop offset="1" stop-color="#D482D0" stop-opacity="0"/></radialGradient><clipPath id="a"><path fill="#fff" transform="matrix(1 0 0 -1 0 396)" d="M0 0h560v396H0z"/></clipPath></defs></svg>