<svg width="144" height="38" viewBox="0 0 144 38" fill="none" xmlns="http://www.w3.org/2000/svg"><path d="M88.998 16.485c-1.947 0-3.657.885-4.322 2.282l-.19.326-.285-2.329h-3.609V36h3.847v-8.523l.237.419c.713 1.397 2.422 2.282 4.322 2.282 3.751 0 6.553-2.934 6.553-6.847 0-3.912-2.802-6.846-6.553-6.846zm-.713 10.107c-1.9 0-3.371-1.397-3.371-3.307s1.424-3.307 3.371-3.307 3.42 1.444 3.42 3.307c0 1.91-1.473 3.307-3.42 3.307zm7.978-.792h3.847c.142.792 1.14 1.258 2.517 1.258.855 0 1.805-.233 1.805-.932 0-.745-.713-.931-2.755-1.49-.285-.093-.57-.14-.902-.233-2.85-.792-4.132-2.05-4.132-4.006 0-1.91 1.852-3.959 5.272-3.959 3.276 0 5.603 1.677 5.746 4.146h-3.847c-.095-.839-1.14-1.072-1.758-1.072-.759 0-1.566.28-1.566.885 0 .513.475.699 2.279 1.258.427.14.902.28 1.472.465 2.707.839 4.036 2.19 4.036 4.1 0 2.7-2.896 3.912-5.746 3.912-3.846.046-6.125-1.538-6.268-4.332zm41.267-1.164v5.263h-3.846V16.764h3.609l.189 1.398.19-.187c.903-.978 1.805-1.49 2.755-1.49.57 0 1.092.186 1.472.466l-.523 3.306c-.332-.14-.807-.279-1.234-.279-1.709.047-2.612 1.677-2.612 4.658zm-19.232-4.378h-3.23v9.64h-3.846v-9.64h-2.28v-3.54h2.28v-3.96h3.846v3.96h3.23v3.54zm13.866 3.26c0-4.052-2.802-7.033-6.696-7.033-3.894 0-6.696 2.841-6.696 6.753 0 4.006 2.945 6.94 6.933 6.94 3.657 0 5.794-2.515 6.174-4.331l-3.324-.373c-.617.885-1.662 1.35-2.85 1.35-2.183 0-3.039-1.21-3.133-2.282v-.14h9.592v-.884zm-9.592-1.584v-.14c.094-1.164 1.281-2.002 2.849-2.002 1.757 0 2.801 1.024 2.849 2.002v.14h-5.698zm-47.678-5.17l-.285 2.33-.19-.327c-.712-1.397-2.375-2.282-4.322-2.282-3.751 0-6.553 2.934-6.553 6.846 0 3.913 2.802 6.847 6.553 6.847 1.9 0 3.61-.885 4.322-2.282l.19-.326.285 2.329h3.609V16.764h-3.61zm-4.084 9.828c-1.947 0-3.42-1.397-3.42-3.307s1.473-3.307 3.42-3.307c1.9 0 3.371 1.444 3.371 3.307 0 1.91-1.472 3.307-3.371 3.307zm-12.774 3.307l-9.023-12.343V29.9h-3.847V11.362h3.894l9.07 12.342V11.362h3.847v18.537h-3.941zM33.105 7.682c-.333 0-.665 0-.998.047h-.047l-.048-.047C29.21 4.142 24.794 2 20.235 2c-4.558 0-9.022 2.142-11.777 5.729l-.047.046h-.048c-.332-.046-.664-.046-.997-.046h-2.09v3.633l-.047.046C3.282 12.293 2 14.25 2 16.392s1.282 4.098 3.23 4.983h.094v.093C5.372 29.48 12.067 36 20.235 36S35.1 29.48 35.147 21.468v-.093l.047-.046c1.947-.932 3.23-2.888 3.23-4.984 0-2.142-1.283-4.098-3.23-4.983l-.047-.047V7.682h-2.042zM12.352 8.893a11.296 11.296 0 0 1 7.883-3.214c2.945 0 5.794 1.165 7.883 3.214l.095.093-.142.093a19.06 19.06 0 0 0-1.615 1.025l-.047.047-.048-.047c-1.377-.699-3.561-1.49-6.078-1.49-2.517 0-4.702.791-6.079 1.49l-.047.047-.048-.047a15.52 15.52 0 0 0-1.614-1.025l-.285-.093.142-.093zm18.71 12.436c0 5.868-4.89 10.665-10.874 10.665-5.984 0-10.827-4.797-10.827-10.665v-9.222l.142.046c1.9.466 3.704 2.515 4.131 3.028.475-.512 2.707-2.515 6.601-2.515s6.126 2.05 6.601 2.515c.428-.512 2.185-2.562 4.132-3.028l.142-.046v9.222h-.047z" fill="#fff" fill-opacity=".941"/></svg>