<svg width="176" height="38" viewBox="0 0 176 38" fill="none" xmlns="http://www.w3.org/2000/svg"><path d="M69.254 27.825H64.86v-2.113h-.067c-1.09 1.633-2.541 2.45-4.365 2.45-3.315 0-4.967-1.945-4.967-5.832v-8.37h4.395v7.99c0 1.955.799 2.937 2.4 2.937.79 0 1.419-.269 1.894-.805.476-.537.71-1.267.71-2.188V13.96h4.395v13.864zm-15.367 0h-4.17v-1.991h-.056c-.958 1.553-2.377 2.33-4.253 2.33-1.39 0-2.48-.382-3.275-1.144-.796-.763-1.192-1.783-1.192-3.055 0-2.69 1.644-4.243 4.925-4.66l3.88-.497c0-1.517-.848-2.273-2.542-2.273-1.701 0-3.32.49-4.854 1.474v-3.222c.614-.31 1.453-.579 2.519-.813.954-.223 1.93-.34 2.91-.352 4.071 0 6.108 1.974 6.108 5.915v8.288zm-4.142-5.633v-.935l-2.595.325c-1.433.18-2.147.807-2.147 1.884 0 .486.17.888.518 1.197.353.311.825.466 1.419.466.83 0 1.5-.276 2.025-.831.519-.555.78-1.257.78-2.108v.002zm35.503 5.633h-4.41v-1.908h-.052c-1.005 1.498-2.482 2.246-4.425 2.246-1.784 0-3.223-.61-4.309-1.835-1.09-1.22-1.633-2.93-1.633-5.125 0-2.292.6-4.126 1.8-5.508 1.2-1.384 2.771-2.072 4.715-2.072 1.843 0 3.123.639 3.852 1.923h.052V7.3h4.409v20.523l.001.002zm-4.323-6.743v-1.045c0-.9-.272-1.65-.81-2.246-.538-.596-1.242-.892-2.103-.892-.977 0-1.744.37-2.292 1.115-.547.748-.823 1.77-.823 3.068 0 1.22.267 2.159.795 2.815.534.66 1.266.988 2.204.988a2.683 2.683 0 0 0 2.187-1.04c.561-.698.842-1.617.842-2.763zm8.475-9.318c-.742 0-1.35-.211-1.827-.642a2.033 2.033 0 0 1-.71-1.577c0-.642.233-1.163.71-1.571.476-.407 1.085-.61 1.827-.61.753 0 1.368.203 1.834.61.472.408.706.929.706 1.57 0 .653-.234 1.184-.706 1.6-.466.411-1.081.62-1.834.62zm2.133 11.36c0 .588.143 1.037.435 1.336.29.3.675.453 1.156.453.243 0 .486-.022.725-.07.242-.041.485-.088.728-.133v3.009c-.534.134-1.091.245-1.681.328a12.58 12.58 0 0 1-1.847.129c-.586 0-1.12-.092-1.6-.282a3.423 3.423 0 0 1-1.229-.822 3.712 3.712 0 0 1-.785-1.29 4.928 4.928 0 0 1-.282-1.71V13.96h4.38v9.165zm10.01 5.038c-2.38 0-4.251-.647-5.613-1.941-1.363-1.294-2.043-3.055-2.043-5.273 0-2.293.704-4.09 2.117-5.385 1.416-1.294 3.325-1.94 5.734-1.94 2.371 0 4.235.646 5.58 1.94 1.349 1.295 2.025 3.009 2.025 5.14 0 2.302-.695 4.122-2.087 5.458-1.39 1.336-3.293 2-5.713 2zm.114-11.263c-1.043 0-1.852.347-2.428 1.04-.576.698-.867 1.682-.867 2.954 0 2.66 1.11 3.992 3.323 3.992 2.11 0 3.167-1.368 3.167-4.1 0-2.592-1.066-3.886-3.195-3.886zm31.532 10.927h-4.395v-7.909c0-2.01-.762-3.018-2.287-3.018-.723 0-1.313.3-1.77.906-.458.604-.685 1.358-.685 2.259v7.76h-4.405v-7.99c0-1.955-.754-2.935-2.247-2.935-.753 0-1.357.286-1.804.864-.452.579-.682 1.364-.682 2.357v7.704h-4.405V13.962h4.405v2.166h.058a5.176 5.176 0 0 1 1.918-1.807 5.384 5.384 0 0 1 2.701-.698c2.019 0 3.398.861 4.142 2.584 1.09-1.723 2.685-2.584 4.8-2.584 3.104 0 4.656 1.858 4.656 5.578v8.626zm13.68 0h-4.172v-1.994h-.056c-.957 1.553-2.376 2.33-4.253 2.33-1.389 0-2.48-.378-3.275-1.14-.795-.763-1.19-1.785-1.19-3.057 0-2.69 1.642-4.243 4.923-4.66l3.881-.497c0-1.517-.847-2.273-2.543-2.273-1.7 0-3.319.49-4.852 1.474v-3.222c.614-.31 1.451-.579 2.519-.813.953-.223 1.929-.34 2.908-.352 4.073 0 6.11 1.974 6.11 5.915v8.288zm-4.142-6.57l-2.595.326c-1.434.18-2.149.807-2.149 1.884 0 .486.173.888.521 1.197.352.311.822.466 1.418.466.828 0 1.5-.276 2.024-.831.518-.555.781-1.257.781-2.108v-.933zm16.76 6.07c-.994.56-2.434.836-4.308.836-2.197 0-3.972-.642-5.328-1.936-1.357-1.29-2.039-2.953-2.039-4.997 0-2.358.728-4.21 2.181-5.568 1.457-1.36 3.405-2.039 5.842-2.039 1.68 0 2.9.217 3.652.647V17.9a5.101 5.101 0 0 0-3.08-1.002c-1.268 0-2.266.356-3.009 1.077-.739.716-1.109 1.705-1.109 2.972 0 1.224.355 2.19 1.061 2.888.703.703 1.68 1.05 2.914 1.05 1.1 0 2.172-.333 3.223-1.003v3.443zm15.51.498h-5.291l-4.56-6.876h-.058v6.877h-4.405V7.299h4.405v13.067h.056l4.257-6.406h5.227l-5.117 6.512 5.486 7.352zM1.506 18.862s.734-.121 1.035.198c.302.319.105.978-.296.988-.401.013-.773.087-1.035-.196a.608.608 0 0 1 .296-.989m7.957 4.504c-.07.005-.145-.027-.222-.082-.525-.74-.715-3.271-.957-3.422-.25-.157-1.155 1.402-2.958 1.235-.752-.07-1.519-.564-1.97-.906.042-.575.05-1.919 1.171-1.483.68.267 1.85.996 2.875-.313 1.133-1.447 1.757-1.026 2.133-.712.374.314.126 1.95.685 1.493.559-.458 2.816-3.297 2.816-3.297s1.748-1.781 2.016.092c.268 1.874 1.406 3.949 1.708 3.89.304-.06 3.82-7.282 4.323-7.75.504-.466 2.198-.403 2.118.79-.08 1.197-.254 8.628-.254 8.628s-.198 2.095.127.976c.134-.465.278-.883.459-1.371.866-2.81 2.345-7.607 3.081-10.079l.428-1.49a4.93 4.93 0 0 1 .133-.45c.06-.213.103-.35.116-.386.032-.093.125-.164.254-.215.131-.083.27-.087.429-.092.41-.036.935.017 1.407.153a.78.78 0 0 1 .43.154l.02.014.01.005c.05.038.094.081.132.13l.006.006c.022.028.046.064.07.102.263.39.425 1.112.263 2.393-.405 3.193-.72 9.763-.72 9.763s-.06.315.59-1.068c.023-.048.052-.09.078-.134a.564.564 0 0 0 .124-.118c.402-.484 1.484-.769 2.233-.762.317.038.582.119.74.219.297.456.121 2.136.121 2.136-.623.06-1.814.398-2.234.46-.424.064-1.063 2.832-1.953 2.548-.89-.282-2.876-1.541-2.876-1.714 0-.15.156-1.99.198-2.463l.007-.095.002-.018c.028-.373.004-.537-.167-.164-.147.32-.786 2.375-1.5 4.611-.074.195-1.421 4.316-1.599 4.818-.212.582-.388 1.028-.51 1.26-.186.254-.437.415-.789.307-.875-.268-1.982-1.489-1.992-1.793-.02-1.708.082-10.903-.329-10.136-.42.785-3.693 6.237-3.693 6.237-.055.009-.094.007-.144.011-.231-.025-.59-.101-.689-.324-.005-.014-.014-.027-.018-.04a2.652 2.652 0 0 1-.018-.056c-.044-.15-.063-.312-.102-.446a55.687 55.687 0 0 0-.627-1.943c-.376-1.242-.764-2.513-.829-2.653-.124-.274-.306-.158-.47 0-.73.627-2.281 3.391-3.683 3.544z" fill="#fff"/></svg>