<svg width="297" height="333" viewBox="0 0 297 333" fill="none" xmlns="http://www.w3.org/2000/svg"><g filter="url(#a)" shape-rendering="crispEdges"><path d="M220.252 216.623c-3.026 6.005-6.569 11.022-10.527 14.623a28.087 28.087 0 0 1-3.613 2.808 22.013 22.013 0 0 1-3.624 1.91c-18.053 7.455-36.531-9.516-57.184-7.514-17.304 1.68-29.765 11.299-40.81 19.376-3.901 2.853-7.628 5.523-11.345 7.571a40.217 40.217 0 0 1-3.14 1.587 37.997 37.997 0 0 1-3.58 1.4c-.006.003-.012.013-.019.015-.004.001-.005-.001-.008-.004a.016.016 0 0 0-.016-.004c-15.994 5.485-43.001 5.276-54.976-6.527-12.53-12.368-27.763-52.442 6.72-104.057 38.302-57.367 142.969-65.306 170.939-46.333 28.971 19.64 27.809 82.196 11.183 115.149z" fill="url(#b)"/><path d="M219.359 216.173l.001-.001c8.22-16.292 12.646-39.989 11.401-62.059-1.247-22.121-8.165-42.261-22.253-51.811h-.001c-6.773-4.595-18.346-7.64-32.633-8.663-14.248-1.02-31.062-.021-48.207 3.355-34.33 6.76-69.767 23.002-88.706 51.368v.001c-34.258 51.278-18.986 90.808-6.849 102.79 5.744 5.66 15.209 8.627 25.36 9.461 10.126.832 20.737-.475 28.59-3.169a1.13 1.13 0 0 1 .125-.034 37.269 37.269 0 0 0 3.41-1.338l129.762-39.9zm0 0c-2.989 5.933-6.466 10.838-10.307 14.334h-.001m10.308-14.334l-10.308 14.334m0 0a26.945 26.945 0 0 1-3.483 2.707 20.764 20.764 0 0 1-3.458 1.823l-.004.002m6.945-4.532l-6.945 4.532m0 0c-8.651 3.573-17.452 1.328-26.927-1.738-.984-.319-1.976-.646-2.975-.976-8.505-2.809-17.525-5.788-26.996-4.87m56.898 7.584l-56.898-7.584m0 0c-16.857 1.636-29.191 10.681-39.862 18.507l-1.442 1.057h-.001m41.305-19.564l-41.305 19.564m0 0c-3.904 2.856-7.584 5.489-11.236 7.502l-.007.003m11.243-7.505l-11.243 7.505m0 0a39.17 39.17 0 0 1-3.061 1.548l3.061-1.548zm-5.53 3.185l-.02-.02.02.02z" stroke="url(#c)" stroke-width="2"/></g><path d="M222.439 124.969a26.77 26.77 0 0 0 7.479-9.527c.276-.598.541-1.22.541-1.875.011-1.266-.921-2.382-1.991-3.049-2.634-1.657-6.282-1.289-8.732.621-2.451 1.91-3.694 5.154-3.475 8.249.115 1.703.702 3.464 2.002 4.568 1.3 1.105 3.417 1.335 4.683.184-.023-.541-.76-.909-1.197-.587l.69 1.416zm4.327 81.264a26.778 26.778 0 0 0 7.478-9.527c.276-.598.541-1.22.541-1.875.012-1.266-.92-2.382-1.99-3.049-2.624-1.657-6.282-1.289-8.733.621-2.451 1.91-3.693 5.155-3.475 8.25.115 1.702.702 3.463 2.002 4.567 1.3 1.105 3.417 1.335 4.683.184-.023-.54-.759-.909-1.197-.586l.691 1.415z" fill="#32ECFC"/><path d="M223.175 112.439c1.668-.035 3.29-.99 4.119-2.44-.863-1.426-2.313-2.6-3.97-2.68-1.656-.081-3.394 1.265-3.336 2.922.057 1.668 2.404 2.842 3.578 1.645l-.391.553zm9.493-11.529a2.535 2.535 0 0 0 2.22.288c-.092-.334-.184-.679-.391-.955-.207-.276-.575-.46-.909-.368-.46.126-.621.679-.713 1.15-.069-.103-.15-.218-.219-.322l.012.207zm-1.451 2.704a1.247 1.247 0 0 1-.518.46c-.149-.587.23-1.162.622-1.622.218-.253.529-.541.84-.426.218.081.345.311.517.46.357.3 1.036.334 1.082.806.023.264-.207.495-.46.564-.253.069-.53-.001-.783-.058-.564-.127-1.127-.265-1.691-.391l.391.207z" fill="#32ECFC"/><path opacity=".5" d="M252.688 70.8c.471-.104.379-.909-.069-1.105-.449-.195-.955.012-1.404.219.195.644.817 1.127 1.484 1.174l-.011-.288z" fill="#32ECFC"/><path d="M239.354 59.662c-.23.023-.426-.207-.437-.437-.012-.23.126-.437.287-.598a.752.752 0 0 1 .345-.207c.3-.08.645.16.679.471.046.311-.207.622-.517.668-.311.046-.622-.184-.702-.483l.345.586zM230.78 93.88c-.139.472.425.967.874.771.057-.242.081-.518-.023-.748-.104-.23-.357-.414-.61-.357-.253.058-.403.392-.23.587l-.011-.253zm-1.69 10.804c.357.46.932.748 1.519.748-.046-.472-.081-.955-.127-1.427-.023-.23-.046-.46-.172-.644-.253-.357-.863-.334-1.151 0-.288.333-.288.851-.057 1.231l-.012.092z" fill="#32ECFC"/><path opacity=".5" d="M239.319 66.335c0-.16-.011-.322-.011-.483-.242-.115-.564-.046-.714.173-.149.218-.08.563.161.69.242.127.576-.058.587-.322l-.023-.058z" fill="#32ECFC"/><path d="M230.884 97.412c-.265-.172-.61.138-.656.449-.046.31.081.633.081.943a1.181 1.181 0 0 1-.426.852c-.15.115-.357.195-.529.126-.115-.046-.196-.16-.276-.264-.357-.507-.668-1.082-.702-1.715-.035-.621.253-1.3.817-1.564a1.244 1.244 0 0 1 1.231.126c.345.253.552.713.495 1.14l-.035-.093zm5.754 6.19c.265.299.771.276 1.059 0 .287-.276.356-.713.241-1.093-.046-.161-.172-.345-.345-.333-.115.011-.196.126-.265.218-.276.403-.552.794-.828 1.197l.138.011zm8.503-16.487c-.76-.253-1.059-1.37-.518-1.979.552.288 1.139.598 1.45 1.139.31.54.172 1.38-.426 1.576-.334-.138-.679-.264-1.012-.402l.506-.334zm-35.956 51.073c-.058.173-.299.219-.46.138-.162-.08-.254-.253-.323-.425a.964.964 0 0 1-.092-.426c.023-.288.299-.529.587-.552a.824.824 0 0 1 .737.379c.08.116.126.265.092.403-.035.138-.173.253-.311.23l-.23.253zm25.728-45.965c.173 0 .334-.011.506-.011.023-.265.046-.552-.115-.76-.161-.207-.564-.218-.633.035a.497.497 0 0 0 .035.288l.276.897-.069-.449zm3.508-8.318c.403-.115.817-.23 1.139-.484.322-.264.541-.701.403-1.093a.955.955 0 0 0-.38-.471c-.529-.334-1.311-.138-1.622.402-.311.541-.069 1.324.495 1.6l-.035.046zm4.188-1.278c.184-.207.368-.425.563-.632a1.545 1.545 0 0 0-.471-.438c-.369.184-.53.714-.311 1.07h.219zm7.04 25.923a10.655 10.655 0 0 0 1.116-4.718c0-.264-.011-.529-.115-.77-.207-.461-.736-.714-1.231-.771-1.231-.161-2.497.586-3.072 1.691-.564 1.105-.472 2.497.127 3.578.333.599.84 1.139 1.495 1.323.656.184 1.462-.092 1.738-.713-.104-.196-.426-.196-.53-.011l.472.391zm-33.021-6.662a2.549 2.549 0 0 0 1.956-1.104c-.276-.219-.552-.437-.885-.529-.334-.093-.737-.035-.944.253-.288.379-.092.92.115 1.346-.126-.046-.241-.081-.368-.127l.126.161zm1.105-5.488c.195-.104.391-.23.483-.426.08-.195.034-.414-.012-.621a9.496 9.496 0 0 1-.195-1.703c-.598.748-1.197 1.484-1.795 2.232a.71.71 0 0 1-.161.161c-.23.127-.495-.115-.76-.138-.391-.034-.644.38-.759.76-.794 2.646 2.163.31 3.199-.265zm-1.701 10.654a1.959 1.959 0 0 0 1.668-.311 77.277 77.277 0 0 1-.955-1.07c-.149-.172-.31-.345-.529-.414-.426-.138-.886.242-.92.691-.035.437.287.851.69 1.024l.046.08zm5.395-5.373c.391.081.782-.242.851-.633.069-.391-.15-.794-.46-1.024-.138-.103-.345-.172-.472-.057-.08.08-.092.218-.081.333.012.484.035.967.047 1.462l.115-.081zm4.199 5.396c.403-.115.817-.23 1.139-.483.322-.265.541-.702.403-1.093a.953.953 0 0 0-.38-.472c-.529-.334-1.311-.138-1.622.403-.311.541-.069 1.323.495 1.599l-.035.046zM242.643 94.8c.069-.414-.345-.736-.713-.943-.368-.195-.805-.449-.84-.874-.011-.115.023-.242.115-.31.23-.185.529.103.805.218.219.103.461.092.691.138.552.115 1.012.598 1.081 1.15a.799.799 0 0 1-.678.518.8.8 0 0 1-.748-.414l.287.518z" fill="#32ECFC"/><path d="M241.401 84.457c.069-.414-.345-.736-.713-.944-.368-.195-.806-.448-.84-.874-.012-.115.023-.242.115-.31.23-.185.529.103.805.218.219.103.461.092.691.138.552.115 1.012.598 1.081 1.15a.8.8 0 0 1-.679.518.802.802 0 0 1-.748-.414l.288.518zm5.213-5.776a2.08 2.08 0 0 0 .598-.816.375.375 0 0 0 .046-.162c0-.103-.08-.195-.172-.253a.667.667 0 0 0-.737.08.815.815 0 0 0-.264.703.544.544 0 0 0 .184.38c.115.091.287.103.391 0 0-.047-.069-.07-.104-.047l.058.115zm-29.009 40.178a2.55 2.55 0 0 0 1.956-1.105c-.276-.218-.552-.437-.886-.529-.334-.092-.736-.023-.943.253-.288.38-.092.921.115 1.346-.127-.046-.253-.08-.368-.126l.126.161zm-5.717-4.499c.173.461.921.518 1.162.092-.103-.23-.253-.46-.471-.575-.219-.126-.53-.115-.702.081-.161.195-.081.552.161.61l-.15-.208zm11.16-6.523c.173.46.921.517 1.162.092-.103-.231-.253-.461-.471-.576-.219-.126-.529-.115-.702.081-.161.195-.081.552.161.61l-.15-.207zm-8.96 9.285c-.311.023-.403.483-.253.759.149.276.437.449.621.714.184.264.253.621.173.932-.046.184-.161.368-.345.414a.585.585 0 0 1-.369-.046c-.598-.196-1.185-.472-1.587-.944-.403-.471-.576-1.196-.276-1.737.207-.38.632-.633 1.07-.644.437 0 .862.241 1.081.621l-.115-.069zm26.186-25.9c-.311.024-.403.484-.254.76.15.276.438.449.622.713.184.265.253.622.172.932-.046.184-.161.368-.345.414-.126.035-.253 0-.368-.045-.598-.196-1.185-.472-1.588-.944s-.575-1.197-.276-1.737a1.28 1.28 0 0 1 1.07-.645c.437-.011.863.242 1.082.622l-.115-.07zm3.3 2.439c-.31.023-.402.484-.253.76.15.276.437.448.622.713.184.265.253.621.172.932-.046.184-.161.368-.345.414-.127.035-.253 0-.368-.046-.599-.195-1.185-.471-1.588-.943s-.575-1.197-.276-1.738a1.28 1.28 0 0 1 1.07-.644c.437 0 .863.242 1.081.621l-.115-.069zm-4.716 4.212c-.311.023-.403.483-.254.76.15.275.438.448.622.713.184.264.253.62.172.932-.046.184-.161.368-.345.414a.583.583 0 0 1-.368-.046c-.598-.196-1.185-.472-1.588-.944-.403-.471-.575-1.196-.276-1.737a1.28 1.28 0 0 1 1.07-.644c.437 0 .863.241 1.082.62l-.115-.068zm-22-38.453c-.311.024-.403.484-.254.76.15.276.449.449.622.713.184.265.253.622.172.932-.046.184-.161.368-.345.415a.583.583 0 0 1-.368-.046c-.598-.196-1.185-.472-1.588-.944s-.575-1.197-.276-1.737a1.28 1.28 0 0 1 1.07-.645c.437 0 .863.242 1.082.622l-.115-.07zm-2.67 51.143c.138-.103.265-.207.403-.31-.138-.219-.288-.461-.541-.541-.253-.069-.575.161-.483.403.034.092.115.149.195.207.254.184.507.368.76.563l-.334-.322zm9.759-31.836c.402-.115.816-.23 1.139-.483.322-.265.54-.702.402-1.093a.958.958 0 0 0-.379-.472c-.53-.334-1.312-.138-1.623.403-.31.54-.069 1.323.495 1.599l-.034.046zm2.714 34.69c-.333.494-1.242.356-1.415-.207a2.37 2.37 0 0 1 .495-.852c.322.161.587.449.713.783l.207.276z" fill="#32ECFC"/><path opacity=".5" d="M228.824 76.679c.219-.104.438-.219.587-.391.15-.184.23-.449.104-.656-.196-.345-.714-.276-1.036-.495-.333-.218-.46-.702-.84-.794-.379-.092-.724.322-.713.714.012.39.265.724.518 1.012.23.265.483.518.817.621.333.104.748-.011.897-.322l-.334.31z" fill="#32ECFC"/><path d="M233.854 97.47c1.358.978 3.234 1.173 4.764.517.161-1.656-.288-3.474-1.576-4.533-1.278-1.058-3.475-1.024-4.43.345-.944 1.37.23 3.717 1.875 3.463l-.633.207zm-4.213 18.375c-.195-.115-.218-.415-.092-.61.127-.184.369-.276.587-.311a.955.955 0 0 1 .403.035c.287.115.414.506.264.782a.598.598 0 0 1-.805.219c-.276-.15-.391-.518-.276-.806l-.081.691zm1.957-8.952c-.08-.414-.575-.587-.989-.644-.414-.069-.909-.161-1.082-.541a.38.38 0 0 1 0-.334c.15-.253.529-.08.829-.057.23.023.46-.069.701-.104.553-.08 1.151.23 1.404.725a.795.795 0 0 1-.472.713.801.801 0 0 1-.839-.149l.448.391zm-2.232-13.22c.092-.127.185-.265.277-.391-.127-.23-.426-.368-.679-.288-.253.08-.403.403-.288.644.115.242.495.3.667.092l.023-.057zm-1.624 9.101c-.149.103-.368 0-.448-.161-.081-.161-.058-.357-.012-.529a1.07 1.07 0 0 1 .184-.403c.196-.219.552-.253.806-.092.253.149.379.46.356.748-.011.138-.057.287-.172.379-.115.092-.288.104-.392-.011l-.322.069zm-12.896-5.316c.391 1.623 1.668 3.003 3.268 3.51 1.208-1.15 2.048-2.808 1.772-4.453-.276-1.645-1.956-3.049-3.579-2.635-1.61.414-2.255 2.957-.851 3.843l-.61-.265zm1.875 12.933c.472-.104.379-.909-.069-1.105-.449-.195-.955.012-1.404.219a1.71 1.71 0 0 0 1.484 1.173l-.011-.287zm17.536 2.543c.092-.127.184-.265.276-.392-.126-.23-.426-.368-.679-.287-.253.08-.402.403-.287.644.115.242.494.299.667.092l.023-.057z" fill="#32ECFC"/><path d="M228.008 106.674a11.526 11.526 0 0 0 3.36-4.038c.126-.253.253-.518.264-.805.024-.553-.368-1.047-.828-1.347-1.116-.747-2.704-.632-3.797.162-1.081.793-1.668 2.186-1.611 3.532.035.736.265 1.507.806 2.002.552.494 1.461.621 2.025.138 0-.242-.322-.403-.518-.265l.299.621zm-16.212-24.208c1.668-.034 3.291-.989 4.119-2.439-.863-1.426-2.313-2.6-3.97-2.68-1.656-.081-3.394 1.265-3.336 2.922.057 1.668 2.405 2.842 3.578 1.645l-.391.552zm31.319-3.29a2.55 2.55 0 0 0 1.956-1.105c-.276-.218-.552-.437-.886-.529-.334-.092-.736-.034-.944.253-.287.38-.092.92.115 1.346-.126-.046-.241-.08-.368-.126l.127.16zm1.092-5.488c.196-.104.391-.23.484-.426.08-.196.034-.414-.012-.621a9.59 9.59 0 0 1-.196-1.703c-.598.748-1.196 1.484-1.794 2.232a.696.696 0 0 1-.162.16c-.23.127-.494-.114-.759-.137-.391-.035-.644.38-.759.76-.794 2.645 2.163.31 3.198-.265zm-11.102 32.043l.564-.633c-.438-.345-1.105-.472-1.554-.15-.448.334-.425 1.185.104 1.358.334.104.886.138.782.472l.104-1.047zm.921-24.081a1.25 1.25 0 0 1-.518.46c-.15-.587.23-1.163.621-1.623.219-.253.53-.54.84-.425.219.08.345.31.518.46.357.299 1.035.333 1.081.805.023.265-.207.495-.46.564-.253.069-.529 0-.782-.058-.564-.126-1.128-.264-1.692-.39l.392.206zm-7.688-4.96c.472-.103.38-.908-.069-1.104-.449-.196-.955.011-1.404.219a1.71 1.71 0 0 0 1.484 1.173l-.011-.287z" fill="#32ECFC"/><path opacity=".5" d="M235.682 72.123c-.23.023-.426-.207-.437-.438-.012-.23.126-.437.287-.598a.757.757 0 0 1 .346-.207c.299-.08.644.161.678.472.046.31-.207.621-.517.667-.311.046-.622-.184-.702-.483l.345.587z" fill="#32ECFC"/><path d="M237.398 74.677c.173.46.92.518 1.162.092-.103-.23-.253-.46-.472-.575-.218-.127-.529-.115-.701.08-.162.196-.081.552.161.61l-.15-.207zm5.118 9.665a1.963 1.963 0 0 0 1.669-.31 70.694 70.694 0 0 1-.955-1.07c-.15-.173-.311-.346-.53-.415-.425-.138-.886.242-.92.69-.035.45.288.852.69 1.024l.046.081z" fill="#32ECFC"/><path opacity=".5" d="M228.919 71.226a.897.897 0 0 1-.829-.484.863.863 0 0 1 .127-.943c.149-.173.449-.276.598-.092a.518.518 0 0 1 .092.276c.058.426.115.852.173 1.266h-.219l.058-.023zm-3.201-5.846c.069-.413-.346-.736-.714-.943-.368-.195-.805-.448-.84-.874-.011-.115.023-.242.115-.31.23-.185.53.103.806.218.218.103.46.092.69.138.552.115 1.013.598 1.082 1.15a.801.801 0 0 1-.679.518.8.8 0 0 1-.748-.414l.288.518zm19.56 32.838c.069-.415-.345-.737-.713-.944-.368-.195-.806-.449-.84-.874-.012-.115.023-.242.115-.31.23-.185.529.102.805.218.219.103.46.092.691.138.552.115 1.012.598 1.081 1.15a.8.8 0 0 1-.679.518.801.801 0 0 1-.748-.414l.288.518zm-15.831-34.782c.126-.092.264-.184.391-.276-.046-.265-.276-.495-.541-.495s-.518.253-.483.518c.034.265.368.449.598.31l.035-.057z" fill="#32ECFC"/><path d="M239.594 77.45c-.311.023-.403.483-.253.76.149.276.437.448.621.713.184.264.253.621.172.932-.046.184-.161.368-.345.414-.126.034-.253 0-.379-.046-.599-.196-1.186-.472-1.588-.944-.403-.471-.576-1.196-.276-1.737.207-.38.632-.633 1.07-.644.437 0 .863.241 1.081.621l-.103-.069zm8.307 1.507c.391.08.783-.241.852-.632.069-.392-.15-.794-.461-1.024-.138-.104-.345-.173-.471-.058-.081.08-.092.219-.081.334.012.483.035.966.046 1.46l.115-.08zm-21.307 4.579c-.759-.253-1.059-1.369-.518-1.979.552.288 1.139.599 1.45 1.14.311.54.172 1.38-.426 1.576-.333-.138-.679-.265-1.012-.403l.506-.334z" fill="#32ECFC"/><path opacity=".5" d="M239.698 70.88c.138-.103.265-.207.403-.31-.138-.22-.288-.46-.541-.541-.253-.07-.575.16-.483.403.034.091.115.149.195.207.253.184.506.368.76.563l-.334-.322z" fill="#32ECFC"/><path d="M222.947 112.22c.402-.115.816-.23 1.139-.483.322-.253.54-.702.402-1.093a.957.957 0 0 0-.379-.472c-.53-.334-1.312-.138-1.623.403-.31.541-.069 1.323.495 1.599l-.034.046zm-6.698-23.701c.184-.208.368-.426.564-.633a1.56 1.56 0 0 0-.472-.438c-.368.185-.529.714-.31 1.07h.218zm-6.717 40.971c-.23.023-.426-.207-.438-.437-.011-.23.127-.438.288-.599a.757.757 0 0 1 .345-.207c.299-.08.645.161.679.472.046.311-.207.621-.518.667-.31.046-.621-.184-.702-.483l.346.587zm13.553-42.41c.184-.207.368-.425.564-.632a1.56 1.56 0 0 0-.472-.438c-.368.185-.529.714-.31 1.07h.218zm17.902 14.658c.31.069.529-.333.46-.644s-.288-.564-.391-.863a1.13 1.13 0 0 1 .115-.943c.103-.162.265-.311.449-.3.126.012.241.081.345.15.506.357.989.794 1.242 1.369.242.575.196 1.312-.241 1.749a1.26 1.26 0 0 1-1.208.299 1.256 1.256 0 0 1-.852-.909l.081.092zm-16.591 2.704c-.23.035-.483.081-.678.207-.196.127-.345.368-.299.599.08.379.598.471.851.782.253.299.23.805.575 1.012.334.196.794-.092.898-.471.103-.38-.035-.771-.196-1.128-.138-.311-.311-.633-.598-.828-.288-.196-.725-.207-.955.046l.402-.219zm11.987-13.714a9.414 9.414 0 0 0-1.611 3.958c-.034.23-.069.471 0 .69.115.437.541.713.967.84 1.058.31 2.255-.173 2.899-1.059.644-.886.76-2.105.38-3.14-.207-.564-.575-1.105-1.128-1.358-.552-.254-1.288-.127-1.61.39.057.185.345.23.46.081l-.357-.402zm6.178 8.41c.184.115.392.23.61.207.207-.023.38-.172.529-.31.426-.38.898-.725 1.381-1.013l-2.83-.449a.488.488 0 0 1-.219-.069c-.23-.138-.149-.483-.264-.724-.162-.346-.656-.368-1.036-.288-2.669.633.817 2.036 1.829 2.646z" fill="#32ECFC"/><path d="M236.729 90.843c.138-.08.276-.173.415-.253-.023-.265-.242-.507-.507-.53-.264-.023-.529.208-.517.472.011.265.333.472.575.345l.034-.034zm6.743 3.842c.115.38.598.564.967.426.368-.138.609-.518.655-.909.023-.172-.023-.391-.184-.437-.115-.035-.23.034-.333.092a69.81 69.81 0 0 0-1.243.77l.138.058zm-3.82-3.566a2.533 2.533 0 0 0 1.922 1.15c.057-.345.103-.702.023-1.035-.081-.334-.345-.656-.691-.702-.471-.057-.839.38-1.104.77a24.998 24.998 0 0 1-.069-.39l-.081.207zm-1.059-3.349c-.23 0-.471-.08-.655-.23.437-.425 1.127-.38 1.714-.276.333.058.725.185.794.518.046.23-.104.449-.138.68-.081.46.218 1.058-.161 1.334-.219.16-.53.069-.725-.127-.184-.195-.265-.46-.345-.713-.173-.552-.334-1.105-.507-1.669l.023.484zm1.886 8.699a1.945 1.945 0 0 0 1.093 1.288c.149-.46.299-.909.448-1.369.069-.219.138-.437.092-.656-.092-.437-.656-.644-1.058-.46-.403.184-.598.679-.541 1.116l-.034.08zm4.536-5.959c-.172-.265-.621-.116-.782.16-.161.276-.173.61-.311.898a1.128 1.128 0 0 1-.725.61c-.184.046-.402.046-.529-.093-.092-.092-.126-.218-.149-.345-.127-.61-.185-1.265.034-1.852.207-.587.748-1.093 1.369-1.105.437-.011.863.23 1.082.61.218.38.218.863 0 1.243l.011-.127zm-19.597 5.82c.299.288.598.599.989.749.392.15.875.115 1.151-.196a.907.907 0 0 0 .219-.564c.034-.621-.53-1.208-1.151-1.208s-1.174.598-1.139 1.22h-.069zm5.605 7.364a2.532 2.532 0 0 0 1.922 1.151c.057-.345.103-.702.023-1.036-.081-.333-.345-.655-.69-.701-.472-.058-.84.379-1.105.771-.023-.127-.046-.254-.069-.392l-.081.207zm7.765-17.384c.092-.415-.287-.76-.644-.99-.357-.23-.771-.506-.771-.932 0-.115.035-.242.138-.3.242-.172.518.139.783.277.207.115.46.115.678.184.541.15.967.667 1.001 1.231a.796.796 0 0 1-.713.472.796.796 0 0 1-.713-.472l.241.53zm-25.657 19.812c.058-.15.127-.299.184-.449-.172-.195-.495-.264-.725-.126-.23.138-.299.483-.126.69.172.207.552.173.667-.057v-.058zm23.391-9.515c.161.057.31.126.471.184.127-.23.253-.483.196-.736-.058-.254-.426-.426-.587-.22a.486.486 0 0 0-.08.277l-.104.932.104-.437z" fill="#32ECFC"/><path d="M147.938 217.819a18.273 18.273 0 0 0-7.467-3.532c-.437-.092-.897-.173-1.335-.081-.851.184-1.438.967-1.726 1.784-.701 2.002.093 4.372 1.726 5.706 1.646 1.347 3.981 1.68 6.018 1.059 1.116-.334 2.197-.99 2.738-2.025.541-1.036.368-2.474-.587-3.141-.356.092-.483.644-.207.886l.84-.656z" fill="#fff"/><path d="M139.491 219.223a3.37 3.37 0 0 0-2.244-2.37c-.816.794-1.38 1.933-1.185 3.049.196 1.116 1.358 2.071 2.451 1.783 1.093-.287 1.519-2.025.552-2.623l.426.161zm-9.099-4.568a1.692 1.692 0 0 0-.15-1.519c-.207.104-.425.219-.575.403-.15.184-.219.449-.104.656.162.288.553.311.875.299-.058.069-.127.127-.184.196l.138-.035zm2.013.552c.15.046.288.15.38.276-.369.184-.806.023-1.174-.161-.207-.103-.437-.264-.414-.495.011-.161.149-.276.23-.414.138-.287.069-.736.368-.84.173-.057.357.058.449.219.08.161.08.345.08.529v1.185l.081-.299z" fill="#fff"/><path opacity=".5" d="M107.334 205.887c-.138-.299-.656-.115-.725.208-.058.322.161.632.357.897a1.15 1.15 0 0 0 .552-1.174l-.184.069z" fill="#fff"/><path d="M101.95 216.438c.046.15-.069.311-.219.357-.149.046-.31-.012-.437-.104a.531.531 0 0 1-.196-.195c-.092-.184.012-.449.208-.53.195-.069.448.046.517.242a.44.44 0 0 1-.218.541l.345-.311zm24.047.53c.333.023.575-.426.38-.702-.173 0-.357.023-.495.126-.138.104-.219.3-.15.461.069.161.322.207.426.069l-.161.046zm7.444-.507c.253-.31.357-.736.265-1.127-.311.103-.622.195-.932.299-.15.046-.3.103-.403.219-.196.23-.092.621.173.77.264.15.609.058.828-.149l.069-.012z" fill="#fff"/><path opacity=".5" d="M106.392 215.449c-.104.023-.219.057-.322.081-.035.172.057.379.23.448.172.069.391-.034.437-.207.046-.173-.127-.38-.299-.345l-.046.023z" fill="#fff"/><path d="M128.331 216.358c-.069.207.184.391.402.368.219-.023.403-.149.622-.195a.79.79 0 0 1 .633.149c.103.081.184.207.161.334a.423.423 0 0 1-.127.218c-.288.311-.621.61-1.024.725-.414.115-.897.023-1.162-.31a.846.846 0 0 1-.104-.84.86.86 0 0 1 .679-.506l-.08.057zm3.246-4.752c.161-.219.069-.553-.161-.702-.219-.15-.529-.127-.771 0-.104.057-.207.172-.161.276.023.08.115.115.184.149.311.127.61.254.92.38l-.011-.103zm-12.242-3.164c-.058.541-.748.909-1.231.644.103-.414.218-.851.54-1.127.311-.288.886-.323 1.116.046-.034.241-.08.494-.115.736l-.31-.299zm39.395 16.2c.126.011.195.161.161.287a.542.542 0 0 1-.23.276.613.613 0 0 1-.276.127c-.196.023-.392-.115-.461-.311a.561.561 0 0 1 .15-.552c.069-.069.161-.126.253-.126s.196.08.196.172l.207.127zm-34.46-10.171c-.023-.115-.057-.219-.08-.334-.173.023-.369.058-.484.184-.115.138-.057.403.115.415a.356.356 0 0 0 .184-.07c.185-.103.369-.207.553-.322l-.288.127zm-6.052-1.082c-.138-.253-.276-.506-.495-.679-.218-.172-.552-.253-.794-.103a.637.637 0 0 0-.253.322c-.149.403.104.897.507 1.013.402.126.885-.15.989-.564l.046.011zm-1.483-2.588c-.173-.092-.334-.184-.507-.276a.966.966 0 0 0-.218.379.542.542 0 0 0 .759.046l-.034-.149zm16.165-8.595a7.279 7.279 0 0 0-3.302-.035 1.24 1.24 0 0 0-.495.196c-.276.207-.357.598-.334.943.081.84.771 1.577 1.588 1.784.817.207 1.726-.058 2.359-.622.345-.31.633-.724.656-1.196.023-.46-.277-.967-.737-1.047-.115.092-.069.31.069.357l.196-.38zm.562 22.954a1.697 1.697 0 0 0-1.024-1.128c-.103.219-.207.437-.218.667-.012.242.092.495.31.599.299.138.622-.081.875-.276l-.035.264.092-.126zm-3.807.103c-.104-.115-.207-.23-.357-.253-.138-.023-.276.035-.414.104a7.47 7.47 0 0 1-1.105.391c.587.287 1.174.575 1.761.851a.454.454 0 0 1 .126.081c.115.138 0 .345.023.529.035.265.357.368.622.391 1.875.127-.116-1.484-.656-2.094zm7.341-.483a1.284 1.284 0 0 0-.46-1.059c-.184.265-.38.53-.564.794-.092.127-.184.265-.195.415-.023.299.299.552.598.506.299-.046.529-.322.575-.622l.046-.034zm18.708 5.603c-.103.023-.218.058-.322.081-.034.172.058.379.23.448.173.069.391-.034.438-.207.046-.172-.127-.38-.3-.345l-.046.023zm-23.105-8.364c0-.265-.276-.483-.552-.472-.264.012-.506.219-.61.46-.046.104-.069.265.035.322.069.046.161.023.241 0 .323-.08.645-.172.967-.253l-.081-.057zm2.959-3.625c-.138-.253-.276-.506-.495-.679-.218-.172-.552-.253-.794-.103a.642.642 0 0 0-.253.322c-.149.403.104.898.506 1.013.403.126.886-.15.99-.564l.046.011zm-10.735-9.446c-.288.023-.438.345-.518.621-.081.276-.184.599-.449.691-.08.023-.161.023-.23-.023-.161-.127-.011-.368.023-.564.035-.161-.011-.322-.011-.483a.962.962 0 0 1 .598-.898.536.536 0 0 1 .449.368.574.574 0 0 1-.162.564l.3-.276z" fill="#fff"/><path d="M118.127 211.33c-.287.023-.437.345-.517.621-.081.276-.185.599-.449.691-.081.023-.161.023-.23-.023-.161-.127-.012-.369.023-.564.034-.161-.012-.322-.012-.483a.964.964 0 0 1 .599-.898.534.534 0 0 1 .448.368.572.572 0 0 1-.161.564l.299-.276zm-4.625-2.601a1.563 1.563 0 0 0-.632-.276.204.204 0 0 0-.115 0 .224.224 0 0 0-.139.15.437.437 0 0 0 .162.471.565.565 0 0 0 .506.07.44.44 0 0 0 .23-.173.211.211 0 0 0-.058-.265c-.034.012-.034.058-.011.081l.057-.058zm31.101 13.232a1.7 1.7 0 0 0-1.024-1.128c-.104.219-.207.437-.219.668-.011.241.092.494.311.598.299.138.621-.081.874-.276l-.034.264.092-.126zm-2.129 4.476c.276-.184.207-.691-.115-.794-.138.103-.265.23-.311.402-.046.173 0 .369.161.449.15.081.38-.023.38-.195l-.115.138zm-6.018-6.443c.276-.184.207-.69-.115-.794-.138.104-.264.23-.31.403-.046.172 0 .368.161.448.149.081.379-.023.379-.195l-.115.138zm7.524 4.567c.069.207.38.196.541.057.161-.149.23-.368.379-.529a.779.779 0 0 1 .599-.253c.126 0 .276.046.333.173.035.08.035.172.023.253-.034.425-.138.863-.391 1.196-.253.346-.702.564-1.116.449a.85.85 0 0 1-.587-.61.843.843 0 0 1 .254-.805l-.035.069zm-21.182-13.507c.069.207.38.195.541.057.161-.149.23-.368.38-.529a.772.772 0 0 1 .598-.253c.127 0 .276.057.334.172a.49.49 0 0 1 .023.253c-.035.426-.138.863-.391 1.197-.254.345-.702.564-1.116.449a.85.85 0 0 1-.587-.61.841.841 0 0 1 .253-.805l-.035.069zm1.127-2.566c.069.207.38.196.541.058.161-.15.23-.369.38-.53a.775.775 0 0 1 .598-.253c.127 0 .276.058.334.173.034.08.034.172.023.253-.035.426-.138.863-.391 1.197-.254.345-.702.563-1.116.448a.848.848 0 0 1-.587-.61.842.842 0 0 1 .253-.805l-.035.069zm3.51 2.508c.069.208.38.196.541.058.161-.15.23-.368.38-.529a.772.772 0 0 1 .598-.253c.126 0 .276.057.334.172a.49.49 0 0 1 .023.253c-.035.426-.139.863-.392 1.197-.253.345-.701.564-1.116.449a.851.851 0 0 1-.586-.61.841.841 0 0 1 .253-.806l-.035.069zm-22.24 20.445c.069.207.38.196.541.058.161-.15.23-.368.379-.529a.78.78 0 0 1 .599-.254c.126 0 .276.058.333.173a.47.47 0 0 1 .023.253c-.034.426-.138.863-.391 1.197-.253.345-.702.564-1.116.449a.851.851 0 0 1-.587-.61.846.846 0 0 1 .253-.806l-.034.069zm34.401-5.959c-.092-.069-.184-.15-.265-.219-.126.127-.264.265-.276.437-.011.173.196.357.345.265.058-.035.081-.104.115-.161.081-.196.173-.391.253-.587l-.172.265zm-22.632-1.68c-.138-.253-.276-.506-.495-.679-.218-.172-.552-.253-.794-.103a.637.637 0 0 0-.253.322c-.149.403.104.897.507 1.012.402.127.886-.149.989-.563l.046.011zm22.643-7.053c.38.149.426.771.08.978a1.75 1.75 0 0 1-.632-.196c.057-.241.207-.46.414-.598l.138-.184z" fill="#fff"/><path opacity=".5" d="M114.859 220.868c-.104-.127-.207-.253-.357-.334a.42.42 0 0 0-.46.023c-.196.184-.08.518-.172.771-.093.253-.403.414-.403.679 0 .265.322.437.587.368.253-.069.437-.287.598-.495.138-.195.265-.402.288-.644.023-.241-.116-.495-.357-.541l.276.173z" fill="#fff"/><path d="M127.931 214.379a3.348 3.348 0 0 0-.38-3.244c-1.128.138-2.267.713-2.773 1.725-.506 1.013-.149 2.463.898 2.888 1.047.426 2.439-.713 2.013-1.772l.242.403zm12.851.023c-.046.149-.242.207-.391.149-.15-.057-.242-.195-.299-.345a.527.527 0 0 1-.035-.264c.035-.207.276-.357.483-.299.207.057.334.299.276.506a.452.452 0 0 1-.494.31l.46-.057zm-6.249.057c-.265.115-.299.472-.288.748.023.288.035.633-.195.794-.058.046-.15.069-.219.046-.196-.069-.138-.345-.161-.541-.023-.161-.115-.299-.173-.448a.953.953 0 0 1 .277-1.047.522.522 0 0 1 .54.207.54.54 0 0 1 .035.586l.184-.345zm-8.455 3.487c-.104-.046-.208-.081-.311-.127a.404.404 0 0 0-.092.495c.092.149.334.207.472.092.138-.115.126-.38-.035-.46h-.034zm6.292-.299c.092.08.058.253-.035.322-.092.08-.23.092-.356.08a.485.485 0 0 1-.288-.069c-.172-.092-.253-.333-.184-.518a.594.594 0 0 1 .449-.356c.092-.012.207 0 .276.057.08.058.115.184.057.253l.081.231zm-1.575 9.377a3.379 3.379 0 0 0 1.841-2.704c-.943-.633-2.186-.944-3.233-.506-1.047.437-1.726 1.76-1.208 2.772.518 1.013 2.313 1.059 2.681-.023l-.081.461zm8.318-3.199c-.138-.299-.656-.115-.725.207-.057.322.161.633.357.897.403-.23.633-.713.552-1.162l-.184.058zm-.967-12.046c-.104-.046-.207-.081-.311-.127a.404.404 0 0 0-.092.495c.092.149.334.207.472.092.138-.115.126-.38-.035-.46h-.034z" fill="#fff"/><path d="M134.925 216.875a8.005 8.005 0 0 0-3.187-1.622 1.39 1.39 0 0 0-.575-.046c-.368.069-.633.403-.771.748-.333.863-.011 1.898.679 2.497.69.598 1.703.782 2.589.54.483-.126.966-.402 1.208-.839.242-.438.196-1.07-.207-1.37-.161.035-.219.277-.104.38l.368-.288zm-13.645 14.44a3.372 3.372 0 0 0-2.243-2.37c-.817.794-1.381 1.933-1.186 3.049.196 1.116 1.358 2.071 2.451 1.783 1.093-.287 1.519-2.025.552-2.623l.426.161zm-6.915-20.33a1.702 1.702 0 0 0-1.024-1.128c-.104.219-.208.437-.219.668-.012.241.092.494.311.598.299.138.621-.081.874-.276l-.034.264.092-.126zm-3.82.103c-.103-.115-.207-.23-.356-.253-.138-.023-.276.034-.415.104a7.417 7.417 0 0 1-1.104.391c.587.287 1.173.575 1.76.851a.475.475 0 0 1 .127.081c.115.138 0 .345.023.529.034.265.357.368.621.391 1.876.127-.115-1.496-.656-2.094zm22.989 2.543c-.173-.092-.334-.184-.506-.276-.161.345-.15.805.138 1.058.288.253.851.104.886-.276.023-.23-.046-.61.195-.587l-.713.081zm-16.154 3.026a.758.758 0 0 1 .379.276c-.368.184-.805.023-1.173-.161-.207-.104-.437-.265-.414-.495.011-.161.149-.276.23-.414.149-.288.069-.736.368-.84.172-.057.356.058.449.219.08.161.08.345.08.529v1.185l.081-.299zm-2.14 5.868c-.138-.3-.656-.115-.725.207-.057.322.161.633.357.897.403-.23.633-.713.552-1.173l-.184.069z" fill="#fff"/><path opacity=".5" d="M110.786 217.002c.046.15-.069.311-.219.357-.149.046-.31-.012-.437-.104a.531.531 0 0 1-.196-.195c-.092-.184.012-.449.207-.53.196-.069.449.046.518.242a.44.44 0 0 1-.218.541l.345-.311z" fill="#fff"/><path d="M112.236 215.472c.276-.184.207-.69-.115-.794-.139.104-.265.23-.311.403-.046.161 0 .368.161.448.161.081.38-.023.38-.195l-.115.138zm5.649-4.867a1.285 1.285 0 0 0-.46-1.059c-.184.265-.38.529-.564.794-.092.127-.184.265-.196.414-.023.299.299.552.599.506.299-.046.529-.322.575-.621l.046-.034z" fill="#fff"/><path opacity=".5" d="M111.213 221.628a.632.632 0 0 1-.196.621.577.577 0 0 1-.644.057c-.138-.069-.253-.264-.149-.391.034-.057.103-.08.172-.103l.817-.311c.012.046.023.103.035.149l-.035-.022zm-3.396 3.014c-.288.023-.437.345-.518.621-.081.276-.184.599-.449.691-.08.023-.161.023-.23-.023-.161-.127-.011-.369.023-.564.035-.161-.011-.322-.011-.484a.962.962 0 0 1 .598-.897.536.536 0 0 1 .449.368.576.576 0 0 1-.161.564l.299-.276zm18.881-17.972c-.288.023-.438.345-.518.621-.081.276-.184.598-.449.69-.08.023-.161.023-.23-.023-.161-.126-.011-.368.023-.563.035-.161-.011-.323-.011-.484a.962.962 0 0 1 .598-.897.536.536 0 0 1 .449.368.574.574 0 0 1-.162.564l.3-.276zm-20.744 15.786c-.08-.069-.161-.15-.241-.219-.173.069-.288.253-.242.437.035.173.242.311.414.242.173-.058.242-.311.115-.449l-.046-.011z" fill="#fff"/><path d="M113.742 213.585c.069.207.379.195.541.057.161-.149.23-.368.379-.529a.773.773 0 0 1 .598-.253c.127 0 .277.057.334.173.035.08.035.172.023.253-.034.425-.138.863-.391 1.196-.253.345-.702.564-1.116.449a.85.85 0 0 1-.587-.61.844.844 0 0 1 .253-.805l-.034.069zm-.252-5.753c0-.265-.276-.483-.552-.472-.265.012-.506.219-.61.461-.046.103-.069.264.034.322.07.046.162.023.242 0 .322-.081.644-.173.967-.253l-.081-.058zm6.27 13.485c-.057.541-.747.909-1.231.644.104-.414.219-.851.541-1.127.322-.277.886-.323 1.116.046-.034.241-.08.494-.115.736l-.311-.299z" fill="#fff"/><path opacity=".5" d="M109.358 214.517c-.092-.069-.184-.15-.265-.219-.127.127-.265.265-.276.437-.012.173.195.357.345.265.058-.034.081-.103.115-.161.081-.196.173-.391.253-.587l-.172.265z" fill="#fff"/><path d="M139.378 219.407c-.138-.254-.276-.507-.495-.679-.218-.173-.552-.253-.793-.104a.638.638 0 0 0-.254.322c-.149.403.104.898.507 1.013.402.126.886-.15.989-.564l.046.012zm-14.751 8.031c-.172-.093-.333-.185-.506-.277a.966.966 0 0 0-.219.38.543.543 0 0 0 .76.046l-.035-.149zm28.27-1.726c.046.149-.069.31-.219.357-.149.046-.31-.012-.448-.104a.527.527 0 0 1-.196-.196c-.092-.184.011-.448.207-.529.196-.069.449.046.518.242a.441.441 0 0 1-.219.541l.357-.311zm-30.26-2.601c-.173-.092-.334-.184-.506-.276a.966.966 0 0 0-.219.38.542.542 0 0 0 .759.046l-.034-.15zm7.053-14.117c0-.218-.311-.299-.506-.207-.196.092-.334.276-.518.391a.794.794 0 0 1-.644.069c-.127-.046-.242-.126-.265-.253a.487.487 0 0 1 .046-.253c.161-.391.38-.782.725-1.036.345-.253.84-.333 1.196-.103.253.161.403.46.38.759a.858.858 0 0 1-.472.702l.058-.069zm4.302 10.632c.058.149.127.31.242.414.115.115.299.172.449.103.241-.115.23-.471.391-.679.161-.218.506-.276.587-.529.08-.253-.185-.506-.449-.518-.265-.011-.506.138-.714.3-.184.138-.379.31-.46.529-.08.218-.034.506.173.621l-.219-.241zm-10.93-5.915c.909.38 1.898.541 2.876.472.161-.012.322-.023.46-.104.265-.138.392-.471.415-.77.046-.748-.449-1.473-1.139-1.772-.691-.299-1.519-.184-2.14.218-.346.219-.645.553-.737.955-.08.403.115.875.506 1.013.115-.069.104-.265-.011-.322l-.23.31zm4.66-5.373c.047-.138.093-.299.047-.437-.047-.138-.173-.219-.288-.311a6.288 6.288 0 0 1-.886-.77c.046.644.092 1.3.127 1.944 0 .058.011.104-.012.15-.058.172-.299.172-.449.287-.207.161-.149.495-.034.725.828 1.714 1.242-.828 1.495-1.588z" fill="#fff"/><path d="M123.085 213.47c-.08-.081-.149-.161-.23-.242-.173.058-.299.242-.276.414.023.185.218.323.391.277.173-.046.265-.3.15-.438l-.035-.011zm1.532-5.063c.231-.138.277-.483.139-.713-.15-.23-.438-.334-.702-.299-.115.011-.253.069-.265.195 0 .081.058.15.115.208.23.241.46.471.702.713l.011-.104zm-1.796 3.084c.369-.38.553-.932.472-1.45-.241.012-.483.035-.69.138-.207.104-.38.322-.357.564.035.322.38.506.679.621l-.242.104.138.023zm-2.06 1.208a.818.818 0 0 1-.046.472c-.345-.219-.426-.691-.437-1.105-.012-.23.011-.506.23-.61.149-.069.311 0 .472-.011.322-.023.678-.311.909-.092.138.115.126.345.023.495-.104.149-.265.241-.415.333l-1.035.587.299-.069zm5.489-2.566c.357-.184.622-.529.691-.92-.323-.035-.645-.058-.978-.092-.15-.012-.311-.023-.449.034-.276.127-.334.529-.15.771.184.242.541.299.817.196l.069.011zm-4.648-2.117c-.149.161.012.426.219.495s.425.023.644.069a.781.781 0 0 1 .518.391c.057.115.092.265.023.368a.467.467 0 0 1-.207.15c-.392.172-.817.31-1.231.264-.426-.057-.84-.333-.944-.747a.865.865 0 0 1 .242-.817.839.839 0 0 1 .828-.184l-.092.011zm6.835 12.15c.15-.242.299-.483.345-.771.046-.276-.057-.598-.299-.736a.645.645 0 0 0-.414-.058c-.414.069-.725.541-.633.955.092.415.575.691.978.576l.023.034zm4.06-4.844c.368-.38.553-.932.472-1.45-.242.012-.483.035-.69.138-.207.104-.38.323-.357.564.035.322.38.506.679.621l-.242.104.138.023zm-12.748-2.531c-.287 0-.46.31-.564.575-.092.265-.218.587-.494.656-.081.023-.161.011-.219-.046-.149-.138.012-.368.069-.564.046-.15.012-.322.023-.483a.979.979 0 0 1 .667-.852c.208.035.38.207.426.403a.523.523 0 0 1-.207.541l.299-.23zm17.064 14.06c-.103-.023-.218-.035-.322-.058-.104.15-.104.368.023.495s.368.126.483-.023c.115-.15.035-.391-.138-.437l-.046.023zm-9.862-14.118c.023-.115.035-.23.058-.345-.173-.046-.357-.103-.518-.023-.161.081-.218.345-.057.426.057.034.126.023.195.011l.633-.069h-.311z" fill="#fff"/><path opacity=".5" d="M124.432 287.9c25.913 0 46.92-4.678 46.92-10.448 0-5.769-21.007-10.447-46.92-10.447s-46.92 4.678-46.92 10.447c0 5.77 21.007 10.448 46.92 10.448z" fill="url(#d)"/><g filter="url(#e)"><path d="M233.643 36.386l3.348 1.438-3.348 37.555-2.876 1.289-15.821 1.576-1.196 6.604-11.506-9.47 31.399-38.992z" fill="url(#f)"/><path d="M115.204 236.895c-1.369 7.985-7.433 26.429-12.875 24.484-1.174-.414-2.405-1.91-3.636-4.096-3.716-6.662-7.375-19.755-9.193-28.614-.99-4.833-1.427-8.4-1.035-8.986 2.427-3.59 25.485 11.989 26.865 13.726.254.334.196 1.622-.126 3.486z" fill="url(#g)"/><path d="M151.723 226.103a68.032 68.032 0 0 1-.299 2.301c-1.634 12.127-4.994 29.95-8.618 36.427-.863 1.553-1.749 2.462-2.623 2.474-.23.011-.46-.023-.702-.104-.817-.241-1.68-.897-2.566-1.887v-.011c-5.488-6.167-11.69-24.887-11.908-30.479-.023-.69.034-1.185.207-1.426 3.129-4.246 25.807-18.754 27.073-17.029.345.484.092 4.338-.564 9.734z" fill="url(#h)"/><path d="M88.475 219.694c-2.554 3.337 18.248 18.432 27.016 14.486 0 0-23.633-18.927-27.016-14.486z" fill="url(#i)"/><path d="M125.018 234.824c-.69 1.703 23.322-2.197 27.28-18.443-.011.011-20.767 2.439-27.28 18.443z" fill="url(#j)"/><path opacity=".3" d="M97.566 233.708c-1.162 1.438.276 20.123 4.763 27.671-1.173-.414-2.404-1.91-3.636-4.096-.724-3.267-1.806-8.123-2.83-12.978-1.312-6.236-4.648-12.645-6.351-15.636-.99-4.833-1.427-8.4-1.036-8.986 2.428-3.59 25.485 11.989 26.866 13.726.253.334.196 1.622-.126 3.486-.012 0-16.477-4.625-17.65-3.187z" fill="url(#k)"/><path d="M138.192 240.485c-.978.299-1.208 8.123.425 8.56 1.634.437 1.841-9.262-.425-8.56z" fill="#fff"/><path opacity=".3" d="M151.721 226.103s-13.139 3.889-16.177 10.125c-3.037 6.225-1.898 21.021 1.381 29.075-5.488-6.167-11.69-24.887-11.908-30.479-.023-.69.034-1.185.207-1.426 3.129-4.246 25.807-18.754 27.072-17.029.334.484.081 4.338-.575 9.734z" fill="url(#l)"/><path d="M94.953 164.87c-.023 6.938-1 16.959-4.142 25.059-5.212 13.416-13.036 30.295-13.266 30.824l-.011.011c-4.775 2.911-10.505 2.762-14.14 2.233-2.21-.323-3.648-.783-3.648-.783s1.622-15.36 10.068-32.768c4.234-8.744 9.641-16.879 14.301-22.873.023-.023.046-.058.07-.081.045-.08.114-.149.172-.23.034-.046.069-.08.092-.126a.36.36 0 0 0 .08-.115c.046-.058.08-.104.127-.15l.023-.023.023-.023c4.729-6.006 8.572-9.642 9.377-9.205.472.254.897 3.544.874 8.25z" fill="url(#m)"/><path d="M59.815 221.604s6.155-10.159 12.506-8.836c6.351 1.323 5.212 7.996 5.212 7.996s-8.123 5.88-17.718.84z" fill="url(#n)"/><path opacity=".3" d="M94.953 164.87c-.023 6.938-1 16.959-4.142 25.059-5.212 13.416-13.036 30.294-13.266 30.824l-.011.011-14.14 2.232c-2.21-.322-3.648-.782-3.648-.782s1.622-15.36 10.068-32.768c4.234-8.745 9.641-16.879 14.301-22.874-2.67 3.521-13.818 18.835-16.821 31.848-3.417 14.808 10.355 9.101 15.993 0 5.626-9.101 11.505-33.539 11.505-33.539h.161v-.011z" fill="url(#o)"/><path d="M79.57 188.537c-1.117-.426 4.67-13.542 6.466-13.657 1.794-.115-5.512 14.025-6.467 13.657zm-.586 1.404c-.886-.472-1.714 1.99-.909 2.347.805.357 1.91-1.818.909-2.347z" fill="#fff"/><path d="M70.273 215.828c-3.29-.54-8.065 2.543-9.55 5.305-1.495 2.761-2.266 18.662 1.496 31.801 0 0 5.304 1.438 9.274 0 3.98-1.438 6.742-13.036 6.96-21.757.208-8.721-2.772-14.463-8.18-15.349z" fill="url(#p)"/><path d="M69.78 253.383s-4.844-27.993 6.167-33.712c0 0 3.267 5.546 2.06 16.373-1.22 10.827-3.084 16.349-8.227 17.339z" fill="url(#q)"/><path opacity=".5" d="M68.987 237.85s2.83 4.131 4.763 4.81c1.933.678 3.44-.035 3.44-.035l-7.145-12.702c0-.012-1.289 5.039-1.058 7.927z" fill="url(#r)"/><path d="M70.043 229.911s1.565-7.755 6.248-9.641c0 0 4.349 4.291 3.244 20.963 0 0-2.428 3.198-5.856 0 .011 0-2.854-5.684-3.636-11.322z" fill="url(#s)"/><path d="M72.726 227.185c-1.588 0 .828 7.041 1.657 6.868.828-.161-.334-6.868-1.657-6.868z" fill="#fff"/><path d="M90.811 66.312s-7.19-6.213-16.004-7.283c0 0-2.692 1.323-5.81 11.023-3.118 9.699 2.635 28.879 2.635 28.879l19.18-32.619z" fill="url(#t)"/><path d="M71.39 63.862s1.416-3.28 3.418-4.833c0 0 7.248 6.685 6.96 22.666l-2.093 2.164-8.284-19.997z" fill="url(#u)"/><path d="M150.365 66.312s7.191-6.213 16.005-7.283c0 0 2.692 1.323 5.81 11.023 3.118 9.699-2.635 28.879-2.635 28.879l-19.18-32.619z" fill="url(#v)"/><path d="M166.368 59.03s-7.122 7.639-7.122 19.95l2.761 1.737 8.031-16.614c-.011-.011-2.68-5.223-3.67-5.074z" fill="url(#w)"/><path d="M161.732 79.878s-1.898-10.517 5.028-18.237c0 0 7.812 3.682 11.057 17.34 3.233 13.656-5.189 21.86-5.189 21.86l-10.896-20.963z" fill="url(#x)"/><path d="M79.443 79.878s1.898-10.517-5.028-18.237c0 0-7.812 3.682-11.057 17.34-3.233 13.656 5.19 21.86 5.19 21.86l10.895-20.963z" fill="url(#y)"/><path d="M171.339 137.981c-16.062 22.517-91.527 20.849-101.353 2.635-6.409-11.897-5.707-29.777.46-46.23 8.1-21.596 25.635-40.753 48.899-40.753 27.372 0 48.405 27.269 54.733 52.178 3.21 12.611 2.658 24.6-2.739 32.17z" fill="url(#z)"/><path d="M75.613 117.098c3.59 15.337 69.932 17.006 86.224 3.107 16.292-13.899-7.168-63.27-43.112-61.118-32.872 1.979-48.991 32.894-43.112 58.011z" fill="#DFE3FB"/><path d="M75.266 115.234c3.59 15.338 69.931 17.006 86.223 3.107 16.292-13.899-7.168-63.27-43.112-61.118-32.871 1.979-48.99 32.895-43.111 58.011z" fill="url(#A)"/><path opacity=".3" d="M171.339 137.981c-16.062 22.517-91.527 20.848-101.353 2.635-6.409-11.897-5.707-29.777.46-46.23 0-.011.012-.011.012-.011-.265.966-6.593 24.035-.138 34.183 6.604 10.378 32.722 8.94 60.761 7.743 28.039-1.208 37.313-5.269 42.019-13.185 3.705-6.225-.023-19.951-1.772-25.52l2.75 8.204c3.21 12.621 2.658 24.61-2.739 32.181z" fill="url(#B)"/><path d="M119.426 154.561c-15.682-.023-26.992-1.784-33.32-4.315h-.012c-4.153-1.657-6.167-3.647-5.868-5.684.184-1.242 3.268-2.335 8.112-3.221 14.244-2.578 43.733-3.36 59.622-.944 1.369.207 2.635.438 3.786.691.241.057.483.115.713.172.046.012.08.023.138.023 2.738.679 4.683 1.496 5.546 2.508.218.254.368.518.448.783 1.473 5.074-24.99 9.998-39.165 9.987z" fill="url(#C)"/><path opacity=".5" d="M158.406 143.32c-.058.15-.139.311-.265.472-1.542 2.174-7.766 4.97-7.766 4.97s-23.955-9.803-43.365-5.442c-19.41 4.349-20.895 6.938-20.895 6.938h-.011c-4.153-1.657-6.167-3.647-5.868-5.684.184-1.243 3.268-2.336 8.112-3.222 14.244-2.577 43.733-3.359 59.622-.943 1.657.299 3.164.587 4.499.863.046.011.08.023.138.023 3.751.805 5.971 1.53 5.799 2.025z" fill="url(#D)"/><path d="M151.746 141.088c-3.705 3.543-21.493 6.615-31.629 6.604-18.168-.023-29.213-2.888-31.78-6.351 15.476-2.796 48.934-3.475 63.409-.253z" fill="url(#E)"/><path d="M150.606 212.147c-2.186 12.932-13.773 21.561-30.375 21.561-14.451 0-26.705-5.384-29.938-17.258-3.233-11.851-1.979-33.781 2.336-47.438a44.446 44.446 0 0 1 2.324-5.868l.011-.023a40.646 40.646 0 0 1 2.727-4.809c.012-.012.012-.023.012-.023 5.269-7.939 12.989-13.128 21.722-13.128 9.09 0 16.039 3.739 20.768 9.262 2.198 2.565 3.923 5.534 5.155 8.675a85.273 85.273 0 0 1 3.566 11.425c0 .023.012.069.023.115 2.992 12.426 3.625 25.957 1.669 37.509z" fill="url(#F)"/><path d="M139.262 153.399s1.415 15.371 10.435 24.714c0 0-2.496-14.325-10.435-24.714z" fill="url(#G)"/><path d="M190.267 134.621c-14.141 28.04-39.085 37.612-39.085 37.612-6.857-4.441-12.829-18.927-10.47-21.757l.011-.012a1.33 1.33 0 0 1 .426-.333c30.433-14.555 39.533-29.662 39.533-29.662 4.108.299 6.455 2.693 7.801 5.442 1.956 4.016 1.784 8.71 1.784 8.71z" fill="url(#H)"/><path opacity=".5" d="M69.986 140.616s3.187-3.716 9.435-6.719c6.247-2.991 12-5.339 12.886-7.743.886-2.405-17.155-.99-17.155-.99l-8.974 3.901c0 .011 1.415 7.248 3.808 11.551z" fill="url(#I)"/><path d="M180.683 120.493c-2.532.678-2.279 17.488.954 19.168 3.234 1.68 8.63-5.028 8.63-5.028s-.599-16.545-9.584-14.14z" fill="url(#J)"/><path d="M132.647 90.417c2.393 4.222 18.271.471 19.168-2.037 1.197-3.36-3.233-13.899-11.621-12.944-8.387.967-8.709 12.933-7.547 14.98z" fill="url(#K)"/><path d="M107.828 90.417c-2.393 4.222-18.27.471-19.168-2.037-1.197-3.36 3.233-13.899 11.62-12.944 8.388.967 8.71 12.933 7.548 14.98z" fill="url(#L)"/><path d="M103.41 98.206s4.522 4.671 17.362 4.671c12.829 0 19.422-5.396 19.422-5.396s-5.661 7.663-19.422 7.663c-13.772.012-17.362-6.938-17.362-6.938z" fill="#2F95CD"/><path d="M62.623 83.847s4.66 2.992 1.599 9.93c0 0-21.746 11.839-20.48 24.748 1.047 10.77 31.088 5.557 31.088 5.557l1.082 3.59s-25.52 4.994-34.322-1.012c0 0-2.991-7.111 4.43-19.928 7.432-12.817 16.602-22.885 16.602-22.885z" fill="url(#M)"/><path d="M71.032 123.081c-2.739 3.095 3.072 6.489 7.847 7.007 5.361.587 14.877-1.542 14.301-6.938-.575-5.396-15.728-7.329-22.148-.069z" fill="url(#N)"/><path opacity=".5" d="M86.153 76.46c-.828 4.97 10.229 4.752 25.278 4.258 18.087-.599 36.266 14.98 46.851 3.796 1.749-1.84-15.579-26.025-36.484-25.485-20.906.541-34.92 13.117-35.645 17.431z" fill="url(#O)"/><path opacity=".5" d="M96.414 119.722c-.955 3.601 6.581 7.202 25.094 6.293 22.39-1.093 27.142-5.787 26.049-7.087-.656-.783-7.364 3.44-25.761-.587-12.139-2.658-24.38-2.405-25.382 1.381z" fill="url(#P)"/><path opacity=".3" d="M171.177 97.136l-.54-1.634c.103.311.299.875.54 1.634z" fill="url(#Q)"/><path opacity=".3" d="M150.606 212.147c-2.186 12.932-13.773 21.561-30.375 21.561-14.451 0-26.705-5.384-29.938-17.258-3.233-11.851-1.979-33.781 2.336-47.438a44.446 44.446 0 0 1 2.324-5.868l.011-.023s-8.744 28.994-1.749 47.461c6.996 18.467 39.557 18.075 50.579 5.81 10.493-11.678 5.638-39.107 5.155-41.731 2.98 12.403 3.613 25.934 1.657 37.486z" fill="url(#R)"/><path d="M90.915 204.472c2.474-17.362 16.396-29.132 31.871-27.671 16.672 1.576 25.635 17.489 25.404 31.146-.241 13.657-10.217 24.323-28.119 24.323-17.892 0-31.468-11.563-29.156-27.798z" fill="url(#S)"/><path d="M91.066 205.911c2.474-17.362 16.395-29.133 31.871-27.671 16.671 1.576 25.634 17.488 25.404 31.145-.242 13.658-10.217 24.323-28.12 24.323s-31.468-11.563-29.155-27.797z" fill="url(#T)"/><path opacity=".5" d="M140.195 154.434c-3.533 5.546-23.012 8.779-34.264 7.755-9.803-.897-8.307-3.544-8.238-3.877.011-.012.011-.023.011-.023 5.27-7.939 12.99-13.128 21.723-13.128 9.078 0 16.027 3.739 20.768 9.273z" fill="url(#U)"/><path d="M133.267 164.053c-.909.299-.943 7.594 0 8.779.943 1.174 2.474.817 2.98-.909.506-1.726-1.611-8.33-2.98-7.87zm1.681 10.712c-.759.184-.84 1.99-.495 2.623.345.633 1.657.495 1.876-.276.207-.759-.622-2.52-1.381-2.347z" fill="#fff"/><path opacity=".72" d="M100.867 223.595s3.993 6.961 18.881 7.018c14.888.058 20.94-8.802 20.94-8.802s-6.869 4.476-16.683 1.784c-9.837-2.693-19.548-4.2-23.138 0z" fill="url(#V)"/><path d="M132.151 56.809c-1.588.368 11.747 7.432 12.288 6.592.541-.84-7.882-7.616-12.288-6.592zm25.566 5.281c-1.335.713-1.22 2.151 1.53 1.795 2.75-.357 4.246-2.52 3.946-2.934-.299-.426-3.992.333-5.476 1.139z" fill="#fff"/><path opacity=".3" d="M190.267 134.621c-14.141 28.04-39.085 37.612-39.085 37.612-6.857-4.441-12.829-18.927-10.47-21.757l.011-.011a3.72 3.72 0 0 1 .426-.334s4.453 16.349 17.489 11.816c15.475-5.384 21.803-32.273 21.803-32.273v-7.882l8.031 4.131c1.967 4.004 1.795 8.698 1.795 8.698z" fill="url(#W)"/><path d="M179.783 125.233s-.115 8.871 4.913 10.309c5.028 1.438 11.322-7.962 13.658-11.862 2.335-3.901 5.867-21.447 2.519-25.647-3.359-4.188-9.826-3.118-14.14 2.762 0 0-6.708 16.89-6.95 24.438z" fill="url(#X)"/><path d="M180.049 122.61s5.833-4.442 7.156-11.264c1.323-6.835 8.388-15.832 8.388-15.832s-3.716-.345-8.871 5.292c-5.143 5.615-6.673 21.804-6.673 21.804z" fill="url(#Y)"/><path opacity=".5" d="M185.814 101.957l4.464 1.68s-1.979 3.325-2.784 6.501c-.806 3.175-3.832 7.513-3.832 7.513l2.152-15.694z" fill="url(#Z)"/><path d="M180.049 120.918s-1.53-3.36-1.737-9.826c-.207-6.466 1.323-11.563 2.048-12.46.713-.898 3.233-.783 4.43.655 1.196 1.439 2.059 8.549 2.059 8.549s-1.611 11.529-6.8 13.082z" fill="url(#aa)"/><path d="M187.205 111.334s3.003 9.883 10.217 13.841l.932-1.495s-7.352-3.878-10.861-13.531l-.288 1.185z" fill="url(#ab)"/><path d="M181.949 103.476c-.725-.081-.483 6.282.414 6.017.898-.264.599-5.902-.414-6.017z" fill="#fff"/><path d="M71.392 123.656c-.161.886 18.973 1.093 19.421-2.289.449-3.383-18.156-4.545-19.421 2.289z" fill="url(#ac)"/><path opacity=".2" d="M76.095 110.184s-.782-5.224.138-12.23c.92-7.008 2.796-11.53 3.924-10.897 1.116.633.943 7.502 1.61 14.256.518 5.258 1.53 10.205 1.53 10.205s-4.843 4.637-7.202-1.334z" fill="url(#ad)"/><path opacity=".72" d="M96.979 194.889c2.945 4.694 15.038 2.197 28.672 3.52 13.634 1.335 15.958 5.765 18.835 4.867 2.876-.897-1.669-21.423-22.034-22.816-20.365-1.38-26.198 13.266-25.473 14.429z" fill="url(#ae)"/><path d="M190.841 36.386s-.115 27.084 1.944 40.201l20.975 8.261-3.359-5.88 20.365-2.312s2.151-30.456 2.876-40.281c0 .011-16.05-3.107-42.801.011z" fill="url(#af)"/><path fill-rule="evenodd" clip-rule="evenodd" d="M199.39 54.734l5.095 2.006 1.972 6.688c.126.428.622.587.952.302l2.84-2.441a.812.812 0 0 1 1.032-.03l5.122 3.921c.353.27.852.067.941-.383l3.751-19.034c.097-.49-.36-.9-.804-.72l-20.906 8.507c-.516.21-.512.98.005 1.184zm16.761-5.554a.192.192 0 0 0-.056.025l-9.956 6.467a1.083 1.083 0 0 0-.438 1.19l1.076 3.99c.043.16.187.22.31.188a.258.258 0 0 0 .193-.227l.28-2.188c.053-.412.239-.791.528-1.075l8.216-8.055c.138-.135.005-.353-.153-.315z" fill="#fff"/><path opacity=".72" d="M172.718 67.82s-2.531-3.141-5.994-2.301c-3.452.84-3.682 11.724-1.622 11.989 2.071.264 2.945-6.018 4.521-7.007 1.588-.99 4.349-.61 4.349-.61l-1.254-2.071z" fill="url(#ag)"/><path opacity=".72" d="M65.959 71.593s1.335-1.507 4.326-1.024c2.992.495 4.717 6.639 6.26 6.018 1.53-.622.413-10.574-3.648-13.508 0 .012-5.224 4.464-6.938 8.514z" fill="url(#ah)"/><path d="M61.887 86.102S51.29 98 51.934 98.85c.656.852 10.597-11.517 9.953-12.748z" fill="url(#ai)"/></g><defs><filter id="a" x="2" y="92.258" width="244.969" height="204.604" filterUnits="userSpaceOnUse" color-interpolation-filters="sRGB"><feFlood flood-opacity="0" result="BackgroundImageFix"/><feColorMatrix in="SourceAlpha" values="0 0 0 0 0 0 0 0 0 0 0 0 0 0 0 0 0 0 127 0" result="hardAlpha"/><feMorphology radius="30" in="SourceAlpha" result="effect1_dropShadow_3042_5030"/><feOffset dy="20"/><feGaussianBlur stdDeviation="22.5"/><feComposite in2="hardAlpha" operator="out"/><feColorMatrix values="0 0 0 0 0.22875 0 0 0 0 0.720223 0 0 0 0 0.7625 0 0 0 0.3 0"/><feBlend in2="BackgroundImageFix" result="effect1_dropShadow_3042_5030"/><feBlend in="SourceGraphic" in2="effect1_dropShadow_3042_5030" result="shape"/></filter><filter id="e" x=".994" y="0" width="295.997" height="332.307" filterUnits="userSpaceOnUse" color-interpolation-filters="sRGB"><feFlood flood-opacity="0" result="BackgroundImageFix"/><feColorMatrix in="SourceAlpha" values="0 0 0 0 0 0 0 0 0 0 0 0 0 0 0 0 0 0 127 0" result="hardAlpha"/><feOffset dx="10" dy="15"/><feGaussianBlur stdDeviation="25"/><feComposite in2="hardAlpha" operator="out"/><feColorMatrix values="0 0 0 0 0 0 0 0 0 0 0 0 0 0 0 0 0 0 0.1 0"/><feBlend in2="BackgroundImageFix" result="effect1_dropShadow_3042_5030"/><feBlend in="SourceGraphic" in2="effect1_dropShadow_3042_5030" result="shape"/></filter><linearGradient id="b" x1="179.386" y1="101.421" x2="102.863" y2="267.272" gradientUnits="userSpaceOnUse"><stop stop-color="#18181E"/><stop offset="1" stop-color="#18151B" stop-opacity=".6"/></linearGradient><linearGradient id="c" x1="17" y1="92.258" x2="86.733" y2="308.662" gradientUnits="userSpaceOnUse"><stop stop-color="#9FE4E8" stop-opacity=".97"/><stop offset="1" stop-color="#9FE4E8" stop-opacity="0"/></linearGradient><radialGradient id="d" cx="0" cy="0" r="1" gradientUnits="userSpaceOnUse" gradientTransform="matrix(46.9287 0 0 10.4416 124.43 277.45)"><stop stop-color="#9FE4E8"/><stop offset="1" stop-color="#9FE4E8" stop-opacity="0"/></radialGradient><linearGradient id="f" x1="217.597" y1="85.124" x2="221.12" y2="35.495" gradientUnits="userSpaceOnUse"><stop stop-color="#A242EA"/><stop offset="1" stop-color="#FE117E"/></linearGradient><linearGradient id="g" x1="97.731" y1="260.864" x2="102.77" y2="220.742" gradientUnits="userSpaceOnUse"><stop stop-color="#CBC1F7"/><stop offset="1" stop-color="#E8DCF7"/></linearGradient><linearGradient id="h" x1="133.803" y1="266.532" x2="140.303" y2="214.78" gradientUnits="userSpaceOnUse"><stop stop-color="#CBC1F7"/><stop offset="1" stop-color="#E8DCF7"/></linearGradient><linearGradient id="i" x1="101.87" y1="234.829" x2="101.87" y2="219.017" gradientUnits="userSpaceOnUse"><stop stop-color="#BE9DEA"/><stop offset="1" stop-color="#9E8CEF"/></linearGradient><linearGradient id="j" x1="138.647" y1="235.196" x2="138.647" y2="216.389" gradientUnits="userSpaceOnUse"><stop stop-color="#BE9DEA"/><stop offset="1" stop-color="#9E8CEF"/></linearGradient><linearGradient id="k" x1="101.91" y1="261.382" x2="101.91" y2="219.15" gradientUnits="userSpaceOnUse"><stop stop-color="#9D68C2"/><stop offset="1" stop-color="#CCEDFF"/></linearGradient><linearGradient id="l" x1="138.725" y1="265.309" x2="138.725" y2="216.244" gradientUnits="userSpaceOnUse"><stop stop-color="#9D68C2"/><stop offset="1" stop-color="#CCEDFF"/></linearGradient><linearGradient id="m" x1="73.801" y1="224.31" x2="82.489" y2="155.139" gradientUnits="userSpaceOnUse"><stop stop-color="#CBC1F7"/><stop offset="1" stop-color="#E8DCF7"/></linearGradient><linearGradient id="n" x1="68.711" y1="223.647" x2="68.711" y2="212.653" gradientUnits="userSpaceOnUse"><stop stop-color="#BE9DEA"/><stop offset="1" stop-color="#9E8CEF"/></linearGradient><linearGradient id="o" x1="77.35" y1="222.997" x2="77.35" y2="164.874" gradientUnits="userSpaceOnUse"><stop stop-color="#9D68C2"/><stop offset="1" stop-color="#CCEDFF"/></linearGradient><linearGradient id="p" x1="66.07" y1="253.576" x2="70.802" y2="215.897" gradientUnits="userSpaceOnUse"><stop stop-color="#CBC1F7"/><stop offset="1" stop-color="#E8DCF7"/></linearGradient><linearGradient id="q" x1="73.495" y1="253.382" x2="73.495" y2="219.674" gradientUnits="userSpaceOnUse"><stop stop-color="#BE9DEA"/><stop offset="1" stop-color="#9E8CEF"/></linearGradient><linearGradient id="r" x1="73.075" y1="242.948" x2="73.075" y2="229.914" gradientUnits="userSpaceOnUse"><stop stop-color="#8DA4E5"/><stop offset="1" stop-color="#755CBB"/></linearGradient><linearGradient id="s" x1="73.947" y1="242.333" x2="76.712" y2="220.319" gradientUnits="userSpaceOnUse"><stop stop-color="#CBC1F7"/><stop offset="1" stop-color="#E8DCF7"/></linearGradient><linearGradient id="t" x1="79.442" y1="98.924" x2="79.442" y2="59.027" gradientUnits="userSpaceOnUse"><stop stop-color="#B9ACF4"/><stop offset="1" stop-color="#E1D1F5"/></linearGradient><linearGradient id="u" x1="76.587" y1="83.851" x2="76.587" y2="59.027" gradientUnits="userSpaceOnUse"><stop stop-color="#BE9DEA"/><stop offset="1" stop-color="#9E8CEF"/></linearGradient><linearGradient id="v" x1="161.735" y1="98.924" x2="161.735" y2="59.027" gradientUnits="userSpaceOnUse"><stop stop-color="#B9ACF4"/><stop offset="1" stop-color="#E1D1F5"/></linearGradient><linearGradient id="w" x1="164.631" y1="80.713" x2="164.631" y2="59.024" gradientUnits="userSpaceOnUse"><stop stop-color="#BE9DEA"/><stop offset="1" stop-color="#9E8CEF"/></linearGradient><linearGradient id="x" x1="170.024" y1="100.832" x2="170.024" y2="61.633" gradientUnits="userSpaceOnUse"><stop stop-color="#45FFCD"/><stop offset="1" stop-color="#22E0FF"/></linearGradient><linearGradient id="y" x1="71.153" y1="100.832" x2="71.153" y2="61.633" gradientUnits="userSpaceOnUse"><stop stop-color="#45FFCD"/><stop offset="1" stop-color="#22E0FF"/></linearGradient><linearGradient id="z" x1="116.285" y1="155.512" x2="128.969" y2="54.522" gradientUnits="userSpaceOnUse"><stop stop-color="#CBC1F7"/><stop offset="1" stop-color="#E8DCF7"/></linearGradient><linearGradient id="A" x1="120.422" y1="127.826" x2="120.422" y2="57.162" gradientUnits="userSpaceOnUse"><stop stop-color="#0665BD"/><stop offset="1" stop-color="#1A1F77"/></linearGradient><linearGradient id="B" x1="120.771" y1="154.578" x2="120.771" y2="94.383" gradientUnits="userSpaceOnUse"><stop stop-color="#9D68C2"/><stop offset="1" stop-color="#CCEDFF"/></linearGradient><linearGradient id="C" x1="80.201" y1="146.753" x2="158.643" y2="146.753" gradientUnits="userSpaceOnUse"><stop stop-color="#8879EA"/><stop offset="1" stop-color="#9E8CEF"/></linearGradient><linearGradient id="D" x1="119.305" y1="150.249" x2="119.305" y2="138.942" gradientUnits="userSpaceOnUse"><stop stop-color="#8DA4E5"/><stop offset="1" stop-color="#755CBB"/></linearGradient><linearGradient id="E" x1="119.108" y1="148.648" x2="120.58" y2="136.926" gradientUnits="userSpaceOnUse"><stop stop-color="#5E36CC"/><stop offset="1" stop-color="#6C4A96"/></linearGradient><linearGradient id="F" x1="115.618" y1="233.555" x2="126.637" y2="145.821" gradientUnits="userSpaceOnUse"><stop stop-color="#CBC1F7"/><stop offset="1" stop-color="#E8DCF7"/></linearGradient><linearGradient id="G" x1="139.264" y1="165.758" x2="149.703" y2="165.758" gradientUnits="userSpaceOnUse"><stop stop-color="#8879EA"/><stop offset="1" stop-color="#9E8CEF"/></linearGradient><linearGradient id="H" x1="161.443" y1="173.532" x2="168.302" y2="118.914" gradientUnits="userSpaceOnUse"><stop stop-color="#CBC1F7"/><stop offset="1" stop-color="#E8DCF7"/></linearGradient><linearGradient id="I" x1="79.264" y1="140.622" x2="79.264" y2="124.758" gradientUnits="userSpaceOnUse"><stop stop-color="#8DA4E5"/><stop offset="1" stop-color="#755CBB"/></linearGradient><linearGradient id="J" x1="184.625" y1="139.928" x2="184.625" y2="120.252" gradientUnits="userSpaceOnUse"><stop stop-color="#BE9DEA"/><stop offset="1" stop-color="#9E8CEF"/></linearGradient><linearGradient id="K" x1="142.08" y1="92.323" x2="142.08" y2="75.38" gradientUnits="userSpaceOnUse"><stop stop-color="#45FFCD"/><stop offset="1" stop-color="#22E0FF"/></linearGradient><linearGradient id="L" x1="98.397" y1="92.323" x2="98.397" y2="75.38" gradientUnits="userSpaceOnUse"><stop stop-color="#45FFCD"/><stop offset="1" stop-color="#22E0FF"/></linearGradient><linearGradient id="M" x1="57.728" y1="130.255" x2="63.541" y2="83.966" gradientUnits="userSpaceOnUse"><stop stop-color="#BE9DEA"/><stop offset="1" stop-color="#9E8CEF"/></linearGradient><linearGradient id="N" x1="80.3" y1="130.53" x2="83.291" y2="117.829" gradientUnits="userSpaceOnUse"><stop stop-color="#DD1A8F"/><stop offset="1" stop-color="#FE117E"/></linearGradient><linearGradient id="O" x1="86.115" y1="73.788" x2="158.405" y2="73.788" gradientUnits="userSpaceOnUse"><stop/><stop offset="1" stop-color="#6A9BFF"/></linearGradient><linearGradient id="P" x1="96.333" y1="121.368" x2="147.705" y2="121.368" gradientUnits="userSpaceOnUse"><stop/><stop offset="1" stop-color="#6A9BFF"/></linearGradient><linearGradient id="Q" x1="170.907" y1="97.134" x2="170.907" y2="95.502" gradientUnits="userSpaceOnUse"><stop stop-color="#9D68C2"/><stop offset="1" stop-color="#CCEDFF"/></linearGradient><linearGradient id="R" x1="120.097" y1="233.705" x2="120.097" y2="163.119" gradientUnits="userSpaceOnUse"><stop stop-color="#9D68C2"/><stop offset="1" stop-color="#CCEDFF"/></linearGradient><linearGradient id="S" x1="119.422" y1="232.27" x2="119.422" y2="176.677" gradientUnits="userSpaceOnUse"><stop stop-color="#BE9DEA"/><stop offset="1" stop-color="#9E8CEF"/></linearGradient><radialGradient id="T" cx="0" cy="0" r="1" gradientUnits="userSpaceOnUse" gradientTransform="matrix(42.4227 0 0 42.4228 120.537 225.081)"><stop stop-color="#45FFCD"/><stop offset="1" stop-color="#22E0FF"/></radialGradient><linearGradient id="U" x1="118.88" y1="162.372" x2="118.88" y2="145.165" gradientUnits="userSpaceOnUse"><stop stop-color="#8DA4E5"/><stop offset="1" stop-color="#755CBB"/></linearGradient><linearGradient id="V" x1="120.771" y1="230.607" x2="120.771" y2="220.977" gradientUnits="userSpaceOnUse"><stop stop-color="#D4E2FF"/><stop offset="1"/></linearGradient><linearGradient id="W" x1="165.232" y1="172.244" x2="165.232" y2="121.803" gradientUnits="userSpaceOnUse"><stop stop-color="#9D68C2"/><stop offset="1" stop-color="#CCEDFF"/></linearGradient><linearGradient id="X" x1="188.473" y1="136.058" x2="193.605" y2="95.198" gradientUnits="userSpaceOnUse"><stop stop-color="#CBC1F7"/><stop offset="1" stop-color="#E8DCF7"/></linearGradient><linearGradient id="Y" x1="187.827" y1="122.605" x2="187.827" y2="95.502" gradientUnits="userSpaceOnUse"><stop stop-color="#BE9DEA"/><stop offset="1" stop-color="#9E8CEF"/></linearGradient><linearGradient id="Z" x1="186.965" y1="117.662" x2="186.965" y2="101.962" gradientUnits="userSpaceOnUse"><stop stop-color="#8DA4E5"/><stop offset="1" stop-color="#755CBB"/></linearGradient><linearGradient id="aa" x1="180.899" y1="121.028" x2="183.758" y2="98.262" gradientUnits="userSpaceOnUse"><stop stop-color="#CBC1F7"/><stop offset="1" stop-color="#E8DCF7"/></linearGradient><linearGradient id="ab" x1="192.781" y1="125.173" x2="192.781" y2="110.15" gradientUnits="userSpaceOnUse"><stop stop-color="#BE9DEA"/><stop offset="1" stop-color="#9E8CEF"/></linearGradient><linearGradient id="ac" x1="81.109" y1="124.211" x2="81.109" y2="118.671" gradientUnits="userSpaceOnUse"><stop stop-color="#D93DE3"/><stop offset="1" stop-color="#FF6DBA"/></linearGradient><linearGradient id="ad" x1="79.136" y1="113.211" x2="80.929" y2="87.067" gradientUnits="userSpaceOnUse"><stop/><stop offset="1" stop-color="#00E3FF"/></linearGradient><linearGradient id="ae" x1="96.924" y1="191.887" x2="145.267" y2="191.887" gradientUnits="userSpaceOnUse"><stop/><stop offset="1" stop-color="#D4E2FF"/></linearGradient><linearGradient id="af" x1="208.825" y1="84.502" x2="212.374" y2="34.49" gradientUnits="userSpaceOnUse"><stop stop-color="#D93DE3"/><stop offset="1" stop-color="#FF6DBA"/></linearGradient><linearGradient id="ag" x1="163.792" y1="71.44" x2="173.991" y2="71.44" gradientUnits="userSpaceOnUse"><stop/><stop offset="1" stop-color="#D4E2FF"/></linearGradient><linearGradient id="ah" x1="65.957" y1="69.865" x2="77.197" y2="69.865" gradientUnits="userSpaceOnUse"><stop stop-color="#D4E2FF"/><stop offset="1"/></linearGradient><linearGradient id="ai" x1="56.809" y1="98.969" x2="57.023" y2="86.017" gradientUnits="userSpaceOnUse"><stop stop-color="#CBC1F7"/><stop offset="1" stop-color="#E8DCF7"/></linearGradient></defs></svg>