<svg width="466" height="310" viewBox="0 0 466 310" fill="none" xmlns="http://www.w3.org/2000/svg"><circle cx="233.5" cy="154.5" r="147.5" stroke="#FFC01E" stroke-opacity=".2" stroke-width="2"/><circle cx="233.5" cy="154.499" r="105.581" stroke="#AA7D0B" stroke-opacity=".2" stroke-width="2"/><path d="M437.733 132.804a21.623 21.623 0 0 1-6.135 2.484c-5.77 1.315-11.54.219-16.142-2.776-4.528-2.849-7.961-7.451-9.276-13.076-2.63-11.396 4.455-22.791 15.85-25.421 11.394-2.63 22.788 4.456 25.418 15.852 2.118 9.131-2.118 18.335-9.715 22.937z" fill="#E7EBFF"/><path d="M426.85 118.632a6.428 6.428 0 1 0 0-12.856 6.428 6.428 0 0 0 0 12.856zm10.883 11.469v2.63a21.65 21.65 0 0 1-6.135 2.483c-5.77 1.315-11.54.219-16.142-2.776v-2.629c.073-6.137 5.113-11.104 11.248-11.031 6.209.146 11.103 5.187 11.029 11.323z" fill="#fff"/><path d="M46.746 72.977c-1.242.73-2.556 1.315-4.017 1.607-3.798.877-7.523.146-10.591-1.826-2.995-1.9-5.186-4.894-6.063-8.547-1.752-7.45 2.922-14.902 10.372-16.655 7.45-1.753 14.9 2.922 16.653 10.373 1.388 5.99-1.387 11.98-6.354 15.048z" fill="#E7EBFF"/><path d="M39.588 63.7a4.237 4.237 0 1 0 0-8.473 4.237 4.237 0 0 0 0 8.473zm7.158 7.525v1.753c-1.242.73-2.557 1.315-4.017 1.607-3.798.876-7.524.146-10.591-1.826v-1.754c.073-4.017 3.36-7.232 7.377-7.232 4.017.073 7.304 3.434 7.23 7.452z" fill="#fff"/><path d="M71.756 103.58l-48.197 6.572 4.164 30.544 48.197-6.573-4.164-30.543z" fill="#E7EBFF"/><path d="M71.8 103.586c-1.68 2.118-3.434 4.164-5.114 6.282-1.753 2.046-3.506 4.091-5.186 6.136l-5.478 6.356c-.073.073-.073.146-.146.219-1.607 1.826-3.287 3.725-4.893 5.552l-.22.292-.292-.219c-2.045-1.388-4.163-2.703-6.208-4.091-.073-.073-.146-.073-.22-.146-2.337-1.534-4.674-3.068-7.011-4.675a357.452 357.452 0 0 1-6.647-4.529c-2.191-1.535-4.456-3.069-6.647-4.676 2.265 1.315 4.529 2.703 6.793 4.091l6.793 4.164a427.707 427.707 0 0 1 7.523 4.748c1.9 1.169 3.798 2.411 5.624 3.58 1.461-1.681 2.995-3.361 4.456-4.968 1.972-2.191 4.017-4.456 5.989-6.647 1.826-1.973 3.579-3.945 5.405-5.844 1.753-1.826 3.579-3.799 5.478-5.625z" fill="#fff"/><path d="M44.92 123.82c-.073.073-.073.073 0 0-.292.293-.51.585-.73.804a149.146 149.146 0 0 1-3.287 3.433 110.132 110.132 0 0 1-4.236 4.018c-1.461 1.315-2.849 2.63-4.383 3.872a110.76 110.76 0 0 1-4.528 3.652 110.05 110.05 0 0 1 8.254-8.255c1.46-1.314 2.921-2.629 4.382-3.871 1.169-1.023 2.41-1.973 3.652-2.922.22-.219.511-.438.876-.731-.073.073-.073.073 0 0zm30.75 9.351c-1.826-.73-3.652-1.461-5.405-2.337-1.753-.804-3.506-1.681-5.259-2.557-1.753-.877-3.433-1.826-5.113-2.776-1.387-.804-2.775-1.607-4.09-2.411-.292-.146-.584-.365-.876-.511 0 0-.074 0-.074-.073h.074c.365.146.657.292 1.022.438 1.46.585 2.849 1.242 4.31 1.899 1.752.804 3.505 1.681 5.258 2.557 1.753.877 3.433 1.826 5.113 2.776 1.753.95 3.433 1.899 5.04 2.995z" fill="#fff"/><path d="M465.988 160.876l-74.985-17.749-11.254 47.556 74.986 17.748 11.253-47.555z" fill="#E7EBFF"/><path d="M466 160.855c-3.725 2.191-7.45 4.236-11.175 6.355-3.725 2.045-7.45 4.091-11.249 6.136-3.944 2.119-7.815 4.164-11.759 6.282-.146.073-.219.146-.365.219-3.433 1.827-6.939 3.653-10.445 5.479l-.511.219-.366-.438c-2.264-3.214-4.601-6.355-6.865-9.569-.074-.073-.147-.22-.22-.366-2.556-3.579-5.185-7.232-7.669-10.884-2.41-3.506-4.894-7.013-7.304-10.519-2.41-3.58-4.821-7.086-7.158-10.665 2.63 3.214 5.186 6.574 7.742 9.861 2.557 3.36 5.113 6.648 7.67 10.081 2.848 3.726 5.624 7.524 8.399 11.323 2.119 2.849 4.164 5.698 6.282 8.547 3.141-1.608 6.281-3.288 9.422-4.822 4.236-2.118 8.4-4.237 12.636-6.355a808.593 808.593 0 0 1 11.321-5.552c4.018-1.753 7.743-3.579 11.614-5.332z" fill="#fff"/><path d="M414.725 175.537c-.073 0-.073.073-.073.073-.438.219-.949.511-1.387.731-2.265 1.168-4.529 2.191-6.866 3.214-2.849 1.242-5.697 2.41-8.546 3.579a302.226 302.226 0 0 1-8.692 3.214 176.781 176.781 0 0 1-8.838 2.849 126.202 126.202 0 0 1 8.4-4.017c2.849-1.242 5.697-2.411 8.546-3.58 2.848-1.096 5.77-2.264 8.692-3.214 2.337-.804 4.674-1.607 7.085-2.338a14.714 14.714 0 0 0 1.679-.511c-.146.073-.073 0 0 0zm40.173 31.339c-2.338-2.045-4.529-4.309-6.647-6.501-2.118-2.191-4.236-4.529-6.281-6.794-2.046-2.337-4.091-4.675-6.063-7.012-1.607-1.973-3.141-3.872-4.674-5.917-.293-.439-.658-.877-.95-1.315l-.073-.073.073.073c.438.365.876.803 1.242 1.169a117.727 117.727 0 0 1 5.259 5.186c2.118 2.192 4.236 4.529 6.281 6.794 2.045 2.337 4.09 4.675 6.063 7.012a111.732 111.732 0 0 1 5.77 7.378z" fill="#fff"/><path d="M307.939 0h-44.262v28.051h44.262V0z" fill="#E7EBFF"/><path d="M308.013 0c-1.753 1.68-3.579 3.36-5.405 5.04a330.203 330.203 0 0 1-5.478 4.895 407.848 407.848 0 0 1-5.771 5.04c-.073.073-.146.073-.146.146-1.68 1.461-3.433 2.922-5.113 4.456l-.219.22-.219-.22c-1.68-1.46-3.433-2.922-5.113-4.456-.073-.073-.146-.073-.146-.146-1.899-1.68-3.871-3.36-5.77-5.04-1.826-1.607-3.652-3.287-5.478-4.895-1.826-1.68-3.652-3.287-5.405-5.04a169.287 169.287 0 0 1 5.624 4.53c1.899 1.533 3.725 3.067 5.624 4.601 2.045 1.753 4.164 3.434 6.209 5.26 1.534 1.315 3.067 2.63 4.674 3.944 1.534-1.314 3.068-2.63 4.675-3.944 2.045-1.753 4.163-3.507 6.208-5.26a375.736 375.736 0 0 1 5.625-4.602A169.287 169.287 0 0 1 308.013 0z" fill="#fff"/><path d="M281.279 14.975c-.073 0-.073.073 0 0a6.582 6.582 0 0 0-.73.657c-1.096.95-2.265 1.826-3.433 2.703-1.388 1.096-2.849 2.118-4.31 3.141-1.461 1.023-2.921 1.972-4.382 2.995-1.461.95-2.995 1.9-4.602 2.776 1.315-1.169 2.703-2.265 4.164-3.36 1.387-1.096 2.848-2.119 4.309-3.142 1.461-1.022 2.922-1.972 4.455-2.995 1.169-.73 2.411-1.534 3.652-2.191.22-.22.512-.365.877-.584-.073.073-.073 0 0 0zm26.587 12.2c-1.534-.877-3.068-1.827-4.602-2.776a156.903 156.903 0 0 1-4.455-2.995c-1.461-1.023-2.922-2.046-4.31-3.141a60.78 60.78 0 0 1-3.36-2.703c-.219-.22-.438-.366-.73-.585l-.073-.073h.073c.292.146.584.293.876.512 1.242.73 2.411 1.46 3.652 2.191 1.461.95 2.995 1.973 4.383 2.995 1.461 1.023 2.922 2.046 4.309 3.141 1.534 1.17 2.922 2.265 4.237 3.434z" fill="#fff"/><path d="M397.414 24.91H75.012v215.716h322.402V24.91z" fill="#E5E9FF"/><path d="M395.077 27.54H77.35v210.455h317.727V27.539z" fill="#263238"/><path d="M439.412 256.77H33.014v14.829h406.398V256.77z" fill="#AFB6E5"/><path d="M33.014 256.769l41.998-16.144h322.402l41.998 16.144H33.014z" fill="#E5E9FF"/><path d="M78.737 251.071l27.098-10.446h260.756l27.098 10.446H78.737z" fill="#263238"/><path d="M377.182 43.537H95.317v178.46h281.865V43.537z" fill="#fff"/><path d="M377.182 43.537H95.099v6.867h282.083v-6.867z" fill="#455A64"/><path d="M98.823 48.651a1.68 1.68 0 1 0 0-3.359 1.68 1.68 0 0 0 0 3.36z" fill="#AFB6E5"/><path d="M105.762 48.651a1.68 1.68 0 1 0 0-3.36 1.68 1.68 0 0 0 0 3.36z" fill="#fff"/><path d="M112.701 48.651a1.68 1.68 0 1 0 0-3.36 1.68 1.68 0 0 0 0 3.36z" fill="#FFC727"/><path d="M377.182 50.404h-5.039v171.594h5.039V50.404z" fill="#E5E9FF"/><path d="M374.626 109.866c-.73 0-1.314-.584-1.314-1.315V52.668c0-.73.584-1.315 1.314-1.315a1.31 1.31 0 0 1 1.315 1.315v55.883c0 .731-.584 1.315-1.315 1.315z" fill="#A6A6A6"/><path d="M328.464 61.143H176.539v5.77h151.925v-5.77z" fill="#fff"/><path d="M328.464 66.985H176.466v-5.917h151.998v5.917z" fill="#F5F6FF"/><path d="M328.536 61.14h-5.916v5.918h5.916V61.14z" fill="#FFC727"/><path d="M327.369 65.669l-.511.438-1.023-1.315-.365-.511c.073 0 .146-.073.219-.146.146-.073.219-.22.292-.366l.365.512 1.023 1.388z" fill="#fff"/><path d="M326.346 62.602c-.511-.658-1.388-.73-2.045-.292-.658.51-.731 1.387-.292 2.045.438.584 1.241.73 1.826.365.073-.073.146-.073.219-.146.146-.073.219-.22.292-.292.365-.438.365-1.169 0-1.68zm-.657 1.607c-.073.073-.146.073-.22.146-.365.146-.803.073-1.022-.292-.292-.366-.219-.95.146-1.242.365-.292.95-.22 1.242.146.219.292.219.584.146.877-.073.146-.146.219-.292.365z" fill="#fff"/><path d="M177.999 62.31h-.292v3.507h.292V62.31z" fill="#AFB6E5"/><path d="M361.989 67.206c-.292.146-.584.292-.949.365a3.253 3.253 0 0 1-2.484-.365c-.73-.438-1.241-1.169-1.46-2.046-.439-1.753.657-3.506 2.41-3.944 1.753-.438 3.506.657 3.944 2.41.365 1.388-.292 2.85-1.461 3.58z" fill="#FFC727"/><path d="M360.236 65.014a1.023 1.023 0 1 0 0-2.045 1.023 1.023 0 0 0 0 2.045z" fill="#fff"/><path d="M361.99 66.767v.438c-.293.146-.585.292-.95.365a3.25 3.25 0 0 1-2.483-.365v-.438c0-.95.803-1.753 1.753-1.753.876 0 1.68.803 1.68 1.753z" fill="#fff"/><path d="M350.595 67.643h-2.265v-.804c0-.073 0-.073-.073-.073-.073-.073-.146-.073-.219-.146h-.146l-.73.438-1.169-1.972.731-.438c.073 0 .073-.073.073-.146v-.292c0-.074 0-.074-.073-.147l-.731-.438 1.169-1.972.73.438h.146c.073-.073.146-.073.219-.146.073 0 .073-.073.073-.073v-.804h2.265v.804c0 .073 0 .073.073.073.073.073.146.073.219.146h.146l.73-.438 1.169 1.972-.73.438c-.073 0-.073.073-.073.147v.292c0 .073 0 .073.073.146l.73.438-1.169 1.972-.73-.438h-.146c-.073.073-.146.073-.219.146-.073 0-.073.073-.073.073v.804zm-1.68-.585h1.168v-.219c0-.292.147-.511.366-.584.073 0 .146-.073.219-.146a.663.663 0 0 1 .73 0l.219.146.585-1.023-.219-.146a.766.766 0 0 1-.366-.657v-.293c0-.292.146-.51.366-.657l.219-.146-.585-1.023-.219.146a.663.663 0 0 1-.73 0c-.073-.073-.146-.073-.219-.146-.219-.146-.366-.365-.366-.584v-.22h-1.168v.22c0 .292-.146.511-.365.584-.073 0-.146.073-.22.146a.663.663 0 0 1-.73 0l-.219-.146-.584 1.023.219.146a.767.767 0 0 1 .365.657v.293a.767.767 0 0 1-.365.657l-.219.146.584 1.023.219-.146a.663.663 0 0 1 .73 0c.074.073.147.073.22.146.219.146.365.365.365.584v.22zm.584-1.022c-.949 0-1.68-.73-1.68-1.68s.731-1.68 1.68-1.68c.95 0 1.68.73 1.68 1.68s-.803 1.68-1.68 1.68zm0-2.776c-.584 0-1.095.511-1.095 1.096 0 .584.511 1.095 1.095 1.095s1.096-.511 1.096-1.095c0-.585-.512-1.096-1.096-1.096z" fill="#E5E9FF"/><path d="M372.142 90.8h-210.43v11.908h210.43V90.801z" fill="#F5F6FF"/><path d="M174.641 94.965h-3.579v3.58h3.579v-3.58zm15.192 3.579h-3.579l1.461-1.826-1.461-1.753h3.579l1.461 1.753-1.461 1.826z" fill="#fff"/><path d="M180.63 94.965l.584 1.169 1.315.219-.95.876.219 1.315-1.168-.657-1.169.657.219-1.315-.95-.876 1.315-.22.585-1.168z" fill="#FFC727"/><path d="M222.41 95.988h-28.559v1.461h28.559v-1.46zm134.102 0h-25.929v1.461h25.929v-1.46z" fill="#263238"/><path d="M319.699 95.988h-88.598v1.461h88.598v-1.46z" fill="#455A64"/><path d="M174.641 106.871h-3.579v3.58h3.579v-3.58zm15.192 3.58h-3.579l1.461-1.754-1.461-1.826h3.579l1.461 1.826-1.461 1.754z" fill="#fff" stroke="#F5F6FF" stroke-width=".5" stroke-miterlimit="10"/><path d="M180.63 106.871l.584 1.169 1.315.219-.95.877.219 1.315-1.168-.585-1.169.585.219-1.315-.95-.877 1.315-.219.585-1.169z" fill="#FFC727"/><path d="M222.41 107.967h-28.559v1.461h28.559v-1.461zm134.102 0h-25.929v1.461h25.929v-1.461z" fill="#263238"/><path d="M319.699 107.967h-88.598v1.461h88.598v-1.461z" fill="#455A64"/><path d="M372.142 114.615h-210.43v11.907h210.43v-11.907z" fill="#F5F6FF"/><path d="M174.641 118.779h-3.579v3.58h3.579v-3.58zm15.192 3.58h-3.579l1.461-1.753-1.461-1.827h3.579l1.461 1.827-1.461 1.753zm-9.203-3.58l.584 1.169 1.315.219-.95.95.219 1.242-1.168-.585-1.169.585.219-1.242-.95-.95 1.315-.219.585-1.169z" fill="#fff"/><path d="M222.41 119.875h-28.559v1.461h28.559v-1.461zm134.102 0h-25.929v1.461h25.929v-1.461z" fill="#E5E9FF"/><path d="M319.699 119.875h-88.598v1.461h88.598v-1.461z" fill="#AFB6E5"/><path d="M174.641 130.76h-3.579v3.579h3.579v-3.579zm15.192 3.579h-3.579l1.461-1.826-1.461-1.753h3.579l1.461 1.753-1.461 1.826z" fill="#fff" stroke="#F5F6FF" stroke-width=".5" stroke-miterlimit="10"/><path d="M180.63 130.76l.584 1.169 1.315.146-.95.949.219 1.315-1.168-.657-1.169.657.219-1.315-.95-.949 1.315-.146.585-1.169z" fill="#FFC727"/><path d="M222.41 131.783h-28.559v1.461h28.559v-1.461zm134.102 0h-25.929v1.461h25.929v-1.461z" fill="#E5E9FF"/><path d="M319.699 131.783h-88.598v1.461h88.598v-1.461z" fill="#AFB6E5"/><path d="M372.142 138.502h-210.43v11.907h210.43v-11.907z" fill="#F5F6FF"/><path d="M174.641 142.666h-3.579v3.579h3.579v-3.579zm15.192 3.579h-3.579l1.461-1.826-1.461-1.753h3.579l1.461 1.753-1.461 1.826z" fill="#fff"/><path d="M180.63 142.666l.584 1.169 1.315.219-.95.877.219 1.314-1.168-.584-1.169.584.219-1.314-.95-.877 1.315-.219.585-1.169z" fill="#FFC727"/><path d="M222.41 143.689h-28.559v1.461h28.559v-1.461zm134.102 0h-25.929v1.461h25.929v-1.461z" fill="#E5E9FF"/><path d="M319.699 143.689h-88.598v1.461h88.598v-1.461z" fill="#AFB6E5"/><path d="M174.641 154.572h-3.579v3.58h3.579v-3.58zm15.192 3.58h-3.579l1.461-1.753-1.461-1.827h3.579l1.461 1.827-1.461 1.753zm-9.203-3.58l.584 1.169 1.315.219-.95.95.219 1.242-1.168-.585-1.169.585.219-1.242-.95-.95 1.315-.219.585-1.169z" fill="#fff" stroke="#F5F6FF" stroke-width=".5" stroke-miterlimit="10"/><path d="M222.41 155.668h-28.559v1.461h28.559v-1.461zm134.102 0h-25.929v1.461h25.929v-1.461z" fill="#E5E9FF"/><path d="M319.699 155.668h-88.598v1.461h88.598v-1.461z" fill="#AFB6E5"/><path d="M372.142 162.316h-210.43v11.908h210.43v-11.908z" fill="#F5F6FF"/><path d="M174.641 166.48h-3.579v3.58h3.579v-3.58zm15.192 3.653h-3.579l1.461-1.826-1.461-1.827h3.579l1.461 1.827-1.461 1.826z" fill="#fff"/><path d="M180.63 166.48l.584 1.242 1.315.146-.95.95.219 1.315-1.168-.657-1.169.657.219-1.315-.95-.95 1.315-.146.585-1.242z" fill="#FFC727"/><path d="M222.41 167.576h-28.559v1.461h28.559v-1.461zm134.102 0h-25.929v1.461h25.929v-1.461z" fill="#E5E9FF"/><path d="M319.699 167.576h-88.598v1.461h88.598v-1.461z" fill="#AFB6E5"/><path d="M174.641 178.461h-3.579v3.579h3.579v-3.579zm15.192 3.579h-3.579l1.461-1.826-1.461-1.753h3.579l1.461 1.753-1.461 1.826zm-9.203-3.579l.584 1.169 1.315.219-.95.876.219 1.315-1.168-.657-1.169.657.219-1.315-.95-.876 1.315-.219.585-1.169z" fill="#fff" stroke="#F5F6FF" stroke-width=".5" stroke-miterlimit="10"/><path d="M222.41 179.484h-28.559v1.461h28.559v-1.461zm134.102 0h-25.929v1.461h25.929v-1.461z" fill="#E5E9FF"/><path d="M319.699 179.484h-88.598v1.461h88.598v-1.461z" fill="#AFB6E5"/><path d="M372.142 186.203h-210.43v11.907h210.43v-11.907z" fill="#F5F6FF"/><path d="M174.641 190.367h-3.579v3.58h3.579v-3.58zm15.192 3.58h-3.579l1.461-1.754-1.461-1.826h3.579l1.461 1.826-1.461 1.754zm-9.203-3.58l.584 1.169 1.315.219-.95.877.219 1.315-1.168-.585-1.169.585.219-1.315-.95-.877 1.315-.219.585-1.169z" fill="#fff"/><path d="M222.41 191.463h-28.559v1.461h28.559v-1.461zm134.102 0h-25.929v1.461h25.929v-1.461z" fill="#E5E9FF"/><path d="M319.699 191.463h-88.598v1.461h88.598v-1.461z" fill="#AFB6E5"/><path d="M174.641 202.275h-3.579v3.58h3.579v-3.58zm15.192 3.58h-3.579l1.461-1.753-1.461-1.827h3.579l1.461 1.827-1.461 1.753zm-9.203-3.58l.584 1.169 1.315.219-.95.95.219 1.242-1.168-.585-1.169.585.219-1.242-.95-.95 1.315-.219.585-1.169z" fill="#fff" stroke="#F5F6FF" stroke-width=".5" stroke-miterlimit="10"/><path d="M222.41 203.371h-28.559v1.461h28.559v-1.461zm134.102 0h-25.929v1.461h25.929v-1.461z" fill="#E5E9FF"/><path d="M319.699 203.371h-88.598v1.461h88.598v-1.461z" fill="#AFB6E5"/><path d="M372.142 210.092h-210.43v11.907h210.43v-11.907z" fill="#F5F6FF"/><path d="M174.641 214.256h-3.579v3.579h3.579v-3.579zm15.192 3.579h-3.579l1.461-1.826-1.461-1.753h3.579l1.461 1.753-1.461 1.826z" fill="#fff"/><path d="M180.63 214.256l.584 1.169 1.315.146-.95.949.219 1.315-1.168-.657-1.169.657.219-1.315-.95-.949 1.315-.146.585-1.169z" fill="#FFC727"/><path d="M222.41 215.279h-28.559v1.461h28.559v-1.461zm134.102 0h-25.929v1.461h25.929v-1.461z" fill="#E5E9FF"/><path d="M319.699 215.279h-88.598v1.461h88.598v-1.461z" fill="#AFB6E5"/><path d="M222.408 79.988h-39.807v4.237h39.807v-4.237zm-45.942 0h-5.405v4.237h5.405v-4.237z" fill="#E5E9FF"/><path d="M176.466 79.988c-.22.22-.439.439-.658.73l-.657.658-.731.73c-.219.22-.438.439-.657.585-.219-.219-.438-.438-.657-.584l-.731-.73-.657-.658c-.219-.22-.438-.438-.657-.73l.657.657.657.657.731.73c.219.147.365.366.584.512.219-.146.365-.365.584-.511l.731-.73.657-.658c.365-.22.584-.439.804-.658z" fill="#fff"/><path d="M173.179 81.96c0 .074-.073.074-.073.147-.146.146-.292.365-.439.511-.146.22-.365.366-.511.585-.146.219-.365.365-.511.584-.219.146-.365.365-.584.511.146-.219.365-.438.511-.657.146-.22.365-.365.511-.584.146-.22.365-.366.511-.585l.439-.438c.073 0 .146 0 .146-.073zm3.287 2.339c-.219-.147-.365-.366-.584-.512-.22-.146-.366-.365-.512-.584-.146-.22-.365-.365-.511-.585-.146-.146-.292-.365-.438-.511 0-.073-.073-.073-.073-.146l.073.073.438.438c.219.146.365.366.511.585.146.219.365.365.512.584.219.22.438.438.584.657z" fill="#fff"/><path d="M289.387 79.988H249.58v4.237h39.807v-4.237zm-49.741 2.338a.877.877 0 1 0 0-1.755.877.877 0 0 0 0 1.755zm1.534 1.607v.365h-3.141v-.365c0-.877.73-1.535 1.534-1.535.949 0 1.607.73 1.607 1.535zm.73-2.119a.876.876 0 1 0 0-1.753.876.876 0 0 0 0 1.753z" fill="#E5E9FF"/><path d="M243.517 83.42v.365h-3.141v-.365c0-.877.73-1.534 1.534-1.534.876-.073 1.607.657 1.607 1.534zm112.922-3.432h-39.807v4.237h39.807v-4.237zm-45.87 0h-5.405v4.237h5.405l1.607-2.118-1.607-2.119zm0 2.484a.314.314 0 0 1-.292-.292c0-.22.146-.292.292-.292.219 0 .292.146.292.292.073.146-.073.292-.292.292z" fill="#E5E9FF"/><path d="M161.712 50.404H95.099v171.594h66.613V50.404z" fill="#FFC727"/><path d="M152.363 75.752h-47.988v12.71h47.988v-12.71zm-41.268-14.609h-6.72v1.095h6.72v-1.095zm0 4.822h-6.72v1.096h6.72v-1.096zm0-2.412h-6.72v1.096h6.72v-1.096z" fill="#fff"/><path d="M126.725 61.143h-9.276v5.917h9.276v-5.917z" fill="#F5F6FF"/><path d="M126.725 61.143v5.917h-9.276v-5.917c.365.219.804.438 1.169.73.365.22.803.438 1.169.73.438.293.876.512 1.314.804.292.22.658.438.95.585.292-.22.657-.439.949-.585.439-.292.877-.511 1.315-.803.365-.22.804-.512 1.169-.73.438-.293.876-.512 1.241-.731z" fill="#F5F6FF"/><path d="M126.726 61.143c-.366.292-.731.51-1.169.803-.365.22-.73.512-1.169.73-.365.293-.803.512-1.241.804l-1.096.658h-.146l-1.096-.658h-.073c-.438-.292-.803-.511-1.241-.803-.366-.22-.731-.512-1.169-.73-.365-.293-.731-.512-1.169-.804.365.219.804.438 1.169.73.365.22.803.438 1.169.73.438.293.876.512 1.314.804.292.22.658.438.95.585.292-.22.657-.439.949-.585.439-.292.877-.511 1.315-.803.365-.22.804-.512 1.169-.73.73-.293 1.168-.512 1.534-.731z" fill="#fff"/><path d="M121.101 63.334l-.146.146c-.219.22-.438.365-.73.584l-.877.658c-.292.22-.584.438-.949.657-.365.22-.658.366-.95.585.292-.22.585-.512.877-.73l.876-.658c.292-.22.585-.438.95-.658.219-.146.511-.292.73-.438.073-.073.146-.146.219-.146zm5.624 2.557a6.66 6.66 0 0 1-.949-.584c-.292-.219-.658-.438-.95-.657l-.876-.658c-.219-.219-.512-.365-.731-.584l-.146-.146c.073 0 .146.073.146.073.292.146.512.292.731.438.292.22.657.438.949.657l.877.658c.365.292.657.511.949.803z" fill="#fff"/><path opacity=".1" d="M161.712 99.64H95.099v9.059h66.613v-9.058z" fill="#020100"/><path d="M143.014 101.539h-38.639v5.333h38.639v-5.333zm0 10.445h-38.639v5.333h38.639v-5.333zm0 10.373h-38.639v5.333h38.639v-5.333zm0 10.448h-38.639v5.332h38.639v-5.332z" fill="#fff"/><path d="M151.194 143.178h-38.638v5.332h38.638v-5.332zm0 10.445h-38.638v5.333h38.638v-5.333z" fill="#455A64"/><path d="M143.014 164.07h-38.639v5.333h38.639v-5.333zm0 10.373h-38.639v5.333h38.639v-5.333z" fill="#fff"/><path d="M26.806 296.509l105.617.439c25.638-20.162 28.34-50.039 10.007-68.156-11.102-10.957-25.126-8.766-38.565-10.446h-.074c-4.674-.584-9.276-1.68-13.585-4.018-13.805-7.305-21.547-24.471-33.16-38.935-1.461-1.826-2.922-3.579-4.53-5.26-9.567-10.227-28.558-10.519-38.492 3.799-25.199 36.452-13.658 90.655 12.783 122.577z" fill="#AFB6E5"/><path d="M24.47 213.16c2.775 43.319 52.808 59.536 84.069 46.533 27.171-11.323 18.26-37.036-4.674-41.346h-.073c-4.675-.584-9.276-1.68-13.586-4.018-13.805-7.305-21.547-24.471-33.16-38.935-17.238-8.912-34.549 6.063-32.577 37.766z" fill="#E5E9FF"/><path d="M108.465 303.302c-1.533-.585-37.104-28.124-37.835-30.024-.292-.73 3.433-6.136 8.108-12.564a607.7 607.7 0 0 1 3.14-4.237c6.94-9.35 14.609-19.139 14.609-19.139l23.811 18.408-15.265 18.628-3.36 4.091s8.911 16.655 9.422 18.847c.584 2.118-1.096 6.501-2.63 5.99z" fill="#774442"/><path d="M85.677 251.436c-1.242 1.607-2.484 3.36-3.725 4.967-1.096 1.461-2.118 2.849-3.14 4.237-4.675 6.428-8.4 11.834-8.108 12.564.657 1.9 36.228 29.512 37.835 30.024 1.534.584 3.213-3.872 2.702-6.063-.511-2.192-9.422-18.847-9.422-18.847l3.36-4.091 3.433-4.164-22.935-18.627z" fill="#EBEBEB"/><path d="M108.611 303.595c-1.607-.585-37.616-28.782-38.273-30.754-.292-.877 5.332-8.839 11.54-17.021l23.52 18.263-3.433 4.164s8.984 16.947 9.495 19.212c.438 2.264-1.242 6.72-2.849 6.136z" fill="#FFC727"/><path d="M109.195 301.77c-5.916-4.895-30.239-24.034-36.52-28.416-.073 0-.073-.001 0 .073 5.77 4.967 30.239 23.887 36.447 28.416.146.146.219.073.073-.073zm-5.404-24.18c-2.045-2.338-5.186-4.237-8.4-3.945-.146 0-.073.219 0 .219 2.922 1.096 5.478 2.338 8.108 4.018.219.146.438-.073.292-.292z" fill="#263238"/><path d="M104.74 280.002c-2.045-2.338-5.186-4.237-8.4-3.945-.146 0-.073.219 0 .219 2.922 1.096 5.478 2.338 8.108 4.018.219.146.438-.146.292-.292zm.876 2.41c-2.045-2.338-5.186-4.237-8.4-3.945-.146 0-.073.219 0 .219 2.922 1.096 5.478 2.338 8.108 4.018.219.073.438-.146.292-.292z" fill="#263238"/><path d="M106.493 284.75c-2.045-2.338-5.186-4.237-8.4-3.945-.146 0-.073.219 0 .219 2.922 1.096 5.478 2.338 8.108 4.018.292.146.438-.146.292-.292zm5.989-9.207c.074-2.045-2.118-2.775-3.798-2.775-2.629.073-5.697 1.095-7.961 2.556-.073.073-.073.073 0 .146-.146.22-.146.512.146.585 2.556.803 5.113 1.972 7.815 1.972 1.68.073 3.725-.584 3.798-2.484zm-7.45 1.023c-1.241-.365-2.483-.803-3.725-1.096 1.534-.511 3.068-1.095 4.675-1.388.73-.146 1.534-.292 2.337-.365 1.242-.073 5.113.731 2.63 2.995-1.388 1.242-4.456.292-5.917-.146z" fill="#263238"/><path d="M95.245 270.065c1.315 2.338 3.579 4.091 5.478 5.917.219.22.511.073.584-.146.073 0 .073 0 .073-.073.219-2.63-.365-5.844-1.534-8.181-.73-1.461-2.483-2.995-4.236-1.973-1.534.95-1.096 3.068-.365 4.456zm.292-2.556c.803-3.288 3.433-.22 3.871.876.292.731.585 1.461.804 2.192.438 1.534.73 3.141 1.022 4.748-.876-.95-1.826-1.826-2.775-2.776-1.169-1.096-3.433-3.287-2.922-5.04z" fill="#263238"/><path d="M144.913 219.149c-1.607 12.418-32.138 48.14-35.717 52.23-.511.585-.804.95-.804.95L83.12 252.898l.292-.365 22.205-29.147s-36.74 21.476-55.146 11.688c-8.253-4.383-14.389-12.127-14.389-12.127l24.03-12.783s6.647 2.118 10.884 1.534c14.608-2.119 47.403-14.61 55.218-14.318 10.08.511 20.16 10.373 18.699 21.769z" fill="#294381"/><path d="M113.651 212.574c-.877.877-1.534 1.973-2.264 2.922-.804 1.023-1.607 2.046-2.338 3.068l.439-.876c.511-1.023.876-2.119 1.46-3.068 0-.073-.073-.146-.073-.073-.584.949-1.314 1.899-1.826 2.922-.219.511-.438.949-.657 1.461-.146.292-.219.511-.365.803-.073.146-.073.292-.146.365-.365.512-.731.95-1.023 1.461-.73 1.096-1.388 2.265-2.191 3.288-.073.073.073.146.073.073.803-1.023 1.607-1.973 2.41-2.995a49.091 49.091 0 0 0 2.265-3.142c.73-1.022 1.46-2.045 2.191-3.141.657-.803 1.534-1.826 2.045-3.068.073.073.073 0 0 0zm-2.629 53.765c-1.388-1.315-2.849-2.484-4.309-3.653-1.461-1.169-2.922-2.411-4.456-3.579-2.995-2.338-5.916-4.749-8.91-7.086-1.68-1.315-3.288-2.557-5.04-3.726-.074-.073-.147.073-.074.146 2.776 2.557 5.77 4.895 8.765 7.232 2.995 2.338 5.917 4.749 8.911 7.086 1.68 1.242 3.287 2.557 4.967 3.726.146 0 .219-.073.146-.146zm-83.558-99.64a2.396 2.396 0 0 0-.877 2.265c.292 1.095 1.315 1.826 2.41 1.607a1.777 1.777 0 0 0 0 .876 2.39 2.39 0 0 0 2.63 1.827c-.073.219 0 .511 0 .73.292 1.169 1.46 1.899 2.63 1.607.51-.146.95-.365 1.241-.803.365 1.095 1.461 1.68 2.557 1.461a2.7 2.7 0 0 0 .803-.366c0 .073 0 .146.073.22.292 1.168 1.46 1.899 2.63 1.607.73-.146 1.241-.658 1.533-1.242.439.876 1.461 1.461 2.41 1.169.804-.22 1.389-.804 1.608-1.534a2.206 2.206 0 0 0 1.534.146 2.27 2.27 0 0 0 1.46-1.096 2.585 2.585 0 0 0 1.826.292c1.023-.219 1.753-1.169 1.826-2.191.293.073.585.073.877 0 1.096-.22 1.753-1.242 1.68-2.338.365.073.657.073 1.022 0 1.315-.292 2.119-1.534 1.753-2.849-.073-.292-.146-.511-.292-.73.146 0 .22 0 .365-.073 1.17-.293 1.9-1.461 1.607-2.557-.073-.439-.292-.731-.584-1.023 1.169-.365 1.826-1.607 1.534-2.776-.073-.438-.365-.876-.657-1.169.803-.511 1.241-1.534 1.022-2.556-.146-.731-.657-1.315-1.315-1.607.365-.512.439-1.096.365-1.681-.146-.657-.51-1.095-1.095-1.388.438-.584.657-1.314.511-2.045a2.329 2.329 0 0 0-2.118-1.826 2.407 2.407 0 0 0 0-1.023c-.22-1.096-1.242-1.753-2.337-1.68a2.407 2.407 0 0 0 0-1.023c-.292-1.315-1.607-2.045-2.849-1.753-.219.073-.365.073-.511.219 0-.146 0-.219-.073-.365-.292-1.242-1.607-2.045-2.849-1.753-.219.073-.365.146-.584.219 0-.219 0-.438-.073-.657-.292-1.315-1.607-2.119-2.849-1.754-.657.146-1.168.585-1.534 1.096-.584-.584-1.387-.877-2.264-.657-.657.146-1.168.511-1.46 1.022a2.21 2.21 0 0 0-2.411-1.095c-.73.146-1.315.73-1.534 1.388a2.276 2.276 0 0 0-1.826-.366c-.95.219-1.534 1.023-1.68 1.9-.511-.366-1.241-.512-1.899-.366-1.095.293-1.899 1.242-1.826 2.411-.292-.073-.511 0-.803 0-1.169.292-1.9 1.461-1.607 2.63.073.292.146.511.292.73h-.146c-1.315.292-2.118 1.607-1.753 2.849l.219.658c-.22 0-.365 0-.584.073-1.169.292-1.9 1.461-1.607 2.556.146.585.511 1.096.95 1.388-.585.512-.877 1.315-.658 2.119.146.584.511 1.023.95 1.315-.877.511-1.388 1.534-1.096 2.629.219 1.023 1.095 1.681 2.045 1.827-.511.511-.73 1.242-.584 2.045.438.731 1.168 1.315 1.972 1.461z" fill="#263238"/><path d="M47.404 185.253c4.528 6.428 19.94 23.23 30.53 25.641 5.844 1.314 34.257 5.332 38.128 1.753 4.529-4.164 2.411-19.797-1.168-19.943-11.03-.438-31.481 1.753-36.594.585-2.337-.512-14.535-8.401-27.61-14.756-4.966-2.265-6.208 2.556-3.286 6.72z" fill="#774442"/><path d="M108.904 191.902l-1.899 23.376s-25.71-.438-33.526-4.748c-7.742-4.383-20.451-15.487-25.272-23.23-4.82-7.743-3.214-11.98 6.209-7.232 9.422 4.748 22.204 12.418 23.884 12.784 1.68.438 30.604-.95 30.604-.95z" fill="#FFC727"/><path d="M103.791 193.508c0-.073-.073-.073-.073 0-.292 1.607-.438 3.287-.657 4.894-.219 1.68-.365 3.361-.511 5.041-.292 3.36-.658 6.72-.731 10.081 0 .146.219.146.219 0 .512-3.288.804-6.648 1.096-10.008.146-1.68.292-3.288.438-4.968 0-1.607.219-3.36.219-5.04z" fill="#263238"/><path d="M68.877 187.81c-2.483 4.821-5.551 9.424-8.18 13.149-.074-.073-.22-.146-.293-.219 2.63-3.653 5.624-8.255 8.108-13.076.146.073.219.073.365.146zm3.068 1.754c-2.557 5.041-5.698 9.935-8.473 13.806-.073-.073-.22-.146-.292-.219 2.775-3.871 5.916-8.693 8.472-13.733.073 0 .147.073.293.146z" fill="#fff"/><path opacity=".1" d="M84.216 213.451c-4.382-.731-8.4-1.68-10.737-2.995-7.742-4.383-20.451-15.487-25.272-23.303-3.725-5.917-3.652-9.789.803-9.131l35.206 35.429z" fill="#020100"/><path d="M24.614 228.572c1.388.438 41.56-11.177 41.56-11.177l-4.747-13.952s2.337-4.456 1.242-8.766c-1.461-5.771-12.125-15.194-12.929-15.779-3.36-2.264-6.5-2.191-9.276-.73-11.613 6.209-15.85 50.404-15.85 50.404z" fill="#FFC727"/><path d="M60.696 190.659c-10.371 5.114-24.687 7.013-30.75 7.671 0-.146.073-.22.073-.366 6.063-.657 20.16-2.556 30.458-7.597.073.073.146.146.22.292zm1.608 2.849c-11.03 5.99-27.683 8.035-33.307 8.547 0-.146.073-.293.073-.366 5.697-.584 22.132-2.556 33.014-8.546.074.146.147.219.22.365z" fill="#fff"/><path d="M55.218 183.938c1.023 1.169 2.118 2.338 3.214 3.507l-1.534-2.63s0-.073 0 0c.804 1.023 1.461 2.118 2.045 3.214a21.053 21.053 0 0 1 2.192 2.849c.803 1.169 1.46 2.484 1.826 3.872.365 1.388.365 2.849.146 4.31-.292 1.68-.804 3.214-1.388 4.821-.073.219-.365.073-.292-.146.73-2.703 1.607-5.625 1.022-8.401-.584-2.776-2.337-5.186-4.09-7.451-1.023-1.315-2.045-2.703-3.287-3.871 0-.074.146-.147.146-.074z" fill="#263238"/><path d="M35.206 187.883c-3.214 18.335-.585 32.142 2.483 33.822 8.4 4.602 24.542-3.507 30.166-5.333 2.264-.73.073-19.796-2.41-19.285-6.209 1.242-17.311 7.743-17.676 7.67-.658-.073-1.315-4.748-4.529-18.335-2.556-10.958-6.72-5.99-8.034 1.461z" fill="#774442"/><path d="M63.034 197.818s11.76-4.895 21.255-4.456c3.214.146 16.288 4.237 15.485 7.451-.804 2.922-11.614-1.826-11.614-1.826s11.395 3.798 9.788 7.158c-1.607 3.288-13.148-3.652-13.148-3.652s11.614 4.164 9.423 7.305c-1.607 2.411-12.49-3.36-12.49-3.36s9.933 3.652 8.326 6.209c-1.753 2.776-12.052-1.899-12.052-1.899-5.112 5.77-9.86 6.428-13.366 6.428-.73 0-1.607-19.358-1.607-19.358z" fill="#774442"/><path d="M84.362 197.379c1.388.365 2.703.803 4.018 1.315a36.927 36.927 0 0 1 3.87 1.753c3.069 1.534 4.748 2.995 4.675 2.922-2.702-1.899-7.377-3.799-8.691-4.31a61.807 61.807 0 0 1-3.872-1.68c-.073 0-.073 0 0 0zm-1.972 4.676c1.68.584 3.433 1.095 5.113 1.753 1.68.657 3.213 1.461 4.82 2.191.146.073.073.073-.073.073-1.68-.73-3.214-1.241-4.894-1.899-1.68-.657-3.286-1.461-4.966-2.118-.073.073-.073 0 0 0zm-2.41 3.797c2.63.731 5.185 1.973 7.596 3.288.146.073 0 .146-.073.073a133.446 133.446 0 0 0-7.523-3.287c-.074 0-.074-.147 0-.074z" fill="#263238"/><path d="M60.77 197.892l9.641 20.527s-29.873 8.693-33.89 3.506c-4.018-5.259-3.799-21.769-1.9-33.164 1.9-11.396 7.012-11.615 9.277-1.315 2.264 10.3 3.579 16.801 3.944 16.801.438-.073 12.928-6.355 12.928-6.355z" fill="#FFC727"/><path d="M46.38 199.061c-4.09 2.775-8.764 5.186-13.147 7.085v-.365c4.383-1.899 8.984-4.31 13.075-7.086a.797.797 0 0 1 .073.366zm.878 3.58c-4.31 2.922-9.277 5.405-13.878 7.378v-.366c4.528-1.972 9.495-4.456 13.731-7.378.074.146.074.22.147.366z" fill="#fff"/><path d="M56.826 200.595c0-.073-.146 0-.073.073.511 1.534 1.242 3.068 1.899 4.529.657 1.534 1.388 3.068 2.118 4.602 1.46 3.068 2.849 6.136 4.456 9.131.073.146.219 0 .219-.073-1.242-3.141-2.703-6.136-4.09-9.204-.731-1.534-1.388-2.995-2.119-4.529-.803-1.461-1.534-3.068-2.41-4.529zm-2.265 21.622c-.803 0-1.68.292-2.483.438l-2.63.438c-1.68.22-3.36.366-5.04.439-1.68.073-5.77-.219-7.084-1.388-1.096-1.023-1.9-2.63-2.192-3.726-.438-1.899-.803-3.871-1.022-5.844-.512-4.164-.585-8.4-.365-12.564l.219-3.507c.073-1.168.219-2.41.292-3.579 0-.073-.073-.073-.073 0-.438 1.899-.585 3.799-.804 5.771-.073-1.169-.219-2.411-.219-3.58 0-.073-.073-.073-.073 0 0 1.242-.073 2.557 0 3.799 0 .73.073 1.388.146 2.118-.073 1.608-.146 3.215-.146 4.822.073 4.237.365 8.547 1.461 12.637.511 1.827 1.242 3.507 2.922 4.456.95.585 2.63.95 3.944 1.023 2.848.219 5.77 0 8.619-.511.803-.146 1.606-.293 2.337-.512.73-.146 1.607-.292 2.264-.657 0 0 0-.073-.073-.073zm6.136-24.763c-2.19 1.096-4.382 2.192-6.573 3.36-1.096.585-2.192 1.096-3.214 1.681-1.023.511-2.995 1.607-2.995 1.607 0-.512-.438-1.9-.584-2.849-.22-1.023-.438-2.046-.73-2.995-.074-.293-.147-.512-.22-.804-.073-.511-.073-.95-.146-1.461-.073-.803-.146-1.607-.292-2.337h-.073c-.073.73-.073 1.461 0 2.191-.365-1.242-.657-2.411-1.023-3.652 0-.073-.073 0-.073 0 .366 2.045.804 4.09 1.242 6.063.22.949.511 1.972.73 2.922.22.949.804 3.141.877 3.141 1.096-.365 2.191-.95 3.287-1.461 1.095-.512 2.264-1.096 3.36-1.607 2.19-1.096 4.31-2.192 6.427-3.434 0 0 .292.658.365.731.074.073.147-.073.074-.146 0-.146-.366-.95-.439-.95z" fill="#263238"/><path d="M104.886 212.576H62.304v1.899h42.582v-1.899z" fill="#C7C7C7"/><path d="M71.361 212.576l-1.46 1.899h34.986v-1.899H71.361z" fill="#A6A6A6"/><path d="M73.186 214.475h41.561l3.433-28.198H76.692l-3.505 28.198z" fill="#C7C7C7"/><path d="M93.127 200.375c0 1.388 1.096 2.557 2.483 2.557a2.54 2.54 0 0 0 2.557-2.557c0-1.388-1.096-2.557-2.484-2.557-1.387 0-2.483 1.169-2.556 2.557z" fill="#fff"/><path d="M117.815 189.053c1.534 2.41 5.405 5.259 5.989 7.305.511 1.899-1.023 2.776-1.023 2.776s2.265.803 2.411 2.702c.073 1.023-1.461 2.046-1.461 2.046s1.753.73 1.826 2.484c0 1.387-1.534 2.191-1.534 2.191s1.388 1.461.95 2.922c-.877 2.922-12.709 4.456-15.12.365-1.095-1.899 1.826-2.118 1.826-2.118s-4.309-.658-4.674-3.141c-.366-2.411 3.433-2.484 3.433-2.484s-4.164-.731-4.31-3.287c-.146-2.703 3.652-2.119 3.652-2.119s-2.848-1.461-2.556-3.433c.584-3.287 7.304.219 9.86-.731l.731-5.478z" fill="#774442"/><path d="M123.804 208.702c.073-.073.073 0 0 0-3.798 1.534-8.4 1.973-12.344.95-.146 0-.146-.292 0-.219 4.31.219 8.181.146 12.344-.731zm.001-4.82c.073 0 .073.073 0 .073-3.871 1.461-9.13 1.826-13.513.146-.146-.073-.219-.292-.073-.219 3.068.876 9.788.803 13.586 0zm-14.244-5.552c4.31 1.461 8.619 1.461 13.075.804.073 0 .073.073 0 .073-2.118.949-4.967 1.022-7.231.949-2.192-.073-4.091-.584-5.917-1.68-.073 0-.073-.146.073-.146z" fill="#263238"/><path d="M38.492 179.628s7.085 5.991 11.614 4.895c4.528-1.096 1.753-5.698 1.753-5.698s-4.09-2.484-8.546-1.972c-3.14.511-4.82 2.775-4.82 2.775z" fill="#774442"/><path d="M42.144 178.535c.146.731 3.58 5.479 6.866 5.406 1.096-.073 1.169-5.917 1.169-5.917l.073-.438 1.46-6.064-8.107-5.332c0-.073-1.534 12.053-1.46 12.345z" fill="#774442"/><path d="M51.713 171.448l-1.461 6.063c-1.753-.657-5.478-2.63-7.158-7.305.219-2.118.438-3.872.511-4.091l1.023.658 7.085 4.675z" fill="#263238"/><path d="M60.478 162.608c.219 10.957-6.355 12.345-8.692 12.418-2.118.073-9.495-.073-10.81-11.03-1.388-10.884 3.652-14.464 8.619-14.829 4.82-.292 10.664 2.484 10.883 13.441z" fill="#774442"/><path d="M58.725 160.855a9.192 9.192 0 0 1-.73-.219c-.293-.073-.512-.146-.731-.365a.623.623 0 0 1 0-.511c.292-.293.657-.293.95-.146.364.073.657.219.876.511.292.365 0 .803-.365.73zm-7.451.584c.292 0 .511-.073.73-.146.293-.073.512-.073.73-.292a.354.354 0 0 0 0-.512c-.218-.292-.584-.292-.949-.292a2.254 2.254 0 0 0-.95.439c-.145.365.074.803.439.803zm1.461 1.682s-.073.073 0 0c-.073.804-.146 1.68-.877 1.899v.073c.877-.073 1.023-1.241.877-1.972z" fill="#263238"/><path d="M52.078 162.317c-1.169-.146-1.388 2.264-.22 2.411 1.096.146 1.242-2.265.22-2.411z" fill="#263238"/><path d="M51.64 162.463c-.22.146-.439.365-.73.365-.293 0-.512-.292-.658-.512h-.073c-.073.439.146.95.584 1.023.439.073.804-.292.95-.73.073-.073 0-.22-.073-.146zm5.478.73c0-.073 0 0 0 0 0 .803 0 1.68.657 1.972v.073c-.876-.219-.876-1.388-.657-2.045z" fill="#263238"/><path d="M57.848 162.463c1.242 0 1.096 2.411 0 2.411-1.095 0-1.022-2.411 0-2.411z" fill="#263238"/><path d="M58.287 162.608c.219.146.365.365.584.365.292 0 .438-.219.658-.438h.073c0 .438-.146.95-.585 1.023-.438.073-.657-.365-.803-.804-.073-.073 0-.146.073-.146zm-6.063 7.159c.146.219.292.438.585.511.219.073.584 0 .803-.073 0 0 .073 0 0 .073-.22.292-.657.365-1.023.292-.292-.073-.438-.438-.51-.73.072-.073.145-.146.145-.073zm3.433-2.702s.073 1.096 0 1.68c0 .073-.146.073-.292.073-.95.073-1.826-.292-2.338-1.095 0-.073.073-.073.073-.073.658.584 1.388.73 2.265.803.073-.146-.146-1.899-.073-1.899.292 0 .803.219 1.168.365-.073-2.337-.511-4.675-.511-7.013 0-.073.146-.073.146 0 .657 2.411.73 5.114.877 7.524-.074.22-1.17-.219-1.315-.365z" fill="#263238"/><path d="M55.364 168.599s-.51.731-1.241.95c-.292.073-.512.146-.804.073-.584-.146-.657-.731-.511-1.169.073-.365.292-.73.292-.73s.803.803 2.264.876z" fill="#263238"/><path d="M54.123 169.549c-.292.073-.512.146-.804.073-.584-.146-.657-.731-.511-1.169.584.073 1.242.438 1.315 1.096z" fill="#FF9CBD"/><path d="M41.779 163.558c1.168-.073 4.163-3.288 4.236-8.912 0 0-.438 5.04-.803 5.77-.366.731 1.68-1.826 1.825-6.355 0 0 2.484 1.826 4.675 2.411 2.118.584 3.433.584 3.58.438.145-.146-2.996-1.169-3.872-2.118 0 0 5.697 2.629 8.327 2.849.292 0 .219-5.406-3.872-8.036-4.09-2.63-10.08-.584-11.76 1.096 0 0-1.24.584-3.432 3.579-2.118 2.995-.146 9.351 1.096 9.278z" fill="#263238"/><path d="M41.56 166.187c.584 1.534-3.798-5.405-3.871-6.501-.073-1.096 1.46-6.867 5.916-9.789 3.725-2.41 8.765-1.534 9.642-1.388 1.68.293 2.702 1.096 2.702 1.096s-6.573-1.096-11.76 1.096c-2.556 1.023-4.747 9.788-2.629 15.486z" fill="#FFC727"/><path d="M41.486 149.606s.877-3.507 3.725-4.749c0 0 .804 2.995.073 4.237-.365.658-2.629 1.607-2.994 1.315-.365-.292-.804-.803-.804-.803z" fill="#FFC727"/><path opacity=".1" d="M41.486 149.605s.366.511.804.804h.219c.292 0 .803-.146 1.315-.366-.22-.365-.439-.876-.73-1.168-.22-.293-.658-.439-1.17-.512a55.221 55.221 0 0 0-.438 1.242z" fill="#050400"/><path d="M40.902 150.264s-4.309.657-5.989 2.191c0 0 1.753 1.826 4.017 1.68 1.023-.073 3.141-2.556 2.849-2.995-.292-.438-.877-.876-.877-.876z" fill="#FFC727"/><path opacity=".1" d="M39.953 150.483c.073.438.146.949.511 1.315.147.219.439.365.73.511.44-.511.658-1.023.585-1.169-.292-.438-.876-.876-.876-.876s-.365.073-.95.219z" fill="#050400"/><path d="M41.78 151.723a1.388 1.388 0 1 0 0-2.775 1.388 1.388 0 0 0 0 2.775z" fill="#FFC727"/><path d="M42.655 164.873s-2.191-3.579-3.798-2.849c-1.607.731-.146 5.844 1.607 6.648 1.753.803 2.556-.804 2.556-.804l-.365-2.995z" fill="#774442"/><path d="M39.368 163.484c-.073 0-.073 0 0 0 1.242.658 1.826 1.9 2.191 3.142-.365-.512-.876-.804-1.533-.366v.073c.51-.073.876.073 1.241.512.22.292.365.73.512 1.022.073.146.292.073.219-.073.219-1.68-.877-4.017-2.63-4.31z" fill="#263238"/><path d="M199.986 271.379c-.585 1.534-28.778 36.597-30.677 37.255-.731.219-6.063-3.58-12.417-8.328-1.388-1.022-2.776-2.118-4.164-3.214-9.203-7.159-18.844-14.902-18.844-14.902l18.771-23.522 18.333 15.56 4.018 3.433s16.799-8.62 18.99-9.058c2.119-.512 6.574 1.242 5.99 2.776z" fill="#774442"/><path d="M147.762 293.221c1.607 1.242 3.287 2.557 4.966 3.798 1.388 1.096 2.849 2.192 4.164 3.215 6.354 4.821 11.686 8.62 12.417 8.327 1.899-.657 30.093-35.721 30.677-37.255.584-1.534-3.798-3.287-5.989-2.849-2.192.511-18.991 9.058-18.991 9.058l-4.017-3.433-4.091-3.507-19.136 22.646z" fill="#EBEBEB"/><path d="M200.278 271.232c-.584 1.607-29.435 37.109-31.407 37.767-.877.292-8.692-5.552-16.8-11.834l18.699-23.157 4.09 3.506s17.165-8.693 19.356-9.131c2.191-.584 6.647 1.242 6.062 2.849z" fill="#FFC727"/><path d="M198.452 270.576c-4.967 5.844-24.541 29.877-28.997 36.013-.073.073 0 .073.073 0 5.04-5.698 24.396-29.877 29.07-35.94.073-.146 0-.219-.146-.073zm-24.249 4.967c-2.338 1.973-4.31 5.114-4.091 8.328 0 .146.146.073.219 0 1.169-2.922 2.411-5.479 4.164-8.035.146-.22-.073-.439-.292-.293zm2.41-.877c-2.337 1.973-4.31 5.114-4.09 8.328 0 .146.146.073.219 0 1.168-2.922 2.41-5.479 4.163-8.035.146-.22-.146-.439-.292-.293zm2.41-.876c-2.337 1.973-4.309 5.114-4.09 8.328 0 .146.146.073.219 0 1.168-2.922 2.41-5.479 4.163-8.035.073-.219-.146-.366-.292-.293zm2.411-.803c-2.337 1.972-4.309 5.113-4.09 8.327 0 .146.146.073.219 0 1.169-2.922 2.41-5.478 4.163-8.035.073-.219-.146-.438-.292-.292z" fill="#263238"/><path d="M172.304 266.849c-2.045-.073-2.848 2.046-2.775 3.726.073 2.63 1.023 5.771 2.41 7.962 0 .073.073.073.146 0 .22.146.512.147.585-.146.876-2.483 2.045-5.113 2.118-7.816.073-1.607-.584-3.652-2.484-3.726zm.877 7.452c-.365 1.241-.803 2.483-1.169 3.725-.438-1.534-1.022-3.068-1.314-4.675-.146-.731-.293-1.534-.366-2.338-.073-1.242.804-5.04 3.068-2.556 1.242 1.388.219 4.383-.219 5.844z" fill="#263238"/><path d="M166.461 283.943c2.41-1.241 4.163-3.506 5.989-5.405.219-.219.073-.512-.146-.585 0-.073 0-.073-.073-.146-2.629-.292-5.843.219-8.181 1.388-1.46.731-3.067 2.411-2.045 4.164.95 1.753 3.068 1.315 4.456.584zm-2.484-.292c-3.213-.876-.219-3.433.95-3.871.73-.293 1.461-.512 2.264-.731 1.607-.438 3.214-.657 4.748-.95-.95.877-1.899 1.827-2.776 2.703-1.168 1.096-3.433 3.36-5.186 2.849z" fill="#263238"/><path d="M169.966 270.649l-19.794 26.663-66.76-46.313-6.427-4.457s-1.826 1.242-4.601 2.776c-3.798 2.119-9.422 4.749-14.316 5.479-8.327 1.242-22.132 1.096-29.143-8.255-5.917-7.889-2.703-18.116-2.703-18.116l9.13-3.945S56.9 206.511 70.85 206c5.916-.219 14.535 4.237 22.57 8.985 7.961 4.602 76.546 55.664 76.546 55.664z" fill="#294381"/><path d="M76.985 246.542s-1.826 1.242-4.602 2.776c-4.82-5.844-15.12-16.363-15.411-16.728l20.013 13.952zM43.24 218.418c-1.315.877-2.556 1.826-3.798 2.776-1.242.876-2.556 1.753-3.725 2.703-1.242 1.022-2.337 2.045-3.506 3.141a16.695 16.695 0 0 0-1.607 1.607c-.511.511-1.095 1.096-1.534 1.68-.073.073.073.146.073.073.585-.365 1.169-.95 1.753-1.388.585-.511 1.169-1.023 1.826-1.534 1.169-.95 2.338-1.972 3.506-2.922 1.169-.949 2.191-2.045 3.36-3.068 1.096-1.023 2.41-1.972 3.652-3.068.073.073 0 0 0 0zm122.051 51.209c-1.314 1.388-2.483 2.849-3.652 4.31-1.168 1.461-2.41 2.922-3.579 4.456-2.337 2.995-4.747 5.917-7.085 8.912-1.314 1.68-2.556 3.287-3.725 5.04-.073.073.073.146.146.073 2.557-2.775 4.894-5.771 7.231-8.766 2.338-2.995 4.748-5.917 7.085-8.912 1.242-1.68 2.557-3.287 3.725-4.967.074-.073-.073-.146-.146-.146zm-54.78.292c-3.286-2.63-6.792-5.113-10.225-7.524-3.433-2.411-6.866-4.894-10.299-7.232a72.718 72.718 0 0 1-2.995-2.045l-3.067-1.973c-.073-.073-.073.074-.073.074.876.657 1.752 1.387 2.629 2.045.877.657 1.68 1.315 2.556 1.899 1.68 1.242 3.36 2.484 5.04 3.653 3.433 2.483 6.866 4.894 10.299 7.305 1.972 1.388 3.944 2.702 5.916 4.017.219.073.366-.146.219-.219zm21.328-27.54c-3.067-2.557-6.354-4.821-9.568-7.159-3.287-2.411-6.501-4.748-9.787-7.159-3.214-2.337-6.501-4.675-9.715-7.013-3.14-2.264-6.281-4.602-9.568-6.574-1.826-1.096-3.652-2.118-5.624-3.068-1.826-.877-3.799-1.826-5.77-2.338-.074 0-.074.073-.074.073 1.607.95 3.36 1.681 5.04 2.557 1.607.877 3.214 1.753 4.82 2.776 3.288 1.972 6.428 4.237 9.569 6.501 6.501 4.676 13.001 9.351 19.502 13.953 3.652 2.557 7.231 5.333 11.029 7.67.146.073.292-.146.146-.219z" fill="#263238"/></svg>