<svg width="320" height="255" viewBox="0 0 320 255" fill="none" xmlns="http://www.w3.org/2000/svg"><path fill-rule="evenodd" clip-rule="evenodd" d="M276.693 139.272v37.361H287L259.956 210 233 176.633h10.307v-37.361h33.386zm0-22.363v14.909h-33.386v-14.909h33.386zm0-14.909v7.454h-33.386V102h33.386z" fill="url(#a)" shape-rendering="crispEdges" filter="url(#b)"/><g filter="url(#c)"><rect x="17" y="30" width="286" height="91" rx="16" fill="#fff" shape-rendering="crispEdges"/><path d="M69.44 78.1a.833.833 0 0 1-.612-.252c-.168-.144-.252-.348-.252-.612v-2.52c-1.728-.168-3.216-.576-4.464-1.224-1.224-.672-2.16-1.488-2.808-2.448-.624-.984-.96-2.028-1.008-3.132 0-.216.072-.396.216-.54a.86.86 0 0 1 .576-.216h3.204c.264 0 .468.06.612.18.168.096.324.264.468.504.264.816.816 1.5 1.656 2.052.864.552 2.052.828 3.564.828 1.68 0 2.952-.276 3.816-.828.864-.576 1.296-1.368 1.296-2.376 0-.672-.216-1.224-.648-1.656-.432-.432-1.092-.804-1.98-1.116-.888-.336-2.196-.72-3.924-1.152-2.832-.672-4.908-1.56-6.228-2.664-1.296-1.128-1.944-2.724-1.944-4.788 0-1.872.672-3.444 2.016-4.716 1.368-1.296 3.228-2.088 5.58-2.376v-2.484c0-.264.084-.468.252-.612a.833.833 0 0 1 .612-.252h2.196c.24 0 .444.084.612.252a.833.833 0 0 1 .252.612v2.556c1.56.216 2.892.684 3.996 1.404 1.128.696 1.98 1.512 2.556 2.448.6.936.924 1.848.972 2.736a.733.733 0 0 1-.216.54.733.733 0 0 1-.54.216H75.92c-.528 0-.888-.228-1.08-.684-.12-.768-.588-1.404-1.404-1.908-.816-.528-1.836-.792-3.06-.792-1.32 0-2.364.252-3.132.756-.768.504-1.152 1.236-1.152 2.196 0 .672.192 1.224.576 1.656.384.432.984.816 1.8 1.152.84.336 2.04.708 3.6 1.116 2.112.48 3.792 1.02 5.04 1.62 1.272.6 2.208 1.356 2.808 2.268.6.912.9 2.076.9 3.492 0 2.064-.744 3.756-2.232 5.076-1.488 1.296-3.516 2.076-6.084 2.34v2.484c0 .24-.084.444-.252.612a.833.833 0 0 1-.612.252H69.44zm22.665-3.6a.833.833 0 0 1-.612-.252.833.833 0 0 1-.252-.612V54.988L85.769 59.2a.763.763 0 0 1-.504.18c-.288 0-.528-.132-.72-.396l-1.512-1.944c-.12-.192-.18-.372-.18-.54 0-.288.132-.528.396-.72l8.064-6.228c.216-.168.516-.252.9-.252h3.168c.264 0 .468.084.612.252.168.144.252.348.252.612v23.472c0 .24-.084.444-.252.612-.144.168-.348.252-.612.252h-3.276zm18.5.36c-3.192 0-5.58-.888-7.164-2.664-1.56-1.776-2.412-4.104-2.556-6.984-.024-.648-.036-1.752-.036-3.312 0-1.584.012-2.712.036-3.384.12-2.832.984-5.136 2.592-6.912 1.608-1.776 3.984-2.664 7.128-2.664 3.168 0 5.556.888 7.164 2.664 1.608 1.776 2.46 4.08 2.556 6.912.048.672.072 1.8.072 3.384 0 1.56-.024 2.664-.072 3.312-.12 2.88-.972 5.208-2.556 6.984-1.56 1.776-3.948 2.664-7.164 2.664zm0-4.14c1.512 0 2.64-.492 3.384-1.476.744-1.008 1.14-2.412 1.188-4.212.048-1.392.072-2.448.072-3.168 0-.792-.024-1.836-.072-3.132-.048-1.776-.444-3.168-1.188-4.176s-1.872-1.512-3.384-1.512c-1.488 0-2.616.504-3.384 1.512-.744 1.008-1.14 2.4-1.188 4.176a95.252 95.252 0 0 0-.036 3.132c0 1.416.012 2.472.036 3.168.048 1.8.444 3.204 1.188 4.212.768.984 1.896 1.476 3.384 1.476zm29.403 4.14c-2.424 0-4.284-.78-5.58-2.34-1.296-1.56-1.992-3.636-2.088-6.228l-.036-1.188.036-1.152c.072-2.52.756-4.572 2.052-6.156 1.32-1.584 3.192-2.376 5.616-2.376 2.328 0 4.176.792 5.544 2.376v-7.992c0-.264.084-.468.252-.612a.833.833 0 0 1 .612-.252h3.06c.264 0 .468.084.612.252.168.144.252.348.252.612v23.832c0 .24-.084.444-.252.612-.144.168-.348.252-.612.252h-2.844a.833.833 0 0 1-.612-.252.833.833 0 0 1-.252-.612v-1.332c-1.368 1.704-3.288 2.556-5.76 2.556zm1.332-3.852c1.392 0 2.424-.444 3.096-1.332.672-.888 1.044-1.98 1.116-3.276.024-.288.036-.756.036-1.404 0-.624-.012-1.08-.036-1.368-.048-1.2-.432-2.22-1.152-3.06-.696-.864-1.716-1.296-3.06-1.296-2.592 0-3.972 1.596-4.14 4.788l-.036 1.08.036 1.08c.168 3.192 1.548 4.788 4.14 4.788zm14.518-18.324a.833.833 0 0 1-.612-.252.833.833 0 0 1-.252-.612v-2.592c0-.24.084-.444.252-.612a.833.833 0 0 1 .612-.252h3.276c.24 0 .444.084.612.252a.784.784 0 0 1 .288.612v2.592c0 .24-.084.444-.252.612a.877.877 0 0 1-.648.252h-3.276zm.144 21.816a.833.833 0 0 1-.612-.252.833.833 0 0 1-.252-.612V56.644c0-.24.084-.444.252-.612a.833.833 0 0 1 .612-.252h2.988c.264 0 .468.084.612.252.168.144.252.348.252.612v16.992c0 .24-.084.444-.252.612-.144.168-.348.252-.612.252h-2.988zm15.72.36c-1.8 0-3.312-.264-4.536-.792-1.224-.552-2.136-1.188-2.736-1.908-.576-.744-.864-1.38-.864-1.908a.72.72 0 0 1 .252-.576.86.86 0 0 1 .576-.216h2.844c.216 0 .396.084.54.252.096.072.348.288.756.648.408.384.888.684 1.44.9a5 5 0 0 0 1.836.324c.96 0 1.752-.192 2.376-.576.624-.384.936-.912.936-1.584 0-.504-.144-.912-.432-1.224-.264-.312-.756-.588-1.476-.828-.72-.264-1.788-.54-3.204-.828-2.04-.432-3.552-1.092-4.536-1.98-.96-.888-1.44-2.064-1.44-3.528 0-.96.288-1.86.864-2.7.576-.864 1.428-1.56 2.556-2.088 1.152-.552 2.52-.828 4.104-.828 1.608 0 3 .264 4.176.792 1.176.504 2.064 1.116 2.664 1.836.624.696.936 1.32.936 1.872a.793.793 0 0 1-.252.576.733.733 0 0 1-.54.216h-2.664c-.192 0-.396-.084-.612-.252a9.214 9.214 0 0 1-.792-.684c-.36-.336-.78-.6-1.26-.792-.48-.192-1.044-.288-1.692-.288-.888 0-1.584.192-2.088.576-.48.384-.72.888-.72 1.512 0 .456.12.828.36 1.116.24.288.708.564 1.404.828s1.74.528 3.132.792c2.304.456 3.948 1.164 4.932 2.124 1.008.96 1.512 2.136 1.512 3.528 0 1.68-.732 3.048-2.196 4.104-1.464 1.056-3.516 1.584-6.156 1.584zm20.168 0c-2.64 0-4.752-.732-6.336-2.196-1.56-1.464-2.388-3.492-2.484-6.084l-.036-1.44.036-1.44c.096-2.592.924-4.62 2.484-6.084 1.584-1.464 3.696-2.196 6.336-2.196 1.872 0 3.456.336 4.752 1.008 1.32.672 2.292 1.5 2.916 2.484.648.96.996 1.872 1.044 2.736a.685.685 0 0 1-.252.612.833.833 0 0 1-.612.252h-3.168c-.24 0-.432-.048-.576-.144-.12-.12-.24-.312-.36-.576-.36-.936-.84-1.608-1.44-2.016-.576-.408-1.32-.612-2.232-.612-1.224 0-2.184.396-2.88 1.188-.696.768-1.068 1.944-1.116 3.528l-.036 1.332.036 1.188c.096 3.144 1.428 4.716 3.996 4.716.936 0 1.692-.204 2.268-.612.576-.408 1.044-1.08 1.404-2.016.12-.264.24-.444.36-.54.144-.12.336-.18.576-.18h3.168c.24 0 .444.084.612.252a.685.685 0 0 1 .252.612c-.048.84-.384 1.74-1.008 2.7-.624.96-1.584 1.788-2.88 2.484-1.296.696-2.904 1.044-4.824 1.044zm20.746 0c-2.808 0-4.98-.72-6.516-2.16-1.536-1.464-2.364-3.456-2.484-5.976l-.036-1.584.036-1.584c.12-2.496.96-4.476 2.52-5.94 1.56-1.464 3.72-2.196 6.48-2.196 2.76 0 4.92.732 6.48 2.196 1.56 1.464 2.4 3.444 2.52 5.94.024.288.036.816.036 1.584 0 .768-.012 1.296-.036 1.584-.12 2.52-.948 4.512-2.484 5.976-1.536 1.44-3.708 2.16-6.516 2.16zm0-3.564c1.272 0 2.256-.396 2.952-1.188.696-.816 1.08-2.004 1.152-3.564.024-.24.036-.708.036-1.404s-.012-1.164-.036-1.404c-.072-1.56-.456-2.736-1.152-3.528-.696-.816-1.68-1.224-2.952-1.224s-2.256.408-2.952 1.224c-.696.792-1.08 1.968-1.152 3.528l-.036 1.404.036 1.404c.072 1.56.456 2.748 1.152 3.564.696.792 1.68 1.188 2.952 1.188zm13.889 3.204a.833.833 0 0 1-.612-.252.833.833 0 0 1-.252-.612V56.644c0-.24.084-.444.252-.612a.833.833 0 0 1 .612-.252h2.952c.24 0 .444.084.612.252a.833.833 0 0 1 .252.612v1.476c1.416-1.8 3.42-2.7 6.012-2.7 2.208 0 3.96.732 5.256 2.196 1.296 1.44 1.944 3.408 1.944 5.904v10.116c0 .24-.084.444-.252.612-.144.168-.348.252-.612.252h-3.168a.833.833 0 0 1-.612-.252.833.833 0 0 1-.252-.612v-9.9c0-1.416-.348-2.508-1.044-3.276-.672-.792-1.656-1.188-2.952-1.188-1.272 0-2.28.396-3.024 1.188-.72.792-1.08 1.884-1.08 3.276v9.9c0 .24-.084.444-.252.612-.144.168-.348.252-.612.252h-3.168zm29.85 0c-2.184 0-3.828-.564-4.932-1.692-1.08-1.152-1.62-2.832-1.62-5.04v-8.172h-2.844a.833.833 0 0 1-.612-.252.959.959 0 0 1-.252-.648v-2.052c0-.24.084-.444.252-.612a.833.833 0 0 1 .612-.252h2.844v-5.976c0-.264.084-.468.252-.612a.833.833 0 0 1 .612-.252h2.916c.264 0 .468.084.612.252.168.144.252.348.252.612v5.976h4.5c.264 0 .468.084.612.252.168.144.252.348.252.612v2.052c0 .264-.084.48-.252.648a.833.833 0 0 1-.612.252h-4.5v7.812c0 1.032.18 1.812.54 2.34.36.528.96.792 1.8.792h2.484c.24 0 .444.084.612.252a.833.833 0 0 1 .252.612v2.232c0 .24-.084.444-.252.612-.144.168-.348.252-.612.252h-2.916z" fill="#FF1212"/><path d="M67.224 102.74c-1.328 0-2.44-.216-3.336-.648-.896-.448-1.584-1.08-2.064-1.896-.464-.816-.72-1.768-.768-2.856-.016-.32-.024-.68-.024-1.08 0-.416.008-.776.024-1.08.048-1.104.32-2.056.816-2.856.496-.816 1.192-1.44 2.088-1.872.896-.448 1.984-.672 3.264-.672 1.264 0 2.344.224 3.24.672.896.432 1.592 1.056 2.088 1.872.496.8.768 1.752.816 2.856.032.304.048.664.048 1.08 0 .4-.016.76-.048 1.08-.048 1.088-.312 2.04-.792 2.856-.464.816-1.144 1.448-2.04 1.896-.896.432-2 .648-3.312.648zm0-2.64c.784 0 1.376-.24 1.776-.72.4-.496.616-1.216.648-2.16.016-.24.024-.56.024-.96 0-.4-.008-.72-.024-.96-.032-.928-.248-1.64-.648-2.136-.4-.496-.992-.744-1.776-.744s-1.384.248-1.8.744c-.4.496-.616 1.208-.648 2.136-.016.24-.024.56-.024.96 0 .4.008.72.024.96.032.944.248 1.664.648 2.16.416.48 1.016.72 1.8.72zm9.278 2.4a.555.555 0 0 1-.408-.168.585.585 0 0 1-.168-.432V90.62c0-.176.056-.32.168-.432a.555.555 0 0 1 .408-.168h2.352c.176 0 .32.056.432.168a.585.585 0 0 1 .168.432v.936c.416-.512.952-.936 1.608-1.272.656-.336 1.456-.504 2.4-.504s1.768.216 2.472.648c.72.416 1.28 1.032 1.68 1.848.416.8.624 1.776.624 2.928v6.696c0 .176-.064.32-.192.432a.555.555 0 0 1-.408.168h-2.544a.585.585 0 0 1-.432-.168.585.585 0 0 1-.168-.432v-6.552c0-.848-.208-1.504-.624-1.968-.4-.48-.992-.72-1.776-.72-.752 0-1.352.24-1.8.72-.448.464-.672 1.12-.672 1.968v6.552c0 .176-.056.32-.168.432a.555.555 0 0 1-.408.168h-2.544zm25.44 0c-.992 0-1.84-.16-2.544-.48a3.479 3.479 0 0 1-1.608-1.536c-.352-.688-.528-1.552-.528-2.592v-5.04H95.39a.585.585 0 0 1-.432-.168.585.585 0 0 1-.168-.432V90.62c0-.176.056-.32.168-.432a.585.585 0 0 1 .432-.168h1.872v-3.96c0-.176.056-.32.168-.432a.639.639 0 0 1 .432-.168h2.352c.176 0 .32.056.432.168a.585.585 0 0 1 .168.432v3.96h3c.16 0 .296.056.408.168a.585.585 0 0 1 .168.432v1.632c0 .176-.056.32-.168.432a.555.555 0 0 1-.408.168h-3v4.752c0 .608.104 1.088.312 1.44.224.336.608.504 1.152.504h1.752c.16 0 .296.056.408.168a.555.555 0 0 1 .168.408v1.776c0 .176-.056.32-.168.432a.555.555 0 0 1-.408.168h-2.088zm5.357 0a.585.585 0 0 1-.432-.168.585.585 0 0 1-.168-.432V86.06c0-.176.056-.32.168-.432a.585.585 0 0 1 .432-.168h2.592c.16 0 .296.056.408.168a.585.585 0 0 1 .168.432v5.4a4.79 4.79 0 0 1 1.584-1.224c.624-.304 1.376-.456 2.256-.456.944 0 1.776.216 2.496.648.736.416 1.312 1.032 1.728 1.848.416.8.624 1.776.624 2.928v6.696c0 .176-.056.32-.168.432a.585.585 0 0 1-.432.168h-2.616a.555.555 0 0 1-.408-.168.585.585 0 0 1-.168-.432v-6.552c0-.848-.208-1.504-.624-1.968-.416-.48-1.008-.72-1.776-.72-.752 0-1.36.24-1.824.72-.448.464-.672 1.12-.672 1.968v6.552c0 .176-.056.32-.168.432a.555.555 0 0 1-.408.168h-2.592zm20.297.24c-1.84 0-3.304-.512-4.392-1.536-1.072-1.024-1.64-2.512-1.704-4.464v-1.032c.064-1.232.344-2.288.84-3.168a4.937 4.937 0 0 1 2.088-2.04c.896-.48 1.944-.72 3.144-.72 1.344 0 2.464.28 3.36.84a5.065 5.065 0 0 1 2.04 2.256c.464.944.696 2.032.696 3.264v.552c0 .16-.064.296-.192.408a.555.555 0 0 1-.408.168h-7.848v.192c.016.512.112.984.288 1.416.192.416.456.752.792 1.008.352.256.768.384 1.248.384.4 0 .728-.056.984-.168a2.01 2.01 0 0 0 .624-.408c.176-.16.304-.296.384-.408.144-.16.256-.256.336-.288.096-.048.24-.072.432-.072h2.496c.16 0 .288.048.384.144.112.08.16.2.144.36-.016.256-.152.576-.408.96-.24.368-.6.736-1.08 1.104-.48.352-1.08.648-1.8.888-.704.24-1.52.36-2.448.36zm-2.376-7.656h4.704v-.048c0-.576-.096-1.072-.288-1.488a2.178 2.178 0 0 0-.792-1.008c-.352-.24-.776-.36-1.272-.36s-.92.12-1.272.36-.624.576-.816 1.008c-.176.416-.264.912-.264 1.488v.048zm17.713 7.416a.585.585 0 0 1-.432-.168.585.585 0 0 1-.168-.432v-9.048h-1.872a.585.585 0 0 1-.432-.168.585.585 0 0 1-.168-.432V90.62c0-.176.056-.32.168-.432a.585.585 0 0 1 .432-.168h1.872v-.864c0-1.024.192-1.864.576-2.52.384-.656.944-1.136 1.68-1.44.736-.304 1.64-.456 2.712-.456h5.52c.16 0 .296.056.408.168a.585.585 0 0 1 .168.432v1.632c0 .176-.056.32-.168.432a.555.555 0 0 1-.408.168h-5.376c-.592 0-1.008.144-1.248.432-.224.288-.336.712-.336 1.272v.744h6.96c.16 0 .296.056.408.168a.585.585 0 0 1 .168.432v11.28c0 .176-.056.32-.168.432a.555.555 0 0 1-.408.168h-2.352a.585.585 0 0 1-.432-.168.585.585 0 0 1-.168-.432v-9.048h-4.008v9.048c0 .176-.056.32-.168.432a.555.555 0 0 1-.408.168h-2.352zm14.686 0a.555.555 0 0 1-.408-.168.585.585 0 0 1-.168-.432V90.62c0-.16.056-.296.168-.408a.523.523 0 0 1 .408-.192h2.352c.16 0 .296.064.408.192a.523.523 0 0 1 .192.408v.96c.4-.496.888-.88 1.464-1.152.592-.272 1.272-.408 2.04-.408h1.032c.16 0 .296.056.408.168a.585.585 0 0 1 .168.432v2.064c0 .176-.056.32-.168.432a.555.555 0 0 1-.408.168h-2.112c-.704 0-1.256.2-1.656.6-.4.384-.6.936-.6 1.656v6.36c0 .176-.056.32-.168.432a.585.585 0 0 1-.432.168h-2.52zm14.774.24c-.992 0-1.848-.112-2.568-.336-.704-.24-1.28-.528-1.728-.864-.432-.336-.76-.672-.984-1.008-.208-.352-.32-.648-.336-.888a.484.484 0 0 1 .168-.432c.128-.112.256-.168.384-.168h2.328c.048 0 .096.008.144.024a.32.32 0 0 1 .144.12c.208.144.424.312.648.504.224.176.48.328.768.456.304.128.68.192 1.128.192.528 0 .976-.104 1.344-.312.368-.224.552-.536.552-.936 0-.288-.088-.528-.264-.72-.16-.192-.472-.368-.936-.528-.464-.16-1.152-.336-2.064-.528-.864-.192-1.6-.448-2.208-.768-.608-.32-1.064-.72-1.368-1.2-.304-.496-.456-1.088-.456-1.776 0-.624.192-1.224.576-1.8.4-.576.984-1.048 1.752-1.416.768-.384 1.728-.576 2.88-.576.88 0 1.648.112 2.304.336.672.208 1.232.48 1.68.816.448.32.784.656 1.008 1.008.24.336.368.632.384.888a.482.482 0 0 1-.144.408.529.529 0 0 1-.384.168h-2.136a.892.892 0 0 1-.216-.024.64.64 0 0 1-.168-.12 10.955 10.955 0 0 1-.6-.432 2.76 2.76 0 0 0-.696-.456c-.272-.128-.624-.192-1.056-.192-.528 0-.936.12-1.224.36a1.069 1.069 0 0 0-.408.864c0 .224.072.432.216.624.144.192.44.368.888.528.448.16 1.128.328 2.04.504 1.088.192 1.952.48 2.592.864.64.384 1.096.832 1.368 1.344.288.496.432 1.032.432 1.608 0 .752-.224 1.424-.672 2.016-.448.576-1.104 1.032-1.968 1.368-.848.32-1.896.48-3.144.48zm14.041-.24c-.992 0-1.84-.16-2.544-.48a3.479 3.479 0 0 1-1.608-1.536c-.352-.688-.528-1.552-.528-2.592v-5.04h-1.872a.585.585 0 0 1-.432-.168.585.585 0 0 1-.168-.432V90.62c0-.176.056-.32.168-.432a.585.585 0 0 1 .432-.168h1.872v-3.96c0-.176.056-.32.168-.432a.639.639 0 0 1 .432-.168h2.352c.176 0 .32.056.432.168a.585.585 0 0 1 .168.432v3.96h3c.16 0 .296.056.408.168a.585.585 0 0 1 .168.432v1.632c0 .176-.056.32-.168.432a.555.555 0 0 1-.408.168h-3v4.752c0 .608.104 1.088.312 1.44.224.336.608.504 1.152.504h1.752c.16 0 .296.056.408.168a.555.555 0 0 1 .168.408v1.776c0 .176-.056.32-.168.432a.555.555 0 0 1-.408.168h-2.088zm15.767.24c-1.328 0-2.44-.216-3.336-.648-.896-.448-1.584-1.08-2.064-1.896-.464-.816-.72-1.768-.768-2.856-.016-.32-.024-.68-.024-1.08 0-.416.008-.776.024-1.08.048-1.104.32-2.056.816-2.856.496-.816 1.192-1.44 2.088-1.872.896-.448 1.984-.672 3.264-.672 1.264 0 2.344.224 3.24.672.896.432 1.592 1.056 2.088 1.872.496.8.768 1.752.816 2.856.032.304.048.664.048 1.08 0 .4-.016.76-.048 1.08-.048 1.088-.312 2.04-.792 2.856-.464.816-1.144 1.448-2.04 1.896-.896.432-2 .648-3.312.648zm0-2.64c.784 0 1.376-.24 1.776-.72.4-.496.616-1.216.648-2.16.016-.24.024-.56.024-.96 0-.4-.008-.72-.024-.96-.032-.928-.248-1.64-.648-2.136-.4-.496-.992-.744-1.776-.744s-1.384.248-1.8.744c-.4.496-.616 1.208-.648 2.136-.016.24-.024.56-.024.96 0 .4.008.72.024.96.032.944.248 1.664.648 2.16.416.48 1.016.72 1.8.72zm9.278 2.4a.555.555 0 0 1-.408-.168.585.585 0 0 1-.168-.432V90.62c0-.16.056-.296.168-.408a.523.523 0 0 1 .408-.192h2.352c.16 0 .296.064.408.192a.523.523 0 0 1 .192.408v.96c.4-.496.888-.88 1.464-1.152.592-.272 1.272-.408 2.04-.408h1.032c.16 0 .296.056.408.168a.585.585 0 0 1 .168.432v2.064c0 .176-.056.32-.168.432a.555.555 0 0 1-.408.168h-2.112c-.704 0-1.256.2-1.656.6-.4.384-.6.936-.6 1.656v6.36c0 .176-.056.32-.168.432a.585.585 0 0 1-.432.168h-2.52zm14.345.24c-.8 0-1.512-.128-2.136-.384a4.403 4.403 0 0 1-1.584-1.152 5.303 5.303 0 0 1-.984-1.8 9.42 9.42 0 0 1-.408-2.328 15.69 15.69 0 0 1-.024-.816c0-.256.008-.528.024-.816.032-.832.16-1.592.384-2.28.24-.688.568-1.28.984-1.776.432-.512.96-.904 1.584-1.176.64-.288 1.36-.432 2.16-.432.832 0 1.544.144 2.136.432.592.272 1.08.632 1.464 1.08V86.06c0-.176.056-.32.168-.432a.585.585 0 0 1 .432-.168h2.472c.16 0 .296.056.408.168a.585.585 0 0 1 .168.432v15.84c0 .176-.056.32-.168.432a.555.555 0 0 1-.408.168h-2.304a.555.555 0 0 1-.408-.168.585.585 0 0 1-.168-.432v-.816c-.4.48-.904.88-1.512 1.2-.608.304-1.368.456-2.28.456zm1.104-2.88c.592 0 1.064-.136 1.416-.408a2.28 2.28 0 0 0 .792-1.032c.176-.416.272-.864.288-1.344.032-.304.048-.608.048-.912 0-.304-.016-.6-.048-.888a3.242 3.242 0 0 0-.288-1.248 2.317 2.317 0 0 0-.816-.984c-.352-.256-.816-.384-1.392-.384-.608 0-1.088.136-1.44.408-.352.256-.608.6-.768 1.032a5.561 5.561 0 0 0-.264 1.416 7.706 7.706 0 0 0 0 1.488c.032.512.12.984.264 1.416.16.432.416.784.768 1.056.352.256.832.384 1.44.384zm14.761 2.88c-1.84 0-3.304-.512-4.392-1.536-1.072-1.024-1.64-2.512-1.704-4.464v-1.032c.064-1.232.344-2.288.84-3.168a4.937 4.937 0 0 1 2.088-2.04c.896-.48 1.944-.72 3.144-.72 1.344 0 2.464.28 3.36.84a5.065 5.065 0 0 1 2.04 2.256c.464.944.696 2.032.696 3.264v.552c0 .16-.064.296-.192.408a.555.555 0 0 1-.408.168h-7.848v.192c.016.512.112.984.288 1.416.192.416.456.752.792 1.008.352.256.768.384 1.248.384.4 0 .728-.056.984-.168a2.01 2.01 0 0 0 .624-.408c.176-.16.304-.296.384-.408.144-.16.256-.256.336-.288.096-.048.24-.072.432-.072h2.496c.16 0 .288.048.384.144.112.08.16.2.144.36-.016.256-.152.576-.408.96-.24.368-.6.736-1.08 1.104-.48.352-1.08.648-1.8.888-.704.24-1.52.36-2.448.36zm-2.376-7.656h4.704v-.048c0-.576-.096-1.072-.288-1.488a2.178 2.178 0 0 0-.792-1.008c-.352-.24-.776-.36-1.272-.36s-.92.12-1.272.36-.624.576-.816 1.008c-.176.416-.264.912-.264 1.488v.048zm11.423 7.416a.555.555 0 0 1-.408-.168.585.585 0 0 1-.168-.432V90.62c0-.16.056-.296.168-.408a.523.523 0 0 1 .408-.192h2.352c.16 0 .296.064.408.192a.523.523 0 0 1 .192.408v.96c.4-.496.888-.88 1.464-1.152.592-.272 1.272-.408 2.04-.408h1.032c.16 0 .296.056.408.168a.585.585 0 0 1 .168.432v2.064c0 .176-.056.32-.168.432a.555.555 0 0 1-.408.168h-2.112c-.704 0-1.256.2-1.656.6-.4.384-.6.936-.6 1.656v6.36c0 .176-.056.32-.168.432a.585.585 0 0 1-.432.168h-2.52z" fill="#323131"/></g><defs><filter id="b" x="188" y="57" width="144" height="198" filterUnits="userSpaceOnUse" color-interpolation-filters="sRGB"><feFlood flood-opacity="0" result="BackgroundImageFix"/><feColorMatrix in="SourceAlpha" values="0 0 0 0 0 0 0 0 0 0 0 0 0 0 0 0 0 0 127 0" result="hardAlpha"/><feOffset/><feGaussianBlur stdDeviation="22.5"/><feComposite in2="hardAlpha" operator="out"/><feColorMatrix values="0 0 0 0 0.917647 0 0 0 0 0.0705882 0 0 0 0 0.219608 0 0 0 0.23 0"/><feBlend in2="BackgroundImageFix" result="effect1_dropShadow_1922_25211"/><feBlend in="SourceGraphic" in2="effect1_dropShadow_1922_25211" result="shape"/></filter><filter id="c" x="-21" y="0" width="352" height="157" filterUnits="userSpaceOnUse" color-interpolation-filters="sRGB"><feFlood flood-opacity="0" result="BackgroundImageFix"/><feColorMatrix in="SourceAlpha" values="0 0 0 0 0 0 0 0 0 0 0 0 0 0 0 0 0 0 127 0" result="hardAlpha"/><feOffset dx="-5" dy="3"/><feGaussianBlur stdDeviation="16.5"/><feComposite in2="hardAlpha" operator="out"/><feColorMatrix values="0 0 0 0 0.917647 0 0 0 0 0.0705882 0 0 0 0 0.219608 0 0 0 0.23 0"/><feBlend in2="BackgroundImageFix" result="effect1_dropShadow_1922_25211"/><feBlend in="SourceGraphic" in2="effect1_dropShadow_1922_25211" result="shape"/></filter><linearGradient id="a" x1="282.754" y1="102" x2="223.446" y2="110.898" gradientUnits="userSpaceOnUse"><stop stop-color="#fff" stop-opacity=".96"/><stop offset=".432" stop-color="#fff"/><stop offset=".537" stop-color="#fff"/><stop offset="1" stop-color="#FFF1F8"/><stop offset="1" stop-color="#FFF1F8"/></linearGradient></defs></svg>