<svg width="24" height="24" viewBox="0 0 24 24" fill="none" xmlns="http://www.w3.org/2000/svg"><path fill="#F9EFE7" d="M0 0h24v24H0z"/><path d="M6.823 6.126a.886.886 0 0 1 1.18.443.9.9 0 0 1-.438 1.19.887.887 0 0 1-1.18-.442.902.902 0 0 1 .438-1.19zM9.04 4.113a.886.886 0 0 1 1.179.442.902.902 0 0 1-.437 1.19.886.886 0 0 1-1.18-.442.9.9 0 0 1 .438-1.19zm.263 2.262a.885.885 0 0 1 1.179.442.9.9 0 0 1-.437 1.19.886.886 0 0 1-1.18-.441.901.901 0 0 1 .438-1.19zM4.38 14.11c.653 2.412 1.958 4.263 3.913 5.554 1.956 1.292 3.984 1.648 6.084 1.066 2.102-.58 3.663-1.928 4.686-4.043.99-2.046 1.195-4.232.614-6.556-.619-2.478-2.134-4.638-4.15-5.912-1.89-1.194-3.851-1.51-5.885-.948-2.101.58-3.666 1.93-4.697 4.047-1.03 2.117-1.219 4.38-.565 6.792z" fill="#398184"/></svg>