<svg width="49" height="48" viewBox="0 0 49 48" fill="none" xmlns="http://www.w3.org/2000/svg"><circle cx="24.75" cy="23.75" r="18.25" fill="url(#a)"/><ellipse cx="24.5" cy="24" rx="14.5" ry="14.5" fill="#419DE0" opacity=".5" filter="url(#b)"/><path d="M34.53 12.517c.351-1.643-.588-2.289-1.644-1.878L9.527 19.62c-1.584.645-1.526 1.526-.235 1.936l5.928 1.82 13.851-8.686c.646-.47 1.291-.176.763.235l-11.21 10.094-.41 6.163c.645 0 .88-.235 1.232-.587l2.876-2.817 6.045 4.46c1.115.646 1.936.294 2.23-.998l3.932-18.722z" fill="url(#c)" fill-opacity=".4" filter="url(#d)"/><defs><filter id="b" x=".985" y=".485" width="47.03" height="47.03" filterUnits="userSpaceOnUse" color-interpolation-filters="sRGB"><feFlood flood-opacity="0" result="BackgroundImageFix"/><feBlend in="SourceGraphic" in2="BackgroundImageFix" result="shape"/><feGaussianBlur stdDeviation="4.507" result="effect1_foregroundBlur_1602_6999"/></filter><filter id="d" x="-1.163" y="1.122" width="45.15" height="40.867" filterUnits="userSpaceOnUse" color-interpolation-filters="sRGB"><feFlood flood-opacity="0" result="BackgroundImageFix"/><feGaussianBlur in="BackgroundImage" stdDeviation="4.553"/><feComposite in2="SourceAlpha" operator="in" result="effect1_backgroundBlur_1602_6999"/><feBlend in="SourceGraphic" in2="effect1_backgroundBlur_1602_6999" result="shape"/><feColorMatrix in="SourceAlpha" values="0 0 0 0 0 0 0 0 0 0 0 0 0 0 0 0 0 0 127 0" result="hardAlpha"/><feOffset dx="-4.553" dy="4.553"/><feGaussianBlur stdDeviation="2.276"/><feComposite in2="hardAlpha" operator="arithmetic" k2="-1" k3="1"/><feColorMatrix values="0 0 0 0 1 0 0 0 0 1 0 0 0 0 1 0 0 0 0.15 0"/><feBlend in2="shape" result="effect2_innerShadow_1602_6999"/><feColorMatrix in="SourceAlpha" values="0 0 0 0 0 0 0 0 0 0 0 0 0 0 0 0 0 0 127 0" result="hardAlpha"/><feOffset dy="-4.553"/><feGaussianBlur stdDeviation="2.276"/><feComposite in2="hardAlpha" operator="arithmetic" k2="-1" k3="1"/><feColorMatrix values="0 0 0 0 0.831818 0 0 0 0 0.939454 0 0 0 0 1 0 0 0 1 0"/><feBlend in2="effect2_innerShadow_1602_6999" result="effect3_innerShadow_1602_6999"/></filter><linearGradient id="a" x1="53.013" y1="-4.005" x2="-2.226" y2="-1.864" gradientUnits="userSpaceOnUse"><stop stop-color="#46B7F6"/><stop offset="1" stop-color="#419DE0"/></linearGradient><radialGradient id="c" cx="0" cy="0" r="1" gradientUnits="userSpaceOnUse" gradientTransform="rotate(132.557 16.575 10.863) scale(40.8785 40.7311)"><stop stop-color="#fff"/><stop offset="1" stop-color="#F6F6F6"/></radialGradient></defs></svg>