<svg width="71" height="72" viewBox="0 0 71 72" fill="none" xmlns="http://www.w3.org/2000/svg"><circle cx="35.625" cy="35.625" r="27.375" fill="url(#a)"/><circle cx="35.25" cy="36" r="21.75" fill="url(#b)" opacity=".5" filter="url(#c)"/><path d="M36.375 40.156c0 .791-.703 1.407-1.406 1.407H26.53a1.388 1.388 0 0 1-1.406-1.407v-4.218H8.25v12.656c0 2.285 1.934 4.218 4.219 4.218H49.03c2.197 0 4.219-1.933 4.219-4.218V35.937H36.375v4.22zm12.656-18.281H42v-4.219c0-2.197-2.022-4.218-4.219-4.218H23.72c-2.285 0-4.219 2.021-4.219 4.218v4.219H12.47c-2.285 0-4.219 2.021-4.219 4.219v7.031h45v-7.031c0-2.198-2.022-4.219-4.219-4.219zm-12.656 0h-11.25v-2.813h11.25v2.813z" fill="url(#d)" fill-opacity=".4" filter="url(#e)"/><defs><filter id="c" x="0" y=".75" width="70.5" height="70.5" filterUnits="userSpaceOnUse" color-interpolation-filters="sRGB"><feFlood flood-opacity="0" result="BackgroundImageFix"/><feBlend in="SourceGraphic" in2="BackgroundImageFix" result="shape"/><feGaussianBlur stdDeviation="6.75" result="effect1_foregroundBlur_1602_14636"/></filter><filter id="e" x="-5.386" y="-.199" width="72.273" height="66.648" filterUnits="userSpaceOnUse" color-interpolation-filters="sRGB"><feFlood flood-opacity="0" result="BackgroundImageFix"/><feGaussianBlur in="BackgroundImage" stdDeviation="6.818"/><feComposite in2="SourceAlpha" operator="in" result="effect1_backgroundBlur_1602_14636"/><feBlend in="SourceGraphic" in2="effect1_backgroundBlur_1602_14636" result="shape"/><feColorMatrix in="SourceAlpha" values="0 0 0 0 0 0 0 0 0 0 0 0 0 0 0 0 0 0 127 0" result="hardAlpha"/><feOffset dx="-6.818" dy="6.818"/><feGaussianBlur stdDeviation="3.409"/><feComposite in2="hardAlpha" operator="arithmetic" k2="-1" k3="1"/><feColorMatrix values="0 0 0 0 1 0 0 0 0 1 0 0 0 0 1 0 0 0 0.15 0"/><feBlend in2="shape" result="effect2_innerShadow_1602_14636"/><feColorMatrix in="SourceAlpha" values="0 0 0 0 0 0 0 0 0 0 0 0 0 0 0 0 0 0 127 0" result="hardAlpha"/><feOffset dy="-6.818"/><feGaussianBlur stdDeviation="3.409"/><feComposite in2="hardAlpha" operator="arithmetic" k2="-1" k3="1"/><feColorMatrix values="0 0 0 0 0.723485 0 0 0 0 0.866557 0 0 0 0 1 0 0 0 1 0"/><feBlend in2="effect2_innerShadow_1602_14636" result="effect3_innerShadow_1602_14636"/></filter><linearGradient id="a" x1="78.02" y1="-6.008" x2="-4.839" y2="-2.796" gradientUnits="userSpaceOnUse"><stop stop-color="#4666F6"/><stop offset="1" stop-color="#22A5E9"/></linearGradient><linearGradient id="b" x1="68.934" y1="2.922" x2="3.101" y2="5.474" gradientUnits="userSpaceOnUse"><stop stop-color="#4666F6"/><stop offset="1" stop-color="#22A5E9"/></linearGradient><radialGradient id="d" cx="0" cy="0" r="1" gradientUnits="userSpaceOnUse" gradientTransform="rotate(132.557 24.112 15.964) scale(61.3177 61.0966)"><stop stop-color="#fff"/><stop offset="1" stop-color="#F6F6F6"/></radialGradient></defs></svg>