<svg width="71" height="72" viewBox="0 0 71 72" fill="none" xmlns="http://www.w3.org/2000/svg"><circle cx="35.625" cy="35.625" r="27.375" fill="url(#a)"/><circle cx="35.25" cy="36" r="21.75" fill="url(#b)" opacity=".5" filter="url(#c)"/><path d="M55.535 31.455l-5.097-4.57V14.844c0-.703-.704-1.406-1.407-1.406h-5.625c-.79 0-1.406.703-1.406 1.406v4.57l-8.965-7.822c-.527-.527-1.582-.967-2.285-.967-.791 0-1.846.44-2.373.967l-22.5 19.863c-.264.264-.527.615-.527 1.055 0 .351.175.703.44.879l1.845 2.109c.263.264.615.44 1.054.44.352 0 .704-.088.967-.352l1.406-1.23v18.456a2.777 2.777 0 0 0 2.813 2.813h33.75c1.494 0 2.813-1.23 2.813-2.813V34.356l1.318 1.23c.264.264.615.352.967.352.44 0 .79-.176 1.054-.44l1.846-2.11c.264-.263.352-.527.44-.878-.088-.44-.264-.791-.528-1.055zm-19.16 5.45c-.088 1.054-.879 1.845-1.934 1.845h-7.47c-1.055 0-1.846-.791-1.846-1.846v-7.47c0-1.055.791-1.846 1.846-1.934h7.47a2.08 2.08 0 0 1 1.934 1.934v7.47z" fill="url(#d)" fill-opacity=".4" filter="url(#e)"/><defs><filter id="c" x="0" y=".75" width="70.5" height="70.5" filterUnits="userSpaceOnUse" color-interpolation-filters="sRGB"><feFlood flood-opacity="0" result="BackgroundImageFix"/><feBlend in="SourceGraphic" in2="BackgroundImageFix" result="shape"/><feGaussianBlur stdDeviation="6.75" result="effect1_foregroundBlur_1278_15762"/></filter><filter id="e" x="-8.287" y="-3.011" width="77.986" height="72.273" filterUnits="userSpaceOnUse" color-interpolation-filters="sRGB"><feFlood flood-opacity="0" result="BackgroundImageFix"/><feGaussianBlur in="BackgroundImage" stdDeviation="6.818"/><feComposite in2="SourceAlpha" operator="in" result="effect1_backgroundBlur_1278_15762"/><feBlend in="SourceGraphic" in2="effect1_backgroundBlur_1278_15762" result="shape"/><feColorMatrix in="SourceAlpha" values="0 0 0 0 0 0 0 0 0 0 0 0 0 0 0 0 0 0 127 0" result="hardAlpha"/><feOffset dx="-6.818" dy="6.818"/><feGaussianBlur stdDeviation="3.409"/><feComposite in2="hardAlpha" operator="arithmetic" k2="-1" k3="1"/><feColorMatrix values="0 0 0 0 1 0 0 0 0 1 0 0 0 0 1 0 0 0 0.15 0"/><feBlend in2="shape" result="effect2_innerShadow_1278_15762"/><feColorMatrix in="SourceAlpha" values="0 0 0 0 0 0 0 0 0 0 0 0 0 0 0 0 0 0 127 0" result="hardAlpha"/><feOffset dy="-6.818"/><feGaussianBlur stdDeviation="3.409"/><feComposite in2="hardAlpha" operator="arithmetic" k2="-1" k3="1"/><feColorMatrix values="0 0 0 0 0.831818 0 0 0 0 0.918838 0 0 0 0 1 0 0 0 1 0"/><feBlend in2="effect2_innerShadow_1278_15762" result="effect3_innerShadow_1278_15762"/></filter><linearGradient id="a" x1="78.02" y1="-6.008" x2="-4.839" y2="-2.796" gradientUnits="userSpaceOnUse"><stop stop-color="#4666F6"/><stop offset="1" stop-color="#22A5E9"/></linearGradient><linearGradient id="b" x1="68.934" y1="2.922" x2="3.101" y2="5.474" gradientUnits="userSpaceOnUse"><stop stop-color="#4666F6"/><stop offset="1" stop-color="#22A5E9"/></linearGradient><radialGradient id="d" cx="0" cy="0" r="1" gradientUnits="userSpaceOnUse" gradientTransform="rotate(132.557 24.112 15.964) scale(61.3177 61.0966)"><stop stop-color="#fff"/><stop offset="1" stop-color="#F6F6F6"/></radialGradient></defs></svg>