<svg width="71" height="72" viewBox="0 0 71 72" fill="none" xmlns="http://www.w3.org/2000/svg"><circle cx="35.625" cy="35.625" r="27.375" fill="url(#a)"/><circle cx="35.25" cy="36" r="21.75" fill="url(#b)" opacity=".5" filter="url(#c)"/><path fill-rule="evenodd" clip-rule="evenodd" d="M25.773 12.182v3.136H19.5v-3.136h6.273zm-10.455 0v3.136h-2.09A5.227 5.227 0 0 0 8 20.545v18.819a5.227 5.227 0 0 0 5.227 5.227h1.046a5.227 5.227 0 0 0 10.454 0h11.5a5.227 5.227 0 1 0 10.455 0h2.09A5.227 5.227 0 0 0 54 39.364v-7.638a5.227 5.227 0 0 0-1.403-3.564l-10.419-11.18a5.227 5.227 0 0 0-3.824-1.664h-8.4v-3.136A4.182 4.182 0 0 0 25.774 8H19.5a4.182 4.182 0 0 0-4.182 4.182zm3.137 21.954h4.181V31h3.137v-4.182h-3.137v-3.136h-4.181v3.136h-3.137V31h3.137v3.136z" fill="url(#d)" fill-opacity=".4" filter="url(#e)"/><defs><filter id="c" x="0" y=".75" width="70.5" height="70.5" filterUnits="userSpaceOnUse" color-interpolation-filters="sRGB"><feFlood flood-opacity="0" result="BackgroundImageFix"/><feBlend in="SourceGraphic" in2="BackgroundImageFix" result="shape"/><feGaussianBlur stdDeviation="6.75" result="effect1_foregroundBlur_1112_28109"/></filter><filter id="e" x="-2.227" y="-2.227" width="66.454" height="62.273" filterUnits="userSpaceOnUse" color-interpolation-filters="sRGB"><feFlood flood-opacity="0" result="BackgroundImageFix"/><feGaussianBlur in="BackgroundImage" stdDeviation="5.114"/><feComposite in2="SourceAlpha" operator="in" result="effect1_backgroundBlur_1112_28109"/><feBlend in="SourceGraphic" in2="effect1_backgroundBlur_1112_28109" result="shape"/><feColorMatrix in="SourceAlpha" values="0 0 0 0 0 0 0 0 0 0 0 0 0 0 0 0 0 0 127 0" result="hardAlpha"/><feOffset dx="-5.114" dy="5.114"/><feGaussianBlur stdDeviation="2.557"/><feComposite in2="hardAlpha" operator="arithmetic" k2="-1" k3="1"/><feColorMatrix values="0 0 0 0 1 0 0 0 0 1 0 0 0 0 1 0 0 0 0.15 0"/><feBlend in2="shape" result="effect2_innerShadow_1112_28109"/><feColorMatrix in="SourceAlpha" values="0 0 0 0 0 0 0 0 0 0 0 0 0 0 0 0 0 0 127 0" result="hardAlpha"/><feOffset dy="-5.114"/><feGaussianBlur stdDeviation="2.557"/><feComposite in2="hardAlpha" operator="arithmetic" k2="-1" k3="1"/><feColorMatrix values="0 0 0 0 0.831818 0 0 0 0 0.918838 0 0 0 0 1 0 0 0 1 0"/><feBlend in2="effect2_innerShadow_1112_28109" result="effect3_innerShadow_1112_28109"/></filter><linearGradient id="a" x1="78.02" y1="-6.008" x2="-4.839" y2="-2.796" gradientUnits="userSpaceOnUse"><stop stop-color="#4666F6"/><stop offset="1" stop-color="#22A5E9"/></linearGradient><linearGradient id="b" x1="68.934" y1="2.922" x2="3.101" y2="5.474" gradientUnits="userSpaceOnUse"><stop stop-color="#4666F6"/><stop offset="1" stop-color="#22A5E9"/></linearGradient><radialGradient id="d" cx="0" cy="0" r="1" gradientUnits="userSpaceOnUse" gradientTransform="rotate(137.515 22.013 15.568) scale(46.6094 46.4312)"><stop stop-color="#fff"/><stop offset="1" stop-color="#F6F6F6"/></radialGradient></defs></svg>