<svg width="71" height="72" viewBox="0 0 71 72" fill="none" xmlns="http://www.w3.org/2000/svg"><circle cx="35.625" cy="35.625" r="27.375" fill="url(#a)"/><circle cx="35.25" cy="36" r="21.75" fill="url(#b)" opacity=".5" filter="url(#c)"/><path d="M46.219 30.313c-7.032 0-12.657 5.712-12.657 12.656A12.604 12.604 0 0 0 46.22 55.625c6.943 0 12.656-5.625 12.656-12.656 0-6.944-5.713-12.657-12.656-12.657zm5.625 13.271c0 .44-.44.791-.88.791h-5.36a.788.788 0 0 1-.791-.791v-6.768c0-.439.351-.879.79-.879h1.143c.44 0 .879.44.879.88v4.745h3.34c.44 0 .879.44.879.88v1.142zm-21.094-.615c0-2.373.527-4.746 1.582-6.768a8.853 8.853 0 0 0-2.197-.264H28.64c-1.934.967-4.043 1.407-6.328 1.407-2.286 0-4.483-.44-6.416-1.407h-1.495c-6.504 0-11.777 5.362-11.777 11.866v3.603c0 2.373 1.846 4.219 4.219 4.219h30.498c-4.043-2.725-6.592-7.383-6.592-12.656zm-8.438-9.844c6.153 0 11.25-5.01 11.25-11.25 0-6.152-5.097-11.25-11.25-11.25-6.24 0-11.25 5.098-11.25 11.25 0 6.24 5.01 11.25 11.25 11.25z" fill="url(#d)" fill-opacity=".4" filter="url(#e)"/><defs><filter id="c" x="0" y=".75" width="70.5" height="70.5" filterUnits="userSpaceOnUse" color-interpolation-filters="sRGB"><feFlood flood-opacity="0" result="BackgroundImageFix"/><feBlend in="SourceGraphic" in2="BackgroundImageFix" result="shape"/><feGaussianBlur stdDeviation="6.75" result="effect1_foregroundBlur_1602_14681"/></filter><filter id="e" x="-11.011" y="-3.011" width="83.523" height="72.273" filterUnits="userSpaceOnUse" color-interpolation-filters="sRGB"><feFlood flood-opacity="0" result="BackgroundImageFix"/><feGaussianBlur in="BackgroundImage" stdDeviation="6.818"/><feComposite in2="SourceAlpha" operator="in" result="effect1_backgroundBlur_1602_14681"/><feBlend in="SourceGraphic" in2="effect1_backgroundBlur_1602_14681" result="shape"/><feColorMatrix in="SourceAlpha" values="0 0 0 0 0 0 0 0 0 0 0 0 0 0 0 0 0 0 127 0" result="hardAlpha"/><feOffset dx="-6.818" dy="6.818"/><feGaussianBlur stdDeviation="3.409"/><feComposite in2="hardAlpha" operator="arithmetic" k2="-1" k3="1"/><feColorMatrix values="0 0 0 0 1 0 0 0 0 1 0 0 0 0 1 0 0 0 0.15 0"/><feBlend in2="shape" result="effect2_innerShadow_1602_14681"/><feColorMatrix in="SourceAlpha" values="0 0 0 0 0 0 0 0 0 0 0 0 0 0 0 0 0 0 127 0" result="hardAlpha"/><feOffset dy="-6.818"/><feGaussianBlur stdDeviation="3.409"/><feComposite in2="hardAlpha" operator="arithmetic" k2="-1" k3="1"/><feColorMatrix values="0 0 0 0 0.831818 0 0 0 0 0.918838 0 0 0 0 1 0 0 0 1 0"/><feBlend in2="effect2_innerShadow_1602_14681" result="effect3_innerShadow_1602_14681"/></filter><linearGradient id="a" x1="78.02" y1="-6.008" x2="-4.839" y2="-2.796" gradientUnits="userSpaceOnUse"><stop stop-color="#4666F6"/><stop offset="1" stop-color="#22A5E9"/></linearGradient><linearGradient id="b" x1="68.934" y1="2.922" x2="3.101" y2="5.474" gradientUnits="userSpaceOnUse"><stop stop-color="#4666F6"/><stop offset="1" stop-color="#22A5E9"/></linearGradient><radialGradient id="d" cx="0" cy="0" r="1" gradientUnits="userSpaceOnUse" gradientTransform="rotate(132.557 24.112 15.964) scale(61.3177 61.0966)"><stop stop-color="#fff"/><stop offset="1" stop-color="#F6F6F6"/></radialGradient></defs></svg>