<svg width="71" height="72" viewBox="0 0 71 72" fill="none" xmlns="http://www.w3.org/2000/svg"><circle cx="35.625" cy="35.625" r="27.375" fill="url(#a)"/><circle cx="35.25" cy="36" r="21.75" fill="url(#b)" opacity=".5" filter="url(#c)"/><path d="M51.404 10.713c-3.427 1.055-9.844 3.076-16.523 5.45-.176-.616-.352-1.231-.528-1.67-.175-.616-.703-.968-1.318-.968-.263 0-.44 0-.703.088-3.691 2.022-13.36 7.295-18.809 12.569l-.263.263c-3.164 3.076-5.098 7.383-5.098 12.13 0 9.403 7.734 17.138 17.139 17.138 4.746 0 9.052-1.934 12.129-5.098l.263-.263c5.274-5.45 10.635-15.118 12.569-18.809.088-.264.175-.44.175-.703 0-.615-.439-1.143-1.054-1.319-.44-.175-.967-.351-1.582-.527 2.373-6.68 4.306-13.096 5.361-16.523v-.352c0-.79-.615-1.406-1.406-1.406h-.352zM35.935 37.08l-4.482 4.307 1.055 6.152v.264c0 .703-.528 1.318-1.319 1.318-.175 0-.439-.088-.615-.176l-5.537-2.9-5.45 2.9c-.966.528-2.108-.263-1.933-1.406l1.055-6.152-4.482-4.307c-.264-.264-.352-.615-.352-.967 0-.703.44-1.23 1.143-1.318l6.064-.879 2.813-5.625c.175-.44.615-.791 1.142-.791.527 0 1.055.352 1.23.791l2.725 5.625 6.152.879c.704.088 1.143.615 1.143 1.318 0 .352-.088.703-.352.967z" fill="url(#d)" fill-opacity=".4" filter="url(#e)"/><defs><filter id="c" x="0" y=".75" width="70.5" height="70.5" filterUnits="userSpaceOnUse" color-interpolation-filters="sRGB"><feFlood flood-opacity="0" result="BackgroundImageFix"/><feBlend in="SourceGraphic" in2="BackgroundImageFix" result="shape"/><feGaussianBlur stdDeviation="6.75" result="effect1_foregroundBlur_1602_13091"/></filter><filter id="e" x="-5.474" y="-2.923" width="72.273" height="72.273" filterUnits="userSpaceOnUse" color-interpolation-filters="sRGB"><feFlood flood-opacity="0" result="BackgroundImageFix"/><feGaussianBlur in="BackgroundImage" stdDeviation="6.818"/><feComposite in2="SourceAlpha" operator="in" result="effect1_backgroundBlur_1602_13091"/><feBlend in="SourceGraphic" in2="effect1_backgroundBlur_1602_13091" result="shape"/><feColorMatrix in="SourceAlpha" values="0 0 0 0 0 0 0 0 0 0 0 0 0 0 0 0 0 0 127 0" result="hardAlpha"/><feOffset dx="-6.818" dy="6.818"/><feGaussianBlur stdDeviation="3.409"/><feComposite in2="hardAlpha" operator="arithmetic" k2="-1" k3="1"/><feColorMatrix values="0 0 0 0 1 0 0 0 0 1 0 0 0 0 1 0 0 0 0.15 0"/><feBlend in2="shape" result="effect2_innerShadow_1602_13091"/><feColorMatrix in="SourceAlpha" values="0 0 0 0 0 0 0 0 0 0 0 0 0 0 0 0 0 0 127 0" result="hardAlpha"/><feOffset dy="-6.818"/><feGaussianBlur stdDeviation="3.409"/><feComposite in2="hardAlpha" operator="arithmetic" k2="-1" k3="1"/><feColorMatrix values="0 0 0 0 0.831818 0 0 0 0 0.918838 0 0 0 0 1 0 0 0 1 0"/><feBlend in2="effect2_innerShadow_1602_13091" result="effect3_innerShadow_1602_13091"/></filter><linearGradient id="a" x1="78.02" y1="-6.008" x2="-4.839" y2="-2.796" gradientUnits="userSpaceOnUse"><stop stop-color="#4666F6"/><stop offset="1" stop-color="#22A5E9"/></linearGradient><linearGradient id="b" x1="68.934" y1="2.922" x2="3.101" y2="5.474" gradientUnits="userSpaceOnUse"><stop stop-color="#4666F6"/><stop offset="1" stop-color="#22A5E9"/></linearGradient><radialGradient id="d" cx="0" cy="0" r="1" gradientUnits="userSpaceOnUse" gradientTransform="rotate(132.557 24.112 15.964) scale(61.3177 61.0966)"><stop stop-color="#fff"/><stop offset="1" stop-color="#F6F6F6"/></radialGradient></defs></svg>