<svg width="71" height="72" viewBox="0 0 71 72" fill="none" xmlns="http://www.w3.org/2000/svg"><circle cx="35.625" cy="35.625" r="27.375" fill="url(#a)"/><circle cx="35.25" cy="36" r="21.75" fill="url(#b)" opacity=".5" filter="url(#c)"/><path d="M31.014 18.184l4.394 1.845 1.846 4.395c.088.176.264.351.527.351.176 0 .352-.175.44-.351l1.845-4.395 4.395-1.845c.176-.088.352-.264.352-.528 0-.175-.176-.351-.352-.44l-4.395-1.845-1.845-4.394c-.088-.176-.264-.352-.528-.352-.175 0-.351.176-.44.352l-1.845 4.394-4.394 1.846c-.176.088-.352.264-.352.527 0 .176.176.352.352.44zm9.228 15.996l-9.228-1.407-4.131-8.35c-.703-1.493-2.9-1.493-3.604 0l-4.13 8.35-9.23 1.407c-1.669.175-2.284 2.285-1.142 3.427l6.68 6.504-1.582 9.229c-.264 1.582 1.494 2.9 2.988 2.11l8.174-4.395 8.262 4.394c.264.088.615.176.967.176a1.989 1.989 0 0 0 2.021-2.022v-.263l-1.582-9.229 6.68-6.504c1.142-1.142.527-3.252-1.143-3.427zm12.744-4.22l-3.515-1.493-1.494-3.516c-.088-.088-.176-.264-.352-.264-.264 0-.352.176-.44.264l-1.494 3.516-3.515 1.494c-.088.088-.176.176-.176.44 0 .175.088.263.176.351l3.515 1.494 1.494 3.516c.088.088.176.175.44.175.176 0 .264-.087.352-.175l1.494-3.516 3.515-1.494c.088-.088.264-.176.264-.44 0-.175-.176-.263-.264-.351z" fill="url(#d)" fill-opacity=".4" filter="url(#e)"/><defs><filter id="c" x="0" y=".75" width="70.5" height="70.5" filterUnits="userSpaceOnUse" color-interpolation-filters="sRGB"><feFlood flood-opacity="0" result="BackgroundImageFix"/><feBlend in="SourceGraphic" in2="BackgroundImageFix" result="shape"/><feGaussianBlur stdDeviation="6.75" result="effect1_foregroundBlur_1602_14790"/></filter><filter id="e" x="-6.002" y="-3.011" width="72.888" height="72.888" filterUnits="userSpaceOnUse" color-interpolation-filters="sRGB"><feFlood flood-opacity="0" result="BackgroundImageFix"/><feGaussianBlur in="BackgroundImage" stdDeviation="6.818"/><feComposite in2="SourceAlpha" operator="in" result="effect1_backgroundBlur_1602_14790"/><feBlend in="SourceGraphic" in2="effect1_backgroundBlur_1602_14790" result="shape"/><feColorMatrix in="SourceAlpha" values="0 0 0 0 0 0 0 0 0 0 0 0 0 0 0 0 0 0 127 0" result="hardAlpha"/><feOffset dx="-6.818" dy="6.818"/><feGaussianBlur stdDeviation="3.409"/><feComposite in2="hardAlpha" operator="arithmetic" k2="-1" k3="1"/><feColorMatrix values="0 0 0 0 1 0 0 0 0 1 0 0 0 0 1 0 0 0 0.15 0"/><feBlend in2="shape" result="effect2_innerShadow_1602_14790"/><feColorMatrix in="SourceAlpha" values="0 0 0 0 0 0 0 0 0 0 0 0 0 0 0 0 0 0 127 0" result="hardAlpha"/><feOffset dy="-6.818"/><feGaussianBlur stdDeviation="3.409"/><feComposite in2="hardAlpha" operator="arithmetic" k2="-1" k3="1"/><feColorMatrix values="0 0 0 0 0.831818 0 0 0 0 0.918838 0 0 0 0 1 0 0 0 1 0"/><feBlend in2="effect2_innerShadow_1602_14790" result="effect3_innerShadow_1602_14790"/></filter><linearGradient id="a" x1="78.02" y1="-6.008" x2="-4.839" y2="-2.796" gradientUnits="userSpaceOnUse"><stop stop-color="#4666F6"/><stop offset="1" stop-color="#22A5E9"/></linearGradient><linearGradient id="b" x1="68.934" y1="2.922" x2="3.101" y2="5.474" gradientUnits="userSpaceOnUse"><stop stop-color="#4666F6"/><stop offset="1" stop-color="#22A5E9"/></linearGradient><radialGradient id="d" cx="0" cy="0" r="1" gradientUnits="userSpaceOnUse" gradientTransform="rotate(132.557 24.112 15.964) scale(61.3177 61.0966)"><stop stop-color="#fff"/><stop offset="1" stop-color="#F6F6F6"/></radialGradient></defs></svg>