<svg width="69" height="20" viewBox="0 0 69 20" fill="none" xmlns="http://www.w3.org/2000/svg"><path fill-rule="evenodd" clip-rule="evenodd" d="M65.965 17.415c1.357 0 2.324-.245 3.034-.773v-2.397c-.734.51-1.62.83-2.865.83-2.092 0-2.96-1.622-2.96-4.187 0-2.699 1.057-4.071 2.979-4.071 1.131 0 2.243.396 2.828.773V5.094c-.622-.34-1.697-.582-3.167-.582-3.752 0-5.696 2.7-5.696 6.473.019 4.132 1.923 6.434 5.844 6.434l.003-.004zM47.62 16.321v-2.397c-.905.624-2.451 1.17-3.864 1.17-2.15 0-2.96-1.018-3.092-3.094h7.09v-1.547c0-4.321-1.904-5.944-4.826-5.944-3.582 0-5.28 2.736-5.28 6.49 0 4.322 2.131 6.416 5.865 6.416 1.866 0 3.243-.51 4.11-1.094h-.003zM20.72 4.736V9.64h-3.922V4.736h-2.94V17.17h2.94v-5.186h3.922v5.188h2.94V4.736h-2.94zM36.913 14.83h-1.3V4.736h-8.56v1.056c0 3.038-.188 6.963-1.226 9.038h-.943V20H27.6v-2.83h6.58V20h2.715v-5.17h.019zm20.078 2.34l-4.34-6.117v6.113h-2.938V4.736h2.939v5.736l4.147-5.736h2.96l-4.145 5.736 4.709 6.698H56.99zM42.85 6.81c1.452 0 1.904 1.208 1.904 2.775v.245h-4.09c.075-1.978.791-3.025 2.186-3.025v.006zm-10.18 8.02h-4.148c.814-1.868 1.037-5.264 1.037-7.415v-.377h3.11v7.792z" fill="#000"/><path fill-rule="evenodd" clip-rule="evenodd" d="M11.406 17.17H8.408V2.321H7.07c-2.451 0-3.733 1.226-3.733 3.057 0 2.075.886 3.037 2.715 4.263l1.511 1.02-4.335 6.514H0l3.903-5.817C1.659 9.755.396 8.188.396 5.548c0-3.303 2.3-5.545 6.655-5.545h4.34v17.17l.015-.003z" fill="#FC3F1D"/></svg>