<svg width="71" height="72" viewBox="0 0 71 72" fill="none" xmlns="http://www.w3.org/2000/svg"><circle cx="35.625" cy="35.625" r="27.375" fill="url(#a)"/><circle cx="35.25" cy="36" r="21.75" fill="url(#b)" opacity=".5" filter="url(#c)"/><path d="M30.75 23.018c-5.625 0-10.107 4.57-10.107 10.107A10.053 10.053 0 0 0 30.75 43.232c5.537 0 10.107-4.482 10.107-10.107 0-5.537-4.57-10.107-10.107-10.107zm0 16.699a6.583 6.583 0 0 1-6.592-6.592c0-3.604 2.9-6.504 6.592-6.504a6.49 6.49 0 0 1 6.504 6.504c0 3.691-2.9 6.592-6.504 6.592zm12.832-17.051a2.363 2.363 0 0 0-2.373-2.373 2.363 2.363 0 0 0-2.373 2.373 2.363 2.363 0 0 0 2.373 2.373 2.363 2.363 0 0 0 2.373-2.373zm6.68 2.373c-.176-3.164-.88-5.977-3.164-8.262-2.285-2.285-5.098-2.988-8.262-3.164-3.252-.175-13.008-.175-16.26 0-3.164.176-5.889.88-8.261 3.164-2.286 2.285-2.989 5.098-3.165 8.262-.175 3.252-.175 13.008 0 16.26.176 3.164.88 5.889 3.165 8.261 2.373 2.286 5.097 2.989 8.261 3.165 3.252.175 13.008.175 16.26 0 3.164-.176 5.977-.88 8.262-3.165 2.285-2.373 2.988-5.097 3.164-8.261.175-3.252.175-13.008 0-16.26zm-4.219 19.688c-.615 1.757-2.021 3.076-3.691 3.779-2.637 1.054-8.79.79-11.602.79-2.9 0-9.053.264-11.602-.79a6.664 6.664 0 0 1-3.779-3.78c-1.054-2.548-.79-8.7-.79-11.601 0-2.813-.264-8.965.79-11.602a6.78 6.78 0 0 1 3.78-3.691c2.548-1.055 8.7-.791 11.601-.791 2.813 0 8.965-.264 11.602.791 1.67.615 2.988 2.021 3.691 3.691 1.055 2.637.791 8.79.791 11.602 0 2.9.264 9.053-.791 11.602z" fill="url(#d)" fill-opacity=".4" filter="url(#e)"/><defs><filter id="c" x="0" y=".75" width="70.5" height="70.5" filterUnits="userSpaceOnUse" color-interpolation-filters="sRGB"><feFlood flood-opacity="0" result="BackgroundImageFix"/><feBlend in="SourceGraphic" in2="BackgroundImageFix" result="shape"/><feGaussianBlur stdDeviation="6.75" result="effect1_foregroundBlur_1602_7288"/></filter><filter id="e" x="-2.662" y="-.199" width="66.736" height="66.736" filterUnits="userSpaceOnUse" color-interpolation-filters="sRGB"><feFlood flood-opacity="0" result="BackgroundImageFix"/><feGaussianBlur in="BackgroundImage" stdDeviation="6.818"/><feComposite in2="SourceAlpha" operator="in" result="effect1_backgroundBlur_1602_7288"/><feBlend in="SourceGraphic" in2="effect1_backgroundBlur_1602_7288" result="shape"/><feColorMatrix in="SourceAlpha" values="0 0 0 0 0 0 0 0 0 0 0 0 0 0 0 0 0 0 127 0" result="hardAlpha"/><feOffset dx="-6.818" dy="6.818"/><feGaussianBlur stdDeviation="3.409"/><feComposite in2="hardAlpha" operator="arithmetic" k2="-1" k3="1"/><feColorMatrix values="0 0 0 0 1 0 0 0 0 1 0 0 0 0 1 0 0 0 0.15 0"/><feBlend in2="shape" result="effect2_innerShadow_1602_7288"/><feColorMatrix in="SourceAlpha" values="0 0 0 0 0 0 0 0 0 0 0 0 0 0 0 0 0 0 127 0" result="hardAlpha"/><feOffset dy="-6.818"/><feGaussianBlur stdDeviation="3.409"/><feComposite in2="hardAlpha" operator="arithmetic" k2="-1" k3="1"/><feColorMatrix values="0 0 0 0 1 0 0 0 0 0.831818 0 0 0 0 0.872182 0 0 0 1 0"/><feBlend in2="effect2_innerShadow_1602_7288" result="effect3_innerShadow_1602_7288"/></filter><linearGradient id="a" x1="78.02" y1="-6.008" x2="-4.839" y2="-2.796" gradientUnits="userSpaceOnUse"><stop stop-color="#9A7FFF"/><stop offset="1" stop-color="#FF228A"/></linearGradient><linearGradient id="b" x1="68.934" y1="2.922" x2="3.101" y2="5.474" gradientUnits="userSpaceOnUse"><stop stop-color="#FF67E3"/><stop offset="1" stop-color="#E9E122"/></linearGradient><radialGradient id="d" cx="0" cy="0" r="1" gradientUnits="userSpaceOnUse" gradientTransform="rotate(132.557 24.112 15.964) scale(61.3177 61.0966)"><stop stop-color="#fff"/><stop offset="1" stop-color="#F6F6F6"/></radialGradient></defs></svg>