<svg width="71" height="72" viewBox="0 0 71 72" fill="none" xmlns="http://www.w3.org/2000/svg"><circle cx="35.625" cy="35.625" r="27.375" fill="url(#a)"/><circle cx="35.25" cy="36" r="21.75" fill="url(#b)" opacity=".5" filter="url(#c)"/><path d="M53.338 20.996c.264-1.055 0-1.933-1.582-1.933H46.57c-1.318 0-1.933.703-2.285 1.494 0 0-2.637 6.416-6.328 10.634-1.23 1.143-1.758 1.582-2.46 1.582-.265 0-.792-.439-.792-1.494V20.996c0-1.318-.352-1.933-1.494-1.933h-8.086c-.879 0-1.318.615-1.318 1.23 0 1.23 1.845 1.494 2.021 5.01v7.646c0 1.67-.264 2.022-.967 2.022-1.758 0-5.976-6.504-8.525-13.887-.527-1.406-1.055-2.021-2.373-2.021H8.777c-1.406 0-1.757.703-1.757 1.494 0 1.406 1.757 8.174 8.173 17.226 4.307 6.152 10.371 9.404 15.82 9.404 3.253 0 3.692-.703 3.692-1.933 0-5.889-.264-6.504 1.318-6.504.791 0 2.11.44 5.186 3.428 3.516 3.515 4.13 5.01 6.064 5.01h5.186c1.494 0 2.197-.704 1.758-2.198-.967-2.988-7.559-9.316-7.91-9.756-.791-.966-.528-1.406 0-2.285 0 0 6.328-8.965 7.03-11.953z" fill="url(#d)" fill-opacity=".4" filter="url(#e)"/><defs><filter id="c" x="0" y=".75" width="70.5" height="70.5" filterUnits="userSpaceOnUse" color-interpolation-filters="sRGB"><feFlood flood-opacity="0" result="BackgroundImageFix"/><feBlend in="SourceGraphic" in2="BackgroundImageFix" result="shape"/><feGaussianBlur stdDeviation="6.75" result="effect1_foregroundBlur_1602_14405"/></filter><filter id="e" x="-6.617" y="5.426" width="74.909" height="55.398" filterUnits="userSpaceOnUse" color-interpolation-filters="sRGB"><feFlood flood-opacity="0" result="BackgroundImageFix"/><feGaussianBlur in="BackgroundImage" stdDeviation="6.818"/><feComposite in2="SourceAlpha" operator="in" result="effect1_backgroundBlur_1602_14405"/><feBlend in="SourceGraphic" in2="effect1_backgroundBlur_1602_14405" result="shape"/><feColorMatrix in="SourceAlpha" values="0 0 0 0 0 0 0 0 0 0 0 0 0 0 0 0 0 0 127 0" result="hardAlpha"/><feOffset dx="-6.818" dy="6.818"/><feGaussianBlur stdDeviation="3.409"/><feComposite in2="hardAlpha" operator="arithmetic" k2="-1" k3="1"/><feColorMatrix values="0 0 0 0 1 0 0 0 0 1 0 0 0 0 1 0 0 0 0.15 0"/><feBlend in2="shape" result="effect2_innerShadow_1602_14405"/><feColorMatrix in="SourceAlpha" values="0 0 0 0 0 0 0 0 0 0 0 0 0 0 0 0 0 0 127 0" result="hardAlpha"/><feOffset dy="-6.818"/><feGaussianBlur stdDeviation="3.409"/><feComposite in2="hardAlpha" operator="arithmetic" k2="-1" k3="1"/><feColorMatrix values="0 0 0 0 0.831818 0 0 0 0 0.918838 0 0 0 0 1 0 0 0 1 0"/><feBlend in2="effect2_innerShadow_1602_14405" result="effect3_innerShadow_1602_14405"/></filter><linearGradient id="a" x1="78.02" y1="-6.008" x2="-4.839" y2="-2.796" gradientUnits="userSpaceOnUse"><stop stop-color="#4666F6"/><stop offset="1" stop-color="#22A5E9"/></linearGradient><linearGradient id="b" x1="68.934" y1="2.922" x2="3.101" y2="5.474" gradientUnits="userSpaceOnUse"><stop stop-color="#4666F6"/><stop offset="1" stop-color="#22A5E9"/></linearGradient><radialGradient id="d" cx="0" cy="0" r="1" gradientUnits="userSpaceOnUse" gradientTransform="rotate(132.557 24.112 15.964) scale(61.3177 61.0966)"><stop stop-color="#fff"/><stop offset="1" stop-color="#F6F6F6"/></radialGradient></defs></svg>