<svg width="290" height="60" viewBox="0 0 290 60" fill="none" xmlns="http://www.w3.org/2000/svg"><rect width="290" height="60" rx="24" fill="url(#a)"/><path d="M94.558 37h1.423v-5.088h6.065V37h1.424V25.48h-1.424v5.08h-6.065v-5.08h-1.423V37zm13.612.24c1.44 0 2.506-.528 3.2-1.584V37h1.264v-5.344c0-.341-.016-.667-.048-.976a2.75 2.75 0 0 0-.232-.872 2.468 2.468 0 0 0-1.216-1.264c-.566-.283-1.238-.424-2.016-.424-.976 0-1.766.216-2.368.648-.598.432-.998 1.027-1.2 1.784l1.352.408c.154-.528.429-.912.824-1.152.394-.24.853-.36 1.376-.36.746 0 1.282.168 1.608.504.33.33.504.84.52 1.528-.64.09-1.312.187-2.016.288-.699.096-1.32.216-1.864.36-.656.192-1.174.493-1.552.904-.379.405-.568.95-.568 1.632 0 .464.109.89.328 1.28.224.39.552.704.984.944.437.235.978.352 1.624.352zm.216-1.192c-.614 0-1.056-.141-1.328-.424-.272-.288-.408-.61-.408-.968 0-.405.133-.715.4-.928.272-.219.586-.384.944-.496a11.71 11.71 0 0 1 1.472-.296c.56-.08 1.144-.16 1.752-.24 0 .197-.011.421-.032.672-.016.25-.054.48-.112.688-.102.533-.384 1-.848 1.4-.459.395-1.072.592-1.84.592zm6.32.952h1.424v-7.288h4.232V37h1.424v-8.64h-7.08V37zm16.392-8.64h-1.168l-4.536 6.28v-6.28h-1.376V37h1.176l4.528-6.368V37h1.376v-8.64zm5.881 8.88c.89 0 1.653-.213 2.288-.64.634-.427 1.104-1.043 1.408-1.848l-1.44-.376c-.4 1.008-1.152 1.512-2.256 1.512-.859 0-1.507-.293-1.944-.88-.432-.587-.654-1.363-.664-2.328.01-.939.226-1.707.648-2.304.421-.603 1.074-.904 1.96-.904.522 0 .989.139 1.4.416.41.277.706.667.888 1.168l1.408-.424a3.275 3.275 0 0 0-1.336-1.84c-.656-.448-1.438-.672-2.344-.672-.864 0-1.606.195-2.224.584a3.732 3.732 0 0 0-1.408 1.6c-.326.683-.494 1.475-.504 2.376.01.88.176 1.664.496 2.352a3.8 3.8 0 0 0 1.392 1.624c.613.39 1.357.584 2.232.584zm7.706 0c1.44 0 2.507-.528 3.2-1.584V37h1.264v-5.344c0-.341-.016-.667-.048-.976a2.724 2.724 0 0 0-.232-.872 2.46 2.46 0 0 0-1.216-1.264c-.565-.283-1.237-.424-2.016-.424-.976 0-1.765.216-2.368.648-.597.432-.997 1.027-1.2 1.784l1.352.408c.155-.528.43-.912.824-1.152.395-.24.854-.36 1.376-.36.747 0 1.283.168 1.608.504.331.33.504.84.52 1.528-.64.09-1.312.187-2.016.288-.698.096-1.32.216-1.864.36-.656.192-1.173.493-1.552.904-.378.405-.568.95-.568 1.632 0 .464.11.89.328 1.28.224.39.552.704.984.944.438.235.979.352 1.624.352zm.216-1.192c-.613 0-1.056-.141-1.328-.424-.272-.288-.408-.61-.408-.968 0-.405.134-.715.4-.928.272-.219.587-.384.944-.496.422-.117.912-.216 1.472-.296.56-.08 1.144-.16 1.752-.24 0 .197-.01.421-.032.672a3.29 3.29 0 0 1-.112.688c-.101.533-.384 1-.848 1.4-.458.395-1.072.592-1.84.592zm8.616.952h1.424v-7.344h3.008V28.36h-7.44v1.296h3.008V37zm5.947 0h3.368c.245 0 .504-.005.776-.016.277-.016.522-.048.736-.096.624-.139 1.128-.427 1.512-.864.389-.437.584-1.03.584-1.776 0-.81-.208-1.424-.624-1.84-.411-.421-.95-.699-1.616-.832a4.818 4.818 0 0 0-.688-.072c-.256-.01-.51-.016-.76-.016h-1.864V28.36h-1.432l.008 8.64zm1.424-1.176v-3.16h1.968c.154 0 .317.005.488.016.17.01.333.035.488.072.336.075.61.232.824.472.213.24.32.581.32 1.024 0 .437-.11.776-.328 1.016a1.57 1.57 0 0 1-.728.464 2.64 2.64 0 0 1-.536.08c-.198.01-.374.016-.528.016h-1.968zM174.217 37h1.984l3.856-11.52h-1.48l-3.384 10.008-3.352-10.008h-1.48L174.217 37zm6.891-10.168h1.424V25.36h-1.424v1.472zm0 10.168h1.424v-8.64h-1.424V37zm3.817 0h1.272v-.976c.314.379.696.677 1.144.896.453.213.973.32 1.56.32.805 0 1.496-.2 2.072-.6a3.91 3.91 0 0 0 1.336-1.64c.309-.688.464-1.464.464-2.328 0-.864-.155-1.64-.464-2.328-.31-.688-.755-1.23-1.336-1.624-.576-.4-1.264-.6-2.064-.6-.539 0-1.022.09-1.448.272a3.318 3.318 0 0 0-1.104.752V25.48h-1.432V37zm3.8-1.064c-.87 0-1.51-.307-1.92-.92-.406-.613-.608-1.395-.608-2.344 0-.955.202-1.733.608-2.336.41-.608 1.037-.912 1.88-.912.586 0 1.069.144 1.448.432.384.288.666.677.848 1.168.186.49.28 1.04.28 1.648a4.71 4.71 0 0 1-.28 1.664c-.187.49-.467.88-.84 1.168-.374.288-.846.432-1.416.432zm9.545 1.304c.838 0 1.592-.208 2.264-.624.672-.421 1.179-1.013 1.52-1.776l-1.368-.472c-.496 1.013-1.322 1.52-2.48 1.52-.794 0-1.418-.243-1.872-.728-.448-.49-.701-1.184-.76-2.08h6.624c.043-1.024-.09-1.907-.4-2.648-.304-.741-.762-1.312-1.376-1.712-.608-.4-1.346-.6-2.216-.6-.837 0-1.568.19-2.192.568-.624.373-1.109.907-1.456 1.6-.341.688-.512 1.504-.512 2.448 0 .901.174 1.69.52 2.368a3.91 3.91 0 0 0 1.48 1.576c.635.373 1.376.56 2.224.56zm-.016-7.84c1.467 0 2.288.845 2.464 2.536h-5.12c.102-.821.376-1.448.824-1.88.448-.437 1.059-.656 1.832-.656zm5.725 7.6h1.432v-4.336c0-.512.07-1.005.208-1.48.139-.475.419-.861.84-1.16.299-.219.627-.347.984-.384.363-.037.694-.019.992.056V28.36a3.148 3.148 0 0 0-1.264 0 2.616 2.616 0 0 0-1.184.528 2.534 2.534 0 0 0-.736.84V28.36h-1.272V37z" fill="#fff"/><path d="M61.875 13.854c-.991-.86-4.956-3.826-13.647-3.826 0 0-10.292-.625-15.324 4.06-2.82 2.889-3.812 7.027-3.888 12.259-.076 5.153-.229 14.913 8.92 17.568v3.982s-.077 1.64.99 2.03c1.297.39 1.983-.858 3.203-2.186.686-.78 1.6-1.796 2.287-2.655 6.252.547 11.055-.702 11.665-.859 1.22-.468 8.386-1.405 9.53-11.087 1.22-10.073-.534-16.397-3.736-19.286zm.99 18.505c-.914 8.12-6.785 8.667-7.852 9.057-.457.079-4.65 1.172-9.987.86 0 0-3.965 4.84-5.184 6.168-.381.39-.839.39-.839-.469V41.26c-7.7-2.186-7.243-10.463-7.166-14.757.076-4.373.838-7.886 3.202-10.307 4.269-3.982 13.036-3.357 13.036-3.357 7.396 0 10.903 2.342 11.741 3.045 2.745 2.42 4.117 8.12 3.05 16.475zM52.27 26.112c-.077-2.264-1.22-3.513-3.355-3.67-.686 0-.762 1.016-.076 1.016 1.6.156 2.363.937 2.516 2.655 0 .702.99.624.915 0zm1.6.86c0 .624.992.702.992 0 .076-3.748-2.287-6.872-6.71-7.184-.686-.078-.762.937-.076 1.015 3.812.234 5.87 2.889 5.795 6.168zm3.584 1.014c-.076-6.793-4.575-10.775-10.216-10.853-.61 0-.61 1.015 0 1.015 5.032.078 9.148 3.514 9.225 9.838 0 .703.99.703.99 0zm-.915 7.652c.381-.702.305-1.327-.229-1.795-.99-.937-2.363-1.953-3.507-2.577-.838-.469-1.677-.156-2.058.312l-.686.937c-.382.469-1.068.39-1.068.39-5.108-1.327-6.48-6.558-6.48-6.558s0-.703.458-1.093l.914-.781c.458-.39.687-1.25.229-2.108a11.76 11.76 0 0 0-1.143-1.796c-.382-.625-1.373-1.718-1.373-1.718-.381-.625-1.067-.703-1.753-.312h-.077c-1.448.78-3.05 2.42-2.515 3.982 0 0 .38 1.405 1.982 4.372.762 1.484 1.6 2.655 2.363 3.67.839 1.093 1.982 2.265 3.202 3.28 2.44 1.952 6.175 3.982 7.777 4.45h.076c1.525.547 3.126-1.093 3.888-2.576v-.078z" fill="url(#b)" fill-opacity=".4" filter="url(#c)"/><defs><filter id="c" x="15.364" y="-3.636" width="64.273" height="67.273" filterUnits="userSpaceOnUse" color-interpolation-filters="sRGB"><feFlood flood-opacity="0" result="BackgroundImageFix"/><feGaussianBlur in="BackgroundImage" stdDeviation="6.818"/><feComposite in2="SourceAlpha" operator="in" result="effect1_backgroundBlur_1112_31345"/><feBlend in="SourceGraphic" in2="effect1_backgroundBlur_1112_31345" result="shape"/><feColorMatrix in="SourceAlpha" values="0 0 0 0 0 0 0 0 0 0 0 0 0 0 0 0 0 0 127 0" result="hardAlpha"/><feOffset dx="-6.818" dy="6.818"/><feGaussianBlur stdDeviation="3.409"/><feComposite in2="hardAlpha" operator="arithmetic" k2="-1" k3="1"/><feColorMatrix values="0 0 0 0 1 0 0 0 0 1 0 0 0 0 1 0 0 0 0.15 0"/><feBlend in2="shape" result="effect2_innerShadow_1112_31345"/><feColorMatrix in="SourceAlpha" values="0 0 0 0 0 0 0 0 0 0 0 0 0 0 0 0 0 0 127 0" result="hardAlpha"/><feOffset dy="-6.818"/><feGaussianBlur stdDeviation="3.409"/><feComposite in2="hardAlpha" operator="arithmetic" k2="-1" k3="1"/><feColorMatrix values="0 0 0 0 0.936091 0 0 0 0 0.831818 0 0 0 0 1 0 0 0 1 0"/><feBlend in2="effect2_innerShadow_1112_31345" result="effect3_innerShadow_1112_31345"/></filter><linearGradient id="a" x1="369.558" y1="-15.625" x2="-55.082" y2="63.931" gradientUnits="userSpaceOnUse"><stop stop-color="#9E46F6"/><stop offset="1" stop-color="#9A41E0"/></linearGradient><radialGradient id="b" cx="0" cy="0" r="1" gradientUnits="userSpaceOnUse" gradientTransform="matrix(-35.9727 40.12602 -39.88887 -35.76009 66.13 8.506)"><stop stop-color="#fff"/><stop offset="1" stop-color="#F6F6F6"/></radialGradient></defs></svg>