<svg width="183" height="194" viewBox="0 0 183 194" fill="none" xmlns="http://www.w3.org/2000/svg"><rect width="183" height="194" rx="24" fill="#F3F6FC"/><path d="M17.12 144h1.424v-5.088h6.064V144h1.424v-11.52h-1.424v5.08h-6.064v-5.08H17.12V144zm13.612.24c1.44 0 2.507-.528 3.2-1.584V144h1.264v-5.344c0-.341-.016-.667-.048-.976a2.735 2.735 0 0 0-.232-.872 2.464 2.464 0 0 0-1.216-1.264c-.565-.283-1.237-.424-2.016-.424-.976 0-1.765.216-2.368.648-.597.432-.997 1.027-1.2 1.784l1.352.408c.155-.528.43-.912.824-1.152.395-.24.854-.36 1.376-.36.747 0 1.283.168 1.608.504.33.331.504.84.52 1.528l-2.016.288c-.698.096-1.32.216-1.864.36-.656.192-1.173.493-1.552.904-.378.405-.568.949-.568 1.632 0 .464.11.891.328 1.28.224.389.552.704.984.944.438.235.979.352 1.624.352zm.216-1.192c-.613 0-1.056-.141-1.328-.424-.272-.288-.408-.611-.408-.968 0-.405.134-.715.4-.928.272-.219.587-.384.944-.496.422-.117.912-.216 1.472-.296.56-.08 1.144-.16 1.752-.24 0 .197-.01.421-.032.672-.016.251-.053.48-.112.688-.101.533-.384 1-.848 1.4-.458.395-1.072.592-1.84.592zm6.32.952h1.424v-7.288h4.232V144h1.424v-8.64h-7.08V144zm16.393-8.64h-1.168l-4.536 6.28v-6.28H46.58V144h1.176l4.528-6.368V144h1.376v-8.64zm5.88 8.88c.89 0 1.654-.213 2.288-.64.635-.427 1.104-1.043 1.408-1.848l-1.44-.376c-.4 1.008-1.152 1.512-2.256 1.512-.858 0-1.506-.293-1.944-.88-.432-.587-.653-1.363-.664-2.328.01-.939.227-1.707.648-2.304.422-.603 1.075-.904 1.96-.904.523 0 .99.139 1.4.416.41.277.707.667.888 1.168l1.408-.424a3.27 3.27 0 0 0-1.336-1.84c-.656-.448-1.437-.672-2.344-.672-.864 0-1.605.195-2.224.584a3.736 3.736 0 0 0-1.408 1.6c-.325.683-.493 1.475-.504 2.376.01.88.176 1.664.496 2.352s.784 1.229 1.392 1.624c.614.389 1.358.584 2.232.584zm7.707 0c1.44 0 2.506-.528 3.2-1.584V144h1.264v-5.344c0-.341-.016-.667-.048-.976a2.735 2.735 0 0 0-.232-.872 2.464 2.464 0 0 0-1.216-1.264c-.566-.283-1.237-.424-2.016-.424-.976 0-1.766.216-2.368.648-.597.432-.997 1.027-1.2 1.784l1.352.408c.154-.528.43-.912.824-1.152.394-.24.853-.36 1.376-.36.746 0 1.282.168 1.608.504.33.331.504.84.52 1.528l-2.016.288c-.699.096-1.32.216-1.864.36-.656.192-1.174.493-1.552.904-.379.405-.568.949-.568 1.632 0 .464.11.891.328 1.28.224.389.552.704.984.944.437.235.979.352 1.624.352zm.216-1.192c-.614 0-1.056-.141-1.328-.424-.272-.288-.408-.611-.408-.968 0-.405.133-.715.4-.928.272-.219.587-.384.944-.496.421-.117.912-.216 1.472-.296.56-.08 1.144-.16 1.752-.24 0 .197-.01.421-.032.672-.016.251-.053.48-.112.688-.102.533-.384 1-.848 1.4-.459.395-1.072.592-1.84.592zm8.616.952h1.424v-7.344h3.008v-1.296h-7.44v1.296h3.008V144zm5.946 0h3.368c.246 0 .504-.005.776-.016.278-.016.523-.048.736-.096.624-.139 1.128-.427 1.512-.864.39-.437.584-1.029.584-1.776 0-.811-.208-1.424-.624-1.84-.41-.421-.95-.699-1.616-.832a4.891 4.891 0 0 0-.688-.072 17.7 17.7 0 0 0-.76-.016H83.45v-3.128h-1.432l.008 8.64zm1.424-1.176v-3.16h1.968c.155 0 .318.005.488.016.17.011.334.035.488.072.336.075.61.232.824.472.214.24.32.581.32 1.024 0 .437-.11.776-.328 1.016a1.574 1.574 0 0 1-.728.464 2.63 2.63 0 0 1-.536.08 9.556 9.556 0 0 1-.528.016H83.45zM19.576 171H21l2.592-9.032L26.184 171h1.424l3.336-11.52h-1.496l-2.552 9.112-2.56-9.112-1.496.008-2.552 9.104-2.56-9.112H16.24L19.576 171zm12.724 0h1.44v-4.552c0-1.003.215-1.747.648-2.232.437-.485 1.013-.728 1.727-.728.608 0 1.083.152 1.424.456.342.304.58.699.712 1.184.14.485.209 1 .209 1.544V171h1.44v-4.776c0-.411-.051-.851-.152-1.32a4.067 4.067 0 0 0-.529-1.336c-.25-.421-.6-.765-1.047-1.032-.443-.267-1.014-.4-1.712-.4-1.26 0-2.22.445-2.88 1.336v-3.992H32.3V171zm12.135.24c1.44 0 2.507-.528 3.2-1.584V171H48.9v-5.344c0-.341-.016-.667-.048-.976a2.735 2.735 0 0 0-.232-.872 2.464 2.464 0 0 0-1.216-1.264c-.565-.283-1.237-.424-2.016-.424-.976 0-1.765.216-2.368.648-.597.432-.997 1.027-1.2 1.784l1.352.408c.155-.528.43-.912.824-1.152.395-.24.854-.36 1.376-.36.747 0 1.283.168 1.608.504.331.331.504.84.52 1.528l-2.016.288c-.698.096-1.32.216-1.864.36-.656.192-1.173.493-1.552.904-.378.405-.568.949-.568 1.632 0 .464.11.891.328 1.28.224.389.552.704.984.944.438.235.979.352 1.624.352zm.216-1.192c-.613 0-1.056-.141-1.328-.424-.272-.288-.408-.611-.408-.968 0-.405.134-.715.4-.928.272-.219.587-.384.944-.496.422-.117.912-.216 1.472-.296.56-.08 1.144-.16 1.752-.24 0 .197-.01.421-.032.672-.016.251-.053.48-.112.688-.101.533-.384 1-.848 1.4-.458.395-1.072.592-1.84.592zm11.152.952v-1.224c-.592.091-1.098.107-1.52.048-.416-.059-.72-.259-.912-.6a1.42 1.42 0 0 1-.168-.64 43.474 43.474 0 0 1-.008-.912v-4.136h2.608v-1.176h-2.608v-2.4h-1.424v2.4H50.02v1.176h1.752v4.2c0 .448.006.848.016 1.2.016.347.11.688.28 1.024.203.389.499.677.888.864.39.181.832.28 1.328.296a6.438 6.438 0 0 0 1.52-.12zm5.019.232c1.077 0 1.922-.237 2.535-.712.614-.475.92-1.131.92-1.968 0-.448-.093-.824-.28-1.128-.186-.309-.5-.576-.944-.8-.437-.229-1.037-.44-1.8-.632a15.886 15.886 0 0 1-1.551-.456c-.352-.133-.595-.275-.728-.424a.796.796 0 0 1-.192-.536c0-.368.173-.661.52-.88.352-.219.807-.32 1.367-.304.587.016 1.07.16 1.449.432.378.267.602.629.671 1.088l1.457-.264c-.091-.763-.464-1.373-1.12-1.832-.651-.464-1.47-.696-2.456-.696-.998 0-1.8.232-2.409.696-.608.459-.912 1.069-.912 1.832 0 .411.091.76.273 1.048.186.288.498.541.935.76.443.219 1.046.429 1.808.632.704.187 1.23.349 1.576.488.352.133.584.275.697.424.111.149.168.347.168.592 0 .421-.171.755-.512 1-.336.245-.798.368-1.384.368-.624 0-1.147-.136-1.568-.408a1.839 1.839 0 0 1-.809-1.12l-1.456.232c.15.811.553 1.443 1.209 1.896.66.448 1.506.672 2.535.672zm4.42-.232h1.48l.904-2.696h4.92l.912 2.696h1.48l-3.856-11.52h-1.984L65.242 171zm2.832-4.032l2-5.992 2.024 5.992h-4.024zm8.288 7.872h1.432v-4.64a3.4 3.4 0 0 0 1.096.768c.427.181.91.272 1.448.272.805 0 1.496-.2 2.072-.6a3.9 3.9 0 0 0 1.336-1.64c.31-.688.464-1.464.464-2.328 0-.864-.155-1.64-.464-2.328-.31-.688-.755-1.229-1.336-1.624-.576-.4-1.264-.6-2.064-.6-.587 0-1.107.107-1.56.32a3.304 3.304 0 0 0-1.152.888v-.968h-1.272v12.48zm3.8-4.904c-.87 0-1.51-.307-1.92-.92-.405-.613-.608-1.395-.608-2.344 0-.955.203-1.733.608-2.336.41-.608 1.037-.912 1.88-.912.587 0 1.07.144 1.448.432.384.288.667.677.848 1.168.187.491.28 1.04.28 1.648 0 .613-.093 1.168-.28 1.664-.187.491-.467.88-.84 1.168-.373.288-.845.432-1.416.432zm5.794 4.904h1.432v-4.64a3.4 3.4 0 0 0 1.096.768c.426.181.91.272 1.448.272.805 0 1.496-.2 2.072-.6A3.9 3.9 0 0 0 93.34 169c.31-.688.464-1.464.464-2.328 0-.864-.155-1.64-.464-2.328-.31-.688-.755-1.229-1.336-1.624-.576-.4-1.264-.6-2.064-.6-.587 0-1.107.107-1.56.32a3.302 3.302 0 0 0-1.152.888v-.968h-1.272v12.48zm3.8-4.904c-.87 0-1.51-.307-1.92-.92-.406-.613-.608-1.395-.608-2.344 0-.955.202-1.733.608-2.336.41-.608 1.037-.912 1.88-.912.586 0 1.07.144 1.448.432.384.288.666.677.848 1.168.186.491.28 1.04.28 1.648a4.71 4.71 0 0 1-.28 1.664c-.187.491-.467.88-.84 1.168-.374.288-.846.432-1.416.432z" fill="#151515"/><circle cx="139.625" cy="153.625" r="27.375" fill="url(#a)"/><circle cx="139.25" cy="154" r="21.75" fill="#41E0A7" opacity=".5" filter="url(#b)"/><path d="M148.461 137.238a19.2 19.2 0 0 0-13.799-5.8c-10.723 0-19.512 8.789-19.512 19.511 0 3.516.967 6.856 2.637 9.756l-2.725 10.107 10.284-2.636c2.9 1.494 6.064 2.373 9.316 2.373 10.811 0 19.776-8.789 19.776-19.512 0-5.273-2.286-10.107-5.977-13.799zm-13.799 29.971c-2.9 0-5.713-.791-8.262-2.285l-.527-.352-6.152 1.67 1.67-5.976-.44-.616c-1.582-2.636-2.461-5.625-2.461-8.701 0-8.877 7.295-16.172 16.26-16.172 4.307 0 8.35 1.67 11.426 4.746 3.076 3.077 4.922 7.12 4.922 11.514 0 8.877-7.471 16.172-16.436 16.172zm8.965-12.129c-.527-.264-2.9-1.406-3.34-1.582-.439-.176-.791-.264-1.142.264-.264.439-1.231 1.582-1.495 1.933-.351.264-.615.352-1.054.088-2.901-1.406-4.746-2.549-6.68-5.801-.527-.878.527-.791 1.406-2.636.176-.352.088-.616 0-.879-.088-.264-1.142-2.637-1.494-3.604-.439-.967-.791-.879-1.142-.879h-.879c-.352 0-.879.088-1.319.616-.439.527-1.67 1.67-1.67 4.043 0 2.461 1.67 4.746 1.934 5.097.264.264 3.428 5.186 8.35 7.295 3.076 1.406 4.306 1.494 5.888 1.231.879-.088 2.813-1.143 3.252-2.286.44-1.142.44-2.109.264-2.285-.088-.263-.44-.351-.879-.615z" fill="url(#c)" fill-opacity=".4" filter="url(#d)"/><path d="M50.862 16h-3.58v3.58h3.58V16zm24.331 0h-3.58v3.58h3.58V16z" fill="#43E68F"/><path d="M47.387 19.476h-3.58v3.58h3.58v-3.58z" fill="#43E68F"/><path d="M50.862 19.476h-3.58v3.58h3.58v-3.58zm6.953 0h-3.58v3.58h3.58v-3.58z" fill="#43E68F"/><path d="M61.29 19.476h-3.58v3.58h3.58v-3.58z" fill="#43E68F"/><path d="M64.766 19.476h-3.58v3.58h3.58v-3.58zm10.427 0h-3.58v3.58h3.58v-3.58zm-24.331 3.476h-3.58v3.58h3.58v-3.58z" fill="#43E68F"/><path d="M54.338 22.952h-3.58v3.58h3.58v-3.58z" fill="#43E68F"/><path d="M57.815 22.952h-3.58v3.58h3.58v-3.58zm6.951 0h-3.58v3.58h3.58v-3.58zm6.952 0h-3.58v3.58h3.58v-3.58z" fill="#43E68F"/><path d="M75.193 22.952h-3.58v3.58h3.58v-3.58zm-27.806 3.475h-3.58v3.58h3.58v-3.58z" fill="#43E68F"/><path d="M50.862 26.427h-3.58v3.58h3.58v-3.58zm6.953 0h-3.58v3.58h3.58v-3.58zm10.426 0h-3.58v3.58h3.58v-3.58z" fill="#43E68F"/><path d="M71.718 26.427h-3.58v3.58h3.58v-3.58zm-17.38 3.476h-3.58v3.58h3.58v-3.58zm6.952 0h-3.58v3.58h3.58v-3.58z" fill="#43E68F"/><path d="M68.241 29.903h-3.58v3.58h3.58v-3.58z" fill="#43E68F"/><path d="M71.718 29.903h-3.58v3.58h3.58v-3.58zM47.387 33.38h-3.58v3.58h3.58v-3.58zm6.951 0h-3.58v3.58h3.58v-3.58zm10.428 0h-3.58v3.58h3.58v-3.58z" fill="#43E68F"/><path d="M71.718 33.38h-3.58v3.58h3.58v-3.58zm-24.331 3.475h-3.58v3.58h3.58v-3.58zm6.951 0h-3.58v3.58h3.58v-3.58zm6.952 0h-3.58v3.58h3.58v-3.58z" fill="#43E68F"/><path d="M68.241 36.855h-3.58v3.58h3.58v-3.58zm6.952 0h-3.58v3.58h3.58v-3.58zM61.29 40.33h-3.58v3.58h3.58v-3.58z" fill="#43E68F"/><path d="M64.766 40.33h-3.58v3.58h3.58v-3.58zM19.58 43.807H16v3.58h3.58v-3.58z" fill="#43E68F"/><path d="M23.056 43.807h-3.58v3.58h3.58v-3.58z" fill="#43E68F"/><path d="M26.531 43.807h-3.58v3.58h3.58v-3.58z" fill="#43E68F"/><path d="M30.008 43.807h-3.58v3.58h3.58v-3.58z" fill="#43E68F"/><path d="M33.483 43.807h-3.58v3.58h3.58v-3.58zm6.952 0h-3.58v3.58h3.58v-3.58z" fill="#43E68F"/><path d="M43.911 43.807h-3.58v3.58h3.58v-3.58z" fill="#43E68F"/><path d="M47.387 43.807h-3.58v3.58h3.58v-3.58z" fill="#43E68F"/><path d="M50.862 43.807h-3.58v3.58h3.58v-3.58z" fill="#43E68F"/><path d="M54.338 43.807h-3.58v3.58h3.58v-3.58zm6.952 0h-3.58v3.58h3.58v-3.58z" fill="#43E68F"/><path d="M64.766 43.807h-3.58v3.58h3.58v-3.58z" fill="#43E68F"/><path d="M68.241 43.807h-3.58v3.58h3.58v-3.58z" fill="#43E68F"/><path d="M71.718 43.807h-3.58v3.58h3.58v-3.58zm6.951 0h-3.58v3.58h3.58v-3.58zm6.952 0h-3.58v3.58h3.58v-3.58zm6.951 0h-3.58v3.58h3.58v-3.58zm6.952 0h-3.58v3.58h3.58v-3.58zM19.58 47.282H16v3.58h3.58v-3.58zm24.331 0h-3.58v3.58h3.58v-3.58z" fill="#43E68F"/><path d="M47.387 47.282h-3.58v3.58h3.58v-3.58z" fill="#43E68F"/><path d="M50.862 47.282h-3.58v3.58h3.58v-3.58zm17.379 0h-3.58v3.58h3.58v-3.58zm6.952 0h-3.58v3.58h3.58v-3.58zm10.428 0h-3.58v3.58h3.58v-3.58zm13.903 0h-3.58v3.58h3.58v-3.58zm-72.993 3.476h-3.58v3.58h3.58v-3.58z" fill="#43E68F"/><path d="M30.008 50.758h-3.58v3.58h3.58v-3.58zm6.951 0h-3.58v3.58h3.58v-3.58z" fill="#43E68F"/><path d="M40.435 50.758h-3.58v3.58h3.58v-3.58z" fill="#43E68F"/><path d="M43.911 50.758h-3.58v3.58h3.58v-3.58zm6.951 0h-3.58v3.58h3.58v-3.58zm6.953 0h-3.58v3.58h3.58v-3.58z" fill="#43E68F"/><path d="M61.29 50.758h-3.58v3.58h3.58v-3.58zm6.951 0h-3.58v3.58h3.58v-3.58z" fill="#43E68F"/><path d="M71.718 50.758h-3.58v3.58h3.58v-3.58z" fill="#43E68F"/><path d="M75.193 50.758h-3.58v3.58h3.58v-3.58zm6.952 0h-3.58v3.58h3.58v-3.58z" fill="#43E68F"/><path d="M85.621 50.758h-3.58v3.58h3.58v-3.58z" fill="#43E68F"/><path d="M89.097 50.758h-3.58v3.58h3.58v-3.58z" fill="#43E68F"/><path d="M92.572 50.758h-3.58v3.58h3.58v-3.58zm6.952 0h-3.58v3.58h3.58v-3.58z" fill="#43E68F"/><path d="M103 50.758h-3.58v3.58H103v-3.58zm-83.42 3.476H16v3.58h3.58v-3.58zm6.951 0h-3.58v3.58h3.58v-3.58zm6.952 0h-3.58v3.58h3.58v-3.58z" fill="#43E68F"/><path d="M36.959 54.234h-3.58v3.58h3.58v-3.58zm6.952 0h-3.58v3.58h3.58v-3.58zm6.951 0h-3.58v3.58h3.58v-3.58z" fill="#43E68F"/><path d="M54.338 54.234h-3.58v3.58h3.58v-3.58z" fill="#43E68F"/><path d="M57.815 54.234h-3.58v3.58h3.58v-3.58zm6.951 0h-3.58v3.58h3.58v-3.58z" fill="#43E68F"/><path d="M68.241 54.234h-3.58v3.58h3.58v-3.58z" fill="#43E68F"/><path d="M71.718 54.234h-3.58v3.58h3.58v-3.58z" fill="#43E68F"/><path d="M75.193 54.234h-3.58v3.58h3.58v-3.58z" fill="#43E68F"/><path d="M78.669 54.234h-3.58v3.58h3.58v-3.58z" fill="#43E68F"/><path d="M82.145 54.234h-3.58v3.58h3.58v-3.58z" fill="#43E68F"/><path d="M85.621 54.234h-3.58v3.58h3.58v-3.58zm17.379 0h-3.58v3.58H103v-3.58zM19.58 57.71H16v3.58h3.58v-3.58zm6.951 0h-3.58v3.58h3.58v-3.58zm6.952 0h-3.58v3.58h3.58v-3.58zm6.952 0h-3.58v3.58h3.58v-3.58zm10.427 0h-3.58v3.58h3.58v-3.58zm6.953 0h-3.58v3.58h3.58v-3.58zm6.951 0h-3.58v3.58h3.58v-3.58z" fill="#43E68F"/><path d="M68.241 57.71h-3.58v3.58h3.58v-3.58zm13.904 0h-3.58v3.58h3.58v-3.58z" fill="#43E68F"/><path d="M85.621 57.71h-3.58v3.58h3.58v-3.58z" fill="#43E68F"/><path d="M89.097 57.71h-3.58v3.58h3.58v-3.58zm6.951 0h-3.58v3.58h3.58v-3.58z" fill="#43E68F"/><path d="M99.524 57.71h-3.58v3.58h3.58v-3.58z" fill="#43E68F"/><path d="M103 57.71h-3.58v3.58H103v-3.58zm-83.42 3.476H16v3.58h3.58v-3.58z" fill="#43E68F"/><path d="M23.056 61.186h-3.58v3.58h3.58v-3.58z" fill="#43E68F"/><path d="M26.531 61.186h-3.58v3.58h3.58v-3.58zm10.428 0h-3.58v3.58h3.58v-3.58zm6.952 0h-3.58v3.58h3.58v-3.58z" fill="#43E68F"/><path d="M47.387 61.186h-3.58v3.58h3.58v-3.58zm6.951 0h-3.58v3.58h3.58v-3.58zm6.952 0h-3.58v3.58h3.58v-3.58z" fill="#43E68F"/><path d="M64.766 61.186h-3.58v3.58h3.58v-3.58z" fill="#43E68F"/><path d="M68.241 61.186h-3.58v3.58h3.58v-3.58z" fill="#43E68F"/><path d="M71.718 61.186h-3.58v3.58h3.58v-3.58zm13.903 0h-3.58v3.58h3.58v-3.58zm6.951 0h-3.58v3.58h3.58v-3.58zm6.952 0h-3.58v3.58h3.58v-3.58zM19.58 64.662H16v3.58h3.58v-3.58zm13.903 0h-3.58v3.58h3.58v-3.58z" fill="#43E68F"/><path d="M36.959 64.662h-3.58v3.58h3.58v-3.58z" fill="#43E68F"/><path d="M40.435 64.662h-3.58v3.58h3.58v-3.58zm6.952 0h-3.58v3.58h3.58v-3.58z" fill="#43E68F"/><path d="M50.862 64.662h-3.58v3.58h3.58v-3.58z" fill="#43E68F"/><path d="M54.338 64.662h-3.58v3.58h3.58v-3.58zm10.428 0h-3.58v3.58h3.58v-3.58z" fill="#43E68F"/><path d="M68.241 64.662h-3.58v3.58h3.58v-3.58z" fill="#43E68F"/><path d="M71.718 64.662h-3.58v3.58h3.58v-3.58zm6.951 0h-3.58v3.58h3.58v-3.58zm6.952 0h-3.58v3.58h3.58v-3.58z" fill="#43E68F"/><path d="M89.097 64.662h-3.58v3.58h3.58v-3.58z" fill="#43E68F"/><path d="M92.572 64.662h-3.58v3.58h3.58v-3.58zm6.952 0h-3.58v3.58h3.58v-3.58z" fill="#43E68F"/><path d="M103 64.662h-3.58v3.58H103v-3.58zm-83.42 3.476H16v3.58h3.58v-3.58zm6.951 0h-3.58v3.58h3.58v-3.58z" fill="#43E68F"/><path d="M30.008 68.138h-3.58v3.58h3.58v-3.58zm6.951 0h-3.58v3.58h3.58v-3.58zm6.952 0h-3.58v3.58h3.58v-3.58zm17.379 0h-3.58v3.58h3.58v-3.58zm10.428 0h-3.58v3.58h3.58v-3.58zm13.903 0h-3.58v3.58h3.58v-3.58z" fill="#43E68F"/><path d="M89.097 68.138h-3.58v3.58h3.58v-3.58zm13.903 0h-3.58v3.58H103v-3.58zm-83.42 3.475H16v3.58h3.58v-3.58zm10.428 0h-3.58v3.58h3.58v-3.58z" fill="#43E68F"/><path d="M33.483 71.613h-3.58v3.58h3.58v-3.58z" fill="#43E68F"/><path d="M36.959 71.613h-3.58v3.58h3.58v-3.58z" fill="#43E68F"/><path d="M40.435 71.613h-3.58v3.58h3.58v-3.58zm10.427 0h-3.58v3.58h3.58v-3.58z" fill="#43E68F"/><path d="M54.338 71.613h-3.58v3.58h3.58v-3.58zm6.952 0h-3.58v3.58h3.58v-3.58zm6.951 0h-3.58v3.58h3.58v-3.58z" fill="#43E68F"/><path d="M71.718 71.613h-3.58v3.58h3.58v-3.58z" fill="#43E68F"/><path d="M75.193 71.613h-3.58v3.58h3.58v-3.58z" fill="#43E68F"/><path d="M78.669 71.613h-3.58v3.58h3.58v-3.58z" fill="#43E68F"/><path d="M82.145 71.613h-3.58v3.58h3.58v-3.58z" fill="#43E68F"/><path d="M85.621 71.613h-3.58v3.58h3.58v-3.58z" fill="#43E68F"/><path d="M89.097 71.613h-3.58v3.58h3.58v-3.58zm6.951 0h-3.58v3.58h3.58v-3.58zM47.387 75.09h-3.58v3.58h3.58v-3.58z" fill="#43E68F"/><path d="M50.862 75.09h-3.58v3.58h3.58v-3.58z" fill="#43E68F"/><path d="M54.338 75.09h-3.58v3.58h3.58v-3.58zm17.38 0h-3.58v3.58h3.58v-3.58z" fill="#43E68F"/><path d="M75.193 75.09h-3.58v3.58h3.58v-3.58zm13.904 0h-3.58v3.58h3.58v-3.58z" fill="#43E68F"/><path d="M92.572 75.09h-3.58v3.58h3.58v-3.58zm-45.185 3.475h-3.58v3.58h3.58v-3.58z" fill="#43E68F"/><path d="M50.862 78.565h-3.58v3.58h3.58v-3.58zm6.953 0h-3.58v3.58h3.58v-3.58z" fill="#43E68F"/><path d="M61.29 78.565h-3.58v3.58h3.58v-3.58zm6.951 0h-3.58v3.58h3.58v-3.58zm6.952 0h-3.58v3.58h3.58v-3.58zm6.952 0h-3.58v3.58h3.58v-3.58zm6.952 0h-3.58v3.58h3.58v-3.58zm6.951 0h-3.58v3.58h3.58v-3.58z" fill="#43E68F"/><path d="M99.524 78.565h-3.58v3.58h3.58v-3.58z" fill="#43E68F"/><path d="M103 78.565h-3.58v3.58H103v-3.58zM54.338 82.04h-3.58v3.58h3.58v-3.58z" fill="#43E68F"/><path d="M57.815 82.04h-3.58v3.58h3.58v-3.58zm13.903 0h-3.58v3.58h3.58v-3.58z" fill="#43E68F"/><path d="M75.193 82.04h-3.58v3.58h3.58v-3.58zm13.904 0h-3.58v3.58h3.58v-3.58z" fill="#43E68F"/><path d="M92.572 82.04h-3.58v3.58h3.58v-3.58zm6.952 0h-3.58v3.58h3.58v-3.58z" fill="#43E68F"/><path d="M103 82.04h-3.58v3.58H103v-3.58zm-55.613 3.477h-3.58v3.58h3.58v-3.58z" fill="#43E68F"/><path d="M50.862 85.517h-3.58v3.58h3.58v-3.58zm6.953 0h-3.58v3.58h3.58v-3.58zm13.903 0h-3.58v3.58h3.58v-3.58z" fill="#43E68F"/><path d="M75.193 85.517h-3.58v3.58h3.58v-3.58z" fill="#43E68F"/><path d="M78.669 85.517h-3.58v3.58h3.58v-3.58z" fill="#43E68F"/><path d="M82.145 85.517h-3.58v3.58h3.58v-3.58z" fill="#43E68F"/><path d="M85.621 85.517h-3.58v3.58h3.58v-3.58z" fill="#43E68F"/><path d="M89.097 85.517h-3.58v3.58h3.58v-3.58zm6.951 0h-3.58v3.58h3.58v-3.58z" fill="#43E68F"/><path d="M99.524 85.517h-3.58v3.58h3.58v-3.58zm-52.137 3.475h-3.58v3.58h3.58v-3.58z" fill="#43E68F"/><path d="M50.862 88.992h-3.58v3.58h3.58v-3.58zm10.428 0h-3.58v3.58h3.58v-3.58z" fill="#43E68F"/><path d="M64.766 88.992h-3.58v3.58h3.58v-3.58zm13.903 0h-3.58v3.58h3.58v-3.58z" fill="#43E68F"/><path d="M82.145 88.992h-3.58v3.58h3.58v-3.58zm6.952 0h-3.58v3.58h3.58v-3.58z" fill="#43E68F"/><path d="M92.572 88.992h-3.58v3.58h3.58v-3.58z" fill="#43E68F"/><path d="M96.048 88.992h-3.58v3.58h3.58v-3.58zm6.952 0h-3.58v3.58H103v-3.58zm-55.613 3.476h-3.58v3.58h3.58v-3.58zm17.379 0h-3.58v3.58h3.58v-3.58z" fill="#43E68F"/><path d="M68.241 92.468h-3.58v3.58h3.58v-3.58zm24.331 0h-3.58v3.58h3.58v-3.58z" fill="#43E68F"/><path d="M96.048 92.468h-3.58v3.58h3.58v-3.58zm6.952 0h-3.58v3.58H103v-3.58zm-55.613 3.476h-3.58v3.58h3.58v-3.58z" fill="#43E68F"/><path d="M50.862 95.944h-3.58v3.58h3.58v-3.58z" fill="#43E68F"/><path d="M54.338 95.944h-3.58v3.58h3.58v-3.58zm6.952 0h-3.58v3.58h3.58v-3.58z" fill="#43E68F"/><path d="M64.766 95.944h-3.58v3.58h3.58v-3.58zm6.952 0h-3.58v3.58h3.58v-3.58z" fill="#43E68F"/><path d="M75.193 95.944h-3.58v3.58h3.58v-3.58z" fill="#43E68F"/><path d="M78.669 95.944h-3.58v3.58h3.58v-3.58zm6.952 0h-3.58v3.58h3.58v-3.58z" fill="#43E68F"/><path d="M89.097 95.944h-3.58v3.58h3.58v-3.58z" fill="#43E68F"/><path d="M92.572 95.944h-3.58v3.58h3.58v-3.58zm10.428 0h-3.58v3.58H103v-3.58zM47.387 99.42h-3.58V103h3.58v-3.58zm13.903 0h-3.58V103h3.58v-3.58zm6.951 0h-3.58V103h3.58v-3.58zm10.428 0h-3.58V103h3.58v-3.58z" fill="#43E68F"/><path d="M82.145 99.42h-3.58V103h3.58v-3.58z" fill="#43E68F"/><path d="M85.621 99.42h-3.58V103h3.58v-3.58z" fill="#43E68F"/><path d="M89.097 99.42h-3.58V103h3.58v-3.58z" fill="#43E68F"/><path d="M92.572 99.42h-3.58V103h3.58v-3.58z" fill="#43E68F"/><path d="M96.048 99.42h-3.58V103h3.58v-3.58z" fill="#43E68F"/><path d="M99.524 99.42h-3.58V103h3.58v-3.58z" fill="#43E68F"/><path d="M103 99.42h-3.58V103H103v-3.58zM16 16v24.33h24.33V16H16zm20.855 20.855h-17.38v-17.38h17.38v17.38zM78.564 16v24.33h24.331V16h-24.33zM99.42 36.855H82.04v-17.38h17.38v17.38zM16 78.565v24.331h24.33V78.565H16zM36.855 99.42h-17.38V82.04h17.38v17.38z" fill="#43E68F"/><path d="M33.379 22.952H22.95v10.427h10.43V22.952zm62.565 0H85.517v10.427h10.427V22.952zM33.379 85.517H22.95v10.427h10.43V85.517z" fill="#43E68F"/><defs><filter id="b" x="104" y="118.75" width="70.5" height="70.5" filterUnits="userSpaceOnUse" color-interpolation-filters="sRGB"><feFlood flood-opacity="0" result="BackgroundImageFix"/><feBlend in="SourceGraphic" in2="BackgroundImageFix" result="shape"/><feGaussianBlur stdDeviation="6.75" result="effect1_foregroundBlur_1112_28268"/></filter><filter id="d" x="101.426" y="117.801" width="66.648" height="66.648" filterUnits="userSpaceOnUse" color-interpolation-filters="sRGB"><feFlood flood-opacity="0" result="BackgroundImageFix"/><feGaussianBlur in="BackgroundImage" stdDeviation="6.818"/><feComposite in2="SourceAlpha" operator="in" result="effect1_backgroundBlur_1112_28268"/><feBlend in="SourceGraphic" in2="effect1_backgroundBlur_1112_28268" result="shape"/><feColorMatrix in="SourceAlpha" values="0 0 0 0 0 0 0 0 0 0 0 0 0 0 0 0 0 0 127 0" result="hardAlpha"/><feOffset dx="-6.818" dy="6.818"/><feGaussianBlur stdDeviation="3.409"/><feComposite in2="hardAlpha" operator="arithmetic" k2="-1" k3="1"/><feColorMatrix values="0 0 0 0 1 0 0 0 0 1 0 0 0 0 1 0 0 0 0.15 0"/><feBlend in2="shape" result="effect2_innerShadow_1112_28268"/><feColorMatrix in="SourceAlpha" values="0 0 0 0 0 0 0 0 0 0 0 0 0 0 0 0 0 0 127 0" result="hardAlpha"/><feOffset dy="-6.818"/><feGaussianBlur stdDeviation="3.409"/><feComposite in2="hardAlpha" operator="arithmetic" k2="-1" k3="1"/><feColorMatrix values="0 0 0 0 0.831818 0 0 0 0 1 0 0 0 0 0.929364 0 0 0 1 0"/><feBlend in2="effect2_innerShadow_1112_28268" result="effect3_innerShadow_1112_28268"/></filter><linearGradient id="a" x1="182.02" y1="111.992" x2="99.162" y2="115.204" gradientUnits="userSpaceOnUse"><stop stop-color="#46F64D"/><stop offset="1" stop-color="#41E0A7"/></linearGradient><radialGradient id="c" cx="0" cy="0" r="1" gradientUnits="userSpaceOnUse" gradientTransform="rotate(132.557 50.187 97.814) scale(61.3177 61.0966)"><stop stop-color="#fff"/><stop offset="1" stop-color="#F6F6F6"/></radialGradient></defs></svg>