<svg width="183" height="194" viewBox="0 0 183 194" fill="none" xmlns="http://www.w3.org/2000/svg"><rect width="183" height="194" rx="24" fill="#F3F6FC"/><path d="M50.462 16h-3.54v3.539h3.54V16zm24.051 0h-3.54v3.539h3.54V16z" fill="#419DE0"/><path d="M47.026 19.436h-3.539v3.539h3.54v-3.54z" fill="#419DE0"/><path d="M50.462 19.436h-3.54v3.539h3.54v-3.54zm6.872 0h-3.54v3.539h3.54v-3.54z" fill="#419DE0"/><path d="M60.77 19.436h-3.54v3.539h3.54v-3.54z" fill="#419DE0"/><path d="M64.205 19.436h-3.539v3.539h3.539v-3.54z" fill="#419DE0"/><path d="M67.641 19.436h-3.538v3.539h3.538v-3.54z" fill="#419DE0"/><path d="M71.077 19.436h-3.539v3.539h3.539v-3.54z" fill="#419DE0"/><path d="M74.513 19.436h-3.54v3.539h3.54v-3.54zm-24.051 3.436h-3.54v3.539h3.54v-3.54z" fill="#419DE0"/><path d="M53.897 22.872h-3.539v3.539h3.54v-3.54z" fill="#419DE0"/><path d="M57.334 22.872h-3.54v3.539h3.54v-3.54zm10.307 0h-3.538v3.539h3.538v-3.54zm6.872 0h-3.54v3.539h3.54v-3.54zm-27.487 3.436h-3.539v3.539h3.54v-3.54z" fill="#419DE0"/><path d="M50.462 26.308h-3.54v3.539h3.54v-3.54zm6.872 0h-3.54v3.539h3.54v-3.54zm6.871 0h-3.539v3.539h3.539v-3.54z" fill="#419DE0"/><path d="M53.897 29.743h-3.539v3.54h3.54v-3.54zm6.873 0h-3.54v3.54h3.54v-3.54zm6.871 0h-3.538v3.54h3.538v-3.54zm6.872 0h-3.54v3.54h3.54v-3.54zM47.026 33.18h-3.539v3.538h3.54V33.18z" fill="#419DE0"/><path d="M53.897 33.18h-3.539v3.538h3.54V33.18zm10.308 0h-3.539v3.538h3.539V33.18zm6.872 0h-3.539v3.538h3.539V33.18zm-24.051 3.435h-3.539v3.54h3.54v-3.54z" fill="#419DE0"/><path d="M53.897 36.615h-3.539v3.54h3.54v-3.54zm6.873 0h-3.54v3.54h3.54v-3.54zm6.871 0h-3.538v3.54h3.538v-3.54zm6.872 0h-3.54v3.54h3.54v-3.54z" fill="#419DE0"/><path d="M60.77 40.051h-3.54v3.539h3.54v-3.539zm10.307 0h-3.539v3.539h3.539v-3.539z" fill="#419DE0"/><path d="M74.513 40.051h-3.54v3.539h3.54v-3.539zm-54.974 3.436H16v3.539h3.539v-3.539z" fill="#419DE0"/><path d="M22.974 43.487h-3.538v3.539h3.538v-3.539z" fill="#419DE0"/><path d="M26.411 43.487h-3.539v3.539h3.539v-3.539z" fill="#419DE0"/><path d="M29.847 43.487h-3.54v3.539h3.54v-3.539z" fill="#419DE0"/><path d="M33.282 43.487h-3.539v3.539h3.54v-3.539zm6.872 0h-3.539v3.539h3.54v-3.539z" fill="#419DE0"/><path d="M43.59 43.487h-3.54v3.539h3.54v-3.539z" fill="#419DE0"/><path d="M47.026 43.487h-3.539v3.539h3.54v-3.539z" fill="#419DE0"/><path d="M50.462 43.487h-3.54v3.539h3.54v-3.539z" fill="#419DE0"/><path d="M53.897 43.487h-3.539v3.539h3.54v-3.539zm6.873 0h-3.54v3.539h3.54v-3.539z" fill="#419DE0"/><path d="M64.205 43.487h-3.539v3.539h3.539v-3.539zm13.745 0h-3.54v3.539h3.54v-3.539zm6.87 0h-3.539v3.539h3.54v-3.539zm6.872 0h-3.539v3.539h3.54v-3.539zm6.872 0h-3.539v3.539h3.54v-3.539zm-79.025 3.436H16v3.539h3.539v-3.54zm6.872 0h-3.539v3.539h3.539v-3.54z" fill="#419DE0"/><path d="M29.847 46.923h-3.54v3.539h3.54v-3.54z" fill="#419DE0"/><path d="M33.282 46.923h-3.539v3.539h3.54v-3.54z" fill="#419DE0"/><path d="M36.719 46.923h-3.54v3.539h3.54v-3.54zm10.307 0h-3.539v3.539h3.54v-3.54z" fill="#419DE0"/><path d="M50.462 46.923h-3.54v3.539h3.54v-3.54zm17.179 0h-3.538v3.539h3.538v-3.54zm6.872 0h-3.54v3.539h3.54v-3.54zm24.051 0h-3.539v3.539h3.54v-3.54zm-72.153 3.436h-3.539v3.539h3.539v-3.54zm13.743 0h-3.539v3.539h3.54v-3.54z" fill="#419DE0"/><path d="M47.026 50.359h-3.539v3.539h3.54v-3.54z" fill="#419DE0"/><path d="M50.462 50.359h-3.54v3.539h3.54v-3.54zm6.872 0h-3.54v3.539h3.54v-3.54z" fill="#419DE0"/><path d="M60.77 50.359h-3.54v3.539h3.54v-3.54zm6.871 0h-3.538v3.539h3.538v-3.54z" fill="#419DE0"/><path d="M71.077 50.359h-3.539v3.539h3.539v-3.54z" fill="#419DE0"/><path d="M74.513 50.359h-3.54v3.539h3.54v-3.54z" fill="#419DE0"/><path d="M77.95 50.359h-3.54v3.539h3.54v-3.54zm13.742 0h-3.539v3.539h3.54v-3.54zm6.872 0h-3.539v3.539h3.54v-3.54z" fill="#419DE0"/><path d="M102 50.359h-3.54v3.539H102v-3.54zm-82.461 3.436H16v3.539h3.539v-3.54zm27.487 0h-3.539v3.539h3.54v-3.54z" fill="#419DE0"/><path d="M50.462 53.795h-3.54v3.539h3.54v-3.54z" fill="#419DE0"/><path d="M53.897 53.795h-3.539v3.539h3.54v-3.54z" fill="#419DE0"/><path d="M57.334 53.795h-3.54v3.539h3.54v-3.54zm13.743 0h-3.539v3.539h3.539v-3.54zm13.743 0h-3.539v3.539h3.54v-3.54zm17.18 0h-3.54v3.539H102v-3.54zM19.539 57.23H16v3.54h3.539v-3.54z" fill="#419DE0"/><path d="M22.974 57.23h-3.538v3.54h3.538v-3.54zm13.745 0h-3.54v3.54h3.54v-3.54z" fill="#419DE0"/><path d="M40.154 57.23h-3.539v3.54h3.54v-3.54z" fill="#419DE0"/><path d="M43.59 57.23h-3.54v3.54h3.54v-3.54z" fill="#419DE0"/><path d="M47.026 57.23h-3.539v3.54h3.54v-3.54z" fill="#419DE0"/><path d="M50.462 57.23h-3.54v3.54h3.54v-3.54zm6.872 0h-3.54v3.54h3.54v-3.54zm10.307 0h-3.538v3.54h3.538v-3.54z" fill="#419DE0"/><path d="M71.077 57.23h-3.539v3.54h3.539v-3.54zm6.873 0h-3.54v3.54h3.54v-3.54z" fill="#419DE0"/><path d="M81.385 57.23h-3.54v3.54h3.54v-3.54z" fill="#419DE0"/><path d="M84.82 57.23h-3.539v3.54h3.54v-3.54z" fill="#419DE0"/><path d="M88.257 57.23h-3.54v3.54h3.54v-3.54zm6.871 0h-3.54v3.54h3.54v-3.54z" fill="#419DE0"/><path d="M98.564 57.23h-3.539v3.54h3.54v-3.54z" fill="#419DE0"/><path d="M102 57.23h-3.54v3.54H102v-3.54zm-82.461 3.436H16v3.54h3.539v-3.54z" fill="#419DE0"/><path d="M22.974 60.666h-3.538v3.54h3.538v-3.54zm10.308 0h-3.539v3.54h3.54v-3.54zm10.308 0h-3.54v3.54h3.54v-3.54z" fill="#419DE0"/><path d="M47.026 60.666h-3.539v3.54h3.54v-3.54z" fill="#419DE0"/><path d="M50.462 60.666h-3.54v3.54h3.54v-3.54z" fill="#419DE0"/><path d="M53.897 60.666h-3.539v3.54h3.54v-3.54zm6.873 0h-3.54v3.54h3.54v-3.54z" fill="#419DE0"/><path d="M64.205 60.666h-3.539v3.54h3.539v-3.54z" fill="#419DE0"/><path d="M67.641 60.666h-3.538v3.54h3.538v-3.54zm6.872 0h-3.54v3.54h3.54v-3.54zm10.307 0h-3.539v3.54h3.54v-3.54zm6.872 0h-3.539v3.54h3.54v-3.54zm6.872 0h-3.539v3.54h3.54v-3.54zm-79.025 3.436H16v3.54h3.539v-3.54zm6.872 0h-3.539v3.54h3.539v-3.54zm13.743 0h-3.539v3.54h3.54v-3.54zm6.872 0h-3.539v3.54h3.54v-3.54zm6.871 0h-3.539v3.54h3.54v-3.54z" fill="#419DE0"/><path d="M64.205 64.102h-3.539v3.54h3.539v-3.54z" fill="#419DE0"/><path d="M67.641 64.102h-3.538v3.54h3.538v-3.54z" fill="#419DE0"/><path d="M71.077 64.102h-3.539v3.54h3.539v-3.54zm6.873 0h-3.54v3.54h3.54v-3.54zm6.87 0h-3.539v3.54h3.54v-3.54z" fill="#419DE0"/><path d="M88.257 64.102h-3.54v3.54h3.54v-3.54z" fill="#419DE0"/><path d="M91.692 64.102h-3.539v3.54h3.54v-3.54zm6.872 0h-3.539v3.54h3.54v-3.54z" fill="#419DE0"/><path d="M102 64.102h-3.54v3.54H102v-3.54zm-82.461 3.436H16v3.539h3.539v-3.539zm6.872 0h-3.539v3.539h3.539v-3.539zm10.308 0h-3.54v3.539h3.54v-3.539zm6.871 0h-3.54v3.539h3.54v-3.539zm10.307 0h-3.539v3.539h3.54v-3.539zm6.873 0h-3.54v3.539h3.54v-3.539zm6.871 0h-3.538v3.539h3.538v-3.539zm6.872 0h-3.54v3.539h3.54v-3.539z" fill="#419DE0"/><path d="M77.95 67.538h-3.54v3.539h3.54v-3.539z" fill="#419DE0"/><path d="M81.385 67.538h-3.54v3.539h3.54v-3.539z" fill="#419DE0"/><path d="M84.82 67.538h-3.539v3.539h3.54v-3.539z" fill="#419DE0"/><path d="M88.257 67.538h-3.54v3.539h3.54v-3.539zm13.743 0h-3.54v3.539H102v-3.539zm-82.461 3.436H16v3.54h3.539v-3.54zm13.743 0h-3.539v3.54h3.54v-3.54zm6.872 0h-3.539v3.54h3.54v-3.54zm6.872 0h-3.539v3.54h3.54v-3.54zm6.871 0h-3.539v3.54h3.54v-3.54zm6.873 0h-3.54v3.54h3.54v-3.54z" fill="#419DE0"/><path d="M64.205 70.974h-3.539v3.54h3.539v-3.54z" fill="#419DE0"/><path d="M67.641 70.974h-3.538v3.54h3.538v-3.54zm6.872 0h-3.54v3.54h3.54v-3.54z" fill="#419DE0"/><path d="M77.95 70.974h-3.54v3.54h3.54v-3.54z" fill="#419DE0"/><path d="M81.385 70.974h-3.54v3.54h3.54v-3.54z" fill="#419DE0"/><path d="M84.82 70.974h-3.539v3.54h3.54v-3.54z" fill="#419DE0"/><path d="M88.257 70.974h-3.54v3.54h3.54v-3.54zm6.871 0h-3.54v3.54h3.54v-3.54zM47.026 74.41h-3.539v3.539h3.54v-3.54z" fill="#419DE0"/><path d="M50.462 74.41h-3.54v3.539h3.54v-3.54zm20.615 0h-3.539v3.539h3.539v-3.54z" fill="#419DE0"/><path d="M74.513 74.41h-3.54v3.539h3.54v-3.54zm13.744 0h-3.54v3.539h3.54v-3.54z" fill="#419DE0"/><path d="M91.692 74.41h-3.539v3.539h3.54v-3.54zm-44.666 3.436h-3.539v3.539h3.54v-3.54zm6.871 0h-3.539v3.539h3.54v-3.54z" fill="#419DE0"/><path d="M57.334 77.846h-3.54v3.539h3.54v-3.54z" fill="#419DE0"/><path d="M60.77 77.846h-3.54v3.539h3.54v-3.54z" fill="#419DE0"/><path d="M64.205 77.846h-3.539v3.539h3.539v-3.54zm10.308 0h-3.54v3.539h3.54v-3.54zm6.872 0h-3.54v3.539h3.54v-3.54zm6.872 0h-3.54v3.539h3.54v-3.54zm6.871 0h-3.54v3.539h3.54v-3.54z" fill="#419DE0"/><path d="M98.564 77.846h-3.539v3.539h3.54v-3.54z" fill="#419DE0"/><path d="M102 77.846h-3.54v3.539H102v-3.54zm-51.538 3.436h-3.54v3.539h3.54v-3.54z" fill="#419DE0"/><path d="M53.897 81.282h-3.539v3.539h3.54v-3.54z" fill="#419DE0"/><path d="M57.334 81.282h-3.54v3.539h3.54v-3.54zm17.179 0h-3.54v3.539h3.54v-3.54zm13.744 0h-3.54v3.539h3.54v-3.54z" fill="#419DE0"/><path d="M91.692 81.282h-3.539v3.539h3.54v-3.54zm10.308 0h-3.54v3.539H102v-3.54zm-54.974 3.436h-3.539v3.538h3.54v-3.538zm10.308 0h-3.54v3.538h3.54v-3.538z" fill="#419DE0"/><path d="M60.77 84.718h-3.54v3.538h3.54v-3.538z" fill="#419DE0"/><path d="M64.205 84.718h-3.539v3.538h3.539v-3.538z" fill="#419DE0"/><path d="M67.641 84.718h-3.538v3.538h3.538v-3.538z" fill="#419DE0"/><path d="M71.077 84.718h-3.539v3.538h3.539v-3.538z" fill="#419DE0"/><path d="M74.513 84.718h-3.54v3.538h3.54v-3.538z" fill="#419DE0"/><path d="M77.95 84.718h-3.54v3.538h3.54v-3.538z" fill="#419DE0"/><path d="M81.385 84.718h-3.54v3.538h3.54v-3.538z" fill="#419DE0"/><path d="M84.82 84.718h-3.539v3.538h3.54v-3.538z" fill="#419DE0"/><path d="M88.257 84.718h-3.54v3.538h3.54v-3.538zm6.871 0h-3.54v3.538h3.54v-3.538zm-48.102 3.435h-3.539v3.54h3.54v-3.54z" fill="#419DE0"/><path d="M50.462 88.153h-3.54v3.54h3.54v-3.54z" fill="#419DE0"/><path d="M53.897 88.153h-3.539v3.54h3.54v-3.54zm6.873 0h-3.54v3.54h3.54v-3.54z" fill="#419DE0"/><path d="M64.205 88.153h-3.539v3.54h3.539v-3.54zm10.308 0h-3.54v3.54h3.54v-3.54z" fill="#419DE0"/><path d="M77.95 88.153h-3.54v3.54h3.54v-3.54z" fill="#419DE0"/><path d="M81.385 88.153h-3.54v3.54h3.54v-3.54zm6.872 0h-3.54v3.54h3.54v-3.54z" fill="#419DE0"/><path d="M91.692 88.153h-3.539v3.54h3.54v-3.54z" fill="#419DE0"/><path d="M95.128 88.153h-3.54v3.54h3.54v-3.54z" fill="#419DE0"/><path d="M98.564 88.153h-3.539v3.54h3.54v-3.54z" fill="#419DE0"/><path d="M102 88.153h-3.54v3.54H102v-3.54zM47.026 91.59h-3.539v3.538h3.54V91.59z" fill="#419DE0"/><path d="M50.462 91.59h-3.54v3.538h3.54V91.59z" fill="#419DE0"/><path d="M53.897 91.59h-3.539v3.538h3.54V91.59zm6.873 0h-3.54v3.538h3.54V91.59z" fill="#419DE0"/><path d="M64.205 91.59h-3.539v3.538h3.539V91.59z" fill="#419DE0"/><path d="M67.641 91.59h-3.538v3.538h3.538V91.59zm6.872 0h-3.54v3.538h3.54V91.59zm17.179 0h-3.539v3.538h3.54V91.59z" fill="#419DE0"/><path d="M95.128 91.59h-3.54v3.538h3.54V91.59zm6.872 0h-3.54v3.538H102V91.59zm-54.974 3.435h-3.539v3.54h3.54v-3.54zm20.615 0h-3.538v3.54h3.538v-3.54z" fill="#419DE0"/><path d="M71.077 95.025h-3.539v3.54h3.539v-3.54z" fill="#419DE0"/><path d="M74.513 95.025h-3.54v3.54h3.54v-3.54z" fill="#419DE0"/><path d="M77.95 95.025h-3.54v3.54h3.54v-3.54z" fill="#419DE0"/><path d="M81.385 95.025h-3.54v3.54h3.54v-3.54z" fill="#419DE0"/><path d="M84.82 95.025h-3.539v3.54h3.54v-3.54z" fill="#419DE0"/><path d="M88.257 95.025h-3.54v3.54h3.54v-3.54z" fill="#419DE0"/><path d="M91.692 95.025h-3.539v3.54h3.54v-3.54zm10.308 0h-3.54v3.54H102v-3.54zM47.026 98.46h-3.539V102h3.54v-3.54z" fill="#419DE0"/><path d="M50.462 98.46h-3.54V102h3.54v-3.54z" fill="#419DE0"/><path d="M53.897 98.46h-3.539V102h3.54v-3.54zm10.308 0h-3.539V102h3.539v-3.54z" fill="#419DE0"/><path d="M67.641 98.46h-3.538V102h3.538v-3.54z" fill="#419DE0"/><path d="M71.077 98.46h-3.539V102h3.539v-3.54zm6.873 0h-3.54V102h3.54v-3.54z" fill="#419DE0"/><path d="M81.385 98.46h-3.54V102h3.54v-3.54z" fill="#419DE0"/><path d="M84.82 98.46h-3.539V102h3.54v-3.54z" fill="#419DE0"/><path d="M88.257 98.46h-3.54V102h3.54v-3.54z" fill="#419DE0"/><path d="M91.692 98.46h-3.539V102h3.54v-3.54z" fill="#419DE0"/><path d="M95.128 98.46h-3.54V102h3.54v-3.54z" fill="#419DE0"/><path d="M98.564 98.46h-3.539V102h3.54v-3.54z" fill="#419DE0"/><path d="M102 98.46h-3.54V102H102v-3.54zM16 16v24.051h24.051V16H16zm20.615 20.615h-17.18v-17.18h17.18v17.18zM77.846 16v24.051h24.051V16H77.846zM98.46 36.615H81.28v-17.18h17.18v17.18zM16 77.846v24.051h24.051V77.846H16zM36.615 98.46h-17.18V81.28h17.18v17.18z" fill="#419DE0"/><path d="M33.18 22.872H22.872v10.307H33.18V22.872zm61.845 0H84.718v10.307h10.307V22.872zM33.18 84.718H22.872v10.307H33.18V84.717z" fill="#419DE0"/><path d="M17.12 144h1.424v-5.088h6.064V144h1.424v-11.52h-1.424v5.08h-6.064v-5.08H17.12V144zm13.612.24c1.44 0 2.507-.528 3.2-1.584V144h1.264v-5.344c0-.341-.016-.667-.048-.976a2.735 2.735 0 0 0-.232-.872 2.464 2.464 0 0 0-1.216-1.264c-.565-.283-1.237-.424-2.016-.424-.976 0-1.765.216-2.368.648-.597.432-.997 1.027-1.2 1.784l1.352.408c.155-.528.43-.912.824-1.152.395-.24.854-.36 1.376-.36.747 0 1.283.168 1.608.504.33.331.504.84.52 1.528l-2.016.288c-.698.096-1.32.216-1.864.36-.656.192-1.173.493-1.552.904-.378.405-.568.949-.568 1.632 0 .464.11.891.328 1.28.224.389.552.704.984.944.438.235.979.352 1.624.352zm.216-1.192c-.613 0-1.056-.141-1.328-.424-.272-.288-.408-.611-.408-.968 0-.405.134-.715.4-.928.272-.219.587-.384.944-.496.422-.117.912-.216 1.472-.296.56-.08 1.144-.16 1.752-.24 0 .197-.01.421-.032.672-.016.251-.053.48-.112.688-.101.533-.384 1-.848 1.4-.458.395-1.072.592-1.84.592zm6.32.952h1.424v-7.288h4.232V144h1.424v-8.64h-7.08V144zm16.393-8.64h-1.168l-4.536 6.28v-6.28H46.58V144h1.176l4.528-6.368V144h1.376v-8.64zm5.88 8.88c.89 0 1.654-.213 2.288-.64.635-.427 1.104-1.043 1.408-1.848l-1.44-.376c-.4 1.008-1.152 1.512-2.256 1.512-.858 0-1.506-.293-1.944-.88-.432-.587-.653-1.363-.664-2.328.01-.939.227-1.707.648-2.304.422-.603 1.075-.904 1.96-.904.523 0 .99.139 1.4.416.41.277.707.667.888 1.168l1.408-.424a3.27 3.27 0 0 0-1.336-1.84c-.656-.448-1.437-.672-2.344-.672-.864 0-1.605.195-2.224.584a3.736 3.736 0 0 0-1.408 1.6c-.325.683-.493 1.475-.504 2.376.01.88.176 1.664.496 2.352s.784 1.229 1.392 1.624c.614.389 1.358.584 2.232.584zm7.707 0c1.44 0 2.506-.528 3.2-1.584V144h1.264v-5.344c0-.341-.016-.667-.048-.976a2.735 2.735 0 0 0-.232-.872 2.464 2.464 0 0 0-1.216-1.264c-.566-.283-1.237-.424-2.016-.424-.976 0-1.766.216-2.368.648-.597.432-.997 1.027-1.2 1.784l1.352.408c.154-.528.43-.912.824-1.152.394-.24.853-.36 1.376-.36.746 0 1.282.168 1.608.504.33.331.504.84.52 1.528l-2.016.288c-.699.096-1.32.216-1.864.36-.656.192-1.174.493-1.552.904-.379.405-.568.949-.568 1.632 0 .464.11.891.328 1.28.224.389.552.704.984.944.437.235.979.352 1.624.352zm.216-1.192c-.614 0-1.056-.141-1.328-.424-.272-.288-.408-.611-.408-.968 0-.405.133-.715.4-.928.272-.219.587-.384.944-.496.421-.117.912-.216 1.472-.296.56-.08 1.144-.16 1.752-.24 0 .197-.01.421-.032.672-.016.251-.053.48-.112.688-.102.533-.384 1-.848 1.4-.459.395-1.072.592-1.84.592zm8.616.952h1.424v-7.344h3.008v-1.296h-7.44v1.296h3.008V144zm5.946 0h3.368c.246 0 .504-.005.776-.016.278-.016.523-.048.736-.096.624-.139 1.128-.427 1.512-.864.39-.437.584-1.029.584-1.776 0-.811-.208-1.424-.624-1.84-.41-.421-.95-.699-1.616-.832a4.891 4.891 0 0 0-.688-.072 17.7 17.7 0 0 0-.76-.016H83.45v-3.128h-1.432l.008 8.64zm1.424-1.176v-3.16h1.968c.155 0 .318.005.488.016.17.011.334.035.488.072.336.075.61.232.824.472.214.24.32.581.32 1.024 0 .437-.11.776-.328 1.016a1.574 1.574 0 0 1-.728.464 2.63 2.63 0 0 1-.536.08 9.556 9.556 0 0 1-.528.016H83.45zM20.088 171h1.424v-10.168h3.928v-1.352h-9.28v1.352h3.928V171zm9.088.24c.838 0 1.593-.208 2.265-.624.671-.421 1.178-1.013 1.52-1.776l-1.368-.472c-.497 1.013-1.323 1.52-2.48 1.52-.795 0-1.42-.243-1.872-.728-.448-.491-.702-1.184-.76-2.08h6.623c.043-1.024-.09-1.907-.4-2.648-.303-.741-.762-1.312-1.376-1.712-.607-.4-1.346-.6-2.215-.6-.838 0-1.569.189-2.192.568-.624.373-1.11.907-1.456 1.6-.342.688-.512 1.504-.512 2.448 0 .901.173 1.691.52 2.368a3.907 3.907 0 0 0 1.48 1.576c.634.373 1.375.56 2.224.56zm-.015-7.84c1.466 0 2.287.845 2.463 2.536h-5.12c.102-.821.377-1.448.824-1.88.448-.437 1.06-.656 1.832-.656zm5.885 7.6h1.424v-11.76h-1.424V171zm7.568.24c.837 0 1.592-.208 2.264-.624.672-.421 1.179-1.013 1.52-1.776l-1.368-.472c-.496 1.013-1.323 1.52-2.48 1.52-.795 0-1.419-.243-1.872-.728-.448-.491-.701-1.184-.76-2.08h6.624c.043-1.024-.09-1.907-.4-2.648-.304-.741-.763-1.312-1.376-1.712-.608-.4-1.347-.6-2.216-.6-.837 0-1.568.189-2.192.568-.624.373-1.11.907-1.456 1.6-.341.688-.512 1.504-.512 2.448 0 .901.173 1.691.52 2.368a3.907 3.907 0 0 0 1.48 1.576c.635.373 1.376.56 2.224.56zm-.016-7.84c1.467 0 2.288.845 2.464 2.536h-5.12c.101-.821.376-1.448.824-1.88.448-.437 1.059-.656 1.832-.656zm9.117 7.84a3.6 3.6 0 0 0 1.432-.272 3.268 3.268 0 0 0 1.104-.76v.832c.016 1.776-.792 2.664-2.424 2.664a2.72 2.72 0 0 1-1.216-.288 1.992 1.992 0 0 1-.904-.92l-1.304.688c.363.645.854 1.123 1.472 1.432a4.297 4.297 0 0 0 1.944.464c1.035 0 1.877-.221 2.528-.664.656-.437 1.067-1.115 1.232-2.032a4.25 4.25 0 0 0 .08-.648c.016-.213.024-.44.024-.68v-8.696H54.42v.968a3.302 3.302 0 0 0-1.152-.888c-.453-.213-.973-.32-1.56-.32-.8 0-1.488.2-2.064.6-.576.395-1.021.936-1.336 1.624-.31.688-.464 1.464-.464 2.328 0 .864.155 1.64.464 2.328.31.688.752 1.235 1.328 1.64.582.4 1.275.6 2.08.6zm.176-1.304c-.565 0-1.037-.144-1.416-.432-.373-.288-.653-.677-.84-1.168a4.697 4.697 0 0 1-.28-1.664c0-.608.09-1.157.272-1.648.187-.491.47-.88.848-1.168.384-.288.87-.432 1.456-.432.843 0 1.467.304 1.872.912.41.603.616 1.381.616 2.336 0 .949-.202 1.731-.608 2.344-.405.613-1.045.92-1.92.92zM57.917 171h1.432v-4.336c0-.512.07-1.005.208-1.48a2.12 2.12 0 0 1 .84-1.16c.299-.219.627-.347.984-.384.362-.037.693-.019.992.056v-1.336a3.159 3.159 0 0 0-1.264 0 2.605 2.605 0 0 0-1.184.528 2.536 2.536 0 0 0-.736.84v-1.368h-1.272V171zm8.143.24c1.44 0 2.507-.528 3.2-1.584V171h1.264v-5.344c0-.341-.016-.667-.048-.976a2.735 2.735 0 0 0-.232-.872 2.464 2.464 0 0 0-1.216-1.264c-.565-.283-1.237-.424-2.016-.424-.976 0-1.765.216-2.368.648-.597.432-.997 1.027-1.2 1.784l1.352.408c.155-.528.43-.912.824-1.152.395-.24.854-.36 1.376-.36.747 0 1.283.168 1.608.504.331.331.504.84.52 1.528l-2.016.288c-.698.096-1.32.216-1.864.36-.656.192-1.173.493-1.552.904-.378.405-.568.949-.568 1.632 0 .464.11.891.328 1.28.224.389.552.704.984.944.438.235.979.352 1.624.352zm.216-1.192c-.613 0-1.056-.141-1.328-.424-.272-.288-.408-.611-.408-.968 0-.405.134-.715.4-.928.272-.219.587-.384.944-.496.422-.117.912-.216 1.472-.296.56-.08 1.144-.16 1.752-.24 0 .197-.01.421-.032.672-.016.251-.053.48-.112.688-.101.533-.384 1-.848 1.4-.458.395-1.072.592-1.84.592zm6.32.952h1.432v-5.488c0-.635.171-1.144.512-1.528.347-.384.803-.576 1.368-.576.566 0 1.019.189 1.36.568.342.379.512.896.512 1.552L77.772 171h1.416l.008-5.488c0-.485.091-.883.272-1.192.182-.309.416-.539.704-.688.288-.149.592-.224.912-.224.544 0 .99.184 1.336.552.347.363.52.867.52 1.512L82.932 171h1.424l.008-5.84c0-.923-.258-1.656-.776-2.2-.517-.549-1.226-.824-2.128-.824-.57 0-1.085.128-1.544.384a2.718 2.718 0 0 0-1.072 1.04 2.496 2.496 0 0 0-1-1.048c-.432-.251-.938-.376-1.52-.376a3.19 3.19 0 0 0-1.416.312c-.421.203-.768.48-1.04.832v-.92h-1.272V171z" fill="#151515"/><circle cx="139.625" cy="153.625" r="27.375" fill="url(#a)"/><circle cx="139.25" cy="154" r="21.75" fill="#419DE0" opacity=".5" filter="url(#b)"/><path d="M154.262 137.326c.527-2.461-.879-3.428-2.461-2.812l-34.981 13.447c-2.373.967-2.285 2.285-.351 2.9l8.877 2.725 20.742-13.008c.967-.703 1.933-.264 1.142.352l-16.787 15.117-.615 9.228c.967 0 1.318-.351 1.846-.879l4.306-4.218 9.053 6.679c1.67.967 2.901.44 3.34-1.494l5.889-28.037z" fill="url(#c)" fill-opacity=".4" filter="url(#d)"/><defs><filter id="b" x="104" y="118.75" width="70.5" height="70.5" filterUnits="userSpaceOnUse" color-interpolation-filters="sRGB"><feFlood flood-opacity="0" result="BackgroundImageFix"/><feBlend in="SourceGraphic" in2="BackgroundImageFix" result="shape"/><feGaussianBlur stdDeviation="6.75" result="effect1_foregroundBlur_1112_28769"/></filter><filter id="d" x="100.811" y="120.262" width="67.615" height="61.199" filterUnits="userSpaceOnUse" color-interpolation-filters="sRGB"><feFlood flood-opacity="0" result="BackgroundImageFix"/><feGaussianBlur in="BackgroundImage" stdDeviation="6.818"/><feComposite in2="SourceAlpha" operator="in" result="effect1_backgroundBlur_1112_28769"/><feBlend in="SourceGraphic" in2="effect1_backgroundBlur_1112_28769" result="shape"/><feColorMatrix in="SourceAlpha" values="0 0 0 0 0 0 0 0 0 0 0 0 0 0 0 0 0 0 127 0" result="hardAlpha"/><feOffset dx="-6.818" dy="6.818"/><feGaussianBlur stdDeviation="3.409"/><feComposite in2="hardAlpha" operator="arithmetic" k2="-1" k3="1"/><feColorMatrix values="0 0 0 0 1 0 0 0 0 1 0 0 0 0 1 0 0 0 0.15 0"/><feBlend in2="shape" result="effect2_innerShadow_1112_28769"/><feColorMatrix in="SourceAlpha" values="0 0 0 0 0 0 0 0 0 0 0 0 0 0 0 0 0 0 127 0" result="hardAlpha"/><feOffset dy="-6.818"/><feGaussianBlur stdDeviation="3.409"/><feComposite in2="hardAlpha" operator="arithmetic" k2="-1" k3="1"/><feColorMatrix values="0 0 0 0 0.831818 0 0 0 0 0.939454 0 0 0 0 1 0 0 0 1 0"/><feBlend in2="effect2_innerShadow_1112_28769" result="effect3_innerShadow_1112_28769"/></filter><linearGradient id="a" x1="182.02" y1="111.992" x2="99.162" y2="115.204" gradientUnits="userSpaceOnUse"><stop stop-color="#46B7F6"/><stop offset="1" stop-color="#419DE0"/></linearGradient><radialGradient id="c" cx="0" cy="0" r="1" gradientUnits="userSpaceOnUse" gradientTransform="rotate(132.557 50.187 97.814) scale(61.3177 61.0966)"><stop stop-color="#fff"/><stop offset="1" stop-color="#F6F6F6"/></radialGradient></defs></svg>