<svg width="43" height="43" viewBox="0 0 43 43" fill="none" xmlns="http://www.w3.org/2000/svg"><g clip-path="url(#a)"><path fill-rule="evenodd" clip-rule="evenodd" d="M30.178 8.85c3.67.853 5.075 2.999 6.835 5.953h-6.834V8.85zM8.73 15.05c.719 0 1.24.348 1.24 1.158a1.24 1.24 0 0 1-1.236 1.24H1.24a1.24 1.24 0 0 0 0 2.48h11.162a1.24 1.24 0 1 1 .005 2.481H1.24a1.24 1.24 0 1 0 0 2.48h2.73v3.721c0 .685.555 1.24 1.24 1.24h2.493a4.756 4.756 0 0 0 9.318 0h12.592a4.756 4.756 0 0 0 9.318 0h2.162a1.24 1.24 0 0 0 1.24-1.24v-7.44c0-3.639-3.838-3.88-3.841-3.886h-9.553a1.24 1.24 0 0 1-1.24-1.24V8.602H5.208a1.24 1.24 0 0 0-1.24 1.24v2.728H2.48a1.24 1.24 0 1 0 0 2.48h6.25zm27.15 12.242a2.274 2.274 0 0 1 0 3.216c-1.428 1.428-3.881.412-3.881-1.608s2.453-3.036 3.88-1.608zm-21.91 0a2.274 2.274 0 0 1 0 3.216c-1.429 1.428-3.882.412-3.882-1.608s2.453-3.036 3.882-1.608z" fill="#56C16E"/></g><defs><clipPath id="a"><path fill="#fff" d="M0 0h42.333v42.333H0z"/></clipPath></defs></svg>