<svg width="46" height="46" viewBox="0 0 46 46" fill="none" xmlns="http://www.w3.org/2000/svg"><path d="M22.99 4.686c5.96 0 6.698 0 9.07.105 2.163.106 3.376.475 4.167.791 1.054.422 1.793.897 2.584 1.688.79.79 1.265 1.529 1.687 2.584.317.79.686 1.95.791 4.166.106 2.373.106 3.058.106 9.07 0 5.959 0 6.697-.106 9.07-.105 2.162-.474 3.375-.79 4.166-.423 1.055-.897 1.793-1.688 2.584-.791.791-1.53 1.266-2.584 1.688-.791.316-1.951.685-4.166.79-2.373.106-3.059.106-9.07.106-5.96 0-6.698 0-9.071-.105-2.162-.106-3.375-.475-4.166-.791-1.055-.422-1.793-.897-2.584-1.688-.791-.79-1.266-1.529-1.688-2.584-.316-.79-.685-1.95-.79-4.166-.106-2.373-.106-3.058-.106-9.07 0-5.96 0-6.697.105-9.07.106-2.162.475-3.375.791-4.166.422-1.055.897-1.793 1.688-2.584.791-.791 1.53-1.266 2.584-1.688.791-.316 1.951-.685 4.166-.791 2.373-.105 3.111-.105 9.07-.105zm0-4.061c-6.064 0-6.855 0-9.228.158-2.373.106-4.008.475-5.432 1.055-1.476.58-2.742 1.318-3.955 2.584C3.109 5.688 2.371 6.9 1.791 8.377c-.58 1.424-.95 3.059-1.055 5.432-.105 2.373-.158 3.164-.158 9.228 0 6.065 0 6.856.158 9.229.106 2.373.475 4.008 1.055 5.431.58 1.477 1.318 2.743 2.584 3.956 1.266 1.265 2.479 2.003 3.955 2.584 1.424.58 3.059.949 5.432 1.054 2.373.106 3.164.158 9.228.158 6.065 0 6.856 0 9.229-.158 2.373-.105 4.008-.474 5.431-1.054 1.477-.58 2.743-1.319 3.956-2.584 1.265-1.266 2.004-2.479 2.584-3.956.58-1.423.949-3.058 1.054-5.431.106-2.373.159-3.164.159-9.229 0-6.064 0-6.855-.159-9.228-.105-2.373-.474-4.008-1.054-5.432-.58-1.477-1.319-2.742-2.584-3.955-1.266-1.266-2.479-2.004-3.956-2.584-1.423-.58-3.058-.95-5.431-1.055C29.846.678 29.055.625 22.99.625z" fill="#fff"/><path d="M22.994 11.543c-6.38 0-11.496 5.168-11.496 11.496 0 6.381 5.168 11.496 11.496 11.496 6.381 0 11.496-5.168 11.496-11.496s-5.115-11.496-11.496-11.496zm0 18.984a7.483 7.483 0 0 1-7.488-7.488 7.45 7.45 0 0 1 7.488-7.488 7.45 7.45 0 0 1 7.489 7.488 7.483 7.483 0 0 1-7.489 7.488zm11.971-16.718a2.69 2.69 0 1 0 0-5.38 2.69 2.69 0 0 0 0 5.38z" fill="#fff"/></svg>