<svg width="16" height="16" viewBox="0 0 16 16" fill="none" xmlns="http://www.w3.org/2000/svg"><g clip-path="url(#a)" fill="#fff"><path d="M5.188 10.344h8.468c.21 0 .394-.139.45-.34l1.876-6.563a.468.468 0 0 0-.45-.597H4.104L3.77 1.336a.469.469 0 0 0-.458-.367H.47a.469.469 0 1 0 0 .937h2.467L4.63 9.523a1.407 1.407 0 0 0-.848 1.29c0 .775.631 1.406 1.406 1.406h8.47a.468.468 0 1 0 0-.938h-8.47a.47.47 0 0 1 0-.937zm-.469 3.281a1.407 1.407 0 1 0 2.81-.001 1.407 1.407 0 0 0-2.81.001zm6.594 0c0 .775.63 1.406 1.406 1.406.775 0 1.406-.63 1.406-1.406a1.407 1.407 0 0 0-2.812 0z"/></g><defs><clipPath id="a"><path fill="#fff" d="M0 0h16v16H0z"/></clipPath></defs></svg>