<svg width="16" height="16" viewBox="0 0 16 16" fill="none" xmlns="http://www.w3.org/2000/svg"><path d="M13.657 2.343a8.077 8.077 0 0 0-.245-.235.228.228 0 1 0-.309.335A7.495 7.495 0 0 1 15.544 8c0 2.015-.784 3.91-2.21 5.335A7.495 7.495 0 0 1 8 15.545a.313.313 0 0 1-.313-.313v-2.236h.626v1.673a.228.228 0 0 0 .246.227 6.91 6.91 0 0 0 4.333-2.004A6.873 6.873 0 0 0 14.918 8c0-1.848-.72-3.585-2.026-4.892A6.873 6.873 0 0 0 8 1.082c-1.848 0-3.585.72-4.892 2.026A6.873 6.873 0 0 0 1.082 8c0 1.848.72 3.585 2.026 4.892a6.916 6.916 0 0 0 2.983 1.761.313.313 0 0 1-.172.602 7.543 7.543 0 0 1-3.254-1.92A7.495 7.495 0 0 1 .455 8c0-2.015.785-3.91 2.21-5.335A7.495 7.495 0 0 1 8 .455a7.49 7.49 0 0 1 4.266 1.32.228.228 0 0 0 .258-.376A7.94 7.94 0 0 0 8 0a7.948 7.948 0 0 0-5.657 2.343A7.948 7.948 0 0 0 0 8c0 2.137.832 4.146 2.343 5.657a7.999 7.999 0 0 0 3.451 2.036.77.77 0 0 0 .422-1.478A6.46 6.46 0 0 1 3.43 12.57 6.421 6.421 0 0 1 1.537 8 6.42 6.42 0 0 1 3.43 3.43 6.42 6.42 0 0 1 8 1.537a6.42 6.42 0 0 1 4.57 1.893A6.42 6.42 0 0 1 14.463 8a6.42 6.42 0 0 1-1.893 4.57 6.458 6.458 0 0 1-3.801 1.848V12.89a.604.604 0 0 0 .262-.498c0-.07.048-.13.116-.149a2.945 2.945 0 0 0 2.181-2.842V7.716a.479.479 0 0 0 .365-.464V6.62a.479.479 0 0 0-.478-.479h-.304V3.59a.587.587 0 0 0-.587-.586h-.255a.587.587 0 0 0-.587.586v2.552H6.518V3.59a.587.587 0 0 0-.586-.586h-.256a.587.587 0 0 0-.586.586v2.552h-.305a.479.479 0 0 0-.478.479v.63a.48.48 0 0 0 .365.465v.785a.228.228 0 0 0 .455 0v-.77h5.746V9.4a2.489 2.489 0 0 1-1.843 2.402.61.61 0 0 0-.454.589c0 .07-.049.128-.114.144l-.008.002a.142.142 0 0 1-.027.003h-.854a.141.141 0 0 1-.027-.003l-.008-.002a.149.149 0 0 1-.114-.144.61.61 0 0 0-.454-.588 2.484 2.484 0 0 1-1.837-2.23.227.227 0 1 0-.454.031 2.939 2.939 0 0 0 2.174 2.638c.068.019.116.08.116.149 0 .206.104.389.263.498v2.341A.77.77 0 0 0 8 16a7.947 7.947 0 0 0 5.657-2.343A7.948 7.948 0 0 0 16 8a7.948 7.948 0 0 0-2.343-5.657zM9.937 3.59a.13.13 0 0 1 .132-.13h.255a.13.13 0 0 1 .131.13v2.552h-.517V3.59zm-4.392 0a.13.13 0 0 1 .13-.13h.256a.13.13 0 0 1 .131.13v2.552h-.517V3.59zm-.646 3.685h-.114a.023.023 0 0 1-.023-.023V6.62c0-.013.01-.023.023-.023h6.43c.012 0 .023.01.023.023v.63c0 .013-.01.024-.023.024H4.899z" fill="#000"/></svg>