<svg width="16" height="16" viewBox="0 0 16 16" fill="none" xmlns="http://www.w3.org/2000/svg"><path d="M15.25 14.263l-2.114-6.342a.253.253 0 0 0-.316-.159.253.253 0 0 0-.159.317l2.114 6.343a.81.81 0 0 1-.112.737.81.81 0 0 1-.664.34H2.001a.81.81 0 0 1-.664-.34.81.81 0 0 1-.113-.737l3.029-9.086a.817.817 0 0 1 .776-.56h5.941a.82.82 0 0 1 .777.56l.568 1.704a.25.25 0 1 0 .475-.158l-.568-1.704a1.318 1.318 0 0 0-1.252-.902H8.785v-.743a1.856 1.856 0 0 0 1.069-1.68A1.856 1.856 0 0 0 8 0a1.856 1.856 0 0 0-1.854 1.854c0 .742.438 1.383 1.069 1.679v.743H5.029c-.569 0-1.072.362-1.252.902L.75 14.263c-.136.408-.07.84.181 1.19.251.347.641.547 1.07.547H14c.43 0 .82-.2 1.07-.548.251-.348.317-.781.182-1.189zM8.285 4.276h-.568v-.59a1.862 1.862 0 0 0 .568 0v.59zM6.647 1.854C6.647 1.108 7.254.5 8 .5a1.355 1.355 0 0 1 0 2.707 1.354 1.354 0 0 1-1.353-1.353z" fill="#000"/><path d="M8 .802a1.053 1.053 0 0 0 0 2.104A1.053 1.053 0 0 0 8 .802zm0 1.603a.552.552 0 1 1 0-1.103.552.552 0 0 1 0 1.103zm0 3.474a4.264 4.264 0 0 0-4.26 4.259A4.264 4.264 0 0 0 8 14.397a4.264 4.264 0 0 0 4.258-4.26A4.264 4.264 0 0 0 7.999 5.88zm0 8.017a3.762 3.762 0 0 1-3.759-3.758A3.762 3.762 0 0 1 8 6.38a3.762 3.762 0 0 1 3.758 3.758A3.762 3.762 0 0 1 8 13.896z" fill="#000"/><path d="M7.626 11.282l-1.373-1.144 1.373-1.144a.25.25 0 1 0-.321-.385l-1.193.994v-.801a.25.25 0 0 0-.5 0v2.672a.25.25 0 1 0 .5 0v-.801l1.193.993a.253.253 0 0 0 .37-.055.253.253 0 0 0-.05-.33zm2.511-1.395h-.802a.25.25 0 1 0 0 .5h.552v.82c0 .008-.008.016-.017.016H8.8a.017.017 0 0 1-.017-.017V9.07c0-.01.008-.017.017-.017h1.336a.25.25 0 1 0 0-.501H8.801a.518.518 0 0 0-.518.518v2.137c0 .286.232.518.518.518H9.87a.518.518 0 0 0 .518-.518v-1.069a.25.25 0 0 0-.251-.25z" fill="#000"/></svg>