<svg width="12" height="12" viewBox="0 0 12 12" fill="none" xmlns="http://www.w3.org/2000/svg"><g clip-path="url(#a)" fill="#000"><path d="M0 6.875V11.5a.5.5 0 0 0 .5.5h4.625a.5.5 0 0 0 .5-.5V6.875a.5.5 0 0 0-.5-.5H.5a.5.5 0 0 0-.5.5zM5.125 0H.5a.5.5 0 0 0-.5.5v4.625a.5.5 0 0 0 .5.5h4.625a.5.5 0 0 0 .5-.5V.5a.5.5 0 0 0-.5-.5zm1.75 12H11.5a.5.5 0 0 0 .5-.5V6.875a.5.5 0 0 0-.5-.5H6.875a.5.5 0 0 0-.5.5V11.5a.5.5 0 0 0 .5.5zM11.5 0H6.875a.5.5 0 0 0-.5.5v4.625a.5.5 0 0 0 .5.5H11.5a.5.5 0 0 0 .5-.5V.5a.5.5 0 0 0-.5-.5z"/></g><defs><clipPath id="a"><path fill="#fff" d="M0 0h12v12H0z"/></clipPath></defs></svg>