<svg width="12" height="12" viewBox="0 0 12 12" fill="none" xmlns="http://www.w3.org/2000/svg"><g clip-path="url(#a)" fill="#000"><path d="M2.5 0h-2a.5.5 0 0 0-.5.5v2a.5.5 0 0 0 .5.5h2a.5.5 0 0 0 .5-.5v-2a.5.5 0 0 0-.5-.5zm9 0h-7a.5.5 0 0 0-.5.5v2a.5.5 0 0 0 .5.5h7a.5.5 0 0 0 .5-.5v-2a.5.5 0 0 0-.5-.5zm-9 4.5h-2A.5.5 0 0 0 0 5v2a.5.5 0 0 0 .5.5h2A.5.5 0 0 0 3 7V5a.5.5 0 0 0-.5-.5zm9 0h-7A.5.5 0 0 0 4 5v2a.5.5 0 0 0 .5.5h7A.5.5 0 0 0 12 7V5a.5.5 0 0 0-.5-.5zM2.5 9h-2a.5.5 0 0 0-.5.5v2a.5.5 0 0 0 .5.5h2a.5.5 0 0 0 .5-.5v-2a.5.5 0 0 0-.5-.5zm9 0h-7a.5.5 0 0 0-.5.5v2a.5.5 0 0 0 .5.5h7a.5.5 0 0 0 .5-.5v-2a.5.5 0 0 0-.5-.5z"/></g><defs><clipPath id="a"><path fill="#fff" d="M0 0h12v12H0z"/></clipPath></defs></svg>