<svg width="360" height="900" viewBox="0 0 360 900" fill="none" xmlns="http://www.w3.org/2000/svg"><mask id="a" style="mask-type:alpha" maskUnits="userSpaceOnUse" x="0" y="0" width="360" height="900"><path fill="#F1F3F2" stroke="#C4C4C4" d="M.5.5h359v899H.5z"/></mask><g mask="url(#a)"><path opacity=".3" d="M2252 1452.98c-367.74 133.83-1178.43-26.23-1161.72-740.467 16.71-714.234 772.04-210.868 670.7 28.246C1659.65 979.873 552.253 202.09 11.093 254.547c-432.928 41.966-395.944 486.212-258.045 639.548 96.193 106.965 349.69 108.395 473.258 30.294 172.377-108.95 156.707-283.471 0-392.42-41.982-29.188-219.807-205.794-856.663 0-636.853 205.793-621.253 576.691-533.843 736.421" stroke="#318959" stroke-dasharray="8 8"/></g></svg>