<svg width="67" height="67" viewBox="0 0 67 67" fill="none" xmlns="http://www.w3.org/2000/svg"><path d="M33.54 47.658a19 19 0 1 1-16.4-34.279 19 19 0 0 1 16.4 34.28zM18.003 15.184a17 17 0 1 0 14.672 30.669 17 17 0 0 0-14.672-30.67z" fill="#006CAE"/><path d="M48.443 39.42a1.001 1.001 0 0 1-.765.044l-5.335-1.882a1.003 1.003 0 1 1 .668-1.894l5.335 1.882a1 1 0 0 1 .097 1.85z" fill="#006CAE"/><path d="M63.2 46.77a3.85 3.85 0 0 1-2.95.159l-13.496-4.761a1 1 0 0 1-.609-1.272l1.906-5.402a1 1 0 0 1 1.272-.608l13.496 4.761a3.86 3.86 0 0 1 .382 7.123zm-14.857-6.194l12.55 4.427a1.87 1.87 0 0 0 1.241-3.52l-12.55-4.428-1.241 3.521zM37.498 25.81a1 1 0 0 1-1.334-.47 12 12 0 0 0-16.004-5.646 1 1 0 1 1-.863-1.804 14 14 0 0 1 18.671 6.587 1 1 0 0 1-.47 1.334z" fill="#006CAE"/></svg>