<svg width="48" height="61" viewBox="0 0 48 61" fill="none" xmlns="http://www.w3.org/2000/svg"><path d="M42.947 39.102H5.008V61h37.94V39.102z" fill="#699BBA"/><path d="M48 39.103H0L23.977 15.87 48 39.103z" fill="#699BBA"/><path d="M18.236 52.627s-13.23-13.524-3.583-33.996L37.252 0s-14.193 33.214-.138 43.38l-18.878 9.247z" fill="#fff"/><path d="M23.105 9.293c-11.53 20.471-4.41 34.64.505 40.16m6.523-38.596c-7.809 13.617-4.685 29.396 1.607 34.273" stroke="#699BBA" stroke-width="3" stroke-miterlimit="10"/><path d="M31.005 53.133l-.552.368-1.837-2.714 9.508-6.118-1.607-2.484-19.43 12.374 1.608 2.485 8.313-5.199 1.884 2.76-.552.368 3.4 5.015a1.626 1.626 0 0 0 2.296.414 1.631 1.631 0 0 0 .414-2.3l-3.445-4.969z" fill="#699BBA"/><path d="M35.896 40.727L16.848 53.245l1.638 2.5 19.048-12.517-1.638-2.5z" fill="#FFC8A3"/><path d="M29.443 48.033l-1.596 1.085 2.605 3.844 1.596-1.085-2.605-3.844z" fill="#FFC8A3"/><path d="M35.368 57.78l-.597.415c-.597.414-1.378.23-1.791-.322l-3.583-5.29 2.71-1.84 3.583 5.29c.413.552.23 1.38-.322 1.748z" fill="#FFC8A3"/><path d="M37.5 33a5.48 5.48 0 0 0 3.5 3.5 5.48 5.48 0 0 0-3.5 3.5 5.48 5.48 0 0 0-3.5-3.5 5.48 5.48 0 0 0 3.5-3.5zm-26 17a3.915 3.915 0 0 0 2.5 2.5 3.915 3.915 0 0 0-2.5 2.5A3.915 3.915 0 0 0 9 52.5c1.193-.455 2.102-1.364 2.5-2.5z" fill="#fff"/></svg>