<svg width="67" height="58" viewBox="0 0 67 58" fill="none" xmlns="http://www.w3.org/2000/svg"><g clip-path="url(#a)" fill="#fff"><path d="M58.758 49.305a.891.891 0 0 1-.88-.889v-.604a.89.89 0 0 1 .88-.888c.482 0 .881.403.881.888v.605c0 .497-.4.888-.88.888zm0 4.17a.891.891 0 0 1-.88-.889v-.604a.89.89 0 0 1 .88-.888.89.89 0 0 1 .881.888v.604c0 .498-.4.889-.88.889zm-1.773-2.382h-.6a.891.891 0 0 1-.88-.888c0-.486.4-.889.88-.889h.6c.481 0 .88.403.88.889a.884.884 0 0 1-.88.888zm4.135 0h-.6a.891.891 0 0 1-.88-.888.89.89 0 0 1 .88-.889h.6c.48 0 .88.403.88.889s-.4.888-.88.888zm-8.364 3.827a.861.861 0 0 0 .858-.865.861.861 0 0 0-.858-.865.861.861 0 0 0-.857.865c0 .478.384.865.857.865zM41.68 35.172a.892.892 0 0 1-.669-.308c-.105-.13-2.701-3.246-2.29-7.333a.883.883 0 0 1 .88-.794h1.046v-.201h-7.34a3.16 3.16 0 0 0-2.268.948l-.68.687h.034c1.55.213 2.772 1.587 3.407 2.961h1.409l.106-.722c0-.024.012-.048.012-.071a2 2 0 0 1 .833-1.209l.952-.722a.876.876 0 0 1 1.233.177.894.894 0 0 1-.176 1.244l-.975.735c-.012.012-.035.023-.047.035a.37.37 0 0 0-.106.13l-.223 1.422a.875.875 0 0 1-.869.746h-2.76a.887.887 0 0 1-.834-.604c-.352-1.066-1.269-2.25-2.208-2.37l-1.797-.248a.884.884 0 0 1-.717-.592.9.9 0 0 1 .212-.912l1.938-1.955a4.91 4.91 0 0 1 3.511-1.469h7.588c.834 0 1.515.687 1.515 1.528v.7c0 .84-.681 1.527-1.515 1.527h-.446c.047 2.95 1.89 5.177 1.914 5.2.317.38.27.937-.094 1.257a.85.85 0 0 1-.575.213z"/><path d="M35.82 35.361h-2.701a1.7 1.7 0 0 1-1.692-1.706v-.817a1.7 1.7 0 0 1 1.692-1.706h2.701a1.7 1.7 0 0 1 1.691 1.706v.817a1.7 1.7 0 0 1-1.691 1.706zm-2.62-1.777h2.55v-.663H33.2v.663z"/><path d="M41.023 58H29.818a2.104 2.104 0 0 1-2.09-2.11V43.192c0-.556.164-1.101.481-1.563.529-.77 1.785-2.843 2.102-5.343.06-.45.27-.888.6-1.208l1.256-1.244a.88.88 0 0 1 1.245.012.9.9 0 0 1-.011 1.255l-1.257 1.244a.327.327 0 0 0-.094.178c-.364 2.772-1.656 5.023-2.396 6.113a1.03 1.03 0 0 0-.165.556v12.712a.33.33 0 0 0 .33.331h11.204a.33.33 0 0 0 .33-.331v-11.99c0-.26-.107-.51-.294-.71-.423-.427-.8-.806-1.152-1.15-2.266-2.239-3.394-3.364-3.1-5.402.047-.284.023-.485-.047-.545l-1.163-.947a.89.89 0 0 1-.13-1.244.872.872 0 0 1 1.234-.13l1.163.947c.599.486.822 1.22.681 2.192-.165 1.09.411 1.706 2.596 3.874.352.355.74.734 1.163 1.16.516.534.81 1.22.81 1.967v11.989a2.1 2.1 0 0 1-2.09 2.084z"/><path d="M42.139 54.647h-7.752c-1.362 0-2.478-1.172-2.478-2.618V46.58c0-1.445 1.104-2.618 2.478-2.618h7.752a.89.89 0 0 1 .88.888.891.891 0 0 1-.88.889h-7.752c-.388 0-.717.379-.717.841v5.45c0 .461.318.84.717.84h7.752c.481 0 .88.403.88.889a.884.884 0 0 1-.88.888zm-17.242-6.089H9.428a.891.891 0 0 1-.88-.888V21.217c0-.486.399-.889.88-.889.482 0 .881.403.881.889V46.78h14.588c.481 0 .88.403.88.889a.89.89 0 0 1-.88.888z"/><path d="M7.76 23.302a.867.867 0 0 1-.622-.26l-1.88-1.896a.897.897 0 0 1 .047-1.303L23.37 4.028a.861.861 0 0 1 1.092-.048l10.125 7.464a.893.893 0 0 1 .187 1.243.875.875 0 0 1-1.233.19l-9.56-7.049L7.172 20.565l.634.64L23.37 7.795a.877.877 0 0 1 1.069-.06l6.706 4.55c.4.272.505.829.235 1.232a.88.88 0 0 1-1.221.237l-6.155-4.182-15.68 13.505a.748.748 0 0 1-.564.225z"/><path d="M56.538 12.984a.89.89 0 0 1-.575-.214L47.74 5.591H23.945a.891.891 0 0 1-.881-.888c0-.486.4-.889.88-.889h24.137c.212 0 .412.083.576.214l8.468 7.404a.9.9 0 0 1 .094 1.255.922.922 0 0 1-.68.297zM12 2.547a.891.891 0 0 1-.88-.889v-.77A.89.89 0 0 1 12 0a.89.89 0 0 1 .88.888v.77a.883.883 0 0 1-.88.889zm0 5.308a.891.891 0 0 1-.88-.889v-.77a.89.89 0 0 1 .88-.888.89.89 0 0 1 .88.888v.77a.89.89 0 0 1-.88.889zM9.757 4.81h-.764a.891.891 0 0 1-.88-.89.89.89 0 0 1 .88-.888h.764c.481 0 .88.403.88.889a.883.883 0 0 1-.88.888zm5.25 0h-.764a.891.891 0 0 1-.88-.89.89.89 0 0 1 .88-.888h.764c.481 0 .88.403.88.889a.883.883 0 0 1-.88.888zm-8.034 7.557c.603 0 1.092-.493 1.092-1.101 0-.609-.489-1.102-1.092-1.102-.603 0-1.092.493-1.092 1.102 0 .608.489 1.101 1.092 1.101zm10.395 35.825a.891.891 0 0 1-.881-.889V32.116c0-.486.4-.889.88-.889h8.868c.482 0 .881.403.881.889s-.399.889-.88.889h-7.987v14.298c0 .486-.4.889-.881.889zm28.858 1.574c-.13 0-.259-.011-.388-.023a.891.891 0 0 1-.763-.995.886.886 0 0 1 .986-.77 1.4 1.4 0 0 0 .846-.166l7.717-4.383a11.718 11.718 0 0 0 5.45-9.94V17.651c-7.518-1.789-12.592-3.388-13.825-3.78-1.174.415-5.849 1.991-13.848 3.792v4.549a.89.89 0 0 1-.88.888.891.891 0 0 1-.881-.888v-5.26c0-.415.293-.782.693-.865 9.455-2.097 14.552-3.969 14.599-3.98a.873.873 0 0 1 .576-.012c.058.023 5.672 1.895 14.634 3.992.4.095.681.45.681.865v16.537c0 4.692-2.349 8.968-6.283 11.456-.012.012-.024.012-.035.024l-7.74 4.395c-.47.26-1.01.402-1.54.402z"/><path d="M46.402 44.934a.853.853 0 0 1-.74-.415.887.887 0 0 1 .27-1.22l6.167-3.933a6.995 6.995 0 0 0 3.23-5.923V21.3l-9.068-2.44c-3.817 1.22-9.372 2.393-9.607 2.452a.875.875 0 0 1-1.046-.687.883.883 0 0 1 .681-1.054c.06-.012 5.955-1.268 9.679-2.476a.877.877 0 0 1 .493-.012l9.972 2.689c.387.107.657.45.657.853v12.83a8.767 8.767 0 0 1-4.052 7.427l-6.166 3.933a.988.988 0 0 1-.47.119z"/></g><defs><clipPath id="a"><path fill="#fff" transform="translate(5)" d="M0 0h57v58H0z"/></clipPath></defs></svg>