<svg width="67" height="58" viewBox="0 0 67 58" fill="none" xmlns="http://www.w3.org/2000/svg"><path d="M24.507 54.277H8.69c-2.13 0-3.908-1.672-4.042-3.819L2.668 22.6a1.015 1.015 0 0 1 .929-1.088 1.014 1.014 0 0 1 1.078.938l1.98 27.872a2.04 2.04 0 0 0 2.021 1.916h15.817c.553 0 1.01.462 1.01 1.02a.994.994 0 0 1-.996 1.019zm12.287-13.168h-.067a1.016 1.016 0 0 1-.93-1.088l1.253-17.57c.04-.558.526-.98 1.078-.939.553.041.97.53.93 1.088l-1.253 17.57c-.04.53-.485.939-1.01.939zm27.309 8.901H29.532c-.552 0-1.01-.463-1.01-1.02v-1.468c0-2.486 2.007-4.511 4.472-4.511h27.66c2.465 0 4.473 2.025 4.473 4.511v1.468a1.025 1.025 0 0 1-1.024 1.02zm-33.56-2.04h32.563v-.447c0-1.36-1.105-2.474-2.452-2.474h-27.66c-1.347 0-2.452 1.114-2.452 2.474v.448z" fill="#fff"/><path d="M65.99 58H27.645a.973.973 0 0 1-.795-.394 1.058 1.058 0 0 1-.189-.87l1.887-7.976a1.023 1.023 0 0 1 1.212-.761c.54.136.876.68.755 1.223l-1.59 6.727H64.71l-1.59-6.727a1.005 1.005 0 0 1 .754-1.223.996.996 0 0 1 1.213.76l1.886 7.978c.067.299 0 .625-.189.87a1.012 1.012 0 0 1-.795.394zM49.552 45.05h-4.729c-.552 0-1.01-.463-1.01-1.02V4.131c0-1.74 1.401-3.152 3.126-3.152h.498c1.725 0 3.126 1.413 3.126 3.152V44.03c0 .57-.458 1.02-1.01 1.02zm-3.732-2.04h2.709V4.132c0-.611-.499-1.114-1.105-1.114h-.499c-.606 0-1.105.503-1.105 1.114v38.88z" fill="#fff"/><path d="M32.752 54.372c-.054 0-.108 0-.162-.014a1.014 1.014 0 0 1-.835-1.168l.674-4.132a1.008 1.008 0 0 1 1.158-.842c.553.095.93.611.836 1.169l-.674 4.13c-.08.504-.512.857-.997.857zm4.769-.001h-.067a1.017 1.017 0 0 1-.943-1.087l.27-4.13c.04-.558.511-.993 1.077-.952.553.04.984.516.943 1.087l-.27 4.131c-.04.53-.484.951-1.01.951zm4.635.001c-.552 0-1.01-.462-1.01-1.02v-4.13c0-.558.458-1.02 1.01-1.02s1.01.462 1.01 1.02v4.13c0 .558-.444 1.02-1.01 1.02zm4.365 0c-.552 0-1.01-.462-1.01-1.02v-4.13c0-.558.458-1.02 1.01-1.02.553 0 1.01.462 1.01 1.02v4.13c0 .558-.444 1.02-1.01 1.02zm4.379 0c-.552 0-1.01-.462-1.01-1.02v-4.13c0-.558.458-1.02 1.01-1.02.553 0 1.01.462 1.01 1.02v4.13c0 .558-.457 1.02-1.01 1.02zm4.635-.001c-.526 0-.97-.407-1.011-.95l-.27-4.132a1.026 1.026 0 0 1 .944-1.087c.552-.04 1.037.394 1.078.951l.269 4.131c.04.558-.39 1.047-.943 1.087h-.067zm4.957.001c-.485 0-.916-.353-.997-.856l-.673-4.131a1.014 1.014 0 0 1 .835-1.17 1.008 1.008 0 0 1 1.159.843l.673 4.132a1.014 1.014 0 0 1-.835 1.168c-.054.014-.108.014-.162.014zM39.637 23.306H2.156C.97 23.306 0 22.327 0 21.132v-2.854c0-1.196.97-2.174 2.156-2.174h37.48c1.186 0 2.156.978 2.156 2.174v2.854c0 1.195-.97 2.174-2.155 2.174zm-37.481-5.15a.136.136 0 0 0-.135.135v2.854c0 .068.054.136.135.136h37.48a.136.136 0 0 0 .136-.136v-2.854a.136.136 0 0 0-.135-.136H2.156zM9.485 39.49c-.526 0-.97-.407-1.01-.95l-.728-11.185c-.04-.557.39-1.046.943-1.087.552-.04 1.037.394 1.078.951l.727 11.185c.04.557-.39 1.046-.943 1.087h-.067z" fill="#fff"/><path d="M36.7 17.979c-.553 0-1.01-.462-1.01-1.02 0-8.235-6.643-14.92-14.794-14.92-8.15 0-14.793 6.685-14.793 14.92 0 .558-.458 1.02-1.01 1.02-.553 0-1.01-.462-1.01-1.02C4.082 7.61 11.626 0 20.895 0c9.27 0 16.814 7.61 16.814 16.96 0 .557-.458 1.019-1.01 1.019z" fill="#fff"/></svg>