<svg width="76" height="79" viewBox="0 0 76 79" fill="none" xmlns="http://www.w3.org/2000/svg"><path d="M70.901 67.421a1.193 1.193 0 0 1-1.184-1.184v-.806c0-.648.537-1.185 1.184-1.185.648 0 1.184.537 1.184 1.185v.806c0 .647-.52 1.184-1.184 1.184zm0 5.545a1.193 1.193 0 0 1-1.184-1.185v-.805c0-.648.537-1.185 1.184-1.185.648 0 1.184.537 1.184 1.185v.805c0 .664-.52 1.185-1.184 1.185zm-2.368-3.176h-.805a1.193 1.193 0 0 1-1.184-1.184c0-.648.536-1.185 1.184-1.185h.805c.647 0 1.184.537 1.184 1.185 0 .647-.521 1.184-1.184 1.184zm5.557 0h-.805a1.193 1.193 0 0 1-1.184-1.184c0-.648.536-1.185 1.184-1.185h.805c.647 0 1.184.537 1.184 1.185 0 .647-.537 1.184-1.184 1.184zm-11.24 5.119a1.153 1.153 0 1 0-.002-2.306 1.153 1.153 0 0 0 .001 2.306zm-7.83-7.914c-.175 0-.348-.016-.522-.032a1.19 1.19 0 0 1-1.026-1.327 1.19 1.19 0 0 1 1.326-1.027c.395.047.79-.031 1.137-.221l10.372-5.845c4.578-2.89 7.325-7.835 7.325-13.253V24.17c-10.104-2.386-16.924-4.519-18.581-5.04-1.58.553-7.862 2.654-18.614 5.055v6.066c0 .648-.536 1.185-1.184 1.185a1.193 1.193 0 0 1-1.184-1.185v-7.014c0-.553.38-1.042.932-1.153 12.709-2.796 19.56-5.292 19.623-5.308.253-.095.521-.095.774-.015.079.031 7.625 2.527 19.67 5.323.538.126.917.6.917 1.153V45.29c0 6.255-3.158 11.958-8.447 15.275-.015.016-.031.016-.047.032l-10.404 5.86a4.248 4.248 0 0 1-2.068.538z" fill="#FF842F"/><path d="M55.255 60.55a1.15 1.15 0 0 1-.994-.553 1.177 1.177 0 0 1 .363-1.627l8.288-5.245a9.31 9.31 0 0 0 4.342-7.898V29.035l-12.188-3.254c-5.13 1.627-12.598 3.19-12.914 3.27a1.176 1.176 0 0 1-1.405-.916 1.177 1.177 0 0 1 .916-1.406c.079-.016 8.004-1.69 13.008-3.302a1.19 1.19 0 0 1 .663-.016l13.404 3.586c.52.142.884.6.884 1.138v17.107c0 4.044-2.037 7.741-5.447 9.905l-8.288 5.245c-.19.11-.41.158-.632.158z" fill="#FF842F"/><path d="M47.962 48.575c-.332 0-.663-.142-.9-.41-.142-.174-3.631-4.329-3.079-9.779.063-.6.569-1.058 1.184-1.058h1.405v-.269h-9.867a4.26 4.26 0 0 0-3.047 1.264l-.915.916h.047c2.084.285 3.726 2.117 4.578 3.95h1.895l.142-.964c0-.032.016-.064.016-.095a2.665 2.665 0 0 1 1.12-1.611l1.28-.964a1.184 1.184 0 1 1 1.42 1.896l-1.31.98c-.016.015-.047.03-.063.047a.493.493 0 0 0-.142.173l-.3 1.896a1.173 1.173 0 0 1-1.169.995h-3.71a1.19 1.19 0 0 1-1.12-.806c-.474-1.421-1.706-3.001-2.968-3.159l-2.416-.332a1.186 1.186 0 0 1-.963-.79c-.142-.426-.031-.9.284-1.216l2.605-2.606a6.626 6.626 0 0 1 4.72-1.96h10.2c1.12 0 2.036.917 2.036 2.039v.932a2.042 2.042 0 0 1-2.037 2.037h-.6c.063 3.902 2.542 6.904 2.574 6.935a1.182 1.182 0 0 1-.143 1.675 1.16 1.16 0 0 1-.757.284z" fill="#FF842F"/><path d="M40.084 48.812h-3.63a2.275 2.275 0 0 1-2.274-2.274v-1.09a2.275 2.275 0 0 1 2.273-2.275h3.631a2.275 2.275 0 0 1 2.273 2.275v1.09a2.275 2.275 0 0 1-2.273 2.274zm-3.52-2.37h3.425v-.884h-3.425v.885z" fill="#FF842F"/><path d="M47.078 79H32.017a2.817 2.817 0 0 1-2.81-2.812V59.254c0-.743.22-1.47.647-2.085.71-1.027 2.4-3.792 2.826-7.125.079-.6.363-1.185.805-1.611l1.69-1.659a1.19 1.19 0 0 1 1.673.016 1.192 1.192 0 0 1-.016 1.675l-1.69 1.658a.435.435 0 0 0-.126.237c-.49 3.697-2.226 6.698-3.22 8.151a1.364 1.364 0 0 0-.221.743v16.95c0 .237.19.442.442.442h15.06c.238 0 .443-.19.443-.442V60.217c0-.347-.142-.679-.395-.947a132.034 132.034 0 0 0-1.547-1.533c-3.047-2.985-4.563-4.486-4.168-7.203.063-.38.032-.648-.063-.727l-1.563-1.264a1.18 1.18 0 0 1 1.484-1.832l1.563 1.264c.805.648 1.105 1.627.916 2.922-.221 1.453.552 2.275 3.489 5.166.473.474.994.98 1.563 1.548a3.656 3.656 0 0 1 1.089 2.622V76.22c0 1.532-1.263 2.78-2.81 2.78z" fill="#FF842F"/><path d="M48.577 74.529h-10.42c-1.831 0-3.33-1.564-3.33-3.491V63.77c0-1.927 1.483-3.49 3.33-3.49h10.42c.647 0 1.184.536 1.184 1.184 0 .648-.537 1.185-1.184 1.185h-10.42c-.52 0-.963.505-.963 1.121v7.267c0 .616.426 1.121.963 1.121h10.42c.647 0 1.184.538 1.184 1.185 0 .648-.521 1.185-1.184 1.185zm-22.291-1.721H1.184A1.193 1.193 0 0 1 0 71.623V38.876c0-.648.537-1.185 1.184-1.185h9.488c.647 0 1.184.537 1.184 1.185s-.537 1.185-1.184 1.185H2.368v30.361h23.918a1.193 1.193 0 0 1 0 2.386z" fill="#FF842F"/><path d="M14.556 56.095a1.193 1.193 0 0 1-1.184-1.185V8.925H9.046v29.62c0 .647-.536 1.184-1.184 1.184a1.193 1.193 0 0 1-1.184-1.185V7.74c0-.647.537-1.184 1.184-1.184h6.694c.647 0 1.184.537 1.184 1.184v47.17c0 .648-.52 1.185-1.184 1.185z" fill="#FF842F"/><path d="M38.647 18.245a1.193 1.193 0 0 1-1.184-1.184V8.925H14.635A1.193 1.193 0 0 1 13.45 7.74c0-.647.537-1.184 1.184-1.184h24.012c.648 0 1.184.537 1.184 1.184v9.32c0 .664-.537 1.185-1.184 1.185z" fill="#FF842F"/><path d="M33.311 14.075H19.592a1.193 1.193 0 0 1-1.184-1.185c0-.648.537-1.185 1.184-1.185h13.72c.647 0 1.183.537 1.183 1.185 0 .647-.52 1.185-1.184 1.185zm0 4.802H19.592a1.193 1.193 0 0 1-1.184-1.184c0-.648.537-1.185 1.184-1.185h13.72c.647 0 1.183.537 1.183 1.185 0 .663-.52 1.184-1.184 1.184zm-5.778 4.819h-7.94a1.193 1.193 0 0 1-1.185-1.185c0-.648.537-1.185 1.184-1.185h7.941c.647 0 1.184.537 1.184 1.185s-.52 1.185-1.184 1.185zM10.072 46.348H6.015a1.193 1.193 0 0 1-1.184-1.185c0-.647.537-1.184 1.184-1.184h4.057c.648 0 1.185.537 1.185 1.184 0 .648-.521 1.185-1.185 1.185zm0 5.276H6.015a1.193 1.193 0 0 1-1.184-1.184c0-.648.537-1.185 1.184-1.185h4.057c.648 0 1.185.537 1.185 1.185 0 .647-.521 1.184-1.185 1.184zm0 5.276H6.015a1.193 1.193 0 0 1-1.184-1.185c0-.648.537-1.185 1.184-1.185h4.057c.648 0 1.185.537 1.185 1.185s-.521 1.185-1.185 1.185zm0 4.928H6.015a1.193 1.193 0 0 1-1.184-1.184c0-.648.537-1.185 1.184-1.185h4.057c.648 0 1.185.537 1.185 1.185 0 .663-.521 1.184-1.185 1.184zm17.461-33.331h-7.94a1.193 1.193 0 0 1-1.185-1.184c0-.648.537-1.185 1.184-1.185h7.941c.647 0 1.184.537 1.184 1.185 0 .647-.52 1.184-1.184 1.184zm0 4.803h-7.94a1.193 1.193 0 0 1-1.185-1.185c0-.647.537-1.184 1.184-1.184h7.941c.647 0 1.184.537 1.184 1.184 0 .648-.52 1.185-1.184 1.185zm0 12.67h-7.94a1.193 1.193 0 0 1-1.185-1.186c0-.647.537-1.184 1.184-1.184h7.941c.647 0 1.184.537 1.184 1.184 0 .648-.52 1.185-1.184 1.185zm0 5.37h-7.94a1.193 1.193 0 0 1-1.185-1.186c0-.647.537-1.184 1.184-1.184h7.941c.647 0 1.184.537 1.184 1.184 0 .648-.52 1.185-1.184 1.185zM19.83 72.65a1.193 1.193 0 0 1-1.185-1.186v-10.9c0-.647.537-1.184 1.184-1.184h6.457c.647 0 1.184.537 1.184 1.185 0 .647-.537 1.184-1.184 1.184h-5.273v9.715c0 .664-.537 1.185-1.184 1.185zm2.098-64.04a1.193 1.193 0 0 1-1.184-1.185v-4.66c0-.648.537-1.185 1.184-1.185.648 0 1.184.537 1.184 1.185v4.66c0 .663-.52 1.185-1.184 1.185zm4.262 0a1.193 1.193 0 0 1-1.183-1.185v-6.24C25.007.537 25.544 0 26.19 0c.647 0 1.184.537 1.184 1.185v6.24c0 .663-.537 1.184-1.184 1.184z" fill="#FF842F"/><path d="M34.275 8.894a1.193 1.193 0 0 1-1.185-1.185V5.07h-6.757a1.193 1.193 0 0 1-1.184-1.185c0-.648.537-1.185 1.184-1.185h7.942c.647 0 1.184.537 1.184 1.185v3.839a1.18 1.18 0 0 1-1.184 1.169z" fill="#FF842F"/></svg>