<svg width="21" height="33" viewBox="0 0 21 33" fill="none" xmlns="http://www.w3.org/2000/svg"><path d="M20.483 11.38A11.38 11.38 0 0 0 9.103 0H7.931l.035 1.138v2.924a7.345 7.345 0 1 0 1.137-.08V1.139a10.242 10.242 0 0 1 10.242 10.56 10.39 10.39 0 0 1-8.392 9.672 7.964 7.964 0 0 1-2.419.25h-.568v7.966h-6.26A1.707 1.707 0 0 0 0 31.293V33h17.069v-1.707a1.707 1.707 0 0 0-1.707-1.707H9.103V22.76a11.379 11.379 0 0 0 11.38-11.38zM7.47 5.575a6.259 6.259 0 0 1 0 11.607l-.33.136a6.337 6.337 0 0 1-2.072-1.138 7.397 7.397 0 0 0 0-9.558A6.338 6.338 0 0 1 7.14 5.484l.33.09zm-3.204 1.82a6.259 6.259 0 0 1 0 7.966 6.259 6.259 0 0 1 0-7.965zm11.095 3.983a6.259 6.259 0 0 1-6.259 6.259h-.04a7.397 7.397 0 0 0 0-12.517h.04a6.259 6.259 0 0 1 6.26 6.258zm0 19.345a.569.569 0 0 1 .569.57v.568H1.138v-.569a.569.569 0 0 1 .569-.569h13.655z" fill="#369CB7"/></svg>