<svg width="32" height="22" viewBox="0 0 32 22" fill="none" xmlns="http://www.w3.org/2000/svg"><path d="M5.137 21H26.37c.474 0 .86-.454.86-1.015V2.015c0-.56-.386-1.015-.86-1.015H5.137c-.474 0-.859.454-.859 1.014v17.971c0 .56.385 1.015.86 1.015z" stroke="gray" stroke-width="1.4" stroke-miterlimit="10" stroke-linecap="round" stroke-linejoin="round"/><path d="M2.105 21h27.299c.61 0 1.104-.318 1.104-.71V7.71c0-.392-.494-.71-1.104-.71h-27.3C1.495 7 1 7.318 1 7.71v12.58c0 .392.495.71 1.105.71z" fill="#fff" stroke="gray" stroke-width="1.4" stroke-miterlimit="10" stroke-linecap="round" stroke-linejoin="round"/><path d="M5.137 20H26.37c.474 0 .86-.114.86-.254v-4.492c0-.14-.386-.254-.86-.254H5.137c-.474 0-.859.114-.859.254v4.492c0 .14.385.254.86.254z" stroke="gray" stroke-width="1.4" stroke-miterlimit="10" stroke-linecap="round" stroke-linejoin="round"/><path stroke="gray" stroke-width="1.4" d="M2.093 13.3h26.229"/></svg>