<svg width="31" height="22" viewBox="0 0 31 22" fill="none" xmlns="http://www.w3.org/2000/svg"><path d="M22.074 12.737a.52.52 0 0 1 .198.18.477.477 0 0 1 .075.256v3.61a.473.473 0 0 1-.152.368.533.533 0 0 1-.38.15.562.562 0 0 1-.378-.15.495.495 0 0 1-.152-.367v-3.316l-2.869-1.502L16.2 15.15l-.006.007a.54.54 0 0 1-.195.154.577.577 0 0 1-.683-.154l-.006-.007-2.216-3.183-2.87 1.502v3.314a.473.473 0 0 1-.153.367l-.103-.108.103.108a.533.533 0 0 1-.378.149.562.562 0 0 1-.379-.149.497.497 0 0 1-.152-.368v-3.609c0-.09.026-.178.075-.255a.517.517 0 0 1 .197-.18l3.574-1.87a.562.562 0 0 1 .382-.05c.13.03.245.104.32.212l2.044 2.933 2.044-2.932 4.276 1.707zm0 0l-3.573-1.87 3.573 1.87zm-3.573-1.87a.562.562 0 0 0-.383-.049.53.53 0 0 0-.32.212l.703-.162zm-3.511-.447h1.528c.6-.001 1.178-.22 1.606-.611a2.02 2.02 0 0 0 .673-1.488V5.856c0-.56-.244-1.095-.673-1.487a2.387 2.387 0 0 0-1.606-.61h-1.527c-.6 0-1.178.218-1.607.61a2.021 2.021 0 0 0-.673 1.487v2.465c0 .56.245 1.095.673 1.488.428.391 1.006.61 1.607.61zm-1.217-4.563c0-.288.125-.567.352-.774.228-.209.539-.328.866-.328h1.527c.327 0 .638.12.866.328.226.207.351.486.352.774V8.32c0 .287-.126.566-.352.774a1.286 1.286 0 0 1-.866.327H14.99c-.327 0-.638-.12-.866-.327a1.051 1.051 0 0 1-.352-.774V5.857z" fill="gray" stroke="gray" stroke-width=".3"/><path d="M2.094 20.738h27.044c.605 0 1.095-.448 1.095-1.001V2c0-.553-.49-1.001-1.095-1.001H2.094C1.49 1 1 1.448 1 2.001v17.736c0 .553.49 1 1.094 1z" stroke="gray" stroke-width="1.4" stroke-miterlimit="10" stroke-linecap="round" stroke-linejoin="round"/></svg>