<svg width="920" height="285" viewBox="0 0 920 285" fill="none" xmlns="http://www.w3.org/2000/svg"><path d="M18.23 276.52h-2.285v6.338h-.932v-6.338h-2.28v-.772h5.497v.772zm2.618 6.435c-.716 0-1.3-.234-1.748-.703-.45-.472-.674-1.102-.674-1.889v-.166c0-.525.1-.992.298-1.402.201-.413.481-.736.84-.967a2.115 2.115 0 0 1 1.171-.351c.687 0 1.221.226 1.602.679.38.452.571 1.1.571 1.943v.376H19.33c.013.521.165.942.454 1.265.293.319.664.478 1.113.478.32 0 .59-.065.811-.195.221-.131.415-.303.581-.518l.552.43c-.443.68-1.107 1.02-1.992 1.02zm-.113-4.736a1.2 1.2 0 0 0-.918.4c-.247.264-.4.635-.459 1.114h2.647v-.069c-.026-.459-.15-.813-.371-1.064-.222-.254-.521-.381-.899-.381zm4.995 1.284l1.172-1.929h1.055l-1.729 2.613 1.783 2.671h-1.045l-1.22-1.978-1.222 1.978h-1.05l1.783-2.671-1.729-2.613h1.045l1.157 1.929zm4.415-3.208v1.279h.986v.699h-.986v3.276c0 .212.044.371.131.479.088.104.238.156.45.156.104 0 .247-.02.43-.059v.733a2.622 2.622 0 0 1-.694.097c-.404 0-.708-.122-.913-.366-.205-.244-.308-.591-.308-1.04v-3.276h-.962v-.699h.962v-1.279h.904zm210.085.225h-2.285v6.338h-.932v-6.338h-2.281v-.772h5.498v.772zm2.618 6.435c-.716 0-1.299-.234-1.748-.703-.45-.472-.674-1.102-.674-1.889v-.166c0-.525.099-.992.298-1.402a2.34 2.34 0 0 1 .839-.967 2.117 2.117 0 0 1 1.172-.351c.687 0 1.221.226 1.602.679.381.452.571 1.1.571 1.943v.376h-3.579c.013.521.164.942.454 1.265.293.319.664.478 1.113.478.319 0 .59-.065.811-.195.221-.131.415-.303.581-.518l.552.43c-.443.68-1.107 1.02-1.992 1.02zm-.113-4.736c-.364 0-.67.133-.918.4-.247.264-.4.635-.459 1.114h2.647v-.069c-.026-.459-.15-.813-.371-1.064-.222-.254-.521-.381-.899-.381zm4.995 1.284l1.172-1.929h1.055l-1.728 2.613 1.782 2.671h-1.045l-1.221-1.978-1.221 1.978h-1.049l1.782-2.671-1.729-2.613h1.045l1.157 1.929zm4.415-3.208v1.279h.986v.699h-.986v3.276c0 .212.043.371.131.479.088.104.238.156.45.156.104 0 .247-.02.429-.059v.733a2.613 2.613 0 0 1-.693.097c-.404 0-.708-.122-.913-.366-.205-.244-.308-.591-.308-1.04v-3.276h-.962v-.699h.962v-1.279h.904zm210.085.225h-2.285v6.338h-.932v-6.338h-2.281v-.772h5.498v.772zm2.618 6.435c-.716 0-1.299-.234-1.748-.703-.45-.472-.674-1.102-.674-1.889v-.166c0-.525.099-.992.298-1.402a2.34 2.34 0 0 1 .839-.967 2.117 2.117 0 0 1 1.172-.351c.687 0 1.221.226 1.602.679.381.452.571 1.1.571 1.943v.376h-3.579c.013.521.164.942.454 1.265.293.319.664.478 1.113.478.319 0 .59-.065.811-.195.221-.131.415-.303.581-.518l.552.43c-.443.68-1.107 1.02-1.992 1.02zm-.113-4.736c-.364 0-.67.133-.918.4-.247.264-.4.635-.459 1.114h2.647v-.069c-.026-.459-.15-.813-.371-1.064-.222-.254-.521-.381-.899-.381zm4.995 1.284l1.172-1.929h1.055l-1.728 2.613 1.782 2.671h-1.045l-1.221-1.978-1.221 1.978h-1.049l1.782-2.671-1.729-2.613h1.045l1.157 1.929zm4.415-3.208v1.279h.986v.699h-.986v3.276c0 .212.043.371.131.479.088.104.238.156.45.156.104 0 .247-.02.429-.059v.733a2.613 2.613 0 0 1-.693.097c-.404 0-.708-.122-.913-.366-.205-.244-.308-.591-.308-1.04v-3.276h-.962v-.699h.962v-1.279h.904zm210.085.225h-2.285v6.338h-.932v-6.338h-2.281v-.772h5.498v.772zm2.618 6.435c-.716 0-1.299-.234-1.748-.703-.45-.472-.674-1.102-.674-1.889v-.166c0-.525.099-.992.298-1.402a2.34 2.34 0 0 1 .839-.967 2.117 2.117 0 0 1 1.172-.351c.687 0 1.221.226 1.602.679.381.452.571 1.1.571 1.943v.376h-3.579c.013.521.164.942.454 1.265.293.319.664.478 1.113.478.319 0 .59-.065.811-.195.221-.131.415-.303.581-.518l.552.43c-.443.68-1.107 1.02-1.992 1.02zm-.113-4.736c-.364 0-.67.133-.918.4-.247.264-.4.635-.459 1.114h2.647v-.069c-.026-.459-.15-.813-.371-1.064-.222-.254-.521-.381-.899-.381zm4.995 1.284l1.172-1.929h1.055l-1.728 2.613 1.782 2.671h-1.045l-1.221-1.978-1.221 1.978h-1.049l1.782-2.671-1.729-2.613h1.045l1.157 1.929zm4.415-3.208v1.279h.986v.699h-.986v3.276c0 .212.043.371.131.479.088.104.238.156.45.156.104 0 .247-.02.429-.059v.733a2.613 2.613 0 0 1-.693.097c-.404 0-.708-.122-.913-.366-.205-.244-.308-.591-.308-1.04v-3.276h-.962v-.699h.962v-1.279h.904zm210.085.225h-2.285v6.338h-.932v-6.338h-2.281v-.772h5.498v.772zm2.618 6.435c-.716 0-1.299-.234-1.748-.703-.45-.472-.674-1.102-.674-1.889v-.166c0-.525.099-.992.298-1.402a2.34 2.34 0 0 1 .839-.967 2.117 2.117 0 0 1 1.172-.351c.687 0 1.221.226 1.602.679.381.452.571 1.1.571 1.943v.376h-3.579c.013.521.164.942.454 1.265.293.319.664.478 1.113.478.319 0 .59-.065.811-.195.221-.131.415-.303.581-.518l.552.43c-.443.68-1.107 1.02-1.992 1.02zm-.113-4.736c-.364 0-.67.133-.918.4-.247.264-.4.635-.459 1.114h2.647v-.069c-.026-.459-.15-.813-.371-1.064-.222-.254-.521-.381-.899-.381zm4.995 1.284l1.172-1.929h1.055l-1.728 2.613 1.782 2.671h-1.045l-1.221-1.978-1.221 1.978h-1.049l1.782-2.671-1.729-2.613h1.045l1.157 1.929zm4.415-3.208v1.279h.986v.699h-.986v3.276c0 .212.043.371.131.479.088.104.238.156.45.156.104 0 .247-.02.429-.059v.733a2.613 2.613 0 0 1-.693.097c-.404 0-.708-.122-.913-.366-.205-.244-.308-.591-.308-1.04v-3.276h-.962v-.699h.962v-1.279h.904zM4.822 4.875a2.2 2.2 0 0 1-.678.542 1.82 1.82 0 0 1-.86.205c-.41 0-.768-.1-1.074-.303a1.977 1.977 0 0 1-.703-.85 2.921 2.921 0 0 1-.25-1.215c0-.475.09-.903.27-1.284.182-.381.439-.672.77-.874.333-.202.72-.303 1.163-.303.703 0 1.256.264 1.66.791.407.524.61 1.24.61 2.148v.264c0 1.384-.273 2.394-.82 3.032-.547.635-1.372.96-2.475.977h-.176v-.762h.19c.746-.013 1.319-.207 1.719-.58.4-.378.618-.974.654-1.788zm-1.391 0c.302 0 .58-.093.835-.278.257-.186.444-.415.561-.689v-.361c0-.593-.128-1.074-.386-1.445-.257-.372-.582-.557-.976-.557-.397 0-.716.153-.957.459-.241.303-.362.703-.362 1.201 0 .485.116.885.347 1.201.235.313.547.469.938.469zm8.003.093c0 1.058-.181 1.844-.542 2.358-.362.514-.927.772-1.695.772-.758 0-1.32-.251-1.684-.752-.365-.505-.554-1.257-.567-2.256V3.884c0-1.045.181-1.821.542-2.33.362-.507.928-.761 1.7-.761.764 0 1.328.246 1.689.737.361.489.547 1.244.557 2.266v1.172zm-.904-1.236c0-.765-.107-1.321-.322-1.67-.215-.351-.555-.527-1.02-.527-.463 0-.8.174-1.011.523-.212.348-.32.883-.327 1.606V5.11c0 .769.11 1.337.332 1.704.224.365.563.547 1.015.547.446 0 .777-.172.992-.517.218-.345.332-.889.341-1.631v-1.48zM5.672 31.145c0 .355-.095.67-.283.947a1.892 1.892 0 0 1-.757.65c.37.159.664.392.879.698.218.306.327.652.327 1.04 0 .615-.208 1.105-.625 1.47-.414.364-.959.546-1.636.546-.683 0-1.232-.182-1.645-.547-.41-.367-.616-.857-.616-1.47 0-.383.105-.73.313-1.04.211-.309.503-.543.874-.703a1.864 1.864 0 0 1-.747-.649 1.674 1.674 0 0 1-.274-.942c0-.6.192-1.075.577-1.426.384-.352.89-.527 1.518-.527.625 0 1.13.175 1.514.527.387.351.58.827.58 1.426zm-.737 3.315c0-.397-.127-.72-.381-.972-.25-.25-.58-.376-.987-.376-.407 0-.734.124-.981.371-.244.248-.366.573-.366.977s.119.721.356.952c.241.231.575.347 1.001.347.423 0 .755-.116.996-.347.241-.234.362-.551.362-.952zm-1.358-4.526c-.355 0-.643.11-.864.332-.218.218-.327.516-.327.893 0 .362.107.655.322.88.218.22.508.331.87.331.36 0 .649-.11.863-.332.219-.224.328-.517.328-.879 0-.361-.113-.656-.337-.883a1.149 1.149 0 0 0-.855-.342zm7.857 3.432c0 1.058-.181 1.844-.542 2.359-.362.514-.927.771-1.695.771-.758 0-1.32-.25-1.684-.752-.365-.504-.554-1.256-.567-2.256v-1.206c0-1.045.181-1.82.542-2.329.362-.508.928-.761 1.7-.761.764 0 1.328.245 1.689.737.361.488.547 1.243.557 2.265v1.172zm-.904-1.235c0-.765-.107-1.322-.322-1.67-.215-.351-.555-.527-1.02-.527-.463 0-.8.174-1.011.522-.212.349-.32.884-.327 1.607v1.445c0 .768.11 1.336.332 1.704.224.365.563.547 1.015.547.446 0 .777-.173.992-.518.218-.345.332-.888.341-1.63v-1.48zM5.95 58.196l-2.944 6.601h-.947l2.934-6.367H1.146v-.742H5.95v.508zm5.484 3.569c0 1.058-.181 1.844-.542 2.358-.362.515-.927.772-1.695.772-.758 0-1.32-.25-1.684-.752-.365-.505-.554-1.257-.567-2.256v-1.206c0-1.045.181-1.821.542-2.33.362-.507.928-.76 1.7-.76.764 0 1.328.245 1.689.736.361.489.547 1.244.557 2.266v1.172zm-.904-1.236c0-.764-.107-1.321-.322-1.67-.215-.35-.555-.527-1.02-.527-.463 0-.8.174-1.011.523-.212.348-.32.884-.327 1.606v1.446c0 .768.11 1.336.332 1.704.224.364.563.547 1.015.547.446 0 .777-.173.992-.518.218-.345.332-.889.341-1.631v-1.48zM4.905 87.096v.766H4.74c-.703.013-1.263.222-1.68.625-.416.404-.657.972-.722 1.704.374-.43.885-.644 1.533-.644.619 0 1.112.218 1.48.654.37.436.556 1 .556 1.69 0 .732-.2 1.318-.6 1.757-.397.44-.931.66-1.602.66-.68 0-1.232-.26-1.655-.782-.423-.524-.635-1.197-.635-2.021v-.347c0-1.308.278-2.308.835-2.998.56-.693 1.392-1.048 2.495-1.064h.161zM3.72 90.299c-.31 0-.594.093-.855.278a1.45 1.45 0 0 0-.542.698v.332c0 .586.132 1.058.396 1.416.263.359.592.538.986.538.407 0 .726-.15.957-.45.235-.3.352-.691.352-1.176 0-.489-.12-.883-.357-1.182a1.126 1.126 0 0 0-.937-.454zm7.715.879c0 1.058-.181 1.844-.542 2.358-.362.514-.927.772-1.695.772-.758 0-1.32-.251-1.684-.752-.365-.505-.554-1.257-.567-2.256v-1.206c0-1.045.181-1.822.542-2.33.362-.507.928-.761 1.7-.761.764 0 1.328.246 1.689.737.361.489.547 1.244.557 2.266v1.172zm-.904-1.236c0-.765-.107-1.321-.322-1.67-.215-.351-.555-.527-1.02-.527-.463 0-.8.174-1.011.523-.212.348-.32.883-.327 1.606v1.445c0 .769.11 1.337.332 1.704.224.365.563.547 1.015.547.446 0 .777-.172.992-.517.218-.345.332-.889.341-1.631v-1.48zm-8.756 29.102l.362-3.545h3.642v.835H2.903l-.215 1.939a2.295 2.295 0 0 1 1.187-.308c.648 0 1.162.215 1.543.644.38.427.571 1.005.571 1.734 0 .732-.198 1.31-.595 1.733-.394.42-.946.63-1.656.63-.628 0-1.14-.174-1.538-.522-.397-.349-.623-.83-.679-1.446h.855c.055.407.2.715.435.923.234.205.543.308.927.308.42 0 .749-.143.987-.43.24-.286.36-.682.36-1.186 0-.476-.13-.856-.39-1.143-.257-.29-.6-.434-1.03-.434-.394 0-.703.086-.928.258l-.239.196-.723-.186zm9.659.532c0 1.058-.181 1.844-.542 2.359-.362.514-.927.771-1.695.771-.758 0-1.32-.25-1.684-.752-.365-.504-.554-1.256-.567-2.256v-1.206c0-1.045.181-1.821.542-2.329.362-.508.928-.762 1.7-.762.764 0 1.328.246 1.689.738.361.488.547 1.243.557 2.265v1.172zm-.904-1.235c0-.765-.107-1.322-.322-1.67-.215-.352-.555-.527-1.02-.527-.463 0-.8.174-1.011.522-.212.348-.32.884-.327 1.607v1.445c0 .768.11 1.336.332 1.704.224.365.563.547 1.015.547.446 0 .777-.173.992-.518.218-.345.332-.888.341-1.631v-1.479zm-5.356 31.293h.986v.737h-.986v1.65h-.908v-1.65H1.028v-.532l3.184-4.927h.962v4.722zm-3.12 0h2.212v-3.487l-.108.196-2.104 3.291zm9.38-.645c0 1.058-.181 1.844-.542 2.359-.362.514-.927.771-1.695.771-.758 0-1.32-.251-1.684-.752-.365-.504-.554-1.256-.567-2.256v-1.206c0-1.045.181-1.821.542-2.329.362-.508.928-.762 1.7-.762.764 0 1.328.246 1.689.738.361.488.547 1.243.557 2.265v1.172zm-.904-1.235c0-.765-.107-1.322-.322-1.67-.215-.352-.555-.527-1.02-.527-.463 0-.8.174-1.011.522-.212.348-.32.884-.327 1.606v1.446c0 .768.11 1.336.332 1.704.224.364.563.547 1.015.547.446 0 .777-.173.992-.518.218-.345.332-.889.341-1.631v-1.479zm-7.856 28.672h.679c.426-.007.761-.119 1.005-.337.245-.218.367-.513.367-.884 0-.833-.415-1.25-1.246-1.25-.39 0-.703.112-.937.337-.231.221-.347.516-.347.884h-.903c0-.563.205-1.03.615-1.402.414-.374.938-.561 1.572-.561.671 0 1.197.177 1.578.532.38.355.57.848.57 1.48 0 .309-.1.608-.302.898a1.79 1.79 0 0 1-.815.649c.39.124.692.329.903.616.215.286.322.636.322 1.05 0 .638-.208 1.144-.625 1.518-.416.374-.958.562-1.626.562-.667 0-1.21-.181-1.63-.542-.417-.362-.625-.839-.625-1.431h.908c0 .374.122.674.366.898.244.225.571.337.981.337.437 0 .77-.114 1.001-.342.231-.227.347-.555.347-.981 0-.413-.127-.731-.38-.952-.255-.221-.621-.335-1.1-.342h-.678v-.737zm8.76.962c0 1.058-.181 1.844-.542 2.358-.362.514-.927.772-1.695.772-.758 0-1.32-.251-1.684-.752-.365-.505-.554-1.257-.567-2.256v-1.206c0-1.045.181-1.822.542-2.329.362-.508.928-.762 1.7-.762.764 0 1.328.246 1.689.737.361.488.547 1.244.557 2.266v1.172zm-.904-1.236c0-.765-.107-1.321-.322-1.67-.215-.351-.555-.527-1.02-.527-.463 0-.8.174-1.011.523-.212.348-.32.883-.327 1.606v1.445c0 .769.11 1.337.332 1.704.224.365.563.547 1.015.547.446 0 .777-.172.992-.517.218-.345.332-.889.341-1.631v-1.48zm-4.511 33.681H1.36v-.65l2.461-2.734c.365-.413.616-.749.752-1.006.14-.26.21-.529.21-.806 0-.371-.112-.675-.337-.913-.224-.237-.524-.356-.898-.356-.45 0-.8.129-1.05.386-.247.254-.371.608-.371 1.064h-.903c0-.654.21-1.183.63-1.587.423-.403.987-.605 1.694-.605.66 0 1.183.174 1.567.522.384.345.576.806.576 1.382 0 .7-.446 1.533-1.337 2.5l-1.905 2.065h3.57v.738zm5.415-3.032c0 1.057-.181 1.844-.542 2.358-.362.514-.927.771-1.695.771-.758 0-1.32-.25-1.684-.752-.365-.504-.554-1.256-.567-2.255v-1.206c0-1.045.181-1.822.542-2.33.362-.507.928-.761 1.7-.761.764 0 1.328.246 1.689.737.361.488.547 1.244.557 2.266v1.172zm-.904-1.236c0-.765-.107-1.321-.322-1.67-.215-.351-.555-.527-1.02-.527-.463 0-.8.174-1.011.522-.212.349-.32.884-.327 1.607v1.445c0 .768.11 1.336.332 1.704.224.365.563.547 1.015.547.446 0 .777-.172.992-.517.218-.346.332-.889.341-1.631v-1.48zm-6.2 32.666h-.91v-6.02l-1.82.669v-.82l2.587-.972h.142v7.143zm7.104-3.032c0 1.058-.181 1.844-.542 2.359-.362.514-.927.771-1.695.771-.758 0-1.32-.251-1.684-.752-.365-.504-.554-1.256-.567-2.256v-1.206c0-1.045.181-1.821.542-2.329.362-.508.928-.762 1.7-.762.764 0 1.328.246 1.689.738.361.488.547 1.243.557 2.265v1.172zm-.904-1.235c0-.765-.107-1.322-.322-1.67-.215-.352-.555-.527-1.02-.527-.463 0-.8.174-1.011.522-.212.348-.32.884-.327 1.607v1.445c0 .768.11 1.336.332 1.704.224.365.563.547 1.015.547.446 0 .777-.173.992-.518.218-.345.332-.888.341-1.631v-1.479zm.904 30.648c0 1.058-.181 1.844-.542 2.358-.362.515-.927.772-1.695.772-.758 0-1.32-.251-1.684-.752-.365-.505-.554-1.257-.567-2.256v-1.206c0-1.045.181-1.821.542-2.329.362-.508.928-.762 1.7-.762.764 0 1.328.246 1.689.737.361.489.547 1.244.557 2.266v1.172zm-.904-1.236c0-.765-.107-1.321-.322-1.669-.215-.352-.555-.528-1.02-.528-.463 0-.8.174-1.011.523-.212.348-.32.883-.327 1.606v1.445c0 .769.11 1.337.332 1.705.224.364.563.546 1.015.546.446 0 .777-.172.992-.517.218-.345.332-.889.341-1.631v-1.48z" fill="#A3A3A3"/><path d="M22 264.715V5.071m222 259.644V5.071m222 259.644V5.071m222 259.644V5.071m222 259.644V5.071m-888 0h888M22 33.47h888M22 61.868h888M22 91.281h888M22 119.68h888M22 149.093h888M22 177.491h888M22 206.904h888M22 235.302h888M22 264.715h888" stroke="#F0F0F0"/><path d="M22 244.431s111-220.09 222-220.09 111 199.805 222 199.805 111-32.456 222-32.456 222 69.983 222 69.983" stroke="#FF5F5F" stroke-width="2"/><path d="M18 244.521a4.08 4.08 0 0 0 1.172 2.868A3.972 3.972 0 0 0 22 248.578c1.06 0 2.078-.428 2.828-1.189A4.083 4.083 0 0 0 26 244.521a4.087 4.087 0 0 0-1.172-2.869A3.97 3.97 0 0 0 22 240.464a3.97 3.97 0 0 0-2.828 1.188A4.087 4.087 0 0 0 18 244.521zM240 25.266a4.08 4.08 0 0 0 1.172 2.868A3.97 3.97 0 0 0 244 29.323a3.97 3.97 0 0 0 2.828-1.189A4.083 4.083 0 0 0 248 25.266a4.083 4.083 0 0 0-1.172-2.869A3.97 3.97 0 0 0 244 21.209a3.97 3.97 0 0 0-2.828 1.188A4.083 4.083 0 0 0 240 25.266zm222 199.06c0 1.076.421 2.108 1.172 2.869a3.97 3.97 0 0 0 2.828 1.188 3.97 3.97 0 0 0 2.828-1.188 4.084 4.084 0 0 0 1.172-2.869 4.08 4.08 0 0 0-1.172-2.868 3.97 3.97 0 0 0-2.828-1.189 3.97 3.97 0 0 0-2.828 1.189 4.08 4.08 0 0 0-1.172 2.868zm222-31.734c0 1.076.421 2.108 1.172 2.869a3.973 3.973 0 0 0 2.828 1.188 3.973 3.973 0 0 0 2.828-1.188 4.084 4.084 0 0 0 1.172-2.869 4.084 4.084 0 0 0-1.172-2.869 3.97 3.97 0 0 0-2.828-1.188 3.97 3.97 0 0 0-2.828 1.188 4.084 4.084 0 0 0-1.172 2.869zm222 69.238c0 1.076.421 2.108 1.172 2.869a3.97 3.97 0 0 0 2.828 1.188 3.97 3.97 0 0 0 2.828-1.188A4.084 4.084 0 0 0 914 261.83a4.082 4.082 0 0 0-1.172-2.868 3.97 3.97 0 0 0-2.828-1.189 3.97 3.97 0 0 0-2.828 1.189A4.082 4.082 0 0 0 906 261.83z" fill="#78A1CB"/></svg>