<svg width="139" height="41" viewBox="0 0 139 41" fill="none" xmlns="http://www.w3.org/2000/svg"><path d="M133.668 40.311H5.141c-2.826 0-5.141-2.26-5.141-5.02V5.176C0 2.415 2.315.155 5.141.155h128.527c2.826 0 5.141 2.26 5.141 5.02v30.117c0 2.759-2.315 5.019-5.141 5.019z" fill="#000"/><path d="M133.668.96c2.38 0 4.317 1.89 4.317 4.215v30.117c0 2.324-1.937 4.215-4.317 4.215H5.141c-2.38 0-4.317-1.891-4.317-4.215V5.175C.824 2.85 2.76.96 5.14.96h128.527zm0-.805H5.141C2.315.155 0 2.415 0 5.175v30.117c0 2.759 2.315 5.019 5.141 5.019h128.527c2.826 0 5.141-2.26 5.141-5.02V5.176c0-2.76-2.315-5.02-5.141-5.02z" fill="#A6A6A6"/><path d="M48.755 10.439c0 .838-.257 1.51-.763 2.01-.582.594-1.34.893-2.27.893-.888 0-1.646-.304-2.268-.903-.624-.607-.935-1.353-.935-2.245 0-.892.311-1.637.935-2.24.622-.603 1.38-.907 2.268-.907.442 0 .864.09 1.266.255.401.167.728.393.964.671l-.537.53c-.413-.476-.974-.71-1.693-.71-.648 0-1.21.22-1.686.666-.472.447-.708 1.025-.708 1.735 0 .71.236 1.294.708 1.74a2.406 2.406 0 0 0 1.686.667c.688 0 1.266-.226 1.722-.671.301-.295.472-.702.517-1.221h-2.239v-.726h2.987c.036.157.046.31.046.456zm4.739-2.515H50.69v1.908h2.529v.725h-2.53v1.907h2.806v.74h-3.6V7.185h3.6v.74zm3.344 5.28h-.794v-5.28h-1.721v-.739h4.237v.74h-1.722v5.279zm4.789 0V7.185h.793v6.019h-.793zm4.308 0h-.787v-5.28H63.42v-.739h4.243v.74h-1.728v5.279zm9.751-.774c-.608.608-1.361.912-2.26.912-.903 0-1.657-.304-2.264-.913-.607-.607-.91-1.353-.91-2.235 0-.882.303-1.627.91-2.235.607-.608 1.36-.912 2.264-.912.894 0 1.647.304 2.255.917.611.613.913 1.353.913 2.23 0 .882-.302 1.628-.908 2.235zm-3.937-.505c.458.45 1.014.676 1.677.676.658 0 1.22-.226 1.672-.676.457-.45.688-1.03.688-1.73 0-.702-.231-1.28-.688-1.731-.452-.45-1.014-.677-1.672-.677-.663 0-1.22.226-1.677.677-.456.45-.688 1.029-.688 1.73 0 .702.232 1.28.688 1.73zm5.96 1.279V7.185h.963l2.998 4.68h.034l-.034-1.156V7.185h.793v6.019h-.828l-3.139-4.912h-.034l.034 1.162v3.75h-.787z" fill="#fff" stroke="#fff" stroke-width=".16" stroke-miterlimit="10"/><path d="M70.058 21.993c-2.416 0-4.388 1.794-4.388 4.27 0 2.456 1.972 4.269 4.388 4.269 2.42 0 4.392-1.813 4.392-4.27 0-2.475-1.972-4.27-4.392-4.27zm0 6.857c-1.326 0-2.466-1.068-2.466-2.587 0-1.54 1.14-2.589 2.466-2.589 1.325 0 2.47 1.05 2.47 2.589 0 1.52-1.145 2.587-2.47 2.587zm-9.575-6.857c-2.42 0-4.387 1.794-4.387 4.27 0 2.456 1.967 4.269 4.388 4.269 2.418 0 4.387-1.813 4.387-4.27 0-2.475-1.969-4.27-4.387-4.27zm0 6.857c-1.326 0-2.47-1.068-2.47-2.587 0-1.54 1.144-2.589 2.47-2.589 1.326 0 2.466 1.05 2.466 2.589 0 1.52-1.14 2.587-2.465 2.587zm-11.392-5.549v1.815h4.438c-.13 1.014-.477 1.76-1.009 2.279-.648.627-1.657 1.324-3.43 1.324-2.73 0-4.869-2.152-4.869-4.82 0-2.666 2.139-4.818 4.87-4.818 1.477 0 2.551.564 3.344 1.294l1.31-1.279c-1.11-1.034-2.585-1.828-4.654-1.828-3.745 0-6.893 2.975-6.893 6.632 0 3.657 3.148 6.632 6.893 6.632 2.024 0 3.545-.648 4.74-1.862 1.225-1.196 1.606-2.878 1.606-4.236 0-.421-.035-.809-.1-1.133h-6.246zm46.586 1.407c-.362-.955-1.476-2.715-3.746-2.715-2.249 0-4.121 1.73-4.121 4.27 0 2.392 1.853 4.269 4.337 4.269a4.36 4.36 0 0 0 3.645-1.892l-1.49-.97c-.498.71-1.175 1.18-2.155 1.18-.973 0-1.67-.435-2.118-1.293l5.85-2.363-.202-.486zm-5.964 1.422a2.368 2.368 0 0 1 2.284-2.49c.763 0 1.411.373 1.627.906l-3.91 1.584zm-4.754 4.142h1.923V17.724h-1.923v12.548zm-3.15-7.328h-.063c-.432-.5-1.256-.951-2.3-.951-2.19 0-4.192 1.877-4.192 4.284 0 2.393 2.002 4.255 4.192 4.255 1.044 0 1.868-.456 2.3-.97h.064v.612c0 1.633-.893 2.51-2.334 2.51-1.175 0-1.904-.828-2.204-1.525l-1.672.682c.482 1.132 1.758 2.524 3.876 2.524 2.254 0 4.156-1.294 4.156-4.446v-7.667H81.81v.692zm-2.198 5.906c-1.325 0-2.434-1.083-2.434-2.573 0-1.505 1.109-2.603 2.434-2.603 1.306 0 2.335 1.098 2.335 2.603 0 1.49-1.03 2.573-2.335 2.573zm25.068-11.127h-4.599v12.55h1.918v-4.756h2.681c2.129 0 4.218-1.504 4.218-3.897 0-2.392-2.094-3.896-4.218-3.896zm.05 6.049h-2.731v-4.303h2.731a2.203 2.203 0 0 1 2.249 2.15c0 .972-.817 2.153-2.249 2.153zm11.854-1.803c-1.386 0-2.826.597-3.419 1.92l1.702.697c.366-.696 1.04-.922 1.752-.922.994 0 2.003.583 2.019 1.614v.132c-.347-.196-1.09-.486-2.004-.486-1.833 0-3.7.985-3.7 2.823 0 1.682 1.501 2.765 3.188 2.765 1.291 0 2.003-.569 2.45-1.23h.066v.97h1.852v-4.814c0-2.224-1.702-3.47-3.906-3.47zm-.231 6.876c-.628 0-1.502-.303-1.502-1.063 0-.97 1.09-1.343 2.034-1.343.844 0 1.24.181 1.753.421-.151 1.162-1.175 1.985-2.285 1.985zm10.884-6.601l-2.204 5.44h-.065l-2.279-5.44h-2.068l3.424 7.602-1.954 4.23h2.004l5.276-11.832h-2.134zm-17.285 8.028h1.923V17.724h-1.923v12.548z" fill="#fff"/><path d="M10.73 7.724c-.303.308-.478.789-.478 1.411v22.201c0 .623.175 1.103.477 1.412l.075.068L23.546 20.38v-.293L10.804 7.65l-.075.073z" fill="url(#a)"/><path d="M27.789 24.527l-4.243-4.147v-.294l4.248-4.147.095.054 5.03 2.795c1.436.793 1.436 2.098 0 2.896l-5.03 2.79-.1.053z" fill="url(#b)"/><path d="M27.89 24.474l-4.344-4.24L10.73 32.747c.476.49 1.254.548 2.138.059l15.021-8.334z" fill="url(#c)"/><path d="M27.89 15.993L12.867 7.66c-.884-.485-1.662-.426-2.139.064l12.817 12.51 4.343-4.24z" fill="url(#d)"/><defs><linearGradient id="a" x1="22.415" y1="31.567" x2="5.572" y2="14.317" gradientUnits="userSpaceOnUse"><stop stop-color="#00A0FF"/><stop offset=".007" stop-color="#00A1FF"/><stop offset=".26" stop-color="#00BEFF"/><stop offset=".512" stop-color="#00D2FF"/><stop offset=".76" stop-color="#00DFFF"/><stop offset="1" stop-color="#00E3FF"/></linearGradient><linearGradient id="b" x1="34.789" y1="20.232" x2="9.909" y2="20.232" gradientUnits="userSpaceOnUse"><stop stop-color="#FFE000"/><stop offset=".409" stop-color="#FFBD00"/><stop offset=".775" stop-color="#FFA500"/><stop offset="1" stop-color="#FF9C00"/></linearGradient><linearGradient id="c" x1="25.528" y1="17.928" x2="2.687" y2="-5.465" gradientUnits="userSpaceOnUse"><stop stop-color="#FF3A44"/><stop offset="1" stop-color="#C31162"/></linearGradient><linearGradient id="d" x1="7.503" y1="40.134" x2="17.703" y2="29.688" gradientUnits="userSpaceOnUse"><stop stop-color="#32A071"/><stop offset=".069" stop-color="#2DA771"/><stop offset=".476" stop-color="#15CF74"/><stop offset=".801" stop-color="#06E775"/><stop offset="1" stop-color="#00F076"/></linearGradient></defs></svg>