<svg width="414" height="44" viewBox="0 0 414 44" fill="none" xmlns="http://www.w3.org/2000/svg"><g filter="url(#a)"><path fill="#F0F5FB" d="M0 0h414v44H0z"/><path d="M26.758 30V19.504h3.28a6.35 6.35 0 0 1 1.472.16 2.98 2.98 0 0 1 1.168.496c.33.235.587.539.768.912.181.373.272.832.272 1.376 0 .821-.213 1.477-.64 1.968-.427.49-1.003.827-1.728 1.008L34.022 30h-1.504l-2.528-4.432h-1.904V30h-1.328zm1.328-5.52h1.76c.822 0 1.45-.165 1.888-.496.438-.341.656-.853.656-1.536 0-.693-.218-1.179-.656-1.456-.437-.277-1.067-.416-1.888-.416h-1.76v3.904zM35.42 30v-7.776h1.311V30H35.42zm.672-9.376a.957.957 0 0 1-.657-.24.797.797 0 0 1-.256-.608c0-.256.086-.459.256-.608a.96.96 0 0 1 .657-.24.9.9 0 0 1 .64.24.75.75 0 0 1 .272.608.775.775 0 0 1-.273.608.9.9 0 0 1-.64.24zM39.037 30v-7.776h1.088l.112 1.12h.048a6.193 6.193 0 0 1 1.168-.928c.416-.256.896-.384 1.44-.384.821 0 1.419.256 1.792.768.384.512.576 1.27.576 2.272V30h-1.312v-4.752c0-.736-.117-1.264-.352-1.584-.235-.33-.608-.496-1.12-.496-.405 0-.763.101-1.072.304-.31.203-.661.501-1.056.896V30h-1.312zm11.262 3.456c-.48 0-.965-.075-1.456-.224a4.594 4.594 0 0 1-1.328-.624l.48-.928c.384.256.768.437 1.152.544.395.117.779.176 1.152.176.715 0 1.243-.187 1.584-.56.352-.363.539-.859.56-1.488l.016-1.472a4.348 4.348 0 0 1-1.04.736 2.666 2.666 0 0 1-1.264.304c-.49 0-.933-.09-1.328-.272a2.853 2.853 0 0 1-1.008-.768 3.648 3.648 0 0 1-.64-1.232A5.651 5.651 0 0 1 46.955 26c0-.608.09-1.157.272-1.648.192-.49.443-.907.752-1.248.31-.341.667-.603 1.072-.784a3.024 3.024 0 0 1 1.28-.288c.448 0 .837.08 1.168.24.341.15.677.373 1.008.672h.032l.112-.72h1.104v8.16c0 .97-.299 1.723-.896 2.256-.597.544-1.45.816-2.56.816zm.144-4.624c.363 0 .699-.085 1.008-.256.32-.181.65-.453.992-.816v-3.808c-.341-.299-.667-.507-.976-.624a2.333 2.333 0 0 0-.928-.192c-.31 0-.603.07-.88.208a2.177 2.177 0 0 0-.704.592 2.95 2.95 0 0 0-.48.912c-.117.341-.176.72-.176 1.136 0 .875.187 1.568.56 2.08.373.512.901.768 1.584.768zM58.076 30v-9.376h-3.168v-1.12h7.68v1.12H59.42V30h-1.344zm8.044.192a3.95 3.95 0 0 1-1.472-.272 3.746 3.746 0 0 1-1.184-.8 3.862 3.862 0 0 1-.784-1.28c-.192-.501-.288-1.072-.288-1.712 0-.64.096-1.21.288-1.712a4.19 4.19 0 0 1 .784-1.296c.33-.352.704-.619 1.12-.8a3.059 3.059 0 0 1 1.296-.288c.49 0 .928.085 1.312.256.394.17.72.416.976.736.266.32.469.704.608 1.152a5.1 5.1 0 0 1 .208 1.504c0 .139-.006.277-.016.416 0 .128-.011.24-.032.336h-5.248c.053.832.309 1.493.768 1.984.469.48 1.077.72 1.824.72a3.12 3.12 0 0 0 1.024-.16c.32-.117.624-.267.912-.448l.464.864c-.342.213-.72.4-1.136.56-.416.16-.891.24-1.424.24zm-2.448-4.704h4.16c0-.79-.171-1.387-.512-1.792-.331-.416-.8-.624-1.408-.624a2.06 2.06 0 0 0-.8.16c-.246.107-.47.267-.672.48a2.599 2.599 0 0 0-.512.752c-.128.299-.214.64-.256 1.024zM69.388 30l2.544-4.064-2.352-3.712h1.424l1.04 1.712c.117.213.24.432.368.656.128.213.261.427.4.64h.064l.352-.64c.117-.224.234-.443.352-.656l.944-1.712H75.9l-2.352 3.856L76.076 30h-1.424l-1.136-1.808-.416-.704a15.002 15.002 0 0 0-.432-.688h-.064c-.139.224-.272.453-.4.688-.128.224-.256.459-.384.704L70.764 30h-1.376zm9.966.192c-.416 0-.768-.064-1.056-.192a1.887 1.887 0 0 1-.688-.528 2.122 2.122 0 0 1-.368-.816 4.647 4.647 0 0 1-.112-1.056v-4.304h-1.152v-.992l1.216-.08.16-2.176h1.104v2.176h2.096v1.072h-2.096v4.32c0 .48.085.853.256 1.12.181.256.496.384.944.384.138 0 .288-.021.448-.064.16-.043.304-.09.432-.144l.256.992a5.57 5.57 0 0 1-.704.192c-.246.064-.49.096-.736.096z" fill="#000" filter="url(#b)"/><g filter="url(#c)" fill="#000"><rect opacity=".2" x="341.5" y="19" width="3.5" height="11.5" rx="1"/><path d="M336.5 22.5a1 1 0 0 1 1-1h1.5a1 1 0 0 1 1 1v7a1 1 0 0 1-1 1h-1.5a1 1 0 0 1-1-1v-7zm-5 2.5a1 1 0 0 1 1-1h1.5a1 1 0 0 1 1 1v4.5a1 1 0 0 1-1 1h-1.5a1 1 0 0 1-1-1V25zm-5 2a1 1 0 0 1 1-1h1.5a1 1 0 0 1 1 1v2.5a1 1 0 0 1-1 1h-1.5a1 1 0 0 1-1-1V27zm33.825 1.29a.328.328 0 0 0-.009-.48 3.582 3.582 0 0 0-4.63 0 .328.328 0 0 0-.01.48l2.092 2.113a.328.328 0 0 0 .465 0l2.092-2.114z"/><path d="M358 25.369c1.276 0 2.506.474 3.451 1.332.128.121.33.119.454-.006l1.21-1.224a.337.337 0 0 0-.005-.481 7.495 7.495 0 0 0-10.217 0 .339.339 0 0 0-.004.481l1.209 1.224a.325.325 0 0 0 .454.006A5.138 5.138 0 0 1 358 25.369z"/><path opacity=".2" d="M358 21.388c2.322 0 4.555.893 6.237 2.494a.323.323 0 0 0 .454-.003l1.211-1.224a.337.337 0 0 0-.003-.478 11.408 11.408 0 0 0-15.798 0 .34.34 0 0 0-.003.479l1.211 1.223a.322.322 0 0 0 .454.003A9.049 9.049 0 0 1 358 21.389z"/><g clip-path="url(#d)"><path d="M372 21.75c0-.69.56-1.25 1.25-1.25h.75V29h-.75c-.69 0-1.25-.56-1.25-1.25v-6zm2-1.25h2V29h-2v-8.5zm2 0h2V29h-2v-8.5zm2 0h2V29h-2v-8.5zm2 0h2V29h-2v-8.5zm2 0h2V29h-2v-8.5zm2 0h2V29h-2v-8.5zm4 1.25c0-.69-.56-1.25-1.25-1.25H386V29h.75c.69 0 1.25-.56 1.25-1.25v-6z"/></g><g opacity=".5"><path fill-rule="evenodd" clip-rule="evenodd" d="M370 21.5a3 3 0 0 1 3-3h18a3 3 0 0 1 3 3V28a3 3 0 0 1-3 3h-18a3 3 0 0 1-3-3v-6.5zm3-2a2 2 0 0 0-2 2V28a2 2 0 0 0 2 2h18a2 2 0 0 0 2-2v-6.5a2 2 0 0 0-2-2h-18z"/><path d="M395 27.042a2.5 2.5 0 0 0 0-4.584v4.584z"/></g></g><path d="M127 0h160l-12.236 24.472A10 10 0 0 1 265.82 30H146.565a9.998 9.998 0 0 1-9.175-6.024L127 0z" fill="#0A485A"/><circle cx="228.5" cy="15.5" r="4.5" fill="#0C3845"/><rect x="181" y="13" width="37" height="6" rx="3" fill="#0C3845"/></g><defs><filter id="a" x="-30" y="-30" width="474" height="104" filterUnits="userSpaceOnUse" color-interpolation-filters="sRGB"><feFlood flood-opacity="0" result="BackgroundImageFix"/><feGaussianBlur in="BackgroundImage" stdDeviation="15"/><feComposite in2="SourceAlpha" operator="in" result="effect1_backgroundBlur"/><feBlend in="SourceGraphic" in2="effect1_backgroundBlur" result="shape"/></filter><filter id="b" x="-56" y="-56" width="208" height="156" filterUnits="userSpaceOnUse" color-interpolation-filters="sRGB"><feFlood flood-opacity="0" result="BackgroundImageFix"/><feGaussianBlur in="BackgroundImage" stdDeviation="28"/><feComposite in2="SourceAlpha" operator="in" result="effect1_backgroundBlur"/><feBlend in="SourceGraphic" in2="effect1_backgroundBlur" result="shape"/></filter><filter id="c" x="262" y="-56" width="208" height="156" filterUnits="userSpaceOnUse" color-interpolation-filters="sRGB"><feFlood flood-opacity="0" result="BackgroundImageFix"/><feGaussianBlur in="BackgroundImage" stdDeviation="28"/><feComposite in2="SourceAlpha" operator="in" result="effect1_backgroundBlur"/><feBlend in="SourceGraphic" in2="effect1_backgroundBlur" result="shape"/></filter><clipPath id="d"><path fill="#fff" transform="translate(372 20.5)" d="M0 0h16v8.5H0z"/></clipPath></defs></svg>