<svg width="1680" height="775" viewBox="0 0 1680 775" fill="none" xmlns="http://www.w3.org/2000/svg"><g clip-path="url(#a)"><ellipse cx="490.273" cy="-327" rx="683" ry="623" transform="rotate(-180 490.273 -327)" fill="#8740C5" opacity=".4" filter="url(#b)"/><path d="M1243.27 67c559.26 29.512 731.5 556.5 926 541.5 244.5-18.856 198.95-513.16 0-701.5-234.5-222-1304.998 140-926 160z" fill="#46DCC0" opacity=".7" filter="url(#c)"/><path d="M812.149-347.624C983.121-331.202 1072.22-414.399 1084-537c24.57-255.823-476.17-29.311-725.208 162.078-183.021 140.655-182.69 363.499-13.173 458.899 191.57 107.81 315.81 101.011 519.111 49.861 169.63-42.678 228.33-92.59 413.3-124.554 173.13-29.92-617.749-371.496-465.881-356.908z" fill="#32CBD1" opacity=".4" filter="url(#d)"/></g><defs><filter id="b" x="-492.727" y="-1250" width="1966" height="1846" filterUnits="userSpaceOnUse" color-interpolation-filters="sRGB"><feFlood flood-opacity="0" result="BackgroundImageFix"/><feBlend in="SourceGraphic" in2="BackgroundImageFix" result="shape"/><feGaussianBlur stdDeviation="150" result="effect1_foregroundBlur_1302_1180"/></filter><filter id="c" x="962.837" y="-364.777" width="1573.16" height="1173.59" filterUnits="userSpaceOnUse" color-interpolation-filters="sRGB"><feFlood flood-opacity="0" result="BackgroundImageFix"/><feBlend in="SourceGraphic" in2="BackgroundImageFix" result="shape"/><feGaussianBlur stdDeviation="100" result="effect1_foregroundBlur_1302_1180"/></filter><filter id="d" x="19.96" y="-851.373" width="1483" height="1221.01" filterUnits="userSpaceOnUse" color-interpolation-filters="sRGB"><feFlood flood-opacity="0" result="BackgroundImageFix"/><feBlend in="SourceGraphic" in2="BackgroundImageFix" result="shape"/><feGaussianBlur stdDeviation="100" result="effect1_foregroundBlur_1302_1180"/></filter><clipPath id="a"><path fill="#fff" transform="translate(-344)" d="M0 0h2368v775H0z"/></clipPath></defs></svg>