<svg width="140" height="100" viewBox="0 0 140 100" fill="none" xmlns="http://www.w3.org/2000/svg"><path d="M135.418 24.284v-.827h-.069v-.345h-.066v-.552h-.069v-.287h-.069v-.207h-.069l-.08-.61h-.069v-.344h-.069v-.207h-.069v-.192h-.069v-.207h-.069v-.207h-.069v-.207h-.069l-.138-.62h-.069l-.069-.288h-.069l-.069-.345h-.069l-.129-.425h-.055v-.138h-.069v-.138h-.069l-.149-.474-.138-.069-.069-.287-.138-.07-.069-.287-.138-.069v-.138l-.138-.069-.069-.287-.138-.069v-.138l-.206-.138v-.138l-.138-.069a2.936 2.936 0 0 0-.828-.965v-.138c-.351-.098-.529-.463-.759-.69a10.535 10.535 0 0 0-1.31-1.172l-.483-.552h-.138l-.287-.345h-.126l-.069-.138-.288-.068-.069-.138h-.138v-.07l-.287-.068v-.07h-.207v-.068h-.138v-.07h-.138l-.069-.137h-.137v-.07l-.414-.137v-.069h-.207v-.069h-.138v-.069l-.414-.069v-.069h-.207v-.069h-.207v-.069h-.207v-.069h-.114v-.02h-.288V10.3h-.287v-.069h-.288v-.069h-.551c-1.173-.368-3.184-.112-4.244.207h-.483v.07h-.287v.068h-.345l-1.437.483v.069h-.124v.069l-.413.069v.069l-.414.138v.069h-.138v.046l-.287.068-.069.139h-.138l-.069.137h-.138l-.069.138h-.138l-.138.207h-.138l-.069.138h-.138l-.138.207h-.138l-.138.207h-.138l-.54.63h-.138l-.138.206h-.138l-.137.138v.138l-.897.827v.138l-.414.345v.138l-.207.138v.138l-.207.138v.138l-.206.138v.138l-.138.069-.069.207h-.069v.138l-.138.069-.069.287-.138.069-.069.287-.138.07-.069.287-.138.137v.138l-.138.07-.138.413h-.069v.138h-.069l-.138.414h-.069l-.206.896a9.57 9.57 0 0 0-.414 3.035v1.655l.62 2.62h.069v.176h.046v.207h.069v.287h.069v.207h.069v.138h.081v.207h.069v.207h.069v.184h.069v.206h.08v.207c.397 1.003.701 2.095 1.035 3.161l.287 2.483c.181.632.069 1.658.069 2.413v.966h-.069v.287h-.069l-.069.288h-.069l-.138.69h-.069c-.083.18-.129.318-.207.482-.574 0-.747-.218-1.172-.345l-.828.07-.551.413v.138l-.138.069-.069.414h-.069a1.636 1.636 0 0 0 1.436 1.724l.069.207h-.069v.207h-.069v.287h-.068l-.069.483h-.069v.206h-.069v.207h-.069l-.138.69h-.069v.138h-.069v.207h-.069v.207h-.069v.207h-.069v.207h-.069v.206h-.069v.288h-.069l-.069.758h.069v.288h.069v.207c.155.353.5.574.759.827l.138.207h.137l.069.138h.138l.138.138h.138v.069h.138v.069h.138v.069h.138l.069.138h.138l.138.138h.138v.069h.138v.069h.138v.069l.413.137v.07l3.104 1.034h.207v.069h.195v.069h.207v.069h.287v.069h.345v.069h.483v.069h.345v-.07h.206v-.068h.138v-.07h.138l.138-.206.483-.414v-.138l.138-.069v-.207h.069V49.7h.069l.138-.413h.069v-.207h.069v-.138h.069l.207-.62h.069l.137-.415h.069v-.184h.069v-.137h.069v-.207h.069l.069-.288h.069v-.138h.069v-.207h.069l.138-.206.483.069v.069h.138v.068l.758-.069c.265-.287.658-.347.759-.827.192-.207.092-.604.069-.897l-.414-.62h-.138l-.069-.138-.345-.07v-.068h-.206v-.07c-.17-.082-.322-.137-.483-.206.034-.287.129-.287.207-.483l.069-.413h.069l.069-.334h.069l.069-.287h.068v-.138h.069v-.207h.069l.138-.414h.069l.069-.287.288-.207.138-.414.137-.069v-.138l.207-.138v-.138l.138-.069v-.137l.414-.345.207-.288h.069v-.137l.345-.288v-.069h.138l.138-.287.206-.07c.104-.094.19-.344.288-.413h.115v-.069l.287-.207.069-.207h.138l.287-.344h.138l.414-.483h.104l.344-.414h.138l.069-.138.207-.069.207-.287h.138l.138-.207h.138l.069-.138h.138v-.069l.207-.069.069-.138h.149l.138-.207h.138v-.069h.138l.069-.138.287-.069.069-.138h.138l.138-.138h.138v-.069h.138v-.069h.138l.069-.137h.126v-.07l.287-.068.069-.138.288-.07.069-.137.287-.07.069-.137.287-.069.069-.138h.138l.069-.138h.092l.069-.138h.138l.069-.138h.138l.069-.138h.138l.138-.206h.138l.138-.207c.287-.21.574-.288.758-.621h.138v-.138l.207-.138.552-.62.138-.07v-.137l.287-.207v-.138L133.8 30v-.138l.138-.07.069-.206h.069v-.138l.207-.138v-.138l.138-.069.207-.62h.069l.069-.288h.069v-.138h.069v-.138h.069v-.207h.023v-.103h.069v-.138h.069v-.207h.069l.069-.827c.178-.584.149-1.391.146-2.153zm-11.862-11.378h.138l.069-.139.288-.068v-.07h.138v-.068h.137v-.07h.138v-.068h.138v-.07c.115-.06.472-.083.552-.137v-.07h.966v.07l.344.069.069.138.288.069.138.207.344.287.069.287.138.07v.137l.138.138v.138h.069v.138h.069v.138h.069l.069.414h.069v.138h.069v.207h.037v.175h.069v.207h.069v.287h.069l.069.552h.069v.287h.069l.069.759h.092v1.31a8.28 8.28 0 0 1-.414 2.759l-.207.896h-.069v.287h-.069v.288h-.069v.287h-.068v.207h-.069l-.069.287h-.069v.138h-.069l-.207.288h-.138l-.138.207-.287.068-.069.08-.288.07-.069.138-.207.069v.069h-.138l-.137.138h-.138v.069h-.138v.069h-.138v.069h-.138v.069h-.138v.068h-.138v.07h-.138v.068l-.414.138v.046h-.207v.07h-.138v.068h-.287v.07h-.138v.08h-.172v.069h-1.724v-.07h-.138v-.068l-.828-.288-.138-.207h-.138l-.138-.206h-.069v-.138l-.206-.138v-.138l-.138-.07-.219-.611h-.069v-.147l-.138-.069v-.207h-.08v-.138h-.069v-.207h-.069v-.206h-.069v-.207h-.069v-.207h-.069v-.195h-.069l-.287-1.173h-.069l-.069-.62h-.069l-.138-1.38h.069v-.345h.069l.069-.287h.069v-.138l.207-.138v-.138h.069l.069-.207.138-.069v-.138l.137-.069.069-.207.207-.137v-.127l.288-.207v-.138l.207-.138v-.137l.344-.288.069-.207.207-.138v-.138l.207-.138v-.137l.851-.75.62-.69h.138l.069-.138h.138l.552-.62h.138l.123-.207zm-6.758 29.792v-.07h-.193v-.077h-.138v-.069h-.206v-.069h-.138v-.069h-.207v-.069h-.138v-.069h-.207v-.069l-.287-.069V42l-.414-.069v-.069l-.288-.068v-.07h-.206v-.068l-.288-.07v-.068l-.414-.07v-.045l-.287-.07v-.068h-.207v-.07h-.138v-.08l-.345-.069c-.132-.06-.287-.206-.413-.287.029-.284.099-.563.207-.828h.092v-.137h.069v-.207h.068l.069-.345.138-.07v-.137c.029-.043.092-.052.138-.138.283-.012.565.035.828.138v.069h.207v.069h.138v.069h.207v.069h.206v.08h.23v.07h.207v.068h.207v.07l.345.068v.07l.287.068v.07l.69.137v.069h.138v.069h.207v.069h.138v.069l.344.069v.069h.207v.069h.207v.069h.138c.147.074.311.2.483.287a2.276 2.276 0 0 1-.345 1.103v.138h-.092v.138h-.069v.207h-.069v.207h-.069v.138h-.08l-.138.207-.69-.207v-.069l-.129-.014zm1.244-4.966h-.138v.138l-.345.288v.069h-.138l-.287.344-.345.07v.068h-.413v-.069c-.222-.06-.242-.178-.414-.287l-.414-4h-.069v-.69h-.069v-.069h.069c.075-.474-.034-1.071.069-1.436v-1.31h.069v-.76h.069v-.413h.069v-.483h.069v-.758c.187-.644.164-1.572.345-2.207v-.69h.069v-.413h.08v-.69h.069v-.425h.069v-.345h.069v-.207h.08c.087-.253-.02-.443.138-.62l.069-.208a1.28 1.28 0 0 1 .483.07l.069.689h.069l.069 1.31h.069v.207h.069v.207h.069v.198h.046v.207h.069v.207h.069v.207h.069v.207h.08v.138h.069v.138l.138.069.138.413.138.07v.137h.069l.069.207.138.07v.137l.414.288.206.287h.138l.069.138.207.069v.069l.345.069v.069h.138v.069l.414.069v.069h.345v.046h.827v-.07l.69-.069v-.068h.207v-.07l.287-.068v-.07l.621-.137v-.07l.413-.137v-.07l.288-.068.069-.138.287-.069.069-.138h.104l.287-.345.207-.069v-.069a.864.864 0 0 1 .345.07.934.934 0 0 1-.345.758l-.138.069v.138l-.138.069v.138l-.138.069v.138l-.138.069v.137l-.138.07-.069.287-.138.069v.138l-.138.069-.069.207h-.069l-.069.287h-.069l-.069.207-.137.069v.138l-.207.138v.115l-.288.206v.138l-.207.138v.138l-.138.07v.137l-.206.138v.138l-.207.138v.138l-.138.069-.069.207h-.069v.138l-.138.069v.149l-.207.138v.15l-.138.068v.138l-.207.138v.138l-.138.069-.069.207h-.069v.138l-.207.138-.068.207-.138.069v.126l-.138.069v.138l-.207.138v.138l-.288.207v.138l-.206.138v.138l-.138.068v.138l-.288.207v.138l-.287.207v.15l-.414.344v.138h-.069l-.207.288a4.146 4.146 0 0 0-.724.732zm6.965-11.103v.07h-.137v.068h-.138l-.069.138-.414.138-.069.138h-.207v.069h-.138v.072h-.207v.069l-.287.069v.069h-.207v.08l-.966.138v.069h-1.172v-.069h-.414v-.069l-.287-.069v-.069h-.207v-.069h-.138v-.069h-.138l-.207-.287-.287-.138v-.138l-.207-.138-.069-.287-.138-.07-.069-.287-.138-.069v-.103l-.138-.138v-.15h-.069v-.137h-.069v-.15h-.069v-.138h-.022l-.069-.413h-.069v-.288h-.069l-.081-.598h-.069v-.206h-.069a1.572 1.572 0 0 1 .069-.966c.069-.238.089-.13.207-.287h.207v.069c.402.109.224.218.345.552h.069v.206h.069v.288h.069v.207h.069v.206h.069v.219h.069v.207h.069v.138h.069v.207h.068v.206h.069l.138.414h.069v.138l.138.07.069.287.345.287.138.207h.138l.069.138h.138l.069.138h.207v.069h.207v.068c.428.133 1.258-.057 1.517-.137l.551-.07v-.068h.138v-.07l.414-.068v-.07l.287-.068v-.07h.207v-.068h.138v-.07h.207v-.091c.135-.066.948-.397 1.104-.345v.058h.138c.025.014.068.097.137.138v.413c-.089.15-.784.374-.979.48h.002zm-13.726-8.758h.069l.069-.759h.069l.069-.287h.069v-.135l.207-.138v-.138l.206-.138v-.138l.414-.345v-.138h.069l.207-.287h.141c.092-.356.902-.971 1.172-1.241l.759-.828h.138l.069-.138h.138l.138-.207h.138l.069-.138.413-.138v-.069h.127v-.069h.138v-.068l.413-.138v-.07l.69-.137v-.035h.207v-.069h.207v-.069h.207v-.069l.827-.137v-.07h.138v-.069h.288v-.091h.138v-.07l.551-.068v-.07l2.414-.137c.365 0 .787-.046.965.138l.138.069c-.028.41-.034.247-.287.413l-.069.138h-.138v.07h-.138l-.069.137h-.138l-.287.345h-.138l-.207.287h-.103v.07l-.288.206-.138.288h-.149l-.552.62-.287.207v.138l-.345.287v.138l-.345.288v.138l-.287.207v.138l-.345.287v.138l-.138.069v.069l-.138.069v.138l-.138.069-.069.206h-.069v.138l-.206.138-.069.207-.138.07-.069.287-.138.068-.069.207h-.046l-.069.288-.138.069v.138l-.138.069-.069.287-.138.069-.069.287h-.069l-.069.207-.138.069v.138l-.54.388-.069.207-.207.138-.069.138h-.138l-.485.566h-.138l-.138.207h-.138l-.069.137-.287.07-.069.137-.414.138v.07l-.414.137v.07h-.207v.068h-.138v.07h-.181v.045h-.827l-.483-.414v-.138h-.069v-.137h-.069v-.207h-.069v-.207h-.069c-.247-.63-.287-1.33-.287-2.207l-.003-.681zm-.966 3.448h.069l.069-.138h.138v-.069c.411.167.224.06.414.414h.069v.138h.072v.287h.069l.069.287h.069v.199l.345.482.344.07v.069c.558.175 1.523-.314 1.793-.483l.069-.138h.138v-.07h.138V22.3l.345-.07v-.08c.287.015.236.044.414.138a1.072 1.072 0 0 1-.414.897l-.069.138h-.149l-.288.345h-.138l-.069.138-.206.069v.069h-.138l-.069.137-.345.07v.068h-.184v.07h-.138v.068h-.414v.07l-.552-.07c-.155-.178-.431-.195-.62-.345l-.069-.206-.138-.07v-.149l-.138-.069-.069-.287h-.069v-.288h-.069v-.206h-.069v-.288h-.069c-.075-.224 0-.396-.138-.551l-.003-.578zm.759 8.414v-.288h-.069v-.207h-.069v-.287h-.078l-.137-.69h-.069v-.206h-.069v-.207h-.069v-.207h-.069v-.207h-.069v-.288h-.069v-.207h-.069v-.206h-.069v-.207h-.069v-.207h-.069v-.287h-.069v-.147h-.069v-.207h-.069v-.207h-.069v-.16h-.046v-.288h-.069v-.345h-.069c-.075-.227 0-.598-.138-.759 0-.611-.109-1.514.069-2.01h.288c.023.123.068.137.068.137v.759h.069v.344h.069v.345h.069v.138h.069v.241h.069l.069.288h.069v.138l.138.069v.138l.345.287.207.287h.115v.07h.138v.068h.207c.37.16.785.184 1.172.07h.287v-.07l.414-.138v-.069h.138v-.069l.414-.137.069-.138h.138l.345-.414.287-.207v-.172c.049-.06.144-.058.207-.138.287 0 .235.043.414.137-.003.487-.072.97-.207 1.437v.483h-.069v.483h-.069v.414h-.069v.482h-.081v.621h-.069v.552h-.069v.551h-.069v.552h-.08v1.322h-.069v.828h-.069v.551h-.069a6.904 6.904 0 0 0 .069 1.793v.897h.069v.816h.069v.827h.069c.055.412.055.83 0 1.242l-.207.069a.739.739 0 0 1-.483 0v-.07h-.138v-.057h-.207v-.069l-.287-.069v-.069l-.287-.069-.069-.138-.288-.069-.068-.137h-.138c-.041-.03-.052-.092-.138-.138-.038-.095-.023-.156-.069-.288h-.069v-1.103h-.069v-1.012h-.069v-.574h-.069v-.69h-.069v-.46h-.069v-.344h-.069v-.288h-.069v-.287h-.069v-.287h-.069v-.414h-.069l-.207-.897h-.069v-.138h-.069l-.069-.414-.037.02zm6.609 17.171h-.069l-.069.483h-.069v.138h-.069l-.069.414h-.069v.138h-.069l-.138.62h-.069l-.069.288h-.069v.207h-.069v.138a.955.955 0 0 1-.62.482c-.216.193-.862.05-1.173-.069v-.069h-.206v-.068l-.483-.07v-.089h-.138v-.069h-.207v-.068h-.207v-.07h-.207v-.068h-.207v-.07h-.138v-.068l-.344-.07v-.068l-.414-.07v-.068h-.138v-.07h-.207v-.068l-.287-.069v-.069h-.207v-.069h-.138v-.069h-.207v-.046h-.112v-.069h-.138v-.069h-.15v-.069h-.206v-.08h-.138v-.07l-.288-.068v-.07h-.207v-.08l-.413-.137v-.07h-.138l-.288-.344h-.138v-.07h-.069v-.137h-.069c-.08-.23.288-1.017.345-1.173l.069-.413h.104v-.138h.069l.069-.414h.069v-.207h.08v-.138h.069l.069-.414c.174-.37.29-.766.345-1.172l.62.207v.069h.138v.069h.196v.069h.138v.069h.207v.069h.138v.069h.206v.069h.138v.069h.288v.069h.207v.069h.115v.069l.413.068V44h.161v.068h.207v.07h.138v.068h.207v.07h.138v.068h.207v.07h.138v.068h.207v.08h.138v.07l.413.069v.069h.138v.08h.207v.069l.345.069v.069h.138v.069h.207v.069h.138v.069l.62.138v.069h.138v.069h.207v.069l.414.137v.07h.138v.068h.115c.04.026.052.095.138.138a2.788 2.788 0 0 1-.199.883h-.011zm2.276-2.206c.135.06.287.206.414.287.04.204.132.489 0 .69h-.069l-.069.138h-.138v.069c-.635-.023-1.121-.348-1.586-.552h-.181v-.07h-.138v-.068h-.207v-.07h-.138v-.068l-.345-.069v-.069h-.207v-.066h-.138v-.069l-.414-.069v-.069l-.287-.069v-.069h-.207v-.069h-.138v-.069l-.345-.069v-.069h-.207v-.069h-.137v-.069h-.207v-.069h-.138v-.069h-.196v-.069l-.287-.069v-.069l-1.241-.413v-.07h-.138v-.068h-.207v-.07h-.138v-.068l-.345-.07v-.068h-.207v-.08h-.138v-.07h-.207v-.068h-.138v-.07h-.206v-.08h-.138v-.069l-.345-.069v-.069h-.207v-.069h-.138v-.069h-.207v-.069h-.138v-.069h-.207V42h-.138v-.069h-.207v-.069h-.137v-.068h-.207v-.07l-.345-.068v-.07h-.138v-.068h-.207c-.132-.06-.287-.21-.414-.288v-.069h-.069v-.206h-.069a3.68 3.68 0 0 1 .138-.483c.187-.043.322-.233.621-.138v.069h.207v.069h.138v.069h.207v.069h.138v.069h.206v.069h.138v.08h.207v.069h.138v.069h.207v.069h.138v.08h.207v.07h.138v.068h.207v.07l.345.068v.07h.137v.068l1.242.414v.069h.138v.069h.207v.069l.344.069v.069h.138v.069h.207v.069h.138v.069h.207v.057l.345.07v.068h.138v.069h.207v.08h.138v.07h.207v.068h.137v.07h.207v.08h.138v.069h.207v.069h.138v.069h.207v.069h.138v.069h.207v.069h.138v.069h.207v.069l.344.069v.069h.138v.069h.207v.068h.138v.07h.207v.068h.138v.07h.207v.068h.138v.046h.207v.07h.138v.068h.207v.07h.137v.08h.207v.069l.331.066zm10.689-13.172l-.552.287-.069.138h-.137v.069h-.138l-.138.138h-.138l-.138.207h-.138l-.138.138h-.138l-.069.138-.414.138-.069.137-.287.07-.069.137-.207.07v.068l-.414.138-.069.138-.207.069v.069l-.413.138-.043.118-.288.069-.069.138h-.138l-.138.206h-.137l-.069.138-.207.07v.068h-.138l-.138.207h-.115l-.138.207h-.149l-.207.288h-.138l-.207.287h-.138l-.414.483h-.138l-.621.69h-.149l-.414.55h-.069l-.069.139h-.138l-.459.606-1.035.966v.138l-.345.287v.138h-.069l-.137.207h-.138v.069h-.575v-.07l-.287-.068v-.066h-.207v-.07l-.345-.068v-.07l-.207-.137v-.288l.69-.758.138-.069v-.138l.62-.552v-.15l.345-.286v-.138l.345-.288v-.138l.207-.138v-.138l.287-.206v-.104l.207-.138v-.15l.138-.068v-.138l.207-.138v-.138l.287-.207v-.138l.207-.138v-.138l.138-.069v-.138l.207-.137v-.138l.207-.138v-.138l.207-.138v-.138l.206-.138v-.138l.138-.069.069-.207h.069v-.138l.15-.046v-.138l.207-.138v-.138l.138-.068v-.138l.206-.138v-.138l.207-.138v-.138l.207-.138v-.138l.138-.069.046-.207h.069v-.138l.219-.15v-.137l.206-.138v-.138l.138-.069.069-.287.138-.07v-.137l.138-.07v-.137l.138-.069v-.138l.138-.069.069-.287.138-.07.138-.413.138-.069v-.138h.069l.207-.287h.206l.069.287h.069l.069.62h.069l.138.622h.069l.138.413h.069v.138l.138.07v.137l.345.288v.149l.207.069.069.138h.138v.08h.138v.07h.206v.068h.207v.07h.414c.385.111.779 0 1.241 0l-.014.26zm1.241-1.38c-.117.236-1.339.492-1.862.345v-.069h-.413c-.972-.287-1.564-.957-2.012-1.793l-.287-.896a1.757 1.757 0 0 1 .138-.69h.483c.071.16.123.31.206.483h.069v.207h.069v.206h.107l.138.414h.069v.138l.138.07v.137l.287.207.138.207.414.138.069.138h.137v.069l1.035.207c.287.048.718-.084.896.069l.207.069-.026.344zm2.012-3.93v.344l-.342 1.05-.207.137-.287.345h-.138v.069h-.138v.069h-.207v.069h-.138v.069l-.345.069v.069h-.207v.069h-.344a6.026 6.026 0 0 1-1.725.137l-.482-.344-.207-.621h-.069l-.069-.287h-.069l-.138-.759h-.069l-.069-1.172v-.07h-.069l.069-1.24h.069v-.346h.069v-.287h.069v-.207h.069v-.207h.069v-.207h.069v-.287h.069v-.207h.069v-.287h.069v-.207h.069v-.207h.069v-.207h.069v-.345h.069l.069-.62h.069v-.173h.068v-.345h.069v-1.313h.069l-.069-2.011h-.069v-.471h-.068v-.207c-.13-.356-.351-.977-.207-1.38.287.06.324.179.482.345l.138.07v.14l.345.287v.138l.828.759v.138l.207.138v.138l.287.207v.138l.138.069 1.034 1.93.069.414h.069v.138h.069v.207h.069v.138h.058l.069.414h.069v.287h.068V21h.081v.207h.069v.207h.069v.207h.069l.138.69h.069v.287h.069v.207h.069v.62c.235.793-.012 2.12-.21 2.79zM6.181 43.938c0 1.506-.202 3.509.413 4.414l.552.413h.138v.07h.287v.068h17.083v-.069h.287v-.069l.288-.069v-.068h.138v-.07l.345-.287.287-.965v-4.54l-.345-1.035h-.069l-.287-.345-.966-.138v-.069h-9.945a1.414 1.414 0 0 0-.345-.287 13.172 13.172 0 0 1-.069-2.011V20.285h-.069v-.288h-.069v-.138h-.069v-.207l-.344-.551-.414-.112v-.07l-.423-.083v-.069h-2.198c-.158.138-.684.07-.965.07-.82 0-2.153-.173-2.552.287-.842.232-.69 2.35-.69 3.517v21.31-.012zm24.895 1.655l.62.552.288.345a12.756 12.756 0 0 0 3.368 1.807h.414v.07h.345v.068h.413v.069h.486v.069h2.069v.069c.115.017.12-.066.138-.069h2.207v-.069h.62v-.069h.483v-.069h.414v-.069h.345v-.069l.413-.069v-.069h.138v-.08l.414-.07v-.068h.207v-.07h.138v-.08h.207v-.069l.414-.138v-.068h.126v-.07l.287-.068.07-.138.287-.07.207-.287h.138l.137-.206h.138l.345-.414.207-.07V46l.69-.62v-.138l.207-.138v-.138l.138-.07.069-.206h.069l.069-.287.137-.07.138-.413h.07l.137-.414h.07l.068-.414h.058l.069-.287h.069l.069-.414h.08v-.287h.069v-.207h.069v-.287h.069v-.345h.069v-.345h.069v-.483h.069v-.62h.069v-.828c.195-.687.069-1.934.069-2.758V22.437c0-.862.14-2.615-.288-3.035-.097-.373-.347-.344-.69-.482-.93-.377-2.79-.207-4.068-.207-.558 0-1.115-.026-1.517.138v.138h-.207v.069c-.595.16-.552.887-.552 1.655v13.034c0 1.118.09 2.445-.069 3.448-.02.138.07.138.07.138v.552h-.07v.827h-.057l-.07.552h-.068l-.138.62h-.07l-.068.288h-.07l-.068.287-.207.138-.069.207-.287.069-.07.138h-.137v.069l-.288.069v.069h-.287v.069h-.62v.069H38.78v-.07h-.758l-.621-.206-.07-.138h-.137l-.207-.287-.287-.207v-.138l-.138-.07c-.575-.913-.345-3.229-.345-4.689V20.035h-.069v-.288h-.069l-.069-.287-.138-.07v-.137h-.069l-.138-.207-.483-.138v-.069h-.413v-.069h-4.59v.07h-.287v.068l-.413.138v.07h-.138v.068l-.207.069-.07.207h-.068v.138h-.07l-.068.483h-.069v16.953l.069 3.517h.069v.414h.069v.437h.069v.207h.069v.206h.069l.138.69h.069v.138h.069v.196h.069v.137h.069v.207h.069v.207h.069l.068.288h.07v.138l.137.069v.137h.084v.138l.138.138v.138l.138.07.137.413.138.069.07.207.344.287-.003.112zm69.033-26l-.138-.413a2.78 2.78 0 0 1-.552-.207v-.069l-.552-.069v-.069c-.339-.1-1.882 0-2.137.07h-2.414l-1.931.068c-.21.066-.443.221-.69.288l-.069.287-.138.069-.138.414h-.069v.175h-.069l-.069.287h-.069l-.068.345h-.07l-.068.414h-.07l-.068.287h-.07l-.068.345h-.07l-.137.62h-.07l-.068.288h-.078l-.069.414h-.069l-.069.345h-.069v.103h-.068v.207h-.07v.138h-.068v.23h-.07v.138h-.068l-.138.414h-.07v.206h-.068v.207h-.07v.184h-.068v.207h-.069v.138h-.046v.23h-.069v.138h-.069v.207h-.069v.207h-.08v.138h-.07l-.068.287h-.07l-.137.62c-.058.133-.207.288-.288.414-.574-.028-.39-.287-.551-.69h-.07V27h-.068v-.138h-.07v-.207h-.045l-.069-.287h-.069v-.207h-.069v-.138h-.08v-.207h-.07v-.138h-.068v-.207h-.07v-.16h-.08l-.069-.415h-.069v-.206h-.069l-.069-.288h-.069v-.138h-.069l-.069-.345h-.069v-.206H86.1v-.127h-.068v-.207h-.07v-.138h-.068l-.138-.62h-.07l-.068-.288h-.046v-.183h-.07v-.138h-.068v-.207h-.07l-.068-.288h-.069l-.069-.345h-.069l-.138-.62h-.069l-.069-.288h-.069v-.126h-.069v-.207h-.069l-.138-.414H84.4v-.138h-.069l-.206-.287-.828-.287h-3.67c-.557-.092-1.724-.155-2.275 0h-.62v.069h-.208v.115h-.146v.069h-.207l-.07.137-.206.07c-.35.907.15 1.58.483 2.206l.207.621h.08v.138h.069v.207h.069v.207h.069l.138.414h.069v.137h.069v.138h.069v.138h.069l.069.288h.069v.206h.069v.138h.069v.207h.068v.138h.07l.137.414h.07V25h.068v.207h.07v.103h.057l.138.414h.069v.207h.08v.138h.07v.207h.068l.138.414h.069v.137h.069v.207h.069l.138.414h.069v.161h.069v.138h.069v.207h.069l.138.414h.069v.138h.069l.068.344h.07l.137.414h.07v.207h.068v.138h.07v.207h.068l.138.414h.07v.138h.08v.115h.069v.206h.069v.138h.069l.137.414h.07v.138h.068l.07.414h.068l.138.414h.07v.138h.068v.149h.07l.068.414h.069v.138h.046v.138h.069v.138h.069v.137h.069v.138h.08v.138h.07l.137.414h.08v.207h.07v.15h.069v.206h.069v.138h.069l.206.62h.07v.139h.068l.138.414h.07v.206h.068v.138h.07v.207h.068v.138h.07v.138h.045l.138.414h.069v.207h.08v.138h.07v8c0 .649-.13 1.847.068 2.344h.07l.137.414h.07l.287.345.62.207h6.207l.62-.207.07-.138h.115v-.069l.206-.138.207-.62v-10.08h.07v-.208h.091l.07-.287h.068v-.207h.07v-.138h.068l.138-.414h.069v-.183h.069v-.138h.069v-.15h.069v-.138h.069v-.207h.069v-.138h.069v-.138h.069v-.137h.069l.138-.414h.069l.069-.414h.069v-.138h.057v-.207h.069l.138-.414h.08l.07-.344h.068v-.138h.07l.137-.414h.07v-.207h.068v-.138h.069v-.15h.069l.138-.413h.069v-.207h.069l.069-.287h.069v-.207h.069l.069-.288h.069v-.138h.069v-.183h.069v-.138h.057v-.138h.069l.138-.414h.08l.07-.414h.068l.138-.414h.07v-.138h.068v-.138h.07v-.206h.068v-.138h.069l.138-.414h.069l.069-.414h.069v-.138h.069l.138-.414h.069v-.137h.069v-.207h.069l.138-.414h.069v-.138h.069v-.184h.068l.138-.414h.07v-.16h.068v-.208h.07v-.138h.068v-.137h.07l.137-.414h.07v-.207h.068v-.138h.069v-.195h.069l.138-.414h.069v-.138h.046v-.207h.069l.069-.287h.069v-.207h.08l.07-.288h.068v-.138h.07v-.207h.08v-.126h.069l.137-.414h.07v-.207h.068l.07-.344h.068v-.138h.07l.068-.288h.069v-.207a.923.923 0 0 0 .138-.69l-.083.02zM53.007 35.87v2.966a7.208 7.208 0 0 0 .069 1.586v.62h.069l.069.828h.069v.288h.069v.137h.069v.207h.068v.288h.07v.207h.068v.206h.07v.207h.068v.207h.07l.068.288h.06l.07.287.137.069.07.287.137.07.07.286h.091l.07.207.137.07v.137l.288.207v.138l.344.288v.048l.138.138h.138l.62.69h.139l.069.138.207.069v.069h.137l.07.138h.137l.07.138.413.138.07.137h.206v.07h.138v.068l.287.07v.068l.414.07v.068h.138v.07l.414.068v.092l.896.138a7.426 7.426 0 0 0 2.207.287l2.483.07 2.552-.483 1.93-.828.07-.138.287-.069.069-.138h.092l.069-.138.206-.069.138-.206h.138l.552-.621.483-.414v-.138l.207-.138v-.138l.207-.138V45l.138-.069.137-.413.138-.07.138-.413h.07v-.138h.068v-.138h.07l.137-.414h.07l.068-.413h.069v-.207h.058l.069-.483h.068v-.207h.07v-.207h.08v-.483h.069v-.287h.069c.053-.438.03-.88-.07-1.31v-.357l-.287-.551h-.137v-.07h-.138v-.068h-.207v-.07h-.207v-.068h-.345c-.652-.207-1.474-.288-2.138-.483l-.69-.069c-.517-.164-1.198-.264-1.724-.414a.574.574 0 0 0-.551.138c-.17.05-.112.035-.207.138h-.046v.138l-.207.138-.207.965h-.069v.345h-.092v.219h-.069v.287h-.069v.138h-.069l-.207.62-.206.139-.288.344h-.138l-.138.138h-.138v.058h-.115v.069h-.138v.069h-.149v.069h-.207v.069h-.551v.069a5.205 5.205 0 0 1-1.656-.07v-.068l-.287-.07v-.068h-.138l-.069-.138h-.138l-.207-.288h-.138l-.206-.287h-.07l-.068-.287-.138-.07-.07-.287h-.068c-.273-.675-.138-2.057-.138-2.965v-8.965h.069v-.288h.069v-.287h.069v-.207h.069v-.08l.138-.07.069-.287.137-.069v-.137l.207-.138v-.07c.681-.494 2.161-.772 3.242-.413l.482.069c.322.169.604.404.828.69l.287.206v.138h.07v.138h.068v.23h.07v.207h.068v.287h.07v.288h.068v.287h.08v.483h.07l.068.287h.07v.138l.287.138.138.207h.138V30c.242.09.5.136.758.138v-.07h.345V30h.345c1.014-.325 2.23-.503 3.241-.828h.345v-.126h.287v-.07h.288v-.068h.207v-.07l.287-.206.069-.345h.069a4.08 4.08 0 0 0-.07-1.38l-.068-1.24h-.07v-.207h-.068v-.288h-.127v-.287h-.068v-.207h-.07l-.068-.414h-.07l-.129-.39h-.069v-.138h-.069l-.069-.345-.138-.07-.068-.287-.138-.069-.07-.287-.137-.069v-.138l-.207-.138v-.138l-.345-.287v-.138l-.345-.287-.483-.552h-.137l-.288-.345h-.138l-.069-.138-.207-.069v-.069h-.138l-.069-.137h-.137l-.138-.138h-.138v-.07h-.138v-.068h-.138v-.07h-.138v-.068h-.138v-.07l-.414-.137v-.07h-.287v-.068h-.207v-.07h-.207v-.068h-.207v-.069h-.345v-.069h-.287v-.069h-.345V19l-1.767-.011h-3.302c-.227.198-.827.028-1.172.138v.069h-.207v.069h-.204v.068h-.207v.07h-.287v.068h-.207v.07h-.287v.068l-.414.138v.07h-.138v.068h-.138v.07h-.138v.068h-.138v.069h-.138l-.138.138h-.138l-.069.138-.287.069v.069l-.207.069-.069.138h-.138l-.287.345h-.138l-.483.551-.207.138v.115l-.287.207v.138l-.287.207v.138l-.138.069-.07.287-.137.069-.07.287-.137.07-.069.287h-.011l-.138.414h-.07v.206h-.068v.138h-.07v.207h-.068v.288h-.07v.206h-.068v.207h-.07v.207h-.068v.207h-.069v.552h-.069v.482h-.069v4.138c-.123.44-.069 1.17-.069 1.724l.009 3.273zm45.447 23.38c0-2.078.028-4.31-.07-6.276l-.482-.551c-.127-.098-.098.028-.207-.138-1.238-.064-2.718-.07-4.069-.07h-1.724c-.373.121-.523.443-.828.621-.149 1.655-.068 3.61-.068 5.38v12.827c0 .511.066 1.327-.07 1.724h-.068l-.07.414h-.054l-.069.287h-.069v.118l-.138.069v.138l-.138.069-.344.413c-.455.308-1.865.56-2.621.345h-.483v-.069h-.207v-.069l-.413-.069v-.069l-.414-.138v-.046h-.138l-.288-.344-.138-.07v-.16l-.206-.138v-.138h-.08c-.182-.394-.139-1.02-.139-1.586v-2.888l.07-11.517v-2.552a5.546 5.546 0 0 0-.07-1.31v-.345h-.069v-.215h-.069v-.207h-.069l-.138-.207h-.138v-.07h-.206v-.068h-.288a5.542 5.542 0 0 0-1.379-.069c-1.023 0-2.71-.103-3.38.069-.41.106-.861-.106-1.103.138-.658.175-.551 1.098-.551 1.93v17.862a6.897 6.897 0 0 0 .069 1.518l.069.965h.069v.287h.069v.207h.068v.207h.07v.207h.068l.07.483h.08l.069.287h.069v.207h.069v.138h.08v.207h.07l.068.287h.069l.069.288.138.069.069.287.207.138.069.207h.069v.138l.138.069v.138l.287.206v.138l.414.345v.138l.207.138v.069h.138v.138a.554.554 0 0 1 .287.138v.069l.207.069.069.138h.138l.138.207.287.069.138.207.414.137v.07h.138v.068l.413.138v.07h.207v.068h.138v.07h.207v.068h.092v.07l.69.137v.069h.287v.069h.287v.069h.288v.069h.287v.069h.897c1.075.148 2.165.148 3.24 0h.897v-.07h.69v-.068l.828-.07v-.068h.207v-.069h.287v-.069l.62-.138v-.069h.138v-.069h.207v-.069l.414-.138v-.069h.08v-.069h.138v-.115h.15V80.7l.414-.137.069-.138.207-.07.138-.206h.137l.07-.138h.137l.138-.207h.127l.069-.138.413-.345v-.138l.552-.483v-.137l.207-.138v-.138l.138-.07.138-.413.138-.069.069-.207h.069l.069-.287h.069v-.138h.08l.138-.414h.069l.069-.414h.069v-.207h.069v-.183h.069v-.138h.069v-.288h.069v-.15h.069v-.206h.069v-.287h.069v-.288h.069v-.345h.069l.069-1.862c.074-.455.097-.918.069-1.379V59.217l-.003.032zm11.861 1.034v-5.24c0-.51.092-1.676-.138-1.932v-.215h-.069l-.399-.474-.287-.07v-.068h-.345c-.451-.138-1.224-.07-1.793-.07h-3.448v.07h-.288l-.551.482-.069.288h-.069v.129h-.046v.414a6.4 6.4 0 0 0-.069 1.437v24.424c0 .63-.092 1.658.138 2.069l.138.069c.465.503 1.066.414 2.011.414h3.161c.457 0 1.181.072 1.517-.07l.552-.482c.215-2.333.069-5.06.069-7.517l-.015-13.658zM50.11 75.042l-.069-.138h-.138l-.069-.138h-.138v-.07l-.287-.068v-.07c-.483-.195-1.64-.068-2.276-.068h-8.057c-.167-.198-.405-.253-.483-.552-.14-.166-.069-1.123-.069-1.437V53.536h-.077l-.07-.482-.344-.483-.287-.069v-.069h-.207v-.069H37.4v-.069h-4.127a7.389 7.389 0 0 1-1.103 0v.07h-.287c-.121.137-.135.057-.288.137v.069h-.137l-.483.759c-.181.46-.07 1.284-.07 1.862v24.206c0 .67-.045 1.514.208 1.93l.138.07v.138h.069c.08.138.014.166.137.287.213.207.742.207 1.173.207h16c.453 0 1.02 0 1.24-.207.558-.325.552-1.046.552-1.931v-3.057c0-.722.02-1.371-.287-1.793h-.026zm84.768-4.207h-.069l-.069-.287h-.069v-.207h-.069v-.138h-.069l-.207-.621h-.069l-.069-.207-.138-.069-.069-.287-.207-.138v-.138l-.137-.069v-.138l-.288-.207v-.138l-.345-.287-.62-.69h-.138l-.288-.345h-.123l-.138-.207-.207-.068-.069-.138h-.138l-.069-.138h-.138l-.138-.207h-.138l-.138-.138h-.137v-.07h-.127v-.068h-.138v-.069l-.207-.069-.069-.138-.287-.069-.069-.138-.414-.138v-.069h-.138v-.069h-.138v-.069l-.413-.138V64.8l-.414-.068v-.07l-.414-.137v-.07h-.138v-.068h-.207v-.07h-.138v-.068l-.345-.07v-.068h-.206v-.07h-.138v-.068l-.414-.069v-.069h-.138v-.02l-.414-.138v-.069l-.483-.069v-.069l-.413-.138v-.092h-.138v-.069l-.414-.069v-.069l-.287-.069v-.069h-.138l-.069-.138h-.115l-.138-.137h-.15v-.07h-.138l-.068-.137-.288-.07-.069-.137c-.238-.227-.517-.394-.62-.759h-.069c-.112-.198.097-1.04.138-1.103h.068a.774.774 0 0 0 .207-.345c.174-.073.336-.17.483-.287h.138v-.07l.483-.068v-.07h.287v-.068l1.517.069v.069h.207v.069h.138v.069h.207v.08l.287.069v.069h.207v.069h.138l.069.138h.127v.069l.287.207v.138l.138.069v.138h.069v.137l.138.07v.137h.069l.069.288h.069l.138.62h.069v.138h.069l.068.414c.098.207.288.21.345.483l.345.069v.069c.255.037.515.013.759-.07h.345v-.068l.62-.07v-.068h.288v-.07h.287v-.068h.287V62.7l.621-.069v-.069h.287v-.069h.288v-.069h.344v-.069h.288v-.069l.62-.069v-.069l.414-.069v-.069h.138l.069-.138h.138l.287-.344.138-.07v-.206h.069v-.207h.069l-.069-1.035h-.069v-.344h-.069v-.414h-.069v-.288h-.069v-.206h-.069v-.207h-.068v-.138h-.069v-.207h-.069v-.138h-.069v-.207h-.069l-.138-.414h-.15v-.138h-.069v-.138h-.069l-.138-.413-.206-.138-.069-.288-.138-.069c-.144-.215-.193-.416-.414-.551v-.138c-.377-.104-.514-.506-.828-.69v-.138a.806.806 0 0 1-.344-.207v-.069h-.138l-.069-.138h-.138l-.138-.206h-.138l-.069-.138h-.138l-.069-.138-.287-.07-.069-.137-.621-.207v-.07l-.287-.068v-.069l-1.655-.552h-.552c-.79-.227-1.756-.184-2.759-.207h-.287v-.069c-.365-.103-.816.055-1.103.07h-.897v.068l-1.034.07v.068h-.345v.07l-.414.068v.08h-.138v.07l-.414.069v.069h-.138v.08h-.195v.069h-.207v.069l-.414.138v.069l-.287.069v.069l-.207.069-.069.138-.287.069-.069.138h-.138l-.207.287h-.138l-.207.287h-.138v.07l-.287.206v.138l-.483.414-.069.207-.207.138v.138l-.138.068-.069.207h-.069v.104l-.138.069v.138l-.138.069-.068.287h-.069v.138h-.069l-.138.414h-.069l-.069.414h-.069v.138h-.069v.206h-.012v.138h-.069v.207h-.069v.207h-.069v.287h-.08v.552c-.089.313-.267 1.529-.138 2.012h.069l.069 1.24h.069v.208h.069v.172h.069v.207h.08l.069.483h.069l.138.414h.069v.138h.069l.138.413.138.07v.137l.138.07v.137l.138.07v.16l.207.138v.138l.345.287v.138l.137.138h.138l.288.345h.138l.344.414h.138l.414.482h.138l.069.138h.127l.068.138h.138l.069.138h.138l.069.138.288.07.069.137h.137l.138.138h.138v.069h.138v.069h.138v.046h.138v.069l.414.138v.08h.207v.07h.138v.068h.207v.07l.287.068v.069l.414.069v.069l.345.069v.069h.137v.069h.207v.069l.288.069v.069l.414.069v.069h.137v.069h.207v.046l.345.069v.069h.138v.069h.207v.08l.287.069v.069l.414.069v.08h.138v.07h.207v.068l.287.07v.068l.621.207.138.207h.138l.069.138h.138l.689.758v.138h.069l.069.414h.069c.063.244-.368 1.08-.483 1.172h-.137l-.138.207h-.138l-.069.138h-.138c-.627.354-1.21.483-2.207.483h-.609v-.069h-.288v-.069h-.287l-.965-.483-.138-.206h-.138l-.138-.138v-.138l-.207-.138v-.138l-.138-.07-.207-.62h-.069l-.069-.287h-.069l-.069-.552h-.069v-.287h-.069l-.069-.552h-.069v-.138c-.02-.034-.094-.057-.138-.138a1.899 1.899 0 0 0-1.172.138l-.896.138v.069h-.345c-.722.23-1.627.39-2.345.62h-.345v.07c-.359.117-.862.046-1.103.287-.38.23-.495.977-.345 1.517v.552l.414 1.793h.069l.069.287h.069v.207h.069l.137.414h.069v.115h.069l.138.414.138.069.069.287.138.069v.138h.069l.069.207.138.069v.138l.207.138v.138l.483.413.62.69h.138l.138.207.207.069.069.138.287.069.138.207.414.138v.069h.15v.068h.137v.07h.138v.068l.414.138v.07h.207v.068h.138v.07h.207v.068h.138v.07l.483.068v.069h.287v.069h.345v.069h.345v.069h.287v.069l1.793.138h.69v.069l1.793-.07v-.068h.827v-.07h.391v-.068l1.437-.207v-.069l.62-.138v-.069h.138v-.069h.207v-.069h.207v-.057l.414-.138v-.07h.138v-.08h.138V80.7h.149v-.069l.414-.137.069-.138h.138l.069-.138h.138v-.07l.207-.068.069-.138h.137l.069-.138.207-.069.345-.414h.138l.414-.482.138-.07v-.137l.287-.207v-.138l.287-.207v-.138l.207-.138v-.138l.115-.057v-.138l.138-.07.069-.287.138-.069.069-.287h.069l.138-.414h.069v-.207h.069V76h.069v-.207h.069l.069-.288h.069l.069-.483h.046v-.206h.069l.069-.621h.069v-.828a6.74 6.74 0 0 0-.288-2.069l-.037-.462zm-61.033-8.62c0-.616.072-1.437-.069-1.932l-.138-1.24h-.069l-.066-.4h-.069v-.138h-.069l-.069-.414h-.08v-.138h-.07v-.207h-.068l-.138-.414h-.069v-.138h-.069v-.207l-.138-.068-.069-.288h-.069l-.069-.207-.138-.069v-.138l-.138-.069v-.138l-.206-.137v-.138l-.288-.207v-.138l-.483-.417-.069-.138h-.138l-.137-.207h-.138l-.138-.206h-.138l-.138-.207h-.138l-.138-.207h-.138l-.069-.138-.287-.07v-.068H69.4v-.07l-.414-.137v-.055h-.207v-.069h-.138v-.069l-.413-.138v-.068l-.69-.138v-.092h-.207v-.07h-.207v-.068h-.287v-.07l-.828-.068c-.833-.239-2.132-.138-3.16-.138l-2.621.069v.069h-.345v.069h-.345v.069h-.207v.069h-.195v.069h-.138v.069l-.69.138v.08h-.138v.069h-.184v.069h-.206v.069h-.138v.08h-.23v.07h-.138v.068h-.138v.07l-.207.068-.069.138-.287.07-.07.137h-.137l-.07.138h-.137a4.616 4.616 0 0 0-1.103 1.034h-.139c-.083.288-.215.236-.344.414v.138l-.207.138v.138l-.138.069-.07.207h-.068v.138l-.138.069-.069.207h-.069l-.138.413h-.069v.138h-.069v.138h-.069l-.138.414h-.069l-.206.897h-.07v.206h-.068v.138h-.07v.288h-.034v.345h-.069l-.069 1.724c-.138.497-.069 1.316-.069 1.93v8.07c0 .861-.051 1.87.138 2.551l.138 1.31h.07v.207h.068l.069.288h.069l.138.69h.069l.138.413h.069v.092h.069v.138h.069v.15h.069v.137l.138.138v.138h.046l.069.207.137.069v.138l.138.069v.138l.138.069v.138l.69.62.62.69h.139l.069.138h.137l.138.207h.138l.07.138.287.069.137.206h.138v.07l.414.137v.07h.207v.068h.138v.08l.62.139v.069l.288.069v.069h.207v.069l.62.069v.069h.345v.069h.345v.068l.69.07v.068h3.655a7.797 7.797 0 0 0 2.138-.287h.414v-.069h.287v-.069l.483-.069v-.069l.344-.069v-.069h.127v-.069l.414-.069v-.069l.413-.138v-.069h.138V80.7h.184v-.069h.138v-.068h.15l.138-.207h.149l.069-.138h.138l.138-.207h.138l.138-.207h.138l.069-.138h.138l.138-.207.482-.414v-.138l.345-.287v-.138l.207-.138v-.138l.138-.069v-.138l.138-.069.069-.207h.069l.069-.287.138-.069v-.207h.069v-.126h.046v-.138h.069l.137-.414h.08l.07-.414h.069v-.183h.069v-.138h.08v-.207h.07l.068-.552h.07v-.552c.195-.666.137-1.68.137-2.551V62.23l-.003-.015zm-7.379 5.103v5.172h-.069v.287h-.078v.207h-.068l-.07.345h-.068l-.07.287h-.068l-.07.288-.206.138-.07.207h-.137l-.069.137c-.365.217-.76.38-1.172.483h-1.242c-.75 0-1.437-.106-1.862-.414l-.287-.344-.207-.138v-.138l-.138-.07v-.18l-.138-.07v-.137l-.138-.07-.069-.344h-.069c-.195-.575-.069-1.514-.069-2.207v-7.586l.07-1.586h.068l.138-.69.138-.069v-.137l.69-.759.287-.069.07-.138h.206v-.069h.207v-.069c.253-.086.445.02.62-.138 1.262 0 2.242.038 2.966.552v.08l.287.207v.138l.207.138.07.288h.068v.137h.07l.137.414h.069v.287h.069v.288h.069v.345h.069l-.14 4.997zm-38.895-8.276v-.345h-.07v-.342l-.689-1.655-.146-.069v-.138h-.07l-.068-.207-.138-.069v-.137l-.138-.07-.07-.206-.287-.207v-.138l-.827-.759h-.127l-.206-.287h-.138l-.138-.207h-.138l-.07-.138h-.137l-.07-.138-.413-.138v-.069h-.126v-.069h-.138v-.069h-.15v-.069l-.413-.138v-.069l-.414-.069v-.057h-.138v-.069l-.483-.069v-.069h-.207v-.08h-.207v-.07h-.413v-.068h-.345v-.07h-2.265v.07h-.62v.069h-.345v.069h-.345v.069h-.207v.069h-.207v.069h-.138l-.069.137-.287.07v.068l-.287.07v.068l-.345.07-.07.137h-.137l-.138.207H15l-.287.345h-.115l-.07.138-.482.414v.138l-.345.287-.069.207-.138.069-.069.287-.137.07-.07.206h-.057l-.069.287-.138.07v.137h-.08v.207h-.07v.127h-.068l-.15.399h-.069v.207h-.069v.138h-.068l-.207 1.241h-.07v.287h-.068l-.07 1.862h.07v.621h.069v.552h.069l.069.62h.069v.207h.069c.12.332.143.69.069 1.035l-.621.207v.069h-.138v.069h-.253v.069l-.414.138v.069h-.16v.069h-.139v.069h-.138l-.137.137h-.138l-.07.138h-.137v.07h-.138l-.138.137h-.115l-.138.207h-.15l-.068.138-.207.069v.069h-.14l-.138.207h-.138L7.701 67.11h-.138a.534.534 0 0 1-.138.287h-.07v.138l-.137.069v.069l-.138.069v.138l-.138.069v.138l-.207.138-.9 1.91v.345h-.068l-.078 1.112H5.62v.966h.07v.758h.068v.345h.069l.069.414h.08v.138h.07l.068.414h.07v.138h.08l.069.345.138.069v.129h.069v.138h.069v.15l.138.137v.15l.137.069.07.206.206.138v.138l.288.207v.138l.138.069v.138l.115.046.413.483h.138l.288.344h.138v.07l.206.137.138.207 1.931 1.035.897.207v.069h.207v.069h.207v.069h.321v.069h.483v.068h.966v.07l2.344.068c.44 0 1.604-.034 1.794-.207h.551v.07h.07v.068h.068v.138h.07v.138h.068l.069.288h.069v.207h.069l.069.413h.069v.138l.138.07v.137h.069v.138h.069l.069.207c.195.04.382.158.551.207l.69-.07v-.068h.138v-.07l.62-.137v-.069h.207v-.069h.138v-.069h.207v-.069l.414-.069v-.069h.138v-.069l1.655-.552v-.068l.207-.138v-.138h.069l.069-.345h.069c-.075-.595-.368-.986-.552-1.437l-.069-.483h.07c.1-.379.361-.267.689-.413v-.07l.287-.068v-.07l.414-.068v-.07l.287-.068v-.07l.414-.137v-.069h.138c.164-.09.27-.23.483-.287.054-.253.215-.454.287-.69v-.287h-.069v-.345h-.069l-.069-.414h-.069v-.138h-.08l-.07-.345h-.068v-.138h-.07v-.207h-.08v-.195h-.069v-.207h-.068v-.207h-.07v-.138h-.08l-.207-.62h-.069l-.069-.288h-.069v-.207h-.069l-.069-.344h-.069l-.069-.288h-.069v-.138l-.206-.069-.207-.287a3.447 3.447 0 0 0-1.173.138v.069l-.287.069v.069h-.138v.069h-.207v.069l-.287.069v.069l-.414.069v.092h-.207v.069a.783.783 0 0 1-.69-.07c-.26-.169-.21-.465-.344-.758h-.07v-.138h-.068l-.07-.287h-.045l-.07-.414h-.068v-.126h-.069v-.207h-.069l-.069-.288h-.069l-.069-.344h-.069v-.207h-.069l-.069-.288h-.069v-.287h-.069v-.207h.07c.114-.368.177-.152.482-.287v-.07l.414-.137v-.07l.414-.068 1.655-.897.092-.092h.138l.069-.138h.137l.07-.138h.137l.288-.344h.138l.62-.69.414-.345v-.138l.287-.207v-.138l.288-.206v-.138l.207-.138v-.138l.138-.07v-.137l.137-.069.07-.287.137-.07.07-.287h.068l.138-.413h.07v-.207h.068v-.207h.07v-.207h.068v-.172h.07v-.139h.068v-.206h.069v-.345h.069c.107-.684.13-1.38.069-2.07l-.106-.002zm-11.184 14.83h-.066v.138c0 .023-.098.072-.138.138-.652.017-1.207.103-1.793-.069h-.345v-.069l-.552-.069v-.069l-.287-.069v-.069l-.287-.069-.07-.138h-.137v-.069l-.287-.207-.138-.413h-.07V72.7h-.068a3.366 3.366 0 0 1-.07-1.173h.07l.207-.62.137-.07.288-.344h.138v-.07h.138l.069-.137.413-.138v-.069h.138v-.069h.207v-.069h.138v-.069h.287v-.069h.575c.043.075.118.104.138.138v.138h.07l.068.345h.069v.138h.069l.069.414h.069v.138h.069v.206h.069l.069.288h.069v.207h.069v.207h.069v.206h.069v.207h.069v.207h.046l.069.288h.069l.149.655h.069l-.003.287zm5.172-13.31c-.023.483-.574 1.04-.896 1.242h-.138l-.138.137h-.138v.07h-.138v.08h-.138v.069l-.287.069v.069h-.204v.069h-.138v.069l-.414.069v.069h-.552l-.069-.138h-.069l-.068-.207h-.07v-.207h-.057v-.218h-.069v-.288h-.069v-.207h-.069v-.287h-.08v-.552h-.07v-.069h.07v-.827h.069v-.207h.069v-.138h.069v-.207h.08v-.138h.069v-.138l.138-.069v-.138l.207-.069.069-.138h.138v-.069l.345-.069v-.069c.98-.023 1.373 0 1.93.414l.207.288.288.206.069.345h.069v.138h.069c.043.35.015.705-.084 1.043v.003z" fill="#fff"/></svg>