<svg width="122" height="16" viewBox="0 0 122 16" fill="none" xmlns="http://www.w3.org/2000/svg"><g clip-path="url(#a)"><path d="M8.103.556l-2.04 4.138-4.566.665a1 1 0 0 0-.553 1.707l3.303 3.218-.781 4.547a1 1 0 0 0 1.45 1.053L9 13.737l4.084 2.147c.725.381 1.591-.231 1.45-1.053l-.78-4.547 3.302-3.218a1 1 0 0 0-.553-1.707l-4.566-.665L9.898.556C9.53-.18 8.472-.19 8.103.556z" fill="#5ECFB4"/></g><g clip-path="url(#b)"><path d="M34.103.556l-2.04 4.138-4.566.665a1 1 0 0 0-.553 1.707l3.303 3.218-.781 4.547a1 1 0 0 0 1.45 1.053L35 13.737l4.084 2.147c.725.381 1.591-.231 1.45-1.053l-.78-4.547 3.302-3.218a1 1 0 0 0-.553-1.707l-4.566-.665-2.04-4.138c-.366-.737-1.425-.747-1.794 0z" fill="#5ECFB4"/></g><g clip-path="url(#c)"><path d="M60.103.556l-2.04 4.138-4.566.665a1 1 0 0 0-.553 1.707l3.303 3.218-.781 4.547a1 1 0 0 0 1.45 1.053L61 13.737l4.084 2.147c.725.381 1.591-.231 1.45-1.053l-.78-4.547 3.302-3.218a1 1 0 0 0-.553-1.707l-4.566-.665-2.04-4.138c-.366-.737-1.425-.747-1.794 0z" fill="#5ECFB4"/></g><g clip-path="url(#d)"><path d="M86.103.556l-2.04 4.138-4.566.665a1 1 0 0 0-.553 1.707l3.303 3.218-.781 4.547a1 1 0 0 0 1.45 1.053L87 13.737l4.084 2.147c.725.381 1.591-.231 1.45-1.053l-.78-4.547 3.302-3.218a1 1 0 0 0-.553-1.707l-4.566-.665-2.04-4.138c-.366-.737-1.425-.747-1.794 0z" fill="#5ECFB4"/></g><g clip-path="url(#e)"><path d="M112.103.556l-2.04 4.138-4.566.665a1 1 0 0 0-.553 1.707l3.303 3.218-.781 4.547a1 1 0 0 0 1.45 1.053L113 13.737l4.084 2.147c.725.381 1.591-.231 1.45-1.053l-.781-4.547 3.303-3.218a1 1 0 0 0-.553-1.707l-4.565-.665-2.041-4.138c-.366-.737-1.425-.747-1.794 0z" fill="#5ECFB4"/></g><defs><clipPath id="a"><path fill="#fff" d="M0 0h18v16H0z"/></clipPath><clipPath id="b"><path fill="#fff" transform="translate(26)" d="M0 0h18v16H0z"/></clipPath><clipPath id="c"><path fill="#fff" transform="translate(52)" d="M0 0h18v16H0z"/></clipPath><clipPath id="d"><path fill="#fff" transform="translate(78)" d="M0 0h18v16H0z"/></clipPath><clipPath id="e"><path fill="#fff" transform="translate(104)" d="M0 0h18v16H0z"/></clipPath></defs></svg>