<svg width="42" height="42" viewBox="0 0 42 42" fill="none" xmlns="http://www.w3.org/2000/svg"><path d="M14.559 2.85c5.019 0 7.799 2.929 8.562 4.393 0-1.148-.276-3.444-1.5-4.79-1.223-1.345-6.786-3.826-12.467-1.49C3.472 3.297 0 7.242 0 14.724S5.854 28.26 9.114 31.153C12.074 33.78 20.661 39.308 24.896 42c2.525-1.795 8.515-6.207 12.27-9.5 4.696-4.118 5.09-7.931 4.735-12.14-.422-5.001-6.628-9.95-13.296-8.762-6.668 1.188-6.55 5.344-6.51 5.344 5.603-5.305 11.087-3.206 13.533-1.663 2.446 1.544 5.208 7.007 2.446 11.52-2.21 3.61-9.706 8.92-13.178 11.124-2.288-1.425-7.56-4.774-10.337-6.77-3.472-2.493-10.353-8.878-10.732-15.32C3.472 9.79 8.286 2.85 14.56 2.85z" fill="#191919"/></svg>