<svg width="61" height="50" viewBox="0 0 61 50" fill="none" xmlns="http://www.w3.org/2000/svg"><g clip-path="url(#a)"><path d="M20.482 38.158l10.017-9.65m-10.017 9.65l-8.718-8.333m8.718 8.333L30.5 48.246m0 0l29.193-28.07L40.521 1.753 30.499 11.842m0 36.404l10.022-10.088-10.022-9.65m0-16.666L20.482 1.754 1.742 20.175l10.022 9.65m18.735-17.983L11.764 29.825m18.735-17.983l8.715 7.895m-27.45 10.088l10.053-9.65 8.682 8.334m19.158 1.316L39.214 19.737m0 0l-8.715 8.772" stroke="url(#b)" stroke-width="2"/></g><defs><linearGradient id="b" x1="15.793" y1="13.728" x2="40.298" y2="44.446" gradientUnits="userSpaceOnUse"><stop stop-color="#0075FD"/><stop offset="1" stop-color="#0075FD" stop-opacity=".5"/></linearGradient><clipPath id="a"><path fill="#fff" d="M0 0h61v50H0z"/></clipPath></defs></svg>