<svg width="42" height="50" viewBox="0 0 42 50" fill="none" xmlns="http://www.w3.org/2000/svg"><g clip-path="url(#a)" stroke-width="2"><path d="M9.108 2.222L-7.777 25.104 9.108 47.986l16.885-22.882L9.108 2.222z" stroke="url(#b)"/><path d="M4.44 2.222l-16.885 22.882L4.44 47.986l16.885-22.882L4.44 2.222z" stroke="url(#c)"/><path d="M-.226 2.222l-16.885 22.882L-.226 47.986l16.885-22.882L-.226 2.222z" stroke="url(#d)"/><path d="M25.515 5.283L10.889 25.104l14.626 19.82 14.626-19.82-14.626-19.82z" stroke="url(#e)"/></g><defs><linearGradient id="b" x1=".411" y1="14.008" x2="24.09" y2="31.581" gradientUnits="userSpaceOnUse"><stop stop-color="#0075FD"/><stop offset="1" stop-color="#0075FD" stop-opacity=".5"/></linearGradient><linearGradient id="c" x1="-4.257" y1="14.008" x2="19.422" y2="31.581" gradientUnits="userSpaceOnUse"><stop stop-color="#0075FD"/><stop offset="1" stop-color="#0075FD" stop-opacity=".5"/></linearGradient><linearGradient id="d" x1="-8.923" y1="14.008" x2="14.756" y2="31.581" gradientUnits="userSpaceOnUse"><stop stop-color="#0075FD"/><stop offset="1" stop-color="#0075FD" stop-opacity=".5"/></linearGradient><linearGradient id="e" x1="17.981" y1="15.492" x2="38.493" y2="30.714" gradientUnits="userSpaceOnUse"><stop stop-color="#0075FD"/><stop offset="1" stop-color="#0075FD" stop-opacity=".5"/></linearGradient><clipPath id="a"><path fill="#fff" d="M0 0h42v50H0z"/></clipPath></defs></svg>