<svg width="136" height="62" viewBox="0 0 136 62" fill="none" xmlns="http://www.w3.org/2000/svg"><g clip-path="url(#a)"><path d="M84.835 27.133a3.4 3.4 0 0 1-.876.29c-.335.068-.7.103-1.095.103-.703 0-1.335-.11-1.889-.328a3.844 3.844 0 0 1-1.411-.948 4.202 4.202 0 0 1-.89-1.486c-.205-.578-.308-1.228-.308-1.953 0-.798.103-1.505.309-2.122.206-.618.502-1.137.889-1.558a3.712 3.712 0 0 1 1.399-.954 4.93 4.93 0 0 1 1.821-.322c.515 0 .933.037 1.257.112.322.076.59.159.804.248l-.219 1.06a4.315 4.315 0 0 0-.863-.228 5.563 5.563 0 0 0-.863-.067c-1.074 0-1.891.314-2.453.94-.561.626-.845 1.55-.845 2.767 0 .583.08 1.104.24 1.567.16.462.384.851.675 1.168.291.317.65.559 1.07.726.419.166.896.247 1.429.247.283 0 .57-.027.858-.081.288-.054.543-.14.768-.255l.193 1.074zm7.226-3.841h-3.993V22.23h3.993v1.062zm10.19 4.096h-1.159v-8.274h-4.264v8.274h-1.16v-9.403h6.583v9.403zm10.202 0h-1.16v-8.275h-3.091a84.415 84.415 0 0 1-.09 3.581c-.052 1.043-.16 1.921-.327 2.633-.168.712-.415 1.252-.742 1.617-.328.368-.766.551-1.314.551-.121 0-.214-.008-.284-.021a1.69 1.69 0 0 1-.232-.062v-1.166a.84.84 0 0 0 .188.032 2 2 0 0 0 .189.008c.231 0 .435-.097.613-.29.175-.193.322-.553.438-1.083.116-.529.206-1.26.27-2.194.065-.935.106-2.152.121-3.649l.013-1.088h5.41v9.406h-.002zm10.241.135a4.06 4.06 0 0 1-1.572-.296 3.374 3.374 0 0 1-1.219-.86 4.052 4.052 0 0 1-.803-1.396c-.199-.556-.31-1.19-.335-1.908h-1.546v4.325h-1.159v-9.402h1.159v3.976h1.571c.06-.645.199-1.223.413-1.733.213-.51.492-.94.829-1.29.34-.349.732-.617 1.18-.805a3.68 3.68 0 0 1 1.443-.282c1.27 0 2.262.41 2.97 1.23.709.82 1.062 2.02 1.062 3.605 0 .787-.098 1.486-.289 2.09-.19.605-.463 1.11-.811 1.518a3.278 3.278 0 0 1-1.258.919 4.21 4.21 0 0 1-1.635.309zm.103-1.129c.806 0 1.45-.3 1.932-.9.482-.599.721-1.536.721-2.807 0-.698-.069-1.284-.206-1.76-.136-.475-.327-.856-.574-1.15a2.02 2.02 0 0 0-.882-.617 3.385 3.385 0 0 0-1.133-.18c-.369 0-.719.072-1.051.223-.33.148-.621.373-.871.677-.25.303-.446.69-.593 1.155-.146.465-.219 1.015-.219 1.652 0 .645.07 1.201.207 1.666.136.464.332.849.587 1.147.252.3.556.524.907.671.355.148.744.223 1.175.223zm13.19.739a3.43 3.43 0 0 1-.876.29 5.576 5.576 0 0 1-1.095.103c-.703 0-1.334-.11-1.888-.328a3.84 3.84 0 0 1-1.412-.948 4.207 4.207 0 0 1-.889-1.486c-.206-.578-.309-1.228-.309-1.953 0-.798.103-1.505.309-2.122a4.274 4.274 0 0 1 .889-1.558 3.71 3.71 0 0 1 1.399-.954 4.93 4.93 0 0 1 1.821-.322c.516 0 .933.037 1.258.112.322.076.59.159.803.248l-.219 1.06a4.31 4.31 0 0 0-.863-.228 5.556 5.556 0 0 0-.863-.067c-1.074 0-1.891.314-2.452.94-.562.626-.845 1.55-.845 2.767 0 .583.08 1.104.239 1.567.16.462.384.851.675 1.168.291.317.649.559 1.069.726.42.166.897.247 1.43.247.284 0 .57-.027.858-.081a2.77 2.77 0 0 0 .768-.255l.193 1.074zM69.23 5.075h-.618V57.02h.618V5.075z" fill="#414042"/><path d="M79.298 45h-.927v-7.53h2.125c.412 0 .783.045 1.11.134.328.089.609.231.84.425.235.193.413.437.536.73.124.296.186.645.186 1.053 0 .782-.243 1.378-.727 1.792-.484.414-1.16.618-2.027.618h-1.116V45zm0-3.678h1.116c.577 0 1.017-.12 1.316-.365.299-.245.448-.618.448-1.12 0-.516-.149-.89-.448-1.12-.299-.23-.737-.345-1.316-.345h-1.116v2.95zm9.099 3.786a3.29 3.29 0 0 1-1.357-.269 2.912 2.912 0 0 1-1.033-.768 3.4 3.4 0 0 1-.655-1.222 5.34 5.34 0 0 1-.227-1.615c0-.602.08-1.142.237-1.62a3.61 3.61 0 0 1 .665-1.217 2.886 2.886 0 0 1 1.028-.768c.4-.18.835-.269 1.311-.269.536 0 1.01.094 1.42.285.41.19.752.457 1.033.795.278.342.49.75.634 1.225a5.4 5.4 0 0 1 .216 1.566c0 .64-.082 1.201-.247 1.685a3.501 3.501 0 0 1-.68 1.212 2.798 2.798 0 0 1-1.033.73c-.4.17-.838.25-1.312.25zm.093-.903c.68 0 1.216-.25 1.605-.746.39-.5.582-1.239.582-2.222 0-.516-.054-.962-.16-1.335a2.525 2.525 0 0 0-.458-.924 1.77 1.77 0 0 0-.726-.538 2.556 2.556 0 0 0-.964-.172 2.17 2.17 0 0 0-.886.183c-.276.12-.513.306-.711.548a2.75 2.75 0 0 0-.474.927 4.439 4.439 0 0 0-.175 1.31c0 .495.056.93.17 1.304.113.373.273.682.479.93.206.246.456.432.747.553.288.12.613.182.971.182zm10.525.591a2.685 2.685 0 0 1-.701.231 4.453 4.453 0 0 1-.876.081 4.113 4.113 0 0 1-1.512-.263 3.12 3.12 0 0 1-1.131-.758 3.36 3.36 0 0 1-.711-1.19 4.64 4.64 0 0 1-.248-1.566c0-.64.083-1.206.248-1.7.165-.495.402-.911.71-1.25.31-.338.684-.59 1.119-.763a3.958 3.958 0 0 1 1.46-.258c.413 0 .748.03 1.005.092.258.062.475.126.644.199l-.175.848a3.362 3.362 0 0 0-.69-.182 4.682 4.682 0 0 0-.69-.054c-.861 0-1.515.25-1.966.752-.451.502-.675 1.241-.675 2.216 0 .468.064.884.19 1.255.127.368.307.682.541.935.235.255.52.449.856.58.337.132.719.199 1.146.199.227 0 .456-.022.686-.065.229-.042.435-.11.613-.204l.157.865zm6.49-1.808h-3.084L101.72 45h-.938l2.754-7.53h.928l2.702 7.53h-.968l-.693-2.012zm-2.788-.882h2.486l-1.208-3.538h-.041l-1.237 3.538zM110.95 45h-.927v-6.628h-2.136v-.902h5.199v.902h-2.136V45zm6.957.108a3.29 3.29 0 0 1-1.358-.269 2.911 2.911 0 0 1-1.033-.768 3.41 3.41 0 0 1-.655-1.222 5.34 5.34 0 0 1-.226-1.615c0-.602.08-1.142.237-1.62.157-.478.381-.88.664-1.217a2.889 2.889 0 0 1 1.028-.768c.4-.18.835-.269 1.312-.269.536 0 1.01.094 1.419.285.41.19.753.457 1.033.795.279.342.49.75.634 1.225.144.479.217 1 .217 1.566 0 .64-.083 1.201-.248 1.685a3.495 3.495 0 0 1-.68 1.212 2.795 2.795 0 0 1-1.033.73c-.402.17-.837.25-1.311.25zm.092-.903c.681 0 1.216-.25 1.605-.746.389-.5.583-1.239.583-2.222a4.93 4.93 0 0 0-.16-1.335 2.521 2.521 0 0 0-.459-.924 1.768 1.768 0 0 0-.726-.538 2.557 2.557 0 0 0-.964-.172c-.317 0-.613.062-.886.183a1.9 1.9 0 0 0-.711.548 2.758 2.758 0 0 0-.474.927 4.436 4.436 0 0 0-.175 1.31c0 .495.056.93.17 1.304.113.373.273.682.479.93.206.246.456.432.747.553.289.12.613.182.971.182zm12.712.795h-.928l-.443-5.886L127.514 45h-.969l-1.816-5.865-.454 5.865h-.93l.619-7.53h1.133l1.95 6.477 1.909-6.477h1.134l.621 7.53z" fill="#035FA2"/><path d="M34.59 35.418c-2.309 2.665-6.243 2.866-8.79.454-2.549-2.413-2.747-6.531-.441-9.196 2.308-2.665 6.245-2.864 8.793-.454 2.545 2.415 2.743 6.53.438 9.196z" fill="url(#b)"/><path d="M31.593 8.782a22.3 22.3 0 0 1 1.443 1.628c2.504 3.13 3.676 6.203 3.676 6.203a18.43 18.43 0 0 0 4.483.322c.09-.005.173-.005.266-.01.082-.008.16-.02.242-.024 3.08-.29 7.084-1.521 10.743-5.346.126-.132.252-.272.376-.409a32.166 32.166 0 0 0-1.783-2.063C40.41-1.969 23.818-2.931 12.14 6.173c9.165-4.628 15.512-1.434 19.454 2.61z" fill="url(#c)"/><path d="M10.488 40.355a23.5 23.5 0 0 1 .631-2.117c1.348-3.825 3.316-6.42 3.316-6.42a20.365 20.365 0 0 0-1.973-4.21c-.05-.078-.09-.156-.142-.233-.046-.07-.095-.137-.142-.207-1.785-2.641-4.81-5.64-9.815-7.03-.173-.05-.35-.092-.529-.135a33.6 33.6 0 0 0-.824 2.64c-3.86 15.125 3.635 30.591 17.034 36.582-8.421-5.959-8.942-13.287-7.556-18.87z" fill="url(#d)"/><path d="M47.334 43.662c-.706.205-1.401.366-2.074.49-3.851.695-6.99.217-6.99.217a20.106 20.106 0 0 0-2.509 3.887c-.038.083-.082.161-.12.247-.037.078-.065.153-.101.231-1.301 2.928-2.277 7.16-.93 12.377.046.177.1.362.152.545a29.217 29.217 0 0 0 2.605-.58C51.858 57 60.955 42.499 59.229 27.4c-.74 10.588-6.564 14.725-11.895 16.261z" fill="url(#e)"/><path d="M12.14 6.173s-6.47 4.223-9.85 12.704c.887.162 9.909 2.058 13.271 12.514.822-.548 3.347-2.625 5.042-8.352 2.05-6.923 5.943-12.033 10.99-14.257 0 0-6.392-9.502-19.453-2.609z" fill="url(#f)"/><path d="M32.637 56.025c-.003-3.511.932-8.156 4.67-12.532l.042-.067c-.61-.68-2.747-2.356-8.242-1.05-6.776 1.611-14.25 1.423-18.621-2.023 0 0-4.694 10.525 7.561 18.872 0 0 6.735 3.723 15.455 2.544-.154-.452-.865-2.663-.865-5.744z" fill="url(#g)"/><path d="M53.602 12.16c-.963 1.219-5.544 6.224-13.188 6.229-1.231 0-2.537-.129-3.918-.427l-.065-.016c-.252.964-.46 3.696 3.272 7.89 4.723 5.314 8.306 12.159 7.631 17.827 0 0 11.089-1.024 11.892-16.264-.002 0-.275-7.949-5.624-15.24z" fill="url(#h)"/></g><defs><radialGradient id="b" cx="0" cy="0" r="1" gradientUnits="userSpaceOnUse" gradientTransform="matrix(8.75864 .00878 -.00918 9.15939 27.984 27.42)"><stop stop-color="#4495D1"/><stop offset="1" stop-color="#15256D"/></radialGradient><linearGradient id="c" x1="21.425" y1="2.084" x2="47.923" y2="12.317" gradientUnits="userSpaceOnUse"><stop stop-color="#4495D1"/><stop offset="1" stop-color="#15256D"/></linearGradient><linearGradient id="d" x1="10.01" y1="52.886" x2="5.708" y2="23.775" gradientUnits="userSpaceOnUse"><stop stop-color="#4495D1"/><stop offset="1" stop-color="#15256D"/></linearGradient><linearGradient id="e" x1="57.98" y1="37.829" x2="35.042" y2="55.056" gradientUnits="userSpaceOnUse"><stop stop-color="#4394D1"/><stop offset="1" stop-color="#282E6B"/></linearGradient><linearGradient id="f" x1="10.944" y1="22.998" x2="23.425" y2="4.631" gradientUnits="userSpaceOnUse"><stop stop-color="#4495D1"/><stop offset="1" stop-color="#15256D"/></linearGradient><linearGradient id="g" x1="33.225" y1="49.874" x2="12.08" y2="51.941" gradientUnits="userSpaceOnUse"><stop stop-color="#4495D1"/><stop offset="1" stop-color="#15256D"/></linearGradient><linearGradient id="h" x1="46.828" y1="18.007" x2="51.497" y2="40.605" gradientUnits="userSpaceOnUse"><stop stop-color="#4495D1"/><stop offset="1" stop-color="#15256D"/></linearGradient><clipPath id="a"><path fill="#fff" d="M0 0h136v62H0z"/></clipPath></defs></svg>