<svg width="274" height="264" viewBox="0 0 274 264" fill="none" xmlns="http://www.w3.org/2000/svg"><g clip-path="url(#a)"><path opacity=".5" d="M20.77 58.328c-6.448 3.554.848 11.163 2.906 13.114-1.15 2.512-2.028 4.902-2.664 7.11-1.347-3.283-.212-6.762-1.695-8.501-1.65-1.951-4.677-2.723-4.995 2.254-.242 3.933 4.465 6.307 6.433 7.11-1.044 3.841-1.423 7.124-1.529 9.529-2.088-3.51-1.226-7.639-3.118-9.409-2.073-1.936-5.524-2.39-5.207 3.131.258 4.569 6.236 6.535 8.295 7.08-.045 2.208.136 3.524.151 3.66a74.977 74.977 0 0 0 1.408 7.624c-1.922-3.04-1.847-6.656-3.784-8.017-2.316-1.619-5.797-1.603-4.723 3.827.848 4.296 6.57 5.491 8.916 5.809a67.866 67.866 0 0 0 5.01 13.251c-2.664-1.982-5.01-6.777-8.098-7.715-2.013-.605-3.209.333-3.86 1.24a3.088 3.088 0 0 0-.469 2.663c1.408 5.188 10.156 4.78 12.79 4.538a65.803 65.803 0 0 0 7.614 11.571c-1.393-1.013-3.482-2.556-4.526-3.403-1.65-1.331-4.586-2.269-6.494-1.543l-.227.091c-1.407.65-2.058 2.269-1.665 3.766 1.575 5.854 11.7 2.905 13.865 2.209.015.015.03.045.06.06 6.449 7.443 12.276 10.725 12.518 10.861l.5-.907c-.06-.031-5.6-3.162-11.715-10.044 4.389-8.713 1.195-13.977-1.242-14.008-2.528-.03-5.237 2.708-2.815 6.338 1.408 2.103 2.392 4.644 2.967 6.399a63.723 63.723 0 0 1-7.84-11.753c9.368-9.016 3.268-14.295.302-13.145-3.012 1.164-3.194 3.554-1.771 6.928.938 2.238 1.12 4.386 1.15 5.581a67.464 67.464 0 0 1-4.965-12.993c2.286-.348 8.098-1.634 8.886-5.99.968-5.446-2.498-5.4-4.799-3.737-2.104 1.528-1.725 5.779-4.268 9.016a72.025 72.025 0 0 1-1.695-8.698c-.015-.046-.379-2.708.106-6.959 2.346-.06 8.219-.62 9.535-4.825 1.65-5.279-1.8-5.672-4.283-4.31-2.21 1.21-2.422 5.263-5.131 8.152.5-3.615 1.604-8.213 3.92-13.296 2.422-.076 8.098-.71 9.384-4.825 1.65-5.28-1.8-5.673-4.283-4.311-2.24 1.24-2.437 5.385-5.237 8.274l-.106-.046c.257-1.467.802-4.598 1.15-6.065.454-1.982-.03-4.84-1.529-6.096-1.468-1.226-3.133-.59-3.133-.59z" fill="#DAEEF7"/><path d="M76.125 32.915c-9.536.09-5.903 13.25-4.768 16.745-2.861 2.148-5.328 4.326-7.417 6.46.5-4.569 3.92-7.851 3.315-10.725-.681-3.238-3.663-5.99-7.069-.515-2.71 4.341 1.211 9.938 2.952 12.071-3.557 3.736-6.01 7.246-7.614 9.923-.227-5.294 3.315-9.469 2.24-12.63-1.165-3.465-4.813-6.127-7.855.363-2.513 5.354 3.072 11.284 5.085 13.175-1.407 2.48-2.013 4.1-2.073 4.28a99.383 99.383 0 0 0-3.088 9.546c-.318-4.644 1.998-8.729.62-11.466-1.65-3.268-5.63-5.385-7.734 1.452-1.665 5.415 4.087 10.3 6.57 12.116a89.555 89.555 0 0 0-2.468 18.182c-1.816-3.902-1.529-10.815-4.465-13.765-1.923-1.936-3.875-1.603-5.162-.968a4.104 4.104 0 0 0-2.18 2.738c-1.604 6.792 8.628 11.708 11.792 13.039a84.742 84.742 0 0 0 1.544 17.88c-.954-2.012-2.392-5.053-3.073-6.656-1.06-2.541-3.83-5.4-6.448-5.748a2.277 2.277 0 0 0-.318-.03c-2.013-.137-3.754 1.316-4.223 3.267-1.816 7.639 11.549 10.513 14.455 11.042 0 .031.015.076.015.106 2.77 12.449 7.387 19.771 7.584 20.088l1.135-.726c-.046-.075-4.435-7.049-7.175-18.651 10.368-7.215 9.975-15.187 7.205-16.73-2.876-1.588-7.644-.136-7.114 5.491.303 3.267-.136 6.762-.56 9.121a84.033 84.033 0 0 1-1.695-18.212c16.24-4.508 12.532-14.28 8.43-14.794-4.147-.53-5.827 2.088-6.28 6.807-.319 3.131-1.424 5.688-2.135 7.064a87.982 87.982 0 0 1 2.346-17.864c2.83 1.013 10.232 3.116 13.804-1.377 4.465-5.597.47-7.7-3.163-7.2-3.345.454-5.525 5.536-10.43 7.654.879-3.54 1.999-7.2 3.437-10.952.015-.06 1.241-3.312 4.42-7.865 2.709 1.376 9.747 4.34 13.834.363 5.131-4.992 1.438-7.579-2.225-7.548-3.27.03-6.009 4.507-10.868 6.126 2.785-3.812 6.872-8.38 12.654-12.752 2.816 1.407 9.657 4.175 13.668.287 5.131-4.991 1.438-7.578-2.225-7.548-3.315.03-6.085 4.644-11.064 6.202l-.091-.12c1.195-1.529 3.738-4.736 5.04-6.218 1.74-1.966 2.952-5.521 2.013-7.88-.893-2.345-3.178-2.648-3.178-2.648z" fill="#FEE5BF"/><path d="M41.203 108.533c-2.361-.424-4.435.151-6.025 1.649-2.21 2.102-3.435 5.99-3.632 11.587a47.233 47.233 0 0 0 .03 3.918 44.04 44.04 0 0 0-2.376-3.162c-3.542-4.326-6.872-6.686-9.9-7.034-2.179-.242-4.177.56-5.796 2.33-2.952 3.222-3.482 6.761-1.438 9.741 1.604 2.345 4.737 4.1 8.582 4.795 3.602.651 7.462.363 10.989-.832.302-.106.62-.211.923-.332l.484-.182 1.09-.318c.318-.09.62-.181.939-.287 3.526-1.195 6.796-3.298 9.248-5.99 2.634-2.889 4.072-6.172 3.935-9.016-.181-3.585-2.755-6.096-7.053-6.867zM15.047 125.55c-1.06-1.543-.68-3.312 1.12-5.279.545-.59 1.06-.907 1.53-1.059.468-.166.892-.151 1.21-.121 1.998.227 4.647 2.239 7.477 5.688a47.308 47.308 0 0 1 2.77 3.766c-6.009 1.513-12.139-.121-14.107-2.995zm29.622-9.938c.182 3.479-3.708 8.486-9.43 10.906-.076-1.255-.136-2.904-.076-4.659.167-4.462 1.06-7.669 2.513-9.045.242-.227.56-.484 1.044-.636.47-.151 1.06-.226 1.862-.075 2.604.454 3.981 1.633 4.087 3.509z" fill="#FF5B7E"/><path d="M71.689 169.493l-43.88 14.779a4.513 4.513 0 0 1-5.722-2.829L9.055 142.749a4.508 4.508 0 0 1 2.83-5.717l43.88-14.779a4.513 4.513 0 0 1 5.722 2.829l13.032 38.678a4.519 4.519 0 0 1-2.83 5.733z" fill="#FEB546"/><path d="M68.01 144.428l-52.433 17.653-6.115-18.122a5.794 5.794 0 0 1 3.648-7.351l41.443-13.932a5.8 5.8 0 0 1 7.356 3.645l6.1 18.107z" fill="#F4A640"/><path d="M66.904 138.15l-54.248 18.273a2.968 2.968 0 0 1-3.769-1.875l-4.056-11.996a2.965 2.965 0 0 1 1.877-3.766l54.248-18.258a2.97 2.97 0 0 1 3.769 1.876l4.041 12.01c.545 1.528-.303 3.222-1.862 3.736z" fill="#FEB546"/><path d="M40.114 127.528l-11.949 4.022 15.92 47.235 11.949-4.022-15.92-47.235z" fill="#FF5B7E"/><path d="M46.066 145.175l-11.949 4.022 2.01 5.964 11.95-4.022-2.01-5.964z" fill="#E03268"/><path d="M253.962 103.842l-53.344-19.569-23.753 64.671 53.344 19.568 23.753-64.67z" fill="#FEB546"/><path d="M227.298 94.052l-26.672-9.784-23.753 64.67 26.672 9.784 23.753-64.67z" fill="#F4A640"/><path d="M208.506 93.467a1.094 1.094 0 0 1-.545-1.497c.923-1.86 3.103-5.884 6.433-9.605 6.009-6.702 12.805-9.107 19.662-6.928 3.814 1.21 6.63 3.57 8.416 7.018 4.011 7.806 1.483 18.863.514 22.388a1.104 1.104 0 0 1-1.392.756 1.104 1.104 0 0 1-.727-1.331c.878-3.268 3.285-13.78-.348-20.8-1.498-2.904-3.89-4.9-7.129-5.929-6.07-1.92-11.912.197-17.361 6.293-3.133 3.51-5.237 7.366-6.1 9.106a1.079 1.079 0 0 1-1.423.53z" fill="#DAEEF7"/><path d="M36.073 150.161c5.737.953 10.277 3.056 13.85 5.824-.666 2.375-1.408 5.219-1.408 5.219l3.754-3.192c12.306 11.935 10.928 32.371 10.928 32.371-12.654-1.876-20.01-6.611-24.157-12.192.999-1.468 2.497-3.616 2.497-3.616l-3.754 1.755c-1.74-2.904-2.74-5.96-3.239-8.925 1.953-.907 4.148-1.981 4.148-1.981l-4.496-.893c-.545-7.85 1.877-14.37 1.877-14.37z" fill="#55769F"/><path d="M5.513 161.764c9.4-1.316 17.483-.242 24.4 2.329.106 4.024.348 8.819.348 8.819l4.299-6.792c24.96 12.616 32.74 45.093 32.74 45.093-20.631 3.237-34.375-.575-43.547-7.261a1083.91 1083.91 0 0 1 2.134-6.852l-4.98 4.568c-4.132-3.661-7.16-7.957-9.384-12.328 2.603-2.36 5.494-5.098 5.494-5.098l-7.432.787c-4.692-11.935-4.072-23.265-4.072-23.265z" fill="#02CCC0"/><path d="M23.753 203.967a1122.6 1122.6 0 0 1 2.135-6.852l-4.98 4.568c-4.132-3.66-7.16-7.956-9.385-12.328 2.604-2.36 5.495-5.098 5.495-5.098l-7.432.787c-4.692-11.935-4.087-23.265-4.087-23.265 30.56 12.162 61.786 49.464 61.786 49.464-20.615 3.222-34.374-.575-43.532-7.276z" fill="#06BFAD"/><path d="M3.999 203.981c4.329-4.583 8.96-7.366 13.623-8.894a343.853 343.853 0 0 0 3.83 4.432l-.591-5.294c18.163-3.797 35.676 9.802 35.676 9.802-9.354 10.225-18.058 13.947-25.58 14.279-.712-1.785-1.741-4.432-1.741-4.432l-.696 4.432c-3.663-.196-7.008-1.149-9.975-2.511.378-2.299.742-4.916.742-4.916l-3.527 3.479c-7.371-4.265-11.761-10.377-11.761-10.377z" fill="#FF5B7E"/><path d="M30.957 218.292a700.935 700.935 0 0 1-1.741-4.433l-.696 4.433c-3.663-.197-7.008-1.15-9.975-2.511.378-2.3.742-4.917.742-4.917l-3.527 3.48c-7.371-4.251-11.761-10.362-11.761-10.362 20.888-6.353 52.538.045 52.538.045-9.34 10.211-18.042 13.932-25.58 14.265z" fill="#E03268"/><path d="M39.039 178.191c.999-1.468 2.497-3.616 2.497-3.616l-3.753 1.755c-1.741-2.904-2.74-5.96-3.24-8.925 1.953-.907 4.148-1.981 4.148-1.981l-4.496-.893c-.56-7.85 1.862-14.37 1.862-14.37 15.666 12.691 27.124 40.222 27.124 40.222-12.654-1.861-20.01-6.595-24.142-12.192z" fill="#07085B"/><path d="M213.575 154.11l30.484-41.901a3.507 3.507 0 0 1 4.889-.771l23.628 17.168a3.502 3.502 0 0 1 .772 4.886l-30.484 41.901a3.507 3.507 0 0 1-4.889.771l-23.628-17.168c-1.574-1.15-1.922-3.328-.772-4.886z" fill="#FF5B7E"/><path d="M234.338 173.522l34.6-47.555-7.455-5.418-34.601 47.555 7.456 5.418zm5.742-40.211l11.837-16.276a.463.463 0 0 1 .651-.106l.106.076a.462.462 0 0 1 .106.65l-11.837 16.276a.463.463 0 0 1-.651.106l-.106-.076a.462.462 0 0 1-.106-.65zm-.062-4.387l9.763-13.432a.463.463 0 0 1 .651-.106l.106.076a.462.462 0 0 1 .105.65l-9.762 13.432a.462.462 0 0 1-.651.106l-.106-.075a.464.464 0 0 1-.106-.651zm-4.194 1.301l11.837-16.276a.463.463 0 0 1 .651-.106l.106.076a.462.462 0 0 1 .106.65l-11.837 16.276a.463.463 0 0 1-.651.106l-.106-.075a.464.464 0 0 1-.106-.651zm-16.407 22.569l3.724-5.113a2.051 2.051 0 0 1 2.845-.454l1.802 1.316a2.048 2.048 0 0 1 .454 2.844l-3.724 5.113a2.05 2.05 0 0 1-2.845.454l-1.802-1.316a2.022 2.022 0 0 1-.454-2.844z" fill="#333"/><path d="M230.253 136.595c-4.904 1.951-8.506 4.689-11.14 7.835a297.401 297.401 0 0 1 2.271 4.357l-3.951-2.103c-8.567 12.949-3.375 30.768-3.375 30.768 10.837-4.115 16.438-9.727 19.011-15.49-1.166-1.104-2.922-2.723-2.922-2.723l3.663.832c.984-2.904 1.257-5.808 1.136-8.531a217.532 217.532 0 0 1-4.057-.953l3.799-1.664c-1.029-7.034-4.435-12.328-4.435-12.328z" fill="#55769F"/><path d="M233.071 161.976a358.915 358.915 0 0 0-2.922-2.723l3.663.832c.984-2.904 1.257-5.809 1.136-8.532a206.848 206.848 0 0 1-4.057-.953l3.799-1.663c-1.029-7.049-4.435-12.359-4.435-12.359-11.397 14.28-16.195 40.872-16.195 40.872 10.837-4.099 16.438-9.711 19.011-15.474z" fill="#07085B"/><path d="M272.316 147.893c-10.988-1.664-20.449-.515-28.592 2.405-.181 4.719-.514 10.316-.514 10.316l-4.935-8.002c-29.379 14.431-38.93 52.323-38.93 52.323 24.097 4.054 40.232-.197 51.054-7.911a1516.16 1516.16 0 0 0-2.406-8.048l5.766 5.416c4.874-4.236 8.477-9.212 11.141-14.295a571.414 571.414 0 0 1-6.373-6.035l8.689 1.013c5.661-13.916 5.1-27.182 5.1-27.182z" fill="#02CCC0"/><path d="M250.399 197.023c-.954-3.237-2.407-8.047-2.407-8.047l5.767 5.415c4.874-4.235 8.476-9.212 11.14-14.294a572.31 572.31 0 0 1-6.372-6.036l8.688 1.014c5.646-13.902 5.086-27.168 5.086-27.168-35.934 13.826-72.972 57.043-72.972 57.043 24.097 4.038 40.247-.212 51.07-7.927z" fill="#06BFAD"/><path d="M264.448 198.536c-5.813-4.538-11.655-6.973-17.316-7.926a492.172 492.172 0 0 1-3.663 5.793l-.242-6.232c-21.69-1.24-39.581 17.562-39.581 17.562 12.593 10.195 23.324 12.994 32.088 12.071.515-2.178 1.226-5.446 1.226-5.446l1.575 5.007c4.207-.862 7.901-2.556 11.109-4.628-.832-2.602-1.71-5.567-1.71-5.567l4.692 3.419c7.811-6.202 11.822-14.053 11.822-14.053z" fill="#FEB546"/><path d="M235.748 219.789c.515-2.178 1.226-5.446 1.226-5.446l1.574 5.007c4.208-.862 7.901-2.556 11.11-4.629-.832-2.601-1.71-5.566-1.71-5.566l4.692 3.418c7.81-6.201 11.806-14.052 11.806-14.052-25.277-3.721-60.787 9.197-60.787 9.197 12.594 10.21 23.31 13.009 32.089 12.071z" fill="#F4A640"/><path d="M189.616 16.276s-.212 2.103-1.862 2.24c1.65.15 1.862 2.238 1.862 2.238s.212-2.103 1.861-2.239c-1.649-.136-1.861-2.239-1.861-2.239zM153.864 84.27s-.363 3.54-3.148 3.782c2.785.242 3.148 3.782 3.148 3.782s.363-3.54 3.148-3.782c-2.785-.257-3.148-3.782-3.148-3.782z" fill="#FEB546"/><path d="M249.6 44.019s-.364 3.57-3.179 3.812c2.815.241 3.179 3.811 3.179 3.811s.363-3.57 3.178-3.812c-2.815-.257-3.178-3.811-3.178-3.811z" fill="#07085B"/><path d="M208.522 57.058s-.394 3.857-3.436 4.114c3.042.272 3.436 4.115 3.436 4.115s.393-3.858 3.436-4.115c-3.058-.257-3.436-4.114-3.436-4.114zM121.214 16.64s-.393 3.857-3.436 4.114c3.043.272 3.436 4.114 3.436 4.114s.394-3.857 3.436-4.114c-3.057-.257-3.436-4.114-3.436-4.114z" fill="#02CCC0"/><path d="M161.431 0s-.393 3.857-3.436 4.114c3.043.273 3.436 4.115 3.436 4.115s.394-3.857 3.436-4.115C161.825 3.857 161.431 0 161.431 0z" fill="#07085B"/><path d="M226.261 4.84s-.393 3.858-3.436 4.115c3.043.273 3.436 4.115 3.436 4.115s.394-3.858 3.436-4.115c-3.042-.272-3.436-4.114-3.436-4.114zM117.566 58.161s-.227 2.194-1.953 2.345c1.741.151 1.953 2.344 1.953 2.344s.227-2.193 1.952-2.344c-1.74-.136-1.952-2.345-1.952-2.345z" fill="#FF5B7E"/><path d="M209.974 218.201H64.454a5.438 5.438 0 0 1-5.433-5.431V109.365a5.437 5.437 0 0 1 5.433-5.43H209.99a5.437 5.437 0 0 1 5.434 5.43V212.77a5.45 5.45 0 0 1-5.449 5.431z" fill="#333"/><path d="M204.343 213.754H64.802a1.725 1.725 0 0 1-1.726-1.725V110.137c0-.953.772-1.725 1.726-1.725h139.541v105.342z" fill="#DAEEF7"/><path opacity=".3" d="M210.019 165.031a3.965 3.965 0 1 0-3.965-3.963 3.964 3.964 0 0 0 3.965 3.963z" fill="#DAEEF7"/><path d="M197.713 122.374H68.798v89.58h128.915v-89.58z" fill="#fff"/><path d="M211.199 162.732h-2.362a.472.472 0 0 1-.469-.469v-2.375c0-.257.212-.469.469-.469h2.362c.257 0 .469.212.469.469v2.36a.475.475 0 0 1-.469.484zm-2.362-3.177a.352.352 0 0 0-.348.348v2.36c0 .181.152.348.348.348h2.362a.353.353 0 0 0 .348-.348v-2.375a.352.352 0 0 0-.348-.348h-2.362v.015z" fill="#DAEEF7"/><path d="M197.698 124.824v-6.64a4.12 4.12 0 0 0-4.117-4.115H72.915a4.12 4.12 0 0 0-4.117 4.115v6.64h128.9z" fill="#FF5B7E"/><path d="M189.889 122.056h-50.933a2.266 2.266 0 0 1-2.27-2.269v-.665a2.266 2.266 0 0 1 2.27-2.269h50.933a2.266 2.266 0 0 1 2.271 2.269v.665c.015 1.256-.999 2.269-2.271 2.269zm-112.72-.332a2.27 2.27 0 1 0 .001-4.54 2.27 2.27 0 0 0-.001 4.54zm9.929 0a2.27 2.27 0 1 0 0-4.54 2.27 2.27 0 0 0 0 4.54zm9.912 0a2.27 2.27 0 1 0 0-4.54 2.27 2.27 0 0 0 0 4.54z" fill="#fff"/><path d="M103.959 190.867H78.197a3.432 3.432 0 0 1-3.436-3.433v-51.128a3.432 3.432 0 0 1 3.436-3.434h25.762a3.432 3.432 0 0 1 3.435 3.434v51.143c0 1.891-1.543 3.418-3.435 3.418z" fill="#DAEEF7"/><path d="M99.827 158.738c1.574 5.703-3.86 12.026-8.96 11.965-5.797-.06-6.781.711-7.402.167-.878-.772.363-.182-1.014-5.355-2.104-7.866 4.374-13.009 10.55-12.449 4.253.393 4.934-.908 5.782-.106.605.575-.257 1.044 1.044 5.778z" fill="#FEB546"/><path d="M90.867 170.702c5.1.061 10.534-6.262 8.96-11.965-1.302-4.734-.439-5.203-1.03-5.778l-15.332 17.91c.62.544 1.62-.227 7.401-.167z" fill="#F0E5CC"/><path d="M146.13 190.867h-25.761a3.432 3.432 0 0 1-3.436-3.433v-51.128a3.432 3.432 0 0 1 3.436-3.434h25.761a3.433 3.433 0 0 1 3.436 3.434v51.143c0 1.891-1.544 3.418-3.436 3.418z" fill="#DAEEF7"/><path d="M133.868 154.608c1.393.182 4.45-.68 6.327.863 1.635 1.346 2.346 4.205 1.287 6.882-1.196 2.995-3.133 4.614-4.874 5.098-1.423.393-4.299.424-5.646-.257-1.423-.711-4.526-3.328-4.798-7.095-.272-3.751 2.891-5.627 4.374-5.717 1.453-.091 2.286.105 3.33.226z" fill="#FEB546"/><path d="M140.196 155.47c-1.71-1.406-4.374-.816-5.903-.832v13.085c.878-.015 1.71-.106 2.301-.272 1.755-.484 3.678-2.103 4.874-5.098 1.074-2.662.363-5.521-1.272-6.883z" fill="#F0E6DA"/><path d="M131.963 155.517c.333.211 1.181.408 2.225-.061s1.014-.59.742-.59c-.606 0-1.272.484-1.65.545-.364.045-.742.212-1.317.106z" fill="#C4C4C4"/><path d="M134.566 152.582c-.197.045-.605.938-.681 1.679-.121 1.104-.06 1.331-.121 1.361-.136.046-.197.046-.182.046 0 0 .015-.953.076-1.831.045-.771.439-1.739.621-1.906.136-.136.393.621.287.651z" fill="#9C6228"/><path d="M134.4 152.627c-.061.06-.318.484-.485 1.074-.136.453-.181 1.028-.318 1.346-.015.363-.015.62-.015.62-.015 0 .046 0 .182-.045.061-.015 0-.257.121-1.362.076-.741.484-1.633.681-1.679.061-.015 0-.242-.075-.423l-.137-.015c-.015.242.121.423.046.484z" fill="#E6E6E6"/><path d="M134.278 151.916c-.061.076.166.666.287.666.136 0-.151-.847-.287-.666z" fill="#C27A31"/><path d="M134.716 167.512s-.651-.121-1.18-.061c-.394.046-.697-.151-.379-.242.742-.211 1.559.303 1.559.303z" fill="#BDBDBD"/><path d="M138.984 158.3c1.332.166 4.254-.651 6.055.832 1.559 1.286 2.24 4.023 1.226 6.58-1.15 2.859-2.997 4.417-4.662 4.871-1.362.378-4.102.393-5.404-.242-1.362-.666-4.329-3.192-4.586-6.777-.257-3.585 2.77-5.37 4.178-5.476 1.407-.091 2.194.091 3.193.212z" fill="#02CCC0"/><path d="M146.266 165.711c1.014-2.556.333-5.294-1.226-6.58-1.711-1.422-4.465-.726-5.873-.817v12.525c.923 0 1.816-.09 2.422-.257 1.68-.469 3.527-2.012 4.677-4.871z" fill="#CCE5F0"/><path d="M137.169 159.161c.318.197 1.12.394 2.134-.06.999-.454.969-.56.712-.56-.576 0-1.211.469-1.575.514-.363.061-.726.212-1.271.106z" fill="#C4C4C4"/><path d="M139.651 156.364c-.182.045-.575.892-.651 1.603-.121 1.059-.061 1.271-.121 1.301-.121.045-.182.045-.167.045 0 0 .015-.907.076-1.754.045-.741.424-1.664.59-1.831.136-.121.379.605.273.636z" fill="#9C6228"/><path d="M139.499 156.408c-.06.061-.302.469-.469 1.029-.121.439-.182.983-.303 1.286-.015.348-.015.59-.015.59-.015 0 .046 0 .167-.046.06-.015 0-.242.121-1.301.076-.711.469-1.573.651-1.603.06-.015 0-.227-.076-.408l-.136-.016c-.015.227.121.409.06.469z" fill="#E6E6E6"/><path d="M139.377 155.728c-.06.06.167.635.273.635.136 0-.136-.802-.273-.635z" fill="#C27A31"/><path d="M139.801 170.642s-.62-.121-1.12-.06c-.378.045-.666-.151-.363-.242.696-.197 1.483.302 1.483.302z" fill="#BDBDBD"/><path d="M127.36 158.965c1.377.182 4.374-.681 6.221.847 1.604 1.331 2.315 4.145 1.256 6.762-1.181 2.95-3.073 4.538-4.798 5.007-1.408.378-4.223.408-5.555-.242-1.408-.696-4.45-3.283-4.723-6.974-.257-3.691 2.846-5.521 4.299-5.627 1.468-.09 2.27.091 3.3.227z" fill="#FF5B7E"/><path d="M133.581 159.812c-1.771-1.452-4.586-.741-6.039-.832v12.873c.938 0 1.862-.091 2.497-.272 1.726-.469 3.618-2.073 4.799-5.007 1.059-2.617.363-5.431-1.257-6.762z" fill="#F0CCDA"/><path d="M125.483 159.843c.333.197 1.151.409 2.195-.06 1.029-.469.999-.575.727-.575-.591 0-1.257.484-1.62.529-.363.061-.726.212-1.302.106z" fill="#C4C4C4"/><path d="M128.055 156.968c-.197.046-.59.923-.681 1.649-.121 1.089-.061 1.316-.121 1.331-.121.046-.182.046-.182.046s.015-.938.076-1.8c.045-.757.439-1.71.621-1.876.136-.121.393.62.287.65z" fill="#9C6228"/><path d="M127.888 157.014c-.06.061-.317.484-.484 1.059-.136.454-.182 1.014-.303 1.316-.015.363-.015.605-.015.605-.015 0 .046 0 .182-.045.06-.015 0-.242.121-1.331.076-.726.484-1.619.681-1.649.061-.015 0-.227-.076-.424l-.136-.015c-.045.242.091.409.03.484z" fill="#E6E6E6"/><path d="M127.767 156.303c-.061.061.166.651.287.651.137.015-.151-.817-.287-.651z" fill="#C27A31"/><path d="M128.206 171.656s-.635-.121-1.15-.06c-.378.045-.696-.151-.363-.242.711-.212 1.513.302 1.513.302z" fill="#BDBDBD"/><path d="M188.297 190.867h-25.761a3.432 3.432 0 0 1-3.436-3.433v-51.128a3.432 3.432 0 0 1 3.436-3.434h25.761a3.433 3.433 0 0 1 3.436 3.434v51.143c0 1.891-1.544 3.418-3.436 3.418z" fill="#DAEEF7"/><path d="M179.714 149.178c-1.741 14.249-2.134 27.924-6.403 28.846-2.679.59-4.283-.832-4.283-.832s-2.649-1.785 1.089-11.511c3.754-9.742 6.903-16.715 7.478-17.97.605-1.301 1.513-2.723 1.831-2.648.318.076.5 1.392.424 2.3l-.136 1.815z" fill="#FF5B7E"/><path d="M173.312 178.04c4.269-.938 4.662-14.597 6.403-28.846l.136-1.816c.076-.907-.106-2.223-.424-2.299l-7.931 33.082c.53.045 1.135.015 1.816-.121z" fill="#F0CCDA"/><path d="M172.316 166.423c0 .015-.182.045-.348.03a2.352 2.352 0 0 1-.333-.09c0-.016.181-.046.348-.031.166.03.333.076.333.091zm3.496 2.617c0 .015-.196.061-.378.076-.197-.015-.378-.046-.378-.061s.196-.06.378-.076c.197 0 .378.046.378.061zm-5.207 2.496c0 .015-.242.045-.484.06-.242-.015-.484-.06-.484-.076 0-.015.242-.045.484-.06.242.015.484.06.484.076zm.063 3.252c0 .015-.197.061-.394.076a2.99 2.99 0 0 1-.393-.061c0-.015.197-.06.393-.075.197.015.394.06.394.06zm4.45 1.21c0 .015-.212.091-.424.151-.227.031-.454.031-.454.016 0-.016.212-.091.424-.152.212-.03.439-.03.454-.015zm-1.532-3.147c0 .016-.182.046-.378.046-.182-.03-.349-.121-.349-.136h.364c.181.03.363.075.363.09zm3.148-9.181c0 .015-.196.06-.393.06-.197-.015-.394-.06-.394-.06s.197-.061.394-.061c.197.016.393.061.393.061zm1.335-3.434c0 .015-.197-.015-.363-.076-.167-.075-.318-.181-.318-.196 0-.015.196.015.363.075.166.076.318.182.318.197zm-5.162 2.829c0 .015-.181.045-.348.06-.182-.015-.348-.06-.348-.075s.182-.046.348-.061c.167.015.348.061.348.076zm.895-3.252c0 .015-.197.045-.409.06-.197-.015-.409-.06-.409-.075s.197-.061.409-.061c.212.015.409.061.409.076zm3.313-1.771c0 .016-.257.046-.499.046-.258-.015-.5-.076-.5-.076s.258-.045.5-.045c.242.015.499.075.499.075zm.303-3.418c0 .016-.227.031-.439.031-.212-.031-.439-.091-.439-.106s.227-.03.439-.03c.227.03.439.09.439.105zm-.408-3.147c0 .015-.197-.015-.378-.075-.167-.076-.333-.182-.333-.197 0-.015.197.015.378.076.167.09.333.196.333.196zm2.072-3.539c0 .015-.091.015-.182 0-.076-.045-.136-.106-.136-.121s.09-.015.181 0c.076.03.137.106.137.121zm.09 2.707c0 .016-.136 0-.257-.03-.106-.06-.212-.136-.212-.151 0-.015.136 0 .257.03.122.061.228.151.212.151zm-.603 5.689c0 .015-.167 0-.303-.046-.136-.06-.257-.166-.257-.166 0-.015.166 0 .303.045.136.061.257.152.257.167zm-3.512.211c0 .015-.197.03-.393.015-.197-.03-.379-.106-.379-.121s.197-.03.394-.015c.196.046.378.121.378.121zm1.314 15.127c0 .015-.197.075-.394.121-.197.015-.409 0-.409-.015s.197-.076.394-.121c.197-.015.409 0 .409.015zm1.152-4.962c0 .015-.196.045-.393.045-.197-.03-.394-.075-.394-.09 0-.016.197-.046.394-.046.197.015.393.076.393.091zm-7.191 2.087c0 .015-.197.046-.409.061-.196-.015-.408-.061-.408-.076s.196-.06.408-.06c.212.015.409.06.409.075zm-1.572 5.008c0 .015-.167.06-.318.075-.167-.015-.318-.045-.318-.06s.167-.061.318-.076c.166.015.318.061.318.061z" fill="#A8A8A8"/><path d="M77.726 163.156h-5.085a.846.846 0 0 1-.848-.847v-2.647c0-.469.378-.848.848-.848h5.085c.47 0 .848.379.848.848v2.647a.846.846 0 0 1-.848.847z" fill="#FF5B7E"/><path d="M77.44 160.826h-3.526l1.044-.983-.227-.242-1.499 1.391 1.499 1.392.227-.242-1.044-.983h3.526v-.333z" fill="#fff"/><path d="M189.629 163.156h5.086a.845.845 0 0 0 .847-.847v-2.647a.846.846 0 0 0-.847-.848h-5.086a.847.847 0 0 0-.848.848v2.647c0 .469.379.847.848.847z" fill="#FF5B7E"/><path d="M189.918 160.826h3.527l-1.045-.983.242-.242 1.499 1.391-1.499 1.392-.242-.242 1.045-.983h-3.527v-.333z" fill="#fff"/><path d="M148.657 209.64h-29.894a2.944 2.944 0 0 1-2.951-2.95v-.862a2.944 2.944 0 0 1 2.951-2.95h29.879a2.945 2.945 0 0 1 2.952 2.95v.862a2.942 2.942 0 0 1-2.937 2.95z" fill="#FF5B7E"/><path d="M126.905 206.798c0 .091-.015.182-.031.258-.03.075-.06.151-.09.211-.046.061-.091.121-.152.167-.06.045-.121.091-.196.121-.076.03-.152.06-.243.075-.09.016-.181.031-.287.031h-.757a.206.206 0 0 1-.091-.031c-.03-.03-.045-.06-.045-.121v-2.586c0-.061.015-.106.045-.121.03-.031.061-.031.091-.031h.666c.166 0 .318.016.424.046.106.03.197.076.272.136a.5.5 0 0 1 .167.227c.03.091.06.197.06.302a.77.77 0 0 1-.03.197.88.88 0 0 1-.076.182.352.352 0 0 1-.121.136c-.045.045-.106.075-.166.106.075.015.151.045.227.075a.61.61 0 0 1 .181.152c.046.06.091.136.121.211.016.061.031.152.031.257zm-.575-1.3c0-.076-.016-.137-.031-.197a.304.304 0 0 0-.091-.151.291.291 0 0 0-.166-.091 1.137 1.137 0 0 0-.272-.03h-.394v.937h.439a.532.532 0 0 0 .242-.045.513.513 0 0 0 .151-.106.308.308 0 0 0 .091-.151.545.545 0 0 0 .031-.166zm.166 1.316a.507.507 0 0 0-.045-.227c-.031-.061-.061-.121-.121-.167a.883.883 0 0 0-.197-.106c-.076-.03-.182-.03-.303-.03h-.469v1.029h.56a.925.925 0 0 0 .227-.03.372.372 0 0 0 .166-.091c.046-.046.091-.091.122-.152a.394.394 0 0 0 .06-.226zm3.18-.26c0 .181-.031.333-.076.469a.775.775 0 0 1-.227.348.906.906 0 0 1-.348.212 1.464 1.464 0 0 1-.469.075 1.34 1.34 0 0 1-.439-.075.833.833 0 0 1-.333-.212.796.796 0 0 1-.212-.348 1.506 1.506 0 0 1-.076-.469v-1.8c0-.015 0-.015.015-.03 0-.016.015-.015.031-.015.015 0 .03-.016.06-.016h.182c.03 0 .045.016.06.016s.03.015.03.015c0 .015.016.015.016.03v1.755c0 .136.015.257.045.347.03.106.076.182.136.258.061.06.136.121.227.151a.92.92 0 0 0 .303.045.987.987 0 0 0 .303-.045.468.468 0 0 0 .227-.151.643.643 0 0 0 .136-.242c.03-.091.045-.212.045-.348v-1.77c0-.015 0-.015.016-.03 0-.016.015-.015.03-.015s.03-.016.06-.016h.182c.03 0 .045.016.061.016.015 0 .03.015.03.015 0 .015.015.015.015.03v1.8h-.03zm2.391.907v.076c0 .015-.015.03-.015.045s-.015.03-.03.03-.015.015-.03.015h-1.393c-.03 0-.06-.015-.091-.03-.03-.03-.045-.06-.045-.121v-2.586c0-.061.015-.106.045-.121.031-.031.061-.031.091-.031h1.377c.016 0 .031 0 .031.015.015 0 .015.016.03.031 0 .015.015.03.015.045v.151c0 .031-.015.031-.015.046s-.015.015-.03.03c-.015 0-.015.015-.031.015h-1.135v.908h.969c.015 0 .03 0 .03.015.015 0 .015.015.031.03 0 .015.015.03.015.045v.152c0 .015-.015.03-.015.045s-.016.015-.031.03c-.015 0-.015.015-.03.015h-.969v1.044h1.151c.015 0 .03 0 .03.015.015 0 .015.015.03.031.015.015.015.03.015.045v.015zm3.875 0c0 .03 0 .061-.015.076s-.031.045-.046.045c-.015.015-.03.03-.06.03-.015 0-.046.015-.061.015h-.121c-.045 0-.076 0-.106-.015l-.091-.045a.153.153 0 0 1-.075-.091c-.031-.03-.061-.091-.091-.151l-.893-1.649a34.465 34.465 0 0 1-.136-.272l-.137-.272v2.42c0 .015 0 .015-.015.03 0 .015-.015.015-.03.015s-.03.015-.061.015h-.181c-.031 0-.046-.015-.061-.015s-.03-.015-.03-.015c0-.015-.015-.015-.015-.03v-2.678c0-.06.015-.105.045-.121a.164.164 0 0 1 .106-.045h.197c.045 0 .076 0 .106.015.03 0 .06.015.076.03.03.016.045.046.075.076.015.03.046.076.076.121l.681 1.271c.045.075.076.151.121.227.046.075.076.151.106.211.03.076.076.136.106.212.03.076.076.136.106.212v-2.299c0-.015 0-.015.015-.031 0-.015.015-.015.03-.03.016 0 .031-.015.061-.015h.182c.03 0 .045.015.06.015s.03.015.03.03c0 .016.016.016.016.031v2.677h.03zm3.21-1.316c0 .242-.03.454-.075.635a1.617 1.617 0 0 1-.243.484 1.031 1.031 0 0 1-.408.303 1.391 1.391 0 0 1-.575.106c-.212 0-.409-.03-.576-.091a.948.948 0 0 1-.393-.287 1.046 1.046 0 0 1-.227-.469 2.59 2.59 0 0 1 0-1.256c.06-.181.136-.348.242-.484.106-.136.242-.227.409-.302.166-.076.363-.106.575-.106.212 0 .393.03.56.09a.925.925 0 0 1 .393.288c.106.121.182.272.243.454.045.181.075.393.075.635zm-.408.015c0-.166-.016-.318-.046-.454a.98.98 0 0 0-.151-.363.838.838 0 0 0-.273-.242.926.926 0 0 0-.423-.09.928.928 0 0 0-.424.09.654.654 0 0 0-.273.257.98.98 0 0 0-.151.363c-.03.137-.045.288-.045.439 0 .167.015.333.045.469.03.151.076.272.136.378a.611.611 0 0 0 .273.242.872.872 0 0 0 .423.091c.167 0 .318-.03.424-.091a.642.642 0 0 0 .273-.257.953.953 0 0 0 .151-.378c.045-.136.061-.287.061-.454zm3.753 1.376c0 .015-.015.03-.03.046-.015.015-.03.015-.045.03-.015 0-.046.015-.076.015h-.227c-.03 0-.06-.015-.076-.015-.015 0-.03-.015-.045-.03-.015-.016-.015-.031-.03-.046l-.606-2.193-.56 2.193c0 .015-.015.03-.015.046-.015.015-.03.015-.045.03-.015 0-.046.015-.076.015h-.242c-.03 0-.061-.015-.076-.015s-.03-.015-.045-.03c-.015-.016-.015-.031-.031-.046l-.772-2.677c-.015-.03-.015-.061-.015-.076s0-.03.015-.045c.016-.015.031-.015.061-.015h.227c.03 0 .045 0 .061.015.015 0 .03.015.03.03s.015.03.015.045l.651 2.436.62-2.436c0-.015.016-.03.016-.045s.015-.015.03-.03c.015 0 .03-.015.06-.015h.212c.031 0 .046 0 .061.015.015 0 .03.015.03.03s.015.03.015.045l.666 2.436.636-2.436c0-.015.015-.03.015-.045s.015-.015.03-.03c.016-.015.031-.015.061-.015h.212c.03 0 .045.015.06.015.016.015.016.03.016.045s0 .046-.016.076l-.772 2.677z" fill="#fff"/><path d="M213.137 233.796c-.348-.454-7.19-16.548-7.538-20.194-.348-3.645-2.391-34.791-6.054-38.452-3.648-3.645-7.19.802-7.19.802s-2.967-12.207-10.156-5.476c0 0-4.45-7.76-7.871-6.504-3.421 1.255-2.059 11.859-2.059 11.859s-.181 2.95-2.285-1.376c-3.012-6.172-10.883-33.007-15.636-31.721-7.296 1.982 9.021 46.091 9.021 46.091s-7.795-11.738-13.668-7.79a1.401 1.401 0 0 0-.166 2.178c1.907 1.8 5.706 5.808 7.432 10.513 2.134 5.824 0 13.236 18.496 25.564l6.055 17.108s22.749 7.261 31.589-2.587c.015.015.03 0 .03-.015z" fill="#FFC0BB"/><path d="M59.02 179.809v12.374s-9.794 14.567-9.885 12.025c-.075-2.541-2.452-14.536-1.468-15.746.984-1.21 8.688-11.209 8.688-11.209l2.664 2.556z" fill="#FC8D84"/><path d="M73.944 172.489c-7.463.317-7.765 12.782-12.246 17.698-2.225 2.435-4.298 2.617-5.888 2.102-2.422-.786-3.572-3.539-2.528-5.869 1.605-3.554 5.722-6.625 5.722-6.625V170.9l-12.593 11.149a9.731 9.731 0 0 0-3.118 5.506c-3.103 17.002 2.709 46.317 2.709 46.317s11.17 4.432 23.461 0l-3.088-14.037c6.857-7.185 5.994-23.794 6.342-30.631.258-5.219 1.817-12.147 2.543-15.127.212-.832-.454-1.619-1.317-1.588z" fill="#FFC0BB"/><path opacity=".3" d="M74.821 174.303l-.862 3.116a.939.939 0 0 1-.833.681c-.742.03-1.877-.03-2.255-.741-.56-1.074 1.21-3.192 1.786-3.661.59-.454 2.346-.06 2.164.605zm75.333 8.653l2.316 2.269c.288.273.712.348 1.06.152.651-.348 1.604-.984 1.559-1.77-.061-1.21-2.664-2.148-3.391-2.254-.726-.121-2.043 1.119-1.544 1.603zm4.193-32.416s2.543.454 3.98-1.029c0 0-1.392-6.459-3.526-5.854-2.437.696-.454 6.883-.454 6.883z" fill="#FF5B7E"/><path d="M103.641 193.757H76.199v1.255h27.442v-1.255zm0 2.919H76.199v1.255h27.442v-1.255zm0 2.92H76.199v1.255h27.442v-1.255zm43.789-5.839h-27.442v1.255h27.442v-1.255zm0 2.919h-27.442v1.255h27.442v-1.255z" fill="#DAEEF7"/><path d="M163.413 39.98l-1.045 7.85 5.57-4.068 17.074-8.713-13.199 1.21s-6.72 1.634-7.084 1.966c-.378.318-1.316 1.755-1.316 1.755z" fill="#E03268"/><path d="M157.557 35.245l27.457-.212-21.6 4.947-5.857-4.735z" fill="#FF5B7E"/><path d="M172.238 47.876l-7.205-5.779 19.98-7.064-12.775 12.843z" fill="#FF5B7E"/><path d="M75.97 102.15c-.878-.03-1.62-.167-2.195-.439l.197-.439c.515.242 1.196.379 2.013.394l-.015.484zm4.406-.575l-.106-.469a43.144 43.144 0 0 0 4.193-1.256l.167.454a41.44 41.44 0 0 1-4.254 1.271zm8.34-2.874l-.196-.439a57.849 57.849 0 0 0 3.965-1.876l.228.424a67.033 67.033 0 0 1-3.996 1.89zm7.66-4.417l-.349-.333a15.92 15.92 0 0 0 2.589-3.464l.423.227a16.386 16.386 0 0 1-2.663 3.57zm9.111-1.77a14.814 14.814 0 0 1-4.419-.53l.136-.468c1.362.378 2.8.56 4.283.514v.484zm4.375-.771l-.152-.454a14.563 14.563 0 0 0 3.86-1.906l.273.393c-1.196.847-2.543 1.498-3.981 1.967zm-12.82-1.68c-1.242-.877-2.332-1.966-3.149-3.146l.394-.272a12.23 12.23 0 0 0 3.027 3.025l-.272.393zm20.04-3.343l-.379-.302c.772-.968 1.514-2.103 2.392-3.646l.424.242c-.893 1.574-1.635 2.708-2.437 3.706zm-16.408-.136l-.469-.12a15.9 15.9 0 0 0 .469-4.297l.485-.015a16.283 16.283 0 0 1-.485 4.432zm-8.476-3.812a7.758 7.758 0 0 1-.091-.832c0-.075-.015-.136-.015-.211-.046-1.24.166-2.42.636-3.389l.439.212c-.44.908-.636 1.997-.59 3.162 0 .06 0 .136.014.196.016.257.046.53.091.787l-.484.075zm29.44-3.615l-.424-.227.59-1.104 1.499-2.768.424.227c-.5.922-.999 1.845-1.499 2.753l-.59 1.12zm-21.963-1.089c-.575-.998-1.332-1.618-2.24-1.86a2.99 2.99 0 0 0-1.105-.061l-.06-.469c.438-.045.862-.03 1.286.076 1.03.257 1.922.983 2.543 2.087l-.424.227zm26.171-6.61l-.424-.242a131.277 131.277 0 0 1 2.225-3.797l.409.242a176.616 176.616 0 0 0-2.21 3.797zm4.586-7.488l-.394-.272a73.61 73.61 0 0 1 2.574-3.585l.378.287a81.089 81.089 0 0 0-2.558 3.57zm5.358-6.913l-.363-.317a46.725 46.725 0 0 1 3.118-3.132l.318.348a45.666 45.666 0 0 0-3.073 3.101zm6.448-5.869l-.287-.393a42.886 42.886 0 0 1 3.693-2.42l.242.408a44.75 44.75 0 0 0-3.648 2.405zm7.553-4.372l-.197-.438a41.442 41.442 0 0 1 4.133-1.573l.151.453a39.15 39.15 0 0 0-4.087 1.558zm8.308-2.676l-.091-.47a35.032 35.032 0 0 1 2.134-.378l.076.469a32.79 32.79 0 0 0-2.119.378z" fill="#07085B"/><path opacity=".5" d="M195.775 76.087a7.222 7.222 0 0 0-7.038-5.597c-.636 0-1.242.076-1.817.227-1.695-3.615-5.358-6.126-9.626-6.126-1.105 0-2.165.166-3.164.484a13.071 13.071 0 0 0-11.216-6.323 13.073 13.073 0 0 0-12.306 8.622 8.881 8.881 0 0 0-4.374-1.134c-4.965 0-8.991 4.023-8.991 8.985 0 .287.015.59.046.877h58.486v-.015zm36.538-25.277c-.423-1.845-2.088-3.237-4.056-3.237-.363 0-.712.045-1.06.136-.984-2.087-3.103-3.54-5.555-3.54-.635 0-1.256.091-1.831.273a7.542 7.542 0 0 0-6.478-3.66 7.572 7.572 0 0 0-7.114 4.976 5.072 5.072 0 0 0-2.528-.65 5.199 5.199 0 0 0-5.192 5.188c0 .166.015.333.03.499h33.784v.015zm-80.749-20.482a1.881 1.881 0 0 0-2.3-1.391 2.777 2.777 0 0 0-3.33-1.483 3.41 3.41 0 0 0-2.922-1.648 3.398 3.398 0 0 0-3.208 2.253 2.399 2.399 0 0 0-1.136-.302 2.348 2.348 0 0 0-2.346 2.345c0 .075 0 .15.015.226h15.227zm-46.001 12.193c.424-1.845 2.089-3.237 4.057-3.237.363 0 .711.045 1.06.136.983-2.087 3.102-3.54 5.555-3.54.635 0 1.256.091 1.831.273a7.542 7.542 0 0 1 6.478-3.66 7.572 7.572 0 0 1 7.114 4.976 5.073 5.073 0 0 1 2.528-.65 5.199 5.199 0 0 1 5.192 5.188c0 .166-.015.333-.03.499h-33.785v.015z" fill="#DAEEF7"/></g><path d="M28.073 245.15l-3.972 9.088c-.498 1.143-.967 1.963-1.407 2.461-.433.498-.949.87-1.546 1.116-.598.241-1.325.361-2.18.361a7.618 7.618 0 0 1-2.048-.264v-2.338c.515.211 1.157.317 1.925.317.486 0 .879-.112 1.178-.334.298-.229.547-.621.747-1.178l-4.448-9.229h2.883l3.164 7.163h.088l.158-.439 2.655-6.724h2.803zm7.568 10.89v-5.853h-2.013a25.525 25.525 0 0 1-.606 3.102 12.6 12.6 0 0 1-1.055 2.751h3.674zm4.122 5.484h-2.408V258h-6.61v3.524h-2.408v-5.484h.826c.563-.873 1.034-1.975 1.415-3.305s.648-2.85.8-4.561h6.943v7.866h1.442v5.484zM47.682 258l-.519-1.336h-.07c-.451.568-.917.964-1.398 1.187-.474.216-1.095.325-1.863.325-.943 0-1.688-.27-2.232-.809-.54-.539-.809-1.306-.809-2.303 0-1.043.363-1.81 1.09-2.302.732-.498 1.834-.774 3.304-.826l1.706-.053v-.431c0-.996-.51-1.494-1.53-1.494-.785 0-1.708.237-2.768.712l-.888-1.811c1.13-.591 2.385-.887 3.762-.887 1.318 0 2.329.287 3.032.861.703.574 1.055 1.447 1.055 2.619V258h-1.872zm-.791-4.553l-1.038.035c-.779.024-1.359.164-1.74.422-.38.258-.571.651-.571 1.178 0 .756.434 1.134 1.3 1.134.622 0 1.117-.179 1.486-.536.375-.358.563-.832.563-1.424v-.809zm7.787-5.273v3.595c0 .855.395 1.283 1.186 1.283a5.56 5.56 0 0 0 1.433-.176c.445-.117.893-.27 1.345-.457v-4.245h2.68V258h-2.68v-3.902c-.622.328-1.199.559-1.732.694a6.294 6.294 0 0 1-1.547.202c-1.072 0-1.901-.272-2.487-.817-.586-.551-.879-1.333-.879-2.347v-3.656h2.68zm12.137 0v3.779h3.745v-3.779h2.68V258h-2.68v-4.052h-3.745V258h-2.68v-9.826h2.68zm11.918 3.797h1.292c1.5 0 2.61.24 3.331.72.721.481 1.082 1.207 1.082 2.18 0 1.037-.36 1.819-1.082 2.347-.72.521-1.798.782-3.234.782h-4.07v-9.826h2.681v3.797zm3.024 2.935c0-.381-.153-.656-.457-.826-.305-.17-.759-.255-1.362-.255h-1.205v2.321h1.24c1.19 0 1.784-.414 1.784-1.24zM88.542 258h-2.68v-9.826h2.68V258zm4.834-5.019l-3.164-4.807h3.04l1.908 3.129 1.925-3.129h3.041l-3.2 4.807 3.349 5.019h-3.05l-2.065-3.366L93.086 258h-3.041l3.331-5.019zm21.999-4.807V258h-2.689v-7.813h-3.56V258h-2.681v-9.826h8.93zm4.948 4.895c0 .973.158 1.708.475 2.206.322.498.844.747 1.564.747.715 0 1.228-.246 1.538-.738.317-.498.475-1.236.475-2.215 0-.972-.158-1.702-.475-2.188-.316-.486-.835-.73-1.555-.73-.715 0-1.231.244-1.547.73-.317.48-.475 1.21-.475 2.188zm6.794 0c0 1.6-.422 2.851-1.265 3.753-.844.903-2.019 1.354-3.525 1.354-.943 0-1.775-.205-2.496-.615a4.149 4.149 0 0 1-1.661-1.785c-.387-.773-.58-1.675-.58-2.707 0-1.605.419-2.853 1.257-3.744.838-.89 2.015-1.336 3.533-1.336.943 0 1.775.205 2.496.615.721.411 1.274 1 1.661 1.767.387.768.58 1.667.58 2.698zm8.657-4.895h2.954l-3.894 4.711L139.07 258h-3.041l-4.016-4.983V258h-2.681v-9.826h2.681v4.772l3.761-4.772zm3.296 0h2.936l1.854 5.528c.159.481.267 1.049.326 1.705h.052a7.595 7.595 0 0 1 .378-1.705l1.82-5.528h2.874l-4.158 11.083c-.381 1.025-.925 1.793-1.634 2.303-.704.509-1.527.764-2.47.764-.463 0-.917-.05-1.362-.149v-2.127c.322.076.673.114 1.054.114.475 0 .888-.146 1.239-.439.358-.287.636-.724.835-1.31l.159-.483-3.903-9.756zm20.584 0V258h-2.689v-7.813h-3.56V258h-2.68v-9.826h8.929zm4.949 4.895c0 .973.158 1.708.474 2.206.322.498.844.747 1.565.747.714 0 1.227-.246 1.538-.738.316-.498.474-1.236.474-2.215 0-.972-.158-1.702-.474-2.188-.317-.486-.835-.73-1.556-.73-.715 0-1.23.244-1.547.73-.316.48-.474 1.21-.474 2.188zm6.793 0c0 1.6-.421 2.851-1.265 3.753-.844.903-2.019 1.354-3.525 1.354-.943 0-1.775-.205-2.496-.615a4.155 4.155 0 0 1-1.661-1.785c-.387-.773-.58-1.675-.58-2.707 0-1.605.419-2.853 1.257-3.744.838-.89 2.016-1.336 3.533-1.336.944 0 1.776.205 2.496.615.721.411 1.275 1 1.661 1.767.387.768.58 1.667.58 2.698zm8.658-4.895h2.953l-3.894 4.711L183.35 258h-3.041l-4.017-4.983V258h-2.681v-9.826h2.681v4.772l3.762-4.772zm18.448 2.575c0 .527-.167.979-.501 1.354-.328.369-.814.606-1.459.711v.071c.697.082 1.248.322 1.652.72.41.393.616.879.616 1.459 0 .956-.375 1.685-1.125 2.189-.75.498-1.823.747-3.217.747h-5.036v-9.826h5.036c1.347 0 2.355.22 3.023.659.674.434 1.011 1.072 1.011 1.916zm-2.47 4.175c0-.387-.149-.665-.448-.835-.299-.176-.747-.264-1.345-.264h-2.127v2.321h2.18c.568 0 .999-.106 1.292-.317.299-.217.448-.518.448-.905zm-.246-3.964c0-.598-.474-.897-1.424-.897h-2.25v1.943h1.943c.568 0 .999-.082 1.292-.246.293-.164.439-.431.439-.8zm15.504-3.727c-1.025 0-1.819.387-2.382 1.161-.562.767-.844 1.839-.844 3.216 0 2.866 1.076 4.298 3.226 4.298.902 0 1.995-.225 3.278-.677v2.286c-1.054.439-2.232.659-3.533.659-1.869 0-3.299-.566-4.289-1.697-.99-1.136-1.485-2.765-1.485-4.886 0-1.336.243-2.505.729-3.507.487-1.008 1.184-1.778 2.092-2.312.914-.539 1.983-.808 3.208-.808 1.248 0 2.502.302 3.762.905l-.879 2.215a14.536 14.536 0 0 0-1.45-.598 4.328 4.328 0 0 0-1.433-.255zm15.478 8.499h3.99V245.15h2.716V258h-16.163v-12.85h2.724v10.582h3.99V245.15h2.743v10.582zM244.583 258l-.932-3.059h-4.684l-.932 3.059H235.1l4.535-12.902h3.331L247.519 258h-2.936zm-1.582-5.344c-.861-2.771-1.348-4.339-1.459-4.702-.105-.363-.182-.65-.229-.861-.193.75-.747 2.604-1.661 5.563h3.349zm8.183 1.081h-2.145l-.448-8.587h3.041l-.448 8.587zm-2.628 3.006c0-.492.132-.864.395-1.116.264-.252.648-.378 1.152-.378.486 0 .861.129 1.125.387.269.258.404.627.404 1.107 0 .463-.135.829-.404 1.099-.27.263-.645.395-1.125.395-.493 0-.874-.129-1.143-.386-.27-.264-.404-.633-.404-1.108z" fill="#3E4B57"/><defs><clipPath id="a"><path fill="#fff" transform="translate(4)" d="M0 0h270v239H0z"/></clipPath></defs></svg>