<svg width="63" height="63" viewBox="0 0 63 63" fill="none" xmlns="http://www.w3.org/2000/svg"><path fill="#D8F4FF" d="M0 0h62.632v62.632H0z"/><path d="M28.313 31.297l-.797.797h-3.188l.399-.797H7.594v20.719h47.812v-20.72H28.313zm-.797-11.157a2.398 2.398 0 0 1-2.391-2.39 2.398 2.398 0 0 1 2.39-2.39 2.398 2.398 0 0 1 2.391 2.39 2.398 2.398 0 0 1-2.39 2.39zm6.374 0a2.398 2.398 0 0 1-2.39-2.39 2.398 2.398 0 0 1 2.39-2.39 2.398 2.398 0 0 1 2.391 2.39 2.398 2.398 0 0 1-2.39 2.39z" fill="#D6AB80"/><path d="M53.813 28.11H32.626l3.187-3.188h16.585c2.092 0 3.805-1.713 3.805-3.855 0-.777-.239-1.514-.697-2.142l-2.052-2.819a13.453 13.453 0 0 0-12.431-5.438l-7.431.876-5.748-5.747h-4.81L26.33 12.4l-11.614 1.365h-.21l-3.187-7.97H6.677l2.142 15.68a4 4 0 0 0 3.944 3.446h14.255l-1.594 3.187H9.188A2.398 2.398 0 0 0 6.797 30.5v22.313a2.398 2.398 0 0 0 2.39 2.39h44.626a2.398 2.398 0 0 0 2.39-2.39V30.5a2.398 2.398 0 0 0-2.39-2.39zm-26.626 3.187h-1.564l3.984-7.969h5.549l-7.97 7.969zm24.982-14.254l1.096 1.504h-8.218a1.598 1.598 0 0 1-1.594-1.594c0-.876.717-1.594 1.594-1.594h5.598a11.63 11.63 0 0 1 1.524 1.684zM25.613 7.39h1.564l4.393 4.392-3.556.419-2.4-4.811zm-12.85 15.937a2.402 2.402 0 0 1-2.37-2.072L8.51 7.391h1.733l3.188 7.968h1.335l26.456-3.107c.458-.05.926-.08 1.384-.08 2.092 0 4.114.578 5.887 1.594h-3.446a3.197 3.197 0 0 0-3.188 3.187 3.197 3.197 0 0 0 3.188 3.188h9.343c.15.289.22.607.22.976a2.206 2.206 0 0 1-2.212 2.211H37.407L39 21.734H28.62l-.797 1.594h-15.06zM54.61 52.813a.8.8 0 0 1-.797.796H9.188a.8.8 0 0 1-.797-.797V30.5a.8.8 0 0 1 .797-.797h15.449l-1.594 3.188h4.811l3.188-3.188h22.77a.8.8 0 0 1 .797.797v22.313z" fill="#4D4D4D"/><path d="M9.984 48.828h4.782V34.484H9.984v14.344zm1.594-12.75h1.594v11.156h-1.594V36.078zm27.094-4.781h1.594v6.375h-1.594v-6.375zm0 7.969h1.594v1.593h-1.594v-1.593zm0 3.187h1.594v1.594h-1.594v-1.594zm0 3.187h1.594v1.594h-1.594v-1.593zm0 3.188h1.594v3.188h-1.594v-3.188zm3.188-14.344h11.156v1.594H41.859v-1.594zm0 3.188h1.593v1.594H41.86v-1.594zm3.187 0h7.969v1.594h-7.97v-1.594zm6.375 3.188h1.594v1.593h-1.594V40.86zm-3.188 0h1.594v1.593h-1.594V40.86zm-6.374 0h4.78v1.593h-4.78V40.86zm0 7.968h11.156v-4.781H41.859v4.781zm1.593-3.187h7.969v1.593h-7.969v-1.593zM16.36 34.484h4.78v1.594h-4.78v-1.594zm6.374 0h12.75v1.594h-12.75v-1.594zm-6.374 3.188h4.78v1.594h-4.78v-1.594zm6.374 0h12.75v1.594h-12.75v-1.594zM16.36 48.828h7.968v-4.781H16.36v4.781zm1.593-3.187h4.781v1.593h-4.78v-1.593zM16.36 40.86h1.593v1.593H16.36V40.86zm3.187 0h1.594v1.593h-1.594V40.86zm3.187 0h1.594v1.593h-1.594V40.86zm3.188 0h1.594v1.593h-1.594V40.86zm3.188 0h1.593v1.593H29.11V40.86zm3.187 0h1.594v1.593h-1.594V40.86zm3.187 0h1.594v1.593h-1.594V40.86zm-9.562 3.187h11.156v1.594H25.922v-1.594zm0 3.187h11.156v1.594H25.922v-1.594z" fill="#4D4D4D"/></svg>