<svg width="160" height="155" viewBox="0 0 160 155" fill="none" xmlns="http://www.w3.org/2000/svg"><path d="M76.534 17.147a3.878 3.878 0 0 1 6.943 0l12.45 25.104a3.872 3.872 0 0 0 2.917 2.106l27.843 4.025a3.864 3.864 0 0 1 3.124 2.62 3.838 3.838 0 0 1-.98 3.948l-20.145 19.543a3.845 3.845 0 0 0-1.116 3.41l4.755 27.594a3.845 3.845 0 0 1-1.543 3.769 3.9 3.9 0 0 1-4.077.294L81.8 96.53a3.886 3.886 0 0 0-3.602 0l-24.905 13.028a3.893 3.893 0 0 1-4.078-.292 3.844 3.844 0 0 1-1.54-3.769l4.755-27.595a3.838 3.838 0 0 0-1.115-3.409L31.169 54.951a3.838 3.838 0 0 1-.98-3.948 3.865 3.865 0 0 1 3.127-2.621l27.847-4.025a3.87 3.87 0 0 0 2.915-2.108l12.456-25.102z" fill="#FFCF40" filter="url(#a)"/><defs><filter id="a" x="0" y="0" width="160" height="155" filterUnits="userSpaceOnUse" color-interpolation-filters="sRGB"><feFlood flood-opacity="0" result="BackgroundImageFix"/><feColorMatrix in="SourceAlpha" values="0 0 0 0 0 0 0 0 0 0 0 0 0 0 0 0 0 0 127 0"/><feOffset dy="15"/><feGaussianBlur stdDeviation="15"/><feColorMatrix values="0 0 0 0 1 0 0 0 0 0.811765 0 0 0 0 0.25098 0 0 0 0.3 0"/><feBlend in2="BackgroundImageFix" result="effect1_dropShadow"/><feBlend in="SourceGraphic" in2="effect1_dropShadow" result="shape"/></filter></defs></svg>