<svg width="178" height="70" viewBox="0 0 178 70" fill="none" xmlns="http://www.w3.org/2000/svg"><path d="M70.313 22.936l.977-1.843a53.849 53.849 0 0 1 1.876-3.275 25.388 25.388 0 0 1 1.68-2.375c.743-.9 1.525-1.802 2.346-2.62.196-.246.782-.328 1.056-.37.234-.04.508-.081.742-.081.274-.04.508-.04.782-.04.156 0 .313.04.39.204.04.164 0 .327-.038.491v.041l-.313.696a39.646 39.646 0 0 0-1.642 4.258l-1.329 4.095c-.547 1.638-1.133 3.275-1.798 4.831a31.52 31.52 0 0 1-.742 1.68c.742-1.024 1.446-2.13 2.15-3.195a87.589 87.589 0 0 1 2.697-3.971c.664-.942 1.328-1.884 2.071-2.785a37.196 37.196 0 0 1 1.603-1.924c.43-.491.86-.983 1.329-1.433a39.89 39.89 0 0 1 1.915-1.76c.235-.205.508-.41.743-.574.117-.082.352-.245.469-.245l1.212-.205 1.211-.123c.196 0 .391.04.47.287a.47.47 0 0 1 0 .327c-.079.205-.196.41-.313.573a7.25 7.25 0 0 1-.626.901c-.43.614-.86 1.31-1.29 1.966a53.048 53.048 0 0 0-1.485 2.538 89.893 89.893 0 0 0-2.853 5.487c-.391.819-.782 1.637-1.134 2.497-.274.655-.547 1.31-.782 2.007-.195.573-.43 1.474-.352 2.088.079.45.313.573.665.573.469 0 1.016-.287 1.446-.573.352-.246.665-.491.977-.778.391-.328.782-.696 1.173-1.106.117-.204.195-.45.313-.655.43-.9.938-1.76 1.485-2.58l2.54-3.97 4.613-.902-3.322 5.077c-.547.82-1.056 1.68-1.564 2.539-.234.41-.469.86-.703 1.31a11.39 11.39 0 0 0-.43 1.024c-.04.164-.235.778-.118.9a.4.4 0 0 0 .196.083c.39 0 .938-.41 1.25-.656.665-.532 1.29-1.228 1.877-1.883a31.527 31.527 0 0 0 1.915-2.62l3.088-4.873 4.378-.9-1.25 2.006-5.473 9.007-.391.656c.352-.205.743-.369 1.094-.574.47-.245.939-.532 1.369-.86.977-.655 1.915-1.433 2.814-2.252l.664-.614-.899 2.744-.078.04c-.313.246-.625.492-.899.697-.313.204-.625.45-.899.655-.625.41-1.329.819-1.993 1.187-.821.45-1.681.86-2.541 1.27-.547.9-1.134 1.76-1.76 2.62-.507.696-1.054 1.392-1.64 2.006-1.33 1.392-3.05 2.785-4.887 2.785-.508 0-1.016-.164-1.29-.737-.273-.574-.195-1.27 0-1.843.157-.491.391-.942.704-1.351a6.927 6.927 0 0 1 1.25-1.392 13.17 13.17 0 0 1 1.916-1.433c.39-.246.782-.45 1.212-.697.469-.245.899-.45 1.368-.655l1.016-1.801c-.156.164-.352.286-.508.41-.47.368-.938.695-1.407 1.023-.704.45-1.525.819-2.345.819-.704 0-1.251-.328-1.486-1.147-.156-.532-.117-1.146 0-1.72-.547.451-1.094.901-1.68 1.31-.704.492-1.408.943-2.19 1.27-.586.246-1.25.45-1.876.45-1.133 0-1.798-.695-1.837-2.129-.039-1.474.313-2.989.782-4.299.156-.491.352-.942.547-1.433.274-.655.587-1.31.9-1.965.35-.778.742-1.515 1.133-2.252.43-.778.86-1.556 1.329-2.334.43-.737.899-1.515 1.368-2.211.039-.041.078-.123.117-.164l-.234.246c-.743.9-1.408 1.842-2.111 2.784-.977 1.392-1.915 2.784-2.893 4.176l-2.11 3.071c-.587.82-1.134 1.638-1.76 2.416-.898 1.187-1.915 2.334-3.01 3.276-.351.286-.703.532-1.133.655-.195.082-.43.082-.664.123-.313.04-.587.04-.9.04-.156 0-.351 0-.468-.081-.157-.123-.157-.369-.118-.574v-.04l.235-.492c.43-.778.82-1.597 1.172-2.416.118-.327.274-.614.391-.941.04-.123.118-.246.157-.369.156-.368.313-.778.469-1.146l1.055-2.866.977-2.785c.274-.819.587-1.638.9-2.415.312-.737.664-1.474 1.016-2.211l.234-.492-.039.041c-.274.41-.547.86-.82 1.31-.392.655-.743 1.27-1.095 1.925a44.61 44.61 0 0 1-.821 1.433l-.82 1.474c-.626 1.105-1.213 2.21-1.877 3.276-.508.86-1.094 1.72-1.68 2.497-.47.655-.978 1.27-1.525 1.843a13.861 13.861 0 0 1-2.62 2.252c-.703.45-1.524.778-2.345.778-.43 0-.898-.082-1.25-.369-.352-.246-.587-.614-.704-1.105-.117-.492-.078-.942.078-1.434.157-.49.547-.9.86-1.228.43-.41.86-.778 1.368-1.064l.587-.369c.117-.04.234-.123.351-.164.274 0 .47.205.509.533 0 .163 0 .368-.04.532a6.04 6.04 0 0 1-.156.819c-.078.245-.195.86 0 1.105.078.123.274.123.391.123.586 0 1.485-.86 1.915-1.31.548-.532 1.017-1.188 1.486-1.802a32.81 32.81 0 0 0 1.798-2.743c.82-1.106 1.524-2.334 2.189-3.562zm17.824 13.84c-.782.409-1.525.9-2.228 1.473-.547.491-1.212 1.147-1.486 1.965-.039.164-.078.369-.039.492.04.123.118.123.196.123.547 0 1.25-.737 1.602-1.188.391-.45.782-.982 1.095-1.515.313-.45.586-.9.86-1.35z" fill="#194600"/><path d="M177.922 61.179l-.157.163c-1.837-.081-3.087-.123-3.791-.123-.625 0-1.603.041-2.971.123-.273-.573-.821-1.392-1.72-2.456l-4.925-5.896c-1.094-1.27-2.228-2.457-3.479-3.522v4.136c0 2.784.079 4.586.235 5.404a.724.724 0 0 0 .586.656c.157.04.821.122 1.955.163l.156.164v1.188l-.156.163c-1.134-.081-2.815-.123-5.121-.123-2.384 0-4.104.041-5.12.123l-.157-.163V59.99l.157-.164c1.133-.081 1.798-.122 1.954-.163.313-.082.508-.287.547-.656.157-.86.235-2.62.235-5.404V44.35c0-2.784-.078-4.586-.235-5.404-.039-.328-.234-.574-.547-.656-.156-.04-.821-.081-1.954-.163l-.157-.164v-1.188l.157-.163c1.055.082 2.775.122 5.12.122 2.424 0 4.144-.04 5.121-.122l.156.163v1.188l-.156.164c-1.134.081-1.798.122-1.955.163-.312.082-.508.328-.586.656-.156.818-.235 2.62-.235 5.404v4.34c2.072-2.006 3.557-3.52 4.456-4.503l2.385-2.58c.821-.9 1.837-2.088 3.127-3.644v-1.147l.195-.163c.86.081 1.681.122 2.502.122.977 0 2.111-.04 3.401-.122l.156.163v1.065l-.156.164c-1.29 0-2.228.204-2.854.655-.899.614-2.619 2.17-5.12 4.668l-3.362 3.357c.469.696 1.251 1.679 2.345 2.989l3.753 4.545c2.775 3.357 4.378 5.159 4.808 5.364.273.123.703.204 1.329.204l.156.205v1.147h-.078zm-28.847 0l-.156.163c-1.095-.081-2.815-.123-5.16-.123-2.306 0-4.026.041-5.121.123l-.156-.163V59.99l.156-.164c1.134-.081 1.798-.122 1.955-.163.312-.082.508-.287.586-.656.156-.86.235-2.62.235-5.404V44.35c0-2.784-.079-4.586-.235-5.404a.723.723 0 0 0-.586-.656c-.157-.04-.821-.081-1.955-.163l-.156-.164v-1.188l.156-.163c1.056.082 2.776.122 5.121.122 2.345 0 4.065-.04 5.12-.122l.157.163v1.188l-.157.164c-1.133.081-1.798.122-1.954.163-.313.082-.508.328-.586.656-.157.818-.235 2.62-.235 5.404v9.254c0 2.784.078 4.586.235 5.404a.723.723 0 0 0 .586.656c.156.04.821.122 1.954.163l.157.164v1.188h.039zm-18.684-12.816c0-3.235-.743-5.691-2.228-7.452a6.34 6.34 0 0 0-2.932-1.925c-1.094-.368-2.658-.532-4.651-.532-1.017 0-2.033.082-2.971.246-.117 1.31-.156 4.463-.156 9.458l.039 7.616c0 1.679.039 2.825.117 3.398.977.164 1.994.246 3.01.246 2.189 0 3.948-.328 5.238-1.024 1.368-.737 2.462-1.965 3.283-3.726.86-1.76 1.251-3.89 1.251-6.305zm5.12-.819c0 3.93-1.211 7.206-3.674 9.827-1.212 1.269-2.658 2.252-4.378 2.948-1.837.737-3.987 1.105-6.41 1.064l-5.903-.123c-1.602-.04-2.931 0-3.947.123l-.157-.164v-.49l.078-.206c.821-.532 1.251-.9 1.329-1.023.118-.205.157-.983.196-2.334l.039-3.93V44.39c0-2.784-.078-4.586-.235-5.404-.039-.328-.234-.574-.547-.656-.156-.04-.821-.082-1.954-.163l-.157-.164v-1.188l.157-.163c1.172.081 2.306.122 3.361.122 2.58 0 4.925-.04 6.997-.122 1.016-.041 2.072-.041 3.127-.041 2.893 0 5.121.327 6.645 1.023 1.681.737 3.01 1.925 3.948 3.563 1.016 1.637 1.485 3.766 1.485 6.346zM98.3 51.802l-3.557-9.13-3.401 9.13c.899.041 2.11.041 3.557.041 1.368 0 2.54 0 3.4-.04zm10.553 9.377l-.156.163c-2.463-.081-3.948-.123-4.456-.123-2.033 0-3.948.041-5.707.123l-.156-.163v-1.106l.156-.205 1.446-.082c.626-.04.899-.245.899-.696 0-.245-.156-.778-.469-1.637l-1.368-3.685c-1.524-.041-3.088-.041-4.69-.041-.86 0-2.15 0-3.87.04l-.743 2.13c-.547 1.638-.82 2.62-.82 3.03 0 .45.273.696.781.778.274.04.86.081 1.72.122l.156.164v1.106l-.156.163c-2.072-.081-3.362-.122-3.948-.122-.469 0-1.602.04-3.4.123l-.157-.164V59.95l.196-.164c1.133-.081 1.837-.286 2.11-.696.274-.409 1.251-2.825 2.932-7.288l4.339-11.383c.313-.9.82-2.21 1.485-4.012h2.385l8.833 21.783c.352.819.665 1.31.938 1.392.352.123.899.204 1.564.204l.156.205v1.188zM82.43 53.194c0 1.925-.508 3.603-1.564 5.078-.899 1.31-2.11 2.252-3.596 2.866-1.368.573-2.97.86-4.847.86-2.345 0-4.612-.574-6.88-1.68l-.195-.368c.313-1.35.47-3.234.47-5.691l.156-.164h1.055l.157.164v.41c0 .655.078 1.514.195 2.579.39.737 1.133 1.392 2.15 1.924 1.094.574 2.189.86 3.361.86 2.19 0 3.714-.819 4.574-2.416.43-.819.664-1.678.664-2.58 0-1.473-.586-2.538-1.798-3.193-.586-.327-1.524-.573-2.853-.778-2.971-.491-4.925-1.064-5.864-1.801-1.407-1.106-2.11-2.785-2.11-5.078 0-2.374.782-4.299 2.306-5.69 1.602-1.475 3.87-2.253 6.762-2.253 2.62 0 4.69.45 6.293 1.31l.118.41c-.274 1.392-.43 3.07-.47 4.995l-.195.164h-1.055l-.117-.164c-.04-1.392-.079-2.293-.157-2.743-.352-.533-.938-1.024-1.798-1.392-.899-.41-1.876-.574-2.853-.574-1.486 0-2.658.41-3.518 1.229-.821.778-1.212 1.801-1.212 3.03 0 1.35.469 2.334 1.368 2.948.586.41 2.033.778 4.26 1.187.235.041.9.164 1.955.369.665.123 1.25.286 1.798.491 1.134.45 1.955 1.105 2.54 2.006.587.983.9 2.211.9 3.685z" fill="#FFCF40"/><path d="M52.41 34.892c1.408-4.709.938-9.95-1.29-14.29a17.793 17.793 0 0 0-3.83-5.077 16.8 16.8 0 0 0-2.502-1.965c-.625-.41-2.54-1.065-2.775-1.638-.117-.287-.04-1.106-.078-1.474-.079-.533-.157-1.106-.274-1.638a13.107 13.107 0 0 0-1.172-2.989 11.968 11.968 0 0 0-4.027-4.217 10.872 10.872 0 0 0-11.687.204 11.63 11.63 0 0 0-4.065 4.709c-.43.86-.508 2.006-.938 2.825-.352.614.078.205-.43.369-.235.082-.626.04-.9.082-.507.082-1.055.163-1.563.327-3.87 1.065-6.996 4.381-8.013 8.435a12.405 12.405 0 0 0-.352 2.948c0 1.515.548 2.784.782 4.258.118.778.235.246-.195.655-.157.164-.508.328-.704.492-.508.368-1.016.778-1.485 1.228a18.369 18.369 0 0 0-2.658 2.907C1.166 35.138-.358 40.379.07 45.619c.939 11.752 11.453 20.432 22.554 18.753-.078.696-.117 1.392-.234 2.088-.157.82-.43 1.556-.977 2.17-.352.41-.704.41-.509.901.548 1.188 2.854-.245 3.636-.327a4.73 4.73 0 0 1 2.384.368c.977.41 1.055.532 2.072.082.781-.328 1.524-.532 2.345-.491.977.04 1.642.614 2.54.778.313.04 1.134-.041 1.29-.45.196-.451-.156-.492-.508-.901-1.211-1.352-1.133-3.604-1.29-5.364 7.154 3.112 15.557.614 20.13-5.896 4.809-6.674 4.3-16.255-1.094-22.438zM41.818 14.215c5.98 2.743 9.81 9.294 9.42 16.132-.43 7.002-5.199 13.143-11.688 14.945.04-.328-.117-1.392.04-1.638.195-.287 1.328-.532 1.68-.737a13.991 13.991 0 0 0 3.127-2.17c1.798-1.638 3.166-3.767 3.987-6.142 1.564-4.626.704-9.95-2.267-13.757 4.886 7.37 1.72 18.097-6.645 20.718-.039-.328-.39-1.515-.273-1.802.078-.204 1.055-.532 1.25-.655a9.891 9.891 0 0 0 2.268-1.842c1.524-1.638 2.54-3.808 2.853-6.101.508-4.013-1.25-8.23-4.612-10.318 5.745 4.504 4.807 14.453-2.228 16.992-.196-.614-.704-1.474-.391-1.884.312-.409 1.055-.696 1.446-1.064.938-.9 1.642-2.13 1.993-3.399.704-2.743-.351-5.732-2.618-7.288 1.837 1.679 2.54 4.422 1.641 6.797a5.382 5.382 0 0 1-2.072 2.62c-.469.328-1.133.779-1.485.492-.39-.287-.703-1.31-.977-1.72 1.446-.573 2.345-2.293 1.72-3.849 0 1.106-.626 3.153-2.15 2.826-.625-.123-1.134-1.106-1.564-1.597-.664-.737-1.368-1.433-2.15-2.047-3.205-2.662-7.152-4.259-11.257-4.504 3.206-8.517 12.9-12.693 20.952-9.008zM21.57 10.98c.43-5.159 4.847-9.172 9.772-8.885 4.69.287 8.521 4.381 8.717 9.294-3.87-1.064-8.053-.736-11.688.942-.938-2.661 2.033-4.627 4.222-3.521-1.447-1.187-3.596-.9-4.847.491-.704.778-1.095 1.843-1.095 2.948 0 .574.196.737-.195 1.147-.274.286-.782.491-1.095.737-2.775-6.142 4.495-11.424 9.499-7.944-2.815-2.497-7.153-2.047-9.577.778-1.094 1.229-1.72 2.867-1.876 4.504-.078.82 0 1.638.156 2.457.079.246.47 1.065.43 1.31-.078.328-1.055.983-1.29 1.27a10 10 0 0 1-1.133-5.528zm-2.033.9c0 1.639.352 3.276.978 4.791.156.328.508.82.586 1.147.117.491.156.41-.196.942a25.512 25.512 0 0 0-1.29 2.252c-.195.45-.547 1.965-.899 2.252-.664.49-1.368-.533-1.563-1.024-.586-1.433.039-3.112 1.29-3.89-.743 0-1.681.983-2.033 1.597-.664 1.105-.742 2.498-.312 3.685-.313.041-1.486.532-1.72.41-.118-.042-.352-.738-.352-.82-.352-.941-.47-2.006-.352-2.988a6.752 6.752 0 0 1 3.088-4.914c-1.876.778-3.322 2.416-3.948 4.422-.313 1.024-.469 2.088-.352 3.153.04.287.43 1.556.352 1.72-.117.245-1.329.573-1.563.696-2.502-6.224 1.915-13.266 8.286-13.43zm10.828 47.046c-5.785 4.505-13.916 4.832-20.013.82-5.98-3.931-9.264-11.383-8.13-18.712 1.172-7.78 7.113-14.126 14.54-15.437 7.231-1.31 14.697 2.334 18.41 8.967 4.535 8.107 2.385 18.794-4.807 24.362zm9.576 3.645c-2.775 0-5.55-.82-7.896-2.375.391-.328.9-1.065 1.368-1.228.43-.164 1.29.49 1.838.655 1.29.49 2.697.737 4.065.778 2.54.04 5.16-.738 7.27-2.212 4.417-3.07 6.567-8.885 5.238-14.29.782 4.587-.743 9.295-4.221 12.243-3.558 2.99-8.717 3.48-12.704 1.147.234-.287.469-.82.742-.983.391-.205.743.082 1.251.205.978.286 1.994.45 2.971.41 1.759-.083 3.518-.656 4.964-1.68 1.525-1.064 2.736-2.62 3.44-4.38.352-.901.586-1.884.664-2.867.079-.982-.195-1.924-.195-2.907.743 6.715-5.785 12.488-11.883 9.336.157-.246.47-1.27.704-1.392.195-.082 1.329.286 1.642.327 1.211.082 2.423-.246 3.478-.86 1.955-1.187 3.088-3.521 2.893-5.896-.156 2.58-1.955 4.832-4.495 5.2a4.364 4.364 0 0 1-1.916-.164c-.43-.122-.742-.163-.781-.573-.04-.246.312-.983.39-1.187.196-.655.196-1.679.509-2.252.273-.45 1.172-.533 1.72-.737 4.69-1.597 8.599-5.241 10.632-9.95 3.791 4.954 4.338 11.997 1.368 17.525-2.658 4.995-7.7 8.107-13.056 8.107z" fill="#194600"/><path d="M30.404 54.75c-.782.614-1.603 1.106-2.463 1.556-.313.164-.625.287-.899.45l-.938.369c-.899.328-1.837.573-2.775.737-.938.164-1.876.246-2.775.246-1.72-.082-3.44-.328-5.043-.983a14.954 14.954 0 0 1-4.417-2.661c-1.329-1.106-2.462-2.498-3.322-4.013-.47-.737-.821-1.556-1.134-2.416-.117-.41-.312-.86-.39-1.27a12.74 12.74 0 0 1-.313-1.31c-.704-3.562-.235-7.37.977-11.014-2.072 3.194-3.166 7.248-2.697 11.301.195 2.007.82 4.013 1.759 5.814.938 1.802 2.228 3.399 3.752 4.75 1.525 1.27 3.284 2.334 5.16 2.948 1.876.614 3.83.86 5.785.696.86-.082 1.72-.205 2.58-.45 1.016-.287 2.032-.655 2.97-1.147.196-.123.391-.204.587-.327.273-.164.547-.369.82-.533l.821-.614c.665-.655 1.368-1.35 1.955-2.129z" fill="#194600"/><path d="M12.15 52.867c1.407 1.228 3.048 2.129 4.807 2.538 1.76.41 3.636.45 5.355 0 .43-.123.86-.245 1.29-.41l.587-.245c.156-.082.273-.123.43-.205.312-.163.586-.327.86-.49.273-.165.547-.37.82-.574.47-.369.9-.778 1.33-1.229.977-1.064 1.758-2.333 2.227-3.684a13.503 13.503 0 0 1-2.97 3.07c-.352.246-.665.45-1.017.655a6.23 6.23 0 0 1-.898.45c-.313.124-.587.246-.9.37a9.005 9.005 0 0 1-2.071.49c-3.01.451-6.137-.49-8.404-2.538-2.306-2.006-3.674-5.036-3.753-8.23-.039-1.72.235-3.44.782-5.159a21.378 21.378 0 0 1 1.955-4.34c-1.056 1.024-2.033 2.252-2.776 3.644-.977 1.76-1.602 3.726-1.72 5.814-.156 1.843.196 3.767.86 5.528.704 1.72 1.838 3.275 3.206 4.545z" fill="#194600"/><path d="M12.072 43.49l.078 1.024c.195 1.31.664 2.661 1.485 3.726.82 1.064 1.837 1.965 3.049 2.457.273.163.625.204.938.327.313.082.625.205.938.205.313.04.626.082.977.082l.938-.082c.978-.123 1.955-.45 2.776-.983.312-.205.625-.41.899-.655.078-.04.117-.123.195-.164.235-.245.47-.491.704-.778.43-.573.742-1.187.977-1.842a6.143 6.143 0 0 1-1.055.982c-.313.246-.626.492-.939.656-.156.081-.351.163-.508.286-.156.082-.273.123-.43.205a6.122 6.122 0 0 1-2.658.491 6.242 6.242 0 0 1-4.964-2.62l-.43-.614-.313-.655c-.117-.205-.195-.45-.273-.696-.078-.246-.156-.45-.196-.737l-.117-.737c-.039-.246 0-.492 0-.779 0-.245 0-.532.04-.777l.077-.778c0-.082.04-.164.04-.246.312-1.474 1.016-2.907 1.876-4.34.312-.492.625-.983.977-1.474-.508.327-.977.655-1.446 1.064-1.134.942-2.111 2.13-2.776 3.563-.117.286-.273.614-.351.9-.157.614-.391 1.27-.43 1.925 0 .41-.079.737-.079 1.064z" fill="#194600"/><path d="M16.488 42.671a3.588 3.588 0 0 0 .196 1.925c.39.9 1.172 1.597 2.032 1.842.665.205 1.408.123 1.955-.204.156-.082.352-.205.469-.369-.391 0-.743-.04-1.056-.123-1.016-.286-1.68-.941-2.032-1.76v-.041c-.43-1.065-.313-2.457.782-3.685-.821.04-1.603.614-2.033 1.474-.156.327-.273.655-.313.941z" fill="#194600"/></svg>