<svg width="24" height="24" viewBox="0 0 24 24" fill="none" xmlns="http://www.w3.org/2000/svg"><mask id="a" maskUnits="userSpaceOnUse" x="2" y="5" width="21" height="14" fill="#000"><path fill="#fff" d="M2 5h21v14H2z"/><path d="M21.227 6H3v12h19V6h-.773zm-.76.75l-7.34 7.244a.917.917 0 0 1-1.254 0L4.532 6.75h15.935zM3.76 7.049l4.935 4.869-4.935 4.87v-9.74zm.606 10.2l4.866-4.8 2.104 2.075c.31.307.724.476 1.164.476.44 0 .854-.17 1.164-.476l2.103-2.076 4.866 4.802H4.366zm16.874-.46l-4.935-4.871 4.935-4.87v9.74z"/></mask><path d="M21.227 6H3v12h19V6h-.773zm-.76.75l-7.34 7.244a.917.917 0 0 1-1.254 0L4.532 6.75h15.935zM3.76 7.049l4.935 4.869-4.935 4.87v-9.74zm.606 10.2l4.866-4.8 2.104 2.075c.31.307.724.476 1.164.476.44 0 .854-.17 1.164-.476l2.103-2.076 4.866 4.802H4.366zm16.874-.46l-4.935-4.871 4.935-4.87v9.74z" fill="#4C5F6A"/><path d="M3 6v-.3h-.3V6H3zm0 12h-.3v.3H3V18zm19 0v.3h.3V18H22zm0-12h.3v-.3H22V6zm-1.533.75l.21.214.521-.514h-.731v.3zm-7.34 7.244l-.211-.214.21.214zm-1.254 0l.21-.214-.21.214zM4.532 6.75v-.3H3.8l.52.514.21-.214zm-.772.299l.21-.214-.51-.504v.718h.3zm4.935 4.869l.21.213.217-.213-.217-.214-.21.214zm-4.935 4.87h-.3v.717l.51-.504-.21-.213zm5.472-4.34l.211-.213-.21-.208-.211.208.21.213zm2.104 2.076l.21-.214-.21.214zm2.328 0l-.21-.214.21.214zm2.103-2.076l.211-.213-.21-.208-.211.208.21.213zm4.866 4.802v.3h.731l-.52-.514-.21.214zm.607-.462v.3h.731l-.52-.513-.211.213zm-4.935-4.87l-.21-.214-.217.214.216.213.211-.213zm4.935-4.87h.3V6.33l-.51.504.21.214zm0 9.74h-.3v.3h.3v-.3zM21.227 5.7H3.772v.6h17.455v-.6zm-17.455 0H3.62v.6h.152v-.6zm-.152 0h-.367v.6h.367v-.6zm-.367 0H3v.6h.253v-.6zM2.7 6v12h.6V6h-.6zM3 18.3h19v-.6H3v.6zm19.3-.3V6h-.6v12h.6zM22 5.7h-.657v.6H22v-.6zm-.657 0h-.116v.6h.116v-.6zm-1.087.836l-7.34 7.244.421.427 7.34-7.243-.42-.428zm-7.34 7.244a.617.617 0 0 1-.832 0l-.421.427a1.216 1.216 0 0 0 1.675 0l-.422-.427zm-.832 0L4.743 6.536l-.422.428 7.341 7.243.422-.427zM4.532 7.05h15.935v-.6H4.532v.6zm-.983.212l4.935 4.87.421-.428-4.934-4.869-.422.427zm4.935 4.442l-4.935 4.87.422.427 4.934-4.87-.421-.427zM4.06 16.788v-9.74h-.6v9.74h.6zm.517.675l4.866-4.8-.421-.428-4.866 4.801.421.427zm4.445-4.8l2.103 2.074.421-.427-2.103-2.075-.421.427zm2.103 2.074c.367.363.857.563 1.375.563v-.6c-.361 0-.7-.139-.953-.39l-.422.427zm1.375.563c.518 0 1.008-.2 1.375-.563l-.422-.427c-.254.251-.592.39-.953.39v.6zm1.375-.563l2.103-2.075-.421-.427-2.104 2.075.422.427zm1.682-2.075l4.865 4.801.422-.427-4.866-4.801-.421.427zm5.076 4.288H4.366v.6h16.267v-.6zm.818-.375l-4.935-4.87-.422.426 4.935 4.87.422-.426zm-4.935-4.444l4.935-4.87-.422-.427-4.935 4.87.422.427zm4.424-5.083v9.74h.6v-9.74h-.6zm.3 10.04v-.6.6z" fill="#4C5F6A" mask="url(#a)"/></svg>