<svg width="356" height="199" viewBox="0 0 356 199" fill="none" xmlns="http://www.w3.org/2000/svg"><g clip-path="url(#a)"><path fill="#F7E0DF" d="M0 0h356v199H0z"/><path fill-rule="evenodd" clip-rule="evenodd" d="M293.034 148.497c-5.1 11.017-12.516 20.784-20.898 29.571-5.283 5.539-10.927 10.78-17.052 15.348l-.169.124-.266-.362.293-.218c2.907-2.184 5.687-4.543 8.397-6.98 11.929-10.729 22.546-23.111 29.287-37.672l.408.189zm-17.358-72.462c7.048 3.082 13.127 8.295 16.873 15.013 4.87 8.733 6.361 19.226 5.164 29.151l-.447-.054.064-.542c.72-6.532.206-13.178-1.574-19.482-1.755-6.221-4.896-12.116-9.51-16.593-3.125-3.033-6.861-5.394-10.864-7.13l.179-.413.115.05zM174.099 55.502c.226.067.2.176.137.407-.971 3.783.222 8.013 2.901 10.94 2.834 3.099 6.93 5.024 10.791 5.683 2.26.385 4.568.442 6.863.449 0 0 .149.021.201.125.069.14-.038.31-.203.325-3.348-.01-6.707-.098-9.886-1.242-3.372-1.214-6.609-3.03-8.828-5.901-2.267-2.935-3.209-6.931-2.274-10.493.035-.132.047-.32.298-.293z" fill="#fff" stroke="#fff" stroke-width=".5"/><path d="M269.129 177.7c.002.321-.064.639-.192.933-.9 2.049-4.746 2.352-8.571.675-3.204-1.401-5.382-3.747-5.475-5.676v25.584h14.247V177.7h-.009z" fill="#FFBE21"/><path d="M263.651 171.895c-3.825-1.677-7.665-1.374-8.571.675a2.33 2.33 0 0 0-.189 1.068c.093 1.929 2.271 4.275 5.475 5.676 3.825 1.677 7.665 1.374 8.571-.675.128-.294.194-.612.192-.933.009-1.953-2.196-4.377-5.478-5.811z" fill="#A15842"/><path d="M280.052 186.139c-.093 1.929-2.271 4.275-5.475 5.679-3.828 1.674-7.665 1.374-8.574-.678a2.326 2.326 0 0 1-.192-.93v9h14.244v-13.071h-.003z" fill="#FFBE21"/><path d="M279.863 185.071c-.9-2.049-4.746-2.352-8.574-.675-3.279 1.437-5.484 3.858-5.478 5.814-.001.32.065.637.192.93.9 2.052 4.746 2.352 8.574.678 3.204-1.404 5.382-3.75 5.475-5.679a2.343 2.343 0 0 0-.189-1.068z" fill="#A15842"/><path fill-rule="evenodd" clip-rule="evenodd" d="M266.228 189.901a.6.6 0 0 1 .6.6v8.721a.6.6 0 0 1-1.2 0v-8.721a.6.6 0 0 1 .6-.6z" fill="#A15842"/><path fill-rule="evenodd" clip-rule="evenodd" d="M262.013 169.402a.6.6 0 0 1 .6.6v4.944a.6.6 0 0 1-1.2 0v-4.944a.6.6 0 0 1 .6-.6zm10.92 12.504a.6.6 0 0 1 .6.6v5.232a.6.6 0 1 1-1.2 0v-5.232a.6.6 0 0 1 .6-.6z" fill="#30242A"/><path d="M139.777 255.916h30.9c.384-6.561 1.755-15.264 2.892-27.021 1.011-10.425 1.881-19.176 1.824-26.4-.096-12.042-30.9 2.532-30.9 2.532 0 2.631.531 5.157.546 7.605.036 6.36-3.186 11.772-5.487 19.443-3.489 11.631-.582 23.841-.582 23.841h.807z" fill="#3874D9"/><path d="M181.066 257.077l.03.072 23.856-11.172c-1.857-5.556-3.798-12.948-6.987-22.623-2.988-9.054-4.965-15.819-6.837-21.054a12.937 12.937 0 0 1-17.323-2.012 12.93 12.93 0 0 1 .43-17.434c-12.735-5.754-57.966-9.507-57.966-9.507l-25.587-3.78c-1.35 2.232-2.5 5.769-3.123 9.9h8.94v9.561a7.307 7.307 0 0 1-7.3 7.287h-.866c2.442 9 8.724 16.581 21.546 16.581h51.75c5.523 6.105 4.362 13.083 6.321 26.7 1.602 11.139 9.195 19.35 9.195 19.35l3.921-1.869z" fill="#508BEF"/><path d="M183.574 204.745a12.868 12.868 0 0 0 7.554-2.445c-3.723-10.464-6.951-14.823-16.713-19.365l-.18-.081a12.93 12.93 0 0 0 2.208 19.745 12.931 12.931 0 0 0 7.131 2.14v.006zm-94.374-8.43a7.303 7.303 0 0 0 7.305-7.302v-9.561h-8.94c-.79 5.187-.744 11.289.768 16.854h.357l.51.009z" fill="#50ACEF"/><path fill-rule="evenodd" clip-rule="evenodd" d="M163.886 96.399a.6.6 0 0 1 .765-.367c9.375 3.304 18.003 9.498 24.27 14.841a117.56 117.56 0 0 1 7.464 6.947 89.555 89.555 0 0 1 2.581 2.735l.138.155.035.04.01.011.003.004-.452.394.452-.394a.6.6 0 1 1-.905.788l.012-.01-.012.01-.002-.002-.008-.009-.033-.038a70.092 70.092 0 0 0-.657-.726 89.175 89.175 0 0 0-2.018-2.117 115.816 115.816 0 0 0-7.387-6.874c-6.219-5.303-14.716-11.39-23.89-14.623a.6.6 0 0 1-.366-.765z" fill="#77365A"/><path d="M149.457 103.639c-.57-1.377 1.332-3.537 4.5-5.36-4.29-1.069-7.338-3.058-7.032-4.729.306-1.67 3.858-2.457 8.25-1.94-2.31-2.82-3.327-5.515-2.307-6.6 1.299-1.39 5.421.362 9.204 3.9 3.3 3.09 5.25 6.527 4.836 8.276-.231 1.782-3.27 4.308-7.446 6.036-4.803 1.992-9.276 2.178-10.005.417z" fill="#E185A4"/><path d="M167.065 102.784a5.478 5.478 0 1 0 0-10.956 5.478 5.478 0 0 0 0 10.956z" fill="#F5C0C0"/><path d="M178.607 104.361c1.505-.559.821-6.14-1.528-12.467-2.349-6.326-5.473-11.001-6.979-10.443-1.505.56-.821 6.14 1.528 12.467 2.349 6.327 5.474 11.002 6.979 10.443z" fill="#F5C0C0"/><path fill-rule="evenodd" clip-rule="evenodd" d="M178.134 104.896a.6.6 0 0 1 .769.359l-.564.205.564-.205v.002l.002.005.006.016.021.059.075.225c.063.194.152.478.254.838.205.72.465 1.748.687 2.988.444 2.475.744 5.821.146 9.258a.6.6 0 0 1-1.182-.206c.565-3.251.284-6.446-.145-8.84a29.684 29.684 0 0 0-.66-2.872 22.376 22.376 0 0 0-.241-.794l-.068-.205-.018-.05-.004-.011-.001-.003m.359-.769a.6.6 0 0 0-.359.769l.359-.769z" fill="#30242A"/><path d="M135.886 79.984c-4.962 5.583-10.236 6.816-10.236 6.816-3.411-3.72-9.6-3.72-10.545 1.55-1.029 5.842 6.195 7.45 6.195 7.45s1.821 7.536-.972 11.259c-2.466 3.3-5.634 3.843-12.126 4.569 8.46 14.295 17.1 13.167 19.977 13.167 6.9 0 8.844-8.007 9.387-12.135-1.571-.548-3.174-1-4.8-1.353l-.93-5.58s4.341 1.548 8.064-.621 4.653-6.204 3.411-12.405c-.735-3.675-.708-8.22-1.338-12.282-2.457.417-6.087-.435-6.087-.435zm51.612 31.146c-1.317-5.271-11.628-8.13-11.628-8.13s.618-11.832-2.037-12.21c-2.034-.3-4.071 4.653-5.814 14.247-1.95 10.722-.873 30.525-.873 30.525s-2.157-1.959-5.217-4.686a3.775 3.775 0 0 1-3.3 2.1 3.778 3.778 0 0 1 .449 3.951 3.78 3.78 0 0 1-3.338 2.16 3.778 3.778 0 0 1 .449 3.951 3.78 3.78 0 0 1-3.338 2.16 3.776 3.776 0 0 1-1.179 5.662c-.649.349-1.387.5-2.121.434 6.369 4.146 15.027 8.982 20.796 8.982 30.234-.012 18.024-45.657 17.151-49.146z" fill="#DC789D"/><path d="M153.289 149.137a3.788 3.788 0 0 0-.447-3.951 3.773 3.773 0 0 0 2.889-6.111 3.773 3.773 0 0 0 2.889-6.111 3.775 3.775 0 0 0 3.3-2.1c-5.274-4.698-13.227-11.664-17.46-14.793-2.049-1.515-4.659-2.637-6.9-3.411-.528 4.14-2.46 12.135-9.36 12.135-2.865 0-11.517 1.128-19.977-13.167l-2.718.3c-9.36 1.041-13.62 6.078-16.128 12.096-1.551 3.723-2.793 10.545-2.793 10.545a127.512 127.512 0 0 0-1.482 18.9l12.17 11.265 32.677.807c2.616-3.858 7.416-10.983 9-13.716 2.034-3.489 2.325-6.396 2.325-6.396s3.492 2.73 8.277 5.847a3.78 3.78 0 0 0 3.738-2.139z" fill="#fff"/><path d="M139.3 73.159c-3.72-4.65-13.956-7.752-22.02-1.86-8.064 5.892-7.443 15.507-7.134 19.23 0 0-8.682-2.793-14.886 3.72a15.7 15.7 0 0 0-4.032 14.268s-11.424-.321-13.647 10.236c-1.263 6 1.095 9.993 3.711 12.465a16.695 16.695 0 0 0 5.283 3.351s1.242-6.822 2.793-10.545c2.508-6.018 6.768-11.055 16.128-12.096l2.718-.3c6.492-.726 9.66-1.278 12.126-4.569 2.79-3.723.96-11.259.96-11.259s-7.233-1.608-6.204-7.443c.933-5.271 7.134-5.271 10.545-1.551 0 0 5.274-1.239 10.236-6.822 0 0 3.63.852 6.105.435-.423-2.796-1.167-5.361-2.682-7.26z" fill="#050C4B"/><path fill-rule="evenodd" clip-rule="evenodd" d="M177.944 99.779a1.2 1.2 0 0 1 .163 1.689c-.532.646-.975 1.313-1.203 1.955-.218.616-.218 1.141.029 1.634l.002.002v.001c.033.066.079.158.436.141a2.241 2.241 0 0 0 .658-.137l.001-.001a1.2 1.2 0 0 1 1.536 1.617l-.001.004a2.788 2.788 0 0 0-.088.233 3.546 3.546 0 0 0-.153.661c-.069.54.021.959.301 1.239l.004.004c.388.391.758.419 1.085.362a1.925 1.925 0 0 0 .587-.211l.019-.012a1.2 1.2 0 0 1 1.79 1.396l-.01.031a2.134 2.134 0 0 0-.073.712c.026.37.156.735.666 1.002.415.217.866.138 1.401-.202a4.008 4.008 0 0 0 .815-.701l.039-.045.006-.007-.001.002.001-.003a1.201 1.201 0 0 1 2.131.845c-.135 1.763.368 2.105.56 2.193a1.2 1.2 0 0 1-1.004 2.18c-.915-.422-1.482-1.177-1.763-2.157-.859.417-2.047.677-3.299.021-1.27-.665-1.766-1.717-1.909-2.628-.839.044-1.849-.186-2.743-1.086-.922-.923-1.07-2.074-1.014-2.933-.733-.085-1.616-.429-2.125-1.448-.613-1.223-.52-2.454-.146-3.51.364-1.029 1.01-1.949 1.613-2.68a1.2 1.2 0 0 1 1.689-.163zm8.007 11.37l.002-.001-.002.001z" fill="#30242A"/><path fill-rule="evenodd" clip-rule="evenodd" d="M90.552 108.182a.6.6 0 0 1 .71.463 13.31 13.31 0 0 0 1.677 4.205.6.6 0 1 1-1.023.628 14.517 14.517 0 0 1-1.827-4.585.6.6 0 0 1 .463-.711z" fill="#000"/><path fill-rule="evenodd" clip-rule="evenodd" d="M166.516 135.339a.6.6 0 0 1 .646.55l.729 9.063a.6.6 0 0 1-1.196.096l-.729-9.063a.599.599 0 0 1 .55-.646zm-26.554-.464a.6.6 0 0 1 .816.234c1.99 3.583 1.951 7.839 1.702 10.308a.601.601 0 0 1-1.194-.12c.242-2.397.252-6.349-1.557-9.606a.6.6 0 0 1 .233-.816zm-12.612-30.621a.601.601 0 0 1 .813-.243 34.403 34.403 0 0 0 3.733 1.731.6.6 0 1 1-.439 1.117 35.677 35.677 0 0 1-3.863-1.792.6.6 0 0 1-.244-.813zm6.051 6.85a.6.6 0 0 1 .686.499l.507 3.213a.6.6 0 1 1-1.185.187l-.507-3.212a.6.6 0 0 1 .499-.687z" fill="#30242A"/><path fill-rule="evenodd" clip-rule="evenodd" d="M109.447 90.05a.6.6 0 0 1 .667.524l.645 5.364a.6.6 0 1 1-1.191.144l-.645-5.364a.6.6 0 0 1 .524-.668z" fill="#000"/><path fill-rule="evenodd" clip-rule="evenodd" d="M136.085 95.172a.6.6 0 0 1 .815.237 2.384 2.384 0 0 0 1.675 1.238c.31.061.61.062.86.027.26-.036.426-.105.492-.147a.6.6 0 0 1 .653 1.007c-.262.17-.615.278-.98.329-.376.052-.81.05-1.257-.038a3.582 3.582 0 0 1-2.494-1.838.6.6 0 0 1 .236-.815zm-16.72-5.97a.6.6 0 0 1 .805-.269l2.907 1.452a.6.6 0 0 1-.536 1.074l-2.907-1.452a.6.6 0 0 1-.269-.805zm17.221-.051a.6.6 0 0 1 .128.84c-.179.244-.474.487-.807.691a4.61 4.61 0 0 1-1.235.526c-.942.244-2.122.206-3.138-.657a.6.6 0 0 1 .777-.914c.635.539 1.376.587 2.06.41a3.42 3.42 0 0 0 .909-.388c.261-.16.414-.307.467-.38a.6.6 0 0 1 .839-.127zm4.173-1.136a.6.6 0 0 1 .83-.176 2.094 2.094 0 0 0 1.582.294.6.6 0 1 1 .249 1.174 3.3 3.3 0 0 1-2.486-.462.6.6 0 0 1-.175-.83zm-1.639 1.236a.6.6 0 0 1 .792.306c.169.383.341.8.464 1.168.061.184.113.37.146.54a1.447 1.447 0 0 1 .006.59 2.367 2.367 0 0 1-.876 1.295.6.6 0 0 1-.716-.963c.201-.15.348-.36.421-.6a.863.863 0 0 0-.014-.098 3.26 3.26 0 0 0-.106-.386 12.73 12.73 0 0 0-.423-1.06.6.6 0 0 1 .306-.792z" fill="#30242A"/><path d="M121.216 94.435l-3.969 3.744a1.721 1.721 0 0 0-.507 1.61 1.732 1.732 0 0 0 1.107 1.274l4.692 1.664a1.723 1.723 0 0 0 2.181-.991c.11-.274.147-.573.108-.866l-.723-5.4a1.729 1.729 0 0 0-2.889-1.035z" fill="#F4E6D8"/><path d="M178.195 95.431s2.034-1.164 3.78-.582c2.7.9 2.304 3.414 2.304 3.414s3.786-1.365 4.521 2.637c0 0 3.414.765 2.646 4.179 0 0 2.763.147 2.214 3.768-.549 3.621-2.964 6.63-4.416 6.63-1.5 0-2.559-.921-2.355-3.6 0 0-1.818 2.28-3.753 1.266-1.935-1.014-1.161-3.198-1.161-3.198s-1.746 1.164-3.198-.3c-1.317-1.317-.3-3.489-.3-3.489s-1.932.789-2.616-.582c-1.455-2.907 2.547-6.033 3.198-6.975l-.864-3.168z" fill="#DC789D"/><path fill-rule="evenodd" clip-rule="evenodd" d="M184.589 97.745a.6.6 0 0 1 .304.792c-1.668 3.751-5.152 7.281-7.156 9.12a.6.6 0 0 1-.812-.884c1.992-1.827 5.312-5.215 6.872-8.724a.6.6 0 0 1 .792-.304zm4.642 2.917a.6.6 0 0 1 .271.804 32.657 32.657 0 0 1-8.114 10.391.6.6 0 1 1-.777-.914 31.477 31.477 0 0 0 7.816-10.009.6.6 0 0 1 .804-.272zm2.783 4.189a.6.6 0 0 1 .268.805c-1.594 3.192-4.783 7.185-5.679 8.278a.6.6 0 1 1-.928-.76c.903-1.103 4.008-4.999 5.534-8.054a.6.6 0 0 1 .805-.269z" fill="#30242A"/><path d="M185.575 180.325h-50.352l11.445-36.159a5.254 5.254 0 0 1 5.016-3.666h42.549a5.256 5.256 0 0 1 5.191 4.406 5.266 5.266 0 0 1-.175 2.44l-9.465 29.901a4.425 4.425 0 0 1-4.209 3.078z" fill="#D6E3E6"/><path d="M106 176.254a3.125 3.125 0 0 0 2.979 4.071h76.596a4.417 4.417 0 0 0 4.2-3.084l.3-.987H106z" fill="#D6E2E6"/><path d="M177.862 157.3c-1.17-1.602-6.489 2.628-6.879 2.979-.204-.351-2.97-4.581-5.001-2.979-1.761 1.389 2.1 7.59 3.141 9.171a.47.47 0 0 0 .342.153.465.465 0 0 0 .342-.153c1.893-1.596 9.072-7.797 8.055-9.171z" fill="#fff"/><path d="M173.002 156.168c.422-1.357.405-2.57-.04-2.708-.444-.139-1.148.849-1.57 2.206-.423 1.358-.405 2.57.039 2.709.445.138 1.148-.85 1.571-2.207zm-95.853-8.627a3.784 3.784 0 0 0 3.9-.726 3.775 3.775 0 0 0 4.448 3.377 3.774 3.774 0 0 0 1.852-.923 3.77 3.77 0 0 0 2.39 3.178 3.77 3.77 0 0 0 3.91-.727 3.774 3.774 0 0 0 1.612 2.773 3.77 3.77 0 0 0 3.164.527l4.536-12.183A38.809 38.809 0 0 0 105.4 128.2l-.459-16.2s-10.467.87-16.572 8.43c-3.132 3.879-9.28 14.127-13.218 25.269a3.77 3.77 0 0 0 1.998 1.842z" fill="#fff"/><path d="M96.046 154.9a3.77 3.77 0 0 1-2.4-3.18 3.77 3.77 0 0 1-3.91.727 3.773 3.773 0 0 1-2.39-3.178 3.774 3.774 0 0 1-3.913.73 3.775 3.775 0 0 1-2.387-3.184 3.771 3.771 0 0 1-3.239.919 3.782 3.782 0 0 1-2.683-2.032c-3.414 9.657-5.172 19.989-1.866 27.426 7.116 16.017 28.473 10.38 33.513 8.898 5.04-1.482 14.832-6.525 21.357-5.634 6.525.891 13.938 4.152 15.126 0 0 0 3.993-.102 2.736-3.9 0 0 2.007-.249 2.304-1.731.6-2.967-6.525-5.634-6.525-5.634s5.637.9 6.822-.3c1.5-1.5.042-3.921-9.165-6.153-10.113-2.448-23.46-.966-43.332 2.592l2.325-6.249a3.739 3.739 0 0 1-2.373-.117z" fill="#DC789D"/><path fill-rule="evenodd" clip-rule="evenodd" d="M103.233 140.652a.6.6 0 0 1 .374.762l-6.64 19.38a.6.6 0 1 1-1.135-.388l6.639-19.38a.6.6 0 0 1 .762-.374zm26.985 20.812a.6.6 0 0 1 .688-.496c4.23.689 9.644 2.587 12.867 3.811a.6.6 0 0 1-.426 1.122c-3.221-1.224-8.535-3.081-12.634-3.749a.598.598 0 0 1-.495-.688zm-1.04 4.903a.6.6 0 0 1 .682-.504c2.198.328 5.293 1.354 8.32 2.512 3.041 1.164 6.065 2.48 8.14 3.414a.6.6 0 0 1-.492 1.094c-2.065-.929-5.066-2.235-8.077-3.387-3.025-1.157-6.012-2.139-8.068-2.447a.6.6 0 0 1-.505-.682z" fill="#30242A"/><path fill-rule="evenodd" clip-rule="evenodd" d="M96.734 160.547a.599.599 0 0 1-.497.687c-2.228.36-5.724.955-9.215 1.652a.6.6 0 1 1-.235-1.176c3.51-.701 7.023-1.3 9.259-1.66a.6.6 0 0 1 .688.497zm31.56 10.54a.6.6 0 0 1 .702-.477c4.696.894 11.313 4.08 14.407 5.655a.601.601 0 0 1-.544 1.07c-3.116-1.587-9.585-4.689-14.087-5.546a.6.6 0 0 1-.478-.702z" fill="#30242A"/><path d="M235.814 138.52s-2.358 5.304-8.544 5.304-8.556-5.304-8.556-5.304-17.4 39.78-.3 60.702h17.679c17.091-20.922-.279-60.702-.279-60.702z" fill="#C6EDF9"/><path d="M227.255 143.824c6.186 0 8.544-5.304 8.544-5.304h-17.1s2.367 5.304 8.556 5.304z" fill="#30242A"/><path fill-rule="evenodd" clip-rule="evenodd" d="M243.836 173.924a.6.6 0 0 1-.589.611c-9.469.168-20.655 3.579-29.283 15.649a.6.6 0 1 1-.976-.698c8.892-12.44 20.47-15.977 30.237-16.151a.6.6 0 0 1 .611.589zm-1.507-9.395c-11.73-2.792-23.853-1.307-30.25.254a.6.6 0 0 1-.284-1.166c6.515-1.589 18.841-3.104 30.812-.256a.6.6 0 0 1-.278 1.168zm.685 19.611a.6.6 0 0 1-.593.607c-1.967.023-4.886 1.171-7.211 3.531-2.302 2.337-3.999 5.842-3.577 10.567a.601.601 0 0 1-1.196.106c-.454-5.1 1.387-8.945 3.918-11.515 2.509-2.546 5.717-3.861 8.052-3.889a.6.6 0 0 1 .607.593z" fill="#fff"/><path fill-rule="evenodd" clip-rule="evenodd" d="M217.768 110.333a.599.599 0 0 1 .833.161c3.444 5.084 5.435 11.919 6.59 17.973a97.57 97.57 0 0 1 1.58 13.568.6.6 0 1 1-1.199.05 96.247 96.247 0 0 0-1.559-13.393c-1.146-6.002-3.099-12.644-6.405-17.525a.6.6 0 0 1 .16-.834z" fill="#77365A"/><path d="M224.765 128.996c.863-1.462-3.711-5.76-10.217-9.598-6.506-3.838-12.479-5.764-13.342-4.301-.863 1.462 3.711 5.76 10.217 9.598 6.506 3.838 12.479 5.764 13.342 4.301z" fill="#77365A"/><path d="M222.239 86.6c1.266-.723.615-4.251-1.455-7.881-2.069-3.63-4.774-5.987-6.04-5.265-1.267.722-.616 4.25 1.454 7.88 2.069 3.63 4.774 5.987 6.041 5.265zm-22.281 15.389c.681-1.515 3.885-1.626 7.779-.465-2.4-4.293-3.135-8.286-1.548-9.315 1.587-1.029 4.941 1.248 7.884 5.199.519-4.029 1.923-6.9 3.6-6.918 2.118 0 3.852 4.671 3.873 10.449a25.677 25.677 0 0 1-.438 4.926 6.096 6.096 0 0 0-8.634 5.475 25.837 25.837 0 0 1-4.524-1.566c-5.289-2.367-8.859-5.85-7.992-7.785z" fill="#F5C0C0"/><path d="M215.237 106.3a6.09 6.09 0 0 1 5.856-.429c-.516 2.685-1.449 4.677-2.571 5.325-1.068.777-3.33.807-6.063.15a6.091 6.091 0 0 1 2.778-5.046z" fill="#6A264D"/><path fill-rule="evenodd" clip-rule="evenodd" d="M240.741 100.3a.601.601 0 0 1 .251.811c-3.416 6.483-6.205 15.489-8.246 23.495a245.403 245.403 0 0 0-3.733 17.3.6.6 0 0 1-1.182-.208 246.945 246.945 0 0 1 3.752-17.389c2.046-8.024 4.863-17.143 8.347-23.758a.601.601 0 0 1 .811-.251z" fill="#77365A"/><path d="M263.75 132.915c.497-1.532-6.131-5.051-14.804-7.861-8.672-2.809-16.104-3.845-16.601-2.313-.496 1.532 6.132 5.052 14.804 7.861 8.672 2.81 16.105 3.845 16.601 2.313z" fill="#77365A"/><path d="M239.162 80.536c1.656-.15 3.324 2.589 4.221 6.552 2.556-4.2 5.682-6.798 7.359-5.919 1.677.879 1.335 4.917-.666 9.42 3.768-1.521 6.969-1.713 7.8-.267 1.044 1.842-2.181 5.649-7.2 8.499a25.741 25.741 0 0 1-4.5 2.034 6.103 6.103 0 0 0-6.097-5.585 6.096 6.096 0 0 0-2.903.746 26.093 26.093 0 0 1-.855-4.713c-.555-5.754.732-10.575 2.841-10.767z" fill="#F5C0C0"/><path d="M242.903 95.962a6.095 6.095 0 0 1 3.249 4.893c-2.595.867-4.8 1.032-5.904.372-1.2-.549-2.337-2.508-3.105-5.21a6.09 6.09 0 0 1 5.76-.055z" fill="#6A264D"/><path d="M257.048 108.001v.024a6.102 6.102 0 0 0 3.636 11.601v.024c-7.905 2.475-15.129 1.875-16.137-1.344-1.008-3.219 4.596-7.83 12.501-10.305z" fill="#F5C0C0"/><path d="M255.167 118.09a2.966 2.966 0 0 0 1.576-1.482 2.965 2.965 0 0 0-1.214-3.841 2.96 2.96 0 0 0-2.141-.308 6.099 6.099 0 0 1 3.666-4.434l3.636 11.601a6.11 6.11 0 0 1-5.523-1.536z" fill="#E084A3"/><path d="M256.877 114.46a2.964 2.964 0 0 1-1.71 3.63 6.096 6.096 0 0 1-1.779-5.631 2.965 2.965 0 0 1 3.489 2.001z" fill="#6A264D"/></g><defs><clipPath id="a"><path fill="#fff" d="M0 0h356v199H0z"/></clipPath></defs></svg>