<svg width="356" height="199" viewBox="0 0 356 199" fill="none" xmlns="http://www.w3.org/2000/svg"><g clip-path="url(#a)"><path fill="#EEE6DF" d="M0 0h356v199H0z"/><path opacity=".05" fill-rule="evenodd" clip-rule="evenodd" d="M122.381 109.179H60.855a3.485 3.485 0 0 1-3.49-3.486V61.509a3.485 3.485 0 0 1 3.49-3.486h61.526a3.485 3.485 0 0 1 3.489 3.486v44.194a3.496 3.496 0 0 1-3.489 3.476z" fill="#281713"/><path fill-rule="evenodd" clip-rule="evenodd" d="M122.381 109.284H60.855a3.598 3.598 0 0 1-3.595-3.592V61.509a3.598 3.598 0 0 1 3.595-3.592h61.526a3.598 3.598 0 0 1 3.595 3.592v44.194a3.61 3.61 0 0 1-3.595 3.581zM60.855 58.128a3.386 3.386 0 0 0-3.384 3.38v44.195a3.387 3.387 0 0 0 3.384 3.381h61.526a3.386 3.386 0 0 0 3.384-3.381V61.509a3.386 3.386 0 0 0-3.384-3.381H60.855z" fill="#EEE6DF"/><path fill-rule="evenodd" clip-rule="evenodd" d="M124.953 106.092H63.438a3.485 3.485 0 0 1-3.49-3.486V58.423a3.485 3.485 0 0 1 3.49-3.486h61.526a3.485 3.485 0 0 1 3.489 3.486v44.194a3.498 3.498 0 0 1-3.5 3.475z" fill="#fff"/><path d="M82.837 62.857H70.175v37.948h12.662V62.857z" fill="#CCA266"/><path d="M100.527 71.062H87.865v29.743h12.662V71.062z" fill="#DF9584"/><path d="M118.217 80.52h-12.661v20.285h12.661V80.519z" fill="#6173BA"/><path fill-rule="evenodd" clip-rule="evenodd" d="M162.081 71.493c0-4.927-3.992-8.908-8.893-8.833-4.721.064-8.577 3.959-8.64 8.716a8.837 8.837 0 0 0 2.778 6.578c.549.51.95 1.17 1.13 1.894l1.268 4.906a2.15 2.15 0 0 0 2.08 1.618h3.158a1.98 1.98 0 0 0 1.912-1.49l1.384-5.353a2.866 2.866 0 0 1 .866-1.416 8.867 8.867 0 0 0 2.957-6.62z" fill="#EAB34B"/><path fill-rule="evenodd" clip-rule="evenodd" d="M156.98 87.98h-7.33a1.254 1.254 0 0 1-1.247-1.257c0-.691.56-1.255 1.247-1.255h7.33c.686 0 1.246.564 1.246 1.255 0 .692-.56 1.256-1.246 1.256z" fill="#281713"/><path fill-rule="evenodd" clip-rule="evenodd" d="M156.98 88.086h-7.33a1.36 1.36 0 0 1-1.352-1.362c0-.746.612-1.363 1.352-1.363h7.33c.75 0 1.352.617 1.352 1.362 0 .746-.613 1.363-1.352 1.363zm-7.341-2.512c-.634 0-1.141.522-1.141 1.15 0 .638.518 1.149 1.141 1.149h7.33c.634 0 1.141-.522 1.141-1.15 0-.638-.518-1.149-1.141-1.149h-7.33z" fill="#281713"/><path fill-rule="evenodd" clip-rule="evenodd" d="M156.98 90.544h-7.33a1.254 1.254 0 0 1-1.247-1.255c0-.692.56-1.256 1.247-1.256h7.33c.686 0 1.246.564 1.246 1.255 0 .692-.56 1.256-1.246 1.256z" fill="#281713"/><path fill-rule="evenodd" clip-rule="evenodd" d="M156.98 90.651h-7.33a1.36 1.36 0 0 1-1.352-1.362c0-.745.612-1.363 1.352-1.363h7.33c.75 0 1.352.618 1.352 1.363s-.613 1.362-1.352 1.362zm-7.341-2.512c-.634 0-1.141.522-1.141 1.15 0 .628.518 1.15 1.141 1.15h7.33c.634 0 1.141-.522 1.141-1.15 0-.628-.518-1.15-1.141-1.15h-7.33z" fill="#281713"/><path fill-rule="evenodd" clip-rule="evenodd" d="M155.797 93.11h-4.985a1.254 1.254 0 0 1-1.247-1.257c0-.691.56-1.255 1.247-1.255h4.985c.687 0 1.246.564 1.246 1.255a1.246 1.246 0 0 1-1.246 1.256z" fill="#281713"/><path fill-rule="evenodd" clip-rule="evenodd" d="M155.797 93.216h-4.985a1.36 1.36 0 0 1-1.352-1.363c0-.745.612-1.362 1.352-1.362h4.985c.75 0 1.352.617 1.352 1.362a1.36 1.36 0 0 1-1.352 1.363zm-4.975-2.512c-.633 0-1.14.521-1.14 1.15 0 .627.517 1.149 1.14 1.149h4.986c.633 0 1.14-.522 1.14-1.15 0-.628-.517-1.15-1.14-1.15h-4.986zm3.75-3.959l-.212-.032c.011-.043.645-4.215 1.468-8.334.307-1.522.581-2.767.824-3.788-.021.01-.053.01-.074.02-.676.182-1.014-.031-1.172-.255a.937.937 0 0 1-.158-.308c-.201.096-.412.17-.645.213-.401.074-.76-.064-1.035-.405l-.095-.127c-.317.478-.697.819-1.077.883-.518.096-1.025-.128-1.416-.639a2.964 2.964 0 0 1-.306-.49 2.028 2.028 0 0 1-.179.245c-.127.16-.254.277-.381.362 1.025 4.353 1.711 12.176 1.754 12.612l-.212.022c-.01-.107-.718-8.132-1.732-12.527a1.05 1.05 0 0 1-.845.01c-.76-.34-1.278-1.521-1.162-2.256.074-.436.338-.702.761-.745a.475.475 0 0 1 .348.128c.37.308.719 1.256 1.025 2.533.095-.075.18-.16.264-.277.085-.106.169-.223.243-.34-.359-.894-.38-2.012 0-2.895.179-.405.348-.607.539-.618.084 0 .2.032.285.213.158.309.179.937.053 1.597a5.267 5.267 0 0 1-.634 1.703c.095.223.211.415.338.574.348.437.781.639 1.214.554.349-.064.698-.405.993-.873-.454-.862-.486-2.256-.169-3.076.159-.415.402-.66.697-.702.18-.032.507.01.592.564.127.777-.264 2.214-.877 3.214.043.064.085.128.138.192.232.276.517.393.834.33.222-.043.433-.118.634-.224a2.425 2.425 0 0 1 .021-.788 4.32 4.32 0 0 1 .496-1.426c.264-.457.549-.692.803-.66.253.032.401.245.401.575.011.639-.528 1.81-1.489 2.405a.736.736 0 0 0 .137.288c.18.234.507.298.951.17l.19-.064c1.088-4.385 1.658-4.406 1.87-4.406.433-.01.728.255.792.724.158 1.107-.898 3.203-2.493 3.853a100.97 100.97 0 0 0-.855 3.905c-.803 4.151-1.437 8.323-1.447 8.366zm4.055-16.593h-.021c-.211.011-.729.49-1.637 4.077 1.109-.586 2.408-2.193 2.218-3.544-.053-.352-.243-.532-.56-.532zm-9.896 1.278h-.021c-.328.031-.518.223-.571.564-.105.649.359 1.724 1.035 2.032a.79.79 0 0 0 .708-.02c-.306-1.267-.634-2.204-.982-2.491a.218.218 0 0 0-.169-.085zm7.752-.256c-.158 0-.369.213-.57.554-.338.585-.56 1.394-.507 1.98.845-.565 1.331-1.608 1.32-2.172 0-.224-.084-.351-.222-.373-.01.011-.021.011-.021.011zm-2.513-1.203h-.053c-.264.043-.433.33-.528.575-.275.713-.264 1.97.105 2.778.539-.947.887-2.267.771-2.97-.053-.34-.2-.382-.295-.382zm-2.852 0c-.011 0-.148.022-.349.49-.369.852-.317 1.82-.053 2.576.645-1.171.719-2.512.486-2.959-.031-.064-.063-.106-.084-.106z" fill="#281713"/><path fill-rule="evenodd" clip-rule="evenodd" d="M236.426 145.961h-30.588a1.273 1.273 0 0 1-1.258-1.28v-.928c0-.705.566-1.281 1.258-1.281h30.588c.692 0 1.258.576 1.258 1.281v.928c0 .704-.566 1.28-1.258 1.28z" fill="#7A7372"/><path fill-rule="evenodd" clip-rule="evenodd" d="M236.426 146.068h-30.588a1.372 1.372 0 0 1-1.363-1.387v-.928c0-.769.608-1.388 1.363-1.388h30.588c.755 0 1.363.619 1.363 1.388v.928c0 .757-.619 1.387-1.363 1.387zm-30.588-3.489a1.16 1.16 0 0 0-1.153 1.174v.928a1.16 1.16 0 0 0 1.153 1.173h30.588a1.16 1.16 0 0 0 1.153-1.173v-.928a1.16 1.16 0 0 0-1.153-1.174h-30.588z" fill="#7A7372"/><path fill-rule="evenodd" clip-rule="evenodd" d="M204.559 144.755l-9.162-28.733c-.293-.907.199-1.899 1.101-2.198.891-.299 1.866.203 2.159 1.12l9.162 28.734c.293.907-.199 1.899-1.101 2.198a1.719 1.719 0 0 1-2.159-1.121z" fill="#7A7372"/><path fill-rule="evenodd" clip-rule="evenodd" d="M206.184 146.068c-.283 0-.566-.064-.828-.203a1.827 1.827 0 0 1-.902-1.078l-9.162-28.733a1.875 1.875 0 0 1 .116-1.408c.22-.438.597-.769 1.058-.918a1.8 1.8 0 0 1 2.286 1.184l9.161 28.734c.147.469.105.971-.115 1.408-.22.438-.598.768-1.059.918a1.645 1.645 0 0 1-.555.096zm-9.173-32.223c-.167 0-.335.022-.492.086a1.64 1.64 0 0 0-1.028 2.059l9.162 28.733c.137.417.42.747.797.95.377.203.818.235 1.226.096a1.65 1.65 0 0 0 1.038-2.059l-9.162-28.734a1.65 1.65 0 0 0-.796-.949 1.568 1.568 0 0 0-.745-.182z" fill="#7A7372"/><g opacity=".05" fill-rule="evenodd" clip-rule="evenodd" fill="#281713"><path d="M234.628 81.458h-35.242c-5.356 0-9.699 4.316-9.699 9.636v10.286c0 2.084 2.33 3.341 4.09 2.2l4.502-2.912c.358.042.738.063 1.107.063h35.242c5.355 0 9.699-4.316 9.699-9.637 0-5.32-4.344-9.636-9.699-9.636z"/><path d="M192.344 104.114a2.86 2.86 0 0 1-1.318-.335 2.68 2.68 0 0 1-1.444-2.399V91.094c0-5.373 4.396-9.74 9.804-9.74h35.242c5.408 0 9.804 4.367 9.804 9.74 0 5.374-4.396 9.741-9.804 9.741h-35.242c-.359 0-.717-.021-1.086-.063l-4.47 2.891c-.453.304-.97.451-1.486.451zm7.042-22.551c-5.292 0-9.594 4.273-9.594 9.531v10.286c0 .943.496 1.77 1.329 2.221a2.51 2.51 0 0 0 2.593-.105l4.533-2.933h.042c.369.042.738.063 1.097.063h35.242c5.292 0 9.593-4.274 9.593-9.532s-4.301-9.531-9.593-9.531h-35.242z"/></g><path fill-rule="evenodd" clip-rule="evenodd" d="M233.605 79.447h-35.242c-5.355 0-9.699 4.315-9.699 9.636V99.37c0 2.084 2.33 3.341 4.091 2.199l4.501-2.911c.359.041.738.062 1.107.062h35.242c5.356 0 9.699-4.315 9.699-9.636-.011-5.32-4.343-9.636-9.699-9.636z" fill="#fff"/><path d="M203.518 91.796a2.721 2.721 0 0 0 2.73-2.713 2.721 2.721 0 0 0-2.73-2.713 2.721 2.721 0 0 0-2.73 2.713 2.721 2.721 0 0 0 2.73 2.713zm12.461 0a2.721 2.721 0 0 0 2.73-2.713 2.721 2.721 0 0 0-2.73-2.713 2.722 2.722 0 0 0-2.731 2.713 2.722 2.722 0 0 0 2.731 2.713zm12.46 0a2.722 2.722 0 0 0 2.731-2.713 2.722 2.722 0 0 0-2.731-2.713 2.721 2.721 0 0 0-2.73 2.713 2.721 2.721 0 0 0 2.73 2.713z" fill="#CCA266"/><path opacity=".05" fill-rule="evenodd" clip-rule="evenodd" d="M280.791 51.82h-48.893c-5.4 0-9.779 4.328-9.779 9.665 0 .157 0 .315.011.473l-.011-.01v10.316c0 2.09 2.349 3.351 4.124 2.206l5.176-3.34c.16.01.319.01.468.01h48.904c5.399 0 9.779-4.329 9.779-9.666 0-5.326-4.38-9.654-9.779-9.654z" fill="#281713"/><path fill-rule="evenodd" clip-rule="evenodd" d="M279.834 49.697h-48.882c-5.4 0-9.779 4.329-9.779 9.666 0 .157 0 .315.011.472l-.011-.01v10.317c0 2.09 2.349 3.351 4.124 2.206l5.176-3.34c.16.01.319.01.468.01h48.893c5.4 0 9.779-4.329 9.779-9.666 0-5.337-4.379-9.655-9.779-9.655z" fill="#fff"/><path fill-rule="evenodd" clip-rule="evenodd" d="M247.958 58.186h-16.113a1.272 1.272 0 0 1-1.276-1.26c0-.694.574-1.261 1.276-1.261h16.113a1.27 1.27 0 0 1 1.275 1.26c0 .694-.573 1.261-1.275 1.261zm30.994 4.864h-47.107a1.272 1.272 0 0 1-1.276-1.26c0-.694.574-1.261 1.276-1.261h47.107a1.27 1.27 0 0 1 1.275 1.26c0 .694-.573 1.261-1.275 1.261z" fill="#DF9584"/><path fill-rule="evenodd" clip-rule="evenodd" d="M162.092 128.51l-.491 5.511-.512 5.777-.544 6.204h-8.8l-.554-6.204-.512-5.777-.491-5.511h11.904z" fill="#EAB34B"/><path fill-rule="evenodd" clip-rule="evenodd" d="M160.953 127.593h-9.626a.908.908 0 0 1-.899-.917v-.767c0-.501.397-.917.899-.917h9.626c.491 0 .899.405.899.917v.767a.908.908 0 0 1-.899.917zm.648 6.428l-.512 5.777h-9.898l-.512-5.777h10.922z" fill="#6173BA"/><path fill-rule="evenodd" clip-rule="evenodd" d="M162.594 129.448h-12.897a.907.907 0 0 1-.899-.917v-.768c0-.501.397-.916.899-.916h12.897c.491 0 .899.405.899.916v.768c-.011.512-.408.917-.899.917z" fill="#6173BA"/><path fill-rule="evenodd" clip-rule="evenodd" d="M155.396 96.347a1.544 1.544 0 0 0-2.166-.253l-1.964 1.553a1.54 1.54 0 0 0-2.419-1.796l-8.229 7.321 1.426-3.074a1.546 1.546 0 0 0-.75-2.05 1.545 1.545 0 0 0-2.049.75l-5.059 10.861c-.36.771-.021 1.69.75 2.05.771.359 4.964.739 5.482 1.405a1.518 1.518 0 0 0 2.144.253l10.943-8.61a1.52 1.52 0 0 0 .254-2.145l-.022-.021.74-.581c.665-.528.781-1.5.253-2.166a1.516 1.516 0 0 0-.676-.486l1.067-.834c.687-.54.803-1.511.275-2.177z" fill="#A56146"/><path fill-rule="evenodd" clip-rule="evenodd" d="M144.65 103.56l6.544-6.003.142.156-6.543 6.003-.143-.156zm3.263.569l6.079-4.866.131.165-6.078 4.866-.132-.165zm1.46 1.588l4.296-3.229.127.169-4.296 3.229-.127-.169z" fill="#281713"/><path fill-rule="evenodd" clip-rule="evenodd" d="M126.585 149.932c-4.623 2.028-6.724 7.437-4.697 12.065l27.076 61.677h19.983l-30.307-69.041c-2.037-4.627-7.431-6.74-12.055-4.701z" fill="#978F63"/><path fill-rule="evenodd" clip-rule="evenodd" d="M89.744 160.296l-22.358-5.42 21.461-47.267c2.586-5.694 9.29-8.209 14.979-5.62 5.69 2.588 8.202 9.297 5.616 14.991l-19.698 43.316z" fill="#fff"/><path fill-rule="evenodd" clip-rule="evenodd" d="M105.131 104.942l8.532-12.58.175.12-8.533 12.579-.174-.119z" fill="#281713"/><path fill-rule="evenodd" clip-rule="evenodd" d="M116.451 94.266c-.2.423-.422.835-.633 1.247-.053.095-.095.19-.148.274-.032.064-.063.116-.095.18-.295.57-.581 1.14-.876 1.7-.296.56-.591 1.131-.897 1.691l-.507.951c-.127.243-.264.497-.401.74l-.591 1.088-.138.264-.179.327-.918 1.67c-.307.56-.613 1.119-.95 1.658a12.237 12.237 0 0 1-1.119 1.543c-1.088 1.236-3.262 1.384-5.205.264-2.206-1.278-3.283-3.708-2.406-5.43.285-.571.644-1.089 1.013-1.606.38-.507.792-.993 1.193-1.49l1.203-1.479 1.225-1.469c.401-.496.813-.971 1.224-1.468l1.235-1.458c.412-.486.834-.961 1.257-1.447.422-.476.833-.962 1.266-1.437.771-.856 2.291-.972 3.663-.19 1.288.729 2.048 2.018 1.953 3.148a1.45 1.45 0 0 1-.169.729z" fill="#A6654A"/><path fill-rule="evenodd" clip-rule="evenodd" d="M115.681 95.798c-.032.063-.063.116-.095.18-.296.57-.581 1.14-.876 1.7-.296.56-.591 1.131-.898 1.69l-.506.952a26.81 26.81 0 0 1-.401.739l-.592 1.088c-.886-1.489-1.361-3.137-1.615-4.638a7.673 7.673 0 0 1-.073-.475c-.338-2.409-.095-4.32-.095-4.32l2.216 1.182 2.977 1.596c0 .095-.021.2-.042.306z" fill="#281713"/><path fill-rule="evenodd" clip-rule="evenodd" d="M112.323 102.348l-.095-.158c-.781-1.31-1.33-2.885-1.625-4.68-.032-.16-.053-.318-.074-.476-.328-2.398-.106-4.321-.095-4.342l.021-.148 5.394 2.884-.011.074c-.01.116-.031.222-.052.328l-.011.02c-.021.032-.032.064-.053.106l-.042.074c-.095.19-.19.38-.285.56-.19.37-.39.76-.591 1.141l-.095.19c-.264.497-.528 1.004-.792 1.5l-.105.201c-.127.243-.264.497-.401.74-.127.243-.264.496-.402.739l-.686 1.247zm-1.71-9.477c-.042.497-.158 2.156.116 4.131.021.159.043.317.074.476.285 1.69.792 3.19 1.51 4.447l.506-.919c.138-.243.264-.486.402-.739.137-.243.263-.497.401-.74l.105-.2c.264-.497.539-1.004.792-1.5l.095-.19c.201-.381.401-.761.591-1.131.095-.19.19-.38.285-.56l.042-.074c.011-.032.032-.064.043-.095.021-.074.031-.148.042-.222l-5.004-2.684z" fill="#281713"/><path fill-rule="evenodd" clip-rule="evenodd" d="M114.794 79.75c2.755-.507 5.447.697 6.978 2.863l.021.032c.116.169.222.338.327.507l3.811 5.98a.924.924 0 0 1-.327 1.341l-1.637.867c.148 3.422-2.259 6.54-5.71 7.173-3.779.697-7.432-1.828-8.129-5.61l-.918-5.008c-.718-3.782 1.805-7.448 5.584-8.145z" fill="#A6654A"/><path d="M120.663 87.79a.634.634 0 1 0 0-1.268.634.634 0 0 0 0 1.268z" fill="#281713"/><path fill-rule="evenodd" clip-rule="evenodd" d="M120.662 87.895a.747.747 0 0 1-.675-1.046.745.745 0 0 1 1.372.032.76.76 0 0 1-.011.57.681.681 0 0 1-.411.392.898.898 0 0 1-.275.052zm0-1.267a.603.603 0 0 0-.19.031.556.556 0 0 0-.295.286.527.527 0 0 0-.011.401.558.558 0 0 0 .285.296.528.528 0 0 0 .401.01.555.555 0 0 0 .296-.285.527.527 0 0 0-.486-.74zm.834 7.427c-.876 0-2.406-.307-2.913-2.367l.201-.053c.675 2.726 3.198 2.177 3.304 2.145l.052.2c-.01.022-.274.075-.644.075z" fill="#281713"/><path d="M104.28 79.475c3.3 0 5.975-2.677 5.975-5.98a5.977 5.977 0 0 0-5.975-5.98 5.977 5.977 0 0 0-5.975 5.98 5.977 5.977 0 0 0 5.975 5.98z" fill="#281713"/><path fill-rule="evenodd" clip-rule="evenodd" d="M104.279 79.581c-.274 0-.549-.021-.834-.053a6.077 6.077 0 0 1-5.193-6.856c.454-3.328 3.526-5.663 6.851-5.198a6.076 6.076 0 0 1 5.193 6.856c-.411 3.032-3.029 5.251-6.017 5.251zm-.01-11.96a5.874 5.874 0 0 0-4.666 9.424 5.838 5.838 0 0 0 3.874 2.272c.275.032.538.053.802.053a5.893 5.893 0 0 0 5.817-5.071 5.857 5.857 0 0 0-1.14-4.353 5.84 5.84 0 0 0-4.687-2.324z" fill="#281713"/><path fill-rule="evenodd" clip-rule="evenodd" d="M149.154 109.152h-15.707l-11.749 18.213-12.477-20.125c-1.901-3.075-5.933-4.015-9.005-2.113-3.072 1.901-4.011 5.937-2.111 9.011l17.945 28.948c1.9 3.074 5.933 4.014 9.005 2.113a6.568 6.568 0 0 0 2.407-2.641l21.692-33.406z" fill="#fff"/><path fill-rule="evenodd" clip-rule="evenodd" d="M113.295 86.163s9.786.665 10.831-5.536c1.045-6.202-10.388-6.487-15.053-.993-5.395 6.339-4.698 6.413-12.383 8.642-7.474 2.166-11.791 5.99-14.884 13.85-2.819 7.174-4.73 9.17-5.078 13.713-.348 4.533 3.716 10.618 10.916 7.406 6.344-2.831 1.382-6.286 13.459-10.818 11.031-4.141 12.192-26.264 12.192-26.264z" fill="#281713"/><path fill-rule="evenodd" clip-rule="evenodd" d="M83.802 124.26a6.589 6.589 0 0 1-3.864-1.215c-2.195-1.543-3.515-4.448-3.304-7.216.222-2.948 1.12-4.849 2.46-7.723.728-1.553 1.626-3.476 2.618-6.022 1.573-3.993 3.42-6.888 5.827-9.096 2.343-2.155 5.246-3.687 9.13-4.818 6.778-1.965 7-2.229 10.705-6.666.475-.57 1.013-1.215 1.636-1.944 1.478-1.743 3.737-3.022 6.344-3.613 2.407-.539 4.856-.391 6.545.39 1.837.856 2.671 2.388 2.354 4.3-.433 2.578-2.47 4.374-5.89 5.177-2.259.54-4.455.476-4.951.455-.053.792-.433 5.958-1.953 11.494-.971 3.518-2.206 6.508-3.684 8.864-1.847 2.958-4.075 4.944-6.608 5.895-7.041 2.641-8.255 4.902-9.332 6.899-.76 1.405-1.467 2.726-4.127 3.919-1.5.666-2.798.92-3.906.92zm34.381-48.419c-.907 0-1.858.106-2.808.317-2.565.581-4.771 1.838-6.228 3.54-.612.728-1.161 1.373-1.636 1.943-3.747 4.48-3.969 4.754-10.799 6.73-3.853 1.12-6.724 2.63-9.047 4.765-2.375 2.187-4.211 5.06-5.774 9.022-1.003 2.546-1.9 4.479-2.628 6.032-1.33 2.853-2.217 4.744-2.439 7.649-.2 2.652 1.12 5.547 3.22 7.026 1.446 1.014 3.927 1.891 7.548.275 2.597-1.162 3.261-2.388 4.032-3.825 1.087-2.028 2.333-4.321 9.437-6.994 2.492-.94 4.677-2.894 6.503-5.81 1.467-2.346 2.692-5.304 3.663-8.8 1.647-5.97 1.953-11.506 1.953-11.559l.01-.105.106.01c.021 0 2.47.159 4.993-.443 3.378-.803 5.299-2.483 5.721-5.008.306-1.807-.485-3.254-2.227-4.068-.982-.464-2.238-.697-3.6-.697z" fill="#281713"/><path d="M112.65 90.198a2.556 2.556 0 0 0 0-5.113 2.555 2.555 0 0 0-2.554 2.557 2.555 2.555 0 0 0 2.554 2.556z" fill="#A6654A"/><path fill-rule="evenodd" clip-rule="evenodd" d="M114.202 88.308l-.2-.064c.021-.053.39-1.373-.75-1.986-1.14-.613-1.858.37-1.89.412l-.168-.127c.01-.01.865-1.172 2.164-.475 1.277.697.844 2.229.844 2.24zm-17.079 24.129l5.468 19.63 2.766-6.223-8.234-13.407z" fill="#281713"/><path fill-rule="evenodd" clip-rule="evenodd" d="M102.569 132.373l-5.742-20.633 8.656 14.104-.021.053-2.893 6.476zm-5.14-19.238l5.183 18.615 2.628-5.895-7.811-12.72z" fill="#281713"/><path fill-rule="evenodd" clip-rule="evenodd" d="M126.332 148.548H70.247s-2.797 4.69-3.093 7.046a9.606 9.606 0 0 0-.296 2.356c0 5.188 4.202 9.403 9.395 9.403h40.927v56.31h18.293v-65.956a9.137 9.137 0 0 0-9.141-9.159z" fill="#B4AD86"/><path fill-rule="evenodd" clip-rule="evenodd" d="M60.24 173.129h35.324c1.773 0 3.222-1.459 3.222-3.245 0-1.785-1.449-3.244-3.222-3.244H60.239c-1.773 0-3.221 1.459-3.221 3.244 0 1.786 1.448 3.245 3.221 3.245z" fill="#4B2E25"/><path fill-rule="evenodd" clip-rule="evenodd" d="M95.564 173.234H60.239c-1.836 0-3.326-1.5-3.326-3.35 0-1.849 1.49-3.349 3.326-3.349h35.325c1.836 0 3.327 1.5 3.327 3.349 0 1.85-1.49 3.35-3.327 3.35zm-35.325-6.488c-1.72 0-3.116 1.405-3.116 3.138 0 1.733 1.395 3.139 3.116 3.139h35.325c1.72 0 3.117-1.406 3.117-3.139 0-1.733-1.396-3.138-3.117-3.138H60.239z" fill="#4B2E25"/><path fill-rule="evenodd" clip-rule="evenodd" d="M95.963 173.202H59.84c-1.595 0-2.897-1.31-2.897-2.916v-.803c0-1.606 1.302-2.917 2.897-2.917h36.122c1.595 0 2.896 1.311 2.896 2.917v.803c0 1.606-1.301 2.916-2.896 2.916zm-36.122-6.488c-1.522 0-2.75 1.247-2.75 2.769v.803a2.762 2.762 0 0 0 2.75 2.769h36.122c1.522 0 2.75-1.247 2.75-2.769v-.803a2.762 2.762 0 0 0-2.75-2.769H59.84z" fill="#4B2E25"/><path fill-rule="evenodd" clip-rule="evenodd" d="M95.963 173.308H59.84a3.011 3.011 0 0 1-3.002-3.022v-.803a3.012 3.012 0 0 1 3.002-3.023h36.122c1.658 0 3 1.353 3 3.023v.803a3.011 3.011 0 0 1-3 3.022zM59.84 166.82a2.656 2.656 0 0 0-2.645 2.663v.803a2.656 2.656 0 0 0 2.645 2.663h36.122a2.656 2.656 0 0 0 2.644-2.663v-.803a2.656 2.656 0 0 0-2.644-2.663H59.84z" fill="#4B2E25"/><path fill-rule="evenodd" clip-rule="evenodd" d="M80.007 215.468h-4.01v-46.613h4.01v46.613z" fill="#4B2E25"/><path fill-rule="evenodd" clip-rule="evenodd" d="M80.116 215.567h-4.219v-46.824h4.219v46.824zm-3.999-.211h3.8v-46.402h-3.8v46.402z" fill="#4B2E25"/><path fill-rule="evenodd" clip-rule="evenodd" d="M80.084 215.535H75.94v-46.76h4.145v46.76zm-4.009-.148h3.862v-46.464h-3.862v46.464z" fill="#4B2E25"/><path fill-rule="evenodd" clip-rule="evenodd" d="M80.19 215.641h-4.356v-46.972h4.355v46.972zm-4.01-.359h3.652v-46.254H76.18v46.254z" fill="#4B2E25"/><path fill-rule="evenodd" clip-rule="evenodd" d="M266.139 95.16l.19-.094 7.651 15.26-.189.094-7.652-15.26z" fill="#281713"/><path fill-rule="evenodd" clip-rule="evenodd" d="M262.925 96.75c.169.495.339.99.519 1.484.042.116.085.221.117.337.021.073.052.137.074.21.243.674.476 1.347.731 2.021.243.673.497 1.347.741 2.01.138.379.286.747.424 1.126.106.295.222.589.339.873l.498 1.295.116.305.148.389.784 2c.159.389.307.789.466 1.179l5.551-.19.127-.073 4.513-2.726a13.261 13.261 0 0 0-.445-.863c-.339-.621-.731-1.221-1.102-1.831l-1.133-1.821-1.144-1.81c-.382-.61-.763-1.21-1.155-1.81-.381-.6-.773-1.2-1.165-1.8-.392-.6-.784-1.2-1.187-1.8a89.18 89.18 0 0 0-1.207-1.788c-.731-1.074-2.426-1.42-4.078-.758-1.558.621-2.596 1.936-2.659 3.2 0 .294.032.578.127.841z" fill="#DF9584"/><path fill-rule="evenodd" clip-rule="evenodd" d="M264.111 99.981c.021.074.053.137.074.211.244.673.477 1.347.731 2.02.244.674.498 1.347.742 2.01.137.379.286.747.423 1.126.106.295.223.59.339.874l.498 1.294c1.218-1.515 2.002-3.283 2.511-4.915.053-.178.106-.347.148-.515.741-2.631.763-4.788.763-4.788l-2.67.989-3.57 1.326c-.01.126-.01.252.011.368z" fill="#281713"/><path fill-rule="evenodd" clip-rule="evenodd" d="M266.875 107.737l-.562-1.473c-.116-.295-.222-.589-.339-.884-.116-.305-.233-.611-.338-.916l-.085-.21c-.223-.6-.456-1.221-.668-1.81l-.074-.2c-.169-.453-.328-.916-.487-1.358-.074-.221-.159-.442-.233-.663l-.032-.094c-.01-.043-.032-.074-.042-.116l-.011-.021c-.01-.127-.021-.242-.01-.38v-.073l6.451-2.389v.158c0 .021-.032 2.2-.763 4.809-.053.19-.106.358-.148.516-.604 1.947-1.452 3.61-2.532 4.946l-.127.158zm-2.669-7.777c.01.032.021.074.042.105l.032.095c.084.221.159.442.233.663.159.442.317.905.487 1.358l.074.2c.223.589.445 1.21.667 1.81l.085.21c.117.305.233.611.339.916.106.294.223.589.339.873l.434 1.126c1.007-1.294 1.801-2.883 2.373-4.735.053-.158.096-.327.149-.516.614-2.19.73-4.062.752-4.599l-6.028 2.231c.011.084.022.179.022.263z" fill="#281713"/><path fill-rule="evenodd" clip-rule="evenodd" d="M267.183 82.322c-3.008-.979-6.207-.042-8.241 2.136l-.032.032c-.159.168-.296.337-.445.516l-5.158 6.072a1.037 1.037 0 0 0 .169 1.547l1.695 1.21c-.678 3.778 1.536 7.598 5.307 8.83 4.121 1.336 8.601-.916 9.947-5.01l1.79-5.43c1.356-4.115-.911-8.566-5.032-9.903z" fill="#DF9584"/><path d="M259.493 90.383c.398 0 .72-.32.72-.715a.718.718 0 0 0-.72-.716.718.718 0 0 0-.721.716c0 .395.323.715.721.715z" fill="#281713"/><path fill-rule="evenodd" clip-rule="evenodd" d="M259.494 90.489a.794.794 0 0 1-.403-.106.846.846 0 0 1-.392-.484.797.797 0 0 1 .074-.62.84.84 0 0 1 .498-.39.81.81 0 0 1 .625.074.833.833 0 0 1 .392.494.793.793 0 0 1-.074.621.84.84 0 0 1-.498.39c-.074.01-.148.02-.222.02zm0-1.432a.94.94 0 0 0-.17.021.614.614 0 0 0-.424.748.63.63 0 0 0 .286.368.626.626 0 0 0 .837-.231.622.622 0 0 0-.233-.831.721.721 0 0 0-.296-.075zm-1.429 8.177c-.71 0-1.239-.189-1.25-.2l.074-.2c.117.043 2.871 1.042 4.047-1.904l.201.073c-.731 1.853-2.076 2.231-3.072 2.231z" fill="#281713"/><path fill-rule="evenodd" clip-rule="evenodd" d="M267.85 88.9c-2.002-1.063-16.62.052-17.149-7.662-.54-7.808 7.574-6.072 9.819-3.473 0 0 1.557-2.494 4.11.137 2.543 2.631 6.472 3.526 11.758 6.462 2.595 1.441 1.737 13.133-3.866 13.028-7.532-.137-4.672-8.492-4.672-8.492z" fill="#281713"/><path fill-rule="evenodd" clip-rule="evenodd" d="M272.586 97.498h-.074c-2.044-.043-3.527-.684-4.396-1.916-1.652-2.347-.604-5.998-.402-6.63-.541-.231-1.791-.358-3.358-.516-5-.494-13.358-1.336-13.76-7.198-.244-3.515 1.26-4.883 2.563-5.42 2.384-.968 5.847.148 7.352 1.769.201-.264.762-.895 1.641-.99.816-.084 1.674.327 2.553 1.232 1.579 1.63 3.676 2.578 6.335 3.788 1.599.726 3.4 1.547 5.402 2.652 1.451.81 1.907 4.736.953 8.23-.868 3.188-2.616 4.999-4.809 4.999zm-17.457-21.816c-.667 0-1.313.105-1.885.337-1.78.726-2.616 2.525-2.436 5.209.392 5.683 8.643 6.514 13.569 6.998 1.674.168 2.998.295 3.517.579l.074.042-.032.084c0 .01-.349 1.042-.477 2.358-.116 1.21-.074 2.904.827 4.177.826 1.18 2.256 1.79 4.226 1.832h.074c2.956 0 4.195-3.379 4.598-4.83.911-3.358.497-7.241-.858-7.999-1.992-1.105-3.793-1.926-5.382-2.641-2.68-1.221-4.798-2.179-6.398-3.842-.826-.852-1.62-1.241-2.372-1.168-.985.106-1.558 1-1.568 1.01l-.074.127-.096-.105c-1.027-1.21-3.273-2.168-5.307-2.168z" fill="#281713"/><path fill-rule="evenodd" clip-rule="evenodd" d="M322.351 132.35v23.418c0 1.225-.68 2.303-1.686 2.842v11.18c0 3.604-1.865 6.785-4.661 8.602-.252 1.268-1.362 2.23-2.693 2.23h-13.01v35.665a17.402 17.402 0 0 1 8.925 3.561 18.098 18.098 0 0 1 4.463 5.041c.115-.011.241-.021.356-.021 2.273 0 4.116 1.859 4.116 4.153 0 2.293-1.843 4.153-4.116 4.153-2.273 0-4.117-1.86-4.117-4.153 0-1.047.388-2.008 1.027-2.748a14.933 14.933 0 0 0-3.583-3.994 14.48 14.48 0 0 0-8.893-3.023c-3.352 0-6.505 1.11-9.124 3.202a14.817 14.817 0 0 0-3.415 3.91 4.15 4.15 0 0 1 .87 2.547c0 2.293-1.844 4.153-4.117 4.153-2.273 0-4.117-1.86-4.117-4.153 0-2.293 1.844-4.153 4.117-4.153.209 0 .419.01.628.053a18.111 18.111 0 0 1 4.149-4.756c2.681-2.155 5.834-3.445 9.197-3.783v-35.665h-14.613c-1.509 0-2.734-1.236-2.734-2.758v-.306c0-.116.01-.243.021-.359.178-1.353 1.32-2.41 2.713-2.41h31.257a2.75 2.75 0 0 1 1.656.56 7.16 7.16 0 0 0 2.65-5.569v-11.18a3.237 3.237 0 0 1-1.687-2.843v-23.417c0-1.786 1.435-3.234 3.206-3.234 1.77 0 3.215 1.469 3.215 3.255z" fill="#4B2E25"/><path fill-rule="evenodd" clip-rule="evenodd" d="M314.054 233.29c-2.325 0-4.221-1.913-4.221-4.259 0-1.004.356-1.987 1.005-2.747a14.82 14.82 0 0 0-3.519-3.9 14.378 14.378 0 0 0-8.831-3.001 14.34 14.34 0 0 0-9.061 3.181 14.557 14.557 0 0 0-3.352 3.815c.556.739.849 1.627.849 2.557 0 2.346-1.896 4.259-4.222 4.259-2.325 0-4.221-1.913-4.221-4.259s1.896-4.259 4.221-4.259c.189 0 .388.011.566.043a17.793 17.793 0 0 1 4.138-4.724 17.634 17.634 0 0 1 9.155-3.794v-35.464h-14.508c-1.571 0-2.839-1.289-2.839-2.864v-.306c0-.127.011-.254.021-.37a2.846 2.846 0 0 1 2.818-2.494h31.268c.597 0 1.163.18 1.655.539a7.008 7.008 0 0 0 2.545-5.432v-11.116a3.35 3.35 0 0 1-1.686-2.906v-23.418c0-1.838 1.487-3.339 3.31-3.339s3.31 1.501 3.31 3.339v23.418a3.33 3.33 0 0 1-1.686 2.906v11.116c0 3.509-1.75 6.742-4.672 8.666a2.843 2.843 0 0 1-2.776 2.272h-12.905v35.464a17.749 17.749 0 0 1 8.883 3.572 18.11 18.11 0 0 1 4.451 5.009c.105-.011.21-.011.304-.011 2.326 0 4.222 1.913 4.222 4.259s-1.896 4.248-4.222 4.248zm-15.566-14.118c3.269 0 6.369 1.056 8.956 3.054a14.803 14.803 0 0 1 3.614 4.015l.042.064-.052.063a4.05 4.05 0 0 0-1.006 2.674c0 2.229 1.802 4.047 4.012 4.047 2.21 0 4.012-1.818 4.012-4.047 0-2.23-1.802-4.048-4.012-4.048-.115 0-.23.011-.356.021l-.063.011-.031-.053a17.762 17.762 0 0 0-4.431-5.009 17.393 17.393 0 0 0-8.873-3.54l-.094-.01v-35.866h13.115a2.642 2.642 0 0 0 2.587-2.145l.011-.042.042-.022a10.117 10.117 0 0 0 4.619-8.506v-11.244l.053-.032a3.132 3.132 0 0 0 1.623-2.758v-23.417c0-1.723-1.393-3.128-3.1-3.128-1.708 0-3.101 1.405-3.101 3.128v23.417a3.14 3.14 0 0 0 1.634 2.758l.052.032v11.244a7.278 7.278 0 0 1-2.692 5.653l-.062.053-.063-.053a2.57 2.57 0 0 0-1.593-.539h-31.268c-1.319 0-2.44.994-2.608 2.314-.01.106-.021.222-.021.339v.306c0 1.469 1.184 2.653 2.629 2.653h14.718v35.833l-.094.011a17.416 17.416 0 0 0-9.145 3.762 17.753 17.753 0 0 0-4.127 4.724l-.032.063-.073-.01a3.793 3.793 0 0 0-.608-.043c-2.21 0-4.012 1.818-4.012 4.048 0 2.229 1.802 4.047 4.012 4.047 2.211 0 4.012-1.818 4.012-4.047 0-.909-.293-1.765-.848-2.484l-.042-.053.042-.063a14.68 14.68 0 0 1 3.446-3.931c2.619-2.135 5.793-3.244 9.176-3.244z" fill="#281713"/><path fill-rule="evenodd" clip-rule="evenodd" d="M308.734 174.799c-.786 1.427-2.294 2.41-4.023 2.41h-25.37c.178-1.353 1.32-2.41 2.713-2.41h26.68z" fill="#281713"/><path fill-rule="evenodd" clip-rule="evenodd" d="M304.711 177.314h-25.485l.01-.116a2.856 2.856 0 0 1 2.818-2.505h26.847l-.083.159a4.677 4.677 0 0 1-4.107 2.462zm-25.244-.211h25.244a4.457 4.457 0 0 0 3.834-2.198h-26.491c-1.278 0-2.378.94-2.587 2.198z" fill="#281713"/><path d="M269.227 94.267a2.872 2.872 0 0 0 2.881-2.863c0-1.58-1.29-2.862-2.881-2.862a2.872 2.872 0 0 0-2.882 2.862 2.872 2.872 0 0 0 2.882 2.863z" fill="#DF9584"/><path fill-rule="evenodd" clip-rule="evenodd" d="M267.405 91.91c0-.022-.254-1.769 1.282-2.348 1.546-.578 2.319.832 2.33.853l-.191.095c-.031-.053-.699-1.263-2.065-.748-.572.21-.943.632-1.102 1.242-.116.463-.053.874-.053.874l-.201.031z" fill="#281713"/><path fill-rule="evenodd" clip-rule="evenodd" d="M262.003 154.694c-5.074 0-9.173 4.084-9.173 9.114v57.733h18.357v-57.733c-.01-5.03-4.11-9.114-9.184-9.114z" fill="#4B5DA6"/><path fill-rule="evenodd" clip-rule="evenodd" d="M309.337 159.292l-25.913 3.621-17.727-40.643c-2.986-6.115-.413-13.471 5.729-16.438 6.153-2.968 13.555-.411 16.541 5.693l21.37 47.767z" fill="#BCC3D0"/><path fill-rule="evenodd" clip-rule="evenodd" d="M283.36 163.028l-.032-.073-17.727-40.643a12.268 12.268 0 0 1-.561-9.472 12.347 12.347 0 0 1 6.343-7.093 12.51 12.51 0 0 1 9.541-.557 12.372 12.372 0 0 1 7.138 6.303l21.433 47.894-26.135 3.641zm-6.555-58.323c-1.8 0-3.611.39-5.337 1.221-6.089 2.936-8.641 10.24-5.687 16.291l17.695 40.58 25.701-3.589-21.316-47.631c-2.108-4.335-6.492-6.872-11.056-6.872z" fill="#BCC3D0"/><path fill-rule="evenodd" clip-rule="evenodd" d="M247.529 134.952l-9.385-3.925a1.285 1.285 0 0 0-1.144.084 1.426 1.426 0 0 0-.403.158l-13.569 7.787a1.518 1.518 0 0 0-.562 2.094c.435.727 1.377.99 2.108.558l.371-.21a1.552 1.552 0 0 0 1.79.168l8.474-4.294c.234.442.17.348.467.674l-5.074 2.904a1.519 1.519 0 0 0-.562 2.095 1.539 1.539 0 0 0 2.108.557l6.811-3.904 5.572 2.326a1.268 1.268 0 0 0 1.663-.674l2.023-4.767c.265-.621-.042-1.357-.688-1.631z" fill="#DF9584"/><path fill-rule="evenodd" clip-rule="evenodd" d="M224.998 141.592l-.106-.179 10.01-5.546.021.148c0 .01.202 1.315.827 1.957l-.149.147c-.55-.557-.784-1.547-.858-1.925l-9.745 5.398z" fill="#281713"/><path fill-rule="evenodd" clip-rule="evenodd" d="M309.295 159.914l-2.807-5.22h-54.543a10.22 10.22 0 0 0-9.334 6.009 9.084 9.084 0 0 0-.911 3.978v56.976h18.361v-46.652h40.303c5.647 0 10.224-4.546 10.224-10.155a10.235 10.235 0 0 0-1.293-4.936z" fill="#6173BA"/><path fill-rule="evenodd" clip-rule="evenodd" d="M278.703 109.411c-3.58-.548-6.927 1.904-7.467 5.461l-3.824 24.91-20.773-9.387-5.434 11.86 27.584 12.471a6.507 6.507 0 0 0 2.786 1.116 6.54 6.54 0 0 0 2.934-.221 6.559 6.559 0 0 0 4.194-3.579 6.527 6.527 0 0 0 .572-3.167l4.916-32.045c.561-3.557-1.907-6.872-5.488-7.419z" fill="#BCC3D0"/><path fill-rule="evenodd" clip-rule="evenodd" d="M272.581 156.02a6.696 6.696 0 0 1-3.845-1.199l-27.669-12.524 5.519-12.049 20.741 9.376 3.803-24.773a6.577 6.577 0 0 1 2.637-4.335 6.612 6.612 0 0 1 4.958-1.211 6.64 6.64 0 0 1 4.364 2.621 6.535 6.535 0 0 1 1.218 4.925l-4.915 32.034a6.618 6.618 0 0 1-4.841 6.841 6.995 6.995 0 0 1-1.97.294zm-31.238-13.828l27.499 12.429.01.01a6.367 6.367 0 0 0 2.744 1.095 6.547 6.547 0 0 0 2.891-.211 6.477 6.477 0 0 0 4.132-3.515 6.323 6.323 0 0 0 .561-3.115v-.021l4.915-32.045c.54-3.494-1.885-6.766-5.402-7.303a6.443 6.443 0 0 0-4.799 1.168 6.334 6.334 0 0 0-2.553 4.199l-3.845 25.047-.127-.053-20.677-9.345-5.349 11.66z" fill="#BCC3D0"/><path fill-rule="evenodd" clip-rule="evenodd" d="M232.505 232.562v-84.571c0-.698.571-1.27 1.269-1.27h1.862c.698 0 1.27.572 1.27 1.27v84.571c0 .699-.572 1.271-1.27 1.271h-1.862a1.274 1.274 0 0 1-1.269-1.271z" fill="#281713"/><path fill-rule="evenodd" clip-rule="evenodd" d="M235.636 233.938h-1.862a1.373 1.373 0 0 1-1.375-1.376v-84.571c0-.762.614-1.376 1.375-1.376h1.862c.762 0 1.375.614 1.375 1.376v84.571c0 .752-.613 1.376-1.375 1.376zm-1.862-87.111a1.16 1.16 0 0 0-1.163 1.164v84.571a1.16 1.16 0 0 0 1.163 1.165h1.862c.645 0 1.164-.519 1.164-1.165v-84.571a1.16 1.16 0 0 0-1.164-1.164h-1.862z" fill="#281713"/><path fill-rule="evenodd" clip-rule="evenodd" d="M243.751 149.993H101.378a1.274 1.274 0 0 1-1.269-1.271v-1.864c0-.698.571-1.27 1.269-1.27h142.373c.698 0 1.269.572 1.269 1.27v1.864c0 .699-.571 1.271-1.269 1.271z" fill="#281713"/><path fill-rule="evenodd" clip-rule="evenodd" d="M243.75 150.098H101.378a1.373 1.373 0 0 1-1.376-1.376v-1.864c0-.762.614-1.376 1.376-1.376H243.75c.762 0 1.375.614 1.375 1.376v1.864c0 .752-.613 1.376-1.375 1.376zm-142.372-4.404a1.16 1.16 0 0 0-1.164 1.164v1.864a1.16 1.16 0 0 0 1.164 1.165H243.75a1.16 1.16 0 0 0 1.164-1.165v-1.864a1.16 1.16 0 0 0-1.164-1.164H101.378z" fill="#281713"/><path fill-rule="evenodd" clip-rule="evenodd" d="M108.065 232.562v-84.571c0-.698.571-1.27 1.269-1.27h1.862c.698 0 1.27.572 1.27 1.27v84.571c0 .699-.572 1.271-1.27 1.271h-1.862a1.274 1.274 0 0 1-1.269-1.271z" fill="#281713"/><path fill-rule="evenodd" clip-rule="evenodd" d="M111.196 233.938h-1.862a1.373 1.373 0 0 1-1.375-1.376v-84.571c0-.762.613-1.376 1.375-1.376h1.862c.762 0 1.375.614 1.375 1.376v84.571c0 .752-.613 1.376-1.375 1.376zm-1.862-87.111a1.16 1.16 0 0 0-1.164 1.164v84.571c0 .646.519 1.165 1.164 1.165h1.862c.645 0 1.164-.519 1.164-1.165v-84.571a1.16 1.16 0 0 0-1.164-1.164h-1.862z" fill="#281713"/></g><defs><clipPath id="a"><path fill="#fff" d="M0 0h356v199H0z"/></clipPath></defs></svg>