<svg width="356" height="199" viewBox="0 0 356 199" fill="none" xmlns="http://www.w3.org/2000/svg"><g clip-path="url(#a)"><path fill="#E6F0FA" d="M0 0h356v199H0z"/><path fill="#E6F0FA" d="M16 14h300v300H16z"/><path fill-rule="evenodd" clip-rule="evenodd" d="M145.719 96.08a1.779 1.779 0 0 1-2.149-1.32l-5.275-21.969a1.78 1.78 0 0 1 1.319-2.15 1.78 1.78 0 0 1 2.149 1.32l5.274 21.969c.22.965-.366 1.93-1.318 2.15z" fill="#D1908F"/><path fill-rule="evenodd" clip-rule="evenodd" d="M141.762 82.395l-1.318.672a1.454 1.454 0 0 1-1.954-.623l-11.343-22.08a1.455 1.455 0 0 1 .622-1.955l1.319-.672a1.454 1.454 0 0 1 1.954.623l11.343 22.08a1.455 1.455 0 0 1-.623 1.955z" fill="#000"/><path fill-rule="evenodd" clip-rule="evenodd" d="M139.784 83.36a1.566 1.566 0 0 1-1.404-.855l-11.343-22.08a1.564 1.564 0 0 1 .684-2.113l1.318-.672a1.576 1.576 0 0 1 2.113.684l11.343 22.08a1.569 1.569 0 0 1-.684 2.113l-1.318.672c-.22.11-.464.171-.709.171zM129.76 57.7c-.208 0-.415.05-.599.147l-1.318.672c-.318.16-.55.44-.66.77-.11.342-.085.697.086 1.014l11.343 22.08a1.33 1.33 0 0 0 1.783.574l1.319-.672c.317-.159.549-.44.659-.77.11-.33.085-.696-.085-1.014l-11.344-22.08a1.335 1.335 0 0 0-1.184-.72z" fill="#000"/><path fill-rule="evenodd" clip-rule="evenodd" d="M145.401 90.337l-11.282-19.562a1.78 1.78 0 0 0-1.868-.856l-2.223-4.337a1.771 1.771 0 0 0-2.393-.77 2.233 2.233 0 0 0-.391.269l-.317-.611a1.771 1.771 0 0 0-2.393-.77 1.775 1.775 0 0 0-.77 2.395l13.822 26.93a1.773 1.773 0 0 0 2.394.77 1.71 1.71 0 0 0 .647-.562 1.771 1.771 0 0 0 2.21-.562 1.778 1.778 0 0 0 1.929.098c.843-.489 1.124-1.576.635-2.432z" fill="#D1908F"/><path fill-rule="evenodd" clip-rule="evenodd" d="M132.238 69.92s-1.477.44-1.306 1.771c.171 1.332 4.847 10.24 4.847 10.24" fill="#D1908F"/><path fill-rule="evenodd" clip-rule="evenodd" d="M135.67 81.98c-.196-.367-4.677-8.945-4.86-10.276-.183-1.418 1.38-1.894 1.392-1.907l.073.233c-.061.012-1.38.427-1.221 1.637.171 1.295 4.787 10.105 4.835 10.203l-.219.11z" fill="#000"/><path fill-rule="evenodd" clip-rule="evenodd" d="M127.232 65.08s-.72.44-.501 1.455c.147.672 5.825 13.612 5.825 13.612" fill="#D1908F"/><path fill-rule="evenodd" clip-rule="evenodd" d="M132.434 80.196c-.232-.526-5.678-12.953-5.825-13.637-.244-1.087.55-1.576.55-1.588l.122.207-.061-.11.061.11c-.024.013-.647.416-.44 1.32.123.526 3.859 9.115 5.813 13.588l-.22.11zm-1.246-28.122l.246-6.618.244.009-.246 6.618-.244-.01zm2.911 2.289l3.211-2.858.162.182-3.211 2.859-.162-.183zm5.189 3.422l4.486-2.305.112.218-4.487 2.305-.111-.218zm.569 5.057l5.572-.799.034.242-5.572.799-.034-.242z" fill="#000"/><path d="M148.673 68.258h-4.847v.3h4.847v-.3z" fill="#000"/><path fill-rule="evenodd" clip-rule="evenodd" d="M189.615 86.146a7.657 7.657 0 0 0-10.819.465l-24.518 26.734-5.543-28.213-15.044 2.92 8.45 43.072a7.67 7.67 0 0 0 7.485 6.208c2.1.024 4.188-.82 5.714-2.481l34.739-37.867c2.857-3.115 2.649-7.966-.464-10.838z" fill="#E8C65F"/><path fill-rule="evenodd" clip-rule="evenodd" d="M198.784 151.138l-29.011-6.072 5.812-51.43c.207-7.38 6.374-13.196 13.749-12.988 7.375.207 13.187 6.378 12.979 13.758l-3.529 56.732z" fill="#E8C65F"/><path d="M199.859 174.33h-17.168v100.268h17.168V174.33z" fill="#D1908F"/><path fill-rule="evenodd" clip-rule="evenodd" d="M175.524 264.725l-9.365-53.201 19.878-55.987-16.179-5.755-20.696 58.284a8.59 8.59 0 0 0-.061 5.56l8.987 51.087.512 2.945 1.026 5.853 16.911-2.982-.5-2.871-.513-2.933z" fill="#D1908F"/><path fill-rule="evenodd" clip-rule="evenodd" d="M186.77 142.854h-11.283l22.431-43.328-11.148 43.328zm-10.892-.244h10.696l10.55-41.056-21.246 41.056z" fill="#000"/><path fill-rule="evenodd" clip-rule="evenodd" d="M201.532 201.407h-51.711l1.722-5.242 2.882-8.773 1.709-5.242 2.882-8.773 1.721-5.242 2.882-8.773 1.722-5.242 2.881-8.773 1.722-5.242.073-.232 24.335.232 5.116.049.171 5.193.306 8.773.171 5.242.293 8.773.183 5.242.293 8.773.183 5.242.293 8.773.171 5.242z" fill="#508BEF"/><path fill-rule="evenodd" clip-rule="evenodd" d="M189.754 66.157l.244-.02 1.386 17.272-.244.02-1.386-17.272z" fill="#000"/><path fill-rule="evenodd" clip-rule="evenodd" d="M191.043 87.026c-2.564.024-4.628-1.356-5.006-3.19-.147-.708-.208-1.429-.244-2.15-.037-.72-.013-1.442-.013-2.175l.025-2.175.012-.427.024-1.748c0-.317.013-.635.025-.953l.037-1.222c.012-.72.036-1.454.061-2.175.024-.72.048-1.454.085-2.175.012-.195.012-.39.024-.586l.074-1.6a2.19 2.19 0 0 1 .207-.832c.538-1.173 2.015-2.016 3.7-2.016 1.795 0 3.248.966 3.529 2.249.159.708.305 1.43.452 2.138.146.709.293 1.43.427 2.138.134.709.281 1.43.415 2.139.134.708.269 1.43.391 2.138l.391 2.138.366 2.138c.122.721.256 1.43.342 2.15.073.722.146 1.443.11 2.164-.098 2.211-2.528 4.007-5.434 4.032z" fill="#D1908F"/><path fill-rule="evenodd" clip-rule="evenodd" d="M192.911 69.32s-.952 2.298-2.869 4.656c-1.123 1.38-2.564 2.786-4.347 3.764l.037-1.222c.012-.721.036-1.454.061-2.175.024-.721.049-1.454.085-2.175.012-.196.012-.391.025-.587l.073-1.6a2.19 2.19 0 0 1 .207-.831l6.728.17z" fill="#000"/><path fill-rule="evenodd" clip-rule="evenodd" d="M185.585 77.947l.037-1.43c.012-.72.036-1.453.061-2.162.012-.525.037-1.05.061-1.552.012-.22.012-.427.024-.647l.025-.587c.024-.599.049-1.087.073-1.6.012-.294.098-.6.22-.868l.036-.073h.086l6.899.17-.074.16c-.012.024-.976 2.333-2.881 4.68-1.343 1.661-2.809 2.932-4.384 3.8l-.183.11zm.696-8.675a2.088 2.088 0 0 0-.171.709c-.024.5-.049 1.002-.073 1.588l-.024.587c-.013.22-.013.427-.025.647a63.443 63.443 0 0 0-.061 1.54v.012c-.024.709-.049 1.442-.061 2.163l-.024 1.002c1.465-.843 2.857-2.065 4.127-3.63a21.638 21.638 0 0 0 2.771-4.46l-6.459-.158z" fill="#000"/><path fill-rule="evenodd" clip-rule="evenodd" d="M196.477 53.436c-2.454-2.053-5.8-2.37-8.523-1.087l-.037.024a9.587 9.587 0 0 0-.61.318l-7.131 3.788c-.562.28-.769.99-.427 1.515l1.135 1.772c-2.063 3.31-1.441 7.746 1.636 10.325 3.358 2.81 8.401 2.37 11.21-.978l3.736-4.448c2.808-3.36 2.369-8.406-.989-11.229z" fill="#D1908F"/><path d="M186.501 58.202a.72.72 0 1 0 0-1.44.72.72 0 0 0 0 1.44z" fill="#000"/><path fill-rule="evenodd" clip-rule="evenodd" d="M186.501 58.324h-.085a.889.889 0 0 1-.574-.306.805.805 0 0 1-.183-.623.848.848 0 0 1 1.501-.452.81.81 0 0 1 .184.623.895.895 0 0 1-.306.575.947.947 0 0 1-.537.183zm0-1.454a.606.606 0 0 0-.598.537.577.577 0 0 0 .134.44.583.583 0 0 0 .403.22.578.578 0 0 0 .44-.134.582.582 0 0 0 .219-.403.573.573 0 0 0-.134-.44.583.583 0 0 0-.403-.22c-.024.012-.037 0-.061 0zm-2.967 7.478c-1.331 0-2.332-.892-2.345-.917l.171-.183c.098.086 2.284 2.053 4.482-.269l.171.171c-.855.904-1.722 1.198-2.479 1.198zm3.138 78.384l10.843-42.192-21.832 42.192h10.989z" fill="#000"/><path fill-rule="evenodd" clip-rule="evenodd" d="M204.084 57.517c-.843-4.63-3.529-7.258-5.678-11.143-1.734-3.14-4.933-8.663-10.648-5.56-5.714 3.104-4.163 10.765.574 12.256 5.385 1.686 9.683 5.62 7.742 9.702 0 0-9.793 14.1 3.773 28.054 6.667 6.855-4.616 32.588 1.135 40.005 7.888 10.19 29.464 5.657 29.598-15.384 0-11.73-13.321-9.836-10.196-23.18 2.223-9.481-.378-16.397-4.981-21.211-4.604-4.814-9.781-5.083-11.319-13.539z" fill="#302A28"/><path fill-rule="evenodd" clip-rule="evenodd" d="M212.363 136.17c-1.307 0-2.589-.146-3.822-.44-3.15-.757-5.8-2.431-7.644-4.814-2.833-3.653-1.575-11.767-.354-19.611 1.282-8.309 2.613-16.899-.769-20.381-3.114-3.202-5.251-6.672-6.35-10.325a20.711 20.711 0 0 1-.659-9.042c.733-5.108 3.077-8.639 3.211-8.834.599-1.259.611-2.542.061-3.825-1.013-2.334-3.98-4.52-7.729-5.694-2.307-.72-4.041-3.006-4.298-5.694-.281-2.847 1.111-5.376 3.7-6.781 5.934-3.214 9.231 2.749 10.806 5.608.647 1.16 1.343 2.224 2.015 3.25 1.587 2.395 3.077 4.668 3.675 7.93 1.05 5.743 3.749 7.65 6.887 9.861 1.453 1.026 2.955 2.09 4.408 3.605 2.478 2.59 4.176 5.584 5.079 8.907 1.014 3.74.989 7.918-.061 12.415-1.673 7.135 1.38 9.836 4.591 12.707 2.76 2.456 5.605 4.985 5.605 10.447-.037 5.169-1.331 9.592-3.846 13.16-2.211 3.128-5.275 5.425-8.865 6.635a18.23 18.23 0 0 1-5.641.916zm-21.356-96.15c-1.014 0-2.064.305-3.187.904-2.503 1.356-3.846 3.812-3.578 6.55.257 2.578 1.917 4.79 4.127 5.486 3.81 1.197 6.826 3.421 7.876 5.828.586 1.356.574 2.713-.061 4.045l-.012.012c-.025.036-2.442 3.568-3.187 8.749-.428 3.042-.208 6.048.659 8.931 1.087 3.605 3.199 7.05 6.289 10.215 3.467 3.568 2.136 12.219.842 20.589-1.209 7.796-2.454 15.86.305 19.428 1.82 2.346 4.408 3.984 7.51 4.729 2.979.721 6.288.55 9.328-.476 3.541-1.198 6.569-3.471 8.743-6.55 2.491-3.519 3.773-7.905 3.797-13.013 0-5.34-2.808-7.844-5.519-10.264-3.272-2.92-6.374-5.67-4.676-12.952 1.038-4.46 1.062-8.602.073-12.292-.879-3.287-2.576-6.244-5.018-8.798-1.441-1.503-2.931-2.553-4.372-3.58-3.174-2.248-5.922-4.179-6.984-10.02-.586-3.213-2.064-5.461-3.639-7.844-.671-1.026-1.38-2.09-2.027-3.262-.757-1.369-2.027-3.666-3.797-5.083-1.111-.892-2.271-1.332-3.492-1.332z" fill="#000"/><path fill-rule="evenodd" clip-rule="evenodd" d="M192.435 60.95c-1.538-1.539 2.357-3.91-.781-6.414-3.138-2.505 4.847-3.849 4.847-3.849l3.065 9.58-7.131.684z" fill="#302A28"/><path fill-rule="evenodd" clip-rule="evenodd" d="M192.386 61.073l-.036-.037c-.708-.696-.367-1.551-.025-2.456.464-1.197 1.002-2.553-.757-3.959-.622-.5-.867-.99-.745-1.478.44-1.686 5.434-2.541 5.642-2.578l.11-.012 3.15 9.824-7.339.696zm4.03-10.24c-.721.135-4.982.966-5.348 2.383-.098.391.122.795.659 1.234 1.893 1.516 1.307 3.018.83 4.24-.329.843-.61 1.564-.073 2.15l6.911-.659-2.979-9.347z" fill="#000"/><path d="M194.352 64.86a2.907 2.907 0 0 0 2.906-2.907 2.907 2.907 0 1 0-2.906 2.908z" fill="#D1908F"/><path fill-rule="evenodd" clip-rule="evenodd" d="M192.68 61.806l-.232-.061c0-.012.427-1.772 2.112-1.735 1.685.037 1.88 1.674 1.88 1.686l-.244.025c-.012-.061-.171-1.442-1.636-1.467-.611-.012-1.111.245-1.49.746-.293.39-.39.794-.39.806z" fill="#000"/><path d="M210.824 57.994a7.304 7.304 0 0 0 7.302-7.307 7.304 7.304 0 0 0-7.302-7.307 7.304 7.304 0 0 0-7.302 7.307 7.304 7.304 0 0 0 7.302 7.307z" fill="#302A28"/><path fill-rule="evenodd" clip-rule="evenodd" d="M210.824 58.116c-4.091 0-7.424-3.336-7.424-7.429s3.333-7.43 7.424-7.43c4.09 0 7.424 3.337 7.424 7.43s-3.334 7.43-7.424 7.43zm0-14.614c-3.956 0-7.18 3.226-7.18 7.185 0 3.959 3.224 7.185 7.18 7.185 3.956 0 7.179-3.226 7.179-7.185 0-3.959-3.223-7.185-7.179-7.185z" fill="#000"/><path fill-rule="evenodd" clip-rule="evenodd" d="M199.639 145.347h-31.417l1.722-5.242h24.408l5.116.049.171 5.193z" fill="#508BEF"/><path fill-rule="evenodd" clip-rule="evenodd" d="M199.774 145.469h-31.723l1.795-5.474h24.494l5.238.049.196 5.425zm-31.381-.244h31.124l-.171-4.937-5.006-.049h-24.323l-1.624 4.986zm33.139 56.182h-51.711l1.722-5.242h49.818l.171 5.242zm-.464-14.015h-46.643l1.709-5.242h44.751l.183 5.242z" fill="#508BEF"/><path fill-rule="evenodd" clip-rule="evenodd" d="M201.19 187.514h-46.936l1.795-5.474h44.958l.183 5.474zm-46.607-.244h46.351l-.171-4.986H156.22l-1.637 4.986zm46.009-13.893h-41.576l1.721-5.242h39.672l.183 5.242z" fill="#508BEF"/><path fill-rule="evenodd" clip-rule="evenodd" d="M200.714 173.499h-41.869l1.795-5.474h39.879l.195 5.474zm-41.527-.244h41.271l-.171-4.986h-39.464l-1.636 4.986zm40.929-13.893h-36.497l1.722-5.242h34.604l.171 5.242z" fill="#508BEF"/><path fill-rule="evenodd" clip-rule="evenodd" d="M144.363 120.09l-21.71-6.195a1.778 1.778 0 0 0-2.198 1.222 1.786 1.786 0 0 0 1.221 2.2l6.228 1.771-17.998-2.859a1.78 1.78 0 0 0-2.039 1.479 1.471 1.471 0 0 0-.013.403l-.268-.037a1.776 1.776 0 0 0-1.978 1.564c-.11.978.586 1.87 1.563 1.98l.17.024a1.771 1.771 0 0 0-.17.562 1.776 1.776 0 0 0 1.562 1.98l3.517.415a2.12 2.12 0 0 0-.159.538 1.777 1.777 0 0 0 1.563 1.979l26.045 3.104c.952.134 5.604-9.861 4.664-10.13z" fill="#D1908F"/><path fill-rule="evenodd" clip-rule="evenodd" d="M184.132 93.197a8.59 8.59 0 0 0-.561 1.111l-12.443 30.328-37.473-8.578-3.517 15.237 43.615 9.995a7.72 7.72 0 0 0 2.528.159 7.825 7.825 0 0 0 6.826-4.839l14.774-35.96" fill="#E8C65F"/><path fill-rule="evenodd" clip-rule="evenodd" d="M121.469 121.447l-11.539-1.821s-1.966 0-2.088-1.503" fill="#D1908F"/><path fill-rule="evenodd" clip-rule="evenodd" d="M121.445 121.556l-11.527-1.82c-.159 0-2.063-.073-2.198-1.613l.244-.024c.049.574.391.977 1.002 1.209.476.183.952.183.964.183h.025l11.538 1.821-.048.244zm-14.122.21l.038-.241 12.51 1.961-.038.242-12.51-1.962zm4.888 2.983l.028-.243 6.83.78-.028.243-6.83-.78z" fill="#000"/><path fill-rule="evenodd" clip-rule="evenodd" d="M43.858 107.352L26.54 87.516a3.037 3.037 0 0 1 .293-4.285L39.72 71.976a3.035 3.035 0 0 1 4.284.293L61.31 92.106a3.036 3.036 0 0 1-.293 4.284l-12.888 11.255a3.031 3.031 0 0 1-4.271-.293z" fill="#BFD5EC"/><path fill-rule="evenodd" clip-rule="evenodd" d="M41.746 71.244l2.429 18.347 17.879 4.443" fill="#BFD5EC"/><path fill-rule="evenodd" clip-rule="evenodd" d="M62.03 94.156l-17.965-4.468-2.44-18.432.121-.012.086-.086.024.025 2.429 18.31 17.806 4.431-.061.232zm-36.164-9.164l.006-.244 17.75.492-.006.244-17.75-.492z" fill="#000"/><path fill-rule="evenodd" clip-rule="evenodd" d="M46.126 108.372l1.941-17.802.243.026-1.941 17.802-.243-.026z" fill="#000"/><path fill-rule="evenodd" clip-rule="evenodd" d="M65.85 83.56s16.646-15.77 21.003-21.8c.586-.806 1.855-.55 2.087.426.451 1.966.146 4.92-3.82 7.813-.586.427-.244 1.38.476 1.318.61-.049 1.281-.22 1.891-.647 0 0 1.27 7.141-2.855 9.827-4.125 2.685-10.886 8.91-10.886 8.91l-7.897-5.846z" fill="#fff"/><path fill-rule="evenodd" clip-rule="evenodd" d="M64.116 79.093a3.533 3.533 0 0 0-3.136-1.758c-1.819.037-3.661 1.282-3.771 3.1-.025.318-3.686 3.675-4.296 4.236-.024.025 0 .061.024.05l4.614-.965a2.895 2.895 0 0 1 1.916.269 3.458 3.458 0 0 0 1.586.378c.11 0 .208.073.22.183l1.684 8.105a11.24 11.24 0 0 0 9.483 8.85l7.847 1.075 10.923 11.035c.549.549 1.44.524 1.952-.061a1.332 1.332 0 0 0 .037-1.722l-6.956-8.642 7.041 6.64a1.337 1.337 0 0 0 2.16-.476l.171-.427a1.4 1.4 0 0 1 .123-.232l.097-.146a1.344 1.344 0 0 0-.232-1.734L64.116 79.093z" fill="#fff"/><path fill-rule="evenodd" clip-rule="evenodd" d="M67.46 84.989s22.981-9.18 29.706-16.162c.366-.378 1.012-.11 1 .427-.036 1.319-.476 3.345-2.38 5.261-.476.476 0 1.27.635 1.062 1.098-.341 2.307-.793 3.259-1.318.573-.317 1.22.269.951.867-1.183 2.612-4.49 6.823-13.705 8.46-.744.133-.805 1.195-.073 1.403 1.513.44 3.564.708 5.785.049.732-.22 1.318.61.89 1.245-1.378 2.026-3.844 5.017-7.395 7.007-3.417 1.916-7.579 1.99-11.118.28l-3.759-1.806" fill="#fff"/><path d="M59.894 80.814a.488.488 0 1 0 0-.976.488.488 0 0 0 0 .976z" fill="#000"/><path fill-rule="evenodd" clip-rule="evenodd" d="M59.894 80.936a.612.612 0 0 1-.61-.61c0-.33.28-.61.61-.61.33 0 .61.28.61.61 0 .33-.28.61-.61.61zm0-.976a.367.367 0 0 0-.366.366c0 .207.17.366.366.366.195 0 .366-.17.366-.366a.367.367 0 0 0-.366-.366z" fill="#000"/><path fill-rule="evenodd" clip-rule="evenodd" d="M271.11 190.516c2.978-.171 19.561-1.564 29.823-10.909 0 0-14.899-1.075-28.993 9.883a69.876 69.876 0 0 1 15.217-13.744c1.891.55 9.786 2.321 18.877-2.834 0 0-9.908-2.26-18.011 1.967 2.807-2.48 12.52-11.764 14.619-23.003 0 0-11.239 7.305-15.168 22.795a70.537 70.537 0 0 0-9.872 7.733c3.417-5.118 12.288-19.851 11.959-34.23 0 0-12.594 13.853-13.252 35.476a71.573 71.573 0 0 0-7.932 9.285c2.196-4.862 7.26-17.909 4.625-29.771 0 0-8.689 12.937-5.65 31.237a62.39 62.39 0 0 0-1.525 2.321 78.643 78.643 0 0 0-3.966 7.048c.207-4.996-.135-10.286-.793-15.49 1.537-3.188 9.908-21.452 7.59-36.893 0 0-8.786 14.049-8.127 33.106-1.001-6.401-2.416-12.522-3.759-17.616 1.245-3.029 7.041-18.361 3.173-31.518 0 0-6.614 11.471-4.308 27.401a223.802 223.802 0 0 0-3.624-11.483c-.171-3.506-1.33-17.164-8.944-25.911 0 0-1.233 12.986 8.029 25.532.854 2.444 1.952 5.73 3.1 9.566-2.307-2.541-11.91-12.412-23.393-14.33 0 0 7.663 11.337 23.539 14.855a219.084 219.084 0 0 1 1.55 5.461 197.748 197.748 0 0 1 1.61 6.438c-2.196-1.772-11.519-8.747-22.098-8.087 0 0 7.602 8.6 22.184 8.502 3.551 15.417 3.868 25.874 3.429 32.19a92.34 92.34 0 0 0-3.502 8.502c-.659-3.982-4.32-23.259-14.863-34.388 0 0 .964 18.825 14.716 34.816a100.143 100.143 0 0 0-3.111 10.872c-.623-3.249-3.234-14.06-11.361-20.266 0 0 .134 11.471 11.214 20.938-2.88 13.121-2.465 23.15-2.453 23.26l.733-.037c0-.097-.318-7.635 1.476-18.153 2.489-1.771 19.012-13.914 24.478-28.806 0 0-16.009 8.991-24.319 27.927.5-2.761 1.135-5.718 1.964-8.796 1.489-5.497 3.38-10.689 5.674-15.539 3.222-.721 22.929-5.546 33.631-17.066 0 0-18.329 2.089-33.325 16.43a81.826 81.826 0 0 1 4.478-8.087 72.76 72.76 0 0 1 4.661-6.584z" fill="#9FC792"/><path fill-rule="evenodd" clip-rule="evenodd" d="M251.525 249.349v-.122c0-.098-.427-10.103 2.441-23.223-5.711-4.899-8.445-10.323-9.738-14.024-1.403-4.019-1.452-6.927-1.452-6.964v-.244l.195.147c7.749 5.912 10.506 16.027 11.3 19.778a103.072 103.072 0 0 1 2.965-10.274c-7.09-8.27-10.702-17.286-12.496-23.394-1.94-6.646-2.196-11.386-2.208-11.435l-.012-.329.231.244c10.226 10.787 13.997 29.294 14.814 33.998a93.75 93.75 0 0 1 3.332-8.063c.756-10.909-1.428-23.419-3.405-32.031h-.159c-7.431 0-12.995-2.297-16.363-4.227-3.698-2.125-5.638-4.288-5.662-4.312l-.171-.183.244-.013c4.515-.281 9.311.782 14.253 3.152a42.352 42.352 0 0 1 7.651 4.752 195.913 195.913 0 0 0-1.538-6.096 214.92 214.92 0 0 0-1.525-5.387c-8.188-1.832-14.143-5.766-17.706-8.759-3.868-3.25-5.821-6.108-5.845-6.133l-.159-.232.281.049c4.905.819 10.006 3.152 15.18 6.951a58.791 58.791 0 0 1 7.919 7.025 223.272 223.272 0 0 0-2.94-9.041c-4.784-6.499-6.724-13.108-7.505-17.505-.842-4.777-.549-8.063-.549-8.1l.024-.281.183.22c3.258 3.738 5.699 8.784 7.285 14.977 1.269 4.984 1.599 9.333 1.684 10.995a230.877 230.877 0 0 1 3.185 9.968 48.031 48.031 0 0 1 1.489-18.165c1.354-4.813 3.014-7.721 3.026-7.758l.146-.244.086.269c3.868 13.157-1.916 28.513-3.161 31.554 1.465 5.51 2.624 10.849 3.478 15.906-.037-9.138 2.038-16.956 3.868-22.038 2.099-5.839 4.296-9.394 4.32-9.431l.171-.281.049.33c.976 6.536.183 14.305-2.355 23.101-1.989 6.89-4.491 12.289-5.235 13.841.695 5.436.964 10.445.817 14.916a81.384 81.384 0 0 1 3.722-6.56 91.49 91.49 0 0 1 1.501-2.285c-1.562-9.455.061-17.445 1.696-22.49 1.782-5.473 3.954-8.759 3.978-8.783l.159-.232.061.281c1.135 5.143.976 11.043-.501 17.567-1.073 4.727-2.623 8.795-3.685 11.263a73.088 73.088 0 0 1 7.249-8.356c.341-11.178 3.929-20.23 6.882-25.862 3.197-6.108 6.37-9.614 6.394-9.651l.207-.22.013.306c.146 6.206-1.391 13.157-4.576 20.645-2.368 5.559-5.125 10.176-6.846 12.827a70.876 70.876 0 0 1 9.115-7.036c2.038-8.002 6.053-13.768 9.067-17.213 3.27-3.726 6.101-5.595 6.138-5.607l.244-.159-.049.281c-1.952 10.494-10.519 19.277-14.009 22.49 7.896-3.665 17.206-1.612 17.304-1.588l.305.073-.269.159c-8.944 5.082-16.668 3.506-18.914 2.859a70.107 70.107 0 0 0-14.435 12.851 47.865 47.865 0 0 1 18.962-8.417c5.443-1.087 9.201-.843 9.238-.83l.28.024-.207.195c-4.344 3.958-10.299 6.964-17.694 8.918-5.771 1.527-10.701 1.93-12.153 2.016a75.408 75.408 0 0 0-4.637 6.523 81.611 81.611 0 0 0-4.174 7.477c7.639-7.134 16.071-11.08 21.843-13.157 6.394-2.297 11.019-2.834 11.068-2.846l.329-.037-.22.244c-4.527 4.874-11.14 9.114-19.67 12.607-6.589 2.7-12.288 4.093-13.972 4.472-2.27 4.825-4.173 10.029-5.638 15.465a103.673 103.673 0 0 0-1.781 7.794c4.295-9.333 10.433-16.101 14.899-20.181 4.991-4.569 9.03-6.853 9.067-6.878l.293-.159-.11.306c-2.307 6.291-6.809 12.802-13.387 19.375-5.051 5.045-9.725 8.49-11.092 9.467-1.793 10.519-1.476 18.007-1.476 18.08v.123l-.952-.025zm-8.505-44.076c.049.794.281 3.335 1.44 6.633 1.293 3.677 4.027 9.089 9.725 13.964l.061.048-.012.074c-2.709 12.35-2.502 21.928-2.465 23.113l.488-.025c-.036-1.013-.195-8.16 1.464-17.945l-.012.024.183-1.014a106.25 106.25 0 0 1 1.965-8.808c1.476-5.473 3.392-10.713 5.686-15.563l.013-.037.292-.611a80.477 80.477 0 0 1 4.491-8.099 72.134 72.134 0 0 1 4.686-6.585l.036-.036h.049c3.161-.183 19.329-1.576 29.53-10.677-.976-.037-4.344-.074-8.895.843-4.991 1.001-12.459 3.384-19.72 9.028l-.878.684.708-.856a70.072 70.072 0 0 1 15.241-13.767l.048-.037.049.012c2.123.611 9.689 2.211 18.499-2.663-1.757-.33-10.445-1.71-17.608 2.016l-.879.464.745-.66c2.867-2.541 12.324-11.617 14.521-22.636-.757.525-3.148 2.321-5.845 5.399-3.002 3.421-7.005 9.175-9.03 17.152l-.012.049-.037.024a70.96 70.96 0 0 0-9.86 7.721l-.768.721.585-.88c1.623-2.443 4.747-7.452 7.371-13.621 3.111-7.33 4.649-14.134 4.563-20.218-.756.88-3.441 4.19-6.162 9.37-2.941 5.607-6.516 14.647-6.846 25.788v.049l-.036.037a73.094 73.094 0 0 0-7.92 9.26l-.707.989.5-1.111c2.233-4.972 7.151-17.714 4.674-29.405-.537.855-2.307 3.897-3.795 8.49a47.629 47.629 0 0 0-1.684 22.417l.012.049-.025.037c-.524.769-1.037 1.551-1.525 2.309a81.758 81.758 0 0 0-3.966 7.036l-.256.513.024-.574c.196-4.605-.073-9.809-.793-15.466v-.036l.012-.037c.72-1.49 3.234-6.914 5.235-13.829 2.49-8.6 3.295-16.223 2.404-22.649-.561.965-2.379 4.227-4.124 9.101-1.928 5.363-4.149 13.829-3.807 23.651l-.244.025c-.867-5.547-2.136-11.472-3.759-17.604l-.012-.037.012-.036c1.196-2.92 6.956-18.08 3.246-31.152-.427.806-1.757 3.47-2.868 7.452-1.244 4.422-2.477 11.41-1.281 19.607l-.244.049a232.362 232.362 0 0 0-3.624-11.471l-.012-.037c-.196-3.848-1.379-16.98-8.713-25.617-.049.904-.134 3.811.561 7.745.769 4.373 2.697 10.946 7.468 17.408l.013.037a225.769 225.769 0 0 1 3.099 9.577l.159.513a221.053 221.053 0 0 1 1.549 5.461 214.57 214.57 0 0 1 1.623 6.438l.098.403c1.989 8.637 4.21 21.244 3.429 32.227v.024l-.012.025a89.161 89.161 0 0 0-3.49 8.49l-.159.452a96.8 96.8 0 0 0-2.087 6.768 125.383 125.383 0 0 0-1.012 4.08l-.135.574-.109-.574c-.623-3.164-3.185-13.841-11.129-20.047zm35.082-2.761c-1.013.611-4.527 2.834-8.737 6.682-4.588 4.203-10.958 11.264-15.241 21.025l-.317.708c1.354-.965 6.028-4.398 11.08-9.455 6.443-6.426 10.885-12.803 13.215-18.96zm-35.302-22.6c.098 1.197.537 5.448 2.172 11.044 1.782 6.095 5.394 15.099 12.483 23.345l-.048-.318c-.635-3.738-4.247-22.893-14.607-34.071zm52.154 9.016c-1.171.171-5.296.855-10.677 2.785-5.882 2.113-14.509 6.169-22.246 13.56l-.463.44.049-.012c1.598-.355 7.333-1.747 13.984-4.472 8.358-3.42 14.862-7.561 19.353-12.301zm-59.292-24.042c.549.574 2.391 2.333 5.43 4.08 3.38 1.943 8.993 4.252 16.486 4.19h.061l-.232-.195c-1.062-.855-3.954-3.054-7.883-4.935-4.796-2.297-9.469-3.36-13.862-3.14zm-4.613-18.593c.549.757 2.428 3.164 5.626 5.851 3.55 2.981 9.493 6.903 17.669 8.711h.024l-.293-.318c-10.006-11.019-19.817-13.658-23.026-14.244z" fill="#9FC792"/><path fill-rule="evenodd" clip-rule="evenodd" d="M113.914 153.977c.096.045.111.081.124.116.037.102.028.213-.17.252-7.738.262-15.41 1.364-22.789 3.842-8.378 2.813-16.34 7.429-22.01 14.19-1.085 1.294-2.126 2.655-2.89 4.138 0 0-.01.056-.089.096-.131.068-.334-.026-.253-.25.06-.169.16-.303.246-.45 1.758-3.055 4.212-5.686 6.877-8.027 8.652-7.598 20.229-11.604 31.422-13.131a93.553 93.553 0 0 1 9.473-.783l.059.007z" fill="#B1CBE5"/><path fill-rule="evenodd" clip-rule="evenodd" d="M124.682 165.005c.275.104.128.349-.044.37-4.355.009-8.636 1.406-11.783 4.419 0 0 1.565 1.004 1.73 2.459.182 1.595-.81 3.069-1.857 4.119-.735.738-1.606 1.415-2.581 1.615-.434.089-.929.033-1.2-.346-.462-.644-.175-1.507.026-2.18a13.756 13.756 0 0 1 3.239-5.554c-1.159-.555-2.442-.799-3.717-.946-3.31-.381-6.766.301-9.437 2.364-2.2 1.698-3.857 4.118-4.677 6.734 0 0-.032.157-.142.194-.142.047-.32.021-.2-.361 1.23-3.791 4.101-7.158 7.862-8.588 2.71-1.03 5.769-1.049 8.576-.384.684.162 1.357.38 1.988.693 0 0 .436-.387.821-.713 3.106-2.626 7.218-3.874 11.267-3.9 0 0 .07-.002.129.005zm-12.147 5.108c-1.612 1.667-2.856 3.724-3.352 6.015a4.64 4.64 0 0 0-.073.468 2.144 2.144 0 0 0-.007.305c.015.314.16.69.541.742.506.07 1.029-.196 1.501-.483 1.212-.737 2.223-1.864 2.759-3.113.439-1.023.437-2.32-.366-3.198a4.027 4.027 0 0 0-.964-.752s.006-.031-.039.016z" fill="#BFD5EC"/></g><defs><clipPath id="a"><path fill="#fff" d="M0 0h356v199H0z"/></clipPath></defs></svg>