<svg width="52" height="52" viewBox="0 0 52 52" fill="none" xmlns="http://www.w3.org/2000/svg"><circle cx="26" cy="26" r="25" stroke="#FF928E" stroke-width="2"/><path d="M37.334 29.933V17.705A2.713 2.713 0 0 0 34.63 15H15.705A2.713 2.713 0 0 0 13 17.705v13.527a2.713 2.713 0 0 0 2.705 2.705H29.3c.38 2.597 2.841 4.532 5.654 3.963 1.813-.365 3.287-1.853 3.653-3.665a4.724 4.724 0 0 0-1.272-4.302zM34.63 17.705l-9.455 4.735-9.469-4.735H34.63zm-4.924 13.527h-14V20.41l9.469 4.734 9.468-4.734v8.183c-.216-.027-.446-.068-.676-.068a4.721 4.721 0 0 0-4.26 2.706zm6.966 2.705h-5.41v-1.352h5.41v1.352z" fill="#FF928E"/></svg>