<svg width="30" height="35" viewBox="0 0 30 35" fill="none" xmlns="http://www.w3.org/2000/svg"><path fill-rule="evenodd" clip-rule="evenodd" d="M3.164 19.646c-1.743 0-3.156-1.394-3.156-3.113 0-1.72 1.413-3.114 3.156-3.114.636 0 1.229.186 1.725.506l8.597 5.721H3.164zm.872-7.006a3.088 3.088 0 0 1-.927-4.305c.948-1.441 2.9-1.85 4.36-.915.514.328.92.798 1.166 1.35l4.394 9.893-8.993-6.023zm22.79 7.01c1.747 0 3.163-1.396 3.163-3.117 0-1.722-1.416-3.117-3.163-3.117-.638 0-1.232.186-1.729.506L16.48 19.65h10.346zm-.872-7.01a3.089 3.089 0 0 0 .929-4.309c-.95-1.443-2.907-1.853-4.37-.916a3.111 3.111 0 0 0-1.17 1.352l-4.403 9.901 9.014-6.028zm-9.705-5.858c-.226.173-.843.266-.71 1.352l1.335 9.215 4.449-10.045c.71-1.573-.008-3.415-1.605-4.116-1.597-.7-3.468.007-4.18 1.58a3.064 3.064 0 0 0-.253 1.621l.838-.001c.476.023.726.148.126.394zm-7.585.525c-.71-1.572.008-3.413 1.601-4.112 1.594-.7 3.462.007 4.171 1.578.25.552.332 1.164.234 1.761l-1.566 10.809-4.44-10.036zM27.982 31.67c-.511.205-1.271.413-1.975.413-3.219 0-5.828-2.44-5.828-5.45 0-3.01 2.61-5.451 5.828-5.451.692 0 1.452.167 1.975.403v2.084a3.615 3.615 0 0 0-1.975-.582c-1.987 0-3.598 1.587-3.598 3.545 0 1.959 1.611 3.546 3.598 3.546.726 0 1.41-.212 1.975-.576v2.068zM8.618 21.538h2.14v10.415L4.17 26.012v5.713H2.03V21.313l6.587 5.94v-5.715zm9.309 4.743c.653-.478 1.222-.934 1.217-2.137-.008-1.584-1.305-2.616-2.913-2.616h-4.246v10.207h4.762c1.687 0 2.97-1.264 2.97-2.924s-1.39-2.386-1.79-2.53zm-3.791-3.21h1.59c.745 0 1.348.595 1.348 1.327 0 .733-.603 1.328-1.348 1.328h-1.59V23.07zm1.936 7.132h-1.936V27.25l1.936-.008c.83 0 1.503.663 1.503 1.48 0 .818-.673 1.48-1.503 1.48z" fill="#272727" opacity=".5"/></svg>