<svg width="100" height="100" viewBox="0 0 100 100" fill="none" xmlns="http://www.w3.org/2000/svg"><path d="M36.444 42.682h27.112c1.842 0 3.608-.72 4.91-2.004a6.79 6.79 0 0 0 2.034-4.837 6.79 6.79 0 0 0-2.034-4.837A6.996 6.996 0 0 0 63.556 29H31.484a2 2 0 0 0-1.403.573 1.94 1.94 0 0 0-.581 1.381c0 .519.209 1.016.581 1.383.372.366.877.572 1.403.572h32.072c.79 0 1.547.309 2.105.859a2.91 2.91 0 0 1 .871 2.073 2.91 2.91 0 0 1-.871 2.073 2.999 2.999 0 0 1-2.105.859H36.445c-1.842 0-3.608.72-4.91 2.003a6.79 6.79 0 0 0-2.034 4.838 6.79 6.79 0 0 0 2.034 4.837 6.997 6.997 0 0 0 4.91 2.004h27.112c.79 0 1.547.308 2.105.858a2.91 2.91 0 0 1 .871 2.073 2.91 2.91 0 0 1-.871 2.073 2.999 2.999 0 0 1-2.105.86H36.445c-1.842 0-3.608.72-4.91 2.003a6.79 6.79 0 0 0-2.034 4.837 6.79 6.79 0 0 0 2.034 4.837A6.996 6.996 0 0 0 36.444 72h32.072a2 2 0 0 0 1.403-.573 1.94 1.94 0 0 0 .581-1.382 1.94 1.94 0 0 0-.581-1.382 1.999 1.999 0 0 0-1.403-.572H36.443a2.998 2.998 0 0 1-2.104-.859 2.91 2.91 0 0 1-.871-2.073c0-.778.313-1.523.871-2.073a2.999 2.999 0 0 1 2.105-.859h27.112c1.842 0 3.608-.72 4.91-2.003a6.79 6.79 0 0 0 2.034-4.838 6.79 6.79 0 0 0-2.034-4.837 6.997 6.997 0 0 0-4.91-2.004H36.445c-.79 0-1.547-.308-2.105-.858a2.91 2.91 0 0 1-.871-2.073c0-.778.313-1.524.871-2.073a2.999 2.999 0 0 1 2.105-.86zm0 7.166h27.112c1.491 0 2.92.584 3.975 1.623a5.497 5.497 0 0 1 1.646 3.915 5.497 5.497 0 0 1-1.646 3.916 5.664 5.664 0 0 1-3.975 1.622H36.445c-1.14 0-2.234.446-3.04 1.24a4.203 4.203 0 0 0-1.259 2.995c0 1.123.453 2.2 1.26 2.995a4.327 4.327 0 0 0 3.038 1.24h32.073c.175 0 .344.069.468.19a.647.647 0 0 1 0 .922.666.666 0 0 1-.468.191H36.443c-1.49 0-2.92-.584-3.974-1.622a5.497 5.497 0 0 1-1.646-3.916c0-1.469.592-2.877 1.646-3.916a5.664 5.664 0 0 1 3.974-1.622h27.114a4.33 4.33 0 0 0 3.039-1.24 4.203 4.203 0 0 0 1.259-2.995 4.2 4.2 0 0 0-1.26-2.994 4.331 4.331 0 0 0-3.038-1.24H36.442c-1.49 0-2.92-.584-3.974-1.623a5.497 5.497 0 0 1-1.646-3.915c0-1.47.592-2.878 1.646-3.916a5.664 5.664 0 0 1 3.974-1.622h27.114a4.33 4.33 0 0 0 3.039-1.24 4.203 4.203 0 0 0 1.259-2.995c0-1.123-.453-2.2-1.26-2.995a4.331 4.331 0 0 0-3.038-1.24H31.483a.666.666 0 0 1-.468-.19.647.647 0 0 1 0-.922.666.666 0 0 1 .468-.191h32.072c1.491 0 2.92.584 3.975 1.622a5.497 5.497 0 0 1 1.646 3.916 5.497 5.497 0 0 1-1.646 3.916 5.664 5.664 0 0 1-3.975 1.622h-27.11c-1.14 0-2.234.446-3.04 1.24a4.203 4.203 0 0 0-1.259 2.995 4.2 4.2 0 0 0 1.26 2.994 4.327 4.327 0 0 0 3.038 1.24z" fill="#E54B4C"/><rect x=".5" y=".5" width="99" height="99" rx="49.5" stroke="#E2E2E2"/></svg>