<svg width="750" height="938" viewBox="0 0 750 938" fill="none" xmlns="http://www.w3.org/2000/svg"><path d="M567.338 648.884c-99.322 157.991-308.05 205.47-466.21 106.042-158.16-99.428-205.852-308.108-106.53-466.098 99.32-157.991 308.05-205.47 466.209-106.042 158.16 99.428 205.852 308.108 106.531 466.098z" stroke="#EFF1F5" stroke-width="4"/><path d="M510.924 613.419c-79.755 126.867-247.365 164.993-374.368 85.152C9.553 618.73-28.744 451.159 51.011 324.293 130.766 197.426 298.376 159.3 425.38 239.141c127.003 79.841 165.3 247.412 85.545 374.278z" stroke="#EFF1F5" stroke-width="4"/><circle cx="212.562" cy="726.601" r="12.065" transform="rotate(32.156 212.562 726.601)" fill="#EFF1F5"/><circle cx="77.793" cy="289.039" r="12.065" transform="rotate(32.156 77.793 289.039)" fill="#EFF1F5"/><circle cx="299.045" cy="809.471" r="12.065" transform="rotate(32.156 299.045 809.471)" fill="#EFF1F5"/></svg>