<svg width="127" height="127" viewBox="0 0 127 127" fill="none" xmlns="http://www.w3.org/2000/svg"><path d="M10.17 127c5.48 0 9.922-4.442 9.922-9.922s-4.442-9.922-9.922-9.922-9.922 4.442-9.922 9.922S4.69 127 10.17 127zm53.33 0c5.48 0 9.922-4.442 9.922-9.922s-4.442-9.922-9.922-9.922-9.922 4.442-9.922 9.922S58.02 127 63.5 127zm14.237-19.844a17.264 17.264 0 0 1 3.126 9.922c0 3.687-1.159 7.107-3.126 9.922h24.856a17.267 17.267 0 0 1-3.126-9.922c0-3.687 1.159-7.107 3.126-9.922H77.737zm-53.33 0a17.264 17.264 0 0 1 3.126 9.922c0 3.687-1.159 7.107-3.126 9.922h24.856a17.264 17.264 0 0 1-3.126-9.922 17.26 17.26 0 0 1 3.126-9.922H24.407zM116.83 127c5.48 0 9.922-4.442 9.922-9.922s-4.442-9.922-9.922-9.922-9.922 4.442-9.922 9.922S111.35 127 116.83 127zM72.802 77.39H54.198a3.72 3.72 0 0 0-3.72 3.721v18.604h26.044V81.11a3.72 3.72 0 0 0-3.72-3.72zm-55.811 0a3.72 3.72 0 0 0-3.72 3.721v18.604h26.044V81.11a3.72 3.72 0 0 0-3.72-3.72H16.99zm74.414 0a3.72 3.72 0 0 0-3.72 3.721v18.604h26.044V81.11a3.72 3.72 0 0 0-3.72-3.72H91.405zm-47.749-7.937a3.72 3.72 0 0 0 3.721-3.72V58.29a3.72 3.72 0 0 0-2.255-3.42l-15.108-6.475V39.93a7.441 7.441 0 1 0-7.441 0v8.466l-15.11 6.475a3.72 3.72 0 0 0-2.255 3.42v7.441a3.72 3.72 0 0 0 7.441 0v-4.988l13.643-5.846 13.642 5.846v4.988a3.72 3.72 0 0 0 3.721 3.721z" fill="#EFF1F5"/><path d="M123.279 0H3.721a3.72 3.72 0 0 0 0 7.441h72.515l-10.74 18.601a14.881 14.881 0 0 0-1.521 3.724H40.7c.307 1.19.475 2.435.475 3.72a14.87 14.87 0 0 1-.474 3.721h23.277a14.834 14.834 0 0 0 6.966 9.166c7.118 4.11 16.22 1.67 20.33-5.448l19.332-33.484h12.673a3.72 3.72 0 1 0 0-7.441zM78.383 37.207a3.72 3.72 0 1 1 0-7.442 3.72 3.72 0 0 1 0 7.442z" fill="#EFF1F5"/></svg>