<svg width="84" height="84" viewBox="0 0 84 84" fill="none" xmlns="http://www.w3.org/2000/svg"><path d="M81.37 35.235l-4.052-2.333a10.493 10.493 0 0 0-5.24-1.402H60.374a2.625 2.625 0 0 1-2.625-2.625V7.192a4.568 4.568 0 0 0-4.568-4.567h-.016a4.567 4.567 0 0 0-4.332 3.123l-5.04 13.183a15.753 15.753 0 0 1-5.975 7.481L26.25 34.125V73.5h2.342a10.5 10.5 0 0 1 5.402 1.496l8.137 4.883a10.503 10.503 0 0 0 5.402 1.496H70c2.272 0 4.482-.737 6.3-2.1l5.6-4.2a5.25 5.25 0 0 0 2.1-4.2v-31.09a5.249 5.249 0 0 0-2.63-4.55zm-65.62-6.36H0V78.75h15.75c2.9 0 5.25-2.35 5.25-5.25V34.125c0-2.9-2.35-5.25-5.25-5.25zM10.5 73.5a5.25 5.25 0 1 1 0-10.5 5.25 5.25 0 0 1 0 10.5z" fill="#EEF0F5"/></svg>