<svg width="84" height="60" viewBox="0 0 84 60" fill="none" xmlns="http://www.w3.org/2000/svg"><path d="M83.938 6.096c0-.096.066-.19.061-.284l-25.634 24.7 25.604 23.91c.015-.17-.031-.343-.031-.517V6.096zM54.452 34.312L43.988 44.38a2.73 2.73 0 0 1-1.898.765 2.73 2.73 0 0 1-1.866-.734l-10.436-9.725-25.77 24.84c.626.225 1.299.4 2.003.4H78.16c1.046 0 2.027-.319 2.88-.794l-26.587-24.82z" fill="#EFF1F5"/><path d="M42.06 38.64L81.183.953c-.886-.526-1.917-.88-3.022-.88H6.022c-1.44 0-2.758.56-3.785 1.411L42.061 38.64zM0 7.014v46.89c0 .538.124 1.057.258 1.553l25.45-24.508L0 7.014z" fill="#EFF1F5"/></svg>