<svg width="474" height="448" viewBox="0 0 474 448" fill="none" xmlns="http://www.w3.org/2000/svg"><g opacity=".5" fill="#2C3647"><circle cx="88" cy="368" r="3" fill-opacity=".4"/><circle cx="110" cy="368" r="3" fill-opacity=".4"/><circle cx="121" cy="368" r="3" fill-opacity=".4"/><circle cx="132" cy="368" r="3" fill-opacity=".4"/><circle cx="154" cy="368" r="3" fill-opacity=".4"/><circle cx="165" cy="368" r="3" fill-opacity=".4"/><circle cx="176" cy="368" r="3" fill-opacity=".4"/><circle cx="198" cy="368" r="3" fill-opacity=".4"/><circle cx="209" cy="368" r="3" fill-opacity=".4"/><circle cx="220" cy="368" r="3" fill-opacity=".3"/><circle cx="231" cy="368" r="3" fill-opacity=".2"/><circle cx="88" cy="357" r="3" fill-opacity=".3"/><circle cx="99" cy="357" r="3" fill-opacity=".3"/><circle cx="110" cy="357" r="3" fill-opacity=".3"/><circle cx="121" cy="357" r="3" fill-opacity=".3"/><circle cx="132" cy="357" r="3" fill-opacity=".3"/><circle cx="143" cy="357" r="3" fill-opacity=".3"/><circle cx="154" cy="357" r="3" fill-opacity=".3"/><circle cx="165" cy="357" r="3" fill-opacity=".3"/><circle cx="176" cy="357" r="3" fill-opacity=".3"/><circle cx="187" cy="357" r="3" fill-opacity=".3"/><circle cx="198" cy="357" r="3" fill-opacity=".3"/><circle cx="209" cy="357" r="3" fill-opacity=".3"/><circle cx="220" cy="357" r="3" fill-opacity=".3"/><circle cx="242" cy="357" r="3" fill-opacity=".1"/><circle cx="99" cy="346" r="3" fill-opacity=".2"/><circle cx="102" cy="324" r="3" fill-opacity=".2"/><circle cx="121" cy="346" r="3" fill-opacity=".2"/><circle cx="143" cy="346" r="3" fill-opacity=".2"/><circle cx="165" cy="346" r="3" fill-opacity=".2"/><circle cx="187" cy="346" r="3" fill-opacity=".2"/><circle cx="209" cy="346" r="3" fill-opacity=".2"/><circle cx="231" cy="346" r="3" fill-opacity=".2"/><circle cx="88" cy="335" r="3" fill-opacity=".1"/><circle cx="91" cy="313" r="3" fill-opacity=".1"/><circle cx="110" cy="335" r="3" fill-opacity=".1"/><circle cx="132" cy="335" r="3" fill-opacity=".1"/><circle cx="154" cy="335" r="3" fill-opacity=".1"/><circle cx="176" cy="335" r="3" fill-opacity=".1"/><circle cx="198" cy="335" r="3" fill-opacity=".1"/><circle cx="220" cy="335" r="3" fill-opacity=".1"/><circle cx="242" cy="335" r="3" fill-opacity=".1"/><circle cx="77" cy="357" r="3" fill-opacity=".3"/><circle cx="77" cy="346" r="3" fill-opacity=".2"/><circle cx="80" cy="324" r="3" fill-opacity=".2"/><circle cx="66" cy="368" r="3" fill-opacity=".4"/><circle cx="66" cy="357" r="3" fill-opacity=".3"/><circle cx="66" cy="335" r="3" fill-opacity=".1"/><circle cx="69" cy="313" r="3" fill-opacity=".1"/><circle cx="55" cy="368" r="3" fill-opacity=".4"/><circle cx="55" cy="357" r="3" fill-opacity=".3"/><circle cx="55" cy="346" r="3" fill-opacity=".2"/><circle cx="88" cy="390" r="3" fill-opacity=".4"/><circle cx="99" cy="390" r="3" fill-opacity=".4"/><circle cx="110" cy="390" r="3" fill-opacity=".4"/><circle cx="121" cy="390" r="3" fill-opacity=".4"/><circle cx="132" cy="390" r="3" fill-opacity=".4"/><circle cx="143" cy="390" r="3" fill-opacity=".4"/><circle cx="154" cy="390" r="3" fill-opacity=".4"/><circle cx="165" cy="390" r="3" fill-opacity=".4"/><circle cx="176" cy="390" r="3" fill-opacity=".4"/><circle cx="187" cy="390" r="3" fill-opacity=".4"/><circle cx="198" cy="390" r="3" fill-opacity=".4"/><circle cx="209" cy="390" r="3" fill-opacity=".4"/><circle cx="220" cy="390" r="3" fill-opacity=".3"/><circle cx="231" cy="390" r="3" fill-opacity=".2"/><circle cx="77" cy="390" r="3" fill-opacity=".4"/><circle cx="66" cy="390" r="3" fill-opacity=".4"/><circle cx="55" cy="390" r="3" fill-opacity=".5"/><circle cx="99" cy="412" r="3" fill-opacity=".2"/><circle cx="121" cy="412" r="3" fill-opacity=".2"/><circle cx="143" cy="412" r="3" fill-opacity=".2"/><circle cx="165" cy="412" r="3" fill-opacity=".2"/><circle cx="187" cy="412" r="3" fill-opacity=".2"/><circle cx="209" cy="412" r="3" fill-opacity=".2"/><circle cx="231" cy="412" r="3" fill-opacity=".2"/><circle cx="77" cy="412" r="3" fill-opacity=".2"/><circle cx="55" cy="412" r="3" fill-opacity=".2"/><circle cx="88" cy="379" r="3" fill-opacity=".5"/><circle cx="99" cy="379" r="3" fill-opacity=".5"/><circle cx="110" cy="379" r="3" fill-opacity=".5"/><circle cx="121" cy="379" r="3" fill-opacity=".5"/><circle cx="143" cy="379" r="3" fill-opacity=".5"/><circle cx="154" cy="379" r="3" fill-opacity=".5"/><circle cx="165" cy="379" r="3" fill-opacity=".5"/><circle cx="176" cy="379" r="3" fill-opacity=".5"/><circle cx="187" cy="379" r="3" fill-opacity=".5"/><circle cx="209" cy="379" r="3" fill-opacity=".4"/><circle cx="220" cy="379" r="3" fill-opacity=".3"/><circle cx="242" cy="379" r="3" fill-opacity=".1"/><circle cx="77" cy="379" r="3" fill-opacity=".5"/><circle cx="55" cy="379" r="3" fill-opacity=".4"/><circle cx="88" cy="401" r="3" fill-opacity=".3"/><circle cx="110" cy="401" r="3" fill-opacity=".3"/><circle cx="132" cy="401" r="3" fill-opacity=".3"/><circle cx="143" cy="401" r="3" fill-opacity=".3"/><circle cx="154" cy="401" r="3" fill-opacity=".3"/><circle cx="176" cy="401" r="3" fill-opacity=".3"/><circle cx="187" cy="401" r="3" fill-opacity=".3"/><circle cx="209" cy="401" r="3" fill-opacity=".3"/><circle cx="220" cy="401" r="3" fill-opacity=".3"/><circle cx="242" cy="401" r="3" fill-opacity=".1"/><circle cx="66" cy="401" r="3" fill-opacity=".3"/><circle cx="88" cy="423" r="3" fill-opacity=".1"/><circle cx="100" cy="435" r="3" fill-opacity=".1"/><circle cx="116" cy="445" r="3" fill-opacity=".1"/><circle cx="110" cy="423" r="3" fill-opacity=".1"/><circle cx="122" cy="435" r="3" fill-opacity=".1"/><circle cx="138" cy="445" r="3" fill-opacity=".1"/><circle cx="132" cy="423" r="3" fill-opacity=".1"/><circle cx="144" cy="435" r="3" fill-opacity=".1"/><circle cx="160" cy="445" r="3" fill-opacity=".1"/><circle cx="154" cy="423" r="3" fill-opacity=".1"/><circle cx="166" cy="435" r="3" fill-opacity=".1"/><circle cx="176" cy="423" r="3" fill-opacity=".1"/><circle cx="188" cy="435" r="3" fill-opacity=".1"/><circle cx="198" cy="423" r="3" fill-opacity=".1"/><circle cx="220" cy="423" r="3" fill-opacity=".1"/><circle cx="242" cy="423" r="3" fill-opacity=".1"/><circle cx="66" cy="423" r="3" fill-opacity=".1"/><circle cx="44" cy="368" r="3" fill-opacity=".3"/><circle cx="44" cy="335" r="3" fill-opacity=".1"/><circle cx="58" cy="327" r="3" fill-opacity=".1"/><circle cx="33" cy="357" r="3" fill-opacity=".2"/><circle cx="44" cy="390" r="3" fill-opacity=".3"/><circle cx="33" cy="390" r="3" fill-opacity=".2"/><circle cx="33" cy="412" r="3" fill-opacity=".2"/><circle cx="44" cy="379" r="3" fill-opacity=".3"/><circle cx="33" cy="379" r="3" fill-opacity=".2"/><circle cx="44" cy="401" r="3" fill-opacity=".3"/><circle cx="44" cy="423" r="3" fill-opacity=".1"/><circle cx="22" cy="357" r="3" fill-opacity=".1"/><circle cx="22" cy="335" r="3" fill-opacity=".1"/><circle cx="22" cy="379" r="3" fill-opacity=".1"/><circle cx="22" cy="401" r="3" fill-opacity=".1"/><circle cx="22" cy="423" r="3" fill-opacity=".1"/></g><g opacity=".5" fill="#2C3647"><circle cx="316" cy="185" r="3" fill-opacity=".4"/><circle cx="338" cy="185" r="3" fill-opacity=".4"/><circle cx="349" cy="185" r="3" fill-opacity=".4"/><circle cx="360" cy="185" r="3" fill-opacity=".4"/><circle cx="382" cy="185" r="3" fill-opacity=".4"/><circle cx="393" cy="185" r="3" fill-opacity=".4"/><circle cx="404" cy="185" r="3" fill-opacity=".4"/><circle cx="426" cy="185" r="3" fill-opacity=".4"/><circle cx="437" cy="185" r="3" fill-opacity=".4"/><circle cx="448" cy="185" r="3" fill-opacity=".3"/><circle cx="459" cy="185" r="3" fill-opacity=".2"/><circle cx="316" cy="174" r="3" fill-opacity=".3"/><circle cx="327" cy="174" r="3" fill-opacity=".3"/><circle cx="338" cy="174" r="3" fill-opacity=".3"/><circle cx="349" cy="174" r="3" fill-opacity=".3"/><circle cx="360" cy="174" r="3" fill-opacity=".3"/><circle cx="371" cy="174" r="3" fill-opacity=".3"/><circle cx="382" cy="174" r="3" fill-opacity=".3"/><circle cx="393" cy="174" r="3" fill-opacity=".3"/><circle cx="404" cy="174" r="3" fill-opacity=".3"/><circle cx="415" cy="174" r="3" fill-opacity=".3"/><circle cx="426" cy="174" r="3" fill-opacity=".3"/><circle cx="437" cy="174" r="3" fill-opacity=".3"/><circle cx="448" cy="174" r="3" fill-opacity=".3"/><circle cx="470" cy="174" r="3" fill-opacity=".1"/><circle cx="327" cy="163" r="3" fill-opacity=".2"/><circle cx="349" cy="163" r="3" fill-opacity=".2"/><circle cx="371" cy="163" r="3" fill-opacity=".2"/><circle cx="393" cy="163" r="3" fill-opacity=".2"/><circle cx="415" cy="163" r="3" fill-opacity=".2"/><circle cx="437" cy="163" r="3" fill-opacity=".2"/><circle cx="459" cy="163" r="3" fill-opacity=".2"/><circle cx="316" cy="152" r="3" fill-opacity=".1"/><circle cx="338" cy="152" r="3" fill-opacity=".1"/><circle cx="360" cy="152" r="3" fill-opacity=".1"/><circle cx="382" cy="152" r="3" fill-opacity=".1"/><circle cx="372" cy="141" r="3" fill-opacity=".1"/><circle cx="404" cy="152" r="3" fill-opacity=".1"/><circle cx="394" cy="141" r="3" fill-opacity=".1"/><circle cx="407" cy="130" r="3" fill-opacity=".1"/><circle cx="426" cy="152" r="3" fill-opacity=".1"/><circle cx="416" cy="141" r="3" fill-opacity=".1"/><circle cx="429" cy="130" r="3" fill-opacity=".1"/><circle cx="448" cy="152" r="3" fill-opacity=".1"/><circle cx="438" cy="141" r="3" fill-opacity=".1"/><circle cx="470" cy="152" r="3" fill-opacity=".1"/><circle cx="305" cy="174" r="3" fill-opacity=".3"/><circle cx="305" cy="163" r="3" fill-opacity=".2"/><circle cx="294" cy="185" r="3" fill-opacity=".4"/><circle cx="294" cy="174" r="3" fill-opacity=".3"/><circle cx="294" cy="152" r="3" fill-opacity=".1"/><circle cx="283" cy="185" r="3" fill-opacity=".4"/><circle cx="283" cy="174" r="3" fill-opacity=".3"/><circle cx="283" cy="163" r="3" fill-opacity=".2"/><circle cx="316" cy="207" r="3" fill-opacity=".4"/><circle cx="327" cy="207" r="3" fill-opacity=".4"/><circle cx="338" cy="207" r="3" fill-opacity=".4"/><circle cx="349" cy="207" r="3" fill-opacity=".4"/><circle cx="360" cy="207" r="3" fill-opacity=".4"/><circle cx="371" cy="207" r="3" fill-opacity=".4"/><circle cx="382" cy="207" r="3" fill-opacity=".4"/><circle cx="393" cy="207" r="3" fill-opacity=".4"/><circle cx="404" cy="207" r="3" fill-opacity=".4"/><circle cx="415" cy="207" r="3" fill-opacity=".4"/><circle cx="426" cy="207" r="3" fill-opacity=".4"/><circle cx="437" cy="207" r="3" fill-opacity=".4"/><circle cx="448" cy="207" r="3" fill-opacity=".3"/><circle cx="459" cy="207" r="3" fill-opacity=".2"/><circle cx="305" cy="207" r="3" fill-opacity=".4"/><circle cx="294" cy="207" r="3" fill-opacity=".4"/><circle cx="283" cy="207" r="3" fill-opacity=".5"/><circle cx="327" cy="229" r="3" fill-opacity=".2"/><circle cx="349" cy="229" r="3" fill-opacity=".2"/><circle cx="371" cy="229" r="3" fill-opacity=".2"/><circle cx="393" cy="229" r="3" fill-opacity=".2"/><circle cx="415" cy="229" r="3" fill-opacity=".2"/><circle cx="437" cy="229" r="3" fill-opacity=".2"/><circle cx="459" cy="229" r="3" fill-opacity=".2"/><circle cx="305" cy="229" r="3" fill-opacity=".2"/><circle cx="283" cy="229" r="3" fill-opacity=".2"/><circle cx="316" cy="196" r="3" fill-opacity=".5"/><circle cx="327" cy="196" r="3" fill-opacity=".5"/><circle cx="338" cy="196" r="3" fill-opacity=".5"/><circle cx="349" cy="196" r="3" fill-opacity=".5"/><circle cx="371" cy="196" r="3" fill-opacity=".5"/><circle cx="382" cy="196" r="3" fill-opacity=".5"/><circle cx="393" cy="196" r="3" fill-opacity=".5"/><circle cx="404" cy="196" r="3" fill-opacity=".5"/><circle cx="415" cy="196" r="3" fill-opacity=".5"/><circle cx="437" cy="196" r="3" fill-opacity=".4"/><circle cx="448" cy="196" r="3" fill-opacity=".3"/><circle cx="470" cy="196" r="3" fill-opacity=".1"/><circle cx="305" cy="196" r="3" fill-opacity=".5"/><circle cx="283" cy="196" r="3" fill-opacity=".4"/><circle cx="316" cy="218" r="3" fill-opacity=".3"/><circle cx="338" cy="218" r="3" fill-opacity=".3"/><circle cx="360" cy="218" r="3" fill-opacity=".3"/><circle cx="371" cy="218" r="3" fill-opacity=".3"/><circle cx="382" cy="218" r="3" fill-opacity=".3"/><circle cx="404" cy="218" r="3" fill-opacity=".3"/><circle cx="415" cy="218" r="3" fill-opacity=".3"/><circle cx="437" cy="218" r="3" fill-opacity=".3"/><circle cx="448" cy="218" r="3" fill-opacity=".3"/><circle cx="470" cy="218" r="3" fill-opacity=".1"/><circle cx="294" cy="218" r="3" fill-opacity=".3"/><circle cx="316" cy="240" r="3" fill-opacity=".1"/><circle cx="338" cy="240" r="3" fill-opacity=".1"/><circle cx="360" cy="240" r="3" fill-opacity=".1"/><circle cx="382" cy="240" r="3" fill-opacity=".1"/><circle cx="404" cy="240" r="3" fill-opacity=".1"/><circle cx="426" cy="240" r="3" fill-opacity=".1"/><circle cx="448" cy="240" r="3" fill-opacity=".1"/><circle cx="470" cy="240" r="3" fill-opacity=".1"/><circle cx="294" cy="240" r="3" fill-opacity=".1"/><circle cx="272" cy="185" r="3" fill-opacity=".3"/><circle cx="272" cy="152" r="3" fill-opacity=".1"/><circle cx="261" cy="174" r="3" fill-opacity=".2"/><circle cx="272" cy="207" r="3" fill-opacity=".3"/><circle cx="261" cy="207" r="3" fill-opacity=".2"/><circle cx="261" cy="229" r="3" fill-opacity=".2"/><circle cx="272" cy="196" r="3" fill-opacity=".3"/><circle cx="261" cy="196" r="3" fill-opacity=".2"/><circle cx="272" cy="218" r="3" fill-opacity=".3"/><circle cx="272" cy="240" r="3" fill-opacity=".1"/><circle cx="250" cy="174" r="3" fill-opacity=".1"/><circle cx="250" cy="152" r="3" fill-opacity=".1"/><circle cx="250" cy="196" r="3" fill-opacity=".1"/><circle cx="250" cy="218" r="3" fill-opacity=".1"/><circle cx="250" cy="240" r="3" fill-opacity=".1"/></g><path opacity=".18" d="M200.705 93.05c50.337-1.188 96.354 18.753 122.448 51.762 52.54 66.357 62.237 132.629 26.975 167.505-7.317 7.297-28.298 24.693-59.416 30.972-50.073 10.098-71.847-19.941-113.28-12.219-54.744 10.267-60.563 71.024-97.411 72.89C44.846 405.658 6.41 352.453.769 302.219c-9.785-86.977 75.02-197.544 186.272-208.405a190 190 0 0 1 13.664-.764z" fill="#94C8E3"/><g opacity=".15" fill="#2C3647"><circle cx="180" cy="60" r="3" fill-opacity=".4"/><circle cx="202" cy="60" r="3" fill-opacity=".4"/><circle cx="213" cy="60" r="3" fill-opacity=".4"/><circle cx="224" cy="60" r="3" fill-opacity=".4"/><circle cx="246" cy="60" r="3" fill-opacity=".4"/><circle cx="257" cy="60" r="3" fill-opacity=".4"/><circle cx="268" cy="60" r="3" fill-opacity=".4"/><circle cx="290" cy="60" r="3" fill-opacity=".4"/><circle cx="301" cy="60" r="3" fill-opacity=".4"/><circle cx="312" cy="60" r="3" fill-opacity=".3"/><circle cx="323" cy="60" r="3" fill-opacity=".2"/><circle cx="180" cy="49" r="3" fill-opacity=".3"/><circle cx="191" cy="49" r="3" fill-opacity=".3"/><circle cx="202" cy="49" r="3" fill-opacity=".3"/><circle cx="213" cy="49" r="3" fill-opacity=".3"/><circle cx="224" cy="49" r="3" fill-opacity=".3"/><circle cx="235" cy="49" r="3" fill-opacity=".3"/><circle cx="246" cy="49" r="3" fill-opacity=".3"/><circle cx="257" cy="49" r="3" fill-opacity=".3"/><circle cx="268" cy="49" r="3" fill-opacity=".3"/><circle cx="279" cy="49" r="3" fill-opacity=".3"/><circle cx="290" cy="49" r="3" fill-opacity=".3"/><circle cx="301" cy="49" r="3" fill-opacity=".3"/><circle cx="312" cy="49" r="3" fill-opacity=".3"/><circle cx="334" cy="49" r="3" fill-opacity=".1"/><circle cx="191" cy="38" r="3" fill-opacity=".2"/><circle cx="213" cy="38" r="3" fill-opacity=".2"/><circle cx="235" cy="38" r="3" fill-opacity=".2"/><circle cx="257" cy="38" r="3" fill-opacity=".2"/><circle cx="279" cy="38" r="3" fill-opacity=".2"/><circle cx="301" cy="38" r="3" fill-opacity=".2"/><circle cx="323" cy="38" r="3" fill-opacity=".2"/><circle cx="180" cy="27" r="3" fill-opacity=".1"/><circle cx="202" cy="27" r="3" fill-opacity=".1"/><circle cx="224" cy="27" r="3" fill-opacity=".1"/><circle cx="246" cy="27" r="3" fill-opacity=".1"/><circle cx="268" cy="27" r="3" fill-opacity=".1"/><circle cx="290" cy="27" r="3" fill-opacity=".1"/><circle cx="312" cy="27" r="3" fill-opacity=".1"/><circle cx="334" cy="27" r="3" fill-opacity=".1"/><circle cx="169" cy="49" r="3" fill-opacity=".3"/><circle cx="169" cy="38" r="3" fill-opacity=".2"/><circle cx="158" cy="60" r="3" fill-opacity=".4"/><circle cx="158" cy="49" r="3" fill-opacity=".3"/><circle cx="158" cy="27" r="3" fill-opacity=".1"/><circle cx="147" cy="60" r="3" fill-opacity=".4"/><circle cx="147" cy="49" r="3" fill-opacity=".3"/><circle cx="147" cy="38" r="3" fill-opacity=".2"/><circle cx="180" cy="82" r="3" fill-opacity=".4"/><circle cx="191" cy="82" r="3" fill-opacity=".4"/><circle cx="202" cy="82" r="3" fill-opacity=".4"/><circle cx="213" cy="82" r="3" fill-opacity=".4"/><circle cx="224" cy="82" r="3" fill-opacity=".4"/><circle cx="235" cy="82" r="3" fill-opacity=".4"/><circle cx="246" cy="82" r="3" fill-opacity=".4"/><circle cx="257" cy="82" r="3" fill-opacity=".4"/><circle cx="268" cy="82" r="3" fill-opacity=".4"/><circle cx="279" cy="82" r="3" fill-opacity=".4"/><circle cx="290" cy="82" r="3" fill-opacity=".4"/><circle cx="301" cy="82" r="3" fill-opacity=".4"/><circle cx="312" cy="82" r="3" fill-opacity=".3"/><circle cx="323" cy="82" r="3" fill-opacity=".2"/><circle cx="169" cy="82" r="3" fill-opacity=".4"/><circle cx="158" cy="82" r="3" fill-opacity=".4"/><circle cx="147" cy="82" r="3" fill-opacity=".5"/><circle cx="191" cy="104" r="3" fill-opacity=".2"/><circle cx="213" cy="104" r="3" fill-opacity=".2"/><circle cx="235" cy="104" r="3" fill-opacity=".2"/><circle cx="257" cy="104" r="3" fill-opacity=".2"/><circle cx="279" cy="104" r="3" fill-opacity=".2"/><circle cx="301" cy="104" r="3" fill-opacity=".2"/><circle cx="323" cy="104" r="3" fill-opacity=".2"/><circle cx="169" cy="104" r="3" fill-opacity=".2"/><circle cx="147" cy="104" r="3" fill-opacity=".2"/><circle cx="180" cy="71" r="3" fill-opacity=".5"/><circle cx="191" cy="71" r="3" fill-opacity=".5"/><circle cx="202" cy="71" r="3" fill-opacity=".5"/><circle cx="213" cy="71" r="3" fill-opacity=".5"/><circle cx="235" cy="71" r="3" fill-opacity=".5"/><circle cx="246" cy="71" r="3" fill-opacity=".5"/><circle cx="257" cy="71" r="3" fill-opacity=".5"/><circle cx="268" cy="71" r="3" fill-opacity=".5"/><circle cx="279" cy="71" r="3" fill-opacity=".5"/><circle cx="301" cy="71" r="3" fill-opacity=".4"/><circle cx="312" cy="71" r="3" fill-opacity=".3"/><circle cx="334" cy="71" r="3" fill-opacity=".1"/><circle cx="169" cy="71" r="3" fill-opacity=".5"/><circle cx="147" cy="71" r="3" fill-opacity=".4"/><circle cx="180" cy="93" r="3" fill-opacity=".3"/><circle cx="202" cy="93" r="3" fill-opacity=".3"/><circle cx="224" cy="93" r="3" fill-opacity=".3"/><circle cx="235" cy="93" r="3" fill-opacity=".3"/><circle cx="246" cy="93" r="3" fill-opacity=".3"/><circle cx="268" cy="93" r="3" fill-opacity=".3"/><circle cx="279" cy="93" r="3" fill-opacity=".3"/><circle cx="301" cy="93" r="3" fill-opacity=".3"/><circle cx="312" cy="93" r="3" fill-opacity=".3"/><circle cx="334" cy="93" r="3" fill-opacity=".1"/><circle cx="158" cy="93" r="3" fill-opacity=".3"/><circle cx="180" cy="115" r="3" fill-opacity=".1"/><circle cx="202" cy="115" r="3" fill-opacity=".1"/><circle cx="224" cy="115" r="3" fill-opacity=".1"/><circle cx="246" cy="115" r="3" fill-opacity=".1"/><circle cx="268" cy="115" r="3" fill-opacity=".1"/><circle cx="290" cy="115" r="3" fill-opacity=".1"/><circle cx="312" cy="115" r="3" fill-opacity=".1"/><circle cx="334" cy="115" r="3" fill-opacity=".1"/><circle cx="158" cy="115" r="3" fill-opacity=".1"/><circle cx="136" cy="60" r="3" fill-opacity=".3"/><circle cx="136" cy="27" r="3" fill-opacity=".1"/><circle cx="125" cy="49" r="3" fill-opacity=".2"/><circle cx="136" cy="82" r="3" fill-opacity=".3"/><circle cx="125" cy="82" r="3" fill-opacity=".2"/><circle cx="125" cy="104" r="3" fill-opacity=".2"/><circle cx="136" cy="71" r="3" fill-opacity=".3"/><circle cx="125" cy="71" r="3" fill-opacity=".2"/><circle cx="136" cy="93" r="3" fill-opacity=".3"/><circle cx="136" cy="115" r="3" fill-opacity=".1"/><circle cx="114" cy="49" r="3" fill-opacity=".1"/><circle cx="114" cy="27" r="3" fill-opacity=".1"/><circle cx="114" cy="71" r="3" fill-opacity=".1"/><circle cx="114" cy="93" r="3" fill-opacity=".1"/><circle cx="114" cy="115" r="3" fill-opacity=".1"/></g><g opacity=".15" fill="#2C3647"><circle cx="135" cy="90" r="3" fill-opacity=".4"/><circle cx="157" cy="90" r="3" fill-opacity=".4"/><circle cx="168" cy="90" r="3" fill-opacity=".4"/><circle cx="179" cy="90" r="3" fill-opacity=".4"/><circle cx="201" cy="90" r="3" fill-opacity=".4"/><circle cx="212" cy="90" r="3" fill-opacity=".4"/><circle cx="223" cy="90" r="3" fill-opacity=".4"/><circle cx="245" cy="90" r="3" fill-opacity=".4"/><circle cx="256" cy="90" r="3" fill-opacity=".4"/><circle cx="267" cy="90" r="3" fill-opacity=".3"/><circle cx="278" cy="90" r="3" fill-opacity=".2"/><circle cx="135" cy="79" r="3" fill-opacity=".3"/><circle cx="146" cy="79" r="3" fill-opacity=".3"/><circle cx="157" cy="79" r="3" fill-opacity=".3"/><circle cx="168" cy="79" r="3" fill-opacity=".3"/><circle cx="179" cy="79" r="3" fill-opacity=".3"/><circle cx="190" cy="79" r="3" fill-opacity=".3"/><circle cx="201" cy="79" r="3" fill-opacity=".3"/><circle cx="212" cy="79" r="3" fill-opacity=".3"/><circle cx="223" cy="79" r="3" fill-opacity=".3"/><circle cx="234" cy="79" r="3" fill-opacity=".3"/><circle cx="245" cy="79" r="3" fill-opacity=".3"/><circle cx="256" cy="79" r="3" fill-opacity=".3"/><circle cx="267" cy="79" r="3" fill-opacity=".3"/><circle cx="289" cy="79" r="3" fill-opacity=".1"/><circle cx="146" cy="68" r="3" fill-opacity=".2"/><circle cx="168" cy="68" r="3" fill-opacity=".2"/><circle cx="190" cy="68" r="3" fill-opacity=".2"/><circle cx="212" cy="68" r="3" fill-opacity=".2"/><circle cx="234" cy="68" r="3" fill-opacity=".2"/><circle cx="256" cy="68" r="3" fill-opacity=".2"/><circle cx="278" cy="68" r="3" fill-opacity=".2"/><circle cx="135" cy="57" r="3" fill-opacity=".1"/><circle cx="157" cy="57" r="3" fill-opacity=".1"/><circle cx="179" cy="57" r="3" fill-opacity=".1"/><circle cx="201" cy="57" r="3" fill-opacity=".1"/><circle cx="223" cy="57" r="3" fill-opacity=".1"/><circle cx="245" cy="57" r="3" fill-opacity=".1"/><circle cx="267" cy="57" r="3" fill-opacity=".1"/><circle cx="289" cy="57" r="3" fill-opacity=".1"/><circle cx="124" cy="79" r="3" fill-opacity=".3"/><circle cx="124" cy="68" r="3" fill-opacity=".2"/><circle cx="113" cy="90" r="3" fill-opacity=".4"/><circle cx="113" cy="79" r="3" fill-opacity=".3"/><circle cx="113" cy="57" r="3" fill-opacity=".1"/><circle cx="102" cy="90" r="3" fill-opacity=".4"/><circle cx="102" cy="79" r="3" fill-opacity=".3"/><circle cx="102" cy="68" r="3" fill-opacity=".2"/><circle cx="135" cy="112" r="3" fill-opacity=".4"/><circle cx="146" cy="112" r="3" fill-opacity=".4"/><circle cx="157" cy="112" r="3" fill-opacity=".4"/><circle cx="168" cy="112" r="3" fill-opacity=".4"/><circle cx="179" cy="112" r="3" fill-opacity=".4"/><circle cx="190" cy="112" r="3" fill-opacity=".4"/><circle cx="201" cy="112" r="3" fill-opacity=".4"/><circle cx="212" cy="112" r="3" fill-opacity=".4"/><circle cx="223" cy="112" r="3" fill-opacity=".4"/><circle cx="234" cy="112" r="3" fill-opacity=".4"/><circle cx="245" cy="112" r="3" fill-opacity=".4"/><circle cx="256" cy="112" r="3" fill-opacity=".4"/><circle cx="267" cy="112" r="3" fill-opacity=".3"/><circle cx="278" cy="112" r="3" fill-opacity=".2"/><circle cx="124" cy="112" r="3" fill-opacity=".4"/><circle cx="113" cy="112" r="3" fill-opacity=".4"/><circle cx="102" cy="112" r="3" fill-opacity=".5"/><circle cx="146" cy="134" r="3" fill-opacity=".2"/><circle cx="168" cy="134" r="3" fill-opacity=".2"/><circle cx="190" cy="134" r="3" fill-opacity=".2"/><circle cx="212" cy="134" r="3" fill-opacity=".2"/><circle cx="234" cy="134" r="3" fill-opacity=".2"/><circle cx="256" cy="134" r="3" fill-opacity=".2"/><circle cx="278" cy="134" r="3" fill-opacity=".2"/><circle cx="124" cy="134" r="3" fill-opacity=".2"/><circle cx="102" cy="134" r="3" fill-opacity=".2"/><circle cx="135" cy="101" r="3" fill-opacity=".5"/><circle cx="146" cy="101" r="3" fill-opacity=".5"/><circle cx="157" cy="101" r="3" fill-opacity=".5"/><circle cx="168" cy="101" r="3" fill-opacity=".5"/><circle cx="190" cy="101" r="3" fill-opacity=".5"/><circle cx="201" cy="101" r="3" fill-opacity=".5"/><circle cx="212" cy="101" r="3" fill-opacity=".5"/><circle cx="223" cy="101" r="3" fill-opacity=".5"/><circle cx="234" cy="101" r="3" fill-opacity=".5"/><circle cx="256" cy="101" r="3" fill-opacity=".4"/><circle cx="267" cy="101" r="3" fill-opacity=".3"/><circle cx="289" cy="101" r="3" fill-opacity=".1"/><circle cx="124" cy="101" r="3" fill-opacity=".5"/><circle cx="102" cy="101" r="3" fill-opacity=".4"/><circle cx="135" cy="123" r="3" fill-opacity=".3"/><circle cx="157" cy="123" r="3" fill-opacity=".3"/><circle cx="179" cy="123" r="3" fill-opacity=".3"/><circle cx="190" cy="123" r="3" fill-opacity=".3"/><circle cx="201" cy="123" r="3" fill-opacity=".3"/><circle cx="223" cy="123" r="3" fill-opacity=".3"/><circle cx="234" cy="123" r="3" fill-opacity=".3"/><circle cx="256" cy="123" r="3" fill-opacity=".3"/><circle cx="267" cy="123" r="3" fill-opacity=".3"/><circle cx="289" cy="123" r="3" fill-opacity=".1"/><circle cx="113" cy="123" r="3" fill-opacity=".3"/><circle cx="135" cy="145" r="3" fill-opacity=".1"/><circle cx="157" cy="145" r="3" fill-opacity=".1"/><circle cx="179" cy="145" r="3" fill-opacity=".1"/><circle cx="201" cy="145" r="3" fill-opacity=".1"/><circle cx="223" cy="145" r="3" fill-opacity=".1"/><circle cx="245" cy="145" r="3" fill-opacity=".1"/><circle cx="267" cy="145" r="3" fill-opacity=".1"/><circle cx="289" cy="145" r="3" fill-opacity=".1"/><circle cx="113" cy="145" r="3" fill-opacity=".1"/><circle cx="91" cy="90" r="3" fill-opacity=".3"/><circle cx="91" cy="57" r="3" fill-opacity=".1"/><circle cx="80" cy="79" r="3" fill-opacity=".2"/><circle cx="91" cy="112" r="3" fill-opacity=".3"/><circle cx="80" cy="112" r="3" fill-opacity=".2"/><circle cx="80" cy="134" r="3" fill-opacity=".2"/><circle cx="91" cy="101" r="3" fill-opacity=".3"/><circle cx="80" cy="101" r="3" fill-opacity=".2"/><circle cx="91" cy="123" r="3" fill-opacity=".3"/><circle cx="91" cy="145" r="3" fill-opacity=".1"/><circle cx="69" cy="79" r="3" fill-opacity=".1"/><circle cx="69" cy="57" r="3" fill-opacity=".1"/><circle cx="69" cy="101" r="3" fill-opacity=".1"/><circle cx="69" cy="123" r="3" fill-opacity=".1"/><circle cx="69" cy="145" r="3" fill-opacity=".1"/></g><circle cx="172.5" cy="168.5" r="165.5" stroke="#FFC01E" stroke-opacity=".2" stroke-width="2"/><circle cx="172.5" cy="168.5" r="118.5" stroke="#AA7D0B" stroke-opacity=".2" stroke-width="2"/><path d="M304.199 178.641c-10.723-15.599-35.826-18.687-49.961-6.013-.325-12.674-8.693-24.86-20.472-29.572-11.78-4.713-26.24-1.788-35.257 7.149 2.031-7.068-5.443-14.055-12.836-14.461-7.393-.407-14.217 3.574-20.553 7.393-6.337 3.818-13.161 7.718-20.553 7.231-7.962-.569-14.623-6.094-22.097-9.019-18.279-7.068-41.35 5.444-45.412 24.617-20.228-8.124-46.143 5.2-51.261 26.405l295.95 3.493c-2.031-8.449-9.18-15.436-17.548-17.223z" fill="#F5F5F5"/><path d="M339.701 121.282c.568-4.306-5.443-7.8-9.993-8.125-2.193-.162-4.386.163-6.417-.569-4.468-1.543-6.174-7.311-10.561-9.099-3.25-1.381-6.987-.162-10.074 1.463-3.168 1.543-6.255 3.574-9.748 3.818-3.087.163-6.337-.975-9.018.569-1.949 1.137-3.006 3.412-4.874 4.712-1.787 1.3-4.143 1.625-6.337 1.706-2.193.081-4.549.163-6.58 1.056-2.031.894-3.737 3.087-3.249 5.281l76.851-.812zM331.415 48c.406-3.006-3.818-5.524-6.986-5.768-1.544-.163-3.088.081-4.55-.406-3.087-1.057-4.387-5.119-7.392-6.419-2.275-.975-4.875-.081-7.149.975-2.194 1.138-4.387 2.519-6.824 2.681-2.113.163-4.468-.65-6.337.406-1.381.813-2.112 2.357-3.412 3.331-1.3.894-2.924 1.138-4.468 1.22-1.544.08-3.168.08-4.631.73-1.462.65-2.599 2.194-2.274 3.738L331.415 48zM46.84 119.821c.324-2.275-2.844-4.063-5.2-4.306-1.137-.082-2.275.081-3.412-.325-2.356-.813-3.25-3.819-5.524-4.794-1.706-.731-3.656-.081-5.28.732-1.625.812-3.25 1.868-5.119 1.949-1.624.082-3.33-.487-4.712.325-1.056.569-1.624 1.788-2.518 2.519-.975.731-2.193.812-3.33.894-1.138.081-2.357.081-3.413.568-1.056.488-1.95 1.625-1.706 2.763l40.213-.325zm83.512-34.368c.65-4.712-6.011-8.612-11.048-9.018-2.356-.162-4.874.163-7.149-.65-4.874-1.706-6.905-8.043-11.698-10.074-3.575-1.544-7.718-.162-11.211 1.544-3.493 1.787-6.905 3.98-10.805 4.224-3.412.244-7.067-1.056-9.992.65-2.194 1.219-3.33 3.737-5.362 5.281-1.868 1.463-4.468 1.788-6.905 1.869-2.437.162-5.037.162-7.23 1.219-2.275 1.056-4.062 3.412-3.656 5.85l85.056-.895z" fill="#E4F0FA"/><path d="M313.411 353.142H26.966c-6.499 0-11.86-5.281-11.86-11.862V159.862c0-6.5 5.28-11.862 11.86-11.862h286.445c6.499 0 11.861 5.281 11.861 11.862V341.28c-.081 6.581-5.362 11.862-11.861 11.862z" fill="#4C649E"/><path d="M324.783 357.853H17.135C9.337 357.853 3 351.516 3 343.717v-3.819h336v3.819c0 7.799-6.337 14.136-14.217 14.136zm-8.691-201.648H23.472v173.213h292.62V156.205z" fill="#4C649E"/><path d="M139.562 337.949l4.225 6.662h58.654l3.899-6.662h-66.778z" fill="#4C649E"/><path d="M307.808 328.849H32.005c-1.462 0-2.68-1.218-2.68-2.681V164.736c0-1.463 1.218-2.681 2.68-2.681h275.803c1.462 0 2.681 1.218 2.681 2.681v161.432c-.082 1.463-1.219 2.681-2.681 2.681z" fill="#EBEBEB"/><path d="M310.164 329.093H29l.325-154.527h280.839v154.527z" fill="#FAFAFA"/><path d="M50.122 170.747a2.275 2.275 0 1 0 0-4.55 2.275 2.275 0 0 0 0 4.55zm-13.566 0a2.275 2.275 0 1 0-.001-4.55 2.275 2.275 0 0 0 0 4.55zm6.5.002a2.275 2.275 0 1 0-.001-4.55 2.275 2.275 0 0 0 0 4.55z" fill="#4C649E"/><path d="M257.533 216.351H177.24a3.028 3.028 0 0 1-3.041-3.04v-8.784a3.029 3.029 0 0 1 3.041-3.041h80.293a3.028 3.028 0 0 1 3.041 3.041v8.727c0 1.69-1.351 3.097-3.041 3.097z" fill="#E9EDF2"/><path d="M181.882 214.321c-.316 0-.607-.141-.815-.382l-4.598-5.568a1.045 1.045 0 0 1 .142-1.479 1.046 1.046 0 0 1 1.48.141l3.65 4.413 6.602-11.078a1.054 1.054 0 1 1 1.812 1.08l-7.366 12.358c-.175.29-.483.482-.824.507-.024 0-.058.008-.083.008z" fill="#FFB800"/><path d="M260.561 245.856H80.154a3.028 3.028 0 0 1-3.04-3.041v-8.728a3.028 3.028 0 0 1 3.04-3.04H260.56a3.028 3.028 0 0 1 3.041 3.04v8.728a3.029 3.029 0 0 1-3.041 3.041zm-96.905-29.505H80.041a3.028 3.028 0 0 1-3.041-3.04v-8.784a3.028 3.028 0 0 1 3.04-3.041h83.616a3.028 3.028 0 0 1 3.041 3.041v8.727c0 1.69-1.351 3.097-3.041 3.097z" fill="#E9EDF2"/><path d="M84.91 214.321c-.316 0-.607-.141-.815-.382l-4.598-5.568a1.044 1.044 0 0 1 .141-1.479 1.046 1.046 0 0 1 1.48.141l3.65 4.413 6.602-11.078a1.055 1.055 0 1 1 1.813 1.08l-7.367 12.358c-.175.29-.482.482-.823.507-.025.008-.058.008-.083.008zm0 28.717c-.316 0-.607-.142-.815-.383l-4.598-5.567a1.046 1.046 0 0 1 .141-1.48 1.046 1.046 0 0 1 1.48.142l3.65 4.412 6.602-11.077a1.056 1.056 0 0 1 1.813 1.08l-7.367 12.357a1.052 1.052 0 0 1-.823.507c-.025 0-.058.009-.083.009z" fill="#FFB800"/><path d="M322.592 337.95c0 .081-68.809.162-153.702.162-84.894 0-153.702-.081-153.702-.162 0-.082 68.808-.163 153.702-.163 84.812 0 153.702.081 153.702.163z" fill="#4C649E"/><path d="M163.951 130.084c-6.241 2.918-9.078 11.51-5.835 17.59 1.296 2.432 3.404 4.539 3.647 7.214.405 4.134-3.485 7.376-4.701 11.348-1.459 4.702 1.702 10.214 6.403 11.43 2.107.567 4.701.486 6.079 2.107 1.783 2.108.486 5.674 2.026 8.025 1.378 2.108 4.701 2.189 6.809.811 2.107-1.378 3.242-3.81 4.133-6.242.892-2.432 1.459-4.944 2.918-6.971 1.621-2.27 3.972-3.891 5.917-5.917 4.62-4.864 6.079-12.159 5.025-18.806-1.053-6.647-4.295-12.726-7.862-18.4" fill="#FFC01E"/><path opacity=".3" d="M163.951 130.084c-6.241 2.918-9.078 11.51-5.835 17.59 1.296 2.432 3.404 4.539 3.647 7.214.405 4.134-3.485 7.376-4.701 11.348-1.459 4.702 1.702 10.214 6.403 11.43 2.107.567 4.701.486 6.079 2.107 1.783 2.108.486 5.674 2.026 8.025 1.378 2.108 4.701 2.189 6.809.811 2.107-1.378 3.242-3.81 4.133-6.242.892-2.432 1.459-4.944 2.918-6.971 1.621-2.27 3.972-3.891 5.917-5.917 4.62-4.864 6.079-12.159 5.025-18.806-1.053-6.647-4.295-12.726-7.862-18.4" fill="#fff"/><path d="M169.401 133.568c-5.268 2.351-7.619 9.646-4.62 14.591 1.783 2.999 5.35 5.755 4.539 9.16-.567 2.35-3.08 3.728-3.809 5.998-.973 2.999 1.945 6.242 5.106 6.647 3.161.405 6.241-1.297 8.592-3.405 8.267-7.295 10.293-21.561 5.106-31.288m12.317-48.066s27.071 17.914 24.154 48.96l-24.884-11.186.73-37.774z" fill="#FFC01E"/><path d="M151.555 124.33l6.16 10.214h31.934l6.16-9.647-44.254-.567z" fill="#263238"/><path d="M172.073 21.383c-12.644.81-22.37 11.43-22.127 24.156l1.621 79.438h44.255l1.459-79.438c.324-13.942-11.348-25.129-25.208-24.156z" fill="#FFC01E"/><path opacity=".8" d="M172.073 21.383c-12.644.81-22.37 11.43-22.127 24.156l1.621 79.438h44.255l1.459-79.438c.324-13.942-11.348-25.129-25.208-24.156z" fill="#fff"/><path d="M150.831 87.203s-27.072 17.914-24.154 48.96l24.883-11.186-.729-37.774zm-.634-44.338c9.321-8.187 38.743-8.025 46.606-1.378C194.776 11.98 172.244.957 172.244.957c-23.019 15.969-22.047 41.908-22.047 41.908z" fill="#FFC01E"/><path d="M172.324.957l.243.243.73.73c.324.324.729.73 1.216 1.135.243.243.486.486.81.73.243.242.568.567.811.89a42.226 42.226 0 0 0 1.945 2.108c.648.81 1.378 1.703 2.188 2.675.406.487.73 1.054 1.135 1.54.405.568.811 1.054 1.135 1.703.729 1.216 1.54 2.431 2.188 3.89a42.049 42.049 0 0 1 3.648 9.484c.486 1.784.81 3.648 1.053 5.593.162.973.244 1.946.325 2.919.081.972.081 2.026.081 3.08 0 8.268-.081 17.265-.244 26.75-.243 18.967-.486 36.233-.729 48.635-.081 6.241-.162 11.267-.243 14.753 0 1.702-.081 3.08-.081 3.971v-3.971c.081-3.486.081-8.512.162-14.753.162-12.483.405-29.668.648-48.636.081-9.484.243-18.562.243-26.75 0-1.053 0-2.026-.081-2.998-.162-.973-.243-1.946-.324-2.918-.243-1.946-.567-3.81-1.053-5.594a42.046 42.046 0 0 0-3.648-9.483c-.648-1.378-1.459-2.675-2.188-3.81-.325-.568-.811-1.135-1.135-1.702-.405-.568-.73-1.054-1.135-1.54-.729-.973-1.459-1.865-2.107-2.676-.73-.81-1.378-1.54-1.945-2.188-.325-.324-.568-.649-.811-.892-.243-.243-.567-.486-.81-.73l-1.216-1.215-.73-.73c0-.08-.081-.243-.081-.243z" fill="#263238"/><path d="M182.634 62.977c1.39-6.295-2.232-12.447-8.089-13.74-5.858-1.294-11.733 2.761-13.122 9.056-1.39 6.295 2.232 12.447 8.089 13.74 5.858 1.294 11.733-2.761 13.122-9.056z" fill="#FAFAFA"/><path d="M174.583 49.188h-.162c-.163 0-.325-.082-.568-.082-.081 0-.243 0-.405-.08h-1.702c-.486 0-.973.08-1.459.161-.486.163-1.135.244-1.702.487-1.135.486-2.432 1.216-3.567 2.27-1.134 1.053-2.188 2.512-2.917 4.296-.163.405-.325.891-.487 1.378-.081.243-.162.486-.162.73-.081.242-.081.486-.162.729l-.081.405v.405c0 .243 0 .487-.081.73v1.216l.081.405a10.793 10.793 0 0 0 2.432 5.998c1.377 1.784 3.485 3.162 5.835 3.73 2.351.486 4.864.161 6.89-.892a11.896 11.896 0 0 0 4.701-4.459l.243-.324.162-.324c.081-.243.243-.487.324-.73l.244-.73.162-.324.081-.324c.081-.243.162-.486.162-.73.081-.242.081-.486.162-.729.081-.486.162-.973.162-1.378.162-1.864-.243-3.648-.811-5.107-.567-1.459-1.458-2.675-2.269-3.566-.405-.486-.892-.81-1.297-1.216-.486-.324-.81-.568-1.216-.81-.162-.082-.405-.244-.567-.325l-.486-.243c-.162-.081-.325-.162-.406-.162-.162-.081-.243-.081-.405-.081-.243-.081-.405-.081-.486-.162-.243-.163-.324-.163-.243-.163h.162c.162 0 .324.082.486.163.081 0 .243.08.405.08.162.082.325.082.487.163.162.08.324.162.486.162.162.081.405.162.567.324.406.162.811.486 1.297.81.405.325.892.73 1.378 1.136a10.142 10.142 0 0 1 2.351 3.647c.567 1.46.972 3.243.891 5.188 0 .486-.081.973-.162 1.46-.081.242-.081.486-.162.729s-.162.486-.162.73l-.081.404-.162.325-.243.73c-.081.242-.244.486-.325.729l-.162.324-.243.324a11.277 11.277 0 0 1-4.782 4.54c-2.026 1.134-4.62 1.459-7.052.972a10.711 10.711 0 0 1-5.997-3.81c-1.459-1.864-2.27-4.052-2.432-6.16l-.081-.405v-1.216c0-.243 0-.487.081-.81v-.406l.081-.405c.081-.244.081-.487.162-.73s.162-.486.162-.73c.081-.486.324-.891.487-1.377.729-1.784 1.783-3.243 2.998-4.297 1.216-1.134 2.432-1.864 3.648-2.27a7.822 7.822 0 0 1 1.702-.486c.567-.08 1.054-.162 1.459-.162h1.702c.162 0 .243.081.405.081.243.081.406.081.568.081 0 .163.081.163.081.163zm-13.781 9.646c0 .162-2.512.081-5.511.648-2.999.487-5.35 1.46-5.35 1.297 0-.08.568-.324 1.459-.73.973-.323 2.27-.81 3.81-1.053a25.898 25.898 0 0 1 3.971-.324c1.054 0 1.621.162 1.621.162zm35.823-.001c0 .08-.73 0-2.027-.163-1.215-.162-2.918-.324-4.782-.486-1.864-.162-3.566-.162-4.782-.162-1.216 0-2.026 0-2.026-.081s.729-.162 2.026-.243c1.216-.081 2.918-.081 4.863.08 1.864.163 3.567.406 4.782.65 1.216.161 1.946.324 1.946.405zm.245 45.475h-.486c-.325 0-.811-.081-1.378-.081-1.216-.081-2.918-.244-4.944-.406-4.134-.324-9.889-.567-16.211-.567-6.322 0-12.077.324-16.211.567-2.026.162-3.728.325-4.944.406-.567.081-.972.081-1.378.081h-.486s.162-.081.486-.081c.325-.081.811-.081 1.297-.162 1.135-.163 2.837-.325 4.944-.568 4.134-.405 9.889-.729 16.292-.729 6.403 0 12.158.324 16.292.729 2.107.162 3.728.405 4.944.486.567.082.972.163 1.297.163.324.081.486.162.486.162zm-34.849-34.045c0 .081-.244.081-.487.406-.081.162-.162.405-.081.567.081.162.243.324.487.324.243 0 .486-.08.567-.243a.693.693 0 0 0 0-.567c-.162-.324-.405-.406-.405-.487 0-.08.405-.08.648.325.162.243.243.567.081.891-.162.325-.567.568-.973.568-.405 0-.81-.325-.891-.649-.081-.405.081-.648.243-.891.405-.406.811-.325.811-.244zm9.632 5.188c0 .081-.243.081-.486.405-.081.162-.162.406-.081.568.081.162.243.324.486.324s.487-.081.568-.243a.693.693 0 0 0 0-.568c-.162-.324-.406-.405-.406-.486 0-.081.406-.081.649.324.162.243.243.568.081.892-.162.324-.567.567-.973.567-.405 0-.81-.324-.891-.648-.081-.406.081-.649.243-.892.405-.405.81-.324.81-.243zm10.629-4.458c0 .082-.243.082-.486.406-.081.162-.162.405-.081.567.081.162.243.325.486.325s.487-.082.568-.244a.693.693 0 0 0 0-.567c-.163-.324-.406-.405-.406-.487 0-.08.406-.08.649.325.162.243.243.567.081.891-.162.325-.568.568-.973.568s-.81-.324-.891-.649c-.081-.405.081-.648.243-.891.486-.406.891-.243.81-.243zm3.492-7.944c0 .08-.243.08-.486.405-.081.162-.162.405-.081.567.081.162.243.325.486.325.244 0 .487-.082.568-.244a.693.693 0 0 0 0-.567c-.162-.324-.405-.405-.405-.486 0-.081.405-.081.648.324.162.243.243.567.081.892-.162.324-.567.567-.973.567-.405 0-.81-.324-.891-.649-.081-.405.081-.648.243-.891.405-.406.81-.325.81-.243zm-27.324-.73c0 .08-.243.08-.486.405-.081.162-.162.406-.081.568.081.162.243.324.486.324s.487-.081.568-.243a.693.693 0 0 0 0-.568c-.163-.324-.406-.405-.406-.486 0-.081.406-.081.649.324.162.243.243.568.081.892-.162.324-.568.567-.973.567s-.81-.324-.891-.648c-.081-.406.081-.649.243-.892.486-.486.891-.324.81-.243zm23.84-10.944c0-.081.243-.081.486-.405.081-.162.162-.405.081-.568-.081-.162-.243-.324-.486-.324-.244 0-.487.081-.568.243a.693.693 0 0 0 0 .568c.162.324.405.405.405.486 0 .081-.405.081-.648-.324-.162-.243-.243-.568-.081-.892.162-.324.567-.567.973-.567.405 0 .81.324.891.648.081.406-.081.649-.243.892-.486.405-.81.324-.81.243zm-10.622-4.701c0-.081.244-.081.487-.405.081-.163.162-.406.081-.568-.081-.162-.243-.324-.487-.324-.243 0-.486.081-.567.243a.693.693 0 0 0 0 .568c.162.324.405.405.405.486 0 .081-.405.081-.648-.324-.162-.244-.243-.568-.081-.892.162-.324.567-.567.973-.567.405 0 .81.324.891.648.081.405-.081.649-.243.892-.486.405-.892.243-.811.243zm-10.543 4.701c0-.081.244-.081.487-.405.081-.162.162-.405.081-.568-.081-.162-.243-.324-.486-.324-.244 0-.487.081-.568.243a.693.693 0 0 0 0 .568c.162.324.405.405.405.486 0 .081-.405.081-.648-.324-.162-.243-.243-.568-.081-.892.162-.324.567-.567.973-.567.405 0 .81.324.891.648.081.406-.081.649-.243.892-.486.405-.892.324-.811.243z" fill="#263238"/><path d="M170.281 90.446l.973 47.419c0 1.378 1.135 2.432 2.513 2.432 1.377 0 2.431-1.135 2.431-2.432.081-8.511.405-37.287.486-47.5 0-1.946-1.702-3.486-3.647-3.161-1.621.243-2.756 1.62-2.756 3.242z" fill="#FFC01E"/><path opacity=".3" d="M170.281 90.446l.973 47.419c0 1.378 1.135 2.432 2.513 2.432 1.377 0 2.431-1.135 2.431-2.432.081-8.511.405-37.287.486-47.5 0-1.946-1.702-3.486-3.647-3.161-1.621.243-2.756 1.62-2.756 3.242z" fill="#000"/><path d="M171.745 3.713c.162.162-1.459 1.702-3.729 4.377-1.135 1.297-2.431 3-3.809 4.864-1.297 1.945-2.675 4.052-3.972 6.403-1.297 2.35-2.269 4.702-3.161 6.81-.811 2.188-1.459 4.133-1.945 5.835-.973 3.405-1.378 5.512-1.621 5.512-.162 0-.081-2.27.648-5.755.324-1.783.973-3.81 1.702-6.08a57.832 57.832 0 0 1 3.161-7.051c1.297-2.432 2.756-4.62 4.134-6.485 1.459-1.864 2.837-3.486 4.053-4.783 2.593-2.512 4.457-3.81 4.539-3.647zm-21.959 88.192c.162.162-2.108 1.621-5.269 4.54-.405.405-.81.729-1.216 1.134-.405.405-.81.892-1.215 1.297-.892.892-1.703 1.945-2.594 2.999-1.702 2.189-3.485 4.783-5.025 7.62-1.459 2.837-2.675 5.755-3.486 8.43-.405 1.378-.81 2.594-1.053 3.891-.162.648-.325 1.216-.406 1.783-.081.567-.162 1.135-.243 1.621-.648 4.215-.567 6.89-.81 6.89-.081 0-.162-.648-.243-1.864 0-.324 0-.649-.081-.973v-1.216c0-.891 0-1.864.162-2.918.081-.567.162-1.135.162-1.702.081-.567.243-1.216.324-1.864.162-1.297.567-2.594.892-3.972.81-2.756 1.945-5.756 3.485-8.674 1.54-2.918 3.404-5.593 5.187-7.781.973-1.054 1.864-2.108 2.756-3 .486-.405.892-.891 1.297-1.296.486-.406.891-.73 1.297-1.135.81-.73 1.621-1.297 2.35-1.784l.973-.73c.324-.161.567-.323.891-.485 1.216-.568 1.784-.892 1.865-.811z" fill="#fff"/><path d="M192.6 300.3h-46.2c-3 0-5.4-2.4-5.4-5.4v-15.5c0-3 2.4-5.4 5.4-5.4h46.2c3 0 5.4 2.4 5.4 5.4v15.5c0 3-2.4 5.4-5.4 5.4z" fill="#52D1BC"/><path d="M300.613 377.594l10.069 3.498-.085 9.728c-4.864 1.365-5.547 3.84-5.547 3.84l10.07-.256 8.789-17.834-6.912-4.523-12.97-5.717" fill="#5793DB"/><path opacity=".6" d="M323.999 376.484l-8.789 17.919-10.069.171 1.109-1.536 8.192-.598 8.021-16.895 1.536.939z" fill="#fff"/><path d="M310.607 386.384c.085.085.682-.256 1.45-.256.768 0 1.366.341 1.451.256.085-.086-.512-.683-1.451-.683-1.024 0-1.536.597-1.45.683zm.085-2.39c.085.086.512-.512 1.365-.682.768-.171 1.451.17 1.536.085 0-.085-.085-.171-.341-.341-.256-.171-.768-.256-1.28-.171-.512.085-.853.427-1.024.683-.256.17-.341.341-.256.426zm-.176-3.158c.085.085.426-.512 1.109-.768s1.365-.085 1.365-.171c0-.085-.085-.17-.426-.255a1.855 1.855 0 0 0-1.195 0c-.427.17-.768.511-.853.767v.427zm-.681.001c.085 0 .085-.682.341-1.365.256-.683.768-1.109.768-1.195 0-.085-.768.171-1.109 1.024-.427.854-.171 1.622 0 1.536zm-1.188-1.111c.085 0 .17-.512.256-1.365.085-.512.085-.939.17-1.451 0-.256.086-.597 0-.938a1.77 1.77 0 0 0-.341-.512c-.171-.171-.512-.085-.683 0-.341.256-.426.597-.597.853-.085.341-.171.597-.171.939 0 .597.086 1.109.256 1.536.342.853.854 1.109.854 1.109.085-.085-.342-.427-.598-1.195a5.954 5.954 0 0 1-.17-1.365c0-.256.085-.512.17-.768.086-.256.256-.597.427-.682.085-.086.171-.086.171 0 .085.085.17.17.17.256.086.256 0 .511 0 .767v1.451c0 .853 0 1.365.086 1.365zm-.171.428s-.256-.427-1.024-.683c-.768-.256-2.048-.17-2.901 1.024 0 .086 0 .256.085.427l.256.256c.171.085.341.085.512.085h.853c.512-.085.939-.17 1.366-.341.597-.427.938-.768.853-.768 0-.085-.341.171-1.109.341-.342.086-.768.171-1.28.256h-.768c-.171 0-.256 0-.342-.085-.085-.085-.085 0-.085-.085 0-.086.085-.171.171-.256l.256-.256c.17-.171.426-.256.682-.342.427-.17.854-.17 1.195-.085.853.256 1.195.597 1.28.512z" fill="#233561"/><path opacity=".6" d="M317.07 377.594a1.195 1.195 0 1 0-.001-2.39 1.195 1.195 0 0 0 .001 2.39z" fill="#fff"/><path d="M248.913 373.498l.17 13.226s-13.397 4.608-13.567 6.997l25.599.683.597-20.565-12.799-.341z" fill="#5793DB"/><path opacity=".6" d="M257.01 385.786c.512.171.853.683.682 1.195-.085.512-.682.853-1.194.683-.512-.171-.939-.768-.768-1.28.17-.512.853-.854 1.365-.598m3.923 8.617v-2.048l-24.575.171s-1.195.427-1.024 1.28l25.599.597z" fill="#fff"/><path d="M248.655 386.554c0 .085.597.171 1.195.597.597.427.938.939 1.024.939.085 0-.086-.768-.768-1.28-.768-.427-1.536-.341-1.451-.256zm-2.737 1.11c0 .085.512.341.939.853.426.512.512 1.109.682 1.109.086 0 .256-.682-.341-1.365-.597-.683-1.28-.768-1.28-.597zm-1.595 3.155c.085 0 .341-.597 0-1.28s-.853-.939-.939-.853c-.085.085.256.512.512 1.024.256.597.256 1.109.427 1.109zm4.584-7.252c.085.085.597-.086 1.365 0 .682.085 1.28.341 1.28.17.085-.085-.427-.597-1.28-.597-.853-.085-1.451.341-1.365.427z" fill="#233561"/><path opacity=".3" d="M248.91 376.143v2.304l12.629.256.085-2.134-12.714-.426z" fill="#1F3A6F"/><path d="M248.906 380.922c0 .085.512.17 1.28 0 .427-.086.854-.171 1.366-.342.255-.085.511-.256.767-.341.086-.085.256-.171.427-.256.171-.085.256-.427.085-.683-.085-.17-.341-.256-.512-.341-.17 0-.341 0-.512.085-.255.086-.597.171-.767.256-.512.171-.939.512-1.195.768-.597.512-.853 1.024-.768 1.024.085.086.341-.341.939-.768.341-.256.682-.426 1.194-.597.256-.085.512-.171.768-.171.256-.085.512-.085.597.086v.17c-.085.086-.17.171-.256.171a2.53 2.53 0 0 1-.682.341c-.427.171-.853.342-1.28.427-.939.085-1.451.085-1.451.171z" fill="#233561"/><path d="M249.084 381.092c.085 0 .341-.427.341-1.195 0-.426 0-.853-.171-1.45-.085-.256-.17-.512-.341-.768s-.341-.598-.768-.683c-.256 0-.427.171-.512.341-.085.171-.085.342-.171.427a1.459 1.459 0 0 0 0 .853c.086.512.256 1.024.512 1.366.512.682 1.024.853 1.024.768.086-.086-.426-.342-.768-.939-.17-.341-.341-.768-.341-1.195v-.768c.085-.256.171-.512.256-.426.085 0 .341.17.427.426.085.256.256.512.341.683.171.427.171.939.256 1.28 0 .768-.171 1.28-.085 1.28zm59.385-14.335l-29.524-10.923 31.06-4.352 1.536-15.103-58.025 5.034-8.192 11.776 2.133 14.848 56.575 14.335 4.437-15.615z" fill="#233561"/><path d="M245.914 377.338l-2.816-54.015c.17-5.29 2.986-10.069 7.594-12.714 3.755-2.219 8.277-2.645 12.458-1.28l37.631 12.544 20.65 5.29s3.499 8.704 1.451 15.445c-2.048 6.571-9.301 11.008-15.616 9.13-7.935-2.304-44.201-17.919-44.201-17.919v43.945l-17.151-.426z" fill="#233561"/><path d="M306.583 351.909s-.086 0-.256-.086a2.95 2.95 0 0 0-.683-.256c-.597-.256-1.451-.597-2.475-1.024-2.133-.853-5.205-2.133-9.045-3.669-7.679-3.157-18.175-7.509-29.78-12.288-.512-.256-1.024-.426-1.536-.597l.256-.171c0 12.203 0 23.21-.085 31.146 0 3.925 0 7.168-.086 9.387 0-2.219 0-5.462-.085-9.387 0-7.936 0-18.943-.085-31.146v-.256l.256.086c.512.17 1.024.426 1.536.597 11.605 4.864 22.1 9.216 29.78 12.373 3.755 1.621 6.827 2.901 9.045 3.755 1.024.426 1.877.768 2.475 1.024.256.085.512.17.597.256l.171.256z" fill="#455A64"/><path d="M271.863 351.995c0-.085 1.878.256 3.84 1.365 2.048 1.109 3.243 2.475 3.243 2.56-.086.085-1.451-1.195-3.413-2.218-1.963-1.11-3.67-1.622-3.67-1.707zm-12.189-25.515c.085-.086 1.024 1.536 1.962 3.669.939 2.133 1.451 3.925 1.366 3.925-.086 0-.768-1.706-1.707-3.754-.853-2.134-1.706-3.755-1.621-3.84z" fill="#455A64"/><path d="M259.747 302.673l-6.656-1.194-6.997 7.082 1.365 4.608 8.106-2.987 4.182-7.509zm-61.437-16.212l7.595-1.707 12.202 1.877-.512 7.765s-3.755.512-5.12.086c-1.365-.427-2.474-.086-2.474-.086s.767 1.536-.512 1.792c-1.28.256-3.328.768-3.755-1.024 0 0-.939.171-1.451-1.024 0 0-1.024.342-1.45-1.365-.427-1.707-.171-4.352 3.242-5.12.171 0 .256-.426-.085-.426l-5.461 1.023s-3.584.086-2.219-1.791z" fill="#FFBE9D"/><path d="M204.722 291.836c0-.085.512-.171 1.28-.256.427 0 .854-.171 1.451-.085.256 0 .597.085.853.426.256.256.256.683.086 1.024-.342.683-1.024.854-1.536.939-.598.171-1.024.256-1.451.256-.768.085-1.28.085-1.28 0s.512-.085 1.28-.256c.427-.085.853-.171 1.365-.341l.768-.256c.256-.086.427-.342.598-.512.085-.256.085-.512 0-.683-.171-.171-.427-.256-.598-.341-.512 0-1.024.085-1.365.085-.939.085-1.451.085-1.451 0z" fill="#EB996E"/><path d="M205.993 290.216c0 .085-.341.256-.682.768-.342.426-.342.938-.427.938-.085 0-.256-.512.171-1.109.426-.597.938-.683.938-.597zm2.138 2.729h.171c.17 0 .255.256.341.427.17.171.256.512.085.853-.085.342-.426.598-.768.683-.597.171-1.194.341-1.621.341-.427.086-.683 0-.683 0 0-.085.256-.085.683-.17.427-.086.939-.256 1.621-.427.342-.085.512-.256.597-.427.086-.256 0-.426-.085-.597-.085-.256-.17-.341-.256-.427-.085-.17-.085-.256-.085-.256z" fill="#EB996E"/><path d="M208.625 294.311s.085-.17.341-.17.598.085.854.256c.341.256.426.597.426.768 0 .256 0 .341-.085.341s-.085-.085-.171-.341c-.085-.171-.17-.427-.341-.598-.256-.17-.512-.256-.683-.256h-.341z" fill="#EB996E"/><path d="M212.402 288.252l-3.413 1.365-3.243 2.304s0 .768 1.792.512 3.243-1.28 3.243-1.28 2.389 1.536 4.522 1.195" fill="#FFBE9D"/><path d="M215.213 292.263s-.085.085-.341.085-.512.085-.939 0c-.853-.085-2.048-.427-3.242-1.109h.17c-1.024.682-2.474 1.279-4.01 1.365-.256 0-.512 0-.683-.086-.256-.085-.512-.255-.512-.597v-.17a75.87 75.87 0 0 1 3.243-2.219c1.024-.427 1.877-.683 2.474-.939.598-.256.939-.341.939-.341s-.341.171-.939.427c-.597.256-1.45.597-2.474 1.024-.939.682-2.048 1.45-3.243 2.304l.086-.171c0 .085.17.256.341.341.171.086.427.086.597.086a7.916 7.916 0 0 0 3.84-1.28l.085-.086.086.086c1.194.682 2.304 1.109 3.157 1.194.939.171 1.365 0 1.365.086zm-7.783-4.181c0 .085-.426.085-.768-.171-.426-.256-.597-.597-.512-.597.086-.086.342.17.683.341.256.171.597.341.597.427z" fill="#EB996E"/><path d="M217.34 296.445l28.927 4.181c2.901.939 5.973.683 8.704-.683l25.77-13.226-7.68-16.981c-1.109.427-2.389.854-2.901 1.195l-21.248 15.274-30.719-1.109-.853 11.349z" fill="#5793DB"/><path d="M320.749 327.079l-1.791-3.157-19.712-4.949 2.304 4.01 19.199 4.096z" fill="#FFBE9D"/><path d="M272.975 269.737c0 .683-2.901 22.101-2.901 26.453s8.363 9.13 8.363 9.13l9.13 19.456h32.596l-11.178-20.906-5.034-16.811c-1.878-6.314-1.707-9.642-6.486-14.25l-9.045-6.229-15.445 3.157z" fill="#5793DB"/><path d="M282.434 286.632l5.461 22.954-27.647-7.765-4.693 8.362 35.924 16.384c4.437 2.048 9.642.597 12.458-3.413 1.707-2.39 2.219-5.461 1.536-8.277l-8.021-31.487a7.64 7.64 0 0 0-9.898-5.376c-3.584 1.194-5.803 4.864-5.12 8.618z" fill="#5793DB"/><path d="M278.947 306.344s-.597-1.109-.853-1.194l-.854-.427c-.768-.427-1.792-1.109-3.071-2.048-1.195-.939-2.646-2.219-3.584-4.011-.854-1.877-.854-4.266-.512-6.57.341-2.304.853-4.523 1.109-6.485.341-1.963.512-3.84.597-5.291.086-1.536.171-2.73.171-3.584v-1.365s0 .085.085.341c0 .256.086.598.086 1.024.085.854.085 2.134 0 3.67a49.065 49.065 0 0 1-.598 5.376c-.256 2.047-.768 4.181-1.024 6.485-.341 2.304-.341 4.608.427 6.399.853 1.792 2.304 2.987 3.413 4.011 1.195.939 2.219 1.621 2.987 2.048.682.256 1.621 1.621 1.621 1.621zm11.018-38.229s-.171.256-.512.598l-1.451 1.45c-1.28 1.195-3.072 2.731-5.12 4.352-2.048 1.621-3.925 3.072-5.376 4.011-.682.512-1.28.853-1.706 1.109-.427.256-.597.427-.683.341 0 0 .171-.17.598-.512a40.056 40.056 0 0 1 1.621-1.194 274.013 274.013 0 0 0 5.29-4.096 150.113 150.113 0 0 0 5.12-4.267c.597-.512 1.109-.938 1.536-1.365.427-.256.683-.427.683-.427z" fill="#233561"/><path d="M282.439 286.631s.085.171.171.427c.085.341.17.767.341 1.279.256 1.11.683 2.816 1.195 4.779 1.024 4.096 2.389 9.813 4.01 16.469l.086.256-.256-.085c-2.219-.598-4.608-1.28-7.083-1.963-8.021-2.304-15.274-4.352-20.565-5.888l.171-.085a419.255 419.255 0 0 1-3.499 6.058 22.34 22.34 0 0 0-.938 1.622c-.086.17-.171.341-.256.426-.086.086-.086.171-.086.171s0-.085.086-.171c.085-.085.17-.256.256-.426.256-.427.512-.939.938-1.707.854-1.451 1.963-3.584 3.414-6.144l.085-.085h.085c5.376 1.45 12.629 3.498 20.565 5.717 2.475.683 4.779 1.365 7.083 1.963l-.171.17c-1.536-6.57-2.901-12.373-3.84-16.469-.427-2.048-.853-3.669-1.109-4.778a17.29 17.29 0 0 0-.256-1.28c-.427-.085-.427-.256-.427-.256zm15.108-1.449s.085.17.171.426c.085.256.17.683.341 1.11.256 1.024.683 2.474 1.109 4.266.939 3.584 2.133 8.533 3.584 13.994.683 2.731 1.365 5.376 1.877 7.766.512 2.389.768 4.607.512 6.485-.256 1.877-.938 3.242-1.536 4.096-.597.853-1.109 1.194-1.109 1.194s.427-.426 1.024-1.28c.597-.853 1.195-2.218 1.451-4.096.256-1.792 0-4.01-.598-6.399-.597-2.39-1.28-4.95-1.962-7.68a1275.406 1275.406 0 0 1-3.413-13.995c-.427-1.791-.768-3.242-1.024-4.266-.086-.512-.171-.853-.256-1.195-.171-.256-.171-.426-.171-.426z" fill="#233561"/><path opacity=".3" d="M302.588 324.689c4.01.341 6.399-1.963 6.826-5.12.256-1.707-.341-3.499-.939-5.12-2.474-7.253-4.949-14.591-8.959-21.162 1.45 6.571 3.413 12.97 4.863 19.541.512 2.133.683 3.413.598 5.632-.086 2.218-.939 4.608-2.389 6.229z" fill="#1F3A6F"/><path d="M269.384 291.667s-.682-.598-1.621-1.792c-.938-1.195-2.048-2.902-3.072-5.035-.938-2.048-1.536-4.096-1.877-5.546-.341-1.451-.341-2.39-.341-2.39.085 0 .256.939.597 2.304.341 1.451 1.024 3.413 1.963 5.461a31.701 31.701 0 0 0 2.901 5.035c.938 1.195 1.536 1.877 1.45 1.963zm-7.849 4.694c-.085 0-.512-.683-1.28-1.878-.768-1.194-1.707-2.816-2.731-4.693a90.143 90.143 0 0 1-2.474-4.864c-.597-1.28-.939-2.048-.853-2.133.085 0 .512.768 1.109 1.963.768 1.365 1.621 2.986 2.56 4.778 1.024 1.792 1.877 3.413 2.645 4.779.597 1.194 1.024 1.962 1.024 2.048zm-12.299-2.601c.612 3.767 1.222 6.803 1.361 6.78.14-.022-.243-3.095-.856-6.863-.612-3.767-1.221-6.803-1.361-6.78-.139.022.244 3.095.856 6.863zm-8.352 6.184c-.085 0-.17-.768-.256-1.962-.085-1.195-.085-2.901-.085-4.693.085-1.878.171-3.499.256-4.694.171-1.194.256-1.962.341-1.962.086 0 .086.768 0 1.962-.085 1.195-.085 2.902-.17 4.694-.086 1.877-.086 3.498-.086 4.693.086 1.194.086 1.962 0 1.962zm-9.637-14.165c.085 0 .171.683.256 1.792.085 1.11.171 2.646.085 4.437 0 1.707-.17 3.243-.256 4.438-.085 1.109-.256 1.792-.341 1.792-.171 0 .085-2.816.171-6.23 0-3.413-.086-6.229.085-6.229zm-8.2 6.223c.258-2.863.353-5.194.212-5.207-.14-.013-.464 2.298-.722 5.161-.258 2.864-.353 5.195-.212 5.208.141.012.464-2.299.722-5.162zm48.218-13.049c-.086 0-.683-1.365-1.536-2.987-.854-1.621-1.707-2.816-1.622-2.901.086-.085 1.11 1.024 2.048 2.731.854 1.621 1.195 3.072 1.11 3.157zm15.017 23.208s-.256.086-.682.086h-1.792c-1.536-.086-3.669-.512-5.888-1.28-2.219-.854-4.096-1.963-5.291-2.902a12.006 12.006 0 0 1-1.45-1.194c-.341-.342-.512-.512-.427-.512.086-.086.768.597 2.048 1.45a27.163 27.163 0 0 0 5.291 2.731c2.218.853 4.266 1.195 5.802 1.451 1.451.085 2.389.085 2.389.17zm-3.075-10.921c0 .085-.682 0-1.792-.171-1.109-.17-2.56-.597-4.181-1.109s-2.987-1.195-4.011-1.706c-.938-.512-1.535-.854-1.535-.939.085-.085 2.474 1.109 5.631 2.218 3.243 1.11 5.888 1.622 5.888 1.707zm-1.868-7.851c0 .085-2.133.256-4.522-.683-2.39-.938-3.84-2.56-3.755-2.56.085-.085 1.621 1.28 3.925 2.219 2.304.853 4.438.939 4.352 1.024zm12.806-5.546c0 .086-.682-.426-1.962-.682-1.195-.342-2.987-.512-4.779.17-1.792.683-3.072 1.963-3.754 2.987-.683 1.024-.939 1.792-.939 1.792s.085-.854.683-1.963c.597-1.109 1.962-2.56 3.839-3.242 1.878-.683 3.84-.512 5.035-.086 1.28.427 1.877 1.024 1.877 1.024zm1.527 10.497c0 .085-.512.427-1.45.768-.939.427-2.304.853-3.84 1.195-1.536.341-2.987.426-4.011.341-1.024 0-1.621-.171-1.621-.171 0-.17 2.56 0 5.547-.597 2.986-.597 5.29-1.707 5.375-1.536zm-1.674 13.998c3.33-.325 6.019-.703 6.005-.843-.014-.141-2.725.008-6.055.333-3.33.325-6.019.702-6.005.843.014.141 2.724-.009 6.055-.333zm9.861 17.316s-.256 0-.683-.171c-.427-.085-1.024-.341-1.792-.597-1.451-.597-3.499-1.536-5.461-2.901a52.05 52.05 0 0 1-4.949-3.755c-1.195-1.024-1.963-1.706-1.878-1.706 0-.086.854.512 2.134 1.45 1.28.939 2.986 2.304 5.034 3.584 2.048 1.366 3.925 2.389 5.376 2.987 1.28.768 2.219 1.109 2.219 1.109zm-20.641 2.817c-.086 0-.171-.768-.171-1.963 0-1.194.171-2.901.597-4.607.427-1.792 1.024-3.328 1.621-4.438.512-1.109.939-1.706 1.024-1.621.171.085-1.365 2.645-2.133 6.144-.938 3.498-.853 6.485-.938 6.485zm-10.416-5.547c-.085 0-.341-2.389.512-5.291.854-2.816 2.475-4.778 2.475-4.693.085.086-1.28 2.048-2.048 4.779-.853 2.816-.853 5.205-.939 5.205zm-5.79-13.653c.085.086-1.792 1.792-3.157 4.608-1.451 2.731-1.707 5.291-1.792 5.291-.086 0-.086-.683.17-1.621.171-1.024.598-2.39 1.28-3.84.683-1.451 1.622-2.56 2.304-3.328.598-.768 1.11-1.11 1.195-1.11zm38.301-11.945c.086.085-.853 1.194-2.389 1.792-1.621.597-2.986.512-2.986.341 0-.171 1.365-.171 2.815-.768 1.451-.512 2.475-1.451 2.56-1.365zm-3.927-11.948c.086.086-.426 1.195-1.621 2.134-1.195.938-2.389 1.28-2.389 1.109-.086-.085 1.024-.597 2.133-1.451 1.109-.938 1.792-1.877 1.877-1.792zm-13.907-8.02c.086-.085 1.024.683 1.707 1.963.682 1.28.853 2.474.682 2.474-.085 0-.426-1.109-1.109-2.304-.597-1.194-1.365-1.962-1.28-2.133zm20.743 31.23c.086.086-1.024.854-2.645 1.28-1.621.427-2.901.256-2.901.171 0-.171 1.28-.171 2.816-.597 1.45-.342 2.645-.939 2.73-.854zm1.287 11.173c2.582-.218 4.666-.51 4.654-.65-.012-.141-2.115-.078-4.698.14-2.582.218-4.666.51-4.654.651.012.14 2.115.078 4.698-.141zm1.943 7.859c3.769.095 6.828.057 6.831-.085.004-.141-3.049-.332-6.818-.427-3.769-.094-6.827-.056-6.831.085-.003.142 3.049.333 6.818.427z" fill="#FAFAFA"/><path d="M288.083 236.883c.597 2.901 4.693 4.01 5.12 6.997.171 1.28-.427 2.475-.341 3.754.085 1.707 1.28 3.158 1.877 4.694 1.28 3.242-.171 7.167-2.816 9.471-2.645 2.304-6.229 3.243-9.728 3.328m-17.674-25.256c.341 1.536-.427 3.072-1.28 4.437-.853 1.366-1.792 2.731-1.792 4.352 0 2.816 3.157 4.949 2.987 7.765-.086 1.536-1.11 2.902-1.024 4.352 0 1.451 1.024 2.731 2.133 3.669 1.109.939 2.219.598 3.243 1.622 1.109 1.109 2.73 2.133 4.181 2.645 3.242 1.195 6.485-1.792 7.936-2.475" fill="#233561"/><path d="M288.942 238.504c-.171-1.45-1.707-2.304-3.072-2.645-1.366-.341-2.901-.256-4.181-.853-1.195-.598-2.048-1.536-3.072-2.304-2.475-1.877-6.059-2.219-8.875-.939-2.816 1.28-4.864 4.181-5.205 7.253-.171 2.134.512 4.438 2.304 5.547 2.133 1.28 4.779.512 7.082-.341 2.304-.854 4.864-1.792 7.083-.683 1.365.683 2.219 1.877 3.157 3.072.939 1.109 2.048 2.304 3.499 2.56 1.45.256 3.157-.854 2.986-2.304" fill="#233561"/><path d="M289.462 268.713l-3.414-27.647c-.17-1.194-1.279-2.133-2.474-2.048l-13.141-1.28c-4.096.171-5.973 5.547-5.632 9.643.427 4.522 1.109 10.069 2.133 13.311 2.134 6.571 7.424 6.656 7.424 6.656s1.024 9.728 1.365 12.117" fill="#FFBE9D"/><path d="M266.587 252.501a1 1 0 0 0 .939.768c.512-.085.853-.427.768-.939-.085-.426-.512-.768-.939-.768-.512 0-.853.427-.768.939zm-.215-1.708c.085.086.682-.512 1.621-.597.939-.171 1.707.256 1.792.085 0-.085-.085-.256-.427-.426-.341-.171-.853-.342-1.45-.171-.598.085-1.024.341-1.28.683-.256.17-.341.341-.256.426zm9.579.255c.085.427.512.768.938.768.512-.085.854-.427.768-.939-.085-.426-.512-.768-.938-.768-.512.086-.854.512-.768.939zm-.435-1.534c.086.085.683-.512 1.622-.597.938-.171 1.706.256 1.792.085 0-.085-.086-.256-.427-.427-.341-.17-.853-.341-1.451-.17-.597.085-1.024.341-1.28.682-.256.171-.341.342-.256.427zm-2.263 7.425c0-.085-.597-.085-1.536 0-.256 0-.512 0-.512-.171-.085-.17 0-.426.086-.768.17-.597.256-1.28.426-1.877.598-2.731.939-4.949.854-4.949-.086 0-.683 2.133-1.28 4.864-.171.682-.256 1.28-.427 1.962-.085.256-.171.598 0 .939a.468.468 0 0 0 .427.256h.426c.939-.085 1.536-.171 1.536-.256z" fill="#233561"/><path d="M274.352 267.347s4.522-.341 8.618-3.669c-.085 0-1.792 5.205-8.362 5.546l-.256-1.877zm-.407-8.191c.256-.512.853-.853 1.365-.853.427 0 .853.085 1.109.426.256.256.427.768.256 1.11-.17.426-.682.597-1.194.512a4.03 4.03 0 0 1-1.28-.512c-.086-.086-.256-.171-.342-.256.086-.171 0-.342.086-.427z" fill="#EB996E"/><path d="M276.072 257.194c-.17 0 0 1.024-.768 1.877-.768.854-1.877.939-1.792 1.024 0 .086.256.171.768.086.427-.086 1.11-.256 1.536-.854.427-.512.598-1.109.598-1.536-.171-.426-.256-.682-.342-.597zm-1.379-10.242c.171.256 1.024 0 2.133-.086 1.11-.085 2.048.086 2.134-.085.085-.085-.171-.341-.512-.512-.427-.171-1.024-.341-1.622-.341-.682 0-1.279.256-1.621.426-.426.256-.597.512-.512.598zm-8.462 1.026c.17.171.768-.171 1.536-.256.768-.171 1.45-.085 1.536-.341.085-.086-.086-.342-.427-.427-.341-.171-.768-.256-1.365-.171a2.267 2.267 0 0 0-1.195.598c-.085.341-.171.512-.085.597z" fill="#233561"/><path d="M289.799 261.714c-1.792.683-2.134-.256-3.67-1.28-1.621-1.109-2.645-2.901-2.645-4.864-.085-1.706.597-3.498-.256-4.949-1.109-1.963-4.096-2.133-5.205-4.096-.597-1.109-.427-2.56-1.109-3.669-.683-1.024-1.878-1.451-3.158-1.707-1.194-.256-2.474-.341-3.498-.938-1.11-.598-1.877-1.878-1.451-2.987 5.12-.171 10.24.256 15.274 1.28 1.195.256 2.39.512 3.243 1.451.853.938 1.024 2.304 1.195 3.498.682 6.059 1.365 12.203 2.048 18.261m1.354-14.419c-.171-2.219 1.365-4.523 3.498-5.291 2.134-.768 4.694.085 5.974 1.963 1.28 1.792 1.28 4.095.682 6.229-.682 2.474-2.474 4.864-5.034 5.205-2.39.256-4.608-1.536-5.632-3.669-1.024-2.134-1.109-4.608-1.28-7.083" fill="#233561"/><path d="M294.648 256.339s.171-.171.256-.427c.171-.341.256-.768.256-1.451 0-.597-.171-1.365-.427-2.133s-.682-1.536-1.024-2.389c-.341-.853-.597-1.707-.512-2.475 0-.768.256-1.45.342-2.048.085-.597 0-1.109-.171-1.45-.171-.342-.341-.427-.341-.427s.085.171.256.427c.085.341.17.768.085 1.365s-.341 1.28-.427 2.133c0 .854.171 1.707.512 2.56.342.854.768 1.621 1.024 2.389.256.768.427 1.451.427 2.048.171 1.195-.341 1.878-.256 1.878z" fill="#455A64"/><path d="M293.449 248.232s.342.426 1.195.853c.768.427 2.048.768 3.498.597 1.366-.17 2.56-.853 3.158-1.536.682-.597.938-1.109.938-1.109s-.341.427-1.024 1.024c-.682.512-1.792 1.195-3.072 1.365-1.365.171-2.56-.085-3.327-.426-.854-.427-1.28-.854-1.366-.768zm.528 1.025s.17.427.768.939a7.302 7.302 0 0 0 2.474 1.621c1.109.427 2.133.597 2.901.512.768 0 1.195-.171 1.195-.171 0-.085-.427 0-1.195 0s-1.706-.17-2.816-.597c-1.024-.427-1.877-1.024-2.389-1.536-.597-.427-.853-.853-.938-.768zm-.291 9.557l.085-.086c0-.085.086-.17.171-.341.085-.256.256-.683.256-1.28s-.085-1.28-.427-1.963c-.341-.682-1.024-1.45-1.877-1.877-.853-.427-1.962-.683-2.816-1.451-.426-.426-.597-.938-.597-1.536 0-.597.171-1.194.341-1.877.342-1.28.086-2.816-.682-4.01-.427-.598-.939-1.11-1.622-1.451a4.978 4.978 0 0 0-2.218-.512c-.768-.085-1.536 0-2.219-.171-.683-.085-1.365-.256-1.962-.682-.512-.427-.854-1.024-1.024-1.622-.171-.597-.342-1.28-.598-1.877a7.132 7.132 0 0 0-2.304-2.901c-.938-.683-2.048-.939-3.072-.939s-1.877.342-2.56.768a4.088 4.088 0 0 0-1.279 1.536c-.427.512-.512.939-.512 1.28v.427c.085 0-.086-.683.426-1.621.256-.512.683-1.024 1.28-1.451.683-.427 1.536-.768 2.475-.768.938 0 2.048.341 2.986.939.939.682 1.707 1.621 2.219 2.815.256.598.427 1.195.597 1.878.171.682.512 1.365 1.195 1.792.597.426 1.365.682 2.048.768.768.085 1.45.085 2.218.17.768.086 1.451.171 2.048.512.598.342 1.11.854 1.536 1.366.768 1.109 1.024 2.56.683 3.754-.171.598-.341 1.28-.341 1.877 0 .683.256 1.28.682 1.707.854.853 2.048 1.024 2.902 1.451.853.426 1.535 1.024 1.877 1.706.341.683.426 1.366.426 1.878 0 1.194-.341 1.792-.341 1.792z" fill="#455A64"/><path d="M290.292 240.04s.085-.085 0-.341c0-.171-.085-.512-.341-.853-.256-.341-.683-.597-1.28-.768-.598-.085-1.28 0-1.963.256-.682.256-1.365.683-2.133.939-.768.255-1.707.426-2.475 0-.768-.427-1.28-1.28-1.792-2.219-.512-.939-1.194-1.792-1.962-2.56-1.622-1.536-3.669-2.389-5.632-2.475-.939-.085-1.877.086-2.645.512-.768.342-1.366.939-1.792 1.622-.427.597-.512 1.365-.427 1.877.085.597.256 1.024.427 1.451.256.341.426.597.597.682.171.086.256.171.256.171s-.427-.256-.768-.939c-.256-.341-.427-.768-.427-1.365 0-.512.086-1.195.512-1.792.342-.597.939-1.109 1.707-1.451a5.077 5.077 0 0 1 2.56-.426c1.877.17 3.84 1.024 5.461 2.474.768.768 1.451 1.536 1.963 2.475.512.853 1.024 1.792 1.962 2.304.427.256.939.341 1.451.256.427 0 .939-.171 1.28-.342.768-.341 1.451-.682 2.133-.938.683-.256 1.28-.341 1.877-.256.512.085.939.341 1.195.683.256.256.341.597.427.767-.171.171-.171.256-.171.256z" fill="#455A64"/></svg>