<svg width="540" height="432" viewBox="0 0 540 432" fill="none" xmlns="http://www.w3.org/2000/svg"><g opacity=".5" fill="#2C3647"><circle cx="69" cy="344" r="3" fill-opacity=".4"/><circle cx="91" cy="344" r="3" fill-opacity=".4"/><circle cx="102" cy="344" r="3" fill-opacity=".4"/><circle cx="113" cy="344" r="3" fill-opacity=".4"/><circle cx="135" cy="344" r="3" fill-opacity=".4"/><circle cx="146" cy="344" r="3" fill-opacity=".4"/><circle cx="157" cy="344" r="3" fill-opacity=".4"/><circle cx="179" cy="344" r="3" fill-opacity=".4"/><circle cx="190" cy="344" r="3" fill-opacity=".4"/><circle cx="201" cy="344" r="3" fill-opacity=".3"/><circle cx="212" cy="344" r="3" fill-opacity=".2"/><circle cx="69" cy="333" r="3" fill-opacity=".3"/><circle cx="80" cy="333" r="3" fill-opacity=".3"/><circle cx="91" cy="333" r="3" fill-opacity=".3"/><circle cx="102" cy="333" r="3" fill-opacity=".3"/><circle cx="113" cy="333" r="3" fill-opacity=".3"/><circle cx="124" cy="333" r="3" fill-opacity=".3"/><circle cx="135" cy="333" r="3" fill-opacity=".3"/><circle cx="146" cy="333" r="3" fill-opacity=".3"/><circle cx="157" cy="333" r="3" fill-opacity=".3"/><circle cx="168" cy="333" r="3" fill-opacity=".3"/><circle cx="179" cy="333" r="3" fill-opacity=".3"/><circle cx="190" cy="333" r="3" fill-opacity=".3"/><circle cx="201" cy="333" r="3" fill-opacity=".3"/><circle cx="223" cy="333" r="3" fill-opacity=".1"/><circle cx="80" cy="322" r="3" fill-opacity=".2"/><circle cx="83" cy="300" r="3" fill-opacity=".2"/><circle cx="102" cy="322" r="3" fill-opacity=".2"/><circle cx="124" cy="322" r="3" fill-opacity=".2"/><circle cx="146" cy="322" r="3" fill-opacity=".2"/><circle cx="168" cy="322" r="3" fill-opacity=".2"/><circle cx="190" cy="322" r="3" fill-opacity=".2"/><circle cx="212" cy="322" r="3" fill-opacity=".2"/><circle cx="69" cy="311" r="3" fill-opacity=".1"/><circle cx="72" cy="289" r="3" fill-opacity=".1"/><circle cx="91" cy="311" r="3" fill-opacity=".1"/><circle cx="113" cy="311" r="3" fill-opacity=".1"/><circle cx="135" cy="311" r="3" fill-opacity=".1"/><circle cx="157" cy="311" r="3" fill-opacity=".1"/><circle cx="179" cy="311" r="3" fill-opacity=".1"/><circle cx="201" cy="311" r="3" fill-opacity=".1"/><circle cx="223" cy="311" r="3" fill-opacity=".1"/><circle cx="58" cy="333" r="3" fill-opacity=".3"/><circle cx="58" cy="322" r="3" fill-opacity=".2"/><circle cx="61" cy="300" r="3" fill-opacity=".2"/><circle cx="47" cy="344" r="3" fill-opacity=".4"/><circle cx="47" cy="333" r="3" fill-opacity=".3"/><circle cx="47" cy="311" r="3" fill-opacity=".1"/><circle cx="50" cy="289" r="3" fill-opacity=".1"/><circle cx="36" cy="344" r="3" fill-opacity=".4"/><circle cx="36" cy="333" r="3" fill-opacity=".3"/><circle cx="36" cy="322" r="3" fill-opacity=".2"/><circle cx="69" cy="366" r="3" fill-opacity=".4"/><circle cx="80" cy="366" r="3" fill-opacity=".4"/><circle cx="91" cy="366" r="3" fill-opacity=".4"/><circle cx="102" cy="366" r="3" fill-opacity=".4"/><circle cx="113" cy="366" r="3" fill-opacity=".4"/><circle cx="124" cy="366" r="3" fill-opacity=".4"/><circle cx="135" cy="366" r="3" fill-opacity=".4"/><circle cx="146" cy="366" r="3" fill-opacity=".4"/><circle cx="157" cy="366" r="3" fill-opacity=".4"/><circle cx="168" cy="366" r="3" fill-opacity=".4"/><circle cx="179" cy="366" r="3" fill-opacity=".4"/><circle cx="190" cy="366" r="3" fill-opacity=".4"/><circle cx="201" cy="366" r="3" fill-opacity=".3"/><circle cx="212" cy="366" r="3" fill-opacity=".2"/><circle cx="58" cy="366" r="3" fill-opacity=".4"/><circle cx="47" cy="366" r="3" fill-opacity=".4"/><circle cx="36" cy="366" r="3" fill-opacity=".5"/><circle cx="80" cy="388" r="3" fill-opacity=".2"/><circle cx="102" cy="388" r="3" fill-opacity=".2"/><circle cx="124" cy="388" r="3" fill-opacity=".2"/><circle cx="146" cy="388" r="3" fill-opacity=".2"/><circle cx="168" cy="388" r="3" fill-opacity=".2"/><circle cx="190" cy="388" r="3" fill-opacity=".2"/><circle cx="212" cy="388" r="3" fill-opacity=".2"/><circle cx="58" cy="388" r="3" fill-opacity=".2"/><circle cx="36" cy="388" r="3" fill-opacity=".2"/><circle cx="69" cy="355" r="3" fill-opacity=".5"/><circle cx="80" cy="355" r="3" fill-opacity=".5"/><circle cx="91" cy="355" r="3" fill-opacity=".5"/><circle cx="102" cy="355" r="3" fill-opacity=".5"/><circle cx="124" cy="355" r="3" fill-opacity=".5"/><circle cx="135" cy="355" r="3" fill-opacity=".5"/><circle cx="146" cy="355" r="3" fill-opacity=".5"/><circle cx="157" cy="355" r="3" fill-opacity=".5"/><circle cx="168" cy="355" r="3" fill-opacity=".5"/><circle cx="190" cy="355" r="3" fill-opacity=".4"/><circle cx="201" cy="355" r="3" fill-opacity=".3"/><circle cx="223" cy="355" r="3" fill-opacity=".1"/><circle cx="58" cy="355" r="3" fill-opacity=".5"/><circle cx="36" cy="355" r="3" fill-opacity=".4"/><circle cx="69" cy="377" r="3" fill-opacity=".3"/><circle cx="91" cy="377" r="3" fill-opacity=".3"/><circle cx="113" cy="377" r="3" fill-opacity=".3"/><circle cx="124" cy="377" r="3" fill-opacity=".3"/><circle cx="135" cy="377" r="3" fill-opacity=".3"/><circle cx="157" cy="377" r="3" fill-opacity=".3"/><circle cx="168" cy="377" r="3" fill-opacity=".3"/><circle cx="190" cy="377" r="3" fill-opacity=".3"/><circle cx="201" cy="377" r="3" fill-opacity=".3"/><circle cx="223" cy="377" r="3" fill-opacity=".1"/><circle cx="47" cy="377" r="3" fill-opacity=".3"/><circle cx="69" cy="399" r="3" fill-opacity=".1"/><circle cx="81" cy="411" r="3" fill-opacity=".1"/><circle cx="97" cy="421" r="3" fill-opacity=".1"/><circle cx="91" cy="399" r="3" fill-opacity=".1"/><circle cx="103" cy="411" r="3" fill-opacity=".1"/><circle cx="119" cy="421" r="3" fill-opacity=".1"/><circle cx="113" cy="399" r="3" fill-opacity=".1"/><circle cx="125" cy="411" r="3" fill-opacity=".1"/><circle cx="141" cy="421" r="3" fill-opacity=".1"/><circle cx="135" cy="399" r="3" fill-opacity=".1"/><circle cx="147" cy="411" r="3" fill-opacity=".1"/><circle cx="157" cy="399" r="3" fill-opacity=".1"/><circle cx="169" cy="411" r="3" fill-opacity=".1"/><circle cx="179" cy="399" r="3" fill-opacity=".1"/><circle cx="201" cy="399" r="3" fill-opacity=".1"/><circle cx="223" cy="399" r="3" fill-opacity=".1"/><circle cx="47" cy="399" r="3" fill-opacity=".1"/><circle cx="25" cy="344" r="3" fill-opacity=".3"/><circle cx="25" cy="311" r="3" fill-opacity=".1"/><circle cx="39" cy="303" r="3" fill-opacity=".1"/><circle cx="14" cy="333" r="3" fill-opacity=".2"/><circle cx="25" cy="366" r="3" fill-opacity=".3"/><circle cx="14" cy="366" r="3" fill-opacity=".2"/><circle cx="14" cy="388" r="3" fill-opacity=".2"/><circle cx="25" cy="355" r="3" fill-opacity=".3"/><circle cx="14" cy="355" r="3" fill-opacity=".2"/><circle cx="25" cy="377" r="3" fill-opacity=".3"/><circle cx="25" cy="399" r="3" fill-opacity=".1"/><circle cx="3" cy="333" r="3" fill-opacity=".1"/><circle cx="3" cy="311" r="3" fill-opacity=".1"/><circle cx="3" cy="355" r="3" fill-opacity=".1"/><circle cx="3" cy="377" r="3" fill-opacity=".1"/><circle cx="3" cy="399" r="3" fill-opacity=".1"/></g><g opacity=".5" fill="#2C3647"><circle cx="370" cy="75" r="3" fill-opacity=".4"/><circle cx="392" cy="75" r="3" fill-opacity=".4"/><circle cx="403" cy="75" r="3" fill-opacity=".4"/><circle cx="414" cy="75" r="3" fill-opacity=".4"/><circle cx="436" cy="75" r="3" fill-opacity=".4"/><circle cx="447" cy="75" r="3" fill-opacity=".4"/><circle cx="458" cy="75" r="3" fill-opacity=".4"/><circle cx="480" cy="75" r="3" fill-opacity=".4"/><circle cx="491" cy="75" r="3" fill-opacity=".4"/><circle cx="502" cy="75" r="3" fill-opacity=".3"/><circle cx="513" cy="75" r="3" fill-opacity=".2"/><circle cx="370" cy="64" r="3" fill-opacity=".3"/><circle cx="381" cy="64" r="3" fill-opacity=".3"/><circle cx="392" cy="64" r="3" fill-opacity=".3"/><circle cx="403" cy="64" r="3" fill-opacity=".3"/><circle cx="414" cy="64" r="3" fill-opacity=".3"/><circle cx="425" cy="64" r="3" fill-opacity=".3"/><circle cx="436" cy="64" r="3" fill-opacity=".3"/><circle cx="447" cy="64" r="3" fill-opacity=".3"/><circle cx="458" cy="64" r="3" fill-opacity=".3"/><circle cx="469" cy="64" r="3" fill-opacity=".3"/><circle cx="480" cy="64" r="3" fill-opacity=".3"/><circle cx="491" cy="64" r="3" fill-opacity=".3"/><circle cx="502" cy="64" r="3" fill-opacity=".3"/><circle cx="524" cy="64" r="3" fill-opacity=".1"/><circle cx="381" cy="53" r="3" fill-opacity=".2"/><circle cx="403" cy="53" r="3" fill-opacity=".2"/><circle cx="425" cy="53" r="3" fill-opacity=".2"/><circle cx="447" cy="53" r="3" fill-opacity=".2"/><circle cx="469" cy="53" r="3" fill-opacity=".2"/><circle cx="491" cy="53" r="3" fill-opacity=".2"/><circle cx="513" cy="53" r="3" fill-opacity=".2"/><circle cx="370" cy="42" r="3" fill-opacity=".1"/><circle cx="392" cy="42" r="3" fill-opacity=".1"/><circle cx="414" cy="42" r="3" fill-opacity=".1"/><circle cx="436" cy="42" r="3" fill-opacity=".1"/><circle cx="426" cy="31" r="3" fill-opacity=".1"/><circle cx="458" cy="42" r="3" fill-opacity=".1"/><circle cx="448" cy="31" r="3" fill-opacity=".1"/><circle cx="461" cy="20" r="3" fill-opacity=".1"/><circle cx="480" cy="42" r="3" fill-opacity=".1"/><circle cx="470" cy="31" r="3" fill-opacity=".1"/><circle cx="483" cy="20" r="3" fill-opacity=".1"/><circle cx="502" cy="42" r="3" fill-opacity=".1"/><circle cx="492" cy="31" r="3" fill-opacity=".1"/><circle cx="524" cy="42" r="3" fill-opacity=".1"/><circle cx="359" cy="64" r="3" fill-opacity=".3"/><circle cx="359" cy="53" r="3" fill-opacity=".2"/><circle cx="348" cy="75" r="3" fill-opacity=".4"/><circle cx="348" cy="64" r="3" fill-opacity=".3"/><circle cx="348" cy="42" r="3" fill-opacity=".1"/><circle cx="337" cy="75" r="3" fill-opacity=".4"/><circle cx="337" cy="64" r="3" fill-opacity=".3"/><circle cx="337" cy="53" r="3" fill-opacity=".2"/><circle cx="370" cy="97" r="3" fill-opacity=".4"/><circle cx="381" cy="97" r="3" fill-opacity=".4"/><circle cx="392" cy="97" r="3" fill-opacity=".4"/><circle cx="403" cy="97" r="3" fill-opacity=".4"/><circle cx="414" cy="97" r="3" fill-opacity=".4"/><circle cx="425" cy="97" r="3" fill-opacity=".4"/><circle cx="436" cy="97" r="3" fill-opacity=".4"/><circle cx="447" cy="97" r="3" fill-opacity=".4"/><circle cx="458" cy="97" r="3" fill-opacity=".4"/><circle cx="469" cy="97" r="3" fill-opacity=".4"/><circle cx="480" cy="97" r="3" fill-opacity=".4"/><circle cx="491" cy="97" r="3" fill-opacity=".4"/><circle cx="502" cy="97" r="3" fill-opacity=".3"/><circle cx="513" cy="97" r="3" fill-opacity=".2"/><circle cx="359" cy="97" r="3" fill-opacity=".4"/><circle cx="348" cy="97" r="3" fill-opacity=".4"/><circle cx="337" cy="97" r="3" fill-opacity=".5"/><circle cx="381" cy="119" r="3" fill-opacity=".2"/><circle cx="403" cy="119" r="3" fill-opacity=".2"/><circle cx="425" cy="119" r="3" fill-opacity=".2"/><circle cx="447" cy="119" r="3" fill-opacity=".2"/><circle cx="469" cy="119" r="3" fill-opacity=".2"/><circle cx="491" cy="119" r="3" fill-opacity=".2"/><circle cx="513" cy="119" r="3" fill-opacity=".2"/><circle cx="359" cy="119" r="3" fill-opacity=".2"/><circle cx="337" cy="119" r="3" fill-opacity=".2"/><circle cx="370" cy="86" r="3" fill-opacity=".5"/><circle cx="381" cy="86" r="3" fill-opacity=".5"/><circle cx="392" cy="86" r="3" fill-opacity=".5"/><circle cx="403" cy="86" r="3" fill-opacity=".5"/><circle cx="425" cy="86" r="3" fill-opacity=".5"/><circle cx="436" cy="86" r="3" fill-opacity=".5"/><circle cx="447" cy="86" r="3" fill-opacity=".5"/><circle cx="458" cy="86" r="3" fill-opacity=".5"/><circle cx="469" cy="86" r="3" fill-opacity=".5"/><circle cx="491" cy="86" r="3" fill-opacity=".4"/><circle cx="502" cy="86" r="3" fill-opacity=".3"/><circle cx="524" cy="86" r="3" fill-opacity=".1"/><circle cx="359" cy="86" r="3" fill-opacity=".5"/><circle cx="337" cy="86" r="3" fill-opacity=".4"/><circle cx="370" cy="108" r="3" fill-opacity=".3"/><circle cx="392" cy="108" r="3" fill-opacity=".3"/><circle cx="414" cy="108" r="3" fill-opacity=".3"/><circle cx="425" cy="108" r="3" fill-opacity=".3"/><circle cx="436" cy="108" r="3" fill-opacity=".3"/><circle cx="458" cy="108" r="3" fill-opacity=".3"/><circle cx="469" cy="108" r="3" fill-opacity=".3"/><circle cx="491" cy="108" r="3" fill-opacity=".3"/><circle cx="502" cy="108" r="3" fill-opacity=".3"/><circle cx="524" cy="108" r="3" fill-opacity=".1"/><circle cx="348" cy="108" r="3" fill-opacity=".3"/><circle cx="370" cy="130" r="3" fill-opacity=".1"/><circle cx="392" cy="130" r="3" fill-opacity=".1"/><circle cx="414" cy="130" r="3" fill-opacity=".1"/><circle cx="436" cy="130" r="3" fill-opacity=".1"/><circle cx="458" cy="130" r="3" fill-opacity=".1"/><circle cx="480" cy="130" r="3" fill-opacity=".1"/><circle cx="502" cy="130" r="3" fill-opacity=".1"/><circle cx="524" cy="130" r="3" fill-opacity=".1"/><circle cx="348" cy="130" r="3" fill-opacity=".1"/><circle cx="326" cy="75" r="3" fill-opacity=".3"/><circle cx="326" cy="42" r="3" fill-opacity=".1"/><circle cx="315" cy="64" r="3" fill-opacity=".2"/><circle cx="326" cy="97" r="3" fill-opacity=".3"/><circle cx="315" cy="97" r="3" fill-opacity=".2"/><circle cx="315" cy="119" r="3" fill-opacity=".2"/><circle cx="326" cy="86" r="3" fill-opacity=".3"/><circle cx="315" cy="86" r="3" fill-opacity=".2"/><circle cx="326" cy="108" r="3" fill-opacity=".3"/><circle cx="326" cy="130" r="3" fill-opacity=".1"/><circle cx="304" cy="64" r="3" fill-opacity=".1"/><circle cx="304" cy="42" r="3" fill-opacity=".1"/><circle cx="304" cy="86" r="3" fill-opacity=".1"/><circle cx="304" cy="108" r="3" fill-opacity=".1"/><circle cx="304" cy="130" r="3" fill-opacity=".1"/></g><g opacity=".15" fill="#2C3647"><circle cx="161" cy="36" r="3" fill-opacity=".4"/><circle cx="183" cy="36" r="3" fill-opacity=".4"/><circle cx="194" cy="36" r="3" fill-opacity=".4"/><circle cx="205" cy="36" r="3" fill-opacity=".4"/><circle cx="227" cy="36" r="3" fill-opacity=".4"/><circle cx="238" cy="36" r="3" fill-opacity=".4"/><circle cx="249" cy="36" r="3" fill-opacity=".4"/><circle cx="271" cy="36" r="3" fill-opacity=".4"/><circle cx="282" cy="36" r="3" fill-opacity=".4"/><circle cx="293" cy="36" r="3" fill-opacity=".3"/><circle cx="304" cy="36" r="3" fill-opacity=".2"/><circle cx="161" cy="25" r="3" fill-opacity=".3"/><circle cx="172" cy="25" r="3" fill-opacity=".3"/><circle cx="183" cy="25" r="3" fill-opacity=".3"/><circle cx="194" cy="25" r="3" fill-opacity=".3"/><circle cx="205" cy="25" r="3" fill-opacity=".3"/><circle cx="216" cy="25" r="3" fill-opacity=".3"/><circle cx="227" cy="25" r="3" fill-opacity=".3"/><circle cx="238" cy="25" r="3" fill-opacity=".3"/><circle cx="249" cy="25" r="3" fill-opacity=".3"/><circle cx="260" cy="25" r="3" fill-opacity=".3"/><circle cx="271" cy="25" r="3" fill-opacity=".3"/><circle cx="282" cy="25" r="3" fill-opacity=".3"/><circle cx="293" cy="25" r="3" fill-opacity=".3"/><circle cx="315" cy="25" r="3" fill-opacity=".1"/><circle cx="172" cy="14" r="3" fill-opacity=".2"/><circle cx="194" cy="14" r="3" fill-opacity=".2"/><circle cx="216" cy="14" r="3" fill-opacity=".2"/><circle cx="238" cy="14" r="3" fill-opacity=".2"/><circle cx="260" cy="14" r="3" fill-opacity=".2"/><circle cx="282" cy="14" r="3" fill-opacity=".2"/><circle cx="304" cy="14" r="3" fill-opacity=".2"/><circle cx="161" cy="3" r="3" fill-opacity=".1"/><circle cx="183" cy="3" r="3" fill-opacity=".1"/><circle cx="205" cy="3" r="3" fill-opacity=".1"/><circle cx="227" cy="3" r="3" fill-opacity=".1"/><circle cx="249" cy="3" r="3" fill-opacity=".1"/><circle cx="271" cy="3" r="3" fill-opacity=".1"/><circle cx="293" cy="3" r="3" fill-opacity=".1"/><circle cx="315" cy="3" r="3" fill-opacity=".1"/><circle cx="150" cy="25" r="3" fill-opacity=".3"/><circle cx="150" cy="14" r="3" fill-opacity=".2"/><circle cx="139" cy="36" r="3" fill-opacity=".4"/><circle cx="139" cy="25" r="3" fill-opacity=".3"/><circle cx="139" cy="3" r="3" fill-opacity=".1"/><circle cx="128" cy="36" r="3" fill-opacity=".4"/><circle cx="128" cy="25" r="3" fill-opacity=".3"/><circle cx="128" cy="14" r="3" fill-opacity=".2"/><circle cx="161" cy="58" r="3" fill-opacity=".4"/><circle cx="172" cy="58" r="3" fill-opacity=".4"/><circle cx="183" cy="58" r="3" fill-opacity=".4"/><circle cx="194" cy="58" r="3" fill-opacity=".4"/><circle cx="205" cy="58" r="3" fill-opacity=".4"/><circle cx="216" cy="58" r="3" fill-opacity=".4"/><circle cx="227" cy="58" r="3" fill-opacity=".4"/><circle cx="238" cy="58" r="3" fill-opacity=".4"/><circle cx="249" cy="58" r="3" fill-opacity=".4"/><circle cx="260" cy="58" r="3" fill-opacity=".4"/><circle cx="271" cy="58" r="3" fill-opacity=".4"/><circle cx="282" cy="58" r="3" fill-opacity=".4"/><circle cx="293" cy="58" r="3" fill-opacity=".3"/><circle cx="304" cy="58" r="3" fill-opacity=".2"/><circle cx="150" cy="58" r="3" fill-opacity=".4"/><circle cx="139" cy="58" r="3" fill-opacity=".4"/><circle cx="128" cy="58" r="3" fill-opacity=".5"/><circle cx="172" cy="80" r="3" fill-opacity=".2"/><circle cx="194" cy="80" r="3" fill-opacity=".2"/><circle cx="216" cy="80" r="3" fill-opacity=".2"/><circle cx="238" cy="80" r="3" fill-opacity=".2"/><circle cx="260" cy="80" r="3" fill-opacity=".2"/><circle cx="282" cy="80" r="3" fill-opacity=".2"/><circle cx="304" cy="80" r="3" fill-opacity=".2"/><circle cx="150" cy="80" r="3" fill-opacity=".2"/><circle cx="128" cy="80" r="3" fill-opacity=".2"/><circle cx="161" cy="47" r="3" fill-opacity=".5"/><circle cx="172" cy="47" r="3" fill-opacity=".5"/><circle cx="183" cy="47" r="3" fill-opacity=".5"/><circle cx="194" cy="47" r="3" fill-opacity=".5"/><circle cx="216" cy="47" r="3" fill-opacity=".5"/><circle cx="227" cy="47" r="3" fill-opacity=".5"/><circle cx="238" cy="47" r="3" fill-opacity=".5"/><circle cx="249" cy="47" r="3" fill-opacity=".5"/><circle cx="260" cy="47" r="3" fill-opacity=".5"/><circle cx="282" cy="47" r="3" fill-opacity=".4"/><circle cx="293" cy="47" r="3" fill-opacity=".3"/><circle cx="315" cy="47" r="3" fill-opacity=".1"/><circle cx="150" cy="47" r="3" fill-opacity=".5"/><circle cx="128" cy="47" r="3" fill-opacity=".4"/><circle cx="161" cy="69" r="3" fill-opacity=".3"/><circle cx="183" cy="69" r="3" fill-opacity=".3"/><circle cx="205" cy="69" r="3" fill-opacity=".3"/><circle cx="216" cy="69" r="3" fill-opacity=".3"/><circle cx="227" cy="69" r="3" fill-opacity=".3"/><circle cx="249" cy="69" r="3" fill-opacity=".3"/><circle cx="260" cy="69" r="3" fill-opacity=".3"/><circle cx="282" cy="69" r="3" fill-opacity=".3"/><circle cx="293" cy="69" r="3" fill-opacity=".3"/><circle cx="315" cy="69" r="3" fill-opacity=".1"/><circle cx="139" cy="69" r="3" fill-opacity=".3"/><circle cx="161" cy="91" r="3" fill-opacity=".1"/><circle cx="183" cy="91" r="3" fill-opacity=".1"/><circle cx="205" cy="91" r="3" fill-opacity=".1"/><circle cx="227" cy="91" r="3" fill-opacity=".1"/><circle cx="249" cy="91" r="3" fill-opacity=".1"/><circle cx="271" cy="91" r="3" fill-opacity=".1"/><circle cx="293" cy="91" r="3" fill-opacity=".1"/><circle cx="315" cy="91" r="3" fill-opacity=".1"/><circle cx="139" cy="91" r="3" fill-opacity=".1"/><circle cx="117" cy="36" r="3" fill-opacity=".3"/><circle cx="117" cy="3" r="3" fill-opacity=".1"/><circle cx="106" cy="25" r="3" fill-opacity=".2"/><circle cx="117" cy="58" r="3" fill-opacity=".3"/><circle cx="106" cy="58" r="3" fill-opacity=".2"/><circle cx="106" cy="80" r="3" fill-opacity=".2"/><circle cx="117" cy="47" r="3" fill-opacity=".3"/><circle cx="106" cy="47" r="3" fill-opacity=".2"/><circle cx="117" cy="69" r="3" fill-opacity=".3"/><circle cx="117" cy="91" r="3" fill-opacity=".1"/><circle cx="95" cy="25" r="3" fill-opacity=".1"/><circle cx="95" cy="3" r="3" fill-opacity=".1"/><circle cx="95" cy="47" r="3" fill-opacity=".1"/><circle cx="95" cy="69" r="3" fill-opacity=".1"/><circle cx="95" cy="91" r="3" fill-opacity=".1"/></g><g opacity=".15" fill="#2C3647"><circle cx="116" cy="66" r="3" fill-opacity=".4"/><circle cx="138" cy="66" r="3" fill-opacity=".4"/><circle cx="149" cy="66" r="3" fill-opacity=".4"/><circle cx="160" cy="66" r="3" fill-opacity=".4"/><circle cx="182" cy="66" r="3" fill-opacity=".4"/><circle cx="193" cy="66" r="3" fill-opacity=".4"/><circle cx="204" cy="66" r="3" fill-opacity=".4"/><circle cx="226" cy="66" r="3" fill-opacity=".4"/><circle cx="237" cy="66" r="3" fill-opacity=".4"/><circle cx="248" cy="66" r="3" fill-opacity=".3"/><circle cx="259" cy="66" r="3" fill-opacity=".2"/><circle cx="116" cy="55" r="3" fill-opacity=".3"/><circle cx="127" cy="55" r="3" fill-opacity=".3"/><circle cx="138" cy="55" r="3" fill-opacity=".3"/><circle cx="149" cy="55" r="3" fill-opacity=".3"/><circle cx="160" cy="55" r="3" fill-opacity=".3"/><circle cx="171" cy="55" r="3" fill-opacity=".3"/><circle cx="182" cy="55" r="3" fill-opacity=".3"/><circle cx="193" cy="55" r="3" fill-opacity=".3"/><circle cx="204" cy="55" r="3" fill-opacity=".3"/><circle cx="215" cy="55" r="3" fill-opacity=".3"/><circle cx="226" cy="55" r="3" fill-opacity=".3"/><circle cx="237" cy="55" r="3" fill-opacity=".3"/><circle cx="248" cy="55" r="3" fill-opacity=".3"/><circle cx="270" cy="55" r="3" fill-opacity=".1"/><circle cx="127" cy="44" r="3" fill-opacity=".2"/><circle cx="149" cy="44" r="3" fill-opacity=".2"/><circle cx="171" cy="44" r="3" fill-opacity=".2"/><circle cx="193" cy="44" r="3" fill-opacity=".2"/><circle cx="215" cy="44" r="3" fill-opacity=".2"/><circle cx="237" cy="44" r="3" fill-opacity=".2"/><circle cx="259" cy="44" r="3" fill-opacity=".2"/><circle cx="116" cy="33" r="3" fill-opacity=".1"/><circle cx="138" cy="33" r="3" fill-opacity=".1"/><circle cx="160" cy="33" r="3" fill-opacity=".1"/><circle cx="182" cy="33" r="3" fill-opacity=".1"/><circle cx="204" cy="33" r="3" fill-opacity=".1"/><circle cx="226" cy="33" r="3" fill-opacity=".1"/><circle cx="248" cy="33" r="3" fill-opacity=".1"/><circle cx="270" cy="33" r="3" fill-opacity=".1"/><circle cx="105" cy="55" r="3" fill-opacity=".3"/><circle cx="105" cy="44" r="3" fill-opacity=".2"/><circle cx="94" cy="66" r="3" fill-opacity=".4"/><circle cx="94" cy="55" r="3" fill-opacity=".3"/><circle cx="94" cy="33" r="3" fill-opacity=".1"/><circle cx="83" cy="66" r="3" fill-opacity=".4"/><circle cx="83" cy="55" r="3" fill-opacity=".3"/><circle cx="83" cy="44" r="3" fill-opacity=".2"/><circle cx="116" cy="88" r="3" fill-opacity=".4"/><circle cx="127" cy="88" r="3" fill-opacity=".4"/><circle cx="138" cy="88" r="3" fill-opacity=".4"/><circle cx="149" cy="88" r="3" fill-opacity=".4"/><circle cx="160" cy="88" r="3" fill-opacity=".4"/><circle cx="171" cy="88" r="3" fill-opacity=".4"/><circle cx="182" cy="88" r="3" fill-opacity=".4"/><circle cx="193" cy="88" r="3" fill-opacity=".4"/><circle cx="204" cy="88" r="3" fill-opacity=".4"/><circle cx="215" cy="88" r="3" fill-opacity=".4"/><circle cx="226" cy="88" r="3" fill-opacity=".4"/><circle cx="237" cy="88" r="3" fill-opacity=".4"/><circle cx="248" cy="88" r="3" fill-opacity=".3"/><circle cx="259" cy="88" r="3" fill-opacity=".2"/><circle cx="105" cy="88" r="3" fill-opacity=".4"/><circle cx="94" cy="88" r="3" fill-opacity=".4"/><circle cx="83" cy="88" r="3" fill-opacity=".5"/><circle cx="127" cy="110" r="3" fill-opacity=".2"/><circle cx="149" cy="110" r="3" fill-opacity=".2"/><circle cx="171" cy="110" r="3" fill-opacity=".2"/><circle cx="193" cy="110" r="3" fill-opacity=".2"/><circle cx="215" cy="110" r="3" fill-opacity=".2"/><circle cx="237" cy="110" r="3" fill-opacity=".2"/><circle cx="259" cy="110" r="3" fill-opacity=".2"/><circle cx="105" cy="110" r="3" fill-opacity=".2"/><circle cx="83" cy="110" r="3" fill-opacity=".2"/><circle cx="116" cy="77" r="3" fill-opacity=".5"/><circle cx="127" cy="77" r="3" fill-opacity=".5"/><circle cx="138" cy="77" r="3" fill-opacity=".5"/><circle cx="149" cy="77" r="3" fill-opacity=".5"/><circle cx="171" cy="77" r="3" fill-opacity=".5"/><circle cx="182" cy="77" r="3" fill-opacity=".5"/><circle cx="193" cy="77" r="3" fill-opacity=".5"/><circle cx="204" cy="77" r="3" fill-opacity=".5"/><circle cx="215" cy="77" r="3" fill-opacity=".5"/><circle cx="237" cy="77" r="3" fill-opacity=".4"/><circle cx="248" cy="77" r="3" fill-opacity=".3"/><circle cx="270" cy="77" r="3" fill-opacity=".1"/><circle cx="105" cy="77" r="3" fill-opacity=".5"/><circle cx="83" cy="77" r="3" fill-opacity=".4"/><circle cx="116" cy="99" r="3" fill-opacity=".3"/><circle cx="138" cy="99" r="3" fill-opacity=".3"/><circle cx="160" cy="99" r="3" fill-opacity=".3"/><circle cx="171" cy="99" r="3" fill-opacity=".3"/><circle cx="182" cy="99" r="3" fill-opacity=".3"/><circle cx="204" cy="99" r="3" fill-opacity=".3"/><circle cx="215" cy="99" r="3" fill-opacity=".3"/><circle cx="237" cy="99" r="3" fill-opacity=".3"/><circle cx="248" cy="99" r="3" fill-opacity=".3"/><circle cx="270" cy="99" r="3" fill-opacity=".1"/><circle cx="94" cy="99" r="3" fill-opacity=".3"/><circle cx="116" cy="121" r="3" fill-opacity=".1"/><circle cx="138" cy="121" r="3" fill-opacity=".1"/><circle cx="160" cy="121" r="3" fill-opacity=".1"/><circle cx="182" cy="121" r="3" fill-opacity=".1"/><circle cx="204" cy="121" r="3" fill-opacity=".1"/><circle cx="226" cy="121" r="3" fill-opacity=".1"/><circle cx="248" cy="121" r="3" fill-opacity=".1"/><circle cx="270" cy="121" r="3" fill-opacity=".1"/><circle cx="94" cy="121" r="3" fill-opacity=".1"/><circle cx="72" cy="66" r="3" fill-opacity=".3"/><circle cx="72" cy="33" r="3" fill-opacity=".1"/><circle cx="61" cy="55" r="3" fill-opacity=".2"/><circle cx="72" cy="88" r="3" fill-opacity=".3"/><circle cx="61" cy="88" r="3" fill-opacity=".2"/><circle cx="61" cy="110" r="3" fill-opacity=".2"/><circle cx="72" cy="77" r="3" fill-opacity=".3"/><circle cx="61" cy="77" r="3" fill-opacity=".2"/><circle cx="72" cy="99" r="3" fill-opacity=".3"/><circle cx="72" cy="121" r="3" fill-opacity=".1"/><circle cx="50" cy="55" r="3" fill-opacity=".1"/><circle cx="50" cy="33" r="3" fill-opacity=".1"/><circle cx="50" cy="77" r="3" fill-opacity=".1"/><circle cx="50" cy="99" r="3" fill-opacity=".1"/><circle cx="50" cy="121" r="3" fill-opacity=".1"/></g><circle cx="391.5" cy="201.5" r="147.5" stroke="#FFC01E" stroke-opacity=".2" stroke-width="2"/><circle cx="391.499" cy="201.499" r="105.581" stroke="#AA7D0B" stroke-opacity=".2" stroke-width="2"/><path d="M423.473 350.671H108.364c-7.149 0-13.048-5.81-13.048-13.049V138.049c0-7.15 5.809-13.049 13.048-13.049h315.109c7.15 0 13.048 5.809 13.048 13.049v199.573c-.089 7.239-5.898 13.049-13.048 13.049z" fill="#334C88"/><path d="M435.984 355.855H97.55c-8.58 0-15.55-6.971-15.55-15.551v-4.2h369.623v4.2c0 8.58-6.97 15.551-15.639 15.551z" fill="#4B66A9"/><path d="M426.432 134.027H104.531v190.547h321.901V134.027zm-194.194 199.93l4.647 7.329h64.524l4.289-7.329h-73.46z" fill="#334C88"/><path d="M417.32 323.947H113.918c-1.609 0-2.949-1.341-2.949-2.95V143.41c0-1.608 1.34-2.949 2.949-2.949H417.32c1.609 0 2.949 1.341 2.949 2.949v177.587c-.089 1.609-1.34 2.95-2.949 2.95z" fill="#EBEBEB"/><path d="M419.902 324.215h-309.3l.357-169.99h308.943v169.99z" fill="#FAFAFA"/><path d="M133.838 150.025a2.503 2.503 0 1 0 0-5.007 2.503 2.503 0 0 0 0 5.007zm-14.914 0a2.503 2.503 0 1 0-.001-5.005 2.503 2.503 0 0 0 .001 5.005zm7.141 0a2.503 2.503 0 1 0-.001-5.005 2.503 2.503 0 0 0 .001 5.005zm307.507 183.933c0 .089-75.694.179-169.083.179s-169.083-.09-169.083-.179 75.694-.179 169.083-.179c93.3 0 169.083.09 169.083.179z" fill="#334C88"/><path d="M171.332 297.163s142.335-2.669 186.111-126.659l-1.501 126.909-184.61-.25z" fill="#BFF1E9"/><path opacity=".7" d="M171.332 297.163s142.335-2.669 186.111-126.659l-1.501 126.909-184.61-.25z" fill="#fff"/><path d="M172.5 297.079c15.676-.75 143.419-10.256 184.526-126.575M179.918 297.912v6.921m28.934-6.837v6.921m28.933-6.921v6.921m28.934-6.921v6.921m28.937-6.839v6.921m28.93-6.921v6.921m28.934-6.921v6.921M168 177.424h3.752M168 195.518h3.752M168 213.695h3.752M168 231.873h3.752M168 250.051h3.752M168 268.145h3.752M168 286.322h3.752" stroke="#BFF1E9" stroke-width="2" stroke-miterlimit="10" stroke-linecap="round" stroke-linejoin="round"/><path d="M362.641 298h-190V170" stroke="#52D1BC" stroke-width="2" stroke-miterlimit="10" stroke-linecap="round" stroke-linejoin="round"/><path d="M255.384 195.102h-38.607v2.668h38.607v-2.668zm-.084 6.503h-45.027v2.669H255.3v-2.669zm0 6.254h-45.027v2.669H255.3v-2.669zm-9.922 6.336h-35.105v2.669h35.105v-2.669z" fill="#DFE1E3"/><path d="M270 431.901c110.457 0 200-5.218 200-11.656 0-6.437-89.543-11.655-200-11.655s-200 5.218-200 11.655c0 6.438 89.543 11.656 200 11.656z" fill="#F5F5F5"/><path d="M392.742 230.662c-.516.413-.929.722-1.341 1.032-.413.309-.928.619-1.341.928a37.105 37.105 0 0 1-2.682 1.65c-1.856 1.135-3.816 2.063-5.776 2.992-2.063.928-4.229 1.65-6.395 2.269-1.135.309-2.372.516-3.507.722-.619.103-1.238.103-1.857.206h-2.372c-1.547-.206-3.094-.722-4.538-1.444-1.135-.619-2.166-1.341-3.198-2.166-1.753-1.444-3.301-3.094-4.745-4.848a52.062 52.062 0 0 1-6.498-10.83l4.745-2.991c2.475 2.785 5.157 5.466 7.839 7.942a29.774 29.774 0 0 0 4.023 3.094c.619.413 1.237.619 1.856.929.413.103.722.206 1.135.206h.103l.516-.103c.309-.103.722-.103 1.031-.207l2.166-.618c1.548-.619 3.198-1.238 4.642-2.063 1.547-.826 3.094-1.651 4.745-2.682a27.758 27.758 0 0 0 2.269-1.444l1.134-.722 3.095-2.063 4.951 10.211z" fill="#FFD465"/><path d="M350.662 221.379l-4.435-2.167 3.61-5.569s3.816 3.094 4.126 6.291l-3.301 1.445z" fill="#9F7362"/><path d="M341.379 215.603l2.991-3.404 5.467 1.547-3.61 5.467-4.848-3.61z" fill="#9F7362"/><path d="M435.447 417.871c.516-1.134 1.135-2.166 1.96-3.094 0 0 3.404-5.776.722-15.782l4.642-4.022c1.238-.103 2.475.619 3.404 1.341.619.928 1.134 1.134 1.65 2.063 1.65 2.888 5.364 9.592 5.364 9.592l-.722.413c-1.238-1.96-2.579-3.92-4.023-5.673-1.547-1.651-1.444 1.341-.928 3.919.515 2.579-1.135 6.602-5.467 9.283-5.054 3.095-7.324 4.126-6.602 1.96z" fill="#233561"/><path d="M443.904 404.153c0 1.754 1.135 4.745-.412 6.911-1.341 2.063-3.61 3.404-6.086 3.713 0 0 2.579-4.435 1.444-12.377-.103-1.032-.412-2.166-.722-3.301 0 0 4.023-2.991 5.88-3.404l.928 2.682c-.103 1.857-.619 3.817-1.032 5.157v.619z" fill="#9F7362"/><path d="M445.042 398.274c-.103 1.857-.619 3.816-1.031 5.157-.104.207-.104.413-.104.722l-3.816 1.651-1.238-3.404-4.435-12.068 6.601-2.785 2.992 8.148 1.031 2.579z" fill="#9F7362"/><path opacity=".2" d="M441.125 387.547l-6.602 2.785 2.27 6.085h.103a8.775 8.775 0 0 0 6.601-2.578l-2.372-6.292z" fill="#233561"/><path d="M385.114 414.057a10.676 10.676 0 0 1 3.3-1.547s5.88-2.991 9.18-12.893l6.189-1.238a4.185 4.185 0 0 1 2.269 2.682c.103 1.031 0 2.166-.103 3.197-.103 3.404-.619 12.068-.619 12.068h-.825c0-2.269 0-5.776-.206-8.045-.31-2.269-1.96.309-2.888 2.785-.929 2.475-4.539 4.951-9.593 4.848-6.085-.103-8.458-.413-6.704-1.857z" fill="#233561"/><path d="M402.751 403.33c-.722 1.238-1.547 2.269-2.681 3.198-1.238.928-1.651 4.951-4.539 6.188-2.269 1.032-4.951.929-7.117-.206 0 0 4.435-2.269 7.736-9.386a9.222 9.222 0 0 0 .619-5.261l-2.269-11.449 7.529-1.031 1.857 13.718c.103 2.166-.309 3.404-1.135 4.229z" fill="#9F7362"/><path opacity=".2" d="M393.98 382.288l1.754 10.108.619.103c2.269.516 4.641 0 6.498-1.341l-1.238-9.799-7.633.929z" fill="#233561"/><path d="M419.051 225.196c0-.309 0-.619-.103-.825-.619-5.157-5.261-8.767-10.418-8.252h-.206c-.619.103-1.238.207-1.96.31-4.332.619-8.664 1.444-12.893 2.578l-2.166.619c-1.032.31-1.96.722-2.888 1.032-4.436 1.65-6.911 6.188-5.88 10.727 1.032 4.848 2.476 12.687 7.736 23.208 1.238 2.372 1.444 7.323 2.476 10.314l28.468-5.776v.103c-1.341-8.87-1.96-24.136-2.166-34.038z" fill="#233561"/><path d="M392.743 264.906s-1.547 36.308-2.991 64.157c-1.135 22.177 3.197 60.031 3.197 60.031s5.673 1.857 11.553-1.65c.206 1.753 1.753-34.863 0-56.008 7.942-30.841 19.701-60.031 11.036-71.377l-22.795 4.847z" fill="#233561"/><path opacity=".3" d="M406.255 286.257l11.759-6.704c-1.547 11.036-5.879 24.858-10.108 39.608-3.198-11.759-4.745-24.033-1.651-32.904z" fill="#233561"/><path d="M397.902 265.836s7.736 28.159 12.79 55.08c2.167 19.391 23.002 72.305 23.002 72.305l3.61-.722c1.754-.309 3.301-1.134 4.539-2.269l1.237-1.135s-6.188-38.37-12.171-53.326c.103-31.253.722-64.879-11.037-75.4l-21.97 5.467z" fill="#233561"/><path d="M407.082 216.118s-2.991 33.213 4.539 76.432c12.377-.723 20.01-4.126 20.01-4.126s-2.578-23.414-10.211-35.379c-1.341-8.355-.103-26.199-.929-32.801-.309-2.372-2.166-4.229-4.435-4.538-2.269-.31-5.57 0-8.974.412zm-13.613 2.372s-1.651 15.782 8.458 74.884c-4.023 2.166-12.584 1.444-12.584 1.444s.103-19.701 1.444-35.379c.619-7.633-4.848-8.767-8.046-17.225-1.547-9.799-.618-17.741.826-18.876 2.269-1.857 5.982-4.332 9.902-4.848z" fill="#FFD465"/><path opacity=".7" d="M406.982 216.016s-.619 13.615-.413 23.517c1.032-7.014 3.507-13.822 3.507-15.988-.722-.412-1.444-.825-2.062-1.341.825-.618 1.65-1.237 2.578-1.65 0-1.031.206-4.745.103-5.054-2.063.309-3.713.516-3.713.516zm-13.41 2.373s-.516 8.561 1.031 23.517c-2.166-6.292-5.054-12.274-4.744-14.647 1.134-.928 2.166-2.063 2.166-2.063-.722-.412-1.547-.825-2.373-.928 0-1.753.207-3.507.413-5.26 1.96-.31 3.507-.619 3.507-.619z" fill="#fff"/><path d="M417.295 220.864c-1.96 3.403-.825 7.736 2.475 9.799h.103c2.063 1.237 4.023 2.578 5.983 3.816 1.96 1.341 3.816 2.682 5.467 4.023.825.722 1.65 1.341 2.269 2.063.309.309.619.618.825.928.206.206.309.412.309.309l-.309-1.444c.103.929-.103 1.754-.516 2.579a18.173 18.173 0 0 1-2.372 3.816c-1.032 1.341-2.063 2.682-3.198 3.817-1.134 1.237-2.475 2.578-3.61 3.713l2.991 4.642c1.754-.826 3.507-1.754 5.158-2.889 1.65-1.134 3.3-2.269 4.848-3.61 1.65-1.444 3.094-3.094 4.332-4.848.825-1.237 1.444-2.475 1.856-3.816.413-1.341.619-2.682.619-4.023v-.515l-.206-.722a11.821 11.821 0 0 0-1.238-2.579 20.157 20.157 0 0 0-1.753-2.372c-.929-1.135-1.96-2.166-2.992-3.095-1.959-1.753-4.022-3.507-6.085-5.054-2.063-1.547-4.229-2.991-6.292-4.332-2.166-1.341-4.229-2.682-6.498-3.92l-2.166 3.714z" fill="#FFD465"/><path d="M428.227 254.592c-2.269-.722-4.641-.722-6.911.207l2.579 7.839 4.023-3.507.309-4.539z" fill="#9F7362"/><path d="M424.004 262.638l-2.682-7.839-3.92 4.435 3.301 5.364 3.301-1.96z" fill="#9F7362"/><path d="M389.754 215.398c-.928-5.777-1.753-16.607 3.92-28.572 4.951-10.314 25.374-3.094 22.279 14.234-1.856 10.212-6.189 8.458 1.547 15.266 4.436 3.919-8.664 4.951-9.798 2.372 0 0-4.642.413-7.943-2.166.103-.103-9.18 4.126-10.005-1.134z" fill="#233561"/><path d="M397.693 225.61c4.436.722 7.324-4.951 8.458-7.839h-.515c-1.238-3.611-.413-9.387.412-12.791l-8.251 6.499c.515 2.681.618 5.363-1.857 6.807-.516.103-1.031.207-1.444.31-.516 2.682-.516 6.395 3.197 7.014z" fill="#9F7362"/><path opacity=".2" d="M402.541 207.66l-4.951 3.817c.206.722.309 1.547.309 2.372 1.754-.206 4.539-1.65 4.848-3.507.103-.928.103-1.754-.206-2.682z" fill="#233561"/><path d="M410.485 198.997c-2.579 6.498-3.61 9.283-8.046 11.552-6.807 3.404-14.131-1.237-13.512-8.354.516-6.395 4.745-15.988 12.172-16.504 5.26-.412 9.798 3.61 10.211 8.871 0 1.547-.206 2.991-.825 4.435z" fill="#9F7362"/><path d="M401.818 195.902h.103c.103-.103.206-.207.103-.413-.413-.928-1.238-1.753-2.269-1.96-.103 0-.31.103-.31.207 0 .103.103.309.207.309a2.703 2.703 0 0 1 1.856 1.65c.103.207.207.207.31.207zm-10.106-4.023h.103c.825-.309 1.753-.309 2.475.103.104.104.31.104.413-.103.103-.103.103-.309-.103-.412-.928-.516-2.063-.619-2.991-.207-.104.104-.207.207-.207.31.103.206.207.309.31.309zm7.425 5.364c-.206.516-.619.928-.928.722-.31-.103-.516-.619-.31-1.238.207-.515.619-.928.929-.722.309.207.515.722.309 1.238zm-6.086-2.062c-.206.515-.619.928-.928.722-.31-.103-.516-.619-.309-1.238.206-.516.618-.928.928-.722.309.206.516.722.309 1.238z" fill="#233561"/><path d="M392.846 194.149l-1.135-.825s.309 1.238 1.135.825zm6.082 1.959l-1.135-.825c0 .103.309 1.341 1.135.825zm-1.129 8.459c.413-.103.722-.207 1.031-.413.104 0 .104-.206.104-.309 0-.103-.207-.103-.207-.103-1.547.722-3.3.618-4.848-.104-.103-.103-.206 0-.309.104-.103.103 0 .206.103.309 1.238.722 2.682.825 4.126.516z" fill="#233561"/><path d="M398.622 187.754s-2.269 1.856-.928 3.713c1.341 1.753 5.466 1.031 6.292 4.435.825 3.507-.722 6.086 1.753 7.22 2.476 1.135 4.951-2.372 4.951-2.372s3.92-8.045-.928-12.377c-4.848-4.332-10.521-5.88-13.925-3.92s-5.26 3.404-4.023 4.229c1.238.825 3.198 1.444 4.023.619 1.444-1.341 2.785-1.547 2.785-1.547z" fill="#233561"/><path d="M410.278 204.774c-.825 1.134-1.96 1.856-3.301 2.063-1.753.309-2.475-1.341-1.856-2.888.618-1.445 2.269-3.301 3.919-2.889 1.238.31 1.96 1.651 1.65 2.889 0 .309-.206.515-.412.825z" fill="#9F7362"/><path d="M393.465 218.802s1.031-.619 2.063-.516c0 0-1.96 6.395 2.578 6.705 4.539.309 7.943-7.427 7.943-7.427s1.031-.412 1.96.207c0 0-3.611 9.077-9.903 8.767-6.291-.309-4.641-7.736-4.641-7.736z" fill="#FFD465"/><path opacity=".7" d="M393.465 218.802s1.031-.619 2.063-.516c0 0-1.96 6.395 2.578 6.705 4.539.309 7.943-7.427 7.943-7.427s1.031-.412 1.96.207c0 0-3.611 9.077-9.903 8.767-6.291-.309-4.641-7.736-4.641-7.736z" fill="#fff"/><path d="M406.565 199.204l-4.332-1.651c-.103-1.237-1.753-1.856-2.372-2.062-.722-.31-2.373-.929-3.301.103l-1.547-.619c0-1.341-1.651-1.96-2.373-2.269-.825-.31-2.991-1.135-3.713.722-.619 1.444.31 3.197 1.96 3.816 1.65.619 3.404 0 4.023-1.547 0-.103.103-.206.103-.31l1.341.516c0 .103-.103.206-.103.31-.619 1.444.309 3.197 1.959 3.816 1.651.619 3.404 0 4.023-1.547.103-.103.103-.31.103-.413l4.229 1.651c.619.206 1.032.618 1.341 1.237l.413-.206c-.516-.722-1.135-1.238-1.754-1.547zm-15.575-2.476c-1.444-.515-2.166-2.063-1.65-3.3.412-1.032 1.341-1.135 3.094-.413 1.754.722 2.373 1.444 1.96 2.476-.413 1.237-1.96 1.753-3.404 1.237zm7.22 2.785c-1.444-.515-2.166-2.063-1.65-3.3.413-1.032 1.341-1.135 3.094-.413 1.754.722 2.373 1.444 1.96 2.476-.412 1.237-1.96 1.856-3.404 1.237z" fill="#233561"/><path d="M202.647 182.504c.818-1.686 1.726-4.294 2.479-6.266 1.05-2.64-.229-3.323-.748-2.304-.22.35-2.938 6.221-3.071 6.627-.078.317-.428.097.114-1.151 0 0 .532-1.622 1.129-2.958 1.262-3.364-.173-3.411-.669-2.623-.166.263-2.76 5.356-2.98 5.706-.055.088-1.466 2.135-1.939 2.693-.781.854-1.066.919-.91.284 1.225-2.531 1.693-4.437.718-4.44-.833-.034-1.994 2.781-3.009 4.588-.574 1.106-1.275 3.966-1.182 5.37-.614 2.915-1.387 7.442 2.145 6.485 3.191-.804 6.211-2.694 7.696-4.084.197-.12.473-.558.671-.678 1.3-1.872 1.984-3.153 3.054-5.048 1.534-2.825 1.013-4.131.484-3.486-.165.263-2.603 4.72-2.457 3.712.905-1.632 1.537-3.801 2.465-5.663 1.226-2.53-.021-3.07-.628-2.107-.22.35-2.484 4.918-2.704 5.268-.055.088-.331.526-.506.416-.23-.023-.262-.165-.152-.341z" fill="#FFB27D"/><path opacity=".11" d="M124.457 423.628c-22.081 0-39.981-1.159-39.981-2.588 0-1.428 17.9-2.587 39.981-2.587 22.08 0 39.981 1.159 39.981 2.587 0 1.429-17.901 2.588-39.981 2.588z" fill="#344C82"/><path d="M102.036 304.404c.207 1.863.827 4.554 1.24 6.624.517 2.794 1.963 2.691 1.86 1.552 0-.414-.827-6.83-.93-7.244-.103-.311.31-.311.516 1.035 0 0 .414 1.656.62 3.105.724 3.518 1.963 2.794 1.963 1.862 0-.31-.516-6.002-.516-6.416 0-.104.103-2.587.206-3.312.207-1.138.414-1.345.62-.724.31 2.794.93 4.657 1.756 4.139.724-.414.207-3.415.104-5.485-.104-1.242-1.033-4.036-1.86-5.174-1.033-2.795-2.789-7.038-5.269-4.347-2.272 2.38-3.822 5.588-4.339 7.555-.103.207-.103.724-.206.931-.104 2.277 0 3.726.103 5.899.207 3.209 1.343 4.037 1.446 3.209 0-.311-.31-5.382.104-4.451.103 1.863.723 4.037.93 6.107.309 2.794 1.652 2.587 1.652 1.448 0-.414-.516-5.485-.516-5.899 0-.103 0-.621.207-.621.206-.103.309 0 .309.207z" fill="#FFB27D"/><path d="M192.432 185.697l-26.654 22.355 3.202-1.76-25.207 6.106 2.789 20.078 25.724-12.212 2.17-.518 1.136-1.345 23.658-25.563-6.818-7.141z" fill="#FCC858"/><path d="M116.083 280.703s-8.885 36.947-11.054 68.306c0 0 8.058 6.83 15.703 7.865 0 0 13.12-29.289 23.245-57.232l-27.894-18.939z" fill="#233561"/><path d="M124.455 288.57s8.265 36.637 21.695 67.788c0 0 9.195 1.449 16.53-.931 0 0-2.79-45.123-7.439-76.689l-30.786 9.832z" fill="#233561"/><path d="M141.089 209.604c-2.066-1.346-1.239-6.107-1.033-8.59l-12.19-9.418c0 .31-.104 10.142-.104 10.453-.723 4.553-8.574 9.521-9.401 9.935-4.752 2.691 2.17 27.115 26.448 13.661.103-.104.206-.104.31-.207 4.752-2.691.103-13.144-4.03-15.834z" fill="#FFB27D"/><path d="M157.409 233.822c-.103-2.069-.93-14.799-8.471-20.077-2.79-1.967-7.955-4.14-7.955-4.14-.517 1.449-.93 4.14-5.372 4.243-9.402.104-11.881-6.002-11.881-6.002-6.199 4.864-8.058 4.243-9.918 5.795-5.785 5.071-9.918 7.452-2.376 26.805l4.752 22.561-2.376 20.182c21.179 10.038 34.609 9.624 42.047.207 0-.104 2.79-27.012 1.55-49.574z" fill="#FCC858"/><path d="M130.24 214.779l7.025 7.762 4.442-7.658-11.467-.104z" fill="#fff"/><path d="M98.938 294.883c0-.207-.104-.311-.104-.518 0 .207.103.311.103.518zm-.106-.62c0-.104 0-.208-.103-.312.103.104.103.208.103.312zm-5.267-38.708c2.686-6.623 6.715-21.63 11.881-33.014 4.855-10.556 18.699-17.491 13.74 5.485-1.55 7.141-7.232 22.044-12.087 31.151l.826 33.636c-2.376.207-9.504-.207-9.504-.207-1.137-6.003-4.856-37.051-4.856-37.051zm5.165 38.189c0-.207-.103-.414-.103-.621 0 .104 0 .414.104.621z" fill="#FCC858"/><path d="M108.438 292.812s-7.335-.517-10.331-1.138c0 0-.62 3.001.517 4.036 1.136 1.035 8.368 1.552 9.194.621.827-.931.62-3.519.62-3.519z" fill="#F2F2F2"/><path d="M107.098 294.779a.413.413 0 1 1 0-.827.413.413 0 0 1 0 .827z" fill="#FCC858"/><path d="M189.435 186.733s5.992 6.417 8.058 9.418c0 0 2.996-2.07 2.79-3.933-.104-1.863-5.992-8.072-7.542-7.969-1.446.104-3.306 2.484-3.306 2.484z" fill="#F2F2F2"/><path d="M197.804 193.252a.517.517 0 1 1 0-1.035.517.517 0 0 1 0 1.035z" fill="#FCC858"/><path d="M133.647 325.827l1.549-2.484c.517-.828.93-1.656 1.447-2.484.929-1.656 1.756-3.415 2.582-5.071l-.206.207c2.582-1.345 5.062-2.794 7.438-4.554-2.686 1.035-5.372 2.277-7.955 3.623l-.103.103-.103.104c-.93 1.656-1.653 3.415-2.48 5.174-.413.828-.826 1.76-1.136 2.588a47.084 47.084 0 0 0-1.033 2.794z" fill="#0D1017"/><path d="M92.53 395.375l28.513-38.913-11.157-14.386s-9.918 8.28-13.534 16.456c-7.128 16.558-11.467 25.459-13.947 30.323 2.893 2.587 6.509 5.278 10.124 6.52z" fill="#233561"/><path d="M87.569 402.103l4.958-6.727c-3.615-1.242-7.231-3.933-10.124-6.521-2.79 5.486-3.41 5.693-3.41 5.693s1.86 5.278 8.576 7.555z" fill="#FFB27D"/><path d="M167.535 405.31l-5.269-52.264-16.529-2.069s-.827 21.526 1.963 30.013c4.132 12.419 6.405 20.388 7.748 25.666 3.719-.104 8.265-.414 12.087-1.346z" fill="#233561"/><path d="M156.997 414.004s5.063 3.933 11.468.724l-.93-9.417c-3.822 1.034-8.368 1.345-12.087 1.345 1.653 7.037 1.549 7.348 1.549 7.348zM140.26 174.623s4.649 2.794 4.545 7.969c0 1.345 1.55 7.969 1.55 7.969.826 8.176-4.236 13.661-6.199 13.764-4.649.207-8.471-2.173-10.847-4.347-4.236-4.036-6.819-17.904-3.513-22.457 4.649-6.107 12.191-5.589 14.464-2.898z" fill="#FFB27D"/><path d="M128.066 190.665c.104-1.035.724-6.934.414-8.176a2.05 2.05 0 0 1 .93-.207c2.066-.104 3.719-1.863 3.719-3.933 0 0 4.029.104 8.058-.724 5.269-1.035 3.822-6.934 3.719-7.038-1.343-.31-12.604-2.07-18.906 2.07-6.302 4.036-3.202 14.075-2.686 15.731 0 .103.207.207.31.207l4.029 2.277c.207.103.413 0 .413-.207z" fill="#233561"/><path d="M123.523 175.244s-4.958 2.794-1.033 12.316c0 .103 3.203-3.105 1.033-12.316z" fill="#233561"/><path d="M144.081 183.523s1.963 3.933 4.753 6.521c.929.827-1.86 3.725-3.203 3.829-2.686.31-1.55-10.35-1.55-10.35zm-21.076 8.592c1.239 2.276 3.615 3.208 5.165 2.173 1.55-1.035 1.86-3.726.517-5.899-1.24-2.277-3.616-3.208-5.166-2.173-1.549.931-1.859 3.622-.516 5.899z" fill="#FFB27D"/><path d="M129.205 197.6c.206 1.035.723 1.966 1.343 2.794.62.828 1.446 1.552 2.273 2.173.929.518 1.859 1.035 2.892 1.242l1.55.311h1.549c-1.033-.207-2.066-.311-2.995-.725-.93-.31-1.86-.724-2.687-1.242-.826-.517-1.549-1.242-2.272-1.966-.62-.828-1.24-1.656-1.653-2.587z" fill="#CC8972"/><path d="M139.848 194.391c.31.828.93 1.449 1.653 1.759.723.414 1.756.414 2.479.104-.413-.104-.826-.104-1.136-.207-.413-.104-.723-.207-1.033-.414-.723-.311-1.343-.725-1.963-1.242z" fill="#FFB27D"/><path d="M141.856 186.018c.284-.017.537.339.564.796.027.456-.182.84-.467.857-.285.017-.537-.34-.564-.796-.027-.457.182-.841.467-.857z" fill="#233561"/><path d="M124.348 187.457c.62 0 1.136.103 1.653.414.206.103.413.31.516.621.104.207.207.517.31.724l.103-.31c-.309.103-.516.207-.723.413-.206.207-.516.518-.413.932 0 .207.207.31.31.414l.31.31.31.311c.103.103.206.207.413.207l-.207-.207c.104.517 0 1.138-.413 1.552.31-.103.413-.414.62-.724.103-.311.207-.621.207-.932l-.207-.207-.207-.207-.309-.31c-.207-.207-.414-.414-.414-.518 0-.103.104-.31.31-.414.207-.103.413-.31.62-.413.103 0 .207-.207.103-.311-.103-.31-.206-.621-.413-.828-.206-.31-.413-.517-.723-.621a3.448 3.448 0 0 0-1.756.104z" fill="#CC8972"/><path d="M139.432 184.87c-.207-.311-.104-1.242 1.136-1.863.723-.31 1.343-.103 1.447-.103.206.103.31.413.206.62-.206.414-.723.207-1.549.828-.517.414-.31.518-.827.621 0 0-.207.104-.413-.103z" fill="#233561"/><path d="M126.729 204.223s4.339 7.451 9.814 9.418c0 0-3.513 1.759-6.095 3.518 0 0-7.542-7.141-8.058-8.486.103.103.723-3.312 4.339-4.45zm13.22 3.726l.723 2.691-4.133 3.105s3.306 1.449 4.753 2.38c0 0 1.756-1.966 1.756-5.278.103 0-.517-2.277-3.099-2.898z" fill="#fff"/><path d="M126.211 174.417s2.583-4.14 15.6-6.417c0 0 2.169 6.106-15.6 6.417z" fill="#233561"/><path d="M124.453 174.106s2.48-3.312 10.228-5.588c0 0 .62 4.243-10.228 5.588z" fill="#233561"/><path d="M125.59 174.935s0-1.76-2.48-3.726c-.103 0-1.446 2.173 2.48 3.726z" fill="#233561"/><path d="M125.59 174.727s-1.24-1.242-4.442-.828c0 0 .619 2.484 4.442.828z" fill="#233561"/><path d="M141.704 189.837c-1.255 0-2.273-1.344-2.273-3.002 0-1.657 1.018-3.001 2.273-3.001 1.255 0 2.273 1.344 2.273 3.001 0 1.658-1.018 3.002-2.273 3.002zm2.17-3.725s.31-.932 1.446-.725" stroke="#F2F2F2" stroke-width=".366" stroke-miterlimit="10"/><path d="M145.5 197.341s-4-1.214-6.501-1.214c0 0 4.228 2.87 6.501 1.214z" fill="#5E3322"/><path d="M170.944 414.934c-2.066-.931-1.239-4.036-3.719-2.277-1.55 1.139-2.376 3.105-4.029 3.312-3.616-.104-6.095-1.966-6.095-1.966h-.413s-1.757 3.104-1.24 9.21c0 .311.31.621.62.621l6.405.414c5.992-2.069 4.649 1.76 21.695-.31.31 0 .517-.311.62-.518.206-1.862 0-7.555-13.844-8.486zM90.468 402.93c-1.034-1.967 1.446-3.933-1.55-4.14-1.963-.104-3.823 1.035-5.269.207-2.79-2.277-3.616-5.278-3.616-5.278l-.31-.311s-3.306 1.346-6.612 6.52c-.206.311-.103.725.104.932l4.855 4.139c5.992 2.07 2.583 4.244 17.356 13.041.31.207.62.103.827-.104 1.343-1.242 4.649-5.899-5.785-15.006z" fill="#233561"/><path d="M139.535 186.939l-11.261.725" stroke="#F2F2F2" stroke-width=".366" stroke-miterlimit="10"/><path d="M113.189 246.136c.93-1.863 1.55-3.726 2.169-5.692.62-1.966 1.137-3.933 1.447-5.899-.93 1.863-1.55 3.726-2.17 5.692-.62 1.863-1.136 3.829-1.446 5.899zm41.43-25.044c.31 1.138.62 2.277.93 3.312.31 1.138.62 2.173 1.136 3.311.104-1.138 0-2.38-.413-3.518-.31-1.139-.826-2.277-1.653-3.105zm-27.482 8.59a111.578 111.578 0 0 0 2.79 8.279 134.266 134.266 0 0 0 3.409 8.073c1.24 2.587 2.583 5.174 4.236 7.658a22.303 22.303 0 0 0 2.789 3.415c1.033 1.035 2.273 1.967 3.823 2.07-1.447-.207-2.583-1.242-3.513-2.277-.93-1.035-1.756-2.277-2.479-3.518-1.55-2.484-2.79-5.072-4.029-7.659-1.24-2.587-2.377-5.278-3.513-7.969-1.343-2.691-2.479-5.382-3.513-8.072zm24.593 13.351c-.413 3.105-.929 6.21-1.446 9.315-.516 3.104-1.033 6.209-1.756 9.21-.62 3.105-1.343 6.107-2.376 9.108-.517 1.449-1.033 2.898-1.756 4.347-.724 1.345-1.55 2.794-2.687 3.725 1.343-.828 2.273-2.173 3.1-3.518.723-1.346 1.343-2.795 1.963-4.347 1.136-3.001 1.859-6.003 2.479-9.108.62-3.104 1.136-6.209 1.55-9.314.413-3.105.723-6.21.929-9.418zm-32.544 19.352c.724.207 1.344.414 1.963.517.62.207 1.343.311 1.963.414l1.963.414c.31.104.62.104.93.311h.103l-.103.103c-.103.104-.31.207-.413.207.206 0 .31 0 .516-.103.104 0 .207-.104.31-.207.103-.207 0-.311-.103-.414-.31-.311-.62-.414-.93-.518-.62-.31-1.343-.413-2.066-.517-1.343-.31-2.686-.414-4.133-.207zm.822 1.035c.62.724 1.24 1.345 1.86 1.863l.826.828c.104.103.207.31.207.414 0 .103-.207.31-.31.414.207 0 .517 0 .723-.311.207-.31.104-.621 0-.828-.206-.517-.516-.828-.826-1.138-.827-.518-1.55-1.035-2.48-1.242z" fill="#B58C40"/></svg>