<svg width="45" height="45" viewBox="0 0 45 45" fill="none" xmlns="http://www.w3.org/2000/svg"><circle cx="22.5" cy="22.5" r="22.5" fill="url(#a)"/><path d="M28.76 6.157A.415.415 0 0 0 28.433 6h-10.75a.42.42 0 0 0-.264.094.407.407 0 0 0-.143.238l-3.269 16.831a.403.403 0 0 0 .088.338.414.414 0 0 0 .32.148h5.14l.15 11.35c-.005.093 3.83-5.921 3.886-5.845.056.075-3.274 3.492-3.183 3.517.092.025-1.13-1.03-.703 2.328.087-.037.624-4.796.452-.46l11.795-18.5a.404.404 0 0 0-.163-.547.42.42 0 0 0-.205-.053h-5.016l2.268-8.93a.402.402 0 0 0-.076-.352zm-3.127 9.592a.403.403 0 0 0 .22.467c.058.027.12.041.183.041h4.86L20.409 32.671v-9.41a.403.403 0 0 0-.113-.303.414.414 0 0 0-.302-.127h-5.075l3.11-16.013H27.9l-2.268 8.931z" fill="url(#b)"/><path d="M19.895 8.788a.352.352 0 0 0 .411-.28l.143-.749a.352.352 0 0 0-.69-.132l-.143.75a.354.354 0 0 0 .152.36.35.35 0 0 0 .127.05z" fill="url(#c)"/><path d="M18.573 15.7a.352.352 0 0 0 .412-.278l.984-5.147a.351.351 0 0 0-.69-.131l-.985 5.146a.352.352 0 0 0 .28.41z" fill="url(#d)"/><defs><radialGradient id="a" cx="0" cy="0" r="1" gradientUnits="userSpaceOnUse" gradientTransform="rotate(90 0 22.5) scale(22.5)"><stop stop-color="#2CCFC8" stop-opacity=".31"/><stop offset="1" stop-color="#030F0E" stop-opacity="0"/></radialGradient><linearGradient id="b" x1="33.362" y1="38.222" x2="18.542" y2="40.803" gradientUnits="userSpaceOnUse"><stop stop-color="#A9782F"/><stop offset=".21" stop-color="#CEA657"/><stop offset=".48" stop-color="#FBCC6F"/><stop offset=".741" stop-color="#CEA657"/><stop offset="1" stop-color="#997032"/></linearGradient><linearGradient id="c" x1="20.52" y1="8.955" x2="19.82" y2="9.07" gradientUnits="userSpaceOnUse"><stop stop-color="#A9782F"/><stop offset=".21" stop-color="#CEA657"/><stop offset=".48" stop-color="#FBCC6F"/><stop offset=".741" stop-color="#CEA657"/><stop offset="1" stop-color="#997032"/></linearGradient><linearGradient id="d" x1="20.102" y1="16.357" x2="18.681" y2="16.472" gradientUnits="userSpaceOnUse"><stop stop-color="#A9782F"/><stop offset=".21" stop-color="#CEA657"/><stop offset=".48" stop-color="#FBCC6F"/><stop offset=".741" stop-color="#CEA657"/><stop offset="1" stop-color="#997032"/></linearGradient></defs></svg>