<svg width="56" height="57" viewBox="0 0 56 57" fill="none" xmlns="http://www.w3.org/2000/svg"><path d="M36.75 1.375c-10.133 0-18.375 8.243-18.375 18.375 0 2.43.47 4.781 1.387 7l-.915.916c-3.152-.217-6.156.906-8.365 3.115L4.03 37.233A10.7 10.7 0 0 0 .875 44.85c0 5.941 4.834 10.774 10.774 10.774 2.878 0 5.583-1.12 7.618-3.155l5.636-5.635c.25.016.5.04.746.04 2.878 0 5.583-1.12 7.618-3.155l5.747-5.747A18.304 18.304 0 0 0 55.126 19.75c0-10.132-8.242-18.375-18.375-18.375zm13.53 8.75h-5.894a21.24 21.24 0 0 0-4.795-6.74 16.628 16.628 0 0 1 10.69 6.74zm-12.312 10.5h6.637c-.09 2.476-.562 4.824-1.405 7h-.523a10.788 10.788 0 0 0-4.709-7zm-17.798-1.75c.132-2.52.808-4.897 1.944-7h6.303c-.703 2.01-1.184 4.337-1.273 7H20.17zm8.743 0c.098-2.703.62-5.031 1.379-7h12.894c.768 1.974 1.3 4.304 1.4 7H28.913zm7.832-15.57c1.041.751 3.71 2.958 5.66 6.82h-11.34c1.936-3.868 4.61-6.06 5.68-6.82zm9.61 17.32h6.979a16.593 16.593 0 0 1-1.94 7h-6.325c.773-2.196 1.203-4.543 1.286-7zm0-1.75c-.088-2.663-.569-4.99-1.272-7h6.303a16.508 16.508 0 0 1 1.944 7h-6.974zM33.91 3.385a21.227 21.227 0 0 0-4.796 6.74H23.22a16.628 16.628 0 0 1 10.69-6.74zm-13.74 17.24h6.046c-.618.404-1.2.872-1.734 1.405l-3.359 3.358a16.501 16.501 0 0 1-.953-4.763zm-2.14 30.607a8.963 8.963 0 0 1-6.381 2.643c-4.976 0-9.024-4.049-9.024-9.024 0-2.411.939-4.678 2.643-6.381l6.452-6.452a8.961 8.961 0 0 1 5.485-2.6c-.501.635-.93 1.323-1.276 2.053a7.25 7.25 0 0 0-2.971 1.785l-6.452 6.452a7.221 7.221 0 0 0-2.131 5.143c0 4.011 3.263 7.274 7.274 7.274 1.942 0 3.77-.756 5.143-2.13l6.452-6.453a7.222 7.222 0 0 0 2.131-5.143c0-2.578-1.403-4.96-3.58-6.256l1.261-1.262c2.518 1.663 4.069 4.477 4.069 7.519a8.963 8.963 0 0 1-2.643 6.381l-6.452 6.45zm-2.89-17.485a10.843 10.843 0 0 0-.265 2.354c0 3.51 1.727 6.772 4.557 8.78l-3.876 3.877a5.489 5.489 0 0 1-3.907 1.617 5.53 5.53 0 0 1-5.524-5.524c0-1.477.574-2.863 1.618-3.906l6.452-6.452a5.47 5.47 0 0 1 .945-.746zm5.604-.188c1.746.961 2.881 2.82 2.881 4.84a5.504 5.504 0 0 1-.619 2.542c-1.745-.961-2.881-2.82-2.881-4.84a5.505 5.505 0 0 1 .619-2.542zm16.881-3.91a5.48 5.48 0 0 1-1.618 3.906l-1.086 1.086a19.91 19.91 0 0 1-3.842-5.266h6.531c.005.092.015.182.015.274zm-7.323-2.024a20.291 20.291 0 0 1-.863-2.816 5.492 5.492 0 0 1 2.662-.684 5.53 5.53 0 0 1 5.136 3.5h-6.935zm-2.37-1.62c.151.56.318 1.101.502 1.62h-2.123l1.62-1.62zm-3.37 3.37h4.579a21.713 21.713 0 0 0 4.543 6.503l-.165.165a16.394 16.394 0 0 1-5.726-2.296 10.777 10.777 0 0 0-3.475-4.128l.244-.244zm7.492 8.134l-2.5 2.499a5.556 5.556 0 0 1-.945.745c.17-.765.266-1.55.266-2.354 0-.742-.1-1.467-.247-2.177a18.16 18.16 0 0 0 3.426 1.287zm-.024 4.973a8.96 8.96 0 0 1-5.485 2.6c.502-.635.93-1.323 1.276-2.053a7.25 7.25 0 0 0 2.971-1.785l6.452-6.452a7.222 7.222 0 0 0 2.131-5.143c0-4.011-3.263-7.274-7.274-7.274-1.942 0-3.77.756-5.143 2.13l-6.452 6.453a7.22 7.22 0 0 0-2.131 5.143c0 2.578 1.403 4.96 3.58 6.256l-1.261 1.262c-2.518-1.663-4.069-4.477-4.069-7.518 0-2.411.939-4.678 2.643-6.381l6.452-6.452a8.963 8.963 0 0 1 6.381-2.643c4.976 0 9.024 4.049 9.024 9.024a8.963 8.963 0 0 1-2.643 6.381l-6.452 6.452zm8.885-6.648a10.683 10.683 0 0 0 1.96-6.184c0-.093-.011-.182-.014-.274h7.45a16.511 16.511 0 0 1-9.396 6.458z" fill="#F9DC5C"/></svg>