<svg width="56" height="57" viewBox="0 0 56 57" fill="none" xmlns="http://www.w3.org/2000/svg"><g clip-path="url(#a)"><path d="M19.405 36.704l.521-2.086H10.48l.522 2.086a4.324 4.324 0 0 0 4.201 3.28 4.324 4.324 0 0 0 4.202-3.28zm-6.63-.297h4.856a2.537 2.537 0 0 1-2.428 1.789c-1.121 0-2.1-.728-2.428-1.789zM0 30.147a2.686 2.686 0 0 0 2.683 2.683h.94c.354 4.619 3.414 8.482 7.598 10.014l-.292.876a11.41 11.41 0 0 0-8.08 9.774l-.26 2.588h25.229l-.186-1.85a23.946 23.946 0 0 0 7.28-1.67l4.438 3.803 5.84-5.007a3.755 3.755 0 0 0 1.314-2.855v-.176a3.74 3.74 0 0 0-1.102-2.661 4.254 4.254 0 0 0-.584-.481 24.184 24.184 0 0 0 4.433-8.779h1.725a2.686 2.686 0 0 0 2.683-2.683V26.57a2.686 2.686 0 0 0-2.683-2.683h-1.734a24.283 24.283 0 0 0-6.171-10.732h2.88l1.79 3.577H56l-2.236-4.471L56 7.788h-8.26l-1.788 3.578H39.35C39.35 5.448 34.536.634 28.618.634c-4.397 0-8.18 2.66-9.837 6.454a24.15 24.15 0 0 0-10.006 6.085C3.905 13.37 0 17.382 0 22.299a9.1 9.1 0 0 0 .654 3.395l.827 2.068A2.675 2.675 0 0 0 0 30.147zm1.789 0c0-.494.401-.894.894-.894h.894v1.788h-.894a.895.895 0 0 1-.894-.894zm3.577 1.789V26.55c0-.716.426-1.361 1.084-1.644l2.888-1.237a7.982 7.982 0 0 0 5.314 2.007h8.6a1.79 1.79 0 0 1 1.789 1.789v4.471c0 5.425-4.414 9.838-9.838 9.838-5.424 0-9.837-4.414-9.837-9.838zm6.172 13.476l2.653 1.326-1.386.925-1.338-2.23.071-.021zm3.528 5.304h.274l.597 3.577H14.47l.596-3.577zm.479-1.788h-.683l-.183-.364.524-.35.524.349-.182.364zm2.057-1.265l-1.386-.925 2.652-1.326.072.02-1.338 2.23zm-2.399-4.101c.775 0 1.53-.08 2.262-.225l.222.665-2.484 1.243-2.483-1.242.222-.666a11.62 11.62 0 0 0 2.261.225zM4.628 53.672a9.617 9.617 0 0 1 5.154-7.57l2.454 4.091.944-.629.199.4-.722 4.33H8.943V51.98a3.924 3.924 0 0 0-1.155-2.791l-1.266 1.264a2.147 2.147 0 0 1 .632 1.527v2.312H4.565l.063-.621zm18.624.621v-2.312c0-.577.225-1.12.633-1.527L22.62 49.19a3.922 3.922 0 0 0-1.157 2.79v2.313H17.75l-.721-4.33.2-.4.943.63 2.454-4.091a9.614 9.614 0 0 1 5.154 7.569l.062.622h-2.589zm21.464-5.79c0 .577-.252 1.123-.69 1.499L39.35 54.01l-4.606-3.948c-.483-.414-.76-1.016-.76-1.735 0-.526.205-1.023.578-1.396a2.328 2.328 0 0 1 1.658-.686 2.33 2.33 0 0 1 1.658.686l1.472 1.472 1.472-1.472c.886-.885 2.429-.885 3.315 0 .374.373.579.869.579 1.396v.176zM51.87 26.57v7.154a.895.895 0 0 1-.894.895H44.91l-.846 3.386c-.057.224-.431.223-.488.001l-.846-3.388h-6.064a.895.895 0 0 1-.895-.894V26.57c0-.493.402-.895.895-.895h14.309c.492 0 .894.402.894.895zm-3.024-11.626l-.895-1.789h4.26l.895 1.789h-4.26zm0-5.366h4.26l-.894 1.788h-4.26l.894-1.788zm-8.395 3.577c3.3 2.832 5.71 6.56 6.935 10.732h-10.72a2.686 2.686 0 0 0-2.682 2.683v7.154a2.686 2.686 0 0 0 2.683 2.683h4.667l.508 2.033a2.038 2.038 0 0 0 1.98 1.544c.936 0 1.75-.635 1.978-1.545l.508-2.032h1.09a22.4 22.4 0 0 1-4.343 8.105c-.19-.026-.38-.056-.575-.056a4.106 4.106 0 0 0-2.923 1.21l-.207.208-.208-.207a4.105 4.105 0 0 0-2.922-1.211c-1.104 0-2.141.43-2.923 1.21-.711.71-1.102 1.655-1.102 2.745 0 1.062.441 2.06 1.19 2.801a22.196 22.196 0 0 1-5.989 1.224 11.411 11.411 0 0 0-7.918-8.715l-.291-.876c4.183-1.533 7.243-5.395 7.598-10.014h.939a2.686 2.686 0 0 0 2.683-2.683 2.675 2.675 0 0 0-1.481-2.385l.565-1.412a12.77 12.77 0 0 0 .898-4.405 10.643 10.643 0 0 0 8.806-8.79h1.256v-.001zM26.829 29.253h.895a.895.895 0 0 1 0 1.788h-.895v-1.788zM23.322 12.21a5.504 5.504 0 0 1-.07-.844 5.371 5.371 0 0 1 5.366-5.365 5.371 5.371 0 0 1 5.366 5.365h-1.789a3.58 3.58 0 0 0-3.577-3.577c-1.906 0-3.455 1.503-3.558 3.383l-.516.345a9.851 9.851 0 0 1-1.222.693zm7.005 7.936c-.07-.595-.18-1.185-.333-1.765a7.105 7.105 0 0 0 5.547-5.226h1.84a8.87 8.87 0 0 1-7.054 6.99zm-1.709-8.78v1.789a1.79 1.79 0 0 1-1.789-1.789 1.79 1.79 0 0 1 1.789-1.788 1.79 1.79 0 0 1 1.789 1.788h-1.789zm0 3.578c1.318 0 2.46-.725 3.08-1.789h1.978a5.331 5.331 0 0 1-4.255 3.516 12.684 12.684 0 0 0-.865-1.734c.02 0 .04.007.062.007zm0-12.52c4.931 0 8.943 4.011 8.943 8.942h-1.788c0-3.944-3.21-7.154-7.155-7.154-3.945 0-7.154 3.21-7.154 7.154 0 .495.067.98.166 1.459a9.712 9.712 0 0 1-1.761.302 9.001 9.001 0 0 1-.194-1.76c0-4.932 4.012-8.944 8.943-8.944zm-10.577 10.73h-6.619a22.349 22.349 0 0 1 6.683-3.95 10.67 10.67 0 0 0-.219 2.161c0 .602.057 1.2.155 1.789zm-8.898 1.789h9.99c2.06 0 4.062-.544 5.829-1.579a10.984 10.984 0 0 1 3.656 8.227c0 1.409-.265 2.786-.788 4.093l-.712 1.779h-.289a3.58 3.58 0 0 0-3.577-3.577h-8.599a6.19 6.19 0 0 1-5.774-3.91l-1.661.664c.232.58.525 1.12.87 1.616l-2.343 1.005a3.575 3.575 0 0 0-2.168 3.288v.914h-.289l-.974-2.434a7.33 7.33 0 0 1-.525-2.732c0-4.055 3.299-7.354 7.354-7.354zm1.589 15.203a.895.895 0 0 0-1.789 0v.894H7.154v-.894a2.686 2.686 0 0 1 2.683-2.683 2.686 2.686 0 0 1 2.683 2.683v.894h-1.788v-.894zm8.943.894h-1.789v-.894a2.686 2.686 0 0 1 2.683-2.683 2.686 2.686 0 0 1 2.683 2.683v.894h-1.788v-.894a.895.895 0 0 0-1.79 0v.894zm21.463 0H39.35v-1.788h1.788v1.788zm3.578 0h-1.789v-1.788h1.789v1.788zm3.577 0h-1.789v-1.788h1.789v1.788z" fill="#0085FF"/></g><defs><clipPath id="a"><path fill="#fff" transform="translate(0 .5)" d="M0 0h56v56H0z"/></clipPath></defs></svg>